<svg xmlns="http://www.w3.org/2000/svg" xmlns:xlink="http://www.w3.org/1999/xlink" width="190" height="192" viewBox="0 0 190 192">
  <defs>
    <clipPath id="clip-path">
      <circle id="Elipse_131" data-name="Elipse 131" cx="95" cy="95" r="95" transform="translate(1462 2095)" fill="#fff" stroke="#707070" stroke-width="1"/>
    </clipPath>
  </defs>
  <g id="Grupo_298" data-name="Grupo 298" transform="translate(-1462 -2093)">
    <g id="Elipse_130" data-name="Elipse 130" transform="translate(1462 2093)" fill="#fff" stroke="#707070" stroke-width="1">
      <circle cx="95" cy="95" r="95" stroke="none"/>
      <circle cx="95" cy="95" r="94.5" fill="none"/>
    </g>
    <g id="Grupo_de_máscara_24" data-name="Grupo de máscara 24" clip-path="url(#clip-path)">
      <g id="Grupo_297" data-name="Grupo 297" transform="translate(1053.455 1944.294)">
        <path id="Caminho_2273" data-name="Caminho 2273" d="M402.545,201.176h6.626l15.616,32.678,4.916,1.157v5.495l4.627,8.965-12.146-7.808Z" transform="translate(0 17.546)" fill="none" stroke="#000" stroke-miterlimit="10" stroke-width="0.5"/>
        <path id="Caminho_2274" data-name="Caminho 2274" d="M423.131,234.969l11.12,7.936,17.559-1.1,1.242-2.309a2,2,0,0,1,2.54-.89l4.528-1.631a1.445,1.445,0,0,1,1.919,1.575l-.4,2.64,11.738-.734h0a2.912,2.912,0,0,1,4-2.694l3.877-2.271a1.213,1.213,0,0,1,1.816,1.213l-.439,3.174,10.347-.646h0a2.746,2.746,0,0,1,3.866-2.507l3.287-1.8a1.1,1.1,0,0,1,1.606,1.142l-.444,2.645,9.713-.608.636-1.36a2.781,2.781,0,0,1,3.877-1.25l2.4-1.532a.955.955,0,0,1,1.468.846l-.121,2.781,8.294-.518.267-.629a3.509,3.509,0,0,1,4.826-1.753l2.376-1.891a.891.891,0,0,1,1.444.764l-.223,2.968,7.333-.459h0a2.9,2.9,0,0,1,4.136-2.368l2.394-1.147a1.146,1.146,0,0,1,1.639,1.095l-.1,1.916,7.538-.47.451-1.132a2.243,2.243,0,0,1,3.063-1.188l2.555-1.049a.451.451,0,0,1,.609.3l.667,2.606,9.614-.6,7.327-6.362-149.221,8.482-4.82-.964-5.688-6.94v2.891l-1.632-.578v-4.048l-2.994-3.471,52.728-1.027" transform="translate(10.586 30.86)" fill="none" stroke="#000" stroke-miterlimit="10" stroke-width="0.5"/>
        <line id="Linha_1397" data-name="Linha 1397" x1="7.564" y1="2.599" transform="translate(464.663 269.453)" fill="none" stroke="#000" stroke-miterlimit="10" stroke-width="0.5"/>
        <line id="Linha_1398" data-name="Linha 1398" x1="7.695" y1="1.972" transform="translate(485.525 268.769)" fill="none" stroke="#000" stroke-miterlimit="10" stroke-width="0.5"/>
        <line id="Linha_1399" data-name="Linha 1399" x1="6.846" y1="1.891" transform="translate(505.035 267.684)" fill="none" stroke="#000" stroke-miterlimit="10" stroke-width="0.5"/>
        <line id="Linha_1400" data-name="Linha 1400" x1="7.622" y1="0.845" transform="translate(522.23 267.606)" fill="none" stroke="#000" stroke-miterlimit="10" stroke-width="0.5"/>
        <line id="Linha_1401" data-name="Linha 1401" x1="7.942" y1="0.882" transform="translate(538.893 266.508)" fill="none" stroke="#000" stroke-miterlimit="10" stroke-width="0.5"/>
        <line id="Linha_1402" data-name="Linha 1402" x1="7.652" y1="0.736" transform="translate(554.583 265.691)" fill="none" stroke="#000" stroke-miterlimit="10" stroke-width="0.5"/>
        <line id="Linha_1403" data-name="Linha 1403" x1="6.895" y1="0.673" transform="translate(570.223 264.824)" fill="none" stroke="#000" stroke-miterlimit="10" stroke-width="0.5"/>
        <path id="Caminho_2275" data-name="Caminho 2275" d="M455.5,237.253l-3.528-1.948a1.319,1.319,0,0,1-.682-1.155V219.64a3.136,3.136,0,0,1,3.074-3.135l83.292-1.616a1.678,1.678,0,0,1,1.047.344l3.092,2.361a1.9,1.9,0,0,1,.747,1.485l.172,12.338a2.281,2.281,0,0,1-2.163,2.065l-83.97,4.013A1.987,1.987,0,0,1,455.5,237.253Z" transform="translate(31.137 26.305)" fill="none" stroke="#000" stroke-miterlimit="10" stroke-width="0.25"/>
        <path id="Caminho_2276" data-name="Caminho 2276" d="M474.524,218.721v13.22a.963.963,0,0,1-.964.964H460.354a1.06,1.06,0,0,1-1.06-1.06v-13.22a1.171,1.171,0,0,1,1.17-1.17h12.794A1.267,1.267,0,0,1,474.524,218.721Z" transform="translate(36.247 27.943)" fill="none" stroke="#000" stroke-miterlimit="10" stroke-width="0.25"/>
        <rect id="Retângulo_545" data-name="Retângulo 545" width="3.374" height="1.624" transform="translate(497.566 247.738)" fill="#17100d" stroke="#000" stroke-miterlimit="10" stroke-width="0.25"/>
        <rect id="Retângulo_546" data-name="Retângulo 546" width="4.338" height="0.675" transform="translate(497.566 253.907)" fill="#17100d" stroke="#000" stroke-miterlimit="10" stroke-width="0.25"/>
        <rect id="Retângulo_547" data-name="Retângulo 547" width="4.338" height="0.675" transform="translate(497.566 258.826)" fill="#17100d" stroke="#000" stroke-miterlimit="10" stroke-width="0.25"/>
        <rect id="Retângulo_548" data-name="Retângulo 548" width="3.124" height="0.486" transform="translate(518.413 253.907) rotate(90)" fill="#17100d" stroke="#000" stroke-miterlimit="10" stroke-width="0.25"/>
        <rect id="Retângulo_549" data-name="Retângulo 549" width="3.124" height="0.486" transform="translate(514.87 253.907) rotate(90)" fill="#17100d" stroke="#000" stroke-miterlimit="10" stroke-width="0.25"/>
        <rect id="Retângulo_550" data-name="Retângulo 550" width="1.35" height="1.35" transform="translate(515.881 250.051)" fill="#17100d" stroke="#000" stroke-miterlimit="10" stroke-width="0.25"/>
        <rect id="Retângulo_551" data-name="Retângulo 551" width="3.124" height="0.486" transform="translate(553.597 252.865) rotate(90)" fill="#17100d" stroke="#000" stroke-miterlimit="10" stroke-width="0.25"/>
        <rect id="Retângulo_552" data-name="Retângulo 552" width="3.124" height="0.486" transform="translate(550.054 252.865) rotate(90)" fill="#17100d" stroke="#000" stroke-miterlimit="10" stroke-width="0.25"/>
        <rect id="Retângulo_553" data-name="Retângulo 553" width="1.35" height="1.35" transform="translate(551.065 249.009)" fill="#17100d" stroke="#000" stroke-miterlimit="10" stroke-width="0.25"/>
        <rect id="Retângulo_554" data-name="Retângulo 554" width="3.124" height="0.486" transform="translate(542.222 253.488) rotate(90)" fill="#17100d" stroke="#000" stroke-miterlimit="10" stroke-width="0.25"/>
        <rect id="Retângulo_555" data-name="Retângulo 555" width="3.124" height="0.486" transform="translate(538.68 253.488) rotate(90)" fill="#17100d" stroke="#000" stroke-miterlimit="10" stroke-width="0.25"/>
        <rect id="Retângulo_556" data-name="Retângulo 556" width="1.35" height="1.35" transform="translate(539.69 249.632)" fill="#17100d" stroke="#000" stroke-miterlimit="10" stroke-width="0.25"/>
        <rect id="Retângulo_557" data-name="Retângulo 557" width="3.124" height="0.486" transform="translate(530.158 253.616) rotate(90)" fill="#17100d" stroke="#000" stroke-miterlimit="10" stroke-width="0.25"/>
        <rect id="Retângulo_558" data-name="Retângulo 558" width="3.124" height="0.486" transform="translate(526.615 253.616) rotate(90)" fill="#17100d" stroke="#000" stroke-miterlimit="10" stroke-width="0.25"/>
        <rect id="Retângulo_559" data-name="Retângulo 559" width="1.35" height="1.35" transform="translate(527.626 249.76)" fill="#17100d" stroke="#000" stroke-miterlimit="10" stroke-width="0.25"/>
        <rect id="Retângulo_560" data-name="Retângulo 560" width="3.194" height="7.865" transform="translate(562.234 248.123)" fill="none" stroke="#000" stroke-miterlimit="10" stroke-width="0.1"/>
        <line id="Linha_1404" data-name="Linha 1404" x2="22.315" transform="translate(573.67 252.056)" fill="none" stroke="#000" stroke-miterlimit="10" stroke-width="0.5"/>
        <line id="Linha_1405" data-name="Linha 1405" x2="22.264" transform="translate(573.722 248.123)" fill="none" stroke="#000" stroke-miterlimit="10" stroke-width="0.5"/>
        <path id="Caminho_2277" data-name="Caminho 2277" d="M523,228l-5.3-4.107-2.217,2.854-1.685-.8,2.553-3.6-1.35-.824" transform="translate(71.058 30.539)" fill="none" stroke="#000" stroke-miterlimit="10" stroke-width="0.5"/>
        <path id="Caminho_2278" data-name="Caminho 2278" d="M577.187,227.506l-5.205-4.82-1.735-4.434v-4.338l-3.47-5.977h-8.592l-3.826,4.82-25.273-.193-.578,2.506-1.735,2.651-1.15-.337.957-2.6-.471-2.217H514.119l-.243,2.8-2.046,2.362-1.011-.53,1.011-2.41v-2.41l-32.389-.1v3.277l-2.121,2.169-1.639-1.152,1.157-2.366.1-1.928H461.512v3.615l-1.807,2.241-1.952-.868.723-2.675L458.4,212.2H422.255l-3.9-6.218h-9.464" transform="translate(4.05 20.618)" fill="none" stroke="#000" stroke-miterlimit="10" stroke-width="0.5"/>
        <line id="Linha_1406" data-name="Linha 1406" y1="1.231" x2="151.834" transform="translate(419.571 239.255)" fill="none" stroke="#000" stroke-miterlimit="10" stroke-width="0.5"/>
        <path id="Caminho_2279" data-name="Caminho 2279" d="M504.867,213.458l1.182-.723h1.084v2.206h-.723l-.41-1.1Z" transform="translate(65.356 24.929)" fill="none" stroke="#000" stroke-miterlimit="10" stroke-width="0.5"/>
        <line id="Linha_1407" data-name="Linha 1407" y2="4.272" transform="translate(440.017 266.053)" fill="none" stroke="#000" stroke-miterlimit="10" stroke-width="0.5"/>
        <path id="Caminho_2280" data-name="Caminho 2280" d="M443.105,231.768l-4.338-1.639-1.446-.61-.578-2.137h-7.3v5.249" transform="translate(17.179 34.285)" fill="none" stroke="#000" stroke-miterlimit="10" stroke-width="0.5"/>
        <line id="Linha_1408" data-name="Linha 1408" y1="0.143" x2="7.106" transform="translate(448.211 264.148)" fill="none" stroke="#000" stroke-miterlimit="10" stroke-width="0.5"/>
        <line id="Linha_1409" data-name="Linha 1409" y2="5.249" transform="translate(446.62 261.667)" fill="none" stroke="#000" stroke-miterlimit="10" stroke-width="0.5"/>
        <line id="Linha_1410" data-name="Linha 1410" y1="0.143" x2="7.106" transform="translate(448.211 264.148)" fill="none" stroke="#000" stroke-miterlimit="10" stroke-width="0.5"/>
        <line id="Linha_1411" data-name="Linha 1411" x1="4.338" y1="1.639" transform="translate(455.947 264.414)" fill="none" stroke="#000" stroke-miterlimit="10" stroke-width="0.5"/>
        <line id="Linha_1412" data-name="Linha 1412" y1="0.143" x2="7.106" transform="translate(448.211 264.148)" fill="none" stroke="#000" stroke-miterlimit="10" stroke-width="0.5"/>
        <path id="Caminho_2281" data-name="Caminho 2281" d="M454.562,231.177l-4.338-1.639-1.446-.61-.578-2.137h-7.3v5.249" transform="translate(24.497 33.907)" fill="none" stroke="#000" stroke-miterlimit="10" stroke-width="0.5"/>
        <line id="Linha_1413" data-name="Linha 1413" y1="0.143" x2="7.106" transform="translate(466.986 263.179)" fill="none" stroke="#000" stroke-miterlimit="10" stroke-width="0.5"/>
        <line id="Linha_1414" data-name="Linha 1414" y1="23.507" transform="translate(580.025 223.494)" fill="none" stroke="#000" stroke-miterlimit="10" stroke-width="0.5"/>
        <line id="Linha_1415" data-name="Linha 1415" y1="5.061" transform="translate(569.525 223.494)" fill="none" stroke="#000" stroke-miterlimit="10" stroke-width="0.5"/>
        <line id="Linha_1416" data-name="Linha 1416" x1="202.041" y1="4.772" transform="translate(402.545 218.723)" fill="none" stroke="#000" stroke-miterlimit="10" stroke-width="0.5"/>
        <line id="Linha_1417" data-name="Linha 1417" x1="202.041" y1="9.447" transform="translate(402.545 208.023)" fill="none" stroke="#000" stroke-miterlimit="10" stroke-width="0.5"/>
        <line id="Linha_1418" data-name="Linha 1418" x1="202.041" y1="10.411" transform="translate(402.545 205.902)" fill="none" stroke="#000" stroke-miterlimit="10" stroke-width="0.5"/>
        <line id="Linha_1419" data-name="Linha 1419" x1="200.767" y1="19.858" transform="translate(402.545 173.706)" fill="none" stroke="#000" stroke-miterlimit="10" stroke-width="0.5"/>
      </g>
    </g>
  </g>
</svg>
