<svg xmlns="http://www.w3.org/2000/svg" xmlns:xlink="http://www.w3.org/1999/xlink" width="190" height="190" viewBox="0 0 190 190">
  <defs>
    <clipPath id="clip-path">
      <circle id="Elipse_129" data-name="Elipse 129" cx="95" cy="95" r="95" transform="translate(1143 2093)" fill="#fff" stroke="#707070" stroke-width="1"/>
    </clipPath>
  </defs>
  <g id="Grupo_300" data-name="Grupo 300" transform="translate(-1289 -2110)">
    <g id="Grupo_299" data-name="Grupo 299" transform="translate(0 80)">
      <g id="Elipse_28" data-name="Elipse 28" transform="translate(1289 2030)" fill="#fff" stroke="#707070" stroke-width="1">
        <circle cx="95" cy="95" r="95" stroke="none"/>
        <circle cx="95" cy="95" r="94.5" fill="none"/>
      </g>
    </g>
    <g id="Grupo_de_máscara_25" data-name="Grupo de máscara 25" transform="translate(146 17)" clip-path="url(#clip-path)">
      <g id="Grupo_296" data-name="Grupo 296" transform="translate(697.765 1862.313)">
        <path id="Caminho_2251" data-name="Caminho 2251" d="M454.987,312.277l1.2,3.077,36.794-1.943,7.367,5.441h42.383l8.686-8.047,1.322-1.249,1.364-1.241L571.274,292.4" transform="translate(62.23 20.503)" fill="none" stroke="#000" stroke-miterlimit="10" stroke-width="0.25"/>
        <path id="Caminho_2252" data-name="Caminho 2252" d="M403.235,297.417l48.2,8.551,34.009,4.32h27.79l153.655-23.171,1.35,5.706L515.1,318.995l-28.817,2.326-35.24-5.247-47.807-9.717" transform="translate(0 14.147)" fill="none" stroke="#000" stroke-miterlimit="10" stroke-width="0.25"/>
        <path id="Caminho_2253" data-name="Caminho 2253" d="M403.235,295.858l48.325,9.069,34.2,4.405h28.5L663,286.529h2.073l1.814,1.3" transform="translate(0 13.439)" fill="none" stroke="#000" stroke-miterlimit="10" stroke-width="0.25"/>
        <path id="Caminho_2254" data-name="Caminho 2254" d="M403.235,275.353,663.258,296.86l1.814,3.109" fill="none" stroke="#000" stroke-miterlimit="10" stroke-width="0.25"/>
        <line id="Linha_1390" data-name="Linha 1390" y1="127.485" x2="5.053" transform="translate(594.462 339.354)" fill="none" stroke="#000" stroke-miterlimit="10" stroke-width="0.25"/>
        <line id="Linha_1391" data-name="Linha 1391" y1="127.485" x2="5.83" transform="translate(580.47 339.354)" fill="none" stroke="#000" stroke-miterlimit="10" stroke-width="0.25"/>
        <line id="Linha_1392" data-name="Linha 1392" x1="4.218" y2="129.333" transform="translate(571.142 339.354)" fill="none" stroke="#000" stroke-miterlimit="10" stroke-width="0.25"/>
        <line id="Linha_1393" data-name="Linha 1393" y1="127.485" x2="5.053" transform="translate(563.757 339.354)" fill="none" stroke="#000" stroke-miterlimit="10" stroke-width="0.25"/>
        <line id="Linha_1394" data-name="Linha 1394" x2="20.415" y2="3.083" transform="translate(540.049 334.714)" fill="none" stroke="#000" stroke-miterlimit="10" stroke-width="0.25"/>
        <ellipse id="Elipse_132" data-name="Elipse 132" cx="10.614" cy="6.122" rx="10.614" ry="6.122" transform="translate(524.201 406.978) rotate(-67.438)" fill="none" stroke="#000" stroke-miterlimit="10" stroke-width="0.25"/>
        <ellipse id="Elipse_133" data-name="Elipse 133" cx="6.301" cy="3.407" rx="6.301" ry="3.407" transform="translate(529.092 403.527) rotate(-67.438)" fill="none" stroke="#000" stroke-miterlimit="10" stroke-width="0.144"/>
        <path id="Caminho_2255" data-name="Caminho 2255" d="M460.082,335.527c-2.828,6.687-1.916,13.437,1.943,15.041s9.244-2.533,12.03-9.235,1.87-13.332-1.943-15.041C468.636,324.735,462.914,328.83,460.082,335.527Z" transform="translate(66.373 60.856)" fill="none" stroke="#000" stroke-miterlimit="10" stroke-width="0.309"/>
        <path id="Caminho_2256" data-name="Caminho 2256" d="M470.575,322.78c-4.766-1.98-11.334,2.923-14.668,10.951s-2.176,16.14,2.59,18.12a5.672,5.672,0,0,0,3.017.57" transform="translate(61.045 56.502)" fill="none" stroke="#000" stroke-miterlimit="10" stroke-width="0.376"/>
        <path id="Caminho_2257" data-name="Caminho 2257" d="M463.459,325.408" transform="translate(72.418 60.19)" fill="none" stroke="#000" stroke-miterlimit="10" stroke-width="0.376"/>
        <path id="Caminho_2258" data-name="Caminho 2258" d="M474.832,327.194c-.022-.222-1.991-3.473-4.257-4.414-4.766-1.98-11.334,2.923-14.668,10.951s-2.176,16.14,2.59,18.12" transform="translate(61.045 56.502)" fill="none" stroke="#000" stroke-miterlimit="10" stroke-width="0.376"/>
        <path id="Caminho_2259" data-name="Caminho 2259" d="M472.767,326.523a5.286,5.286,0,0,0-2.535-2.929c-3.7-1.537-9.264,3.363-12.415,10.951s-2.7,14.983,1,16.521a3.491,3.491,0,0,0,3.229-.064" transform="translate(63.11 57.67)" fill="none" stroke="#000" stroke-miterlimit="10" stroke-width="0.322"/>
        <path id="Caminho_2260" data-name="Caminho 2260" d="M459.972,372.848c.639,1.4.374,2.057.194,2.332-.982,1.491-5.053.159-5.539,0a14.778,14.778,0,0,1-6.51-4.566,17.8,17.8,0,0,1-3.982-10.592c-.044-.885.037-.588.194-4.081,0,0,.183-4.128.194-8.843.015-7.01-.846-9.722-.874-13.7-.015-2.064.132-13.1,7.872-21.181,1.4-1.465,8.662-9.041,18.17-7.969,11.715,1.324,19.217,14.92,19.432,24.681.015.692-.022,1.377-.1,2.72-.52,9.215-1.165,19.985-3.183,21.005" transform="translate(48.594 34.621)" fill="none" stroke="#000" stroke-miterlimit="10" stroke-width="0.25"/>
        <path id="Caminho_2261" data-name="Caminho 2261" d="M454.931,304.15c5.05,0,13.622,2.242,16.931,4.268,8.916,5.464,10.719,16.2,10.946,18.494l.029.284a46.161,46.161,0,0,1-.518,12.351,69.126,69.126,0,0,0-1.066,13.827c.033,3.244.282,5.665.13,7.222-.652,6.722-5.052,13.75-10.1,15.6" transform="translate(62.163 34.628)" fill="none" stroke="#000" stroke-miterlimit="10" stroke-width="0.25"/>
        <path id="Caminho_2262" data-name="Caminho 2262" d="M461.716,306.424a26.088,26.088,0,0,0-7.453,6.061c-5.627,6.563-6.345,14.263-6.8,19.144a46.675,46.675,0,0,0,.777,13.8" transform="translate(52.942 37.362)" fill="none" stroke="#000" stroke-miterlimit="10" stroke-width="0.322"/>
        <path id="Caminho_2263" data-name="Caminho 2263" d="M469.567,310.8c-7.167-5.339-11.07-4.989-14.418-4.682" transform="translate(62.425 36.811)" fill="none" stroke="#000" stroke-miterlimit="10" stroke-width="0.25"/>
        <path id="Caminho_2264" data-name="Caminho 2264" d="M457.82,348.936c-3.63-1.04-6.788-4.445-7.9-5.779-.943-1.123-5.731-6.848-4.372-13.6a12.646,12.646,0,0,1,1.165-3.3" transform="translate(50.585 61.203)" fill="none" stroke="#000" stroke-miterlimit="10" stroke-width="0.376"/>
        <path id="Caminho_2265" data-name="Caminho 2265" d="M464.239,348.053c0,.9-2.216,1.438-3.4,1.575a10.036,10.036,0,0,1-5.83-1.262c-4.5-2.266-7.656-7.376-8.647-12.437-.5-2.539-1.28-6.522,1.165-9.33,1.3-1.493,4.762-3.46,6.407-2.993" transform="translate(51.225 57.938)" fill="none" stroke="#000" stroke-miterlimit="10" stroke-width="0.376"/>
        <path id="Caminho_2266" data-name="Caminho 2266" d="M458.583,335.293c-.077,5.764-6.821,2.63-8.021-3.735-.165-.874-.617-2.839.584-4.178a4.2,4.2,0,0,1,4.275-.874c1.843.584,3.4,2.751,3.667,6.165" transform="translate(56.643 61.239)" fill="none" stroke="#000" stroke-miterlimit="10" stroke-width="0.376"/>
        <path id="Caminho_2267" data-name="Caminho 2267" d="M464.409,330.474a18.715,18.715,0,0,0-4.182-4.63c-1.469-1.029-4.625-3.238-7.969-2.233a6.474,6.474,0,0,0-3.011,1.943c-3.244,3.848-.782,11.548,2.332,16.032,1.011,1.46,3.883,5.471,8.841,6.607a8.282,8.282,0,0,0,2.786-.042" transform="translate(53.489 57.722)" fill="none" stroke="#000" stroke-miterlimit="10" stroke-width="0.376"/>
        <line id="Linha_1395" data-name="Linha 1395" y1="1.52" x2="7.607" transform="translate(537.619 364.75)" fill="none" stroke="#000" stroke-miterlimit="10" stroke-width="0.309"/>
        <line id="Linha_1396" data-name="Linha 1396" x1="8.32" y2="0.652" transform="translate(492.241 367.367)" fill="none" stroke="#000" stroke-miterlimit="10" stroke-width="0.309"/>
        <g id="Grupo_295" data-name="Grupo 295" transform="translate(532.201 396.932)">
          <path id="Caminho_2268" data-name="Caminho 2268" d="M466.428,331.715l0,.007a.343.343,0,0,1-.117.17l-.577.449-3.238-.9,1.2-.888,2.44.678A.38.38,0,0,1,466.428,331.715Z" transform="translate(-460.944 -330.554)" fill="#d81d16"/>
          <path id="Caminho_2269" data-name="Caminho 2269" d="M465.409,333.228a1.011,1.011,0,0,1-.011.421,1.024,1.024,0,0,1-1.251.755l-2.13-.6-.227-1.251,2.339.65-.493-1.379,1.159-.581,1.425.4-1.154.581s.172.478.273.771A1.778,1.778,0,0,1,465.409,333.228Z" transform="translate(-461.79 -329.728)" fill="#d81d16"/>
        </g>
        <path id="Caminho_2270" data-name="Caminho 2270" d="M464.773,314.442a2.987,2.987,0,0,0,.76-1.636c.33-1.313-.236-4.326.258-10.365" transform="translate(73.998 32.573)" fill="none" stroke="#000" stroke-miterlimit="10" stroke-width="0.322"/>
        <path id="Caminho_2271" data-name="Caminho 2271" d="M467.813,309.239a46.364,46.364,0,0,1-5.242-.231,24.253,24.253,0,0,1-3.354-.584,10.635,10.635,0,0,1-2.914-2.013c-.868-.863-1.2-1.229-1.619-1.167a1.5,1.5,0,0,0-1.037,1.361,2.791,2.791,0,0,0,.907,2c1.117,1.37,2.929,1.634,5.246,1.943.661.088,1.081.115,2.786.194,6.2.3,6.841.291,8.4.416" transform="translate(60.619 35.935)" fill="none" stroke="#000" stroke-miterlimit="10" stroke-width="0.25"/>
        <path id="Caminho_2272" data-name="Caminho 2272" d="M465.119,302.371c0,1.4-.009,2.634,0,3.524a18.332,18.332,0,0,1-.245,4.517,2.843,2.843,0,0,1-1.63,1.07" transform="translate(72.16 32.489)" fill="none" stroke="#000" stroke-miterlimit="10" stroke-width="0.309"/>
      </g>
    </g>
  </g>
</svg>
