<svg xmlns="http://www.w3.org/2000/svg" xmlns:xlink="http://www.w3.org/1999/xlink" viewBox="0 0 230.82 230.82"><defs><clipPath id="clip-path"><rect y="1" width="230.82" height="230.82" transform="translate(230.82 232.82) rotate(-180)" style="fill:none"/></clipPath></defs><title>Prancheta 5 cópia</title><g id="Camada_3" data-name="Camada 3"><g style="clip-path:url(#clip-path)"><path d="M214.16,56.94s-14.69-8-27.67-12a2.55,2.55,0,0,1-1.6-3.58c1.1-2.09,1.61-5.2-1-8.72a2.43,2.43,0,0,0-.26-.3c-2.39-2.49-7.77-5.37-9.26-6.08s-16.41-4.44-16.41-4.44S117.67,11,67.77,28.55C51,34.9,13.51,50.73,4.56,78.68L4.47,79a28.07,28.07,0,0,0-.56,4.33s-.19,4.83,2.32,6.42a11,11,0,0,0,5,2.08,2.54,2.54,0,0,1,2.42,3,52,52,0,0,0,2.24,29.49c1.66,5.18,8.39,32.18,53.18,57.82a2.53,2.53,0,0,0,1.59.33c6-.73,25.78-5.22,30-6.18a2.56,2.56,0,0,0,1.32-.76l.38-.42a2.58,2.58,0,0,0,.43-2.87h0a2.58,2.58,0,0,0-1.77-1.4,131.06,131.06,0,0,1-40.18-16.73l-.15-.1C54,149.22,5.1,115.16,38.05,78.13a62.86,62.86,0,0,1,18-13.8c2-1,4.25-2.16,6.65-3.22,8.34-3.71,33-16.28,76-13.24,11.75,1.06,23,1.59,51.43,14.87l.35.2a16.13,16.13,0,0,1,3,2.49,2.47,2.47,0,0,1,.58,1c.27,1,.84,2.94,1.37,4.36.72,1.89,4.67,9.28,8.53,12.33l.29.2c2.89,1.84,8.47,4,12.82,1.63,3.82-2,2.14-6.51,1.6-7.71a2.28,2.28,0,0,1-.19-.69c-.21-1.55-.95-7.35-.61-10.2C218.33,63.09,217.05,58.46,214.16,56.94Z" style="fill:#9b9b9b;stroke:#000;stroke-miterlimit:10;stroke-width:1.5px"/><path d="M185.43,44.36S145,33.14,118,36.22c-12.26,1.27-34.3,2.5-64.67,16.28A79.63,79.63,0,0,0,31,67.36c-6,5.7-12,13.44-17.44,26.14" style="fill:none;stroke:#000;stroke-miterlimit:10;stroke-width:1.5px"/><path d="M185.43,35.67s-2.24.29-5.82-1.7-16.67-7.54-26.6-8.73S119,19.68,91.6,27C72.13,32.13,50.83,39.42,41.44,45.57c-6.49,4.24-18.26,14.9-26.15,24a41.16,41.16,0,0,0-6,9.08c-2,4.18-3.59,7.17-4.92,8.45" style="fill:none;stroke:#000;stroke-miterlimit:10;stroke-width:0.75px"/><path d="M217.86,69.22s-1.19,2.43-3.22,2.61-6.22-1.5-6.22-1.5-12.57-3.92-17.07-6.81" style="fill:none;stroke:#000;stroke-miterlimit:10;stroke-width:0.75px"/><circle cx="210.63" cy="77.34" r="4.72" style="fill:none;stroke:#000;stroke-miterlimit:10;stroke-width:0.75px"/><circle cx="73.96" cy="174.07" r="4.72" style="fill:none;stroke:#000;stroke-miterlimit:10;stroke-width:0.75px"/><polyline points="102.39 171.46 100.66 173.41 101.53 175.55" style="fill:none;stroke:#000;stroke-miterlimit:10;stroke-width:0.75px"/><path d="M100.2,173.5s-13.06-.78-28.5-9.07c-9.71-4.94-29.91-17.82-39.79-32.82-6.18-10.94-9.36-18.8-9-30.36.88-6.61-1.42-22.14,30.44-39.53,17.73-7.94,23-11.47,56.29-16.41,9-.61,41.12-5.73,79.24,15.18L194.1,65" style="fill:none;stroke:#000;stroke-miterlimit:10;stroke-width:0.75px"/><path d="M209.17,186.29s-3.44,11.32-18.62,16.61S160,206.25,147,205.55,69.49,198.14,65.44,198s-50.12-2.65-72.53,1.59c-4.94,1.94-10.77,2.65-18,2.12s-19.94-5.79-20.3-20.1c.53-11,8.47-20.49,8.47-20.49s7.59-10.59,7.59-12.36S-17.86,133.2,4,131.25c9.89-3,11.07-3.7,11.07-3.7s31.46-8.65,78.23,0c18.53,3.53,91.43,17.3,91.43,17.3" style="fill:#fff;stroke:#000;stroke-miterlimit:10;stroke-width:1.5px"/><path d="M278.79-24.3S274-3.13,255.49,37.64c-8.73,25.14-14.29,31-19.05,105.61-1.06,14.83-1.59,33.83-2.92,35.71s-10.85,11.45-24.35,7.33c-2.65-4.92-7.41-13.39-12.44-18.68s-11.65-21.71-11.65-21.71-16.73-51.21-6.38-81.33,37.09-87,38.15-93.37,9-31.24,12.44-36.27" style="fill:#fff;stroke:#000;stroke-miterlimit:10;stroke-width:1.5px"/><path d="M254.44-81.75a64.74,64.74,0,0,0,0,15.36c1.05,7.41-1.06,25.67-6.62,37.85s-27.8,61.41-31,68.82-24.36,30.18-16.15,90.27c6.88,36,7.24,48.23,11.43,50.45s14.51,5.08,21.39-2" style="fill:none;stroke:#000;stroke-miterlimit:10;stroke-width:1.5px"/><path d="M198,199.33s5.24-6.84,3.21-13.11-5.12-8.29-11.38-8.2-54.27-9.62-54.27-9.62-76.76-17.47-122.29-5.82c-14.67,2.57-25.4,5.13-30.61,6.47a18.93,18.93,0,0,0-9.79,5.89c-4.36,5.09-7.25,14.08,6.25,26.89" style="fill:none;stroke:#000;stroke-miterlimit:10;stroke-width:1.5px"/><path d="M27.2,152.16,4.42,154.37s-26.87,2.38-37.72,9.27-16.28,21.25-3.64,33.79" style="fill:none;stroke:#000;stroke-miterlimit:10;stroke-width:1.5px"/><path d="M5.41,130.83c23.22-4.08,39.64,4.48,39.64,4.48l-1.63,9.89" style="fill:none;stroke:#000;stroke-miterlimit:10;stroke-width:1.5px"/><path d="M195.6,166.26s-19-3.24-27.28-3.95-22.24-3.88-28.24-4.59-75.35-6.37-88.76-5.56" style="fill:none;stroke:#000;stroke-miterlimit:10;stroke-width:1.5px"/><path d="M45.05,135.31s2.21-3.53,14.39-2.82,73.94,6.71,73.94,6.71,5.64-1.24,11.47,4.58c1.94-1.23,7.23-1.41,7.23-1.41l19.41,2.83s14.08,1.89,14.28,2.35" style="fill:none;stroke:#000;stroke-miterlimit:10;stroke-width:1.5px"/><line x1="145.49" y1="158.57" x2="144.85" y2="143.78" style="fill:none;stroke:#000;stroke-miterlimit:10;stroke-width:1.5px"/><path d="M176,102.23s-2.87-20.65,12.48-56.65S210.23-2.86,210.23-2.86s8.74-17.47,18.26-23c3.71-3.44,9.53-7.68,9.27-4.5s-6.62,20.64-6.62,20.64L215.26,21.49,206.8,37.11s-23.24,38.62-21,77c2,13.76,7.47,39.47,13,55.87" style="fill:none;stroke:#000;stroke-miterlimit:10;stroke-width:1.5px"/><path d="M215.66,64.44s-14.69-8-27.67-12a2.55,2.55,0,0,1-1.6-3.58c1.1-2.09,1.61-5.2-1-8.72a2.43,2.43,0,0,0-.26-.3c-2.39-2.49-7.77-5.37-9.26-6.08s-16.41-4.44-16.41-4.44-40.24-10.91-90.14,6.69C52.47,42.4,15,58.23,6.06,86.18L6,86.51a28.07,28.07,0,0,0-.56,4.33s-.19,4.83,2.32,6.42a11,11,0,0,0,5,2.08,2.54,2.54,0,0,1,2.42,3,52,52,0,0,0,2.24,29.49c1.66,5.18,8.39,32.18,53.18,57.82a2.53,2.53,0,0,0,1.59.33c6-.73,25.78-5.22,30-6.18a2.56,2.56,0,0,0,1.32-.76l.38-.42a2.58,2.58,0,0,0,.43-2.87h0a2.58,2.58,0,0,0-1.77-1.4,131.06,131.06,0,0,1-40.18-16.73l-.15-.1c-6.72-4.84-55.59-38.9-22.64-75.93a62.86,62.86,0,0,1,18-13.8c2-1,4.25-2.16,6.65-3.22,8.34-3.71,33-16.28,76-13.24,11.75,1.06,23,1.59,51.43,14.87l.35.2a16.13,16.13,0,0,1,3,2.49,2.47,2.47,0,0,1,.58,1c.27,1,.84,2.94,1.37,4.36.72,1.89,4.67,9.28,8.53,12.33l.29.2c2.89,1.84,8.47,4,12.82,1.63,3.82-2,2.14-6.51,1.6-7.71a2.28,2.28,0,0,1-.19-.69c-.21-1.55-.95-7.35-.61-10.2C219.83,70.59,218.55,66,215.66,64.44Z" style="fill:#fff;stroke:#000;stroke-miterlimit:10;stroke-width:1.5px"/><path d="M186.93,51.86s-40.41-11.22-67.41-8.14C107.26,45,85.22,46.22,54.85,60A79.63,79.63,0,0,0,32.53,74.86c-6,5.7-12,13.44-17.44,26.14" style="fill:none;stroke:#000;stroke-miterlimit:10;stroke-width:1.5px"/><path d="M186.93,43.17s-2.24.29-5.82-1.7-16.67-7.54-26.6-8.73-34-5.56-61.41,1.72C73.63,39.63,52.33,46.92,42.94,53.07c-6.49,4.24-18.26,14.9-26.15,24a41.16,41.16,0,0,0-6,9.08c-2,4.18-3.59,7.17-4.92,8.45" style="fill:none;stroke:#000;stroke-miterlimit:10;stroke-width:0.75px"/><path d="M219.36,76.72s-1.19,2.43-3.22,2.61-6.22-1.5-6.22-1.5S197.35,73.91,192.85,71" style="fill:none;stroke:#000;stroke-miterlimit:10;stroke-width:0.75px"/><circle cx="212.13" cy="84.84" r="4.72" style="fill:none;stroke:#000;stroke-miterlimit:10;stroke-width:0.75px"/><circle cx="75.46" cy="181.57" r="4.72" style="fill:none;stroke:#000;stroke-miterlimit:10;stroke-width:0.75px"/><polyline points="103.89 178.96 102.16 180.91 103.03 183.05" style="fill:none;stroke:#000;stroke-miterlimit:10;stroke-width:0.75px"/><path d="M101.7,181s-13.06-.78-28.5-9.07c-9.71-4.94-29.91-17.82-39.79-32.82-6.18-10.94-9.36-18.8-9-30.36.88-6.61-1.42-22.14,30.44-39.53,17.73-7.94,23-11.47,56.29-16.41,9-.61,41.12-5.73,79.24,15.18l5.22,4.5" style="fill:none;stroke:#000;stroke-miterlimit:10;stroke-width:0.75px"/></g></g></svg>