<svg xmlns="http://www.w3.org/2000/svg" viewBox="0 0 664.4 365.25"><title>Ativo 2</title><g id="Camada_2" data-name="Camada 2"><g id="Camada_2-2" data-name="Camada 2"><path d="M443.1,170.61s35,13,37,14a18.5,18.5,0,0,1,9,9c3,32,30,41,30,41s67,20,80,21c34-1,46,31,46,31l11,3c17,6-1,16-1,16s-14,4-22,5c-17-1-84-3-136,9s-65,38-65,38-4,0-22,5a44.86,44.86,0,0,1-32-3s-4-1-13-7,0-23,0-23,6-14,9-20-3-9-3-9-51-26-121-58-129-30-145-30-17-1-17-1l-7-3,3-12s12-2,18-2c12-9,19-10,27-11l104.38-19.25" style="fill:none;stroke:#000;stroke-miterlimit:10;stroke-width:2px"/><path d="M125.1,185.73a273.87,273.87,0,0,1,74.68.33c8.72,1.27,18.77,4.36,27.38,1a14.54,14.54,0,0,0,7.05-5.8c1.42-2.17,2.25-4.89,4.21-6.69,2.43-2.24,7.41-3.52,10.6-3.06,6,.88,11.69,4.05,17.25,6.44l19,8.14,36.16,15.5c10.29,4.41,24.36,8.16,30.69,18.17,5.56,8.8,4.86,20,9.16,29.31,5,10.89,15.58,17.79,21.27,28.23,7.85,14.41-1.37,26.3-11.4,36.36a1.12,1.12,0,0,0,1.59,1.59c6.81-6.83,14.39-14.75,15.21-24.89.88-10.86-6.68-19.72-13.48-27.24-3.87-4.28-7.89-8.57-10.55-13.75-3-5.84-3.83-12.39-5.32-18.71-2.4-10.15-7.11-17.39-16.45-22.34-11.74-6.22-24.56-10.81-36.76-16l-39.78-17.05c-8.7-3.74-18.42-9.4-27.49-3.27-3.62,2.45-4.4,7-7.29,10.09-4.54,4.81-12.08,4.51-18.11,3.79-14-1.67-27.69-4.08-41.87-4.56a279.63,279.63,0,0,0-45.73,2.21c-1.42.19-1.44,2.44,0,2.25Z"/><path d="M321.1,228.61s1-10,9-8c3,1,5,2,5,9s-2,30-2,30-2,7-6,6-7-6-7-12S321.1,228.61,321.1,228.61Z" style="fill:none;stroke:#000;stroke-miterlimit:10;stroke-width:2px"/><path d="M335.1,227.61l-262,50s-10,3-10-6v-13l7-5s1,0,2-3,14-70,14-70a41.72,41.72,0,0,0-5-10c-3-4-11-13-16-14-2,2-6,9-15,8-8-1-20,5-22,11-3,4-15,9-18,8s-10,9-9,14,43,68,43,68,5,0,6-1c0,4,1,12,1,12s2,19,27,14,256-49,256-49Z" style="fill:#fff;stroke:#000;stroke-miterlimit:10;stroke-width:2px"/><ellipse cx="280.1" cy="217.11" rx="9" ry="14.5" style="fill:none;stroke:#000;stroke-miterlimit:10;stroke-width:2px"/><path d="M470.6,252.11l11.5-36.5s8.83-22.42-7.59-33.21c-15.83-5.58-34.41-11.79-34.41-11.79" style="fill:none;stroke:#000;stroke-miterlimit:10;stroke-width:2px"/><path d="M305.1,170.61l62.08,29.61a9.84,9.84,0,0,0,6.09.78l85.83-16.39-24-19-14-6a14.93,14.93,0,0,0-6-6v-23s-4-8-27-10-36,1-37,7v18l-1,8-18.5.5-6-66,6.5-2.5-7-71s-20-17-56-13c-24,4-40,10-52,21,0,4,5,71,5,71l2,2,3.5.5,6.5,72.5,1.57,7.71s5-10.85,19-4.53,17.24,7.34,17.24,7.34l15.71-8Z" style="fill:none;stroke:#000;stroke-miterlimit:10;stroke-width:2px"/><path d="M287.6,171.11l66,29s18,6,17,20-11,23-11,23l121-22.77" style="fill:none;stroke:#000;stroke-linecap:round;stroke-linejoin:bevel;stroke-width:2px"/><path d="M349.6,153.11s3,9.31,30,10.86,36.15-10.2,36.15-10.2" style="fill:none;stroke:#000;stroke-miterlimit:10;stroke-width:1.761398196220398px"/><path d="M341.6,154.11s6.59,14.86,37.55,16.64,41.45-11.68,41.45-11.68" style="fill:none;stroke:#000;stroke-miterlimit:10;stroke-width:2.0193025435550283px"/><line x1="50.6" y1="265.11" x2="63.6" y2="259.11" style="fill:#fff;stroke:#000;stroke-miterlimit:10;stroke-width:2px"/><path d="M227.6,96.11s40,6,101-8" style="fill:none;stroke:#000;stroke-miterlimit:10;stroke-width:2px"/><path d="M226.6,105.11s41.82,6,101.16-8" style="fill:none;stroke:#000;stroke-linecap:round;stroke-miterlimit:10;stroke-width:2.9588081495364236px"/><path d="M227.57,112.11s41.83,6,101.16-8" style="fill:none;stroke:#000;stroke-linecap:round;stroke-miterlimit:10;stroke-width:2.9588081495364236px"/><path d="M228.54,120.11s41.83,6,101.17-8" style="fill:none;stroke:#000;stroke-linecap:round;stroke-miterlimit:10;stroke-width:2.9588081495364236px"/><path d="M228.54,129.11s41.83,6,101.17-8" style="fill:none;stroke:#000;stroke-linecap:round;stroke-miterlimit:10;stroke-width:2.9588081495364236px"/><path d="M230.49,136.11s41.83,6,101.16-8" style="fill:none;stroke:#000;stroke-linecap:round;stroke-miterlimit:10;stroke-width:2.9588081495364236px"/><path d="M231.46,144.11s41.83,6,101.16-8" style="fill:none;stroke:#000;stroke-linecap:round;stroke-miterlimit:10;stroke-width:2.9588081495364236px"/><path d="M231.46,152.11s41.83,6,101.16-8" style="fill:none;stroke:#000;stroke-linecap:round;stroke-miterlimit:10;stroke-width:2.9588081495364236px"/><path d="M232.43,160.11s41.83,6,101.17-8" style="fill:none;stroke:#000;stroke-linecap:round;stroke-miterlimit:10;stroke-width:2.9588081495364236px"/><path d="M217.6,22.11s8,4,52,0,55-8,55-8" style="fill:none;stroke:#000;stroke-miterlimit:10;stroke-width:2px"/><path d="M237.1,84.61l-5.5-59.5a6.19,6.19,0,0,1,2-4,50,50,0,0,1,7-5" style="fill:none;stroke:#000;stroke-linecap:round;stroke-miterlimit:10;stroke-width:3px"/><path d="M255.1,14.61l-7,6s-2,1-1,7,7,56,7,56" style="fill:none;stroke:#000;stroke-linecap:round;stroke-miterlimit:10;stroke-width:4px"/><path d="M225.6,84.11l-5.5-58.5a10.76,10.76,0,0,1,4-5c3-2,7-5,7-5" style="fill:none;stroke:#000;stroke-linecap:round;stroke-miterlimit:10;stroke-width:2px"/><polyline points="271.1 14.61 273.46 21.75 278.1 81.61" style="fill:none;stroke:#000;stroke-linecap:round;stroke-miterlimit:10;stroke-width:4px"/><polyline points="285.1 11.61 293.08 19.64 299.1 79.61" style="fill:none;stroke:#000;stroke-linecap:round;stroke-miterlimit:10;stroke-width:4px"/><polyline points="298.1 9.61 310.52 17.15 317.1 77.61" style="fill:none;stroke:#000;stroke-linecap:round;stroke-miterlimit:10;stroke-width:3px"/><polyline points="307.1 7.61 318.94 15.55 326.6 75.11" style="fill:none;stroke:#000;stroke-linecap:round;stroke-miterlimit:10;stroke-width:2px"/><path d="M102.6,194.11s-9.5,9.48-13.75,17.74" style="fill:none;stroke:#000;stroke-miterlimit:10;stroke-width:2px"/><path d="M387.6,285.11l3,36s-3.78,16-28.89,27" style="fill:none;stroke:#000;stroke-miterlimit:10;stroke-width:2px"/><path d="M645.1,286.61s-43,5-80-5-155.39-47.93-155.39-47.93" style="fill:none;stroke:#000;stroke-miterlimit:10;stroke-width:2px"/><ellipse cx="413.6" cy="270.11" rx="33" ry="12" style="fill:none;stroke:#000;stroke-miterlimit:10"/><ellipse cx="430.1" cy="315.61" rx="17" ry="6.18" style="fill:none;stroke:#000;stroke-miterlimit:10"/><ellipse cx="535.1" cy="291.61" rx="17" ry="6.18" style="fill:none;stroke:#000;stroke-miterlimit:10"/><ellipse cx="392.1" cy="350.61" rx="13.75" ry="5" style="fill:none;stroke:#000;stroke-miterlimit:10"/><path d="M437.22,167.29l-56,10.4a23.85,23.85,0,0,1-14.62-1.92l-38-18.66-23,14" style="fill:none;stroke:#000;stroke-miterlimit:10;stroke-width:2px"/><line x1="371.34" y1="201.22" x2="373.98" y2="178.45" style="fill:none;stroke:#000;stroke-miterlimit:10;stroke-width:2px"/><line x1="328.6" y1="157.11" x2="332.6" y2="154.11" style="fill:none;stroke:#000;stroke-miterlimit:10;stroke-width:2px"/><path d="M82.81,173.27a30.91,30.91,0,0,0-26.21.84c-14,7-37,22-37,22s-10.16,9.16-7.08,21.08" style="fill:none;stroke:#000;stroke-miterlimit:10;stroke-width:2px"/><ellipse cx="383.1" cy="130.11" rx="12" ry="31.5" transform="translate(240.44 508.71) rotate(-88.11)" style="fill:#fff;stroke:#000;stroke-miterlimit:10;stroke-width:2px"/></g></g></svg>