<svg xmlns="http://www.w3.org/2000/svg" viewBox="0 0 870.97 1014.25"><title>Vetor hyperspace</title><g id="Camada_2" data-name="Camada 2"><g id="cutline"><path d="M43.7,964.22l4,25.29s2.1,3.85,5.6,3.85h42s4.37.18,5.42-3.67,6-23.74,6-23.74" style="fill:#fff;stroke:#070308;stroke-miterlimit:10;stroke-width:2.23115221174296px"/><path d="M430.78,974.88l7.86,30s1.58,5.08,5.25,5.08,68.6,3.15,68.6,3.15a8.14,8.14,0,0,0,6.3-5.43c1.75-4.9,8.4-30.71,8.4-30.71" style="fill:#fff;stroke:#000;stroke-miterlimit:10;stroke-width:2.23115221174296px"/><path d="M738.4,974.57,747,998.79a5.28,5.28,0,0,0,4.9,3.15H815.4a4.91,4.91,0,0,0,4.38-5.25c0-4.9,4.72-23.14,4.72-23.14" style="fill:#fff;stroke:#070308;stroke-miterlimit:10;stroke-width:2.23115221174296px"/><path d="M317.69,971.76l5.5,14.91a6.16,6.16,0,0,0,5,3.48c3.61.26,39.94,0,39.94,0s3.85-1.43,4.9-4.23l4.14-12.52" style="fill:#fff;stroke:#070308;stroke-miterlimit:10;stroke-width:2.23115221174296px"/><path d="M48.6,247.35,3,959.25a3.7,3.7,0,0,0,3.6,3.94L492.89,977a3,3,0,0,0,3-3.15l2.46-968.4a2.51,2.51,0,0,0-3.69-2.18L53.56,239.64A9.43,9.43,0,0,0,48.6,247.35Z" style="fill:none;stroke:#000;stroke-miterlimit:10;stroke-width:5.94973923131454px"/><path d="M48.6,247.35,3,959.25a3.7,3.7,0,0,0,3.6,3.94L377.4,974.88c-.61-4.93-138.5-834.55-140.15-833.66L53.56,239.64A9.43,9.43,0,0,0,48.6,247.35Z" style="stroke:#000;stroke-miterlimit:10;stroke-width:3.4778641003335px"/><path d="M842.37,194.61,501.16,4.45a1.92,1.92,0,0,0-2.8,1.73l.74,969.23a1.8,1.8,0,0,0,1.84,1.57l366-6.26c.76,0,1.1-1.07,1-1.84L847.25,201.17C847.09,197.05,843.46,195.18,842.37,194.61Z" style="fill:none;stroke:#000;stroke-miterlimit:10;stroke-width:5.94973923131454px"/><path d="M773.84,156.42l3.23,815.89,86.73-1.53s4.54,1.56,4.19-1.9-21.75-767.64-21.75-767.64,1.14-3.91-4.42-6.08Z" style="stroke:#000;stroke-miterlimit:10;stroke-width:3.4778641003335px"/><ellipse cx="440.92" cy="39.87" rx="10.5" ry="12.34" style="fill:#fdfefd;stroke:#070308;stroke-miterlimit:10;stroke-width:2.58963938789121px"/><ellipse cx="439.01" cy="38.95" rx="8.6" ry="11.42" style="fill:#fdfefd;stroke:#070308;stroke-miterlimit:10;stroke-width:2.58963938789121px"/><ellipse cx="62.93" cy="241.59" rx="10.5" ry="12.34" style="fill:#fdfefd;stroke:#070308;stroke-miterlimit:10;stroke-width:2.58963938789121px"/><ellipse cx="61.03" cy="240.68" rx="8.6" ry="11.42" style="fill:#fdfefd;stroke:#070308;stroke-miterlimit:10;stroke-width:2.58963938789121px"/><ellipse cx="544.34" cy="32.78" rx="10.5" ry="12.34" style="fill:#fdfefd;stroke:#070308;stroke-miterlimit:10;stroke-width:2.58963938789121px"/><ellipse cx="546.24" cy="31.87" rx="8.6" ry="11.42" style="fill:#fdfefd;stroke:#070308;stroke-miterlimit:10;stroke-width:2.58963938789121px"/><ellipse cx="832.38" cy="194.89" rx="10.5" ry="12.34" style="fill:#fdfefd;stroke:#070308;stroke-miterlimit:10;stroke-width:2.58963938789121px"/><ellipse cx="834.28" cy="192.92" rx="8.6" ry="11.42" style="fill:#fdfefd;stroke:#070308;stroke-miterlimit:10;stroke-width:2.58963938789121px"/><ellipse cx="445.78" cy="945.19" rx="12.68" ry="14.57" style="fill:#fdfefd;stroke:#000;stroke-miterlimit:10;stroke-width:2.58963938789121px"/><ellipse cx="442.17" cy="943.97" rx="11.39" ry="14.57" style="fill:#fdfefd;stroke:#000;stroke-miterlimit:10;stroke-width:2.45418398277208px"/><ellipse cx="549.05" cy="944.58" rx="12.68" ry="14.57" style="fill:#fdfefd;stroke:#000;stroke-miterlimit:10;stroke-width:2.58963938789121px"/><ellipse cx="552.66" cy="943.36" rx="11.39" ry="14.57" style="fill:#fdfefd;stroke:#000;stroke-miterlimit:10;stroke-width:2.45418398277208px"/><ellipse cx="843.1" cy="944.58" rx="12.68" ry="14.57" style="fill:#fdfefd;stroke:#070308;stroke-miterlimit:10;stroke-width:2.58963938789121px"/><ellipse cx="846.71" cy="943.36" rx="11.39" ry="14.57" style="fill:#fdfefd;stroke:#070308;stroke-miterlimit:10;stroke-width:2.45418398277208px"/><ellipse cx="21.42" cy="945.19" rx="11.65" ry="14.57" style="fill:#fdfefd;stroke:#070308;stroke-miterlimit:10;stroke-width:2.48211771614472px"/><ellipse cx="16.92" cy="943.97" rx="11.65" ry="14.57" style="fill:#fdfefd;stroke:#070308;stroke-miterlimit:10;stroke-width:2.48211771614472px"/></g></g></svg>