<?xml version="1.0" encoding="utf-8"?>
<!-- Generator: Adobe Illustrator 23.0.1, SVG Export Plug-In . SVG Version: 6.00 Build 0)  -->
<svg version="1.1" id="Camada_1" xmlns="http://www.w3.org/2000/svg" xmlns:xlink="http://www.w3.org/1999/xlink" x="0px" y="0px"
	 viewBox="0 0 600 600" style="enable-background:new 0 0 600 600;" xml:space="preserve">
<style type="text/css">
	.st0{fill:#FFFFFF;stroke:#030304;stroke-width:0.8328;stroke-miterlimit:10;}
	.st1{fill:none;stroke:#030304;stroke-width:0.8328;stroke-miterlimit:10;}
	.st2{fill:none;stroke:#030304;stroke-width:0.4164;stroke-miterlimit:10;}
	.st3{fill:none;stroke:#020203;stroke-miterlimit:10;}
	.st4{fill:#FFFFFF;stroke:#020203;stroke-miterlimit:10;}
	.st5{fill:none;stroke:#020203;stroke-width:0.75;stroke-miterlimit:10;}
	.st6{fill:none;stroke:#020203;stroke-width:0.5;stroke-miterlimit:10;}
	.st7{fill:none;stroke:#020203;stroke-width:0.25;stroke-miterlimit:10;}
	.st8{fill:#FFFFFF;stroke:#020203;stroke-width:0.75;stroke-miterlimit:10;}
	.st9{fill:#FFFFFF;}
	.st10{fill:none;stroke:#E52522;stroke-width:1.5;stroke-miterlimit:10;}
	.st11{fill:#E52522;}
	.st12{fill:#FFFFFF;stroke:#020203;stroke-width:0.5;stroke-miterlimit:10;}
	.st13{fill:#E7E6E6;}
	.st14{fill:#FFFFFF;stroke:#020203;stroke-linejoin:round;}
	.st15{fill:none;stroke:#020203;stroke-linejoin:round;}
	.st16{fill:none;stroke:#E52624;stroke-width:1.5;stroke-miterlimit:10;}
	.st17{fill:#E52624;}
	.st18{clip-path:url(#SVGID_2_);}
	.st19{fill:none;stroke:#020203;stroke-width:0.5461;stroke-miterlimit:10;}
	.st20{fill:none;stroke:#E52624;stroke-width:1.5296;stroke-miterlimit:10;}
	.st21{fill:none;stroke:#E52624;stroke-width:1.8398;stroke-miterlimit:10;}
	.st22{fill:none;stroke:#E52624;stroke-width:1.4398;stroke-miterlimit:10;}
	.st23{fill:none;stroke:#E52624;stroke-width:1.5364;stroke-miterlimit:10;}
	.st24{fill:none;stroke:#E52624;stroke-width:1.4292;stroke-miterlimit:10;}
	.st25{fill:none;stroke:#E52624;stroke-width:1.5549;stroke-miterlimit:10;}
	.st26{fill:#E52622;}
	.st27{font-family:'Roboto-Medium';}
	.st28{font-size:12.4174px;}
	.st29{clip-path:url(#SVGID_4_);}
</style>
<g>
	<g id="mecanismo_4_">
		<polygon class="st8" points="278.6,447.4 278.6,444.7 289.6,444.1 289.6,448.2 289.6,452.3 279.1,451 		"/>
		<path class="st4" d="M365.4,396.7l-2.4,4.1c0,0,0.4,7.9-1,9.8c-1.3,0.9-17.1,9.8-17.1,9.8l-0.5,2.4l0.6,1.6c0.2,0.7,0,1.5-0.6,1.9
			c-1,0.7-8.1,4.4-8.1,4.4s4.9,5.3,5.5,7.3c0,0.6-0.2,1.3-0.5,1.9l-0.4,0.6c-0.6,0.2-1.1,0.2-1.7,0c-0.8-0.3-3-1.1-3-1.1l0.7,16.2
			c0,0,0.2,0.4-1.1,1.5l-2.4,1.8c0,0-4.4,2.7-14,1.5c-1.6-0.6-3.1-1.4-4.6-2.2l-2.5-19l-1.6,0.2c-0.6,0.3-1.4,0-1.6-0.7
			c0,0,0,0,0-0.1c-0.6-1.2-0.8-1.7-0.8-1.7l-1.6,0.5c0,0-1.2,0.5-3.5-0.2c-0.3-0.5-0.6-1.1-0.9-1.6l-5.5,2.3l-1.4,4
			c-0.4,0.8-1.1,1.5-1.9,1.9c-1.2,0.4-3.9,1-3.9,1s-9.7,0.9-13.7,0c-1.2-0.3-2.4-0.5-3.1-1.9c-0.6-1.4-3.6-10.2-3.9-11.7
			c-0.3-1.5-0.9-2.8,0.7-3.8c1.5-1.1,13.9-12.1,38.4-22.2c5.1-5.1,1.6-6.9,1.6-6.9l-10.5-0.7c0,0-1.8-0.1-2.4,1.2
			c-0.5,1.3-1.9,2.9-3.7,2.9c-1.8,0-4.1-0.2-4.7-2.2c-0.7-2-0.9-2.9-2-3.3"/>
		<path class="st6" d="M363,400.8l-5,8.4c0,0-2.6,3.8-7.1,3.9c-4.5,0.1-9.1-0.8-12.3-3.2c-3.1-2.4-5.2-7-5.2-7l-1.9-6.4"/>
		<path class="st6" d="M268.7,429.7c0,0,1.6,1.1,14.6-4.1s28.7-11.3,28.7-11.3s7.5-3,8.6-10.9c1.1-7.9,0.8-7,0.8-7"/>
		<path class="st6" d="M274,444.1c5.1,0.1,9.8-2.5,12.4-6.8c3.1-1.4,62.9-26.1,73.2-25.3"/>
		<line class="st6" x1="302.4" y1="435.5" x2="345" y2="420.4"/>
		<line class="st6" x1="308.4" y1="436.9" x2="344.7" y2="423.4"/>
		<line class="st6" x1="312.4" y1="439.1" x2="336.6" y2="431"/>
		<path class="st12" d="M336.4,430.7c0,0-6.6-5.6-7.6-6.7c0.5-0.9,3.4-6.9,3.4-6.9c0.4-2.1-0.1-4.3-1.4-6.1
			c-2.3-2.6-7.5-2.3-9.3-0.3c0,0-2.7,4.8-4.4,18.2c0.1,1.5,1.2,4.9,5,4.8c3.1,1.2,14.4,5.6,14.4,5.6"/>
		<path class="st6" d="M317.1,428.4c0,0,1.7-5.7,6.4-3.7c1.3,0.6,2.2,1.8,2.4,3.2c0,1.1,0.4,4.6-3.9,5.9"/>
		<path class="st6" d="M325.3,426.3c0,0,1.8-2.3,3.5-2.4"/>
		<path class="st6" d="M325.5,426.6c0,0,1.3,0.6,7.5,4.6c0.8,0.5,3.1,2.4,3.8,3.1c3,2.5,4,3.6,4.9,3.5"/>
		<path class="st6" d="M315,458.1c0,0,12.3,3.3,22-2.2"/>
		<polyline class="st7" points="316.4,458.4 313.8,439 313.1,438.9 315.6,458.3 		"/>
		<polyline class="st7" points="317,458.4 314.4,439.1 315.1,439.1 317.8,458.7 		"/>
		<polyline class="st7" points="319,458.8 316.7,439.1 317.6,439.1 320.1,458.9 		"/>
		<polyline class="st7" points="321.3,459 319.3,439.1 320.6,439.1 322.8,459.1 		"/>
		<polyline class="st7" points="324.2,459.1 322.1,438.9 323.5,438.9 325.7,459 		"/>
		<polyline class="st7" points="327,458.9 325.2,438.9 326.6,438.8 328.6,458.7 		"/>
		<polyline class="st7" points="329.9,458.5 328.2,438.5 329.5,438.3 331.4,458.2 		"/>
		<polyline class="st7" points="332.5,457.8 330.9,438.3 332,438.1 333.4,457.5 		"/>
		<polyline class="st7" points="334.4,457.2 332.9,438 334,438.3 335.4,456.7 		"/>
		<polyline class="st7" points="336.2,456.3 335.1,438.8 335.7,439.1 337,455.9 		"/>
		<circle class="st6" cx="348.7" cy="405.1" r="5.3"/>
		<circle class="st7" cx="348.7" cy="405.1" r="4.7"/>
		<circle class="st6" cx="292.4" cy="397.2" r="2"/>
	</g>
	<g id="Camada_9_3_">
		<path class="st4" d="M155.5,21.1l1.7-6.4c0,0,0.2-2.4,5.1-3.6S173,8.3,173,8.3s2.6-0.7,6.6,2.1c2.2,1.5,4.1,3.2,5.9,5.2
			c0,0,4.8,6.3,7,12.8c2.3,6.5,7.7,27.9,7.7,27.9l3.5,16c0,0,1.9,12.6,1.6,15.8c1.2,3,13.9,24.3,13.9,24.3s10.8,18.2,8.1,35.3
			c-1.4,14.4-2.3,23.7-2.3,23.7s-2.8,13,5.9,29.2c8.8,16.2,9.9,17.8,9.9,17.8l17.3,22.4c0,0,21,29.2,22.9,38.8
			c1.9,9.5,4.4,19.6-3.6,33.9c-0.5,2.4-5.4,18.2-14.4,25.9c7.5,0,20.7-1,20.7-1s21,0.5,43.3-22.8c6.7-5.7,9-6.6,9-6.6
			s13.1-7.7,25.6-7.2c12.5,0.5,17.8,2.6,17.8,2.6l20.6,8.5c0,0,15.6,7.5,20,24c2.7,3.3,7.3,5.8,11.1,14.9c1.8,2.6,5.2,8,4.9,14.8
			c-0.3,6.8-1.7,18.6-1.7,18.6s-1,6.7-4,8.8c-1.9,2.1-3.6,5.3-12,5.5c-3.6,0.2-7.1,0.2-10.7,0c0,0-2.3-1.3-3-2.4
			c-1.3-0.1-126.4-0.9-126.4-0.9l-31.1,0.2c0,0-17.7,1.8-26.9,1l-4.7,0.9c0,0-11.2,3.9-17.3,0.4c-4.3-2.9-6.9-7.7-7.2-12.8
			c-0.3-7.5-0.3-16.2,7.2-20.1c-0.4-3.1,4.6-10.2,4.6-10.2l-22.4-63.7l-23.4-69.6c0,0-11.6-35-8.2-52.6s6.1-25.2,6.1-25.2
			s0.4-3,0.6-5.3c0.1-2.3,1-35,1-35l-0.5-1.6l-1.6-63.9C154.5,38.5,153.8,27.5,155.5,21.1z"/>
		<path class="st5" d="M176.6,8.8c-1-0.1-1.9,0.7-1.9,1.7c0,0.1,0,0.3,0,0.4c0.2,2,0.5,4,1,5.9l8.6,44.2l1.7,8.9
			c0,0,2.4,7,13.7,23.9c4.3,7.1,6.9,15.1,7.7,23.4c0.2,2.1,0.2,4.3,0,6.4l-1.6,19.1c0,0-2.7,20.3,7,44.4c2.5,5.5,7.9,15,7.9,15
			s15.2,26.7,34.1,48.1c2.4,3.1,13.9,16.9,18.6,29.5c2.5,5.6,6.8,14.4,3.8,33.9"/>
		<path class="st5" d="M161.2,11.4c-0.9,1.2-1,5.3-1,5.3l2.6,27c0,0,2.6,14.3,4.3,22.4c1.7,8,8.2,16.6,8.2,16.6s9.1,12.5,11.9,15.5
			c9.7,12,9.4,25.1,9.3,29.1c-1.2,8.4-1.9,16.8-2.2,25.3c0,0,0.3,10.4,1.2,19.4c3.2,20.6,19.7,41.6,19.7,41.6s20.7,26.1,31.4,39
			c20.6,25,22.8,33.9,26.2,42.1c5.3,24.9-10,44.7-10,44.7s-11,11.3-18.7,16.2"/>
		<path class="st5" d="M278.4,300.5c0,0,6.2-11.9,0.6-23.1c-2.2-4.2-6.2-11.5-6.2-11.5s-12.9-21.3-32-47.5"/>
		<path class="st5" d="M212.5,186.2l2.5-16.9c0,0,3.3-16.5-8.5-20.2"/>
		<path class="st5" d="M205.6,149.7c0,0,1.2,0.1,2.4-6.6c-0.3-4.2-0.7-16.1-0.7-16.1"/>
		<path class="st6" d="M174.9,9.7c0,0,3.7-0.6,5.7,4l5.2,14.3c0,0,7.5,25.1,9.2,43.1c0.1,3.5,0.6,11.1-0.2,15.2"/>
		<path class="st6" d="M197,89.7c-0.1-1.6-3.8-9-5-13c-0.2-4-2.7-7.5-6.4-9c0,0-8.9-2.3-16.8,3.2c-1.1,0.9-4,3.8-4.2,6.6
			c0.2,3.4,3.9,11.2,3.9,11.2"/>
		<path class="st6" d="M156.6,104c0,0,0.3-1.7,11.5-2.8"/>
		<path class="st5" d="M168.1,129.9c0,0,3-2.4,3.5-8.8c0.3-6.4-0.8-19.9-0.8-19.9s-1.1-7.2-2.2-12.1c-0.4,1.9-0.8,3.4-0.5,12.1
			s-0.4,20.6-0.4,20.6C167.7,124.5,167.8,127.2,168.1,129.9z"/>
		<path class="st6" d="M168.1,129.9l-6.5,14.5c0,0-9,18.1-9.1,28.9c-0.1,10.8-0.1,19.6,4,32.5c4.1,12.9,56.3,151.2,56.3,151.2"/>
		<path class="st5" d="M246.5,358.5l39.1-3.7c0,0,20-3.8,38.7-23c7.5-5.3,17.9-13.3,39.3-15.3c7.9,0.3,23.7-0.4,56.5,20.3"/>
		<path class="st5" d="M258.8,343.5l25.5-2c0,0,17.6-1,30.8-12.3c13.2-11.3,22.4-18.1,22.4-18.1s12.6-10.9,34.4-5.9
			c9.6,2.7,24.6,9.1,24.6,9.1s14.9,6.2,20.4,20.6"/>
		<path class="st5" d="M418.3,399.5c0,0,7.2-1.8,12.4-16.1c1.2-4.5,1.8-9.1,1.8-13.8c0,0,0.3-19-13-26.8
			c-9.3-6.8-21.3-13.9-33.4-17.2c-6.1-1.6-21.5-8.8-48.9,6.3c-7,4.3-29.4,20.3-29.4,20.3s-14.5,10.5-42.2,14.6"/>
		<path class="st5" d="M431,351.8c0,0,4.3,7.5,4.1,25.6"/>
	</g>
	<g id="Camada_12_4_">
		<path class="st4" d="M284.7,278.3v-3.1c-0.1-1,0.3-1.9,1.2-2.4l4.7-2.8c0,0,1.2-1.3,4.9-1.4c3.7-0.1,49.4-3.5,78.9-0.7
			c1.6,0.6,6.7,3.6,6.7,3.6c0.7,0.4,1.1,1.1,1,1.9v2.6c0,0,0,1.1-2,1.2c-2,0.1-34.5,1-34.5,1l-58.5,0.9
			C287,279.1,285.4,279.2,284.7,278.3z"/>
		<path class="st6" d="M288.2,271.4c0,0,80-1.6,88.2-1.4"/>
		<path class="st6" d="M291.6,269.4c0,0,50.3-3.2,81.8-0.8c0.6,0.2,1.3,0.5,1.8,0.8c1.3,0.7,5.5,3.3,5.5,3.3s0.4,0.3,1.1-0.4"/>
		<ellipse class="st6" cx="369.9" cy="274.2" rx="2.9" ry="1.7"/>
		<ellipse class="st7" cx="369.9" cy="274.2" rx="2.3" ry="1.4"/>
	</g>
	<g id="Camada_10_4_">
		<path class="st4" d="M198,359.9l3.5,27.6c0,0,0.1,8.5,9.2,8.5c9.1,0,68.2,0,68.2,0c2.9-1.2,5.2-3.5,6.4-6.4c1.3-2.8,1.7-6,1.2-9
			c0,0-0.8-4.3-4.1-6.5c-3.3-2.2-8.7-3.1-8.7-3.1l-7.5-0.1c-6.6-0.7-12.6-3.9-16.9-9c-3.9-4.4-7.4-9.1-10.5-14c0,0-3.7-7.5-11.7-9.3
			l-1.2-2.2l1.4-0.9L204.5,262c-0.5-0.9-1.4-1.6-2.5-1.8c-1.8-0.6-3.5-1.2-5.2-2c0,0-7-3.6-12.3,4.6c-0.9,1.6-2,3-3.3,4.4
			c-0.3,0.6-0.3,1.4,0,2l21.6,73.8l0.8-0.2l-0.5,3.6C203.1,346.4,197.5,352.8,198,359.9z"/>
		<path class="st6" d="M203.1,346.3l1.3,5.2c0,0-3.9,2.2-3.2,9.3c0.6,7.2,3.2,26.9,3.2,26.9c0.6,2.9,3.2,5,6.2,5
			c5.3,0,66.2,0.8,66.2,0.8s4-1.4,4.2-5.3c0.2-2.2-0.3-4.5-1.4-6.4c0,0-1.4-1.8-2.6-1.9c-1.3-0.1-13.7,0.3-27.8-9.9
			c-2.6-2.2-8.4-5.2-14.2-16.7c-1.3-2.4-1.6-3.4-4.4-5.9c-1.4-1.4-3.1-2.4-5-3.1l-0.8-2.8l-1.7-2.9c0,0-0.2-1.4,0.5-1.6
			c0.6-0.3,2.4-0.6,2.4-0.6"/>
		<path class="st6" d="M202.4,353.7l3.1,26.1c0,0,2.4,11.1,12.6,11.3s60.9,1,60.9,1"/>
		<path class="st6" d="M204.4,351.5l4.5,14.6c0,0,3.5,8.8,13.9,6.1s7-14.1,7-14.1l-4.2-13.7"/>
		<line class="st6" x1="203.2" y1="345.3" x2="223" y2="338.7"/>
		<path class="st6" d="M203.5,342.7l0.6-10.2c0,0-0.4-7.3-1.7-11.1s-20.5-55.1-20.5-55.1"/>
		<path class="st6" d="M200.9,259.9l12.3,54.7c0,0,2.4,13.3,10.9,22.3"/>
		<path class="st6" d="M203.6,345.2l0.5,2.8l5.4,17.7c0,0,3.2,8.2,12.6,6.1c9.3-2.2,7-13,7-13l-5.3-16.6l-1.9-2.9l-5.4-11.5
			l-15.6-66l-3.4-1.8c0,0-7.6-2.6-12,2.8c-0.8,1-3.5,3.9-3.5,3.9"/>
		<line class="st6" x1="216.4" y1="327.6" x2="204" y2="331.2"/>
		<path class="st6" d="M203.3,344.8c0,0,1.9-8.4,1.5-13.8c-0.2-3.1-0.7-6.2-1.5-9.2l-10-24.9"/>
		<circle class="st6" cx="218.7" cy="360.9" r="6.7"/>
		<circle class="st7" cx="218.7" cy="360.8" r="6"/>
		<polyline class="st7" points="204.6,277.2 213.7,328.4 214.5,341.5 216.4,352.1 213.7,341.8 212.2,328.7 195.7,259.4 		"/>
		<polyline class="st7" points="185.8,262.3 209.2,329.4 212.2,342.3 215.7,352.3 211.4,342.6 208,330.1 188.1,283.1 		"/>
		<path class="st7" d="M230.3,347.2c0,0,2,11.6,14.4,22.4c6.8,5,11.8,9,22.6,11.8c4.2,0.7,8.4,1.1,12.6,1.1"/>
		<path class="st7" d="M222.4,378.2l9.5-9.2c1-0.7,2.1-1.3,3.3-1.6c0.3,0,0.5,0.2,0.6,0.4c0,0,0,0,0,0.1c-0.2,1.2-0.8,2.3-1.7,3.1
			c-1.4,1.3-9.4,9-9.4,9c-0.7,0.4-1.5,0.8-2.3,1.2c-0.6,0.2-0.6-0.5-0.6-0.5C221.8,379.8,222.1,378.9,222.4,378.2z"/>
		<path class="st7" d="M228.6,381.6l7.6-8.4c0.8-0.7,1.7-1.2,2.7-1.6c0.2,0,0.5,0.1,0.5,0.3c0,0,0,0,0,0c-0.1,1-0.6,2-1.3,2.7
			c-1.2,1.2-7.6,8.2-7.6,8.2c-0.6,0.4-1.2,0.8-1.9,1.1c-0.5,0.2-0.5-0.4-0.5-0.4C228.2,383,228.3,382.3,228.6,381.6z"/>
		<path class="st7" d="M234.9,385l6.5-8.5c0.7-0.7,1.5-1.3,2.4-1.7c0.2-0.1,0.5,0.1,0.5,0.3c0,0,0,0,0,0c0,1-0.4,1.9-1,2.7
			c-1,1.2-6.4,8.4-6.4,8.4c-0.5,0.4-1.1,0.8-1.7,1.2c-0.5,0.2-0.6-0.3-0.6-0.3C234.6,386.4,234.7,385.7,234.9,385z"/>
		<path class="st7" d="M242.5,386.8l4.9-8.1c0.6-0.7,1.2-1.3,2-1.7c0.2-0.1,0.4,0,0.5,0.2c0,0,0,0,0,0c0.1,0.9-0.1,1.7-0.6,2.4
			c-0.8,1.1-4.9,8-4.9,8c-0.4,0.4-0.9,0.8-1.4,1.2c-0.4,0.2-0.5-0.2-0.5-0.2C242.4,388,242.4,387.4,242.5,386.8z"/>
		<path class="st7" d="M249.8,387.4l3.7-7.1c0.4-0.6,1-1.1,1.6-1.6c0.2-0.1,0.3,0,0.4,0.1c0,0,0,0,0,0c0.1,0.7,0,1.5-0.4,2.1
			c-0.6,1-3.7,7-3.7,7c-0.3,0.4-0.7,0.8-1.1,1.1c-0.3,0.2-0.5-0.2-0.5-0.2C249.7,388.5,249.7,387.9,249.8,387.4z"/>
		<path class="st7" d="M257,388.5l2.1-6.3c0.3-0.6,0.6-1.1,1.1-1.5c0.1-0.1,0.3-0.1,0.4,0.1c0,0,0,0,0,0c0.2,0.6,0.2,1.2,0,1.8
			c-0.4,0.9-2.1,6.2-2.1,6.2c-0.2,0.4-0.5,0.7-0.7,1c-0.2,0.2-0.4-0.1-0.4-0.1C257.1,389.4,257,388.9,257,388.5z"/>
		<path class="st7" d="M263.1,382.9v6.5l15-1.6c0,0,1-0.5,0.4-1C277.9,386.5,263.1,382.9,263.1,382.9z"/>
		<path class="st4" d="M249.3,362l4-2c1.2-0.4,2.4-0.5,3.6-0.3c2.2,0.4,3.2,0.7,3.2,0.7s1,0.4,0.5,1.2c-0.2,0.3-0.4,0.6-0.6,0.9
			l8.1,0.4c0.1-0.7,0.7-1.2,1.4-1.2c1.5,0.1,26.6,0.7,26.6,0.7c0.8,0.3,1.4,0.9,1.6,1.6c0.6,1.4,3,8.9,3,8.9s0.7,2.1-0.7,2.7
			s-1.8,0-1.8,0l-0.7-0.7c0,0-0.4-0.5-1.9,0.3c-1.5,0.8-1.8,0.7-1.8,0.7s-0.9,0.4-2.3-0.7l-1.4-1.1c-0.4-0.5-1.1-0.7-1.8-0.6
			c-1.2,0.2-4.3,0.5-4.3,0.5s-6.3,1.2-8.8-1.4c-0.9-0.5-1.8-0.6-2.8-0.4c-1.2,0.2-4.7,0.9-4.7,0.9v-2.4l-8.9,0.1v-1.2
			C255.5,367.2,252.3,364.7,249.3,362z"/>
		<line class="st5" x1="258.8" y1="369.4" x2="260" y2="362.5"/>
		<line class="st5" x1="255.8" y1="359.6" x2="255.5" y2="367.6"/>
		<line class="st6" x1="268.3" y1="362.8" x2="267.7" y2="370.7"/>
		<polyline class="st6" points="268.5,362 270.7,364.6 295.3,365.3 297,362.8 		"/>
		<polyline class="st6" points="268,372.8 270.5,370.2 270.7,364.6 		"/>
		<path class="st6" d="M295.3,365.2l2.8,7c0,0-2.6,0.2-3.1,0.6c-0.3,0.2-0.5,0.4-0.8,0.5c-0.4,0.1-0.8,0.1-1.2-0.2
			c-0.6-0.4-2.8-2.4-4.9-2c-2.2,0.4-5.6,0.9-5.6,0.9s-3.1,0.5-5.3-0.9c-1.7-1.1-6.7-1-6.7-1"/>
	</g>
	<polygon class="st9" points="403.9,521 403.9,526.9 414.3,526.3 414,521.1 	"/>
	<path class="st9" d="M354.1,511.4c0,0,3.1,1.8,3.3,2c0.1,0.2,7.6,1.2,7.6,1.2s14.6-6.9,9.6-18.8c-0.8-1.8-1.2-4.8-2.9-5.7
		c-5.4-2.9-14.2-5.7-14.2-5.7s-5.1-2.2-8.4-1c-0.4,0.1,0.3,3.1-0.1,3.2c-1.6,0.7-2.8,2.1-3.3,3.7c-1.6,4.1-2.4,7.9,2.4,18.8
		C348.6,510.5,351.9,510.5,354.1,511.4z"/>
	<path class="st9" d="M206.2,509.2l1,1.4c0,0,1.2,0.4,1.7,0.5c0.4,0.1,4.3-0.4,4.3-0.4l0.4-0.1l1.7-3.5l3.6-0.8l0.2,1.8l0.8,1.1
		l1.3,0.7l4.4-0.5l1.6-1.2l0.9-1.7l-1.3-18.7l-0.7-3.1l-2.4-2.2l-1.9-0.1l-0.7-1.1l-6.7-0.6c-0.4,0-0.8,0.1-1.1,0.3l0.3,2.6
		l-7.8,0.7l-1.8,2.7l-0.7,2.8v4.3L206.2,509.2z"/>
	<path class="st9" d="M137.1,549.5l5.3,4.5l5.2,4c0,0,4.8,1.3,8.1,0.5c2.1-0.6,4-1.6,5.7-3l4.7-5.4l2.4-4.7l0.5-4.1l-0.8-4.9
		l-1.3-2.7l-2-2.3l-0.9-1.6v-11.1h-10.2l-0.2,4.7l-1.8-0.2l-3.3-0.2l-4.1,1.1l-5,3.1l-3.3,3.9c0,0-2.7,4.9-3.1,8.8
		c-0.4,3.9,2.8,8.4,2.8,8.4L137.1,549.5z"/>
	<path class="st3" d="M143.1,554.4c-3.1-1.7-5.8-4.1-7.8-7c-2.4-4.1-2.7-9.1-0.7-13.3c3.4-7.3,7.1-9.2,11.4-10.7
		c2.5-0.9,5.2-0.8,7.5,0.3"/>
	<path class="st4" d="M277.7,583.7c0,0,0.1,7.2,0,7.8c-0.2,0.4-0.5,0.6-0.9,0.7h-5.1c-1.8,0-1.8-1.5-1.8-1.5s0.1-29.8,0.1-31.9
		c0-2.1,1.6-1.7,1.6-1.7h5.1l10.8-0.1l4.8,0.1c0,0,1.8-0.1,1.8,1.5c0,1.6,0.1,32.1,0.1,32.1s-0.1,1.4-0.9,1.4l-5.7,0
		c0,0-1.4-0.9-1.3-4.3c0.1-1.3,0.1-2.5,0-3.8"/>
	<polyline class="st4" points="276.8,551.2 276.8,557 277.5,557.7 277.7,583.7 286.6,583.7 286.6,557.4 287.6,556.9 287.7,551.2 	
		"/>
	<path class="st4" d="M414.4,526.6c2.4-1.1,5.1-1.2,7.5-0.3c4.3,1.4,8.1,3.4,11.4,10.7c2,4.3,1.7,9.3-0.7,13.3c-2,2.9-4.7,5.3-7.8,7
		"/>
	<path class="st4" d="M427.6,555.1c3.3-2.9,5.2-7.1,5.1-11.5c-0.4-4.4-2.4-8.6-5.5-11.7c-5.3-5.6-12.7-4.5-12.7-4.5l-6,0.6l-2.2,1.3
		c0,0,1,0.4,1.1,0.4"/>
	<path class="st4" d="M426.3,556.2c3.2-3.8,3.2-9.2,3.2-9.2s1-6.1-5.8-13.1c-6.8-7-16.9-3.7-16.9-3.7l-2.4,2.7"/>
	<path class="st4" d="M298.4,475.6l37-5.2c0.5-0.7,1.2-1.2,1.9-1.4c1.1-0.2,14.3-1.9,14.3-1.9h4.7c0.8,0.3,1.5,0.9,1.9,1.7l1,1.7
		l1.2,2.4l0.6,9.9c0,0-3.1,1.4-9.8,0.9c0,0-4.1-0.4-4.8-1.6l-17.8,5l52.5,11.5l1.1-0.7l31.9,7.1l0.3,1.1c0.9,0.1,1.7,0.7,2.1,1.6
		l0.9,14.6l-5.9,1.8l-7.7-1.2c0,0-2.2-0.5-3-2.2v-3.6l-90-14.1c0,0-15-1.4-17.1,3.7l-2.9,43.7l-8.2,1.6l-9.4-1.7l0.6-43.8
		c0,0,0.9-5-15.7-4.2l-91.7,11.9v3.1c0,0,0.1,1.8-3,2.6c-2.6,0.6-5.3,1-8,1.1l-5.7-2.2l1.1-13.3c0,0,0-2.2,2-2.7l0.8-1.2l32.5-6.1
		l0.8,0.9l53.6-10.4l-16.5-5.3c0,0-1.3,2-9.7,1.4c0,0-4.3-0.4-5-1.4l0.7-9.3l3-5.9c0,0,1-1,3.2-0.9l15.4,2.4c1.4,0.4,2.8,1,3.9,2
		l34.7,6.1"/>
	<path class="st4" d="M289.7,447.6c2-0.1,4.1,0.4,5.8,1.5l0.3,3.7c0.4,0.2,0.7,0.5,0.8,0.9l0.1,2.6c0.4,0.3,0.8,0.6,1.1,1.1
		l0.5,21.3c0.9,1.3,0.5,2,0.5,2c-2.5,3.5-13.9,3.5-13.9,3.5c-13.8-0.1-14.8-3.5-15-4.5c-0.1-0.6,0.2-1.1,0.7-1.4v-2.8
		c0,0,0.4-17.3,0.5-18.1c0-0.8,1.1-1,1.1-1l0.3-2.9c0-0.5,0.9-0.6,0.9-0.6l0.3-3.6c0.3-1,4.7-1.7,4.7-1.7v1c3.7,1,7.6,1,11.4,0
		L289.7,447.6z"/>
	<path class="st3" d="M272.9,453.4c0,0,13.3,5.6,23.3,0"/>
	<path class="st3" d="M271.7,456.8c0,0,0.7,4.2,13.6,4c12.9-0.2,12-4.3,12-4.3"/>
	<path class="st3" d="M211.5,469.4c0,0-0.1,0.7,0.4,0.9c0.5,0.2,13.7,3.3,13.7,3.3c0.5,0,0.9-0.1,1.3-0.4c0.7-1.1,1.3-2.3,1.9-3.5
		c0,0,0.8-1.5,1.8-1.2c0,0,3.5,0.4,4.9,0.5"/>
	<path class="st3" d="M335.5,470.6c0.6,0,1.2,0,1.8-0.2c0.9-0.3,3.1-1,4.2,0.4c0.6,0.8,1.1,1.7,1.3,2.7c0,0.9,0.8,1.7,1.8,1.7
		c0.1,0,0.1,0,0.2,0c1.8-0.3,14-2.4,14-2.4s0.9-0.4,0.8-1.2"/>
	<path class="st3" d="M414.7,506.4c0,0-1.7,0-3.1,3.3c-0.4,1.1-1.5,1.7-2.7,1.6l-30.2-6.3c0,0-1.4,0-1.2-1.6c0,0,0.3-2.1,1-2.4
		c0.9-0.6,1.7-1.3,2.5-2.1"/>
	<path class="st3" d="M275.4,536.2l3.2-2.1c0.5-0.4,1.2-0.6,1.9-0.5c1.4,0.1,3.3,0.1,3.3,0.1c0.9-0.1,1.7,0.2,2.4,0.7l3.2,2.4
		l1.3-14.1l-0.3-1.4c0,0-1.4-2.5-3.8-3l-6.2-0.2c-1.1,0-2.2,0.4-3,1.1c-0.8,0.6-1.5,1.3-2.2,2.1l-0.1,15.3L275.4,536.2z"/>
	<path class="st3" d="M153,502.9c0,0,1.8,0.8,3.1,3.9c0.5,1.2,1.9,1.8,3.1,1.4c2.4-0.5,29.8-4.8,29.8-4.8s1.2-0.4,1-1.4
		c-0.1-1-0.3-2.5-0.3-2.5l-1.7-2.1l-1.1-1"/>
	<polyline class="st3" points="151.5,503.7 156.3,509.5 155.8,521 	"/>
	<path class="st6" d="M156.6,509.5l98-15.4c0,0,13.5-1.9,20.1,3.4l-0.9,41.2"/>
	<line class="st6" x1="288.4" y1="483.9" x2="286.9" y2="518.1"/>
	<line class="st6" x1="279.9" y1="483.9" x2="279.9" y2="517.9"/>
	<polyline class="st3" points="416.1,507 410.8,513.5 411,523.8 	"/>
	<path class="st6" d="M410.3,513.5l-99.9-19.3c0,0-13.9-2.8-17.2,3.1l-3.3,39.4"/>
	<line class="st6" x1="378.6" y1="501" x2="296.5" y2="482.4"/>
	<line class="st3" x1="328.6" y1="487.2" x2="298.6" y2="480.3"/>
	<line class="st6" x1="298.6" y1="478.4" x2="341.8" y2="471.1"/>
	<line class="st3" x1="312.3" y1="483.2" x2="359.7" y2="473.2"/>
	<path class="st3" d="M346.7,482.2l8.9-2.6c0,0,1.6-0.6,2.2,0.3"/>
	<line class="st3" x1="240.7" y1="485.8" x2="269.6" y2="480"/>
	<line class="st6" x1="255.4" y1="482.6" x2="210.6" y2="471.3"/>
	<path class="st3" d="M224.1,480.7l-9.1-3c0,0-1.8-0.5-2.3,0.1"/>
	<path class="st3" d="M277,551.9c0,0,5.9,3.4,10.5,0"/>
	<path class="st4" d="M399.3,547.7c0,0-2.6-10.1,5.7-14.9s17.6,2.3,19.6,6.2c2,4,7.2,15.1-3.3,21.1
		C410.8,566.1,400.2,553.5,399.3,547.7z"/>
	<path class="st14" d="M403.9,523.2c0,0,0.4,1.9,4.5,2c4.2,0.1,4.9,0,5.5-1.6l0.3,0v4.3c0,0-6.4,0.2-8.4,3l-2,2.5L403.9,523.2
		L403.9,523.2z"/>
	<line class="st3" x1="429.1" y1="550.4" x2="431.7" y2="548.8"/>
	<path class="st3" d="M401.9,546.3c0,0-1-10.1,7.9-11.4c9-1.3,13.2,8.6,13.2,8.6s4.1,11.4-5.5,14.3
		C407.2,561.1,401.9,549.6,401.9,546.3z"/>
	<path class="st3" d="M407.3,545.8c0.1,3.1,2.4,5.8,5.4,6.4c5.5,1.4,4.8-6.4,4.8-6.4s-1.3-4.5-5.7-4.7
		C407.3,540.9,407.3,545.8,407.3,545.8z"/>
	<path class="st3" d="M410.2,541.4c0,0,1.2-1,1.7-0.9s3.6-0.7,5.8,2.7c2.8,4.4-1.6,8.5-1.6,8.5"/>
	<polyline class="st6" points="404.2,538.4 405.1,538.7 409.1,541.4 409.8,541 407.3,537.3 405.8,536.4 	"/>
	<path class="st6" d="M407.4,535.6l1,0.7l2.2,3.4c0,0,1,0.2,1.1-0.5l0,0l-0.8-3.1L410,535"/>
	<path class="st6" d="M411.4,534.8l0.6,1l0.8,3.4c0,0,0.7,0.7,1.1,0.2l0.5-3l-0.2-1"/>
	<path class="st6" d="M415.7,535.9l0.1,0.8l-0.5,3.3c0,0,0.5,0.7,1,0.6l1.6-2.5l0.3-0.8"/>
	<path class="st6" d="M419.1,538.4l-0.2,0.8l-1.5,2.2c0,0,0,1,1,1l2.6-1.8"/>
	<path class="st6" d="M421.9,542l-2.7,1.4c0,0-0.8,1.2,0.4,1.4l3.5-0.8"/>
	<path class="st6" d="M423.5,546.3l-3.3-0.2c0,0-1.4,0.5-0.2,1.3l3.8,1.6"/>
	<path class="st6" d="M422.9,553.3l-0.9-1.2l-2.8-2.4c0,0-0.6-1.3,0.5-1.1c1.1,0.2,3.9,2.2,3.9,2.2"/>
	<path class="st6" d="M419.8,556.9l-0.1-1.5c0-0.5-0.2-1-0.5-1.4c-0.4-0.6-1.4-2-1.4-2s-0.5-1.9,1.2-1.1l2.2,2.7l0.7,1.3"/>
	<path class="st6" d="M415.7,558.2l0.4-1.4c0.1-0.6,0.1-1.3-0.1-1.9l-0.6-2c0,0,0.3-1.2,1.3-0.5l1.1,2.1c0.3,0.4,0.4,0.9,0.5,1.4
		l0.1,1.4"/>
	<path class="st6" d="M411.4,558l0.7-1.1c0.3-0.5,0.5-1,0.5-1.6l0.4-2.7"/>
	<polyline class="st6" points="414.1,552.6 415,556 414.3,558.2 	"/>
	<polyline class="st6" points="407.3,555.8 408.4,554.9 410.4,551.7 	"/>
	<polyline class="st6" points="411.7,552.2 411.1,555.9 409.4,557.2 	"/>
	<polyline class="st6" points="404.4,552.3 405.6,551.3 408.3,549.6 	"/>
	<polyline class="st6" points="409.4,550.9 407.6,553.4 406.6,554.8 	"/>
	<path class="st6" d="M403.6,550.8l1-0.7c0.4-0.3,0.8-0.5,1.3-0.7c0.6-0.3,1.2-0.6,1.8-1"/>
	<polyline class="st6" points="407.3,547.2 405.1,547.4 402.6,548.1 	"/>
	<polyline class="st6" points="402,546.4 404.4,545.8 407,545.8 	"/>
	<polyline class="st6" points="407.3,544.7 403.7,543.6 402.1,543.5 	"/>
	<polyline class="st6" points="402.3,541.8 404.1,542 407.6,543.3 	"/>
	<polyline class="st6" points="408.1,542.4 405.2,540.1 403.4,539.7 	"/>
	<path class="st3" d="M168.7,544.8c0,0,2.6-10.1-5.7-14.9c-8.2-4.8-17.6,2.3-19.6,6.3c-2,4-7.2,15.1,3.3,21.1
		C157.1,563.3,167.8,550.6,168.7,544.8z"/>
	<path class="st3" d="M164,520.3c0,0-0.4,1.9-4.5,2c-4.2,0.1-4.9,0-5.5-1.6"/>
	<line class="st3" x1="164" y1="520.8" x2="164" y2="531"/>
	<path class="st3" d="M163.8,530.2c-2.5-4.6-10.1-5.1-10.1-5.1v-4.3"/>
	<path class="st3" d="M161.1,527.3c0,0-10.1-3.3-16.9,3.7c-6.8,7-5.8,13.1-5.8,13.1s0,5.4,3.2,9.2"/>
	<path class="st3" d="M153.4,524.5c0,0-7.4-1-12.7,4.5c-3.1,3.2-5.1,7.3-5.5,11.7c-0.1,4.4,1.8,8.6,5.1,11.5"/>
	<line class="st3" x1="138.8" y1="547.5" x2="136.2" y2="546"/>
	<path class="st3" d="M166.1,543.5c0,0,1-10.1-7.9-11.4s-13.2,8.6-13.2,8.6s-4.1,11.4,5.5,14.3C160.8,558.3,166,546.7,166.1,543.5z"
		/>
	<path class="st3" d="M160.7,543c-0.1,3.2-2.4,5.8-5.4,6.4c-5.5,1.4-4.8-6.4-4.8-6.4s1.3-4.5,5.7-4.7
		C160.6,538.1,160.7,543,160.7,543z"/>
	<path class="st3" d="M157.8,538.6c0,0-1.2-1-1.7-0.9c-0.6,0.1-3.6-0.7-5.8,2.7c-2.8,4.4,1.6,8.5,1.6,8.5"/>
	<polyline class="st6" points="163.8,535.5 162.9,535.9 158.8,538.6 158.1,538.2 160.6,534.4 162.2,533.6 	"/>
	<path class="st6" d="M160.6,532.8l-1,0.7l-2.2,3.3c0,0-1,0.2-1.1-0.5l0,0l0.8-3.1l0.8-1.1"/>
	<path class="st6" d="M156.6,531.9l-0.6,1l-0.8,3.4c0,0-0.7,0.7-1.1,0.2l-0.5-3l0.2-1"/>
	<path class="st6" d="M152.3,533.1l-0.1,0.8l0.5,3.4c0,0-0.5,0.7-1,0.6l-1.6-2.5l-0.3-0.8"/>
	<path class="st6" d="M148.8,535.6l0.2,0.8l1.6,2.2c0,0,0,1-1,1l-2.6-1.8"/>
	<path class="st6" d="M146,539.2l2.7,1.4c0,0,0.8,1.2-0.4,1.4l-3.5-0.8"/>
	<path class="st6" d="M144.5,543.5l3.3-0.2c0,0,1.4,0.5,0.2,1.3l-3.8,1.6"/>
	<path class="st6" d="M145.1,550.5l0.9-1.2l2.8-2.4c0,0,0.6-1.3-0.5-1.1s-3.9,2.2-3.9,2.2"/>
	<path class="st6" d="M148.2,554.1l0.1-1.5c0.1-0.5,0.2-1,0.5-1.4c0.4-0.6,1.4-2,1.4-2s0.6-1.9-1.1-1.1l-2.2,2.7l-0.7,1.3"/>
	<path class="st6" d="M152.2,555.4l-0.4-1.4c-0.1-0.6-0.1-1.3,0.1-1.9l0.6-2c0,0-0.3-1.2-1.3-0.5l-1.1,2.1c-0.3,0.4-0.4,0.9-0.5,1.4
		l-0.1,1.4"/>
	<path class="st6" d="M156.5,555.2l-0.8-1.1c-0.3-0.5-0.5-1-0.5-1.6l-0.4-2.7"/>
	<polyline class="st6" points="153.8,549.8 153,553.2 153.7,555.4 	"/>
	<polyline class="st6" points="160.6,553 159.5,552.1 157.5,548.8 	"/>
	<polyline class="st6" points="156.2,549.4 156.9,553 158.6,554.3 	"/>
	<polyline class="st6" points="163.6,549.5 162.3,548.4 159.7,546.8 	"/>
	<polyline class="st6" points="158.5,548 160.4,550.5 161.3,552 	"/>
	<path class="st6" d="M164.4,548l-1-0.7c-0.4-0.3-0.8-0.5-1.3-0.7c-0.6-0.3-1.2-0.6-1.8-1"/>
	<polyline class="st6" points="160.6,544.3 162.8,544.5 165.4,545.3 	"/>
	<polyline class="st6" points="165.9,543.6 163.6,543 160.9,542.9 	"/>
	<polyline class="st6" points="160.6,541.9 164.2,540.7 165.9,540.7 	"/>
	<polyline class="st6" points="165.6,539 163.9,539.2 160.3,540.5 	"/>
	<polyline class="st6" points="159.8,539.6 162.7,537.3 164.5,536.9 	"/>
	<polyline class="st3" points="294.4,568 295.1,568 295.1,580.7 294.5,580.7 	"/>
	<polyline class="st3" points="269.7,568.2 269,568.2 269,580.9 269.6,580.9 	"/>
	<path class="st3" d="M348.9,483.7c0,0,0,1.7,4.4,1.8c4.5,0.1,4.1-1.6,4.1-1.6"/>
	<line class="st3" x1="348.8" y1="483.8" x2="348.8" y2="491.4"/>
	<path class="st3" d="M357.8,483.9l0.1,4.6c-1.6,1.1-3,2.5-4.2,4.1"/>
	<path class="st3" d="M348.7,486.6c0,0-2.5,1.8-3.3,4.1"/>
	<path class="st3" d="M357.9,484.5l12.3,4.5c0,0,3.7,1.7,4.5,8.1"/>
	<path class="st3" d="M357.9,488.5c0,0,3.3-2.2,6.5-1.7"/>
	<path class="st3" d="M361,494.1c0,0,2.1-3.1,5.4-2.9c3.1,0.2,5.6,2.4,6.3,5.4"/>
	<line class="st3" x1="362.7" y1="492.6" x2="362.9" y2="494.4"/>
	<polyline class="st3" points="364.3,491.7 363.9,492.8 364,494.7 	"/>
	<polyline class="st3" points="366.1,491.4 365.4,492.3 364.7,494.8 	"/>
	<polyline class="st3" points="367.5,491.6 366.6,492.6 365.9,495.1 	"/>
	<polyline class="st3" points="366.4,495.2 367.6,493.3 369.1,492.2 	"/>
	<polyline class="st3" points="370.3,493 368.7,494.1 367.7,495.5 	"/>
	<polyline class="st3" points="368.7,495.9 370.1,494.8 371.6,494.4 	"/>
	<polyline class="st3" points="370.5,496.2 371.1,495.8 372.3,495.8 	"/>
	<path class="st3" d="M347.8,508.8c0,0,2.1,2.4,6.5,2.4"/>
	<path class="st3" d="M350.6,509.2c0,0,0.4,1.5,3.5,2c2.2,1.8,4.8,3,7.6,3.3c4.7,0.5,6.9-2.3,6.9-2.3"/>
	<path class="st3" d="M355.5,510.2c0,0,1.3,2.5,6.1,4.5"/>
	<path class="st3" d="M353.4,509.7c0.2,0.6,0.5,1.1,0.8,1.6"/>
	<path class="st15" d="M214.6,491.1c0.1-2-1.4-5.4-1.4-5.4l0.2-3.5c0,0,0.4,1.8,4.8,1.6c4.4-0.2,3.6-1.9,3.6-1.9l0.3,5
		c0,1-0.1,1.9-0.5,2.9"/>
	<path class="st3" d="M213.1,483.5l-7.1,0.7c0,0-3.1,1-2.9,8.9"/>
	<path class="st3" d="M209.5,491.9c0,0,0-6.3-3.4-7.7"/>
	<path class="st3" d="M227,488.6c-0.6-5.3-3.7-6.1-3.7-6.1l-1.2,0.1"/>
	<path class="st3" d="M213.2,485.7c-0.6-0.7-1.4-1.3-2.2-1.8"/>
	<path class="st3" d="M208.1,492.2c0,0-0.1-3.8-2.4-5.1s-2.3,5.9-2.3,5.9"/>
	<path class="st3" d="M204.2,488.3l1.6,0.7c0.5,0.4,0.8,0.9,1,1.5c0.2,0.9,0.3,1.8,0.3,1.8"/>
	<path class="st3" d="M203.6,491c0,0,1.7,0,2.4,0.9l0.3,0.6"/>
	<path class="st3" d="M214.9,508.1c-0.3,0.9-0.8,1.8-1.4,2.6c0,0-4.1,0.6-5.3,0.4c-1.2-0.2-2-1.9-2-1.9"/>
	<path class="st3" d="M210.5,508.5c-0.2,1.2-1,2.2-2.2,2.6"/>
	<path class="st3" d="M218.9,507.5c0.3,1.1,1.2,2,2.3,2.3l4.6-0.4c0,0,2.2-1.5,2.1-3"/>
	<path class="st3" d="M223.4,506.9c0,0-0.4,2.3-2.2,2.9"/>
	<path class="st3" d="M273.7,449.1c0,0,11.3,4.3,21.7,0"/>
	<path class="st3" d="M273.7,449.1c0,0,12.4,4.4,21.8,0"/>
	<path class="st8" d="M272.6,290.4v-3.9c0,0-0.2-1.4,2.1-2.8c2.3-1.4,5.8-3.3,5.8-3.3c2.6-1.2,5.4-1.9,8.3-2.1
		c4.5-0.1,29.1-0.8,29.1-0.8s45.7,0,64.3,2.1c1.1,0.3,2.2,0.6,3.3,1.1l6.4,3.8c1.1,0.6,1.8,1.8,1.8,3v3.4c0,0,0.3,1.2-2.6,1.4
		c-2.9,0.2-37.6,0.2-37.6,0.2l-17.8,11.8c0,0-2.1,0.7-2.1,4.9c0,4.2-2.2,72-2.2,72s-0.2,0.5-1.4,0.4c-0.1,0.4-0.1,3.8-0.1,3.8h1.8
		l1.6,19.1c0,0,0.9,2.4-3.5,3.2c-4.4,0.8-14.4,2.6-23.9-0.8c-1.3-0.6-2.3-0.9-2-3.5c0.3-2.6,1.6-18,1.6-18c0.6-0.3,1.2-0.5,1.9-0.6
		c0.2-1.2,0.2-2.5,0.1-3.7c0,0-1.7,0.4-1.7-1.6c0-2-1.1-71.2-1.1-71.2c0-1.8-0.9-3.6-2.4-4.6c-2.6-1.6-17.9-12.1-17.9-12.1
		S273.3,291.9,272.6,290.4z"/>
	<path class="st6" d="M272.7,285.9c0,0,2.5,0.3,13,0.3c10.6,0.1,103.1,0.4,103.1,0.4s4.6,0.1,3.6-1.9"/>
	<path class="st6" d="M281.2,280c0,0,2.7-0.3,10.9-0.3c8.2-0.1,69-1,86.6,1.1c3.7,0.1,4.6-0.3,5.3-0.7"/>
	<line class="st6" x1="284.7" y1="291.6" x2="353.6" y2="292.4"/>
	<line class="st6" x1="294.3" y1="298.2" x2="345" y2="298.2"/>
	<path class="st6" d="M307.8,381.2c0,0,15.1,1.3,22.5,0.3"/>
	<path class="st6" d="M305.7,385.5c0,0,1.4,2.2,12.9,2c11.5-0.2,10-0.1,13.3-2"/>
	<path class="st6" d="M307.6,384.9c0,0,0,1.8,10.2,1.8s10.5,0,12.2-1.2"/>
	<polyline class="st6" points="314.8,313 314.8,316.7 323.3,316.7 323.3,313.2 	"/>
	<path class="st6" d="M312.3,312.8c0,0,3,0.3,6.8,0.3s5.1,0.2,6.7-0.2v-1.6c-0.1-1.6-1.4-2.8-3-2.7c0,0-0.1,0-0.1,0
		c-3.1,0-6.8,0-6.8,0s-3.2-0.2-3.6,2.4L312.3,312.8z"/>
	<polyline class="st6" points="315.7,308.5 315.7,304.9 322.5,304.9 322.5,308.7 	"/>
	<rect x="370" y="409.8" class="st9" width="34.3" height="12.1"/>
	<g>
		<g>
			<g>
				<line class="st10" x1="64.4" y1="397.2" x2="190.3" y2="397.2"/>
				<polygon class="st11" points="71.7,396.5 64.4,385.1 79,385.1 				"/>
			</g>
			<line class="st10" x1="70.3" y1="10" x2="70.3" y2="387.2"/>
			<g>
				<polygon class="st11" points="70.6,8.2 64.2,19.5 76.9,19.5 				"/>
				<line class="st10" x1="64.2" y1="7.2" x2="187.7" y2="7.2"/>
			</g>
		</g>
		<g>
			<g>
				<polygon class="st11" points="471.7,581.1 484.4,581.1 478,591.9 				"/>
			</g>
			<line class="st10" x1="478" y1="582.4" x2="478" y2="345.4"/>
			<g>
				<polygon class="st11" points="471.8,348 484.5,348 478.2,337.3 				"/>
				<line class="st10" x1="420.1" y1="336.7" x2="484.4" y2="336.7"/>
			</g>
			<g>
				<polygon class="st11" points="471.7,407.3 484.4,407.3 478,396.5 				"/>
			</g>
			<g>
				<polygon class="st11" points="471.7,387.2 484.4,387.2 478,397.9 				"/>
				<line class="st10" x1="429.5" y1="397.5" x2="484.4" y2="397.5"/>
			</g>
		</g>
		<g>
			<g>
				<line class="st10" x1="303.7" y1="592.8" x2="524.1" y2="592.8"/>
				<polygon class="st11" points="510.9,580.9 524.1,580.9 517.5,591.8 				"/>
			</g>
			<line class="st10" x1="517.5" y1="582.3" x2="517.5" y2="285.7"/>
			<g>
				<polygon class="st11" points="510.8,289.6 524,289.6 517.4,278.6 				"/>
				<line class="st10" x1="390.8" y1="278.2" x2="524" y2="278.2"/>
			</g>
		</g>
		<g id="texto_38_">
			<rect x="49.9" y="185.5" class="st13" width="37" height="15.7"/>
			<text transform="matrix(1 0 0 1 53.3626 197.4)" class="st26 st27 st28">86cm</text>
		</g>
		<g id="texto_37_">
			<rect x="442.7" y="495.7" class="st13" width="54.3" height="15.7"/>
			<text transform="matrix(1.0849 0 0 1 442.8187 507.5406)" class="st26 st27 st28">39-49cm</text>
		</g>
		<g id="texto_36_">
			<rect x="451.3" y="360.1" class="st13" width="54.3" height="15.7"/>
			<text transform="matrix(1.0849 0 0 1 462.4496 371.9835)" class="st26 st27 st28">12cm</text>
		</g>
		<g id="texto_35_">
			<rect x="491.7" y="427.6" class="st13" width="57.8" height="15.7"/>
			<text transform="matrix(1.128 0 0 1 492.5814 439.4176)" class="st26 st27 st28">66-73cm</text>
		</g>
		<g>
			<g>
				<line class="st10" x1="435.3" y1="431.4" x2="435.3" y2="389.7"/>
				<polygon class="st11" points="434.8,425.6 424.1,431.4 424.1,419.7 				"/>
			</g>
			<line class="st10" x1="231.2" y1="425.7" x2="432.7" y2="425.7"/>
			<g>
				<polygon class="st11" points="222.8,425.8 233.4,431.7 233.4,420 				"/>
				<line class="st10" x1="222.4" y1="431.7" x2="222.4" y2="406.9"/>
			</g>
		</g>
		<g id="texto_34_">
			<rect x="366" y="417.5" class="st13" width="37" height="15.7"/>
			<text transform="matrix(1 0 0 1 369.472 429.4)" class="st26 st27 st28">49cm</text>
		</g>
	</g>
</g>
</svg>
