<svg xmlns="http://www.w3.org/2000/svg" viewBox="0 0 411.69 721.6"><defs><style>.cls-1{fill:#fff;}.cls-1,.cls-2{stroke:#000;stroke-miterlimit:10;stroke-width:2px;}.cls-2{fill:none;}</style></defs><title>Ativo 4</title><g id="Camada_2" data-name="Camada 2"><g id="diagonal"><path class="cls-1" d="M295.31,481.31l-.92,8.66a7.62,7.62,0,0,1-1.92,2.67c-1.33,1.17-24,12.42-24,12.42l-2,5.16-11.41,3.67,1.08,3.83s-.17,1.67-8.83,4.92l.91,32.5-4.5,3.67s-7.33,2.66-18.75,1.75l-5.91-3.75-2.42-26.17-2.75-.5-.75-2.83L211,531.64s-18.41,5.5-30.08-1.17l-3.75-19.08-8.5,1.08s0,10.59-13.67,15.34l-6.33,1.41s-1.08.84-5.5-1.16-16.58-10.84-16.58-10.84-4.67.17-4.17-8.25a4.81,4.81,0,0,1,3.08-4.16l77.42-12.09,3.5-8.16"/><path class="cls-1" d="M214.6,569.85l47.87-6.69a4.93,4.93,0,0,1,2.5-1.81c1.38-.25,18.57-2.5,18.57-2.5h6.12a4,4,0,0,1,2.44,2.25l1.25,2.18,1.56,3.13.81,12.81s-4.06,1.81-12.62,1.19c0,0-5.25-.56-6.25-2.13l-23.06,6.5,67.87,14.88,1.44-.88,41.31,9.13.44,1.37a3.43,3.43,0,0,1,2.69,2.07l1.18,18.93-7.62,2.32-9.94-1.5s-2.87-.63-3.87-2.88v-4.69L230.85,605.22s-19.38-1.81-22.13,4.81L205,666.6l-10.63,2.06-12.19-2.25.75-56.63s1.19-6.43-20.25-5.43L44.1,619.78v4s.12,2.32-3.88,3.38a66.89,66.89,0,0,1-10.37,1.44l-7.38-2.75,1.44-17.25s0-2.88,2.63-3.5l1.06-1.5,42-8,1.06,1.12L140,583.28l-21.32-6.87s-1.62,2.62-12.5,1.81c0,0-5.62-.56-6.43-1.81l.87-12,3.88-7.63s1.25-1.31,4.12-1.12l19.88,3a13.11,13.11,0,0,1,5.06,2.56l44.81,8"/><path class="cls-1" d="M203.41,533.53a13.28,13.28,0,0,1,7.5,1.94l.38,4.75a2.29,2.29,0,0,1,1.06,1.13l.19,3.31a3.82,3.82,0,0,1,1.37,1.37l.69,27.57c1.12,1.68.62,2.62.62,2.62-3.25,4.56-18,4.56-18,4.56-17.87-.12-19.18-4.5-19.37-5.81a1.71,1.71,0,0,1,.94-1.81v-3.63s.56-22.31.62-23.37,1.38-1.31,1.38-1.31l.37-3.69c0-.63,1.13-.75,1.13-.75l.37-4.69c.44-1.31,6.06-2.19,6.06-2.19v1.25a29.12,29.12,0,0,0,14.69,0Z"/><path class="cls-1" d="M318.72,369.35V344.72a6.62,6.62,0,0,0-2-4.12c-1.87-1.75-20-14-20-14h-10.5v-6.25s-.87-4.75,4.5-6.13,89-1.5,95.88.88a69.38,69.38,0,0,1,10.62,4.5s2.63,2,3,3.62a13.74,13.74,0,0,1,0,4.13s-4.62,1.37-20.62,1.37l-14.31-.06-18.07,12.06a6.43,6.43,0,0,0-2.56,4.69c-.31,3.25-.56,15.19-.56,15.19"/><path class="cls-1" d="M99.56,464.39l-1.84.83-51.66-8.83s-4.17.67-6.84-8l-2-31.33s0-8.17,1.17-11.34l-.83-6.33s-.42-3.33,1-5.42,9-12.83,9-12.83a5.38,5.38,0,0,0,.5-3.17c-.17-2.16-2-15.75-2-15.75L32.81,305.06a4.66,4.66,0,0,1,.33-3.92l2.33-3.67s-17.58-69.25-18.58-89.91-5-69-5-69,0-20,12.67-33.34a261.06,261.06,0,0,1,26-23.66s5-3.34,5.16-8.5l8.5-54.5s1.34-7.67,7.17-10.5c2.86-1.39,5.76-3,8-4.35a19.18,19.18,0,0,1,9.25-2.66C97,.81,114,1.23,130.71,6.94l.35.12s12.66,1.5,19,16,13.33,39.33,13.33,39.33,6.67,25,21.33,31.83,39.34,26.84,39.34,26.84,18.33,11,8.83,38.83-12.67,36.67-12.67,36.67-6.5,21,5.17,48.66,29.67,55,29.67,55,26.33,37.67,6.33,71.5c0,0-13.5,18.17-14.5,19s6.5,11.17,6.5,11.17,14.67,2.17,19.5,0,8.17,1.5,35.67-24.33,57-14.34,57-14.34,22.83,6.5,39.83,32.84-12.33,69.33-12.33,69.33-3.5,7.67-25.67,4.17l-87.5,13.66-1.17,1.84s-7.83,3.5-15.16,3.5l-17.5,1.16-7.34.84s-13.33-10.84-113.66-23.67"/><path class="cls-2" d="M35.47,297.47a6.39,6.39,0,0,1,4.38-3.37c3.37-.88,11.19-1,11.19-1s4.31,2.5,6.93,4.37l15.75,89.42-3.75.5.42,2.17s7.25,2.58,11.25,13.16a148.41,148.41,0,0,0,7.25,16.59l1.9-.9S93,418.28,93,419a9,9,0,0,1-1,2.57l7.81,1.87.66,14.5.15,10.38a4.57,4.57,0,0,0,1.44,1V454s-1.94-.06-1.69,1-1.12,9.19-1.12,9.19"/><path class="cls-2" d="M100.39,437.72l-4.5.34s-2.92.33-4.13-2.09-6-1.21-6-1.21L86,421.47l1.63-.33,5.24.66"/><polyline class="cls-2" points="88.89 419.31 80.26 422.01 85.76 423.01"/><polyline class="cls-2" points="85.6 431.83 78.25 431.22 78.63 422.1"/><path class="cls-2" d="M38.39,405.72l2.67,14.75s1.08,9.67,9.25,9.34,6-15.92,6-15.92l-2.25-18.67s-.67-5.16,2.66-5.75,13.17-2.33,13.17-2.33"/><path class="cls-2" d="M54.45,404l-2.31-13.73,4.92-13.66L46.89,298.22s-3-4.19-6-4.35"/><path class="cls-2" d="M66.22,387.39a48.42,48.42,0,0,1-8.75-25.67c-.5-15-5.25-64-5.25-64"/><line class="cls-2" x1="74.41" y1="336.66" x2="145.85" y2="342.1"/><path class="cls-2" d="M138,347.56l-14.37.54a69.77,69.77,0,0,1-10.38-.54c-4.62-.71-29-3-29-3"/><line class="cls-2" x1="365.29" y1="328.66" x2="296.22" y2="326.6"/><path class="cls-2" d="M307.35,334l28.66.79s7.55.25,10.46,0,9.79-.3,9.79-.3"/><path class="cls-2" d="M395.22,417s3.25-18.5-20.25-39-47-13.1-47-13.1"/><path class="cls-2" d="M170.89,473.89l-34.58,4.92-.34,2-13.25,2.75s-17.58,3.08-24.33-2.67l2-26s6.58,4.49,21.92,2.57c0,0,2.91-1.08.66-2.08v-4l.84-.83,2.25-92.84s1-3.33,2.16-3.5,17.94-12.12,17.94-12.12l40.06-1.44v-8.44s.07-4.06-4.62-6.19c0,0-47.81-7.31-72.63-5.18l-34,1-8.5,5s-3.25.81-2.81,8.06l10.75,1.75L95.6,353.72s2.44.69,2.25,6.25l2.54,65"/><path class="cls-2" d="M128.39,6.56S95.56.06,86.56,2.06s-9.84,9.5-9.84,9.5l-4.5,48.5s.84,11.16-8.16,17.33-25.67,22.5-25.67,22.5-4.83,2.17-2.17,15.67,4.34,20.83,4.34,20.83,6.33,38.67,21.5,61.17c0,0,23.66,51.66,51.91,92.16l16.84,30.92"/><path class="cls-2" d="M106.81,320.64S68.56,246.56,46.89,213.89c0,0-25.33-61.67-25.33-89.67,0,0-2.09-10,6.29-22.75"/><path class="cls-2" d="M55.6,107.35,71.72,95.47a3.66,3.66,0,0,1,5.75.88,21.56,21.56,0,0,1,3.13,9V139.1s0,6.37-4.13,8.87-22.75,6.25-22.75,6.25-2.25-.12-2.87-8.5c-.43-5.68,1.91-21.33,3.46-30.79C55,110.44,55.6,107.35,55.6,107.35Z"/><path class="cls-2" d="M50.82,145.22s10.53-4,11.9-5,1.35-3.37,1.35-3.37l-.85-29.13-8.91,7.21"/><path class="cls-2" d="M50.85,145.72l21.87-5s3.13-.12,2.75-5,.38-29.62.38-29.62.62-7.5-4.75-4.63-16.88,12.75-16.88,12.75"/><path class="cls-2" d="M91.35,100.82s-7.88,25.28-2.5,67.28c0,0,2.81,11.37,7.75,12a13.53,13.53,0,0,0,8.31-1.5s10.56-9.57,22.75-10.5,24.81-3.07,41,12.37c0,0,7.63,7,12.88,3.38,0,0,2.25.37,4.37-3.13,0,0-1.81-14.25-1.5-22.69,0,0-2.44-25.72-1.27-30.72a54.75,54.75,0,0,0,1.25-10.17s-1.92-11.75-12.17-10.67c0,0-8.16,1.75-12.83,5.67s-25.83,4.67-45.17-8.17c0,0-7.75-6.08-8.33-6.33S97.89,91.83,91.35,100.82Z"/><path class="cls-2" d="M95.06,179.31s22.55-19.75,28.87-41.53c3.25-11.2-.78-23.49-10.08-33.81"/><path class="cls-2" d="M90.6,104.85s.26,64.55.57,69.65"/><path class="cls-2" d="M162.22,110.21s11-3.24,14.38,15.89,8.62,45.5,6.62,56.5"/><path class="cls-2" d="M155,113.6s1.63-7,5-8.13,2.88-2.12,9.13,1.38"/><path class="cls-2" d="M184.85,118.47l7.37,5.63a11.84,11.84,0,0,1,5.25,8.87c.75,6.38,2.25,18.75,2.25,18.75s1,14.38-10.87,13.38l-4-1.25"/><path class="cls-2" d="M183,132.1a2.81,2.81,0,0,1,1.09,1.54c.25,1,2.41,21.33,2.41,21.33s.17,2.25-1.62,1.63l3.87,1.5s3.5.5,3.75-3S190.35,134,190.35,134a12.49,12.49,0,0,0-1.88-3.75,36,36,0,0,0-4.81-3.12"/><path class="cls-2" d="M195.2,163.68s3.52,6.29-.23,16.17-16.25,32.37-17.41,43.71-4.17,6.5-1.5,29,17.83,70.83,17.83,70.83"/><path class="cls-2" d="M57.06,154.22s13.83,14.5,19.5,34.67,7.5,43.5,7.5,43.5l30.64,58.68"/><path class="cls-2" d="M87.06,414.56a36,36,0,0,0,12.33-10"/><path class="cls-2" d="M138.89,347.56s3.5,20.16-13.33,44.66"/><path class="cls-2" d="M124.92,414.56s9.68-10,13.18-18.71S157,377.22,163.35,376.1s20.37-9.25,54,14.5S251,423.1,251,423.1s8.88,36.37,12.88,44.12,7.13,16.88.63,21.32"/><path class="cls-2" d="M242.48,490.13s-.94-56-15.82-73.36c0,0-29.81-34.8-55.44-35.3S132,406.15,132,406.15"/><path class="cls-2" d="M247.57,416.77s14.28,5.33,14,20.33-.13,23.12-.13,23.12"/><path class="cls-2" d="M237.6,406.1l36.87-2.38s19.88-7.25,31.75-23.25"/><path class="cls-2" d="M237.6,369.22s19.29-27.16,11.79-54.33-29.17-68-29.17-68-12.83-39.83-1.83-56.33,16.88-50.68,16.88-50.68"/><line class="cls-2" x1="138.35" y1="365.1" x2="139.19" y2="393.47"/><path class="cls-2" d="M178.35,325.1s16-1.09,26.22-2a61.63,61.63,0,0,0,8.28-1c1.25-.75,13.12,1.5,17.87,14.12S244,387.6,232.53,401.6"/><path class="cls-2" d="M220.85,392.72s8.87-45.54-15.75-69.33"/><path class="cls-2" d="M154.72,379.28s-1.16-27.89-5.5-36.89"/><polyline class="cls-2" points="124.06 456.39 125.47 471.14 138.56 469.06"/><path class="cls-2" d="M85.44,2.35S103.72,53,94.72,96.72"/><line class="cls-2" x1="80.72" y1="135.89" x2="88.39" y2="114.47"/><path class="cls-2" d="M154.73,114s4.74-25.68,2-40.31-11.9-58.85-11.9-58.85"/><path class="cls-2" d="M274.47,403.72s64.42-8.16,101.92,1.5c0,0,18.5,3,21,18.34s2.33,26.5-1,34.16a28.39,28.39,0,0,1-9.61,11.67"/><path class="cls-2" d="M181.6,541.14s17.21,7.21,30.12,0"/><path class="cls-2" d="M180.14,545.47s1,5.42,17.62,5.17,15.55-5.58,15.55-5.58"/><path class="cls-2" d="M102.26,561.72s-.16,1,.55,1.21,17.66,4.21,17.66,4.21a2.3,2.3,0,0,0,1.67-.54,50.4,50.4,0,0,0,2.46-4.5s1-1.92,2.29-1.5l6.29.66"/><path class="cls-2" d="M262.68,563.31a6.32,6.32,0,0,0,2.29-.25c1.21-.38,4-1.3,5.46.5a7.79,7.79,0,0,1,1.63,3.54,2.22,2.22,0,0,0,2.58,2.12c2.37-.37,18.12-3.12,18.12-3.12s1.17-.46,1.05-1.5"/><path class="cls-2" d="M365.16,609.66s-2.19.06-4,4.31a3.27,3.27,0,0,1-3.44,2.06l-39.12-8.12s-1.75-.06-1.5-2.13c0,0,.44-2.75,1.25-3.12a25.36,25.36,0,0,0,3.25-2.75"/><path class="cls-2" d="M184.91,648.22l4.19-2.69a3.12,3.12,0,0,1,2.5-.68c1.75.12,4.25.12,4.25.12a4.53,4.53,0,0,1,3.12.88l4.19,3,1.69-18.25-.44-1.82s-1.81-3.25-4.87-3.87l-8.07-.25a6.46,6.46,0,0,0-3.93,1.44,24.12,24.12,0,0,0-2.82,2.68l-.18,19.82Z"/><path class="cls-2" d="M26.54,605.1s2.37,1.06,4,5.06A3.37,3.37,0,0,0,34.6,612c3.12-.62,38.62-6.25,38.62-6.25s1.5-.56,1.32-1.81-.44-3.19-.44-3.19L71.85,598l-1.44-1.31"/><polyline class="cls-2" points="24.6 606.16 30.85 613.66 30.16 628.58"/><path class="cls-2" d="M31.22,613.66l126.84-19.94s17.5-2.5,26,4.34l-1.17,53.33"/><line class="cls-2" x1="201.72" y1="580.57" x2="199.81" y2="624.81"/><line class="cls-2" x1="190.72" y1="580.57" x2="190.72" y2="624.56"/><polyline class="cls-2" points="366.97 610.48 360.1 618.85 360.35 632.1"/><path class="cls-2" d="M359.47,618.85l-129.25-25s-18-3.63-22.25,4l-4.25,51"/><line class="cls-2" x1="317.07" y1="602.69" x2="212.22" y2="578.6"/><line class="cls-2" x1="253.79" y1="584.78" x2="214.85" y2="575.85"/><line class="cls-2" x1="214.85" y1="573.47" x2="270.73" y2="563.96"/><line class="cls-2" x1="232.6" y1="579.66" x2="293.97" y2="566.66"/><path class="cls-2" d="M277.1,578.28,288.6,575s2-.81,2.87.44"/><line class="cls-2" x1="139.97" y1="583.06" x2="177.39" y2="575.47"/><line class="cls-2" x1="158.97" y1="578.81" x2="101.06" y2="564.31"/><path class="cls-2" d="M118.47,576.39l-11.83-3.92s-2.33-.66-2.92.17"/><polyline class="cls-2" points="186.72 667.6 186.72 675.16 187.66 676.03 187.91 709.66 199.41 709.66 199.41 675.66 200.66 675.03 200.78 667.6"/><path class="cls-2" d="M186.91,668.53s7.63,4.38,13.63,0"/><path class="cls-2" d="M200.66,675l6.19.13s2.37-.13,2.37,1.94.13,41.5.13,41.5-.13,1.81-1.19,1.81l-7.37.06s-1.75-1.19-1.63-5.56a31.31,31.31,0,0,0,0-4.88"/><path class="cls-2" d="M186.72,675.16H180.1s-2.13-.44-2.13,2.25-.12,41.31-.12,41.31,0,1.88,2.31,1.88h6.56a1.48,1.48,0,0,0,1.13-.88c.25-.75.06-10.06.06-10.06"/><path class="cls-2" d="M345.22,663.06s-3.33-13.09,7.34-19.34,22.75,2.92,25.33,8.09,9.28,19.57-4.25,27.33S346.31,670.56,345.22,663.06Z"/><path class="cls-2" d="M351.16,631.35s.5,2.43,5.88,2.62,6.37-.06,7.12-2.06"/><line class="cls-2" x1="351.16" y1="631.97" x2="351.16" y2="645.1"/><path class="cls-2" d="M364.56,632v5.54s-9.84.63-13.13,6.59"/><path class="cls-2" d="M364.76,635.72a13.2,13.2,0,0,1,9.75-.37c5.63,1.83,10.42,4.33,14.75,13.79a18.58,18.58,0,0,1-.87,17.25,30,30,0,0,1-10.09,9"/><path class="cls-2" d="M354.91,640.41s13.13-4.25,21.88,4.81,7.5,16.94,7.5,16.94,0,6.94-4.13,11.87"/><path class="cls-2" d="M364.91,636.72s9.63-1.31,16.44,5.88a25.28,25.28,0,0,1,7.06,15.18,19.17,19.17,0,0,1-6.57,14.88"/><line class="cls-2" x1="383.79" y1="666.53" x2="387.16" y2="664.53"/><path class="cls-2" d="M348.51,661.31s-1.35-13,10.28-14.71,17.06,11.18,17.06,11.18,5.32,14.77-7.13,18.57C355.41,680.41,348.62,665.51,348.51,661.31Z"/><path class="cls-2" d="M355.51,660.68a8.8,8.8,0,0,0,7.05,8.33c7.12,1.8,6.16-8.25,6.16-8.25s-1.62-5.79-7.37-6S355.51,660.68,355.51,660.68Z"/><path class="cls-2" d="M359.23,655s1.49-1.25,2.24-1.16,4.68-.87,7.46,3.54c3.63,5.75-2.08,11-2.08,11"/><polyline class="cls-2" points="351.51 650.99 352.66 651.43 357.91 654.99 358.79 654.47 355.6 649.6 353.56 648.51"/><path class="cls-2" d="M355.6,647.49l1.23.94,2.79,4.33s1.31.31,1.39-.62v0l-1-4-1-1.42"/><path class="cls-2" d="M360.79,646.37l.75,1.31,1,4.42s.87,1,1.48.25l.7-3.94-.29-1.33"/><path class="cls-2" d="M366.39,647.81l.08,1-.66,4.31s.66.89,1.25.73l2-3.19.35-1.08"/><path class="cls-2" d="M370.87,651l-.23,1-2,2.79s0,1.34,1.23,1.3l3.35-2.34"/><path class="cls-2" d="M374.49,655.74,371,657.62s-1,1.56.54,1.77l4.48-1.08"/><path class="cls-2" d="M376.49,661.24l-4.2-.23s-1.86.67-.32,1.73l5,2"/><path class="cls-2" d="M375.68,670.35l-1.21-1.59-3.6-3.06s-.77-1.69.71-1.42,5,2.82,5,2.82"/><path class="cls-2" d="M371.66,675l-.1-1.87a4,4,0,0,0-.63-1.79c-.54-.73-1.75-2.61-1.75-2.61s-.71-2.4,1.49-1.42l2.91,3.46.93,1.73"/><path class="cls-2" d="M366.43,676.7l.54-1.83a4.47,4.47,0,0,0-.1-2.42l-.73-2.58s.37-1.61,1.69-.61l1.39,2.69a4.84,4.84,0,0,1,.67,1.83l.12,1.8"/><path class="cls-2" d="M360.91,676.39l1-1.44a3.66,3.66,0,0,0,.62-2.08l.52-3.46"/><polyline class="cls-2" points="364.37 669.45 365.45 673.83 364.6 676.72"/><polyline class="cls-2" points="355.58 673.55 356.97 672.39 359.6 668.22"/><polyline class="cls-2" points="361.26 668.94 360.41 673.66 358.24 675.35"/><polyline class="cls-2" points="351.79 669.08 353.39 667.68 356.83 665.55"/><polyline class="cls-2" points="358.26 667.16 355.91 670.43 354.66 672.28"/><path class="cls-2" d="M350.74,667.14l1.27-.92a8.28,8.28,0,0,1,1.69-.89,15.29,15.29,0,0,0,2.29-1.25"/><polyline class="cls-2" points="355.58 662.41 352.72 662.64 349.41 663.66"/><polyline class="cls-2" points="348.72 661.39 351.79 660.68 355.2 660.58"/><polyline class="cls-2" points="355.58 659.2 350.91 657.74 348.81 657.64"/><polyline class="cls-2" points="349.14 655.47 351.35 655.74 355.95 657.39"/><polyline class="cls-2" points="356.6 656.24 352.85 653.26 350.54 652.72"/><path class="cls-2" d="M46.76,659.39s3.34-13.09-7.33-19.34S16.68,643,14.1,648.14s-9.29,19.57,4.25,27.33S45.68,666.89,46.76,659.39Z"/><path class="cls-2" d="M40.83,627.68s-.5,2.44-5.88,2.62-6.37-.06-7.12-2.06"/><line class="cls-2" x1="40.83" y1="628.3" x2="40.83" y2="641.43"/><path class="cls-2" d="M27.43,628.3v5.54s9.83.63,13.13,6.59"/><path class="cls-2" d="M27.22,632.05a13.19,13.19,0,0,0-9.75-.37C11.85,633.51,7.06,636,2.72,645.47a18.6,18.6,0,0,0,.88,17.25,29.92,29.92,0,0,0,10.09,9"/><path class="cls-2" d="M37.08,636.74S24,632.49,15.2,641.55s-7.5,16.94-7.5,16.94,0,6.94,4.13,11.88"/><path class="cls-2" d="M27.08,633.05s-9.63-1.31-16.44,5.88a25.32,25.32,0,0,0-7.06,15.19A19.17,19.17,0,0,0,10.14,669"/><line class="cls-2" x1="8.2" y1="662.87" x2="4.83" y2="660.87"/><path class="cls-2" d="M43.47,657.64s1.36-13-10.27-14.71-17.06,11.19-17.06,11.19-5.32,14.76,7.12,18.56C36.58,676.74,43.37,661.84,43.47,657.64Z"/><path class="cls-2" d="M36.47,657a8.78,8.78,0,0,1-7,8.33c-7.12,1.8-6.17-8.25-6.17-8.25s1.63-5.79,7.38-6S36.47,657,36.47,657Z"/><path class="cls-2" d="M32.75,651.3s-1.49-1.25-2.24-1.16-4.67-.87-7.45,3.54c-3.63,5.75,2.08,11,2.08,11"/><polyline class="cls-2" points="40.47 647.32 39.33 647.76 34.08 651.32 33.2 650.8 36.39 645.93 38.43 644.85"/><path class="cls-2" d="M36.39,643.82l-1.23.94-2.79,4.33s-1.32.31-1.39-.62v0l1-4,1-1.42"/><path class="cls-2" d="M31.2,642.7,30.45,644l-1,4.42s-.87,1-1.48.25l-.71-3.94.29-1.33"/><path class="cls-2" d="M25.6,644.14l-.09,1,.67,4.31s-.67.89-1.25.73l-2-3.19-.35-1.08"/><path class="cls-2" d="M21.12,647.37l.23,1,2,2.8s0,1.33-1.23,1.29l-3.36-2.34"/><path class="cls-2" d="M17.49,652.07,21,654s1,1.56-.55,1.77L16,654.64"/><path class="cls-2" d="M15.49,657.57l4.21-.23s1.86.67.31,1.73l-5,2"/><path class="cls-2" d="M16.31,666.68l1.2-1.59L21.12,662s.77-1.69-.71-1.41-5,2.81-5,2.81"/><path class="cls-2" d="M20.33,671.32l.1-1.87a3.89,3.89,0,0,1,.63-1.79c.54-.73,1.75-2.61,1.75-2.61s.71-2.4-1.49-1.42l-2.91,3.46-.94,1.73"/><path class="cls-2" d="M25.56,673,25,671.2a4.52,4.52,0,0,1,.11-2.42l.73-2.58s-.38-1.61-1.69-.61l-1.4,2.69a4.9,4.9,0,0,0-.66,1.84L22,671.91"/><path class="cls-2" d="M31.08,672.72l-1-1.44a3.71,3.71,0,0,1-.63-2.08L29,665.74"/><polyline class="cls-2" points="27.62 665.78 26.54 670.16 27.39 673.05"/><polyline class="cls-2" points="36.41 669.89 35.01 668.72 32.39 664.55"/><polyline class="cls-2" points="30.72 665.27 31.58 669.99 33.74 671.68"/><polyline class="cls-2" points="40.2 665.41 38.6 664.01 35.16 661.89"/><polyline class="cls-2" points="33.72 663.49 36.08 666.76 37.33 668.62"/><path class="cls-2" d="M41.24,663.47,40,662.55a8.07,8.07,0,0,0-1.68-.89,14.66,14.66,0,0,1-2.3-1.25"/><polyline class="cls-2" points="36.41 658.74 39.26 658.97 42.58 659.99"/><polyline class="cls-2" points="43.26 657.72 40.2 657.01 36.78 656.91"/><polyline class="cls-2" points="36.41 655.53 41.08 654.07 43.18 653.97"/><polyline class="cls-2" points="42.85 651.8 40.64 652.07 36.03 653.72"/><polyline class="cls-2" points="35.39 652.57 39.14 649.6 41.45 649.05"/><polyline class="cls-2" points="209.47 689.28 210.35 689.28 210.35 705.72 209.6 705.72"/><polyline class="cls-2" points="177.53 689.65 176.66 689.65 176.66 706.08 177.41 706.08"/><path class="cls-2" d="M280,580.22s-.07,2.25,5.75,2.38,5.25-2.07,5.25-2.07"/><line class="cls-2" x1="279.91" y1="580.47" x2="279.91" y2="590.22"/><path class="cls-2" d="M291.47,580.6l.19,5.93a21.3,21.3,0,0,0-5.39,5.37"/><path class="cls-2" d="M279.79,584s-3.25,2.32-4.25,5.25"/><path class="cls-2" d="M291.66,581.28l15.88,5.88s4.75,2.25,5.87,10.5"/><path class="cls-2" d="M291.66,586.53s4.28-2.81,8.47-2.15"/><path class="cls-2" d="M295.6,593.69s2.69-4,7-3.72a9,9,0,0,1,8.12,7"/><line class="cls-2" x1="297.85" y1="591.75" x2="298.1" y2="594.19"/><polyline class="cls-2" points="299.88 590.64 299.35 592 299.5 594.53"/><polyline class="cls-2" points="302.25 590.22 301.32 591.44 300.38 594.69"/><polyline class="cls-2" points="304.1 590.44 302.88 591.85 301.97 594.97"/><polyline class="cls-2" points="302.64 595.2 304.2 592.74 306.1 591.24"/><polyline class="cls-2" points="307.7 592.26 305.58 593.68 304.26 595.51"/><polyline class="cls-2" points="305.57 596.1 307.43 594.64 309.33 594.19"/><polyline class="cls-2" points="307.88 596.49 308.72 595.99 310.21 595.89"/><path class="cls-2" d="M278.51,612.81s2.75,3.12,8.42,3"/><path class="cls-2" d="M282.22,613.3s.54,1.88,4.59,2.59a18.61,18.61,0,0,0,9.87,4.29c6.08.71,8.88-3,8.88-3"/><path class="cls-2" d="M288.56,614.51s1.66,3.27,7.87,5.76"/><path class="cls-2" d="M285.77,613.86a8.33,8.33,0,0,0,1,2"/><path class="cls-2" d="M106.26,589.83c.16-2.57-1.83-7-1.83-7l.25-4.5s.5,2.37,6.17,2.08,4.62-2.49,4.62-2.49l.42,6.49a9.46,9.46,0,0,1-.63,3.69"/><path class="cls-2" d="M104.35,580.06l-9.17.87s-4.08,1.29-3.79,11.5"/><path class="cls-2" d="M99.64,590.93s0-8.08-4.46-10"/><path class="cls-2" d="M115.89,578.81l1.58-.17s4,1,4.79,7.92"/><path class="cls-2" d="M104.43,582.81a9.94,9.94,0,0,0-2.83-2.34"/><path class="cls-2" d="M97.81,591.26s-.15-4.87-3.09-6.54-3,7.63-3,7.63"/><path class="cls-2" d="M92.81,586.28l2.12,1a3.65,3.65,0,0,1,1.23,1.88c.23,1.1.44,2.33.44,2.33"/><path class="cls-2" d="M92,589.72s2.19,0,3.15,1.11l.33.83"/><path class="cls-2" d="M95.35,613.18s1.08,2.21,2.62,2.5,6.79-.54,6.79-.54a10.27,10.27,0,0,0,1.88-3.33"/><path class="cls-2" d="M101,612.38a4.06,4.06,0,0,1-2.85,3.33"/><path class="cls-2" d="M111.81,611.06a4.42,4.42,0,0,0,3,3l5.92-.48s2.83-1.88,2.67-3.84"/><path class="cls-2" d="M117.64,610.31s-.42,3.08-2.75,3.83"/><path class="cls-2" d="M55.56,390.14S64,393.81,67,405.56s11.28,22.79,11.28,22.79"/><path class="cls-2" d="M81,431.66s7.25,9.81,12.94,8.69,6.74,7.56,6.74,7.56"/><path class="cls-2" d="M58.06,400.89s3.25,38.25,35.41,46.83"/><path class="cls-2" d="M94.14,440.47l-2.5,3.67,1.58,3.33s3.75,9.92-.83,14l1.5,2.84"/><path class="cls-2" d="M39.06,448.72a6.48,6.48,0,0,0,5,4c3.66.42,48.33,8.75,48.33,8.75"/><path class="cls-2" d="M38.39,407.89s-.17,5.58,0,9.58,1.33,19.25,1.33,19.25.42,12.67,9.84,14.5S93.81,459,93.81,459"/><polyline class="cls-2" points="83.47 228.35 133.97 250.22 176.47 229.64"/><polyline class="cls-2" points="99.1 261.19 136.6 275.35 175.85 255.72"/><polyline class="cls-2" points="111.61 286.3 117.02 288.56 141.97 298.97 180.85 278.6"/><line class="cls-2" x1="139.31" y1="320.97" x2="117.72" y2="289.22"/><line class="cls-2" x1="152.31" y1="322.14" x2="134.7" y2="295.94"/><line class="cls-2" x1="165.8" y1="323.91" x2="147.19" y2="296.24"/><line class="cls-2" x1="178.56" y1="325.47" x2="156.5" y2="291.56"/><line class="cls-2" x1="188.47" y1="323.91" x2="165.22" y2="286.56"/><line class="cls-2" x1="173.97" y1="282.56" x2="188.14" y2="304.56"/><line class="cls-2" x1="121.72" y1="303.56" x2="123.84" y2="291.4"/><line class="cls-2" x1="131.72" y1="320.31" x2="135.31" y2="297.06"/><line class="cls-2" x1="144.04" y1="321.47" x2="147.19" y2="296.72"/><line class="cls-2" x1="155.79" y1="322.6" x2="160.16" y2="289.51"/><line class="cls-2" x1="166.54" y1="323.78" x2="172.72" y2="283.03"/><line class="cls-2" x1="178.35" y1="324.85" x2="183.1" y2="287.41"/><path class="cls-2" d="M197.22,478.85s7.5-.25,11.88,9.5,10.79,12,10.79,12a11.43,11.43,0,0,0,10-1.8l4.46-9.7"/><line class="cls-2" x1="210.1" y1="491.28" x2="202.41" y2="492.72"/><path class="cls-2" d="M177.14,511.39,209,508s8.75-9.87-2.81-15.5"/><path class="cls-2" d="M180.44,528.2a8.4,8.4,0,0,0,3.16-4.6c.62-2.88,29.62-17,29.62-17s6.5-3.63,9.25-3.63,15.88-3.12,15.88-3.12l55.31-8.57"/><polyline class="cls-2" points="267.85 505.04 231.03 511.16 203.97 523.03 206.53 527.41 213.16 526.35"/><line class="cls-2" x1="231.41" y1="510.97" x2="238.54" y2="500.16"/><path class="cls-2" d="M214.66,530l13.15-4.72L239.6,521s9-2.43,11.5-2.68,3.69-.38,3.94.12"/><path class="cls-2" d="M228.1,525.53s16.19-.31,19.06-2.56"/><polyline class="cls-2" points="206.03 526.22 231.85 514.6 266.72 508.97"/><path class="cls-2" d="M295.31,481.56s17.66-2.67,30.08-3c0,0,4.08-.5,5.42,1.16,0,0,8.16,9.5,9,17.42,0,0,1.25,3.17-1.25,4.83s-21.84,0-36.34-8.83L288.81,495"/><path class="cls-2" d="M331.64,481.22s-26.92,6.42-28.58,8.09-2.67,1.91-1.34,3.58"/><path class="cls-2" d="M125.81,505l18.16,20s1.5,2.16,6,1.41,13.17-3.75,16.25-7.33"/><path class="cls-2" d="M128.64,507.56s33.75-.59,38.33.91c0,0,2.17.17,2.17.92a26.17,26.17,0,0,1-.5,3.08"/><path class="cls-2" d="M295.81,313.78s52.91-1.14,73.91,2.44c0,0,8.84,5.5,13.5,5.59s15.5-.59,15.5-.59"/><line class="cls-2" x1="388.37" y1="315.73" x2="369.72" y2="316.22"/><path class="cls-2" d="M287,316.6l82.25,1.87a27.06,27.06,0,0,0,10.25,2.69"/><path class="cls-2" d="M59.66,389.1s7.56,2.06,10.38,8.37S77.47,417,77.47,417h3.25l2.44,3.75"/><path class="cls-2" d="M182.74,535.51s14.65,5.64,28.11,0"/><path class="cls-2" d="M182.74,535.56s16,5.74,28.18,0"/><path class="cls-2" d="M64.81,328.64l71.08,5.75a135.49,135.49,0,0,0,15.25.5c7.5-.25,30.5-1.08,30.5-1.08s4.9-.4,2.45-6.12"/><path class="cls-2" d="M75,321.85l68.53,5s8.81.33,14.89.25,22.08-1,22.08-1"/><polygon class="cls-1" points="63.76 126.35 86.97 131.78 86.78 142.53 64.06 137.04 63.76 126.35"/><path class="cls-1" d="M53.43,142.53l5.08.44a3.2,3.2,0,0,1,3.42,2.17c1,2.58,6.79,12.25,6.79,12.25l35.63,113.85,16.79,31.15-46.08-146-6.84-12.92s0-2-4.46-2.66l-5.8.68Z"/><polygon class="cls-1" points="187.97 323.91 175.47 184.89 178.89 184.97 181.53 183.85 183.74 183.28 195.1 323.6 187.97 323.91"/></g></g></svg>