<?xml version="1.0" encoding="utf-8"?>
<!-- Generator: Adobe Illustrator 23.0.1, SVG Export Plug-In . SVG Version: 6.00 Build 0)  -->
<svg version="1.1" id="Camada_1" xmlns="http://www.w3.org/2000/svg" xmlns:xlink="http://www.w3.org/1999/xlink" x="0px" y="0px"
	 viewBox="0 0 600 600" style="enable-background:new 0 0 600 600;" xml:space="preserve">
<style type="text/css">
	.st0{fill:#FFFFFF;stroke:#030304;stroke-width:0.8328;stroke-miterlimit:10;}
	.st1{fill:none;stroke:#030304;stroke-width:0.8328;stroke-miterlimit:10;}
	.st2{fill:none;stroke:#030304;stroke-width:0.4164;stroke-miterlimit:10;}
	.st3{fill:none;stroke:#020203;stroke-miterlimit:10;}
	.st4{fill:#FFFFFF;stroke:#020203;stroke-miterlimit:10;}
	.st5{fill:none;stroke:#020203;stroke-width:0.75;stroke-miterlimit:10;}
	.st6{fill:none;stroke:#020203;stroke-width:0.5;stroke-miterlimit:10;}
	.st7{fill:none;stroke:#020203;stroke-width:0.25;stroke-miterlimit:10;}
	.st8{fill:#FFFFFF;stroke:#020203;stroke-width:0.75;stroke-miterlimit:10;}
	.st9{fill:#FFFFFF;}
	.st10{fill:none;stroke:#E52522;stroke-width:1.5;stroke-miterlimit:10;}
	.st11{fill:#E52522;}
	.st12{fill:#FFFFFF;stroke:#020203;stroke-width:0.5;stroke-miterlimit:10;}
	.st13{fill:#E7E6E6;}
	.st14{fill:#FFFFFF;stroke:#020203;stroke-linejoin:round;}
	.st15{fill:none;stroke:#020203;stroke-linejoin:round;}
	.st16{fill:#E52620;}
	.st17{font-family:'Roboto-Medium';}
	.st18{font-size:11.8508px;}
	.st19{fill:none;stroke:#E52624;stroke-width:1.5;stroke-miterlimit:10;}
	.st20{fill:#E52624;}
	.st21{clip-path:url(#SVGID_2_);}
	.st22{fill:none;stroke:#020203;stroke-width:0.5461;stroke-miterlimit:10;}
	.st23{fill:none;stroke:#E52624;stroke-width:1.5296;stroke-miterlimit:10;}
	.st24{fill:none;stroke:#E52624;stroke-width:1.8398;stroke-miterlimit:10;}
	.st25{fill:none;stroke:#E52624;stroke-width:1.4398;stroke-miterlimit:10;}
	.st26{fill:none;stroke:#E52624;stroke-width:1.5364;stroke-miterlimit:10;}
	.st27{fill:none;stroke:#E52624;stroke-width:1.4292;stroke-miterlimit:10;}
	.st28{fill:none;stroke:#E52624;stroke-width:1.5549;stroke-miterlimit:10;}
	.st29{clip-path:url(#SVGID_4_);}
</style>
<g>
	<g id="frente_2_">
		<path class="st8" d="M196.5,372.2h-7c0,0-0.4,1.4-1.6,1.4c-1.2,0-17.6,0.4-17.6,0.4s-2.6-0.1-2.5-2.2c0.1-2.1,1.4-18.7,1.4-18.7
			c0.5-0.5,1.1-0.9,1.8-1c0.1-1,0.1-2.9,0.1-2.9l-0.8-0.6l-2.9-69.5c0.1-0.9-0.3-1.9-1-2.5c-1.2-1.2-7.5-8-7.5-8s-8.8-0.4-9.8-0.4
			c-1,0-2.2-0.1-2.1-1.2s0-3.5,0-3.5c0.4-1.2,1.2-2.3,2.3-3c2-1.4,8.3-5.8,8.3-5.8s3.5-2,9.5-2s30.3,0.2,30.3,0.2
			c0.4-0.1,0.8,0.2,0.9,0.6c0.3,0.7,0.4,1.1,0.4,1.1l0.9,0.2l0.4,7.8l-7.7,3.5l-6.8,9.9c-0.6,1-1,2.2-1.1,3.4
			c-0.1,1.9-0.6,23.9-0.6,23.9l-0.5,31.6l-0.2,13l-1,0.7v2.8c1.5,0.4,1.9,0.7,2.1,1c0.5,13.7,1.1,12.5,1.1,12.5l5.5,0.3v1.3h2.6"/>
		<path class="st8" d="M406.4,372.2h7c0,0,0.4,1.4,1.6,1.4c1.2,0,17.6,0.4,17.6,0.4s2.6-0.1,2.5-2.2c-0.1-2.1-1.4-18.7-1.4-18.7
			c-0.5-0.5-1.1-0.9-1.8-1c-0.1-1-0.1-2.9-0.1-2.9l0.8-0.6l2.9-69.5c-0.1-0.9,0.3-1.9,1-2.5c1.2-1.2,7.5-8,7.5-8s8.8-0.4,9.8-0.4
			c1,0,2.2-0.1,2.1-1.2s0-3.5,0-3.5c-0.4-1.2-1.2-2.3-2.3-3c-2-1.4-8.3-5.8-8.3-5.8s-3.5-2-9.5-2s-30.3,0.2-30.3,0.2
			c-0.4-0.1-0.8,0.2-0.9,0.6c-0.3,0.7-0.4,1.1-0.4,1.1l-0.9,0.2l-0.4,7.8l7.7,3.5l6.8,9.9c0.7,1,1,2.2,1.1,3.4
			c0.1,1.9,0.6,23.9,0.6,23.9l0.5,31.6l0.2,13l0.9,0.7v2.8c-1.5,0.4-1.9,0.7-2.1,1c-0.5,13.7-1.1,12.5-1.1,12.5l-5.5,0.3v1.4h-2.6"
			/>
		<polygon class="st9" points="421,519.6 421,525.6 431.6,525 431.3,519.7 		"/>
		<path class="st9" d="M370.1,509.8c0,0,3.2,1.8,3.4,2.1s7.7,1.2,7.7,1.2s14.9-7.1,9.8-19.3c-0.8-1.8-1.2-4.9-3-5.8
			c-5.5-2.9-14.5-5.9-14.5-5.9s-5.2-2.3-8.6-1c-0.4,0.2,0.3,3.2-0.1,3.3c-1.6,0.7-2.8,2.1-3.3,3.8c-1.6,4.2-2.5,8,2.5,19.2
			C364.5,508.9,367.9,508.8,370.1,509.8z"/>
		<path class="st9" d="M219,507.5l1,1.4c0,0,1.2,0.4,1.7,0.5c0.5,0.1,4.4-0.4,4.4-0.4l0.4-0.2l1.7-3.5l3.7-0.9l0.2,1.9l0.8,1.1
			l1.3,0.7l4.5-0.5l1.6-1.2l0.9-1.7l-1.4-19.1l-0.7-3.2l-2.5-2.2l-1.9-0.1l-0.7-1.1c0,0-6.5-0.6-6.9-0.6c-0.4,0-0.8,0.1-1.2,0.3
			l0.3,2.6l-7.9,0.7l-1.9,2.7l-0.7,3v4.3L219,507.5z"/>
		<path class="st9" d="M148.3,548.7l5.5,4.6l5.3,4.1c0,0,4.9,1.4,8.3,0.5c2.1-0.6,4.1-1.6,5.9-3l4.7-5.5l2.5-4.8l0.5-4.1l-0.8-5
			l-1.4-2.8l-2-2.4l-0.9-1.7v-11.3h-10.4l-0.3,4.8l-1.9-0.2l-3.4-0.2l-4.1,1.1l-5.1,3.1l-3.3,4c0,0-2.8,5-3.2,9
			c-0.4,4,2.9,8.6,2.9,8.6L148.3,548.7z"/>
		<path class="st3" d="M154.4,553.7c-3.2-1.7-5.9-4.2-8-7.1c-2.5-4.2-2.7-9.2-0.7-13.6c3.4-7.5,7.2-9.5,11.7-10.9
			c2.5-0.9,5.3-0.8,7.7,0.3"/>
		<path class="st4" d="M292.1,583.7c0,0,0.2,7.4,0,8c-0.2,0.4-0.5,0.6-0.9,0.7h-5.2c-1.8,0-1.8-1.5-1.8-1.5s0.1-30.5,0.1-32.6
			s1.7-1.8,1.7-1.8h5.2l11-0.1l4.9,0.1c0,0,1.9-0.1,1.9,1.5s0.1,32.8,0.1,32.8s-0.1,1.4-0.9,1.4c-0.8,0-5.8,0.1-5.8,0.1
			s-1.4-0.9-1.3-4.4c0.1-1.3,0.1-2.6,0-3.8"/>
		<polyline class="st4" points="291.1,550.5 291.1,556.4 291.9,557.1 292.1,583.7 301.1,583.7 301.1,556.8 302.1,556.3 302.2,550.5 
					"/>
		<path class="st4" d="M431.8,525.3c2.4-1.1,5.2-1.2,7.7-0.3c4.4,1.4,8.2,3.4,11.7,10.9c2,4.4,1.8,9.5-0.7,13.6
			c-2.1,2.9-4.8,5.4-8,7.1"/>
		<path class="st4" d="M445.3,554.4c3.4-3,5.3-7.3,5.2-11.7c-0.4-4.5-2.4-8.7-5.6-12c-5.4-5.7-13-4.6-13-4.6l-6.1,0.6l-2.2,1.3
			c0,0,1.1,0.5,1.1,0.5"/>
		<path class="st4" d="M443.9,555.6c3.3-3.9,3.3-9.4,3.3-9.4s1-6.2-5.9-13.4S424,529,424,529l-2.5,2.7"/>
		<path class="st4" d="M313.1,473.2l37.8-5.3c0.5-0.7,1.2-1.2,2-1.4c1.1-0.2,14.7-2,14.7-2h4.8c0.9,0.3,1.6,0.9,1.9,1.8l1,1.7
			l1.2,2.5l0.6,10.1c0,0-3.2,1.4-10,0.9c0,0-4.1-0.4-4.9-1.7l-18.2,5.1l53.6,11.7l1.1-0.7l32.6,7.2l0.3,1.1c0.9,0.1,1.8,0.7,2.1,1.6
			l0.9,15l-6,1.8l-7.9-1.2c0,0-2.3-0.5-3.1-2.3v-3.7l-92-14.5c0,0-15.3-1.4-17.5,3.8l-2.9,44.7l-8.4,1.6l-9.6-1.8l0.6-44.7
			c0,0,0.9-5.1-16-4.3l-93.7,12.2v3.2c0,0,0.1,1.8-3.1,2.7c-2.7,0.6-5.4,1-8.2,1.1l-5.8-2.2l1.1-13.6c0,0,0-2.3,2.1-2.8l0.8-1.2
			l33.2-6.3l0.8,0.9l54.8-10.6l-16.8-5.4c0,0-1.3,2.1-9.9,1.4c0,0-4.4-0.5-5.1-1.4l0.7-9.5l3-6c0,0,1-1,3.3-0.9l15.7,2.4
			c1.5,0.4,2.8,1.1,4,2l35.4,6.3"/>
		<path class="st4" d="M304.3,444.5c2.1-0.1,4.1,0.4,5.9,1.5l0.3,3.8c0.4,0.2,0.7,0.5,0.8,0.9l0.2,2.6c0.4,0.3,0.8,0.6,1.1,1.1
			l0.5,21.8c0.9,1.3,0.5,2.1,0.5,2.1c-2.6,3.6-14.2,3.6-14.2,3.6c-14.1-0.1-15.2-3.6-15.3-4.6c-0.1-0.6,0.2-1.2,0.7-1.4V473
			c0,0,0.4-17.6,0.5-18.5c0-0.8,1.1-1,1.1-1l0.3-2.9c0-0.5,0.9-0.6,0.9-0.6l0.3-3.7c0.3-1,4.8-1.7,4.8-1.7v1c3.8,1,7.8,1,11.6,0
			V444.5z"/>
		<path class="st3" d="M287.1,450.5c0,0,13.6,5.7,23.8,0"/>
		<path class="st3" d="M285.9,454c0,0,0.8,4.3,13.9,4.1c13.1-0.2,12.3-4.4,12.3-4.4"/>
		<path class="st3" d="M224.4,466.8c0,0-0.1,0.8,0.4,0.9s14,3.3,14,3.3c0.5,0,1-0.1,1.3-0.4c0.7-1.2,1.4-2.3,1.9-3.6
			c0,0,0.8-1.5,1.8-1.2c0,0,3.6,0.4,5,0.5"/>
		<path class="st3" d="M351.1,468.1c0.6,0,1.2,0,1.8-0.2c1-0.3,3.2-1,4.3,0.4c0.7,0.8,1.1,1.8,1.3,2.8c0,1,0.8,1.7,1.8,1.7
			c0.1,0,0.1,0,0.2,0c1.9-0.3,14.3-2.5,14.3-2.5s0.9-0.4,0.8-1.2"/>
		<path class="st3" d="M432.1,504.7c0,0-1.7,0.1-3.2,3.4c-0.4,1.1-1.5,1.8-2.7,1.6l-30.9-6.4c0,0-1.4,0-1.2-1.7c0,0,0.3-2.2,1-2.5
			c0.9-0.6,1.8-1.4,2.6-2.2"/>
		<path class="st3" d="M289.7,535.1l3.3-2.1c0.5-0.5,1.3-0.7,2-0.5c1.4,0.1,3.4,0.1,3.4,0.1c0.9-0.1,1.8,0.2,2.5,0.7l3.3,2.4
			l1.3-14.4l-0.3-1.4c0,0-1.4-2.6-3.8-3.1l-6.4-0.2c-1.1,0-2.2,0.4-3.1,1.1c-0.8,0.6-1.5,1.4-2.2,2.1l-0.1,15.7L289.7,535.1z"/>
		<path class="st3" d="M164.5,501.1c0,0,1.9,0.8,3.2,4c0.6,1.2,1.9,1.8,3.2,1.4c2.5-0.5,30.5-4.9,30.5-4.9s1.2-0.5,1-1.4
			s-0.3-2.5-0.3-2.5l-1.8-2.2l-1.1-1"/>
		<polyline class="st3" points="163,501.9 168,507.8 167.4,519.6 		"/>
		<path class="st6" d="M168.3,507.8l100.2-15.7c0,0,13.8-2,20.5,3.4l-0.9,42.1"/>
		<line class="st6" x1="303" y1="481.7" x2="301.5" y2="516.6"/>
		<line class="st6" x1="294.3" y1="481.7" x2="294.3" y2="516.4"/>
		<polyline class="st3" points="433.5,505.3 428.1,511.9 428.3,522.4 		"/>
		<path class="st6" d="M427.6,511.9l-102.1-19.8c0,0-14.2-2.9-17.6,3.2l-3.4,40.3"/>
		<line class="st6" x1="395.1" y1="499.1" x2="311.3" y2="480.1"/>
		<line class="st3" x1="344.1" y1="485" x2="313.3" y2="478"/>
		<line class="st6" x1="313.3" y1="476.1" x2="357.5" y2="468.6"/>
		<line class="st3" x1="327.4" y1="481" x2="375.8" y2="470.7"/>
		<path class="st3" d="M362.5,479.9l9.1-2.6c0,0,1.6-0.6,2.3,0.3"/>
		<line class="st3" x1="254.2" y1="483.7" x2="283.7" y2="477.7"/>
		<line class="st6" x1="269.2" y1="480.3" x2="223.4" y2="468.8"/>
		<path class="st3" d="M237.2,478.4l-9.3-3.1c0,0-1.8-0.5-2.3,0.1"/>
		<path class="st3" d="M291.3,551.2c0,0,6,3.5,10.8,0"/>
		<path class="st4" d="M416.3,546.9c0,0-2.6-10.3,5.8-15.3c8.4-4.9,18,2.3,20,6.4c2,4.1,7.3,15.5-3.4,21.6
			C428.1,565.7,417.2,552.8,416.3,546.9z"/>
		<path class="st14" d="M421,521.8c0,0,0.4,1.9,4.6,2.1c4.3,0.2,5-0.1,5.6-1.6l0.3,0.1v4.4c0,0-6.6,0.2-8.6,3.1l-2,2.5V521.8z"/>
		<line class="st3" x1="446.8" y1="549.6" x2="449.5" y2="548"/>
		<path class="st3" d="M418.9,545.5c0,0-1.1-10.3,8.1-11.6s13.5,8.8,13.5,8.8s4.2,11.7-5.6,14.7C424.4,560.6,419,548.8,418.9,545.5z
			"/>
		<path class="st3" d="M424.5,545c0.1,3.2,2.4,5.9,5.6,6.6c5.6,1.4,4.9-6.5,4.9-6.5s-1.3-4.6-5.8-4.7S424.5,545,424.5,545z"/>
		<path class="st3" d="M427.4,540.5c0,0,1.2-1,1.8-0.9c0.6,0.1,3.7-0.7,5.9,2.8c2.9,4.5-1.6,8.7-1.6,8.7"/>
		<polyline class="st6" points="421.3,537.3 422.2,537.7 426.4,540.5 427.1,540.1 424.5,536.2 422.9,535.4 		"/>
		<path class="st6" d="M424.5,534.6l1,0.7l2.2,3.4c0,0,1,0.2,1.1-0.5l0,0l-0.8-3.2l-0.8-1.1"/>
		<path class="st6" d="M428.6,533.7l0.6,1l0.8,3.5c0,0,0.7,0.8,1.2,0.2l0.6-3.1l-0.2-1"/>
		<path class="st6" d="M433.1,534.8l0.1,0.8l-0.5,3.4c0,0,0.5,0.7,1,0.6l1.6-2.5l0.3-0.9"/>
		<path class="st6" d="M436.6,537.4l-0.2,0.8l-1.6,2.2c0,0,0,1.1,1,1l2.6-1.8"/>
		<path class="st6" d="M439.5,541.1l-2.8,1.5c0,0-0.8,1.2,0.4,1.4l3.5-0.9"/>
		<path class="st6" d="M441,545.4l-3.3-0.2c0,0-1.5,0.5-0.3,1.4l4,1.6"/>
		<path class="st6" d="M440.4,552.6l-0.9-1.2l-2.8-2.4c0,0-0.6-1.3,0.6-1.1c1.2,0.2,4,2.2,4,2.2"/>
		<path class="st6" d="M437.2,556.3l-0.1-1.5c-0.1-0.5-0.2-1-0.5-1.4c-0.4-0.6-1.4-2.1-1.4-2.1s-0.6-1.9,1.2-1.1l2.3,2.7l0.7,1.4"/>
		<path class="st6" d="M433.1,557.6l0.4-1.4c0.2-0.6,0.1-1.3-0.1-1.9l-0.6-2c0,0,0.3-1.3,1.3-0.5l1.1,2.1c0.3,0.4,0.5,0.9,0.5,1.5
			l0.1,1.4"/>
		<path class="st6" d="M428.7,557.4l0.8-1.1c0.3-0.5,0.5-1.1,0.5-1.6l0.4-2.7"/>
		<polyline class="st6" points="431.5,551.9 432.3,555.4 431.6,557.7 		"/>
		<polyline class="st6" points="424.5,555.2 425.6,554.2 427.7,550.9 		"/>
		<polyline class="st6" points="429,551.5 428.3,555.2 426.6,556.6 		"/>
		<polyline class="st6" points="421.5,551.6 422.8,550.5 425.5,548.8 		"/>
		<polyline class="st6" points="426.6,550.1 424.8,552.7 423.8,554.2 		"/>
		<path class="st6" d="M420.7,550.1l1-0.7c0.4-0.3,0.9-0.5,1.3-0.7c0.6-0.3,1.2-0.6,1.8-1"/>
		<polyline class="st6" points="424.5,546.4 422.3,546.5 419.6,547.3 		"/>
		<polyline class="st6" points="419.1,545.5 421.5,545 424.2,544.9 		"/>
		<polyline class="st6" points="424.5,543.8 420.8,542.7 419.2,542.6 		"/>
		<polyline class="st6" points="419.4,540.9 421.2,541.1 424.8,542.4 		"/>
		<polyline class="st6" points="425.3,541.5 422.4,539.1 420.5,538.7 		"/>
		<path class="st3" d="M180.5,544c0,0,2.6-10.3-5.8-15.2c-8.4-4.9-18,2.3-20,6.4c-2,4.1-7.3,15.5,3.4,21.6
			C168.8,562.8,179.7,549.9,180.5,544z"/>
		<path class="st3" d="M175.8,518.9c0,0-0.4,1.9-4.6,2.1c-4.3,0.2-5-0.1-5.6-1.6"/>
		<line class="st3" x1="175.8" y1="519.4" x2="175.8" y2="529.8"/>
		<path class="st3" d="M175.6,529c-2.6-4.7-10.4-5.2-10.4-5.2v-4.4"/>
		<path class="st3" d="M172.9,526.1c0,0-10.4-3.4-17.3,3.8c-6.9,7.2-5.9,13.4-5.9,13.4s0,5.5,3.3,9.4"/>
		<path class="st3" d="M165,523.2c0,0-7.6-1-13,4.6c-3.2,3.2-5.1,7.5-5.6,12c-0.1,4.5,1.8,8.8,5.2,11.8"/>
		<line class="st3" x1="150.1" y1="546.7" x2="147.4" y2="545.1"/>
		<path class="st3" d="M178,542.6c0,0,1.1-10.3-8.1-11.6c-9.2-1.4-13.5,8.8-13.5,8.8s-4.2,11.7,5.6,14.7
			C172.5,557.7,177.9,545.9,178,542.6z"/>
		<path class="st3" d="M172.4,542.1c-0.1,3.2-2.4,5.9-5.5,6.6c-5.6,1.4-4.9-6.5-4.9-6.5s1.3-4.6,5.8-4.7
			C172.4,537.2,172.4,542.1,172.4,542.1z"/>
		<path class="st3" d="M169.5,537.6c0,0-1.2-1-1.8-0.9c-0.6,0-3.7-0.7-5.9,2.8c-2.9,4.5,1.6,8.7,1.6,8.7"/>
		<polyline class="st6" points="175.6,534.4 174.7,534.8 170.5,537.6 169.8,537.2 172.3,533.3 174,532.5 		"/>
		<path class="st6" d="M172.3,531.7l-1,0.7l-2.2,3.4c0,0-1,0.2-1.1-0.5l0,0l0.8-3.2l0.8-1.1"/>
		<path class="st6" d="M168.2,530.8l-0.6,1l-0.8,3.5c0,0-0.7,0.8-1.2,0.2l-0.6-3.1l0.2-1.1"/>
		<path class="st6" d="M163.8,531.9l-0.1,0.8l0.5,3.4c0,0-0.5,0.7-1,0.6l-1.6-2.5l-0.3-0.9"/>
		<path class="st6" d="M160.3,534.5l0.2,0.8l1.6,2.2c0,0,0,1.1-1,1l-2.7-1.9"/>
		<path class="st6" d="M157.4,538.2l2.8,1.5c0,0,0.8,1.2-0.4,1.4l-3.5-0.9"/>
		<path class="st6" d="M155.8,542.5l3.3-0.2c0,0,1.5,0.5,0.2,1.4l-4,1.6"/>
		<path class="st6" d="M156.5,549.7l0.9-1.3l2.9-2.4c0,0,0.6-1.3-0.6-1.1s-4,2.2-4,2.2"/>
		<path class="st6" d="M159.7,553.4l0.1-1.5c0-0.5,0.2-1,0.5-1.4c0.4-0.6,1.4-2.1,1.4-2.1s0.6-1.9-1.2-1.1l-2.3,2.7l-0.7,1.4"/>
		<path class="st6" d="M163.8,554.8l-0.4-1.5c-0.1-0.6-0.1-1.3,0.1-1.9l0.6-2c0,0-0.3-1.3-1.3-0.5l-1.1,2.1
			c-0.3,0.4-0.4,0.9-0.5,1.4l-0.1,1.4"/>
		<path class="st6" d="M168.1,554.5l-0.8-1.1c-0.3-0.5-0.5-1.1-0.5-1.7l-0.4-2.7"/>
		<polyline class="st6" points="165.4,549 164.6,552.5 165.2,554.8 		"/>
		<polyline class="st6" points="172.4,552.3 171.3,551.3 169.2,548 		"/>
		<polyline class="st6" points="167.9,548.6 168.5,552.3 170.2,553.7 		"/>
		<polyline class="st6" points="175.4,548.7 174.1,547.6 171.4,545.9 		"/>
		<polyline class="st6" points="170.2,547.2 172.1,549.8 173.1,551.3 		"/>
		<path class="st6" d="M176.2,547.2l-1-0.7c-0.4-0.3-0.9-0.5-1.3-0.7c-0.6-0.3-1.2-0.6-1.8-1"/>
		<polyline class="st6" points="172.4,543.5 174.6,543.6 177.2,544.4 		"/>
		<polyline class="st6" points="177.8,542.6 175.4,542.1 172.6,542 		"/>
		<polyline class="st6" points="172.4,540.9 176,539.8 177.7,539.7 		"/>
		<polyline class="st6" points="177.4,538 175.7,538.2 172.1,539.5 		"/>
		<polyline class="st6" points="171.6,538.6 174.5,536.2 176.3,535.8 		"/>
		<polyline class="st3" points="309.1,567.6 309.8,567.6 309.8,580.6 309.2,580.6 		"/>
		<polyline class="st3" points="283.8,567.9 283.2,567.9 283.2,580.9 283.8,580.9 		"/>
		<path class="st3" d="M364.8,481.4c0,0-0.1,1.8,4.5,1.9c4.6,0.1,4.1-1.6,4.1-1.6"/>
		<line class="st3" x1="364.7" y1="481.6" x2="364.7" y2="489.3"/>
		<path class="st3" d="M373.9,481.7l0.2,4.7c-1.7,1.1-3.1,2.6-4.3,4.2"/>
		<path class="st3" d="M364.6,484.5c0,0-2.6,1.8-3.4,4.1"/>
		<path class="st3" d="M374,482.3l12.5,4.6c0,0,3.8,1.8,4.6,8.3"/>
		<path class="st3" d="M374,486.4c0,0,3.4-2.2,6.7-1.7"/>
		<path class="st3" d="M377.1,492.1c0,0,2.1-3.2,5.5-2.9c3.1,0.2,5.7,2.5,6.4,5.5"/>
		<line class="st3" x1="378.9" y1="490.5" x2="379.1" y2="492.5"/>
		<polyline class="st3" points="380.5,489.7 380.1,490.7 380.2,492.7 		"/>
		<polyline class="st3" points="382.4,489.3 381.7,490.3 380.9,492.8 		"/>
		<polyline class="st3" points="383.8,489.5 382.9,490.6 382.2,493.1 		"/>
		<polyline class="st3" points="382.7,493.3 383.9,491.3 385.4,490.1 		"/>
		<polyline class="st3" points="386.7,490.9 385,492.1 384,493.5 		"/>
		<polyline class="st3" points="385,494 386.5,492.8 388,492.5 		"/>
		<polyline class="st3" points="386.8,494.3 387.5,493.9 388.7,493.8 		"/>
		<path class="st3" d="M363.6,507.2c0,0,2.2,2.5,6.7,2.4"/>
		<path class="st3" d="M366.6,507.6c0,0,0.4,1.5,3.6,2c2.2,1.9,4.9,3.1,7.8,3.4c4.8,0.6,7-2.4,7-2.4"/>
		<path class="st3" d="M371.6,508.5c0,0,1.3,2.6,6.2,4.5"/>
		<path class="st3" d="M369.4,508c0.2,0.6,0.5,1.1,0.8,1.6"/>
		<path class="st15" d="M227.5,489c0.1-2-1.4-5.5-1.4-5.5l0.2-3.6c0,0,0.4,1.9,4.9,1.6c4.5-0.2,3.7-2,3.7-2l0.3,5.1
			c0,1-0.1,2-0.5,2.9"/>
		<path class="st3" d="M226,481.3l-7.2,0.7c0,0-3.2,1-3,9.1"/>
		<path class="st3" d="M222.3,489.9c0,0,0-6.4-3.5-7.9"/>
		<path class="st3" d="M240.2,486.4c-0.6-5.4-3.8-6.3-3.8-6.3l-1.2,0.1"/>
		<path class="st3" d="M226.1,483.5c-0.6-0.7-1.4-1.4-2.2-1.8"/>
		<path class="st3" d="M220.9,490.1c0,0-0.1-3.9-2.4-5.2c-2.3-1.3-2.4,6-2.4,6"/>
		<path class="st3" d="M216.9,486.2l1.7,0.8c0.5,0.4,0.8,0.9,1,1.4c0.2,0.9,0.3,1.8,0.3,1.8"/>
		<path class="st3" d="M216.3,488.9c0,0,1.7,0,2.5,0.9l0.3,0.7"/>
		<path class="st3" d="M227.8,506.4c-0.3,1-0.8,1.9-1.5,2.6c0,0-4.1,0.7-5.4,0.4c-1.2-0.2-2.1-2-2.1-2"/>
		<path class="st3" d="M223.4,506.8c-0.2,1.2-1.1,2.3-2.3,2.6"/>
		<path class="st3" d="M231.9,505.8c0.3,1.1,1.2,2,2.4,2.4l4.7-0.4c0,0,2.2-1.5,2.1-3"/>
		<path class="st3" d="M236.5,505.2c0,0-0.4,2.4-2.3,3"/>
		<path class="st3" d="M288,446.1c0,0,11.6,4.4,22.2,0"/>
		<path class="st3" d="M288,446.1c0,0,12.6,4.5,22.3,0"/>
		<path class="st4" d="M338.3,387c1,1.3,0.7,5.5,0.7,5.5s71.1,3.9,72.5,4.1c1.5,0.2,1.5,1.7,1.6,2.7c0.4,6.2-2.4,14.4-3.5,16.1
			c-0.8,1-2,1.6-3.3,1.5c0,0-0.9,0-6-0.3c-17.2-2.4-25.3-11.6-25.3-11.6l-45.4-0.6V403l-12,13l-3.9,2.7c-0.1,1-0.2,2-0.4,3
			c-0.2,0.5-1.3,1-1.3,1l-1.4,24l-3.8,2.3c-5.2,1-10.5,1-15.7,0l-3.6-2.7c0,0-0.9-22.1-1-23.7c-0.8-0.5-1.4-1.4-1.6-2.4l-2.3-4.5
			c0,0-12.8-12.2-13.6-12.8c-0.1,0.9-0.7,1-0.7,1l-44.5-2l-3.2,2.2c-8.6,4.9-18.4,7.2-28.2,6.7c-3.6,0-3.7-1.5-4.3-2.6
			c-2.8-8.8-1.5-12-1.3-14.8c0.2-2.8,2.9-2.3,2.9-2.3h69.5c-0.1-1.5-0.1-3.1,0.3-4.6"/>
		<path class="st5" d="M186.9,393.5c0,0,22.6,1.8,37.4,5.4c1,0.3,1.8,1.1-0.4,3"/>
		<path class="st5" d="M413.2,399.3c0,0-21.3,0.2-36.3,2.5c-2.9,0.3-4,1.3-2.1,3.3"/>
		<path class="st6" d="M259.3,391.2c0,0,0.7,4,1.7,4.2c0-1.1-0.5-8.8-0.5-8.8"/>
		<path class="st6" d="M262.1,386.6l0.3,9.5c0,0,0.3,2.2,0.6,2.6"/>
		<path class="st6" d="M265.3,386.7l0.5,11.8l-3.8,0.1c0,0-0.7,0.2-0.8-1c0-0.8-0.1-1.5-0.3-2.3"/>
		<path class="st5" d="M339.1,391.7c0,0-0.7,4-1.9,4.2c0-1.1,0.5-8.8,0.5-8.8"/>
		<path class="st5" d="M336,387.1l-0.4,9.5c0,0-0.3,2.2-0.7,2.6"/>
		<path class="st5" d="M332.4,387.2l-0.6,11.8l4.3,0.2c0,0,0.8,0.2,0.9-1c0-0.8,0.1-1.5,0.3-2.3"/>
		<path class="st3" d="M269.1,403c0,0-2.9-2.8-3.2-4.4"/>
		<path class="st5" d="M265.8,395.9c0,0,0.5,3,1.8,4c1.3,1,10.4,8.5,10.4,8.5l1.6,4.4"/>
		<line class="st6" x1="265.8" y1="393.2" x2="331.8" y2="393.9"/>
		<line class="st6" x1="266.6" y1="398.7" x2="331.8" y2="398.7"/>
		<line class="st6" x1="278" y1="408.4" x2="320.6" y2="408.4"/>
		<line class="st5" x1="279.1" y1="411.3" x2="319.2" y2="411.3"/>
		<path class="st5" d="M331.8,399l-11.7,10c0,0-0.6,2.8-1.5,3.6l-4.3,3.6l-0.4,2.6"/>
		<line class="st3" x1="329.8" y1="403" x2="332" y2="399"/>
		<line class="st3" x1="282.8" y1="415.7" x2="284.9" y2="417.2"/>
		<path class="st6" d="M284.9,419.7v-4c0,0,2.4-3.4,13.1-3.4c12.6,0,16.3,3.8,16.3,3.8"/>
		<path class="st6" d="M285.5,421.3c0,0,0.1-3.8,8.1-4.2c4.3-0.2,8.6-0.1,12.9,0.5c0,0,5.6,0.7,7,3.7"/>
		<path class="st3" d="M312.1,422.6v-2.4c-4.3,0.8-8.7,1.1-13.1,1.1c-8.6,0.2-12.3-1.1-12.3-1.1l-0.1,2.4"/>
		<polyline class="st7" points="288.1,446.6 287.6,425.4 288.1,425.6 288.5,446.6 		"/>
		<polyline class="st7" points="289.5,447.7 289.2,425.8 289.9,425.8 290.3,448 		"/>
		<path class="st7" d="M308.7,448c0,0-17.1,0.6-19-0.1"/>
		<polyline class="st7" points="291.8,448.1 291.8,426.1 292.6,426.1 292.6,448.1 		"/>
		<polyline class="st7" points="294.3,448.1 294.3,426.1 295.7,426.1 295.7,448.1 		"/>
		<polyline class="st7" points="297.4,448.1 297.4,426.1 298.8,426.1 298.8,448.1 		"/>
		<polyline class="st7" points="300.7,448.1 300.7,426.1 302,426.1 302,448.1 		"/>
		<polyline class="st7" points="303.6,448.1 303.6,426.1 305,426.1 305,448.1 		"/>
		<polyline class="st7" points="306.9,448.1 306.9,426.1 308,426.1 308,448.1 		"/>
		<polyline class="st7" points="309.1,447.6 309.1,425.6 309.9,425.6 309.9,447.6 		"/>
		<polyline class="st7" points="310.7,446.9 310.7,425.4 311.3,425.4 311.3,437.9 		"/>
		<path class="st4" d="M313.8,387c7.5-0.1,43.3-0.6,43.3-0.6l2.1,1.3c0,0,4.7,1.9,13.3,1.3c1.7,0.5,12,1.5,21.5-2.6
			c3.5-1.7,17.2-15.5,24.3-42.3c0.2-0.9,0.4-1.8,0.6-2.7c1.5-9.8,2.3-19.8,2.2-29.7c-0.4-5.1-1.7-13-10.3-15.8
			c-3-0.6-9.6-1.2-15.1,0.1c-5.5,1.4-7.2,8.7-7.2,8.7l0.2-31.6c0,0,0.3-2.7,1.6-13.4c0.3-3.3,0.5-12.3-1.5-27.2
			c-0.4-5.2-2.6-33,0.9-56.1c0,0,1.5-16,17.6-48.6c2.4-5.5,8-18.7-2.9-34.6c-4.2-3.8-5.9-4.7-5.9-4.7s-13.6-8.6-38.5-19.9
			c-3.7-2.2-6-3.2-8.8-9.7s-11.1-34.8-11.1-34.8s-1.7-14-20-15.7C316.9,7.9,305,7.7,305,7.7h-11.1c0,0-8,0.2-11.1,0.7
			c-18.3,1.7-20,15.7-20,15.7s-8.3,28.2-11.1,34.8s-5.1,7.5-8.8,9.7c-24.9,11.3-38.5,19.9-38.5,19.9s-1.7,0.9-5.9,4.7
			c-10.9,15.9-5.3,29.1-2.9,34.6c16.1,32.5,17.6,48.5,17.6,48.5c3.5,23.1,1.2,50.9,0.9,56.1c-2,14.9-1.8,23.9-1.5,27.2
			c1.3,10.7,1.6,13.4,1.6,13.4l0.2,31.6c0,0-1.8-7.3-7.2-8.7c-5.5-1.4-12.1-0.7-15.1-0.1c-8.6,2.8-9.9,10.7-10.3,15.8
			c-0.1,10,0.7,19.9,2.2,29.8c0.2,0.9,0.3,1.8,0.6,2.7c7.1,26.8,20.8,40.6,24.3,42.3c9.5,4.1,19.9,3.1,21.5,2.6
			c8.5,0.5,13.3-1.3,13.3-1.3l2.1-1.3c0,0,35.8,0.5,43.3,0.6L313.8,387z"/>
		<path class="st3" d="M221.9,115.5c0.4-2.5,3.6-17.1,3.6-17.1c0.7-1.9,2.1-3.4,4-4.3c3.1-1.6,22.4-11.9,22.4-11.9
			s10.7-4.8,11.8,6.6s1.3,21.2,1.3,21.2s0.3,10.3-6.2,12.1l-26.4,6.3c0,0-5.3,0.8-7.9-1.7c-0.6-0.6-1.1-1.3-1.6-2.1
			c-1.2-2.1-1.6-4.5-1.3-6.8L221.9,115.5z"/>
		<path class="st5" d="M230.9,100.6L254,87.5c0,0,4-1.6,4.1,2.2c0.1,3.9,0.8,23.6,0.8,23.6c0,1.5-1.1,2.7-2.5,3
			c-2.5,0.6-26.2,5.7-26.2,5.7c-1.5,0.2-2.8-0.8-3.1-2.2c0-0.1,0-0.2,0-0.4c0.2-2.8,3-17.4,3-17.4S230.3,101,230.9,100.6z"/>
		<path class="st6" d="M253.2,88c0,0,2.5,0.7,2.7,3c0.2,2.3,0.8,23.5,0.8,23.5s-0.5,2-1.2,2.1"/>
		<path class="st5" d="M267.4,15.1c-1.2,2.2-2.1,4.5-2.8,6.8c-1.5,4.6-10.3,32.4-10.3,32.4s-2.4,10.9-10,14.7L223,79.6l-14.6,8.3
			c0,0-8.4,5.1-9.4,9.7c-1.7,5.5-0.3,9.6,0,12c0.3,2.3,3,10.6,3,10.6l2.9,6.8l6.4,13.4l8.6,16.8c3.7,7.9,6.3,16.2,7.7,24.8
			c2.8,12.8,5.2,28.3,5.2,28.3l1.6,17.1c0,0,3,20.8,5,31.2c2.1,7.4,4.4,22.5,4.4,22.5l3.6,30.6l1,4.3v8.9h-18.7c0,0-4.8-0.5-5.5,0.6
			c-0.9-1.6-1.8-3.2-2.9-4.7c-2.4-10.9-4-22-4.7-33.2c-2.1-18.8-1.5-39.6-1.6-42.9c-0.2-6,2.9-46.1-1.3-63.1"/>
		<path class="st6" d="M248.4,315.5l4.2-73.6c0,0-0.1-16.5,2.1-31.1c0.9-8.2,3.2-25.2-2.6-40.5c-6.3-14.4-18.4-34.6-18.4-34.6
			s-3.3-6-4.9-7.4"/>
		<path class="st6" d="M258.9,81.1c0,0-4.5-13.3-9.4-16.4"/>
		<path class="st6" d="M264.9,111.4l3.3-19.2c1.3-5.8,2.3-11.7,2.9-17.6c1.2-10.9,2.2-54.5,2.2-54.5s-0.4-7.8,1.1-9.6"/>
		<polyline class="st6" points="267.5,96.3 298,96.3 305.3,96.3 335.4,96.3 		"/>
		<path class="st6" d="M265.4,108.7c0,0,1.8-1.8,12.8-1.8h46.5c11.1,0,12.8,1.8,12.8,1.8"/>
		<path class="st6" d="M265.4,119.5c0,0,1-1.4,12.2-1.2c11.2,0.1,19.1,0,19.1,0h8.1c0,0,9.5,0.1,20.6,0c11.2-0.1,12.2,1.2,12.2,1.2"
			/>
		<line class="st6" x1="255.2" y1="183.8" x2="301.5" y2="199.7"/>
		<line class="st6" x1="255.3" y1="204.3" x2="301.5" y2="219.9"/>
		<line class="st6" x1="253.3" y1="222.8" x2="301.5" y2="238.7"/>
		<path class="st3" d="M228.7,389.3c0,0-3.8-1.2-6.4-7.2c-2.6-6.1-5.8-16.5-7.9-24.4c-2.1-7.9-6-27.5-6-27.5s-4.9-23.5-3.3-34.6"/>
		<path class="st3" d="M201.7,379.6c-3.2-6.7-5.5-13.8-7-21.1c-3.1-10.9-7.6-39.7-7.6-45.2c-0.2-5.5-0.2-11.8-1.1-13.4"/>
		<path class="st6" d="M247.1,324.9c0,0,30,2,54.4,2.9"/>
		<line class="st6" x1="252.5" y1="325.3" x2="248.5" y2="318.5"/>
		<line class="st6" x1="249.5" y1="295.7" x2="265" y2="326"/>
		<polyline class="st6" points="250.7,273.8 257.3,286.2 278.4,326.8 		"/>
		<polyline class="st6" points="252,250.7 282.8,310.8 291.3,327.4 		"/>
		<line class="st6" x1="252.9" y1="228.4" x2="304.5" y2="327.8"/>
		<line class="st6" x1="264.6" y1="226.5" x2="316.8" y2="327.2"/>
		<line class="st6" x1="279.4" y1="231.4" x2="329.3" y2="326.5"/>
		<polyline class="st6" points="294.1,236.2 314,273.1 340.1,323.1 341.6,325.8 		"/>
		<line class="st6" x1="262.7" y1="225.9" x2="252.3" y2="245.8"/>
		<line class="st6" x1="273.3" y1="229.4" x2="250.8" y2="272.1"/>
		<line class="st6" x1="283.4" y1="232.7" x2="249.3" y2="299.1"/>
		<line class="st6" x1="295.1" y1="236.6" x2="248.5" y2="324.9"/>
		<line class="st6" x1="261" y1="325.8" x2="307.3" y2="236.6"/>
		<line class="st6" x1="273.3" y1="326.5" x2="322.5" y2="231.7"/>
		<line class="st6" x1="285.7" y1="327.1" x2="337.8" y2="226.6"/>
		<line class="st6" x1="298.1" y1="327.8" x2="350.2" y2="226.5"/>
		<path class="st3" d="M381,115.5c-0.4-2.5-3.6-17.1-3.6-17.1c-0.7-1.9-2.1-3.4-4-4.3c-3.1-1.6-22.4-11.9-22.4-11.9
			s-10.7-4.8-11.8,6.6c-1.1,11.4-1.3,21.2-1.3,21.2s-0.3,10.3,6.2,12.1l26.4,6.3c0,0,5.3,0.8,7.9-1.7c0.6-0.6,1.1-1.3,1.6-2.1
			c1.2-2.1,1.6-4.5,1.3-6.8L381,115.5z"/>
		<path class="st5" d="M372,100.6l-23.1-13.1c0,0-4-1.6-4.1,2.2c-0.1,3.9-0.8,23.6-0.8,23.6c0,1.5,1.1,2.7,2.5,3
			c2.5,0.6,26.2,5.7,26.2,5.7c1.5,0.2,2.8-0.8,3.1-2.2c0-0.1,0-0.2,0-0.4c-0.3-2.8-3-17.4-3-17.4S372.7,101,372,100.6z"/>
		<path class="st6" d="M349.7,88c0,0-2.5,0.7-2.7,3.1c-0.1,2.4-0.8,23.5-0.8,23.5s0.5,2,1.2,2.1"/>
		<path class="st5" d="M335.5,15.1c1.2,2.2,2.1,4.5,2.8,6.8c1.5,4.6,10.3,32.4,10.3,32.4s2.4,10.9,10,14.7l21.2,10.5l14.6,8.3
			c0,0,8.3,5.1,9.4,9.7c1.7,5.5,0.3,9.6,0,12c-0.3,2.3-3,10.6-3,10.6L398,127l-6.4,13.4l-8.6,16.8c-3.7,7.9-6.3,16.2-7.7,24.8
			c-2.8,12.8-5.2,28.3-5.2,28.3l-1.5,17.1c0,0-2.3,19.8-5,31.2c-1.5,8.9-3.6,22.5-3.6,22.5l-4.5,30.6l-1,4.3v8.9h18.7
			c0,0,4.8-0.5,5.5,0.6c0.9-1.6,1.8-3.2,2.9-4.7c2.6-11,4.2-22.3,4.7-33.6c0.6-11.3,0.8-39,0.4-42.3c-0.4-3.3-2-42.9,2.4-63.3"/>
		<path class="st6" d="M354.6,315.5l-4.2-73.6c0,0,0.1-16.5-2.1-31.1c-0.9-8.2-3.2-25.2,2.6-40.5c6.3-14.4,18.4-34.6,18.4-34.6
			s3.3-6,4.9-7.4"/>
		<path class="st6" d="M344.1,81.1c0,0,4.6-13.3,9.4-16.4"/>
		<path class="st6" d="M339.7,118.2c0,0-9.7,8.4-37.1,8.3h-2.4c-26.8,0.4-37-8.3-37-8.3"/>
		<path class="st6" d="M338,111.4l-3.3-19.2c-1.3-5.8-2.3-11.7-2.9-17.6c-1.2-10.9-2.2-54.5-2.2-54.5s0.4-7.8-1.1-9.6"/>
		<line class="st6" x1="347.7" y1="183.8" x2="301.4" y2="199.7"/>
		<line class="st6" x1="347.6" y1="204.3" x2="301.4" y2="219.9"/>
		<line class="st6" x1="349.6" y1="222.8" x2="301.4" y2="238.7"/>
		<path class="st3" d="M374.2,389.3c0,0,3.8-1.2,6.4-7.2c2.6-6.1,5.8-16.5,7.9-24.4c2.1-7.9,6-27.5,6-27.5s4.9-23.5,3.3-34.6"/>
		<path class="st3" d="M401.2,379.6c3.2-6.7,5.5-13.8,7-21.1c3.1-10.9,7.6-39.7,7.6-45.2c0.2-5.5,0.2-11.8,1.1-13.4"/>
		<path class="st6" d="M355.8,324.9c0,0-30,2-54.4,2.9"/>
		<path class="st6" d="M405.6,253c4.5,0.2,8.7,2,12,4.9c0,0,17.8,0.1,25-0.1s2.7-2.6,2.7-2.6l-4-1.8"/>
		<path class="st6" d="M417.6,258v1.9l3.8,2.3c0,0,2.2,1.6,7.6,1.6c5.4,0,21.4-0.4,21.4-0.4s4.2-0.2,5-0.8"/>
		<path class="st6" d="M403.4,255l11.1,4.7c1.1,0.4,2.2,0.5,3.3,0.3"/>
		<polyline class="st6" points="404.3,254.8 415,259.2 417.6,259.9 		"/>
		<path class="st6" d="M444,268.8h-24.7c0,0-3.2,0.1-5.2-0.8c-2.6-1.2-3.4-1.7-3.4-1.7"/>
		<path class="st6" d="M440.7,272.3c0,0-0.9,0.5-4.3,0.5s-16.3-0.3-16.3-0.3c-1.3,0-2.5-0.2-3.8-0.6c-0.9-0.3-1.8-0.7-2.7-1.2"/>
		<path class="st6" d="M431.9,349.4c0,0-1.9,1.1-6.3,0.4c-1.6-0.2-3.1-0.5-4.6-0.9"/>
		<path class="st6" d="M433.8,353.2c0,0-1.6,1.7-5,1.9c-2.7,0.1-5.4-0.3-7.9-1.4c-0.8-0.2-1.5-0.6-2.1-1.1"/>
		<path class="st6" d="M431.9,352.2c0,0,0.5,0.9-0.1,1.2c-0.7,0.5-1.4,0.7-2.3,0.9c-1.5,0.1-3,0.1-4.5-0.2h0l-2.7-0.6
			c-0.9-0.2-1.4-1-1.4-1.8v0"/>
		<path class="st6" d="M412.1,365.5l3.6,4c0,0,1,3.2-0.5,4.2"/>
		<path class="st6" d="M412.1,366.8l2.9,3.1c0,0,1.3,2.5-1.1,3.2"/>
		<path class="st6" d="M415.8,369.4h7.4c1.6-0.2,3-0.9,4.2-2"/>
		<path class="st6" d="M389.1,355.7c0,0,1.3-13.5-2.6-20.8s-7.9-9.3-7.9-9.3"/>
		<path class="st6" d="M388.3,306.6c-0.5,2.7-4.1,10.2-6.8,14.1"/>
		<path class="st6" d="M395.3,296.2l-1.9-2.2l-2.1-59.2c0,0-0.7-2.7-2.5-2.7"/>
		<line class="st6" x1="307.3" y1="236.6" x2="354.4" y2="324.9"/>
		<line class="st6" x1="353.6" y1="299.1" x2="318.3" y2="233.1"/>
		<line class="st6" x1="350.6" y1="245.8" x2="340.2" y2="225.9"/>
		<line class="st6" x1="311.7" y1="327.4" x2="350.9" y2="250.8"/>
		<polyline class="st6" points="324.2,326.8 352.2,273.3 329.3,229.4 		"/>
		<line class="st6" x1="338.2" y1="325.8" x2="353.6" y2="296.2"/>
		<path class="st6" d="M197.3,253c-4.5,0.2-8.7,2-12,4.9c0,0-17.8,0.1-25-0.1c-7.2-0.2-2.7-2.6-2.7-2.6l4-1.8"/>
		<path class="st6" d="M185.3,258v1.9l-3.8,2.3c0,0-2.2,1.6-7.6,1.6c-5.4,0-21.4-0.4-21.4-0.4s-4.2-0.2-5-0.8"/>
		<path class="st6" d="M199.5,255l-11.1,4.7c-1.1,0.4-2.2,0.5-3.3,0.3"/>
		<polyline class="st6" points="198.6,254.8 187.9,259.2 185.3,259.9 		"/>
		<path class="st6" d="M158.9,268.8h24.7c0,0,3.2,0.1,5.2-0.8c2.6-1.2,3.4-1.7,3.4-1.7"/>
		<path class="st6" d="M162.2,272.3c0,0,0.9,0.5,4.3,0.5s16.3-0.3,16.3-0.3c1.3,0,2.5-0.2,3.8-0.6c0.9-0.3,1.8-0.7,2.7-1.2"/>
		<path class="st6" d="M171.1,349.4c0,0,1.9,1.1,6.3,0.4c1.6-0.2,3.1-0.5,4.6-0.9"/>
		<path class="st6" d="M169.1,353.2c0,0,1.6,1.7,5,1.9c2.7,0.1,5.4-0.3,7.9-1.4c0.8-0.2,1.5-0.6,2.1-1.1"/>
		<path class="st6" d="M171,352.2c0,0-0.5,0.9,0.1,1.2c0.7,0.5,1.4,0.7,2.3,0.9c1.5,0.1,3,0.1,4.5-0.2h0l2.7-0.6
			c0.8-0.2,1.4-0.9,1.4-1.8v0"/>
		<path class="st6" d="M190.8,365.5l-3.6,4c0,0-1,3.2,0.5,4.2"/>
		<path class="st6" d="M190.8,366.8l-2.9,3.1c0,0-1.3,2.5,1.1,3.3"/>
		<path class="st6" d="M187.2,369.4h-7.4c-1.6-0.2-3-0.9-4.2-2"/>
		<path class="st6" d="M213.8,355.7c0,0-1.3-13.5,2.6-20.8c3.9-7.3,7.9-9.3,7.9-9.3"/>
		<path class="st6" d="M214.6,306.6c0.5,2.7,4.1,10.2,6.8,14.1"/>
		<path class="st6" d="M207.6,296.2l1.9-2.2l2.1-59.2c0,0,0.7-2.7,2.5-2.7"/>
		<g id="texto_33_">
			<rect x="283" y="97.4" class="st9" width="35.4" height="15"/>
			<rect x="273.6" y="182.9" class="st9" width="55.5" height="15"/>
			<rect x="282.8" y="236.6" class="st9" width="37.2" height="15"/>
			<rect x="282.8" y="276.8" class="st9" width="37.2" height="15"/>
			<rect x="282.8" y="395.5" class="st9" width="37.2" height="15"/>
			<text transform="matrix(1 0 0 1 286.3131 108.6762)" class="st16 st17 st18">57cm</text>
			<text transform="matrix(1 0 0 1 275.1803 196.1743)" class="st16 st17 st18">49 - 53cm</text>
			<text transform="matrix(1 0 0 1 286.3131 248.1206)" class="st16 st17 st18">46cm</text>
			<text transform="matrix(1 0 0 1 286.3131 289.0454)" class="st16 st17 st18">26cm</text>
			<text transform="matrix(1 0 0 1 286.3131 347.5102)" class="st16 st17 st18">37cm</text>
			<text transform="matrix(1 0 0 1 286.3131 408.3842)" class="st16 st17 st18">55cm</text>
		</g>
		<g id="Camada_11_2_">
			<line class="st19" x1="200.2" y1="111.5" x2="408.1" y2="111.5"/>
			<line class="st19" x1="191.9" y1="117.4" x2="191.9" y2="106.2"/>
			<polygon class="st20" points="192.2,111.8 201.9,117.4 201.9,106.2 			"/>
			<line class="st19" x1="410.7" y1="116.6" x2="410.7" y2="105.4"/>
			<polygon class="st20" points="410.4,111 400.7,116.6 400.7,105.4 			"/>
			<line class="st19" x1="221" y1="252" x2="388.1" y2="252"/>
			<line class="st19" x1="212.2" y1="257.8" x2="212.2" y2="246.6"/>
			<polygon class="st20" points="212.6,252.2 222.2,257.8 222.2,246.6 			"/>
			<line class="st19" x1="390.7" y1="257" x2="390.7" y2="245.8"/>
			<polygon class="st20" points="390.4,251.4 380.7,257 380.7,245.8 			"/>
			<line class="st19" x1="258.2" y1="291.7" x2="350.9" y2="291.7"/>
			<line class="st19" x1="249.3" y1="297.5" x2="249.3" y2="286.3"/>
			<polygon class="st20" points="249.6,291.9 259.3,297.5 259.3,286.3 			"/>
			<line class="st19" x1="353.6" y1="297.5" x2="353.6" y2="286.3"/>
			<polygon class="st20" points="353.3,291.9 343.6,297.5 343.6,286.3 			"/>
			<line class="st19" x1="222.4" y1="349.8" x2="381.2" y2="349.8"/>
			<line class="st19" x1="213.4" y1="355.6" x2="213.4" y2="344.4"/>
			<polygon class="st20" points="213.7,350 223.4,355.6 223.4,344.4 			"/>
			<line class="st19" x1="389.4" y1="355.6" x2="389.4" y2="344.4"/>
			<polygon class="st20" points="389,350 379.4,355.6 379.4,344.4 			"/>
			<line class="st19" x1="191.5" y1="411.1" x2="412.1" y2="411.1"/>
			<line class="st19" x1="182.2" y1="416.9" x2="182.2" y2="308.2"/>
			<polygon class="st20" points="182.5,411.3 192.2,416.9 192.2,405.7 			"/>
			<line class="st19" x1="421" y1="416.9" x2="421" y2="308.2"/>
			<polygon class="st20" points="420.7,411.3 411,416.9 411,405.7 			"/>
			<line class="st19" x1="201.8" y1="197.9" x2="401.2" y2="197.9"/>
			<line class="st19" x1="193.2" y1="266.3" x2="193.2" y2="192.5"/>
			<polygon class="st20" points="193.6,198.1 203.2,203.7 203.2,192.5 			"/>
			<line class="st19" x1="410.6" y1="266.3" x2="410.6" y2="191.8"/>
			<polygon class="st20" points="410.3,197.4 400.6,202.9 400.6,191.8 			"/>
		</g>
	</g>
</g>
</svg>
