<svg id="Camada_1" data-name="Camada 1" xmlns="http://www.w3.org/2000/svg" viewBox="0 0 1195.86 841.89"><defs><style>.cls-1{fill:#fff;stroke:#1d1d1b;stroke-miterlimit:10;stroke-width:3px;}</style></defs><title>kit roller</title><path class="cls-1" d="M208,379.53s.34-46,17-62,68.34-15.33,68.34-15.33l-35.14,81.66Z"/><circle class="cls-1" cx="258.15" cy="566.77" r="193.81"/><circle class="cls-1" cx="275.04" cy="562.82" r="115.58"/><rect class="cls-1" x="180.48" y="516.93" width="34.64" height="20.55" rx="10.27" ry="10.27" transform="translate(211.07 -35.73) rotate(21.92)"/><rect class="cls-1" x="198.61" y="617.67" width="34.64" height="20.55" rx="10.27" ry="10.27" transform="translate(-380.78 336.61) rotate(-45)"/><rect class="cls-1" x="297.07" y="630.81" width="34.64" height="20.55" rx="10.27" ry="10.27" transform="translate(-141.47 1190.65) rotate(-114.2)"/><rect class="cls-1" x="339.85" y="539.11" width="34.64" height="20.55" rx="10.27" ry="10.27" transform="translate(762.21 1064.48) rotate(174.85)"/><path class="cls-1" d="M349.9,635.19a11.27,11.27,0,0,1-5.88,3.86c-2.94.74-6.65.31-8.82-5.1-4-10-7.5-27.5,1.5-44.25S364,568,368.45,569.45s9.75,6.75,8,16.25C374.34,597.19,369.91,610.8,349.9,635.19Z"/><path class="cls-1" d="M231.14,661a11.35,11.35,0,0,1-5.46-4.44c-1.6-2.58-2.32-6.24,2.19-9.95,8.31-6.84,23.92-15.49,42.62-12s29,19.36,28.93,24.11-3.48,11.34-13.06,12.55C274.77,672.74,260.46,672.66,231.14,661Z"/><path class="cls-1" d="M170.07,555.53a11.24,11.24,0,0,1,2-6.75c1.76-2.47,4.86-4.55,10-1.83,9.53,5,23.54,16.08,27.54,34.67s-6.65,34.22-11.05,36-11.8,1.18-16.62-7.19C176.1,600.31,170.64,587.08,170.07,555.53Z"/><path class="cls-1" d="M244.2,459.45c2.22-.92,4.28-4.44,6.64-4,3,.54,6.19,2.46,5.92,8.29-.48,10.75,7.31,24.93-7.81,36.47s-37.46,8-46.75,5.75c-4.61-1.12-8.45-7.39-2.93-15.32C205.94,481,208.45,474.2,244.2,459.45Z"/><path class="cls-1" d="M452,350.15C453.35,292,405.73,244.9,348.7,244.9S245.45,292,245.45,350.15l-14,212.67s-1,46.88,42,51.88,64.51-37,64.51-37l81.68-142.93c4-7,8.17-13.79,12.49-20.55C438.8,403.77,451.22,380.38,452,350.15Z"/><circle class="cls-1" cx="289.25" cy="560.9" r="32.65"/><path class="cls-1" d="M278.86,550.13l1.92-1.54a1.74,1.74,0,0,1,2.07-.09L288,552h4.17l6.05-2.38a2.34,2.34,0,0,1,2.45.45l1.38,1.26a2.36,2.36,0,0,1,.47,2.88l-2.93,5.29.25,6.75,2,2.7a2.24,2.24,0,0,1-.06,2.72l-1.9,2.35a2.23,2.23,0,0,1-3.28.21l-2.49-2.4-6.75-.83-4.16,2.22a2.74,2.74,0,0,1-3.19-.44l-2-2a2.72,2.72,0,0,1-.39-3.45l2.93-4.49.5-5.21-2.61-4.91A2,2,0,0,1,278.86,550.13Z"/><path class="cls-1" d="M255.89,304l-35.27,13.55-16.33-71S254,221.2,302,210.2s66.67-12.67,92-12l18.25,68.63Z"/><path class="cls-1" d="M246.48,198.07c.14.14,1.81,13,14.81,12S327,193.7,327,193.7s5.5-1.5,6.67-6.84.85-10.43-1.41-13.46S246.48,198.07,246.48,198.07Z"/><path class="cls-1" d="M251.83,225.81s2.16-11.35,8.48-15.73,68-18.45,68-18.45a77.5,77.5,0,0,1,12.36,10.57S277.87,212.59,251.83,225.81Z"/><path class="cls-1" d="M235.7,74.7s5.5-8,23.75-12,28,0,28,0l5.75,21s-14.75-.25-26,3.5a214.13,214.13,0,0,0-24.5,10.5L240.2,96Z"/><path class="cls-1" d="M293.2,85s7.75,1.75,6.5,7.25-3.5.25-6.5,0-14.25.5-22.75,2.5-26.25,11-27.5,12-4,.87-3.75-.88-2.87-2.87,3.5-8.12C247.72,93.56,282,80.07,293.2,85Z"/><path class="cls-1" d="M243,106.7l16.5,68.75s16.63-6.75,28.88-8.88S313,163.45,313,163.45l-17.17-70S273.2,88.07,243,106.7Z"/><rect class="cls-1" x="242.32" y="169.75" width="90.83" height="24.6" rx="12.3" ry="12.3" transform="translate(-34.39 71.73) rotate(-13.42)"/><path class="cls-1" d="M541.12,378.24s.33-46,17-62,68.33-15.33,68.33-15.33l-35.14,81.66Z"/><circle class="cls-1" cx="591.31" cy="565.48" r="193.81"/><circle class="cls-1" cx="608.21" cy="561.53" r="115.58"/><rect class="cls-1" x="513.65" y="515.64" width="34.64" height="20.55" rx="10.27" ry="10.27" transform="translate(234.66 -160.17) rotate(21.92)"/><rect class="cls-1" x="531.78" y="616.38" width="34.64" height="20.55" rx="10.27" ry="10.27" transform="translate(-282.28 571.81) rotate(-45)"/><rect class="cls-1" x="630.23" y="629.52" width="34.64" height="20.55" rx="10.27" ry="10.27" transform="translate(329.45 1492.71) rotate(-114.2)"/><rect class="cls-1" x="673.01" y="537.82" width="34.64" height="20.55" rx="10.27" ry="10.27" transform="translate(1427.08 1032) rotate(174.85)"/><path class="cls-1" d="M683.07,633.9a11.26,11.26,0,0,1-5.89,3.86c-2.94.74-6.65.31-8.81-5.1-4-10-7.5-27.5,1.5-44.25s27.25-21.75,31.75-20.25,9.75,6.75,8,16.25C707.5,595.9,703.08,609.51,683.07,633.9Z"/><path class="cls-1" d="M564.31,659.71a11.26,11.26,0,0,1-5.46-4.44c-1.6-2.58-2.32-6.24,2.18-9.95,8.32-6.84,23.93-15.49,42.62-12s29,19.36,28.93,24.11-3.47,11.34-13.05,12.55C607.93,671.45,593.62,671.37,564.31,659.71Z"/><path class="cls-1" d="M503.23,554.24a11.35,11.35,0,0,1,2-6.75c1.76-2.47,4.86-4.55,10-1.83,9.53,5,23.54,16.08,27.54,34.67s-6.65,34.22-11,36-11.8,1.18-16.62-7.19C509.26,599,503.81,585.78,503.23,554.24Z"/><path class="cls-1" d="M577.37,458.16c2.21-.92,4.27-4.44,6.63-4,3,.53,6.19,2.46,5.93,8.28-.49,10.76,7.3,24.94-7.81,36.48s-37.46,8-46.75,5.75c-4.61-1.12-8.45-7.39-2.94-15.32C539.11,479.75,541.62,472.91,577.37,458.16Z"/><path class="cls-1" d="M785.12,348.86c1.4-58.11-46.23-105.25-103.25-105.25S578.62,290.73,578.62,348.86l-14,212.67s-1,46.88,42,51.88,64.52-37,64.52-37l81.67-142.93c4-7,8.18-13.79,12.49-20.55C772,402.48,784.39,379.09,785.12,348.86Z"/><circle class="cls-1" cx="622.42" cy="559.61" r="32.65"/><path class="cls-1" d="M612,548.84,614,547.3a1.74,1.74,0,0,1,2.07-.09l5.1,3.45h4.16l6.06-2.38a2.33,2.33,0,0,1,2.44.45l1.38,1.26a2.34,2.34,0,0,1,.47,2.88l-2.93,5.29.25,6.75,2,2.7a2.22,2.22,0,0,1-.06,2.72L633,572.68a2.23,2.23,0,0,1-3.28.21l-2.5-2.4-6.75-.83-4.16,2.22a2.74,2.74,0,0,1-3.19-.44l-2-2a2.73,2.73,0,0,1-.38-3.46l2.93-4.48.5-5.21-2.62-4.91A2.06,2.06,0,0,1,612,548.84Z"/><path class="cls-1" d="M589.06,302.69l-35.28,13.55-16.33-71s49.67-25.33,97.67-36.33,66.66-12.67,92-12l18.25,68.63Z"/><path class="cls-1" d="M579.65,196.78c.13.14,1.8,13,14.8,12s65.67-16.33,65.67-16.33,5.5-1.5,6.66-6.84.85-10.43-1.41-13.46S579.65,196.78,579.65,196.78Z"/><path class="cls-1" d="M585,224.52s2.17-11.35,8.48-15.73,68-18.46,68-18.46a77.41,77.41,0,0,1,12.36,10.58S611,211.3,585,224.52Z"/><path class="cls-1" d="M568.87,73.41s5.5-8,23.75-12,28,0,28,0l5.75,21s-14.75-.25-26,3.5a214.13,214.13,0,0,0-24.5,10.5l-2.5-1.75Z"/><path class="cls-1" d="M626.37,83.66s7.75,1.75,6.5,7.25-3.5.25-6.5,0-14.25.5-22.75,2.5-26.25,11-27.5,12-4,.87-3.75-.88-2.88-2.87,3.5-8.12C580.89,92.27,615.12,78.78,626.37,83.66Z"/><path class="cls-1" d="M576.12,105.41l16.5,68.75s16.62-6.75,28.87-8.88,24.63-3.12,24.63-3.12L629,92.12S606.37,86.78,576.12,105.41Z"/><rect class="cls-1" x="575.48" y="168.46" width="90.83" height="24.6" rx="12.3" ry="12.3" transform="translate(-25 148.99) rotate(-13.42)"/><path class="cls-1" d="M868.22,382s.33-46,17-62,68.33-15.34,68.33-15.34l-35.14,81.67Z"/><circle class="cls-1" cx="918.41" cy="569.24" r="193.81"/><circle class="cls-1" cx="935.31" cy="565.3" r="115.58"/><rect class="cls-1" x="840.75" y="519.41" width="34.64" height="20.55" rx="10.27" ry="10.27" transform="translate(259.71 -281.99) rotate(21.92)"/><rect class="cls-1" x="858.88" y="620.15" width="34.64" height="20.55" rx="10.27" ry="10.27" transform="translate(-189.14 804.21) rotate(-45)"/><rect class="cls-1" x="957.34" y="633.28" width="34.64" height="20.55" rx="10.27" ry="10.27" transform="translate(787.21 1796.38) rotate(-114.2)"/><rect class="cls-1" x="1000.12" y="541.58" width="34.64" height="20.55" rx="10.27" ry="10.27" transform="translate(2080.3 1010.16) rotate(174.85)"/><path class="cls-1" d="M1010.17,637.67a11.25,11.25,0,0,1-5.88,3.85c-2.95.75-6.65.32-8.82-5.1-4-10-7.5-27.5,1.5-44.25s27.25-21.75,31.75-20.25,9.75,6.75,8,16.25C1034.6,599.67,1030.18,613.28,1010.17,637.67Z"/><path class="cls-1" d="M891.41,663.47A11.28,11.28,0,0,1,886,659c-1.6-2.58-2.32-6.24,2.18-9.95,8.32-6.85,23.93-15.49,42.62-12s29,19.36,28.93,24.1-3.47,11.34-13,12.56C935,675.22,920.73,675.14,891.41,663.47Z"/><path class="cls-1" d="M830.33,558a11.29,11.29,0,0,1,2-6.75c1.75-2.48,4.86-4.55,10-1.83,9.52,5,23.53,16.07,27.54,34.66s-6.65,34.23-11,36-11.8,1.18-16.63-7.18C836.36,602.78,830.91,589.55,830.33,558Z"/><path class="cls-1" d="M904.47,461.92c2.22-.91,4.28-4.43,6.64-4,3,.53,6.18,2.45,5.92,8.28-.49,10.76,7.3,24.93-7.81,36.47s-37.46,8-46.75,5.75c-4.61-1.11-8.45-7.38-2.93-15.31C866.21,483.52,868.72,476.67,904.47,461.92Z"/><path class="cls-1" d="M1112.22,352.63c1.4-58.11-46.23-105.25-103.25-105.25S905.72,294.5,905.72,352.63l-14,212.67s-1,46.87,42,51.87,64.51-37,64.51-37l81.67-142.92c4-7,8.18-13.8,12.5-20.56C1099.07,406.24,1111.49,382.86,1112.22,352.63Z"/><circle class="cls-1" cx="949.52" cy="563.38" r="32.65"/><path class="cls-1" d="M939.13,552.61l1.92-1.55a1.74,1.74,0,0,1,2.07-.08l5.1,3.44h4.17l6.05-2.38a2.35,2.35,0,0,1,2.45.46l1.37,1.25a2.36,2.36,0,0,1,.48,2.88l-2.94,5.29.25,6.75,2,2.7a2.24,2.24,0,0,1-.06,2.72l-1.9,2.35a2.22,2.22,0,0,1-3.28.21l-2.5-2.39-6.75-.84-4.16,2.23a2.73,2.73,0,0,1-3.19-.45l-2-2a2.72,2.72,0,0,1-.39-3.46l2.93-4.48.5-5.21-2.62-4.92A2.05,2.05,0,0,1,939.13,552.61Z"/><path class="cls-1" d="M916.16,306.46,880.89,320l-16.34-71s49.67-25.34,97.67-36.34,66.67-12.66,92-12l18.25,68.63Z"/><path class="cls-1" d="M906.75,200.55c.14.14,1.8,13,14.8,12s65.67-16.34,65.67-16.34,5.5-1.5,6.67-6.83.84-10.43-1.41-13.47S906.75,200.55,906.75,200.55Z"/><path class="cls-1" d="M912.1,228.29s2.16-11.36,8.47-15.74,68-18.45,68-18.45a77.3,77.3,0,0,1,12.37,10.57S938.14,215.07,912.1,228.29Z"/><path class="cls-1" d="M896,77.17s5.5-8,23.75-12,28,0,28,0l5.75,21s-14.75-.25-26,3.5a214.13,214.13,0,0,0-24.5,10.5l-2.5-1.75Z"/><path class="cls-1" d="M953.47,87.42s7.75,1.75,6.5,7.25-3.5.25-6.5,0-14.25.51-22.75,2.5-26.25,11-27.5,12-4,.88-3.75-.87-2.87-2.88,3.5-8.13C908,96,942.22,82.55,953.47,87.42Z"/><path class="cls-1" d="M903.22,109.17l16.5,68.75s16.63-6.75,28.88-8.87,24.62-3.13,24.62-3.13l-17.17-70S933.47,90.55,903.22,109.17Z"/><rect class="cls-1" x="902.58" y="172.23" width="90.83" height="24.6" rx="12.3" ry="12.3" transform="translate(-16.94 224.98) rotate(-13.42)"/></svg>