<?xml version="1.0" encoding="utf-8"?>
<!-- Generator: Adobe Illustrator 23.0.1, SVG Export Plug-In . SVG Version: 6.00 Build 0)  -->
<svg version="1.1" id="Camada_1" xmlns="http://www.w3.org/2000/svg" xmlns:xlink="http://www.w3.org/1999/xlink" x="0px" y="0px"
	 viewBox="0 0 600 600" style="enable-background:new 0 0 600 600;" xml:space="preserve">
<style type="text/css">
	.st0{fill:#E8E7E7;}
	.st1{fill:#E7E6E6;}
	.st2{fill:#FFFFFF;}
	.st3{fill:#D3D3D3;}
	.st4{fill:none;stroke:#020203;stroke-width:0.96;stroke-miterlimit:10;}
	.st5{fill:none;stroke:#020203;stroke-width:0.48;stroke-miterlimit:10;}
	.st6{fill:none;stroke:#020203;stroke-width:0.91;stroke-miterlimit:10;}
	.st7{fill:none;stroke:#020203;stroke-width:0.79;stroke-miterlimit:10;}
	.st8{fill:none;stroke:#020203;stroke-width:0.5;stroke-miterlimit:10;}
	.st9{fill:#FFFFFF;stroke:#020203;stroke-width:0.48;stroke-miterlimit:10;}
	.st10{fill:#F2F2F2;stroke:#020203;stroke-width:0.96;stroke-miterlimit:10;}
	.st11{fill:none;stroke:#020203;stroke-width:1.01;stroke-miterlimit:10;}
	.st12{fill:none;stroke:#020203;stroke-miterlimit:10;}
	.st13{fill:none;stroke:#020203;stroke-width:0.53;stroke-miterlimit:10;}
	.st14{fill:none;stroke:#020203;stroke-width:0.75;stroke-miterlimit:10;}
	.st15{fill:none;stroke:#020203;stroke-width:0.71;stroke-miterlimit:10;}
	.st16{fill:none;stroke:#B5241F;stroke-width:1.42;stroke-miterlimit:10;}
	.st17{fill:none;stroke:#B5241F;stroke-width:1.8;stroke-miterlimit:10;}
	.st18{fill:none;stroke:#B5241F;stroke-width:1.38;stroke-miterlimit:10;}
	.st19{fill:none;stroke:#B5241F;stroke-width:1.22;stroke-miterlimit:10;}
	.st20{fill:#B5241F;}
	.st21{fill:none;stroke:#B5241F;stroke-width:1.37;stroke-miterlimit:10;}
	.st22{fill:none;stroke:#B5241F;stroke-width:1.39;stroke-miterlimit:10;}
	.st23{fill:none;stroke:#B5241F;stroke-width:1.28;stroke-miterlimit:10;}
	.st24{fill:none;stroke:#B5241F;stroke-width:1.33;stroke-miterlimit:10;}
	.st25{fill:none;stroke:#B5241F;stroke-width:1.46;stroke-miterlimit:10;}
	.st26{fill:none;stroke:#B5241F;stroke-width:1.29;stroke-miterlimit:10;}
	.st27{fill:none;stroke:#020203;stroke-width:0.42;stroke-miterlimit:10;}
	.st28{fill:none;stroke:#020203;stroke-width:0.95;stroke-miterlimit:10;}
	.st29{fill:none;stroke:#020203;stroke-width:0.83;stroke-miterlimit:10;}
	.st30{fill:none;stroke:#020203;stroke-width:0.52;stroke-miterlimit:10;}
	.st31{fill:none;stroke:#B5241F;stroke-width:1.53;stroke-miterlimit:10;}
	.st32{fill:none;stroke:#B5241F;stroke-width:1.5;stroke-miterlimit:10;}
	.st33{fill:none;stroke:#B5241F;stroke-width:1.51;stroke-miterlimit:10;}
	.st34{fill:none;stroke:#B5241F;stroke-width:1.6;stroke-miterlimit:10;}
	.st35{fill:none;stroke:#D41F19;stroke-width:1.3689;stroke-miterlimit:10;}
	.st36{fill:none;stroke:#D41F19;stroke-width:2.0559;stroke-miterlimit:10;}
	.st37{fill:#D41F19;}
	.st38{fill:none;stroke:#D41F19;stroke-width:1.3723;stroke-miterlimit:10;}
	.st39{fill:none;stroke:#D41F19;stroke-width:1.4294;stroke-miterlimit:10;}
	.st40{fill:none;stroke:#D41F19;stroke-width:1.8389;stroke-miterlimit:10;}
	.st41{fill:none;stroke:#D41F19;stroke-width:1.4538;stroke-miterlimit:10;}
	.st42{fill:none;stroke:#000000;stroke-width:0.5;stroke-miterlimit:10;}
	.st43{fill:none;stroke:#000000;stroke-miterlimit:10;}
	.st44{fill:none;stroke:#000000;stroke-width:0.4155;stroke-miterlimit:10;}
	.st45{fill:none;stroke:#000000;stroke-width:0.9506;stroke-miterlimit:10;}
	.st46{fill:none;stroke:#000000;stroke-width:0.827;stroke-miterlimit:10;}
	.st47{fill:none;stroke:#000000;stroke-width:0.5195;stroke-miterlimit:10;}
	.st48{fill:none;stroke:#000000;stroke-width:0.4172;stroke-miterlimit:10;}
	.st49{fill:none;stroke:#000000;stroke-width:0.419;stroke-miterlimit:10;}
	.st50{fill:none;stroke:#D41F19;stroke-width:1.4161;stroke-miterlimit:10;}
	.st51{fill:none;stroke:#D41F19;stroke-width:1.7984;stroke-miterlimit:10;}
	.st52{fill:none;stroke:#D41F19;stroke-width:1.2223;stroke-miterlimit:10;}
	.st53{fill:none;stroke:#D41F19;stroke-width:1.359;stroke-miterlimit:10;}
	.st54{fill:none;stroke:#D41F19;stroke-width:1.3456;stroke-miterlimit:10;}
	.st55{fill:none;stroke:#D41F19;stroke-width:1.1098;stroke-miterlimit:10;}
	.st56{fill:none;stroke:#D41F19;stroke-width:1.3365;stroke-miterlimit:10;}
	.st57{fill:none;stroke:#D41F19;stroke-width:1.3941;stroke-miterlimit:10;}
	.st58{fill:none;stroke:#D41F19;stroke-width:1.4643;stroke-miterlimit:10;}
	.st59{fill:none;stroke:#D41F19;stroke-width:1.3019;stroke-miterlimit:10;}
	.st60{fill:none;stroke:#D41F19;stroke-width:1.2895;stroke-miterlimit:10;}
	.st61{fill:none;stroke:#000000;stroke-width:0.96;stroke-miterlimit:10;}
	.st62{fill:none;stroke:#000000;stroke-width:0.48;stroke-miterlimit:10;}
	.st63{fill:none;stroke:#000000;stroke-width:0.9126;stroke-miterlimit:10;}
	.st64{fill:none;stroke:#000000;stroke-width:0.7939;stroke-miterlimit:10;}
	.st65{fill:none;stroke:#000000;stroke-width:0.4988;stroke-miterlimit:10;}
	.st66{fill:#FFFFFF;stroke:#000000;stroke-width:0.48;stroke-miterlimit:10;}
	.st67{fill:#F3F2F2;stroke:#000000;stroke-width:0.96;stroke-miterlimit:10;}
	.st68{fill:none;stroke:#000000;stroke-width:0.5045;stroke-miterlimit:10;}
	.st69{fill:none;stroke:#000000;stroke-width:1.0089;stroke-miterlimit:10;}
	.st70{fill:#D4D4D5;}
	.st71{fill:none;stroke:#020203;stroke-width:0.7361;stroke-miterlimit:10;}
	.st72{fill:none;stroke:#020203;stroke-width:0.368;stroke-miterlimit:10;}
	.st73{fill:none;stroke:#020203;stroke-width:0.6997;stroke-miterlimit:10;}
	.st74{fill:none;stroke:#020203;stroke-width:0.6087;stroke-miterlimit:10;}
	.st75{fill:none;stroke:#020203;stroke-width:0.3824;stroke-miterlimit:10;}
	.st76{fill:#FFFFFF;stroke:#020203;stroke-width:0.368;stroke-miterlimit:10;}
	.st77{fill:#F3F2F2;stroke:#020203;stroke-width:0.7361;stroke-miterlimit:10;}
	.st78{fill:none;stroke:#020203;stroke-width:0.3868;stroke-miterlimit:10;}
	.st79{fill:none;stroke:#020203;stroke-width:0.7736;stroke-miterlimit:10;}
	.st80{fill:none;stroke:#020203;stroke-width:0.3058;stroke-miterlimit:10;}
	.st81{fill:none;stroke:#D41F19;stroke-width:1.5373;stroke-miterlimit:10;}
	.st82{fill:none;stroke:#D41F19;stroke-width:1.2259;stroke-miterlimit:10;}
	.st83{fill:none;stroke:#D41F19;stroke-width:1.5;stroke-miterlimit:10;}
	.st84{fill:none;stroke:#D41F19;stroke-width:1.199;stroke-miterlimit:10;}
	.st85{fill:none;stroke:#D41F19;stroke-width:1.274;stroke-miterlimit:10;}
	.st86{fill:none;stroke:#020203;stroke-width:0.9506;stroke-miterlimit:10;}
	.st87{fill:none;stroke:#020203;stroke-width:0.827;stroke-miterlimit:10;}
	.st88{fill:none;stroke:#020203;stroke-width:0.5195;stroke-miterlimit:10;}
	.st89{fill:#FFFFFF;stroke:#020203;stroke-width:0.5;stroke-miterlimit:10;}
	.st90{fill:#F3F2F2;stroke:#020203;stroke-miterlimit:10;}
	.st91{fill:none;stroke:#020203;stroke-width:0.5255;stroke-miterlimit:10;}
	.st92{fill:none;stroke:#020203;stroke-width:1.0509;stroke-miterlimit:10;}
	.st93{fill:none;stroke:#020203;stroke-width:0.4155;stroke-miterlimit:10;}
	.st94{fill:none;}
	.st95{fill:none;stroke:#D41F19;stroke-width:1.4493;stroke-miterlimit:10;}
	.st96{fill:none;stroke:#D41F19;stroke-width:1.3972;stroke-miterlimit:10;}
	.st97{fill:none;stroke:#D41F19;stroke-width:1.4149;stroke-miterlimit:10;}
	.st98{fill:none;stroke:#D41F19;stroke-width:1.5415;stroke-miterlimit:10;}
	.st99{fill:none;stroke:#D41F19;stroke-width:1.4077;stroke-miterlimit:10;}
	.st100{fill:none;stroke:#D41F19;stroke-width:1.362;stroke-miterlimit:10;}
	.st101{fill:none;stroke:#D41F19;stroke-width:1.3128;stroke-miterlimit:10;}
	.st102{fill:#F3F3F3;stroke:#020203;stroke-width:0.96;stroke-miterlimit:10;}
	.st103{fill:#FFFFFF;stroke:#020203;stroke-width:0.96;stroke-miterlimit:10;}
	.st104{fill:#FFFFFF;stroke:#020203;stroke-width:0.87;stroke-miterlimit:10;}
	.st105{fill:#FFFFFF;stroke:#020203;stroke-width:0.3;stroke-miterlimit:10;}
	.st106{fill:none;stroke:#B5241F;stroke-width:1.91;stroke-miterlimit:10;}
	.st107{fill:none;stroke:#B5241F;stroke-width:1.45;stroke-miterlimit:10;}
	.st108{fill:none;stroke:#B5241F;stroke-width:1.47;stroke-miterlimit:10;}
	.st109{fill:none;stroke:#B5241F;stroke-width:1.36;stroke-miterlimit:10;}
	.st110{fill:none;stroke:#B5241F;stroke-width:1.41;stroke-miterlimit:10;}
	.st111{fill:none;stroke:#B5241F;stroke-width:1.55;stroke-miterlimit:10;}
	.st112{fill:#FFFFFF;stroke:#020203;stroke-width:0.51;stroke-miterlimit:10;}
	.st113{fill:#F2F2F2;stroke:#020203;stroke-width:1.02;stroke-miterlimit:10;}
	.st114{fill:none;stroke:#020203;stroke-width:1.02;stroke-miterlimit:10;}
	.st115{fill:none;stroke:#020203;stroke-width:0.51;stroke-miterlimit:10;}
	.st116{fill:none;stroke:#020203;stroke-width:0.97;stroke-miterlimit:10;}
	.st117{fill:none;stroke:#020203;stroke-width:0.84;stroke-miterlimit:10;}
	.st118{fill:#F3F3F3;stroke:#020203;stroke-width:1.02;stroke-miterlimit:10;}
	.st119{fill:none;stroke:#020203;stroke-width:1.07;stroke-miterlimit:10;}
	.st120{fill:none;stroke:#020203;stroke-width:1.06;stroke-miterlimit:10;}
	.st121{fill:none;stroke:#020203;stroke-width:0.56;stroke-miterlimit:10;}
	.st122{fill:#FFFFFF;stroke:#020203;stroke-width:0.75;stroke-miterlimit:10;}
	.st123{fill:none;stroke:#020203;stroke-width:0.49;stroke-miterlimit:10;}
</style>
<polygon class="st2" points="336.2,400.2 339,405 340.6,416.1 362.7,412 360.3,396.7 367.3,391.2 "/>
<polygon class="st2" points="271.6,473.1 273.6,486.6 296.8,491.1 303.3,497.2 308,546.7 308.2,551.8 308.2,556.8 308.7,576.3 
	319.7,576.3 319.4,557.7 318.1,556.4 318.5,555.9 318.4,549.6 323.7,496 339.3,486.1 393.3,493 391.8,477.8 387.7,475.3 
	391.1,474.7 386.4,468.4 376.9,469.2 378,472.8 381.7,477.8 379.4,476.9 376.8,481.8 356.4,477.8 346.2,468.4 321.5,468.4 
	282.5,467.7 "/>
<polygon class="st2" points="234.7,478.1 238.8,475.1 236.3,475.3 236.7,471.5 250.9,470.7 249.8,473 246,476.3 248.9,478.9 
	250.9,485.2 234.6,488.8 "/>
<polyline class="st2" points="447.6,520.5 443.5,519 437.1,519 435.8,519.7 437.4,535.5 447.8,520.5 "/>
<polyline class="st2" points="178.6,520.3 182.7,518.8 189.2,518.8 190.5,519.6 188.8,535.3 178.4,520.3 "/>
<rect x="302.3" y="418.4" class="st2" width="22.8" height="20"/>
<g>
	<g>
		<path class="st2" d="M447.6,355.3c-9-16-53.1-21-64.2-19.9c-3.1,3.5-3.8,4.4-7.4,12.1c7.7-0.2,22.7,1.3,36.2,3.8
			C432.2,355,445.3,356.8,447.6,355.3z"/>
		<path class="st2" d="M226.9,344.1c0,0-0.7-12.3,12.8-13.4c11-0.9,24.1-3.7,39.6-0.2c54.3-7.1,65.5-4.9,75.7-3
			c1.4,4.8-0.5,5.6,0.8,7.4c-1.6,4.8-7.8,13-7.8,13s-15.4-1.1-35.8,1c-27.1,2.8-59.7,5.6-73.6,8.3
			C235.7,357.7,226.9,344.1,226.9,344.1z"/>
		<path class="st2" d="M233.6,304.6l-5.8,36c0,0,3.9-7.9,6-8.7c0.5-1,7.8-37.9,5.5-35.8C237.5,297.9,233.6,304.6,233.6,304.6z"/>
		<path class="st2" d="M183.5,186.5c0,0,27.6,32.7,48.9,80.8c-1.9,2.5-9.5,3-9.5,3S189.5,200.8,183.5,186.5z"/>
		<path class="st2" d="M180.3,164.2c0,0,3.3-0.1,13.6,17.7c5.1,8.8,12.5,17.9,14.2,20.6c0,0,11.4,16.7,22.3,39.4
			c2.6,5.5,2.9,12,4.4,18.2c1.9,6.2,2.5,6.8,2.5,6.8l-4.7,1.5c0,0-5.4-17.9-15.5-34.1c-1-1.7-7.8-12-13.8-23.1
			C193.2,192,177.9,165.6,180.3,164.2z"/>
		<g>
			<g>
				<path class="st2" d="M328.2,434c0,1.2,0.5,41,0.5,41s-12.1,6.4-30.3-0.7c0.6-16.3,1.3-40.5,1.3-40.5s1.4-1.3,3-1.5"/>
				<path class="st2" d="M325.1,432.2c0,0,2.4,0.2,2.9,1.6c-16.8,4.2-28.5-0.1-28.5-0.1"/>
				<g>
					<path class="st2" d="M298.4,467.9c0,0-27.7-10.6-54.7-3.3c-11,1.8-8.2,10.5-8.2,10.5h1.7c0,0,0-1.5,0.7-1.9
						c1.1-0.7,16.3-3.3,34.1,4.4"/>
					<path class="st2" d="M237.2,475c0,0,3.8,1.9,8.2,0.9c4.4-1,4.4-3.7,4.4-3.7"/>
					<path class="st2" d="M291.6,474.8c0,0-64.2,6.1-110.2,30.7c0,0-4.3,0.8-4.8,4.7s0.4,5.4,0.2,6.2s6,3.4,12,0.7
						c1.2-2.4,3.6-5,8.3-5.9s44.6-16.6,99.6-18c2.6,1.7,4.7,2.5,5.1,2.7"/>
					<path class="st2" d="M189,516.9c0,0,4.2,0.2,4.4-4.4"/>
					<path class="st2" d="M328.3,467.9c0,0,27.7-10.6,54.7-3.3c11,1.8,8.2,10.5,8.2,10.5h-1.7c0,0,0-1.5-0.7-1.9
						c-1.1-0.7-16.3-3.3-34.1,4.4"/>
					<path class="st2" d="M389.5,475c0,0-3.8,1.9-8.2,0.9c-4.4-1-4.4-3.7-4.4-3.7"/>
					<path class="st2" d="M335.1,474.8c0,0,64.2,6.1,110.2,30.7c0,0,4.3,0.8,4.8,4.7s-0.4,5.4-0.2,6.2c0.1,0.7-6,3.4-12,0.7
						c-1.2-2.4-3.6-5-8.3-5.9s-44.6-16.6-99.6-18c-2.6,1.7-4.7,2.5-5.1,2.7"/>
					<path class="st2" d="M437.7,516.9c0,0-4.2,0.2-4.4-4.4"/>
					<path class="st2" d="M301.9,482.6c0,0,1.5,48.6,2.4,54.8c0.9,6.3,0,11.5,0,11.5s3,4.9,9.3,5.1"/>
					<path class="st2" d="M325.3,482.6c0,0-1.5,48.6-2.4,54.8s0,11.5,0,11.5s-3,4.9-9.3,5.1"/>
				</g>
				<g>
					<path class="st2" d="M225.8,487.9c0,0-0.8-9.7,4.1-10c4.9-0.3,7.6,6.7,7.6,6.7"/>
					<path class="st2" d="M229.7,478l4.7-1.1c0,0,5.1,1.9,5.9,7.2"/>
					<path class="st2" d="M240.4,476v1.1c0,0,3.3,1.5,5.3,0c0-0.6,0-1.2,0-1.2"/>
					<path class="st2" d="M240.3,476.6c0,0-1.1,0.2-1.1,0.8c0,0.5,5.6,2.3,8-0.1c-0.3-0.8-1.5-0.7-1.5-0.7"/>
					<path class="st2" d="M235.6,477.4c0,0,1.4-1,2.7-1.9"/>
					<path class="st2" d="M246,475.9c0,0,2.7,1.1,3.8,5.6"/>
					<polyline class="st2" points="226.9,480.9 229.9,486.7 229.1,487 226.1,482.7 					"/>
					<line class="st2" x1="229.2" y1="478.1" x2="230.4" y2="486.4"/>
					<line class="st2" x1="231.1" y1="478.1" x2="231" y2="486.4"/>
					<path class="st2" d="M234.9,480.4c0,0-3,5.4-3.1,5.7"/>
					<line class="st2" x1="233.2" y1="485.8" x2="236.1" y2="482.1"/>
				</g>
				<g>
					<path class="st2" d="M400.9,487.9c0,0,0.8-9.7-4.1-10c-4.9-0.3-7.6,6.7-7.6,6.7"/>
					<path class="st2" d="M397,478l-4.7-1.1c0,0-5.1,1.9-5.9,7.2"/>
					<path class="st2" d="M386.3,476v1.1c0,0-3.3,1.5-5.3,0c0-0.6,0-1.2,0-1.2"/>
					<path class="st2" d="M386.4,476.6c0,0,1.1,0.2,1.1,0.8c0,0.5-5.6,2.3-8-0.1c0.3-0.8,1.5-0.7,1.5-0.7"/>
					<line class="st2" x1="387.5" y1="477.3" x2="387.5" y2="480.6"/>
					<line class="st2" x1="379.6" y1="477.3" x2="379.6" y2="482.3"/>
					<path class="st2" d="M391.1,477.4c0,0-1.4-1-2.7-1.9"/>
					<path class="st2" d="M380.7,475.9c0,0-2.7,1.1-3.8,5.6"/>
					<polyline class="st2" points="399.8,480.9 396.8,486.7 397.7,487 400.6,482.7 					"/>
					<line class="st2" x1="397.5" y1="478.1" x2="396.3" y2="486.4"/>
					<line class="st2" x1="395.6" y1="478.1" x2="395.7" y2="486.4"/>
					<path class="st2" d="M391.8,480.4c0,0,3,5.4,3.1,5.7"/>
					<line class="st2" x1="393.5" y1="485.8" x2="390.6" y2="482.1"/>
				</g>
				<path class="st2" d="M181.9,518.1c-0.4-0.1-2.1,1,1.2,1.5c2.5,0.4,6.8,0,7.1-0.7s-1-1.1-1.5-1.1"/>
				<path class="st2" d="M190.2,518.8l-0.4,11c0,0-0.2,1-0.6,1.2"/>
				<g>
					<ellipse class="st2" cx="175.9" cy="534.5" rx="13.8" ry="13.6"/>
					<ellipse class="st2" cx="175.9" cy="534.5" rx="12" ry="11.8"/>
					<path class="st2" d="M181.1,519.8c-2.1-1-6.1-2.4-11.1-0.2c-5,2.3-7.3,7.1-7.4,11.3"/>
					<path class="st2" d="M171.8,523.4l3.2,9.3c0,0-0.3,0.1-0.6,0.5c-0.8-0.5-7.9-5.9-7.9-5.9"/>
					<path class="st2" d="M181.4,524l-4.3,8.6c0,0-0.7-0.2-1.1-0.1c-0.3-1.8-1.2-9.8-1.2-9.8"/>
					<path class="st2" d="M187.2,530.4l-8.5,3.5c0,0-0.1-0.3-0.4-0.7c0.6-0.8,5.7-7.5,5.7-7.5"/>
					<path class="st2" d="M186.9,539.5l-8.3-3.7c0,0,0.2-0.4,0.2-0.8c1-0.2,9-2.2,9-2.2"/>
					<path class="st2" d="M180.3,545.5l-2.8-8.4c0,0,0.3-0.1,0.7-0.5c0.8,0.5,7.1,5.3,7.1,5.3"/>
					<path class="st2" d="M171.3,545.3l4.2-8.1c0,0,0.5,0.1,0.9,0.1c0.3,1.8,1,7.9,1.1,8.9"/>
					<path class="st2" d="M165.1,539.5l8.7-3.6c0,0,0.1,0.3,0.4,0.7c-0.6,0.8-5.5,7.2-5.5,7.2"/>
					<path class="st2" d="M164.8,530l9,4.1c0,0-0.2,0.4-0.2,0.8c-1,0.2-9.4,2.2-9.4,2.2"/>
				</g>
				<g>
					<ellipse class="st2" cx="450.5" cy="534.5" rx="13.8" ry="13.6"/>
					<ellipse class="st2" cx="450.5" cy="534.5" rx="12" ry="11.8"/>
					<path class="st2" d="M445.3,519.8c2.1-1,6.1-2.4,11.1-0.2c5,2.3,7.3,7.1,7.4,11.3"/>
					<path class="st2" d="M454.6,523.4l-3.2,9.3c0,0,0.3,0.1,0.6,0.5c0.8-0.5,7.9-5.9,7.9-5.9"/>
					<path class="st2" d="M444.9,524l4.3,8.6c0,0,0.7-0.2,1.1-0.1c0.3-1.8,1.2-9.8,1.2-9.8"/>
					<path class="st2" d="M439.2,530.4l8.5,3.5c0,0,0.1-0.3,0.4-0.7c-0.6-0.8-5.7-7.5-5.7-7.5"/>
					<path class="st2" d="M439.5,539.5l8.3-3.7c0,0-0.2-0.4-0.2-0.8c-1-0.2-9-2.2-9-2.2"/>
					<path class="st2" d="M446.1,545.5l2.8-8.4c0,0-0.3-0.1-0.7-0.5c-0.8,0.5-7.1,5.3-7.1,5.3"/>
					<path class="st2" d="M455.1,545.3l-4.2-8.1c0,0-0.5,0.1-0.9,0.1c-0.3,1.8-1,7.9-1.1,8.9"/>
					<path class="st2" d="M461.3,539.5l-8.7-3.6c0,0-0.1,0.3-0.4,0.7c0.6,0.8,5.5,7.2,5.5,7.2"/>
					<path class="st2" d="M461.6,530l-9,4.1c0,0,0.2,0.4,0.2,0.8c1,0.2,9.4,2.2,9.4,2.2"/>
				</g>
				<path class="st2" d="M444.5,518.3c0.4-0.1,2.1,1-1.2,1.5c-2.5,0.4-6.8,0-7.1-0.7c-0.3-0.6,1-1.1,1.5-1.1"/>
				<line class="st2" x1="437.8" y1="517.4" x2="437.8" y2="519.4"/>
				<line class="st2" x1="445.3" y1="519" x2="445.3" y2="522"/>
				<path class="st2" d="M436.2,519l0.4,11c0,0,0.2,1,0.6,1.2"/>
				<path class="st2" d="M309.6,556.5h-5.3c0,0-1.3,5.4-1.1,13.9c0,0.5-0.7,1.3-0.7,1.3l-0.1,1.7c0,0,0.5,0.5,0.5,0.8
					c0.1,7.3,1.2,12.5,1.2,12.5l5.2,0.3C309.4,587,310.3,558.7,309.6,556.5z"/>
				<path class="st2" d="M304.3,556.5c0,0-0.2,12.6-0.2,30.2"/>
				<path class="st2" d="M317.2,556.5h5.3c0,0,1.3,5.4,1.1,13.9c0,0.5,0.7,1.3,0.7,1.3l0.1,1.7c0,0-0.5,0.5-0.5,0.8
					c-0.1,7.3-1.2,12.5-1.2,12.5l-5.2,0.3C317.5,587,316.5,558.7,317.2,556.5z"/>
				<path class="st2" d="M322.5,556.5c0,0,0.2,12.6,0.2,30.2"/>
				<path class="st2" d="M306.9,416.6c0,0-4,0.3-4.3,1.5c-0.2,1.2,8.2,2.2,12,2.1c3.8,0,11.1-0.6,10.5-2.1c-0.6-1.5-4-1.5-4-1.5"/>
				<path class="st2" d="M306.9,410.5v7.5c0,0,8,1.8,14.3,0c0-1.8,0-6.8,0-6.8"/>
			</g>
			<path class="st2" d="M302.2,401.2c-0.5-1.6,0.2-5.3,0.5-6.2c0.3-0.9,0.8-2.2,2.5-2.2s2,2.2,2,2.2s-0.1,6-1,7"/>
			<path class="st2" d="M267.9,395.2c0,0,22.4,3.2,28.7,8.1c4,1.9,9.3,1.7,20.5,1.7c11.2,0.1,21.2-0.7,21.2-0.7s3.8,0,5.4-2.3
				c1.7-2.4,14.2-6.9,14.2-6.9s8.8-2.6,11.9-2.9c1.3-0.6,2.1-1.6,2.2-2.6"/>
			<path class="st2" d="M297.2,403.6c0,0,0.6,4.2,4.4,4.9c3.8,0.7,5.4,2.3,7.1,2.6c1.6,0.4,11.5,0,11.5,0s1.5,0.1,2.1-1
				c0.9-1.3,2.4-2.4,3.4-2.7c1-0.3,5.6-1.9,6.1-2.7"/>
			<circle class="st2" cx="322.9" cy="399.5" r="3.1"/>
			<path class="st2" d="M305.9,401.1c0,0,0.2-3.3-1.5-3.2c-2,0.1-2,2.9-2,2.9s0,9.8-0.1,10.9c-0.1,1.1-3.9,14.7-4.4,15.6
				c1.7,0.6,3.3,1.1,3.3,1.1l3.9-12.6c0,0,0.7-2.4,0.6-4.3S305.9,401.1,305.9,401.1"/>
			<path class="st2" d="M297.9,427.4l-0.9-0.3l-8.8,24.8c0,0-0.5,1.7,0.2,2.1c0,0,3.6,1.3,4,1.3c0.3,0,2.5-3.5,3-5
				c0.5-1.5,0.4-2.1,0.2-2.8c-0.3-0.7,0.3-1.1,0.6-1.5c0.3-0.4,1-2,0.9-2.9c-0.1-0.9,1-1.1,1.5-2s3.6-12.1,3.6-12.1L297.9,427.4z"/>
			<g>
				<polyline class="st2" points="360.4,397.5 361.3,398.2 359.7,399.6 361.7,399.9 360,401.2 361.9,401.7 360.5,402.9 362.1,403.3 
					360.7,404.8 362.4,405.3 361.1,406.6 362.7,407.1 361.5,408.2 363,408.8 362.2,409.8 				"/>
				<polyline class="st2" points="338.7,404.1 337.9,404.7 339.5,405.1 338.1,406.2 339.8,406.6 338.4,407.8 340,408.2 338.6,409.4 
					340.3,410 338.9,411 340.6,411.8 339.4,412.6 340.3,413.2 				"/>
				<line class="st2" x1="361.2" y1="398.3" x2="343.8" y2="402"/>
				<line class="st2" x1="361.7" y1="399.9" x2="338" y2="404.8"/>
				<line class="st2" x1="361.6" y1="401.8" x2="338.6" y2="406.1"/>
				<line class="st2" x1="362" y1="403.3" x2="338.7" y2="407.7"/>
				<line class="st2" x1="362.4" y1="405.3" x2="339" y2="409.4"/>
				<line class="st2" x1="362.6" y1="407.2" x2="339.2" y2="411.1"/>
				<line class="st2" x1="363" y1="408.8" x2="339.6" y2="412.5"/>
			</g>
			<path class="st2" d="M338.8,413.3l25.2-3.5l2.6,17.6c0,0-5.1,4.8-12.1,5.8c-7,1-13-2-13-2L338.8,413.3z"/>
			<path class="st2" d="M341.3,431.3c0,0,12.2,0.7,25.3-4"/>
			<path class="st2" d="M364.9,393.1c0,0-0.2,1.6-2.5,3.2c-2.1,1.5-7.1,3.2-7.1,3.2"/>
			<path class="st2" d="M217.4,368.7c0,0-3.5,8.8-2.9,13.1c0.6,4.2,0.8,13,13.8,14.8c22.2,3.5,49.3-2.9,58-5.5"/>
			<path class="st2" d="M273.1,395.9c0,0,36-4.7,46-4.1"/>
			<path class="st2" d="M345.9,390.3c0,0,50-2,59.8,0.2s39.3,5.3,41.2,4.3c1.9-1,9.6-19,9.3-28.5c-0.3-9.6-1.9-14.2-8.2-20.9
				s-20-19.2-23.2-20.7c-3.3-1.5-17-7-31.3-7.6"/>
			<path class="st2" d="M246.4,330.4l107.7-13.8l31.4-2.4l-40.3,72.2l-48.1,13.1c0,0-27-4.9-40.1-6.2c-10.4-1.1-21-8.7-26.7-13.3
				c-7.6-6.2-13.3-10.3-25.2-26.3c-10.9-11.5-8.5-24.4-7.7-30.7c0.7-6.3,5.3-27.7,5.3-27.7l43-18.5v8.7l-5,9.2l-0.6,27.1"/>
			<path class="st2" d="M372.3,279.2c0,0-1.7,34.9-21.9,65.6l-8.3,11.7c0,0-3.4,18.3-13.4,23.4c0,0-7.2,6-8.6,7.3
				c-1.4,1.4-2.7,5.5,3.4,8.6c6.1,3.1,15.2,0.7,18.7-2.1c3.5-2.8,9.7-11.3,9.7-11.3s35.8-50.2,41-64.5c5.2-14.2,8.2-15.8,8.2-15.8"
				/>
			<path class="st2" d="M239.5,266.9c0,0-37,7.7-40.3,8.5c-3.3,0.7-4.8,1.9-4.2,5.9c0.6,4,2.7,11.6,5,14.2c2.3,2.6,0.7,2.7,5.4,1.8
				c4.7-0.8,45.3-13.4,45.8-13.5c0.5-0.1,79.5-25.4,107.9-12.3c26.2,14.5,43,31.6,43,31.6s2.5,3.1,3.8,1c1.4-2.1,3.5-3.1,2.8-5.7
				c-0.7-2.6,0-6.3,1.9-7.6c1.9-1.3,1.7-3,1.7-3s1.9-3.8-2.2-5.8c-4.1-2-27.3-18.8-56-22.3s-81.7,4.4-104.8,8.4
				C239.1,269.8,239.5,266.9,239.5,266.9z"/>
			<path class="st2" d="M226.8,344.5c0,0,4-10.4,6.7-11.8c2.7-1.4,13-5.4,26-7.2c13-1.8,88.1-12.5,105.1-9.8"/>
			<path class="st2" d="M408.6,299.3c0,0-32.6-32.2-67.8-35.2c-27.6-3.7-78.9,13.7-83.5,14.5c-4.6,0.8-41.4,11.9-49.1,13.1
				c-8.3-1.6-5.2-9-4.1-10.5c1-1.5,8.2-2.6,8.2-2.6s80.9-12.9,89.7-14.1c8.9-1.2,30.7-4,49-0.3c18.5,3.8,42.9,14.8,57.2,25.9"/>
			<circle class="st2" cx="209.8" cy="285.5" r="4.6"/>
			<circle class="st2" cx="207.3" cy="331.3" r="4.6"/>
			<circle class="st2" cx="258.1" cy="383.1" r="4.6"/>
			<circle class="st2" cx="346.3" cy="373.3" r="4.6"/>
			<path class="st2" d="M237.8,357.3c0,0,82.9-10.9,110.5-9.5"/>
			<path class="st2" d="M376.1,346.9c0,0,29.6,2.9,42.3,5.5c12.8,2.7,30.8,7.6,34.2-1.1"/>
			<path class="st2" d="M228.3,346.5c0,0,35.4-2.7,47-3.9c11.6-1.2,68.9-8.4,81-7.8"/>
			<path class="st2" d="M383.4,335.4c0,0,33.8,1.8,46.7,7.7c13,5.9,18.1,12.3,18.1,12.3"/>
			<path class="st2" d="M232.9,332.2c0,0,24.5-6.5,46.5-1.7c19.7-2.4,65-7,76.1-2.9c0.8,3.6-0.4,7.2-0.4,7.2"/>
			<path class="st2" d="M279.3,330.5c0,0-2.1,10.9-2.3,12"/>
			<path class="st2" d="M355.4,327.6c0,0,2-0.9,4.1-0.9"/>
			<path class="st2" d="M390.4,323.1c0,0,27.1-0.7,37.3,3.8"/>
			<path class="st2" d="M384,335.4c0,0,56.4-0.4,68.9,16.5"/>
			<path class="st2" d="M392.4,253.1c-2.9-5.9-11.5-10.9-26-16c-16.7-5.9-45.1-6.1-56.5-5.6c-23.5,1.1-51.9,9.2-56.3,12
				c-4.4,2.8-4.4,6.3-4.4,6.3l-7,2.7l-6.3,5.2l13,19.1l70.1-15.1l41.1,2.8l-4.4,23.4l-5.3,16.9l-6.2,10.8l9.6,7.4l20.5-1l14.9-24.1
				l21.4-14.6l3.4-4.1l2.2-6.4l-0.6-4.3L400,257L392.4,253.1z"/>
			<path class="st2" d="M241.5,292.4c0,0-2.1,35.1-2.9,38.1"/>
			<line class="st2" x1="239.5" y1="321.3" x2="245.7" y2="328.3"/>
			<path class="st2" d="M224.3,318.6c0,0-1.8,15.9-2.6,17.8"/>
			<path class="st2" d="M233.3,304.6c0,0-4.1,35.7-6.7,39.5"/>
			<path class="st2" d="M239.5,295.3c0,0-0.1,5.4-0.4,7.4c-0.3,2-4.3,27.7-6.3,30.4"/>
			<line class="st2" x1="233.3" y1="305.7" x2="239.3" y2="300.9"/>
			<path class="st2" d="M217.2,368.2c0,0-1.7,13.7-15.9,12c-14.2-1.7-13.2-34.1-13.2-34.1s2-30.8-1.1-48.6
				c-3.1-17.8-17.7-62-27.1-80c-12.2-23.3-23.4-60.5-23.4-60.5s-12.1-43.8-11.5-50.4c0.6-6.6-5.9-58.5-4-62.1
				c1.9-3.6,3.8-22.9,27.8-17.9s34.3,50.1,34.3,50.1s7.7,33.1-6.4,61.5"/>
			<path class="st2" d="M179.8,131.4c0,0,24.1,57.5,26.2,60.6c2.1,3.1,31.5,56.8,32.9,63"/>
			<path class="st2" d="M151.5,43.2c0,0,2.3,56.6,3.3,60.2c1,3.6,3.7,29.8,6.9,38.6s57.7,120,61.1,128.3"/>
			<path class="st2" d="M181.1,183.4c0,0,27.1,35.8,35,51.3s15.1,29.8,15.2,33.9"/>
			<path class="st2" d="M125.1,109.3c0,0,8.7-13.1,29.7-5.9"/>
			<path class="st2" d="M237.4,266.9c0,0-1.1-3.5-2.2-4.5c-0.6-3.6-3.2-18-5.4-21.7c-2.2-3.7-16.7-32.1-23.2-40
				c-6.5-8-21.1-32.2-23-34.2c-1-1.4-3.8-3.7-4-1.3c0,0,14.9,31.7,16.9,34.3c2,2.7,12.6,22.8,12.6,22.8s17.9,25,21.5,41.7
				c0.4,1.6,1.3,4.4,1.3,4.4"/>
			<path class="st2" d="M183.5,166.2c0,0-0.9-3.6-1.6-5.1s-5.4-17.1-4.6-16.9s6.4,11.9,6.4,11.9s4,10.7,2.6,14.1"/>
			<path class="st2" d="M167.9,134.4c0,0,9.5,25.6,11.9,30.8"/>
			<path class="st2" d="M176,138.4c0,0,0.4,4.1,2.4,12"/>
			<path class="st2" d="M391,304c0,0-6.8-8-10.7-7.8c-3.9,0.1-5.2,6.7-5.2,6.7s-12.9,36.9-22.9,50.7c-7.5,10.3,2.6,13.3,2.6,13.3
				s3.3,1.5,5.7-3.1c4.1-5.7,29-46,30.6-52.2C392.6,305.3,391,304,391,304z"/>
		</g>
	</g>
	<polygon class="st2" points="211.9,198.4 242.8,263.1 256,270.4 201.3,287 172.6,172.5 179.8,131.4 	"/>
</g>
<g>
	<path class="st70" d="M447.6,355.4c-9-16-53.1-21-64.2-19.9c-3.1,3.5-3.8,4.4-7.4,12.1c7.7-0.2,22.7,1.3,36.2,3.8
		C432.2,355,445.3,356.8,447.6,355.4z"/>
	<path class="st70" d="M226.9,344.2c0,0-0.7-12.3,12.8-13.4c11-0.9,24.1-3.7,39.6-0.2c54.3-7.1,65.5-4.9,75.7-3
		c1.4,4.8-0.5,5.6,0.8,7.4c-1.6,4.8-7.8,13-7.8,13s-15.4-1.1-35.8,1c-27.1,2.8-59.7,5.6-73.6,8.3
		C235.7,357.8,226.9,344.2,226.9,344.2z"/>
	<path class="st70" d="M233.6,304.6l-5.8,36c0,0,3.9-7.9,6-8.7c0.5-1,7.8-37.9,5.5-35.8C237.5,297.9,233.6,304.6,233.6,304.6z"/>
	<path class="st70" d="M183.5,186.6c0,0,27.6,32.7,48.9,80.8c-1.9,2.5-9.5,3-9.5,3S189.5,200.8,183.5,186.6z"/>
	<path class="st70" d="M180.3,164.2c0,0,3.3-0.1,13.6,17.7c5.1,8.8,12.5,17.9,14.2,20.6c0,0,11.4,16.7,22.3,39.4
		c2.6,5.5,2.9,12,4.4,18.2c1.9,6.2,2.5,6.8,2.5,6.8l-4.7,1.5c0,0-5.4-17.9-15.5-34.1c-1-1.7-7.8-12-13.8-23.1
		C193.2,192.1,177.9,165.6,180.3,164.2z"/>
	<g>
		<g>
			<path class="st71" d="M328.2,434c0,1.2,0.5,41,0.5,41s-12.1,6.4-30.3-0.7c0.6-16.3,1.3-40.5,1.3-40.5s1.4-1.3,3-1.5"/>
			<path class="st71" d="M325.1,432.3c0,0,2.4,0.2,2.9,1.6c-16.8,4.2-28.5-0.1-28.5-0.1"/>
			<g>
				<path class="st71" d="M298.4,467.9c0,0-27.7-10.6-54.7-3.3c-11,1.8-8.2,10.5-8.2,10.5h1.7c0,0,0-1.5,0.7-1.9
					c1.1-0.7,16.3-3.3,34.1,4.4"/>
				<path class="st72" d="M237.2,475.1c0,0,3.8,1.9,8.2,0.9c4.4-1,4.4-3.7,4.4-3.7"/>
				<path class="st71" d="M291.6,474.8c0,0-64.2,6.1-110.2,30.7c0,0-4.3,0.8-4.8,4.7c-0.5,3.9,0.4,5.4,0.2,6.2
					c-0.1,0.7,6,3.4,12,0.7c1.2-2.4,3.6-5,8.3-5.9c4.7-0.9,44.6-16.6,99.6-18c2.6,1.7,4.7,2.5,5.1,2.7"/>
				<path class="st72" d="M189,516.9c0,0,4.2,0.2,4.4-4.4"/>
				<path class="st71" d="M328.3,467.9c0,0,27.7-10.6,54.7-3.3c11,1.8,8.2,10.5,8.2,10.5h-1.7c0,0,0-1.5-0.7-1.9
					c-1.1-0.7-16.3-3.3-34.1,4.4"/>
				<path class="st72" d="M389.5,475.1c0,0-3.8,1.9-8.2,0.9c-4.4-1-4.4-3.7-4.4-3.7"/>
				<path class="st71" d="M335.1,474.8c0,0,64.2,6.1,110.2,30.7c0,0,4.3,0.8,4.8,4.7c0.5,3.9-0.4,5.4-0.2,6.2c0.1,0.7-6,3.4-12,0.7
					c-1.2-2.4-3.6-5-8.3-5.9c-4.7-0.9-44.6-16.6-99.6-18c-2.6,1.7-4.7,2.5-5.1,2.7"/>
				<path class="st72" d="M437.7,516.9c0,0-4.2,0.2-4.4-4.4"/>
				<path class="st71" d="M301.9,482.6c0,0,1.5,48.6,2.4,54.8c0.9,6.3,0,11.5,0,11.5s3,4.9,9.3,5.1"/>
				<path class="st71" d="M325.3,482.6c0,0-1.5,48.6-2.4,54.8s0,11.5,0,11.5s-3,4.9-9.3,5.1"/>
			</g>
			<g>
				<path class="st71" d="M225.8,488c0,0-0.8-9.7,4.1-10c4.9-0.3,7.6,6.7,7.6,6.7"/>
				<path class="st71" d="M229.7,478l4.7-1.1c0,0,5.1,1.9,5.9,7.2"/>
				<path class="st72" d="M240.4,476v1.1c0,0,3.3,1.5,5.3,0c0-0.6,0-1.2,0-1.2"/>
				<path class="st72" d="M240.3,476.6c0,0-1.1,0.2-1.1,0.8c0,0.5,5.6,2.3,8-0.1c-0.3-0.8-1.5-0.7-1.5-0.7"/>
				<line class="st72" x1="239.2" y1="477.4" x2="239.2" y2="480.7"/>
				<line class="st72" x1="247.2" y1="477.3" x2="247.2" y2="482.3"/>
				<path class="st71" d="M235.6,477.4c0,0,1.4-1,2.7-1.9"/>
				<path class="st71" d="M246,475.9c0,0,2.7,1.1,3.8,5.6"/>
				<polyline class="st72" points="226.9,480.9 229.9,486.8 229.1,487 226.1,482.8 				"/>
				<line class="st72" x1="229.2" y1="478.1" x2="230.4" y2="486.5"/>
				<line class="st72" x1="231.1" y1="478.1" x2="231" y2="486.5"/>
				<path class="st72" d="M234.9,480.4c0,0-3,5.4-3.1,5.7"/>
				<line class="st72" x1="233.2" y1="485.9" x2="236.1" y2="482.2"/>
			</g>
			<g>
				<path class="st71" d="M400.9,488c0,0,0.8-9.7-4.1-10c-4.9-0.3-7.6,6.7-7.6,6.7"/>
				<path class="st71" d="M397,478l-4.7-1.1c0,0-5.1,1.9-5.9,7.2"/>
				<path class="st72" d="M386.3,476v1.1c0,0-3.3,1.5-5.3,0c0-0.6,0-1.2,0-1.2"/>
				<path class="st72" d="M386.4,476.6c0,0,1.1,0.2,1.1,0.8c0,0.5-5.6,2.3-8-0.1c0.3-0.8,1.5-0.7,1.5-0.7"/>
				<line class="st72" x1="387.5" y1="477.4" x2="387.5" y2="480.7"/>
				<line class="st72" x1="379.6" y1="477.3" x2="379.6" y2="482.3"/>
				<path class="st71" d="M391.1,477.4c0,0-1.4-1-2.7-1.9"/>
				<path class="st71" d="M380.7,475.9c0,0-2.7,1.1-3.8,5.6"/>
				<polyline class="st72" points="399.8,480.9 396.8,486.8 397.7,487 400.6,482.8 				"/>
				<line class="st72" x1="397.5" y1="478.1" x2="396.3" y2="486.5"/>
				<line class="st72" x1="395.6" y1="478.1" x2="395.7" y2="486.5"/>
				<path class="st72" d="M391.8,480.4c0,0,3,5.4,3.1,5.7"/>
				<line class="st72" x1="393.5" y1="485.9" x2="390.6" y2="482.2"/>
			</g>
			<path class="st71" d="M181.9,518.2c-0.4-0.1-2.1,1,1.2,1.5c2.5,0.4,6.8,0,7.1-0.7c0.3-0.6-1-1.1-1.5-1.1"/>
			<line class="st72" x1="188.5" y1="517.3" x2="188.5" y2="519.3"/>
			<line class="st71" x1="181.1" y1="518.8" x2="181.1" y2="521.8"/>
			<path class="st71" d="M190.2,518.8l-0.4,11c0,0-0.2,1-0.6,1.2"/>
			<g>
				<ellipse class="st73" cx="175.9" cy="534.5" rx="13.8" ry="13.6"/>
				<ellipse class="st74" cx="175.9" cy="534.5" rx="12" ry="11.8"/>
				<path class="st73" d="M181.1,519.8c-2.1-1-6.1-2.4-11.1-0.2c-5,2.3-7.3,7.1-7.4,11.3"/>
				<path class="st75" d="M171.8,523.4l3.2,9.3c0,0-0.3,0.1-0.6,0.5c-0.8-0.5-7.9-5.9-7.9-5.9"/>
				<path class="st75" d="M181.4,524l-4.3,8.6c0,0-0.7-0.2-1.1-0.1c-0.3-1.8-1.2-9.8-1.2-9.8"/>
				<path class="st75" d="M187.2,530.4l-8.5,3.5c0,0-0.1-0.3-0.4-0.7c0.6-0.8,5.7-7.5,5.7-7.5"/>
				<path class="st75" d="M186.9,539.5l-8.3-3.7c0,0,0.2-0.4,0.2-0.8c1-0.2,9-2.2,9-2.2"/>
				<path class="st75" d="M180.3,545.5l-2.8-8.4c0,0,0.3-0.1,0.7-0.5c0.8,0.5,7.1,5.3,7.1,5.3"/>
				<path class="st75" d="M171.3,545.4l4.2-8.1c0,0,0.5,0.1,0.9,0.1c0.3,1.8,1,7.9,1.1,8.9"/>
				<path class="st75" d="M165.1,539.5l8.7-3.6c0,0,0.1,0.3,0.4,0.7c-0.6,0.8-5.5,7.2-5.5,7.2"/>
				<path class="st75" d="M164.8,530l9,4.1c0,0-0.2,0.4-0.2,0.8c-1,0.2-9.4,2.2-9.4,2.2"/>
			</g>
			<g>
				<ellipse class="st73" cx="450.5" cy="534.5" rx="13.8" ry="13.6"/>
				<ellipse class="st74" cx="450.5" cy="534.5" rx="12" ry="11.8"/>
				<path class="st73" d="M445.3,519.8c2.1-1,6.1-2.4,11.1-0.2c5,2.3,7.3,7.1,7.4,11.3"/>
				<path class="st75" d="M454.6,523.4l-3.2,9.3c0,0,0.3,0.1,0.6,0.5c0.8-0.5,7.9-5.9,7.9-5.9"/>
				<path class="st75" d="M444.9,524l4.3,8.6c0,0,0.7-0.2,1.1-0.1c0.3-1.8,1.2-9.8,1.2-9.8"/>
				<path class="st75" d="M439.2,530.4l8.5,3.5c0,0,0.1-0.3,0.4-0.7c-0.6-0.8-5.7-7.5-5.7-7.5"/>
				<path class="st75" d="M439.5,539.5l8.3-3.7c0,0-0.2-0.4-0.2-0.8c-1-0.2-9-2.2-9-2.2"/>
				<path class="st75" d="M446.1,545.5l2.8-8.4c0,0-0.3-0.1-0.7-0.5c-0.8,0.5-7.1,5.3-7.1,5.3"/>
				<path class="st75" d="M455.1,545.4l-4.2-8.1c0,0-0.5,0.1-0.9,0.1c-0.3,1.8-1,7.9-1.1,8.9"/>
				<path class="st75" d="M461.3,539.5l-8.7-3.6c0,0-0.1,0.3-0.4,0.7c0.6,0.8,5.5,7.2,5.5,7.2"/>
				<path class="st75" d="M461.6,530l-9,4.1c0,0,0.2,0.4,0.2,0.8c1,0.2,9.4,2.2,9.4,2.2"/>
			</g>
			<path class="st71" d="M444.5,518.3c0.4-0.1,2.1,1-1.2,1.5c-2.5,0.4-6.8,0-7.1-0.7c-0.3-0.6,1-1.1,1.5-1.1"/>
			<line class="st72" x1="437.8" y1="517.4" x2="437.8" y2="519.4"/>
			<line class="st71" x1="445.3" y1="519" x2="445.3" y2="522"/>
			<path class="st71" d="M436.2,519l0.4,11c0,0,0.2,1,0.6,1.2"/>
			<line class="st72" x1="308" y1="552.4" x2="308" y2="556.4"/>
			<path class="st71" d="M309.6,556.6h-5.3c0,0-1.3,5.4-1.1,13.9c0,0.5-0.7,1.3-0.7,1.3l-0.1,1.7c0,0,0.5,0.5,0.5,0.8
				c0.1,7.3,1.2,12.5,1.2,12.5l5.2,0.3C309.4,587.1,310.3,558.7,309.6,556.6z"/>
			<path class="st72" d="M304.3,556.6c0,0-0.2,12.6-0.2,30.2"/>
			<path class="st71" d="M317.2,556.6h5.3c0,0,1.3,5.4,1.1,13.9c0,0.5,0.7,1.3,0.7,1.3l0.1,1.7c0,0-0.5,0.5-0.5,0.8
				c-0.1,7.3-1.2,12.5-1.2,12.5l-5.2,0.3C317.5,587.1,316.5,558.7,317.2,556.6z"/>
			<path class="st72" d="M322.5,556.6c0,0,0.2,12.6,0.2,30.2"/>
			<line class="st72" x1="309.8" y1="558" x2="317" y2="558"/>
			<line class="st72" x1="309.8" y1="576.3" x2="317" y2="576.3"/>
			<line class="st72" x1="318.4" y1="552.8" x2="318.4" y2="556.6"/>
			<line class="st71" x1="302.6" y1="418.1" x2="302.6" y2="434.5"/>
			<path class="st71" d="M306.9,416.6c0,0-4,0.3-4.3,1.5c-0.2,1.2,8.2,2.2,12,2.1c3.8,0,11.1-0.6,10.5-2.1c-0.6-1.5-4-1.5-4-1.5"/>
			<path class="st71" d="M306.9,410.5v7.5c0,0,8,1.8,14.3,0c0-1.8,0-6.8,0-6.8"/>
		</g>
		<line class="st71" x1="325.1" y1="418.1" x2="325.1" y2="434.7"/>
		<path class="st72" d="M302.2,401.2c-0.5-1.6,0.2-5.3,0.5-6.2c0.3-0.9,0.8-2.2,2.5-2.2s2,2.2,2,2.2s-0.1,6-1,7"/>
		<path class="st71" d="M267.9,395.2c0,0,22.4,3.2,28.7,8.1c4,1.9,9.3,1.7,20.5,1.7c11.2,0.1,21.2-0.7,21.2-0.7s3.8,0,5.4-2.3
			c1.7-2.4,14.2-6.9,14.2-6.9s8.8-2.6,11.9-2.9c1.3-0.6,2.1-1.6,2.2-2.6"/>
		<path class="st71" d="M297.2,403.6c0,0,0.6,4.2,4.4,4.9c3.8,0.7,5.4,2.3,7.1,2.6c1.6,0.4,11.5,0,11.5,0s1.5,0.1,2.1-1
			c0.9-1.3,2.4-2.4,3.4-2.7c1-0.3,5.6-1.9,6.1-2.7"/>
		<circle class="st72" cx="322.9" cy="399.5" r="3.1"/>
		<path class="st76" d="M305.9,401.1c0,0,0.2-3.3-1.5-3.2c-2,0.1-2,2.9-2,2.9s0,9.8-0.1,10.9c-0.1,1.1-3.9,14.7-4.4,15.6
			c1.7,0.6,3.3,1.1,3.3,1.1l3.9-12.6c0,0,0.7-2.4,0.6-4.3S305.9,401.1,305.9,401.1"/>
		<path class="st77" d="M297.9,427.4l-0.9-0.3l-8.8,24.8c0,0-0.5,1.7,0.2,2.1c0,0,3.6,1.3,4,1.3c0.3,0,2.5-3.5,3-5
			c0.5-1.5,0.4-2.1,0.2-2.8c-0.3-0.7,0.3-1.1,0.6-1.5c0.3-0.4,1-2,0.9-2.9c-0.1-0.9,1-1.1,1.5-2s3.6-12.1,3.6-12.1L297.9,427.4z"/>
		<g>
			<polyline class="st78" points="360.4,397.5 361.3,398.3 359.7,399.6 361.7,399.9 360,401.2 361.9,401.7 360.5,403 362.1,403.4 
				360.7,404.8 362.4,405.3 361.1,406.7 362.7,407.1 361.5,408.2 363,408.8 362.2,409.8 			"/>
			<polyline class="st78" points="338.7,404.2 337.9,404.7 339.5,405.1 338.1,406.2 339.8,406.6 338.4,407.8 340,408.2 338.6,409.4 
				340.3,410 338.9,411 340.6,411.9 339.4,412.7 340.3,413.3 			"/>
			<line class="st78" x1="361.2" y1="398.3" x2="343.8" y2="402"/>
			<line class="st78" x1="361.7" y1="399.9" x2="338" y2="404.8"/>
			<line class="st78" x1="361.6" y1="401.8" x2="338.6" y2="406.1"/>
			<line class="st78" x1="362" y1="403.3" x2="338.7" y2="407.7"/>
			<line class="st78" x1="362.4" y1="405.3" x2="339" y2="409.4"/>
			<line class="st78" x1="362.6" y1="407.2" x2="339.2" y2="411.1"/>
			<line class="st78" x1="363" y1="408.8" x2="339.6" y2="412.5"/>
		</g>
		<path class="st79" d="M338.8,413.3l25.2-3.5l2.6,17.6c0,0-5.1,4.8-12.1,5.8c-7,1-13-2-13-2L338.8,413.3z"/>
		<path class="st78" d="M341.3,431.3c0,0,12.2,0.7,25.3-4"/>
		<path class="st78" d="M364.9,393.1c0,0-0.2,1.6-2.5,3.2c-2.1,1.5-7.1,3.2-7.1,3.2"/>
		<path class="st71" d="M217.4,368.7c0,0-3.5,8.8-2.9,13.1c0.6,4.2,0.8,13,13.8,14.8c22.2,3.5,49.3-2.9,58-5.5"/>
		<path class="st72" d="M273.1,395.9c0,0,36-4.7,46-4.1"/>
		<path class="st71" d="M345.9,390.3c0,0,50-2,59.8,0.2s39.3,5.3,41.2,4.3c1.9-1,9.6-19,9.3-28.5c-0.3-9.6-1.9-14.2-8.2-20.9
			s-20-19.2-23.2-20.7c-3.3-1.5-17-7-31.3-7.6"/>
		<path class="st71" d="M210.1,296.2c0,0-12,20.5-12.8,26.8c-0.7,6.3-3.1,19.2,7.7,30.7c11.9,15.9,17.6,20.1,25.2,26.3
			c5.7,4.7,16.3,12.3,26.7,13.3c13.1,1.3,37-4.2,37-4.2l31.2-6"/>
		<path class="st71" d="M372.3,279.3c0,0-1.7,34.9-21.9,65.6l-8.3,11.7c0,0-3.4,18.3-13.4,23.4c0,0-7.2,6-8.6,7.3
			c-1.4,1.4-2.7,5.5,3.4,8.6c6.1,3.1,15.2,0.7,18.7-2.1s9.7-11.3,9.7-11.3s35.8-50.2,41-64.5c5.2-14.2,8.2-15.8,8.2-15.8"/>
		<path class="st71" d="M342.1,356.5c0,0-54.7,15.1-79.1,13.3c-24.4-1.8-41.3-33.4-41.3-33.4s-2.9-9.5,4.3-20.7
			c7.2-11.2,20.4-30.6,20.4-30.6"/>
		<path class="st71" d="M239.5,266.9c0,0-37,7.7-40.3,8.5c-3.3,0.7-4.8,1.9-4.2,5.9c0.6,4,2.7,11.6,5,14.2c2.3,2.6,0.7,2.7,5.4,1.8
			c4.7-0.8,45.3-13.4,45.8-13.5c0.5-0.1,79.5-25.4,107.9-12.3c26.2,14.5,43,31.6,43,31.6s2.5,3.1,3.8,1c1.4-2.1,3.5-3.1,2.8-5.7
			c-0.7-2.6,0-6.3,1.9-7.6c1.9-1.3,1.7-3,1.7-3s1.9-3.8-2.2-5.8c-4.1-2-27.3-18.8-56-22.3s-81.7,4.4-104.8,8.4
			C239.1,269.9,239.5,266.9,239.5,266.9z"/>
		<path class="st71" d="M239.5,266.9c0,0-2.2-8.3-2.1-9.7c0.1-1.4,3.8-5.3,10.9-7.3s52.6-10.2,69.6-10.5c17-0.3,50.6,2.7,68.6,11
			c18,8.3,27.9,15.7,29.1,18.9c1.2,3.2-2.1,13.5-5.1,13"/>
		<path class="st71" d="M226.8,344.5c0,0,4-10.4,6.7-11.8c2.7-1.4,13-5.4,26-7.2c13-1.8,88.1-12.5,105.1-9.8"/>
		<path class="st71" d="M358.9,271.5c0,0-7.7,38.9-15.1,43.7"/>
		<path class="st78" d="M408.6,299.3c0,0-32.6-32.2-67.8-35.2c-27.6-3.7-78.9,13.7-83.5,14.5c-4.6,0.8-41.4,11.9-49.1,13.1
			c-8.3-1.6-5.2-9-4.1-10.5c1-1.5,8.2-2.6,8.2-2.6s80.9-12.9,89.7-14.1c8.9-1.2,30.7-4,49-0.3c18.5,3.8,45.4,15.2,59.7,26.4"/>
		<circle class="st78" cx="209.8" cy="285.5" r="4.6"/>
		<circle class="st78" cx="207.3" cy="331.3" r="4.6"/>
		<circle class="st78" cx="258.1" cy="383.1" r="4.6"/>
		<circle class="st78" cx="346.3" cy="373.3" r="4.6"/>
		<path class="st71" d="M237.8,357.3c0,0,82.9-10.9,110.5-9.5"/>
		<path class="st71" d="M376.1,346.9c0,0,29.6,2.9,42.3,5.5c12.8,2.7,30.8,7.6,34.2-1.1"/>
		<path class="st71" d="M228.3,346.5c0,0,35.4-2.7,47-3.9c11.6-1.2,68.9-8.4,81-7.8"/>
		<path class="st71" d="M383.4,335.4c0,0,33.8,1.8,46.7,7.7c13,5.9,18.1,12.3,18.1,12.3"/>
		<path class="st71" d="M232.9,332.2c0,0,24.5-6.5,46.5-1.7c19.7-2.4,65-7,76.1-2.9c0.8,3.6-0.4,7.2-0.4,7.2"/>
		<path class="st78" d="M279.3,330.5c0,0-2.1,10.9-2.3,12"/>
		<path class="st71" d="M355.4,327.6c0,0,2-0.9,4.1-0.9"/>
		<path class="st71" d="M390.4,323.1c0,0,27.1-0.7,37.3,3.8"/>
		<path class="st71" d="M384,335.4c0,0,56.4-0.4,68.9,16.5"/>
		<path class="st71" d="M392,253.1c-2.9-5.9-11.5-10.9-26-16c-16.7-5.9-45.1-6.1-56.5-5.6c-23.5,1.1-51.9,9.2-56.3,12
			c-4.4,2.8-4.4,6.3-4.4,6.3"/>
		<path class="st71" d="M241.5,292.4c0,0-2.1,35.1-2.9,38.1"/>
		<line class="st71" x1="239.5" y1="321.3" x2="245.7" y2="328.3"/>
		<path class="st71" d="M224.3,318.7c0,0-1.8,15.9-2.6,17.8"/>
		<path class="st71" d="M233.3,304.6c0,0-4.1,35.7-6.7,39.5"/>
		<path class="st71" d="M239.5,295.3c0,0-0.1,5.4-0.4,7.4c-0.3,2-4.3,27.7-6.3,30.4"/>
		<line class="st78" x1="233.3" y1="305.8" x2="239.3" y2="300.9"/>
		<path class="st71" d="M217.2,368.2c0,0-1.7,13.7-15.9,12c-14.2-1.7-13.2-34.1-13.2-34.1s2-30.8-1.1-48.6
			c-3.1-17.8-17.7-62-27.1-80c-12.2-23.3-23.4-60.5-23.4-60.5s-12.1-43.8-11.5-50.4c0.6-6.6-5.9-58.5-4-62.1
			c1.9-3.6,3.8-22.9,27.8-17.9s34.3,50.1,34.3,50.1s7.7,33.1-6.4,61.5c0,0-8.5-2.5-8.9-4s-2.9-28.3-2.9-34.5s-1.8-56.1-17.2-58.2
			s-25,4.7-27.1,10.7"/>
		<path class="st71" d="M179.8,131.4c0,0,24.1,57.5,26.2,60.6c2.1,3.1,31.5,56.8,32.9,63"/>
		<path class="st71" d="M151.5,43.3c0,0,2.3,56.6,3.3,60.2c1,3.6,3.7,29.8,6.9,38.6s57.7,120,61.1,128.3"/>
		<path class="st71" d="M181.1,183.4c0,0,27.1,35.8,35,51.3s15.1,29.8,15.2,33.9"/>
		<path class="st71" d="M125.1,109.3c0,0,8.7-13.1,29.7-5.9"/>
		<path class="st71" d="M237.4,266.9c0,0-1.1-3.5-2.2-4.5c-0.6-3.6-3.2-18-5.4-21.7c-2.2-3.7-16.7-32.1-23.2-40
			c-6.5-8-21.1-32.2-23-34.2c-1-1.4-3.8-3.7-4-1.3c0,0,14.9,31.7,16.9,34.3s12.6,22.8,12.6,22.8s17.9,25,21.5,41.7
			c0.4,1.6,1.3,4.4,1.3,4.4"/>
		<path class="st71" d="M183.5,166.2c0,0-0.9-3.6-1.6-5.1s-5.4-17.1-4.6-16.9s6.4,11.9,6.4,11.9s4,10.7,2.6,14.1"/>
		<path class="st78" d="M167.9,134.4c0,0,9.5,25.6,11.9,30.8"/>
		<path class="st78" d="M176,138.4c0,0,0.4,4.1,2.4,12"/>
		<path class="st78" d="M391,304.1c0,0-6.8-8-10.7-7.8c-3.9,0.1-5.2,6.7-5.2,6.7s-12.9,36.9-22.9,50.7c-7.5,10.3,2.6,13.3,2.6,13.3
			s3.3,1.5,5.7-3.1c4.1-5.7,29-46,30.6-52.2C392.6,305.3,391,304.1,391,304.1z"/>
	</g>
</g>
<g>
	<g>
		<line class="st52" x1="223.8" y1="458.5" x2="450.2" y2="458.5"/>
	</g>
	<line class="st52" x1="214.5" y1="466.5" x2="214.5" y2="387.1"/>
	<polygon class="st37" points="214.9,458.5 228.9,466.5 228.9,450.4 	"/>
	<line class="st52" x1="456.1" y1="466.5" x2="456.1" y2="370"/>
	<polygon class="st37" points="455.7,458.5 441.7,466.5 441.7,450.4 	"/>
</g>
<line class="st52" x1="108.1" y1="377.9" x2="108.1" y2="30.5"/>
<line class="st81" x1="49.4" y1="580.1" x2="49.4" y2="30.5"/>
<line class="st52" x1="100.1" y1="380.6" x2="205.2" y2="380.6"/>
<line class="st52" x1="41.3" y1="26.5" x2="142.3" y2="26.5"/>
<polygon class="st37" points="108.1,26.5 116.2,40.4 100.1,40.4 "/>
<polygon class="st37" points="49.4,26.5 57.4,40.4 41.3,40.4 "/>
<polygon class="st37" points="108.1,380 100.1,366.1 116.2,366.1 "/>
<polygon class="st37" points="49.4,587.1 41.3,573.1 57.4,573.1 "/>
<line class="st52" x1="495.7" y1="582.8" x2="495.7" y2="344.5"/>
<line class="st52" x1="557.9" y1="582.1" x2="557.9" y2="247.4"/>
<g>
	<rect x="455.5" y="478.9" class="st0" width="80.3" height="18"/>
	<g>
		<path class="st37" d="M460.6,491.3c0.4,0.3,1.4,0.7,2.5,0.7c1.9,0,2.5-1.2,2.5-2.1c0-1.5-1.4-2.1-2.9-2.1h-0.8v-1.1h0.8
			c1.1,0,2.5-0.5,2.5-1.8c0-0.9-0.6-1.6-1.9-1.6c-0.9,0-1.7,0.4-2.2,0.7l-0.4-1c0.6-0.4,1.7-0.8,2.9-0.8c2.2,0,3.2,1.2,3.2,2.5
			c0,1.1-0.7,2-2,2.5v0c1.4,0.3,2.5,1.2,2.5,2.7c0,1.7-1.4,3.2-4,3.2c-1.2,0-2.3-0.4-2.9-0.7L460.6,491.3z"/>
		<path class="st37" d="M469.8,492c0.3,0,0.7,0,1.2,0c0.9-0.1,1.7-0.5,2.3-1c0.7-0.6,1.3-1.6,1.5-2.8h-0.1c-0.6,0.7-1.5,1.1-2.6,1.1
			c-2,0-3.3-1.4-3.3-3.3c0-2,1.5-3.8,3.8-3.8c2.3,0,3.7,1.8,3.7,4.5c0,2.3-0.8,4-1.9,5c-0.9,0.8-2,1.3-3.2,1.4
			c-0.5,0.1-1,0.1-1.4,0.1V492z M470.4,485.8c0,1.3,0.8,2.3,2.1,2.3c1,0,1.8-0.5,2.2-1.1c0.1-0.1,0.1-0.3,0.1-0.5
			c0-1.8-0.7-3.2-2.3-3.2C471.3,483.3,470.4,484.3,470.4,485.8z"/>
		<path class="st37" d="M486.4,493l-0.1-1h-0.1c-0.5,0.6-1.3,1.2-2.5,1.2c-1.7,0-2.5-1.1-2.5-2.3c0-1.9,1.8-3,5-3v-0.2
			c0-0.7-0.2-1.8-1.9-1.8c-0.8,0-1.6,0.2-2.2,0.6l-0.3-1c0.7-0.4,1.7-0.7,2.7-0.7c2.5,0,3.1,1.7,3.1,3.2v3c0,0.7,0,1.4,0.1,1.9
			H486.4z M486.1,488.9c-1.6,0-3.5,0.2-3.5,1.8c0,0.9,0.6,1.4,1.4,1.4c1.1,0,1.8-0.7,2-1.3c0.1-0.1,0.1-0.3,0.1-0.5V488.9z"/>
		<path class="st37" d="M497.8,493v-2.9h-5.2v-1l4.9-6.8h1.6v6.6h1.6v1.1h-1.6v2.9H497.8z M497.8,489v-3.6c0-0.6,0-1.1,0.1-1.7h-0.1
			c-0.3,0.6-0.6,1.1-0.9,1.6l-2.7,3.6v0H497.8z"/>
		<path class="st37" d="M509.1,482.3v1l-4.8,9.7h-1.6l4.8-9.4v0h-5.4v-1.2H509.1z"/>
		<path class="st37" d="M517,492.7c-0.4,0.2-1.3,0.5-2.4,0.5c-2.5,0-4.1-1.6-4.1-4.1c0-2.4,1.7-4.2,4.4-4.2c0.9,0,1.7,0.2,2.1,0.4
			l-0.3,1.1c-0.4-0.2-0.9-0.4-1.7-0.4c-1.9,0-2.9,1.3-2.9,3c0,1.8,1.2,3,2.9,3c0.9,0,1.4-0.2,1.8-0.4L517,492.7z"/>
		<path class="st37" d="M518.8,487.2c0-0.8,0-1.5-0.1-2.1h1.3l0.1,1.3h0.1c0.5-0.8,1.2-1.5,2.6-1.5c1.1,0,2,0.7,2.3,1.6h0
			c0.3-0.4,0.6-0.8,0.9-1c0.5-0.4,1-0.6,1.8-0.6c1.1,0,2.7,0.7,2.7,3.4v4.7h-1.5v-4.5c0-1.5-0.6-2.4-1.8-2.4c-0.9,0-1.5,0.6-1.8,1.3
			c-0.1,0.2-0.1,0.5-0.1,0.7v4.9h-1.5v-4.8c0-1.3-0.6-2.2-1.7-2.2c-0.9,0-1.6,0.7-1.9,1.4c-0.1,0.2-0.1,0.5-0.1,0.7v4.8h-1.5V487.2z
			"/>
	</g>
</g>
<g>
	<rect x="83.4" y="207.3" class="st0" width="49.5" height="18"/>
	<g>
		<path class="st37" d="M95.3,210.7v1l-4.8,9.7h-1.6l4.8-9.4v0h-5.4v-1.2H95.3z"/>
		<path class="st37" d="M100.1,212L100.1,212l-2,1l-0.3-1.1l2.4-1.2h1.3v10.7h-1.4V212z"/>
		<path class="st37" d="M111.9,221c-0.4,0.2-1.3,0.5-2.4,0.5c-2.5,0-4.1-1.6-4.1-4.1c0-2.4,1.7-4.2,4.4-4.2c0.9,0,1.7,0.2,2.1,0.4
			l-0.3,1.1c-0.4-0.2-0.9-0.4-1.7-0.4c-1.9,0-2.9,1.3-2.9,3c0,1.8,1.2,3,2.9,3c0.9,0,1.4-0.2,1.8-0.4L111.9,221z"/>
		<path class="st37" d="M113.7,215.5c0-0.8,0-1.5-0.1-2.1h1.3l0.1,1.3h0.1c0.5-0.8,1.2-1.5,2.6-1.5c1.1,0,2,0.7,2.3,1.6h0
			c0.3-0.4,0.6-0.8,0.9-1c0.5-0.4,1-0.6,1.8-0.6c1.1,0,2.7,0.7,2.7,3.4v4.7H124v-4.5c0-1.5-0.6-2.4-1.8-2.4c-0.9,0-1.5,0.6-1.8,1.3
			c-0.1,0.2-0.1,0.5-0.1,0.7v4.9h-1.5v-4.8c0-1.3-0.6-2.2-1.7-2.2c-0.9,0-1.6,0.7-1.9,1.4c-0.1,0.2-0.1,0.5-0.1,0.7v4.8h-1.5V215.5z
			"/>
	</g>
</g>
<g>
	<path class="st37" d="M311.2,454.1v-2.9H306v-1l4.9-6.8h1.6v6.6h1.6v1.1h-1.6v2.9H311.2z M311.2,450.1v-3.6c0-0.6,0-1.1,0.1-1.7
		h-0.1c-0.3,0.6-0.6,1.1-0.9,1.6l-2.7,3.6v0H311.2z"/>
	<path class="st37" d="M316.2,453.1c0.3,0,0.7,0,1.2,0c0.9-0.1,1.7-0.5,2.3-1c0.7-0.6,1.3-1.6,1.5-2.8h-0.1
		c-0.6,0.7-1.5,1.1-2.6,1.1c-2,0-3.3-1.4-3.3-3.3c0-2,1.5-3.8,3.8-3.8c2.3,0,3.7,1.8,3.7,4.5c0,2.3-0.8,4-1.9,5
		c-0.9,0.8-2,1.3-3.2,1.4c-0.5,0.1-1,0.1-1.4,0.1V453.1z M316.7,447c0,1.3,0.8,2.3,2.1,2.3c1,0,1.8-0.5,2.2-1.1
		c0.1-0.1,0.1-0.3,0.1-0.5c0-1.8-0.7-3.2-2.3-3.2C317.6,444.4,316.7,445.5,316.7,447z"/>
	<path class="st37" d="M330.4,453.8c-0.4,0.2-1.3,0.5-2.4,0.5c-2.5,0-4.1-1.6-4.1-4.1c0-2.4,1.7-4.2,4.4-4.2c0.9,0,1.7,0.2,2.1,0.4
		l-0.3,1.1c-0.4-0.2-0.9-0.4-1.7-0.4c-1.9,0-2.9,1.3-2.9,3c0,1.8,1.2,3,2.9,3c0.9,0,1.4-0.2,1.8-0.4L330.4,453.8z"/>
	<path class="st37" d="M332.2,448.3c0-0.8,0-1.5-0.1-2.1h1.3l0.1,1.3h0.1c0.5-0.8,1.2-1.5,2.6-1.5c1.1,0,2,0.7,2.3,1.6h0
		c0.3-0.4,0.6-0.8,0.9-1c0.5-0.4,1-0.6,1.8-0.6c1.1,0,2.7,0.7,2.7,3.4v4.7h-1.5v-4.5c0-1.5-0.6-2.4-1.8-2.4c-0.9,0-1.5,0.6-1.8,1.3
		c-0.1,0.2-0.1,0.5-0.1,0.7v4.9h-1.5v-4.8c0-1.3-0.6-2.2-1.7-2.2c-0.9,0-1.6,0.7-1.9,1.4c-0.1,0.2-0.1,0.5-0.1,0.7v4.8h-1.5V448.3z"
		/>
</g>
<g>
	<rect x="3.8" y="281.1" class="st0" width="92.3" height="18"/>
	<g>
		<path class="st37" d="M11.7,285.9L11.7,285.9l-2,1l-0.3-1.1l2.4-1.2h1.3v10.7h-1.4V285.9z"/>
		<path class="st37" d="M20.5,285.9L20.5,285.9l-2,1l-0.3-1.1l2.4-1.2h1.3v10.7h-1.4V285.9z"/>
		<path class="st37" d="M29.2,285.9L29.2,285.9l-2,1l-0.3-1.1l2.4-1.2h1.3v10.7h-1.4V285.9z"/>
		<path class="st37" d="M42.3,290.2v1.1h-4.2v-1.1H42.3z"/>
		<path class="st37" d="M50.5,285.9L50.5,285.9l-2,1l-0.3-1.1l2.4-1.2h1.3v10.7h-1.4V285.9z"/>
		<path class="st37" d="M59.2,285.9L59.2,285.9l-2,1l-0.3-1.1l2.4-1.2h1.3v10.7h-1.4V285.9z"/>
		<path class="st37" d="M65.6,294.2c0.3,0,0.7,0,1.2,0c0.9-0.1,1.7-0.5,2.3-1c0.7-0.6,1.3-1.6,1.5-2.8h-0.1
			c-0.6,0.7-1.5,1.1-2.6,1.1c-2,0-3.3-1.4-3.3-3.3c0-2,1.5-3.8,3.8-3.8c2.3,0,3.7,1.8,3.7,4.5c0,2.3-0.8,4-1.9,5
			c-0.9,0.8-2,1.3-3.2,1.4c-0.5,0.1-1,0.1-1.4,0.1V294.2z M66.1,288c0,1.3,0.8,2.3,2.1,2.3c1,0,1.8-0.5,2.2-1.1
			c0.1-0.1,0.1-0.3,0.1-0.5c0-1.8-0.7-3.2-2.3-3.2C67,285.4,66.1,286.5,66.1,288z"/>
		<path class="st37" d="M79.8,294.9c-0.4,0.2-1.3,0.5-2.4,0.5c-2.5,0-4.1-1.6-4.1-4.1c0-2.4,1.7-4.2,4.4-4.2c0.9,0,1.7,0.2,2.1,0.4
			l-0.3,1.1c-0.4-0.2-0.9-0.4-1.7-0.4c-1.9,0-2.9,1.3-2.9,3c0,1.8,1.2,3,2.9,3c0.9,0,1.4-0.2,1.8-0.4L79.8,294.9z"/>
		<path class="st37" d="M81.6,289.4c0-0.8,0-1.5-0.1-2.1h1.3l0.1,1.3h0.1c0.5-0.8,1.2-1.5,2.6-1.5c1.1,0,2,0.7,2.3,1.6h0
			c0.3-0.4,0.6-0.8,0.9-1c0.5-0.4,1-0.6,1.8-0.6c1.1,0,2.7,0.7,2.7,3.4v4.7h-1.5v-4.5c0-1.5-0.6-2.4-1.8-2.4c-0.9,0-1.5,0.6-1.8,1.3
			c-0.1,0.2-0.1,0.5-0.1,0.7v4.9h-1.5v-4.8c0-1.3-0.6-2.2-1.7-2.2c-0.9,0-1.6,0.7-1.9,1.4c-0.1,0.2-0.1,0.5-0.1,0.7v4.8h-1.5V289.4z
			"/>
	</g>
</g>
<rect x="478.6" y="359.7" class="st0" width="36.9" height="18"/>
<g>
	<path class="st37" d="M484.1,372.7c0.3,0,0.7,0,1.2,0c0.9-0.1,1.7-0.5,2.3-1c0.7-0.6,1.3-1.6,1.5-2.8h-0.1
		c-0.6,0.7-1.5,1.1-2.6,1.1c-2,0-3.3-1.4-3.3-3.3c0-2,1.5-3.8,3.8-3.8c2.3,0,3.7,1.8,3.7,4.5c0,2.3-0.8,4-1.9,5
		c-0.9,0.8-2,1.3-3.2,1.4c-0.5,0.1-1,0.1-1.4,0.1V372.7z M484.7,366.6c0,1.3,0.8,2.3,2.1,2.3c1,0,1.8-0.5,2.2-1.1
		c0.1-0.1,0.1-0.3,0.1-0.5c0-1.8-0.7-3.2-2.3-3.2C485.6,364,484.7,365.1,484.7,366.6z"/>
	<path class="st37" d="M498.4,373.4c-0.4,0.2-1.3,0.5-2.4,0.5c-2.5,0-4.1-1.6-4.1-4.1c0-2.4,1.7-4.2,4.4-4.2c0.9,0,1.7,0.2,2.1,0.4
		l-0.3,1.1c-0.4-0.2-0.9-0.4-1.7-0.4c-1.9,0-2.9,1.3-2.9,3c0,1.8,1.2,3,2.9,3c0.9,0,1.4-0.2,1.8-0.4L498.4,373.4z"/>
	<path class="st37" d="M500.1,367.9c0-0.8,0-1.5-0.1-2.1h1.3l0.1,1.3h0.1c0.5-0.8,1.2-1.5,2.6-1.5c1.1,0,2,0.7,2.3,1.6h0
		c0.3-0.4,0.6-0.8,0.9-1c0.5-0.4,1-0.6,1.8-0.6c1.1,0,2.7,0.7,2.7,3.4v4.7h-1.5v-4.5c0-1.5-0.6-2.4-1.8-2.4c-0.9,0-1.5,0.6-1.8,1.3
		c-0.1,0.2-0.1,0.5-0.1,0.7v4.9h-1.5V369c0-1.3-0.6-2.2-1.7-2.2c-0.9,0-1.6,0.7-1.9,1.4c-0.1,0.2-0.1,0.5-0.1,0.7v4.8h-1.5V367.9z"
		/>
</g>
<g>
	<rect x="517.7" y="400.5" class="st0" width="80.3" height="18.8"/>
	<g>
		<path class="st37" d="M530.1,405.1c-0.3,0-0.7,0-1.1,0.1c-2.4,0.4-3.6,2.1-3.9,3.9h0.1c0.5-0.7,1.5-1.3,2.7-1.3
			c2,0,3.3,1.4,3.3,3.6c0,2-1.4,3.9-3.7,3.9c-2.4,0-3.9-1.8-3.9-4.7c0-2.2,0.8-3.9,1.9-5c0.9-0.9,2.1-1.5,3.5-1.6
			c0.4-0.1,0.8-0.1,1.1-0.1V405.1z M529.6,411.5c0-1.6-0.9-2.5-2.3-2.5c-0.9,0-1.7,0.6-2.1,1.4c-0.1,0.2-0.2,0.4-0.2,0.7
			c0,1.8,0.9,3.2,2.4,3.2C528.8,414.1,529.6,413,529.6,411.5z"/>
		<path class="st37" d="M533.4,414c0.3,0,0.7,0,1.2-0.1c0.9-0.1,1.7-0.5,2.3-1.1c0.7-0.7,1.3-1.6,1.5-3h-0.1
			c-0.6,0.8-1.5,1.2-2.6,1.2c-2,0-3.3-1.5-3.3-3.4c0-2.1,1.5-3.9,3.8-3.9s3.7,1.8,3.7,4.7c0,2.4-0.8,4.1-1.9,5.2
			c-0.9,0.8-2,1.3-3.2,1.5c-0.5,0.1-1,0.1-1.4,0.1V414z M533.9,407.6c0,1.4,0.8,2.4,2.1,2.4c1,0,1.8-0.5,2.2-1.2
			c0.1-0.1,0.1-0.3,0.1-0.5c0-1.9-0.7-3.3-2.3-3.3C534.8,405,533.9,406.1,533.9,407.6z"/>
		<path class="st37" d="M549.9,415.1l-0.1-1h-0.1c-0.5,0.6-1.3,1.2-2.5,1.2c-1.7,0-2.5-1.2-2.5-2.4c0-2,1.8-3.1,5-3.1v-0.2
			c0-0.7-0.2-1.9-1.9-1.9c-0.8,0-1.6,0.2-2.2,0.6l-0.3-1c0.7-0.4,1.7-0.7,2.7-0.7c2.5,0,3.1,1.7,3.1,3.4v3.1c0,0.7,0,1.4,0.1,2
			H549.9z M549.7,410.9c-1.6,0-3.5,0.3-3.5,1.9c0,1,0.6,1.4,1.4,1.4c1.1,0,1.8-0.7,2-1.4c0.1-0.2,0.1-0.3,0.1-0.5V410.9z"/>
		<path class="st37" d="M563.9,404v1l-4.8,10.1h-1.6l4.8-9.8v0h-5.4V404H563.9z"/>
		<path class="st37" d="M572.7,404v1l-4.8,10.1h-1.6l4.8-9.8v0h-5.4V404H572.7z"/>
		<path class="st37" d="M580.6,414.8c-0.4,0.2-1.3,0.5-2.4,0.5c-2.5,0-4.1-1.7-4.1-4.2c0-2.5,1.7-4.4,4.4-4.4c0.9,0,1.7,0.2,2.1,0.4
			l-0.3,1.2c-0.4-0.2-0.9-0.4-1.7-0.4c-1.9,0-2.9,1.4-2.9,3.1c0,1.9,1.2,3.1,2.9,3.1c0.9,0,1.4-0.2,1.8-0.4L580.6,414.8z"/>
		<path class="st37" d="M582.3,409.1c0-0.9,0-1.6-0.1-2.2h1.3l0.1,1.3h0.1c0.5-0.8,1.2-1.5,2.6-1.5c1.1,0,2,0.7,2.3,1.7h0
			c0.3-0.5,0.6-0.8,0.9-1.1c0.5-0.4,1-0.6,1.8-0.6c1.1,0,2.7,0.7,2.7,3.6v4.9h-1.5v-4.7c0-1.6-0.6-2.5-1.8-2.5
			c-0.9,0-1.5,0.6-1.8,1.4c-0.1,0.2-0.1,0.5-0.1,0.8v5.1h-1.5v-4.9c0-1.3-0.6-2.3-1.7-2.3c-0.9,0-1.6,0.8-1.9,1.5
			c-0.1,0.2-0.1,0.5-0.1,0.7v5h-1.5V409.1z"/>
	</g>
</g>
<line class="st52" x1="446.8" y1="395.1" x2="503.7" y2="395.1"/>
<line class="st52" x1="445.5" y1="342.9" x2="503.7" y2="342.9"/>
<line class="st52" x1="320.4" y1="239.4" x2="565.9" y2="239.4"/>
<line class="st52" x1="41.3" y1="587.1" x2="565.9" y2="587.1"/>
<polygon class="st37" points="557.9,239.4 565.9,253.4 549.8,253.4 "/>
<polygon class="st37" points="557.9,586.3 549.8,572.4 565.9,572.4 "/>
<polygon class="st37" points="495.7,585.8 487.6,572.4 503.7,572.4 "/>
<polygon class="st37" points="495.7,395 487.6,381.6 503.7,381.6 "/>
<polygon class="st37" points="495.7,395.1 503.7,408.5 487.6,408.5 "/>
<polygon class="st37" points="495.7,342.5 503.7,355.9 487.6,355.9 "/>
</svg>
