<?xml version="1.0" encoding="utf-8"?>
<!-- Generator: Adobe Illustrator 23.0.1, SVG Export Plug-In . SVG Version: 6.00 Build 0)  -->
<svg version="1.1" id="Camada_1" xmlns="http://www.w3.org/2000/svg" xmlns:xlink="http://www.w3.org/1999/xlink" x="0px" y="0px"
	 viewBox="0 0 600 600" style="enable-background:new 0 0 600 600;" xml:space="preserve">
<style type="text/css">
	.st0{fill:#E8E7E7;}
	.st1{fill:#E7E6E6;}
	.st2{fill:#FFFFFF;}
	.st3{fill:#D3D3D3;}
	.st4{fill:none;stroke:#020203;stroke-width:0.96;stroke-miterlimit:10;}
	.st5{fill:none;stroke:#020203;stroke-width:0.48;stroke-miterlimit:10;}
	.st6{fill:none;stroke:#020203;stroke-width:0.91;stroke-miterlimit:10;}
	.st7{fill:none;stroke:#020203;stroke-width:0.79;stroke-miterlimit:10;}
	.st8{fill:none;stroke:#020203;stroke-width:0.5;stroke-miterlimit:10;}
	.st9{fill:#FFFFFF;stroke:#020203;stroke-width:0.48;stroke-miterlimit:10;}
	.st10{fill:#F2F2F2;stroke:#020203;stroke-width:0.96;stroke-miterlimit:10;}
	.st11{fill:none;stroke:#020203;stroke-width:1.01;stroke-miterlimit:10;}
	.st12{fill:none;stroke:#020203;stroke-miterlimit:10;}
	.st13{fill:none;stroke:#020203;stroke-width:0.53;stroke-miterlimit:10;}
	.st14{fill:none;stroke:#020203;stroke-width:0.75;stroke-miterlimit:10;}
	.st15{fill:none;stroke:#020203;stroke-width:0.71;stroke-miterlimit:10;}
	.st16{fill:none;stroke:#B5241F;stroke-width:1.42;stroke-miterlimit:10;}
	.st17{fill:none;stroke:#B5241F;stroke-width:1.8;stroke-miterlimit:10;}
	.st18{fill:none;stroke:#B5241F;stroke-width:1.38;stroke-miterlimit:10;}
	.st19{fill:none;stroke:#B5241F;stroke-width:1.22;stroke-miterlimit:10;}
	.st20{fill:#B5241F;}
	.st21{fill:none;stroke:#B5241F;stroke-width:1.37;stroke-miterlimit:10;}
	.st22{fill:none;stroke:#B5241F;stroke-width:1.39;stroke-miterlimit:10;}
	.st23{fill:none;stroke:#B5241F;stroke-width:1.28;stroke-miterlimit:10;}
	.st24{fill:none;stroke:#B5241F;stroke-width:1.33;stroke-miterlimit:10;}
	.st25{fill:none;stroke:#B5241F;stroke-width:1.46;stroke-miterlimit:10;}
	.st26{fill:none;stroke:#B5241F;stroke-width:1.29;stroke-miterlimit:10;}
	.st27{fill:none;stroke:#020203;stroke-width:0.42;stroke-miterlimit:10;}
	.st28{fill:none;stroke:#020203;stroke-width:0.95;stroke-miterlimit:10;}
	.st29{fill:none;stroke:#020203;stroke-width:0.83;stroke-miterlimit:10;}
	.st30{fill:none;stroke:#020203;stroke-width:0.52;stroke-miterlimit:10;}
	.st31{fill:none;stroke:#B5241F;stroke-width:1.53;stroke-miterlimit:10;}
	.st32{fill:none;stroke:#B5241F;stroke-width:1.5;stroke-miterlimit:10;}
	.st33{fill:none;stroke:#B5241F;stroke-width:1.51;stroke-miterlimit:10;}
	.st34{fill:none;stroke:#B5241F;stroke-width:1.6;stroke-miterlimit:10;}
	.st35{fill:none;stroke:#D41F19;stroke-width:1.3689;stroke-miterlimit:10;}
	.st36{fill:none;stroke:#D41F19;stroke-width:2.0559;stroke-miterlimit:10;}
	.st37{fill:#D41F19;}
	.st38{fill:none;stroke:#D41F19;stroke-width:1.3723;stroke-miterlimit:10;}
	.st39{fill:none;stroke:#D41F19;stroke-width:1.4294;stroke-miterlimit:10;}
	.st40{fill:none;stroke:#D41F19;stroke-width:1.8389;stroke-miterlimit:10;}
	.st41{fill:none;stroke:#D41F19;stroke-width:1.4538;stroke-miterlimit:10;}
	.st42{fill:none;stroke:#000000;stroke-width:0.5;stroke-miterlimit:10;}
	.st43{fill:none;stroke:#000000;stroke-miterlimit:10;}
	.st44{fill:none;stroke:#000000;stroke-width:0.4155;stroke-miterlimit:10;}
	.st45{fill:none;stroke:#000000;stroke-width:0.9506;stroke-miterlimit:10;}
	.st46{fill:none;stroke:#000000;stroke-width:0.827;stroke-miterlimit:10;}
	.st47{fill:none;stroke:#000000;stroke-width:0.5195;stroke-miterlimit:10;}
	.st48{fill:none;stroke:#000000;stroke-width:0.4172;stroke-miterlimit:10;}
	.st49{fill:none;stroke:#000000;stroke-width:0.419;stroke-miterlimit:10;}
	.st50{fill:none;stroke:#D41F19;stroke-width:1.4161;stroke-miterlimit:10;}
	.st51{fill:none;stroke:#D41F19;stroke-width:1.7984;stroke-miterlimit:10;}
	.st52{fill:none;stroke:#D41F19;stroke-width:1.2223;stroke-miterlimit:10;}
	.st53{fill:none;stroke:#D41F19;stroke-width:1.359;stroke-miterlimit:10;}
	.st54{fill:none;stroke:#D41F19;stroke-width:1.3456;stroke-miterlimit:10;}
	.st55{fill:none;stroke:#D41F19;stroke-width:1.1098;stroke-miterlimit:10;}
	.st56{fill:none;stroke:#D41F19;stroke-width:1.3365;stroke-miterlimit:10;}
	.st57{fill:none;stroke:#D41F19;stroke-width:1.3941;stroke-miterlimit:10;}
	.st58{fill:none;stroke:#D41F19;stroke-width:1.4643;stroke-miterlimit:10;}
	.st59{fill:none;stroke:#D41F19;stroke-width:1.3019;stroke-miterlimit:10;}
	.st60{fill:none;stroke:#D41F19;stroke-width:1.2895;stroke-miterlimit:10;}
	.st61{fill:none;stroke:#000000;stroke-width:0.96;stroke-miterlimit:10;}
	.st62{fill:none;stroke:#000000;stroke-width:0.48;stroke-miterlimit:10;}
	.st63{fill:none;stroke:#000000;stroke-width:0.9126;stroke-miterlimit:10;}
	.st64{fill:none;stroke:#000000;stroke-width:0.7939;stroke-miterlimit:10;}
	.st65{fill:none;stroke:#000000;stroke-width:0.4988;stroke-miterlimit:10;}
	.st66{fill:#FFFFFF;stroke:#000000;stroke-width:0.48;stroke-miterlimit:10;}
	.st67{fill:#F3F2F2;stroke:#000000;stroke-width:0.96;stroke-miterlimit:10;}
	.st68{fill:none;stroke:#000000;stroke-width:0.5045;stroke-miterlimit:10;}
	.st69{fill:none;stroke:#000000;stroke-width:1.0089;stroke-miterlimit:10;}
	.st70{fill:#D4D4D5;}
	.st71{fill:none;stroke:#020203;stroke-width:0.7361;stroke-miterlimit:10;}
	.st72{fill:none;stroke:#020203;stroke-width:0.368;stroke-miterlimit:10;}
	.st73{fill:none;stroke:#020203;stroke-width:0.6997;stroke-miterlimit:10;}
	.st74{fill:none;stroke:#020203;stroke-width:0.6087;stroke-miterlimit:10;}
	.st75{fill:none;stroke:#020203;stroke-width:0.3824;stroke-miterlimit:10;}
	.st76{fill:#FFFFFF;stroke:#020203;stroke-width:0.368;stroke-miterlimit:10;}
	.st77{fill:#F3F2F2;stroke:#020203;stroke-width:0.7361;stroke-miterlimit:10;}
	.st78{fill:none;stroke:#020203;stroke-width:0.3868;stroke-miterlimit:10;}
	.st79{fill:none;stroke:#020203;stroke-width:0.7736;stroke-miterlimit:10;}
	.st80{fill:none;stroke:#020203;stroke-width:0.3058;stroke-miterlimit:10;}
	.st81{fill:none;stroke:#D41F19;stroke-width:1.5373;stroke-miterlimit:10;}
	.st82{fill:none;stroke:#D41F19;stroke-width:1.2259;stroke-miterlimit:10;}
	.st83{fill:none;stroke:#D41F19;stroke-width:1.5;stroke-miterlimit:10;}
	.st84{fill:none;stroke:#D41F19;stroke-width:1.199;stroke-miterlimit:10;}
	.st85{fill:none;stroke:#D41F19;stroke-width:1.274;stroke-miterlimit:10;}
	.st86{fill:none;stroke:#020203;stroke-width:0.9506;stroke-miterlimit:10;}
	.st87{fill:none;stroke:#020203;stroke-width:0.827;stroke-miterlimit:10;}
	.st88{fill:none;stroke:#020203;stroke-width:0.5195;stroke-miterlimit:10;}
	.st89{fill:#FFFFFF;stroke:#020203;stroke-width:0.5;stroke-miterlimit:10;}
	.st90{fill:#F3F2F2;stroke:#020203;stroke-miterlimit:10;}
	.st91{fill:none;stroke:#020203;stroke-width:0.5255;stroke-miterlimit:10;}
	.st92{fill:none;stroke:#020203;stroke-width:1.0509;stroke-miterlimit:10;}
	.st93{fill:none;stroke:#020203;stroke-width:0.4155;stroke-miterlimit:10;}
	.st94{fill:none;}
	.st95{fill:none;stroke:#D41F19;stroke-width:1.4493;stroke-miterlimit:10;}
	.st96{fill:none;stroke:#D41F19;stroke-width:1.3972;stroke-miterlimit:10;}
	.st97{fill:none;stroke:#D41F19;stroke-width:1.4149;stroke-miterlimit:10;}
	.st98{fill:none;stroke:#D41F19;stroke-width:1.5415;stroke-miterlimit:10;}
	.st99{fill:none;stroke:#D41F19;stroke-width:1.4077;stroke-miterlimit:10;}
	.st100{fill:none;stroke:#D41F19;stroke-width:1.362;stroke-miterlimit:10;}
	.st101{fill:none;stroke:#D41F19;stroke-width:1.3128;stroke-miterlimit:10;}
	.st102{fill:#F3F3F3;stroke:#020203;stroke-width:0.96;stroke-miterlimit:10;}
	.st103{fill:#FFFFFF;stroke:#020203;stroke-width:0.96;stroke-miterlimit:10;}
	.st104{fill:#FFFFFF;stroke:#020203;stroke-width:0.87;stroke-miterlimit:10;}
	.st105{fill:#FFFFFF;stroke:#020203;stroke-width:0.3;stroke-miterlimit:10;}
	.st106{fill:none;stroke:#B5241F;stroke-width:1.91;stroke-miterlimit:10;}
	.st107{fill:none;stroke:#B5241F;stroke-width:1.45;stroke-miterlimit:10;}
	.st108{fill:none;stroke:#B5241F;stroke-width:1.47;stroke-miterlimit:10;}
	.st109{fill:none;stroke:#B5241F;stroke-width:1.36;stroke-miterlimit:10;}
	.st110{fill:none;stroke:#B5241F;stroke-width:1.41;stroke-miterlimit:10;}
	.st111{fill:none;stroke:#B5241F;stroke-width:1.55;stroke-miterlimit:10;}
	.st112{fill:#FFFFFF;stroke:#020203;stroke-width:0.51;stroke-miterlimit:10;}
	.st113{fill:#F2F2F2;stroke:#020203;stroke-width:1.02;stroke-miterlimit:10;}
	.st114{fill:none;stroke:#020203;stroke-width:1.02;stroke-miterlimit:10;}
	.st115{fill:none;stroke:#020203;stroke-width:0.51;stroke-miterlimit:10;}
	.st116{fill:none;stroke:#020203;stroke-width:0.97;stroke-miterlimit:10;}
	.st117{fill:none;stroke:#020203;stroke-width:0.84;stroke-miterlimit:10;}
	.st118{fill:#F3F3F3;stroke:#020203;stroke-width:1.02;stroke-miterlimit:10;}
	.st119{fill:none;stroke:#020203;stroke-width:1.07;stroke-miterlimit:10;}
	.st120{fill:none;stroke:#020203;stroke-width:1.06;stroke-miterlimit:10;}
	.st121{fill:none;stroke:#020203;stroke-width:0.56;stroke-miterlimit:10;}
	.st122{fill:#FFFFFF;stroke:#020203;stroke-width:0.75;stroke-miterlimit:10;}
	.st123{fill:none;stroke:#020203;stroke-width:0.49;stroke-miterlimit:10;}
</style>
<g>
	<path class="st2" d="M200.6,173.5c0,0,3.4,8.3,3.8,35.2c-0.7,7.6-3.4,21.3-5,32.3c-1.3,24.7,4.8,72.9,4.8,72.9
		s-22.8,13.6-23.2,22.9c0,9.3,29.7,11.2,29.7,11.2s-4.3-30.6,18.2-33.9c-8.2-39.3-10.4-83.2-13.1-101.9
		C213,193.5,204.6,179.5,200.6,173.5z"/>
	<path class="st2" d="M417.9,173.5c0,0-3.4,8.3-3.8,35.2c0.7,7.6,3.4,21.3,5,32.3c1.3,24.7-4.8,72.9-4.8,72.9s22.8,13.6,23.2,22.9
		c0,9.3-29.7,11.2-29.7,11.2s4.3-30.6-18.2-33.9c8.2-39.3,10.4-83.2,13.1-101.9C405.5,193.5,413.9,179.5,417.9,173.5z"/>
	<path class="st2" d="M261.8,313.2c0,0-2.5-64.8-3.2-72.8c-3-33.3-12.4-58-7.4-70.3c6.9-17.1,33-28.9,79-22.8
		c53.6,10.1,41.3,38,41.3,38l-9.3,58.7l-2.8,69.7c0,0,4.6,1.6,6.3,8.8c0.8,3.4-38.2,8.5-55.9,7.6c-17.8-0.9-55.6-2.1-54.3-7.6
		C256.8,316.9,258.2,316.1,261.8,313.2z"/>
	<path class="st2" d="M358.5,133.2c0,0,3.3-16.7,15.6-14.8c12.4,1.9,13.5,18.8,13.5,18.8s1,19.3-16.6,19.3c5.4,0,15.8-9.3,12.5-21.1
		c-3-11.1-8-12.6-13.6-12.6C364.3,122.7,358.9,131.2,358.5,133.2z"/>
	<path class="st2" d="M259.8,133c0,0-3.3-16.7-15.6-14.8c-12.4,1.9-13.5,18.8-13.5,18.8s-1,19.3,16.6,19.3
		c-5.4,0-15.8-9.3-12.5-21.1c3-11.1,8-12.6,13.6-12.6S259.4,131.1,259.8,133z"/>
	<g>
		<path class="st2" d="M418.3,172.3c1.6-4.1,5.3-18.1,5.6-27.4c0.8-16.5-25.2-49-29.3-57.9c-1-2.1-12.8-27.5-13.5-29.1
			c-0.7-1.6-3.9-9.3-10.3-16.7c0-2.1,2-6.4,1.5-8.6c-0.5-2.2-1.4-3.9-3-5.2c-8.1-3.1-44.7-5.3-60.3-5.5c-15.6,0.2-52,2.4-60.1,5.5
			c-1.6,1.3-2.5,3-3,5.2c-0.5,2.2,1.5,6.5,1.5,8.6c-6.4,7.3-9.7,15-10.3,16.7c-0.7,1.6-12.5,27-13.5,29.1
			c-4.1,8.9-30.1,41.4-29.3,57.9c0.3,9.3,4,23.3,5.6,27.4c1.6,4.1,2.6,14.1,3.5,17.1c0.9,2.9,0.9,16.9,0.9,19.2
			c0,2.3-5.3,30.6-5.4,36.8c-0.1,6.2,3.1,56.3,3.7,61.7c0.6,5.4,1.7,6.7,1.7,6.7s10,0,16.4-0.1c6.4-0.1,170.4-0.1,176.8,0
			s16.4,0.1,16.4,0.1s1.1-1.3,1.7-6.7c0.6-5.4,3.8-55.5,3.7-61.7s-5.4-34.4-5.4-36.8c0-2.3,0-16.3,0.9-19.2
			C415.6,186.5,416.7,176.4,418.3,172.3z"/>
		<path class="st2" d="M296.1,408.7h26.6v18.1c0,0-6.1,4.1-13.4,4.1s-13.2-4.1-13.2-4.1V408.7z"/>
		<path class="st2" d="M418.3,172.3c0,0-11.7,19-14.3,30.2c-1.7,7.5-5.4,41.9-6,53.8c-0.6,12-6.1,51.9-8.3,57.3"/>
		<path class="st2" d="M199.9,172.3c0,0,11.7,19,14.3,30.2c1.7,7.5,5.4,41.9,6,53.8c0.6,12,6.1,51.9,8.3,57.3"/>
		<path class="st2" d="M359.2,313.8c0,0,3.2-58.4,3-72.2c1.4-14.8,9.4-56.8,9.4-56.8s7.6-21.6-23.8-33.1c-25.4-7-38-6.3-38-6.3"/>
		<path class="st2" d="M261.8,313.8c0,0-3.2-58.4-3-72.2c-1.4-14.8-9.4-56.8-9.4-56.8s-5.6-23.1,25.8-34.6c22.3-6,34.9-4.8,34.9-4.8
			"/>
		<polyline class="st2" points="370.8,41.3 354.6,118.9 310,118.9 		"/>
		<polyline class="st2" points="247.5,41.3 263.7,118.9 310,118.9 		"/>
		<line class="st2" x1="354.6" y1="118.9" x2="347.8" y2="151.7"/>
		<line class="st2" x1="263.7" y1="119.1" x2="270.5" y2="151.8"/>
		<ellipse class="st2" cx="245.5" cy="137.4" rx="14.8" ry="19"/>
		<ellipse class="st0" cx="247.4" cy="139.3" rx="12.9" ry="16.6"/>
		<ellipse class="st0" cx="371.2" cy="139.3" rx="12.9" ry="16.6"/>
		<ellipse class="st2" cx="372.8" cy="137.4" rx="14.8" ry="19"/>
		<path class="st2" d="M414.5,313.8c0,0,24.4,12.8,24.2,28.3c-0.2,15.4-4.9,37.7-12.1,40.3c-22.6,9.5-92.1,14-118.2,13.3"/>
		<path class="st2" d="M204.1,313.8c0,0-24.4,12.8-24.2,28.3c0.2,15.4,4.9,37.7,12.1,40.3c22.6,9.5,90.2,14,116.3,13.3"/>
		<path class="st2" d="M359.2,313.7c0,0,5,1.5,4.8,5.7c1,1.4,2.4,3.3,1.2,4.4c-4.7,4.3-50.6,6.2-55.5,6.3"/>
		<path class="st2" d="M261.8,313.8c0,0-5,1.5-4.8,5.7c-1,1.4-2.4,3.3-1.2,4.4c4.7,4.3,49.2,6,54.1,6.2"/>
		<path class="st2" d="M256.9,319.5c0,0,59.4,6.8,107.1-0.1"/>
		<path class="st2" d="M365.8,322.4c0,0,13,3.5,15,26.2c2,22.7-1.3,43.1-1.3,43.1"/>
		<path class="st2" d="M255.3,322.8c0,0-13,3.5-15,26.2s1.3,43.1,1.3,43.1"/>
		<path class="st2" d="M380.8,348.6c0,0,23-0.4,32.8-1.1c6-0.4,24.2-3.2,24.2-10.9"/>
		<path class="st2" d="M390.5,313.7c0,0,13.5,3.2,16.3,12.4c3.8,12,2.4,21.7,2.4,21.7"/>
		<path class="st2" d="M240.3,348.7c0,0-24.2-0.4-33.9-1.1c-6-0.4-25.4-3.5-25.4-11.2"/>
		<path class="st2" d="M229.4,313.8c0,0-13.5,3.2-16.3,12.4c-3.8,12-2.4,21.7-2.4,21.7"/>
		<g>
			<path class="st2" d="M418.9,250.2c0,0,10-18.4,13.7-15.7c3,2.2,6.1,22.6,11.7,24.5c5.6,1.8,19.3,3.2,24.6-9.9
				c1.4,12.2-5.9,32.8-13.1,32.8c-9.9,0-15.9-0.4-18.4-12.1s-2.9-20-4.8-25.4c-1.4-4.2-4.3-1.4-6.3,2.8c-0.9,1.9-8,17-8,17"/>
			<path class="st2" d="M425.7,239.5c0,0-3.5-7.7,3.4-16.6c6.9-8.9,34.8-5.1,38.7,0.5s4.2,10,3.5,16.2c-0.7,6.4-2.5,9.6-2.5,9.6"/>
			<path class="st2" d="M431.2,221c0,0,5.7-1.4,8.5,10.6c2.8,12,7.1,15.9,15.1,16c8.1,0.2,12.7-4.1,13.6-10.6
				c0.8-6.5-1.2-14.6-1.2-14.6"/>
			<path class="st2" d="M436.1,261.8c0,0-2.5,4.2-4,4.6c0-2.8,0.6-7.5-3.1-9c-6-1.6-9.3,3.7-9.3,3.7"/>
			<path class="st2" d="M432.1,266.4c0,0-2.8,22-3.5,31.4s-1.1,25.2-1.1,25.2"/>
			<line class="st2" x1="416.1" y1="299.5" x2="417" y2="315.3"/>
			<path class="st2" d="M441.9,278.8c0,0-10.9,44.1-11.5,46.8"/>
			<path class="st2" d="M455.9,281.9c0,0-16.7,63.2-17.3,65.9"/>
		</g>
		<g>
			<path class="st2" d="M199.3,250.4c0,0-10-18.4-13.7-15.7c-3,2.2-6.1,22.6-11.7,24.5s-19.3,3.2-24.6-9.9
				c-1.4,12.2,5.9,32.8,13.1,32.8c9.9,0,15.9-0.4,18.4-12.1s2.9-20,4.8-25.4c1.4-4.2,4.3-1.4,6.3,2.8c0.9,1.9,8,17,8,17"/>
			<path class="st2" d="M192.5,239.7c0,0,3.5-7.7-3.4-16.6c-6.9-8.9-34.8-5.1-38.7,0.5s-4.2,10-3.5,16.2c0.7,6.4,4.9,16.8,4.9,16.8
				s19.5,9.8,24.6,0.9c5.2-8.9,7.5-19.5,11.5-18.4S192.5,239.7,192.5,239.7z"/>
			<path class="st2" d="M187,221.2c0,0-5.7-1.4-8.5,10.6s-7.1,15.9-15.1,16c-8.1,0.2-12.7-4.1-13.6-10.6c-0.8-6.5,1.2-14.6,1.2-14.6
				"/>
			<path class="st2" d="M182.1,262c0,0,2.5,4.2,4,4.6c0-2.8-0.6-7.5,3.1-9c6-1.6,9.3,3.7,9.3,3.7"/>
			<path class="st2" d="M186.1,266.7c0,0,2.8,22,3.5,31.4c0.6,9.4-3.5-33.9-3.5-33.9l-6.1-2.4l5.8-22.3l8.5,6.5l12,20.1l2.6,49.4
				l-16.6,11"/>
			<path class="st2" d="M425.7,239.7c0,0-3.5-7.7,3.4-16.6c6.9-8.9,34.8-5.1,38.7,0.5s4.2,10,3.5,16.2c-0.7,6.4-4.9,16.8-4.9,16.8
				s-19.5,9.8-24.6,0.9s-7.5-19.5-11.5-18.4S425.7,239.7,425.7,239.7z"/>
			<path class="st2" d="M432.1,266.7c0,0-2.8,22-3.5,31.4s3.5-33.9,3.5-33.9l6.1-2.4l-5.8-22.3l-8.5,6.5l-12,20.1l-2.6,49.4l16.6,11
				l1.7-3.5"/>
			<line class="st2" x1="202.1" y1="299.8" x2="201.2" y2="315.5"/>
			<path class="st2" d="M161.7,280.2l0.6,1.9c0,0,17.4,63.2,18,65.9l0.7,0.7l8.9-12l-2-10.9c-0.6-2.7-11.5-46.8-11.5-46.8"/>
			<path class="st2" d="M456.5,280l-0.6,1.9c0,0-16.9,64.1-17.5,66.7l-1.1-0.1l-8.9-12l2-10.9c0.6-2.7,11.5-46.8,11.5-46.8"/>
		</g>
		<polyline class="st2" points="321.2,395.7 322,396.6 320.1,397.7 322.1,398.4 320.1,399.5 322,400.3 320.3,401.3 322,402 
			320.3,403.3 322,404.1 320.4,405.3 322,406 320.6,407 322,407.8 321.1,408.7 		"/>
		<line class="st2" x1="321.9" y1="396.7" x2="296.7" y2="397.9"/>
		<line class="st2" x1="322.1" y1="398.4" x2="296.8" y2="399.6"/>
		<line class="st2" x1="321.7" y1="400.3" x2="297.2" y2="401.1"/>
		<line class="st2" x1="321.9" y1="402" x2="297.1" y2="402.7"/>
		<line class="st2" x1="322" y1="404.1" x2="297.1" y2="404.6"/>
		<line class="st2" x1="321.9" y1="406.1" x2="297.1" y2="406.3"/>
		<path class="st2" d="M296.1,426.9c0,0,12.4,3.2,26.6-0.1"/>
		<path class="st2" d="M322.7,421.8c0,0,2.6,0.4,2.6,1.7c0,1.3,0.7,45.5,0.7,45.5s-13.3,7.1-33.4-0.8c0.6-17.9,1.4-44.5,1.4-44.5
			s0.6-0.9,2-1.2"/>
		<path class="st2" d="M294.1,423.8c0,0,0.7,0.7,2,0.9"/>
		<path class="st2" d="M325,422.8c0,0-0.7,0.7-2,0.9"/>
		<path class="st2" d="M216.9,388.7l-2.2,6.5c0,0,1.2,2.2,3.2,0.7c0.9-2.9,2-6.7,2-6.7"/>
		<polyline class="st2" points="214.8,395 213.1,394.5 212.6,396.8 218.4,398.4 219.3,396.2 218,395.7 		"/>
		<path class="st2" d="M213.1,394.5c0,0-9,12.1-10.5,14.7s-1.4,7.8,2.2,7.8c2.2,0.7,3.7,1.9,3.7,1.9s1.2,1,4,0.3
			c1.6,0.1,2.8,0.8,3.8,0.5c1-0.3,3-1.5,3.3-4.7c0.3-3.2-0.2-18.9-0.2-18.9"/>
		<path class="st2" d="M212.8,396.8l-3.5,8.9c0,0,2.4,4.7,7,2c1.2-3.6,2.1-9.2,2.1-9.2s-0.2,12.7-0.5,15.3s-1.3,3.5-2.1,3.8
			c-0.9,0.2-2.5-0.4-3.8-0.3c-1.3,0.1-3.1-0.1-3.8-0.5c-0.7-0.4-0.9-0.9-2.5-1.3c-3.2-0.6-2.6-4.1-1.4-6.3
			c1.2-2.2,8.3-12.5,8.3-12.5"/>
		<g>
			<path class="st2" d="M292.7,461.4c0,0-30.4-11.6-60.1-3.7c-12.1,2-9,11.5-9,11.5h1.9c0,0,0-1.6,0.7-2.1
				c1.2-0.8,17.9-3.7,37.5,4.9"/>
			<path class="st2" d="M225.5,469.2c0,0,4.2,2.1,9,1c4.9-1.1,4.8-4.1,4.8-4.1"/>
			<path class="st2" d="M285.2,468.9c0,0-70.6,6.7-121.1,33.7c0,0-4.7,0.8-5.3,5.1s0.4,6,0.3,6.8c-0.2,0.8,6.6,3.7,13.2,0.8
				c1.3-2.6,3.9-5.6,9.1-6.5c5.2-1,49-18.3,109.4-19.8c2.9,1.9,5.1,2.8,5.6,3"/>
			<path class="st2" d="M172.4,515.2c0,0,4.6,0.2,4.8-4.9"/>
			<path class="st2" d="M325.6,461.4c0,0,30.4-11.6,60.1-3.7c12.1,2,9,11.5,9,11.5h-1.9c0,0,0-1.6-0.7-2.1
				c-1.2-0.8-17.9-3.7-37.5,4.9"/>
			<path class="st2" d="M392.8,469.2c0,0-4.2,2.1-9,1c-4.9-1.1-4.8-4.1-4.8-4.1"/>
			<path class="st2" d="M333.1,468.9c0,0,70.6,6.7,121.1,33.7c0,0,4.7,0.8,5.3,5.1s-0.4,6-0.3,6.8c0.2,0.8-6.6,3.7-13.2,0.8
				c-1.3-2.6-3.9-5.6-9.1-6.5c-5.2-1-49-18.3-109.4-19.8c-2.9,1.9-5.1,2.8-5.6,3"/>
			<path class="st2" d="M445.9,515.2c0,0-4.6,0.2-4.8-4.9"/>
			<path class="st2" d="M296.5,477.5c0,0,1.6,53.4,2.7,60.3s0,12.7,0,12.7s3.3,5.4,10.2,5.6"/>
			<path class="st2" d="M322.2,477.5c0,0-1.6,53.4-2.7,60.3c-1,6.9,0,12.7,0,12.7s-3.3,5.4-10.2,5.6"/>
		</g>
		<g>
			<path class="st2" d="M212.9,483.3c0,0-0.8-10.7,4.6-11s8.4,7.4,8.4,7.4"/>
			<path class="st2" d="M217.2,472.4l5.2-1.2c0,0,5.6,2.1,6.5,7.9"/>
			<path class="st2" d="M229,470.2v1.2c0,0,3.6,1.6,5.8,0c0-0.6,0-1.4,0-1.4"/>
			<path class="st2" d="M228.9,470.9c0,0-1.2,0.3-1.2,0.8c0,0.6,6.1,2.5,8.8-0.1c-0.4-0.9-1.6-0.7-1.6-0.7"/>
			<path class="st2" d="M223.7,471.8c0,0,1.5-1.1,3-2.1"/>
			<path class="st2" d="M235.1,470.2c0,0,3,1.2,4.2,6.1"/>
			<polyline class="st2" points="214.1,475.6 217.4,482.1 216.5,482.3 213.2,477.6 			"/>
			<line class="st2" x1="216.6" y1="472.5" x2="218" y2="481.7"/>
			<line class="st2" x1="218.7" y1="472.5" x2="218.6" y2="481.7"/>
			<path class="st2" d="M222.9,475.1c0,0-3.3,5.9-3.4,6.2"/>
			<line class="st2" x1="221" y1="481.1" x2="224.2" y2="477"/>
		</g>
		<g>
			<path class="st2" d="M405.4,483.3c0,0,0.8-10.7-4.6-11c-5.4-0.3-8.4,7.4-8.4,7.4"/>
			<path class="st2" d="M401.1,472.4l-5.2-1.2c0,0-5.6,2.1-6.5,7.9"/>
			<path class="st2" d="M389.3,470.2v1.2c0,0-3.6,1.6-5.8,0c0-0.6,0-1.4,0-1.4"/>
			<path class="st2" d="M389.4,470.9c0,0,1.2,0.3,1.2,0.8c0,0.6-6.1,2.5-8.8-0.1c0.4-0.9,1.6-0.7,1.6-0.7"/>
			<line class="st2" x1="390.7" y1="471.7" x2="390.7" y2="475.3"/>
			<line class="st2" x1="381.9" y1="471.6" x2="381.9" y2="477.1"/>
			<path class="st2" d="M394.6,471.8c0,0-1.5-1.1-3-2.1"/>
			<path class="st2" d="M383.2,470.2c0,0-3,1.2-4.2,6.1"/>
			<polyline class="st2" points="404.2,475.6 400.9,482.1 401.8,482.3 405.1,477.6 			"/>
			<line class="st2" x1="401.7" y1="472.5" x2="400.3" y2="481.7"/>
			<line class="st2" x1="399.6" y1="472.5" x2="399.7" y2="481.7"/>
			<path class="st2" d="M395.4,475.1c0,0,3.3,5.9,3.4,6.2"/>
			<line class="st2" x1="397.3" y1="481.1" x2="394.1" y2="477"/>
		</g>
		<path class="st2" d="M164.7,516.5c-0.5-0.1-2.3,1.1,1.3,1.7c2.7,0.4,7.5,0,7.8-0.7s-1.1-1.2-1.7-1.3"/>
		<path class="st2" d="M173.8,517.3l-0.5,12.1c0,0-0.2,1-0.7,1.3"/>
		<path class="st2" d="M453.3,516.7c0.5-0.1,2.3,1.1-1.3,1.7c-2.7,0.4-7.5,0-7.8-0.7c-0.3-0.7,1.1-1.2,1.7-1.3"/>
		<line class="st2" x1="446" y1="515.8" x2="446" y2="518"/>
		<line class="st2" x1="454.1" y1="517.5" x2="454.1" y2="520.8"/>
		<path class="st2" d="M444.2,517.5l0.5,12.1c0,0,0.2,1,0.7,1.3"/>
		<path class="st2" d="M305.1,558.8h-5.8c0,0-1.4,5.9-1.2,15.3c0,0.6-0.7,1.5-0.7,1.5l-0.1,1.9c0,0,0.5,0.5,0.5,0.8
			c0.1,8,1.3,13.7,1.3,13.7l5.8,0.4C304.8,592.3,305.8,561.1,305.1,558.8z"/>
		<path class="st2" d="M299.3,558.8c0,0-0.2,13.8-0.2,33.2"/>
		<path class="st2" d="M313.4,558.8h5.8c0,0,1.4,5.9,1.2,15.3c0,0.6,0.7,1.5,0.7,1.5l0.1,1.9c0,0-0.5,0.5-0.5,0.8
			c-0.1,8-1.3,13.7-1.3,13.7l-5.8,0.4C313.7,592.3,312.6,561.1,313.4,558.8z"/>
		<path class="st2" d="M319.2,558.8c0,0,0.2,13.8,0.2,33.2"/>
		<g>
			<ellipse class="st2" cx="158" cy="534.4" rx="15.1" ry="14.9"/>
			<ellipse class="st2" cx="158" cy="534.4" rx="13.2" ry="13"/>
			<path class="st2" d="M163.7,518.3c-2.3-1.1-6.7-2.6-12.2-0.2c-5.5,2.5-8,7.9-8.1,12.4"/>
			<path class="st2" d="M153.5,522.3l3.5,10.3c0,0-0.3,0.1-0.7,0.5c-0.9-0.6-8.7-6.5-8.7-6.5"/>
			<path class="st2" d="M164.1,522.9l-4.7,9.5c0,0-0.8-0.2-1.2-0.1c-0.4-2-1.3-10.7-1.3-10.7"/>
			<path class="st2" d="M170.3,530l-9.4,3.8c0,0-0.1-0.3-0.5-0.7c0.6-0.9,6.3-8.2,6.3-8.2"/>
			<path class="st2" d="M170,540l-9.1-4.1c0,0,0.2-0.4,0.2-0.9c1.1-0.2,9.9-2.4,9.9-2.4"/>
			<path class="st2" d="M162.8,546.5l-3.1-9.2c0,0,0.3-0.1,0.7-0.5c0.9,0.6,7.8,5.8,7.8,5.8"/>
			<path class="st2" d="M152.9,546.4l4.6-9c0,0,0.5,0.1,1,0.1c0.4,2,1.1,8.6,1.2,9.8"/>
			<path class="st2" d="M146.1,540l9.6-3.9c0,0,0.1,0.3,0.5,0.7c-0.6,0.9-6.1,8-6.1,8"/>
			<path class="st2" d="M145.8,529.5l9.9,4.5c0,0-0.2,0.4-0.2,0.9c-1.1,0.2-10.3,2.4-10.3,2.4"/>
		</g>
		<g>
			<ellipse class="st2" cx="459.8" cy="534.4" rx="15.1" ry="14.9"/>
			<ellipse class="st2" cx="459.8" cy="534.4" rx="13.2" ry="13"/>
			<path class="st2" d="M454,518.3c2.3-1.1,6.7-2.6,12.2-0.2c5.5,2.5,8,7.9,8.1,12.4"/>
			<path class="st2" d="M464.3,522.3l-3.5,10.3c0,0,0.3,0.1,0.7,0.5c0.9-0.6,8.7-6.5,8.7-6.5"/>
			<path class="st2" d="M453.7,522.9l4.7,9.5c0,0,0.8-0.2,1.2-0.1c0.4-2,1.3-10.7,1.3-10.7"/>
			<path class="st2" d="M447.4,530l9.4,3.8c0,0,0.1-0.3,0.5-0.7c-0.6-0.9-6.3-8.2-6.3-8.2"/>
			<path class="st2" d="M447.7,540l9.1-4.1c0,0-0.2-0.4-0.2-0.9c-1.1-0.2-9.9-2.4-9.9-2.4"/>
			<path class="st2" d="M455,546.5l3.1-9.2c0,0-0.3-0.1-0.7-0.5c-0.9,0.6-7.8,5.8-7.8,5.8"/>
			<path class="st2" d="M464.9,546.4l-4.6-9c0,0-0.5,0.1-1,0.1c-0.4,2-1.1,8.6-1.2,9.8"/>
			<path class="st2" d="M471.7,540l-9.6-3.9c0,0-0.1,0.3-0.5,0.7c0.6,0.9,6.1,8,6.1,8"/>
			<path class="st2" d="M472,529.5L462,534c0,0,0.2,0.4,0.2,0.9c1.1,0.2,10.3,2.4,10.3,2.4"/>
		</g>
		<ellipse class="st0" cx="370.9" cy="139.3" rx="12.9" ry="16.6"/>
	</g>
</g>
<polygon class="st2" points="290.5,484.2 293.7,489.8 298.9,492.8 303.6,551.6 309.2,555.3 313.1,551.6 318.2,519.8 321.2,492.2 
	331.5,485.6 "/>
<rect x="264.9" y="461.6" class="st2" width="89.7" height="27.4"/>
<polygon class="st2" points="321.1,408.7 297.3,408.5 298.3,407.3 297.3,406.1 298.2,405.3 297.3,404.3 298.4,403.6 297.3,402.8 
	298.6,401.8 297.4,401 298.4,400.2 297.1,399.4 298.4,398.8 297.4,397.8 298.6,397 297.4,396 321.2,395.5 "/>
<polygon class="st2" points="315,554.5 303.6,553.8 303.6,560.3 305.5,580.4 314.7,580.4 314.7,563.9 "/>
<polyline class="st2" points="224.2,469.3 227.6,461.8 247.4,463.8 239.3,465.2 234.1,470.9 236.4,470.7 238.5,473.1 239.8,476.3 
	229.5,478.7 225.8,479.6 223.9,474.9 224.2,471.4 226.5,470.1 225.8,469.3 224.6,469.4 "/>
<polyline class="st2" points="394.8,469 391.4,461.6 371.6,463.6 379.7,465 384.9,470.7 382.6,470.5 380.5,472.8 379.2,476 
	389.5,478.5 393.2,479.4 395.1,474.7 394.8,471.2 392.5,469.9 393.2,469.1 394.4,469.1 "/>
<polygon class="st2" points="172.7,531 163.8,531 159.1,519.8 163.7,518.3 163.8,517.3 173.7,517.5 "/>
<polygon class="st2" points="445.2,531 454.1,531 458.8,519.8 454.2,518.3 454.1,517.3 444.1,517.5 "/>
<polygon class="st2" points="406.8,383.6 328,383.6 308.4,395.6 213.2,383.6 213.2,302.5 406.8,302.5 "/>
<polygon class="st2" points="175.2,514.1 172.4,515.2 169.1,507.5 177.2,510.3 "/>
<polygon class="st2" points="443.1,514.2 445.9,515.2 449.2,507.6 441.1,510.4 "/>
<g>
	<g>
		<path class="st70" d="M200.9,173.5c0,0,3.4,8.3,3.8,35.2c-0.7,7.6-3.4,21.3-5,32.3c-1.3,24.7,4.8,72.9,4.8,72.9
			s-22.8,13.6-23.2,22.9c0,9.3,29.7,11.2,29.7,11.2s-4.3-30.6,18.2-33.9c-8.2-39.3-10.4-83.2-13.1-101.9
			C213.3,193.5,204.9,179.5,200.9,173.5z"/>
		<path class="st70" d="M418.2,173.5c0,0-3.4,8.3-3.8,35.2c0.7,7.6,3.4,21.3,5,32.3c1.3,24.7-4.8,72.9-4.8,72.9s22.8,13.6,23.2,22.9
			c0,9.3-29.7,11.2-29.7,11.2s4.3-30.6-18.2-33.9c8.2-39.3,10.4-83.2,13.1-101.9C405.8,193.5,414.2,179.5,418.2,173.5z"/>
		<path class="st70" d="M262,313.2c0,0-2.5-64.8-3.2-72.8c-3-33.3-12.4-58-7.4-70.3c6.9-17.1,33-28.9,79-22.8
			c53.6,10.1,41.3,38,41.3,38l-9.3,58.7l-2.8,69.7c0,0,4.6,1.6,6.3,8.8c0.8,3.4-38.2,8.5-55.9,7.6c-17.8-0.9-55.6-2.1-54.3-7.6
			S258.4,316.1,262,313.2z"/>
		<path class="st70" d="M358.8,133.2c0,0,3.3-16.7,15.6-14.8c12.4,1.9,13.5,18.8,13.5,18.8s1,19.3-16.6,19.3
			c5.4,0,15.8-9.3,12.5-21.1c-3-11.1-8-12.6-13.6-12.6C364.5,122.7,359.1,131.2,358.8,133.2z"/>
		<path class="st70" d="M260,133c0,0-3.3-16.7-15.6-14.8C232.1,120.1,231,137,231,137s-1,19.3,16.6,19.3c-5.4,0-15.8-9.3-12.5-21.1
			c3-11.1,8-12.6,13.6-12.6S259.7,131.1,260,133z"/>
		<g>
			<path class="st71" d="M418.5,172.3c1.6-4.1,5.3-18.1,5.6-27.4c0.8-16.5-25.2-49-29.3-57.9c-1-2.1-12.8-27.5-13.5-29.1
				c-0.7-1.6-3.9-9.3-10.3-16.7c0-2.1,2-6.4,1.5-8.6c-0.5-2.2-1.4-3.9-3-5.2c-8.1-3.1-44.7-5.3-60.3-5.5c-15.6,0.2-52,2.4-60.1,5.5
				c-1.6,1.3-2.5,3-3,5.2c-0.5,2.2,1.5,6.5,1.5,8.6c-6.4,7.3-9.7,15-10.3,16.7c-0.7,1.6-12.5,27-13.5,29.1
				c-4.1,8.9-30.1,41.4-29.3,57.9c0.3,9.3,4,23.3,5.6,27.4c1.6,4.1,2.6,14.1,3.5,17.1c0.9,2.9,0.9,16.9,0.9,19.2
				c0,2.3-5.3,30.6-5.4,36.8c-0.1,6.2,3.1,56.3,3.7,61.7c0.6,5.4,1.7,6.7,1.7,6.7s10,0,16.4-0.1c6.4-0.1,170.4-0.1,176.8,0
				s16.4,0.1,16.4,0.1s1.1-1.3,1.7-6.7c0.6-5.4,3.8-55.5,3.7-61.7c-0.1-6.2-5.4-34.4-5.4-36.8c0-2.3,0-16.3,0.9-19.2
				C415.9,186.5,417,176.4,418.5,172.3z"/>
			<path class="st71" d="M418.5,172.3c0,0-11.7,19-14.3,30.2c-1.7,7.5-5.4,41.9-6,53.8c-0.6,12-6.1,51.9-8.3,57.3"/>
			<path class="st71" d="M200.2,172.3c0,0,11.7,19,14.3,30.2c1.7,7.5,5.4,41.9,6,53.8c0.6,12,6.1,51.9,8.3,57.3"/>
			<path class="st71" d="M359.5,313.8c0,0,3.2-58.4,3-72.2c1.4-14.8,9.4-56.8,9.4-56.8s7.6-21.6-23.8-33.1c-25.4-7-38-6.3-38-6.3"/>
			<path class="st71" d="M262.1,313.8c0,0-3.2-58.4-3-72.2c-1.4-14.8-9.4-56.8-9.4-56.8s-5.6-23.1,25.8-34.6
				c22.3-6,34.9-4.8,34.9-4.8"/>
			<line class="st72" x1="260.6" y1="284.8" x2="361.5" y2="284.8"/>
			<line class="st72" x1="258.8" y1="244.4" x2="362.8" y2="244.4"/>
			<polyline class="st71" points="371.1,41.3 354.8,118.9 310.3,118.9 			"/>
			<polyline class="st71" points="247.7,41.3 264,118.9 310.3,118.9 			"/>
			<line class="st72" x1="354.8" y1="118.9" x2="348.1" y2="151.7"/>
			<line class="st72" x1="264" y1="119.1" x2="270.8" y2="151.8"/>
			<ellipse class="st71" cx="245.8" cy="137.4" rx="14.8" ry="19"/>
			<ellipse class="st71" cx="373" cy="137.4" rx="14.8" ry="19"/>
			<ellipse class="st72" cx="371.2" cy="139.3" rx="12.9" ry="16.6"/>
			<path class="st71" d="M414.7,313.8c0,0,24.4,12.8,24.2,28.3c-0.2,15.4-4.9,37.7-12.1,40.3c-22.6,9.5-92.1,14-118.2,13.3"/>
			<path class="st71" d="M204.4,313.8c0,0-24.4,12.8-24.2,28.3c0.2,15.4,4.9,37.7,12.1,40.3c22.6,9.5,90.2,14,116.3,13.3"/>
			<path class="st71" d="M359.5,313.7c0,0,5,1.5,4.8,5.7c1,1.4,2.4,3.3,1.2,4.4c-4.7,4.3-50.6,6.2-55.5,6.3"/>
			<path class="st71" d="M262,313.8c0,0-5,1.5-4.8,5.7c-1,1.4-2.4,3.3-1.2,4.4c4.7,4.3,49.2,6,54.1,6.2"/>
			<path class="st72" d="M257.2,319.5c0,0,59.4,6.8,107.1-0.1"/>
			<path class="st71" d="M366,322.4c0,0,13,3.5,15,26.2c2,22.7-1.3,43.1-1.3,43.1"/>
			<path class="st71" d="M255.5,322.8c0,0-13,3.5-15,26.2s1.3,43.1,1.3,43.1"/>
			<path class="st71" d="M381,348.6c0,0,23-0.4,32.8-1.1c6-0.4,24.2-3.2,24.2-10.9"/>
			<path class="st71" d="M390.8,313.7c0,0,13.5,3.2,16.3,12.4c3.8,12,2.4,21.7,2.4,21.7"/>
			<path class="st71" d="M240.5,348.7c0,0-24.2-0.4-33.9-1.1c-6-0.4-25.4-3.5-25.4-11.2"/>
			<path class="st71" d="M229.6,313.8c0,0-13.5,3.2-16.3,12.4c-3.8,12-2.4,21.7-2.4,21.7"/>
			<g>
				<path class="st71" d="M419.2,250.2c0,0,10-18.4,13.7-15.7c3,2.2,6.1,22.6,11.7,24.5c5.6,1.8,19.3,3.2,24.6-9.9
					c1.4,12.2-5.9,32.8-13.1,32.8c-9.9,0-15.9-0.4-18.4-12.1s-2.9-20-4.8-25.4c-1.4-4.2-4.3-1.4-6.3,2.8c-0.9,1.9-8,17-8,17"/>
				<path class="st71" d="M426,239.5c0,0-3.5-7.7,3.4-16.6c6.9-8.9,34.8-5.1,38.7,0.5s4.2,10,3.5,16.2c-0.7,6.4-2.5,9.6-2.5,9.6"/>
				<path class="st72" d="M431.5,221c0,0,5.7-1.4,8.5,10.6c2.8,12,7.1,15.9,15.1,16c8.1,0.2,12.7-4.1,13.6-10.6
					c0.8-6.5-1.2-14.6-1.2-14.6"/>
				<path class="st71" d="M436.4,261.8c0,0-2.5,4.2-4,4.6c0-2.8,0.6-7.5-3.1-9c-6-1.6-9.3,3.7-9.3,3.7"/>
				<path class="st71" d="M432.4,266.4c0,0-2.8,22-3.5,31.4c-0.6,9.4-1.1,25.2-1.1,25.2"/>
				<line class="st71" x1="416.4" y1="299.5" x2="417.3" y2="315.3"/>
				<path class="st71" d="M442.1,278.8c0,0-10.9,44.1-11.5,46.8"/>
				<path class="st71" d="M456.2,281.9c0,0-16.7,63.2-17.3,65.9"/>
			</g>
			<g>
				<path class="st71" d="M199.5,250.4c0,0-10-18.4-13.7-15.7c-3,2.2-6.1,22.6-11.7,24.5s-19.3,3.2-24.6-9.9
					c-1.4,12.2,5.9,32.8,13.1,32.8c9.9,0,15.9-0.4,18.4-12.1s2.9-20,4.8-25.4c1.4-4.2,4.3-1.4,6.3,2.8c0.9,1.9,8,17,8,17"/>
				<path class="st71" d="M192.7,239.7c0,0,3.5-7.7-3.4-16.6c-6.9-8.9-34.8-5.1-38.7,0.5s-4.2,10-3.5,16.2c0.7,6.4,2.5,9.6,2.5,9.6"
					/>
				<path class="st72" d="M187.3,221.2c0,0-5.7-1.4-8.5,10.6s-7.1,15.9-15.1,16c-8.1,0.2-12.7-4.1-13.6-10.6
					c-0.8-6.5,1.2-14.6,1.2-14.6"/>
				<path class="st71" d="M182.4,262c0,0,2.5,4.2,4,4.6c0-2.8-0.6-7.5,3.1-9c6-1.6,9.3,3.7,9.3,3.7"/>
				<path class="st71" d="M186.4,266.7c0,0,2.8,22,3.5,31.4c0.6,9.4,1.1,25.2,1.1,25.2"/>
				<line class="st71" x1="202.3" y1="299.8" x2="201.4" y2="315.5"/>
				<path class="st71" d="M176.6,279.1c0,0,10.9,44.1,11.5,46.8"/>
				<path class="st71" d="M162.5,282.1c0,0,17.4,63.2,18,65.9"/>
			</g>
			<polyline class="st72" points="321.5,395.7 322.2,396.6 320.4,397.7 322.3,398.4 320.4,399.5 322.2,400.3 320.6,401.3 322.2,402 
				320.6,403.3 322.2,404.1 320.7,405.3 322.2,406 320.8,407 322.2,407.8 321.3,408.7 			"/>
			<polyline class="st72" points="297,395.7 298.6,397 297,397.9 298.6,398.7 297,399.5 298.6,400.2 297,401.1 298.6,401.8 
				297,402.8 298.6,403.5 297,404.5 298.6,405.3 297,406.1 298.6,407.3 297.2,407.9 298.1,408.7 			"/>
			<line class="st72" x1="322.1" y1="396.7" x2="297" y2="397.9"/>
			<line class="st72" x1="322.3" y1="398.4" x2="297.1" y2="399.6"/>
			<line class="st72" x1="322" y1="400.3" x2="297.5" y2="401.1"/>
			<line class="st72" x1="322.1" y1="402" x2="297.3" y2="402.7"/>
			<line class="st72" x1="322.2" y1="404.1" x2="297.3" y2="404.6"/>
			<line class="st72" x1="322.1" y1="406.1" x2="297.3" y2="406.3"/>
			<line class="st72" x1="322.2" y1="407.8" x2="297.5" y2="407.8"/>
			<path class="st71" d="M296.3,408.7H323v18.1c0,0-6.1,4.1-13.4,4.1c-7.4,0-13.2-4.1-13.2-4.1V408.7z"/>
			<path class="st72" d="M296.3,426.9c0,0,12.4,3.2,26.6-0.1"/>
			<path class="st71" d="M323,421.8c0,0,2.6,0.4,2.6,1.7c0,1.3,0.7,45.5,0.7,45.5s-13.3,7.1-33.4-0.8c0.6-17.9,1.4-44.5,1.4-44.5
				s0.6-0.9,2-1.2"/>
			<path class="st71" d="M294.3,423.8c0,0,0.7,0.7,2,0.9"/>
			<path class="st71" d="M325.3,422.8c0,0-0.7,0.7-2,0.9"/>
			<path class="st71" d="M217.2,388.7l-2.2,6.5c0,0,1.2,2.2,3.2,0.7c0.9-2.9,2-6.7,2-6.7"/>
			<polyline class="st72" points="215.1,395 213.3,394.5 212.9,396.8 218.7,398.4 219.5,396.2 218.2,395.7 			"/>
			<path class="st71" d="M213.3,394.5c0,0-9,12.1-10.5,14.7s-1.4,7.8,2.2,7.8c2.2,0.7,3.7,1.9,3.7,1.9s1.2,1,4,0.3
				c1.6,0.1,2.8,0.8,3.8,0.5c1-0.3,3-1.5,3.3-4.7c0.3-3.2-0.2-18.9-0.2-18.9"/>
			<path class="st80" d="M213.1,396.8l-3.5,8.9c0,0,2.4,4.7,7,2c1.2-3.6,2.1-9.2,2.1-9.2s-0.2,12.7-0.5,15.3s-1.3,3.5-2.1,3.8
				c-0.9,0.2-2.5-0.4-3.8-0.3c-1.3,0.1-3.1-0.1-3.8-0.5c-0.7-0.4-0.9-0.9-2.5-1.3c-3.2-0.6-2.6-4.1-1.4-6.3s8.3-12.5,8.3-12.5"/>
			<g>
				<path class="st71" d="M293,461.4c0,0-30.4-11.6-60.1-3.7c-12.1,2-9,11.5-9,11.5h1.9c0,0,0-1.6,0.7-2.1
					c1.2-0.8,17.9-3.7,37.5,4.9"/>
				<path class="st72" d="M225.7,469.2c0,0,4.2,2.1,9,1c4.9-1.1,4.8-4.1,4.8-4.1"/>
				<path class="st71" d="M285.5,468.9c0,0-70.6,6.7-121.1,33.7c0,0-4.7,0.8-5.3,5.1s0.4,6,0.3,6.8c-0.2,0.8,6.6,3.7,13.2,0.8
					c1.3-2.6,3.9-5.6,9.1-6.5c5.2-1,49-18.3,109.4-19.8c2.9,1.9,5.1,2.8,5.6,3"/>
				<path class="st72" d="M172.7,515.2c0,0,4.6,0.2,4.8-4.9"/>
				<path class="st71" d="M325.9,461.4c0,0,30.4-11.6,60.1-3.7c12.1,2,9,11.5,9,11.5h-1.9c0,0,0-1.6-0.7-2.1
					c-1.2-0.8-17.9-3.7-37.5,4.9"/>
				<path class="st72" d="M393.1,469.2c0,0-4.2,2.1-9,1c-4.9-1.1-4.8-4.1-4.8-4.1"/>
				<path class="st71" d="M333.3,468.9c0,0,70.6,6.7,121.1,33.7c0,0,4.7,0.8,5.3,5.1s-0.4,6-0.3,6.8c0.2,0.8-6.6,3.7-13.2,0.8
					c-1.3-2.6-3.9-5.6-9.1-6.5s-49-18.3-109.4-19.8c-2.9,1.9-5.1,2.8-5.6,3"/>
				<path class="st72" d="M446.1,515.2c0,0-4.6,0.2-4.8-4.9"/>
				<path class="st71" d="M296.8,477.5c0,0,1.6,53.4,2.7,60.3c1,6.9,0,12.7,0,12.7s3.3,5.4,10.2,5.6"/>
				<path class="st71" d="M322.5,477.5c0,0-1.6,53.4-2.7,60.3c-1,6.9,0,12.7,0,12.7s-3.3,5.4-10.2,5.6"/>
			</g>
			<g>
				<path class="st71" d="M213.2,483.3c0,0-0.8-10.7,4.6-11s8.4,7.4,8.4,7.4"/>
				<path class="st71" d="M217.5,472.4l5.2-1.2c0,0,5.6,2.1,6.5,7.9"/>
				<path class="st72" d="M229.2,470.2v1.2c0,0,3.6,1.6,5.8,0c0-0.6,0-1.4,0-1.4"/>
				<path class="st72" d="M229.1,470.9c0,0-1.2,0.3-1.2,0.8c0,0.6,6.1,2.5,8.8-0.1c-0.4-0.9-1.6-0.7-1.6-0.7"/>
				<line class="st72" x1="227.9" y1="471.7" x2="227.9" y2="475.3"/>
				<line class="st72" x1="236.6" y1="471.6" x2="236.6" y2="477.1"/>
				<path class="st71" d="M223.9,471.8c0,0,1.5-1.1,3-2.1"/>
				<path class="st71" d="M235.4,470.2c0,0,3,1.2,4.2,6.1"/>
				<polyline class="st72" points="214.4,475.6 217.7,482.1 216.7,482.3 213.5,477.6 				"/>
				<line class="st72" x1="216.9" y1="472.5" x2="218.2" y2="481.7"/>
				<line class="st72" x1="219" y1="472.5" x2="218.9" y2="481.7"/>
				<path class="st72" d="M223.2,475.1c0,0-3.3,5.9-3.4,6.2"/>
				<line class="st72" x1="221.3" y1="481.1" x2="224.5" y2="477"/>
			</g>
			<g>
				<path class="st71" d="M405.7,483.3c0,0,0.8-10.7-4.6-11c-5.4-0.3-8.4,7.4-8.4,7.4"/>
				<path class="st71" d="M401.4,472.4l-5.2-1.2c0,0-5.6,2.1-6.5,7.9"/>
				<path class="st72" d="M389.6,470.2v1.2c0,0-3.6,1.6-5.8,0c0-0.6,0-1.4,0-1.4"/>
				<path class="st72" d="M389.7,470.9c0,0,1.2,0.3,1.2,0.8c0,0.6-6.1,2.5-8.8-0.1c0.4-0.9,1.6-0.7,1.6-0.7"/>
				<line class="st72" x1="390.9" y1="471.7" x2="390.9" y2="475.3"/>
				<line class="st72" x1="382.2" y1="471.6" x2="382.2" y2="477.1"/>
				<path class="st71" d="M394.9,471.8c0,0-1.5-1.1-3-2.1"/>
				<path class="st71" d="M383.5,470.2c0,0-3,1.2-4.2,6.1"/>
				<polyline class="st72" points="404.4,475.6 401.1,482.1 402.1,482.3 405.3,477.6 				"/>
				<line class="st72" x1="401.9" y1="472.5" x2="400.6" y2="481.7"/>
				<line class="st72" x1="399.8" y1="472.5" x2="399.9" y2="481.7"/>
				<path class="st72" d="M395.6,475.1c0,0,3.3,5.9,3.4,6.2"/>
				<line class="st72" x1="397.5" y1="481.1" x2="394.4" y2="477"/>
			</g>
			<path class="st71" d="M164.9,516.5c-0.5-0.1-2.3,1.1,1.3,1.7c2.7,0.4,7.5,0,7.8-0.7s-1.1-1.2-1.7-1.3"/>
			<line class="st72" x1="172.2" y1="515.6" x2="172.2" y2="517.8"/>
			<line class="st71" x1="164" y1="517.3" x2="164" y2="520.6"/>
			<path class="st71" d="M174,517.3l-0.5,12.1c0,0-0.2,1-0.7,1.3"/>
			<path class="st71" d="M453.5,516.7c0.5-0.1,2.3,1.1-1.3,1.7c-2.7,0.4-7.5,0-7.8-0.7c-0.3-0.7,1.1-1.2,1.7-1.3"/>
			<line class="st72" x1="446.2" y1="515.8" x2="446.2" y2="518"/>
			<line class="st71" x1="454.4" y1="517.5" x2="454.4" y2="520.8"/>
			<path class="st71" d="M444.4,517.5l0.5,12.1c0,0,0.2,1,0.7,1.3"/>
			<line class="st72" x1="303.6" y1="554.2" x2="303.6" y2="558.6"/>
			<path class="st71" d="M305.3,558.8h-5.8c0,0-1.4,5.9-1.2,15.3c0,0.6-0.7,1.5-0.7,1.5l-0.1,1.9c0,0,0.5,0.5,0.5,0.8
				c0.1,8,1.3,13.7,1.3,13.7l5.8,0.4C305,592.3,306.1,561.1,305.3,558.8z"/>
			<path class="st72" d="M299.5,558.8c0,0-0.2,13.8-0.2,33.2"/>
			<path class="st71" d="M313.6,558.8h5.8c0,0,1.4,5.9,1.2,15.3c0,0.6,0.7,1.5,0.7,1.5l0.1,1.9c0,0-0.5,0.5-0.5,0.8
				c-0.1,8-1.3,13.7-1.3,13.7l-5.8,0.4C313.9,592.3,312.9,561.1,313.6,558.8z"/>
			<path class="st72" d="M319.4,558.8c0,0,0.2,13.8,0.2,33.2"/>
			<line class="st72" x1="305.5" y1="560.3" x2="313.5" y2="560.3"/>
			<line class="st72" x1="305.5" y1="580.4" x2="313.5" y2="580.4"/>
			<line class="st72" x1="315" y1="554.6" x2="315" y2="558.8"/>
			<g>
				<ellipse class="st73" cx="158.2" cy="534.4" rx="15.1" ry="14.9"/>
				<ellipse class="st74" cx="158.2" cy="534.4" rx="13.2" ry="13"/>
				<path class="st73" d="M164,518.3c-2.3-1.1-6.7-2.6-12.2-0.2c-5.5,2.5-8,7.9-8.1,12.4"/>
				<path class="st75" d="M153.7,522.3l3.5,10.3c0,0-0.3,0.1-0.7,0.5c-0.9-0.6-8.7-6.5-8.7-6.5"/>
				<path class="st75" d="M164.3,522.9l-4.7,9.5c0,0-0.8-0.2-1.2-0.1c-0.4-2-1.3-10.7-1.3-10.7"/>
				<path class="st75" d="M170.6,530l-9.4,3.8c0,0-0.1-0.3-0.5-0.7c0.6-0.9,6.3-8.2,6.3-8.2"/>
				<path class="st75" d="M170.3,540l-9.1-4.1c0,0,0.2-0.4,0.2-0.9c1.1-0.2,9.9-2.4,9.9-2.4"/>
				<path class="st75" d="M163,546.5l-3.1-9.2c0,0,0.3-0.1,0.7-0.5c0.9,0.6,7.8,5.8,7.8,5.8"/>
				<path class="st75" d="M153.1,546.4l4.6-9c0,0,0.5,0.1,1,0.1c0.4,2,1.1,8.6,1.2,9.8"/>
				<path class="st75" d="M146.3,540l9.6-3.9c0,0,0.1,0.3,0.5,0.7c-0.6,0.9-6.1,8-6.1,8"/>
				<path class="st75" d="M146,529.5l9.9,4.5c0,0-0.2,0.4-0.2,0.9c-1.1,0.2-10.3,2.4-10.3,2.4"/>
			</g>
			<g>
				<ellipse class="st73" cx="460" cy="534.4" rx="15.1" ry="14.9"/>
				<ellipse class="st74" cx="460" cy="534.4" rx="13.2" ry="13"/>
				<path class="st73" d="M454.3,518.3c2.3-1.1,6.7-2.6,12.2-0.2c5.5,2.5,8,7.9,8.1,12.4"/>
				<path class="st75" d="M464.5,522.3l-3.5,10.3c0,0,0.3,0.1,0.7,0.5c0.9-0.6,8.7-6.5,8.7-6.5"/>
				<path class="st75" d="M453.9,522.9l4.7,9.5c0,0,0.8-0.2,1.2-0.1c0.4-2,1.3-10.7,1.3-10.7"/>
				<path class="st75" d="M447.6,530l9.4,3.8c0,0,0.1-0.3,0.5-0.7c-0.6-0.9-6.3-8.2-6.3-8.2"/>
				<path class="st75" d="M448,540l9.1-4.1c0,0-0.2-0.4-0.2-0.9c-1.1-0.2-9.9-2.4-9.9-2.4"/>
				<path class="st75" d="M455.2,546.5l3.1-9.2c0,0-0.3-0.1-0.7-0.5c-0.9,0.6-7.8,5.8-7.8,5.8"/>
				<path class="st75" d="M465.1,546.4l-4.6-9c0,0-0.5,0.1-1,0.1c-0.4,2-1.1,8.6-1.2,9.8"/>
				<path class="st75" d="M471.9,540l-9.6-3.9c0,0-0.1,0.3-0.5,0.7c0.6,0.9,6.1,8,6.1,8"/>
				<path class="st75" d="M472.2,529.5l-9.9,4.5c0,0,0.2,0.4,0.2,0.9c1.1,0.2,10.3,2.4,10.3,2.4"/>
			</g>
			<ellipse class="st72" cx="247.7" cy="139.3" rx="12.9" ry="16.6"/>
		</g>
	</g>
	<g>
		<path class="st37" d="M294.5,124.7h-4.7l-0.5,3.1c0.3,0,0.5-0.1,1-0.1c0.9,0,1.9,0.2,2.6,0.7c1,0.5,1.7,1.6,1.7,3.1
			c0,2.4-1.9,4.2-4.5,4.2c-1.3,0-2.5-0.4-3-0.7l0.4-1.3c0.5,0.3,1.5,0.7,2.6,0.7c1.6,0,2.9-1,2.9-2.6c0-1.6-1.1-2.7-3.5-2.7
			c-0.7,0-1.2,0.1-1.7,0.1l0.8-5.9h5.8V124.7z"/>
		<path class="st37" d="M296.9,135.5v-1l1.3-1.3c3.1-3,4.5-4.5,4.5-6.4c0-1.2-0.6-2.4-2.4-2.4c-1.1,0-2,0.6-2.6,1l-0.5-1.2
			c0.8-0.7,2-1.2,3.5-1.2c2.6,0,3.7,1.8,3.7,3.5c0,2.3-1.6,4.1-4.2,6.5l-1,0.9v0h5.5v1.4H296.9z"/>
		<path class="st37" d="M313.5,135.2c-0.4,0.2-1.4,0.5-2.6,0.5c-2.7,0-4.5-1.9-4.5-4.6c0-2.8,1.9-4.8,4.9-4.8c1,0,1.8,0.2,2.3,0.5
			l-0.4,1.3c-0.4-0.2-1-0.4-1.9-0.4c-2.1,0-3.2,1.5-3.2,3.4c0,2.1,1.4,3.4,3.1,3.4c0.9,0,1.6-0.2,2-0.4L313.5,135.2z"/>
		<path class="st37" d="M315.4,128.9c0-0.9,0-1.7-0.1-2.5h1.4l0.1,1.5h0.1c0.5-0.9,1.4-1.7,2.9-1.7c1.2,0,2.2,0.7,2.6,1.8h0
			c0.3-0.5,0.6-0.9,1-1.2c0.5-0.4,1.1-0.6,2-0.6c1.2,0,3,0.8,3,3.9v5.3h-1.6v-5.1c0-1.7-0.6-2.8-2-2.8c-0.9,0-1.7,0.7-1.9,1.5
			c-0.1,0.2-0.1,0.5-0.1,0.8v5.6h-1.6v-5.4c0-1.4-0.6-2.5-1.9-2.5c-1,0-1.8,0.8-2,1.7c-0.1,0.2-0.1,0.5-0.1,0.8v5.5h-1.6V128.9z"/>
	</g>
	<g>
		<path class="st37" d="M294.5,197.7h-4.7l-0.5,3.1c0.3,0,0.5-0.1,1-0.1c0.9,0,1.9,0.2,2.6,0.7c1,0.5,1.7,1.6,1.7,3.1
			c0,2.4-1.9,4.2-4.5,4.2c-1.3,0-2.5-0.4-3-0.7l0.4-1.3c0.5,0.3,1.5,0.7,2.6,0.7c1.6,0,2.9-1,2.9-2.6c0-1.6-1.1-2.7-3.5-2.7
			c-0.7,0-1.2,0.1-1.7,0.1l0.8-5.9h5.8V197.7z"/>
		<path class="st37" d="M300.5,197.9L300.5,197.9l-2.2,1.1l-0.3-1.3l2.7-1.4h1.4v12.2h-1.6V197.9z"/>
		<path class="st37" d="M313.5,208.2c-0.4,0.2-1.4,0.5-2.6,0.5c-2.7,0-4.5-1.9-4.5-4.6c0-2.8,1.9-4.8,4.9-4.8c1,0,1.8,0.2,2.3,0.5
			l-0.4,1.3c-0.4-0.2-1-0.4-1.9-0.4c-2.1,0-3.2,1.5-3.2,3.4c0,2.1,1.4,3.4,3.1,3.4c0.9,0,1.6-0.2,2-0.4L313.5,208.2z"/>
		<path class="st37" d="M315.4,201.9c0-0.9,0-1.7-0.1-2.5h1.4l0.1,1.5h0.1c0.5-0.9,1.4-1.7,2.9-1.7c1.2,0,2.2,0.7,2.6,1.8h0
			c0.3-0.5,0.6-0.9,1-1.2c0.5-0.4,1.1-0.6,2-0.6c1.2,0,3,0.8,3,3.9v5.3h-1.6v-5.1c0-1.7-0.6-2.8-2-2.8c-0.9,0-1.7,0.7-1.9,1.5
			c-0.1,0.2-0.1,0.5-0.1,0.8v5.6h-1.6v-5.4c0-1.4-0.6-2.5-1.9-2.5c-1,0-1.8,0.8-2,1.7c-0.1,0.2-0.1,0.5-0.1,0.8v5.5h-1.6V201.9z"/>
	</g>
	<g>
		<path class="st37" d="M294.5,272.6h-4.7l-0.5,3.1c0.3,0,0.5-0.1,1-0.1c0.9,0,1.9,0.2,2.6,0.7c1,0.5,1.7,1.6,1.7,3.1
			c0,2.4-1.9,4.2-4.5,4.2c-1.3,0-2.5-0.4-3-0.7l0.4-1.3c0.5,0.3,1.5,0.7,2.6,0.7c1.6,0,2.9-1,2.9-2.6c0-1.6-1.1-2.7-3.5-2.7
			c-0.7,0-1.2,0.1-1.7,0.1l0.8-5.9h5.8V272.6z"/>
		<path class="st37" d="M300.5,272.7L300.5,272.7l-2.2,1.1l-0.3-1.3l2.7-1.4h1.4v12.2h-1.6V272.7z"/>
		<path class="st37" d="M313.5,283.1c-0.4,0.2-1.4,0.5-2.6,0.5c-2.7,0-4.5-1.9-4.5-4.6c0-2.8,1.9-4.8,4.9-4.8c1,0,1.8,0.2,2.3,0.5
			l-0.4,1.3c-0.4-0.2-1-0.4-1.9-0.4c-2.1,0-3.2,1.5-3.2,3.4c0,2.1,1.4,3.4,3.1,3.4c0.9,0,1.6-0.2,2-0.4L313.5,283.1z"/>
		<path class="st37" d="M315.4,276.8c0-0.9,0-1.7-0.1-2.5h1.4l0.1,1.5h0.1c0.5-0.9,1.4-1.7,2.9-1.7c1.2,0,2.2,0.7,2.6,1.8h0
			c0.3-0.5,0.6-0.9,1-1.2c0.5-0.4,1.1-0.6,2-0.6c1.2,0,3,0.8,3,3.9v5.3h-1.6v-5.1c0-1.7-0.6-2.8-2-2.8c-0.9,0-1.7,0.7-1.9,1.5
			c-0.1,0.2-0.1,0.5-0.1,0.8v5.6h-1.6V278c0-1.4-0.6-2.5-1.9-2.5c-1,0-1.8,0.8-2,1.7c-0.1,0.2-0.1,0.5-0.1,0.8v5.5h-1.6V276.8z"/>
	</g>
	<g>
		<path class="st37" d="M293.3,350.5h-4.7l-0.5,3.1c0.3,0,0.5-0.1,1-0.1c0.9,0,1.9,0.2,2.6,0.7c1,0.5,1.7,1.6,1.7,3.1
			c0,2.4-1.9,4.2-4.5,4.2c-1.3,0-2.5-0.4-3-0.7l0.4-1.3c0.5,0.3,1.5,0.7,2.6,0.7c1.6,0,2.9-1,2.9-2.6c0-1.6-1.1-2.7-3.5-2.7
			c-0.7,0-1.2,0.1-1.7,0.1l0.8-5.9h5.8V350.5z"/>
		<path class="st37" d="M296,359.4c0.5,0.3,1.6,0.8,2.7,0.8c2.1,0,2.8-1.3,2.8-2.4c0-1.7-1.6-2.4-3.2-2.4h-0.9v-1.2h0.9
			c1.2,0,2.7-0.6,2.7-2.1c0-1-0.6-1.8-2.1-1.8c-1,0-1.9,0.4-2.4,0.8l-0.4-1.2c0.6-0.5,1.9-0.9,3.2-0.9c2.4,0,3.5,1.4,3.5,2.9
			c0,1.3-0.8,2.3-2.3,2.9v0c1.5,0.3,2.7,1.4,2.7,3.1c0,1.9-1.5,3.7-4.4,3.7c-1.4,0-2.6-0.4-3.2-0.8L296,359.4z"/>
		<path class="st37" d="M316.2,361c-0.4,0.2-1.4,0.5-2.6,0.5c-2.7,0-4.5-1.9-4.5-4.6c0-2.8,1.9-4.8,4.9-4.8c1,0,1.8,0.2,2.3,0.5
			l-0.4,1.3c-0.4-0.2-1-0.4-1.9-0.4c-2.1,0-3.2,1.5-3.2,3.4c0,2.1,1.4,3.4,3.1,3.4c0.9,0,1.6-0.2,2-0.4L316.2,361z"/>
		<path class="st37" d="M318.2,354.7c0-0.9,0-1.7-0.1-2.5h1.4l0.1,1.5h0.1c0.5-0.9,1.4-1.7,2.9-1.7c1.2,0,2.2,0.7,2.6,1.8h0
			c0.3-0.5,0.6-0.9,1-1.2c0.5-0.4,1.1-0.6,2-0.6c1.2,0,3,0.8,3,3.9v5.3h-1.6v-5.1c0-1.7-0.6-2.8-2-2.8c-0.9,0-1.7,0.7-1.9,1.5
			c-0.1,0.2-0.1,0.5-0.1,0.8v5.6h-1.6v-5.4c0-1.4-0.6-2.5-1.9-2.5c-1,0-1.8,0.8-2,1.7c-0.1,0.2-0.1,0.5-0.1,0.8v5.5h-1.6V354.7z"/>
	</g>
	<g>
		<g>
			<line class="st82" x1="197.8" y1="139.3" x2="418.5" y2="139.3"/>
		</g>
		<line class="st83" x1="194.8" y1="148.1" x2="194.8" y2="130.4"/>
		<polygon class="st37" points="195.3,139.3 210.6,148.1 210.6,130.4 		"/>
		<line class="st83" x1="424.2" y1="148.1" x2="424.2" y2="130.4"/>
		<polygon class="st37" points="423.7,139.3 408.3,148.1 408.3,130.4 		"/>
	</g>
	<g>
		<g>
			<line class="st52" x1="199.1" y1="288.5" x2="418.6" y2="288.5"/>
		</g>
		<line class="st83" x1="200" y1="297.4" x2="200" y2="279.7"/>
		<polygon class="st37" points="200.5,288.5 215.9,297.4 215.9,279.7 		"/>
		<line class="st83" x1="418.7" y1="297.4" x2="418.7" y2="279.7"/>
		<polygon class="st37" points="418.2,288.5 402.9,297.4 402.9,279.7 		"/>
	</g>
	<g>
		<g>
			<line class="st84" x1="208.2" y1="212.5" x2="419.4" y2="212.5"/>
		</g>
		<line class="st83" x1="200.3" y1="250.7" x2="200.3" y2="203.7"/>
		<polygon class="st37" points="200.8,212.5 216.1,221.4 216.1,203.7 		"/>
		<line class="st83" x1="418.4" y1="250.7" x2="418.4" y2="203.7"/>
		<polygon class="st37" points="417.9,212.5 402.6,221.4 402.6,203.7 		"/>
	</g>
	<g>
		<g>
			<line class="st85" x1="185.3" y1="365.9" x2="423.8" y2="365.9"/>
		</g>
		<line class="st83" x1="182.4" y1="374.8" x2="182.4" y2="357.1"/>
		<polygon class="st37" points="182.9,365.9 198.2,374.8 198.2,357.1 		"/>
		<line class="st83" x1="436.4" y1="374.8" x2="436.4" y2="357.1"/>
		<polygon class="st37" points="435.9,365.9 420.6,374.8 420.6,357.1 		"/>
	</g>
</g>
</svg>
