<svg xmlns="http://www.w3.org/2000/svg" viewBox="0 0 414.3 647.79"><defs><style>.cls-1{fill:#d8d8d8;}.cls-2,.cls-3{fill:none;stroke:#000;stroke-miterlimit:10;}.cls-2{stroke-width:2px;}.cls-3{stroke-width:3px;}</style></defs><title>Ativo 1</title><g id="Camada_2" data-name="Camada 2"><g id="Camada_1-2" data-name="Camada 1"><path class="cls-1" d="M401.83,362.87s-8.84-15.62-21.75-19.56c-12-7.41-53-10.29-64.16-10.75s23.58-.6,23.58-.6,24.57,1.56,39.44,6.9,27.27,10.06,30.31,15.52,3,5.87,3,5.87Z"/><path class="cls-1" d="M145.46,345.81s44.32-1.92,67.05,35.48c-28.26,2.4-41.79-7.73-41.79-7.73l-29.3-12.32S143.5,345,145.46,345.81Z"/><path class="cls-1" d="M76.63,346.85s-13.5,2.9-17.44,11.83c32.5-4.62,56.51-1.26,56.51-1.26l2.8-12.47Z"/><path class="cls-1" d="M232.92,177.27A113.56,113.56,0,0,0,235,194.94c1.92,9.7,7.92,30.32,7.92,30.32s9.67,23.92,11.25,29.88c0,0,10.58,21.47-4,78-8.69.61-17.87,1-17.87,1l7-34.31,3.14-25-.51-16.25-4.15-22.73-5.09-35.15-.39-18.37Z"/><path class="cls-1" d="M55.78,297.57l6.9-18.44L78,273.62s2.4,59.57-.72,73.24c0,0-13.5,3.4-17.81,10.68-2.47-4.2-7.86-18.72-7.86-18.72S56.44,310.68,55.78,297.57Z"/><path class="cls-1" d="M28.2,168.1s35.3,37.71,40.46,66.61c0,0-20.91,4.85-21.05,5.29-.61-4.75-18.43-69.41-20.27-71.42S28.2,168.1,28.2,168.1Z"/><path class="cls-1" d="M54.83,108.27S68.58,103.44,76.76,131c0,30.17-11.72,22.52-11.72,22.52s7.74-1.75,0-22.52c-7.76-16.66-11.66-15.49-13.53-12.86C48,120.2,54.83,108.27,54.83,108.27Z"/><path class="cls-1" d="M180.42,117.35S193,117.9,199,137.81c0,30.17-19,20.25-19,20.25s3.54-2.12.48-19.09c-4.31-11-6.48-12.54-9.06-14.74C172.42,119.06,180.42,117.35,180.42,117.35Z"/><path class="cls-1" d="M145.46,345.11s18.6,2.23,35.17,5.7c23.54,3.24,52,6.22,56.42,5.63,8.11-1.08,66.78-4.41,57.67-14.12-16.32-5.69-43.28-3.17-55-2.63-5.39-3.24-11.28-3.15-20.17-4.57C209.62,336.62,145.46,345.11,145.46,345.11Z"/><path class="cls-1" d="M110.21,279.12s.11,53.15-3.51,66.19c2.43,0,12.22-.36,12.22-.36s7.9-42.46,4.42-50.79C120,288.57,110.21,279.12,110.21,279.12Z"/><path class="cls-1" d="M79.12,177.79l21.72,53.88s38.91-2,66.53,37c1.44,8.38-3.43,15.69-3.43,15.69s4.37,9.63-3.06,13.5c.94,8.38-2,15.53-9.56,15.53-3.29,9.83-5.75,31-5.75,31l61.21-7.8s9.44-62.18,4.1-78.84c-.88-17.88-7-70.38-18.86-83.27-9.77-8.23-40.64-29.2-66.14-27S75.88,157.74,79.12,177.79Z"/><polyline class="cls-2" points="255.17 429.3 256.08 430.24 254.18 431.61 256.33 432.15 254.32 433.48 256.39 434.24 254.7 435.49 256.53 436.1 254.83 437.58 256.71 438.34 255.13 439.75 256.87 440.43 255.43 441.57 257.02 442.36 256.1 443.43"/><polyline class="cls-2" points="228.63 431.37 230.54 432.64 228.82 433.82 230.68 434.47 228.95 435.52 230.81 436.09 229.08 437.18 230.95 437.83 229.22 439.05 231.09 439.68 229.37 440.88 231.25 441.67 229.57 442.69 231.41 443.81 229.93 444.63 230.98 445.39"/><line class="cls-2" x1="255.96" y1="430.33" x2="228.82" y2="433.82"/><line class="cls-2" x1="256.33" y1="432.15" x2="229.09" y2="435.63"/><line class="cls-2" x1="256.12" y1="434.3" x2="229.64" y2="437.17"/><line class="cls-2" x1="256.4" y1="436.05" x2="229.61" y2="438.96"/><line class="cls-2" x1="256.71" y1="438.34" x2="229.77" y2="440.94"/><line class="cls-2" x1="256.75" y1="440.49" x2="229.92" y2="442.83"/><line class="cls-2" x1="257.02" y1="442.36" x2="230.21" y2="444.45"/><path class="cls-3" d="M229.19,445.34l28.88-1.74,1.42,20.19a28.89,28.89,0,0,1-14.25,5.51,27.59,27.59,0,0,1-14.61-3.42Z"/><path class="cls-2" d="M230.44,465.94a80.43,80.43,0,0,0,29-2.29"/><path class="cls-3" d="M232.21,466.69c0,1.44.7,45.62.7,45.62s-14.43,7.68-36.25-.82c.69-19.5,1.5-48.37,1.5-48.37a13.12,13.12,0,0,1,3.56-1.81"/><path class="cls-3" d="M198.16,463.12s7.93,5.9,32.28,1.52"/><path class="cls-3" d="M180.21,420.63s-46.72,6.91-52.34,7.87a9.31,9.31,0,0,0-7.25,5.25L115.51,446a2.24,2.24,0,0,0,3.5.75c1-3.16,4.73-11,4.73-11a8.75,8.75,0,0,1,4.85-3.56c8.22-1.72,57.13-8.44,57.13-8.44"/><polyline class="cls-2" points="115.24 445.64 111.99 445.44 114.5 448.03 121.07 449.66 119.16 447.06"/><path class="cls-3" d="M111.8,445.43s-12.5,16.19-14.12,19-1.53,8.44,2.38,8.5a12.53,12.53,0,0,1,4,2.06s1.25,1.06,4.31.38c1.75.16,2.42.58,3.55.26s3.06-1.62,4.17-4.79,5.11-20.9,5.11-20.9"/><path class="cls-2" d="M114.5,448,108,459.74s.76,4.48,5.8,1.48a127.59,127.59,0,0,0,5.45-12s-3.23,14.63-4,17.46c-.91,3.47-2,5.24-2.92,5.5a12.43,12.43,0,0,1-3.08.13c-1.37,0-2.94.59-3.66.16a10.88,10.88,0,0,0-3.44-1.81c-3.5-.6-1.7-4.83-.36-7.18s10.87-17,10.87-17"/><path class="cls-3" d="M196.66,503.94s-33.06-12.62-65.31-4c-13.12,2.13-9.81,12.5-9.81,12.5h2.06s.05-1.74.81-2.25c1.28-.86,19.44-4,40.75,5.31"/><path class="cls-2" d="M123.6,512.43a16.19,16.19,0,0,0,9.81,1.06c5.28-1.19,5.22-4.41,5.22-4.41"/><path class="cls-3" d="M188.55,512.18S111.84,519.43,57,548.81c0,0-5.12.92-5.71,5.58s.46,6.5.29,7.38,7.2,4,14.32.89c1.44-2.87,4.28-6,9.91-7.09S129.07,535.68,194.72,534a33.09,33.09,0,0,0,6.09,3.23"/><path class="cls-2" d="M66,562.45s5,.25,5.21-5.31"/><path class="cls-3" d="M232.42,503.94s33.06-12.62,65.31-4c13.13,2.13,9.81,12.5,9.81,12.5h-2.06s0-1.74-.81-2.25c-1.28-.86-19.44-4-40.75,5.31"/><path class="cls-2" d="M305.48,512.43a16.19,16.19,0,0,1-9.81,1.06c-5.28-1.19-5.22-4.41-5.22-4.41"/><path class="cls-3" d="M240.53,512.18s76.71,7.25,131.58,36.63c0,0,5.13.92,5.71,5.58s-.46,6.5-.29,7.38-7.2,4-14.32.89c-1.44-2.87-4.28-6-9.91-7.09S300.07,535.68,234.36,534a33.09,33.09,0,0,1-6.09,3.23"/><path class="cls-2" d="M363.07,562.45s-5,.25-5.21-5.31"/><path class="cls-3" d="M200.81,521.43s1.78,58,2.91,65.5a46.94,46.94,0,0,1,0,13.75,14.16,14.16,0,0,0,11.06,6.13"/><path class="cls-3" d="M228.75,521.43s-1.78,58-2.91,65.5a46.94,46.94,0,0,0,0,13.75,14.16,14.16,0,0,1-11.06,6.13"/><path class="cls-3" d="M110,527.84s-.92-11.59,5-11.9,9.07,8,9.07,8"/><path class="cls-3" d="M114.63,515.94l5.66-1.34s6.11,2.31,7,8.56"/><path class="cls-2" d="M127.42,513.59v1.35s4,1.78,6.3,0v-1.48"/><path class="cls-2" d="M127.3,514.29s-1.35.29-1.35.9,6.67,2.71,9.52-.08c-.4-.94-1.74-.81-1.74-.81"/><line class="cls-2" x1="125.95" y1="515.18" x2="125.95" y2="519.12"/><line class="cls-2" x1="135.47" y1="515.12" x2="135.47" y2="521.06"/><path class="cls-3" d="M121.64,515.26s1.64-1.14,3.26-2.31"/><path class="cls-3" d="M134.07,513.5s3.24,1.35,4.54,6.64"/><polyline class="cls-2" points="111.28 519.43 114.86 526.43 113.85 526.71 110.29 521.64"/><line class="cls-2" x1="114.01" y1="516.08" x2="115.44" y2="526.06"/><line class="cls-2" x1="116.28" y1="516.08" x2="116.19" y2="526.06"/><path class="cls-2" d="M120.86,518.87s-3.57,6.39-3.7,6.75"/><line class="cls-2" x1="118.8" y1="525.35" x2="122.22" y2="520.92"/><path class="cls-3" d="M319.13,527.84s.92-11.59-5-11.9-9.06,8-9.06,8"/><path class="cls-3" d="M314.45,515.94l-5.66-1.34s-6.11,2.31-7,8.56"/><path class="cls-2" d="M301.66,513.59v1.35s-4,1.78-6.3,0v-1.48"/><path class="cls-2" d="M301.78,514.29s1.35.29,1.35.9-6.67,2.71-9.52-.08c.4-.94,1.74-.81,1.74-.81"/><line class="cls-2" x1="303.13" y1="515.18" x2="303.13" y2="519.12"/><line class="cls-2" x1="293.61" y1="515.12" x2="293.61" y2="521.06"/><path class="cls-3" d="M307.44,515.26s-1.64-1.14-3.26-2.31"/><path class="cls-3" d="M295,513.5s-3.24,1.35-4.54,6.64"/><polyline class="cls-2" points="317.8 519.43 314.22 526.43 315.24 526.71 318.78 521.64"/><line class="cls-2" x1="315.07" y1="516.08" x2="313.64" y2="526.06"/><line class="cls-2" x1="312.8" y1="516.08" x2="312.89" y2="526.06"/><path class="cls-2" d="M308.22,518.87s3.57,6.39,3.7,6.75"/><line class="cls-2" x1="310.28" y1="525.35" x2="306.86" y2="520.92"/><path class="cls-3" d="M57.51,563.94c-.49-.1-2.45,1.19,1.4,1.79,3,.46,8.13,0,8.48-.78s-1.19-1.26-1.81-1.36"/><line class="cls-2" x1="65.45" y1="562.83" x2="65.45" y2="565.23"/><line class="cls-3" x1="56.58" y1="564.72" x2="56.58" y2="568.29"/><path class="cls-3" d="M67.43,564.72l-.5,13.18s-.25,1.14-.73,1.44"/><ellipse class="cls-2" cx="50.37" cy="583.43" rx="16.45" ry="16.19"/><ellipse class="cls-2" cx="50.37" cy="583.43" rx="14.31" ry="14.08"/><path class="cls-2" d="M56.58,565.88a15.25,15.25,0,0,0-22.09,13.3"/><path class="cls-2" d="M45.48,570.2l3.78,11.15a2.7,2.7,0,0,0-.78.59c-1-.65-9.48-7.06-9.48-7.06"/><path class="cls-2" d="M57,570.94l-5.08,10.27a5.12,5.12,0,0,0-1.34-.14c-.4-2.19-1.46-11.66-1.46-11.65"/><path class="cls-2" d="M63.81,578.6l-10.16,4.15a1.93,1.93,0,0,0-.53-.8c.66-1,6.85-9,6.85-9"/><path class="cls-2" d="M63.47,589.45,53.58,585a2.11,2.11,0,0,0,.26-.94c1.17-.21,10.71-2.62,10.71-2.62"/><path class="cls-2" d="M55.57,596.56l-3.39-10A1.93,1.93,0,0,0,53,586c1,.65,8.47,6.35,8.47,6.35"/><path class="cls-2" d="M44.83,596.42l5-9.73a5.63,5.63,0,0,0,1.06.11c.4,2.19,1.15,9.4,1.29,10.6"/><path class="cls-2" d="M37.42,589.44l10.39-4.24a1.93,1.93,0,0,0,.53.8c-.66,1-6.62,8.66-6.62,8.66"/><path class="cls-2" d="M37.07,578.11l10.81,4.83a2.11,2.11,0,0,0-.26.94c-1.17.21-11.22,2.63-11.22,2.63"/><ellipse class="cls-2" cx="378.31" cy="583.43" rx="16.45" ry="16.19"/><ellipse class="cls-2" cx="378.31" cy="583.43" rx="14.31" ry="14.08"/><path class="cls-2" d="M372.07,565.88a15.25,15.25,0,0,1,22.09,13.3"/><path class="cls-2" d="M383.2,570.19l-3.78,11.15a2.7,2.7,0,0,1,.78.59c1-.65,9.48-7.06,9.48-7.06"/><path class="cls-2" d="M371.71,570.94l5.08,10.27a5.12,5.12,0,0,1,1.34-.14c.4-2.19,1.46-11.66,1.46-11.65"/><path class="cls-2" d="M364.86,578.59l10.21,4.15a1.93,1.93,0,0,1,.53-.8c-.66-1-6.85-9-6.85-9"/><path class="cls-2" d="M365.21,589.44l9.86-4.5a2.11,2.11,0,0,1-.26-.94c-1.17-.21-10.71-2.62-10.71-2.62"/><path class="cls-2" d="M373.07,596.55l3.39-10a1.93,1.93,0,0,1-.79-.54c-1,.65-8.47,6.35-8.47,6.35"/><path class="cls-2" d="M383.85,596.42l-5-9.73a5.63,5.63,0,0,1-1.06.11c-.4,2.19-1.15,9.4-1.29,10.6"/><path class="cls-2" d="M391.25,589.43l-10.39-4.24a1.93,1.93,0,0,1-.53.8c.66,1,6.62,8.66,6.62,8.66"/><path class="cls-2" d="M391.56,578.1l-10.77,4.84a2.11,2.11,0,0,1,.26.94c1.17.21,11.22,2.63,11.22,2.63"/><path class="cls-3" d="M371.16,564.13c.49-.1,2.45,1.19-1.4,1.79-3,.46-8.12,0-8.48-.78s1.19-1.26,1.81-1.36"/><line class="cls-2" x1="363.23" y1="563.05" x2="363.23" y2="565.44"/><line class="cls-3" x1="372.1" y1="564.94" x2="372.1" y2="568.51"/><path class="cls-3" d="M361.24,564.94l.5,13.18s.25,1.14.73,1.44"/><line class="cls-2" x1="208.2" y1="604.87" x2="208.2" y2="609.62"/><path class="cls-3" d="M210.07,609.78h-6.31a76,76,0,0,0-1.35,16.61,3.77,3.77,0,0,1-.79,1.6l-.08,2s.58.57.58.92a90.35,90.35,0,0,0,1.4,14.88l6.25.41S210.94,612.34,210.07,609.78Z"/><path class="cls-2" d="M203.78,609.78s-.25,15-.25,36"/><path class="cls-3" d="M219.13,609.78h6.31a76,76,0,0,1,1.35,16.61,3.77,3.77,0,0,0,.79,1.6l.08,2s-.58.57-.58.92a90.35,90.35,0,0,1-1.4,14.88l-6.25.41S218.28,612.34,219.13,609.78Z"/><path class="cls-2" d="M225.44,609.78s.25,15,.25,36"/><line class="cls-2" x1="210.29" y1="611.52" x2="218.93" y2="611.52"/><line class="cls-2" x1="210.29" y1="633.31" x2="218.93" y2="633.31"/><line class="cls-2" x1="220.58" y1="605.31" x2="220.58" y2="609.78"/><line class="cls-3" x1="201.71" y1="444.45" x2="201.71" y2="464.69"/><path class="cls-3" d="M206.8,442.6s-4.83.36-5.08,1.85,9.83,2.61,14.33,2.57,13.3-.72,12.58-2.57-4.79-1.85-4.79-1.85"/><path class="cls-3" d="M206.88,435.34v9s9.56,2.19,17.09,0v-8.15"/><path class="cls-3" d="M185.13,422.87s1.69,3.5,3.84,3.91,15.34,2,15.34,2"/><path class="cls-3" d="M189.37,426.85s2.4,2.28,7.72,3.48c6.16,1.39,12,2.48,12,2.48s5.48.57,7.85.57,13.08-.79,13.08-.79"/><path class="cls-3" d="M199,430.74s6.44,3.85,8.44,4.25,12.25.79,13.22.74a90.72,90.72,0,0,0,9.58-2.66"/><path class="cls-3" d="M206.69,434.78a1.71,1.71,0,0,0,1.07,1.75c1.25.59,14.22.79,15.13.43a3.93,3.93,0,0,0,2-2.17"/><path class="cls-3" d="M124.34,406.35s35.25,4.17,43.75,8.17,17.42,10.25,36.67,14.26,51.25.64,57,.53,109.74-8.37,140.12-25.63c4.25-5.5,5.29-8.08,6-11.5s5-27.17,4.92-29.83-2.75-9-9.58-13.5S367.55,332.78,340.7,332c-22-.65-74.73,1.07-74.73,1.07s-40.56,1.63-44.5,1.88-75.67,9.18-76.76,9.93"/><path class="cls-3" d="M296.15,344.77s44.8-7.46,65.73,5.29c17.92,10.92,20,16.13,20,16.13s8.92,16.33-1.8,45.75"/><path class="cls-3" d="M381.16,365.09s28.93-2,31.14-5.25"/><path class="cls-3" d="M249,379.06s-51.3,5.14-62.62,1.13C169.63,374.25,141,361.25,141,361.25"/><path class="cls-3" d="M224.82,355.65s24.77,8,25.27,32.87-4.37,41.59-4.37,41.59"/><path class="cls-3" d="M144.62,345.44s30,3.24,36,5.37,52.84,5.63,56.42,5.63,60.46-4.5,59.08-12.37-56.37-4.37-56.37-4.37-10.68-3.76-20.17-4.58"/><path class="cls-2" d="M170.72,348.73s31.54.79,38.7-.38,26.92-3.83,30.33-8.67"/><path class="cls-3" d="M213.38,381.52s-15.83-28.3-52.94-34.18"/><path class="cls-3" d="M401.56,362.94s-6.55-19.1-41-25.72c-33.51-6.45-91-4.28-91-4.28"/><path class="cls-3" d="M59.44,358.94s33.69-5.19,56.75-1.44"/><path class="cls-3" d="M254.75,257.94S300.67,245,315.5,244.69s37-1.25,57.75,13.25,28.13,13.19,30.38,9.94"/><path class="cls-3" d="M257.88,275.31s57.71-22.21,69.71-22.54c8.51-.24,23.67.6,38.5,17.26s29.29,30.53,34.42,18.78c1-3.5,0-9.87,0-9.87s4.94-1.31,2.94-10.69c6.48-12.31,2.31-16.81-1.52-21.23s-17.79-17.46-51.54-21.21-71.12,11.63-71.12,11.63-5.25,2.63-5.5,4.25-.51,9.73.09,11.18"/><path class="cls-2" d="M256,262.81s54.88-16.62,77-14c17.8,2.11,28.88,6.38,42.13,18.25s20,13.38,25.38,11.88"/><line class="cls-3" x1="342.23" y1="254.38" x2="276.92" y2="274.27"/><path class="cls-3" d="M278.38,271.18s-18.62,35.13-18.12,43.63,5,18.28,5,18.28"/><path class="cls-2" d="M273.75,241.68a175.83,175.83,0,0,1,54.5-11c25.63,1,38,5.63,46.5,11.75s23.18,17.75,32,13.87"/><path class="cls-3" d="M371.3,275.76s-17.23,47.18-24.79,56.56"/><path class="cls-3" d="M390.33,292s-17.45,40.92-20.51,44.29"/><path class="cls-3" d="M250.12,333.7s14.63-53.27,2.88-81.77S233.58,191,233.58,186.85s-.67-40.67-10.17-56-17.75-24.42-19.17-28-23.12-46.29-26.12-59.42"/><path class="cls-3" d="M150.88,313.68s-8.87,49.5-13.62,59.13c-3.5,10.38-10.75,33.25-14.25,35.88s-3.12,5.19-11.06,4.38-14.56-5-12.69-10.31,9-19.56,12.63-32.06S127,321,123.35,294.18"/><path class="cls-3" d="M163.5,283.94s2.88,7.25.88,10.13-3.87,2.75-3.62,5.5-.25,9.25-2.75,10.75-6.37,6-16.31,0-23.44-21.75-23.44-21.75S101.43,263.78,84.59,263,44.17,278.7,40.84,280.7s-10.77,8.1-10.77,8.1"/><path class="cls-2" d="M160.87,298.11s-12.87.83-33.37-15.17-25-23.44-48.25-25.12S24.57,273.3,24.57,273.3"/><path class="cls-2" d="M27.53,283.31s37.22-28.06,60.6-24.43"/><path class="cls-3" d="M95,266.2,62.31,279.13s-10.87-.43-19.19,4.19-7.75,7.37-7.75,7.37-4.62.5-6.37-3.54-5.67-15.79-5-19.21,18.21-7.5,18.21-7.5,31.5-11.92,47.83-6.75,41.75,23.92,41.75,23.92,25.58,15.92,31.67,6.33,3.17-15.75,3.17-15.75-11.92-24-46.79-33.25-73.75,6-73.75,6-8.12,4.13-7.94,7.75,3.63,11.53,3.94,11.69"/><path class="cls-3" d="M62.32,279.12s-8.81,23.65-9.73,26.48-4.75,17.83-4.25,22.67,10.83,35.67,18.08,41.5,18.92,6.33,30.67,3.67,15.36-4.69,15.36-4.69"/><path class="cls-3" d="M35.38,290.68s-6.46,26.08-6,31.58c0,8.25.17,16.17,4.42,25.25,5.42,14.67,12.17,30.58,20.33,41.25,6.21,8.11,11.54,11.29,23.42,11.17S101,398.52,101,398.52"/><path class="cls-3" d="M61.21,395.94a9.34,9.34,0,0,0,7.46,6.54c6.25,1.25,30.26,1.85,30.26,1.85"/><path class="cls-3" d="M118.92,344.94S88,346,77.25,346.84,59.18,358,59.18,358"/><path class="cls-3" d="M77.94,272.94s2.43,41.87-.68,73.91"/><path class="cls-3" d="M55.78,296.76s-1.37,30.74-4.2,43"/><path class="cls-3" d="M110.19,278.62s.31,25.31,0,32.06c.14,11.88-3.56,35.09-3.56,35.09"/><path class="cls-2" d="M110.19,310.68s12.88-1.37,13.88-1.74"/><path class="cls-2" d="M211.88,302.14c-.62,0-51,3.55-51,3.55"/><path class="cls-3" d="M101,231.94s-16.37-39.11-19.54-46.61-7.51-22.67,14.24-30.67,40.16-8.83,50.16-5.33,39.86,16.83,47,26,12.62,38,12.62,38,5.92,34.35,5.46,44.34c5.88,12.29-3.08,72.2-4.1,78.84"/><path class="cls-2" d="M161.49,260.63s45.18-2.93,49.39-2.93"/><path class="cls-3" d="M36.07,261.33s-4.21-47.15-19.21-72.77C1.53,155.43.5,136.18,2,129.94S19.25,89.32,20.5,85.19,32.57,51.44,36.07,43.68C40.6,33.68,49,16.3,63.49,16.3"/><path class="cls-3" d="M67,19.43s-9.18,8.82-14.25,20.5C44.39,59.18,42,66.81,34.75,83.85c-4,9.35-17.33,30.67-18.5,37.33-3.33,14.33,4.83,30,9.67,43.33S47.34,231,47.47,240.43"/><path class="cls-3" d="M26.56,166.31s35,37,42.1,68.4"/><path class="cls-3" d="M21.69,81.88s9.07-1.32,13.07,2"/><path class="cls-3" d="M46.25,25.77s2.63-22.71,15.51-24,84.38,1.87,108,14.5c13.07,7.69,8,31.56,8,31.56s-6.37,50.87-7.5,56.94c-1.42,7.63-6.5,14.25-6.5,14.25s-64.87-2.87-78.87-1.75c-.37-15.5-11.34-100-21.37-101"/><path class="cls-3" d="M53.35,6.74S64.26.19,69.26,10.69,86,52.82,87.51,73.07s3.62,39.21,2.12,44"/><path class="cls-2" d="M84.88,117.31s-.46,17.44,6.4,39.25"/><path class="cls-2" d="M163.59,119.43s-.82,28.56,1.81,38.31"/><path class="cls-3" d="M61.34,108.47s-6.17-3.12-9.25,3.88c-2.81,6.38-2.48,20.58,1.26,28s11.41,16.25,17.07,13.33,8.25-18.67,4.75-28.92S61.34,108.47,61.34,108.47Z"/><path class="cls-2" d="M57.62,119.06s-4.87-6-6.84.79c-1.31,4.53.23,15.4,2.56,20.5s9.3,14.25,12.82,12.25,1.68-12.66-.5-19.7S57.62,119.06,57.62,119.06Z"/><path class="cls-3" d="M180.42,117.35s-7.75.42-10.5,10.08c-2.49,8.76-2.75,19.75,6.17,28.25s17.67.42,17.67.42,8.08-9.75,4.08-21.58S185.17,117,180.42,117.35Z"/><path class="cls-2" d="M171.33,124.23s7.48,7.41,9.06,14.74,1.64,16.23-.48,19.09"/><path class="cls-3" d="M232.55,167.57s-1.46,31.14,1.87,50.81,8.06,36,8,54.57c-.1,20-10.58,61.52-10.58,61.52"/><path class="cls-2" d="M124.07,303.94s1.65-5.31,3.32-3.64,8.08,8.92,9.08,10.42,2.5,3.33,2.08,6.5-14.33,55-17.5,59.63-4.42,3.46-5.67,1.58-3.41-6.39-3-8.75"/><path class="cls-2" d="M25.57,275.41s-.08-3.5,1.56-2.85,2.52,2.92,2.85,4c.73,2.4-.59,7.42-2.8,4.53C25.45,277.51,25.57,275.41,25.57,275.41Z"/><path class="cls-2" d="M30.07,326.12s0-5.54,2-4.57c1.58.79,2.26,3.19,2.33,4.32.21,3.12-1.5,7.3-3.33,4.15A10,10,0,0,1,30.07,326.12Z"/><path class="cls-2" d="M61.5,381.94s-2.72.09-2.66,4.56,2.24,5.47,3,5.47c1,0,2.69-2,2.53-5.37C64.29,383.84,63.07,382.18,61.5,381.94Z"/><path class="cls-2" d="M111.4,381.73s-2.66.91-2.66,4.56c0,4.47,2.24,5.47,3,5.47,1,0,2.69-2,2.53-5.37C114.18,383.67,112.93,382,111.4,381.73Z"/></g></g></svg>