<svg xmlns="http://www.w3.org/2000/svg" viewBox="0 0 321.71 211.54"><defs><style>.cls-1{fill:#fff;}.cls-2{fill:#a5a5a5;}.cls-3,.cls-4,.cls-5{fill:none;stroke-miterlimit:10;}.cls-3,.cls-5{stroke:#040006;}.cls-3{stroke-width:0.32px;}.cls-4{stroke:#000;stroke-width:1.09px;}.cls-5{stroke-width:0.9px;}</style></defs><title>Ativo 1</title><g id="Camada_2" data-name="Camada 2"><g id="Camada_1-2" data-name="Camada 1"><path class="cls-1" d="M192.72,33.49A12.36,12.36,0,0,0,200.81,22c.25-6.9-4.56-12.77-10.7-13.1-.37,0-.74,0-1.09,0h-.11l-14.81.5c-4.56.15-7.56,2.74-10.15,8.65a13.84,13.84,0,0,1-4.57,3.87A83.38,83.38,0,0,0,108.1,4l-2.37,0c-.43,0-.87,0-1.3,0l-14.61.49c-16,.53-26.33,3.4-39.39,11.69,2,2.22,10.42,2.42,10.46,2.42h-.14c-7.59.25-13.15-2.47-16.94-8.32C41.46,3.68,38.36.83,33.11.56c-.34,0-.67,0-1,0h.15L17.43,1C11.67,1.24,7,6.4,6.72,13A12.9,12.9,0,0,0,14,25.26c4.36,2.33,7,10.08,6.66,19.76A108.16,108.16,0,0,0,2.92,101.29a111.16,111.16,0,0,0,13.73,57.94h0c-.4,9.59-3.53,17-8,18.82a12.37,12.37,0,0,0-8.1,11.47c-.24,6.9,4.56,12.77,10.71,13.09.41,0,.8,0,1.19,0l14.82-.5h-.11c4.62-.12,7.65-2.7,10.25-8.66a16.37,16.37,0,0,1,10.89-6.54,20.44,20.44,0,0,0-6,2.27C48.47,195,71,206.49,89.74,207.48q3.53.18,7,.06l14.81-.49h0a82,82,0,0,0,39.72-11.93,17.85,17.85,0,0,1,6.31,6.06c2.34,6.68,5.45,9.52,10.7,9.8a8.23,8.23,0,0,0,.86,0l14.81-.5a8.26,8.26,0,0,1-.86,0c6.14.33,11.34-5,11.58-11.91a12.94,12.94,0,0,0-7.27-12.3c-4.34-2.32-6.94-10-6.65-19.65,0,0,0-.12,0-.25,0,.08.16-.09.16,0a107.15,107.15,0,0,0,17.55-56c.06-1.5.07-3,.07-4.47v-.3A110.47,110.47,0,0,0,184.76,51.7C185.26,42.42,188.34,35.31,192.72,33.49ZM15.37,189c0-.34,0-.66.06-1,0,.33,0,.65-.06,1a13.76,13.76,0,0,0,.27,3.29A13.76,13.76,0,0,1,15.37,189Zm2.36-88.24c0,1.32-.07,2.64-.07,3.95,0-1.31,0-2.63.07-3.95s.12-2.63.21-3.94C17.85,98.16,17.78,99.47,17.73,100.79Zm13,64.67a42.89,42.89,0,0,0,.74-6.07h0A41.47,41.47,0,0,1,30.68,165.46ZM35.33,44.71l0,0h0Zm.12,0Zm26-26.12-.17.11-.41,0A83.53,83.53,0,0,1,78.52,9.38a83.51,83.51,0,0,0-17.25,9.16Zm94.11,173.79h0Z"/><path class="cls-2" d="M116.78,188.32l-.1.09C116.77,189.33,116.77,189.56,116.78,188.32Z"/><path class="cls-2" d="M183.12,94c-.6-1.69-1-7.66-1.72-8.27a9.55,9.55,0,0,0-2.62-1.09c-5.72,4.38-3.44,2.68-4.48,4-1.9,2.52-9.89,10.09-13,13.28s-12.34,5.62-15,6.5a77,77,0,0,1-8.44,2,8.45,8.45,0,0,1-1.06-.4c.11-.9.2-1.8.24-2.72,1.8-.31,4.18-.72,4.43-.81a53.92,53.92,0,0,0,29.64-30.12c1.74-5.41,3-6.41,4.08-9.83a9.93,9.93,0,0,0-2.22-6.08c-2.86-3.1-9.14-14.75-13-16.1l-3.32.41c-1.18,2.92-7.17,19.76-7.36,24.18s-3,10.43-4.42,12.82c-1.09,1.87-8.81,9.22-10.11,10.81h0a33.23,33.23,0,0,0-1.64-3.7c2.8-3,6.73-6.83,7.59-9.2,2-5.56,4.57-8.65,6.67-27.94-.11-5.68-.64-13-.64-13s-.7-7.79-3.42-9.26c-3.71-2-6.15-3.36-11.2-5.79-1.77-.31-7.28-2-8.19-1.62a5.2,5.2,0,0,0-2.72.64c-.73.56.16,4.92.1,6.18-.18,3.14,3.8,12.74,5,17s1.87,6.75,1.33,9.46c-.43,2.12-1.16,10.08-1.66,12.08-.21.83-2.36,5.93-3.59,9.48-.45-.29-.9-.57-1.36-.84,1.45-4.14,5.42-18.17-4.55-38-2.91-4.88-7-10.05-7.6-11.06-.09-.15-2.59-5.57-6.29-7.61-6.75-.21.86,0-9.47,1.64-1.69.6-13,4.18-13.56,4.95a9.9,9.9,0,0,0-.32,3c4.39,5.73,4.65,6.54,6,7.58A116.67,116.67,0,0,1,95,44.79c3.26,3.12,6.36,6.86,7.24,9.48.68,2,4.77,14.67,5.11,16.7,0,.06.19.72.43,1.61-.6,0-1.19,0-1.79.08-.13-.4-.22-.7-.25-.8-1-3.58-7.06-20.84-27.63-31.24-5.24-2.2-9-4-9.07-4s-4-2-6.46-.06C59.28,39.11,50,48.9,48.27,52.62a7.42,7.42,0,0,0-1.53,3.61,3.08,3.08,0,0,0,.08.75,3.35,3.35,0,0,0,2,2.17C51.6,60.58,65,62.3,69.35,62.87s9.51,3.42,11.77,5c1.77,1.25,8.74,8,10.22,9.46.07.07.31.39.57.74-.36.27-.7.55-1,.83-4-3.2-18.11-12.82-39.57-10.37-5.59,1-9.76,1.62-9.8,1.62s-4.42.57-5.42,3.5c-1.37,4-3.79,17.29-3.14,21.32,0,1.79-1.17,3-.66,3.84.14.22,1.4,2.09,1.58,2.26.66.63,1.85-.79,3.1-.93,3.13-.35,15.24-6.25,19.22-8.19S66,89.58,68.75,89.66c1.92.07,9.67,1.52,12.79,2.11-.34.85-.66,1.72-.94,2.61a24.43,24.43,0,0,0-2.79-1.08c-3.72-.31-16-2.59-33.07,12.85-3.94,4.11-9.5,10.29-9.53,10.32s-3.27,3-2.38,6c1.21,4,4.66,19.36,7.52,22.25a4.27,4.27,0,0,0,2.51,1.93c3.35-.9,3.12-2.12,3.37-2.09.91.12,2.8-5.18,3.73-6,2.34-2.11,6.69-11.59,8.8-15.48s10.65-8.32,12.94-9.86c1.44-1,5.08-2.65,7.38-3.82.09,1,.22,1.92.39,2.86a8.45,8.45,0,0,0-1.66.21c-3.39,1.57-15.08,12.32-22.32,34.2-1.39,5.52-2.3,12.64-2.32,12.67-.05.18-1.15,4.22,3.85,9.55,4.62,4.93,11.62,10.44,13.77,9.77,1.62.77,2.45,1.72,3.42,1.6a14.56,14.56,0,0,0,2-3c1-7.15-.4-9,0-10.23,1-3-.13-14.13-.22-18.55s4.75-12.71,6-15.18a63.53,63.53,0,0,1,3.83-6.3c.54.72,1.1,1.41,1.69,2.07l-1.22,2.17c-1.79,3.27-7.44,18.91-2.24,38.23a65.3,65.3,0,0,1,3.25,12.66c.06.17,2.92,6.75,6,7.14,4.18.53,16.53,2.07,20.34.63a5.4,5.4,0,0,0,3-1.43c-.15-1.56-.56-5.11-1.68-6.73-1.65-2.4-2.23-2.87-2.91-4.07-1.54-2.75-5.38-9.63-8.08-13.14s-2.61-10.32-3.09-13c-.37-2.13-.51-11.86-.54-13.92,0,0,0-.06,0-.12.62.19,1.25.36,1.89.5.18,1.53.41,3.47.43,3.72a53.9,53.9,0,0,0,20.4,37c4.7,3.21,5.3,4.68,8.27,6.71a9.88,9.88,0,0,0,6.45-.39c3.79-1.85,14.91-9.55,17.3-12.85l-1.57-3c-2.46-2-12.93-7.82-17.11-9.27s-9.13-5.88-11-7.89c-1.48-1.58-6.32-11.07-7.47-12.78,0-.07-.65-1-1.3-2.1a26.19,26.19,0,0,0,2.84-1.19c.53,1,.93,2.45,1.07,2.66,2.12,3.07,7.09,15.23,29.87,18.68a137,137,0,0,1,13.88,2.15c.18,0,4.56-.71,6.29-3.28a56.57,56.57,0,0,0,6.57-13.59c.49-1.73,2.68-7.06,2.41-8a5.26,5.26,0,0,0-.37-2.78c-.48-.78-4.91-.31-6.16-.5-3.11-.48-13.05,2.55-17.39,3.38s-14.21-1.92-16.86-2.72c-2.06-.63-5.81-3.85-7.75-4.54l-.9-.35c.65-.85,1.25-1.73,1.82-2.65a32,32,0,0,0,2.67,1.81c3.5,1.28,14.37,7.16,35-3.2l10-6c.16-.09,4.18-1.45,4.41-8.75C184.26,101.49,184.79,104.35,183.12,94Z"/><path class="cls-3" d="M185.68,21.22A4.18,4.18,0,0,1,189.83,17a4.36,4.36,0,0,1,3.83,4.69,4.16,4.16,0,0,1-4.14,4.26A4.36,4.36,0,0,1,185.68,21.22Z"/><path class="cls-3" d="M184.19,21.14c.12-3.32,2.61-5.9,5.57-5.74s5.27,3,5.16,6.31-2.62,5.89-5.58,5.73S184.08,24.46,184.19,21.14Z"/><path class="cls-4" d="M185.69,33.08a1.4,1.4,0,0,1,.94.79,1.51,1.51,0,0,1,.11.65,4,4,0,0,1-.48,1.56c-1.44,2.8-3.78,9.88-4.58,12.06"/><path class="cls-3" d="M199.14,21.93c.2-5.93-3.92-11-9.21-11.25S180.18,15,180,20.92s3.92,11,9.2,11.25,9.75-4.32,10-10.24"/><path class="cls-4" d="M164,18.06c2.59-5.91,5.59-8.5,10.15-8.65l14.81-.5"/><path class="cls-4" d="M177.38,23.89a1.77,1.77,0,0,1,1,.1,1.69,1.69,0,0,1,.78,1.4c.61,4.49,6.21,7.55,6.5,7.69"/><path class="cls-4" d="M177.56,23.82c-.05,0-7.18,2.61-8.73,2.7"/><line class="cls-4" x1="166.88" y1="29.28" x2="166.47" y2="29.34"/><path class="cls-4" d="M169.18,26.47c-1.42.3-2.7.54-2.75,2.08"/><path class="cls-4" d="M180.29,186c-.23.1-6,2.57-6.95,7a1.64,1.64,0,0,1-.87,1.31,1.39,1.39,0,0,1-.5.1"/><path class="cls-4" d="M184.66,54l.05-1.41a109.6,109.6,0,0,1,13.74,57.7,107.15,107.15,0,0,1-17.55,56c0-.08-.17.09-.17,0l.05-1.4a107.35,107.35,0,0,0,16.85-54.68A110.28,110.28,0,0,0,184.66,54Z"/><path class="cls-4" d="M161.35,187.76a.51.51,0,0,0,0,.13l0,.18c0,.15,7.55,4.88,7.72,5s2.18,1.72,3.45,1.19a1.64,1.64,0,0,0,.87-1.31c.92-4.4,6.72-6.87,6.95-7a1.47,1.47,0,0,0,1.07-.71,1.66,1.66,0,0,0,.14-.62,3.94,3.94,0,0,0-.37-1.61,69.77,69.77,0,0,1-2.74-8.29l-.21-.74a4.26,4.26,0,0,0-1.7-2.31Z"/><path class="cls-4" d="M156.92,191.41h-.19q2.18-1.58,4.13-3.14c0,.06,0,.12,0,.18Q158.92,190,156.92,191.41Z"/><path class="cls-4" d="M180.78,165s-.05,1.58-.05,1.66c-.29,9.63,2.31,17.33,6.65,19.65a12.94,12.94,0,0,1,7.27,12.3c-.24,6.89-5.44,12.24-11.58,11.91-5.24-.27-8.35-3.12-10.7-9.8-3.78-5.82-9.27-8.55-16.79-8.33h-.29l-1.43,0,1.19-.92a113.82,113.82,0,0,0,12.39-10.11c7.7-7.29,11.23-13,12.21-14.71C179.85,166.32,180.78,165,180.78,165Z"/><path class="cls-3" d="M193,198.48c.21-5.94-3.92-11-9.21-11.26s-9.74,4.31-9.95,10.25,3.92,11,9.2,11.25,9.75-4.32,10-10.24"/><path class="cls-3" d="M187.08,198.17a3.89,3.89,0,0,0-3.43-4.2,3.73,3.73,0,0,0-3.72,3.82,3.9,3.9,0,0,0,3.44,4.2,3.73,3.73,0,0,0,3.71-3.82"/><path class="cls-4" d="M183.64,52.19a102.53,102.53,0,0,0-11.09-15.87C179.64,44.32,182.76,50.32,183.64,52.19Z"/><path class="cls-3" d="M188.34,198.24c.11-3.07-2-5.69-4.76-5.83s-5,2.24-5.14,5.3,2,5.67,4.75,5.82a5.19,5.19,0,0,0,5.15-5.29"/><path class="cls-4" d="M178.77,17.57a16.51,16.51,0,0,1-13.15,6.76"/><path class="cls-4" d="M159.13,22.46a17.65,17.65,0,0,0,4.82-4.4"/><path class="cls-4" d="M166.43,28.55v.17q-1.83-1.74-3.9-3.56l.19,0Q164.61,26.82,166.43,28.55Z"/><path class="cls-4" d="M161.17,24.06l.28,0"/><path class="cls-4" d="M178.77,17.57c2.8-6.42,6.1-8.92,11.34-8.65,6.14.33,10.95,6.2,10.7,13.1a12.36,12.36,0,0,1-8.09,11.47c-4.49,1.87-7.62,9.27-8,18.88a2.26,2.26,0,0,0,0,.26L184.66,54l.31.58-1.06-1.82s-.09-.23-.28-.61c-.87-1.87-4-7.87-11.08-15.87A121.06,121.06,0,0,0,160.87,24.9l-1.24-1.07,1.54.23.28,0C168.93,25.1,174.6,23,178.77,17.57Z"/><path class="cls-4" d="M183.07,210.48c-5.24-.27-8.35-3.12-10.7-9.8-3.78-5.82-9.27-8.55-16.79-8.33a25.81,25.81,0,0,0-4.83,2.49,17.81,17.81,0,0,1,6.81,6.34c2.34,6.68,5.45,9.52,10.7,9.8a8.23,8.23,0,0,0,.86,0l14.81-.5A8.26,8.26,0,0,1,183.07,210.48Z"/><path class="cls-4" d="M167.44,181.38a96.76,96.76,0,0,0,12.21-14.71C178.67,168.41,175.14,174.09,167.44,181.38Z"/><path class="cls-5" d="M135.1,91.08s.08-.08.21-.21c1.3-1.32,8.25-8.4,9.56-10.23a37.59,37.59,0,0,0,5.75-12.49c1-4.82,4-19.49,5.59-22.44.63-1.18,1.33-1.81,2.13-1.93,1-.15,2.17.53,3.71,2.18,3.09,2.34,10.7,14,12.61,18a5.62,5.62,0,0,1,.48,2.61,11.83,11.83,0,0,1-1.26,4.58s-2,4-4.57,9.61c-11.82,22.18-28.31,26.33-31,26.86l-.36.06,0-.45.43-.08c2.86-.6,19-4.84,30.59-26.62C171.47,75,173.51,71,173.53,71a11.85,11.85,0,0,0,1.19-4.38,5.08,5.08,0,0,0-.43-2.37c-1.89-4-9.42-15.54-12.51-17.89-1.43-1.54-2.5-2.19-3.37-2.07-.69.1-1.28.65-1.85,1.71C155,48.84,152,63.45,151,68.26c-1,5-4.15,10.31-5.83,12.67-1.38,1.93-8.63,9.3-9.69,10.38a1.25,1.25,0,0,0-.12.12Z"/><path class="cls-5" d="M120.28,24.93a3.41,3.41,0,0,1,.89-2.49c.8-.74,2.08-.85,4.15-.35,3.72.15,15.64,5.53,19.17,7.83,2.58,1.69,2.74,6.39,2.75,6.59,0,0,.17,4.64.68,10.91,0,1.52,0,3,0,4.43-.83,23.71-12.14,35.68-13.51,37l-.14.13-.27-.35s.08-.07.19-.19c1.58-1.59,12.5-13.44,13.31-36.65.05-1.42.06-2.88,0-4.39-.5-6.26-.68-10.87-.68-10.92s-.15-4.64-2.54-6.2c-3.49-2.28-15.3-7.62-19-7.77-1.94-.46-3.15-.38-3.83.25a2.9,2.9,0,0,0-.74,2.12c0,.14,0,.28,0,.43.07,3.39,4.44,17.62,5.88,22.29a38.89,38.89,0,0,1,1.24,11.85c0,.93-.09,1.76-.16,2.42-.27,2.62-3.19,14.3-3.31,14.8l-.4-.13c0-.12,3-12.15,3.29-14.72.07-.67.13-1.51.16-2.46a37.44,37.44,0,0,0-1.22-11.6c-1.43-4.7-5.82-19-5.9-22.44C120.27,25.21,120.27,25.07,120.28,24.93Z"/><path class="cls-3" d="M83.38,104.26C83.91,89,95.4,77.19,109,77.9s24.2,13.71,23.67,29-12,27.07-25.61,26.35S82.85,119.51,83.38,104.26Zm48.92,2.58c.53-15-9.93-27.82-23.33-28.53s-24.7,10.94-25.22,26,9.93,27.82,23.32,28.53,24.71-10.94,25.23-26"/><path class="cls-5" d="M78.79,28a2.51,2.51,0,0,1,.1-.61c.31-1.11,1.32-2,3.28-2.83,3.18-2.15,15.74-4.92,19.8-5.13,3-.16,5.38,3.7,5.48,3.86s2.41,3.82,5.87,8.78c8.73,14.42,10.05,27.5,9.77,35.46a38.47,38.47,0,0,1-1,8l-.24-.09-.15,0a39.54,39.54,0,0,0,1-7.87c.28-7.87-1-20.84-9.69-35.14-3.46-5-5.85-8.75-5.87-8.79s-2.38-3.81-5.13-3.67c-4,.21-16.47,2.94-19.63,5.08-1.85.8-2.82,1.61-3.08,2.56a2,2,0,0,0-.07.49,3.92,3.92,0,0,0,.69,2.12c1.69,2.8,12.25,12.13,15.73,15.19s6.61,8.64,7.82,11.36c1,2.28,4.19,13.68,4.52,14.88l-.36.23a1.91,1.91,0,0,1-.07-.22c-.47-1.69-3.5-12.53-4.46-14.68-1.19-2.68-4.15-8.07-7.71-11.2S81.29,33.25,79.56,30.38A4.45,4.45,0,0,1,78.79,28Z"/><path class="cls-5" d="M119,137l.36-.23.21.36c1.56,2.55,11.64,17.6,34.31,20.86,5.58.38,9.68.88,9.72.88s4.1.52,5.81-1.89c2.48-3.54,8.78-15.87,9.41-20a10.8,10.8,0,0,0,.59-2.8,2.92,2.92,0,0,0-.29-1.5,2.68,2.68,0,0,0-2.16-1.21c-3-.43-16.13,2.29-20.44,3.19-4.51.92-10.11-.17-12.73-1-2.06-.63-10.82-5-12.67-5.95l-.32-.16.16-.42.44.22c2,1,10.53,5.26,12.5,5.87,2.57.77,8.11,1.84,12.54.93S174,130.59,177.05,131a3.08,3.08,0,0,1,2.46,1.43,3.31,3.31,0,0,1,.35,1.76,10.84,10.84,0,0,1-.6,2.9c-.64,4.11-7,16.55-9.49,20.13-1.84,2.61-6,2.09-6.18,2.06s-4.12-.49-9.71-.87c-23.08-3.33-33.23-18.78-34.66-21.15Z"/><path class="cls-4" d="M108,71.64a5.54,5.54,0,0,1,1.29,0,27.89,27.89,0,0,1,12.45,3.72,32.81,32.81,0,0,1,12.43,13.17c-.11.12-.18.18-.19.19l.27.35a6.64,6.64,0,0,1,1.07,1.85c-.13.13-.2.21-.21.21l.28.35a35,35,0,0,1,3,15.73l-.43.1,0,.45.36-.06c0,.78-.1,1.56-.18,2.34l-.29,0,.07.47a33.71,33.71,0,0,1-5.14,15l-.39-.19-.18.42.32.15q-.54.81-1.11,1.59l-.44-.22-.16.42.32.16a30.49,30.49,0,0,1-11.55,9.33l-.21-.36L119,137l.18.31c-.64.28-1.29.53-2,.76a2.2,2.2,0,0,1-.14-.25l-.35.24a23.7,23.7,0,0,1-9.86,1.49,27.26,27.26,0,0,1-4.44-.6c0-.43,0-.67,0-.69l-.41,0s0,.23,0,.61c-.66-.15-1.3-.33-1.94-.53,0-.44,0-.71,0-.72H99.7c0,.06,0,.27,0,.59a30.13,30.13,0,0,1-12.63-8.32c.21-.41.33-.62.34-.64l-.34-.25s-.12.2-.3.55c-.49-.55-1-1.13-1.44-1.73l.26-.45-.35-.26-.19.34a36,36,0,0,1-6.51-14.6l.42-.22-.16-.43-.35.18c-.13-.68-.24-1.38-.33-2.07l.26-.14-.17-.42a24.73,24.73,0,0,1-.39-5.75,37.53,37.53,0,0,1,1.71-10l.21,0,.08-.45a9.11,9.11,0,0,1,.64-2.18l.14-.33a33.34,33.34,0,0,1,9-12.55,4.24,4.24,0,0,1,.37.36l.29-.33-.32-.32c.46-.38.92-.75,1.4-1.1l.27.27.27-.35a1.4,1.4,0,0,1-.18-.18,27.73,27.73,0,0,1,13.65-5.17c.14.46.2.72.2.74l.4-.11s-.06-.26-.18-.67c.59,0,1.18-.07,1.77-.07a1.91,1.91,0,0,0,.07.22Zm29.54,35.47c.64-18.21-12-33.73-28.28-34.58S79.3,85.79,78.67,104s12,33.73,28.27,34.58,29.95-13.26,30.59-31.48"/><path class="cls-5" d="M52.88,160.67a12.72,12.72,0,0,1,.28-2.32s1-4.52,2.08-10.66c6-25,20.77-34,23.22-35.35l.35-.18.16.43-.42.22c-2.63,1.46-17,10.48-22.92,35-1.07,6.15-2.06,10.63-2.07,10.67a14.07,14.07,0,0,0-.26,2.24,6.75,6.75,0,0,0,1.15,4.5c2.8,3.29,12.81,12.13,16.34,13.44,1.76,1.06,2.94,1.36,3.76,1a3.06,3.06,0,0,0,1.35-2.21,21.42,21.42,0,0,0,.32-3.52c.2-5.74-.23-15.81-.39-19.68,0-.59,0-1.2,0-1.81a42.93,42.93,0,0,1,2.54-12.2c.82-2.19,5.66-10.91,6.7-12.78l.19-.34.35.26-.26.45c-1.15,2.06-5.81,10.51-6.6,12.6a42.68,42.68,0,0,0-2.51,12.08c0,.59,0,1.16,0,1.72.17,3.88.6,13.94.39,19.73a21.2,21.2,0,0,1-.33,3.62A3.45,3.45,0,0,1,74.71,180c-.95.46-2.21.16-4.07-1-3.55-1.32-13.68-10.24-16.48-13.55A7.2,7.2,0,0,1,52.88,160.67Z"/><path class="cls-4" d="M111.24,15.5C67,13.17,29.59,51.67,27.86,101.33s32.85,92,77.09,94.29,81.66-36.17,83.39-85.83S155.49,17.84,111.24,15.5Zm76.35,94.25c-1.72,49.2-38.77,87.35-82.61,85s-78.1-44.23-76.38-93.42,38.78-87.34,82.61-85,78.1,44.22,76.38,93.41"/><path class="cls-5" d="M132.23,125.68l.18-.42.39.19c2.62,1.22,18.3,7.62,38.71-3.48,4.84-3.1,8.49-5.2,8.53-5.21s3.68-2.09,3.91-5.17c0-.32.05-.69.06-1.1.19-5.37-.55-17.91-1.91-21.47-.46-2.17-1-3.37-1.84-3.8a2.45,2.45,0,0,0-2.38.3c-2.71,1.47-12.34,11.81-15.5,15.22s-8.5,6.06-11.06,7c-2.1.77-11.78,2.48-13.22,2.73l-.16,0-.07-.47.29,0c1.76-.31,11-2,13-2.7,2.52-.92,7.66-3.41,10.9-6.89s12.84-13.8,15.6-15.3a2.81,2.81,0,0,1,2.74-.29c.94.5,1.58,1.75,2.06,4.07,1.37,3.59,2.12,16.3,1.94,21.69q0,.6-.06,1.08c-.26,3.33-4,5.43-4.15,5.52s-3.68,2.11-8.52,5.21c-20.79,11.31-36.74,4.6-39.15,3.45Z"/><path class="cls-5" d="M102.05,138.22l.41,0s0,.26,0,.69c.14,3.73,1.69,21.95,18.78,38.14,4.51,3.73,7.72,6.65,7.76,6.68s3.21,2.95,5.81,2c3.81-1.43,15.1-7.85,17.62-10.88,1.57-1.32,2.31-2.38,2.34-3.38a3.24,3.24,0,0,0-1.22-2.35c-2.31-2.2-14.71-8-18.77-9.86-4.25-2-8.45-6.32-10.27-8.57-1.49-1.86-6.88-11.14-7.67-12.49l-.08-.15.35-.24a2.2,2.2,0,0,0,.14.25c.95,1.63,6.15,10.56,7.56,12.32,1.8,2.23,5.94,6.51,10.12,8.46s16.52,7.68,18.88,9.93a3.56,3.56,0,0,1,1.37,2.69c0,1.19-.8,2.34-2.47,3.73-2.53,3-13.92,9.54-17.77,11-2.81,1.05-6.06-1.94-6.2-2.06s-3.23-2.94-7.76-6.68c-17.37-16.46-18.82-35-18.93-38.6C102.05,138.45,102.05,138.24,102.05,138.22Z"/><path class="cls-5" d="M81.77,151.08c.42-11.8,4-19.5,5-21.57.18-.35.29-.53.3-.55l.34.25s-.13.23-.34.64c-1.09,2.16-4.5,9.73-4.9,21.24a70.32,70.32,0,0,0,2.87,22.07c2.08,5.84,3.44,10.22,3.45,10.27s1.34,4.39,4,5.12c3.92,1.06,16.57,2.38,20.15,1.33,2-.19,3.11-.65,3.6-1.48a2.36,2.36,0,0,0,.3-1.1,5.59,5.59,0,0,0-.24-1.6c-.92-3.21-8.76-15.47-11.33-19.5-2.67-4.2-4.2-10.36-4.68-13.35-.37-2.29-.57-12.15-.61-14.68,0-.32,0-.53,0-.59h.41s0,.28,0,.72c0,2.72.25,12.28.61,14.48.47,2.94,2,9,4.61,13.15s10.44,16.34,11.38,19.64a5.62,5.62,0,0,1,.26,1.75,2.76,2.76,0,0,1-.37,1.34c-.56,1-1.76,1.48-3.87,1.68-3.59,1-16.37-.27-20.31-1.34-2.91-.79-4.26-5.24-4.32-5.44,0,0-1.36-4.4-3.45-10.24A71.17,71.17,0,0,1,81.77,151.08Z"/><path class="cls-4" d="M89.82,4.58l14.82-.5A81.61,81.61,0,0,0,60.89,18.69s-8.46-.19-10.46-2.42C63.49,8,73.84,5.11,89.82,4.58Z"/><path class="cls-3" d="M27.43,12.79C27.55,9.48,30,6.9,33,7.05s5.27,3,5.15,6.31-2.62,5.89-5.57,5.73S27.31,16.11,27.43,12.79Z"/><path class="cls-3" d="M23.37,12.58C23.57,6.83,27.9,2.35,33,2.63S42.17,7.81,42,13.57s-4.54,10.21-9.67,9.94S23.17,18.34,23.37,12.58Z"/><path class="cls-4" d="M21.53,12.48C21.77,5.58,27,.23,33.11.56c5.25.27,8.35,3.12,10.7,9.81,3.79,5.85,9.35,8.57,16.94,8.32h.14l1.55-.06-.64.45-.67.47A118.71,118.71,0,0,0,51.71,27C40.19,37,36.28,44.83,36.22,44.92l-1.16,1.8-.51-.82.9-1.22v-.16c.31-9.68-2.3-17.42-6.65-19.75A12.93,12.93,0,0,1,21.53,12.48Z"/><path class="cls-4" d="M161.17,24.06l-1.43-.21A83.61,83.61,0,0,0,111.61,5.09a81.12,81.12,0,0,0-49.81,14l.64-.45-1.17-.09A80.14,80.14,0,0,1,111.64,4.15a84.62,84.62,0,0,1,49.81,20Z"/><path class="cls-4" d="M111.56,207.05l-14.81.49q-3.48.12-7-.06C71,206.49,48.47,195,42.26,189.2c7-3.91,12.37-2.26,12.37-2.26a84.7,84.7,0,0,0,49.93,20C106.91,207.1,109.25,207.13,111.56,207.05Z"/><path class="cls-4" d="M155.58,192.35a82,82,0,0,1-51,14.63,84.7,84.7,0,0,1-49.93-20L55,187l1.33.19A83.63,83.63,0,0,0,104.59,206a81.08,81.08,0,0,0,49.27-13.63l1.43,0Z"/><path class="cls-5" d="M46.74,56a7.49,7.49,0,0,1,1.53-3.62c1.68-3.71,11-13.5,14.34-16.08,2.45-1.89,6.29,0,6.46.06s3.83,1.83,9.07,4c20.57,10.4,26.58,27.66,27.63,31.24.12.41.17.64.18.67l-.4.11s-.06-.28-.2-.74C104.24,67.94,98.21,51.05,78,40.82c-5.25-2.2-9-4-9.09-4s-3.79-1.85-6.06-.11c-3.29,2.56-12.55,12.25-14.22,16A7,7,0,0,0,47.16,56,2.51,2.51,0,0,0,49,58.49c2.76,1.4,16.06,3.12,20.43,3.68,4.56.59,9.66,3.47,12,5.08,1.86,1.3,9.08,8.35,10.36,9.59a1.4,1.4,0,0,0,.18.18l-.27.35-.27-.27c-1.48-1.43-8.45-8.22-10.22-9.46-2.26-1.58-7.29-4.42-11.77-5S51.6,60.34,48.8,58.92a3.35,3.35,0,0,1-2-2.17A3.08,3.08,0,0,1,46.74,56Z"/><path class="cls-4" d="M49.75,182.56v-.24q1.83,1.74,3.9,3.56l-.29,0C52.13,184.79,50.93,183.7,49.75,182.56Z"/><path class="cls-4" d="M35.26,164.6a1,1,0,0,0-.45,0c-.43.08-1,.42-1.31,1.65l-.27.74a68.28,68.28,0,0,1-3.31,8,3.71,3.71,0,0,0-.48,1.56,1.46,1.46,0,0,0,.1.64,1.4,1.4,0,0,0,.95.79c.29.14,5.88,3.22,6.49,7.69a1.72,1.72,0,0,0,.78,1.4c1.24.67,3.48-.79,3.5-.8.2-.1,4.44-2.1,6-2.19,1.35-.28,2-.42,2-1.55v-.35l0-.26c0-.05,0-.09,0-.14Z"/><path class="cls-3" d="M30.08,189.8a3.91,3.91,0,0,0-3.43-4.2,3.75,3.75,0,0,0-3.72,3.82,3.9,3.9,0,0,0,3.44,4.2,3.72,3.72,0,0,0,3.71-3.82"/><path class="cls-3" d="M21.26,189.34c.12-3.32,2.61-5.89,5.57-5.73s5.27,3,5.16,6.29-2.62,5.9-5.58,5.74S21.15,192.66,21.26,189.34Z"/><path class="cls-3" d="M36.21,190.12c.2-5.92-3.92-11-9.21-11.25s-9.75,4.32-9.95,10.24,3.92,11,9.2,11.26,9.75-4.32,10-10.25"/><path class="cls-4" d="M31.37,157l.11-.05.79,1.28s.13.32.39.86a69.61,69.61,0,0,0,9.74,14.2,117.54,117.54,0,0,0,12.91,12.84l1.24,1.06-.21,0L55,187l-.38-.05c-7.43-1-13.07,1.17-17.22,6.53-2.8,6.42-6.09,8.92-11.34,8.65-6.15-.33-10.94-6.19-10.7-13.09a12.36,12.36,0,0,1,8.09-11.48c4.48-1.86,7.61-9.23,8-18.82,0-.1,0-.21,0-.31Z"/><path class="cls-4" d="M55.32,23.37a1.08,1.08,0,0,1-.39-.83c0-1.13-.6-1.33-2-1.76-1.56-.26-5.65-2.69-5.82-2.79S45,16.27,43.7,16.81a1.63,1.63,0,0,0-.87,1.31c-.92,4.4-6.7,6.86-6.95,7a1.48,1.48,0,0,0-1.05.71,1.54,1.54,0,0,0-.15.63,3.9,3.9,0,0,0,.37,1.6,71.88,71.88,0,0,1,2.75,8.29l.21.74a3.17,3.17,0,0,0,1.64,2.3"/><path class="cls-5" d="M32.18,94.79c.18-5.13,3-17.23,4.5-21.08,1.17-3.08,5.3-3.78,5.48-3.81s4.09-.71,9.56-2c22.73-3.47,36,8.19,38.22,10.28l.32.32-.29.33a4.24,4.24,0,0,0-.37-.36C87.31,76.29,74.14,65,51.79,68.38c-5.47,1.26-9.53,2-9.56,2s-4.09.7-5.16,3.52c-1.46,3.83-4.29,15.8-4.47,20.91a10.91,10.91,0,0,0,0,1.16c0,.27,0,.52,0,.76-.06,1.77.18,2.87.75,3.48a2.5,2.5,0,0,0,2.35.54c3-.45,15-6.91,19-9,4.12-2.22,9.79-2.8,12.48-2.79,2.34,0,13,1.95,13.5,2l-.06.46c-1.14-.21-11.24-2-13.44-2-2.66,0-8.25.57-12.3,2.75s-16,8.63-19.09,9.09a2.88,2.88,0,0,1-2.69-.67c-.68-.72-.95-1.92-.89-3.84,0-.24,0-.49,0-.75A10.68,10.68,0,0,1,32.18,94.79Z"/><path class="cls-5" d="M32.74,121.33c.11-2.92,2.66-5.49,2.78-5.6s3.06-3.12,7-7.53c18-17.52,35.42-15,37.16-14.68l.06.48-.21,0c-2.06-.34-19.12-2.58-36.72,14.58-4,4.41-7,7.5-7,7.53s-2.53,2.54-2.63,5.3a4.68,4.68,0,0,0,.05.83c.7,4.46,4.7,18,7,21.31.95,2,1.78,3,2.66,3.14a2.55,2.55,0,0,0,2.22-1c2.27-2.21,9.17-15,11.43-19.23a34.38,34.38,0,0,1,9.05-10c1.85-1.35,11.15-6,12.51-6.67l.15-.07.17.42a1.74,1.74,0,0,1-.26.13c-1.65.83-10.58,5.29-12.34,6.58a33.87,33.87,0,0,0-8.92,9.85c-2.28,4.22-9.2,17.09-11.52,19.33a2.9,2.9,0,0,1-2.57,1.09c-1-.22-1.93-1.25-2.92-3.35-2.31-3.3-6.36-17-7.06-21.49A5,5,0,0,1,32.74,121.33Z"/><path class="cls-3" d="M28.68,12.86a4.18,4.18,0,0,1,4.15-4.27,4.36,4.36,0,0,1,3.83,4.69,4.17,4.17,0,0,1-4.14,4.26A4.36,4.36,0,0,1,28.68,12.86Z"/><path class="cls-4" d="M42.4,173.31a69.61,69.61,0,0,1-9.74-14.2A101.25,101.25,0,0,0,42.4,173.31Z"/><path class="cls-4" d="M31.52,157.06l0,1.36c0,.1,0,.21,0,.31a111.23,111.23,0,0,1-13.73-57.94A108.28,108.28,0,0,1,35.45,44.52l-.06,1.67a107.34,107.34,0,0,0-16.82,54.65A110.21,110.21,0,0,0,31.52,157.06Z"/><path class="cls-4" d="M28.8,24.77a12.93,12.93,0,0,1-7.27-12.29C21.76,5.91,26.48.74,32.25.55L17.43,1C11.67,1.24,7,6.4,6.72,13A12.9,12.9,0,0,0,14,25.26c4.36,2.33,7,10.08,6.66,19.76A108.16,108.16,0,0,0,2.92,101.29a111.16,111.16,0,0,0,13.73,57.94h0c-.4,9.59-3.53,17-8,18.82a12.37,12.37,0,0,0-8.1,11.47c-.24,6.9,4.56,12.77,10.71,13.09.41,0,.8,0,1.19,0l14.82-.5c-.39,0-.79,0-1.2,0-6.15-.33-10.94-6.19-10.7-13.09a12.36,12.36,0,0,1,8.09-11.48c4.48-1.86,7.61-9.23,8-18.82,0-.1,0-.21,0-.31H31.3a111.22,111.22,0,0,1-13.57-57.63A108.3,108.3,0,0,1,35.35,44.68h.1v-.16C35.76,34.84,33.15,27.1,28.8,24.77Z"/><line class="cls-3" x1="16.65" y1="159.23" x2="31.46" y2="158.73"/><line class="cls-3" x1="20.64" y1="45.02" x2="36.22" y2="44.92"/><path class="cls-1" d="M252.89,33.49A12.38,12.38,0,0,0,261,22c.24-6.9-4.57-12.77-10.71-13.1-.37,0-.73,0-1.09,0h-.1l-14.82.5c-4.56.15-7.56,2.74-10.14,8.65a13.82,13.82,0,0,1-4.58,3.87A83.38,83.38,0,0,0,168.27,4l-2.37,0c-.43,0-.87,0-1.3,0L150,4.58C134,5.11,123.66,8,110.6,16.27c2,2.22,10.43,2.42,10.46,2.42h-.13c-7.6.25-13.15-2.47-17-8.32C101.64,3.68,98.53.83,93.28.56c-.34,0-.67,0-1,0h.14L77.6,1C71.84,1.24,67.12,6.4,66.89,13a12.9,12.9,0,0,0,7.26,12.28c4.36,2.33,7,10.08,6.66,19.76a108.16,108.16,0,0,0-17.72,56.27,111.16,111.16,0,0,0,13.73,57.94h0c-.4,9.59-3.52,17-8,18.82a12.37,12.37,0,0,0-8.1,11.47c-.24,6.9,4.56,12.77,10.71,13.09.41,0,.81,0,1.19,0l14.82-.5h-.1c4.62-.12,7.64-2.7,10.25-8.66a16.32,16.32,0,0,1,10.88-6.54,20.55,20.55,0,0,0-6,2.27c6.21,5.8,28.78,17.29,47.48,18.28,2.36.12,4.69.14,7,.06l14.81-.49h0a82,82,0,0,0,39.72-11.93,17.85,17.85,0,0,1,6.31,6.06c2.35,6.68,5.45,9.52,10.7,9.8a8.26,8.26,0,0,0,.86,0l14.82-.5a8.42,8.42,0,0,1-.87,0c6.14.33,11.34-5,11.58-11.91a13,13,0,0,0-7.26-12.3c-4.34-2.32-6.95-10-6.66-19.65,0,0,0-.12,0-.25,0,.08.16-.09.16,0a107.16,107.16,0,0,0,17.56-56c.05-1.5.06-3,.06-4.47v-.3A110.36,110.36,0,0,0,244.93,51.7C245.43,42.42,248.51,35.31,252.89,33.49ZM75.54,189c0-.34,0-.66.07-1,0,.33-.06.65-.07,1a14.3,14.3,0,0,0,.27,3.29A14.3,14.3,0,0,1,75.54,189Zm2.37-88.24c0,1.32-.07,2.64-.07,3.95,0-1.31,0-2.63.07-3.95s.11-2.63.2-3.94C78,98.16,78,99.47,77.91,100.79Zm12.94,64.67a42.85,42.85,0,0,0,.75-6.07h0A42.85,42.85,0,0,1,90.85,165.46ZM95.5,44.71l0,0h0Zm.12,0Zm26-26.12-.17.11-.41,0a83.53,83.53,0,0,1,17.63-9.31,83.44,83.44,0,0,0-17.24,9.16Zm94.11,173.79h0Z"/><path class="cls-2" d="M177,188.32l-.09.09C177,189.33,177,189.56,177,188.32Z"/><path class="cls-2" d="M243.3,94c-.61-1.69-1-7.66-1.73-8.27A9.62,9.62,0,0,0,239,84.66c-5.73,4.38-3.45,2.68-4.49,4-1.89,2.52-9.89,10.09-13,13.28s-12.34,5.62-15,6.5a76.83,76.83,0,0,1-8.43,2,7.33,7.33,0,0,1-1.06-.4c.11-.9.19-1.8.23-2.72,1.8-.31,4.18-.72,4.43-.81a53.92,53.92,0,0,0,29.65-30.12c1.73-5.41,3-6.41,4.07-9.83a9.93,9.93,0,0,0-2.22-6.08c-2.86-3.1-9.13-14.75-13-16.1l-3.31.41c-1.19,2.92-7.17,19.76-7.37,24.18s-3,10.43-4.42,12.82c-1.08,1.87-8.81,9.22-10.11,10.81h0a33.28,33.28,0,0,0-1.65-3.7c2.81-3,6.74-6.83,7.6-9.2,2-5.56,4.57-8.65,6.66-27.94-.11-5.68-.64-13-.63-13s-.71-7.79-3.43-9.26c-3.71-2-6.14-3.36-11.2-5.79-1.77-.31-7.28-2-8.18-1.62a5.21,5.21,0,0,0-2.73.64c-.73.56.17,4.92.1,6.18-.18,3.14,3.81,12.74,5.05,17s1.87,6.75,1.33,9.46c-.42,2.12-1.15,10.08-1.66,12.08-.21.83-2.35,5.93-3.59,9.48-.45-.29-.9-.57-1.36-.84,1.46-4.14,5.42-18.17-4.55-38-2.91-4.88-7-10.05-7.6-11.06-.09-.15-2.59-5.57-6.28-7.61-6.76-.21.85,0-9.48,1.64-1.69.6-13,4.18-13.55,4.95a9.59,9.59,0,0,0-.32,3c4.38,5.73,4.65,6.54,6,7.58a115,115,0,0,1,9.63,8.16c3.25,3.12,6.35,6.86,7.23,9.48.68,2,4.78,14.67,5.11,16.7,0,.06.19.72.43,1.61-.6,0-1.19,0-1.78.08l-.26-.8c-1.05-3.58-7.06-20.84-27.62-31.24-5.25-2.2-9-4-9.08-4s-4-2-6.46-.06c-3.33,2.58-12.66,12.37-14.33,16.09a7.33,7.33,0,0,0-1.53,3.61A2.66,2.66,0,0,0,107,57a3.38,3.38,0,0,0,2,2.17c2.81,1.43,16.16,3.15,20.55,3.72s9.51,3.42,11.77,5c1.77,1.25,8.75,8,10.22,9.46.07.07.31.39.57.74l-1,.83c-4-3.2-18.12-12.82-39.58-10.37-5.59,1-9.76,1.62-9.8,1.62s-4.42.57-5.42,3.5c-1.37,4-3.79,17.29-3.14,21.32,0,1.79-1.16,3-.66,3.84.14.22,1.4,2.09,1.58,2.26.67.63,1.85-.79,3.1-.93,3.13-.35,15.24-6.25,19.22-8.19s9.82-2.37,12.59-2.29c1.91.07,9.66,1.52,12.79,2.11-.35.85-.67,1.72-.95,2.61A23.71,23.71,0,0,0,138,93.3c-3.72-.31-16-2.59-33.07,12.85-3.93,4.11-9.5,10.29-9.53,10.32s-3.26,3-2.37,6c1.21,4,4.65,19.36,7.52,22.25a4.26,4.26,0,0,0,2.5,1.93c3.35-.9,3.13-2.12,3.37-2.09.91.12,2.8-5.18,3.73-6,2.35-2.11,6.69-11.59,8.81-15.48s10.64-8.32,12.94-9.86c1.43-1,5.07-2.65,7.37-3.82.1,1,.23,1.92.4,2.86a8.47,8.47,0,0,0-1.67.21c-3.38,1.57-15.08,12.32-22.32,34.2-1.39,5.52-2.3,12.64-2.31,12.67-.06.18-1.15,4.22,3.84,9.55,4.63,4.93,11.63,10.44,13.77,9.77,1.62.77,2.46,1.72,3.43,1.6a14.52,14.52,0,0,0,2-3c1-7.15-.4-9,0-10.23,1-3-.14-14.13-.22-18.55s4.75-12.71,6-15.18a63.67,63.67,0,0,1,3.84-6.3q.79,1.08,1.68,2.07c-.55,1-1.12,2-1.21,2.17-1.79,3.27-7.44,18.91-2.25,38.23a64.5,64.5,0,0,1,3.25,12.66c.07.17,2.92,6.75,6,7.14,4.18.53,16.53,2.07,20.34.63a5.44,5.44,0,0,0,3-1.43c-.16-1.56-.57-5.11-1.68-6.73-1.65-2.4-2.24-2.87-2.92-4.07a135.75,135.75,0,0,0-8.07-13.14c-2.76-3.58-2.62-10.32-3.1-13-.37-2.13-.5-11.86-.53-13.92a.68.68,0,0,1,0-.12c.62.19,1.24.36,1.88.5.18,1.53.41,3.47.43,3.72a53.88,53.88,0,0,0,20.41,37c4.69,3.21,5.29,4.68,8.26,6.71a9.91,9.91,0,0,0,6.46-.39c3.78-1.85,14.9-9.55,17.29-12.85l-1.57-3c-2.46-2-12.93-7.82-17.11-9.27s-9.13-5.88-11-7.89c-1.47-1.58-6.31-11.07-7.47-12.78-.05-.07-.64-1-1.3-2.1a27.22,27.22,0,0,0,2.85-1.19c.52,1,.92,2.45,1.06,2.66,2.12,3.07,7.09,15.23,29.87,18.68a137,137,0,0,1,13.88,2.15c.18,0,4.56-.71,6.29-3.28a56.2,56.2,0,0,0,6.57-13.59c.49-1.73,2.69-7.06,2.41-8a5.16,5.16,0,0,0-.37-2.78c-.48-.78-4.91-.31-6.15-.5-3.12-.48-13,2.55-17.4,3.38s-14.21-1.92-16.86-2.72c-2.06-.63-5.81-3.85-7.74-4.54-.39-.14-.67-.26-.9-.35.64-.85,1.25-1.73,1.81-2.65.85.61,2.38,1.7,2.67,1.81,3.51,1.28,14.37,7.16,35-3.2,4.89-2.91,10-6,10-6s4.17-1.45,4.4-8.75C244.43,101.49,245,104.35,243.3,94Z"/><path class="cls-3" d="M245.85,21.22A4.18,4.18,0,0,1,250,17a4.35,4.35,0,0,1,3.83,4.69,4.16,4.16,0,0,1-4.14,4.26A4.36,4.36,0,0,1,245.85,21.22Z"/><path class="cls-3" d="M244.37,21.14c.11-3.32,2.61-5.9,5.56-5.74s5.28,3,5.16,6.31-2.62,5.89-5.58,5.73S244.25,24.46,244.37,21.14Z"/><path class="cls-4" d="M245.86,33.08a1.41,1.41,0,0,1,.95.79,1.51,1.51,0,0,1,.1.65,3.67,3.67,0,0,1-.48,1.56c-1.44,2.8-3.77,9.88-4.57,12.06"/><path class="cls-3" d="M259.31,21.93c.21-5.93-3.92-11-9.21-11.25s-9.74,4.31-9.95,10.24,3.92,11,9.2,11.25,9.75-4.32,10-10.24"/><path class="cls-4" d="M224.13,18.06c2.58-5.91,5.58-8.5,10.14-8.65l14.82-.5"/><path class="cls-4" d="M237.55,23.89a1.81,1.81,0,0,1,1,.1,1.74,1.74,0,0,1,.78,1.4c.61,4.49,6.21,7.55,6.49,7.69"/><path class="cls-4" d="M237.73,23.82s-7.17,2.61-8.73,2.7"/><line class="cls-4" x1="227.06" y1="29.28" x2="226.65" y2="29.34"/><path class="cls-4" d="M229.35,26.47c-1.42.3-2.69.54-2.75,2.08"/><path class="cls-4" d="M240.47,186c-.24.1-6,2.57-7,7a1.64,1.64,0,0,1-.87,1.31,1.35,1.35,0,0,1-.5.1"/><path class="cls-4" d="M244.83,54l0-1.41a109.6,109.6,0,0,1,13.75,57.7,107.16,107.16,0,0,1-17.56,56c0-.08-.17.09-.16,0L241,165a107.34,107.34,0,0,0,16.84-54.68A110.17,110.17,0,0,0,244.83,54Z"/><path class="cls-4" d="M221.52,187.76s0,.08,0,.13l0,.18c0,.15,7.55,4.88,7.73,5s2.17,1.72,3.44,1.19a1.64,1.64,0,0,0,.87-1.31c.93-4.4,6.72-6.87,7-7a1.47,1.47,0,0,0,1.06-.71,1.35,1.35,0,0,0,.14-.62,3.94,3.94,0,0,0-.37-1.61,71.64,71.64,0,0,1-2.74-8.29l-.21-.74a4.26,4.26,0,0,0-1.7-2.31Z"/><path class="cls-4" d="M217.09,191.41h-.19q2.17-1.58,4.13-3.14a1.09,1.09,0,0,0,0,.18Q219.08,190,217.09,191.41Z"/><path class="cls-4" d="M241,165s-.06,1.58-.06,1.66c-.29,9.63,2.32,17.33,6.66,19.65a13,13,0,0,1,7.26,12.3c-.24,6.89-5.44,12.24-11.58,11.91-5.24-.27-8.35-3.12-10.69-9.8-3.78-5.82-9.28-8.55-16.8-8.33h-.29l-1.43,0,1.19-.92a112.86,112.86,0,0,0,12.39-10.11c7.7-7.29,11.23-13,12.21-14.71C240,166.32,241,165,241,165Z"/><path class="cls-3" d="M253.14,198.48c.21-5.94-3.92-11-9.21-11.26s-9.74,4.31-10,10.25,3.92,11,9.2,11.25,9.76-4.32,10-10.24"/><path class="cls-3" d="M247.26,198.17a3.9,3.9,0,0,0-3.44-4.2,3.73,3.73,0,0,0-3.71,3.82,3.9,3.9,0,0,0,3.43,4.2,3.74,3.74,0,0,0,3.72-3.82"/><path class="cls-4" d="M243.81,52.19a102.53,102.53,0,0,0-11.09-15.87C239.82,44.32,242.93,50.32,243.81,52.19Z"/><path class="cls-3" d="M248.52,198.24c.1-3.07-2-5.69-4.77-5.83s-5,2.24-5.14,5.3,2,5.67,4.76,5.82,5-2.24,5.15-5.29"/><path class="cls-4" d="M238.94,17.57a16.51,16.51,0,0,1-13.15,6.76"/><path class="cls-4" d="M219.31,22.46a17.8,17.8,0,0,0,4.82-4.4"/><path class="cls-4" d="M226.6,28.55v.17q-1.83-1.74-3.9-3.56l.19,0Q224.8,26.82,226.6,28.55Z"/><path class="cls-4" d="M221.34,24.06l.28,0"/><path class="cls-4" d="M238.94,17.57c2.8-6.42,6.1-8.92,11.34-8.65,6.14.33,11,6.2,10.71,13.1a12.38,12.38,0,0,1-8.1,11.47c-4.48,1.87-7.62,9.27-8,18.88,0,.09,0,.17,0,.26l0,1.41.31.58-1.06-1.82s-.09-.23-.27-.61c-.88-1.87-4-7.87-11.09-15.87A119.91,119.91,0,0,0,221,24.9l-1.23-1.07,1.53.23.28,0C229.1,25.1,234.77,23,238.94,17.57Z"/><path class="cls-4" d="M243.24,210.48c-5.24-.27-8.35-3.12-10.69-9.8-3.78-5.82-9.28-8.55-16.8-8.33a25.81,25.81,0,0,0-4.83,2.49,17.74,17.74,0,0,1,6.81,6.34c2.35,6.68,5.45,9.52,10.7,9.8a8.26,8.26,0,0,0,.86,0l14.82-.5A8.42,8.42,0,0,1,243.24,210.48Z"/><path class="cls-4" d="M227.61,181.38a96.17,96.17,0,0,0,12.21-14.71C238.84,168.41,235.31,174.09,227.61,181.38Z"/><path class="cls-5" d="M195.27,91.08l.21-.21c1.3-1.32,8.25-8.4,9.56-10.23a37.59,37.59,0,0,0,5.75-12.49c1-4.82,4-19.49,5.59-22.44.63-1.18,1.33-1.81,2.14-1.93,1-.15,2.17.53,3.7,2.18,3.09,2.34,10.7,14,12.61,18a5.62,5.62,0,0,1,.48,2.61,11.83,11.83,0,0,1-1.26,4.58s-2,4-4.57,9.61c-11.81,22.18-28.31,26.33-31,26.86l-.37.06-.05-.45.44-.08c2.85-.6,19-4.84,30.58-26.62C231.65,75,233.68,71,233.71,71a12.16,12.16,0,0,0,1.18-4.38,5.08,5.08,0,0,0-.43-2.37c-1.89-4-9.42-15.54-12.5-17.89-1.44-1.54-2.5-2.19-3.38-2.07-.68.1-1.28.65-1.85,1.71-1.54,2.89-4.55,17.5-5.53,22.31a37.9,37.9,0,0,1-5.84,12.67c-1.38,1.93-8.63,9.3-9.69,10.38l-.12.12Z"/><path class="cls-5" d="M180.45,24.93a3.41,3.41,0,0,1,.89-2.49c.8-.74,2.08-.85,4.15-.35,3.72.15,15.64,5.53,19.17,7.83,2.58,1.69,2.74,6.39,2.75,6.59,0,0,.18,4.64.68,10.91,0,1.52,0,3,0,4.43-.83,23.71-12.14,35.68-13.51,37l-.14.13-.26-.35.19-.19c1.57-1.59,12.49-13.44,13.3-36.65.05-1.42.06-2.88,0-4.39-.49-6.26-.67-10.87-.68-10.92s-.15-4.64-2.54-6.2c-3.49-2.28-15.3-7.62-19-7.77-1.94-.46-3.15-.38-3.83.25a2.9,2.9,0,0,0-.74,2.12,3.08,3.08,0,0,0,0,.43c.06,3.39,4.43,17.62,5.87,22.29A38.89,38.89,0,0,1,188,59.49c0,.93-.09,1.76-.16,2.42-.26,2.62-3.19,14.3-3.31,14.8l-.4-.13c0-.12,3-12.15,3.3-14.72.07-.67.12-1.51.16-2.46a38.06,38.06,0,0,0-1.22-11.6c-1.44-4.7-5.83-19-5.9-22.44Z"/><path class="cls-3" d="M143.55,104.26c.54-15.25,12-27.07,25.61-26.36s24.2,13.71,23.67,29-12,27.07-25.6,26.35S143,119.51,143.55,104.26Zm48.93,2.58c.52-15-9.94-27.82-23.34-28.53s-24.7,10.94-25.22,26,9.94,27.82,23.32,28.53,24.71-10.94,25.24-26"/><path class="cls-5" d="M139,28a2.5,2.5,0,0,1,.09-.61c.31-1.11,1.32-2,3.29-2.83,3.17-2.15,15.73-4.92,19.79-5.13,3-.16,5.39,3.7,5.48,3.86s2.42,3.82,5.88,8.78c8.72,14.42,10,27.5,9.76,35.46a37.64,37.64,0,0,1-1,8l-.24-.09-.15,0a39.08,39.08,0,0,0,1-7.87c.27-7.87-1-20.84-9.7-35.14-3.46-5-5.85-8.75-5.87-8.79s-2.38-3.81-5.13-3.67c-4,.21-16.47,2.94-19.63,5.08-1.85.8-2.82,1.61-3.07,2.56a2,2,0,0,0-.08.49,4,4,0,0,0,.69,2.12c1.7,2.8,12.25,12.13,15.73,15.19s6.61,8.64,7.83,11.36c1,2.28,4.18,13.68,4.51,14.88l-.36.23s0-.09-.06-.22c-.48-1.69-3.51-12.53-4.47-14.68-1.18-2.68-4.15-8.07-7.71-11.2s-14.08-12.43-15.81-15.3A4.34,4.34,0,0,1,139,28Z"/><path class="cls-5" d="M179.22,137l.35-.23.22.36c1.55,2.55,11.63,17.6,34.3,20.86,5.58.38,9.68.88,9.72.88s4.11.52,5.81-1.89c2.49-3.54,8.78-15.87,9.41-20a10.8,10.8,0,0,0,.59-2.8,2.92,2.92,0,0,0-.29-1.5,2.67,2.67,0,0,0-2.15-1.21c-3-.43-16.13,2.29-20.45,3.19-4.5.92-10.11-.17-12.72-1-2.07-.63-10.83-5-12.67-5.95l-.33-.16.16-.42a4.87,4.87,0,0,1,.44.22c2,1,10.54,5.26,12.51,5.87,2.57.77,8.11,1.84,12.53.93s17.53-3.63,20.58-3.19a3.07,3.07,0,0,1,2.45,1.43,3.31,3.31,0,0,1,.35,1.76,10.46,10.46,0,0,1-.6,2.9c-.63,4.11-7,16.55-9.49,20.13-1.84,2.61-6,2.09-6.18,2.06,0,0-4.12-.49-9.71-.87-23.07-3.33-33.22-18.78-34.66-21.15A3.37,3.37,0,0,1,179.22,137Z"/><path class="cls-4" d="M168.17,71.64a5.51,5.51,0,0,1,1.29,0,27.89,27.89,0,0,1,12.44,3.72,32.9,32.9,0,0,1,12.44,13.17l-.19.19.26.35a6.64,6.64,0,0,1,1.07,1.85l-.21.21.28.35a35,35,0,0,1,3,15.73l-.44.1.05.45.37-.06c0,.78-.1,1.56-.19,2.34l-.28,0,.07.47a33.72,33.72,0,0,1-5.15,15l-.39-.19-.18.42.32.15c-.36.54-.72,1.07-1.11,1.59a4.87,4.87,0,0,0-.44-.22l-.16.42.33.16a30.57,30.57,0,0,1-11.55,9.33l-.22-.36-.35.23a3.37,3.37,0,0,0,.17.31c-.64.28-1.29.53-1.95.76a1.67,1.67,0,0,1-.15-.25l-.35.24a23.65,23.65,0,0,1-9.85,1.49,27,27,0,0,1-4.44-.6c0-.43,0-.67,0-.69l-.4,0a5,5,0,0,0,0,.61c-.65-.15-1.3-.33-1.94-.53,0-.44,0-.71,0-.72h-.41c0,.06,0,.27,0,.59a30,30,0,0,1-12.62-8.32c.2-.41.33-.62.34-.64l-.34-.25s-.12.2-.3.55c-.5-.55-1-1.13-1.44-1.73.15-.28.24-.44.25-.45l-.35-.26-.19.34a36,36,0,0,1-6.5-14.6l.41-.22-.16-.43-.35.18c-.12-.68-.23-1.38-.33-2.07l.27-.14-.17-.42A24.72,24.72,0,0,1,138,104a37.93,37.93,0,0,1,1.71-10l.21,0,.08-.45a8.7,8.7,0,0,1,.65-2.18l.13-.33a33.25,33.25,0,0,1,9-12.55,3.34,3.34,0,0,1,.36.36l.29-.33-.32-.32c.46-.38.93-.75,1.4-1.1l.28.27.26-.35-.18-.18a27.73,27.73,0,0,1,13.65-5.17c.14.46.2.72.21.74l.39-.11s-.06-.26-.18-.67c.59,0,1.18-.07,1.78-.07,0,.13.06.21.06.22Zm29.53,35.47c.64-18.21-12-33.73-28.28-34.58S139.48,85.79,138.84,104s12,33.73,28.28,34.58,29.95-13.26,30.58-31.48"/><path class="cls-5" d="M113.05,160.67a12.72,12.72,0,0,1,.28-2.32s1-4.52,2.08-10.66c6-25,20.77-34,23.23-35.35l.34-.18.16.43-.41.22c-2.64,1.46-17.06,10.48-22.92,35-1.08,6.15-2.06,10.63-2.08,10.67a14.07,14.07,0,0,0-.26,2.24,6.75,6.75,0,0,0,1.15,4.5c2.8,3.29,12.82,12.13,16.34,13.44,1.76,1.06,2.94,1.36,3.76,1a3.06,3.06,0,0,0,1.35-2.21,20.35,20.35,0,0,0,.32-3.52c.21-5.74-.23-15.81-.39-19.68,0-.59,0-1.2,0-1.81a43.28,43.28,0,0,1,2.54-12.2c.83-2.19,5.66-10.91,6.7-12.78l.19-.34.35.26s-.1.17-.25.45c-1.15,2.06-5.82,10.51-6.61,12.6a42.73,42.73,0,0,0-2.5,12.08c0,.59,0,1.16,0,1.72.17,3.88.6,13.94.4,19.73a21,21,0,0,1-.34,3.62,3.45,3.45,0,0,1-1.59,2.51c-.95.46-2.21.16-4.07-1-3.55-1.32-13.67-10.24-16.48-13.55A7.2,7.2,0,0,1,113.05,160.67Z"/><path class="cls-4" d="M171.42,15.5C127.17,13.17,89.76,51.67,88,101.33s32.85,92,77.1,94.29,81.65-36.17,83.38-85.83S215.66,17.84,171.42,15.5Zm76.34,94.25c-1.71,49.2-38.77,87.35-82.6,85s-78.11-44.23-76.39-93.42,38.78-87.34,82.62-85,78.09,44.22,76.37,93.41"/><path class="cls-5" d="M192.4,125.68l.18-.42.39.19c2.62,1.22,18.3,7.62,38.71-3.48,4.84-3.1,8.49-5.2,8.53-5.21s3.68-2.09,3.92-5.17c0-.32,0-.69.06-1.1.18-5.37-.56-17.91-1.91-21.47-.47-2.17-1.05-3.37-1.85-3.8a2.46,2.46,0,0,0-2.38.3c-2.71,1.47-12.33,11.81-15.5,15.22s-8.5,6.06-11.06,7c-2.1.77-11.78,2.48-13.21,2.73l-.16,0-.07-.47.28,0c1.77-.31,11-2,13-2.7,2.52-.92,7.66-3.41,10.9-6.89s12.84-13.8,15.6-15.3a2.82,2.82,0,0,1,2.74-.29c.94.5,1.58,1.75,2.06,4.07,1.38,3.59,2.13,16.3,1.94,21.69q0,.6-.06,1.08c-.26,3.33-4,5.43-4.14,5.52s-3.69,2.11-8.53,5.21c-20.79,11.31-36.73,4.6-39.15,3.45Z"/><path class="cls-5" d="M162.23,138.22l.4,0s0,.26,0,.69c.13,3.73,1.68,21.95,18.77,38.14,4.52,3.73,7.73,6.65,7.76,6.68s3.21,2.95,5.81,2c3.82-1.43,15.11-7.85,17.63-10.88,1.57-1.32,2.3-2.38,2.34-3.38a3.22,3.22,0,0,0-1.23-2.35c-2.31-2.2-14.71-8-18.77-9.86-4.25-2-8.45-6.32-10.27-8.57-1.49-1.86-6.88-11.14-7.66-12.49l-.09-.15.35-.24a1.67,1.67,0,0,0,.15.25c.94,1.63,6.14,10.56,7.56,12.32,1.79,2.23,5.94,6.51,10.11,8.46s16.52,7.68,18.89,9.93a3.63,3.63,0,0,1,1.37,2.69c-.05,1.19-.81,2.34-2.48,3.73-2.53,3-13.92,9.54-17.76,11-2.82,1.05-6.07-1.94-6.21-2.06s-3.23-2.94-7.75-6.68c-17.38-16.46-18.82-35-18.94-38.6A5,5,0,0,1,162.23,138.22Z"/><path class="cls-5" d="M142,151.08c.41-11.8,4-19.5,5-21.57.18-.35.29-.53.3-.55l.34.25s-.14.23-.34.64c-1.1,2.16-4.51,9.73-4.91,21.24a70.07,70.07,0,0,0,2.88,22.07c2.07,5.84,3.43,10.22,3.44,10.27s1.34,4.39,4,5.12c3.91,1.06,16.56,2.38,20.15,1.33,2-.19,3.1-.65,3.59-1.48a2.15,2.15,0,0,0,.3-1.1,5,5,0,0,0-.24-1.6c-.92-3.21-8.75-15.47-11.32-19.5-2.68-4.2-4.21-10.36-4.69-13.35-.36-2.29-.56-12.15-.61-14.68,0-.32,0-.53,0-.59h.41s0,.28,0,.72c.05,2.72.26,12.28.61,14.48.47,2.94,2,9,4.61,13.15s10.44,16.34,11.38,19.64a5.34,5.34,0,0,1,.26,1.75,2.65,2.65,0,0,1-.37,1.34c-.56,1-1.76,1.48-3.86,1.68-3.59,1-16.37-.27-20.32-1.34-2.91-.79-4.26-5.24-4.31-5.44,0,0-1.37-4.4-3.45-10.24A70.88,70.88,0,0,1,142,151.08Z"/><path class="cls-4" d="M150,4.58l14.82-.5a81.64,81.64,0,0,0-43.75,14.61s-8.46-.19-10.46-2.42C123.66,8,134,5.11,150,4.58Z"/><path class="cls-3" d="M87.6,12.79c.12-3.31,2.61-5.89,5.57-5.74s5.27,3,5.16,6.31-2.62,5.89-5.58,5.73S87.49,16.11,87.6,12.79Z"/><path class="cls-3" d="M83.54,12.58c.2-5.75,4.53-10.23,9.66-9.95s9.15,5.18,9,10.94-4.55,10.21-9.68,9.94S83.34,18.34,83.54,12.58Z"/><path class="cls-4" d="M81.71,12.48C82,5.58,87.13.23,93.28.56c5.25.27,8.36,3.12,10.7,9.81,3.8,5.85,9.35,8.57,17,8.32h.13l1.55-.06-.63.45-.68.47A116.64,116.64,0,0,0,111.89,27C100.36,37,96.45,44.83,96.4,44.92l-1.17,1.8-.51-.82.9-1.22v-.16c.31-9.68-2.29-17.42-6.65-19.75A12.91,12.91,0,0,1,81.71,12.48Z"/><path class="cls-4" d="M221.34,24.06l-1.43-.21A83.61,83.61,0,0,0,171.78,5.09a81.07,81.07,0,0,0-49.8,14l.63-.45-1.16-.09A80.11,80.11,0,0,1,171.81,4.15a84.57,84.57,0,0,1,49.81,20Z"/><path class="cls-4" d="M171.73,207.05l-14.81.49c-2.32.08-4.65.06-7-.06-18.7-1-41.27-12.48-47.48-18.28,7-3.91,12.37-2.26,12.37-2.26a84.73,84.73,0,0,0,49.93,20C167.08,207.1,169.42,207.13,171.73,207.05Z"/><path class="cls-4" d="M215.75,192.35a82,82,0,0,1-51,14.63,84.73,84.73,0,0,1-49.93-20l.39.05,1.32.19A83.65,83.65,0,0,0,164.76,206,81.08,81.08,0,0,0,214,192.41l1.43,0Z"/><path class="cls-5" d="M106.92,56a7.39,7.39,0,0,1,1.53-3.62c1.67-3.71,11-13.5,14.33-16.08,2.45-1.89,6.3,0,6.46.06s3.83,1.83,9.08,4c20.56,10.4,26.57,27.66,27.62,31.24.12.41.18.64.18.67l-.39.11s-.07-.28-.21-.74c-1.11-3.73-7.14-20.62-27.36-30.85-5.24-2.2-9-4-9.08-4s-3.8-1.85-6.06-.11c-3.3,2.56-12.55,12.25-14.22,16A7,7,0,0,0,107.34,56a2.4,2.4,0,0,0,0,.61,2.94,2.94,0,0,0,1.74,1.86c2.76,1.4,16.06,3.12,20.44,3.68,4.55.59,9.65,3.47,11.94,5.08,1.86,1.3,9.09,8.35,10.36,9.59l.18.18-.26.35-.28-.27c-1.47-1.43-8.45-8.22-10.22-9.46-2.26-1.58-7.29-4.42-11.77-5s-17.74-2.3-20.55-3.72a3.38,3.38,0,0,1-2-2.17A2.66,2.66,0,0,1,106.92,56Z"/><path class="cls-4" d="M109.92,182.56v0a.74.74,0,0,0,0-.21q1.85,1.74,3.9,3.56l-.29,0C112.3,184.79,111.1,183.7,109.92,182.56Z"/><path class="cls-4" d="M95.43,164.6a1,1,0,0,0-.45,0c-.43.08-1,.42-1.3,1.65l-.27.74a70.3,70.3,0,0,1-3.32,8,4,4,0,0,0-.48,1.56,1.63,1.63,0,0,0,.1.64,1.42,1.42,0,0,0,1,.79c.29.14,5.88,3.22,6.49,7.69a1.74,1.74,0,0,0,.78,1.4c1.24.67,3.48-.79,3.5-.8.2-.1,4.45-2.1,6-2.19,1.35-.28,2-.42,2-1.55a2,2,0,0,0,0-.35c0-.08,0-.17,0-.26s0-.09,0-.14Z"/><path class="cls-3" d="M90.26,189.8a3.92,3.92,0,0,0-3.44-4.2,3.74,3.74,0,0,0-3.71,3.82,3.89,3.89,0,0,0,3.43,4.2,3.73,3.73,0,0,0,3.72-3.82"/><path class="cls-3" d="M81.44,189.34c.11-3.32,2.61-5.89,5.56-5.73s5.28,3,5.16,6.29-2.62,5.9-5.58,5.74S81.32,192.66,81.44,189.34Z"/><path class="cls-3" d="M96.38,190.12c.21-5.92-3.92-11-9.21-11.25s-9.74,4.32-10,10.24,3.92,11,9.2,11.26,9.75-4.32,10-10.25"/><path class="cls-4" d="M91.54,157l.11-.05.79,1.28s.13.32.39.86a69.61,69.61,0,0,0,9.74,14.2,117.73,117.73,0,0,0,12.92,12.84l1.23,1.06-.21,0-1.32-.19-.39-.05c-7.43-1-13.07,1.17-17.21,6.53-2.81,6.42-6.1,8.92-11.34,8.65-6.15-.33-11-6.19-10.71-13.09a12.39,12.39,0,0,1,8.1-11.48c4.47-1.86,7.6-9.23,8-18.82,0-.1,0-.21,0-.31Z"/><path class="cls-4" d="M115.5,23.37a1.06,1.06,0,0,1-.4-.83c0-1.13-.6-1.33-1.95-1.76-1.56-.26-5.65-2.69-5.82-2.79s-2.17-1.72-3.45-1.18a1.64,1.64,0,0,0-.88,1.31c-.92,4.4-6.7,6.86-7,7a1.48,1.48,0,0,0-1,.71,1.54,1.54,0,0,0-.15.63,3.94,3.94,0,0,0,.38,1.6A71.64,71.64,0,0,1,98,36.31l.21.74a3.17,3.17,0,0,0,1.64,2.3"/><path class="cls-5" d="M92.35,94.79c.18-5.13,3.05-17.23,4.5-21.08,1.18-3.08,5.3-3.78,5.48-3.81s4.09-.71,9.57-2c22.72-3.47,36,8.19,38.21,10.28l.32.32-.29.33a3.34,3.34,0,0,0-.36-.36C147.48,76.29,134.32,65,112,68.38c-5.48,1.26-9.54,2-9.57,2s-4.08.7-5.16,3.52c-1.46,3.83-4.29,15.8-4.47,20.91a10.91,10.91,0,0,0,0,1.16c0,.27,0,.52,0,.76-.06,1.77.18,2.87.75,3.48a2.5,2.5,0,0,0,2.35.54c3-.45,15-6.91,19-9,4.12-2.22,9.79-2.8,12.48-2.79,2.35,0,13.06,1.95,13.51,2l-.06.46c-1.15-.21-11.25-2-13.45-2-2.65,0-8.24.57-12.29,2.75s-16.06,8.63-19.1,9.09a2.88,2.88,0,0,1-2.69-.67c-.67-.72-.95-1.92-.88-3.84,0-.24,0-.49,0-.75A10.42,10.42,0,0,1,92.35,94.79Z"/><path class="cls-5" d="M92.92,121.33c.1-2.92,2.65-5.49,2.77-5.6s3.06-3.12,7-7.53c18-17.52,35.41-15,37.15-14.68l.06.48-.21,0c-2.06-.34-19.11-2.58-36.72,14.58C99,113,96,116,96,116.07s-2.54,2.54-2.63,5.3a4.66,4.66,0,0,0,0,.83c.7,4.46,4.7,18,7,21.31.95,2,1.79,3,2.66,3.14a2.54,2.54,0,0,0,2.22-1c2.27-2.21,9.17-15,11.43-19.23a34.26,34.26,0,0,1,9.06-10c1.84-1.35,11.14-6,12.5-6.67l.16-.07.17.42-.27.13c-1.64.83-10.58,5.29-12.34,6.58a33.87,33.87,0,0,0-8.92,9.85c-2.27,4.22-9.2,17.09-11.51,19.33a2.91,2.91,0,0,1-2.58,1.09c-1-.22-1.92-1.25-2.92-3.35-2.31-3.3-6.35-17-7.06-21.49A4.94,4.94,0,0,1,92.92,121.33Z"/><path class="cls-3" d="M88.85,12.86A4.18,4.18,0,0,1,93,8.59a4.35,4.35,0,0,1,3.83,4.69,4.17,4.17,0,0,1-4.14,4.26A4.36,4.36,0,0,1,88.85,12.86Z"/><path class="cls-4" d="M102.57,173.31a69.61,69.61,0,0,1-9.74-14.2A103,103,0,0,0,102.57,173.31Z"/><path class="cls-4" d="M91.7,157.06l0,1.36c0,.1,0,.21,0,.31a111.14,111.14,0,0,1-13.73-57.94A108.27,108.27,0,0,1,95.62,44.52l-.05,1.67a107.44,107.44,0,0,0-16.83,54.65A110.32,110.32,0,0,0,91.7,157.06Z"/><path class="cls-4" d="M89,24.77a12.91,12.91,0,0,1-7.26-12.29C81.94,5.91,86.66.74,92.42.55L77.6,1C71.84,1.24,67.12,6.4,66.89,13a12.9,12.9,0,0,0,7.26,12.28c4.36,2.33,7,10.08,6.66,19.76a108.16,108.16,0,0,0-17.72,56.27,111.16,111.16,0,0,0,13.73,57.94h0c-.4,9.59-3.52,17-8,18.82a12.37,12.37,0,0,0-8.1,11.47c-.24,6.9,4.56,12.77,10.71,13.09.41,0,.81,0,1.19,0l14.82-.5c-.39,0-.78,0-1.19,0-6.15-.33-11-6.19-10.71-13.09a12.39,12.39,0,0,1,8.1-11.48c4.47-1.86,7.6-9.23,8-18.82,0-.1,0-.21,0-.31h-.18a111.12,111.12,0,0,1-13.56-57.63A108.2,108.2,0,0,1,95.52,44.68h.1v-.16C95.93,34.84,93.33,27.1,89,24.77Z"/><line class="cls-3" x1="76.82" y1="159.23" x2="91.64" y2="158.73"/><line class="cls-3" x1="80.81" y1="45.02" x2="96.4" y2="44.92"/><path class="cls-1" d="M313.07,33.49A12.37,12.37,0,0,0,321.16,22c.24-6.9-4.56-12.77-10.7-13.1-.38,0-.74,0-1.1,0h-.1l-14.82.5c-4.56.15-7.56,2.74-10.14,8.65a13.82,13.82,0,0,1-4.58,3.87A83.36,83.36,0,0,0,228.44,4l-2.37,0-1.3,0-14.6.49c-16,.53-26.33,3.4-39.39,11.69,2,2.22,10.42,2.42,10.45,2.42h-.13c-7.6.25-13.15-2.47-16.95-8.32C161.81,3.68,158.7.83,153.46.56c-.34,0-.68,0-1,0h.14L137.78,1C132,1.24,127.29,6.4,127.06,13a12.91,12.91,0,0,0,7.27,12.28c4.35,2.33,7,10.08,6.65,19.76a108.25,108.25,0,0,0-17.72,56.27A111.16,111.16,0,0,0,137,159.23h0c-.39,9.59-3.52,17-8,18.82a12.35,12.35,0,0,0-8.09,11.47c-.24,6.9,4.55,12.77,10.7,13.09.41,0,.81,0,1.2,0l14.81-.5h-.1c4.62-.12,7.65-2.7,10.25-8.66a16.32,16.32,0,0,1,10.88-6.54,20.4,20.4,0,0,0-6,2.27c6.21,5.8,28.77,17.29,47.48,18.28,2.35.12,4.69.14,7,.06l14.82-.49h0a82,82,0,0,0,39.71-11.93,17.85,17.85,0,0,1,6.31,6.06c2.35,6.68,5.46,9.52,10.7,9.8a8.26,8.26,0,0,0,.86,0l14.82-.5a8.23,8.23,0,0,1-.86,0c6.14.33,11.33-5,11.57-11.91a12.93,12.93,0,0,0-7.26-12.3c-4.34-2.32-6.94-10-6.66-19.65,0,0,0-.12,0-.25,0,.08.17-.09.16,0,10.5-15.75,16.82-34.86,17.56-56q.07-2.25.06-4.47v-.3A110.36,110.36,0,0,0,305.1,51.7C305.6,42.42,308.68,35.31,313.07,33.49ZM135.71,189c0-.34,0-.66.07-1,0,.33-.06.65-.07,1a13.76,13.76,0,0,0,.28,3.29A13.76,13.76,0,0,1,135.71,189Zm2.37-88.24c-.05,1.32-.07,2.64-.07,3.95,0-1.31,0-2.63.07-3.95s.11-2.63.2-3.94C138.19,98.16,138.13,99.47,138.08,100.79ZM151,165.46a42.85,42.85,0,0,0,.75-6.07h0A42.85,42.85,0,0,1,151,165.46Zm4.66-120.75,0,0h0Zm.11,0Zm26-26.12-.18.11-.4,0a83.53,83.53,0,0,1,17.63-9.31,83.51,83.51,0,0,0-17.25,9.16Zm94.1,173.79h0Z"/><path class="cls-2" d="M237.12,188.32l-.09.09C237.12,189.33,237.12,189.56,237.12,188.32Z"/><path class="cls-2" d="M303.47,94c-.6-1.69-1-7.66-1.73-8.27a9.37,9.37,0,0,0-2.61-1.09c-5.73,4.38-3.45,2.68-4.48,4-1.9,2.52-9.9,10.09-13,13.28s-12.34,5.62-15,6.5a76.83,76.83,0,0,1-8.43,2,7.33,7.33,0,0,1-1.06-.4c.11-.9.19-1.8.24-2.72,1.79-.31,4.18-.72,4.42-.81a53.89,53.89,0,0,0,29.65-30.12c1.73-5.41,3-6.41,4.07-9.83a9.93,9.93,0,0,0-2.22-6.08c-2.85-3.1-9.13-14.75-13-16.1l-3.31.41c-1.18,2.92-7.17,19.76-7.37,24.18s-3,10.43-4.41,12.82c-1.09,1.87-8.81,9.22-10.11,10.81h0a35.18,35.18,0,0,0-1.64-3.7c2.8-3,6.73-6.83,7.59-9.2,2-5.56,4.57-8.65,6.66-27.94-.11-5.68-.64-13-.63-13s-.71-7.79-3.43-9.26c-3.71-2-6.14-3.36-11.2-5.79-1.76-.31-7.27-2-8.18-1.62a5.21,5.21,0,0,0-2.73.64c-.73.56.17,4.92.1,6.18-.17,3.14,3.81,12.74,5,17s1.87,6.75,1.33,9.46c-.42,2.12-1.15,10.08-1.66,12.08-.21.83-2.35,5.93-3.59,9.48-.44-.29-.9-.57-1.36-.84C243,72,246.94,58,237,38.13c-2.92-4.88-7-10.05-7.61-11.06-.08-.15-2.59-5.57-6.28-7.61-6.75-.21.86,0-9.47,1.64-1.69.6-13,4.18-13.56,4.95a9.9,9.9,0,0,0-.32,3c4.38,5.73,4.65,6.54,6,7.58a115,115,0,0,1,9.63,8.16c3.25,3.12,6.35,6.86,7.23,9.48.68,2,4.78,14.67,5.11,16.7,0,.06.19.72.44,1.61-.6,0-1.2,0-1.79.08l-.26-.8c-1.05-3.58-7.06-20.84-27.62-31.24-5.25-2.2-9-4-9.08-4s-4-2-6.45-.06c-3.33,2.58-12.67,12.37-14.34,16.09a7.33,7.33,0,0,0-1.53,3.61,2.66,2.66,0,0,0,.07.75,3.38,3.38,0,0,0,2,2.17c2.81,1.43,16.17,3.15,20.56,3.72s9.51,3.42,11.77,5c1.76,1.25,8.74,8,10.21,9.46.07.07.32.39.57.74l-1,.83c-4-3.2-18.12-12.82-39.58-10.37-5.59,1-9.75,1.62-9.79,1.62s-4.43.57-5.43,3.5c-1.36,4-3.78,17.29-3.14,21.32,0,1.79-1.16,3-.65,3.84.13.22,1.39,2.09,1.57,2.26.67.63,1.86-.79,3.11-.93,3.13-.35,15.23-6.25,19.22-8.19s9.82-2.37,12.58-2.29c1.92.07,9.67,1.52,12.79,2.11-.35.85-.67,1.72-.95,2.61a24.52,24.52,0,0,0-2.78-1.08c-3.72-.31-16-2.59-33.08,12.85-3.93,4.11-9.5,10.29-9.53,10.32s-3.26,3-2.37,6c1.21,4,4.65,19.36,7.52,22.25a4.26,4.26,0,0,0,2.5,1.93c3.35-.9,3.13-2.12,3.37-2.09.91.12,2.8-5.18,3.74-6,2.34-2.11,6.68-11.59,8.8-15.48s10.64-8.32,12.94-9.86c1.43-1,5.07-2.65,7.37-3.82.1,1,.23,1.92.4,2.86a8.33,8.33,0,0,0-1.66.21c-3.39,1.57-15.09,12.32-22.32,34.2-1.39,5.52-2.3,12.64-2.32,12.67-.05.18-1.15,4.22,3.85,9.55,4.62,4.93,11.62,10.44,13.77,9.77,1.62.77,2.45,1.72,3.42,1.6a15,15,0,0,0,2-3c1-7.15-.41-9,0-10.23,1-3-.14-14.13-.22-18.55s4.75-12.71,6-15.18a65.64,65.64,0,0,1,3.84-6.3c.54.72,1.1,1.41,1.69,2.07l-1.22,2.17c-1.79,3.27-7.44,18.91-2.25,38.23a65.67,65.67,0,0,1,3.26,12.66c.06.17,2.91,6.75,6,7.14,4.19.53,16.53,2.07,20.34.63a5.44,5.44,0,0,0,3-1.43c-.15-1.56-.56-5.11-1.68-6.73-1.65-2.4-2.24-2.87-2.91-4.07-1.55-2.75-5.38-9.63-8.08-13.14s-2.62-10.32-3.1-13c-.36-2.13-.5-11.86-.53-13.92a.68.68,0,0,1,0-.12c.62.19,1.25.36,1.88.5.19,1.53.42,3.47.44,3.72a53.81,53.81,0,0,0,20.4,37c4.69,3.21,5.29,4.68,8.26,6.71a9.91,9.91,0,0,0,6.46-.39c3.78-1.85,14.9-9.55,17.29-12.85l-1.57-3c-2.46-2-12.92-7.82-17.11-9.27s-9.13-5.88-11-7.89c-1.48-1.58-6.32-11.07-7.48-12.78,0-.07-.64-1-1.3-2.1a26.35,26.35,0,0,0,2.85-1.19c.52,1,.92,2.45,1.06,2.66,2.12,3.07,7.09,15.23,29.88,18.68a137,137,0,0,1,13.88,2.15c.17,0,4.55-.71,6.28-3.28a56.59,56.59,0,0,0,6.58-13.59c.48-1.73,2.68-7.06,2.41-8a5.23,5.23,0,0,0-.38-2.78c-.48-.78-4.91-.31-6.15-.5-3.11-.48-13,2.55-17.4,3.38s-14.21-1.92-16.85-2.72c-2.07-.63-5.82-3.85-7.75-4.54l-.9-.35c.64-.85,1.25-1.73,1.81-2.65.85.61,2.39,1.7,2.68,1.81,3.5,1.28,14.37,7.16,35-3.2,4.88-2.91,10-6,10-6s4.17-1.45,4.41-8.75C304.6,101.49,305.14,104.35,303.47,94Z"/><path class="cls-3" d="M306,21.22A4.17,4.17,0,0,1,310.18,17,4.34,4.34,0,0,1,314,21.64a4.15,4.15,0,0,1-4.14,4.26A4.34,4.34,0,0,1,306,21.22Z"/><path class="cls-3" d="M304.54,21.14c.12-3.32,2.61-5.9,5.57-5.74s5.27,3,5.15,6.31-2.62,5.89-5.57,5.73S304.42,24.46,304.54,21.14Z"/><path class="cls-4" d="M306,33.08a1.41,1.41,0,0,1,1,.79,1.67,1.67,0,0,1,.11.65,4,4,0,0,1-.48,1.56c-1.44,2.8-3.78,9.88-4.58,12.06"/><path class="cls-3" d="M319.48,21.93c.21-5.93-3.92-11-9.21-11.25s-9.74,4.31-9.95,10.24,3.92,11,9.2,11.25,9.75-4.32,10-10.24"/><path class="cls-4" d="M284.3,18.06c2.58-5.91,5.58-8.5,10.14-8.65l14.82-.5"/><path class="cls-4" d="M297.72,23.89a1.8,1.8,0,0,1,1,.1,1.72,1.72,0,0,1,.78,1.4c.61,4.49,6.21,7.55,6.49,7.69"/><path class="cls-4" d="M297.9,23.82s-7.17,2.61-8.73,2.7"/><line class="cls-4" x1="287.23" y1="29.28" x2="286.82" y2="29.34"/><path class="cls-4" d="M289.52,26.47c-1.41.3-2.69.54-2.74,2.08"/><path class="cls-4" d="M300.64,186c-.24.1-6,2.57-6.95,7a1.65,1.65,0,0,1-.88,1.31,1.34,1.34,0,0,1-.49.1"/><path class="cls-4" d="M305,54l.05-1.41a109.51,109.51,0,0,1,13.75,57.7c-.74,21.17-7.06,40.28-17.56,56,0-.08-.16.09-.16,0l.05-1.4A107.34,107.34,0,0,0,318,110.28,110.17,110.17,0,0,0,305,54Z"/><path class="cls-4" d="M281.7,187.76l0,.13,0,.18c0,.15,7.55,4.88,7.73,5s2.17,1.72,3.44,1.19a1.65,1.65,0,0,0,.88-1.31c.92-4.4,6.71-6.87,6.95-7a1.47,1.47,0,0,0,1.06-.71,1.49,1.49,0,0,0,.15-.62,4,4,0,0,0-.38-1.61,73.62,73.62,0,0,1-2.74-8.29l-.21-.74a4.26,4.26,0,0,0-1.69-2.31S281.7,187.76,281.7,187.76Z"/><path class="cls-4" d="M277.26,191.41h-.19c1.46-1.05,2.83-2.1,4.13-3.14,0,.06,0,.12,0,.18C279.9,189.47,278.6,190.46,277.26,191.41Z"/><path class="cls-4" d="M301.13,165s-.05,1.58-.06,1.66c-.28,9.63,2.32,17.33,6.66,19.65a12.93,12.93,0,0,1,7.26,12.3c-.24,6.89-5.43,12.24-11.57,11.91-5.25-.27-8.35-3.12-10.7-9.8-3.78-5.82-9.28-8.55-16.8-8.33h-.28l-1.43,0,1.19-.92a113.62,113.62,0,0,0,12.38-10.11c7.71-7.29,11.23-13,12.22-14.71C300.19,166.32,301.13,165,301.13,165Z"/><path class="cls-3" d="M313.32,198.48c.2-5.94-3.92-11-9.21-11.26s-9.75,4.31-9.95,10.25,3.92,11,9.2,11.25,9.75-4.32,10-10.24"/><path class="cls-3" d="M307.43,198.17A3.89,3.89,0,0,0,304,194a3.73,3.73,0,0,0-3.71,3.82,3.9,3.9,0,0,0,3.43,4.2,3.74,3.74,0,0,0,3.72-3.82"/><path class="cls-4" d="M304,52.19a101.18,101.18,0,0,0-11.09-15.87C300,44.32,303.1,50.32,304,52.19Z"/><path class="cls-3" d="M308.69,198.24c.11-3.07-2-5.69-4.76-5.83s-5,2.24-5.15,5.3,2,5.67,4.76,5.82,5-2.24,5.15-5.29"/><path class="cls-4" d="M299.11,17.57A16.5,16.5,0,0,1,286,24.33"/><path class="cls-4" d="M279.48,22.46a17.8,17.8,0,0,0,4.82-4.4"/><path class="cls-4" d="M286.78,28.55a1,1,0,0,0,0,.17q-1.83-1.74-3.89-3.56l.19,0Q285,26.82,286.78,28.55Z"/><path class="cls-4" d="M281.51,24.06l.29,0"/><path class="cls-4" d="M299.11,17.57c2.81-6.42,6.1-8.92,11.35-8.65,6.14.33,10.94,6.2,10.7,13.1a12.37,12.37,0,0,1-8.09,11.47c-4.49,1.87-7.62,9.27-8,18.88a2.26,2.26,0,0,1,0,.26L305,54l.32.58-1.07-1.82a6.25,6.25,0,0,0-.27-.61c-.88-1.87-4-7.87-11.09-15.87A119.91,119.91,0,0,0,281.21,24.9L280,23.83l1.53.23.29,0C289.28,25.1,294.94,23,299.11,17.57Z"/><path class="cls-4" d="M303.42,210.48c-5.25-.27-8.35-3.12-10.7-9.8-3.78-5.82-9.28-8.55-16.8-8.33a26.2,26.2,0,0,0-4.83,2.49,17.67,17.67,0,0,1,6.81,6.34c2.35,6.68,5.46,9.52,10.7,9.8a8.26,8.26,0,0,0,.86,0l14.82-.5A8.23,8.23,0,0,1,303.42,210.48Z"/><path class="cls-4" d="M287.78,181.38A96.23,96.23,0,0,0,300,166.67C299,168.41,295.49,174.09,287.78,181.38Z"/><path class="cls-5" d="M255.45,91.08l.2-.21c1.3-1.32,8.25-8.4,9.56-10.23,1.66-2.33,4.75-7.58,5.75-12.49s4-19.49,5.6-22.44c.62-1.18,1.32-1.81,2.13-1.93,1-.15,2.17.53,3.71,2.18,3.09,2.34,10.69,14,12.6,18a5.63,5.63,0,0,1,.49,2.61,12.23,12.23,0,0,1-1.26,4.58s-2,4-4.57,9.61c-11.82,22.18-28.32,26.33-31,26.86l-.36.06-.06-.45.44-.08c2.85-.6,19-4.84,30.58-26.62C291.82,75,293.85,71,293.88,71a11.94,11.94,0,0,0,1.18-4.38,5.2,5.2,0,0,0-.42-2.37c-1.89-4-9.43-15.54-12.51-17.89-1.44-1.54-2.5-2.19-3.38-2.07-.68.1-1.28.65-1.84,1.71-1.55,2.89-4.55,17.5-5.54,22.31a37.9,37.9,0,0,1-5.84,12.67c-1.37,1.93-8.63,9.3-9.69,10.38l-.12.12Z"/><path class="cls-5" d="M240.62,24.93a3.37,3.37,0,0,1,.9-2.49c.8-.74,2.07-.85,4.15-.35,3.71.15,15.64,5.53,19.16,7.83,2.58,1.69,2.74,6.39,2.75,6.59,0,0,.18,4.64.68,10.91,0,1.52,0,3,0,4.43-.83,23.71-12.14,35.68-13.51,37l-.13.13-.27-.35.19-.19C256.08,86.89,267,75,267.81,51.83c.05-1.42.07-2.88,0-4.39-.5-6.26-.68-10.87-.69-10.92s-.15-4.64-2.53-6.2c-3.5-2.28-15.31-7.62-19-7.77-2-.46-3.15-.38-3.84.25a2.94,2.94,0,0,0-.74,2.12v.43c.06,3.39,4.44,17.62,5.88,22.29a38.87,38.87,0,0,1,1.23,11.85c0,.93-.09,1.76-.15,2.42-.27,2.62-3.2,14.3-3.32,14.8l-.39-.13c0-.12,3-12.15,3.29-14.72.07-.67.13-1.51.16-2.46a37.75,37.75,0,0,0-1.22-11.6c-1.44-4.7-5.83-19-5.9-22.44Z"/><path class="cls-3" d="M203.73,104.26c.53-15.25,12-27.07,25.6-26.36s24.21,13.71,23.68,29-12,27.07-25.61,26.35S203.19,119.51,203.73,104.26Zm48.92,2.58c.52-15-9.94-27.82-23.33-28.53s-24.7,10.94-25.23,26,9.94,27.82,23.32,28.53,24.71-10.94,25.24-26"/><path class="cls-5" d="M199.14,28a3.1,3.1,0,0,1,.09-.61c.31-1.11,1.33-2,3.29-2.83,3.18-2.15,15.73-4.92,19.79-5.13,3-.16,5.39,3.7,5.49,3.86s2.41,3.82,5.87,8.78c8.72,14.42,10,27.5,9.77,35.46a38,38,0,0,1-1,8l-.24-.09-.15,0a38.25,38.25,0,0,0,1-7.87c.27-7.87-1-20.84-9.69-35.14-3.46-5-5.86-8.75-5.87-8.79s-2.39-3.81-5.14-3.67c-4,.21-16.46,2.94-19.62,5.08-1.85.8-2.82,1.61-3.08,2.56a2,2,0,0,0-.08.49,4,4,0,0,0,.69,2.12c1.7,2.8,12.26,12.13,15.73,15.19,3.62,3.19,6.62,8.64,7.83,11.36,1,2.28,4.18,13.68,4.52,14.88l-.37.23a2,2,0,0,0-.06-.22c-.48-1.69-3.51-12.53-4.46-14.68-1.19-2.68-4.16-8.07-7.72-11.2s-14.08-12.43-15.81-15.3A4.43,4.43,0,0,1,199.14,28Z"/><path class="cls-5" d="M239.39,137l.36-.23a3,3,0,0,0,.21.36c1.55,2.55,11.64,17.6,34.31,20.86,5.58.38,9.67.88,9.72.88s4.1.52,5.8-1.89c2.49-3.54,8.78-15.87,9.41-20a10.39,10.39,0,0,0,.59-2.8,2.82,2.82,0,0,0-.29-1.5,2.67,2.67,0,0,0-2.15-1.21c-3-.43-16.13,2.29-20.45,3.19-4.5.92-10.11-.17-12.72-1-2.06-.63-10.83-5-12.67-5.95l-.33-.16.17-.42.44.22c2,1,10.53,5.26,12.5,5.87,2.57.77,8.11,1.84,12.53.93s17.53-3.63,20.58-3.19a3.06,3.06,0,0,1,2.45,1.43,3.4,3.4,0,0,1,.36,1.76,10.91,10.91,0,0,1-.61,2.9c-.63,4.11-7,16.55-9.48,20.13-1.85,2.61-6,2.09-6.18,2.06s-4.13-.49-9.72-.87c-23.07-3.33-33.22-18.78-34.65-21.15C239.45,137.1,239.4,137,239.39,137Z"/><path class="cls-4" d="M228.34,71.64a5.51,5.51,0,0,1,1.29,0,27.89,27.89,0,0,1,12.44,3.72,32.84,32.84,0,0,1,12.44,13.17l-.19.19.27.35a6.86,6.86,0,0,1,1.06,1.85l-.2.21.27.35a34.9,34.9,0,0,1,3,15.73l-.44.1.06.45.36-.06q-.06,1.17-.18,2.34l-.29,0,.07.47a33.72,33.72,0,0,1-5.15,15l-.39-.19-.18.42.32.15c-.35.54-.72,1.07-1.1,1.59l-.44-.22-.17.42.33.16A30.57,30.57,0,0,1,240,137.11a3,3,0,0,1-.21-.36l-.36.23s.06.12.18.31c-.65.28-1.3.53-2,.76l-.15-.25-.35.24a23.65,23.65,0,0,1-9.85,1.49,27.11,27.11,0,0,1-4.44-.6c0-.43,0-.67,0-.69l-.41,0s0,.23,0,.61c-.66-.15-1.31-.33-1.94-.53,0-.44,0-.71,0-.72H220c0,.06,0,.27,0,.59a30.16,30.16,0,0,1-12.62-8.32c.2-.41.33-.62.34-.64l-.34-.25s-.12.2-.3.55c-.5-.55-1-1.13-1.44-1.73.16-.28.25-.44.25-.45l-.34-.26s-.09.16-.19.34a36,36,0,0,1-6.51-14.6l.41-.22-.16-.43-.34.18c-.13-.68-.24-1.38-.33-2.07l.26-.14-.17-.42a24.2,24.2,0,0,1-.39-5.75,37.13,37.13,0,0,1,1.71-10l.2,0,.08-.45a9.13,9.13,0,0,1,.65-2.18L201,91a33.47,33.47,0,0,1,9-12.55,3.34,3.34,0,0,1,.36.36l.29-.33-.32-.32c.46-.38.93-.75,1.4-1.1l.28.27.26-.35-.18-.18a27.77,27.77,0,0,1,13.65-5.17c.14.46.2.72.21.74l.39-.11s-.06-.26-.18-.67c.59,0,1.18-.07,1.78-.07a2,2,0,0,1,.06.22Zm29.54,35.47c.63-18.21-12-33.73-28.28-34.58S199.65,85.79,199,104s12.05,33.73,28.28,34.58,30-13.26,30.59-31.48"/><path class="cls-5" d="M173.22,160.67a13.83,13.83,0,0,1,.28-2.32s1-4.52,2.08-10.66c6-25,20.77-34,23.23-35.35l.35-.18.15.43-.41.22c-2.63,1.46-17.05,10.48-22.92,35-1.08,6.15-2.06,10.63-2.07,10.67a13.38,13.38,0,0,0-.27,2.24,6.76,6.76,0,0,0,1.16,4.5c2.79,3.29,12.81,12.13,16.34,13.44,1.75,1.06,2.94,1.36,3.75,1a3,3,0,0,0,1.35-2.21,21.16,21.16,0,0,0,.33-3.52c.2-5.74-.23-15.81-.4-19.68,0-.59,0-1.2,0-1.81a42.59,42.59,0,0,1,2.54-12.2c.82-2.19,5.65-10.91,6.7-12.78.1-.18.16-.3.19-.34l.34.26s-.09.17-.25.45c-1.15,2.06-5.82,10.51-6.61,12.6a42.73,42.73,0,0,0-2.5,12.08c0,.59,0,1.16,0,1.72.17,3.88.6,13.94.4,19.73a22.3,22.3,0,0,1-.33,3.62,3.49,3.49,0,0,1-1.6,2.51c-1,.46-2.21.16-4.07-1-3.54-1.32-13.67-10.24-16.47-13.55A7.21,7.21,0,0,1,173.22,160.67Z"/><path class="cls-4" d="M231.59,15.5c-44.24-2.33-81.65,36.17-83.39,85.83s32.86,92,77.1,94.29,81.65-36.17,83.38-85.83S275.83,17.84,231.59,15.5Zm76.35,94.25c-1.72,49.2-38.78,87.35-82.61,85s-78.11-44.23-76.39-93.42,38.79-87.34,82.62-85,78.09,44.22,76.38,93.41"/><path class="cls-5" d="M252.57,125.68l.18-.42.39.19c2.63,1.22,18.31,7.62,38.71-3.48,4.84-3.1,8.5-5.2,8.53-5.21s3.68-2.09,3.92-5.17c0-.32.05-.69.06-1.1.19-5.37-.56-17.91-1.91-21.47-.47-2.17-1-3.37-1.85-3.8a2.46,2.46,0,0,0-2.38.3c-2.71,1.47-12.33,11.81-15.5,15.22s-8.5,6.06-11.06,7c-2.1.77-11.78,2.48-13.21,2.73l-.16,0-.07-.47.29,0c1.76-.31,11-2,13-2.7,2.53-.92,7.67-3.41,10.91-6.89S295.27,86.6,298,85.1a2.8,2.8,0,0,1,2.73-.29c1,.5,1.58,1.75,2.07,4.07,1.37,3.59,2.12,16.3,1.93,21.69,0,.4,0,.76,0,1.08-.27,3.33-4,5.43-4.15,5.52s-3.68,2.11-8.52,5.21c-20.79,11.31-36.74,4.6-39.16,3.45Z"/><path class="cls-5" d="M222.4,138.22l.41,0s0,.26,0,.69c.14,3.73,1.68,21.95,18.78,38.14,4.51,3.73,7.72,6.65,7.75,6.68s3.21,2.95,5.82,2c3.81-1.43,15.1-7.85,17.62-10.88,1.57-1.32,2.3-2.38,2.34-3.38a3.22,3.22,0,0,0-1.23-2.35c-2.31-2.2-14.7-8-18.77-9.86-4.24-2-8.45-6.32-10.27-8.57-1.49-1.86-6.88-11.14-7.66-12.49l-.09-.15.35-.24.15.25c.94,1.63,6.14,10.56,7.56,12.32,1.79,2.23,5.94,6.51,10.12,8.46s16.52,7.68,18.88,9.93a3.63,3.63,0,0,1,1.37,2.69c0,1.19-.81,2.34-2.48,3.73-2.52,3-13.91,9.54-17.76,11-2.82,1.05-6.07-1.94-6.2-2.06s-3.24-2.94-7.76-6.68c-17.38-16.46-18.82-35-18.93-38.6C222.39,138.45,222.4,138.24,222.4,138.22Z"/><path class="cls-5" d="M202.12,151.08c.41-11.8,3.95-19.5,5-21.57.18-.35.29-.53.3-.55l.34.25s-.14.23-.34.64c-1.1,2.16-4.5,9.73-4.9,21.24a70.32,70.32,0,0,0,2.87,22.07c2.08,5.84,3.43,10.22,3.45,10.27s1.33,4.39,4,5.12c3.92,1.06,16.57,2.38,20.15,1.33,2-.19,3.11-.65,3.6-1.48a2.24,2.24,0,0,0,.29-1.1,5.22,5.22,0,0,0-.23-1.6c-.93-3.21-8.76-15.47-11.33-19.5-2.68-4.2-4.2-10.36-4.68-13.35-.37-2.29-.57-12.15-.62-14.68,0-.32,0-.53,0-.59h.41s0,.28,0,.72c.05,2.72.25,12.28.6,14.48.47,2.94,2,9,4.61,13.15s10.45,16.34,11.38,19.64a5.66,5.66,0,0,1,.27,1.75,2.76,2.76,0,0,1-.37,1.34c-.57,1-1.76,1.48-3.87,1.68-3.59,1-16.37-.27-20.32-1.34-2.9-.79-4.26-5.24-4.31-5.44,0,0-1.36-4.4-3.45-10.24A71.17,71.17,0,0,1,202.12,151.08Z"/><path class="cls-4" d="M210.17,4.58,225,4.08a81.57,81.57,0,0,0-43.74,14.61s-8.47-.19-10.46-2.42C183.84,8,194.18,5.11,210.17,4.58Z"/><path class="cls-3" d="M147.78,12.79c.11-3.31,2.61-5.89,5.56-5.74s5.27,3,5.16,6.31-2.62,5.89-5.58,5.73S147.66,16.11,147.78,12.79Z"/><path class="cls-3" d="M143.71,12.58c.2-5.75,4.53-10.23,9.66-9.95s9.15,5.18,8.95,10.94-4.55,10.21-9.68,9.94S143.51,18.34,143.71,12.58Z"/><path class="cls-4" d="M141.88,12.48c.24-6.9,5.43-12.25,11.58-11.92,5.24.27,8.35,3.12,10.69,9.81,3.8,5.85,9.35,8.57,16.95,8.32h.14l1.54-.06-.63.45-.67.47A116.91,116.91,0,0,0,172.06,27c-11.53,10.08-15.44,17.87-15.49,18l-1.17,1.8-.51-.82.9-1.22s0-.11,0-.16c.31-9.68-2.3-17.42-6.66-19.75A12.93,12.93,0,0,1,141.88,12.48Z"/><path class="cls-4" d="M281.51,24.06l-1.43-.21A83.58,83.58,0,0,0,232,5.09a81.09,81.09,0,0,0-49.8,14l.63-.45-1.16-.09A80.12,80.12,0,0,1,232,4.15a84.62,84.62,0,0,1,49.81,20Z"/><path class="cls-4" d="M231.91,207.05l-14.82.49c-2.31.08-4.65.06-7-.06-18.71-1-41.27-12.48-47.48-18.28,7-3.91,12.37-2.26,12.37-2.26a84.7,84.7,0,0,0,49.92,20C227.26,207.1,229.59,207.13,231.91,207.05Z"/><path class="cls-4" d="M275.92,192.35a82,82,0,0,1-51,14.63,84.7,84.7,0,0,1-49.92-20l.38.05,1.32.19A83.66,83.66,0,0,0,224.94,206a81.12,81.12,0,0,0,49.27-13.63l1.43,0Z"/><path class="cls-5" d="M167.09,56a7.39,7.39,0,0,1,1.53-3.62c1.67-3.71,11-13.5,14.34-16.08,2.44-1.89,6.29,0,6.45.06s3.83,1.83,9.08,4c20.56,10.4,26.57,27.66,27.62,31.24.12.41.18.64.18.67l-.39.11s-.07-.28-.21-.74c-1.11-3.73-7.14-20.62-27.35-30.85-5.25-2.2-9.05-4-9.09-4s-3.8-1.85-6.06-.11c-3.3,2.56-12.55,12.25-14.22,16A7,7,0,0,0,167.51,56a2,2,0,0,0,.06.61,2.9,2.9,0,0,0,1.73,1.86c2.76,1.4,16.07,3.12,20.44,3.68,4.55.59,9.65,3.47,11.94,5.08,1.86,1.3,9.09,8.35,10.36,9.59l.18.18-.26.35-.28-.27c-1.47-1.43-8.45-8.22-10.21-9.46-2.26-1.58-7.3-4.42-11.77-5s-17.75-2.3-20.56-3.72a3.38,3.38,0,0,1-2-2.17A2.66,2.66,0,0,1,167.09,56Z"/><path class="cls-4" d="M170.09,182.56v-.24q1.83,1.74,3.9,3.56l-.3,0C172.47,184.79,171.27,183.7,170.09,182.56Z"/><path class="cls-4" d="M155.6,164.6a1,1,0,0,0-.45,0c-.42.08-1,.42-1.3,1.65l-.27.74a68.28,68.28,0,0,1-3.31,8,3.89,3.89,0,0,0-.49,1.56,1.62,1.62,0,0,0,.11.64,1.39,1.39,0,0,0,.94.79c.3.14,5.89,3.22,6.5,7.69a1.69,1.69,0,0,0,.78,1.4c1.24.67,3.47-.79,3.49-.8.21-.1,4.45-2.1,6.05-2.19,1.35-.28,2-.42,2-1.55,0-.1,0-.22,0-.35a2.46,2.46,0,0,0,0-.26c0-.05,0-.09,0-.14Z"/><path class="cls-3" d="M150.43,189.8a3.91,3.91,0,0,0-3.44-4.2,3.74,3.74,0,0,0-3.71,3.82,3.89,3.89,0,0,0,3.43,4.2,3.73,3.73,0,0,0,3.72-3.82"/><path class="cls-3" d="M141.61,189.34c.12-3.32,2.61-5.89,5.57-5.73s5.27,3,5.15,6.29-2.62,5.9-5.57,5.74S141.49,192.66,141.61,189.34Z"/><path class="cls-3" d="M156.55,190.12c.21-5.92-3.92-11-9.21-11.25s-9.74,4.32-10,10.24,3.92,11,9.2,11.26,9.76-4.32,10-10.25"/><path class="cls-4" d="M151.72,157l.1-.05.79,1.28s.13.32.4.86a68.94,68.94,0,0,0,9.73,14.2,118.63,118.63,0,0,0,12.92,12.84l1.23,1.06-.21,0-1.32-.19-.38-.05c-7.43-1-13.08,1.17-17.22,6.53-2.8,6.42-6.1,8.92-11.34,8.65-6.15-.33-10.95-6.19-10.71-13.09a12.39,12.39,0,0,1,8.1-11.48c4.48-1.86,7.6-9.23,8-18.82,0-.1,0-.21,0-.31Z"/><path class="cls-4" d="M175.67,23.37a1.1,1.1,0,0,1-.4-.83c0-1.13-.6-1.33-2-1.76-1.56-.26-5.65-2.69-5.82-2.79s-2.17-1.72-3.45-1.18a1.61,1.61,0,0,0-.87,1.31c-.92,4.4-6.71,6.86-7,7a1.48,1.48,0,0,0-1.05.71,1.39,1.39,0,0,0-.14.63,3.75,3.75,0,0,0,.37,1.6,69.77,69.77,0,0,1,2.74,8.29l.21.74a3.17,3.17,0,0,0,1.64,2.3"/><path class="cls-5" d="M152.52,94.79c.18-5.13,3-17.23,4.51-21.08,1.17-3.08,5.3-3.78,5.47-3.81s4.1-.71,9.57-2c22.72-3.47,36,8.19,38.21,10.28l.32.32-.29.33a3.34,3.34,0,0,0-.36-.36c-2.3-2.2-15.46-13.53-37.81-10.11-5.47,1.26-9.53,2-9.57,2s-4.08.7-5.16,3.52c-1.45,3.83-4.29,15.8-4.47,20.91A10.66,10.66,0,0,0,153,96c0,.27,0,.52-.05.76-.06,1.77.18,2.87.75,3.48a2.52,2.52,0,0,0,2.35.54c3-.45,15-6.91,19-9,4.13-2.22,9.79-2.8,12.48-2.79,2.35,0,13.06,1.95,13.51,2l-.06.46c-1.15-.21-11.25-2-13.44-2-2.66,0-8.25.57-12.3,2.75s-16,8.63-19.09,9.09a2.9,2.9,0,0,1-2.7-.67c-.67-.72-.95-1.92-.88-3.84,0-.24,0-.49,0-.75A10.42,10.42,0,0,1,152.52,94.79Z"/><path class="cls-5" d="M153.09,121.33c.1-2.92,2.65-5.49,2.78-5.6s3.06-3.12,7-7.53c18-17.52,35.42-15,37.15-14.68l.06.48-.2,0c-2.06-.34-19.12-2.58-36.73,14.58-3.95,4.41-7,7.5-7,7.53s-2.54,2.54-2.63,5.3a3.9,3.9,0,0,0,.05.83c.69,4.46,4.69,18,7,21.31,1,2,1.79,3,2.66,3.14a2.54,2.54,0,0,0,2.22-1c2.28-2.21,9.17-15,11.44-19.23a34.24,34.24,0,0,1,9-10c1.84-1.35,11.14-6,12.51-6.67l.15-.07.17.42-.26.13c-1.65.83-10.59,5.29-12.35,6.58a33.87,33.87,0,0,0-8.92,9.85c-2.27,4.22-9.19,17.09-11.51,19.33a2.9,2.9,0,0,1-2.57,1.09c-1-.22-1.93-1.25-2.93-3.35-2.31-3.3-6.35-17-7.06-21.49A4.94,4.94,0,0,1,153.09,121.33Z"/><path class="cls-3" d="M149,12.86a4.17,4.17,0,0,1,4.15-4.27A4.35,4.35,0,0,1,157,13.28a4.16,4.16,0,0,1-4.14,4.26A4.34,4.34,0,0,1,149,12.86Z"/><path class="cls-4" d="M162.74,173.31a68.94,68.94,0,0,1-9.73-14.2A102,102,0,0,0,162.74,173.31Z"/><path class="cls-4" d="M151.87,157.06l-.05,1.36c0,.1,0,.21,0,.31a111.14,111.14,0,0,1-13.73-57.94A108.19,108.19,0,0,1,155.8,44.52l-.06,1.67a107.44,107.44,0,0,0-16.83,54.65A110.32,110.32,0,0,0,151.87,157.06Z"/><path class="cls-4" d="M149.14,24.77a12.93,12.93,0,0,1-7.26-12.29c.23-6.57,5-11.74,10.71-11.93L137.78,1C132,1.24,127.29,6.4,127.06,13a12.91,12.91,0,0,0,7.27,12.28c4.35,2.33,7,10.08,6.65,19.76a108.25,108.25,0,0,0-17.72,56.27A111.16,111.16,0,0,0,137,159.23h0c-.39,9.59-3.52,17-8,18.82a12.35,12.35,0,0,0-8.09,11.47c-.24,6.9,4.55,12.77,10.7,13.09.41,0,.81,0,1.2,0l14.81-.5c-.38,0-.78,0-1.19,0-6.15-.33-10.95-6.19-10.71-13.09a12.39,12.39,0,0,1,8.1-11.48c4.48-1.86,7.6-9.23,8-18.82,0-.1,0-.21,0-.31h-.18a111.22,111.22,0,0,1-13.56-57.63A108.21,108.21,0,0,1,155.7,44.68h.09s0-.11,0-.16C156.11,34.84,153.5,27.1,149.14,24.77Z"/><line class="cls-3" x1="136.99" y1="159.23" x2="151.81" y2="158.73"/><line class="cls-3" x1="140.98" y1="45.02" x2="156.57" y2="44.92"/></g></g></svg>