<svg xmlns="http://www.w3.org/2000/svg" viewBox="0 0 799.97 577.8"><title>Trio ZX120 4p</title><g id="Camada_2" data-name="Camada 2"><g id="Camada_5" data-name="Camada 5"><path d="M90.91,19.33S137.5,39,155,41.86a55.65,55.65,0,0,0,25.85,0c8.21-1.85,13.42-3.79,25.59-2.74,3.53-1,76.33-22.85,145,12.45,3.89-1.06,9.71-2.65,23.12.79,4,1.23,14.3,5.73,25.32,6.26,2.12-.53,19.24-6.26,29.92-4,4.76-1.33,37.76-8.92,39.35-9,35.12-3.09,33.35,31.67,33.35,31.67s1,9.45-4.88,29c-18.12,58.12-7.65,87.27-7.65,87.27s6.27,10.5-.82,30.14c1.37,5.26,9.88,40.47,10.35,73.18s-11.29,73.88-11.29,73.88,8.7,8.88,2.65,32.18c-7.71,27.88-2.83,55.59,11.64,106.65,0,5.05,1,21.29-6.79,31s-22.4,10.26-29,8.91l-29.37-6a72.33,72.33,0,0,1-22.23.59c-15-2.24-31.59-8.62-32.82-9.06-10.06,5.14-25.42,4.23-25.42,4.23s-36,14.94-76.05,16.88-80.61-9.3-84.05-10.67-8.48-5.15-23.54-6.68-30,2.35-30,2.35L94.27,558a70.63,70.63,0,0,1-22,3.76,32.43,32.43,0,0,1-19.89-7.06l-21.64,1.41S1.91,558.74,2,523.31c1.91-25,11.8-50.45,11.8-50.45s6.23-21.06,6-36.94S15.68,398,15.68,398a76.24,76.24,0,0,1-1.36-10.74,55.64,55.64,0,0,1,1.24-13.18S2.74,328.39,2.5,291.68,17.56,206,17.56,206s-2.75-4.61-2.24-13.53a44.7,44.7,0,0,1,4.12-16.12S14.68,122.68,13.09,107,5.53,65.89,4.85,60.62,3.74,45,10,36.39C20.41,21,49.62,28.45,49.62,28.45S58,18.57,67.8,16.51,90.91,19.33,90.91,19.33Z" style="fill:#fff;stroke:#000;stroke-miterlimit:10;stroke-width:4px"/><path d="M230.27,207.45S265.56,167,383.21,162.74c-5.18-6.59-9.15-12-9.15-12l.31-2.65L366.85,139l-3.7-1.89-10.59-11.35.06-1.65-9.35-8.52-2.71-1.12L327.6,104S241.46,45.31,176.45,83.32" style="fill:none;stroke:#000;stroke-miterlimit:10;stroke-width:4px"/><path d="M275.77,202.86s58.32-29.35,117.61-18.77L398,192l3,1.83,5.47,12.76-.88,1.71,4.59,15.24,2.41,1.35,3.71,14.17-1,1.71,2.53,14.29,2.76,38.48,1.88,2.11.71,10.83-1.88,1.76-1.06,16.35,1.41,1.65-1.88,14.59L417.44,342l-2,6.94L396.3,409.6l-5.68,9.14.94,3.18L386.74,431,357.32,420a33.46,33.46,0,0,1-1.17-13.18c.82-7.29-48.71-74.71-48.71-74.71l-10.59-76.94Z" style="fill:none;stroke:#000;stroke-miterlimit:10;stroke-width:4px"/><path d="M136.27,116.74s-.62,52.12,12.58,100.59,13.27,46.44,13.27,46.44,6.47,13.41,12.85-1.85" style="fill:none;stroke:#000;stroke-miterlimit:10;stroke-width:4px"/><path d="M111.94,147.54S124,240.47,138.66,282s22,119.37,22,119.37l-43.53,12.42-16.73,1.73" style="fill:none;stroke:#000;stroke-miterlimit:10;stroke-width:4px"/><path d="M289.8,508.39s-37,15.06-66.36,10.59-72.34-38.5-72.34-38.5" style="fill:none;stroke:#000;stroke-miterlimit:10;stroke-width:4px"/><path d="M86.15,382.86l32.59,37.88s4,4.24,8.35,4.35c-.24,3.89-1.41,16.24-3.18,20.71-.23,2.47-.7,2.94-.23,4.12s18.94,20.82,18.94,20.82l65.29,27.77s5.06,2.23,9.18,0c2,2.94,7.41,14,20.12,14.23s47.76,1.3,78.7-4.35c3.53-.94,11.06-4.94,7.65-12-3.06-5.53-12-18.47-12-18.47s12.71,14.94,27.88,10,43.3-15.41,69.53-36.59c2.59-2.71,6.24-10.47.83-13.65s-14.71-8.11-52.24-19.88a72.31,72.31,0,0,1-20-12.35c7.18,1.88,12.94,4,32.94,3.76,5.77-.35,13.3-1.64,27.06.59,2.94-.23,11.65,0,19.29-6.47s31.77-27.88,42.83-56.24c1.29-4,2.59-13.17-6-11.64s-20.36,3.53-40.83,11.29S377.09,355.92,344,341c.59-1.41,1.15-2.53,1.15-2.53s28.35.06,56.32-22.44c7.32-6.27,10.94-9.53,23.47-16.24,6.35-3.53,12.88-7.41,17.21-16.41s13.85-28,13-53.21c-.18-4.23-2.21-14.29-9-9.61s-16.85,17.55-25,28.67C418.6,252.72,406.39,273,390,282.57s-34.23,11.64-34.23,11.64,1.41-13.06-2.56-25c0,0,19.14-16.15,28.32-36.38,3.88-8.24,8.71-21.77,12-30.94s9.88-19.65,9.88-19.65,5.41-7.41,4.94-15.65.36-22.94-12.23-40.82c-2.12-2.47-2.85-2.68-2.85-2.68s-3-1.32-5,.62-2.65,3.4-3.45,7a242.64,242.64,0,0,0-5.91,28.1c-1.93,12.6-2.51,30.22-7.23,43.41-8.85,24.69-27.53,42.88-27.53,42.88s-20.91-24.7-21.8-25.23c.53-1.15,3.27-3.53,3.62-10.41.38-1.7,6.36-18.49,6.88-37.47.42-15-3.45-34.64-4.7-48.59-1.29-14.29,0-25-.72-28.12-.91-3.44-4.49-9.11-9.75-12.88-7-5-16.09-7.71-18.24-7.71-3.76,0-10.59,1.65-6.82,12.71,0,0,3.88,20.23,16.23,48.82a104.81,104.81,0,0,1,7.53,32.82c.81,13.68-2.21,30.24-5.76,41.83C305,209,291.21,204.57,279.38,204c-.88-5.3-2.41-48.36-32-87.65-7.7-8.71-22.06-29.18-23.7-35.06a23.59,23.59,0,0,0-1.27-2.94s-.64-2.47-4.17-.88-27.5,14.76-27.5,14.76-7.42,4.35-2.12,11.06,16.7,18.71,33.76,29.88c3.65,2.47,32.36,16.36,45.3,70.71-8,.7-32.35,2.59-32.35,2.59s-34.24-56.71-82.48-68c-12-4.47-23.53-9.18-25.88-11.3-1.88,2.36-8,9.41-8,9.41s-1.17,8.95-9.88,37.42c-.94,4.47-2.59,11.76,4,13.88s17.41,3.76,28.47,4.47,51.76-4.47,75.06,20.47c-5.65,3.53-10.59,4-21.88,16.47-5.18-2.12-44-22.82-80.94-16.24-14.12,4-33.65,11.3-36.48,11.3C76.15,228.15,71,259.68,71,259.68a198.53,198.53,0,0,1,9.41,37.89c2.12,5.17,7.77,12.23,18.12,6.58s40-26.11,40-26.11,16.94-13.65,36.47-14.59l-2.35,8.94S123,278.27,92.15,314.74c-7.3,9.65-17.88,23.3-17.88,23.3S76.15,357.57,86.15,382.86Z" style="fill:#e8e8e8;stroke:#000;stroke-miterlimit:10;stroke-width:4px"/><ellipse cx="281.97" cy="292.37" rx="74.17" ry="88.72" style="fill:#e8e8e8;stroke:#000;stroke-miterlimit:10;stroke-width:4px"/><ellipse cx="280.62" cy="291.04" rx="57.18" ry="65.12" style="fill:none;stroke:#000;stroke-miterlimit:10;stroke-width:4px"/><path d="M235.33,206s3.09,8.93-3.42,18.94c-.76.5-1.53,1.64-3.53-.83s-12.45-12-12.45-12" style="fill:none;stroke:#000;stroke-miterlimit:10;stroke-width:4px"/><path d="M194.74,229.33s13.88,11.41,11.76,32.94c-.53,1.41-.35,3.13-3.53,2.54s-18.94-2.67-28-1.36" style="fill:none;stroke:#000;stroke-miterlimit:10;stroke-width:4px"/><path d="M171.93,272.48s24,17.85,33.34,41.85c-1.59,1.59-37.12,21.82-47,49.82S135,419.68,135,419.68s-2.35,5.65-7.88,5.41" style="fill:none;stroke:#000;stroke-miterlimit:10;stroke-width:4px"/><path d="M217.09,498.51s3.53-1.89,3.29-8-4.23-42.36-6.11-58.36-4-37.64,14.35-74.11c-1.18-2.83-28.33-24.9-43.34-29" style="fill:none;stroke:#000;stroke-miterlimit:10;stroke-width:4px"/><path d="M312.23,478.65s-22.43-27.91-27.85-37.08-13.12-25-16.2-62c-4.66-1.23-29-8.45-44.74-10.4" style="fill:none;stroke:#000;stroke-miterlimit:10;stroke-width:4px"/><path d="M337.8,405.65a120.37,120.37,0,0,1-25.57-32.25" style="fill:none;stroke:#000;stroke-miterlimit:10;stroke-width:4px"/><path d="M494.68,292.37c0,138.6-93.09,253-213.36,253S56.85,430.86,56.85,292.27,154.35,41.33,274.62,41.33,491.68,159.57,494.68,292.37Z" style="fill:none;stroke:#000;stroke-miterlimit:10;stroke-width:4px"/><path d="M483.21,292.66c0,131.73-87.95,240.43-201.57,240.43S69.56,424.29,69.56,292.56,161.67,54,275.3,54,483.21,160.92,483.21,292.66Z" style="fill:none;stroke:#000;stroke-miterlimit:10;stroke-width:4px"/><path d="M17.56,206l6,1.26a1.71,1.71,0,0,0,1.32-1.94A33.62,33.62,0,0,0,23.19,200a5.63,5.63,0,0,1-.2-3.51c1.82-6.74,8.1-30.15,8.87-35.11a2.1,2.1,0,0,0,0-.79c-.89-4.06-1.31-9-.62-11.87s3.53-14.59,10.94-18.35,14.7,9.53,14.7,9.53,2.12,16.35,0,27.88-5.17,19.65-4.47,32.59c2.47,0,7.3.82,8.83,4.12s2.94,3.29,3.88,1.53,13.41-53.89,59.29-104c8.71-8.47,37.18-39.06,89.18-55.77,2.59-.94,3.4-1.5,3.62-2.2s-.31-1.11-1.33-1.42-9.7-3.55-9.7-3.55" style="fill:none;stroke:#000;stroke-miterlimit:10;stroke-width:4px"/><path d="M34.44,26.66S18,27.34,13.09,39.1,7.62,56.33,9.56,63.92,17.5,95.33,27,106.8c1.77,3.53,9.71,12.71,13.77,12.71,3.17-1.77,3.52-1.24,4.58-5.47s1.94-19.59,0-42.18C44.32,57,41.85,37.45,49.62,28.45" style="fill:none;stroke:#000;stroke-miterlimit:10;stroke-width:4px"/><path d="M44.9,68.58a11,11,0,0,1-3.42.54,10.54,10.54,0,1,1,0-21.08,10.91,10.91,0,0,1,2.7.33" style="fill:none;stroke:#000;stroke-miterlimit:10;stroke-width:4px"/><path d="M35.11,49.85a10.59,10.59,0,0,1,8,10.2,10.45,10.45,0,0,1-4.34,8.45" style="fill:none;stroke:#000;stroke-miterlimit:10;stroke-width:4px"/><path d="M64.13,207.1S59,194.86,62.85,178.62s10.49-30.7,1.28-67.23S50.85,55.45,50.85,55.45,45,32.51,61.27,22.62,93.4,20.37,93.4,20.37" style="fill:none;stroke:#000;stroke-miterlimit:10;stroke-width:4px"/><ellipse cx="80.72" cy="49.71" rx="9.75" ry="11.21" style="fill:none;stroke:#000;stroke-miterlimit:10;stroke-width:4px"/><path d="M74.36,40.91c3.71,1.58,6.36,5.69,6.36,10.51a11.9,11.9,0,0,1-3.5,8.6" style="fill:none;stroke:#000;stroke-miterlimit:10;stroke-width:4px"/><path d="M71,60.92s12.77,8.53,19.5,0c2.5-3.59,4-8.77,1.21-17.83-.47-2.47-.94-2.7.7-4.58a35.89,35.89,0,0,1,2.83-2.94s.11-1.18,2.59,0S125.09,53.21,147,55.92c4.71.7,12.83,3.25,7.41,9.76,0,0-44.11,31.65-63.06,65.06-1.52,2.47-2.23,4.94-5.76,4s-5.06-4.94-5.06-7.29-.82-20.71-12.59-53.53c-1.53-4-3.29-7.53-.7-10.35S71,60.92,71,60.92Z" style="fill:#c6c6c6;stroke:#000;stroke-miterlimit:10;stroke-width:4px"/><path d="M56.51,169.63s-60.6,90.52-2.24,239.23" style="fill:none;stroke:#000;stroke-miterlimit:10;stroke-width:4px"/><path d="M52.39,191.26C38.21,227,21.32,292.37,53.15,391.45c0,0-.53,9.17,2.65,24.94,1.05,9.06,1.17,26.23-10.95,31.29-3.17.47-13.49.83-15.33-18.94-.08-2.59-.2-4.35,1.1-7.29-.24-4.47-6.65-30.23-10-40" style="fill:none;stroke:#000;stroke-miterlimit:10;stroke-width:4px"/><path d="M15.56,374.12H23.8s-5.42,4.86-2.59,18,8.11,32.47,5.53,51.3S22,467.21,19.21,473.09s-15,34.21-15,34.21" style="fill:none;stroke:#000;stroke-miterlimit:10;stroke-width:4px"/><path d="M52.38,554.74S40,547.21,40.85,530s4.83-46,4.36-54.83-2.32-13.76-4.4-14.94-7.13-.12-10.19,4.94S17,483.68,10.38,506.27C7.68,516.39,1.56,535.8,15.21,548c4.76,3.57,7.53,6.7,15.53,8.11" style="fill:none;stroke:#000;stroke-miterlimit:10;stroke-width:4px"/><path d="M48,374.12S56,379,60,371.45c.94-2.36,3.65-2.38,5.29,2.1s36,119.78,146.36,163.07c2.82,2.12,3.64,1.77,2.82,3.06s-3.6,6.1-20.18,4.61" style="fill:none;stroke:#000;stroke-miterlimit:10;stroke-width:4px"/><path d="M23.22,374.78s16.22,32.9,21.63,72.9" style="fill:none;stroke:#000;stroke-miterlimit:10;stroke-width:4px"/><path d="M63.5,370.56S59,382,61.27,391.54s9.35,37.11,2.23,65.69-13.94,54.45-13.94,54.45-8.71,25.18,1.18,35.3,21,18.87,43.53,11.06" style="fill:none;stroke:#000;stroke-miterlimit:10;stroke-width:4px"/><path d="M80.15,450.62s1.88-15.41,8.23-6.94,30.5,46.24,62.72,69.89c2.93,2.82,7.55,8.11,0,10.11s-23.89,2.47-52.83,17.53c-1.3.71-5,2.47-6.47.94a35.77,35.77,0,0,1-3.06-3.64s-1.06-.71.47-4.24,3.88-8.94-1.18-17.41-15.29-2.59-15.29-2.59-2.94,2.94-4.94,1.41a16,16,0,0,1-3.3-3.53s-2.12-1.64,0-7.29A252.79,252.79,0,0,0,80.15,450.62Z" style="fill:#c6c6c6;stroke:#000;stroke-miterlimit:10;stroke-width:4px"/><ellipse cx="78.44" cy="526.48" rx="9.94" ry="10.99" style="fill:none;stroke:#000;stroke-miterlimit:10;stroke-width:4px"/><path d="M72.54,517.39a11.1,11.1,0,0,1,5.9,10.05,11.38,11.38,0,0,1-4,8.8" style="fill:none;stroke:#000;stroke-miterlimit:10;stroke-width:4px"/><path d="M47.68,178s9-17.1,6.37-42.26c0,0-9.43,1.9-13.55,19.08s-3.11,19.29-8.67,30.71-7,19.3-7,19.3" style="fill:none;stroke:#000;stroke-miterlimit:10;stroke-width:4px"/><path d="M51.65,133.12S38,134.73,31.83,160.61" style="fill:none;stroke:#000;stroke-miterlimit:10;stroke-width:4px"/><path d="M351.38,51.57s.27,3,2.47,3.88c1.31.54,40.38,16,75.71,55.76,24.71,27.77,49.62,70.72,55.76,106.59,1.95,4.59,2.83,5.18,3.77,5.88" style="fill:none;stroke:#000;stroke-miterlimit:10;stroke-width:4px"/><path d="M399.82,58.62s16,.8,31.32-4.42" style="fill:none;stroke:#000;stroke-miterlimit:10;stroke-width:4px"/><path d="M414.39,73a16.21,16.21,0,0,1,4-.4c3.81,0,19.87-.35,39.78-10,3.44-1.41,5.12-2.73,6.7-1.32s3.18,3,3.18,3,1.68,1.32,0,4.85S464.94,83.51,470.5,87c4.94,3.17,7.32,3.26,13.15.79,1.32-.26,2.56-1.24,3.88.53a8.89,8.89,0,0,1,1.56,2.73s1.56,1.15,0,5.21-10.74,24-12.32,49.85c-.45,3.89-.8,6.53-2.56,7.24s-4.86,1.68-7-2.56-19-36.79-54.15-67.62c-1.53-1.88-4.35-4.47-2.24-8.47A7.71,7.71,0,0,1,414.39,73Z" style="fill:#c6c6c6;stroke:#000;stroke-miterlimit:10;stroke-width:4px"/><ellipse cx="477.29" cy="76.61" rx="7.88" ry="9.71" style="fill:none;stroke:#000;stroke-miterlimit:10;stroke-width:4px"/><path d="M471.76,69.46a10,10,0,0,1,4.62,8.83,10.85,10.85,0,0,1-2.49,7.08" style="fill:none;stroke:#000;stroke-miterlimit:10;stroke-width:4px"/><path d="M382.58,535.09c29.34-2.56,54.74,8.36,54.74,8.36" style="fill:none;stroke:#000;stroke-miterlimit:10;stroke-width:4px"/><path d="M357.22,539.23c-2.38-.63-5.31-2-6.63-3.61s4-2.53,4-2.53,39.47-13.28,82.76-62.58c30.37-34.75,46.11-84.18,50.83-99.77" style="fill:none;stroke:#000;stroke-miterlimit:10;stroke-width:4px"/><path d="M479.09,549.48a92.88,92.88,0,0,1-24.91-6c-13.41-5.27-40.86-15.59-54.88-12.68s-17.47,4.42-17.47,4.42" style="fill:none;stroke:#000;stroke-miterlimit:10;stroke-width:4px"/><path d="M415.56,505.68s27.81-19.43,51.29-60.23c2.47-3.88,2.59-6.94,6.95-7.3s3.64,10,3.64,10a177.79,177.79,0,0,0,11.88,52.12,5.62,5.62,0,0,1-.76,3.59l-2.12,3.23s-1.12,1.06-3.23,0-9.37-3.95-13.59,1-5.71,10.06-2.06,17.65c.82,1.94.94,3.46-.18,4.52s-2.06,2.07-2.06,2.07-.23,1.29-3.76,0S446.09,522,423.91,518.27c-6.29-.94-11.35-1.47-12.06-3.7A8,8,0,0,1,415.56,505.68Z" style="fill:#c6c6c6;stroke:#000;stroke-miterlimit:10;stroke-width:4px"/><ellipse cx="476.41" cy="518.29" rx="8.74" ry="10.41" style="fill:none;stroke:#000;stroke-miterlimit:10;stroke-width:4px"/><path d="M471.87,509.39a11.61,11.61,0,0,1-.06,17.36" style="fill:none;stroke:#000;stroke-miterlimit:10;stroke-width:4px"/><path d="M208.73,569.8a40.49,40.49,0,0,1-22.3-6.88l-18.65,1.21c-.3,0-.95.07-1.87.07-4.46,0-15.78-1-24.63-9.83-7.21-7.23-10.85-17.69-10.82-31.08V523l0-.3c1.87-24.61,10.91-49.05,12.18-52.39.7-2.47,5.79-20.76,5.59-34.27-.22-14.45-3.67-34.71-4-36.49a86.47,86.47,0,0,1-1.48-11.79,59.79,59.79,0,0,1,1-13.36c-2.46-9.16-12.63-49.12-12.85-82.67-.21-32.83,11.27-74.08,14.57-85.25A37.61,37.61,0,0,1,143.8,192a53.44,53.44,0,0,1,3.95-17c-.89-10-4.77-53.51-6.16-67.23-1-10.1-4.05-25-6.05-34.78-1.1-5.41-1.9-9.32-2.16-11.36-1-8-.74-19.74,6.53-29.85,5.89-8.59,16.51-13.13,30.72-13.13a79.31,79.31,0,0,1,12.72,1.09c4-3.77,11-9.34,19.27-11.07a34.14,34.14,0,0,1,7-.68c10,0,20.09,3.66,20.51,3.82l.18.07.18.07c12.71,5.38,48.68,19.81,62.22,22l.21,0,.44.09a47.31,47.31,0,0,0,10.77,1.28,51.85,51.85,0,0,0,11.4-1.32c1.17-.26,2.28-.53,3.36-.78a67.36,67.36,0,0,1,17.54-2.45c1.81,0,3.67.07,5.66.22a227.75,227.75,0,0,1,58.62-7.51c32.14,0,61.76,6.58,88.08,19.56a36.91,36.91,0,0,1,8-.83A65.5,65.5,0,0,1,513,44.61l.2,0,.19.06c.92.29,2,.67,3.23,1.11,4.37,1.57,11.53,4.14,18.85,4.72,4.25-1.25,15.33-4.49,25.24-4.49a39,39,0,0,1,5.22.34c7.5-1.84,34.83-8.34,39-8.8h0c1.7-.15,3.37-.23,5-.23,11.13,0,20.09,3.5,26.64,10.39,10.19,10.72,10.5,26,10.44,29.29.17,2.76.31,13.11-5.23,31.52-16,51.35-9,78.29-7.91,81.85,1.72,3.5,6.11,15.11.11,33.62,2.17,9,9.58,41.82,10,72.7.41,28.2-7.74,61.7-10.62,72.62,3,5.6,6.57,16.92,1.72,35.57l0,.12c-7.29,26.38-2.06,54,11.63,102.33l.3,1v1.09c0,.35,0,.76,0,1.23.13,7.06.42,23.59-8.56,34.82S614.92,558,609.13,558a38.59,38.59,0,0,1-7.59-.7l-27.87-5.73a84.71,84.71,0,0,1-13.28,1.06,68.14,68.14,0,0,1-10-.7c-11.53-1.72-23.77-5.64-31.36-8.35-8.18,3.16-17.62,3.67-22.91,3.67h-1.37c-7.7,3-40.5,15-77.09,16.83-3.2.15-6.52.23-9.87.23-38.37,0-74.08-10.1-77.51-11.47-.92-.36-1.78-.78-2.69-1.22-3.14-1.53-7.87-3.83-18.71-4.93a65.1,65.1,0,0,0-6.55-.31,94.88,94.88,0,0,0-20.37,2.38l-48.53,16.8A78.84,78.84,0,0,1,208.73,569.8Z" style="fill:#fff"/><path d="M209.62,16c8.69,0,17.75,3.33,17.75,3.33S274,39,291.43,41.86a55.81,55.81,0,0,0,12.7,1.51,59.69,59.69,0,0,0,13.16-1.51c6.59-1.49,11.25-3,19.14-3,1.93,0,4.05.1,6.44.3,2-.54,25.5-7.59,57.84-7.59,25.62,0,56.78,4.43,87.14,20a30.44,30.44,0,0,1,8.92-1.31A57.24,57.24,0,0,1,511,52.36c4,1.23,14.3,5.73,25.33,6.26,1.77-.44,14.14-4.56,24.37-4.56a27.17,27.17,0,0,1,5.54.51c4.76-1.33,37.76-8.92,39.35-9s2.92-.2,4.28-.2c30.7,0,29.07,31.87,29.07,31.87s1,9.45-4.88,29c-18.12,58.12-7.65,87.27-7.65,87.27s6.27,10.5-.82,30.14c1.37,5.26,9.88,40.47,10.35,73.18s-11.29,73.88-11.29,73.88,8.71,8.88,2.65,32.18c-7.71,27.88-2.83,55.59,11.64,106.65,0,5.05,1,21.29-6.79,31-5.88,7.35-15.71,9.45-23,9.45a30.25,30.25,0,0,1-6-.54l-29.36-6a74.17,74.17,0,0,1-13.4,1.2,60.67,60.67,0,0,1-8.84-.61c-15-2.24-31.59-8.62-32.82-9.06-7.43,3.8-17.74,4.29-22.63,4.29-1.73,0-2.78-.06-2.78-.06s-36,14.94-76.06,16.88c-3.17.16-6.34.23-9.49.23-36.75,0-71.39-9.64-74.56-10.9-3.44-1.37-8.48-5.15-23.54-6.68a73.49,73.49,0,0,0-7.36-.35,101.16,101.16,0,0,0-22.64,2.7L230.73,558a70.63,70.63,0,0,1-22,3.76,32.42,32.42,0,0,1-19.88-7.06l-21.65,1.41s-.47.05-1.29.05c-5.59,0-27.52-2-27.45-32.89,1.91-25,11.8-50.45,11.8-50.45s6.23-21.06,6-36.94S152.14,398,152.14,398a75.46,75.46,0,0,1-1.35-10.74A55.32,55.32,0,0,1,152,374.12S139.2,328.39,139,291.68,154,206,154,206s-2.75-4.61-2.23-13.53a44.81,44.81,0,0,1,4.11-16.12s-4.76-53.71-6.35-69.41S142,65.89,141.32,60.62,140.2,45,146.46,36.39c5.3-7.81,15.46-9.73,24.17-9.73a70.16,70.16,0,0,1,15.45,1.79s8.35-9.88,18.18-11.94a26.13,26.13,0,0,1,5.36-.51m0-16h0A42.31,42.31,0,0,0,201,.85C192.7,2.58,185.67,7.21,180.8,11.3a85,85,0,0,0-10.17-.64c-21.33,0-32,8.94-37.26,16.53-6.93,9.67-9.66,21.93-7.92,35.47.28,2.23,1,5.62,2.25,11.94,2,9.67,5,24.28,5.93,34,1.31,13,4.86,52.59,6,65.27a61.86,61.86,0,0,0-3.81,17.72,47.27,47.27,0,0,0,1.38,14.94c-4.05,14.06-14.43,53.36-14.23,85.27.21,32.68,9.56,71.07,12.67,83a65.91,65.91,0,0,0-.82,13.42A94,94,0,0,0,136.42,401c.4,2.31,3.64,21.55,3.84,35.12.16,10.66-3.55,25.9-5.18,31.61-1.72,4.55-10.66,29.32-12.57,54.32l-.05.59v.59c0,15.6,4.39,28,13.15,36.75,11,11,24.85,12.18,30.3,12.18,1.1,0,1.93-.05,2.43-.09l16.08-1.05a48.39,48.39,0,0,0,24.31,6.74,86.17,86.17,0,0,0,27.36-4.69l48.09-16.65a87,87,0,0,1,18.13-2.07c2,0,3.95.09,5.74.27,9.43,1,13.24,2.81,16,4.16,1,.49,2,1,3.23,1.47,3.78,1.5,40.25,12,80.47,12,3.48,0,6.93-.08,10.26-.24,35.72-1.73,68-12.94,78.15-16.81A77,77,0,0,0,519,552.08a177.72,177.72,0,0,0,30.18,7.78,75.58,75.58,0,0,0,11.19.79,94.41,94.41,0,0,0,13.08-.93l26.46,5.43a46.52,46.52,0,0,0,9.2.87c14.68,0,27.61-5.63,35.47-15.46,10.8-13.49,10.46-32,10.32-40,0-.43,0-.82,0-1.15v-2.16l-.59-2.08c-13.28-46.85-18.41-73.47-11.62-98l0-.12,0-.11c4.77-18.33,2.3-30.82-1-38.43,3.41-13.47,10.53-44.92,10.14-71.89-.43-30-7-60.81-9.72-72.33,5.47-18.72,1.55-31.33-.86-36.62-1.13-4.41-6.52-30.13,8-76.65l0-.08,0-.08c5.61-18.68,5.77-29.9,5.57-33.95.06-4.87-.65-22-12.65-34.67-5.58-5.88-15.74-12.88-32.44-12.88-1.84,0-3.75.09-5.68.26h0c-5.39.61-29.6,6.43-38.74,8.65-1.52-.15-3.11-.23-4.75-.23-10,0-20.68,2.85-26,4.38-5.77-.69-11.46-2.73-15.39-4.14-1.33-.47-2.48-.88-3.55-1.22l-.39-.12-.39-.1a73.23,73.23,0,0,0-18.17-2.6,46.08,46.08,0,0,0-6.83.49C463.11,22,433.12,15.53,400.71,15.53A237.61,237.61,0,0,0,341.29,23c-1.68-.1-3.28-.15-4.86-.15A75.1,75.1,0,0,0,317,25.49c-1,.25-2.12.51-3.26.76a44.26,44.26,0,0,1-9.63,1.12,39.74,39.74,0,0,1-9.06-1.09l-.24-.06-.42-.09-.42-.07c-11.33-1.83-43.05-14.14-60.38-21.47l-.36-.15-.36-.13C231.69,3.87,220.83,0,209.62,0Z" style="fill:#fff"/><path d="M227.37,19.33S274,39,291.43,41.86a55.7,55.7,0,0,0,25.86,0c8.2-1.85,13.41-3.79,25.58-2.74,3.53-1,76.33-22.85,145,12.45,3.88-1.06,9.7-2.65,23.11.79,4,1.23,14.3,5.73,25.33,6.26,2.11-.53,19.23-6.26,29.91-4,4.76-1.33,37.76-8.92,39.35-9,35.12-3.09,33.35,31.67,33.35,31.67s1,9.45-4.88,29c-18.12,58.12-7.65,87.27-7.65,87.27s6.27,10.5-.82,30.14c1.37,5.26,9.88,40.47,10.35,73.18s-11.29,73.88-11.29,73.88,8.71,8.88,2.65,32.18c-7.71,27.88-2.83,55.59,11.64,106.65,0,5.05,1,21.29-6.79,31s-22.4,10.26-29,8.91l-29.36-6a72.38,72.38,0,0,1-22.24.59c-15-2.24-31.59-8.62-32.82-9.06-10.06,5.14-25.41,4.23-25.41,4.23s-36,14.94-76.06,16.88-80.61-9.3-84.05-10.67-8.48-5.15-23.54-6.68-30,2.35-30,2.35L230.73,558a70.63,70.63,0,0,1-22,3.76,32.42,32.42,0,0,1-19.88-7.06l-21.65,1.41s-28.82,2.59-28.74-32.84c1.91-25,11.8-50.45,11.8-50.45s6.23-21.06,6-36.94S152.14,398,152.14,398a75.46,75.46,0,0,1-1.35-10.74A55.32,55.32,0,0,1,152,374.12S139.2,328.39,139,291.68,154,206,154,206s-2.75-4.61-2.23-13.53a44.81,44.81,0,0,1,4.11-16.12s-4.76-53.71-6.35-69.41S142,65.89,141.32,60.62,140.2,45,146.46,36.39c10.41-15.35,39.62-7.94,39.62-7.94s8.35-9.88,18.18-11.94S227.37,19.33,227.37,19.33Z" style="fill:#fff;stroke:#000;stroke-miterlimit:10;stroke-width:4px"/><path d="M366.73,207.45S402,167,519.67,162.74c-5.18-6.59-9.15-12-9.15-12l.31-2.65L503.32,139l-3.71-1.89L489,125.74l.06-1.65-9.35-8.52L477,114.45l-13-10.41S377.92,45.31,312.91,83.32" style="fill:none;stroke:#000;stroke-miterlimit:10;stroke-width:4px"/><path d="M412.23,202.86s58.32-29.35,117.62-18.77l4.56,7.94,3,1.83,5.48,12.76-.89,1.71,4.59,15.24,2.41,1.35,3.71,14.17-1,1.71,2.53,14.29L557,293.57l1.89,2.11.7,10.83-1.88,1.76-1.06,16.35,1.41,1.65-1.88,14.59L553.9,342l-2,6.94L532.76,409.6l-5.68,9.14.94,3.18L523.2,431,493.79,420a33.57,33.57,0,0,1-1.18-13.18c.82-7.29-48.71-74.71-48.71-74.71l-10.58-76.94Z" style="fill:none;stroke:#000;stroke-miterlimit:10;stroke-width:4px"/><path d="M272.73,116.74s-.62,52.12,12.59,100.59,13.26,46.44,13.26,46.44,6.47,13.41,12.85-1.85" style="fill:none;stroke:#000;stroke-miterlimit:10;stroke-width:4px"/><path d="M248.4,147.54S260.47,240.47,275.13,282s21.95,119.37,21.95,119.37l-43.53,12.42-16.72,1.73" style="fill:none;stroke:#000;stroke-miterlimit:10;stroke-width:4px"/><path d="M426.26,508.39S389.32,523.45,359.9,519s-72.33-38.5-72.33-38.5" style="fill:none;stroke:#000;stroke-miterlimit:10;stroke-width:4px"/><path d="M222.61,382.86l32.59,37.88s4,4.24,8.35,4.35c-.23,3.89-1.41,16.24-3.18,20.71-.23,2.47-.7,2.94-.23,4.12s18.94,20.82,18.94,20.82l65.29,27.77s5.06,2.23,9.18,0c2,2.94,7.41,14,20.12,14.23s47.76,1.3,78.7-4.35c3.53-.94,11.06-4.94,7.65-12-3.06-5.53-12-18.47-12-18.47s12.71,14.94,27.88,10,43.3-15.41,69.53-36.59c2.59-2.71,6.24-10.47.83-13.65S531.55,429.57,494,417.8a72.45,72.45,0,0,1-20-12.35c7.18,1.88,12.94,4,32.94,3.76,5.77-.35,13.3-1.64,27.06.59,2.94-.23,11.65,0,19.3-6.47s31.76-27.88,42.82-56.24c1.29-4,2.59-13.17-6-11.64s-20.35,3.53-40.82,11.29-35.77,9.18-68.83-5.76c.59-1.41,1.15-2.53,1.15-2.53S510,338.51,538,316c7.33-6.27,10.94-9.53,23.47-16.24,6.36-3.53,12.89-7.41,17.21-16.41s13.85-28,13-53.21c-.18-4.23-2.21-14.29-9-9.61s-16.85,17.55-25,28.67c-2.58,3.51-14.79,23.81-31.15,33.36s-34.23,11.64-34.23,11.64,1.41-13.06-2.56-25c0,0,19.15-16.15,28.32-36.38,3.88-8.24,8.71-21.77,12-30.94s9.88-19.65,9.88-19.65,5.42-7.41,5-15.65.35-22.94-12.24-40.82c-2.12-2.47-2.85-2.68-2.85-2.68s-3-1.32-5,.62-2.65,3.4-3.44,7a238.85,238.85,0,0,0-5.92,28.1c-1.93,12.6-2.51,30.22-7.23,43.41-8.84,24.69-27.53,42.88-27.53,42.88s-20.91-24.7-21.79-25.23c.53-1.15,3.26-3.53,3.61-10.41.38-1.7,6.36-18.49,6.89-37.47.41-15-3.45-34.64-4.71-48.59-1.29-14.29,0-25-.72-28.12-.91-3.44-4.49-9.11-9.75-12.88-7-5-16.09-7.71-18.24-7.71-3.76,0-10.58,1.65-6.82,12.71,0,0,3.88,20.23,16.24,48.82a105.42,105.42,0,0,1,7.53,32.82c.8,13.68-2.22,30.24-5.77,41.83-5.65-1.94-19.41-6.35-31.23-6.88-.89-5.3-2.42-48.36-32-87.65-7.71-8.71-22.06-29.18-23.71-35.06a23.59,23.59,0,0,0-1.27-2.94s-.64-2.47-4.17-.88-27.5,14.76-27.5,14.76-7.41,4.35-2.12,11.06,16.71,18.71,33.77,29.88c3.64,2.47,32.35,16.36,45.29,70.71-8,.7-32.35,2.59-32.35,2.59s-34.24-56.71-82.47-68c-12-4.47-23.53-9.18-25.89-11.3-1.88,2.36-8,9.41-8,9.41s-1.17,8.95-9.88,37.42c-.94,4.47-2.59,11.76,4,13.88S267,191.68,278,192.39s51.77-4.47,75.06,20.47c-5.65,3.53-10.59,4-21.88,16.47-5.18-2.12-44-22.82-80.94-16.24-14.12,4-33.65,11.3-36.47,11.3-1.18,3.76-6.36,35.29-6.36,35.29a199,199,0,0,1,9.42,37.89c2.11,5.17,7.76,12.23,18.11,6.58S275,278,275,278s16.94-13.65,36.47-14.59l-2.35,8.94s-49.65,5.88-80.47,42.35c-7.29,9.65-17.88,23.3-17.88,23.3S212.61,357.57,222.61,382.86Z" style="fill:#e8e8e8;stroke:#000;stroke-miterlimit:10;stroke-width:4px"/><ellipse cx="418.44" cy="292.37" rx="74.17" ry="88.72" style="fill:#e8e8e8;stroke:#000;stroke-miterlimit:10;stroke-width:4px"/><ellipse cx="417.08" cy="291.04" rx="57.18" ry="65.12" style="fill:none;stroke:#000;stroke-miterlimit:10;stroke-width:4px"/><path d="M371.79,206s3.09,8.93-3.42,18.94c-.76.5-1.52,1.64-3.52-.83s-12.46-12-12.46-12" style="fill:none;stroke:#000;stroke-miterlimit:10;stroke-width:4px"/><path d="M331.2,229.33s13.88,11.41,11.76,32.94c-.53,1.41-.35,3.13-3.53,2.54s-18.94-2.67-28-1.36" style="fill:none;stroke:#000;stroke-miterlimit:10;stroke-width:4px"/><path d="M308.4,272.48s24,17.85,33.33,41.85c-1.59,1.59-37.12,21.82-47,49.82s-23.3,55.53-23.3,55.53-2.35,5.65-7.88,5.41" style="fill:none;stroke:#000;stroke-miterlimit:10;stroke-width:4px"/><path d="M353.55,498.51s3.53-1.89,3.3-8-4.24-42.36-6.12-58.36-4-37.64,14.35-74.11c-1.18-2.83-28.32-24.9-43.34-29" style="fill:none;stroke:#000;stroke-miterlimit:10;stroke-width:4px"/><path d="M448.69,478.65s-22.43-27.91-27.84-37.08-13.12-25-16.21-62c-4.66-1.23-29-8.45-44.74-10.4" style="fill:none;stroke:#000;stroke-miterlimit:10;stroke-width:4px"/><path d="M474.26,405.65a120.59,120.59,0,0,1-25.57-32.25" style="fill:none;stroke:#000;stroke-miterlimit:10;stroke-width:4px"/><path d="M631.14,292.37c0,138.6-93.09,253-213.35,253S193.32,430.86,193.32,292.27,290.81,41.33,411.08,41.33,628.14,159.57,631.14,292.37Z" style="fill:none;stroke:#000;stroke-miterlimit:10;stroke-width:4px"/><path d="M619.67,292.66c0,131.73-87.95,240.43-201.57,240.43S206,424.29,206,292.56,298.13,54,411.76,54,619.67,160.92,619.67,292.66Z" style="fill:none;stroke:#000;stroke-miterlimit:10;stroke-width:4px"/><path d="M154,206l6,1.26a1.71,1.71,0,0,0,1.32-1.94,32.55,32.55,0,0,0-1.71-5.34,5.49,5.49,0,0,1-.2-3.51c1.82-6.74,8.1-30.15,8.86-35.11a2.1,2.1,0,0,0,0-.79c-.88-4.06-1.31-9-.62-11.87s3.53-14.59,10.94-18.35,14.71,9.53,14.71,9.53,2.11,16.35,0,27.88-5.18,19.65-4.47,32.59c2.47,0,7.29.82,8.82,4.12s2.94,3.29,3.88,1.53,13.41-53.89,59.3-104C269.55,93.57,298,63,350,46.27c2.59-.94,3.4-1.5,3.62-2.2s-.31-1.11-1.32-1.42-9.71-3.55-9.71-3.55" style="fill:none;stroke:#000;stroke-miterlimit:10;stroke-width:4px"/><path d="M170.9,26.66s-16.41.68-21.35,12.44S144.08,56.33,146,63.92,154,95.33,163.49,106.8c1.77,3.53,9.71,12.71,13.77,12.71,3.17-1.77,3.53-1.24,4.59-5.47s1.94-19.59,0-42.18c-1.06-14.82-3.53-34.41,4.23-43.41" style="fill:none;stroke:#000;stroke-miterlimit:10;stroke-width:4px"/><path d="M181.36,68.58a11,11,0,0,1-3.42.54,10.54,10.54,0,1,1,0-21.08,10.85,10.85,0,0,1,2.7.33" style="fill:none;stroke:#000;stroke-miterlimit:10;stroke-width:4px"/><path d="M171.57,49.85a10.59,10.59,0,0,1,8.05,10.2,10.43,10.43,0,0,1-4.34,8.45" style="fill:none;stroke:#000;stroke-miterlimit:10;stroke-width:4px"/><path d="M200.59,207.1s-5.16-12.24-1.27-28.48,10.48-30.7,1.27-67.23-13.27-55.94-13.27-55.94-5.83-22.94,10.41-32.83,32.13-2.25,32.13-2.25" style="fill:none;stroke:#000;stroke-miterlimit:10;stroke-width:4px"/><ellipse cx="217.18" cy="49.71" rx="9.75" ry="11.21" style="fill:none;stroke:#000;stroke-miterlimit:10;stroke-width:4px"/><path d="M210.82,40.91c3.72,1.58,6.36,5.69,6.36,10.51a11.9,11.9,0,0,1-3.5,8.6" style="fill:none;stroke:#000;stroke-miterlimit:10;stroke-width:4px"/><path d="M207.43,60.92s12.77,8.53,19.5,0c2.5-3.59,4-8.77,1.21-17.83-.47-2.47-.94-2.7.71-4.58a35,35,0,0,1,2.82-2.94s.12-1.18,2.59,0,27.29,17.64,49.17,20.35c4.71.7,12.83,3.25,7.42,9.76,0,0-44.12,31.65-63.06,65.06-1.53,2.47-2.24,4.94-5.77,4S217,129.8,217,127.45s-.82-20.71-12.59-53.53c-1.52-4-3.29-7.53-.7-10.35S207.43,60.92,207.43,60.92Z" style="fill:#c6c6c6;stroke:#000;stroke-miterlimit:10;stroke-width:4px"/><path d="M193,169.63s-60.6,90.52-2.24,239.23" style="fill:none;stroke:#000;stroke-miterlimit:10;stroke-width:4px"/><path d="M188.85,191.26c-14.18,35.71-31.06,101.11.76,200.19,0,0-.53,9.17,2.65,24.94,1.06,9.06,1.17,26.23-10.94,31.29-3.18.47-13.5.83-15.34-18.94-.08-2.59-.19-4.35,1.1-7.29-.23-4.47-6.64-30.23-10-40" style="fill:none;stroke:#000;stroke-miterlimit:10;stroke-width:4px"/><path d="M152,374.12h8.24s-5.41,4.86-2.59,18,8.12,32.47,5.53,51.3-4.77,23.76-7.53,29.64-15,34.21-15,34.21" style="fill:none;stroke:#000;stroke-miterlimit:10;stroke-width:4px"/><path d="M188.85,554.74s-12.36-7.53-11.53-24.7,4.82-46,4.35-54.83-2.32-13.76-4.39-14.94-7.14-.12-10.2,4.94-13.65,18.47-20.23,41.06c-2.71,10.12-8.83,29.53,4.82,41.77,4.76,3.57,7.53,6.7,15.53,8.11" style="fill:none;stroke:#000;stroke-miterlimit:10;stroke-width:4px"/><path d="M184.44,374.12s8.05,4.86,12.05-2.67c.94-2.36,3.65-2.38,5.3,2.1s36,119.78,146.35,163.07c2.82,2.12,3.65,1.77,2.82,3.06s-3.6,6.1-20.18,4.61" style="fill:none;stroke:#000;stroke-miterlimit:10;stroke-width:4px"/><path d="M159.68,374.78s16.22,32.9,21.64,72.9" style="fill:none;stroke:#000;stroke-miterlimit:10;stroke-width:4px"/><path d="M200,370.56s-4.54,11.45-2.24,21,9.36,37.11,2.24,65.69S186,511.68,186,511.68s-8.7,25.18,1.18,35.3,21,18.87,43.53,11.06" style="fill:none;stroke:#000;stroke-miterlimit:10;stroke-width:4px"/><path d="M216.61,450.62s1.88-15.41,8.24-6.94,30.49,46.24,62.72,69.89c2.92,2.82,7.54,8.11,0,10.11s-23.9,2.47-52.84,17.53c-1.3.71-4.94,2.47-6.47.94a35.77,35.77,0,0,1-3.06-3.64s-1.06-.71.47-4.24,3.88-8.94-1.18-17.41-15.29-2.59-15.29-2.59-2.94,2.94-4.94,1.41a16,16,0,0,1-3.3-3.53s-2.11-1.64,0-7.29A252.16,252.16,0,0,0,216.61,450.62Z" style="fill:#c6c6c6;stroke:#000;stroke-miterlimit:10;stroke-width:4px"/><ellipse cx="214.9" cy="526.48" rx="9.94" ry="10.99" style="fill:none;stroke:#000;stroke-miterlimit:10;stroke-width:4px"/><path d="M209,517.39a11.1,11.1,0,0,1,5.9,10.05,11.38,11.38,0,0,1-4,8.8" style="fill:none;stroke:#000;stroke-miterlimit:10;stroke-width:4px"/><path d="M184.14,178s9-17.1,6.37-42.26c0,0-9.43,1.9-13.55,19.08s-3.1,19.29-8.67,30.71-7,19.3-7,19.3" style="fill:none;stroke:#000;stroke-miterlimit:10;stroke-width:4px"/><path d="M188.12,133.12s-13.67,1.61-19.83,27.49" style="fill:none;stroke:#000;stroke-miterlimit:10;stroke-width:4px"/><path d="M487.85,51.57s.26,3,2.47,3.88c1.3.54,40.37,16,75.7,55.76,24.71,27.77,49.62,70.72,55.77,106.59,1.94,4.59,2.82,5.18,3.76,5.88" style="fill:none;stroke:#000;stroke-miterlimit:10;stroke-width:4px"/><path d="M536.29,58.62s16,.8,31.32-4.42" style="fill:none;stroke:#000;stroke-miterlimit:10;stroke-width:4px"/><path d="M550.86,73a16.11,16.11,0,0,1,4-.4c3.8,0,19.86-.35,39.77-10,3.44-1.41,5.12-2.73,6.71-1.32s3.17,3,3.17,3,1.68,1.32,0,4.85S601.4,83.51,607,87c4.94,3.17,7.33,3.26,13.15.79,1.32-.26,2.56-1.24,3.88.53a8.61,8.61,0,0,1,1.56,2.73s1.56,1.15,0,5.21-10.73,24-12.32,49.85c-.44,3.89-.8,6.53-2.56,7.24s-4.85,1.68-7-2.56-19-36.79-54.15-67.62c-1.53-1.88-4.35-4.47-2.23-8.47A7.66,7.66,0,0,1,550.86,73Z" style="fill:#c6c6c6;stroke:#000;stroke-miterlimit:10;stroke-width:4px"/><ellipse cx="613.75" cy="76.61" rx="7.88" ry="9.71" style="fill:none;stroke:#000;stroke-miterlimit:10;stroke-width:4px"/><path d="M608.22,69.46c2.73,1.53,4.62,4.91,4.62,8.83a10.85,10.85,0,0,1-2.49,7.08" style="fill:none;stroke:#000;stroke-miterlimit:10;stroke-width:4px"/><path d="M519,535.09c29.34-2.56,54.75,8.36,54.75,8.36" style="fill:none;stroke:#000;stroke-miterlimit:10;stroke-width:4px"/><path d="M493.68,539.23c-2.38-.63-5.31-2-6.63-3.61s4-2.53,4-2.53,39.47-13.28,82.77-62.58c30.36-34.75,46.1-84.18,50.82-99.77" style="fill:none;stroke:#000;stroke-miterlimit:10;stroke-width:4px"/><path d="M615.55,549.48a92.88,92.88,0,0,1-24.91-6c-13.41-5.27-40.85-15.59-54.88-12.68s-17.47,4.42-17.47,4.42" style="fill:none;stroke:#000;stroke-miterlimit:10;stroke-width:4px"/><path d="M552,505.68s27.81-19.43,51.3-60.23c2.47-3.88,2.58-6.94,6.94-7.3s3.64,10,3.64,10a177.62,177.62,0,0,0,11.89,52.12,5.66,5.66,0,0,1-.77,3.59l-2.12,3.23s-1.11,1.06-3.23,0-9.37-3.95-13.59,1-5.71,10.06-2.06,17.65c.83,1.94.94,3.46-.17,4.52s-2.06,2.07-2.06,2.07-.24,1.29-3.77,0S582.55,522,560.37,518.27c-6.29-.94-11.35-1.47-12-3.7A8,8,0,0,1,552,505.68Z" style="fill:#c6c6c6;stroke:#000;stroke-miterlimit:10;stroke-width:4px"/><ellipse cx="612.88" cy="518.29" rx="8.74" ry="10.41" style="fill:none;stroke:#000;stroke-miterlimit:10;stroke-width:4px"/><path d="M608.33,509.39a11.59,11.59,0,0,1-.06,17.36" style="fill:none;stroke:#000;stroke-miterlimit:10;stroke-width:4px"/><path d="M353.73,569.8a40.49,40.49,0,0,1-22.3-6.88l-18.65,1.21c-.3,0-.95.07-1.86.07-4.46,0-15.79-1-24.64-9.83-7.21-7.23-10.85-17.69-10.81-31.08V523l0-.3c1.88-24.61,10.91-49.05,12.18-52.39.71-2.47,5.79-20.76,5.59-34.27-.21-14.45-3.67-34.71-4-36.49a84.09,84.09,0,0,1-1.49-11.79,60.39,60.39,0,0,1,1-13.36c-2.46-9.16-12.63-49.12-12.84-82.67-.21-32.83,11.26-74.08,14.56-85.25A37.61,37.61,0,0,1,288.8,192a53.44,53.44,0,0,1,3.95-17c-.89-10-4.77-53.51-6.15-67.23-1-10.1-4.05-25-6.06-34.78-1.1-5.41-1.89-9.32-2.16-11.36-1-8-.73-19.74,6.54-29.85,5.89-8.59,16.5-13.13,30.71-13.13a79.44,79.44,0,0,1,12.73,1.09c4-3.77,11-9.34,19.26-11.07a34.21,34.21,0,0,1,7-.68c10,0,20.09,3.66,20.52,3.82l.18.07.17.07c12.72,5.38,48.68,19.81,62.22,22l.22,0,.44.09a47.23,47.23,0,0,0,10.77,1.28,52,52,0,0,0,11.4-1.32c1.16-.26,2.27-.53,3.35-.78a67.38,67.38,0,0,1,17.55-2.45c1.8,0,3.66.07,5.65.22a227.83,227.83,0,0,1,58.62-7.51c32.14,0,61.76,6.58,88.08,19.56a36.91,36.91,0,0,1,8-.83A65.43,65.43,0,0,1,658,44.61l.2,0,.19.06c.92.29,2,.67,3.23,1.11,4.37,1.57,11.53,4.14,18.85,4.72,4.25-1.25,15.33-4.49,25.25-4.49a38.86,38.86,0,0,1,5.21.34c7.5-1.84,34.84-8.34,39-8.8h0c1.7-.15,3.38-.23,5-.23,11.12,0,20.08,3.5,26.63,10.39,10.19,10.71,10.5,26,10.44,29.29.18,2.75.31,13.11-5.22,31.52-15.81,50.7-9,78.25-7.89,81.9,1.73,3.55,6.05,15.15.09,33.57,2.16,9,9.57,41.82,10,72.7.4,28.2-7.75,61.7-10.63,72.62,3,5.6,6.57,16.92,1.72,35.57l0,.12c-7.29,26.39-2.06,54,11.63,102.33l.3,1v1.08c0,.36,0,.77,0,1.23.12,7.06.42,23.6-8.57,34.83S759.92,558,754.13,558a38.66,38.66,0,0,1-7.59-.7l-27.86-5.73a85,85,0,0,1-13.28,1.06,68,68,0,0,1-10-.7c-11.54-1.72-23.77-5.64-31.37-8.35-8.18,3.16-17.62,3.67-22.91,3.67h-1.37c-7.7,3-40.5,15-77.08,16.83-3.2.15-6.52.23-9.88.23-38.38,0-74.08-10.1-77.51-11.47-.92-.36-1.78-.78-2.69-1.22-3.14-1.53-7.87-3.83-18.71-4.93a65,65,0,0,0-6.55-.31,94.88,94.88,0,0,0-20.37,2.38l-48.53,16.8A78.59,78.59,0,0,1,353.73,569.8Z" style="fill:#fff"/><path d="M354.62,16c8.69,0,17.76,3.33,17.76,3.33S419,39,436.44,41.86a55.7,55.7,0,0,0,12.69,1.51,59.69,59.69,0,0,0,13.16-1.51c6.59-1.49,11.25-3,19.15-3,1.93,0,4.05.1,6.44.3,2-.54,25.49-7.59,57.83-7.59,25.63,0,56.79,4.43,87.14,20a30.5,30.5,0,0,1,8.92-1.31,57.37,57.37,0,0,1,14.2,2.1c4,1.23,14.29,5.73,25.32,6.26,1.78-.44,14.14-4.56,24.38-4.56a27.07,27.07,0,0,1,5.53.51c4.77-1.33,37.77-8.92,39.35-9s2.93-.2,4.29-.2c30.69,0,29.07,31.87,29.07,31.87s1,9.45-4.89,29c-18.11,58.12-7.64,87.27-7.64,87.27s6.26,10.5-.83,30.14c1.38,5.26,9.89,40.47,10.36,73.18s-11.3,73.88-11.3,73.88,8.71,8.88,2.65,32.18c-7.71,27.88-2.82,55.59,11.65,106.65,0,5.05,1,21.29-6.8,31-5.88,7.35-15.71,9.45-23,9.45a30.25,30.25,0,0,1-6-.54l-29.36-6a74.17,74.17,0,0,1-13.4,1.2,60.76,60.76,0,0,1-8.84-.61c-15-2.24-31.58-8.62-32.82-9.06-7.43,3.8-17.74,4.29-22.63,4.29-1.73,0-2.78-.06-2.78-.06s-36,14.94-76.06,16.88c-3.17.16-6.34.23-9.49.23-36.75,0-71.39-9.64-74.55-10.9-3.45-1.37-8.49-5.15-23.55-6.68a73.49,73.49,0,0,0-7.36-.35,101.16,101.16,0,0,0-22.64,2.7L375.73,558a70.63,70.63,0,0,1-22,3.76,32.42,32.42,0,0,1-19.88-7.06l-21.65,1.41s-.47.05-1.28.05c-5.6,0-27.53-2-27.46-32.89,1.92-25,11.8-50.45,11.8-50.45s6.24-21.06,6-36.94S297.14,398,297.14,398a75.46,75.46,0,0,1-1.35-10.74A55.91,55.91,0,0,1,297,374.12s-12.82-45.73-13-82.44S299,206,299,206s-2.75-4.61-2.23-13.53a44.7,44.7,0,0,1,4.12-16.12s-4.77-53.71-6.36-69.41S287,65.89,286.32,60.62,285.2,45,291.47,36.39c5.29-7.81,15.46-9.73,24.16-9.73a70,70,0,0,1,15.45,1.79s8.36-9.88,18.18-11.94a26.2,26.2,0,0,1,5.36-.51m0-16h0A42.41,42.41,0,0,0,346,.85C337.7,2.58,330.67,7.21,325.8,11.3a84.87,84.87,0,0,0-10.17-.64c-21.33,0-32,8.94-37.26,16.53-6.92,9.67-9.66,21.93-7.92,35.47.28,2.23,1,5.62,2.26,11.94,2,9.67,4.94,24.28,5.93,34,1.31,13,4.85,52.59,6,65.27a61.57,61.57,0,0,0-3.8,17.72,47.31,47.31,0,0,0,1.37,14.94c-4,14.06-14.43,53.36-14.22,85.27.21,32.68,9.55,71.07,12.67,83a65.2,65.2,0,0,0-.82,13.42,94.63,94.63,0,0,0,1.6,12.83c.4,2.31,3.64,21.55,3.84,35.12.16,10.66-3.54,25.9-5.18,31.61-1.71,4.55-10.66,29.32-12.57,54.32l0,.59v.59c0,15.6,4.39,28,13.16,36.75,11,11,24.84,12.18,30.3,12.18,1.09,0,1.92-.05,2.43-.09l16.07-1.05a48.39,48.39,0,0,0,24.31,6.74,86.17,86.17,0,0,0,27.36-4.69l48.09-16.65a87.05,87.05,0,0,1,18.13-2.07c2,0,3.95.09,5.74.27,9.43,1,13.24,2.81,16,4.16,1,.49,2,1,3.24,1.47,3.77,1.5,40.24,12,80.46,12,3.48,0,6.93-.08,10.26-.24,35.72-1.73,68-12.94,78.15-16.81A77,77,0,0,0,664,552.08a177.72,177.72,0,0,0,30.18,7.78,75.68,75.68,0,0,0,11.19.79,94.41,94.41,0,0,0,13.08-.93l26.46,5.43a46.52,46.52,0,0,0,9.2.87c14.68,0,27.62-5.63,35.48-15.46,10.79-13.49,10.46-32,10.31-40,0-.43,0-.82,0-1.15l0-2.16-.59-2.08c-13.28-46.85-18.4-73.47-11.62-98l0-.12,0-.11c4.77-18.33,2.3-30.82-1-38.43,3.42-13.47,10.53-44.92,10.15-71.89-.44-30-7-60.81-9.73-72.33,5.47-18.72,1.56-31.33-.85-36.62-1.14-4.41-6.53-30.13,8-76.65l0-.08,0-.08c5.61-18.68,5.77-29.9,5.57-33.95.06-4.87-.64-22-12.65-34.67-5.58-5.88-15.74-12.88-32.43-12.88-1.85,0-3.76.09-5.69.26h0c-5.39.61-29.6,6.43-38.73,8.65-1.53-.15-3.11-.23-4.75-.23-10,0-20.69,2.85-26,4.38-5.77-.69-11.46-2.73-15.39-4.14-1.33-.47-2.47-.88-3.55-1.22l-.39-.12-.39-.1a73.17,73.17,0,0,0-18.17-2.6,46.08,46.08,0,0,0-6.83.49C608.11,22,578.13,15.53,545.71,15.53A237.75,237.75,0,0,0,486.29,23c-1.68-.1-3.28-.15-4.85-.15A75.19,75.19,0,0,0,462,25.49c-1,.25-2.12.51-3.26.76a44.26,44.26,0,0,1-9.63,1.12,39.82,39.82,0,0,1-9.06-1.09l-.24-.06-.42-.09-.42-.07c-11.33-1.83-43.05-14.14-60.38-21.47l-.35-.15-.37-.13C376.69,3.87,365.83,0,354.62,0Z" style="fill:#fff"/><path d="M372.38,19.33S419,39,436.44,41.86a55.65,55.65,0,0,0,25.85,0c8.21-1.85,13.41-3.79,25.59-2.74,3.53-1,76.32-22.85,145,12.45,3.88-1.06,9.7-2.65,23.12.79,4,1.23,14.29,5.73,25.32,6.26,2.12-.53,19.23-6.26,29.91-4,4.77-1.33,37.77-8.92,39.35-9,35.12-3.09,33.36,31.67,33.36,31.67s1,9.45-4.89,29c-18.11,58.12-7.64,87.27-7.64,87.27s6.26,10.5-.83,30.14c1.38,5.26,9.89,40.47,10.36,73.18s-11.3,73.88-11.3,73.88,8.71,8.88,2.65,32.18c-7.71,27.88-2.82,55.59,11.65,106.65,0,5.05,1,21.29-6.8,31s-22.39,10.26-29,8.91l-29.36-6a72.38,72.38,0,0,1-22.24.59c-15-2.24-31.58-8.62-32.82-9.06-10.06,5.14-25.41,4.23-25.41,4.23s-36,14.94-76.06,16.88-80.6-9.3-84-10.67-8.49-5.15-23.55-6.68-30,2.35-30,2.35L375.73,558a70.63,70.63,0,0,1-22,3.76,32.42,32.42,0,0,1-19.88-7.06l-21.65,1.41s-28.82,2.59-28.74-32.84c1.92-25,11.8-50.45,11.8-50.45s6.24-21.06,6-36.94S297.14,398,297.14,398a75.46,75.46,0,0,1-1.35-10.74A55.91,55.91,0,0,1,297,374.12s-12.82-45.73-13-82.44S299,206,299,206s-2.75-4.61-2.23-13.53a44.7,44.7,0,0,1,4.12-16.12s-4.77-53.71-6.36-69.41S287,65.89,286.32,60.62,285.2,45,291.47,36.39c10.41-15.35,39.61-7.94,39.61-7.94s8.36-9.88,18.18-11.94S372.38,19.33,372.38,19.33Z" style="fill:#fff;stroke:#000;stroke-miterlimit:10;stroke-width:4px"/><path d="M511.73,207.45S547,167,664.67,162.74c-5.17-6.59-9.15-12-9.15-12l.31-2.65L648.32,139l-3.71-1.89L634,125.74l.06-1.65-9.35-8.52L622,114.45l-13-10.41S522.93,45.31,457.92,83.32" style="fill:none;stroke:#000;stroke-miterlimit:10;stroke-width:4px"/><path d="M557.23,202.86s58.32-29.35,117.62-18.77l4.57,7.94,3,1.83,5.47,12.76-.88,1.71,4.58,15.24,2.42,1.35,3.7,14.17-1,1.71,2.53,14.29L702,293.57l1.88,2.11.7,10.83-1.88,1.76-1.06,16.35,1.41,1.65-1.88,14.59L698.91,342l-2,6.94L677.76,409.6l-5.68,9.14.94,3.18L668.2,431,638.79,420a33.57,33.57,0,0,1-1.18-13.18c.83-7.29-48.7-74.71-48.7-74.71l-10.59-76.94Z" style="fill:none;stroke:#000;stroke-miterlimit:10;stroke-width:4px"/><path d="M417.73,116.74s-.61,52.12,12.59,100.59,13.26,46.44,13.26,46.44,6.47,13.41,12.86-1.85" style="fill:none;stroke:#000;stroke-miterlimit:10;stroke-width:4px"/><path d="M393.4,147.54S405.47,240.47,420.13,282s21.95,119.37,21.95,119.37l-43.53,12.42-16.72,1.73" style="fill:none;stroke:#000;stroke-miterlimit:10;stroke-width:4px"/><path d="M571.26,508.39S534.32,523.45,504.91,519s-72.34-38.5-72.34-38.5" style="fill:none;stroke:#000;stroke-miterlimit:10;stroke-width:4px"/><path d="M367.61,382.86l32.59,37.88s4,4.24,8.35,4.35c-.23,3.89-1.41,16.24-3.17,20.71-.24,2.47-.71,2.94-.24,4.12s18.94,20.82,18.94,20.82l65.3,27.77s5.06,2.23,9.17,0c2,2.94,7.42,14,20.12,14.23s47.77,1.3,78.71-4.35c3.53-.94,11.06-4.94,7.64-12-3-5.53-12-18.47-12-18.47s12.71,14.94,27.89,10,43.29-15.41,69.53-36.59c2.58-2.71,6.23-10.47.82-13.65S676.55,429.57,639,417.8a72.45,72.45,0,0,1-20-12.35c7.18,1.88,13,4,33,3.76,5.76-.35,13.29-1.64,27,.59,3-.23,11.65,0,19.3-6.47s31.76-27.88,42.82-56.24c1.3-4,2.59-13.17-6-11.64s-20.35,3.53-40.82,11.29-35.77,9.18-68.82-5.76c.58-1.41,1.14-2.53,1.14-2.53S655,338.51,683,316c7.32-6.27,10.94-9.53,23.47-16.24,6.35-3.53,12.88-7.41,17.2-16.41s13.86-28,13-53.21c-.17-4.23-2.2-14.29-9-9.61s-16.85,17.55-25,28.67c-2.57,3.51-14.79,23.81-31.14,33.36s-34.24,11.64-34.24,11.64,1.41-13.06-2.56-25c0,0,19.15-16.15,28.32-36.38,3.89-8.24,8.71-21.77,12-30.94s9.89-19.65,9.89-19.65,5.41-7.41,4.94-15.65.35-22.94-12.24-40.82c-2.11-2.47-2.85-2.68-2.85-2.68s-3-1.32-5,.62-2.65,3.4-3.44,7a240.16,240.16,0,0,0-5.91,28.1c-1.93,12.6-2.51,30.22-7.24,43.41-8.84,24.69-27.53,42.88-27.53,42.88s-20.91-24.7-21.79-25.23c.53-1.15,3.26-3.53,3.62-10.41.37-1.7,6.35-18.49,6.88-37.47.41-15-3.45-34.64-4.71-48.59-1.28-14.29,0-25-.72-28.12-.91-3.44-4.49-9.11-9.75-12.88-7-5-16.09-7.71-18.23-7.71-3.77,0-10.59,1.65-6.83,12.71,0,0,3.89,20.23,16.24,48.82a105.42,105.42,0,0,1,7.53,32.82c.8,13.68-2.22,30.24-5.77,41.83-5.64-1.94-19.41-6.35-31.23-6.88-.88-5.3-2.41-48.36-32-87.65-7.71-8.71-22.06-29.18-23.71-35.06a24.33,24.33,0,0,0-1.26-2.94s-.65-2.47-4.18-.88-27.5,14.76-27.5,14.76-7.41,4.35-2.12,11.06,16.71,18.71,33.77,29.88c3.65,2.47,32.35,16.36,45.29,70.71-8,.7-32.35,2.59-32.35,2.59s-34.24-56.71-82.47-68c-12-4.47-23.53-9.18-25.88-11.3-1.89,2.36-8,9.41-8,9.41s-1.18,8.95-9.89,37.42c-.94,4.47-2.58,11.76,4,13.88S412,191.68,423,192.39s51.77-4.47,75.06,20.47c-5.64,3.53-10.58,4-21.88,16.47-5.18-2.12-44-22.82-80.94-16.24-14.12,4-33.65,11.3-36.47,11.3-1.18,3.76-6.35,35.29-6.35,35.29a199.39,199.39,0,0,1,9.41,37.89c2.12,5.17,7.76,12.23,18.12,6.58S420,278,420,278s16.94-13.65,36.47-14.59l-2.36,8.94s-49.64,5.88-80.47,42.35c-7.29,9.65-17.88,23.3-17.88,23.3S357.61,357.57,367.61,382.86Z" style="fill:#e8e8e8;stroke:#000;stroke-miterlimit:10;stroke-width:4px"/><ellipse cx="563.44" cy="292.37" rx="74.17" ry="88.72" style="fill:#e8e8e8;stroke:#000;stroke-miterlimit:10;stroke-width:4px"/><ellipse cx="562.08" cy="291.04" rx="57.18" ry="65.12" style="fill:none;stroke:#000;stroke-miterlimit:10;stroke-width:4px"/><path d="M516.79,206s3.09,8.93-3.41,18.94c-.77.5-1.53,1.64-3.53-.83s-12.46-12-12.46-12" style="fill:none;stroke:#000;stroke-miterlimit:10;stroke-width:4px"/><path d="M476.2,229.33s13.88,11.41,11.77,32.94c-.53,1.41-.36,3.13-3.53,2.54s-18.95-2.67-28-1.36" style="fill:none;stroke:#000;stroke-miterlimit:10;stroke-width:4px"/><path d="M453.4,272.48s24,17.85,33.33,41.85c-1.59,1.59-37.12,21.82-47,49.82s-23.29,55.53-23.29,55.53-2.36,5.65-7.89,5.41" style="fill:none;stroke:#000;stroke-miterlimit:10;stroke-width:4px"/><path d="M498.55,498.51s3.53-1.89,3.3-8-4.24-42.36-6.12-58.36-4-37.64,14.35-74.11c-1.17-2.83-28.32-24.9-43.34-29" style="fill:none;stroke:#000;stroke-miterlimit:10;stroke-width:4px"/><path d="M593.7,478.65s-22.44-27.91-27.85-37.08-13.12-25-16.21-62c-4.65-1.23-29-8.45-44.73-10.4" style="fill:none;stroke:#000;stroke-miterlimit:10;stroke-width:4px"/><path d="M619.26,405.65A120.45,120.45,0,0,1,593.7,373.4" style="fill:none;stroke:#000;stroke-miterlimit:10;stroke-width:4px"/><path d="M776.14,292.37c0,138.6-93.08,253-213.35,253S338.32,430.86,338.32,292.27,435.82,41.33,556.08,41.33,773.14,159.57,776.14,292.37Z" style="fill:none;stroke:#000;stroke-miterlimit:10;stroke-width:4px"/><path d="M764.67,292.66c0,131.73-87.94,240.43-201.57,240.43S351,424.29,351,292.56,443.14,54,556.76,54,764.67,160.92,764.67,292.66Z" style="fill:none;stroke:#000;stroke-miterlimit:10;stroke-width:4px"/><path d="M299,206l6,1.26a1.72,1.72,0,0,0,1.33-1.94,33.62,33.62,0,0,0-1.72-5.34,5.56,5.56,0,0,1-.2-3.51c1.82-6.74,8.1-30.15,8.86-35.11a2.1,2.1,0,0,0,0-.79c-.88-4.06-1.3-9-.62-11.87s3.53-14.59,10.94-18.35,14.71,9.53,14.71,9.53,2.12,16.35,0,27.88-5.18,19.65-4.47,32.59c2.47,0,7.29.82,8.82,4.12s2.94,3.29,3.88,1.53a269.28,269.28,0,0,1,59.3-104C414.55,93.57,443,63,495,46.27c2.59-.94,3.4-1.5,3.62-2.2s-.31-1.11-1.32-1.42-9.71-3.55-9.71-3.55" style="fill:none;stroke:#000;stroke-miterlimit:10;stroke-width:4px"/><path d="M315.91,26.66s-16.41.68-21.36,12.44S289.08,56.33,291,63.92s8,31.41,17.48,42.88c1.76,3.53,9.7,12.71,13.76,12.71,3.18-1.77,3.53-1.24,4.59-5.47s1.94-19.59,0-42.18c-1.06-14.82-3.53-34.41,4.23-43.41" style="fill:none;stroke:#000;stroke-miterlimit:10;stroke-width:4px"/><path d="M326.36,68.58a11,11,0,0,1-3.41.54A10.54,10.54,0,1,1,323,48a11,11,0,0,1,2.7.33" style="fill:none;stroke:#000;stroke-miterlimit:10;stroke-width:4px"/><path d="M316.57,49.85a10.59,10.59,0,0,1,8.05,10.2,10.43,10.43,0,0,1-4.34,8.45" style="fill:none;stroke:#000;stroke-miterlimit:10;stroke-width:4px"/><path d="M345.59,207.1s-5.15-12.24-1.27-28.48,10.48-30.7,1.27-67.23-13.27-55.94-13.27-55.94-5.82-22.94,10.41-32.83,32.13-2.25,32.13-2.25" style="fill:none;stroke:#000;stroke-miterlimit:10;stroke-width:4px"/><ellipse cx="362.19" cy="49.71" rx="9.75" ry="11.21" style="fill:none;stroke:#000;stroke-miterlimit:10;stroke-width:4px"/><path d="M355.82,40.91c3.72,1.58,6.37,5.69,6.37,10.51a11.91,11.91,0,0,1-3.51,8.6" style="fill:none;stroke:#000;stroke-miterlimit:10;stroke-width:4px"/><path d="M352.44,60.92s12.76,8.53,19.5,0c2.5-3.59,4-8.77,1.2-17.83-.47-2.47-.94-2.7.71-4.58a37.08,37.08,0,0,1,2.82-2.94s.12-1.18,2.59,0,27.29,17.64,49.18,20.35c4.7.7,12.82,3.25,7.41,9.76,0,0-44.12,31.65-63.06,65.06-1.53,2.47-2.24,4.94-5.77,4s-5-4.94-5-7.29-.83-20.71-12.59-53.53c-1.53-4-3.3-7.53-.71-10.35S352.44,60.92,352.44,60.92Z" style="fill:#c6c6c6;stroke:#000;stroke-miterlimit:10;stroke-width:4px"/><path d="M338,169.63s-60.59,90.52-2.24,239.23" style="fill:none;stroke:#000;stroke-miterlimit:10;stroke-width:4px"/><path d="M333.86,191.26c-14.19,35.71-31.07,101.11.75,200.19,0,0-.53,9.17,2.65,24.94,1.06,9.06,1.18,26.23-10.94,31.29-3.18.47-13.5.83-15.34-18.94-.07-2.59-.19-4.35,1.1-7.29-.23-4.47-6.64-30.23-10-40" style="fill:none;stroke:#000;stroke-miterlimit:10;stroke-width:4px"/><path d="M297,374.12h8.24s-5.41,4.86-2.59,18,8.12,32.47,5.53,51.3-4.77,23.76-7.53,29.64-15,34.21-15,34.21" style="fill:none;stroke:#000;stroke-miterlimit:10;stroke-width:4px"/><path d="M333.85,554.74s-12.35-7.53-11.53-24.7,4.82-46,4.35-54.83-2.31-13.76-4.39-14.94-7.14-.12-10.2,4.94-13.64,18.47-20.23,41.06c-2.71,10.12-8.83,29.53,4.82,41.77,4.76,3.57,7.53,6.7,15.53,8.11" style="fill:none;stroke:#000;stroke-miterlimit:10;stroke-width:4px"/><path d="M329.44,374.12s8.06,4.86,12.06-2.67c.94-2.36,3.64-2.38,5.29,2.1s36,119.78,146.35,163.07c2.83,2.12,3.65,1.77,2.83,3.06s-3.61,6.1-20.19,4.61" style="fill:none;stroke:#000;stroke-miterlimit:10;stroke-width:4px"/><path d="M304.68,374.78s16.23,32.9,21.64,72.9" style="fill:none;stroke:#000;stroke-miterlimit:10;stroke-width:4px"/><path d="M345,370.56s-4.53,11.45-2.24,21,9.36,37.11,2.24,65.69-14,54.45-14,54.45-8.7,25.18,1.18,35.3,21,18.87,43.53,11.06" style="fill:none;stroke:#000;stroke-miterlimit:10;stroke-width:4px"/><path d="M361.61,450.62s1.89-15.41,8.24-6.94,30.5,46.24,62.72,69.89c2.93,2.82,7.54,8.11,0,10.11s-23.9,2.47-52.84,17.53c-1.29.71-4.94,2.47-6.47.94a35.77,35.77,0,0,1-3.06-3.64s-1.06-.71.47-4.24,3.88-8.94-1.17-17.41-15.3-2.59-15.3-2.59-2.94,2.94-4.94,1.41a15.84,15.84,0,0,1-3.29-3.53s-2.12-1.64,0-7.29A253,253,0,0,0,361.61,450.62Z" style="fill:#c6c6c6;stroke:#000;stroke-miterlimit:10;stroke-width:4px"/><ellipse cx="359.91" cy="526.48" rx="9.94" ry="10.99" style="fill:none;stroke:#000;stroke-miterlimit:10;stroke-width:4px"/><path d="M354,517.39a11.12,11.12,0,0,1,5.9,10.05,11.39,11.39,0,0,1-4,8.8" style="fill:none;stroke:#000;stroke-miterlimit:10;stroke-width:4px"/><path d="M329.14,178s9-17.1,6.38-42.26c0,0-9.44,1.9-13.55,19.08s-3.11,19.29-8.68,30.71-7,19.3-7,19.3" style="fill:none;stroke:#000;stroke-miterlimit:10;stroke-width:4px"/><path d="M333.12,133.12s-13.67,1.61-19.83,27.49" style="fill:none;stroke:#000;stroke-miterlimit:10;stroke-width:4px"/><path d="M632.85,51.57s.26,3,2.47,3.88c1.3.54,40.37,16,75.7,55.76,24.71,27.77,49.62,70.72,55.77,106.59,1.94,4.59,2.82,5.18,3.76,5.88" style="fill:none;stroke:#000;stroke-miterlimit:10;stroke-width:4px"/><path d="M681.29,58.62s16,.8,31.32-4.42" style="fill:none;stroke:#000;stroke-miterlimit:10;stroke-width:4px"/><path d="M695.86,73a16.11,16.11,0,0,1,4-.4c3.81,0,19.86-.35,39.77-10,3.44-1.41,5.12-2.73,6.71-1.32s3.18,3,3.18,3,1.67,1.32,0,4.85S746.41,83.51,752,87c4.94,3.17,7.32,3.26,13.14.79,1.33-.26,2.56-1.24,3.89.53a8.67,8.67,0,0,1,1.55,2.73s1.56,1.15,0,5.21-10.73,24-12.32,49.85c-.44,3.89-.79,6.53-2.56,7.24s-4.85,1.68-7-2.56-19-36.79-54.15-67.62c-1.53-1.88-4.35-4.47-2.23-8.47A7.66,7.66,0,0,1,695.86,73Z" style="fill:#c6c6c6;stroke:#000;stroke-miterlimit:10;stroke-width:4px"/><ellipse cx="758.75" cy="76.61" rx="7.88" ry="9.71" style="fill:none;stroke:#000;stroke-miterlimit:10;stroke-width:4px"/><path d="M753.23,69.46c2.72,1.53,4.61,4.91,4.61,8.83a10.85,10.85,0,0,1-2.48,7.08" style="fill:none;stroke:#000;stroke-miterlimit:10;stroke-width:4px"/><path d="M664,535.09c29.34-2.56,54.75,8.36,54.75,8.36" style="fill:none;stroke:#000;stroke-miterlimit:10;stroke-width:4px"/><path d="M638.68,539.23c-2.37-.63-5.3-2-6.63-3.61s4-2.53,4-2.53,39.48-13.28,82.77-62.58c30.36-34.75,46.11-84.18,50.82-99.77" style="fill:none;stroke:#000;stroke-miterlimit:10;stroke-width:4px"/><path d="M760.56,549.48a92.9,92.9,0,0,1-24.92-6c-13.41-5.27-40.85-15.59-54.88-12.68s-17.47,4.42-17.47,4.42" style="fill:none;stroke:#000;stroke-miterlimit:10;stroke-width:4px"/><path d="M697,505.68s27.82-19.43,51.3-60.23c2.47-3.88,2.59-6.94,6.94-7.3s3.65,10,3.65,10a177.4,177.4,0,0,0,11.88,52.12,5.58,5.58,0,0,1-.77,3.59l-2.11,3.23s-1.12,1.06-3.24,0-9.36-3.95-13.59,1-5.7,10.06-2.06,17.65c.83,1.94,1,3.46-.17,4.52s-2.06,2.07-2.06,2.07-.24,1.29-3.77,0S727.55,522,705.38,518.27c-6.3-.94-11.36-1.47-12.06-3.7A8,8,0,0,1,697,505.68Z" style="fill:#c6c6c6;stroke:#000;stroke-miterlimit:10;stroke-width:4px"/><ellipse cx="757.88" cy="518.29" rx="8.74" ry="10.41" style="fill:none;stroke:#000;stroke-miterlimit:10;stroke-width:4px"/><path d="M753.33,509.39a11.59,11.59,0,0,1-.06,17.36" style="fill:none;stroke:#000;stroke-miterlimit:10;stroke-width:4px"/></g></g></svg>