<svg xmlns="http://www.w3.org/2000/svg" viewBox="0 0 572.83 411.3"><defs><style>.cls-1,.cls-10{fill:#fff;}.cls-11,.cls-2,.cls-6,.cls-7,.cls-8,.cls-9{fill:none;}.cls-2{stroke:#b5221d;stroke-width:1.67px;}.cls-10,.cls-11,.cls-2,.cls-6,.cls-7,.cls-8,.cls-9{stroke-miterlimit:10;}.cls-3{fill:#e6e6e6;}.cls-4{font-size:15px;font-family:MyriadPro-Regular, Myriad Pro;}.cls-4,.cls-5{fill:#b5221d;}.cls-10,.cls-6,.cls-7,.cls-8,.cls-9{stroke:#272626;}.cls-10,.cls-6{stroke-width:1.58px;}.cls-7{stroke-width:1.4px;}.cls-8{stroke-width:0.69px;}.cls-9{stroke-width:0.78px;}.cls-11{stroke:#211915;}</style></defs><title>espec</title><g id="Camada_2" data-name="Camada 2"><g id="Camada_3" data-name="Camada 3"><polygon class="cls-1" points="197.48 339.49 191.69 341.65 182.97 341.65 172.7 339.44 159.68 337.98 151.94 338.44 138.54 341.65 119.85 348.12 107.27 351.7 96.89 352.81 87.76 350.1 80.32 342.09 77.07 331.55 80.32 316.29 85.61 300.64 89.3 286.46 89.7 272.72 89.45 263.13 87.77 256.1 86.3 249.77 84.8 243.11 84.38 238.35 85.59 235.59 87.25 232.94 109.86 269.58 197.48 339.49"/><polygon class="cls-1" points="305.18 337.98 308.92 339.91 314.02 340.24 322.29 338.41 331.4 336.05 339.62 335.09 351.15 335.48 364.49 337.23 370.81 338.75 380.75 341.83 388.74 344.7 395.21 346.22 403.29 346.97 410.18 345.99 415.07 343.73 418.4 341.03 421.21 337.98 423.36 333.98 424.56 328.29 424.56 324.58 423.6 318.36 421.26 309.04 416.45 295.48 412.23 282.63 410.18 273.37 409.92 261.3 410.86 251.1 413.38 241.32 413.74 237.29 412.92 231.71 411.49 228.03 410.79 227.42 305.18 337.98"/><polygon class="cls-1" points="86.83 120.36 84.64 112.67 84.64 106.2 87.63 97.98 89.21 87.41 89.6 77.29 89.06 71.08 86.83 61.54 82.5 47.17 79.09 35.94 77.27 25.05 77.07 19.17 79.24 11.85 83.33 6.62 87.76 3.52 94.16 1.34 99.68 0.83 105.15 1.74 112.98 3.65 122.44 7.41 132.09 10.73 144.44 13.67 155.68 14.92 165.57 15.23 174.75 13.57 181.86 12.2 188.87 11.01 192.86 11.52 195.77 12.92 196.78 14.49 105.8 88.7 86.83 120.36"/><polygon class="cls-1" points="300.95 15.14 302.59 13.74 308.05 12.24 313.45 12.24 319.81 13.95 328.88 15.87 343.56 16.54 349.79 15.97 360.71 13.2 376.93 7.93 386.57 4.97 393.16 3.69 400.74 3.03 406.15 3.77 410.8 5.9 414.08 8.53 418.4 13.95 420.07 19.73 420.47 25.29 419.55 32.76 417.25 40.97 414.02 49.56 410.42 61.33 408.6 70.4 407.58 81.19 407.45 91.85 410.15 104.85 412.06 114.94 411.56 118.78 409.51 122.61 303.56 23.05 300.95 15.14"/><line class="cls-2" x1="20.09" y1="7.94" x2="19.53" y2="341.65"/><rect class="cls-3" y="165.99" width="39.67" height="16.67"/><text class="cls-4" transform="translate(237 399.42)">12cm</text><line class="cls-2" x1="86.88" y1="402.41" x2="412.93" y2="402.41"/><line class="cls-2" x1="77.07" y1="409.49" x2="77.07" y2="318.59"/><polygon class="cls-5" points="78.69 402.41 90.95 409.49 90.95 395.33 78.69 402.41"/><line class="cls-2" x1="424.56" y1="409.49" x2="424.56" y2="318.59"/><polygon class="cls-5" points="423.95 402.41 411.68 409.49 411.68 395.33 423.95 402.41"/><text class="cls-4" transform="translate(522.87 391.4)">2,5cm</text><line class="cls-2" x1="511.91" y1="404.22" x2="561.33" y2="404.22"/><line class="cls-2" x1="512.66" y1="411.3" x2="512.66" y2="347.33"/><polygon class="cls-5" points="513.08 404.22 525.34 411.3 525.34 397.14 513.08 404.22"/><line class="cls-2" x1="572" y1="411.3" x2="572" y2="347.33"/><polygon class="cls-5" points="571.59 404.22 559.33 411.3 559.33 397.14 571.59 404.22"/><text class="cls-4" transform="translate(2.27 178.77)">12cm</text><polygon class="cls-5" points="20.09 1.93 13.01 14.2 27.17 14.2 20.09 1.93"/><line class="cls-2" x1="12.45" y1="352.7" x2="103.35" y2="352.7"/><line class="cls-2" x1="12.45" y1="0.83" x2="103.35" y2="0.83"/><polygon class="cls-5" points="19.53 351.7 12.45 339.44 26.61 339.44 19.53 351.7"/><circle class="cls-1" cx="248.11" cy="177.07" r="170.29"/><circle class="cls-3" cx="248.11" cy="177.07" r="151.22"/><circle class="cls-1" cx="248.11" cy="177.07" r="56.52"/><circle class="cls-1" cx="248.11" cy="176.93" r="46.31"/><circle class="cls-1" cx="99.19" cy="325.69" r="7.16"/><path class="cls-1" d="M234,122.32s-15-31.44-61.61-42c-10.59-1.67-18.16-3.22-18.16-3.22s-7.81-1.71-11.63,2.24c-5.17,5.37-19.32,25-21.28,31.93-2.44,5.07-2.73,8.79,2.84,10s30.26-.87,39.18-1.66S182.84,122,187,123.52s22.65,12.13,22.65,12.13"/><path class="cls-1" d="M206.65,139.24s-29.75-18.16-74.54-1.62c-9.78,4.37-17,7.2-17,7.2s-7.48,2.82-8.53,8.22c-1.41,7.32-2.58,31.48-.44,38.36.73,5.59,2.5,8.86,7.86,6.89s24.9-17.24,32-22.75,17.56-8.7,21.9-9.66,25.6-2.18,25.6-2.18"/><path class="cls-1" d="M192.59,168.19s-34.86.41-64,38.22c-6,8.9-10.57,15.11-10.57,15.11s-4.83,6.37-2.85,11.49c2.68,7,14.53,28.05,20,32.74,3.57,4.35,6.82,6.18,10.31,1.67s12-27.82,15-36.24,10.26-16.69,13.43-19.82,20.54-15.44,20.54-15.44"/><path class="cls-1" d="M196.39,200.16s-29,19.34-32.85,66.94c-.15,10.71-.62,18.43-.62,18.43s-.58,8,3.87,11.19c6,4.37,27.47,15.6,34.61,16.55,5.37,1.7,9.09,1.46,9.56-4.23s-5.15-29.83-7.19-38.55-.49-19.59.47-23.93,9.12-24.92,9.12-24.92"/><path class="cls-1" d="M216.75,224.17s-13.74,32,9,74c5.73,9.06,9.54,15.78,9.54,15.78s3.87,7,9.35,7.27c7.45.35,31.54-1.94,38-5,5.43-1.51,8.41-3.73,5.7-8.75s-20.61-22.19-27.07-28.38-11.11-16.14-12.68-20.31-5.81-25-5.81-25"/><path class="cls-1" d="M247.52,233.63s5.95,34.34,47.91,57.13c9.73,4.48,16.6,8,16.6,8s7.05,3.77,11.8,1c6.44-3.76,25.38-18.81,29.14-25,3.73-4.23,5-7.72,0-10.45s-29.37-7.37-38.16-9-18.12-7.48-21.7-10.11-18.51-17.82-18.51-17.82"/><path class="cls-1" d="M278.57,225.12s23.27,25.95,70.93,23c10.63-1.38,18.34-2,18.34-2s8-.56,10.52-5.42c3.46-6.61,11.52-29.42,11.45-36.62.91-5.56.15-9.2-5.54-8.86s-28.8,9.35-37.14,12.61-19.32,3.28-23.76,2.95-25.15-5.27-25.15-5.27"/><path class="cls-1" d="M300.11,201.19s33.65,9.07,72-19.4c8.16-6.94,14.27-11.67,14.27-11.67s6.39-4.82,5.87-10.29c-.7-7.42-6.37-30.94-10.36-36.94-2.26-5.16-4.88-7.8-9.47-4.4S353.36,142,348.14,149.3s-14.4,13.28-18.3,15.42-24.75,9.56-24.75,9.56"/><path class="cls-1" d="M303.82,170.44s33.39-10,51-54.39c3.28-10.2,6-17.44,6-17.44s2.89-7.46-.43-11.84c-4.5-5.94-21.71-22.95-28.25-25.95-4.64-3.19-8.26-4.06-10.38,1.25s-3.8,30-4.41,39-5.25,18.87-7.44,22.75-15.48,20.51-15.48,20.51"/><path class="cls-1" d="M291.78,141.31s23-26.21,14.33-73.17c-2.64-10.38-4.19-18-4.19-18s-1.51-7.85-6.65-9.8c-7-2.65-30.58-7.92-37.72-7-5.63-.24-9.15,1-8.13,6.56s12.73,27.48,17,35.37,5.56,18.78,5.77,23.23-2.23,25.6-2.23,25.6"/><path class="cls-1" d="M265.44,122.79s5-34.5-27.87-69.16c-7.87-7.27-13.3-12.77-13.3-12.77s-5.54-5.77-10.91-4.6c-7.28,1.58-30,10-35.44,14.7-4.85,2.87-7.15,5.79-3.23,9.94S200.33,77,208.18,81.3,223.09,94,225.68,97.63s12.44,23.44,12.44,23.44"/><circle class="cls-6" cx="248.11" cy="176.91" r="170.29"/><circle class="cls-7" cx="248.11" cy="176.91" r="151.22"/><circle class="cls-6" cx="248.11" cy="176.91" r="56.52"/><circle class="cls-8" cx="248.11" cy="176.77" r="46.31"/><path class="cls-9" d="M234,122.16s-15-31.44-61.61-42C161.84,78.51,154.27,77,154.27,77s-7.81-1.71-11.63,2.24c-5.17,5.37-19.32,25-21.28,31.93-2.44,5.07-2.73,8.78,2.84,10.05s30.26-.88,39.18-1.66,19.46,2.28,23.63,3.84,22.65,12.13,22.65,12.13"/><path class="cls-9" d="M206.65,139.07s-29.75-18.15-74.54-1.61c-9.78,4.37-17,7.2-17,7.2s-7.48,2.82-8.53,8.21c-1.41,7.32-2.58,31.49-.44,38.37.73,5.59,2.5,8.86,7.86,6.89s24.9-17.24,32-22.75,17.56-8.7,21.9-9.66,25.6-2.18,25.6-2.18"/><path class="cls-9" d="M192.59,168s-34.86.41-64,38.22c-6,8.9-10.57,15.11-10.57,15.11s-4.83,6.37-2.85,11.49c2.68,7,14.53,28,20,32.74,3.57,4.35,6.82,6.18,10.31,1.67s12-27.83,15-36.24,10.26-16.7,13.43-19.82,20.54-15.44,20.54-15.44"/><path class="cls-9" d="M196.39,200s-29,19.34-32.85,66.94c-.15,10.71-.62,18.43-.62,18.43s-.58,8,3.87,11.19c6,4.36,27.47,15.6,34.61,16.55,5.37,1.7,9.09,1.46,9.56-4.23s-5.15-29.83-7.19-38.55-.49-19.59.47-23.93,9.12-24.92,9.12-24.92"/><path class="cls-9" d="M216.75,224s-13.74,32,9,74c5.73,9.06,9.54,15.78,9.54,15.78s3.87,7,9.35,7.27c7.45.35,31.54-1.94,38-5,5.43-1.51,8.41-3.73,5.7-8.75s-20.61-22.19-27.07-28.38-11.11-16.14-12.68-20.31-5.81-25-5.81-25"/><path class="cls-9" d="M247.52,233.47s5.95,34.34,47.91,57.13c9.73,4.47,16.6,8,16.6,8s7.05,3.77,11.8,1c6.44-3.76,25.38-18.81,29.14-25,3.73-4.22,5-7.71,0-10.44s-29.37-7.37-38.16-9-18.12-7.48-21.7-10.11-18.51-17.82-18.51-17.82"/><path class="cls-9" d="M278.57,225s23.27,25.95,70.93,23c10.63-1.38,18.34-2,18.34-2s8-.56,10.52-5.43c3.46-6.6,11.52-29.41,11.45-36.61.91-5.56.15-9.21-5.54-8.86s-28.8,9.35-37.14,12.61-19.32,3.28-23.76,3-25.15-5.27-25.15-5.27"/><path class="cls-9" d="M300.11,201s33.65,9.07,72-19.4c8.16-6.94,14.27-11.68,14.27-11.68s6.39-4.81,5.87-10.28c-.7-7.42-6.37-30.94-10.36-36.94-2.26-5.16-4.88-7.8-9.47-4.4s-19.05,23.53-24.27,30.81-14.4,13.28-18.3,15.42-24.75,9.56-24.75,9.56"/><path class="cls-9" d="M303.82,170.28s33.39-10,51-54.39c3.28-10.2,6-17.44,6-17.44s2.89-7.46-.43-11.84c-4.5-5.94-21.71-23-28.25-25.95-4.64-3.2-8.26-4.06-10.38,1.24s-3.8,30-4.41,39-5.25,18.88-7.44,22.76-15.48,20.51-15.48,20.51"/><path class="cls-9" d="M291.78,141.15s23-26.21,14.33-73.17c-2.64-10.39-4.19-18-4.19-18s-1.51-7.85-6.65-9.8c-7-2.65-30.58-7.93-37.72-7-5.63-.25-9.15,1-8.13,6.56s12.73,27.48,17,35.37,5.56,18.78,5.77,23.23-2.23,25.6-2.23,25.6"/><path class="cls-9" d="M265.44,122.63s5-34.5-27.87-69.16c-7.87-7.27-13.3-12.77-13.3-12.77s-5.54-5.77-10.91-4.6c-7.28,1.58-30,10-35.44,14.7-4.85,2.87-7.15,5.79-3.23,9.94s25.64,16.09,33.49,20.4,14.91,12.72,17.5,16.33,12.44,23.43,12.44,23.43"/><rect class="cls-10" x="512.66" y="52.59" width="17.89" height="248.08"/><rect class="cls-10" x="554.11" y="52.59" width="17.89" height="248.08"/><rect class="cls-10" x="512.66" y="6.62" width="59.34" height="45.97"/><rect class="cls-10" x="512.66" y="300.69" width="59.34" height="45.97"/><path class="cls-11" d="M87.76,34.13c0-1.21,2.74-4,2.74-4a1,1,0,0,1,1.15-.4l3.54,1.1a9.32,9.32,0,0,0,11.1-4.25,9.5,9.5,0,0,0,1-6.39l-.71-4a1.4,1.4,0,0,1,.46-1.29s1.48-2,2.22-2c1.14,0,3.7,1.07,6.65,2.55a89.62,89.62,0,0,0,28.52,8.66c3.78.5,7,1.36,7.47,2.84,1.16,3.3-20.67,16.53-27.4,23.43-6.09,6.24-20.08,26.06-23,26.07-2.22,0-3.12-3.32-3.39-7.39a79.84,79.84,0,0,0-8.92-31.75A14.5,14.5,0,0,1,87.76,34.13Z"/><circle class="cls-11" cx="98.27" cy="22.76" r="6.88"/><path class="cls-11" d="M96.76,29.47c-1.25-3.8,0-5.49,1.26-6.71,1.48-1.45,4.19-1.71,7.13,0"/><path class="cls-11" d="M86.83,120.36a21.67,21.67,0,0,1-2.25-8.46,22.31,22.31,0,0,1,1.63-9.3c3-8,3.19-16.65,3.38-24.24C89.76,71.14,87.85,64.76,84,52c-3-9.87-5.5-15.33-6.63-25.76-.62-5.75-.47-9.75,1.51-13.77a21,21,0,0,1,9.52-9.3C95-.06,101.42,1,107.12,2.1c6.15,1.14,8.1,2.63,15.54,5.39,6.42,2.38,16.62,6.09,29.3,7.13,9.57.78,15.08,1.23,21.41-.74.74-.23,5-1,13.41-2.61a12.21,12.21,0,0,1,5.65.11,12,12,0,0,1,4.36,2.29"/><path class="cls-11" d="M86.83,120.36C92.34,106,103,84,119.74,64.61c18.88-21.81,37.93-33,42-35.36,13.07-7.54,26.15-13,35.1-15.58"/><path class="cls-11" d="M413.38,313.49c0,1.21-2.59,4.07-2.59,4.07a1,1,0,0,1-1.14.44l-3.58-1a9.49,9.49,0,0,0-6.29.34,9.66,9.66,0,0,0-4.65,4.32,9.51,9.51,0,0,0-.75,6.41l.86,4a1.4,1.4,0,0,1-.4,1.3s-1.42,2-2.16,2c-1.13.06-3.73-.93-6.73-2.3a89.8,89.8,0,0,0-28.82-7.6c-3.8-.36-7-1.1-7.58-2.56-1.27-3.25,20.05-17.28,26.52-24.42,5.85-6.47,19.1-26.8,22-26.91,2.21-.09,3.23,3.19,3.65,7.25a79.84,79.84,0,0,0,10.1,31.4A14.85,14.85,0,0,1,413.38,313.49Z"/><circle class="cls-11" cx="403.29" cy="325.24" r="6.88"/><path class="cls-11" d="M404.55,318.48c1.39,3.75.2,5.48-1,6.75-1.42,1.51-4.12,1.87-7.12.28"/><path class="cls-11" d="M411.11,227.28a21.79,21.79,0,0,1,2.56,8.38,22.4,22.4,0,0,1-1.29,9.35c-2.68,8.14-2.57,16.75-2.47,24.35.09,7.22,2.24,13.52,6.54,26.12,3.33,9.75,6.06,15.11,7.58,25.49.83,5.72.83,9.72-1,13.81a21.1,21.1,0,0,1-9.16,9.66c-6.45,3.49-12.92,2.62-18.66,1.78-6.19-.92-8.19-2.33-15.72-4.81-6.5-2.15-16.84-5.48-29.55-6-9.59-.43-15.11-.67-21.37,1.53-.73.25-4.92,1.2-13.3,3.1a12.16,12.16,0,0,1-5.65.1,11.76,11.76,0,0,1-4.44-2.12"/><path class="cls-11" d="M411.11,227.28c-5,14.6-14.79,37-30.83,56.94-18,22.49-36.67,34.42-40.61,36.88C326.89,329.13,314,335,305.18,338"/><path class="cls-11" d="M111.27,341.65c-1.21,0-4.07-2.6-4.07-2.6a1,1,0,0,1-.44-1.14l1-3.57a9.27,9.27,0,0,0-11.06-11.71l-4,.86a1.41,1.41,0,0,1-1.31-.41s-2-1.42-2-2.16c0-1.13.94-3.73,2.32-6.73a89.91,89.91,0,0,0,7.63-28.81c.36-3.79,1.11-7,2.57-7.57,3.25-1.27,17.25,20.07,24.39,26.55,6.45,5.86,26.77,19.13,26.88,22,.08,2.21-3.2,3.23-7.26,3.65a79.81,79.81,0,0,0-31.41,10.05A15.09,15.09,0,0,1,111.27,341.65Z"/><circle class="cls-11" cx="99.53" cy="331.55" r="6.88"/><path class="cls-11" d="M106.29,332.81c-3.75,1.39-5.48.19-6.75-1-1.51-1.43-1.86-4.13-.27-7.13"/><path class="cls-11" d="M197.48,339.49A21.69,21.69,0,0,1,189.1,342a22.36,22.36,0,0,1-9.35-1.3c-8.14-2.69-16.75-2.59-24.34-2.51-7.23.09-13.53,2.23-26.13,6.51-9.76,3.32-15.13,6-25.5,7.55-5.73.82-9.73.81-13.82-1a21.08,21.08,0,0,1-9.64-9.18c-3.48-6.44-2.61-12.91-1.75-18.65.92-6.19,2.33-8.19,4.82-15.72,2.16-6.5,5.5-16.83,6.08-29.54.44-9.59.7-15.11-1.5-21.37-.25-.73-1.2-4.92-3.08-13.31a12.12,12.12,0,0,1-.1-5.64,11.67,11.67,0,0,1,2.13-4.44"/><path class="cls-11" d="M86.92,233.42c2.93,8.85,8.83,21.72,16.83,34.51,2.46,3.94,14.37,22.57,36.83,40.66,20,16.07,42.31,25.9,56.9,30.9"/><path class="cls-11" d="M387.19,14c1.21,0,4,2.67,4,2.67a1,1,0,0,1,.42,1.15l-1,3.55a9.28,9.28,0,0,0,10.84,11.91l4-.78a1.39,1.39,0,0,1,1.3.44s2,1.45,2,2.19c0,1.13-1,3.71-2.44,6.69a89.47,89.47,0,0,0-8.17,28.66c-.44,3.79-1.24,7-2.71,7.52-3.28,1.21-16.88-20.39-23.89-27-6.35-6-26.41-19.63-26.47-22.54,0-2.21,3.26-3.17,7.33-3.51A79.77,79.77,0,0,0,384,15.44,14.66,14.66,0,0,1,387.19,14Z"/><circle class="cls-11" cx="398.74" cy="24.27" r="6.88"/><path class="cls-11" d="M392,22.88c3.78-1.32,5.49-.09,6.73,1.14,1.48,1.45,1.79,4.15.14,7.13"/><path class="cls-11" d="M301,14.5a21.75,21.75,0,0,1,8.43-2.39,22.2,22.2,0,0,1,9.32,1.47c8.09,2.84,16.7,2.9,24.3,3,7.22.05,13.56-2,26.24-6,9.82-3.13,15.24-5.76,25.64-7.07,5.74-.72,9.74-.63,13.79,1.27a21.11,21.11,0,0,1,9.47,9.36c3.36,6.51,2.37,13,1.41,18.68-1,6.17-2.49,8.15-5.12,15.63-2.28,6.46-5.81,16.72-6.63,29.42-.62,9.58-1,15.1,1.1,21.4.24.73,1.11,4.94,2.84,13.36a12.27,12.27,0,0,1,0,5.65,11.8,11.8,0,0,1-2.21,4.39"/><path class="cls-11" d="M301,14.5c14.5,5.27,36.66,15.52,56.31,32C379.39,65,391,83.81,393.33,87.79c7.77,12.94,13.42,25.92,16.19,34.82"/></g></g></svg>