<svg id="Camada_1" data-name="Camada 1" xmlns="http://www.w3.org/2000/svg" viewBox="0 0 595.28 841.89"><defs><style>.cls-1{fill:#fff;stroke:#1d1d1b;stroke-miterlimit:10;stroke-width:3px;}</style></defs><title>diagonal </title><path class="cls-1" d="M237,379.53s.34-46,17-62,68.34-15.33,68.34-15.33l-35.14,81.66Z"/><circle class="cls-1" cx="287.15" cy="566.77" r="193.81"/><circle class="cls-1" cx="304.04" cy="562.82" r="115.58"/><rect class="cls-1" x="209.48" y="516.93" width="34.64" height="20.55" rx="10.27" ry="10.27" transform="translate(213.17 -46.55) rotate(21.92)"/><rect class="cls-1" x="227.61" y="617.67" width="34.64" height="20.55" rx="10.27" ry="10.27" transform="translate(-372.28 357.11) rotate(-45)"/><rect class="cls-1" x="326.07" y="630.81" width="34.64" height="20.55" rx="10.27" ry="10.27" transform="translate(-100.58 1217.1) rotate(-114.2)"/><rect class="cls-1" x="368.85" y="539.11" width="34.64" height="20.55" rx="10.27" ry="10.27" transform="translate(820.09 1061.88) rotate(174.85)"/><path class="cls-1" d="M378.9,635.19a11.27,11.27,0,0,1-5.88,3.86c-2.94.74-6.65.31-8.82-5.1-4-10-7.5-27.5,1.5-44.25S393,568,397.45,569.45s9.75,6.75,8,16.25C403.34,597.19,398.91,610.8,378.9,635.19Z"/><path class="cls-1" d="M260.14,661a11.35,11.35,0,0,1-5.46-4.44c-1.6-2.58-2.32-6.24,2.19-9.95,8.31-6.84,23.92-15.49,42.62-12s29,19.36,28.93,24.11-3.48,11.34-13.06,12.55C303.77,672.74,289.46,672.66,260.14,661Z"/><path class="cls-1" d="M199.07,555.53a11.24,11.24,0,0,1,2-6.75c1.76-2.47,4.86-4.55,10-1.83,9.53,5,23.54,16.08,27.54,34.67s-6.65,34.22-11.05,36-11.8,1.18-16.62-7.19C205.1,600.31,199.64,587.08,199.07,555.53Z"/><path class="cls-1" d="M273.2,459.45c2.22-.92,4.28-4.44,6.64-4,3,.54,6.19,2.46,5.92,8.29-.48,10.75,7.31,24.93-7.81,36.47s-37.46,8-46.75,5.75c-4.61-1.12-8.45-7.39-2.93-15.32C234.94,481,237.45,474.2,273.2,459.45Z"/><path class="cls-1" d="M481,350.15C482.35,292,434.73,244.9,377.7,244.9S274.45,292,274.45,350.15l-14,212.67s-1,46.88,42,51.88,64.51-37,64.51-37l81.68-142.93c4-7,8.17-13.79,12.49-20.55C467.8,403.77,480.22,380.38,481,350.15Z"/><circle class="cls-1" cx="318.25" cy="560.9" r="32.65"/><path class="cls-1" d="M307.86,550.13l1.92-1.54a1.74,1.74,0,0,1,2.07-.09L317,552h4.17l6.05-2.38a2.34,2.34,0,0,1,2.45.45l1.38,1.26a2.36,2.36,0,0,1,.47,2.88l-2.93,5.29.25,6.75,2,2.7a2.24,2.24,0,0,1-.06,2.72l-1.9,2.35a2.23,2.23,0,0,1-3.28.21l-2.49-2.4-6.75-.83-4.16,2.22a2.74,2.74,0,0,1-3.19-.44l-2-2a2.72,2.72,0,0,1-.39-3.45l2.93-4.49.5-5.21-2.61-4.91A2,2,0,0,1,307.86,550.13Z"/><path class="cls-1" d="M284.89,304l-35.27,13.55-16.33-71S283,221.2,331,210.2s66.67-12.67,92-12l18.25,68.63Z"/><path class="cls-1" d="M275.48,198.07c.14.14,1.81,13,14.81,12S356,193.7,356,193.7s5.5-1.5,6.67-6.84.85-10.43-1.41-13.46S275.48,198.07,275.48,198.07Z"/><path class="cls-1" d="M280.83,225.81s2.16-11.35,8.48-15.73,68-18.45,68-18.45a77.5,77.5,0,0,1,12.36,10.57S306.87,212.59,280.83,225.81Z"/><path class="cls-1" d="M264.7,74.7s5.5-8,23.75-12,28,0,28,0l5.75,21s-14.75-.25-26,3.5a214.13,214.13,0,0,0-24.5,10.5L269.2,96Z"/><path class="cls-1" d="M322.2,85s7.75,1.75,6.5,7.25-3.5.25-6.5,0-14.25.5-22.75,2.5-26.25,11-27.5,12-4,.87-3.75-.88-2.87-2.87,3.5-8.12C276.72,93.56,311,80.07,322.2,85Z"/><path class="cls-1" d="M272,106.7l16.5,68.75s16.63-6.75,28.88-8.88S342,163.45,342,163.45l-17.17-70S302.2,88.07,272,106.7Z"/><rect class="cls-1" x="271.32" y="169.75" width="90.83" height="24.6" rx="12.3" ry="12.3" transform="translate(-33.59 78.45) rotate(-13.42)"/></svg>