<svg id="Camada_1" data-name="Camada 1" xmlns="http://www.w3.org/2000/svg" viewBox="0 0 717 504"><defs><style>.cls-1,.cls-2,.cls-3,.cls-5,.cls-7,.cls-8{fill:none;}.cls-1,.cls-2,.cls-3,.cls-4,.cls-7,.cls-8,.cls-9{stroke:#e52421;}.cls-1,.cls-2,.cls-3,.cls-5{stroke-linecap:round;stroke-linejoin:round;}.cls-1,.cls-2,.cls-7{stroke-width:2px;}.cls-2{stroke-dasharray:3.01 3.01;}.cls-3{stroke-width:0.85px;}.cls-4,.cls-6,.cls-9{fill:#e52421;}.cls-5{stroke:#1d1d1b;stroke-width:0.5px;}.cls-7,.cls-8{stroke-miterlimit:10;}.cls-8{stroke-width:3px;}.cls-9{font-size:27px;font-family:OpenSans, Open Sans;}</style></defs><line class="cls-1" x1="118.81" y1="222.27" x2="120.31" y2="222.27"/><line class="cls-2" x1="123.32" y1="222.27" x2="646.41" y2="222.27"/><line class="cls-1" x1="647.92" y1="222.27" x2="649.42" y2="222.27"/><path class="cls-3" d="M597.8,157.2s36.73,1.92,46.82,52.29"/><path class="cls-4" d="M646.36,218.21a44.36,44.36,0,0,0-9.34-11l7.37,1.11,6.36-3.86A44.64,44.64,0,0,0,646.36,218.21Z"/><path class="cls-4" d="M588.92,156.73a44.28,44.28,0,0,0,12.94-6.33l-2.9,6.86,2.17,7.13A44.57,44.57,0,0,0,588.92,156.73Z"/><path class="cls-3" d="M123.09,231.51s-16.16,33,23,66.33"/><path class="cls-4" d="M152.82,303.59a44.32,44.32,0,0,1-5-13.49l-2.61,7-6.46,3.69A44.5,44.5,0,0,1,152.82,303.59Z"/><path class="cls-4" d="M127,223.53a44.9,44.9,0,0,1-11.83,8.23l7.41.8,5.17,5.35A44.46,44.46,0,0,1,127,223.53Z"/><path class="cls-4" d="M88.27,288.15v3h-17a5.69,5.69,0,0,1,.37-2.2,11.89,11.89,0,0,1,2.08-3.42,32.54,32.54,0,0,1,4.14-3.89,35.32,35.32,0,0,0,5.66-5.45,6.5,6.5,0,0,0,1.48-3.8,4.25,4.25,0,0,0-1.34-3.17A4.87,4.87,0,0,0,80.14,268a5,5,0,0,0-3.65,1.37,5.17,5.17,0,0,0-1.38,3.79l-3.25-.33a8,8,0,0,1,2.51-5.54,8.56,8.56,0,0,1,5.84-1.91,8.17,8.17,0,0,1,5.87,2.06,6.72,6.72,0,0,1,2.15,5.09,7.69,7.69,0,0,1-.63,3,11.79,11.79,0,0,1-2.09,3.14,51.54,51.54,0,0,1-4.87,4.53q-2.85,2.39-3.65,3.24a10.53,10.53,0,0,0-1.34,1.71Z"/><path class="cls-4" d="M90.58,278.5a23.49,23.49,0,0,1,.94-7.35,9.09,9.09,0,0,1,2.79-4.29A7.15,7.15,0,0,1,99,265.35a7.54,7.54,0,0,1,3.63.84,7,7,0,0,1,2.58,2.4,13.07,13.07,0,0,1,1.6,3.83,25.79,25.79,0,0,1,.57,6.08,23.63,23.63,0,0,1-.93,7.31,9.11,9.11,0,0,1-2.78,4.3A7.82,7.82,0,0,1,93.12,289Q90.59,285.75,90.58,278.5Zm3.24,0q0,6.33,1.49,8.43a4.23,4.23,0,0,0,7.32,0c1-1.4,1.48-4.21,1.48-8.42s-.5-7.05-1.48-8.44a4.42,4.42,0,0,0-3.7-2.09,4,4,0,0,0-3.47,1.84Q93.83,272.16,93.82,278.5Z"/><path class="cls-4" d="M108.72,265a5.82,5.82,0,0,1,1.44-4.18,4.87,4.87,0,0,1,3.69-1.51,5.14,5.14,0,0,1,2.68.71,4.59,4.59,0,0,1,1.82,2,6.52,6.52,0,0,1,.62,2.88,6.26,6.26,0,0,1-.65,2.91,4.47,4.47,0,0,1-1.87,1.95,5.32,5.32,0,0,1-2.6.66,5.07,5.07,0,0,1-2.71-.73,4.68,4.68,0,0,1-1.8-2A6.09,6.09,0,0,1,108.72,265Zm1.47,0a4.3,4.3,0,0,0,1,3.06,3.64,3.64,0,0,0,5.25,0,4.53,4.53,0,0,0,1-3.19,5.6,5.6,0,0,0-.44-2.29,3.48,3.48,0,0,0-1.29-1.51,3.52,3.52,0,0,0-1.92-.54,3.63,3.63,0,0,0-2.59,1A4.63,4.63,0,0,0,110.19,265Z"/><path class="cls-4" d="M669.4,176v4.37H644.91a7.91,7.91,0,0,1,.53-3.16,16.7,16.7,0,0,1,3-4.93,48.8,48.8,0,0,1,6-5.61,50.49,50.49,0,0,0,8.17-7.85,9.42,9.42,0,0,0,2.12-5.47,6.08,6.08,0,0,0-1.93-4.56,7,7,0,0,0-5-1.86,7.12,7.12,0,0,0-5.26,2,7.47,7.47,0,0,0-2,5.46l-4.67-.48c.32-3.49,1.52-6.14,3.61-8a12.33,12.33,0,0,1,8.42-2.74c3.55,0,6.37,1,8.44,3a9.72,9.72,0,0,1,3.11,7.33,11.09,11.09,0,0,1-.91,4.38,17.18,17.18,0,0,1-3,4.52,74.15,74.15,0,0,1-7,6.52c-2.73,2.29-4.48,3.85-5.25,4.66a14.38,14.38,0,0,0-1.92,2.47Z"/><path class="cls-4" d="M672.72,162.06a33.64,33.64,0,0,1,1.36-10.58,13.2,13.2,0,0,1,4-6.18,10.29,10.29,0,0,1,6.72-2.17,11,11,0,0,1,5.23,1.2,9.9,9.9,0,0,1,3.71,3.46,18.32,18.32,0,0,1,2.3,5.51,36.31,36.31,0,0,1,.84,8.76,34.19,34.19,0,0,1-1.34,10.53,13.21,13.21,0,0,1-4,6.19,11.29,11.29,0,0,1-15.15-1.66Q672.72,172.5,672.72,162.06Zm4.68,0q0,9.12,2.14,12.14a6.1,6.1,0,0,0,10.54,0q2.13-3,2.13-12.13t-2.13-12.16a6.34,6.34,0,0,0-5.33-3,5.83,5.83,0,0,0-5,2.66Q677.4,152.93,677.4,162.06Z"/><path class="cls-4" d="M698.86,142.62a8.41,8.41,0,0,1,2.06-6,7,7,0,0,1,5.33-2.18,7.42,7.42,0,0,1,3.86,1,6.67,6.67,0,0,1,2.61,2.85,9.27,9.27,0,0,1,.9,4.15,9.14,9.14,0,0,1-.94,4.2,6.5,6.5,0,0,1-2.69,2.8,7.64,7.64,0,0,1-3.75,1,7.27,7.27,0,0,1-3.9-1.06,6.75,6.75,0,0,1-2.6-2.87A8.72,8.72,0,0,1,698.86,142.62Zm2.11,0a6.16,6.16,0,0,0,1.49,4.39,5.24,5.24,0,0,0,7.57,0,6.57,6.57,0,0,0,1.48-4.6,8,8,0,0,0-.63-3.29A5,5,0,0,0,709,137a5.12,5.12,0,0,0-2.76-.77,5.24,5.24,0,0,0-3.73,1.49C701.48,138.66,701,140.32,701,142.65Z"/><path class="cls-5" d="M539.41,169.27a1202.59,1202.59,0,0,0-143.31,23"/><line class="cls-5" x1="567.37" y1="167.07" x2="567.29" y2="167.03"/><path class="cls-5" d="M363.82,192.36a1208.88,1208.88,0,0,0-152,48.92"/><path class="cls-5" d="M539.86,161.86a1208.66,1208.66,0,0,0-160.39,26.69"/><polyline class="cls-5" points="540.58 169.16 540.44 167.73 540.3 166.36 540.18 165.1 540.08 163.99 539.98 163.09 539.91 162.41 539.87 162 539.87 161.86"/><path class="cls-5" d="M560.56,166.24l-.27,0-.84.12-1.34.19-1.86.27-2.24.32-2.68.39-2.93.43-3.24.48-4.58.68"/><line class="cls-5" x1="560.56" y1="166.24" x2="560.82" y2="167.35"/><line class="cls-5" x1="195.66" y1="255.52" x2="195.45" y2="254.64"/><path class="cls-5" d="M199.8,246.12l.27-.11c.26-.1.79-.31,1.5-.61l2.69-1.09,3.56-1.43,4-1.6"/><path class="cls-5" d="M199.8,246.12a7.33,7.33,0,0,0-4.35,8.52"/><path class="cls-5" d="M539.86,161.86l3-.29c1.4-.14,2.76-.26,4-.37s2.28-.21,3.18-.29l2.06-.19.73-.06"/><path class="cls-5" d="M560.56,166.24a7.34,7.34,0,0,0-7.77-5.58"/><path class="cls-5" d="M375.2,252.07c.65.12,1.31.21,2,.28"/><path class="cls-5" d="M383.39,252.26a1,1,0,0,0,.29,0"/><path class="cls-5" d="M383.68,252.28c.67-.09,1.33-.2,2-.34"/><path class="cls-5" d="M374.93,252a.66.66,0,0,0,.27.12"/><path class="cls-5" d="M398.94,225.36A18.84,18.84,0,1,0,380.1,244.2a18.83,18.83,0,0,0,18.84-18.84Z"/><path class="cls-5" d="M399.43,225.36a19.32,19.32,0,1,0-19.33,19.33,19.33,19.33,0,0,0,19.33-19.33Z"/><path class="cls-5" d="M375.26,251.08a2,2,0,0,1,.26-.09,1.17,1.17,0,0,1,.46,0,1,1,0,0,1,.46.12,2.06,2.06,0,0,1,.4.25"/><path class="cls-5" d="M369,249.05a26.19,26.19,0,0,0,6.28,2"/><path class="cls-5" d="M367.56,248.32h.26a1.48,1.48,0,0,1,.45.11,1.55,1.55,0,0,1,.41.25,3.72,3.72,0,0,1,.3.37"/><path class="cls-5" d="M362.2,244.45a26.49,26.49,0,0,0,5.36,3.87"/><path class="cls-5" d="M361.07,243.32l.25.08a1.47,1.47,0,0,1,.4.24,1.53,1.53,0,0,1,.31.37,1.82,1.82,0,0,1,.17.44"/><path class="cls-5" d="M357.18,238a26.56,26.56,0,0,0,3.89,5.34"/><path class="cls-5" d="M356.46,236.57a1,1,0,0,1,.21.15,1.27,1.27,0,0,1,.3.35,1.21,1.21,0,0,1,.18.44,2.48,2.48,0,0,1,0,.47"/><path class="cls-5" d="M354.4,230.28a26.49,26.49,0,0,0,2.06,6.29"/><path class="cls-5" d="M354.16,228.71l.15.21a1.63,1.63,0,0,1,.18.43,1.51,1.51,0,0,1,0,.47,2.22,2.22,0,0,1-.12.46"/><path class="cls-5" d="M354.14,222.1a26.11,26.11,0,0,0,0,6.61"/><path class="cls-5" d="M354.39,220.53a2.25,2.25,0,0,1,.08.24,1.47,1.47,0,0,1,0,.47,1.41,1.41,0,0,1-.11.46,1.84,1.84,0,0,1-.26.4"/><path class="cls-5" d="M356.42,214.24a26.12,26.12,0,0,0-2,6.29"/><path class="cls-5" d="M357.14,212.82a2.17,2.17,0,0,1,0,.26,1.48,1.48,0,0,1-.11.45,1.33,1.33,0,0,1-.25.41,1.8,1.8,0,0,1-.37.3"/><path class="cls-5" d="M361,207.47a26.58,26.58,0,0,0-3.88,5.35"/><path class="cls-5" d="M362.15,206.34a2.41,2.41,0,0,1-.08.25,1.18,1.18,0,0,1-.25.39,1.34,1.34,0,0,1-.36.31,2.14,2.14,0,0,1-.44.18"/><path class="cls-5" d="M367.49,202.44a26,26,0,0,0-5.34,3.9"/><path class="cls-5" d="M368.91,201.71a2.1,2.1,0,0,1-.15.22,1.31,1.31,0,0,1-.36.3,1.21,1.21,0,0,1-.44.18,2.42,2.42,0,0,1-.47,0"/><path class="cls-5" d="M375.19,199.67a26.52,26.52,0,0,0-6.28,2"/><path class="cls-5" d="M376.77,199.41a1.46,1.46,0,0,1-.21.16,1.57,1.57,0,0,1-.44.18,1.23,1.23,0,0,1-.47,0,1.82,1.82,0,0,1-.46-.11"/><path class="cls-5" d="M383.37,199.4a26.5,26.5,0,0,0-6.6,0"/><path class="cls-5" d="M385,199.65l-.25.09a1.78,1.78,0,0,1-.46,0,1.47,1.47,0,0,1-.47-.11,2.11,2.11,0,0,1-.4-.26"/><path class="cls-5" d="M391.24,201.69a26,26,0,0,0-6.29-2"/><path class="cls-5" d="M392.65,202.41h-.25a1.29,1.29,0,0,1-.45-.11,1.13,1.13,0,0,1-.41-.25,2,2,0,0,1-.3-.36"/><path class="cls-5" d="M398,206.29a26.15,26.15,0,0,0-5.36-3.88"/><path class="cls-5" d="M399.13,207.41a1.13,1.13,0,0,1-.24-.08,1.42,1.42,0,0,1-.41-.24,1.8,1.8,0,0,1-.3-.37,1.61,1.61,0,0,1-.17-.43"/><path class="cls-5" d="M403,212.75a25.45,25.45,0,0,0-3.89-5.34"/><path class="cls-5" d="M403.75,214.17l-.21-.15a1.43,1.43,0,0,1-.3-.35,1.73,1.73,0,0,1-.19-.45,2.42,2.42,0,0,1,0-.47"/><path class="cls-5" d="M405.81,220.45a26.27,26.27,0,0,0-2.06-6.28"/><path class="cls-5" d="M406.06,222l-.16-.21a1,1,0,0,1-.17-.44,1.07,1.07,0,0,1-.05-.47,1.86,1.86,0,0,1,.13-.46"/><path class="cls-5" d="M406.07,228.63a26.5,26.5,0,0,0,0-6.6"/><path class="cls-5" d="M405.81,230.21a1.83,1.83,0,0,1-.08-.25,1.47,1.47,0,0,1,0-.47,1.54,1.54,0,0,1,.11-.46,3.42,3.42,0,0,1,.26-.4"/><path class="cls-5" d="M403.78,236.49a25.75,25.75,0,0,0,2-6.28"/><path class="cls-5" d="M403.07,237.92a.57.57,0,0,1,0-.26,1,1,0,0,1,.1-.46,1.36,1.36,0,0,1,.25-.4,3.47,3.47,0,0,1,.36-.31"/><path class="cls-5" d="M399.19,243.27a26.47,26.47,0,0,0,3.88-5.35"/><path class="cls-5" d="M398.06,244.4a1.83,1.83,0,0,1,.08-.25,1.25,1.25,0,0,1,.24-.4,1.36,1.36,0,0,1,.37-.31,2.35,2.35,0,0,1,.44-.17"/><path class="cls-5" d="M392.72,248.29a26.18,26.18,0,0,0,5.34-3.89"/><path class="cls-5" d="M391.31,249a1.37,1.37,0,0,1,.15-.21,1.14,1.14,0,0,1,.35-.3,1.54,1.54,0,0,1,.44-.19,1.85,1.85,0,0,1,.47,0"/><path class="cls-5" d="M385,251.06a26,26,0,0,0,6.29-2.05"/><path class="cls-5" d="M383.44,251.32l.21-.16a1.85,1.85,0,0,1,.44-.18,1.25,1.25,0,0,1,.47,0,1.82,1.82,0,0,1,.46.11"/><path class="cls-5" d="M376.84,251.33a26.5,26.5,0,0,0,6.6,0"/><path class="cls-5" d="M376.38,251.64a.75.75,0,0,0,.46-.31"/><path class="cls-5" d="M376.38,251.64a.8.8,0,0,0-.19-.13,1,1,0,0,0-.23-.06.86.86,0,0,0-.23,0l-.13,0"/><path class="cls-5" d="M375.26,251.08a.77.77,0,0,0,.34.43"/><path class="cls-5" d="M391.76,201.53a.71.71,0,0,0-.52.16"/><path class="cls-5" d="M391.76,201.53a1.3,1.3,0,0,0,.15.18.86.86,0,0,0,.2.13.68.68,0,0,0,.23,0,.57.57,0,0,0,.13,0"/><path class="cls-5" d="M392.65,202.41a.75.75,0,0,0-.18-.52"/><path class="cls-5" d="M356.27,213.71a.77.77,0,0,0,.15.53"/><path class="cls-5" d="M356.27,213.71a1.25,1.25,0,0,0,.19-.15.56.56,0,0,0,.11-.2.46.46,0,0,0,.06-.22.66.66,0,0,0,0-.14"/><path class="cls-5" d="M357.14,212.82a.73.73,0,0,0-.51.18"/><path class="cls-5" d="M398.56,206.3a.66.66,0,0,0-.55,0"/><path class="cls-5" d="M398.56,206.3a.85.85,0,0,0,.09.22.52.52,0,0,0,.15.18.76.76,0,0,0,.19.12l.12,0"/><path class="cls-5" d="M399.13,207.41a.7.7,0,0,0,0-.55"/><path class="cls-5" d="M375.52,199.23a.74.74,0,0,0-.33.44"/><path class="cls-5" d="M375.52,199.23a1.05,1.05,0,0,0,.24.06.62.62,0,0,0,.23,0,.49.49,0,0,0,.21-.08l.11-.08"/><path class="cls-5" d="M376.77,199.41a.8.8,0,0,0-.46-.3"/><path class="cls-5" d="M403.93,237a.65.65,0,0,0-.15-.53"/><path class="cls-5" d="M403.93,237c-.05,0-.12.09-.17.15a.57.57,0,0,0-.13.21.59.59,0,0,0-.05.22v.13"/><path class="cls-5" d="M403.07,237.92a.74.74,0,0,0,.51-.19"/><path class="cls-5" d="M406.37,229.08a.73.73,0,0,0-.3-.45"/><path class="cls-5" d="M406.37,229.08a2.25,2.25,0,0,0-.12.21.9.9,0,0,0-.06.22,1,1,0,0,0,0,.24s0,.08,0,.12"/><path class="cls-5" d="M405.81,230.21a.72.72,0,0,0,.44-.34"/><path class="cls-5" d="M403.54,212.94a.7.7,0,0,0-.52-.19"/><path class="cls-5" d="M403.54,212.94a.93.93,0,0,0,0,.23.85.85,0,0,0,.09.22.8.8,0,0,0,.15.17.31.31,0,0,0,.11.08"/><path class="cls-5" d="M403.75,214.17a.69.69,0,0,0,.16-.53"/><path class="cls-5" d="M354,229.94a.72.72,0,0,0,.43.34"/><path class="cls-5" d="M354,229.94a.79.79,0,0,0,.06-.22.65.65,0,0,0,0-.24.76.76,0,0,0-.08-.21l-.08-.11"/><path class="cls-5" d="M354.16,228.71a.72.72,0,0,0-.31.45"/><path class="cls-5" d="M367.68,201.93a.69.69,0,0,0-.19.51"/><path class="cls-5" d="M367.68,201.93a.9.9,0,0,0,.23,0,.65.65,0,0,0,.22-.08,1.29,1.29,0,0,0,.17-.16.26.26,0,0,0,.07-.11"/><path class="cls-5" d="M368.91,201.71a.78.78,0,0,0-.54-.15"/><path class="cls-5" d="M406.24,220.79a.7.7,0,0,0-.43-.34"/><path class="cls-5" d="M406.24,220.79a.86.86,0,0,0-.06.23.62.62,0,0,0,0,.23.67.67,0,0,0,.09.21l.07.11"/><path class="cls-5" d="M406.06,222a.75.75,0,0,0,.3-.46"/><path class="cls-5" d="M392.54,248.8a.73.73,0,0,0,.18-.51"/><path class="cls-5" d="M392.54,248.8a1,1,0,0,0-.24,0l-.22.09a.65.65,0,0,0-.18.15l-.07.1"/><path class="cls-5" d="M391.31,249a.69.69,0,0,0,.52.15"/><path class="cls-5" d="M383.82,199.1a.88.88,0,0,0,.21.12.79.79,0,0,0,.22.06.58.58,0,0,0,.23,0l.13,0"/><path class="cls-5" d="M385,199.65a.7.7,0,0,0-.34-.43"/><path class="cls-5" d="M383.82,199.1a.77.77,0,0,0-.45.3"/><path class="cls-5" d="M399.17,243.81a.77.77,0,0,0,0-.54"/><path class="cls-5" d="M399.17,243.81l-.22.1a.8.8,0,0,0-.18.15,1,1,0,0,0-.12.19l0,.13"/><path class="cls-5" d="M398.06,244.4a.83.83,0,0,0,.56,0"/><path class="cls-5" d="M356.67,237.8a.73.73,0,0,0,.51.18"/><path class="cls-5" d="M356.67,237.8a1,1,0,0,0,0-.24.57.57,0,0,0-.09-.22.5.5,0,0,0-.15-.17l-.1-.08"/><path class="cls-5" d="M356.46,236.57a.65.65,0,0,0-.15.52"/><path class="cls-5" d="M384.68,251.5a.69.69,0,0,0,.34-.44"/><path class="cls-5" d="M384.68,251.5a.79.79,0,0,0-.22-.06.65.65,0,0,0-.24,0,.67.67,0,0,0-.21.09.39.39,0,0,0-.1.08"/><path class="cls-5" d="M383.44,251.32a.73.73,0,0,0,.47.31"/><path class="cls-5" d="M361,206.91a.77.77,0,0,0,0,.56"/><path class="cls-5" d="M361,206.91a.83.83,0,0,0,.22-.08.65.65,0,0,0,.18-.15.82.82,0,0,0,.12-.2.5.5,0,0,0,0-.13"/><path class="cls-5" d="M362.15,206.34a.7.7,0,0,0-.55,0"/><path class="cls-5" d="M353.84,221.64a.74.74,0,0,0,.3.46"/><path class="cls-5" d="M353.84,221.64a1.22,1.22,0,0,0,.12-.19.69.69,0,0,0,0-.46s0-.08,0-.13"/><path class="cls-5" d="M354.39,220.53a.75.75,0,0,0-.43.33"/><path class="cls-5" d="M361.65,244.43a.75.75,0,0,0,.55,0"/><path class="cls-5" d="M361.65,244.43a1.31,1.31,0,0,0-.08-.21,1.39,1.39,0,0,0-.15-.19.82.82,0,0,0-.2-.12l-.12,0"/><path class="cls-5" d="M361.07,243.32a.78.78,0,0,0,0,.56"/><path class="cls-5" d="M368.45,249.2a.77.77,0,0,0,.53-.15"/><path class="cls-5" d="M368.45,249.2a1.43,1.43,0,0,0-.15-.18.82.82,0,0,0-.2-.12.65.65,0,0,0-.23-.06h-.13"/><path class="cls-5" d="M367.56,248.32a.73.73,0,0,0,.18.52"/><path class="cls-5" d="M398.56,206v0s0,0,0,.07a.11.11,0,0,0,0,.11.49.49,0,0,0,0,.11"/><path class="cls-5" d="M398,206.29c0-.12,0-.24.06-.34s.07-.23.1-.32a2.22,2.22,0,0,1,.11-.25.87.87,0,0,1,.05-.12"/><path class="cls-5" d="M398.56,206a.75.75,0,0,0-.22-.72"/><path class="cls-5" d="M403.65,212.62l0,0a.16.16,0,0,0,0,.06s0,.07,0,.11,0,.06,0,.1"/><path class="cls-5" d="M403,212.75a2.16,2.16,0,0,1,.18-.3,2.26,2.26,0,0,1,.19-.28l.18-.2.08-.09"/><path class="cls-5" d="M403.65,212.62a.73.73,0,0,0,0-.74"/><path class="cls-5" d="M406.43,220.52l0,0-.06,0s0,.05-.06.09a.73.73,0,0,0-.05.09"/><path class="cls-5" d="M405.81,220.45a2.73,2.73,0,0,1,.25-.23c.09-.08.19-.15.27-.21l.23-.13.1-.06"/><path class="cls-5" d="M406.43,220.52a.69.69,0,0,0,.24-.71"/><path class="cls-5" d="M361.82,205.31a.05.05,0,0,0,0,.05.71.71,0,0,0,.07.18l.1.25a2.29,2.29,0,0,1,.09.31,1.72,1.72,0,0,1,0,.24"/><path class="cls-5" d="M361.6,206.35v0s0,0,0,0a.33.33,0,0,0,0-.1v-.08a.11.11,0,0,1,0-.05"/><path class="cls-5" d="M361.82,205.31a.72.72,0,0,0-.23.71"/><path class="cls-5" d="M353.13,228.38h.06l.18,0,.27.06.31.11.21.11"/><path class="cls-5" d="M353.12,222.44a27.43,27.43,0,0,0,0,5.94"/><path class="cls-5" d="M354.14,222.1l-.3.15a3,3,0,0,1-.33.1l-.26.06-.12,0"/><path class="cls-5" d="M391.66,201.22a.1.1,0,0,0,0,0,.23.23,0,0,0,0,.07l0,.1.05.1"/><path class="cls-5" d="M391.24,201.69a2.09,2.09,0,0,1,0-.34,1.92,1.92,0,0,1,0-.34,1,1,0,0,1,0-.27v-.13"/><path class="cls-5" d="M391.66,201.22a.74.74,0,0,0-.42-.62"/><path class="cls-5" d="M353.85,229.16l0,0,0,0-.08-.06-.07,0-.05,0"/><path class="cls-5" d="M353.13,228.38a.73.73,0,0,0,.45.59"/><path class="cls-5" d="M368.91,200.64a.21.21,0,0,0,0,.06s0,.1,0,.19,0,.17,0,.27,0,.21,0,.33l0,.22"/><path class="cls-5" d="M368.37,201.56s0,0,0,0l0,0a.32.32,0,0,0,0-.09s0-.06,0-.08a.43.43,0,0,1,0,0"/><path class="cls-5" d="M368.91,200.64a.72.72,0,0,0-.43.61"/><path class="cls-5" d="M355.37,236.57h.08l.18,0,.27,0h.32l.24,0"/><path class="cls-5" d="M356.31,237.09l0,0h0l-.09,0-.08,0H356"/><path class="cls-5" d="M355.37,236.57a.74.74,0,0,0,.62.42"/><path class="cls-5" d="M356.51,211.94a.2.2,0,0,0,.05.05l.12.14a1.29,1.29,0,0,1,.17.21,1.85,1.85,0,0,1,.19.27l.1.21"/><path class="cls-5" d="M356.63,213v0a0,0,0,0,1,0,0l0-.1s0-.06,0-.07l0,0"/><path class="cls-5" d="M356.51,211.94a.74.74,0,0,0,0,.75"/><path class="cls-5" d="M366.62,201.81a26.7,26.7,0,0,0-4.8,3.5"/><path class="cls-5" d="M367.49,202.44a2.11,2.11,0,0,1-.3-.16l-.28-.2-.2-.18-.09-.08"/><path class="cls-5" d="M383.63,198.83s0,0,0,0l0,.07a.28.28,0,0,1,.06.09l.08.08"/><path class="cls-5" d="M383.37,199.4c-.05-.1-.1-.2-.14-.3a3.18,3.18,0,0,1-.11-.33c0-.1,0-.19-.06-.26s0-.1,0-.12"/><path class="cls-5" d="M383.63,198.83a.73.73,0,0,0-.59-.45"/><path class="cls-5" d="M356.55,238.86a27.43,27.43,0,0,0,3.5,4.8"/><path class="cls-5" d="M357.18,238c-.05.11-.11.21-.16.3s-.14.2-.2.28l-.18.2-.08.09"/><path class="cls-5" d="M360.05,243.66a.1.1,0,0,1,.06,0l.17-.08.25-.1.31-.09.23,0"/><path class="cls-5" d="M356.42,214.24l-.33,0h-.34l-.27,0-.13,0"/><path class="cls-5" d="M353.51,219.89l.07,0,.16.09.23.15a2.19,2.19,0,0,1,.25.2l.17.17"/><path class="cls-5" d="M355.34,214.24a27.83,27.83,0,0,0-1.83,5.65"/><path class="cls-5" d="M361.1,243.88h-.32"/><path class="cls-5" d="M360.05,243.66a.73.73,0,0,0,.71.22"/><path class="cls-5" d="M354.4,230.28l-.24.23a1.47,1.47,0,0,1-.28.2l-.22.14a.37.37,0,0,0-.12.07"/><path class="cls-5" d="M353.53,230.92a27.25,27.25,0,0,0,1.84,5.65"/><path class="cls-5" d="M360,207.13a27,27,0,0,0-3.49,4.81"/><path class="cls-5" d="M361,207.47l-.33-.07-.33-.1-.25-.11-.11-.06"/><path class="cls-5" d="M375.26,199l0,0,0,.05.08.06.1,0"/><path class="cls-5" d="M375.19,199.67l-.23-.25a2.12,2.12,0,0,1-.2-.28c-.07-.09-.11-.17-.15-.23a.41.41,0,0,1-.05-.11"/><path class="cls-5" d="M375.26,199a.72.72,0,0,0-.7-.25"/><path class="cls-5" d="M366.68,249l.05,0,.14-.13.21-.17a1.81,1.81,0,0,1,.27-.18l.21-.12"/><path class="cls-5" d="M361.87,245.48a27.4,27.4,0,0,0,4.81,3.48"/><path class="cls-5" d="M362.2,244.45a2.21,2.21,0,0,1-.06.34,2.39,2.39,0,0,1-.11.32c0,.1-.08.18-.1.24l-.06.12"/><path class="cls-5" d="M367.36,201.82s0,0,0,0l.07,0,.1,0,.11,0"/><path class="cls-5" d="M367.36,201.82a.73.73,0,0,0-.74,0"/><path class="cls-5" d="M367.74,248.84h-.07l-.1,0-.08,0-.05,0"/><path class="cls-5" d="M366.68,249a.75.75,0,0,0,.75,0"/><path class="cls-5" d="M407.09,222.36H407l-.18,0-.27-.07a1.82,1.82,0,0,1-.3-.11l-.21-.1"/><path class="cls-5" d="M407.09,228.3a27.43,27.43,0,0,0,0-5.94"/><path class="cls-5" d="M406.07,228.63l.3-.14.32-.11.27-.06.12,0"/><path class="cls-5" d="M368.55,249.52v0a.45.45,0,0,1,0-.08.19.19,0,0,0,0-.09.37.37,0,0,0-.05-.11"/><path class="cls-5" d="M369,249.05c0,.11,0,.22,0,.34s0,.24,0,.34,0,.2,0,.26,0,.11,0,.13"/><path class="cls-5" d="M368.55,249.52a.73.73,0,0,0,.43.61"/><path class="cls-5" d="M393.6,248.92a26.5,26.5,0,0,0,4.79-3.5"/><path class="cls-5" d="M392.72,248.29l.3.17a2.26,2.26,0,0,1,.28.19l.2.18.09.08"/><path class="cls-5" d="M398.39,245.42s0,0,0-.06a1.16,1.16,0,0,1-.08-.16c0-.08-.07-.16-.1-.26s-.06-.2-.09-.32,0-.15,0-.22"/><path class="cls-5" d="M374.63,252s0,0,0-.06,0-.09.1-.16a2.38,2.38,0,0,1,.14-.23,2.19,2.19,0,0,1,.2-.25l.16-.17"/><path class="cls-5" d="M369,250.13a26.61,26.61,0,0,0,5.65,1.82"/><path class="cls-5" d="M360.71,206.91H361"/><path class="cls-5" d="M360.71,206.91a.73.73,0,0,0-.71.22"/><path class="cls-5" d="M375.6,251.51l0,0,0,0-.09.06-.06,0,0,0"/><path class="cls-5" d="M374.63,252a.73.73,0,0,0,.71-.24"/><path class="cls-5" d="M404.84,214.17h-.07l-.19,0h-.27a1.71,1.71,0,0,1-.32,0l-.24,0"/><path class="cls-5" d="M406.67,219.81a27.33,27.33,0,0,0-1.83-5.64"/><path class="cls-5" d="M376.58,251.9a0,0,0,0,1,0,0s0,0,0-.07l-.07-.08-.07-.08"/><path class="cls-5" d="M376.84,251.33a2.92,2.92,0,0,1,.14.31,2.44,2.44,0,0,1,.11.32c0,.11.05.2.06.26l0,.12"/><path class="cls-5" d="M376.58,251.9a.69.69,0,0,0,.59.45"/><path class="cls-5" d="M403.7,238.79l-.05,0-.12-.13-.17-.21a1.92,1.92,0,0,1-.18-.28.78.78,0,0,1-.11-.2"/><path class="cls-5" d="M400.21,243.6a26.59,26.59,0,0,0,3.49-4.81"/><path class="cls-5" d="M399.19,243.27l.34.06a2.39,2.39,0,0,1,.32.11l.24.1.11.05"/><path class="cls-5" d="M383.12,252.35a.23.23,0,0,1,0-.07s0-.1,0-.18,0-.17.07-.27l.11-.3a2,2,0,0,0,.1-.21"/><path class="cls-5" d="M377.17,252.35a26.9,26.9,0,0,0,5.95,0"/><path class="cls-5" d="M356,213.81h0l.08,0,.1,0,.1,0"/><path class="cls-5" d="M356,213.81a.73.73,0,0,0-.62.43"/><path class="cls-5" d="M383.91,251.63s0,0,0,0l0,0,0,.08s0,.05-.05.07l0,0"/><path class="cls-5" d="M383.12,252.35a.72.72,0,0,0,.59-.46"/><path class="cls-5" d="M403.66,211.88a27.14,27.14,0,0,0-3.5-4.81"/><path class="cls-5" d="M400.16,207.07l-.06,0-.17.08-.25.1a2.07,2.07,0,0,1-.32.09l-.23,0"/><path class="cls-5" d="M354,220.86s0,0,0,0l0,0-.05-.08-.05-.06,0,0"/><path class="cls-5" d="M353.51,219.89a.73.73,0,0,0,.25.71"/><path class="cls-5" d="M403.78,236.49l.35,0a.91.91,0,0,1,.33,0l.28,0h.11"/><path class="cls-5" d="M406.69,230.84l-.05,0-.17-.09-.23-.15a2.19,2.19,0,0,1-.25-.2l-.18-.16"/><path class="cls-5" d="M404.87,236.49a27.19,27.19,0,0,0,1.82-5.65"/><path class="cls-5" d="M385,251.06a2.85,2.85,0,0,1,.23.26,2.07,2.07,0,0,1,.2.27,2.38,2.38,0,0,1,.14.23c0,.05.05.09.07.11"/><path class="cls-5" d="M391.31,250.09a.22.22,0,0,1,0-.06.84.84,0,0,1,0-.19,1.85,1.85,0,0,1,0-.27,1.94,1.94,0,0,1,0-.33,2.23,2.23,0,0,1,0-.23"/><path class="cls-5" d="M385.66,251.94a27.28,27.28,0,0,0,5.65-1.85"/><path class="cls-5" d="M353.56,221.83h0a.13.13,0,0,0,.07,0l.09-.06.08-.07"/><path class="cls-5" d="M353.56,221.83a.76.76,0,0,0-.44.61"/><path class="cls-5" d="M391.83,249.16l0,0,0,0,0,.11a.25.25,0,0,0,0,.07.2.2,0,0,1,0,.05"/><path class="cls-5" d="M391.31,250.09a.72.72,0,0,0,.42-.61"/><path class="cls-5" d="M393.53,201.77l0,0-.13.12-.21.18a2.27,2.27,0,0,1-.28.18l-.21.11"/><path class="cls-5" d="M398.34,205.25a27.54,27.54,0,0,0-4.81-3.48"/><path class="cls-5" d="M392.86,248.91l-.05,0-.07,0-.09,0-.11,0"/><path class="cls-5" d="M392.86,248.91a.73.73,0,0,0,.74,0"/><path class="cls-5" d="M403.58,237.73a.08.08,0,0,0,0,0v0l0,.1,0,.07s0,0,0,0"/><path class="cls-5" d="M403.7,238.79a.75.75,0,0,0,0-.75"/><path class="cls-5" d="M392.47,201.89h.08l.09,0,.08,0,0,0"/><path class="cls-5" d="M393.53,201.77a.72.72,0,0,0-.75,0"/><path class="cls-5" d="M353.78,230.21l0,0,.05-.06.06-.08a.93.93,0,0,1,.05-.1"/><path class="cls-5" d="M353.78,230.21a.76.76,0,0,0-.25.71"/><path class="cls-5" d="M398.62,244.38s0,0,0,0,0,0,0,0v.11a.19.19,0,0,0,0,.08s0,0,0,.05"/><path class="cls-5" d="M398.39,245.42a.71.71,0,0,0,.23-.71"/><path class="cls-5" d="M385.58,198.78l0,.05-.09.17-.15.23c-.06.08-.12.17-.2.26l-.16.16"/><path class="cls-5" d="M391.24,200.6a27.28,27.28,0,0,0-5.66-1.82"/><path class="cls-5" d="M399.49,243.82h-.32"/><path class="cls-5" d="M399.49,243.82a.72.72,0,0,0,.72-.22"/><path class="cls-5" d="M406.25,229.87l0,0s0,0,0,0l0,.08a.22.22,0,0,0,.06.07l0,0"/><path class="cls-5" d="M406.69,230.84a.72.72,0,0,0-.24-.7"/><path class="cls-5" d="M384.61,199.22l0,0h0l.09-.06.06-.06s0,0,0,0"/><path class="cls-5" d="M385.58,198.78a.72.72,0,0,0-.7.24"/><path class="cls-5" d="M356.56,238.11a0,0,0,0,0,0,0,.16.16,0,0,0,0-.07.3.3,0,0,0,0-.1s0-.07,0-.11"/><path class="cls-5" d="M356.56,238.11a.72.72,0,0,0,0,.75"/><path class="cls-5" d="M403.91,213.64s0,0,0,0l0,0a.19.19,0,0,0,.1,0l.07,0h.06"/><path class="cls-5" d="M404.84,214.17a.74.74,0,0,0-.62-.43"/><path class="cls-5" d="M377.1,198.39s0,0,0,.06l0,.19c0,.07,0,.16-.07.26s-.07.2-.11.31l-.1.2"/><path class="cls-5" d="M383,198.38a27.43,27.43,0,0,0-5.94,0"/><path class="cls-5" d="M404.26,236.92h-.12l-.1,0-.1.05"/><path class="cls-5" d="M404.26,236.92a.74.74,0,0,0,.61-.43"/><path class="cls-5" d="M385,251.7l0,0-.06,0a.35.35,0,0,0-.09-.07l-.09-.05"/><path class="cls-5" d="M385,251.7a.72.72,0,0,0,.71.24"/><path class="cls-5" d="M376.31,199.11l0,0,0,0,.07-.08a.43.43,0,0,1,0-.07s0,0,0-.05"/><path class="cls-5" d="M377.1,198.39a.73.73,0,0,0-.6.45"/><path class="cls-5" d="M361.65,244.76v0a.35.35,0,0,0,0-.07v-.11a.52.52,0,0,0,0-.11"/><path class="cls-5" d="M361.65,244.76a.75.75,0,0,0,.22.72"/><path class="cls-5" d="M399.11,206.86h.32"/><path class="cls-5" d="M400.16,207.07a.73.73,0,0,0-.72-.21"/><path class="cls-5" d="M374.56,198.79a27.28,27.28,0,0,0-5.65,1.85"/><path class="cls-5" d="M406.64,228.89s0,0,0,0l-.07,0-.09.06a.46.46,0,0,0-.07.07"/><path class="cls-5" d="M406.64,228.89a.69.69,0,0,0,.45-.59"/><path class="cls-5" d="M406.36,221.57l0,0,0,0,.08.07.07,0,0,0"/><path class="cls-5" d="M407.09,222.36a.73.73,0,0,0-.45-.6"/><polyline class="cls-5" points="181.5 261.5 181.61 261.76 181.93 262.53 182.47 263.77 183.19 265.45 184.07 267.5 185.07 269.82 186.16 272.35 187.29 274.98"/><path class="cls-5" d="M350.63,203.3A1202.13,1202.13,0,0,0,181.5,261.5"/><path class="cls-5" d="M573.25,166.65a1203.73,1203.73,0,0,0-177,25.61"/><polyline class="cls-5" points="573.25 166.65 573.27 166.93 573.32 167.76 573.42 169.12 573.54 170.94 573.69 173.16 573.87 175.69 574.07 178.44 574.26 181.29"/><polyline class="cls-5" points="584.5 188.25 584.5 188.53 584.5 188.8 584.5 189.06 584.5 189.28 584.5 189.47 584.5 189.6 584.5 189.68 584.5 189.71"/><path class="cls-5" d="M614.78,188.59l-.41,0-1.2,0-2-.05-2.65-.07-3.33-.07-3.87-.07-4.45,0-4.78,0c-2.48,0-5,0-7.62,0"/><path class="cls-5" d="M613.28,190.4a1.47,1.47,0,0,0,1.54-1.4,1.12,1.12,0,0,0,0-.41"/><path class="cls-5" d="M584.5,189.71c2.44,0,4.87,0,7.24,0l4.55.07,4.23.1,3.68.11,3.16.11,2.52.1,1.87.08,1.15,0,.38,0"/><path class="cls-5" d="M154.6,300l.34-.19,1.07-.59,1.69-.93,2.36-1.29,2.88-1.57,3.45-1.85c1.23-.65,2.53-1.34,3.89-2l4.29-2.24c2.22-1.13,4.5-2.29,6.8-3.44"/><polyline class="cls-5" points="181.37 285.86 181.5 286.11 181.62 286.35 181.74 286.58 181.84 286.78 181.93 286.94 181.99 287.06 182.03 287.13"/><path class="cls-5" d="M154.6,300a1.46,1.46,0,0,0,1.77,1.09,1.77,1.77,0,0,0,.38-.15"/><path class="cls-5" d="M182,287.16c-2.17,1.12-4.33,2.25-6.41,3.35l-4,2.15c-1.29.69-2.54,1.37-3.72,2l-3.22,1.77L161.91,298l-2.2,1.24-1.62.93-1,.57-.34.2"/><path class="cls-5" d="M342.5,228.83q-25.22,6.67-50.25,14.07"/><polyline class="cls-5" points="291.84 241.5 291.92 241.77 292 242.04 292.07 242.28 292.13 242.49 292.18 242.66 292.22 242.79 292.24 242.88 292.25 242.9"/><polyline class="cls-5" points="465.97 199.33 466.02 199.61 466.07 199.88 466.12 200.13 466.17 200.35 466.21 200.53 466.23 200.66 466.25 200.74 466.25 200.78"/><path class="cls-5" d="M466.25,200.78q-26.22,5-52.3,10.73"/><path class="cls-5" d="M601.85,174.73c-1.42-.95-2.84-1.89-4.35-2.74a37.05,37.05,0,0,0-4.84-2.29c-2-.78-4.18-1.39-6.32-2"/><polyline class="cls-5" points="601.85 174.72 602.5 175.36 602.98 176.2 603.29 177.24 603.4 178.45 603.34 179.81 603.07 181.31 602.64 182.9 602.03 184.57"/><path class="cls-5" d="M583,182c1.32,0,2.64.06,4,.13s2.65.18,3.94.31c2,.21,3.92.48,5.74.84s3.64.83,5.41,1.3"/><polyline class="cls-5" points="586.34 167.71 586.28 167.98 586.09 168.79 585.77 170.11 585.36 171.89 584.86 174.06 584.27 176.53 583.64 179.21 583 181.99"/><polyline class="cls-5" points="170.34 268.43 170.52 268.65 171.06 269.28 171.94 270.31 173.13 271.7 174.57 273.39 176.21 275.33 177.99 277.42 179.85 279.6"/><path class="cls-5" d="M181.5,261.5a43.8,43.8,0,0,0-11.16,6.93"/><path class="cls-5" d="M187.29,275a29.51,29.51,0,0,0-7.44,4.62"/><polyline class="cls-5" points="159.75 281.76 159.46 282.63 159.42 283.6 159.63 284.65 160.07 285.79 160.76 286.97 161.68 288.18 162.79 289.4 164.1 290.6"/><path class="cls-5" d="M159.75,281.76c.84-1.49,1.67-3,2.62-4.41a35.77,35.77,0,0,1,3.26-4.25c1.46-1.64,3.08-3.16,4.71-4.67"/><path class="cls-5" d="M179.85,279.6c-1.16.63-2.32,1.26-3.45,1.92s-2.27,1.37-3.36,2.08c-1.67,1.09-3.27,2.22-4.73,3.37s-2.86,2.41-4.21,3.63"/><path class="cls-5" d="M586.34,167.71a44,44,0,0,0-13.09-1.06"/><path class="cls-5" d="M583,182a29.46,29.46,0,0,0-8.73-.7"/><path class="cls-5" d="M291.84,241.5a631.07,631.07,0,0,0-110.47,44.36"/><line class="cls-5" x1="179.85" y1="279.6" x2="181.37" y2="285.86"/><path class="cls-5" d="M164.1,290.6c-1,1-2,1.95-3,2.85l-2.63,2.5-1.5,1.43-1.19,1.14-1.16,1.11-.1.1"/><line class="cls-5" x1="154.6" y1="300" x2="154.53" y2="299.73"/><path class="cls-5" d="M584.5,188.25A632.8,632.8,0,0,0,466,199.33"/><path class="cls-5" d="M557.7,190.25a631.47,631.47,0,0,0-91.45,10.53"/><path class="cls-5" d="M584.5,189.71q-13.41,0-26.8.54"/><path class="cls-5" d="M292.25,242.9a631.58,631.58,0,0,0-86.13,32.48"/><path class="cls-5" d="M206.12,275.38Q194,281,182,287.16"/><line class="cls-5" x1="582.99" y1="181.99" x2="584.5" y2="188.25"/><path class="cls-5" d="M602,184.57l4,1.16,3.46,1,2,.59,1.58.46,1.54.46.13,0"/><line class="cls-5" x1="614.78" y1="188.59" x2="614.71" y2="188.31"/><path class="cls-5" d="M203.75,276.48q68.31-10.35,135.82-25.15"/><path class="cls-5" d="M418.13,232.51Q490,213.84,560.31,190.15"/><path class="cls-5" d="M155.74,289.57l0-.09.49-.94,1.12-2.2,1.12-2.16c.39-.77.82-1.59,1.24-2.42"/><path class="cls-5" d="M155.74,289.57a14.66,14.66,0,0,0-1.21,10.16"/><path class="cls-5" d="M609,179.82l-.07,0-.87-.62-2-1.44-2-1.4-2.22-1.58"/><path class="cls-5" d="M614.71,188.31a14.69,14.69,0,0,0-5.72-8.49"/><path class="cls-5" d="M214.36,248l-4.79,1.91-4.64,1.86-4.37,1.78-4,1.64-3.44,1.42-2.85,1.2c-.82.34-1.52.65-2.12.89s-1.07.46-1.38.58l-.62.27"/><path class="cls-5" d="M568.16,167l-.66,0-1.5.11-2.3.17-3.07.24-3.72.3-4.28.37-4.69.41-5,.47-5.13.49"/><path class="cls-5" d="M334.13,293.45l-.19-.11-.16-.09-.09-.05-.05,0"/><path class="cls-5" d="M429,293.45a75.72,75.72,0,0,0,44.31,36.34"/><path class="cls-5" d="M455.77,319a72.28,72.28,0,0,0,9.38,5.14"/><line class="cls-5" x1="329.73" y1="291.14" x2="328.91" y2="292.7"/><path class="cls-5" d="M295.35,324a73.08,73.08,0,0,0,10-5.58"/><path class="cls-5" d="M337.25,267.48c-.45,2.74-.9,5.48-1.6,8.15-.55,2.08-1.25,4.1-1.95,6.12"/><line class="cls-5" x1="330.17" y1="290.18" x2="329.73" y2="291.14"/><path class="cls-5" d="M423,267.48c.46,2.74.91,5.48,1.61,8.15.6,2.32,1.39,4.57,2.16,6.84"/><line class="cls-5" x1="427.46" y1="284.42" x2="430.48" y2="291.14"/><path class="cls-5" d="M406.69,376.47a.54.54,0,0,0-.19.07"/><path class="cls-5" d="M353.71,376.54a.54.54,0,0,0-.19-.07"/><line class="cls-5" x1="416.35" y1="219.72" x2="419.53" y2="242.68"/><line class="cls-5" x1="343.86" y1="219.72" x2="342.24" y2="231.39"/><line class="cls-5" x1="380.1" y1="188.68" x2="383.42" y2="188.83"/><path class="cls-5" d="M409.59,369.49a84.25,84.25,0,0,0,6.68-6.12,45.71,45.71,0,0,0,4.15-5.16,43.05,43.05,0,0,0,3.38-5.69,39.58,39.58,0,0,0,2.41-6.2,38.14,38.14,0,0,0,1.32-6.51,41.16,41.16,0,0,0,.22-7.19c-.13-2.4-.46-4.79-.78-7.17"/><path class="cls-5" d="M408,370.67l.05,0,.4-.29,1.13-.85"/><path class="cls-5" d="M352.2,370.67c2.07,1.37,4.13,2.73,6.31,3.89a44.51,44.51,0,0,0,6.84,2.86,49.42,49.42,0,0,0,7.76,1.83,47,47,0,0,0,7.95.52,47.83,47.83,0,0,0,7.92-.84,48.89,48.89,0,0,0,7.68-2.14,43.8,43.8,0,0,0,5.88-2.67c1.88-1.05,3.68-2.25,5.47-3.45"/><path class="cls-5" d="M350.63,369.49c.37.29.74.57,1.13.85l.3.23.09.06a.1.1,0,0,1,.05,0"/><path class="cls-5" d="M333.25,325.45c-.33,2.38-.65,4.77-.79,7.17a41.16,41.16,0,0,0,.22,7.19,40.17,40.17,0,0,0,1.32,6.51,41.61,41.61,0,0,0,2.4,6.2,45.34,45.34,0,0,0,3.38,5.69,45.89,45.89,0,0,0,4.17,5.16,80.89,80.89,0,0,0,6.68,6.12"/><polyline class="cls-5" points="333.25 325.45 344.99 325.45 356.54 325.45 368.29 325.45 380.1 325.45 389.61 325.45 399.07 325.45 408.15 325.45 417.9 325.45 426.96 325.45"/><path class="cls-5" d="M426.08,319.64l-3-22.35q-1.91-14.07-3.8-28.16-1.61-12.21-3.17-24.41c-1.05-8.13-2.11-16.27-3.38-24.38"/><line class="cls-5" x1="426.96" y1="325.45" x2="426.08" y2="319.64"/><line class="cls-5" x1="334.13" y1="319.64" x2="333.25" y2="325.45"/><path class="cls-5" d="M347.51,220.34c-.81,5.16-1.48,10.33-2.15,15.5s-1.33,10.35-2,15.52c-1.36,10.34-2.78,20.67-4.18,31q-2.54,18.63-5,37.27"/><polyline class="cls-5" points="353.58 220.34 351.4 220.34 347.51 220.34"/><line class="cls-5" x1="355.2" y1="298.73" x2="355.14" y2="235.85"/><path class="cls-5" d="M405,298.73a38.92,38.92,0,0,1-.48,4.83,22.69,22.69,0,0,1-1.43,4.67,25.07,25.07,0,0,1-2.29,4.27,25.4,25.4,0,0,1-3.1,3.76,24.66,24.66,0,0,1-3.76,3.08,25,25,0,0,1-13.83,4.19,25,25,0,0,1-4.87-.48,24.23,24.23,0,0,1-4.65-1.41,24.78,24.78,0,0,1-4.32-2.29,25.23,25.23,0,0,1-3.77-3.08,24.17,24.17,0,0,1-3.09-3.75,25,25,0,0,1-2.31-4.29,22.21,22.21,0,0,1-1.42-4.64,39,39,0,0,1-.49-4.86"/><line class="cls-5" x1="405.07" y1="235.87" x2="405.01" y2="298.73"/><polyline class="cls-5" points="412.71 220.34 410.06 220.34 407.63 220.34 406.57 220.34"/><path class="cls-5" d="M359.56,298.74a33.74,33.74,0,0,0,.4,4,19.33,19.33,0,0,0,1.17,3.84,20.65,20.65,0,0,0,1.91,3.56,19.38,19.38,0,0,0,2.55,3.1,20.37,20.37,0,0,0,4.26,3.27,21,21,0,0,0,6.25,2.35,20.83,20.83,0,0,0,4,.39,20,20,0,0,0,4-.4,20.71,20.71,0,0,0,3.86-1.17,19.63,19.63,0,0,0,2.39-1.18,20.58,20.58,0,0,0,4.26-3.27,19.72,19.72,0,0,0,1.81-2.07,20.39,20.39,0,0,0,1.48-2.22,21.67,21.67,0,0,0,1.16-2.37,18.59,18.59,0,0,0,1.17-3.85,31.66,31.66,0,0,0,.4-4"/><line class="cls-5" x1="400.65" y1="298.74" x2="405.01" y2="298.73"/><polyline class="cls-5" points="359.56 298.74 357.38 298.73 355.2 298.73"/><line class="cls-5" x1="359.56" y1="243" x2="359.56" y2="298.74"/><line class="cls-5" x1="400.65" y1="298.74" x2="400.65" y2="243.01"/><path class="cls-5" d="M408,370.67,409,372l.78,1.06.49.68.17.23"/><line class="cls-5" x1="409.42" y1="374.66" x2="410.4" y2="373.94"/><path class="cls-5" d="M409.42,374.66c-1.8,1.16-3.61,2.31-5.49,3.32a46.69,46.69,0,0,1-5.86,2.62,53.21,53.21,0,0,1-8.32,2.33,51.62,51.62,0,0,1-17.24.35,51.93,51.93,0,0,1-8.43-2,47.49,47.49,0,0,1-6.89-2.83c-2.2-1.13-4.31-2.46-6.39-3.79"/><line class="cls-5" x1="349.81" y1="373.94" x2="350.8" y2="374.66"/><path class="cls-5" d="M349.81,373.94l.16-.23c.12-.14.29-.38.51-.68s.48-.66.77-1.06l.95-1.3"/><path class="cls-5" d="M457.73,320.25c2.59,1.45,5.18,2.91,7.87,4.12s5.59,2.2,8.44,3.18"/><polyline class="cls-5" points="474.04 327.55 474.02 327.62 473.95 327.85 473.84 328.21 473.69 328.71 473.5 329.33 473.29 330.04 473.04 330.82 472.78 331.66"/><path class="cls-5" d="M472.78,331.66c-3.59-1.28-7.19-2.56-10.63-4.17A72.28,72.28,0,0,1,452,321.62l-.21-.14"/><path class="cls-5" d="M457.73,320.25a2.14,2.14,0,0,0-.84-.08,6.48,6.48,0,0,0-1.33.38c-.52.18-1.09.39-1.73.56s-1.31.26-2,.37"/><line class="cls-5" x1="451.83" y1="321.48" x2="451.03" y2="321.39"/><path class="cls-5" d="M587.52,395.69a314.58,314.58,0,0,0-114.74-64"/><path class="cls-5" d="M494.54,397.07l19.31-.28,19.35-.29,27.14-.41,13.61-.2,13.57-.2"/><path class="cls-5" d="M412.82,372.79c7.06,1.06,14.13,2.12,21.11,3.54s13.91,3.22,20.74,5.25,13.62,4.31,20.25,6.93,13.13,5.59,19.62,8.56"/><path class="cls-5" d="M431.44,324.8c.2,1.94.39,3.88.45,5.83a47.67,47.67,0,0,1-.15,5.85,54,54,0,0,1-4.17,16.61,56.25,56.25,0,0,1-4,7.59,47.82,47.82,0,0,1-5.19,6.81c-1.73,1.88-3.63,3.59-5.53,5.3"/><line class="cls-5" x1="430.76" y1="319.1" x2="431.44" y2="324.8"/><line class="cls-5" x1="430.56" y1="317.42" x2="430.76" y2="319.1"/><line class="cls-5" x1="451.03" y1="321.39" x2="430.56" y2="317.42"/><path class="cls-5" d="M347.39,372.79c-1.9-1.71-3.81-3.43-5.54-5.31a46.72,46.72,0,0,1-5.19-6.83,54.46,54.46,0,0,1-4-7.58,53.61,53.61,0,0,1-4.16-16.62,49.69,49.69,0,0,1-.15-5.85c.07-2,.26-3.88.45-5.82"/><path class="cls-5" d="M265.67,397.07c6.49-3,13-5.94,19.62-8.56s13.4-4.89,20.25-6.93,13.75-3.82,20.74-5.25,14.05-2.48,21.11-3.54"/><path class="cls-5" d="M172.68,395.69l13.52.2,13.55.2,27.26.41,25.5.38,13.16.19"/><path class="cls-5" d="M287.43,331.66a314.7,314.7,0,0,0-114.75,64"/><path class="cls-5" d="M308.38,321.48l-.21.14a69.24,69.24,0,0,1-9.86,5.74,116,116,0,0,1-10.88,4.3"/><line class="cls-5" x1="309.18" y1="321.39" x2="308.38" y2="321.48"/><line class="cls-5" x1="309.18" y1="321.39" x2="329.65" y2="317.42"/><line class="cls-5" x1="329.45" y1="319.1" x2="329.65" y2="317.42"/><line class="cls-5" x1="328.77" y1="324.78" x2="329.45" y2="319.1"/><polyline class="cls-5" points="287.43 331.66 287.18 330.82 286.93 330.04 286.71 329.33 286.52 328.71 286.37 328.21 286.25 327.85 286.19 327.62 286.17 327.55"/><path class="cls-5" d="M286.17,327.55c2.81-1,5.61-1.92,8.31-3.13s5.37-2.7,8-4.17"/><path class="cls-5" d="M308.38,321.48c-.65-.1-1.31-.2-1.92-.35s-1.26-.4-1.8-.58a8.53,8.53,0,0,0-1.33-.38,2.06,2.06,0,0,0-.48,0l-.2,0-.13.05,0,0"/><path class="cls-5" d="M412.71,220.34c-.29-1.47-.58-2.94-1-4.39a30.16,30.16,0,0,0-2-5.17,32.87,32.87,0,0,0-2.87-4.76,32.18,32.18,0,0,0-3.62-4.21,32.83,32.83,0,0,0-9.1-6.31,33.28,33.28,0,0,0-5.21-1.94,33.77,33.77,0,0,0-5.47-1,33.18,33.18,0,0,0-5.55-.1,31.94,31.94,0,0,0-5.5.85,34,34,0,0,0-5.28,1.75,33.35,33.35,0,0,0-9.3,6,33,33,0,0,0-3.76,4.09,33.84,33.84,0,0,0-3,4.67,29.17,29.17,0,0,0-2.2,5.11,51.81,51.81,0,0,0-1.31,5.4"/><path class="cls-5" d="M348.2,372.64l.2-.26.53-.69.77-1,.93-1.2"/><line class="cls-5" x1="347.85" y1="372.35" x2="348.2" y2="372.64"/><path class="cls-5" d="M329.44,324.79c-.18,1.7-.36,3.4-.45,5.11s-.08,3.43,0,5.14a51.24,51.24,0,0,0,1.14,8.36,50.7,50.7,0,0,0,2.47,8.09,52.66,52.66,0,0,0,3.74,7.52,48.12,48.12,0,0,0,4.9,6.82,79.64,79.64,0,0,0,6.6,6.52"/><path class="cls-5" d="M329.44,324.79l.36.07.87.15,1.18.21,1.4.23"/><path class="cls-5" d="M427,325.45l1.39-.23,1.19-.2.86-.15.37-.06"/><path class="cls-5" d="M412.37,372.35c1.28-1.13,2.58-2.26,3.79-3.47a48.13,48.13,0,0,0,3.45-3.82,54,54,0,0,0,4.87-7.12,50.29,50.29,0,0,0,3.65-7.84,53.41,53.41,0,0,0,2.27-8.26,49.94,49.94,0,0,0,.88-8.51,83.6,83.6,0,0,0-.51-8.52"/><line class="cls-5" x1="412.01" y1="372.64" x2="412.37" y2="372.35"/><path class="cls-5" d="M409.59,369.49c.31.42.63.83.92,1.2l.78,1c.22.28.4.53.52.69l.2.26"/><path class="cls-5" d="M343.85,219.78l.26,0,.75.11,1.17.19,1.47.22"/><path class="cls-5" d="M343.85,219.78a57.81,57.81,0,0,1,1.45-6,33.87,33.87,0,0,1,2.44-5.68,36.88,36.88,0,0,1,3.37-5.19,35.3,35.3,0,0,1,4.18-4.55,36.45,36.45,0,0,1,4.89-3.78,37.14,37.14,0,0,1,5.46-2.92,37.6,37.6,0,0,1,5.86-1.94,36.62,36.62,0,0,1,18.37.3A36.62,36.62,0,0,1,401,195.23a36.75,36.75,0,0,1,4.76,3.94,36,36,0,0,1,4,4.68,39.41,39.41,0,0,1,3.19,5.3,35,35,0,0,1,2.26,5.75c.45,1.6.77,3.24,1.09,4.88"/><path class="cls-5" d="M412.71,220.34l1.47-.22,1.17-.19.75-.11.26,0"/><path class="cls-5" d="M171.18,401.24c0-.11,0-.23,0-.37a5,5,0,0,1,.1-.73c.08-.39.19-.86.33-1.36.08-.27.17-.55.26-.84s.24-.72.37-1.08l.43-1.15"/><path class="cls-5" d="M265.49,401.46a1.33,1.33,0,0,0,.1-.32,6.81,6.81,0,0,0,.06-.82c0-.37,0-.8,0-1.28s0-1,0-1.59c0-.13,0-.24,0-.36"/><line class="cls-5" x1="265.48" y1="401.46" x2="265.49" y2="401.46"/><path class="cls-5" d="M265.48,401.46H171.29"/><path class="cls-5" d="M171.29,401.46s-.07-.07-.09-.15a.64.64,0,0,0,0-.07"/><line class="cls-5" x1="494.73" y1="401.46" x2="494.73" y2="401.46"/><path class="cls-5" d="M494.54,397.07v.06c0,.11,0,.21,0,.32,0,.56,0,1.1,0,1.59s0,.91,0,1.28a6.42,6.42,0,0,0,.07.82.78.78,0,0,0,.1.32"/><path class="cls-5" d="M587.52,395.69c.17.4.31.79.45,1.17s.25.73.38,1.08.16.57.25.84c.14.5.26,1,.33,1.36a5.2,5.2,0,0,1,.11.73c0,.14,0,.26,0,.37"/><line class="cls-5" x1="588.92" y1="401.46" x2="589.03" y2="401.24"/><path class="cls-5" d="M588.92,401.46H494.73"/><path class="cls-5" d="M416.36,219.78q1.69,12.19,3.38,24.4t3.38,24.4q1.94,14.07,3.89,28.15l2.58,18.6"/><line class="cls-5" x1="430.06" y1="319.07" x2="429.59" y2="315.33"/><path class="cls-5" d="M426.08,319.64c1.33-.19,2.66-.37,4-.57"/><path class="cls-5" d="M430.77,324.81l.1,0h.36l.21,0"/><path class="cls-5" d="M412.37,372.35l.07,0,.11.1.13.13a1.15,1.15,0,0,0,.14.17"/><path class="cls-5" d="M330.15,319.07l4,.57"/><line class="cls-5" x1="330.63" y1="315.33" x2="330.15" y2="319.07"/><path class="cls-5" d="M330.63,315.33q2.76-19.92,5.51-39.85,1.71-12.33,3.41-24.66,2.16-15.52,4.3-31"/><path class="cls-5" d="M328.77,324.78l.22,0h.35l.1,0"/><path class="cls-5" d="M347.39,372.79a1.15,1.15,0,0,0,.14-.17l.14-.13.1-.1.08,0"/><path class="cls-5" d="M372.4,252.24a12.47,12.47,0,0,0-2.1,17.52,12.64,12.64,0,0,0,2.1,2.1"/><line class="cls-5" x1="372.4" y1="288.93" x2="372.4" y2="271.86"/><path class="cls-5" d="M372.4,288.93a12.47,12.47,0,1,0,17.51,2.1,11.93,11.93,0,0,0-2.1-2.1"/><line class="cls-5" x1="387.81" y1="271.86" x2="387.81" y2="288.93"/><path class="cls-5" d="M387.81,271.86a12.46,12.46,0,0,0,2.1-17.51,12,12,0,0,0-2.1-2.11"/><line class="cls-5" x1="373.86" y1="251.79" x2="373.86" y2="252.99"/><path class="cls-5" d="M373.86,253a1.63,1.63,0,0,0-.08-.55.66.66,0,0,0-.16-.28.89.89,0,0,0-.22-.16.64.64,0,0,0-.24-.05,1.18,1.18,0,0,0-.26,0l-.25.11-.25.16"/><path class="cls-5" d="M386.34,269.27a9.53,9.53,0,0,0,1-13.45,8.25,8.25,0,0,0-1-1"/><line class="cls-5" x1="386.34" y1="254.84" x2="386.34" y2="252.99"/><path class="cls-5" d="M387.81,252.24l-.3-.18a1,1,0,0,0-.31-.11h-.27a.34.34,0,0,0-.19.09.63.63,0,0,0-.22.21,1.2,1.2,0,0,0-.16.46,2.28,2.28,0,0,0,0,.27"/><path class="cls-5" d="M386.34,271.12a1.91,1.91,0,0,0,.09.54.68.68,0,0,0,.17.28.65.65,0,0,0,.22.17.86.86,0,0,0,.23.05.82.82,0,0,0,.26,0,.6.6,0,0,0,.25-.1l.25-.16"/><line class="cls-5" x1="386.34" y1="271.12" x2="386.34" y2="269.27"/><line class="cls-5" x1="373.86" y1="271.12" x2="373.86" y2="289.67"/><path class="cls-5" d="M373.86,289.67a1.57,1.57,0,0,0-.08-.54.66.66,0,0,0-.16-.28.69.69,0,0,0-.22-.16.94.94,0,0,0-.24-.06l-.26,0a1.36,1.36,0,0,0-.25.11,1.32,1.32,0,0,0-.25.16"/><path class="cls-5" d="M372.4,271.86a1.75,1.75,0,0,0,.29.18.76.76,0,0,0,.32.11.8.8,0,0,0,.27,0,.7.7,0,0,0,.2-.08.92.92,0,0,0,.22-.22,1.14,1.14,0,0,0,.15-.46,2.17,2.17,0,0,0,0-.26"/><path class="cls-5" d="M373.86,254.84a9.54,9.54,0,0,0-1,13.45,10,10,0,0,0,1,1"/><line class="cls-5" x1="373.86" y1="269.27" x2="373.86" y2="271.12"/><line class="cls-5" x1="373.86" y1="252.99" x2="373.86" y2="254.84"/><line class="cls-5" x1="386.34" y1="252.99" x2="386.34" y2="251.79"/><line class="cls-5" x1="373.86" y1="289.67" x2="373.86" y2="291.52"/><path class="cls-5" d="M373.86,291.52a9.54,9.54,0,1,0,13.46,1,9.07,9.07,0,0,0-1-1"/><line class="cls-5" x1="386.34" y1="291.52" x2="386.34" y2="289.67"/><path class="cls-5" d="M387.81,288.93a1.89,1.89,0,0,0-.3-.19,1.24,1.24,0,0,0-.31-.1.82.82,0,0,0-.27,0,.54.54,0,0,0-.19.08.66.66,0,0,0-.22.22,1.14,1.14,0,0,0-.16.46,2.11,2.11,0,0,0,0,.26"/><line class="cls-5" x1="386.34" y1="289.67" x2="386.34" y2="271.12"/><line class="cls-5" x1="410.4" y1="373.94" x2="412.01" y2="372.64"/><line class="cls-5" x1="348.2" y1="372.64" x2="349.81" y2="373.94"/><line class="cls-5" x1="330.15" y1="319.07" x2="329.44" y2="324.79"/><line class="cls-5" x1="430.77" y1="324.81" x2="430.06" y2="319.07"/><path class="cls-5" d="M430.06,319.07a1.38,1.38,0,0,0,.7,0"/><path class="cls-5" d="M329.45,319.1a1.39,1.39,0,0,0,.7,0"/><path class="cls-5" d="M412.82,372.79l-.34.26"/><path class="cls-5" d="M412,372.64l.07,0,.12.08.13.13.15.16"/><path class="cls-5" d="M347.74,373.05l-.35-.26"/><path class="cls-5" d="M347.74,373.05l.14-.16.13-.13.11-.08.08,0"/><line class="cls-5" x1="349.34" y1="374.18" x2="347.74" y2="373.05"/><path class="cls-5" d="M349.34,374.18l.14-.12.13-.09.12,0a.11.11,0,0,1,.08,0"/><line class="cls-5" x1="412.48" y1="373.05" x2="410.87" y2="374.18"/><path class="cls-5" d="M410.4,373.94a.13.13,0,0,1,.09,0l.11,0,.13.09.14.12"/><path class="cls-5" d="M168.41,393.73h.13c.09,0,.24.08.43.15s.6.26,1,.45l.7.33.94.47,1.06.55"/><path class="cls-5" d="M168.41,393.73a4.45,4.45,0,0,0,2.77,7.51"/><path class="cls-5" d="M587.52,395.69l1.08-.56c.33-.16.64-.33.95-.47l.68-.33,1-.45c.2-.07.34-.13.43-.15h.13"/><path class="cls-5" d="M589,401.24a4.44,4.44,0,0,0,2.77-7.51"/><path class="cls-5" d="M591.8,393.73A319,319,0,0,0,474,327.55"/><path class="cls-5" d="M286.17,327.55a319,319,0,0,0-117.76,66.18"/><path class="cls-5" d="M267.41,401c0-.06-.05-.13-.13-.31l-.35-.81c-.17-.38-.37-.82-.58-1.31s-.45-1-.68-1.51"/><path class="cls-5" d="M267.41,401a5.53,5.53,0,0,1-.94.33,6.4,6.4,0,0,1-1,.12"/><path class="cls-5" d="M492.81,401a5.15,5.15,0,0,0,.93.33,6.53,6.53,0,0,0,1,.12"/><path class="cls-5" d="M494.54,397.07c-.24.52-.46,1-.67,1.51s-.41.93-.59,1.31-.29.68-.37.85l-.1.27"/><path class="cls-5" d="M329.65,317.42l.07,0a.27.27,0,0,0,.08-.07,1.12,1.12,0,0,0,.2-.3,6.83,6.83,0,0,0,.53-1.6.43.43,0,0,0,0-.05"/><path class="cls-5" d="M330.54,315.38a.11.11,0,0,0,.09-.05"/><path class="cls-5" d="M429.59,315.33a.09.09,0,0,0,.08.05"/><path class="cls-5" d="M429.67,315.38a.11.11,0,0,1,0,.05,6.83,6.83,0,0,0,.53,1.6,1.37,1.37,0,0,0,.19.3.26.26,0,0,0,.1.07.11.11,0,0,0,.06,0"/><line class="cls-5" x1="410.87" y1="374.18" x2="409.89" y2="374.81"/><polyline class="cls-5" points="409.42 374.66 409.47 374.64 409.52 374.63 409.57 374.63 409.63 374.64 409.69 374.67 409.76 374.7 409.82 374.75 409.89 374.81"/><line class="cls-5" x1="350.32" y1="374.81" x2="349.34" y2="374.18"/><polyline class="cls-5" points="350.32 374.81 350.39 374.75 350.45 374.7 350.52 374.67 350.58 374.64 350.64 374.63 350.7 374.63 350.75 374.64 350.8 374.66"/><path class="cls-5" d="M492.81,401c-6.82-3.11-13.62-6.21-20.58-8.93S458.15,387,451,385s-14.47-3.85-21.81-5.23-14.77-2.34-22.19-3.31"/><path class="cls-5" d="M409.89,374.81c-.68.39-1.36.79-1.91,1.09l-.7.38-.29.15h0"/><path class="cls-5" d="M353.26,376.44l-.21-.1-.56-.3c-.38-.21-.85-.46-1.35-.75l-.82-.48"/><path class="cls-5" d="M353.26,376.44c-7.42,1-14.84,1.93-22.19,3.31s-14.61,3.17-21.81,5.23-14.32,4.38-21.27,7.1-13.78,5.82-20.58,8.93"/><path class="cls-5" d="M330.54,315.38c.1-.48.21-1,.29-1.44a.76.76,0,0,1,0-.21"/><path class="cls-5" d="M429.36,313.73l0,.21c.07.48.18,1,.28,1.44"/><path class="cls-5" d="M406.5,376.54a.83.83,0,0,1,.22-.08.93.93,0,0,1,.23,0"/><path class="cls-5" d="M353.26,376.44a.86.86,0,0,1,.23,0,.83.83,0,0,1,.22.08"/><path class="cls-5" d="M335.41,280.76c-.7,2.61-1.39,5.22-2.28,7.76A63.79,63.79,0,0,1,330,296a72.34,72.34,0,0,1-4,7.14,74.08,74.08,0,0,1-4.85,6.7A63.87,63.87,0,0,1,315.5,316c-2,1.92-4.17,3.68-6.32,5.43"/><path class="cls-5" d="M451,321.39c-2.15-1.75-4.31-3.51-6.32-5.43a65.1,65.1,0,0,1-5.62-6.11,70.39,70.39,0,0,1-4.85-6.7,74.37,74.37,0,0,1-4-7.13,65.25,65.25,0,0,1-3.15-7.49c-.88-2.55-1.58-5.16-2.27-7.77"/><path class="cls-5" d="M426,280.38l-.08,0-.11,0-.16,0-.18.06-.2.07-.42.14"/><path class="cls-5" d="M423,267.48c.09.63.19,1.26.29,1.9.16.95.33,1.9.53,2.84s.45,2,.7,3.07c.21.85.44,1.71.69,2.56s.51,1.69.79,2.53"/><path class="cls-5" d="M335.41,280.76l-.43-.14-.2-.07-.18-.06-.15-.05-.11,0-.09,0"/><path class="cls-5" d="M334.26,280.38c.26-.81.52-1.63.75-2.45s.5-1.76.72-2.65.42-1.74.61-2.62.37-1.82.53-2.74.25-1.63.38-2.44"/><path class="cls-5" d="M302.47,320.25c1.15-.71,2.29-1.43,3.4-2.18s2.27-1.59,3.37-2.44,2.24-1.77,3.32-2.7,2.19-2,3.24-3,2.12-2.14,3.13-3.25,2.05-2.33,3-3.54a73.08,73.08,0,0,0,4.49-6.28,66,66,0,0,0,4.22-7.57c1.37-2.91,2.49-5.92,3.61-8.93"/><path class="cls-5" d="M426,280.38c.65,1.86,1.31,3.71,2.06,5.52s1.5,3.38,2.35,5,1.64,3.06,2.54,4.55,1.72,2.74,2.65,4.07,1.77,2.44,2.71,3.61a74.49,74.49,0,0,0,6.14,6.79,67.94,67.94,0,0,0,6.56,5.68c2.18,1.65,4.47,3.13,6.76,4.62"/><path class="cls-5" d="M168.36,393.76a4.41,4.41,0,0,0,2.93,7.7"/><path class="cls-5" d="M591.8,393.73l0,0"/><path class="cls-5" d="M588.92,401.46a4.41,4.41,0,0,0,2.92-7.7"/><line class="cls-5" x1="373.86" y1="254.84" x2="373.86" y2="269.27"/><path class="cls-5" d="M373.86,298.74a6.24,6.24,0,0,0,12.48,0"/><line class="cls-5" x1="373.86" y1="291.52" x2="373.86" y2="298.74"/><line class="cls-5" x1="386.34" y1="298.74" x2="386.34" y2="291.52"/><line class="cls-5" x1="386.34" y1="269.27" x2="386.34" y2="254.84"/><path class="cls-5" d="M265.48,401.46a4.34,4.34,0,0,0,1.93-.45"/><line class="cls-5" x1="267.41" y1="401.01" x2="267.41" y2="401.01"/><path class="cls-5" d="M492.81,401a4.27,4.27,0,0,0,1.92.45"/><line class="cls-5" x1="492.81" y1="401.01" x2="492.81" y2="401.01"/><polyline class="cls-5" points="214.47 247.91 214.02 246.77 213.51 245.48 213.05 244.31 212.64 243.27 212.29 242.42 212.05 241.79 211.9 241.41 211.84 241.28"/><path class="cls-5" d="M210.76,249.38l-2.59.89-2.92,1c-1,.32-1.88.63-2.73.93l-2.31.8-2,.67-1.42.49-1,.33-.42.15"/><path class="cls-5" d="M375.2,252.07V252l0-.06,0-.1v0"/><polyline class="cls-5" points="383.59 251.55 384.31 251.44 384.59 251.4"/><line class="cls-5" x1="383.68" y1="252.28" x2="383.65" y2="252.01"/><path class="cls-5" d="M343.67,220.35A1188.63,1188.63,0,0,0,187.29,275"/><path class="cls-5" d="M574.26,181.29a1188.79,1188.79,0,0,0-164.14,23"/><path class="cls-5" d="M342.77,227.24Q317.2,234,291.84,241.5"/><path class="cls-5" d="M466,199.33q-26.36,5-52.54,10.79"/><path class="cls-5" d="M206.12,275.38q67.13-10.25,133.48-24.81"/><path class="cls-5" d="M418.05,231.77q70.51-18.33,139.65-41.52"/><line class="cls-5" x1="387.81" y1="251.4" x2="387.81" y2="252.24"/><line class="cls-5" x1="372.4" y1="252.24" x2="372.4" y2="251.4"/><polygon class="cls-6" points="50.78 158.05 39.01 178.44 62.55 178.44 50.78 158.05"/><polygon class="cls-6" points="50.78 400 62.55 379.61 39.01 379.61 50.78 400"/><line class="cls-7" x1="41.26" y1="157.69" x2="593.32" y2="157.69"/><line class="cls-7" x1="50.78" y1="304.98" x2="149.24" y2="304.98"/><line class="cls-7" x1="41.74" y1="400.69" x2="202.03" y2="400.69"/><line class="cls-8" x1="50.78" y1="389.84" x2="50.78" y2="162.74"/><text class="cls-9" transform="translate(41.74 370.67) rotate(-90)">8cm</text><text class="cls-9" transform="translate(41.74 275.38) rotate(-90)">17cm</text></svg>