<?xml version="1.0" encoding="UTF-8"?>
<!-- Generator: Adobe Illustrator 22.1.0, SVG Export Plug-In . SVG Version: 6.00 Build 0)  -->
<svg version="1.1" id="Camada_1" xmlns="http://www.w3.org/2000/svg" xmlns:xlink="http://www.w3.org/1999/xlink" x="0px" y="0px" viewBox="0 0 356.3 503.9" style="enable-background:new 0 0 356.3 503.9;" xml:space="preserve">
<style type="text/css">
	.st0{fill:#FFFFFF;stroke:#000000;stroke-miterlimit:10;}
	.st1{fill:none;stroke:#000000;stroke-miterlimit:10;}
	.st2{fill:#BC0F19;}
	.st3{fill:none;stroke:#BC0F19;stroke-width:1.8;stroke-miterlimit:10;}
	.st4{fill:none;stroke:#BC0F19;stroke-width:1.88;stroke-miterlimit:10;}
	.st5{fill:none;stroke:#BC0F19;stroke-width:1.81;stroke-miterlimit:10;}
	.st6{fill:#DEDEDE;}
	.st7{fill:#FFFFFF;stroke:#000000;stroke-width:2;stroke-miterlimit:10;}
	.st8{fill:#FFFFFF;stroke:#000000;stroke-width:2;stroke-linejoin:round;stroke-miterlimit:10;}
</style>
<path class="st7" d="M165.9,46.4l-0.6-7.8c0,0,1.7-2.8,9.3-2.5c7.7,0.3,8.9,1.9,8.9,1.9l0.1,8.3L165.9,46.4z"/>
<path class="st7" d="M135.8,137.8c0,0,0.4-1.3,40.6-1.2s40.6,1.4,40.6,1.4l-39,7.5l-41-5.9L135.8,137.8z"/>
<path class="st8" d="M217,137.9l-1.1,167.8l-3,11.4l1.2,140.5c0,0-1.2,12.2-35.2,11.4c-34-0.8-38.3-9.9-38.3-9.9l-1.2-139.4  l-2.1-10.8l-1.5-171.2c0,0,17.3,3,38.4,2.9C204.1,140.6,204.1,140,217,137.9z"/>
<path class="st7" d="M152.6,137.1l1.5-87.4c0,0-0.5-3.2,7.6-3.3s28.1-0.2,28.1-0.2s6.8-0.7,7.1,4.2s1.6,86.8,1.6,86.8  S170.7,140.2,152.6,137.1z"/>
<line class="st0" x1="135.9" y1="146.3" x2="216.9" y2="145.6"/>
</svg>