<svg id="Camada_1" data-name="Camada 1" xmlns="http://www.w3.org/2000/svg" viewBox="0 0 1150.44 485.59"><defs><style>.cls-1,.cls-2,.cls-3{fill:#fff;stroke:#1d1d1b;}.cls-1,.cls-2,.cls-3,.cls-4,.cls-5{stroke-miterlimit:10;}.cls-1{stroke-width:2px;}.cls-3{font-size:35.15px;font-family:OpenSans-ExtraBoldItalic, Open Sans;font-weight:700;font-style:italic;}.cls-4,.cls-5{fill:none;stroke:#db0612;}.cls-4{stroke-width:2.64px;}.cls-5{stroke-width:2.64px;}.cls-6,.cls-7{fill:#db0612;}.cls-7{font-size:28.53px;font-family:Roboto-Medium, Roboto;}</style></defs><title>Medidas Nox</title><rect class="cls-1" x="102.41" y="57.96" width="972" height="369.67" rx="31.99" ry="31.99"/><polygon class="cls-2" points="1074.41 140.63 997.66 140.63 930.91 209.13 1074.41 209.13 1074.41 140.63"/><polyline class="cls-2" points="1074.41 227.29 1028.91 227.29 968.66 274.63 1010.16 351.13 872.41 351.13 894.41 415.13 1067.37 415.13"/><text class="cls-3" transform="translate(351.75 401.68)">BORN GAMER, ALWAYS GAMER</text><line class="cls-4" x1="105.81" y1="468.67" x2="1057.38" y2="468.67"/><line class="cls-5" x1="101.59" y1="480.59" x2="101.59" y2="427.7"/><polygon class="cls-6" points="102.31 468.18 124.03 480.59 124.03 455.76 102.31 468.18"/><line class="cls-5" x1="1074.41" y1="479.83" x2="1074.41" y2="427.63"/><polygon class="cls-6" points="1073.69 467.42 1051.97 479.83 1051.97 455.01 1073.69 467.42"/><text class="cls-7" transform="translate(540.75 459.01)">800mm</text><line class="cls-4" x1="54.17" y1="73.4" x2="54.17" y2="409.67"/><line class="cls-5" x1="42.39" y1="57.96" x2="101.88" y2="57.96"/><polygon class="cls-6" points="54.17 57.96 41.76 79.67 66.59 79.67 54.17 57.96"/><line class="cls-5" x1="42.14" y1="427.56" x2="97.51" y2="427.7"/><polygon class="cls-6" points="54.17 427.56 41.76 405.84 66.59 405.84 54.17 427.56"/><text class="cls-7" transform="translate(37.33 296.01) rotate(-90)">300mm</text></svg>