<svg id="Camada_1" data-name="Camada 1" xmlns="http://www.w3.org/2000/svg" xmlns:xlink="http://www.w3.org/1999/xlink" viewBox="0 0 257.24 257.24"><defs><clipPath id="clip-path"><rect x="1" width="257.24" height="257.24" style="fill:none"/></clipPath></defs><title>esquerda </title><g id="Camada_2" data-name="Camada 2"><g id="Camada_1-2" data-name="Camada 1-2"><g style="clip-path:url(#clip-path)"><g style="opacity:0.5400000214576721"><path d="M230.22-173.12s13.66,25,12.06,43.25-16.63,81.33-16.63,81.33c-2.46,34.17,3.14,76.94,3.14,76.94L230,32.74,235.56,48l-7,64.77,8.28,22.6.46,2.35c3.39,3.21,5.84,14.61,5.84,14.61s-.45,33.87-2,40a19.82,19.82,0,0,1-6.77,10l-66.72,15.68-16.7-2-27.83.76S-20.47,242.92-26.71,243.41s-21.9-4.29-21.9-4.29L-151.3,205.6s-10.58-14.35-11.31-26.85,8-21.59,8-21.59c4.89-13.46,20.29-26.79,20.29-26.79,45.22-46.09,76.62-18.53,102-7s45.12,11,45.12,11c1.62-1.27,5.87-11,5.87-11-28.31-7-26.53-34.69-25.15-43.92s7-32.72,29.85-68.2,24.41-46.51,26-56.87-8.9-22.28-8.9-22.28c-25.57-25.6-19.79-43.56-17-54.5s31-28.93,31-28.93,25.33-14.15,28.37-18.88,17.43-34.6,17.43-34.6l7-16.12c8.15-34.22,19.09-43.43,24.27-46.74s26-13,46-14.83S201.57-269,201.57-269c7.83,10,12.44,34.16,12.52,35.68s14.12,52.12,14.12,52.12Z" style="fill:#fff"/><path d="M-154.55,158.21c9.69-12.36,42.67-13.57,42.67-13.57l75.61-5.43L61,132.29l-11.44.59-37.5,1.76s-19.84.5-45.13-11-56.7-39-101.91,7c0,0-15.4,13.33-20.3,26.79,0,0-8.67,9.09-8,21.59C-163.24,179-164.23,170.56-154.55,158.21Z" style="fill:none;stroke:#1d1d1b;stroke-miterlimit:10;stroke-width:3px"/><path d="M122.49,217.09s-143.58,26-149.82,26.52-21.92-4.3-21.92-4.3L-152,205.86s-10.53-14.38-11.26-26.88,8-21.59,8-21.59c4.9-13.46,20.3-26.79,20.3-26.79" style="fill:none;stroke:#1d1d1b;stroke-miterlimit:10;stroke-width:3px"/><path d="M150.07,206.92a10.61,10.61,0,0,0-1.42-2.81l9.28-20.3c7.87-.16,22.89-11.1,22.89-11.1l6,.54.51-8,4.35-1.23s6.56-17.23,9.37-23.65a15.67,15.67,0,0,1,9.17-8.28l-11.95-1.76,8.88-87.1s3.75-14.1,4.43-15.9S215.41,26,215.41,26l12.81,2.68L229.44,33,235,48.27,228,113l8.29,22.61.46,2.34c2.62,2.49,4.68,9.88,5.48,13.09a11.12,11.12,0,0,1,.33,2.93c-.13,6.53-.65,33.24-2,38.67a19.65,19.65,0,0,1-6.77,10L167,218.26l-16.7-2S150.1,207.66,150.07,206.92Z" style="fill:none;stroke:#1d1d1b;stroke-miterlimit:10;stroke-width:2px"/><path d="M81.92-169.48c-3,2.15-28.17,18.48-28.17,18.48s-28.29,18-31,28.91-8.54,28.91,17,54.51c0,0,10.53,11.9,8.9,22.28s-3.21,21.39-26,56.87-28.45,59-29.84,68.2S-10.31,116.7,18,123.69c0,0-4.24,9.72-5.86,11" style="fill:none;stroke:#1d1d1b;stroke-miterlimit:10;stroke-width:3px"/><path d="M99.63-204.54l7-16.12c8.14-34.22,19.1-43.39,24.26-46.74s26-13.07,46-14.86S201-268.78,201-268.78c7.92,10,12.48,34.17,12.56,35.69S227.65-181,227.65-181l1.94,8.12s13.66,25,12.06,43.24S225-48.31,225-48.31c-2.45,34.17,3.15,76.94,3.15,76.94" style="fill:none;stroke:#1d1d1b;stroke-miterlimit:10;stroke-width:3px"/><path d="M201-268.78c4.22,7.66,6.06,23.87,6.06,23.87s6.52,47.43,13.51,59.77A132,132,0,0,1,230.91-162C237.3-97.58,215-66.7,215-66.7L176.63,20.77" style="fill:none;stroke:#1d1d1b;stroke-miterlimit:10;stroke-width:3px"/><path d="M-37.4,242.09c8-8.37,15.33-24.57,15.33-24.57l9.77-14S1.25,184,53.06,150.68,124,144.09,124,144.09" style="fill:none;stroke:#1d1d1b;stroke-miterlimit:10;stroke-width:3px"/><path d="M41.86,158s-5,1.11-15.92,3-54.72,11.17-66.21,25.65,2.58,50,2.58,50" style="fill:none;stroke:#1d1d1b;stroke-miterlimit:10;stroke-width:3px"/><g id="Detalhes"><path d="M25.13-126.7c-.07,5.27,11.47,31.76,18.46,39.36s29,49.49,30.61,53.14S57.42,39.93,57.42,39.93l5.64-.4L91.54-68,75.32-113c-11-12.47-22.3-37.49-22.3-37.49" style="fill:none;stroke:#1d1d1b;stroke-miterlimit:10;stroke-width:2px"/><line x1="60.45" y1="32.17" x2="39.64" y2="-16.83" style="fill:none;stroke:#1d1d1b;stroke-miterlimit:10;stroke-width:2px"/><path d="M154.64,16.53l11.58-81.44,27.33-57.65-.36-7.1s2.53-9.45,11.08-28,21.78-14.52,21.78-14.52" style="fill:none;stroke:#1d1d1b;stroke-miterlimit:10;stroke-width:2px"/><path d="M191.32-12.72c-6.17,1.81-11.1,8.81-11.1,8.81l-8.29,23.8" style="fill:none;stroke:#1d1d1b;stroke-miterlimit:10;stroke-width:2px"/><polyline points="71.98 5.96 118.2 -12.69 155.54 10.12" style="fill:none;stroke:#1d1d1b;stroke-miterlimit:10;stroke-width:2px"/><polyline points="71.32 10.89 117.55 -7.77 154.84 15.01" style="fill:none;stroke:#1d1d1b;stroke-miterlimit:10;stroke-width:2px"/></g><path d="M124.86,140.87l-14-5.28a22.23,22.23,0,0,0-5.69-1.33c-4.64-.48-14.43-1.21-28.29-1.26-19.85-.07-33.53-6.23-33.53-6.23S35.46,117.42,31.43,90,31.7,52.56,35,46.47s10.64-5.82,16.85-6.31,20.35-.07,20.35-.07" style="fill:none;stroke:#1d1d1b;stroke-miterlimit:10;stroke-width:3px"/><path d="M59,131.25c-4.26-2.46-6.19-9.42-6.75-11.92S52,111.8,51.07,96.94s-3.85-21.15-5.85-36.47S53.41,40,53.41,40" style="fill:none;stroke:#1d1d1b;stroke-miterlimit:10;stroke-width:2px"/><polyline points="228.52 32.23 220.15 30.82 221.9 45.22 214.55 110.98 222.84 133.51 220.69 152.59 222.3 167.41 229.19 168.08 234.36 154.85 236.7 137.96" style="fill:none;stroke:#1d1d1b;stroke-miterlimit:10;stroke-width:2px"/><line x1="220.15" y1="30.82" x2="215.41" y2="26.88" style="fill:none;stroke:#1d1d1b;stroke-miterlimit:10;stroke-width:2px"/><polyline points="221.97 141.23 215.88 136.62 216.65 133.02 207.96 109.85 214.89 45.2 212.88 27.01" style="fill:none;stroke:#1d1d1b;stroke-miterlimit:10;stroke-width:2px"/><path d="M150.22,210.86l13.48,1.51,10.52-26.63c17.09-6.81,22.55-20.77,22.55-20.77s6.56-17.2,9.36-23.61a15.78,15.78,0,0,1,9.19-8.27" style="fill:none;stroke:#1d1d1b;stroke-miterlimit:10;stroke-width:2px"/><path d="M221.9,141.84c-2.34.95-6.62,5.36-7.55,7.06s-6,17.6-12.12,29.09-21.61,17-21.61,17l-3.68,12.21,3.26-.78,54.13-12.09a3.51,3.51,0,0,0,2.83-3.29l1.7-35.62a15.61,15.61,0,0,0-.51-4.81,61.48,61.48,0,0,0-2-6.47" style="fill:none;stroke:#1d1d1b;stroke-miterlimit:10;stroke-width:2px"/><line x1="176.98" y1="207.22" x2="167.01" y2="218.3" style="fill:none;stroke:#1d1d1b;stroke-miterlimit:10;stroke-width:2px"/><path d="M119.42,138.21s-11.33-7.5-13.44-23.88-2.49-37.81,1.23-48.68a39.54,39.54,0,0,1,12.57-17.36" style="fill:none;stroke:#1d1d1b;stroke-miterlimit:10;stroke-width:2px"/></g><path d="M73.51,226l31.22-5.62,16.39,4.24,1.68-15.17,1.9-2,1.23-56.64-1.74-.67-1.27-37.63L120.57,47.7l-10.45-.46-1.31-.79s-29.55-3-31.51-3.28S74,40.37,73.59,37a10.14,10.14,0,0,1,1.68-6.35s.73-3,10.92-7.42,25.93-6.35,25.93-6.35,19.29-1.68,29.73-1.53,27.63,3.56,28.84,4.09A73.13,73.13,0,0,0,178.57,21s16.15,1.36,21.34,3.38,4.8,7.63,4.9,9.57a9.08,9.08,0,0,1-2.89,6.15c-1.63,1.48-10.7,2-10.7,2l-3.61,2.19-17.26.55-10.58,1.74-1.55,18.25-6.45,83.08-2.12,1.55-1,54.6,1.43,3.4.22,8.8.48,20.78-1.56,5.06c-9.49,6.5-27.85,3.44-27.85,3.44l-5.47-5.81-.09-1.69L74.22,226.75Z" style="fill:#fff;stroke:#1d1d1b;stroke-miterlimit:10;stroke-width:3px"/><path d="M73.57,36.68c.78,1.15,31,2,34.3,1.35s21.7-3.16,41.28-7.6S204,33.09,204,33.09" style="fill:none;stroke:#1d1d1b;stroke-miterlimit:10;stroke-width:2px"/><path d="M125.92,150.89c6.27.86,23.72-1.4,23.72-1.4" style="fill:none;stroke:#1d1d1b;stroke-miterlimit:10;stroke-width:2px"/><path d="M122.69,210.09c18.29,3.57,27.37-3.23,27.37-3.23" style="fill:none;stroke:#1d1d1b;stroke-miterlimit:10;stroke-width:2px"/><line x1="159.72" y1="46.53" x2="120.57" y2="47.74" style="fill:none;stroke:#1d1d1b;stroke-miterlimit:10;stroke-width:2px"/></g></g></g></svg>