<svg xmlns="http://www.w3.org/2000/svg" viewBox="0 0 1015.04 985.06"><title>Almofada Elite Series XL PU</title><g id="Camada_2" data-name="Camada 2"><g id="Camada_4" data-name="Camada 4"><path d="M224,27.35s-3-23-16-21-45,7-45,7a31.32,31.32,0,0,0-12,7" style="fill:none;stroke:#000;stroke-miterlimit:10;stroke-width:3px"/><path d="M172.52,22.85s.26-7.19-8.87-9.6" style="fill:none;stroke:#000;stroke-miterlimit:10;stroke-width:2px"/><path d="M712,57.35s-3-23-16-21-45,7-45,7a31.32,31.32,0,0,0-12,7" style="fill:none;stroke:#000;stroke-miterlimit:10;stroke-width:3px"/><path d="M660.52,52.85s.26-7.19-8.87-9.6" style="fill:none;stroke:#000;stroke-miterlimit:10;stroke-width:2px"/><path d="M4,103.35s-9-49,11-77c4-8,4-9,6-12s2-5,5-3c3-4,9-11,26-9s99,18,99,18a588.09,588.09,0,0,0,101,9c55,0,293-1,373,18,30,5,97,13,118,10s73-6,86-4,18,8,21,13,14,19,16,31,91,307,57,468-195,254-195,254l-262,63-181,13-199,13s-21,3-28-7-13-18-13-18a45.69,45.69,0,0,1-5-15c-1-8-12-268-19-354S6,222.35,4,103.35Z" style="fill:#fff;stroke:#000;stroke-miterlimit:10;stroke-width:4px"/><path d="M26,11.35l11,4s12,3,12,23,6,37,11,65c2.21,12.36,29.78,154.93,42,312,15.47,198.82,16,420,16,420s5,51-18,56-38,8-44,7" style="fill:none;stroke:#000;stroke-miterlimit:10;stroke-width:4px"/><path d="M116,875.35s0,17,21,15,194-19,194-19" style="fill:none;stroke:#000;stroke-miterlimit:10;stroke-width:4px"/><path d="M44,18.35s1-11,17-7,43,9,130,15" style="fill:none;stroke:#000;stroke-miterlimit:10;stroke-width:4px"/><path d="M118,21.35s91,107,108,187,26,99,40,247" style="fill:none;stroke:#000;stroke-miterlimit:10;stroke-width:4px"/><path d="M777,54.35s-31,101-22,180,28,203,22,279" style="fill:none;stroke:#000;stroke-miterlimit:10;stroke-width:4px"/><path d="M563.47,355.36l-14,27.1-63.9-.59,1.71-20.77c.24-3.1,2-5.54,4.48-6.2a5.12,5.12,0,0,1,1.41-.14h.7Z" style="fill:none;stroke:#000;stroke-miterlimit:10;stroke-width:1.5469791739098142px;fill-rule:evenodd"/><polygon points="510.91 387.1 532.6 387.29 526.56 461.71 504.87 461.52 510.91 387.1" style="fill:none;stroke:#000;stroke-miterlimit:10;stroke-width:1.5469791739098142px;fill-rule:evenodd"/><path d="M480.17,461.32c11.26.1,19.35-11.41,18.07-25.7a29.83,29.83,0,0,0-.65-4.4,26.11,26.11,0,0,0-1.63-4.75l-2.2-4.86a0,0,0,0,1,0,0l-27.93-61c-2.72-6.13-6.05-6.25-8.1-6.11l-26.32-.27-2.24,27.11,23,.22,24.47,53-19.27-.17-10.8-.09,3.88-47.75-21.69-.19-6.05,74.42,57.42.52" style="fill:none;stroke:#000;stroke-miterlimit:10;stroke-width:1.5469791739098142px;fill-rule:evenodd"/><path d="M624.67,364.85a.57.57,0,0,1,0,.14,8.83,8.83,0,0,1-.8,4.5L617.35,383l-60-.53,14-27.07,45.19.39C620.25,355.53,624.35,359.33,624.67,364.85Z" style="fill:none;stroke:#000;stroke-linecap:round;stroke-linejoin:round;stroke-width:1.5469791739098142px"/><path d="M609.49,428.4a31.7,31.7,0,0,1,2.68,9.49c1.47,14.28-6.12,24.35-15.7,24.43l-39.5-.56-12.24-26.59,43.27.38-17.52-27.84,15.35-20,26.37.23-15.26,20s6.11,9.62,9.76,15.54A53.41,53.41,0,0,1,609.49,428.4Z" style="fill:none;stroke:#000;stroke-linecap:round;stroke-linejoin:round;stroke-width:1.5469791739098142px"/><polygon points="556.07 470.43 576.49 470.64 575.12 487.76 554.71 487.56 556.07 470.43" style="fill:none;stroke:#000;stroke-miterlimit:10;stroke-width:1.5469791739098142px;fill-rule:evenodd"/><polygon points="579.24 470.65 594.66 470.77 593.29 487.93 577.88 487.79 579.24 470.65" style="fill:none;stroke:#000;stroke-miterlimit:10;stroke-width:1.5469791739098142px;fill-rule:evenodd"/><polygon points="597.49 470.8 608.01 470.89 606.66 488.03 596.13 487.93 597.49 470.8" style="fill:none;stroke:#000;stroke-miterlimit:10;stroke-width:1.5469791739098142px;fill-rule:evenodd"/><polygon points="610.69 470.91 615.88 470.96 614.51 488.11 609.32 488.06 610.69 470.91" style="fill:none;stroke:#000;stroke-miterlimit:10;stroke-width:1.5469791739098142px;fill-rule:evenodd"/><polygon points="618.48 470.98 622.46 471.01 621.1 488.17 617.12 488.12 618.48 470.98" style="fill:none;stroke:#000;stroke-miterlimit:10;stroke-width:1.5469791739098142px;fill-rule:evenodd"/><polygon points="624.92 471.04 627.5 471.07 626.18 488.2 623.6 488.18 624.92 471.04" style="fill:none;stroke:#000;stroke-miterlimit:10;stroke-width:1.5469791739098142px;fill-rule:evenodd"/><polygon points="553.22 470.43 533.59 470.26 532.76 480.54 548.53 480.68 548.26 484.07 532.48 483.94 532.21 487.33 551.85 487.52 552.68 477.31 536.92 477.16 537.2 473.73 552.94 473.87 553.22 470.43" style="fill:none;stroke:#000;stroke-miterlimit:10;stroke-width:1.5469791739098142px"/><polygon points="441.67 469.44 422.04 469.27 421.21 479.55 436.98 479.69 436.7 483.08 420.93 482.95 420.65 486.35 440.3 486.53 441.12 476.32 425.37 476.18 425.65 472.74 441.38 472.88 441.67 469.44" style="fill:none;stroke:#000;stroke-miterlimit:10;stroke-width:1.5469791739098142px"/><path d="M444.61,469.47l-1.39,17.09,4,0,.55-6.8,15.23.13.83-10.28Zm14.74,7-11.33-.1.28-3.44,11.33.1Z" style="fill:none;stroke:#000;stroke-miterlimit:10;stroke-width:1.5469791739098142px"/><path d="M466.73,469.67l-1.39,17.1,19.35.17,1.39-17.1Zm14.37,13.81-11.42-.1.83-10.24,11.43.1Z" style="fill:none;stroke:#000;stroke-miterlimit:10;stroke-width:1.5469791739098142px"/><polygon points="511.34 470.06 511.06 473.49 518.66 473.56 517.55 487.22 521.76 487.26 522.87 473.59 530.4 473.66 530.68 470.23 511.34 470.06" style="fill:none;stroke:#000;stroke-miterlimit:10;stroke-width:1.5469791739098142px"/><path d="M508.41,470,489,469.86,487.64,487l4,0,.57-7,9.94,7.06,4.9,0,.11-1.42-7.71-5.47,8.15.07ZM504,476.87l-11.53-.1.28-3.44,11.53.1Z" style="fill:none;stroke:#000;stroke-miterlimit:10;stroke-width:1.5469791739098142px"/><path d="M208.62,562.5C205.86,534.88,199.41,484.25,227,453c11.05-12,17.49-18.41,32.22-22.09,8.29-3.68,20.25-11.05,44.19-5.52S355,435.46,409.3,464.92c32.22,15.65,119.67,56.16,167.54,63.52,14.73.92,30.38-4.6,42.35,1.84,4.6-.92,14.73-.92,14.73-.92s46,3.68,156.49-58C809.75,461.24,899,412.45,936.78,454.8c3.68,3.68,21.18,35,26.7,124.27,6.44,73.65,12,167.54,31.3,235.66,7.36,29.46,8.28,40.51,8.28,40.51s19.33,52.47,4.61,76.41c-7.37,10.12-6.45,17.49-47.87,27.61-15.65,1.84-35,3.68-35,3.68h-26.7s-7.37,2.77-25.78-4.6S665.22,852.48,551.07,894.82c-26.7,9.21-69,20.26-133.48,69-10.13,5.53-26.7,13.81-44.19,14.73s-54.31,3.69-54.31,3.69S309,987.8,290.55,972.15s-48.79-37.74-50.63-81.93-3.68-108.63-3.68-108.63S211.38,590.12,208.62,562.5Z" style="fill:#fff;stroke:#000;stroke-miterlimit:10;stroke-width:3.6822350025177px"/><path d="M375.24,449.27S320.93,435.46,309,433.62s-37.74-12-47.87,11.05-12,25.78-12,25.78-5.52,6.44,1.85,33.14S310.8,626,294.23,870.89c-3.68,28.54,6.45,107.7,72.73,94.82,31.3-6.45,86.53-44.19,86.53-44.19s167.54-93,293.66-54.31,209,69,209,69,27.39,17.42,48.22.42" style="fill:none;stroke:#000;stroke-miterlimit:10;stroke-width:3.6822350025177px"/><path d="M461.32,488.86s17.94,14.73,11.5,93-14.09,264.08-64.53,367" style="fill:none;stroke:#000;stroke-miterlimit:10;stroke-width:3.6822350025177px"/><path d="M576.84,528.44s80.09,25.78,193.32-20.25c60.76-32.22,99.09-74.86,160-59.53" style="fill:none;stroke:#000;stroke-miterlimit:10;stroke-width:3.6822350025177px"/><path d="M774.32,506s60.28,18.81,93.42,114.55S935,841.82,923.59,924.72" style="fill:none;stroke:#000;stroke-miterlimit:10;stroke-width:3.6822350025177px"/><path d="M726.82,599.55,711,631.48l-77.72,0,1.19-24.37c.16-3.64,2.2-6.52,5.18-7.32a7,7,0,0,1,1.71-.18h.85Z" style="fill:none;stroke:#000;stroke-miterlimit:10;stroke-width:1.830377330193035px;fill-rule:evenodd"/><polygon points="664.27 637.31 690.65 637.31 686.48 724.65 660.1 724.65 664.27 637.31" style="fill:none;stroke:#000;stroke-miterlimit:10;stroke-width:1.830377330193035px;fill-rule:evenodd"/><path d="M630.07,724.68c13.69,0,23-13.58,20.87-30.33a35.21,35.21,0,0,0-1-5.16,30.5,30.5,0,0,0-2.19-5.55L644.89,678s0,0,0,0l-36.56-71.21c-3.57-7.15-7.61-7.26-10.11-7.08l-32,0-1.57,31.83,28,0,32,61.91H588.1l2.69-56H564.4l-4.17,87.34,69.84,0" style="fill:none;stroke:#000;stroke-miterlimit:10;stroke-width:1.830377330193035px;fill-rule:evenodd"/><path d="M801.64,610.05a.81.81,0,0,1,0,.16,9.87,9.87,0,0,1-.77,5.29l-7.36,16H720.59l15.8-31.9h55C795.87,599.18,801,603.58,801.64,610.05Z" style="fill:none;stroke:#000;stroke-linecap:round;stroke-linejoin:round;stroke-width:1.830377330193035px"/><path d="M785.89,684.74a37.27,37.27,0,0,1,3.67,11.1c2.4,16.73-6.41,28.62-18,28.81l-48-.25-16-31h52.63l-22.49-32.48,17.81-23.58h32.07L769.77,660.9s7.83,11.21,12.52,18.12A62.1,62.1,0,0,1,785.89,684.74Z" style="fill:none;stroke:#000;stroke-linecap:round;stroke-linejoin:round;stroke-width:1.830377330193035px"/><polygon points="722.73 734.58 747.57 734.62 746.64 754.71 721.81 754.68 722.73 734.58" style="fill:none;stroke:#000;stroke-miterlimit:10;stroke-width:1.830377330193035px;fill-rule:evenodd"/><polygon points="750.92 734.6 769.67 734.58 768.74 754.72 750 754.71 750.92 734.6" style="fill:none;stroke:#000;stroke-miterlimit:10;stroke-width:1.830377330193035px;fill-rule:evenodd"/><polygon points="773.12 734.59 785.91 734.59 785 754.7 772.19 754.69 773.12 734.59" style="fill:none;stroke:#000;stroke-miterlimit:10;stroke-width:1.830377330193035px;fill-rule:evenodd"/><polygon points="789.16 734.58 795.49 734.58 794.54 754.71 788.24 754.7 789.16 734.58" style="fill:none;stroke:#000;stroke-miterlimit:10;stroke-width:1.830377330193035px;fill-rule:evenodd"/><polygon points="798.64 734.58 803.49 734.58 802.57 754.71 797.72 754.7 798.64 734.58" style="fill:none;stroke:#000;stroke-miterlimit:10;stroke-width:1.830377330193035px;fill-rule:evenodd"/><polygon points="806.48 734.58 809.61 734.59 808.75 754.7 805.6 754.7 806.48 734.58" style="fill:none;stroke:#000;stroke-miterlimit:10;stroke-width:1.830377330193035px;fill-rule:evenodd"/><polygon points="719.27 734.61 695.4 734.61 694.82 746.68 714.01 746.68 713.82 750.66 694.63 750.66 694.45 754.65 718.33 754.66 718.9 742.68 699.74 742.67 699.93 738.64 719.07 738.64 719.27 734.61" style="fill:none;stroke:#000;stroke-miterlimit:10;stroke-width:1.830377330193035px"/><polygon points="583.59 734.59 559.72 734.59 559.15 746.66 578.33 746.66 578.14 750.64 558.96 750.64 558.77 754.63 582.66 754.64 583.23 742.67 564.07 742.66 564.26 738.62 583.4 738.62 583.59 734.59" style="fill:none;stroke:#000;stroke-miterlimit:10;stroke-width:1.830377330193035px"/><path d="M587.17,734.6l-1,20H591l.38-8h18.52l.57-12.07Zm18.23,8.06H591.62l.19-4h13.78Z" style="fill:none;stroke:#000;stroke-miterlimit:10;stroke-width:1.830377330193035px"/><path d="M614.08,734.6l-1,20.07h23.54l1-20.07Zm18.06,16.06H618.25l.58-12h13.89Z" style="fill:none;stroke:#000;stroke-miterlimit:10;stroke-width:1.830377330193035px"/><polygon points="668.34 734.61 668.14 738.63 677.38 738.63 676.62 754.67 681.74 754.67 682.5 738.63 691.66 738.63 691.85 734.61 668.34 734.61" style="fill:none;stroke:#000;stroke-miterlimit:10;stroke-width:1.830377330193035px"/><path d="M664.77,734.6H641.2l-1,20.07h4.82l.39-8.18,12.39,8.18h6l.08-1.67-9.61-6.33h9.91Zm-5.11,8.06h-14l.2-4h14Z" style="fill:none;stroke:#000;stroke-miterlimit:10;stroke-width:1.830377330193035px"/></g></g></svg>