<svg xmlns="http://www.w3.org/2000/svg" xmlns:xlink="http://www.w3.org/1999/xlink" viewBox="0 0 230.82 230.82"><defs><clipPath id="clip-path"><rect y="1" width="230.82" height="230.82" style="fill:none"/></clipPath></defs><title>Prancheta 5</title><g id="Camada_3" data-name="Camada 3"><g style="clip-path:url(#clip-path)"><path d="M16.67,56.94s14.69-8,27.66-12a2.55,2.55,0,0,0,1.6-3.58c-1.1-2.09-1.61-5.2,1-8.72a3.73,3.73,0,0,1,.26-.3C49.63,29.89,55,27,56.51,26.3s16.41-4.44,16.41-4.44S113.15,11,163.05,28.55c16.81,6.35,54.26,22.18,63.21,50.13a2,2,0,0,1,.09.33,26.68,26.68,0,0,1,.56,4.33s.2,4.83-2.32,6.42a10.94,10.94,0,0,1-5.05,2.08,2.53,2.53,0,0,0-2.41,3,52.1,52.1,0,0,1-2.24,29.49c-1.67,5.18-8.4,32.18-53.18,57.82a2.56,2.56,0,0,1-1.6.33c-6-.73-25.78-5.22-30-6.18a2.53,2.53,0,0,1-1.31-.76l-.39-.42a2.56,2.56,0,0,1-.42-2.87h0a2.54,2.54,0,0,1,1.77-1.4A131.06,131.06,0,0,0,170,154.16l.14-.1c6.72-4.84,55.6-38.9,22.64-75.93a62.68,62.68,0,0,0-18-13.8c-2-1-4.26-2.16-6.66-3.22-8.34-3.71-33-16.28-76-13.24-11.76,1.06-23,1.59-51.44,14.87l-.35.2a16.13,16.13,0,0,0-3,2.49,2.47,2.47,0,0,0-.58,1c-.26,1-.83,2.94-1.37,4.36-.72,1.89-4.67,9.28-8.53,12.33l-.29.2c-2.89,1.84-8.46,4-12.82,1.63-3.82-2-2.14-6.51-1.6-7.71a2.62,2.62,0,0,0,.2-.69c.21-1.55,1-7.35.6-10.2C12.5,63.09,13.77,58.46,16.67,56.94Z" style="fill:#9b9b9b;stroke:#000;stroke-miterlimit:10;stroke-width:1.5px"/><path d="M45.39,44.36S85.8,33.14,112.8,36.22c12.26,1.27,34.31,2.5,64.68,16.28A79.63,79.63,0,0,1,199.8,67.36c5.95,5.7,12,13.44,17.43,26.14" style="fill:none;stroke:#000;stroke-miterlimit:10;stroke-width:1.5px"/><path d="M45.39,35.67s2.25.29,5.82-1.7,16.68-7.54,26.6-8.73,34-5.56,61.42,1.72C158.7,32.13,180,39.42,189.39,45.57c6.49,4.24,18.26,14.9,26.14,24a40.8,40.8,0,0,1,6,9.08c2,4.18,3.59,7.17,4.92,8.45" style="fill:none;stroke:#000;stroke-miterlimit:10;stroke-width:0.75px"/><path d="M13,69.22s1.18,2.43,3.21,2.61,6.22-1.5,6.22-1.5S35,66.41,39.48,63.52" style="fill:none;stroke:#000;stroke-miterlimit:10;stroke-width:0.75px"/><circle cx="20.2" cy="77.34" r="4.72" style="fill:none;stroke:#000;stroke-miterlimit:10;stroke-width:0.75px"/><circle cx="156.86" cy="174.07" r="4.72" style="fill:none;stroke:#000;stroke-miterlimit:10;stroke-width:0.75px"/><polyline points="128.44 171.46 130.16 173.41 129.3 175.55" style="fill:none;stroke:#000;stroke-miterlimit:10;stroke-width:0.75px"/><path d="M130.62,173.5s13.06-.78,28.5-9.07c9.71-4.94,29.91-17.82,39.8-32.82,6.17-10.94,9.35-18.8,9-30.36-.89-6.61,1.41-22.14-30.44-39.53-17.74-7.94-23-11.47-56.3-16.41-9-.61-41.12-5.73-79.23,15.18L36.73,65" style="fill:none;stroke:#000;stroke-miterlimit:10;stroke-width:0.75px"/><path d="M21.65,186.29s3.44,11.32,18.62,16.61,30.53,3.35,43.59,2.65,77.47-7.41,81.53-7.59,50.12-2.65,72.53,1.59c4.94,1.94,10.76,2.65,18,2.12s19.94-5.79,20.29-20.1c-.53-11-8.47-20.49-8.47-20.49s-7.59-10.59-7.59-12.36-11.47-15.52-33.35-17.47c-9.88-3-11.07-3.7-11.07-3.7s-31.46-8.65-78.22,0c-18.53,3.53-91.44,17.3-91.44,17.3" style="fill:#fff;stroke:#000;stroke-miterlimit:10;stroke-width:1.5px"/><path d="M-48-24.3s4.77,21.17,23.3,61.94c8.73,25.14,14.29,31,19.06,105.61C-4.55,158.08-4,177.08-2.7,179s10.85,11.45,24.35,7.33c2.65-4.92,7.41-13.39,12.44-18.68S45.74,145.9,45.74,145.9s16.73-51.21,6.38-81.33S15-22.45,14-28.8,5-60,1.53-65.07" style="fill:#fff;stroke:#000;stroke-miterlimit:10;stroke-width:1.5px"/><path d="M-23.61-81.75a64.74,64.74,0,0,1,0,15.36C-24.67-59-22.55-40.72-17-28.54S10.8,32.87,14,40.28s24.35,30.18,16.14,90.27c-6.88,36-7.23,48.23-11.42,50.45s-14.52,5.08-21.4-2" style="fill:none;stroke:#000;stroke-miterlimit:10;stroke-width:1.5px"/><path d="M32.8,199.33s-5.24-6.84-3.21-13.11S34.71,177.93,41,178s54.26-9.62,54.26-9.62,76.77-17.47,122.29-5.82c14.67,2.57,25.41,5.13,30.62,6.47a18.91,18.91,0,0,1,9.78,5.89c4.36,5.09,7.25,14.08-6.25,26.89" style="fill:none;stroke:#000;stroke-miterlimit:10;stroke-width:1.5px"/><path d="M203.63,152.16l22.77,2.21s26.87,2.38,37.72,9.27,16.29,21.25,3.65,33.79" style="fill:none;stroke:#000;stroke-miterlimit:10;stroke-width:1.5px"/><path d="M225.41,130.83c-23.22-4.08-39.64,4.48-39.64,4.48l1.64,9.89" style="fill:none;stroke:#000;stroke-miterlimit:10;stroke-width:1.5px"/><path d="M35.23,166.26s19-3.24,27.28-3.95,22.23-3.88,28.23-4.59,75.35-6.37,88.77-5.56" style="fill:none;stroke:#000;stroke-miterlimit:10;stroke-width:1.5px"/><path d="M185.77,135.31s-2.21-3.53-14.38-2.82-73.94,6.71-73.94,6.71S91.8,138,86,143.78c-2-1.23-7.24-1.41-7.24-1.41L59.33,145.2s-14.08,1.89-14.28,2.35" style="fill:none;stroke:#000;stroke-miterlimit:10;stroke-width:1.5px"/><line x1="85.34" y1="158.57" x2="85.98" y2="143.78" style="fill:none;stroke:#000;stroke-miterlimit:10;stroke-width:1.5px"/><path d="M54.78,102.23S57.65,81.58,42.3,45.58,20.59-2.86,20.59-2.86s-8.73-17.47-18.26-23c-3.71-3.44-9.53-7.68-9.27-4.5S-.32-9.75-.32-9.75L15.56,21.49,24,37.11s23.24,38.62,21,77c-2,13.76-7.47,39.47-13,55.87" style="fill:none;stroke:#000;stroke-miterlimit:10;stroke-width:1.5px"/><path d="M15.17,64.44s14.69-8,27.66-12a2.55,2.55,0,0,0,1.6-3.58c-1.1-2.09-1.61-5.2,1-8.72a3.73,3.73,0,0,1,.26-.3c2.39-2.49,7.77-5.37,9.27-6.08s16.41-4.44,16.41-4.44,40.23-10.91,90.13,6.69c16.81,6.35,54.26,22.18,63.21,50.13a2,2,0,0,1,.09.33,26.68,26.68,0,0,1,.56,4.33s.2,4.83-2.32,6.42A10.94,10.94,0,0,1,218,99.34a2.53,2.53,0,0,0-2.41,3,52.1,52.1,0,0,1-2.24,29.49c-1.67,5.18-8.4,32.18-53.18,57.82a2.56,2.56,0,0,1-1.6.33c-6-.73-25.78-5.22-30-6.18a2.53,2.53,0,0,1-1.31-.76l-.39-.42a2.56,2.56,0,0,1-.42-2.87h0a2.54,2.54,0,0,1,1.77-1.4,131.06,131.06,0,0,0,40.18-16.73l.14-.1c6.72-4.84,55.6-38.9,22.64-75.93a62.68,62.68,0,0,0-18-13.8c-2-1-4.26-2.16-6.66-3.22-8.34-3.71-33-16.28-76-13.24-11.76,1.06-23,1.59-51.44,14.87l-.35.2a16.13,16.13,0,0,0-3,2.49,2.47,2.47,0,0,0-.58,1c-.26,1-.83,2.94-1.37,4.36-.72,1.89-4.67,9.28-8.53,12.33l-.29.2c-2.89,1.84-8.46,4-12.82,1.63-3.82-2-2.14-6.51-1.6-7.71a2.62,2.62,0,0,0,.2-.69c.21-1.55,1-7.35.6-10.2C11,70.59,12.27,66,15.17,64.44Z" style="fill:#fff;stroke:#000;stroke-miterlimit:10;stroke-width:1.5px"/><path d="M43.89,51.86S84.3,40.64,111.3,43.72C123.56,45,145.61,46.22,176,60A79.63,79.63,0,0,1,198.3,74.86c5.95,5.7,12,13.44,17.43,26.14" style="fill:none;stroke:#000;stroke-miterlimit:10;stroke-width:1.5px"/><path d="M43.89,43.17s2.25.29,5.82-1.7,16.68-7.54,26.6-8.73,34-5.56,61.42,1.72c19.47,5.17,40.76,12.46,50.16,18.61,6.49,4.24,18.26,14.9,26.14,24a40.8,40.8,0,0,1,6,9.08c2,4.18,3.59,7.17,4.92,8.45" style="fill:none;stroke:#000;stroke-miterlimit:10;stroke-width:0.75px"/><path d="M11.47,76.72s1.18,2.43,3.21,2.61,6.22-1.5,6.22-1.5S33.48,73.91,38,71" style="fill:none;stroke:#000;stroke-miterlimit:10;stroke-width:0.75px"/><circle cx="18.7" cy="84.84" r="4.72" style="fill:none;stroke:#000;stroke-miterlimit:10;stroke-width:0.75px"/><circle cx="155.36" cy="181.57" r="4.72" style="fill:none;stroke:#000;stroke-miterlimit:10;stroke-width:0.75px"/><polyline points="126.94 178.96 128.66 180.91 127.8 183.05" style="fill:none;stroke:#000;stroke-miterlimit:10;stroke-width:0.75px"/><path d="M129.12,181s13.06-.78,28.5-9.07c9.71-4.94,29.91-17.82,39.8-32.82,6.17-10.94,9.35-18.8,9-30.36-.89-6.61,1.41-22.14-30.44-39.53-17.74-7.94-23-11.47-56.3-16.41-9-.61-41.12-5.73-79.23,15.18l-5.22,4.5" style="fill:none;stroke:#000;stroke-miterlimit:10;stroke-width:0.75px"/></g></g></svg>