<svg xmlns="http://www.w3.org/2000/svg" viewBox="0 0 1265.79 609.63"><defs><style>.cls-1{fill:#fff;}.cls-10,.cls-11,.cls-12,.cls-13,.cls-14,.cls-15,.cls-16,.cls-2,.cls-4,.cls-6,.cls-7,.cls-8,.cls-9{fill:none;stroke-miterlimit:10;}.cls-2,.cls-4,.cls-6,.cls-7{stroke:#e30613;}.cls-2{stroke-width:3px;}.cls-3{font-size:27px;font-family:Roboto-Light, Roboto;font-weight:300;}.cls-3,.cls-5{fill:#e30613;}.cls-4{stroke-width:2px;}.cls-6{stroke-width:2.09px;}.cls-7{stroke-width:2.07px;}.cls-8{stroke:#1e120d;stroke-width:1.77px;opacity:0.3;}.cls-10,.cls-11,.cls-12,.cls-13,.cls-14,.cls-15,.cls-16,.cls-9{stroke:gray;}.cls-9{stroke-width:4px;}.cls-10{stroke-width:3.2px;}.cls-11{stroke-width:2.13px;}.cls-12{stroke-width:1.6px;}.cls-13{stroke-width:1.07px;}.cls-14{stroke-width:0.8px;}.cls-15{stroke-width:0.53px;}.cls-16{stroke-width:0.27px;}.cls-17{fill:#b60e16;}.cls-18{fill:gray;}</style></defs><title>InfSup</title><g id="Camada_2" data-name="Camada 2"><g id="Camada_4" data-name="Camada 4"><polygon class="cls-1" points="207.4 458.49 207.4 84.03 261.9 45.4 465.28 45.4 479.56 21.42 485.17 14.82 492.97 9.42 500.83 7.32 508.56 6.62 520.22 6.08 567.31 4.33 608.92 3.03 636.55 2.27 678.9 1.34 712.44 1.06 735.26 1.57 736.9 1.57 761.02 1.04 788.44 1.26 815.96 1.79 851.49 2.7 875.14 3.38 922.44 4.94 960.68 6.47 970.13 7.14 976.1 8.32 982.81 11.36 987.19 14.98 991.68 20.13 996.55 27.29 1002.26 36.89 1006.91 45.4 1030.32 45.4 1044.91 45.4 1106.44 45.4 1210.3 45.4 1232.69 61.27 1239.73 66.26 1264.79 84.03 1264.79 458.49 1205.62 497.38 266.58 497.38 207.4 458.49"/></g><g id="Camada_3" data-name="Camada 3"><line class="cls-2" x1="222.53" y1="588.47" x2="1249.67" y2="588.47"/><text class="cls-3" transform="translate(695.74 572.18)">140 cm</text><line class="cls-4" x1="207.4" y1="609.63" x2="207.4" y2="498.62"/><polygon class="cls-5" points="207.4 588.47 228.05 600.39 228.05 576.55 207.4 588.47"/><line class="cls-4" x1="1264.79" y1="605.52" x2="1264.79" y2="482.51"/><polygon class="cls-5" points="1262.69 588.47 1242.63 600.05 1242.63 576.89 1262.69 588.47"/><line class="cls-2" x1="48.08" y1="247.79" x2="48.08" y2="5.21"/><line class="cls-2" x1="48.08" y1="490.38" x2="48.08" y2="286.17"/><line class="cls-6" x1="36.14" y1="498.62" x2="168.51" y2="498.62"/><line class="cls-7" x1="38.54" y1="1.04" x2="197.18" y2="1.04"/><polygon class="cls-5" points="48.08 2.12 57.62 18.64 38.54 18.64 48.08 2.12"/><polygon class="cls-5" points="48.08 499.63 38.54 483.11 57.62 483.11 48.08 499.63"/><text class="cls-3" transform="translate(0 276.87)">64 cm</text><path class="cls-8" d="M1264.79,84V458.49l-59.18,38.89h-939L207.4,458.49V84L261.9,45.4H465.28S475.4,26,482.14,18.09,493.94,8.11,503.3,7,681.4.2,717.73,1.14l18.37.45,18.37-.45C790.8.2,959.53,5.85,968.9,7s14.42,3.2,21.16,11.11,16.85,27.31,16.85,27.31H1210.3Z"/><path class="cls-9" d="M271.11,482.25l-48.58-31.92V91.85l44.19-31.33H474.46l4.24-8.13c3.61-6.92,10.86-19.69,14.95-24.49,2.6-3,4-4,4.88-4.39A20.85,20.85,0,0,1,505.08,22c8.53-.9,150.32-5.84,202.14-5.84,4.15,0,7.55,0,10.12.1l18.4.45h.72l18.4-.45c2.57-.06,6-.1,10.12-.1,51.82,0,193.63,4.94,202.14,5.84a20.85,20.85,0,0,1,6.55,1.51c.85.42,2.28,1.35,4.88,4.39,4.09,4.8,11.34,17.57,15,24.49l4.24,8.13h207.74l44.19,31.33V450.33l-48.58,31.92Z"/><path class="cls-10" d="M287,429.32l-11.48-7.55V119.21l8.11-5.75h223l19.08-36.6c.5-1,1-2,1.57-3,40.54-1.63,138.09-4.81,180-4.81,4.6,0,7.29.05,8.75.08l18.51.45,1.62,0,1.61,0,18.51-.45c1.46,0,4.16-.08,8.76-.08,41.92,0,139.47,3.18,180,4.81.55,1,1.09,2,1.59,3l19.08,36.57h223l8.11,5.75V421.77l-11.48,7.55Z"/><path class="cls-11" d="M313.28,391.5V151.27H529.49l21.06-40.4c46.47-1.68,121.43-4,156.67-4,4.42,0,6.76,0,7.77.07,4,.11,9.69.25,18.59.46l2.52.06,2.51-.06,18.58-.46c1,0,3.37-.07,7.79-.07,35.24,0,110.21,2.28,156.67,4l21.08,40.39h216.19V391.5Z"/><path class="cls-12" d="M343.53,361.25V181.53h204.3l21.4-41c42.62-1.45,106-3.33,138-3.33,4.22,0,6.29.05,7,.06,3.93.11,9.68.25,18.65.46l3.24.08,3.23-.08,18.64-.46c.7,0,2.78-.06,7-.06,31.95,0,95.38,1.88,138,3.33l21.4,41,82.49,0h121.79V361.25Z"/><path class="cls-13" d="M366.22,338.56V204.21H561.59l21.63-41.49c31.37-1,92.36-2.87,124-2.87,4.08,0,5.93,0,6.4.05,4,.11,9.75.25,18.7.46l3.78.09,3.76-.09,18.7-.45c.47,0,2.34-.06,6.42-.06,31.65,0,92.65,1.85,124,2.87l21.63,41.47,96.25,0H1106V338.56Z"/><path class="cls-14" d="M381.35,323.44V219.34H570.76l21.78-41.79c33.79-1.07,86.16-2.57,114.68-2.57,4,0,5.71,0,6,0,4,.11,9.83.25,18.73.46l4.14.1,4.12-.1,18.72-.45c.31,0,2-.05,6-.05,28.52,0,80.91,1.5,114.69,2.57l21.79,41.76,105.41,0h84v104.1Z"/><path class="cls-15" d="M388.91,315.87v-89H575.35L597.21,185c36.39-1.14,83.41-2.43,110-2.43,4,0,5.64,0,5.81,0l18.75.46,4.32.11,4.3-.11,18.74-.45c.18,0,1.83-.05,5.84-.05,26.59,0,73.63,1.29,110,2.43l21.86,41.9,110,0h76.42v89Z"/><path class="cls-16" d="M392.69,312.09V230.68h185l21.9-42c35.09-1.09,81.43-2.36,107.68-2.36,3.92,0,5.54,0,5.72,0,4,.11,9.82.25,18.75.46l4.41.11,4.39-.11,18.75-.45c.07,0,1.68-.05,5.74-.05,26.25,0,72.6,1.27,107.71,2.36l21.89,42,112.29,0h72.64v81.41Z"/><path class="cls-17" d="M743.69,264.35v0a1.18,1.18,0,0,1-.23.67l-1.5,2H730.39l3.16-4.05h8.73A1.3,1.3,0,0,1,743.69,264.35Z"/><path class="cls-17" d="M739.66,273.83a3.51,3.51,0,0,1-3.1,5.06l-7.63,0-1.9-3.94h8.36l-2.91-4.12,3.31-3h5.09l-3.29,3s1,1.42,1.62,2.3A6.66,6.66,0,0,1,739.66,273.83Z"/><rect class="cls-18" x="661.87" y="236.22" width="1.57" height="12.53" rx="0.54"/><path class="cls-18" d="M689.61,236.76v11.45a.54.54,0,0,1-.54.54h-.73a.53.53,0,0,1-.38-.16L677.4,238c.09,1.16.13,2.05.13,2.66v7.54a.54.54,0,0,1-.54.54h-.44a.54.54,0,0,1-.54-.54V236.76a.54.54,0,0,1,.54-.54h.72a.53.53,0,0,1,.38.16l10.52,10.54c-.06-.89-.09-1.76-.09-2.57v-7.59a.54.54,0,0,1,.54-.54h.45A.54.54,0,0,1,689.61,236.76Z"/><rect class="cls-18" x="763.07" y="236.22" width="1.57" height="12.53" rx="0.54"/><rect class="cls-18" x="780.7" y="238.82" width="1.58" height="9.94" rx="0.54"/><rect class="cls-18" x="780.7" y="238.82" width="1.58" height="9.94" rx="0.54"/><path class="cls-18" d="M788.22,236.76a.54.54,0,0,1-.53.56h-12.4a.54.54,0,0,1-.54-.54.56.56,0,0,1,.54-.56h12.4A.54.54,0,0,1,788.22,236.76Z"/><path class="cls-18" d="M712.51,236.76a.55.55,0,0,1-.54.56H705.8a.54.54,0,0,1-.53-.54.55.55,0,0,1,.53-.56H712A.55.55,0,0,1,712.51,236.76Z"/><path class="cls-18" d="M712.51,242.73a.55.55,0,0,1-.54.56H705.8a.55.55,0,0,1,0-1.09H712A.54.54,0,0,1,712.51,242.73Z"/><rect class="cls-18" x="722.75" y="236.22" width="1.57" height="12.53" rx="0.54"/><rect class="cls-18" x="702.2" y="236.22" width="1.57" height="12.53" rx="0.54"/><path class="cls-18" d="M750.49,236.76v11.45a.54.54,0,0,1-.54.54h-.73a.53.53,0,0,1-.38-.16L738.28,238c.09,1.16.13,2.05.13,2.66v7.54a.54.54,0,0,1-.54.54h-.44a.54.54,0,0,1-.53-.54V236.76a.54.54,0,0,1,.53-.54h.73a.52.52,0,0,1,.37.16l10.52,10.54c-.06-.89-.09-1.76-.09-2.57v-7.59a.54.54,0,0,1,.54-.54H750A.54.54,0,0,1,750.49,236.76Z"/><path class="cls-18" d="M809,237.1l-5.49,6.76a.22.22,0,0,0-.06.15v4.2a.54.54,0,0,1-.53.54h-.53a.54.54,0,0,1-.54-.54v-4.13a.27.27,0,0,0,0-.15l-5.52-6.83a.54.54,0,0,1,.42-.88h.45a.54.54,0,0,1,.42.21l4.91,6.16a.25.25,0,0,0,.19.09.25.25,0,0,0,.2-.09l4.93-6.16a.53.53,0,0,1,.42-.21h.36a.52.52,0,0,1,.48.31A.53.53,0,0,1,809,237.1Z"/></g></g></svg>