<?xml version="1.0" encoding="utf-8"?>
<!-- Generator: Adobe Illustrator 23.0.1, SVG Export Plug-In . SVG Version: 6.00 Build 0)  -->
<svg version="1.1" id="Camada_1" xmlns="http://www.w3.org/2000/svg" xmlns:xlink="http://www.w3.org/1999/xlink" x="0px" y="0px"
	 viewBox="0 0 600 600" style="enable-background:new 0 0 600 600;" xml:space="preserve">
<style type="text/css">
	.st0{fill:#FFFFFF;stroke:#1E1E1C;stroke-miterlimit:10;}
	.st1{fill:none;stroke:#1E1E1C;stroke-width:0.6333;stroke-miterlimit:10;}
	.st2{fill:#FFFFFF;stroke:#1E1E1C;stroke-width:1.2665;stroke-miterlimit:10;}
	.st3{fill:#FFFFFF;stroke:#1E1E1C;stroke-width:0.6333;stroke-miterlimit:10;}
	.st4{fill:none;stroke:#1E1E1C;stroke-width:0.9721;stroke-miterlimit:10;}
	.st5{fill:#FFFFFF;}
	.st6{fill:none;stroke:#1E1E1C;stroke-width:0.9881;stroke-miterlimit:10;}
	.st7{fill:none;stroke:#1E1E1C;stroke-width:1.2665;stroke-miterlimit:10;}
	.st8{fill:#FFFFFF;stroke:#1E1E1C;stroke-width:0.9721;stroke-miterlimit:10;}
	.st9{fill:#FFFFFF;stroke:#1E1E1C;stroke-width:0.9091;stroke-miterlimit:10;}
	.st10{fill:#FFFFFF;stroke:#1E1E1C;stroke-width:0.5889;stroke-miterlimit:10;}
	.st11{fill:#FFFFFF;stroke:#1E1E1C;stroke-width:1.019;stroke-miterlimit:10;}
	.st12{fill:#FFFFFF;stroke:#1E1E1C;stroke-width:0.953;stroke-miterlimit:10;}
	.st13{fill:#FFFFFF;stroke:#1E1E1C;stroke-width:0.6639;stroke-miterlimit:10;}
	.st14{fill:#FFFFFF;stroke:#1E1E1C;stroke-width:0.6174;stroke-miterlimit:10;}
	.st15{fill:#FFFFFF;stroke:#1E1E1C;stroke-width:1.3277;stroke-miterlimit:10;}
	.st16{fill:none;stroke:#1E1E1C;stroke-width:0.75;stroke-miterlimit:10;}
	.st17{fill:none;stroke:#1E1E1C;stroke-miterlimit:10;}
	.st18{fill:none;stroke:#1E1E1C;stroke-width:1.3977;stroke-miterlimit:10;}
	.st19{fill:none;stroke:#1E1E1C;stroke-width:2;stroke-miterlimit:10;}
	.st20{fill:#FFFFFF;stroke:#1E1E1C;stroke-width:0.5;stroke-miterlimit:10;}
	.st21{fill:none;stroke:#1E1E1C;stroke-width:0.5;stroke-miterlimit:10;}
	.st22{fill:none;stroke:#1E1E1C;stroke-width:1.0033;stroke-miterlimit:10;}
	.st23{fill:#FFFFFF;stroke:#020203;stroke-width:0.75;stroke-miterlimit:10;}
	.st24{fill:none;stroke:#020203;stroke-miterlimit:10;}
	.st25{fill:#FFFFFF;stroke:#020203;stroke-miterlimit:10;}
	.st26{fill:none;stroke:#020203;stroke-width:0.5;stroke-miterlimit:10;}
	.st27{fill:#FFFFFF;stroke:#020203;stroke-linejoin:round;}
	.st28{fill:none;stroke:#020203;stroke-linejoin:round;}
	.st29{fill:none;stroke:#020203;stroke-width:0.75;stroke-miterlimit:10;}
	.st30{fill:none;stroke:#020203;stroke-width:0.25;stroke-miterlimit:10;}
	.st31{fill:none;stroke:#E52624;stroke-width:1.5;stroke-miterlimit:10;}
	.st32{fill:#E52624;}
	.st33{fill:#FFFFFF;stroke:#020203;stroke-width:0.5;stroke-miterlimit:10;}
	.st34{fill:none;stroke:#E52522;stroke-width:1.5;stroke-miterlimit:10;}
	.st35{fill:#E52522;}
	.st36{fill:#E7E6E6;}
	.st37{fill:none;stroke:#E20D18;stroke-width:2;stroke-miterlimit:10;}
	.st38{fill:none;stroke:#E20D18;stroke-width:1.8;stroke-miterlimit:10;}
	.st39{fill:none;stroke:#E20D18;stroke-width:1.62;stroke-miterlimit:10;}
	.st40{fill:#E20D18;}
	.st41{fill:none;stroke:#E20D18;stroke-width:1.54;stroke-miterlimit:10;}
	.st42{fill:none;stroke:#E20D18;stroke-width:1.74;stroke-miterlimit:10;}
	.st43{fill:none;stroke:#E20D18;stroke-width:1.55;stroke-miterlimit:10;}
	.st44{fill:none;stroke:#E20D18;stroke-width:1.56;stroke-miterlimit:10;}
	.st45{fill:none;stroke:#E20D18;stroke-width:1.53;stroke-miterlimit:10;}
	.st46{fill:none;stroke:#E20D18;stroke-width:1.58;stroke-miterlimit:10;}
	.st47{fill:none;stroke:#E20D18;stroke-width:1.69;stroke-miterlimit:10;}
	.st48{fill:none;stroke:#E20D18;stroke-width:1.43;stroke-miterlimit:10;}
	.st49{fill:none;stroke:#E20D18;stroke-width:1.48;stroke-miterlimit:10;}
	.st50{fill:none;stroke:#E20D18;stroke-width:1.67;stroke-miterlimit:10;}
	.st51{fill:none;stroke:#E20D18;stroke-width:1.65;stroke-miterlimit:10;}
	.st52{fill:#FFFFFF;stroke:#020203;stroke-width:3;stroke-miterlimit:10;}
	.st53{fill:none;stroke:#E20D18;stroke-width:1.41;stroke-miterlimit:10;}
	.st54{fill:none;stroke:#E20D18;stroke-width:1.59;stroke-miterlimit:10;}
	.st55{fill:none;stroke:#1E1E1C;stroke-width:1.05;stroke-miterlimit:10;}
	.st56{fill:none;stroke:#1E1E1C;stroke-width:0.52;stroke-miterlimit:10;}
	.st57{fill:none;stroke:#1E1E1C;stroke-width:0.8;stroke-miterlimit:10;}
	.st58{fill:none;stroke:#1E1E1C;stroke-width:0.49;stroke-miterlimit:10;}
	.st59{fill:none;stroke:#1E1E1C;stroke-width:0.84;stroke-miterlimit:10;}
	.st60{fill:none;stroke:#1E1E1C;stroke-width:0.79;stroke-miterlimit:10;}
	.st61{fill:none;stroke:#1E1E1C;stroke-width:0.55;stroke-miterlimit:10;}
	.st62{fill:none;stroke:#1E1E1C;stroke-width:0.51;stroke-miterlimit:10;}
	.st63{fill:none;stroke:#1E1E1C;stroke-width:1.1;stroke-miterlimit:10;}
	.st64{fill:none;stroke:#1E1E1C;stroke-width:0.25;stroke-miterlimit:10;}
	.st65{fill:none;stroke:#1E1E1C;stroke-width:1.07;stroke-miterlimit:10;}
	.st66{fill:none;stroke:#1E1E1C;stroke-width:0.94;stroke-miterlimit:10;}
	.st67{fill:none;stroke:#1E1E1C;stroke-width:0.56;stroke-miterlimit:10;}
	.st68{fill:none;stroke:#E20D18;stroke-width:1.5;stroke-miterlimit:10;}
	.st69{fill:none;stroke:#E20D18;stroke-width:1.49;stroke-miterlimit:10;}
	.st70{fill:none;stroke:#E20D18;stroke-miterlimit:10;}
	.st71{fill:none;stroke:#1E1E1C;stroke-width:0.78;stroke-miterlimit:10;}
	.st72{fill:none;stroke:#1E1E1C;stroke-width:1.08;stroke-miterlimit:10;}
	.st73{fill:none;stroke:#1E1E1C;stroke-width:0.54;stroke-miterlimit:10;}
	.st74{fill:none;stroke:#1E1E1C;stroke-width:0.83;stroke-miterlimit:10;}
	.st75{fill:none;stroke:#1E1E1C;stroke-width:0.77;stroke-miterlimit:10;}
	.st76{fill:none;stroke:#1E1E1C;stroke-width:0.87;stroke-miterlimit:10;}
	.st77{fill:none;stroke:#1E1E1C;stroke-width:0.81;stroke-miterlimit:10;}
	.st78{fill:none;stroke:#1E1E1C;stroke-width:1.13;stroke-miterlimit:10;}
	.st79{fill:none;stroke:#1E1E1C;stroke-width:0.21;stroke-miterlimit:10;}
	.st80{fill:#FFFFFF;stroke:#1E1E1C;stroke-width:0.84;stroke-miterlimit:10;}
	.st81{fill:none;stroke:#1E1E1C;stroke-width:0.42;stroke-miterlimit:10;}
	.st82{fill:none;stroke:#1E1E1C;stroke-width:0.24;stroke-miterlimit:10;}
	.st83{fill:none;stroke:#E20D18;stroke-width:1.6;stroke-miterlimit:10;}
	.st84{fill:none;stroke:#E20D18;stroke-width:1.64;stroke-miterlimit:10;}
	.st85{fill:none;stroke:#E20D18;stroke-width:1.484;stroke-miterlimit:10;}
	.st86{fill:none;stroke:#E20D18;stroke-width:1.4075;stroke-miterlimit:10;}
	.st87{fill:none;stroke:#E20D18;stroke-width:1.5853;stroke-miterlimit:10;}
	.st88{fill:none;stroke:#E20D18;stroke-width:1.2981;stroke-miterlimit:10;}
	.st89{fill:none;stroke:#E20D18;stroke-width:0.9733;stroke-miterlimit:10;}
	.st90{fill:none;stroke:#E20D18;stroke-width:0.9159;stroke-miterlimit:10;}
	.st91{fill:none;stroke:#E20D18;stroke-width:1.4439;stroke-miterlimit:10;}
	.st92{fill:none;stroke:#E20D18;stroke-width:1.0062;stroke-miterlimit:10;}
	.st93{fill:none;stroke:#E20D18;stroke-width:0.9468;stroke-miterlimit:10;}
	.st94{fill:none;stroke:#E20D18;stroke-width:1.6749;stroke-miterlimit:10;}
	.st95{fill:none;stroke:#E20D18;stroke-width:1.6513;stroke-miterlimit:10;}
	.st96{fill:#FFFFFF;stroke:#1E1E1C;stroke-width:0.8664;stroke-miterlimit:10;}
	.st97{fill:#FFFFFF;stroke:#1E1E1C;stroke-width:1.0973;stroke-miterlimit:10;}
	.st98{fill:none;stroke:#1E1E1C;stroke-width:1.0973;stroke-miterlimit:10;}
	.st99{fill:#FFFFFF;stroke:#1E1E1C;stroke-width:0.5487;stroke-miterlimit:10;}
	.st100{fill:none;stroke:#1E1E1C;stroke-width:0.8422;stroke-miterlimit:10;}
	.st101{fill:#FFFFFF;stroke:#1E1E1C;stroke-width:0.7877;stroke-miterlimit:10;}
	.st102{fill:#FFFFFF;stroke:#1E1E1C;stroke-width:0.5103;stroke-miterlimit:10;}
	.st103{fill:#FFFFFF;stroke:#1E1E1C;stroke-width:0.8422;stroke-miterlimit:10;}
	.st104{fill:none;stroke:#1E1E1C;stroke-width:0.8829;stroke-miterlimit:10;}
	.st105{fill:#FFFFFF;stroke:#1E1E1C;stroke-width:0.8257;stroke-miterlimit:10;}
	.st106{fill:#FFFFFF;stroke:#1E1E1C;stroke-width:0.5752;stroke-miterlimit:10;}
	.st107{fill:#FFFFFF;stroke:#1E1E1C;stroke-width:0.5349;stroke-miterlimit:10;}
	.st108{fill:#FFFFFF;stroke:#1E1E1C;stroke-width:1.1504;stroke-miterlimit:10;}
	.st109{fill:#FFFFFF;stroke:#1E1E1C;stroke-width:0.8829;stroke-miterlimit:10;}
	.st110{fill:none;stroke:#1E1E1C;stroke-width:0.5487;stroke-miterlimit:10;}
	.st111{fill:#FFFFFF;stroke:#1E1E1C;stroke-width:1.0441;stroke-miterlimit:10;}
	.st112{fill:none;stroke:#E20D18;stroke-width:1.5173;stroke-miterlimit:10;}
	.st113{fill:none;stroke:#E20D18;stroke-width:1.804;stroke-miterlimit:10;}
	.st114{fill:none;stroke:#E20D18;stroke-width:1.6153;stroke-miterlimit:10;}
	.st115{fill:none;stroke:#E20D18;stroke-width:1.578;stroke-miterlimit:10;}
	.st116{fill:none;stroke:#E20D18;stroke-width:1.6879;stroke-miterlimit:10;}
	.st117{fill:none;stroke:#E20D18;stroke-width:1.6347;stroke-miterlimit:10;}
	.st118{fill:none;stroke:#E20D18;stroke-width:1.5386;stroke-miterlimit:10;}
	.st119{fill:none;stroke:#E20D18;stroke-width:1.7396;stroke-miterlimit:10;}
	.st120{fill:#FFFFFF;stroke:#1E1E1C;stroke-width:1.4;stroke-miterlimit:10;}
	.st121{fill:none;stroke:#E20D18;stroke-width:1.4266;stroke-miterlimit:10;}
	.st122{fill:none;stroke:#E20D18;stroke-width:1.4299;stroke-miterlimit:10;}
	.st123{fill:none;stroke:#1E1E1C;stroke-width:0.9867;stroke-miterlimit:10;}
	.st124{fill:none;stroke:#DD0B18;stroke-width:1.4266;stroke-miterlimit:10;}
	.st125{fill:none;stroke:#DD0B18;stroke-width:1.4299;stroke-miterlimit:10;}
	.st126{fill:#DD0B18;}
	.st127{fill:none;stroke:#DD0B18;stroke-width:1.484;stroke-miterlimit:10;}
	.st128{fill:none;stroke:#DD0B18;stroke-width:1.4075;stroke-miterlimit:10;}
	.st129{fill:none;stroke:#DD0B18;stroke-width:1.5853;stroke-miterlimit:10;}
	.st130{fill:none;stroke:#DD0B18;stroke-width:1.2981;stroke-miterlimit:10;}
	.st131{fill:none;stroke:#DD0B18;stroke-width:0.9733;stroke-miterlimit:10;}
	.st132{fill:none;stroke:#DD0B18;stroke-width:0.9159;stroke-miterlimit:10;}
	.st133{fill:none;stroke:#DD0B18;stroke-width:1.4439;stroke-miterlimit:10;}
	.st134{fill:none;stroke:#DD0B18;stroke-width:1.0062;stroke-miterlimit:10;}
	.st135{fill:none;stroke:#DD0B18;stroke-width:0.9468;stroke-miterlimit:10;}
	.st136{fill:none;stroke:#DD0B18;stroke-width:1.6749;stroke-miterlimit:10;}
	.st137{fill:none;stroke:#DD0B18;stroke-width:1.6513;stroke-miterlimit:10;}
	.st138{fill:#FFFFFF;stroke:#1E1E1C;stroke-width:0.75;stroke-miterlimit:10;}
	.st139{fill:none;stroke:#DD0B18;stroke-width:1.5173;stroke-miterlimit:10;}
	.st140{fill:none;stroke:#DD0B18;stroke-width:1.804;stroke-miterlimit:10;}
	.st141{fill:none;stroke:#DD0B18;stroke-width:1.6153;stroke-miterlimit:10;}
	.st142{fill:none;stroke:#DD0B18;stroke-width:1.5551;stroke-miterlimit:10;}
	.st143{fill:none;stroke:#DD0B18;stroke-width:1.578;stroke-miterlimit:10;}
	.st144{fill:#E0E0E0;}
	.st145{fill:none;stroke:#DD0B18;stroke-width:1.6879;stroke-miterlimit:10;}
	.st146{fill:none;stroke:#DD0B18;stroke-width:1.6347;stroke-miterlimit:10;}
	.st147{fill:none;stroke:#DD0B18;stroke-width:1.5386;stroke-miterlimit:10;}
	.st148{fill:none;stroke:#DD0B18;stroke-width:1.7396;stroke-miterlimit:10;}
	.st149{fill:#FFFFFF;stroke:#020203;stroke-width:1.635;stroke-miterlimit:10;}
	.st150{fill:none;stroke:#E20D18;stroke-width:1.52;stroke-miterlimit:10;}
	.st151{fill:#020203;}
	.st152{fill:none;stroke:#1E1E1C;stroke-linejoin:round;}
	.st153{fill:none;stroke:#1E1E1C;stroke-linecap:round;stroke-miterlimit:10;}
	.st154{fill:#1E1E1C;}
	.st155{fill:none;stroke:#1E1E1C;stroke-linejoin:round;stroke-miterlimit:10;}
	.st156{fill:none;stroke:#020203;stroke-linejoin:bevel;stroke-miterlimit:10;}
	.st157{fill:none;stroke:#020203;stroke-miterlimit:10;stroke-dasharray:1;}
	.st158{fill:none;stroke:#020203;stroke-width:0.5;stroke-miterlimit:10;stroke-dasharray:1;}
	.st159{fill:none;stroke:#E20D18;stroke-width:1.3;stroke-miterlimit:10;}
	.st160{fill:none;stroke:#E20D18;stroke-width:0.97;stroke-miterlimit:10;}
	.st161{fill:none;stroke:#E20D18;stroke-width:0.92;stroke-miterlimit:10;}
	.st162{fill:none;stroke:#E20D18;stroke-width:1.44;stroke-miterlimit:10;}
	.st163{fill:none;stroke:#E20D18;stroke-width:1.01;stroke-miterlimit:10;}
	.st164{fill:none;stroke:#E20D18;stroke-width:0.95;stroke-miterlimit:10;}
	.st165{fill:#FFFFFF;stroke:#1E1E1C;stroke-width:2;stroke-miterlimit:10;}
	.st166{fill:none;stroke:#1E1E1C;stroke-width:1.5;stroke-linejoin:round;}
	.st167{fill:none;stroke:#1E1E1C;stroke-width:1.5;stroke-miterlimit:10;}
	.st168{fill:none;stroke:#1E1E1C;stroke-width:2;stroke-linecap:round;stroke-miterlimit:10;}
	.st169{fill:none;stroke:#1E1E1C;stroke-width:1.5;stroke-linecap:round;stroke-miterlimit:10;}
	.st170{fill:none;stroke:#1E1E1C;stroke-width:2;stroke-linejoin:round;stroke-miterlimit:10;}
	.st171{fill:none;stroke:#1E1E1C;stroke-width:2;stroke-linejoin:round;}
	.st172{fill:none;stroke:#020203;stroke-width:0.5;stroke-linejoin:bevel;stroke-miterlimit:10;}
	.st173{fill:none;stroke:#E20D18;stroke-width:1.63;stroke-miterlimit:10;}
	.st174{fill:none;stroke:#000000;stroke-miterlimit:10;}
	.st175{fill:#FFFFFF;stroke:#000000;stroke-miterlimit:10;}
	.st176{fill:none;stroke:#E20D18;stroke-width:1.3113;stroke-miterlimit:10;}
	.st177{fill:none;stroke:#E20D18;stroke-width:1.3459;stroke-miterlimit:10;}
	.st178{fill:none;stroke:#E20D18;stroke-width:1.4481;stroke-miterlimit:10;}
	.st179{fill:none;stroke:#E20D18;stroke-width:1.3929;stroke-miterlimit:10;}
	.st180{fill:none;stroke:#E20D18;stroke-width:1.327;stroke-miterlimit:10;}
	.st181{fill:none;stroke:#E20D18;stroke-width:1.4965;stroke-miterlimit:10;}
	.st182{fill:none;stroke:#E20D18;stroke-width:1.225;stroke-miterlimit:10;}
	.st183{fill:none;stroke:#E20D18;stroke-width:1.4563;stroke-miterlimit:10;}
	.st184{fill:none;stroke:#E20D18;stroke-width:1.5717;stroke-miterlimit:10;}
	.st185{fill:none;stroke:#E20D18;stroke-width:1.5529;stroke-miterlimit:10;}
	.st186{fill:#BFBEBF;stroke:#020203;stroke-miterlimit:10;}
	.st187{fill:none;stroke:#E20D18;stroke-width:2.0835;stroke-miterlimit:10;}
	.st188{fill:none;stroke:#E20D18;stroke-width:1.8751;stroke-miterlimit:10;}
	.st189{fill:none;stroke:#E20D18;stroke-width:1.6876;stroke-miterlimit:10;}
	.st190{fill:none;stroke:#E20D18;stroke-width:1.698;stroke-miterlimit:10;}
	.st191{fill:none;stroke:#E20D18;stroke-width:1.6043;stroke-miterlimit:10;}
	.st192{fill:none;stroke:#E20D18;stroke-width:1.8126;stroke-miterlimit:10;}
	.st193{fill:none;stroke:#E20D18;stroke-width:1.6147;stroke-miterlimit:10;}
	.st194{fill:none;stroke:#E20D18;stroke-width:1.5938;stroke-miterlimit:10;}
	.st195{fill:none;stroke:#E20D18;stroke-width:1.6251;stroke-miterlimit:10;}
	.st196{fill:none;stroke:#E20D18;stroke-width:1.6459;stroke-miterlimit:10;}
	.st197{fill:none;stroke:#E20D18;stroke-width:1.7605;stroke-miterlimit:10;}
	.st198{fill:#FFFFFF;stroke:#1E1E1C;stroke-width:0.87;stroke-miterlimit:10;}
	.st199{fill:#FFFFFF;stroke:#1E1E1C;stroke-width:1.1;stroke-miterlimit:10;}
	.st200{fill:#FFFFFF;stroke:#1E1E1C;stroke-width:0.55;stroke-miterlimit:10;}
	.st201{fill:#FFFFFF;stroke:#1E1E1C;stroke-width:0.79;stroke-miterlimit:10;}
	.st202{fill:#FFFFFF;stroke:#1E1E1C;stroke-width:0.51;stroke-miterlimit:10;}
	.st203{fill:none;stroke:#1E1E1C;stroke-width:0.88;stroke-miterlimit:10;}
	.st204{fill:#FFFFFF;stroke:#1E1E1C;stroke-width:0.83;stroke-miterlimit:10;}
	.st205{fill:#FFFFFF;stroke:#1E1E1C;stroke-width:0.58;stroke-miterlimit:10;}
	.st206{fill:#FFFFFF;stroke:#1E1E1C;stroke-width:0.53;stroke-miterlimit:10;}
	.st207{fill:#FFFFFF;stroke:#1E1E1C;stroke-width:1.15;stroke-miterlimit:10;}
	.st208{fill:#FFFFFF;stroke:#1E1E1C;stroke-width:0.88;stroke-miterlimit:10;}
	.st209{fill:#FFFFFF;stroke:#1E1E1C;stroke-width:1.04;stroke-miterlimit:10;}
	.st210{font-family:'Roboto-Medium';}
	.st211{font-size:13.0433px;}
	.st212{fill:#FFFFFF;stroke:#020203;stroke-linejoin:round;stroke-miterlimit:10;}
	.st213{fill:#E52622;}
	.st214{font-size:12.4174px;}
</style>
<g>
	<polygon class="st35" points="412,415 424.7,415 418.4,404.3 	"/>
</g>
<g>
	<polygon class="st35" points="412,394.9 424.7,394.9 418.4,405.7 	"/>
	<line class="st34" x1="369.8" y1="405.2" x2="424.7" y2="405.2"/>
</g>
<path class="st5" d="M107.1,516.5c-4.7,0.1-9,2.6-11.4,6.6c-4.3,6.9,0.3,15.7,0.3,15.7c2.6,13,13.2,12.1,13.2,12.1
	c15.6-0.5,12.9-20.3,12.9-20.3l-0.2-13.8C122,516.6,116.3,521.1,107.1,516.5z"/>
<path class="st5" d="M319,462.9l-0.6,1.5c0,0-2.1,0-4.2,10.2l25.5,6.2c0,0,3.5-13.2-3-16.3l-3.4-0.6l-3.5,0.7l-0.1-2.2L319,462.9z"
	/>
<path class="st5" d="M181.5,464.9l0.6,1.5c0,0,2.1-0.1,4.7,10l-25.1,7.3c0,0-4.1-13,2.2-16.5l3.4-0.8l3.5,0.5l-0.1-2.2L181.5,464.9z
	"/>
<path class="st5" d="M247.4,555.9l0.1,2.9l-4.8,0.1l-1.6,3.8l0.9,23.8l1.9,4.3l4.9-0.1c0,0,0.9-1,0.7-5.3c-0.2-4.3-0.1-5.4-0.1-5.4
	l7.9-0.3l0.2,8.3c0,0,0.3,2.4,0.9,2.4s4.9-0.1,4.9-0.1s1.9-3,2.2-5.3c0.3-2.3-0.5-22.3-0.5-22.3l-1.9-4.3l-5.2,0.1l-0.2-1.7
	L247.4,555.9z"/>
<g id="Base_2_">
	<g id="base-2_1_">
		<path class="st198" d="M267.4,464.4l-0.3-6.3c0,0,9.2-5.6,36.2-6.7c27-1.1,29.7,5.4,29.7,5.4s1.2,1,0.4,6.8c0,0-2.9,0.8-3.2,0.6
			s-0.2-2.2-0.2-2.2s-23.6,0.2-37.5,7.4"/>
		<path class="st198" d="M234.6,464.5l-0.2-6.1c0,0-10.3-5.6-37.3-5.4s-29.3,6.8-29.3,6.8s-1.2,1.1-0.2,6.8c0,0,2.9,0.7,3.2,0.5
			c0.3-0.2,0.1-2.2,0.1-2.2s23.6-0.9,37.7,5.7"/>
		<path class="st198" d="M252.5,469.6c10.3,0,15-5.2,15-5.2v-0.6l-2-40.4c0-1.1-0.2-2.1-0.5-3.1c-0.2-0.7-0.5-1.4-1-2
			c0,0-0.3,5.4-12.6,5.7l-2.7,0.1c-12.3,0.3-12.8-5.1-12.8-5.1c-0.4,0.6-0.7,1.3-0.9,2c-0.2,1-0.4,2.1-0.3,3.1l-0.2,40.4l0.1,0.6
			c0,0,4.9,5,15.1,4.5L252.5,469.6z"/>
		<path class="st198" d="M249.1,424.1c-10.9,0.4-12.4-4.9-12.4-4.9l-0.1-5.2c0,0-0.2-3,0.8-4c0,0,0,4.9,12.3,4.5h0.9
			c12.3-0.3,12-5,12-5c1,1,1,4,1,4l0.1,5.2c0,0-1.4,5.3-12.3,5.4L249.1,424.1z"/>
		<path class="st198" d="M237.4,410.3v-3h25.2l-0.5,1.9c0,0-0.5,5.4-11.9,5.3C238.8,414.4,237.4,410.3,237.4,410.3z"/>
		<path class="st199" d="M247.4,556.2l0.1,2.5c0.6,0.4,0.9,1,1,1.7l8.5-0.2c0,0,0.1-1.5,0.6-1.6l-0.1-2"/>
		<path class="st199" d="M247.4,558.7l-4.8,0.1l1.2,31.9l4.9-0.1c0,0,0.9-0.7,0.7-3.5l-1-26.9"/>
		<path class="st199" d="M242.8,558.8l-0.7,1.5c-1.5,3.2-0.8,1.6-0.7,13.7v0.3c0.4,12.2,0,11.8,1.7,15l0.8,1.5"/>
		<path class="st199" d="M257.9,558.5l4.8-0.1l0.3,32l-4.9,0.1c0,0-1-0.6-0.9-3.4l-0.4-26.9"/>
		<path class="st199" d="M262.8,558.6l0.8,1.5c1.7,3.1,0.9,1.6,1.3,13.7v0.3c0.2,12.2,0.5,11.8-1,15l-0.7,1.5"/>
		<line class="st63" x1="249.2" y1="579.5" x2="257.2" y2="579.4"/>
		<path class="st198" d="M234.7,465.2l-0.1-0.6c0,0-43.5,9.6-75.1,19.9c-31.7,10.3-50.8,21.1-50.8,21.1s-4,2.4-2.1,11
			c0,0,8,5,15.4,0l1.7-3.3c0,0,32.5-11.1,53.7-16.5c12.5-3,25.1-5.4,37.8-7c4.9-0.6,9.7-1.4,14.4-2.4l0,0c2-0.4,4-0.2,5.8,0.6
			l1.2,0.6l0,0c0,0,1.6,1.9,3.1,23.7c1.6,21.7,2.9,38.3,2.9,38.3s0.9,7.7,11,6.7c1.7-0.1,3.3-0.4,5-0.9c3.3-0.9,5.6-4,5.5-7.4
			l1.2-59.5l0,0l1.2-0.6c1.8-0.8,3.8-1.1,5.7-0.9h0.1c4.9,0.8,9.7,1.3,14.5,1.7c12.8,1,25.5,2.8,38.1,5.3
			c21.5,4.4,54.5,14.1,54.5,14.1l-0.1,2.7c11.1,5.1,17.2-0.2,17.2-0.2c1.6-8.8-2.5-11-2.5-11s-19.7-9.9-51.7-18.8
			c-32.1-8.9-75.3-17.4-75.3-17.4"/>
		<path class="st63" d="M122.7,517.2v12.9l-0.4,0.3c0,0-1-4.2-3.9-6.5c-1.4-1.2-3.1-2.1-4.9-2.6l-0.1-2.6"/>
		<path class="st199" d="M95.6,538.3c-1-2.4-1.6-5-1.7-7.7c-0.2-7.7,5.5-13.9,12.6-14.1"/>
		<path class="st200" d="M94.5,531c-0.2-7.7,6.6-13.1,13.7-13.3"/>
		
			<ellipse transform="matrix(0.9997 -2.286182e-02 2.286182e-02 0.9997 -12.246 2.6314)" class="st199" cx="109" cy="536.9" rx="13" ry="13.8"/>
		
			<ellipse transform="matrix(0.9997 -2.286182e-02 2.286182e-02 0.9997 -12.2461 2.6352)" class="st200" cx="109.1" cy="536.9" rx="2.3" ry="2.3"/>
		<path class="st200" d="M109.2,525.3c0,0,0.3,7.6,0.5,7.9c0.3,0.3,0.6,0.7,1.4,0c0.8-0.7,3.8-6.1,3.8-6.1"/>
		<path class="st200" d="M116.8,529c0,0-4.4,5.9-4.4,6.4c0,0.5,0.1,1,1,1c1,0,6.6-1.9,6.6-1.9"/>
		<path class="st200" d="M120.1,536.8c0,0-7.1,0.2-7.5,0.5s-0.6,0.6,0,1.5c0.6,0.9,5.7,4.2,5.7,4.2"/>
		<path class="st200" d="M117.3,544.7c0,0-5.7-4.4-6.2-4.4s-0.9,0.1-0.8,1.2c0.1,1.1,2.2,7,2.2,7"/>
		<path class="st200" d="M107.5,525.4c0,0,0.5,7.6,0.3,7.9s-0.5,0.7-1.4,0.1s-4.4-5.7-4.4-5.7"/>
		<path class="st200" d="M100.4,529.7c0,0,5,5.4,5,5.9c0.1,0.5,0,1-1,1c-1,0.1-6.8-1.2-6.8-1.2"/>
		<path class="st200" d="M97.9,538.8c0,0,7-0.6,7.5-0.3s0.7,0.5,0.1,1.5c-0.6,1-5.2,4.7-5.2,4.7"/>
		<path class="st200" d="M102.5,546.6c0,0,4.5-5.8,5-5.9c0.4-0.1,0.9-0.2,1,1c0.2,1.1-0.4,7.3-0.4,7.3"/>
		<line class="st59" x1="170.9" y1="467.1" x2="175.2" y2="466.9"/>
		<path class="st201" d="M162.3,483c-1.5-1.7-1.3-5.9-1.3-5.9c-0.1-5.5,2.1-10,4.9-10s5.7,4.1,5.7,9.6l0.1,3"/>
		<path class="st200" d="M162.6,482.9c-1.4-1.6-1.2-5.5-1.2-5.5c-0.1-5,1.9-9.2,4.5-9.3c2.6-0.1,4.5,3.8,4.6,9l-0.1,3.1"/>
		<path class="st200" d="M164.3,469.3c0,0,0.3,6.9,0.8,8.1c0.4,1.2,0.9-4.3,1.7-5.7l0.6-1.2"/>
		<path class="st200" d="M168.6,472.4c0,0-2.3,5.2-2.3,6.4c0,1.2,2.3-1.3,4-2.1"/>
		<path class="st202" d="M162.9,471.2c0,0,1.9,6.5,1.4,6.1c-0.5-0.4-1.6-1.8-2.9-2.3"/>
		<path class="st202" d="M161.6,475.9l2.9,3.2c0,0,0.6,1-0.3,1.1c-0.8,0-1.6,0-2.4-0.1"/>
		
			<ellipse transform="matrix(0.9997 -2.286182e-02 2.286182e-02 0.9997 -10.9133 3.9065)" class="st199" cx="165.4" cy="479.3" rx="0.8" ry="1.7"/>
		<path class="st80" d="M186.1,475.4c0,0-2-7.5-3.5-8.3l-0.2,9.3l-6.3,1.9l-0.2-1.7c-0.4-2.1-1.2-4.1-2.3-5.9l-0.1-3.3
			c1.2,1.6,3.2,2.3,5.2,2c3.3-0.6,3.6-2.2,3.6-2.2l-1-1.4v1l-6.1,0.2v-1.7"/>
		<line class="st203" x1="329.9" y1="464.5" x2="325.4" y2="464.4"/>
		<path class="st204" d="M339.7,480.7c1.5-1.8,1.1-6.3,1.1-6.3c-0.2-5.7-2.6-10.3-5.6-10.3c-3,0.1-5.7,4.5-5.6,10.3l0.1,3.1"/>
		<path class="st205" d="M339.4,480.5c1.4-1.7,1-5.7,1-5.7c-0.1-5.3-2.4-9.6-5.1-9.5s-4.5,4.3-4.4,9.6l0.3,3.3"/>
		<path class="st205" d="M336.9,466.4c0,0,0,7.1-0.4,8.4c-0.4,1.3-1.1-4.4-2-6c-0.3-0.4-0.5-0.9-0.7-1.3"/>
		<path class="st205" d="M332.7,469.9c0,0,2.7,5.4,2.8,6.6c0.1,1.2-2.4-1.3-4.3-2"/>
		<path class="st206" d="M338.4,468.3c0,0-1.7,6.9-1.2,6.4c0.4-0.4,1.6-2,2.9-2.6"/>
		<path class="st206" d="M340.1,473.2l-2.8,3.6c0,0-0.6,1.1,0.3,1.1c0.8,0,1.7-0.1,2.5-0.3"/>
		
			<ellipse transform="matrix(0.9997 -2.286182e-02 2.286182e-02 0.9997 -10.8154 7.8101)" class="st207" cx="336.2" cy="476.9" rx="0.9" ry="1.7"/>
		<path class="st208" d="M314.5,474c0,0,1.7-8,3.2-8.9l0.6,9.7l6.8,1.7l0.2-1.9c0.3-2.2,1.1-4.4,2.2-6.3l-0.1-3.5
			c-1.2,1.7-3.3,2.6-5.4,2.3c-3.5-0.5-3.9-2.1-3.9-2.1l0.9-1.5v1.1l6.3-0.2v-1.8"/>
		
			<ellipse transform="matrix(0.9998 -1.999600e-02 1.999600e-02 0.9998 -10.7224 2.2513)" class="st59" cx="107.2" cy="537.3" rx="11" ry="11.7"/>
		<path class="st61" d="M94.9,534.4c-0.2-7.1,5.3-13,12.4-13.3c0.2,0,0.3,0,0.5,0c1.9-0.2,3.8,0,5.7,0.7"/>
	</g>
</g>
<path class="st198" d="M394.9,511.6c7.1,0.2,12.8,6.4,12.6,14.1c-0.2,2.6-0.8,5.2-1.7,7.7l-25.3-7.1l9.2-12.1L394.9,511.6z"/>
<path class="st61" d="M407,526c0.2-7.7-6.6-13.1-13.7-13.3"/>
<path class="st199" d="M392.1,545.6c7.1,0.2,13-5.9,13.2-13.5c0.2-7.6-5.5-13.9-12.6-14.1c-7.1-0.2-13,5.9-13.2,13.5
	S385,545.4,392.1,545.6"/>
<ellipse transform="matrix(2.286178e-02 -0.9997 0.9997 2.286178e-02 -148.5128 911.759)" class="st200" cx="392.2" cy="531.9" rx="2.3" ry="2.3"/>
<path class="st61" d="M392.2,520.3c0,0-0.3,7.6-0.5,7.9c-0.3,0.3-0.6,0.7-1.4,0s-3.8-6.1-3.8-6.1"/>
<path class="st61" d="M393.9,520.3c0,0-0.5,7.6-0.3,7.9c0.3,0.3,0.5,0.7,1.4,0.1c0.9-0.6,4.4-5.7,4.4-5.7"/>
<path class="st61" d="M401,524.7c0,0-5,5.4-5,5.9c-0.1,0.5,0,1,1,1c1,0.1,6.8-1.2,6.8-1.2"/>
<path class="st61" d="M403.6,533.8c0,0-7-0.6-7.5-0.3c-0.4,0.3-0.7,0.5-0.1,1.5s5.2,4.7,5.2,4.7"/>
<path class="st59" d="M392.2,543.5c6.1,0.2,11.1-5,11.2-11.5c0.1-6.5-4.6-11.8-10.7-12c-6.1-0.2-11.1,5-11.2,11.5
	C381.4,538,386.1,543.4,392.2,543.5"/>
<path class="st61" d="M406.6,529.4c0.2-7.7-5.2-13.3-12.3-13.4c-1.8-0.1-3.7,0.1-5.4,0.8"/>
<path class="st199" d="M389.8,514.1l-0.1,2.2c-1.7,0.8-3.4,1.8-4.9,3c-1.8,1.5-3.2,3.4-4.1,5.5l-0.7,1.8l0.7-14.1
	c1.2,0.6,2.5,1,3.9,1.1C386.4,513.9,388.1,514,389.8,514.1z"/>
<path class="st61" d="M385,523.7c0,0,4.1,5,4.3,5.8c0.2,0.4-0.2,1.8-1.2,1.8c-1,0-6.3-1.7-6.3-1.7"/>
<path class="st61" d="M384.5,539.9c0,0,4.8-3.7,5.3-3.7s0.9,0.1,0.8,1.2c-0.1,1.1-1.7,5.6-1.7,5.6"/>
<path class="st61" d="M392.1,543.2c0,0,0.7-6.1,1-6.3s0.7-0.5,1.4,0.3c0.7,0.8,2.9,5,2.9,5"/>
<path class="st61" d="M381.6,532.6c0,0,6.1,0.1,6.4,0.4s0.6,0.6-0.1,1.5c-0.7,0.9-4.8,3.3-4.8,3.3"/>
<path class="st0" d="M221.2,337.8L181,365.6l-42.3-102L128.5,16.9l8.3-9.1c1.3-1.1,2.3-1,3.8,0c0.9,0.5,1.5,1.3,2,2.2
	c1.4,0.3,2.8,0.9,3.9,1.8c4,3,6.8,7.3,7.9,12.2c3.6,15.5,3.6,42.8,3.6,42.8s0.3,3.7,1,14.3c0.5,6.9,1.7,13.7,3.6,20.3l2,2.4l5.3,5.8
	l12.8,12.1l3.8,3.7c3.1,2.9,5.7,6.3,7.7,10.1c0.9,1.6,1.5,3.3,2,5.1c1.3,5.6,1.1,9.9,1.4,15c0.3,5-1.7,14.1-1.7,14.1l-0.9,6.6
	l14.4,74.5l0.6,1.7c0,0,15.6,24.4,22,43.1c0.4,1,0.6,2.1,0.7,3.2C233.3,304.9,234.8,326.9,221.2,337.8z"/>
<path class="st209" d="M145.4,359.3l-1.8-47.7l70.3,23.1c0,0,15.8-0.3,25.2-2.7c5.9-1.4,11.7-3.5,17.1-6.2c0,0,20-11.5,30.8-14.3
	c8.4-2.2,14.3-2.3,37.3,0.1c4.9,0.5,9.6,2,13.8,4.5c13.2,8.1,14.6,10.1,14.6,10.1c7.7-0.3,18.4,4,18.4,4c6.3,2,9.7,6.1,12.6,11.1
	c0.2,0.3,2.2,3.8,2.3,4.1c1.9,3.6,3.2,7,5,10.6c2.3,4.8,4.3,9.9,3.5,15.2c-0.8,4.7,0.1,10.2-2.6,14.3c-2.7,4.3-6.3,8-10.6,10.7
	c0,6-23,7.8-23,7.8l-49.6,1.8l-27.9,1l-1.7,0.1l-19.8,0.8h-0.5l-34.9,1.3l0.3,2.6c0,0,2.1,0.4-13,1.3c-15.1,0.9-63.7,0-63.7,0
	l-6.2-4.9l-5-30.3C136,370.6,139.4,363.5,145.4,359.3L145.4,359.3"/>
<path class="st17" d="M217.1,410.8l3.3-3.6l3.1-6l-10.9-16.3c0,0-8.5-3-11.3-4.2c-2.8-1.2-7-1.7-15.6-11.2c0,0-5.1-7-5.6-8.3
	c-0.4-1.2-8.3-7.9-9.1-8.2l-2.1,2.1c0,0,7,4.3,9,8.5s7.5,12.5,11.4,15.6c3.9,3,12,8.7,19.9,9.6c0,0,0.5-2,10.5,16.1l-2,4.3
	L217.1,410.8z"/>
<path class="st17" d="M217.1,410.8c0,0,1.9,0.4-12,1.3c-13.9,0.9-58.5,0-58.5,0l-5.7-4.9l-4.6-30.3c0,0-1.2-11.4,8.2-18.6l0,0"/>
<path class="st17" d="M148.8,366c-6.9,5.7-5,14.9-5,14.9l3.5,23.7l4.3,3.8l44.9,0.2l10.6-0.7l1.9-4.7c-1.4-2.6-4-6.5-4-6.5
	c-3.4-0.6-17.5-6.6-23.3-13.8c-2.4-3-7.3-9-8.8-12.2c-1.5-3.2-7-6.6-7-6.6c-0.2-0.1-0.3-0.1-0.5-0.2"/>
<polyline class="st17" points="209,403.1 220.3,404.9 223.5,401.3 "/>
<line class="st17" x1="147.3" y1="404.6" x2="141" y2="407.3"/>
<line class="st17" x1="209.4" y1="388.9" x2="204.9" y2="396.6"/>
<path class="st17" d="M197.7,370.2l-8.1,2.2c-0.2,0-0.3-0.2-0.2-0.3l1.7-2.3l7.2-2L197.7,370.2l6.4-2.4l3.1,7.5c0,0-1.6,1.9-5.4,3
	L197.7,370.2"/>
<path class="st17" d="M230.1,356l-26,10.5l4.3,10.6c1.6-1.4,3.4-2.7,5.4-3.7c1.4-0.3,2.8-0.2,4.2,0.2c2.7,0.6,5.4-2.8,7.7-3.7
	c1.3-0.5,2.8-0.6,4.2-0.3c0,0,2.1,0.7,4.3-1.8c2.2-2.5,3.8-1.6,3.8-1.6s1.2-1.2,1.1-1.8c-0.1-0.6-7.1-8.5-7.1-8.5
	S231.4,355.4,230.1,356z"/>
<polyline class="st17" points="230.8,356.2 230.2,358.7 207.5,368.4 209.9,373.7 208.3,377.2 "/>
<polyline class="st17" points="238.5,364.7 236.1,365.3 230.2,358.7 "/>
<line class="st17" x1="209.9" y1="373.7" x2="236.1" y2="365.3"/>
<polyline class="st17" points="198.3,367.8 204.1,366.5 207.5,368.4 "/>
<path class="st17" d="M320.8,345.7L320.8,345.7c0.1,0,0.2,0,0.3,0.1c0,0,13.8,1.7,31.8,13.4c18,11.7,25.7,30.4,25.7,36.4
	c0,6-21.1,7.8-21.1,7.8l-45.5,1.8"/>
<polyline class="st17" points="286.6,406.2 285,406.3 266.8,407 266.4,407.1 218.8,409 "/>
<path class="st17" d="M295.9,346.1c-20.2,2.6-39.7,9.2-57.3,19.5"/>
<path class="st17" d="M321.8,341.5c0,0,15.9,5,25.5,9.2"/>
<path class="st17" d="M296.4,342.3c-20.7,2.6-40.7,9.4-58.8,19.8"/>
<path class="st17" d="M378,397.4c0,0,15.9-7.4,16.3-21.9c0.3-12.8-6.3-18.1-6.3-18.1s-10-7-40.9-6.6c0,0,14.7,8.6,21,16
	c6.3,7.4,10,11.4,12,19.7S378,397.4,378,397.4z"/>
<path class="st0" d="M181.9,364c0,0,24.3-5.7,37-20.5c12.7-14.8-13.9-54.5-13.9-54.5l-20.1-33.7c0,0-9-19.3-11.1-25.4
	c-2.1-6.1-6.8-23.9-5.1-35.5c1.7-11.6,4-21.1,4-21.1s5.9-19.3,3.3-29.7c-2.6-10.4-4.5-12.9-12.6-22.4c-5.2-6.1-13-15.1-17.8-20.8
	c-3.4-3.9-6.1-8.4-7.8-13.3c-1.3-3.7-2.7-8.1-3-11.6c-0.7-7.6-1.1-32.2-0.9-36.7c0.3-4.5,2.4-24.5,2.4-24.5s0.1-5.1,0.3-5.5
	c0.3-0.3-3.7,1-6,3.5c-2.3,2.4-3.6,4.2-4.2,10.1c-0.3,3.2-0.8,6.4-1.7,9.6c0,0-1.4,8-2,17.3s-2.6,37.9-2.6,37.9s-0.3,9.7,0,13.3
	c0.2,2.7,0.1,5.5-0.2,8.2l-1,30.5l3,27.5l3.6,28.1l2.7,21.6l2,13.9l2.5,20.7l2.2,25.1c-0.1,7.3,0.2,14.5,0.9,21.7
	c1.1,11,5.1,33.7,5.1,33.7l3.2,8.3L181.9,364z"/>
<path class="st17" d="M183.3,366.1c0,0,25.8-6.5,38.5-21.3c12.7-14.8-12.3-55.3-12.3-55.3l-19.7-33.4c0,0-9.7-19-11.8-25.1
	c-2.2-6.1-7.3-23-6.1-34.7c1.1-10.3,2.5-16.3,3-19.3c0.2-0.9,1.7-5,1.9-5.8c1.2-4.3,3.7-17,2.4-26.3c-1.8-12.9-4.1-14.4-12.2-24
	s-20.7-25.2-20.7-25.2s-6.6-12.1-7.7-19.6c-1.3-9-1.9-30.7-1.6-35.2c0.3-4.5,2.3-25,2.3-25s0.3-2.1,0.6-3.8c0.1-1.2,1.2-2,2.4-1.9
	c0.1,0,0.1,0,0.2,0c0.1,0-0.4-0.5-0.3-0.5s-2.3-3.6-5.1-1.9c-1.5,0.9-1.1,4.3-1.1,4.3"/>
<path class="st17" d="M140.1,306.4c0,0-2.3-17-1.7-20.8c0.5-2.6,1.2-5.1,2.2-7.6c0,0-0.9-29.2-1.8-37.4s-1.1-26.8-3-33
	c-1.8-6.3-10.3-72.1-10.3-72.1V126c0,0,2.1-17,5.5-23c2.5-4.2,5.2-8.1,8.3-11.9"/>
<polyline class="st21" points="224.4,340 246.6,337.6 239.4,361.1 "/>
<path class="st16" d="M352.5,326.4c-7.5-0.5-15.1-0.3-22.6,0.6l-6.3,0.8"/>
<polyline class="st17" points="247,337.6 297.5,331.1 297.7,331.1 "/>
<path class="st17" d="M387.1,391.6c0,0,0.2-4.6,0.7-5.7c0.5-1.1,4.6-13,2.8-17.3c-1.8-4.3-3-11-19.8-14.1c0,0-13-1.7-19.1-1.2"/>
<path class="st17" d="M225.4,335.6c0,0,15-0.9,23.3-4.3c5.1-2.1,10-4.6,14.9-7.2c0,0,11.2-6.9,21.1-9.7c5.1-1.5,10.2-2.6,15.5-3.4
	l0,0"/>
<path class="st17" d="M300.2,310L300.2,310c-5.4,0.5-10.7,1.5-15.9,3c-9.9,2.8-21.2,9.4-21.2,9.4c-4.8,2.7-9.8,5.1-14.9,7.2
	c-8.3,3.5-23.3,4.3-23.3,4.3"/>
<path class="st21" d="M194.4,263.8c3.3-1.7,7.1-2.4,10.8-1.7c5.6,1,9.6,6.1,9.8,6.4l0,0c1.8,2,3.3,4.2,4.4,6.6
	c2.2,4.4,4.8,22.2,5.5,25.5c0.7,3.3,1,13.9,0.9,16.6c-0.2,2-0.7,4-1.5,5.8"/>
<path class="st17" d="M224.4,323.1L224.4,323.1c0.4-0.3,13.4-9.2,7.5-27.8c-6.1-18.9-22.1-45.2-22.1-45.2s-7.6-14.6-9.2-18.6
	c-1.7-4-5.6-13.2-7.4-23.2s1.3-29.4,1.3-29.4l0.4-3.2"/>
<path class="st17" d="M172.8,189.2c0,0,4.7-3.9,5-9.5c0,0-1.7,20.9-0.9,30.4s2.6,19,2.6,19l5.8,17.8c0,0-12-22.4-13.3-41.4
	C171.6,200.1,171.8,194.6,172.8,189.2z"/>
<path class="st21" d="M217.2,304c0,0-0.5-13-6.9-21.2c-6.3-8.2-9.3-7.7-9.3-7.7l-6.5-11.1c0,0,8.4-0.4,13.5,2.4
	c5,2.9,8,5.5,11.6,13.4c0,0,2.8,4.1,5.1,19.2"/>
<line class="st17" x1="199.4" y1="380.1" x2="201.8" y2="378.4"/>
<path class="st16" d="M162.5,100.8c0,0,4.1,7.6,4.4,11.9c0.3,4.3,0.3,8.1,0.3,8.1s4,4.7,7.7,9.7c3.7,5,5.5,15.9,5.8,24.9
	c0.3,9-3,24.3-3,24.3l15,40.3l13.5,29.3l8.9,19.2"/>
<line class="st21" x1="285.4" y1="410.6" x2="284.9" y2="405.5"/>
<line class="st17" x1="230.2" y1="407.4" x2="229.4" y2="421.3"/>
<polygon class="st0" points="228.1,409 221.1,435.9 223.5,436.7 231.7,408.6 "/>
<path class="st0" d="M217.5,461.4h0.8c0,0,1.3-2.4,1-4.2c-0.3-0.9,0-1.9,0.6-2.6c0,0,0.6-0.4,0.4-1.9c-0.1-0.9,0.3-1.8,1.1-2.3
	c0,0,0.3,0.8,1-3s2.5-9.1,1.9-10.2l-1.5-0.4l-7.8,21.6L217.5,461.4z"/>
<path class="st0" d="M219.5,435.8l4.8,1.4l-3.7,11.2c-0.7,0.3-1.2,0.9-1.4,1.6c0,1.4-0.5,2.8-1.3,3.9c-0.1,0.7,0,1.4,0.4,2
	c0.7,1.4-1.2,6.1-1.4,6.1c-0.2,0-4.2-0.9-4.2-1.4c0-0.5-0.5-1.6,1.1-6.4C215.5,449.3,219.5,435.8,219.5,435.8z"/>
<path class="st0" d="M284.8,420.3c-0.9-0.9-1.2-2.2-1-3.4l0,0l0.4-1.7l0.4-1.8l0.4-1.6l0.3-1l1.1-4.3c0,0,1.2-3,2-3
	s-0.7,2.5,11.7,1.9s10.4-2.4,10.4-2.4c1.5,0.3,1.5,2.8,1.5,2.8l0.3,13.8c-0.2,1.2-0.8,2.4-1.7,3.2c-1.1,1-16.6,0.9-21.3,0.9
	c-0.9,0-1.7-0.3-2.3-1L284.8,420.3z"/>
<path class="st17" d="M289.6,402.7l5.3-32.3c0,0,8.9,0.3,11.4,0.3c2.5-0.1,8.7-0.8,8.7-0.8l-4.9,33.3c0,0-4.1,2-11.4,1.7
	c-7.3-0.3-9.4-0.8-9.6-1.5S289.6,402.7,289.6,402.7z"/>
<path class="st17" d="M309,279.8l-1.2,0.7v1.6c0,0,7.7,0.6,11.2,0.6c3.6,0,9.9-1.4,9.9-1.4v-1.4c-3.3,0.6-6.7,1-10.1,1.1
	c-3.7,0-10.3-0.3-10.3-0.3"/>
<line class="st17" x1="327" y1="278.7" x2="328.8" y2="279.8"/>
<path class="st5" d="M370.8,271.8l-103.1,1.7c-1.8,0-4.7,1.8-4.7,0l-0.7-3.3c0-1.8,3.7-3.3,5.5-3.3l55.1-6.2
	c1.8,0,53.3,2.4,53.3,4.3l0.8,3.7C376.9,270.5,372.7,271.8,370.8,271.8z"/>
<path class="st0" d="M316.1,369.8l0.9-0.3l12.2-77l11-17.5l-42.2,1.4l4,18.1l-8.8,75c0,0-0.2,0.9,1,1s11,0.3,11,0.3L316.1,369.8z"/>
<path class="st0" d="M266.6,277.1l96.3-3.1l9.9-0.8l4.2-4.4c0,0-14.3,2.7-56.2,3.6c-41.8,0.9-58.3,0.6-58.3,0.6
	S265.9,277.1,266.6,277.1z"/>
<path class="st0" d="M376.9,268.7c0,0,1.1-3.6-0.8-5.3c-1.7-1.5-0.6-2.5-14.3-3c-13.7-0.4-33.2-1.1-43.6-0.7
	c-10.3,0.4-37.5,3.3-37.5,3.3s-13.1,2-14.6,2.4c-1.5,0.4-3.8,3.9-3.8,3.9"/>
<path class="st0" d="M262.5,272.8c0,0-0.4-3,0-3.6"/>
<path class="st0" d="M280.2,253l74-1.4l7.6-0.4l2.8-4.4c0,0-10.6,3-42.7,3.1c-32.1,0.2-44.7-0.2-44.7-0.2S279.6,253,280.2,253z"/>
<path class="st0" d="M364.6,246.7c0,0,0.9-2.3-0.6-3.5c-1.2-1-0.5-1.7-11-1.9s-25.6-0.7-33.5-0.4c-7.9,0.3-28.8,2.2-28.8,2.2
	s-10.1,1.3-11.2,1.6c-1.1,0.3-3,2.6-3,2.6c-0.3,0.3,0,2.3,0,2.3S347.9,252,364.6,246.7z"/>
<polygon class="st0" points="332.2,259.6 337.4,251.9 302.5,252.6 304.4,260.7 "/>
<polygon class="st17" points="144.3,340.7 144.8,360.2 148.5,363.2 149.8,374.5 154.8,385 163.4,384.4 166.5,372.8 165.3,362.1 
	169.1,358.3 168.6,335.7 164.1,337.1 164.6,356.1 164.1,356.7 148.4,358 148.1,357.3 147.9,338.3 144.3,337.5 "/>
<polygon class="st17" points="144.3,337.1 141.1,307.2 144.3,281.5 157.9,280.1 165.5,305.1 168.6,335.7 164.1,337.1 161.3,306.5 
	154.5,284.9 148,285.6 144.7,307.2 147.9,338.3 144.3,337.5 "/>
<line class="st17" x1="144.5" y1="281.8" x2="148" y2="285.6"/>
<line class="st17" x1="157.6" y1="280.6" x2="154.5" y2="284.9"/>
<circle class="st17" cx="153.3" cy="311.6" r="3"/>
<line class="st150" x1="99.2" y1="410" x2="99.2" y2="10.4"/>
<line class="st38" x1="88.8" y1="412.8" x2="137" y2="412.8"/>
<polygon class="st40" points="99.2,412.2 93,400.5 105.4,400.5 "/>
<polygon class="st40" points="418.3,592 412.1,579.7 424.5,579.7 "/>
<line class="st43" x1="418.3" y1="585.9" x2="418.3" y2="332.4"/>
<line class="st45" x1="369.3" y1="330.6" x2="424.5" y2="330.6"/>
<line class="st44" x1="240" y1="591.6" x2="470.9" y2="591.6"/>
<polygon class="st40" points="418.3,330.6 424.5,342.8 412.1,342.8 "/>
<rect x="388.8" y="455.4" class="st36" width="67.9" height="14.3"/>
<text transform="matrix(1 0 0 1 391.7944 466.6169)" class="st40 st210 st211">38 a 48cm</text>
<line class="st46" x1="464.7" y1="587.4" x2="464.7" y2="264.7"/>
<rect x="437.6" y="408.7" class="st36" width="61.4" height="15.9"/>
<line class="st47" x1="335.5" y1="259.6" x2="470.9" y2="259.6"/>
<polygon class="st40" points="464.7,259.9 470.9,271.7 458.7,271.7 "/>
<polygon class="st40" points="464.7,593.4 458.7,581.5 470.9,581.5 "/>
<text transform="matrix(0.91 0 0 1 440.5678 421.1559)" class="st40 st210 st211">62 a 69cm</text>
<rect x="78.1" y="223.1" class="st36" width="42.4" height="14.3"/>
<text transform="matrix(1 0 0 1 81.2944 234.6979)" class="st40 st210 st211">82cm</text>
<g id="texto_13_">
	<rect x="397.1" y="364.6" class="st36" width="54.3" height="15.7"/>
	<text transform="matrix(1.0849 0 0 1 401.2143 376.454)" class="st213 st210 st214">13cm</text>
</g>
<g>
	<line class="st146" x1="175.7" y1="440.4" x2="375.6" y2="440.4"/>
	<line class="st147" x1="382.5" y1="398.8" x2="382.5" y2="445.3"/>
	<line class="st148" x1="170" y1="424.4" x2="170" y2="446.5"/>
	<polygon class="st126" points="382.9,440.2 370.4,446.5 370.4,433.7 	"/>
	<polygon class="st126" points="170.5,440.2 183,446.5 183,433.7 	"/>
</g>
<polygon class="st5" points="335.8,445.7 299.6,447.1 299.8,431.9 335.1,431.9 "/>
<text transform="matrix(1 0 0 1 301.5454 443.3659)" class="st40 st210 st211">56cm</text>
</svg>
