<?xml version="1.0" encoding="utf-8"?>
<!-- Generator: Adobe Illustrator 23.0.1, SVG Export Plug-In . SVG Version: 6.00 Build 0)  -->
<svg version="1.1" id="Camada_1" xmlns="http://www.w3.org/2000/svg" xmlns:xlink="http://www.w3.org/1999/xlink" x="0px" y="0px"
	 viewBox="0 0 600 600" style="enable-background:new 0 0 600 600;" xml:space="preserve">
<style type="text/css">
	.st0{fill:#FFFFFF;stroke:#1E1E1C;stroke-miterlimit:10;}
	.st1{fill:none;stroke:#1E1E1C;stroke-width:0.6333;stroke-miterlimit:10;}
	.st2{fill:#FFFFFF;stroke:#1E1E1C;stroke-width:1.2665;stroke-miterlimit:10;}
	.st3{fill:#FFFFFF;stroke:#1E1E1C;stroke-width:0.6333;stroke-miterlimit:10;}
	.st4{fill:none;stroke:#1E1E1C;stroke-width:0.9721;stroke-miterlimit:10;}
	.st5{fill:#FFFFFF;}
	.st6{fill:none;stroke:#1E1E1C;stroke-width:0.9881;stroke-miterlimit:10;}
	.st7{fill:none;stroke:#1E1E1C;stroke-width:1.2665;stroke-miterlimit:10;}
	.st8{fill:#FFFFFF;stroke:#1E1E1C;stroke-width:0.9721;stroke-miterlimit:10;}
	.st9{fill:#FFFFFF;stroke:#1E1E1C;stroke-width:0.9091;stroke-miterlimit:10;}
	.st10{fill:#FFFFFF;stroke:#1E1E1C;stroke-width:0.5889;stroke-miterlimit:10;}
	.st11{fill:#FFFFFF;stroke:#1E1E1C;stroke-width:1.019;stroke-miterlimit:10;}
	.st12{fill:#FFFFFF;stroke:#1E1E1C;stroke-width:0.953;stroke-miterlimit:10;}
	.st13{fill:#FFFFFF;stroke:#1E1E1C;stroke-width:0.6639;stroke-miterlimit:10;}
	.st14{fill:#FFFFFF;stroke:#1E1E1C;stroke-width:0.6174;stroke-miterlimit:10;}
	.st15{fill:#FFFFFF;stroke:#1E1E1C;stroke-width:1.3277;stroke-miterlimit:10;}
	.st16{fill:none;stroke:#1E1E1C;stroke-width:0.75;stroke-miterlimit:10;}
	.st17{fill:none;stroke:#1E1E1C;stroke-miterlimit:10;}
	.st18{fill:none;stroke:#1E1E1C;stroke-width:1.3977;stroke-miterlimit:10;}
	.st19{fill:none;stroke:#1E1E1C;stroke-width:2;stroke-miterlimit:10;}
	.st20{fill:#FFFFFF;stroke:#1E1E1C;stroke-width:0.5;stroke-miterlimit:10;}
	.st21{fill:none;stroke:#1E1E1C;stroke-width:0.5;stroke-miterlimit:10;}
	.st22{fill:none;stroke:#1E1E1C;stroke-width:1.0033;stroke-miterlimit:10;}
	.st23{fill:#FFFFFF;stroke:#020203;stroke-width:0.75;stroke-miterlimit:10;}
	.st24{fill:none;stroke:#020203;stroke-miterlimit:10;}
	.st25{fill:#FFFFFF;stroke:#020203;stroke-miterlimit:10;}
	.st26{fill:none;stroke:#020203;stroke-width:0.5;stroke-miterlimit:10;}
	.st27{fill:#FFFFFF;stroke:#020203;stroke-linejoin:round;}
	.st28{fill:none;stroke:#020203;stroke-linejoin:round;}
	.st29{fill:none;stroke:#020203;stroke-width:0.75;stroke-miterlimit:10;}
	.st30{fill:none;stroke:#020203;stroke-width:0.25;stroke-miterlimit:10;}
	.st31{fill:none;stroke:#E52624;stroke-width:1.5;stroke-miterlimit:10;}
	.st32{fill:#E52624;}
	.st33{fill:#FFFFFF;stroke:#020203;stroke-width:0.5;stroke-miterlimit:10;}
	.st34{fill:none;stroke:#E52522;stroke-width:1.5;stroke-miterlimit:10;}
	.st35{fill:#E52522;}
	.st36{fill:#E7E6E6;}
	.st37{fill:none;stroke:#E20D18;stroke-width:2;stroke-miterlimit:10;}
	.st38{fill:none;stroke:#E20D18;stroke-width:1.8;stroke-miterlimit:10;}
	.st39{fill:none;stroke:#E20D18;stroke-width:1.62;stroke-miterlimit:10;}
	.st40{fill:#E20D18;}
	.st41{fill:none;stroke:#E20D18;stroke-width:1.54;stroke-miterlimit:10;}
	.st42{fill:none;stroke:#E20D18;stroke-width:1.74;stroke-miterlimit:10;}
	.st43{fill:none;stroke:#E20D18;stroke-width:1.55;stroke-miterlimit:10;}
	.st44{fill:none;stroke:#E20D18;stroke-width:1.56;stroke-miterlimit:10;}
	.st45{fill:none;stroke:#E20D18;stroke-width:1.53;stroke-miterlimit:10;}
	.st46{fill:none;stroke:#E20D18;stroke-width:1.58;stroke-miterlimit:10;}
	.st47{fill:none;stroke:#E20D18;stroke-width:1.69;stroke-miterlimit:10;}
	.st48{fill:none;stroke:#E20D18;stroke-width:1.43;stroke-miterlimit:10;}
	.st49{fill:none;stroke:#E20D18;stroke-width:1.48;stroke-miterlimit:10;}
	.st50{fill:none;stroke:#E20D18;stroke-width:1.67;stroke-miterlimit:10;}
	.st51{fill:none;stroke:#E20D18;stroke-width:1.65;stroke-miterlimit:10;}
	.st52{fill:#FFFFFF;stroke:#020203;stroke-width:3;stroke-miterlimit:10;}
	.st53{fill:none;stroke:#E20D18;stroke-width:1.41;stroke-miterlimit:10;}
	.st54{fill:none;stroke:#E20D18;stroke-width:1.59;stroke-miterlimit:10;}
	.st55{fill:none;stroke:#1E1E1C;stroke-width:1.05;stroke-miterlimit:10;}
	.st56{fill:none;stroke:#1E1E1C;stroke-width:0.52;stroke-miterlimit:10;}
	.st57{fill:none;stroke:#1E1E1C;stroke-width:0.8;stroke-miterlimit:10;}
	.st58{fill:none;stroke:#1E1E1C;stroke-width:0.49;stroke-miterlimit:10;}
	.st59{fill:none;stroke:#1E1E1C;stroke-width:0.84;stroke-miterlimit:10;}
	.st60{fill:none;stroke:#1E1E1C;stroke-width:0.79;stroke-miterlimit:10;}
	.st61{fill:none;stroke:#1E1E1C;stroke-width:0.55;stroke-miterlimit:10;}
	.st62{fill:none;stroke:#1E1E1C;stroke-width:0.51;stroke-miterlimit:10;}
	.st63{fill:none;stroke:#1E1E1C;stroke-width:1.1;stroke-miterlimit:10;}
	.st64{fill:none;stroke:#1E1E1C;stroke-width:0.25;stroke-miterlimit:10;}
	.st65{fill:none;stroke:#1E1E1C;stroke-width:1.07;stroke-miterlimit:10;}
	.st66{fill:none;stroke:#1E1E1C;stroke-width:0.94;stroke-miterlimit:10;}
	.st67{fill:none;stroke:#1E1E1C;stroke-width:0.56;stroke-miterlimit:10;}
	.st68{fill:none;stroke:#E20D18;stroke-width:1.5;stroke-miterlimit:10;}
	.st69{fill:none;stroke:#E20D18;stroke-width:1.49;stroke-miterlimit:10;}
	.st70{fill:none;stroke:#E20D18;stroke-miterlimit:10;}
	.st71{fill:none;stroke:#1E1E1C;stroke-width:0.78;stroke-miterlimit:10;}
	.st72{fill:none;stroke:#1E1E1C;stroke-width:1.08;stroke-miterlimit:10;}
	.st73{fill:none;stroke:#1E1E1C;stroke-width:0.54;stroke-miterlimit:10;}
	.st74{fill:none;stroke:#1E1E1C;stroke-width:0.83;stroke-miterlimit:10;}
	.st75{fill:none;stroke:#1E1E1C;stroke-width:0.77;stroke-miterlimit:10;}
	.st76{fill:none;stroke:#1E1E1C;stroke-width:0.87;stroke-miterlimit:10;}
	.st77{fill:none;stroke:#1E1E1C;stroke-width:0.81;stroke-miterlimit:10;}
	.st78{fill:none;stroke:#1E1E1C;stroke-width:1.13;stroke-miterlimit:10;}
	.st79{fill:none;stroke:#1E1E1C;stroke-width:0.21;stroke-miterlimit:10;}
	.st80{fill:#FFFFFF;stroke:#1E1E1C;stroke-width:0.84;stroke-miterlimit:10;}
	.st81{fill:none;stroke:#1E1E1C;stroke-width:0.42;stroke-miterlimit:10;}
	.st82{fill:none;stroke:#1E1E1C;stroke-width:0.24;stroke-miterlimit:10;}
	.st83{fill:none;stroke:#E20D18;stroke-width:1.6;stroke-miterlimit:10;}
	.st84{fill:none;stroke:#E20D18;stroke-width:1.64;stroke-miterlimit:10;}
	.st85{fill:none;stroke:#E20D18;stroke-width:1.484;stroke-miterlimit:10;}
	.st86{fill:none;stroke:#E20D18;stroke-width:1.4075;stroke-miterlimit:10;}
	.st87{fill:none;stroke:#E20D18;stroke-width:1.5853;stroke-miterlimit:10;}
	.st88{fill:none;stroke:#E20D18;stroke-width:1.2981;stroke-miterlimit:10;}
	.st89{fill:none;stroke:#E20D18;stroke-width:0.9733;stroke-miterlimit:10;}
	.st90{fill:none;stroke:#E20D18;stroke-width:0.9159;stroke-miterlimit:10;}
	.st91{fill:none;stroke:#E20D18;stroke-width:1.4439;stroke-miterlimit:10;}
	.st92{fill:none;stroke:#E20D18;stroke-width:1.0062;stroke-miterlimit:10;}
	.st93{fill:none;stroke:#E20D18;stroke-width:0.9468;stroke-miterlimit:10;}
	.st94{fill:none;stroke:#E20D18;stroke-width:1.6749;stroke-miterlimit:10;}
	.st95{fill:none;stroke:#E20D18;stroke-width:1.6513;stroke-miterlimit:10;}
	.st96{fill:#FFFFFF;stroke:#1E1E1C;stroke-width:0.8664;stroke-miterlimit:10;}
	.st97{fill:#FFFFFF;stroke:#1E1E1C;stroke-width:1.0973;stroke-miterlimit:10;}
	.st98{fill:none;stroke:#1E1E1C;stroke-width:1.0973;stroke-miterlimit:10;}
	.st99{fill:#FFFFFF;stroke:#1E1E1C;stroke-width:0.5487;stroke-miterlimit:10;}
	.st100{fill:none;stroke:#1E1E1C;stroke-width:0.8422;stroke-miterlimit:10;}
	.st101{fill:#FFFFFF;stroke:#1E1E1C;stroke-width:0.7877;stroke-miterlimit:10;}
	.st102{fill:#FFFFFF;stroke:#1E1E1C;stroke-width:0.5103;stroke-miterlimit:10;}
	.st103{fill:#FFFFFF;stroke:#1E1E1C;stroke-width:0.8422;stroke-miterlimit:10;}
	.st104{fill:none;stroke:#1E1E1C;stroke-width:0.8829;stroke-miterlimit:10;}
	.st105{fill:#FFFFFF;stroke:#1E1E1C;stroke-width:0.8257;stroke-miterlimit:10;}
	.st106{fill:#FFFFFF;stroke:#1E1E1C;stroke-width:0.5752;stroke-miterlimit:10;}
	.st107{fill:#FFFFFF;stroke:#1E1E1C;stroke-width:0.5349;stroke-miterlimit:10;}
	.st108{fill:#FFFFFF;stroke:#1E1E1C;stroke-width:1.1504;stroke-miterlimit:10;}
	.st109{fill:#FFFFFF;stroke:#1E1E1C;stroke-width:0.8829;stroke-miterlimit:10;}
	.st110{fill:none;stroke:#1E1E1C;stroke-width:0.5487;stroke-miterlimit:10;}
	.st111{fill:#FFFFFF;stroke:#1E1E1C;stroke-width:1.0441;stroke-miterlimit:10;}
	.st112{fill:none;stroke:#E20D18;stroke-width:1.5173;stroke-miterlimit:10;}
	.st113{fill:none;stroke:#E20D18;stroke-width:1.804;stroke-miterlimit:10;}
	.st114{fill:none;stroke:#E20D18;stroke-width:1.6153;stroke-miterlimit:10;}
	.st115{fill:none;stroke:#E20D18;stroke-width:1.578;stroke-miterlimit:10;}
	.st116{fill:none;stroke:#E20D18;stroke-width:1.6879;stroke-miterlimit:10;}
	.st117{fill:none;stroke:#E20D18;stroke-width:1.6347;stroke-miterlimit:10;}
	.st118{fill:none;stroke:#E20D18;stroke-width:1.5386;stroke-miterlimit:10;}
	.st119{fill:none;stroke:#E20D18;stroke-width:1.7396;stroke-miterlimit:10;}
	.st120{fill:#FFFFFF;stroke:#1E1E1C;stroke-width:1.4;stroke-miterlimit:10;}
	.st121{fill:none;stroke:#E20D18;stroke-width:1.4266;stroke-miterlimit:10;}
	.st122{fill:none;stroke:#E20D18;stroke-width:1.4299;stroke-miterlimit:10;}
	.st123{fill:none;stroke:#1E1E1C;stroke-width:0.9867;stroke-miterlimit:10;}
	.st124{fill:none;stroke:#DD0B18;stroke-width:1.4266;stroke-miterlimit:10;}
	.st125{fill:none;stroke:#DD0B18;stroke-width:1.4299;stroke-miterlimit:10;}
	.st126{fill:#DD0B18;}
	.st127{fill:none;stroke:#DD0B18;stroke-width:1.484;stroke-miterlimit:10;}
	.st128{fill:none;stroke:#DD0B18;stroke-width:1.4075;stroke-miterlimit:10;}
	.st129{fill:none;stroke:#DD0B18;stroke-width:1.5853;stroke-miterlimit:10;}
	.st130{fill:none;stroke:#DD0B18;stroke-width:1.2981;stroke-miterlimit:10;}
	.st131{fill:none;stroke:#DD0B18;stroke-width:0.9733;stroke-miterlimit:10;}
	.st132{fill:none;stroke:#DD0B18;stroke-width:0.9159;stroke-miterlimit:10;}
	.st133{fill:none;stroke:#DD0B18;stroke-width:1.4439;stroke-miterlimit:10;}
	.st134{fill:none;stroke:#DD0B18;stroke-width:1.0062;stroke-miterlimit:10;}
	.st135{fill:none;stroke:#DD0B18;stroke-width:0.9468;stroke-miterlimit:10;}
	.st136{fill:none;stroke:#DD0B18;stroke-width:1.6749;stroke-miterlimit:10;}
	.st137{fill:none;stroke:#DD0B18;stroke-width:1.6513;stroke-miterlimit:10;}
	.st138{fill:#FFFFFF;stroke:#1E1E1C;stroke-width:0.75;stroke-miterlimit:10;}
	.st139{fill:none;stroke:#DD0B18;stroke-width:1.5173;stroke-miterlimit:10;}
	.st140{fill:none;stroke:#DD0B18;stroke-width:1.804;stroke-miterlimit:10;}
	.st141{fill:none;stroke:#DD0B18;stroke-width:1.6153;stroke-miterlimit:10;}
	.st142{fill:none;stroke:#DD0B18;stroke-width:1.5551;stroke-miterlimit:10;}
	.st143{fill:none;stroke:#DD0B18;stroke-width:1.578;stroke-miterlimit:10;}
	.st144{fill:#E0E0E0;}
	.st145{fill:none;stroke:#DD0B18;stroke-width:1.6879;stroke-miterlimit:10;}
	.st146{fill:none;stroke:#DD0B18;stroke-width:1.6347;stroke-miterlimit:10;}
	.st147{fill:none;stroke:#DD0B18;stroke-width:1.5386;stroke-miterlimit:10;}
	.st148{fill:none;stroke:#DD0B18;stroke-width:1.7396;stroke-miterlimit:10;}
	.st149{fill:#FFFFFF;stroke:#020203;stroke-width:1.635;stroke-miterlimit:10;}
	.st150{fill:none;stroke:#E20D18;stroke-width:1.52;stroke-miterlimit:10;}
	.st151{fill:#020203;}
	.st152{fill:none;stroke:#1E1E1C;stroke-linejoin:round;}
	.st153{fill:none;stroke:#1E1E1C;stroke-linecap:round;stroke-miterlimit:10;}
	.st154{fill:#1E1E1C;}
	.st155{fill:none;stroke:#1E1E1C;stroke-linejoin:round;stroke-miterlimit:10;}
	.st156{fill:none;stroke:#020203;stroke-linejoin:bevel;stroke-miterlimit:10;}
	.st157{fill:none;stroke:#020203;stroke-miterlimit:10;stroke-dasharray:1;}
	.st158{fill:none;stroke:#020203;stroke-width:0.5;stroke-miterlimit:10;stroke-dasharray:1;}
	.st159{fill:none;stroke:#E20D18;stroke-width:1.3;stroke-miterlimit:10;}
	.st160{fill:none;stroke:#E20D18;stroke-width:0.97;stroke-miterlimit:10;}
	.st161{fill:none;stroke:#E20D18;stroke-width:0.92;stroke-miterlimit:10;}
	.st162{fill:none;stroke:#E20D18;stroke-width:1.44;stroke-miterlimit:10;}
	.st163{fill:none;stroke:#E20D18;stroke-width:1.01;stroke-miterlimit:10;}
	.st164{fill:none;stroke:#E20D18;stroke-width:0.95;stroke-miterlimit:10;}
	.st165{fill:#FFFFFF;stroke:#1E1E1C;stroke-width:2;stroke-miterlimit:10;}
	.st166{fill:none;stroke:#1E1E1C;stroke-width:1.5;stroke-linejoin:round;}
	.st167{fill:none;stroke:#1E1E1C;stroke-width:1.5;stroke-miterlimit:10;}
	.st168{fill:none;stroke:#1E1E1C;stroke-width:2;stroke-linecap:round;stroke-miterlimit:10;}
	.st169{fill:none;stroke:#1E1E1C;stroke-width:1.5;stroke-linecap:round;stroke-miterlimit:10;}
	.st170{fill:none;stroke:#1E1E1C;stroke-width:2;stroke-linejoin:round;stroke-miterlimit:10;}
	.st171{fill:none;stroke:#1E1E1C;stroke-width:2;stroke-linejoin:round;}
	.st172{fill:none;stroke:#020203;stroke-width:0.5;stroke-linejoin:bevel;stroke-miterlimit:10;}
	.st173{fill:none;stroke:#E20D18;stroke-width:1.63;stroke-miterlimit:10;}
	.st174{fill:none;stroke:#000000;stroke-miterlimit:10;}
	.st175{fill:#FFFFFF;stroke:#000000;stroke-miterlimit:10;}
	.st176{fill:none;stroke:#E20D18;stroke-width:1.3113;stroke-miterlimit:10;}
	.st177{fill:none;stroke:#E20D18;stroke-width:1.3459;stroke-miterlimit:10;}
	.st178{fill:none;stroke:#E20D18;stroke-width:1.4481;stroke-miterlimit:10;}
	.st179{fill:none;stroke:#E20D18;stroke-width:1.3929;stroke-miterlimit:10;}
	.st180{fill:none;stroke:#E20D18;stroke-width:1.327;stroke-miterlimit:10;}
	.st181{fill:none;stroke:#E20D18;stroke-width:1.4965;stroke-miterlimit:10;}
	.st182{fill:none;stroke:#E20D18;stroke-width:1.225;stroke-miterlimit:10;}
	.st183{fill:none;stroke:#E20D18;stroke-width:1.4563;stroke-miterlimit:10;}
	.st184{fill:none;stroke:#E20D18;stroke-width:1.5717;stroke-miterlimit:10;}
	.st185{fill:none;stroke:#E20D18;stroke-width:1.5529;stroke-miterlimit:10;}
	.st186{fill:#BFBEBF;stroke:#020203;stroke-miterlimit:10;}
	.st187{fill:none;stroke:#E20D18;stroke-width:2.0835;stroke-miterlimit:10;}
	.st188{fill:none;stroke:#E20D18;stroke-width:1.8751;stroke-miterlimit:10;}
	.st189{fill:none;stroke:#E20D18;stroke-width:1.6876;stroke-miterlimit:10;}
	.st190{fill:none;stroke:#E20D18;stroke-width:1.698;stroke-miterlimit:10;}
	.st191{fill:none;stroke:#E20D18;stroke-width:1.6043;stroke-miterlimit:10;}
	.st192{fill:none;stroke:#E20D18;stroke-width:1.8126;stroke-miterlimit:10;}
	.st193{fill:none;stroke:#E20D18;stroke-width:1.6147;stroke-miterlimit:10;}
	.st194{fill:none;stroke:#E20D18;stroke-width:1.5938;stroke-miterlimit:10;}
	.st195{fill:none;stroke:#E20D18;stroke-width:1.6251;stroke-miterlimit:10;}
	.st196{fill:none;stroke:#E20D18;stroke-width:1.6459;stroke-miterlimit:10;}
	.st197{fill:none;stroke:#E20D18;stroke-width:1.7605;stroke-miterlimit:10;}
	.st198{font-family:'Roboto-Medium';}
	.st199{font-size:12.5149px;}
	.st200{fill:#FFFFFF;stroke:#1E1E1C;stroke-width:0.87;stroke-miterlimit:10;}
	.st201{fill:#FFFFFF;stroke:#1E1E1C;stroke-width:1.1;stroke-miterlimit:10;}
	.st202{fill:#FFFFFF;stroke:#1E1E1C;stroke-width:0.55;stroke-miterlimit:10;}
	.st203{fill:#FFFFFF;stroke:#1E1E1C;stroke-width:0.79;stroke-miterlimit:10;}
	.st204{fill:#FFFFFF;stroke:#1E1E1C;stroke-width:0.51;stroke-miterlimit:10;}
	.st205{fill:none;stroke:#1E1E1C;stroke-width:0.88;stroke-miterlimit:10;}
	.st206{fill:#FFFFFF;stroke:#1E1E1C;stroke-width:0.83;stroke-miterlimit:10;}
	.st207{fill:#FFFFFF;stroke:#1E1E1C;stroke-width:0.58;stroke-miterlimit:10;}
	.st208{fill:#FFFFFF;stroke:#1E1E1C;stroke-width:0.53;stroke-miterlimit:10;}
	.st209{fill:#FFFFFF;stroke:#1E1E1C;stroke-width:1.15;stroke-miterlimit:10;}
	.st210{fill:#FFFFFF;stroke:#1E1E1C;stroke-width:0.88;stroke-miterlimit:10;}
	.st211{fill:#FFFFFF;stroke:#1E1E1C;stroke-width:1.04;stroke-miterlimit:10;}
	.st212{fill:#FFFFFF;stroke:#020203;stroke-linejoin:round;stroke-miterlimit:10;}
</style>
<path class="st0" d="M436.6,504.9c7.9,0.2,14.2,7.2,14,15.6c-0.2,2.9-0.8,5.7-1.9,8.4l-28-7.9l10.2-13.3L436.6,504.9z"/>
<path class="st17" d="M450,520.9c0.2-8.4-7.3-14.5-15.2-14.7"/>
<path class="st0" d="M433.5,542.6c7.9,0.2,14.5-6.5,14.7-15c0.2-8.4-6.1-15.4-14-15.6c-7.9-0.2-14.5,6.5-14.7,15
	S425.6,542.5,433.5,542.6"/>
<ellipse transform="matrix(2.286178e-02 -0.9997 0.9997 2.286178e-02 -103.5745 948.7468)" class="st0" cx="433.6" cy="527.4" rx="2.6" ry="2.5"/>
<path class="st17" d="M433.6,514.5c0,0-0.3,8.4-0.6,8.8s-0.7,0.7-1.5,0s-4.3-6.7-4.3-6.7"/>
<path class="st17" d="M435.5,514.5c0,0-0.6,8.3-0.3,8.8s0.6,0.8,1.5,0.1c0.9-0.7,4.9-6.2,4.9-6.2"/>
<path class="st17" d="M443.3,519.4c0,0-5.5,6-5.6,6.5c0,0.5-0.1,1,1.1,1.2c1.1,0.1,7.5-1.4,7.5-1.4"/>
<path class="st17" d="M446.2,529.5c0,0-7.8-0.6-8.3-0.3c-0.4,0.3-0.8,0.6-0.1,1.6c0.6,1,5.8,5.2,5.8,5.2"/>
<path class="st17" d="M433.6,540.4c6.7,0.2,12.3-5.5,12.5-12.7c0.2-7.2-5.1-13.1-11.9-13.3c-6.7-0.2-12.3,5.5-12.5,12.7
	C421.5,534.3,426.8,540.2,433.6,540.4"/>
<path class="st17" d="M449.5,524.6c0.2-8.4-5.8-14.7-13.7-14.9c0,0-2.2-0.4-6,0.8"/>
<path class="st5" d="M117.8,510.3c-5.1,0.1-9.9,2.9-12.5,7.3c-4.7,7.6,0.4,17.3,0.4,17.3c2.9,14.3,14.6,13.3,14.6,13.3
	c17.2-0.6,14.3-22.5,14.3-22.5l-0.2-15.3C134.4,510.4,128.1,515.5,117.8,510.3z"/>
<path class="st5" d="M352.5,451l-0.6,1.6c0,0-2.4,0-4.6,11.3l28.2,6.8c0,0,3.8-14.6-3.2-18.1l-3.8-0.7l-3.9,0.7l-0.1-2.4L352.5,451z
	"/>
<path class="st5" d="M200.2,453.3l0.7,1.6c0,0,2.4-0.1,5.2,11l-27.8,8.1c0,0-4.5-14.4,2.4-18.3l3.7-0.9l3.9,0.6l-0.1-2.4
	L200.2,453.3z"/>
<path class="st5" d="M273.2,554l0.1,3.1l-5.3,0.1l-1.7,4.3l0.9,26.4l2.1,4.7l5.4-0.1c0,0,0.9-1.1,0.7-5.8s-0.1-6-0.1-6l8.8-0.3
	l0.2,9.2c0,0,0.4,2.7,0.9,2.7l5.4-0.2c0,0,2.1-3.2,2.4-5.8c0.3-2.6-0.6-24.7-0.6-24.7l-2.1-4.8l-5.7,0.1l-0.2-1.9L273.2,554z"/>
<g id="Base_3_">
	<g id="base-2_2_">
		<path class="st0" d="M295.3,452.7l-0.3-7c0,0,10.2-6.1,40-7.4c29.9-1.2,32.8,6,32.8,6s1.4,1.2,0.5,7.5c0,0-3.1,0.9-3.6,0.7
			c-0.4-0.2-0.2-2.4-0.2-2.4s-26.1,0.2-41.5,8.1"/>
		<path class="st0" d="M259,452.8l-0.2-6.7c0,0-11.4-6.1-41.3-6c-29.9,0.1-32.5,7.5-32.5,7.5s-1.3,1.2-0.2,7.6c0,0,3.2,0.8,3.6,0.6
			c0.4-0.2,0.1-2.4,0.1-2.4s26.1-1,41.8,6.2"/>
		<path class="st0" d="M278.8,458.4c11.4,0.1,16.5-5.8,16.5-5.8V452l-2.2-44.7c-0.1-1.2-0.2-2.3-0.5-3.4c-0.2-0.8-0.5-1.6-1-2.2
			c0,0-0.3,6-13.9,6.3l-2.9,0.1c-13.7,0.3-14.2-5.7-14.2-5.7c-0.5,0.7-0.8,1.4-0.9,2.3c-0.3,1.1-0.4,2.3-0.4,3.4l-0.2,44.8l0.1,0.7
			c0,0,5.4,5.6,16.8,5L278.8,458.4z"/>
		<path class="st0" d="M275.1,408c-12,0.5-13.8-5.3-13.8-5.3l-0.1-5.8c0,0-0.2-3.3,0.8-4.5c0,0,0,5.4,13.5,5h1
			c13.5-0.2,13.3-5.6,13.3-5.6c1.1,1.1,1.1,4.4,1.1,4.4l0.1,5.8c0,0-1.5,5.9-13.5,6L275.1,408z"/>
		<path class="st0" d="M262.1,392.8v-3.4h28l-0.5,2.1c0,0-0.6,5.9-13.2,5.8C263.7,397.2,262.1,392.8,262.1,392.8z"/>
		<path class="st0" d="M273.2,554.3l0.1,2.8c0.7,0.4,1.1,1,1.1,1.8l9.5-0.2c0,0,0.1-1.7,0.6-1.7l-0.1-2.2"/>
		<path class="st0" d="M273.2,557.1l-5.3,0.1l1.3,35.4l5.4-0.1c0,0,1-0.8,0.8-3.8l-1-29.7"/>
		<path class="st0" d="M268.1,557.2l-0.8,1.7c-1.7,3.5-0.9,1.8-0.7,15.2v0.3c0.5,13.4,0,13.1,1.8,16.5l0.8,1.7"/>
		<path class="st0" d="M284.8,556.8l5.3-0.1l0.3,35.4l-5.4,0.1c0,0-1-0.7-0.9-3.8l-0.4-29.7"/>
		<path class="st0" d="M290.2,557l0.8,1.7c1.8,3.4,1,1.7,1.4,15.2v0.3c0.2,13.4,0.6,13.1-1,16.6l-0.8,1.7"/>
		<line class="st17" x1="275.2" y1="580.2" x2="284.1" y2="580"/>
		<path class="st0" d="M259.1,453.5l-0.1-0.7c0,0-48.1,10.6-83.2,22c-35,11.4-56.2,23.4-56.2,23.4s-4.5,2.7-2.3,12.3
			c0,0,8.9,5.4,17,0l1.8-3.7c0,0,36-12.3,59.5-18.4c13.8-3.4,27.8-6,41.9-7.8c5.4-0.7,10.7-1.6,16-2.6h0c2.2-0.4,4.4-0.2,6.4,0.6
			l1.4,0.7h0c0,0,1.8,2.1,3.5,26.2s3.2,42.4,3.2,42.4s0.9,8.5,12.1,7.4c1.9-0.2,3.7-0.5,5.5-0.9c3.6-1.1,6.1-4.4,6.1-8.2l1.4-65.9
			v-0.1l1.4-0.7c2-0.9,4.2-1.2,6.4-0.9h0.1c5.3,0.8,10.7,1.5,16.1,1.9c14.2,1.1,28.3,3.1,42.2,5.8c23.8,4.9,60.3,15.6,60.3,15.6
			l-0.1,3c12.3,5.7,19.1-0.2,19.1-0.2c1.7-9.7-2.8-12.1-2.8-12.1s-21.7-11-57.3-20.8s-83.4-19.3-83.4-19.3"/>
		<path class="st17" d="M135,511.1v14.3l-0.5,0.4c0,0-1.1-4.6-4.3-7.2c-1.6-1.3-3.4-2.3-5.4-2.9l0-2.9"/>
		<path class="st0" d="M105.2,534.5c-1.1-2.7-1.8-5.5-1.9-8.4c-0.2-8.4,6.1-15.4,14-15.6"/>
		<path class="st0" d="M103.8,526.5c-0.2-8.4,7.3-14.5,15.2-14.7"/>
		
			<ellipse transform="matrix(0.9997 -2.286182e-02 2.286182e-02 0.9997 -12.1538 2.8797)" class="st0" cx="119.9" cy="533" rx="14.3" ry="15.3"/>
		
			<ellipse transform="matrix(0.9997 -2.286182e-02 2.286182e-02 0.9997 -12.1547 2.8859)" class="st0" cx="120.1" cy="533" rx="2.5" ry="2.6"/>
		<path class="st0" d="M120.2,520.1c0,0,0.3,8.4,0.6,8.8c0.3,0.4,0.7,0.7,1.5,0c0.9-0.7,4.3-6.7,4.3-6.7"/>
		<path class="st0" d="M128.5,524.1c0,0-4.9,6.5-4.9,7.1s0.1,1,1.2,1s7.3-2.2,7.3-2.2"/>
		<path class="st0" d="M132.2,532.8c0,0-7.9,0.2-8.2,0.6c-0.4,0.3-0.7,0.7,0,1.7c0.7,1,6.3,4.5,6.3,4.5"/>
		<path class="st0" d="M129.1,541.6c0,0-6.4-4.9-6.9-4.9c-0.5,0-0.9,0.1-0.9,1.3s2.4,7.7,2.4,7.7"/>
		<path class="st0" d="M118.3,520.2c0,0,0.6,8.3,0.3,8.8c-0.3,0.5-0.6,0.8-1.5,0.1c-1-0.7-4.9-6.3-4.9-6.3"/>
		<path class="st0" d="M110.5,525c0,0,5.5,6,5.6,6.5c0,0.5,0.1,1-1.1,1.2c-1.1,0.1-7.5-1.4-7.5-1.4"/>
		<path class="st0" d="M107.6,535.1c0,0,7.8-0.6,8.3-0.3c0.4,0.3,0.8,0.6,0.1,1.6c-0.6,1-5.8,5.2-5.8,5.2"/>
		<path class="st0" d="M112.7,543.6c0,0,5-6.5,5.5-6.6c0.5-0.1,0.9-0.1,1.2,1c0.3,1.2-0.5,8.1-0.5,8.1"/>
		<line class="st17" x1="188.5" y1="455.7" x2="193.3" y2="455.4"/>
		<path class="st0" d="M179,473.3c-1.7-1.9-1.5-6.5-1.5-6.5c-0.1-6.1,2.3-11,5.4-11.1s6.2,4.5,6.4,10.6l0.1,3.3"/>
		<path class="st0" d="M179.3,473.1c-1.5-1.7-1.4-6-1.4-6c-0.1-5.6,2.1-10.2,5-10.3s5,4.3,5.1,9.9l-0.1,3.5"/>
		<path class="st0" d="M181.2,458.1c0,0,0.4,7.6,0.9,8.9c0.5,1.4,0.9-4.7,1.8-6.4c0.2-0.4,0.5-0.9,0.7-1.4"/>
		<path class="st0" d="M185.9,461.5c0,0-2.6,5.8-2.6,7.1c0,1.2,2.5-1.5,4.4-2.3"/>
		<path class="st0" d="M179.7,460.2c0,0,2.1,7.2,1.6,6.7c-0.5-0.5-1.8-2-3.1-2.6"/>
		<path class="st0" d="M178.2,465.4l3.2,3.6c0,0,0.7,1.2-0.3,1.3c-0.9,0-1.8,0-2.7-0.1"/>
		
			<ellipse transform="matrix(0.9997 -2.286182e-02 2.286182e-02 0.9997 -10.678 4.2929)" class="st0" cx="182.4" cy="469.2" rx="0.9" ry="1.8"/>
		<path class="st0" d="M205.2,464.9c0,0-2.2-8.3-3.9-9.3l-0.2,10.3l-7.1,2.1l-0.2-2c-0.4-2.3-1.3-4.6-2.6-6.6l-0.1-3.7
			c1.4,1.7,3.6,2.6,5.8,2.2c3.6-0.7,4-2.4,4-2.4l-1-1.5v1.1l-6.7,0.2l0-1.9"/>
		<line class="st17" x1="364.6" y1="452.7" x2="359.6" y2="452.7"/>
		<path class="st0" d="M375.4,470.7c1.6-2,1.3-6.9,1.3-6.9c-0.2-6.3-2.9-11.4-6.2-11.4c-3.3,0.1-6.3,5-6.2,11.4l0.1,3.5"/>
		<path class="st0" d="M375.1,470.5c1.5-1.9,1.2-6.4,1.2-6.4c-0.1-5.9-2.7-10.6-5.7-10.5c-3,0.1-5,4.7-4.9,10.6l0.3,3.6"/>
		<path class="st0" d="M372.3,454.9c0,0,0,7.9-0.5,9.4c-0.5,1.4-1.2-4.9-2.2-6.6c-0.3-0.5-0.5-0.9-0.8-1.4"/>
		<path class="st0" d="M367.6,458.7c0,0,3,5.9,3.1,7.3c0.1,1.3-2.7-1.4-4.7-2.2"/>
		<path class="st0" d="M374,457c0,0-1.9,7.6-1.3,7.1s1.7-2.2,3.2-2.9"/>
		<path class="st0" d="M375.9,462.4l-3.1,3.9c0,0-0.7,1.3,0.3,1.3c0.9,0,1.9-0.1,2.8-0.2"/>
		
			<ellipse transform="matrix(0.9997 -2.286182e-02 2.286182e-02 0.9997 -10.569 8.6153)" class="st0" cx="371.5" cy="466.5" rx="1" ry="1.9"/>
		<path class="st0" d="M347.5,463.2c0,0,1.9-8.8,3.6-9.9l0.6,10.7l7.5,1.9l0.2-2.1c0.3-2.5,1.2-4.8,2.4-7l-0.1-3.9
			c-1.4,1.9-3.6,2.9-5.9,2.6c-3.9-0.6-4.3-2.3-4.3-2.3l1-1.6v1.2l7.1-0.2v-2"/>
		
			<ellipse transform="matrix(0.9997 -2.286182e-02 2.286182e-02 0.9997 -12.1538 2.8797)" class="st17" cx="119.9" cy="533" rx="12.2" ry="13"/>
		<path class="st17" d="M104.3,530.2c-0.2-7.9,6-14.5,13.9-14.8c0.1,0,0.3,0,0.4,0c2.1-0.3,4.3,0,6.3,0.8"/>
	</g>
</g>
<path class="st0" d="M431,507.6l-0.1,2.4c-1.9,0.9-3.7,2-5.4,3.3c-2,1.6-3.5,3.7-4.5,6l-0.7,2l0.8-15.6c1.3,0.7,2.8,1.1,4.3,1.3
	C427.2,507.4,429.1,507.6,431,507.6z"/>
<path class="st17" d="M425.6,518.4c0,0,4.5,5.6,4.8,6.4c0.2,0.5-0.2,2-1.3,2.1c-1.1,0-7-1.8-7-1.8"/>
<path class="st17" d="M421.9,528.3c0,0,6.8,0.2,7.2,0.5s0.7,0.7,0,1.7c-0.7,1-5.2,3.9-5.2,3.9"/>
<path class="st17" d="M425,536.3c0,0,5.3-4.2,5.8-4.1c0.5,0.1,0.9,0.1,0.9,1.3s-1.8,6.2-1.8,6.2"/>
<path class="st17" d="M439.7,538.3c0,0-4.3-5.6-4.8-5.7c-0.5-0.1-0.9-0.2-1.2,1c-0.3,1.2,0.4,6.7,0.4,6.7"/>
<path class="st0" d="M374.7,383l13.6,1c0,0-0.5,1.7,0.8,1.9l5,0.5c0,0,0,2,4.9,2.3l5.6,0.3c0,0,1.4-0.6,1.4-1.5s0.9,0.2,1-0.8
	l1-14.7c0,0-0.5-1.7-1.3-2c-0.7-0.3-0.8-3.6-0.8-3.6l1.8-0.1c0.5-0.2,0.9-0.5,1.1-1.1c0.4-0.9,9.9-69.7,9.9-69.7l3.2-10.6l1.1-4
	l9.6,0.8c0.8,0.1,1.6-0.1,2.3-0.6c0.6-0.5,1.2-1,1.8-1.6c0.5-0.6,0.9-1.4,0.9-2.2l0.1-1.1c0-0.5-0.1-1-0.3-1.5l0,0
	c-0.5-1.2-1.2-2.3-2.1-3.3c-1.3-1.4-2.7-2.6-4.3-3.5c-3.5-2-9.2-2.4-9.2-2.4l-10.2-1.2l-17.9-1.9c0,0-2.7,0.1-3.5,1.1
	c-0.8,1-0.9,4.3-0.9,4.3c1.7,3,4.2,5.5,7.1,7.3l8.4,3.8l-0.1,13.8l-9.1,70.7c0.4,0.7,1,1.1,1.8,1.3l1.4,0.4l-1.5,3.2
	c0,0-1.4,0.1-1.7,1.1c-0.4,1-1.6,7.8-1.6,7.8l-3.9-0.3c0,0-1.2,0.5-1.3,0.8c-0.1,0.2-0.3,0.3-0.6,0.3l-9.5-0.7L374.7,383z"/>
<path class="st0" d="M178.6,382.8H165c0,0,0.4,1.8-1,1.8s-5,0.1-5,0.1s-0.1,2-5.1,1.9c-5,0-5.6-0.1-5.6-0.1s-1.3-0.7-1.3-1.6
	c0-0.9-0.9,0.2-0.9-0.9v-14.7c0,0,0.7-1.6,1.4-1.9c0.8-0.3,1.1-3.5,1.1-3.5l-1.8-0.3c-0.5-0.2-0.9-0.6-1-1.1
	c-0.3-1-4.9-70.2-4.9-70.2l-2.4-10.8l-0.8-4l-9.6,0.1c-0.8,0-1.6-0.2-2.2-0.7c-0.6-0.5-1.2-1.1-1.7-1.7c-0.5-0.6-0.8-1.4-0.8-2.2
	V272c0-0.5,0.1-1,0.4-1.5l0,0c0.6-1.2,1.4-2.2,2.3-3.1c1.4-1.3,2.9-2.4,4.6-3.2c3.6-1.8,9.4-1.7,9.4-1.7l10.2-0.4l18-0.6
	c0,0,2.7,0.3,3.4,1.3c0.7,1.1,0.6,4.4,0.6,4.4c-1.9,2.9-4.6,5.2-7.6,6.8l-8.7,3.2l-0.9,13.8l4,71.2c-0.4,0.6-1.1,1-1.8,1.2l-1.4,0.3
	l1.3,3.3c0,0,1.3,0.2,1.7,1.3c0.3,1.1,1,7.9,1,7.9h4c0,0,1.1,0.6,1.3,0.9c0.1,0.2,0.3,0.3,0.6,0.4h9.5L178.6,382.8z"/>
<path class="st0" d="M320.2,24.7c6.8,6.4,11.3,16.9,16,31.3c0,0,5.8,17.3,11.8,27.3l0,0c0.6,1,1.2,2,1.8,2.8
	c1.6,2.2,3.4,4.4,5.4,6.3l0.2,0.2l0.2,0.2c4.8,4.7,10,9.1,15.4,13c0,0,32.7,20.6,6,61.9c0,0-0.3,0.5-0.7,1.4
	c-1.7,3.6-6,14.4-7.8,33.2v0c-0.6,6.2-0.8,12.5-0.8,18.7v0.1c0,1.4,0,2.7,0.1,4.2c0,0,0.2,3.3,0.5,8.1v0.1
	c0.6,10.7,1.6,28.5,1.8,32.7c0.4,6,4.4,17.7,1.5,31.3c-2.9,13.6-6.5,16.9-15.2,26.9c0,0,0.2,1.6-12.8,0c-0.2,0-0.5-0.1-0.8-0.1
	c-0.1,0-0.2,0-0.2,0h-0.1c-8.3-0.7-38.9-0.7-68.4-0.5h-0.9h-3c-25.9,0.2-50.4,0.4-57.6,0.5h-0.1h-2.1l-0.4,0.1l0,0l-0.2,0.1h0
	l-0.2,0.1c-2,0.6-7,1.7-10.8,0.4c-4.9-1.6-19.5-11.6-19.6-41.4s3.2-50.9,3.2-50.9c1.4-8.9,1.7-17.9,1-26.9c0,0,0,0,0-0.1
	c-0.4-5-1.3-10-2.7-14.9c-1.1-3.7-2.1-7.1-3.1-10.1c0,0,0,0,0,0c-1.1-3.4-2.2-6.4-3.1-9l0,0c-2.8-7.5-4.8-11.8-5.3-13.4
	c-0.8-2.8-4-12-2.6-23.5c1.1-9,9.1-21,15.8-27.8l0.1,0l0.1-0.1c1.5-1.6,3.2-3,5-4.2c0,0,0.6-0.5,1.7-1.5l0.2-0.2
	c2.7-2.4,5.2-4.9,7.6-7.6l0.7-0.8c2.3-2.6,4.4-5.3,6.3-8.1c0,0,0-0.1,0.1-0.1c4.2-6.2,7.9-13.7,9-21.7c1.5-11,8.1-24.6,18.4-35.4
	c7.8-9.7,21.3-14.9,21.3-14.9c6.3-2.6,13.5-2.7,20.9-2.8c14.8-0.1,17.7,0.4,25.3,2.6C298.8,12.6,308.7,13.9,320.2,24.7z"/>
<path class="st0" d="M273.2,324c0,0-62.8,0.6-63.5,0.8c-0.7,0.2-0.6,0.2-4.4,3.9c-3.9,3.7-7.5,0.8-10.8,2.5
	c-3.3,1.7-7.4,7.5-8.5,14.5c-1.1,6.9,0,30.7,0,30.7s-1.4,16,22.1,14.5c23.6-1.5,71.7,0.1,71.7,0.1s41-0.5,64.5,0.9
	c23.6,1.5,22.1-14.5,22.1-14.5s1.1-23.8,0-30.7c-1.1-6.9-5.1-12.8-8.5-14.5c-3.3-1.7-6.9,1.2-10.8-2.5c-3.9-3.7-3.6-5-4.3-5.2
	S273.2,324,273.2,324z"/>
<path class="st0" d="M361.4,388.9c0,0,7.4,2,12.1-4.4c4.7-6.4,13.5-18,17.4-32.4c3.9-14.2,4.7-20.2,3.4-27.1c0-0.2-0.1-0.4-0.1-0.6
	c0-1-0.3-4.5-1.6-6.6c-0.9-1.5-2.3-2.7-4-3.2c-1.4-0.5-3-0.6-4.5-0.2c-0.1,0-0.2,0.1-0.4,0.1c0,0,3,0.6,4.3,2.1
	c1.3,1.5,3.8,4.7,1.9,13.5c-1.9,9-8.3,23-17.4,39.4c0,0-4.4,8.2-5.7,9.5C367,379.1,366.2,385.2,361.4,388.9z"/>
<path class="st0" d="M348.4,329.8c0,0,3.3-4.2,12.4-2.8c3.3-2,6.3-4.4,9.1-7c3.4-3.5,8.8-5.5,11.6-5.4c2.9,0.2,10.7,1.3,8.7,14
	c-2,12.6-13.5,33.1-13.5,33.1l-9.8,17.4c0,0,0.8-22.6,0.4-26.8c-0.5-4.2-0.4-13.5-8-19.6c0,0-0.9-1-5.1-1.1
	C349.7,331.5,348.4,329.8,348.4,329.8z"/>
<path class="st0" d="M191.3,387.2c0,0-7.4,2-12.1-4.4s-13.5-18-17.4-32.4c-3.9-14.2-4.7-20.2-3.4-27.1c0-0.2,0.1-0.4,0.1-0.6
	c0-1,0.3-4.5,1.6-6.6c0.9-1.5,2.3-2.7,4-3.2c1.4-0.5,3-0.6,4.5-0.2c0.1,0,0.2,0.1,0.4,0.1c0,0-3,0.6-4.3,2.1
	c-1.3,1.5-3.8,4.7-1.9,13.5c1.9,9,8.3,23,17.4,39.4c0,0,4.4,8.2,5.7,9.5C185.7,377.5,186.5,383.5,191.3,387.2z"/>
<path class="st0" d="M204.3,328.1c0,0-3.3-4.2-12.4-2.8c-3.3-2-6.3-4.4-9.1-7c-3.4-3.5-8.8-5.5-11.6-5.4c-2.9,0.2-10.7,1.3-8.7,14
	c2,12.6,13.5,33.1,13.5,33.1l9.8,17.4c0,0-0.8-22.6-0.4-26.8c0.5-4.2,0.4-13.5,8-19.6c0,0,0.9-1,5.1-1.1
	C203.1,329.8,204.3,328.1,204.3,328.1z"/>
<g id="Almofada_lombar_4_">
	<path class="st17" d="M216.4,247.7c6.2-0.4,12.5-0.4,18.7,0c10.6,0.7,78.6,0.6,80.9,0s16-0.4,19.5-0.4c3.5,0,7.1,11.6,7.7,22.3
		c0.6,10.6,0.4,40.7-5.8,46.2c-6.2,5.6-49.5,3.6-49.5,3.6l-20.6-0.3c0,0-49.9-0.8-54.7-3.7c-4.8-2.9-6.1-30.2-6.1-30.2
		s-1.3-21.8,2.3-29.7C212.4,247.7,216.4,247.7,216.4,247.7z"/>
</g>
<g id="Meanismo_6_">
	<polyline class="st0" points="181.1,404.1 190.6,391.3 192.6,391.5 	"/>
	<path class="st0" d="M196.8,390.4l-1.2,2.3c0,0,1,0.5,1.2,1.1c0.2,4.6-0.1,9.1-0.8,13.7c-1,6.7-2.8,6.4-5.4,6.3
		c-0.9-0.5-1.9-0.6-3-0.5c-1.2,0.1-2.3-0.4-3.1-1.3c-0.7-0.7-1.6-1.2-2.5-1.5c-1.5-0.4-2-2.9-2-2.9s-0.8-1.9,3.3-6.4l7.1-8.3
		c0,0,0.2-1.4,0.5-1.4c0.2,0,1.8,0.2,1.8,0.2l1.2-2.7C193.9,388.9,193.7,389.3,196.8,390.4z"/>
	<path class="st0" d="M191.7,394.2c-0.4-0.1-0.7,0-1,0.3l-8.1,10.2c0,0-2.1,2.5,0.8,4.2c0.5,0.3,0.9,0.5,1.4,0.8
		c0.4,0.3,0.7,0.6,1,1c0,0,0.1,0.3,1.4,0.5c1.2,0.2,2.4,0.5,3.5,0.9c0.5,0.3,2.3-0.3,2.5-0.6c0.2-0.3,0.7-0.7,1.2-5
		c0.4-3.7,0.8-8.7,0.9-10.2c0-0.4-0.1-0.7-0.4-0.9c-0.1-0.1-0.3-0.2-0.5-0.3C193.5,394.9,192.6,394.5,191.7,394.2z"/>
	<path class="st0" d="M195,400.3c-0.1,0.9-0.6,1.8-1.3,2.4c-1.2,1-3,1.3-4.4,0.6c-1.1-0.4-1.9-1.4-2-2.5c-0.1-0.8,0.1-1.6,0.5-2.3
		l0.4-0.7"/>
	<path class="st0" d="M192.7,392c0,0-0.5,1.3,0.5,1.6s1.6,0.6,2.2-0.3"/>
</g>
<polygon class="st17" points="178.6,382.8 161.6,382.8 161.6,380.9 177.4,381 "/>
<path class="st17" d="M165.2,377.3h9.9l2.2,3.5h-15.2c0,0,2.3-0.8,2.9-1.8C165.4,378.6,165.5,377.9,165.2,377.3z"/>
<path class="st17" d="M161.6,380.9c4.7-1.4,3.8-2.8,3.6-3.5c-0.1-0.7-1.4-1.3-1.4-1.3h-4c0,0,1,2.2-3.7,3.5l-1.7,0.7l6.7-0.1
	L161.6,380.9z"/>
<path class="st17" d="M161.2,380.1c0,0,3.2-0.8,3.8-3.2"/>
<path class="st17" d="M165,382.8c0,0,0.5,1.3-0.3,1.8l-3.2,0.1c-0.8,0.1-1.6,0.1-2.3,0.1c-0.7,1.2-1.9,1.9-3.3,1.9
	c-2.4,0.1-7.5,0-7.5,0s-1.2-0.8-1.3-1.6h10.3l1.7-0.3"/>
<path class="st17" d="M147,370.3v14.8c0,0-0.3,0.1-0.9-0.9v-14.5C146.3,370,146.6,370.2,147,370.3z"/>
<path class="st17" d="M159.8,376.1l-0.8-7.9l-0.2-0.2c0,0,0,1.7-3,2.3c-3,0.6-8,0.4-8.9,0c0,0-0.8-0.4-0.8-1c0.4-0.7,1-1.3,1.8-1.6
	c0,0-0.4,1.4,0.3,1.8c0.4,0.2,0.9,0.3,1.4,0.3l4.3-0.2c0.6,0,1.3-0.2,1.8-0.4c0.7-0.2,1.3-0.8,1.5-1.5c0-0.3,0-0.5-0.1-0.7
	c0.7,0,1.4,0.5,1.7,1.1"/>
<path class="st17" d="M172.3,267.1c0,0-11.2,5.8-12.7,6.2s-36,0.9-36,0.9"/>
<path class="st17" d="M171.1,262.2l-12.9,5.6c-0.7,0.3-1.4,0.5-2.1,0.5l-31.3,0.8"/>
<g id="Braço_direito_3_">
	<path class="st17" d="M389.3,268.1c0,0,16.7,9,18.2,9.4c2.9,0.8,30.2,0.8,30.2,0.8"/>
	<path class="st17" d="M390.2,263.7l14.2,7.5c1.5,0.5,3.1,0.8,4.6,1l28.1,1.7"/>
	<polygon class="st17" points="374.7,383.5 391.7,384.6 391.9,382.7 376.1,381.7 	"/>
	<path class="st17" d="M388.5,378.9l-9.9-0.7l-2.5,3.3l15.7,1.1c0,0-2.7-1-3.3-2C388.2,380.1,388.2,379.5,388.5,378.9z"/>
	<path class="st17" d="M391.9,382.7c-4.6-1.7-3.6-3-3.4-3.8c0.2-0.7,1.5-1.2,1.5-1.2l4,0.3c0,0-1.2,2.1,3.5,3.7l1.6,0.8l-6.7-0.6
		L391.9,382.7z"/>
	<path class="st17" d="M392.3,381.9c0,0-3.1-1.1-3.5-3.5"/>
	<path class="st17" d="M388.4,384.4c0,0-0.5,1.2,0.2,1.8l3.2,0.3c0.8,0.2,1.5,0.2,2.3,0.2c0.6,1.2,1.8,2,3.2,2.1
		c2.4,0.3,7.5,0.5,7.5,0.5s1.2-0.7,1.4-1.5l-10.2-0.7l-1.7-0.4"/>
	<path class="st17" d="M407.4,373.1l-1.3,14.8c0,0,0.3,0.2,1-1.4l0.9-13.9V372C408.1,372,408,373,407.4,373.1z"/>
	<path class="st17" d="M394,378l1.4-7.8l0.2-0.2c0,0-0.1,1.7,2.9,2.5c3,0.8,7.9,1,8.9,0.6"/>
	<path class="st17" d="M408.1,372.1c-0.4-0.7-1-1.3-1.7-1.7c0,0,0.3,1.4-0.4,1.8c-0.5,0.2-1,0.3-1.5,0.2l-4.3-0.5
		c-0.6-0.1-1.3-0.3-1.8-0.6c-0.7-0.3-1.2-0.9-1.4-1.6c0-0.3,0-0.5,0.2-0.7c-0.7,0-1.4,0.4-1.7,1"/>
	<polyline class="st17" points="423.1,280.9 409,280.1 407.8,295 399.5,365.5 400.9,365.9 398.1,365.1 	"/>
</g>
<polyline class="st17" points="137.7,277.6 151.5,277.3 151.8,292.3 155.8,363.6 154.4,363.9 157.3,363.3 "/>
<line class="st17" x1="404.6" y1="279.1" x2="409" y2="280.1"/>
<line class="st48" x1="168.5" y1="135.8" x2="384.9" y2="135.8"/>
<line class="st48" x1="166.5" y1="141.5" x2="166.5" y2="130.6"/>
<polygon class="st40" points="166.8,136 176.9,141.5 176.9,130.6 "/>
<line class="st48" x1="387.6" y1="140.7" x2="387.6" y2="129.8"/>
<polygon class="st40" points="387.3,135.3 377.2,140.7 377.2,129.8 "/>
<polygon class="st40" points="344.7,191.2 333.8,196.6 333.8,185.7 "/>
<line class="st53" x1="170.5" y1="240.7" x2="387.3" y2="240.7"/>
<line class="st54" x1="168.2" y1="265.9" x2="168.2" y2="237.5"/>
<polygon class="st40" points="168.4,241 178.3,246.5 178.3,235.6 "/>
<polyline class="st54" points="394.9,247.9 394.9,234.2 394.9,237.9 394.9,266.3 "/>
<polygon class="st40" points="394.6,239.6 384.7,245.1 384.7,234.2 "/>
<line class="st159" x1="187.5" y1="287.3" x2="371.9" y2="287.3"/>
<line class="st160" x1="179.3" y1="292.8" x2="179.3" y2="281.9"/>
<polygon class="st40" points="179.6,287.3 189.3,292.8 189.3,281.9 "/>
<polyline class="st161" points="372.7,286.5 372.7,281.9 372.7,283.1 372.7,292.8 "/>
<polygon class="st40" points="373.4,287.3 363.7,292.8 363.7,281.9 "/>
<line class="st162" x1="163.9" y1="321.8" x2="392.1" y2="321.8"/>
<line class="st163" x1="159.4" y1="327.2" x2="159.4" y2="316.3"/>
<polygon class="st40" points="159.4,321.8 169.8,327.2 169.8,316.3 "/>
<polyline class="st164" points="393.8,321 393.8,316.3 393.8,317.6 393.8,327.2 "/>
<polygon class="st40" points="393.8,321.8 383.4,327.2 383.4,316.3 "/>
<line class="st50" x1="191.4" y1="349.5" x2="354.7" y2="349.5"/>
<polygon class="st40" points="186.5,349.5 198.9,354.9 198.9,344.1 "/>
<line class="st51" x1="366.6" y1="354.9" x2="366.6" y2="344.1"/>
<line class="st51" x1="186" y1="354.9" x2="186" y2="344"/>
<polygon class="st40" points="366.1,349.5 352.7,354.9 352.7,344.1 "/>
<rect x="263.2" y="233.5" class="st5" width="33.9" height="12.4"/>
<text transform="matrix(1 0 0 1 264.5934 243.6384)" class="st40 st198 st199">53cm</text>
<rect x="259.1" y="316.7" class="st5" width="36.5" height="14"/>
<rect x="264.6" y="342.5" class="st5" width="34.9" height="14"/>
<text transform="matrix(0.94 0 0 1 261.966 327.2057)" class="st40 st198 st199">54cm</text>
<text transform="matrix(0.94 0 0 1 267.1135 353.2116)" class="st40 st198 st199">40cm</text>
<rect x="262.6" y="279.5" class="st5" width="34.8" height="14"/>
<text transform="matrix(0.94 0 0 1 264.9108 290.3434)" class="st40 st198 st199">49cm</text>
<rect x="260.1" y="125.2" class="st5" width="33.4" height="13.7"/>
<text transform="matrix(1 0 0 1 262.6579 138.1618)" class="st40 st198 st199">57cm</text>
<g id="linhas_meio_4_">
	<polyline class="st17" points="228.8,233.4 274.7,211.6 327.9,232.8 	"/>
	<polyline class="st17" points="228.8,190.8 274.7,173.3 327.5,190.4 	"/>
	<polyline class="st17" points="210.5,158.6 274.3,136.3 344.4,158.6 	"/>
</g>
<path class="st17" d="M228.8,95.8L228.8,95.8l-2.9,6.5c-1.5,3.4-2.1,6.7,0,9.9c0.3,0.5,0.7,1,1.2,1.4"/>
<path class="st17" d="M317.9,79.2c0.3,0.5,0.5,1.1,0.7,1.7l9.5,21.4c1.5,3.4,2.1,6.7,0,9.9c-2.1,3.3-6.3,3.8-6.3,3.8l-2.2-0.1"/>
<path class="st17" d="M208,78.1c2.8,5.2,4.8,15.4,5,16.8c0.2,1.5-0.8,16.5-1,18.6s-1.4,25.1-1.4,25.1v39.3l1.4,30.7v42.8"/>
<path class="st17" d="M346.6,81c-2.8,5.2-3.2,11.9-3.4,13.3c-0.2,1.4,0.8,16.5,1,18.6c0.2,2.1,1.4,25.1,1.4,25.1v39.4l-1.4,30.7
	v68.6l-2.7,36.9v10.8"/>
<path class="st17" d="M234.4,389.3c0,0-6-10.4-7.3-15.8c-1.3-5.4-4.4-24.2-4.4-24.2s-1.9-12.2-7.9-14.4c-4.1-1.5-8.3-2.7-12.5-3.7
	l5.1-3.5c0,0,7.4,2.4,11,3.2c3.5,0.8,9.4,3.1,11.3,10.1c1.9,7,4.4,14.3,7.3,27.8c2.9,13.5,4.5,16.4,6,19.3c0.6,1.2,1,1.3,1,1.3
	L234.4,389.3z"/>
<path class="st17" d="M317,390.2c0,0,6-10.7,7.3-16.2c1.3-5.5,4.4-24.9,4.4-24.9s1.9-12.5,7.9-14.8c4.1-1.5,8.3-2.8,12.5-3.8
	l-5.1-3.6c0,0-7.4,2.4-11,3.3c-3.6,0.8-9.4,3.1-11.3,10.3c-1.9,7.2-4.4,14.7-7.3,28.6c-2.9,13.9-4.5,16.9-6,19.8
	c-0.6,1.2-1,1.4-1,1.4L317,390.2z"/>
<g id="Almofada_cabeça_6_">
	<path class="st17" d="M290.3,70.2c-5.2,0.7-10.4,0.9-15.6,0.8l-3,0.1c0,0-2.5,0.1-6.7-0.1l0,0c-2.9-0.1-6.6-0.4-10.7-1
		c-4.6-0.6-9.1-1.5-13.5-2.7c-3.4-0.9-6.8-2.1-10.1-3.5c0,0-8.3-3.8-2.9,10c0,0,1.7,7.7,1,21.9l0,0c-0.2,4.7-0.7,10.2-1.5,16.3
		c0,0-0.1,0.6-0.2,1.5c-0.2,1.3-0.4,3.2-0.5,4.2c-0.1,1.8-2.9,8.3,7.9,4.2c3.8-1.3,7.6-2.3,11.5-3c2.2-0.4,4.4-0.8,6.6-1.2
		c9.8-1.6,19-2.5,19-2.5l3-0.1c0,0,7.9,0.8,16.9,2.1c2.1,0.3,4.3,0.7,6.4,1.1c4.7,0.8,9.3,1.9,13.8,3.5c10.8,4.2,8-2.4,7.9-4.2
		c0-0.5-0.1-1.1-0.2-1.8c-0.2-1.8-0.5-4-0.5-4l-0.2-1.7c-0.8-6-1.3-12-1.4-18.1c-0.1-4.3,0-8.7,0.4-13c0.1-1.8,0.4-3.6,0.7-5.4
		c5.4-13.8-2.9-10-2.9-10c-2.2,0.9-4.5,1.8-6.7,2.5c-1.9,0.6-3.8,1.1-5.7,1.6c-2.3,0.6-4.6,1-6.8,1.4L290.3,70.2z"/>
	<path class="st17" d="M240.8,67.4c0,0,3.3,30.2,11.9,50.4"/>
	<path class="st17" d="M294.7,117.8c8.6-20.2,12-50.9,12-50.9"/>
</g>
<path class="st17" d="M211.9,113.5c0,0-18.3,5-21,22.3c-2.7,17.3,19.2,55.8,19.2,55.8"/>
<path class="st17" d="M344.4,116.1c0,0,25.5,7.3,25.3,25.4c-0.2,15-24.7,49.3-24.7,49.3"/>
<path class="st17" d="M210.5,173.2c0,0,18.4,3.2,18.4,17.5c0,9-1.3,57.7-1.3,57.7"/>
<path class="st17" d="M345.4,176.4c0,0-18.4,3.2-18.4,17.5c0,9,1.2,53.4,1.2,53.4"/>
<path class="st0" d="M227.6,247.4c0,0,4.2,60.7,18.7,71.2"/>
<path class="st0" d="M320.3,247.4c0,0-2.3,60.4-16.9,72.4"/>
<line class="st49" x1="213.4" y1="191" x2="341.6" y2="191"/>
<polygon class="st40" points="212.1,191.6 223,197 223,186.1 "/>
<line class="st49" x1="344" y1="197" x2="344" y2="186.1"/>
<line class="st49" x1="211.7" y1="197" x2="211.7" y2="186.1"/>
<g>
	<polygon class="st5" points="295.3,196.7 260.5,197.1 260.5,184.5 295.3,186.7 	"/>
	<text transform="matrix(1 0 0 1 261.9655 194.4216)" class="st40 st198 st199">34cm</text>
</g>
</svg>
