<svg xmlns="http://www.w3.org/2000/svg" viewBox="0 0 318.28 352.07"><defs><style>.cls-1,.cls-10,.cls-2,.cls-3,.cls-4,.cls-5,.cls-6,.cls-7,.cls-8,.cls-9{fill:#fff;}.cls-1,.cls-10,.cls-12,.cls-2,.cls-3,.cls-4,.cls-5,.cls-6,.cls-7,.cls-8,.cls-9{stroke:#686868;}.cls-1,.cls-10,.cls-12,.cls-14,.cls-15,.cls-17,.cls-2,.cls-3,.cls-4,.cls-5,.cls-6,.cls-7,.cls-8,.cls-9{stroke-miterlimit:10;}.cls-1,.cls-12{stroke-width:2.16px;}.cls-2{stroke-width:0.73px;}.cls-3{stroke-width:0.73px;}.cls-4{stroke-width:0.73px;}.cls-5{stroke-width:0.6px;}.cls-6{stroke-width:0.43px;}.cls-7{stroke-width:0.45px;}.cls-8{stroke-width:0.43px;}.cls-9{stroke-width:0.51px;}.cls-10{stroke-width:0.42px;}.cls-11{fill:#686868;opacity:0.5;}.cls-12,.cls-14,.cls-15,.cls-17{fill:none;}.cls-13{font-size:15px;font-family:MyriadPro-Regular, Myriad Pro;}.cls-13,.cls-16{fill:#b5221d;}.cls-14,.cls-15,.cls-17{stroke:#b5221d;}.cls-14{stroke-width:1.48px;}.cls-15{stroke-width:1.5px;}.cls-17{stroke-width:1.62px;}</style></defs><title>Ativo 3</title><g id="Camada_2" data-name="Camada 2"><g id="Camada_1-2" data-name="Camada 1"><rect class="cls-1" x="7" y="1.08" width="261.95" height="309.56"/><rect class="cls-2" x="16.89" y="23.31" width="240.44" height="275.71"/><rect class="cls-3" x="16.89" y="243.94" width="232.82" height="55.09"/><rect class="cls-4" x="32.39" y="66.33" width="110.42" height="80.87" rx="8.72" ry="8.72"/><rect class="cls-4" x="32.39" y="159.07" width="110.42" height="64.89" rx="7.81" ry="7.81"/><rect class="cls-4" x="189.23" y="110.1" width="53.39" height="27.06" rx="3" ry="3"/><rect class="cls-5" x="189.23" y="147.93" width="53.39" height="18.16" rx="2.45" ry="2.45"/><rect class="cls-5" x="189.23" y="82.19" width="53.39" height="18.16" rx="2.45" ry="2.45"/><rect class="cls-6" x="97.16" y="41.63" width="38.23" height="13.44" rx="1.79" ry="1.79"/><rect class="cls-6" x="148.36" y="101.25" width="38.23" height="13.44" rx="1.79" ry="1.79" transform="translate(59.5 275.44) rotate(-90)"/><rect class="cls-6" x="148.36" y="191.23" width="38.23" height="13.44" rx="1.79" ry="1.79" transform="translate(-30.48 365.42) rotate(-90)"/><rect class="cls-7" x="103.02" y="179.1" width="29.44" height="18.89" rx="4.12" ry="4.12" transform="translate(-70.8 306.28) rotate(-90)"/><rect class="cls-8" x="194.14" y="38.24" width="37.05" height="13.44" rx="1.76" ry="1.76"/><rect class="cls-8" x="194.14" y="84.73" width="37.05" height="13.44" rx="1.76" ry="1.76"/><rect class="cls-8" x="194.14" y="150.29" width="37.05" height="13.44" rx="1.76" ry="1.76"/><rect class="cls-8" x="194.14" y="216.74" width="37.05" height="13.44" rx="1.76" ry="1.76"/><rect class="cls-6" x="182.47" y="102.77" width="11" height="4.66" rx="2.08" ry="2.08"/><rect class="cls-6" x="228.84" y="102.77" width="11" height="4.66" rx="2.08" ry="2.08"/><rect class="cls-6" x="182.47" y="139.58" width="11" height="4.66" rx="2.08" ry="2.08"/><rect class="cls-6" x="228.84" y="139.58" width="11" height="4.66" rx="2.08" ry="2.08"/><rect class="cls-6" x="182.47" y="169.16" width="11" height="4.66" rx="2.08" ry="2.08"/><rect class="cls-6" x="228.84" y="169.16" width="11" height="4.66" rx="2.08" ry="2.08"/><rect class="cls-6" x="182.47" y="205.97" width="11" height="4.66" rx="2.08" ry="2.08"/><rect class="cls-6" x="228.84" y="205.97" width="11" height="4.66" rx="2.08" ry="2.08"/><rect class="cls-6" x="31.9" y="41.63" width="38.23" height="13.44" rx="1.79" ry="1.79"/><rect class="cls-5" x="189.23" y="214.16" width="53.39" height="18.16" rx="2.45" ry="2.45"/><rect class="cls-4" x="189.23" y="177.02" width="53.39" height="27.06" rx="3" ry="3"/><rect class="cls-1" x="43.22" y="310.64" width="24.61" height="10.48" rx="2.04" ry="2.04"/><rect class="cls-1" x="210.48" y="310.64" width="24.61" height="10.48" rx="2.04" ry="2.04"/><line class="cls-4" x1="7" y1="13.3" x2="268.96" y2="13.3"/><rect class="cls-6" x="79.54" y="47.44" width="8.05" height="4.54"/><rect class="cls-6" x="145.16" y="47.44" width="8.05" height="4.54"/><rect class="cls-6" x="79.54" y="226.53" width="8.05" height="4.54"/><rect class="cls-6" x="145.16" y="226.53" width="8.05" height="4.54"/><rect class="cls-6" x="157.94" y="73.96" width="8.05" height="4.54" transform="translate(85.73 238.19) rotate(-90)"/><rect class="cls-6" x="169.38" y="73.96" width="8.05" height="4.54" transform="translate(97.18 249.63) rotate(-90)"/><rect class="cls-6" x="157.94" y="162.92" width="8.05" height="4.54" transform="translate(-3.23 327.16) rotate(-90)"/><rect class="cls-6" x="169.38" y="162.92" width="8.05" height="4.54" transform="translate(8.21 338.6) rotate(-90)"/><rect class="cls-6" x="180.27" y="87.76" width="8.05" height="4.54" transform="translate(94.27 274.33) rotate(-90)"/><rect class="cls-6" x="180.27" y="154.43" width="8.05" height="4.54" transform="translate(27.6 341) rotate(-90)"/><rect class="cls-6" x="180.27" y="221.19" width="8.05" height="4.54" transform="translate(-39.16 407.76) rotate(-90)"/><rect class="cls-6" x="21.79" y="51.47" width="8.05" height="4.54" transform="translate(-27.92 79.56) rotate(-90)"/><rect class="cls-6" x="21.79" y="140.91" width="8.05" height="4.54" transform="translate(-117.36 169) rotate(-90)"/><line class="cls-4" x1="179.49" y1="23.31" x2="179.49" y2="243.94"/><path class="cls-4" d="M257.33,39.63H239.81s-5.81.45-5.81,6V61.79s.64,4.72,5.36,4.72h10.26V243.3"/><path class="cls-9" d="M257.33,42.9H242.26s-3.31,0-3.31,4.8V59.25s-.32,4.59,2.91,4.59c2.36,0,11.62-.09,11.62-.09V277.17a3.63,3.63,0,0,0,3.86,3.57"/><path class="cls-10" d="M255.38,53.92H242.32a1.11,1.11,0,0,1-1.09-1.12h0a1.11,1.11,0,0,1,1.09-1.12h13.06Z"/><path class="cls-10" d="M255.38,61.21H242.32a1.11,1.11,0,0,1-1.09-1.12h0A1.11,1.11,0,0,1,242.32,59h13.06Z"/><rect class="cls-10" x="203.46" y="122.63" width="26.15" height="3.03" rx="1.51" ry="1.51"/><rect class="cls-10" x="203.46" y="194.92" width="26.15" height="3.03" rx="1.51" ry="1.51"/><rect class="cls-8" x="197.95" y="75.5" width="46.4" height="4.75" rx="0.86" ry="0.86"/><rect class="cls-8" x="190.59" y="61.79" width="14.26" height="2.09" rx="1.04" ry="1.04"/><rect class="cls-8" x="162.13" y="17.26" width="14.26" height="2.09" rx="1.04" ry="1.04"/><rect class="cls-8" x="100.56" y="17.26" width="14.26" height="2.09" rx="1.04" ry="1.04"/><rect class="cls-8" x="39" y="17.26" width="14.26" height="2.09" rx="1.04" ry="1.04"/><rect class="cls-8" x="223.21" y="17.26" width="14.26" height="2.09" rx="1.04" ry="1.04"/><rect class="cls-8" x="223.21" y="306.82" width="14.26" height="2.09" rx="1.04" ry="1.04"/><rect class="cls-8" x="190.59" y="68.64" width="14.26" height="2.09" rx="1.04" ry="1.04"/><path class="cls-8" d="M234,55.61H193.47s-4.24-.76-4.24,4.48v9.23S189,74,192.5,74h57.11"/><rect class="cls-8" x="160.43" y="306.82" width="14.26" height="2.09" rx="1.04" ry="1.04"/><rect class="cls-8" x="98.87" y="306.82" width="14.26" height="2.09" rx="1.04" ry="1.04"/><rect class="cls-8" x="37.31" y="306.82" width="14.26" height="2.09" rx="1.04" ry="1.04"/><path class="cls-8" d="M222.56,308.91"/><path class="cls-8" d="M234.72,308.91"/><circle class="cls-8" cx="39.04" cy="59.06" r="1.48"/><circle class="cls-8" cx="23.88" cy="17.26" r="1.48"/><circle class="cls-8" cx="16.57" cy="19.93" r="1.48"/><circle class="cls-8" cx="13.02" cy="23.5" r="1.48"/><circle class="cls-8" cx="252.77" cy="17.26" r="1.48"/><circle class="cls-8" cx="23.88" cy="306.27" r="1.48"/><circle class="cls-8" cx="252.77" cy="306.27" r="1.48"/><circle class="cls-8" cx="117.76" cy="59.06" r="1.48"/><circle class="cls-8" cx="161.17" cy="59.06" r="1.48"/><circle class="cls-8" cx="117.76" cy="154.16" r="1.48"/><circle class="cls-8" cx="24.34" cy="154.16" r="1.48"/><circle class="cls-8" cx="24.34" cy="228.8" r="1.48"/><circle class="cls-8" cx="161.17" cy="154.16" r="1.48"/><circle class="cls-8" cx="117.76" cy="228.8" r="1.48"/><circle class="cls-8" cx="161.17" cy="228.8" r="1.48"/><path class="cls-7" d="M61,278.58V264.32H62L71.21,275V264.32H73v14.26h-.9l-9.29-10.66v10.66Z"/><path class="cls-7" d="M88.64,264.32a7.49,7.49,0,0,1,5.43,2,6.88,6.88,0,0,1,2.06,5.18,6.8,6.8,0,0,1-2,5.16,7.58,7.58,0,0,1-5.47,1.94H82.53V264.32Zm0,1.64H84.3v11h4.34a5.67,5.67,0,0,0,4.15-1.48,6,6,0,0,0,0-8A5.62,5.62,0,0,0,88.64,266Z"/><path class="cls-7" d="M104.46,278.58V264.32h8.18a4.78,4.78,0,0,1,3.28,1.05,3.69,3.69,0,0,1,1.19,2.91,4,4,0,0,1-3.39,4l3.57,6.27h-2l-3.57-6.24h-5.53v6.24Zm1.77-7.91h6.29a3,3,0,0,0,2-.59,2.17,2.17,0,0,0,.69-1.74,2.24,2.24,0,0,0-.69-1.75,2.79,2.79,0,0,0-1.94-.63h-6.38Z"/><path class="cls-7" d="M131.88,279a7.12,7.12,0,0,1-5.29-2.11,7.92,7.92,0,0,1,0-10.72,7.69,7.69,0,0,1,10.59,0,7.88,7.88,0,0,1,0,10.72A7.18,7.18,0,0,1,131.88,279Zm0-1.67a5.28,5.28,0,0,0,4-1.64,6.3,6.3,0,0,0,0-8.33,5.65,5.65,0,0,0-8,0,6.29,6.29,0,0,0,0,8.33A5.28,5.28,0,0,0,131.88,277.29Z"/><path class="cls-7" d="M147.62,278.58V264.32h1.64l5.76,8.73,5.8-8.73h1.62v14.26h-1.76V267.44L155,275.88l-5.66-8.44v11.14Z"/><path class="cls-7" d="M171.9,278.58V264.32h11.21V266h-9.44v4.19h9.44v1.64h-9.44v5.16h9.44v1.64Z"/><path class="cls-7" d="M197.75,264.32a7.49,7.49,0,0,1,5.43,2,6.88,6.88,0,0,1,2.06,5.18,6.8,6.8,0,0,1-2,5.16,7.58,7.58,0,0,1-5.47,1.94h-6.11V264.32Zm0,1.64h-4.34v11h4.34a5.67,5.67,0,0,0,4.15-1.48,6,6,0,0,0,0-8A5.62,5.62,0,0,0,197.75,266Z"/><polygon class="cls-7" points="46.49 264.32 45.02 264.32 38.03 278.58 39.93 278.58 45.76 266.76 51.64 278.58 53.56 278.58 46.49 264.32"/><polygon class="cls-7" points="219.5 264.32 218.03 264.32 211.04 278.58 212.94 278.58 218.77 266.76 224.65 278.58 226.57 278.58 219.5 264.32"/><polyline class="cls-4" points="7 141.91 0.36 141.91 0.36 231.07 7.81 231.07"/><polyline class="cls-4" points="268.96 5.13 275.13 1.08 276.04 7.43 276.04 318.4 274.71 318.88 263.57 311.01"/><path class="cls-4" d="M276,15.39h3a8.43,8.43,0,0,1,0,7.22h-3"/><path class="cls-4" d="M276,301.92h3a8.43,8.43,0,0,1,0,7.22h-3"/><path class="cls-4" d="M10.08,13.3V24.11s0,2.45,2.36,2.45h4.27"/><path class="cls-4" d="M19.6,23.31v-4.2s0-2.45-2.36-2.45H10.08"/><circle class="cls-8" cx="262.44" cy="22.71" r="1.48"/><circle class="cls-8" cx="258.9" cy="19.14" r="1.48"/><path class="cls-4" d="M256,23.31V18.53s0-2.45,2.36-2.45h7.16"/><path class="cls-4" d="M265.47,13.3V23.53s0,2.45-2.36,2.45h-5.93"/><circle class="cls-8" cx="12.72" cy="300.8" r="1.48"/><circle class="cls-8" cx="16.29" cy="304.35" r="1.48"/><path class="cls-4" d="M9.59,307.29H16.9s2.45,0,2.45-2.36V299"/><path class="cls-4" d="M16.68,297.77H11.91s-2.45,0-2.45,2.36v10"/><circle class="cls-8" cx="259.25" cy="304.69" r="1.48"/><circle class="cls-8" cx="262.8" cy="301.12" r="1.48"/><path class="cls-4" d="M265.74,307.82v-7.31s0-2.45-2.36-2.45h-6"/><path class="cls-4" d="M256.22,298.94v6.57s0,2.45,2.36,2.45h10"/><rect class="cls-11" x="7.81" y="1.91" width="260.06" height="307.64"/><line class="cls-12" x1="162.66" y1="32.54" x2="52.65" y2="142.55"/><line class="cls-12" x1="116.86" y1="107.65" x2="6.85" y2="217.66"/><line class="cls-12" x1="158.14" y1="271.43" x2="268.15" y2="161.42"/><line class="cls-12" x1="128.2" y1="272.06" x2="238.21" y2="162.05"/><text class="cls-13" transform="translate(114.61 342.01)">41cm</text><line class="cls-14" x1="9.24" y1="344.99" x2="265.74" y2="344.99"/><line class="cls-15" x1="6.85" y1="352.07" x2="6.85" y2="337.91"/><polygon class="cls-16" points="7.26 344.99 19.52 352.07 19.52 337.91 7.26 344.99"/><line class="cls-15" x1="269.13" y1="352.07" x2="269.13" y2="337.91"/><polygon class="cls-16" points="268.72 344.99 256.46 352.07 256.46 337.91 268.72 344.99"/><text class="cls-13" transform="translate(306.22 178.83) rotate(-90)">48cm</text><line class="cls-17" x1="311.2" y1="316.49" x2="311.2" y2="7.62"/><line class="cls-15" x1="318.28" y1="318.88" x2="304.12" y2="318.88"/><polygon class="cls-16" points="311.2 318.47 318.28 306.21 304.12 306.21 311.2 318.47"/><line class="cls-15" x1="318.28" y1="1.08" x2="304.12" y2="1.08"/><polygon class="cls-16" points="311.2 1.49 318.28 13.75 304.12 13.75 311.2 1.49"/></g></g></svg>