<svg xmlns="http://www.w3.org/2000/svg" viewBox="0 0 140.38 352.07"><defs><style>.cls-1{fill:#fff;stroke-width:2.16px;}.cls-1,.cls-3,.cls-4{stroke:#686868;}.cls-1,.cls-3,.cls-4,.cls-6,.cls-7{stroke-miterlimit:10;}.cls-2{fill:#686868;opacity:0.5;}.cls-3,.cls-4,.cls-6,.cls-7{fill:none;}.cls-3{stroke-width:0.73px;}.cls-4{stroke-width:0.5px;fill-rule:evenodd;}.cls-5{fill:#b5221d;}.cls-6,.cls-7{stroke:#b5221d;}.cls-6{stroke-width:1.05px;}.cls-7{stroke-width:1.5px;}</style></defs><title>Ativo 1_1</title><g id="Camada_2" data-name="Camada 2"><g id="Camada_1-2" data-name="Camada 1"><polygon class="cls-1" points="3.13 8.4 10.56 1.41 132.37 1.08 138.91 8.12 139.29 313.36 132.81 321.01 8.56 321.34 1.08 313.36 3.13 8.4"/><path class="cls-2" d="M138.55,6.49S8.6,321,8.71,321.18s124-.28,124-.28l6.41-7.61Z"/><circle class="cls-3" cx="12.41" cy="18.11" r="3.62"/><circle class="cls-3" cx="129.82" cy="18.11" r="3.62"/><line class="cls-3" x1="11.64" y1="17.26" x2="13.32" y2="18.94"/><line class="cls-3" x1="11.64" y1="18.94" x2="13.32" y2="17.26"/><line class="cls-3" x1="128.99" y1="17.26" x2="130.66" y2="18.94"/><line class="cls-3" x1="128.99" y1="18.94" x2="130.66" y2="17.26"/><circle class="cls-3" cx="10.95" cy="307.71" r="3.62"/><line class="cls-3" x1="10.19" y1="306.95" x2="11.87" y2="308.63"/><line class="cls-3" x1="10.19" y1="308.63" x2="11.87" y2="306.95"/><circle class="cls-3" cx="128.37" cy="307.71" r="3.62"/><line class="cls-3" x1="127.54" y1="306.95" x2="129.21" y2="308.63"/><line class="cls-3" x1="127.54" y1="308.63" x2="129.21" y2="306.95"/><polygon class="cls-4" points="68.51 40.78 70.61 31.75 74.16 31.75 72.06 40.78 68.51 40.78 68.51 40.78"/><path class="cls-4" d="M77.69,31,67,31l.67-2.9c.07-.3.16-.48.47-.48l12.6,0Z"/><path class="cls-4" d="M64.19,40.78H54.8l2.06-9.18h3.31l-1.33,5.91h5L61,30.94H57l.73-3.27H62.2a1.89,1.89,0,0,1,1.91,1.22c.42.88.85,1.76,1.29,2.62A38.23,38.23,0,0,1,67,35.17a6,6,0,0,1,.57,2.89A3.4,3.4,0,0,1,66.31,40,3.33,3.33,0,0,1,64.19,40.78Z"/><path class="cls-4" d="M78.41,31.11l3.45-3.44H88.4a1.14,1.14,0,0,1,1,.58,1.25,1.25,0,0,1,.08,1.15L88.92,31l-10.51.07Zm5.78,9.67H76.74l-1.05-3.09,6.76,0L80.26,34.1l3-2.35,4.5,0-3,2.35c.5.82,1,1.64,1.51,2.47a2.6,2.6,0,0,1,.4,1.74l-.33,1a2.4,2.4,0,0,1-.88,1.16A1.9,1.9,0,0,1,84.19,40.78Z"/><polygon class="cls-4" points="75.97 41.43 79.25 41.43 78.88 43.72 75.61 43.72 75.97 41.43"/><polygon class="cls-4" points="79.7 41.44 82.02 41.44 81.63 43.74 79.31 43.74 79.7 41.44"/><polygon class="cls-4" points="82.4 41.45 84.15 41.45 83.75 43.75 82 43.75 82.4 41.45"/><path class="cls-4" d="M84.53,41.44h1.29a0,0,0,0,1,0,0l-.44,2.27H84.1a0,0,0,0,1,0,0Z"/><polygon class="cls-4" points="86.29 41.45 87.17 41.45 86.68 43.75 85.8 43.75 86.29 41.45"/><polygon class="cls-4" points="87.61 41.45 88.19 41.45 87.72 43.75 87.14 43.75 87.61 41.45"/><path class="cls-4" d="M57.89,41.43h0l-.12.61H55.35l0,.2h2.42l-.29,1.44H54.2l.12-.61h2.42l0-.21H54.36l.29-1.44h3.24Zm.27,0-.45,2.27h.83l.16-.82h2.42l.29-1.44H58.15Zm.67.83,0-.21h1.59l0,.21Zm6.07-.84h0l-.45,2.27H61.2l.45-2.27h3.24ZM62.15,43.1h1.6l.21-1h-1.6l-.21,1Zm3-1.66-.45,2.27h.82l.16-.81.65.37.8.45h.81l.06-.29-1-.53h1.07l.29-1.44H65.16Zm.66.83,0-.21h1.59l0,.21Zm3.9-.19H68.53l.12-.62H71.9l-.12.62H70.59l-.33,1.64h-.87l.33-1.64Zm5.68-.64H72.16l-.29,1.44h2.42l0,.21H71.83l-.12.61H75l.29-1.44H72.82l0-.2h2.42l.12-.61Z"/><path class="cls-5" d="M48.16,342v-.81l1-1c2.49-2.37,3.61-3.63,3.63-5.1a1.74,1.74,0,0,0-1.94-1.9,3.32,3.32,0,0,0-2.07.82l-.42-.93a4.28,4.28,0,0,1,2.76-1,2.74,2.74,0,0,1,3,2.83c0,1.8-1.3,3.25-3.36,5.24l-.78.72v0h4.38V342Z"/><path class="cls-5" d="M62.34,337c0,3.31-1.23,5.14-3.39,5.14-1.9,0-3.19-1.79-3.22-5s1.41-5.07,3.39-5.07S62.34,333.93,62.34,337Zm-5.29.15c0,2.54.78,4,2,4,1.35,0,2-1.58,2-4.07s-.61-4-2-4C57.88,333.12,57,334.53,57,337.18Z"/><path class="cls-5" d="M63.12,343.86a21.56,21.56,0,0,0,.9-3.58l1.47-.15a18.34,18.34,0,0,1-1.43,3.64Z"/><path class="cls-5" d="M72.48,333.37H68.76l-.37,2.5a5.18,5.18,0,0,1,.79-.06,4.13,4.13,0,0,1,2.1.52,2.78,2.78,0,0,1,1.39,2.5A3.38,3.38,0,0,1,69,342.18a4.78,4.78,0,0,1-2.43-.6l.33-1a4.38,4.38,0,0,0,2.08.54A2.15,2.15,0,0,0,71.34,339c0-1.26-.85-2.16-2.8-2.16a9.92,9.92,0,0,0-1.35.11l.63-4.68h4.67Z"/><path class="cls-5" d="M79.94,341.74a4.86,4.86,0,0,1-2.08.42,3.45,3.45,0,0,1-3.61-3.71,3.69,3.69,0,0,1,3.9-3.86A4.42,4.42,0,0,1,80,335l-.3,1a3.07,3.07,0,0,0-1.53-.34,2.74,2.74,0,0,0,0,5.46,3.75,3.75,0,0,0,1.62-.36Z"/><path class="cls-5" d="M81.49,336.72c0-.75,0-1.37-.06-2h1.15l.06,1.17h0A2.5,2.5,0,0,1,85,334.59,2.15,2.15,0,0,1,87,336h0a3,3,0,0,1,.81-.95,2.48,2.48,0,0,1,1.6-.51c1,0,2.39.63,2.39,3.15V342H90.56V337.9c0-1.4-.51-2.24-1.58-2.24a1.71,1.71,0,0,0-1.56,1.2,2.15,2.15,0,0,0-.11.66V342H86v-4.35c0-1.16-.51-2-1.51-2a2,2,0,0,0-1.74,2V342H81.49Z"/><line class="cls-6" x1="11.87" y1="344.99" x2="126.06" y2="344.99"/><line class="cls-7" x1="8.23" y1="352.07" x2="8.23" y2="337.91"/><polygon class="cls-5" points="8.64 344.99 20.91 352.07 20.91 337.91 8.64 344.99"/><line class="cls-7" x1="132.6" y1="352.07" x2="132.6" y2="337.91"/><polygon class="cls-5" points="132.19 344.99 119.93 352.07 119.93 337.91 132.19 344.99"/></g></g></svg>