<svg xmlns="http://www.w3.org/2000/svg" viewBox="0 0 506.81 822.94"><defs><style>.cls-1,.cls-2,.cls-3{fill:#fff;}.cls-1,.cls-2,.cls-3,.cls-4,.cls-5,.cls-6{stroke:#040006;stroke-linecap:round;stroke-linejoin:round;}.cls-1{stroke-width:4.38px;}.cls-2{stroke-width:5px;}.cls-3{stroke-width:1.08px;}.cls-4,.cls-5,.cls-6{fill:none;}.cls-4{stroke-width:1.29px;}.cls-5{stroke-width:1.78px;}.cls-6{stroke-width:1.72px;}</style></defs><title>Andromeda</title><g id="Camada_2" data-name="Camada 2"><g id="Camada_1-2" data-name="Camada 1"><polygon class="cls-1" points="189.15 27.09 183.15 8.71 11.39 159.41 7.72 172.66 2.19 720.16 5.01 729.03 177.5 808.95 185.03 790.56 189.15 27.09"/><polygon class="cls-2" points="216.04 2.5 198.11 20.2 194.21 804.5 208.76 820.44 488.38 785.91 504.31 760.4 503.09 60.58 489.91 40.84 216.04 2.5"/><line class="cls-3" x1="182.63" y1="801.05" x2="194.21" y2="803"/><line class="cls-3" x1="184.24" y1="15.54" x2="212.45" y2="6.04"/><ellipse class="cls-4" cx="6.67" cy="711.92" rx="2.45" ry="6.74"/><path class="cls-4" d="M6.67,705.18h8.65s3.75,7.66,0,13.48H6.67"/><ellipse class="cls-5" cx="152.24" cy="788.96" rx="3.38" ry="9.32"/><path class="cls-5" d="M152.24,779.64h12s5.19,10.59,0,18.63h-12"/><ellipse class="cls-4" cx="14.06" cy="179.4" rx="2.45" ry="6.74"/><path class="cls-4" d="M14.06,172.66h8.65s3.75,7.66,0,13.48H14.06"/><ellipse class="cls-5" cx="157.76" cy="56.19" rx="3.38" ry="9.32"/><path class="cls-5" d="M157.76,46.88h12s5.19,10.59,0,18.63h-12"/><path class="cls-6" d="M236.32,46.88c0,5.57-4.23,10.09-9.45,10.09s-9.45-4.52-9.45-10.09a10.22,10.22,0,0,1,4.79-8.78,9,9,0,0,1,4.66-1.31C232.09,36.78,236.32,41.3,236.32,46.88Z"/><path class="cls-6" d="M227.19,57s-5.63.85-9.77-1.09c-9.6-9.6.92-18.44.92-18.44a21.78,21.78,0,0,1,6.61-.44"/><path class="cls-5" d="M488.26,63"/><circle class="cls-5" cx="489.3" cy="76.25" r="7.96"/><path class="cls-5" d="M489.3,68.29l-6.73.43s-9.91,5.71-1.24,15.21a47.12,47.12,0,0,0,8,.29"/><path class="cls-6" d="M232,789c0,5.57-4.23,10.09-9.45,10.09S213,794.57,213,789a10.22,10.22,0,0,1,4.79-8.78,9,9,0,0,1,4.66-1.31C227.72,778.9,232,783.42,232,789Z"/><path class="cls-6" d="M222.82,799.09s-5.63.85-9.77-1.09c-9.6-9.6.92-18.44.92-18.44a21.78,21.78,0,0,1,6.61-.44"/><circle class="cls-5" cx="487.53" cy="759.34" r="7.96"/><path class="cls-5" d="M487.53,751.38l-6.73.43s-9.91,5.71-1.24,15.21a47.12,47.12,0,0,0,8,.29"/></g></g></svg>