<?xml version="1.0" encoding="utf-8"?>
<!-- Generator: Adobe Illustrator 23.0.1, SVG Export Plug-In . SVG Version: 6.00 Build 0)  -->
<svg version="1.1" id="Camada_1" xmlns="http://www.w3.org/2000/svg" xmlns:xlink="http://www.w3.org/1999/xlink" x="0px" y="0px"
	 viewBox="0 0 600 600" style="enable-background:new 0 0 600 600;" xml:space="preserve">
<style type="text/css">
	.st0{fill:#E8E7E7;}
	.st1{fill:#FFFFFF;}
	.st2{fill:none;stroke:#020203;stroke-miterlimit:10;}
	.st3{fill:none;stroke:#020203;stroke-width:0.5;stroke-miterlimit:10;}
	.st4{fill:none;stroke:#020203;stroke-width:0.9506;stroke-miterlimit:10;}
	.st5{fill:none;stroke:#020203;stroke-width:0.827;stroke-miterlimit:10;}
	.st6{fill:none;stroke:#020203;stroke-width:0.5195;stroke-miterlimit:10;}
	.st7{fill:#FFFFFF;stroke:#020203;stroke-width:0.5;stroke-miterlimit:10;}
	.st8{fill:#F3F2F2;stroke:#020203;stroke-miterlimit:10;}
	.st9{fill:none;stroke:#020203;stroke-width:0.5255;stroke-miterlimit:10;}
	.st10{fill:none;stroke:#020203;stroke-width:1.0509;stroke-miterlimit:10;}
	.st11{fill:none;stroke:#020203;stroke-width:0.4155;stroke-miterlimit:10;}
	.st12{fill:none;}
	.st13{fill:none;stroke:#D41F19;stroke-width:1.4493;stroke-miterlimit:10;}
	.st14{fill:none;stroke:#D41F19;stroke-width:1.5;stroke-miterlimit:10;}
	.st15{fill:#D41F19;}
	.st16{fill:none;stroke:#D41F19;stroke-width:1.3972;stroke-miterlimit:10;}
	.st17{fill:none;stroke:#D41F19;stroke-width:1.4149;stroke-miterlimit:10;}
	.st18{fill:none;stroke:#D41F19;stroke-width:1.5415;stroke-miterlimit:10;}
	.st19{fill:none;stroke:#D41F19;stroke-width:1.4077;stroke-miterlimit:10;}
	.st20{fill:none;stroke:#D41F19;stroke-width:1.2223;stroke-miterlimit:10;}
	.st21{fill:none;stroke:#D41F19;stroke-width:1.359;stroke-miterlimit:10;}
	.st22{fill:none;stroke:#D41F19;stroke-width:1.362;stroke-miterlimit:10;}
	.st23{fill:none;stroke:#D41F19;stroke-width:1.3128;stroke-miterlimit:10;}
	.st24{fill:none;stroke:#D41F19;stroke-width:1.3941;stroke-miterlimit:10;}
	.st25{fill:none;stroke:#D41F19;stroke-width:1.4643;stroke-miterlimit:10;}
	.st26{fill:none;stroke:#D41F19;stroke-width:1.2895;stroke-miterlimit:10;}
	.st27{fill:none;stroke:#B5241F;stroke-width:1.42;stroke-miterlimit:10;}
	.st28{fill:none;stroke:#B5241F;stroke-width:1.38;stroke-miterlimit:10;}
	.st29{fill:none;stroke:#B5241F;stroke-width:1.22;stroke-miterlimit:10;}
	.st30{fill:#B5241F;}
	.st31{fill:#E6E6E6;}
	.st32{fill:none;stroke:#B5241F;stroke-width:1.37;stroke-miterlimit:10;}
	.st33{fill:none;stroke:#B5241F;stroke-width:1.39;stroke-miterlimit:10;}
	.st34{fill:none;stroke:#B5241F;stroke-width:1.28;stroke-miterlimit:10;}
	.st35{fill:none;stroke:#B5241F;stroke-width:1.33;stroke-miterlimit:10;}
	.st36{fill:none;stroke:#B5241F;stroke-width:1.46;stroke-miterlimit:10;}
	.st37{fill:none;stroke:#B5241F;stroke-width:1.29;stroke-miterlimit:10;}
	.st38{fill:#E7E6E6;}
	.st39{fill:#FFFFFF;stroke:#020203;stroke-width:0.48;stroke-miterlimit:10;}
	.st40{fill:#F2F2F2;stroke:#020203;stroke-width:0.96;stroke-miterlimit:10;}
	.st41{fill:none;stroke:#020203;stroke-width:0.96;stroke-miterlimit:10;}
	.st42{fill:none;stroke:#020203;stroke-width:0.48;stroke-miterlimit:10;}
	.st43{fill:none;stroke:#020203;stroke-width:0.91;stroke-miterlimit:10;}
	.st44{fill:none;stroke:#020203;stroke-width:0.79;stroke-miterlimit:10;}
	.st45{fill:#F3F3F3;stroke:#020203;stroke-width:0.96;stroke-miterlimit:10;}
	.st46{fill:none;stroke:#020203;stroke-width:1.01;stroke-miterlimit:10;}
	.st47{fill:none;stroke:#020203;stroke-width:0.53;stroke-miterlimit:10;}
	.st48{fill:none;stroke:#020203;stroke-width:0.42;stroke-miterlimit:10;}
	.st49{fill:none;stroke:#020203;stroke-width:0.95;stroke-miterlimit:10;}
	.st50{fill:none;stroke:#020203;stroke-width:0.83;stroke-miterlimit:10;}
	.st51{fill:none;stroke:#020203;stroke-width:0.52;stroke-miterlimit:10;}
	.st52{fill:none;stroke:#B5241F;stroke-width:1.53;stroke-miterlimit:10;}
	.st53{fill:none;stroke:#B5241F;stroke-width:1.5;stroke-miterlimit:10;}
	.st54{fill:none;stroke:#B5241F;stroke-width:1.51;stroke-miterlimit:10;}
	.st55{fill:none;stroke:#B5241F;stroke-width:1.6;stroke-miterlimit:10;}
	.st56{fill:none;stroke:#000000;stroke-width:0.96;stroke-miterlimit:10;}
	.st57{fill:none;stroke:#000000;stroke-width:0.48;stroke-miterlimit:10;}
	.st58{fill:none;stroke:#000000;stroke-width:0.9126;stroke-miterlimit:10;}
	.st59{fill:none;stroke:#000000;stroke-width:0.7939;stroke-miterlimit:10;}
	.st60{fill:none;stroke:#000000;stroke-width:0.4988;stroke-miterlimit:10;}
	.st61{fill:#FFFFFF;stroke:#000000;stroke-width:0.48;stroke-miterlimit:10;}
	.st62{fill:#F3F2F2;stroke:#000000;stroke-width:0.96;stroke-miterlimit:10;}
	.st63{fill:none;stroke:#000000;stroke-width:0.5045;stroke-miterlimit:10;}
	.st64{fill:none;stroke:#000000;stroke-width:1.0089;stroke-miterlimit:10;}
	.st65{fill:none;stroke:#020203;stroke-width:0.9639;stroke-miterlimit:10;}
	.st66{fill:none;stroke:#020203;stroke-width:0.5029;stroke-miterlimit:10;}
	.st67{fill:none;stroke:#020203;stroke-width:0.5095;stroke-miterlimit:10;}
	.st68{fill:none;stroke:#020203;stroke-width:0.5182;stroke-miterlimit:10;}
	.st69{fill:none;stroke:#000000;stroke-width:0.5;stroke-miterlimit:10;}
	.st70{fill:none;stroke:#000000;stroke-miterlimit:10;}
	.st71{fill:none;stroke:#000000;stroke-width:0.4155;stroke-miterlimit:10;}
	.st72{fill:none;stroke:#000000;stroke-width:0.9506;stroke-miterlimit:10;}
	.st73{fill:none;stroke:#000000;stroke-width:0.827;stroke-miterlimit:10;}
	.st74{fill:none;stroke:#000000;stroke-width:0.5195;stroke-miterlimit:10;}
	.st75{fill:none;stroke:#020203;stroke-width:0.9699;stroke-miterlimit:10;}
	.st76{font-family:'Roboto-Regular';}
	.st77{font-size:13.3245px;}
	.st78{fill:none;stroke:#D41F19;stroke-width:1.3689;stroke-miterlimit:10;}
	.st79{fill:none;stroke:#D41F19;stroke-width:1.4294;stroke-miterlimit:10;}
	.st80{fill:none;stroke:#D41F19;stroke-width:1.8389;stroke-miterlimit:10;}
	.st81{fill:none;stroke:#D41F19;stroke-width:1.3723;stroke-miterlimit:10;}
	.st82{fill:none;stroke:#D41F19;stroke-width:1.4808;stroke-miterlimit:10;}
	.st83{fill:none;stroke:#D41F19;stroke-width:1.3947;stroke-miterlimit:10;}
	.st84{fill:none;stroke:#D41F19;stroke-width:1.313;stroke-miterlimit:10;}
	.st85{fill:none;stroke:#D41F19;stroke-width:1.3456;stroke-miterlimit:10;}
	.st86{fill:none;stroke:#D41F19;stroke-width:1.2309;stroke-miterlimit:10;}
	.st87{fill:none;stroke:#D41F19;stroke-width:1.3365;stroke-miterlimit:10;}
	.st88{fill:none;stroke:#D41F19;stroke-width:1.328;stroke-miterlimit:10;}
	.st89{fill:#FFFFFF;stroke:#1E1E1C;stroke-miterlimit:10;}
	.st90{fill:#FFFFFF;stroke:#1E1E1C;stroke-linejoin:bevel;}
	.st91{fill:none;stroke:#1E1E1C;stroke-linejoin:round;}
	.st92{fill:none;stroke:#1E1E1C;stroke-miterlimit:10;}
	.st93{fill:none;stroke:#1E1E1C;stroke-linecap:round;stroke-miterlimit:10;}
	.st94{fill:#1E1E1C;}
	.st95{fill:none;stroke:#E20D18;stroke-width:1.62;stroke-miterlimit:10;}
	.st96{fill:none;stroke:#E20D18;stroke-width:1.81;stroke-miterlimit:10;}
	.st97{fill:#E20D18;}
	.st98{fill:none;stroke:#E20D18;stroke-width:1.63;stroke-miterlimit:10;}
	.st99{fill:none;stroke:#E20D18;stroke-width:1.54;stroke-miterlimit:10;}
	.st100{fill:none;stroke:#E20D18;stroke-width:1.74;stroke-miterlimit:10;}
	.st101{fill:none;stroke:#E20D18;stroke-width:1.58;stroke-miterlimit:10;}
	.st102{fill:none;stroke:#E20D18;stroke-width:1.69;stroke-miterlimit:10;}
	.st103{fill:none;stroke:#E20D18;stroke-width:1.76;stroke-miterlimit:10;}
	.st104{fill:#FFFFFF;stroke:#1E1E1C;stroke-width:2;stroke-miterlimit:10;}
	.st105{fill:#FFFFFF;stroke:#1E1E1C;stroke-width:2;stroke-linejoin:bevel;}
	.st106{fill:none;stroke:#1E1E1C;stroke-width:1.3;stroke-miterlimit:10;}
	.st107{fill:none;stroke:#E20D18;stroke-width:1.56;stroke-miterlimit:10;}
	.st108{fill:none;stroke:#E20D18;stroke-width:1.57;stroke-miterlimit:10;}
	.st109{fill:none;stroke:#E20D18;stroke-width:1.53;stroke-miterlimit:10;}
	.st110{fill:none;stroke:#E20D18;stroke-width:1.52;stroke-miterlimit:10;}
	.st111{fill:none;stroke:#E20D18;stroke-width:1.06;stroke-miterlimit:10;}
	.st112{fill:none;stroke:#E20D18;stroke-width:0.99;stroke-miterlimit:10;}
	.st113{fill:none;stroke:#E20D18;stroke-width:1.09;stroke-miterlimit:10;}
	.st114{fill:none;stroke:#E20D18;stroke-width:1.03;stroke-miterlimit:10;}
	.st115{fill:none;stroke:#E20D18;stroke-width:1.71;stroke-miterlimit:10;}
</style>
<g>
	<g>
		<rect x="423.1" y="518.9" class="st1" width="9.5" height="12.1"/>
		<g>
			<rect x="287" y="552.9" class="st1" width="11" height="27.1"/>
			<g>
				<g>
					<g>
						<g>
							<g>
								<path class="st1" d="M280,414.1h25.7v17.5c0,0-5.9,4-13,4c-7.1,0-12.7-3.9-12.7-3.9V414.1z"/>
								<path class="st1" d="M280,431.7c0,0,12,3.1,25.7-0.1"/>
								<path class="st1" d="M305.7,426.8c0,0,2.6,0.4,2.6,1.7c0,1.3,0.7,43.9,0.7,43.9s-12.8,6.8-32.2-0.7c0.6-17.3,1.3-43,1.3-43
									s0.6-0.9,1.9-1.2"/>
								<path class="st1" d="M278.1,428.7c0,0,0.7,0.6,1.9,0.9"/>
								<path class="st1" d="M308,427.7c0,0-0.7,0.6-1.9,0.9"/>
								<path class="st1" d="M204,393.7l-2.4,7.4c0,0,1.1,2.1,3.1,0.7c0.9-2.8,2.3-7.4,2.3-7.4"/>
								<polyline class="st1" points="201.6,400.9 199.9,400.4 199.5,402.6 205.1,404.2 205.9,402 204.6,401.6 								"/>
								<path class="st1" d="M199.9,400.4c0,0-8.7,11.7-10.1,14.2c-1.4,2.5-1.4,7.5,2.1,7.6c2.1,0.7,3.5,1.8,3.5,1.8
									s1.1,0.9,3.8,0.3c1.6,0.1,2.7,0.8,3.7,0.5c1-0.3,2.9-1.4,3.2-4.6c0.3-3.1-0.2-18.2-0.2-18.2"/>
								<g>
									<path class="st1" d="M248.8,475.2c-18.9-8.3-35.1-5.5-36.2-4.7c-0.7,0.5-0.7,2-0.7,2H210c0,0-2.9-9.2,8.7-11.1
										c28.6-7.7,58,3.6,58,3.6h31.8c0,0,29.4-11.2,58-3.6c11.7,1.9,8.7,11.1,8.7,11.1h-1.8c0,0,0-1.5-0.7-2
										c-1.1-0.8-17.3-3.6-36.2,4.7"/>
									<path class="st1" d="M225.2,469.5c0,0,0.1,2.9-4.6,3.9c-4.7,1.1-8.7-0.9-8.7-0.9l-0.5-1.5l5.7-3.7l8.8,0.6"/>
									<path class="st1" d="M269.6,472.3c0,0-68.1,6.4-116.9,32.5c0,0-4.6,0.8-5.1,5c-0.5,4.1,0.4,5.8,0.3,6.6
										c-0.1,0.8,6.4,3.6,12.7,0.8c1.3-2.6,3.8-5.4,8.8-6.3c5-0.9,47.3-17.7,105.7-19.1c2.8,1.8,4.9,2.7,5.4,2.9"/>
									<path class="st1" d="M160.7,516.9c0,0,4.4,0.2,4.6-4.7l-2.6-0.5l-2.9,4.8"/>
									<path class="st1" d="M373.4,472.5c0,0-4,2-8.7,0.9c-4.7-1.1-4.6-3.9-4.6-3.9"/>
									<path class="st1" d="M315.7,472.3c0,0,68.1,6.4,116.9,32.5c0,0,4.6,0.8,5.1,5c0.5,4.1-0.4,5.8-0.3,6.6
										c0.1,0.8-6.4,3.6-12.7,0.8c-1.3-2.6-3.8-5.4-8.8-6.3s-47.3-17.7-105.7-19.1c-2.8,1.8-4.9,2.7-5.4,2.9"/>
									<path class="st1" d="M424.6,516.9c0,0-4.4,0.2-4.6-4.7"/>
									<path class="st1" d="M280.5,480.5c0,0,1.6,51.5,2.6,58.2s0,12.2,0,12.2s3.2,5.2,9.8,5.4"/>
									<path class="st1" d="M305.3,480.5c0,0-1.6,51.5-2.6,58.2s0,12.2,0,12.2s-3.2,5.2-9.8,5.4"/>
								</g>
								<g>
									<path class="st1" d="M199.7,486.2c0,0-0.8-10.3,4.4-10.6c5.2-0.3,8.1,7.2,8.1,7.2"/>
									<path class="st1" d="M203.9,475.6l5-1.2c0,0,5.4,2.1,6.2,7.6"/>
									<path class="st1" d="M215.3,473.5v1.2c0,0,3.5,1.6,5.6,0c0-0.6,0-1.3,0-1.3"/>
									<path class="st1" d="M215.2,474.1c0,0-1.2,0.3-1.2,0.8s5.9,2.4,8.5-0.1c-0.4-0.8-1.5-0.7-1.5-0.7"/>
									<path class="st1" d="M213,472.9c-1.4,1-2.9,2.1-2.9,2.1l-1.3,2.5c0,0,0.3,4.7,0.6,5.6c0.3,0.9,7.5,4.7,8,4.9
										s7.6-3.1,7.6-3.1l0.2-5.2l0.1-0.1l-0.2-0.7l-0.7-1.4l-2.2-3.4l-0.9-0.7l-1.5-0.4"/>
									<path class="st1" d="M360.1,469.5c0,0-0.1,2.9,4.6,3.9c4.7,1.1,8.7-0.9,8.7-0.9l0.5-1.5l-5.7-3.7l-8.8,0.6"/>
									<path class="st1" d="M372.3,473c1.4,1,2.9,2.1,2.9,2.1l1.3,2.5c0,0-0.3,4.7-0.6,5.6c-0.3,0.9-7.5,4.7-8,4.9
										s-7.6-3.1-7.6-3.1l-0.2-5.2l-0.1-0.1l0.2-0.7l0.7-1.4l2.2-3.4l0.9-0.7l1.5-0.4"/>
									<path class="st1" d="M221.2,473.4c0,0,2.9,1.2,4,5.9"/>
									<polyline class="st1" points="200.9,478.7 204.1,484.9 203.2,485.2 200.1,480.7 									"/>
									<line class="st1" x1="203.4" y1="475.7" x2="204.6" y2="484.6"/>
									<line class="st1" x1="205.4" y1="475.7" x2="205.3" y2="484.6"/>
									<path class="st1" d="M209.4,478.2c0,0-3.2,5.7-3.3,6"/>
									<line class="st1" x1="207.6" y1="484" x2="210.6" y2="480"/>
								</g>
								<g>
									<path class="st1" d="M385.6,486.2c0,0,0.8-10.3-4.4-10.6s-8.1,7.2-8.1,7.2"/>
									<path class="st1" d="M381.4,475.6l-5-1.2c0,0-5.4,2.1-6.2,7.6"/>
									<path class="st1" d="M370,473.5v1.2c0,0-3.5,1.6-5.6,0c0-0.6,0-1.3,0-1.3"/>
									<path class="st1" d="M370.1,474.1c0,0,1.2,0.3,1.2,0.8c0,0.5-5.9,2.4-8.5-0.1c0.4-0.8,1.5-0.7,1.5-0.7"/>
									<line class="st1" x1="371.3" y1="474.9" x2="371.3" y2="478.4"/>
									<line class="st1" x1="362.9" y1="474.9" x2="362.9" y2="480.2"/>
									<path class="st1" d="M375.2,475c0,0-1.5-1-2.9-2.1"/>
									<path class="st1" d="M364.1,473.4c0,0-2.9,1.2-4,5.9"/>
									<polyline class="st1" points="384.4,478.7 381.2,484.9 382.1,485.2 385.3,480.7 									"/>
									<line class="st1" x1="381.9" y1="475.7" x2="380.7" y2="484.6"/>
									<line class="st1" x1="379.9" y1="475.7" x2="380" y2="484.6"/>
									<path class="st1" d="M375.9,478.2c0,0,3.2,5.7,3.3,6"/>
									<line class="st1" x1="377.7" y1="484" x2="374.7" y2="480"/>
								</g>
								<path class="st1" d="M153.2,518.2c-0.4-0.1-2.2,1.1,1.2,1.6c2.6,0.4,7.2,0,7.5-0.7s-1.1-1.1-1.6-1.2"/>
								<path class="st1" d="M162,518.9l-0.4,11.7c0,0-0.2,1-0.7,1.3"/>
								<path class="st1" d="M431.8,518.4c0.4-0.1,2.2,1.1-1.2,1.6c-2.6,0.4-7.2,0-7.5-0.7s1.5-1.7,2-1.8"/>
								<line class="st1" x1="424.7" y1="517.5" x2="424.7" y2="519.6"/>
								<line class="st1" x1="432.6" y1="519.1" x2="432.6" y2="522.3"/>
								<path class="st1" d="M423,519.1l0.4,11.7c0,0,0.2,1,0.7,1.3"/>
								<path class="st1" d="M288.7,559h-5.6c0,0-1.3,5.7-1.2,14.8c0,0.5-0.7,1.4-0.7,1.4l-0.1,1.8c0,0,0.5,0.5,0.5,0.8
									c0.1,7.7,1.2,13.2,1.2,13.2l5.6,0.4C288.4,591.3,289.5,561.2,288.7,559z"/>
								<path class="st1" d="M283.1,559c0,0-0.2,13.4-0.2,32"/>
								<path class="st1" d="M296.7,559h5.6c0,0,1.3,5.7,1.2,14.8c0,0.5,0.7,1.4,0.7,1.4l0.1,1.8c0,0-0.5,0.5-0.5,0.8
									c-0.1,7.7-1.2,13.2-1.2,13.2l-5.6,0.4C297,591.3,296,561.2,296.7,559z"/>
								<path class="st1" d="M302.3,559c0,0,0.2,13.4,0.2,32"/>
								<g>
									<ellipse class="st1" cx="146.7" cy="535.5" rx="14.6" ry="14.4"/>
									<ellipse class="st1" cx="146.7" cy="535.5" rx="12.7" ry="12.5"/>
									<path class="st1" d="M132.6,531.7c0.1-4.4,2.5-9.6,7.8-12c5.3-2.4,9.6-0.9,11.8,0.2l0.1-1.2l9.5,0.2h0.1l-0.7,10.8l-0.6,3"
										/>
									<path class="st1" d="M142.4,523.7l3.4,9.9c0,0-0.3,0.1-0.7,0.5c-0.9-0.6-8.4-6.3-8.4-6.3"/>
									<path class="st1" d="M152.6,524.4l-4.5,9.1c0,0-0.7-0.2-1.2-0.1c-0.4-1.9-1.3-10.4-1.3-10.3"/>
									<path class="st1" d="M158.7,531.2l-9,3.7c0,0-0.1-0.3-0.5-0.7c0.6-0.9,6.1-8,6.1-8"/>
									<path class="st1" d="M158.4,540.8l-8.8-4c0,0,0.2-0.4,0.2-0.8c1-0.2,9.5-2.3,9.5-2.3"/>
									<path class="st1" d="M151.3,547.1l-3-8.9c0,0,0.3-0.1,0.7-0.5c0.9,0.6,7.5,5.6,7.5,5.6"/>
									<path class="st1" d="M141.8,547l4.4-8.6c0,0,0.5,0.1,0.9,0.1c0.4,1.9,1,8.3,1.1,9.4"/>
									<path class="st1" d="M135.2,540.8l9.2-3.8c0,0,0.1,0.3,0.5,0.7c-0.6,0.9-5.9,7.7-5.9,7.7"/>
									<path class="st1" d="M135,530.8l9.6,4.3c0,0-0.2,0.4-0.2,0.8c-1,0.2-10,2.3-10,2.3"/>
								</g>
								<g>
									<ellipse class="st1" cx="438" cy="535.5" rx="14.6" ry="14.4"/>
									<ellipse class="st1" cx="438" cy="535.5" rx="12.7" ry="12.5"/>
									<path class="st1" d="M430.5,520.5c2.2-1.1,8.5-3.2,13.8-0.8c5.3,2.4,7.7,7.6,7.8,12"/>
									<path class="st1" d="M442.4,523.7l-3.4,9.9c0,0,0.3,0.1,0.7,0.5c0.9-0.6,8.4-6.3,8.4-6.3"/>
									<path class="st1" d="M432.2,524.4l4.5,9.1c0,0,0.7-0.2,1.2-0.1c0.4-1.9,1.3-10.4,1.3-10.3"/>
									<path class="st1" d="M426.1,531.2l9,3.7c0,0,0.1-0.3,0.5-0.7c-0.6-0.9-6.1-8-6.1-8"/>
									<path class="st1" d="M426.4,540.8l8.8-4c0,0-0.2-0.4-0.2-0.8c-1-0.2-9.5-2.3-9.5-2.3"/>
									<path class="st1" d="M433.4,547.1l3-8.9c0,0-0.3-0.1-0.7-0.5c-0.9,0.6-7.5,5.6-7.5,5.6"/>
									<path class="st1" d="M443,547l-4.4-8.6c0,0-0.5,0.1-0.9,0.1c-0.4,1.9-1,8.3-1.1,9.4"/>
									<path class="st1" d="M449.5,540.8l-9.2-3.8c0,0-0.1,0.3-0.5,0.7c0.6,0.9,5.9,7.7,5.9,7.7"/>
									<path class="st1" d="M449.8,530.8l-9.6,4.3c0,0,0.2,0.4,0.2,0.8c1,0.2,10,2.3,10,2.3"/>
								</g>
							</g>
							<path class="st1" d="M287.8,316.9c0,0-45.1-1.6-49.6-2c-4.5-0.4-37.5-3.4-44.1-1.3c-6.6,2.1-9.1,3.4-10.6,5.4
								c-1.5,2-4.3,9.3-5.6,10.7s-5.4,6.5-6.4,11c-1,4.4-2.6,23.5-0.6,29.8c2.4,9.9,6.5,12.6,10.4,15.4s20.8,8.4,35.6,10
								c14.8,1.7,58.8,5.9,70.8,5.6"/>
							<path class="st1" d="M287.8,316.9c0,0,48.4-1.6,52.9-2s37.5-3.4,44.1-1.3s9.1,3.4,10.6,5.4c1.5,2,4.3,9.3,5.6,10.7
								s5.4,6.5,6.4,11c1,4.4,2.6,23.5,0.6,29.8c-2.4,9.9-6.5,12.6-10.4,15.4c-3.9,2.8-20.8,8.4-35.6,10
								c-14.8,1.7-62.1,5.9-74.1,5.6"/>
							<g>
								<path class="st1" d="M189.1,228.6c0,0,0.6-8.3-21-5.3c-17.5,5.3-23.5,29.4-23.5,29.4s-1,10.8,5,16.5
									c18.7,3.8,24.8-2.3,24.8-2.3s5.3-5.3,7.3-11.8c2-6.6,5-15.5,7-16.3C190.5,237.9,189.7,230.5,189.1,228.6z"/>
								<path class="st1" d="M144.5,253c0,0,8,11.3,25.9,0.5c13.8-12,9.8-23.6,19.4-25.5"/>
								<path class="st1" d="M169.6,361c-5.5,0-5.9-2.8-5.9-2.8s-11-49.4-14.1-64.1c-3.1-14.7,0-24.9,0-24.9l32.5-15.7
									c0,0-5.7,21.3-6.4,31.4c-0.7,10.1-0.1,47.8-0.1,47.8"/>
								<path class="st1" d="M188.5,238.8c0,0,0.8,0.8,1.5,2.6"/>
								<path class="st1" d="M187,235.7c0,0,7.6,17.8,6.7,25.3c-0.8,6.8-10.8,68.4-10.8,68.4l-7.5,6.6l-2.6-61.9L187,235.7z"/>
								<path class="st1" d="M409,361c5.5,0,5.9-2.8,5.9-2.8s11-49.4,14.1-64.1c3.1-14.7,0-24.9,0-24.9l-32.5-15.7
									c0,0,5.7,21.3,6.4,31.4c0.7,10.1,0.1,47.8,0.1,47.8"/>
								<path class="st1" d="M391.6,235.7c0,0-7.1,16.9-6.2,24.5c0.8,6.8,8,57.9,8,57.9l9.8,18.1l2.6-61.9L391.6,235.7z"/>
								<line class="st1" x1="186.9" y1="300.3" x2="185.7" y2="316.6"/>
								<line class="st1" x1="179.1" y1="265.6" x2="175.3" y2="308.1"/>
							</g>
							<g>
								<path class="st1" d="M389.5,228.6c0,0-0.6-8.3,21-5.3c17.5,5.3,23.5,29.4,23.5,29.4s1,10.8-5,16.5
									c-18.7,3.8-24.8-2.3-24.8-2.3s-5.3-5.3-7.3-11.8c-2-6.6-5-15.5-7-16.3C388.1,237.9,388.9,230.5,389.5,228.6z"/>
								<path class="st1" d="M434.1,253c0,0-8,11.3-25.9,0.5c-13.8-12-9.8-23.6-19.4-25.5"/>
								<path class="st1" d="M429.1,269.2c0,0,3.1,10.3,0,24.9c-3.1,14.7-14.1,64.1-14.1,64.1s-0.5,2.8-5.9,2.8"/>
								<path class="st1" d="M390.1,238.8c0,0-0.8,0.8-1.5,2.6"/>
								<path class="st1" d="M396.6,253.5c0,0,5.7,21.3,6.4,31.4c0.7,10.1,0.1,47.8,0.1,47.8"/>
								<path class="st1" d="M397.6,257.4c0,0-1.8,10.9-1,17.7c0.8,6.8,5.2,56,5.2,56"/>
								<line class="st1" x1="391.7" y1="300.3" x2="393" y2="316.6"/>
								<line class="st1" x1="399.6" y1="265.6" x2="403.3" y2="308.1"/>
								<path class="st1" d="M428.7,269.3c0,0-0.8,2.4-2.9,2.9c-2.1,0.6-13.8,3.1-22.5-2.6c-2.7-1.9-3.3-8.2-3.3-8.2"/>
							</g>
						</g>
					</g>
					<polygon class="st1" points="281,418.2 281.6,400 304.2,399.6 304.8,418.2 					"/>
					<polyline class="st1" points="336.5,475.2 305.8,493.3 304.2,495.4 299.1,536.1 294.7,555 293.2,556.2 292.4,556.3 
						289.3,548.6 281.5,495 276.9,492.4 264.6,479.7 265.9,467.5 					"/>
				</g>
				<g>
					<path class="st1" d="M288.7,316.5c0,0-45.1-1.6-49.6-2c-4.5-0.4-37.5-3.4-44.1-1.3c-6.6,2.1-9.1,3.4-10.6,5.4
						c-1.5,2-4.3,9.3-5.6,10.7s-5.4,6.5-6.4,11c-1,4.4-2.6,23.5-0.6,29.8c2.4,9.9,6.5,12.6,10.4,15.4c3.9,2.8,20.8,8.4,35.6,10
						c14.8,1.7,58.8,5.9,70.8,5.6"/>
					<g>
						<path class="st1" d="M189.5,228.6c0,0,0.6-8.3-21-5.3c-17.5,5.3-23.5,29.4-23.5,29.4s-1,10.8,5,16.5
							c18.7,3.8,24.8-2.3,24.8-2.3s5.3-5.3,7.3-11.8c2-6.6,5-15.5,7-16.3C190.9,237.9,190.1,230.5,189.5,228.6z"/>
						<path class="st1" d="M145.4,252.6c0,0,8,11.3,25.9,0.5c13.8-12,8.5-23.1,18.1-25"/>
						<path class="st1" d="M150.4,268.8c0,0-3.1,10.3,0,24.9c3.1,14.7,14.1,64.1,14.1,64.1s0.5,2.8,5.9,2.8"/>
						<path class="st1" d="M189.4,238.4c0,0,0.8,0.8,1.5,2.6"/>
						<path class="st1" d="M182.9,253.1c0,0-5.7,21.3-6.4,31.4c-0.7,10.1-0.1,47.8-0.1,47.8"/>
						<path class="st1" d="M181.9,257c0,0,1.8,10.9,1,17.7c-0.8,6.8-5.2,56-5.2,56"/>
						<line class="st1" x1="180" y1="265.2" x2="176.2" y2="307.7"/>
						<path class="st1" d="M150.8,268.9c0,0,0.8,2.4,2.9,2.9s13.8,3.1,22.5-2.6c2.7-1.9,3.3-8.2,3.3-8.2"/>
					</g>
					<g>
						<path class="st1" d="M389.5,228.2c0,0-0.6-8.3,21-5.3c17.5,5.3,23.5,29.4,23.5,29.4s1,10.8-5,16.5
							c-18.7,3.8-24.8-2.3-24.8-2.3s-5.3-5.3-7.3-11.8c-2-6.6-5-15.5-7-16.3S388.9,230.1,389.5,228.2z"/>
						<path class="st1" d="M391,238.4c0,0-0.8,0.8-1.5,2.6"/>
						<path class="st1" d="M397.5,253.1c0,0,5.7,21.3,6.4,31.4c0.7,10.1,0.1,47.8,0.1,47.8"/>
						<path class="st1" d="M398.5,257c0,0-1.8,10.9-1,17.7c0.8,6.8,5.2,56,5.2,56"/>
						<line class="st1" x1="392.6" y1="299.9" x2="393.9" y2="316.2"/>
						<line class="st1" x1="400.5" y1="265.2" x2="404.2" y2="307.7"/>
						<path class="st1" d="M429.6,268.9c0,0-0.8,2.4-2.9,2.9s-13.8,3.1-22.5-2.6c-2.7-1.9-3.3-8.2-3.3-8.2"/>
					</g>
					<path class="st1" d="M290.3,23.2c0,0-35.2-1.5-43.7,9.3C237.7,44,231.9,83,225.8,88.5c-7.3,7.2-24.8,24.3-27,26.5
						c-8.1,8.2-14,21.8-8.1,45.5c5.8,23.7,3,46.4,3,46.4l-5.3,45c0,0-3.3,41-1.2,48.4c2.2,7.5,3.3,13.4,3.3,13.4s174.5,22.5,197.1,0
						c0,0,1.2-5.9,3.3-13.4c2.1-7.5-1.2-48.4-1.2-48.4l-5.2-45c0,0-2.9-22.7,2.9-46.4c5.8-23.7,0-37.3-8-45.5
						c-2.2-2.2-19.5-19.3-26.7-26.5c-6.1-5.5-11.3-44.8-20.6-55.9C323.7,22.4,290.3,23.2,290.3,23.2"/>
					<path class="st1" d="M227.6,396.6c-1.2-9.5,0.7-49.1,2.2-60c1.5-10.9,3.6-22.6,3.6-22.6"/>
					<path class="st1" d="M185.7,317.3c0,0-2.3,6.9-2.5,10c-3.6,5.1-6.6,7.3-7.1,10.5c-0.5,3.2-0.7,9.9,11.2,14.6
						c11.9,4.7,40.7,9.7,40.7,9.7"/>
					<path class="st1" d="M347.8,314.3c0,0,2.1,11.7,3.6,22.6c1.5,10.9,3.4,50.5,2.2,60"/>
					<path class="st1" d="M395.5,317.6c0,0,2.3,6.9,2.5,10c3.6,5.1,6.6,7.3,7.1,10.5c0.5,3.2,0.7,9.9-11.2,14.6
						c-11.9,4.7-40.7,9.7-40.7,9.7"/>
					<path class="st1" d="M231,328.6c0,0,41.2,7.7,119.2,0"/>
					<path class="st1" d="M233.4,314c0,0,5.9-73.3,5.9-106.9s-24.4-54,16.3-82.2c15.4-10.8,35.3-10.7,35.3-10.7"/>
					<line class="st1" x1="226.8" y1="88.5" x2="255.6" y2="125"/>
					<path class="st1" d="M346.4,314c0,0-7.4-82.5-5.9-106.9s24.2-54.4-16.3-82.2c-15.4-10.8-33.3-10.7-33.3-10.7"/>
					<line class="st1" x1="353.1" y1="88.5" x2="324.2" y2="125"/>
				</g>
			</g>
		</g>
	</g>
	<g>
		<line class="st3" x1="238.4" y1="206.5" x2="339.6" y2="206.5"/>
		<line class="st3" x1="238.4" y1="210.4" x2="339.6" y2="210.4"/>
		<line class="st66" x1="237.6" y1="233.8" x2="340" y2="233.8"/>
		<line class="st66" x1="237.6" y1="237.7" x2="340" y2="237.7"/>
		<line class="st67" x1="236.3" y1="258.5" x2="341.3" y2="258.5"/>
		<line class="st67" x1="236.3" y1="262.2" x2="341.3" y2="262.2"/>
		<line class="st68" x1="234.6" y1="285.1" x2="343.2" y2="285.1"/>
		<line class="st68" x1="234.6" y1="288.8" x2="343.2" y2="288.8"/>
		<g>
			<polyline class="st69" points="303.9,401.2 305,402.5 303.2,403.6 305.1,404.3 303.2,405.3 305,406.1 303.4,407.1 305,407.8 
				303.4,409 305,409.8 303.5,410.9 305,411.6 303.7,412.5 305,413.3 304.1,414.2 			"/>
			<polyline class="st69" points="280.6,401.7 282.2,402.9 280.6,403.8 282.2,404.5 280.6,405.3 282.2,406 280.6,406.8 282.2,407.5 
				280.6,408.5 282.2,409.2 280.6,410.1 282.2,411 280.7,411.7 282.2,412.9 280.9,413.5 281.7,414.2 			"/>
			<line class="st69" x1="304.9" y1="402.6" x2="280.6" y2="403.8"/>
			<line class="st69" x1="305.1" y1="404.3" x2="280.7" y2="405.5"/>
			<line class="st69" x1="304.8" y1="406.1" x2="281.1" y2="406.9"/>
			<line class="st69" x1="304.9" y1="407.7" x2="281" y2="408.4"/>
			<line class="st69" x1="305" y1="409.8" x2="281" y2="410.2"/>
			<line class="st69" x1="304.9" y1="411.7" x2="281" y2="411.9"/>
			<line class="st69" x1="305" y1="413.3" x2="281.1" y2="413.3"/>
			<path class="st70" d="M280,414.2h25.7v17.5c0,0-5.9,4-13,4c-7.1,0-12.7-3.9-12.7-3.9V414.2z"/>
			<path class="st69" d="M280,431.8c0,0,12,3.1,25.7-0.1"/>
			<path class="st70" d="M305.7,426.9c0,0,2.6,0.4,2.6,1.7s0.7,43.9,0.7,43.9s-12.8,6.8-32.2-0.7c0.6-17.3,1.3-43,1.3-43
				s0.6-0.9,1.9-1.2"/>
			<path class="st70" d="M278.1,428.8c0,0,0.7,0.6,1.9,0.9"/>
			<path class="st70" d="M308,427.8c0,0-0.7,0.6-1.9,0.9"/>
			<path class="st70" d="M204,393.8l-2.4,7.4c0,0,1.1,2.1,3.1,0.7c0.9-2.8,2.3-7.4,2.3-7.4"/>
			<polyline class="st69" points="201.6,401 199.9,400.5 199.5,402.7 205.1,404.3 205.9,402.1 204.6,401.7 			"/>
			<path class="st70" d="M199.9,400.5c0,0-8.7,11.7-10.1,14.2c-1.4,2.5-1.4,7.5,2.1,7.6c2.1,0.7,3.5,1.8,3.5,1.8s1.1,0.9,3.8,0.3
				c1.6,0.1,2.7,0.8,3.7,0.5s2.9-1.4,3.2-4.6c0.3-3.1-0.2-18.2-0.2-18.2"/>
			<path class="st71" d="M199.7,402.7l-3.4,8.6c0,0,2.3,4.6,6.8,1.9c1.2-3.4,2-8.9,2-8.9s-0.2,12.2-0.5,14.8c-0.2,2.6-1.2,3.4-2,3.6
				s-2.4-0.4-3.6-0.3s-3-0.1-3.7-0.5c-0.6-0.4-0.9-0.9-2.4-1.3c-3.1-0.5-2.5-4-1.3-6.1c1.2-2.1,8-12,8-12"/>
			<g>
				<path class="st70" d="M276.8,465c0,0-29.4-11.2-58-3.6c-11.7,1.9-8.7,11.1-8.7,11.1h1.8c0,0,0-1.5,0.7-2
					c1.1-0.8,17.3-3.6,36.2,4.7"/>
				<path class="st69" d="M211.9,472.6c0,0,4,2,8.7,0.9s4.6-3.9,4.6-3.9"/>
				<path class="st70" d="M269.6,472.4c0,0-68.1,6.4-116.9,32.5c0,0-4.6,0.8-5.1,5s0.4,5.8,0.3,6.6c-0.1,0.8,6.4,3.6,12.7,0.8
					c1.3-2.6,3.8-5.4,8.8-6.3c5-0.9,47.3-17.7,105.7-19.1c2.8,1.8,4.9,2.7,5.4,2.9"/>
				<path class="st69" d="M160.7,517c0,0,4.4,0.2,4.6-4.7"/>
				<path class="st70" d="M308.5,465c0,0,29.4-11.2,58-3.6c11.7,1.9,8.7,11.1,8.7,11.1h-1.8c0,0,0-1.5-0.7-2
					c-1.1-0.8-17.3-3.6-36.2,4.7"/>
				<path class="st69" d="M373.4,472.6c0,0-4,2-8.7,0.9c-4.7-1.1-4.6-3.9-4.6-3.9"/>
				<path class="st70" d="M315.7,472.4c0,0,68.1,6.4,116.9,32.5c0,0,4.6,0.8,5.1,5c0.5,4.1-0.4,5.8-0.3,6.6
					c0.1,0.8-6.4,3.6-12.7,0.8c-1.3-2.6-3.8-5.4-8.8-6.3s-47.3-17.7-105.7-19.1c-2.8,1.8-4.9,2.7-5.4,2.9"/>
				<path class="st69" d="M424.6,517c0,0-4.4,0.2-4.6-4.7"/>
				<path class="st70" d="M280.4,480.6c0,0,1.6,51.5,2.6,58.2s0,12.2,0,12.2s3.2,5.2,9.8,5.4"/>
				<path class="st70" d="M305.3,480.6c0,0-1.6,51.5-2.6,58.2s0,12.2,0,12.2s-3.2,5.2-9.8,5.4"/>
			</g>
			<g>
				<path class="st70" d="M199.7,486.3c0,0-0.8-10.3,4.4-10.6c5.2-0.3,8.1,7.2,8.1,7.2"/>
				<path class="st70" d="M203.9,475.7l5-1.2c0,0,5.4,2.1,6.2,7.6"/>
				<path class="st69" d="M215.3,473.6v1.2c0,0,3.5,1.6,5.6,0c0-0.6,0-1.3,0-1.3"/>
				<path class="st69" d="M215.1,474.2c0,0-1.2,0.3-1.2,0.8s5.9,2.4,8.5-0.1c-0.4-0.8-1.5-0.7-1.5-0.7"/>
				<line class="st69" x1="213.9" y1="475" x2="213.9" y2="478.5"/>
				<line class="st69" x1="222.4" y1="475" x2="222.4" y2="480.2"/>
				<path class="st70" d="M210.1,475.1c0,0,1.5-1,2.9-2.1"/>
				<path class="st70" d="M221.2,473.5c0,0,2.9,1.2,4,5.9"/>
				<polyline class="st69" points="200.9,478.8 204.1,485 203.2,485.3 200,480.8 				"/>
				<line class="st69" x1="203.3" y1="475.8" x2="204.6" y2="484.7"/>
				<line class="st69" x1="205.4" y1="475.8" x2="205.3" y2="484.7"/>
				<path class="st69" d="M209.4,478.3c0,0-3.2,5.7-3.3,6"/>
				<line class="st69" x1="207.6" y1="484.1" x2="210.6" y2="480.1"/>
			</g>
			<g>
				<path class="st70" d="M385.5,486.3c0,0,0.8-10.3-4.4-10.6s-8.1,7.2-8.1,7.2"/>
				<path class="st70" d="M381.4,475.7l-5-1.2c0,0-5.4,2.1-6.2,7.6"/>
				<path class="st69" d="M370,473.6v1.2c0,0-3.5,1.6-5.6,0c0-0.6,0-1.3,0-1.3"/>
				<path class="st69" d="M370.1,474.2c0,0,1.2,0.3,1.2,0.8s-5.9,2.4-8.5-0.1c0.4-0.8,1.5-0.7,1.5-0.7"/>
				<line class="st69" x1="371.3" y1="475" x2="371.3" y2="478.5"/>
				<line class="st69" x1="362.9" y1="475" x2="362.9" y2="480.2"/>
				<path class="st70" d="M375.2,475.1c0,0-1.5-1-2.9-2.1"/>
				<path class="st70" d="M364.1,473.5c0,0-2.9,1.2-4,5.9"/>
				<polyline class="st69" points="384.4,478.8 381.2,485 382.1,485.3 385.2,480.8 				"/>
				<line class="st69" x1="381.9" y1="475.8" x2="380.7" y2="484.7"/>
				<line class="st69" x1="379.9" y1="475.8" x2="380" y2="484.7"/>
				<path class="st69" d="M375.9,478.3c0,0,3.2,5.7,3.3,6"/>
				<line class="st69" x1="377.7" y1="484.1" x2="374.6" y2="480.1"/>
			</g>
			<path class="st70" d="M153.2,518.3c-0.4-0.1-2.2,1.1,1.2,1.6c2.6,0.4,7.2,0,7.5-0.7c0.3-0.7-1.1-1.1-1.6-1.2"/>
			<line class="st69" x1="160.2" y1="517.3" x2="160.2" y2="519.5"/>
			<line class="st70" x1="152.3" y1="519" x2="152.3" y2="522.2"/>
			<path class="st70" d="M162,519l-0.4,11.7c0,0-0.2,1-0.7,1.3"/>
			<path class="st70" d="M431.8,518.5c0.4-0.1,2.2,1.1-1.2,1.6c-2.6,0.4-7.2,0-7.5-0.7s1.1-1.1,1.6-1.2"/>
			<line class="st69" x1="424.7" y1="517.5" x2="424.7" y2="519.7"/>
			<line class="st70" x1="432.6" y1="519.2" x2="432.6" y2="522.4"/>
			<path class="st70" d="M423,519.2l0.4,11.7c0,0,0.2,1,0.7,1.3"/>
			<line class="st69" x1="287" y1="554.7" x2="287" y2="558.9"/>
			<path class="st70" d="M288.7,559h-5.6c0,0-1.3,5.7-1.2,14.8c0,0.5-0.7,1.4-0.7,1.4l-0.1,1.8c0,0,0.5,0.5,0.5,0.8
				c0.1,7.7,1.2,13.2,1.2,13.2l5.6,0.4C288.4,591.4,289.4,561.3,288.7,559z"/>
			<path class="st69" d="M283.1,559c0,0-0.2,13.4-0.2,32"/>
			<path class="st70" d="M296.7,559h5.6c0,0,1.3,5.7,1.2,14.8c0,0.5,0.7,1.4,0.7,1.4l0.1,1.8c0,0-0.5,0.5-0.5,0.8
				c-0.1,7.7-1.2,13.2-1.2,13.2l-5.6,0.4C297,591.4,296,561.3,296.7,559z"/>
			<path class="st69" d="M302.3,559c0,0,0.2,13.4,0.2,32"/>
			<line class="st69" x1="288.9" y1="560.6" x2="296.5" y2="560.6"/>
			<line class="st69" x1="288.9" y1="580" x2="296.5" y2="580"/>
			<line class="st69" x1="298" y1="555.1" x2="298" y2="559"/>
			<g>
				<ellipse class="st72" cx="146.7" cy="535.6" rx="14.6" ry="14.4"/>
				<ellipse class="st73" cx="146.7" cy="535.6" rx="12.7" ry="12.5"/>
				<path class="st72" d="M152.2,520c-2.2-1.1-6.5-2.5-11.8-0.2c-5.3,2.4-7.7,7.6-7.8,12"/>
				<path class="st74" d="M142.4,523.8l3.4,9.9c0,0-0.3,0.1-0.7,0.5c-0.9-0.6-8.4-6.3-8.4-6.3"/>
				<path class="st74" d="M152.6,524.5l-4.5,9.1c0,0-0.7-0.2-1.2-0.1c-0.4-1.9-1.3-10.4-1.3-10.3"/>
				<path class="st74" d="M158.7,531.3l-9,3.7c0,0-0.1-0.3-0.5-0.7c0.6-0.9,6.1-8,6.1-8"/>
				<path class="st74" d="M158.3,540.9l-8.8-4c0,0,0.2-0.4,0.2-0.8c1-0.2,9.5-2.3,9.5-2.3"/>
				<path class="st74" d="M151.3,547.2l-3-8.9c0,0,0.3-0.1,0.7-0.5c0.9,0.6,7.5,5.6,7.5,5.6"/>
				<path class="st74" d="M141.8,547.1l4.4-8.6c0,0,0.5,0.1,0.9,0.1c0.4,1.9,1,8.3,1.1,9.4"/>
				<path class="st74" d="M135.2,540.9l9.2-3.8c0,0,0.1,0.3,0.5,0.7c-0.6,0.9-5.9,7.7-5.9,7.7"/>
				<path class="st74" d="M134.9,530.8l9.6,4.3c0,0-0.2,0.4-0.2,0.8c-1,0.2-10,2.3-10,2.3"/>
			</g>
			<g>
				<ellipse class="st72" cx="438" cy="535.6" rx="14.6" ry="14.4"/>
				<ellipse class="st73" cx="438" cy="535.6" rx="12.7" ry="12.5"/>
				<path class="st72" d="M432.5,520c2.2-1.1,6.5-2.5,11.8-0.2c5.3,2.4,7.7,7.6,7.8,12"/>
				<path class="st74" d="M442.4,523.8l-3.4,9.9c0,0,0.3,0.1,0.7,0.5c0.9-0.6,8.4-6.3,8.4-6.3"/>
				<path class="st74" d="M432.2,524.5l4.5,9.1c0,0,0.7-0.2,1.2-0.1c0.4-1.9,1.3-10.4,1.3-10.3"/>
				<path class="st74" d="M426.1,531.3l9,3.7c0,0,0.1-0.3,0.5-0.7c-0.6-0.9-6.1-8-6.1-8"/>
				<path class="st74" d="M426.4,540.9l8.8-4c0,0-0.2-0.4-0.2-0.8c-1-0.2-9.5-2.3-9.5-2.3"/>
				<path class="st74" d="M433.4,547.2l3-8.9c0,0-0.3-0.1-0.7-0.5c-0.9,0.6-7.5,5.6-7.5,5.6"/>
				<path class="st74" d="M442.9,547.1l-4.4-8.6c0,0-0.5,0.1-0.9,0.1c-0.4,1.9-1,8.3-1.1,9.4"/>
				<path class="st74" d="M449.5,540.9l-9.2-3.8c0,0-0.1,0.3-0.5,0.7c0.6,0.9,5.9,7.7,5.9,7.7"/>
				<path class="st74" d="M449.8,530.8l-9.6,4.3c0,0,0.2,0.4,0.2,0.8c1,0.2,10,2.3,10,2.3"/>
			</g>
		</g>
		<path class="st2" d="M287.8,316.9c0,0-45.1-1.6-49.6-2c-4.5-0.4-37.5-3.4-44.1-1.3c-6.6,2.1-9.1,3.4-10.6,5.4
			c-1.5,2-4.3,9.3-5.6,10.7s-5.4,6.5-6.4,11c-1,4.4-2.6,23.5-0.6,29.8c2.4,9.9,6.5,12.6,10.4,15.4c3.9,2.8,20.8,8.4,35.6,10
			c14.8,1.7,58.8,5.9,70.8,5.6"/>
		<path class="st2" d="M287.8,316.9c0,0,48.4-1.6,52.9-2s37.5-3.4,44.1-1.3c6.6,2.1,9.1,3.4,10.6,5.4c1.5,2,4.3,9.3,5.6,10.7
			s5.4,6.5,6.4,11c1,4.4,2.6,23.5,0.6,29.8c-2.4,9.9-6.5,12.6-10.4,15.4c-3.9,2.8-20.8,8.4-35.6,10s-62.1,5.9-74.1,5.6"/>
		<g>
			<path class="st2" d="M189.1,228.7c0,0,0.6-8.3-21-5.3c-17.5,5.3-23.5,29.4-23.5,29.4s-1,10.8,5,16.5c18.7,3.8,24.8-2.3,24.8-2.3
				s5.3-5.3,7.3-11.8s5-15.5,7-16.3S189.7,230.6,189.1,228.7z"/>
			<path class="st3" d="M144.5,253.1c0,0,8,11.3,25.9,0.5c13.8-12,9.8-23.6,19.4-25.5"/>
			<path class="st2" d="M149.5,269.3c0,0-3.1,10.3,0,24.9c3.1,14.7,14.1,64.1,14.1,64.1s0.5,2.8,5.9,2.8"/>
			<path class="st2" d="M188.5,238.8c0,0,0.8,0.8,1.5,2.6"/>
			<path class="st2" d="M182,253.6c0,0-5.7,21.3-6.4,31.4c-0.7,10.1-0.1,47.8-0.1,47.8"/>
			<path class="st2" d="M181,257.5c0,0,1.8,10.9,1,17.7c-0.8,6.8-5.2,56-5.2,56"/>
			<line class="st2" x1="186.9" y1="300.4" x2="185.6" y2="316.6"/>
			<line class="st2" x1="179" y1="265.7" x2="175.3" y2="308.2"/>
			<path class="st3" d="M149.9,269.3c0,0,0.8,2.4,2.9,2.9c2.1,0.6,13.8,3.1,22.5-2.6c2.7-1.9,3.3-8.2,3.3-8.2"/>
		</g>
		<g>
			<path class="st2" d="M389.5,228.7c0,0-0.6-8.3,21-5.3c17.5,5.3,23.5,29.4,23.5,29.4s1,10.8-5,16.5c-18.7,3.8-24.8-2.3-24.8-2.3
				s-5.3-5.3-7.3-11.8s-5-15.5-7-16.3C388.1,238,388.9,230.6,389.5,228.7z"/>
			<path class="st3" d="M434.1,253.1c0,0-8,11.3-25.9,0.5c-13.8-12-9.8-23.6-19.4-25.5"/>
			<path class="st2" d="M429.1,269.3c0,0,3.1,10.3,0,24.9c-3.1,14.7-14.1,64.1-14.1,64.1s-0.5,2.8-5.9,2.8"/>
			<path class="st2" d="M390.1,238.8c0,0-0.8,0.8-1.5,2.6"/>
			<path class="st2" d="M396.6,253.6c0,0,5.7,21.3,6.4,31.4c0.7,10.1,0.1,47.8,0.1,47.8"/>
			<path class="st2" d="M397.6,257.5c0,0-1.8,10.9-1,17.7c0.8,6.8,5.2,56,5.2,56"/>
			<line class="st2" x1="391.7" y1="300.4" x2="392.9" y2="316.6"/>
			<line class="st2" x1="399.5" y1="265.7" x2="403.3" y2="308.2"/>
			<path class="st3" d="M428.7,269.3c0,0-0.8,2.4-2.9,2.9c-2.1,0.6-13.8,3.1-22.5-2.6c-2.7-1.9-3.3-8.2-3.3-8.2"/>
		</g>
		<path class="st75" d="M290.4,23.7c0,0-35.2-1.5-43.7,9.3c-8.9,11.4-14.7,50.4-20.8,55.9c-7.3,7.2-24.8,24.3-27,26.5
			c-8.1,8.2-14,21.8-8.1,45.5s3,46.4,3,46.4l-5.3,45c0,0-3.3,41-1.2,48.4c2.2,7.5,3.3,13.4,3.3,13.4"/>
		<path class="st65" d="M290.4,23.7c0,0,33.4-0.8,41.9,9.3c9.2,11.1,14.5,50.4,20.6,55.9c7.2,7.2,24.5,24.3,26.7,26.5
			c8,8.2,13.8,21.8,8,45.5s-2.9,46.4-2.9,46.4l5.2,45c0,0,3.3,41,1.2,48.4c-2.1,7.5-3.3,13.4-3.3,13.4"/>
		<path class="st2" d="M226.7,397.1c-1.2-9.5,0.7-49.1,2.2-60c1.5-10.9,3.6-22.6,3.6-22.6"/>
		<path class="st2" d="M184.8,317.8c0,0-2.3,6.9-2.5,10c-3.6,5.1-6.6,7.3-7.1,10.5c-0.5,3.2-0.7,9.9,11.2,14.6
			c11.9,4.7,40.7,9.7,40.7,9.7"/>
		<path class="st2" d="M346.8,314.8c0,0,2.1,11.7,3.6,22.6c1.5,10.9,3.4,50.5,2.2,60"/>
		<path class="st2" d="M394.6,318.1c0,0,2.3,6.9,2.5,10c3.6,5.1,6.6,7.3,7.1,10.5c0.5,3.2,0.7,9.9-11.2,14.6
			c-11.9,4.7-40.7,9.7-40.7,9.7"/>
		<path class="st71" d="M230,329c0,0,41.2,7.7,119.2,0"/>
		<path class="st75" d="M232.5,314.5c0,0,5.9-73.3,5.9-106.9s-24.4-54,16.3-82.2c15.4-10.8,35.3-10.7,35.3-10.7"/>
		<line class="st3" x1="225.9" y1="88.9" x2="254.7" y2="125.4"/>
		<path class="st75" d="M345.5,314.5c0,0-7.4-82.5-5.9-106.9s24.2-54.4-16.3-82.2c-15.4-10.8-33.3-10.7-33.3-10.7"/>
		<line class="st3" x1="352.1" y1="88.9" x2="323.3" y2="125.4"/>
		<line class="st3" x1="238.4" y1="206.5" x2="339.6" y2="206.5"/>
		<line class="st3" x1="238.4" y1="210.4" x2="339.6" y2="210.4"/>
		<line class="st66" x1="237.6" y1="233.8" x2="340" y2="233.8"/>
		<line class="st66" x1="237.6" y1="237.7" x2="340" y2="237.7"/>
		<line class="st67" x1="236.3" y1="258.5" x2="341.3" y2="258.5"/>
		<line class="st67" x1="236.3" y1="262.2" x2="341.3" y2="262.2"/>
		<line class="st68" x1="234.6" y1="285.1" x2="343.2" y2="285.1"/>
		<line class="st68" x1="234.6" y1="288.8" x2="343.2" y2="288.8"/>
	</g>
</g>
<text transform="matrix(1 0 0 1 275.5663 101.3974)" class="st15 st76 st77">52cm</text>
<g>
	<g>
		<line class="st78" x1="190.8" y1="105.4" x2="386.4" y2="105.4"/>
	</g>
	<line class="st78" x1="188.7" y1="138.3" x2="188.7" y2="99.1"/>
	<polygon class="st15" points="189,105.4 199.9,111.7 199.9,99.1 	"/>
	<line class="st78" x1="389.8" y1="138.3" x2="389.8" y2="99.1"/>
	<polygon class="st15" points="389.4,105.4 378.6,111.7 378.6,99.1 	"/>
</g>
<g>
	<text transform="matrix(1 0 0 1 275.5663 198.4839)" class="st15 st76 st77">47cm</text>
</g>
<g>
	<g>
		<line class="st79" x1="183.7" y1="202.5" x2="396.9" y2="202.5"/>
	</g>
	<line class="st80" x1="180.7" y1="244.6" x2="180.7" y2="196.2"/>
	<polygon class="st15" points="181,202.5 191.9,208.8 191.9,196.2 	"/>
	<line class="st80" x1="397.9" y1="244.6" x2="397.9" y2="196.2"/>
	<polygon class="st15" points="397.6,202.5 386.7,208.8 386.7,196.2 	"/>
</g>
<g>
	<text transform="matrix(1 0 0 1 275.5663 285.9643)" class="st15 st76 st77">49cm</text>
</g>
<g>
	<g>
		<line class="st81" x1="189.1" y1="290" x2="385.7" y2="290"/>
	</g>
	<line class="st79" x1="187" y1="296.3" x2="187" y2="283.7"/>
	<polygon class="st15" points="187.4,290 198.3,296.3 198.3,283.7 	"/>
	<line class="st80" x1="391.7" y1="296.3" x2="391.7" y2="283.7"/>
	<polygon class="st15" points="391.3,290 380.4,296.3 380.4,283.7 	"/>
</g>
<g>
	<text transform="matrix(1 0 0 1 275.5663 366.2988)" class="st15 st76 st77">54cm</text>
</g>
<g>
	<g>
		<line class="st82" x1="171.9" y1="370.3" x2="400.7" y2="370.3"/>
	</g>
	<line class="st79" x1="169.8" y1="376.6" x2="169.8" y2="364"/>
	<polygon class="st15" points="170.1,370.3 181,376.6 181,364 	"/>
	<line class="st80" x1="408.9" y1="376.6" x2="408.9" y2="364"/>
	<polygon class="st15" points="408.6,370.3 397.7,376.6 397.7,364 	"/>
</g>
</svg>
