<?xml version="1.0" encoding="utf-8"?>
<!-- Generator: Adobe Illustrator 23.0.1, SVG Export Plug-In . SVG Version: 6.00 Build 0)  -->
<svg version="1.1" id="Camada_1" xmlns="http://www.w3.org/2000/svg" xmlns:xlink="http://www.w3.org/1999/xlink" x="0px" y="0px"
	 viewBox="0 0 600 600" style="enable-background:new 0 0 600 600;" xml:space="preserve">
<style type="text/css">
	.st0{fill:#E8E7E7;}
	.st1{fill:#FFFFFF;}
	.st2{fill:none;stroke:#020203;stroke-miterlimit:10;}
	.st3{fill:none;stroke:#020203;stroke-width:0.5;stroke-miterlimit:10;}
	.st4{fill:none;stroke:#020203;stroke-width:0.9506;stroke-miterlimit:10;}
	.st5{fill:none;stroke:#020203;stroke-width:0.827;stroke-miterlimit:10;}
	.st6{fill:none;stroke:#020203;stroke-width:0.5195;stroke-miterlimit:10;}
	.st7{fill:#FFFFFF;stroke:#020203;stroke-width:0.5;stroke-miterlimit:10;}
	.st8{fill:#F3F2F2;stroke:#020203;stroke-miterlimit:10;}
	.st9{fill:none;stroke:#020203;stroke-width:0.5255;stroke-miterlimit:10;}
	.st10{fill:none;stroke:#020203;stroke-width:1.0509;stroke-miterlimit:10;}
	.st11{fill:none;stroke:#020203;stroke-width:0.4155;stroke-miterlimit:10;}
	.st12{fill:none;}
	.st13{fill:none;stroke:#D41F19;stroke-width:1.4493;stroke-miterlimit:10;}
	.st14{fill:none;stroke:#D41F19;stroke-width:1.5;stroke-miterlimit:10;}
	.st15{fill:#D41F19;}
	.st16{fill:none;stroke:#D41F19;stroke-width:1.3972;stroke-miterlimit:10;}
	.st17{fill:none;stroke:#D41F19;stroke-width:1.4149;stroke-miterlimit:10;}
	.st18{fill:none;stroke:#D41F19;stroke-width:1.5415;stroke-miterlimit:10;}
	.st19{fill:none;stroke:#D41F19;stroke-width:1.4077;stroke-miterlimit:10;}
	.st20{fill:none;stroke:#D41F19;stroke-width:1.2223;stroke-miterlimit:10;}
	.st21{fill:none;stroke:#D41F19;stroke-width:1.359;stroke-miterlimit:10;}
	.st22{fill:none;stroke:#D41F19;stroke-width:1.362;stroke-miterlimit:10;}
	.st23{fill:none;stroke:#D41F19;stroke-width:1.3128;stroke-miterlimit:10;}
	.st24{fill:none;stroke:#D41F19;stroke-width:1.3941;stroke-miterlimit:10;}
	.st25{fill:none;stroke:#D41F19;stroke-width:1.4643;stroke-miterlimit:10;}
	.st26{fill:none;stroke:#D41F19;stroke-width:1.2895;stroke-miterlimit:10;}
	.st27{fill:none;stroke:#B5241F;stroke-width:1.42;stroke-miterlimit:10;}
	.st28{fill:none;stroke:#B5241F;stroke-width:1.38;stroke-miterlimit:10;}
	.st29{fill:none;stroke:#B5241F;stroke-width:1.22;stroke-miterlimit:10;}
	.st30{fill:#B5241F;}
	.st31{fill:#E6E6E6;}
	.st32{fill:none;stroke:#B5241F;stroke-width:1.37;stroke-miterlimit:10;}
	.st33{fill:none;stroke:#B5241F;stroke-width:1.39;stroke-miterlimit:10;}
	.st34{fill:none;stroke:#B5241F;stroke-width:1.28;stroke-miterlimit:10;}
	.st35{fill:none;stroke:#B5241F;stroke-width:1.33;stroke-miterlimit:10;}
	.st36{fill:none;stroke:#B5241F;stroke-width:1.46;stroke-miterlimit:10;}
	.st37{fill:none;stroke:#B5241F;stroke-width:1.29;stroke-miterlimit:10;}
	.st38{fill:#E7E6E6;}
	.st39{fill:#FFFFFF;stroke:#020203;stroke-width:0.48;stroke-miterlimit:10;}
	.st40{fill:#F2F2F2;stroke:#020203;stroke-width:0.96;stroke-miterlimit:10;}
	.st41{fill:none;stroke:#020203;stroke-width:0.96;stroke-miterlimit:10;}
	.st42{fill:none;stroke:#020203;stroke-width:0.48;stroke-miterlimit:10;}
	.st43{fill:none;stroke:#020203;stroke-width:0.91;stroke-miterlimit:10;}
	.st44{fill:none;stroke:#020203;stroke-width:0.79;stroke-miterlimit:10;}
	.st45{fill:#F3F3F3;stroke:#020203;stroke-width:0.96;stroke-miterlimit:10;}
	.st46{fill:none;stroke:#020203;stroke-width:1.01;stroke-miterlimit:10;}
	.st47{fill:none;stroke:#020203;stroke-width:0.53;stroke-miterlimit:10;}
	.st48{fill:none;stroke:#020203;stroke-width:0.42;stroke-miterlimit:10;}
	.st49{fill:none;stroke:#020203;stroke-width:0.95;stroke-miterlimit:10;}
	.st50{fill:none;stroke:#020203;stroke-width:0.83;stroke-miterlimit:10;}
	.st51{fill:none;stroke:#020203;stroke-width:0.52;stroke-miterlimit:10;}
	.st52{fill:none;stroke:#B5241F;stroke-width:1.53;stroke-miterlimit:10;}
	.st53{fill:none;stroke:#B5241F;stroke-width:1.5;stroke-miterlimit:10;}
	.st54{fill:none;stroke:#B5241F;stroke-width:1.51;stroke-miterlimit:10;}
	.st55{fill:none;stroke:#B5241F;stroke-width:1.6;stroke-miterlimit:10;}
	.st56{fill:none;stroke:#000000;stroke-width:0.96;stroke-miterlimit:10;}
	.st57{fill:none;stroke:#000000;stroke-width:0.48;stroke-miterlimit:10;}
	.st58{fill:none;stroke:#000000;stroke-width:0.9126;stroke-miterlimit:10;}
	.st59{fill:none;stroke:#000000;stroke-width:0.7939;stroke-miterlimit:10;}
	.st60{fill:none;stroke:#000000;stroke-width:0.4988;stroke-miterlimit:10;}
	.st61{fill:#FFFFFF;stroke:#000000;stroke-width:0.48;stroke-miterlimit:10;}
	.st62{fill:#F3F2F2;stroke:#000000;stroke-width:0.96;stroke-miterlimit:10;}
	.st63{fill:none;stroke:#000000;stroke-width:0.5045;stroke-miterlimit:10;}
	.st64{fill:none;stroke:#000000;stroke-width:1.0089;stroke-miterlimit:10;}
	.st65{fill:none;stroke:#020203;stroke-width:0.9639;stroke-miterlimit:10;}
	.st66{fill:none;stroke:#020203;stroke-width:0.5029;stroke-miterlimit:10;}
	.st67{fill:none;stroke:#020203;stroke-width:0.5095;stroke-miterlimit:10;}
	.st68{fill:none;stroke:#020203;stroke-width:0.5182;stroke-miterlimit:10;}
	.st69{fill:none;stroke:#000000;stroke-width:0.5;stroke-miterlimit:10;}
	.st70{fill:none;stroke:#000000;stroke-miterlimit:10;}
	.st71{fill:none;stroke:#000000;stroke-width:0.4155;stroke-miterlimit:10;}
	.st72{fill:none;stroke:#000000;stroke-width:0.9506;stroke-miterlimit:10;}
	.st73{fill:none;stroke:#000000;stroke-width:0.827;stroke-miterlimit:10;}
	.st74{fill:none;stroke:#000000;stroke-width:0.5195;stroke-miterlimit:10;}
	.st75{fill:none;stroke:#020203;stroke-width:0.9699;stroke-miterlimit:10;}
	.st76{fill:none;stroke:#D41F19;stroke-width:1.3689;stroke-miterlimit:10;}
	.st77{fill:none;stroke:#D41F19;stroke-width:1.4294;stroke-miterlimit:10;}
	.st78{fill:none;stroke:#D41F19;stroke-width:1.8389;stroke-miterlimit:10;}
	.st79{fill:none;stroke:#D41F19;stroke-width:1.3723;stroke-miterlimit:10;}
	.st80{fill:none;stroke:#D41F19;stroke-width:1.4808;stroke-miterlimit:10;}
	.st81{fill:none;stroke:#D41F19;stroke-width:1.3947;stroke-miterlimit:10;}
	.st82{fill:none;stroke:#D41F19;stroke-width:1.313;stroke-miterlimit:10;}
	.st83{font-family:'Roboto-Regular';}
	.st84{font-size:13.3245px;}
	.st85{fill:none;stroke:#D41F19;stroke-width:1.3456;stroke-miterlimit:10;}
	.st86{fill:none;stroke:#D41F19;stroke-width:1.2309;stroke-miterlimit:10;}
	.st87{fill:none;stroke:#D41F19;stroke-width:1.3365;stroke-miterlimit:10;}
	.st88{fill:none;stroke:#D41F19;stroke-width:1.328;stroke-miterlimit:10;}
	.st89{fill:#FFFFFF;stroke:#1E1E1C;stroke-miterlimit:10;}
	.st90{fill:#FFFFFF;stroke:#1E1E1C;stroke-linejoin:bevel;}
	.st91{fill:none;stroke:#1E1E1C;stroke-linejoin:round;}
	.st92{fill:none;stroke:#1E1E1C;stroke-miterlimit:10;}
	.st93{fill:none;stroke:#1E1E1C;stroke-linecap:round;stroke-miterlimit:10;}
	.st94{fill:#1E1E1C;}
	.st95{fill:none;stroke:#E20D18;stroke-width:1.62;stroke-miterlimit:10;}
	.st96{fill:none;stroke:#E20D18;stroke-width:1.81;stroke-miterlimit:10;}
	.st97{fill:#E20D18;}
	.st98{fill:none;stroke:#E20D18;stroke-width:1.63;stroke-miterlimit:10;}
	.st99{fill:none;stroke:#E20D18;stroke-width:1.54;stroke-miterlimit:10;}
	.st100{fill:none;stroke:#E20D18;stroke-width:1.74;stroke-miterlimit:10;}
	.st101{fill:none;stroke:#E20D18;stroke-width:1.58;stroke-miterlimit:10;}
	.st102{fill:none;stroke:#E20D18;stroke-width:1.69;stroke-miterlimit:10;}
	.st103{fill:none;stroke:#E20D18;stroke-width:1.76;stroke-miterlimit:10;}
	.st104{fill:#FFFFFF;stroke:#1E1E1C;stroke-width:2;stroke-miterlimit:10;}
	.st105{fill:#FFFFFF;stroke:#1E1E1C;stroke-width:2;stroke-linejoin:bevel;}
	.st106{fill:none;stroke:#1E1E1C;stroke-width:1.3;stroke-miterlimit:10;}
	.st107{fill:none;stroke:#E20D18;stroke-width:1.56;stroke-miterlimit:10;}
	.st108{fill:none;stroke:#E20D18;stroke-width:1.57;stroke-miterlimit:10;}
	.st109{fill:none;stroke:#E20D18;stroke-width:1.53;stroke-miterlimit:10;}
	.st110{fill:none;stroke:#E20D18;stroke-width:1.52;stroke-miterlimit:10;}
	.st111{fill:none;stroke:#E20D18;stroke-width:1.06;stroke-miterlimit:10;}
	.st112{fill:none;stroke:#E20D18;stroke-width:0.99;stroke-miterlimit:10;}
	.st113{fill:none;stroke:#E20D18;stroke-width:1.09;stroke-miterlimit:10;}
	.st114{fill:none;stroke:#E20D18;stroke-width:1.03;stroke-miterlimit:10;}
	.st115{fill:none;stroke:#E20D18;stroke-width:1.71;stroke-miterlimit:10;}
</style>
<rect x="347.8" y="438.2" class="st0" width="46" height="14.1"/>
<g>
	<g>
		<rect x="292.7" y="557.2" class="st1" width="10.6" height="24.3"/>
		<g>
			<path class="st1" d="M451.2,535.3L451.2,535.3c-0.1-4.2-2.4-9.2-7.5-11.5c-5.1-2.3-9.2-0.9-11.3,0.2V523h0c0-0.3-0.6-0.6-0.8-0.6
				l-0.8,0l0-0.1c3.6-0.1,6.3-1.4,6.3-1.9c-0.1-0.7,0.7-2.3,0.2-6.3c-0.5-4-4.9-4.8-4.9-4.8c-14.2-7.6-30-13.4-45.3-17.9l0.1,0
				c0,0,0.2-2.7-0.3-5.3l0,0l0,0c-0.5-2.3-1.5-4.6-3.7-4.8l0.1,0l-4.8-1.1c0,0-0.5,0.2-1.1,0.6l-2.8-2c0.7-0.2,1.1-0.4,1.1-0.4l0,0
				h1.8c0,0,2.8-8.8-8.4-10.7c-25.8-6.9-52.2,2.1-55.4,3.3c-0.1-11.7-0.4-33.6-0.4-34.5l-0.5,0c0.1,0,0.3-0.1,0.4-0.1
				c-0.5-1.4-3-1.6-3-1.6l-22.4-14.9l-0.6,14.9c-0.6,0.1-1.2,0.3-1.7,0.6c0.6-2.2,1.1-3.9,1.1-3.9l-4.3-1.6l-0.9-0.3l-9,25.2
				c0,0-0.5,1.7,0.2,2.1c0,0,3.7,1.3,4,1.3c0.4,0,2.6-3.6,3-5.1c0.5-1.5,0.4-2.1,0.2-2.8c-0.3-0.7,0.3-1.2,0.6-1.5
				c0.3-0.4,1-2.1,0.9-2.9c-0.1-0.9,1-1.1,1.5-2c0.2-0.3,0.6-1.6,1.1-3.3c-0.2,6.4-0.6,19.3-0.9,30.7h-0.2c0,0-28.2-10.8-55.7-3.4
				c-11.2,1.8-8.4,10.7-8.4,10.7h1.8c0,0,0.4,0.2,1,0.4l-1.8,1.4l-0.9,0.6c0,0,0.3-0.2,0.8-0.6l-0.8,0.6c-0.7-0.4-1.2-0.6-1.2-0.6
				l-4.8,1.1l0.1,0c-2.3,0.2-3.3,2.5-3.7,4.8l0,0l0,0c-0.5,2.6-0.3,5.3-0.3,5.3l0.1,0c-15.3,4.5-31.1,10.3-45.3,17.9
				c0,0-4.4,0.8-4.9,4.8c-0.5,4,0.4,5.5,0.2,6.3c-0.1,0.4,2,1.5,5,1.8c-0.2,0-0.7,0.3-0.7,0.5h0v1.1c-2.1-1-6.2-2.4-11.3-0.2
				c-5.1,2.3-7.4,7.3-7.5,11.5l0,0c-0.3,1.2-0.5,2.4-0.5,3.6c0,7.6,6.3,13.8,14,13.8c7.7,0,14-6.2,14-13.8c0-1.2-0.2-2.4-0.5-3.5
				c0.4-0.3,0.6-1.2,0.6-1.2l0.4-11.2l-0.1,0.7l0-0.5c0.2-0.5-0.6-0.9-1.2-1.1v-1c0,0,0,0,0,0c0,0,4.2,0.2,4.4-4.5
				c1.1-0.6,2.4-1.1,3.9-1.4c4.8-0.9,45.4-16.9,101.4-18.4c2.7,1.7,4.7,2.6,5.2,2.8l0-0.1l0.5,0.3c0.5,15.1,1.4,37.9,2,42.1
				c1,6.4,0,11.7,0,11.7s3.1,5,9.4,5.2l0,0l0,0l0,0c0,0,0,0,0.1,0l0,0l0,0c6.3-0.3,9.4-5.2,9.4-5.2s-1-5.3,0-11.7
				c0.6-4.2,1.5-27.2,2-42.3l0.1-0.1c0.5-0.2,2.6-1,5.1-2.7c56,1.4,96.6,17.5,101.4,18.4c1.5,0.3,2.8,0.8,3.9,1.4
				c0.2,4.7,4.4,4.5,4.4,4.5c0,0.1,0.1,0.1,0.1,0.2v1l-0.1,0c-0.5,0.1-1.6,0.5-1.6,1l0,0l0.4,11.2c0,0,0.2,0.8,0.5,1.2
				c-0.3,1.1-0.4,2.2-0.4,3.4c0,7.6,6.3,13.8,14,13.8c7.7,0,14-6.2,14-13.8C451.7,537.7,451.5,536.4,451.2,535.3z M171.5,535.3
				C171.5,535.3,171.5,535.2,171.5,535.3l0-0.1L171.5,535.3z M362.8,475.5c0,0,0,2.4,3.7,3.5l0.2,0.2c0,0-2.8,1.2-3.9,5.7l-0.1,0.3
				c-8.3-1.8-16-3.3-22.4-4.3C348.8,477.2,356.7,475.9,362.8,475.5z M255.8,480.9c-6.4,1.1-14.1,2.5-22.4,4.3l-0.1-0.3
				c-1.1-4.5-3.9-5.7-3.9-5.7l-0.1-0.1c4-1.1,3.9-3.6,3.9-3.6C239.4,475.9,247.3,477.2,255.8,480.9z"/>
			<path class="st1" d="M294.2,561.4h-5.4c0,0-1.3,5.5-1.2,14.2c0,0.5-0.7,1.4-0.7,1.4l-0.1,1.7c0,0,0.5,0.5,0.5,0.8
				c0.1,7.4,1.2,12.7,1.2,12.7l5.3,0.3C294,592.5,295,563.6,294.2,561.4z"/>
			<path class="st1" d="M308.5,575.6c0.1-8.7-1.2-14.2-1.2-14.2h-5.4c-0.7,2.2,0.3,31.1,0.3,31.1l5.3-0.3c0,0,1.1-5.3,1.2-12.7
				c0-0.3,0.5-0.8,0.5-0.8l-0.1-1.7C309.2,576.9,308.5,576.1,308.5,575.6z"/>
			<path class="st1" d="M288.7,421.4c2.6,0.8,14.6,26.4,17.4,26.4c3.8,0,4.6-25.8,4-27.3c-0.5-1.3-3.4-1.5-4-1.6c0-2.3,0-5.5,0-5.5
				l-1.1-0.1c0.3,0,1.5-0.1,2-1.1c0.9-1.3,2.4-2.4,3.4-2.7c1-0.3,5.7-2,6.2-2.8l0,0c4.2-0.2,6.9-0.4,6.9-0.4s0.1,0,0.1,0l-0.6,0.4
				l1,0.2l-0.1-0.7c0,0,0,0,0,0l0.1,0.7l0,0l0.1,0.6l0,0l0.2,0.9l0,0l0.1,0.7l0,0l0.2,1l0,0l0.1,0.6l0,0l0.2,1.1l0,0l0.1,0.6l0,0
				l0.2,1.2l0,0l0.1,0.6l0,0l0.2,1l0,0l-0.2-1l-0.8,0.5l0.8,0.5l-1.4,0.2l2.7,18.3l-0.2,0c0,0,0.1,0,0.2,0c0.7,0.3,6.6,3,13.2,2
				c7.1-1.1,12.4-5.9,12.4-5.9l0-0.2c0,0,0,0,0,0l0,0l-2.7-17.8l-1.7,0.2l0-0.3l0.7-0.9l-0.9-0.3l-0.1-0.7l0.7-0.7l-0.8-0.3
				l-0.1-0.9l0.7-0.7l-0.8-0.3l-0.2-1l0.7-0.7l-0.8-0.2l-0.1-0.8l0.7-0.6l-0.8-0.2l-0.2-1l0.8-0.6l-0.9-0.2l-0.1-1l0.7-0.6l-0.9-0.8
				l0,0c0.8-0.4,1.5-0.8,2-1.1c1.8-1.3,2.3-3.5,2.5-4.4c0.8-0.4,1.7-0.8,2.6-1.3c13.1,1.4,31.7,3.5,33.8,3.9
				c3.3,0.6,35.8,8.7,38.9,6.3c3.1-2.4,8.4-10.3,9.7-16c1.2-5.7,3-16.2-1.9-22.3c-3.8-4.8-13.5-19.9-19.7-28l0,0c0,0,0,0,0,0
				c-1.7-2.2-3.1-3.9-4.1-4.7c-4.7-3.9-6.8-4.6-6.8-4.6v0c0.3-0.7,0.6-1.2,0.8-1.6c3.3-6.7,7-16.3,7.1-21.3c0-1.5-0.1-2.7-0.3-3.8
				l0,0c0,0,0,0,0,0c-0.5-2.5-1.8-4.1-3.7-7.1c-2-5.1,3.8-7.3,3.8-7.3s0.7-1.4,1.2-2.5c4-0.9,6.3-8.8,6.3-8.8s0.6-1.1,0.1-2.9l0,0
				l0,0c-0.8-2.8-4.1-7.3-16-12.4c-3.8-1.9-8.4-3.6-13.5-5.2l1,0.1c0.1-0.6,1.6-1.6,2.1-1.8c0.5-0.1,1.3-1.8,1.3-3
				c0.9-0.5,2.5-5.9,2.5-5.9s1.6-1.5,0.9-4.2l0,0c0,0,0,0,0,0c-0.3-1.1-0.9-2.4-2.2-3.9c-4.4-5.1-33.2-10.4-45.5-13.3
				c-12.2-2.8-41.9-5.3-62.3-4.9c-20,0.4-34.4,3.6-38.8,6.9c-0.4,0.1-0.7,0.2-0.7,0.2l0.4,0c-4,3.4,3,11.1,3,11.1s-2.4-0.1-3.8,0.7
				c-1.4,0.9,1.3,5.7,1.3,5.7s-1.8,0.4-4.3,1.1l0,0c-0.3-2.3-6.7-16.8-11.6-28.5l-4.9-12.5l-12.9-67l-7.9-32.5l0-42.4
				c-0.5-12.7-2-24.8-4.7-30.7c-1.9-4.2-4-7.3-6.5-9.6l0,0l0,0c-3.1-2.8-6.9-4.2-11.9-4.5c-9.2-0.6-11.4,8-11.4,8s-4.8,30-7.9,61.5
				l0,0l0,0c-1.9,19.6-3.2,39.8-2.2,53.7c2.7,36.2,17.8,87.9,22,101.5c4.2,13.5,12.4,66.8,7.3,82.4s-9.8,35.3-6.9,41.3
				c2.7,5.6,9.7,10.2,20,5.9l0,0l0,0c0.7-0.3,1.4-0.6,2.1-1c0.4-0.2,0.7-0.5,1-0.7l0,0c0,0-3.7,17.5,0.9,23.2
				c3.3,4,17.7,5.7,40.7,3.9c11.4,2.7,27.8,6.9,31.9,10.1c0.2,0.1,0.4,0.2,0.6,0.3l0,0c0,0,0.6,4.3,4.5,5c0.3,0.1,0.6,0.1,0.8,0.2
				c0,1.5,0,2.8-0.1,3.1c-0.1,1.1-4,15-4.5,15.9c1.8,0.7,3.4,1.1,3.4,1.1L288.7,421.4z M291.6,412.6L291.6,412.6l-0.1,6.2h-0.1
				c0,0-1,0.1-2.1,0.3l0.3-1c0,0,0.7-2.5,0.6-4.3c0-0.4,0-1,0-1.7C290.8,412.2,291.2,412.4,291.6,412.6z"/>
			<polygon class="st1" points="325,412.5 324.1,413.1 325.2,413.7 			"/>
			<polygon class="st1" points="324.7,410.8 323.8,411.5 324.9,411.9 			"/>
			<polygon class="st1" points="324.4,409.2 323.5,409.9 324.6,410.2 			"/>
			<polygon class="st1" points="324.1,407.6 323.2,408.2 324.3,408.5 			"/>
		</g>
	</g>
	<polygon class="st0" points="242.8,281 239.6,301.1 259.9,318.3 274.2,317.2 	"/>
	<polygon class="st0" points="279,275 251.6,275.8 286.2,316.8 339.4,314.8 356.7,287.5 339.4,282.7 312.1,277.6 	"/>
	<polygon class="st0" points="381.3,319.6 360.2,316 372.7,293.3 383.4,298.9 386.3,305.3 	"/>
	<g>
		<g>
			<g>
				<path class="st56" d="M313.3,436.5c0,1.2,0.5,41.7,0.5,41.7s-12.3,6.6-30.9-0.7c0.6-16.6,1.3-41.3,1.3-41.3s1.4-1.4,3-1.5"/>
				<path class="st56" d="M310.1,434.8c0,0,2.5,0.2,3,1.6c-17.1,4.3-29-0.1-29-0.1"/>
				<g>
					<path class="st56" d="M282.9,471.1c0,0-28.2-10.8-55.7-3.4c-11.2,1.8-8.4,10.7-8.4,10.7h1.8c0,0,0-1.5,0.7-1.9
						c1.1-0.7,16.6-3.4,34.8,4.5"/>
					<path class="st57" d="M220.6,478.4c0,0,3.9,1.9,8.4,0.9c4.5-1,4.4-3.8,4.4-3.8"/>
					<path class="st56" d="M276,478.2c0,0-65.4,6.2-112.2,31.2c0,0-4.4,0.8-4.9,4.8c-0.5,4,0.4,5.5,0.2,6.3
						c-0.1,0.7,6.1,3.4,12.2,0.8c1.2-2.5,3.7-5.1,8.4-6c4.8-0.9,45.4-16.9,101.4-18.4c2.7,1.7,4.7,2.6,5.2,2.8"/>
					<path class="st57" d="M171.4,521c0,0,4.3,0.2,4.4-4.5"/>
					<path class="st56" d="M313.4,471.1c0,0,28.2-10.8,55.7-3.4c11.2,1.8,8.4,10.7,8.4,10.7h-1.8c0,0,0-1.5-0.7-1.9
						c-1.1-0.7-16.6-3.4-34.8,4.5"/>
					<path class="st57" d="M375.7,478.4c0,0-3.9,1.9-8.4,0.9c-4.5-1-4.4-3.8-4.4-3.8"/>
					<path class="st56" d="M320.3,478.2c0,0,65.4,6.2,112.2,31.2c0,0,4.4,0.8,4.9,4.8c0.5,4-0.4,5.5-0.2,6.3
						c0.1,0.7-6.1,3.4-12.2,0.8c-1.2-2.5-3.7-5.1-8.4-6c-4.8-0.9-45.4-16.9-101.4-18.4c-2.7,1.7-4.7,2.6-5.2,2.8"/>
					<path class="st57" d="M424.8,521c0,0-4.3,0.2-4.4-4.5"/>
					<path class="st56" d="M286.4,486.1c0,0,1.5,49.5,2.5,55.9c1,6.4,0,11.7,0,11.7s3.1,5,9.4,5.2"/>
					<path class="st56" d="M310.2,486.1c0,0-1.5,49.5-2.5,55.9c-1,6.4,0,11.7,0,11.7s-3.1,5-9.4,5.2"/>
				</g>
				<g>
					<path class="st56" d="M208.9,491.5c0,0-0.8-9.9,4.2-10.2c5-0.3,7.7,6.9,7.7,6.9"/>
					<path class="st56" d="M212.9,481.4l4.8-1.1c0,0,5.2,2,6,7.3"/>
					<path class="st57" d="M223.8,479.4v1.1c0,0,3.4,1.5,5.4,0c0-0.6,0-1.3,0-1.3"/>
					<path class="st57" d="M223.7,480c0,0-1.2,0.2-1.2,0.8s5.7,2.3,8.1-0.1c-0.3-0.8-1.5-0.7-1.5-0.7"/>
					<line class="st57" x1="222.6" y1="480.7" x2="222.6" y2="484.1"/>
					<line class="st57" x1="230.7" y1="480.7" x2="230.7" y2="485.7"/>
					<path class="st56" d="M218.9,480.8c0,0,1.4-1,2.8-2"/>
					<path class="st56" d="M229.5,479.3c0,0,2.8,1.2,3.9,5.7"/>
					<polyline class="st57" points="210.1,484.3 213.1,490.3 212.3,490.6 209.2,486.2 					"/>
					<line class="st57" x1="212.4" y1="481.5" x2="213.6" y2="490"/>
					<line class="st57" x1="214.3" y1="481.5" x2="214.3" y2="490"/>
					<path class="st57" d="M218.2,483.9c0,0-3,5.5-3.2,5.8"/>
					<line class="st57" x1="216.5" y1="489.4" x2="219.4" y2="485.6"/>
				</g>
				<g>
					<path class="st56" d="M387.3,491.5c0,0,0.8-9.9-4.2-10.2c-5-0.3-7.7,6.9-7.7,6.9"/>
					<path class="st56" d="M383.3,481.4l-4.8-1.1c0,0-5.2,2-6,7.3"/>
					<path class="st57" d="M372.4,479.4v1.1c0,0-3.4,1.5-5.4,0c0-0.6,0-1.3,0-1.3"/>
					<path class="st57" d="M372.5,480c0,0,1.2,0.2,1.2,0.8c0,0.5-5.7,2.3-8.1-0.1c0.3-0.8,1.5-0.7,1.5-0.7"/>
					<line class="st57" x1="373.7" y1="480.7" x2="373.7" y2="484.1"/>
					<line class="st57" x1="365.6" y1="480.7" x2="365.6" y2="485.7"/>
					<path class="st56" d="M377.4,480.8c0,0-1.4-1-2.8-2"/>
					<path class="st56" d="M366.7,479.3c0,0-2.8,1.2-3.9,5.7"/>
					<polyline class="st57" points="386.2,484.3 383.1,490.3 384,490.6 387,486.2 					"/>
					<line class="st57" x1="383.9" y1="481.5" x2="382.6" y2="490"/>
					<line class="st57" x1="381.9" y1="481.5" x2="382" y2="490"/>
					<path class="st57" d="M378,483.9c0,0,3,5.5,3.2,5.8"/>
					<line class="st57" x1="379.8" y1="489.4" x2="376.9" y2="485.6"/>
				</g>
				<path class="st56" d="M164.2,522.3c-0.4-0.1-2.1,1,1.2,1.5c2.5,0.4,6.9,0,7.2-0.7c0.3-0.6-1-1.1-1.5-1.2"/>
				<line class="st57" x1="171" y1="521.4" x2="171" y2="523.4"/>
				<line class="st56" x1="163.4" y1="523" x2="163.4" y2="526"/>
				<path class="st56" d="M172.7,523l-0.4,11.2c0,0-0.2,1-0.6,1.2"/>
				<g>
					<ellipse class="st58" cx="158.1" cy="538.9" rx="14" ry="13.8"/>
					<ellipse class="st59" cx="158.1" cy="538.9" rx="12.2" ry="12"/>
					<path class="st58" d="M163.4,524c-2.1-1-6.2-2.4-11.3-0.2c-5.1,2.3-7.4,7.3-7.5,11.5"/>
					<path class="st60" d="M154,527.6l3.2,9.5c0,0-0.3,0.1-0.7,0.5c-0.8-0.6-8.1-6-8.1-6"/>
					<path class="st60" d="M163.8,528.3l-4.3,8.8c0,0-0.7-0.2-1.1-0.1c-0.3-1.9-1.2-9.9-1.2-9.9"/>
					<path class="st60" d="M169.6,534.8l-8.7,3.5c0,0-0.1-0.3-0.5-0.7c0.6-0.8,5.8-7.6,5.8-7.6"/>
					<path class="st60" d="M169.3,544.1l-8.4-3.8c0,0,0.2-0.4,0.2-0.8c1-0.2,9.1-2.2,9.1-2.2"/>
					<path class="st60" d="M162.6,550.1l-2.9-8.5c0,0,0.3-0.1,0.7-0.5c0.8,0.6,7.2,5.4,7.2,5.4"/>
					<path class="st60" d="M153.4,550l4.3-8.3c0,0,0.5,0.1,0.9,0.1c0.3,1.9,1,8,1.1,9"/>
					<path class="st60" d="M147.1,544l8.9-3.6c0,0,0.1,0.3,0.5,0.7c-0.6,0.8-5.6,7.4-5.6,7.4"/>
					<path class="st60" d="M146.8,534.4l9.2,4.1c0,0-0.2,0.4-0.2,0.8c-1,0.2-9.6,2.2-9.6,2.2"/>
				</g>
				<g>
					<ellipse class="st58" cx="437.8" cy="538.9" rx="14" ry="13.8"/>
					<ellipse class="st59" cx="437.8" cy="538.9" rx="12.2" ry="12"/>
					<path class="st58" d="M432.5,524c2.1-1,6.2-2.4,11.3-0.2c5.1,2.3,7.4,7.3,7.5,11.5"/>
					<path class="st60" d="M442,527.6l-3.2,9.5c0,0,0.3,0.1,0.7,0.5c0.8-0.6,8.1-6,8.1-6"/>
					<path class="st60" d="M432.2,528.3l4.3,8.8c0,0,0.7-0.2,1.1-0.1c0.3-1.9,1.2-9.9,1.2-9.9"/>
					<path class="st60" d="M426.3,534.8l8.7,3.5c0,0,0.1-0.3,0.5-0.7c-0.6-0.8-5.8-7.6-5.8-7.6"/>
					<path class="st60" d="M426.6,544l8.4-3.8c0,0-0.2-0.4-0.2-0.8c-1-0.2-9.1-2.2-9.1-2.2"/>
					<path class="st60" d="M433.4,550.1l2.9-8.5c0,0-0.3-0.1-0.7-0.5c-0.8,0.6-7.2,5.4-7.2,5.4"/>
					<path class="st60" d="M442.5,550l-4.3-8.3c0,0-0.5,0.1-0.9,0.1c-0.3,1.9-1,8-1.1,9"/>
					<path class="st60" d="M448.8,544l-8.9-3.6c0,0-0.1,0.3-0.5,0.7c0.6,0.8,5.6,7.4,5.6,7.4"/>
					<path class="st60" d="M449.1,534.4l-9.2,4.1c0,0,0.2,0.4,0.2,0.8c1,0.2,9.6,2.2,9.6,2.2"/>
				</g>
				<path class="st56" d="M431.7,522.5c0.4-0.1,2.1,1-1.2,1.5c-2.5,0.4-6.9,0-7.2-0.7c-0.3-0.6,1-1.1,1.5-1.2"/>
				<line class="st57" x1="424.9" y1="521.5" x2="424.9" y2="523.6"/>
				<line class="st56" x1="432.5" y1="523.2" x2="432.5" y2="526.2"/>
				<path class="st56" d="M423.2,523.2l0.4,11.2c0,0,0.2,1,0.6,1.2"/>
				<line class="st57" x1="292.7" y1="557.2" x2="292.7" y2="561.3"/>
				<path class="st56" d="M294.3,561.4H289c0,0-1.3,5.5-1.2,14.2c0,0.5-0.7,1.4-0.7,1.4l-0.1,1.7c0,0,0.5,0.5,0.5,0.8
					c0.1,7.4,1.2,12.7,1.2,12.7l5.3,0.3C294.1,592.5,295.1,563.6,294.3,561.4z"/>
				<path class="st57" d="M289,561.4c0,0-0.2,12.8-0.2,30.7"/>
				<path class="st56" d="M302,561.4h5.4c0,0,1.3,5.5,1.2,14.2c0,0.5,0.7,1.4,0.7,1.4l0.1,1.7c0,0-0.5,0.5-0.5,0.8
					c-0.1,7.4-1.2,12.7-1.2,12.7l-5.3,0.3C302.3,592.5,301.3,563.6,302,561.4z"/>
				<path class="st57" d="M307.4,561.4c0,0,0.2,12.8,0.2,30.7"/>
				<line class="st57" x1="294.5" y1="562.9" x2="301.9" y2="562.9"/>
				<line class="st57" x1="294.5" y1="581.5" x2="301.9" y2="581.5"/>
				<line class="st57" x1="303.3" y1="557.6" x2="303.3" y2="561.4"/>
				<line class="st56" x1="287.2" y1="420.4" x2="287.2" y2="437.1"/>
				<path class="st56" d="M291.5,418.8c0,0-4.1,0.3-4.3,1.6c-0.2,1.3,8.4,2.2,12.2,2.2c3.8,0,11.3-0.6,10.7-2.2
					c-0.6-1.5-4.1-1.6-4.1-1.6"/>
				<path class="st56" d="M291.6,412.6v7.6c0,0,8.2,1.9,14.6,0c0-1.8,0-7,0-7"/>
			</g>
			<line class="st56" x1="310.1" y1="420.4" x2="310.1" y2="437.2"/>
			<path class="st57" d="M286.8,403.2c-0.5-1.6,0.2-5.4,0.5-6.3c0.3-1,0.8-2.2,2.6-2.3c1.7-0.1,2.1,2.3,2.1,2.3s-0.1,6.1-1,7.1"/>
			<path class="st56" d="M249.1,395.3c0,0,25.5,5,31.9,10c4.1,2,9.5,1.7,20.9,1.8c11.4,0.1,21.6-0.7,21.6-0.7s3.8,0,5.5-2.4
				s14.5-7,14.5-7s2.3-0.6,8.9-4.3"/>
			<path class="st56" d="M281.6,405.6c0,0,0.6,4.3,4.5,5c3.9,0.7,5.5,2.3,7.2,2.7c1.7,0.4,11.7,0,11.7,0s1.6,0.1,2.1-1.1
				c0.9-1.3,2.4-2.4,3.4-2.7c1-0.3,5.7-2,6.2-2.8"/>
			<circle class="st57" cx="307.8" cy="401.4" r="3.1"/>
			<path class="st61" d="M290.5,403.1c0,0,0.2-3.4-1.5-3.2c-2.1,0.1-2,2.9-2,2.9s0,10-0.1,11.1s-4,15-4.5,15.9
				c1.8,0.7,3.4,1.1,3.4,1.1l4-12.8c0,0,0.7-2.5,0.6-4.3C290.4,411.9,290.5,403.1,290.5,403.1"/>
			<path class="st62" d="M282.4,429.8l-0.9-0.3l-9,25.2c0,0-0.5,1.7,0.2,2.1c0,0,3.7,1.3,4,1.3c0.4,0,2.6-3.6,3-5.1
				c0.5-1.5,0.4-2.1,0.2-2.8c-0.3-0.7,0.3-1.2,0.6-1.5c0.3-0.4,1-2.1,0.9-2.9c-0.1-0.9,1-1.1,1.5-2s3.7-12.4,3.7-12.4L282.4,429.8z"
				/>
			<g>
				<polyline class="st63" points="346.1,399.4 347,400.2 345.4,401.5 347.3,401.8 345.6,403.2 347.5,403.7 346.1,404.9 
					347.8,405.4 346.4,406.8 348.1,407.3 346.8,408.7 348.4,409.2 347.2,410.3 348.7,410.9 347.9,411.9 				"/>
				<polyline class="st63" points="323.9,406.2 323.1,406.8 324.8,407.1 323.3,408.2 325.1,408.7 323.6,409.9 325.3,410.3 
					323.9,411.5 325.6,412.1 324.2,413.1 325.9,414 324.6,414.8 325.6,415.4 				"/>
				<line class="st63" x1="346.9" y1="400.2" x2="329.1" y2="403.9"/>
				<line class="st63" x1="347.3" y1="401.8" x2="323.2" y2="406.8"/>
				<line class="st63" x1="347.3" y1="403.8" x2="323.8" y2="408.2"/>
				<line class="st63" x1="347.7" y1="405.3" x2="323.9" y2="409.8"/>
				<line class="st63" x1="348.1" y1="407.3" x2="324.2" y2="411.5"/>
				<line class="st63" x1="348.3" y1="409.3" x2="324.5" y2="413.2"/>
				<line class="st63" x1="348.7" y1="410.9" x2="324.9" y2="414.7"/>
			</g>
			<path class="st64" d="M324,415.5l25.7-3.6l2.7,17.9c0,0-5.2,4.9-12.4,5.9c-7.1,1.1-13.3-2-13.3-2L324,415.5z"/>
			<path class="st63" d="M326.6,433.8c0,0,12.4,0.7,25.8-4.1"/>
			<path class="st63" d="M350.6,393.5c0,0-0.2,3.1-2.5,4.8c-2.1,1.5-7.2,3.3-7.2,3.3"/>
		</g>
		<path class="st65" d="M217.1,359.3c0,0-1.9,3.7-10.6,9.5c-11.5,5.9-19.2,1.1-22.1-4.9c-2.9-6,1.8-25.8,6.9-41.3
			c5.1-15.5-3.1-68.8-7.3-82.4c-4.2-13.5-19.3-65.3-22-101.5c-2.7-36.2,10.1-115.3,10.1-115.3s2.2-8.5,11.4-8
			c9.2,0.6,14.2,4.9,18.4,14.1s5.6,33.6,4.6,51.6s0.6,26.9,1.9,31.2s8.6,32.1,9.9,37.3c1.3,5.2,6.2,43,9.1,52.3
			c2.9,9.3,16,37.8,16.4,41.1"/>
		<path class="st2" d="M207.5,368.1c0,0-3.7,17.5,0.9,23.2s31.4,6.7,73.4-0.3"/>
		<path class="st56" d="M340.2,391.1c0,0,43.5,4.7,46.8,5.3s35.8,8.7,38.9,6.3c3.1-2.4,8.4-10.3,9.7-16c1.2-5.7,3-16.2-1.9-22.3
			c-4.9-6.1-19.2-28.9-23.9-32.8c-4.7-3.9-6.8-4.6-6.8-4.6"/>
		<path class="st56" d="M250.4,319.8c0,0,75.3-6.9,102.5-4s27.9,4,27.9,4"/>
		<path class="st65" d="M242.9,280.8c0,0-0.3,14.4-5.2,26.8"/>
		<path class="st65" d="M232.7,322.7c0,0-2.7,11-5.6,16.4"/>
		<path class="st2" d="M432.4,362.7c0,0-3.8,4.5-19.3-1.4c-15.5-5.9-24-8.9-24-8.9"/>
		<path class="st2" d="M363.6,346.7c0,0-28-9.1-87.8-2.3"/>
		<path class="st56" d="M257,346.1c0,0-13.9,1-18.4,1.9"/>
		<g>
			<line class="st65" x1="356.6" y1="287.8" x2="339.3" y2="315.1"/>
			<line class="st65" x1="372.4" y1="293.4" x2="359.9" y2="316.5"/>
			<g>
				<g>
					<path class="st2" d="M205.6,294.2c0,0-11.7,25.8-10.2,35.5c1.6,9.7,5.6,14,5.6,14s15.3,16,23.2,21.4
						c7.9,5.4,30.6,20.5,30.6,20.5s4.6,8.5,84.7,5.7"/>
					<path class="st2" d="M220,310c0,0-3.1,10.7-2.2,16.5c0.9,5.9,6.8,10.6,6.8,10.6s34.5,27.5,46.7,33.3c12.1,5.8,6.2-2.1,6.2-2.1
						s-20.4-23-28.2-29.8C241.5,331.8,220,310,220,310z"/>
					<path class="st2" d="M219.8,309.7c0,0-16.5-15-18.7-23.4s1.6-14.9,7.7-17.9c6.1-2.9,23.9-6.8,23.9-6.8s-3.2-9.4-1.3-12.8
						c1.9-3.4,16.7-6.6,16.7-6.6s36.6-3.7,66.1-0.9c29.5,2.8,68.7,8.7,88.1,18.1c19.6,8.4,15.9,15.3,15.9,15.3s-2.3,7.9-6.3,8.8
						c-0.5,1.1-1.2,2.5-1.2,2.5s-5.8,2.2-3.8,7.3c2.7,4.2,4.1,5.8,4,10.8s-3.7,14.6-7.1,21.3s-25.4,48.9-36.2,55.7
						c-10.8,6.8-28.4,10.2-28.4,10.2"/>
					<path class="st2" d="M235.8,277.6c0,0-9.8,7.5-10.5,16.5c3.3,5.7,14.4,15.3,14.4,15.3s49.7,48.4,53.4,51.5
						c3.7,3.1,8.5,6.9,16.7,7.2c8.2,0.2,25-1,29.3-1.8c4.2-0.8,14.3-5.3,19.5-12.5s24.5-34.3,26.5-43.8c3.3-10.3-5.7-13.4-5.7-13.4
						S320,266.6,235.8,277.6z"/>
					<path class="st3" d="M274.7,357.7c0,0-67.4-65.3-68.7-70c-1.3-4.7-6.2-12.1,6.8-15.2s58.3-10.4,92.7-3.8
						c34.4,6.5,87.1,18.3,96.2,27.5c9,9.2-3.6,31.4-3.6,31.4s-17.6,32-23.7,38.5c-6.1,6.5-14.7,17.8-31.7,19.5
						c-17,1.8-64.7,2.5-64.7,2.5s-13.6,0.1-29.2-9.8s-50.2-34.8-50.2-47.2s9-34,9-34"/>
					<path class="st2" d="M411.9,283.5c0,0-94-36.8-170.8-20.9c-6,0.7-8.4-1.4-8.4-1.4"/>
					<path class="st9" d="M232.1,248c0,0,37.4-4.5,53.7-4.3c16.3,0.2,46,1.2,74,9.3c28,8.1,51.8,19.1,58.5,18.7"/>
					<path class="st3" d="M410.5,300.3c0,0-5.4-9.9-18.7-14.4c-13.3-4.6-56.9-17.8-77.9-20c-21.1-2.2-61.5-2.1-70-1.7"/>
					<path class="st3" d="M410,286.3c0,0-2.8-1-17-5.4c-14.2-4.4-59.3-16.9-95.5-18c-38.4-1.1-53,1.1-53,1.1"/>
					<path class="st2" d="M248.2,242.1c0,0-2.7-4.8-1.3-5.7c1.4-0.9,3.8-0.7,3.8-0.7s-7.1-7.7-3-11.1c4.1-3.4,18.7-6.7,39-7.1
						c20.4-0.4,50,2.1,62.3,4.9s41,8.1,45.5,13.3c4.4,5.1,1.3,8.1,1.3,8.1s-1.6,5.3-2.5,5.9c-0.1,1.1-0.8,2.8-1.3,3
						c-0.5,0.1-2,1.1-2.1,1.8"/>
					<path class="st9" d="M247.3,224.6c0,0,20.5-5.1,38.7-4.9c18.2,0.2,44.1,0.2,68.2,6c24.1,5.8,42.5,13.8,42.5,13.8"/>
					<path class="st2" d="M250.7,235.7c0,0,39.5-4.9,58-4.2c12.9,0.5,61.7,6.9,84.6,18"/>
					<path class="st9" d="M391.5,252.2c0,0-18.1-8-32.8-10.4c-14.7-2.4-53.7-14.2-103.4-3.9"/>
					<circle class="st3" cx="212.7" cy="282.2" r="3.5"/>
				</g>
				<circle class="st3" cx="205.8" cy="332.8" r="3.5"/>
				<circle class="st3" cx="263.6" cy="381.8" r="3.5"/>
				<circle class="st3" cx="345.9" cy="379.5" r="3.5"/>
				<line class="st56" x1="239.8" y1="277.1" x2="274.1" y2="317.9"/>
				<line class="st56" x1="251.5" y1="276" x2="286.1" y2="317"/>
				<line class="st56" x1="239.8" y1="301.2" x2="259.8" y2="319"/>
			</g>
		</g>
		<path class="st56" d="M195.4,20c0,0-2.6,25.3-1.9,48.4s-4.6,56.9-3.2,66.6c1.5,9.8,3.7,21,12.3,46.5c8.7,25.5,26.2,73.7,27.1,80.7
			"/>
		<path class="st56" d="M232.7,280.5c0,0,0,14.4-1.4,20.9"/>
		<path class="st56" d="M227.4,317.4c0,0-4.1,12.8-5.9,16.6"/>
		<path class="st56" d="M211.3,353.9c0,0-0.6,6.9-6.9,15.9"/>
		<path class="st3" d="M242.1,243.7c0,0-14.4-27.2-17.8-39.1c-2.1-7.6-7.3-50.2-13.1-63.4s-7.1-9.6-7.1-9.6"/>
		<path class="st3" d="M201.9,29.6c0,0-4.8,48.9-3.1,64.9c1.7,16,7.6,51.8,11.2,69.9s20.4,74.3,25.4,81.7"/>
		<path class="st3" d="M164.1,85c0,0,17.3-9.2,29.1,0c3.4,2.8,5.2,7.6,5.2,7.6"/>
		<line class="st3" x1="206.9" y1="104.7" x2="201.3" y2="113.3"/>
		<path class="st2" d="M256.5,325.7c0,0,65.9-4.9,86,0c20.4,0,34.2,1.3,34.2,1.3"/>
		<path class="st2" d="M400.3,331.8c0,0,9.3,1,13.6,4.6"/>
		<path class="st2" d="M231.5,327c0,0,3.2-0.4,5.1-0.4"/>
		<path class="st2" d="M428.5,357.2c0,0-17.4-13.8-34.1-14.2"/>
		<path class="st2" d="M368.1,340.2c0,0-17.6,0.1-24.7-0.6c-7.1-0.8-22.4-4.7-72.5,0.1"/>
		<path class="st2" d="M251.9,340.9c0,0-12.4,1-19.7,2.1"/>
		<line class="st3" x1="342.5" y1="325.7" x2="346.1" y2="339.7"/>
	</g>
</g>
<line class="st81" x1="136.4" y1="371.2" x2="136.4" y2="17.9"/>
<line class="st82" x1="130.1" y1="371.4" x2="197.1" y2="371.4"/>
<line class="st20" x1="131" y1="14" x2="185.5" y2="14"/>
<polygon class="st15" points="136.4,13.4 142.7,24.3 130.1,24.3 "/>
<polygon class="st15" points="136.4,371.2 130.1,360.3 142.7,360.3 "/>
<rect x="117" y="187.5" class="st0" width="38.7" height="14.1"/>
<g>
	<text transform="matrix(1 0 0 1 120.0961 198.4765)" class="st15 st83 st84">71cm</text>
</g>
<line class="st21" x1="301.4" y1="592.5" x2="533.3" y2="592.5"/>
<g>
	<line class="st85" x1="214.1" y1="454.4" x2="428.4" y2="454.4"/>
</g>
<line class="st20" x1="206.8" y1="460.6" x2="206.8" y2="387.9"/>
<polygon class="st15" points="207.2,454.4 218,460.6 218,448.1 "/>
<line class="st86" x1="436.7" y1="460.6" x2="436.7" y2="379.7"/>
<polygon class="st15" points="436.3,454.4 425.4,460.6 425.4,448.1 "/>
<g>
	<text transform="matrix(1 0 0 1 356.1928 450.9756)" class="st15 st83 st84">50cm</text>
</g>
<line class="st87" x1="478.5" y1="592" x2="478.5" y2="369.6"/>
<line class="st24" x1="527" y1="591.4" x2="527" y2="251.4"/>
<rect x="447.1" y="490.5" class="st0" width="67.7" height="14.1"/>
<g>
	<text transform="matrix(1 0 0 1 450.1459 501.4633)" class="st15 st83 st84">42 a 52cm</text>
</g>
<rect x="465.1" y="375.4" class="st0" width="28.8" height="14.1"/>
<g>
	<text transform="matrix(1 0 0 1 468.1537 386.352)" class="st15 st83 st84">9cm</text>
</g>
<rect x="495.7" y="413.9" class="st0" width="62.7" height="14.7"/>
<g>
	<text transform="matrix(1 0 0 1 499.7748 425.2861)" class="st15 st83 st84">69 a 77cm</text>
</g>
<line class="st25" x1="421" y1="403.4" x2="484.8" y2="403.4"/>
<line class="st88" x1="431.1" y1="361.5" x2="484.8" y2="361.5"/>
<line class="st26" x1="319.9" y1="241.1" x2="533.3" y2="241.1"/>
<polygon class="st15" points="527,241.9 533.3,252.8 520.8,252.8 "/>
<polygon class="st15" points="527,592.2 520.8,581.3 533.3,581.3 "/>
<polygon class="st15" points="478.5,592 472.2,581.5 484.8,581.5 "/>
<polygon class="st15" points="478.5,403.3 472.2,392.9 484.8,392.9 "/>
<polygon class="st15" points="478.5,402.9 484.8,413.3 472.2,413.3 "/>
<polygon class="st15" points="478.5,361.2 484.8,371.6 472.2,371.6 "/>
</svg>
