<?xml version="1.0" encoding="UTF-8"?>
<!-- Generator: Adobe Illustrator 21.0.0, SVG Export Plug-In . SVG Version: 6.00 Build 0)  -->
<svg version="1.1" id="Camada_1" xmlns="http://www.w3.org/2000/svg" xmlns:xlink="http://www.w3.org/1999/xlink" x="0px" y="0px" viewBox="0 0 377.5 669.1" style="enable-background:new 0 0 377.5 669.1;" xml:space="preserve">
<style type="text/css">
	.st0{fill:none;stroke:#000000;stroke-width:2;stroke-miterlimit:10;}
	.st1{fill:none;stroke:#000000;stroke-width:3;stroke-miterlimit:10;}
</style>
<g>
	<title>GTO</title>
	<polyline class="st0" points="230.8,451.4 231.7,452.4 229.8,453.7 232,454.3 230,455.6 232,456.4 230.3,457.6 232.2,458.2    230.5,459.7 232.4,460.5 230.8,461.9 232.5,462.6 231.1,463.7 232.7,464.5 231.8,465.6  "/>
	<polyline class="st0" points="204.3,453.5 206.2,454.8 204.5,455.9 206.3,456.6 204.6,457.6 206.5,458.2 204.7,459.3 206.6,460    204.9,461.2 206.7,461.8 205,463 206.9,463.8 205.2,464.8 207.1,465.9 205.6,466.8 206.6,467.5  "/>
	<line class="st0" x1="231.6" y1="452.5" x2="204.5" y2="455.9"/>
	<line class="st0" x1="232" y1="454.3" x2="204.7" y2="457.8"/>
	<line class="st0" x1="231.8" y1="456.4" x2="205.3" y2="459.3"/>
	<line class="st0" x1="232" y1="458.2" x2="205.3" y2="461.1"/>
	<line class="st0" x1="232.4" y1="460.5" x2="205.4" y2="463.1"/>
	<line class="st0" x1="232.4" y1="462.6" x2="205.6" y2="465"/>
	<line class="st0" x1="232.7" y1="464.5" x2="205.9" y2="466.6"/>
	<path class="st1" d="M204.8,467.5l28.9-1.7l1.4,20.2c-4.2,3.1-9.1,5-14.3,5.5c-5.1,0.2-10.1-1-14.6-3.4L204.8,467.5z"/>
	<path class="st0" d="M206.1,488c9.7,1,19.6,0.2,29-2.3"/>
	<path class="st1" d="M207.9,488.8c0,1.4,0.7,45.6,0.7,45.6s-14.4,7.7-36.3-0.8c0.7-19.5,1.5-48.4,1.5-48.4c1.1-0.8,2.3-1.4,3.6-1.8   "/>
	<path class="st1" d="M173.8,485.3c0,0,7.9,5.9,32.3,1.5"/>
	<path class="st1" d="M155.5,442.9c0,0-46.4,6.8-52,7.7c-3.2,0.4-5.9,2.4-7.3,5.3l-5.1,12.3c0.5,1.1,1.9,1.6,3,1.1   c0.2-0.1,0.4-0.2,0.5-0.3c1-3.2,4.7-11,4.7-11c1.1-1.7,2.9-3,4.9-3.6c8.2-1.7,57.1-8.4,57.1-8.4"/>
	<polyline class="st0" points="90.9,467.8 87.6,467.6 90.1,470.2 96.7,471.8 94.8,469.2  "/>
	<path class="st1" d="M87.4,467.5c0,0-12.5,16.2-14.1,19s-1.5,8.4,2.4,8.5c1.4,0.4,2.8,1.1,4,2.1c0,0,1.3,1.1,4.3,0.4   c1.8,0.2,2.4,0.6,3.6,0.3s3.1-1.6,4.2-4.8s5.1-21,5.1-21"/>
	<path class="st0" d="M90.1,470.2l-6.5,11.7c0,0,0.8,4.5,5.8,1.5c2-3.9,3.8-7.9,5.4-12c0,0-3.2,14.6-4,17.5c-0.9,3.5-2,5.2-2.9,5.5   c-1,0.2-2.1,0.2-3.1,0.1c-1.4,0-2.9,0.6-3.7,0.2c-1-0.8-2.2-1.4-3.4-1.8c-3.5-0.6-1.7-4.8-0.4-7.2s10.9-17,10.9-17"/>
	<path class="st1" d="M172.3,526.1c0,0-33.1-12.6-65.3-4c-13.1,2.1-9.8,12.5-9.8,12.5h2.1c0,0,0.1-1.7,0.8-2.3   c1.3-0.9,19.4-4,40.8,5.3"/>
	<path class="st0" d="M99.2,534.5c3.1,1.4,6.5,1.7,9.8,1.1c5.3-1.2,5.2-4.4,5.2-4.4"/>
	<path class="st1" d="M164.2,534.3c0,0-76.7,7.2-131.6,36.6c0,0-5.1,0.9-5.7,5.6s0.5,6.5,0.3,7.4s7.2,4,14.3,0.9   c1.4-2.9,4.3-6,9.9-7.1s53.3-19.9,119-21.5c1.9,1.3,4,2.4,6.1,3.2"/>
	<path class="st0" d="M41.6,584.6c0,0,5,0.3,5.2-5.3"/>
	<path class="st1" d="M208.1,526.1c0,0,33.1-12.6,65.3-4c13.1,2.1,9.8,12.5,9.8,12.5h-2.1c0,0,0-1.7-0.8-2.3   c-1.3-0.9-19.4-4-40.7,5.3"/>
	<path class="st0" d="M281.1,534.5c-3.1,1.4-6.5,1.7-9.8,1.1c-5.3-1.2-5.2-4.4-5.2-4.4"/>
	<path class="st1" d="M216.2,534.3c0,0,76.7,7.3,131.6,36.6c0,0,5.1,0.9,5.7,5.6s-0.5,6.5-0.3,7.4s-7.2,4-14.3,0.9   c-1.4-2.9-4.3-6-9.9-7.1s-53.3-19.9-118.9-21.6c-1.9,1.3-4,2.4-6.1,3.2"/>
	<path class="st0" d="M338.7,584.6c0,0-5,0.3-5.2-5.3"/>
	<path class="st1" d="M176.5,543.5c0,0,1.8,58,2.9,65.5c0.7,4.6,0.7,9.2,0,13.8c2.5,3.7,6.6,5.9,11.1,6.1"/>
	<path class="st1" d="M204.4,543.5c0,0-1.8,58-2.9,65.5c-0.7,4.6-0.7,9.2,0,13.8c-2.5,3.7-6.6,5.9-11.1,6.1"/>
	<path class="st1" d="M85.6,550c0,0-0.9-11.6,5-11.9s9.1,8,9.1,8"/>
	<path class="st1" d="M90.3,538.1l5.7-1.3c0,0,6.1,2.3,7,8.6"/>
	<path class="st0" d="M103.1,535.7v1.3c0,0,4,1.8,6.3,0c0-0.7,0-1.5,0-1.5"/>
	<path class="st0" d="M102.9,536.4c0,0-1.4,0.3-1.4,0.9s6.7,2.7,9.5-0.1c-0.4-0.9-1.7-0.8-1.7-0.8"/>
	<line class="st0" x1="101.6" y1="537.3" x2="101.6" y2="541.2"/>
	<line class="st0" x1="111.1" y1="537.3" x2="111.1" y2="543.2"/>
	<path class="st1" d="M97.3,537.4c0,0,1.6-1.1,3.3-2.3"/>
	<path class="st1" d="M109.7,535.6c0,0,3.2,1.3,4.5,6.6"/>
	<polyline class="st0" points="86.9,541.6 90.5,548.6 89.5,548.8 85.9,543.8  "/>
	<line class="st0" x1="89.7" y1="538.2" x2="91.1" y2="548.2"/>
	<line class="st0" x1="91.9" y1="538.2" x2="91.8" y2="548.2"/>
	<path class="st0" d="M96.5,541c0,0-3.6,6.4-3.7,6.8"/>
	<line class="st0" x1="94.4" y1="547.5" x2="97.9" y2="543"/>
	<path class="st1" d="M294.8,550c0,0,0.9-11.6-5-11.9s-9.1,8-9.1,8"/>
	<path class="st1" d="M290.1,538.1l-5.7-1.3c0,0-6.1,2.3-7,8.6"/>
	<path class="st0" d="M277.3,535.7v1.3c0,0-4,1.8-6.3,0c0-0.7,0-1.5,0-1.5"/>
	<path class="st0" d="M277.4,536.4c0,0,1.4,0.3,1.4,0.9s-6.7,2.7-9.5-0.1c0.4-0.9,1.7-0.8,1.7-0.8"/>
	<line class="st0" x1="278.8" y1="537.3" x2="278.8" y2="541.2"/>
	<line class="st0" x1="269.3" y1="537.3" x2="269.3" y2="543.2"/>
	<path class="st1" d="M283.1,537.4c0,0-1.6-1.1-3.3-2.3"/>
	<path class="st1" d="M270.6,535.6c0,0-3.2,1.3-4.5,6.6"/>
	<polyline class="st0" points="293.4,541.6 289.9,548.6 290.9,548.8 294.4,543.8  "/>
	<line class="st0" x1="290.7" y1="538.2" x2="289.3" y2="548.2"/>
	<line class="st0" x1="288.4" y1="538.2" x2="288.5" y2="548.2"/>
	<path class="st0" d="M283.9,541c0,0,3.6,6.4,3.7,6.8"/>
	<line class="st0" x1="285.9" y1="547.5" x2="282.5" y2="543"/>
	<path class="st1" d="M33.2,586c-0.5-0.1-2.4,1.2,1.4,1.8c3,0.5,8.1,0,8.5-0.8s-1.2-1.3-1.8-1.4"/>
	<line class="st0" x1="41.1" y1="585" x2="41.1" y2="587.4"/>
	<line class="st1" x1="32.2" y1="586.8" x2="32.2" y2="590.4"/>
	<path class="st1" d="M43.1,586.8L42.6,600c0,0-0.3,1.1-0.7,1.4"/>
	<ellipse class="st0" cx="26" cy="605.6" rx="16.4" ry="16.2"/>
	<ellipse class="st0" cx="26" cy="605.6" rx="14.3" ry="14.1"/>
	<path class="st0" d="M32.2,588c-7.5-3.8-16.7-0.7-20.5,6.8c-1,2-1.6,4.3-1.6,6.5"/>
	<path class="st0" d="M21.1,592.3l3.8,11.2c-0.3,0.1-0.6,0.3-0.8,0.6c-1-0.7-9.5-7.1-9.5-7.1"/>
	<path class="st0" d="M32.6,593.1l-5.1,10.3c-0.4-0.1-0.9-0.2-1.3-0.1c-0.4-2.2-1.5-11.7-1.5-11.7"/>
	<path class="st0" d="M39.5,600.7l-10.2,4.2c-0.1-0.3-0.3-0.6-0.5-0.8c0.7-1,6.9-9,6.9-9"/>
	<path class="st0" d="M39.1,611.6l-9.9-4.5c0.2-0.3,0.2-0.6,0.3-0.9c1.2-0.2,10.7-2.6,10.7-2.6"/>
	<path class="st0" d="M31.2,618.7l-3.4-10c0.3-0.1,0.6-0.3,0.8-0.5c1,0.7,8.5,6.3,8.5,6.3"/>
	<path class="st0" d="M20.5,618.5l5-9.7c0.3,0.1,0.7,0.1,1.1,0.1c0.4,2.2,1.1,9.4,1.3,10.6"/>
	<path class="st0" d="M13.1,611.6l10.4-4.2c0.1,0.3,0.3,0.6,0.5,0.8c-0.7,1-6.6,8.7-6.6,8.7"/>
	<path class="st0" d="M12.8,600.2l10.8,4.8c-0.2,0.3-0.2,0.6-0.3,0.9c-1.2,0.2-11.2,2.6-11.2,2.6"/>
	<ellipse class="st0" cx="354" cy="605.6" rx="16.5" ry="16.2"/>
	<ellipse class="st0" cx="354" cy="605.6" rx="14.3" ry="14.1"/>
	<path class="st0" d="M347.7,588c7.5-3.8,16.7-0.7,20.5,6.8c1,2,1.6,4.3,1.6,6.5"/>
	<path class="st0" d="M358.8,592.3l-3.8,11.2c0.3,0.1,0.6,0.3,0.8,0.6c1-0.7,9.5-7.1,9.5-7.1"/>
	<path class="st0" d="M347.4,593l5.1,10.3c0.4-0.1,0.9-0.2,1.3-0.1c0.4-2.2,1.5-11.7,1.5-11.7"/>
	<path class="st0" d="M340.5,600.7l10.2,4.2c0.1-0.3,0.3-0.6,0.5-0.8c-0.7-1-6.9-9-6.9-9"/>
	<path class="st0" d="M340.9,611.6l9.9-4.5c-0.2-0.3-0.2-0.6-0.3-0.9c-1.2-0.2-10.7-2.6-10.7-2.6"/>
	<path class="st0" d="M348.7,618.7l3.4-10c-0.3-0.1-0.6-0.3-0.8-0.5c-1,0.7-8.5,6.3-8.5,6.3"/>
	<path class="st0" d="M359.5,618.5l-5-9.7c-0.3,0.1-0.7,0.1-1.1,0.1c-0.4,2.2-1.1,9.4-1.3,10.6"/>
	<path class="st0" d="M366.9,611.5l-10.4-4.2c-0.1,0.3-0.3,0.6-0.5,0.8c0.7,1,6.6,8.7,6.6,8.7"/>
	<path class="st0" d="M367.2,600.2l-10.8,4.8c0.2,0.3,0.2,0.6,0.3,0.9c1.2,0.2,11.2,2.6,11.2,2.6"/>
	<path class="st1" d="M346.8,586.3c0.5-0.1,2.5,1.2-1.4,1.8c-3,0.5-8.1,0-8.5-0.8s1.2-1.3,1.8-1.4"/>
	<line class="st0" x1="338.9" y1="585.2" x2="338.9" y2="587.6"/>
	<line class="st1" x1="347.7" y1="587.1" x2="347.7" y2="590.6"/>
	<path class="st1" d="M336.9,587.1l0.5,13.2c0,0,0.3,1.1,0.7,1.4"/>
	<line class="st0" x1="183.8" y1="627" x2="183.8" y2="631.8"/>
	<path class="st1" d="M185.7,631.9h-6.3c-1.1,5.5-1.5,11-1.4,16.6c-0.1,0.6-0.4,1.1-0.8,1.6l-0.1,2c0,0,0.6,0.6,0.6,0.9   c0.1,5,0.5,10,1.4,14.9l6.3,0.4C185.4,668.3,186.6,634.5,185.7,631.9z"/>
	<path class="st0" d="M179.4,631.9c0,0-0.3,15-0.3,36"/>
	<path class="st1" d="M194.8,631.9h6.3c1.1,5.5,1.5,11,1.4,16.6c0.1,0.6,0.4,1.1,0.8,1.6l0.1,2c0,0-0.6,0.6-0.6,0.9   c-0.1,5-0.5,10-1.4,14.9l-6.3,0.4C195.1,668.3,193.9,634.5,194.8,631.9z"/>
	<path class="st0" d="M201.1,631.9c0,0,0.3,15,0.3,36"/>
	<line class="st0" x1="185.9" y1="633.6" x2="194.6" y2="633.6"/>
	<line class="st0" x1="185.9" y1="655.4" x2="194.6" y2="655.4"/>
	<line class="st0" x1="196.2" y1="627.4" x2="196.2" y2="631.9"/>
	<line class="st1" x1="177.4" y1="466.6" x2="177.4" y2="486.8"/>
	<path class="st1" d="M182.4,464.7c0,0-4.8,0.4-5.1,1.8s9.8,2.6,14.3,2.6s13.3-0.7,12.6-2.6s-4.8-1.8-4.8-1.8"/>
	<path class="st1" d="M182.5,457.5v9c0,0,9.6,2.2,17.1,0v-8.2"/>
	<path class="st1" d="M160.8,445c0,0,1.7,3.5,3.8,3.9s18.5,1.5,18.5,1.5"/>
	<path class="st1" d="M165,449c0,0,2.4,2.3,7.7,3.5c6.2,1.4,12,2.5,12,2.5s5.5,0.6,7.9,0.6s13.1-0.8,13.1-0.8"/>
	<path class="st1" d="M174.6,452.9c0,0,6.4,3.8,8.4,4.3s12.3,0.8,13.2,0.7c3.2-0.7,6.4-1.6,9.6-2.7"/>
	<path class="st1" d="M182.4,456.9c-0.1,0.8,0.4,1.5,1.1,1.8c1.3,0.6,14.2,0.8,15.1,0.4c0.9-0.4,1.6-1.2,2-2.2"/>
	<path class="st1" d="M159.7,310.1c2.9,3.3,5.4,6.9,7.5,10.8c3.1,6.1-4.8,29.7-4.8,29.7s-23,57-33,63.5s-29.1,4.6-29.1,4.6   s-11-1.9-31.1-5.3S46,402.6,32.8,385.4c-12.7-16.6-23-38.4-23-38.4s-3.2-4.2-0.9-16.4s5.1-21.8,5.1-21.8s-11.8-17-6.6-28   c4.2-8.2,19.5-10.2,19.5-10.2s-0.6-10.6-0.3-12.1s2.4-5.8,10-6.8s36.2-3.1,54.7,1.6c18.5,4.8,36.8,7.7,70.9,29.9   c7.2,9.2,2.4,20,2.4,20S164.2,309.6,159.7,310.1z"/>
	<path class="st1" d="M26.9,270.6c0,0,37.6-7.9,83.9,17.6s41.9,20,53.8,15.4"/>
	<path class="st0" d="M26.8,258.1c0,0,3.5-7.8,34.3-3.6c30.8,4.2,61.8,25.2,61.8,25.2s16.4,11.9,27.9,12.4s14-4.3,14-4.3"/>
	<path class="st1" d="M36.4,286.8c0,0-7,8.8-5.4,15.3s46.6,80.1,46.6,80.1s6.2,8.3,11.3,9.2s12.8,1.8,12.8,1.8s8.3,1.4,15.3-6.8   s19.4-46.5,20.6-51.7s0.5-10.6-5.4-15.1C126.2,315.1,83.9,281.5,36.4,286.8z"/>
	<path class="st1" d="M14,308.8c0,0,47,78.1,48.4,82.1c-5.6-6-26.1-31.2-30.8-39.3s-8.1-13.5-6.6-24.5"/>
	<path class="st0" d="M39.8,269.3c0,0,39.5-0.1,93.6,35.8c16.2,9.5,26.3,4.9,26.3,4.9"/>
	<path class="st0" d="M39.4,269.2c0,0,70,15.6,91.5,40.8c13.3,11.1,12.8,24.2,12.8,24.2c-0.6,19.2-4.1,38.1-10.2,56.3   c-3.1,11-13.4,26.3-16.7,27.7"/>
	
		<ellipse transform="matrix(0.6151 -0.7884 0.7884 0.6151 -221.3173 124.8427)" class="st0" cx="17.2" cy="289.1" rx="3.3" ry="3.6"/>
	<ellipse transform="matrix(0.9925 -0.1226 0.1226 0.9925 -41.2791 4.3178)" class="st0" cx="14.5" cy="337.7" rx="3.3" ry="3.6"/>
	<ellipse transform="matrix(0.5 -0.866 0.866 0.5 -317.9871 241.697)" class="st0" cx="50.3" cy="396.2" rx="4.2" ry="2.8"/>
	<ellipse transform="matrix(0.3196 -0.9475 0.9475 0.3196 -310.31 376.5179)" class="st0" cx="107" cy="404.3" rx="4.4" ry="2"/>
	<path class="st1" d="M216.1,336.5c0,0,4.9,7.2,5.4,7.7"/>
	<path class="st1" d="M228.4,306.4c0,0-3,14.3,5.1,24.5c8.4,10.5,10.3,13.5,10.3,13.5"/>
	<line class="st1" x1="228.4" y1="306.4" x2="254.7" y2="344.4"/>
	<path class="st1" d="M271.3,345.3l-36.7-54.1c0,0-0.9-1,0-3.9c1.3-3.3,2.7-6.5,4.4-9.6c0,0,1-3,6.8-3.5s39.6-0.2,61.7,8.6   s35.6,17.1,35.6,17.1s7.1,4,4.5,11.9s-20,40.8-20,40.8"/>
	<path class="st1" d="M223.3,265.2c0,0,11.1-3.1,13.5-3.7c-0.8-1.1-1.8-8.4-1.9-10.3s0.9-4.8,4.7-6s41.5-5.1,70.8,1.3   s54.2,15.6,65,23.9c5.1,4-1.8,15.6-1.8,15.6s-0.7,4-2.8,4.5s-1.9,1.9-1.2,2.6s9,6.9,6.1,17.6s-24.6,47.9-24.6,47.9"/>
	<path class="st1" d="M237.1,261.3c0,0,32.3-4.4,58.3,1.3s55.2,20.1,55.2,20.1s13,6.2,22.9,4"/>
	<path class="st0" d="M235.7,248.1c0,0,22.3-3.3,39.1-2.6s50.1,10.2,58.2,13.8c8.1,3.6,22.3,9.5,22.3,9.5s14.7,7,21.3,3.2"/>
	<path class="st0" d="M224.7,269.8c0,0,29.7-7.1,51.4-2.8s55.8,13.2,72.1,26s7.7,34.1,7.7,34.1l-13.6,28.8"/>
	<path class="st0" d="M369.4,291.3c0,0-8.6-0.9-27.7-10.1s-55.2-17.5-55.2-17.5s-37.2-6.6-62.6,3.6"/>
	<path class="st1" d="M32.8,385.4c0,0-3.8,16.9,1.2,20.4s14.5,5.5,24.6,4.9"/>
	<path class="st1" d="M114.3,418.5c0,0,34,21.8,42.7,25s30.4,8.8,47.9,9.8s109-12.5,150-30.8c7.2-10,11.4-21.8,11.9-34.1   c0.9-20.6-9.4-25.5-16.1-29.7s-67-12.6-79.3-13.4c-14.7-0.9-51-1.1-59.7-1c-13.1,0.2-23,0-28.4,1.3s-20.5,4-20.5,4"/>
	<path class="st1" d="M63.8,359.6c0,0,58.8-4.2,67.5-5.6"/>
	<path class="st1" d="M46.6,362.6c0,0-1.6,0-5.3,2.7"/>
	<path class="st1" d="M65.3,362c0,0,49.3,1.9,59.1,10"/>
	<path class="st1" d="M147.9,383.4c0,0,22.1,20.5,39.8,23c14.2,2,28.5,2.6,42.8,2"/>
	<path class="st1" d="M155.7,367c0,0,5.5,1.1,12.2,2.8c5.4,1.5,21,1.1,34.9,9.2c9.3,5.4,24.3,16.3,29.3,31s-6.1,41.8-6.1,41.8"/>
	<path class="st1" d="M104.3,356.5c0,0,15.3,1.3,24.7,3.9"/>
	<path class="st1" d="M346.6,392.2c0,0,15.1-4.2,17.2-9.4s-2.2-15.3-2.2-15.3"/>
	<path class="st0" d="M192.1,374.4c0,0,68-9.5,76.5-14.3"/>
	<path class="st1" d="M23.7,271.3c0,0-3.4-44.5-12.6-79s-15-41.5-5-66.2s29.3-47.3,37-63.5s13.5-37.3,13.5-37.3s6.8-21.8,22.7-24   s38-0.8,56,5.3c10.7,3.6,19.4,11.5,24.1,21.8c0,0,15.7,56,18.8,62.3s24.3,40.7,24.3,40.7s7.5,9.8,7.8,27.8s-1.4,37.4,0,48.8   s18.9,77.4,18.9,84.4c0,25.9-9.5,34-16.6,52.1"/>
	<path class="st1" d="M13.3,353.9c0,0-3,13.6,1.2,16.6s9.9,2.7,9.9,2.7"/>
	<path class="st1" d="M34.4,355.9c0.8-3.3,1.4-6.6,1.8-10"/>
	<path class="st1" d="M41.3,321.5c0,0,4.9-30.7,5.3-35.3"/>
	<path class="st1" d="M45.7,251c0,0-7-44.4-14.3-65.1s-12.8-41.8-9.8-50.9s29.3-46,34.5-53.7s11.1-27.9,13.1-37.8S77.6,4.3,89.7,4   s45.5,2.3,53.8,6.3"/>
	<path class="st1" d="M84.4,358.1c0,0,10.2-22.1,14.9-58.8"/>
	<path class="st1" d="M96.5,254.8c0,0-5.7-29.2-8.8-39.9s-26.5-62-15.8-79.3s43.8-34.7,76.2-14.1c29.7,18.9,29.4,32.7,30.6,43.7   c1.3,11.6,1,42.8,1.3,46.8s28.6,57.1-1.3,134.5c0,0,69.5,5.1,90.9,13.9c27.3,1.6,48.4,4,63.2,15.6c7.9,6.3,12.8,12,14.6,18.3   c1.1,4.1,1.3,22.6-0.9,31.6"/>
	<path class="st0" d="M36.5,74c7.3-0.6,14.5,2.1,19.6,7.3c0,0,24.2,17.9,28.5,41.3"/>
	<path class="st0" d="M177.9,89.1c0,0-26.6,28.2-29.9,32.4"/>
	<line class="st0" x1="88.7" y1="216.3" x2="180" y2="212.1"/>
	<line class="st0" x1="88.7" y1="220.7" x2="181.5" y2="216.3"/>
	<line class="st0" x1="95.4" y1="250.4" x2="189.6" y2="246.3"/>
	<line class="st0" x1="96.3" y1="254.8" x2="190.4" y2="250.4"/>
	<line class="st0" x1="155.1" y1="278.9" x2="192.4" y2="276.9"/>
	<line class="st0" x1="161" y1="282.6" x2="192.4" y2="280.9"/>
	<line class="st0" x1="162.6" y1="314.5" x2="189.2" y2="312.1"/>
	<line class="st0" x1="165.9" y1="318.6" x2="187.8" y2="316.6"/>
	<line class="st0" x1="95.9" y1="320.5" x2="129.1" y2="317.5"/>
	<line class="st0" x1="95.2" y1="324.8" x2="134" y2="321.3"/>
</g>
</svg>