<svg xmlns="http://www.w3.org/2000/svg" xmlns:xlink="http://www.w3.org/1999/xlink" viewBox="0 0 200 200">
  <defs>
    <style>
      .cls-1, .cls-3, .cls-6, .cls-9 {
        fill: #fff;
      }

      .cls-2 {
        clip-path: url(#clip-path);
      }

      .cls-3, .cls-4, .cls-5, .cls-6, .cls-7, .cls-8, .cls-9 {
        stroke: #000;
        stroke-miterlimit: 10;
      }

      .cls-3, .cls-4 {
        stroke-width: 0.95px;
      }

      .cls-4, .cls-5, .cls-7, .cls-8 {
        fill: none;
      }

      .cls-5 {
        stroke-width: 0.48px;
      }

      .cls-8, .cls-9 {
        stroke-width: 0.5px;
      }
    </style>
    <clipPath id="clip-path">
      <circle id="Ellipse_10" data-name="Ellipse 10" class="cls-1" cx="100" cy="100" r="100" transform="translate(60 1937)"/>
    </clipPath>
  </defs>
  <g id="Mask_Group_17" data-name="Mask Group 17" class="cls-2" transform="translate(-60 -1937)">
    <g id="Group_118" data-name="Group 118" transform="translate(-51 -489)">
      <rect id="Rectangle_797" data-name="Rectangle 797" class="cls-1" width="450" height="703" transform="translate(0 1950)"/>
      <g id="Prime_diagonal" data-name="Prime diagonal" transform="translate(17.476 1958.452)">
        <g id="diagonal">
          <path id="Path_1402" data-name="Path 1402" class="cls-3" d="M281.73,457.14l-.77,8.29a7.331,7.331,0,0,1-1.8,2.56c-1.26,1.13-22.76,12.15-22.76,12.15l-1.85,5-10.86,3.64,1.08,3.64s-.13,1.6-8.37,4.8l1.27,31-4.25,3.56s-7,2.63-17.88,1.89l-5.7-3.5-2.62-25-2.63-.44-.75-2.7-2,4.17s-17.52,5.47-28.74-.75l-3.81-18.18-8.1,1.14s.13,10.1-12.86,14.8l-6,1.43s-1,.81-5.27-1-16-10.15-16-10.15-4.45.22-4.08-7.82a4.61,4.61,0,0,1,2.89-4l73.77-12.47"/>
          <path id="Path_1403" data-name="Path 1403" class="cls-3" d="M205.74,542.65l45.63-7a4.67,4.67,0,0,1,2.37-1.76c1.31-.26,17.69-2.62,17.69-2.62l5.85-.07a3.86,3.86,0,0,1,2.35,2.12l1.22,2.07,1.53,3,.93,12.22s-3.86,1.78-12,1.29c0,0-5-.48-6-2l-21.94,6.49,65,13.38,1.36-.85,39.56,8.21.43,1.31a3.23,3.23,0,0,1,2.59,1.93l1.37,18.07-7.26,2.3-9.5-1.31s-2.75-.57-3.74-2.7l-.05-4.48L221.69,576.23s-18.52-1.5-21.07,4.86l-2.83,54-10.12,2.1-11.67-2V581.11s1.06-6.16-19.4-4.94L43.56,592.39v3.82s.15,2.21-3.66,3.27a63.789,63.789,0,0,1-9.88,1.5L23,598.44,24.15,582a3.49,3.49,0,0,1,2.47-3.38l1-1.44,40-8.15,1,1.06,66.07-13.67-20.43-6.3s-1.52,2.52-11.92,1.88c0,0-5.37-.47-6.16-1.65l.69-11.47,3.6-7.33a5,5,0,0,1,3.93-1.12l19,2.62a12.649,12.649,0,0,1,4.87,2.39l42.88,7.09"/>
          <path id="Path_1404" data-name="Path 1404" class="cls-3" d="M194.62,508.12a12.679,12.679,0,0,1,7.19,1.76l.41,4.53a2.16,2.16,0,0,1,1,1.06l.22,3.16a3.72,3.72,0,0,1,1.33,1.29l1,26.31c1.09,1.6.63,2.5.63,2.5-3,4.4-17.13,4.57-17.13,4.57-17.07.1-18.38-4.06-18.57-5.31a1.63,1.63,0,0,1,.87-1.74v-3.46s.27-21.31.31-22.33,1.3-1.27,1.3-1.27l.31-3.52c0-.6,1.07-.73,1.07-.73l.3-4.48c.4-1.26,5.76-2.16,5.76-2.16v1.19a27.74,27.74,0,0,0,14-.18Z"/>
          <path id="Path_1405" data-name="Path 1405" class="cls-4" d="M173.89,515.64s16.52,6.68,28.76-.36"/>
          <path id="Path_1406" data-name="Path 1406" class="cls-4" d="M172.55,519.8s1,5.16,16.89,4.72S204.21,519,204.21,519"/>
          <path id="Path_1407" data-name="Path 1407" class="cls-4" d="M98.4,536.25s-.15.92.53,1.15,16.92,3.81,16.92,3.81a2.18,2.18,0,0,0,1.58-.54,47.637,47.637,0,0,0,2.29-4.33s1-1.84,2.17-1.46l6,.56"/>
          <path id="Path_1408" data-name="Path 1408" class="cls-4" d="M251.57,535.82a5.92,5.92,0,0,0,2.19-.26c1.15-.38,3.84-1.28,5.21.41a7.411,7.411,0,0,1,1.6,3.36,2.13,2.13,0,0,0,2.49,2c2.26-.39,17.27-3.21,17.27-3.21s1.11-.45,1-1.44"/>
          <path id="Path_1409" data-name="Path 1409" class="cls-4" d="M350,578.84s-2.09.09-3.77,4.17a3.14,3.14,0,0,1-3.26,2l-37.45-7.29s-1.67,0-1.46-2c0,0,.39-2.63,1.16-3a23.2,23.2,0,0,0,3.07-2.66"/>
          <path id="Path_1410" data-name="Path 1410" class="cls-4" d="M178.35,617.84l4-2.62a3,3,0,0,1,2.38-.68c1.68.09,4.06.06,4.06.06a4.41,4.41,0,0,1,3,.8c1.5,1.06,4,2.82,4,2.82l1.39-17.45-.44-1.72S195,596,192,595.4l-7.7-.14a6.2,6.2,0,0,0-3.74,1.42,23.193,23.193,0,0,0-2.66,2.6l.1,18.92Z"/>
          <path id="Path_1411" data-name="Path 1411" class="cls-4" d="M26.62,578.58s2.28,1,3.88,4.79a3.23,3.23,0,0,0,3.9,1.68c3-.64,36.8-6.44,36.8-6.44s1.43-.55,1.23-1.74-.45-3-.45-3l-2.19-2.6L68.41,570"/>
          <path id="Path_1412" data-name="Path 1412" class="cls-4" d="M24.78,579.62l6.06,7.09-.47,14.25"/>
          <path id="Path_1413" data-name="Path 1413" class="cls-4" d="M31.2,586.7l120.85-20.57s16.68-2.6,24.88,3.82l-.47,50.94"/>
          <line id="Line_326" data-name="Line 326" class="cls-4" x1="1.29" y2="42.25" transform="translate(192.29 553.05)"/>
          <line id="Line_327" data-name="Line 327" class="cls-4" x2="0.53" y2="41.99" transform="translate(183.08 553.18)"/>
          <path id="Path_1414" data-name="Path 1414" class="cls-4" d="M351.72,579.6l-6.47,8.07.4,12.65"/>
          <path id="Path_1415" data-name="Path 1415" class="cls-4" d="M344.66,587.68,221,565.38s-17.23-3.25-21.19,4.08l-3.44,48.75"/>
          <line id="Line_328" data-name="Line 328" class="cls-4" x1="100.4" y1="21.74" transform="translate(203.58 551.03)"/>
          <line id="Line_329" data-name="Line 329" class="cls-4" x1="37.28" y1="8.06" transform="translate(206.06 548.38)"/>
          <line id="Line_330" data-name="Line 330" class="cls-4" y1="9.75" x2="53.24" transform="translate(206.03 536.36)"/>
          <line id="Line_331" data-name="Line 331" class="cls-4" y1="13.15" x2="58.44" transform="translate(223.05 538.65)"/>
          <path id="Path_1416" data-name="Path 1416" class="cls-4" d="M265.52,550l10.94-3.3s1.9-.8,2.75.38"/>
          <line id="Line_332" data-name="Line 332" class="cls-4" y1="7.7" x2="35.63" transform="translate(134.66 548.47)"/>
          <line id="Line_333" data-name="Line 333" class="cls-4" x1="55.47" y1="13.14" transform="translate(97.27 538.74)"/>
          <path id="Path_1417" data-name="Path 1417" class="cls-4" d="M114.05,550.06l-11.35-3.6s-2.23-.6-2.78.2"/>
          <path id="Path_1418" data-name="Path 1418" class="cls-4" d="M180.31,636.32l.1,7.22.9.82.65,32.1,10.98-.14-.41-32.46,1.18-.61.03-7.11"/>
          <path id="Path_1419" data-name="Path 1419" class="cls-4" d="M180.5,637.21s7.34,4.08,13-.17"/>
          <path id="Path_1420" data-name="Path 1420" class="cls-4" d="M193.71,643.25h5.91s2.27-.15,2.29,1.82.62,39.62.62,39.62-.1,1.74-1.11,1.75-7,.15-7,.15-1.69-1.11-1.62-5.29a32.1,32.1,0,0,0-.06-4.66"/>
          <path id="Path_1421" data-name="Path 1421" class="cls-4" d="M180.41,643.54l-6.33.08s-2-.4-2,2.17.38,39.44.38,39.44,0,1.79,2.23,1.77l6.27-.08a1.39,1.39,0,0,0,1.06-.85c.23-.72-.06-9.61-.06-9.61"/>
          <path id="Path_1422" data-name="Path 1422" class="cls-4" d="M331.59,630.06s-3.34-12.45,6.76-18.55,21.76,2.51,24.29,7.41,9.1,18.58-3.73,26.15S332.71,637.21,331.59,630.06Z"/>
          <path id="Path_1423" data-name="Path 1423" class="cls-4" d="M336.87,599.72s.51,2.32,5.64,2.43,6.09-.14,6.78-2"/>
          <line id="Line_334" data-name="Line 334" class="cls-4" x2="0.16" y2="12.53" transform="translate(336.88 600.31)"/>
          <path id="Path_1424" data-name="Path 1424" class="cls-4" d="M349.67,600.15l.07,5.29s-9.39.72-12.46,6.45"/>
          <path id="Path_1425" data-name="Path 1425" class="cls-4" d="M349.91,603.73a12.64,12.64,0,0,1,9.31-.48c5.39,1.68,10,4,14.25,13a17.75,17.75,0,0,1-.63,16.48,28.711,28.711,0,0,1-9.53,8.75"/>
          <path id="Path_1426" data-name="Path 1426" class="cls-4" d="M340.56,608.32s12.48-4.21,20.94,4.33,7.37,16.08,7.37,16.08.08,6.63-3.79,11.39"/>
          <path id="Path_1427" data-name="Path 1427" class="cls-4" d="M350.06,604.68s9.18-1.37,15.77,5.41a24.19,24.19,0,0,1,6.93,14.42,18.34,18.34,0,0,1-6.09,14.28"/>
          <line id="Line_335" data-name="Line 335" class="cls-4" y1="1.95" x2="3.19" transform="translate(368.45 630.97)"/>
          <path id="Path_1428" data-name="Path 1428" class="cls-4" d="M334.71,628.35s-1.45-12.42,9.63-14.17,16.42,10.48,16.42,10.48,5.26,14-6.58,17.81C341.52,646.51,334.86,632.37,334.71,628.35Z"/>
          <path id="Path_1429" data-name="Path 1429" class="cls-4" d="M341.38,627.67a8.39,8.39,0,0,0,6.83,7.87c6.82,1.62,5.79-7.95,5.79-7.95s-1.63-5.51-7.12-5.68S341.38,627.67,341.38,627.67Z"/>
          <path id="Path_1430" data-name="Path 1430" class="cls-4" d="M344.87,622.17S346.27,621,347,621a6.878,6.878,0,0,1,7.16,3.29c3.53,5.45-1.85,10.57-1.85,10.57"/>
          <path id="Path_1431" data-name="Path 1431" class="cls-5" d="M337.45,618.47l1.1.4,5.05,3.34.83-.51-3.1-4.61-1.96-1.01"/>
          <path id="Path_1432" data-name="Path 1432" class="cls-5" d="M341.3,615.08l1.19.88,2.72,4.1s1.25.27,1.32-.61h0l-1-3.85-1-1.34"/>
          <path id="Path_1433" data-name="Path 1433" class="cls-5" d="M346.24,613.94l.73,1.24,1,4.21s.85.9,1.42.22l.63-3.77-.3-1.27"/>
          <path id="Path_1434" data-name="Path 1434" class="cls-5" d="M351.61,615.24l.09,1-.58,4.12s.65.85,1.2.68l1.89-3.06.33-1"/>
          <path id="Path_1435" data-name="Path 1435" class="cls-5" d="M355.93,618.27l-.21.92-1.86,2.69s0,1.27,1.19,1.22l3.18-2.27"/>
          <path id="Path_1436" data-name="Path 1436" class="cls-5" d="M359.44,622.72l-3.35,1.84s-1,1.5.53,1.68l4.27-1.09"/>
          <path id="Path_1437" data-name="Path 1437" class="cls-5" d="M361.42,628l-4-.17s-1.76.66-.28,1.66l4.78,1.87"/>
          <path id="Path_1438" data-name="Path 1438" class="cls-5" d="M360.75,636.65l-1.17-1.49-3.48-2.88s-.75-1.61.66-1.36,4.83,2.62,4.83,2.62"/>
          <path id="Path_1439" data-name="Path 1439" class="cls-5" d="M357,641.14l-.12-1.79a3.74,3.74,0,0,0-.62-1.7c-.52-.69-1.7-2.47-1.7-2.47s-.71-2.29,1.4-1.37l2.82,3.27.92,1.64"/>
          <path id="Path_1440" data-name="Path 1440" class="cls-5" d="M352,642.83l.5-1.75a4.33,4.33,0,0,0-.13-2.31l-.73-2.46s.34-1.53,1.6-.6l1.37,2.55a4.7,4.7,0,0,1,.66,1.75l.14,1.7"/>
          <path id="Path_1441" data-name="Path 1441" class="cls-5" d="M346.73,642.6l.89-1.38a3.5,3.5,0,0,0,.57-2l.46-3.31"/>
          <path id="Path_1442" data-name="Path 1442" class="cls-5" d="M349.94,635.93l1.09,4.17-.78,2.77"/>
          <path id="Path_1443" data-name="Path 1443" class="cls-5" d="M341.6,639.96l1.32-1.13,2.45-4.01"/>
          <path id="Path_1444" data-name="Path 1444" class="cls-5" d="M346.97,635.48l-.76,4.52-2.04,1.64"/>
          <path id="Path_1445" data-name="Path 1445" class="cls-5" d="M337.93,635.73l1.51-1.35,3.26-2.07"/>
          <path id="Path_1446" data-name="Path 1446" class="cls-5" d="M344.09,633.82l-2.21,3.15-1.17,1.79"/>
          <path id="Path_1447" data-name="Path 1447" class="cls-5" d="M336.91,633.89l1.2-.89a7.471,7.471,0,0,1,1.6-.87,14.2,14.2,0,0,0,2.17-1.23"/>
          <path id="Path_1448" data-name="Path 1448" class="cls-5" d="M341.46,629.32l-2.72.25-3.15,1.02"/>
          <path id="Path_1449" data-name="Path 1449" class="cls-5" d="M334.91,628.43l2.91-.72,3.26-.14"/>
          <path id="Path_1450" data-name="Path 1450" class="cls-5" d="M341.43,626.26l-4.48-1.34-2.01-.07"/>
          <path id="Path_1451" data-name="Path 1451" class="cls-5" d="M335.23,622.77l2.12.23,4.41,1.52"/>
          <path id="Path_1452" data-name="Path 1452" class="cls-5" d="M342.36,623.42l-3.61-2.8-2.22-.49"/>
          <path id="Path_1453" data-name="Path 1453" class="cls-4" d="M46.59,630.17s3-12.53-7.24-18.37-21.68,3.06-24.09,8-8.62,18.8,4.39,26S45.65,637.34,46.59,630.17Z"/>
          <path id="Path_1454" data-name="Path 1454" class="cls-4" d="M40.54,600s-.45,2.33-5.58,2.58-6.09,0-6.83-1.89"/>
          <line id="Line_336" data-name="Line 336" class="cls-4" x2="0.16" y2="12.53" transform="translate(40.54 600.57)"/>
          <path id="Path_1455" data-name="Path 1455" class="cls-4" d="M27.75,600.73l.07,5.29s9.4.48,12.61,6.13"/>
          <path id="Path_1456" data-name="Path 1456" class="cls-4" d="M27.6,604.31a12.6,12.6,0,0,0-9.31-.24c-5.35,1.82-9.9,4.26-13.92,13.35a17.76,17.76,0,0,0,1,16.46,28.59,28.59,0,0,0,9.74,8.5"/>
          <path id="Path_1457" data-name="Path 1457" class="cls-4" d="M37.07,608.67s-12.59-3.9-20.83,4.86-7,16.26-7,16.26.09,6.62,4.09,11.29"/>
          <path id="Path_1458" data-name="Path 1458" class="cls-4" d="M27.47,605.27s-9.2-1.14-15.62,5.81a24.12,24.12,0,0,0-6.56,14.58,18.32,18.32,0,0,0,6.45,14.12"/>
          <line id="Line_337" data-name="Line 337" class="cls-4" x1="3.24" y1="1.87" transform="translate(6.57 632.09)"/>
          <path id="Path_1459" data-name="Path 1459" class="cls-4" d="M43.43,628.54s1.13-12.45-10-13.92-16.15,10.89-16.15,10.89-4.9,14.16,7,17.64C37.07,646.86,43.38,632.56,43.43,628.54Z"/>
          <path id="Path_1460" data-name="Path 1460" class="cls-4" d="M36.73,628a8.39,8.39,0,0,1-6.62,8c-6.78,1.8-6-7.8-6-7.8s1.48-5.55,7-5.86S36.73,628,36.73,628Z"/>
          <path id="Path_1461" data-name="Path 1461" class="cls-4" d="M33.11,622.62s-1.43-1.17-2.15-1.08-4.47-.78-7.08,3.47C20.49,630.54,26,635.52,26,635.52"/>
          <path id="Path_1462" data-name="Path 1462" class="cls-5" d="M40.44,618.73l-1.09.43-4.97,3.47-.84-.49,2.98-4.69,1.94-1.06"/>
          <path id="Path_1463" data-name="Path 1463" class="cls-5" d="M36.5,615.44l-1.17.91-2.61,4.17s-1.25.3-1.34-.58h0l.89-3.87.91-1.37"/>
          <path id="Path_1464" data-name="Path 1464" class="cls-5" d="M31.53,614.43l-.7,1.26-.94,4.23s-.83.92-1.41.26l-.73-3.76.27-1.27"/>
          <path id="Path_1465" data-name="Path 1465" class="cls-5" d="M26.2,615.87l-.07,1,.69,4.11s-.63.87-1.19.71l-2-3-.35-1"/>
          <path id="Path_1466" data-name="Path 1466" class="cls-5" d="M22,619l.23.92,1.92,2.64s0,1.27-1.16,1.25l-3.23-2.19"/>
          <path id="Path_1467" data-name="Path 1467" class="cls-5" d="M18.55,623.54,22,625.29s1,1.48-.5,1.7l-4.29-1"/>
          <path id="Path_1468" data-name="Path 1468" class="cls-5" d="M16.71,628.82l4-.27s1.78.61.32,1.65l-4.73,2"/>
          <path id="Path_1469" data-name="Path 1469" class="cls-5" d="M17.6,637.5l1.13-1.5,3.41-3s.71-1.62-.7-1.35-4.76,2.75-4.76,2.75"/>
          <path id="Path_1470" data-name="Path 1470" class="cls-5" d="M21.49,641.89l.08-1.79a3.86,3.86,0,0,1,.57-1.72c.51-.7,1.64-2.51,1.64-2.51s.66-2.3-1.43-1.34l-2.74,3.34-.87,1.67"/>
          <path id="Path_1471" data-name="Path 1471" class="cls-5" d="M26.51,643.46,26,641.71a4.25,4.25,0,0,1,0-2.31l.66-2.47s-.38-1.53-1.62-.56L23.78,639a4.76,4.76,0,0,0-.61,1.76l-.1,1.72"/>
          <path id="Path_1472" data-name="Path 1472" class="cls-5" d="M31.77,643.09l-.93-1.36a3.53,3.53,0,0,1-.62-2l-.54-3.3"/>
          <path id="Path_1473" data-name="Path 1473" class="cls-5" d="M28.39,636.51l-.98,4.19.85,2.75"/>
          <path id="Path_1474" data-name="Path 1474" class="cls-5" d="M36.83,640.32l-1.35-1.1-2.55-3.94"/>
          <path id="Path_1475" data-name="Path 1475" class="cls-5" d="M31.34,635.98l.88,4.5,2.09,1.58"/>
          <path id="Path_1476" data-name="Path 1476" class="cls-5" d="M40.4,636l-1.55-1.32-3.31-1.98"/>
          <path id="Path_1477" data-name="Path 1477" class="cls-5" d="M34.19,634.25l2.29,3.09,1.21,1.76"/>
          <path id="Path_1478" data-name="Path 1478" class="cls-5" d="M41.37,634.14l-1.23-.86a7.647,7.647,0,0,0-1.62-.84,14.407,14.407,0,0,1-2.2-1.16"/>
          <path id="Path_1479" data-name="Path 1479" class="cls-5" d="M36.7,629.68l2.72.18,3.18.94"/>
          <path id="Path_1480" data-name="Path 1480" class="cls-5" d="M43.23,628.62l-2.93-.64-3.27-.06"/>
          <path id="Path_1481" data-name="Path 1481" class="cls-5" d="M36.66,626.62l4.43-1.45,2.01-.13"/>
          <path id="Path_1482" data-name="Path 1482" class="cls-5" d="M42.76,622.98l-2.11.28-4.37,1.63"/>
          <path id="Path_1483" data-name="Path 1483" class="cls-5" d="M35.65,623.8l3.54-2.89,2.2-.54"/>
          <path id="Path_1484" data-name="Path 1484" class="cls-4" d="M202.3,656.75l.83-.01.2,15.69-.71.01"/>
          <path id="Path_1485" data-name="Path 1485" class="cls-4" d="M171.81,657.48l-.84.01.2,15.69.72-.01"/>
          <path id="Path_1486" data-name="Path 1486" class="cls-4" d="M268.35,551.76s0,2.15,5.51,2.2,5-2,5-2"/>
          <line id="Line_338" data-name="Line 338" class="cls-4" x2="0.12" y2="9.3" transform="translate(268.23 552.01)"/>
          <path id="Path_1487" data-name="Path 1487" class="cls-4" d="M279.27,552l.25,5.67a20.5,20.5,0,0,0-5.08,5.19"/>
          <path id="Path_1488" data-name="Path 1488" class="cls-4" d="M268.15,555.41s-3.07,2.25-4,5.06"/>
          <path id="Path_1489" data-name="Path 1489" class="cls-4" d="M279.46,552.64l15.23,5.42s4.56,2.09,5.73,10"/>
          <path id="Path_1490" data-name="Path 1490" class="cls-4" d="M279.52,557.65s4.05-2.74,8.06-2.16"/>
          <path id="Path_1491" data-name="Path 1491" class="cls-4" d="M283.37,564.44s2.52-3.83,6.67-3.64a8.59,8.59,0,0,1,7.84,6.59"/>
          <line id="Line_339" data-name="Line 339" class="cls-4" x2="0.27" y2="2.32" transform="translate(285.49 562.56)"/>
          <path id="Path_1492" data-name="Path 1492" class="cls-4" d="M287.42,561.47l-.49,1.31.18,2.41"/>
          <path id="Path_1493" data-name="Path 1493" class="cls-4" d="M289.68,561.04l-.88,1.18-.86,3.11"/>
          <path id="Path_1494" data-name="Path 1494" class="cls-4" d="M291.44,561.23l-1.14,1.36-.83,2.99"/>
          <path id="Path_1495" data-name="Path 1495" class="cls-4" d="M290.11,565.79l1.46-2.36,1.79-1.46"/>
          <path id="Path_1496" data-name="Path 1496" class="cls-4" d="M294.91,562.93l-2.02,1.37-1.23,1.77"/>
          <path id="Path_1497" data-name="Path 1497" class="cls-4" d="M292.91,566.61l1.77-1.41,1.8-.45"/>
          <path id="Path_1498" data-name="Path 1498" class="cls-4" d="M295.13,566.96l.8-.49,1.41-.11"/>
          <path id="Path_1499" data-name="Path 1499" class="cls-4" d="M267.29,582.89s2.66,3,8.07,2.76"/>
          <path id="Path_1500" data-name="Path 1500" class="cls-4" d="M270.84,583.32s.53,1.79,4.4,2.42a17.8,17.8,0,0,0,9.48,4c5.82.61,8.44-2.93,8.44-2.93"/>
          <path id="Path_1501" data-name="Path 1501" class="cls-4" d="M276.9,584.4s1.63,3.1,7.58,5.4"/>
          <path id="Path_1502" data-name="Path 1502" class="cls-4" d="M274.23,583.81a7.821,7.821,0,0,0,1,1.93"/>
          <path id="Path_1503" data-name="Path 1503" class="cls-4" d="M102.55,563c.13-2.45-1.83-6.68-1.83-6.68l.18-4.3s.51,2.26,5.92,1.91,4.38-2.43,4.38-2.43l.48,6.19a9.15,9.15,0,0,1-.56,3.53"/>
          <path id="Path_1504" data-name="Path 1504" class="cls-4" d="M100.61,553.73l-8.74.95S88,556,88.38,565.7"/>
          <path id="Path_1505" data-name="Path 1505" class="cls-4" d="M96.24,564.17s-.13-7.71-4.37-9.49"/>
          <path id="Path_1506" data-name="Path 1506" class="cls-4" d="M111.61,552.4l1.51-.18s3.87.95,4.67,7.5"/>
          <path id="Path_1507" data-name="Path 1507" class="cls-4" d="M100.72,556.36a9.851,9.851,0,0,0-2.73-2.2"/>
          <path id="Path_1508" data-name="Path 1508" class="cls-4" d="M94.5,564.51s-.2-4.65-3-6.21-2.73,7.32-2.73,7.32"/>
          <path id="Path_1509" data-name="Path 1509" class="cls-4" d="M89.66,559.82l2,.89a3.45,3.45,0,0,1,1.2,1.77c.23,1.06.45,2.23.45,2.23"/>
          <path id="Path_1510" data-name="Path 1510" class="cls-4" d="M88.91,563.11s2.09,0,3,1l.32.79"/>
          <path id="Path_1511" data-name="Path 1511" class="cls-4" d="M92.41,585.47s1.07,2.09,2.54,2.35,6.48-.6,6.48-.6a9.76,9.76,0,0,0,1.75-3.2"/>
          <path id="Path_1512" data-name="Path 1512" class="cls-4" d="M97.8,584.64a3.88,3.88,0,0,1-2.69,3.2"/>
          <path id="Path_1513" data-name="Path 1513" class="cls-4" d="M108.1,583.24a4.27,4.27,0,0,0,2.86,2.82l5.65-.54s2.68-1.83,2.5-3.69"/>
          <path id="Path_1514" data-name="Path 1514" class="cls-4" d="M113.66,582.45s-.36,2.95-2.58,3.7"/>
          <path id="Path_1515" data-name="Path 1515" class="cls-4" d="M202.27,469.67c3.76,5.23,7.68,6.52,7.68,6.52a10.93,10.93,0,0,0,9.57-1.83l1.29-2.91"/>
          <path id="Path_1516" data-name="Path 1516" class="cls-4" d="M169.27,487.29l30.35-3.65s8.24-9.53-2.87-14.76"/>
          <path id="Path_1517" data-name="Path 1517" class="cls-4" d="M172.63,503.31a8,8,0,0,0,3-4.44c.56-2.75,28.08-16.59,28.08-16.59s6.16-3.54,8.78-3.57,15.12-3.18,15.12-3.18l52.71-8.84"/>
          <path id="Path_1518" data-name="Path 1518" class="cls-4" d="M256.4,480.14l-35.67,6.28-25.7,11.67,2.5,4.14,6.31-1.09"/>
          <line id="Line_340" data-name="Line 340" class="cls-4" y1="10.41" x2="6.67" transform="translate(221.08 475.83)"/>
          <path id="Path_1519" data-name="Path 1519" class="cls-4" d="M205.32,504.58l12.5-4.66,11.2-4.18s8.57-2.43,10.95-2.7,3.52-.4,3.76.07"/>
          <path id="Path_1520" data-name="Path 1520" class="cls-4" d="M218.1,500.18s15.45-.49,18.17-2.68"/>
          <path id="Path_1521" data-name="Path 1521" class="cls-4" d="M197.04,501.1l24.5-11.41,33.23-5.79"/>
          <path id="Path_1522" data-name="Path 1522" class="cls-4" d="M281.73,457.38s16.84-2.76,28.69-3.23c0,0,3.89-.53,5.18,1.05,0,0,7.91,9,8.81,16.52,0,0,1.23,3-1.14,4.63s-20.84.26-34.79-8l-12.79,1.92"/>
          <path id="Path_1523" data-name="Path 1523" class="cls-4" d="M316.42,456.62s-25.62,6.45-27.2,8.06-2.52,1.87-1.23,3.44"/>
          <path id="Path_1524" data-name="Path 1524" class="cls-4" d="M120.19,481.85l17.58,18.89s1.46,2.05,5.75,1.28,12.52-3.74,15.42-7.2"/>
          <path id="Path_1525" data-name="Path 1525" class="cls-4" d="M122.92,484.22s32.22-1,36.61.41c0,0,2.07.13,2.08.85a24.751,24.751,0,0,1-.44,2.95"/>
          <path id="Path_1526" data-name="Path 1526" class="cls-6" d="M35.29,32.32S40.67,3.5,63.39,1s44.09,6.19,44.09,6.19S120.8,12.74,126,25.92a210.435,210.435,0,0,1,8.35,28l5.59-2.82s10.05-6.25,11.77,11,7.38,49.66,7.38,49.66l40.58,26s17.14,10.91,8.91,42.14-6.4,47.83-6.4,47.83,3.4,21,20.55,43.12,15.06,43.94,15.06,43.94c-.26,3.79-3.08,32.73-25.09,51.94l-2.24,5.72s27.23-6.53,74.84-8S358.66,375,358.66,375s10.94,5,18.61,18.64-3.85,50.8-3.85,50.8-72.06,16-82.21,23.8-42.69,5.29-42.69,5.29-70.92-3.85-91.39-10.59l-15.81,4.7-.35,1.88-11.08,4.14s-10.09,2.88-17.74,1.1-8.06-4.65-8.06-4.65l.57-14.76-11.26-.73-3.12.41-53.37-8.7s-7.37-.15-8.34-7.52S25.7,410,25.7,410s-1.47-7.35,2-13.4l-.43-3.74a8.87,8.87,0,0,1,1.67-6.9c2.52-3.34,7.85-11.72,7.85-11.72L24.41,298.48l2.33-3.9L3,175.74s-10-40.12,10.19-63.88a70.07,70.07,0,0,0,11.9-28C28.35,66.66,35.29,32.32,35.29,32.32Z"/>
          <path id="Path_1527" data-name="Path 1527" class="cls-7" d="M85.65,1.55S67.71-4.09,62.83,15.6c0,0-12.46,42.91-18.77,77.37,0,0-5,9.43-8.56,25.11s-4.53,17.3-2.47,32,6.34,46.17,6.34,46.17,5.1,37.19,26.23,67.18S90,317.65,90,317.65"/>
          <path id="Path_1528" data-name="Path 1528" class="cls-7" d="M69.27,395.05s17.69-14,21.88-48.66"/>
          <path id="Path_1529" data-name="Path 1529" class="cls-7" d="M26.7,294.4s1.36-4.09,6.73-4.53a58.93,58.93,0,0,1,9.12-.12l6.82,5.35,13.21,85.49-15.29,3.69s-2.82,1-2.59,6.12,1.63,16.15,1.63,16.15,2,11.89-4.61,14.78-11.38-5.66-11.38-5.66l-2.81-19.1"/>
          <path id="Path_1530" data-name="Path 1530" class="cls-8" d="M25.85,402.3,29,427.85s1.33,12.65,10.85,14.2,47.68,7.56,47.68,7.56a9.81,9.81,0,0,0-.12-9.67S70.7,434.35,65.78,429.3s-14.59-13.57-19.11-34.76c0,0,2.86,2,3.56,4.21S59,429.55,85.54,436c0,0,2.61,2.13,2.7,2.88a.74.74,0,0,1-.66.84"/>
          <path id="Path_1531" data-name="Path 1531" class="cls-7" d="M46.63,384.87s6.47,3.5,9.86,14.46S73,429.87,89.74,432.5c0,0,12.41,5.51,3,21.88"/>
          <path id="Path_1532" data-name="Path 1532" class="cls-8" d="M28.55,437.69s.89,4.49,4.57,5.36,52.45,8.58,52.45,8.58l3.54,3"/>
          <line id="Line_341" data-name="Line 341" class="cls-8" y1="1.73" x2="1.84" transform="translate(85.7 449.61)"/>
          <path id="Path_1533" data-name="Path 1533" class="cls-7" d="M159,111l.11,9.42c-1.52,11.27-9.27,4.7-9.27,4.7C131,102.86,106.2,106.68,106.2,106.68s-6.5.66-17.57,7.72-15-6.31-15-6.31-6.77-47.58-8.74-64.56,11.18-5.64,11.18-5.64c39.33,25.84,58.25,16,58.25,16s13.11-1.29,16.3,13.67,7.07,35.29,7.06,43.79-1.87,10.9-7.08,13.72"/>
          <path id="Path_1534" data-name="Path 1534" class="cls-7" d="M71.64,99l-3.12.42s-7,1.46-10-6.5,2.85-11.67,2.85-11.67l7.3-6.34"/>
          <path id="Path_1535" data-name="Path 1535" class="cls-7" d="M69.37,81.23l-5.62,3.65s-6,6.33,1.78,8.81l5.83-.24"/>
          <path id="Path_1536" data-name="Path 1536" class="cls-7" d="M112.57,317.24s-2.36-18.76-18.3-40.56S77,214.89,77,214.89s-.67-39.66,8.1-45.11,51.48-1.31,55.89,4,28.17,39.82,36,55.38a229.369,229.369,0,0,0,33.62,48.42c12.84,13.83,25.86,41,5.74,71.59"/>
          <path id="Path_1537" data-name="Path 1537" class="cls-7" d="M38.62,107.91s3.49-.67,8.05,4,34,64.58,34,64.58"/>
          <path id="Path_1538" data-name="Path 1538" class="cls-7" d="M43.09,95.73a12.13,12.13,0,0,1,5.17,3.56c1.91,2.47,21.77,30.35,39.63,69"/>
          <line id="Line_342" data-name="Line 342" class="cls-7" x1="14.04" y2="45.81" transform="translate(141.21 127.43)"/>
          <path id="Path_1539" data-name="Path 1539" class="cls-7" d="M180.36,125.86c-1.7,6.77-19.25,34.17-33,56.61"/>
          <path id="Path_1540" data-name="Path 1540" class="cls-7" d="M81.12,216.17s10.36,11.87,11.75,16,5,49.11,5,49.11"/>
          <path id="Path_1541" data-name="Path 1541" class="cls-7" d="M89,183.21,103.09,209a28.79,28.79,0,0,1,2.61,6.56c1.92,7.35,6.38,24.78,8.59,36.58,2.86,15.3,8.31,63.9,8.31,63.9"/>
          <path id="Path_1542" data-name="Path 1542" class="cls-7" d="M141.77,184.57s4.57,71.11,19.64,129.26"/>
          <path id="Path_1543" data-name="Path 1543" class="cls-7" d="M162.5,218.18l-2.99,11.83,19.53,80.6"/>
          <path id="Path_1544" data-name="Path 1544" class="cls-7" d="M187,309.84c1-.29-18.84-93.75-36.89-116.13a44.27,44.27,0,0,0-26.07-18.25s-13.1-1.17-22.85-1.3-13.76,12.6-13.76,12.6a150.14,150.14,0,0,0-8.06,47.6"/>
          <path id="Path_1545" data-name="Path 1545" class="cls-7" d="M71.26,399.58s15.58-8.76,30.95-8.95"/>
          <path id="Path_1546" data-name="Path 1546" class="cls-7" d="M101.47,376.26a40.91,40.91,0,0,1-13.76,16.67"/>
          <path id="Path_1547" data-name="Path 1547" class="cls-7" d="M104.45,455.19l.51-8.93a4.24,4.24,0,0,1,1.73-1.23l.13-3.37-1.29-1.07-5.75-84.31s.27-4.59-3.33-6.37-20.27-14.08-20.27-14.08L67.67,335s-2.5.11-3.35-1.71l-.22-4.08s-.61-2.08,2.53-3.78a50.059,50.059,0,0,0,5.67-3.62,14.759,14.759,0,0,1,6.14-2.07c3.33-.25,20.09-2.43,20.09-2.43s56.83-.67,87.41,5.36l3.61,2.2a6.66,6.66,0,0,1,3.14,4.46,51.932,51.932,0,0,1,.68,7.74l-24.29,3.56a168.376,168.376,0,0,1-23.24.38l-14.22,9.6s-3.26,1.87-2.59,7.11l1.08,85.1s-.16,1-1.6,1l.14,3.56a4,4,0,0,1,1.63.14c.38.24,1.62,16.95,1.62,16.95"/>
          <path id="Path_1548" data-name="Path 1548" class="cls-7" d="M129.82,463.35a4.48,4.48,0,0,0,5.42,3.18c4.49-.75,5.73-1.45,5.73-1.45l.46,2.52"/>
          <line id="Line_343" data-name="Line 343" class="cls-7" x1="9.31" y1="2.32" transform="translate(131.91 462.66)"/>
          <line id="Line_344" data-name="Line 344" class="cls-7" y1="3.33" x2="11.71" transform="translate(141.41 462.27)"/>
          <line id="Line_345" data-name="Line 345" class="cls-7" x1="26.37" y1="5.18" transform="translate(130.85 457.74)"/>
          <path id="Path_1549" data-name="Path 1549" class="cls-7" d="M105.21,446.43s3.42,3.45,12.29,3.05,11.45-1,12.36-1.53"/>
          <path id="Path_1550" data-name="Path 1550" class="cls-7" d="M106.77,441.49s3.21,3.17,21.58,2.18"/>
          <line id="Line_346" data-name="Line 346" class="cls-7" x2="69.66" y2="5.2" transform="translate(76.18 335.83)"/>
          <path id="Path_1551" data-name="Path 1551" class="cls-8" d="M86.1,342.7l32.35,2.72a60.3,60.3,0,0,0,11.13.17c6.43-.46,10.92-1.14,10.92-1.14"/>
          <path id="Path_1552" data-name="Path 1552" class="cls-8" d="M72.56,401.92a73.46,73.46,0,0,1,29.5-7"/>
          <path id="Path_1553" data-name="Path 1553" class="cls-7" d="M129.44,390.16s52.36-3.17,100.11,7l32,7.09s21.16,2.74,22.92,2.84,19.61,19,6.82,55c0,0-23.71,12.3-79.51,8.76"/>
          <path id="Path_1554" data-name="Path 1554" class="cls-8" d="M289.85,469.25a5.59,5.59,0,0,0,1.41-7.14"/>
          <path id="Path_1555" data-name="Path 1555" class="cls-7" d="M129.48,393.74s54,1,96.58,10.11,58.94,3.5,58.94,3.5"/>
          <path id="Path_1556" data-name="Path 1556" class="cls-7" d="M175,390.16l23.44-5.25s8.47-.7,11.95-12.12"/>
          <path id="Path_1557" data-name="Path 1557" class="cls-7" d="M238.2,398.65s33.27-2,79-8.25c45.42-6.2,54.72-3,61.07,5.51"/>
          <path id="Path_1558" data-name="Path 1558" class="cls-7" d="M368.55,382.26a12.93,12.93,0,0,1,3,7.86"/>
          <path id="Path_1559" data-name="Path 1559" class="cls-7" d="M119.45,317.07s8-2.33,13.31-1.9,38.36-1.07,47.13-4.58a47.241,47.241,0,0,1,11.25.22s5.13,0,5.94-.43,5.37-.53,7.2,1.26,11.36,6.83,12.42,24.66-4,30.42-4,30.42"/>
          <path id="Path_1560" data-name="Path 1560" class="cls-7" d="M188,310.26s12.61,8.39,14.2,28.21-11.61,44-11.61,44l-32.08,7.08"/>
          <path id="Path_1561" data-name="Path 1561" class="cls-7" d="M144.58,341.88s3,11.79,2,21.81-.77,18.18-4.84,25.56"/>
          <line id="Line_347" data-name="Line 347" class="cls-7" x2="2.27" y2="1.47" transform="translate(125.06 315.96)"/>
          <line id="Line_348" data-name="Line 348" class="cls-7" y1="3.23" x2="11.25" transform="translate(93.19 451.31)"/>
          <path id="Path_1562" data-name="Path 1562" class="cls-7" d="M45.72,411.16c.06-.19-3.39-25.4-3.39-25.4l4.5-14.87-7.46-75.72-3.28-2.34c-.5-.37-2.47-3.21-4.31-2.69"/>
          <path id="Path_1563" data-name="Path 1563" class="cls-7" d="M39.5,295.16l5.46-.19,1.7.54,2.56-.31"/>
          <line id="Line_349" data-name="Line 349" class="cls-7" x2="9.01" y2="86.06" transform="translate(46.67 295.95)"/>
          <path id="Path_1564" data-name="Path 1564" class="cls-7" d="M54.35,382.27a48.43,48.43,0,0,1-6.6-21.41c-.83-12.58-2.59-65.61-2.59-65.61"/>
          <line id="Line_350" data-name="Line 350" class="cls-7" y1="2.06" x2="14.18" transform="translate(28 385.55)"/>
          <path id="Path_1565" data-name="Path 1565" class="cls-7" d="M79.33,410.04,72.88,414l.37,9.06,6.25.48.01-8.94,1.24-.7-3.37-.14,4.84-3.07Z"/>
          <path id="Path_1566" data-name="Path 1566" class="cls-7" d="M79.57,424.1v2.94l3.18-.35s2.43-.66,3.76.7a9.521,9.521,0,0,0,2.78,2s1.5.54,6.63.29c0,0,2.74-.35,3.76,1.07a10.709,10.709,0,0,0,1.4,1.74s2.33,1.53,3.37,0"/>
          <path id="Path_1567" data-name="Path 1567" class="cls-7" d="M103.64,417.17l-21.27-3.79-2.86,1.22.06,9.6"/>
          <path id="Path_1568" data-name="Path 1568" class="cls-8" d="M79.76,414.63l1.1,2.93-.11,6.15s3.87-.76,5.81,1.74S94.7,427,94.7,427s6.24,1.13,7,2.22,2.85.62,2.85.62l-1.89-8.67,1.26-1.45"/>
          <line id="Line_351" data-name="Line 351" class="cls-8" x2="21.61" y2="3.66" transform="translate(81.05 417.49)"/>
          <path id="Path_1569" data-name="Path 1569" class="cls-7" d="M50.33,383.66s7.42,3.88,10.52,11.77,4.82,12.12,4.82,12.12a3.41,3.41,0,0,0,4.11,1.78l4.3,3.7"/>
          <line id="Line_352" data-name="Line 352" class="cls-7" x2="6.25" y2="19.8" transform="translate(57.52 382.23)"/>
          <path id="Path_1570" data-name="Path 1570" class="cls-7" d="M58.46,384.31s7.28,2.15,11,11.44A79.29,79.29,0,0,0,77.3,410.9"/>
          <path id="Path_1571" data-name="Path 1571" class="cls-8" d="M59.6,388.38s4-.31,6.92,6.7S75.81,412,75.81,412"/>
          <path id="Path_1572" data-name="Path 1572" class="cls-8" d="M253.51,402.46s32.82-3.54,38-2.77,19-1.58,25.4,18.34-6.3,42.09-6.3,42.09"/>
          <path id="Path_1573" data-name="Path 1573" class="cls-8" d="M334.86,453.47s11.08-20.14,9.25-33.28-1.83-25.48-27.51-26.82-58.13,3.69-58.13,3.69"/>
          <path id="Path_1574" data-name="Path 1574" class="cls-8" d="M355.29,448.05s3.68.45,6.26-6.42S367,414.4,367,414.4s3.08-20-15.8-24.3-25.18-.35-25.18-.35"/>
          <path id="Path_1575" data-name="Path 1575" class="cls-8" d="M89.72,46.13s19.24,17.93-8.48,70.2"/>
          <path id="Path_1576" data-name="Path 1576" class="cls-7" d="M307.48,364.4l.41-33a6.51,6.51,0,0,1,2.61-4.53c2.4-1.62,15.54-10.28,15.54-10.28l7,.16s7.34.15,11.34-.23,15.56-1.78,15.56-1.78a1.85,1.85,0,0,0,1.23-1.68c.06-1.34.05-2.25.05-2.25a3.5,3.5,0,0,0-2.12-2.56c-2-1.06-7.47-4.24-7.47-4.24s-56.31-4.54-80.69-2l-13.82,1.68s-3.82,1.13-4.19,4.55a24,24,0,0,0-.1,5.34l10.18.7.29.19,18.62,12.24a6.41,6.41,0,0,1,2.15,5.31c-.21,3.5,1,32.24,1,32.24"/>
          <line id="Line_353" data-name="Line 353" class="cls-7" x1="62.45" y1="2.12" transform="translate(263.01 314.46)"/>
          <line id="Line_354" data-name="Line 354" class="cls-7" x2="82.94" y2="2.52" transform="translate(254.08 305.67)"/>
          <path id="Path_1577" data-name="Path 1577" class="cls-7" d="M258.46,303.76s61.72-2.45,77.7,2.19l4.69,2.19a15.12,15.12,0,0,0,10.78,2.19c6.32-1.08,8.32-1.27,8.32-1.27"/>
          <line id="Line_355" data-name="Line 355" class="cls-7" y1="1.69" x2="14.73" transform="translate(336.82 304.25)"/>
          <path id="Path_1578" data-name="Path 1578" class="cls-7" d="M273.42,320.83l28.44,1s9,.8,11,.36,6.23-1,6.23-1"/>
          <path id="Path_1579" data-name="Path 1579" class="cls-7" d="M42.72,95.48s-12.25-1.29-23.06,5.2"/>
          <path id="Path_1580" data-name="Path 1580" class="cls-8" d="M64.54,327.85l77.2,5.65s22.26,1.5,33.74-1.18l13.35-1.92s2.6-.53,3.15-2.42"/>
          <path id="Path_1581" data-name="Path 1581" class="cls-8" d="M76,320.21l78.66,5.37a135.823,135.823,0,0,0,15.33-.44c6.91-.71,16-2.45,16-2.45"/>
          <path id="Path_1582" data-name="Path 1582" class="cls-9" d="M63.1,92.51s59.14,208.15,60.33,223.13l7.57-.76L77.77,114.64s-3.69-3.64-4.14-6.3S71.44,93.2,71.44,93.2l-5.74.49S63.52,93.29,63.1,92.51Z"/>
          <path id="Path_1583" data-name="Path 1583" class="cls-9" d="M133.15,111.84,180.7,310.17l6.37.25-47.02-194.4Z"/>
          <path id="Path_1584" data-name="Path 1584" class="cls-9" d="M30.54,57l15.87,4.67A89.709,89.709,0,0,1,57.15,65.8c3.65,1.89,11.13,5,11.13,5l1.48,9.67L53.57,74.34S50.1,71.7,43,70.41,28.33,67.1,28.33,67.1Z"/>
          <path id="Path_1585" data-name="Path 1585" class="cls-7" d="M174.84,510.46s14.5,5.7,26.93-.4"/>
        </g>
      </g>
    </g>
  </g>
</svg>
