<svg xmlns="http://www.w3.org/2000/svg" xmlns:xlink="http://www.w3.org/1999/xlink" viewBox="0 0 200 200">
  <defs>
    <style>
      .cls-1, .cls-10, .cls-3, .cls-6 {
        fill: #fff;
      }

      .cls-2 {
        clip-path: url(#clip-path);
      }

      .cls-10, .cls-3, .cls-4, .cls-5, .cls-6, .cls-7, .cls-8, .cls-9 {
        stroke: #000;
        stroke-miterlimit: 10;
      }

      .cls-3, .cls-4 {
        stroke-width: 0.95px;
      }

      .cls-4, .cls-5, .cls-7, .cls-8, .cls-9 {
        fill: none;
      }

      .cls-5 {
        stroke-width: 0.48px;
      }

      .cls-10, .cls-8 {
        stroke-width: 0.5px;
      }

      .cls-9 {
        stroke-width: 0.75px;
      }
    </style>
    <clipPath id="clip-path">
      <circle id="Ellipse_32" data-name="Ellipse 32" class="cls-1" cx="100" cy="100" r="100" transform="translate(60 1937)"/>
    </clipPath>
  </defs>
  <g id="espuma" class="cls-2" transform="translate(-60 -1937)">
    <g id="Group_126" data-name="Group 126" transform="translate(-126 -337)">
      <rect id="Rectangle_825" data-name="Rectangle 825" class="cls-1" width="450" height="703" transform="translate(0 1950)"/>
      <g id="Prime_evo_diagonal" data-name="Prime evo diagonal" transform="translate(14.516 1949.477)">
        <g id="diagonal">
          <path id="Path_4566" data-name="Path 4566" class="cls-3" d="M206.62,542.35l45.61-7.07a4.68,4.68,0,0,1,2.36-1.76c1.31-.26,17.69-2.65,17.69-2.65l5.85-.09a3.83,3.83,0,0,1,2.35,2.11l1.23,2.07,1.54,3,.95,12.22s-3.85,1.79-12,1.32c0,0-5-.46-6-1.94l-21.93,6.53,65,13.24,1.36-.86,39.57,8.12.44,1.31a3.25,3.25,0,0,1,2.59,1.93l1.41,18.06-7.25,2.32-9.51-1.29s-2.75-.56-3.74-2.69l-.07-4.47L222.64,575.89s-18.53-1.45-21.06,4.91l-2.71,54.06L188.75,637l-11.66-2-.1-54.07s1-6.16-19.41-4.9l-113,16.43.06,3.81s.15,2.21-3.65,3.28a63.778,63.778,0,0,1-9.89,1.52L24,598.55l1.13-16.49a3.48,3.48,0,0,1,2.45-3.38l1-1.44,40-8.24,1,1.06,66-13.82L115.18,550s-1.52,2.53-11.91,1.91c0,0-5.38-.46-6.17-1.64l.66-11.47,3.59-7.33a5.1,5.1,0,0,1,3.93-1.14l19,2.59a12.411,12.411,0,0,1,4.87,2.37l42.9,7"/>
          <path id="Path_4567" data-name="Path 4567" class="cls-3" d="M181.16,508.05v1.38a22.5,22.5,0,0,0,14.25-.21v-1.38a12.71,12.71,0,0,1,7.19,1.74l.42,4.53a2.16,2.16,0,0,1,1,1.06l.23,3.16a3.7,3.7,0,0,1,1.33,1.3l1,26.3c1.1,1.6.64,2.5.64,2.5-3,4.4-17.12,4.61-17.12,4.61-17.07.14-18.39-4-18.58-5.27a1.64,1.64,0,0,1,.87-1.75l-.06-3.46s.22-21.31.27-22.32S174,519,174,519l.31-3.52c0-.6,1.06-.73,1.06-.73l.29-4.48c.4-1.26,5.76-2.18,5.76-2.18"/>
          <path id="Path_4568" data-name="Path 4568" class="cls-4" d="M174.7,515.41s16.54,6.64,28.76-.43"/>
          <path id="Path_4569" data-name="Path 4569" class="cls-4" d="M173.37,519.57s1,5.16,16.9,4.68S205,518.7,205,518.7"/>
          <path id="Path_4570" data-name="Path 4570" class="cls-4" d="M99.26,536.19s-.15.92.53,1.15,16.93,3.77,16.93,3.77a2.16,2.16,0,0,0,1.58-.55,45.869,45.869,0,0,0,2.28-4.33s1-1.84,2.17-1.46c0,0,4.34.38,6,.55"/>
          <path id="Path_4571" data-name="Path 4571" class="cls-4" d="M252.43,535.42a6.06,6.06,0,0,0,2.19-.27c1.14-.38,3.84-1.29,5.21.4a7.5,7.5,0,0,1,1.61,3.36,2.12,2.12,0,0,0,2.49,2c2.26-.39,17.26-3.24,17.26-3.24s1.11-.46,1-1.45"/>
          <path id="Path_4572" data-name="Path 4572" class="cls-4" d="M350.93,578.21s-2.09.1-3.76,4.18a3.13,3.13,0,0,1-3.25,2l-37.47-7.2s-1.67,0-1.46-2c0,0,.38-2.63,1.15-3a23.66,23.66,0,0,0,3.06-2.67"/>
          <path id="Path_4573" data-name="Path 4573" class="cls-4" d="M179.39,617.6l4-2.63a3,3,0,0,1,2.38-.69c1.67.1,4.06.06,4.06.06a4.34,4.34,0,0,1,3,.79l4,2.81,1.36-17.45-.45-1.73s-1.77-3.07-4.71-3.63l-7.7-.12a6.17,6.17,0,0,0-3.74,1.43,22.8,22.8,0,0,0-2.64,2.6L179,618Z"/>
          <path id="Path_4574" data-name="Path 4574" class="cls-4" d="M27.57,578.68s2.29,1,3.9,4.78a3.22,3.22,0,0,0,3.9,1.67c3-.64,36.79-6.52,36.79-6.52s1.42-.55,1.22-1.74-.46-3-.46-3l-2.19-2.59L69.34,570"/>
          <path id="Path_4575" data-name="Path 4575" class="cls-4" d="M25.74,579.73l6.07,7.07-.44,14.25"/>
          <path id="Path_4576" data-name="Path 4576" class="cls-4" d="M32.17,586.79,153,566s16.67-2.64,24.88,3.77l-.35,50.93"/>
          <line id="Line_866" data-name="Line 866" class="cls-4" x1="1.19" y2="42.26" transform="translate(193.28 552.77)"/>
          <line id="Line_867" data-name="Line 867" class="cls-4" x2="0.62" y2="41.99" transform="translate(183.98 552.93)"/>
          <path id="Path_4577" data-name="Path 4577" class="cls-4" d="M352.67,578.97l-6.44,8.09.43,12.64"/>
          <path id="Path_4578" data-name="Path 4578" class="cls-4" d="M345.63,587.07,221.88,565s-17.24-3.2-21.19,4.14l-3.33,48.75"/>
          <line id="Line_868" data-name="Line 868" class="cls-4" x1="100.44" y1="21.5" transform="translate(204.48 550.74)"/>
          <line id="Line_869" data-name="Line 869" class="cls-4" x1="37.3" y1="7.98" transform="translate(206.94 548.07)"/>
          <line id="Line_870" data-name="Line 870" class="cls-4" y1="9.88" x2="53.22" transform="translate(206.91 535.93)"/>
          <line id="Line_871" data-name="Line 871" class="cls-4" y1="13.28" x2="58.41" transform="translate(223.94 538.18)"/>
          <path id="Path_4579" data-name="Path 4579" class="cls-4" d="M266.41,549.51l10.93-3.32s1.9-.81,2.75.38"/>
          <line id="Line_872" data-name="Line 872" class="cls-4" y1="7.77" x2="35.62" transform="translate(135.56 548.25)"/>
          <line id="Line_873" data-name="Line 873" class="cls-4" x1="55.5" y1="13.02" transform="translate(98.14 538.68)"/>
          <path id="Path_4580" data-name="Path 4580" class="cls-4" d="M114.94,550l-11.35-3.58s-2.24-.6-2.79.2"/>
          <path id="Path_4581" data-name="Path 4581" class="cls-4" d="M181.4,636.07l.11,7.22.9.82.72,32.1,10.98-.16-.48-32.46,1.18-.62.01-7.1"/>
          <path id="Path_4582" data-name="Path 4582" class="cls-4" d="M181.59,637s7.34,4.07,13-.19"/>
          <path id="Path_4583" data-name="Path 4583" class="cls-4" d="M194.81,643h5.91s2.27-.15,2.3,1.82.71,39.62.71,39.62-.1,1.73-1.11,1.75-7,.16-7,.16-1.69-1.11-1.63-5.29a32.52,32.52,0,0,0-.08-4.65"/>
          <path id="Path_4584" data-name="Path 4584" class="cls-4" d="M181.51,643.29l-6.33.1s-2-.39-2,2.17.47,39.45.47,39.45,0,1.79,2.24,1.75l6.26-.09a1.4,1.4,0,0,0,1.07-.85c.22-.72-.09-9.61-.09-9.61"/>
          <path id="Path_4585" data-name="Path 4585" class="cls-4" d="M332.66,629.48s-3.37-12.45,6.72-18.57,21.76,2.46,24.3,7.36,9.15,18.56-3.66,26.16S333.8,636.62,332.66,629.48Z"/>
          <path id="Path_4586" data-name="Path 4586" class="cls-4" d="M337.87,599.12s.52,2.32,5.65,2.42,6.09-.15,6.77-2.07"/>
          <line id="Line_874" data-name="Line 874" class="cls-4" x2="0.19" y2="12.53" transform="translate(337.88 599.72)"/>
          <path id="Path_4587" data-name="Path 4587" class="cls-4" d="M350.67,599.53l.08,5.29s-9.38.73-12.44,6.47"/>
          <path id="Path_4588" data-name="Path 4588" class="cls-4" d="M350.92,603.1a12.671,12.671,0,0,1,9.31-.49c5.39,1.67,10,4,14.28,12.95a17.75,17.75,0,0,1-.59,16.48,28.71,28.71,0,0,1-9.51,8.77"/>
          <path id="Path_4589" data-name="Path 4589" class="cls-4" d="M341.58,607.72s12.47-4.25,21,4.28,7.4,16.06,7.4,16.06.1,6.63-3.77,11.4"/>
          <path id="Path_4590" data-name="Path 4590" class="cls-4" d="M351.08,604.06s9.17-1.4,15.77,5.37a24.13,24.13,0,0,1,7,14.4,18.29,18.29,0,0,1-6.05,14.29"/>
          <line id="Line_875" data-name="Line 875" class="cls-4" y1="1.96" x2="3.2" transform="translate(369.52 630.29)"/>
          <path id="Path_4591" data-name="Path 4591" class="cls-4" d="M335.77,627.76s-1.47-12.41,9.6-14.19S361.82,624,361.82,624s5.29,14-6.54,17.82C342.63,645.9,335.93,631.78,335.77,627.76Z"/>
          <path id="Path_4592" data-name="Path 4592" class="cls-4" d="M342.45,627.06a8.39,8.39,0,0,0,6.84,7.86c6.83,1.61,5.77-8,5.77-8s-1.63-5.5-7.13-5.66S342.45,627.06,342.45,627.06Z"/>
          <path id="Path_4593" data-name="Path 4593" class="cls-4" d="M345.92,621.55s1.4-1.21,2.12-1.14,4.45-.89,7.17,3.28c3.54,5.44-1.83,10.57-1.83,10.57"/>
          <path id="Path_4594" data-name="Path 4594" class="cls-5" d="M338.49,617.87l1.1.4,5.06,3.33.83-.51-3.11-4.61-1.96-1"/>
          <path id="Path_4595" data-name="Path 4595" class="cls-5" d="M342.34,614.47l1.19.88,2.72,4.1s1.26.27,1.33-.62h0l-1-3.85-.95-1.33"/>
          <path id="Path_4596" data-name="Path 4596" class="cls-5" d="M347.28,613.32l.73,1.25,1.06,4.2s.85.9,1.41.21l.63-3.76-.3-1.27"/>
          <path id="Path_4597" data-name="Path 4597" class="cls-5" d="M352.65,614.62l.09,1-.57,4.13s.65.84,1.2.67l1.88-3.07.33-1"/>
          <path id="Path_4598" data-name="Path 4598" class="cls-5" d="M357,617.63l-.2.92-1.85,2.7s0,1.27,1.19,1.21l3.17-2.27"/>
          <path id="Path_4599" data-name="Path 4599" class="cls-5" d="M360.5,622.08l-3.36,1.84s-1,1.51.55,1.68l4.26-1.1"/>
          <path id="Path_4600" data-name="Path 4600" class="cls-5" d="M362.49,627.3l-4-.16s-1.76.66-.27,1.66l4.78,1.86"/>
          <path id="Path_4601" data-name="Path 4601" class="cls-5" d="M361.84,636l-1.18-1.49-3.48-2.87s-.76-1.6.66-1.37,4.83,2.62,4.83,2.62"/>
          <path id="Path_4602" data-name="Path 4602" class="cls-5" d="M358.07,640.5l-.13-1.79a3.71,3.71,0,0,0-.62-1.7c-.53-.69-1.71-2.46-1.71-2.46s-.71-2.29,1.4-1.38l2.83,3.26.92,1.64"/>
          <path id="Path_4603" data-name="Path 4603" class="cls-5" d="M353.1,642.2l.49-1.76a4.29,4.29,0,0,0-.13-2.3l-.74-2.46s.34-1.53,1.61-.6l1.37,2.55a4.619,4.619,0,0,1,.66,1.74l.14,1.71"/>
          <path id="Path_4604" data-name="Path 4604" class="cls-5" d="M347.82,642l.9-1.38a3.59,3.59,0,0,0,.57-2l.44-3.31"/>
          <path id="Path_4605" data-name="Path 4605" class="cls-5" d="M351.03,635.31l1.09,4.16-.77,2.78"/>
          <path id="Path_4606" data-name="Path 4606" class="cls-5" d="M342.69,639.35l1.32-1.13,2.44-4.02"/>
          <path id="Path_4607" data-name="Path 4607" class="cls-5" d="M348.06,634.86l-.75,4.52-2.05,1.65"/>
          <path id="Path_4608" data-name="Path 4608" class="cls-5" d="M339.01,635.13l1.51-1.35,3.25-2.08"/>
          <path id="Path_4609" data-name="Path 4609" class="cls-5" d="M345.17,633.21l-2.2,3.16-1.17,1.78"/>
          <path id="Path_4610" data-name="Path 4610" class="cls-5" d="M338,633.3l1.2-.9a7.573,7.573,0,0,1,1.59-.88A13.916,13.916,0,0,0,343,630.3"/>
          <path id="Path_4611" data-name="Path 4611" class="cls-5" d="M342.53,628.71l-2.72.26-3.15,1.02"/>
          <path id="Path_4612" data-name="Path 4612" class="cls-5" d="M335.98,627.84l2.91-.72,3.26-.15"/>
          <path id="Path_4613" data-name="Path 4613" class="cls-5" d="M342.49,625.65l-4.48-1.33-2.01-.07"/>
          <path id="Path_4614" data-name="Path 4614" class="cls-5" d="M336.29,622.18l2.11.23,4.42,1.5"/>
          <path id="Path_4615" data-name="Path 4615" class="cls-5" d="M343.42,622.81l-3.62-2.79-2.22-.49"/>
          <path id="Path_4616" data-name="Path 4616" class="cls-4" d="M47.66,630.23s3-12.54-7.28-18.36S18.71,615,16.31,620s-8.58,18.82,4.45,26S46.73,637.4,47.66,630.23Z"/>
          <path id="Path_4617" data-name="Path 4617" class="cls-4" d="M41.54,600s-.44,2.33-5.57,2.59-6.09,0-6.83-1.87"/>
          <line id="Line_876" data-name="Line 876" class="cls-4" x2="0.19" y2="12.53" transform="translate(41.55 600.64)"/>
          <path id="Path_4618" data-name="Path 4618" class="cls-4" d="M28.76,600.83l.08,5.29s9.4.45,12.62,6.09"/>
          <path id="Path_4619" data-name="Path 4619" class="cls-4" d="M28.61,604.41a12.61,12.61,0,0,0-9.31-.22C14,606,9.42,608.48,5.42,617.57A17.72,17.72,0,0,0,6.5,634a28.68,28.68,0,0,0,9.76,8.49"/>
          <path id="Path_4620" data-name="Path 4620" class="cls-4" d="M38.09,608.74s-12.59-3.87-20.82,4.91-6.92,16.28-6.92,16.28.1,6.62,4.11,11.28"/>
          <path id="Path_4621" data-name="Path 4621" class="cls-4" d="M28.49,605.37s-9.21-1.12-15.61,5.84a24.19,24.19,0,0,0-6.53,14.6,18.33,18.33,0,0,0,6.49,14.11"/>
          <line id="Line_877" data-name="Line 877" class="cls-4" x1="3.25" y1="1.86" transform="translate(7.64 632.24)"/>
          <path id="Path_4622" data-name="Path 4622" class="cls-4" d="M44.49,628.6s1.11-12.45-10-13.89-16.13,10.92-16.13,10.92-4.87,14.17,7.06,17.62C38.18,646.94,44.45,632.62,44.49,628.6Z"/>
          <path id="Path_4623" data-name="Path 4623" class="cls-4" d="M37.8,628.11a8.39,8.39,0,0,1-6.6,8c-6.78,1.81-6-7.79-6-7.79s1.47-5.55,7-5.87S37.8,628.11,37.8,628.11Z"/>
          <path id="Path_4624" data-name="Path 4624" class="cls-4" d="M34.17,622.7s-1.44-1.16-2.15-1.07-4.48-.77-7.08,3.48c-3.37,5.55,2.15,10.52,2.15,10.52"/>
          <path id="Path_4625" data-name="Path 4625" class="cls-5" d="M41.48,618.8l-1.08.43-4.97,3.48-.84-.48,2.97-4.71,1.94-1.06"/>
          <path id="Path_4626" data-name="Path 4626" class="cls-5" d="M37.53,615.52l-1.16.91-2.6,4.18s-1.25.3-1.34-.58h0l.88-3.87.91-1.37"/>
          <path id="Path_4627" data-name="Path 4627" class="cls-5" d="M32.57,614.52l-.7,1.26L30.94,620s-.83.93-1.41.26l-.73-3.75.26-1.27"/>
          <path id="Path_4628" data-name="Path 4628" class="cls-5" d="M27.24,616l-.07.95.7,4.11s-.63.87-1.18.72l-2-3-.35-1"/>
          <path id="Path_4629" data-name="Path 4629" class="cls-5" d="M23,619.12l.23.91,1.93,2.63s0,1.28-1.16,1.25l-3.23-2.18"/>
          <path id="Path_4630" data-name="Path 4630" class="cls-5" d="M19.61,623.66,23,625.4s1,1.48-.49,1.7l-4.29-1"/>
          <path id="Path_4631" data-name="Path 4631" class="cls-5" d="M17.78,628.94l4-.28s1.78.61.33,1.65l-4.73,2"/>
          <path id="Path_4632" data-name="Path 4632" class="cls-5" d="M18.69,637.62l1.13-1.53,3.39-3s.72-1.62-.69-1.34-4.76,2.75-4.76,2.75"/>
          <path id="Path_4633" data-name="Path 4633" class="cls-5" d="M22.59,642l.07-1.79a3.86,3.86,0,0,1,.57-1.72c.51-.7,1.64-2.51,1.64-2.51s.65-2.31-1.44-1.34L20.7,638l-.87,1.66"/>
          <path id="Path_4634" data-name="Path 4634" class="cls-5" d="M27.61,643.56l-.55-1.75a4.32,4.32,0,0,1,.07-2.3l.66-2.48s-.38-1.53-1.62-.55l-1.3,2.58a4.68,4.68,0,0,0-.61,1.76l-.09,1.71"/>
          <path id="Path_4635" data-name="Path 4635" class="cls-5" d="M32.87,643.18l-.93-1.36a3.55,3.55,0,0,1-.63-2l-.54-3.29"/>
          <path id="Path_4636" data-name="Path 4636" class="cls-5" d="M29.47,636.61l-.97,4.19.86,2.75"/>
          <path id="Path_4637" data-name="Path 4637" class="cls-5" d="M37.92,640.4l-1.34-1.1-2.57-3.94"/>
          <path id="Path_4638" data-name="Path 4638" class="cls-5" d="M32.43,636.07l.88,4.5,2.1,1.58"/>
          <path id="Path_4639" data-name="Path 4639" class="cls-5" d="M41.48,636.07l-1.55-1.31-3.31-1.98"/>
          <path id="Path_4640" data-name="Path 4640" class="cls-5" d="M35.27,634.33l2.29,3.09,1.22,1.75"/>
          <path id="Path_4641" data-name="Path 4641" class="cls-5" d="M42.45,634.2l-1.23-.85a7.338,7.338,0,0,0-1.62-.83,14.427,14.427,0,0,1-2.21-1.17"/>
          <path id="Path_4642" data-name="Path 4642" class="cls-5" d="M37.77,629.76l2.72.17,3.18.93"/>
          <path id="Path_4643" data-name="Path 4643" class="cls-5" d="M44.3,628.68l-2.94-.63L38.1,628"/>
          <path id="Path_4644" data-name="Path 4644" class="cls-5" d="M37.72,626.69l4.44-1.45,2-.13"/>
          <path id="Path_4645" data-name="Path 4645" class="cls-5" d="M43.81,623.04l-2.1.29-4.37,1.64"/>
          <path id="Path_4646" data-name="Path 4646" class="cls-5" d="M36.7,623.88l3.54-2.89,2.2-.55"/>
          <path id="Path_4647" data-name="Path 4647" class="cls-4" d="M203.43,656.45l.83-.01.24,15.69-.72.01"/>
          <path id="Path_4648" data-name="Path 4648" class="cls-4" d="M172.94,657.25l-.83.01.23,15.7.72-.01"/>
          <path id="Path_4649" data-name="Path 4649" class="cls-4" d="M269.24,551.32s0,2.15,5.52,2.19,5-2,5-2"/>
          <line id="Line_878" data-name="Line 878" class="cls-4" x2="0.13" y2="9.31" transform="translate(269.13 551.56)"/>
          <path id="Path_4650" data-name="Path 4650" class="cls-4" d="M280.17,551.52l.26,5.66a20.471,20.471,0,0,0-5.07,5.21"/>
          <path id="Path_4651" data-name="Path 4651" class="cls-4" d="M269.06,555s-3.07,2.25-4,5.07"/>
          <path id="Path_4652" data-name="Path 4652" class="cls-4" d="M280.35,552.17l15.24,5.38s4.57,2.08,5.76,10"/>
          <path id="Path_4653" data-name="Path 4653" class="cls-4" d="M280.43,557.18s4.05-2.74,8.05-2.18"/>
          <path id="Path_4654" data-name="Path 4654" class="cls-4" d="M284.29,564s2.51-3.83,6.66-3.65a8.61,8.61,0,0,1,7.86,6.57"/>
          <line id="Line_879" data-name="Line 879" class="cls-4" x2="0.27" y2="2.32" transform="translate(286.41 562.08)"/>
          <path id="Path_4655" data-name="Path 4655" class="cls-4" d="M288.33,560.99l-.48,1.3.18,2.42"/>
          <path id="Path_4656" data-name="Path 4656" class="cls-4" d="M290.6,560.55l-.88,1.18-.85,3.12"/>
          <path id="Path_4657" data-name="Path 4657" class="cls-4" d="M292.36,560.74l-1.14,1.36-.83,2.99"/>
          <path id="Path_4658" data-name="Path 4658" class="cls-4" d="M291.04,565.3l1.45-2.37,1.79-1.46"/>
          <path id="Path_4659" data-name="Path 4659" class="cls-4" d="M295.83,562.42l-2.01,1.39-1.23,1.77"/>
          <path id="Path_4660" data-name="Path 4660" class="cls-4" d="M293.84,566.12l1.76-1.42,1.8-.46"/>
          <path id="Path_4661" data-name="Path 4661" class="cls-4" d="M296.06,566.46l.79-.49,1.42-.11"/>
          <path id="Path_4662" data-name="Path 4662" class="cls-4" d="M268.25,582.45s2.67,2.95,8.08,2.75"/>
          <path id="Path_4663" data-name="Path 4663" class="cls-4" d="M271.8,582.87s.54,1.79,4.41,2.41a17.79,17.79,0,0,0,9.49,4c5.82.59,8.43-3,8.43-3"/>
          <path id="Path_4664" data-name="Path 4664" class="cls-4" d="M277.86,583.94s1.64,3.09,7.61,5.38"/>
          <path id="Path_4665" data-name="Path 4665" class="cls-4" d="M275.19,583.36a8.122,8.122,0,0,0,1,1.92"/>
          <path id="Path_4666" data-name="Path 4666" class="cls-4" d="M103.47,563c.12-2.45-1.84-6.68-1.84-6.68l.17-4.3s.51,2.26,5.92,1.9,4.37-2.44,4.37-2.44l.5,6.19a9.14,9.14,0,0,1-.55,3.54"/>
          <path id="Path_4667" data-name="Path 4667" class="cls-4" d="M101.51,553.67l-8.74,1s-3.88,1.29-3.46,11"/>
          <path id="Path_4668" data-name="Path 4668" class="cls-4" d="M97.17,564.12s-.16-7.72-4.4-9.49"/>
          <path id="Path_4669" data-name="Path 4669" class="cls-4" d="M112.51,552.31l1.51-.18s3.87.93,4.68,7.49"/>
          <path id="Path_4670" data-name="Path 4670" class="cls-4" d="M101.63,556.29a9.74,9.74,0,0,0-2.74-2.19"/>
          <path id="Path_4671" data-name="Path 4671" class="cls-4" d="M95.42,564.46s-.21-4.65-3-6.2-2.71,7.32-2.71,7.32"/>
          <path id="Path_4672" data-name="Path 4672" class="cls-4" d="M90.58,559.78l2,.88a3.51,3.51,0,0,1,1.2,1.78c.23,1,.45,2.22.45,2.22"/>
          <path id="Path_4673" data-name="Path 4673" class="cls-4" d="M89.83,563.07s2.09,0,3,1l.33.79"/>
          <path id="Path_4674" data-name="Path 4674" class="cls-4" d="M93.39,585.42s1.06,2.09,2.54,2.35,6.47-.61,6.47-.61a9.84,9.84,0,0,0,1.75-3.21"/>
          <path id="Path_4675" data-name="Path 4675" class="cls-4" d="M98.76,584.58a3.86,3.86,0,0,1-2.67,3.21"/>
          <path id="Path_4676" data-name="Path 4676" class="cls-4" d="M109.07,583.16a4.25,4.25,0,0,0,2.87,2.81l5.64-.55s2.68-1.83,2.49-3.7"/>
          <path id="Path_4677" data-name="Path 4677" class="cls-4" d="M114.63,582.36s-.36,2.95-2.57,3.7"/>
          <path id="Path_4678" data-name="Path 4678" class="cls-4" d="M203,469.37c3.78,5.23,7.7,6.51,7.7,6.51a10.91,10.91,0,0,0,9.56-1.85l1.29-2.91"/>
          <path id="Path_4679" data-name="Path 4679" class="cls-3" d="M282.41,456.67l-.75,8.28a7.361,7.361,0,0,1-1.79,2.58c-1.26,1.13-22.74,12.19-22.74,12.19l-1.83,5-10.85,3.66,1.09,3.64s-.14,1.6-8.37,4.82l1.34,31-4.24,3.56s-7,2.65-17.88,1.94l-5.7-3.49-2.68-25-2.63-.44-.76-2.69-2,4.16s-17.5,5.52-28.73-.68L170,487.07l-8.1,1.16s.15,10.1-12.83,14.83l-6,1.44s-1,.82-5.27-1-16-10.11-16-10.11-4.45.23-4.09-7.81a4.61,4.61,0,0,1,2.88-4l73.74-12.64"/>
          <path id="Path_4680" data-name="Path 4680" class="cls-4" d="M170,487.07l30.35-3.71s8.21-9.56-2.91-14.76"/>
          <path id="Path_4681" data-name="Path 4681" class="cls-4" d="M173.42,503.08a8,8,0,0,0,2.94-4.44c.56-2.76,28-16.66,28-16.66s6.16-3.55,8.78-3.59,15.12-3.21,15.12-3.21l52.68-9"/>
          <path id="Path_4682" data-name="Path 4682" class="cls-4" d="M257.13,479.73l-35.65,6.36-25.67,11.72,2.51,4.14,6.31-1.11"/>
          <line id="Line_880" data-name="Line 880" class="cls-4" y1="10.42" x2="6.65" transform="translate(221.83 475.48)"/>
          <path id="Path_4683" data-name="Path 4683" class="cls-4" d="M206.11,504.28l12.49-4.69,11.19-4.21s8.56-2.44,10.94-2.72,3.52-.41,3.76.07"/>
          <path id="Path_4684" data-name="Path 4684" class="cls-4" d="M218.88,499.85s15.45-.53,18.16-2.72"/>
          <path id="Path_4685" data-name="Path 4685" class="cls-4" d="M197.82,500.82l24.48-11.46,33.22-5.87"/>
          <path id="Path_4686" data-name="Path 4686" class="cls-4" d="M282.41,456.91s16.83-2.8,28.68-3.3c0,0,3.89-.53,5.19,1,0,0,7.93,9,8.84,16.5,0,0,1.24,3-1.12,4.63s-20.85.31-34.82-7.91l-12.78,1.94"/>
          <path id="Path_4687" data-name="Path 4687" class="cls-4" d="M317.1,456.07s-25.61,6.51-27.18,8.12-2.51,1.87-1.22,3.45"/>
          <path id="Path_4688" data-name="Path 4688" class="cls-4" d="M120.92,481.74l17.63,18.85s1.47,2.05,5.75,1.27,12.52-3.77,15.41-7.23"/>
          <path id="Path_4689" data-name="Path 4689" class="cls-4" d="M123.67,484.1s32.21-1,36.61.33c0,0,2.07.13,2.08.85a25.087,25.087,0,0,1-.44,3"/>
          <path id="Path_4690" data-name="Path 4690" class="cls-4" d="M175.66,510.11s12.94,5.94,26.86-.58"/>
          <path id="Path_4691" data-name="Path 4691" class="cls-6" d="M147.28,87C149,104.21,159,111.56,159,111.56l40.64,25.9s17.17,10.87,9,42.12-6.29,47.85-6.29,47.85,3.44,20.95,20.65,43.07,15.15,43.9,15.15,43.9c-.25,3.8-3,32.75-25,52l-2.23,5.72s27.22-6.59,74.82-8.18,73.42,10.41,73.42,10.41,10.95,5,18.65,18.59-3.74,50.82-3.74,50.82-72,16.2-82.15,24-42.68,5.39-42.68,5.39-70.93-3.69-91.41-10.39L142,467.48l-.34,1.88-11.07,4.17s-10.08,2.9-17.73,1.14-8.07-4.63-8.07-4.63l.53-14.76-11.26-.71L91,455l-53.39-8.58s-7.38-.14-8.36-7.5-2.93-28.83-2.93-28.83-1.49-7.36,1.92-13.41l-.43-3.74a8.86,8.86,0,0,1,1.65-6.9c2.51-3.35,7.83-11.75,7.83-11.75l-12.55-75.7,2.32-3.91L3,175.9S-7.07,135.79,13.08,112A69.94,69.94,0,0,0,24.91,84C28.16,66.76,35,32.4,35,32.4S40.34,3.57,63.05,1s44.1,6.09,44.1,6.09,13.33,5.56,18.53,18.73c2.18,5.53,4,11.35,5.41,16.25"/>
          <path id="Path_4692" data-name="Path 4692" class="cls-7" d="M85.31,1.52s-18-5.6-22.79,14.1c0,0-12.36,42.94-18.6,77.41,0,0-5,9.45-8.5,25.13s-4.49,17.32-2.39,32,6.44,46.16,6.44,46.16,5.18,37.17,26.38,67.11,24.56,54.14,24.56,54.14"/>
          <path id="Path_4693" data-name="Path 4693" class="cls-7" d="M69.81,395.05s17.67-14,21.77-48.71"/>
          <path id="Path_4694" data-name="Path 4694" class="cls-7" d="M27,294.5s1.35-4.09,6.72-4.55a59.85,59.85,0,0,1,9.12-.13l6.83,5.33,13.4,85.46-15.28,3.73s-2.82,1-2.57,6.12S46.9,406.6,46.9,406.6s2.07,11.89-4.58,14.8-11.39-5.64-11.39-5.64l-2.85-19.09"/>
          <path id="Path_4695" data-name="Path 4695" class="cls-8" d="M26.41,402.41,29.63,428S31,440.59,40.51,442.12s47.7,7.45,47.7,7.45a9.78,9.78,0,0,0-.15-9.66s-16.72-5.56-21.66-10.6S51.78,415.78,47.22,394.6c0,0,2.86,1.95,3.56,4.19s8.88,30.79,35.39,37.15c0,0,2.62,2.12,2.71,2.87a.74.74,0,0,1-.65.85"/>
          <path id="Path_4696" data-name="Path 4696" class="cls-7" d="M47.16,384.93s6.47,3.49,9.88,14.44,16.62,30.5,33.33,33.09c0,0,12.42,5.48,3,21.87"/>
          <path id="Path_4697" data-name="Path 4697" class="cls-8" d="M29.19,437.79s.9,4.48,4.58,5.35,52.47,8.46,52.47,8.46l3.54,2.95"/>
          <line id="Line_881" data-name="Line 881" class="cls-8" y1="1.74" x2="1.84" transform="translate(86.37 449.57)"/>
          <path id="Path_4698" data-name="Path 4698" class="cls-7" d="M112.94,317.15s-2.4-18.76-18.4-40.52-17.42-61.75-17.42-61.75-.76-39.66,8-45.12,51.48-1.44,55.89,3.83,28.27,39.75,36.16,55.3a229.18,229.18,0,0,0,33.73,48.33c12.87,13.81,25.95,40.95,5.9,71.59"/>
          <path id="Path_4699" data-name="Path 4699" class="cls-7" d="M43,95.79a12.22,12.22,0,0,1,5.17,3.55c1.92,2.47,21.83,30.3,39.79,68.91"/>
          <path id="Path_4700" data-name="Path 4700" class="cls-7" d="M159,111.56c-2.79,18.2-9.39,39.22-17.71,61.52"/>
          <path id="Path_4701" data-name="Path 4701" class="cls-7" d="M187.38,309.58c1-.29-19-93.71-37.15-116a44.28,44.28,0,0,0-26.11-18.2s-13.1-1.14-22.85-1.24-13.73,12.62-13.73,12.62a150.09,150.09,0,0,0-8,47.62"/>
          <path id="Path_4702" data-name="Path 4702" class="cls-7" d="M71.81,399.58s15.56-8.79,30.94-9"/>
          <path id="Path_4703" data-name="Path 4703" class="cls-7" d="M102,376.19A40.9,40.9,0,0,1,88.25,392.9"/>
          <path id="Path_4704" data-name="Path 4704" class="cls-7" d="M105.13,455.11l.49-8.92a4.14,4.14,0,0,1,1.73-1.24l.12-3.37-1.29-1.07-6-84.29s.27-4.59-3.34-6.37-20.3-14-20.3-14L68.08,335s-2.5.12-3.36-1.7l-.23-4.08s-.61-2.08,2.53-3.79a49.673,49.673,0,0,0,5.66-3.63,14.71,14.71,0,0,1,6.13-2.09c3.33-.26,20.09-2.47,20.09-2.47s56.83-.8,87.42,5.16l3.62,2.19a6.69,6.69,0,0,1,3.15,4.46,53.194,53.194,0,0,1,.7,7.74l-24.28,3.61a168.073,168.073,0,0,1-23.25.43l-14.19,9.63s-3.27,1.88-2.58,7.12l1.27,85.1s-.16,1-1.59,1l.14,3.56a4,4,0,0,1,1.63.14c.38.24,1.66,16.94,1.66,16.94"/>
          <path id="Path_4705" data-name="Path 4705" class="cls-7" d="M130.52,463.21a4.46,4.46,0,0,0,5.42,3.17c4.49-.75,5.73-1.46,5.73-1.46l.47,2.53"/>
          <line id="Line_882" data-name="Line 882" class="cls-7" x1="9.32" y1="2.3" transform="translate(132.6 462.53)"/>
          <line id="Line_883" data-name="Line 883" class="cls-7" y1="3.36" x2="11.71" transform="translate(142.11 462.09)"/>
          <line id="Line_884" data-name="Line 884" class="cls-7" x1="26.39" y1="5.13" transform="translate(131.53 457.6)"/>
          <path id="Path_4706" data-name="Path 4706" class="cls-7" d="M105.87,446.35s3.43,3.45,12.3,3,11.44-1.05,12.35-1.56"/>
          <path id="Path_4707" data-name="Path 4707" class="cls-7" d="M107.42,441.41s3.22,3.16,21.58,2.14"/>
          <line id="Line_885" data-name="Line 885" class="cls-7" x2="69.67" y2="5.04" transform="translate(76.59 335.82)"/>
          <path id="Path_4708" data-name="Path 4708" class="cls-8" d="M86.53,342.67l32.35,2.64a60.455,60.455,0,0,0,11.13.15c6.43-.47,10.92-1.16,10.92-1.16"/>
          <path id="Path_4709" data-name="Path 4709" class="cls-8" d="M73.12,401.92a73.43,73.43,0,0,1,29.48-7"/>
          <path id="Path_4710" data-name="Path 4710" class="cls-7" d="M130,390s52.35-3.28,100.13,6.75l32,7s21.16,2.68,22.92,2.78,19.66,19,6.94,55c0,0-23.68,12.35-79.49,8.94"/>
          <path id="Path_4711" data-name="Path 4711" class="cls-8" d="M290.56,468.76a5.57,5.57,0,0,0,1.39-7.14"/>
          <path id="Path_4712" data-name="Path 4712" class="cls-7" d="M130,393.61s54,.86,96.6,9.89,58.95,3.37,58.95,3.37"/>
          <path id="Path_4713" data-name="Path 4713" class="cls-7" d="M175.49,389.93l23.43-5.31s8.47-.72,11.93-12.15"/>
          <path id="Path_4714" data-name="Path 4714" class="cls-7" d="M238.75,398.28s33.27-2.08,79-8.43c45.41-6.3,54.71-3.12,61.09,5.37"/>
          <path id="Path_4715" data-name="Path 4715" class="cls-7" d="M369.07,381.59a13,13,0,0,1,3.05,7.86"/>
          <path id="Path_4716" data-name="Path 4716" class="cls-7" d="M119.82,317s8-2.35,13.3-1.93,38.36-1.15,47.13-4.68a47.489,47.489,0,0,1,11.25.19s5.12,0,5.93-.45,5.37-.53,7.21,1.25S216,318.15,217.11,336s-4,30.44-4,30.44"/>
          <path id="Path_4717" data-name="Path 4717" class="cls-7" d="M188.39,310s12.62,8.36,14.25,28.18-11.51,44-11.51,44l-32.06,7.14"/>
          <path id="Path_4718" data-name="Path 4718" class="cls-7" d="M145,341.71s3,11.79,2,21.81-.72,18.18-4.78,25.57"/>
          <line id="Line_886" data-name="Line 886" class="cls-7" x2="2.28" y2="1.46" transform="translate(125.42 315.84)"/>
          <line id="Line_887" data-name="Line 887" class="cls-7" y1="3.25" x2="11.24" transform="translate(93.87 451.24)"/>
          <path id="Path_4719" data-name="Path 4719" class="cls-7" d="M46.3,411.22c.06-.19-3.44-25.39-3.44-25.39L47.32,371l-7.63-75.71s-2.78-2-3.28-2.33-2.49-3.2-4.32-2.68"/>
          <path id="Path_4720" data-name="Path 4720" class="cls-7" d="M39.82,295.24l5.46-.21,1.7.54,2.56-.32"/>
          <line id="Line_888" data-name="Line 888" class="cls-7" x2="9.2" y2="86.04" transform="translate(47 296)"/>
          <path id="Path_4721" data-name="Path 4721" class="cls-7" d="M54.87,382.31a48.55,48.55,0,0,1-6.66-21.4c-.85-12.57-2.73-65.6-2.73-65.6"/>
          <line id="Line_889" data-name="Line 889" class="cls-7" y1="2.09" x2="14.18" transform="translate(28.53 385.62)"/>
          <path id="Path_4722" data-name="Path 4722" class="cls-7" d="M79.91,410.03,73.47,414l.38,9.06,6.26.46-.01-8.93,1.24-.71-3.38-.14,4.83-3.07Z"/>
          <path id="Path_4723" data-name="Path 4723" class="cls-7" d="M80.18,424.09v2.93l3.19-.36s2.43-.66,3.76.7a9.6,9.6,0,0,0,2.78,2s1.51.54,6.63.27c0,0,2.74-.35,3.76,1.07a11.65,11.65,0,0,0,1.4,1.73s2.34,1.53,3.38-.05"/>
          <path id="Path_4724" data-name="Path 4724" class="cls-7" d="M104.24,417.1l-21.28-3.74-2.86,1.23.08,9.59"/>
          <path id="Path_4725" data-name="Path 4725" class="cls-8" d="M80.35,414.61l1.11,2.93-.1,6.15s3.87-.77,5.81,1.73,8.15,1.5,8.15,1.5,6.24,1.13,7,2.21,2.85.62,2.85.62l-1.91-8.66,1.26-1.46"/>
          <line id="Line_890" data-name="Line 890" class="cls-8" x2="21.61" y2="3.62" transform="translate(81.65 417.47)"/>
          <path id="Path_4726" data-name="Path 4726" class="cls-7" d="M50.85,383.71s7.43,3.87,10.55,11.75,4.85,12.1,4.85,12.1a3.41,3.41,0,0,0,4.11,1.78l4.3,3.68"/>
          <line id="Line_891" data-name="Line 891" class="cls-7" x2="6.3" y2="19.78" transform="translate(58.03 382.27)"/>
          <path id="Path_4727" data-name="Path 4727" class="cls-7" d="M59,384.34s7.28,2.14,11,11.42a79.771,79.771,0,0,0,7.89,15.13"/>
          <path id="Path_4728" data-name="Path 4728" class="cls-8" d="M60.13,388.4s4-.31,6.93,6.69S76.4,412,76.4,412"/>
          <path id="Path_4729" data-name="Path 4729" class="cls-6" d="M308,363.87l.34-33a6.51,6.51,0,0,1,2.6-4.54c2.4-1.62,15.52-10.32,15.52-10.32l7,.15s7.34.14,11.33-.25,15.56-1.82,15.56-1.82a1.83,1.83,0,0,0,1.22-1.68c.07-1.34.05-2.25.05-2.25a3.5,3.5,0,0,0-2.12-2.56c-2-1-7.48-4.22-7.48-4.22s-56.32-4.41-80.7-1.79l-13.81,1.7s-3.82,1.14-4.18,4.56a23.46,23.46,0,0,0-.09,5.34l10.18.68.29.19,18.65,12.2a6.37,6.37,0,0,1,2.16,5.3c-.2,3.5,1.06,32.24,1.06,32.24"/>
          <line id="Line_892" data-name="Line 892" class="cls-7" x1="62.45" y1="1.98" transform="translate(263.37 314.03)"/>
          <line id="Line_893" data-name="Line 893" class="cls-8" x2="82.95" y2="2.33" transform="translate(254.42 305.26)"/>
          <path id="Path_4730" data-name="Path 4730" class="cls-8" d="M258.8,303.34s61.71-2.58,77.7,2l4.7,2.18A15.07,15.07,0,0,0,352,309.7c6.32-1.09,8.32-1.29,8.32-1.29"/>
          <line id="Line_894" data-name="Line 894" class="cls-8" y1="1.66" x2="15.66" transform="translate(336.23 303.62)"/>
          <path id="Path_4731" data-name="Path 4731" class="cls-8" d="M273.8,320.37l28.43.91s9,.78,11,.34,6.23-1,6.23-1"/>
          <path id="Path_4732" data-name="Path 4732" class="cls-7" d="M42.59,95.55s-12.26-1.27-23,5.24"/>
          <path id="Path_4733" data-name="Path 4733" class="cls-8" d="M82.83,203.97l43.65,18.09,31.67-14.22"/>
          <path id="Path_4734" data-name="Path 4734" class="cls-8" d="M79.91,224.62l50.4,19.39,35.76-16.64"/>
          <path id="Path_4735" data-name="Path 4735" class="cls-8" d="M82,247.5l51.89,18.7,38.65-18.46"/>
          <line id="Line_895" data-name="Line 895" class="cls-8" y1="20.26" x2="3.99" transform="translate(91.98 252.54)"/>
          <line id="Line_896" data-name="Line 896" class="cls-8" y1="28.38" x2="6.54" transform="translate(100.29 256.45)"/>
          <path id="Path_4736" data-name="Path 4736" class="cls-8" d="M108.15,300.22l8.74-39.26,26.73,54.02"/>
          <line id="Line_897" data-name="Line 897" class="cls-8" x1="11.95" y2="53.44" transform="translate(114.78 263.81)"/>
          <line id="Line_898" data-name="Line 898" class="cls-8" x1="12.11" y2="51.31" transform="translate(125.13 264.4)"/>
          <line id="Line_899" data-name="Line 899" class="cls-8" x1="12.98" y2="55.99" transform="translate(135.75 259.11)"/>
          <line id="Line_900" data-name="Line 900" class="cls-8" x1="14.24" y2="61.27" transform="translate(146.25 253.5)"/>
          <line id="Line_901" data-name="Line 901" class="cls-8" x1="14.1" y2="65.94" transform="translate(156.49 248.67)"/>
          <line id="Line_902" data-name="Line 902" class="cls-8" x1="10.76" y2="46.07" transform="translate(167.1 266.94)"/>
          <line id="Line_903" data-name="Line 903" class="cls-8" x1="5.42" y2="22.47" transform="translate(177.57 288.72)"/>
          <line id="Line_904" data-name="Line 904" class="cls-8" x1="1.1" y2="4.27" transform="translate(83.56 248.46)"/>
          <line id="Line_905" data-name="Line 905" class="cls-8" x2="35.24" y2="66.11" transform="translate(88.4 249.9)"/>
          <line id="Line_906" data-name="Line 906" class="cls-8" x2="29.67" y2="59.8" transform="translate(103.45 255.23)"/>
          <line id="Line_907" data-name="Line 907" class="cls-8" x2="24.23" y2="49.4" transform="translate(130.14 264.85)"/>
          <line id="Line_908" data-name="Line 908" class="cls-8" x2="24" y2="49.74" transform="translate(140.23 263.61)"/>
          <line id="Line_909" data-name="Line 909" class="cls-8" x2="25.58" y2="51.75" transform="translate(148.74 259.73)"/>
          <line id="Line_910" data-name="Line 910" class="cls-8" x2="27.94" y2="54.16" transform="translate(156.86 255.71)"/>
          <line id="Line_911" data-name="Line 911" class="cls-8" x1="17.45" y1="33.51" transform="translate(164.8 250.99)"/>
          <path id="Path_4737" data-name="Path 4737" class="cls-6" d="M58,73.82s4.42,28.1,5.29,30.42,2.79,8.29,15.56,3.77,32.44-15.49,53.21,2.37c0,0,15.08,16.44,16.94-3.75,0,0-4.68-34.44-1.51-56.82,0,0,1.52-20.86-13.81-9.46s-32,13.31-60.33-10.77c0,0-14.52-12.28-14.55,8.05S57.86,63.32,58,73.82Z"/>
          <path id="Path_4738" data-name="Path 4738" class="cls-8" d="M69.2,27.39S71.51,31.23,72.93,43s3.68,45.58,2.18,54.23-2,10.47-2.68,12.39"/>
          <path id="Path_4739" data-name="Path 4739" class="cls-8" d="M72,28.56S85.86,62.15,87.6,69.37s7.37,24.68.52,35.14"/>
          <path id="Path_4740" data-name="Path 4740" class="cls-8" d="M88.91,41.23s8.27,9.62,11.32,30.12c1.43,12.19.34,22.46-6.91,31.19"/>
          <path id="Path_4741" data-name="Path 4741" class="cls-8" d="M128.18,44s16.48,5.42,13.7,28.34-7.79,28.26-16.17,33.44"/>
          <path id="Path_4742" data-name="Path 4742" class="cls-8" d="M131.94,110S147,98.11,146.49,74.74s.42-33.88-4-37.69"/>
          <path id="Path_4743" data-name="Path 4743" class="cls-9" d="M63.43,26.35s-3.59,2.56-2.54,13.79,1.94,55.11,4,66.83"/>
          <path id="Path_4744" data-name="Path 4744" class="cls-8" d="M64.93,327.87l77.22,5.47s22.27,1.42,33.73-1.25l13.35-1.95s2.6-.54,3.14-2.43"/>
          <path id="Path_4745" data-name="Path 4745" class="cls-8" d="M76.36,320.2,155,325.4a135.312,135.312,0,0,0,15.33-.48c6.9-.73,16-2.49,16-2.49"/>
          <path id="Path_4746" data-name="Path 4746" class="cls-10" d="M67.69,109.1s55.09,194,56.11,206.43l7.57-.78L76.2,108.85a19.3,19.3,0,0,1-8.51.25Z"/>
          <path id="Path_4747" data-name="Path 4747" class="cls-10" d="M133.06,111.7l47.99,198.22,6.38.24L139.97,115.87Z"/>
          <path id="Path_4748" data-name="Path 4748" class="cls-10" d="M30.32,57.1l15.89,4.64L58,66.1a39.54,39.54,0,0,0,.58,10.22s-8.65-4.57-15.79-5.84-14.64-3.29-14.64-3.29Z"/>
          <path id="Path_4749" data-name="Path 4749" class="cls-9" d="M175.76,510.17s12.84,5.78,26.68-.46"/>
        </g>
      </g>
    </g>
  </g>
</svg>
