<svg xmlns="http://www.w3.org/2000/svg" xmlns:xlink="http://www.w3.org/1999/xlink" viewBox="0 0 200 200">
  <defs>
    <style>
      .cls-1, .cls-10, .cls-3, .cls-6 {
        fill: #fff;
      }

      .cls-2 {
        clip-path: url(#clip-path);
      }

      .cls-10, .cls-3, .cls-4, .cls-5, .cls-6, .cls-7, .cls-8, .cls-9 {
        stroke: #000;
        stroke-miterlimit: 10;
      }

      .cls-3, .cls-4 {
        stroke-width: 0.95px;
      }

      .cls-4, .cls-5, .cls-7, .cls-8, .cls-9 {
        fill: none;
      }

      .cls-5 {
        stroke-width: 0.48px;
      }

      .cls-10, .cls-8 {
        stroke-width: 0.5px;
      }

      .cls-9 {
        stroke-width: 0.75px;
      }
    </style>
    <clipPath id="clip-path">
      <circle id="Ellipse_33" data-name="Ellipse 33" class="cls-1" cx="100" cy="100" r="100" transform="translate(60 1937)"/>
    </clipPath>
  </defs>
  <g id="mecanismo" class="cls-2" transform="translate(-60 -1937)">
    <g id="Group_127" data-name="Group 127" transform="translate(-65 -397)">
      <rect id="Rectangle_826" data-name="Rectangle 826" class="cls-1" width="450" height="703" transform="translate(0 1950)"/>
      <g id="Prime_evo_diagonal" data-name="Prime evo diagonal" transform="translate(-92.117 1600.786)">
        <g id="diagonal" transform="translate(0.484 0.523)">
          <path id="Path_4566" data-name="Path 4566" class="cls-3" d="M328.337,550.39l76.009-11.782a7.8,7.8,0,0,1,3.933-2.933c2.183-.433,29.48-4.416,29.48-4.416l9.749-.15a6.383,6.383,0,0,1,3.916,3.516l2.05,3.45,2.566,5,1.583,20.365s-6.416,2.983-20,2.2c0,0-8.333-.767-10-3.233l-36.546,10.882L499.4,595.352l2.266-1.433,65.944,13.532.733,2.183a5.416,5.416,0,0,1,4.316,3.216l2.35,30.1-12.082,3.866-15.848-2.15s-4.583-.933-6.233-4.483l-.117-7.449-185.7-26.447s-30.88-2.417-35.1,8.182l-4.516,90.091-16.865,3.566-19.431-3.333-.167-90.108s1.667-10.266-32.347-8.166L58.3,633.9l.1,6.349s.25,3.683-6.083,5.466a106.291,106.291,0,0,1-16.482,2.533L24,644.048l1.883-27.481a5.8,5.8,0,0,1,4.083-5.633l1.667-2.4L98.293,594.8l1.667,1.766,109.989-23.031-34-10.4s-2.533,4.216-19.848,3.183c0,0-8.966-.767-10.282-2.733l1.1-19.115,5.983-12.216a8.5,8.5,0,0,1,6.549-1.9l31.664,4.316a20.684,20.684,0,0,1,8.116,3.95l71.493,11.666" transform="translate(15.19 352.566)"/>
          <path id="Path_4567" data-name="Path 4567" class="cls-3" d="M187.6,508.2v2.3a37.5,37.5,0,0,0,23.748-.35v-2.3a21.181,21.181,0,0,1,11.982,2.9l.7,7.549a3.6,3.6,0,0,1,1.667,1.767l.383,5.266A6.165,6.165,0,0,1,228.3,527.5l1.667,43.829c1.833,2.666,1.067,4.166,1.067,4.166-5,7.333-28.531,7.683-28.531,7.683-28.447.233-30.647-6.666-30.964-8.782a2.733,2.733,0,0,1,1.45-2.916l-.1-5.766s.367-35.513.45-37.2,2.333-2.066,2.333-2.066l.517-5.866c0-1,1.766-1.216,1.766-1.216l.483-7.466c.667-2.1,9.6-3.633,9.6-3.633" transform="translate(113.496 337.591)"/>
          <path id="Path_4568" data-name="Path 4568" class="cls-4" d="M174.7,515.7s27.564,11.066,47.929-.717" transform="translate(115.632 342.364)"/>
          <path id="Path_4569" data-name="Path 4569" class="cls-4" d="M173.37,520.15s1.667,8.6,28.164,7.8,24.548-9.249,24.548-9.249" transform="translate(114.746 344.844)"/>
          <path id="Path_4570" data-name="Path 4570" class="cls-4" d="M99.269,537.171s-.25,1.533.883,1.917,28.214,6.283,28.214,6.283a3.6,3.6,0,0,0,2.633-.917,76.443,76.443,0,0,0,3.8-7.216s1.667-3.066,3.616-2.433c0,0,7.233.633,10,.917" transform="translate(65.342 355.52)"/>
          <path id="Path_4571" data-name="Path 4571" class="cls-4" d="M252.43,535.991a10.1,10.1,0,0,0,3.65-.45c1.9-.633,6.4-2.15,8.682.667a12.5,12.5,0,0,1,2.683,5.6,3.533,3.533,0,0,0,4.149,3.333c3.766-.65,28.764-5.4,28.764-5.4s1.85-.767,1.667-2.416" transform="translate(167.44 355.416)"/>
          <path id="Path_4572" data-name="Path 4572" class="cls-4" d="M381.561,584s-3.483.167-6.266,6.966a5.216,5.216,0,0,1-5.416,3.333l-62.444-12s-2.783,0-2.433-3.333c0,0,.633-4.383,1.916-5a39.428,39.428,0,0,0,5.1-4.45" transform="translate(202.459 378.715)"/>
          <path id="Path_4573" data-name="Path 4573" class="cls-4" d="M179.683,632.656l6.666-4.383a5,5,0,0,1,3.966-1.15c2.783.167,6.766.1,6.766.1a7.233,7.233,0,0,1,5,1.317l6.666,4.683,2.266-29.081-.75-2.883s-2.95-5.116-7.849-6.049l-12.832-.2a10.282,10.282,0,0,0-6.233,2.383,38,38,0,0,0-4.4,4.333l.083,31.6Z" transform="translate(118.465 395.705)"/>
          <path id="Path_4574" data-name="Path 4574" class="cls-4" d="M27.57,584.465s3.816,1.667,6.5,7.966a5.366,5.366,0,0,0,6.5,2.783c5-1.067,61.311-10.866,61.311-10.866s2.366-.917,2.033-2.9-.767-5-.767-5l-3.65-4.316L97.18,570" transform="translate(17.569 379.035)"/>
          <path id="Path_4575" data-name="Path 4575" class="cls-4" d="M25.74,579.73l10.116,11.782-.733,23.748" transform="translate(16.35 385.52)"/>
          <path id="Path_4576" data-name="Path 4576" class="cls-4" d="M32.17,601.006l201.364-34.647s27.781-4.4,41.463,6.283l-.583,84.875" transform="translate(20.635 376.01)"/>
          <line id="Line_866" data-name="Line 866" class="cls-4" x1="1.983" y2="70.426" transform="translate(321.296 920.322)"/>
          <line id="Line_867" data-name="Line 867" class="cls-4" x2="1.033" y2="69.977" transform="translate(305.797 920.588)"/>
          <path id="Path_4577" data-name="Path 4577" class="cls-4" d="M356.962,578.97,346.23,592.452l.717,21.065" transform="translate(229.958 385.014)"/>
          <path id="Path_4578" data-name="Path 4578" class="cls-4" d="M444.453,602.243l-206.23-36.78s-28.731-5.333-35.313,6.9L197.36,653.6" transform="translate(130.735 375.24)"/>
          <line id="Line_868" data-name="Line 868" class="cls-4" x1="167.384" y1="35.83" transform="translate(339.961 916.938)"/>
          <line id="Line_869" data-name="Line 869" class="cls-4" x1="62.161" y1="13.299" transform="translate(344.06 912.489)"/>
          <line id="Line_870" data-name="Line 870" class="cls-4" y1="16.465" x2="88.691" transform="translate(344.01 892.258)"/>
          <line id="Line_871" data-name="Line 871" class="cls-4" y1="22.131" x2="97.341" transform="translate(372.391 896.007)"/>
          <path id="Path_4579" data-name="Path 4579" class="cls-4" d="M266.41,551.9l18.215-5.533s3.166-1.35,4.583.633" transform="translate(176.757 362.986)"/>
          <line id="Line_872" data-name="Line 872" class="cls-4" y1="12.949" x2="59.361" transform="translate(225.105 912.789)"/>
          <line id="Line_873" data-name="Line 873" class="cls-4" x1="92.491" y1="21.698" transform="translate(162.745 896.84)"/>
          <path id="Path_4580" data-name="Path 4580" class="cls-4" d="M124.364,552.53l-18.915-5.966s-3.733-1-4.65.333" transform="translate(66.377 363.175)"/>
          <path id="Path_4581" data-name="Path 4581" class="cls-4" d="M181.4,636.2l.183,12.032,1.5,1.367,1.2,53.495,18.3-.267-.8-54.095,1.966-1.033.017-11.832" transform="translate(120.098 422.938)"/>
          <path id="Path_4582" data-name="Path 4582" class="cls-4" d="M181.59,637.127s12.232,6.783,21.665-.317" transform="translate(120.224 423.565)"/>
          <path id="Path_4583" data-name="Path 4583" class="cls-4" d="M195.41,643h9.849s3.783-.25,3.833,3.033,1.183,66.027,1.183,66.027-.167,2.883-1.85,2.916-11.666.267-11.666.267-2.816-1.85-2.716-8.816a54.192,54.192,0,0,0-.133-7.749" transform="translate(128.436 427.688)"/>
          <path id="Path_4584" data-name="Path 4584" class="cls-4" d="M187.062,643.29l-10.549.167s-3.333-.65-3.333,3.616.783,65.744.783,65.744,0,2.983,3.733,2.916l10.432-.15a2.333,2.333,0,0,0,1.783-1.417c.367-1.2-.15-16.015-.15-16.015" transform="translate(114.619 427.883)"/>
          <path id="Path_4585" data-name="Path 4585" class="cls-4" d="M333.02,643.271s-5.616-20.748,11.2-30.947,36.263,4.1,40.5,12.265,15.249,30.93-6.1,43.6S334.92,655.17,333.02,643.271Z" transform="translate(220.553 404.888)"/>
          <path id="Path_4586" data-name="Path 4586" class="cls-4" d="M337.87,599.12s.867,3.866,9.416,4.033,10.149-.25,11.282-3.45" transform="translate(224.386 398.444)"/>
          <line id="Line_874" data-name="Line 874" class="cls-4" x2="0.317" y2="20.881" transform="translate(562.272 998.564)"/>
          <path id="Path_4587" data-name="Path 4587" class="cls-4" d="M358.908,599.53l.133,8.816s-15.632,1.217-20.731,10.782" transform="translate(224.679 398.717)"/>
          <path id="Path_4588" data-name="Path 4588" class="cls-4" d="M350.92,603.866a21.116,21.116,0,0,1,15.515-.817c8.982,2.783,16.665,6.666,23.8,21.581a29.581,29.581,0,0,1-.983,27.464A47.845,47.845,0,0,1,373.4,666.71" transform="translate(233.084 400.33)"/>
          <path id="Path_4589" data-name="Path 4589" class="cls-4" d="M341.58,608.426s20.781-7.083,35,7.133,12.332,26.764,12.332,26.764.167,11.049-6.283,19" transform="translate(226.858 403.47)"/>
          <path id="Path_4590" data-name="Path 4590" class="cls-4" d="M351.08,604.14s15.282-2.333,26.281,8.949a40.213,40.213,0,0,1,11.666,24A30.48,30.48,0,0,1,378.944,660.9" transform="translate(233.19 401.657)"/>
          <line id="Line_875" data-name="Line 875" class="cls-4" y1="3.266" x2="5.333" transform="translate(615.001 1049.509)"/>
          <path id="Path_4591" data-name="Path 4591" class="cls-4" d="M335.813,637.336s-2.45-20.681,16-23.648,27.414,17.382,27.414,17.382,8.816,23.331-10.9,29.7C347.245,667.566,336.08,644.035,335.813,637.336Z" transform="translate(222.943 407.957)"/>
          <path id="Path_4592" data-name="Path 4592" class="cls-4" d="M342.45,630.928a13.982,13.982,0,0,0,11.4,13.1c11.382,2.683,9.616-13.332,9.616-13.332s-2.716-9.166-11.882-9.432S342.45,630.928,342.45,630.928Z" transform="translate(227.438 413.198)"/>
          <path id="Path_4593" data-name="Path 4593" class="cls-4" d="M345.92,622.342s2.333-2.016,3.533-1.9,7.416-1.483,11.949,5.466c5.9,9.066-3.05,17.615-3.05,17.615" transform="translate(229.751 412.601)"/>
          <path id="Path_4594" data-name="Path 4594" class="cls-5" d="M338.49,619.463l1.833.667,8.432,5.549,1.383-.85-5.183-7.683-3.266-1.667" transform="translate(224.799 409.348)"/>
          <path id="Path_4595" data-name="Path 4595" class="cls-5" d="M342.34,615.017l1.983,1.467,4.533,6.833s2.1.45,2.216-1.033h0l-1.667-6.416-1.583-2.216" transform="translate(227.365 408.128)"/>
          <path id="Path_4596" data-name="Path 4596" class="cls-5" d="M347.28,613.32,348.5,615.4l1.766,7s1.417,1.5,2.35.35l1.05-6.266-.5-2.117" transform="translate(230.658 407.908)"/>
          <path id="Path_4597" data-name="Path 4597" class="cls-5" d="M352.97,614.62l.15,1.667-.95,6.883s1.083,1.4,2,1.117l3.133-5.116.55-1.667" transform="translate(233.917 408.775)"/>
          <path id="Path_4598" data-name="Path 4598" class="cls-5" d="M358.366,617.63l-.333,1.533-3.083,4.5s0,2.116,1.983,2.016l5.283-3.783" transform="translate(235.77 410.781)"/>
          <path id="Path_4599" data-name="Path 4599" class="cls-5" d="M362.951,622.08l-5.6,3.066s-1.667,2.516.917,2.8l7.1-1.833" transform="translate(237.018 413.747)"/>
          <path id="Path_4600" data-name="Path 4600" class="cls-5" d="M365.735,627.407l-6.666-.266s-2.933,1.1-.45,2.766l7.966,3.1" transform="translate(237.55 417.119)"/>
          <path id="Path_4601" data-name="Path 4601" class="cls-5" d="M365.081,639.834l-1.966-2.483-5.8-4.783s-1.267-2.666,1.1-2.283,8.049,4.366,8.049,4.366" transform="translate(237.12 419.19)"/>
          <path id="Path_4602" data-name="Path 4602" class="cls-5" d="M359.786,645.528l-.217-2.983a6.183,6.183,0,0,0-1.033-2.833c-.883-1.15-2.85-4.1-2.85-4.1s-1.183-3.816,2.333-2.3l4.716,5.433,1.533,2.733" transform="translate(236.133 420.996)"/>
          <path id="Path_4603" data-name="Path 4603" class="cls-5" d="M353.353,647.146l.817-2.933a7.15,7.15,0,0,0-.217-3.833l-1.233-4.1s.567-2.55,2.683-1l2.283,4.25a7.7,7.7,0,0,1,1.1,2.9l.233,2.85" transform="translate(234.283 422.212)"/>
          <path id="Path_4604" data-name="Path 4604" class="cls-5" d="M347.82,646.459l1.5-2.3a5.982,5.982,0,0,0,.95-3.333L351,635.31" transform="translate(231.017 422.565)"/>
          <path id="Path_4605" data-name="Path 4605" class="cls-5" d="M351.03,635.31l1.816,6.933-1.283,4.633" transform="translate(233.157 422.565)"/>
          <path id="Path_4606" data-name="Path 4606" class="cls-5" d="M342.69,642.782l2.2-1.883,4.066-6.7" transform="translate(227.598 421.825)"/>
          <path id="Path_4607" data-name="Path 4607" class="cls-5" d="M349.926,634.86l-1.25,7.533-3.416,2.75" transform="translate(229.311 422.265)"/>
          <path id="Path_4608" data-name="Path 4608" class="cls-5" d="M339.01,637.416l2.516-2.25,5.416-3.466" transform="translate(225.145 420.159)"/>
          <path id="Path_4609" data-name="Path 4609" class="cls-5" d="M347.416,633.21l-3.666,5.266-1.95,2.966" transform="translate(227.005 421.165)"/>
          <path id="Path_4610" data-name="Path 4610" class="cls-5" d="M338,635.3l2-1.5a12.616,12.616,0,0,1,2.65-1.466,23.2,23.2,0,0,0,3.683-2.033" transform="translate(224.472 419.226)"/>
          <path id="Path_4611" data-name="Path 4611" class="cls-5" d="M346.442,628.71l-4.533.433-5.249,1.7" transform="translate(223.579 418.166)"/>
          <path id="Path_4612" data-name="Path 4612" class="cls-5" d="M335.98,628.42l4.849-1.2,5.433-.25" transform="translate(223.126 417.006)"/>
          <path id="Path_4613" data-name="Path 4613" class="cls-5" d="M346.816,626.583l-7.466-2.216L336,624.25" transform="translate(223.139 415.193)"/>
          <path id="Path_4614" data-name="Path 4614" class="cls-5" d="M336.29,622.18l3.516.383,7.366,2.5" transform="translate(223.333 413.814)"/>
          <path id="Path_4615" data-name="Path 4615" class="cls-5" d="M347.312,625l-6.033-4.65-3.7-.817" transform="translate(224.192 412.047)"/>
          <path id="Path_4616" data-name="Path 4616" class="cls-4" d="M70.94,643.733s5-20.9-12.132-30.6S22.695,618.352,18.7,626.685s-14.3,31.364,7.416,43.329S69.39,655.682,70.94,643.733Z" transform="translate(7.679 405.676)"/>
          <path id="Path_4617" data-name="Path 4617" class="cls-4" d="M49.8,600s-.733,3.883-9.282,4.316-10.149,0-11.382-3.116" transform="translate(18.616 399.031)"/>
          <line id="Line_876" data-name="Line 876" class="cls-4" x2="0.317" y2="20.881" transform="translate(68.437 1000.097)"/>
          <path id="Path_4618" data-name="Path 4618" class="cls-4" d="M28.76,600.83l.133,8.816s15.665.75,21.031,10.149" transform="translate(18.362 399.584)"/>
          <path id="Path_4619" data-name="Path 4619" class="cls-4" d="M45.081,605.079a21.015,21.015,0,0,0-15.515-.367c-8.832,3.016-16.465,7.149-23.131,22.3a29.53,29.53,0,0,0,1.8,27.381A47.8,47.8,0,0,0,24.5,668.54" transform="translate(1.792 401.3)"/>
          <path id="Path_4620" data-name="Path 4620" class="cls-4" d="M56.63,609.306s-20.981-6.449-34.7,8.182S10.4,644.619,10.4,644.619s.167,11.032,6.849,18.8" transform="translate(6.041 404.289)"/>
          <path id="Path_4621" data-name="Path 4621" class="cls-4" d="M43.247,605.414s-15.349-1.866-26.014,9.732A40.313,40.313,0,0,0,6.35,639.478a30.547,30.547,0,0,0,10.816,23.514" transform="translate(3.426 402.565)"/>
          <line id="Line_877" data-name="Line 877" class="cls-4" x1="5.416" y1="3.1" transform="translate(11.926 1052.759)"/>
          <path id="Path_4622" data-name="Path 4622" class="cls-4" d="M62.562,637.936s1.85-20.748-16.665-23.148-26.881,18.2-26.881,18.2S10.9,656.6,30.781,662.35C52.046,668.5,62.495,644.635,62.562,637.936Z" transform="translate(10.775 408.757)"/>
          <path id="Path_4623" data-name="Path 4623" class="cls-4" d="M46.216,631.891a13.982,13.982,0,0,1-11,13.332c-11.3,3.016-10-12.982-10-12.982s2.45-9.249,11.666-9.782S46.216,631.891,46.216,631.891Z" transform="translate(15.972 413.985)"/>
          <path id="Path_4624" data-name="Path 4624" class="cls-4" d="M41.048,623.424s-2.4-1.933-3.583-1.783-7.466-1.283-11.8,5.8c-5.616,9.249,3.583,17.532,3.583,17.532" transform="translate(15.09 413.436)"/>
          <path id="Path_4625" data-name="Path 4625" class="cls-5" d="M46.072,620.36l-1.8.717-8.283,5.8-1.4-.8,4.95-7.849,3.233-1.766" transform="translate(22.248 410.001)"/>
          <path id="Path_4626" data-name="Path 4626" class="cls-5" d="M40.929,616.007,39,617.523l-4.333,6.966s-2.083.5-2.233-.967h0l1.467-6.449,1.517-2.283" transform="translate(20.809 408.888)"/>
          <path id="Path_4627" data-name="Path 4627" class="cls-5" d="M35.083,614.52l-1.167,2.1-1.55,7.033s-1.383,1.55-2.35.433L28.8,617.836l.433-2.117" transform="translate(18.389 408.708)"/>
          <path id="Path_4628" data-name="Path 4628" class="cls-5" d="M29.173,616l-.117,1.583,1.167,6.849s-1.05,1.45-1.966,1.2l-3.333-5-.583-1.667" transform="translate(15.417 409.695)"/>
          <path id="Path_4629" data-name="Path 4629" class="cls-5" d="M24.486,619.12l.383,1.516,3.216,4.383s0,2.133-1.933,2.083L20.77,623.47" transform="translate(13.037 411.774)"/>
          <path id="Path_4630" data-name="Path 4630" class="cls-5" d="M20.536,623.66l5.649,2.9s1.667,2.466-.817,2.833l-7.149-1.667" transform="translate(11.338 414.8)"/>
          <path id="Path_4631" data-name="Path 4631" class="cls-5" d="M18.047,629.127l6.666-.467s2.966,1.017.55,2.75l-7.883,3.333" transform="translate(10.778 418.132)"/>
          <path id="Path_4632" data-name="Path 4632" class="cls-5" d="M19.31,641.554,21.193,639l5.649-5s1.2-2.7-1.15-2.233-7.933,4.583-7.933,4.583" transform="translate(11.031 420.17)"/>
          <path id="Path_4633" data-name="Path 4633" class="cls-5" d="M24.43,647.064l.117-2.983a6.434,6.434,0,0,1,.95-2.866c.85-1.166,2.733-4.183,2.733-4.183s1.083-3.85-2.4-2.233l-4.55,5.6-1.45,2.766" transform="translate(12.411 421.96)"/>
          <path id="Path_4634" data-name="Path 4634" class="cls-5" d="M29.9,648.5l-.917-2.916a7.2,7.2,0,0,1,.117-3.833l1.1-4.133s-.633-2.55-2.7-.917L25.337,641a7.8,7.8,0,0,0-1.017,2.933l-.15,2.85" transform="translate(15.303 423.126)"/>
          <path id="Path_4635" data-name="Path 4635" class="cls-5" d="M34.27,647.612l-1.55-2.266a5.917,5.917,0,0,1-1.05-3.333l-.9-5.483" transform="translate(19.702 423.378)"/>
          <path id="Path_4636" data-name="Path 4636" class="cls-5" d="M30.117,636.61,28.5,643.593l1.433,4.583" transform="translate(18.189 423.431)"/>
          <path id="Path_4637" data-name="Path 4637" class="cls-5" d="M40.526,643.759l-2.233-1.833L34.01,635.36" transform="translate(21.862 422.598)"/>
          <path id="Path_4638" data-name="Path 4638" class="cls-5" d="M32.43,636.07l1.467,7.5,3.5,2.633" transform="translate(20.809 423.071)"/>
          <path id="Path_4639" data-name="Path 4639" class="cls-5" d="M44.719,638.263l-2.583-2.183-5.516-3.3" transform="translate(23.601 420.879)"/>
          <path id="Path_4640" data-name="Path 4640" class="cls-5" d="M35.27,634.33l3.816,5.15,2.033,2.916" transform="translate(22.701 421.912)"/>
          <path id="Path_4641" data-name="Path 4641" class="cls-5" d="M45.823,636.1l-2.05-1.417a12.228,12.228,0,0,0-2.7-1.383,24.037,24.037,0,0,1-3.683-1.95" transform="translate(24.114 419.925)"/>
          <path id="Path_4642" data-name="Path 4642" class="cls-5" d="M37.77,629.76l4.533.283,5.3,1.55" transform="translate(24.368 418.866)"/>
          <path id="Path_4643" data-name="Path 4643" class="cls-5" d="M48.432,629.133l-4.9-1.05L38.1,628" transform="translate(24.588 417.693)"/>
          <path id="Path_4644" data-name="Path 4644" class="cls-5" d="M37.72,627.743l7.4-2.417,3.333-.217" transform="translate(24.334 415.766)"/>
          <path id="Path_4645" data-name="Path 4645" class="cls-5" d="M48.122,623.04l-3.5.483-7.283,2.733" transform="translate(24.081 414.387)"/>
          <path id="Path_4646" data-name="Path 4646" class="cls-5" d="M36.7,626.173l5.9-4.816,3.666-.917" transform="translate(23.655 412.654)"/>
          <path id="Path_4647" data-name="Path 4647" class="cls-4" d="M203.43,656.457l1.383-.017.4,26.147-1.2.017" transform="translate(134.781 436.648)"/>
          <path id="Path_4648" data-name="Path 4648" class="cls-4" d="M173.493,657.25l-1.383.017.383,26.164,1.2-.017" transform="translate(113.906 437.188)"/>
          <path id="Path_4649" data-name="Path 4649" class="cls-4" d="M269.24,551.32s0,3.583,9.2,3.65,8.333-3.333,8.333-3.333" transform="translate(178.643 366.585)"/>
          <line id="Line_878" data-name="Line 878" class="cls-4" x2="0.217" y2="15.515" transform="translate(447.7 918.305)"/>
          <path id="Path_4650" data-name="Path 4650" class="cls-4" d="M283.376,551.52l.433,9.432a34.115,34.115,0,0,0-8.449,8.683" transform="translate(182.723 366.718)"/>
          <path id="Path_4651" data-name="Path 4651" class="cls-4" d="M271.726,555s-5.116,3.75-6.666,8.449" transform="translate(175.857 369.038)"/>
          <path id="Path_4652" data-name="Path 4652" class="cls-4" d="M280.35,552.17l25.4,8.966s7.616,3.466,9.6,16.665" transform="translate(186.048 367.152)"/>
          <path id="Path_4653" data-name="Path 4653" class="cls-4" d="M280.43,558.683s6.749-4.566,13.415-3.633" transform="translate(186.102 368.987)"/>
          <path id="Path_4654" data-name="Path 4654" class="cls-4" d="M284.29,566.437s4.183-6.383,11.1-6.083a14.349,14.349,0,0,1,13.1,10.949" transform="translate(188.674 372.599)"/>
          <line id="Line_879" data-name="Line 879" class="cls-4" x2="0.45" y2="3.866" transform="translate(476.497 935.837)"/>
          <path id="Path_4655" data-name="Path 4655" class="cls-4" d="M288.65,560.99l-.8,2.166.3,4.033" transform="translate(191.047 373.03)"/>
          <path id="Path_4656" data-name="Path 4656" class="cls-4" d="M291.753,560.55l-1.467,1.966-1.417,5.2" transform="translate(191.727 372.737)"/>
          <path id="Path_4657" data-name="Path 4657" class="cls-4" d="M293.673,560.74l-1.9,2.266-1.383,4.983" transform="translate(192.74 372.864)"/>
          <path id="Path_4658" data-name="Path 4658" class="cls-4" d="M291.04,567.853l2.416-3.95,2.983-2.433" transform="translate(193.173 373.35)"/>
          <path id="Path_4659" data-name="Path 4659" class="cls-4" d="M297.989,562.42l-3.35,2.316-2.05,2.95" transform="translate(194.206 373.983)"/>
          <path id="Path_4660" data-name="Path 4660" class="cls-4" d="M293.84,567.373l2.933-2.366,3-.767" transform="translate(195.04 375.196)"/>
          <path id="Path_4661" data-name="Path 4661" class="cls-4" d="M296.06,566.86l1.317-.817,2.366-.183" transform="translate(196.519 376.276)"/>
          <path id="Path_4662" data-name="Path 4662" class="cls-4" d="M268.25,582.45s4.45,4.916,13.465,4.583" transform="translate(177.984 387.333)"/>
          <path id="Path_4663" data-name="Path 4663" class="cls-4" d="M271.8,582.87s.9,2.983,7.349,4.016a29.646,29.646,0,0,0,15.815,6.666c9.7.983,14.049-5,14.049-5" transform="translate(180.35 387.613)"/>
          <path id="Path_4664" data-name="Path 4664" class="cls-4" d="M277.86,583.94s2.733,5.15,12.682,8.966" transform="translate(184.389 388.326)"/>
          <path id="Path_4665" data-name="Path 4665" class="cls-4" d="M275.19,583.36a13.536,13.536,0,0,0,1.667,3.2" transform="translate(182.609 387.94)"/>
          <path id="Path_4666" data-name="Path 4666" class="cls-4" d="M104.7,570.678c.2-4.083-3.066-11.132-3.066-11.132l.283-7.166s.85,3.766,9.866,3.166,7.283-4.066,7.283-4.066l.833,10.316a15.232,15.232,0,0,1-.917,5.9" transform="translate(66.931 366.692)"/>
          <path id="Path_4667" data-name="Path 4667" class="cls-4" d="M109.663,553.67,95.1,555.337s-6.466,2.15-5.766,18.332" transform="translate(58.698 368.151)"/>
          <path id="Path_4668" data-name="Path 4668" class="cls-4" d="M100.1,570.445s-.267-12.865-7.333-15.815" transform="translate(61.025 368.791)"/>
          <path id="Path_4669" data-name="Path 4669" class="cls-4" d="M112.51,552.43l2.516-.3s6.449,1.55,7.8,12.482" transform="translate(74.182 367.125)"/>
          <path id="Path_4670" data-name="Path 4670" class="cls-4" d="M103.456,557.75a16.232,16.232,0,0,0-4.566-3.65" transform="translate(65.104 368.438)"/>
          <path id="Path_4671" data-name="Path 4671" class="cls-4" d="M99.226,568.714s-.35-7.749-5-10.332-4.516,12.2-4.516,12.2" transform="translate(58.986 371.089)"/>
          <path id="Path_4672" data-name="Path 4672" class="cls-4" d="M90.58,559.78l3.333,1.467a5.849,5.849,0,0,1,2,2.966c.383,1.667.75,3.7.75,3.7" transform="translate(59.566 372.224)"/>
          <path id="Path_4673" data-name="Path 4673" class="cls-4" d="M89.83,563.07s3.483,0,5,1.667l.55,1.317" transform="translate(59.066 374.416)"/>
          <path id="Path_4674" data-name="Path 4674" class="cls-4" d="M93.39,586.4s1.766,3.483,4.233,3.916,10.782-1.017,10.782-1.017a16.4,16.4,0,0,0,2.916-5.35" transform="translate(61.439 388.333)"/>
          <path id="Path_4675" data-name="Path 4675" class="cls-4" d="M100.54,584.58a6.433,6.433,0,0,1-4.45,5.349" transform="translate(63.238 388.753)"/>
          <path id="Path_4676" data-name="Path 4676" class="cls-4" d="M109.07,584.12a7.083,7.083,0,0,0,4.783,4.683l9.4-.917s4.466-3.05,4.15-6.166" transform="translate(71.889 386.847)"/>
          <path id="Path_4677" data-name="Path 4677" class="cls-4" d="M116.343,582.36s-.6,4.916-4.283,6.166" transform="translate(73.882 387.273)"/>
          <path id="Path_4678" data-name="Path 4678" class="cls-4" d="M203,469.37c6.3,8.716,12.832,10.849,12.832,10.849a18.181,18.181,0,0,0,15.932-3.083l2.15-4.85" transform="translate(134.494 311.965)"/>
          <path id="Path_4679" data-name="Path 4679" class="cls-3" d="M392.2,456.67l-1.25,13.8a12.266,12.266,0,0,1-2.983,4.3c-2.1,1.883-37.9,20.315-37.9,20.315l-3.05,8.333-18.082,6.1,1.816,6.066s-.233,2.667-13.949,8.033l2.233,51.662-7.066,5.933s-11.666,4.416-29.8,3.233l-9.5-5.816-4.466-41.663-4.383-.733-1.267-4.483-3.333,6.933s-29.164,9.2-47.879-1.133l-6.483-30.214-13.5,1.933s.25,16.832-21.381,24.714l-10,2.4s-1.667,1.367-8.782-1.667-26.664-16.848-26.664-16.848-7.416.383-6.816-13.015a7.683,7.683,0,0,1,4.8-6.666l122.888-21.065" transform="translate(77.634 303.5)"/>
          <path id="Path_4680" data-name="Path 4680" class="cls-4" d="M170,499.38l50.578-6.183s13.682-15.932-4.85-24.6" transform="translate(112.5 311.452)"/>
          <path id="Path_4681" data-name="Path 4681" class="cls-4" d="M173.42,527.674a13.332,13.332,0,0,0,4.9-7.4c.933-4.6,46.662-27.764,46.662-27.764s10.266-5.916,14.632-5.983,25.2-5.349,25.2-5.349l87.791-15" transform="translate(114.779 309.839)"/>
          <path id="Path_4682" data-name="Path 4682" class="cls-4" d="M298,479.73l-59.411,10.6L195.81,509.86l4.183,6.9,10.516-1.85" transform="translate(129.702 318.87)"/>
          <line id="Line_880" data-name="Line 880" class="cls-4" y1="17.365" x2="11.082" transform="translate(368.875 791.517)"/>
          <path id="Path_4683" data-name="Path 4683" class="cls-4" d="M206.11,512.192l20.815-7.816,18.648-7.016s14.265-4.066,18.232-4.533,5.866-.683,6.266.117" transform="translate(136.567 327.321)"/>
          <path id="Path_4684" data-name="Path 4684" class="cls-4" d="M218.88,501.663s25.747-.883,30.264-4.533" transform="translate(145.078 330.467)"/>
          <path id="Path_4685" data-name="Path 4685" class="cls-4" d="M197.82,512.371l40.8-19.1,55.361-9.782" transform="translate(131.042 321.376)"/>
          <path id="Path_4686" data-name="Path 4686" class="cls-4" d="M286.416,459.169s28.047-4.666,47.8-5.5c0,0,6.483-.883,8.649,1.667,0,0,13.215,15,14.732,27.5,0,0,2.066,5-1.867,7.716s-34.747.517-58.028-13.182L276.4,480.6" transform="translate(183.416 301.402)"/>
          <path id="Path_4687" data-name="Path 4687" class="cls-4" d="M336.433,456.07s-42.679,10.849-45.3,13.532-4.183,3.116-2.033,5.75" transform="translate(191.21 303.1)"/>
          <path id="Path_4688" data-name="Path 4688" class="cls-4" d="M120.92,481.74l29.38,31.414s2.45,3.416,9.582,2.116,20.865-6.283,25.681-12.049" transform="translate(79.788 320.21)"/>
          <path id="Path_4689" data-name="Path 4689" class="cls-4" d="M123.67,484.34s53.678-1.667,61.011.55c0,0,3.45.217,3.466,1.417a41.809,41.809,0,0,1-.733,5" transform="translate(81.62 321.542)"/>
          <path id="Path_4690" data-name="Path 4690" class="cls-4" d="M175.66,510.5s21.565,9.9,44.762-.967" transform="translate(116.272 338.732)"/>
          <path id="Path_4691" data-name="Path 4691" class="cls-6" d="M245.12,144.637c2.866,28.681,19.531,40.929,19.531,40.929l67.727,43.162s28.614,18.115,15,70.193-10.482,79.742-10.482,79.742,5.733,34.913,34.413,71.776,25.248,73.16,25.248,73.16c-.417,6.333-5,54.578-41.663,86.658l-3.716,9.532s45.362-10.982,124.688-13.632,122.355,17.348,122.355,17.348,18.248,8.333,31.08,30.98-6.233,84.692-6.233,84.692-119.988,27-136.9,40-71.126,8.982-71.126,8.982S296.832,782.008,262.7,770.843l-26.381,7.866-.567,3.133-18.448,6.949s-16.8,4.833-29.547,1.9-13.449-7.716-13.449-7.716l.883-24.6-18.765-1.183-5.1.716-88.975-14.3s-12.3-.233-13.932-12.5-4.883-48.045-4.883-48.045-2.483-12.265,3.2-22.348l-.717-6.233a14.765,14.765,0,0,1,2.75-11.5c4.183-5.583,13.049-19.581,13.049-19.581L40.907,497.253l3.866-6.516L4.677,292.789S-12.1,225.946,21.475,186.3A116.555,116.555,0,0,0,41.19,139.638c5.416-28.731,16.815-85.992,16.815-85.992S66.9,5.6,104.751,1.318s73.493,10.149,73.493,10.149,22.215,9.266,30.88,31.214c3.633,9.216,6.666,18.915,9.016,27.081" transform="translate(-0.484 -0.523)"/>
          <path id="Path_4692" data-name="Path 4692" class="cls-7" d="M120.884,2.01s-30-9.332-37.98,23.5c0,0-20.6,71.56-31,129,0,0-8.333,15.748-14.165,41.879s-7.483,28.864-3.983,53.328,10.732,76.926,10.732,76.926,8.632,61.944,43.962,111.839,40.929,90.225,40.929,90.225" transform="translate(20.479 -0.349)"/>
          <path id="Path_4693" data-name="Path 4693" class="cls-7" d="M69.81,427.515s29.447-23.331,36.28-81.175" transform="translate(45.723 229.965)"/>
          <path id="Path_4694" data-name="Path 4694" class="cls-7" d="M27,297.7s2.25-6.816,11.2-7.583a99.748,99.748,0,0,1,15.2-.217l11.382,8.882L87.111,441.2l-25.464,6.216s-4.7,1.667-4.283,10.2,2.8,26.9,2.8,26.9,3.45,19.815-7.633,24.664-18.981-9.4-18.981-9.4L28.8,467.963" transform="translate(17.189 192.217)"/>
          <path id="Path_4695" data-name="Path 4695" class="cls-8" d="M26.41,407.615l5.366,42.646s2.283,20.981,18.132,23.531S129.4,486.208,129.4,486.208a16.3,16.3,0,0,0-.25-16.1s-27.864-9.266-36.1-17.665S68.689,429.9,61.09,394.6c0,0,4.766,3.25,5.933,6.983s14.8,51.312,58.978,61.911c0,0,4.366,3.533,4.516,4.783a1.233,1.233,0,0,1-1.083,1.417" transform="translate(16.796 262.13)"/>
          <path id="Path_4696" data-name="Path 4696" class="cls-7" d="M47.16,384.93s10.782,5.816,16.465,24.064,27.7,50.828,55.545,55.145c0,0,20.7,9.132,5,36.446" transform="translate(30.626 255.685)"/>
          <path id="Path_4697" data-name="Path 4697" class="cls-8" d="M29.19,437.79s1.5,7.466,7.633,8.916,87.442,14.1,87.442,14.1l5.9,4.916" transform="translate(18.649 290.917)"/>
          <line id="Line_881" data-name="Line 881" class="cls-8" y1="2.9" x2="3.066" transform="translate(143.13 748.338)"/>
          <path id="Path_4698" data-name="Path 4698" class="cls-7" d="M136.825,417.122s-4-31.264-30.664-67.527S77.131,246.689,77.131,246.689,75.865,180.6,90.463,171.5s85.792-2.4,93.141,6.383,47.112,66.244,60.261,92.158a381.93,381.93,0,0,0,56.211,80.542c21.448,23.014,43.246,68.243,9.832,119.3" transform="translate(50.584 110.537)"/>
          <path id="Path_4699" data-name="Path 4699" class="cls-7" d="M43,95.79a20.365,20.365,0,0,1,8.616,5.916c3.2,4.116,36.38,50.5,66.31,114.839" transform="translate(27.854 62.972)"/>
          <path id="Path_4700" data-name="Path 4700" class="cls-7" d="M170.8,111.56c-4.65,30.33-15.648,65.36-29.514,102.523" transform="translate(93.364 73.483)"/>
          <path id="Path_4701" data-name="Path 4701" class="cls-7" d="M259.256,399.852c1.667-.483-31.664-156.168-61.911-193.315a73.793,73.793,0,0,0-43.512-30.33s-21.831-1.9-38.08-2.066-22.881,21.031-22.881,21.031A250.126,250.126,0,0,0,79.54,274.531" transform="translate(52.208 115.193)"/>
          <path id="Path_4702" data-name="Path 4702" class="cls-7" d="M71.81,405.579s25.931-14.649,51.562-15" transform="translate(47.056 259.451)"/>
          <path id="Path_4703" data-name="Path 4703" class="cls-7" d="M111.164,376.19A68.159,68.159,0,0,1,88.25,404.037" transform="translate(58.013 249.86)"/>
          <path id="Path_4704" data-name="Path 4704" class="cls-7" d="M132.249,547.025l.817-14.865a6.9,6.9,0,0,1,2.883-2.066l.2-5.616L134,522.694l-10-140.47s.45-7.649-5.566-10.616S84.6,348.278,84.6,348.278l-14.1-1.417s-4.166.2-5.6-2.833l-.383-6.8s-1.017-3.466,4.216-6.316a82.78,82.78,0,0,0,9.432-6.049,24.515,24.515,0,0,1,10.216-3.483c5.549-.433,33.48-4.116,33.48-4.116s94.707-1.333,145.686,8.6l6.033,3.65a11.149,11.149,0,0,1,5.249,7.433,88.649,88.649,0,0,1,1.167,12.9l-40.463,6.016a280.086,280.086,0,0,1-38.746.717l-23.648,16.048s-5.449,3.133-4.3,11.866l2.116,141.82s-.267,1.667-2.65,1.667l.233,5.933a6.666,6.666,0,0,1,2.716.233c.633.4,2.766,28.231,2.766,28.231" transform="translate(42.145 210.546)"/>
          <path id="Path_4705" data-name="Path 4705" class="cls-7" d="M130.52,463.21a7.432,7.432,0,0,0,9.032,5.283c7.483-1.25,9.549-2.433,9.549-2.433l.783,4.216" transform="translate(86.186 307.859)"/>
          <line id="Line_882" data-name="Line 882" class="cls-7" x1="15.532" y1="3.833" transform="translate(220.172 769.936)"/>
          <line id="Line_883" data-name="Line 883" class="cls-7" y1="5.599" x2="19.515" transform="translate(236.021 769.203)"/>
          <line id="Line_884" data-name="Line 884" class="cls-7" x1="43.979" y1="8.549" transform="translate(218.389 761.72)"/>
          <path id="Path_4706" data-name="Path 4706" class="cls-7" d="M105.87,446.35s5.716,5.749,20.5,5,19.065-1.75,20.581-2.6" transform="translate(69.757 296.622)"/>
          <path id="Path_4707" data-name="Path 4707" class="cls-7" d="M107.42,441.41s5.366,5.266,35.963,3.566" transform="translate(70.79 293.33)"/>
          <line id="Line_885" data-name="Line 885" class="cls-7" x2="116.105" y2="8.399" transform="translate(126.831 558.773)"/>
          <path id="Path_4708" data-name="Path 4708" class="cls-8" d="M86.53,342.67l53.911,4.4a100.747,100.747,0,0,0,18.548.25c10.716-.783,18.2-1.933,18.2-1.933" transform="translate(56.866 227.519)"/>
          <path id="Path_4709" data-name="Path 4709" class="cls-8" d="M73.12,406.586a122.371,122.371,0,0,1,49.129-11.666" transform="translate(47.929 262.344)"/>
          <path id="Path_4710" data-name="Path 4710" class="cls-7" d="M130,390.342s87.242-5.466,166.867,11.249L350.2,413.256s35.263,4.466,38.2,4.633,32.763,31.664,11.566,91.658c0,0-39.463,20.581-132.47,14.9" transform="translate(85.839 258.723)"/>
          <path id="Path_4711" data-name="Path 4711" class="cls-8" d="M290.56,473.519a9.282,9.282,0,0,0,2.316-11.9" transform="translate(192.853 306.8)"/>
          <path id="Path_4712" data-name="Path 4712" class="cls-7" d="M130,393.61s89.991,1.433,160.984,16.482,98.24,5.616,98.24,5.616" transform="translate(85.839 261.471)"/>
          <path id="Path_4713" data-name="Path 4713" class="cls-7" d="M175.49,401.567l39.046-8.849s14.115-1.2,19.881-20.248" transform="translate(116.159 247.381)"/>
          <path id="Path_4714" data-name="Path 4714" class="cls-7" d="M238.75,406.107s55.445-3.466,131.654-14.049c75.676-10.5,91.174-5.2,101.807,8.949" transform="translate(158.322 256.757)"/>
          <path id="Path_4715" data-name="Path 4715" class="cls-7" d="M369.07,381.59a21.665,21.665,0,0,1,5.083,13.1" transform="translate(245.181 253.459)"/>
          <path id="Path_4716" data-name="Path 4716" class="cls-7" d="M119.82,321.761s13.332-3.916,22.165-3.216,63.927-1.917,78.542-7.8a79.141,79.141,0,0,1,18.748.317s8.533,0,9.882-.75,8.949-.883,12.016,2.083,18.931,11.282,20.781,41.029-6.666,50.728-6.666,50.728" transform="translate(79.054 205.649)"/>
          <path id="Path_4717" data-name="Path 4717" class="cls-7" d="M207.932,310s21.031,13.932,23.748,46.962S212.5,430.288,212.5,430.288l-53.428,11.9" transform="translate(105.215 205.744)"/>
          <path id="Path_4718" data-name="Path 4718" class="cls-7" d="M146.853,341.71s5,19.648,3.333,36.346-1.2,30.3-7.966,42.613" transform="translate(93.984 226.879)"/>
          <line id="Line_886" data-name="Line 886" class="cls-7" x2="3.8" y2="2.433" transform="translate(208.207 525.477)"/>
          <line id="Line_887" data-name="Line 887" class="cls-7" y1="5.416" x2="18.732" transform="translate(155.629 751.121)"/>
          <path id="Path_4719" data-name="Path 4719" class="cls-7" d="M55.771,491.869c.1-.317-5.733-42.312-5.733-42.312l7.433-24.714L44.755,298.671s-4.633-3.333-5.466-3.883-4.15-5.333-7.2-4.466" transform="translate(20.582 192.559)"/>
          <path id="Path_4720" data-name="Path 4720" class="cls-7" d="M39.82,295.38l9.1-.35,2.833.9,4.266-.533" transform="translate(25.734 195.767)"/>
          <line id="Line_888" data-name="Line 888" class="cls-7" x2="15.332" y2="143.386" transform="translate(77.52 492.413)"/>
          <path id="Path_4721" data-name="Path 4721" class="cls-7" d="M61.128,440.3a80.909,80.909,0,0,1-11.1-35.663c-1.417-20.948-4.55-109.323-4.55-109.323" transform="translate(29.506 195.953)"/>
          <line id="Line_889" data-name="Line 889" class="cls-7" y1="3.483" x2="23.631" transform="translate(46.739 641.765)"/>
          <path id="Path_4722" data-name="Path 4722" class="cls-7" d="M84.2,410.03,73.47,416.646l.633,15.1,10.432.767-.017-14.882,2.066-1.183-5.633-.233L89,411.1Z" transform="translate(48.162 272.415)"/>
          <path id="Path_4723" data-name="Path 4723" class="cls-7" d="M80.18,424.09v4.883l5.316-.6s4.05-1.1,6.266,1.167a16,16,0,0,0,4.633,3.333s2.516.9,11.049.45c0,0,4.566-.583,6.266,1.783a19.414,19.414,0,0,0,2.333,2.883s3.9,2.55,5.633-.083" transform="translate(52.634 281.786)"/>
          <path id="Path_4724" data-name="Path 4724" class="cls-7" d="M120.329,419.593,84.866,413.36,80.1,415.41l.133,15.982" transform="translate(52.581 274.634)"/>
          <path id="Path_4725" data-name="Path 4725" class="cls-8" d="M80.35,414.61l1.85,4.883-.167,10.249s6.449-1.283,9.682,2.883,13.582,2.5,13.582,2.5,10.4,1.883,11.666,3.683,4.75,1.033,4.75,1.033l-3.183-14.432,2.1-2.433" transform="translate(52.747 275.467)"/>
          <line id="Line_890" data-name="Line 890" class="cls-8" x2="36.013" y2="6.033" transform="translate(135.264 694.843)"/>
          <path id="Path_4726" data-name="Path 4726" class="cls-7" d="M50.85,383.71s12.382,6.449,17.582,19.581,8.083,20.165,8.083,20.165a5.683,5.683,0,0,0,6.849,2.966l7.166,6.133" transform="translate(33.086 254.872)"/>
          <line id="Line_891" data-name="Line 891" class="cls-7" x2="10.499" y2="32.963" transform="translate(95.901 636.182)"/>
          <path id="Path_4727" data-name="Path 4727" class="cls-7" d="M59,384.34s12.132,3.566,18.332,19.031A132.94,132.94,0,0,0,90.48,428.586" transform="translate(38.518 255.292)"/>
          <path id="Path_4728" data-name="Path 4728" class="cls-8" d="M60.13,388.4s6.666-.517,11.549,11.149,15.565,28.181,15.565,28.181" transform="translate(39.271 257.997)"/>
          <path id="Path_4729" data-name="Path 4729" class="cls-6" d="M344.572,405.934l.567-54.995a10.849,10.849,0,0,1,4.333-7.566c4-2.7,25.864-17.2,25.864-17.2l11.666.25s12.232.233,18.881-.417,25.931-3.033,25.931-3.033a3.05,3.05,0,0,0,2.033-2.8c.117-2.233.083-3.75.083-3.75a5.833,5.833,0,0,0-3.533-4.266c-3.333-1.667-12.466-7.033-12.466-7.033s-93.858-7.349-134.487-2.983l-23.014,2.833s-6.366,1.9-6.966,7.6a39.1,39.1,0,0,0-.15,8.9l16.965,1.133.483.317,31.08,20.331a10.616,10.616,0,0,1,3.6,8.832c-.333,5.833,1.766,53.728,1.766,53.728" transform="translate(167.906 199.585)"/>
          <line id="Line_892" data-name="Line 892" class="cls-7" x1="104.073" y1="3.3" transform="translate(438.101 522.46)"/>
          <line id="Line_893" data-name="Line 893" class="cls-8" x2="138.237" y2="3.883" transform="translate(423.186 507.845)"/>
          <path id="Path_4730" data-name="Path 4730" class="cls-8" d="M258.8,303.823s102.84-4.3,129.487,3.333l7.833,3.633a25.114,25.114,0,0,0,18,3.633c10.532-1.816,13.865-2.15,13.865-2.15" transform="translate(171.685 200.823)"/>
          <line id="Line_894" data-name="Line 894" class="cls-8" y1="2.766" x2="26.097" transform="translate(559.523 505.112)"/>
          <path id="Path_4731" data-name="Path 4731" class="cls-8" d="M273.8,320.37l47.379,1.517s15,1.3,18.332.567,10.382-1.667,10.382-1.667" transform="translate(181.683 212.656)"/>
          <path id="Path_4732" data-name="Path 4732" class="cls-7" d="M57.92,95.617S37.488,93.5,19.59,104.349" transform="translate(12.251 62.746)"/>
          <path id="Path_4733" data-name="Path 4733" class="cls-8" d="M82.83,203.97l72.743,30.147,52.778-23.7" transform="translate(54.4 135.075)"/>
          <path id="Path_4734" data-name="Path 4734" class="cls-8" d="M79.91,224.62,163.9,256.934,223.5,229.2" transform="translate(52.454 148.838)"/>
          <path id="Path_4735" data-name="Path 4735" class="cls-8" d="M82,247.5l86.475,31.164,64.41-30.764" transform="translate(53.847 164.088)"/>
          <line id="Line_895" data-name="Line 895" class="cls-8" y1="33.763" x2="6.649" transform="translate(152.479 419.987)"/>
          <line id="Line_896" data-name="Line 896" class="cls-8" y1="47.295" x2="10.899" transform="translate(166.328 426.503)"/>
          <path id="Path_4736" data-name="Path 4736" class="cls-8" d="M108.15,326.387l14.565-65.427,44.546,90.025" transform="translate(71.276 173.059)"/>
          <line id="Line_897" data-name="Line 897" class="cls-8" x1="19.915" y2="89.058" transform="translate(190.475 438.768)"/>
          <line id="Line_898" data-name="Line 898" class="cls-8" x1="20.181" y2="85.508" transform="translate(207.724 439.752)"/>
          <line id="Line_899" data-name="Line 899" class="cls-8" x1="21.631" y2="93.308" transform="translate(225.422 430.936)"/>
          <line id="Line_900" data-name="Line 900" class="cls-8" x1="23.731" y2="102.107" transform="translate(242.92 421.587)"/>
          <line id="Line_901" data-name="Line 901" class="cls-8" x1="23.498" y2="109.889" transform="translate(259.985 413.538)"/>
          <line id="Line_902" data-name="Line 902" class="cls-8" x1="17.932" y2="76.776" transform="translate(277.667 443.985)"/>
          <line id="Line_903" data-name="Line 903" class="cls-8" x1="9.032" y2="37.446" transform="translate(295.115 480.281)"/>
          <line id="Line_904" data-name="Line 904" class="cls-8" x1="1.833" y2="7.116" transform="translate(138.447 413.188)"/>
          <line id="Line_905" data-name="Line 905" class="cls-8" x2="58.728" y2="110.173" transform="translate(146.513 415.587)"/>
          <line id="Line_906" data-name="Line 906" class="cls-8" x2="49.445" y2="99.657" transform="translate(171.594 424.47)"/>
          <line id="Line_907" data-name="Line 907" class="cls-8" x2="40.379" y2="82.325" transform="translate(216.073 440.502)"/>
          <line id="Line_908" data-name="Line 908" class="cls-8" x2="39.996" y2="82.892" transform="translate(232.888 438.435)"/>
          <line id="Line_909" data-name="Line 909" class="cls-8" x2="42.629" y2="86.242" transform="translate(247.07 431.969)"/>
          <line id="Line_910" data-name="Line 910" class="cls-8" x2="46.562" y2="90.258" transform="translate(260.602 425.27)"/>
          <line id="Line_911" data-name="Line 911" class="cls-8" x1="29.081" y1="55.845" transform="translate(273.834 417.404)"/>
          <path id="Path_4737" data-name="Path 4737" class="cls-6" d="M58.01,105.756s7.366,46.829,8.816,50.7,4.65,13.815,25.931,6.283,54.061-25.814,88.675,3.95c0,0,25.131,27.4,28.231-6.249,0,0-7.8-57.394-2.516-94.691,0,0,2.533-34.763-23.014-15.765S130.8,72.159,83.591,32.03c0,0-24.2-20.465-24.248,13.415S57.776,88.258,58.01,105.756Z" transform="translate(37.841 16.393)"/>
          <path id="Path_4738" data-name="Path 4738" class="cls-8" d="M69.2,27.39s3.85,6.4,6.216,26.014,6.133,75.959,3.633,90.375-3.333,17.448-4.466,20.648" transform="translate(45.316 17.383)"/>
          <path id="Path_4739" data-name="Path 4739" class="cls-8" d="M72,28.56S95.1,84.538,98,96.57s12.282,41.129.867,58.561" transform="translate(47.182 18.163)"/>
          <path id="Path_4740" data-name="Path 4740" class="cls-8" d="M88.91,41.23s13.782,16.032,18.865,50.2c2.383,20.315.567,37.43-11.516,51.978" transform="translate(58.453 26.608)"/>
          <path id="Path_4741" data-name="Path 4741" class="cls-8" d="M129.826,44s27.464,9.032,22.831,47.229-12.982,47.1-26.947,55.728" transform="translate(82.98 28.454)"/>
          <path id="Path_4742" data-name="Path 4742" class="cls-8" d="M131.94,158.622s25.1-19.815,24.248-58.761.7-56.461-6.666-62.811" transform="translate(87.132 23.822)"/>
          <path id="Path_4743" data-name="Path 4743" class="cls-9" d="M65.251,26.35s-5.983,4.266-4.233,22.981,3.233,91.841,6.666,111.373" transform="translate(39.649 16.69)"/>
          <path id="Path_4744" data-name="Path 4744" class="cls-8" d="M64.93,327.977l128.687,9.116s37.113,2.366,56.211-2.083l22.248-3.25s4.333-.9,5.233-4.05" transform="translate(42.47 217.548)"/>
          <path id="Path_4745" data-name="Path 4745" class="cls-8" d="M76.36,320.2l131.054,8.666a225.507,225.507,0,0,0,25.548-.8c11.5-1.217,26.664-4.15,26.664-4.15" transform="translate(50.088 212.543)"/>
          <path id="Path_4746" data-name="Path 4746" class="cls-10" d="M67.69,109.267S159.5,432.569,161.2,453.283l12.615-1.3L81.872,108.85a32.164,32.164,0,0,1-14.182.417Z" transform="translate(44.31 71.677)"/>
          <path id="Path_4747" data-name="Path 4747" class="cls-10" d="M133.06,111.7l79.976,330.335,10.632.4L144.576,118.649Z" transform="translate(87.879 73.576)"/>
          <path id="Path_4748" data-name="Path 4748" class="cls-10" d="M31.766,57.1l26.481,7.733L77.9,72.1a65.893,65.893,0,0,0,.967,17.032S64.446,81.514,52.548,79.4s-24.4-5.483-24.4-5.483Z" transform="translate(17.956 37.185)"/>
          <path id="Path_4749" data-name="Path 4749" class="cls-9" d="M175.76,510.477s21.4,9.632,44.462-.767" transform="translate(116.339 338.852)"/>
        </g>
      </g>
    </g>
  </g>
</svg>
