<svg xmlns="http://www.w3.org/2000/svg" xmlns:xlink="http://www.w3.org/1999/xlink" viewBox="0 0 200 200">
  <defs>
    <style>
      .cls-1, .cls-3, .cls-6, .cls-9 {
        fill: #fff;
      }

      .cls-2 {
        clip-path: url(#clip-path);
      }

      .cls-3, .cls-4, .cls-5, .cls-6, .cls-7, .cls-8, .cls-9 {
        stroke: #000;
        stroke-miterlimit: 10;
      }

      .cls-3, .cls-4 {
        stroke-width: 0.95px;
      }

      .cls-4, .cls-5, .cls-7, .cls-8 {
        fill: none;
      }

      .cls-5 {
        stroke-width: 0.48px;
      }

      .cls-8, .cls-9 {
        stroke-width: 0.5px;
      }
    </style>
    <clipPath id="clip-path">
      <circle id="Ellipse_10" data-name="Ellipse 10" class="cls-1" cx="100" cy="100" r="100" transform="translate(60 1937)"/>
    </clipPath>
  </defs>
  <g id="Mask_Group_17" data-name="Mask Group 17" class="cls-2" transform="translate(-60 -1937)">
    <g id="Group_118" data-name="Group 118" transform="translate(52.021 -920.489)">
      <rect id="Rectangle_797" data-name="Rectangle 797" class="cls-1" width="739.957" height="1155.978" transform="translate(0 1950)"/>
      <g id="Prime_diagonal" data-name="Prime diagonal" transform="translate(29.598 1964.799)">
        <g id="diagonal" transform="translate(0 0)">
          <path id="Path_1402" data-name="Path 1402" class="cls-3" d="M387.9,457.14l-1.266,13.632a12.054,12.054,0,0,1-2.96,4.21c-2.072,1.858-37.425,19.979-37.425,19.979l-3.042,8.222-17.858,5.985,1.776,5.986s-.214,2.631-13.763,7.893l2.088,50.975-6.988,5.854s-11.51,4.325-29.4,3.108l-9.373-5.755-4.308-41.109-4.325-.724-1.233-4.44-3.289,6.857s-28.809,8.995-47.259-1.233l-6.265-29.894-13.319,1.875s.214,16.608-21.146,24.336l-9.866,2.351s-1.644,1.332-8.666-1.644-26.31-16.69-26.31-16.69-7.317.362-6.709-12.859a7.581,7.581,0,0,1,4.752-6.577l121.3-20.505" transform="translate(74.501 293.656)"/>
          <path id="Path_1403" data-name="Path 1403" class="cls-3" d="M323.488,550.557l75.032-11.51a7.68,7.68,0,0,1,3.9-2.894c2.154-.428,29.089-4.308,29.089-4.308l9.619-.115a6.347,6.347,0,0,1,3.864,3.486l2.006,3.4,2.516,4.933,1.529,20.094s-6.347,2.927-19.732,2.121c0,0-8.222-.789-9.866-3.289L385.365,573.15l106.883,22,2.236-1.4,65.05,13.5.707,2.154a5.311,5.311,0,0,1,4.259,3.174l2.253,29.713-11.938,3.782-15.621-2.154s-4.522-.937-6.15-4.44l-.082-7.367L349.716,605.774s-30.453-2.466-34.646,7.992l-4.654,88.795-16.641,3.453-19.19-3.289V613.8s1.743-10.129-31.9-8.123L56.808,632.347v6.281s.247,3.634-6.018,5.377a104.885,104.885,0,0,1-16.246,2.466L23,642.3l1.891-27.033a5.739,5.739,0,0,1,4.062-5.558l1.644-2.368,65.774-13.4,1.644,1.743L206.657,573.2,173.063,562.84s-2.5,4.144-19.6,3.091c0,0-8.83-.773-10.129-2.713l1.135-18.861,5.92-12.053a8.222,8.222,0,0,1,6.462-1.842l31.243,4.308a20.8,20.8,0,0,1,8.008,3.93l70.51,11.659" transform="translate(13.959 340.848)"/>
          <path id="Path_1404" data-name="Path 1404" class="cls-3" d="M210.049,508.133a20.85,20.85,0,0,1,11.823,2.894l.674,7.449a3.552,3.552,0,0,1,1.644,1.743l.362,5.2a6.118,6.118,0,0,1,2.187,2.121l1.644,43.263c1.792,2.631,1.036,4.111,1.036,4.111-4.933,7.235-28.168,7.515-28.168,7.515-28.069.164-30.223-6.676-30.536-8.732a2.681,2.681,0,0,1,1.431-2.861v-5.689s.444-35.041.51-36.718,2.138-2.088,2.138-2.088l.51-5.788c0-.987,1.759-1.2,1.759-1.2l.493-7.367c.658-2.072,9.471-3.552,9.471-3.552v1.957a45.615,45.615,0,0,0,23.021-.3Z" transform="translate(109.113 326.492)"/>
          <path id="Path_1405" data-name="Path 1405" class="cls-4" d="M173.89,515.872s27.165,10.984,47.291-.592" transform="translate(111.185 331.119)"/>
          <path id="Path_1406" data-name="Path 1406" class="cls-4" d="M172.55,520.315s1.644,8.485,27.773,7.761S224.61,519,224.61,519" transform="translate(110.322 333.516)"/>
          <path id="Path_1407" data-name="Path 1407" class="cls-4" d="M98.409,537.166s-.247,1.513.872,1.891,27.822,6.265,27.822,6.265a3.584,3.584,0,0,0,2.6-.888,78.336,78.336,0,0,0,3.766-7.12s1.644-3.026,3.568-2.4l9.866.921" transform="translate(62.534 343.715)"/>
          <path id="Path_1408" data-name="Path 1408" class="cls-4" d="M251.57,536.362a9.734,9.734,0,0,0,3.6-.427c1.891-.625,6.314-2.1,8.567.674a12.186,12.186,0,0,1,2.631,5.525,3.5,3.5,0,0,0,4.095,3.289c3.716-.641,28.4-5.278,28.4-5.278s1.825-.74,1.644-2.368" transform="translate(161.238 343.812)"/>
          <path id="Path_1409" data-name="Path 1409" class="cls-4" d="M379.613,584.5s-3.437.148-6.2,6.857a5.163,5.163,0,0,1-5.361,3.289l-61.581-11.987s-2.746,0-2.4-3.289c0,0,.641-4.325,1.907-4.933a38.149,38.149,0,0,0,5.048-4.374" transform="translate(195.048 366.416)"/>
          <path id="Path_1410" data-name="Path 1410" class="cls-4" d="M178.64,632.389l6.577-4.308a4.933,4.933,0,0,1,3.914-1.118c2.762.148,6.676.1,6.676.1a7.252,7.252,0,0,1,4.933,1.315c2.466,1.743,6.577,4.637,6.577,4.637L209.6,604.32l-.724-2.828s-2.861-5.015-7.794-6l-12.661-.23a10.2,10.2,0,0,0-6.15,2.335,38.136,38.136,0,0,0-4.374,4.275l.164,31.111Z" transform="translate(113.769 382.654)"/>
          <path id="Path_1411" data-name="Path 1411" class="cls-4" d="M26.62,584.109s3.749,1.644,6.38,7.876a5.311,5.311,0,0,0,6.413,2.763c4.933-1.052,60.512-10.59,60.512-10.59s2.351-.9,2.023-2.861-.74-4.933-.74-4.933l-3.6-4.275L95.337,570" transform="translate(16.292 366.378)"/>
          <path id="Path_1412" data-name="Path 1412" class="cls-4" d="M24.78,579.62l9.965,11.659-.773,23.432" transform="translate(15.106 372.576)"/>
          <path id="Path_1413" data-name="Path 1413" class="cls-4" d="M31.2,600.29l198.72-33.824s27.428-4.275,40.911,6.281l-.773,83.763" transform="translate(19.243 363.549)"/>
          <line id="Line_326" data-name="Line 326" class="cls-4" x1="2.121" y2="69.474" transform="translate(315.331 908.506)"/>
          <line id="Line_327" data-name="Line 327" class="cls-4" x2="0.872" y2="69.046" transform="translate(300.187 908.72)"/>
          <path id="Path_1414" data-name="Path 1414" class="cls-4" d="M355.889,579.6,345.25,592.87l.658,20.8" transform="translate(221.601 372.563)"/>
          <path id="Path_1415" data-name="Path 1415" class="cls-4" d="M440.211,602.511,236.87,565.843s-28.332-5.344-34.844,6.709l-5.657,80.162" transform="translate(125.67 362.938)"/>
          <line id="Line_328" data-name="Line 328" class="cls-4" x1="165.093" y1="35.748" transform="translate(333.896 905.184)"/>
          <line id="Line_329" data-name="Line 329" class="cls-4" x1="61.301" y1="13.253" transform="translate(337.974 900.827)"/>
          <line id="Line_330" data-name="Line 330" class="cls-4" y1="16.032" x2="87.545" transform="translate(337.924 881.062)"/>
          <line id="Line_331" data-name="Line 331" class="cls-4" y1="21.623" x2="96.096" transform="translate(365.911 884.827)"/>
          <path id="Path_1416" data-name="Path 1416" class="cls-4" d="M265.52,552.3l17.989-5.426s3.124-1.315,4.522.625" transform="translate(170.227 351.194)"/>
          <line id="Line_332" data-name="Line 332" class="cls-4" y1="12.661" x2="58.588" transform="translate(220.567 900.975)"/>
          <line id="Line_333" data-name="Line 333" class="cls-4" x1="91.212" y1="21.607" transform="translate(159.085 884.975)"/>
          <path id="Path_1417" data-name="Path 1417" class="cls-4" d="M123.155,552.519l-18.663-5.92s-3.667-.987-4.571.329" transform="translate(63.522 351.071)"/>
          <path id="Path_1418" data-name="Path 1418" class="cls-4" d="M180.31,636.436l.164,11.872,1.48,1.348,1.069,52.784,18.055-.23-.674-53.376,1.94-1,.049-11.691" transform="translate(115.322 408.995)"/>
          <path id="Path_1419" data-name="Path 1419" class="cls-4" d="M180.5,637.319s12.07,6.709,21.377-.28" transform="translate(115.444 409.575)"/>
          <path id="Path_1420" data-name="Path 1420" class="cls-4" d="M194.335,643.252h9.718s3.733-.247,3.766,2.993,1.02,65.149,1.02,65.149-.164,2.861-1.825,2.878-11.51.247-11.51.247-2.779-1.825-2.664-8.7a52.78,52.78,0,0,0-.1-7.663" transform="translate(123.331 413.575)"/>
          <path id="Path_1421" data-name="Path 1421" class="cls-4" d="M185.777,643.54l-10.409.132s-3.289-.658-3.289,3.568.625,64.853.625,64.853,0,2.943,3.667,2.911l10.31-.132a2.286,2.286,0,0,0,1.743-1.4c.378-1.184-.1-15.8-.1-15.8" transform="translate(110.019 413.763)"/>
          <path id="Path_1422" data-name="Path 1422" class="cls-4" d="M331.931,643.369s-5.492-20.472,11.116-30.5,35.781,4.127,39.941,12.185,14.964,30.552-6.133,43S333.773,655.126,331.931,643.369Z" transform="translate(212.458 391.768)"/>
          <path id="Path_1423" data-name="Path 1423" class="cls-4" d="M336.87,599.72s.839,3.815,9.274,4,10.014-.23,11.149-3.289" transform="translate(216.201 385.528)"/>
          <line id="Line_334" data-name="Line 334" class="cls-4" x2="0.263" y2="20.604" transform="translate(553.087 986.218)"/>
          <path id="Path_1424" data-name="Path 1424" class="cls-4" d="M357.653,600.15l.115,8.7s-15.44,1.184-20.489,10.606" transform="translate(216.465 385.805)"/>
          <path id="Path_1425" data-name="Path 1425" class="cls-4" d="M349.91,604.469a20.785,20.785,0,0,1,15.309-.789c8.863,2.762,16.443,6.577,23.432,21.376a29.188,29.188,0,0,1-1.036,27.1,47.212,47.212,0,0,1-15.671,14.388" transform="translate(224.603 387.373)"/>
          <path id="Path_1426" data-name="Path 1426" class="cls-4" d="M340.56,608.989s20.521-6.923,34.433,7.12,12.119,26.441,12.119,26.441.132,10.9-6.232,18.729" transform="translate(218.579 390.401)"/>
          <path id="Path_1427" data-name="Path 1427" class="cls-4" d="M350.06,604.753s15.1-2.253,25.931,8.9a39.777,39.777,0,0,1,11.4,23.711,30.157,30.157,0,0,1-10.014,23.481" transform="translate(224.7 388.651)"/>
          <line id="Line_335" data-name="Line 335" class="cls-4" y1="3.206" x2="5.245" transform="translate(605 1036.634)"/>
          <path id="Path_1428" data-name="Path 1428" class="cls-4" d="M334.75,637.591s-2.384-20.423,15.835-23.3,27,17.233,27,17.233,8.649,23.021-10.82,29.286C345.948,667.452,335,644.2,334.75,637.591Z" transform="translate(214.769 394.735)"/>
          <path id="Path_1429" data-name="Path 1429" class="cls-4" d="M341.38,631.384a13.8,13.8,0,0,0,11.231,12.941c11.214,2.664,9.521-13.073,9.521-13.073s-2.68-9.06-11.708-9.34S341.38,631.384,341.38,631.384Z" transform="translate(219.107 399.824)"/>
          <path id="Path_1430" data-name="Path 1430" class="cls-4" d="M344.87,622.974s2.3-1.924,3.5-1.924,7.317-1.447,11.774,5.41c5.8,8.962-3.042,17.381-3.042,17.381" transform="translate(221.356 399.19)"/>
          <path id="Path_1431" data-name="Path 1431" class="cls-5" d="M337.45,620.01l1.809.658,8.3,5.492,1.365-.839-5.1-7.58-3.223-1.661" transform="translate(216.575 396.069)"/>
          <path id="Path_1432" data-name="Path 1432" class="cls-5" d="M341.3,615.608l1.957,1.447,4.473,6.742s2.055.444,2.171-1h0l-1.644-6.331-1.644-2.2" transform="translate(219.055 394.897)"/>
          <path id="Path_1433" data-name="Path 1433" class="cls-5" d="M346.24,613.94l1.2,2.039,1.644,6.923s1.4,1.48,2.335.362l1.036-6.2-.493-2.088" transform="translate(222.239 394.69)"/>
          <path id="Path_1434" data-name="Path 1434" class="cls-5" d="M351.926,615.24l.148,1.644-.954,6.775s1.069,1.4,1.973,1.118l3.108-5.032.543-1.644" transform="translate(225.383 395.528)"/>
          <path id="Path_1435" data-name="Path 1435" class="cls-5" d="M357.264,618.27l-.345,1.513-3.058,4.423s0,2.088,1.957,2.006l5.229-3.733" transform="translate(227.149 397.48)"/>
          <path id="Path_1436" data-name="Path 1436" class="cls-5" d="M361.805,622.72l-5.509,3.026s-1.644,2.467.872,2.762l7.021-1.792" transform="translate(228.379 400.348)"/>
          <path id="Path_1437" data-name="Path 1437" class="cls-5" d="M364.559,628.11l-6.577-.28s-2.894,1.085-.46,2.729l7.86,3.075" transform="translate(228.88 403.64)"/>
          <path id="Path_1438" data-name="Path 1438" class="cls-5" d="M363.875,640.359l-1.924-2.45-5.722-4.736s-1.233-2.647,1.085-2.236,7.942,4.308,7.942,4.308" transform="translate(228.463 405.615)"/>
          <path id="Path_1439" data-name="Path 1439" class="cls-5" d="M358.646,646l-.2-2.943a6.15,6.15,0,0,0-1.019-2.8c-.855-1.135-2.8-4.062-2.8-4.062s-1.167-3.766,2.3-2.253l4.637,5.377,1.513,2.7" transform="translate(227.526 407.353)"/>
          <path id="Path_1440" data-name="Path 1440" class="cls-5" d="M352.232,647.611l.822-2.878a7.121,7.121,0,0,0-.214-3.8l-1.2-4.045s.559-2.516,2.631-.987l2.253,4.193a7.728,7.728,0,0,1,1.085,2.878l.23,2.8" transform="translate(225.718 408.525)"/>
          <path id="Path_1441" data-name="Path 1441" class="cls-5" d="M346.73,646.911l1.464-2.269a5.755,5.755,0,0,0,.937-3.289l.756-5.443" transform="translate(222.554 408.847)"/>
          <path id="Path_1442" data-name="Path 1442" class="cls-5" d="M349.94,635.93l1.792,6.857-1.283,4.555" transform="translate(224.623 408.86)"/>
          <path id="Path_1443" data-name="Path 1443" class="cls-5" d="M341.6,643.272l2.171-1.858,4.029-6.594" transform="translate(219.249 408.144)"/>
          <path id="Path_1444" data-name="Path 1444" class="cls-5" d="M348.774,635.48l-1.25,7.432-3.354,2.7" transform="translate(220.905 408.57)"/>
          <path id="Path_1445" data-name="Path 1445" class="cls-5" d="M337.93,637.934l2.483-2.22,5.361-3.4" transform="translate(216.884 406.527)"/>
          <path id="Path_1446" data-name="Path 1446" class="cls-5" d="M346.268,633.82,342.634,639l-1.924,2.943" transform="translate(218.675 407.5)"/>
          <path id="Path_1447" data-name="Path 1447" class="cls-5" d="M336.91,635.817l1.973-1.464a12.284,12.284,0,0,1,2.631-1.431,23.338,23.338,0,0,0,3.568-2.022" transform="translate(216.227 405.619)"/>
          <path id="Path_1448" data-name="Path 1448" class="cls-5" d="M345.242,629.32l-4.473.411-5.18,1.677" transform="translate(215.376 404.6)"/>
          <path id="Path_1449" data-name="Path 1449" class="cls-5" d="M334.91,628.984,339.7,627.8l5.361-.23" transform="translate(214.938 403.473)"/>
          <path id="Path_1450" data-name="Path 1450" class="cls-5" d="M345.612,627.169l-7.367-2.2-3.305-.115" transform="translate(214.957 401.72)"/>
          <path id="Path_1451" data-name="Path 1451" class="cls-5" d="M335.23,622.77l3.486.378,7.252,2.5" transform="translate(215.144 400.38)"/>
          <path id="Path_1452" data-name="Path 1452" class="cls-5" d="M346.116,625.54l-5.936-4.6-3.65-.806" transform="translate(215.982 398.679)"/>
          <path id="Path_1453" data-name="Path 1453" class="cls-4" d="M69.1,643.242s4.933-20.6-11.905-30.207-35.649,5.032-39.612,13.155S3.41,657.1,24.8,668.944,67.556,655.033,69.1,643.242Z" transform="translate(6.648 392.076)"/>
          <path id="Path_1454" data-name="Path 1454" class="cls-4" d="M48.536,600s-.74,3.831-9.175,4.242-10.014,0-11.231-3.108" transform="translate(17.265 385.708)"/>
          <line id="Line_336" data-name="Line 336" class="cls-4" x2="0.263" y2="20.604" transform="translate(65.801 986.645)"/>
          <path id="Path_1455" data-name="Path 1455" class="cls-4" d="M27.75,600.73l.115,8.7s15.457.789,20.735,10.08" transform="translate(17.02 386.179)"/>
          <path id="Path_1456" data-name="Path 1456" class="cls-4" d="M43.573,604.965a20.72,20.72,0,0,0-15.309-.395c-8.8,2.993-16.279,7.005-22.889,21.952a29.2,29.2,0,0,0,1.644,27.066,47.011,47.011,0,0,0,16.016,13.977" transform="translate(0.95 387.831)"/>
          <path id="Path_1457" data-name="Path 1457" class="cls-4" d="M55.045,609.227s-20.7-6.413-34.252,7.992-11.51,26.737-11.51,26.737.148,10.886,6.725,18.565" transform="translate(5.05 390.737)"/>
          <path id="Path_1458" data-name="Path 1458" class="cls-4" d="M41.762,605.315s-15.128-1.875-25.685,9.554A39.662,39.662,0,0,0,5.29,638.843,30.124,30.124,0,0,0,15.9,662.061" transform="translate(2.547 389.059)"/>
          <line id="Line_337" data-name="Line 337" class="cls-4" x1="5.328" y1="3.075" transform="translate(9.942 1038.475)"/>
          <path id="Path_1459" data-name="Path 1459" class="cls-4" d="M60.924,637.588S62.782,617.115,44.48,614.7s-26.556,17.907-26.556,17.907-8.057,23.284,11.51,29.006C50.466,667.712,60.841,644.2,60.924,637.588Z" transform="translate(9.629 395.05)"/>
          <path id="Path_1460" data-name="Path 1460" class="cls-4" d="M44.879,631.655a13.8,13.8,0,0,1-10.886,13.155c-11.149,2.96-9.866-12.826-9.866-12.826s2.434-9.126,11.51-9.636S44.879,631.655,44.879,631.655Z" transform="translate(14.657 400.095)"/>
          <path id="Path_1461" data-name="Path 1461" class="cls-4" d="M39.768,623.327s-2.351-1.924-3.535-1.776-7.35-1.283-11.642,5.706c-5.574,9.093,3.486,17.282,3.486,17.282" transform="translate(13.816 399.576)"/>
          <path id="Path_1462" data-name="Path 1462" class="cls-5" d="M44.886,620.238l-1.792.707-8.172,5.706-1.381-.806,4.9-7.712,3.19-1.743" transform="translate(20.751 396.269)"/>
          <path id="Path_1463" data-name="Path 1463" class="cls-5" d="M39.8,615.917l-1.924,1.5-4.292,6.857s-2.055.493-2.2-.954h0l1.463-6.364,1.5-2.253" transform="translate(19.359 395.18)"/>
          <path id="Path_1464" data-name="Path 1464" class="cls-5" d="M33.966,614.43,32.815,616.5l-1.546,6.956s-1.365,1.513-2.319.428l-1.2-6.183.444-2.088" transform="translate(17.02 395.006)"/>
          <path id="Path_1465" data-name="Path 1465" class="cls-5" d="M28.082,615.87l-.115,1.644,1.135,6.758s-1.036,1.431-1.957,1.167l-3.289-4.933-.576-1.644" transform="translate(14.139 395.934)"/>
          <path id="Path_1466" data-name="Path 1466" class="cls-5" d="M23.443,619l.378,1.513,3.157,4.341s0,2.088-1.907,2.055l-5.311-3.6" transform="translate(11.871 397.951)"/>
          <path id="Path_1467" data-name="Path 1467" class="cls-5" d="M19.413,623.54l5.673,2.878s1.644,2.434-.822,2.8l-7.054-1.644" transform="translate(10.228 400.876)"/>
          <path id="Path_1468" data-name="Path 1468" class="cls-5" d="M16.974,628.994l6.577-.444s2.927,1,.526,2.713L16.3,634.552" transform="translate(9.642 404.104)"/>
          <path id="Path_1469" data-name="Path 1469" class="cls-5" d="M18.193,641.289l1.858-2.466,5.607-4.933s1.167-2.664-1.151-2.22-7.827,4.522-7.827,4.522" transform="translate(9.887 406.082)"/>
          <path id="Path_1470" data-name="Path 1470" class="cls-5" d="M23.262,646.783l.132-2.943a6.348,6.348,0,0,1,.937-2.828c.839-1.151,2.7-4.127,2.7-4.127s1.085-3.782-2.351-2.2l-4.506,5.492-1.431,2.746" transform="translate(11.214 407.807)"/>
          <path id="Path_1471" data-name="Path 1471" class="cls-5" d="M28.727,648.236l-.839-2.878a6.988,6.988,0,0,1,0-3.8l1.085-4.062s-.625-2.516-2.664-.921L24.237,640.9a7.827,7.827,0,0,0-1,2.894l-.164,2.828" transform="translate(14.004 408.936)"/>
          <path id="Path_1472" data-name="Path 1472" class="cls-5" d="M33.117,647.381l-1.529-2.236a5.8,5.8,0,0,1-1.019-3.289l-.888-5.426" transform="translate(18.263 409.182)"/>
          <path id="Path_1473" data-name="Path 1473" class="cls-5" d="M29.021,636.51,27.41,643.4l1.4,4.522" transform="translate(16.801 409.233)"/>
          <path id="Path_1474" data-name="Path 1474" class="cls-5" d="M39.343,643.567l-2.22-1.809L32.93,635.28" transform="translate(20.357 408.441)"/>
          <path id="Path_1475" data-name="Path 1475" class="cls-5" d="M31.34,635.98l1.447,7.4,3.437,2.6" transform="translate(19.333 408.892)"/>
          <path id="Path_1476" data-name="Path 1476" class="cls-5" d="M43.532,638.126l-2.549-2.171L35.54,632.7" transform="translate(22.039 406.778)"/>
          <path id="Path_1477" data-name="Path 1477" class="cls-5" d="M34.19,634.25l3.766,5.081,1.99,2.894" transform="translate(21.169 407.777)"/>
          <path id="Path_1478" data-name="Path 1478" class="cls-5" d="M44.624,635.983,42.6,634.569a12.575,12.575,0,0,0-2.664-1.381,23.7,23.7,0,0,1-3.618-1.907" transform="translate(22.542 405.863)"/>
          <path id="Path_1479" data-name="Path 1479" class="cls-5" d="M36.7,629.68l4.473.3,5.229,1.546" transform="translate(22.787 404.832)"/>
          <path id="Path_1480" data-name="Path 1480" class="cls-5" d="M47.225,629.071l-4.818-1.052-5.377-.1" transform="translate(22.999 403.698)"/>
          <path id="Path_1481" data-name="Path 1481" class="cls-5" d="M36.66,627.638l7.284-2.384,3.305-.214" transform="translate(22.761 401.843)"/>
          <path id="Path_1482" data-name="Path 1482" class="cls-5" d="M46.935,622.98l-3.47.46-7.186,2.68" transform="translate(22.516 400.515)"/>
          <path id="Path_1483" data-name="Path 1483" class="cls-5" d="M35.65,626.01l5.821-4.752,3.618-.888" transform="translate(22.11 398.834)"/>
          <path id="Path_1484" data-name="Path 1484" class="cls-4" d="M202.3,656.756l1.365-.016.329,25.8-1.167.016" transform="translate(129.491 422.269)"/>
          <path id="Path_1485" data-name="Path 1485" class="cls-4" d="M172.351,657.48l-1.381.016.329,25.8,1.184-.016" transform="translate(109.303 422.745)"/>
          <path id="Path_1486" data-name="Path 1486" class="cls-4" d="M268.35,551.76s0,3.535,9.06,3.618,8.222-3.289,8.222-3.289" transform="translate(172.05 354.625)"/>
          <line id="Line_338" data-name="Line 338" class="cls-4" x2="0.197" y2="15.292" transform="translate(440.203 906.796)"/>
          <path id="Path_1487" data-name="Path 1487" class="cls-4" d="M282.382,552l.411,9.323a33.707,33.707,0,0,0-8.353,8.534" transform="translate(175.974 354.779)"/>
          <path id="Path_1488" data-name="Path 1488" class="cls-4" d="M270.727,555.41s-5.048,3.7-6.577,8.32" transform="translate(169.344 356.977)"/>
          <path id="Path_1489" data-name="Path 1489" class="cls-4" d="M279.46,552.64l25.043,8.912s7.5,3.437,9.422,16.443" transform="translate(179.209 355.192)"/>
          <path id="Path_1490" data-name="Path 1490" class="cls-4" d="M279.52,559.094s6.66-4.505,13.253-3.552" transform="translate(179.248 356.976)"/>
          <path id="Path_1491" data-name="Path 1491" class="cls-4" d="M283.37,566.79s4.144-6.3,10.968-5.985a14.125,14.125,0,0,1,12.892,10.836" transform="translate(181.728 360.445)"/>
          <line id="Line_339" data-name="Line 339" class="cls-4" x2="0.444" y2="3.815" transform="translate(468.584 924.144)"/>
          <path id="Path_1492" data-name="Path 1492" class="cls-4" d="M287.736,561.47l-.806,2.154.3,3.963" transform="translate(184.022 360.881)"/>
          <path id="Path_1493" data-name="Path 1493" class="cls-4" d="M290.8,561.04l-1.447,1.94-1.414,5.114" transform="translate(184.673 360.604)"/>
          <path id="Path_1494" data-name="Path 1494" class="cls-4" d="M292.709,561.23l-1.875,2.236-1.365,4.917" transform="translate(185.659 360.727)"/>
          <path id="Path_1495" data-name="Path 1495" class="cls-4" d="M290.11,568.251l2.4-3.881,2.943-2.4" transform="translate(186.071 361.204)"/>
          <path id="Path_1496" data-name="Path 1496" class="cls-4" d="M297,562.93l-3.322,2.253-2.023,2.911" transform="translate(187.07 361.822)"/>
          <path id="Path_1497" data-name="Path 1497" class="cls-4" d="M292.91,567.808l2.911-2.319,2.96-.74" transform="translate(187.875 362.995)"/>
          <path id="Path_1498" data-name="Path 1498" class="cls-4" d="M295.13,567.347l1.315-.806,2.319-.181" transform="translate(189.306 364.032)"/>
          <path id="Path_1499" data-name="Path 1499" class="cls-4" d="M267.29,582.89s4.374,4.933,13.27,4.538" transform="translate(171.367 374.683)"/>
          <path id="Path_1500" data-name="Path 1500" class="cls-4" d="M270.84,583.32s.872,2.943,7.235,3.979a29.269,29.269,0,0,0,15.588,6.578c9.57,1,13.878-4.818,13.878-4.818" transform="translate(173.655 374.96)"/>
          <path id="Path_1501" data-name="Path 1501" class="cls-4" d="M276.9,584.4s2.68,5.1,12.464,8.88" transform="translate(177.559 375.656)"/>
          <path id="Path_1502" data-name="Path 1502" class="cls-4" d="M274.23,583.81a12.861,12.861,0,0,0,1.644,3.174" transform="translate(175.839 375.276)"/>
          <path id="Path_1503" data-name="Path 1503" class="cls-4" d="M103.729,570.41c.214-4.029-3.009-10.984-3.009-10.984l.3-7.071s.839,3.716,9.735,3.141,7.2-4,7.2-4l.789,10.178a15.046,15.046,0,0,1-.921,5.8" transform="translate(64.038 354.457)"/>
          <path id="Path_1504" data-name="Path 1504" class="cls-4" d="M108.507,553.73l-14.372,1.562s-6.364,2.171-5.739,18.121" transform="translate(56.07 355.894)"/>
          <path id="Path_1505" data-name="Path 1505" class="cls-4" d="M99.056,570.285s-.214-12.678-7.186-15.6" transform="translate(58.335 356.506)"/>
          <path id="Path_1506" data-name="Path 1506" class="cls-4" d="M111.61,552.516l2.483-.3s6.364,1.562,7.679,12.333" transform="translate(71.055 354.921)"/>
          <path id="Path_1507" data-name="Path 1507" class="cls-4" d="M102.479,557.778a16.2,16.2,0,0,0-4.489-3.618" transform="translate(62.279 356.171)"/>
          <path id="Path_1508" data-name="Path 1508" class="cls-4" d="M98.192,568.63s-.329-7.646-4.933-10.211-4.489,12.037-4.489,12.037" transform="translate(56.338 358.72)"/>
          <path id="Path_1509" data-name="Path 1509" class="cls-4" d="M89.66,559.82l3.289,1.464a5.672,5.672,0,0,1,1.973,2.911c.378,1.743.74,3.667.74,3.667" transform="translate(56.911 359.818)"/>
          <path id="Path_1510" data-name="Path 1510" class="cls-4" d="M88.91,563.11s3.437,0,4.933,1.644l.526,1.3" transform="translate(56.428 361.938)"/>
          <path id="Path_1511" data-name="Path 1511" class="cls-4" d="M92.41,586.4s1.759,3.437,4.177,3.864,10.655-.987,10.655-.987a16.049,16.049,0,0,0,2.878-5.262" transform="translate(58.683 375.411)"/>
          <path id="Path_1512" data-name="Path 1512" class="cls-4" d="M99.533,584.64A6.38,6.38,0,0,1,95.11,589.9" transform="translate(60.423 375.811)"/>
          <path id="Path_1513" data-name="Path 1513" class="cls-4" d="M108.1,584.148a7.021,7.021,0,0,0,4.7,4.637l9.291-.888s4.407-3.009,4.111-6.068" transform="translate(68.793 374)"/>
          <path id="Path_1514" data-name="Path 1514" class="cls-4" d="M115.322,582.45s-.592,4.851-4.242,6.084" transform="translate(70.713 374.4)"/>
          <path id="Path_1515" data-name="Path 1515" class="cls-4" d="M202.27,469.67c6.183,8.6,12.629,10.721,12.629,10.721a17.972,17.972,0,0,0,15.736-3.009l2.121-4.785" transform="translate(129.472 301.73)"/>
          <path id="Path_1516" data-name="Path 1516" class="cls-4" d="M169.27,499.152l49.906-6s13.549-15.671-4.719-24.271" transform="translate(108.208 301.221)"/>
          <path id="Path_1517" data-name="Path 1517" class="cls-4" d="M172.63,526.906a13.155,13.155,0,0,0,4.933-7.3c.921-4.522,46.173-27.28,46.173-27.28s10.129-5.821,14.437-5.87,24.863-5.229,24.863-5.229L349.71,466.69" transform="translate(110.373 299.81)"/>
          <path id="Path_1518" data-name="Path 1518" class="cls-4" d="M295.944,480.14,237.29,490.466l-42.26,19.19,4.111,6.808,10.376-1.792" transform="translate(124.807 308.476)"/>
          <line id="Line_340" data-name="Line 340" class="cls-4" y1="17.118" x2="10.968" transform="translate(362.672 781.529)"/>
          <path id="Path_1519" data-name="Path 1519" class="cls-4" d="M205.32,512.172l20.554-7.663,18.417-6.873s14.092-4,18.006-4.44,5.788-.658,6.183.115" transform="translate(131.437 316.632)"/>
          <path id="Path_1520" data-name="Path 1520" class="cls-4" d="M218.1,501.907s25.405-.806,29.878-4.407" transform="translate(139.672 319.662)"/>
          <path id="Path_1521" data-name="Path 1521" class="cls-4" d="M197.04,512.183l40.287-18.762,54.642-9.521" transform="translate(126.102 310.899)"/>
          <path id="Path_1522" data-name="Path 1522" class="cls-4" d="M285.622,459.516s27.691-4.538,47.176-5.311c0,0,6.4-.872,8.518,1.727,0,0,13.007,14.8,14.487,27.165,0,0,2.023,4.933-1.875,7.613s-34.268.428-57.207-13.155l-21.031,3.157" transform="translate(176.78 291.675)"/>
          <path id="Path_1523" data-name="Path 1523" class="cls-4" d="M335.129,456.62S293,467.226,290.4,469.873s-4.144,3.075-2.023,5.657" transform="translate(184.315 293.321)"/>
          <path id="Path_1524" data-name="Path 1524" class="cls-4" d="M120.19,481.85,149.1,512.912s2.4,3.371,9.455,2.1,20.587-6.15,25.356-11.839" transform="translate(76.583 309.578)"/>
          <path id="Path_1525" data-name="Path 1525" class="cls-4" d="M122.92,484.442s52.981-1.644,60.2.674c0,0,3.4.214,3.42,1.4a40.7,40.7,0,0,1-.724,4.851" transform="translate(78.342 310.884)"/>
          <path id="Path_1526" data-name="Path 1526" class="cls-6" d="M57.692,52.792S66.538,5.4,103.9,1.291,176.4,11.47,176.4,11.47s21.9,9.126,30.453,30.8a346.029,346.029,0,0,1,13.73,46.042l9.192-4.637S246.3,73.4,249.127,101.761s12.135,81.658,12.135,81.658l66.728,42.753s28.184,17.94,14.651,69.293-10.524,78.649-10.524,78.649,5.591,34.531,33.791,70.9,24.764,72.253,24.764,72.253c-.428,6.232-5.065,53.82-41.257,85.408l-3.683,9.406S390.508,601.347,468.8,598.93s120.629,17.348,120.629,17.348,17.989,8.222,30.6,30.651-6.331,83.533-6.331,83.533S495.2,756.771,478.514,769.6s-70.2,8.7-70.2,8.7S291.7,771.965,258.039,760.882l-26,7.728-.576,3.091-18.219,6.808s-16.591,4.736-29.171,1.809-13.253-7.646-13.253-7.646l.937-24.271-18.515-1.2-5.13.674L60.356,733.569s-12.119-.247-13.714-12.365-4.719-47.374-4.719-47.374-2.417-12.086,3.289-22.034l-.707-6.15A14.585,14.585,0,0,1,47.25,634.3c4.144-5.492,12.908-19.272,12.908-19.272L39.8,490.452l3.831-6.413L4.6,288.625s-16.443-65.971,16.756-105.041a115.22,115.22,0,0,0,19.568-46.042C46.28,109.259,57.692,52.792,57.692,52.792Z" transform="translate(-0.524 -0.548)"/>
          <path id="Path_1527" data-name="Path 1527" class="cls-7" d="M120.244,2.032s-29.5-9.274-37.524,23.1c0,0-20.489,70.559-30.864,127.223,0,0-8.222,15.506-14.076,41.29s-7.449,28.447-4.062,52.619,10.425,75.92,10.425,75.92S52.53,383.34,87.275,432.654,127.4,521.811,127.4,521.811" transform="translate(19.734 -0.385)"/>
          <path id="Path_1528" data-name="Path 1528" class="cls-7" d="M69.27,426.4s29.089-23.021,35.978-80.014" transform="translate(43.773 222.295)"/>
          <path id="Path_1529" data-name="Path 1529" class="cls-7" d="M26.7,297.475s2.236-6.725,11.066-7.449a96.9,96.9,0,0,1,15-.2l11.214,8.8L85.7,439.2l-25.142,6.068s-4.637,1.644-4.259,10.063,2.68,26.556,2.68,26.556,3.289,19.551-7.58,24.3-18.713-9.307-18.713-9.307l-4.621-31.407" transform="translate(16.343 185.72)"/>
          <path id="Path_1530" data-name="Path 1530" class="cls-8" d="M25.85,407.3l5.18,42.013s2.187,20.8,17.841,23.35,78.4,12.431,78.4,12.431a16.131,16.131,0,0,0-.2-15.9S99.6,460,91.509,451.7,67.518,429.384,60.085,394.54c0,0,4.7,3.289,5.854,6.923S80.36,452.109,124,462.715c0,0,4.292,3.5,4.44,4.736a1.217,1.217,0,0,1-1.085,1.381" transform="translate(15.795 253.32)"/>
          <path id="Path_1531" data-name="Path 1531" class="cls-7" d="M46.63,384.87s10.639,5.755,16.213,23.777,27.148,50.218,54.675,54.543c0,0,20.406,9.06,4.933,35.978" transform="translate(29.185 247.089)"/>
          <path id="Path_1532" data-name="Path 1532" class="cls-8" d="M28.55,437.69s1.463,7.383,7.515,8.814,86.246,14.108,86.246,14.108l5.821,4.933" transform="translate(17.535 281.124)"/>
          <line id="Line_341" data-name="Line 341" class="cls-8" y1="2.845" x2="3.026" transform="translate(140.06 738.414)"/>
          <path id="Path_1533" data-name="Path 1533" class="cls-7" d="M219.769,160.5l.181,15.49c-2.5,18.532-15.243,7.728-15.243,7.728-30.98-36.6-71.759-30.322-71.759-30.322s-10.688,1.085-28.891,12.694-24.665-10.376-24.665-10.376S68.259,77.475,65.02,49.554,83.4,40.28,83.4,40.28c64.672,42.49,95.783,26.31,95.783,26.31s21.557-2.121,26.8,22.478S217.615,147.1,217.6,161.073s-3.075,17.923-11.642,22.56" transform="translate(40.821 21.123)"/>
          <path id="Path_1534" data-name="Path 1534" class="cls-7" d="M80.645,114.522l-5.13.691s-11.51,2.4-16.443-10.688,4.686-19.19,4.686-19.19l12-10.425" transform="translate(36.295 47.367)"/>
          <path id="Path_1535" data-name="Path 1535" class="cls-7" d="M74.414,81.23l-9.241,6S55.307,97.641,68.1,101.719l9.587-.395" transform="translate(38.793 51.439)"/>
          <path id="Path_1536" data-name="Path 1536" class="cls-7" d="M135.5,413.909s-3.881-30.848-30.092-66.695-28.4-101.6-28.4-101.6-1.1-65.215,13.319-74.177,84.651-2.154,91.9,6.577,46.321,65.478,59.2,91.064a377.164,377.164,0,0,0,55.283,79.62c21.113,22.741,42.523,67.418,9.439,117.719" transform="translate(48.746 106.843)"/>
          <path id="Path_1537" data-name="Path 1537" class="cls-7" d="M38.62,107.931s5.739-1.1,13.237,6.577S107.765,220.7,107.765,220.7" transform="translate(24.024 68.609)"/>
          <path id="Path_1538" data-name="Path 1538" class="cls-7" d="M43.09,95.73a19.946,19.946,0,0,1,8.5,5.854c3.141,4.062,35.8,49.906,65.166,113.46" transform="translate(26.904 60.782)"/>
          <line id="Line_342" data-name="Line 342" class="cls-7" x1="23.087" y2="75.328" transform="translate(231.338 208.638)"/>
          <path id="Path_1539" data-name="Path 1539" class="cls-7" d="M201.624,125.86c-2.8,11.132-31.654,56.187-54.264,93.087" transform="translate(94.09 80.196)"/>
          <path id="Path_1540" data-name="Path 1540" class="cls-7" d="M81.12,216.17s17.035,19.518,19.321,26.31,8.222,80.754,8.222,80.754" transform="translate(51.409 138.388)"/>
          <path id="Path_1541" data-name="Path 1541" class="cls-7" d="M89,183.21l23.169,42.408a47.342,47.342,0,0,1,4.292,10.787c3.157,12.086,10.491,40.747,14.125,60.15,4.7,25.159,13.665,105.074,13.665,105.074" transform="translate(56.486 117.15)"/>
          <path id="Path_1542" data-name="Path 1542" class="cls-7" d="M141.77,184.57s7.515,116.93,32.295,212.549" transform="translate(90.488 118.026)"/>
          <path id="Path_1543" data-name="Path 1543" class="cls-7" d="M164.427,218.18l-4.917,19.453,32.114,132.535" transform="translate(101.919 139.683)"/>
          <path id="Path_1544" data-name="Path 1544" class="cls-7" d="M256.351,397.266c1.644-.477-30.98-154.158-60.66-190.958A72.8,72.8,0,0,0,152.823,176.3s-21.541-1.924-37.573-2.138-22.626,20.719-22.626,20.719A246.882,246.882,0,0,0,79.37,273.15" transform="translate(50.281 111.318)"/>
          <path id="Path_1545" data-name="Path 1545" class="cls-7" d="M71.26,405.347s25.619-14.4,50.893-14.717" transform="translate(45.055 250.801)"/>
          <path id="Path_1546" data-name="Path 1546" class="cls-7" d="M110.336,376.26A67.27,67.27,0,0,1,87.71,403.671" transform="translate(55.655 241.541)"/>
          <path id="Path_1547" data-name="Path 1547" class="cls-7" d="M130.48,544.047l.839-14.684a6.972,6.972,0,0,1,2.845-2.023l.214-5.541-2.121-1.759L122.8,381.4s.444-7.548-5.476-10.474-33.331-23.152-33.331-23.152L70,346.413s-4.111.181-5.509-2.812l-.362-6.709s-1-3.42,4.16-6.216a82.319,82.319,0,0,0,9.323-5.953,24.269,24.269,0,0,1,10.1-3.4c5.476-.411,33.035-4,33.035-4s93.448-1.1,143.733,8.814l5.936,3.618a10.951,10.951,0,0,1,5.163,7.334,85.394,85.394,0,0,1,1.118,12.727l-39.941,5.854a276.872,276.872,0,0,1-38.215.625l-23.383,15.786s-5.361,3.075-4.259,11.691l1.776,139.934s-.263,1.644-2.631,1.644l.23,5.854a6.576,6.576,0,0,1,2.68.23c.625.395,2.664,27.872,2.664,27.872" transform="translate(40.411 203.543)"/>
          <path id="Path_1548" data-name="Path 1548" class="cls-7" d="M129.82,463.35a7.367,7.367,0,0,0,8.912,5.229c7.383-1.233,9.422-2.384,9.422-2.384l.756,4.144" transform="translate(82.788 297.658)"/>
          <line id="Line_343" data-name="Line 343" class="cls-7" x1="15.309" y1="3.815" transform="translate(216.045 759.873)"/>
          <line id="Line_344" data-name="Line 344" class="cls-7" y1="5.476" x2="19.255" transform="translate(231.666 759.232)"/>
          <line id="Line_345" data-name="Line 345" class="cls-7" x1="43.361" y1="8.518" transform="translate(214.302 751.783)"/>
          <path id="Path_1549" data-name="Path 1549" class="cls-7" d="M105.21,446.43s5.624,5.673,20.209,5.015,18.828-1.644,20.324-2.516" transform="translate(66.931 286.755)"/>
          <path id="Path_1550" data-name="Path 1550" class="cls-7" d="M106.77,441.49s5.278,5.213,35.485,3.585" transform="translate(67.936 283.572)"/>
          <line id="Line_346" data-name="Line 346" class="cls-7" x2="114.545" y2="8.551" transform="translate(124.406 551.32)"/>
          <path id="Path_1551" data-name="Path 1551" class="cls-8" d="M86.1,342.7l53.195,4.473a99.151,99.151,0,0,0,18.3.28c10.573-.756,17.956-1.875,17.956-1.875" transform="translate(54.618 219.917)"/>
          <path id="Path_1552" data-name="Path 1552" class="cls-8" d="M72.56,406.43a120.8,120.8,0,0,1,48.508-11.51" transform="translate(45.893 253.565)"/>
          <path id="Path_1553" data-name="Path 1553" class="cls-7" d="M129.44,390.461s86.1-5.213,164.616,11.51l52.619,11.658s34.794,4.505,37.689,4.67,32.246,31.243,11.214,90.439c0,0-38.987,20.225-130.742,14.4" transform="translate(82.544 250.197)"/>
          <path id="Path_1554" data-name="Path 1554" class="cls-8" d="M289.85,473.851a9.192,9.192,0,0,0,2.318-11.741" transform="translate(185.904 296.859)"/>
          <path id="Path_1555" data-name="Path 1555" class="cls-7" d="M129.48,393.74s88.795,1.644,158.811,16.624,96.918,5.755,96.918,5.755" transform="translate(82.569 252.805)"/>
          <path id="Path_1556" data-name="Path 1556" class="cls-7" d="M175,401.352l38.544-8.633s13.928-1.151,19.65-19.93" transform="translate(111.9 239.306)"/>
          <path id="Path_1557" data-name="Path 1557" class="cls-7" d="M238.2,406.049s54.707-3.289,129.9-13.566c74.686-10.2,89.979-4.933,100.42,9.06" transform="translate(152.623 248.57)"/>
          <path id="Path_1558" data-name="Path 1558" class="cls-7" d="M368.55,382.26a21.262,21.262,0,0,1,4.933,12.925" transform="translate(236.614 245.408)"/>
          <path id="Path_1559" data-name="Path 1559" class="cls-7" d="M119.45,321.55s13.155-3.831,21.886-3.124,63.077-1.759,77.5-7.531a77.68,77.68,0,0,1,18.5.362s8.435,0,9.767-.707,8.83-.871,11.839,2.072,18.68,11.231,20.423,40.55-6.577,50.021-6.577,50.021" transform="translate(76.107 198.922)"/>
          <path id="Path_1560" data-name="Path 1560" class="cls-7" d="M207,310.26s20.735,13.8,23.35,46.387S211.261,429,211.261,429L158.51,440.64" transform="translate(101.275 199.014)"/>
          <path id="Path_1561" data-name="Path 1561" class="cls-7" d="M146.41,341.88s4.933,19.387,3.289,35.863-1.266,29.894-7.959,42.03" transform="translate(90.469 219.389)"/>
          <line id="Line_347" data-name="Line 347" class="cls-7" x2="3.733" y2="2.417" transform="translate(204.781 518.647)"/>
          <line id="Line_348" data-name="Line 348" class="cls-7" y1="5.311" x2="18.499" transform="translate(152.376 741.21)"/>
          <path id="Path_1562" data-name="Path 1562" class="cls-7" d="M54.7,489.18c.1-.312-5.574-41.766-5.574-41.766l7.4-24.451L44.261,298.452,38.867,294.6c-.822-.608-4.062-5.278-7.087-4.423" transform="translate(19.616 186.009)"/>
          <path id="Path_1563" data-name="Path 1563" class="cls-7" d="M39.5,295.282l8.978-.312,2.8.888,4.21-.51" transform="translate(24.591 189.162)"/>
          <line id="Line_349" data-name="Line 349" class="cls-7" x2="14.816" y2="141.513" transform="translate(75.881 485.744)"/>
          <path id="Path_1564" data-name="Path 1564" class="cls-7" d="M60.272,438.341a79.636,79.636,0,0,1-10.853-35.206C48.054,382.45,45.16,295.25,45.16,295.25" transform="translate(28.238 189.343)"/>
          <line id="Line_350" data-name="Line 350" class="cls-7" y1="3.387" x2="23.317" transform="translate(45.181 633.077)"/>
          <path id="Path_1565" data-name="Path 1565" class="cls-7" d="M83.486,410.04,72.88,416.552l.608,14.9,10.277.789.016-14.7,2.039-1.151-5.541-.23,7.959-5.048Z" transform="translate(46.099 263.308)"/>
          <path id="Path_1566" data-name="Path 1566" class="cls-7" d="M79.57,424.1v4.834l5.229-.576s4-1.085,6.183,1.151a15.655,15.655,0,0,0,4.571,3.289s2.467.888,10.9.477c0,0,4.506-.576,6.183,1.759a17.609,17.609,0,0,0,2.3,2.861s3.831,2.516,5.541,0" transform="translate(50.41 272.367)"/>
          <path id="Path_1567" data-name="Path 1567" class="cls-7" d="M119.188,419.612,84.213,413.38l-4.7,2.006.1,15.786" transform="translate(50.371 265.46)"/>
          <path id="Path_1568" data-name="Path 1568" class="cls-8" d="M79.76,414.63l1.809,4.818-.181,10.113s6.364-1.25,9.554,2.861,13.385,2.549,13.385,2.549,10.261,1.858,11.51,3.65,4.686,1.019,4.686,1.019l-3.108-14.257L119.487,423" transform="translate(50.532 266.265)"/>
          <line id="Line_351" data-name="Line 351" class="cls-8" x2="35.534" y2="6.018" transform="translate(132.414 685.598)"/>
          <path id="Path_1569" data-name="Path 1569" class="cls-7" d="M50.33,383.66s12.2,6.38,17.3,19.354,7.926,19.93,7.926,19.93a5.607,5.607,0,0,0,6.758,2.927l7.071,6.084" transform="translate(31.569 246.31)"/>
          <line id="Line_352" data-name="Line 352" class="cls-7" x2="10.277" y2="32.558" transform="translate(93.722 627.618)"/>
          <path id="Path_1570" data-name="Path 1570" class="cls-7" d="M58.46,384.31s11.971,3.535,18.088,18.811A130.38,130.38,0,0,0,89.44,428.033" transform="translate(36.808 246.729)"/>
          <path id="Path_1571" data-name="Path 1571" class="cls-8" d="M59.6,388.381s6.577-.51,11.379,11.017,15.276,27.822,15.276,27.822" transform="translate(37.542 249.35)"/>
          <path id="Path_1572" data-name="Path 1572" class="cls-8" d="M253.51,404.315s53.968-5.821,62.485-4.555,31.243-2.6,41.766,30.157S347.4,499.129,347.4,499.129" transform="translate(162.488 256.568)"/>
          <path id="Path_1573" data-name="Path 1573" class="cls-8" d="M384.082,492.342s18.219-33.117,15.21-54.724-3.009-41.9-45.236-44.1-95.586,6.068-95.586,6.068" transform="translate(165.684 252.42)"/>
          <path id="Path_1574" data-name="Path 1574" class="cls-8" d="M374.15,486.683s6.051.74,10.294-10.557,8.962-44.776,8.962-44.776,5.065-32.887-25.981-39.958-41.4-.576-41.4-.576" transform="translate(209.21 249.167)"/>
          <path id="Path_1575" data-name="Path 1575" class="cls-8" d="M95.184,46.13S126.821,75.613,81.24,161.563" transform="translate(51.486 28.822)"/>
          <path id="Path_1576" data-name="Path 1576" class="cls-7" d="M342.76,405.1l.674-54.264a10.7,10.7,0,0,1,4.292-7.449c3.946-2.664,25.553-16.9,25.553-16.9l11.51.263s12.07.247,18.647-.378,25.586-2.927,25.586-2.927a3.042,3.042,0,0,0,2.023-2.763c.1-2.2.082-3.7.082-3.7a5.755,5.755,0,0,0-3.486-4.209c-3.289-1.743-12.283-6.972-12.283-6.972s-92.593-7.465-132.683-3.289l-22.725,2.762s-6.281,1.858-6.89,7.482a39.468,39.468,0,0,0-.164,8.781l16.739,1.151.477.312,30.618,20.127a10.54,10.54,0,0,1,3.535,8.731c-.345,5.755,1.644,53.014,1.644,53.014" transform="translate(161.983 193.201)"/>
          <line id="Line_353" data-name="Line 353" class="cls-7" x1="102.69" y1="3.486" transform="translate(431.619 516.181)"/>
          <line id="Line_354" data-name="Line 354" class="cls-7" x2="136.382" y2="4.144" transform="translate(416.935 501.727)"/>
          <path id="Path_1577" data-name="Path 1577" class="cls-7" d="M258.46,304.176s101.489-4.029,127.766,3.6l7.712,3.6a24.862,24.862,0,0,0,17.726,3.6c10.392-1.776,13.681-2.088,13.681-2.088" transform="translate(165.678 194.41)"/>
          <line id="Line_355" data-name="Line 355" class="cls-7" y1="2.779" x2="24.221" transform="translate(552.989 499.392)"/>
          <path id="Path_1578" data-name="Path 1578" class="cls-7" d="M273.42,320.83l46.765,1.644s14.8,1.315,18.088.592,10.244-1.644,10.244-1.644" transform="translate(175.317 205.825)"/>
          <path id="Path_1579" data-name="Path 1579" class="cls-7" d="M57.579,95.547S37.435,93.426,19.66,104.1" transform="translate(11.807 60.554)"/>
          <path id="Path_1580" data-name="Path 1580" class="cls-8" d="M64.54,327.85l126.944,9.291s36.6,2.467,55.48-1.94l21.952-3.157s4.275-.872,5.18-3.979" transform="translate(40.725 210.348)"/>
          <path id="Path_1581" data-name="Path 1581" class="cls-8" d="M76,320.21l129.345,8.83a223.328,223.328,0,0,0,25.208-.724c11.362-1.167,26.31-4.029,26.31-4.029" transform="translate(48.11 205.426)"/>
          <path id="Path_1582" data-name="Path 1582" class="cls-9" d="M63.1,92.51s97.247,342.271,99.2,366.9l12.448-1.25L87.223,128.9s-6.068-5.985-6.808-10.359-3.6-24.9-3.6-24.9l-9.439.806S63.791,93.793,63.1,92.51Z" transform="translate(39.797 58.707)"/>
          <path id="Path_1583" data-name="Path 1583" class="cls-9" d="M133.15,111.84l78.189,326.124,10.475.411L144.5,118.713Z" transform="translate(84.934 71.163)"/>
          <path id="Path_1584" data-name="Path 1584" class="cls-9" d="M31.964,57l26.1,7.679A147.514,147.514,0,0,1,75.72,71.47c6,3.108,18.3,8.222,18.3,8.222l2.434,15.9L69.833,85.513s-5.706-4.341-17.381-6.462S28.33,73.608,28.33,73.608Z" transform="translate(17.393 35.826)"/>
          <path id="Path_1585" data-name="Path 1585" class="cls-7" d="M174.84,510.718s23.843,9.373,44.282-.658" transform="translate(111.797 327.755)"/>
        </g>
      </g>
    </g>
  </g>
</svg>
