<svg xmlns="http://www.w3.org/2000/svg" viewBox="0 0 253.33 147.35"><defs><style>.cls-1{fill:#fff;}.cls-2,.cls-4,.cls-5{fill:none;}.cls-3{fill:#d2d2d3;}.cls-4,.cls-5{stroke:#040006;stroke-miterlimit:10;}.cls-4{stroke-width:0.74px;}.cls-5{stroke-width:0.39px;}</style></defs><title>braço direito GT</title><g id="Camada_2" data-name="Camada 2"><g id="Camada_1-2" data-name="Camada 1"><path class="cls-1" d="M245.5,109.88c-7.94-14.08-46.68-18.48-56.45-17.5-2.71,3.11-3.32,3.85-6.48,10.62,6.78-.22,19.92,1.16,31.8,3.35C231.9,109.6,243.44,111.14,245.5,109.88Z"/><path class="cls-1" d="M51.43,100s-.65-10.85,11.29-11.79c9.71-.77,21.18-3.27,34.79-.19,47.73-6.23,57.6-4.33,66.55-2.67,1.27,4.2-.44,5,.69,6.48-1.38,4.26-6.88,11.43-6.88,11.43a198.1,198.1,0,0,0-31.47.92c-23.79,2.5-52.48,5-64.72,7.29C59.12,112,51.43,100,51.43,100Z"/><path class="cls-1" d="M57.27,65.3,52.17,97s3.46-6.94,5.26-7.66c.46-.92,6.87-33.3,4.84-31.45C60.71,59.36,57.27,65.3,57.27,65.3Z"/><path class="cls-1" d="M34.25,6.52c7.32,15.41,13.66,28.65,13.66,28.65s6.71-.43,8.36-2.62C52.08,23.08,47.61,14.3,43.2,6.36Z"/><path class="cls-1" d="M54.58,10.14C54,8.82,53.31,7.51,52.65,6.2l-8,.14A141.29,141.29,0,0,1,56.52,33.47l4.16-1.33s-.54-.53-2.24-6C57.15,20.67,56.89,15,54.58,10.14Z"/><path class="cls-1" d="M43,121.59s-3.08,7.77-2.58,11.5.69,11.46,12.1,13c19.51,3,43.38-2.53,51-4.83"/><path class="cls-1" d="M156,140.59s44-1.75,52.57.21,34.53,4.66,36.19,3.8,8.48-16.72,8.16-25.08-1.68-12.51-7.18-18.34S228.27,84.31,225.34,83s-15-6.2-27.54-6.7"/><path class="cls-1" d="M68.53,88l94.74-12.14,27.58-2.1-35.4,63.48-40.77,5.25c-1,.13-10.13.69-11.12.76-5.46.36-15.84,1-25.6,0-9.15-.94-18.47-7.61-23.51-11.73-6.68-5.46-11.71-9.1-22.17-23.09-9.57-10.12-7.45-21.44-6.81-27s4.65-24.35,4.65-24.35L67.93,40.8v7.67l-4.42,8.08L63,80.42"/><path class="cls-1" d="M179.22,43S177.75,73.64,160,100.64l-7.32,10.24s-3,16.06-11.82,20.61c0,0-6.36,5.24-7.57,6.44s-2.36,4.88,3,7.57,13.39.63,16.42-1.81,8.51-9.94,8.51-9.94,31.47-44.16,36.07-56.68,7.24-13.85,7.24-13.85"/><path class="cls-1" d="M62.46,32.11S29.89,38.92,27,39.56s-4.23,1.66-3.68,5.2,2.39,10.17,4.37,12.47.6,2.34,4.74,1.61S72.21,47.06,72.67,47s69.9-22.31,94.83-10.81A179.27,179.27,0,0,1,205.27,64s2.18,2.76,3.37.92,3-2.76,2.44-5,0-5.57,1.7-6.72a2.89,2.89,0,0,0,1.47-2.67,3.68,3.68,0,0,0-1.65-4.94,2.36,2.36,0,0,0-.28-.12c-3.59-1.75-24-16.52-49.22-19.64S91.24,29.64,71,33.14C62.15,34.72,62.46,32.11,62.46,32.11Z"/><path class="cls-1" d="M51.27,100.34S54.78,91.19,57.13,90,68.54,85.17,80,83.6s77.47-11,92.45-8.63"/><path class="cls-1" d="M211.21,60.57s-28.62-28.34-59.59-30.91C127.39,26.41,82.25,41.73,78.2,42.42S41.75,52.88,35,54c-7.29-1.38-4.53-7.91-3.61-9.25s7.22-2.3,7.22-2.3S109.79,31.07,117.51,30s27-3.52,43.08-.26c16.28,3.3,37.72,13,50.25,22.8"/><circle class="cls-1" cx="36.42" cy="48.47" r="4.07"/><circle class="cls-1" cx="34.19" cy="88.71" r="4.07"/><circle class="cls-1" cx="78.85" cy="134.27" r="4.07"/><circle class="cls-1" cx="156.38" cy="125.66" r="4.07"/><path class="cls-1" d="M61,111.58s72.87-9.61,97.12-8.38"/><path class="cls-1" d="M182.56,102.47s26,2.53,37.23,4.87,27.07,6.67,30.05-1"/><path class="cls-1" d="M52.62,102.13s31.09-2.38,41.3-3.4,60.56-7.35,71.23-6.85"/><path class="cls-1" d="M189,92.34s29.69,1.6,41.1,6.75S246,109.88,246,109.88"/><path class="cls-1" d="M56.66,89.53s21.53-5.7,40.85-1.47c17.3-2.12,57.14-6.13,66.89-2.56a12.68,12.68,0,0,1-.37,6.35"/><path class="cls-1" d="M97.51,88.06s-1.82,9.61-2,10.51"/><path class="cls-1" d="M164.4,85.5a10.57,10.57,0,0,1,3.59-.75"/><path class="cls-1" d="M195.21,81.56s23.86-.62,32.78,3.34"/><path class="cls-1" d="M189.52,92.34s49.6-.32,60.58,14.46"/><path class="cls-1" d="M196.91,20c-6.06-6.29-10.12-9.56-22.88-14C159.31.82,134.36.59,124.32,1.05,103.65,2,78.71,9.17,74.85,11.61S71,17.16,71,17.16l-6.14,2.39-5.57,4.52L70.66,40.82l61.61-13.25,36.12,2.5-3.87,20.58L159.9,65.52l-5.42,9.53,8.42,6.47,18-.92L194,59.44,212.84,46.6l3-3.61,1.91-5.64-.56-3.81L203.63,23.45Z"/><path class="cls-1" d="M64.27,54.53s-1.86,30.86-2.56,33.52"/><line class="cls-2" x1="62.53" y1="79.94" x2="67.93" y2="86.08"/><path class="cls-1" d="M49.13,77.61S47.52,91.55,46.82,93.3"/><path class="cls-1" d="M57,65.3s-3.63,31.4-5.92,34.75"/><path class="cls-1" d="M62.53,57.08s-.1,4.72-.35,6.5S58.41,88,56.66,90.31"/><line class="cls-2" x1="57.02" y1="66.28" x2="62.33" y2="62.01"/><path class="cls-1" d="M.35,6.91c6.89,18,14,41,16,52.16,2.78,15.64,1,42.72,1,42.72s-.91,28.58,11.59,30,14-10.58,14-10.58L22.75,6.71Q11.54,6.88.35,6.91Z"/><path class="cls-1" d="M54.61,6.17,62,21.63c-.43-1.75-3.43-7.88-7.35-15.46Z"/><path class="cls-1" d="M34.2,6.52c7.15,14.83,12.67,26.32,13.64,28.65l-9-28.73Z"/><path class="cls-1" d="M39.27,6.43l16,27.18c0-3.42-5.56-14.65-12-27.25Z"/><path class="cls-1" d="M54,9c-.28-.49-.82-1.48-1.54-2.82l-7.83.14c4.23,7.21,8.74,16.05,10.29,23.16.36,1.45,1.15,3.91,1.15,3.91l4.55-1.3a16.29,16.29,0,0,0-1.9-4C58.25,25,55.92,12.27,54,9Z"/><path class="cls-1" d="M195.69,64.78s-6-7-9.38-6.9-4.6,5.89-4.6,5.89-11.32,32.48-20.12,44.56C155,117.42,163.86,120,163.86,120s2.94,1.29,5-2.76c3.61-5,25.49-40.48,26.87-45.91S195.69,64.78,195.69,64.78Z"/><path class="cls-1" d="M54.59,6.17c-12.14.19-24.29.44-36.44.6l10.77,43L77,35.17,65.4,28.83Z"/><path class="cls-3" d="M245.5,109.88c-7.94-14.08-46.68-18.48-56.45-17.5-2.71,3.11-3.32,3.85-6.48,10.62,6.78-.22,19.92,1.16,31.8,3.35C231.9,109.62,243.44,111.16,245.5,109.88Z"/><path class="cls-3" d="M51.43,100.06s-.65-10.85,11.29-11.79c9.71-.77,21.18-3.27,34.79-.19,47.73-6.23,57.6-4.33,66.55-2.67,1.27,4.2-.44,5,.69,6.48-1.38,4.26-6.88,11.43-6.88,11.43a198.1,198.1,0,0,0-31.47.92c-23.79,2.5-52.48,5-64.72,7.29C59.12,112,51.43,100.06,51.43,100.06Z"/><path class="cls-3" d="M57.27,65.32,52.17,97s3.46-6.94,5.26-7.66c.46-.92,6.87-33.3,4.84-31.45C60.71,59.38,57.27,65.32,57.27,65.32Z"/><path class="cls-3" d="M34.24,6.52c7.32,15.42,13.67,28.67,13.67,28.67s6.71-.43,8.36-2.62C52.08,23.09,47.61,14.3,43.19,6.36Z"/><path class="cls-3" d="M54.58,10.2c-.64-1.34-1.29-2.67-2-4l-8,.14a141.93,141.93,0,0,1,12,27.19l4.16-1.33s-.54-.53-2.24-6C57.15,20.73,56.89,15,54.58,10.2Z"/><path class="cls-4" d="M43,121.61s-3.08,7.77-2.58,11.5.69,11.46,12.1,13c19.51,3,43.38-2.53,51-4.83"/><path class="cls-4" d="M156,140.61s44-1.75,52.57.21,34.53,4.66,36.19,3.8,8.46-16.68,8.16-25.09-1.66-12.51-7.18-18.34-17.5-16.85-20.43-18.14-15-6.2-27.54-6.7"/><path class="cls-4" d="M36.69,57.88s-10.58,18-11.23,23.55-2.76,16.84,6.81,27c10.46,14,15.49,17.64,22.17,23.09,5,4.12,14.35,10.8,23.51,11.73,11.51,1.18,32.57-3.68,32.57-3.68L138,134.31"/><path class="cls-4" d="M179.22,43S177.75,73.66,160,100.66l-7.31,10.28s-3,16.06-11.82,20.61c0,0-6.36,5.24-7.57,6.44s-2.36,4.88,3,7.57,13.39.63,16.42-1.81,8.51-9.94,8.51-9.94,31.47-44.16,36.07-56.68,7.24-13.85,7.24-13.85"/><path class="cls-4" d="M152.67,110.94s-48.07,13.3-69.51,11.73S46.82,93.32,46.82,93.32,44.24,85,50.59,75.1,68.53,48.23,68.53,48.23"/><path class="cls-4" d="M62.46,32.14S29.89,39,27,39.59s-4.23,1.66-3.68,5.2S25.7,55,27.68,57.26s.6,2.34,4.74,1.61S72.21,47.09,72.67,47s69.9-22.31,94.83-10.81A179.57,179.57,0,0,1,205.27,64s2.18,2.76,3.37.92,3-2.76,2.44-5,0-5.57,1.7-6.72a2.89,2.89,0,0,0,1.47-2.67,3.68,3.68,0,0,0-1.65-4.94,2.36,2.36,0,0,0-.28-.12c-3.59-1.75-24-16.52-49.22-19.64S91.24,29.66,71,33.16C62.15,34.74,62.46,32.14,62.46,32.14Z"/><path class="cls-4" d="M62.46,32.14s-1.93-7.3-1.81-8.5S64,19,70.25,17.23s46.27-9,61.17-9.25,44.49,2.38,60.31,9.68,24.54,13.79,25.54,16.64-1.84,11.9-4.48,11.4"/><path class="cls-4" d="M51.27,100.36S54.78,91.21,57.13,90,68.54,85.19,80,83.62s77.47-11,92.45-8.63"/><path class="cls-4" d="M167.5,36.18s-6.78,34.18-13.31,38.44"/><path class="cls-5" d="M211.21,60.59s-28.62-28.34-59.59-30.91C127.39,26.43,82.25,41.75,78.2,42.44S41.75,52.88,35,54c-7.29-1.38-4.53-7.91-3.61-9.25s7.22-2.3,7.22-2.3,71.16-11.35,78.88-12.39,27-3.52,43.08-.26c16.28,3.3,39.94,13.4,52.47,23.18"/><circle class="cls-5" cx="36.42" cy="48.49" r="4.07"/><circle class="cls-5" cx="34.19" cy="88.73" r="4.07"/><circle class="cls-5" cx="78.85" cy="134.29" r="4.07"/><circle class="cls-5" cx="156.38" cy="125.69" r="4.07"/><path class="cls-4" d="M61,111.61s72.87-9.61,97.12-8.38"/><path class="cls-4" d="M182.56,102.49s26,2.53,37.23,4.87,27.07,6.67,30.05-1"/><path class="cls-4" d="M52.62,102.15s31.09-2.38,41.3-3.4,60.56-7.35,71.23-6.85"/><path class="cls-4" d="M189,92.36s29.69,1.6,41.1,6.75S246,109.88,246,109.88"/><path class="cls-4" d="M56.66,89.55s21.53-5.7,40.85-1.47C114.81,86,154.65,82,164.4,85.52a12.68,12.68,0,0,1-.37,6.35"/><path class="cls-5" d="M97.51,88.08s-1.82,9.61-2,10.51"/><path class="cls-4" d="M164.4,85.52a10.57,10.57,0,0,1,3.59-.75"/><path class="cls-4" d="M195.21,81.58S219.07,81,228,84.92"/><path class="cls-4" d="M189.52,92.36s49.6-.32,60.58,14.46"/><path class="cls-4" d="M196.58,20C181.71,5.3,173.14,4.61,159.14,2.61,138.14-1.39,115,.2,94,5.53L86.42,7.44c-5,1.37-15.23,3.09-15.77,9.72"/><path class="cls-4" d="M64.27,54.55s-1.86,30.86-2.56,33.52"/><line class="cls-4" x1="62.53" y1="79.96" x2="67.93" y2="86.1"/><path class="cls-4" d="M49.13,77.63s-1.61,13.94-2.31,15.69"/><path class="cls-4" d="M57,65.32s-3.63,31.4-5.92,34.75"/><path class="cls-4" d="M62.53,57.1s-.1,4.72-.35,6.5S58.41,88,56.66,90.33"/><line class="cls-5" x1="57.02" y1="66.3" x2="62.33" y2="62.04"/><path class="cls-4" d="M42.89,121.23c-1.85,6-6.85,12-13.85,11-14-4-12-23-11-35,2-30-6.77-62-17.69-90.29"/><path class="cls-4" d="M54.61,6.17c2.14,4.18,6.06,10.94,7.39,15.48"/><path class="cls-4" d="M34.25,6.52C38.13,15.19,44,26.2,47.84,35.2"/><path class="cls-4" d="M43.2,6.36C46.81,13.87,53,24.2,55.27,33.63"/><path class="cls-4" d="M44.6,6.34A150.13,150.13,0,0,1,56.09,33.49"/><path class="cls-4" d="M60.64,32.14C58,24.2,55,14,52.65,6.2"/><path class="cls-5" d="M195.69,64.8s-6-7-9.38-6.9-4.6,5.89-4.6,5.89-11.32,32.48-20.12,44.56C155,117.44,163.86,120,163.86,120s2.94,1.29,5-2.76c3.61-5,25.49-40.48,26.87-45.91S195.69,64.8,195.69,64.8Z"/></g></g></svg>