<svg id="Camada_1" data-name="Camada 1" xmlns="http://www.w3.org/2000/svg" xmlns:xlink="http://www.w3.org/1999/xlink" viewBox="0 0 257.24 257.24"><defs><clipPath id="clip-path"><rect width="257.24" height="257.24" style="fill:none"/></clipPath></defs><title>direita</title><g id="Camada_2" data-name="Camada 2"><g id="Camada_1-2" data-name="Camada 1-2"><g style="clip-path:url(#clip-path)"><g style="opacity:0.5400000214576721"><path d="M30-181.19s14-50.61,14.09-52.12S48.77-259,56.61-269c0,0,4.1-15.29,24.08-13.5s40.8,11.52,46,14.83,16.11,12.52,24.25,46.76L158-204.8s14.47,30,17.51,34.69,28.37,18.88,28.37,18.88,28.29,18,31,28.93,8.51,28.9-17,54.5c0,0-10.52,11.91-8.91,22.28s3.22,21.38,26,56.87,28.46,59,29.84,68.2,3.17,36.93-25.14,43.92c0,0,4.24,9.71,5.87,11,0,0,19.79.51,45.12-11s56.74-39.12,102,7c0,0,15.4,13.33,20.29,26.79,0,0,8.67,9.09,7.94,21.59s-11.3,26.85-11.3,26.85L306.85,239.1s-15.66,4.79-21.9,4.29-149.83-26.56-149.83-26.56l-27.82-.73-16.7,2L23.82,202.42a19.65,19.65,0,0,1-6.77-10c-1.53-6.18-2-40-2-40s2.45-11.4,5.84-14.61l.46-2.35,8.28-22.6L22.63,48l5.54-15.29,1.22-4.34S35-14.36,32.53-48.53c0,0-15-63.12-16.63-81.33S28-173.11,28-173.11Z" style="fill:#fff"/><path d="M421.48,179c.73-12.5-7.94-21.59-7.94-21.59-4.9-13.46-20.3-26.79-20.3-26.79-45.21-46.05-76.63-18.54-101.92-7s-45.12,11-45.12,11l-37.51-1.76-11.43-.59,97.26,6.92,75.61,5.43s33,1.21,42.67,13.57S421.48,179,421.48,179Z" style="fill:none;stroke:#1d1d1b;stroke-miterlimit:10;stroke-width:3px"/><path d="M393.24,130.61s15.4,13.33,20.3,26.79c0,0,8.67,9.09,7.94,21.59s-11.25,26.88-11.25,26.88L307.49,239.32s-15.67,4.79-21.91,4.3S135.75,217.1,135.75,217.1" style="fill:none;stroke:#1d1d1b;stroke-miterlimit:10;stroke-width:3px"/><path d="M108,216.26l-16.71,2L24.46,202.61a19.69,19.69,0,0,1-6.76-10c-1.35-5.43-1.87-32.14-2-38.67A11.12,11.12,0,0,1,16,151c.79-3.21,2.86-10.6,5.48-13.09l.45-2.34L30.25,113,23.31,48.28,28.84,33l1.23-4.34L42.82,26s3.16-.43,3.84,1.38,4.42,15.9,4.42,15.9L60,130.38,48,132.1a15.66,15.66,0,0,1,9.22,8.26c2.78,6.46,9.39,23.74,9.39,23.74L71,165.28l.52,8,6-.54s15,10.94,22.88,11.1l9.2,20.26a10.61,10.61,0,0,0-1.42,2.81C108.14,207.67,108,216.26,108,216.26Z" style="fill:none;stroke:#1d1d1b;stroke-miterlimit:10;stroke-width:2px"/><path d="M246.16,134.68c-1.63-1.26-5.86-11-5.86-11,28.31-7,26.52-34.67,25.13-43.92s-7-32.71-29.83-68.2-24.4-46.49-26-56.87,8.91-22.28,8.91-22.28c25.58-25.6,19.78-43.56,17.05-54.51s-31-28.91-31-28.91-25.19-16.33-28.17-18.48" style="fill:none;stroke:#1d1d1b;stroke-miterlimit:10;stroke-width:3px"/><path d="M30.08,28.64s5.6-42.77,3.14-76.94c0,0-15-63.12-16.63-81.33S28.65-172.9,28.65-172.9l2-8.12s14-50.57,14.13-52.09,4.63-25.68,12.56-35.69c0,0,4.09-15.28,24.07-13.48s40.79,11.51,46,14.86,16,12.52,24.17,46.77l7,16.12" style="fill:none;stroke:#1d1d1b;stroke-miterlimit:10;stroke-width:3px"/><path d="M81.62,20.74,43.24-66.73s-22.3-30.88-15.9-95.35a132.67,132.67,0,0,1,10.33-23.09c7-12.34,13.52-59.73,13.52-59.73s1.81-16.21,6.06-23.87" style="fill:none;stroke:#1d1d1b;stroke-miterlimit:10;stroke-width:3px"/><path d="M134.27,144.1s19.11-26.8,70.92,6.55,65.35,52.84,65.35,52.84l9.77,14s7.29,16.2,15.33,24.57" style="fill:none;stroke:#1d1d1b;stroke-miterlimit:10;stroke-width:3px"/><path d="M295.93,236.69s14-35.52,2.59-50-55.3-23.7-66.21-25.62-15.93-3-15.93-3" style="fill:none;stroke:#1d1d1b;stroke-miterlimit:10;stroke-width:3px"/><g id="Detalhes"><path d="M205.23-150.52s-11.31,25-22.3,37.49L166.71-68l28.48,107.5,5.64.4S182.44-30.55,184-34.19s23.62-45.54,30.61-53.14,18.54-34.09,18.47-39.36" style="fill:none;stroke:#1d1d1b;stroke-miterlimit:10;stroke-width:2px"/><line x1="218.6" y1="-16.82" x2="197.79" y2="32.18" style="fill:none;stroke:#1d1d1b;stroke-miterlimit:10;stroke-width:2px"/><path d="M32.17-172.18s13.23-4,21.78,14.52,11.09,28,11.09,28l-.37,7.1L92-64.9l11.6,81.44" style="fill:none;stroke:#1d1d1b;stroke-miterlimit:10;stroke-width:2px"/><path d="M86.3,19.88,78-3.9s-4.92-7-11.08-8.79" style="fill:none;stroke:#1d1d1b;stroke-miterlimit:10;stroke-width:2px"/><polyline points="102.7 10.13 140.04 -12.68 186.26 5.97" style="fill:none;stroke:#1d1d1b;stroke-miterlimit:10;stroke-width:2px"/><polyline points="103.4 15.02 140.7 -7.76 186.92 10.9" style="fill:none;stroke:#1d1d1b;stroke-miterlimit:10;stroke-width:2px"/></g><path d="M186,40.1s14.15-.44,20.35,0,13.53.22,16.85,6.31,7.61,16.07,3.58,43.51-11.91,36.79-11.91,36.79-13.68,6.16-33.53,6.23a282.81,282.81,0,0,0-28.29,1.26,22.23,22.23,0,0,0-5.69,1.33l-14,5.28" style="fill:none;stroke:#1d1d1b;stroke-miterlimit:10;stroke-width:3px"/><path d="M204.88,40s10.23,5.14,8.19,20.45S208.12,82.09,207.18,97s-.6,19.88-1.16,22.39-2.49,9.46-6.76,11.92" style="fill:none;stroke:#1d1d1b;stroke-miterlimit:10;stroke-width:2px"/><polyline points="21.55 137.97 23.89 154.86 29.05 168.09 35.94 167.42 37.55 152.6 35.4 133.52 43.69 110.99 36.34 45.23 38.1 30.83 29.72 32.24" style="fill:none;stroke:#1d1d1b;stroke-miterlimit:10;stroke-width:2px"/><line x1="42.84" y1="26.89" x2="38.1" y2="30.83" style="fill:none;stroke:#1d1d1b;stroke-miterlimit:10;stroke-width:2px"/><polyline points="45.36 27.02 43.35 45.21 50.29 109.86 41.6 133.03 42.36 136.63 36.28 141.24" style="fill:none;stroke:#1d1d1b;stroke-miterlimit:10;stroke-width:2px"/><path d="M42.9,133.1a15.73,15.73,0,0,1,9.18,8.27c2.81,6.41,9.37,23.61,9.37,23.61S66.9,179,84,185.75l10.57,26.63L108,210.87" style="fill:none;stroke:#1d1d1b;stroke-miterlimit:10;stroke-width:2px"/><path d="M22,144.15a59.28,59.28,0,0,0-2.06,6.47,16.25,16.25,0,0,0-.51,4.81l1.65,35.67a3.52,3.52,0,0,0,2.84,3.29l54.13,12.09,3.26.78L77.63,195S62.16,189.49,56,178s-11.2-27.39-12.13-29.09-5.21-6.11-7.54-7.06" style="fill:none;stroke:#1d1d1b;stroke-miterlimit:10;stroke-width:2px"/><line x1="91.24" y1="218.31" x2="81.27" y2="207.23" style="fill:none;stroke:#1d1d1b;stroke-miterlimit:10;stroke-width:2px"/><path d="M107.39,224.1a13.17,13.17,0,0,0-1.52.3,16.9,16.9,0,0,0-8.15,5l-5.3,5.7-2.35-3.56s1.87-2.08,4.23-4.38a27.32,27.32,0,0,1,12.63-6.9,7.62,7.62,0,0,1,.93-.18" style="fill:#fff;stroke:#1d1d1b;stroke-miterlimit:10;stroke-width:2px"/><path d="M90.9,234.64s-10,6.12-11,7.13-3,.79-4.05.87-1.55,1-2.32,2-3,1.17-3.8,1.46-1.53.69-2.68,3.14,2.59,7.08,2.59,7.08a5.75,5.75,0,0,0,4.21,1.84,4.79,4.79,0,0,0,4-2.42A8.92,8.92,0,0,1,80,253.39a7.53,7.53,0,0,0,2.28-2.67,3.67,3.67,0,0,1,2.54-1.56L94.67,237,91.3,234.1l-2.5-3.88-18.58,10.7s-6.49,2.85-6.94,6.09a14.68,14.68,0,0,0,1,6.65s1.92,1.56,1.89,2.1,1.41,1.64,1.93,1.44a1.3,1.3,0,0,1,1.54.33,5.25,5.25,0,0,0,2.69,1.39,4.17,4.17,0,0,0,2-.6" style="fill:#fff;stroke:#1d1d1b;stroke-miterlimit:10;stroke-width:2px"/><path d="M138.47,48.3A39.53,39.53,0,0,1,151,65.66c3.71,10.87,3.33,32.3,1.22,48.68s-13.44,23.88-13.44,23.88" style="fill:none;stroke:#1d1d1b;stroke-miterlimit:10;stroke-width:2px"/></g><path d="M184.06,226.76,142.48,238.1l-.09,1.69-5.47,5.81s-18.36,3.06-27.86-3.44l-1.6-5.09.49-20.78.21-8.8,1.44-3.4-1-54.6-2.12-1.55L100,64.83,98.5,46.54,87.94,44.8l-17.25-.55L67.08,42.1S58,41.63,56.33,40.19A9,9,0,0,1,53.44,34c.1-1.94-.29-7.56,4.9-9.57S79.68,21.1,79.68,21.1a75.65,75.65,0,0,0,7.88-1.55c1.21-.53,18.41-4,28.84-4.09S146.13,17,146.13,17s15.74,1.92,25.93,6.35S183,30.71,183,30.71a10.07,10.07,0,0,1,1.67,6.35c-.42,3.36-1.74,5.84-3.7,6.16s-31.51,3.28-31.51,3.28l-1.31.79-10.45.46-2.36,64.84-1.26,37.63-1.74.67,1.22,56.64,1.9,2,1.68,15.17,16.39-4.24,31.22,5.62Z" style="fill:#fff;stroke:#1d1d1b;stroke-miterlimit:10;stroke-width:3px"/><path d="M54.2,33.1S89.51,26,109.09,30.48s38,6.92,41.29,7.6,33.52-.2,34.29-1.35" style="fill:none;stroke:#1d1d1b;stroke-miterlimit:10;stroke-width:2px"/><path d="M108.61,149.5s17.45,2.26,23.72,1.4" style="fill:none;stroke:#1d1d1b;stroke-miterlimit:10;stroke-width:2px"/><path d="M108.18,206.91s9.08,6.8,27.38,3.23" style="fill:none;stroke:#1d1d1b;stroke-miterlimit:10;stroke-width:2px"/><line x1="98.52" y1="46.54" x2="137.67" y2="47.75" style="fill:none;stroke:#1d1d1b;stroke-miterlimit:10;stroke-width:2px"/></g></g></g></svg>