<svg xmlns="http://www.w3.org/2000/svg" viewBox="0 0 304.36 220.58"><defs><style>.cls-1,.cls-2{fill:#fff;}.cls-10,.cls-2,.cls-9{opacity:0.41;}.cls-10,.cls-11,.cls-3,.cls-4,.cls-5,.cls-6,.cls-7,.cls-8,.cls-9{fill:none;}.cls-10,.cls-11,.cls-4,.cls-5,.cls-6,.cls-7,.cls-8,.cls-9{stroke:#000;stroke-miterlimit:10;}.cls-10,.cls-11,.cls-4{stroke-width:0.48px;}.cls-5,.cls-8,.cls-9{stroke-width:0.96px;}.cls-6{stroke-width:2px;}.cls-11,.cls-8{opacity:0.53;}</style></defs><title>braço direito GTI</title><g id="Camada_2" data-name="Camada 2"><g id="Camada_1-2" data-name="Camada 1"><path class="cls-1" d="M82.11,59.45C81.66,45.87,77,25.54,66.25,6.56L40,15.29s-24.37,0-39.27-.59C4.47,22.58,20.83,57.91,24,76.31c3.56,20.8-7.36,60.64-9.44,82.24s10.51,21.94,10.51,21.94L91.21,50.15S87.39,56.15,82.11,59.45Z"/><path class="cls-1" d="M144,215.32c-.56-1.84.24-6,.6-7.12s.92-2.48,2.88-2.56,2.32,2.56,2.32,2.56-.08,6.92-1.12,8"/><path class="cls-1" d="M103.85,208.21s26.45,3.87,33.72,9.51c4.59,2.22,10.68,1.92,23.52,2s24.36-.84,24.36-.84,4.32,0,6.24-2.68S208,208.32,208,208.32s10.65-4.27,14.25-4.63"/><circle class="cls-1" cx="167.73" cy="213.34" r="3.52"/><path class="cls-1" d="M42,197.62s4,12.85,10.84,15.25,52.24-4.4,52.24-4.4,50.5-5.36,60.73-7.76,34.39-1.36,29.11-19-38.32-14.56-38.32-14.56-58.32,13.24-78.24,7.72S55,154.32,55,154.32s32.52-35.52,39-46.08,15.44-22.08,27.84-25.84,33.48-7.7,43.14-8.48l37.26-3s22.5,3.06,22.5-6.12a8.1,8.1,0,0,0,3.66-5.22c.78-3.66,2.46-11.94,2.46-11.94s-.36-4.92-7-8-27.18-8.7-51.9-8.34-66.24,8.16-71.76,11.16-8,4.68-8.94,6.72-8.58,15-8,15.75-8.32,10.66-8.32,10.66-.75,3.94-6.43,10.5-5.26,17-7.12,18.85C56,110.14,42.51,120.39,38,123.39"/><path class="cls-1" d="M96.83,68s10-2.28,27.08-4.76,68.56-5.8,85-2.32,16.64,3.92,16.64,3.92"/><path class="cls-1" d="M91.29,49.18s51-15.24,83.22-12.84C211.86,39.13,230,45,230,45"/><path class="cls-1" d="M106,208.37s-47,2.9-66.84-12.79c-12.84-10.08-20.84-17.28-17-50.16,0,0-1.56-4.32,1.2-11.28.6-4.92,4-39.6,4-39.6S29.19,82.06,39.11,81.9a19.15,19.15,0,0,1,15,6.32s7.18,9.85,6.91,17"/><circle class="cls-1" cx="40.79" cy="141.74" r="18.56"/><circle class="cls-1" cx="43.05" cy="104.08" r="4.8"/><circle class="cls-1" cx="32.37" cy="165.1" r="4.8"/><circle class="cls-1" cx="96.21" cy="196.79" r="4.8"/><circle class="cls-1" cx="178.78" cy="187.18" r="4.8"/><path class="cls-1" d="M82,58.55S83.32,75,80.5,82.6"/><path class="cls-1" d="M222.26,204s35.9.3,52.7,4c17.2,3.82,20.64-.6,20.64-.6s10.56-30.24,7.92-46.56c-7.32-34.08-38.08-46.35-38.08-46.35-62.08-24.65-176,0-176,0L66.51,135l38.6,73.49Z"/><path class="cls-2" d="M303.79,163.16c-8.13,5.74-55-8.38-93.82-10.06S68.55,170.71,68.55,170.71"/><path class="cls-2" d="M303.79,163.16c-13.2-25-70.59-21.42-70.59-21.42-16.08.88-173.85,7.76-173.85,7.76"/><path class="cls-1" d="M82.25,123.38s116.79-3.56,121-4,50.29-11.4,67.31-2.26"/><line class="cls-3" x1="111.35" y1="122.48" x2="105.99" y2="147.46"/><line class="cls-3" x1="156.87" y1="121.04" x2="155.67" y2="145.27"/><line class="cls-3" x1="202.74" y1="119.38" x2="206.36" y2="143.01"/><path class="cls-2" d="M52.41,42.44l10.3,61.19C65.36,78,56.88,53.85,56.08,51,55.9,50.32,54.5,47.1,52.41,42.44Z"/><path class="cls-2" d="M45.43,14.87c-1.81.18-3.61.31-5.42.42C44.5,25,49.24,35.37,52.41,42.44L47.73,14.61C47,14.71,46.2,14.8,45.43,14.87Z"/><path class="cls-1" d="M53.21,26.82,72.76,92.1c1.09-8.44-3.61-35.6-7.33-42.92C63.73,45.85,58.67,36.75,53.21,26.82Z"/><path class="cls-1" d="M46.61,14.74c2.14,4,4.4,8.08,6.6,12.08L49.48,14.35C48.54,14.5,47.58,14.63,46.61,14.74Z"/><path class="cls-1" d="M75.65,42.74c-3.54-7.81-8.26-19.66-13.17-33.18a27.42,27.42,0,0,1-5,2.63L67.83,56S79.59,51.46,75.65,42.74Z"/><path class="cls-1" d="M96.21,44.74s8.74-11.55,18.34-14.6c34-10.8,68.33-8.87,93.6-4.48,2.84,3.56-1.35,4.89-1.35,4.89s-13.36-.13-14.73,1.73"/><path class="cls-1" d="M112.42,31a4.16,4.16,0,0,1-4.62-2.59c-1.5-3.3-4-10.68-4-10.68s-1.92-4.92,5.82-7.5,34.2-9.6,58-9.12,36.74,2.16,41.59,5.76,1.67,16.5,1.67,16.5-.26,2.74-2.72,2.32"/><path class="cls-1" d="M103.56,15.66c0,.27,27.86-10,54.15-11.28S210,11.26,211.22,10"/><path class="cls-1" d="M113.63,122.32s88.54-30.5,123-8.21"/><path class="cls-1" d="M108.67,147.46s108.46,3.63,126.46-5.72"/><path class="cls-4" d="M143.93,215.68c-.56-1.84.24-6,.6-7.12s.92-2.48,2.88-2.56,2.32,2.56,2.32,2.56-.08,6.92-1.12,8"/><path class="cls-5" d="M103.78,208.58s26.45,3.87,33.72,9.51c4.59,2.22,10.68,1.92,23.52,2s24.36-.84,24.36-.84,4.32,0,6.24-2.68,16.31-7.89,16.31-7.89,10.65-4.27,14.25-4.63"/><circle class="cls-4" cx="167.66" cy="213.72" r="3.52"/><path class="cls-6" d="M41.93,197.62s4,12.85,10.84,15.25,52.24-4.4,52.24-4.4,50.5-5.36,60.73-7.76,34.39-1.36,29.11-19-38.32-14.56-38.32-14.56-58.28,13.17-78.2,7.68-23.4-20.51-23.4-20.51,32.52-35.52,39-46.08,15.44-22.08,27.84-25.84,33.48-7.7,43.14-8.48l37.26-3s22.5,3.06,22.5-6.12a8.1,8.1,0,0,0,3.66-5.22c.78-3.66,2.46-11.94,2.46-11.94s-.36-4.92-7-8-27.18-8.7-51.9-8.34-66.24,8.16-71.76,11.16-8,4.68-8.94,6.72,3.42,16.08,4,16.86a25.7,25.7,0,0,0,1.92,2.1S84.91,77.9,79.23,84.46s-16.07,18.68-17.92,20.48c-5.36,5.2-18.87,15.45-23.43,18.45"/><path class="cls-6" d="M96.77,68s10-2.28,27.08-4.76,68.56-5.8,85-2.32,16.64,3.92,16.64,3.92"/><path class="cls-7" d="M91.23,49.18s51-15.24,83.22-12.84C211.8,39.13,229.89,45,229.89,45"/><path class="cls-6" d="M105.93,208.37s-47,2.9-66.84-12.79c-12.84-10.08-20.84-17.28-17-50.16,0,0-1.56-4.32,1.2-11.28.6-4.92,4-39.6,4-39.6S29.13,82.06,39.05,81.9a19.15,19.15,0,0,1,15,6.32s7.18,9.85,6.91,17"/><circle class="cls-6" cx="40.73" cy="141.74" r="18.56"/><circle class="cls-7" cx="42.99" cy="104.08" r="4.8"/><circle class="cls-7" cx="32.31" cy="165.1" r="4.8"/><circle class="cls-7" cx="96.15" cy="196.79" r="4.8"/><circle class="cls-7" cx="178.71" cy="187.18" r="4.8"/><path class="cls-8" d="M81.93,58.55s1.28,16.43-1.54,24"/><path class="cls-9" d="M89.38,114.55s113.91-24.65,176,0c0,0,30.76,12.27,38.08,46.35,2.64,16.32-7.92,46.56-7.92,46.56s-3.44,4.42-20.64.6c-16.8-3.73-115.4-6.22-115.4-6.22"/><path class="cls-9" d="M303.72,163.16c-8.13,5.74-55-8.38-93.82-10.06S68.48,170.71,68.48,170.71"/><path class="cls-10" d="M303.72,163.16c-13.2-25-70.59-21.42-70.59-21.42-16.08.88-173.85,7.76-173.85,7.76"/><path class="cls-11" d="M82.18,123.38s116.75-3.56,121-4.06,50.29-11.4,67.31-2.26"/><line class="cls-11" x1="111.28" y1="122.48" x2="105.92" y2="147.46"/><line class="cls-11" x1="156.8" y1="121.04" x2="155.61" y2="145.27"/><line class="cls-11" x1="202.68" y1="119.38" x2="206.3" y2="143.01"/><path class="cls-9" d="M40.73,17c13.2,27.22,24.2,55.22,21.91,86.64"/><path class="cls-11" d="M60.71,12.85A296.52,296.52,0,0,1,82,59.11"/><path class="cls-11" d="M72.69,92.1c2.24-27.89-11.76-52.89-25.1-75.45"/><path class="cls-11" d="M67.76,56s6.68-3.75,7.82-13.25"/><path class="cls-8" d="M64.92,10.92c7,15.29,15,31.29,17.09,48.18"/><path class="cls-6" d="M96.15,44.74s8.74-11.55,18.34-14.6c34-10.8,68.33-8.87,93.6-4.48,2.84,3.56-1.35,4.89-1.35,4.89s-13.36-.13-14.73,1.73"/><path class="cls-6" d="M112.35,31a4.15,4.15,0,0,1-4.62-2.63c-1.5-3.3-4-10.68-4-10.68s-1.92-4.92,5.82-7.5,34.2-9.6,58-9.12,36.74,2.16,41.59,5.76,1.67,16.54,1.67,16.54-.26,2.74-2.72,2.32"/><path class="cls-7" d="M103.5,15.66c0,.27,27.86-10,54.15-11.28S210,11.26,211.16,10"/><path class="cls-8" d="M47.11,16.56C61.93,39.21,72.93,65.21,72.73,92.15"/><path class="cls-9" d="M55.73,154.7s97.44-3.2,105.38-5.12S278.81,143,303,163.16"/><path class="cls-8" d="M86.3,118.41s96-3.59,115.31-5,48.68-4.14,60.86,0"/><path class="cls-9" d="M25,180.49c-6.11-.47-9.41-6.59-10.33-12-1.1-6.46.08-13.19,1.08-19.59,1.1-7,2.43-14,3.69-21,2.55-14.15,5.39-28.63,5.19-43.06C24.46,73.18,20.4,62,16.33,51.24,12,39.63,7,28.23,1.75,17l-1-2.29L40,15.29,66.25,6.56l1.21,2.28c8.23,15.36,14,33.09,14.59,50.61a31.16,31.16,0,0,0,9.1-9.3"/></g></g></svg>