<svg xmlns="http://www.w3.org/2000/svg" xmlns:xlink="http://www.w3.org/1999/xlink" viewBox="0 0 300 300"><defs><clipPath id="clip-path"><rect x="-0.41" y="313.33" width="300.41" height="300.41" style="fill:none"/></clipPath><clipPath id="clip-path-2"><rect x="346.56" y="318.33" width="299.67" height="299.67" transform="translate(992.79 936.33) rotate(-180)" style="fill:none"/></clipPath><clipPath id="clip-path-3"><rect x="-0.44" y="0.04" width="299.96" height="299.96" transform="translate(299.08 300.04) rotate(-180)" style="fill:none"/></clipPath></defs><title>braco mizano esquerdo</title><g id="Camada_4" data-name="Camada 4"><g style="clip-path:url(#clip-path)"><path d="M178.09,115.92s8.45,2.14,9.59,3C187.05,119.07,180.36,119.58,178.09,115.92Z" style="fill:#fff;opacity:0.5"/><g style="opacity:0.5"><polyline points="79.45 180 159.17 140.64 241.92 183.78" style="fill:none;stroke:#000;stroke-miterlimit:10;stroke-width:1.1719891802188656px"/><polyline points="84.24 245.84 170.15 203.84 249.36 245.09" style="fill:none;stroke:#000;stroke-miterlimit:10;stroke-width:1.1719891802188656px"/><polyline points="102.28 303.87 178.72 266.41 234.6 295.67" style="fill:none;stroke:#000;stroke-miterlimit:10;stroke-width:1.1719891802188656px"/><path d="M105.44,46.92c-6.06-.25-9.09-.63-12.62,4.29S85.25,66,83.23,71.64A161.3,161.3,0,0,1,74.4,92.2s4.55,18.55,3.79,25.48a11.9,11.9,0,0,0,6.18,3.66c2.14.51,6.68.51,9,.51,7.19,0,12,.37,19.17.25,2.9,0,5.8-.13,8.7-.13a4.79,4.79,0,0,0,2.4-.38,1.85,1.85,0,0,0,1.13-2" style="fill:#fff;stroke:#000;stroke-miterlimit:10;stroke-width:2.344104523788103px"/><path d="M105.94,56.38c-3.28-1-5.3-.76-7.82,1.64s-4.79,8.45-6.06,11.6c-4.54,11.1-8.45,21.07-11.6,32.67a11.07,11.07,0,0,0-.51,4.92c.51,2.53,2.78,4.29,5.18,5.05s10.72.88,15,.63" style="fill:none;stroke:#000;stroke-miterlimit:10;stroke-width:2.344104523788103px"/><path d="M190.83,119.7a25.37,25.37,0,0,1-5.42.51,11.57,11.57,0,0,1-5.8-1.39,5.85,5.85,0,0,1-2.27-2,3.24,3.24,0,0,1-.51-2.4c-1.64-.25-9-1-9-1a49.63,49.63,0,0,0,2.64,7.19,15.16,15.16,0,0,0,5,6.18,16.23,16.23,0,0,0,8.45,2.52,40.48,40.48,0,0,0,8.83-.76l-2-8.83" style="fill:#fff;stroke:#000;stroke-miterlimit:10;stroke-width:2.344104523788103px"/><path d="M92.44,113.14c3.28,12.11,20.19,77.71,46.8,205.49l18.42-1.89S116.28,119.2,109.72,111.12c-3.78-.75-11.73-.37-15.64-.12A1.69,1.69,0,0,0,92.44,113.14Z" style="fill:#fff;stroke:#000;stroke-miterlimit:10;stroke-width:2.344104523788103px"/><path d="M190.71,118.82s45.79,179.25,46.67,194.51l15.26-1.13S212.91,133.7,209.5,129,190.71,118.82,190.71,118.82Z" style="fill:#fff;stroke:#000;stroke-miterlimit:10;stroke-width:2.344104523788103px"/><path d="M57,52.34c13.12,18,18.92,40.37,21.06,62.44s.76,44.4,1.14,66.73c.38,30.65,3.78,61.31,11.85,90.82,9.84,36.08,26.62,70.27,34.44,106.85s2.4,82.62-33.93,105.45" style="fill:none;stroke:#000;stroke-miterlimit:10;stroke-width:2.344104523788103px"/><path d="M89.67-62.45C70.49-16.53,68.48,13.11,53.46,60.42c-9,28.38-25.22,40.49-24.34,70.26,1.13,38,11.6,100.66,28.63,134.59s36,67.61,44,104.7S109.09,459.28,74,479.21" style="fill:none;stroke:#000;stroke-miterlimit:10;stroke-width:2.344104523788103px"/><path d="M246.21,77.07c-9.59,25.48-10.6,53.73-6.81,80.73,14.88,108.73,14,203.09,25,304.25,18.55-1.64,36.21-6.81,55.13-12.61" style="fill:none;stroke:#000;stroke-miterlimit:10;stroke-width:2.344104523788103px"/><path d="M330.85,569.9c-1.39,0-2.65.13-4,.13-33.81.51-67.49-4.29-101-7.19-14.76-1.26-25.61-3.41-40.5-4.16-15.39-.76-64.83-7.7-80.1-10.09-13.24-2-16.77.12-24.34-.63-18.8-2.27-20.19-2.65-41.76-6.06-5.92-1-15.39-2-22.45-5.42a90.94,90.94,0,0,1-3.53-12.74c-.51-20.69-1.77-43.27-.51-71.4,2.15-6.31,9-22.45,11.23-28.38-1.26-12.74-2-25.1-4.16-49.45.88-7.69,2-18.16,3.53-31.54,2-3.4,3-4.41,4.79-7.69,1.39-4.54,1.64-11.35,1.64-16.15.38-28.5,2.27-46.92-.5-73.79-3.28-32-2.9-56.64-7.32-96.63-1.89-17.28-1-34.68,4.42-51.08s13.12-32,18.92-48.44C55.86,18.41,60-14.77,75.29-43.53c5.3-10,12.36-19.8,22.83-24.09,7.06-2.9,14.88-3,22.45-3,13.63-.12,27.5-.12,41,2.15s26.74,7.31,37.08,16.27c11.74,10.09,18.93,24.47,22.84,39.36a238.47,238.47,0,0,1,7.06,46.29c1.26,22.33,15.26,41.88,32.29,56.39,12,10.21,26.37,17.53,38.73,27.37S323,140.26,324.42,156c1.26,15.14-6.43,29.39-11.73,43.65-15,40.36-11,87.29,10.85,124.37,14.25,24.22,23.33,52,24,80.1.25,9.09-.5,18.55-5.17,26.37-5.17,8.57-14.13,13.87-22.83,18.79.5,2.9,1.13,5.68,1.64,8.58a270,270,0,0,0,46.17,2.4c26.11-21.45,59-35.07,92.71-39.11,6.56-.75,13.12-1.13,19.55-.12s12.87,3.4,17.66,7.82c4.54,4,21.95,36.45,20.56,47.05,5.3,3,6.31,4,7.83,7.44a45.09,45.09,0,0,1-4,43.52c2,6.43-2.27,13.88-8,17.53S501.14,549,494.46,550l-97.89,13.25C374.88,566.25,352.93,569.27,330.85,569.9Z" style="fill:none;stroke:#000;stroke-miterlimit:10;stroke-width:4.029745830522751px"/><path d="M166,30.52c-16.52-5.3-32.54-12.61-49.57-16.15-4.67-1-10.47-1.26-13.37,2.65-1.77,2.53-1.77,5.8-1.39,8.83,1.89,20.69,9.46,41.63,4.42,61.81-2.15,8.45-6.56,16.78-5.43,25.48.38,3.28,1.77,6.69,4.67,8.33,3.4,1.89,7.69.75,11.48-.51,14.38-4.54,29.26-8.07,44.27-8.07s30.4,4.16,42.26,13.5a63.17,63.17,0,0,0,7.32,5.55c2.65,1.51,5.93,2.27,8.83,1.13,3.53-1.26,5.55-5,6.18-8.7s-.13-7.44-.38-11.1c-2.14-23.59,7.44-46.55,13.37-69.51.63-2.14,1-4.66-.25-6.55-.88-1.39-2.52-2-4-2.53-4.41-1.51-20.18-.25-23.33.51-9.46,2-19.43,1.26-28.89-.63A104.81,104.81,0,0,1,166,30.52Z" style="fill:#fff;stroke:#000;stroke-miterlimit:10;stroke-width:2.344104523788103px"/><path d="M112.25,14.25a261.61,261.61,0,0,1,10.34,32c1.39,5.17,3.28,17.4,3.91,22.7,1.14,9.09.38,18.29-.38,27.5-.63,6.44-3.66,18-6.43,24" style="fill:none;stroke:#000;stroke-miterlimit:10;stroke-width:1.1719891802188656px"/><path d="M139.87,21.31c4.8,12.36,4.67,13.37,7.7,25,1.38,5.17,3.28,17.4,3.91,22.7,1.13,9.09.38,18.29-.38,27.5-.63,6.44-.25,10.6-3,16.53" style="fill:none;stroke:#000;stroke-miterlimit:10;stroke-width:1.1719891802188656px"/><path d="M225,34.43c4.79,9.08,5.3,19.93,3.4,30.15s-1.89,17-5.92,26.36c-1,2.27-2.53,5.68-4.29,9a69.07,69.07,0,0,1-6.18,9.84c-6.19,8.2-7.95,10.72-11.48,13.75" style="fill:none;stroke:#000;stroke-miterlimit:10;stroke-width:1.1719891802188656px"/></g><path d="M206.73,36.07c6.68,27.62,10,47.68-21.19,80.73" style="fill:none;stroke:#000;stroke-miterlimit:10;stroke-width:1.1719891802188656px;opacity:0.5"/><path d="M73.27,90.31c-5.43,15.14-10.85,30.53-12.74,46.55C57,165.24,81.34,248.37,91.18,272.21" style="fill:none;stroke:#000;stroke-miterlimit:10;stroke-width:1.1719891802188656px;opacity:0.5"/><path d="M240.41,97.63c16.4,18.67,44.4,26,56,47.93,7.7,14.51,6.19,32.29,1.52,48.06s-11.86,30.78-15.39,46.8A102,102,0,0,0,289,303.11c6.94,15.77,17.91,29.52,24,45.67a82.1,82.1,0,0,1-47.81,105.45" style="fill:none;stroke:#000;stroke-miterlimit:10;stroke-width:1.1719891802188656px;opacity:0.5"/></g></g><g id="Camada_5" data-name="Camada 5"><g id="braco_jaguar_esquerdo" data-name="braco jaguar esquerdo"><g style="clip-path:url(#clip-path-2)"><g style="opacity:0.5"><path d="M250.23,567.6l-97.65-13.21c-6.67-1-13.46-1.89-19.12-5.54s-9.94-11.07-7.93-17.49a45,45,0,0,1-4-43.41c1.51-3.4,2.52-4.4,7.8-7.42-1.38-10.57,16-42.91,20.51-46.94,4.79-4.4,11.2-6.79,17.62-7.8s13-.63,19.5.13c33.6,4,66.44,17.61,92.49,39a267.64,267.64,0,0,0,46.05-2.39c.51-2.89,1.14-5.66,1.64-8.55-8.68-4.91-17.62-10.2-22.78-18.75-4.65-7.8-5.41-17.24-5.16-26.3.63-28.06,9.69-55.74,23.91-79.9,21.77-37,25.8-83.81,10.82-124.07-5.28-14.22-13-28.44-11.7-43.54,1.39-15.73,12.33-29.07,24.79-38.76s26.68-17.11,38.63-27.3c17-14.47,30.95-34,32.21-56.25a238.23,238.23,0,0,1,7.05-46.18c3.9-14.84,11.07-29.19,22.77-39.25,10.32-8.94,23.53-14,37-16.24s27.3-2.26,40.89-2.14c7.55,0,15.35.13,22.4,3,10.44,4.28,17.49,14.1,22.78,24,15.22,28.69,19.37,61.78,30.07,92.48,5.79,16.36,13.46,31.84,18.87,48.32s6.3,33.72,4.41,51c-4.41,39.89-4,64.43-7.3,96.39-2.77,26.8-.88,45.17-.5,73.61,0,4.78.25,11.58,1.63,16.11,1.76,3.27,2.77,4.27,4.78,7.67,1.51,13.34,2.65,23.78,3.53,31.46-2.14,24.28-2.9,36.61-4.16,49.32,2.27,5.92,9.06,22,11.2,28.32,1.26,28.06,0,50.58-.5,71.22a91.78,91.78,0,0,1-3.52,12.7c-7.05,3.4-16.49,4.41-22.4,5.41-21.52,3.4-22.9,3.78-41.65,6-7.55.76-11.07-1.38-24.29.63-15.22,2.39-64.55,9.32-79.9,10.07-14.85.76-25.67,2.89-40.39,4.15-33.47,2.9-67.07,7.68-100.79,7.17-1.38,0-2.64-.12-4-.12C293.76,573.64,271.87,570.62,250.23,567.6Z" style="fill:none;stroke:#000;stroke-miterlimit:10;stroke-width:4.0197674274362445px"/></g></g></g></g><g id="Camada_7" data-name="Camada 7"><g id="Braco_mizano_esquerdo" data-name="Braco mizano esquerdo"><g style="clip-path:url(#clip-path-3)"><g style="opacity:0.5"><g id="Camada_1-2" data-name="Camada 1-2"><polyline points="2.93 283.08 1.67 281.57 3.81 280.56 1.8 279.05 4.19 278.05 2.05 276.16 4.57 275.15 2.3 273.26 4.69 272.38 2.43 270.74 5.32 269.73 2.55 267.84 5.45 267.21 2.93 265.32 4.07 264.06" style="fill:none;stroke:#000;stroke-miterlimit:10;stroke-width:1.170235226853059px"/><polyline points="36.56 285.6 37.95 284.6 35.93 283.59 38.45 282.08 36.18 280.69 38.7 279.56 36.44 278.05 38.95 277.16 36.56 275.53 39.08 274.64 36.81 273.13 39.33 272.38 36.94 270.99 39.46 270.11" style="fill:none;stroke:#000;stroke-miterlimit:10;stroke-width:2.6824345715685083px"/><line x1="39.46" y1="270.11" x2="3.06" y2="265.45" style="fill:none;stroke:#000;stroke-miterlimit:10;stroke-width:1.170235226853059px"/><line x1="39.08" y1="272.5" x2="2.55" y2="267.84" style="fill:none;stroke:#000;stroke-miterlimit:10;stroke-width:1.170235226853059px"/><line x1="38.32" y1="274.65" x2="2.8" y2="270.74" style="fill:none;stroke:#000;stroke-miterlimit:10;stroke-width:1.170235226853059px"/><line x1="38.45" y1="277.04" x2="2.43" y2="273.13" style="fill:none;stroke:#000;stroke-miterlimit:10;stroke-width:1.170235226853059px"/><line x1="38.2" y1="279.68" x2="2.05" y2="276.16" style="fill:none;stroke:#000;stroke-miterlimit:10;stroke-width:1.170235226853059px"/><line x1="37.95" y1="282.2" x2="2.05" y2="279.05" style="fill:none;stroke:#000;stroke-miterlimit:10;stroke-width:1.170235226853059px"/><line x1="37.57" y1="284.34" x2="1.67" y2="281.57" style="fill:none;stroke:#000;stroke-miterlimit:10;stroke-width:2.3405964282453326px"/><path d="M37.06,313.19a38.28,38.28,0,0,1-19.64,4.53,38.89,38.89,0,0,1-19.15-7.43L.16,283.21,39,285.6Z" style="fill:#fff;stroke:#000;stroke-miterlimit:10;stroke-width:2.3405964282453326px"/><line x1="75.86" y1="311.55" x2="75.86" y2="284.34" style="fill:none;stroke:#000;stroke-miterlimit:10;stroke-width:2.3405964282453326px"/><path d="M46.13,282s-5.41,0-6.42,2.52,10.83,3.4,16.88,3.4,19.65-1.39,19.27-3.4-6.8-2.52-6.8-2.52" style="fill:#fff;stroke:#000;stroke-miterlimit:10;stroke-width:2.3405964282453326px"/><path d="M46,273.26v11c10.07,2.89,22.92,0,22.92,0V272.13" style="fill:#fff;stroke:#000;stroke-miterlimit:10;stroke-width:2.3405964282453326px"/><path d="M13.89,262.43s76.07-1.14,79-1.64S98,255.5,98,255.5" style="fill:#fff;stroke:#000;stroke-miterlimit:10;stroke-width:2.3405964282453326px"/><path d="M36.56,269.48H55.33c3.27,0,10.58-.75,10.58-.75s7.81-1.39,16.12-3.28c7-1.64,10.33-4.66,10.33-4.66" style="fill:none;stroke:#000;stroke-miterlimit:10;stroke-width:2.3405964282453326px"/><path d="M1.67,261.92c4.16,1.52,44.46,9.7,48.75,10.71,1.38,0,15.11-.5,17.75-1S79.51,266,79.51,266" style="fill:none;stroke:#000;stroke-miterlimit:10;stroke-width:2.3405964282453326px"/><path d="M44.87,271.5a5.42,5.42,0,0,0,2.65,2.89c1.26.38,18.64.13,20.28-.63a2.35,2.35,0,0,0,1.38-2.39" style="fill:none;stroke:#000;stroke-miterlimit:10;stroke-width:4.02371506984502px"/></g></g><path d="M-89,255.63l-97.74-13.23c-6.67-1-13.47-1.89-19.14-5.54s-9.95-11.08-7.94-17.51a45,45,0,0,1-4-43.45c1.52-3.4,2.52-4.41,7.81-7.43-1.38-10.58,16-42.95,20.53-47,4.79-4.41,11.21-6.81,17.64-7.81s13-.63,19.52.12c33.63,4,66.5,17.64,92.58,39.05a269.33,269.33,0,0,0,46.1-2.39c.5-2.9,1.13-5.67,1.63-8.57-8.69-4.91-17.63-10.2-22.8-18.77-4.66-7.81-5.41-17.25-5.16-26.32.63-28.09,9.7-55.8,23.93-80C5.7-20.21,9.73-67.07-5.26-107.37c-5.29-14.23-13-28.47-11.71-43.58,1.39-15.75,12.34-29.1,24.81-38.8s26.71-17.13,38.67-27.33c17-14.48,32.25-34.51,33.5-56.8.89-15.37,1.89-30.86,5.8-45.72s11.08-29.23,22.8-39.3c10.32-8.94,23.55-14,37-16.25s27.33-2.27,40.93-2.14c7.56,0,15.37.13,22.42,3,10.46,4.28,17.51,14.11,22.8,24.06,15.24,28.72,19.4,61.84,30.1,92.58,5.8,16.37,13.48,31.86,18.89,48.36s6.3,33.76,4.41,51c-4.41,39.93-4,64.49-7.3,96.48-2.77,26.83-.88,45.22-.51,73.69,0,4.78.26,11.58,1.64,16.12,1.76,3.27,2.77,4.28,4.79,7.68,1.51,13.35,2.64,23.81,3.52,31.49-2.14,24.31-2.89,36.65-4.15,49.37,2.26,5.92,9.07,22.05,11.21,28.34,1.26,28.09,0,50.64-.51,71.29a90.2,90.2,0,0,1-3.52,12.72c-7.06,3.4-16.5,4.41-22.42,5.42-21.54,3.4-22.93,3.78-41.69,6-7.56.75-11.09-1.39-24.31.63-15.24,2.39-64.62,9.32-80,10.07-14.87.76-25.7,2.9-40.43,4.16-33.51,2.9-67.14,7.68-100.89,7.18-1.39,0-2.65-.13-4-.13C-45.44,261.67-67.35,258.65-89,255.63Z" style="fill:none;stroke:#000;stroke-miterlimit:10;stroke-width:4.02371506984502px;opacity:0.5"/><path d="M224.11,182.2C180,192.9,166,145.92,144.5,138.36S98.66,130.93,77.75,140c-27,11.71-46.1,37.16-56.68,64.62-4.41,11.46-7.56,23.42-13.6,34s-15.75,20-27.84,21.92" style="fill:none;stroke:#000;stroke-miterlimit:10;stroke-width:4.02371506984502px;opacity:0.5"/><path d="M42.61,167c-9.2,1.26-18.39,2.65-27.46,4.29-6.43,1.13-12.85,2.39-18.52,5.67-8.81,5.16-14.23,14.86-16.37,24.93s-1.51,20.41-.5,30.61,2,20.41.75,30.61" style="fill:none;stroke:#000;stroke-miterlimit:10;stroke-width:2.3405964282453326px;opacity:0.5"/><path d="M233.05,171.74c-35-19.9-35.77-72-27.71-109.07S232.29-8,249.3-41.88s27.45-96.48,28.59-134.39c.88-29.72-15.37-41.82-24.31-70.15-15-47.24-17-76.84-36.15-122.68" style="fill:none;stroke:#000;stroke-miterlimit:10;stroke-width:2.3405964282453326px;opacity:0.5"/><path d="M225.11,182.2C176.62,159.78,174,108.51,181.66,71.86S206.22,1.2,216-34.82c8.07-29.48,11.47-60.08,11.84-90.69.38-22.29-1-44.59,1.14-66.63s7.93-44.33,21-62.35" style="fill:none;stroke:#000;stroke-miterlimit:10;stroke-width:2.3405964282453326px;opacity:0.5"/><path d="M40.09,154.61c4.53.25,9.19.25,13.73.13" style="fill:none;stroke:#000;stroke-miterlimit:10;stroke-width:2.3405964282453326px;opacity:0.5"/><path d="M-14.95,150.58c10.32-.63,44.84,3.53,55,4" style="fill:none;stroke:#000;stroke-miterlimit:10;stroke-width:2.3405964282453326px;opacity:0.5"/><path d="M200.17,240.26c-2.77-1.89-7-7.18-6.55-10.58s11.21-27,13.61-29.35c21.16-21.41,29.6-27.33,35.89-55.79,3-13.86,4.16-25.2,5.42-39.3A489.13,489.13,0,0,1,262.4,25.38c3.9.38,10.7.63,15,.76" style="fill:none;stroke:#000;stroke-miterlimit:10;stroke-width:2.3405964282453326px;opacity:0.5"/><polyline points="276.38 33.7 269.2 26.89 259.12 110.02 271.59 138.11 271.59 142.77 277.38 149.7 275.87 165.69 278.01 185.22 284.31 187.74 293.63 163.18" style="fill:none;stroke:#000;stroke-miterlimit:10;stroke-width:2.3405964282453326px;opacity:0.5"/><polyline points="283.81 35.71 276.38 33.7 268.06 114.43 282.04 116.45" style="fill:none;stroke:#000;stroke-miterlimit:10;stroke-width:1.170235226853059px;opacity:0.5"/><line x1="268.06" y1="114.43" x2="259.12" y2="110.02" style="fill:none;stroke:#000;stroke-miterlimit:10;stroke-width:1.170235226853059px;opacity:0.5"/><polyline points="271.59 138.11 279.15 142.14 294.39 144.91" style="fill:none;stroke:#000;stroke-miterlimit:10;stroke-width:1.170235226853059px;opacity:0.5"/><line x1="278.01" y1="150.33" x2="279.15" y2="142.14" style="fill:none;stroke:#000;stroke-miterlimit:10;stroke-width:1.170235226853059px;opacity:0.5"/><line x1="245.39" y1="138.11" x2="271.59" y2="139.5" style="fill:none;stroke:#000;stroke-miterlimit:10;stroke-width:1.170235226853059px;opacity:0.5"/><path d="M293.51,217.71,236.07,229.3a132.09,132.09,0,0,1,.5-16.5c1.26-2.14,21.29-14.61,25.7-23.68,5-10.33,5.29-22.54,10.2-33,1-2.14,2.39-4.28,4.54-5" style="fill:none;stroke:#000;stroke-miterlimit:10;stroke-width:1.170235226853059px;opacity:0.5"/><polyline points="230.4 202.1 220.71 230.81 226.25 239.13 236.2 229.3" style="fill:none;stroke:#000;stroke-miterlimit:10;stroke-width:1.170235226853059px;opacity:0.5"/><polyline points="236.07 226.28 220.71 230.81 193.75 229.68" style="fill:none;stroke:#000;stroke-miterlimit:10;stroke-width:1.170235226853059px;opacity:0.5"/><path d="M206.22,202.1l24.18.37c3,0,21-16.5,25.19-31.23,1.64-6.05,2.4-12.35,4.66-18.27s6.43-11.46,12.35-13.35" style="fill:none;stroke:#000;stroke-miterlimit:10;stroke-width:1.170235226853059px;opacity:0.5"/><path d="M45,135.09c-11.46-3-17.51-3.53-27.71-7.56S-3.24,117.08-6.52,106.62C-9.29,98.18-6.64,89-4,80.55,18.68,7.25,41.47-66.06,66.54-138.61" style="fill:none;stroke:#000;stroke-miterlimit:10;stroke-width:2.3405964282453326px;opacity:0.5"/><path d="M74.47,6.49C71.2-36.08,67.67-80.67,64.4-123.24" style="fill:none;stroke:#000;stroke-miterlimit:10;stroke-width:1.170235226853059px;opacity:0.5"/><path d="M196.65,179.05a22.86,22.86,0,0,0,6.93,3.65" style="fill:none;stroke:#000;stroke-miterlimit:10;stroke-width:1.170235226853059px;opacity:0.5"/><path d="M187.83,50.07c.63-11.34,2.9-22.8,3.53-34.13-36.53-9.83-69-6.43-106.06-8.69C72.71,6.49,54.57,3.59,42,5.23S17.42,15.43,11.5,26.64C7.72,33.82,7.21,42.26,6.71,50.32,6.08,60.27,5.58,70.1,5,79.92c-.38,5.67-.76,11.59.63,17.13,3.27,13.6,15.87,23,29.22,27s27.58,3.15,41.44,2.9a543.52,543.52,0,0,1,91.56,6.17c3.41.51,7.81.63,9.45-2.52a9,9,0,0,0,.63-3.65c1-27.2,1.89-34.76,7.68-62.85Z" style="fill:none;stroke:#848484;stroke-miterlimit:10;stroke-width:2.3405964282453326px"/><path d="M176,131.31c-3.4-.38-6.17-3.27-7.3-6.68s-1-6.92-.89-10.45c.63-15.62,1.14-31.36,1.64-47,.38-8.31.63-16.63,2.9-24.69a47.89,47.89,0,0,1,18.89-26.45" style="fill:none;stroke:#848484;stroke-miterlimit:10;stroke-width:2.3405964282453326px"/><path d="M99.41,127c10.83-1.64,20.41-10.46,25.82-20s7.81-20.66,10.2-31.36c2.27-10.46,4.66-21,6.93-31.49,1.39-6.3,2.77-12.6,5.29-18.52s6.43-11.46,11.84-15" style="fill:none;stroke:#848484;stroke-miterlimit:10;stroke-width:2.3405964282453326px"/><path d="M79,127.15c-8.69-3.52-13.35-6.55-21.29-11.58s-15.24-11.34-20.4-19.15C32,88.23,29.13,78.66,27.24,69.09c-2.27-11.84-3-24.18.13-35.77S37.82,10.9,48.53,5.48" style="fill:none;stroke:#848484;stroke-miterlimit:10;stroke-width:2.3405964282453326px"/><path d="M225.37,52.34a74.24,74.24,0,0,0-14.49-1.26c-21.29-.88-42.95-1.14-64.24-.51-24,.76-43.45.76-64.61,3.4-3.65.51-6.55.89-9.32,2-3.4,1.39-4.41,4.79-4.28,8.44.12,4.41,2.26,9.19,6.55,9.45,3.15.12,8.56.25,12.84.12,49.5-1.26,81-1.51,126.21-3.4,3.78-.13,9.82.63,14-.88,3.53-1.39,4-4.28,4.16-9.32A7.94,7.94,0,0,0,225.37,52.34Z" style="fill:#fff;stroke:#000;stroke-miterlimit:10;stroke-width:2.3405964282453326px"/><path d="M231.28,56.62c-30.6-.88-55.92-1.64-87.41-.25-26.2,1.13-56.17,3.52-74.06,2.26" style="fill:none;stroke:#000;stroke-miterlimit:10;stroke-width:2.3405964282453326px"/><path d="M105.71,73.5c4.41,11.71,9.82,15.74,13,28.34a236.21,236.21,0,0,1,6.55,38.66c1.77,23.31,7.31,71,10.2,94.22a39,39,0,0,1,4,.38,17.45,17.45,0,0,1-.25,3.4,12.1,12.1,0,0,1-2.77.37c.63,12.47,1.26,22.55,3.91,31,14.73,2.64,25.94,1.38,37.91-1.13-1.14-9.58-1.64-20.53-2.77-30.11a42.64,42.64,0,0,1-4.66-.38c-.25-1-.38-2.26-.63-3.52,1.63,0,3.27-.13,4.91-.13q-6.8-52.71-13.35-105.42c-2.52-19.4-3.78-37.91,4.28-57.06C152.94,72.49,123.47,73.12,105.71,73.5Z" style="fill:#fff;stroke:#000;stroke-miterlimit:10;stroke-width:2.3405964282453326px"/><path d="M153.82,78.66a103.37,103.37,0,0,0-12.34.63,6.76,6.76,0,0,0-3.4,1.39c-1.64,1.38-.13,2.64,1.38,2.89a87.29,87.29,0,0,0,18.14-.12c1.64-.13,3.65-.38,4.54-1.89a1.73,1.73,0,0,0-.26-2.14,1.86,1.86,0,0,0-1.13-.25A64.6,64.6,0,0,1,153.82,78.66Z" style="fill:none;stroke:#000;stroke-miterlimit:10;stroke-width:2.3405964282453326px"/><path d="M150.42,74.76c0-.63.13-1.51-.5-1.89s-2.39,0-3.15,0c-1.13,0-2.27.12-3.4.12a32.87,32.87,0,0,0,.5,5.92h6a1,1,0,0,0,.63-.25c.12-.12.12-.38.12-.63C150.55,76.9,150.55,75.76,150.42,74.76Z" style="fill:none;stroke:#000;stroke-miterlimit:10;stroke-width:2.3405964282453326px"/><path d="M146.27,235.85c-2-19.52-6.43-59.32-9.45-88.67-1.26-13-2.27-25.95-4.66-38.79S125.61,82.82,118.43,72" style="fill:none;stroke:#000;stroke-miterlimit:10;stroke-width:1.170235226853059px"/><path d="M138.46,235c10.58.25,21.16.13,31.74-.25" style="fill:none;stroke:#000;stroke-miterlimit:10;stroke-width:2.3405964282453326px"/><path d="M139.34,238.24a158.62,158.62,0,0,0,31.87.26" style="fill:none;stroke:#000;stroke-miterlimit:10;stroke-width:2.3405964282453326px"/><path d="M213-195.92c-3.9-.25-11.84-.63-15.62.13-6.55,8.06-47.86,205.3-47.86,205.3l18.39,1.89c26.58-127.59,43.45-193.08,46.73-205.18A1.69,1.69,0,0,0,213-195.92Z" style="fill:#fff;stroke:#000;stroke-miterlimit:10;stroke-width:2.3405964282453326px;opacity:0.5"/><path d="M173.85,165.32a188.57,188.57,0,0,1,26.7-.63" style="fill:none;stroke:#000;stroke-miterlimit:10;stroke-width:2.3405964282453326px;opacity:0.5"/><path d="M101.8-192.89C98.4-188.23,54.7,5,54.7,5L69.94,6.11c.88-15.24,47.48-197.75,47.48-197.75S105.21-197.68,101.8-192.89Z" style="fill:#fff;stroke:#000;stroke-miterlimit:10;stroke-width:2.3405964282453326px;opacity:0.5"/><polygon points="51.55 126.78 62.88 148.31 74.35 141.64 65.28 127.03 51.55 126.78" style="fill:#fff;stroke:#000;stroke-miterlimit:10;stroke-width:2.3405964282453326px;opacity:0.5"/></g></g></g></svg>