<?xml version="1.0" encoding="utf-8"?>
<!-- Generator: Adobe Illustrator 23.0.1, SVG Export Plug-In . SVG Version: 6.00 Build 0)  -->
<svg version="1.1" id="Camada_1" xmlns="http://www.w3.org/2000/svg" xmlns:xlink="http://www.w3.org/1999/xlink" x="0px" y="0px"
	 viewBox="0 0 600 600" style="enable-background:new 0 0 600 600;" xml:space="preserve">
<style type="text/css">
	.st0{fill:#FFFFFF;stroke:#1E1E1C;stroke-miterlimit:10;}
	.st1{fill:none;stroke:#1E1E1C;stroke-width:0.6333;stroke-miterlimit:10;}
	.st2{fill:#FFFFFF;stroke:#1E1E1C;stroke-width:1.2665;stroke-miterlimit:10;}
	.st3{fill:#FFFFFF;stroke:#1E1E1C;stroke-width:0.6333;stroke-miterlimit:10;}
	.st4{fill:none;stroke:#1E1E1C;stroke-width:0.9721;stroke-miterlimit:10;}
	.st5{fill:#FFFFFF;}
	.st6{fill:none;stroke:#1E1E1C;stroke-width:0.9881;stroke-miterlimit:10;}
	.st7{fill:none;stroke:#1E1E1C;stroke-width:1.2665;stroke-miterlimit:10;}
	.st8{fill:#FFFFFF;stroke:#1E1E1C;stroke-width:0.9721;stroke-miterlimit:10;}
	.st9{fill:#FFFFFF;stroke:#1E1E1C;stroke-width:0.9091;stroke-miterlimit:10;}
	.st10{fill:#FFFFFF;stroke:#1E1E1C;stroke-width:0.5889;stroke-miterlimit:10;}
	.st11{fill:#FFFFFF;stroke:#1E1E1C;stroke-width:1.019;stroke-miterlimit:10;}
	.st12{fill:#FFFFFF;stroke:#1E1E1C;stroke-width:0.953;stroke-miterlimit:10;}
	.st13{fill:#FFFFFF;stroke:#1E1E1C;stroke-width:0.6639;stroke-miterlimit:10;}
	.st14{fill:#FFFFFF;stroke:#1E1E1C;stroke-width:0.6174;stroke-miterlimit:10;}
	.st15{fill:#FFFFFF;stroke:#1E1E1C;stroke-width:1.3277;stroke-miterlimit:10;}
	.st16{fill:none;stroke:#1E1E1C;stroke-width:0.75;stroke-miterlimit:10;}
	.st17{fill:none;stroke:#1E1E1C;stroke-miterlimit:10;}
	.st18{fill:none;stroke:#1E1E1C;stroke-width:1.3977;stroke-miterlimit:10;}
	.st19{fill:none;stroke:#1E1E1C;stroke-width:2;stroke-miterlimit:10;}
	.st20{fill:#FFFFFF;stroke:#1E1E1C;stroke-width:0.5;stroke-miterlimit:10;}
	.st21{fill:none;stroke:#1E1E1C;stroke-width:0.5;stroke-miterlimit:10;}
	.st22{fill:none;stroke:#1E1E1C;stroke-width:1.0033;stroke-miterlimit:10;}
	.st23{fill:#FFFFFF;stroke:#020203;stroke-width:0.75;stroke-miterlimit:10;}
	.st24{fill:none;stroke:#020203;stroke-miterlimit:10;}
	.st25{fill:#FFFFFF;stroke:#020203;stroke-miterlimit:10;}
	.st26{fill:none;stroke:#020203;stroke-width:0.5;stroke-miterlimit:10;}
	.st27{fill:#FFFFFF;stroke:#020203;stroke-linejoin:round;}
	.st28{fill:none;stroke:#020203;stroke-linejoin:round;}
	.st29{fill:none;stroke:#020203;stroke-width:0.75;stroke-miterlimit:10;}
	.st30{fill:none;stroke:#020203;stroke-width:0.25;stroke-miterlimit:10;}
	.st31{fill:none;stroke:#E52624;stroke-width:1.5;stroke-miterlimit:10;}
	.st32{fill:#E52624;}
	.st33{fill:#FFFFFF;stroke:#020203;stroke-width:0.5;stroke-miterlimit:10;}
	.st34{fill:none;stroke:#E52522;stroke-width:1.5;stroke-miterlimit:10;}
	.st35{fill:#E52522;}
	.st36{fill:#E7E6E6;}
	.st37{fill:none;stroke:#E20D18;stroke-width:2;stroke-miterlimit:10;}
	.st38{fill:none;stroke:#E20D18;stroke-width:1.8;stroke-miterlimit:10;}
	.st39{fill:none;stroke:#E20D18;stroke-width:1.62;stroke-miterlimit:10;}
	.st40{fill:#E20D18;}
	.st41{fill:none;stroke:#E20D18;stroke-width:1.54;stroke-miterlimit:10;}
	.st42{fill:none;stroke:#E20D18;stroke-width:1.74;stroke-miterlimit:10;}
	.st43{fill:none;stroke:#E20D18;stroke-width:1.55;stroke-miterlimit:10;}
	.st44{fill:none;stroke:#E20D18;stroke-width:1.56;stroke-miterlimit:10;}
	.st45{fill:none;stroke:#E20D18;stroke-width:1.53;stroke-miterlimit:10;}
	.st46{fill:none;stroke:#E20D18;stroke-width:1.58;stroke-miterlimit:10;}
	.st47{fill:none;stroke:#E20D18;stroke-width:1.69;stroke-miterlimit:10;}
	.st48{fill:none;stroke:#E20D18;stroke-width:1.43;stroke-miterlimit:10;}
	.st49{fill:none;stroke:#E20D18;stroke-width:1.48;stroke-miterlimit:10;}
	.st50{fill:none;stroke:#E20D18;stroke-width:1.67;stroke-miterlimit:10;}
	.st51{fill:none;stroke:#E20D18;stroke-width:1.65;stroke-miterlimit:10;}
	.st52{fill:#FFFFFF;stroke:#020203;stroke-width:3;stroke-miterlimit:10;}
	.st53{fill:none;stroke:#E20D18;stroke-width:1.41;stroke-miterlimit:10;}
	.st54{fill:none;stroke:#E20D18;stroke-width:1.59;stroke-miterlimit:10;}
	.st55{fill:none;stroke:#1E1E1C;stroke-width:1.05;stroke-miterlimit:10;}
	.st56{fill:none;stroke:#1E1E1C;stroke-width:0.52;stroke-miterlimit:10;}
	.st57{fill:none;stroke:#1E1E1C;stroke-width:0.8;stroke-miterlimit:10;}
	.st58{fill:none;stroke:#1E1E1C;stroke-width:0.49;stroke-miterlimit:10;}
	.st59{fill:none;stroke:#1E1E1C;stroke-width:0.84;stroke-miterlimit:10;}
	.st60{fill:none;stroke:#1E1E1C;stroke-width:0.79;stroke-miterlimit:10;}
	.st61{fill:none;stroke:#1E1E1C;stroke-width:0.55;stroke-miterlimit:10;}
	.st62{fill:none;stroke:#1E1E1C;stroke-width:0.51;stroke-miterlimit:10;}
	.st63{fill:none;stroke:#1E1E1C;stroke-width:1.1;stroke-miterlimit:10;}
	.st64{fill:none;stroke:#1E1E1C;stroke-width:0.25;stroke-miterlimit:10;}
	.st65{fill:none;stroke:#1E1E1C;stroke-width:1.07;stroke-miterlimit:10;}
	.st66{fill:none;stroke:#1E1E1C;stroke-width:0.94;stroke-miterlimit:10;}
	.st67{fill:none;stroke:#1E1E1C;stroke-width:0.56;stroke-miterlimit:10;}
	.st68{fill:none;stroke:#E20D18;stroke-width:1.5;stroke-miterlimit:10;}
	.st69{fill:none;stroke:#E20D18;stroke-width:1.49;stroke-miterlimit:10;}
	.st70{fill:none;stroke:#E20D18;stroke-miterlimit:10;}
	.st71{fill:none;stroke:#1E1E1C;stroke-width:0.78;stroke-miterlimit:10;}
	.st72{fill:none;stroke:#1E1E1C;stroke-width:1.08;stroke-miterlimit:10;}
	.st73{fill:none;stroke:#1E1E1C;stroke-width:0.54;stroke-miterlimit:10;}
	.st74{fill:none;stroke:#1E1E1C;stroke-width:0.83;stroke-miterlimit:10;}
	.st75{fill:none;stroke:#1E1E1C;stroke-width:0.77;stroke-miterlimit:10;}
	.st76{fill:none;stroke:#1E1E1C;stroke-width:0.87;stroke-miterlimit:10;}
	.st77{fill:none;stroke:#1E1E1C;stroke-width:0.81;stroke-miterlimit:10;}
	.st78{fill:none;stroke:#1E1E1C;stroke-width:1.13;stroke-miterlimit:10;}
	.st79{fill:none;stroke:#1E1E1C;stroke-width:0.21;stroke-miterlimit:10;}
	.st80{fill:#FFFFFF;stroke:#1E1E1C;stroke-width:0.84;stroke-miterlimit:10;}
	.st81{fill:none;stroke:#1E1E1C;stroke-width:0.42;stroke-miterlimit:10;}
	.st82{fill:none;stroke:#1E1E1C;stroke-width:0.24;stroke-miterlimit:10;}
	.st83{fill:none;stroke:#E20D18;stroke-width:1.6;stroke-miterlimit:10;}
	.st84{fill:none;stroke:#E20D18;stroke-width:1.64;stroke-miterlimit:10;}
	.st85{fill:none;stroke:#E20D18;stroke-width:1.484;stroke-miterlimit:10;}
	.st86{fill:none;stroke:#E20D18;stroke-width:1.4075;stroke-miterlimit:10;}
	.st87{fill:none;stroke:#E20D18;stroke-width:1.5853;stroke-miterlimit:10;}
	.st88{fill:none;stroke:#E20D18;stroke-width:1.2981;stroke-miterlimit:10;}
	.st89{fill:none;stroke:#E20D18;stroke-width:0.9733;stroke-miterlimit:10;}
	.st90{fill:none;stroke:#E20D18;stroke-width:0.9159;stroke-miterlimit:10;}
	.st91{fill:none;stroke:#E20D18;stroke-width:1.4439;stroke-miterlimit:10;}
	.st92{fill:none;stroke:#E20D18;stroke-width:1.0062;stroke-miterlimit:10;}
	.st93{fill:none;stroke:#E20D18;stroke-width:0.9468;stroke-miterlimit:10;}
	.st94{fill:none;stroke:#E20D18;stroke-width:1.6749;stroke-miterlimit:10;}
	.st95{fill:none;stroke:#E20D18;stroke-width:1.6513;stroke-miterlimit:10;}
	.st96{fill:#FFFFFF;stroke:#1E1E1C;stroke-width:0.8664;stroke-miterlimit:10;}
	.st97{fill:#FFFFFF;stroke:#1E1E1C;stroke-width:1.0973;stroke-miterlimit:10;}
	.st98{fill:none;stroke:#1E1E1C;stroke-width:1.0973;stroke-miterlimit:10;}
	.st99{fill:#FFFFFF;stroke:#1E1E1C;stroke-width:0.5487;stroke-miterlimit:10;}
	.st100{fill:none;stroke:#1E1E1C;stroke-width:0.8422;stroke-miterlimit:10;}
	.st101{fill:#FFFFFF;stroke:#1E1E1C;stroke-width:0.7877;stroke-miterlimit:10;}
	.st102{fill:#FFFFFF;stroke:#1E1E1C;stroke-width:0.5103;stroke-miterlimit:10;}
	.st103{fill:#FFFFFF;stroke:#1E1E1C;stroke-width:0.8422;stroke-miterlimit:10;}
	.st104{fill:none;stroke:#1E1E1C;stroke-width:0.8829;stroke-miterlimit:10;}
	.st105{fill:#FFFFFF;stroke:#1E1E1C;stroke-width:0.8257;stroke-miterlimit:10;}
	.st106{fill:#FFFFFF;stroke:#1E1E1C;stroke-width:0.5752;stroke-miterlimit:10;}
	.st107{fill:#FFFFFF;stroke:#1E1E1C;stroke-width:0.5349;stroke-miterlimit:10;}
	.st108{fill:#FFFFFF;stroke:#1E1E1C;stroke-width:1.1504;stroke-miterlimit:10;}
	.st109{fill:#FFFFFF;stroke:#1E1E1C;stroke-width:0.8829;stroke-miterlimit:10;}
	.st110{fill:none;stroke:#1E1E1C;stroke-width:0.5487;stroke-miterlimit:10;}
	.st111{fill:#FFFFFF;stroke:#1E1E1C;stroke-width:1.0441;stroke-miterlimit:10;}
	.st112{fill:none;stroke:#E20D18;stroke-width:1.5173;stroke-miterlimit:10;}
	.st113{fill:none;stroke:#E20D18;stroke-width:1.804;stroke-miterlimit:10;}
	.st114{fill:none;stroke:#E20D18;stroke-width:1.6153;stroke-miterlimit:10;}
	.st115{fill:none;stroke:#E20D18;stroke-width:1.578;stroke-miterlimit:10;}
	.st116{fill:none;stroke:#E20D18;stroke-width:1.6879;stroke-miterlimit:10;}
	.st117{fill:none;stroke:#E20D18;stroke-width:1.6347;stroke-miterlimit:10;}
	.st118{fill:none;stroke:#E20D18;stroke-width:1.5386;stroke-miterlimit:10;}
	.st119{fill:none;stroke:#E20D18;stroke-width:1.7396;stroke-miterlimit:10;}
	.st120{fill:#FFFFFF;stroke:#1E1E1C;stroke-width:1.4;stroke-miterlimit:10;}
	.st121{fill:none;stroke:#E20D18;stroke-width:1.4266;stroke-miterlimit:10;}
	.st122{fill:none;stroke:#E20D18;stroke-width:1.4299;stroke-miterlimit:10;}
	.st123{fill:none;stroke:#1E1E1C;stroke-width:0.9867;stroke-miterlimit:10;}
	.st124{fill:none;stroke:#DD0B18;stroke-width:1.4266;stroke-miterlimit:10;}
	.st125{fill:none;stroke:#DD0B18;stroke-width:1.4299;stroke-miterlimit:10;}
	.st126{fill:#DD0B18;}
	.st127{fill:none;stroke:#DD0B18;stroke-width:1.484;stroke-miterlimit:10;}
	.st128{fill:none;stroke:#DD0B18;stroke-width:1.4075;stroke-miterlimit:10;}
	.st129{fill:none;stroke:#DD0B18;stroke-width:1.5853;stroke-miterlimit:10;}
	.st130{fill:none;stroke:#DD0B18;stroke-width:1.2981;stroke-miterlimit:10;}
	.st131{fill:none;stroke:#DD0B18;stroke-width:0.9733;stroke-miterlimit:10;}
	.st132{fill:none;stroke:#DD0B18;stroke-width:0.9159;stroke-miterlimit:10;}
	.st133{fill:none;stroke:#DD0B18;stroke-width:1.4439;stroke-miterlimit:10;}
	.st134{fill:none;stroke:#DD0B18;stroke-width:1.0062;stroke-miterlimit:10;}
	.st135{fill:none;stroke:#DD0B18;stroke-width:0.9468;stroke-miterlimit:10;}
	.st136{fill:none;stroke:#DD0B18;stroke-width:1.6749;stroke-miterlimit:10;}
	.st137{fill:none;stroke:#DD0B18;stroke-width:1.6513;stroke-miterlimit:10;}
	.st138{fill:#FFFFFF;stroke:#1E1E1C;stroke-width:0.75;stroke-miterlimit:10;}
	.st139{fill:none;stroke:#DD0B18;stroke-width:1.5173;stroke-miterlimit:10;}
	.st140{fill:none;stroke:#DD0B18;stroke-width:1.804;stroke-miterlimit:10;}
	.st141{fill:none;stroke:#DD0B18;stroke-width:1.6153;stroke-miterlimit:10;}
	.st142{fill:none;stroke:#DD0B18;stroke-width:1.5551;stroke-miterlimit:10;}
	.st143{fill:none;stroke:#DD0B18;stroke-width:1.578;stroke-miterlimit:10;}
	.st144{fill:#E0E0E0;}
	.st145{fill:none;stroke:#DD0B18;stroke-width:1.6879;stroke-miterlimit:10;}
	.st146{fill:none;stroke:#DD0B18;stroke-width:1.6347;stroke-miterlimit:10;}
	.st147{fill:none;stroke:#DD0B18;stroke-width:1.5386;stroke-miterlimit:10;}
	.st148{fill:none;stroke:#DD0B18;stroke-width:1.7396;stroke-miterlimit:10;}
	.st149{fill:#FFFFFF;stroke:#020203;stroke-width:1.635;stroke-miterlimit:10;}
	.st150{fill:none;stroke:#E20D18;stroke-width:1.52;stroke-miterlimit:10;}
	.st151{fill:#020203;}
	.st152{fill:none;stroke:#1E1E1C;stroke-linejoin:round;}
	.st153{fill:none;stroke:#1E1E1C;stroke-linecap:round;stroke-miterlimit:10;}
	.st154{fill:#1E1E1C;}
	.st155{fill:none;stroke:#1E1E1C;stroke-linejoin:round;stroke-miterlimit:10;}
	.st156{fill:none;stroke:#020203;stroke-linejoin:bevel;stroke-miterlimit:10;}
	.st157{fill:none;stroke:#020203;stroke-miterlimit:10;stroke-dasharray:1;}
	.st158{fill:none;stroke:#020203;stroke-width:0.5;stroke-miterlimit:10;stroke-dasharray:1;}
	.st159{fill:none;stroke:#E20D18;stroke-width:1.3;stroke-miterlimit:10;}
	.st160{fill:none;stroke:#E20D18;stroke-width:0.97;stroke-miterlimit:10;}
	.st161{fill:none;stroke:#E20D18;stroke-width:0.92;stroke-miterlimit:10;}
	.st162{fill:none;stroke:#E20D18;stroke-width:1.44;stroke-miterlimit:10;}
	.st163{fill:none;stroke:#E20D18;stroke-width:1.01;stroke-miterlimit:10;}
	.st164{fill:none;stroke:#E20D18;stroke-width:0.95;stroke-miterlimit:10;}
	.st165{font-family:'Roboto-Medium';}
	.st166{font-size:12.5833px;}
	.st167{fill:#FFFFFF;stroke:#1E1E1C;stroke-width:2;stroke-miterlimit:10;}
	.st168{fill:none;stroke:#1E1E1C;stroke-width:1.5;stroke-linejoin:round;}
	.st169{fill:none;stroke:#1E1E1C;stroke-width:1.5;stroke-miterlimit:10;}
	.st170{fill:none;stroke:#1E1E1C;stroke-width:2;stroke-linecap:round;stroke-miterlimit:10;}
	.st171{fill:none;stroke:#1E1E1C;stroke-width:1.5;stroke-linecap:round;stroke-miterlimit:10;}
	.st172{fill:none;stroke:#1E1E1C;stroke-width:2;stroke-linejoin:round;stroke-miterlimit:10;}
	.st173{fill:none;stroke:#1E1E1C;stroke-width:2;stroke-linejoin:round;}
	.st174{fill:none;stroke:#020203;stroke-width:0.5;stroke-linejoin:bevel;stroke-miterlimit:10;}
	.st175{fill:none;stroke:#E20D18;stroke-width:1.63;stroke-miterlimit:10;}
	.st176{fill:none;stroke:#000000;stroke-miterlimit:10;}
	.st177{fill:#FFFFFF;stroke:#000000;stroke-miterlimit:10;}
	.st178{fill:none;stroke:#E20D18;stroke-width:1.3113;stroke-miterlimit:10;}
	.st179{fill:none;stroke:#E20D18;stroke-width:1.3459;stroke-miterlimit:10;}
	.st180{fill:none;stroke:#E20D18;stroke-width:1.4481;stroke-miterlimit:10;}
	.st181{fill:none;stroke:#E20D18;stroke-width:1.3929;stroke-miterlimit:10;}
	.st182{fill:none;stroke:#E20D18;stroke-width:1.327;stroke-miterlimit:10;}
	.st183{fill:none;stroke:#E20D18;stroke-width:1.4965;stroke-miterlimit:10;}
	.st184{fill:none;stroke:#E20D18;stroke-width:1.225;stroke-miterlimit:10;}
	.st185{fill:none;stroke:#E20D18;stroke-width:1.4563;stroke-miterlimit:10;}
	.st186{fill:none;stroke:#E20D18;stroke-width:1.5717;stroke-miterlimit:10;}
	.st187{fill:none;stroke:#E20D18;stroke-width:1.5529;stroke-miterlimit:10;}
	.st188{fill:#BFBEBF;stroke:#020203;stroke-miterlimit:10;}
	.st189{fill:none;stroke:#E20D18;stroke-width:2.0835;stroke-miterlimit:10;}
	.st190{fill:none;stroke:#E20D18;stroke-width:1.8751;stroke-miterlimit:10;}
	.st191{fill:none;stroke:#E20D18;stroke-width:1.6876;stroke-miterlimit:10;}
	.st192{fill:none;stroke:#E20D18;stroke-width:1.698;stroke-miterlimit:10;}
	.st193{fill:none;stroke:#E20D18;stroke-width:1.6043;stroke-miterlimit:10;}
	.st194{fill:none;stroke:#E20D18;stroke-width:1.8126;stroke-miterlimit:10;}
	.st195{fill:none;stroke:#E20D18;stroke-width:1.6147;stroke-miterlimit:10;}
	.st196{fill:none;stroke:#E20D18;stroke-width:1.5938;stroke-miterlimit:10;}
	.st197{fill:none;stroke:#E20D18;stroke-width:1.6251;stroke-miterlimit:10;}
	.st198{fill:none;stroke:#E20D18;stroke-width:1.6459;stroke-miterlimit:10;}
	.st199{fill:none;stroke:#E20D18;stroke-width:1.7605;stroke-miterlimit:10;}
	.st200{fill:#FFFFFF;stroke:#1E1E1C;stroke-width:0.87;stroke-miterlimit:10;}
	.st201{fill:#FFFFFF;stroke:#1E1E1C;stroke-width:1.1;stroke-miterlimit:10;}
	.st202{fill:#FFFFFF;stroke:#1E1E1C;stroke-width:0.55;stroke-miterlimit:10;}
	.st203{fill:#FFFFFF;stroke:#1E1E1C;stroke-width:0.79;stroke-miterlimit:10;}
	.st204{fill:#FFFFFF;stroke:#1E1E1C;stroke-width:0.51;stroke-miterlimit:10;}
	.st205{fill:none;stroke:#1E1E1C;stroke-width:0.88;stroke-miterlimit:10;}
	.st206{fill:#FFFFFF;stroke:#1E1E1C;stroke-width:0.83;stroke-miterlimit:10;}
	.st207{fill:#FFFFFF;stroke:#1E1E1C;stroke-width:0.58;stroke-miterlimit:10;}
	.st208{fill:#FFFFFF;stroke:#1E1E1C;stroke-width:0.53;stroke-miterlimit:10;}
	.st209{fill:#FFFFFF;stroke:#1E1E1C;stroke-width:1.15;stroke-miterlimit:10;}
	.st210{fill:#FFFFFF;stroke:#1E1E1C;stroke-width:0.88;stroke-miterlimit:10;}
	.st211{fill:#FFFFFF;stroke:#1E1E1C;stroke-width:1.04;stroke-miterlimit:10;}
	.st212{fill:#FFFFFF;stroke:#020203;stroke-linejoin:round;stroke-miterlimit:10;}
	.st213{fill:#E52622;}
	.st214{font-size:12.4174px;}
</style>
<line class="st44" x1="268.5" y1="594.1" x2="487" y2="594.1"/>
<line class="st150" x1="96.1" y1="388.2" x2="96.1" y2="8"/>
<line class="st38" x1="86.5" y1="393.9" x2="200.8" y2="393.9"/>
<line class="st39" x1="90.6" y1="5" x2="142.5" y2="5"/>
<polygon class="st40" points="96.6,5.3 102.5,16.7 90.6,16.7 "/>
<polygon class="st40" points="96.6,394.1 90.6,382.8 102.5,382.8 "/>
<line class="st46" x1="483.4" y1="590.7" x2="483.4" y2="290"/>
<rect x="457.3" y="429" class="st5" width="59.2" height="15.4"/>
<line class="st47" x1="358.8" y1="285.1" x2="489.4" y2="285.1"/>
<polygon class="st40" points="483.4,285.3 489.4,296.7 477.6,296.7 "/>
<polygon class="st40" points="483.4,593.8 477.6,582.5 489.4,582.5 "/>
<text transform="matrix(0.91 0 0 1 460.1467 440.9102)" class="st40 st165 st166">63 a 71cm</text>
<rect x="76.2" y="207.9" class="st5" width="40.9" height="13.8"/>
<text transform="matrix(1 0 0 1 79.3313 219.0557)" class="st40 st165 st166">82cm</text>
<g>
	<path class="st25" d="M383.7,332.3c0,0,19,2,23.3,9.1c4.4,7.1,12.4,15.4,12.4,15.4s8,8.7-4,23.2c-4.4,4.9-10.1,12.2-23.7,8.5
		c6,0,12-0.9,12-0.9l5-11l-1.5-9.3l-7.7-11.1"/>
	<path class="st24" d="M246.7,335.5c0,0,5.5,1.2,34.7-11.1c13.8-6.9,38.3-20.3,71.5-12.1c7.1,2.6,22.1,8.9,30.8,20
		c-9.5-0.6-139.9,5.1-139.9,5.1L246.7,335.5z"/>
	<path class="st151" d="M406.4,380.6c0,0-17-41.3-63.3-40.1c-17.2-0.4-29.8-1.5-50.7,8.1c-11.7,4.3-15.1,7.6-49.2,11.2
		c0.3-1.6,2.3-5.2,2.3-5.2s19,1.5,35.6-5.8c13.9-6,41.8-17.6,60.2-16.9c15.4,0.6,34.1,0,53,17.3C399.8,354.8,412.5,367,406.4,380.6z
		"/>
	<path class="st24" d="M244.6,354.3c0,0,20,1.5,38.5-6.5c16-7.2,63.3-28.1,101-6.6c0,0,33.9,20.1,21.6,43c-2.2,3.9-3.5,3.9-3.5,3.9
		l-59.6,1.9l-120.3,2.9L244.6,354.3z"/>
	<g>
		<path class="st5" d="M230.3,334.5l4.7,4.6c0,0,3.5,4.2,8.1,13.3c4.9,6,8.5,9.2,8.5,9.2s7,5.7,16.7,6.5l9.9,15.9l-1.8,1.7l-9.7-16
			c0,0-9.1,0.1-20.6-11.3c-3.7-4.7-6.6-8.6-6.6-8.6l-2.4-4.3l-2.2-3.1l-3-2.6l-4.2-2.9l0.8-1.7L230.3,334.5z"/>
		<polyline class="st5" points="225.2,307.4 230.3,334.5 228.5,335.8 		"/>
	</g>
	<path class="st0" d="M248.5,444.4h0.8c0,0,1.3-2.3,1-4c-0.3-0.9,0-1.8,0.6-2.5c0,0,0.6-0.4,0.4-1.8c-0.1-0.8,0.3-1.8,1.1-2.2
		c0,0,0.3,0.8,0.9-2.9c0.7-3.7,2.4-8.8,1.8-9.8l-1.4-0.4l-7.6,20.8L248.5,444.4z"/>
	<g>
		<path class="st25" d="M290.2,354.9l-27.3,1.8l0.8,11.1c2-0.9,3.9-1.3,6.1-1.8c1.3,0.2,2.6,0.7,3.8,1.4c2.3,1.3,5.8-0.9,8.1-1.1
			c1.3-0.1,2.8,0.3,3.9,0.9c0,0,1.7,1.3,4.4-0.4c2.8-1.7,3.9-0.3,3.9-0.3s1.5-0.8,1.6-1.3c0.1-0.6-4-10-4-10
			S291.6,354.9,290.2,354.9z"/>
		<polyline class="st25" points="290.9,355.4 289.6,357.5 265.9,359.5 266.4,365.2 264,367.9 		"/>
		<polyline class="st25" points="295.4,365.3 293,365.3 289.6,357.5 		"/>
		<path class="st25" d="M263.1,357l-5.3-0.5l-7.5-0.3l-2.3,1.6c0,0-0.6-0.6,6.3,6.4l6.1,3.7l3.4,0.2L263.1,357z"/>
		<path class="st25" d="M256.3,358.3l1.7,7.8c3.9,0.1,5.6-0.3,5.6-0.3l-0.7-7.8L256.3,358.3l1.3-2l-7.2-0.3l-2.3,1.6
			c-0.1,0.1-0.1,0.3,0.1,0.3L256.3,358.3l1.3-2l5.6,0.5l2.6,2.8l0.6,5.5l26.6,0.2"/>
	</g>
	<path class="st16" d="M309.6,398.9l0.8-0.2c0,0,3.9,13,3.8,14.2c-0.2,1.3-2.1,3.6-7.9,6.5c-5.8,2.9-13,0.3-13,0.3l-4.4-14.3
		l0.7-0.8c0,0,7.1,0.1,10.8-0.8C305.4,402.3,306.5,401,309.6,398.9z"/>
	<path class="st17" d="M307.3,396c0,0-4.9,3-8.6,4.1c-3.8,1.1-10.7,0.8-10.7,0.8l0.5,1l-0.3,0.6c0,0,4.7,1.8,11.8-0.6
		s8.1-4.3,8.1-4.3l2.4,1.2"/>
	<line class="st17" x1="288.9" y1="402.8" x2="288.9" y2="405.4"/>
	<line class="st17" x1="288.6" y1="399.3" x2="288.5" y2="400.9"/>
	<line class="st17" x1="307.9" y1="397.7" x2="306.5" y2="392"/>
	<g>
		<g id="Base-3_5_">
			<g id="base-4_5_">
				<path class="st5" d="M408.4,523c4.5,0,8.8,2.2,11.5,5.9c4.4,6.4,0,14.6,0,14.6c-2.3,12.2-12.9,11.6-12.9,11.6
					c-15.5-0.2-13.3-18.7-13.3-18.7l-0.2-12.9C393.4,523.4,399.2,527.5,408.4,523z"/>
				<path class="st167" d="M334.4,476.1l-0.3,1.5c0,0-2-0.2-4.4,9.3l24.4,6.1c0,0,3.4-11.9-2.9-15l-2.6-0.9l-3.4,0.6v-1.9
					L334.4,476.1z"/>
				<path class="st5" d="M122.1,521.2c-4.5-0.1-8.9,2.2-11.5,6c-4.4,6.4,0,14.6,0,14.6c2.3,12.2,12.8,11.6,12.8,11.6
					c15.5-0.2,13.3-18.7,13.3-18.7l0.2-12.9C137,521.6,131.2,525.7,122.1,521.2z"/>
				<path class="st167" d="M197.5,474.7l0.3,1.5c0,0,2-0.2,4.4,9.3l-24.5,6c0,0-3.4-11.9,2.9-15l2.6-0.9l3.5,0.6v-2L197.5,474.7z"/>
				<path class="st5" d="M261,561v2.7h-4.8l-1.6,3.6l0.3,22.2l1.8,4h4.9c0,0,0.8-0.9,0.8-4.9c-0.1-3.9,0-5,0-5l7.9-0.1v7.7
					c0,0,0.3,2.3,0.8,2.3h4.9c0,0,1.9-2.7,2.3-4.9c0.3-2.2,0-20.8,0-20.8l-1.8-4.1h-5.2l-0.2-1.7L261,561z"/>
				<path class="st168" d="M137.6,522.2l-0.3,12.1l-0.4,0.3c0,0-0.9-3.9-3.8-6.1c-1.4-1.2-3-2-4.8-2.5v-2.4"/>
				<circle class="st169" cx="123.5" cy="540.3" r="12.9"/>
				<path class="st170" d="M110.6,541.9c-1.1-2.4-1.8-5.1-1.9-7.8c0-7.1,5.7-12.8,12.8-12.9l0,0h0.1"/>
				<path class="st171" d="M108.8,534.9c0-7.1,7.3-12.5,14.4-12.5"/>
				<circle class="st169" cx="123.8" cy="540.3" r="2.2"/>
				<path class="st169" d="M124,529.4c0,0,0.1,7,0.3,7.4c0.3,0.3,0.6,0.7,1.4,0s3.9-5.6,3.9-5.6"/>
				<path class="st169" d="M131.4,533c0,0-4.5,5.5-4.5,5.9s0,0.8,1.1,0.9c1.1,0.1,6.6-1.7,6.6-1.7"/>
				<path class="st169" d="M134.6,540.3c0,0-7,0-7.4,0.3c-0.4,0.3-0.7,0.6,0,1.3c0.7,0.8,5.5,4,5.5,4"/>
				<path class="st169" d="M131.6,547.7c0,0-5.6-4.3-6-4.3c-0.4,0-0.8,0.1-0.8,1.1s2,6.5,2,6.5"/>
				<path class="st169" d="M122.4,529.4c0,0,0.3,7,0.1,7.5s-0.5,0.7-1.3,0.1s-4.3-5.4-4.3-5.4"/>
				<path class="st169" d="M115.2,533.5c0,0,4.9,5.2,4.9,5.6s0,0.8-1,0.9c-1,0.1-6.7-1.3-6.7-1.3"/>
				<path class="st169" d="M112.4,541.8c0,0,7-0.4,7.5-0.1c0.4,0.3,0.7,0.5,0.1,1.3c-0.6,0.8-5.3,4.3-5.3,4.3"/>
				<path class="st169" d="M116.8,549.1c0,0,4.7-5.4,5.1-5.5c0.4-0.1,0.8-0.1,1.1,0.9c0.3,1-0.6,6.8-0.6,6.8"/>
				<path class="st19" d="M392.9,520.2v14.7l0.4,0.3c0,0,1.2-3.9,4.1-5.9c1.5-1,3.2-1.8,4.9-2.2l0.2-2.4"/>
				<circle class="st169" cx="406" cy="542.2" r="13.2"/>
				<path class="st169" d="M419.5,543.9c1.1-2.2,1.8-4.6,2-7c0.5-7.1-3.7-13.3-10.8-13.8"/>
				<path class="st169" d="M421.5,537.2c0.5-7.1-6.5-12.7-13.6-13.2"/>
				<path class="st169" d="M420.9,539.7c-1.1-10.2-9.5-13.9-18-12.4"/>
				<circle class="st169" cx="406.1" cy="541.9" r="2.2"/>
				<path class="st169" d="M406.5,531c0,0-0.5,7-0.8,7.4c-0.3,0.3-0.6,0.6-1.3-0.1c-0.8-0.7-3.6-5.9-3.6-5.9"/>
				<path class="st169" d="M398.9,534c0,0,4.2,5.7,4.1,6.1s-0.1,0.8-1.1,0.8s-6.5-2.1-6.5-2.1"/>
				<path class="st169" d="M395.2,541.2c0,0,7,0.5,7.4,0.8s0.6,0.6-0.1,1.3c-0.7,0.8-5.8,3.6-5.8,3.6"/>
				<path class="st169" d="M397.7,548.7c0,0,5.9-3.9,6.4-3.9c0.5,0.1,0.8,0.2,0.8,1.2c-0.1,1-2.4,6.5-2.4,6.5"/>
				<path class="st169" d="M408.2,531.2c0,0-0.8,7-0.6,7.4c0.3,0.3,0.5,0.7,1.3,0.2c0.8-0.5,4.6-5,4.6-5"/>
				<path class="st169" d="M415.1,535.6c0,0-5.2,4.9-5.3,5.3c-0.1,0.4-0.1,0.8,0.9,1c1,0.2,6.8-0.8,6.8-0.8"/>
				<path class="st169" d="M417.2,544.2c0,0-7-0.8-7.4-0.6s-0.7,0.5-0.2,1.3c0.5,0.8,5,4.7,5,4.7"/>
				<path class="st169" d="M412.4,551.2c0,0-4.3-5.6-4.7-5.7c-0.4-0.1-0.8-0.2-1.1,0.8c-0.3,0.9,0.2,6.9,0.2,6.9"/>
				<path class="st5" d="M188.7,486.2c0.5,1.7,0.8,3.4,0.7,5.1c-0.3,4.9-3,7.3-6.4,5.7l-0.3-0.2c-2.2-1.3-4.1-3.9-5.1-7.4
					c-0.5-1.7-0.8-3.4-0.7-5.1c0.3-4.9,3-7.3,6.4-5.7l0.3,0.2C185.8,480.1,187.6,482.8,188.7,486.2z M189,491.2c0-0.5,0-1.1,0-1.6
					v-0.4l0,0c-0.1-1.1-0.3-2.3-0.7-3.4c-1-3.2-2.8-5.7-4.8-6.9l-0.3-0.2c-2.8-1.3-5.2,0.5-5.9,4.4l-0.1-0.1v0.4l0,0
					c-0.1,0.3-0.1,0.7-0.1,1.1c0,0.3,0,0.8,0,1.3v0.2c0.1,1.3,0.3,2.6,0.8,3.9c0.1,0.3,0.2,0.4,0.3,0.7l0.1,0.4l0.1-0.1
					c1,2.7,2.6,4.9,4.4,5.8c0.1,0.1,0.2,0.1,0.3,0.2C186.1,498.5,188.8,496,189,491.2"/>
				<path class="st5" d="M184,491.2L184,491.2c0.3,0.1,1.8,2.9,2.9,4.7c-0.7,0.7-1.5,1-2.4,0.9c-0.3-1.9-0.8-4.6-0.7-5.1
					C183.7,491.1,183.8,491,184,491.2z"/>
				<path class="st154" d="M183,479.3c0.1,1.9,0,3.9-0.3,5.7c-0.1,0.2-0.3,0.3-0.3,0.2c-0.2-0.2-0.3-0.3-0.4-0.5
					c-0.3-0.6-1.6-4.2-1.9-5.2l0.2-0.1c0.6,1.8,1.6,4.4,1.8,4.9c0.2,0.3,0.3,0.4,0.3,0.4c0.1,0,0.2,0,0.3-0.2s0.2-2.9,0.2-5.4
					L183,479.3z"/>
				<path class="st5" d="M182.4,484.8c-0.1,0-0.2-0.2-0.3-0.4c-0.3-0.5-1.3-3.2-1.8-4.9c0.8-0.4,1.8-0.4,2.7-0.1
					c0,2.5-0.1,5.1-0.2,5.4C182.6,484.7,182.5,484.9,182.4,484.8z"/>
				<path class="st154" d="M181.4,486c0,0.2,0,0.4-0.1,0.6s-0.3,0.3-0.6,0.1l0,0c-1.1-0.8-2.2-1.8-3.1-2.7c0-0.2,0-0.3,0.1-0.4
					c1,0.9,2,1.8,3.1,2.7l0,0c0.3,0.1,0.4,0.1,0.4,0s0-0.2,0-0.3c-0.1-0.5-1.4-3.6-2.3-5.5l0.2-0.2
					C181.4,485.5,181.4,485.8,181.4,486z"/>
				<path class="st154" d="M177.3,483.5l0.1-0.4l0.1,0.1C177.4,483.3,177.4,483.5,177.3,483.5L177.3,483.5z"/>
				<path class="st154" d="M178.2,490.7L178.2,490.7l0.2,0.4l-0.1,0.1L178.2,490.7z"/>
				<path class="st154" d="M181.4,488.5c0,0.3-0.1,0.6-0.3,0.8c-0.8,0.7-1.6,1.3-2.5,1.7c-0.1-0.2-0.1-0.3-0.2-0.4
					c0.9-0.4,1.8-1,2.6-1.6c0.1-0.1,0.2-0.3,0.2-0.4c0-0.1-0.1-0.3-0.2-0.3c-0.9-0.6-1.9-1.1-2.9-1.6l-0.6-0.3v-0.4l0.8,0.3
					c1,0.4,2,1,2.9,1.6C181.3,488.1,181.4,488.3,181.4,488.5z"/>
				<path class="st5" d="M182.6,491.1c-0.1,1.5-0.3,3.1-0.5,4.6c-1-0.8-1.8-1.8-2.5-2.9c0.8-0.9,1.7-1.8,2.6-2.5h0.2
					C182.4,490.5,182.5,490.6,182.6,491.1z"/>
				<path class="st5" d="M183.4,486.5c0.4,0.3,0.8,0.8,0.8,1.3c0.1,0.3,0.1,0.6,0.1,0.8c0,0.8-0.5,1.3-1.1,1h-0.1
					c-0.4-0.3-0.8-0.8-0.8-1.3c-0.1-0.3-0.1-0.6-0.1-0.8C182.2,486.6,182.8,486.2,183.4,486.5L183.4,486.5z"/>
				<path class="st154" d="M186.1,489.4c0.8,0.4,1.9,1,2.6,1.3v0.5c-0.8-0.4-1.9-1-2.7-1.4c-0.3-0.2-0.6-0.3-0.9-0.4
					c-0.1,0-0.2,0.1-0.2,0.2c0,0.2,0.1,0.4,0.2,0.6c0.3,0.7,1.9,3.4,2.7,4.6l-0.2,0.3c-0.5-0.8-2.3-3.9-2.7-4.6
					c-0.2-0.3-0.2-0.7-0.2-1c0-0.2,0.1-0.4,0.3-0.5C185.5,489.1,185.8,489.2,186.1,489.4z"/>
				<path class="st5" d="M185.5,489c1,0.3,2.1,0.5,3.2,0.6c0,0.4,0,0.8,0,1.3c-0.6-0.3-1.8-0.9-2.6-1.3c-0.3-0.3-0.8-0.3-1.2-0.4
					c-0.2,0.1-0.3,0.3-0.3,0.5c0,0.3,0.1,0.7,0.2,1c0.3,0.8,2.2,3.8,2.7,4.6c-0.2,0.3-0.3,0.4-0.5,0.7c-0.8-1.3-2.8-4.9-2.9-5
					c-0.3-0.2-0.5-0.3-0.6,0.8c0,0.7,0.5,3.8,0.7,5.2c-0.4-0.1-0.8-0.2-1.2-0.4l-0.3-0.2c-0.2-0.1-0.3-0.2-0.5-0.3
					c0.3-1.6,0.4-3.2,0.5-4.8c-0.1-0.8-0.3-1.1-0.5-1.2l-0.2-0.1c-0.3-0.1-2,1.8-2.8,2.7c-0.3-0.5-0.6-1.1-0.8-1.6
					c0.9-0.4,1.8-1,2.5-1.7c0.2-0.3,0.3-0.5,0.3-0.8c0-0.3-0.1-0.6-0.3-0.8c-0.9-0.7-1.9-1.2-2.9-1.6l-0.8-0.3v-0.9
					c0-0.3,0-0.7,0.1-0.9c1,1,2,1.8,3.1,2.7c0.3,0.2,0.5,0.1,0.6-0.1c0.1-0.2,0.1-0.3,0.1-0.6c0-0.2,0-0.4-2.3-5.8
					c0.3-0.3,0.5-0.5,0.8-0.7c0.3,1.1,1.6,4.6,1.9,5.2c0.1,0.3,0.3,0.4,0.4,0.6c0.2,0.1,0.3,0,0.3-0.2c0.3-1.9,0.3-3.8,0.3-5.7
					l0.3,0.1l0.3,0.2l0.2,0.1c-0.2,1.9-0.2,3.9,0,5.9c0.1,0.3,0.2,0.4,0.3,0.6c0.2,0.1,0.3,0,0.4-0.1c0.8-1,1.6-2,2.2-3.1
					c0.3,0.4,0.5,0.9,0.7,1.3c-2.5,2.9-2.5,3.2-2.5,3.4c0,0.2,0,0.4,0,0.7c0.1,0.3,0.3,0.5,0.6,0.7L185.5,489z M184.5,488.7
					c0-0.4,0-0.8-0.2-1.3c-0.2-0.6-0.5-1.1-1-1.4l0,0c-0.7-0.3-1.3,0.3-1.3,1.3c0,0.4,0,0.8,0.2,1.3c0.2,0.6,0.5,1.1,1,1.4h0.1
					C183.9,490.3,184.5,489.8,184.5,488.7"/>
				<path class="st154" d="M182.3,489.9c0.2,0.1,0.4,0.3,0.5,1.2c-0.1,1.6-0.3,3.2-0.5,4.8l-0.2-0.2c0.3-1.5,0.4-3.1,0.5-4.6
					c0-0.5-0.2-0.7-0.3-0.8h-0.2c-0.9,0.8-1.8,1.6-2.6,2.5c-0.1-0.1-0.1-0.3-0.2-0.3C180.2,491.8,181.9,489.8,182.3,489.9
					L182.3,489.9z"/>
				<path class="st154" d="M184.1,490.8c0.3,0.1,2.2,3.6,2.9,5c-0.1,0.1-0.2,0.2-0.2,0.2c-1.1-1.9-2.6-4.6-2.8-4.8H184
					c-0.3-0.1-0.3,0-0.3,0.5c0,0.5,0.4,3.2,0.7,5.1h-0.3c-0.3-1.4-0.8-4.5-0.7-5.2C183.5,490.5,183.9,490.6,184.1,490.8z"/>
				<path class="st154" d="M185.5,488.5c1,0.3,2.1,0.4,3.1,0.6v0.4c-1.1-0.1-2.2-0.3-3.2-0.6h-0.1c-0.3-0.2-0.5-0.3-0.5-0.7
					c-0.1-0.2-0.1-0.4-0.1-0.7c0-0.2,0-0.4,2.5-3.4c0.1,0.1,0.1,0.3,0.2,0.3c-0.9,1-1.8,2-2.5,3.1c-0.1,0.3,0.2,0.6,0.4,0.7
					L185.5,488.5z"/>
				<path class="st154" d="M189.4,485c0.7,2.3,1,4.6,0.9,7c-0.3,6-3.5,9.3-7.4,7.5l-0.3-0.2c-2.4-1.3-4.6-4.5-5.8-8.4
					c-0.7-2.3-1-4.6-0.9-7c0.3-6,3.5-9.3,7.4-7.5l0.3,0.2C186,478,188.2,481.1,189.4,485z M189.4,491.3c0.1-1.8-0.2-3.4-0.7-5.1
					c-1-3.4-2.9-6.1-5.1-7.4l-0.3-0.2c-3.4-1.6-6.1,0.8-6.4,5.7c-0.1,1.8,0.2,3.4,0.7,5.1c1,3.4,2.9,6.1,5.1,7.4l0.3,0.2
					C186.4,498.7,189.2,496.2,189.4,491.3"/>
				<path class="st5" d="M181.3,488.5c0,0.2-0.1,0.3-0.2,0.4c-0.8,0.7-1.7,1.2-2.6,1.6c-0.1-0.3-0.2-0.6-0.3-0.8
					c-0.3-1.1-0.5-2.2-0.7-3.4l0.6,0.3c1,0.4,2,1,2.9,1.6C181.2,488.2,181.3,488.3,181.3,488.5z"/>
				<path class="st5" d="M185,489.4c0.3,0.1,0.7,0.3,0.9,0.4c0.8,0.3,1.8,0.9,2.7,1.4c-0.1,1.3-0.3,2.4-0.9,3.5
					c-0.8-1.2-2.4-4-2.7-4.6c-0.1-0.2-0.1-0.3-0.2-0.6C185,489.6,185,489.5,185,489.4z"/>
				<path class="st154" d="M189,489.6c0,0.5,0,1.1,0,1.6c-0.3,4.9-2.9,7.4-6,5.9c-0.1-0.1-0.2-0.1-0.3-0.2c-1.8-1-3.4-3.1-4.4-5.8
					l-0.2-0.4c-0.1-0.3-0.2-0.4-0.3-0.7c-0.4-1.3-0.6-2.6-0.7-3.9v-1.5c0-0.3,0-0.7,0.1-1.1c0-0.2,0-0.3,0.1-0.4
					c0.7-3.9,3.1-5.7,5.9-4.4l0.3,0.2c2,1.1,3.8,3.7,4.8,6.9c0.3,1.1,0.5,2.2,0.7,3.4C189,489.2,189,489.4,189,489.6z M188.7,491
					v-0.3c0-0.4,0-0.8,0-1.3v-0.4c-0.1-1-0.3-1.9-0.6-2.9c-0.2-0.5-0.3-1-0.5-1.5c-0.1-0.2-0.1-0.3-0.2-0.3
					c-0.2-0.5-0.4-0.9-0.8-1.4l-0.2-0.3c-0.7-1.1-1.6-2-2.6-2.8l-0.2-0.1l-0.2-0.1l-0.3-0.2l-0.3-0.1l-0.2-0.1
					c-0.8-0.3-1.8-0.3-2.7,0.1l-0.2,0.1c-0.3,0.2-0.6,0.4-0.8,0.7l-0.2,0.2c-0.7,0.9-1.2,2-1.3,3.1c0,0.2,0,0.3-0.1,0.4
					c0,0.3-0.1,0.6-0.1,0.9c0,0.3,0,0.7,0,1v0.5c0.1,1.2,0.3,2.3,0.6,3.4c0.1,0.3,0.2,0.6,0.3,0.8l0.2,0.4c0.3,0.6,0.5,1.1,0.8,1.6
					c0.1,0.1,0.1,0.3,0.2,0.3c0.7,1.1,1.5,2.1,2.5,2.9l0.2,0.2c0.2,0.1,0.3,0.3,0.5,0.3l0.3,0.2c0.4,0.2,0.8,0.3,1.2,0.4h0.2
					c0.9,0.1,1.8-0.2,2.4-0.8c0.1-0.1,0.2-0.1,0.2-0.2c0.2-0.2,0.3-0.4,0.5-0.7l0.2-0.3c0.6-1.1,0.8-2.3,0.9-3.5V491"/>
				<path class="st5" d="M180.8,486.1L180.8,486.1c-1.1-0.8-2.1-1.7-3.1-2.7c0.2-1.2,0.6-2.2,1.3-3.1c0.8,1.9,2.2,5,2.3,5.5
					c0,0.1,0,0.2,0,0.3C181.2,486.1,181.1,486.2,180.8,486.1z"/>
				<path class="st154" d="M184.4,487.5c0.1,0.4,0.2,0.8,0.2,1.3c-0.1,1.1-0.6,1.6-1.3,1.3h-0.1c-0.5-0.3-0.8-0.8-1-1.4
					c-0.1-0.4-0.2-0.8-0.2-1.3c0.1-1.1,0.6-1.6,1.3-1.3l0,0C183.9,486.4,184.3,486.9,184.4,487.5z M183.3,489.6c0.5,0.3,1-0.2,1.1-1
					c0-0.3,0-0.6-0.1-0.8c-0.1-0.5-0.4-0.9-0.8-1.3l0,0c-0.6-0.3-1.1,0.2-1.1,0.9c0,0.3,0,0.6,0.1,0.8
					C182.6,488.7,182.9,489.2,183.3,489.6L183.3,489.6"/>
				<path class="st154" d="M183.7,479.7l0.2,0.1c-0.1,2.5-0.2,5.1-0.1,5.5c0,0.2,0.1,0.3,0.3,0.3c0.1,0.1,0.2,0,0.3-0.1
					c0.8-0.9,1.5-1.9,2.1-2.9l0.2,0.3c-0.7,1.1-1.3,2.2-2.2,3.1c-0.1,0.1-0.3,0.2-0.4,0.1c-0.2-0.2-0.3-0.3-0.3-0.6
					C183.5,483.6,183.5,481.7,183.7,479.7z"/>
				<path class="st5" d="M184,485.6c-0.1-0.1-0.2-0.3-0.3-0.3c-0.1-0.3,0-2.9,0.1-5.5c1.1,0.8,1.9,1.7,2.6,2.8
					c-0.6,1.1-1.3,2-2.1,2.9C184.2,485.7,184.1,485.7,184,485.6z"/>
				<path class="st5" d="M185,487.8c0.8-1.1,1.6-2.2,2.5-3.1c0.2,0.5,0.4,1,0.6,1.5c0.3,0.9,0.5,1.9,0.6,2.9
					c-1.1-0.1-2.1-0.3-3.1-0.6l0,0C185.3,488.4,185,488.2,185,487.8L185,487.8z"/>
				<path class="st154" d="M354.5,490.7l0.2-0.4l0,0v0.4H354.5z"/>
				<path class="st154" d="M348.6,479.9l0.2-0.1c0.2,2.3,0.4,4.9,0.5,5.1c0.1,0.1,0.2,0.2,0.3,0.1c0.2-0.1,0.3-0.3,0.4-0.5
					c0.3-0.6,1.4-3.8,1.8-4.9l0.3,0.1c-0.3,1-1.6,4.6-1.9,5.3c-0.1,0.3-0.3,0.4-0.5,0.6c-0.2,0.1-0.3,0-0.4-0.2
					C348.9,483.5,348.6,481.7,348.6,479.9z"/>
				<path class="st154" d="M348.1,490.8c0.3-0.1,0.5-0.2,0.6,0.8c-0.1,1.7-0.3,3.4-0.5,5l-0.3,0.1c0.3-1.8,0.6-4.5,0.5-5
					c-0.1-0.5-0.2-0.5-0.4-0.4l-0.1,0.1c-0.2,0.1-1.8,2.9-2.9,4.9l-0.2-0.3c0.7-1.2,2.9-5,3-5.1H348.1z"/>
				<path class="st154" d="M347.9,480.3c0.3,3.4,0.5,5.4,0.3,5.6c-0.1,0.3-0.2,0.4-0.4,0.6c-0.2,0.1-0.3,0.1-0.5,0
					c-1-0.8-1.8-1.8-2.7-2.8l0.2-0.3c0.8,0.9,1.6,1.8,2.5,2.6c0.2,0.1,0.3,0.1,0.4,0c0.2-0.1,0.3-0.3,0.3-0.4c0-0.3-0.2-2.9-0.4-5.2
					L347.9,480.3z"/>
				<path class="st154" d="M346.3,489.5c0.2-0.1,0.4-0.2,0.7-0.3c0.2,0.1,0.3,0.3,0.3,0.4c0,0.3,0,0.7-0.2,1
					c-0.3,0.8-2.2,3.9-2.8,4.7l-0.2-0.3c0.9-1.4,2.6-4.1,2.8-4.8c0.1-0.2,0.1-0.3,0.1-0.5c0,0,0-0.1-0.2-0.2c-0.2,0-0.3,0.1-0.5,0.2
					c-0.8,0.3-2.3,1.3-3.5,1.9v-0.4C343.6,491,345.3,490,346.3,489.5z"/>
				<path class="st154" d="M346.9,488c0,0.2,0,0.4,0,0.6c-0.1,0.3-0.3,0.6-0.6,0.8l-0.1,0.1c-1.2,0.3-2.3,0.7-3.5,0.8v-0.5
					c1.2-0.2,2.3-0.5,3.4-0.8l0.1-0.1c0.3-0.3,0.4-0.4,0.4-0.5s0-0.2,0-0.2c-0.9-1-1.9-1.9-2.9-2.8c0-0.1,0.1-0.3,0.2-0.3
					C346.9,487.6,346.9,487.9,346.9,488z"/>
				<path class="st154" d="M355.3,484.3c0,0.3,0.1,0.7,0.1,1v0.5c0,1.1-0.2,2.2-0.4,3.3c-0.1,0.4-0.3,0.8-0.3,1.3l-0.2,0.4
					c-0.8,2.5-2.4,4.6-4.6,6c-0.2,0.1-0.3,0.2-0.5,0.3c-3.4,1.6-6.4-0.6-6.9-5.1c-0.1-0.5-0.1-1-0.1-1.6v-0.4
					c0.1-0.9,0.2-1.8,0.4-2.7c0.8-3.4,2.8-6.3,5.1-7.7c0.2-0.1,0.3-0.2,0.5-0.3c2.9-1.4,5.7,0.2,6.6,3.8l0.1,0.4
					C355.3,483.7,355.3,484,355.3,484.3z M355.1,485.5c0-0.3,0-0.6-0.1-0.9c0-0.3-0.1-0.6-0.2-0.9c0-0.2-0.1-0.3-0.1-0.4
					c-0.3-1.1-0.8-2.1-1.7-2.9l-0.2-0.2c-0.3-0.3-0.6-0.4-0.9-0.5l-0.3-0.1c-1-0.3-2.1-0.3-3,0.2l-0.2,0.1h-0.1l-0.5,0.3l-0.2,0.1
					l-0.2,0.1c-1.1,0.8-2.1,1.8-2.8,2.9l-0.2,0.3c-0.3,0.4-0.5,0.9-0.8,1.4c-0.1,0.1-0.1,0.3-0.2,0.3c-0.3,0.7-0.5,1.4-0.7,2.1
					c-0.2,0.8-0.3,1.5-0.3,2.3v0.4c0,0.4,0,0.8,0,1.2v0.4c0.2,1.2,0.6,2.3,1.3,3.4l0.2,0.3c0.2,0.3,0.4,0.4,0.7,0.6l0.3,0.2
					c0.8,0.5,1.8,0.8,2.9,0.6l0.2-0.1c0.4-0.1,0.8-0.3,1.1-0.4c0.2-0.1,0.3-0.2,0.5-0.3c0.2-0.1,0.3-0.3,0.5-0.3l0.2-0.2
					c1.1-0.8,2-1.8,2.7-3l0.2-0.3c0.3-0.5,0.6-1.1,0.8-1.6l0.2-0.4c0.2-0.5,0.3-1,0.4-1.5c0.3-0.9,0.3-1.8,0.3-2.8L355.1,485.5"/>
				<path class="st154" d="M350.9,488.5c0-0.3,0.1-0.6,0.3-0.8c1.3-0.8,2.6-1.6,4-2.3v0.5c-1.3,0.7-2.7,1.3-3.9,2.2
					c-0.1,0.1-0.1,0.3-0.2,0.3c0,0.2,0.1,0.3,0.2,0.3c0.9,0.6,2,1,3,1.3c0,0.2-0.1,0.3-0.2,0.4c-1-0.3-2-0.8-2.9-1.3
					C351,489,350.9,488.7,350.9,488.5z"/>
				<path class="st5" d="M350.9,486c0.1-0.5,1.4-3.6,2.3-5.6c0.8,0.8,1.4,1.8,1.7,2.9c-1.1,1-2.2,2-3.4,2.9l0,0
					C351.1,486.2,351,486.1,350.9,486C350.9,486.1,350.9,486,350.9,486z"/>
				<path class="st154" d="M350.1,487.3c0,0.3,0,0.8-0.1,1.1c-0.2,0.7-0.5,1.3-1.1,1.6l-0.1,0.1c-0.8,0.3-1.3-0.2-1.5-1.2
					c0-0.3,0-0.7,0.1-1.1c0.2-0.7,0.5-1.3,1.1-1.6l0.1-0.1C349.4,485.9,350,486.3,350.1,487.3z M349.9,488.2
					c0.1-0.3,0.1-0.5,0.1-0.7c-0.1-0.8-0.7-1.1-1.3-0.8l-0.1,0.1c-0.5,0.3-0.8,0.8-0.9,1.4c-0.1,0.3-0.1,0.5-0.1,0.7
					c0.1,0.8,0.7,1.1,1.3,0.8l0.1-0.1C349.5,489.2,349.8,488.7,349.9,488.2"/>
				<path class="st5" d="M348.7,486.6c0.6-0.3,1.2,0.1,1.3,0.8c0.1,0.8-0.3,1.7-1,2.1l-0.1,0.1c-0.6,0.3-1.2-0.1-1.3-0.8
					c0-0.3,0-0.5,0.1-0.7C347.8,487.6,348.2,487.1,348.7,486.6L348.7,486.6z"/>
				<path class="st154" d="M356.4,483.6c0.2,1.8,0.1,3.7-0.4,5.5c-0.9,3.9-3.3,7.5-6,9.1l-0.6,0.3c-3.9,1.8-7.5-0.8-8.1-6
					c-0.2-1.8-0.1-3.7,0.4-5.5c0.9-4,3.3-7.5,6-9.1c0.2-0.1,0.3-0.2,0.6-0.3C352.3,475.7,355.8,478.3,356.4,483.6z M355.8,488.7
					c0.4-1.6,0.5-3.3,0.3-4.9c-0.5-4.9-3.9-7.3-7.7-5.5c-0.2,0.1-0.4,0.2-0.6,0.3c-2.7,1.6-4.9,4.9-5.8,8.6
					c-0.4,1.6-0.5,3.3-0.3,4.9c0.5,4.9,3.9,7.3,7.7,5.5c0.2-0.1,0.3-0.2,0.6-0.3C352.6,495.8,354.8,492.5,355.8,488.7"/>
				<path class="st167" d="M356.2,483.9c-0.5-4.9-3.9-7.3-7.7-5.5c-0.2,0.1-0.4,0.2-0.6,0.3c-2.7,1.6-4.9,4.9-5.8,8.6
					c-0.4,1.6-0.5,3.3-0.3,4.9c0.5,4.9,3.9,7.3,7.7,5.5c0.2-0.1,0.3-0.2,0.6-0.3c2.7-1.6,4.9-4.9,5.8-8.6
					C356.2,487.1,356.3,485.5,356.2,483.9z M355.3,485.7c0,1.1-0.2,2.2-0.4,3.3c-0.1,0.4-0.3,0.8-0.3,1.3v0.4h-0.1
					c-0.8,2.5-2.4,4.6-4.6,6c-0.2,0.1-0.3,0.2-0.5,0.3c-3.4,1.6-6.4-0.6-6.9-5.1c-0.1-0.5-0.1-1-0.1-1.6v-0.4h0.1
					c0.1-0.9,0.2-1.8,0.4-2.7c0.8-3.4,2.8-6.3,5.1-7.7c0.2-0.1,0.3-0.2,0.5-0.3c2.9-1.4,5.7,0.2,6.6,3.8l0.1-0.1l0.1,0.4l-0.1,0.1
					c0.1,0.3,0.1,0.7,0.2,1s0.1,0.7,0.1,0.9L355.3,485.7L355.3,485.7"/>
				<path class="st154" d="M355.2,482.9l0.1,0.4l-0.1,0.1V482.9L355.2,482.9z"/>
				<path class="st154" d="M351.5,486.1c1.2-0.9,2.3-1.8,3.4-2.9c0,0.2,0.1,0.3,0.1,0.4c-1.1,1.1-2.2,2-3.4,2.9l0,0
					c-0.3,0.2-0.5,0.2-0.7-0.1c-0.1-0.2-0.1-0.3-0.1-0.5c0-0.2,0-0.4,2.3-5.8l0.2,0.2c-0.8,1.9-2.1,5.1-2.3,5.6c0,0.1,0,0.1,0,0.2
					C350.9,486.1,351.1,486.2,351.5,486.1L351.5,486.1z"/>
				<path class="st154" d="M350,489.9l0.2-0.1c0.3-0.1,2.5,1.7,3.3,2.3l-0.2,0.3c-0.9-0.8-1.9-1.5-3-2.2h-0.1
					c-0.3,0.1-0.3,0.3-0.3,0.8c0.2,1.5,0.4,2.9,0.8,4.4l-0.2,0.2c-0.3-1.5-0.7-3-0.8-4.6C349.5,490.3,349.8,490,350,489.9z"/>
				<path class="st5" d="M350,490.3L350,490.3c1.2,0.6,2.2,1.3,3.1,2.2c-0.7,1.2-1.6,2.2-2.7,3c-0.3-1.4-0.6-2.9-0.8-4.4
					C349.7,490.6,349.8,490.5,350,490.3z"/>
				<path class="st5" d="M347.8,486c-0.2,0.1-0.3,0.1-0.4,0c-0.9-0.8-1.8-1.7-2.5-2.6c0.8-1.2,1.7-2.2,2.8-2.9
					c0.3,2.3,0.4,4.9,0.4,5.2C348,485.7,348,485.9,347.8,486z"/>
				<path class="st5" d="M347,489.9c0,0.2-0.1,0.3-0.1,0.5c-0.3,0.6-1.9,3.4-2.8,4.8c-0.8-1-1.2-2.2-1.3-3.4
					c1.2-0.7,2.8-1.6,3.5-1.9c0.2-0.1,0.3-0.2,0.5-0.2C346.9,489.8,347,489.8,347,489.9z"/>
				<path class="st5" d="M346.3,488.8L346.3,488.8c-1.3,0.4-2.3,0.8-3.5,0.9c0.1-0.8,0.2-1.5,0.3-2.3c0.2-0.8,0.4-1.4,0.7-2.1
					c1.1,0.8,2.1,1.8,3,2.8c0,0.1,0,0.2,0,0.2C346.8,488.5,346.7,488.7,346.3,488.8z"/>
				<path class="st154" d="M342.4,490.3v-0.4h0.1L342.4,490.3L342.4,490.3z"/>
				<path class="st5" d="M258.3,405.9l-3.9,18.7c0,0-1.3,1.1-0.8,7.9c0,0-1.8,0-2,5.3c-0.2,5.3-1.1,32-1.1,32s-22.6-9.7-57.6-4.4
					c0,0-8.6,1.5-9.3,5.5s0.3,5,0.3,5l3,0.6l10.4-0.1l0.1-1.5c0,0,9.1,0.7,14.2,1.8s10.7,2.7,12.3,3.5l0.1,0.5
					c0,0-16.9,3.7-19.1,4.2c-2.3,0.5-30.4,7.5-37,9.6s-28.6,10-28.6,10l-15.4,6.7c0,0-3.8,2.9-2.2,9.6c0.2,0.2,0.3,0.3,0.6,0.4
					c1.6,1.2,6.5,4,14.9,0.4l1.6-2.9c0,0,46.5-15,78.2-18.5c31.7-3.5,29.9-3.7,29.9-3.7s5.5-1,6.3,5.6c0.8,6.5,3.5,53.1,3.5,53.1
					s0.9,7.4,9.6,7.1c8.6-0.3,10.7-4,10.7-4s0.9-0.8,1.2-5.4l2.5-53.6c0,0,2.3-1.9,7-1.3S311,501,311,501s23,3,37,6.5
					C362,511.1,394,520,394,520l1.7,3.1c0,0,5.7,3.4,9.7,1.7c1.8-0.8,3.7-1.5,5.5-1.9c0,0,2.3-8.3-3.5-10.9
					c-5.9-2.6-38.1-17-72.8-24l-26.5-5.9c0,0,7.4-4.9,23.6-6.1c16.2-1.2,13.5-0.7,13.5-0.7v2l3.5-0.5c0,0,1.8-6-2.2-8.1
					c-4-2-11.9-5.1-33.4-3.8s-30.4,5.2-30.4,5.2l-0.9-32.2c0,0,0.7-3.4-1.8-5c0,0,0.6-6.7-0.8-8.4l-0.4-19.1L258.3,405.9z"/>
				<path class="st19" d="M283,476l-0.1-5.9c0,0,9.3-4.9,36.2-5.5c26.9-0.5,29.4,5.7,29.4,5.7s1.3,1,0.3,6.4c0,0-2.9,0.7-3.2,0.5
					c-0.3-0.2-0.2-2-0.2-2s-23.5-0.3-37.5,6"/>
				<path class="st19" d="M250.4,475.4v-5.7c0,0-10.1-5.4-37.1-5.9c-27-0.5-29.4,5.7-29.4,5.7s-1.3,1-0.3,6.4c0,0,2.9,0.7,3.2,0.5
					c0.3-0.2,0.2-2,0.2-2s23.5-0.3,37.5,6"/>
				<path class="st19" d="M282.4,476.9c0,0,43.5,8,75.2,16.9c31.7,9,51.1,18.6,51.1,18.6s4.1,2.2,2.3,10.3c0,0-7.9,4.8-15.4,0.3
					l-1.7-3c0,0-32.6-9.7-54-14.3c-12.5-2.6-25.2-4.5-37.8-5.7c-4.9-0.5-9.6-1.2-14.4-1.9l0,0c-1.9-0.3-3.9-0.1-5.8,0.7l-1.3,0.6v1
					l-2.6,54.5c-0.2,3.3-2.5,6-5.7,6.7c-1.7,0.3-3.3,0.6-4.9,0.7c-10.2,0.7-10.7-6.5-10.7-6.5s-0.9-15.4-2-35.7
					c-1.1-20.4-2.5-22-2.5-22l-0.1-0.3l-1.3-0.6c-1.8-0.8-3.9-1-5.8-0.7l0,0c-4.8,0.8-9.6,1.4-14.4,1.9c-12.8,1.3-25.3,3.2-37.8,5.7
					c-21.3,4.6-53.9,14.3-53.9,14.3l-1.7,3.1c-7.5,4.4-15.4-0.3-15.4-0.3c-1.8-8.1,2.3-10.3,2.3-10.3s19.3-9.6,51.1-18.6
					c31.8-9,75.2-16.9,75.2-16.9l0.1,0.6"/>
				<path class="st19" d="M268,480.5c10.2,0.3,15-4.5,15-4.5l0.1-0.6l-1.1-37.8c0-1-0.2-1.9-0.4-2.9c-0.2-0.7-0.4-1.3-0.9-1.8
					c0,0-0.3,5-12.7,5h-2.7c-12.3,0-12.7-5-12.7-5c-0.4,0.6-0.8,1.2-0.9,1.8c-0.3,0.9-0.4,1.9-0.4,2.9l-1.1,37.8v0.6
					c0,0,4.8,4.8,15,4.5H268z"/>
				<path class="st19" d="M265.7,437.9c-10.8,0.2-12.3-4.8-12.3-4.8v-4.9c0,0-0.1-2.9,0.8-3.8c0,0-0.1,4.5,12.1,4.4h0.8
					c12.2,0.1,12.1-4.4,12.1-4.4c1,0.9,0.8,3.8,0.8,3.8v4.9c0,0-1.5,4.9-12.3,4.8H265.7z"/>
				<path class="st172" d="M254.3,424.9l3.5-19.2c0,0,3.4-0.4,10.7,0.5c7.3,0.9,10.2-1.3,10.2-1.3l0.2,19.5c0,0-0.6,4.9-12,4.7
					C255.8,428.8,254.3,424.9,254.3,424.9z"/>
				<path class="st19" d="M261,561.2v2.3c0.6,0.3,0.9,0.9,0.9,1.6h8.5c0,0,0.2-1.3,0.6-1.4v-1.8"/>
				<path class="st19" d="M261,563.6h-4.8l0.4,29.9h4.9c0,0,0.9-0.6,0.8-3.2l-0.3-25.1"/>
				<path class="st19" d="M256.3,563.6l-0.8,1.4c-1.6,2.9-0.8,1.5-0.9,12.8v0.3c0.2,11.3-0.3,11.1,1.3,14l0.8,1.4"/>
				<path class="st19" d="M271.4,563.6h4.9l-0.5,29.9h-4.9c0,0-0.9-0.6-0.8-3.2l0.3-25.1"/>
				<path class="st19" d="M276.2,563.8l0.8,1.4c1.6,2.9,0.8,1.5,0.9,12.8v0.3c-0.1,11.3,0.3,11.1-1.3,14l-0.8,1.4"/>
				<line class="st19" x1="262.2" y1="583.1" x2="270.3" y2="583.1"/>
				<path class="st171" d="M109.6,537.7c0-7.1,6-12.2,13.2-12.2c1.9-0.2,3.9,0.1,5.6,0.8"/>
				<circle class="st169" cx="406.1" cy="541.8" r="10.9"/>
				<ellipse class="st169" cx="123.5" cy="540.2" rx="10.9" ry="10.9"/>
				<line class="st19" x1="186.8" y1="476.5" x2="191.2" y2="476.3"/>
				<path class="st173" d="M201.9,485.2c0,0-2.1-7.6-3.5-8.5l-0.3,8.6l-6.4,1.7l-0.2-1.7c-0.3-2-1.1-3.9-2.3-5.6v-3.1
					c1.3,1.5,3.2,2.3,5.1,1.9c3.3-0.5,3.6-1.9,3.6-1.9l-0.8-1.3v1h-6v-1.6"/>
				<line class="st19" x1="345.3" y1="477.4" x2="340.8" y2="477.3"/>
				<path class="st173" d="M329.7,486c0,0,1.9-7.4,3.4-8.2l0.3,9.1l6.7,1.8l0.2-1.8c0.3-2.1,1.2-4.1,2.3-5.9v-3.3
					c-1.3,1.6-3.4,2.3-5.4,2c-3.4-0.6-3.9-2-3.9-2l0.9-1.3v1h6.4v-1.7"/>
			</g>
		</g>
		<path class="st154" d="M276.4,400.1c0,0-2.2,1.1-1.9,3.4c1.5,0.7,4.3,0.8,4.3,0.8s-0.8,3.2-19.6,1.3c0.3-1.8,1.4-5.4,1.4-5.4
			L276.4,400.1z"/>
	</g>
	<g>
		<polygon class="st0" points="258.6,393.8 251.9,419.8 254.2,420.5 262.1,393.4 		"/>
		<path class="st0" d="M250.4,419.6l4.6,1.3l-3.6,10.8c-0.7,0.3-1.2,0.8-1.3,1.5c0,1.3-0.5,2.7-1.3,3.8c-0.1,0.7,0,1.3,0.4,1.9
			c0.7,1.3-1.2,5.9-1.3,5.9s-4-0.8-4-1.3c0-0.5-0.5-1.5,1.1-6.2C246.5,432.6,250.4,419.6,250.4,419.6z"/>
	</g>
	<path class="st0" d="M237.4,392.9c0,0,13.2,2.2,16.2,6.6c1.1,0.8,0,1.3,8.2,0.8c10.7-0.3,26.8-0.9,26.8-0.9s3.5,1.3,7.9-3.7
		c3-1.6,11.8-3.9,12.2-4.8"/>
	<path class="st24" d="M197.4,347.6l-9.5-72l-3.5-39.3l-0.9-19.2l-4.7-26.3l-3.3-48l3.9-38.5l0.9-13.9l-0.3-48
		c0,0,1.8-31.4,6.5-33.5c5.4-2.9,11-6.8,19,0.3c2.7,8,1.8,63.8,1.8,63.8l-0.1,14.3l0.9,4.5c0,0,24.7,32.8,27.3,40.8
		c1.5,7.6,2.8,12.6-1.7,27.3c-2.8,11.8-6.6,28.7-6.6,28.7s-2.6,8.5,2.9,24.5c6.6,15.3,8.9,20.1,8.9,20.1l11.2,21.7l8.8,19
		c0,0,7.3,14.2,7.7,25.8c0.2,3.8,0.9,19.6-13.4,31.3c-9.1,7.3-15.8,11.2-15.8,11.2L197.4,347.6z"/>
	<path class="st151" d="M186.5,8.9c0,0-4.9,43.8,1.6,72.6c1.8,2.9,3.7,5.8,3.7,5.8s28,25.5,32,41.3c1.2,5.4,2.5,9.5-1,27.9
		c-1.9,9.5-9.7,31.4-0.3,61.9c1.8,4.4,5.6,13,5.6,13l30.5,56.5c0,0,8.8,18.5,4.5,28.7c1.7-4.9,2.4-3.9,3.2-15.5
		c-1-9.7-2.8-16.9-9.1-29.9c-6.7-13.3-18.3-34.1-18.3-34.1l-5.6-11.7c0,0-9.6-18.8-6.8-34.7c3.5-16.2,7.8-33.5,7.8-33.5l2.3-11.7
		c0,0-0.6-9.6-2.9-14.1c-1.7-4.6-12.8-24.2-25-38.2c-1.8-2.1-7.1-11.2-6.9-31.5c-0.9-23-0.9-33.6-0.9-33.6s0.5-14.5,1.8-20.6
		C201.1,6.6,197,2,186.5,8.9z"/>
	<g>
		<path class="st5" d="M188.1,81.5c1.5-0.3,3-0.4,4.5-0.4c1.5,0,3,0.3,4.5,0.6c1.5,0.3,2.9,0.8,4.3,1.6c1.3,0.8,2.5,1.8,3.5,2.9l0,0
			c-1.2-0.9-2.3-1.8-3.7-2.5c-1.3-0.7-2.7-1.3-4.1-1.7s-2.9-0.6-4.4-0.7C191.1,81.3,189.6,81.4,188.1,81.5L188.1,81.5z"/>
	</g>
	<path class="st26" d="M321.9,385.7c0,0,9.7-0.9,19.2,0.5"/>
	<path class="st26" d="M322.7,375.3c0,0,9.2,2.4,17.3,0.1"/>
	<path class="st26" d="M307.7,312.6l-2.3-31c0,0-1.2,1,24.7-0.4c-0.3,3.3-2.9,27.3-2.9,27.3S311,312,307.7,312.6z"/>
	<path class="st174" d="M293.1,279.1v1.8c0,0-1.3,1.2,16.1,0.7c17.8-0.6,29.2-1.1,29.2-1.1s3.7,0,3.3-1.8c0.7,0.3,0-1.3,0-1.3
		S319.4,276.3,293.1,279.1z"/>
	<g>
		<path class="st151" d="M318.7,266.6c25.1,0.3,51.6,2.7,53.7,6.5l0.1,0.1c0.2,0.2,1.3,1.4,1,3c-0.2,1-0.8,1.9-1.9,2.7
			c-0.1,0-0.3,0-0.8,0c-4.7,0-23.3-1.3-25.6-1.5c-0.4-0.3-1.8-0.5-6.5-1h-0.1c-8.5,0.2-32.9,1.1-33.2,1.1l-13.6,1.3h-0.1
			c-0.2,0-12.7,3.3-19.7,3.3c-1.3,0-2.3-0.1-3-0.3c-0.4-0.3-2.9-2.6-0.2-6.9l0.3-0.1C285.3,270.4,302.1,267.6,318.7,266.6
			 M318.7,266.2c-25.8,1.5-45.3,7.1-50.2,8.5c-3.4,5,0.2,7.6,0.2,7.6c0.8,0.3,1.9,0.3,3.3,0.3c7.2,0,19.9-3.4,19.9-3.4l13.6-1.3
			c0,0,24.6-0.9,33.1-1.1c7.1,0.7,6.3,1,6.3,1s20.8,1.5,25.8,1.5c0.5,0,0.9,0,1-0.1c3.7-2.3,2-5.5,1.1-6.4
			C370.2,268.4,338.8,266.5,318.7,266.2L318.7,266.2z"/>
	</g>
	<path class="st25" d="M321.8,385.6c0,0-5.5,11.7-5.2,15.8c0.8,0.9,0.9,1.3,2.1,1.7c1.1,0.3,24.6,0.4,24.6,0.4s3.5-0.6,1.9-5.8
		c-1.6-5.2-4-11.6-4-11.6l-1.4-0.4l-0.3-10.2c0,0,0.9-0.2,1-1.6c0.1-1.4,5.2-70.7,5.2-70.7l-28.9,0.3l5.3,69.9c0,0-0.1,1.6,0.8,2.1
		c0,1.2,0.1,9.5,0.1,9.5S321.8,385.3,321.8,385.6z"/>
	<path class="st25" d="M302.6,300.6c0,0,1.3-0.2,1.2,0.5c0.1,0.7-0.4,1.8,2.6,2.2c3,0.4,40.3,0.9,51.1-0.5c0.9-0.2,2.1-0.6,1.8-2.1
		c0-0.8-0.1-1.5-0.1-1.5L302.6,300.6z"/>
	<path class="st33" d="M328.7,308.3v-4.7c0,0-0.3-0.6,1.8-0.6s4-0.1,4-0.1s1.7-0.3,1.5,1.8c0.2,2.1,0.1,3.7,0.1,3.7L328.7,308.3z"/>
	<path class="st26" d="M325.6,312.1c0,0-1-3.5,2.9-3.5c4.1-0.1,8.8,0,8.8,0s1.8-0.2,2.5,2c0.2,0.9,0.2,1.5,0.2,1.5s-0.5,0.7-2.9,0.3
		c-0.9,0.2-2,0.8-4.3,0.3c-2,0.1-2.3,0.3-4.3-0.3C327.5,312.7,325.8,312.6,325.6,312.1z"/>
	<path class="st25" d="M281.1,303c0,0-6.8,1.8-7.3-2.6c-0.2-3,0.2-6,4.4-7.4c4.4-1.3,36.6-7.9,50.8-7.4c14.8,0.2,41.4-0.2,63.2,6.6
		c2.2,1.1,4.6,2.6,3.4,7.4l-1.3,1.3c0,0,3.4,2.2-34-1.8C319.3,300.2,322.2,298,281.1,303z"/>
	<path class="st26" d="M275.4,294.5c0,0-8.7,8.8,20.9,1.7c4.6-0.5,52.6-7.1,82.8-1.2c9.1,1.5,17.8,4.6,16.4,0.4"/>
	<path class="st167" d="M199.3,386.2l5.4,6l68.3-0.3l3.3-5l-9.6-16.4c0,0-18.5-2.1-29.3-25c-5.6-6-1.5-3.5-9.7-8.5l-4.4-47.8
		l-7.9-23l-12,1l-2.9,24.2l4.4,48.6c0,0-8.5,5.5-8.1,17.3C197.5,368.5,199.3,386.2,199.3,386.2z"/>
	<path class="st17" d="M211.8,385.1c0,0-5.5-0.2-5.8-3.4c-0.3-3.4-1.9-22.8-1.9-22.8s-0.4-10.7,4.5-11.9l1.3,7.9l5.5,10.6l7.9-1
		l2.9-11.3L225,345c0,0,1.9,0,4.6,4.6s11.7,18.5,20.5,22.6c8.8,4.2,11.8,4.9,11.8,4.9l3.9,8.5L211.8,385.1z"/>
	<polyline class="st17" points="224.8,345 224.4,338.8 222.6,320.7 219.2,290.8 212.3,270.8 206.6,271.4 203.8,292.1 206.9,322.1 
		207.9,340 208.5,347 	"/>
</g>
<polygon class="st40" points="438.6,593.4 432.7,581.5 444.6,581.5 "/>
<line class="st43" x1="438.5" y1="586.5" x2="438.5" y2="342.4"/>
<line class="st45" x1="387.1" y1="341.8" x2="444.6" y2="341.8"/>
<polygon class="st40" points="438.3,341.9 444.2,353.7 432.3,353.7 "/>
<rect x="410.2" y="462.3" class="st5" width="65.5" height="13.8"/>
<text transform="matrix(1 0 0 1 413.094 473.0215)" class="st40 st165 st166">45 a 53cm</text>
<g>
	<line class="st175" x1="237.8" y1="423.7" x2="416" y2="423.7"/>
	<line class="st41" x1="421.6" y1="384.3" x2="421.6" y2="428.6"/>
	<line class="st42" x1="230.9" y1="403.1" x2="230.9" y2="429.7"/>
	<polygon class="st40" points="422.2,423.8 411.7,429.7 411.7,417.9 	"/>
	<polygon class="st40" points="230.9,423.8 242.5,429.7 242.5,417.9 	"/>
	<polygon class="st5" points="365.6,429.9 330.7,431.1 330.8,416.6 365,416.6 	"/>
	<text transform="matrix(1 0 0 1 332.1955 428.5713)" class="st40 st165 st166">44cm</text>
</g>
<g>
	<polygon class="st35" points="432.1,380.4 444.8,380.4 438.4,391.2 	"/>
	<line class="st34" x1="403.1" y1="391.5" x2="445.2" y2="391.5"/>
</g>
<g id="texto_12_">
	<rect x="423.4" y="358.9" class="st36" width="48.4" height="15.7"/>
	<text transform="matrix(1.0001 0 0 1 425.6978 370.8074)" class="st213 st165 st214">12cm</text>
</g>
</svg>
