<svg xmlns="http://www.w3.org/2000/svg" xmlns:xlink="http://www.w3.org/1999/xlink" viewBox="0 0 374.65 701.02"><defs><clipPath id="clip-path" transform="translate(-4.75 -27.64)"><rect width="386" height="734" style="fill:none"/></clipPath></defs><title>Pixel diagonal infantil_3</title><g id="Camada_2" data-name="Camada 2"><g id="Camada_1-2" data-name="Camada 1"><rect x="0.01" width="374.63" height="701.02" style="fill:#fff"/><g id="Camada_1-2-2" data-name="Camada 1-2"><g style="clip-path:url(#clip-path)"><polyline points="65.97 278.69 122.62 303.22 170.6 274.28" style="fill:none;stroke:#000;stroke-miterlimit:10;stroke-width:0.7595009207725525px"/><polyline points="65.97 296.68 122.62 318.75 172.16 291.53" style="fill:none;stroke:#000;stroke-miterlimit:10;stroke-width:0.7595009207725525px"/><polyline points="65.97 313.03 122.62 335.1 173.79 304.2" style="fill:none;stroke:#000;stroke-miterlimit:10;stroke-width:0.7595009207725525px"/><path d="M66.8,339.69s32.37,57.39,42.59,70" transform="translate(-4.75 -27.64)" style="fill:none;stroke:#000;stroke-miterlimit:10;stroke-width:0.4087293744087219px;stroke-dasharray:0.8174587488174438"/><path d="M128,363.4s46.18,80.84,59.26,97.11" transform="translate(-4.75 -27.64)" style="fill:none;stroke:#000;stroke-miterlimit:10;stroke-width:0.4087293744087219px;stroke-dasharray:0.8174587488174438"/><path d="M144.78,353.1s33.28,58.28,42.68,69.23" transform="translate(-4.75 -27.64)" style="fill:none;stroke:#000;stroke-miterlimit:10;stroke-width:0.4087293744087219px;stroke-dasharray:0.8174587488174438"/><path d="M71,378.11s9.81-15.53,17.9-30" transform="translate(-4.75 -27.64)" style="fill:none;stroke:#000;stroke-miterlimit:10;stroke-width:0.4087293744087219px;stroke-dasharray:0.8174587488174438"/><path d="M79.8,399.69s16.75-24.93,27.55-44.22" transform="translate(-4.75 -27.64)" style="fill:none;stroke:#000;stroke-miterlimit:10;stroke-width:0.4087293744087219px;stroke-dasharray:0.8174587488174438"/><path d="M88.63,424.62s30.49-49.21,36.86-62.78" transform="translate(-4.75 -27.64)" style="fill:none;stroke:#000;stroke-miterlimit:10;stroke-width:0.4087293744087219px;stroke-dasharray:0.8174587488174438"/><line x1="123.11" y1="372.05" x2="156.95" y2="315.89" style="fill:none;stroke:#000;stroke-miterlimit:10;stroke-width:0.4087293744087219px;stroke-dasharray:0.8174587488174438"/><line x1="102.67" y1="451.18" x2="175.1" y2="315.07" style="fill:none;stroke:#000;stroke-miterlimit:10;stroke-width:0.4087293744087219px;stroke-dasharray:0.8174587488174438"/><path d="M93.69,635.77s-9.64,1.07-9.81,2.37-4.74,25.34,4.91,25.26,16.18-2.69,16.76-4.17S93.69,635.77,93.69,635.77Z" transform="translate(-4.75 -27.64)" style="fill:#fff;stroke:#000;stroke-miterlimit:10;stroke-width:2.452376365661621px"/><path d="M265,634.3s5.07.17,7.6,1.39A14.86,14.86,0,0,1,277,639s-2.21,21.17-3.44,22-6.78,1.47-15.94,0,1-26,1-26Z" transform="translate(-4.75 -27.64)" style="fill:#fff;stroke:#000;stroke-miterlimit:10;stroke-width:2.452376365661621px"/><path d="M166.37,654.9l1.88,36.22,10.38,3L189,691.93l1.88-37s4.09-2.7,18.23-1.06,107.09,9.56,107.09,9.56v2.46a85.71,85.71,0,0,0,9,1.63,25.07,25.07,0,0,0,4.9,0l4.66-1.63-1-15.54L290,641.53l-38.42-7.2,10.79-.82.81,1.48,3.85-1.48-.58-9.4L261,617l-65.64,3.27-33.77.82-43.73-1.39-1.47-1.06-17.74-.82-3.92,1-3.52,5.56L90.59,626v9.24l11,.57L66.72,643l-2.45-.66L26.66,650l-1,1.06-1.88.82-.82,17,14.15.82,4.33-2.21-.25-2.29L157.7,653.51C157.7,653.68,164.73,652.45,166.37,654.9Z" transform="translate(-4.75 -27.64)" style="fill:#fff;stroke:#000;stroke-miterlimit:10;stroke-width:2.452376365661621px"/><line x1="159.49" y1="595.38" x2="96.79" y2="608.13" style="fill:none;stroke:#000;stroke-miterlimit:10;stroke-width:2.452376365661621px"/><line x1="190.71" y1="595.62" x2="246.96" y2="606.49" style="fill:none;stroke:#000;stroke-miterlimit:10;stroke-width:2.452376365661621px"/><polyline points="163 652.84 169.54 646.96 178.13 646.96 184.83 652.84" style="fill:#fff;stroke:#000;stroke-miterlimit:10;stroke-width:1.6349174976348877px"/><polyline points="163 637.56 169.79 631.59 178.37 631.59 184.83 637.56" style="fill:#fff;stroke:#000;stroke-miterlimit:10;stroke-width:1.6349174976348877px"/><line x1="169.54" y1="646.96" x2="169.38" y2="598.07" style="fill:none;stroke:#000;stroke-miterlimit:10;stroke-width:1.6349174976348877px"/><line x1="178.29" y1="598.07" x2="178.13" y2="646.96" style="fill:none;stroke:#000;stroke-miterlimit:10;stroke-width:1.6349174976348877px"/><line x1="261.75" y1="596.44" x2="212.13" y2="599.79" style="fill:none;stroke:#000;stroke-miterlimit:10;stroke-width:2.452376365661621px"/><line x1="238.21" y1="590.23" x2="242.7" y2="597.75" style="fill:none;stroke:#000;stroke-miterlimit:10;stroke-width:1.6349174976348877px"/><path d="M190.89,654.9s-1-16.1,2.29-17.82,14.63-.65,14.63-.65l120.74,19.13,5.31-5.32" transform="translate(-4.75 -27.64)" style="fill:none;stroke:#000;stroke-miterlimit:10;stroke-width:2.452376365661621px"/><path d="M166.37,654.9s1.39-19.45,0-19.78-28,3.92-28,3.92l-74.14,13.9L29.4,659.89l-5.72-8" transform="translate(-4.75 -27.64)" style="fill:none;stroke:#000;stroke-miterlimit:10;stroke-width:2.452376365661621px"/><line x1="61.88" y1="615.4" x2="66.46" y2="624.07" style="fill:none;stroke:#000;stroke-miterlimit:10;stroke-width:1.6349174976348877px"/><line x1="289.55" y1="613.85" x2="284.97" y2="622.43" style="fill:none;stroke:#000;stroke-miterlimit:10;stroke-width:1.6349174976348877px"/><polyline points="86.41 596.68 105.13 598.65 109.46 592.19 111.67 590.96" style="fill:#fff;stroke:#000;stroke-miterlimit:10;stroke-width:1.6349174976348877px"/><line x1="130.55" y1="601.26" x2="105.13" y2="598.65" style="fill:none;stroke:#000;stroke-miterlimit:10;stroke-width:2.452376365661621px"/><path d="M86,537c1.47,1.64,4.66-4.66,4.25-6.86s-7.27-17.5-8.83-19C67.7,497.3,62.22,493.45,58.13,474.9a192.45,192.45,0,0,1-3.51-25.51,319.41,319.41,0,0,0-9-51.82c-2.46.24-6.87.4-9.73.49l-3.6,6.05L29.61,425.6l2.61,31.15-6.87,19.62v44.14l2.7,8.91,40.3,6.87C68.43,536.21,84.13,535,86,537Z" transform="translate(-4.75 -27.64)" style="fill:#fff;stroke:#000;stroke-miterlimit:10;stroke-width:1.5190836191177368px"/><path d="M133.34,256.88s5.48,1.39,6.21,2C139.14,258.92,134.81,259.25,133.34,256.88Z" transform="translate(-4.75 -27.64)" style="fill:#fff"/><g id="Camada_1-2-2-2" data-name="Camada 1-2-2"><polyline points="209.76 524.58 210.5 525.4 208.86 526.63 210.74 527.04 208.94 528.26 210.82 528.92 209.35 529.98 210.91 530.55 209.43 531.78 211.07 532.43 209.68 533.66 211.23 534.31 209.92 535.29 211.31 535.95 210.5 536.93" style="fill:none;stroke:#000;stroke-miterlimit:10;stroke-width:0.7595009207725525px"/><polyline points="186.79 528.51 188.43 529.08 186.87 529.98 188.51 530.47 187.04 531.45 188.67 532.02 187.12 533.08 188.75 533.66 187.28 534.64 188.92 535.37 187.45 536.27 189.08 537.25 187.77 537.91 188.67 538.56" style="fill:none;stroke:#000;stroke-miterlimit:10;stroke-width:1.7409418821334839px"/><line x1="210.42" y1="525.48" x2="186.79" y2="528.51" style="fill:none;stroke:#000;stroke-miterlimit:10;stroke-width:0.7595009207725525px"/><line x1="210.74" y1="527.04" x2="187.04" y2="530.06" style="fill:none;stroke:#000;stroke-miterlimit:10;stroke-width:0.7595009207725525px"/><line x1="210.58" y1="528.92" x2="187.53" y2="531.45" style="fill:none;stroke:#000;stroke-miterlimit:10;stroke-width:0.7595009207725525px"/><line x1="210.82" y1="530.47" x2="187.44" y2="533" style="fill:none;stroke:#000;stroke-miterlimit:10;stroke-width:0.7595009207725525px"/><line x1="211.07" y1="532.43" x2="187.61" y2="534.72" style="fill:none;stroke:#000;stroke-miterlimit:10;stroke-width:0.7595009207725525px"/><line x1="211.07" y1="534.31" x2="187.77" y2="536.36" style="fill:none;stroke:#000;stroke-miterlimit:10;stroke-width:0.7595009207725525px"/><line x1="211.31" y1="535.95" x2="188.02" y2="537.74" style="fill:none;stroke:#000;stroke-miterlimit:10;stroke-width:1.5190836191177368px"/><path d="M191.87,566.21l25.18-1.56,1.22,17.58a25.16,25.16,0,0,1-12.42,4.82,24.72,24.72,0,0,1-12.75-2.94Z" transform="translate(-4.75 -27.64)" style="fill:#fff;stroke:#000;stroke-miterlimit:10;stroke-width:1.5190836191177368px"/><path d="M192.93,584.11a71.21,71.21,0,0,0,25.26-2" transform="translate(-4.75 -27.64)" style="fill:#fff;stroke:#000;stroke-miterlimit:10;stroke-width:1.5190836191177368px"/><path d="M194.49,584.76c0,1.23.57,39.73.57,39.73s-12.59,6.71-31.56-.73c.58-17,1.31-42.1,1.31-42.1a11.07,11.07,0,0,1,3.11-1.56" transform="translate(-4.75 -27.64)" style="fill:#fff;stroke:#000;stroke-miterlimit:10;stroke-width:1.5190836191177368px"/><path d="M164.81,581.66s6.87,5.15,28.12,1.31" transform="translate(-4.75 -27.64)" style="fill:#fff;stroke:#000;stroke-miterlimit:10;stroke-width:1.5190836191177368px"/><path d="M89.69,566.29S78.82,580.35,77.43,582.8s-1.31,7.36,2,7.44A11.89,11.89,0,0,1,83,592s1.06.9,3.76.33c1.55.16,2.12.49,3.1.24s2.7-1.39,3.6-4.17,4.41-18.23,4.41-18.23" transform="translate(-4.75 -27.64)" style="fill:#fff;stroke:#000;stroke-miterlimit:10;stroke-width:1.5190836191177368px"/><path d="M92.06,568.5l-5.72,10.21S87,582.64,91.4,580a99.44,99.44,0,0,0,4.75-10.46s-2.78,12.75-3.52,15.2c-.82,3-1.72,4.58-2.53,4.83a10.17,10.17,0,0,1-2.7.08c-1.23,0-2.53.49-3.19.16a8.26,8.26,0,0,0-3-1.55c-3-.49-1.47-4.17-.33-6.21s9.48-14.8,9.48-14.8" transform="translate(-4.75 -27.64)" style="fill:none;stroke:#000;stroke-miterlimit:10;stroke-width:0.7595009207725525px"/><line x1="163.17" y1="537.74" x2="163.17" y2="555.4" style="fill:none;stroke:#000;stroke-miterlimit:10;stroke-width:1.5190836191177368px"/><path d="M172.33,563.84s-4.17.32-4.41,1.63,8.58,2.29,12.51,2.21,11.6-.66,10.95-2.21-4.17-1.63-4.17-1.63" transform="translate(-4.75 -27.64)" style="fill:#fff;stroke:#000;stroke-miterlimit:10;stroke-width:1.5190836191177368px"/><path d="M172.42,557.46v7.85s8.33,1.88,14.87,0V558.2" transform="translate(-4.75 -27.64)" style="fill:#fff;stroke:#000;stroke-miterlimit:10;stroke-width:1.5190836191177368px"/><path d="M153.53,546.67s1.47,3,3.35,3.43,51.26,1.07,51.26,1.07" transform="translate(-4.75 -27.64)" style="fill:#fff;stroke:#000;stroke-miterlimit:10;stroke-width:1.5190836191177368px"/><path d="M157.21,550.1a15.54,15.54,0,0,0,6.7,3c5.4,1.22,10.47,2.12,10.47,2.12s4.74.49,6.86.49h12.18" transform="translate(-4.75 -27.64)" style="fill:none;stroke:#000;stroke-miterlimit:10;stroke-width:1.5190836191177368px"/><path d="M165.55,553.46s5.64,3.35,7.36,3.67,10.62.66,11.52.66c2.78-.66,28.94-6,31.64-6.95" transform="translate(-4.75 -27.64)" style="fill:none;stroke:#000;stroke-miterlimit:10;stroke-width:1.5190836191177368px"/><path d="M172.25,557a1.54,1.54,0,0,0,.9,1.55c1.06.49,12.34.66,13.16.41a3.52,3.52,0,0,0,1.72-1.88" transform="translate(-4.75 -27.64)" style="fill:none;stroke:#000;stroke-miterlimit:10;stroke-width:2.6114537715911865px"/><polyline points="87.88 538.81 85.1 538.64 87.31 540.93 93.03 542.32 91.31 540.03" style="fill:#fff;stroke:#000;stroke-miterlimit:10;stroke-width:0.7595009207725525px"/><path d="M149.69,544.79s-41.12,5.89-46,6.7a7.89,7.89,0,0,0-6.3,4.58L93,566.7a2,2,0,0,0,2.61,1,1.63,1.63,0,0,0,.49-.33c.9-2.78,4.09-9.56,4.09-9.56a7.46,7.46,0,0,1,4.25-3.11c7.2-1.47,55.26-8.75,55.26-8.75" transform="translate(-4.75 -27.64)" style="fill:#fff;stroke:#000;stroke-miterlimit:10;stroke-width:1.5190836191177368px"/></g><path d="M256,480.05a467.45,467.45,0,0,1,73.41,1.88,60.73,60.73,0,0,1,13.16,2.45,31,31,0,0,1,10.87,5.89" transform="translate(-4.75 -27.64)" style="fill:none;stroke:#000;stroke-miterlimit:10;stroke-width:2.6114537715911865px"/><path d="M230.37,549.94c-7.84-1.23-14.14-7.28-18.06-14.22s-6-14.64-8.83-22.08c-6.87-17.82-19.29-34.33-36.79-41.93-13.57-5.89-29.34-6-43.32-1.06S100.32,506,71.7,499.09" transform="translate(-4.75 -27.64)" style="fill:none;stroke:#000;stroke-miterlimit:10;stroke-width:2.6114537715911865px"/><path d="M229.8,551.57c-.82-6.62-.08-13.24.49-19.86s1.06-13.32-.33-19.86-4.9-12.84-10.62-16.19c-3.68-2.12-7.85-2.94-12-3.68-5.89-1.06-11.85-2-17.82-2.78" transform="translate(-4.75 -27.64)" style="fill:none;stroke:#000;stroke-miterlimit:10;stroke-width:1.5190836191177368px"/><path d="M182.22,481.27c2.95.09,6,.09,8.91-.08" transform="translate(-4.75 -27.64)" style="fill:none;stroke:#000;stroke-miterlimit:10;stroke-width:1.5190836191177368px"/><path d="M206.91,478.41a182.81,182.81,0,0,1,20,.17" transform="translate(-4.75 -27.64)" style="fill:none;stroke:#000;stroke-miterlimit:10;stroke-width:1.5190836191177368px"/><path d="M37.13,397.81c2.78-.08,7.19-.24,9.72-.49a317.19,317.19,0,0,1,9,51.83,190.43,190.43,0,0,0,3.51,25.5c4.09,18.48,9.56,22.32,23.3,36.22,1.55,1.55,8.5,16.84,8.83,19s-2.46,5.64-4.25,6.87" transform="translate(-4.75 -27.64)" style="fill:none;stroke:#000;stroke-miterlimit:10;stroke-width:1.5190836191177368px"/><polyline points="21.83 459.11 27.88 475.05 31.96 473.41 33.35 460.74 32.37 450.36 36.13 445.86 36.13 442.84 44.23 424.61 37.69 370.66 33.03 375.07" style="fill:none;stroke:#000;stroke-miterlimit:10;stroke-width:1.5190836191177368px"/><polyline points="29.35 428.78 38.42 427.47 33.03 375.07 28.2 376.38" style="fill:none;stroke:#000;stroke-miterlimit:10;stroke-width:0.7595009207725525px"/><line x1="44.23" y1="424.61" x2="38.42" y2="427.47" style="fill:none;stroke:#000;stroke-miterlimit:10;stroke-width:0.7595009207725525px"/><polyline points="21.34 447.25 31.23 445.45 36.13 442.84" style="fill:none;stroke:#000;stroke-miterlimit:10;stroke-width:0.7595009207725525px"/><line x1="31.23" y1="445.45" x2="31.96" y2="450.77" style="fill:none;stroke:#000;stroke-miterlimit:10;stroke-width:0.7595009207725525px"/><line x1="36.13" y1="443.74" x2="53.14" y2="442.84" style="fill:none;stroke:#000;stroke-miterlimit:10;stroke-width:0.7595009207725525px"/><path d="M37.37,478.9a5.8,5.8,0,0,1,2.94,3.27c3.19,6.79,3.36,14.72,6.63,21.42,2.86,5.89,15.85,14,16.67,15.37a87,87,0,0,1,.33,10.71l-37.28-7.52" transform="translate(-4.75 -27.64)" style="fill:none;stroke:#000;stroke-miterlimit:10;stroke-width:0.7595009207725525px"/><polyline points="59.1 502.02 65.56 508.4 69.16 503 62.86 484.37" style="fill:none;stroke:#000;stroke-miterlimit:10;stroke-width:0.7595009207725525px"/><polyline points="86.65 502.27 69.16 503 59.18 500.06" style="fill:none;stroke:#000;stroke-miterlimit:10;stroke-width:0.7595009207725525px"/><path d="M40.23,471.46c3.84,1.23,6.54,4.91,8,8.67s2,7.93,3,11.85c2.7,9.57,14.38,20.28,16.35,20.28L83.31,512" transform="translate(-4.75 -27.64)" style="fill:none;stroke:#000;stroke-miterlimit:10;stroke-width:0.7595009207725525px"/><path d="M67.54,496.72a24.15,24.15,0,0,0-3.27-.73,1.43,1.43,0,0,0-.82,0c-.49.24-.57,1-.49,1.47.16,2.53.41,5.07.57,7.68a.91.91,0,0,0,.16.66c.25.49.9.49,1.47.41s1.15-.25,1.56.08" transform="translate(-4.75 -27.64)" style="fill:none;stroke:#000;stroke-miterlimit:10;stroke-width:0.7595009207725525px"/><path d="M86.25,212.17c-3.92-.17-5.88-.41-8.17,2.78s-4.9,9.56-6.21,13.24a109.44,109.44,0,0,1-5.72,13.32s2.94,12,2.45,16.52a7.76,7.76,0,0,0,4,2.37,34.2,34.2,0,0,0,5.81.32c4.66,0,7.76.25,12.42.17,1.88,0,3.76-.09,5.64-.09a3.21,3.21,0,0,0,1.56-.24,1.21,1.21,0,0,0,.73-1.31" transform="translate(-4.75 -27.64)" style="fill:#fff;stroke:#000;stroke-miterlimit:10;stroke-width:1.5190836191177368px"/><path d="M86.58,218.3c-2.12-.66-3.43-.49-5.07,1.06s-3.1,5.48-3.92,7.52a174.59,174.59,0,0,0-7.52,21.17,7.19,7.19,0,0,0-.33,3.19,4.67,4.67,0,0,0,3.35,3.27,50.24,50.24,0,0,0,9.73.41" transform="translate(-4.75 -27.64)" style="fill:none;stroke:#000;stroke-miterlimit:10;stroke-width:1.5190836191177368px"/><path d="M141.6,259.33a16,16,0,0,1-3.52.33,7.36,7.36,0,0,1-3.76-.9,3.79,3.79,0,0,1-1.47-1.31,2.07,2.07,0,0,1-.33-1.55c-1.06-.16-5.8-.65-5.8-.65a32.14,32.14,0,0,0,1.72,4.66,9.67,9.67,0,0,0,3.27,4,10.51,10.51,0,0,0,5.47,1.64,27.41,27.41,0,0,0,5.72-.49l-1.3-5.73" transform="translate(-4.75 -27.64)" style="fill:#fff;stroke:#000;stroke-miterlimit:10;stroke-width:1.5190836191177368px"/><path d="M77.84,255.08c2.12,7.85,13.07,50.36,30.32,133.17L120.1,387S93.29,259,89,253.77c-2.45-.49-7.6-.24-10.13-.08a1.09,1.09,0,0,0-1.07,1.11A.9.9,0,0,0,77.84,255.08Z" transform="translate(-4.75 -27.64)" style="fill:#fff;stroke:#000;stroke-miterlimit:10;stroke-width:1.5190836191177368px"/><path d="M87,487.73a123.78,123.78,0,0,1,17.33.41" transform="translate(-4.75 -27.64)" style="fill:none;stroke:#000;stroke-miterlimit:10;stroke-width:1.5190836191177368px"/><path d="M141.52,258.76s29.67,116.16,30.24,126.05l9.89-.73s-25.75-115.67-28-118.7S141.52,258.76,141.52,258.76Z" transform="translate(-4.75 -27.64)" style="fill:#fff;stroke:#000;stroke-miterlimit:10;stroke-width:1.5190836191177368px"/><polygon points="170.03 435.64 164.15 445.13 171.59 449.46 178.94 435.48 170.03 435.64" style="fill:#fff;stroke:#000;stroke-miterlimit:10;stroke-width:1.5190836191177368px"/><path d="M54.86,215.68c8.51,11.69,12.27,26.16,13.66,40.47s.49,28.77.73,43.24c.25,19.86,2.45,39.73,7.69,58.86,6.37,23.38,17.24,45.53,22.31,69.23s1.56,53.55-22,68.34" transform="translate(-4.75 -27.64)" style="fill:none;stroke:#000;stroke-miterlimit:10;stroke-width:1.5190836191177368px"/><path d="M76,141.29c-12.43,29.76-13.74,49-23.46,79.62-5.81,18.4-16.35,26.24-15.78,45.54.73,24.6,7.52,65.23,18.55,87.22s23.3,43.81,28.53,67.85,4.75,57.87-18,70.79" transform="translate(-4.75 -27.64)" style="fill:none;stroke:#000;stroke-miterlimit:10;stroke-width:1.5190836191177368px"/><path d="M67.13,507.35a4.19,4.19,0,0,0,2.94-.49A3.11,3.11,0,0,1,73,506.7c1,.57,1.31,2,2.29,2.45a3.11,3.11,0,0,0,2.54-.33,5.28,5.28,0,0,1,2.45-.9c1.14,0,2,.9,2.94,1.64a4,4,0,0,0,3,1.44c1.07-.08,1.88-.9,3-1.06.73-.09,1.55.24,2.28,0a2.07,2.07,0,0,0,1.31-1.8,5.4,5.4,0,0,0-.32-2.29c-.66-2.29-1.23-4.58-1.88-6.87a4,4,0,0,0-1.39-2.45,4.87,4.87,0,0,0-1.8-.41c-4.58-.24-9.24-.41-13.82-.65-1.47-.08-3.59-.58-4.9.32s-1.15,2.37-1.15,3.68A67,67,0,0,0,67.13,507.35Z" transform="translate(-4.75 -27.64)" style="fill:#fff;stroke:#000;stroke-miterlimit:10;stroke-width:0.7595009207725525px"/><path d="M67.7,497.46a32.4,32.4,0,0,0,8.42,1.23l7.85.49a1.94,1.94,0,0,1,1.14.32,1.53,1.53,0,0,1,.41.82c.49,1.72,1,3.43,1.47,5.23a3,3,0,0,0,.82,1.72c.57.57,3.84.41,4.58.65" transform="translate(-4.75 -27.64)" style="fill:none;stroke:#000;stroke-miterlimit:10;stroke-width:0.7595009207725525px"/><path d="M87.56,507.19c.17.24-2.94,2.69-4.25,2.69" transform="translate(-4.75 -27.64)" style="fill:none;stroke:#000;stroke-miterlimit:10;stroke-width:0.7595009207725525px"/><path d="M85,499.42a14.77,14.77,0,0,0,4.49-2.37" transform="translate(-4.75 -27.64)" style="fill:none;stroke:#000;stroke-miterlimit:10;stroke-width:0.7595009207725525px"/><path d="M177.48,231.7c-6.21,16.52-6.86,34.83-4.41,52.32,9.65,70.47,9.07,131.61,16.18,197.17,12-1.06,23.47-4.41,35.73-8.17" transform="translate(-4.75 -27.64)" style="fill:none;stroke:#000;stroke-miterlimit:10;stroke-width:1.5190836191177368px"/><path d="M353.48,490.18c3.44,2,4.09,2.62,5.07,4.83a29.19,29.19,0,0,1-2.62,28.2c1.31,4.17-1.47,9-5.15,11.36s-8.09,2.94-12.42,3.6l-63.44,8.58c-14.06,2-28.28,3.93-42.59,4.33-.89,0-1.71.09-2.61.09-21.91.32-43.74-2.78-65.48-4.66-9.56-.82-16.59-2.21-26.24-2.7-10-.49-42-5-51.91-6.54-8.58-1.31-10.87.08-15.78-.41-12.18-1.47-13.07-1.72-27.05-3.92-3.85-.66-10-1.31-14.55-3.52a59,59,0,0,1-2.29-8.25c-.33-13.41-1.15-28-.33-46.27,1.39-4.09,5.8-14.55,7.28-18.4-.82-8.25-1.31-16.26-2.7-32,.57-5,1.31-11.77,2.29-20.44,1.3-2.2,2-2.86,3.1-5a40.9,40.9,0,0,0,1.07-10.47c.24-18.47,1.47-30.41-.33-47.82-2.13-20.76-1.88-36.7-4.74-62.62-1.23-11.19-.66-22.48,2.86-33.1s8.5-20.77,12.26-31.39c7-19.95,9.65-41.45,19.54-60.09,3.43-6.45,8-12.83,14.79-15.61,4.58-1.88,9.65-2,14.55-2,8.83-.08,17.83-.08,26.57,1.39s17.33,4.74,24,10.54c7.6,6.54,12.26,15.86,14.79,25.51a154.31,154.31,0,0,1,4.58,30c.82,14.47,9.89,27.14,20.93,36.54,7.76,6.62,17.08,11.36,25.09,17.74s15.21,15,16.11,25.18c.81,9.81-4.17,19-7.61,28.28a95.59,95.59,0,0,0,7,80.6c9.24,15.7,15.13,33.68,15.54,51.91.16,5.89-.33,12-3.36,17.09-3.35,5.55-9.15,9-14.79,12.18.32,1.88.73,3.67,1.06,5.55a174.33,174.33,0,0,0,30,1.58" transform="translate(-4.75 -27.64)" style="fill:none;stroke:#000;stroke-miterlimit:10;stroke-width:2.6114537715911865px"/><path d="M96.72,422.42c3.76,18.23,4.33,23.13,5,40.79a5.81,5.81,0,0,0,.41,2.37c1.07,2,3.93,2,6.13,1.63a352.83,352.83,0,0,1,59.43-4c9,.16,18.23.65,26.9-1.88s16.84-8.67,19-17.5c.9-3.59.66-7.44.41-11.11-.41-6.38-.73-12.76-1.14-19.21-.33-5.24-.66-10.71-3.11-15.37A27.12,27.12,0,0,0,190,384.24c-8.18-1.06-19.95.82-28.12,1.31-24,1.47-45.13-.74-68.83,5.64.41,7.36,1.88,14.8,2.29,22.15Z" transform="translate(-4.75 -27.64)" style="fill:#fff;stroke:#000;stroke-miterlimit:10;stroke-width:1.5190836191177368px"/><path d="M93.45,392.09c6,4.33,9.81,9.15,11.85,16.35,1.47,5.23,1.64,10.62,1.88,16,.33,10.14.66,20.35,1.06,30.49a18.74,18.74,0,0,1-.57,6.79,6.1,6.1,0,0,1-4.74,4.33C99.82,455.69,93.45,392.09,93.45,392.09Z" transform="translate(-4.75 -27.64)" style="fill:#fff;stroke:#000;stroke-miterlimit:10;stroke-width:1.5190836191177368px"/><path d="M185.66,384.4c7,3.52,12.75,10.3,13.73,18.07,6.46,51.5-6.29,57.71-11.93,60" transform="translate(-4.75 -27.64)" style="fill:#fff;stroke:#000;stroke-miterlimit:10;stroke-width:0.7595009207725525px"/><path d="M125.49,201.54c-10.71-3.43-21.09-8.18-32.12-10.46-3-.66-6.79-.82-8.67,1.71-1.14,1.64-1.14,3.76-.9,5.72,1.23,13.41,6.13,27,2.86,40.06-1.39,5.48-4.25,10.87-3.51,16.51.24,2.13,1.14,4.34,3,5.4,2.21,1.22,5,.49,7.44-.33,9.32-2.94,19-5.23,28.69-5.23s19.71,2.7,27.39,8.75a40.41,40.41,0,0,0,4.74,3.59,6.75,6.75,0,0,0,5.72.74c2.29-.82,3.6-3.27,4-5.64s-.08-4.83-.25-7.2c-1.39-15.28,4.83-30.16,8.67-45a5.15,5.15,0,0,0-.16-4.25,4.63,4.63,0,0,0-2.62-1.63c-2.86-1-13.08-.17-15.12.32-6.13,1.31-12.59.82-18.72-.41A68.25,68.25,0,0,1,125.49,201.54Z" transform="translate(-4.75 -27.64)" style="fill:#fff;stroke:#000;stroke-miterlimit:10;stroke-width:1.5190836191177368px"/><path d="M90.67,191a168.08,168.08,0,0,1,6.7,20.77c.9,3.35,2.13,11.28,2.54,14.71.73,5.89.24,11.85-.25,17.82a60.59,60.59,0,0,1-4.17,15.53" transform="translate(-4.75 -27.64)" style="fill:none;stroke:#000;stroke-miterlimit:10;stroke-width:0.7595009207725525px"/><path d="M108.57,195.57c3.11,8,3,8.67,5,16.19.9,3.35,2.12,11.28,2.53,14.71.74,5.89.25,11.85-.24,17.82-.41,4.17-.17,6.87-2,10.71" transform="translate(-4.75 -27.64)" style="fill:none;stroke:#000;stroke-miterlimit:10;stroke-width:0.7595009207725525px"/><path d="M163.75,204.07c3.11,5.89,3.43,12.92,2.21,19.54s-1.23,11-3.84,17.09c-.66,1.47-1.64,3.67-2.78,5.8a44.33,44.33,0,0,1-4,6.38c-4,5.31-5.15,6.94-7.44,8.91" transform="translate(-4.75 -27.64)" style="fill:none;stroke:#000;stroke-miterlimit:10;stroke-width:0.7595009207725525px"/><circle cx="18.88" cy="661.92" r="12.02" style="fill:none;stroke:#000;stroke-miterlimit:10;stroke-width:1.6349174976348877px"/><path d="M11.7,690.05l-.81,1.39a1.42,1.42,0,0,1-2,.46,1.81,1.81,0,0,1-.33-.29l-1.88-2.46a5.28,5.28,0,0,1-.9-1.47,5,5,0,0,1-.17-2.45,16.32,16.32,0,0,1,17.58-14.47,1.26,1.26,0,0,1,1,.57,4.33,4.33,0,0,0,2,1.56,13.25,13.25,0,0,0,3.11.65,19.93,19.93,0,0,0,5.4.08,8.34,8.34,0,0,0,2.53-.82,1.3,1.3,0,0,1,2,1.07c.08,1.3.33,2.53.49,3.84a15.09,15.09,0,0,1-.08,6.62,6,6,0,0,1-4.41,4.5" transform="translate(-4.75 -27.64)" style="fill:none;stroke:#000;stroke-miterlimit:10;stroke-width:1.6349174976348877px"/><path d="M23.56,670.84a2.25,2.25,0,0,0,0,2.37,3.83,3.83,0,0,0,1.88,1.56,12.12,12.12,0,0,0,2.45.65" transform="translate(-4.75 -27.64)" style="fill:none;stroke:#000;stroke-miterlimit:10;stroke-width:0.7595009207725525px"/><path d="M37.78,672.48V669.7" transform="translate(-4.75 -27.64)" style="fill:none;stroke:#000;stroke-miterlimit:10;stroke-width:0.7595009207725525px"/><line x1="19.05" y1="643.12" x2="19.05" y2="641.89" style="fill:none;stroke:#000;stroke-miterlimit:10;stroke-width:0.7595009207725525px"/><circle cx="328.95" cy="659.79" r="12.02" style="fill:none;stroke:#000;stroke-miterlimit:10;stroke-width:1.6349174976348877px"/><path d="M345.55,687.93l.82,1.39a1.42,1.42,0,0,0,2,.45,1.81,1.81,0,0,0,.33-.29l1.88-2.45a5.28,5.28,0,0,0,.9-1.47,5,5,0,0,0,.16-2.46A16.32,16.32,0,0,0,334,668.63a1.24,1.24,0,0,0-1,.58,4.38,4.38,0,0,1-2.05,1.55,13.06,13.06,0,0,1-3.1.65,19.93,19.93,0,0,1-5.4.09,8.34,8.34,0,0,1-2.53-.82,1.31,1.31,0,0,0-2,1.06c-.08,1.31-.32,2.54-.49,3.84a15.09,15.09,0,0,0,.09,6.62,6,6,0,0,0,4.41,4.5" transform="translate(-4.75 -27.64)" style="fill:none;stroke:#000;stroke-miterlimit:10;stroke-width:1.6349174976348877px"/><path d="M333.7,668.72a2.25,2.25,0,0,1,0,2.37,3.91,3.91,0,0,1-1.88,1.55,12.12,12.12,0,0,1-2.45.65" transform="translate(-4.75 -27.64)" style="fill:none;stroke:#000;stroke-miterlimit:10;stroke-width:0.7595009207725525px"/><path d="M319.56,670.35v-2.78" transform="translate(-4.75 -27.64)" style="fill:none;stroke:#000;stroke-miterlimit:10;stroke-width:0.7595009207725525px"/><line x1="328.78" y1="640.91" x2="328.78" y2="639.68" style="fill:none;stroke:#000;stroke-miterlimit:10;stroke-width:0.7595009207725525px"/><path d="M189,696.76l-.25,24.36L167.92,721s0-20,.08-24.27a.82.82,0,0,1,.82-.82h0l19.21-.25A1.07,1.07,0,0,1,189,696.76Z" transform="translate(-4.75 -27.64)" style="fill:none;stroke:#000;stroke-miterlimit:10;stroke-width:1.6349174976348877px"/><path d="M168.33,699.21a7.57,7.57,0,0,0-3.84,2.45,7.12,7.12,0,0,0-.9,3.52c-.25,2.77-.41,5.64-.41,8.42a24.78,24.78,0,0,0,.9,7.76,10.5,10.5,0,0,0,4.66,6c.9.49,2.29.74,2.86-.16a2.36,2.36,0,0,0,.32-1.47,38.88,38.88,0,0,0,0-4.58" transform="translate(-4.75 -27.64)" style="fill:none;stroke:#000;stroke-miterlimit:10;stroke-width:1.6349174976348877px"/><path d="M188.93,699.21a7.64,7.64,0,0,1,3.84,2.45,7.34,7.34,0,0,1,.9,3.52c.24,2.77.41,5.64.41,8.42a24.78,24.78,0,0,1-.9,7.76,10.5,10.5,0,0,1-4.66,6c-.9.49-2.29.74-2.86-.16a2.31,2.31,0,0,1-.33-1.47,43.73,43.73,0,0,1,0-4.58" transform="translate(-4.75 -27.64)" style="fill:none;stroke:#000;stroke-miterlimit:10;stroke-width:1.6349174976348877px"/><path d="M168.82,695.86v-3a.65.65,0,0,1,.67-.65h.06c2,.32,6.95,1.31,9.32,1.22a42.38,42.38,0,0,0,8.83-1.14.47.47,0,0,1,.56.36.07.07,0,0,1,0,.05l.09,3.43" transform="translate(-4.75 -27.64)" style="fill:none;stroke:#000;stroke-miterlimit:10;stroke-width:1.6349174976348877px"/><path d="M151.9,205.14c4.33,17.9,6.45,30.9-13.74,52.31" transform="translate(-4.75 -27.64)" style="fill:none;stroke:#000;stroke-miterlimit:10;stroke-width:0.7595009207725525px"/><path d="M107.59,388.16c7.11,7.85,11.2,18.07,13.16,28.45s2,21.09,2,31.64c0,6,0,12.18-2.87,17.41" transform="translate(-4.75 -27.64)" style="fill:#fff;stroke:#000;stroke-miterlimit:10;stroke-width:0.7595009207725525px"/><path d="M127,386.69c14.56,16,18.56,51.67,11.86,77.34" transform="translate(-4.75 -27.64)" style="fill:#fff;stroke:#000;stroke-miterlimit:10;stroke-width:0.7595009207725525px"/><path d="M170.29,384.81a69.42,69.42,0,0,1,12.18,31c1.18,10.32.65,20.77.16,31.15-.32,6.13-2.69,13.08-7.84,16.35" transform="translate(-4.75 -27.64)" style="fill:none;stroke:#000;stroke-miterlimit:10;stroke-width:0.7595009207725525px"/><path d="M142.82,433.21c-2.86,1.88-6.54,2.12-10,1.88-9.73-.66-19-4.17-28.45-6.3a91.89,91.89,0,0,0-37.19-.49,18.46,18.46,0,0,1-5.23.57,6.35,6.35,0,0,1-4.66-2.12c-1.23-1.47-1-3.68-.33-5.15,1.14-3,4.25-4,7.93-5.48,2.94-1.14,6.62-1.55,10.79-1.88,11.36-1,21.25-2.37,32.62-2.7s23.29,1.07,32.86,7.28c2.29,1.47,5.39,3.35,5.39,6.38S145.68,431.41,142.82,433.21Z" transform="translate(-4.75 -27.64)" style="fill:#fff;stroke:#000;stroke-miterlimit:10;stroke-width:1.5190836191177368px"/><path d="M143.31,420.13c-3.18,2.29-7,2.7-10.87,2.37A71,71,0,0,1,121,420.05c-18-4.75-39.16-5.73-57.63-3.36" transform="translate(-4.75 -27.64)" style="fill:none;stroke:#000;stroke-miterlimit:10;stroke-width:0.7595009207725525px"/><path d="M110.7,430.35c1.63,27.71,3.19,61.14,5.23,88.85.08,1.72-.49,1.47-1.47,1.88.16,3.85.49,8.83.65,12.67a5,5,0,0,1,1.64.09c1.63,6.45,1.88,20.84.9,22-2.29,2.69-7.28,2.53-12.43,2.28-3.52-.16-5.07.33-10.55-.73-1.67-3.12-1.47-16.39-.89-22.9a3.74,3.74,0,0,0,1.14-.33c-.33-3.51-.33-8.58-.41-12.18-2.45-.08-2.21-2-2.61-5.23-3.52-27.63-5.65-56.81-8.59-84.52a33.07,33.07,0,0,1-8-.66c-1.14-.24-1-2.37-.33-4.33C74.81,427.24,94.67,424.71,110.7,430.35Z" transform="translate(-4.75 -27.64)" style="fill:#fff;stroke:#000;stroke-miterlimit:10;stroke-width:1.5190836191177368px"/><path d="M83,432.06a95.55,95.55,0,0,0,27.38-.82" transform="translate(-4.75 -27.64)" style="fill:none;stroke:#000;stroke-miterlimit:10;stroke-width:0.7595009207725525px"/><path d="M85.44,426.67a44.24,44.24,0,0,1-.08,5.64" transform="translate(-4.75 -27.64)" style="fill:none;stroke:#000;stroke-miterlimit:10;stroke-width:0.7595009207725525px"/><path d="M89.93,433.13a89.33,89.33,0,0,0,1.23,13.16,12.49,12.49,0,0,1-6.7.08" transform="translate(-4.75 -27.64)" style="fill:none;stroke:#000;stroke-miterlimit:10;stroke-width:0.7595009207725525px"/><path d="M79.55,439.26a2.09,2.09,0,0,0-.65.57c-.57.82-.17,1.88-.08,2.94a1.06,1.06,0,0,0,1,1.06c4.08.25,8.09.41,12.18.41.57,0,1.22,0,1.55-.41a2.22,2.22,0,0,0,.49-1.3,6.72,6.72,0,0,0-.49-2.87,1,1,0,0,0-1-.65l-8.5-.24h-1.8A3.87,3.87,0,0,0,79.55,439.26Z" transform="translate(-4.75 -27.64)" style="fill:#fff;stroke:#000;stroke-miterlimit:10;stroke-width:0.7595009207725525px"/><path d="M93.78,521.57a88.35,88.35,0,0,0,16.1.09,15.26,15.26,0,0,0,4.33-.9" transform="translate(-4.75 -27.64)" style="fill:none;stroke:#000;stroke-miterlimit:10;stroke-width:0.7595009207725525px"/><path d="M93.53,534.57a57.93,57.93,0,0,0,22.56-1" transform="translate(-4.75 -27.64)" style="fill:none;stroke:#000;stroke-miterlimit:10;stroke-width:0.7595009207725525px"/><path d="M227.35,477.35s40.38-6.7,70.71-20.6c22.23-9.48,38.09-17,54.28-11.53,6.62,5.24,13.24,8.91,14.71,30.9s-7.11,41.61-7.11,41.61,6.13-20.19-9.81-30.73c-9.48-7.2-18.31-7.44-51.17-7.69C264.62,479.31,228.74,478.82,227.35,477.35Z" transform="translate(-4.75 -27.64)" style="fill:none;stroke:#000;stroke-miterlimit:10;stroke-width:0.8174587488174438px"/><path d="M358.06,523.7s20.76-15.86,21.34-35.81c-.9-20.51-2.29-30.9-14.72-38.91-5.8-3.43-13.24-6.37-14.71-5.23C354.54,446.37,381.36,467.46,358.06,523.7Z" transform="translate(-4.75 -27.64)" style="fill:red"/><path d="M378.09,495.17s-7.28,30.57-23.3,36.38c0,0,3.6-10.55,9.24-25.51" transform="translate(-4.75 -27.64)" style="fill:none;stroke:#000;stroke-miterlimit:10;stroke-width:0.8174587488174438px"/><path d="M282.77,413l-.16,1.22a2.26,2.26,0,0,0,1.86,2.6l.14,0s7.68,1.22,8.83,1.39c.08,1.06-.41,34-.49,40.87,10.54-3.35,15.12-7.77,24.52-10.46l1.72-30.17,8.91-.49a3.07,3.07,0,0,0,1.55-.32c1.15-.66,1.23-2.21,1.15-3.52A141.46,141.46,0,0,0,281.3,413" transform="translate(-4.75 -27.64)" style="fill:#fff;stroke:#000;stroke-miterlimit:10;stroke-width:1.5190836191177368px"/><path d="M361.25,415.06c-1.15,2.78-4.25,4.33-7.28,4.5a27.1,27.1,0,0,1-8.83-1.48,162.79,162.79,0,0,0-74-2.86,16.89,16.89,0,0,1-6.37.41c-2-.49-4.09-2.21-4.09-4.33s1.8-3.84,3.6-4.91c7.68-4.66,22.89-5.15,31.88-5.23,11.2-.08,16.76-.24,28,.08a90,90,0,0,1,18.64,2.29c3,.74,14.63,4.5,15.45,4.74C361,409.09,362.31,412.61,361.25,415.06Z" transform="translate(-4.75 -27.64)" style="fill:#fff;stroke:#000;stroke-miterlimit:10;stroke-width:1.5190836191177368px"/><path d="M359,408.52c-5.64,2.29-12,.65-17.9-.74a206.68,206.68,0,0,0-68.34-4.33" transform="translate(-4.75 -27.64)" style="fill:none;stroke:#000;stroke-miterlimit:10;stroke-width:0.7595009207725525px"/><path d="M293.15,418.25c8.83.49,17.09.32,25.92.32" transform="translate(-4.75 -27.64)" style="fill:none;stroke:#000;stroke-miterlimit:10;stroke-width:1.5190836191177368px"/><path d="M318.66,426.59a9.15,9.15,0,0,0,2.86-.74,2,2,0,0,0,.65-.49,2.26,2.26,0,0,0,.17-1.06,2,2,0,0,0-.25-1.07,1.32,1.32,0,0,0-.65-.49L319,421.52Z" transform="translate(-4.75 -27.64)" style="fill:#fff;stroke:#000;stroke-miterlimit:10;stroke-width:1.5190836191177368px"/><path d="M64.35,158.79S62.88,224,62.63,238.41c-2.62,9.48-18.72,38.09,13,114.28,12.67,39.24,19.62,58.85,19.62,58.85l-14.15,2s-1.71-12.1-12.67-33.76c-9.81-19.3-24.19-51.91-24.85-64.91-4.33-22.81-6.37-41.28-6.37-41.28s-1.15-18.48,8.09-36C50.45,225.41,64.35,158.79,64.35,158.79Z" transform="translate(-4.75 -27.64)" style="fill:red"/><path d="M177.32,232s46.19,32.7,47.09,40.79c0,0,6.37,10-.41,27.47-3.27,8.82-12.51,27.87-8.83,56,2,11.36,3.1,19.62,15.37,41.77,6,12.51,16.35,36,10.21,59-3.1,5.81-9.07,18.56-50.19,23.79a4.3,4.3,0,0,1-2.12-2.45l-.57-2.7s22.88-5.56,30.4-26.89c1.15-2.86,8.26-17.9,2.29-40.22-3.27-6.13-18.47-34.25-20.19-43.65-1-9.08-3.68-19.79,3.68-39.4,5-14.23,13.08-34.66,6.38-46.93-5-8.82-7.28-12.09-17.66-18.88-21.91-8.83-24-38.58-24-38.58Z" transform="translate(-4.75 -27.64)" style="fill:red"/><polygon points="61.96 464.34 63.85 468.18 66.95 467.77 72.51 468.18 77.33 464.91 82.24 460.09 83.87 457.96 82.32 444.31 81.42 434.17 76.35 447.42 73.49 453.95 69.98 457.96 61.96 464.34" style="fill:red"/></g></g></g></g></svg>