<svg id="Camada_1" data-name="Camada 1" xmlns="http://www.w3.org/2000/svg" viewBox="0 0 1194.91 638"><defs><style>.cls-1,.cls-5,.cls-6{fill:#fff;}.cls-1,.cls-2,.cls-4,.cls-5,.cls-6{stroke:#1d1d1b;}.cls-1,.cls-2,.cls-3,.cls-4,.cls-5,.cls-6{stroke-miterlimit:10;}.cls-1,.cls-2{stroke-width:2px;}.cls-2{fill:#adadad;}.cls-3,.cls-4{fill:none;}.cls-3{stroke:#ff29ff;stroke-width:1.35px;}.cls-4{stroke-width:0.75px;}.cls-5{stroke-width:2.28px;}.cls-6{stroke-width:2.9px;}</style></defs><title>kit</title><path class="cls-1" d="M224.5,197.67c7.17,7.66,34.33,1.83,55.65-17.79,20.73-19.09,29.42-33.14,22.33-42.39s-31-2.86-53.33,14.27C231.24,165.48,214.75,187.24,224.5,197.67Z"/><ellipse class="cls-1" cx="261.2" cy="369.71" rx="140.67" ry="161.67"/><ellipse class="cls-2" cx="281.15" cy="366.78" rx="140.67" ry="161.67"/><ellipse class="cls-3" cx="375.34" cy="379.11" rx="40.25" ry="41.47"/><path class="cls-1" d="M185.59,447.47l-9.5-26.16s-14.34-2.67-15.67-.73,7.33,20.06,7.33,20.06Z"/><polygon class="cls-1" points="161.21 462.07 172.93 427.81 178.59 428.19 184.72 445.08 176.75 464.64 161.21 462.07"/><polygon class="cls-1" points="185.59 447.47 194.42 461.97 176.75 464.64 183.99 446.86 185.59 447.47"/><path class="cls-1" d="M143.62,458.48c-2.72,1.34-8.28,9.33-8.28,9.33-2,.16-2.57,1.76-2.71,3.16a5.67,5.67,0,0,0,.56,3c.39.81.59,1.76-1.06,2.12-3.17.67-1.57,4.13-1.21,4.87.6,1.24-.86,2.13-.86,2.13-2.33.42-1.81,4.54-1,5.66s-.46,2-.46,2c-2.75.88-2.38,5-1.84,5.88a1.28,1.28,0,0,1,.1,1,2.4,2.4,0,0,1-1.33,1.56c-2.13,1.07-1.66,3.92-1,4.87a1.57,1.57,0,0,1-.25,2c-3.75,1.34-2.59,5.17-2.25,6.09a3.58,3.58,0,0,1-.19,2.16,6,6,0,0,0,0,8.75c-.5,10.34,9,15.34,9,15.34l50.54,10.58,24.63-82.25-60.5-8.88Z"/><line class="cls-4" x1="121.92" y1="522.56" x2="171.09" y2="533.47"/><line class="cls-4" x1="123.07" y1="513.87" x2="172.76" y2="523.64"/><line class="cls-4" x1="125.27" y1="505.59" x2="174.43" y2="515.51"/><line class="cls-4" x1="127.57" y1="497.41" x2="177.59" y2="507.64"/><line class="cls-4" x1="130.32" y1="489.77" x2="179.48" y2="500.26"/><line class="cls-4" x1="131.82" y1="481.92" x2="181.67" y2="492.14"/><line class="cls-4" x1="134.15" y1="475.11" x2="184" y2="485.31"/><line class="cls-4" x1="135.34" y1="467.81" x2="186.71" y2="476.89"/><path class="cls-4" d="M145.21,527.59s-3.25-5.7,1.29-9.11"/><path class="cls-4" d="M146.5,518.48s-2.07-5.43,2-8.2"/><path class="cls-4" d="M148.45,510.43s-1.61-5.48,2.44-8.25"/><path class="cls-4" d="M150.89,502.18s-1-5.57,2.67-7.44"/><path class="cls-4" d="M153.56,494.74s-1.26-5.85,2.74-7.71"/><path class="cls-4" d="M155.88,487.51s-1.25-5.85,2.75-7.71"/><path class="cls-4" d="M158.28,479.93s-1.25-5.85,2.74-7.71"/><path class="cls-4" d="M160.79,472.35s1.71-7.17,7.07-9.18"/><ellipse class="cls-1" cx="335.09" cy="374.12" rx="140.67" ry="161.67"/><ellipse class="cls-1" cx="356.09" cy="376.64" rx="140.67" ry="161.67"/><ellipse class="cls-5" cx="372.75" cy="379.25" rx="37.75" ry="44.25"/><path class="cls-1" d="M305.2,216.11s-11.7-4.41-22.7-1.14-31.25,9.78-38.75,5.78S225.5,199.5,225.5,199.5,253.61,210.92,287,175c30.83-33.17,13.25-39.75,13.25-39.75L366.5,215S348.66,209.47,305.2,216.11Z"/><path class="cls-1" d="M305.2,216.11,295.75,204l31-12.5L344,212.77A136,136,0,0,0,305.2,216.11Z"/><path class="cls-1" d="M249.33,187.83s27.34-10.16,37.84-30.5c0,0,2.66-4.66,1.5-7-1.47-2.93-6-4.16-6-4.16A62.72,62.72,0,0,1,267,165.33C255.33,175,243.33,180,242,179.67S244.33,186,249.33,187.83Z"/><ellipse class="cls-6" cx="255.55" cy="153.8" rx="37.47" ry="16.39" transform="translate(-38.31 204.83) rotate(-40.89)"/><path class="cls-1" d="M191,117.83l41,49.26s28.63-14.34,30.75-25.34,0-11.5,0-11.5L232,91.17Z"/><path class="cls-1" d="M192.17,113.83s-3.17,1.67-1.17,4,15.33.34,28-8.5,13-18.16,13-18.16-1.17-4.34-4.67.16S192.17,113.83,192.17,113.83Z"/><path class="cls-1" d="M192.17,113.83l-9.4-12.16L217,75l10.34,16.35s-7.16,11.5-14.33,16.34S200.33,114.33,192.17,113.83Z"/><path class="cls-1" d="M191,78.17c-9.46,8.19-13.33,17-10.18,21.9,3.85,6,16.13,3.12,25.59-5.07s14.47-17.48,9.8-22.87S200.46,70,191,78.17Z"/><path class="cls-1" d="M197.62,536.58l17.09-54.07s2.13-11-5.37-13.5-11.5.13-14,2.38c-1.61,1.44-8.32,18-12.91,29.65a169.73,169.73,0,0,0-7.15,22.66L173,533.39s-2.25,13,8.25,14.5c7.88,1.12,10-.07,12.39-3.32A27.17,27.17,0,0,0,197.62,536.58Z"/><path class="cls-1" d="M529.89,185.17c7.16,7.67,34.33,1.84,55.64-17.79C606.26,148.3,615,134.25,607.87,125s-31-2.86-53.33,14.27C536.63,153,520.14,174.74,529.89,185.17Z"/><ellipse class="cls-1" cx="566.59" cy="357.21" rx="140.67" ry="161.67"/><ellipse class="cls-2" cx="586.53" cy="354.28" rx="140.67" ry="161.67"/><ellipse class="cls-3" cx="680.72" cy="366.62" rx="40.25" ry="41.47"/><path class="cls-1" d="M491,435l-9.5-26.17s-14.33-2.66-15.66-.72,7.33,20.06,7.33,20.06Z"/><polygon class="cls-1" points="466.6 449.57 478.32 415.31 483.97 415.7 490.1 432.58 482.14 452.15 466.6 449.57"/><polygon class="cls-1" points="490.97 434.98 499.81 449.48 482.14 452.15 489.38 434.37 490.97 434.98"/><path class="cls-1" d="M449,446c-2.72,1.34-8.29,9.33-8.29,9.33-2,.16-2.57,1.76-2.7,3.17a5.61,5.61,0,0,0,.56,3c.38.82.59,1.77-1.07,2.12-3.16.68-1.56,4.14-1.2,4.88.6,1.24-.86,2.13-.86,2.13-2.34.41-1.81,4.53-1,5.66s-.46,2-.46,2c-2.75.87-2.37,5-1.83,5.87a1.3,1.3,0,0,1,.1,1,2.43,2.43,0,0,1-1.33,1.56c-2.14,1.07-1.66,3.92-1,4.87a1.57,1.57,0,0,1-.25,2c-3.75,1.33-2.58,5.17-2.25,6.08a3.55,3.55,0,0,1-.18,2.17,6,6,0,0,0,0,8.75c-.5,10.33,9,15.33,9,15.33l50.54,10.59,24.62-82.25L451,445.27Z"/><line class="cls-4" x1="427.31" y1="510.06" x2="476.47" y2="520.98"/><line class="cls-4" x1="428.46" y1="501.38" x2="478.15" y2="511.15"/><line class="cls-4" x1="430.65" y1="493.1" x2="479.82" y2="503.02"/><line class="cls-4" x1="432.96" y1="484.92" x2="482.97" y2="495.15"/><line class="cls-4" x1="435.7" y1="477.27" x2="484.87" y2="487.77"/><line class="cls-4" x1="437.21" y1="469.42" x2="487.06" y2="479.65"/><line class="cls-4" x1="439.54" y1="462.62" x2="489.39" y2="472.81"/><line class="cls-4" x1="440.72" y1="455.31" x2="492.1" y2="464.4"/><path class="cls-4" d="M450.6,515.1s-3.25-5.7,1.29-9.12"/><path class="cls-4" d="M451.89,506s-2.07-5.43,2-8.2"/><path class="cls-4" d="M453.83,497.93s-1.6-5.47,2.45-8.24"/><path class="cls-4" d="M456.28,489.69s-1-5.57,2.66-7.44"/><path class="cls-4" d="M458.94,482.25s-1.25-5.85,2.75-7.72"/><path class="cls-4" d="M461.27,475s-1.25-5.85,2.74-7.71"/><path class="cls-4" d="M463.67,467.44s-1.25-5.85,2.74-7.72"/><path class="cls-4" d="M466.18,459.85s1.71-7.16,7.07-9.17"/><ellipse class="cls-1" cx="640.47" cy="361.62" rx="140.67" ry="161.67"/><ellipse class="cls-1" cx="661.47" cy="364.15" rx="140.67" ry="161.67"/><ellipse class="cls-5" cx="678.14" cy="366.76" rx="37.75" ry="44.25"/><path class="cls-1" d="M610.59,203.62s-11.7-4.42-22.7-1.14-31.25,9.78-38.75,5.78S530.89,187,530.89,187s28.11,11.41,61.5-24.5c30.83-33.17,13.25-39.75,13.25-39.75l66.25,79.72S654,197,610.59,203.62Z"/><path class="cls-1" d="M610.59,203.62l-9.45-12.11,31-12.5,17.25,21.27A136,136,0,0,0,610.59,203.62Z"/><path class="cls-1" d="M554.72,175.34s27.33-10.17,37.83-30.5c0,0,2.67-4.67,1.5-7-1.46-2.94-6-4.17-6-4.17a62.87,62.87,0,0,1-15.66,19.17c-11.67,9.67-23.67,14.63-25,14.33S549.72,173.51,554.72,175.34Z"/><ellipse class="cls-6" cx="560.94" cy="141.31" rx="37.47" ry="16.39" transform="translate(44.4 401.71) rotate(-40.89)"/><path class="cls-1" d="M496.39,105.34l41,49.25s28.62-14.33,30.75-25.33,0-11.5,0-11.5L537.39,78.67Z"/><path class="cls-1" d="M497.55,101.34s-3.16,1.67-1.16,4,15.33.33,28-8.5,13-18.17,13-18.17-1.17-4.33-4.67.17S497.55,101.34,497.55,101.34Z"/><path class="cls-1" d="M497.55,101.34l-9.4-12.16,34.23-26.69,10.34,16.35s-7.17,11.5-14.33,16.33S505.72,101.84,497.55,101.34Z"/><path class="cls-1" d="M496.39,65.67c-9.47,8.2-13.34,17-10.18,21.91,3.85,6,16.12,3.12,25.59-5.08S526.27,65,521.6,59.63,505.85,57.48,496.39,65.67Z"/><path class="cls-1" d="M503,524.09,520.1,470s2.12-11-5.38-13.5-11.5.13-14,2.38c-1.6,1.44-8.31,18-12.91,29.65a171.15,171.15,0,0,0-7.14,22.66l-2.32,9.69s-2.25,13,8.25,14.5c7.87,1.12,10-.07,12.39-3.33A27.11,27.11,0,0,0,503,524.09Z"/><path class="cls-1" d="M808.34,185.17c7.16,7.67,34.33,1.84,55.64-17.79,20.73-19.08,29.42-33.13,22.34-42.38s-31-2.86-53.34,14.27C815.07,153,798.59,174.74,808.34,185.17Z"/><ellipse class="cls-1" cx="845.04" cy="357.21" rx="140.67" ry="161.67"/><ellipse class="cls-2" cx="864.98" cy="354.28" rx="140.67" ry="161.67"/><ellipse class="cls-3" cx="959.17" cy="366.62" rx="40.25" ry="41.47"/><path class="cls-1" d="M769.42,435l-9.5-26.17s-14.33-2.66-15.67-.72,7.34,20.06,7.34,20.06Z"/><polygon class="cls-1" points="745.05 449.57 756.77 415.31 762.42 415.7 768.55 432.58 760.59 452.15 745.05 449.57"/><polygon class="cls-1" points="769.42 434.98 778.25 449.48 760.59 452.15 767.83 434.37 769.42 434.98"/><path class="cls-1" d="M727.45,446c-2.71,1.34-8.28,9.33-8.28,9.33-2,.16-2.57,1.76-2.71,3.17a5.72,5.72,0,0,0,.57,3c.38.82.58,1.77-1.07,2.12-3.16.68-1.57,4.14-1.21,4.88.61,1.24-.85,2.13-.85,2.13-2.34.41-1.81,4.53-1,5.66s-.46,2-.46,2c-2.75.87-2.37,5-1.83,5.87a1.3,1.3,0,0,1,.1,1,2.44,2.44,0,0,1-1.34,1.56c-2.13,1.07-1.65,3.92-1,4.87a1.57,1.57,0,0,1-.25,2c-3.75,1.33-2.58,5.17-2.25,6.08a3.63,3.63,0,0,1-.18,2.17,6,6,0,0,0,0,8.75c-.5,10.33,9,15.33,9,15.33L765.3,536.4l24.62-82.25-60.5-8.88Z"/><line class="cls-4" x1="705.75" y1="510.06" x2="754.92" y2="520.98"/><line class="cls-4" x1="706.91" y1="501.38" x2="756.6" y2="511.15"/><line class="cls-4" x1="709.1" y1="493.1" x2="758.27" y2="503.02"/><line class="cls-4" x1="711.41" y1="484.92" x2="761.42" y2="495.15"/><line class="cls-4" x1="714.15" y1="477.27" x2="763.32" y2="487.77"/><line class="cls-4" x1="715.66" y1="469.42" x2="765.5" y2="479.65"/><line class="cls-4" x1="717.98" y1="462.62" x2="767.84" y2="472.81"/><line class="cls-4" x1="719.17" y1="455.31" x2="770.55" y2="464.4"/><path class="cls-4" d="M729.05,515.1s-3.25-5.7,1.29-9.12"/><path class="cls-4" d="M730.34,506s-2.08-5.43,2-8.2"/><path class="cls-4" d="M732.28,497.93s-1.6-5.47,2.45-8.24"/><path class="cls-4" d="M734.73,489.69s-1-5.57,2.66-7.44"/><path class="cls-4" d="M737.39,482.25s-1.25-5.85,2.75-7.72"/><path class="cls-4" d="M739.72,475s-1.25-5.85,2.74-7.71"/><path class="cls-4" d="M742.12,467.44s-1.26-5.85,2.74-7.72"/><path class="cls-4" d="M744.63,459.85s1.71-7.16,7.06-9.17"/><ellipse class="cls-1" cx="918.92" cy="361.62" rx="140.67" ry="161.67"/><ellipse class="cls-1" cx="939.92" cy="364.15" rx="140.67" ry="161.67"/><ellipse class="cls-5" cx="956.59" cy="366.76" rx="37.75" ry="44.25"/><path class="cls-1" d="M889,203.62s-11.7-4.42-22.7-1.14-31.25,9.78-38.75,5.78S809.34,187,809.34,187s28.11,11.41,61.5-24.5c30.83-33.17,13.25-39.75,13.25-39.75l66.25,79.72S932.49,197,889,203.62Z"/><path class="cls-1" d="M889,203.62l-9.45-12.11,31-12.5,17.24,21.27A135.92,135.92,0,0,0,889,203.62Z"/><path class="cls-1" d="M833.17,175.34s27.33-10.17,37.83-30.5c0,0,2.67-4.67,1.5-7-1.47-2.94-6-4.17-6-4.17a62.87,62.87,0,0,1-15.66,19.17c-11.67,9.67-23.67,14.63-25,14.33S828.17,173.51,833.17,175.34Z"/><ellipse class="cls-6" cx="839.39" cy="141.31" rx="37.47" ry="16.39" transform="translate(112.36 583.99) rotate(-40.89)"/><path class="cls-1" d="M774.84,105.34l41,49.25s28.62-14.33,30.75-25.33,0-11.5,0-11.5L815.84,78.67Z"/><path class="cls-1" d="M776,101.34s-3.16,1.67-1.16,4,15.33.33,28-8.5,13-18.17,13-18.17-1.17-4.33-4.67.17S776,101.34,776,101.34Z"/><path class="cls-1" d="M776,101.34l-9.4-12.16,34.23-26.69,10.34,16.35S804,90.34,796.84,95.17,784.17,101.84,776,101.34Z"/><path class="cls-1" d="M774.84,65.67c-9.47,8.2-13.34,17-10.19,21.91,3.86,6,16.13,3.12,25.59-5.08S804.72,65,800,59.63,784.3,57.48,774.84,65.67Z"/><path class="cls-1" d="M781.45,524.09,798.55,470s2.12-11-5.38-13.5-11.5.13-14,2.38c-1.6,1.44-8.31,18-12.91,29.65a168.25,168.25,0,0,0-7.14,22.66l-2.32,9.69s-2.25,13,8.25,14.5c7.87,1.12,10-.07,12.39-3.33A27.09,27.09,0,0,0,781.45,524.09Z"/></svg>