<?xml version="1.0" encoding="utf-8"?>
<!-- Generator: Adobe Illustrator 23.0.1, SVG Export Plug-In . SVG Version: 6.00 Build 0)  -->
<svg version="1.1" id="Camada_1" xmlns="http://www.w3.org/2000/svg" xmlns:xlink="http://www.w3.org/1999/xlink" x="0px" y="0px"
	 viewBox="0 0 600 600" style="enable-background:new 0 0 600 600;" xml:space="preserve">
<style type="text/css">
	.st0{fill:#E8E7E7;}
	.st1{fill:#E7E6E6;}
	.st2{fill:#FFFFFF;}
	.st3{fill:#D3D3D3;}
	.st4{fill:none;stroke:#020203;stroke-width:0.96;stroke-miterlimit:10;}
	.st5{fill:none;stroke:#020203;stroke-width:0.48;stroke-miterlimit:10;}
	.st6{fill:none;stroke:#020203;stroke-width:0.91;stroke-miterlimit:10;}
	.st7{fill:none;stroke:#020203;stroke-width:0.79;stroke-miterlimit:10;}
	.st8{fill:none;stroke:#020203;stroke-width:0.5;stroke-miterlimit:10;}
	.st9{fill:#FFFFFF;stroke:#020203;stroke-width:0.48;stroke-miterlimit:10;}
	.st10{fill:#F2F2F2;stroke:#020203;stroke-width:0.96;stroke-miterlimit:10;}
	.st11{fill:none;stroke:#020203;stroke-width:1.01;stroke-miterlimit:10;}
	.st12{fill:none;stroke:#020203;stroke-miterlimit:10;}
	.st13{fill:none;stroke:#020203;stroke-width:0.53;stroke-miterlimit:10;}
	.st14{fill:none;stroke:#020203;stroke-width:0.75;stroke-miterlimit:10;}
	.st15{fill:none;stroke:#020203;stroke-width:0.71;stroke-miterlimit:10;}
	.st16{fill:none;stroke:#B5241F;stroke-width:1.42;stroke-miterlimit:10;}
	.st17{fill:none;stroke:#B5241F;stroke-width:1.8;stroke-miterlimit:10;}
	.st18{fill:none;stroke:#B5241F;stroke-width:1.38;stroke-miterlimit:10;}
	.st19{fill:none;stroke:#B5241F;stroke-width:1.22;stroke-miterlimit:10;}
	.st20{fill:#B5241F;}
	.st21{fill:none;stroke:#B5241F;stroke-width:1.37;stroke-miterlimit:10;}
	.st22{fill:none;stroke:#B5241F;stroke-width:1.39;stroke-miterlimit:10;}
	.st23{fill:none;stroke:#B5241F;stroke-width:1.28;stroke-miterlimit:10;}
	.st24{fill:none;stroke:#B5241F;stroke-width:1.33;stroke-miterlimit:10;}
	.st25{fill:none;stroke:#B5241F;stroke-width:1.46;stroke-miterlimit:10;}
	.st26{fill:none;stroke:#B5241F;stroke-width:1.29;stroke-miterlimit:10;}
	.st27{fill:none;stroke:#020203;stroke-width:0.42;stroke-miterlimit:10;}
	.st28{fill:none;stroke:#020203;stroke-width:0.95;stroke-miterlimit:10;}
	.st29{fill:none;stroke:#020203;stroke-width:0.83;stroke-miterlimit:10;}
	.st30{fill:none;stroke:#020203;stroke-width:0.52;stroke-miterlimit:10;}
	.st31{fill:none;stroke:#B5241F;stroke-width:1.53;stroke-miterlimit:10;}
	.st32{fill:none;stroke:#B5241F;stroke-width:1.5;stroke-miterlimit:10;}
	.st33{fill:none;stroke:#B5241F;stroke-width:1.51;stroke-miterlimit:10;}
	.st34{fill:none;stroke:#B5241F;stroke-width:1.6;stroke-miterlimit:10;}
	.st35{fill:#D41F19;}
	.st36{font-family:'MyriadPro-Regular';}
	.st37{font-size:13.2772px;}
	.st38{fill:none;stroke:#D41F19;stroke-width:1.3689;stroke-miterlimit:10;}
	.st39{fill:none;stroke:#D41F19;stroke-width:2.0559;stroke-miterlimit:10;}
	.st40{fill:none;stroke:#D41F19;stroke-width:1.3723;stroke-miterlimit:10;}
	.st41{fill:none;stroke:#D41F19;stroke-width:1.4294;stroke-miterlimit:10;}
	.st42{fill:none;stroke:#D41F19;stroke-width:1.8389;stroke-miterlimit:10;}
	.st43{fill:none;stroke:#D41F19;stroke-width:1.4538;stroke-miterlimit:10;}
	.st44{fill:none;stroke:#000000;stroke-width:0.5;stroke-miterlimit:10;}
	.st45{fill:none;stroke:#000000;stroke-miterlimit:10;}
	.st46{fill:none;stroke:#000000;stroke-width:0.4155;stroke-miterlimit:10;}
	.st47{fill:none;stroke:#000000;stroke-width:0.9506;stroke-miterlimit:10;}
	.st48{fill:none;stroke:#000000;stroke-width:0.827;stroke-miterlimit:10;}
	.st49{fill:none;stroke:#000000;stroke-width:0.5195;stroke-miterlimit:10;}
	.st50{fill:none;stroke:#000000;stroke-width:0.4172;stroke-miterlimit:10;}
	.st51{fill:none;stroke:#000000;stroke-width:0.419;stroke-miterlimit:10;}
	.st52{fill:none;stroke:#D41F19;stroke-width:1.4161;stroke-miterlimit:10;}
	.st53{fill:none;stroke:#D41F19;stroke-width:1.7984;stroke-miterlimit:10;}
	.st54{fill:none;stroke:#D41F19;stroke-width:1.2223;stroke-miterlimit:10;}
	.st55{fill:none;stroke:#D41F19;stroke-width:1.359;stroke-miterlimit:10;}
	.st56{fill:none;stroke:#D41F19;stroke-width:1.3456;stroke-miterlimit:10;}
	.st57{fill:none;stroke:#D41F19;stroke-width:1.1098;stroke-miterlimit:10;}
	.st58{fill:none;stroke:#D41F19;stroke-width:1.3365;stroke-miterlimit:10;}
	.st59{fill:none;stroke:#D41F19;stroke-width:1.3941;stroke-miterlimit:10;}
	.st60{fill:none;stroke:#D41F19;stroke-width:1.4643;stroke-miterlimit:10;}
	.st61{fill:none;stroke:#D41F19;stroke-width:1.3019;stroke-miterlimit:10;}
	.st62{fill:none;stroke:#D41F19;stroke-width:1.2895;stroke-miterlimit:10;}
	.st63{fill:none;stroke:#000000;stroke-width:0.96;stroke-miterlimit:10;}
	.st64{fill:none;stroke:#000000;stroke-width:0.48;stroke-miterlimit:10;}
	.st65{fill:none;stroke:#000000;stroke-width:0.9126;stroke-miterlimit:10;}
	.st66{fill:none;stroke:#000000;stroke-width:0.7939;stroke-miterlimit:10;}
	.st67{fill:none;stroke:#000000;stroke-width:0.4988;stroke-miterlimit:10;}
	.st68{fill:#FFFFFF;stroke:#000000;stroke-width:0.48;stroke-miterlimit:10;}
	.st69{fill:#F3F2F2;stroke:#000000;stroke-width:0.96;stroke-miterlimit:10;}
	.st70{fill:none;stroke:#000000;stroke-width:0.5045;stroke-miterlimit:10;}
	.st71{fill:none;stroke:#000000;stroke-width:1.0089;stroke-miterlimit:10;}
	.st72{fill:#D4D4D5;}
	.st73{fill:none;stroke:#020203;stroke-width:0.7361;stroke-miterlimit:10;}
	.st74{fill:none;stroke:#020203;stroke-width:0.368;stroke-miterlimit:10;}
	.st75{fill:none;stroke:#020203;stroke-width:0.6997;stroke-miterlimit:10;}
	.st76{fill:none;stroke:#020203;stroke-width:0.6087;stroke-miterlimit:10;}
	.st77{fill:none;stroke:#020203;stroke-width:0.3824;stroke-miterlimit:10;}
	.st78{fill:#FFFFFF;stroke:#020203;stroke-width:0.368;stroke-miterlimit:10;}
	.st79{fill:#F3F2F2;stroke:#020203;stroke-width:0.7361;stroke-miterlimit:10;}
	.st80{fill:none;stroke:#020203;stroke-width:0.3868;stroke-miterlimit:10;}
	.st81{fill:none;stroke:#020203;stroke-width:0.7736;stroke-miterlimit:10;}
	.st82{fill:none;stroke:#020203;stroke-width:0.3058;stroke-miterlimit:10;}
	.st83{fill:none;stroke:#D41F19;stroke-width:1.5373;stroke-miterlimit:10;}
	.st84{fill:none;stroke:#D41F19;stroke-width:1.2259;stroke-miterlimit:10;}
	.st85{fill:none;stroke:#D41F19;stroke-width:1.5;stroke-miterlimit:10;}
	.st86{fill:none;stroke:#D41F19;stroke-width:1.199;stroke-miterlimit:10;}
	.st87{fill:none;stroke:#D41F19;stroke-width:1.274;stroke-miterlimit:10;}
	.st88{fill:none;stroke:#020203;stroke-width:0.9506;stroke-miterlimit:10;}
	.st89{fill:none;stroke:#020203;stroke-width:0.827;stroke-miterlimit:10;}
	.st90{fill:none;stroke:#020203;stroke-width:0.5195;stroke-miterlimit:10;}
	.st91{fill:#FFFFFF;stroke:#020203;stroke-width:0.5;stroke-miterlimit:10;}
	.st92{fill:#F3F2F2;stroke:#020203;stroke-miterlimit:10;}
	.st93{fill:none;stroke:#020203;stroke-width:0.5255;stroke-miterlimit:10;}
	.st94{fill:none;stroke:#020203;stroke-width:1.0509;stroke-miterlimit:10;}
	.st95{fill:none;stroke:#020203;stroke-width:0.4155;stroke-miterlimit:10;}
	.st96{fill:none;}
	.st97{fill:none;stroke:#D41F19;stroke-width:1.4493;stroke-miterlimit:10;}
	.st98{fill:none;stroke:#D41F19;stroke-width:1.3972;stroke-miterlimit:10;}
	.st99{fill:none;stroke:#D41F19;stroke-width:1.4149;stroke-miterlimit:10;}
	.st100{fill:none;stroke:#D41F19;stroke-width:1.5415;stroke-miterlimit:10;}
	.st101{fill:none;stroke:#D41F19;stroke-width:1.4077;stroke-miterlimit:10;}
	.st102{fill:none;stroke:#D41F19;stroke-width:1.362;stroke-miterlimit:10;}
	.st103{fill:none;stroke:#D41F19;stroke-width:1.3128;stroke-miterlimit:10;}
	.st104{fill:#F3F3F3;stroke:#020203;stroke-width:0.96;stroke-miterlimit:10;}
	.st105{fill:#FFFFFF;stroke:#020203;stroke-width:0.96;stroke-miterlimit:10;}
	.st106{fill:#FFFFFF;stroke:#020203;stroke-width:0.87;stroke-miterlimit:10;}
	.st107{fill:#FFFFFF;stroke:#020203;stroke-width:0.3;stroke-miterlimit:10;}
	.st108{fill:none;stroke:#B5241F;stroke-width:1.91;stroke-miterlimit:10;}
	.st109{fill:none;stroke:#B5241F;stroke-width:1.45;stroke-miterlimit:10;}
	.st110{fill:none;stroke:#B5241F;stroke-width:1.47;stroke-miterlimit:10;}
	.st111{fill:none;stroke:#B5241F;stroke-width:1.36;stroke-miterlimit:10;}
	.st112{fill:none;stroke:#B5241F;stroke-width:1.41;stroke-miterlimit:10;}
	.st113{fill:none;stroke:#B5241F;stroke-width:1.55;stroke-miterlimit:10;}
	.st114{fill:#FFFFFF;stroke:#020203;stroke-width:0.51;stroke-miterlimit:10;}
	.st115{fill:#F2F2F2;stroke:#020203;stroke-width:1.02;stroke-miterlimit:10;}
	.st116{fill:none;stroke:#020203;stroke-width:1.02;stroke-miterlimit:10;}
	.st117{fill:none;stroke:#020203;stroke-width:0.51;stroke-miterlimit:10;}
	.st118{fill:none;stroke:#020203;stroke-width:0.97;stroke-miterlimit:10;}
	.st119{fill:none;stroke:#020203;stroke-width:0.84;stroke-miterlimit:10;}
	.st120{fill:#F3F3F3;stroke:#020203;stroke-width:1.02;stroke-miterlimit:10;}
	.st121{fill:none;stroke:#020203;stroke-width:1.07;stroke-miterlimit:10;}
	.st122{fill:none;stroke:#020203;stroke-width:1.06;stroke-miterlimit:10;}
	.st123{fill:none;stroke:#020203;stroke-width:0.56;stroke-miterlimit:10;}
	.st124{fill:#FFFFFF;stroke:#020203;stroke-width:0.75;stroke-miterlimit:10;}
	.st125{fill:none;stroke:#020203;stroke-width:0.49;stroke-miterlimit:10;}
</style>
<g>
	<g>
		<g>
			<polyline class="st2" points="306.1,403.1 307.3,404.4 305.5,405.4 307.4,406.1 305.5,407.1 307.3,407.9 305.7,408.9 
				307.3,409.6 305.7,410.7 307.3,411.5 305.8,412.7 307.3,413.4 305.9,414.3 307.3,415.1 306.4,416 			"/>
			<line class="st2" x1="307.2" y1="404.4" x2="283" y2="405.6"/>
			<line class="st2" x1="307.4" y1="406.1" x2="283.1" y2="407.3"/>
			<line class="st2" x1="307" y1="407.9" x2="283.5" y2="408.7"/>
			<line class="st2" x1="307.2" y1="409.5" x2="283.3" y2="410.2"/>
			<line class="st2" x1="307.3" y1="411.5" x2="283.3" y2="412"/>
			<line class="st2" x1="307.2" y1="413.4" x2="283.3" y2="413.7"/>
			<path class="st2" d="M282.4,416h1.7H308v17.4c0,0-5.8,4-12.9,4c-7.1,0-12.7-3.9-12.7-3.9V416z"/>
			<path class="st2" d="M282.4,433.5c0,0,11.9,3.1,25.6-0.1"/>
			<path class="st2" d="M308,428.6c0,0,2.5,0.4,2.5,1.7s0.7,43.8,0.7,43.8s-12.8,6.8-32.1-0.7c0.6-17.3,1.3-42.8,1.3-42.8
				s0.6-0.9,1.9-1.2"/>
			<path class="st2" d="M280.5,430.5c0,0,0.7,0.6,1.9,0.9"/>
			<path class="st2" d="M310.2,429.5c0,0-0.7,0.6-1.9,0.9"/>
			<path class="st2" d="M206.1,397l-2,6c0,0,1.1,2.1,3.1,0.7c0.9-2.8,1.7-5.9,1.7-5.9"/>
			<polyline class="st2" points="204.2,402.8 202.5,402.3 202.1,404.5 207.7,406.1 208.5,403.9 207.2,403.5 			"/>
			<path class="st2" d="M202.5,402.3c0,0-8.7,11.6-10.1,14.1c-1.4,2.5-1.4,7.5,2.1,7.5c2.1,0.7,3.5,1.8,3.5,1.8s1.1,0.9,3.8,0.3
				c1.5,0.1,2.7,0.8,3.7,0.5s2.9-1.4,3.2-4.5c0.3-3.1-0.2-18.1-0.2-18.1"/>
			<g>
				<path class="st2" d="M251.2,476.9c-18.9-8.2-34.9-5.5-36.1-4.7c-0.7,0.5-0.7,2-0.7,2h-1.8c0,0-2.9-9.2,8.7-11.1
					c28.5-7.6,57.8,3.5,57.8,3.5h31.7c0,0,29.3-11.2,57.8-3.5c11.6,1.9,8.7,11.1,8.7,11.1h-1.8c0,0,0-1.5-0.7-2
					c-1.1-0.8-17.2-3.5-36.1,4.7"/>
				<path class="st2" d="M227.8,471.2c0,0,0.1,2.8-4.6,3.9s-8.7-0.9-8.7-0.9l2.4-5L227.8,471.2z"/>
				<path class="st2" d="M272,473.9c0,0-67.9,6.4-116.5,32.4c0,0-4.5,0.8-5.1,4.9c-0.5,4.1,0.4,5.8,0.3,6.5
					c-0.1,0.8,6.4,3.5,12.7,0.8c1.3-2.5,3.8-5.3,8.8-6.3c5-0.9,47.2-17.6,105.3-19.1c2.8,1.8,4.9,2.7,5.4,2.9"/>
				<path class="st2" d="M163.5,518.4c0,0,4.4,0.2,4.6-4.7l-4.8,1L163.5,518.4z"/>
				<path class="st2" d="M375.5,474.1c0,0-4,2-8.7,0.9c-4.7-1.1-4.6-3.9-4.6-3.9l13.6-0.5L375.5,474.1z"/>
				<path class="st2" d="M318,473.9c0,0,67.9,6.4,116.5,32.4c0,0,4.5,0.8,5.1,4.9c0.5,4.1-0.4,5.8-0.3,6.5c0.1,0.8-6.4,3.5-12.7,0.8
					c-1.3-2.5-3.8-5.3-8.8-6.3c-5-0.9-47.2-17.6-105.3-19.1c-2.8,1.8-4.9,2.7-5.4,2.9"/>
				<path class="st2" d="M426.5,518.4c0,0-4.4,0.2-4.6-4.7l4.5,0.8L426.5,518.4z"/>
				<path class="st2" d="M282.8,482.1c0,0,1.6,51.3,2.6,58c1,6.6,0,12.2,0,12.2s3.2,5.2,9.8,5.4"/>
				<path class="st2" d="M307.5,482.1c0,0-1.6,51.3-2.6,58c-1,6.6,0,12.2,0,12.2s-3.2,5.2-9.8,5.4"/>
			</g>
			<g>
				<path class="st2" d="M202.4,487.8c0,0-0.8-10.3,4.4-10.5c5.2-0.3,8,7.1,8,7.1"/>
				<path class="st2" d="M206.5,477.2l5-1.2c0,0,1.3,2,4.4-1.3l8.6,0.9l3.2,4.3l-0.2,1.9l-17.6,4.6l-3.3-9"/>
				<path class="st2" d="M217.8,475.2v1.2c0,0,3.5,1.6,5.6,0c0-0.6,0-1.3,0-1.3"/>
				<path class="st2" d="M217.7,475.8c0,0-1.2,0.3-1.2,0.8c0,0.5,5.9,2.4,8.4-0.1c-0.4-0.8-1.5-0.7-1.5-0.7"/>
				<path class="st2" d="M223.7,475.1c0,0,2.9,1.2,4,5.9"/>
				<polyline class="st2" points="203.6,480.3 206.7,486.5 205.8,486.8 202.7,482.3 				"/>
				<line class="st2" x1="206" y1="477.4" x2="207.2" y2="486.2"/>
				<line class="st2" x1="208" y1="477.4" x2="207.9" y2="486.2"/>
				<path class="st2" d="M212,479.8c0,0-3.2,5.7-3.3,6"/>
				<line class="st2" x1="210.2" y1="485.6" x2="213.2" y2="481.7"/>
			</g>
			<g>
				<path class="st2" d="M387.5,487.8c0,0,0.8-10.3-4.4-10.5s-8,7.1-8,7.1"/>
				<path class="st2" d="M383.4,477.2l-5-1.2c0,0-5.4,2-6.2,7.6"/>
				<path class="st2" d="M372.1,475.2v1.2c0,0-3.5,1.6-5.6,0c0-0.6,0-1.3,0-1.3"/>
				<path class="st2" d="M376.9,476.4c0,0,2.3,7.8,2.3,8.4c0,0.5-14.2-1.2-16.8-3.7c0.1-3.8,8.2-9.6,8.2-9.6"/>
				<line class="st2" x1="373.4" y1="476.6" x2="373.4" y2="480.1"/>
				<line class="st2" x1="364.9" y1="476.5" x2="364.9" y2="481.8"/>
				<path class="st2" d="M377.2,476.6c0,0-1.5-1-2.9-2"/>
				<path class="st2" d="M366.2,475.1c0,0-2.9,1.2-4,5.9"/>
				<polyline class="st2" points="386.4,480.3 383.2,486.5 384.1,486.8 387.2,482.3 				"/>
				<line class="st2" x1="383.9" y1="477.4" x2="382.7" y2="486.2"/>
				<line class="st2" x1="381.9" y1="477.4" x2="382" y2="486.2"/>
				<path class="st2" d="M377.9,479.8c0,0,3.2,5.7,3.3,6"/>
				<line class="st2" x1="379.7" y1="485.6" x2="376.7" y2="481.7"/>
			</g>
			<path class="st2" d="M156,519.7c-0.4-0.1-2.2,1.1,1.2,1.6c2.6,0.4,7.2,0,7.5-0.7c0.3-0.7-1.1-1.1-1.6-1.2"/>
			<polyline class="st2" points="155.2,520.4 155.1,520.4 155,521.4 152.4,522.2 151.3,524.6 153.8,527.7 163.3,533.5 163.8,533.2 
				164.5,524.1 164.7,520.4 155.5,520.5 155.2,520.4 			"/>
			<path class="st2" d="M164.7,520.4l-0.4,11.7c0,0-0.2,1-0.7,1.3"/>
			<path class="st2" d="M433.6,519.9c0.4-0.1,2.2,1.1-1.2,1.6c-2.6,0.4-7.2,0-7.5-0.7c-0.3-0.7,1.1-1.1,1.6-1.2"/>
			<line class="st2" x1="426.6" y1="518.9" x2="426.6" y2="521.1"/>
			<line class="st2" x1="434.4" y1="520.6" x2="434.4" y2="523.8"/>
			<path class="st2" d="M424.8,520.6l0.4,11.7c0,0,0.2,1,0.7,1.3"/>
			<path class="st2" d="M291,560.3h-5.6c0,0-1.3,5.7-1.2,14.7c0,0.5-0.7,1.4-0.7,1.4l-0.1,1.8c0,0,0.5,0.5,0.5,0.8
				c0.1,7.7,1.2,13.2,1.2,13.2l5.5,0.4C290.7,592.6,291.8,562.6,291,560.3z"/>
			<path class="st2" d="M285.4,560.3c0,0-0.2,13.3-0.2,31.9"/>
			<path class="st2" d="M299,560.3h5.6c0,0,1.3,5.7,1.2,14.7c0,0.5,0.7,1.4,0.7,1.4l0.1,1.8c0,0-0.5,0.5-0.5,0.8
				c-0.1,7.7-1.2,13.2-1.2,13.2l-5.5,0.4C299.3,592.6,298.3,562.6,299,560.3z"/>
			<path class="st2" d="M304.6,560.3c0,0,0.2,13.3,0.2,31.9"/>
			<g>
				<ellipse class="st2" cx="149.5" cy="536.9" rx="14.6" ry="14.3"/>
				<ellipse class="st2" cx="149.5" cy="536.9" rx="12.7" ry="12.5"/>
				<path class="st2" d="M155,521.4c-2.2-1.1-6.5-2.5-11.8-0.2c-5.3,2.4-7.7,7.6-7.8,11.9"/>
				<path class="st2" d="M145.2,525.2l3.3,9.9c0,0-0.3,0.1-0.7,0.5c-0.9-0.6-8.4-6.2-8.4-6.2"/>
				<path class="st2" d="M155.4,525.9l-4.5,9.1c0,0-0.7-0.2-1.2-0.1c-0.4-1.9-1.3-10.3-1.3-10.3"/>
				<path class="st2" d="M161.4,532.6l-9,3.7c0,0-0.1-0.3-0.5-0.7c0.6-0.9,6.1-7.9,6.1-7.9"/>
				<path class="st2" d="M161.1,542.2l-8.8-3.9c0,0,0.2-0.4,0.2-0.8c1-0.2,9.5-2.3,9.5-2.3"/>
				<path class="st2" d="M154.1,548.5l-3-8.9c0,0,0.3-0.1,0.7-0.5c0.9,0.6,7.5,5.6,7.5,5.6"/>
				<path class="st2" d="M144.6,548.4l4.4-8.6c0,0,0.5,0.1,0.9,0.1c0.4,1.9,1,8.3,1.1,9.4"/>
				<path class="st2" d="M138.1,542.2l9.2-3.8c0,0,0.1,0.3,0.5,0.7c-0.6,0.9-5.9,7.7-5.9,7.7"/>
				<path class="st2" d="M137.8,532.2l9.5,4.3c0,0-0.2,0.4-0.2,0.8c-1,0.2-9.9,2.3-9.9,2.3"/>
			</g>
			<g>
				<ellipse class="st2" cx="439.8" cy="536.9" rx="14.6" ry="14.3"/>
				<ellipse class="st2" cx="439.8" cy="536.9" rx="12.7" ry="12.5"/>
				<path class="st2" d="M444.1,525.2l-3.3,9.9c0,0,0.3,0.1,0.7,0.5c0.9-0.6,8.4-6.2,8.4-6.2"/>
				<path class="st2" d="M434,525.8l4.5,9.1c0,0,0.7-0.2,1.2-0.1c0.4-1.9,1.3-10.3,1.3-10.3"/>
				<path class="st2" d="M431.3,527.7c0,0,5.5,7.1,6.1,7.9c-0.4,0.4-0.5,0.7-0.5,0.7l-9-3.7l-2.2,0.5l-0.4-4.4l-0.4-6.8l-0.1-1.5
					l8.1-0.3l1.5,0.3l-0.1,0.9c2.2-1.1,6.5-2.5,11.8-0.2c5.3,2.4,7.7,7.6,7.8,11.9"/>
				<path class="st2" d="M428.2,542.2l8.8-3.9c0,0-0.2-0.4-0.2-0.8c-1-0.2-9.5-2.3-9.5-2.3"/>
				<path class="st2" d="M435.2,548.5l3-8.9c0,0-0.3-0.1-0.7-0.5c-0.9,0.6-7.5,5.6-7.5,5.6"/>
				<path class="st2" d="M444.7,548.4l-4.4-8.6c0,0-0.5,0.1-0.9,0.1c-0.4,1.9-1,8.3-1.1,9.4"/>
				<path class="st2" d="M451.3,542.2l-9.2-3.8c0,0-0.1,0.3-0.5,0.7c0.6,0.9,5.9,7.7,5.9,7.7"/>
				<path class="st2" d="M451.5,532.2l-9.5,4.3c0,0,0.2,0.4,0.2,0.8c1,0.2,9.9,2.3,9.9,2.3"/>
			</g>
		</g>
		<path class="st2" d="M289.4,9.4c0,0-32.5-1.8-42.4,8.4c-10,10.2-16.2,26.6-16.2,26.6S218.7,78.9,214.4,82
			c-4.3,3.1-24.3,25.2-26.6,36.6s3.5,37.8,5.3,54.7s-3.7,68.9-4.3,76.9c-0.6,8-4.1,52.7,3.2,66.4c12.5-1.9,84.8-1.6,98.4-1.2"/>
		<path class="st2" d="M289.4,9.4c0,0,29.7-1.8,39.6,8.4s16.2,26.6,16.2,26.6s12.2,34.5,16.4,37.6s24.3,25.2,26.6,36.6
			c2.2,11.4-3.5,37.8-5.3,54.7s3.7,68.9,4.3,76.9c0.6,8,4.1,52.7-3.2,66.4c-12.5-1.9-79.8-1.6-93.4-1.2"/>
		<path class="st0" d="M268.5,82.5l-12.6,4.9c0,0-3.7,0.8-4.6,4.7c-1.4,5.6-8.9,29.2-8.9,29.2s-2.2,5.6,3.4,4.4
			c9.1-2,24.4-6.8,24.4-6.8s3.6-0.5,3.8-6.6s-0.2-26.2-0.2-26.2S274.4,79.9,268.5,82.5z"/>
		<path class="st0" d="M307.1,82.5l12.6,4.9c0,0,3.7,0.8,4.6,4.7c1.4,5.6,8.9,29.2,8.9,29.2s2.2,5.6-3.4,4.4
			c-9.1-2-24.4-6.8-24.4-6.8s-3.6-0.5-3.8-6.6c-0.2-6.1,0.2-26.2,0.2-26.2S301.1,79.9,307.1,82.5z"/>
		<path class="st2" d="M295.7,402.9c-12.8,0.1-62.6-0.4-69.7-1.7c-7.1-1.3-24.5-4.8-31.6-6.9c-5.8-1.7-14-8.2-16.2-13.5
			c-1.7-4.2-3.1-36.6,0-41.6c3.1-5,5.4-12.1,6.3-15.5c0.9-3.4,7.5-7.2,7.5-7.2s161.4-9.3,191.8,0c0,0,9.1,0.4,15,8.5
			c2.1,2.9,4.6,9.2,7.7,14.2c3.1,5,1.7,37.4,0,41.6c-2.2,5.3-10.3,11.8-16.2,13.5c-7.1,2-24.6,5.5-31.6,6.9
			c-7.1,1.3-56.8,1.9-69.7,1.7"/>
		<path class="st2" d="M176.5,223.3c0,0-17-4.9-28.1-0.9c-7.1,3-3.7,25.3-3.7,25.3s11.3,8,26.8,0c2.4-3.5,4-8.9,4-8.9
			S179.1,232.7,176.5,223.3z"/>
		<path class="st2" d="M144.7,247.6c0,0-0.5,3,2,4.8s7.1,6.3,24.8,0c1.7-3.7,3-10.6,3-10.6"/>
		<path class="st2" d="M169.8,299.8c0,0-4.4-8.5-5.8-20.1"/>
		<path class="st2" d="M399.1,223.3c0,0,17-4.9,28.1-0.9c7.1,3,3.7,25.3,3.7,25.3s-11.3,8-26.8,0c-2.4-3.5-4-8.9-4-8.9
			S396.6,232.7,399.1,223.3z"/>
		<path class="st2" d="M430.9,247.6c0,0,0.5,3-2,4.8s-7.1,6.3-24.8,0c-1.7-3.7-3-10.6-3-10.6"/>
		<path class="st2" d="M399.2,277.6c0,0,1.6,21.4-0.3,24.9"/>
		<path class="st2" d="M405.9,299.2c0,0,4.4-8.5,5.8-20.1"/>
		<path class="st2" d="M158,254.2l-0.1,1.1l0.4,1.8c0,0,6.1,21.3,6.1,21.5s-1,4.3-1,4.3v3.6l1.3,15.4l13.2,0.8l1.5,25.4l-5.9,9.7
			l-1.1,5.8l0.1,6.8l3.6,4.8l3.9-0.8l27.4-47.2l-16-51.6l-3-2.3l-1.1-3l-5.6-0.1l-2.4,3.4l-1.8,8.1l-0.6,9.4l-0.2,6.5l-1.7-1.1
			l-0.4-8.8l-0.5-14.9l-0.4-15.6L158,254.2z"/>
		<path class="st2" d="M417.5,254.3l0.1,1.1l-5.8,22.2c0,0,0.7,12.7,0.7,13s-0.1,2.8-0.1,2.8l-0.3,3.6l-1.1,5.1l-13.2,0.8l5.1,23.3
			l3.7,3.1l6.7,12.8l0,5.6l-4.4,7.1l-13.4-0.1l-27.4-47.2l16-51.6l3-2.3l1.1-3l5.6-0.1l2.4,3.4l1.8,8.1l0.6,9.4l0.2,6.5l1.7-1.1
			l1.1-9.2l-0.2-14.5l0.4-15.6L417.5,254.3z"/>
		<polygon class="st2" points="284.3,405 284.2,417.5 306.4,416.6 306.1,400.6 283.3,402.8 		"/>
		<polyline class="st2" points="338.7,476.9 308.8,494.4 306.5,496.9 300.5,556 300.3,581.6 290.4,581.3 288.7,538.5 284.6,497.7 
			283.5,496.4 280.7,495.2 251.2,476.9 		"/>
		<polygon class="st2" points="426.5,518.5 426.7,520.7 431.4,521.3 432.1,517.3 		"/>
	</g>
	<line class="st2" x1="373.7" y1="473.7" x2="376.9" y2="476.4"/>
</g>
<text transform="matrix(1 0 0 1 273.7408 68.0449)" class="st35 st36 st37">53cm</text>
<g>
	<g>
		<line class="st38" x1="189.3" y1="72.1" x2="384.2" y2="72.1"/>
	</g>
	<line class="st39" x1="187.2" y1="126.1" x2="187.2" y2="65.8"/>
	<polygon class="st35" points="187.5,72.1 198.4,78.3 198.4,65.8 	"/>
	<line class="st39" x1="388.5" y1="126.1" x2="388.5" y2="65.8"/>
	<polygon class="st35" points="388.1,72.1 377.3,78.3 377.3,65.8 	"/>
</g>
<text transform="matrix(1 0 0 1 273.7408 288.3012)" class="st35 st36 st37">50cm</text>
<g>
	<g>
		<line class="st40" x1="189.7" y1="292.3" x2="385.5" y2="292.3"/>
	</g>
	<line class="st41" x1="187.6" y1="298.6" x2="187.6" y2="286"/>
	<polygon class="st35" points="187.9,292.3 198.8,298.6 198.8,286 	"/>
	<line class="st42" x1="388" y1="298.6" x2="388" y2="286"/>
	<polygon class="st35" points="387.7,292.3 376.8,298.6 376.8,286 	"/>
</g>
<text transform="matrix(1 0 0 1 273.7202 377.4248)" class="st35 st36 st37">56cm</text>
<g>
	<g>
		<line class="st43" x1="179.1" y1="381.4" x2="398.9" y2="381.4"/>
	</g>
	<line class="st41" x1="176.9" y1="387.7" x2="176.9" y2="375.2"/>
	<polygon class="st35" points="177.3,381.4 188.2,387.7 188.2,375.2 	"/>
	<line class="st42" x1="407" y1="387.7" x2="407" y2="375.2"/>
	<polygon class="st35" points="406.7,381.4 395.8,387.7 395.8,375.2 	"/>
</g>
<g>
	<g>
		<polyline class="st44" points="306.1,403.4 307.3,404.7 305.5,405.8 307.4,406.4 305.5,407.4 307.3,408.2 305.7,409.2 
			307.3,409.9 305.7,411.1 307.3,411.9 305.8,413 307.3,413.7 306,414.6 307.3,415.4 306.4,416.3 		"/>
		<polyline class="st44" points="282.8,403.4 284.6,405 283,406 284.6,406.7 283,407.5 284.6,408.1 283,408.9 284.6,409.6 
			283,410.6 284.6,411.3 283,412.2 284.6,413.1 283.1,413.8 284.6,415 283.2,415.6 284.1,416.3 		"/>
		<line class="st44" x1="307.2" y1="404.7" x2="283" y2="406"/>
		<line class="st44" x1="307.4" y1="406.4" x2="283.1" y2="407.6"/>
		<line class="st44" x1="307.1" y1="408.3" x2="283.5" y2="409"/>
		<line class="st44" x1="307.2" y1="409.8" x2="283.4" y2="410.5"/>
		<line class="st44" x1="307.3" y1="411.9" x2="283.4" y2="412.3"/>
		<line class="st44" x1="307.2" y1="413.8" x2="283.4" y2="414"/>
		<line class="st44" x1="307.3" y1="415.4" x2="283.5" y2="415.4"/>
		<path class="st45" d="M282.4,416.3H308v17.4c0,0-5.8,4-12.9,4s-12.7-3.9-12.7-3.9V416.3z"/>
		<path class="st44" d="M282.4,433.8c0,0,11.9,3.1,25.6-0.1"/>
		<path class="st45" d="M308,428.9c0,0,2.5,0.4,2.5,1.7s0.7,43.8,0.7,43.8s-12.8,6.8-32.1-0.7c0.6-17.3,1.3-42.8,1.3-42.8
			s0.6-0.9,1.9-1.2"/>
		<path class="st45" d="M280.5,430.8c0,0,0.7,0.6,1.9,0.9"/>
		<path class="st45" d="M310.3,429.9c0,0-0.7,0.6-1.9,0.9"/>
		<path class="st45" d="M206.2,397.3l-2,6c0,0,1.1,2.1,3.1,0.7c0.9-2.8,1.7-5.9,1.7-5.9"/>
		<polyline class="st44" points="204.3,403.1 202.6,402.6 202.1,404.8 207.7,406.4 208.5,404.2 207.3,403.8 		"/>
		<path class="st45" d="M202.6,402.6c0,0-8.7,11.6-10.1,14.1c-1.4,2.5-1.4,7.5,2.1,7.5c2.1,0.7,3.5,1.8,3.5,1.8s1.1,0.9,3.8,0.3
			c1.5,0.1,2.7,0.8,3.7,0.5c1-0.3,2.9-1.4,3.2-4.5s-0.2-18.1-0.2-18.1"/>
		<path class="st46" d="M202.3,404.9l-3.4,8.5c0,0,2.3,4.5,6.7,1.9c1.2-3.4,2-8.9,2-8.9s-0.2,12.2-0.5,14.8c-0.2,2.6-1.2,3.4-2,3.6
			s-2.4-0.4-3.6-0.3c-1.2,0.1-3-0.1-3.6-0.5c-0.6-0.4-0.9-0.9-2.4-1.3c-3.1-0.5-2.5-4-1.3-6s8-12,8-12"/>
		<g>
			<path class="st45" d="M279.2,466.9c0,0-29.3-11.2-57.8-3.5c-11.6,1.9-8.7,11.1-8.7,11.1h1.8c0,0,0-1.5,0.7-2
				c1.1-0.8,17.2-3.5,36.1,4.7"/>
			<path class="st44" d="M214.5,474.5c0,0,4,2,8.7,0.9c4.7-1.1,4.6-3.9,4.6-3.9"/>
			<path class="st45" d="M272,474.2c0,0-67.9,6.4-116.5,32.4c0,0-4.5,0.8-5.1,4.9c-0.5,4.1,0.4,5.8,0.3,6.5
				c-0.1,0.8,6.4,3.5,12.7,0.8c1.3-2.5,3.8-5.3,8.8-6.3c5-0.9,47.2-17.6,105.3-19.1c2.8,1.8,4.9,2.7,5.4,2.9"/>
			<path class="st44" d="M163.5,518.7c0,0,4.4,0.2,4.6-4.7"/>
			<path class="st45" d="M310.8,466.9c0,0,29.3-11.2,57.8-3.5c11.6,1.9,8.7,11.1,8.7,11.1h-1.8c0,0,0-1.5-0.7-2
				c-1.1-0.8-17.2-3.5-36.1,4.7"/>
			<path class="st44" d="M375.5,474.5c0,0-4,2-8.7,0.9c-4.7-1.1-4.6-3.9-4.6-3.9"/>
			<path class="st45" d="M318,474.2c0,0,67.9,6.4,116.5,32.4c0,0,4.5,0.8,5.1,4.9c0.5,4.1-0.4,5.8-0.3,6.5c0.1,0.8-6.4,3.5-12.7,0.8
				c-1.3-2.5-3.8-5.3-8.8-6.3c-5-0.9-47.2-17.6-105.3-19.1c-2.8,1.8-4.9,2.7-5.4,2.9"/>
			<path class="st44" d="M426.5,518.7c0,0-4.4,0.2-4.6-4.7"/>
			<path class="st45" d="M282.8,482.4c0,0,1.6,51.3,2.6,58c1,6.6,0,12.2,0,12.2s3.2,5.2,9.8,5.4"/>
			<path class="st45" d="M307.6,482.4c0,0-1.6,51.3-2.6,58c-1,6.6,0,12.2,0,12.2s-3.2,5.2-9.8,5.4"/>
		</g>
		<g>
			<path class="st45" d="M202.4,488.1c0,0-0.8-10.3,4.4-10.5s8,7.1,8,7.1"/>
			<path class="st45" d="M206.5,477.6l5-1.2c0,0,5.4,2,6.2,7.6"/>
			<path class="st44" d="M217.9,475.5v1.2c0,0,3.5,1.6,5.6,0c0-0.6,0-1.3,0-1.3"/>
			<path class="st44" d="M217.8,476.1c0,0-1.2,0.3-1.2,0.8c0,0.5,5.9,2.4,8.4-0.1c-0.4-0.8-1.5-0.7-1.5-0.7"/>
			<line class="st44" x1="216.6" y1="476.9" x2="216.6" y2="480.4"/>
			<line class="st44" x1="225" y1="476.8" x2="225" y2="482.1"/>
			<path class="st45" d="M212.7,477c0,0,1.5-1,2.9-2"/>
			<path class="st45" d="M223.8,475.4c0,0,2.9,1.2,4,5.9"/>
			<polyline class="st44" points="203.6,480.7 206.7,486.9 205.9,487.1 202.7,482.6 			"/>
			<line class="st44" x1="206" y1="477.7" x2="207.3" y2="486.5"/>
			<line class="st44" x1="208" y1="477.7" x2="207.9" y2="486.5"/>
			<path class="st44" d="M212.1,480.2c0,0-3.2,5.7-3.3,6"/>
			<line class="st44" x1="210.2" y1="485.9" x2="213.3" y2="482"/>
		</g>
		<g>
			<path class="st45" d="M387.6,488.1c0,0,0.8-10.3-4.4-10.5s-8,7.1-8,7.1"/>
			<path class="st45" d="M383.4,477.6l-5-1.2c0,0-5.4,2-6.2,7.6"/>
			<path class="st44" d="M372.1,475.5v1.2c0,0-3.5,1.6-5.6,0c0-0.6,0-1.3,0-1.3"/>
			<path class="st44" d="M372.2,476.1c0,0,1.2,0.3,1.2,0.8c0,0.5-5.9,2.4-8.4-0.1c0.4-0.8,1.5-0.7,1.5-0.7"/>
			<line class="st44" x1="373.4" y1="476.9" x2="373.4" y2="480.4"/>
			<line class="st44" x1="365" y1="476.8" x2="365" y2="482.1"/>
			<path class="st45" d="M377.2,477c0,0-1.5-1-2.9-2"/>
			<path class="st45" d="M366.2,475.4c0,0-2.9,1.2-4,5.9"/>
			<polyline class="st44" points="386.4,480.7 383.2,486.9 384.1,487.1 387.3,482.6 			"/>
			<line class="st44" x1="384" y1="477.7" x2="382.7" y2="486.5"/>
			<line class="st44" x1="382" y1="477.7" x2="382" y2="486.5"/>
			<path class="st44" d="M377.9,480.2c0,0,3.2,5.7,3.3,6"/>
			<line class="st44" x1="379.7" y1="485.9" x2="376.7" y2="482"/>
		</g>
		<path class="st45" d="M156,520c-0.4-0.1-2.2,1.1,1.2,1.6c2.6,0.4,7.2,0,7.5-0.7c0.3-0.7-1.1-1.1-1.6-1.2"/>
		<line class="st44" x1="163" y1="519.1" x2="163" y2="521.2"/>
		<line class="st45" x1="155.2" y1="520.7" x2="155.2" y2="523.9"/>
		<path class="st45" d="M164.8,520.7l-0.4,11.7c0,0-0.2,1-0.7,1.3"/>
		<path class="st45" d="M433.6,520.2c0.4-0.1,2.2,1.1-1.2,1.6c-2.6,0.4-7.2,0-7.5-0.7c-0.3-0.7,1.1-1.1,1.6-1.2"/>
		<line class="st44" x1="426.6" y1="519.3" x2="426.6" y2="521.4"/>
		<line class="st45" x1="434.4" y1="520.9" x2="434.4" y2="524.1"/>
		<path class="st45" d="M424.8,520.9l0.4,11.7c0,0,0.2,1,0.7,1.3"/>
		<line class="st44" x1="289.4" y1="556.3" x2="289.4" y2="560.5"/>
		<path class="st45" d="M291,560.6h-5.6c0,0-1.3,5.7-1.2,14.7c0,0.5-0.7,1.4-0.7,1.4l-0.1,1.8c0,0,0.5,0.5,0.5,0.8
			c0.1,7.7,1.2,13.2,1.2,13.2l5.5,0.4C290.8,592.9,291.8,562.9,291,560.6z"/>
		<path class="st44" d="M285.5,560.6c0,0-0.2,13.3-0.2,31.9"/>
		<path class="st45" d="M299,560.6h5.6c0,0,1.3,5.7,1.2,14.7c0,0.5,0.7,1.4,0.7,1.4l0.1,1.8c0,0-0.5,0.5-0.5,0.8
			c-0.1,7.7-1.2,13.2-1.2,13.2l-5.5,0.4C299.3,592.9,298.3,562.9,299,560.6z"/>
		<path class="st44" d="M304.6,560.6c0,0,0.2,13.3,0.2,31.9"/>
		<line class="st44" x1="291.2" y1="562.2" x2="298.9" y2="562.2"/>
		<line class="st44" x1="291.2" y1="581.5" x2="298.9" y2="581.5"/>
		<line class="st44" x1="300.3" y1="556.7" x2="300.3" y2="560.6"/>
		<g>
			<ellipse class="st47" cx="149.6" cy="537.2" rx="14.6" ry="14.3"/>
			<ellipse class="st48" cx="149.6" cy="537.2" rx="12.7" ry="12.5"/>
			<path class="st47" d="M155.1,521.7c-2.2-1.1-6.5-2.5-11.8-0.2c-5.3,2.4-7.7,7.6-7.8,11.9"/>
			<path class="st49" d="M145.2,525.5l3.3,9.9c0,0-0.3,0.1-0.7,0.5c-0.9-0.6-8.4-6.2-8.4-6.2"/>
			<path class="st49" d="M155.4,526.2l-4.5,9.1c0,0-0.7-0.2-1.2-0.1c-0.4-1.9-1.3-10.3-1.3-10.3"/>
			<path class="st49" d="M161.5,533l-9,3.7c0,0-0.1-0.3-0.5-0.7c0.6-0.9,6.1-7.9,6.1-7.9"/>
			<path class="st49" d="M161.2,542.6l-8.8-3.9c0,0,0.2-0.4,0.2-0.8c1-0.2,9.5-2.3,9.5-2.3"/>
			<path class="st49" d="M154.2,548.9l-3-8.9c0,0,0.3-0.1,0.7-0.5c0.9,0.6,7.5,5.6,7.5,5.6"/>
			<path class="st49" d="M144.7,548.7l4.4-8.6c0,0,0.5,0.1,0.9,0.1c0.4,1.9,1,8.3,1.1,9.4"/>
			<path class="st49" d="M138.1,542.6l9.2-3.8c0,0,0.1,0.3,0.5,0.7c-0.6,0.9-5.9,7.7-5.9,7.7"/>
			<path class="st49" d="M137.8,532.5l9.5,4.3c0,0-0.2,0.4-0.2,0.8c-1,0.2-9.9,2.3-9.9,2.3"/>
		</g>
		<g>
			<ellipse class="st47" cx="439.8" cy="537.2" rx="14.6" ry="14.3"/>
			<ellipse class="st48" cx="439.8" cy="537.2" rx="12.7" ry="12.5"/>
			<path class="st47" d="M434.3,521.7c2.2-1.1,6.5-2.5,11.8-0.2c5.3,2.4,7.7,7.6,7.8,11.9"/>
			<path class="st49" d="M444.2,525.5l-3.3,9.9c0,0,0.3,0.1,0.7,0.5c0.9-0.6,8.4-6.2,8.4-6.2"/>
			<path class="st49" d="M434,526.2l4.5,9.1c0,0,0.7-0.2,1.2-0.1c0.4-1.9,1.3-10.3,1.3-10.3"/>
			<path class="st49" d="M427.9,533l9,3.7c0,0,0.1-0.3,0.5-0.7c-0.6-0.9-6.1-7.9-6.1-7.9"/>
			<path class="st49" d="M428.3,542.6l8.8-3.9c0,0-0.2-0.4-0.2-0.8c-1-0.2-9.5-2.3-9.5-2.3"/>
			<path class="st49" d="M435.2,548.9l3-8.9c0,0-0.3-0.1-0.7-0.5c-0.9,0.6-7.5,5.6-7.5,5.6"/>
			<path class="st49" d="M444.7,548.7l-4.4-8.6c0,0-0.5,0.1-0.9,0.1c-0.4,1.9-1,8.3-1.1,9.4"/>
			<path class="st49" d="M451.3,542.6l-9.2-3.8c0,0-0.1,0.3-0.5,0.7c0.6,0.9,5.9,7.7,5.9,7.7"/>
			<path class="st49" d="M451.6,532.5l-9.5,4.3c0,0,0.2,0.4,0.2,0.8c1,0.2,9.9,2.3,9.9,2.3"/>
		</g>
	</g>
	<g>
		<path class="st45" d="M289.4,9.7c0,0-32.5-1.8-42.4,8.4s-16.2,26.6-16.2,26.6s-12.2,34.5-16.4,37.6c-4.3,3.1-24.3,25.2-26.6,36.6
			c-2.2,11.4,3.5,37.8,5.3,54.7c1.8,17-3.7,68.9-4.3,76.9c-0.6,8-4.1,52.7,3.2,66.4c12.5-1.9,84.8-1.6,98.4-1.2"/>
		<path class="st45" d="M289.4,9.7c0,0,29.7-1.8,39.6,8.4c10,10.2,16.2,26.6,16.2,26.6s12.2,34.5,16.4,37.6
			c4.3,3.1,24.3,25.2,26.6,36.6c2.2,11.4-3.5,37.8-5.3,54.7s3.7,68.9,4.3,76.9c0.6,8,4.1,52.7-3.2,66.4c-12.5-1.9-79.8-1.6-93.4-1.2
			"/>
		<path class="st46" d="M213.7,82.9l25.2,59.5c0,0-1.1,153.6-1.1,173.1c0,0-1,11.6,1.1,14.7c-5.9-1.8-12.6,11.7-14,33.3
			c0,9.3-1,31.8,0,37.8"/>
		<path class="st46" d="M362.3,82.9l-25.2,59.5c0,0,1.1,153.6,1.1,173.1"/>
		<line class="st46" x1="239" y1="142.4" x2="337.1" y2="142.4"/>
		<line class="st46" x1="239" y1="176.2" x2="337.1" y2="176.2"/>
		<line class="st50" x1="238.5" y1="208.1" x2="337.4" y2="208.1"/>
		<line class="st50" x1="238.5" y1="241.9" x2="337.4" y2="241.9"/>
		<line class="st51" x1="238.2" y1="276.8" x2="338" y2="276.8"/>
		<path class="st45" d="M213.6,83c0,0-11.4,29.9-14.2,43.7c-2.8,13.9-1.6,33.2-0.9,42.9c0.7,9.7,5.2,43.2,10,59.3
			c4.9,16.1,8.2,38.8,6.3,87"/>
		<path class="st45" d="M362.6,83c0,0,11.4,29.9,14.2,43.7c2.8,13.9,1.6,33.2,0.9,42.9c-0.7,9.7-5.2,43.2-10,59.3s-8.2,38.8-6.3,87"
			/>
		<path class="st45" d="M268.5,77.7L253.7,83c0,0-5.9,1-7.7,7.9c-1.9,6.9-9,30.5-9,30.5s-3.2,9.1,7.3,10.2
			c11.2-2.4,27.8-7.1,27.8-7.1s6.4-2.7,6.6-10.2s0-31.4,0-31.4S277.1,74.6,268.5,77.7z"/>
		<path class="st46" d="M268.5,82.9l-12.6,4.9c0,0-3.7,0.8-4.6,4.7c-1.4,5.6-8.9,29.2-8.9,29.2s-2.2,5.6,3.4,4.4
			c9.1-2,24.4-6.8,24.4-6.8s3.6-0.5,3.8-6.6c0.2-6.1-0.2-26.2-0.2-26.2S274.4,80.2,268.5,82.9z"/>
		<path class="st45" d="M307.1,77.7l14.8,5.3c0,0,5.9,1,7.7,7.9c1.9,6.9,9,30.5,9,30.5s3.2,9.1-7.3,10.2
			c-11.2-2.4-27.8-7.1-27.8-7.1s-6.4-2.7-6.6-10.2s0-31.4,0-31.4S298.4,74.6,307.1,77.7z"/>
		<path class="st46" d="M307.1,82.9l12.6,4.9c0,0,3.7,0.8,4.6,4.7c1.4,5.6,8.9,29.2,8.9,29.2s2.2,5.6-3.4,4.4
			c-9.1-2-24.4-6.8-24.4-6.8s-3.6-0.5-3.8-6.6c-0.2-6.1,0.2-26.2,0.2-26.2S301.1,80.2,307.1,82.9z"/>
		<path class="st45" d="M192.1,316.9c0,0-6.6,3.8-7.5,7.2c-0.9,3.4-3.2,10.5-6.3,15.5c-3.1,5-1.7,37.4,0,41.6
			c2.2,5.3,10.3,11.8,16.2,13.5c7.1,2,24.6,5.5,31.6,6.9s56.8,1.9,69.7,1.7"/>
		<path class="st45" d="M214.6,316.6c0,0-5.5,9.5-5.2,15.6c0.2,6.1,11.1,27.3,15.5,31.7"/>
		<path class="st45" d="M179.8,337c0,0-4.2,12.5,12.9,18.4s27,7.6,33.2,8.7c6.2,1.1,62.3,3.2,70.9,3"/>
		<path class="st46" d="M338.2,315.4c0,0,2.6,11.6,0.5,14.7c5.9-1.8,19.8,11.7,21.2,33.3c0,9.3,1,31.8,0,37.8"/>
		<path class="st45" d="M383.9,316.9c0,0,9.1,0.4,15,8.5c2.1,2.9,4.6,9.2,7.7,14.2c3.1,5,1.7,37.4,0,41.6
			c-2.2,5.3-10.3,11.8-16.2,13.5c-7.1,2-24.6,5.5-31.6,6.9c-7.1,1.3-56.8,1.9-69.7,1.7"/>
		<path class="st45" d="M361.7,315.4c0,0,14,10.7,13.8,16.8s-11.1,27.3-15.5,31.7"/>
		<path class="st45" d="M405.1,337c0,0,4.2,12.5-12.9,18.4c-17.1,5.9-27,7.6-33.2,8.7c-6.2,1.1-62.3,3.2-70.9,3"/>
		<line class="st46" x1="239" y1="330.2" x2="338.6" y2="330.2"/>
		<path class="st45" d="M176.6,223.7c0,0-17-4.9-28.1-0.9c-7.1,3-3.7,25.3-3.7,25.3s11.3,8,26.8,0c2.4-3.5,4-8.9,4-8.9
			S179.1,233,176.6,223.7z"/>
		<path class="st46" d="M145.2,226.9c0,0-1.5,6.6,4,8.8s17.9,2,20.6,0.7c2.7-1.3,6.7-8.7,6.7-12.7"/>
		<path class="st45" d="M144.8,247.9c0,0-0.5,3,2,4.8c2.5,1.8,7.1,6.3,24.8,0c1.7-3.7,3-10.6,3-10.6"/>
		<path class="st45" d="M188.2,254.8c0,0,0.1-3.9-1.6-4.3c-1.7-0.4-4.4-0.3-5.4,0.8c-1,1.1-2,2.2-3.4,10.3
			c-1.3,8.2-0.8,15.8-0.8,15.8s-1.4,1.1-2.1-2.1c-0.7-3.2-1.1-29.4-1.1-29.4"/>
		<path class="st45" d="M158,256.3c0,0,6.5,19.4,5.9,24.6c0,0.6-0.6,0.3-0.7,7.6c-0.2,7.2,0.9,13.5,1.5,13.8
			c0.6,0.3,11.5,0.4,13.2,0.8c0,3.8,1.8,23.4,1.2,25.6c-0.6,2.2-1.8,1.9-3.5,5s-4.2,12.2-3.2,16.3c1,4.1,4.4,6,4.4,6"/>
		<path class="st45" d="M169.8,300.1c0,0-4.4-8.5-5.8-20.1"/>
		<path class="st46" d="M176.5,277.9c0,0-1.6,21.4,0.3,24.9"/>
		<path class="st45" d="M399.1,223.7c0,0,17-4.9,28.1-0.9c7.1,3,3.7,25.3,3.7,25.3s-11.3,8-26.8,0c-2.4-3.5-4-8.9-4-8.9
			S396.6,233,399.1,223.7z"/>
		<path class="st46" d="M430.4,226.9c0,0,1.5,6.6-4,8.8c-5.5,2.1-17.9,2-20.6,0.7c-2.7-1.3-6.7-8.7-6.7-12.7"/>
		<path class="st45" d="M430.9,247.9c0,0,0.5,3-2,4.8c-2.5,1.8-7.1,6.3-24.8,0c-1.7-3.7-3-10.6-3-10.6"/>
		<path class="st45" d="M387.5,254.8c0,0-0.1-3.9,1.6-4.3c1.7-0.4,4.4-0.3,5.4,0.8c1,1.1,2,2.2,3.4,10.3s0.8,15.8,0.8,15.8
			s1.4,1.1,2.1-2.1S402,246,402,246"/>
		<path class="st45" d="M417.7,256.3c0,0-6.5,19.4-5.9,24.6c0,0.6,0.6,0.3,0.7,7.6c0.2,7.2-0.9,13.5-1.5,13.8
			c-0.6,0.3-11.5,0.4-13.2,0.8c0,3.8,4.2,20.5,4.9,22.7c0.6,2.2,2.7,1.4,4.4,4.5c1.7,3.1,7.5,12.6,6.5,16.7c-1,4.1-5.2,8.5-5.2,8.5"
			/>
		<path class="st46" d="M399.2,277.9c0,0,1.6,21.4-0.3,24.9"/>
		<path class="st45" d="M405.9,299.5c0,0,4.4-8.5,5.8-20.1"/>
	</g>
</g>
<image style="overflow:visible;" width="635" height="1059" xlink:href="691DC298.png"  transform="matrix(0.2124 0 0 0.2124 224.9222 142.2964)">
</image>
<text transform="matrix(1 0 0 1 273.7202 187.81)" class="st35 st36 st37">53cm</text>
<g>
	<g>
		<line class="st41" x1="180.1" y1="191.8" x2="392.6" y2="191.8"/>
	</g>
	<line class="st42" x1="178" y1="233.8" x2="178" y2="185.6"/>
	<polygon class="st35" points="178.4,191.8 189.2,198.1 189.2,185.6 	"/>
	<line class="st42" x1="398.2" y1="233.8" x2="398.2" y2="185.6"/>
	<polygon class="st35" points="397.9,191.8 387,198.1 387,185.6 	"/>
</g>
</svg>
