<?xml version="1.0" encoding="utf-8"?>
<!-- Generator: Adobe Illustrator 23.0.1, SVG Export Plug-In . SVG Version: 6.00 Build 0)  -->
<svg version="1.1" id="Camada_1" xmlns="http://www.w3.org/2000/svg" xmlns:xlink="http://www.w3.org/1999/xlink" x="0px" y="0px"
	 viewBox="0 0 600 600" style="enable-background:new 0 0 600 600;" xml:space="preserve">
<style type="text/css">
	.st0{fill:#E8E7E7;}
	.st1{fill:#E7E6E6;}
	.st2{fill:#FFFFFF;}
	.st3{fill:#D3D3D3;}
	.st4{fill:none;stroke:#020203;stroke-width:0.96;stroke-miterlimit:10;}
	.st5{fill:none;stroke:#020203;stroke-width:0.48;stroke-miterlimit:10;}
	.st6{fill:none;stroke:#020203;stroke-width:0.91;stroke-miterlimit:10;}
	.st7{fill:none;stroke:#020203;stroke-width:0.79;stroke-miterlimit:10;}
	.st8{fill:none;stroke:#020203;stroke-width:0.5;stroke-miterlimit:10;}
	.st9{fill:#FFFFFF;stroke:#020203;stroke-width:0.48;stroke-miterlimit:10;}
	.st10{fill:#F2F2F2;stroke:#020203;stroke-width:0.96;stroke-miterlimit:10;}
	.st11{fill:none;stroke:#020203;stroke-width:1.01;stroke-miterlimit:10;}
	.st12{fill:none;stroke:#020203;stroke-miterlimit:10;}
	.st13{fill:none;stroke:#020203;stroke-width:0.53;stroke-miterlimit:10;}
	.st14{fill:none;stroke:#020203;stroke-width:0.75;stroke-miterlimit:10;}
	.st15{fill:none;stroke:#020203;stroke-width:0.71;stroke-miterlimit:10;}
	.st16{fill:none;stroke:#B5241F;stroke-width:1.42;stroke-miterlimit:10;}
	.st17{fill:none;stroke:#B5241F;stroke-width:1.8;stroke-miterlimit:10;}
	.st18{fill:none;stroke:#B5241F;stroke-width:1.38;stroke-miterlimit:10;}
	.st19{fill:none;stroke:#B5241F;stroke-width:1.22;stroke-miterlimit:10;}
	.st20{fill:#B5241F;}
	.st21{fill:none;stroke:#B5241F;stroke-width:1.37;stroke-miterlimit:10;}
	.st22{fill:none;stroke:#B5241F;stroke-width:1.39;stroke-miterlimit:10;}
	.st23{fill:none;stroke:#B5241F;stroke-width:1.28;stroke-miterlimit:10;}
	.st24{fill:none;stroke:#B5241F;stroke-width:1.33;stroke-miterlimit:10;}
	.st25{fill:none;stroke:#B5241F;stroke-width:1.46;stroke-miterlimit:10;}
	.st26{fill:none;stroke:#B5241F;stroke-width:1.29;stroke-miterlimit:10;}
	.st27{fill:none;stroke:#020203;stroke-width:0.42;stroke-miterlimit:10;}
	.st28{fill:none;stroke:#020203;stroke-width:0.95;stroke-miterlimit:10;}
	.st29{fill:none;stroke:#020203;stroke-width:0.83;stroke-miterlimit:10;}
	.st30{fill:none;stroke:#020203;stroke-width:0.52;stroke-miterlimit:10;}
	.st31{fill:none;stroke:#B5241F;stroke-width:1.53;stroke-miterlimit:10;}
	.st32{fill:none;stroke:#B5241F;stroke-width:1.5;stroke-miterlimit:10;}
	.st33{fill:none;stroke:#B5241F;stroke-width:1.51;stroke-miterlimit:10;}
	.st34{fill:none;stroke:#B5241F;stroke-width:1.6;stroke-miterlimit:10;}
	.st35{fill:none;stroke:#D41F19;stroke-width:1.3689;stroke-miterlimit:10;}
	.st36{fill:none;stroke:#D41F19;stroke-width:2.0559;stroke-miterlimit:10;}
	.st37{fill:#D41F19;}
	.st38{fill:none;stroke:#D41F19;stroke-width:1.3723;stroke-miterlimit:10;}
	.st39{fill:none;stroke:#D41F19;stroke-width:1.4294;stroke-miterlimit:10;}
	.st40{fill:none;stroke:#D41F19;stroke-width:1.8389;stroke-miterlimit:10;}
	.st41{fill:none;stroke:#D41F19;stroke-width:1.4538;stroke-miterlimit:10;}
	.st42{fill:none;stroke:#000000;stroke-width:0.5;stroke-miterlimit:10;}
	.st43{fill:none;stroke:#000000;stroke-miterlimit:10;}
	.st44{fill:none;stroke:#000000;stroke-width:0.4155;stroke-miterlimit:10;}
	.st45{fill:none;stroke:#000000;stroke-width:0.9506;stroke-miterlimit:10;}
	.st46{fill:none;stroke:#000000;stroke-width:0.827;stroke-miterlimit:10;}
	.st47{fill:none;stroke:#000000;stroke-width:0.5195;stroke-miterlimit:10;}
	.st48{fill:none;stroke:#000000;stroke-width:0.4172;stroke-miterlimit:10;}
	.st49{fill:none;stroke:#000000;stroke-width:0.419;stroke-miterlimit:10;}
	.st50{fill:none;stroke:#D41F19;stroke-width:1.4161;stroke-miterlimit:10;}
	.st51{fill:none;stroke:#D41F19;stroke-width:1.7984;stroke-miterlimit:10;}
	.st52{fill:none;stroke:#D41F19;stroke-width:1.2223;stroke-miterlimit:10;}
	.st53{font-family:'MyriadPro-Regular';}
	.st54{font-size:12.5144px;}
	.st55{fill:none;stroke:#D41F19;stroke-width:1.359;stroke-miterlimit:10;}
	.st56{fill:none;stroke:#D41F19;stroke-width:1.3456;stroke-miterlimit:10;}
	.st57{fill:none;stroke:#D41F19;stroke-width:1.1098;stroke-miterlimit:10;}
	.st58{fill:none;stroke:#D41F19;stroke-width:1.3365;stroke-miterlimit:10;}
	.st59{fill:none;stroke:#D41F19;stroke-width:1.3941;stroke-miterlimit:10;}
	.st60{font-size:13.0128px;}
	.st61{fill:none;stroke:#D41F19;stroke-width:1.4643;stroke-miterlimit:10;}
	.st62{fill:none;stroke:#D41F19;stroke-width:1.3019;stroke-miterlimit:10;}
	.st63{fill:none;stroke:#D41F19;stroke-width:1.2895;stroke-miterlimit:10;}
	.st64{fill:none;stroke:#000000;stroke-width:0.96;stroke-miterlimit:10;}
	.st65{fill:none;stroke:#000000;stroke-width:0.48;stroke-miterlimit:10;}
	.st66{fill:none;stroke:#000000;stroke-width:0.9126;stroke-miterlimit:10;}
	.st67{fill:none;stroke:#000000;stroke-width:0.7939;stroke-miterlimit:10;}
	.st68{fill:none;stroke:#000000;stroke-width:0.4988;stroke-miterlimit:10;}
	.st69{fill:#FFFFFF;stroke:#000000;stroke-width:0.48;stroke-miterlimit:10;}
	.st70{fill:#F3F2F2;stroke:#000000;stroke-width:0.96;stroke-miterlimit:10;}
	.st71{fill:none;stroke:#000000;stroke-width:0.5045;stroke-miterlimit:10;}
	.st72{fill:none;stroke:#000000;stroke-width:1.0089;stroke-miterlimit:10;}
	.st73{fill:#D4D4D5;}
	.st74{fill:none;stroke:#020203;stroke-width:0.7361;stroke-miterlimit:10;}
	.st75{fill:none;stroke:#020203;stroke-width:0.368;stroke-miterlimit:10;}
	.st76{fill:none;stroke:#020203;stroke-width:0.6997;stroke-miterlimit:10;}
	.st77{fill:none;stroke:#020203;stroke-width:0.6087;stroke-miterlimit:10;}
	.st78{fill:none;stroke:#020203;stroke-width:0.3824;stroke-miterlimit:10;}
	.st79{fill:#FFFFFF;stroke:#020203;stroke-width:0.368;stroke-miterlimit:10;}
	.st80{fill:#F3F2F2;stroke:#020203;stroke-width:0.7361;stroke-miterlimit:10;}
	.st81{fill:none;stroke:#020203;stroke-width:0.3868;stroke-miterlimit:10;}
	.st82{fill:none;stroke:#020203;stroke-width:0.7736;stroke-miterlimit:10;}
	.st83{fill:none;stroke:#020203;stroke-width:0.3058;stroke-miterlimit:10;}
	.st84{fill:none;stroke:#D41F19;stroke-width:1.5373;stroke-miterlimit:10;}
	.st85{fill:none;stroke:#D41F19;stroke-width:1.2259;stroke-miterlimit:10;}
	.st86{fill:none;stroke:#D41F19;stroke-width:1.5;stroke-miterlimit:10;}
	.st87{fill:none;stroke:#D41F19;stroke-width:1.199;stroke-miterlimit:10;}
	.st88{fill:none;stroke:#D41F19;stroke-width:1.274;stroke-miterlimit:10;}
	.st89{fill:none;stroke:#020203;stroke-width:0.9506;stroke-miterlimit:10;}
	.st90{fill:none;stroke:#020203;stroke-width:0.827;stroke-miterlimit:10;}
	.st91{fill:none;stroke:#020203;stroke-width:0.5195;stroke-miterlimit:10;}
	.st92{fill:#FFFFFF;stroke:#020203;stroke-width:0.5;stroke-miterlimit:10;}
	.st93{fill:#F3F2F2;stroke:#020203;stroke-miterlimit:10;}
	.st94{fill:none;stroke:#020203;stroke-width:0.5255;stroke-miterlimit:10;}
	.st95{fill:none;stroke:#020203;stroke-width:1.0509;stroke-miterlimit:10;}
	.st96{fill:none;stroke:#020203;stroke-width:0.4155;stroke-miterlimit:10;}
	.st97{fill:none;}
	.st98{fill:none;stroke:#D41F19;stroke-width:1.4493;stroke-miterlimit:10;}
	.st99{fill:none;stroke:#D41F19;stroke-width:1.3972;stroke-miterlimit:10;}
	.st100{fill:none;stroke:#D41F19;stroke-width:1.4149;stroke-miterlimit:10;}
	.st101{fill:none;stroke:#D41F19;stroke-width:1.5415;stroke-miterlimit:10;}
	.st102{fill:none;stroke:#D41F19;stroke-width:1.4077;stroke-miterlimit:10;}
	.st103{fill:none;stroke:#D41F19;stroke-width:1.362;stroke-miterlimit:10;}
	.st104{fill:none;stroke:#D41F19;stroke-width:1.3128;stroke-miterlimit:10;}
	.st105{fill:#F3F3F3;stroke:#020203;stroke-width:0.96;stroke-miterlimit:10;}
	.st106{fill:#FFFFFF;stroke:#020203;stroke-width:0.96;stroke-miterlimit:10;}
	.st107{fill:#FFFFFF;stroke:#020203;stroke-width:0.87;stroke-miterlimit:10;}
	.st108{fill:#FFFFFF;stroke:#020203;stroke-width:0.3;stroke-miterlimit:10;}
	.st109{fill:none;stroke:#B5241F;stroke-width:1.91;stroke-miterlimit:10;}
	.st110{fill:none;stroke:#B5241F;stroke-width:1.45;stroke-miterlimit:10;}
	.st111{fill:none;stroke:#B5241F;stroke-width:1.47;stroke-miterlimit:10;}
	.st112{fill:none;stroke:#B5241F;stroke-width:1.36;stroke-miterlimit:10;}
	.st113{fill:none;stroke:#B5241F;stroke-width:1.41;stroke-miterlimit:10;}
	.st114{fill:none;stroke:#B5241F;stroke-width:1.55;stroke-miterlimit:10;}
	.st115{fill:#FFFFFF;stroke:#020203;stroke-width:0.51;stroke-miterlimit:10;}
	.st116{fill:#F2F2F2;stroke:#020203;stroke-width:1.02;stroke-miterlimit:10;}
	.st117{fill:none;stroke:#020203;stroke-width:1.02;stroke-miterlimit:10;}
	.st118{fill:none;stroke:#020203;stroke-width:0.51;stroke-miterlimit:10;}
	.st119{fill:none;stroke:#020203;stroke-width:0.97;stroke-miterlimit:10;}
	.st120{fill:none;stroke:#020203;stroke-width:0.84;stroke-miterlimit:10;}
	.st121{fill:#F3F3F3;stroke:#020203;stroke-width:1.02;stroke-miterlimit:10;}
	.st122{fill:none;stroke:#020203;stroke-width:1.07;stroke-miterlimit:10;}
	.st123{fill:none;stroke:#020203;stroke-width:1.06;stroke-miterlimit:10;}
	.st124{fill:none;stroke:#020203;stroke-width:0.56;stroke-miterlimit:10;}
	.st125{fill:#FFFFFF;stroke:#020203;stroke-width:0.75;stroke-miterlimit:10;}
	.st126{fill:none;stroke:#020203;stroke-width:0.49;stroke-miterlimit:10;}
</style>
<rect x="354" y="440.3" class="st0" width="61.3" height="14.3"/>
<g>
	<path class="st2" d="M301.4,438.1l0.5-14.5h21.6l0.3,14.8c0,0,2-0.8,2.7,0.9c0.8,1.7-16.8,4.2-16.8,4.2L301.4,438.1z"/>
	<g>
		<g>
			<path class="st2" d="M326.9,439.8c0,1.2,0.5,40.8,0.5,40.8s-12,6.4-30.2-0.7c0.6-16.2,1.2-40.3,1.2-40.3s1.4-1.3,3-1.5"/>
			<g>
				<path class="st2" d="M271,483.2c-17.8-7.8-32.9-5.1-33.9-4.4c-0.6,0.4-0.7,1.9-0.7,1.9h-1.7c0,0-2.8-8.6,8.2-10.4
					c26.9-7.2,59.3,4.2,59.3,4.2l47.8-1.8l6.1,21.7l-27.1,1.7l-6.7,6.8l-5,51.6l0.2,10.4l0.6,16.4l-11.8-0.2l0.7-30.6l-4.9-49.1
					l-15.1-7.2L271,483.2"/>
				<path class="st2" d="M234.4,479.5c0,0,5.8,3,10.2,2.1c4.4-1,6-7.1,6-7.1"/>
				<path class="st2" d="M290.4,480.5c0,0-63.9,6-109.6,30.5c0,0-4.3,0.8-4.8,4.7c-0.5,3.9,0.4,5.4,0.2,6.1s6,3.3,11.9,0.7
					c1.2-2.4,3.6-5,8.3-5.9s44.4-16.6,99.1-17.9c2.6,1.7,4.6,2.5,5.1,2.7"/>
				<path class="st2" d="M188.4,522.3c0,0,4.2,0.2,4.3-4.4"/>
				<path class="st2" d="M327,473.6c0,0,27.5-10.5,54.4-3.3c10.9,1.8,8.2,10.4,8.2,10.4h-1.7c0,0,0-1.4-0.7-1.9
					c-1.1-0.7-16.2-3.3-33.9,4.4"/>
				<path class="st2" d="M389.7,479.7c0,0-5.7,2.9-10.1,1.9s-5.9-7-5.9-7"/>
				<path class="st2" d="M333.7,480.5c0,0,63.9,6,109.6,30.5c0,0,4.3,0.8,4.8,4.7c0.5,3.9-0.4,5.4-0.2,6.1c0.1,0.7-6,3.3-11.9,0.7
					c-1.2-2.4-3.6-5-8.3-5.9c-4.7-0.9-44.4-16.6-99.1-17.9c-2.6,1.7-4.6,2.5-5.1,2.7"/>
				<path class="st2" d="M435.8,522.3c0,0-4.2,0.2-4.3-4.4"/>
				<path class="st2" d="M300.7,488.2c0,0,1.5,48.3,2.4,54.6c0.9,6.2,0,11.5,0,11.5s3,4.9,9.2,5.1"/>
				<path class="st2" d="M323.9,488.2c0,0-1.5,48.3-2.4,54.6c-0.9,6.2,0,11.5,0,11.5s-3,4.9-9.2,5.1"/>
			</g>
			<g>
				<path class="st2" d="M225,493.5c0,0-0.8-9.7,4.1-9.9s7.6,6.7,7.6,6.7"/>
				<path class="st2" d="M228.9,483.6l4.7-1.1c0,0,5.1,1.9,5.8,7.1"/>
				<path class="st2" d="M239.5,481.6v1.1c0,0,3.3,1.5,5.2,0c0-0.6,0-1.2,0-1.2"/>
				<path class="st2" d="M237.8,480.3c0,0-3,2-3,2.5c-2.5,13.9,11.7,6.8,14.1,4.4c-0.3-0.8-2.9-5.4-2.9-5.4"/>
				<path class="st2" d="M234.7,483c0,0,1.4-1,2.7-1.9"/>
				<path class="st2" d="M245.1,481.6c0,0,2.7,1.1,3.8,5.5"/>
				<polyline class="st2" points="226.1,486.5 229.1,492.3 228.2,492.6 225.3,488.3 				"/>
				<line class="st2" x1="228.4" y1="483.7" x2="229.5" y2="492"/>
				<line class="st2" x1="230.2" y1="483.7" x2="230.2" y2="492"/>
				<path class="st2" d="M234.1,486c0,0-3,5.3-3.1,5.6"/>
				<line class="st2" x1="232.3" y1="491.4" x2="235.2" y2="487.7"/>
			</g>
			<g>
				<path class="st2" d="M399.2,493.5c0,0,0.8-9.7-4.1-9.9s-7.6,6.7-7.6,6.7"/>
				<path class="st2" d="M395.3,483.6l-4.7-1.1c0,0-5.1,1.9-5.8,7.1"/>
				<path class="st2" d="M387.3,481.3l1.6,1.9c0,0-7.5,1-9.5-0.5c0-0.6,0-1.2,0-1.2"/>
				<path class="st2" d="M388.7,482.3c0,0,6.4,8.5,6.4,9c0,0.5-17.4-1.8-19.8-4.1c0.3-0.8,2.8-5.1,2.8-5.1"/>
				<line class="st2" x1="385.9" y1="483" x2="385.9" y2="486.2"/>
				<line class="st2" x1="377.9" y1="482.9" x2="377.9" y2="487.8"/>
				<path class="st2" d="M389.5,483c0,0-1.4-1-2.7-1.9"/>
				<path class="st2" d="M379.1,481.6c0,0-2.7,1.1-3.8,5.5"/>
				<polyline class="st2" points="398.1,486.5 395.1,492.3 395.9,492.6 398.9,488.3 				"/>
				<line class="st2" x1="395.8" y1="483.7" x2="394.6" y2="492"/>
				<line class="st2" x1="393.9" y1="483.7" x2="394" y2="492"/>
				<path class="st2" d="M390.1,486c0,0,3,5.3,3.1,5.6"/>
				<line class="st2" x1="391.8" y1="491.4" x2="389" y2="487.7"/>
			</g>
			<path class="st2" d="M181.3,523.5c-0.4-0.1-2,1,1.2,1.5c2.5,0.4,6.8,0,7.1-0.7s-1.1-1.4-1.6-1.5"/>
			<path class="st2" d="M189.6,524.2l-0.4,11c0,0-0.2,0.9-0.6,1.2"/>
			<g>
				<ellipse class="st2" cx="175.4" cy="539.8" rx="13.7" ry="13.5"/>
				<ellipse class="st2" cx="175.4" cy="539.8" rx="11.9" ry="11.7"/>
				<path class="st2" d="M162.1,536.3c0.1-4.1,2.4-9,7.3-11.2c5-2.2,11.1,0,12.9-0.4l7.4-0.2c0,0-0.3,10.8-0.9,11.4"/>
				<path class="st2" d="M171.3,528.8l3.2,9.3c0,0-0.3,0.1-0.6,0.5c-0.8-0.5-7.9-5.9-7.9-5.9"/>
				<path class="st2" d="M180.8,529.4l-4.2,8.6c0,0-0.7-0.2-1.1-0.1c-0.3-1.8-1.2-9.7-1.2-9.7"/>
				<path class="st2" d="M186.5,535.8l-8.5,3.5c0,0-0.1-0.3-0.4-0.7c0.5-0.8,5.7-7.5,5.7-7.5"/>
				<path class="st2" d="M186.3,544.8l-8.2-3.7c0,0,0.2-0.4,0.2-0.8c1-0.2,8.9-2.2,8.9-2.2"/>
				<path class="st2" d="M179.7,550.7l-2.8-8.3c0,0,0.3-0.1,0.7-0.4c0.8,0.5,7.1,5.3,7.1,5.3"/>
				<path class="st2" d="M170.7,550.6l4.2-8.1c0,0,0.5,0.1,0.9,0.1c0.3,1.8,1,7.8,1.1,8.8"/>
				<path class="st2" d="M164.6,544.8l8.6-3.5c0,0,0.1,0.3,0.4,0.7c-0.5,0.8-5.5,7.2-5.5,7.2"/>
				<path class="st2" d="M164.3,535.4l9,4c0,0-0.2,0.4-0.2,0.8c-1,0.2-9.3,2.2-9.3,2.2"/>
			</g>
			<g>
				<ellipse class="st2" cx="448.5" cy="539.8" rx="13.7" ry="13.5"/>
				<ellipse class="st2" cx="448.5" cy="539.8" rx="11.9" ry="11.7"/>
				<path class="st2" d="M434.8,526.1c2-1,18.9-3.5,19.6-1.1c5,2.3,7.3,7.1,7.3,11.2"/>
				<path class="st2" d="M452.5,528.8l-3.2,9.3c0,0,0.3,0.1,0.6,0.5c0.8-0.5,7.9-5.9,7.9-5.9"/>
				<path class="st2" d="M443,529.4l4.2,8.6c0,0,0.7-0.2,1.1-0.1c0.3-1.8,1.2-9.7,1.2-9.7"/>
				<path class="st2" d="M437.3,535.8l8.5,3.5c0,0,0.1-0.3,0.4-0.7c-0.5-0.8-5.7-7.5-5.7-7.5"/>
				<path class="st2" d="M437.6,544.8l8.2-3.7c0,0-0.2-0.4-0.2-0.8c-1-0.2-8.9-2.2-8.9-2.2"/>
				<path class="st2" d="M444.1,550.7l2.8-8.3c0,0-0.3-0.1-0.7-0.4c-0.8,0.5-7.1,5.3-7.1,5.3"/>
				<path class="st2" d="M453.1,550.6l-4.2-8.1c0,0-0.5,0.1-0.9,0.1c-0.3,1.8-1,7.8-1.1,8.8"/>
				<path class="st2" d="M459.3,544.8l-8.6-3.5c0,0-0.1,0.3-0.4,0.7c0.5,0.8,5.5,7.2,5.5,7.2"/>
				<path class="st2" d="M459.5,535.4l-9,4c0,0,0.2,0.4,0.2,0.8c1,0.2,9.3,2.2,9.3,2.2"/>
			</g>
			<path class="st2" d="M442.5,523.7c0.4-0.1,2,1-1.2,1.5c-2.5,0.4-6.8,0-7.1-0.7c-0.3-0.6,1.7-1.9,2.3-2"/>
			<line class="st2" x1="435.9" y1="522.8" x2="435.9" y2="524.8"/>
			<line class="st2" x1="443.3" y1="524.4" x2="443.3" y2="527.4"/>
			<path class="st2" d="M434.3,524.4l0.4,11c0,0,18.9-4.1,19.3-3.9"/>
			<path class="st2" d="M308.4,561.7h-5.3c0,0-1.2,5.4-1.1,13.8c0,0.5-0.7,1.3-0.7,1.3l-0.1,1.7c0,0,0.5,0.5,0.5,0.8
				c0.1,7.3,1.2,12.4,1.2,12.4l5.2,0.3C308.1,592.1,309.1,563.9,308.4,561.7z"/>
			<path class="st2" d="M303.1,561.7c0,0-0.2,12.5-0.2,30"/>
			<path class="st2" d="M315.9,561.7h5.3c0,0,1.2,5.4,1.1,13.8c0,0.5,0.7,1.3,0.7,1.3l0.1,1.7c0,0-0.5,0.5-0.5,0.8
				c-0.1,7.3-1.2,12.4-1.2,12.4l-5.2,0.3C316.2,592.1,315.2,563.9,315.9,561.7z"/>
			<path class="st2" d="M321.2,561.7c0,0,0.2,12.5,0.2,30"/>
			<path class="st2" d="M305.6,422.5c0,0-4,0.3-4.2,1.5s8.2,2.2,11.9,2.1c3.7,0,11.1-0.6,10.5-2.1c-0.6-1.5-4-1.5-4-1.5"/>
			<path class="st2" d="M305.7,416.5v7.5c0,0,8,1.8,14.2,0c0-1.8,0-6.8,0-6.8"/>
		</g>
		<path class="st2" d="M301,407.2c-0.5-1.6,0.2-5.2,0.5-6.2s0.8-2.2,2.5-2.2c1.7-0.1,2,2.2,2,2.2s-0.1,6-1,6.9"/>
		<path class="st2" d="M266.2,401.1c0,0,22.9,3.4,29.2,8.3c4,1.9,9.3,1.7,20.4,1.7s21.1-0.7,21.1-0.7s3.7,0,5.4-2.3
			c1.7-2.4,14.2-6.8,14.2-6.8s9.2-3.7,12.4-4"/>
		<path class="st2" d="M296,409.6c0,0,0.6,4.2,4.4,4.9c3.8,0.7,5.4,2.3,7,2.6c1.6,0.4,11.4,0,11.4,0s1.5,0.1,2.1-1
			c0.9-1.3,2.4-2.4,3.3-2.7c1-0.3,5.5-1.9,6.1-2.7"/>
		<circle class="st2" cx="321.6" cy="405.5" r="3.1"/>
		<path class="st2" d="M304.6,407.1c0,0,0.2-3.3-1.5-3.2c-2,0.1-2,2.9-2,2.9s0,9.8-0.1,10.9s-3.9,14.7-4.4,15.6
			c1.7,0.6,3.3,1.1,3.3,1.1l3.9-12.5c0,0,0.7-2.4,0.6-4.2S304.6,407.1,304.6,407.1"/>
		<path class="st2" d="M296.7,433.2l-0.9-0.3l-8.7,24.7c0,0-0.5,1.7,0.2,2.1c0,0,3.6,1.3,3.9,1.3c0.3,0,2.5-3.5,2.9-5
			c0.5-1.5,0.4-2.1,0.2-2.8s0.3-1.1,0.6-1.5c0.3-0.4,1-2,0.9-2.9c-0.1-0.9,1-1.1,1.5-2s3.6-12.1,3.6-12.1L296.7,433.2z"/>
		<g>
			<polyline class="st2" points="337.3,410.1 336.5,410.7 338.1,411.1 336.7,412.2 338.4,412.6 337,413.8 338.6,414.2 337.2,415.4 
				338.9,415.9 337.5,416.9 339.2,417.8 337.9,418.6 338.9,419.2 			"/>
			<line class="st2" x1="359.7" y1="404.4" x2="342.4" y2="408"/>
			<line class="st2" x1="360.1" y1="405.9" x2="336.6" y2="410.8"/>
			<line class="st2" x1="360.1" y1="407.8" x2="337.2" y2="412.1"/>
			<line class="st2" x1="360.5" y1="409.3" x2="337.3" y2="413.7"/>
			<line class="st2" x1="360.9" y1="411.3" x2="337.6" y2="415.4"/>
			<line class="st2" x1="361.1" y1="413.2" x2="337.8" y2="417"/>
			<line class="st2" x1="361.4" y1="414.8" x2="338.2" y2="418.4"/>
		</g>
		<path class="st2" d="M337.3,419.3l25.1-3.5l2.6,17.5c0,0-5.1,4.7-12.1,5.8c-6.9,1-13-2-13-2L337.3,419.3z"/>
		<path class="st2" d="M339.8,437.1c0,0,12.2,0.7,25.2-4"/>
		<path class="st2" d="M363.4,398.3c0,0-0.2,2.4-2.5,4.1c-2,1.5-2.3,0.8-2.3,0.8l2.5,13.1l-22.1,3.3L336,403L363.4,398.3z"/>
	</g>
	<path class="st2" d="M212.5,391.9c0,0,3.5,11.1,9.4,13.2s45.3-3.8,45.3-3.8s43.8-4.7,52.7-6.7c8.9-2.1,29.8-1.2,25.3-16.5
		c-4.6-15.3-33.2-12.6-33.2-12.6s-50.6,11.5-67.9,6.7s-20.3-17.8-20.3-17.8s28.2-30.8,33.8-40c5.6-9.2,13.4-19.2,24.2-22.4
		c10.8-3.3,29-6.7,37.4-7.4c8.4-0.7,32.3-2.6,32.3-2.6s19.5,2.7,19.5-5.3c0,0,2.5-1.4,3.2-4.5c0.7-3.2,2.1-10.4,2.1-10.4
		s-0.3-4.3-6-6.9c-5.7-2.7-23.6-7.5-45-7.2c-21.4,0.3-57.5,7.1-62.3,9.7c-4.8,2.6-7,4.1-7.8,5.8c-0.8,1.8-7.4,13-6.9,13.7
		c0.5,0.7-7.2,9.3-7.2,9.3s-0.6,3.4-5.6,9.1c-4.9,5.7-4.6,14.8-6.2,16.4c-4.7,4.5-16.4,13.4-20.3,16"/>
	<path class="st2" d="M260.1,279.4c0,0,8.7-2,23.5-4.1c14.8-2.2,59.5-5,73.7-2c14.2,3,14.4,3.4,14.4,3.4"/>
	<path class="st2" d="M255.3,263.1c0,0,44.3-13.2,72.2-11.1c32.4,2.4,48.1,7.5,48.1,7.5"/>
	<path class="st2" d="M268,401.2c0,0-40.8,2.5-58-11.1c-11.1-8.7-18.1-15-14.8-43.5c0,0-1.4-3.7,1-9.8c0.5-4.3,3.4-34.4,3.4-34.4
		s1.6-10.8,10.2-11c8.6-0.1,13,5.5,13,5.5s6.2,8.5,6,14.8"/>
	<circle class="st2" cx="211.5" cy="343.4" r="16.1"/>
	<circle class="st2" cx="213.4" cy="310.7" r="4.2"/>
	<circle class="st2" cx="204.1" cy="363.7" r="4.2"/>
	<circle class="st2" cx="259.5" cy="391.1" r="4.2"/>
	<circle class="st2" cx="331.2" cy="382.8" r="4.2"/>
	<path class="st2" d="M197.8,377c0,0-10.9-0.3-9.1-19s11.2-53.3,8.2-71.3c-3.1-18-20.8-54.8-20.8-54.8s-19.4-47.3-23.3-72.6
		c-1.9-12.5-3.9-58.9-2.8-70.8c1.1-11.9,1.4-65.4,6.7-73s21.9-5.6,21.9-5.6s7.4,3.6,12.4,16.7s5.6,47.1,5.6,47.1s2.2,27.1,5.8,39.3
		c2.6,17.9,10.8,57.3,10.8,57.3s7.4,34.7,18.2,52.2c10.8,17.5,15.5,37,16,49.6c4.6-2.9,7.9-8.1,7.9-8.1"/>
	<path class="st2" d="M247.2,271.2c0,0,1.1,14.3-1.3,20.9"/>
	<path class="st2" d="M368.9,397.4c0,0,31.1,0.3,45.7,3.5c14.9,3.3,17.9-0.5,17.9-0.5s9.2-26.2,6.9-40.4c-6.4-29.6-33-40.2-33-40.2
		c-53.9-21.4-152.7,0-152.7,0l-19.9,17.7l33.5,63.8L368.9,397.4z"/>
	<path class="st2" d="M439.6,362c-7.1,5-47.7-7.3-81.4-8.7s-122.7,15.3-122.7,15.3"/>
	<path class="st2" d="M439.6,362c-11.5-21.7-61.2-18.6-61.2-18.6c-14,0.8-150.8,6.7-150.8,6.7"/>
	<path class="st2" d="M247.4,327.5c0,0,101.3-3.1,104.9-3.5s43.6-9.9,58.4-2"/>
	<line class="st2" x1="272.7" y1="326.7" x2="268" y2="348.4"/>
	<line class="st2" x1="312.2" y1="325.4" x2="311.1" y2="346.5"/>
	<line class="st2" x1="351.9" y1="324" x2="355.1" y2="344.5"/>
	<path class="st2" d="M180.1,10.8c0,0-3.5,1.2-3.6,18.8c-0.1,16.6,0.4,50.1,0,60.7c-0.3,6.9-2.9,37,0,46.3
		c3.7,16.8,21.7,70.7,23.8,74.9c2.2,4.2,23.7,50.7,24.4,53.2c0.7,2.5,8.1,23.4,5.8,45.7"/>
	<path class="st2" d="M149.7,93.8c0,0,13-8.6,26.8-3.5"/>
	<path class="st2" d="M239.2,300.3c0.9-7.3-3.1-30.9-6.4-37.2c-3.2-6.4-20.5-36.9-24.7-46.1s-14.3-42.5-16.7-51.6
		c-2.4-9.1-6.3-37.1-6.7-50.4c-0.3-13.3-8.3-24.2-8.3-24.2"/>
	<path class="st2" d="M200.6,124.3c0,0,4,10.8,8.4,29.1c3.1,26.6,23,82.7,32.7,104.1c3.4,7.6-6.8,11.5-6.8,11.5"/>
	<path class="st2" d="M223.3,222.8c0,0-1.2,7.8-6.3,11.3"/>
	<path class="st2" d="M209,190.7c0,0-2.9,4-7.8,7"/>
	<path class="st2" d="M185.6,88.5c0,0,3.2,4.5,4,9.5c0.8,5,4.2,41.5,4.2,41.5s0.2,4.9-2.2,3.5c-2.4-1.5-3.1-8.2-3.1-8.2L184.7,92
		C184.7,92,184.7,88.7,185.6,88.5z"/>
	<path class="st2" d="M184.8,93.5c0,0,3.4,4.6,3.8,7.2s3.6,36.5,3.6,36.5s0.3,3.3-0.8,1.9c-1-1.3-2.9-3.6-2.9-3.6"/>
	<path class="st2" d="M259.5,259.2c0,0,7.6-10,15.9-12.7c29.5-9.4,59.3-7.7,81.2-3.9c2.5,3.1-1.2,4.2-1.2,4.2s-11.6-0.1-12.8,1.5"/>
	<path class="st2" d="M273.6,247.3c0,0-2.7,0.6-4-2.2s-3.5-9.3-3.5-9.3s-1.7-4.3,5-6.5c6.7-2.2,29.7-8.3,50.3-7.9s31.9,1.9,36.1,5
		s1.5,14.3,1.5,14.3s-0.2,2.4-2.4,2"/>
	<path class="st2" d="M265.9,234c0,0.2,24.2-8.7,47-9.8c22.8-1.1,45.4,6,46.4,4.9"/>
	<line class="st2" x1="198.3" y1="155.4" x2="190.2" y2="157.6"/>
	<path class="st2" d="M274.6,326.6c0,0,76.8-26.5,106.7-7.1"/>
	<path class="st2" d="M270.3,348.4c0,0,94.1,3.1,109.7-5"/>
</g>
<line class="st50" x1="127.9" y1="367.7" x2="127.9" y2="12"/>
<line class="st51" x1="83.1" y1="585.7" x2="83.1" y2="12"/>
<line class="st50" x1="121.8" y1="376.4" x2="197.9" y2="376.4"/>
<line class="st52" x1="76.9" y1="8.9" x2="175.8" y2="8.9"/>
<polygon class="st37" points="127.9,8.9 134,19.6 121.8,19.6 "/>
<polygon class="st37" points="83.1,8.9 89.2,19.6 76.9,19.6 "/>
<polygon class="st37" points="127.9,376.2 121.8,365.6 134,365.6 "/>
<polygon class="st37" points="83.1,593.5 76.9,582.8 89.2,582.8 "/>
<g>
	<rect x="109" y="182.7" class="st0" width="37.8" height="13.8"/>
	<text transform="matrix(1.0398 0 0 1 112.0017 193.4341)" class="st37 st53 st54">74cm</text>
</g>
<g>
	<rect x="48.3" y="293.8" class="st0" width="70.4" height="13.8"/>
	<text transform="matrix(1.0398 0 0 1 51.2878 304.5327)" class="st37 st53 st54">117 a 125cm</text>
</g>
<line class="st55" x1="76.9" y1="593.5" x2="535.5" y2="593.5"/>
<g>
	<line class="st56" x1="220" y1="456.3" x2="429.3" y2="456.3"/>
</g>
<line class="st52" x1="212.9" y1="462.5" x2="212.9" y2="391.4"/>
<polygon class="st37" points="213.2,456.3 223.8,462.5 223.8,450.2 "/>
<line class="st57" x1="433" y1="462.5" x2="433" y2="398.2"/>
<polygon class="st37" points="432.6,456.3 422,462.5 422,450.2 "/>
<text transform="matrix(1.0398 0 0 1 367.6883 452.0078)" class="st37 st53 st54">50cm</text>
<line class="st58" x1="482.6" y1="585.7" x2="482.6" y2="368.4"/>
<line class="st59" x1="530" y1="585.1" x2="530" y2="253"/>
<g>
	<rect x="451.9" y="486.5" class="st0" width="61.3" height="13.8"/>
	<text transform="matrix(1.0398 0 0 1 454.9128 497.2251)" class="st37 st53 st54">39 a 46cm</text>
</g>
<rect x="467" y="374.1" class="st0" width="30.6" height="13.8"/>
<text transform="matrix(1.0398 0 0 1 467.4988 384.8066)" class="st37 st53 st54">10cm</text>
<rect x="499.4" y="411.7" class="st0" width="61.3" height="14.3"/>
<text transform="matrix(1 0 0 1 503.3816 422.83)" class="st37 st53 st60">69 a 77cm</text>
<line class="st61" x1="426.4" y1="402.2" x2="488.7" y2="402.2"/>
<line class="st62" x1="438.3" y1="360.6" x2="488.7" y2="360.6"/>
<line class="st63" x1="327.7" y1="246.6" x2="536.2" y2="246.6"/>
<polygon class="st37" points="530,247.3 536.2,258 523.9,258 "/>
<polygon class="st37" points="530,593.5 523.9,582.8 536.2,582.8 "/>
<polygon class="st37" points="482.6,593.2 476.4,583 488.7,583 "/>
<polygon class="st37" points="482.6,402.2 476.4,392 488.7,392 "/>
<polygon class="st37" points="482.6,405.2 488.7,415.4 476.4,415.4 "/>
<polygon class="st37" points="482.6,360.2 488.7,370.4 476.4,370.4 "/>
<g>
	<g>
		<g>
			<g>
				<path class="st64" d="M326.8,440.1c0,1.2,0.5,40.8,0.5,40.8s-12,6.4-30.2-0.7c0.6-16.2,1.2-40.3,1.2-40.3s1.4-1.3,3-1.5"/>
				<path class="st64" d="M323.8,438.4c0,0,2.4,0.2,2.9,1.6c-16.7,4.2-28.3-0.1-28.3-0.1"/>
				<g>
					<path class="st64" d="M297.1,473.9c0,0-27.5-10.5-54.4-3.3c-10.9,1.8-8.2,10.4-8.2,10.4h1.7c0,0,0-1.4,0.7-1.9
						c1.1-0.7,16.2-3.3,33.9,4.4"/>
					<path class="st65" d="M236.3,481c0,0,3.8,1.9,8.2,0.9c4.4-1,4.3-3.7,4.3-3.7"/>
					<path class="st64" d="M290.4,480.8c0,0-63.9,6-109.6,30.5c0,0-4.3,0.8-4.8,4.7c-0.5,3.9,0.4,5.4,0.2,6.1s6,3.3,11.9,0.7
						c1.2-2.4,3.6-5,8.3-5.9s44.4-16.6,99.1-17.9c2.6,1.7,4.6,2.5,5.1,2.7"/>
					<path class="st65" d="M188.3,522.7c0,0,4.2,0.2,4.3-4.4"/>
					<path class="st64" d="M326.9,473.9c0,0,27.5-10.5,54.4-3.3c10.9,1.8,8.2,10.4,8.2,10.4h-1.7c0,0,0-1.4-0.7-1.9
						c-1.1-0.7-16.2-3.3-33.9,4.4"/>
					<path class="st65" d="M387.8,481c0,0-3.8,1.9-8.2,0.9c-4.4-1-4.3-3.7-4.3-3.7"/>
					<path class="st64" d="M333.7,480.8c0,0,63.9,6,109.6,30.5c0,0,4.3,0.8,4.8,4.7c0.5,3.9-0.4,5.4-0.2,6.1c0.1,0.7-6,3.3-11.9,0.7
						c-1.2-2.4-3.6-5-8.3-5.9c-4.7-0.9-44.4-16.6-99.1-17.9c-2.6,1.7-4.6,2.5-5.1,2.7"/>
					<path class="st65" d="M435.8,522.7c0,0-4.2,0.2-4.3-4.4"/>
					<path class="st64" d="M300.6,488.5c0,0,1.5,48.3,2.4,54.6c0.9,6.2,0,11.5,0,11.5s3,4.9,9.2,5.1"/>
					<path class="st64" d="M323.9,488.5c0,0-1.5,48.3-2.4,54.6c-0.9,6.2,0,11.5,0,11.5s-3,4.9-9.2,5.1"/>
				</g>
				<g>
					<path class="st64" d="M224.9,493.8c0,0-0.8-9.7,4.1-9.9s7.6,6.7,7.6,6.7"/>
					<path class="st64" d="M228.8,483.9l4.7-1.1c0,0,5.1,1.9,5.8,7.1"/>
					<path class="st65" d="M239.5,482v1.1c0,0,3.3,1.5,5.2,0c0-0.6,0-1.2,0-1.2"/>
					<path class="st65" d="M239.4,482.5c0,0-1.1,0.2-1.1,0.7s5.6,2.3,7.9-0.1c-0.3-0.8-1.4-0.7-1.4-0.7"/>
					<line class="st65" x1="238.2" y1="483.3" x2="238.2" y2="486.6"/>
					<line class="st65" x1="246.2" y1="483.2" x2="246.2" y2="488.2"/>
					<path class="st64" d="M234.6,483.3c0,0,1.4-1,2.7-1.9"/>
					<path class="st64" d="M245,481.9c0,0,2.7,1.1,3.8,5.5"/>
					<polyline class="st65" points="226,486.8 229,492.6 228.2,492.9 225.2,488.7 					"/>
					<line class="st65" x1="228.3" y1="484" x2="229.5" y2="492.3"/>
					<line class="st65" x1="230.2" y1="484" x2="230.1" y2="492.3"/>
					<path class="st65" d="M234,486.4c0,0-3,5.3-3.1,5.6"/>
					<line class="st65" x1="232.3" y1="491.7" x2="235.1" y2="488.1"/>
				</g>
				<g>
					<path class="st64" d="M399.1,493.8c0,0,0.8-9.7-4.1-9.9c-4.9-0.3-7.6,6.7-7.6,6.7"/>
					<path class="st64" d="M395.2,483.9l-4.7-1.1c0,0-5.1,1.9-5.8,7.1"/>
					<path class="st65" d="M384.6,482v1.1c0,0-3.3,1.5-5.2,0c0-0.6,0-1.2,0-1.2"/>
					<path class="st65" d="M384.7,482.5c0,0,1.1,0.2,1.1,0.7c0,0.5-5.6,2.3-7.9-0.1c0.3-0.8,1.4-0.7,1.4-0.7"/>
					<line class="st65" x1="385.8" y1="483.3" x2="385.8" y2="486.6"/>
					<line class="st65" x1="377.9" y1="483.2" x2="377.9" y2="488.2"/>
					<path class="st64" d="M389.4,483.3c0,0-1.4-1-2.7-1.9"/>
					<path class="st64" d="M379,481.9c0,0-2.7,1.1-3.8,5.5"/>
					<polyline class="st65" points="398,486.8 395,492.6 395.9,492.9 398.8,488.7 					"/>
					<line class="st65" x1="395.7" y1="484" x2="394.6" y2="492.3"/>
					<line class="st65" x1="393.9" y1="484" x2="393.9" y2="492.3"/>
					<path class="st65" d="M390,486.4c0,0,3,5.3,3.1,5.6"/>
					<line class="st65" x1="391.8" y1="491.7" x2="388.9" y2="488.1"/>
				</g>
				<path class="st64" d="M181.2,523.9c-0.4-0.1-2,1,1.2,1.5c2.5,0.4,6.8,0,7.1-0.7s-1-1-1.5-1.1"/>
				<line class="st65" x1="187.9" y1="523" x2="187.9" y2="525"/>
				<line class="st64" x1="180.5" y1="524.5" x2="180.5" y2="527.5"/>
				<path class="st64" d="M189.5,524.5l-0.4,11c0,0-0.2,0.9-0.6,1.2"/>
				<g>
					<ellipse class="st66" cx="175.3" cy="540.1" rx="13.7" ry="13.5"/>
					<ellipse class="st67" cx="175.3" cy="540.1" rx="11.9" ry="11.7"/>
					<path class="st66" d="M180.5,525.5c-2-1-6.1-2.4-11.1-0.2c-5,2.3-7.3,7.1-7.3,11.2"/>
					<path class="st68" d="M171.2,529.1l3.2,9.3c0,0-0.3,0.1-0.6,0.5c-0.8-0.5-7.9-5.9-7.9-5.9"/>
					<path class="st68" d="M180.8,529.7l-4.2,8.6c0,0-0.7-0.2-1.1-0.1c-0.3-1.8-1.2-9.7-1.2-9.7"/>
					<path class="st68" d="M186.5,536.1l-8.5,3.5c0,0-0.1-0.3-0.4-0.7c0.5-0.8,5.7-7.5,5.7-7.5"/>
					<path class="st68" d="M186.2,545.1l-8.2-3.7c0,0,0.2-0.4,0.2-0.8c1-0.2,8.9-2.2,8.9-2.2"/>
					<path class="st68" d="M179.6,551.1l-2.8-8.3c0,0,0.3-0.1,0.7-0.4c0.8,0.5,7.1,5.3,7.1,5.3"/>
					<path class="st68" d="M170.7,550.9l4.2-8.1c0,0,0.5,0.1,0.9,0.1c0.3,1.8,1,7.8,1.1,8.8"/>
					<path class="st68" d="M164.5,545.1l8.6-3.5c0,0,0.1,0.3,0.4,0.7c-0.5,0.8-5.5,7.2-5.5,7.2"/>
					<path class="st68" d="M164.3,535.7l9,4c0,0-0.2,0.4-0.2,0.8c-1,0.2-9.3,2.2-9.3,2.2"/>
				</g>
				<g>
					<ellipse class="st66" cx="448.4" cy="540.1" rx="13.7" ry="13.5"/>
					<ellipse class="st67" cx="448.4" cy="540.1" rx="11.9" ry="11.7"/>
					<path class="st66" d="M443.2,525.5c2-1,6.1-2.4,11.1-0.2c5,2.3,7.3,7.1,7.3,11.2"/>
					<path class="st68" d="M452.5,529.1l-3.2,9.3c0,0,0.3,0.1,0.6,0.5c0.8-0.5,7.9-5.9,7.9-5.9"/>
					<path class="st68" d="M442.9,529.7l4.2,8.6c0,0,0.7-0.2,1.1-0.1c0.3-1.8,1.2-9.7,1.2-9.7"/>
					<path class="st68" d="M437.2,536.1l8.5,3.5c0,0,0.1-0.3,0.4-0.7c-0.5-0.8-5.7-7.5-5.7-7.5"/>
					<path class="st68" d="M437.5,545.1l8.2-3.7c0,0-0.2-0.4-0.2-0.8c-1-0.2-8.9-2.2-8.9-2.2"/>
					<path class="st68" d="M444.1,551l2.8-8.3c0,0-0.3-0.1-0.7-0.4c-0.8,0.5-7.1,5.3-7.1,5.3"/>
					<path class="st68" d="M453,550.9l-4.2-8.1c0,0-0.5,0.1-0.9,0.1c-0.3,1.8-1,7.8-1.1,8.8"/>
					<path class="st68" d="M459.2,545.1l-8.6-3.5c0,0-0.1,0.3-0.4,0.7c0.5,0.8,5.5,7.2,5.5,7.2"/>
					<path class="st68" d="M459.5,535.7l-9,4c0,0,0.2,0.4,0.2,0.8c1,0.2,9.3,2.2,9.3,2.2"/>
				</g>
				<path class="st64" d="M442.5,524c0.4-0.1,2,1-1.2,1.5c-2.5,0.4-6.8,0-7.1-0.7c-0.3-0.6,1-1,1.5-1.1"/>
				<line class="st65" x1="435.9" y1="523.1" x2="435.9" y2="525.1"/>
				<line class="st64" x1="443.2" y1="524.7" x2="443.2" y2="527.7"/>
				<path class="st64" d="M434.2,524.7l0.4,11c0,0,0.2,1,0.6,1.2"/>
				<line class="st65" x1="306.7" y1="558" x2="306.7" y2="561.9"/>
				<path class="st64" d="M308.3,562.1h-5.3c0,0-1.2,5.4-1.1,13.8c0,0.5-0.7,1.3-0.7,1.3l-0.1,1.7c0,0,0.5,0.5,0.5,0.8
					c0.1,7.3,1.2,12.4,1.2,12.4l5.2,0.3C308.1,592.4,309,564.2,308.3,562.1z"/>
				<path class="st65" d="M303.1,562.1c0,0-0.2,12.5-0.2,30"/>
				<path class="st64" d="M315.8,562.1h5.3c0,0,1.2,5.4,1.1,13.8c0,0.5,0.7,1.3,0.7,1.3l0.1,1.7c0,0-0.5,0.5-0.5,0.8
					c-0.1,7.3-1.2,12.4-1.2,12.4l-5.2,0.3C316.1,592.4,315.1,564.2,315.8,562.1z"/>
				<path class="st65" d="M321.1,562.1c0,0,0.2,12.5,0.2,30"/>
				<line class="st65" x1="308.5" y1="563.5" x2="315.7" y2="563.5"/>
				<line class="st65" x1="308.5" y1="581.7" x2="315.7" y2="581.7"/>
				<line class="st65" x1="317.1" y1="558.3" x2="317.1" y2="562.1"/>
				<line class="st64" x1="301.3" y1="424.4" x2="301.3" y2="440.7"/>
				<path class="st64" d="M305.6,422.8c0,0-4,0.3-4.2,1.5c-0.2,1.2,8.2,2.2,11.9,2.1c3.7,0,11.1-0.6,10.5-2.1c-0.6-1.5-4-1.5-4-1.5"
					/>
				<path class="st64" d="M305.6,416.8v7.5c0,0,8,1.8,14.2,0c0-1.8,0-6.8,0-6.8"/>
			</g>
			<line class="st64" x1="323.8" y1="424.4" x2="323.8" y2="440.8"/>
			<path class="st65" d="M301,407.5c-0.5-1.6,0.2-5.2,0.5-6.2s0.8-2.2,2.5-2.2c1.7-0.1,2,2.2,2,2.2s-0.1,6-1,6.9"/>
			<path class="st64" d="M266.1,401.4c0,0,23,3.4,29.2,8.3c4,1.9,9.3,1.7,20.4,1.7c11.1,0.1,21.1-0.7,21.1-0.7s3.7,0,5.4-2.3
				c1.7-2.4,14.2-6.8,14.2-6.8s9.2-3.7,12.4-4"/>
			<path class="st64" d="M295.9,409.9c0,0,0.6,4.2,4.4,4.9c3.8,0.7,5.4,2.3,7,2.6c1.6,0.4,11.4,0,11.4,0s1.5,0.1,2.1-1
				c0.9-1.3,2.4-2.4,3.3-2.7c1-0.3,5.5-1.9,6.1-2.7"/>
			<circle class="st65" cx="321.5" cy="405.8" r="3.1"/>
			<path class="st69" d="M304.6,407.4c0,0,0.2-3.3-1.5-3.2c-2,0.1-2,2.9-2,2.9s0,9.8-0.1,10.9c-0.1,1.1-3.9,14.7-4.4,15.6
				c1.7,0.6,3.3,1.1,3.3,1.1l3.9-12.5c0,0,0.7-2.4,0.6-4.2C304.5,416.1,304.6,407.4,304.6,407.4"/>
			<path class="st70" d="M296.6,433.6l-0.9-0.3l-8.7,24.7c0,0-0.5,1.7,0.2,2.1c0,0,3.6,1.3,3.9,1.3c0.3,0,2.5-3.5,2.9-5
				c0.5-1.5,0.4-2.1,0.2-2.8s0.3-1.1,0.6-1.5c0.3-0.4,1-2,0.9-2.9c-0.1-0.9,1-1.1,1.5-2c0.5-0.9,3.6-12.1,3.6-12.1L296.6,433.6z"/>
			<g>
				<polyline class="st71" points="358.9,403.8 359.7,404.6 358.2,405.9 360.1,406.2 358.4,407.5 360.3,408.1 358.9,409.3 
					360.5,409.7 359.1,411.1 360.8,411.6 359.5,413 361.1,413.4 359.9,414.5 361.4,415.1 360.6,416.1 				"/>
				<polyline class="st71" points="337.2,410.5 336.4,411 338.1,411.4 336.6,412.5 338.3,412.9 336.9,414.1 338.6,414.5 
					337.1,415.7 338.8,416.3 337.4,417.3 339.1,418.1 337.9,418.9 338.9,419.5 				"/>
				<line class="st71" x1="359.6" y1="404.7" x2="342.3" y2="408.3"/>
				<line class="st71" x1="360.1" y1="406.2" x2="336.5" y2="411.1"/>
				<line class="st71" x1="360" y1="408.1" x2="337.1" y2="412.4"/>
				<line class="st71" x1="360.4" y1="409.6" x2="337.2" y2="414"/>
				<line class="st71" x1="360.8" y1="411.6" x2="337.5" y2="415.7"/>
				<line class="st71" x1="361" y1="413.5" x2="337.8" y2="417.4"/>
				<line class="st71" x1="361.4" y1="415.1" x2="338.1" y2="418.8"/>
			</g>
			<path class="st72" d="M337.3,419.6l25.1-3.5l2.6,17.5c0,0-5.1,4.7-12.1,5.8c-6.9,1-13-2-13-2L337.3,419.6z"/>
			<path class="st71" d="M339.8,437.5c0,0,12.2,0.7,25.2-4"/>
			<path class="st71" d="M363.3,398.6c0,0-0.2,2.4-2.5,4.1c-2,1.5-7.1,3.2-7.1,3.2"/>
		</g>
		<path class="st64" d="M212.5,391.9c0,0,3.5,11.1,9.4,13.2s45.3-3.8,45.3-3.8s43.8-4.7,52.7-6.7c8.9-2.1,29.8-1.2,25.3-16.5
			s-33.2-12.6-33.2-12.6s-50.6,11.5-67.9,6.7s-20.3-17.8-20.3-17.8s28.2-30.8,33.8-40c5.6-9.2,13.4-19.2,24.2-22.4s29-6.7,37.4-7.4
			c8.4-0.7,32.3-2.6,32.3-2.6s19.5,2.7,19.5-5.3c0,0,2.5-1.4,3.2-4.5s2.1-10.4,2.1-10.4s-0.3-4.3-6-6.9c-5.7-2.7-23.6-7.5-45-7.2
			s-57.5,7.1-62.3,9.7c-4.8,2.6-7,4.1-7.8,5.8c-0.8,1.8,3,14,3.5,14.6c0.5,0.7,1.7,1.8,1.7,1.8s-10.6,8.5-15.5,14.2
			c-4.9,5.7-13.9,16.2-15.5,17.8c-4.7,4.5-16.4,13.4-20.3,16"/>
		<path class="st64" d="M260,279.4c0,0,8.7-2,23.5-4.1s59.5-5,73.7-2c14.2,3,14.4,3.4,14.4,3.4"/>
		<path class="st65" d="M255.2,263.1c0,0,44.3-13.2,72.2-11.1c32.4,2.4,48.1,7.5,48.1,7.5"/>
		<path class="st64" d="M268,401.2c0,0-40.8,2.5-58-11.1c-11.1-8.7-18.1-15-14.8-43.5c0,0-1.4-3.7,1-9.8c0.5-4.3,3.4-34.4,3.4-34.4
			s1.6-10.8,10.2-11c8.6-0.1,13,5.5,13,5.5s6.2,8.5,6,14.8"/>
		<circle class="st64" cx="211.4" cy="343.4" r="16.1"/>
		<circle class="st65" cx="213.4" cy="310.7" r="4.2"/>
		<circle class="st65" cx="204.1" cy="363.7" r="4.2"/>
		<circle class="st65" cx="259.5" cy="391.1" r="4.2"/>
		<circle class="st65" cx="331.1" cy="382.8" r="4.2"/>
		<path class="st64" d="M197.8,377c0,0-10.9-0.3-9.1-19s11.2-53.3,8.2-71.3c-3.1-18-20.8-54.8-20.8-54.8s-19.4-47.3-23.3-72.6
			c-1.9-12.5-3.9-58.9-2.8-70.8c1.1-11.9,1.4-65.4,6.7-73s21.9-5.6,21.9-5.6s7.4,3.6,12.4,16.7s5.6,47.1,5.6,47.1s2.2,27.1,5.8,39.3
			c2.6,17.9,10.8,57.3,10.8,57.3s7.4,34.7,18.2,52.2c10.8,17.5,15.5,37,16,49.6c4.6-2.9,7.9-8.1,7.9-8.1"/>
		<path class="st64" d="M247.2,271.2c0,0,1.1,14.3-1.3,20.9"/>
		<path class="st64" d="M253.6,319.8c0,0,98.8-21.4,152.7,0c0,0,26.7,10.6,33,40.2c2.3,14.2-6.9,40.4-6.9,40.4s-3,3.8-17.9,0.5
			c-14.6-3.2-100.1-5.4-100.1-5.4"/>
		<path class="st64" d="M439.6,362c-7.1,5-47.7-7.3-81.4-8.7s-122.7,15.3-122.7,15.3"/>
		<path class="st65" d="M439.6,362c-11.5-21.7-61.2-18.6-61.2-18.6c-14,0.8-150.8,6.7-150.8,6.7"/>
		<path class="st65" d="M247.4,327.5c0,0,101.3-3.1,104.9-3.5c3.6-0.4,43.6-9.9,58.4-2"/>
		<line class="st65" x1="272.6" y1="326.7" x2="268" y2="348.4"/>
		<line class="st65" x1="312.1" y1="325.4" x2="311.1" y2="346.5"/>
		<line class="st65" x1="351.9" y1="324" x2="355" y2="344.5"/>
		<path class="st64" d="M180,10.8c0,0-3.5,1.2-3.6,18.8c-0.1,16.6,0.4,50.1,0,60.7c-0.3,6.9-2.9,37,0,46.3
			c3.7,16.8,21.7,70.7,23.8,74.9c2.2,4.2,23.7,50.7,24.4,53.2c0.7,2.5,8.1,23.4,5.8,45.7"/>
		<path class="st65" d="M149.6,93.8c0,0,13-8.6,26.8-3.5"/>
		<path class="st65" d="M201.7,110.9c0,0-3.6,42.1-3.5,44.6c0.1,2.5,14.2,51.4,24.8,67s20,37.7,24.2,49.2"/>
		<path class="st65" d="M239.1,300.3c0.9-7.3-3.1-30.9-6.4-37.2c-3.2-6.4-20.5-36.9-24.7-46.1s-14.3-42.5-16.7-51.6
			c-2.4-9.1-6.3-37.1-6.7-50.4c-0.3-13.3-8.3-24.2-8.3-24.2"/>
		<path class="st65" d="M234.8,269c0,0,5.8-3.3,6.8-11.5"/>
		<path class="st65" d="M223.3,222.8c0,0-1.2,7.8-6.3,11.3"/>
		<path class="st65" d="M209,190.7c0,0-2.9,4-7.8,7"/>
		<path class="st64" d="M185.6,88.5c0,0,3.2,4.5,4,9.5c0.8,5,4.2,41.5,4.2,41.5s0.2,4.9-2.2,3.5c-2.4-1.5-3.1-8.2-3.1-8.2L184.6,92
			C184.6,92,184.6,88.7,185.6,88.5z"/>
		<path class="st65" d="M184.8,93.5c0,0,3.4,4.6,3.8,7.2s3.6,36.5,3.6,36.5s0.3,3.3-0.8,1.9c-1-1.3-2.9-3.6-2.9-3.6"/>
		<path class="st64" d="M202.2,112.8c0,0,1.4,39.3,3.7,49c2.4,9.7,10.6,41.5,15.5,49.1c21.7,33.5,25.7,60.7,25.7,60.7"/>
		<path class="st64" d="M259.5,259.2c0,0,7.6-10,15.9-12.7c29.5-9.4,59.3-7.7,81.2-3.9c2.5,3.1-1.2,4.2-1.2,4.2s-11.6-0.1-12.8,1.5"
			/>
		<path class="st64" d="M273.5,247.3c0,0-2.7,0.6-4-2.2s-3.5-9.3-3.5-9.3s-1.7-4.3,5-6.5c6.7-2.2,29.7-8.3,50.3-7.9s31.9,1.9,36.1,5
			s1.5,14.3,1.5,14.3s-0.2,2.4-2.4,2"/>
		<path class="st65" d="M265.9,234c0,0.2,24.2-8.7,47-9.8c22.8-1.1,45.4,6,46.4,4.9"/>
		<path class="st64" d="M176.9,91.5c0,0,6.6,40.1,11.5,57.8c0,0,7.3,36.9,13.8,51.7c5.8,16,8.4,25,16.8,36.9
			c6.3,11.5,20.1,33.3,20.1,62.4"/>
		<path class="st64" d="M224.4,354.6c0,0,84.5-2.8,91.4-4.4c6.9-1.7,102.1-5.7,123.1,11.8"/>
		<path class="st64" d="M250.9,323.2c0,0,83.3-3.1,100-4.3c16.7-1.2,42.2-3.6,52.8,0"/>
	</g>
	
		<image style="overflow:visible;" width="280" height="697" xlink:href="232C16E3.png"  transform="matrix(0.2082 0 0 0.2082 189.9408 155.4033)">
	</image>
	
		<image style="overflow:visible;" width="1022" height="207" xlink:href="232C16E1.png"  transform="matrix(0.2082 0 0 0.2082 227.4175 318.6354)">
	</image>
	<line class="st65" x1="198.2" y1="155.4" x2="190.1" y2="157.6"/>
</g>
</svg>
