<?xml version="1.0" encoding="UTF-8"?>
<!-- Generator: Adobe Illustrator 21.0.0, SVG Export Plug-In . SVG Version: 6.00 Build 0)  -->
<svg version="1.1" id="Camada_1" xmlns="http://www.w3.org/2000/svg" xmlns:xlink="http://www.w3.org/1999/xlink" x="0px" y="0px" viewBox="0 0 375.4 656.8" style="enable-background:new 0 0 375.4 656.8;" xml:space="preserve">
<style type="text/css">
	.st0{fill:none;stroke:#000000;stroke-width:2;stroke-miterlimit:10;}
	.st1{fill:none;stroke:#000000;stroke-width:3;stroke-miterlimit:10;}
	.st2{fill:none;}
</style>
<title>Ativo 2</title>
<g>
	<polyline class="st0" points="236.2,440.3 234.3,441.7 236.5,442.2 234.5,443.6 236.6,444.3 234.9,445.6 236.7,446.2 235,447.7    236.9,448.4 235.3,449.8 237,450.5 235.6,451.7 237.2,452.4 236.3,453.5  "/>
	<polyline class="st0" points="208.8,441.5 210.7,442.7 209,443.9 210.9,444.5 209.1,445.6 211,446.2 209.2,447.3 211.1,447.9    209.4,449.1 211.3,449.8 209.5,451 211.4,451.8 209.7,452.8 211.6,453.9 210.1,454.7 211.1,455.5  "/>
	<line class="st0" x1="236.1" y1="440.4" x2="209" y2="443.9"/>
	<line class="st0" x1="236.5" y1="442.2" x2="209.3" y2="445.7"/>
	<line class="st0" x1="236.3" y1="444.4" x2="209.8" y2="447.3"/>
	<line class="st0" x1="236.6" y1="446.1" x2="209.8" y2="449"/>
	<line class="st0" x1="236.9" y1="448.4" x2="209.9" y2="451"/>
	<line class="st0" x1="236.9" y1="450.6" x2="210.1" y2="452.9"/>
	<line class="st0" x1="237.2" y1="452.4" x2="210.4" y2="454.5"/>
	<path class="st1" d="M209.4,455.5l28.9-1.7l1.4,20.2c-4.2,3.1-9.1,5-14.3,5.5c-5.1,0.2-10.1-1-14.6-3.4L209.4,455.5z"/>
	<path class="st0" d="M210.6,476c9.7,1,19.6,0.2,29-2.3"/>
	<path class="st1" d="M212.4,476.8c0,1.4,0.7,45.6,0.7,45.6s-14.4,7.7-36.3-0.8c0.7-19.5,1.5-48.4,1.5-48.4c1.1-0.8,2.3-1.4,3.6-1.8   "/>
	<path class="st1" d="M178.3,473.2c0,0,7.9,5.9,32.3,1.5"/>
	<path class="st1" d="M159.1,431.1c0,0-45.4,6.6-51.1,7.5c-3.2,0.4-5.9,2.4-7.3,5.3l-5.1,12.3c0.5,1.1,1.9,1.6,3,1.1   c0.2-0.1,0.4-0.2,0.5-0.3c1-3.2,4.7-11,4.7-11c1.1-1.7,2.9-3,4.9-3.6c8.2-1.7,57.1-8.4,57.1-8.4"/>
	<polyline class="st0" points="95.4,455.7 92.2,455.5 94.7,458.1 101.2,459.7 99.3,457.1  "/>
	<path class="st1" d="M92,455.5c0,0-12.5,16.2-14.1,19s-1.5,8.4,2.4,8.5c1.4,0.4,2.8,1.1,4,2.1c0,0,1.3,1.1,4.3,0.4   c1.8,0.2,2.4,0.6,3.6,0.3s3.1-1.6,4.2-4.8s5.1-21,5.1-21"/>
	<path class="st0" d="M94.7,458.1l-6.5,11.7c0,0,0.8,4.5,5.8,1.5c2-3.9,3.8-7.9,5.4-12c0,0-3.2,14.6-4,17.5c-0.9,3.5-2,5.2-2.9,5.5   c-1,0.2-2.1,0.2-3.1,0.1c-1.4,0-2.9,0.6-3.7,0.2c-1-0.8-2.2-1.4-3.4-1.8c-3.5-0.6-1.7-4.8-0.4-7.2s10.9-17,10.9-17"/>
	<path class="st1" d="M176.8,514c0,0-33.1-12.6-65.3-4c-13.1,2.1-9.8,12.5-9.8,12.5h2.1c0,0,0.1-1.7,0.8-2.3   c1.3-0.9,19.4-4,40.7,5.3"/>
	<path class="st0" d="M103.8,522.5c3.1,1.4,6.5,1.7,9.8,1.1c5.3-1.2,5.2-4.4,5.2-4.4"/>
	<path class="st1" d="M168.7,522.3c0,0-76.7,7.3-131.6,36.6c0,0-5.1,0.9-5.7,5.6c-0.6,4.7,0.5,6.5,0.3,7.4s7.2,4,14.3,0.9   c1.4-2.9,4.3-6,9.9-7.1s53.3-19.9,118.9-21.5c1.9,1.3,4,2.4,6.1,3.2"/>
	<path class="st0" d="M46.1,572.5c0,0,5,0.3,5.2-5.3"/>
	<path class="st1" d="M212.6,514c0,0,33.1-12.6,65.3-4c13.1,2.1,9.8,12.5,9.8,12.5h-2.1c0,0,0-1.7-0.8-2.3c-1.3-0.9-19.4-4-40.8,5.3   "/>
	<path class="st0" d="M285.7,522.5c-3.1,1.4-6.5,1.7-9.8,1.1c-5.3-1.2-5.2-4.4-5.2-4.4"/>
	<path class="st1" d="M220.7,522.3c0,0,76.7,7.3,131.6,36.6c0,0,5.1,0.9,5.7,5.6s-0.5,6.5-0.3,7.4s-7.2,4-14.3,0.9   c-1.4-2.9-4.3-6-9.9-7.1s-53.3-19.9-118.9-21.5c-1.9,1.3-4,2.4-6.1,3.2"/>
	<path class="st0" d="M343.3,572.5c0,0-5,0.3-5.2-5.3"/>
	<path class="st1" d="M181,531.5c0,0,1.8,58,2.9,65.5c0.7,4.6,0.7,9.2,0,13.8c2.5,3.7,6.6,5.9,11.1,6.1"/>
	<path class="st1" d="M208.9,531.5c0,0-1.8,58-2.9,65.5c-0.7,4.6-0.7,9.2,0,13.8c-2.5,3.7-6.6,5.9-11.1,6.1"/>
	<path class="st1" d="M90.1,537.9c0,0-0.9-11.6,5-11.9s9.1,8,9.1,8"/>
	<path class="st1" d="M94.8,526l5.7-1.3c0,0,6.1,2.3,7,8.6"/>
	<path class="st0" d="M107.6,523.7v1.3c0,0,4,1.8,6.3,0c0-0.7,0-1.5,0-1.5"/>
	<path class="st0" d="M107.5,524.4c0,0-1.4,0.3-1.4,0.9s6.7,2.7,9.5-0.1c-0.4-0.9-1.7-0.8-1.7-0.8"/>
	<line class="st0" x1="106.1" y1="525.3" x2="106.1" y2="529.2"/>
	<line class="st0" x1="115.6" y1="525.2" x2="115.6" y2="531.1"/>
	<path class="st1" d="M101.8,525.3c0,0,1.6-1.1,3.3-2.3"/>
	<path class="st1" d="M114.2,523.6c0,0,3.2,1.3,4.5,6.6"/>
	<polyline class="st0" points="91.5,529.5 95,536.5 94,536.8 90.5,531.7  "/>
	<line class="st0" x1="94.2" y1="526.2" x2="95.6" y2="536.1"/>
	<line class="st0" x1="96.5" y1="526.2" x2="96.4" y2="536.1"/>
	<path class="st0" d="M101.1,529c0,0-3.6,6.4-3.7,6.8"/>
	<line class="st0" x1="99" y1="535.4" x2="102.4" y2="531"/>
	<path class="st1" d="M299.3,537.9c0,0,0.9-11.6-5-11.9s-9.1,8-9.1,8"/>
	<path class="st1" d="M294.6,526l-5.7-1.3c0,0-6.1,2.3-7,8.6"/>
	<path class="st0" d="M281.8,523.7v1.3c0,0-4,1.8-6.3,0c0-0.7,0-1.5,0-1.5"/>
	<path class="st0" d="M282,524.4c0,0,1.4,0.3,1.4,0.9s-6.7,2.7-9.5-0.1c0.4-0.9,1.7-0.8,1.7-0.8"/>
	<line class="st0" x1="283.3" y1="525.3" x2="283.3" y2="529.2"/>
	<line class="st0" x1="273.8" y1="525.2" x2="273.8" y2="531.1"/>
	<path class="st1" d="M287.6,525.3c0,0-1.6-1.1-3.3-2.3"/>
	<path class="st1" d="M275.2,523.6c0,0-3.2,1.3-4.5,6.6"/>
	<polyline class="st0" points="298,529.5 294.4,536.5 295.4,536.8 299,531.7  "/>
	<line class="st0" x1="295.2" y1="526.2" x2="293.8" y2="536.1"/>
	<line class="st0" x1="293" y1="526.2" x2="293.1" y2="536.1"/>
	<path class="st0" d="M288.4,529c0,0,3.6,6.4,3.7,6.8"/>
	<line class="st0" x1="290.5" y1="535.4" x2="287" y2="531"/>
	<path class="st1" d="M37.7,574c-0.5-0.1-2.4,1.2,1.4,1.8c3,0.5,8.1,0,8.5-0.8s-1.2-1.3-1.8-1.4"/>
	<line class="st0" x1="45.6" y1="572.9" x2="45.6" y2="575.3"/>
	<line class="st1" x1="36.7" y1="574.8" x2="36.7" y2="578.4"/>
	<path class="st1" d="M47.6,574.8L47.1,588c0,0-0.3,1.1-0.7,1.4"/>
	<ellipse class="st0" cx="30.5" cy="593.5" rx="16.4" ry="16.2"/>
	<ellipse class="st0" cx="30.5" cy="593.5" rx="14.3" ry="14.1"/>
	<path class="st0" d="M36.8,576c-7.5-3.8-16.7-0.7-20.5,6.8c-1,2-1.6,4.3-1.6,6.5"/>
	<path class="st0" d="M25.6,580.3l3.8,11.2c-0.3,0.1-0.6,0.3-0.8,0.6c-1-0.7-9.5-7.1-9.5-7.1"/>
	<path class="st0" d="M37.1,581l-5.1,10.3c-0.4-0.1-0.9-0.2-1.3-0.1c-0.4-2.2-1.5-11.7-1.5-11.7"/>
	<path class="st0" d="M44,588.7l-10.2,4.2c-0.1-0.3-0.3-0.6-0.5-0.8c0.7-1,6.9-9,6.9-9"/>
	<path class="st0" d="M43.6,599.5l-9.9-4.5c0.2-0.3,0.2-0.6,0.3-0.9c1.2-0.2,10.7-2.6,10.7-2.6"/>
	<path class="st0" d="M35.7,606.6l-3.4-10c0.3-0.1,0.6-0.3,0.8-0.5c1,0.7,8.5,6.3,8.5,6.3"/>
	<path class="st0" d="M25,606.5l5-9.7c0.3,0.1,0.7,0.1,1.1,0.1c0.4,2.2,1.1,9.4,1.3,10.6"/>
	<path class="st0" d="M17.6,599.5l10.4-4.2c0.1,0.3,0.3,0.6,0.5,0.8c-0.7,1-6.6,8.7-6.6,8.7"/>
	<path class="st0" d="M17.3,588.2l10.8,4.9c-0.2,0.3-0.2,0.6-0.3,0.9c-1.2,0.2-11.2,2.6-11.2,2.6"/>
	<ellipse class="st0" cx="358.5" cy="593.5" rx="16.5" ry="16.2"/>
	<ellipse class="st0" cx="358.5" cy="593.5" rx="14.3" ry="14.1"/>
	<path class="st0" d="M352.3,576c7.5-3.8,16.7-0.7,20.5,6.8c1,2,1.6,4.3,1.6,6.5"/>
	<path class="st0" d="M363.4,580.3l-3.8,11.2c0.3,0.1,0.6,0.3,0.8,0.6c1-0.7,9.5-7.1,9.5-7.1"/>
	<path class="st0" d="M351.9,581l5.1,10.3c0.4-0.1,0.9-0.2,1.3-0.1c0.4-2.2,1.5-11.7,1.5-11.7"/>
	<path class="st0" d="M345.1,588.7l10.2,4.2c0.1-0.3,0.3-0.6,0.5-0.8c-0.7-1-6.9-9-6.9-9"/>
	<path class="st0" d="M345.4,599.5l9.9-4.5c-0.2-0.3-0.2-0.6-0.3-0.9c-1.2-0.2-10.7-2.6-10.7-2.6"/>
	<path class="st0" d="M353.3,606.6l3.4-10c-0.3-0.1-0.6-0.3-0.8-0.5c-1,0.7-8.5,6.3-8.5,6.3"/>
	<path class="st0" d="M364.1,606.5l-5-9.7c-0.3,0.1-0.7,0.1-1.1,0.1c-0.4,2.2-1.1,9.4-1.3,10.6"/>
	<path class="st0" d="M371.4,599.5l-10.4-4.2c-0.1,0.3-0.3,0.6-0.5,0.8c0.7,1,6.6,8.7,6.6,8.7"/>
	<path class="st0" d="M371.7,588.2L361,593c0.2,0.3,0.2,0.6,0.3,0.9c1.2,0.2,11.2,2.6,11.2,2.6"/>
	<path class="st1" d="M351.3,574.2c0.5-0.1,2.5,1.2-1.4,1.8c-3,0.5-8.1,0-8.5-0.8s1.2-1.3,1.8-1.4"/>
	<line class="st0" x1="343.4" y1="573.1" x2="343.4" y2="575.5"/>
	<line class="st1" x1="352.3" y1="575" x2="352.3" y2="578.6"/>
	<path class="st1" d="M341.4,575l0.5,13.2c0,0,0.3,1.1,0.7,1.4"/>
	<line class="st0" x1="188.4" y1="615" x2="188.4" y2="619.7"/>
	<path class="st1" d="M190.3,619.9H184c-1.1,5.5-1.5,11-1.4,16.6c-0.1,0.6-0.4,1.1-0.8,1.6l-0.1,2c0,0,0.6,0.6,0.6,0.9   c0.1,5,0.5,10,1.4,14.9l6.3,0.4C190,656.3,191.1,622.5,190.3,619.9z"/>
	<path class="st0" d="M184,619.9c0,0-0.3,15-0.3,36"/>
	<path class="st1" d="M199.3,619.9h6.3c1.1,5.5,1.5,11,1.4,16.6c0.1,0.6,0.4,1.1,0.8,1.6l0.1,2c0,0-0.6,0.6-0.6,0.9   c-0.1,5-0.5,10-1.4,14.9l-6.3,0.4C199.6,656.3,198.5,622.5,199.3,619.9z"/>
	<path class="st0" d="M205.6,619.9c0,0,0.3,15,0.3,36"/>
	<line class="st0" x1="190.5" y1="621.6" x2="199.1" y2="621.6"/>
	<line class="st0" x1="190.5" y1="643.4" x2="199.1" y2="643.4"/>
	<line class="st0" x1="200.7" y1="615.4" x2="200.7" y2="619.9"/>
	<line class="st1" x1="181.9" y1="454.5" x2="181.9" y2="474.8"/>
	<path class="st1" d="M187,452.7c0,0-4.8,0.4-5.1,1.8s9.8,2.6,14.3,2.6s13.3-0.7,12.6-2.6s-4.8-1.8-4.8-1.8"/>
	<path class="st1" d="M187.1,445.5v9c0,0,9.6,2.2,17.1,0v-8.2"/>
	<path class="st1" d="M165.3,433.7c0,0,1.7,2.8,3.8,3.2s12.1,1.9,12.1,1.9"/>
	<path class="st1" d="M169.5,436.9c0,0,2.4,2.3,7.7,3.5c6.2,1.4,12,2.5,12,2.5s5.5,0.6,7.9,0.6s13.1-0.8,13.1-0.8"/>
	<path class="st1" d="M179.1,440.8c0,0,6.4,3.8,8.4,4.3s12.3,0.8,13.2,0.7c3.2-0.7,6.4-1.6,9.6-2.7"/>
	<path class="st1" d="M186.9,444.9c-0.1,0.8,0.4,1.5,1.1,1.8c1.3,0.6,14.2,0.8,15.1,0.4c0.9-0.4,1.6-1.2,2-2.2"/>
	<path class="st1" d="M105.7,413.9c0,0,53,16,63.8,21.3s36.6,7.5,69.4,5s106.6-21.8,111-25.4s13.1-9.6,14.3-24.9s1.5-21.3-5.1-30.5   s-36.9-17.6-66.4-21.6s-68.1-2.4-68.1-2.4c1.9,0.5-34,2-62.9,7.1c-24.3,4.3-91.1,20.1-100.4,25.1s-8.5,7.1-8.5,7.1s2.1,6.3,21,6.3   s31.4-0.8,37.5,2.3s11.9,11.3,12.2,19.3s-4.3,10-4.3,10L105.7,413.9z"/>
	<path class="st1" d="M106.9,413.8c0,0-46.1,1.3-60.5-9.7c-19.5-10.3-26.7-28.3-25.4-48.3C10.9,359,6.3,345.6,6,341.7   s-1.7-16.6,9.9-17.1c5.8-4.5,12.4-14.9,15.4-23s5.9-19.3,10.2-21.3s20.4-4.5,29.9-2.9s28.4,4.5,39.2,8.5s20.2,0.7,21.6-1.3   c0.4,2.6,1.1,5.8-1.4,6.4s-10.2,2.9-17.4,2.4s-9.9-1.4-9.9-1.4s-28.8-0.3-40.1,5.2s-17.4,31-17.4,31s7.7,10.7-2.3,25.5   c1.8,13.8,7,19.5,9.1,21.2"/>
	<path class="st1" d="M50.3,406.4c0,0,2.4,7.8,26.6,8.9c6.2,0.3,13.8-1.7,13.8-1.7"/>
	<path class="st0" d="M15.6,324.6c0,0,15,10,5.5,31.1c0,0,13.6-11,19.5-20.1s5.5-7.7,5.5-7.7"/>
	<path class="st0" d="M21.4,355.8c0,0,9-0.5,11.6-1c3.9-0.8,10.9-1.6,10.9-1.6"/>
	<ellipse class="st0" cx="106.7" cy="402.4" rx="3.2" ry="4"/>
	<ellipse class="st0" cx="58.2" cy="398.4" rx="2.8" ry="4"/>
	<ellipse class="st0" cx="23.7" cy="361.1" rx="2.8" ry="4"/>
	<path class="st1" d="M35.4,290.1c0,0-4.5-1.7-7.9,1.2s-3.8,8.4-3.8,8.4s0,15-0.7,17.2"/>
	<path class="st0" d="M29.6,305.7c0,0-0.6-1.9-2.2-1.2s-3.1,3.2-0.9,6.9"/>
	<path class="st1" d="M41,280.6c0,0-3.4-15.3-1.3-19.3s21.8-6.5,21.8-6.5s61.8-10.4,74.9,13.8c1.6,8.3-4.1,16-4.1,16"/>
	<path class="st0" d="M136.5,269.8c0,0-16.3-0.4-29.1-3s-31.3-14.5-66.5-6.7"/>
	<path class="st1" d="M34.2,289.6c0,0-1.4-52.1-10.5-66.7C0.1,158.3,0.6,142,0.6,142s-3.3-20.7,27.7-57.5c7.2-21.2,14-46.5,19-56.5   S54.9-1.6,90.7,0.7s42.3,9.2,42.3,9.2s14.7,4.8,21.2,29.5s14.2,42.8,19.3,52.7s24.2,33.3,23.2,56.7s1,51.8,9,71.5   s13.4,44,13.8,53.2s-5.3,55.4-8.3,62.9"/>
	<path class="st1" d="M219.5,269.2c0,0,9.4,6.5,7.4,23.9c5.5-2.6,15.1-16.3,17.6-20.8s8.6-15.6,17.8-17.9c9.1-2.3,32.3-3.5,45.9,1   s29.3,5.8,32.6,5.3c0.8-5.4,2.1-6,1.4-12.6s-2.5-7.8-12.5-11.1s-33.7-5-48.7-3s-25,3.6-26.4,7.8s1.5,13.8,2.9,14.9"/>
	<path class="st0" d="M341.5,244.4c0,0-3,3.2-17,0s-35.7-11.6-66.1-6"/>
	<path class="st1" d="M225.3,335.4c0,0-4.4-10.7-3.4-12.6c3.6-0.2,7.3-0.6,10.9-1.1c0,0,4.6-4,6.5-8.5c2-3.4,10.8-12.4,14.1-19.5   c3.4-7.1,12.3-20.9,14.6-22s32.2-8.6,53-5.4c12.3,0,18.9-1.4,19.8-5.6"/>
	<path class="st0" d="M230.6,322c0,0,8.6-19.4-3.6-28.9"/>
	<path class="st2" d="M214,323.5c0,0,10-2.9,6.7-19.6"/>
	<line class="st0" x1="214" y1="322.6" x2="221.4" y2="322.6"/>
	<path class="st1" d="M49.5,257c0,0-16-63.2-29.7-93.4s2.1-57.5,2.1-57.5s7.4-10.7,15.4-21.8c5.1-7,22.3-64.1,22.3-64.1   C63.9,8.7,75.2,1.4,87.4,2c21.7,0.6,30.8,2.2,30.8,2.2"/>
	<path class="st1" d="M84.8,79.9l-11.9,5.9c0,0-5.3,1.4-6.8,8.6s-7.4,39.4-7.4,39.4s-0.1,9.8,8.5,9.9c10-3.9,23.6-8.6,23.6-8.6   s5-2.3,4.9-12s-1.6-37.8-1.6-37.8S92.9,75.9,84.8,79.9z"/>
	<path class="st0" d="M85.6,85.5l-11.8,6.1c0,0-2.8,0.6-3.8,6.1s-6.5,35.5-6.5,35.5s-1,4.4,3.3,3.3s22-8.5,22-8.5s2.1-1.6,2-5.4   s-0.6-36-0.6-36S89.1,83.7,85.6,85.5z"/>
	<path class="st0" d="M72.4,92.6l1.6,31.8c0,0-0.1,2.9-2.1,4.3s-8.2,4-8.2,4"/>
	<line class="st0" x1="74" y1="124.4" x2="90.8" y2="123.7"/>
	<path class="st1" d="M113.8,84.5v36.9c0,0,0.6,8.4,8.6,11.4s22.1,8.6,22.1,8.6s7.4,1.6,7.8-7.5c-1.2-9.8-9.1-40.3-9.1-40.3   s-1.5-5.3-8.1-8.6c-6.4-3.9-12.9-7.1-12.9-7.1S114.8,75.2,113.8,84.5z"/>
	<path class="st0" d="M119.2,85.7v35.6c0.2,2.1,1.4,4.1,3.3,5.1c3.2,1.6,22.1,8.5,22.1,8.5c1-0.2,1.7-1.2,1.5-2.2   c0-0.1-0.1-0.3-0.1-0.4c-0.6-2.3-8.8-37.4-8.8-37.4s-0.1-2.5-4.1-4.3s-11.3-5.7-11.3-5.7S119.2,83.7,119.2,85.7z"/>
	<path class="st0" d="M119.2,91.5l3.2,2.5c0,0,1.2,0.8,1.8,3.5s7.9,32.8,7.9,32.8"/>
	<line class="st0" x1="123.8" y1="96.1" x2="137.2" y2="94.9"/>
	<line class="st0" x1="146.1" y1="133" x2="139.6" y2="133.1"/>
	<path class="st1" d="M54.1,372.5c0,0,54.5-6.7,78.6,1.7s58.1,23.2,58.1,23.2s26.3,9.4,54.6,9S349.2,382.5,354,380   s10.1-9.9,10.1-9.9"/>
	<path class="st0" d="M173.3,340.1c0,0,46.4,3.9,64.6,7.1s36.1,5.7,36.1,5.7s37-4,60.2,6.3c13.3,5.6,21.9,18.7,21.7,33.2   c-0.3,7.3-1.8,14.6-4.6,21.3"/>
	<path class="st0" d="M272.3,352.6c0,0-55.7,15.7-77.9,17.8"/>
	<line class="st0" x1="147.8" y1="364.7" x2="234.1" y2="346.6"/>
	<path class="st1" d="M54.6,306.3c0,0,1.1,53.6-4.4,65.7"/>
	<path class="st0" d="M92.1,252.6c-3.3-8.1-18.7-55.2-26.6-95.2c-3.3-8.3-28.2-73.1-28.2-73.1"/>
	<path class="st0" d="M173.6,92c0,0-22.1,59.3-21.3,62.5c4.3,16.5,26.5,86.8,30.3,106.1s5.8,56-3,79.2"/>
	<path class="st0" d="M98.7,292.2c0,0,3,40.9-9.7,67c0,0,58.8,4.6,87.4,9.2c32.6,2.8,50.3,7.7,59.4,19.8s8.2,23.9,8.2,30.6   c0,6.7-5.1,21.4-5.1,21.4"/>
	<line class="st0" x1="65.5" y1="157.4" x2="152.3" y2="154.5"/>
	<line class="st0" x1="74.4" y1="195.8" x2="162.6" y2="189.4"/>
	<line class="st0" x1="85.8" y1="233.8" x2="172.4" y2="224.7"/>
	<line class="st0" x1="98.6" y1="316.9" x2="185.7" y2="302.7"/>
	<line class="st0" x1="183" y1="263.3" x2="136.5" y2="269.8"/>
	<path class="st1" d="M74.4,293.9c0,0,8.9,33.8,3.1,67.6c0,0,40-1,92,10.5c29.7,6.6,50.1,9.2,74.1,35"/>
	<path class="st1" d="M37.3,84.3c0,0-3.6,42.6-4.9,62.1c-0.4,11.1,3.3,27.4,6.6,37.4s26.4,54.3,29.8,70"/>
	<path class="st1" d="M354,380c0,0,7.8-32.8-72.7-37.6s-84.6-4.4-84.6-4.4c8-18.1,3.6-61.6,3.8-80.5s-4.1-56.5-6.1-73.8   s-2.9-28.6-7.9-44.7c-6.9-22.3-13-47-13-47"/>
	<line class="st0" x1="28.2" y1="84.5" x2="37.3" y2="84.3"/>
	<path class="st0" d="M227.4,293h-9.4"/>
	
		<image style="overflow:visible;enable-background:new    ;" width="1203" height="1053" xlink:href="944B7040.png" transform="matrix(0.24 0 0 0.24 65.3171 154.3459)">
	</image>
</g>
</svg>