<svg xmlns="http://www.w3.org/2000/svg" viewBox="0 0 1057.99 838.53"><title>Almofada Elite Series PU</title><g id="Camada_2" data-name="Camada 2"><g id="Camada_2-2" data-name="Camada 2"><path d="M25.48,21s3-19,28-19h277s290,6,418,14,138,7,138,7,14,0,30,9,60,24,77,101c8,52,17,178,13,319-4,34-25,152-25,152l-899,34s-19,1-19-15c-3-1-9-9-11-41s-19-231-19-231-5,4-6,0-6-33-6-33-1-34-4-59-14-148-14-148S-6.52,43,25.48,21Z" style="fill:#fff;stroke:#000;stroke-miterlimit:10;stroke-width:4px"/><path d="M63,623.5s14,14,19,4,18-39,25-46,42-55,44-115-1-233-23-325c-9-29-18-126-103-121" style="fill:none;stroke:#000;stroke-miterlimit:10;stroke-width:4px"/><line x1="33.98" y1="349.5" x2="6.59" y2="145.39" style="fill:none;stroke:#000;stroke-miterlimit:10;stroke-width:2px"/><path d="M151.5,2S363-.5,377,273.5" style="fill:none;stroke:#000;stroke-miterlimit:10;stroke-width:4px"/><path d="M801.44,19.2S818,24.5,821,108.5s5,191,5,191" style="fill:none;stroke:#000;stroke-miterlimit:10;stroke-width:4px"/><path d="M659,182.89l-17.08,37.2-84-5,1.29-29.07c.18-4.35,2.38-7.66,5.6-8.42a6,6,0,0,1,1.85-.12l.9.06h0Z" style="fill:none;stroke:#000;stroke-miterlimit:10;stroke-width:2.08635700325598px;fill-rule:evenodd"/><polygon points="591.38 224.11 619.89 225.77 615.38 329.97 586.87 328.31 591.38 224.11" style="fill:none;stroke:#000;stroke-miterlimit:10;stroke-width:2.08635700325598px;fill-rule:evenodd"/><path d="M554.41,326.44c14.8.87,24.9-14.78,22.56-34.95a46.73,46.73,0,0,0-1.06-6.23,40.93,40.93,0,0,0-2.37-6.78l-3.11-7,0,0L530.9,184c-3.86-8.78-8.23-9.17-10.93-9.11l-34.6-2.08-1.69,38,30.31,1.8,34.6,76.07-25.34-1.48-14.19-.83,2.9-66.86-28.52-1.66L478.93,322l75.48,4.44" style="fill:none;stroke:#000;stroke-miterlimit:10;stroke-width:2.08635700325598px;fill-rule:evenodd"/><path d="M739.84,200.17c0,.06,0,.12,0,.19a12.83,12.83,0,0,1-.84,6.28l-8,18.62-78.82-4.6,17.08-37.15,59.4,3.47C733.6,186.8,739.16,192.39,739.84,200.17Z" style="fill:none;stroke:#000;stroke-linecap:round;stroke-linejoin:round;stroke-width:2.08635700325598px"/><path d="M722.82,288.5a50.73,50.73,0,0,1,4,13.51c2.59,20.16-6.93,33.83-19.52,33.32L655.35,332,638,293.85l56.89,3.32-24.31-40.26,19.25-27.08,34.66,2L705.39,259s8.46,13.91,13.54,22.46C720.51,284.1,721.92,286.55,722.82,288.5Z" style="fill:none;stroke:#000;stroke-linecap:round;stroke-linejoin:round;stroke-width:2.08635700325598px"/><polygon points="654.56 344.13 681.4 345.74 680.4 369.72 653.56 368.12 654.56 344.13" style="fill:none;stroke:#000;stroke-miterlimit:10;stroke-width:2.08635700325598px;fill-rule:evenodd"/><polygon points="685.02 345.94 705.28 347.1 704.28 371.12 684.02 369.93 685.02 345.94" style="fill:none;stroke:#000;stroke-miterlimit:10;stroke-width:2.08635700325598px;fill-rule:evenodd"/><polygon points="709.01 347.32 722.84 348.13 721.86 372.12 708.01 371.31 709.01 347.32" style="fill:none;stroke:#000;stroke-miterlimit:10;stroke-width:2.08635700325598px;fill-rule:evenodd"/><polygon points="726.36 348.32 733.19 348.73 732.17 372.74 725.36 372.33 726.36 348.32" style="fill:none;stroke:#000;stroke-miterlimit:10;stroke-width:2.08635700325598px;fill-rule:evenodd"/><polygon points="736.6 348.92 741.84 349.23 740.84 373.25 735.6 372.93 736.6 348.92" style="fill:none;stroke:#000;stroke-miterlimit:10;stroke-width:2.08635700325598px;fill-rule:evenodd"/><polygon points="745.07 349.42 748.46 349.63 747.52 373.62 744.12 373.42 745.07 349.42" style="fill:none;stroke:#000;stroke-miterlimit:10;stroke-width:2.08635700325598px;fill-rule:evenodd"/><polygon points="650.82 343.95 625.02 342.44 624.4 356.84 645.13 358.05 644.93 362.8 624.19 361.59 623.99 366.35 649.8 367.87 650.42 353.58 629.71 352.36 629.92 347.55 650.61 348.76 650.82 343.95" style="fill:none;stroke:#000;stroke-miterlimit:10;stroke-width:2.08635700325598px"/><polygon points="504.18 335.37 478.39 333.87 477.76 348.26 498.5 349.48 498.3 354.22 477.56 353.01 477.36 357.77 503.17 359.3 503.79 345.01 483.08 343.78 483.29 338.97 503.97 340.18 504.18 335.37" style="fill:none;stroke:#000;stroke-miterlimit:10;stroke-width:2.08635700325598px"/><path d="M508.05,335.6l-1,23.92,5.23.31.41-9.52,20,1.17.62-14.4Zm19.7,10.8-14.89-.87.2-4.81,14.9.87Z" style="fill:none;stroke:#000;stroke-miterlimit:10;stroke-width:2.08635700325598px"/><path d="M537.13,337.31l-1,23.94,25.44,1.49,1-23.95Zm19.52,20.34-15-.88.62-14.34,15,.88Z" style="fill:none;stroke:#000;stroke-miterlimit:10;stroke-width:2.08635700325598px"/><polygon points="595.77 340.74 595.56 345.53 605.55 346.12 604.72 365.25 610.25 365.57 611.08 346.44 620.98 347.02 621.19 342.22 595.77 340.74" style="fill:none;stroke:#000;stroke-miterlimit:10;stroke-width:2.08635700325598px"/><path d="M591.92,340.5,566.44,339l-1,23.95,5.22.3.42-9.75,13.39,10.56,6.44.37.09-2-10.39-8.18,10.71.63Zm-5.53,9.32-15.14-.88.2-4.81,15.15.88Z" style="fill:none;stroke:#000;stroke-miterlimit:10;stroke-width:2.08635700325598px"/><path d="M182,379.5c-3-30-10-85,20-119,12-13,19-20,35-24,9-4,22-12,48-6s56,11,115,43c35,17,130,61,182,69,16,1,33-5,46,2,5-1,16-1,16-1s50,4,170-63c21-11,118-64,159-18,4,4,23,38,29,135,7,80,13,182,34,256,8,32,9,44,9,44s21,57,5,83c-8,11-7,19-52,30-17,2-38,4-38,4H931s-8,3-28-5-225-115-349-69c-29,10-75,22-145,75-11,6-29,15-48,16s-59,4-59,4-11,6-31-11-53-41-55-89-4-118-4-118S185,409.5,182,379.5Z" style="fill:#fff;stroke:#000;stroke-miterlimit:10;stroke-width:4px"/><path d="M363,256.5s-59-15-72-17-41-13-52,12-13,28-13,28-6,7,2,36,65,133,47,399c-4,31,7,117,79,103,34-7,94-48,94-48s182-101,319-59,227,75,227,75,29.75,18.93,52.37.46" style="fill:none;stroke:#000;stroke-miterlimit:10;stroke-width:4px"/><path d="M456.49,299.5s19.49,16,12.49,101-15.31,286.87-70.1,398.62" style="fill:none;stroke:#000;stroke-miterlimit:10;stroke-width:4px"/><path d="M582,342.5s87,28,210-22c66-35,107.64-81.32,173.82-64.66" style="fill:none;stroke:#000;stroke-miterlimit:10;stroke-width:4px"/><path d="M796.49,318.07S862,338.5,898,442.5,971,682.92,958.65,773" style="fill:none;stroke:#000;stroke-miterlimit:10;stroke-width:4px"/><path d="M744.9,419.75l-17.17,34.69-84.43-.05,1.3-26.48c.17-4,2.4-7.07,5.63-7.94a7.12,7.12,0,0,1,1.86-.2H653Z" style="fill:none;stroke:#000;stroke-miterlimit:10;stroke-width:1.98833298683167px;fill-rule:evenodd"/><polygon points="676.95 460.77 705.61 460.77 701.08 555.64 672.42 555.64 676.95 460.77" style="fill:none;stroke:#000;stroke-miterlimit:10;stroke-width:1.98833298683167px;fill-rule:evenodd"/><path d="M639.79,555.67c14.88,0,25-14.75,22.68-32.94a36.56,36.56,0,0,0-1.07-5.6,33.37,33.37,0,0,0-2.37-6l-3.13-6.17,0,0-39.72-77.36c-3.88-7.77-8.27-7.9-11-7.69l-34.78-.06-1.7,34.58,30.46,0L634,521.64H594.21l2.91-60.87H568.46l-4.53,94.87,75.86,0" style="fill:none;stroke:#000;stroke-miterlimit:10;stroke-width:1.98833298683167px;fill-rule:evenodd"/><path d="M826.18,431.16s0,.11,0,.17a10.79,10.79,0,0,1-.84,5.74l-8,17.34H738.13l17.16-34.65H815C819.91,419.34,825.49,424.13,826.18,431.16Z" style="fill:none;stroke:#000;stroke-linecap:round;stroke-linejoin:round;stroke-width:1.98833298683167px"/><path d="M809.07,512.28a40.71,40.71,0,0,1,4,12.07c2.6,18.17-7,31.09-19.62,31.29l-52.19-.27-17.41-33.73H781l-24.43-35.28,19.34-25.62h34.84l-19.22,25.65s8.51,12.18,13.61,19.68A70.26,70.26,0,0,1,809.07,512.28Z" style="fill:none;stroke:#000;stroke-linecap:round;stroke-linejoin:round;stroke-width:1.98833298683167px"/><polygon points="740.46 566.42 767.44 566.47 766.43 588.3 739.46 588.26 740.46 566.42" style="fill:none;stroke:#000;stroke-miterlimit:10;stroke-width:1.98833298683167px;fill-rule:evenodd"/><polygon points="771.07 566.46 791.44 566.43 790.43 588.31 770.07 588.3 771.07 566.46" style="fill:none;stroke:#000;stroke-miterlimit:10;stroke-width:1.98833298683167px;fill-rule:evenodd"/><polygon points="795.19 566.44 809.09 566.44 808.1 588.28 794.18 588.28 795.19 566.44" style="fill:none;stroke:#000;stroke-miterlimit:10;stroke-width:1.98833298683167px;fill-rule:evenodd"/><polygon points="812.62 566.42 819.49 566.43 818.47 588.3 811.62 588.29 812.62 566.42" style="fill:none;stroke:#000;stroke-miterlimit:10;stroke-width:1.98833298683167px;fill-rule:evenodd"/><polygon points="822.92 566.43 828.18 566.43 827.18 588.3 821.91 588.29 822.92 566.43" style="fill:none;stroke:#000;stroke-miterlimit:10;stroke-width:1.98833298683167px;fill-rule:evenodd"/><polygon points="831.43 566.43 834.84 566.44 833.89 588.28 830.48 588.28 831.43 566.43" style="fill:none;stroke:#000;stroke-miterlimit:10;stroke-width:1.98833298683167px;fill-rule:evenodd"/><polygon points="736.7 566.46 710.77 566.46 710.14 579.57 730.98 579.57 730.78 583.9 709.93 583.9 709.73 588.23 735.68 588.24 736.3 575.23 715.48 575.22 715.69 570.84 736.48 570.84 736.7 566.46" style="fill:none;stroke:#000;stroke-miterlimit:10;stroke-width:1.98833298683167px"/><polygon points="589.31 566.44 563.38 566.44 562.76 579.55 583.6 579.55 583.39 583.88 562.55 583.88 562.34 588.21 588.29 588.23 588.91 575.22 568.1 575.2 568.31 570.82 589.1 570.82 589.31 566.44" style="fill:none;stroke:#000;stroke-miterlimit:10;stroke-width:1.98833298683167px"/><path d="M593.2,566.45l-1.05,21.78h5.26l.41-8.67h20.11l.62-13.11Zm19.8,8.76H598l.21-4.38h15Z" style="fill:none;stroke:#000;stroke-miterlimit:10;stroke-width:1.98833298683167px"/><path d="M622.43,566.46l-1,21.8H647l1-21.8Zm19.62,17.43H627l.62-13h15.1Z" style="fill:none;stroke:#000;stroke-miterlimit:10;stroke-width:1.98833298683167px"/><polygon points="681.37 566.46 681.16 570.83 691.19 570.83 690.36 588.25 695.92 588.25 696.75 570.83 706.71 570.83 706.91 566.46 681.37 566.46" style="fill:none;stroke:#000;stroke-miterlimit:10;stroke-width:1.98833298683167px"/><path d="M677.49,566.45h-25.6l-1,21.8h5.25l.42-8.88L670,588.25h6.48l.09-1.81-10.44-6.88h10.76Zm-5.55,8.76H656.72l.21-4.38h15.22Z" style="fill:none;stroke:#000;stroke-miterlimit:10;stroke-width:1.98833298683167px"/></g></g></svg>