<svg xmlns="http://www.w3.org/2000/svg" xmlns:xlink="http://www.w3.org/1999/xlink" viewBox="0 0 189 189">
  <defs>
    <style>
      .cls-1, .cls-3, .cls-4, .cls-5, .cls-7, .cls-8 {
        fill: #fff;
      }

      .cls-1, .cls-11 {
        stroke: #707070;
      }

      .cls-2 {
        clip-path: url(#clip-path);
      }

      .cls-10, .cls-3, .cls-4, .cls-5, .cls-6, .cls-7, .cls-8, .cls-9 {
        stroke: #000;
      }

      .cls-10, .cls-3, .cls-4, .cls-5, .cls-6, .cls-9 {
        stroke-miterlimit: 10;
      }

      .cls-3, .cls-9 {
        stroke-width: 0.504px;
      }

      .cls-4, .cls-6, .cls-7 {
        stroke-width: 0.755px;
      }

      .cls-10, .cls-5, .cls-8 {
        stroke-width: 0.252px;
      }

      .cls-10, .cls-11, .cls-13, .cls-6, .cls-9 {
        fill: none;
      }

      .cls-7, .cls-8 {
        stroke-linejoin: round;
      }

      .cls-12 {
        stroke: none;
      }
    </style>
    <clipPath id="clip-path">
      <circle id="Ellipse_90" data-name="Ellipse 90" class="cls-1" cx="94.5" cy="94.5" r="94.5" transform="translate(209 1995)"/>
    </clipPath>
  </defs>
  <g id="Group_383" data-name="Group 383" transform="translate(-7683 -1418)">
    <g id="Group_373" data-name="Group 373" transform="translate(7474 -577)">
      <g id="Ellipse_90-2" data-name="Ellipse 90" class="cls-1" transform="translate(209 1995)">
        <circle class="cls-12" cx="94.5" cy="94.5" r="94.5"/>
        <circle class="cls-13" cx="94.5" cy="94.5" r="94"/>
      </g>
      <g id="Ellipse_239" data-name="Ellipse 239" class="cls-1" transform="translate(209 1995)">
        <circle class="cls-12" cx="94.5" cy="94.5" r="94.5"/>
        <circle class="cls-13" cx="94.5" cy="94.5" r="94"/>
      </g>
    </g>
    <g id="Mask_Group_39" data-name="Mask Group 39" class="cls-2" transform="translate(7474 -577)">
      <g id="ravena_diagonal_" data-name="ravena diagonal " transform="translate(226.748 1833.512)">
        <g id="base" transform="translate(0.252 298.688)">
          <path id="Path_5154" data-name="Path 5154" class="cls-3" d="M52.069,177.186v17.8h7.456V177.37" transform="translate(66.059 -72.425)"/>
          <path id="Path_5155" data-name="Path 5155" class="cls-3" d="M55.1,178.576h-4.15a53.707,53.707,0,0,0-1.24,12.34,44.422,44.422,0,0,0,1.24,10.854h3.926Z" transform="translate(63.03 -70.646)"/>
          <path id="Path_5156" data-name="Path 5156" class="cls-3" d="M55.34,178.576h4.133a53.707,53.707,0,0,1,1.24,12.34,44.066,44.066,0,0,1-1.24,10.854H55.547Z" transform="translate(70.244 -70.646)"/>
          <path id="Path_5157" data-name="Path 5157" class="cls-4" d="M31.781,159.67s-6.8.763-6.888,1.676-3.3,17.793,3.444,17.719S39.674,177.2,40.1,176.126,31.781,159.67,31.781,159.67Z" transform="translate(30.207 -94.84)"/>
          <path id="Path_5158" data-name="Path 5158" class="cls-4" d="M84.591,159.21a19,19,0,0,1,5.361.959,10.628,10.628,0,0,1,3.128,2.3s-1.527,14.872-2.434,15.446-4.781,1-11.192,0,.672-18.224.672-18.224Z" transform="translate(97.667 -95.43)"/>
          <path id="Path_5159" data-name="Path 5159" class="cls-4" d="M106.377,180.484l1.343,25.444,7.266,2.106,7.272-1.533,1.337-26.018s2.87-1.917,12.823-.769,75.19,6.7,75.19,6.7v1.722s4.207.959,6.314,1.148a16.549,16.549,0,0,0,3.444,0l3.249-1.148-.666-10.905L193.242,171l-26.977-5.074,7.553-.476.574,1.05,2.68-1.05-.385-6.6-3.823-4.976-46.113,2.3-23.722.574-30.707-.953-1.05-.769-12.438-.574-2.772.672-2.491,3.92-.476,1.148V166.7l7.749.379L36.352,172.15l-1.722-.482-26.4,5.361-.666.763-1.343.574-.574,11.956,9.953.574,3.059-1.527-.189-1.63,81.791-8.127S105.229,178.762,106.377,180.484Z" transform="translate(6.649 -102.257)"/>
          <line id="Line_761" data-name="Line 761" class="cls-4" x1="42.33" y2="8.655" transform="translate(67.493 56.175)"/>
          <line id="Line_762" data-name="Line 762" class="cls-4" x2="38.697" y2="7.508" transform="translate(134.217 56.175)"/>
          <path id="Path_5160" data-name="Path 5160" class="cls-4" d="M50.247,175.794l4.6-4.184h6.027l4.718,4.184" transform="translate(63.726 -79.562)"/>
          <path id="Path_5161" data-name="Path 5161" class="cls-4" d="M50.247,171.1l4.793-4.207h6.027l4.529,4.207" transform="translate(63.726 -85.603)"/>
          <line id="Line_763" data-name="Line 763" class="cls-4" x1="0.098" y1="34.295" transform="translate(118.479 57.753)"/>
          <line id="Line_764" data-name="Line 764" class="cls-4" x1="0.098" y2="34.295" transform="translate(124.603 57.753)"/>
          <line id="Line_765" data-name="Line 765" class="cls-4" x1="34.829" y2="2.342" transform="translate(148.509 56.605)"/>
          <line id="Line_766" data-name="Line 766" class="cls-4" x2="3.174" y2="5.24" transform="translate(166.79 52.266)"/>
          <path id="Path_5162" data-name="Path 5162" class="cls-5" d="M103.5,164.119l-3.731,3.731v8.4" transform="translate(127.099 -89.147)"/>
          <path id="Path_5163" data-name="Path 5163" class="cls-6" d="M57.442,172.983s-.706-11.29,1.59-12.536,10.274-.476,10.274-.476l84.758,13.488" transform="translate(72.803 -94.756)"/>
          <path id="Path_5164" data-name="Path 5164" class="cls-6" d="M106.055,173.339s.959-13.684,0-13.873-19.607,2.772-19.607,2.772L34.406,172,9.914,176.875,5.9,171.233" transform="translate(6.971 -95.113)"/>
          <line id="Line_767" data-name="Line 767" class="cls-4" x2="3.209" y2="6.073" transform="translate(43.001 69.904)"/>
          <path id="Path_5165" data-name="Path 5165" class="cls-4" d="M26.668,158.4l13.11,1.343,3.059-4.5,1.533-.861" transform="translate(33.552 -101.606)"/>
          <line id="Line_768" data-name="Line 768" class="cls-4" x1="17.856" y1="1.848" transform="translate(73.33 58.138)"/>
          <path id="Path_5166" data-name="Path 5166" class="cls-7" d="M48.363,172.643a30.982,30.982,0,0,0,12.1,3.008,26.764,26.764,0,0,0,11.147-2.623L70.519,141.46S64.148,143.9,59.986,143.9s-10.475-.287-10.475-1.722S48.363,172.643,48.363,172.643Z" transform="translate(61.316 -118.145)"/>
          <path id="Path_5167" data-name="Path 5167" class="cls-8" d="M49.207,142.338c1.636-.534,7.462-1.957,20.508-.534,0,0-6.078,2.434-9.758,2.411-3.524,0-7.112.89-10.825-1.406a.258.258,0,0,1,.075-.471Z" transform="translate(62.143 -118.49)"/>
          <path id="Path_5168" data-name="Path 5168" class="cls-4" d="M49.884,148.526l.482-11.095H65.433l.39,10.159S61.174,151.373,49.884,148.526Z" transform="translate(63.262 -123.3)"/>
          <path id="Path_5169" data-name="Path 5169" class="cls-4" d="M51.259,145.364V131.232l10.331.861-.287,13.27Z" transform="translate(65.021 -131.232)"/>
          <path id="Path_5170" data-name="Path 5170" class="cls-3" d="M21.948,170.478l.614,12.346S23.308,194.4,11.995,194.4A10.817,10.817,0,0,1,1.732,188.34a13.121,13.121,0,0,1-.144-11.824,9.62,9.62,0,0,1,6.486-5.367s4.282-.723,6.7.574a.5.5,0,0,0,.729-.482l-.069-1.148Z" transform="translate(-0.252 -81.501)"/>
          <path id="Path_5171" data-name="Path 5171" class="cls-3" d="M.45,184.335s-1.808-9.35,7.462-12.88c5.384-2.043,11.812,1.515,13.374,5.464l.517,1.291" transform="translate(-0.181 -80.521)"/>
          <path id="Path_5172" data-name="Path 5172" class="cls-3" d="M.659,185.083s-1.372-9.517,7.915-13.046c5.384-2.043,11.554,2.221,12.943,5.631l.511,1.291" transform="translate(0.178 -79.696)"/>
          <path id="Path_5173" data-name="Path 5173" class="cls-3" d="M4.884,173.321a.356.356,0,0,1,.476.069c.781,1.022,3.926,5.166,3.714,5.545s.224.729-3.765-.109l-3.3-.689c-.207-.04-.425-.287-.344-.476A12.717,12.717,0,0,1,4.884,173.321Z" transform="translate(1.533 -77.451)"/>
          <path id="Path_5174" data-name="Path 5174" class="cls-3" d="M9.444,172.617a.339.339,0,0,1,.241.408c-.3,1.251-1.573,6.314-1.98,6.377s-.43.631-2.3-3l-1.533-3c-.092-.184-.04-.511.155-.574A12.861,12.861,0,0,1,9.444,172.617Z" transform="translate(4.33 -78.532)"/>
          <path id="Path_5175" data-name="Path 5175" class="cls-3" d="M12.412,176.589a.333.333,0,0,1-.149.43c-1.091.574-5.533,2.755-5.826,2.491s-.717.08.769-3.5c.758-1.819,1.056-2.548,1.228-2.956.075-.184.344-.35.505-.241A11.972,11.972,0,0,1,12.412,176.589Z" transform="translate(7.292 -78.067)"/>
          <path id="Path_5176" data-name="Path 5176" class="cls-3" d="M3,181.444a.344.344,0,0,0,.471.086c1.068-.718,5.384-3.662,5.292-4.064s.442-.62-3.6-1.1l-3.346-.4c-.207,0-.5.138-.482.344A12.762,12.762,0,0,0,3,181.444Z" transform="translate(1.129 -73.991)"/>
          <path id="Path_5177" data-name="Path 5177" class="cls-3" d="M7.886,184.095a.344.344,0,0,0,.367-.31c.132-1.28.637-6.48.276-6.664s-.2-.74-3.157,2.055l-2.457,2.3c-.149.144-.212.471-.04.574A12.33,12.33,0,0,0,7.886,184.095Z" transform="translate(2.973 -72.727)"/>
          <path id="Path_5178" data-name="Path 5178" class="cls-3" d="M10.948,181.791a.327.327,0,0,0,0-.453c-.838-.89-4.265-4.477-4.626-4.328s-.649-.321-.471,3.553c.092,1.969.126,2.755.143,3.2,0,.2.207.448.4.4A12.06,12.06,0,0,0,10.948,181.791Z" transform="translate(6.844 -72.656)"/>
          <path id="Path_5179" data-name="Path 5179" class="cls-3" d="M12.941,176.057a.333.333,0,0,0-.373-.258c-1.205.189-6.1,1.01-6.182,1.389s-.631.356,2.675,2.388l2.726,1.676a.439.439,0,0,0,.574-.1A12.7,12.7,0,0,0,12.941,176.057Z" transform="translate(7.492 -74.205)"/>
          <path id="Path_5180" data-name="Path 5180" class="cls-3" d="M97.7,169.5l-.614,12.375s-.746,11.571,10.567,11.571a10.817,10.817,0,0,0,10.263-6.055,13.138,13.138,0,0,0,.143-11.824,9.614,9.614,0,0,0-6.486-5.367s-4.282-.723-6.7.574a.505.505,0,0,1-.735-.482l.075-1.148Z" transform="translate(123.659 -82.713)"/>
          <path id="Path_5181" data-name="Path 5181" class="cls-3" d="M118.738,183.376s1.808-9.35-7.462-12.88c-5.384-2.043-11.812,1.515-13.374,5.458l-.517,1.291" transform="translate(124.051 -81.749)"/>
          <path id="Path_5182" data-name="Path 5182" class="cls-3" d="M118.5,184.117s1.372-9.516-7.921-13.046c-5.378-2.049-11.548,2.221-12.937,5.631l-.511,1.291" transform="translate(123.719 -80.934)"/>
          <path id="Path_5183" data-name="Path 5183" class="cls-3" d="M106.414,172.363a.35.35,0,0,0-.476.069c-.781,1.022-3.932,5.166-3.714,5.545s-.224.729,3.765-.109l3.3-.689c.2-.046.425-.287.344-.482A12.748,12.748,0,0,0,106.414,172.363Z" transform="translate(130.228 -78.679)"/>
          <path id="Path_5184" data-name="Path 5184" class="cls-3" d="M100.979,171.654a.35.35,0,0,0-.241.413c.3,1.251,1.573,6.314,1.98,6.377s.425.626,2.3-3l1.532-3c.092-.184.04-.511-.155-.574A12.893,12.893,0,0,0,100.979,171.654Z" transform="translate(128.328 -79.761)"/>
          <path id="Path_5185" data-name="Path 5185" class="cls-3" d="M98.245,175.63a.327.327,0,0,0,.149.43c1.091.574,5.533,2.755,5.82,2.491s.723.08-.763-3.5c-.758-1.819-1.062-2.548-1.228-2.962-.075-.178-.344-.344-.511-.235A12.717,12.717,0,0,0,98.245,175.63Z" transform="translate(125.11 -79.294)"/>
          <path id="Path_5186" data-name="Path 5186" class="cls-3" d="M108.294,180.485a.344.344,0,0,1-.471.086c-1.068-.717-5.384-3.668-5.292-4.064s-.442-.626,3.6-1.1l3.346-.4c.207,0,.494.138.482.344A12.336,12.336,0,0,1,108.294,180.485Z" transform="translate(130.633 -75.218)"/>
          <path id="Path_5187" data-name="Path 5187" class="cls-3" d="M102.542,183.135a.339.339,0,0,1-.367-.31c-.138-1.28-.643-6.48-.276-6.664s.189-.74,3.157,2.055l2.451,2.3c.155.143.212.471.046.574A12.267,12.267,0,0,1,102.542,183.135Z" transform="translate(129.658 -73.954)"/>
          <path id="Path_5188" data-name="Path 5188" class="cls-3" d="M99.119,180.832a.327.327,0,0,1,0-.453c.838-.89,4.265-4.477,4.626-4.328s.649-.321.471,3.553c-.092,1.969-.126,2.755-.149,3.2,0,.2-.2.448-.4.4A12.582,12.582,0,0,1,99.119,180.832Z" transform="translate(126.152 -73.884)"/>
          <path id="Path_5189" data-name="Path 5189" class="cls-3" d="M97.954,175.1a.327.327,0,0,1,.373-.258c1.205.189,6.1,1.01,6.182,1.389s.626.356-2.675,2.388l-2.726,1.676a.437.437,0,0,1-.574-.1A12.463,12.463,0,0,1,97.954,175.1Z" transform="translate(124.672 -75.433)"/>
        </g>
        <g id="Frontal" transform="translate(19.137 0.378)">
          <g id="diagonal">
            <g id="estofamento" transform="translate(0 0.001)">
              <path id="Path_5190" data-name="Path 5190" class="cls-4" d="M78.765,4.6S51.4-2.292,45.854,1.536s-7.266,11.858-7.84,16.645.574,28.7-8.994,36.539S8.167,68.117,8.545,80.36s.2,20.852,5.74,43.432c0,0,1.148,9.373.769,15.113s.379,46.492.379,46.492l4.907-2.439,1.452.8,1.435,24.681,2.365,23.963s4.3,15.21,7.605,19.3a26.106,26.106,0,0,1,4.3,7.031l24.394-6.6,90.16-.528,7.846-7.083s12.243-10.331,11.669-24.681-3.444-23.533-23.722-51.273,3.828-59.5,3.633-73.09S144.02,78.839,129.1,70.614s-21.042-16.456-25.829-38.072S96.558,10.72,78.765,4.6Z" transform="translate(-8.536 -0.378)"/>
              <path id="Path_5191" data-name="Path 5191" class="cls-4" d="M164.9,105.572a32.8,32.8,0,0,1,12.507.758c6.279,1.624,14.246,4.959,14.476,11.422.385,10.716-12.627,38.646-12.627,38.646L86.46,166.322s.385-8.231-2.87-10.905-10.905-20.089-13.58-23.343-18.752-15.107-18.752-15.107,8.036-2.112,41.326-4.018C119.119,111.415,152.456,107.214,164.9,105.572Z" transform="translate(46.136 133.876)"/>
              <path id="Path_5192" data-name="Path 5192" class="cls-4" d="M117.834,115.96s2.009,17.569-1.246,20.824-9.184,5.929-9.184,5.929S116.4,121.435,117.834,115.96Z" transform="translate(117.986 147.532)"/>
              <path id="Path_5193" data-name="Path 5193" class="cls-4" d="M83.612,112.129s16.743-7.553,27.453-8.219a40.281,40.281,0,0,1,18.654,3.249s-1.492-.947-27.436,2.922Z" transform="translate(87.539 132.003)"/>
              <path id="Path_5194" data-name="Path 5194" class="cls-9" d="M85.168,42.092S59.15,63.9,58.576,69.263s7.651,53.379,7.651,53.379l10.905,55.675,4.414,15.595s16.071-6.606,19.882-18.66,2.485-21.237-2.3-29.462-18.04-30.42-18.04-30.42-9.9-15.687-7.41-30.036,2.491-16.645,6.124-26.977S85.364,45.92,85.168,42.092Z" transform="translate(55.464 53.003)"/>
              <path id="Path_5195" data-name="Path 5195" class="cls-4" d="M42.3.531s-5.74,4.827-5.74,14.774-.763,26.4-4.4,31.568S11.692,61.648,13.029,76.72s6.314,36.9,8.225,49.936,5.464,41.137,6.371,49.362,4.156,25.444,4.156,25.444" transform="translate(-2.883 -0.182)"/>
              <path id="Path_5196" data-name="Path 5196" class="cls-4" d="M9.907,30.863s1.286,19.285,3.008,32.108,9.568,50.125,9.568,58.161,4.781,51.273,5.355,59.882,5.74,34.668,5.74,34.668" transform="translate(-6.781 38.633)"/>
              <path id="Path_5197" data-name="Path 5197" class="cls-9" d="M13.475,38s9.034,1.877,12.283,19.67,4.592,33.1,4.592,33.1l8.512,48.214,3.541,13.2-9.562,1.337L24.805,95.76S18.187,49.268,17.189,46.4,13.475,38,13.475,38Z" transform="translate(-2.216 47.761)"/>
              <path id="Path_5198" data-name="Path 5198" class="cls-9" d="M23.811,88.22s21.237-8.036,40.178-6.888A153.258,153.258,0,0,1,99.724,88.22c0-4.787,8.42-25.255,8.42-25.255s-24.87-14.734-47.45-15.882-40.867,12.34-40.867,12.34" transform="translate(5.913 59.302)"/>
              <line id="Line_769" data-name="Line 769" class="cls-9" x2="75.759" transform="translate(34.453 174.303)"/>
              <path id="Path_5199" data-name="Path 5199" class="cls-9" d="M83.591,149s3.071-22.712,2.87-25.8-.3-10.791-15.5-12.122-19.7-.528-19.7-.528" transform="translate(46.136 140.296)"/>
              <line id="Line_770" data-name="Line 770" class="cls-10" x1="7.37" y2="18.488" transform="translate(100.69 174.303)"/>
              <line id="Line_771" data-name="Line 771" class="cls-10" x1="7.881" y2="19.618" transform="translate(91.167 174.303)"/>
              <path id="Path_5200" data-name="Path 5200" class="cls-4" d="M111.833,164.157s-4.207,1.194-24.87-1.033-52.995-4.517-52.995-4.517L32.436,146.7l-1-.861v-7.749l.861-1.578.287-20.806a31.461,31.461,0,0,1,25.972-8.466c16.358,2.009,36.832,22.672,36.832,22.672s10.475,20.278,13.58,23.343S111.833,164.157,111.833,164.157Z" transform="translate(20.763 136.041)"/>
              <line id="Line_772" data-name="Line 772" class="cls-10" x1="8.064" y2="20.078" transform="translate(79.682 174.303)"/>
              <line id="Line_773" data-name="Line 773" class="cls-10" x1="8.11" y2="20.198" transform="translate(68.335 174.303)"/>
              <line id="Line_774" data-name="Line 774" class="cls-10" x1="8.46" y2="21.065" transform="translate(56.683 174.303)"/>
              <line id="Line_775" data-name="Line 775" class="cls-10" x1="10.418" y2="25.949" transform="translate(43.424 174.303)"/>
              <line id="Line_776" data-name="Line 776" class="cls-10" x2="16.197" y2="18.821" transform="translate(34.935 177.052)"/>
              <line id="Line_777" data-name="Line 777" class="cls-10" x2="17.609" y2="20.198" transform="translate(45.164 174.303)"/>
              <line id="Line_778" data-name="Line 778" class="cls-10" x2="17.609" y2="20.192" transform="translate(57.567 174.423)"/>
              <line id="Line_779" data-name="Line 779" class="cls-10" x2="17.604" y2="20.198" transform="translate(69.976 174.538)"/>
              <line id="Line_780" data-name="Line 780" class="cls-10" x2="17.609" y2="20.198" transform="translate(82.38 174.653)"/>
              <line id="Line_781" data-name="Line 781" class="cls-10" x2="17.604" y2="20.198" transform="translate(94.789 174.768)"/>
            </g>
            <g id="braços" transform="translate(3.126)">
              <g id="almofadas" transform="translate(25.207)">
                <path id="Path_5201" data-name="Path 5201" class="cls-9" d="M31.985,143.037l-2.3-24.256,1.917-30.42,69.64-3.633,4.959,7.737a31.04,31.04,0,0,1,3.748,8.391l1.687,6.061a46.944,46.944,0,0,1,1.722,11.634c.08,3.932-.149,8.506-1.406,10.905-2.491,4.781-8.219,10.86-8.219,10.86l-27.43,1.355" transform="translate(-9.799 107.565)"/>
                <path id="Path_5202" data-name="Path 5202" class="cls-3" d="M56.881,84.946S69.606,97.838,68.6,112.187s-8.449,28.32-8.449,28.32" transform="translate(24.998 107.845)"/>
                <path id="Path_5203" data-name="Path 5203" class="cls-9" d="M35.216,86.077S45.771,98.761,46.7,111.28a146.814,146.814,0,0,1,0,22.574" transform="translate(-2.727 109.292)"/>
                <path id="Path_5204" data-name="Path 5204" class="cls-9" d="M30.53,86.321s10.234,15.21,9.947,28.986a78.519,78.519,0,0,1-4.971,25.215" transform="translate(-8.723 109.604)"/>
                <path id="Path_5205" data-name="Path 5205" class="cls-10" d="M51.757,85.213A51.233,51.233,0,0,1,71.846,96.8" transform="translate(18.441 108.187)"/>
                <path id="Path_5206" data-name="Path 5206" class="cls-10" d="M46.087,85.6s18.993,6.021,36.384,26.305" transform="translate(11.185 108.686)"/>
                <path id="Path_5207" data-name="Path 5207" class="cls-10" d="M40.687,85.8s27.258,10.245,44.821,42.663" transform="translate(4.274 108.937)"/>
                <path id="Path_5208" data-name="Path 5208" class="cls-10" d="M39.146,92.7s11.738,8.782,31.109,38.646" transform="translate(2.302 117.772)"/>
                <path id="Path_5209" data-name="Path 5209" class="cls-10" d="M40.42,101.515A74.685,74.685,0,0,1,49.913,114.1" transform="translate(3.933 129.049)"/>
                <path id="Path_5210" data-name="Path 5210" class="cls-10" d="M36.507,86.077s30.42,13.775,48,52.983" transform="translate(-1.074 109.292)"/>
                <path id="Path_5211" data-name="Path 5211" class="cls-10" d="M75.682,91.837S67.325,116,49.917,130.73" transform="translate(16.086 116.664)"/>
                <path id="Path_5212" data-name="Path 5212" class="cls-10" d="M73.559,86.077s-7.99,31.454-27.952,48.5" transform="translate(10.57 109.292)"/>
                <path id="Path_5213" data-name="Path 5213" class="cls-10" d="M66.969,85.213s-7.175,30.84-26.282,48.5" transform="translate(4.274 108.187)"/>
                <path id="Path_5214" data-name="Path 5214" class="cls-10" d="M56.2,85.442c-2.439,7.64-7.462,20.766-15.75,32.177" transform="translate(3.974 108.48)"/>
                <path id="Path_5215" data-name="Path 5215" class="cls-10" d="M46.831,85.6a112.134,112.134,0,0,1-7.685,16.209" transform="translate(2.302 108.686)"/>
                <path id="Path_5216" data-name="Path 5216" class="cls-3" d="M43.377,32.922s1.676,12.053,3.111,13.391,22.764,9.953,24.2,9.184.959-5.166-.476-8.61S68.2,39.126,66,38.374C64.207,37.76,50,32.5,44.766,30.568a1.182,1.182,0,0,0-1.573,1.309Z" transform="translate(7.461 38.165)"/>
                <path id="Path_5217" data-name="Path 5217" class="cls-3" d="M51.028,33.058s-5.975-.861-6.262,2.726,2.87,6.457,8.753,8.655,9.229,1.533,10.762-.333.476-4.161-2.348-6.027S54.615,33.73,51.028,33.058Z" transform="translate(9.471 41.328)"/>
                <path id="Path_5218" data-name="Path 5218" class="cls-5" d="M45.017,33.551S56.663,38.241,57.57,40.3s-.62,4.5-.62,4.5" transform="translate(9.816 42.075)"/>
                <path id="Path_5219" data-name="Path 5219" class="cls-3" d="M27.412,32.207a4.27,4.27,0,0,0-3.444,2.445c-1.722,3.754-3.863,11.835-2.646,13.2,1.722,1.929,19.3-1.578,21.954-2.726s6.457-13.2,6.457-13.2.838-2.3-1.722-1.819C45.945,30.462,32.865,31.7,27.412,32.207Z" transform="translate(-20.965 37.583)"/>
                <path id="Path_5220" data-name="Path 5220" class="cls-3" d="M25.835,34.36s-3.857,1.113-3.518,4.678,1.848,6,8.036,4.93,10.842-.792,13.569-7.318S44.937,30.5,44.937,30.5Z" transform="translate(-19.261 38.161)"/>
                <path id="Path_5221" data-name="Path 5221" class="cls-5" d="M49.919,38.413,65.79,143.18l.281,1.314,6.417-.35-3.111-21.151L62.443,76.359,58.374,51.965l-2.5-13.551a10.905,10.905,0,0,1-5.952,0Z" transform="translate(16.089 48.297)"/>
                <path id="Path_5222" data-name="Path 5222" class="cls-5" d="M24.125,36.51l5.958-.723.459,1.67,15.233,90.188,4.213,22.385-9.4.4L32,94.814,25.112,53.89,23.1,37.917Z" transform="translate(-18.228 44.936)"/>
                <path id="Path_5223" data-name="Path 5223" class="cls-5" d="M25.069,1.313l9.671,10.819,8.42,8.92.959-1.63L31.394.378Z" transform="translate(-15.712 -0.378)"/>
                <path id="Path_5224" data-name="Path 5224" class="cls-5" d="M41.943,2.77,58.588,19.294l5.849-2.066L48.733,4.79a24.021,24.021,0,0,0-6.79-2.02Z" transform="translate(5.882 2.683)"/>
                <path id="Path_5225" data-name="Path 5225" class="cls-3" d="M30.644,5.648s-6.7-.574-3.828,23.728S21.369,57.306,26.1,63.241s22.718-6.509,33.818-5.166c7.083.855,16.737,5.843,23.148,9.184,3.628,1.9,6.21,3.266,6.7,3.059,1.337-.574,4.4-.574,4.592-11.669s.189-42.1-.959-43.243-6.314-4.592-16.261,2.68-26.977-.574-33.1-4.781C42.7,12.381,38.106,4.5,30.644,5.648Z" transform="translate(-16.299 6.221)"/>
                <path id="Path_5226" data-name="Path 5226" class="cls-3" d="M27.257,5.584S39.689,22.126,38.926,37.876s-4.408,25.335-4.408,25.335" transform="translate(-12.912 6.285)"/>
                <path id="Path_5227" data-name="Path 5227" class="cls-3" d="M58.108,9.245s2.64,34.748-1.722,44.46-6.124,8.8-6.124,8.8" transform="translate(16.527 10.97)"/>
                <path id="Path_5228" data-name="Path 5228" class="cls-5" d="M30.041,31.545s3.731,3,2.652,5.918-6.383,4.649-6.383,4.649" transform="translate(-14.123 39.507)"/>
              </g>
              <path id="Path_5229" data-name="Path 5229" class="cls-4" d="M68.478,138.366l-24.864,2.543s-4.018,2.962-4.3,3.059-11.675.476-11.675.476l-1.722-2.353V124.465H38.494l.907,13.488,2.87-.1,7.795-.964Z" transform="translate(10.575 158.417)"/>
              <line id="Line_782" data-name="Line 782" class="cls-4" x1="0.735" y1="2.939" transform="translate(54.171 296.112)"/>
              <path id="Path_5230" data-name="Path 5230" class="cls-4" d="M26.333,120.58v9.04H36.665v-9.184Z" transform="translate(11.113 153.262)"/>
              <path id="Path_5231" data-name="Path 5231" class="cls-4" d="M48.286,93.1l-29.8.74,5.453,4.5,7.559,6.193,1.148,14.183,1.722,37.429,2.009.786,10.331-.144.861-.643L48,104.7l6.245-7.789,7.531-4.884Z" transform="translate(1.07 116.909)"/>
              <line id="Line_783" data-name="Line 783" class="cls-4" y1="1.429" x2="30.306" transform="translate(25.008 213.822)"/>
              <path id="Path_5232" data-name="Path 5232" class="cls-4" d="M104.052,127.887l-.694-21.53L89.485,96.784l-7.175.505v-5.55l2.2-2.388,46.01-2.491,14.831-.574,6.8,4.5v2.629l-13.494.574-6.744.574L118.568,105.68l.574,20.806a39.69,39.69,0,0,0-15.09,1.4Z" transform="translate(82.747 109.559)"/>
              <line id="Line_784" data-name="Line 784" class="cls-4" x1="42.428" y2="2.221" transform="translate(172.232 204.104)"/>
              <line id="Line_785" data-name="Line 785" class="cls-4" y1="1.142" x2="29.697" transform="translate(178.293 209.66)"/>
              <path id="Path_5233" data-name="Path 5233" class="cls-4" d="M21.218,90.933,15.381,95.3v3.742l38.364-.585,31.632-1.389-.264-6.647-5.349-2.663-24.87.562-15.7.5Z" transform="translate(-2.903 111.438)"/>
              <path id="Path_5234" data-name="Path 5234" class="cls-4" d="M13.678,82.9,9.907,92.844,14.5,131.11,9.907,143.02v34.869l2.3,5.453,22.718,2.583,11.479-.476,1.533-12.438-1.911-5.453L35.73,156.222s-1-3.329-5.114-8.219l-6.8-18.115L21.611,107.5,20.038,81.261,18.6,80.475Z" transform="translate(-9.907 102.123)"/>
              <path id="Path_5235" data-name="Path 5235" class="cls-3" d="M16.118,80.467,11.836,91.373,16.858,129.5l-3.444,1.624" transform="translate(-7.439 102.113)"/>
              <path id="Path_5236" data-name="Path 5236" class="cls-9" d="M10.429,87.133l3.209-1.883,3.3.436,5.355,38.066L16.84,134.911l.534,2.617-2.83,2.009.672,16.932-1.578.959-1.2-.861L11.1,138.1" transform="translate(-9.24 108.235)"/>
              <path id="Path_5237" data-name="Path 5237" class="cls-3" d="M43.1,146.77l-9.758.574-4.018-13.511s-6.314-4.379-7.967-9.924-1.653-15.962-8.133-16.875" transform="translate(-5.658 136.112)"/>
              <path id="Path_5238" data-name="Path 5238" class="cls-3" d="M9.907,123.206l21.949,2.3,4.213,5.694" transform="translate(-9.907 156.806)"/>
              <path id="Path_5239" data-name="Path 5239" class="cls-4" d="M16.726,126.247s-1.578,6.05,4.253,7.462,16.932.649,16.932.649v-7.485l-11.479.476Z" transform="translate(-1.43 160.698)"/>
              <path id="Path_5240" data-name="Path 5240" class="cls-4" d="M33.718,133.176l-7.508,10.131-2.1-1.148,5.832-8.851Z" transform="translate(8.268 169.565)"/>
              <path id="Path_5241" data-name="Path 5241" class="cls-4" d="M31.191,137.223l-1.533-.189s-10.664,11.238-11,12.2a4.634,4.634,0,0,0,3.4,5.114c3.059.666,5.022.385,5.837,0s5.258-10,5.258-10l1.578-4.546-1.435-1.435Z" transform="translate(1.187 174.501)"/>
              <path id="Path_5242" data-name="Path 5242" class="cls-4" d="M19.861,153.9s-1.326-2.571.442-4.437,10.331-10.521,10.331-10.521l-2.009-1.911" transform="translate(2.22 174.501)"/>
              <line id="Line_786" data-name="Line 786" class="cls-4" x1="3.059" y1="0.861" transform="translate(32.854 313.446)"/>
              <path id="Path_5243" data-name="Path 5243" class="cls-4" d="M72.788,132.962l1.722,8.977h1.022l1.578,13.1s-2.514,2.967-10.045,3.186-8.793-.861-8.793-.861l-.39-12.484.39-.574-2.474-12.7S70.635,133.307,72.788,132.962Z" transform="translate(48.82 167.558)"/>
            </g>
          </g>
        </g>
      </g>
    </g>
    <g id="Group_380" data-name="Group 380" transform="translate(7474 -577)">
      <g id="Ellipse_90-3" data-name="Ellipse 90" class="cls-11" transform="translate(209 1995)">
        <circle class="cls-12" cx="94.5" cy="94.5" r="94.5"/>
        <circle class="cls-13" cx="94.5" cy="94.5" r="94"/>
      </g>
      <g id="Ellipse_239-2" data-name="Ellipse 239" class="cls-11" transform="translate(209 1995)">
        <circle class="cls-12" cx="94.5" cy="94.5" r="94.5"/>
        <circle class="cls-13" cx="94.5" cy="94.5" r="94"/>
      </g>
    </g>
  </g>
</svg>
