<svg xmlns="http://www.w3.org/2000/svg" xmlns:xlink="http://www.w3.org/1999/xlink" viewBox="0 0 189 189">
  <defs>
    <style>
      .cls-1, .cls-3, .cls-4, .cls-5, .cls-7, .cls-8 {
        fill: #fff;
      }

      .cls-1, .cls-11 {
        stroke: #707070;
      }

      .cls-2 {
        clip-path: url(#clip-path);
      }

      .cls-10, .cls-3, .cls-4, .cls-5, .cls-6, .cls-7, .cls-8, .cls-9 {
        stroke: #000;
      }

      .cls-10, .cls-3, .cls-4, .cls-5, .cls-6, .cls-9 {
        stroke-miterlimit: 10;
      }

      .cls-3, .cls-9 {
        stroke-width: 0.504px;
      }

      .cls-4, .cls-6, .cls-7 {
        stroke-width: 0.755px;
      }

      .cls-10, .cls-5, .cls-8 {
        stroke-width: 0.252px;
      }

      .cls-10, .cls-11, .cls-13, .cls-6, .cls-9 {
        fill: none;
      }

      .cls-7, .cls-8 {
        stroke-linejoin: round;
      }

      .cls-12 {
        stroke: none;
      }
    </style>
    <clipPath id="clip-path">
      <circle id="Ellipse_90" data-name="Ellipse 90" class="cls-1" cx="94.5" cy="94.5" r="94.5" transform="translate(209 1995)"/>
    </clipPath>
  </defs>
  <g id="Group_382" data-name="Group 382" transform="translate(-7409 -1418)">
    <g id="Group_373" data-name="Group 373" transform="translate(7200 -577)">
      <g id="Ellipse_90-2" data-name="Ellipse 90" class="cls-1" transform="translate(209 1995)">
        <circle class="cls-12" cx="94.5" cy="94.5" r="94.5"/>
        <circle class="cls-13" cx="94.5" cy="94.5" r="94"/>
      </g>
      <g id="Ellipse_239" data-name="Ellipse 239" class="cls-1" transform="translate(209 1995)">
        <circle class="cls-12" cx="94.5" cy="94.5" r="94.5"/>
        <circle class="cls-13" cx="94.5" cy="94.5" r="94"/>
      </g>
    </g>
    <g id="Mask_Group_39" data-name="Mask Group 39" class="cls-2" transform="translate(7200 -577)">
      <g id="ravena_diagonal_" data-name="ravena diagonal " transform="translate(244.13 1999.037)">
        <g id="base" transform="translate(0.252 236.239)">
          <path id="Path_5154" data-name="Path 5154" class="cls-3" d="M52.069,177.186v14.077h5.9V177.332" transform="translate(41.33 -94.356)"/>
          <path id="Path_5155" data-name="Path 5155" class="cls-3" d="M53.969,178.576H50.688a42.463,42.463,0,0,0-.98,9.757,35.123,35.123,0,0,0,.98,8.582h3.1Z" transform="translate(39.43 -93.241)"/>
          <path id="Path_5156" data-name="Path 5156" class="cls-3" d="M55.34,178.576h3.267a42.464,42.464,0,0,1,.98,9.757,34.842,34.842,0,0,1-.98,8.582H55.5Z" transform="translate(43.954 -93.241)"/>
          <path id="Path_5157" data-name="Path 5157" class="cls-4" d="M30.164,159.67s-5.378.6-5.446,1.325S22.108,175.064,27.441,175s8.963-1.475,9.3-2.324S30.164,159.67,30.164,159.67Z" transform="translate(18.848 -108.412)"/>
          <path id="Path_5158" data-name="Path 5158" class="cls-4" d="M82.954,159.21a15.023,15.023,0,0,1,4.239.758,8.4,8.4,0,0,1,2.473,1.815s-1.207,11.758-1.924,12.212-3.78.794-8.849,0,.531-14.409.531-14.409Z" transform="translate(61.15 -108.782)"/>
          <path id="Path_5159" data-name="Path 5159" class="cls-4" d="M85.289,174.913l1.062,20.118L92.1,196.7l5.75-1.212L98.9,174.913s2.269-1.516,10.138-.608,59.45,5.3,59.45,5.3v1.361s3.326.758,4.992.908a13.087,13.087,0,0,0,2.723,0l2.569-.908-.526-8.622-24.279-4.924L132.64,163.4l5.972-.377.454.831,2.119-.831-.3-5.219-3.022-3.935L101.4,155.69l-18.756.454-24.279-.753-.83-.608-9.834-.454-2.192.531-1.97,3.1-.377.908v5.146l6.127.3-19.364,4.012-1.361-.381L7.687,172.181l-.526.6-1.062.454-.454,9.453,7.869.454,2.419-1.207-.15-1.289,64.669-6.426S84.382,173.552,85.289,174.913Z" transform="translate(4.075 -113.063)"/>
          <line id="Line_761" data-name="Line 761" class="cls-4" x1="33.469" y2="6.844" transform="translate(53.364 44.415)"/>
          <line id="Line_762" data-name="Line 762" class="cls-4" x2="30.596" y2="5.936" transform="translate(106.12 44.415)"/>
          <path id="Path_5160" data-name="Path 5160" class="cls-4" d="M50.247,174.918l3.64-3.308h4.765l3.73,3.308" transform="translate(39.867 -98.831)"/>
          <path id="Path_5161" data-name="Path 5161" class="cls-4" d="M50.247,170.215l3.789-3.326H58.8l3.581,3.326" transform="translate(39.867 -102.619)"/>
          <line id="Line_763" data-name="Line 763" class="cls-4" x1="0.077" y1="27.115" transform="translate(93.676 45.663)"/>
          <line id="Line_764" data-name="Line 764" class="cls-4" x1="0.077" y2="27.115" transform="translate(98.518 45.663)"/>
          <line id="Line_765" data-name="Line 765" class="cls-4" x1="27.537" y2="1.852" transform="translate(117.42 44.755)"/>
          <line id="Line_766" data-name="Line 766" class="cls-4" x2="2.51" y2="4.143" transform="translate(131.874 41.324)"/>
          <path id="Path_5162" data-name="Path 5162" class="cls-5" d="M102.718,164.119l-2.95,2.95v6.644" transform="translate(79.606 -104.842)"/>
          <path id="Path_5163" data-name="Path 5163" class="cls-6" d="M57.42,170.21s-.558-8.927,1.257-9.911,8.123-.377,8.123-.377l67.015,10.665" transform="translate(45.559 -108.359)"/>
          <path id="Path_5164" data-name="Path 5164" class="cls-6" d="M85.087,170.433s.758-10.819,0-10.969-15.5,2.192-15.5,2.192l-41.147,7.715L9.073,173.229,5.9,168.768" transform="translate(4.277 -108.583)"/>
          <line id="Line_767" data-name="Line 767" class="cls-4" x2="2.537" y2="4.801" transform="translate(33.999 55.27)"/>
          <path id="Path_5165" data-name="Path 5165" class="cls-4" d="M26.668,157.56l10.365,1.062,2.419-3.558,1.212-.681" transform="translate(20.946 -112.655)"/>
          <line id="Line_768" data-name="Line 768" class="cls-4" x1="14.118" y1="1.461" transform="translate(57.979 45.967)"/>
          <path id="Path_5166" data-name="Path 5166" class="cls-7" d="M48.363,166.115a24.5,24.5,0,0,0,9.566,2.378,21.162,21.162,0,0,0,8.813-2.074l-.862-24.96s-5.037,1.929-8.328,1.929-8.282-.227-8.282-1.361S48.363,166.115,48.363,166.115Z" transform="translate(38.356 -123.026)"/>
          <path id="Path_5167" data-name="Path 5167" class="cls-8" d="M49.165,142.1c1.293-.422,5.9-1.548,16.215-.422,0,0-4.806,1.924-7.715,1.906-2.786,0-5.623.7-8.559-1.112a.2.2,0,0,1,.059-.372Z" transform="translate(38.874 -123.242)"/>
          <path id="Path_5168" data-name="Path 5168" class="cls-4" d="M49.884,146.2l.381-8.772H62.178l.309,8.033S58.811,148.454,49.884,146.2Z" transform="translate(39.576 -126.258)"/>
          <path id="Path_5169" data-name="Path 5169" class="cls-4" d="M51.259,142.405V131.232l8.169.681L59.2,142.405Z" transform="translate(40.679 -131.232)"/>
          <path id="Path_5170" data-name="Path 5170" class="cls-3" d="M17.406,170.4l.486,9.762s.59,9.149-8.355,9.149a8.552,8.552,0,0,1-8.114-4.788,10.374,10.374,0,0,1-.113-9.349,7.606,7.606,0,0,1,5.128-4.243s3.385-.572,5.3.454a.395.395,0,0,0,.576-.381l-.054-.908Z" transform="translate(-0.252 -100.047)"/>
          <path id="Path_5171" data-name="Path 5171" class="cls-3" d="M.42,181.514s-1.43-7.393,5.9-10.184c4.257-1.616,9.34,1.2,10.574,4.32l.408,1.021" transform="translate(-0.207 -99.433)"/>
          <path id="Path_5172" data-name="Path 5172" class="cls-3" d="M.644,182.24S-.44,174.716,6.9,171.925c4.257-1.616,9.135,1.756,10.234,4.452l.4,1.021" transform="translate(0.018 -98.915)"/>
          <path id="Path_5173" data-name="Path 5173" class="cls-3" d="M4.206,173.308a.281.281,0,0,1,.377.054c.617.808,3.1,4.084,2.936,4.384s.177.576-2.977-.086l-2.609-.545c-.163-.032-.336-.227-.272-.377A10.055,10.055,0,0,1,4.206,173.308Z" transform="translate(0.867 -97.507)"/>
          <path id="Path_5174" data-name="Path 5174" class="cls-3" d="M8.27,172.575a.268.268,0,0,1,.191.322c-.241.989-1.243,4.992-1.566,5.042s-.34.5-1.815-2.373l-1.212-2.373c-.073-.145-.032-.4.123-.454A10.168,10.168,0,0,1,8.27,172.575Z" transform="translate(2.621 -98.185)"/>
          <path id="Path_5175" data-name="Path 5175" class="cls-3" d="M11.1,175.791a.263.263,0,0,1-.118.34c-.862.454-4.375,2.178-4.606,1.97s-.567.064.608-2.768c.6-1.439.835-2.015.971-2.337.059-.145.272-.277.4-.191A9.465,9.465,0,0,1,11.1,175.791Z" transform="translate(4.479 -97.894)"/>
          <path id="Path_5176" data-name="Path 5176" class="cls-3" d="M2.653,180.3a.272.272,0,0,0,.372.068c.844-.567,4.257-2.9,4.184-3.213s.349-.49-2.85-.871l-2.646-.318c-.163,0-.395.109-.381.272A10.09,10.09,0,0,0,2.653,180.3Z" transform="translate(0.614 -95.338)"/>
          <path id="Path_5177" data-name="Path 5177" class="cls-3" d="M6.816,182.6a.272.272,0,0,0,.29-.245c.1-1.012.5-5.124.218-5.269s-.154-.585-2.5,1.625l-1.942,1.815c-.118.113-.168.372-.032.454A9.749,9.749,0,0,0,6.816,182.6Z" transform="translate(1.77 -94.545)"/>
          <path id="Path_5178" data-name="Path 5178" class="cls-3" d="M9.87,180.789a.259.259,0,0,0,0-.359c-.663-.7-3.372-3.54-3.658-3.422s-.513-.254-.372,2.809c.073,1.557.1,2.178.113,2.528,0,.159.163.354.313.313A9.535,9.535,0,0,0,9.87,180.789Z" transform="translate(4.198 -94.501)"/>
          <path id="Path_5179" data-name="Path 5179" class="cls-3" d="M11.552,176a.263.263,0,0,0-.295-.2c-.953.15-4.824.8-4.888,1.1s-.5.281,2.115,1.888l2.156,1.325a.347.347,0,0,0,.454-.082A10.045,10.045,0,0,0,11.552,176Z" transform="translate(4.604 -95.472)"/>
          <path id="Path_5180" data-name="Path 5180" class="cls-3" d="M97.573,169.429l-.486,9.784s-.59,9.149,8.355,9.149a8.552,8.552,0,0,0,8.114-4.788,10.388,10.388,0,0,0,.113-9.349,7.6,7.6,0,0,0-5.128-4.243s-3.385-.572-5.3.454a.4.4,0,0,1-.581-.381l.059-.908Z" transform="translate(77.449 -100.807)"/>
          <path id="Path_5181" data-name="Path 5181" class="cls-3" d="M114.268,180.555s1.43-7.393-5.9-10.184c-4.257-1.616-9.34,1.2-10.574,4.316l-.408,1.021" transform="translate(77.695 -100.203)"/>
          <path id="Path_5182" data-name="Path 5182" class="cls-3" d="M114.023,181.274s1.085-7.524-6.263-10.315c-4.252-1.62-9.131,1.756-10.229,4.452l-.4,1.021" transform="translate(77.487 -99.692)"/>
          <path id="Path_5183" data-name="Path 5183" class="cls-3" d="M105.535,172.35a.277.277,0,0,0-.377.054c-.617.808-3.109,4.084-2.936,4.384s-.177.576,2.977-.086l2.609-.545c.159-.036.336-.227.272-.381A10.079,10.079,0,0,0,105.535,172.35Z" transform="translate(81.568 -98.278)"/>
          <path id="Path_5184" data-name="Path 5184" class="cls-3" d="M100.926,171.612a.277.277,0,0,0-.191.327c.241.989,1.243,4.992,1.566,5.042s.336.495,1.815-2.373l1.212-2.373c.073-.145.032-.4-.123-.454A10.193,10.193,0,0,0,100.926,171.612Z" transform="translate(80.377 -98.956)"/>
          <path id="Path_5185" data-name="Path 5185" class="cls-3" d="M98.238,174.832a.259.259,0,0,0,.118.34c.862.454,4.375,2.178,4.6,1.97s.572.064-.6-2.768c-.6-1.439-.84-2.015-.971-2.342-.059-.141-.272-.272-.4-.186A10.055,10.055,0,0,0,98.238,174.832Z" transform="translate(78.359 -98.664)"/>
          <path id="Path_5186" data-name="Path 5186" class="cls-3" d="M107.087,179.337a.272.272,0,0,1-.372.068c-.844-.567-4.257-2.9-4.184-3.213s-.349-.495,2.85-.871l2.646-.318c.163,0,.39.109.381.272A9.753,9.753,0,0,1,107.087,179.337Z" transform="translate(81.822 -96.108)"/>
          <path id="Path_5187" data-name="Path 5187" class="cls-3" d="M102.38,181.64a.268.268,0,0,1-.29-.245c-.109-1.012-.508-5.124-.218-5.269s.15-.585,2.5,1.625l1.938,1.815c.123.113.168.372.036.454A9.7,9.7,0,0,1,102.38,181.64Z" transform="translate(81.211 -95.315)"/>
          <path id="Path_5188" data-name="Path 5188" class="cls-3" d="M99.1,179.83a.259.259,0,0,1,0-.359c.663-.7,3.372-3.54,3.658-3.422s.513-.254.372,2.809c-.073,1.557-.1,2.178-.118,2.528,0,.159-.159.354-.313.313A9.948,9.948,0,0,1,99.1,179.83Z" transform="translate(79.012 -95.271)"/>
          <path id="Path_5189" data-name="Path 5189" class="cls-3" d="M97.937,175.043a.259.259,0,0,1,.295-.2c.953.15,4.824.8,4.888,1.1s.495.281-2.115,1.888l-2.156,1.325a.346.346,0,0,1-.454-.082A9.854,9.854,0,0,1,97.937,175.043Z" transform="translate(78.084 -96.243)"/>
        </g>
        <g id="Frontal" transform="translate(15.184 0.378)">
          <g id="diagonal">
            <g id="estofamento" transform="translate(0 0.001)">
              <path id="Path_5190" data-name="Path 5190" class="cls-4" d="M64.063,3.713S42.43-1.733,38.041,1.294s-5.745,9.376-6.2,13.161.454,22.691-7.111,28.89S8.244,53.937,8.543,63.616,8.7,80.1,13.082,97.957a82.961,82.961,0,0,1,.608,11.949c-.3,4.538.3,36.759.3,36.759l3.88-1.929,1.148.635,1.135,19.514,1.87,18.947s3.4,12.026,6.013,15.262a20.641,20.641,0,0,1,3.4,5.559l19.287-5.219,71.285-.418,6.2-5.6s9.68-8.169,9.226-19.514-2.723-18.606-18.756-40.539,3.027-47.047,2.873-57.789-5.9-13.161-17.7-19.664S87.221,42.9,83.437,25.809,78.131,8.555,64.063,3.713Z" transform="translate(-8.536 -0.378)"/>
              <path id="Path_5191" data-name="Path 5191" class="cls-4" d="M141.11,105.513a25.931,25.931,0,0,1,9.889.6c4.965,1.284,11.264,3.921,11.445,9.031.3,8.473-9.984,30.555-9.984,30.555l-73.368,7.846s.3-6.508-2.269-8.622S68.2,129.039,66.085,126.466s-14.826-11.944-14.826-11.944,6.353-1.67,32.675-3.177C104.913,110.133,131.271,106.811,141.11,105.513Z" transform="translate(25.747 83.809)"/>
              <path id="Path_5192" data-name="Path 5192" class="cls-4" d="M115.65,115.96s1.588,13.891-.985,16.464a29.579,29.579,0,0,1-7.261,4.688S114.516,120.289,115.65,115.96Z" transform="translate(70.802 92.372)"/>
              <path id="Path_5193" data-name="Path 5193" class="cls-4" d="M83.612,110.39s13.238-5.972,21.706-6.5a31.848,31.848,0,0,1,14.749,2.569s-1.18-.749-21.692,2.31Z" transform="translate(51.71 82.634)"/>
              <path id="Path_5194" data-name="Path 5194" class="cls-9" d="M79.6,42.092S59.024,59.337,58.57,63.575s6.049,42.2,6.049,42.2l8.622,44.02,3.49,12.33s12.707-5.223,15.72-14.754,1.965-16.791-1.815-23.294S76.374,100.03,76.374,100.03s-7.824-12.4-5.859-23.748,1.97-13.161,4.842-21.329S79.75,45.119,79.6,42.092Z" transform="translate(31.596 33.096)"/>
              <path id="Path_5195" data-name="Path 5195" class="cls-4" d="M36.158.531S31.62,4.348,31.62,12.212s-.6,20.875-3.481,24.96-16.183,11.681-15.126,23.6,4.992,29.176,6.5,39.482,4.32,32.525,5.037,39.028S27.839,159.4,27.839,159.4" transform="translate(-4.991 -0.255)"/>
              <path id="Path_5196" data-name="Path 5196" class="cls-4" d="M9.907,30.863s1.017,15.248,2.378,25.386,7.565,39.632,7.565,45.985,3.78,40.539,4.234,47.347,4.538,27.41,4.538,27.41" transform="translate(-7.436 24.085)"/>
              <path id="Path_5197" data-name="Path 5197" class="cls-9" d="M13.475,38s7.143,1.484,9.712,15.552,3.631,26.172,3.631,26.172l6.73,38.12,2.8,10.438-7.561,1.057L22.433,83.667S17.2,46.908,16.411,44.639,13.475,38,13.475,38Z" transform="translate(-4.573 29.808)"/>
              <path id="Path_5198" data-name="Path 5198" class="cls-9" d="M22.977,79.593s16.791-6.353,31.767-5.446A121.175,121.175,0,0,1,83,79.593c0-3.785,6.657-19.968,6.657-19.968S69.992,47.976,52.139,47.068s-32.312,9.757-32.312,9.757" transform="translate(0.525 37.045)"/>
              <line id="Line_769" data-name="Line 769" class="cls-9" x2="59.899" transform="translate(27.241 137.814)"/>
              <path id="Path_5199" data-name="Path 5199" class="cls-9" d="M76.822,140.9s2.428-17.957,2.269-20.4-.241-8.532-12.253-9.585-15.579-.418-15.579-.418" transform="translate(25.747 87.835)"/>
              <line id="Line_770" data-name="Line 770" class="cls-10" x1="5.827" y2="14.617" transform="translate(79.611 137.814)"/>
              <line id="Line_771" data-name="Line 771" class="cls-10" x1="6.231" y2="15.511" transform="translate(72.082 137.814)"/>
              <path id="Path_5200" data-name="Path 5200" class="cls-4" d="M95,152.187s-3.326.944-19.664-.817-41.9-3.572-41.9-3.572l-1.212-9.417-.794-.681v-6.127l.681-1.248.227-16.451a24.875,24.875,0,0,1,20.535-6.694C65.808,108.771,82,125.108,82,125.108s8.282,16.033,10.737,18.457S95,152.187,95,152.187Z" transform="translate(9.837 85.166)"/>
              <line id="Line_772" data-name="Line 772" class="cls-10" x1="6.376" y2="15.874" transform="translate(63.001 137.814)"/>
              <line id="Line_773" data-name="Line 773" class="cls-10" x1="6.412" y2="15.97" transform="translate(54.029 137.814)"/>
              <line id="Line_774" data-name="Line 774" class="cls-10" x1="6.689" y2="16.655" transform="translate(44.817 137.814)"/>
              <line id="Line_775" data-name="Line 775" class="cls-10" x1="8.237" y2="20.517" transform="translate(34.334 137.814)"/>
              <line id="Line_776" data-name="Line 776" class="cls-10" x2="12.807" y2="14.881" transform="translate(27.622 139.987)"/>
              <line id="Line_777" data-name="Line 777" class="cls-10" x2="13.923" y2="15.97" transform="translate(35.709 137.814)"/>
              <line id="Line_778" data-name="Line 778" class="cls-10" x2="13.923" y2="15.965" transform="translate(45.516 137.909)"/>
              <line id="Line_779" data-name="Line 779" class="cls-10" x2="13.919" y2="15.97" transform="translate(55.327 138)"/>
              <line id="Line_780" data-name="Line 780" class="cls-10" x2="13.923" y2="15.97" transform="translate(65.134 138.091)"/>
              <line id="Line_781" data-name="Line 781" class="cls-10" x2="13.919" y2="15.97" transform="translate(74.946 138.181)"/>
            </g>
            <g id="braços" transform="translate(2.472)">
              <g id="almofadas" transform="translate(19.93)">
                <path id="Path_5201" data-name="Path 5201" class="cls-9" d="M31.5,130.83l-1.815-19.178L31.2,87.6l55.061-2.873,3.921,6.117a24.543,24.543,0,0,1,2.963,6.635l1.334,4.792a37.117,37.117,0,0,1,1.361,9.2c.064,3.109-.118,6.726-1.112,8.622-1.97,3.78-6.5,8.586-6.5,8.586L66.548,129.75" transform="translate(-13.963 67.31)"/>
                <path id="Path_5202" data-name="Path 5202" class="cls-3" d="M56.881,84.946s10.061,10.193,9.267,21.538-6.68,22.391-6.68,22.391" transform="translate(7.857 67.486)"/>
                <path id="Path_5203" data-name="Path 5203" class="cls-9" d="M35.216,86.077S43.561,96.106,44.292,106a116.079,116.079,0,0,1,0,17.849" transform="translate(-9.528 68.393)"/>
                <path id="Path_5204" data-name="Path 5204" class="cls-9" d="M30.53,86.321s8.092,12.026,7.865,22.918a62.082,62.082,0,0,1-3.93,19.936" transform="translate(-13.288 68.589)"/>
                <path id="Path_5205" data-name="Path 5205" class="cls-10" d="M51.757,85.213a40.507,40.507,0,0,1,15.884,9.158" transform="translate(3.746 67.7)"/>
                <path id="Path_5206" data-name="Path 5206" class="cls-10" d="M46.087,85.6S61.1,90.364,74.855,106.4" transform="translate(-0.804 68.013)"/>
                <path id="Path_5207" data-name="Path 5207" class="cls-10" d="M40.687,85.8s21.552,8.1,35.438,33.732" transform="translate(-5.138 68.171)"/>
                <path id="Path_5208" data-name="Path 5208" class="cls-10" d="M39.146,92.7s9.281,6.943,24.6,30.555" transform="translate(-6.375 73.711)"/>
                <path id="Path_5209" data-name="Path 5209" class="cls-10" d="M40.42,101.516a59.05,59.05,0,0,1,7.506,9.948" transform="translate(-5.352 80.782)"/>
                <path id="Path_5210" data-name="Path 5210" class="cls-10" d="M36.507,86.077S60.56,96.968,74.46,127.968" transform="translate(-8.492 68.393)"/>
                <path id="Path_5211" data-name="Path 5211" class="cls-10" d="M70.289,91.837s-6.608,19.1-20.372,30.75" transform="translate(2.269 73.016)"/>
                <path id="Path_5212" data-name="Path 5212" class="cls-10" d="M67.707,86.077s-6.317,24.869-22.1,38.347" transform="translate(-1.19 68.393)"/>
                <path id="Path_5213" data-name="Path 5213" class="cls-10" d="M61.467,85.213S55.794,109.6,40.687,123.56" transform="translate(-5.138 67.7)"/>
                <path id="Path_5214" data-name="Path 5214" class="cls-10" d="M52.905,85.442c-1.929,6.04-5.9,16.419-12.453,25.441" transform="translate(-5.326 67.884)"/>
                <path id="Path_5215" data-name="Path 5215" class="cls-10" d="M45.222,85.6a88.659,88.659,0,0,1-6.077,12.816" transform="translate(-6.375 68.013)"/>
                <path id="Path_5216" data-name="Path 5216" class="cls-3" d="M43.336,32.414S44.661,41.944,45.8,43s18,7.869,19.133,7.261.758-4.084-.377-6.807-1.588-6.136-3.326-6.73c-1.42-.486-12.657-4.643-16.791-6.172a.935.935,0,0,0-1.243,1.035Z" transform="translate(-3.14 23.791)"/>
                <path id="Path_5217" data-name="Path 5217" class="cls-3" d="M49.713,33.04s-4.724-.681-4.951,2.156,2.269,5.105,6.921,6.844,7.3,1.212,8.509-.263.377-3.29-1.856-4.765S52.549,33.57,49.713,33.04Z" transform="translate(-1.879 25.775)"/>
                <path id="Path_5218" data-name="Path 5218" class="cls-5" d="M45.017,33.551s9.208,3.708,9.925,5.337-.49,3.558-.49,3.558" transform="translate(-1.663 26.243)"/>
                <path id="Path_5219" data-name="Path 5219" class="cls-3" d="M26.062,31.753a3.376,3.376,0,0,0-2.723,1.933c-1.361,2.968-3.054,9.358-2.092,10.438,1.361,1.525,15.262-1.248,17.358-2.156s5.105-10.438,5.105-10.438.663-1.815-1.361-1.439C40.716,30.374,30.373,31.354,26.062,31.753Z" transform="translate(-20.965 23.426)"/>
                <path id="Path_5220" data-name="Path 5220" class="cls-3" d="M25.094,33.55s-3.05.88-2.782,3.7,1.461,4.747,6.353,3.9,8.573-.626,10.728-5.786.8-4.865.8-4.865Z" transform="translate(-19.896 23.789)"/>
                <path id="Path_5221" data-name="Path 5221" class="cls-5" d="M49.919,38.413l12.548,82.835.222,1.039,5.074-.277L65.3,105.287,59.822,68.415,56.6,49.128,54.625,38.413a8.622,8.622,0,0,1-4.706,0Z" transform="translate(2.271 30.145)"/>
                <path id="Path_5222" data-name="Path 5222" class="cls-5" d="M23.911,36.359l4.711-.572.363,1.321,12.044,71.308,3.331,17.7-7.429.318L30.137,82.458,24.691,50.1,23.1,37.471Z" transform="translate(-19.249 28.037)"/>
                <path id="Path_5223" data-name="Path 5223" class="cls-5" d="M25.069,1.117l7.647,8.554,6.657,7.052.758-1.289L30.07.378Z" transform="translate(-17.671 -0.378)"/>
                <path id="Path_5224" data-name="Path 5224" class="cls-5" d="M41.943,2.77,55.1,15.835,59.728,14.2,47.312,4.367a18.992,18.992,0,0,0-5.369-1.6Z" transform="translate(-4.13 1.542)"/>
                <path id="Path_5225" data-name="Path 5225" class="cls-3" d="M29.381,5.624s-5.3-.454-3.027,18.761-4.307,22.083-.567,26.775,17.962-5.146,26.739-4.084c5.6.676,13.233,4.62,18.3,7.261,2.868,1.5,4.91,2.582,5.3,2.419,1.057-.454,3.476-.454,3.631-9.226S79.9,14.247,79,13.339,74,9.709,66.14,15.459,44.811,15,39.968,11.678C38.911,10.948,35.281,4.717,29.381,5.624Z" transform="translate(-18.039 3.76)"/>
                <path id="Path_5226" data-name="Path 5226" class="cls-3" d="M27.257,5.584s9.83,13.079,9.226,25.532S33,51.147,33,51.147" transform="translate(-15.915 3.801)"/>
                <path id="Path_5227" data-name="Path 5227" class="cls-3" d="M56.465,9.245S58.553,36.719,55.1,44.4s-4.842,6.962-4.842,6.962" transform="translate(2.545 6.738)"/>
                <path id="Path_5228" data-name="Path 5228" class="cls-5" d="M29.26,31.545s2.95,2.369,2.1,4.679S26.31,39.9,26.31,39.9" transform="translate(-16.675 24.633)"/>
              </g>
              <path id="Path_5229" data-name="Path 5229" class="cls-4" d="M59.568,135.456l-19.659,2.01s-3.177,2.342-3.4,2.419-9.231.377-9.231.377L25.913,138.4V124.465H35.86l.717,10.665,2.269-.077,6.163-.762Z" transform="translate(2.936 99.198)"/>
              <line id="Line_782" data-name="Line 782" class="cls-4" x1="0.581" y1="2.324" transform="translate(42.831 234.123)"/>
              <path id="Path_5230" data-name="Path 5230" class="cls-4" d="M26.333,120.55V127.7H34.5v-7.261Z" transform="translate(3.274 95.965)"/>
              <path id="Path_5231" data-name="Path 5231" class="cls-4" d="M42.047,92.877l-23.562.585L22.8,97.021l5.977,4.9.908,11.214,1.361,29.593,1.588.622,8.169-.113.681-.508.34-40.675,4.938-6.158,5.954-3.862Z" transform="translate(-3.024 73.169)"/>
              <line id="Line_783" data-name="Line 783" class="cls-4" y1="1.13" x2="23.961" transform="translate(19.773 169.06)"/>
              <path id="Path_5232" data-name="Path 5232" class="cls-4" d="M99.5,119.178l-.549-17.023-10.969-7.57-5.673.4V90.6l1.743-1.888,36.378-1.97,11.727-.454,5.373,3.558v2.078l-10.669.454-5.332.454-10.551,8.79.454,16.451A31.381,31.381,0,0,0,99.5,119.178Z" transform="translate(48.193 68.561)"/>
              <line id="Line_784" data-name="Line 784" class="cls-4" x1="33.546" y2="1.756" transform="translate(136.176 161.377)"/>
              <line id="Line_785" data-name="Line 785" class="cls-4" y1="0.903" x2="23.48" transform="translate(140.969 165.77)"/>
              <path id="Path_5233" data-name="Path 5233" class="cls-4" d="M20,90.268l-4.615,3.449v2.959l30.333-.463,25.01-1.1-.209-5.255-4.23-2.106L46.622,88.2l-12.412.395Z" transform="translate(-5.515 69.738)"/>
              <path id="Path_5234" data-name="Path 5234" class="cls-4" d="M12.889,82.39,9.907,90.254l3.631,30.256-3.631,9.417V157.5l1.815,4.311,17.962,2.042,9.076-.377,1.212-9.834-1.511-4.311-8.137-8.963a20.823,20.823,0,0,0-4.043-6.5l-5.373-14.322-1.747-17.7L17.917,81.1l-1.135-.622Z" transform="translate(-9.907 63.897)"/>
              <path id="Path_5235" data-name="Path 5235" class="cls-3" d="M15.221,80.467,11.836,89.09l3.971,30.142-2.723,1.284" transform="translate(-8.36 63.891)"/>
              <path id="Path_5236" data-name="Path 5236" class="cls-9" d="M10.429,86.739l2.537-1.489,2.609.345,4.234,30.1L15.5,124.515l.422,2.069-2.237,1.588.531,13.388-1.248.758-.948-.681-1.057-14.6" transform="translate(-9.489 67.73)"/>
              <path id="Path_5237" data-name="Path 5237" class="cls-3" d="M36.849,138.452l-7.715.454-3.177-10.683s-4.992-3.463-6.3-7.846-1.307-12.621-6.431-13.342" transform="translate(-7.242 85.211)"/>
              <path id="Path_5238" data-name="Path 5238" class="cls-3" d="M9.907,123.206l17.354,1.815,3.331,4.5" transform="translate(-9.907 98.188)"/>
              <path id="Path_5239" data-name="Path 5239" class="cls-4" d="M16.686,126.247s-1.248,4.783,3.363,5.9,13.388.513,13.388.513v-5.918l-9.076.377Z" transform="translate(-4.591 100.628)"/>
              <path id="Path_5240" data-name="Path 5240" class="cls-4" d="M31.707,133.176l-5.936,8.01-1.661-.908,4.611-7Z" transform="translate(1.49 106.189)"/>
              <path id="Path_5241" data-name="Path 5241" class="cls-4" d="M28.55,137.183l-1.212-.15s-8.432,8.886-8.7,9.644a3.664,3.664,0,0,0,2.687,4.043,8.022,8.022,0,0,0,4.615,0c.644-.3,4.157-7.91,4.157-7.91l1.248-3.594-1.135-1.135Z" transform="translate(-2.951 109.284)"/>
              <path id="Path_5242" data-name="Path 5242" class="cls-4" d="M19.761,150.371a3.23,3.23,0,0,1,.349-3.508c1.4-1.475,8.169-8.318,8.169-8.318l-1.588-1.511" transform="translate(-2.303 109.284)"/>
              <line id="Line_786" data-name="Line 786" class="cls-4" x1="2.419" y1="0.681" transform="translate(25.976 247.828)"/>
              <path id="Path_5243" data-name="Path 5243" class="cls-4" d="M69.231,132.679l1.361,7.1H71.4l1.248,10.361s-1.988,2.346-7.942,2.519-6.952-.681-6.952-.681l-.309-9.87.309-.454L55.8,131.608S67.529,132.951,69.231,132.679Z" transform="translate(26.919 104.93)"/>
            </g>
          </g>
        </g>
      </g>
    </g>
    <g id="Group_380" data-name="Group 380" transform="translate(7200 -577)">
      <g id="Ellipse_90-3" data-name="Ellipse 90" class="cls-11" transform="translate(209 1995)">
        <circle class="cls-12" cx="94.5" cy="94.5" r="94.5"/>
        <circle class="cls-13" cx="94.5" cy="94.5" r="94"/>
      </g>
      <g id="Ellipse_239-2" data-name="Ellipse 239" class="cls-11" transform="translate(209 1995)">
        <circle class="cls-12" cx="94.5" cy="94.5" r="94.5"/>
        <circle class="cls-13" cx="94.5" cy="94.5" r="94"/>
      </g>
    </g>
  </g>
</svg>
