<svg xmlns="http://www.w3.org/2000/svg" xmlns:xlink="http://www.w3.org/1999/xlink" viewBox="0 0 189 189">
  <defs>
    <style>
      .cls-1, .cls-3, .cls-4, .cls-6 {
        fill: #fff;
      }

      .cls-1, .cls-7 {
        stroke: #707070;
      }

      .cls-2 {
        clip-path: url(#clip-path);
      }

      .cls-3, .cls-4, .cls-5, .cls-6 {
        stroke: #000;
      }

      .cls-3, .cls-4, .cls-5 {
        stroke-miterlimit: 10;
      }

      .cls-3, .cls-5, .cls-6 {
        stroke-width: 0.78px;
      }

      .cls-4 {
        stroke-width: 0.52px;
      }

      .cls-5, .cls-7, .cls-9 {
        fill: none;
      }

      .cls-6 {
        stroke-linejoin: round;
      }

      .cls-8 {
        stroke: none;
      }
    </style>
    <clipPath id="clip-path">
      <circle id="Ellipse_239" data-name="Ellipse 239" class="cls-1" cx="94.5" cy="94.5" r="94.5" transform="translate(209 1995)"/>
    </clipPath>
  </defs>
  <g id="Group_384" data-name="Group 384" transform="translate(-7957 -1418)">
    <g id="Group_373" data-name="Group 373" transform="translate(7748 -577)">
      <g id="Ellipse_90-2" data-name="Ellipse 90" class="cls-1" transform="translate(209 1995)">
        <circle class="cls-8" cx="94.5" cy="94.5" r="94.5"/>
        <circle class="cls-9" cx="94.5" cy="94.5" r="94"/>
      </g>
      <g id="Mask_Group_40" data-name="Mask Group 40" class="cls-2">
        <g id="Inclinação" transform="translate(224.67 2043.425)">
          <g id="base" transform="translate(67.738 73.416)">
            <path id="Path_5244" data-name="Path 5244" class="cls-3" d="M128.89,130.72v7.245h3.034V130.8" transform="translate(-80.824 -86.688)"/>
            <path id="Path_5245" data-name="Path 5245" class="cls-3" d="M128.641,132.156H126.95a21.937,21.937,0,0,0-.5,5.021,18.165,18.165,0,0,0,.5,4.416h1.6Z" transform="translate(-80.575 -86.834)"/>
            <path id="Path_5246" data-name="Path 5246" class="cls-3" d="M132.267,132.156h1.689a21.779,21.779,0,0,1,.5,5.021,18.018,18.018,0,0,1-.5,4.416h-1.6Z" transform="translate(-81.168 -86.834)"/>
            <path id="Path_5247" data-name="Path 5247" class="cls-4" d="M103.09,112.631s-2.765.311-2.8.682-1.343,7.24,1.4,7.212,4.612-.759,4.788-1.2S103.09,112.631,103.09,112.631Z" transform="translate(-77.876 -84.846)"/>
            <path id="Path_5248" data-name="Path 5248" class="cls-4" d="M157.581,112.155a7.732,7.732,0,0,1,2.181.39,4.325,4.325,0,0,1,1.273.934s-.621,6.051-.99,6.285-1.945.409-4.554,0,.273-7.415.273-7.415Z" transform="translate(-83.421 -84.798)"/>
            <path id="Path_5249" data-name="Path 5249" class="cls-3" d="M121.931,117.473l.546,10.353,2.957.857,2.959-.624.544-10.587s1.168-.78,5.217-.313,30.594,2.725,30.594,2.725v.7s1.712.39,2.569.467a6.736,6.736,0,0,0,1.4,0l1.322-.467-.271-4.437-12.495-2.529L146.3,111.555l3.073-.194.234.427,1.091-.427-.156-2.686-1.555-2.025-18.763.934-9.652.234-12.495-.388-.427-.313-5.061-.234-1.128.273-1.014,1.6-.194.467v2.648l3.153.154-9.965,2.065-.7-.2L82,116.071l-.271.311-.546.234-.234,4.865,4.05.234,1.252-.621-.077-.663,33.273-3.307S121.464,116.772,121.931,117.473Z" transform="translate(-75.941 -84.237)"/>
            <line id="Line_787" data-name="Line 787" class="cls-3" x1="17.224" y2="3.522" transform="translate(27.463 24.263)"/>
            <line id="Line_788" data-name="Line 788" class="cls-3" x2="15.745" y2="3.055" transform="translate(54.612 24.263)"/>
            <path id="Path_5250" data-name="Path 5250" class="cls-3" d="M127.007,126.663l1.873-1.7h2.452l1.92,1.7" transform="translate(-80.632 -86.102)"/>
            <path id="Path_5251" data-name="Path 5251" class="cls-3" d="M127.007,121.8l1.95-1.712h2.452l1.843,1.712" transform="translate(-80.632 -85.605)"/>
            <line id="Line_789" data-name="Line 789" class="cls-3" x1="0.04" y1="13.954" transform="translate(48.209 24.905)"/>
            <line id="Line_790" data-name="Line 790" class="cls-3" x1="0.04" y2="13.954" transform="translate(50.7 24.905)"/>
            <line id="Line_791" data-name="Line 791" class="cls-3" x1="14.171" y2="0.953" transform="translate(60.427 24.438)"/>
            <line id="Line_792" data-name="Line 792" class="cls-3" x2="1.291" y2="2.132" transform="translate(67.866 22.672)"/>
            <path id="Path_5252" data-name="Path 5252" class="cls-3" d="M179.669,117.225l-1.518,1.518v3.419" transform="translate(-85.84 -85.314)"/>
            <path id="Path_5253" data-name="Path 5253" class="cls-5" d="M134.374,118.088s-.29-4.594.645-5.1,4.183-.194,4.183-.194l34.487,5.488" transform="translate(-81.378 -84.853)"/>
            <path id="Path_5254" data-name="Path 5254" class="cls-5" d="M121.958,118.059s.39-5.568,0-5.645-7.978,1.128-7.978,1.128L92.8,117.513,82.839,119.5,81.2,117.2" transform="translate(-75.968 -84.824)"/>
            <line id="Line_793" data-name="Line 793" class="cls-3" x2="1.306" y2="2.471" transform="translate(17.498 29.849)"/>
            <path id="Path_5255" data-name="Path 5255" class="cls-3" d="M102.656,108.805l5.334.546,1.245-1.831.624-.35" transform="translate(-78.152 -84.29)"/>
            <line id="Line_794" data-name="Line 794" class="cls-3" x1="7.266" y1="0.752" transform="translate(29.838 25.062)"/>
            <path id="Path_5256" data-name="Path 5256" class="cls-3" d="M125.07,106.525a12.606,12.606,0,0,0,4.923,1.224,10.89,10.89,0,0,0,4.535-1.067l-.773-12.726a13.668,13.668,0,0,1-3.956.873c-1.693,0-4.262-.117-4.262-.7S125.07,106.525,125.07,106.525Z" transform="translate(-80.435 -82.944)"/>
            <path id="Path_5257" data-name="Path 5257" class="cls-4" d="M84.2,123.554l.252,5.021s.3,4.708-4.3,4.708a4.4,4.4,0,0,1-4.176-2.464,5.332,5.332,0,0,1-.058-4.811,3.914,3.914,0,0,1,2.639-2.184,5.3,5.3,0,0,1,2.725.234.2.2,0,0,0,.3-.2l-.03-.467Z" transform="translate(-75.374 -85.942)"/>
            <path id="Path_5258" data-name="Path 5258" class="cls-4" d="M75.491,129.67a4.707,4.707,0,0,1,3.036-5.238,4.564,4.564,0,0,1,5.442,2.221l.208.525" transform="translate(-75.38 -86.023)"/>
            <path id="Path_5259" data-name="Path 5259" class="cls-4" d="M75.751,130.377a5.014,5.014,0,0,1,3.221-5.308c2.191-.831,4.7.9,5.264,2.291l.21.525" transform="translate(-75.41 -86.091)"/>
            <path id="Path_5260" data-name="Path 5260" class="cls-4" d="M78.132,126.69a.142.142,0,0,1,.192.028,13.108,13.108,0,0,1,1.513,2.256c-.086.142.091.3-1.534-.042l-1.341-.283c-.084-.016-.175-.117-.14-.194A5.2,5.2,0,0,1,78.132,126.69Z" transform="translate(-75.521 -86.275)"/>
            <path id="Path_5261" data-name="Path 5261" class="cls-4" d="M81.346,125.875a.14.14,0,0,1,.1.168,13.207,13.207,0,0,1-.806,2.592c-.166.023-.175.257-.934-1.221l-.624-1.221c-.037-.075-.019-.208.063-.234A5.242,5.242,0,0,1,81.346,125.875Z" transform="translate(-75.75 -86.186)"/>
            <path id="Path_5262" data-name="Path 5262" class="cls-4" d="M84.012,127.718a.135.135,0,0,1-.061.175,11.767,11.767,0,0,1-2.37,1.014c-.119-.107-.292.033.313-1.425.306-.74.43-1.037.5-1.2.03-.075.14-.142.206-.1A4.922,4.922,0,0,1,84.012,127.718Z" transform="translate(-75.994 -86.224)"/>
            <path id="Path_5263" data-name="Path 5263" class="cls-4" d="M77.17,131.687a.14.14,0,0,0,.192.035,13.078,13.078,0,0,0,2.153-1.653c-.037-.163.18-.252-1.467-.448l-1.364-.163c-.082,0-.2.056-.194.14A5.157,5.157,0,0,0,77.17,131.687Z" transform="translate(-75.488 -86.559)"/>
            <path id="Path_5264" data-name="Path 5264" class="cls-4" d="M80.059,133.383a.142.142,0,0,0,.149-.124,13.316,13.316,0,0,0,.112-2.714c-.147-.077-.079-.3-1.284.838l-1,.934c-.061.056-.086.189-.016.234A5.043,5.043,0,0,0,80.059,133.383Z" transform="translate(-75.639 -86.663)"/>
            <path id="Path_5265" data-name="Path 5265" class="cls-4" d="M83.2,132.481a.133.133,0,0,0,0-.185,12.4,12.4,0,0,0-1.882-1.761c-.147.061-.264-.131-.192,1.446.035.8.051,1.123.058,1.3,0,.079.084.18.161.161A4.907,4.907,0,0,0,83.2,132.481Z" transform="translate(-75.957 -86.669)"/>
            <path id="Path_5266" data-name="Path 5266" class="cls-4" d="M84.325,129.39a.135.135,0,0,0-.152-.105,12.418,12.418,0,0,0-2.515.565c-.033.154-.257.147,1.086.972l1.112.684a.182.182,0,0,0,.234-.044A5.079,5.079,0,0,0,84.325,129.39Z" transform="translate(-76.011 -86.542)"/>
            <path id="Path_5267" data-name="Path 5267" class="cls-4" d="M175.628,122.561l-.25,5.024s-.3,4.708,4.3,4.708a4.383,4.383,0,0,0,4.176-2.464,5.339,5.339,0,0,0,.061-4.811,3.919,3.919,0,0,0-2.639-2.184,5.3,5.3,0,0,0-2.728.234.2.2,0,0,1-.3-.2l.03-.467Z" transform="translate(-85.557 -85.841)"/>
            <path id="Path_5268" data-name="Path 5268" class="cls-4" d="M184.379,128.679a4.709,4.709,0,0,0-3.036-5.241,4.57,4.57,0,0,0-5.442,2.221l-.21.525" transform="translate(-85.589 -85.922)"/>
            <path id="Path_5269" data-name="Path 5269" class="cls-4" d="M184.118,129.384a5.01,5.01,0,0,0-3.221-5.308c-2.188-.831-4.7.9-5.264,2.291l-.208.525" transform="translate(-85.562 -85.989)"/>
            <path id="Path_5270" data-name="Path 5270" class="cls-4" d="M182.385,125.7a.145.145,0,0,0-.194.028,13.072,13.072,0,0,0-1.511,2.256c.089.142-.091.3,1.532-.044l1.343-.28c.082-.016.173-.117.14-.194A5.175,5.175,0,0,0,182.385,125.7Z" transform="translate(-86.097 -86.174)"/>
            <path id="Path_5271" data-name="Path 5271" class="cls-4" d="M179.244,124.884a.138.138,0,0,0-.1.166,13.079,13.079,0,0,0,.806,2.595c.166.026.173.257.934-1.221l.626-1.221c.037-.075.016-.208-.065-.234A5.243,5.243,0,0,0,179.244,124.884Z" transform="translate(-85.941 -86.085)"/>
            <path id="Path_5272" data-name="Path 5272" class="cls-4" d="M176.553,126.727a.133.133,0,0,0,.061.175,11.813,11.813,0,0,0,2.368,1.014c.117-.107.294.033-.311-1.425-.308-.74-.432-1.037-.5-1.2-.033-.075-.14-.142-.208-.1A5.107,5.107,0,0,0,176.553,126.727Z" transform="translate(-85.676 -86.124)"/>
            <path id="Path_5273" data-name="Path 5273" class="cls-4" d="M183.348,130.7a.14.14,0,0,1-.191.035A13.2,13.2,0,0,1,181,129.078c.037-.161-.18-.252,1.467-.448l1.362-.163c.084,0,.2.056.2.14A5.193,5.193,0,0,1,183.348,130.7Z" transform="translate(-86.13 -86.459)"/>
            <path id="Path_5274" data-name="Path 5274" class="cls-4" d="M180.531,132.393a.138.138,0,0,1-.149-.126,12.961,12.961,0,0,1-.112-2.711c.149-.075.077-.3,1.285.836l1,.934c.063.058.086.191.019.234A5.017,5.017,0,0,1,180.531,132.393Z" transform="translate(-86.05 -86.562)"/>
            <path id="Path_5275" data-name="Path 5275" class="cls-4" d="M177.424,131.49a.131.131,0,0,1,0-.185,12.4,12.4,0,0,1,1.882-1.761c.147.061.264-.131.192,1.446-.037.8-.051,1.121-.061,1.3,0,.082-.084.182-.161.161A4.979,4.979,0,0,1,177.424,131.49Z" transform="translate(-85.762 -86.568)"/>
            <path id="Path_5276" data-name="Path 5276" class="cls-4" d="M176.225,128.4a.133.133,0,0,1,.152-.105,12.456,12.456,0,0,1,2.515.565c.033.154.255.145-1.088.972l-1.112.682a.178.178,0,0,1-.234-.042A5.067,5.067,0,0,1,176.225,128.4Z" transform="translate(-85.64 -86.441)"/>
            <path id="Path_5277" data-name="Path 5277" class="cls-3" d="M125.59,94.07a13.865,13.865,0,0,1,8.218-.173" transform="translate(-80.488 -82.886)"/>
            <line id="Line_795" data-name="Line 795" class="cls-3" y1="0.056" x2="6.329" transform="translate(46.195 6.56)"/>
            <line id="Line_796" data-name="Line 796" class="cls-5" y1="0.056" x2="6.628" transform="translate(46.023 6.616)"/>
            <path id="Path_5278" data-name="Path 5278" class="cls-3" d="M126.7,93.741l.194-4.514h6.131l.159,4.136S131.287,94.9,126.7,93.741Z" transform="translate(-80.6 -82.463)"/>
            <path id="Path_5279" data-name="Path 5279" class="cls-3" d="M128.112,88.574v-5.75l4.2.35-.117,5.4Z" transform="translate(-80.745 -81.811)"/>
            <path id="Path_5280" data-name="Path 5280" class="cls-3" d="M136.748,82.429l1.313,4.7-.467.845,1.023,4.732s3.912.953,6.859-1.144l-.993-5.371-1.051-.35L142.264,81.7Z" transform="translate(-81.624 -81.696)"/>
          </g>
          <g id="Frontal" transform="translate(106.327 74.881)">
            <g id="diagonal">
              <g id="braços">
                <path id="Path_5281" data-name="Path 5281" class="cls-3" d="M123.107,92.2c-.117-.028-1.168-.584-1.168-.584L118.9,96.2a3.351,3.351,0,0,0-.539,1.39,1.356,1.356,0,0,0,.794,1.649c.962.327,2.013-1.957,2.013-1.957Z" transform="translate(-118.338 -84.17)"/>
                <path id="Path_5282" data-name="Path 5282" class="cls-3" d="M122.636,90.9l2.632-5.332,1.114-2.247v1.635l-3.029,6.308Z" transform="translate(-118.775 -83.326)"/>
              </g>
            </g>
          </g>
          <g id="Lateral" transform="translate(0.388 0.387)">
            <g id="Camada_12" data-name="Camada 12">
              <path id="Path_5283" data-name="Path 5283" class="cls-3" d="M142.126,76.331s-.336,6.892,0,7.079.565.75,4.339.525,3.323-.262,3.942-.525-.339-7.585-.339-7.585-.656.451-2.985.451a31.851,31.851,0,0,1-4.769-.152C141.984,75.972,142.126,76.331,142.126,76.331Z" transform="translate(-14.806 -8.069)"/>
              <path id="Path_5284" data-name="Path 5284" class="cls-3" d="M140.674,68.844h7.961l-.525-20.8,5.783-4.769,12.392-.563V41.241L162.9,38.99h-3.153l-14.8.6-12.13.712-3.641,2.291v1.427l3.681.075,6.42,4.243Z" transform="translate(-13.503 -4.318)"/>
              <path id="Path_5285" data-name="Path 5285" class="cls-3" d="M129.184,42.849l35.073-1.163,2.027-.189" transform="translate(-13.503 -4.573)"/>
              <line id="Line_797" data-name="Line 797" class="cls-3" y1="0.824" x2="21.028" transform="translate(119.361 38.953)"/>
              <line id="Line_798" data-name="Line 798" class="cls-3" y1="0.257" x2="15.269" transform="translate(122.175 41.382)"/>
              <path id="Path_5286" data-name="Path 5286" class="cls-3" d="M149.656,75.459l-.149-3.23H142.9v3.611S148.838,76.161,149.656,75.459Z" transform="translate(-14.9 -7.703)"/>
              <g id="Camada_11" data-name="Camada 11">
                <path id="Path_5287" data-name="Path 5287" class="cls-3" d="M95.15,72.8l21.068-.9,1.186-1.945-3.27-5.252a12.729,12.729,0,0,1-5.909-2.534c-2.592-2.142-2.478-4.281-4.393-5.689a13.239,13.239,0,0,0-2.226-1.291,7.151,7.151,0,0,0-6.591.234,7.7,7.7,0,0,0-3.426,4.437,60.208,60.208,0,0,0,.638,6.948c.563,3.643.752,4.505.752,4.505l2.177,1.5s0,2.966,2.7,2.929S142.87,72.5,142.87,72.5l21.019-.544a3.363,3.363,0,0,0,3-3.643c.037-3.454,2.335-6.46,2.335-7.548s1.014-3.3-1.238-5.605-3.97-2.254-5.409-4.542-13.931-.3-13.931-.3a27.931,27.931,0,0,0-9.314-1.653,42.692,42.692,0,0,0-15.4,4.2,37.485,37.485,0,0,1-11.332,3.186c-1.357.194-4.393.413-4.393.413s-5.983-2.632-8.552-2.506-2.569-2.046-2.569-2.046L96.208,49.9s-.18-7.707-2.167-9.914-4.143-5.059-9.926-5.981-14.977-1.256-14.977-1.256-9.1-1.551-13.16-5.138S47.869,18.387,46.1,16.787s-4.528-3.092-9.01-3.01l-1.583.173s-2.034-2.314-6.934-2.317L15.01,3.666A26.876,26.876,0,0,0,6.345.6C1.936.025,1.6.6.836,2.314S.161,5.271,2.127,6.7,18.008,18.812,18.008,18.812l2.744,1.355,9.615,10L35.1,35.538a49,49,0,0,0,5.878,5.645,74.191,74.191,0,0,0,7.994,5.783c4.942,2.938,12.957,7.256,12.957,7.256l17.077,7.742L86.67,65.31a60.431,60.431,0,0,0,5.007,4.858c2.8,2.4,3.5,2.931,3.5,2.931" transform="translate(-0.388 -0.387)"/>
                <path id="Path_5288" data-name="Path 5288" class="cls-5" d="M176.475,77.976s1.063-3.76-1.7-8.436-10.026-8.111-16.617-9.183-16.054.451-24.5,5.014S121.856,69,121.856,69" transform="translate(-12.757 -6.46)"/>
                <path id="Path_5289" data-name="Path 5289" class="cls-5" d="M180.323,75.869a23.466,23.466,0,0,0-11.086-14.713c-9.547-5.755-25.223-1.357-33.654,3.772" transform="translate(-14.155 -6.298)"/>
                <path id="Path_5290" data-name="Path 5290" class="cls-5" d="M182.484,59.5c-.315-.138-13.155.22-13.155.22" transform="translate(-17.591 -6.403)"/>
                <path id="Path_5291" data-name="Path 5291" class="cls-3" d="M100.257,68.944l1.306.367,1.007-.325,1.994,1.116,4.372.385,1-2.172L107.116,65.3l-2.735-.836-.6-1.852-5.2-2.7L83.75,53.01l-4.57-1.588-.631.591-1.791,4.3,3.557,3.256,15.5,6.684Z" transform="translate(-8.165 -5.584)"/>
                <path id="Path_5292" data-name="Path 5292" class="cls-5" d="M102.921,70.353l2.417-5.1,1.707.614" transform="translate(-10.829 -6.993)"/>
                <path id="Path_5293" data-name="Path 5293" class="cls-3" d="M102.941,63.849l-4.792-2.87L83.1,54.124l-3.727-1.4.07-1.3" transform="translate(-8.432 -5.584)"/>
                <line id="Line_799" data-name="Line 799" class="cls-5" y1="5.442" x2="2.52" transform="translate(72.15 48.54)"/>
                <line id="Line_800" data-name="Line 800" class="cls-3" y1="5.136" x2="2.375" transform="translate(87.342 55.395)"/>
                <path id="Path_5294" data-name="Path 5294" class="cls-5" d="M1.441,1.3s18.945,11.355,19.9,11.348a42.86,42.86,0,0,0,7.221-.934c2.926-.654,6.044,1.4,6.934,2.317s5.729,6.724,9.379,10.944a29.057,29.057,0,0,0,16.743,8.942c6.518.941,19.253,2.116,22.906,3.435a20.072,20.072,0,0,1,9.08,6.609c1.868,2.779,3.008,8.116,2.639,10.626.1-4.388-4.276-9.073-4.276-9.073-7.076-7.735-17.481-5.937-28.7-8.555A45.864,45.864,0,0,1,41.961,25.7c-3.323-3.09-4.743-6.915-9.65-10.129s-10.776,1.969-12.488,1.868S.393,4.217.393,4.217" transform="translate(-0.389 -0.48)"/>
              </g>
            </g>
            <path id="Path_5295" data-name="Path 5295" class="cls-3" d="M120.007,67.628l5.353-.647.035.292.252,2.046-5.385.392-.789-2.139Z" transform="translate(-12.514 -7.168)"/>
            <path id="Path_5296" data-name="Path 5296" class="cls-6" d="M125.809,66.8l9.181-.787,1.66,3.069s-.423-.089-1.464.532-1.4-.14-2.254-.28-1.6.733-2.335.647-.871-.815-1.857-.731-1.366.913-1.838.738S125.809,66.8,125.809,66.8Z" transform="translate(-13.16 -7.069)"/>
          </g>
        </g>
      </g>
    </g>
    <g id="Group_380" data-name="Group 380" transform="translate(7748 -577)">
      <g id="Ellipse_90-3" data-name="Ellipse 90" class="cls-7" transform="translate(209 1995)">
        <circle class="cls-8" cx="94.5" cy="94.5" r="94.5"/>
        <circle class="cls-9" cx="94.5" cy="94.5" r="94"/>
      </g>
      <g id="Ellipse_239-2" data-name="Ellipse 239" class="cls-7" transform="translate(209 1995)">
        <circle class="cls-8" cx="94.5" cy="94.5" r="94.5"/>
        <circle class="cls-9" cx="94.5" cy="94.5" r="94"/>
      </g>
    </g>
  </g>
</svg>
