<svg xmlns="http://www.w3.org/2000/svg" xmlns:xlink="http://www.w3.org/1999/xlink" viewBox="0 0 189 189">
  <defs>
    <style>
      .cls-1, .cls-3, .cls-4, .cls-5, .cls-7, .cls-8 {
        fill: #fff;
      }

      .cls-1, .cls-11 {
        stroke: #707070;
      }

      .cls-2 {
        clip-path: url(#clip-path);
      }

      .cls-10, .cls-3, .cls-4, .cls-5, .cls-6, .cls-7, .cls-8, .cls-9 {
        stroke: #000;
      }

      .cls-10, .cls-3, .cls-4, .cls-5, .cls-6, .cls-9 {
        stroke-miterlimit: 10;
      }

      .cls-3, .cls-9 {
        stroke-width: 0.504px;
      }

      .cls-4, .cls-6, .cls-7 {
        stroke-width: 0.755px;
      }

      .cls-10, .cls-5, .cls-8 {
        stroke-width: 0.252px;
      }

      .cls-10, .cls-11, .cls-13, .cls-6, .cls-9 {
        fill: none;
      }

      .cls-7, .cls-8 {
        stroke-linejoin: round;
      }

      .cls-12 {
        stroke: none;
      }
    </style>
    <clipPath id="clip-path">
      <circle id="Ellipse_90" data-name="Ellipse 90" class="cls-1" cx="94.5" cy="94.5" r="94.5" transform="translate(209 1995)"/>
    </clipPath>
  </defs>
  <g id="Group_387" data-name="Group 387" transform="translate(-8505 -1418)">
    <g id="Group_386" data-name="Group 386">
      <g id="Group_373" data-name="Group 373" transform="translate(8296 -577)">
        <g id="Ellipse_90-2" data-name="Ellipse 90" class="cls-1" transform="translate(209 1995)">
          <circle class="cls-12" cx="94.5" cy="94.5" r="94.5"/>
          <circle class="cls-13" cx="94.5" cy="94.5" r="94"/>
        </g>
        <g id="Ellipse_239" data-name="Ellipse 239" class="cls-1" transform="translate(209 1995)">
          <circle class="cls-12" cx="94.5" cy="94.5" r="94.5"/>
          <circle class="cls-13" cx="94.5" cy="94.5" r="94"/>
        </g>
      </g>
      <g id="Mask_Group_39" data-name="Mask Group 39" class="cls-2" transform="translate(8296 -577)">
        <g id="ravena_diagonal_" data-name="ravena diagonal " transform="translate(116.494 1671.987)">
          <g id="base" transform="translate(0.252 330.566)">
            <path id="Path_5154" data-name="Path 5154" class="cls-3" d="M52.069,177.186v19.707h8.253v-19.5" transform="translate(78.683 -61.23)"/>
            <path id="Path_5155" data-name="Path 5155" class="cls-3" d="M55.675,178.576H51.082a59.446,59.446,0,0,0-1.372,13.659,49.169,49.169,0,0,0,1.372,12.014h4.346Z" transform="translate(75.077 -59.113)"/>
            <path id="Path_5156" data-name="Path 5156" class="cls-3" d="M55.34,178.576h4.574a59.446,59.446,0,0,1,1.372,13.659,48.775,48.775,0,0,1-1.372,12.014H55.569Z" transform="translate(83.665 -59.113)"/>
            <path id="Path_5157" data-name="Path 5157" class="cls-4" d="M32.607,159.67s-7.528.845-7.624,1.855S21.331,181.22,28.8,181.137s12.547-2.065,13.024-3.253S32.607,159.67,32.607,159.67Z" transform="translate(36.005 -87.912)"/>
            <path id="Path_5158" data-name="Path 5158" class="cls-4" d="M85.427,159.21a21.03,21.03,0,0,1,5.934,1.061,11.765,11.765,0,0,1,3.462,2.541s-1.69,16.461-2.694,17.1-5.292,1.112-12.389,0,.743-20.171.743-20.171Z" transform="translate(116.308 -88.614)"/>
            <path id="Path_5159" data-name="Path 5159" class="cls-4" d="M117.141,183.327l1.487,28.163,8.043,2.332,8.049-1.7,1.48-28.8s3.177-2.122,14.193-.851,83.225,7.414,83.225,7.414V191.8s4.657,1.061,6.988,1.271a18.324,18.324,0,0,0,3.812,0l3.6-1.271-.737-12.071-33.989-6.893-29.86-5.616,8.361-.527.635,1.163,2.967-1.163-.426-7.306-4.231-5.508-51.041,2.541-26.257.635L79.449,156l-1.163-.851-13.767-.635-3.069.743-2.757,4.339-.527,1.271v7.2l8.577.419L39.634,174.1l-1.906-.534L8.5,179.5l-.737.845-1.487.635-.635,13.233,11.016.635,3.386-1.69-.21-1.8,90.531-9S115.871,181.422,117.141,183.327Z" transform="translate(7.963 -96.741)"/>
            <line id="Line_761" data-name="Line 761" class="cls-4" x1="46.854" y2="9.58" transform="translate(74.705 62.178)"/>
            <line id="Line_762" data-name="Line 762" class="cls-4" x2="42.832" y2="8.31" transform="translate(148.56 62.178)"/>
            <path id="Path_5160" data-name="Path 5160" class="cls-4" d="M50.247,176.241l5.1-4.631h6.671l5.222,4.631" transform="translate(75.906 -69.725)"/>
            <path id="Path_5161" data-name="Path 5161" class="cls-4" d="M50.247,171.546l5.3-4.657h6.671l5.013,4.657" transform="translate(75.906 -76.916)"/>
            <line id="Line_763" data-name="Line 763" class="cls-4" x1="0.108" y1="37.96" transform="translate(131.14 63.925)"/>
            <line id="Line_764" data-name="Line 764" class="cls-4" x1="0.108" y2="37.96" transform="translate(137.918 63.925)"/>
            <line id="Line_765" data-name="Line 765" class="cls-4" x1="38.551" y2="2.592" transform="translate(164.379 62.654)"/>
            <line id="Line_766" data-name="Line 766" class="cls-4" x2="3.513" y2="5.8" transform="translate(184.613 57.851)"/>
            <path id="Path_5162" data-name="Path 5162" class="cls-5" d="M103.9,164.119l-4.129,4.13v9.3" transform="translate(151.343 -81.135)"/>
            <path id="Path_5163" data-name="Path 5163" class="cls-6" d="M57.453,174.4s-.781-12.5,1.76-13.875S70.585,160,70.585,160l93.816,14.93" transform="translate(86.711 -87.812)"/>
            <path id="Path_5164" data-name="Path 5164" class="cls-6" d="M116.758,174.823s1.061-15.146,0-15.355-21.7,3.069-21.7,3.069l-57.6,10.8-27.109,5.4L5.9,172.491" transform="translate(8.346 -88.236)"/>
            <line id="Line_767" data-name="Line 767" class="cls-4" x2="3.551" y2="6.722" transform="translate(47.597 77.374)"/>
            <path id="Path_5165" data-name="Path 5165" class="cls-4" d="M26.668,158.83l14.51,1.487,3.386-4.981,1.7-.953" transform="translate(39.988 -95.966)"/>
            <line id="Line_768" data-name="Line 768" class="cls-4" x1="19.764" y1="2.046" transform="translate(81.166 64.35)"/>
            <path id="Path_5166" data-name="Path 5166" class="cls-7" d="M48.363,175.976s6.62,3.329,13.392,3.329a29.625,29.625,0,0,0,12.338-2.9L72.886,141.46s-7.052,2.7-11.658,2.7-11.594-.318-11.594-1.906S48.363,175.976,48.363,175.976Z" transform="translate(73.037 -115.653)"/>
            <path id="Path_5167" data-name="Path 5167" class="cls-8" d="M49.228,142.461c1.811-.591,8.259-2.166,22.7-.591,0,0-6.728,2.694-10.8,2.668-3.9,0-7.871.985-11.982-1.557a.286.286,0,0,1,.083-.521Z" transform="translate(74.021 -116.064)"/>
            <path id="Path_5168" data-name="Path 5168" class="cls-4" d="M49.884,149.712l.534-12.281H67.095l.432,11.245S62.381,152.863,49.884,149.712Z" transform="translate(75.353 -121.79)"/>
            <path id="Path_5169" data-name="Path 5169" class="cls-4" d="M51.259,146.874V131.232l11.436.953-.318,14.688Z" transform="translate(77.448 -131.232)"/>
            <path id="Path_5170" data-name="Path 5170" class="cls-3" d="M24.266,170.52l.68,13.665s.826,12.808-11.7,12.808c-6.315,0-9.625-3.367-11.359-6.7A14.523,14.523,0,0,1,1.732,177.2a10.648,10.648,0,0,1,7.179-5.94s4.739-.8,7.414.635a.553.553,0,0,0,.807-.534l-.076-1.271Z" transform="translate(-0.252 -72.034)"/>
            <path id="Path_5171" data-name="Path 5171" class="cls-3" d="M.465,185.775s-2-10.349,8.259-14.256c5.959-2.262,13.075,1.677,14.8,6.048L24.1,179" transform="translate(-0.167 -70.867)"/>
            <path id="Path_5172" data-name="Path 5172" class="cls-3" d="M.667,186.534S-.851,176,9.428,172.093c5.959-2.262,12.789,2.459,14.326,6.232l.565,1.429" transform="translate(0.26 -69.885)"/>
            <path id="Path_5173" data-name="Path 5173" class="cls-3" d="M5.23,173.328a.394.394,0,0,1,.527.076c.864,1.131,4.346,5.718,4.11,6.137s.248.807-4.168-.121l-3.653-.762c-.229-.044-.47-.318-.381-.527A14.076,14.076,0,0,1,5.23,173.328Z" transform="translate(1.872 -67.212)"/>
            <path id="Path_5174" data-name="Path 5174" class="cls-3" d="M10.044,172.639a.375.375,0,0,1,.267.451c-.337,1.385-1.741,6.988-2.192,7.058s-.476.7-2.541-3.323l-1.7-3.323c-.1-.2-.044-.565.172-.635A14.235,14.235,0,0,1,10.044,172.639Z" transform="translate(5.203 -68.499)"/>
            <path id="Path_5175" data-name="Path 5175" class="cls-3" d="M13.081,177a.369.369,0,0,1-.165.477c-1.207.635-6.124,3.049-6.448,2.757s-.794.089.851-3.875c.839-2.014,1.169-2.821,1.36-3.272.083-.2.381-.388.559-.267A13.252,13.252,0,0,1,13.081,177Z" transform="translate(8.728 -67.946)"/>
            <path id="Path_5176" data-name="Path 5176" class="cls-3" d="M3.181,182.03a.381.381,0,0,0,.521.1c1.182-.794,5.959-4.053,5.858-4.5s.489-.686-3.99-1.22l-3.7-.445c-.229,0-.553.152-.534.381A14.126,14.126,0,0,0,3.181,182.03Z" transform="translate(1.392 -63.094)"/>
            <path id="Path_5177" data-name="Path 5177" class="cls-3" d="M8.433,184.858a.381.381,0,0,0,.407-.343c.146-1.417.705-7.173.3-7.376s-.216-.82-3.494,2.274l-2.719,2.541c-.165.159-.235.521-.044.635A13.648,13.648,0,0,0,8.433,184.858Z" transform="translate(3.587 -61.589)"/>
            <path id="Path_5178" data-name="Path 5178" class="cls-3" d="M11.5,182.3a.362.362,0,0,0,0-.5c-.928-.985-4.72-4.955-5.121-4.79s-.718-.356-.521,3.933c.1,2.179.14,3.049.159,3.539,0,.222.229.5.438.438A13.349,13.349,0,0,0,11.5,182.3Z" transform="translate(8.195 -61.505)"/>
            <path id="Path_5179" data-name="Path 5179" class="cls-3" d="M13.651,176.085a.369.369,0,0,0-.413-.286c-1.334.21-6.753,1.118-6.842,1.537s-.7.394,2.961,2.643l3.018,1.855a.486.486,0,0,0,.635-.114A14.062,14.062,0,0,0,13.651,176.085Z" transform="translate(8.966 -63.349)"/>
            <path id="Path_5180" data-name="Path 5180" class="cls-3" d="M97.771,169.541l-.68,13.7s-.826,12.808,11.7,12.808c6.315,0,9.625-3.367,11.359-6.7a14.542,14.542,0,0,0,.159-13.087,10.642,10.642,0,0,0-7.179-5.94s-4.739-.8-7.414.635a.559.559,0,0,1-.813-.534l.083-1.271Z" transform="translate(147.248 -73.476)"/>
            <path id="Path_5181" data-name="Path 5181" class="cls-3" d="M121.02,184.816s2-10.349-8.259-14.256c-5.959-2.262-13.075,1.677-14.8,6.042l-.572,1.429" transform="translate(147.715 -72.328)"/>
            <path id="Path_5182" data-name="Path 5182" class="cls-3" d="M120.78,185.569s1.518-10.533-8.767-14.441c-5.953-2.268-12.782,2.459-14.32,6.232l-.565,1.429" transform="translate(147.32 -71.359)"/>
            <path id="Path_5183" data-name="Path 5183" class="cls-3" d="M106.863,172.37a.388.388,0,0,0-.527.076c-.864,1.131-4.352,5.718-4.11,6.137s-.248.807,4.168-.121l3.653-.762c.222-.051.47-.318.381-.534A14.111,14.111,0,0,0,106.863,172.37Z" transform="translate(155.068 -68.675)"/>
            <path id="Path_5184" data-name="Path 5184" class="cls-3" d="M101.005,171.675a.388.388,0,0,0-.267.457c.337,1.385,1.741,6.988,2.192,7.058s.47.693,2.541-3.323l1.7-3.323c.1-.2.044-.565-.172-.635A14.27,14.27,0,0,0,101.005,171.675Z" transform="translate(152.806 -69.962)"/>
            <path id="Path_5185" data-name="Path 5185" class="cls-3" d="M98.248,176.037a.362.362,0,0,0,.165.476c1.207.635,6.124,3.049,6.442,2.757s.8.089-.845-3.875c-.839-2.014-1.175-2.821-1.36-3.278-.083-.2-.381-.381-.565-.26A14.076,14.076,0,0,0,98.248,176.037Z" transform="translate(148.975 -69.407)"/>
            <path id="Path_5186" data-name="Path 5186" class="cls-3" d="M108.91,181.071a.381.381,0,0,1-.521.1c-1.182-.794-5.959-4.06-5.858-4.5s-.489-.692,3.99-1.22l3.7-.445c.229,0,.546.153.534.381A13.654,13.654,0,0,1,108.91,181.071Z" transform="translate(155.549 -64.555)"/>
            <path id="Path_5187" data-name="Path 5187" class="cls-3" d="M102.625,183.9a.375.375,0,0,1-.407-.343c-.152-1.417-.712-7.173-.3-7.376s.21-.82,3.494,2.274L108.12,181c.172.159.235.521.051.635A13.577,13.577,0,0,1,102.625,183.9Z" transform="translate(154.389 -63.05)"/>
            <path id="Path_5188" data-name="Path 5188" class="cls-3" d="M99.129,181.343a.362.362,0,0,1,0-.5c.928-.985,4.72-4.955,5.121-4.79s.718-.356.521,3.933c-.1,2.179-.14,3.049-.165,3.539,0,.222-.222.5-.438.438A13.927,13.927,0,0,1,99.129,181.343Z" transform="translate(150.216 -62.966)"/>
            <path id="Path_5189" data-name="Path 5189" class="cls-3" d="M97.963,175.126a.362.362,0,0,1,.413-.286c1.334.21,6.753,1.118,6.842,1.537s.693.394-2.961,2.643l-3.018,1.855a.484.484,0,0,1-.635-.114A13.8,13.8,0,0,1,97.963,175.126Z" transform="translate(148.454 -64.811)"/>
          </g>
          <g id="Frontal" transform="translate(21.155 0.378)">
            <g id="diagonal">
              <g id="estofamento" transform="translate(0 0.001)">
                <path id="Path_5190" data-name="Path 5190" class="cls-4" d="M86.27,5.046S55.985-2.577,49.841,1.66,41.8,14.786,41.163,20.084,41.8,51.85,31.208,60.528,8.127,75.356,8.546,88.907s.216,23.081,6.353,48.074c0,0,1.271,10.375.851,16.728s.419,51.46.419,51.46l5.432-2.7,1.607.889L24.8,230.676,27.415,257.2s4.765,16.836,8.418,21.365a28.9,28.9,0,0,1,4.765,7.783l27-7.306,99.794-.585,8.685-7.84s13.551-11.436,12.916-27.318-3.812-26.048-26.257-56.752,4.238-65.862,4.021-80.9S158.5,87.224,141.98,78.12s-23.29-18.214-28.589-42.14S105.965,11.825,86.27,5.046Z" transform="translate(-8.536 -0.378)"/>
                <path id="Path_5191" data-name="Path 5191" class="cls-4" d="M177.043,105.6a36.3,36.3,0,0,1,13.843.839c6.95,1.8,15.768,5.489,16.022,12.643.426,11.861-13.977,42.775-13.977,42.775L90.222,172.844s.426-9.11-3.177-12.071-12.071-22.236-15.031-25.838-20.756-16.721-20.756-16.721,8.894-2.338,45.742-4.447C126.371,112.07,163.27,107.42,177.043,105.6Z" transform="translate(56.544 159.434)"/>
                <path id="Path_5192" data-name="Path 5192" class="cls-4" d="M118.948,115.96s2.224,19.447-1.379,23.049-10.165,6.563-10.165,6.563S117.36,122.021,118.948,115.96Z" transform="translate(142.072 175.69)"/>
                <path id="Path_5193" data-name="Path 5193" class="cls-4" d="M83.612,113.016s18.532-8.361,30.387-9.1a44.586,44.586,0,0,1,20.648,3.6s-1.652-1.048-30.368,3.234Z" transform="translate(105.828 157.205)"/>
                <path id="Path_5194" data-name="Path 5194" class="cls-9" d="M88.013,42.092s-28.8,24.142-29.434,30.075,8.469,59.084,8.469,59.084l12.071,61.625L84,210.137s17.789-7.312,22.007-20.654,2.751-23.506-2.541-32.61S83.5,123.2,83.5,123.2,72.55,105.839,75.3,89.956,78.058,71.532,82.08,60.1,88.229,46.329,88.013,42.092Z" transform="translate(67.648 63.165)"/>
                <path id="Path_5195" data-name="Path 5195" class="cls-4" d="M45.438.531s-6.353,5.343-6.353,16.353-.845,29.224-4.873,34.942S11.557,68.179,13.037,84.862s6.988,40.844,9.1,55.272,6.048,45.533,7.052,54.637,4.6,28.163,4.6,28.163" transform="translate(-1.807 -0.145)"/>
                <path id="Path_5196" data-name="Path 5196" class="cls-4" d="M9.907,30.863S11.33,52.209,13.236,66.4s10.591,55.481,10.591,64.376,5.292,56.752,5.927,66.282,6.353,38.373,6.353,38.373" transform="translate(-6.447 46.059)"/>
                <path id="Path_5197" data-name="Path 5197" class="cls-9" d="M13.475,38s10,2.077,13.6,21.772,5.082,36.638,5.082,36.638l9.422,53.366,3.92,14.612-10.584,1.48-8.894-63.931S18.691,50.473,17.585,47.3,13.475,38,13.475,38Z" transform="translate(-1.013 56.925)"/>
                <path id="Path_5198" data-name="Path 5198" class="cls-9" d="M24.236,92.623S47.743,83.729,68.708,85a169.635,169.635,0,0,1,39.554,7.624c0-5.3,9.32-27.954,9.32-27.954S90.054,48.361,65.061,47.09,19.827,60.75,19.827,60.75" transform="translate(8.664 70.663)"/>
                <line id="Line_769" data-name="Line 769" class="cls-9" x2="83.854" transform="translate(38.135 192.929)"/>
                <path id="Path_5199" data-name="Path 5199" class="cls-9" d="M87.046,153.131s3.4-25.139,3.177-28.557-.337-11.944-17.153-13.418-21.81-.584-21.81-.584" transform="translate(56.544 167.076)"/>
                <line id="Line_770" data-name="Line 770" class="cls-10" x1="8.157" y2="20.463" transform="translate(111.45 192.929)"/>
                <line id="Line_771" data-name="Line 771" class="cls-10" x1="8.723" y2="21.715" transform="translate(100.91 192.929)"/>
                <path id="Path_5200" data-name="Path 5200" class="cls-4" d="M120.426,170.267s-4.657,1.321-27.528-1.144-58.658-5-58.658-5l-1.7-13.183-1.112-.953v-8.577l.953-1.747.318-23.03a34.823,34.823,0,0,1,28.748-9.371c18.106,2.224,40.768,25.095,40.768,25.095S113.812,154.8,117.249,158.2,120.426,170.267,120.426,170.267Z" transform="translate(26.341 162.011)"/>
                <line id="Line_772" data-name="Line 772" class="cls-10" x1="8.926" y2="22.223" transform="translate(88.197 192.929)"/>
                <line id="Line_773" data-name="Line 773" class="cls-10" x1="8.977" y2="22.357" transform="translate(75.637 192.929)"/>
                <line id="Line_774" data-name="Line 774" class="cls-10" x1="9.364" y2="23.316" transform="translate(62.741 192.929)"/>
                <line id="Line_775" data-name="Line 775" class="cls-10" x1="11.531" y2="28.722" transform="translate(48.065 192.929)"/>
                <line id="Line_776" data-name="Line 776" class="cls-10" x2="17.928" y2="20.832" transform="translate(38.669 195.972)"/>
                <line id="Line_777" data-name="Line 777" class="cls-10" x2="19.491" y2="22.357" transform="translate(49.99 192.929)"/>
                <line id="Line_778" data-name="Line 778" class="cls-10" x2="19.491" y2="22.35" transform="translate(63.719 193.063)"/>
                <line id="Line_779" data-name="Line 779" class="cls-10" x2="19.485" y2="22.357" transform="translate(77.454 193.19)"/>
                <line id="Line_780" data-name="Line 780" class="cls-10" x2="19.491" y2="22.357" transform="translate(91.183 193.317)"/>
                <line id="Line_781" data-name="Line 781" class="cls-10" x2="19.485" y2="22.357" transform="translate(104.919 193.444)"/>
              </g>
              <g id="braços" transform="translate(3.46)">
                <g id="almofadas" transform="translate(27.901)">
                  <path id="Path_5201" data-name="Path 5201" class="cls-9" d="M32.23,149.268,29.689,122.42l2.122-33.671,77.082-4.021,5.489,8.564a34.356,34.356,0,0,1,4.149,9.288l1.868,6.709a51.962,51.962,0,0,1,1.906,12.878c.089,4.352-.165,9.415-1.557,12.071-2.757,5.292-9.1,12.02-9.1,12.02l-30.361,1.5" transform="translate(-7.674 128.114)"/>
                  <path id="Path_5202" data-name="Path 5202" class="cls-3" d="M56.881,84.946S70.966,99.215,69.854,115.1,60.5,146.444,60.5,146.444" transform="translate(33.748 128.448)"/>
                  <path id="Path_5203" data-name="Path 5203" class="cls-9" d="M35.216,86.077s11.683,14.04,12.706,27.9a162.5,162.5,0,0,1,0,24.987" transform="translate(0.745 130.17)"/>
                  <path id="Path_5204" data-name="Path 5204" class="cls-9" d="M30.53,86.321S41.858,103.157,41.54,118.4a86.91,86.91,0,0,1-5.5,27.909" transform="translate(-6.393 130.542)"/>
                  <path id="Path_5205" data-name="Path 5205" class="cls-10" d="M51.757,85.213A56.708,56.708,0,0,1,73.993,98.034" transform="translate(25.943 128.854)"/>
                  <path id="Path_5206" data-name="Path 5206" class="cls-10" d="M46.087,85.6S67.11,92.268,86.36,114.72" transform="translate(17.306 129.449)"/>
                  <path id="Path_5207" data-name="Path 5207" class="cls-10" d="M40.687,85.8S70.858,97.14,90.3,133.022" transform="translate(9.079 129.748)"/>
                  <path id="Path_5208" data-name="Path 5208" class="cls-10" d="M39.146,92.7s12.992,9.72,34.434,42.775" transform="translate(6.732 140.264)"/>
                  <path id="Path_5209" data-name="Path 5209" class="cls-10" d="M40.42,101.516a82.665,82.665,0,0,1,10.508,13.926" transform="translate(8.672 153.688)"/>
                  <path id="Path_5210" data-name="Path 5210" class="cls-10" d="M36.507,86.077s33.671,15.247,53.131,58.645" transform="translate(2.712 130.17)"/>
                  <path id="Path_5211" data-name="Path 5211" class="cls-10" d="M78.436,91.837s-9.25,26.74-28.519,43.049" transform="translate(23.139 138.945)"/>
                  <path id="Path_5212" data-name="Path 5212" class="cls-10" d="M76.546,86.077S67.7,120.892,45.606,139.76" transform="translate(16.573 130.17)"/>
                  <path id="Path_5213" data-name="Path 5213" class="cls-10" d="M69.778,85.213S61.836,119.348,40.687,138.9" transform="translate(9.079 128.854)"/>
                  <path id="Path_5214" data-name="Path 5214" class="cls-10" d="M57.885,85.442c-2.7,8.456-8.259,22.985-17.433,35.615" transform="translate(8.722 129.203)"/>
                  <path id="Path_5215" data-name="Path 5215" class="cls-10" d="M47.653,85.6a124.117,124.117,0,0,1-8.507,17.941" transform="translate(6.732 129.449)"/>
                  <path id="Path_5216" data-name="Path 5216" class="cls-3" d="M43.4,33.181S45.254,46.522,46.842,48s25.2,11.016,26.785,10.165,1.061-5.718-.527-9.53-2.224-8.589-4.657-9.422c-1.989-.68-17.719-6.5-23.506-8.64A1.309,1.309,0,0,0,43.2,32.024Z" transform="translate(12.872 45.502)"/>
                  <path id="Path_5217" data-name="Path 5217" class="cls-3" d="M51.7,33.068s-6.614-.953-6.931,3.018,3.177,7.147,9.688,9.58,10.216,1.7,11.912-.368.527-4.606-2.6-6.671S55.669,33.811,51.7,33.068Z" transform="translate(15.265 49.268)"/>
                  <path id="Path_5218" data-name="Path 5218" class="cls-5" d="M45.017,33.551s12.89,5.19,13.894,7.471S58.225,46,58.225,46" transform="translate(15.676 50.157)"/>
                  <path id="Path_5219" data-name="Path 5219" class="cls-3" d="M28.1,32.438a4.727,4.727,0,0,0-3.812,2.706c-1.906,4.155-4.276,13.1-2.929,14.612,1.906,2.135,21.365-1.747,24.3-3.018s7.147-14.612,7.147-14.612.928-2.541-1.906-2.014C48.615,30.507,34.136,31.879,28.1,32.438Z" transform="translate(-20.965 44.809)"/>
                  <path id="Path_5220" data-name="Path 5220" class="cls-3" d="M26.213,34.773s-4.269,1.232-3.894,5.178,2.046,6.645,8.894,5.457,12-.877,15.019-8.1S47.356,30.5,47.356,30.5Z" transform="translate(-18.937 45.498)"/>
                  <path id="Path_5221" data-name="Path 5221" class="cls-5" d="M49.919,38.413,67.486,154.376l.311,1.455,7.1-.388-3.443-23.411L63.782,80.413l-4.5-27-2.77-15A12.071,12.071,0,0,1,49.919,38.413Z" transform="translate(23.143 57.563)"/>
                  <path id="Path_5222" data-name="Path 5222" class="cls-5" d="M24.234,36.588l6.595-.8.508,1.849L48.2,137.462l4.663,24.777-10.4.445L32.95,101.122l-7.624-45.3L23.1,38.144Z" transform="translate(-17.707 53.563)"/>
                  <path id="Path_5223" data-name="Path 5223" class="cls-5" d="M25.069,1.413l10.7,11.976,9.32,9.873,1.061-1.8L32.07.378Z" transform="translate(-14.712 -0.378)"/>
                  <path id="Path_5224" data-name="Path 5224" class="cls-5" d="M41.943,2.77,60.367,21.06l6.474-2.287L49.459,5.006A26.587,26.587,0,0,0,41.943,2.77Z" transform="translate(10.993 3.266)"/>
                  <path id="Path_5225" data-name="Path 5225" class="cls-3" d="M31.289,5.661s-7.414-.635-4.238,26.264-6.029,30.914-.794,37.483S51.4,62.2,63.69,63.69c7.84.947,18.526,6.467,25.622,10.165,4.015,2.1,6.874,3.615,7.414,3.386,1.48-.635,4.866-.635,5.082-12.916s.21-46.594-1.061-47.864-6.988-5.082-18,2.967-29.859-.635-36.638-5.292C44.63,13.113,39.548,4.39,31.289,5.661Z" transform="translate(-15.411 7.478)"/>
                  <path id="Path_5226" data-name="Path 5226" class="cls-3" d="M27.257,5.584s13.761,18.31,12.916,35.742-4.879,28.043-4.879,28.043" transform="translate(-11.379 7.554)"/>
                  <path id="Path_5227" data-name="Path 5227" class="cls-3" d="M58.946,9.245s2.922,38.462-1.906,49.211S50.262,68.2,50.262,68.2" transform="translate(23.665 13.13)"/>
                  <path id="Path_5228" data-name="Path 5228" class="cls-5" d="M30.44,31.545s4.13,3.316,2.935,6.55-7.065,5.146-7.065,5.146" transform="translate(-12.821 47.1)"/>
                </g>
                <path id="Path_5229" data-name="Path 5229" class="cls-4" d="M73.027,139.852l-27.522,2.814s-4.447,3.278-4.765,3.386-12.922.527-12.922.527l-1.906-2.6v-19.51H39.839l1,14.93,3.177-.108,8.627-1.067Z" transform="translate(14.474 188.647)"/>
                <line id="Line_782" data-name="Line 782" class="cls-4" x1="0.813" y1="3.253" transform="translate(59.96 327.756)"/>
                <path id="Path_5230" data-name="Path 5230" class="cls-4" d="M26.333,120.6V130.6H37.769V120.436Z" transform="translate(15.114 182.51)"/>
                <path id="Path_5231" data-name="Path 5231" class="cls-4" d="M51.471,93.217l-32.985.82,6.035,4.981,8.367,6.855,1.271,15.7L36.064,163l2.224.87,11.436-.159.953-.712.476-56.943,6.912-8.621L66.4,92.029Z" transform="translate(3.16 139.236)"/>
                <line id="Line_783" data-name="Line 783" class="cls-4" y1="1.582" x2="33.544" transform="translate(27.68 236.671)"/>
                <path id="Path_5232" data-name="Path 5232" class="cls-4" d="M106.376,132.333l-.769-23.83-15.355-10.6-7.941.559V92.321l2.44-2.643,50.926-2.757,16.416-.635,7.522,4.981v2.91l-14.936.635-7.465.635-14.771,12.306.635,23.03a43.931,43.931,0,0,0-16.7,1.55Z" transform="translate(100.386 130.488)"/>
                <line id="Line_784" data-name="Line 784" class="cls-4" x1="46.962" y2="2.459" transform="translate(190.637 225.916)"/>
                <line id="Line_785" data-name="Line 785" class="cls-4" y1="1.264" x2="32.871" transform="translate(197.346 232.065)"/>
                <path id="Path_5233" data-name="Path 5233" class="cls-4" d="M21.842,91.273,15.381,96.1v4.142L57.845,99.6l35.012-1.537L92.565,90.7l-5.921-2.948-27.528.623-17.376.553Z" transform="translate(-1.569 132.724)"/>
                <path id="Path_5234" data-name="Path 5234" class="cls-4" d="M14.081,83.156,9.907,94.166l5.082,42.356L9.907,149.7V188.3l2.541,6.035,25.146,2.859,12.706-.527L52,182.9l-2.116-6.035L38.49,164.316s-1.105-3.685-5.661-9.1l-7.522-20.05-2.446-24.777L21.121,81.345l-1.588-.87Z" transform="translate(-9.907 121.636)"/>
                <path id="Path_5235" data-name="Path 5235" class="cls-3" d="M16.575,80.467,11.836,92.538l5.559,42.2-3.812,1.8" transform="translate(-6.969 121.624)"/>
                <path id="Path_5236" data-name="Path 5236" class="cls-9" d="M10.429,87.335l3.551-2.084,3.653.483,5.927,42.134-6.035,12.35.591,2.9-3.132,2.224.743,18.742-1.747,1.061-1.328-.953-1.48-20.438" transform="translate(-9.113 128.912)"/>
                <path id="Path_5237" data-name="Path 5237" class="cls-3" d="M46.3,151.017l-10.8.635L31.049,136.7s-6.988-4.847-8.818-10.984-1.83-17.668-9-18.678" transform="translate(-4.849 162.095)"/>
                <path id="Path_5238" data-name="Path 5238" class="cls-3" d="M9.907,123.206,34.2,125.747l4.663,6.3" transform="translate(-9.907 186.729)"/>
                <path id="Path_5239" data-name="Path 5239" class="cls-4" d="M16.747,126.247s-1.747,6.7,4.708,8.259,18.742.718,18.742.718V126.94l-12.706.527Z" transform="translate(0.184 191.362)"/>
                <path id="Path_5240" data-name="Path 5240" class="cls-4" d="M34.745,133.176l-8.31,11.213-2.325-1.271,6.455-9.8Z" transform="translate(11.728 201.917)"/>
                <path id="Path_5241" data-name="Path 5241" class="cls-4" d="M32.539,137.243l-1.7-.21s-11.8,12.439-12.179,13.5a5.129,5.129,0,0,0,3.761,5.661c3.386.737,5.559.426,6.461,0s5.819-11.073,5.819-11.073l1.747-5.032L34.864,138.5Z" transform="translate(3.299 207.793)"/>
                <path id="Path_5242" data-name="Path 5242" class="cls-4" d="M19.912,155.705s-1.468-2.846.489-4.911,11.436-11.645,11.436-11.645l-2.224-2.116" transform="translate(4.528 207.793)"/>
                <line id="Line_786" data-name="Line 786" class="cls-4" x1="3.386" y1="0.953" transform="translate(36.365 346.942)"/>
                <path id="Path_5243" data-name="Path 5243" class="cls-4" d="M74.6,133.107l1.906,9.936H77.64l1.747,14.5s-2.783,3.285-11.118,3.526-9.733-.953-9.733-.953L58.1,146.3l.432-.635L55.8,131.608S72.221,133.488,74.6,133.107Z" transform="translate(59.999 199.528)"/>
              </g>
            </g>
          </g>
        </g>
      </g>
      <g id="Group_380" data-name="Group 380" transform="translate(8296 -577)">
        <g id="Ellipse_90-3" data-name="Ellipse 90" class="cls-11" transform="translate(209 1995)">
          <circle class="cls-12" cx="94.5" cy="94.5" r="94.5"/>
          <circle class="cls-13" cx="94.5" cy="94.5" r="94"/>
        </g>
        <g id="Ellipse_239-2" data-name="Ellipse 239" class="cls-11" transform="translate(209 1995)">
          <circle class="cls-12" cx="94.5" cy="94.5" r="94.5"/>
          <circle class="cls-13" cx="94.5" cy="94.5" r="94"/>
        </g>
      </g>
    </g>
  </g>
</svg>
