<svg xmlns="http://www.w3.org/2000/svg" viewBox="0 0 248.16 582.46"><defs><style>.cls-1,.cls-10,.cls-11,.cls-12,.cls-13,.cls-2,.cls-3,.cls-6,.cls-8,.cls-9{fill:none;}.cls-1,.cls-2,.cls-3,.cls-4,.cls-5,.cls-6{stroke:#000;}.cls-1,.cls-10,.cls-11,.cls-12,.cls-13,.cls-2,.cls-3,.cls-4,.cls-5,.cls-6,.cls-8,.cls-9{stroke-miterlimit:10;}.cls-1,.cls-2,.cls-3{stroke-width:2.95px;}.cls-2{stroke-dasharray:5.26 5.26;}.cls-3{stroke-dasharray:5.88 5.88;}.cls-4,.cls-5{fill:#fff;}.cls-4{stroke-width:1.87px;}.cls-5,.cls-6,.cls-8{stroke-width:2px;}.cls-6{stroke-dasharray:4;}.cls-15,.cls-7{fill:#fc0808;}.cls-10,.cls-11,.cls-12,.cls-13,.cls-8,.cls-9{stroke:#fc0808;}.cls-9{stroke-width:2.25px;}.cls-10{stroke-width:1.81px;}.cls-11{stroke-width:1.47px;}.cls-12{stroke-width:1.8px;}.cls-13{stroke-width:1.28px;}.cls-14{fill:#e6e6e6;}.cls-15{isolation:isolate;font-size:15px;font-family:Roboto-Medium, Roboto;}.cls-16{fill:#dedede;}</style></defs><title>100mm rev02</title><g id="Camada_2" data-name="Camada 2"><g id="Camada_1-2" data-name="Camada 1"><path class="cls-1" d="M97.85,208.73c-.84-.25-1.68-.53-2.49-.83l0-2.62"/><path class="cls-2" d="M95.43,200,96.86,18.19s-.5-6.94,7.6-7.16,28.1-.43,28.1-.43,6.8-1.52,7.1,9.11c.27,9.55,1.35,153.68,1.56,183.16"/><path class="cls-1" d="M141.24,205.5l0,2.62s-.93.22-2.56.53"/><path class="cls-3" d="M132.9,209.63c-8.25,1.2-21.2,2.31-32.19-.16"/><path class="cls-4" d="M108.66,130.44l-.12-7.25s1.22-2,8.82-1.74,8.9,1.66,8.9,1.66l.1,7.24Z"/><path class="cls-5" d="M78.56,210.05s.4-1.3,40.6-1.2,40.6,1.4,40.6,1.4l-38.41,13.07L79.76,211.85Z"/><path class="cls-5" d="M159.76,211.15,158.66,379l-3,11.4,1.2,140.5s-1.2,12.2-35.2,11.4-38.3-9.9-38.3-9.9L82.16,393l-2.1-10.8L78.56,211a246.38,246.38,0,0,0,38.4,2.9C146.86,213.85,146.86,213.25,159.76,211.15Z"/><path class="cls-4" d="M95.36,209.53l1.5-76.22s-.5-2.79,7.6-2.87,28.1-.18,28.1-.18,6.8-.61,7.1,3.66,1.6,75.69,1.6,75.69S113.46,212.23,95.36,209.53Z"/><path class="cls-6" d="M108.66,11.33,108.54,3s1.22-2.29,8.82-2,8.9,1.9,8.9,1.9l.1,8.3Z"/><polygon class="cls-7" points="211.66 541.4 202.36 522 220.96 522 211.66 541.4"/><line class="cls-8" x1="211.66" y1="522" x2="211.66" y2="212.07"/><line class="cls-8" x1="143.96" y1="208.92" x2="224.71" y2="208.92"/><polygon class="cls-7" points="211.66 209.43 220.96 228.73 202.36 228.73 211.66 209.43"/><polygon class="cls-7" points="27.85 118.41 36.25 101.01 19.55 101.01 27.85 118.41"/><line class="cls-8" x1="27.85" y1="104.71" x2="27.85" y2="27.51"/><line class="cls-8" x1="117.45" y1="10.52" x2="19.55" y2="10.52"/><line class="cls-9" x1="96.15" y1="118.31" x2="19.55" y2="118.31"/><polygon class="cls-7" points="27.85 11.33 19.55 28.53 36.25 28.53 27.85 11.33"/><line class="cls-10" x1="82.56" y1="542.24" x2="238.66" y2="542.34"/><polygon class="cls-7" points="94.82 181.13 112.02 172.83 112.02 189.33 94.82 181.13"/><polygon class="cls-7" points="142.14 181.13 124.94 189.33 124.94 172.83 142.14 181.13"/><line class="cls-11" x1="97.46" y1="181.32" x2="141.06" y2="181.32"/><line class="cls-8" x1="95.36" y1="172.83" x2="95.36" y2="195.08"/><line class="cls-8" x1="142.14" y1="172.83" x2="142.14" y2="195.08"/><polygon class="cls-7" points="78.56 340.17 95.86 331.87 95.86 348.37 78.56 340.17"/><line class="cls-12" x1="87.26" y1="340.07" x2="152.76" y2="340.07"/><line class="cls-13" x1="158.76" y1="321.52" x2="158.76" y2="349.37"/><line class="cls-13" x1="79.56" y1="321.52" x2="79.56" y2="349.37"/><polygon class="cls-7" points="158.94 340.07 141.84 348.37 141.84 331.77 158.94 340.07"/><rect class="cls-14" x="175.16" y="365.85" width="73" height="19.03"/><text class="cls-15" transform="translate(185.39 381.25)">195 mm</text><rect class="cls-14" x="88.33" y="544.13" width="61.67" height="19.03"/><text class="cls-15" transform="translate(97.86 328.02)">50 mm</text><text class="cls-15" transform="translate(96.53 558.02)">44 mm</text><rect class="cls-16" x="138.72" y="153.04" width="50.99" height="19.03"/><text class="cls-15" transform="translate(97.86 166.03)">28 mm</text><rect class="cls-16" y="50.97" width="63.5" height="19.03"/><text class="cls-15" transform="translate(4.81 66.36)">100 mm</text><polygon class="cls-7" points="208.71 191 192.01 191 200.41 208.4 208.71 191"/><line class="cls-8" x1="200.41" y1="123.95" x2="200.41" y2="201.15"/><line class="cls-8" x1="211.66" y1="120.65" x2="113.76" y2="120.65"/><polygon class="cls-7" points="192.06 137.85 208.76 137.85 200.46 120.65 192.06 137.85"/><rect class="cls-16" x="173.59" y="153.04" width="60.37" height="19.03"/><text class="cls-15" transform="translate(178.4 168.43)">56 mm</text><polygon class="cls-7" points="82.06 573.26 99.26 564.96 99.26 581.46 82.06 573.26"/><line class="cls-10" x1="90.66" y1="573.16" x2="156.26" y2="573.16"/><line class="cls-10" x1="156.26" y1="524.16" x2="156.26" y2="582.46"/><line class="cls-10" x1="83.06" y1="524.16" x2="83.06" y2="582.46"/><polygon class="cls-7" points="156.26 573.16 139.06 581.46 139.06 564.96 156.26 573.16"/></g></g></svg>