<svg id="Camada_1" data-name="Camada 1" xmlns="http://www.w3.org/2000/svg" viewBox="0 0 448.48 375.51"><defs><style>.cls-1{fill:#fff;}.cls-1,.cls-2,.cls-3,.cls-4,.cls-5,.cls-6,.cls-8{stroke:#1d1d1b;}.cls-1,.cls-10,.cls-11,.cls-12,.cls-2,.cls-3,.cls-8{stroke-miterlimit:10;}.cls-1,.cls-2{stroke-width:2px;}.cls-10,.cls-11,.cls-12,.cls-2,.cls-3,.cls-4,.cls-5,.cls-6,.cls-8{fill:none;}.cls-3{stroke-width:1.03px;}.cls-4,.cls-5,.cls-6{stroke-linecap:round;stroke-linejoin:round;}.cls-4{stroke-width:2.09px;}.cls-5{stroke-width:2.29px;}.cls-7{fill:#686868;}.cls-8{stroke-width:1.4px;}.cls-14,.cls-9{fill:#dd0613;}.cls-10,.cls-11,.cls-12{stroke:#dd0613;}.cls-10{stroke-width:1.8px;}.cls-11{stroke-width:1.88px;}.cls-12{stroke-width:1.81px;}.cls-13{fill:#e0e0e0;}.cls-14{isolation:isolate;font-size:12.97px;font-family:Roboto-Medium, Roboto;}</style></defs><title>Medida frontal </title><rect class="cls-1" x="52.97" y="24.94" width="260.41" height="279.06"/><path class="cls-2" d="M299.58,54.46V270.08a9.41,9.41,0,0,1-9.42,9.41H74.55a9.41,9.41,0,0,1-9.41-9.41V54.46A9.41,9.41,0,0,1,74.55,45H290.16A9.42,9.42,0,0,1,299.58,54.46Z"/><path class="cls-3" d="M245.4,279.49a133.06,133.06,0,0,0,54.18-52"/><path class="cls-3" d="M247.09,45a133.11,133.11,0,0,1,52.49,51.08"/><path class="cls-3" d="M65.14,104.47A133,133,0,0,1,122,45"/><path class="cls-3" d="M65.14,219.18a133,133,0,0,0,58.56,60.31"/><path class="cls-4" d="M72.13,55.18v1.08s1.73-.34,2.4.37.54,2.47.54,2.47h2s-.1-2.17.85-2.54a7.59,7.59,0,0,1,2.26-.38v-2a7.59,7.59,0,0,1-2.26-.38c-.95-.37-.85-2.53-.85-2.53h-2a4,4,0,0,1-.54,2.46c-.67.71-2.4.37-2.4.37Z"/><circle class="cls-5" cx="76.14" cy="54.82" r="6.81"/><path class="cls-6" d="M93,33.61v.84s1.33-.26,1.85.28.42,1.91.42,1.91h1.52s-.08-1.67.65-2a5.82,5.82,0,0,1,1.75-.3V32.84a5.82,5.82,0,0,1-1.75-.3c-.73-.29-.65-2-.65-2H95.29s.11,1.36-.42,1.91-1.85.29-1.85.29Z"/><circle class="cls-6" cx="96.11" cy="33.33" r="5.26"/><path class="cls-4" d="M286.56,54.54v1.08s1.73-.33,2.4.38a4,4,0,0,1,.54,2.46h2s-.1-2.16.85-2.53a7.76,7.76,0,0,1,2.26-.39v-2a7.59,7.59,0,0,1-2.26-.38c-.95-.38-.85-2.54-.85-2.54h-2s.14,1.76-.54,2.47-2.4.37-2.4.37Z"/><circle class="cls-5" cx="290.57" cy="54.18" r="6.81"/><path class="cls-4" d="M286.56,270.15v1.08s1.73-.34,2.4.37.54,2.47.54,2.47h2s-.1-2.16.85-2.53a7.4,7.4,0,0,1,2.26-.39v-2a7.4,7.4,0,0,1-2.26-.39c-.95-.37-.85-2.53-.85-2.53h-2s.14,1.76-.54,2.47-2.4.37-2.4.37Z"/><circle class="cls-5" cx="290.57" cy="269.79" r="6.81"/><path class="cls-4" d="M71.46,269.79v1.08s1.72-.33,2.4.38a4.06,4.06,0,0,1,.54,2.46h2s-.1-2.16.84-2.53a7.81,7.81,0,0,1,2.27-.39v-2a7.64,7.64,0,0,1-2.27-.38c-.94-.38-.84-2.54-.84-2.54h-2a4.08,4.08,0,0,1-.54,2.47c-.68.71-2.4.37-2.4.37Z"/><circle class="cls-5" cx="75.46" cy="269.43" r="6.81"/><path class="cls-6" d="M275.41,33.61v.84s1.33-.26,1.86.28a3.12,3.12,0,0,1,.41,1.91h1.52s-.08-1.67.65-2a5.82,5.82,0,0,1,1.75-.3V32.84a5.82,5.82,0,0,1-1.75-.3c-.73-.29-.65-2-.65-2h-1.52a3.12,3.12,0,0,1-.41,1.91c-.53.55-1.86.29-1.86.29Z"/><circle class="cls-6" cx="278.51" cy="33.33" r="5.26"/><path class="cls-6" d="M275.41,289.29v.83s1.33-.26,1.86.29a3.12,3.12,0,0,1,.41,1.91h1.52s-.08-1.68.65-2a5.82,5.82,0,0,1,1.75-.3v-1.55a6,6,0,0,1-1.75-.29c-.73-.29-.65-2-.65-2h-1.52s.11,1.36-.41,1.9-1.86.29-1.86.29Z"/><circle class="cls-6" cx="278.51" cy="289.01" r="5.26"/><path class="cls-6" d="M77.86,289.56v.84s1.33-.26,1.85.29.42,1.9.42,1.9h1.52s-.08-1.67.65-2a6,6,0,0,1,1.75-.29v-1.55a5.82,5.82,0,0,1-1.75-.3c-.73-.28-.65-1.95-.65-1.95H80.13a3,3,0,0,1-.42,1.9c-.52.55-1.85.29-1.85.29Z"/><circle class="cls-6" cx="80.95" cy="289.29" r="5.26"/><path class="cls-7" d="M182,129.85s-13.79-34.07-26.77-48.27S137,67,139.39,64.54,165,53.59,180,54.81a129.59,129.59,0,0,1,21,3.39A5.49,5.49,0,0,1,205,63.08c1,12.29,3.73,51.44-.33,74.48C204.7,137.56,197,131.07,182,129.85Z"/><path class="cls-7" d="M207.91,140.83s23.39-31.8,28.4-50.37,2.52-23.24,5.88-22.49,22.95,15.68,30,29a128.76,128.76,0,0,1,8.39,19.51,5.5,5.5,0,0,1-1.91,6.09c-9.83,7.45-41.4,30.77-63,39.7C215.65,162.26,214.94,154.15,207.91,140.83Z"/><path class="cls-7" d="M215.57,167.14S252,162,268.89,152.89s18.6-14.16,20.37-11.21,4.42,27.45-.41,41.71a128.6,128.6,0,0,1-8.37,19.51,5.51,5.51,0,0,1-5.73,2.81c-12.17-2-50.82-8.87-72.17-18.4C202.58,187.31,210.74,181.41,215.57,167.14Z"/><path class="cls-7" d="M200.61,188.51S226,219,242.33,229.15s21.51,9.17,19.81,12.17-21.67,17.41-36.46,20.26a128.48,128.48,0,0,1-21.1,2.36,5.49,5.49,0,0,1-5.27-3.6c-4.27-11.57-17.4-48.55-19.67-71.83C179.64,188.51,185.83,191.36,200.61,188.51Z"/><path class="cls-7" d="M172.84,191.65s-4.12,39.37.22,58.11,8.74,21.69,5.42,22.61-27.64-3-40.12-11.43a128.24,128.24,0,0,1-16.59-13.24,5.49,5.49,0,0,1-1.19-6.27c5.15-11.2,22-46.65,36.84-64.72C157.42,176.71,160.36,183.22,172.84,191.65Z"/><path class="cls-7" d="M152.14,170.67S120.26,189,108,203.75s-12,20.06-14.73,18S78.9,197.9,78.07,182.87a128,128,0,0,1,.52-21.23,5.49,5.49,0,0,1,4.27-4.74c12-2.67,50.46-10.68,73.83-9.78C156.69,147.12,151.31,155.64,152.14,170.67Z"/><path class="cls-7" d="M158.62,140.83s-35.29-10.26-54.48-8.86S81.37,137.26,81,133.85,88.19,107,98.44,96a127.55,127.55,0,0,1,15.64-14.36,5.48,5.48,0,0,1,6.38-.21c10.27,6.81,43.61,30.33,59.18,47.78C179.64,129.18,168.87,129.8,158.62,140.83Z"/><circle class="cls-8" cx="183.63" cy="160.9" r="31.52"/><circle class="cls-8" cx="183.63" cy="160.9" r="38.91"/><circle class="cls-8" cx="183.63" cy="160.9" r="48.04"/><circle class="cls-8" cx="183.63" cy="160.9" r="59.31"/><circle class="cls-8" cx="183.63" cy="160.9" r="73.22"/><circle class="cls-8" cx="183.63" cy="160.9" r="90.4"/><circle class="cls-8" cx="183.63" cy="160.9" r="111.6"/><line class="cls-2" x1="78.93" y1="59.82" x2="159.64" y2="139.73"/><line class="cls-2" x1="205.3" y1="139.73" x2="285.95" y2="59.18"/><line class="cls-2" x1="209.94" y1="190.02" x2="285.89" y2="264.15"/><line class="cls-2" x1="155.59" y1="190.02" x2="80.34" y2="264.04"/><circle class="cls-1" cx="184.17" cy="160.58" r="32.12"/><polygon class="cls-9" points="394.41 304.15 387.43 289.56 401.4 289.56 394.41 304.15"/><line class="cls-10" x1="394.41" y1="292.32" x2="394.41" y2="31.99"/><line class="cls-11" x1="321.47" y1="24.48" x2="408.38" y2="24.48"/><line class="cls-12" x1="319.04" y1="304" x2="402.83" y2="304"/><polygon class="cls-9" points="394.41 24.75 401.4 39.23 387.43 39.23 394.41 24.75"/><rect class="cls-13" x="366.28" y="149.89" width="54.93" height="14.26"/><text class="cls-14" transform="translate(375.2 161.43)">150mm</text><polygon class="cls-9" points="53.34 353.13 67.93 346.14 67.93 360.11 53.34 353.13"/><line class="cls-10" x1="55.44" y1="353.12" x2="309.02" y2="353.12"/><line class="cls-12" x1="52.97" y1="311.89" x2="52.97" y2="363.98"/><line class="cls-12" x1="313.37" y1="312.19" x2="313.37" y2="364.28"/><polygon class="cls-9" points="311.86 353.13 297.37 360.11 297.37 346.14 311.86 353.13"/><rect class="cls-13" x="163.18" y="333.27" width="54.93" height="14.26"/><text class="cls-14" transform="translate(172.11 344.8)">140mm</text></svg>