<svg xmlns="http://www.w3.org/2000/svg" viewBox="0 0 534.81 387.4"><defs><style>.cls-1{fill:#fff;}.cls-2{fill:#e6e6e6;}.cls-10,.cls-11,.cls-3,.cls-4,.cls-5,.cls-6,.cls-7,.cls-8,.cls-9{fill:none;stroke:#000;stroke-miterlimit:10;}.cls-3,.cls-5,.cls-6{stroke-width:0.96px;}.cls-11,.cls-3{opacity:0.49;}.cls-4,.cls-5{opacity:0.4;}.cls-7{stroke-width:2px;}.cls-9{stroke-width:0.53px;}.cls-10,.cls-11{stroke-width:0.5px;}</style></defs><title>braço esquerdo_1</title><g id="Camada_2" data-name="Camada 2"><g id="Camada_1-2" data-name="Camada 1"><path class="cls-1" d="M524.81,49.46c2.18-7,5.76-18.93,10-34-19-3.91-37.89-8.59-57-12.27A497.18,497.18,0,0,0,423.3,0c-9.78,23.57-21.77,50.79-22.38,55.35C395.82,54,392,53.14,392,53.14s5.52-10,2.62-11.81a15.69,15.69,0,0,0-7.83-1.53S401.4,24,393,16.88h.86l-1.4-.33c-9.11-7-38.87-13.64-80.39-14.39-42.17-.77-103.68,4.29-129,10.12s-85,16.88-94.17,27.46a19.7,19.7,0,0,0-4.59,8,9.08,9.08,0,0,0,1.84,8.65S89.56,67.5,91.4,68.57c.15,2.44,1.68,5.81,2.76,6.12s4.07,2.38,4.38,3.69l2-.17A197.56,197.56,0,0,0,72.63,88.89C48,99.45,41.1,108.85,39.5,114.65a8.66,8.66,0,0,0,.15,6s4.84,16.45,13.12,18.3c1,2.19,2.41,5.17,2.41,5.17s12.07,4.49,7.93,15.07c-3.92,6-6.48,9.53-7.6,14.61a34.14,34.14,0,0,0-.68,7.81c.11,10.36,7.71,30.26,14.61,44.06l1.72,3.37s-4.42,1.56-14.08,9.61a68.88,68.88,0,0,0-8.56,9.81c-12.9,16.84-33,48.11-40.92,58.06C-2.52,319.19,1.16,341,3.7,352.78s13.58,28,20,33.13S97.42,374.26,104.32,373c4.33-.7,42.81-5.08,69.94-8.06,0,0,5.22-.43,13.19-1.37,3.33-.39,8.9-2,13.41-1.57,36,3.33,76.06-1.75,124.25.4,23.09,1,21.64,3.27,64.66,8.06,47.7,3.81,77.48.35,84.33-8,9.61-11.84,1.84-48,1.84-48l2.1,1.46q2.2,1.14,4.34,2c21.5,9,36-.5,41.51-12.15,6-12.42-3.69-53.37-14.27-85.58S516.06,77.53,524.81,49.46Z"/><polygon class="cls-2" points="337.55 208.76 367.13 211.08 409.22 175.41 402.69 133.83 337.55 208.76"/><polygon class="cls-2" points="259.05 126.78 202.55 137.42 166.68 147.38 202.55 203.95 312.72 208.04 384.39 123.01 327.56 121.3 259.05 126.78"/><polygon class="cls-2" points="105.43 184.19 111.41 170.84 133.42 159.34 159.5 206.37 115.79 213.71 105.43 184.19"/><path class="cls-3" d="M533.47,19.36c-7,24.4-14.54,48.06-18.13,73.27-3.69,26-7.46,51.6-8.88,77.83-.72,13.3-1,26.72,1.09,39.91,2.07,12.72,7,25,10.27,37.4a301.75,301.75,0,0,1,7.64,37.41c1.59,11.85.18,23.26-10.09,30.69-18.72,13.53-40.72.82-54.25-13.77q-2.72-2.94-5.2-6.07"/><path class="cls-3" d="M400.42,55.41c5.12-17.57,14.12-34.57,21.41-53"/><path class="cls-4" d="M321.74,361.87c87.13,14.43,142.55,12.39,152.16.55s1.84-48,1.84-48"/><path class="cls-5" d="M70.71,229.13s-4.39,1.51-14.06,9.61S17.3,293.94,7.18,306.58s-6.44,34.49-3.9,46.23,13.58,28,20,33.13,73.7-11.61,80.6-12.88,97-11,97-11"/><path class="cls-5" d="M116.56,214.17s1.46-2.36,57.9-8.3,212.45,8.3,212.45,8.3"/><path class="cls-6" d="M413.29,188.88c-10.11-25.69-10.75-55.47-10.75-55.47"/><path class="cls-6" d="M435.32,254.11c-6-11.08-11.67-34-11.67-34"/><path class="cls-4" d="M99.7,281.75S82.11,288,49.9,300.16s-40.09,3-40.09,3"/><path class="cls-4" d="M334.26,265.21c-123.94-14.1-181.88,4.8-181.88,4.8"/><path class="cls-5" d="M411.3,272.7c-9.33-2-38.12-4-38.12-4"/><line class="cls-6" x1="202.81" y1="204.41" x2="166.92" y2="147.84"/><line class="cls-6" x1="160.09" y1="207.43" x2="134.23" y2="159.56"/><path class="cls-7" d="M202.11,362.48c165.83,5.63,175.42-11.91,175.42-11.91s47-31.16,63.5-42.44,48.09-44.41,48.09-44.41,8.39-9.08,11.61-29.1-21.05-73.51-21.05-73.51"/><path class="cls-7" d="M389.23,253c-16.1,14-58.43,61.66-58.43,61.66s-12.28,16.38,12.88,4.45,96.66-69,96.66-69,12.32-9.77,14.16-22-4.6-34.29-4.6-34.29S405.34,239.07,389.23,253Z"/><path class="cls-7" d="M202.84,362.42s-36.49-7.08-58.89-21.2S75.89,239.57,69,225.76s-14.5-33.7-14.61-44.06,2.65-13.8,8.28-22.43c4.14-10.59-7.93-15.08-7.93-15.08s-1.38-3-2.41-5.17C44,137.18,39.2,120.73,39.2,120.73S31.51,106.35,72.11,89c40-19.57,121.26-31.77,182.45-37.51s137,1.84,137,1.84S422.07,59.9,426,67s-2.61,26.54-2.61,26.54,36.92,8,49.58,14.12,20.6,19.51,16,37-38.78,48.54-38.78,48.54"/><path class="cls-7" d="M119.49,166.08s-18.63,6.44-11.73,27.82c4.15,19.55,44.16,75.71,54.91,90.72s31.6,24.24,40.34,25.92,43.73,4.25,60.63,3.79,27-8.39,34.62-14.83S408.93,192.75,408.93,192.75s23-19.79,29.91-31.64c-1.5-18.76-21.74-34.29-21.74-34.29C242.6,103.92,119.49,166.08,119.49,166.08Z"/><path class="cls-8" d="M475.22,167.13s18.65,44.63,18.65,70.4-71.84,77.28-104,97.84-60.42,20.24-60.42,20.24-98.76-1.53-134-5.21-53.06-27-65.65-40.49-49.08-79.75-49.08-79.75-26.08-46-7.37-65,127.9-43.55,199.28-57.06,165.15,1.53,192.15,8,16.87,21.79,14.11,31.6S336.47,292.74,336.47,292.74"/><path class="cls-7" d="M423.65,92.84s-4.8,4.42-17.32,3C247,62.68,52.35,139,52.35,139"/><path class="cls-9" d="M39.08,114.71c13.87.66,63.18-22,121.16-38.84S279.63,57,313.46,56.55s111.35,8.94,111.35,8.94"/><path class="cls-10" d="M400.35,98.93c-17.63-.68-101.39-.84-145.11,3.69S121.11,134.44,93.74,144s-38.65,29.93-38.65,29.93"/><path class="cls-10" d="M399.21,98.6S368.84,94,289.31,96.34c-75,2.3-168.4,28.07-197.85,37.27s-35.3,11.23-35.3,11.23"/><path class="cls-8" d="M98,78.45c-.3-1.31-3.3-3.39-4.36-3.68S91.05,71,90.9,68.64c-1.84-1.09-5.2-12.13-5.2-12.13s-6.45-6.11,2.76-16.69,68.87-21.63,94.18-27.46,86.79-10.9,129-10.13S383.86,9.91,392.45,17s-6.12,23-6.12,23a15.78,15.78,0,0,1,7.82,1.53c2.91,1.84-2.62,11.82-2.62,11.82"/><path class="cls-9" d="M83.87,47.86a581.4,581.4,0,0,1,88-28.6c50-12,103.6-12.08,141.33-12.42S393.41,17,393.41,17"/><path class="cls-8" d="M90.92,68.64c47.4-23.15,148.57-36.37,175.31-37.36C304.57,29.84,386.33,40,386.33,40"/><path class="cls-9" d="M376.64,44.57C273.58,23.4,192.7,47.79,162.34,52.74S94.48,74.25,94.48,74.25"/><circle class="cls-10" cx="465.08" cy="136.24" r="7.16"/><circle class="cls-10" cx="479.38" cy="241.08" r="7.16"/><circle class="cls-10" cx="359.64" cy="342.62" r="7.16"/><circle class="cls-10" cx="188.99" cy="337.98" r="7.16"/><line class="cls-6" x1="337.79" y1="210.21" x2="408.95" y2="125.81"/><line class="cls-6" x1="312.98" y1="208.5" x2="384.65" y2="123.47"/><line class="cls-6" x1="367.39" y1="212.49" x2="408.95" y2="175.7"/><path class="cls-3" d="M429.61,94.9c6.93-31.06,19.93-60.06,29.33-90.39"/><path class="cls-5" d="M426.54,176.07c-2.89-13.6-2.89-43.34-2.89-43.34"/><path class="cls-5" d="M446.81,243.62c-3.72-7.75-12.24-34.33-12.24-34.33"/><path class="cls-5" d="M482.16,317.83C469,299.29,467.84,285,467.84,285"/><path class="cls-11" d="M430.6,2.22c-8.06,18.62-17.06,36.62-26.55,54.31"/><path class="cls-11" d="M418.06,61.44c9-18.64,15.12-38.44,21.73-58"/><path class="cls-4" d="M125.29,229.13s28.58-2.67,70.82-2.67c41.61-10.19,178.12,0,178.12,0"/><path class="cls-8" d="M415.42,228.23c4,.11,10.66.88,10.66.88"/><path class="cls-4" d="M88.57,262.32c-34.57.79-70.72,29.44-70.72,29.44"/><path class="cls-4" d="M344.47,255.3c-103.91-9.9-135.51-1.85-150.24-.23S143,256.41,143,256.41"/><path class="cls-4" d="M424.81,262.28c-15.29-2.26-40.91-4.4-40.91-4.4"/><line class="cls-10" x1="188.62" y1="255.54" x2="196.13" y2="226.46"/></g></g></svg>