<svg xmlns="http://www.w3.org/2000/svg" viewBox="0 0 534.81 387.4"><defs><style>.cls-1{fill:#fff;}.cls-2{fill:#e6e6e6;}.cls-10,.cls-11,.cls-3,.cls-4,.cls-5,.cls-6,.cls-7,.cls-8,.cls-9{fill:none;stroke:#000;stroke-miterlimit:10;}.cls-3,.cls-5,.cls-6{stroke-width:0.96px;}.cls-11,.cls-3{opacity:0.49;}.cls-4,.cls-5{opacity:0.4;}.cls-7{stroke-width:2px;}.cls-9{stroke-width:0.53px;}.cls-10,.cls-11{stroke-width:0.5px;}</style></defs><title>braço direito _1</title><g id="Camada_2" data-name="Camada 2"><g id="Camada_1-2" data-name="Camada 1"><path class="cls-1" d="M10,49.46c-2.18-7-5.76-18.93-10-34C19,11.5,37.89,6.82,57,3.14A497.36,497.36,0,0,1,111.51,0c9.78,23.57,21.76,50.79,22.38,55.35,5.09-1.38,8.9-2.21,8.9-2.21s-5.52-10-2.61-11.81A15.65,15.65,0,0,1,148,39.8S133.41,24,141.78,16.88h-.86l1.4-.33c9.11-7,38.87-13.64,80.39-14.39,42.17-.77,103.68,4.29,129,10.12s85,16.88,94.18,27.46a19.79,19.79,0,0,1,4.58,8,9.05,9.05,0,0,1-1.84,8.65s-3.36,11.06-5.2,12.13c-.15,2.44-1.68,5.81-2.77,6.12s-4.06,2.38-4.38,3.69l-2-.17a198,198,0,0,1,27.92,10.68c24.66,10.56,31.53,20,33.13,25.76a8.66,8.66,0,0,1-.15,6S490.32,137.12,482,139c-1,2.19-2.41,5.17-2.41,5.17s-12.08,4.49-7.94,15.07c3.92,6,6.48,9.53,7.61,14.61a34.71,34.71,0,0,1,.68,7.81c-.11,10.36-7.72,30.26-14.62,44.06l-1.71,3.37s4.42,1.56,14.08,9.61a69.51,69.51,0,0,1,8.56,9.81c12.9,16.84,33,48.11,40.91,58.06,10.13,12.65,6.45,34.5,3.91,46.24s-13.59,28-20,33.13-73.69-11.65-80.6-12.89c-4.32-.7-42.81-5.08-69.93-8.06,0,0-5.22-.43-13.2-1.37-3.32-.39-8.89-2-13.4-1.57-36,3.33-76.06-1.75-124.25.4-23.09,1-21.65,3.27-64.66,8.06-47.71,3.81-77.49.35-84.33-8-9.61-11.84-1.84-48-1.84-48l-2.1,1.46q-2.21,1.14-4.35,2c-21.49,9-36-.5-41.5-12.15-6-12.42,3.68-53.37,14.27-85.58S18.74,77.53,10,49.46Z"/><polygon class="cls-2" points="132.12 133.83 125.58 175.41 167.68 211.08 197.25 208.76 132.12 133.83"/><polygon class="cls-2" points="207.25 121.3 150.41 123.01 222.08 208.04 332.26 203.95 368.13 147.38 332.26 137.42 275.75 126.78 207.25 121.3"/><polygon class="cls-2" points="419.02 213.71 375.31 206.37 401.39 159.34 423.4 170.84 429.38 184.19 419.02 213.71"/><path class="cls-3" d="M1.33,19.36c7,24.4,14.55,48.06,18.14,73.27,3.69,26,7.46,51.6,8.88,77.83.72,13.3,1,26.72-1.1,39.91-2.06,12.72-6.95,25-10.26,37.4a301.75,301.75,0,0,0-7.64,37.41C7.76,297,9.16,308.44,19.44,315.87c18.71,13.53,40.72.82,54.25-13.77q2.72-2.94,5.2-6.07"/><path class="cls-3" d="M134.38,55.41c-5.12-17.57-14.12-34.57-21.41-53"/><path class="cls-4" d="M59.07,314.38s-7.77,36.21,1.84,48,65,13.88,152.15-.55"/><path class="cls-5" d="M334,362s90.06,9.77,97,11,74.15,18,80.59,12.88,17.49-21.38,20-33.13,6.22-33.58-3.9-46.23-39.81-59.74-49.48-67.84-14.06-9.61-14.06-9.61"/><path class="cls-5" d="M147.89,214.17s156-14.25,212.45-8.3,57.91,8.3,57.91,8.3"/><path class="cls-6" d="M132.27,133.41s-.65,29.78-10.75,55.47"/><path class="cls-6" d="M111.16,220.15s-5.65,22.88-11.67,34"/><path class="cls-4" d="M525,303.16s-7.88,9.2-40.09-3-49.81-18.41-49.81-18.41"/><path class="cls-4" d="M382.43,270s-57.94-18.9-181.88-4.8"/><path class="cls-5" d="M161.62,268.67s-28.78,2-38.11,4"/><line class="cls-6" x1="367.89" y1="147.84" x2="332" y2="204.41"/><line class="cls-6" x1="400.58" y1="159.56" x2="374.72" y2="207.43"/><path class="cls-7" d="M55.13,161.11s-24.28,53.48-21.06,73.51,11.62,29.1,11.62,29.1,31.64,33.12,48.09,44.41,63.5,42.44,63.5,42.44,9.59,17.54,175.42,11.91"/><path class="cls-7" d="M84.91,193.89s-6.44,22.08-4.6,34.29,14.15,22,14.15,22,71.51,57.06,96.67,69S204,314.68,204,314.68,161.68,267,145.57,253,84.91,193.89,84.91,193.89Z"/><path class="cls-7" d="M84.58,193.19s-34.18-31-38.78-48.54,3.33-30.94,16-37S111.38,93.5,111.38,93.5,104.79,74,108.76,67s34.51-13.65,34.51-13.65,75.78-7.58,137-1.84S422.66,69.41,462.69,89c40.61,17.37,32.91,31.75,32.91,31.75s-4.82,16.45-13.1,18.29c-1,2.19-2.41,5.17-2.41,5.17s-12.08,4.49-7.94,15.08c5.64,8.63,8.4,12.07,8.29,22.43s-7.72,30.26-14.62,44.06-52.56,101.34-75,115.46-58.9,21.2-58.9,21.2"/><path class="cls-7" d="M117.71,126.82S97.46,142.35,96,161.11c6.9,11.85,29.91,31.64,29.91,31.64S229,293.05,236.55,299.5s17.72,14.37,34.62,14.83,51.88-2.12,60.63-3.79,29.59-10.9,40.34-25.92S422.9,213.45,427,193.9c6.9-21.38-11.72-27.82-11.72-27.82S292.21,103.92,117.71,126.82Z"/><path class="cls-8" d="M198.34,292.74S58.77,157.46,56,147.65s-12.88-25.16,14.12-31.6,120.78-21.48,192.15-8,180.55,38,199.27,57.06-7.36,65-7.36,65-36.5,66.26-49.09,79.75-30.36,36.81-65.65,40.49-134,5.21-134,5.21-28.22.32-60.43-20.24-104-72.08-104-97.84,18.64-70.4,18.64-70.4"/><path class="cls-7" d="M482.46,139s-194.69-76.34-354-43.21c-12.51,1.45-17.31-3-17.31-3"/><path class="cls-9" d="M110,65.49s77.52-9.4,111.35-8.94,95.24,2.54,153.22,19.32,107.28,39.5,121.16,38.84"/><path class="cls-10" d="M479.72,173.88S468.44,153.47,441.07,144s-117.8-36.81-161.51-41.33-127.47-4.37-145.1-3.69"/><path class="cls-10" d="M478.65,144.84s-5.85-2-35.3-11.23-122.89-35-197.86-37.27C166,94,135.6,98.6,135.6,98.6"/><path class="cls-8" d="M143.27,53.31s-5.52-10-2.61-11.82A15.76,15.76,0,0,1,148.48,40S133.76,24,142.35,17,181,3,223.19,2.23s103.67,4.29,129,10.13,85,16.87,94.18,27.46,2.76,16.69,2.76,16.69-3.37,11-5.21,12.13c-.14,2.37-1.69,5.83-2.76,6.13s-4.07,2.37-4.36,3.68"/><path class="cls-9" d="M141.4,17S183.84,6.49,221.57,6.84s91.34.46,141.33,12.42a580.92,580.92,0,0,1,88,28.6"/><path class="cls-8" d="M148.48,40s81.76-10.12,120.09-8.68c26.75,1,127.92,14.21,175.31,37.36"/><path class="cls-9" d="M440.33,74.25s-37.49-16.56-67.86-21.51S261.23,23.4,158.16,44.57"/><circle class="cls-10" cx="69.73" cy="136.24" r="7.16"/><circle class="cls-10" cx="55.42" cy="241.08" r="7.16"/><circle class="cls-10" cx="175.17" cy="342.62" r="7.16"/><circle class="cls-10" cx="345.82" cy="337.98" r="7.16"/><line class="cls-6" x1="125.86" y1="125.81" x2="197.02" y2="210.21"/><line class="cls-6" x1="150.16" y1="123.47" x2="221.83" y2="208.5"/><line class="cls-6" x1="125.86" y1="175.7" x2="167.42" y2="212.49"/><path class="cls-3" d="M105.19,94.9C98.26,63.84,85.26,34.84,75.87,4.51"/><path class="cls-5" d="M111.16,132.73s0,29.74-2.89,43.34"/><path class="cls-5" d="M100.24,209.29S91.72,235.87,88,243.62"/><path class="cls-5" d="M67,285s-1.19,14.33-14.31,32.87"/><path class="cls-11" d="M104.21,2.22c8.05,18.62,17.05,36.62,26.55,54.31"/><path class="cls-11" d="M116.75,61.44C107.73,42.8,101.62,23,95,3.42"/><path class="cls-4" d="M160.57,226.46s136.51-10.19,178.13,0c42.24,0,70.82,2.67,70.82,2.67"/><path class="cls-8" d="M108.73,229.11s6.66-.77,10.65-.88"/><path class="cls-4" d="M517,291.76s-36.15-28.65-70.71-29.44"/><path class="cls-4" d="M391.8,256.41s-36.5.27-51.22-1.34-46.33-9.67-150.25.23"/><path class="cls-4" d="M150.91,257.88S125.29,260,110,262.28"/><line class="cls-10" x1="338.68" y1="226.46" x2="346.19" y2="255.54"/></g></g></svg>