<?xml version="1.0" encoding="UTF-8"?>
<!-- Generator: Adobe Illustrator 23.0.1, SVG Export Plug-In . SVG Version: 6.00 Build 0)  -->
<svg version="1.1" id="Camada_1" xmlns="http://www.w3.org/2000/svg" xmlns:xlink="http://www.w3.org/1999/xlink" x="0px" y="0px" viewBox="0 0 600 600" style="enable-background:new 0 0 600 600;" xml:space="preserve">
<style type="text/css">
	.st0{fill:#FFFFFF;}
	.st1{fill:#FFFFFF;stroke:#020203;stroke-width:0.96;stroke-miterlimit:10;}
	.st2{fill:none;stroke:#020203;stroke-width:0.96;stroke-miterlimit:10;}
	.st3{fill:#FFFFFF;stroke:#020203;stroke-width:0.87;stroke-miterlimit:10;}
	.st4{fill:#FFFFFF;stroke:#020203;stroke-width:0.3;stroke-miterlimit:10;}
	.st5{fill:none;stroke:#B5241F;stroke-width:1.51;stroke-miterlimit:10;}
	.st6{fill:none;stroke:#B5241F;stroke-width:1.91;stroke-miterlimit:10;}
	.st7{fill:none;stroke:#B5241F;stroke-width:1.46;stroke-miterlimit:10;}
	.st8{fill:none;stroke:#B5241F;stroke-width:1.29;stroke-miterlimit:10;}
	.st9{fill:#B5241F;}
	.st10{fill:#E7E6E6;}
	.st11{fill:none;stroke:#B5241F;stroke-width:1.45;stroke-miterlimit:10;}
	.st12{fill:none;stroke:#B5241F;stroke-width:1.36;stroke-miterlimit:10;}
	.st13{fill:none;stroke:#B5241F;stroke-width:1.41;stroke-miterlimit:10;}
	.st14{fill:none;stroke:#B5241F;stroke-width:1.47;stroke-miterlimit:10;}
	.st15{fill:none;stroke:#B5241F;stroke-width:1.55;stroke-miterlimit:10;}
	.st16{fill:none;stroke:#B5241F;stroke-width:1.37;stroke-miterlimit:10;}
	.st17{fill:#FFFFFF;stroke:#020203;stroke-width:0.51;stroke-miterlimit:10;}
	.st18{fill:#F2F2F2;stroke:#020203;stroke-width:1.02;stroke-miterlimit:10;}
	.st19{fill:none;stroke:#020203;stroke-width:1.02;stroke-miterlimit:10;}
	.st20{fill:none;stroke:#020203;stroke-width:0.51;stroke-miterlimit:10;}
	.st21{fill:none;stroke:#020203;stroke-width:0.97;stroke-miterlimit:10;}
	.st22{fill:none;stroke:#020203;stroke-width:0.84;stroke-miterlimit:10;}
	.st23{fill:none;stroke:#020203;stroke-width:0.53;stroke-miterlimit:10;}
	.st24{fill:#F3F3F3;stroke:#020203;stroke-width:1.02;stroke-miterlimit:10;}
	.st25{fill:none;stroke:#020203;stroke-width:1.07;stroke-miterlimit:10;}
	.st26{fill:none;stroke:#020203;stroke-width:1.06;stroke-miterlimit:10;}
	.st27{fill:none;stroke:#020203;stroke-width:0.56;stroke-miterlimit:10;}
	.st28{font-family:'Roboto-Medium';}
	.st29{font-size:12.9006px;}
</style>
<path class="st0" d="M448.5,539.3c-0.1-4.8-2.9-9.2-7.3-11.2c-3.5-1.6-7.4-1.5-10.9,0.1l-0.1-0.7c0.2-0.4-0.5-0.8-0.7-0.7h-0.7  l-0.2-0.1c3.6,0,6.3-1.4,6.2-1.8c-0.1-0.7,0.7-2.2,0.2-6.1c-0.5-3.9-4.7-4.6-4.7-4.6c-13.8-7.3-29.1-13-43.9-17.4h0.1  c0.1-1.7,0-3.5-0.3-5.2c-0.4-2.3-1.4-4.5-3.6-4.7h0.1l-4.7-1.1c-0.4,0.2-0.7,0.3-1.1,0.5l-2.1-1.5l-0.7-0.5l0.5,0.3l-0.5-0.3  c0.3-0.1,0.7-0.2,1-0.4h1.8c0,0,2.7-8.6-8.1-10.3c-24.9-6.7-50.6,2.1-53.6,3.2c-0.1-11.4-0.4-32.5-0.4-33.4h-0.5l0.4-0.1  c-0.5-1.3-2.6-1.5-2.9-1.6v-13.9c-0.5-1.3-3.2-1.5-3.9-1.5V421h-1.1c0.8,0,1.5-0.4,1.9-1c0.8-1.2,2-2.1,3.3-2.6c1-0.3,5.5-1.9,6-2.7  c4.1-0.2,6.7-0.4,6.7-0.4h0.1l-0.6,0.4l0.9,0.2l0.1,0.6l-0.9,0.6l1,0.3l0.1,0.7l-0.9,0.7l1,0.3l0.1,0.6l-0.9,0.7l1,0.3l0.1,0.6  l-0.9,0.6l1,0.5l0.1,0.7l-0.7,0.5l0.8,0.5l-1.4,0.2l2.6,17.7h0.1c4,1.8,8.4,2.5,12.8,1.9c4.4-0.8,8.6-2.8,12-5.7V437l-2.6-17.2  l-1.7,0.2l-0.2-1.6l-0.1-0.6l-0.1-1l-0.1-0.8l-0.2-1l-0.1-0.9l-0.1-0.9l-0.1-0.8l-0.1-0.9l-0.1-1l-0.1-0.8l-0.1-0.9l-0.2-1.3  c0.7-0.3,1.3-0.7,2-1.1c1.3-1.1,2.1-2.6,2.4-4.3l1.3-0.7c6.8,0.3,13.6,1.2,20.3,2.5c14,3,38.8,11,43.2,11.2  c4.4,0.2,14.2-2.7,18.8-14.5c3.9-10.1,5.1-17.1,1.9-25.2c-0.6-1.5-1.2-2.9-1.9-4.2c-0.9-1.8-2.4-4.1-4.1-6.7  c-7.9-12-22-30.4-24.1-32c-1.4-1-16-9.9-16.1-9.9c-5.5-3.3-10.8-7.2-17-8.9c-0.2,0-11.4-1.9-11.8-1.9c-5.2-0.2-19.8-1.9-51.3,0  c-12.7,0.8-42.3,2.2-63.3,8.1c0.8-5.8,5.8-42.4,4.2-52c-1.1-6.2-2.7-21-2.9-21.2c-0.1-0.8-1.1-5.2-1.8-5.7c-0.1-0.8-0.3-1.6-0.5-2.4  c-0.7-2.6-1.6-5.1-2.7-7.6c-0.1-0.2-0.2-0.4-0.3-0.5c0-0.1,0-0.1,0-0.2c-1.7-3.2-3.5-7.1-5.7-10.9c-6.2-10.7-8-17-7.2-28.6  c-0.1-4.4-0.2-7.3-0.5-12.5c-1-18.6-13.3-37.8-22.4-50.4c-1-1.4-1.9-2.6-2.8-3.8c-9.2-12.3-4.6-40.7-4.9-58.2  c-0.3-17.5-4.3-31-13.5-40.7c-3.1-3.4-6.9-6.1-11.1-7.9c-5.5-2.2-11.1-2.5-17.3-3c-10.3-0.9-12,3.7-12,3.7s-4.3,12.3-10,73.7  c-0.2,2.1-0.4,4.1-0.5,6.1c-4.4,56.8,6.8,77.6,6.8,77.6s35.7,75.3,41.6,99.8c5.9,24.5-0.1,34.6-3.4,55.2s-2.6,35.5,4.9,44.3  s16.4,2.1,16.4,2.1s-4.5,25.3,6.7,26.9c7.8,1.1,29.4-0.8,47.2-1.9c7.4,2.4,24.1,8,28.9,11.7l0.6,0.3c0,0,0.6,4.1,4.3,4.9l0.8,0.2  c0,1,0,2-0.1,3c-0.1,1.1-3.9,14.5-4.3,15.4c1.7,0.6,3.2,1.1,3.2,1.1l0.9-2.7v6.6c-0.4,0.1-0.7,0.3-1.1,0.4l1.1-3.8l-4.1-1.5  l-0.9-0.3l-8.7,24.4c0,0-0.5,1.7,0.2,2.1c0,0,3.6,1.3,3.9,1.3s2.5-3.5,2.9-5s0.4-2.1,0.2-2.7c-0.3-0.7,0.3-1.1,0.6-1.5  c0.5-0.9,0.8-1.8,0.9-2.8c-0.1-0.9,1-1,1.4-1.9c0.4-1.1,0.8-2.1,1-3.2c-0.2,6.3-0.5,18.8-0.9,29.7h-0.2c0,0-27.3-10.4-53.9-3.3  c-10.8,1.7-8.1,10.3-8.1,10.3h1.7c0.3,0.2,0.7,0.3,1,0.4l-2.8,1.9c-0.3-0.2-0.7-0.4-1.1-0.5l-4.7,1.1l0,0c-2.2,0.2-3.2,2.4-3.6,4.7  c-0.3,1.7-0.4,3.4-0.3,5.2h0.1c-14.8,4.3-30.1,10-43.9,17.3c0,0-4.2,0.8-4.7,4.6c-0.5,3.9,0.4,5.4,0.2,6.1c-0.1,0.4,2,1.5,4.9,1.8  c-0.3,0-0.9,0.3-0.7,0.7l-0.2,0.9c-6.3-3.1-13.8-0.5-16.8,5.8c-0.8,1.6-1.2,3.4-1.3,5.2c-1.8,7.3,2.6,14.6,9.8,16.4  c7.3,1.8,14.6-2.6,16.4-9.8c0.3-1,0.4-2.1,0.4-3.1c0-1.2-0.2-2.3-0.5-3.4c0.3-0.3,0.5-0.7,0.6-1.2l0.4-10.9c0-0.5-1-0.9-1.5-1  l0.1-0.7l0.2-0.1l0.1-0.2c0,0,4.1,0.2,4.3-4.4c1.2-0.6,2.5-1.1,3.8-1.3c4.6-0.9,44-16.4,98.2-17.8c1.6,1.1,3.3,1.9,5,2.7v-0.1  l0.5,0.3c0.5,14.6,1.4,36.7,2,40.8c0.6,3.8,0.6,7.6,0,11.4c1,1.4,2.2,2.6,3.7,3.4v4.1h-3.6c-0.9,4.5-1.3,9.2-1.1,13.8  c-0.1,0.5-0.3,0.9-0.7,1.3v1.7c0,0,0.5,0.5,0.5,0.8c0,4.1,0.4,8.2,1.1,12.3l5.2,0.3c0,0,0.2-4.9,0.3-10.7h7.4  c0.1,5.8,0.3,10.7,0.3,10.7l5.2-0.3c0.7-4.1,1.1-8.2,1.2-12.3c0-0.3,0.5-0.8,0.5-0.8l-0.1-1.7c-0.3-0.4-0.5-0.8-0.7-1.3  c0.1-4.6-0.2-9.2-1.1-13.8h-4.1v-3.7c1.7-0.9,3.2-2.2,4.3-3.8c-0.6-3.8-0.6-7.6,0-11.4c0.6-4.1,1.5-26.4,2-41.1l0.1-0.1v0.1  c1.8-0.7,3.5-1.6,5-2.7c54.2,1.4,93.6,16.9,98.2,17.7c1.3,0.2,2.6,0.7,3.8,1.3c0.2,4.1,3.4,4.4,4.2,4.4l0.1,1.1  c-0.5,0.1-1.5,0.4-1.5,1l0.4,10.9c0.1,0.4,0.3,0.8,0.5,1.1c-1.8,7.3,2.6,14.6,9.9,16.4c7.3,1.8,14.6-2.6,16.4-9.9  c0-0.2,0.1-0.4,0.1-0.6C449.1,543.5,449,541.4,448.5,539.3L448.5,539.3z M238.2,491L238.2,491l-0.2-0.4l0.1,0.2  c-0.9-3.4-2.6-4.8-3.4-5.3l-0.2-0.1l-0.1-0.1l-0.3-0.1c4.1-1,4.1-3.6,4.1-3.6c7.5,0.4,14.9,2.2,21.8,5.2  C253.6,487.8,246.2,489.2,238.2,491z M294.4,420.7v6h-0.1c-0.7,0.1-1.3,0.2-2,0.3l0.3-1c0.4-1.4,0.6-2.8,0.6-4.2V420L294.4,420.7  L294.4,420.7z M367.1,485.3c0,0-2.7,1.1-3.8,5.5l0.1-0.2l-0.2,0.4c-8.1-1.8-15.5-3.1-21.7-4.2c6.9-3,14.3-4.8,21.8-5.2  c0,0,0,2.6,4.1,3.6C367.3,485.2,367.2,485.3,367.1,485.3L367.1,485.3z"/>
<path class="st1" d="M225.9,262.2c0,0-2-8.8,3.9-13.6c6-4.8,19.1-7.5,36-8.4s38.7-4.2,70.4,2.5s39.3,22.6,40.1,24.1s1.7,5,1.2,6.9  s-4.1,10.9-7.5,9.4c-3.4-1.4-38.4-19.6-38.4-19.6l-36.6-0.4l-69,4.6L225.9,262.2z"/>
<path class="st1" d="M225.9,262.2c0,0-29.3,1.7-34.7,2c-5.5,0.3-5.3,9.3-2.2,15.1c3.1,5.8,9.7,12.9,12.4,14  c2.6,1.2,24.6-6.4,24.6-6.4s25.9-6.8,37.7-7.8c11.8-1,41.9-5.9,72.6,7.2l1,0.4c0,0,3.2-7.8,11.7-7.6c4,2.4,7.7,5.3,11,8.5  c0,0,2.1,1.5,3.5,0.2s1.2-1.7,2.1-1.8c0.9-0.1,1.8,0.3,2.4,0s2.1-1.1,2.2-1.9c0-0.4,0-0.7-0.1-1.1c0,0-1.8,0.5-6.6-5.1  s-16.1-11.4-27.8-14.3c-11.8-3-25.3-6.3-51.3-4.8s-44.2,5-50.7,4.9C227.2,263.7,226.5,263.4,225.9,262.2z"/>
<path class="st2" d="M349,279.3c0,0-8.8-9-43-10.8c-6.5-0.3-13.1,0-19.6,1c-10.9,1.7-28.9,5-40.7,9.9c-3.2,1.3-6.4,2.7-9.6,3.9  L226,287"/>
<path class="st1" d="M236.5,263.8c-9.4,1.5-18.9,2.4-28.4,2.6c-2.1,0-4.1,0-6.2-0.1c-3.6-0.2-9.5-0.4-10.2-0.2  c-0.9,0.3-5.1,0.4-4.8,7.2"/>
<path class="st1" d="M363.5,288l-5.4-5.4c-11.8-10.7-22.9-13.6-31.4-14.8c-8.5-1.2-24-2.4-35.5-1.4s-29.6,4.9-37.5,7.4  c-6,1.9-43.9,15.5-49.4,15.6s-8.5-6.4-11.8-12.1s1.4-7.5,3.1-7.5c1.7,0.1,11.4-0.1,11.4-0.1s20.1,0.6,49.4-5.2s66.2-3.3,79.8,1.7  c13.5,5.1,18.1,7.4,29.5,20.1L363.5,288z"/>
<path class="st1" d="M331.5,271.9l-6.2,5.7c0,0-1.4,1.2,1.6,2.2s6.6,2.2,6.6,2.2l5.8-4.7c0,0,2.3-1.5,0.8-2.8L331.5,271.9z"/>
<path class="st1" d="M311.5,269l-5.2,5.8c0,0-1.2,1.4,2.5,1.7s11.4,1.8,11.8,1.8c0.9,0,0.9,0,2.3-1.1c2.1-1.6,5.7-4.9,5.7-5.3  s-0.1-0.7-0.9-0.9C325.5,270.4,311.5,269,311.5,269z"/>
<path class="st1" d="M289.8,269l-4.6,5.1c0,0-0.9,1.3,1.2,1.3c1.8,0,12.1,0.2,15.1,0.2c0.5,0,1-0.2,1.4-0.6l4.5-4.5  c0.5-0.5,0.5-1.4,0-1.9l0,0C307.5,268.6,297.6,267.8,289.8,269z"/>
<path class="st3" d="M267.1,273.1l-0.1,0.3c-0.3,1.1,0.3,2.2,1.4,2.5c0.1,0,0.2,0.1,0.4,0.1l0,0c1.5,0,9.3-0.6,11.7-0.5  c0.5,0,0.9-0.2,1.2-0.6l3.4-3.9c0.4-0.5,0.8-0.8,0.4-1.3l-1.8,0.1C283.6,269.9,273.4,271.9,267.1,273.1z"/>
<ellipse class="st1" cx="348.4" cy="293.4" rx="11.8" ry="13.2"/>
<ellipse class="st4" cx="324.7" cy="372.6" rx="3.7" ry="4.1"/>
<path class="st1" d="M337.8,299.3c0,0-3.1,30.5-19.9,49.6s3.6,39.2,6.1,39.5s3.2,3.5,11.1-11.9s14.1-23.3,19.3-49.3  c5-25.5,3.5-26.1,3.5-26.1s-4.1,6.3-11.1,5C342.8,305.6,339.4,303,337.8,299.3z"/>
<path class="st2" d="M340.6,303.6c0,0-0.5,17.8-14.8,41.2c-2.3,3.8-5,7.4-8,10.7c-1.4,1.6-2.8,3.5-2.9,5.1  c-0.2,3.2,1.4,12.8,5.7,19.1c4.3,6.3,7.2,3.6,14.2-10.8c6.1-12,10.9-24.7,14.1-37.8c4.4-18.1,3.6-25.3,3.6-25.3  C348.5,307.2,344,306.3,340.6,303.6z"/>
<ellipse class="st1" cx="348.4" cy="293.4" rx="3.7" ry="4.1"/>
<ellipse class="st1" cx="202.8" cy="279.4" rx="3.7" ry="4.1"/>
<ellipse class="st1" cx="324.4" cy="367.4" rx="3.7" ry="4.1"/>
<line class="st5" x1="113.8" y1="369.5" x2="113.8" y2="16.6"/>
<line class="st6" x1="69.4" y1="585.4" x2="69.4" y2="16.6"/>
<line class="st7" x1="107.7" y1="378.2" x2="193.6" y2="378.2"/>
<line class="st8" x1="63.3" y1="13.5" x2="161.3" y2="13.5"/>
<polygon class="st9" points="113.8,13.5 119.9,24.1 107.7,24.1 "/>
<polygon class="st9" points="69.4,13.5 75.4,24.1 63.3,24.1 "/>
<polygon class="st9" points="113.8,378.1 107.7,367.5 119.9,367.5 "/>
<polygon class="st9" points="69.4,593.1 63.3,582.5 75.4,582.5 "/>
<rect x="95.1" y="185.8" class="st10" width="37.4" height="13.6"/>
<rect x="27.7" y="296" class="st10" width="76.9" height="13.6"/>
<line class="st11" x1="63.3" y1="593.1" x2="524.6" y2="593.1"/>
<line class="st12" x1="200.9" y1="466.5" x2="200.9" y2="389.3"/>
<polygon class="st9" points="201.3,460.4 211.8,466.5 211.8,454.4 "/>
<line class="st8" x1="439.1" y1="466.5" x2="439.1" y2="389.2"/>
<line class="st13" x1="471.5" y1="593.1" x2="471.5" y2="381.2"/>
<line class="st14" x1="518.6" y1="592.5" x2="518.6" y2="263.3"/>
<rect x="458.6" y="386.2" class="st10" width="27.9" height="13.6"/>
<rect x="488.2" y="420.1" class="st10" width="60.8" height="14.2"/>
<line class="st15" x1="415.8" y1="414.1" x2="477.6" y2="414.1"/>
<line class="st8" x1="433.5" y1="372.8" x2="477.6" y2="372.8"/>
<line class="st16" x1="317.9" y1="255.8" x2="524.6" y2="255.8"/>
<polygon class="st9" points="518.6,256.5 524.6,267 512.5,267 "/>
<polygon class="st9" points="518.6,593.7 512.5,583.2 524.6,583.2 "/>
<polygon class="st9" points="471.5,593.1 465.4,582.9 477.6,582.9 "/>
<polygon class="st9" points="471.5,414.1 465.4,403.9 477.6,403.9 "/>
<polygon class="st9" points="471.5,414.2 477.6,424.3 465.4,424.3 "/>
<polygon class="st9" points="471.5,372.4 477.6,382.6 465.4,382.6 "/>
<path class="st17" d="M292.4,410.7c0,0,0.2-3.2-1.5-3.1c-2,0.1-1.9,2.8-1.9,2.8s0,9.7-0.1,10.8c-0.1,1.1-3.9,14.5-4.3,15.4  c1.7,0.6,3.2,1.1,3.2,1.1l3.9-12.4c0.4-1.4,0.6-2.8,0.6-4.2C292.3,419.2,292.4,410.6,292.4,410.7"/>
<path class="st18" d="M284.6,436.6l-0.9-0.3l-8.7,24.4c0,0-0.5,1.7,0.2,2.1c0,0,3.6,1.3,3.9,1.3s2.5-3.5,2.9-5s0.4-2.1,0.2-2.7  c-0.3-0.7,0.3-1.1,0.6-1.5c0.5-0.9,0.8-1.8,0.9-2.8c-0.1-0.9,1-1.1,1.5-1.9s3.6-12,3.6-12L284.6,436.6z"/>
<path class="st19" d="M314.8,443.3c0,1.2,0.5,40.4,0.5,40.4s-11.9,6.3-29.9-0.7c0.6-16.1,1.2-40,1.2-40c0.8-0.8,1.8-1.3,2.9-1.5"/>
<path class="st19" d="M311.8,441.6c0,0,2.4,0.2,2.9,1.6c-16.6,4.2-28.1-0.1-28.1-0.1"/>
<path class="st19" d="M285.4,476.8c0,0-27.3-10.4-53.9-3.3c-10.8,1.7-8.1,10.3-8.1,10.3h1.7c0,0,0-1.4,0.7-1.9  c1.1-0.7,16-3.3,33.7,4.4"/>
<path class="st20" d="M225,483.8c2.5,1.1,5.4,1.4,8.1,0.9c4.4-1,4.3-3.6,4.3-3.6"/>
<path class="st19" d="M278.7,483.6c0,0-63.3,6-108.7,30.3c0,0-4.2,0.8-4.7,4.6c-0.5,3.9,0.4,5.4,0.2,6.1c-0.1,0.7,6,3.3,11.8,0.7  c1.2-2.4,3.5-5,8.2-5.9c4.6-0.9,44-16.4,98.2-17.8c1.6,1.1,3.3,2,5,2.7"/>
<path class="st20" d="M177.4,525.1c0,0,4.1,0.2,4.3-4.4"/>
<path class="st19" d="M314.9,476.8c0,0,27.3-10.4,53.9-3.3c10.8,1.7,8.1,10.3,8.1,10.3h-1.7c0,0,0-1.4-0.7-1.9  c-1.1-0.7-16.1-3.3-33.7,4.4"/>
<path class="st20" d="M375.2,483.8c-2.5,1.1-5.4,1.4-8.1,0.9c-4.4-1-4.3-3.6-4.3-3.6"/>
<path class="st19" d="M321.6,483.6c0,0,63.3,6,108.7,30.3c0,0,4.2,0.8,4.7,4.6c0.5,3.9-0.4,5.4-0.2,6.1c0.1,0.7-5.9,3.3-11.8,0.7  c-1.2-2.4-3.5-5-8.2-5.9s-44-16.4-98.2-17.8c-1.6,1.1-3.3,2-5,2.7"/>
<path class="st20" d="M422.8,525.1c0,0-4.1,0.2-4.3-4.4"/>
<path class="st19" d="M288.8,491.2c0,0,1.5,47.9,2.4,54.1c0.6,3.8,0.6,7.6,0,11.4c2.1,3,5.5,4.9,9.1,5.1"/>
<path class="st19" d="M311.8,491.2c0,0-1.5,47.9-2.4,54.1c-0.6,3.8-0.6,7.6,0,11.4c-2.1,3-5.5,4.9-9.1,5.1"/>
<path class="st19" d="M213.8,496.5c0,0-0.8-9.6,4.1-9.8c4.9-0.3,7.5,6.6,7.5,6.6"/>
<path class="st19" d="M217.6,486.7l4.7-1.1c0,0,5,1.9,5.8,7.1"/>
<path class="st20" d="M228.2,484.8v1.1c0,0,3.2,1.5,5.2,0v-1.2"/>
<path class="st20" d="M228.1,485.3c0,0-1.1,0.2-1.1,0.7s5.5,2.2,7.9-0.1c-0.3-0.8-1.4-0.7-1.4-0.7"/>
<line class="st20" x1="227" y1="486.1" x2="227" y2="489.3"/>
<line class="st20" x1="234.8" y1="486" x2="234.8" y2="490.9"/>
<path class="st19" d="M223.4,486.2c0,0,1.3-0.9,2.7-1.9"/>
<path class="st19" d="M233.7,484.7c0,0,2.7,1.1,3.8,5.5"/>
<polyline class="st20" points="214.9,489.6 217.8,495.4 217,495.6 214,491.4 "/>
<line class="st20" x1="217.1" y1="486.8" x2="218.3" y2="495.1"/>
<line class="st20" x1="219" y1="486.8" x2="218.9" y2="495.1"/>
<path class="st20" d="M222.8,489.1c0,0-3,5.3-3.1,5.6"/>
<line class="st20" x1="221.1" y1="494.5" x2="223.9" y2="490.8"/>
<path class="st19" d="M386.5,496.5c0,0,0.8-9.6-4.1-9.8s-7.5,6.6-7.5,6.6"/>
<path class="st19" d="M382.6,486.7l-4.7-1.1c0,0-5.1,1.9-5.8,7.1"/>
<path class="st20" d="M372.1,484.8v1.1c0,0-3.2,1.5-5.2,0v-1.2"/>
<path class="st20" d="M372.2,485.3c0,0,1.1,0.2,1.1,0.7s-5.5,2.2-7.9-0.1c0.3-0.8,1.4-0.7,1.4-0.7"/>
<line class="st20" x1="373.3" y1="486.1" x2="373.3" y2="489.3"/>
<line class="st20" x1="365.4" y1="486" x2="365.4" y2="490.9"/>
<path class="st19" d="M376.8,486.2l-2.7-1.9"/>
<path class="st19" d="M366.6,484.7c0,0-2.7,1.1-3.8,5.5"/>
<polyline class="st20" points="385.4,489.6 382.4,495.4 383.3,495.6 386.2,491.4 "/>
<line class="st20" x1="383.1" y1="486.8" x2="382" y2="495.1"/>
<line class="st20" x1="381.3" y1="486.8" x2="381.3" y2="495.1"/>
<path class="st20" d="M377.5,489.1c0,0,3,5.3,3,5.6"/>
<line class="st20" x1="379.2" y1="494.5" x2="376.4" y2="490.8"/>
<path class="st19" d="M170.5,526.3c-0.4-0.1-2,1,1.2,1.5c2.4,0.4,6.7,0,7-0.6s-1-1-1.5-1.1"/>
<line class="st20" x1="177" y1="525.4" x2="177" y2="527.4"/>
<line class="st19" x1="169.7" y1="527" x2="169.7" y2="529.9"/>
<path class="st19" d="M178.6,527l-0.4,10.9c0,0-0.2,0.9-0.6,1.2"/>
<ellipse class="st21" cx="164.6" cy="542.5" rx="13.6" ry="13.4"/>
<ellipse class="st22" cx="164.6" cy="542.5" rx="11.8" ry="11.6"/>
<path class="st21" d="M169.7,528c-6.2-3.1-13.8-0.6-16.9,5.6c-0.8,1.7-1.3,3.5-1.3,5.4"/>
<path class="st23" d="M160.5,531.5l3.1,9.2c-0.2,0.1-0.5,0.3-0.6,0.5c-0.9-0.5-7.8-5.8-7.8-5.8"/>
<path class="st23" d="M170,532.1l-4.2,8.5c-0.4-0.1-0.7-0.1-1.1-0.1c-0.3-1.8-1.2-9.6-1.2-9.6"/>
<path class="st23" d="M175.7,538.4l-8.4,3.4c-0.1-0.3-0.2-0.5-0.4-0.7c0.5-0.9,5.7-7.4,5.7-7.4"/>
<path class="st23" d="M175.4,547.4l-8.2-3.7c0.1-0.2,0.2-0.5,0.2-0.8c1-0.2,8.8-2.2,8.8-2.2"/>
<path class="st23" d="M168.8,553.3L166,545c0.3-0.1,0.5-0.2,0.7-0.4c0.9,0.5,7,5.2,7,5.2"/>
<path class="st23" d="M160,553.2l4.1-8c0.3,0.1,0.6,0.1,0.9,0.1c0.3,1.8,0.9,7.7,1.1,8.8"/>
<path class="st23" d="M153.9,547.4l8.6-3.5c0.1,0.3,0.2,0.5,0.4,0.7c-0.6,0.8-5.5,7.2-5.5,7.2"/>
<path class="st23" d="M153.6,538l8.9,4c-0.1,0.2-0.2,0.5-0.2,0.8c-1,0.2-9.3,2.2-9.3,2.2"/>
<ellipse class="st21" cx="435.4" cy="542.4" rx="13.6" ry="13.4"/>
<ellipse class="st22" cx="435.4" cy="542.4" rx="11.8" ry="11.6"/>
<path class="st21" d="M430.2,527.9c6.2-3.1,13.8-0.6,16.9,5.6c0.8,1.7,1.3,3.5,1.3,5.4"/>
<path class="st23" d="M439.4,531.5l-3.1,9.2c0.2,0.1,0.5,0.3,0.6,0.5c0.9-0.5,7.8-5.8,7.8-5.8"/>
<path class="st23" d="M429.9,532.1l4.2,8.5c0.4-0.1,0.7-0.1,1.1-0.1c0.3-1.8,1.2-9.6,1.2-9.6"/>
<path class="st23" d="M424.2,538.4l8.4,3.4c0.1-0.3,0.2-0.5,0.4-0.7c-0.5-0.9-5.7-7.4-5.7-7.4"/>
<path class="st23" d="M424.5,547.4l8.2-3.7c-0.1-0.3-0.2-0.5-0.2-0.8c-1-0.2-8.8-2.2-8.8-2.2"/>
<path class="st23" d="M431.1,553.3l2.8-8.3c-0.2-0.1-0.5-0.2-0.6-0.4c-0.8,0.5-7,5.2-7,5.2"/>
<path class="st23" d="M439.9,553.2l-4.1-8c-0.3,0.1-0.6,0.1-0.9,0.1c-0.3,1.8-1,7.7-1.1,8.7"/>
<path class="st23" d="M446,547.4l-8.6-3.5c-0.1,0.3-0.2,0.5-0.4,0.7c0.5,0.8,5.5,7.1,5.5,7.1"/>
<path class="st23" d="M446.3,538l-8.9,4c0.1,0.2,0.2,0.5,0.2,0.8c1,0.2,9.3,2.2,9.3,2.2"/>
<path class="st19" d="M429.5,526.5c0.4-0.1,2,1-1.2,1.5c-2.4,0.4-6.7,0-7-0.6s1-1,1.5-1.1"/>
<line class="st20" x1="422.9" y1="525.6" x2="422.9" y2="527.6"/>
<line class="st19" x1="430.2" y1="527.2" x2="430.2" y2="530.1"/>
<path class="st19" d="M421.3,527.2l0.4,10.9c0,0,0.2,0.9,0.6,1.2"/>
<line class="st20" x1="294.9" y1="560.2" x2="294.9" y2="564.1"/>
<path class="st19" d="M296.5,564.2h-5.2c-0.9,4.5-1.3,9.1-1.1,13.7c-0.1,0.5-0.3,0.9-0.7,1.3l-0.1,1.7c0,0,0.5,0.5,0.5,0.8  c0,4.1,0.4,8.2,1.2,12.3l5.2,0.3C296.2,594.3,297.1,566.3,296.5,564.2z"/>
<path class="st20" d="M291.2,564.2c0,0-0.2,12.4-0.2,29.8"/>
<path class="st19" d="M303.9,564.2h5.2c0.9,4.5,1.2,9.1,1.1,13.7c0.1,0.5,0.3,0.9,0.7,1.3l0.1,1.7c0,0-0.5,0.5-0.5,0.8  c0,4.1-0.4,8.2-1.2,12.3l-5.2,0.3C304.1,594.3,303.2,566.3,303.9,564.2z"/>
<path class="st20" d="M309.1,564.2c0,0,0.2,12.4,0.2,29.8"/>
<line class="st20" x1="296.6" y1="565.6" x2="303.7" y2="565.6"/>
<line class="st20" x1="296.6" y1="583.6" x2="303.7" y2="583.6"/>
<line class="st20" x1="305.1" y1="560.5" x2="305.1" y2="564.2"/>
<line class="st19" x1="289.5" y1="427.7" x2="289.5" y2="443.8"/>
<path class="st19" d="M293.7,426.2c0,0-4,0.3-4.2,1.5s8.1,2.2,11.8,2.1s11-0.6,10.4-2.1s-4-1.5-4-1.5"/>
<path class="st19" d="M293.8,420.2v7.4c0,0,7.9,1.8,14.1,0v-6.7"/>
<line class="st19" x1="311.8" y1="427.7" x2="311.8" y2="444"/>
<path class="st20" d="M289.2,411c-0.5-1.6,0.2-5.2,0.5-6.1c0.3-1,0.8-2.1,2.5-2.2s2,2.2,2,2.2s-0.1,6-1,6.9"/>
<path class="st19" d="M253.8,401.1c0,0,23.5,7.1,29.8,12c3.9,1.9,9.2,1.6,20.3,1.7c11.1,0.1,21-0.7,21-0.7s3.7,0,5.4-2.3  c1.7-2.3,14-6.8,14-6.8s1.7-0.3,8.1-3.9"/>
<path class="st19" d="M284.2,413.3c0,0,0.6,4.1,4.3,4.9s5.3,2.2,7,2.6s11.4,0,11.4,0c0.8,0.1,1.6-0.3,2-1c0.8-1.2,2-2.1,3.3-2.6  c1-0.3,5.5-1.9,6-2.7"/>
<circle class="st20" cx="309.5" cy="409.3" r="3"/>
<path class="st17" d="M292.7,410.9c0,0,0.2-3.2-1.5-3.1c-2,0.1-1.9,2.8-1.9,2.8s0,9.7-0.1,10.8c-0.1,1.1-3.9,14.5-4.3,15.4  c1.7,0.6,3.2,1.1,3.2,1.1l3.9-12.4c0.4-1.4,0.6-2.8,0.6-4.2C292.7,419.4,292.8,410.9,292.7,410.9"/>
<path class="st24" d="M284.9,436.8l-0.9-0.3l-8.7,24.4c0,0-0.5,1.6,0.2,2.1c0,0,3.6,1.3,3.9,1.3s2.5-3.5,2.9-5s0.4-2.1,0.2-2.7  c-0.3-0.6,0.3-1.1,0.6-1.5c0.5-0.9,0.8-1.8,0.9-2.8c-0.1-0.9,1-1,1.4-1.9s3.6-12,3.6-12L284.9,436.8z"/>
<polyline class="st23" points="346.6,407.3 347.4,408.1 345.9,409.4 347.8,409.7 346.1,411 348,411.5 346.6,412.7 348.2,413.1   346.8,414.5 348.5,415 347.2,416.4 348.8,416.8 347.6,417.9 349.1,418.5 348.3,419.5 "/>
<polyline class="st23" points="325.1,413.9 324.3,414.5 325.9,414.8 324.5,415.9 326.2,416.3 324.8,417.5 326.4,417.9 325,419.1   326.7,419.6 325.3,420.6 327,421.5 325.8,422.3 326.7,422.9 "/>
<line class="st23" x1="347.3" y1="408.2" x2="330.1" y2="411.7"/>
<line class="st23" x1="347.8" y1="409.7" x2="324.4" y2="414.6"/>
<line class="st23" x1="347.7" y1="411.6" x2="325" y2="415.9"/>
<line class="st23" x1="348.1" y1="413.1" x2="325.1" y2="417.4"/>
<line class="st23" x1="348.5" y1="415" x2="325.4" y2="419.1"/>
<line class="st23" x1="348.7" y1="416.9" x2="325.6" y2="420.7"/>
<line class="st23" x1="349.1" y1="418.5" x2="326" y2="422.1"/>
<path class="st25" d="M325.2,422.9l24.9-3.4l2.6,17.4c-3.4,2.9-7.5,4.9-12,5.7c-4.4,0.5-8.9-0.1-12.9-2L325.2,422.9z"/>
<path class="st23" d="M327.7,440.6c8.5,0.2,16.9-1.1,24.9-3.9"/>
<path class="st23" d="M351,401.1c0,0-0.2,3.5-2.5,5.2c-2,1.5-7,3.2-7,3.2"/>
<path class="st19" d="M400.7,328.7l-21.4-12.3c0,0-2.2-4.1-29.9-5.2s-87.6,3.6-102.5,9"/>
<path class="st26" d="M200.8,376.3c0,0-8.9,6.6-16.4-2.1s-8.2-23.7-4.9-44.3c3.3-20.6,9.3-30.7,3.4-55.2  c-5.9-24.5-41.6-99.7-41.6-99.7s-12-22.4-6.3-83.7s10-73.7,10-73.7s1.7-4.6,12-3.7c10.3,0.9,19.2,1.1,28.4,10.9s13.2,23.2,13.5,40.7  s-4.3,45.9,4.9,58.2s24.1,33.5,25.2,54.2c1.1,20.6-0.3,23.2,3,31.3c1.4,3.5,4.5,9.5,7.5,15.2c7.3,13.8,11.5,28.9,12.5,44.5  c0.4,5,0.3,10.1-0.4,15.1c-0.7,4.2-1.1,8.5-1.5,12.8c-0.3,3.5-0.8,7.4-1.3,11.3c-1.5,10.8-3.7,21.1-3.7,21.1s-17.3,35.7-40.7,43.1"/>
<path class="st26" d="M174.4,16.8c0,0-6.9,36.8-7.8,55.5s-0.6,27.7,1.5,34.2c2.1,6.4,13.1,18.5,15.3,31c2.1,12.5,9.9,48.6,12,63.4  c2.1,14.8,34.1,67.6,34.1,67.6s14.4,29.6,1,65.7c0,0-3.1,9.7-5.8,15.7c0,0-10.3,17.8-19.7,22.1"/>
<path class="st27" d="M134.6,97.3c0,0,20.3-3,31.7-2.2c0,0,8.8,3.1,13.1,16.8s9.8,24.3,12,30.2c2.3,5.9,8.7,33,10.4,45.3  s2.3,23.5,7.6,35.3s20.8,35.2,22.5,38.8"/>
<path class="st27" d="M239,290.5c0,0,2.1,18.9-1,31.4"/>
<path class="st23" d="M205,371.5l20.2-9.1c7.6-3.4,15.7-6,23.9-7.5c1.1-0.2,2.1-0.4,2.7-0.4l17-2.7c0,0,67.2-4.8,94-0.8l26,1.5  c0,0,15.3-0.6,18,0c7.7,1.7,19.2,5.6,23.4,11.6"/>
<path class="st23" d="M246.2,324.4c0,0,15.3-5.2,26.6-6.3s59.7-5.8,77.2-4.9c11,0.5,21.8,1.9,24.1,3.9c2.4,2,4.9,4.7,4.9,4.7"/>
<path class="st26" d="M436.2,375.1c-5.2-6.4-53-12.8-53-12.8c-86.3-15-168.8,6.4-168.8,6.4c-11.7,2.3-13.6,7.6-13.6,7.6  s-4.5,25.3,6.7,26.9s50.2-2.9,66.5-2.6l62.1,0.3c0,0,22.2-0.4,36.2,2.7c14.1,3,38.8,11,43.1,11.2c4.4,0.2,14.2-2.7,18.8-14.5  c4.6-11.8,5.4-19.4,0-29.5s-25.6-36.7-28.1-38.7c-1.7-1.3-3.5-2.4-5.4-3.4c-15-5.6-21.7-5.2-21.7-5.2c-15.7-0.7-46,5.7-65.1,9  c-1.3,0.2-2.7,0.3-4.1,0.3C270.5,332.1,234,347,234,347"/>
<path class="st27" d="M317.9,334.2c0,0,1.6,13,1.7,15.3"/>
<line class="st23" x1="287" y1="333.6" x2="285.6" y2="350.8"/>
<line class="st23" x1="295.3" y1="333.2" x2="293.9" y2="350.4"/>
<polyline class="st26" points="206.7,127.4 207.4,167.9 197.6,165.6 "/>
<path class="st27" d="M206.4,142.7c0,0,15.9,10.7,16.9,18.5c5.2,11,5.5,41,6.3,47.9c0.8,6.9,16.1,30.7,16.1,30.7"/>
<path class="st27" d="M248.6,289.6c0,0-0.6,28-4.5,37.7"/>
<path class="st26" d="M207.4,167.9c0,0,7.5,46.4,11.5,54.1s19.1,33,19.4,36.9"/>
<line class="st27" x1="201" y1="182" x2="209.9" y2="182.5"/>
<line class="st27" x1="202.2" y1="188.8" x2="211" y2="189.3"/>
<line class="st27" x1="207.5" y1="217.7" x2="217" y2="216.8"/>
<line class="st27" x1="210.2" y1="224" x2="219.1" y2="222.5"/>
<line class="st27" x1="226" y1="251.5" x2="232.8" y2="247"/>
<line class="st27" x1="229.4" y1="257" x2="235.8" y2="252.6"/>
<path class="st27" d="M179.7,112.9c0,0,1-1,2.7,3.8s11.4,24.5,10.1,24.9c-0.4,0.1-0.8,0.1-1.3,0"/>
<path class="st27" d="M239.7,295.5l6.6-5.7c0,0-2.1,29.2-4.7,35.7"/>
<line class="st27" x1="240" y1="301.9" x2="245.9" y2="296.8"/>
<path class="st1" d="M221.4,276.3c0,0-2-8.8,3.9-13.6c6-4.8,19.1-7.5,36-8.4s38.7-4.2,70.4,2.5c31.7,6.7,39.3,22.6,40.1,24.1  c0.8,1.5,1.7,5,1.2,6.9s-4.1,10.9-7.5,9.4c-3.4-1.4-38.4-19.6-38.4-19.6l-36.6-0.4l-69,4.6L221.4,276.3z"/>
<path class="st1" d="M221.4,276.3c0,0-29.3,1.7-34.7,2c-5.5,0.3-5.3,9.3-2.2,15s9.7,12.9,12.4,14c2.6,1.2,24.6-6.4,24.6-6.4  s25.9-6.8,37.7-7.8c11.8-1,41.9-5.9,72.6,7.2l1,0.4c0,0,3.2-7.8,11.7-7.6c4,2.4,7.7,5.3,11,8.5c0,0,2.1,1.4,3.5,0.2s1.2-1.7,2.1-1.8  c0.9-0.1,1.8,0.3,2.4,0s2.1-1.1,2.2-1.9c0-0.4,0-0.7-0.1-1.1c0,0-1.8,0.5-6.6-5.1c-4.9-5.5-16.1-11.4-27.9-14.3  c-11.8-3-25.2-6.2-51.3-4.8c-26.1,1.4-44.2,5-50.7,4.8C222.6,277.7,222,277.4,221.4,276.3z"/>
<path class="st2" d="M344.5,293.3c0,0-8.8-9-43-10.8c-6.5-0.3-13.1,0-19.6,1c-10.9,1.7-28.9,5-40.7,9.9c-3.2,1.3-6.4,2.7-9.6,3.8  l-10.3,3.8"/>
<path class="st1" d="M231.9,277.8c-9.4,1.5-18.8,2.4-28.3,2.6c-2.1,0-4.1,0-6.2-0.1c-3.6-0.2-9.6-0.4-10.2-0.2  c-0.9,0.3-5.1,0.4-4.7,7.2"/>
<path class="st1" d="M359,302l-5.4-5.4c-11.8-10.7-22.9-13.6-31.5-14.8c-8.5-1.2-24-2.4-35.5-1.4c-11.4,1-29.6,4.9-37.5,7.4  c-6,1.9-43.9,15.5-49.4,15.6s-8.5-6.4-11.8-12.1s1.4-7.5,3.1-7.5s11.4-0.1,11.4-0.1s20.1,0.6,49.4-5.2s66.2-3.3,79.8,1.7  s18.1,7.4,29.5,20L359,302z"/>
<path class="st1" d="M326.9,285.9l-6.2,5.7c0,0-1.4,1.2,1.6,2.2s6.6,2.2,6.6,2.2l5.8-4.7c0,0,2.3-1.5,0.8-2.8L326.9,285.9z"/>
<path class="st1" d="M306.9,283l-5.2,5.8c0,0-1.2,1.4,2.5,1.7s11.4,1.8,11.8,1.8c0.9,0,0.9,0,2.3-1.1c2.1-1.6,5.7-4.9,5.7-5.2  s-0.1-0.7-0.9-0.9C321,284.4,306.9,283,306.9,283z"/>
<path class="st1" d="M285.3,283l-4.5,5.1c0,0-0.9,1.3,1.2,1.3c1.8,0,12.1,0.2,15.1,0.2c0.5,0,1-0.2,1.4-0.6l4.5-4.5  c0.5-0.5,0.5-1.4,0-1.9l0,0C302.9,282.6,293,281.8,285.3,283z"/>
<path class="st3" d="M262.5,287.1l-0.1,0.3c-0.3,1.1,0.3,2.2,1.4,2.5c0.1,0,0.2,0.1,0.4,0.1h0.1c1.5,0,9.3-0.6,11.7-0.5  c0.5,0,0.9-0.2,1.2-0.6l3.4-3.9c0.4-0.5,0.8-0.8,0.4-1.3l-1.8,0.1C279,283.9,268.9,285.9,262.5,287.1z"/>
<ellipse class="st1" cx="343.8" cy="307.4" rx="11.8" ry="13.2"/>
<ellipse class="st4" cx="320.2" cy="386.6" rx="3.7" ry="4.1"/>
<path class="st1" d="M333.3,313.3c0,0-3.1,30.5-19.9,49.6s3.6,39.2,6.1,39.5s3.2,3.5,11.1-11.9s14.1-23.3,19.3-49.3  c5-25.5,3.5-26.1,3.5-26.1s-4.1,6.3-11.1,5C338.3,319.6,334.9,317,333.3,313.3z"/>
<path class="st2" d="M336,317.7c0,0-0.5,17.8-14.8,41.2c-2.3,3.8-5,7.4-8,10.7c-1.4,1.6-2.8,3.5-2.8,5.1c-0.2,3.2,1.4,12.8,5.7,19.1  c4.3,6.3,7.2,3.6,14.2-10.8c6.1-12,10.9-24.7,14.1-37.8c4.4-18.1,3.6-25.3,3.6-25.3C343.9,321.2,339.4,320.3,336,317.7z"/>
<ellipse class="st1" cx="343.8" cy="307.4" rx="3.7" ry="4.1"/>
<ellipse class="st1" cx="198.3" cy="293.4" rx="3.7" ry="4.1"/>
<ellipse class="st1" cx="319.8" cy="381.5" rx="3.7" ry="4.1"/>
<text transform="matrix(1 0 0 1 490.0659 431.6409)" class="st9 st28 st29">70 - 78cm</text>
<text transform="matrix(1 0 0 1 31.6919 307.345)" class="st9 st28 st29">114 - 122cm</text>
<text transform="matrix(1 0 0 1 98.5786 196.9886)" class="st9 st28 st29">74cm</text>
<text transform="matrix(1 0 0 1 460.2182 397.7874)" class="st9 st28 st29">9cm</text>
<rect x="441.1" y="483.5" class="st10" width="60.8" height="13.6"/>
<text transform="matrix(1 0 0 1 443.9204 495.0901)" class="st9 st28 st29">36 - 44cm</text>
<line class="st14" x1="208" y1="460.4" x2="428.2" y2="460.4"/>
<polygon class="st9" points="438.7,460.4 428.2,466.5 428.2,454.4 "/>
<rect x="298.8" y="446.8" class="st0" width="32.1" height="11.9"/>
<g>
	<path class="st9" d="M291.6,457.3v-2.2h-3.9v-0.7l3.7-5.2h1.2v5h1.2v0.9h-1.2v2.2L291.6,457.3z M291.6,454.2v-4l0,0   c-0.2,0.4-0.4,0.8-0.7,1.2l-2.1,2.7l0,0L291.6,454.2z"/>
	<path class="st9" d="M295.4,456.5c0.3,0,0.6,0,0.9,0c0.6-0.1,1.2-0.4,1.7-0.8c0.6-0.6,1-1.3,1.1-2.2l0,0c-0.5,0.6-1.2,0.9-2,0.9   c-1.3,0.1-2.4-1-2.5-2.3l0,0v-0.2c0-1.6,1.2-2.8,2.8-2.9l0,0h0.1c1.7,0,2.8,1.3,2.8,3.4c0.1,1.4-0.4,2.8-1.4,3.8   c-0.7,0.6-1.5,1-2.4,1.1c-0.3,0.1-0.7,0.1-1.1,0.1V456.5z M295.8,451.8c-0.1,0.9,0.5,1.6,1.4,1.7l0,0h0.2c0.7,0,1.3-0.3,1.6-0.9   c0.1-0.1,0.1-0.3,0.1-0.4c0-1.4-0.5-2.4-1.7-2.4c-0.9,0-1.7,0.8-1.7,1.8L295.8,451.8L295.8,451.8z"/>
	<path class="st9" d="M306.1,457c-0.6,0.2-1.2,0.4-1.8,0.3c-1.6,0.1-3-1.1-3.1-2.7l0,0l0,0c0-0.1,0-0.2,0-0.4   c-0.1-1.7,1.3-3.2,3-3.2l0,0h0.3c0.5,0,1.1,0.1,1.6,0.3l-0.3,0.9c-0.4-0.2-0.9-0.3-1.3-0.3c-1.2,0.1-2.2,1.1-2.1,2.4   c0.1,1.1,1,2.1,2.1,2.1c0.5,0,1-0.1,1.4-0.3L306.1,457z"/>
	<path class="st9" d="M307.5,452.9c0-0.5,0-1.1,0-1.6h1l0.1,1l0,0c0.4-0.7,1.2-1.1,2-1.1s1.5,0.5,1.8,1.2l0,0   c0.2-0.3,0.4-0.6,0.7-0.8c0.4-0.3,0.9-0.4,1.4-0.4c0.9,0,2.1,0.5,2.1,2.6v3.5h-1v-3.4c0-1.2-0.4-1.8-1.4-1.8c-0.6,0-1.1,0.4-1.3,1   c-0.1,0.2-0.1,0.4-0.1,0.5v3.7h-1.1v-3.6c0-0.9-0.4-1.6-1.3-1.6c-0.7,0-1.2,0.5-1.4,1.1c-0.1,0.2-0.1,0.3-0.1,0.5v3.6h-1.1v-4.4   H307.5z"/>
</g>
</svg>