<?xml version="1.0" encoding="UTF-8"?>
<!-- Generator: Adobe Illustrator 23.0.1, SVG Export Plug-In . SVG Version: 6.00 Build 0)  -->
<svg version="1.1" id="Camada_1" xmlns="http://www.w3.org/2000/svg" xmlns:xlink="http://www.w3.org/1999/xlink" x="0px" y="0px" viewBox="0 0 600 600" style="enable-background:new 0 0 600 600;" xml:space="preserve">
<style type="text/css">
	.st0{fill:#E8E7E7;}
	.st1{fill:#E7E6E6;}
	.st2{fill:#FFFFFF;}
	.st3{fill:#D3D3D3;}
	.st4{fill:none;stroke:#020203;stroke-width:0.96;stroke-miterlimit:10;}
	.st5{fill:none;stroke:#020203;stroke-width:0.48;stroke-miterlimit:10;}
	.st6{fill:none;stroke:#020203;stroke-width:0.91;stroke-miterlimit:10;}
	.st7{fill:none;stroke:#020203;stroke-width:0.79;stroke-miterlimit:10;}
	.st8{fill:none;stroke:#020203;stroke-width:0.5;stroke-miterlimit:10;}
	.st9{fill:#FFFFFF;stroke:#020203;stroke-width:0.48;stroke-miterlimit:10;}
	.st10{fill:#F2F2F2;stroke:#020203;stroke-width:0.96;stroke-miterlimit:10;}
	.st11{fill:none;stroke:#020203;stroke-width:1.01;stroke-miterlimit:10;}
	.st12{fill:none;stroke:#020203;stroke-miterlimit:10;}
	.st13{fill:none;stroke:#020203;stroke-width:0.53;stroke-miterlimit:10;}
	.st14{fill:none;stroke:#020203;stroke-width:0.75;stroke-miterlimit:10;}
	.st15{fill:none;stroke:#020203;stroke-width:0.71;stroke-miterlimit:10;}
	.st16{fill:none;stroke:#B5241F;stroke-width:1.42;stroke-miterlimit:10;}
	.st17{fill:none;stroke:#B5241F;stroke-width:1.8;stroke-miterlimit:10;}
	.st18{fill:none;stroke:#B5241F;stroke-width:1.38;stroke-miterlimit:10;}
	.st19{fill:none;stroke:#B5241F;stroke-width:1.22;stroke-miterlimit:10;}
	.st20{fill:#B5241F;}
	.st21{fill:none;stroke:#B5241F;stroke-width:1.37;stroke-miterlimit:10;}
	.st22{fill:none;stroke:#B5241F;stroke-width:1.39;stroke-miterlimit:10;}
	.st23{fill:none;stroke:#B5241F;stroke-width:1.28;stroke-miterlimit:10;}
	.st24{fill:none;stroke:#B5241F;stroke-width:1.33;stroke-miterlimit:10;}
	.st25{fill:none;stroke:#B5241F;stroke-width:1.46;stroke-miterlimit:10;}
	.st26{fill:none;stroke:#B5241F;stroke-width:1.29;stroke-miterlimit:10;}
	.st27{fill:none;stroke:#020203;stroke-width:0.42;stroke-miterlimit:10;}
	.st28{fill:none;stroke:#020203;stroke-width:0.95;stroke-miterlimit:10;}
	.st29{fill:none;stroke:#020203;stroke-width:0.83;stroke-miterlimit:10;}
	.st30{fill:none;stroke:#020203;stroke-width:0.52;stroke-miterlimit:10;}
	.st31{fill:none;stroke:#B5241F;stroke-width:1.53;stroke-miterlimit:10;}
	.st32{fill:none;stroke:#B5241F;stroke-width:1.5;stroke-miterlimit:10;}
	.st33{fill:none;stroke:#B5241F;stroke-width:1.51;stroke-miterlimit:10;}
	.st34{fill:none;stroke:#B5241F;stroke-width:1.6;stroke-miterlimit:10;}
	.st35{fill:none;stroke:#D41F19;stroke-width:1.3689;stroke-miterlimit:10;}
	.st36{fill:none;stroke:#D41F19;stroke-width:2.0559;stroke-miterlimit:10;}
	.st37{fill:#D41F19;}
	.st38{fill:none;stroke:#D41F19;stroke-width:1.3723;stroke-miterlimit:10;}
	.st39{fill:none;stroke:#D41F19;stroke-width:1.4294;stroke-miterlimit:10;}
	.st40{fill:none;stroke:#D41F19;stroke-width:1.8389;stroke-miterlimit:10;}
	.st41{fill:none;stroke:#D41F19;stroke-width:1.4538;stroke-miterlimit:10;}
	.st42{fill:none;stroke:#000000;stroke-width:0.5;stroke-miterlimit:10;}
	.st43{fill:none;stroke:#000000;stroke-miterlimit:10;}
	.st44{fill:none;stroke:#000000;stroke-width:0.4155;stroke-miterlimit:10;}
	.st45{fill:none;stroke:#000000;stroke-width:0.9506;stroke-miterlimit:10;}
	.st46{fill:none;stroke:#000000;stroke-width:0.827;stroke-miterlimit:10;}
	.st47{fill:none;stroke:#000000;stroke-width:0.5195;stroke-miterlimit:10;}
	.st48{fill:none;stroke:#000000;stroke-width:0.4172;stroke-miterlimit:10;}
	.st49{fill:none;stroke:#000000;stroke-width:0.419;stroke-miterlimit:10;}
	.st50{fill:none;stroke:#D41F19;stroke-width:1.4161;stroke-miterlimit:10;}
	.st51{fill:none;stroke:#D41F19;stroke-width:1.7984;stroke-miterlimit:10;}
	.st52{fill:none;stroke:#D41F19;stroke-width:1.2223;stroke-miterlimit:10;}
	.st53{fill:none;stroke:#D41F19;stroke-width:1.359;stroke-miterlimit:10;}
	.st54{fill:none;stroke:#D41F19;stroke-width:1.3456;stroke-miterlimit:10;}
	.st55{fill:none;stroke:#D41F19;stroke-width:1.1098;stroke-miterlimit:10;}
	.st56{fill:none;stroke:#D41F19;stroke-width:1.3365;stroke-miterlimit:10;}
	.st57{fill:none;stroke:#D41F19;stroke-width:1.3941;stroke-miterlimit:10;}
	.st58{fill:none;stroke:#D41F19;stroke-width:1.4643;stroke-miterlimit:10;}
	.st59{fill:none;stroke:#D41F19;stroke-width:1.3019;stroke-miterlimit:10;}
	.st60{fill:none;stroke:#D41F19;stroke-width:1.2895;stroke-miterlimit:10;}
	.st61{fill:none;stroke:#000000;stroke-width:0.96;stroke-miterlimit:10;}
	.st62{fill:none;stroke:#000000;stroke-width:0.48;stroke-miterlimit:10;}
	.st63{fill:none;stroke:#000000;stroke-width:0.9126;stroke-miterlimit:10;}
	.st64{fill:none;stroke:#000000;stroke-width:0.7939;stroke-miterlimit:10;}
	.st65{fill:none;stroke:#000000;stroke-width:0.4988;stroke-miterlimit:10;}
	.st66{fill:#FFFFFF;stroke:#000000;stroke-width:0.48;stroke-miterlimit:10;}
	.st67{fill:#F3F2F2;stroke:#000000;stroke-width:0.96;stroke-miterlimit:10;}
	.st68{fill:none;stroke:#000000;stroke-width:0.5045;stroke-miterlimit:10;}
	.st69{fill:none;stroke:#000000;stroke-width:1.0089;stroke-miterlimit:10;}
	.st70{fill:#D4D4D5;}
	.st71{fill:none;stroke:#020203;stroke-width:0.7361;stroke-miterlimit:10;}
	.st72{fill:none;stroke:#020203;stroke-width:0.368;stroke-miterlimit:10;}
	.st73{fill:none;stroke:#020203;stroke-width:0.6997;stroke-miterlimit:10;}
	.st74{fill:none;stroke:#020203;stroke-width:0.6087;stroke-miterlimit:10;}
	.st75{fill:none;stroke:#020203;stroke-width:0.3824;stroke-miterlimit:10;}
	.st76{fill:#FFFFFF;stroke:#020203;stroke-width:0.368;stroke-miterlimit:10;}
	.st77{fill:#F3F2F2;stroke:#020203;stroke-width:0.7361;stroke-miterlimit:10;}
	.st78{fill:none;stroke:#020203;stroke-width:0.3868;stroke-miterlimit:10;}
	.st79{fill:none;stroke:#020203;stroke-width:0.7736;stroke-miterlimit:10;}
	.st80{fill:none;stroke:#020203;stroke-width:0.3058;stroke-miterlimit:10;}
	.st81{fill:none;stroke:#D41F19;stroke-width:1.5373;stroke-miterlimit:10;}
	.st82{fill:none;stroke:#D41F19;stroke-width:1.2259;stroke-miterlimit:10;}
	.st83{fill:none;stroke:#D41F19;stroke-width:1.5;stroke-miterlimit:10;}
	.st84{fill:none;stroke:#D41F19;stroke-width:1.199;stroke-miterlimit:10;}
	.st85{fill:none;stroke:#D41F19;stroke-width:1.274;stroke-miterlimit:10;}
	.st86{fill:none;stroke:#020203;stroke-width:0.9506;stroke-miterlimit:10;}
	.st87{fill:none;stroke:#020203;stroke-width:0.827;stroke-miterlimit:10;}
	.st88{fill:none;stroke:#020203;stroke-width:0.5195;stroke-miterlimit:10;}
	.st89{fill:#FFFFFF;stroke:#020203;stroke-width:0.5;stroke-miterlimit:10;}
	.st90{fill:#F3F2F2;stroke:#020203;stroke-miterlimit:10;}
	.st91{fill:none;stroke:#020203;stroke-width:0.5255;stroke-miterlimit:10;}
	.st92{fill:none;stroke:#020203;stroke-width:1.0509;stroke-miterlimit:10;}
	.st93{fill:none;stroke:#020203;stroke-width:0.4155;stroke-miterlimit:10;}
	.st94{fill:none;}
	.st95{fill:none;stroke:#D41F19;stroke-width:1.4493;stroke-miterlimit:10;}
	.st96{fill:none;stroke:#D41F19;stroke-width:1.3972;stroke-miterlimit:10;}
	.st97{fill:none;stroke:#D41F19;stroke-width:1.4149;stroke-miterlimit:10;}
	.st98{fill:none;stroke:#D41F19;stroke-width:1.5415;stroke-miterlimit:10;}
	.st99{fill:none;stroke:#D41F19;stroke-width:1.4077;stroke-miterlimit:10;}
	.st100{fill:none;stroke:#D41F19;stroke-width:1.362;stroke-miterlimit:10;}
	.st101{fill:none;stroke:#D41F19;stroke-width:1.3128;stroke-miterlimit:10;}
	.st102{fill:#F3F3F3;stroke:#020203;stroke-width:0.96;stroke-miterlimit:10;}
	.st103{fill:#FFFFFF;stroke:#020203;stroke-width:0.96;stroke-miterlimit:10;}
	.st104{fill:#FFFFFF;stroke:#020203;stroke-width:0.87;stroke-miterlimit:10;}
	.st105{fill:#FFFFFF;stroke:#020203;stroke-width:0.3;stroke-miterlimit:10;}
	.st106{fill:none;stroke:#B5241F;stroke-width:1.91;stroke-miterlimit:10;}
	.st107{fill:none;stroke:#B5241F;stroke-width:1.45;stroke-miterlimit:10;}
	.st108{fill:none;stroke:#B5241F;stroke-width:1.47;stroke-miterlimit:10;}
	.st109{fill:none;stroke:#B5241F;stroke-width:1.36;stroke-miterlimit:10;}
	.st110{fill:none;stroke:#B5241F;stroke-width:1.41;stroke-miterlimit:10;}
	.st111{fill:none;stroke:#B5241F;stroke-width:1.55;stroke-miterlimit:10;}
	.st112{fill:#FFFFFF;stroke:#020203;stroke-width:0.51;stroke-miterlimit:10;}
	.st113{fill:#F2F2F2;stroke:#020203;stroke-width:1.02;stroke-miterlimit:10;}
	.st114{fill:none;stroke:#020203;stroke-width:1.02;stroke-miterlimit:10;}
	.st115{fill:none;stroke:#020203;stroke-width:0.51;stroke-miterlimit:10;}
	.st116{fill:none;stroke:#020203;stroke-width:0.97;stroke-miterlimit:10;}
	.st117{fill:none;stroke:#020203;stroke-width:0.84;stroke-miterlimit:10;}
	.st118{fill:#F3F3F3;stroke:#020203;stroke-width:1.02;stroke-miterlimit:10;}
	.st119{fill:none;stroke:#020203;stroke-width:1.07;stroke-miterlimit:10;}
	.st120{fill:none;stroke:#020203;stroke-width:1.06;stroke-miterlimit:10;}
	.st121{fill:none;stroke:#020203;stroke-width:0.56;stroke-miterlimit:10;}
	.st122{fill:#FFFFFF;stroke:#020203;stroke-width:0.75;stroke-miterlimit:10;}
	.st123{fill:none;stroke:#020203;stroke-width:0.49;stroke-miterlimit:10;}
	.st124{font-family:'Roboto-Medium';}
	.st125{font-size:12.5703px;}
</style>
<g>
	<g id="Camada_1-2_5_">
		<polyline class="st122" points="157.7,264 158.2,244.5 152.4,244.5 150.5,253.8 157.8,264.3   "/>
		<polygon class="st2" points="384.5,248.5 386,265.7 398.3,257.3 391.2,244.5   "/>
		<line class="st12" x1="384.5" y1="248.5" x2="390.9" y2="245.1"/>
		<path class="st2" d="M432.4,269.7c0,0-5.7-22.7-22.2-27.8c-20.4-2.8-19.9,5-19.9,5c-0.5,1.8-1.3,8.8,0.6,9.6c0,0-4.4,5.6-5,7.3    l0,0c-0.4-7.6-1.1-15.7-2-24.2c-4.2-42.5,7-79.7,7-79.7s7.1-30-10.7-43.2c-6.4-4.7-14-10.7-23.9-19.5    c-9.1-9.9-16.3-21.3-21.4-33.7c0,0-9-35-12.6-39.4c-3.6-4.4-10.1-15.1-49.5-15.9c-39.4,0.8-47.7,11.5-51.2,15.9S209,63.6,209,63.6    c-5,12.4-12.3,23.9-21.4,33.7c-9.9,8.8-17.5,14.8-23.9,19.5C145.9,130.1,153,160,153,160s9.9,30.8,5.7,73.3    c-0.4,10.8-0.7,21-0.8,30.5l-0.1-0.2c-0.9-1.9-4.8-7.1-4.8-7.1l0,0c1.9-0.8,1.1-7.8,0.6-9.6c0,0,0.6-7.9-19.9-5    c-16.6,5-22.2,27.8-22.2,27.8s-0.9,10.2,4.7,15.6c0,0-3,9.7,0,23.5s13.3,60.4,13.3,60.4s0.4,2.7,5.6,2.6l0.3-0.8    c0.8,11.3,3.9,23.5,11.5,26.5c5.6,2.2,20.7,5.9,40.8,9.1l-1.8,5.6l-1.6-0.4c0,0-8.2,11-9.6,13.3c-1.4,2.3-1.3,7.1,2,7.1    c1.2,0.4,2.3,1,3.4,1.7c0,0,1,0.9,3.6,0.3c1.5,0.1,2.5,0.8,3.5,0.5c1-0.3,2.7-1.4,3-4.3c0.3-2.9-0.2-17.2-0.2-17.2l-1.1-0.4    c0.7-2.4,1.6-5.4,1.7-5.9c23.1,3.6,46.5,5.5,69.9,5.7l0.2,2.1l-0.2,0.1l0.2,0.1l0.1,1.2l-0.3,0.1l0.3,0.1l0.1,1.1l-0.4,0.2    l0.4,0.2l0.1,1.1l-0.5,0.3l0.6,0.3l0.1,0.9l-0.7,0.4l0.7,0.4l0.1,0.8l-0.7,0.4l0.8,0.6l0.1,0.7l-0.7,0.3l0.8,0.7h-1.6v12.6    c-0.7,0.2-1.4,0.5-1.8,1.1c0,0-0.5,18.6-1,34.3l-0.2-0.1c0,0-27.7-10.6-54.7-3.4c-11,1.8-8.2,10.5-8.2,10.5h1.8    c0.1,0.1,0.4,0.2,0.8,0.3l-2.4,1.9l-0.2,0.1l0.1-0.1l-0.1,0.1c-0.4-0.2-0.7-0.4-1.1-0.6l-4.7,1.1l0,0c-2.2,0.2-3.2,2.5-3.7,4.8    l0,0c-0.3,1.7-0.4,3.5-0.3,5.2h0.1c-15,4.4-30.6,10.1-44.5,17.6c0,0-4.3,0.8-4.8,4.7c-0.5,3.9,0.4,5.4,0.2,6.2    c-0.1,0.4,2,1.5,4.9,1.8c-0.3,0-0.8,0.3-0.7,0.7l0,0l-0.1,0.9c-6.3-3.2-14-0.6-17.2,5.7c-0.9,1.7-1.3,3.6-1.4,5.6l0,0    c-0.3,1.2-0.5,2.4-0.5,3.6c0,7.6,6.2,13.8,13.8,13.8c7.6,0,13.8-6.2,13.8-13.8l0,0c0-1.1-0.2-2.3-0.5-3.4l0,0l0.1-0.1l0,0    c0.2-0.3,0.4-0.7,0.5-1.1l0.1-3.1l0,0l0.3-7.9l0,0c-0.1-0.5-1.1-0.8-1.6-0.9l-2.6,0.1c1-0.2,1.9-0.5,2.9-0.8l0.1-0.2    c0,0,4.2,0.2,4.4-4.4c1.2-0.6,2.5-1.1,3.9-1.3c4.7-0.9,44.6-16.7,99.7-18.1c1.6,1.1,3.3,2,5.1,2.7l0.5,3    c0.5,14.7,1.3,34.8,1.9,38.6c0.6,3.8,0.6,7.7,0,11.5c1,1.4,2.2,2.6,3.6,3.4v3.8l1.7,0.4l-3.5,19.3l12.2,0.1l-0.1-15.9l0.2-7.4    c1.8-0.9,3.3-2.2,4.5-3.9c-0.6-3.8-0.6-7.7,0-11.5c0.6-4.2,1.5-26.8,2-41.7l0.1-0.1l-0.1,0.1c1.8-0.7,3.5-1.7,5.1-2.8    c55,1.4,95,17.2,99.7,18.1c1.3,0.2,2.6,0.7,3.9,1.3c0.2,4.3,3.8,4.4,4.3,4.4l-0.1,1.1c-0.5,0.1-1.4,0.5-1.4,0.9l0,0    c0,0.5,0,0.9,0.1,1.4l0,0l0.4,9.6c0.1,0.4,0.2,0.7,0.5,1c-1.9,7.4,2.6,14.9,10,16.7c7.4,1.9,14.9-2.6,16.7-10    c0.3-1.1,0.4-2.2,0.4-3.4c0-1.2-0.2-2.4-0.5-3.6l0,0c-0.2-7.1-6-12.7-13.1-12.5c-1.6,0-3.2,0.4-4.7,1l-0.7-0.5l0,0    c-0.1-0.3-0.4-0.5-0.8-0.5h-0.2V523c3.3-0.2,5.6-1.4,5.5-1.9c-0.1-0.7,0.7-2.3,0.2-6.2c-0.5-3.9-4.8-4.7-4.8-4.7    c-13.9-7.5-29.5-13.2-44.5-17.6h0.1c0.1-1.7,0-3.5-0.3-5.2l0,0c-0.4-2.3-1.4-4.5-3.7-4.8h0.1l-4.7-1.1c-0.4,0.2-0.8,0.4-1.1,0.6    l0,0c0,0-1.4-1-2.7-1.9l0,0c0.4-0.1,0.7-0.3,1-0.4h1.8c0,0,2.8-8.7-8.2-10.5c-25.4-6.8-51.4,2.2-54.5,3.2    c-0.2-11.6-0.5-33.4-0.5-34.3c0-0.3-0.1-0.5-0.3-0.7l0,0c-0.6-0.5-1.3-0.7-2.1-0.8v-12.1h-1.4v-0.1l0.8-0.8l-0.8-0.5v-0.7l0.8-0.5    l-0.8-0.3v-0.8l0.7-0.6l-0.7-0.4v-1l0.7-0.5l-0.7-0.3v-0.8l0.7-0.5l-0.7-0.3v-1l0.8-0.4l-0.8-0.3v-0.9l0.7-0.4l-0.7-0.8v-0.2    c52.6,0.1,103.1-10.7,114.6-15.2c7.4-2.8,10.5-14.6,11.4-25.7l0,0c5.2,0,5.6-2.6,5.6-2.6c1.2,2,13.3-29.8,13.3-60.4    c-0.8-17.3,0-23.5,0-23.5C433.3,279.9,432.4,269.7,432.4,269.7z M141,345.6L141,345.6l0.1-3.2C141,344.4,141,345.6,141,345.6z     M208.2,486.5l-0.1-0.3l0,0c-1.1-4.4-3.8-5.6-3.8-5.6l0,0l-0.2-0.2c3.8-1,4-3.4,4-3.6l0,0c7.6,0.5,15.1,2.3,22.1,5.3    C223.9,483.3,216.4,484.7,208.2,486.5L208.2,486.5z M335.4,477v0.3l0,0c0.1,0.7,0.8,2.5,4,3.3l-0.2,0.1l0,0l-0.2,0.1l0,0    c-0.6,0.3-2.7,1.7-3.6,5.5v-0.1l-0.1,0.4c-8.2-1.8-15.8-3.2-22.1-4.2c7-3,14.5-4.8,22.1-5.3H335.4z"/>
		<path class="st2" d="M268,561.6h-5.3c-0.9,4.6-1.3,9.3-1.1,13.9c-0.1,0.5-0.3,1-0.7,1.3l-0.1,1.7c0,0,0.5,0.5,0.5,0.8    c0.1,4.2,0.4,8.4,1.2,12.5l5.2,0.3C267.8,592.1,268.7,563.7,268,561.6z"/>
		<path class="st2" d="M282,575.5c0.1-4.7-0.2-9.3-1.1-13.9h-5.3c-0.7,2.1,0.3,30.5,0.3,30.5l5.2-0.3c0.7-4.1,1.1-8.3,1.2-12.5    c0-0.3,0.5-0.8,0.5-0.8l-0.1-1.7C282.3,576.5,282.1,576,282,575.5z"/>
		<path class="st1" d="M298.6,102.7c-8.8-10.3-27.9-10.4-27.9-10.4s-19.1,0-27.9,10.4c-7.4,8.7-1.1,14.5,3.5,14.4    c4.9,0,21.4-1.8,24.2-1.7c2.9-0.1,18.3,1.7,23.1,1.7C298.1,117.2,306,111.4,298.6,102.7z"/>
		<polygon class="st1" points="158,281.9 159,331.6 157,333.1 154.7,337.1 149.5,339 157.3,281.9   "/>
		<polygon class="st1" points="386.9,286.5 385.1,332.3 387.4,333.7 389.4,337.7 394.4,339.8 387.6,286.5   "/>
		<polyline class="st8" points="282.5,412.9 283.2,413.7 281.5,414.8 283.3,415.4 281.5,416.3 283.2,417.1 281.7,418 283.2,418.7     281.6,419.8 283.2,420.6 281.7,421.6 283.2,422.3 281.9,423.2 283.2,423.9 282.3,424.8   "/>
		<polyline class="st8" points="260.1,412.9 261.7,414.1 260.1,415 261.7,415.6 260.1,416.4 261.7,417 260.1,417.8 261.7,418.5     260.1,419.4 261.7,420 260.1,420.9 261.7,421.7 260.2,422.4 261.7,423.5 260.4,424.1 261.2,424.8   "/>
		<line class="st8" x1="283.1" y1="413.8" x2="260.1" y2="415"/>
		<line class="st8" x1="283.3" y1="415.4" x2="260.3" y2="416.5"/>
		<line class="st8" x1="282.9" y1="417.1" x2="260.6" y2="417.8"/>
		<line class="st8" x1="283.1" y1="418.6" x2="260.5" y2="419.3"/>
		<line class="st8" x1="283.2" y1="420.6" x2="260.5" y2="421"/>
		<line class="st8" x1="283.1" y1="422.4" x2="260.5" y2="422.6"/>
		<line class="st8" x1="283.2" y1="423.9" x2="260.6" y2="423.9"/>
		<path class="st12" d="M259.6,424.8h24.2v16.5c-3.7,2.3-7.9,3.6-12.2,3.8c-4.3-0.1-8.4-1.4-12-3.7V424.8z"/>
		<path class="st8" d="M259.6,441.3c8,1.7,16.3,1.7,24.2-0.1"/>
		<path class="st12" d="M283.8,436.7c0,0,2.4,0.4,2.4,1.6s0.6,41.4,0.6,41.4s-12.1,6.4-30.4-0.7c0.6-16.3,1.3-40.5,1.3-40.5    c0.5-0.6,1.1-1,1.8-1.1"/>
		<path class="st12" d="M257.8,438.5c0.5,0.4,1.2,0.7,1.8,0.8"/>
		<path class="st12" d="M286,437.6c-0.5,0.4-1.2,0.7-1.8,0.8"/>
		<path class="st12" d="M187.5,406.5l-2,5.9c0.4,0.9,1.5,1.4,2.5,0.9c0,0,0,0,0,0c0.2-0.1,0.3-0.2,0.4-0.3c0.8-2.6,1.8-6.1,1.8-6.1"/>
		<polyline class="st8" points="185.6,412.3 184,411.8 183.6,413.9 188.9,415.4 189.6,413.3 188.4,412.9   "/>
		<path class="st12" d="M184,411.8c0,0-8.2,11-9.6,13.4c-1.4,2.4-1.3,7.1,2,7.1c1.2,0.4,2.3,1,3.4,1.7c0,0,1,0.9,3.6,0.3    c1.5,0.1,2.5,0.8,3.5,0.5c1-0.3,2.7-1.4,3-4.3c0.3-2.9-0.2-17.2-0.2-17.2"/>
		<path class="st27" d="M183.8,413.9l-3.2,8.1c0,0,2.2,4.3,6.4,1.8c0.8-2.7,1.5-5.5,1.9-8.4c0,0-0.2,11.5-0.4,14    c-0.2,2.4-1.1,3.2-1.9,3.4s-2.3-0.4-3.4-0.3c-1.2,0.1-2.4,0-3.4-0.5c-0.7-0.6-1.5-1-2.3-1.2c-2.9-0.5-2.4-3.8-1.3-5.7    c1.1-2,7.5-11.3,7.5-11.3"/>
		<path class="st12" d="M256.5,472.7c0,0-27.7-10.6-54.7-3.4c-11,1.8-8.2,10.5-8.2,10.5h1.7c0,0,0-1.5,0.7-1.9    c1.1-0.7,16.3-3.4,34.1,4.4"/>
		<path class="st8" d="M195.3,479.8c2.6,1.1,5.5,1.5,8.2,0.9c4.4-1,4.4-3.7,4.4-3.7"/>
		<path class="st12" d="M249.7,479.6c0,0-64.3,6.1-110.3,30.7c0,0-4.3,0.8-4.8,4.7c-0.5,3.9,0.4,5.4,0.2,6.2c-0.1,0.7,6,3.4,12,0.7    c1.2-2.4,3.6-5,8.3-5.9c4.7-0.9,44.6-16.7,99.7-18.1c1.6,1.1,3.3,2,5.1,2.7"/>
		<path class="st8" d="M147,521.7c0,0,4.2,0.2,4.4-4.4"/>
		<path class="st12" d="M286.5,472.7c0,0,27.7-10.6,54.7-3.4c11,1.8,8.2,10.5,8.2,10.5h-1.7c0,0-0.1-1.5-0.7-1.9    c-1.1-0.7-16.3-3.4-34.1,4.4"/>
		<path class="st8" d="M347.7,479.8c-2.6,1.1-5.5,1.5-8.2,0.9c-4.4-1-4.4-3.7-4.4-3.7"/>
		<path class="st12" d="M293.3,479.6c0,0,64.3,6.1,110.3,30.7c0,0,4.3,0.8,4.8,4.7s-0.4,5.4-0.2,6.2c0.1,0.7-6,3.4-12,0.7    c-1.2-2.4-3.6-5-8.3-5.9s-44.6-16.7-99.7-18.1c-1.6,1.1-3.3,2-5.1,2.7"/>
		<path class="st8" d="M396,521.7c0,0-4.2,0.2-4.4-4.4"/>
		<path class="st12" d="M260,487.4c0,0,1.5,48.6,2.4,54.9c0.6,3.8,0.6,7.7,0,11.5c2.1,3.1,5.6,5,9.3,5.1"/>
		<path class="st12" d="M283.4,487.4c0,0-1.5,48.6-2.4,54.9c-0.6,3.8-0.6,7.7,0,11.5c-2.1,3.1-5.5,5-9.3,5.1"/>
		<path class="st12" d="M183.8,492.7c0,0-0.8-9.7,4.2-10c5-0.3,7.6,6.7,7.6,6.7"/>
		<path class="st12" d="M187.8,482.8l4.7-1.1c0,0,5.1,1.9,5.9,7.2"/>
		<path class="st8" d="M198.5,480.8v1.1c0,0,3.4,1.5,5.3,0v-1.2"/>
		<path class="st8" d="M198.4,481.4c0,0-1.1,0.2-1.1,0.8s5.6,2.3,8-0.1c-0.3-0.8-1.4-0.7-1.4-0.7"/>
		<line class="st8" x1="197.2" y1="482.1" x2="197.2" y2="485.4"/>
		<line class="st8" x1="205.2" y1="482.1" x2="205.2" y2="487.1"/>
		<path class="st12" d="M193.6,482.2c0,0,1.4-1,2.7-1.9"/>
		<path class="st12" d="M204.1,480.7c0,0,2.7,1.1,3.8,5.6"/>
		<polyline class="st8" points="185,485.7 188,491.6 187.1,491.8 184.1,487.5   "/>
		<line class="st8" x1="187.2" y1="482.9" x2="188.4" y2="491.2"/>
		<line class="st8" x1="189.1" y1="482.9" x2="189.1" y2="491.2"/>
		<path class="st8" d="M193,485.2c0,0-3,5.4-3.1,5.7"/>
		<line class="st8" x1="191.3" y1="490.6" x2="194.1" y2="486.9"/>
		<path class="st12" d="M359.1,492.7c0,0,0.8-9.7-4.2-10c-5-0.3-7.6,6.7-7.6,6.7"/>
		<path class="st12" d="M355.2,482.8l-4.7-1.1c0,0-5.1,1.9-5.9,7.2"/>
		<path class="st8" d="M344.5,480.8v1.1c0,0-3.4,1.5-5.3,0v-1.2"/>
		<path class="st8" d="M344.6,481.4c0,0,1.1,0.2,1.1,0.8s-5.6,2.3-8-0.1c0.3-0.8,1.5-0.7,1.5-0.7"/>
		<line class="st8" x1="345.7" y1="482.1" x2="345.7" y2="485.4"/>
		<line class="st8" x1="337.7" y1="482.1" x2="337.7" y2="487.1"/>
		<path class="st12" d="M349.3,482.2c0,0-1.4-1-2.7-1.9"/>
		<path class="st12" d="M338.9,480.7c0,0-2.7,1.1-3.8,5.6"/>
		<polyline class="st8" points="358,485.7 355,491.6 355.9,491.8 358.9,487.5   "/>
		<line class="st8" x1="355.7" y1="482.9" x2="354.5" y2="491.2"/>
		<line class="st8" x1="353.8" y1="482.9" x2="353.9" y2="491.2"/>
		<path class="st8" d="M350,485.2c0,0,3,5.4,3.1,5.7"/>
		<line class="st8" x1="351.7" y1="490.6" x2="348.9" y2="486.9"/>
		<path class="st12" d="M139.9,523c-0.4-0.1-2.1,1,1.2,1.5c2.5,0.4,6.8,0,7.1-0.7c0.3-0.7-1-1.1-1.5-1.1"/>
		<line class="st8" x1="146.5" y1="522.1" x2="146.5" y2="524.1"/>
		<line class="st12" x1="139.1" y1="523.6" x2="139.1" y2="526.6"/>
		<path class="st12" d="M148.2,523.6l-0.4,11c0,0-0.2,1-0.6,1.2"/>
		<path class="st12" d="M402.7,523.1c0.4-0.1,2.1,1-1.2,1.5c-2.5,0.4-6.8,0-7.1-0.7s1-1.1,1.5-1.1"/>
		<line class="st8" x1="396.1" y1="522.2" x2="396.1" y2="524.2"/>
		<line class="st12" x1="403.5" y1="523.8" x2="403.5" y2="526.8"/>
		<path class="st12" d="M394.4,523.8l0.4,11c0,0,0.2,1,0.6,1.2"/>
		<line class="st8" x1="266.2" y1="557.3" x2="266.2" y2="561.3"/>
		<path class="st12" d="M267.8,561.4h-5.3c-0.9,4.6-1.3,9.2-1.1,13.9c-0.1,0.5-0.3,1-0.7,1.3l-0.1,1.7c0,0,0.5,0.5,0.5,0.8    c0,4.2,0.4,8.3,1.2,12.5l5.2,0.3C267.5,591.9,268.5,563.6,267.8,561.4z"/>
		<path class="st8" d="M262.5,561.4c0,0-0.2,12.6-0.2,30.2"/>
		<path class="st12" d="M275.3,561.4h5.3c0.9,4.6,1.3,9.2,1.2,13.9c0.1,0.5,0.3,1,0.7,1.3l0.1,1.7c0,0-0.5,0.5-0.5,0.8    c-0.1,4.2-0.4,8.3-1.2,12.5l-5.2,0.3C275.6,591.9,274.6,563.6,275.3,561.4z"/>
		<path class="st8" d="M280.6,561.4c0,0,0.2,12.6,0.2,30.2"/>
		<line class="st8" x1="267.9" y1="562.9" x2="275.2" y2="562.9"/>
		<line class="st8" x1="267.9" y1="581.1" x2="275.2" y2="581.1"/>
		<line class="st8" x1="276.5" y1="557.7" x2="276.5" y2="561.4"/>
		<ellipse class="st28" cx="133.8" cy="539.3" rx="13.8" ry="13.6"/>
		<ellipse class="st29" cx="133.8" cy="539.3" rx="12" ry="11.8"/>
		<path class="st28" d="M139,524.6c-6.3-3.2-14-0.6-17.2,5.7c-0.9,1.7-1.3,3.6-1.4,5.5"/>
		<path class="st30" d="M129.7,528.2l3.2,9.3c-0.2,0.1-0.5,0.3-0.7,0.5c-0.8-0.5-7.9-5.9-7.9-5.9"/>
		<path class="st30" d="M139.3,528.8l-4.2,8.6c-0.4-0.1-0.8-0.1-1.1-0.1c-0.3-1.8-1.2-9.7-1.2-9.7"/>
		<path class="st30" d="M145.1,535.2l-8.5,3.5c-0.1-0.3-0.2-0.5-0.4-0.7c0.6-0.8,5.7-7.5,5.7-7.5"/>
		<path class="st30" d="M144.8,544.3l-8.3-3.7c0.1-0.2,0.2-0.5,0.2-0.8c0.9-0.2,9-2.2,9-2.2"/>
		<path class="st30" d="M138.2,550.3l-2.8-8.4c0.3-0.1,0.5-0.3,0.7-0.5c0.8,0.5,7.1,5.3,7.1,5.3"/>
		<path class="st30" d="M129.2,550.2l4.2-8.2c0.3,0.1,0.6,0.1,0.9,0.1c0.3,1.8,1,7.9,1.1,8.9"/>
		<path class="st30" d="M123,544.3l8.7-3.6c0.1,0.3,0.2,0.5,0.4,0.7c-0.6,0.8-5.5,7.3-5.5,7.3"/>
		<path class="st30" d="M122.7,534.8l9,4.1c-0.1,0.2-0.2,0.5-0.2,0.8c-1,0.2-9.4,2.2-9.4,2.2"/>
		<ellipse class="st28" cx="408.6" cy="539.3" rx="13.8" ry="13.6"/>
		<ellipse class="st29" cx="408.6" cy="539.3" rx="12" ry="11.8"/>
		<path class="st28" d="M403.4,524.5c6.3-3.2,14-0.6,17.2,5.7c0.9,1.7,1.3,3.6,1.4,5.5"/>
		<path class="st30" d="M412.7,528.2l-3.2,9.3c0.2,0.1,0.5,0.3,0.7,0.5c0.8-0.5,7.9-5.9,7.9-5.9"/>
		<path class="st30" d="M403.1,528.8l4.3,8.6c0.4-0.1,0.7-0.1,1.1-0.1c0.3-1.8,1.2-9.8,1.2-9.8"/>
		<path class="st30" d="M397.4,535.2l8.5,3.5c0.1-0.3,0.2-0.5,0.4-0.7c-0.6-0.8-5.7-7.5-5.7-7.5"/>
		<path class="st30" d="M397.7,544.3l8.3-3.7c-0.1-0.2-0.2-0.5-0.2-0.8c-1-0.2-9-2.2-9-2.2"/>
		<path class="st30" d="M404.3,550.2l2.8-8.4c-0.3-0.1-0.5-0.2-0.7-0.5c-0.8,0.5-7.1,5.3-7.1,5.3"/>
		<path class="st30" d="M413.3,550.2l-4.2-8.1c-0.3,0.1-0.6,0.1-0.9,0.1c-0.3,1.8-1,7.9-1.1,8.9"/>
		<path class="st30" d="M419.5,544.3l-8.7-3.6c-0.1,0.3-0.2,0.5-0.4,0.7c0.6,0.8,5.5,7.3,5.5,7.3"/>
		<path class="st30" d="M419.7,534.8l-9,4.1c0.1,0.2,0.2,0.5,0.2,0.8c1,0.2,9.4,2.2,9.4,2.2"/>
		<path class="st12" d="M153.4,247.1c0,0,0.6-7.9-19.9-5c-16.6,5-22.2,27.8-22.2,27.8s-0.9,10.2,4.7,15.6    c17.7,3.6,23.4-2.2,23.4-2.2s5-5,6.8-11.2c1.9-6.2,4.7-14.6,6.6-15.4C154.7,255.9,153.9,248.9,153.4,247.1z"/>
		<path class="st8" d="M111.3,270.1c0,0,7.5,10.7,24.4,0.5c13-11.3,9.3-22.3,18.3-24"/>
		<path class="st12" d="M116,285.3c0,0-3,9.7,0,23.5c3,13.8,13.3,60.4,13.3,60.4s0.4,2.7,5.6,2.6"/>
		<path class="st12" d="M152.8,256.7c0,0,4.2,5.6,4.9,7.3"/>
		<path class="st12" d="M146.7,270.6c0,0-5.3,20.1-6,29.6c-0.7,9.5,0.1,45.4,0.1,45.4"/>
		<line class="st12" x1="143.9" y1="282" x2="140.3" y2="322.1"/>
		<path class="st8" d="M116.4,285.4c0.4,1.3,1.4,2.3,2.7,2.7c2,0.5,13,2.9,21.3-2.4c2.6-1.8,3.1-7.8,3.1-7.8"/>
		<path class="st12" d="M272.2,412.6c-56.1,1.6-113.2-10.3-125.5-15c-12.3-4.7-12.7-34.1-10.9-44c1.9-9.9,19-16.1,19-16.1    s0.9-4.6,6.6-6.7c8.5-3.9,41.4,2.4,41.4,2.4l69.8,3"/>
		<path class="st12" d="M272.2,412.6c56.1,1.6,112.7-10.3,124.9-15c12.3-4.7,12.8-34.1,10.9-44c-1.8-9.9-19-16.1-19-16.1    s-0.9-4.6-6.6-6.7c-8.5-3.9-41.4,2.4-41.4,2.4l-68.9,3"/>
		<path class="st27" d="M401,343.8c0,0,7.6,7.5,0.8,13.5c-3.7,3.2-10.8,6.4-16.7,8.7c-5.3,2.1-10.9,3.4-16.5,4    c-91.1,9.7-167.1,3-192.2,0.2c-6.4-0.7-12.8-2.3-18.8-4.7c-5.6-2.2-12.1-5.2-15.5-8.3c-6.8-6,0.8-13.5,0.8-13.5"/>
		<path class="st12" d="M339.9,333.5c0,0,0.8,3.6,0.4,5c1.8,1.3,10.4,1.4,10.6,18.7c1.8,13.4,1.8,40.4-1,50.4"/>
		<path class="st27" d="M203.7,338.5c0,0,89.9,4.8,136.6,0"/>
		<path class="st12" d="M159,331.9c0,0-2.8-41.8-0.5-98.6c4.2-42.5-5.7-73.3-5.7-73.3s-7.1-30,10.7-43.2c6.4-4.7,14-10.7,23.9-19.5    c9.1-9.9,16.3-21.3,21.4-33.7c0,0,9-35,12.6-39.4c3.6-4.4,11.8-15.1,51.2-15.9"/>
		<path class="st12" d="M390.1,247c0,0-0.6-7.9,19.9-5c16.6,5,22.2,27.8,22.2,27.8s0.9,10.2-4.7,15.6c-17.7,3.6-23.4-2.2-23.4-2.2    s-5-5-6.8-11.2c-1.9-6.2-4.7-14.6-6.6-15.4C388.8,255.9,389.6,248.8,390.1,247z"/>
		<path class="st8" d="M432.2,270.1c0,0-7.5,10.7-24.4,0.5c-13-11.3-8.6-22.1-17.6-23.9"/>
		<path class="st12" d="M427.5,285.3c0,0-1.4,9.4,0,23.5c2.2,22.2-12.1,62.5-13.3,60.4c0,0-0.4,2.7-5.6,2.6"/>
		<path class="st12" d="M390.7,256.6c0,0-4.4,5.6-5,7.3"/>
		<path class="st12" d="M396.8,270.6c0,0,5.3,20.1,6,29.6s-0.1,45.4-0.1,45.4"/>
		<line class="st12" x1="399.6" y1="282" x2="403.1" y2="322"/>
		<path class="st8" d="M427.1,285.4c-0.4,1.3-1.4,2.3-2.7,2.8c-2,0.5-13,2.9-21.3-2.4c-2.6-1.8-3.1-7.8-3.1-7.8"/>
		<path class="st12" d="M384.7,331.9c0,0,4.6-38.1-1.1-92.2c-4.2-42.5,7-79.7,7-79.7s7.1-30-10.7-43.2c-6.4-4.7-14-10.7-23.9-19.5    c-9.1-9.9-16.3-21.3-21.4-33.7c0,0-9-35-12.6-39.4c-3.6-4.4-10.1-15.1-49.5-15.9"/>
		<path class="st12" d="M187.4,97.4c0,0,12.2,9.8,14.4,50s2.3,186.1,2.3,186.1s-0.8,3.6-0.4,5c-1.8,1.3-10.4,1.4-10.6,18.7    c-1.8,13.4-1.8,40.4,1,50.4"/>
		<path class="st12" d="M356.6,97.4c0,0-12.2,9.8-14.4,50s-2.3,186.1-2.3,186.1"/>
		<path class="st12" d="M304.9,101.6C294.1,85.5,270.5,86,270.5,86s-23.6-0.5-34.4,15.6c-9.2,13.6,1.7,21.4,7.2,21.4    c6-0.1,23.6-2.4,27.2-2.2c3.6-0.2,21.2,2.2,27.2,2.2C303.3,123,314.1,115.2,304.9,101.6z"/>
		<path class="st8" d="M298.5,102.7c-8.8-10.3-28-10.4-28-10.4s-19.2,0-28,10.4c-7.5,8.7-1.1,14.5,3.5,14.4c4.9,0,21.4-1.8,24.3-1.7    c2.9-0.1,18.4,1.7,23.2,1.8C298.1,117.2,305.9,111.4,298.5,102.7z"/>
		<line class="st8" x1="201.8" y1="147.4" x2="342.2" y2="147.4"/>
		<line class="st123" x1="204.3" y1="298.5" x2="340" y2="298.5"/>
		<line class="st31" x1="153.8" y1="111.7" x2="383.3" y2="111.7"/>
		<line class="st32" x1="151.7" y1="136.1" x2="151.7" y2="105.7"/>
		<polygon class="st20" points="152.1,111.7 162.4,117.6 162.4,105.7   "/>
		<line class="st32" x1="391.4" y1="136.1" x2="391.4" y2="105.7"/>
		<polygon class="st20" points="391,111.7 380.7,117.6 380.7,105.7   "/>
		<line class="st32" x1="153.7" y1="254.1" x2="153.7" y2="201.9"/>
		<polygon class="st20" points="154,207.8 164.3,213.8 164.3,201.9   "/>
		<line class="st32" x1="390.5" y1="255.5" x2="390.5" y2="201.9"/>
		<polygon class="st20" points="390.2,207.8 379.9,213.8 379.9,201.9   "/>
		<line class="st32" x1="158.1" y1="304.7" x2="158.1" y2="292.8"/>
		<polygon class="st20" points="158.5,298.8 168.8,304.7 168.8,292.8   "/>
		<line class="st32" x1="386.8" y1="304.7" x2="386.8" y2="292.8"/>
		<polygon class="st20" points="386.4,298.8 376.2,304.7 376.2,292.8   "/>
		<line class="st34" x1="145.3" y1="384.9" x2="398.3" y2="384.9"/>
		<line class="st32" x1="137.4" y1="390.8" x2="137.4" y2="378.9"/>
		<polygon class="st20" points="137.7,384.9 148,390.8 148,378.9   "/>
		<line class="st32" x1="407.5" y1="390.8" x2="407.5" y2="378.9"/>
		<polygon class="st20" points="407.1,384.9 396.8,390.8 396.8,378.9   "/>
		<polyline class="st8" points="201.8,170.3 271.6,190.4 341.4,170.3   "/>
		<polyline class="st8" points="201.8,190.1 271.6,210.2 341.4,190.1   "/>
		<polyline class="st8" points="202.7,208.7 272.5,228.8 342.3,208.7   "/>
		<line class="st8" x1="261.8" y1="335.6" x2="340.8" y2="220.9"/>
		<line class="st8" x1="245.1" y1="335.3" x2="328.1" y2="213.2"/>
		<line class="st8" x1="278.6" y1="336.1" x2="339.9" y2="245.7"/>
		<line class="st8" x1="297.2" y1="335.4" x2="340.5" y2="272.3"/>
		<line class="st8" x1="315.8" y1="334.5" x2="341.1" y2="298.1"/>
		<line class="st8" x1="334" y1="333.5" x2="340.2" y2="325.3"/>
		<line class="st8" x1="227.7" y1="334.2" x2="306.2" y2="219.1"/>
		<line class="st8" x1="210.7" y1="333.6" x2="284.6" y2="225.3"/>
		<line class="st8" x1="203.9" y1="316.7" x2="265.4" y2="226.5"/>
		<line class="st8" x1="203.3" y1="290.1" x2="251.5" y2="222.3"/>
		<line class="st8" x1="203.3" y1="263.5" x2="236.7" y2="219.1"/>
		<line class="st8" x1="203.3" y1="240.7" x2="223.1" y2="214.7"/>
		<line class="st12" x1="202.1" y1="220.6" x2="210.4" y2="210.5"/>
		<line class="st8" x1="282.5" y1="335.8" x2="203.6" y2="220.9"/>
		<line class="st8" x1="299.4" y1="335.2" x2="216.3" y2="213.2"/>
		<line class="st8" x1="266" y1="336.2" x2="204.5" y2="245.7"/>
		<line class="st8" x1="247.1" y1="335.2" x2="203.9" y2="272.3"/>
		<line class="st8" x1="228.3" y1="334.2" x2="203.3" y2="298.1"/>
		<line class="st8" x1="210.6" y1="333.6" x2="204.2" y2="325.3"/>
		<line class="st8" x1="317.2" y1="334.5" x2="238.2" y2="219.1"/>
		<line class="st8" x1="333.7" y1="333.3" x2="259.8" y2="225.3"/>
		<line class="st8" x1="340.6" y1="316.7" x2="279.1" y2="226.5"/>
		<line class="st8" x1="340" y1="288.5" x2="292.9" y2="222.3"/>
		<line class="st8" x1="340" y1="262.2" x2="307.7" y2="219.1"/>
		<line class="st8" x1="340.2" y1="239.4" x2="321.3" y2="214.7"/>
		<line class="st12" x1="340.7" y1="218.6" x2="334.1" y2="210.5"/>
		<path class="st8" d="M193.5,352.6c0,0,73.4,6.7,75.9,7c2.5,0.3,81.6-7.8,81.6-7.8"/>
		<path class="st8" d="M195.6,344.6c0,0,72.3,6.6,74.7,6.9c2.4,0.3,77.9-6.9,77.9-6.9"/>
		<line class="st8" x1="204.6" y1="333.4" x2="230.9" y2="347.7"/>
		<line class="st8" x1="224" y1="334.1" x2="259" y2="350.1"/>
		<line class="st8" x1="247.2" y1="335.3" x2="287.4" y2="349.7"/>
		<line class="st8" x1="265.9" y1="336.2" x2="304" y2="348.9"/>
		<line class="st8" x1="287.4" y1="335.9" x2="321.3" y2="346.6"/>
		<line class="st8" x1="306.1" y1="334.9" x2="339.9" y2="345.2"/>
		<line class="st8" x1="324.8" y1="334.1" x2="347.9" y2="344.5"/>
		<line class="st8" x1="343.3" y1="339.8" x2="323.8" y2="346.9"/>
		<line class="st8" x1="339.3" y1="333.4" x2="295.8" y2="349.6"/>
		<line class="st8" x1="316.7" y1="334.9" x2="267.2" y2="351.1"/>
		<line class="st8" x1="292.5" y1="335.6" x2="249.3" y2="349.1"/>
		<line class="st8" x1="265.4" y1="336.2" x2="230.8" y2="347.7"/>
		<line class="st8" x1="245.3" y1="335.2" x2="212.9" y2="346"/>
		<line class="st8" x1="228.2" y1="334.3" x2="197.1" y2="344.6"/>
		<text transform="matrix(1 0 0 1 256.511 111.3909)" class="st20 st124 st125">52cm</text>
		<text transform="matrix(1 0 0 1 256.511 204.8558)" class="st20 st124 st125">50cm</text>
		<line class="st32" x1="158.6" y1="298.8" x2="378.7" y2="298.8"/>
		<line class="st33" x1="161.4" y1="207" x2="385" y2="207"/>
		<rect x="255" y="282.7" class="st2" width="34.9" height="13.3"/>
		<rect x="253.2" y="369.7" class="st2" width="34.9" height="13.3"/>
		<text transform="matrix(1 0 0 1 256.8792 295.2869)" class="st20 st124 st125">49cm</text>
		<text transform="matrix(1 0 0 1 255.7815 381.0589)" class="st20 st124 st125">51cm</text>
	</g>
</g>
</svg>