<?xml version="1.0" encoding="UTF-8"?>
<!-- Generator: Adobe Illustrator 23.0.1, SVG Export Plug-In . SVG Version: 6.00 Build 0)  -->
<svg version="1.1" id="Camada_1" xmlns="http://www.w3.org/2000/svg" xmlns:xlink="http://www.w3.org/1999/xlink" x="0px" y="0px" viewBox="0 0 414.3 647.8" style="enable-background:new 0 0 414.3 647.8;" xml:space="preserve">
<style type="text/css">
	.st0{fill:#FFFFFF;stroke:#000000;stroke-width:3;stroke-miterlimit:10;}
	.st1{fill:none;stroke:#000000;stroke-width:3;stroke-miterlimit:10;}
	.st2{fill:#D8D8D8;stroke:#000000;stroke-width:3;stroke-miterlimit:10;}
	.st3{fill:none;stroke:#000000;stroke-width:2;stroke-miterlimit:10;}
	.st4{fill:#D8D8D8;}
</style>
<g>
	<g>
		<g>
			<g>
				<path class="st0" d="M347.9,330.6c0,0-8.6,75.7-21.6,82.5c0,0-6.4,3.3-14.3,1.2c0,0-4.2-0.8-5.6-13.5      c-1.4-12.7-2.3-19.1,1.5-24.5c3.7-5.3,11-22,13.8-47.3c0,0-8.5-12.1-1.2-23.9c0,0-11.7-14.4-34.1-16.4c0,0-5.9-0.4-17.8,4.4      c0,0-16.3,2.7-19-3.2c-2.7-5.9-5.9-21.8-3-25.7c0,0,1.4-1.4,13-1c0,0-1.8-6.8,2.4-9c4.1-2.3,15.6-8.7,44.9-4      c29.4,4.7,42.9,18.1,51.4,27.3s5.1,22.4,5.1,22.4s-3.5,6.8-4.5,7.7c0,0-0.8,1.2-3.2,3.2c-2,1.7-3.6,2.4-3.6,2.4s0.5,8.9-1.1,12      c-1,2-3.1,4.8-3.1,4.8L347.9,330.6z"/>
				<path class="st1" d="M330.8,331.2c0,0,1.9,62.7-19.4,82.7"/>
				
					<ellipse transform="matrix(6.529474e-02 -0.9979 0.9979 6.529474e-02 -105.4081 681.5215)" class="st1" cx="311.1" cy="397" rx="4.8" ry="3.1"/>
				
					<ellipse transform="matrix(6.529474e-02 -0.9979 0.9979 6.529474e-02 -13.223 619.8521)" class="st1" cx="324.3" cy="317" rx="4.8" ry="3.1"/>
				<path class="st1" d="M331.9,313.1c1.4,3,0.9,8.5,0.3,11.6c-0.3,1.9-1.5,4.4-3,5.7c-4.3,3.6-7.5-1.3-7.5-1.3"/>
				<path class="st1" d="M326.5,331.7c0,0,8.3-0.9,9.5-2l0.5-2.4l7.9,0.3l0,2.3l3.6,0.2"/>
				<path class="st1" d="M249.9,289c0,0,22.9-12.3,35.1-10.9c12.3,1.5,17.5,0.5,33.4,18.9s35.7,13,40.6,10c0,0-6.4,8.9-17.8,8.5      c-10.4-0.4-20.8-10.5-20.8-10.5"/>
				
					<ellipse transform="matrix(6.529473e-02 -0.9979 0.9979 6.529473e-02 -43.1278 510.3229)" class="st1" cx="250.8" cy="278.2" rx="4.1" ry="1.1"/>
				<path class="st1" d="M246.6,264.2c0,0,7.5,3.1,14.9,3.4c7.4,0.2,22.6-0.1,31,3.9c8.4,4,8.6,2.8,26.3,22.1      c17.7,19.3,40.3,13.6,40.3,13.6"/>
				<path class="st1" d="M259.6,263.2c0,0,1.9,3.7,3.9,4.4"/>
				<path class="st1" d="M259.2,259.7c0,0,10.3-8.4,31.2-2.9s34.2,34.1,34.2,34.1s10.7,14.7,25.1,13c14.7-1.8,14.9-11.6,13.8-16.6"/>
				<path class="st1" d="M294.4,282.3l-1.5,4.5l-7.6-0.7l0-3.8C285.3,282.4,288.4,281.4,294.4,282.3z"/>
				<path class="st1" d="M296.6,282.3l-1.6,4.9l8.4,3.1l2.1-3.7C305.4,286.7,304.9,285.6,296.6,282.3z"/>
				<path class="st1" d="M307,287.9l-1,3.8l7.9,4.8l1-1.1C314.9,295.4,313.3,291.7,307,287.9z"/>
				<path class="st1" d="M316.3,296.9l-0.6,0.9l3.2,3.8l0.7-1C319.6,300.7,317.7,298.3,316.3,296.9z"/>
			</g>
			<path class="st0" d="M57,396.1l-5.7,3.6c0,0-17.1-2.3-15.8-13c1-7.7,4.9-46.4,5.3-49.4c2.1-13.8,5-37.6,2.6-55.7     c0,0-5.7-39.2-13.9-67.2s-22-67.2-11.2-79.6c10.9-12.4,34.6-33.3,44.5-53S78.8,31,78.8,31s5.8-23.8,25.3-28.6s51.8-1.7,61.9,2.7     c10.1,4.5,19.5,13.3,20,13.9c2.2,2.9,18.4,68.3,27.3,78.6s33.5,30,33.5,30s18.4,18.7,18.2,30.9s-3.1,62.1-1.5,70.2     s14.6,62.6,13.3,73.8s-8,61.6-8,61.6L57,396.1z"/>
			<path class="st2" d="M57,396.1l-5.7,3.6c0,0-17.1-2.3-15.8-13c1-7.7,4.9-46.4,5.3-49.4c2.1-13.8,5-37.6,2.6-55.7     c0,0-5.7-39.2-13.9-67.2s-22-67.2-11.2-79.6c10.9-12.4,34.6-33.3,44.5-53S78.8,31,78.8,31s5.8-23.8,25.3-28.6s51.8-1.7,61.9,2.7     c10.1,4.5,19.5,13.3,20,13.9c2.2,2.9,18.4,68.3,27.3,78.6s33.5,30,33.5,30s18.4,18.7,18.2,30.9s-3.1,62.1-1.5,70.2     s14.6,62.6,13.3,73.8s-8,61.6-8,61.6L57,396.1z"/>
			<polyline class="st1" points="247.1,452.6 246.5,453.1 248.4,453.6 246.6,454.8 248.5,455.5 246.9,456.6 248.6,457.2      247.1,458.5 248.7,459.2 247.3,460.5 248.9,461.1 247.6,462.1 249,462.8 248.2,463.8    "/>
			<polyline class="st1" points="223.5,452.3 225.1,454 223.5,455.1 225.2,455.7 223.6,456.6 225.3,457.2 223.7,458.1 225.4,458.7      223.9,459.8 225.6,460.4 224,461.5 225.7,462.2 224.2,463.1 225.9,464.1 224.5,464.9 225.5,465.6    "/>
			<line class="st1" x1="240.2" y1="453" x2="223.5" y2="455.1"/>
			<line class="st1" x1="248.4" y1="453.6" x2="223.8" y2="456.7"/>
			<line class="st1" x1="248.2" y1="455.5" x2="224.3" y2="458.1"/>
			<line class="st1" x1="248.5" y1="457.1" x2="224.2" y2="459.8"/>
			<line class="st1" x1="248.7" y1="459.2" x2="224.4" y2="461.5"/>
			<line class="st1" x1="248.8" y1="461.1" x2="224.5" y2="463.3"/>
			<line class="st1" x1="249" y1="462.8" x2="224.8" y2="464.7"/>
			<path class="st1" d="M223.8,465.5l26.1-1.6l1.3,18.3c-3.8,2.8-8.2,4.5-12.9,5c-4.6,0.2-9.2-0.9-13.2-3.1L223.8,465.5z"/>
			<path class="st1" d="M225,484.1c8.8,0.9,17.7,0.2,26.3-2.1"/>
			<path class="st1" d="M226.6,484.8c0,1.3,0.6,41.3,0.6,41.3s-13.1,6.9-32.8-0.7c0.6-17.6,1.4-43.8,1.4-43.8c1-0.7,2.1-1.3,3.2-1.6     "/>
			<path class="st1" d="M195.8,481.6c0,0,7.2,5.3,29.2,1.4"/>
			<path class="st1" d="M178.3,443.5c0,0-41,5.9-46.1,6.8c-2.9,0.4-5.3,2.2-6.6,4.8l-4.6,11.1c0.5,1,1.7,1.5,2.7,1     c0.2-0.1,0.3-0.2,0.5-0.3c0.9-2.9,4.3-10,4.3-10c1-1.6,2.6-2.7,4.4-3.2c7.4-1.6,51.7-7.6,51.7-7.6"/>
			<polyline class="st1" points="120.7,465.8 117.8,465.6 120.1,468 126,469.4 124.3,467.1    "/>
			<path class="st1" d="M117.6,465.6c0,0-11.3,14.6-12.8,17.2c-1.5,2.5-1.4,7.6,2.2,7.7c1.3,0.4,2.5,1,3.6,1.9c0,0,1.1,1,3.9,0.3     c1.6,0.1,2.2,0.5,3.2,0.2c1-0.3,2.8-1.5,3.8-4.3c1-2.9,4.7-19,4.7-19"/>
			<path class="st1" d="M120.1,468l-5.9,10.6c0,0,0.7,4.1,5.2,1.3c1.8-3.5,3.5-7.2,4.9-10.9c0,0-2.9,13.2-3.6,15.8     c-0.8,3.1-1.8,4.7-2.6,5c-0.9,0.2-1.9,0.2-2.8,0.1c-1.2,0-2.7,0.5-3.3,0.1c-0.9-0.7-2-1.3-3.1-1.6c-3.2-0.5-1.5-4.4-0.3-6.5     c1.2-2.1,9.8-15.4,9.8-15.4"/>
			<path class="st1" d="M194.4,518.5c0,0-29.9-11.4-59.1-3.6c-11.9,1.9-8.9,11.3-8.9,11.3h1.9c0,0,0-1.6,0.7-2     c1.2-0.8,17.6-3.6,36.9,4.8"/>
			<path class="st1" d="M128.3,526.2c2.8,1.2,5.9,1.6,8.9,1c4.8-1.1,4.7-4,4.7-4"/>
			<path class="st1" d="M187.1,526c0,0-69.4,6.6-119.1,33.1c0,0-4.6,0.8-5.2,5c-0.5,4.2,0.4,5.9,0.3,6.7c-0.2,0.8,6.5,3.6,13,0.8     c1.3-2.6,3.9-5.4,9-6.4c5.1-1,48.2-18,107.6-19.5c1.7,1.2,3.6,2.1,5.5,2.9"/>
			<path class="st1" d="M76.2,571.5c0,0,4.5,0.2,4.7-4.8"/>
			<path class="st1" d="M226.8,518.5c0,0,29.9-11.4,59.1-3.6c11.9,1.9,8.9,11.3,8.9,11.3h-1.9c0,0,0-1.6-0.7-2     c-1.2-0.8-17.6-3.6-36.9,4.8"/>
			<path class="st1" d="M292.9,526.2c-2.8,1.2-5.9,1.6-8.9,1c-4.8-1.1-4.7-4-4.7-4"/>
			<path class="st1" d="M234.1,526c0,0,69.4,6.6,119.1,33.1c0,0,4.6,0.8,5.2,5s-0.4,5.9-0.3,6.7c0.2,0.8-6.5,3.6-13,0.8     c-1.3-2.6-3.9-5.4-9-6.4c-5.1-1-48.2-18-107.6-19.5c-1.7,1.2-3.6,2.1-5.5,2.9"/>
			<path class="st1" d="M345,571.5c0,0-4.5,0.2-4.7-4.8"/>
			<path class="st1" d="M198.2,534.4c0,0,1.6,52.5,2.6,59.3c0.6,4.1,0.6,8.3,0,12.4c2.3,3.3,6,5.4,10,5.5"/>
			<path class="st1" d="M223.4,534.4c0,0-1.6,52.5-2.6,59.3c-0.6,4.1-0.6,8.3,0,12.4c-2.3,3.3-6,5.4-10,5.5"/>
			<path class="st1" d="M116,540.2c0,0-0.8-10.5,4.5-10.8c5.4-0.3,8.2,7.3,8.2,7.3"/>
			<path class="st1" d="M120.2,529.4l5.1-1.2c0,0,5.5,2.1,6.3,7.7"/>
			<path class="st1" d="M131.8,527.3v1.2c0,0,3.6,1.6,5.7,0c0-0.6,0-1.3,0-1.3"/>
			<path class="st1" d="M131.7,527.9c0,0-1.2,0.3-1.2,0.8c0,0.6,6,2.5,8.6-0.1c-0.4-0.9-1.6-0.7-1.6-0.7"/>
			<line class="st1" x1="130.4" y1="528.7" x2="130.4" y2="532.3"/>
			<line class="st1" x1="139" y1="528.7" x2="139" y2="534"/>
			<path class="st1" d="M126.5,528.8c0,0,1.5-1,2.9-2.1"/>
			<path class="st1" d="M137.8,527.2c0,0,2.9,1.2,4.1,6"/>
			<polyline class="st1" points="117.2,532.6 120.4,538.9 119.5,539.2 116.3,534.6    "/>
			<line class="st1" x1="119.6" y1="529.5" x2="120.9" y2="538.6"/>
			<line class="st1" x1="121.7" y1="529.5" x2="121.6" y2="538.6"/>
			<path class="st1" d="M125.8,532.1c0,0-3.2,5.8-3.3,6.1"/>
			<line class="st1" x1="124" y1="537.9" x2="127.1" y2="533.9"/>
			<path class="st1" d="M305.2,540.2c0,0,0.8-10.5-4.5-10.8c-5.4-0.3-8.2,7.3-8.2,7.3"/>
			<path class="st1" d="M301,529.4l-5.1-1.2c0,0-5.5,2.1-6.3,7.7"/>
			<path class="st1" d="M289.4,527.3v1.2c0,0-3.6,1.6-5.7,0c0-0.6,0-1.3,0-1.3"/>
			<path class="st1" d="M289.5,527.9c0,0,1.2,0.3,1.2,0.8c0,0.6-6,2.5-8.6-0.1c0.4-0.9,1.6-0.7,1.6-0.7"/>
			<line class="st1" x1="290.7" y1="528.7" x2="290.7" y2="532.3"/>
			<line class="st1" x1="282.1" y1="528.7" x2="282.1" y2="534"/>
			<path class="st1" d="M294.7,528.8c0,0-1.5-1-2.9-2.1"/>
			<path class="st1" d="M283.4,527.2c0,0-2.9,1.2-4.1,6"/>
			<polyline class="st1" points="304,532.6 300.8,538.9 301.7,539.2 304.9,534.6    "/>
			<line class="st1" x1="301.6" y1="529.5" x2="300.3" y2="538.6"/>
			<line class="st1" x1="299.5" y1="529.5" x2="299.6" y2="538.6"/>
			<path class="st1" d="M295.4,532.1c0,0,3.2,5.8,3.3,6.1"/>
			<line class="st1" x1="297.2" y1="537.9" x2="294.1" y2="533.9"/>
			<path class="st1" d="M68.5,572.8c-0.4-0.1-2.2,1.1,1.3,1.6c2.7,0.4,7.4,0,7.7-0.7c0.3-0.7-1.1-1.1-1.6-1.2"/>
			<line class="st1" x1="75.7" y1="571.8" x2="75.7" y2="574"/>
			<line class="st1" x1="67.7" y1="573.5" x2="67.7" y2="576.8"/>
			<path class="st1" d="M77.5,573.5L77,585.5c0,0-0.2,1-0.7,1.3"/>
			<ellipse class="st1" cx="62.1" cy="590.5" rx="14.9" ry="14.6"/>
			<ellipse class="st1" cx="62.1" cy="590.5" rx="12.9" ry="12.7"/>
			<path class="st1" d="M67.7,574.6c-6.8-3.4-15.1-0.7-18.5,6.1c-0.9,1.8-1.4,3.8-1.5,5.9"/>
			<path class="st1" d="M57.6,578.5l3.4,10.1c-0.3,0.1-0.5,0.3-0.7,0.5c-0.9-0.6-8.6-6.4-8.6-6.4"/>
			<path class="st1" d="M68,579.2l-4.6,9.3c-0.4-0.1-0.8-0.1-1.2-0.1c-0.4-2-1.3-10.5-1.3-10.5"/>
			<path class="st1" d="M74.3,586.1l-9.2,3.8c-0.1-0.3-0.3-0.5-0.5-0.7c0.6-0.9,6.2-8.1,6.2-8.1"/>
			<path class="st1" d="M73.9,595.9l-8.9-4c0.1-0.3,0.2-0.6,0.2-0.9c1.1-0.2,9.7-2.4,9.7-2.4"/>
			<path class="st1" d="M66.8,602.4l-3.1-9c0.3-0.1,0.5-0.3,0.7-0.5c0.9,0.6,7.7,5.7,7.7,5.7"/>
			<path class="st1" d="M57.1,602.2l4.5-8.8c0.3,0.1,0.6,0.1,1,0.1c0.4,2,1,8.5,1.2,9.6"/>
			<path class="st1" d="M50.3,595.9l9.4-3.8c0.1,0.3,0.3,0.5,0.5,0.7c-0.6,0.9-6,7.8-6,7.8"/>
			<path class="st1" d="M50.1,585.7l9.7,4.4c-0.1,0.3-0.2,0.6-0.2,0.9c-1.1,0.2-10.2,2.4-10.2,2.4"/>
			<ellipse class="st1" cx="358.8" cy="590.5" rx="14.9" ry="14.6"/>
			<ellipse class="st1" cx="358.8" cy="590.5" rx="12.9" ry="12.7"/>
			<path class="st1" d="M353.2,574.6c6.8-3.4,15.1-0.7,18.5,6.1c0.9,1.8,1.4,3.8,1.5,5.9"/>
			<path class="st1" d="M363.2,578.5l-3.4,10.1c0.3,0.1,0.5,0.3,0.7,0.5c0.9-0.6,8.6-6.4,8.6-6.4"/>
			<path class="st1" d="M352.8,579.2l4.6,9.3c0.4-0.1,0.8-0.1,1.2-0.1c0.4-2,1.3-10.6,1.3-10.5"/>
			<path class="st1" d="M346.6,586.1l9.2,3.8c0.1-0.3,0.3-0.5,0.5-0.7c-0.6-0.9-6.2-8.1-6.2-8.1"/>
			<path class="st1" d="M346.9,595.9l8.9-4c-0.1-0.3-0.2-0.6-0.2-0.9c-1.1-0.2-9.7-2.4-9.7-2.4"/>
			<path class="st1" d="M354.1,602.3l3.1-9c-0.3-0.1-0.5-0.3-0.7-0.5c-0.9,0.6-7.7,5.7-7.7,5.7"/>
			<path class="st1" d="M363.8,602.2l-4.5-8.8c-0.3,0.1-0.6,0.1-1,0.1c-0.4,2-1,8.5-1.2,9.6"/>
			<path class="st1" d="M370.5,595.9l-9.4-3.8c-0.1,0.3-0.3,0.5-0.5,0.7c0.6,0.9,6,7.8,6,7.8"/>
			<path class="st1" d="M370.8,585.7L361,590c0.1,0.3,0.2,0.6,0.2,0.9c1.1,0.2,10.2,2.4,10.2,2.4"/>
			<path class="st1" d="M352.3,573c0.4-0.1,2.2,1.1-1.3,1.6c-2.7,0.4-7.3,0-7.7-0.7c-0.3-0.7,1.1-1.1,1.6-1.2"/>
			<line class="st1" x1="345.1" y1="572" x2="345.1" y2="574.2"/>
			<line class="st1" x1="353.2" y1="573.7" x2="353.2" y2="577"/>
			<path class="st1" d="M343.3,573.7l0.5,11.9c0,0,0.2,1,0.7,1.3"/>
			<line class="st1" x1="204.9" y1="609.9" x2="204.9" y2="614.2"/>
			<path class="st1" d="M206.6,614.3h-5.7c-1,4.9-1.4,10-1.2,15c-0.1,0.5-0.4,1-0.7,1.4l-0.1,1.8c0,0,0.5,0.5,0.5,0.8     c0,4.5,0.5,9,1.3,13.5l5.7,0.4C206.3,647.3,207.3,616.6,206.6,614.3z"/>
			<path class="st1" d="M200.9,614.3c0,0-0.2,13.6-0.2,32.6"/>
			<path class="st1" d="M214.7,614.3h5.7c1,4.9,1.4,10,1.2,15c0.1,0.5,0.4,1,0.7,1.4l0.1,1.8c0,0-0.5,0.5-0.5,0.8     c0,4.5-0.5,9-1.3,13.5l-5.7,0.4C215,647.3,214,616.6,214.7,614.3z"/>
			<path class="st1" d="M220.5,614.3c0,0,0.2,13.6,0.2,32.6"/>
			<line class="st1" x1="206.7" y1="615.9" x2="214.6" y2="615.9"/>
			<line class="st1" x1="206.7" y1="635.6" x2="214.6" y2="635.6"/>
			<line class="st1" x1="216.1" y1="610.3" x2="216.1" y2="614.3"/>
			<line class="st1" x1="199" y1="464.7" x2="199" y2="483"/>
			<path class="st1" d="M203.6,463c0,0-4.4,0.3-4.6,1.7c-0.2,1.3,8.9,2.4,13,2.3c4.1,0,12-0.7,11.4-2.3S219,463,219,463"/>
			<path class="st1" d="M203.6,456.5v8.1c0,0,8.6,2,15.5,0v-7.4"/>
			<path class="st1" d="M184,445.6c0,0,1.5,2.8,3.5,3.2s10.1,0.6,10.1,0.6"/>
			<path class="st1" d="M187.8,448.8c0,0,2.2,2.1,7,3.1c5.6,1.3,10.9,2.2,10.9,2.2s5,0.5,7.1,0.5c2.1,0,11.8-0.7,11.8-0.7"/>
			<path class="st1" d="M196.5,452.3c0,0,5.8,3.5,7.6,3.8c1.8,0.4,11.1,0.7,12,0.7c2.9-0.6,5.8-1.4,8.7-2.4"/>
			<path class="st1" d="M203.5,456c-0.1,0.7,0.3,1.3,1,1.6c1.1,0.5,12.9,0.7,13.7,0.4c0.8-0.4,1.5-1.1,1.8-2"/>
			<path class="st2" d="M72.3,374.8c-23.5,7-21,32.3-21,32.3s1.3,19.5,23.5,22.6c22.2,3.1,77.3,2.2,96.8,11.2     c19.9,9.2,47,12.7,76.7,11.7c28.7-0.9,142.4-5,147.7-24.8c5.4-19.9,2.7-43.2,0.2-46.8c-2.5-3.6-11.8-11.7-29.9-13.2     c-18.1-1.5-82.1-5.4-94.1-4s-53.3,9.5-66.1,10c-12.8,0.5-44.9,0.5-44.9,0.5C110.1,370.6,72.3,374.8,72.3,374.8z"/>
			<path class="st1" d="M51.9,397.2c0,0,0.9-8.2,1.6-15.2c0.8-7.2,1.8-14.4,3-21.6l1.9-10.9c0,0,4.5-30.9,3.9-39.2l-1.9-32.1     c0,0-10.7-56.5-17.3-79.6s-18.7-58.7-6.6-74.2s32.3-37.5,37.5-53.2s18.5-60,27.3-65s44.7-7.2,69.2,1.2"/>
			<path class="st1" d="M53.5,96l4.6,1.5c0,0,16.3,13.4,19,28.3c2.3,12.8,21.8,117.9,27.4,148.2c1,5.5,1.7,11.1,2.1,16.7     c0.6,9.6,1.6,24.8,1.8,32.2c0,0-1.1,45.4-3,50"/>
			<path class="st1" d="M222.2,106.5c0,0-10.9,24.4-6.1,55.7s17.8,92,20.5,106.2c2.7,14.2,6.2,72.5,2.3,100.7"/>
			<line class="st1" x1="83" y1="157.7" x2="215.8" y2="159.5"/>
			<path class="st3" d="M164.6,374.2c0,0,16.3,2.6,21.3,2.7c5,0.1,35.2,1.3,45.8,22.7"/>
			<path class="st3" d="M240.7,369.2c0,0,44.3,1,56.7,3.2c12.4,2.2,32.7-3.7,50.4,0c11,2.3,21,6.7,27.9,18.8"/>
			<path class="st3" d="M185.9,376.9c0,0,104.4-3.4,111.6-4.5"/>
			<path class="st1" d="M393.8,378.3c0,0,7,10.9-18.1,12.7l-143.8,8.3c0,0-29,2.8-46.9-3c-17.7-5.8-29.5-8.1-29.5-8.1l-24.9-4     c-10.8-1.7-57.2-9.8-57.2-9.8"/>
			<path class="st0" d="M145.9,97c0,0-19.3-0.4-34.7,10.6s-10.9,24.6-10.9,24.6s4.1,9.7,16.1,7.2s30.3-5.9,50.7-0.6s17-15.1,17-15.1     S179.8,99.9,145.9,97z"/>
			<path class="st3" d="M143.6,103.7c0,0-17.8-0.1-31.1,12c-6,5.8-4.5,11.4-4.5,11.4s2.2,5.5,7.4,5.1s22.5-3.8,30.3-2.9     c7.7,0.9,22.8,2.5,25.9,3.7s8.6-3.5,3.4-13.1S161.8,105,143.6,103.7z"/>
			<g>
				<polyline class="st3" points="86,169.6 158.4,193.2 217.7,169.4     "/>
				<polyline class="st3" points="222.4,194.1 192.2,206 180.2,210.7 163.3,217.4 159.4,216.2 89.8,194.1     "/>
				<polyline class="st3" points="94.3,219.8 176.7,238.9 191.3,232.7 192.6,232.1 204.6,227.2 211.7,224.3 215.4,222.8 226.8,218           "/>
				<line class="st1" x1="134.5" y1="297.4" x2="134.5" y2="297.4"/>
				<line class="st1" x1="134.5" y1="297.4" x2="134.5" y2="297.4"/>
			</g>
			<g>
				<path class="st0" d="M150.3,345.5c0,0-3.8,78.4-16.7,86.4c0,0-6.4,3.8-14.8,2.2c0,0-4.4-0.5-6.7-13.5c-2.3-13-3.7-19.5-0.2-25.3      s9.9-23.4,11.1-49.6c0,0-9.6-11.9-2.9-24.5c0,0-13.1-14.1-36.5-14.6c0,0-6.1,0-18.1,5.8c0,0-16.8,3.8-20-2      c-3.2-5.9-7.6-22-4.9-26.2c0,0,1.4-1.5,13.4-1.9c0,0-2.3-6.8,1.8-9.4c4.1-2.6,15.5-10,46.4-7.1s45.8,15.7,55.2,24.6      c9.5,8.9,6.9,22.7,6.9,22.7s-3.2,7.2-4.1,8.2c0,0-0.8,1.3-3.1,3.5c-2,1.8-3.5,2.7-3.5,2.7s1.1,9.1-0.3,12.5      c-0.9,2.1-2.9,5.1-2.9,5.1L150.3,345.5z"/>
				<path class="st1" d="M132.6,347.3c0,0,6.3,64.4-14.4,86.4"/>
				<ellipse class="st1" cx="116.6" cy="416.4" rx="3.2" ry="5"/>
				<ellipse class="st1" cx="124.8" cy="333.2" rx="3.2" ry="5"/>
				<path class="st1" d="M132.5,328.6c1.7,3,1.5,8.7,1.2,11.9c-0.2,1.9-1.3,4.6-2.8,6c-4.2,4-7.9-0.8-7.9-0.8"/>
				<path class="st1" d="M128.2,348.2c0,0,8.5-1.4,9.7-2.7l0.4-2.5l8.2-0.3l0.2,2.3l3.7-0.1"/>
				<path class="st1" d="M45.7,309.5c0,0,22.9-14.2,35.7-13.6c12.8,0.7,18.1-0.7,36,17.2s37.9,11,42.9,7.6c0,0-6,9.6-17.8,10      c-10.8,0.3-22.3-9.4-22.3-9.4"/>
				<ellipse class="st3" cx="46" cy="298.2" rx="1.2" ry="4.2"/>
				<path class="st1" d="M40.6,284.1c0,0,8,2.7,15.7,2.4c7.7-0.3,23.4-1.7,32.4,1.9s9.1,2.3,28.8,21s42.8,11.2,42.8,11.2"/>
				<path class="st1" d="M54,282.2c0,0,2.2,3.7,4.4,4.3"/>
				<path class="st1" d="M91.5,299.5l-1.3,4.8l-7.9-0.2l-0.2-3.9C82,300.2,85.2,299,91.5,299.5z"/>
				<path class="st1" d="M93.7,299.4l-1.4,5.2l8.9,2.6l1.9-3.9C103.2,303.3,102.6,302.2,93.7,299.4z"/>
				<path class="st1" d="M105,304.4l-0.8,4l8.5,4.4l0.9-1.2C113.6,311.5,111.7,307.8,105,304.4z"/>
				<path class="st1" d="M115.1,313l-0.5,1l3.6,3.7l0.6-1C118.8,316.7,116.8,314.3,115.1,313z"/>
				<path class="st1" d="M53.4,278.7c0,0,10.2-9.3,32.1-5.1s37.8,32.8,37.8,32.8s12.1,14.4,26.9,11.6c15.1-2.8,14.6-12.9,13.2-18"/>
			</g>
		</g>
		<g>
			<line class="st3" x1="112.1" y1="224" x2="214.4" y2="372.4"/>
			<line class="st3" x1="135.2" y1="229.2" x2="232.1" y2="369.7"/>
			<line class="st3" x1="158.4" y1="234.6" x2="240.6" y2="353.8"/>
			<line class="st3" x1="180" y1="237.5" x2="240.6" y2="325.5"/>
			<line class="st3" x1="195.1" y1="231.1" x2="238.9" y2="294.6"/>
			<line class="st3" x1="210.3" y1="224.8" x2="236.6" y2="262.9"/>
			<line class="st3" x1="96.5" y1="230.4" x2="123.7" y2="269.8"/>
			<line class="st3" x1="152.5" y1="341.2" x2="175.6" y2="374.7"/>
			<line class="st3" x1="108.4" y1="337.6" x2="122.1" y2="357.4"/>
			<line class="st3" x1="107.6" y1="362.9" x2="114.3" y2="372.6"/>
			<line class="st3" x1="149.3" y1="362.8" x2="157.6" y2="374.7"/>
			<line class="st3" x1="160.2" y1="322.8" x2="196" y2="374.7"/>
			<line class="st3" x1="236.1" y1="265.7" x2="161" y2="374.7"/>
			<line class="st3" x1="239.6" y1="287.9" x2="179.8" y2="374.7"/>
			<line class="st3" x1="240.3" y1="313.3" x2="197.9" y2="374.7"/>
			<line class="st3" x1="241" y1="338.4" x2="217.4" y2="372.6"/>
			<line class="st3" x1="232.1" y1="245.2" x2="150.2" y2="363.9"/>
			<line class="st3" x1="227.8" y1="226.2" x2="154.4" y2="332.7"/>
			<line class="st3" x1="117.9" y1="333.3" x2="107.5" y2="348.3"/>
			<line class="st3" x1="210.3" y1="224.8" x2="161.6" y2="295.9"/>
			<line class="st3" x1="113.5" y1="316" x2="109.1" y2="322.4"/>
			<line class="st3" x1="185.9" y1="234.8" x2="151.2" y2="285.4"/>
			<line class="st3" x1="167.4" y1="236.7" x2="139.9" y2="276.9"/>
			<line class="st3" x1="152.5" y1="233.2" x2="126.8" y2="270.5"/>
			<line class="st3" x1="138.9" y1="229.9" x2="113.6" y2="266.7"/>
			<line class="st3" x1="124.1" y1="226.6" x2="101.7" y2="259.2"/>
			<line class="st3" x1="110.1" y1="223.4" x2="98.4" y2="240.5"/>
			<line class="st3" x1="122.1" y1="353.5" x2="109.1" y2="372.4"/>
		</g>
	</g>
</g>
<path class="st4" d="M54.9,275.9c0,0,1.5-6.3,23.6-9.2s50.4,5.3,58.2,10.2c6.7,3.1,18,10.6,22,17.1c4.6,6.2,7.2,14.6-2.2,20.6  c-8.3,3-13.1,3.5-21.7-0.9c-8.6-4.4-10.3-8.2-10.3-8.2s-9.3-14.9-13.7-17.8c-3.7-2.8-8.5-9.8-19.8-14S59.5,271.8,54.9,275.9z"/>
<path class="st4" d="M270.6,253.9c0,0-0.4-1.4-0.4-1.7c1.9-0.7,6.3-1.6,10.9-2.1c22.1-2.9,50.5,7.3,58.2,12.2  c6.4,5,15.6,11.8,19.6,18.3c4.6,6.2,4.3,14.9,0,18.3c-3.8,2.8-12.3,5.9-20.9,1.5c-8.6-4.4-12.4-10-12.4-10s-7.7-13.4-12-18.7  c-3-3.6-8.7-10.4-20.1-14.6C282.4,252.9,275.4,253.5,270.6,253.9z"/>
<path class="st4" d="M54.9,279.3c0,0-0.4,3.4,3.8,5.6c4.4-0.2,20-1,26.3,0.8c10.1,2.5,19.1,8.2,23.3,13.1  c4.2,4.8,13.2,11.8,14.9,13.4c1.6,1.6,11.2,7.1,15.9,7.4c9.2,2,18.7,0.3,20.6-0.3c2-0.7,2.5-5.5,2.5-5.5s-2.6,3.4-9.9,5.2  c-7.4,1.8-10.4,0.3-14.7-1c-4.3-1.3-13.4-8-15.4-10.9c-2.1-2.9-5.6-11.4-19.5-23.4c-5.5-4.3-11.7-9.6-27.9-9.9  C60.9,274.4,54.9,279.3,54.9,279.3z"/>
<path class="st4" d="M271.2,256.8l2,9.7c0,0,14.9,0.2,23.3,5.2c8,3.1,15.4,12.7,19,16.3c0,0,7.2,8.8,14.1,12.7  c8.5,5.9,21.8,6.5,28.9,5.4c2.3-2.6,2.8-5.2,2.8-5.2s-4.4,4.5-11.2,4.4s-13.3-2.2-14.3-2.7c-1-0.5-9.7-6.5-12.3-10.7  c-2-3.4-13.7-22.9-19.7-26.5C292.9,257.9,286.2,255.6,271.2,256.8z"/>
</svg>