<svg xmlns="http://www.w3.org/2000/svg" viewBox="0 0 284.15 521.11"><defs><style>.cls-1,.cls-12,.cls-4,.cls-5,.cls-7{fill:#fff;}.cls-10,.cls-11,.cls-14,.cls-15,.cls-16,.cls-19,.cls-2,.cls-20,.cls-21,.cls-22,.cls-23,.cls-24,.cls-25,.cls-3,.cls-6,.cls-8,.cls-9{fill:none;}.cls-10,.cls-11,.cls-12,.cls-2,.cls-3,.cls-4,.cls-5,.cls-6,.cls-7,.cls-8,.cls-9{stroke:#000;}.cls-10,.cls-11,.cls-12,.cls-14,.cls-15,.cls-16,.cls-19,.cls-2,.cls-20,.cls-21,.cls-22,.cls-23,.cls-24,.cls-25,.cls-3,.cls-4,.cls-5,.cls-6,.cls-7,.cls-8,.cls-9{stroke-miterlimit:10;}.cls-2,.cls-3{stroke-width:1.72px;}.cls-3{stroke-dasharray:3.02 3.02;}.cls-4,.cls-6{stroke-width:1.77px;}.cls-5{stroke-width:1.81px;}.cls-7{stroke-width:1.53px;}.cls-10,.cls-11,.cls-8,.cls-9{stroke-width:1.7px;}.cls-9{stroke-dasharray:1.89 1.89;}.cls-10{stroke-dasharray:2.88 2.88;}.cls-11{stroke-dasharray:3.27 3.27;}.cls-12{stroke-width:1.68px;}.cls-13,.cls-18{fill:#fc0808;}.cls-14,.cls-15,.cls-16,.cls-19,.cls-20,.cls-21,.cls-22,.cls-23,.cls-24,.cls-25{stroke:#fc0808;}.cls-14{stroke-width:1.88px;}.cls-15{stroke-width:1.85px;}.cls-16{stroke-width:1.81px;}.cls-17{fill:#dedede;}.cls-18{isolation:isolate;font-size:15px;font-family:Roboto-Medium, Roboto;}.cls-19{stroke-width:1.8px;}.cls-20{stroke-width:1.61px;}.cls-21{stroke-width:1.46px;}.cls-22{stroke-width:1.58px;}.cls-23{stroke-width:1.63px;}.cls-24{stroke-width:2px;}.cls-25{stroke-width:1.95px;}</style></defs><title>120mm rev03</title><g id="Camada_2" data-name="Camada 2"><g id="Camada_1-2" data-name="Camada 1"><path class="cls-1" d="M98.71,176.42,98.14,29.78s-2.28-15.84,10.61-18.29,21.64-.68,24.55.52c5.44,2.23,7.13,4,7.29,16.42.19,13.83,1.16,148.35,1.16,148.35a39.51,39.51,0,0,1-21,8.37C105.57,186.17,98.71,176.42,98.71,176.42Z"/><path class="cls-2" d="M141.74,175.28c0,1,0,1.5,0,1.5s-.41.35-1.18.91"/><path class="cls-3" d="M138.07,179.37a38.62,38.62,0,0,1-17.33,5.78c-15.17,1-22-8.73-22-8.73L98.14,29.78s-2.28-15.84,10.61-18.29,21.64-.68,24.55.52c5.44,2.23,7.13,4,7.29,16.42.17,12.6,1,125.38,1.14,145.34"/><path class="cls-4" d="M124.08,198.28c32.84,0,36.16,8.41,36.16,8.41l0,170.52s-.59,78.58-.63,81.46-1.89,7.34-2.81,9.76-1,9.77-2.22,11.84c-1.32,2.23-9.25,6.89-33.44,7.21s-32.49-7.83-32.45-10.71-1.18-12-1.18-12l-2.38-7.47c0-2.88-2.46-82.83-2.46-82.83L81.54,205.78s3.27-7.79,36.11-7.59Z"/><path class="cls-5" d="M96.62,205.89l.77-73.21s-2.31-8,11.59-8.86,23.31.23,26.43.9c5.84,1.26,7.64,2.21,7.7,8.39.07,6.91-.15,74.08-.15,74.08a73.3,73.3,0,0,1-22.7,3.63C103.91,210.94,96.62,205.89,96.62,205.89Z"/><path class="cls-6" d="M81.54,205.78s9.76,7.72,37.92,7.72c30.77,0,40.78-6.81,40.78-6.81"/><path class="cls-6" d="M81.43,213.73s9.77,7.2,37.92,7.19c30.77,0,40.78-6.82,40.78-6.82"/><path class="cls-4" d="M87.65,465.71s20.78,7.94,41.95,6.76,27.22-4,27.22-4"/><path class="cls-7" d="M111.12,130.75l0-8.4s2.8-2.33,9.69-2.25c5.07.06,8.68,1.67,9.54,2.39s0,8.5,0,8.5A52.54,52.54,0,0,1,111.12,130.75Z"/><path class="cls-1" d="M111.12,13.27V4.59s2.8-2.41,9.69-2.34c5.07.06,8.68,1.71,9.53,2.45s0,8.78,0,8.78A51,51,0,0,1,111.12,13.27Z"/><path class="cls-8" d="M112.59,13.57q-.74-.13-1.47-.3v-1.5"/><line class="cls-9" x1="111.12" y1="9.88" x2="111.12" y2="7.04"/><path class="cls-8" d="M111.12,6.09V4.59a6.08,6.08,0,0,1,1.28-.77"/><path class="cls-10" d="M115.11,2.86a22.35,22.35,0,0,1,5.7-.61c5.07.06,8.68,1.71,9.53,2.45.46.4.37,3.45.23,5.84"/><path class="cls-8" d="M130.47,12c-.07.9-.13,1.5-.13,1.5s-.53.11-1.47.25"/><path class="cls-11" d="M125.63,14.11a51.65,51.65,0,0,1-11.42-.27"/><path class="cls-12" d="M98,132a115.86,115.86,0,0,0,24.83,3.09c13.54.17,20.3-2.54,20.3-2.54"/><polygon class="cls-13" points="230.76 487.49 221.44 468.03 240.07 468.03 230.76 487.49"/><line class="cls-14" x1="230.76" y1="471.93" x2="230.76" y2="210.56"/><line class="cls-15" x1="154.11" y1="205.78" x2="247.86" y2="205.78"/><line class="cls-16" x1="98.37" y1="487.44" x2="255.73" y2="487.49"/><polygon class="cls-13" points="230.76 205.78 240.07 225.1 221.44 225.1 230.76 205.78"/><rect class="cls-17" x="208.97" y="323.62" width="75.18" height="19.03"/><rect class="cls-17" x="95.31" y="490.63" width="57.85" height="15.84"/><text class="cls-18" transform="translate(217.35 339.01)">220 mm</text><polygon class="cls-13" points="83.06 367.52 100.3 359.27 100.3 375.78 83.06 367.52"/><line class="cls-19" x1="91.68" y1="367.46" x2="157.24" y2="367.46"/><line class="cls-20" x1="82.68" y1="335.5" x2="82.68" y2="376.78"/><line class="cls-21" x1="160.26" y1="336.83" x2="160.26" y2="376.78"/><polygon class="cls-13" points="160.26 367.46 143.14 375.72 143.14 359.2 160.26 367.46"/><text class="cls-18" transform="translate(99.03 356.14)">50 mm</text><polygon class="cls-13" points="88.03 511.85 105.27 503.59 105.27 520.11 88.03 511.85"/><line class="cls-22" x1="96.65" y1="511.79" x2="146.94" y2="511.79"/><line class="cls-23" x1="87.65" y1="479.12" x2="87.65" y2="521.11"/><line class="cls-21" x1="157.22" y1="480.49" x2="157.22" y2="520.45"/><polygon class="cls-13" points="157.22 511.85 140.1 520.11 140.1 503.59 157.22 511.85"/><text class="cls-18" transform="translate(101.25 503)">44 mm</text><polygon class="cls-13" points="27.85 135.08 36.25 117.68 19.55 117.68 27.85 135.08"/><line class="cls-24" x1="27.85" y1="121.38" x2="27.85" y2="17.5"/><line class="cls-24" x1="119.87" y1="1" x2="21.97" y2="1"/><line class="cls-24" x1="96.15" y1="134.98" x2="19.55" y2="134.98"/><polygon class="cls-13" points="27.85 2.11 19.55 19.31 36.25 19.31 27.85 2.11"/><rect class="cls-17" y="59.63" width="63.5" height="19.03"/><text class="cls-18" transform="translate(4.81 75.02)">120 mm</text><polygon class="cls-13" points="225.62 188.09 208.92 188.09 217.32 205.49 225.62 188.09"/><line class="cls-25" x1="217.32" y1="124.7" x2="217.32" y2="198.23"/><line class="cls-24" x1="228.57" y1="121.07" x2="130.67" y2="121.07"/><polygon class="cls-13" points="208.97 138.23 225.67 138.23 217.37 121.03 208.97 138.23"/><rect class="cls-17" x="190.5" y="150.12" width="60.37" height="19.03"/><text class="cls-18" transform="translate(195.3 165.51)">51 mm</text><polygon class="cls-13" points="96.21 177.97 113.41 169.67 113.41 186.17 96.21 177.97"/><polygon class="cls-13" points="143.53 177.97 126.33 186.17 126.33 169.67 143.53 177.97"/><line class="cls-24" x1="98.85" y1="178.16" x2="142.45" y2="178.16"/><line class="cls-24" x1="96.75" y1="169.67" x2="96.75" y2="191.92"/><line class="cls-24" x1="143.12" y1="169.67" x2="143.12" y2="191.92"/><text class="cls-18" transform="translate(97.99 165.51)">28 mm</text></g></g></svg>