<?xml version="1.0" encoding="utf-8"?>
<!-- Generator: Adobe Illustrator 23.0.1, SVG Export Plug-In . SVG Version: 6.00 Build 0)  -->
<svg version="1.1" id="Camada_1" xmlns="http://www.w3.org/2000/svg" xmlns:xlink="http://www.w3.org/1999/xlink" x="0px" y="0px"
	 viewBox="0 0 600 600" style="enable-background:new 0 0 600 600;" xml:space="preserve">
<style type="text/css">
	.st0{fill:#FFFFFF;stroke:#1E1E1C;stroke-miterlimit:10;}
	.st1{fill:none;stroke:#1E1E1C;stroke-width:0.6333;stroke-miterlimit:10;}
	.st2{fill:#FFFFFF;stroke:#1E1E1C;stroke-width:1.2665;stroke-miterlimit:10;}
	.st3{fill:#FFFFFF;stroke:#1E1E1C;stroke-width:0.6333;stroke-miterlimit:10;}
	.st4{fill:none;stroke:#1E1E1C;stroke-width:0.9721;stroke-miterlimit:10;}
	.st5{fill:#FFFFFF;}
	.st6{fill:none;stroke:#1E1E1C;stroke-width:0.9881;stroke-miterlimit:10;}
	.st7{fill:none;stroke:#1E1E1C;stroke-width:1.2665;stroke-miterlimit:10;}
	.st8{fill:#FFFFFF;stroke:#1E1E1C;stroke-width:0.9721;stroke-miterlimit:10;}
	.st9{fill:#FFFFFF;stroke:#1E1E1C;stroke-width:0.9091;stroke-miterlimit:10;}
	.st10{fill:#FFFFFF;stroke:#1E1E1C;stroke-width:0.5889;stroke-miterlimit:10;}
	.st11{fill:#FFFFFF;stroke:#1E1E1C;stroke-width:1.019;stroke-miterlimit:10;}
	.st12{fill:#FFFFFF;stroke:#1E1E1C;stroke-width:0.953;stroke-miterlimit:10;}
	.st13{fill:#FFFFFF;stroke:#1E1E1C;stroke-width:0.6639;stroke-miterlimit:10;}
	.st14{fill:#FFFFFF;stroke:#1E1E1C;stroke-width:0.6174;stroke-miterlimit:10;}
	.st15{fill:#FFFFFF;stroke:#1E1E1C;stroke-width:1.3277;stroke-miterlimit:10;}
	.st16{fill:none;stroke:#1E1E1C;stroke-width:0.75;stroke-miterlimit:10;}
	.st17{fill:none;stroke:#1E1E1C;stroke-miterlimit:10;}
	.st18{fill:none;stroke:#1E1E1C;stroke-width:1.3977;stroke-miterlimit:10;}
	.st19{fill:none;stroke:#1E1E1C;stroke-width:2;stroke-miterlimit:10;}
	.st20{fill:#FFFFFF;stroke:#1E1E1C;stroke-width:0.5;stroke-miterlimit:10;}
	.st21{fill:none;stroke:#1E1E1C;stroke-width:0.5;stroke-miterlimit:10;}
	.st22{fill:none;stroke:#1E1E1C;stroke-width:1.0033;stroke-miterlimit:10;}
	.st23{fill:#FFFFFF;stroke:#020203;stroke-width:0.75;stroke-miterlimit:10;}
	.st24{fill:none;stroke:#020203;stroke-miterlimit:10;}
	.st25{fill:#FFFFFF;stroke:#020203;stroke-miterlimit:10;}
	.st26{fill:none;stroke:#020203;stroke-width:0.5;stroke-miterlimit:10;}
	.st27{fill:#FFFFFF;stroke:#020203;stroke-linejoin:round;}
	.st28{fill:none;stroke:#020203;stroke-linejoin:round;}
	.st29{fill:none;stroke:#020203;stroke-width:0.75;stroke-miterlimit:10;}
	.st30{fill:none;stroke:#020203;stroke-width:0.25;stroke-miterlimit:10;}
	.st31{fill:none;stroke:#E52624;stroke-width:1.5;stroke-miterlimit:10;}
	.st32{fill:#E52624;}
	.st33{fill:#FFFFFF;stroke:#020203;stroke-width:0.5;stroke-miterlimit:10;}
	.st34{fill:none;stroke:#E52522;stroke-width:1.5;stroke-miterlimit:10;}
	.st35{fill:#E52522;}
	.st36{fill:#E7E6E6;}
	.st37{fill:none;stroke:#E20D18;stroke-width:2;stroke-miterlimit:10;}
	.st38{fill:none;stroke:#E20D18;stroke-width:1.8;stroke-miterlimit:10;}
	.st39{fill:none;stroke:#E20D18;stroke-width:1.62;stroke-miterlimit:10;}
	.st40{fill:#E20D18;}
	.st41{fill:none;stroke:#E20D18;stroke-width:1.54;stroke-miterlimit:10;}
	.st42{fill:none;stroke:#E20D18;stroke-width:1.74;stroke-miterlimit:10;}
	.st43{fill:none;stroke:#E20D18;stroke-width:1.55;stroke-miterlimit:10;}
	.st44{fill:none;stroke:#E20D18;stroke-width:1.56;stroke-miterlimit:10;}
	.st45{fill:none;stroke:#E20D18;stroke-width:1.53;stroke-miterlimit:10;}
	.st46{fill:none;stroke:#E20D18;stroke-width:1.58;stroke-miterlimit:10;}
	.st47{fill:none;stroke:#E20D18;stroke-width:1.69;stroke-miterlimit:10;}
	.st48{fill:none;stroke:#E20D18;stroke-width:1.43;stroke-miterlimit:10;}
	.st49{fill:none;stroke:#E20D18;stroke-width:1.48;stroke-miterlimit:10;}
	.st50{fill:none;stroke:#E20D18;stroke-width:1.67;stroke-miterlimit:10;}
	.st51{fill:none;stroke:#E20D18;stroke-width:1.65;stroke-miterlimit:10;}
	.st52{fill:#FFFFFF;stroke:#020203;stroke-width:3;stroke-miterlimit:10;}
	.st53{fill:none;stroke:#E20D18;stroke-width:1.41;stroke-miterlimit:10;}
	.st54{fill:none;stroke:#E20D18;stroke-width:1.59;stroke-miterlimit:10;}
	.st55{fill:none;stroke:#1E1E1C;stroke-width:1.05;stroke-miterlimit:10;}
	.st56{fill:none;stroke:#1E1E1C;stroke-width:0.52;stroke-miterlimit:10;}
	.st57{fill:none;stroke:#1E1E1C;stroke-width:0.8;stroke-miterlimit:10;}
	.st58{fill:none;stroke:#1E1E1C;stroke-width:0.49;stroke-miterlimit:10;}
	.st59{fill:none;stroke:#1E1E1C;stroke-width:0.84;stroke-miterlimit:10;}
	.st60{fill:none;stroke:#1E1E1C;stroke-width:0.79;stroke-miterlimit:10;}
	.st61{fill:none;stroke:#1E1E1C;stroke-width:0.55;stroke-miterlimit:10;}
	.st62{fill:none;stroke:#1E1E1C;stroke-width:0.51;stroke-miterlimit:10;}
	.st63{fill:none;stroke:#1E1E1C;stroke-width:1.1;stroke-miterlimit:10;}
	.st64{fill:none;stroke:#1E1E1C;stroke-width:0.25;stroke-miterlimit:10;}
	.st65{fill:none;stroke:#1E1E1C;stroke-width:1.07;stroke-miterlimit:10;}
	.st66{fill:none;stroke:#1E1E1C;stroke-width:0.94;stroke-miterlimit:10;}
	.st67{fill:none;stroke:#1E1E1C;stroke-width:0.56;stroke-miterlimit:10;}
	.st68{fill:none;stroke:#E20D18;stroke-width:1.5;stroke-miterlimit:10;}
	.st69{fill:none;stroke:#E20D18;stroke-width:1.49;stroke-miterlimit:10;}
	.st70{fill:none;stroke:#E20D18;stroke-miterlimit:10;}
	.st71{fill:none;stroke:#1E1E1C;stroke-width:0.78;stroke-miterlimit:10;}
	.st72{fill:none;stroke:#1E1E1C;stroke-width:1.08;stroke-miterlimit:10;}
	.st73{fill:none;stroke:#1E1E1C;stroke-width:0.54;stroke-miterlimit:10;}
	.st74{fill:none;stroke:#1E1E1C;stroke-width:0.83;stroke-miterlimit:10;}
	.st75{fill:none;stroke:#1E1E1C;stroke-width:0.77;stroke-miterlimit:10;}
	.st76{fill:none;stroke:#1E1E1C;stroke-width:0.87;stroke-miterlimit:10;}
	.st77{fill:none;stroke:#1E1E1C;stroke-width:0.81;stroke-miterlimit:10;}
	.st78{fill:none;stroke:#1E1E1C;stroke-width:1.13;stroke-miterlimit:10;}
	.st79{fill:none;stroke:#1E1E1C;stroke-width:0.21;stroke-miterlimit:10;}
	.st80{fill:#FFFFFF;stroke:#1E1E1C;stroke-width:0.84;stroke-miterlimit:10;}
	.st81{fill:none;stroke:#1E1E1C;stroke-width:0.42;stroke-miterlimit:10;}
	.st82{fill:none;stroke:#1E1E1C;stroke-width:0.24;stroke-miterlimit:10;}
	.st83{fill:none;stroke:#E20D18;stroke-width:1.6;stroke-miterlimit:10;}
	.st84{fill:none;stroke:#E20D18;stroke-width:1.64;stroke-miterlimit:10;}
	.st85{fill:none;stroke:#E20D18;stroke-width:1.484;stroke-miterlimit:10;}
	.st86{fill:none;stroke:#E20D18;stroke-width:1.4075;stroke-miterlimit:10;}
	.st87{fill:none;stroke:#E20D18;stroke-width:1.5853;stroke-miterlimit:10;}
	.st88{fill:none;stroke:#E20D18;stroke-width:1.2981;stroke-miterlimit:10;}
	.st89{fill:none;stroke:#E20D18;stroke-width:0.9733;stroke-miterlimit:10;}
	.st90{fill:none;stroke:#E20D18;stroke-width:0.9159;stroke-miterlimit:10;}
	.st91{fill:none;stroke:#E20D18;stroke-width:1.4439;stroke-miterlimit:10;}
	.st92{fill:none;stroke:#E20D18;stroke-width:1.0062;stroke-miterlimit:10;}
	.st93{fill:none;stroke:#E20D18;stroke-width:0.9468;stroke-miterlimit:10;}
	.st94{font-family:'Roboto-Medium';}
	.st95{font-size:12.5557px;}
	.st96{fill:none;stroke:#E20D18;stroke-width:1.6749;stroke-miterlimit:10;}
	.st97{fill:none;stroke:#E20D18;stroke-width:1.6513;stroke-miterlimit:10;}
	.st98{fill:#FFFFFF;stroke:#1E1E1C;stroke-width:0.8664;stroke-miterlimit:10;}
	.st99{fill:#FFFFFF;stroke:#1E1E1C;stroke-width:1.0973;stroke-miterlimit:10;}
	.st100{fill:none;stroke:#1E1E1C;stroke-width:1.0973;stroke-miterlimit:10;}
	.st101{fill:#FFFFFF;stroke:#1E1E1C;stroke-width:0.5487;stroke-miterlimit:10;}
	.st102{fill:none;stroke:#1E1E1C;stroke-width:0.8422;stroke-miterlimit:10;}
	.st103{fill:#FFFFFF;stroke:#1E1E1C;stroke-width:0.7877;stroke-miterlimit:10;}
	.st104{fill:#FFFFFF;stroke:#1E1E1C;stroke-width:0.5103;stroke-miterlimit:10;}
	.st105{fill:#FFFFFF;stroke:#1E1E1C;stroke-width:0.8422;stroke-miterlimit:10;}
	.st106{fill:none;stroke:#1E1E1C;stroke-width:0.8829;stroke-miterlimit:10;}
	.st107{fill:#FFFFFF;stroke:#1E1E1C;stroke-width:0.8257;stroke-miterlimit:10;}
	.st108{fill:#FFFFFF;stroke:#1E1E1C;stroke-width:0.5752;stroke-miterlimit:10;}
	.st109{fill:#FFFFFF;stroke:#1E1E1C;stroke-width:0.5349;stroke-miterlimit:10;}
	.st110{fill:#FFFFFF;stroke:#1E1E1C;stroke-width:1.1504;stroke-miterlimit:10;}
	.st111{fill:#FFFFFF;stroke:#1E1E1C;stroke-width:0.8829;stroke-miterlimit:10;}
	.st112{fill:none;stroke:#1E1E1C;stroke-width:0.5487;stroke-miterlimit:10;}
	.st113{fill:#FFFFFF;stroke:#1E1E1C;stroke-width:1.0441;stroke-miterlimit:10;}
	.st114{fill:none;stroke:#E20D18;stroke-width:1.5173;stroke-miterlimit:10;}
	.st115{fill:none;stroke:#E20D18;stroke-width:1.804;stroke-miterlimit:10;}
	.st116{fill:none;stroke:#E20D18;stroke-width:1.6153;stroke-miterlimit:10;}
	.st117{fill:none;stroke:#E20D18;stroke-width:1.578;stroke-miterlimit:10;}
	.st118{fill:none;stroke:#E20D18;stroke-width:1.6879;stroke-miterlimit:10;}
	.st119{fill:none;stroke:#E20D18;stroke-width:1.6347;stroke-miterlimit:10;}
	.st120{fill:none;stroke:#E20D18;stroke-width:1.5386;stroke-miterlimit:10;}
	.st121{fill:none;stroke:#E20D18;stroke-width:1.7396;stroke-miterlimit:10;}
	.st122{fill:#FFFFFF;stroke:#1E1E1C;stroke-width:1.4;stroke-miterlimit:10;}
	.st123{fill:none;stroke:#E20D18;stroke-width:1.4266;stroke-miterlimit:10;}
	.st124{fill:none;stroke:#E20D18;stroke-width:1.4299;stroke-miterlimit:10;}
	.st125{fill:none;stroke:#1E1E1C;stroke-width:0.9867;stroke-miterlimit:10;}
	.st126{fill:none;stroke:#DD0B18;stroke-width:1.4266;stroke-miterlimit:10;}
	.st127{fill:none;stroke:#DD0B18;stroke-width:1.4299;stroke-miterlimit:10;}
	.st128{fill:#DD0B18;}
	.st129{fill:none;stroke:#DD0B18;stroke-width:1.484;stroke-miterlimit:10;}
	.st130{fill:none;stroke:#DD0B18;stroke-width:1.4075;stroke-miterlimit:10;}
	.st131{fill:none;stroke:#DD0B18;stroke-width:1.5853;stroke-miterlimit:10;}
	.st132{fill:none;stroke:#DD0B18;stroke-width:1.2981;stroke-miterlimit:10;}
	.st133{fill:none;stroke:#DD0B18;stroke-width:0.9733;stroke-miterlimit:10;}
	.st134{fill:none;stroke:#DD0B18;stroke-width:0.9159;stroke-miterlimit:10;}
	.st135{fill:none;stroke:#DD0B18;stroke-width:1.4439;stroke-miterlimit:10;}
	.st136{fill:none;stroke:#DD0B18;stroke-width:1.0062;stroke-miterlimit:10;}
	.st137{fill:none;stroke:#DD0B18;stroke-width:0.9468;stroke-miterlimit:10;}
	.st138{fill:none;stroke:#DD0B18;stroke-width:1.6749;stroke-miterlimit:10;}
	.st139{fill:none;stroke:#DD0B18;stroke-width:1.6513;stroke-miterlimit:10;}
	.st140{fill:#FFFFFF;stroke:#1E1E1C;stroke-width:0.75;stroke-miterlimit:10;}
	.st141{fill:none;stroke:#DD0B18;stroke-width:1.5173;stroke-miterlimit:10;}
	.st142{fill:none;stroke:#DD0B18;stroke-width:1.804;stroke-miterlimit:10;}
	.st143{fill:none;stroke:#DD0B18;stroke-width:1.6153;stroke-miterlimit:10;}
	.st144{fill:none;stroke:#DD0B18;stroke-width:1.5551;stroke-miterlimit:10;}
	.st145{fill:none;stroke:#DD0B18;stroke-width:1.578;stroke-miterlimit:10;}
	.st146{fill:#E0E0E0;}
	.st147{fill:none;stroke:#DD0B18;stroke-width:1.6879;stroke-miterlimit:10;}
	.st148{fill:none;stroke:#DD0B18;stroke-width:1.6347;stroke-miterlimit:10;}
	.st149{fill:none;stroke:#DD0B18;stroke-width:1.5386;stroke-miterlimit:10;}
	.st150{fill:none;stroke:#DD0B18;stroke-width:1.7396;stroke-miterlimit:10;}
	.st151{fill:#FFFFFF;stroke:#020203;stroke-width:1.635;stroke-miterlimit:10;}
	.st152{fill:none;stroke:#E20D18;stroke-width:1.52;stroke-miterlimit:10;}
	.st153{fill:#020203;}
	.st154{fill:none;stroke:#1E1E1C;stroke-linejoin:round;}
	.st155{fill:none;stroke:#1E1E1C;stroke-linecap:round;stroke-miterlimit:10;}
	.st156{fill:#1E1E1C;}
	.st157{fill:none;stroke:#1E1E1C;stroke-linejoin:round;stroke-miterlimit:10;}
	.st158{fill:none;stroke:#020203;stroke-linejoin:bevel;stroke-miterlimit:10;}
	.st159{fill:none;stroke:#020203;stroke-miterlimit:10;stroke-dasharray:1;}
	.st160{fill:none;stroke:#020203;stroke-width:0.5;stroke-miterlimit:10;stroke-dasharray:1;}
	.st161{fill:none;stroke:#E20D18;stroke-width:1.3;stroke-miterlimit:10;}
	.st162{fill:none;stroke:#E20D18;stroke-width:0.97;stroke-miterlimit:10;}
	.st163{fill:none;stroke:#E20D18;stroke-width:0.92;stroke-miterlimit:10;}
	.st164{fill:none;stroke:#E20D18;stroke-width:1.44;stroke-miterlimit:10;}
	.st165{fill:none;stroke:#E20D18;stroke-width:1.01;stroke-miterlimit:10;}
	.st166{fill:none;stroke:#E20D18;stroke-width:0.95;stroke-miterlimit:10;}
	.st167{fill:#FFFFFF;stroke:#1E1E1C;stroke-width:2;stroke-miterlimit:10;}
	.st168{fill:none;stroke:#1E1E1C;stroke-width:1.5;stroke-linejoin:round;}
	.st169{fill:none;stroke:#1E1E1C;stroke-width:1.5;stroke-miterlimit:10;}
	.st170{fill:none;stroke:#1E1E1C;stroke-width:2;stroke-linecap:round;stroke-miterlimit:10;}
	.st171{fill:none;stroke:#1E1E1C;stroke-width:1.5;stroke-linecap:round;stroke-miterlimit:10;}
	.st172{fill:none;stroke:#1E1E1C;stroke-width:2;stroke-linejoin:round;stroke-miterlimit:10;}
	.st173{fill:none;stroke:#1E1E1C;stroke-width:2;stroke-linejoin:round;}
	.st174{fill:none;stroke:#020203;stroke-width:0.5;stroke-linejoin:bevel;stroke-miterlimit:10;}
	.st175{fill:none;stroke:#E20D18;stroke-width:1.63;stroke-miterlimit:10;}
	.st176{fill:none;stroke:#000000;stroke-miterlimit:10;}
	.st177{fill:#FFFFFF;stroke:#000000;stroke-miterlimit:10;}
	.st178{fill:none;stroke:#E20D18;stroke-width:1.3113;stroke-miterlimit:10;}
	.st179{fill:none;stroke:#E20D18;stroke-width:1.3459;stroke-miterlimit:10;}
	.st180{fill:none;stroke:#E20D18;stroke-width:1.4481;stroke-miterlimit:10;}
	.st181{fill:none;stroke:#E20D18;stroke-width:1.3929;stroke-miterlimit:10;}
	.st182{fill:none;stroke:#E20D18;stroke-width:1.327;stroke-miterlimit:10;}
	.st183{fill:none;stroke:#E20D18;stroke-width:1.4965;stroke-miterlimit:10;}
	.st184{fill:none;stroke:#E20D18;stroke-width:1.225;stroke-miterlimit:10;}
	.st185{fill:none;stroke:#E20D18;stroke-width:1.4563;stroke-miterlimit:10;}
	.st186{fill:none;stroke:#E20D18;stroke-width:1.5717;stroke-miterlimit:10;}
	.st187{fill:none;stroke:#E20D18;stroke-width:1.5529;stroke-miterlimit:10;}
	.st188{fill:#BFBEBF;stroke:#020203;stroke-miterlimit:10;}
	.st189{fill:none;stroke:#E20D18;stroke-width:2.0835;stroke-miterlimit:10;}
	.st190{fill:none;stroke:#E20D18;stroke-width:1.8751;stroke-miterlimit:10;}
	.st191{fill:none;stroke:#E20D18;stroke-width:1.6876;stroke-miterlimit:10;}
	.st192{fill:none;stroke:#E20D18;stroke-width:1.698;stroke-miterlimit:10;}
	.st193{fill:none;stroke:#E20D18;stroke-width:1.6043;stroke-miterlimit:10;}
	.st194{fill:none;stroke:#E20D18;stroke-width:1.8126;stroke-miterlimit:10;}
	.st195{fill:none;stroke:#E20D18;stroke-width:1.6147;stroke-miterlimit:10;}
	.st196{fill:none;stroke:#E20D18;stroke-width:1.5938;stroke-miterlimit:10;}
	.st197{fill:none;stroke:#E20D18;stroke-width:1.6251;stroke-miterlimit:10;}
	.st198{fill:none;stroke:#E20D18;stroke-width:1.6459;stroke-miterlimit:10;}
	.st199{fill:none;stroke:#E20D18;stroke-width:1.7605;stroke-miterlimit:10;}
	.st200{fill:#FFFFFF;stroke:#1E1E1C;stroke-width:0.87;stroke-miterlimit:10;}
	.st201{fill:#FFFFFF;stroke:#1E1E1C;stroke-width:1.1;stroke-miterlimit:10;}
	.st202{fill:#FFFFFF;stroke:#1E1E1C;stroke-width:0.55;stroke-miterlimit:10;}
	.st203{fill:#FFFFFF;stroke:#1E1E1C;stroke-width:0.79;stroke-miterlimit:10;}
	.st204{fill:#FFFFFF;stroke:#1E1E1C;stroke-width:0.51;stroke-miterlimit:10;}
	.st205{fill:none;stroke:#1E1E1C;stroke-width:0.88;stroke-miterlimit:10;}
	.st206{fill:#FFFFFF;stroke:#1E1E1C;stroke-width:0.83;stroke-miterlimit:10;}
	.st207{fill:#FFFFFF;stroke:#1E1E1C;stroke-width:0.58;stroke-miterlimit:10;}
	.st208{fill:#FFFFFF;stroke:#1E1E1C;stroke-width:0.53;stroke-miterlimit:10;}
	.st209{fill:#FFFFFF;stroke:#1E1E1C;stroke-width:1.15;stroke-miterlimit:10;}
	.st210{fill:#FFFFFF;stroke:#1E1E1C;stroke-width:0.88;stroke-miterlimit:10;}
	.st211{fill:#FFFFFF;stroke:#1E1E1C;stroke-width:1.04;stroke-miterlimit:10;}
	.st212{fill:#FFFFFF;stroke:#020203;stroke-linejoin:round;stroke-miterlimit:10;}
	.st213{font-size:12.5735px;}
</style>
<g>
	<path class="st0" d="M435.1,504.3c7.9,0.2,14.2,7.2,14,15.7c-0.1,2.4-1,6.5-1.9,8.5l-28.1-7.9l10.2-13.4L435.1,504.3z"/>
	<path class="st1" d="M448.5,520.4c0.2-8.5-7.3-14.6-15.3-14.7"/>
	<path class="st2" d="M432,542.2c7.9,0.2,14.5-6.5,14.7-15c0.2-8.5-6.1-15.5-14-15.7c-7.9-0.2-14.5,6.5-14.7,15
		C417.8,535,424.1,542.1,432,542.2"/>
	
		<ellipse transform="matrix(2.294241e-02 -0.9997 0.9997 2.294241e-02 -104.6267 946.8541)" class="st3" cx="432.1" cy="527" rx="2.6" ry="2.5"/>
	<path class="st1" d="M432.1,514c0,0-0.3,8.4-0.6,8.8c-0.3,0.4-0.7,0.7-1.5,0c-0.9-0.8-4.3-6.7-4.3-6.7"/>
	<path class="st1" d="M434,514c0,0-0.6,8.4-0.3,8.8c0.3,0.4,0.6,0.8,1.5,0.1c1-0.7,4.9-6.3,4.9-6.3"/>
	<path class="st1" d="M441.9,518.9c0,0-5.5,6-5.6,6.5c0,0.5,0,1,1.1,1.2c1.1,0.1,7.5-1.4,7.5-1.4"/>
	<path class="st1" d="M444.7,529.1c0,0-7.9-0.6-8.3-0.3c-0.4,0.3-0.8,0.6-0.1,1.6c0.6,1,5.8,5.3,5.8,5.3"/>
	<path class="st4" d="M432.1,539.9c6.7,0.2,12.3-5.6,12.5-12.7c0.2-7.2-5.2-13.1-11.9-13.3s-12.3,5.6-12.5,12.7
		S425.3,539.8,432.1,539.9"/>
	<path class="st1" d="M448,524.1c0.2-8.5-5.8-14.7-13.8-14.9c0,0-2.2-0.4-6,0.9"/>
	<g>
		<g>
			<path class="st5" d="M115.3,509.8c0,0-7.9-0.3-12.6,7.3s0.4,17.3,0.4,17.3c2.9,14.4,14.7,13.4,14.7,13.4
				c17.3-0.6,14.3-22.6,14.3-22.6l-0.2-15.4C131.9,509.9,125.6,515,115.3,509.8z"/>
			<path class="st5" d="M350.8,450.3l-0.6,1.6c0,0-2.4,0-4.7,11.3l28.3,6.8c0,0,3.9-14.6-3.2-18.2l-3.8-0.7l-3.9,0.7l-0.1-2.4
				L350.8,450.3z"/>
			<path class="st5" d="M198,452.6l0.7,1.6c0,0,2.4-0.1,5.2,11.1l-27.9,8.1c0,0-4.5-14.5,2.4-18.3l3.7-0.9l3.9,0.6l-0.1-2.4
				L198,452.6z"/>
			<path class="st5" d="M271.1,553.6l0.1,3.2l-5.3,0.1l-1.7,4.3l0.9,26.5l2.1,4.7l5.4-0.1c0,0,0.9-1.1,0.7-5.9s-0.1-6-0.1-6l8.8-0.3
				l0.2,9.2c0,0,0.4,2.7,0.9,2.7s5.4-0.1,5.4-0.1s2.1-3.2,2.4-5.9s-0.6-24.8-0.6-24.8l-2.1-4.8l-5.8,0.1l-0.2-1.9L271.1,553.6z"/>
		</g>
		<g id="Base_4_">
			<g id="base_7_">
				<g>
					<path class="st0" d="M293.4,452l-0.3-7c0,0,10.2-6.2,40.2-7.4c30-1.2,32.9,6,32.9,6s1.4,1.2,0.5,7.6c0,0-3.1,0.9-3.6,0.7
						c-0.4-0.2-0.2-2.4-0.2-2.4s-26.2,0.2-41.6,8.2"/>
					<path class="st0" d="M257,452.1l-0.2-6.7c0,0-11.4-6.1-41.4-6s-32.6,7.5-32.6,7.5s-1.3,1.2-0.2,7.6c0,0,3.2,0.7,3.6,0.6
						c0.4-0.2,0.1-2.4,0.1-2.4s26.2-1,42,6.2"/>
					<path class="st0" d="M276.8,457.8c11.4,0,16.6-5.8,16.6-5.8l0-0.7l-2.2-44.9c-0.1-1.2-0.2-2.3-0.5-3.4c-0.2-0.9-0.6-1.8-1-2.2
						c0,0-0.2,6-14,6.3l-3,0.1c-13.7,0.3-14.2-5.7-14.2-5.7c-0.4,0.5-0.7,1.4-0.9,2.3c-0.3,1.1-0.4,2.3-0.4,3.5l-0.2,44.9l0.1,0.7
						c0,0,5.4,5.6,16.8,5L276.8,457.8z"/>
					<path class="st0" d="M273.1,407.1c-12,0.5-13.9-5.4-13.9-5.4l-0.1-5.8c0,0-0.2-3.4,0.9-4.5c0,0,0,5.4,13.6,5l1,0
						c13.6-0.2,13.3-5.6,13.3-5.6c1.1,1.1,1.1,4.4,1.1,4.4l0.1,5.8c0,0-1.5,5.9-13.6,6L273.1,407.1z"/>
					<path class="st0" d="M260,391.9l0-3.4h28.1l-0.5,2.1c0,0-0.5,5.9-13.2,5.9S260,391.9,260,391.9z"/>
					<path class="st2" d="M271.2,554l0.1,2.8c0,0,0.9,0.3,1.1,1.8l9.5-0.2c0,0,0.1-1.6,0.6-1.7l-0.1-2.2"/>
					<path class="st2" d="M271.2,556.7l-5.3,0.1l1.3,35.5l5.4-0.1c0,0,1-0.8,0.8-3.9l-1-29.8"/>
					<path class="st2" d="M266,556.9l-0.8,1.7c-1.7,3.5-0.9,1.8-0.7,15.3l0,0.3c0.5,13.5,0,13.1,1.8,16.6l0.9,1.6"/>
					<path class="st2" d="M282.9,556.5l5.3-0.1l0.3,35.5l-5.4,0.1c0,0-1-0.7-0.9-3.8l-0.3-29.8"/>
					<path class="st2" d="M288.3,556.6l0.9,1.6c1.8,3.5,1,1.7,1.4,15.2l0,0.3c0.2,13.5,0.6,13.1-1,16.7l-0.8,1.7"/>
					<line class="st2" x1="273.2" y1="579.9" x2="282.1" y2="579.7"/>
					<path class="st0" d="M257,452.8l-0.1-0.7c0,0-48.3,10.6-83.4,22.1c-35.1,11.5-56.4,23.5-56.4,23.5s-4.5,2.7-2.3,12.3
						c0,0,8.9,5.5,17.1,0l1.8-3.7c0,0,36.2-12.4,59.7-18.4c15.9-4.1,32.8-6.6,42-7.8c5.4-0.7,10.7-1.6,16.1-2.7l0,0
						c2.2-0.4,4.4-0.2,6.5,0.6l1.4,0.7l0,0c0,0,1.8,2.1,3.5,26.3c1.7,24.2,3.2,42.5,3.2,42.5s0.9,8.5,12.2,7.4
						c2.3-0.2,4.1-0.5,5.5-0.9c3.5-0.9,6-4.3,6.1-8.2l1.4-66.1l0,0l1.4-0.7c2-0.9,4.2-1.3,6.4-0.9l0.1,0c5.4,0.8,10.8,1.5,16.2,1.9
						c9.3,0.8,26.2,2.5,42.3,5.9c23.9,4.9,60.5,15.6,60.5,15.6l-0.1,3c12.3,5.7,19.2-0.2,19.2-0.2c1.7-9.7-2.8-12.2-2.8-12.2
						s-21.8-11-57.4-20.9S293.4,452,293.4,452"/>
				</g>
				<g>
					<path class="st7" d="M132.6,510.6l0,14.3l-0.5,0.4c0,0-1.1-4.6-4.3-7.2c-2.7-2.2-5.4-2.9-5.4-2.9l-0.1-2.9"/>
					<path class="st2" d="M102.6,534.1c-1-2-1.9-6.1-1.9-8.5c-0.2-8.5,6.1-15.5,14-15.7"/>
					<path class="st3" d="M101.3,526c-0.2-8.5,7.3-14.6,15.3-14.7"/>
					
						<ellipse transform="matrix(0.9997 -2.294241e-02 2.294241e-02 0.9997 -12.187 2.8337)" class="st2" cx="117.4" cy="532.5" rx="14.4" ry="15.3"/>
					
						<ellipse transform="matrix(0.9997 -2.294241e-02 2.294241e-02 0.9997 -12.1879 2.8399)" class="st3" cx="117.7" cy="532.6" rx="2.5" ry="2.6"/>
					<path class="st3" d="M117.7,519.6c0,0,0.3,8.4,0.6,8.8c0.3,0.4,0.7,0.7,1.5,0c0.9-0.8,4.3-6.7,4.3-6.7"/>
					<path class="st3" d="M126,523.6c0,0-4.9,6.6-4.9,7.1s0.1,1,1.2,1c1.1,0,7.4-2.2,7.4-2.2"/>
					<path class="st3" d="M129.8,532.3c0,0-7.9,0.2-8.3,0.6c-0.4,0.3-0.7,0.7,0,1.6c0.7,0.9,6.3,4.6,6.3,4.6"/>
					<path class="st3" d="M126.6,541.2c0,0-6.4-5-6.9-4.9c-0.5,0-0.9,0.1-0.9,1.3s2.4,7.8,2.4,7.8"/>
					<path class="st3" d="M115.8,519.7c0,0,0.6,8.4,0.3,8.8c-0.3,0.4-0.6,0.8-1.5,0.1c-1-0.7-4.9-6.3-4.9-6.3"/>
					<path class="st3" d="M107.9,524.6c0,0,5.5,6,5.6,6.5c0,0.5,0,1-1.1,1.2s-7.5-1.4-7.5-1.4"/>
					<path class="st3" d="M105,534.7c0,0,7.9-0.6,8.3-0.3s0.8,0.6,0.1,1.6s-5.8,5.3-5.8,5.3"/>
					<path class="st3" d="M110.2,543.2c0,0,5-6.5,5.5-6.6c0.5-0.1,0.9-0.2,1.2,1c0.3,1.2-0.5,8.1-0.5,8.1"/>
				</g>
				<line class="st8" x1="186.2" y1="455" x2="191" y2="454.7"/>
				<path class="st9" d="M176.6,472.7c-1.6-1.9-1.5-6.5-1.5-6.5c-0.1-6.1,2.3-11.1,5.4-11.1c3.1-0.1,6.2,4.6,6.4,10.6l0.1,3.4"/>
				<path class="st3" d="M176.9,472.4c-1.5-1.7-1.4-6.1-1.4-6.1c-0.1-5.6,2.1-10.2,5-10.3s5,4.3,5.1,9.9l-0.1,3.5"/>
				<path class="st3" d="M178.9,457.4c0,0,0.4,7.6,0.9,8.9c0.5,1.4,0.9-4.8,1.8-6.4c0.4-0.8,0.7-1.4,0.7-1.4"/>
				<path class="st3" d="M183.6,460.9c0,0-2.6,5.8-2.6,7.1c0,1.3,2.5-1.5,4.4-2.3"/>
				<path class="st10" d="M177.4,459.5c0,0,2.1,7.2,1.6,6.8c-0.5-0.4-1.8-2-3.1-2.7"/>
				<path class="st10" d="M175.8,464.7l3.2,3.6c0,0,0.7,1.2-0.3,1.3s-2.7-0.1-2.7-0.1"/>
				
					<ellipse transform="matrix(0.9997 -2.294241e-02 2.294241e-02 0.9997 -10.701 4.2563)" class="st2" cx="180.1" cy="468.5" rx="0.9" ry="1.8"/>
				<path class="st8" d="M203,464.3c0,0-2.2-8.3-3.9-9.3l-0.1,10.3l-7.1,2.1l-0.2-2c-0.9-4.2-2.6-6.6-2.6-6.6l-0.1-3.7
					c0,0,2.1,2.9,5.8,2.2c3.7-0.7,4-2.4,4-2.4l-1-1.5l0,1.1l-6.8,0.2l0-1.9"/>
				<line class="st11" x1="362.9" y1="452" x2="357.8" y2="452"/>
				<path class="st12" d="M373.7,470.1c1.6-2,1.3-6.9,1.3-6.9c-0.1-6.4-2.9-11.5-6.2-11.4s-6.3,5.1-6.2,11.4l0.1,3.5"/>
				<path class="st13" d="M373.4,469.8c1.5-1.9,1.2-6.4,1.2-6.4c-0.1-5.9-2.7-10.6-5.7-10.6c-3,0.1-5,4.7-4.9,10.6l0.3,3.6"/>
				<path class="st13" d="M370.6,454.2c0,0,0,8-0.5,9.4s-1.2-4.9-2.2-6.6c-0.5-0.8-0.8-1.4-0.8-1.4"/>
				<path class="st13" d="M365.9,458c0,0,3,6,3.1,7.3c0.1,1.3-2.7-1.4-4.7-2.2"/>
				<path class="st14" d="M372.3,456.3c0,0-1.9,7.7-1.3,7.2c0.5-0.4,1.7-2.2,3.2-2.9"/>
				<path class="st14" d="M374.2,461.7l-3.1,3.9c0,0-0.7,1.3,0.3,1.3c1,0,2.8-0.2,2.8-0.2"/>
				
					<ellipse transform="matrix(0.9997 -2.294241e-02 2.294241e-02 0.9997 -10.5907 8.6081)" class="st15" cx="369.9" cy="465.9" rx="1" ry="1.9"/>
				<path class="st11" d="M345.7,462.6c0,0,2-8.8,3.6-9.9l0.7,10.8l7.5,1.9l0.2-2.1c0.7-4.4,2.4-7,2.4-7l-0.1-3.9c0,0-2.1,3.2-6,2.6
					c-3.9-0.6-4.3-2.3-4.3-2.3l1-1.6l0,1.2l7.1-0.2l0-2"/>
				
					<ellipse transform="matrix(0.9997 -2.294241e-02 2.294241e-02 0.9997 -12.187 2.8337)" class="st4" cx="117.4" cy="532.5" rx="12.2" ry="13"/>
				<path class="st1" d="M101.7,529.7c-0.2-8.5,6.4-14.6,14.3-14.8c0,0,2.5-0.5,6.3,0.8"/>
			</g>
		</g>
	</g>
	<path class="st2" d="M429.5,507.1l-0.1,2.4c0,0-2.7,1.2-5.4,3.4c-3.2,2.6-4.6,6.1-4.6,6.1l-0.7,2.1l0.8-15.7c0,0,1.2,0.8,4.3,1.3
		C426.9,507.1,429.5,507.1,429.5,507.1z"/>
	<path class="st1" d="M424.1,517.9c0,0,4.6,5.6,4.9,6.5c0.2,0.5-0.2,2-1.3,2.1s-7-1.8-7-1.8"/>
	<path class="st1" d="M420.4,527.8c0,0,6.8,0.2,7.2,0.5c0.4,0.3,0.7,0.7,0,1.6s-5.2,3.9-5.2,3.9"/>
	<path class="st1" d="M423.5,535.9c0,0,5.3-4.2,5.8-4.1c0.5,0,0.9,0.1,0.9,1.3s-1.8,6.2-1.8,6.2"/>
	<path class="st1" d="M438.3,537.8c0,0-4.3-5.6-4.8-5.7c-0.5-0.1-0.9-0.2-1.2,1s0.3,6.7,0.3,6.7"/>
	<path class="st0" d="M373,382.1l13.7,1c0,0-0.5,1.8,0.8,1.9s5,0.5,5,0.5s0,2,4.9,2.3s5.6,0.3,5.6,0.3s1.4-0.6,1.4-1.5
		s0.9,0.2,1-0.9s1-14.7,1-14.7s-0.5-1.7-1.3-2c-0.7-0.3-0.8-3.6-0.8-3.6l1.8-0.1c0,0,0.7-0.1,1.1-1.1c0.4-0.9,9.9-69.9,9.9-69.9
		l3.2-10.7l1.1-4l9.6,0.8c0.8,0.1,1.6-0.1,2.3-0.6c0.8-0.6,1.4-1.1,1.8-1.6c0.6-0.6,0.9-1.4,0.9-2.2l0.1-1.1c0-0.5-0.1-1-0.3-1.5h0
		c-0.5-1.2-1.2-2.3-2.1-3.3c-1-1.1-2.5-2.5-4.3-3.5c-3.5-2.1-9.3-2.4-9.3-2.4l-10.2-1.2l-17.9-1.9c0,0-2.7,0.1-3.5,1.1
		c-0.8,1-0.9,4.4-0.9,4.4s2,4,7.1,7.4l8.5,3.9l-0.1,13.8l-9.1,70.9c0,0,0.4,0.9,1.8,1.3l1.4,0.4l-1.6,3.2c0,0-1.4,0.1-1.7,1.1
		c-0.4,1-1.6,7.9-1.6,7.9l-4-0.3c0,0-1.1,0.5-1.3,0.8s-0.6,0.3-0.6,0.3l-9.5-0.7L373,382.1z"/>
	<path class="st0" d="M176.3,381.9h-13.7c0,0,0.4,1.8-1,1.8c-1.4,0-5.1,0.1-5.1,0.1s-0.1,2-5.1,1.9c-5,0-5.6-0.1-5.6-0.1
		s-1.3-0.7-1.3-1.6s-0.9,0.2-0.9-0.9c0-1.1,0-14.7,0-14.7s0.7-1.6,1.4-1.9c0.8-0.3,1.1-3.5,1.1-3.5l-1.8-0.3c0,0-0.7-0.2-1-1.1
		c-0.3-1-4.9-70.4-4.9-70.4l-2.4-10.9l-0.8-4.1l-9.7,0.1c-0.8,0-1.6-0.2-2.2-0.7c-0.7-0.6-1.3-1.2-1.7-1.7c-0.5-0.6-0.8-1.4-0.7-2.2
		l0-1.1c0-0.5,0.1-1,0.4-1.5l0,0c0.6-1.2,1.4-2.2,2.3-3.1c1.1-1,2.7-2.3,4.6-3.2c3.7-1.8,9.4-1.7,9.4-1.7l10.3-0.4l18-0.6
		c0,0,2.7,0.3,3.4,1.3c0.7,1.1,0.6,4.4,0.6,4.4s-2.2,3.8-7.6,6.8l-8.7,3.2l-0.9,13.8l4,71.4c0,0-0.5,0.9-1.8,1.2l-1.4,0.3l1.3,3.3
		c0,0,1.3,0.2,1.6,1.3c0.3,1.1,1,8,1,8h4c0,0,1.1,0.6,1.3,0.9c0.2,0.4,0.5,0.4,0.5,0.4h9.5L176.3,381.9z"/>
	<path class="st0" d="M318.4,22.6c6.8,6.4,11.4,17,16.1,31.4c0,0,5.9,17.3,11.8,27.4v0c0.6,1,1.2,2,1.8,2.8c1.5,2.1,3.4,4.2,5.4,6.3
		c0.1,0.1,0.2,0.2,0.2,0.2c0.1,0.1,0.2,0.2,0.2,0.2c6.9,7,15.5,13.1,15.5,13.1s32.9,20.7,6.1,62.2c0,0-0.3,0.5-0.7,1.4
		c-1.7,3.6-6,14.5-7.8,33.3c0,0,0,0,0,0c-0.5,5.6-0.8,11.8-0.8,18.8c0,0,0,0.1,0,0.1c0,1.4,0,2.7,0.1,4.2c0,0,0.2,3.3,0.5,8.1
		c0,0,0,0,0,0.1c0,0,0,0,0,0c0,0,0,0,0,0c0.6,10.7,1.6,28.6,1.8,32.8c0.4,6.1,4.4,17.8,1.5,31.4c-2.9,13.6-6.5,17-15.3,27
		c0,0,0.2,1.6-12.9,0c-0.2,0-0.5-0.1-0.8-0.1c-0.1,0-0.2,0-0.2,0c0,0,0,0-0.1,0c-8.4-0.7-39-0.7-68.7-0.5c-0.6,0-0.9,0-0.9,0
		s-1.1,0-3,0c-26,0.2-50.6,0.4-57.8,0.5c0,0,0,0-0.1,0c-1.4,0-2.1,0-2.1,0s-0.1,0.1-0.4,0.1c0,0,0,0,0,0h0h0c-0.1,0-0.1,0-0.2,0.1
		c0,0,0,0,0,0c-0.1,0-0.2,0.1-0.2,0.1c-2,0.6-7,1.7-10.8,0.4c-4.9-1.6-19.5-11.7-19.7-41.5c-0.1-29.8,3.2-51.1,3.2-51.1
		s2.3-12.4,1-27c0,0,0,0,0-0.1c-0.4-4.9-1.2-10-2.7-14.9c-1.1-3.7-2.1-7.1-3.1-10.1c0,0,0,0,0,0c-1.1-3.4-2.2-6.4-3.1-9c0,0,0,0,0,0
		c-2.8-7.5-4.8-11.8-5.3-13.5c-0.8-2.8-4-12-2.7-23.6c1.1-9.1,9.1-21,15.8-27.8c0,0,0,0,0.1,0c0,0,0,0,0.1-0.1
		c1.8-1.8,3.5-3.3,5-4.2c0,0,0.6-0.5,1.7-1.5c0.1-0.1,0.1-0.1,0.2-0.2c1.8-1.6,4.6-4.2,7.7-7.6c0.2-0.3,0.5-0.6,0.7-0.9
		c2.1-2.4,4.3-5.1,6.3-8.2c0,0,0-0.1,0.1-0.1c4.2-6.3,7.9-13.7,9-21.8c1.5-11.1,8.1-24.7,18.4-35.5c7.8-9.8,21.4-15,21.4-15
		c6.3-2.6,13.6-2.7,20.9-2.8c14.9-0.1,17.7,0.4,25.4,2.6C296.9,10.4,306.8,11.7,318.4,22.6z"/>
	<path class="st16" d="M201.8,82.8c0,0,10.3,12.7,7.1,48.5c-3.1,35.8-9,73.9-8.8,78.9c0.2,5,0,35-1.5,48.3
		c-1.5,13.3,3.4,41.9,3.4,41.9s5.4,10.1,6.3,11.9c0.8,1.7,2,11.1,2,11.1s-11,0.8-13.2,0c-2.2-0.8-7.5-5.1-9.3-11.6
		c0,0-4.7-12.5-5.3-31.1c-0.6-18.6-1.7-50.9-1.7-50.9s1.8-14.4,0.2-25.2s-6.8-30.2-9-34.2c0,0,19.9-22.4,20.6-23.7
		c0.8-1.3,1.3-3.1,0.3-7.7c-1-4.7-2.8-12.7-2.8-12.7s-0.3-4-3.3-9.7c-3-5.7-5.8-9.6-5.8-9.6l-1.2-1.5c0,0,4.8-3.9,6.8-5.8
		c2.1-1.9,7-6.8,8.3-8.3S201.8,82.8,201.8,82.8z"/>
	<path class="st16" d="M346,81c0,0-10.3,12.7-7.1,48.5c3.1,35.8,9,73.9,8.8,78.9c-0.2,5,0,35,1.5,48.3c1.5,13.3-3.4,41.9-3.4,41.9
		s-5.4,10.1-6.3,11.9c-0.8,1.7-2,11.1-2,11.1s11,0.8,13.2,0c2.2-0.8,7.5-5.1,9.3-11.6c0,0,4.7-12.5,5.3-31.1
		c0.6-18.6,1.7-50.9,1.7-50.9s-1.8-14.4-0.2-25.2c1.6-10.7,5.9-31.2,8.1-35.2c0,0-19-21.4-19.8-22.8c-0.8-1.3-1.3-3.1-0.3-7.7
		s2.8-12.7,2.8-12.7s0.3-4,3.3-9.7c3-5.7,5.8-9.6,5.8-9.6l1.2-1.5c0,0-4.8-3.9-6.8-5.8c-2.1-1.9-7-6.8-8.3-8.3
		C351.3,88.1,346,81,346,81z"/>
	<path class="st17" d="M208.4,309.8c-0.2,0.2-0.3,0.3-0.3,0.4c-0.1,0.1-0.1,0.2-0.1,0.2l0-0.6v0l0-4.3c0,0,0,0,0,0l-0.2-23.1
		c0-0.1,0-0.1,0-0.2"/>
	<polyline class="st17" points="207.3,252.9 206.3,158 208.4,165.5 218.7,201.2 228.4,235.1 231.6,246.2 231.8,246.9 232.7,249.8 
		232.7,249.8 	"/>
	<path class="st17" d="M338.2,273.3C338.2,273.3,338.2,273.3,338.2,273.3"/>
	<polyline class="st17" points="338.7,253.2 341,159.1 328.8,199.3 318.7,232.6 314.6,246.3 314.3,247.4 313.5,250.1 	"/>
	<g id="linhas_meio_2_">
		<polyline class="st16" points="228.3,235.1 272.5,214.2 318.7,232.6 		"/>
		<polyline class="st16" points="218.7,201.2 272.5,175.7 328.8,199.3 		"/>
		<polyline class="st16" points="208,165.6 272,138.6 338.7,164.1 		"/>
	</g>
	<path class="st17" d="M228.1,111L228.1,111c-0.5-0.8-0.5-1.9-0.1-2.8l0.6-1.3"/>
	<path class="st17" d="M319.8,112.2c0.4-0.1,1-0.4,1.5-1.2c0.5-0.8,0.5-1.9,0.1-2.8l-2.7-6.1c0,0,0,0,0,0"/>
	<path class="st18" d="M227.2,117.6c-1.3-0.6-2.8-1.5-3.8-3.1c-2.1-3.3-1.5-6.6,0-10l6-13.4"/>
	<path class="st18" d="M318.3,87.3l7.7,17.2c1.5,3.4,2.1,6.7,0,10c-1.5,2.3-4.1,3.3-5.4,3.6"/>
	<path class="st0" d="M271.2,322.8c0,0-63,0.6-63.7,0.8s-0.6,0.2-4.5,3.9s-7.5,0.8-10.9,2.5c-3.3,1.7-7.4,7.5-8.5,14.5
		c-1.1,7,0,30.8,0,30.8s-1.4,16,22.2,14.6s71.9,0.1,71.9,0.1s41.1-0.5,64.7,0.9c23.6,1.5,22.2-14.6,22.2-14.6s1.1-23.9,0-30.8
		c-1.1-7-5.2-12.8-8.5-14.5c-3.3-1.7-7,1.2-10.9-2.5s-3.6-5-4.3-5.2C340.4,323.1,271.2,322.8,271.2,322.8z"/>
	<path class="st0" d="M359.7,388c0,0,7.4,2,12.1-4.4c4.7-6.4,13.5-18.1,17.5-32.5c3.9-14.2,4.7-20.3,3.4-27.2c0-0.2-0.1-0.4-0.1-0.6
		c0-1-0.3-4.5-1.6-6.6c-1.1-1.8-2.2-2.5-4-3.2c-1.4-0.5-3-0.6-4.5-0.2c-0.1,0-0.2,0.1-0.4,0.1c0,0,3,0.6,4.3,2.1
		c1.3,1.5,3.8,4.7,1.9,13.6c-1.9,9-8.4,23-17.4,39.5c0,0-4.4,8.2-5.7,9.6C365.3,378.2,364.5,384.3,359.7,388z"/>
	<path class="st0" d="M346.7,328.7c0,0,3.3-4.2,12.5-2.8c0,0,5.7-3.5,9.2-7c3.5-3.5,8.8-5.5,11.7-5.4c2.9,0.2,10.7,1.3,8.8,14
		c-2,12.7-13.6,33.2-13.6,33.2l-9.8,17.5c0,0,0.8-22.7,0.4-26.9s-0.4-13.5-8-19.7c0,0-0.9-1-5.1-1.1
		C347.9,330.4,346.7,328.7,346.7,328.7z"/>
	<path class="st0" d="M189,386.3c0,0-7.4,2-12.1-4.4c-4.7-6.4-13.5-18.1-17.5-32.5c-3.9-14.2-4.7-20.3-3.4-27.2
		c0-0.2,0.1-0.4,0.1-0.6c0-1,0.3-4.5,1.6-6.6c1.1-1.8,2.2-2.5,4-3.2c1.4-0.5,3-0.6,4.5-0.2c0.1,0,0.2,0.1,0.4,0.1c0,0-3,0.6-4.3,2.1
		s-3.8,4.7-1.9,13.6c1.9,9,8.4,23,17.4,39.5c0,0,4.4,8.2,5.7,9.6C183.4,376.5,184.2,382.6,189,386.3z"/>
	<path class="st0" d="M202.1,327c0,0-3.3-4.2-12.5-2.8c0,0-5.7-3.5-9.2-7c-3.5-3.5-8.8-5.5-11.7-5.4s-10.7,1.3-8.8,14
		c2,12.7,13.6,33.2,13.6,33.2l9.8,17.5c0,0-0.8-22.7-0.4-26.9c0.4-4.2,0.4-13.5,8-19.7c0,0,0.9-1,5.1-1.1
		C200.8,328.7,202.1,327,202.1,327z"/>
	<g id="Almofada_lombar_3_">
		<path class="st19" d="M214.2,246.3c0,0,8.1-0.7,18.8,0s78.8,0.6,81.1,0c2.3-0.6,16-0.4,19.5-0.4c3.5,0,7.1,11.7,7.7,22.3
			c0.6,10.7,0.4,40.8-5.8,46.4c-6.2,5.6-49.6,3.6-49.6,3.6l-20.7-0.3c0,0-50.1-0.8-54.9-3.7c-4.8-2.9-6.1-30.3-6.1-30.3
			s-1.3-21.9,2.3-29.8S214.2,246.3,214.2,246.3z"/>
		<path class="st17" d="M232.9,247c0,0-3.1,33.9-2.1,41c1,7.1-1.7,12.4,23.9,28.5l1.5,1.3c0,0-42.6-0.4-46.5-4.2
			c-3.9-3.8-1.7-47.2-0.7-52.9c1-5.7,0.2-4.9,2.3-12.9C211.3,247.7,215.1,243.8,232.9,247z"/>
		<path class="st17" d="M313.2,247.6c0,0,3.1,33.9,2.1,41c-1,7.1,1.7,12.4-23.9,28.5l-1.5,1.3c0,0,42.6-0.4,46.5-4.2
			s1.7-47.2,0.7-52.9c-1-5.7-0.4-6.8-2.5-14.9C334.7,246.3,331.1,244.9,313.2,247.6z"/>
	</g>
	<g id="Almofada_cabeça_3_">
		<path class="st18" d="M275.4,115.9c0,0,26.4,2.5,37.2,6.7c10.9,4.2,8.1-2.4,8-4.2c-0.1-1.8-0.7-5.8-0.7-5.8
			c-3.4-24.6-0.5-38.3-0.5-38.3c5.4-13.8-2.9-10-2.9-10c-19.5,8.2-41.1,7.2-41.1,7.2l-3,0.1c0,0-21.7,0.9-41.1-7.2
			c0,0-8.4-3.8-2.9,10c0,0,2.9,13.7-0.5,38.3c0,0-0.6,4-0.7,5.8c-0.1,1.8-2.9,8.4,8,4.2c10.9-4.2,37.2-6.7,37.2-6.7L275.4,115.9z"/>
		<path class="st17" d="M241.4,67.9c0,0,3.3,30.3,11.9,50.6"/>
		<path class="st17" d="M306.4,67.9c0,0-3.3,30.3-11.9,50.6"/>
	</g>
	<g id="Meanismo_2_">
		<polyline class="st0" points="178.8,403.2 188.4,390.4 190.3,390.7 		"/>
		<path class="st20" d="M194.5,389.5l-1.2,2.3c0,0,1,0.5,1.2,1.2c0.1,0.7,0.2,7-0.8,13.7s-2.8,6.5-5.4,6.3c0,0-0.9-0.6-3-0.5
			c-2.1,0.1-3.1-1.3-3.1-1.3s-1-1.1-2.5-1.5c-1.5-0.4-2-2.9-2-2.9s-0.8-2,3.4-6.4l7.1-8.4c0,0,0.2-1.4,0.5-1.4s1.8,0.2,1.8,0.2
			l1.2-2.7C191.6,388,191.4,388.4,194.5,389.5z"/>
		<path class="st20" d="M189.4,393.3c-0.4-0.1-0.7,0-1,0.3l-8.1,10.2c0,0-2.1,2.5,0.8,4.2c0,0,0.7,0.4,1.4,0.9s1,1,1,1
			s0.1,0.3,1.4,0.5c1.3,0.2,3,0.7,3.5,0.9c0.5,0.3,2.3-0.3,2.5-0.6c0.2-0.3,0.7-0.7,1.2-5.1c0.4-3.7,0.8-8.7,0.9-10.2
			c0-0.4-0.1-0.7-0.4-0.9c-0.1-0.1-0.3-0.2-0.5-0.3C191.5,394.2,190.4,393.6,189.4,393.3z"/>
		<path class="st20" d="M192.7,399.4c-0.1,1.6-1.3,2.4-1.3,2.4s-1.7,1.7-4.4,0.6c-1.4-0.5-1.9-1.6-2-2.5c-0.1-0.8,0.1-1.6,0.5-2.3
			l0.4-0.7"/>
		<path class="st20" d="M190.4,391.1c0,0-0.5,1.3,0.5,1.6c1,0.3,1.6,0.6,2.2-0.3"/>
	</g>
	<polygon class="st21" points="176.3,381.9 159.2,381.9 159.2,379.9 175.1,380.1 	"/>
	<path class="st21" d="M162.9,376.4h9.9l2.2,3.5h-15.3c0,0,2.3-0.8,2.9-1.8C163.3,377.2,162.9,376.4,162.9,376.4z"/>
	<path class="st21" d="M159.2,379.9c4.7-1.4,3.8-2.8,3.6-3.5c-0.1-0.7-1.4-1.3-1.4-1.3h-4c0,0,1,2.2-3.7,3.5l-1.7,0.7l6.8-0.1
		L159.2,379.9z"/>
	<path class="st21" d="M158.8,379.2c0,0,3.2-0.9,3.8-3.3"/>
	<path class="st21" d="M162.6,381.9c0,0,0.5,1.3-0.3,1.8l-3.2,0.1c0,0-0.4,0.1-2.3,0.1c0,0-0.9,1.8-3.3,1.9s-7.5,0-7.5,0
		s-1.2-0.8-1.3-1.6l10.3,0l1.7-0.3"/>
	<path class="st21" d="M144.6,369.4v14.8c0,0-0.3,0.1-0.9-0.9v-14v-0.5C143.6,368.7,144,369.2,144.6,369.4z"/>
	<path class="st21" d="M157.4,375.1l-0.8-7.9l-0.2-0.2c0,0,0,1.7-3,2.3s-8,0.4-9,0c0,0-0.8-0.4-0.8-1c0,0,0.5-1.1,1.8-1.6
		c0,0-0.4,1.4,0.3,1.8c0.7,0.4,1.4,0.3,1.4,0.3l4.3-0.2c0.6,0,1.3-0.2,1.9-0.4c0.7-0.3,1.4-0.8,1.5-1.5c0,0,0.1-0.5-0.1-0.7
		c0,0,1.1,0,1.7,1.1"/>
	<path class="st17" d="M169.9,265.8c0,0-11.2,5.8-12.7,6.2c-1.5,0.4-36.1,0.9-36.1,0.9"/>
	<path class="st17" d="M168.7,260.9l-13,5.6c-0.7,0.3-1.4,0.5-2.1,0.5l-31.4,0.8"/>
	<g id="Braço_direito_2_">
		<path class="st21" d="M387.6,266.8c0,0,16.8,9,18.3,9.4c2.9,0.8,30.3,0.8,30.3,0.8"/>
		<path class="st21" d="M388.5,262.4l14.3,7.5c0.7,0.3,3.9,1,4.7,1l28.2,1.7"/>
		<polygon class="st21" points="373.1,382.6 390.1,383.7 390.3,381.7 374.4,380.8 		"/>
		<path class="st21" d="M386.9,378l-9.9-0.7l-2.5,3.4l15.8,1.1c0,0-2.7-1-3.3-2C386.4,378.8,386.9,378,386.9,378z"/>
		<path class="st21" d="M390.3,381.7c-4.6-1.8-3.6-3-3.4-3.8c0.2-0.7,1.5-1.2,1.5-1.2l4,0.3c0,0-1.2,2.1,3.5,3.7l1.6,0.8l-6.8-0.6
			L390.3,381.7z"/>
		<path class="st21" d="M390.7,381c0,0-3.1-1.1-3.6-3.5"/>
		<path class="st21" d="M386.7,383.5c0,0-0.5,1.2,0.2,1.8l3.2,0.3c0,0,0.4,0.1,2.3,0.2c0,0,0.8,1.8,3.2,2.1c2.4,0.3,7.5,0.5,7.5,0.5
			s1.2-0.7,1.4-1.5l-10.3-0.7l-1.7-0.4"/>
		<path class="st21" d="M405.8,372.1l-1.2,14.8c0,0,0.3,0.2,1-1.4l0.9-14l0-0.5C406.6,371.1,406.4,372,405.8,372.1z"/>
		<path class="st21" d="M392.3,377.1l1.4-7.8l0.2-0.2c0,0-0.1,1.7,2.9,2.5c3,0.8,7.9,1,9,0.6"/>
		<path class="st21" d="M406.6,371.1c0,0-0.4-1.1-1.7-1.7c0,0,0.3,1.4-0.4,1.8c-0.7,0.4-1.5,0.2-1.5,0.2l-4.3-0.5
			c-0.6-0.1-1.3-0.3-1.8-0.6c-0.6-0.3-1.3-0.9-1.4-1.6c0,0,0-0.5,0.2-0.7c0,0-1.1-0.1-1.7,1"/>
		<polyline class="st21" points="421.5,279.7 407.5,278.8 406.2,293.8 397.9,364.5 399.3,364.9 396.5,364.1 		"/>
	</g>
	<polyline class="st17" points="135.2,276.3 149,276 149.4,291.1 153.4,362.6 152,362.9 154.9,362.3 	"/>
	<line class="st22" x1="403" y1="277.9" x2="407.5" y2="278.8"/>
</g>
<g>
	<g>
		<line class="st85" x1="209.2" y1="190" x2="337.8" y2="190"/>
	</g>
	<polygon class="st40" points="207.9,190 218.8,195.5 218.8,184.6 	"/>
	<line class="st85" x1="340.3" y1="195.5" x2="340.3" y2="184.6"/>
	<line class="st85" x1="207.4" y1="195.4" x2="207.4" y2="184.5"/>
	<polygon class="st40" points="339.9,190 329,195.5 329,184.6 	"/>
</g>
<g>
	<line class="st86" x1="168.2" y1="239.3" x2="385.7" y2="239.3"/>
	<line class="st87" x1="165.8" y1="264.6" x2="165.8" y2="236.1"/>
	<polygon class="st40" points="166.1,239.6 176,245.1 176,234.2 	"/>
	<polyline class="st87" points="393.3,246.5 393.3,232.8 393.3,236.5 393.3,265 	"/>
	<polygon class="st40" points="392.9,238.2 383.1,243.7 383.1,232.8 	"/>
</g>
<g>
	<line class="st88" x1="185.2" y1="286.1" x2="370.3" y2="286.1"/>
	<line class="st89" x1="177" y1="291.5" x2="177" y2="280.6"/>
	<polygon class="st40" points="177.2,286.1 187,291.5 187,280.6 	"/>
	<polyline class="st90" points="371,285.3 371,280.6 371,281.9 371,291.5 	"/>
	<polygon class="st40" points="371.7,286.1 361.9,291.5 361.9,280.6 	"/>
</g>
<g>
	<line class="st91" x1="161.6" y1="320.6" x2="390.5" y2="320.6"/>
	<line class="st92" x1="157.1" y1="326.1" x2="157.1" y2="315.2"/>
	<polygon class="st40" points="157.1,320.6 167.5,326.1 167.5,315.2 	"/>
	<polyline class="st93" points="392.2,319.8 392.2,315.2 392.2,316.4 392.2,326.1 	"/>
	<polygon class="st40" points="392.2,320.6 381.8,326.1 381.8,315.2 	"/>
</g>
<g>
	<polygon class="st5" points="293.4,195.1 258.5,195.5 258.5,182.9 293.4,185.2 	"/>
	<text transform="matrix(1 0 0 1 259.9176 192.8764)" class="st40 st94 st95">32cm</text>
</g>
<g>
	<g>
		<line class="st96" x1="189.1" y1="348.5" x2="353" y2="348.5"/>
	</g>
	<polygon class="st40" points="184.2,348.5 196.7,353.9 196.7,343 	"/>
	<line class="st97" x1="364.9" y1="353.9" x2="364.9" y2="343"/>
	<line class="st97" x1="183.7" y1="353.9" x2="183.7" y2="343"/>
	<polygon class="st40" points="364.4,348.5 350.9,353.9 350.9,343 	"/>
</g>
<g>
	<rect x="261.2" y="232.1" class="st5" width="34" height="12.5"/>
	<text transform="matrix(1 0 0 1 262.5543 242.2578)" class="st40 st94 st95">53cm</text>
</g>
<rect x="257" y="315.6" class="st5" width="36.7" height="14.1"/>
<rect x="262.6" y="341.4" class="st5" width="35.1" height="14.1"/>
<text transform="matrix(0.9441 0 0 1 259.9176 326.0996)" class="st40 st94 st95">54cm</text>
<text transform="matrix(0.9441 0 0 1 265.0797 352.1875)" class="st40 st94 st95">40cm</text>
<rect x="260.5" y="278.2" class="st5" width="34.9" height="14.1"/>
<text transform="matrix(0.9441 0 0 1 262.8746 289.1142)" class="st40 st94 st95">49cm</text>
<g>
	<g>
		<line class="st123" x1="166.7" y1="133.7" x2="384.2" y2="133.7"/>
	</g>
	<line class="st124" x1="164.7" y1="139.4" x2="164.7" y2="128.4"/>
	<polygon class="st40" points="165,133.9 175.2,139.4 175.2,128.4 	"/>
	<line class="st124" x1="386.9" y1="138.6" x2="386.9" y2="127.7"/>
	<polygon class="st40" points="386.5,133.1 376.4,138.6 376.4,127.7 	"/>
</g>
<rect x="253.8" y="123.3" class="st5" width="36" height="13.9"/>
<text transform="matrix(1 0 0 1 256.3109 135.0337)" class="st40 st94 st213">57cm</text>
</svg>
