<?xml version="1.0" encoding="utf-8"?>
<!-- Generator: Adobe Illustrator 23.0.1, SVG Export Plug-In . SVG Version: 6.00 Build 0)  -->
<svg version="1.1" id="Camada_1" xmlns="http://www.w3.org/2000/svg" xmlns:xlink="http://www.w3.org/1999/xlink" x="0px" y="0px"
	 viewBox="0 0 600 600" style="enable-background:new 0 0 600 600;" xml:space="preserve">
<style type="text/css">
	.st0{fill:#FFFFFF;stroke:#1E1E1C;stroke-miterlimit:10;}
	.st1{fill:none;stroke:#1E1E1C;stroke-width:0.6333;stroke-miterlimit:10;}
	.st2{fill:#FFFFFF;stroke:#1E1E1C;stroke-width:1.2665;stroke-miterlimit:10;}
	.st3{fill:#FFFFFF;stroke:#1E1E1C;stroke-width:0.6333;stroke-miterlimit:10;}
	.st4{fill:none;stroke:#1E1E1C;stroke-width:0.9721;stroke-miterlimit:10;}
	.st5{fill:#FFFFFF;}
	.st6{fill:none;stroke:#1E1E1C;stroke-width:0.9881;stroke-miterlimit:10;}
	.st7{fill:none;stroke:#1E1E1C;stroke-width:1.2665;stroke-miterlimit:10;}
	.st8{fill:#FFFFFF;stroke:#1E1E1C;stroke-width:0.9721;stroke-miterlimit:10;}
	.st9{fill:#FFFFFF;stroke:#1E1E1C;stroke-width:0.9091;stroke-miterlimit:10;}
	.st10{fill:#FFFFFF;stroke:#1E1E1C;stroke-width:0.5889;stroke-miterlimit:10;}
	.st11{fill:#FFFFFF;stroke:#1E1E1C;stroke-width:1.019;stroke-miterlimit:10;}
	.st12{fill:#FFFFFF;stroke:#1E1E1C;stroke-width:0.953;stroke-miterlimit:10;}
	.st13{fill:#FFFFFF;stroke:#1E1E1C;stroke-width:0.6639;stroke-miterlimit:10;}
	.st14{fill:#FFFFFF;stroke:#1E1E1C;stroke-width:0.6174;stroke-miterlimit:10;}
	.st15{fill:#FFFFFF;stroke:#1E1E1C;stroke-width:1.3277;stroke-miterlimit:10;}
	.st16{fill:none;stroke:#1E1E1C;stroke-width:0.75;stroke-miterlimit:10;}
	.st17{fill:none;stroke:#1E1E1C;stroke-miterlimit:10;}
	.st18{fill:none;stroke:#1E1E1C;stroke-width:1.3977;stroke-miterlimit:10;}
	.st19{fill:none;stroke:#1E1E1C;stroke-width:2;stroke-miterlimit:10;}
	.st20{fill:#FFFFFF;stroke:#1E1E1C;stroke-width:0.5;stroke-miterlimit:10;}
	.st21{fill:none;stroke:#1E1E1C;stroke-width:0.5;stroke-miterlimit:10;}
	.st22{fill:none;stroke:#1E1E1C;stroke-width:1.0033;stroke-miterlimit:10;}
	.st23{fill:#FFFFFF;stroke:#020203;stroke-width:0.75;stroke-miterlimit:10;}
	.st24{fill:none;stroke:#020203;stroke-miterlimit:10;}
	.st25{fill:#FFFFFF;stroke:#020203;stroke-miterlimit:10;}
	.st26{fill:none;stroke:#020203;stroke-width:0.5;stroke-miterlimit:10;}
	.st27{fill:#FFFFFF;stroke:#020203;stroke-linejoin:round;}
	.st28{fill:none;stroke:#020203;stroke-linejoin:round;}
	.st29{fill:none;stroke:#020203;stroke-width:0.75;stroke-miterlimit:10;}
	.st30{fill:none;stroke:#020203;stroke-width:0.25;stroke-miterlimit:10;}
	.st31{fill:none;stroke:#E52624;stroke-width:1.5;stroke-miterlimit:10;}
	.st32{fill:#E52624;}
	.st33{fill:#FFFFFF;stroke:#020203;stroke-width:0.5;stroke-miterlimit:10;}
	.st34{fill:none;stroke:#E52522;stroke-width:1.5;stroke-miterlimit:10;}
	.st35{fill:#E52522;}
	.st36{fill:#E7E6E6;}
	.st37{fill:none;stroke:#E20D18;stroke-width:2;stroke-miterlimit:10;}
	.st38{fill:none;stroke:#E20D18;stroke-width:1.8;stroke-miterlimit:10;}
	.st39{fill:none;stroke:#E20D18;stroke-width:1.62;stroke-miterlimit:10;}
	.st40{fill:#E20D18;}
	.st41{fill:none;stroke:#E20D18;stroke-width:1.54;stroke-miterlimit:10;}
	.st42{fill:none;stroke:#E20D18;stroke-width:1.74;stroke-miterlimit:10;}
	.st43{fill:none;stroke:#E20D18;stroke-width:1.55;stroke-miterlimit:10;}
	.st44{fill:none;stroke:#E20D18;stroke-width:1.56;stroke-miterlimit:10;}
	.st45{fill:none;stroke:#E20D18;stroke-width:1.53;stroke-miterlimit:10;}
	.st46{fill:none;stroke:#E20D18;stroke-width:1.58;stroke-miterlimit:10;}
	.st47{fill:none;stroke:#E20D18;stroke-width:1.69;stroke-miterlimit:10;}
	.st48{fill:none;stroke:#E20D18;stroke-width:1.43;stroke-miterlimit:10;}
	.st49{fill:none;stroke:#E20D18;stroke-width:1.48;stroke-miterlimit:10;}
	.st50{fill:none;stroke:#E20D18;stroke-width:1.67;stroke-miterlimit:10;}
	.st51{fill:none;stroke:#E20D18;stroke-width:1.65;stroke-miterlimit:10;}
	.st52{fill:#FFFFFF;stroke:#020203;stroke-width:3;stroke-miterlimit:10;}
	.st53{fill:none;stroke:#E20D18;stroke-width:1.41;stroke-miterlimit:10;}
	.st54{fill:none;stroke:#E20D18;stroke-width:1.59;stroke-miterlimit:10;}
	.st55{fill:none;stroke:#1E1E1C;stroke-width:1.05;stroke-miterlimit:10;}
	.st56{fill:none;stroke:#1E1E1C;stroke-width:0.52;stroke-miterlimit:10;}
	.st57{fill:none;stroke:#1E1E1C;stroke-width:0.8;stroke-miterlimit:10;}
	.st58{fill:none;stroke:#1E1E1C;stroke-width:0.49;stroke-miterlimit:10;}
	.st59{fill:none;stroke:#1E1E1C;stroke-width:0.84;stroke-miterlimit:10;}
	.st60{fill:none;stroke:#1E1E1C;stroke-width:0.79;stroke-miterlimit:10;}
	.st61{fill:none;stroke:#1E1E1C;stroke-width:0.55;stroke-miterlimit:10;}
	.st62{fill:none;stroke:#1E1E1C;stroke-width:0.51;stroke-miterlimit:10;}
	.st63{fill:none;stroke:#1E1E1C;stroke-width:1.1;stroke-miterlimit:10;}
	.st64{fill:none;stroke:#1E1E1C;stroke-width:0.25;stroke-miterlimit:10;}
	.st65{fill:none;stroke:#1E1E1C;stroke-width:1.07;stroke-miterlimit:10;}
	.st66{fill:none;stroke:#1E1E1C;stroke-width:0.94;stroke-miterlimit:10;}
	.st67{fill:none;stroke:#1E1E1C;stroke-width:0.56;stroke-miterlimit:10;}
	.st68{fill:none;stroke:#E20D18;stroke-width:1.5;stroke-miterlimit:10;}
	.st69{fill:none;stroke:#E20D18;stroke-width:1.49;stroke-miterlimit:10;}
	.st70{fill:none;stroke:#E20D18;stroke-miterlimit:10;}
	.st71{fill:none;stroke:#1E1E1C;stroke-width:0.78;stroke-miterlimit:10;}
	.st72{fill:none;stroke:#1E1E1C;stroke-width:1.08;stroke-miterlimit:10;}
	.st73{fill:none;stroke:#1E1E1C;stroke-width:0.54;stroke-miterlimit:10;}
	.st74{fill:none;stroke:#1E1E1C;stroke-width:0.83;stroke-miterlimit:10;}
	.st75{fill:none;stroke:#1E1E1C;stroke-width:0.77;stroke-miterlimit:10;}
	.st76{fill:none;stroke:#1E1E1C;stroke-width:0.87;stroke-miterlimit:10;}
	.st77{fill:none;stroke:#1E1E1C;stroke-width:0.81;stroke-miterlimit:10;}
	.st78{fill:none;stroke:#1E1E1C;stroke-width:1.13;stroke-miterlimit:10;}
	.st79{fill:none;stroke:#1E1E1C;stroke-width:0.21;stroke-miterlimit:10;}
	.st80{fill:#FFFFFF;stroke:#1E1E1C;stroke-width:0.84;stroke-miterlimit:10;}
	.st81{fill:none;stroke:#1E1E1C;stroke-width:0.42;stroke-miterlimit:10;}
	.st82{fill:none;stroke:#1E1E1C;stroke-width:0.24;stroke-miterlimit:10;}
	.st83{fill:none;stroke:#E20D18;stroke-width:1.6;stroke-miterlimit:10;}
	.st84{fill:none;stroke:#E20D18;stroke-width:1.64;stroke-miterlimit:10;}
	.st85{fill:none;stroke:#E20D18;stroke-width:1.484;stroke-miterlimit:10;}
	.st86{fill:none;stroke:#E20D18;stroke-width:1.4075;stroke-miterlimit:10;}
	.st87{fill:none;stroke:#E20D18;stroke-width:1.5853;stroke-miterlimit:10;}
	.st88{fill:none;stroke:#E20D18;stroke-width:1.2981;stroke-miterlimit:10;}
	.st89{fill:none;stroke:#E20D18;stroke-width:0.9733;stroke-miterlimit:10;}
	.st90{fill:none;stroke:#E20D18;stroke-width:0.9159;stroke-miterlimit:10;}
	.st91{fill:none;stroke:#E20D18;stroke-width:1.4439;stroke-miterlimit:10;}
	.st92{fill:none;stroke:#E20D18;stroke-width:1.0062;stroke-miterlimit:10;}
	.st93{fill:none;stroke:#E20D18;stroke-width:0.9468;stroke-miterlimit:10;}
	.st94{fill:none;stroke:#E20D18;stroke-width:1.6749;stroke-miterlimit:10;}
	.st95{fill:none;stroke:#E20D18;stroke-width:1.6513;stroke-miterlimit:10;}
	.st96{fill:#FFFFFF;stroke:#1E1E1C;stroke-width:0.8664;stroke-miterlimit:10;}
	.st97{fill:#FFFFFF;stroke:#1E1E1C;stroke-width:1.0973;stroke-miterlimit:10;}
	.st98{fill:none;stroke:#1E1E1C;stroke-width:1.0973;stroke-miterlimit:10;}
	.st99{fill:#FFFFFF;stroke:#1E1E1C;stroke-width:0.5487;stroke-miterlimit:10;}
	.st100{fill:none;stroke:#1E1E1C;stroke-width:0.8422;stroke-miterlimit:10;}
	.st101{fill:#FFFFFF;stroke:#1E1E1C;stroke-width:0.7877;stroke-miterlimit:10;}
	.st102{fill:#FFFFFF;stroke:#1E1E1C;stroke-width:0.5103;stroke-miterlimit:10;}
	.st103{fill:#FFFFFF;stroke:#1E1E1C;stroke-width:0.8422;stroke-miterlimit:10;}
	.st104{fill:none;stroke:#1E1E1C;stroke-width:0.8829;stroke-miterlimit:10;}
	.st105{fill:#FFFFFF;stroke:#1E1E1C;stroke-width:0.8257;stroke-miterlimit:10;}
	.st106{fill:#FFFFFF;stroke:#1E1E1C;stroke-width:0.5752;stroke-miterlimit:10;}
	.st107{fill:#FFFFFF;stroke:#1E1E1C;stroke-width:0.5349;stroke-miterlimit:10;}
	.st108{fill:#FFFFFF;stroke:#1E1E1C;stroke-width:1.1504;stroke-miterlimit:10;}
	.st109{fill:#FFFFFF;stroke:#1E1E1C;stroke-width:0.8829;stroke-miterlimit:10;}
	.st110{fill:none;stroke:#1E1E1C;stroke-width:0.5487;stroke-miterlimit:10;}
	.st111{fill:#FFFFFF;stroke:#1E1E1C;stroke-width:1.0441;stroke-miterlimit:10;}
	.st112{fill:none;stroke:#E20D18;stroke-width:1.5173;stroke-miterlimit:10;}
	.st113{fill:none;stroke:#E20D18;stroke-width:1.804;stroke-miterlimit:10;}
	.st114{fill:none;stroke:#E20D18;stroke-width:1.6153;stroke-miterlimit:10;}
	.st115{fill:none;stroke:#E20D18;stroke-width:1.578;stroke-miterlimit:10;}
	.st116{fill:none;stroke:#E20D18;stroke-width:1.6879;stroke-miterlimit:10;}
	.st117{font-family:'Roboto-Medium';}
	.st118{font-size:13.0448px;}
	.st119{fill:none;stroke:#E20D18;stroke-width:1.6347;stroke-miterlimit:10;}
	.st120{fill:none;stroke:#E20D18;stroke-width:1.5386;stroke-miterlimit:10;}
	.st121{fill:none;stroke:#E20D18;stroke-width:1.7396;stroke-miterlimit:10;}
	.st122{fill:#FFFFFF;stroke:#1E1E1C;stroke-width:1.4;stroke-miterlimit:10;}
	.st123{fill:none;stroke:#E20D18;stroke-width:1.4266;stroke-miterlimit:10;}
	.st124{fill:none;stroke:#E20D18;stroke-width:1.4299;stroke-miterlimit:10;}
	.st125{fill:none;stroke:#1E1E1C;stroke-width:0.9867;stroke-miterlimit:10;}
	.st126{fill:none;stroke:#DD0B18;stroke-width:1.4266;stroke-miterlimit:10;}
	.st127{fill:none;stroke:#DD0B18;stroke-width:1.4299;stroke-miterlimit:10;}
	.st128{fill:#DD0B18;}
	.st129{fill:none;stroke:#DD0B18;stroke-width:1.484;stroke-miterlimit:10;}
	.st130{fill:none;stroke:#DD0B18;stroke-width:1.4075;stroke-miterlimit:10;}
	.st131{fill:none;stroke:#DD0B18;stroke-width:1.5853;stroke-miterlimit:10;}
	.st132{fill:none;stroke:#DD0B18;stroke-width:1.2981;stroke-miterlimit:10;}
	.st133{fill:none;stroke:#DD0B18;stroke-width:0.9733;stroke-miterlimit:10;}
	.st134{fill:none;stroke:#DD0B18;stroke-width:0.9159;stroke-miterlimit:10;}
	.st135{fill:none;stroke:#DD0B18;stroke-width:1.4439;stroke-miterlimit:10;}
	.st136{fill:none;stroke:#DD0B18;stroke-width:1.0062;stroke-miterlimit:10;}
	.st137{fill:none;stroke:#DD0B18;stroke-width:0.9468;stroke-miterlimit:10;}
	.st138{fill:none;stroke:#DD0B18;stroke-width:1.6749;stroke-miterlimit:10;}
	.st139{fill:none;stroke:#DD0B18;stroke-width:1.6513;stroke-miterlimit:10;}
	.st140{fill:#FFFFFF;stroke:#1E1E1C;stroke-width:0.75;stroke-miterlimit:10;}
	.st141{fill:none;stroke:#DD0B18;stroke-width:1.5173;stroke-miterlimit:10;}
	.st142{fill:none;stroke:#DD0B18;stroke-width:1.804;stroke-miterlimit:10;}
	.st143{fill:none;stroke:#DD0B18;stroke-width:1.6153;stroke-miterlimit:10;}
	.st144{fill:none;stroke:#DD0B18;stroke-width:1.5551;stroke-miterlimit:10;}
	.st145{fill:none;stroke:#DD0B18;stroke-width:1.578;stroke-miterlimit:10;}
	.st146{fill:#E0E0E0;}
	.st147{fill:none;stroke:#DD0B18;stroke-width:1.6879;stroke-miterlimit:10;}
	.st148{fill:none;stroke:#DD0B18;stroke-width:1.6347;stroke-miterlimit:10;}
	.st149{fill:none;stroke:#DD0B18;stroke-width:1.5386;stroke-miterlimit:10;}
	.st150{fill:none;stroke:#DD0B18;stroke-width:1.7396;stroke-miterlimit:10;}
	.st151{fill:#FFFFFF;stroke:#020203;stroke-width:1.635;stroke-miterlimit:10;}
	.st152{fill:none;stroke:#E20D18;stroke-width:1.52;stroke-miterlimit:10;}
	.st153{fill:#020203;}
	.st154{fill:none;stroke:#1E1E1C;stroke-linejoin:round;}
	.st155{fill:none;stroke:#1E1E1C;stroke-linecap:round;stroke-miterlimit:10;}
	.st156{fill:#1E1E1C;}
	.st157{fill:none;stroke:#1E1E1C;stroke-linejoin:round;stroke-miterlimit:10;}
	.st158{fill:none;stroke:#020203;stroke-linejoin:bevel;stroke-miterlimit:10;}
	.st159{fill:none;stroke:#020203;stroke-miterlimit:10;stroke-dasharray:1;}
	.st160{fill:none;stroke:#020203;stroke-width:0.5;stroke-miterlimit:10;stroke-dasharray:1;}
	.st161{fill:none;stroke:#E20D18;stroke-width:1.3;stroke-miterlimit:10;}
	.st162{fill:none;stroke:#E20D18;stroke-width:0.97;stroke-miterlimit:10;}
	.st163{fill:none;stroke:#E20D18;stroke-width:0.92;stroke-miterlimit:10;}
	.st164{fill:none;stroke:#E20D18;stroke-width:1.44;stroke-miterlimit:10;}
	.st165{fill:none;stroke:#E20D18;stroke-width:1.01;stroke-miterlimit:10;}
	.st166{fill:none;stroke:#E20D18;stroke-width:0.95;stroke-miterlimit:10;}
	.st167{fill:#FFFFFF;stroke:#1E1E1C;stroke-width:2;stroke-miterlimit:10;}
	.st168{fill:none;stroke:#1E1E1C;stroke-width:1.5;stroke-linejoin:round;}
	.st169{fill:none;stroke:#1E1E1C;stroke-width:1.5;stroke-miterlimit:10;}
	.st170{fill:none;stroke:#1E1E1C;stroke-width:2;stroke-linecap:round;stroke-miterlimit:10;}
	.st171{fill:none;stroke:#1E1E1C;stroke-width:1.5;stroke-linecap:round;stroke-miterlimit:10;}
	.st172{fill:none;stroke:#1E1E1C;stroke-width:2;stroke-linejoin:round;stroke-miterlimit:10;}
	.st173{fill:none;stroke:#1E1E1C;stroke-width:2;stroke-linejoin:round;}
	.st174{fill:none;stroke:#020203;stroke-width:0.5;stroke-linejoin:bevel;stroke-miterlimit:10;}
	.st175{fill:none;stroke:#E20D18;stroke-width:1.63;stroke-miterlimit:10;}
	.st176{fill:none;stroke:#000000;stroke-miterlimit:10;}
	.st177{fill:#FFFFFF;stroke:#000000;stroke-miterlimit:10;}
	.st178{fill:none;stroke:#E20D18;stroke-width:1.3113;stroke-miterlimit:10;}
	.st179{fill:none;stroke:#E20D18;stroke-width:1.3459;stroke-miterlimit:10;}
	.st180{fill:none;stroke:#E20D18;stroke-width:1.4481;stroke-miterlimit:10;}
	.st181{fill:none;stroke:#E20D18;stroke-width:1.3929;stroke-miterlimit:10;}
	.st182{fill:none;stroke:#E20D18;stroke-width:1.327;stroke-miterlimit:10;}
	.st183{fill:none;stroke:#E20D18;stroke-width:1.4965;stroke-miterlimit:10;}
	.st184{fill:none;stroke:#E20D18;stroke-width:1.225;stroke-miterlimit:10;}
	.st185{fill:none;stroke:#E20D18;stroke-width:1.4563;stroke-miterlimit:10;}
	.st186{fill:none;stroke:#E20D18;stroke-width:1.5717;stroke-miterlimit:10;}
	.st187{fill:none;stroke:#E20D18;stroke-width:1.5529;stroke-miterlimit:10;}
	.st188{fill:#BFBEBF;stroke:#020203;stroke-miterlimit:10;}
	.st189{fill:none;stroke:#E20D18;stroke-width:2.0835;stroke-miterlimit:10;}
	.st190{fill:none;stroke:#E20D18;stroke-width:1.8751;stroke-miterlimit:10;}
	.st191{fill:none;stroke:#E20D18;stroke-width:1.6876;stroke-miterlimit:10;}
	.st192{fill:none;stroke:#E20D18;stroke-width:1.698;stroke-miterlimit:10;}
	.st193{fill:none;stroke:#E20D18;stroke-width:1.6043;stroke-miterlimit:10;}
	.st194{fill:none;stroke:#E20D18;stroke-width:1.8126;stroke-miterlimit:10;}
	.st195{fill:none;stroke:#E20D18;stroke-width:1.6147;stroke-miterlimit:10;}
	.st196{fill:none;stroke:#E20D18;stroke-width:1.5938;stroke-miterlimit:10;}
	.st197{fill:none;stroke:#E20D18;stroke-width:1.6251;stroke-miterlimit:10;}
	.st198{fill:none;stroke:#E20D18;stroke-width:1.6459;stroke-miterlimit:10;}
	.st199{fill:none;stroke:#E20D18;stroke-width:1.7605;stroke-miterlimit:10;}
	.st200{fill:#FFFFFF;stroke:#1E1E1C;stroke-width:0.87;stroke-miterlimit:10;}
	.st201{fill:#FFFFFF;stroke:#1E1E1C;stroke-width:1.1;stroke-miterlimit:10;}
	.st202{fill:#FFFFFF;stroke:#1E1E1C;stroke-width:0.55;stroke-miterlimit:10;}
	.st203{fill:#FFFFFF;stroke:#1E1E1C;stroke-width:0.79;stroke-miterlimit:10;}
	.st204{fill:#FFFFFF;stroke:#1E1E1C;stroke-width:0.51;stroke-miterlimit:10;}
	.st205{fill:none;stroke:#1E1E1C;stroke-width:0.88;stroke-miterlimit:10;}
	.st206{fill:#FFFFFF;stroke:#1E1E1C;stroke-width:0.83;stroke-miterlimit:10;}
	.st207{fill:#FFFFFF;stroke:#1E1E1C;stroke-width:0.58;stroke-miterlimit:10;}
	.st208{fill:#FFFFFF;stroke:#1E1E1C;stroke-width:0.53;stroke-miterlimit:10;}
	.st209{fill:#FFFFFF;stroke:#1E1E1C;stroke-width:1.15;stroke-miterlimit:10;}
	.st210{fill:#FFFFFF;stroke:#1E1E1C;stroke-width:0.88;stroke-miterlimit:10;}
	.st211{fill:#FFFFFF;stroke:#1E1E1C;stroke-width:1.04;stroke-miterlimit:10;}
	.st212{fill:#FFFFFF;stroke:#020203;stroke-linejoin:round;stroke-miterlimit:10;}
	.st213{fill:#E52622;}
	.st214{font-size:12.4174px;}
</style>
<g>
	<g>
		<g>
			<g>
				<path class="st5" d="M134.6,516.2c0,0-7.1-0.3-11.4,6.6c-4.3,6.9,0.3,15.7,0.3,15.7c2.6,13,13.2,12.1,13.2,12.1
					c15.6-0.5,12.9-20.3,12.9-20.3l-0.2-13.8C149.5,516.3,143.8,520.8,134.6,516.2z"/>
				<path class="st5" d="M346.5,462.6l-0.6,1.5c0,0-2.1,0-4.2,10.2l25.5,6.2c0,0,3.5-13.2-3-16.3l-3.4-0.6l-3.5,0.7l-0.1-2.2
					L346.5,462.6z"/>
				<path class="st5" d="M209,464.6l0.6,1.5c0,0,2.1-0.1,4.7,10l-25.1,7.3c0,0-4.1-13,2.2-16.5l3.4-0.8l3.5,0.5l-0.1-2.2L209,464.6z
					"/>
				<path class="st5" d="M274.8,555.6l0.1,2.9l-4.8,0.1l-1.6,3.8l0.9,23.8l1.9,4.3l4.9-0.1c0,0,0.9-1,0.7-5.3
					c-0.2-4.3-0.1-5.4-0.1-5.4l7.9-0.3l0.2,8.3c0,0,0.3,2.4,0.9,2.4s4.9-0.1,4.9-0.1s1.9-3,2.2-5.3c0.3-2.3-0.5-22.3-0.5-22.3
					l-1.9-4.3l-5.2,0.1l-0.2-1.7L274.8,555.6z"/>
			</g>
			<g id="Base_6_">
				<g id="base_3_">
					<g>
						<path class="st96" d="M294.8,464.1l-0.3-6.3c0,0,9.2-5.6,36.2-6.7c27-1.1,29.7,5.4,29.7,5.4s1.2,1,0.4,6.8
							c0,0-2.9,0.8-3.2,0.6c-0.3-0.2-0.2-2.2-0.2-2.2s-23.6,0.2-37.5,7.4"/>
						<path class="st96" d="M262.1,464.2l-0.2-6.1c0,0-10.3-5.6-37.3-5.4c-27,0.1-29.3,6.8-29.3,6.8s-1.2,1.1-0.2,6.8
							c0,0,2.9,0.7,3.2,0.5c0.3-0.2,0.1-2.2,0.1-2.2s23.6-0.9,37.7,5.7"/>
						<path class="st96" d="M280,469.3c10.3,0,15-5.2,15-5.2v-0.6l-2-40.4c-0.1-1-0.2-2.1-0.5-3.1c-0.3-0.8-0.5-1.6-1-2
							c0,0-0.3,5.4-12.6,5.7l-2.7,0.1c-12.3,0.3-12.8-5.1-12.8-5.1c-0.3,0.4-0.7,1.2-0.9,2c-0.3,1-0.3,2.1-0.3,3.1l-0.2,40.4
							l0.1,0.6c0,0,4.9,5,15.1,4.5L280,469.3z"/>
						<path class="st96" d="M276.6,423.7c-10.9,0.4-12.4-4.9-12.4-4.9l-0.1-5.2c0,0-0.2-3,0.8-4c0,0,0,4.9,12.3,4.5h0.9
							c12.3-0.3,12-5,12-5c1,1,1,4,1,4l0.1,5.2c0,0-1.4,5.3-12.3,5.4L276.6,423.7z"/>
						<path class="st96" d="M264.8,410v-3h25.2l-0.5,1.9c0,0-0.5,5.4-11.9,5.3C266.3,414.1,264.8,410,264.8,410z"/>
						<path class="st97" d="M274.8,555.9l0.1,2.5c0,0,0.8,0.3,1,1.7l8.5-0.2c0,0,0.1-1.5,0.6-1.6l-0.1-2"/>
						<path class="st97" d="M274.9,558.4l-4.8,0.1l1.2,31.9l4.9-0.1c0,0,0.9-0.7,0.7-3.5l-1-26.9"/>
						<path class="st97" d="M270.2,558.5l-0.7,1.5c-1.5,3.2-0.8,1.6-0.7,13.7v0.3c0.4,12.2,0,11.8,1.7,15l0.8,1.5"/>
						<path class="st97" d="M285.4,558.2l4.8-0.1l0.3,32l-4.9,0.1c0,0-1-0.6-0.9-3.4l-0.3-26.9"/>
						<path class="st97" d="M290.2,558.3l0.8,1.5c1.7,3.1,0.9,1.6,1.3,13.7v0.3c0.2,12.2,0.5,11.8-1,15l-0.7,1.5"/>
						<line class="st98" x1="276.7" y1="579.2" x2="284.7" y2="579.1"/>
						<path class="st96" d="M262.1,464.9l-0.1-0.6c0,0-43.5,9.6-75.1,19.9c-31.7,10.3-50.8,21.1-50.8,21.1s-4,2.4-2.1,11
							c0,0,8,5,15.4,0l1.7-3.3c0,0,32.5-11.1,53.7-16.5c14.3-3.7,29.5-5.9,37.8-7c4.9-0.6,9.7-1.4,14.4-2.4l0,0
							c1.9-0.3,4-0.2,5.8,0.6l1.2,0.6l0,0c0,0,1.6,1.9,3.1,23.7c1.6,21.8,2.9,38.3,2.9,38.3s0.9,7.7,11,6.7c2-0.2,3.7-0.5,5-0.9
							c3.2-0.9,5.5-3.8,5.5-7.4l1.2-59.5l0,0l1.2-0.6c1.8-0.9,3.8-1.1,5.7-0.9h0.1c4.9,0.8,9.7,1.3,14.5,1.7
							c8.3,0.7,23.7,2.3,38.1,5.3c21.5,4.4,54.5,14.1,54.5,14.1l-0.1,2.7c11.1,5.1,17.2-0.2,17.2-0.2c1.6-8.8-2.5-11-2.5-11
							s-19.7-9.9-51.7-18.8c-32.1-8.9-75.3-17.4-75.3-17.4"/>
					</g>
					<g>
						<path class="st98" d="M150.1,516.9v12.9l-0.4,0.3c0,0-1-4.2-3.9-6.5c-2.4-2-4.9-2.6-4.9-2.6l-0.1-2.6"/>
						<path class="st97" d="M123.1,538c-0.9-1.8-1.7-5.5-1.7-7.7c-0.2-7.7,5.5-13.9,12.6-14.1"/>
						<path class="st99" d="M122,530.7c-0.2-7.7,6.6-13.1,13.7-13.3"/>
						
							<ellipse transform="matrix(0.9997 -2.294325e-02 2.294325e-02 0.9997 -12.2752 3.2725)" class="st97" cx="136.5" cy="536.6" rx="13" ry="13.8"/>
						
							<ellipse transform="matrix(0.9997 -2.294325e-02 2.294325e-02 0.9997 -12.2752 3.2765)" class="st99" cx="136.7" cy="536.6" rx="2.3" ry="2.3"/>
						<path class="st99" d="M136.7,525c0,0,0.3,7.6,0.5,7.9c0.3,0.3,0.6,0.7,1.4,0c0.8-0.7,3.8-6.1,3.8-6.1"/>
						<path class="st99" d="M144.2,528.6c0,0-4.4,5.9-4.4,6.4c0,0.5,0.1,1,1,1s6.6-1.9,6.6-1.9"/>
						<path class="st99" d="M147.6,536.4c0,0-7.1,0.2-7.5,0.5s-0.6,0.6,0,1.5c0.6,0.9,5.7,4.2,5.7,4.2"/>
						<path class="st99" d="M144.7,544.4c0,0-5.7-4.4-6.2-4.4s-0.9,0.1-0.8,1.2c0.1,1.1,2.2,7,2.2,7"/>
						<path class="st99" d="M135,525c0,0,0.5,7.6,0.3,7.9c-0.3,0.3-0.5,0.7-1.4,0.1s-4.4-5.7-4.4-5.7"/>
						<path class="st99" d="M127.9,529.4c0,0,5,5.4,5,5.9c0,0.5,0,1-1,1c-1,0.1-6.8-1.2-6.8-1.2"/>
						<path class="st99" d="M125.4,538.5c0,0,7-0.6,7.5-0.3c0.3,0.3,0.7,0.5,0.1,1.5c-0.5,1-5.2,4.7-5.2,4.7"/>
						<path class="st99" d="M130,546.3c0,0,4.5-5.8,5-5.9s0.9-0.2,1,1c0.3,1-0.4,7.3-0.4,7.3"/>
					</g>
					<line class="st100" x1="198.4" y1="466.8" x2="202.7" y2="466.6"/>
					<path class="st101" d="M189.8,482.7c-1.5-1.7-1.3-5.9-1.3-5.9c-0.1-5.5,2.1-10,4.9-10c2.8-0.1,5.7,4.1,5.7,9.6l0.1,3"/>
					<path class="st99" d="M190.1,482.5c-1.4-1.6-1.2-5.5-1.2-5.5c-0.1-5,1.9-9.2,4.5-9.3c2.6-0.1,4.5,3.8,4.6,9l-0.1,3.1"/>
					<path class="st99" d="M191.8,469c0,0,0.3,6.9,0.8,8.1c0.5,1.2,0.9-4.3,1.7-5.7c0.3-0.7,0.6-1.2,0.6-1.2"/>
					<path class="st99" d="M196.1,472.1c0,0-2.3,5.2-2.3,6.4c0,1.2,2.3-1.3,4-2.1"/>
					<path class="st102" d="M190.4,470.9c0,0,1.9,6.5,1.4,6.1c-0.4-0.3-1.6-1.8-2.9-2.3"/>
					<path class="st102" d="M189.1,475.6l2.9,3.2c0,0,0.6,1-0.3,1.1s-2.4-0.1-2.4-0.1"/>
					
						<ellipse transform="matrix(0.9997 -2.294325e-02 2.294325e-02 0.9997 -10.9376 4.5523)" class="st97" cx="192.9" cy="478.9" rx="0.8" ry="1.7"/>
					<path class="st103" d="M213.5,475.1c0,0-2-7.5-3.5-8.3l-0.2,9.3l-6.3,1.9l-0.2-1.7c-0.8-3.7-2.3-5.9-2.3-5.9l-0.1-3.3
						c0,0,1.9,2.6,5.2,2c3.3-0.6,3.6-2.2,3.6-2.2l-1-1.4v1l-6.1,0.2V465"/>
					<line class="st104" x1="357.4" y1="464.2" x2="352.9" y2="464.1"/>
					<path class="st105" d="M367.2,480.3c1.5-1.8,1.1-6.3,1.1-6.3c-0.2-5.7-2.6-10.3-5.6-10.3c-3,0.1-5.7,4.5-5.6,10.3l0.1,3.1"/>
					<path class="st106" d="M366.9,480.2c1.4-1.7,1-5.7,1-5.7c-0.1-5.3-2.4-9.6-5.1-9.5c-2.7,0.1-4.5,4.3-4.4,9.6l0.3,3.3"/>
					<path class="st106" d="M364.4,466.1c0,0,0,7.1-0.4,8.4c-0.4,1.3-1.1-4.4-2-6c-0.4-0.7-0.7-1.3-0.7-1.3"/>
					<path class="st106" d="M360.2,469.6c0,0,2.7,5.4,2.8,6.6c0.1,1.2-2.4-1.3-4.3-2"/>
					<path class="st107" d="M365.9,468c0,0-1.7,6.9-1.2,6.4c0.4-0.4,1.6-2,2.9-2.6"/>
					<path class="st107" d="M367.6,472.9l-2.8,3.6c0,0-0.6,1.1,0.3,1.1s2.5-0.3,2.5-0.3"/>
					
						<ellipse transform="matrix(0.9997 -2.294325e-02 2.294325e-02 0.9997 -10.8387 8.4702)" class="st108" cx="363.7" cy="476.6" rx="0.9" ry="1.7"/>
					<path class="st109" d="M342,473.7c0,0,1.7-8,3.2-8.9l0.6,9.7l6.8,1.7l0.2-1.9c0.6-3.9,2.2-6.3,2.2-6.3l-0.1-3.5
						c0,0-1.9,2.9-5.4,2.3c-3.5-0.5-3.9-2.1-3.9-2.1l0.9-1.5v1l6.3-0.2v-1.8"/>
					
						<ellipse transform="matrix(0.9997 -2.294325e-02 2.294325e-02 0.9997 -12.2752 3.2725)" class="st100" cx="136.5" cy="536.6" rx="11" ry="11.7"/>
					<path class="st110" d="M122.4,534.1c-0.2-7.7,5.7-13.2,12.9-13.3c0,0,2.3-0.4,5.7,0.7"/>
				</g>
			</g>
		</g>
		<g>
			<path class="st96" d="M422.4,511.2c7.1,0.2,12.8,6.4,12.6,14.1c-0.1,2.2-0.9,5.8-1.7,7.7l-25.3-7.1l9.2-12.1L422.4,511.2z"/>
			<path class="st110" d="M434.5,525.7c0.2-7.7-6.6-13.1-13.7-13.3"/>
			<path class="st97" d="M419.6,545.3c7.1,0.2,13-5.9,13.2-13.5c0.2-7.7-5.5-13.9-12.6-14.1c-7.1-0.2-13,5.9-13.2,13.5
				C406.9,538.9,412.5,545.1,419.6,545.3"/>
			
				<ellipse transform="matrix(2.294325e-02 -0.9997 0.9997 2.294325e-02 -121.3866 939.0013)" class="st99" cx="419.7" cy="531.6" rx="2.3" ry="2.3"/>
			<path class="st110" d="M419.7,519.9c0,0-0.3,7.6-0.5,7.9c-0.3,0.3-0.6,0.7-1.4,0c-0.8-0.7-3.8-6.1-3.8-6.1"/>
			<path class="st110" d="M421.4,519.9c0,0-0.5,7.6-0.3,7.9c0.3,0.4,0.5,0.7,1.4,0.1c0.9-0.6,4.4-5.7,4.4-5.7"/>
			<path class="st110" d="M428.5,524.4c0,0-5,5.4-5,5.9c0,0.5,0,1,1,1c1,0.1,6.8-1.2,6.8-1.2"/>
			<path class="st110" d="M431.1,533.5c0,0-7-0.6-7.5-0.3c-0.3,0.3-0.7,0.5-0.1,1.5c0.5,1,5.2,4.7,5.2,4.7"/>
			<path class="st100" d="M419.7,543.2c6.1,0.2,11.1-5,11.2-11.5s-4.6-11.8-10.7-12c-6.1-0.2-11.1,5-11.2,11.5
				C408.9,537.7,413.6,543.1,419.7,543.2"/>
			<path class="st110" d="M434.1,529c0.2-7.7-5.2-13.3-12.3-13.4c0,0-2-0.3-5.4,0.8"/>
			<path class="st97" d="M417.4,513.7l-0.1,2.2c0,0-2.4,1-4.9,3c-2.9,2.3-4.1,5.5-4.1,5.5l-0.7,1.8l0.7-14.1c0,0,1,0.7,3.9,1.1
				S417.4,513.7,417.4,513.7z"/>
			<path class="st110" d="M412.5,523.4c0,0,4.1,5,4.3,5.8c0.2,0.4-0.2,1.8-1.2,1.8c-1,0-6.3-1.7-6.3-1.7"/>
			<path class="st110" d="M412,539.6c0,0,4.8-3.7,5.3-3.7c0.4,0,0.9,0.1,0.8,1.2c0,1.1-1.7,5.6-1.7,5.6"/>
			<path class="st110" d="M419.6,542.9c0,0,0.7-6.1,1-6.3c0.3-0.3,0.7-0.5,1.4,0.3c0.8,0.8,2.9,5,2.9,5"/>
			<path class="st110" d="M409.1,532.3c0,0,6.1,0.1,6.4,0.4c0.3,0.3,0.6,0.6-0.1,1.5c-0.7,0.9-4.8,3.3-4.8,3.3"/>
		</g>
	</g>
	<path class="st0" d="M248.7,337.5l-40.2,27.8l-42.4-102L156,16.6l8.3-9.1c1.3-1.1,2.3-1,3.8,0s2,2.2,2,2.2c1.2,0.2,2.6,0.9,3.9,1.8
		c4,3,6.8,7.3,7.9,12.2c3.6,15.5,3.6,42.8,3.6,42.8s0.3,3.7,1,14.3C187,91.2,190,101,190,101l2,2.4l5.3,5.8l12.8,12.1l3.8,3.7
		c3.1,2.9,5.7,6.3,7.7,10.1c0.9,1.7,1.6,3.4,2,5.1c1.3,5.6,1.1,9.9,1.4,15c0.3,5-1.7,14.1-1.7,14.1l-0.9,6.6l14.4,74.5l0.6,1.7
		c0,0,15.6,24.4,22,43.1c0.3,1,0.6,2.1,0.7,3.2C260.8,304.6,262.3,326.6,248.7,337.5z"/>
	<path class="st111" d="M172.8,358.9l-1.8-47.7l70.3,23.1c0,0,15.8-0.3,25.2-2.7c10.5-2.6,17.1-6.2,17.1-6.2s20-11.5,30.8-14.3
		c8.4-2.2,14.3-2.3,37.3,0.1c5.2,0.5,10.2,2.3,13.8,4.5c13.2,8.1,14.6,10.1,14.6,10.1c7.7-0.3,18.4,4,18.4,4
		c6.3,2,9.7,6.1,12.6,11.1c0.2,0.3,2.2,3.8,2.3,4.1c1.9,3.6,3.2,7,5,10.6c2.3,4.8,4.3,9.9,3.5,15.2c-0.8,4.7,0.1,10.2-2.6,14.3
		c-2.8,4.2-6.2,8-10.6,10.7c0,6-23,7.8-23,7.8l-49.6,1.8l-27.9,1l-1.7,0.1l-19.8,0.8h-0.5l-34.9,1.3l0.3,2.6c0,0,2.1,0.4-13,1.3
		c-15.1,0.8-63.7,0-63.7,0l-6.2-4.9l-5-30.4C164,377.6,162.6,366.2,172.8,358.9C172.8,358.9,172.9,358.9,172.8,358.9"/>
	<path class="st17" d="M244.6,410.5l3.3-3.6l3.1-6l-10.9-16.3c0,0-8.5-3-11.3-4.2c-2.8-1.2-7-1.7-15.6-11.2c0,0-5.1-7-5.6-8.3
		c-0.4-1.2-8.3-7.9-9.1-8.2l-2.1,2.1c0,0,7,4.3,9,8.5c2,4.2,7.5,12.5,11.4,15.6s12,8.7,19.9,9.6c0,0,0.5-2,10.5,16.1l-2,4.3
		L244.6,410.5z"/>
	<path class="st17" d="M196.6,355C196.6,355,196.6,354.9,196.6,355"/>
	<path class="st17" d="M244.6,410.5c0,0,1.9,0.4-12,1.3c-13.9,0.8-58.5,0-58.5,0l-5.7-4.9l-4.6-30.4c0,0-1.2-11.4,8.2-18.6l0,0"/>
	<path class="st17" d="M176.3,365.6c-6.9,5.7-5,14.9-5,14.9l3.5,23.7l4.3,3.8l44.9,0.2l10.6-0.7l1.9-4.7c-1.4-2.6-4-6.5-4-6.5
		c-3.4-0.6-17.5-6.6-23.3-13.8c-2.4-3-7.3-9-8.8-12.2c-1.5-3.2-7-6.6-7-6.6s-0.2-0.1-0.5-0.2"/>
	<polyline class="st17" points="236.5,402.8 247.8,404.6 251,400.9 	"/>
	<line class="st17" x1="174.7" y1="404.3" x2="168.5" y2="406.9"/>
	<g>
		<line class="st17" x1="236.9" y1="388.6" x2="232.4" y2="396.3"/>
		<path class="st17" d="M225.2,369.9l-8.1,2.2c-0.2,0-0.3-0.2-0.2-0.3l1.7-2.3l7.2-2L225.2,369.9l6.4-2.4l3.1,7.5c0,0-1.6,1.9-5.4,3
			L225.2,369.9"/>
		<path class="st17" d="M257.5,355.6l-26,10.5l4.3,10.6c0,0,3-2.6,5.4-3.7c0,0,1.6-0.4,4.2,0.2c2.7,0.6,5.4-2.8,7.7-3.7
			c2.3-0.9,4.2-0.3,4.2-0.3s2.1,0.7,4.3-1.8c2.2-2.5,3.8-1.6,3.8-1.6s1.2-1.2,1.1-1.8c-0.1-0.6-7.1-8.5-7.1-8.5
			S258.8,355.1,257.5,355.6z"/>
		<polyline class="st17" points="258.3,355.9 257.7,358.4 235,368.1 237.4,373.4 235.8,376.9 		"/>
		<polyline class="st17" points="266,364.3 263.6,364.9 257.7,358.4 		"/>
		<line class="st17" x1="237.4" y1="373.4" x2="263.6" y2="364.9"/>
		<polyline class="st17" points="225.8,367.5 231.5,366.2 235,368.1 		"/>
	</g>
	<path class="st17" d="M348.2,345.4L348.2,345.4c0.3,0,0.3,0.1,0.3,0.1s13.8,1.7,31.8,13.4s25.7,30.4,25.7,36.4s-21.1,7.8-21.1,7.8
		l-45.5,1.8"/>
	<polyline class="st17" points="314.1,405.9 312.5,406 294.3,406.7 293.9,406.8 246.3,408.7 	"/>
	<path class="st17" d="M323.5,345.7c-15,1.8-35.2,6.8-57.3,19.5"/>
	<path class="st17" d="M349.3,341.2c0,0,15.9,5,25.5,9.2"/>
	<path class="st17" d="M323.9,342c-15.6,1.9-36.6,7-58.8,19.8"/>
	<path class="st17" d="M405.5,397c0,0,15.9-7.4,16.3-21.9c0.3-12.8-6.3-18.1-6.3-18.1s-10-7-40.9-6.6c0,0,14.7,8.6,21,16
		c6.3,7.4,10,11.4,12,19.7C409.7,394.5,405.5,397,405.5,397z"/>
	<path class="st0" d="M209.4,363.6c0,0,24.4-5.7,37-20.5c12.7-14.8-13.9-54.5-13.9-54.5l-20.1-33.7c0,0-9-19.4-11.1-25.5
		c-2.2-6.1-6.8-23.9-5.1-35.5s4-21.1,4-21.1s5.9-19.3,3.3-29.7c-2.6-10.4-4.5-12.9-12.6-22.4c-5.2-6.1-13-15.1-17.8-20.8
		c-3.4-3.9-6.1-8.4-7.8-13.3c-1.3-3.7-2.7-8.1-3-11.6c-0.7-7.6-1.1-32.2-0.9-36.7c0.3-4.5,2.4-24.5,2.4-24.5s0.1-5.1,0.3-5.5
		c0.3-0.3-3.7,1-6,3.5c-2.3,2.4-3.6,4.2-4.2,10.1s-1.7,9.6-1.7,9.6s-1.4,8-2,17.3s-2.6,37.9-2.6,37.9s-0.3,9.7,0,13.3
		c0.3,3.7-0.2,8.2-0.2,8.2l-1,30.5l3,27.5l3.6,28.1l2.7,21.6l2,13.9l2.5,20.7l2.3,25.1c0,0-0.3,10.8,0.9,21.7s5.1,33.7,5.1,33.7
		l3.2,8.3L209.4,363.6z"/>
	<path class="st17" d="M210.8,365.7c0,0,25.8-6.5,38.5-21.3S237,289.1,237,289.1l-19.7-33.4c0,0-9.7-19-11.8-25.1
		c-2.2-6.1-7.3-23-6.1-34.7c1.1-10.3,2.5-16.3,3-19.3c0.2-0.9,1.7-5,1.9-5.8c1.2-4.3,3.7-17,2.4-26.3c-1.8-12.9-4.1-14.4-12.2-24
		S174,95.3,174,95.3s-6.6-12.1-7.7-19.6c-1.3-9-1.9-30.7-1.6-35.2c0.3-4.5,2.3-25,2.3-25s0.3-2.1,0.6-3.8c0.2-1.2,1.4-2.2,2.6-1.8
		c0.1,0-0.4-0.5-0.3-0.5c0,0-2.3-3.6-5.1-1.9c-1.5,0.9-1.1,4.3-1.1,4.3"/>
	<path class="st17" d="M167.5,306.1c0,0-2.3-17-1.7-20.8c0.7-3.7,2.2-7.6,2.2-7.6s-0.9-29.2-1.8-37.4c-1-8.2-1.1-26.8-3-33
		c-1.8-6.3-10.3-72.1-10.3-72.1v-9.6c0,0,2.1-17,5.5-23c3.4-5.9,8.3-11.9,8.3-11.9"/>
	<polyline class="st21" points="251.9,339.6 274.1,337.3 266.9,360.8 	"/>
	<path class="st16" d="M380,326.1c-10.8-1-22.6,0.6-22.6,0.6l-6.3,0.8"/>
	<polyline class="st17" points="274.5,337.3 325,330.8 325.2,330.8 	"/>
	<path class="st17" d="M414.6,391.2c0,0,0.2-4.6,0.7-5.7c0.5-1.1,4.6-13,2.8-17.3c-1.9-4.3-3-11-19.8-14.1c0,0-13-1.7-19.1-1.2"/>
	<path class="st17" d="M252.8,335.3c0,0,15-0.9,23.3-4.3c8.3-3.5,14.9-7.2,14.9-7.2s11.2-6.9,21.1-9.7s15.5-3.4,15.5-3.4l0,0"/>
	<path class="st17" d="M327.7,309.6L327.7,309.6c-2.3,0.2-8.2,0.8-15.9,3c-9.9,2.8-21.2,9.4-21.2,9.4s-6.6,3.7-14.9,7.2
		c-8.3,3.5-23.3,4.3-23.3,4.3"/>
	<path class="st21" d="M213.4,124.3c0,0,5.2,8.7,2.2,33.5c0,0,5.4,7.5,7.7,16.2"/>
	<path class="st21" d="M221.9,263.5c0,0,5-2.9,10.8-1.7c5.6,1,9.6,6.1,9.8,6.4l0,0l0,0c0.2,0.2,2.4,2.4,4.4,6.6
		c2.2,4.4,4.8,22.2,5.5,25.5s1,13.9,0.9,16.6c-0.1,2.6-1.4,5.7-1.5,5.8"/>
	<path class="st17" d="M251.9,322.8L251.9,322.8c0.4-0.3,13.4-9.2,7.5-27.8c-6.1-18.9-22.1-45.2-22.1-45.2s-7.6-14.6-9.2-18.6
		c-1.7-4-5.6-13.2-7.4-23.2s1.3-29.4,1.3-29.4l0.4-3.2"/>
	<path class="st17" d="M200.3,188.8c0,0,4.7-3.9,5-9.5c0,0-1.7,20.9-0.9,30.4s2.6,19,2.6,19l5.8,17.8c0,0-12-22.4-13.3-41.4
		C199.5,205.2,198.7,196.9,200.3,188.8z"/>
	<path class="st21" d="M244.7,303.6c0,0-0.5-13-6.9-21.2c-6.3-8.2-9.3-7.7-9.3-7.7l-6.5-11.1c0,0,8.4-0.4,13.5,2.4s8,5.5,11.6,13.4
		c0,0,2.8,4.1,5.1,19.2"/>
	<line class="st17" x1="226.9" y1="379.8" x2="229.3" y2="378.1"/>
	<path class="st16" d="M190,100.5c0,0,4.1,7.6,4.4,11.9c0.3,4.3,0.3,8.1,0.3,8.1s4,4.7,7.7,9.7c3.7,4.9,5.5,15.9,5.8,24.9
		c0.3,9-3,24.4-3,24.4l15,40.3l13.5,29.3l8.9,19.2"/>
	<line class="st21" x1="312.9" y1="410.3" x2="312.4" y2="405.2"/>
	<line class="st17" x1="257.7" y1="407.1" x2="256.9" y2="421"/>
	<polygon class="st0" points="255.5,408.7 248.6,435.6 251,436.3 259.2,408.3 	"/>
	<path class="st0" d="M245,461h0.8c0,0,1.3-2.4,1-4.2c-0.3-1.7,0.6-2.6,0.6-2.6s0.6-0.4,0.4-1.9c-0.3-1.5,1.1-2.3,1.1-2.3
		s0.3,0.8,1-3c0.7-3.8,2.5-9.1,1.9-10.2l-1.5-0.4l-7.8,21.6L245,461z"/>
	<path class="st0" d="M247,435.5l4.8,1.4l-3.7,11.2c0,0-1.2,0.5-1.4,1.6c-0.2,1-0.2,2.5-1.3,3.9c0,0-0.3,0.7,0.4,2
		c0.7,1.4-1.2,6.1-1.4,6.1s-4.2-0.9-4.2-1.4c0-0.6-0.5-1.6,1.1-6.4C242.9,448.9,247,435.5,247,435.5z"/>
	<path class="st0" d="M312.2,419.9c-0.9-0.9-1.2-2.2-1-3.4l0,0l0.4-1.7l0.4-1.8l0.4-1.6l0.3-1l1.1-4.3c0,0,1.2-3,2-3
		s-0.7,2.5,11.7,1.9c12.3-0.7,10.4-2.4,10.4-2.4c1.5,0.3,1.5,2.8,1.5,2.8l0.3,13.8c0,0-0.3,2.1-1.7,3.2c-1.1,1-16.6,0.9-21.3,0.9
		c-0.9,0-1.7-0.3-2.3-1L312.2,419.9z"/>
	<path class="st17" d="M317.1,402.4l5.3-32.4c0,0,8.9,0.3,11.4,0.3s8.7-0.8,8.7-0.8l-4.9,33.3c0,0-4.1,2-11.4,1.7
		c-7.3-0.3-9.4-0.8-9.6-1.5C316.6,402.3,317.1,402.4,317.1,402.4z"/>
	<path class="st17" d="M336.5,279.5l-1.2,0.7v1.6c0,0,7.7,0.6,11.2,0.6c3.6,0,9.9-1.4,9.9-1.4v-1.4c0,0-6.3,1.1-10.1,1.1
		s-10.3-0.3-10.3-0.3"/>
	<line class="st17" x1="354.5" y1="278.4" x2="356.3" y2="279.5"/>
	<g>
		<path class="st5" d="M398.3,271.5l-103.1,1.7c-1.8,0-4.7,1.8-4.7,0l-0.7-3.3c0-1.8,3.7-3.3,5.5-3.3l55.1-6.2
			c1.8,0,53.3,2.4,53.3,4.3l0.8,3.7C404.4,270.2,400.2,271.5,398.3,271.5z"/>
		<path class="st0" d="M343.6,369.5l0.9-0.3l12.2-77.1l11-17.5l-42.2,1.4l4,18.1l-8.8,75.1c0,0-0.2,0.9,1,1c1.1,0.1,11,0.3,11,0.3
			L343.6,369.5z"/>
		<path class="st0" d="M294.1,276.8l96.4-3.1l9.9-0.8l4.2-4.4c0,0-14.3,2.7-56.2,3.6s-58.3,0.6-58.3,0.6S293.4,276.8,294.1,276.8z"
			/>
		<path class="st0" d="M404.4,268.3c0,0,1.1-3.6-0.8-5.3c-1.7-1.5-0.6-2.5-14.3-3c-13.7-0.4-33.2-1.1-43.6-0.7
			c-10.3,0.3-37.5,3.3-37.5,3.3s-13.1,2-14.6,2.4c-1.5,0.4-3.8,3.9-3.8,3.9"/>
		<path class="st0" d="M290,272.5c0,0-0.4-3,0-3.6"/>
	</g>
	<path class="st0" d="M307.7,252.7l74-1.4l7.6-0.4l2.8-4.4c0,0-10.6,3-42.7,3.1c-32.1,0.2-44.7-0.2-44.7-0.2
		S307.1,252.7,307.7,252.7z"/>
	<path class="st0" d="M392.1,246.4c0,0,0.9-2.3-0.6-3.5c-1.2-1-0.5-1.7-11-1.9c-10.4-0.3-25.6-0.7-33.5-0.4
		c-7.9,0.3-28.8,2.2-28.8,2.2s-10.1,1.3-11.2,1.6c-1.1,0.3-3,2.6-3,2.6c-0.3,0.3,0,2.3,0,2.3S375.4,251.6,392.1,246.4z"/>
	<polygon class="st0" points="359.7,259.3 364.9,251.5 330,252.2 331.9,260.4 	"/>
	<g>
		<polygon class="st17" points="171.8,340.3 172.2,359.9 176,362.9 177.3,374.2 182.3,384.7 190.9,384.1 194,372.5 192.8,361.8 
			196.6,358 196.1,335.4 191.5,336.8 192.1,355.7 191.6,356.3 175.9,357.6 175.6,356.9 175.4,338 171.8,337.2 		"/>
		<polygon class="st17" points="171.8,336.8 168.6,306.9 171.8,281.2 185.4,279.8 193,304.8 196.1,335.4 191.5,336.8 188.7,306.2 
			182,284.6 175.4,285.3 172.1,306.9 175.4,338 171.8,337.2 		"/>
		<line class="st17" x1="172" y1="281.5" x2="175.4" y2="285.3"/>
		<line class="st17" x1="185.1" y1="280.2" x2="182" y2="284.6"/>
		<circle class="st17" cx="180.7" cy="311.3" r="3"/>
	</g>
</g>
<g>
	<line class="st112" x1="86.7" y1="407.6" x2="86.7" y2="8"/>
	<line class="st113" x1="76.2" y1="413.6" x2="164" y2="413.6"/>
	<line class="st114" x1="80.5" y1="4.6" x2="162.4" y2="4.6"/>
	<polygon class="st40" points="86.7,4.6 92.8,16.4 80.5,16.4 	"/>
	<polygon class="st40" points="86.7,413.9 80.5,402.2 92.8,402.2 	"/>
</g>
<line class="st115" x1="492.3" y1="587.1" x2="492.3" y2="264.4"/>
<g>
	<rect x="465.1" y="408.4" class="st36" width="61.4" height="15.9"/>
</g>
<line class="st116" x1="363" y1="259.3" x2="498.4" y2="259.3"/>
<line class="st116" x1="299.2" y1="592.5" x2="498.4" y2="592.5"/>
<polygon class="st40" points="492.3,259.5 498.4,271.4 486.2,271.4 "/>
<polygon class="st40" points="492.3,593.1 486.2,581.2 498.4,581.2 "/>
<text transform="matrix(0.9128 0 0 1 468.0739 420.8388)" class="st40 st117 st118">62 a 69cm</text>
<rect x="65.5" y="220.8" class="st36" width="42.4" height="14.3"/>
<text transform="matrix(1 0 0 1 68.7585 232.3598)" class="st40 st117 st118">82cm</text>
<g>
	<line class="st119" x1="205.1" y1="434.2" x2="414.2" y2="434.2"/>
	<line class="st120" x1="420.8" y1="387.2" x2="420.8" y2="439.1"/>
	<line class="st121" x1="198.9" y1="418.7" x2="198.9" y2="440.3"/>
	<polygon class="st40" points="421.3,434.2 409.3,440.3 409.3,428 	"/>
	<polygon class="st40" points="198.9,434.2 210.9,440.3 210.9,428 	"/>
</g>
<polygon class="st5" points="378.2,440.4 342.1,441.7 342.2,426.6 377.6,426.6 "/>
<text transform="matrix(1 0 0 1 343.0242 439.0537)" class="st40 st117 st118">56cm</text>
<g>
	<g>
		<polygon class="st35" points="453.7,582.5 466.4,582.5 460,593.3 		"/>
	</g>
	<line class="st34" x1="460" y1="583.8" x2="460" y2="346.8"/>
	<g>
		<polygon class="st35" points="453.8,356.4 466.5,356.4 460.2,345.7 		"/>
		<line class="st34" x1="402.1" y1="345.1" x2="466.4" y2="345.1"/>
	</g>
	<g>
		<polygon class="st35" points="453.7,408.7 466.4,408.7 460,397.9 		"/>
	</g>
	<g>
		<polygon class="st35" points="453.7,388.6 466.4,388.6 460,399.3 		"/>
		<line class="st34" x1="411.5" y1="398.9" x2="466.4" y2="398.9"/>
	</g>
</g>
<g id="texto_8_">
	<rect x="432.9" y="366.5" class="st36" width="54.3" height="15.7"/>
	<text transform="matrix(1.0849 0 0 1 443.9789 378.3363)" class="st213 st117 st214">13cm</text>
</g>
<rect x="418.5" y="455.1" class="st36" width="67.9" height="14.3"/>
<text transform="matrix(1 0 0 1 421.4142 466.3022)" class="st40 st117 st118">38 a 48cm</text>
</svg>
