<?xml version="1.0" encoding="UTF-8"?>
<!-- Generator: Adobe Illustrator 23.0.1, SVG Export Plug-In . SVG Version: 6.00 Build 0)  -->
<svg version="1.1" id="Camada_1" xmlns="http://www.w3.org/2000/svg" xmlns:xlink="http://www.w3.org/1999/xlink" x="0px" y="0px" viewBox="0 0 438.2 741.1" style="enable-background:new 0 0 438.2 741.1;" xml:space="preserve">
<style type="text/css">
	.st0{fill:#9B9B9B;}
	.st1{fill:#FFFFFF;stroke:#000000;stroke-width:1.8583;stroke-miterlimit:10;}
	.st2{fill:#FFFFFF;}
	.st3{fill:none;stroke:#000000;stroke-width:0.9291;stroke-miterlimit:10;}
	.st4{fill:none;stroke:#000000;stroke-width:2.1297;stroke-miterlimit:10;}
	.st5{fill:none;stroke:#000000;stroke-width:1.8583;stroke-miterlimit:10;}
	.st6{fill:none;stroke:#000000;stroke-width:3.1946;stroke-miterlimit:10;}
	.st7{fill:#FFFFFF;stroke:#000000;stroke-width:0.9291;stroke-miterlimit:10;}
	.st8{fill:#FFFFFF;stroke:#000000;stroke-width:1.6237;stroke-miterlimit:10;}
	.st9{fill:none;stroke:#000000;stroke-width:1.6237;stroke-miterlimit:10;}
	.st10{fill:#9B9B9B;stroke:#000000;stroke-width:1.8583;stroke-miterlimit:10;}
	.st11{fill:#9B9B9B;stroke:#000000;stroke-width:0.9291;stroke-miterlimit:10;}
</style>
<path class="st0" d="M259.5,509.5c-1.1,0-2.1,0.1-3.2,0.1c-26.8,0.4-53.5-3.4-80.1-5.7c-11.7-1-20.3-2.7-32.1-3.3  c-12.2-0.6-51.4-6.1-63.5-8c-10.5-1.6-13.3,0.1-19.3-0.5c-14.9-1.8-16-2.1-33.1-4.8c-4.7-0.8-12.2-1.6-17.8-4.3  c-1.6-4.9-2-6.2-2.8-10.1c-0.4-16.4-1.4-34.3-0.4-56.6c1.7-5,7.1-17.8,8.9-22.5c-1-10.1-1.6-19.9-3.3-39.2c0.7-6.1,1.6-14.4,2.8-25  c1.6-2.7,2.4-3.5,3.8-6.1c1.1-3.6,1.3-9,1.3-12.8c0.3-22.6,1.8-37.2-0.4-58.5c-2.6-25.4-2.3-44.9-5.8-76.6  C13,161.9,13.7,148.1,18,135c4.3-13.1,10.4-25.4,15-38.4C41.6,72.3,44.8,46,56.9,23.2c4.2-7.9,9.9-15.7,18.2-19.1  c5.6-2.3,11.8-2.4,17.8-2.4c10.8-0.1,21.8-0.1,32.5,1.7s21.2,5.8,29.5,12.9c9.3,8,15,19.4,18.1,31.2s3.9,24.1,4.6,36.3  c1,17.7,13.1,33.6,26.6,45.1c9.5,8.1,20.9,13.9,30.7,21.7c9.9,7.7,18.6,18.3,19.7,30.8c1,12-5.1,23.3-9.3,34.6  c-11.9,32-8.7,69.2,8.6,98.6c11.3,19.2,18.5,41.2,19,63.5c0.2,7.2-0.4,14.7-4.1,20.9c-4.1,6.8-11.2,11-18.1,14.9  c0.4,2.3,0.9,4.5,1.3,6.8c12.1,1.7,24.4,2.3,36.6,1.9c20.7-17,46.8-27.8,73.5-31c5.2-0.6,10.4-0.9,15.5-0.1c5.1,0.8,10.2,2.7,14,6.2  c3.6,3.2,17.4,28.9,16.3,37.3c4.2,2.4,5,3.2,6.2,5.9c5,11,3.7,24.6-3.2,34.5c1.6,5.1-1.8,11-6.3,13.9c-4.5,2.9-9.9,3.6-15.2,4.4  c-25.9,3.5-51.7,7-77.6,10.5C294.4,506.6,277,509,259.5,509.5z"/>
<path class="st1" d="M80,493c1.8,2,5.7-5.7,5.2-8.4s-8.9-21.4-10.8-23.3C57.7,444.3,50.9,439.6,46,417c-2.4-11-3.3-20-4.3-31.2  c-1.9-21.4-5.6-42.6-11-63.4c-3,0.3-8.4,0.5-11.9,0.6l-4.4,7.4l-3.3,26.3l3.2,38.1l-8.4,24v54l3.3,10.9l49.3,8.4  C58.5,492,77.8,490.5,80,493z"/>
<title>Mizano Diagonal</title>
<path class="st2" d="M157.9,158.6"/>
<path class="st2" d="M138,150.3c0,0,6.7,1.7,7.6,2.4C145,152.8,139.7,153.2,138,150.3z"/>
<path class="st2" d="M336.2,399.3c0,0-4.8,10.4-4.3,21.8c11.4,0.4,18.9,0.5,19.7,0.8c0.8-13.5,5.4-24.1,7.4-27.7  C356.2,394.5,338.5,398.2,336.2,399.3z"/>
<g>
	<g>
		<g>
			<g id="Camada_1-2_1_">
				<polyline class="st3" points="237.2,511.6 238.1,512.6 236.1,514.1 238.4,514.6 236.2,516.1 238.5,516.9 236.7,518.2       238.6,518.9 236.8,520.4 238.8,521.2 237.1,522.7 239,523.5 237.4,524.7 239.1,525.5 238.1,526.7     "/>
				<polyline class="st4" points="209.1,516.4 211.1,517.1 209.2,518.2 211.2,518.8 209.4,520 211.4,520.7 209.5,522 211.5,522.7       209.7,523.9 211.7,524.8 209.9,525.9 211.9,527.1 210.3,527.9 211.4,528.7     "/>
				<line class="st3" x1="238" y1="512.7" x2="209.1" y2="516.4"/>
				<line class="st3" x1="238.4" y1="514.6" x2="209.4" y2="518.3"/>
				<line class="st3" x1="238.2" y1="516.9" x2="210" y2="520"/>
				<line class="st3" x1="238.5" y1="518.8" x2="209.9" y2="521.9"/>
				<line class="st3" x1="238.8" y1="521.2" x2="210.1" y2="524"/>
				<line class="st3" x1="238.8" y1="523.5" x2="210.3" y2="526"/>
				<line class="st5" x1="239.1" y1="525.5" x2="210.6" y2="527.7"/>
				<path class="st1" d="M209.5,528.7l30.8-1.9l1.5,21.5c-4.4,3.3-9.7,5.3-15.2,5.9c-5.4,0.2-10.8-1-15.6-3.6L209.5,528.7z"/>
				<path class="st1" d="M210.8,550.6c10.4,1.1,20.8,0.2,30.9-2.4"/>
				<path class="st1" d="M212.7,551.4c0,1.5,0.7,48.6,0.7,48.6s-15.4,8.2-38.6-0.9c0.7-20.8,1.6-51.5,1.6-51.5      c1.2-0.8,2.4-1.5,3.8-1.9"/>
				<path class="st1" d="M176.4,547.6c0,0,8.4,6.3,34.4,1.6"/>
				<path class="st1" d="M84.5,528.8c0,0-13.3,17.2-15,20.2s-1.6,9,2.5,9.1c1.5,0.5,3,1.2,4.3,2.2c0,0,1.3,1.1,4.6,0.4      c1.9,0.2,2.6,0.6,3.8,0.3c1.2-0.3,3.3-1.7,4.4-5.1c1.2-3.4,5.4-22.3,5.4-22.3"/>
				<path class="st3" d="M87.4,531.5l-7,12.5c0,0,0.8,4.8,6.2,1.6c2.2-4.2,4.1-8.4,5.8-12.8c0,0-3.4,15.6-4.3,18.6      c-1,3.7-2.1,5.6-3.1,5.9c-1.1,0.2-2.2,0.2-3.3,0.1c-1.5,0-3.1,0.6-3.9,0.2c-1.1-0.9-2.3-1.5-3.7-1.9c-3.7-0.6-1.8-5.1-0.4-7.6      S85.3,530,85.3,530"/>
				<path class="st6" d="M174.8,591.1c0,0-35.2-13.4-69.5-4.3c-14,2.3-10.4,13.3-10.4,13.3H97c0,0,0.1-1.9,0.9-2.4      c1.4-0.9,20.7-4.3,43.4,5.7"/>
				<path class="st4" d="M97,600.1c3.3,1.5,6.9,1.8,10.4,1.1c5.6-1.3,5.6-4.7,5.6-4.7"/>
				<path class="st6" d="M166.2,599.9c0,0-81.7,7.7-140.1,39c0,0-5.5,1-6.1,5.9c-0.6,5,0.5,6.9,0.3,7.9c-0.2,0.9,7.7,4.3,15.2,0.9      c1.5-3.1,4.6-6.4,10.6-7.5c6-1.2,56.7-21.2,126.6-23c2,1.4,4.2,2.5,6.5,3.4"/>
				<path class="st4" d="M35.7,653.4c0,0,5.3,0.3,5.5-5.7"/>
				<path class="st6" d="M212.9,591.1c0,0,35.2-13.4,69.5-4.3c14,2.3,10.4,13.3,10.4,13.3h-2.2c0,0,0-1.9-0.9-2.4      c-1.4-0.9-20.7-4.3-43.4,5.7"/>
				<path class="st4" d="M290.7,600.1c-3.3,1.5-6.9,1.8-10.4,1.1c-5.6-1.3-5.6-4.7-5.6-4.7"/>
				<path class="st6" d="M221.6,599.9c0,0,81.7,7.7,140.1,39c0,0,5.5,1,6.1,5.9c0.6,5-0.5,6.9-0.3,7.9c0.2,0.9-7.7,4.3-15.2,0.9      c-1.5-3.1-4.6-6.4-10.6-7.5c-6-1.2-56.7-21.2-126.7-23c-2,1.4-4.2,2.5-6.5,3.4"/>
				<path class="st4" d="M352.1,653.4c0,0-5.3,0.3-5.5-5.7"/>
				<path class="st6" d="M179.3,609.7c0,0,1.9,61.8,3.1,69.7c0.7,4.9,0.7,9.8,0,14.6c2.7,3.9,7,6.3,11.8,6.5"/>
				<path class="st6" d="M209,609.7c0,0-1.9,61.8-3.1,69.7c-0.7,4.9-0.7,9.8,0,14.6c-2.7,3.9-7,6.3-11.8,6.5"/>
				<path class="st5" d="M82.6,616.5c0,0-1-12.3,5.3-12.7c6.3-0.3,9.7,8.5,9.7,8.5"/>
				<path class="st5" d="M87.5,603.9l6-1.4c0,0,6.5,2.5,7.5,9.1"/>
				<path class="st5" d="M101.1,601.4v1.4c0,0,4.3,1.9,6.7,0v-1.6"/>
				<path class="st1" d="M101,602.1c0,0-1.4,0.3-1.4,1c0,0.6,7.1,2.9,10.1-0.1c-0.4-1-1.9-0.9-1.9-0.9"/>
				<line class="st5" x1="99.6" y1="603.1" x2="99.6" y2="607.3"/>
				<line class="st5" x1="109.7" y1="603" x2="109.7" y2="609.3"/>
				<path class="st6" d="M95,603.1c0,0,1.7-1.2,3.5-2.5"/>
				<path class="st1" d="M108.2,601.3c0,0,3.5,1.4,4.8,7.1"/>
				<polyline class="st3" points="83.9,607.6 87.7,615 86.7,615.3 82.9,609.9     "/>
				<line class="st3" x1="86.8" y1="604" x2="88.4" y2="614.6"/>
				<line class="st3" x1="89.3" y1="604" x2="89.2" y2="614.6"/>
				<path class="st3" d="M94.1,607c0,0-3.8,6.8-3.9,7.2"/>
				<line class="st4" x1="91.9" y1="613.9" x2="95.6" y2="609.2"/>
				<path class="st5" d="M305.3,616.5c0,0,1-12.3-5.3-12.7c-6.3-0.3-9.6,8.5-9.6,8.5"/>
				<path class="st5" d="M300.3,603.9l-6-1.4c0,0-6.5,2.5-7.5,9.1"/>
				<path class="st5" d="M286.7,601.4v1.4c0,0-4.3,1.9-6.7,0v-1.6"/>
				<path class="st5" d="M286.8,602.1c0,0,1.4,0.3,1.4,1c0,0.6-7.1,2.9-10.1-0.1c0.4-1,1.9-0.9,1.9-0.9"/>
				<line class="st4" x1="288.2" y1="603.1" x2="288.2" y2="607.3"/>
				<line class="st5" x1="278.1" y1="603" x2="278.1" y2="609.3"/>
				<path class="st6" d="M292.8,603.1c0,0-1.7-1.2-3.5-2.5"/>
				<path class="st5" d="M279.6,601.3c0,0-3.5,1.4-4.8,7.1"/>
				<polyline class="st3" points="303.8,607.6 300,615 301.1,615.3 304.9,609.9     "/>
				<line class="st3" x1="300.9" y1="604" x2="299.4" y2="614.6"/>
				<line class="st3" x1="298.5" y1="604" x2="298.6" y2="614.6"/>
				<path class="st3" d="M293.6,607c0,0,3.8,6.8,3.9,7.2"/>
				<line class="st3" x1="295.8" y1="613.9" x2="292.2" y2="609.2"/>
				<path class="st1" d="M26.7,655c-0.5-0.1-2.6,1.3,1.5,1.9c3.2,0.5,8.7,0,9-0.8c0.4-0.8-1.3-1.3-1.9-1.4"/>
				<line class="st4" x1="35.1" y1="653.8" x2="35.1" y2="656.4"/>
				<line class="st5" x1="25.7" y1="655.8" x2="25.7" y2="659.6"/>
				<path class="st1" d="M37.2,655.8l-0.5,14c0,0-0.3,1.2-0.8,1.5"/>
				<ellipse class="st4" cx="19.1" cy="675.7" rx="17.5" ry="17.2"/>
				<ellipse class="st1" cx="19.1" cy="675.7" rx="15.2" ry="15"/>
				<path class="st4" d="M25.7,657c-8-4-17.8-0.8-21.8,7.2c-1.1,2.2-1.7,4.5-1.7,6.9"/>
				<path class="st3" d="M13.9,661.6l4,11.9c-0.3,0.2-0.6,0.4-0.8,0.6C16,673.5,7,666.6,7,666.6"/>
				<path class="st3" d="M26.1,662.4l-5.4,10.9c-0.5-0.1-0.9-0.2-1.4-0.1c-0.4-2.3-1.6-12.4-1.6-12.4"/>
				<path class="st3" d="M33.4,670.6L22.6,675c-0.1-0.3-0.3-0.6-0.6-0.9c0.7-1.1,7.3-9.6,7.3-9.6"/>
				<path class="st3" d="M33,682.1l-10.5-4.7c0.2-0.3,0.3-0.7,0.3-1c1.2-0.2,11.4-2.8,11.4-2.8"/>
				<path class="st3" d="M24.6,689.7L21,679.1c0.3-0.1,0.6-0.3,0.9-0.6c1.1,0.7,9,6.8,9,6.8"/>
				<path class="st3" d="M13.2,689.6l5.3-10.4c0.4,0.1,0.7,0.1,1.1,0.1c0.4,2.3,1.2,10,1.4,11.3"/>
				<path class="st3" d="M5.3,682.1l11.1-4.5c0.1,0.3,0.3,0.6,0.6,0.9c-0.7,1.1-7,9.2-7,9.2"/>
				<path class="st3" d="M4.9,670.1l11.5,5.1c-0.2,0.3-0.3,0.7-0.3,1c-1.2,0.2-11.9,2.8-11.9,2.8"/>
				<ellipse class="st1" cx="368.3" cy="675.7" rx="17.5" ry="17.2"/>
				<ellipse class="st1" cx="368.3" cy="675.7" rx="15.2" ry="15"/>
				<path class="st4" d="M361.6,657c8-4,17.8-0.8,21.8,7.2c1.1,2.2,1.7,4.5,1.7,6.9"/>
				<path class="st3" d="M373.5,661.6l-4,11.9c0.3,0.2,0.6,0.4,0.8,0.6c1.1-0.7,10.1-7.5,10.1-7.5"/>
				<path class="st3" d="M361.3,662.4l5.4,10.9c0.5-0.1,0.9-0.2,1.4-0.1c0.4-2.3,1.6-12.4,1.6-12.4"/>
				<path class="st3" d="M354,670.6l10.9,4.4c0.1-0.3,0.3-0.6,0.6-0.9c-0.7-1.1-7.3-9.6-7.3-9.6"/>
				<path class="st3" d="M354.3,682.1l10.5-4.8c-0.2-0.3-0.3-0.7-0.3-1c-1.2-0.2-11.4-2.8-11.4-2.8"/>
				<path class="st3" d="M362.7,689.7l3.6-10.6c-0.3-0.1-0.6-0.3-0.8-0.6c-1.1,0.7-9,6.8-9,6.8"/>
				<path class="st3" d="M374.2,689.6l-5.3-10.4c-0.4,0.1-0.7,0.1-1.1,0.1c-0.4,2.3-1.2,10-1.4,11.3"/>
				<path class="st3" d="M382.1,682.1l-11.1-4.5c-0.1,0.3-0.3,0.6-0.6,0.9c0.7,1.1,7,9.2,7,9.2"/>
				<path class="st3" d="M382.4,670.1l-11.5,5.2c0.2,0.3,0.3,0.7,0.3,1c1.2,0.2,11.9,2.8,11.9,2.8"/>
				<path class="st1" d="M360.7,655.2c0.5-0.1,2.6,1.3-1.5,1.9c-3.2,0.5-8.6,0-9-0.8s1.3-1.3,1.9-1.4"/>
				<line class="st4" x1="352.2" y1="654" x2="352.2" y2="656.6"/>
				<line class="st5" x1="361.7" y1="656" x2="361.7" y2="659.8"/>
				<path class="st1" d="M350.1,656l0.5,14c0,0,0.3,1.2,0.8,1.5"/>
				<line class="st4" x1="187.1" y1="698.6" x2="187.1" y2="703.6"/>
				<path class="st6" d="M189.1,703.8h-6.7c-1.1,5.8-1.6,11.8-1.4,17.7c-0.1,0.6-0.4,1.2-0.8,1.7l-0.1,2.1c0,0,0.6,0.6,0.6,1      c0.1,5.3,0.6,10.6,1.5,15.8l6.7,0.4C188.8,742.6,190.1,706.5,189.1,703.8z"/>
				<path class="st4" d="M182.4,703.8c0,0-0.3,16-0.3,38.3"/>
				<path class="st6" d="M198.8,703.8h6.7c1.1,5.8,1.6,11.8,1.4,17.7c0.1,0.6,0.4,1.2,0.8,1.7l0.1,2.1c0,0-0.6,0.6-0.6,1      c-0.1,5.3-0.6,10.6-1.5,15.8l-6.7,0.4C199.1,742.6,197.9,706.5,198.8,703.8z"/>
				<path class="st4" d="M205.5,703.8c0,0,0.3,16,0.3,38.3"/>
				<line class="st4" x1="189.4" y1="705.6" x2="198.6" y2="705.6"/>
				<line class="st4" x1="189.4" y1="728.9" x2="198.6" y2="728.9"/>
				<line class="st4" x1="200.3" y1="699" x2="200.3" y2="703.8"/>
				<line class="st5" x1="180.2" y1="527.7" x2="180.2" y2="549.3"/>
				<path class="st1" d="M185.6,525.8c0,0-5.1,0.4-5.4,2c-0.3,1.6,10.5,2.8,15.3,2.7c4.8,0,14.2-0.8,13.4-2.7c-0.8-2-5.1-2-5.1-2"/>
				<path class="st1" d="M185.7,518v9.6c0,0,10.2,2.3,18.2,0v-8.7"/>
				<path class="st1" d="M162.6,504.8c0,0,1.8,3.7,4.1,4.2c2.3,0.4,62.7,1.3,62.7,1.3"/>
				<path class="st5" d="M167.1,509c0,0,2.6,2.4,8.2,3.7c6.6,1.5,12.8,2.6,12.8,2.6s5.8,0.6,8.4,0.6c2.5,0,14.9,0,14.9,0"/>
				<path class="st5" d="M177.3,513.1c0,0,6.9,4.1,9,4.5s13,0.8,14.1,0.8c3.4-0.8,35.4-7.3,38.7-8.5"/>
				<path class="st6" d="M185.5,517.4c-0.1,0.8,0.4,1.6,1.1,1.9c1.3,0.6,15.1,0.8,16.1,0.5c1-0.5,1.7-1.3,2.1-2.3"/>
				<polyline class="st7" points="88.1,529 84.7,528.8 87.4,531.6 94.4,533.3 92.3,530.5     "/>
				<path class="st1" d="M157.9,502.5c0,0-50.3,7.2-56.3,8.2c-3.4,0.4-6.3,2.5-7.7,5.6l-5.4,13c0.6,1.2,2,1.7,3.2,1.2      c0.2-0.1,0.4-0.2,0.6-0.4c1.1-3.4,5-11.7,5-11.7c1.2-1.8,3-3.2,5.2-3.8c8.8-1.8,67.6-10.7,67.6-10.7"/>
			</g>
		</g>
		<path class="st6" d="M288,423.3c30.7-1.5,59.2-0.9,89.8,2.3c5.4,0.6,10.9,1.2,16.1,3s9.4,3.8,13.3,7.2"/>
		<path class="st6" d="M256.6,508.8c-9.6-1.5-17.3-8.9-22.1-17.4c-4.8-8.4-7.3-17.9-10.8-27c-8.4-21.8-23.6-42-45-51.3    c-16.6-7.2-35.9-7.3-53-1.3s-28.2,43.3-63.2,34.8"/>
		<path class="st5" d="M255.9,510.8c-1-8.1-0.1-16.2,0.6-24.3c0.8-8.1,1.3-16.3-0.4-24.3c-1.7-8-6-15.7-13-19.8    c-4.5-2.6-9.6-3.6-14.7-4.5c-7.2-1.3-14.5-2.4-21.8-3.4"/>
		<path class="st8" d="M318.7,342.3c0.1,3.3,0.4,5.3,3,6.1c3,1,7.5,0.5,10.2,0.6c33,1.2,56,1.4,92.1,2.3c3.2,0.1,7,0,9.4-0.1    c3.2-0.2,4.7-3.4,4.8-6.2c0.1-2.4-0.7-4.6-3.1-5.5c-2-0.7-4.2-1-6.8-1.3c-15.4-1.7-29.6-1.8-47.1-2.3c-15.5-0.5-31.4-0.3-46.9,0.3    c-3.2,0.1-6.8,0.1-10.6,0.8C320.8,337.5,318.6,339.4,318.7,342.3z"/>
		<path class="st9" d="M437.1,341.1c-13.1,0.8-34.9-0.7-54.1-1.5c-23-0.9-41.4-0.4-63.8,0.2"/>
		<path class="st1" d="M362.7,349.8c6.4,15.2,5.8,26.7,3.8,42.1c7.3,0.4,21.8,0.6,28.7,12.2c0.8-10.3,2.7-20.7,5.2-30.7    s6.8-13.2,10.3-22.5C396.5,350.5,373,350,362.7,349.8z"/>
		<path class="st3" d="M400.4,349.6c-5.7,8.6-9,18.7-10.9,28.9c-1.9,10.2-1.1,7.7-2.2,18"/>
		<path class="st5" d="M197.7,424.8c3.6,0.1,7.3,0.1,10.9-0.1"/>
		<path class="st5" d="M227.9,421.3c8.1-0.4,16.2-0.3,24.4,0.2"/>
		<path class="st5" d="M20.2,322.7c3.4-0.1,8.8-0.3,11.9-0.6c5.4,20.8,9.1,42,11,63.4c1,11.2,1.9,20.2,4.3,31.2    c5,22.6,11.7,27.3,28.5,44.3c1.9,1.9,10.4,20.6,10.8,23.3c0.4,2.7-3,6.9-5.2,8.4"/>
		<polyline class="st5" points="7.3,431.5 14.7,451 19.7,449 21.4,433.5 20.2,420.8 24.8,415.3 24.8,411.6 34.7,389.3 26.7,323.3     21,328.7   "/>
		<polyline class="st3" points="16.5,394.4 27.6,392.8 21,328.7 15.1,330.3   "/>
		<line class="st3" x1="34.7" y1="389.3" x2="27.6" y2="392.8"/>
		<polyline class="st3" points="6.7,417 18.8,414.8 24.8,411.6   "/>
		<line class="st3" x1="18.8" y1="414.8" x2="19.7" y2="421.3"/>
		<line class="st3" x1="24.8" y1="412.7" x2="45.6" y2="411.6"/>
		<path class="st3" d="M20.5,421.9c1.7,0.6,2.8,2.3,3.6,4c3.9,8.3,4.1,18,8.1,26.2c3.5,7.2,19.4,17.1,20.4,18.8    c0.6,5.5,0.4,9.4,0.4,13.1l-45.6-9.2"/>
		<polyline class="st3" points="52.9,484 60.8,491.8 65.2,485.2 57.5,462.4   "/>
		<polyline class="st3" points="86.6,484.3 65.2,485.2 53,481.6   "/>
		<path class="st3" d="M24,412.8c4.7,1.5,8,6,9.8,10.6c1.8,4.7,2.4,9.7,3.7,14.5c3.3,11.7,17.6,24.8,20,24.8l19.2-0.3"/>
		<path class="st2" d="M187.6,191.9c19.9,57.6,38,115.8,56,174c0,0,18.6,36.7-39.5,42.7c1.1,16.7,3.5,16,3.5,16s39.2-6.9,46.8-12.9    s20.3-11.4,17.1-34.7c0.2-5.8-6.9-53.1-23.4-71.2s-9.2-84.7-3.6-91.6c-7.5-10-21.4-24.4-21.4-24.4l10.8-38    c0,0-39.3-25.2-41.6-31.3c-1.7,3.3-2.7,7.6-4.7,16.1C185.5,145.1,182.8,173.9,187.6,191.9z"/>
		<path class="st3" d="M59.4,197.4c19,48.4,35.3,94.7,50.5,144.4"/>
		<path class="st3" d="M189.3,204.1c-2.6,33.8-5.4,69.2-8,103"/>
		<path class="st3" d="M57.4,443.7c-1.3-0.4-2.7-0.7-4-0.9c-0.3-0.1-0.7-0.1-1,0c-0.6,0.3-0.7,1.2-0.6,1.8c0.2,3.1,0.5,6.2,0.7,9.4    c0,0.3,0,0.6,0.2,0.8c0.3,0.6,1.1,0.6,1.8,0.5s1.4-0.3,1.9,0.1"/>
		<path class="st3" d="M337.2,396.1c-4,8-6,17.1-5.7,26.1"/>
		<path class="st3" d="M360.4,392.6c-5.3,9.6-8.2,20.6-8.4,31.6"/>
		<polyline class="st3" points="60.6,200.4 122.9,169.9 188.5,204.1   "/>
		<polyline class="st3" points="63.2,205.5 123.8,176 187.6,209   "/>
		<polyline class="st3" points="77.9,246.3 131.6,220 186,248.3   "/>
		<polyline class="st3" points="79.6,251.8 132.5,226.1 185.8,253.6   "/>
		<polyline class="st3" points="93.7,291.5 138.4,269.6 182.4,292.6   "/>
		<polyline class="st3" points="95.3,297.1 139.3,275.8 182,297.8   "/>
		<path class="st1" d="M80.3,95.6c-4.8-0.2-7.2-0.5-10,3.4c-2.8,4-6,11.7-7.6,16.2c-1.9,5.4-4.3,11.1-7,16.3c0,0,3.6,14.7,3,20.2    c1.1,1.4,3.2,2.5,4.9,2.9s5.3,0.4,7.1,0.4c5.7,0,9.5,0.3,15.2,0.2c2.3,0,4.6-0.1,6.9-0.1c0.7,0,1.4,0,1.9-0.3    c0.6-0.3,1.1-1,0.9-1.6"/>
		<path class="st5" d="M80.7,103.1c-2.6-0.8-4.2-0.6-6.2,1.3c-1.9,1.9-3.8,6.7-4.8,9.2c-3.6,8.8-6.7,16.7-9.2,25.9    c-0.3,1.3-0.7,2.6-0.4,3.9c0.4,2,2.2,3.4,4.1,4c1.9,0.5,8.5,0.7,11.9,0.5"/>
		<path class="st1" d="M148,153.3c-1.5,0.3-2.7,0.4-4.3,0.4s-3.2-0.3-4.6-1.1c-0.7-0.4-1.4-0.9-1.8-1.6s-0.5-1.1-0.4-1.9    c-1.3-0.2-7.1-0.8-7.1-0.8c0.6,2.1,1.2,3.7,2.1,5.7c0.9,1.9,2.2,3.7,4,4.9c1.9,1.3,4.3,1.9,6.7,2s4.7-0.2,7-0.6L148,153.3"/>
		<path class="st1" d="M70,148.1c2.6,9.6,16,61.6,37.1,162.9l14.6-1.5c0,0-32.8-156.6-38-163c-3-0.6-9.3-0.3-12.4-0.1    C70.4,146.4,69.8,147.2,70,148.1z"/>
		<path class="st5" d="M81.2,432.7c7.1-0.3,14.2-0.2,21.2,0.5"/>
		<path class="st1" d="M147.9,152.6c0,0,36.3,142.1,37,154.2l12.1-0.9c0,0-31.5-141.5-34.2-145.2    C160.1,156.9,147.9,152.6,147.9,152.6z"/>
		<polygon class="st1" points="188.6,402.8 181.4,414.4 190.5,419.7 199.5,402.6   "/>
		<path class="st5" d="M41.9,99.9c10.4,14.3,15,32,16.7,49.5s0.6,35.2,0.9,52.9c0.3,24.3,3,48.6,9.4,72C76.7,302.9,90,330,96.2,359    c6.1,29.1,1.9,65.5-26.9,83.6"/>
		<path class="st5" d="M67.8,8.9C52.6,45.3,51,68.8,39.1,106.3c-7.1,22.5-20,32.1-19.3,55.7c0.9,30.1,9.2,79.8,22.7,106.7    s28.5,53.6,34.9,83s5.8,70.8-22,86.6"/>
		<path class="st7" d="M56.9,456.7c1.2,0.4,2.4-0.1,3.6-0.6c1.1-0.5,2.5-0.9,3.6-0.2c1.2,0.7,1.6,2.4,2.8,3c1,0.4,2.1,0.1,3.1-0.4    c0.9-0.5,1.9-1.1,3-1.1c1.4,0,2.5,1.1,3.6,2c1,1,2.2,1.9,3.6,1.8c1.3-0.1,2.3-1.1,3.6-1.3c0.9-0.1,1.9,0.3,2.8,0s1.5-1.2,1.6-2.2    s-0.1-1.9-0.4-2.8c-0.8-2.8-1.5-5.6-2.3-8.4c-0.3-1.1-0.7-2.4-1.7-3c-0.7-0.4-1.5-0.4-2.2-0.5c-5.6-0.3-11.3-0.5-16.9-0.8    c-1.8-0.1-4.4-0.7-6,0.4c-1.5,1-1.4,2.9-1.4,4.5C56.9,450.5,56.9,453.6,56.9,456.7z"/>
		<path class="st3" d="M57.6,444.6c3.3,1.1,6.8,1.3,10.3,1.5c3.2,0.2,6.4,0.4,9.6,0.6c0.5,0,1,0.1,1.4,0.4c0.3,0.3,0.4,0.6,0.5,1    c0.6,2.1,1.2,4.2,1.8,6.4c0.2,0.8,0.4,1.6,1,2.1c0.7,0.7,4.7,0.5,5.6,0.8"/>
		<path class="st3" d="M81.9,456.5c0.2,0.3-3.6,3.3-5.2,3.3"/>
		<path class="st3" d="M78.8,447c2-0.7,3.9-1.6,5.5-2.9"/>
		<path class="st3" d="M27.9,131.5c5.9,1.1,10.3,6.1,13.6,11.2c5.3,8.3,12.2,34,11.7,37.4c-0.7,4.4-12.8,17.7-16.5,20.4    c-3.6,2.6-7.7,5.7-11.3,8.3"/>
		<path class="st5" d="M191.9,119.5c-7.6,20.2-8.4,42.6-5.4,64c11.8,86.2,11.1,161,19.8,241.2c14.7-1.3,28.7-5.4,43.7-10"/>
		<path class="st5" d="M187.6,191.9c19.9,57.6,38,115.8,56,174c2.1,6.7,4.2,14,2,20.7c-2.6,8.3-10.8,13.4-18.9,16.6    c-8.1,3.2-12.9,3.6-22,6"/>
		<path class="st6" d="M259,510.2c-1.1,0-2.1,0.1-3.2,0.1c-26.8,0.4-53.5-3.4-80.1-5.7c-11.7-1-20.3-2.7-32.1-3.3    c-12.2-0.6-51.4-6.1-63.5-8c-10.5-1.6-13.3,0.1-19.3-0.5c-14.9-1.8-16-2.1-33.1-4.8c-4.7-0.8-12.2-1.6-17.8-4.3    c-1.6-4.9-2-6.2-2.8-10.1c-0.4-16.4-1.4-34.3-0.4-56.6c1.7-5,7.1-17.8,8.9-22.5c-1-10.1-1.6-19.9-3.3-39.2    c0.7-6.1,1.6-14.4,2.8-25c1.6-2.7,2.4-3.5,3.8-6.1c1.1-3.6,1.3-9,1.3-12.8c0.3-22.6,1.8-37.2-0.4-58.5    c-2.6-25.4-2.3-44.9-5.8-76.6c-1.5-13.7-0.8-27.5,3.5-40.5c4.3-13.1,10.4-25.4,15-38.4C41,73,44.3,46.7,56.4,23.9    C60.6,16,66.2,8.2,74.5,4.8c5.6-2.3,11.8-2.4,17.8-2.4c10.8-0.1,21.8-0.1,32.5,1.7S146,9.9,154.2,17c9.3,8,15,19.4,18.1,31.2    s4.9,24.5,5.6,36.7c1,17.7,12.1,33.2,25.6,44.7c9.5,8.1,20.9,13.9,30.7,21.7c9.9,7.7,18.6,18.3,19.7,30.8c1,12-5.1,23.3-9.3,34.6    c-11.9,32-8.7,69.2,8.6,98.6c11.3,19.2,18.5,41.2,19,63.5c0.2,7.2-0.4,14.7-4.1,20.9c-4.1,6.8-11.2,11-18.1,14.9    c0.4,2.3,0.9,4.5,1.3,6.8c12.1,1.7,24.4,2.3,36.6,1.9c20.7-17,46.8-27.8,73.5-31c5.2-0.6,10.4-0.9,15.5-0.1s10.2,2.7,14,6.2    c3.6,3.2,17.4,28.9,16.3,37.3c4.2,2.4,5,3.2,6.2,5.9c5,11,3.7,24.6-3.2,34.5c1.6,5.1-1.8,11-6.3,13.9s-9.9,3.6-15.2,4.4    c-25.9,3.5-51.7,7-77.6,10.5C293.9,507.3,276.5,509.7,259,510.2z"/>
		<path class="st3" d="M234.1,150.8c-2.3,12.9-8.9,33.3-10.4,38.8c2.1,2.4,4.2,4.8,6.4,7.2c5.1,5.8,10.2,11.5,15.4,17.3"/>
		<g>
			<path class="st2" d="M175.9,85.7c11.6,47.3-21.9,69.2-21.9,69.2c1.9,1.5,7.5,6.9,9.6,8.1s4.7,1.8,7,0.9c2.8-1,4.4-4,4.9-6.9     s-0.1-5.9-0.3-8.8c-1.7-18.7,5.9-36.9,10.6-55.1c0.5-1.7,0.8-3.7-0.2-5.2c-1.5-1.9-5.1-2.1-6.3-2.5"/>
			<path class="st2" d="M100.9,72.9c-3.7-0.8-16.1-6.1-22.5-1c-1.4,2-1.4,4.6-1.1,7c1.5,16.4,7.5,33,3.5,49     c-1.7,6.7-5.2,13.3-4.3,20.2c0.3,2.6,1.4,5.3,3.7,6.6c2.7,1.5,24.4-4.6,27.4-5.6C107.6,149.1,118.2,115.6,100.9,72.9"/>
			<path class="st5" d="M128.3,82.6c-13.1-4.2-25.8-10-39.3-12.8c-3.7-0.8-8.3-1-10.6,2.1c-1.4,2-1.4,4.6-1.1,7     c1.5,16.4,7.5,33,3.5,49c-1.7,6.7-5.2,13.3-4.3,20.2c0.3,2.6,1.4,5.3,3.7,6.6c2.7,1.5,6.1,0.6,9.1-0.4     c11.4-3.6,23.2-6.4,35.1-6.4s24.1,3.3,33.5,10.7c1.9,1.5,3.7,3.2,5.8,4.4s4.7,1.8,7,0.9c2.8-1,4.4-4,4.9-6.9s-0.1-5.9-0.3-8.8     c-1.7-18.7,5.9-36.9,10.6-55.1c0.5-1.7,0.8-3.7-0.2-5.2c-0.7-1.1-2-1.6-3.2-2c-3.5-1.2-16-0.2-18.5,0.4c-7.5,1.6-15.4,1-22.9-0.5     C136.8,85.1,132.5,84,128.3,82.6z"/>
			<path class="st3" d="M100.5,73c3.8,9.8,4.4,12.9,6.8,22.1c1.1,4.1,2.6,13.8,3.1,18c0.9,7.2,0.3,14.5-0.3,21.8     c-0.5,5.1-1,10.3-3.2,15"/>
			<path class="st3" d="M175.1,85.7c3.8,7.2,4.2,15.8,2.7,23.9c-1.5,8-1.5,13.5-4.7,20.9c-1.3,3-4.4,9.6-6.3,12.2     c-4,5.7-7.8,8.9-13.8,12.4"/>
		</g>
		<g>
			<path class="st1" d="M93.1,352.8c4.6,22.3,5.3,28.3,6.1,49.9c0,1,0.1,2,0.5,2.9c1.3,2.5,4.8,2.4,7.5,2c24-3.7,48.4-5.3,72.7-4.9     c11,0.2,22.3,0.8,32.9-2.3c10.6-3.1,20.6-10.6,23.2-21.4c1.1-4.4,0.8-9.1,0.5-13.6c-0.5-7.8-0.9-15.6-1.4-23.5     c-0.4-6.4-0.8-13.1-3.8-18.8c-4.7-8.9-14.2-15.7-24.2-17s-24.4,1-34.4,1.6c-29.4,1.8-55.2-0.9-84.2,6.9c0.5,9,2.3,18.1,2.8,27.1     L93.1,352.8z"/>
			<path class="st10" d="M89.1,315.7c7.4,5.3,12,11.2,14.5,20c1.8,6.4,2,13,2.3,19.6c0.4,12.4,0.8,24.9,1.3,37.3     c0.1,2.8,0.2,5.6-0.7,8.3s-3.1,5-5.8,5.3C96.9,393.5,89.1,315.7,89.1,315.7z"/>
			<path class="st11" d="M201.9,306.3c8.5,4.3,14.3,12.9,16.8,22.1s1.9,19,0.1,28.4c-1.5,7.6-3.8,15.2-8,21.7     c-4.1,6.2-9.9,11.2-16.2,15.2s-9.7,6.3-16.6,9.1l-16.5,0c-8.6-1.3-16.2-8.3-20.5-15.9c-4.3-7.7-6.2-16.4-8.1-24.9     c-1.8-8.3-3.7-16.7-5.5-25c-1.1-5-2.2-10-4.2-14.7c-2.1-4.7-5.1-9.1-9.4-11.9C115.2,309,140.5,307.8,201.9,306.3z"/>
		</g>
		<g>
			<path class="st1" d="M56.1,349.9c0.1,4,0.5,6.3,3.3,7.4c3.3,1.2,8.1,0.6,11.1,0.7c35.9,1.5,60.9,1.7,100.2,2.7     c3.4,0.1,7.7,0,10.2-0.1c3.4-0.2,5.1-4,5.2-7.5c0.1-2.9-0.7-5.6-3.4-6.7c-2.2-0.9-4.5-1.2-7.4-1.6c-16.8-2.1-32.2-2.1-51.3-2.7     c-16.9-0.5-34.1-0.3-51,0.4c-3.5,0.1-7.4,0.1-11.5,1C58.4,344.1,56.1,346.4,56.1,349.9z"/>
			<path class="st5" d="M185,348.5c-14.2,1-38-0.9-58.8-1.8c-25-1.1-45.1-0.5-69.4,0.2"/>
			<path class="st1" d="M108.6,359.2c6.4,15.2,5.4,29.9,3.4,45.3c-3.5,27.9-7,55.8-10.6,83.7c1.3,0,2.6,0.1,3.9,0.1     c-0.2,1-0.3,2-0.5,2.8c-0.7,0.2-2.7,0.2-3.7,0.3c-0.9,7.6-1.3,16.3-2.2,23.9c9.5,2,18.4,3,30.1,0.9c2.1-6.7,2.6-14.7,3.1-24.6     c-0.7,0-1.3-0.1-2.2-0.3c-0.2-0.9-0.2-2.1-0.2-2.7c1.4-0.2,1.8-0.2,3.2-0.3c2.3-18.4,6.7-56.3,8.1-74.8     c0.8-10.3,2.7-20.7,5.2-30.7s6.8-13.2,10.3-22.5C142.4,360,119,359.5,108.6,359.2z"/>
			<path class="st5" d="M112.8,364.8c-0.3,0-0.6,0-0.9,0.2c-0.5,0.4-0.5,1.2-0.2,1.7c0.7,1.2,2.3,1.4,3.6,1.5     c4.8,0.4,9.6,0.7,14.4,0.1c1.2-0.2,2.4-1.2,1.1-2.3c-0.7-0.6-1.8-1-2.7-1.1c-3.3-0.4-6.6-0.5-9.8-0.5     C116.5,364.7,114.6,364.7,112.8,364.8z"/>
			<path class="st5" d="M120.8,363.9c0,0.2,0,0.4,0.1,0.5s0.3,0.2,0.5,0.2c1.6,0,3.2,0,4.8,0c0.3-1.6,0.4-3.2,0.4-4.7     c-0.9,0-1.8-0.1-2.7-0.1c-0.6,0-1.9-0.3-2.5,0c-0.5,0.3-0.4,1-0.4,1.5C120.9,362.1,120.9,363,120.8,363.9z"/>
			<path class="st3" d="M146.4,359.1c-5.7,8.6-9,18.7-10.9,28.9c-1.9,10.2-2.7,20.5-3.7,30.8c-2.4,23.3-5.9,54.9-7.5,70.4"/>
			<path class="st5" d="M105.3,488.3c8.4,0.3,16.8,0.4,25.2,0.2"/>
			<path class="st5" d="M104.5,491.3c8.4,0.8,16.9,0.7,25.3-0.2"/>
		</g>
	</g>
	<path class="st2" d="M41.6,101.1c0,0-2.4,11.2-12.7,30.1c15.5,3.7,22,34.2,24.8,47.8c0.6,1.9-3.8,8.2-6.5,11.1   c-6.6,9-18.6,17-21.3,18.7c-0.8,0.3,9,47.3,20.6,66c17.9,30.9,29,66.5,29,66.5l14.9-0.3c0,0-5.2-15-16.4-46.7   c-5.6-18.2-8.7-21.7-12.8-51.1c-1.1-6.5-3.9-40.6-3.2-47.4c0.7-6.8-0.5-49.4-1.8-55.4C55.5,133.9,51.1,112.8,41.6,101.1z"/>
</g>
<path class="st2" d="M79.8,359.2l13.4,0.5c0,0,3.3,29.9,4.2,32.4c0,0-2.1,16.2-4.9,20.3c-4.6,16-20.8,28.3-23.7,29.6  c-6-0.3-8-0.7-9.6-0.1c-1.1-1.3-2.4-3.3-2.4-3.3s6.6-4.3,8.5-6.7c6-5.5,10.4-15,11.5-18.6c2.7-4.1,5.5-25.1,5.2-32  C81.7,374.5,80.4,359.6,79.8,359.2z"/>
</svg>