<?xml version="1.0" encoding="utf-8"?>
<!-- Generator: Adobe Illustrator 23.0.1, SVG Export Plug-In . SVG Version: 6.00 Build 0)  -->
<svg version="1.1" id="Camada_1" xmlns="http://www.w3.org/2000/svg" xmlns:xlink="http://www.w3.org/1999/xlink" x="0px" y="0px"
	 viewBox="0 0 600 600" style="enable-background:new 0 0 600 600;" xml:space="preserve">
<style type="text/css">
	.st0{fill:#FFFFFF;stroke:#1E1E1C;stroke-miterlimit:10;}
	.st1{fill:none;stroke:#1E1E1C;stroke-width:0.6333;stroke-miterlimit:10;}
	.st2{fill:#FFFFFF;stroke:#1E1E1C;stroke-width:1.2665;stroke-miterlimit:10;}
	.st3{fill:#FFFFFF;stroke:#1E1E1C;stroke-width:0.6333;stroke-miterlimit:10;}
	.st4{fill:none;stroke:#1E1E1C;stroke-width:0.9721;stroke-miterlimit:10;}
	.st5{fill:#FFFFFF;}
	.st6{fill:none;stroke:#1E1E1C;stroke-width:0.9881;stroke-miterlimit:10;}
	.st7{fill:none;stroke:#1E1E1C;stroke-width:1.2665;stroke-miterlimit:10;}
	.st8{fill:#FFFFFF;stroke:#1E1E1C;stroke-width:0.9721;stroke-miterlimit:10;}
	.st9{fill:#FFFFFF;stroke:#1E1E1C;stroke-width:0.9091;stroke-miterlimit:10;}
	.st10{fill:#FFFFFF;stroke:#1E1E1C;stroke-width:0.5889;stroke-miterlimit:10;}
	.st11{fill:#FFFFFF;stroke:#1E1E1C;stroke-width:1.019;stroke-miterlimit:10;}
	.st12{fill:#FFFFFF;stroke:#1E1E1C;stroke-width:0.953;stroke-miterlimit:10;}
	.st13{fill:#FFFFFF;stroke:#1E1E1C;stroke-width:0.6639;stroke-miterlimit:10;}
	.st14{fill:#FFFFFF;stroke:#1E1E1C;stroke-width:0.6174;stroke-miterlimit:10;}
	.st15{fill:#FFFFFF;stroke:#1E1E1C;stroke-width:1.3277;stroke-miterlimit:10;}
	.st16{fill:none;stroke:#1E1E1C;stroke-width:0.75;stroke-miterlimit:10;}
	.st17{fill:none;stroke:#1E1E1C;stroke-miterlimit:10;}
	.st18{fill:none;stroke:#1E1E1C;stroke-width:1.3977;stroke-miterlimit:10;}
	.st19{fill:none;stroke:#1E1E1C;stroke-width:2;stroke-miterlimit:10;}
	.st20{fill:#FFFFFF;stroke:#1E1E1C;stroke-width:0.5;stroke-miterlimit:10;}
	.st21{fill:none;stroke:#1E1E1C;stroke-width:0.5;stroke-miterlimit:10;}
	.st22{fill:none;stroke:#1E1E1C;stroke-width:1.0033;stroke-miterlimit:10;}
	.st23{fill:#FFFFFF;stroke:#020203;stroke-width:0.75;stroke-miterlimit:10;}
	.st24{fill:none;stroke:#020203;stroke-miterlimit:10;}
	.st25{fill:#FFFFFF;stroke:#020203;stroke-miterlimit:10;}
	.st26{fill:none;stroke:#020203;stroke-width:0.5;stroke-miterlimit:10;}
	.st27{fill:#FFFFFF;stroke:#020203;stroke-linejoin:round;}
	.st28{fill:none;stroke:#020203;stroke-linejoin:round;}
	.st29{fill:none;stroke:#020203;stroke-width:0.75;stroke-miterlimit:10;}
	.st30{fill:none;stroke:#020203;stroke-width:0.25;stroke-miterlimit:10;}
	.st31{fill:none;stroke:#E52624;stroke-width:1.5;stroke-miterlimit:10;}
	.st32{fill:#E52624;}
	.st33{fill:#FFFFFF;stroke:#020203;stroke-width:0.5;stroke-miterlimit:10;}
	.st34{fill:none;stroke:#E52522;stroke-width:1.5;stroke-miterlimit:10;}
	.st35{fill:#E52522;}
	.st36{fill:#E7E6E6;}
	.st37{fill:none;stroke:#E20D18;stroke-width:2;stroke-miterlimit:10;}
	.st38{fill:none;stroke:#E20D18;stroke-width:1.8;stroke-miterlimit:10;}
	.st39{fill:none;stroke:#E20D18;stroke-width:1.62;stroke-miterlimit:10;}
	.st40{fill:#E20D18;}
	.st41{fill:none;stroke:#E20D18;stroke-width:1.54;stroke-miterlimit:10;}
	.st42{fill:none;stroke:#E20D18;stroke-width:1.74;stroke-miterlimit:10;}
	.st43{fill:none;stroke:#E20D18;stroke-width:1.55;stroke-miterlimit:10;}
	.st44{fill:none;stroke:#E20D18;stroke-width:1.56;stroke-miterlimit:10;}
	.st45{fill:none;stroke:#E20D18;stroke-width:1.53;stroke-miterlimit:10;}
	.st46{fill:none;stroke:#E20D18;stroke-width:1.58;stroke-miterlimit:10;}
	.st47{fill:none;stroke:#E20D18;stroke-width:1.69;stroke-miterlimit:10;}
	.st48{fill:none;stroke:#E20D18;stroke-width:1.43;stroke-miterlimit:10;}
	.st49{fill:none;stroke:#E20D18;stroke-width:1.48;stroke-miterlimit:10;}
	.st50{fill:none;stroke:#E20D18;stroke-width:1.67;stroke-miterlimit:10;}
	.st51{fill:none;stroke:#E20D18;stroke-width:1.65;stroke-miterlimit:10;}
	.st52{fill:#FFFFFF;stroke:#020203;stroke-width:3;stroke-miterlimit:10;}
	.st53{fill:none;stroke:#E20D18;stroke-width:1.41;stroke-miterlimit:10;}
	.st54{fill:none;stroke:#E20D18;stroke-width:1.59;stroke-miterlimit:10;}
	.st55{fill:none;stroke:#1E1E1C;stroke-width:1.05;stroke-miterlimit:10;}
	.st56{fill:none;stroke:#1E1E1C;stroke-width:0.52;stroke-miterlimit:10;}
	.st57{fill:none;stroke:#1E1E1C;stroke-width:0.8;stroke-miterlimit:10;}
	.st58{fill:none;stroke:#1E1E1C;stroke-width:0.49;stroke-miterlimit:10;}
	.st59{fill:none;stroke:#1E1E1C;stroke-width:0.84;stroke-miterlimit:10;}
	.st60{fill:none;stroke:#1E1E1C;stroke-width:0.79;stroke-miterlimit:10;}
	.st61{fill:none;stroke:#1E1E1C;stroke-width:0.55;stroke-miterlimit:10;}
	.st62{fill:none;stroke:#1E1E1C;stroke-width:0.51;stroke-miterlimit:10;}
	.st63{fill:none;stroke:#1E1E1C;stroke-width:1.1;stroke-miterlimit:10;}
	.st64{fill:none;stroke:#1E1E1C;stroke-width:0.25;stroke-miterlimit:10;}
	.st65{fill:none;stroke:#1E1E1C;stroke-width:1.07;stroke-miterlimit:10;}
	.st66{fill:none;stroke:#1E1E1C;stroke-width:0.94;stroke-miterlimit:10;}
	.st67{fill:none;stroke:#1E1E1C;stroke-width:0.56;stroke-miterlimit:10;}
	.st68{fill:none;stroke:#E20D18;stroke-width:1.5;stroke-miterlimit:10;}
	.st69{fill:none;stroke:#E20D18;stroke-width:1.49;stroke-miterlimit:10;}
	.st70{fill:none;stroke:#E20D18;stroke-miterlimit:10;}
	.st71{fill:none;stroke:#1E1E1C;stroke-width:0.78;stroke-miterlimit:10;}
	.st72{fill:none;stroke:#1E1E1C;stroke-width:1.08;stroke-miterlimit:10;}
	.st73{fill:none;stroke:#1E1E1C;stroke-width:0.54;stroke-miterlimit:10;}
	.st74{fill:none;stroke:#1E1E1C;stroke-width:0.83;stroke-miterlimit:10;}
	.st75{fill:none;stroke:#1E1E1C;stroke-width:0.77;stroke-miterlimit:10;}
	.st76{fill:none;stroke:#1E1E1C;stroke-width:0.87;stroke-miterlimit:10;}
	.st77{fill:none;stroke:#1E1E1C;stroke-width:0.81;stroke-miterlimit:10;}
	.st78{fill:none;stroke:#1E1E1C;stroke-width:1.13;stroke-miterlimit:10;}
	.st79{fill:none;stroke:#1E1E1C;stroke-width:0.21;stroke-miterlimit:10;}
	.st80{fill:#FFFFFF;stroke:#1E1E1C;stroke-width:0.84;stroke-miterlimit:10;}
	.st81{fill:none;stroke:#1E1E1C;stroke-width:0.42;stroke-miterlimit:10;}
	.st82{fill:none;stroke:#1E1E1C;stroke-width:0.24;stroke-miterlimit:10;}
	.st83{fill:none;stroke:#E20D18;stroke-width:1.6;stroke-miterlimit:10;}
	.st84{fill:none;stroke:#E20D18;stroke-width:1.64;stroke-miterlimit:10;}
	.st85{fill:none;stroke:#E20D18;stroke-width:1.484;stroke-miterlimit:10;}
	.st86{fill:none;stroke:#E20D18;stroke-width:1.4075;stroke-miterlimit:10;}
	.st87{fill:none;stroke:#E20D18;stroke-width:1.5853;stroke-miterlimit:10;}
	.st88{fill:none;stroke:#E20D18;stroke-width:1.2981;stroke-miterlimit:10;}
	.st89{fill:none;stroke:#E20D18;stroke-width:0.9733;stroke-miterlimit:10;}
	.st90{fill:none;stroke:#E20D18;stroke-width:0.9159;stroke-miterlimit:10;}
	.st91{fill:none;stroke:#E20D18;stroke-width:1.4439;stroke-miterlimit:10;}
	.st92{fill:none;stroke:#E20D18;stroke-width:1.0062;stroke-miterlimit:10;}
	.st93{fill:none;stroke:#E20D18;stroke-width:0.9468;stroke-miterlimit:10;}
	.st94{fill:none;stroke:#E20D18;stroke-width:1.6749;stroke-miterlimit:10;}
	.st95{fill:none;stroke:#E20D18;stroke-width:1.6513;stroke-miterlimit:10;}
	.st96{fill:#FFFFFF;stroke:#1E1E1C;stroke-width:0.8664;stroke-miterlimit:10;}
	.st97{fill:#FFFFFF;stroke:#1E1E1C;stroke-width:1.0973;stroke-miterlimit:10;}
	.st98{fill:none;stroke:#1E1E1C;stroke-width:1.0973;stroke-miterlimit:10;}
	.st99{fill:#FFFFFF;stroke:#1E1E1C;stroke-width:0.5487;stroke-miterlimit:10;}
	.st100{fill:none;stroke:#1E1E1C;stroke-width:0.8422;stroke-miterlimit:10;}
	.st101{fill:#FFFFFF;stroke:#1E1E1C;stroke-width:0.7877;stroke-miterlimit:10;}
	.st102{fill:#FFFFFF;stroke:#1E1E1C;stroke-width:0.5103;stroke-miterlimit:10;}
	.st103{fill:#FFFFFF;stroke:#1E1E1C;stroke-width:0.8422;stroke-miterlimit:10;}
	.st104{fill:none;stroke:#1E1E1C;stroke-width:0.8829;stroke-miterlimit:10;}
	.st105{fill:#FFFFFF;stroke:#1E1E1C;stroke-width:0.8257;stroke-miterlimit:10;}
	.st106{fill:#FFFFFF;stroke:#1E1E1C;stroke-width:0.5752;stroke-miterlimit:10;}
	.st107{fill:#FFFFFF;stroke:#1E1E1C;stroke-width:0.5349;stroke-miterlimit:10;}
	.st108{fill:#FFFFFF;stroke:#1E1E1C;stroke-width:1.1504;stroke-miterlimit:10;}
	.st109{fill:#FFFFFF;stroke:#1E1E1C;stroke-width:0.8829;stroke-miterlimit:10;}
	.st110{fill:none;stroke:#1E1E1C;stroke-width:0.5487;stroke-miterlimit:10;}
	.st111{fill:#FFFFFF;stroke:#1E1E1C;stroke-width:1.0441;stroke-miterlimit:10;}
	.st112{fill:none;stroke:#E20D18;stroke-width:1.5173;stroke-miterlimit:10;}
	.st113{fill:none;stroke:#E20D18;stroke-width:1.804;stroke-miterlimit:10;}
	.st114{fill:none;stroke:#E20D18;stroke-width:1.6153;stroke-miterlimit:10;}
	.st115{fill:none;stroke:#E20D18;stroke-width:1.578;stroke-miterlimit:10;}
	.st116{fill:none;stroke:#E20D18;stroke-width:1.6879;stroke-miterlimit:10;}
	.st117{fill:none;stroke:#E20D18;stroke-width:1.6347;stroke-miterlimit:10;}
	.st118{fill:none;stroke:#E20D18;stroke-width:1.5386;stroke-miterlimit:10;}
	.st119{fill:none;stroke:#E20D18;stroke-width:1.7396;stroke-miterlimit:10;}
	.st120{fill:#FFFFFF;stroke:#1E1E1C;stroke-width:1.4;stroke-miterlimit:10;}
	.st121{fill:none;stroke:#E20D18;stroke-width:1.4266;stroke-miterlimit:10;}
	.st122{fill:none;stroke:#E20D18;stroke-width:1.4299;stroke-miterlimit:10;}
	.st123{fill:none;stroke:#1E1E1C;stroke-width:0.9867;stroke-miterlimit:10;}
	.st124{fill:none;stroke:#DD0B18;stroke-width:1.4266;stroke-miterlimit:10;}
	.st125{fill:none;stroke:#DD0B18;stroke-width:1.4299;stroke-miterlimit:10;}
	.st126{fill:#DD0B18;}
	.st127{fill:none;stroke:#DD0B18;stroke-width:1.484;stroke-miterlimit:10;}
	.st128{fill:none;stroke:#DD0B18;stroke-width:1.4075;stroke-miterlimit:10;}
	.st129{fill:none;stroke:#DD0B18;stroke-width:1.5853;stroke-miterlimit:10;}
	.st130{fill:none;stroke:#DD0B18;stroke-width:1.2981;stroke-miterlimit:10;}
	.st131{fill:none;stroke:#DD0B18;stroke-width:0.9733;stroke-miterlimit:10;}
	.st132{fill:none;stroke:#DD0B18;stroke-width:0.9159;stroke-miterlimit:10;}
	.st133{fill:none;stroke:#DD0B18;stroke-width:1.4439;stroke-miterlimit:10;}
	.st134{fill:none;stroke:#DD0B18;stroke-width:1.0062;stroke-miterlimit:10;}
	.st135{fill:none;stroke:#DD0B18;stroke-width:0.9468;stroke-miterlimit:10;}
	.st136{fill:none;stroke:#DD0B18;stroke-width:1.6749;stroke-miterlimit:10;}
	.st137{fill:none;stroke:#DD0B18;stroke-width:1.6513;stroke-miterlimit:10;}
	.st138{fill:#FFFFFF;stroke:#1E1E1C;stroke-width:0.75;stroke-miterlimit:10;}
	.st139{fill:none;stroke:#DD0B18;stroke-width:1.5173;stroke-miterlimit:10;}
	.st140{fill:none;stroke:#DD0B18;stroke-width:1.804;stroke-miterlimit:10;}
	.st141{fill:none;stroke:#DD0B18;stroke-width:1.6153;stroke-miterlimit:10;}
	.st142{fill:none;stroke:#DD0B18;stroke-width:1.5551;stroke-miterlimit:10;}
	.st143{fill:none;stroke:#DD0B18;stroke-width:1.578;stroke-miterlimit:10;}
	.st144{fill:#E0E0E0;}
	.st145{fill:none;stroke:#DD0B18;stroke-width:1.6879;stroke-miterlimit:10;}
	.st146{fill:none;stroke:#DD0B18;stroke-width:1.6347;stroke-miterlimit:10;}
	.st147{fill:none;stroke:#DD0B18;stroke-width:1.5386;stroke-miterlimit:10;}
	.st148{fill:none;stroke:#DD0B18;stroke-width:1.7396;stroke-miterlimit:10;}
	.st149{fill:#FFFFFF;stroke:#020203;stroke-width:1.635;stroke-miterlimit:10;}
	.st150{fill:none;stroke:#E20D18;stroke-width:1.52;stroke-miterlimit:10;}
	.st151{fill:#020203;}
	.st152{fill:none;stroke:#1E1E1C;stroke-linejoin:round;}
	.st153{fill:none;stroke:#1E1E1C;stroke-linecap:round;stroke-miterlimit:10;}
	.st154{fill:#1E1E1C;}
	.st155{fill:none;stroke:#1E1E1C;stroke-linejoin:round;stroke-miterlimit:10;}
	.st156{fill:none;stroke:#020203;stroke-linejoin:bevel;stroke-miterlimit:10;}
	.st157{fill:none;stroke:#020203;stroke-miterlimit:10;stroke-dasharray:1;}
	.st158{font-family:'Roboto-Medium';}
	.st159{font-size:11.4589px;}
	.st160{fill:none;stroke:#020203;stroke-width:0.5;stroke-miterlimit:10;stroke-dasharray:1;}
	.st161{fill:none;stroke:#E20D18;stroke-width:1.3;stroke-miterlimit:10;}
	.st162{fill:none;stroke:#E20D18;stroke-width:0.97;stroke-miterlimit:10;}
	.st163{fill:none;stroke:#E20D18;stroke-width:0.92;stroke-miterlimit:10;}
	.st164{fill:none;stroke:#E20D18;stroke-width:1.44;stroke-miterlimit:10;}
	.st165{fill:none;stroke:#E20D18;stroke-width:1.01;stroke-miterlimit:10;}
	.st166{fill:none;stroke:#E20D18;stroke-width:0.95;stroke-miterlimit:10;}
	.st167{fill:#FFFFFF;stroke:#1E1E1C;stroke-width:2;stroke-miterlimit:10;}
	.st168{fill:none;stroke:#1E1E1C;stroke-width:1.5;stroke-linejoin:round;}
	.st169{fill:none;stroke:#1E1E1C;stroke-width:1.5;stroke-miterlimit:10;}
	.st170{fill:none;stroke:#1E1E1C;stroke-width:2;stroke-linecap:round;stroke-miterlimit:10;}
	.st171{fill:none;stroke:#1E1E1C;stroke-width:1.5;stroke-linecap:round;stroke-miterlimit:10;}
	.st172{fill:none;stroke:#1E1E1C;stroke-width:2;stroke-linejoin:round;stroke-miterlimit:10;}
	.st173{fill:none;stroke:#1E1E1C;stroke-width:2;stroke-linejoin:round;}
	.st174{fill:none;stroke:#020203;stroke-width:0.5;stroke-linejoin:bevel;stroke-miterlimit:10;}
	.st175{fill:none;stroke:#E20D18;stroke-width:1.63;stroke-miterlimit:10;}
	.st176{fill:none;stroke:#000000;stroke-miterlimit:10;}
	.st177{fill:#FFFFFF;stroke:#000000;stroke-miterlimit:10;}
	.st178{fill:none;stroke:#E20D18;stroke-width:1.3113;stroke-miterlimit:10;}
	.st179{fill:none;stroke:#E20D18;stroke-width:1.3459;stroke-miterlimit:10;}
	.st180{fill:none;stroke:#E20D18;stroke-width:1.4481;stroke-miterlimit:10;}
	.st181{fill:none;stroke:#E20D18;stroke-width:1.3929;stroke-miterlimit:10;}
	.st182{fill:none;stroke:#E20D18;stroke-width:1.327;stroke-miterlimit:10;}
	.st183{fill:none;stroke:#E20D18;stroke-width:1.4965;stroke-miterlimit:10;}
	.st184{fill:none;stroke:#E20D18;stroke-width:1.225;stroke-miterlimit:10;}
	.st185{fill:none;stroke:#E20D18;stroke-width:1.4563;stroke-miterlimit:10;}
	.st186{fill:none;stroke:#E20D18;stroke-width:1.5717;stroke-miterlimit:10;}
	.st187{fill:none;stroke:#E20D18;stroke-width:1.5529;stroke-miterlimit:10;}
	.st188{fill:#BFBEBF;stroke:#020203;stroke-miterlimit:10;}
	.st189{fill:none;stroke:#E20D18;stroke-width:2.0835;stroke-miterlimit:10;}
	.st190{fill:none;stroke:#E20D18;stroke-width:1.8751;stroke-miterlimit:10;}
	.st191{fill:none;stroke:#E20D18;stroke-width:1.6876;stroke-miterlimit:10;}
	.st192{fill:none;stroke:#E20D18;stroke-width:1.698;stroke-miterlimit:10;}
	.st193{fill:none;stroke:#E20D18;stroke-width:1.6043;stroke-miterlimit:10;}
	.st194{fill:none;stroke:#E20D18;stroke-width:1.8126;stroke-miterlimit:10;}
	.st195{fill:none;stroke:#E20D18;stroke-width:1.6147;stroke-miterlimit:10;}
	.st196{fill:none;stroke:#E20D18;stroke-width:1.5938;stroke-miterlimit:10;}
	.st197{fill:none;stroke:#E20D18;stroke-width:1.6251;stroke-miterlimit:10;}
	.st198{fill:none;stroke:#E20D18;stroke-width:1.6459;stroke-miterlimit:10;}
	.st199{fill:none;stroke:#E20D18;stroke-width:1.7605;stroke-miterlimit:10;}
	.st200{fill:#FFFFFF;stroke:#1E1E1C;stroke-width:0.87;stroke-miterlimit:10;}
	.st201{fill:#FFFFFF;stroke:#1E1E1C;stroke-width:1.1;stroke-miterlimit:10;}
	.st202{fill:#FFFFFF;stroke:#1E1E1C;stroke-width:0.55;stroke-miterlimit:10;}
	.st203{fill:#FFFFFF;stroke:#1E1E1C;stroke-width:0.79;stroke-miterlimit:10;}
	.st204{fill:#FFFFFF;stroke:#1E1E1C;stroke-width:0.51;stroke-miterlimit:10;}
	.st205{fill:none;stroke:#1E1E1C;stroke-width:0.88;stroke-miterlimit:10;}
	.st206{fill:#FFFFFF;stroke:#1E1E1C;stroke-width:0.83;stroke-miterlimit:10;}
	.st207{fill:#FFFFFF;stroke:#1E1E1C;stroke-width:0.58;stroke-miterlimit:10;}
	.st208{fill:#FFFFFF;stroke:#1E1E1C;stroke-width:0.53;stroke-miterlimit:10;}
	.st209{fill:#FFFFFF;stroke:#1E1E1C;stroke-width:1.15;stroke-miterlimit:10;}
	.st210{fill:#FFFFFF;stroke:#1E1E1C;stroke-width:0.88;stroke-miterlimit:10;}
	.st211{fill:#FFFFFF;stroke:#1E1E1C;stroke-width:1.04;stroke-miterlimit:10;}
	.st212{fill:#FFFFFF;stroke:#020203;stroke-linejoin:round;stroke-miterlimit:10;}
</style>
<g>
	<g>
		<path class="st151" d="M346.6,22.9c7.4,7.8,12.8,37.6,18.8,50.5c2.7,6,4.7,16,10.9,22.7c11.8,12.6,11.3,13.7,24.7,30.6
			c15.1,21,4.6,43,4.6,43l-11.3,32.9c-1.4,3.8-7.9,20.9-4.2,47c4.2,29.7,5.3,35.2,6.2,46.9c2.9,36.5-10.5,55.2-10.5,55.2
			c-2.2,1.4-7.6,5.9-7.6,5.9l-14.4-0.5c4.7-3.1,9.8-14,13-21.8c3.7-18.4,2.4-37.3,2.2-45.5c-5.9-39-6.3-63.1-6.3-67.9
			c0.3-15.8,3.7-18.9,9.5-31.1c2.3-4.9,7.8-15.5,8.9-17.5c12.1-21.7-2.3-39-3.2-40.4c-1.2-1.9-3.7-5.6-9.3-13
			c-10.8-15.2-11.1-23.9-13.2-31.3c0,0-10.1-40.3-11.5-44.2c-3.7-10.2-5.8-22.1-16.7-29.9C337.9,13.7,341.6,17.3,346.6,22.9z"/>
		<path class="st24" d="M230,91.7c0,0,8.6,17.4,5.1,57.8c-1.1,42.8-3.2,205.6,1.1,207.7"/>
		<path class="st24" d="M366,92.7c0,0-10.2,20.5-7.6,90.7c-1.3,69-1.6,174-1.6,174"/>
		<polyline class="st157" points="234.4,181 294.8,206.7 358,183.1 		"/>
		<polyline class="st157" points="234.4,199.3 296.3,224.3 358.4,199.9 		"/>
		<polyline class="st157" points="357.7,218 295.8,242.2 234,217.1 		"/>
		<path class="st157" d="M248.6,357.3c0,0-14.2-17.2-14.3-18.8"/>
		<path class="st157" d="M233.5,296.9c0,0,27.9,54.2,36.4,60.6"/>
		<path class="st157" d="M233.6,256c0,0,52.7,94.3,60.1,101.2"/>
		<path class="st157" d="M234.6,218c0,0,71.6,126.3,82,139"/>
		<path class="st157" d="M267,230.6c0,0,43.4,78.4,72.8,126.9"/>
		<path class="st157" d="M296.8,242.1c0,0,46.9,82.1,60.2,98.7"/>
		<path class="st157" d="M315.5,234.7c0,0,32.1,56.1,41.7,67.2"/>
		<path class="st157" d="M335.2,226.8c0,0,16.2,30.5,22.3,36.2"/>
		<path class="st157" d="M233.7,265.1c0,0,15.1-23.8,23.3-38.5"/>
		<path class="st157" d="M233.6,301.4c0,0,31.2-47.8,42.2-67.4"/>
		<path class="st157" d="M234.4,341.9c0,0,52.9-86.9,59.4-100.7"/>
		<line class="st157" x1="250.7" y1="357.1" x2="325.1" y2="230.9"/>
		<line class="st157" x1="273.2" y1="357.3" x2="357.5" y2="218.5"/>
		<path class="st157" d="M357.2,256.7c0,0-53.8,98-61.2,100.6"/>
		<path class="st157" d="M356.7,297.8c0,0-29.6,54.6-37.3,59.3"/>
		<path class="st157" d="M356.4,338.9c0,0-6.7,12.3-15.2,18.6"/>
		<path class="st24" d="M205.2,349.1c0,0-0.1-0.1-0.2-0.2c-1.9-2.2-13.9-17-9.8-40.5c3.3-26.7,6.4-51.6,6.4-51.6s3.5-31.8,0.4-42.4
			c-1.1-8.7-7-28.7-7-28.7l-9.1-26.7c0,0-4.8-11.9,3.7-28.8c10.4-14.5,26.2-31.4,26.2-31.4s10.6-8.1,13.9-18.9
			c3.7-11,14.1-45.8,15.5-46.7c2.2-4.7,6.5-17.5,24.8-23.8c18.4-2.7,22.5-3.9,56.6-0.5c7.7,3.1,13.5,4.7,21.4,15.4
			c3.2,5.2,7,11.9,9.7,24.8c3.9,12.9,11.2,35,13.1,38.5c1.9,3.5,27.7,34.1,27.7,34.1s12.9,14.4,11.6,30.6
			c-0.2,2.7-0.2,10.7-7.6,26.7c-6.5,18.4-7,21-7,21s-6.6,25.2-5,39.8c1,12.5,3,35.8,5,43.2c0.9,7.8,3.3,32.4,3.3,32.4
			s2.7,17.2-12.4,35.2c-8.3,6.9-8.1,6.7-8.1,6.7s0.2,0.3-1,0.2c-1.7,0.1-142.9-0.5-142.9-0.5s-19.5,0.4-21.9-1.6
			C210,353.3,205.2,349.1,205.2,349.1z"/>
		<path class="st24" d="M220.4,362.3c0,0,0-2.7-10.1-4c-5.6-5.2-17.1-14.5-17.1-14.5s-16-6.6-19.8,11c0.7,4.6,1.7,7.8,1.7,7.8
			l1.5,4.7c0,0,5.3,10.5,6.5,13.2c1.8,2.6,7.9,12.1,7.9,12.1l9.1,10.8l7.8,7.3c0,0,4.2,3.7,14,3.4l-3.6-4.8c0,0-9.1-9.9-6.6-27.3
			c1.5-8.4,2.8-12.4,2.8-12.4S217.3,362.4,220.4,362.3z"/>
		<path class="st151" d="M190.1,343.2c0,0-4.1-1.5,2.5,15.5c6.6,17,10.1,26.9,10.1,26.9s5.1,15.1,10.1,19.8
			c-0.2,0.2-6.6-2.4-9.6-5.2c-4.6-3.4-9.5-8.4-9.5-8.4s-9.9-13.2-13-20.8c0,0-6-13.2-6.7-16.4C174.8,351.4,175.6,341.7,190.1,343.2z
			"/>
		<line class="st24" x1="210.4" y1="358.4" x2="216.3" y2="365.6"/>
		<path class="st24" d="M221.3,361.2c0,0,10.7-4.2,17.6-3.8c10.8,0,116.9,0.6,116.9,0.6s7.9,2.3,9.9,4.3c4.5,1.6,12.2,1.1,15.3,22.5
			c-0.2,9.6,1.8,18.5-10.6,29.7c-1.8,1.2-3.6,2.2-3.6,2.2s-10.2-2.7-14.2-2c-5.4,0.2-76-0.2-76-0.2s-30.9-0.5-48.3,0.9
			c-2,0.5-4.5,1.2-4.5,1.2s-15.1-16.7-11.9-33.8C213.3,375.7,213.1,367.7,221.3,361.2z"/>
		<path class="st24" d="M219.2,363.4c0,0-7.4,5.9,2.9,51.4"/>
		<path class="st157" d="M220.8,362.2c0,0,66.7,2.9,74.6,3.1c7.9,0.2,69.9-3,69.9-3"/>
		<path class="st157" d="M219,365.1c0,0-1.1-3.2,20.5-0.2c21.9,2.5,55,5.7,55,5.7l62.4-6.1c0,0,12.4-1.2,13.9-0.2
			c0,0,11,5.1-0.3,50.2"/>
		<path class="st24" d="M371.2,414.2c0,0,11.2,2.3,18.4-5c7.4-8.2,15.2-19.7,15.2-19.7s13.9-22.1,14.1-33.8
			c-0.2-3.1-2.7-7.4-2.7-7.4s-3.2-7.3-13.6-6.6c-3.4,0.4-5,1.2-15.2,8.5c-10.4,8.1-17.3,13-17.3,13s9.7,3.4,11.2,23.4
			C381.1,392,382.7,401.4,371.2,414.2z"/>
		<path class="st151" d="M403,342.1c0,0,3.1,0-1.8,13.9c-4.7,13.8-16.9,47.1-16.9,47.1s21.7-11.6,29.2-34.3c3.4-7.9,5-12.9,5.1-14.2
			C418.5,353.1,415.4,340.8,403,342.1z"/>
		<path class="st24" d="M389.5,409.8l36.3,1.2c0,0,1.8,0.2,2.8,0.2c0.2-1.4-0.1-2.7-0.1-2.7l-36.9-1.2
			C391.7,407.2,391,408.1,389.5,409.8z"/>
		<polygon class="st151" points="392,407.2 394,405.1 417.5,405.7 417.3,407 424.6,408.1 		"/>
		<path class="st24" d="M417.7,410.8c0,0-0.5,3.8,1.2,3.7c2.3,0.2,16.2,1.2,19.1,0c0.8,0.1,1.2-0.2,1.3-1.8c0.2-2.5,0.3-4.8,0.3-4.8
			l-1.2-11.6c0,0-5.8,2.4-19.5-0.4c-0.6,4.1-1.7,11.3-1.7,11.3l11.6,1.2v3.2L417.7,410.8z"/>
		<path class="st24" d="M418.9,395.8c-0.3,0.3,13.5,2.7,19.5,0.4c0,0-0.2-0.5-1.3-0.6c0,0-5.3,2.4-16.6-0.2
			C420.4,395.4,419.4,395.3,418.9,395.8z"/>
		<path class="st24" d="M420.5,395.4l0.3-11.7c0,0,12.3,1.2,16.5,0.3c-0.1,2.3-0.2,11.5-0.2,11.5S432,398,420.5,395.4z"/>
		<path class="st24" d="M420.3,383.3l-0.2-0.1c-0.2-0.1-0.3-0.3-0.3-0.6l1.3-73.3c0,0,1.7,1.7,3.8,1.2c2.2,1.2,3.9,2.7,12,2.6
			c2.9-0.1,3.7-0.2,3.7-0.2l0.1,1.6c0,0-1.7,2.3-0.7,3.9c0.5,0.4-1.6,65-1.6,65s-0.2,0.5-1.2,0.7c0,0-6,1.2-16.1-0.3
			C420.8,383.5,420.6,383.4,420.3,383.3z"/>
		<path class="st24" d="M449.5,296.2c0,0,3.2,3.3,1.1,9.5c-0.9,2.2-1.3,4.1-5.6,6.3c-2.7,0.5-10.6,2.3-19.1-1.2
			c-4.1-2.9-6.5-5.7-6.5-5.7v1.6c0,0-7.6-1.8-6.2-9.3c0.1-0.2,0.2-0.5,0.2-0.7c0.7-2.2,2.3-5.1,9-2.4c5.6,0.9,9.6,1.9,21-0.8
			C444.8,293.3,447.7,293.1,449.5,296.2z"/>
		<path class="st24" d="M413.9,296.9c0,0,4.1,2.7,5.9,5.3c2.3,2,4.5,4.4,8.2,5.1s11.1,3,19.6,0.1c1.7-0.9,2.7-1.4,3.3-3.2"/>
		<path class="st24" d="M419.6,306.8l0.1,0.8c0,0,2.2,3.4,5.6,2.7"/>
		<path class="st24" d="M441.4,312.8v1.5c0,0,4.5,0,4.8,2c0.1,1.2,0.1,1.4,0.1,1.4s0.3,0.3-1.7,0.3c-2.2,0.1-4.7,0.2-4.7,0.2
			s-1.1-1.2,0.7-3.9c0-0.9-0.1-1.6-0.1-1.6L441.4,312.8L441.4,312.8z"/>
		<polyline class="st24" points="193.3,395.9 177,395.6 176.3,390.2 177.6,373.2 178.4,371 		"/>
		<polyline class="st24" points="176.4,394.5 174.4,386.9 175.3,378.1 177.6,372.1 		"/>
		<path class="st24" d="M198,420.5c0,0,0.7,1.9,2.7,0.9c1.1-2.9,3.3-8.1,3.3-8.1s0.7-2.3,3.2-2.3c0.5,0,0.5,0,0.5,0l-1.5-1.4
			l-2.7,0.1c0,0-1.7,1.7-2,2.9C200.8,413.9,198,420.5,198,420.5"/>
		<g id="Base-3_3_">
			<g id="base-4_3_">
				<path class="st5" d="M434.2,523.8c4.5,0,8.6,2.2,11.2,5.8c4.2,6.2,0,14.2,0,14.2c-2.3,11.9-12.5,11.3-12.5,11.3
					c-15.1-0.2-13-18.3-13-18.3l-0.2-12.6C419.7,524.2,425.2,528.3,434.2,523.8z"/>
				<path class="st0" d="M361.9,478l-0.2,1.5c0,0-2-0.1-4.2,9.1l23.8,5.9c0,0,3.2-11.6-2.9-14.7l-2.6-0.9l-3.4,0.5v-1.9L361.9,478z"
					/>
				<path class="st5" d="M154.8,522c-4.5-0.1-8.6,2.1-11.2,5.8c-4.2,6.2,0,14.2,0,14.2c2.3,11.9,12.5,11.3,12.5,11.3
					c15.1-0.2,13-18.3,13-18.3l0.2-12.6C169.2,522.5,163.7,526.4,154.8,522z"/>
				<path class="st0" d="M228.3,476.7l0.2,1.5c0,0,2-0.1,4.2,9.1l-23.8,5.9c0,0-3.2-11.6,2.9-14.6l2.6-0.9l3.4,0.5v-2L228.3,476.7z"
					/>
				<path class="st5" d="M290.3,560.9v2.6h-4.7l-1.6,3.5l0.3,21.7l1.7,3.9h4.7c0,0,0.8-0.8,0.7-4.8c-0.1-4,0-4.9,0-4.9l7.7-0.1v7.6
					c0,0,0.2,2.2,0.7,2.2h4.7c0,0,1.9-2.7,2.2-4.8c0.3-2.2-0.1-20.3-0.1-20.3l-1.7-4h-5.1l-0.2-1.6L290.3,560.9z"/>
				<path class="st152" d="M169.9,523l-0.2,11.8l-0.4,0.2c0,0-0.9-3.8-3.7-6c-1.4-1.1-3-1.9-4.7-2.5v-2.4"/>
				
					<ellipse transform="matrix(3.327791e-02 -0.9994 0.9994 3.327791e-02 -389.5088 678.7754)" class="st17" cx="156.1" cy="540.7" rx="12.5" ry="12.5"/>
				<path class="st153" d="M143.6,542.3c-1.1-2.4-1.7-5-1.9-7.6c0-7,5.6-12.5,12.5-12.5l0,0h0.1"/>
				<path class="st153" d="M141.8,535.4c0-7,7.1-12.2,14-12.2"/>
				<circle class="st17" cx="156.4" cy="540.8" r="2.2"/>
				<path class="st17" d="M156.6,530.2c0,0,0.1,6.9,0.3,7.2c0.2,0.3,0.6,0.6,1.3,0s3.9-5.5,3.9-5.5"/>
				<path class="st17" d="M163.8,533.6c0,0-4.5,5.3-4.5,5.7c0,0.4,0,0.8,1.1,0.8s6.5-1.7,6.5-1.7"/>
				<path class="st17" d="M167,540.8c0,0-6.9,0-7.2,0.3c-0.3,0.3-0.7,0.6,0,1.3c0.7,0.7,5.4,3.9,5.4,3.9"/>
				<path class="st17" d="M164.1,548c0,0-5.5-4.2-5.9-4.2c-0.4,0-0.8,0.1-0.8,1.1c0,1,1.9,6.4,1.9,6.4"/>
				<path class="st17" d="M155,530.2c0,0,0.3,6.9,0.1,7.2c-0.2,0.4-0.5,0.7-1.3,0.1c-0.8-0.6-4.2-5.2-4.2-5.2"/>
				<path class="st17" d="M148,534c0,0,4.7,5.1,4.7,5.5c0,0.4,0,0.8-1,0.9c-1,0.1-6.6-1.2-6.6-1.2"/>
				<path class="st17" d="M145.3,542.2c0,0,6.9-0.4,7.2-0.1c0.4,0.2,0.7,0.5,0.1,1.3c-0.6,0.8-5.2,4.2-5.2,4.2"/>
				<path class="st17" d="M149.6,549.4c0,0,4.5-5.2,5-5.3c0.4-0.1,0.8-0.1,1,0.8c0.2,1-0.6,6.6-0.6,6.6"/>
				<path class="st17" d="M419.2,521.1v14.4l0.4,0.3c0,0,1.2-3.7,4.1-5.7c1.5-1,3.1-1.7,4.8-2.2l0.2-2.4"/>
				<circle class="st17" cx="432" cy="542.6" r="12.9"/>
				<path class="st17" d="M445.1,544.1c1.1-2.2,1.7-4.5,2-6.9c0.5-7-3.6-13-10.5-13.4"/>
				<path class="st17" d="M447.1,537.7c0.5-6.9-6.4-12.4-13.3-12.9"/>
				<path class="st17" d="M446.5,540.2c-1.1-10-9.2-13.6-17.6-12.1"/>
				<circle class="st17" cx="432" cy="542.3" r="2.2"/>
				<path class="st17" d="M432.5,531.7c0,0-0.5,6.9-0.8,7.2c-0.3,0.3-0.6,0.6-1.3-0.1c-0.7-0.7-3.5-5.7-3.5-5.7"/>
				<path class="st17" d="M425,534.7c0,0,4.1,5.6,4.1,6c0,0.4-0.1,0.8-1.1,0.7c-1-0.1-6.4-2.1-6.4-2.1"/>
				<path class="st17" d="M421.4,541.6c0,0,6.9,0.5,7.2,0.7c0.3,0.2,0.6,0.6-0.1,1.3c-0.7,0.7-5.6,3.5-5.6,3.5"/>
				<path class="st17" d="M423.8,549c0,0,5.7-3.8,6.2-3.7c0.4,0.1,0.8,0.1,0.7,1.1c-0.1,1-2.3,6.2-2.3,6.2"/>
				<path class="st17" d="M434,531.8c0,0-0.7,6.9-0.6,7.2s0.5,0.7,1.3,0.2c0.8-0.5,4.5-4.9,4.5-4.9"/>
				<path class="st17" d="M440.8,536.1c0,0-5.1,4.7-5.1,5.1c-0.1,0.4-0.1,0.8,0.9,1c1,0.2,6.6-0.8,6.6-0.8"/>
				<path class="st17" d="M442.9,544.6c0,0-6.9-0.8-7.2-0.6c-0.3,0.2-0.7,0.5-0.2,1.3c0.5,0.8,4.9,4.6,4.9,4.6"/>
				<path class="st17" d="M438.2,551.4c0,0-4.2-5.5-4.6-5.6c-0.4-0.2-0.8-0.2-1.1,0.7c-0.2,0.9,0.2,6.6,0.2,6.6"/>
				<path class="st5" d="M219.7,487.9c0.5,1.7,0.7,3.3,0.7,5c-0.2,4.7-3,7.1-6.2,5.6l-0.2-0.2c-2.2-1.2-4-3.9-5-7.2
					c-0.5-1.7-0.7-3.3-0.7-5c0.2-4.7,3-7.1,6.2-5.6l0.2,0.2C216.9,481.9,218.7,484.6,219.7,487.9z M220.1,492.8c0-0.5,0-1.1,0-1.6
					v-0.4l0,0c-0.1-1.1-0.3-2.2-0.7-3.2c-0.9-3.1-2.7-5.6-4.7-6.7l-0.2-0.2c-2.7-1.3-5.1,0.5-5.7,4.3l-0.1-0.1l-0.1,0.4l0,0
					c-0.1,0.3-0.1,0.7-0.1,1c0,0.3,0,0.8,0,1.2v0.2c0.1,1.3,0.3,2.6,0.7,3.8c0.1,0.2,0.2,0.4,0.2,0.7l0.1,0.4l0.1-0.1
					c1,2.7,2.6,4.7,4.3,5.6c0.1,0.1,0.2,0.1,0.2,0.2C217.3,500,219.8,497.5,220.1,492.8"/>
				<path class="st5" d="M215.2,492.7L215.2,492.7c0.2,0.1,1.7,2.7,2.7,4.6c-0.7,0.6-1.5,0.9-2.3,0.8c-0.3-1.8-0.7-4.5-0.7-5
					C214.9,492.7,215,492.6,215.2,492.7z"/>
				<path class="st154" d="M214.3,481.3c-0.1,3.5-0.2,5.4-0.2,5.6c-0.1,0.2-0.2,0.2-0.3,0.2c-0.2-0.2-0.3-0.3-0.4-0.5
					c-0.3-0.6-1.5-4.1-1.9-5.1l0.2-0.1c0.6,1.7,1.5,4.3,1.8,4.8c0.2,0.2,0.2,0.4,0.3,0.4s0.2,0,0.2-0.2s0.2-2.8,0.2-5.2L214.3,481.3
					z"/>
				<path class="st5" d="M213.6,486.6c-0.1,0-0.2-0.2-0.3-0.4c-0.2-0.5-1.2-3.2-1.8-4.8c0.8-0.4,1.7-0.4,2.6-0.1
					c0,2.4-0.1,5-0.2,5.2C213.8,486.5,213.8,486.6,213.6,486.6z"/>
				<path class="st154" d="M212.7,487.7c0,0.2,0,0.3-0.1,0.6c-0.1,0.2-0.2,0.2-0.6,0.1l0,0c-1.1-0.8-2.1-1.7-3.1-2.6
					c0-0.2,0-0.2,0.1-0.4c0.9,0.9,2,1.7,3,2.6l0,0c0.2,0.1,0.4,0.1,0.4,0s0-0.2,0-0.2c-0.1-0.5-1.4-3.5-2.2-5.4l0.2-0.2
					C212.7,487.2,212.7,487.5,212.7,487.7z"/>
				<path class="st154" d="M208.7,485.3l0.1-0.4l0.1,0.1C208.8,485.1,208.8,485.2,208.7,485.3L208.7,485.3z"/>
				<path class="st154" d="M209.5,492.3L209.5,492.3l0.2,0.4l-0.1,0.1L209.5,492.3z"/>
				<path class="st154" d="M212.7,490.2c0,0.2-0.1,0.6-0.2,0.7c-0.7,0.7-1.6,1.2-2.5,1.7c-0.1-0.2-0.1-0.2-0.2-0.4
					c0.9-0.4,1.7-1,2.6-1.6c0.1-0.1,0.2-0.2,0.2-0.4c0-0.1-0.1-0.2-0.2-0.3c-0.9-0.6-1.9-1.1-2.9-1.5l-0.6-0.2v-0.5l0.7,0.3
					c1,0.4,1.9,1,2.8,1.6C212.6,489.7,212.7,489.9,212.7,490.2z"/>
				<path class="st5" d="M213.8,492.7c-0.1,1.5-0.2,3.1-0.5,4.6c-1-0.7-1.8-1.7-2.4-2.8c0.7-0.9,1.6-1.7,2.5-2.5l0.2,0.1
					C213.7,492.1,213.8,492.2,213.8,492.7z"/>
				<path class="st5" d="M214.5,488.2c0.4,0.3,0.7,0.7,0.8,1.2c0.1,0.2,0.1,0.6,0.1,0.8c0,0.7-0.5,1.2-1,0.9h-0.1
					c-0.4-0.3-0.7-0.7-0.8-1.2c-0.1-0.2-0.1-0.6-0.1-0.8C213.4,488.3,213.9,487.9,214.5,488.2L214.5,488.2z"/>
				<path class="st154" d="M217.3,491.1c0.8,0.4,1.9,1,2.5,1.3v0.4c-0.8-0.4-1.8-1-2.6-1.3c-0.3-0.2-0.6-0.3-0.9-0.4
					c-0.1,0-0.2,0.1-0.2,0.2c0,0.2,0.1,0.3,0.2,0.5c0.2,0.6,1.9,3.4,2.7,4.5l-0.2,0.2c-0.5-0.8-2.3-3.8-2.6-4.5
					c-0.2-0.3-0.2-0.7-0.2-0.9c0-0.2,0.1-0.4,0.2-0.5C216.6,490.7,216.9,490.9,217.3,491.1z"/>
				<path class="st5" d="M216.7,490.6c1,0.2,2.1,0.5,3.2,0.5c0,0.4,0,0.8,0,1.2c-0.6-0.3-1.7-0.9-2.5-1.3c-0.3-0.2-0.7-0.3-1.1-0.4
					c-0.2,0.1-0.2,0.2-0.2,0.5c0,0.3,0.1,0.7,0.2,1c0.2,0.7,2.1,3.7,2.6,4.5c-0.2,0.2-0.3,0.4-0.5,0.7c-0.7-1.3-2.7-4.7-2.9-4.9
					c-0.2-0.1-0.5-0.2-0.6,0.7c0,0.7,0.4,3.7,0.7,5.1c-0.4-0.1-0.8-0.2-1.2-0.4l-0.2-0.1c-0.2-0.1-0.3-0.2-0.5-0.2
					c0.2-1.6,0.4-3.2,0.5-4.7c-0.1-0.8-0.2-1.1-0.5-1.2l-0.2-0.1c-0.2-0.1-2,1.8-2.7,2.6c-0.2-0.5-0.6-1-0.7-1.6
					c0.9-0.4,1.7-1,2.5-1.7c0.2-0.2,0.2-0.5,0.2-0.7c0-0.2-0.1-0.5-0.2-0.7c-0.9-0.6-1.8-1.2-2.8-1.6l-0.7-0.3v-0.9
					c0-0.3,0-0.7,0.1-0.9c1,0.9,2,1.8,3.1,2.6c0.3,0.2,0.5,0.1,0.6-0.1c0.1-0.2,0.1-0.3,0.1-0.6c0-0.2,0-0.4-2.2-5.6
					c0.2-0.2,0.5-0.4,0.7-0.6c0.3,1.1,1.5,4.5,1.9,5.1c0.1,0.2,0.2,0.4,0.4,0.5s0.2,0,0.3-0.2c0.2-1.8,0.3-3.7,0.2-5.6l0.2,0.1
					l0.2,0.2l0.2,0.1c-0.2,3.5-0.2,5.4,0,5.7c0.1,0.2,0.2,0.4,0.3,0.5c0.2,0.1,0.3,0,0.4-0.1c0.8-0.9,1.5-2,2.2-3.1
					c0.2,0.4,0.5,0.9,0.7,1.3c-2.4,2.8-2.5,3.2-2.5,3.2c0,0.2,0,0.4,0.1,0.6c0.1,0.2,0.2,0.5,0.5,0.7L216.7,490.6z M215.7,490.3
					c0-0.4,0-0.8-0.2-1.2c-0.2-0.6-0.5-1.1-1-1.4l0,0c-0.7-0.3-1.2,0.2-1.2,1.2c0,0.4,0,0.8,0.2,1.2c0.2,0.6,0.5,1.1,1,1.4h0.1
					C215.1,491.9,215.7,491.4,215.7,490.3"/>
				<path class="st154" d="M213.5,491.6c0.2,0.1,0.4,0.3,0.5,1.2c-0.1,1.6-0.2,3.2-0.5,4.7l-0.2-0.2c0.2-1.5,0.4-3,0.5-4.6
					c0-0.5-0.2-0.7-0.2-0.7l-0.2-0.1c-0.9,0.7-1.7,1.6-2.5,2.5c-0.1-0.1-0.1-0.2-0.2-0.3C211.5,493.3,213.3,491.4,213.5,491.6
					L213.5,491.6z"/>
				<path class="st154" d="M215.3,492.3c0.2,0.1,2.2,3.6,2.9,4.9c-0.1,0.1-0.1,0.2-0.2,0.2c-1-1.8-2.6-4.5-2.7-4.7h-0.1
					c-0.2-0.1-0.2,0-0.3,0.5c0,0.5,0.4,3.2,0.7,5h-0.2c-0.2-1.4-0.7-4.4-0.7-5.1C214.8,492.1,215.1,492.2,215.3,492.3z"/>
				<path class="st154" d="M216.7,490.2c1,0.2,2,0.4,3.1,0.5v0.4c-1.1-0.1-2.1-0.2-3.2-0.5h-0.1c-0.2-0.2-0.4-0.3-0.5-0.7
					c-0.1-0.2-0.1-0.4-0.1-0.6s0-0.4,2.5-3.2c0.1,0.1,0.1,0.2,0.2,0.3c-0.9,1-1.7,2-2.4,3.1C216.2,489.8,216.3,490.1,216.7,490.2
					L216.7,490.2z"/>
				<path class="st154" d="M220.5,486.7c0.7,2.2,1,4.5,0.9,6.7c-0.2,5.9-3.5,9.1-7.2,7.3l-0.3-0.2c-2.4-1.3-4.5-4.4-5.6-8.2
					c-0.7-2.2-1-4.5-0.9-6.7c0.2-5.9,3.5-9.1,7.2-7.3l0.3,0.2C217.3,479.9,219.3,482.9,220.5,486.7z M220.4,493
					c0.1-1.7-0.2-3.4-0.7-5c-1-3.3-2.9-6-5-7.2l-0.3-0.1c-3.2-1.6-6,0.8-6.2,5.6c-0.1,1.7,0.2,3.4,0.7,5c1,3.3,2.9,6,5,7.2l0.2,0.2
					C217.4,500.1,220.2,497.7,220.4,493"/>
				<path class="st5" d="M212.5,490.2c0,0.2-0.1,0.2-0.2,0.4c-0.7,0.6-1.7,1.2-2.6,1.6c-0.1-0.2-0.2-0.6-0.2-0.8
					c-0.3-1.1-0.5-2.2-0.6-3.3l0.6,0.2c1,0.4,2,0.9,2.9,1.5C212.4,489.8,212.5,490,212.5,490.2z"/>
				<path class="st5" d="M216.3,491.1c0.3,0.1,0.7,0.2,0.9,0.4c0.7,0.3,1.7,0.9,2.6,1.3c-0.1,1.2-0.3,2.4-0.9,3.5
					c-0.7-1.2-2.4-3.9-2.7-4.5c-0.1-0.2-0.1-0.3-0.2-0.5C216.1,491.1,216.2,491.1,216.3,491.1z"/>
				<path class="st154" d="M220.1,491.2c0,0.5,0,1.1,0,1.6c-0.2,4.7-2.8,7.2-5.8,5.7c-0.1-0.1-0.2-0.1-0.2-0.2
					c-1.7-1-3.3-3.1-4.3-5.6l-0.2-0.4c-0.1-0.2-0.2-0.4-0.2-0.7c-0.3-1.2-0.6-2.5-0.7-3.8v-1.4c0-0.3,0-0.7,0.1-1
					c0-0.2,0-0.2,0.1-0.4c0.7-3.7,3-5.6,5.7-4.3l0.2,0.2c2,1.1,3.7,3.6,4.7,6.7c0.3,1.1,0.5,2.2,0.7,3.2
					C220,490.9,220.1,491.1,220.1,491.2z M219.8,492.6v-0.2c0-0.4,0-0.8,0-1.2v-0.4c-0.1-1-0.3-1.9-0.6-2.8c-0.2-0.5-0.3-1-0.5-1.4
					c-0.1-0.1-0.1-0.2-0.2-0.3c-0.2-0.5-0.4-0.9-0.7-1.3l-0.2-0.2c-0.7-1.1-1.5-2-2.6-2.7l-0.2-0.1l-0.2-0.1l-0.2-0.2l-0.2-0.1
					l-0.2-0.1c-0.8-0.3-1.7-0.3-2.6,0.1l-0.2,0.1c-0.2,0.2-0.5,0.3-0.7,0.6l-0.2,0.2c-0.7,0.9-1.2,1.9-1.2,3.1c0,0.2,0,0.2-0.1,0.4
					c0,0.3-0.1,0.6-0.1,0.9c0,0.3,0,0.7,0,0.9v0.5c0.1,1.2,0.2,2.2,0.6,3.3c0.1,0.2,0.2,0.6,0.2,0.8c0.1,0.2,0.1,0.2,0.2,0.4
					c0.2,0.6,0.5,1.1,0.7,1.6c0.1,0.1,0.1,0.2,0.2,0.3c0.6,1.1,1.4,2.1,2.4,2.8l0.2,0.2c0.2,0.1,0.3,0.2,0.5,0.2l0.2,0.1
					c0.3,0.2,0.7,0.3,1.2,0.4h0.2c0.9,0.1,1.7-0.2,2.4-0.8c0.1-0.1,0.2-0.1,0.2-0.2c0.2-0.2,0.3-0.4,0.5-0.7l0.2-0.2
					c0.6-1.1,0.8-2.2,0.9-3.4L219.8,492.6"/>
				<path class="st5" d="M212.1,487.8L212.1,487.8c-1.1-0.8-2.1-1.7-3-2.6c0.2-1.1,0.6-2.2,1.2-3.1c0.8,1.9,2.1,5,2.2,5.4
					c0,0.1,0,0.2,0,0.2C212.5,487.9,212.4,487.9,212.1,487.8z"/>
				<path class="st154" d="M215.6,489.2c0.1,0.4,0.2,0.7,0.2,1.2c-0.1,1.1-0.6,1.6-1.2,1.2l0,0c-0.5-0.3-0.8-0.8-1-1.4
					c-0.1-0.4-0.2-0.7-0.2-1.2c0.1-1.1,0.6-1.6,1.2-1.2l0,0C215,488.1,215.4,488.6,215.6,489.2z M214.5,491.1c0.5,0.2,1-0.2,1-0.9
					c0-0.2,0-0.6-0.1-0.8c-0.2-0.5-0.4-0.9-0.8-1.2h-0.1c-0.6-0.2-1,0.2-1.1,0.9c0,0.2,0,0.6,0.1,0.8
					C213.7,490.4,214,490.9,214.5,491.1L214.5,491.1"/>
				<path class="st154" d="M214.9,481.6l0.2,0.1c-0.1,2.4-0.2,5-0.1,5.3c0,0.2,0.1,0.2,0.2,0.3c0.1,0.1,0.2,0,0.4-0.1
					c0.7-0.9,1.4-1.8,2-2.9l0.2,0.2c-0.6,1.1-1.3,2.1-2.2,3.1c-0.1,0.1-0.3,0.2-0.4,0.1c-0.2-0.2-0.3-0.3-0.3-0.5
					C214.8,487,214.8,485.1,214.9,481.6z"/>
				<path class="st5" d="M215.2,487.4c-0.1-0.1-0.2-0.2-0.2-0.3c-0.1-0.3,0-2.9,0.1-5.3c1,0.7,1.9,1.7,2.6,2.7c-0.6,1-1.2,2-2,2.9
					C215.3,487.4,215.3,487.4,215.2,487.4z"/>
				<path class="st5" d="M216.2,489.5c0.7-1.1,1.6-2.1,2.4-3.1c0.2,0.5,0.4,1,0.5,1.4c0.2,0.9,0.5,1.9,0.6,2.8
					c-1-0.1-2.1-0.2-3.1-0.5l0,0C216.4,490.1,216.3,489.8,216.2,489.5L216.2,489.5z"/>
				<path class="st154" d="M381.6,492.2l0.2-0.4l0,0v0.4H381.6z"/>
				<path class="st154" d="M375.9,481.7l0.2-0.1c0.2,2.3,0.4,4.7,0.5,5c0.1,0.1,0.2,0.2,0.2,0.1c0.2-0.1,0.3-0.2,0.4-0.5
					c0.3-0.6,1.4-3.7,1.7-4.8l0.2,0.1c-0.3,1-1.5,4.5-1.9,5.1c-0.1,0.2-0.2,0.4-0.5,0.6c-0.2,0.1-0.2,0-0.4-0.2
					C376.4,486.9,376.1,485.1,375.9,481.7z"/>
				<path class="st154" d="M375.4,492.4c0.2-0.1,0.5-0.2,0.6,0.7c-0.1,1.7-0.2,3.3-0.5,5l-0.2,0.1c0.2-1.8,0.6-4.4,0.5-4.9
					c-0.1-0.5-0.2-0.5-0.4-0.4l-0.1,0.1c-0.2,0.1-1.7,2.8-2.8,4.7l-0.2-0.2c0.6-1.1,2.7-4.9,3-5L375.4,492.4z"/>
				<path class="st154" d="M375.2,482.2c0.3,3.3,0.5,5.2,0.3,5.5c-0.1,0.2-0.2,0.4-0.3,0.6c-0.2,0.1-0.3,0.1-0.5,0
					c-1-0.8-1.8-1.7-2.6-2.7l0.2-0.2c0.7,0.9,1.6,1.7,2.4,2.6c0.2,0.1,0.2,0.1,0.4,0s0.2-0.2,0.2-0.4c0-0.3-0.2-2.7-0.4-5.1
					L375.2,482.2z"/>
				<path class="st154" d="M373.6,491.1c0.2-0.1,0.4-0.2,0.6-0.2c0.2,0.1,0.3,0.2,0.3,0.4c0,0.3,0,0.7-0.2,0.9
					c-0.2,0.7-2.2,3.7-2.7,4.6l-0.2-0.2c0.8-1.4,2.5-4.1,2.7-4.7c0.1-0.2,0.1-0.3,0.1-0.5c0,0,0-0.1-0.2-0.2c-0.2,0-0.3,0.1-0.5,0.2
					c-0.7,0.3-2.3,1.2-3.5,1.9v-0.4C371,492.6,372.7,491.6,373.6,491.1z"/>
				<path class="st154" d="M374.3,489.7c0,0.2,0,0.4,0,0.6c-0.1,0.3-0.2,0.6-0.6,0.7l-0.1,0.1c-1.2,0.3-2.3,0.7-3.5,0.8v-0.5
					c1.2-0.2,2.3-0.4,3.4-0.8l0.1-0.1c0.3-0.2,0.4-0.4,0.4-0.5s0-0.1,0-0.2c-0.9-1-1.9-1.9-2.9-2.7c0.1-0.1,0.1-0.2,0.2-0.3
					C374.3,489.2,374.3,489.6,374.3,489.7z"/>
				<path class="st154" d="M382.5,486.1c0,0.3,0.1,0.6,0.1,0.9v0.5c0,1.1-0.2,2.2-0.4,3.2c-0.1,0.4-0.2,0.7-0.3,1.2l-0.2,0.4
					c-0.8,2.4-2.4,4.5-4.6,5.9c-0.2,0.1-0.3,0.2-0.5,0.2c-3.2,1.5-6.2-0.6-6.7-5c-0.1-0.5-0.1-1-0.1-1.5v-0.4
					c0.1-0.9,0.2-1.7,0.4-2.6c0.8-3.3,2.7-6.1,5-7.5c0.2-0.1,0.3-0.2,0.5-0.2c2.9-1.4,5.6,0.2,6.5,3.7l0.1,0.4
					C382.4,485.5,382.5,485.7,382.5,486.1z M382.3,487.2c0-0.3,0-0.6-0.1-0.9c0-0.3-0.1-0.6-0.2-0.9c0-0.2-0.1-0.2-0.1-0.4
					c-0.2-1.1-0.8-2.1-1.7-2.8l-0.2-0.2c-0.2-0.2-0.6-0.4-0.9-0.5l-0.2-0.1c-1-0.3-2-0.2-3,0.2l-0.2,0.1l-0.1,0.1
					c-0.2,0.1-0.3,0.2-0.5,0.2l-0.2,0.1l-0.2,0.1c-1.1,0.7-2,1.7-2.7,2.9l-0.2,0.2c-0.2,0.4-0.5,0.9-0.7,1.4
					c-0.1,0.1-0.1,0.2-0.2,0.3c-0.2,0.7-0.5,1.3-0.7,2.1c-0.2,0.7-0.2,1.4-0.3,2.2v0.4c0,0.4,0,0.7,0,1.2v0.4
					c0.1,1.2,0.6,2.3,1.2,3.2l0.2,0.2c0.2,0.2,0.4,0.4,0.6,0.6l0.2,0.2c0.8,0.5,1.8,0.7,2.7,0.5l0.2-0.1c0.4-0.1,0.7-0.2,1.1-0.4
					c0.2-0.1,0.3-0.2,0.5-0.2s0.3-0.2,0.5-0.3l0.2-0.2c1.1-0.8,1.9-1.8,2.6-3l0.2-0.3c0.3-0.5,0.6-1.1,0.7-1.6
					c0.1-0.2,0.1-0.2,0.2-0.4c0.2-0.5,0.3-0.9,0.4-1.4c0.2-0.9,0.3-1.7,0.3-2.7L382.3,487.2"/>
				<path class="st154" d="M378.1,490.2c0-0.2,0.1-0.5,0.2-0.7c0.2-0.2,2.9-1.7,3.9-2.2v0.5c-1.3,0.7-2.6,1.3-3.8,2.2
					c-0.1,0.1-0.1,0.2-0.2,0.3c0,0.2,0.1,0.2,0.2,0.3c0.9,0.6,1.9,1,3,1.3c-0.1,0.2-0.1,0.2-0.2,0.4c-1-0.3-2-0.7-2.9-1.3
					C378.2,490.6,378.1,490.4,378.1,490.2z"/>
				<path class="st5" d="M378.1,487.7c0.1-0.5,1.4-3.6,2.2-5.5c0.8,0.7,1.4,1.7,1.7,2.8c-1,1-2.2,1.9-3.3,2.8l0,0
					c-0.3,0.2-0.5,0.1-0.5,0C378.1,487.7,378.1,487.7,378.1,487.7z"/>
				<path class="st154" d="M377.4,489c0,0.3,0,0.7-0.1,1.1c-0.2,0.7-0.5,1.2-1.1,1.6l-0.1,0.1c-0.7,0.3-1.3-0.2-1.4-1.2
					c0-0.3,0-0.7,0.1-1.1c0.2-0.7,0.5-1.2,1.1-1.6l0.1-0.1C376.6,487.6,377.3,488.1,377.4,489z M377.1,489.8
					c0.1-0.2,0.1-0.5,0.1-0.7c-0.1-0.7-0.7-1.1-1.2-0.8l-0.1,0.1c-0.5,0.3-0.8,0.8-0.9,1.4c-0.1,0.2-0.1,0.5-0.1,0.7
					c0.1,0.7,0.7,1.1,1.2,0.8l0.1-0.1C376.7,490.9,377.1,490.4,377.1,489.8"/>
				<path class="st5" d="M376,488.3c0.6-0.2,1.2,0.1,1.2,0.8c0.1,0.8-0.3,1.6-1,2.1l-0.1,0.1c-0.6,0.2-1.2-0.1-1.2-0.8
					c0-0.2,0-0.5,0.1-0.7C375.1,489.2,375.4,488.7,376,488.3L376,488.3z"/>
				<path class="st154" d="M383.5,485.4c0.2,1.8,0.1,3.6-0.4,5.3c-0.9,3.9-3.2,7.2-5.9,8.8l-0.6,0.3c-3.8,1.8-7.3-0.7-7.9-5.9
					c-0.2-1.8-0.1-3.6,0.4-5.3c0.9-3.9,3.2-7.3,5.9-8.8c0.2-0.1,0.3-0.2,0.6-0.2C379.5,477.7,383,480.3,383.5,485.4z M382.9,490.4
					c0.4-1.6,0.5-3.2,0.3-4.7c-0.5-4.8-3.8-7.1-7.6-5.3c-0.2,0.1-0.3,0.2-0.6,0.2c-2.6,1.5-4.7,4.7-5.6,8.5
					c-0.4,1.6-0.5,3.2-0.3,4.7c0.5,4.8,3.8,7.1,7.6,5.3c0.2-0.1,0.3-0.2,0.6-0.2C379.8,497.3,382,494.1,382.9,490.4"/>
				<path class="st0" d="M383.2,485.7c-0.5-4.8-3.8-7.1-7.6-5.3c-0.2,0.1-0.3,0.2-0.6,0.2c-2.6,1.5-4.7,4.7-5.6,8.5
					c-0.4,1.6-0.5,3.2-0.3,4.7c0.5,4.8,3.8,7.1,7.6,5.3c0.2-0.1,0.3-0.2,0.6-0.2c2.6-1.5,4.7-4.7,5.6-8.5
					C383.3,488.8,383.4,487.2,383.2,485.7z M382.5,487.5c0,1.1-0.2,2.2-0.4,3.2c-0.1,0.4-0.2,0.7-0.3,1.2v0.4l-0.1-0.1
					c-0.8,2.4-2.4,4.5-4.5,5.9c-0.2,0.1-0.3,0.2-0.5,0.2c-3.2,1.5-6.2-0.6-6.7-5c-0.1-0.5-0.1-1-0.1-1.5v-0.4h0.1
					c0.1-0.9,0.2-1.7,0.4-2.6c0.8-3.3,2.7-6.1,5-7.5c0.2-0.1,0.3-0.2,0.5-0.2c2.9-1.4,5.6,0.2,6.5,3.7l0.1-0.1l0.1,0.4l-0.1,0.1
					c0.1,0.3,0.1,0.7,0.2,1c0,0.3,0.1,0.6,0.1,0.9L382.5,487.5L382.5,487.5"/>
				<path class="st154" d="M382.3,484.7l0.1,0.4l-0.1,0.1V484.7L382.3,484.7z"/>
				<path class="st154" d="M378.6,487.8c1.2-0.8,2.2-1.8,3.3-2.8c0,0.2,0.1,0.2,0.1,0.4c-1.1,1-2.2,2-3.3,2.8l0,0
					c-0.3,0.2-0.5,0.2-0.7-0.1c-0.1-0.2-0.1-0.3-0.1-0.5s0-0.4,2.2-5.6l0.2,0.2c-0.8,1.9-2.1,5-2.2,5.5c0,0.1,0,0.1,0,0.2
					C378.1,487.9,378.3,488,378.6,487.8L378.6,487.8z"/>
				<path class="st154" d="M377.2,491.6l0.2-0.1c0.2-0.1,2.4,1.7,3.2,2.2l-0.2,0.3c-0.9-0.8-1.9-1.5-3-2.2l-0.1,0.1
					c-0.2,0.1-0.3,0.2-0.3,0.7c0.2,1.4,0.4,2.9,0.7,4.3l-0.2,0.2c-0.3-1.5-0.6-3-0.7-4.5C376.8,491.9,377.1,491.6,377.2,491.6z"/>
				<path class="st5" d="M377.3,492L377.3,492c1.2,0.5,2.2,1.2,3.1,2.1c-0.7,1.2-1.6,2.2-2.6,3c-0.3-1.4-0.6-2.8-0.7-4.3
					C377,492.2,377.1,492.1,377.3,492z"/>
				<path class="st5" d="M375.1,487.7c-0.2,0.1-0.2,0.1-0.4,0c-0.9-0.7-1.7-1.7-2.4-2.6c0.7-1.2,1.7-2.2,2.7-2.9
					c0.2,2.3,0.4,4.7,0.4,5.1C375.3,487.5,375.2,487.7,375.1,487.7z"/>
				<path class="st5" d="M374.3,491.6c0,0.2-0.1,0.3-0.1,0.5c-0.2,0.6-1.8,3.2-2.7,4.7c-0.7-0.9-1.2-2.1-1.2-3.2
					c1.2-0.7,2.7-1.5,3.5-1.9c0.2-0.1,0.3-0.2,0.5-0.2C374.3,491.5,374.3,491.5,374.3,491.6z"/>
				<path class="st5" d="M373.7,490.6L373.7,490.6c-1.2,0.4-2.3,0.7-3.5,0.9c0.1-0.7,0.2-1.5,0.3-2.2c0.2-0.7,0.4-1.4,0.7-2.1
					c1.1,0.8,2,1.7,2.9,2.7c0,0.1,0,0.1,0,0.2C374.1,490.2,374,490.3,373.7,490.6z"/>
				<path class="st154" d="M369.8,491.9v-0.4h0.1L369.8,491.9L369.8,491.9z"/>
				<path class="st5" d="M283.9,413.4l-0.1,14.4c0,0-1.2,1-0.8,7.7c0,0-1.8,0-1.9,5.1c-0.2,5.1-1.1,31.3-1.1,31.3
					s-22.1-9.5-56.2-4.2c0,0-8.5,1.4-9.1,5.3s0.2,5,0.2,5l2.9,0.6l10.2-0.1l0.1-1.5c0,0,8.9,0.7,13.9,1.7c5,1.2,10.5,2.6,12,3.5
					l0.1,0.5c0,0-16.4,3.6-18.7,4.1c-2.2,0.5-29.7,7.4-36,9.4c-6.5,2-27.9,9.8-27.9,9.8l-15,6.5c0,0-3.7,2.7-2.2,9.3
					c0.2,0.2,0.3,0.3,0.5,0.4c1.5,1.2,6.3,3.9,14.5,0.4l1.5-2.9c0,0,45.4-14.7,76.3-18.1c31-3.4,29.2-3.6,29.2-3.6s5.3-0.9,6.1,5.5
					c0.7,6.4,3.5,51.8,3.5,51.8s0.9,7.2,9.4,7c8.5-0.2,10.5-3.9,10.5-3.9s0.9-0.7,1.2-5.2l2.5-52.3c0,0,2.2-1.9,6.9-1.2
					c4.7,0.7,22.7,2.8,22.7,2.8s22.4,3,36.1,6.4c13.7,3.5,44.9,12.2,44.9,12.2l1.7,3c0,0,5.6,3.2,9.6,1.6c1.7-0.8,3.6-1.4,5.5-1.9
					c0,0,2.3-8.1-3.4-10.6c-5.7-2.6-37.1-16.6-71.1-23.4l-25.8-5.7c0,0,7.1-4.8,23.1-6c15.9-1.2,13.1-0.7,13.1-0.7v2l3.4-0.5
					c0,0,1.8-5.9-2.1-7.9c-3.9-2-11.6-5-32.6-3.7c-20.9,1.2-29.6,5.1-29.6,5.1L311,441c0,0,0.6-3.4-1.7-5c0,0,0.6-6.6-0.8-8.1
					l-0.7-11.9L283.9,413.4z"/>
				<path class="st17" d="M311.9,477.9l-0.1-5.7c0,0,9.1-4.9,35.3-5.3c26.2-0.5,28.7,5.6,28.7,5.6s1.2,1,0.3,6.2
					c0,0-2.7,0.7-3.2,0.5s-0.2-1.9-0.2-1.9s-22.9-0.3-36.6,5.9"/>
				<path class="st17" d="M280,477.4v-5.6c0,0-9.9-5.2-36.1-5.7c-26.3-0.5-28.7,5.6-28.7,5.6s-1.2,1-0.3,6.2c0,0,2.7,0.7,3.2,0.5
					c0.4-0.2,0.2-1.9,0.2-1.9s22.9-0.3,36.6,5.9"/>
				<path class="st17" d="M311.3,478.9c0,0,42.5,7.8,73.5,16.5c31,8.7,49.8,18.2,49.8,18.2s4,2.1,2.2,10.1c0,0-7.7,4.7-15,0.3
					l-1.7-3c0,0-31.9-9.5-52.7-14c-12.2-2.5-24.5-4.4-37-5.6c-4.7-0.5-9.4-1.2-14.1-1.9l0,0c-1.9-0.3-3.8-0.1-5.6,0.7l-1.2,0.6v1
					l-2.6,53.2c-0.2,3.2-2.4,5.9-5.5,6.6c-1.6,0.3-3.2,0.6-4.9,0.7c-9.9,0.7-10.5-6.3-10.5-6.3s-0.9-15-1.9-34.9
					c-1.1-19.9-2.5-21.4-2.5-21.4l-0.1-0.2l-1.2-0.6c-1.8-0.7-3.7-1-5.6-0.7l0,0c-4.7,0.7-9.4,1.4-14.1,1.9
					c-12.4,1.2-24.8,3.1-37,5.6c-20.8,4.5-52.7,14-52.7,14l-1.7,3c-7.2,4.3-15-0.3-15-0.3c-1.7-7.9,2.2-10.1,2.2-10.1
					s18.9-9.5,49.8-18.2c31-8.7,73.5-16.5,73.5-16.5l0.1,0.6"/>
				<path class="st17" d="M297.2,482.4c10,0.2,14.6-4.4,14.6-4.4l0.1-0.6l-1.1-36.9c0-0.9-0.2-1.9-0.4-2.8c-0.2-0.7-0.4-1.3-0.8-1.8
					c0,0-0.3,5-12.4,5h-2.6c-12,0-12.4-5-12.4-5c-0.4,0.5-0.7,1.2-0.8,1.8c-0.2,0.9-0.4,1.9-0.4,2.8l-1.1,36.9v0.6
					c0,0,4.7,4.7,14.6,4.4H297.2z"/>
				<path class="st17" d="M295,440.8c-10.5,0.2-12-4.7-12-4.7v-4.7c0,0-0.1-2.7,0.8-3.7c0,0-0.1,4.4,11.8,4.4h0.8
					c11.9,0.1,11.8-4.4,11.8-4.4c0.9,0.9,0.8,3.7,0.8,3.7v4.7c0,0-1.5,4.8-12,4.7H295z"/>
				<path class="st17" d="M283.9,428.1l0.1-13.6c0,0,4.8-0.6,12,0.3c7.1,0.9,13,0.2,13,0.2l-0.9,12.5c0,0-0.6,4.9-11.7,4.6
					C285.2,431.8,283.9,428.1,283.9,428.1z"/>
				<path class="st17" d="M290.3,561.2v2.3c0.6,0.3,0.9,0.9,0.9,1.5h8.3c0,0,0.2-1.3,0.6-1.4v-1.8"/>
				<path class="st17" d="M290.3,563.5h-4.7l0.4,29.2h4.7c0,0,0.9-0.6,0.7-3.2l-0.3-24.5"/>
				<path class="st17" d="M285.8,563.5l-0.7,1.3c-1.5,2.8-0.8,1.4-0.9,12.5v0.2c0.2,11-0.2,10.8,1.2,13.6l0.7,1.3"/>
				<path class="st17" d="M300.6,563.5h4.7l-0.4,29.2h-4.8c0,0-0.9-0.6-0.7-3.2l0.3-24.5"/>
				<path class="st17" d="M305.3,563.7l0.7,1.3c1.5,2.8,0.8,1.4,0.9,12.5v0.2c-0.1,11,0.2,10.8-1.2,13.6l-0.7,1.3"/>
				<line class="st17" x1="291.6" y1="582.5" x2="299.4" y2="582.5"/>
				<path class="st153" d="M142.6,538.2c0-7,5.9-11.9,12.9-11.9c1.9-0.2,3.7,0.1,5.5,0.7"/>
				<circle class="st17" cx="432" cy="542.3" r="10.7"/>
				
					<ellipse transform="matrix(3.327793e-02 -0.9994 0.9994 3.327793e-02 -389.4285 678.8584)" class="st17" cx="156.2" cy="540.7" rx="10.7" ry="10.7"/>
				<line class="st17" x1="218" y1="478.4" x2="222.2" y2="478.3"/>
				<path class="st152" d="M232.7,486.9c0,0-2-7.5-3.4-8.2l-0.3,8.4l-6.2,1.7l-0.2-1.7c-0.3-1.9-1.1-3.8-2.2-5.5v-3
					c1.2,1.5,3.2,2.2,5,1.9c3.2-0.5,3.6-1.9,3.6-1.9l-0.8-1.2v0.9h-5.9v-1.5"/>
				<line class="st17" x1="372.7" y1="479.4" x2="368.3" y2="479.2"/>
				<path class="st152" d="M357.5,487.7c0,0,1.9-7.2,3.3-8.1l0.3,8.8l6.6,1.7l0.2-1.7c0.3-2.1,1.2-4,2.3-5.7v-3.2
					c-1.2,1.6-3.2,2.3-5.2,2c-3.4-0.6-3.7-2-3.7-2l0.9-1.3v1h6.2v-1.7"/>
			</g>
		</g>
		<g id="Meanismo_4_">
			<polyline class="st0" points="186.4,434.2 195.1,422.4 196.8,422.7 			"/>
			<path class="st0" d="M200.7,421.5l-1.1,2.1c0,0,1,0.5,1.1,1.1c0.2,4.2-0.1,8.4-0.7,12.5c-1,6.1-2.6,5.9-4.9,5.7
				c-0.8-0.4-1.7-0.6-2.7-0.5c-1.1,0.1-2.1-0.3-2.8-1.2c-0.7-0.6-1.4-1.1-2.3-1.4c-1.4-0.4-1.8-2.6-1.8-2.6s-0.7-1.7,3.1-5.8
				l6.5-7.6c0,0,0.2-1.3,0.4-1.3c0.2,0,1.6,0.2,1.6,0.2l1.1-2.4C198.1,420.3,197.9,420.6,200.7,421.5z"/>
			<path class="st0" d="M196.1,425.2c-0.3-0.1-0.7,0.1-0.9,0.3l-7.3,9.3c0,0-1.9,2.3,0.7,3.8c0.4,0.2,0.8,0.5,1.2,0.7
				c0.4,0.2,0.7,0.6,0.9,1c0,0,0.1,0.3,1.3,0.5c1.1,0.2,2.2,0.4,3.2,0.8c0.8,0.1,1.7-0.1,2.3-0.5c0.2-0.3,0.6-0.6,1.1-4.6
				c0.4-3.3,0.7-8,0.8-9.3c0-0.3-0.2-0.7-0.4-0.8l-0.5-0.2C197.7,425.7,196.9,425.4,196.1,425.2z"/>
			<path class="st0" d="M199.1,430.7c-0.1,0.9-0.5,1.7-1.2,2.2c-1.2,0.9-2.7,1.2-4.1,0.5c-1-0.3-1.7-1.2-1.8-2.3
				c-0.1-0.7,0.1-1.4,0.5-2.1l0.3-0.6"/>
			<path class="st0" d="M197,423.1c0,0-0.4,1.2,0.5,1.4c0.8,0.2,1.4,0.5,2.1-0.3"/>
		</g>
		<path class="st24" d="M206,409.2l-39.1,1.2c0,0-1.8,0.2-2.8,0.2c-0.2-1.4,0.1-2.7,0.1-2.7l39-1.5
			C203.2,406.3,204.5,407.4,206,409.2z"/>
		<polygon class="st151" points="203.2,406.5 200.7,404.3 175.3,405 175.6,406.3 168.2,407.4 		"/>
		<path class="st24" d="M175.1,410.2c0,0,0.5,3.8-1.2,3.7c-2.3,0.2-16.2,1.2-19.1,0c-0.8,0.1-1.2-0.2-1.3-1.8
			c-0.2-2.5-0.3-4.8-0.3-4.8l1.2-11.6c0,0,5.8,2.4,19.5-0.4c0.6,4.1,1.7,11.3,1.7,11.3l-11.6,1.2v3.2L175.1,410.2z"/>
		<path class="st24" d="M173.9,395.1c0.3,0.3-13.5,2.7-19.5,0.4c0,0,0.2-0.5,1.3-0.6c0,0,5.3,2.4,16.6-0.2
			C172.4,394.7,173.4,394.6,173.9,395.1z"/>
		<path class="st24" d="M172.3,394.7L172,383c0,0-12.3,1.2-16.5,0.3c0.1,2.3,0.2,11.5,0.2,11.5S160.8,397.3,172.3,394.7z"/>
		<path class="st24" d="M172.4,382.7l0.2-0.1c0.2-0.1,0.3-0.3,0.3-0.6l-1.3-73.3c0,0-1.7,1.7-3.8,1.2c-2.2,1.2-3.9,2.7-12,2.6
			c-2.9-0.1-3.7-0.2-3.7-0.2l-0.1,1.6c0,0,1.7,2.3,0.7,3.9c-0.5,0.4,1.6,65,1.6,65s0.2,0.5,1.2,0.7c0,0,6,1.2,16.1-0.3
			C171.9,382.8,172.2,382.8,172.4,382.7z"/>
		<path class="st24" d="M143.2,295.5c0,0-3.2,3.3-1.1,9.5c0.9,2.2,1.3,4.1,5.6,6.3c2.7,0.5,10.6,2.3,19.1-1.2
			c4.1-2.9,6.5-5.7,6.5-5.7v1.6c0,0,7.6-1.8,6.2-9.3c-0.1-0.2-0.2-0.5-0.2-0.7c-0.7-2.2-2.3-5.1-9-2.4c-5.6,0.9-9.6,1.9-21-0.8
			C148,292.6,145.2,292.5,143.2,295.5z"/>
		<path class="st24" d="M179,296.1c0,0-4.1,2.7-5.9,5.3c-2.3,2-4.5,4.4-8.2,5.1c-3.7,0.7-11.1,3-19.6,0.1c-1.7-0.9-2.7-1.4-3.3-3.2"
			/>
		<path class="st24" d="M173.2,306.2l-0.1,0.8c0,0-2.2,3.4-5.6,2.7"/>
		<path class="st24" d="M151.4,312.2v1.5c0,0-4.5,0-4.8,2c-0.1,1.2-0.1,1.4-0.1,1.4s-0.3,0.3,1.7,0.3c2.2,0.1,4.7,0.2,4.7,0.2
			s1.1-1.2-0.7-3.9c0-0.9,0.1-1.6,0.1-1.6L151.4,312.2L151.4,312.2z"/>
		<path class="st151" d="M280.5,71.4c0,0-8.6,1.8-15.6,3.2c-5.1,0.3-7.2,5.4-7.2,5.4l-14.2,26.1c-5.1,12.2,7.7,14.4,7.7,14.4
			s12,0.2,24.4,0.2c11,0.3,11.1-7.9,11.1-7.9s2.9-12.8,5.7-28.4C294,69.7,280.5,71.4,280.5,71.4z M287.4,82.2
			c-1.6,7-5.2,26.2-5.2,26.2s-0.2,6.5-7.2,6.1c-8.1,0.2-23.9,0.3-23.9,0.3s-3.7-0.3-3.2-5.7l14.2-25.9c0,0,1.2-3.2,5.7-3.7
			c6.8-1.1,14-3.1,14-3.1S287.9,76,287.4,82.2z"/>
		<path class="st24" d="M247.8,109.2c0,0-1.2,3.7,7.2,2.7c9,0.2,19.9,0.3,19.9,0.3s6.1,1.4,8.4-9.8"/>
		<path class="st151" d="M302.1,85.4c2.9,15.6,5.7,28.4,5.7,28.4s0.2,8.3,11.1,7.9c12.4,0,24.4-0.2,24.4-0.2s12.8-2.2,7.7-14.4
			l-14.2-26.1c0,0-2.2-5.1-7.2-5.4c-7-1.4-15.6-3.2-15.6-3.2S300.6,70.6,302.1,85.4z M312.9,77.4c0,0,7.2,2,14,3.1
			c4.5,0.5,5.7,3.7,5.7,3.7l14.2,25.9c0.5,5.4-3.2,5.7-3.2,5.7s-15.8-0.2-23.9-0.3c-7,0.3-7.2-6.1-7.2-6.1s-3.6-19.3-5.2-26.2
			C306.7,76.9,312.9,77.4,312.9,77.4z"/>
		<path class="st24" d="M346.8,110.1c0,0,1.2,3.7-7.2,2.7c-9,0.2-19.9,0.3-19.9,0.3s-6.1,1.4-8.4-9.8"/>
		<g id="Almofada_cabeça_2_">
			<path class="st0" d="M312.1,81.2c-4.7,0.6-9.6,0.8-14.3,0.7l-2.7,0.2c0,0-2.3,0.1-6.1-0.1l0,0c-2.7-0.1-6.1-0.4-9.8-0.8
				c-4.2-0.5-8.3-1.4-12.4-2.5c-3.2-0.8-6.2-1.9-9.2-3.2c0,0-7.6-3.4-2.7,9.1c0,0,1.5,7.1,0.9,20l0,0c-0.2,4.3-0.6,9.3-1.4,14.9
				c-1.2,8.4-0.1,0.6-0.2,1.4c-0.2,1.2-0.4,2.9-0.5,3.9c-0.1,1.6-2.7,7.6,7.2,3.8c3.4-1.2,7-2.2,10.5-2.7c2-0.4,4.1-0.7,6.1-1.1
				c9-1.4,17.4-2.2,17.4-2.2l2.7-0.2c0,0,7.2,0.7,15.4,2c1.9,0.3,3.9,0.6,5.9,1c4.3,0.7,8.6,1.7,12.7,3.2c10,3.8,7.3-2.2,7.2-3.8
				c0-0.5-0.1-1.1-0.2-1.6c-0.2-1.7-0.5-3.7-0.5-3.7l-0.2-1.5c-0.7-5.5-1.2-11-1.3-16.6c-0.1-4,0-7.9,0.4-11.9
				c0.2-1.7,0.4-3.3,0.7-5c5-12.6-2.7-9.1-2.7-9.1c-2.1,0.8-4.2,1.6-6.1,2.2c-1.7,0.5-3.5,1.1-5.2,1.4c-2.2,0.5-4.2,1-6.1,1.3
				L312.1,81.2z"/>
			<path class="st0" d="M266.8,78.7c0,0,3.1,27.7,11,46.2"/>
			<path class="st0" d="M316.2,124.8c7.9-18.5,11-46.6,11-46.6"/>
		</g>
	</g>
	<path class="st151" d="M250.6,24.3c-6.1,6.8-15.5,36.2-19,49.5c-1.7,6.3-6,16.4-12.5,22.8c-13,12.7-16,17.1-25.2,28.7
		c-15.8,21.6-8,33.1-4.5,43.7c2.7,8,10.3,32,10.3,32c1.3,2.3,7.7,21.8,4.1,47.8c-4.2,29.7-4.8,34.8-6,46.5
		c-5.5,53.4,14.6,60.1,14.6,60.1c15.4,3.2,17.3,1.5,17.3,1.5c-4.7-3.1-11-13-14.2-20.8c-3.7-18.4-0.6-38.8-0.5-47
		c4.3-38.7,6.5-63.8,6.5-68.6c0.2-17-5.7-23.3-10.1-29.9c-2.7-4.2-7.9-15.4-9.1-17.4c-13.4-21.8,3.3-40.2,4.2-41.5
		c1.2-1.9,4.2-5.3,9.7-12.8c10-11.8,10.7-19.9,13.7-27.2c0,0,10.8-43.2,12.8-46.8c3.2-10,5.8-21,16.7-28.8
		C258.6,15.5,255.5,18.7,250.6,24.3z"/>
	<line class="st70" x1="193.6" y1="150.8" x2="401.1" y2="150.8"/>
	<line class="st70" x1="184.2" y1="155.7" x2="184.2" y2="145.9"/>
	<polygon class="st40" points="184.5,150.8 193.7,155.7 193.7,145.9 	"/>
	<line class="st70" x1="410.5" y1="155.7" x2="410.5" y2="145.8"/>
	<polygon class="st40" points="410.2,150.8 401,155.7 401,145.8 	"/>
	<line class="st70" x1="237.7" y1="196.3" x2="355.1" y2="196.3"/>
	<polygon class="st40" points="235,196.3 245,201.2 245,191.2 	"/>
	<line class="st70" x1="357.4" y1="201.2" x2="357.4" y2="191.2"/>
	<line class="st70" x1="234.6" y1="201.1" x2="234.6" y2="191.2"/>
	<polygon class="st40" points="357,196.3 347.1,201.2 347.1,191.2 	"/>
	<line class="st70" x1="181.7" y1="274.2" x2="405.2" y2="274.2"/>
	<line class="st70" x1="180.2" y1="296" x2="180.2" y2="269.9"/>
	<polygon class="st40" points="180,274 189.1,279 189.1,269 	"/>
	<polyline class="st70" points="412.2,281 412.2,269.9 412.2,272.9 412.2,295.9 	"/>
	<polygon class="st40" points="411.8,274.8 402.7,279.8 402.7,269.9 	"/>
	<g>
		<line class="st70" x1="203.8" y1="314.5" x2="395.8" y2="314.5"/>
		<line class="st70" x1="196.9" y1="319.5" x2="196.9" y2="309.5"/>
		<polygon class="st40" points="197.1,314.4 206,319.5 206,309.5 		"/>
		<polyline class="st70" points="396.8,313.7 396.8,309.5 396.8,310.6 396.8,319.5 		"/>
		<polygon class="st40" points="396.7,314.4 387.9,319.5 387.9,309.5 		"/>
	</g>
	<g>
		<line class="st70" x1="194.2" y1="343.7" x2="403.2" y2="343.7"/>
		<line class="st70" x1="187.9" y1="348.6" x2="187.9" y2="338.7"/>
		<polygon class="st40" points="187.9,343.7 197.4,348.6 197.4,338.7 		"/>
		<polyline class="st70" points="404.7,342.9 404.7,338.7 404.7,339.9 404.7,348.6 		"/>
		<polygon class="st40" points="404.7,343.7 395.3,348.6 395.3,338.7 		"/>
	</g>
	<polygon class="st5" points="314.6,200.9 282.7,201.2 282.7,189.7 314.6,191.8 	"/>
	<text transform="matrix(1 0 0 1 284.0281 198.8285)" class="st40 st158 st159">26cm</text>
	<line class="st70" x1="219.4" y1="387.5" x2="369" y2="387.5"/>
	<polygon class="st40" points="212.9,387.5 224.2,392.4 224.2,382.4 	"/>
	<line class="st70" x1="212.2" y1="392.3" x2="212.2" y2="382.4"/>
	<rect x="285.2" y="268.3" class="st5" width="31" height="11.4"/>
	<text transform="matrix(1 0 0 1 286.4421 278.269)" class="st40 st158 st159">52cm</text>
	<rect x="281.4" y="337.5" class="st5" width="33.5" height="12.9"/>
	<rect x="286.4" y="380.2" class="st5" width="32" height="12.9"/>
	<text transform="matrix(0.94 0 0 1 284.0291 347.1444)" class="st40 st158 st159">54cm</text>
	<text transform="matrix(0.94 0 0 1 288.7419 390.8183)" class="st40 st158 st159">34cm</text>
	<rect x="284.5" y="308" class="st5" width="31.9" height="12.9"/>
	<text transform="matrix(0.94 0 0 1 286.7332 317.977)" class="st40 st158 st159">47cm</text>
	<rect x="282.4" y="143.7" class="st5" width="30.6" height="12.5"/>
	<text transform="matrix(1 0 0 1 284.6697 154.0946)" class="st40 st158 st159">53cm</text>
	<polygon class="st40" points="368.9,382.3 368.9,392.3 380.3,387.4 	"/>
	<line class="st70" x1="380.9" y1="382.3" x2="380.9" y2="392.2"/>
</g>
</svg>
