<svg xmlns="http://www.w3.org/2000/svg" viewBox="0 0 408.55 593.95"><defs><style>.cls-1,.cls-11,.cls-13,.cls-14,.cls-16,.cls-17,.cls-18,.cls-19,.cls-2,.cls-20,.cls-22,.cls-23,.cls-24,.cls-26,.cls-27,.cls-28,.cls-29,.cls-3,.cls-30,.cls-5,.cls-6,.cls-8{fill:none;}.cls-1,.cls-2,.cls-26,.cls-27,.cls-28,.cls-29,.cls-3,.cls-30,.cls-5,.cls-6,.cls-8{stroke:#e30613;}.cls-1,.cls-10,.cls-11,.cls-12,.cls-13,.cls-14,.cls-15,.cls-17,.cls-18,.cls-19,.cls-2,.cls-20,.cls-23,.cls-25,.cls-26,.cls-27,.cls-28,.cls-29,.cls-3,.cls-30,.cls-5,.cls-6,.cls-8{stroke-miterlimit:10;}.cls-1{stroke-width:1.52px;}.cls-2{stroke-width:1.8px;}.cls-3{stroke-width:1.62px;}.cls-4,.cls-9{fill:#e30613;}.cls-5{stroke-width:1.56px;}.cls-6{stroke-width:1.58px;}.cls-10,.cls-12,.cls-15,.cls-25,.cls-7{fill:#fff;}.cls-8{stroke-width:1.69px;}.cls-9{isolation:isolate;font-size:12.58px;font-family:Roboto-Medium, Roboto;font-weight:500;}.cls-10,.cls-11,.cls-23,.cls-24,.cls-25{stroke:#000;}.cls-12,.cls-13,.cls-14,.cls-15,.cls-16,.cls-17,.cls-18,.cls-19,.cls-20,.cls-22{stroke:#1d1d1b;}.cls-13{stroke-width:0.75px;}.cls-15,.cls-18,.cls-20,.cls-22{stroke-width:2px;}.cls-16,.cls-22{stroke-linejoin:round;}.cls-16,.cls-17,.cls-19{stroke-width:1.5px;}.cls-18,.cls-19{stroke-linecap:round;}.cls-21{fill:#1d1d1b;}.cls-23,.cls-24,.cls-25{stroke-width:0.5px;}.cls-24{stroke-linejoin:bevel;}.cls-26{stroke-width:1.55px;}.cls-27{stroke-width:1.53px;}.cls-28{stroke-width:1.63px;}.cls-29{stroke-width:1.54px;}.cls-30{stroke-width:1.74px;}</style></defs><title>Estelar lateral </title><g id="Camada_2" data-name="Camada 2"><g id="Camada_1-2" data-name="Camada 1"><line class="cls-1" x1="42.84" y1="359.36" x2="42.84" y2="4.08"/><line class="cls-2" x1="32.07" y1="359.36" x2="146.26" y2="359.36"/><line class="cls-3" x1="36.88" y1="0.81" x2="67.99" y2="0.81"/><polygon class="cls-4" points="42.84 0.81 48.79 12.13 36.88 12.13 42.84 0.81"/><polygon class="cls-4" points="42.84 359.05 36.88 347.73 48.79 347.73 42.84 359.05"/><line class="cls-5" x1="162.32" y1="593.17" x2="385" y2="593.17"/><line class="cls-6" x1="375.52" y1="587.51" x2="375.52" y2="289.31"/><rect class="cls-7" x="349.36" y="428.23" width="59.19" height="15.34"/><line class="cls-8" x1="250.93" y1="284.44" x2="381.47" y2="284.44"/><polygon class="cls-4" points="375.52 284.61 381.47 296.01 369.65 296.01 375.52 284.61"/><polygon class="cls-4" points="375.52 593.17 369.65 581.85 381.47 581.85 375.52 593.17"/><text class="cls-9" transform="translate(352.24 440.12) scale(0.91 1)">69 a 77cm</text><rect class="cls-7" x="22.46" y="209.24" width="40.91" height="13.83"/><text class="cls-9" transform="translate(25.62 220.39)">83cm</text><path class="cls-10" d="M275.83,331.56s18.95,2,23.31,9.06S311.55,356,311.55,356s8,8.72-4,23.23c-4.44,4.86-10.06,12.24-23.64,8.47a88.77,88.77,0,0,0,12-.93l5-11-1.51-9.31-7.71-11.06"/><path class="cls-11" d="M138.92,334.75s5.53,1.17,34.71-11.07c13.83-6.87,38.23-20.29,71.43-12.07,7.13,2.6,22.13,8.88,30.77,19.95C266.36,331,136,336.68,136,336.68Z"/><path d="M298.55,379.85s-17-41.25-63.3-40.07c-17.19-.42-29.76-1.51-50.64,8.13-11.65,4.28-15.09,7.55-49.13,11.24a29.79,29.79,0,0,1,2.35-5.2s18.95,1.51,35.55-5.79c13.91-6,41.75-17.6,60.19-16.85,15.43.59,34,0,53,17.27C291.93,354,304.59,366.27,298.55,379.85Z"/><path class="cls-11" d="M136.82,353.53s20,1.51,38.48-6.54c16-7.21,63.3-28.09,100.95-6.62,0,0,33.87,20.12,21.63,42.92-2.18,3.86-3.52,3.86-3.52,3.86l-59.61,1.93L114.52,392Z"/><path class="cls-7" d="M122.49,333.74l4.69,4.61s3.52,4.2,8.13,13.33a93.53,93.53,0,0,0,8.47,9.23,32.89,32.89,0,0,0,16.69,6.45l9.89,15.93L168.6,385l-9.73-16s-9.14.09-20.54-11.31c-3.69-4.7-6.62-8.64-6.62-8.64l-2.43-4.28-2.18-3.1-3-2.6-4.19-2.85.83-1.67Z"/><polyline class="cls-7" points="117.45 306.66 122.48 333.74 120.72 335.08"/><path class="cls-12" d="M140.68,443.57h.75s1.26-2.34,1-4A2.72,2.72,0,0,1,143,437s.58-.42.42-1.84a2.27,2.27,0,0,1,1.09-2.18s.25.75.92-2.94,2.43-8.8,1.84-9.8l-1.42-.42-7.55,20.79Z"/><path class="cls-10" d="M182.43,354.12,155.18,356,156,367a29.46,29.46,0,0,1,6.12-1.76,9,9,0,0,1,3.77,1.42c2.27,1.34,5.79-.92,8.14-1.09a7.26,7.26,0,0,1,3.94.92s1.67,1.26,4.44-.42,3.94-.25,3.94-.25,1.51-.75,1.59-1.34-4-10-4-10S183.77,354.12,182.43,354.12Z"/><polyline class="cls-10" points="183.1 354.62 181.76 356.8 158.12 358.73 158.62 364.43 156.19 367.11"/><polyline class="cls-10" points="187.55 364.6 185.2 364.51 181.76 356.8"/><path class="cls-10" d="M155.35,356.21l-5.28-.5-7.55-.34-2.26,1.6,6.29,6.37,6.12,3.69,3.44.16Z"/><path class="cls-10" d="M148.48,357.55l1.67,7.8a25,25,0,0,0,5.62-.34l-.67-7.79-6.62.33,1.34-2-7.21-.34-2.27,1.6c-.08.08-.08.25.09.25l8,.5,1.25-2,5.62.5,2.6,2.77.59,5.53,26.57.17"/><path class="cls-13" d="M201.8,398.13l.84-.17s3.94,13,3.77,14.17-2.1,3.61-7.88,6.46-13,.25-13,.25l-4.44-14.34.67-.75s7.13.08,10.82-.84C197.61,401.57,198.7,400.23,201.8,398.13Z"/><path class="cls-14" d="M199.45,395.2a46.54,46.54,0,0,1-8.63,4.11c-3.78,1.09-10.65.75-10.65.75l.5,1-.33.58s4.69,1.76,11.82-.58,8.13-4.28,8.13-4.28l2.43,1.17"/><line class="cls-14" x1="181.09" y1="402.07" x2="181.09" y2="404.59"/><line class="cls-14" x1="180.84" y1="398.55" x2="180.67" y2="400.14"/><line class="cls-14" x1="200.12" y1="396.96" x2="198.7" y2="391.26"/><g id="Base-3"><g id="base-4"><path class="cls-7" d="M300.48,522.13A14.23,14.23,0,0,1,312,528c4.36,6.37,0,14.59,0,14.59-2.35,12.16-12.92,11.57-12.92,11.57-15.51-.17-13.33-18.7-13.33-18.7l-.16-12.91S291.34,526.66,300.48,522.13Z"/><path class="cls-15" d="M226.53,475.26l-.33,1.51s-2-.16-4.36,9.31l24.39,6.12s3.36-11.9-2.93-15l-2.6-.92-3.44.59v-1.93Z"/><path class="cls-7" d="M14.41,520.37a13.76,13.76,0,0,0-11.48,6c-4.36,6.38,0,14.59,0,14.59,2.35,12.16,12.83,11.57,12.83,11.57,15.51-.17,13.33-18.69,13.33-18.69l.16-12.92C29.25,520.79,23.47,524.9,14.41,520.37Z"/><path class="cls-15" d="M89.7,473.84l.34,1.51s2-.17,4.36,9.31l-24.48,6s-3.36-11.9,2.93-15l2.6-.92,3.52.59v-2Z"/><path class="cls-7" d="M153.17,560.11v2.68h-4.78l-1.59,3.61.33,22.22,1.77,4h4.86s.84-.92.75-4.86,0-5,0-5l7.88-.08v7.71s.25,2.26.76,2.26H168a14.23,14.23,0,0,0,2.26-4.86c.34-2.18,0-20.79,0-20.79l-1.76-4.11h-5.19l-.17-1.68Z"/><path class="cls-16" d="M29.84,521.38l-.25,12.07-.42.25a12.09,12.09,0,0,0-3.77-6.12,13.15,13.15,0,0,0-4.78-2.51v-2.44"/><circle class="cls-17" cx="15.84" cy="539.49" r="12.91"/><path class="cls-18" d="M2.93,541.08A22.7,22.7,0,0,1,1,533.28a12.91,12.91,0,0,1,12.83-12.91h.08"/><path class="cls-19" d="M1.08,534c0-7.13,7.3-12.49,14.42-12.49"/><circle class="cls-17" cx="16.09" cy="539.49" r="2.18"/><path class="cls-17" d="M16.26,528.59s.08,7,.33,7.38.59.67,1.43,0S22,530.35,22,530.35"/><path class="cls-17" d="M23.72,532.11s-4.53,5.45-4.53,5.87,0,.84,1.09.92,6.63-1.68,6.63-1.68"/><path class="cls-17" d="M26.91,539.49s-7,0-7.38.33-.67.59,0,1.34,5.53,4,5.53,4"/><path class="cls-17" d="M23.89,546.86s-5.62-4.27-6-4.27-.84.08-.84,1.09,2,6.54,2,6.54"/><path class="cls-17" d="M14.67,528.59s.33,7,.08,7.46-.5.67-1.34.08-4.28-5.36-4.28-5.36"/><path class="cls-17" d="M7.46,532.61s4.86,5.2,4.86,5.62,0,.84-1,.92a56.11,56.11,0,0,1-6.7-1.26"/><path class="cls-17" d="M4.69,541s7-.42,7.46-.09.67.51.08,1.34S7,546.53,7,546.53"/><path class="cls-17" d="M9.13,548.29s4.7-5.37,5.12-5.45.84-.08,1.09.92-.59,6.79-.59,6.79"/><path class="cls-20" d="M285.05,519.37V534l.42.33a12.4,12.4,0,0,1,4.11-5.87,15.56,15.56,0,0,1,4.95-2.18l.16-2.43"/><circle class="cls-17" cx="298.13" cy="541.33" r="13.16"/><path class="cls-17" d="M311.63,543a20.55,20.55,0,0,0,2-7c.51-7.13-3.69-13.25-10.81-13.75"/><path class="cls-17" d="M313.64,536.38c.51-7.12-6.54-12.66-13.58-13.16"/><path class="cls-17" d="M313.06,538.82c-1.09-10.15-9.48-13.92-18-12.41"/><circle class="cls-17" cx="298.22" cy="541.08" r="2.18"/><path class="cls-17" d="M298.63,530.18s-.5,7-.83,7.38-.59.59-1.35-.09-3.6-5.86-3.6-5.86"/><path class="cls-17" d="M291,533.2s4.19,5.7,4.1,6.12-.08.84-1.09.84-6.54-2.1-6.54-2.1"/><path class="cls-17" d="M287.32,540.33s7,.5,7.37.75.59.59-.08,1.34-5.78,3.61-5.78,3.61"/><path class="cls-17" d="M289.83,547.87s5.87-3.94,6.37-3.86.84.17.76,1.18a58.41,58.41,0,0,1-2.43,6.45"/><path class="cls-17" d="M300.31,530.35s-.84,7-.59,7.38.51.67,1.35.16,4.61-5,4.61-5"/><path class="cls-17" d="M307.19,534.71s-5.2,4.86-5.29,5.28-.08.84.93,1,6.79-.84,6.79-.84"/><path class="cls-17" d="M309.37,543.34s-7.05-.83-7.38-.58-.67.5-.17,1.34,5,4.69,5,4.69"/><path class="cls-17" d="M304.5,550.3s-4.27-5.61-4.69-5.7-.84-.17-1.09.76.17,6.87.17,6.87"/><path class="cls-7" d="M81,485.41a14.74,14.74,0,0,1,.67,5.11c-.25,4.87-3,7.3-6.37,5.71l-.25-.17c-2.18-1.26-4.11-3.94-5.11-7.38a14.74,14.74,0,0,1-.67-5.11c.25-4.87,3-7.3,6.37-5.71L76,478C78.05,479.29,79.89,482,81,485.41Zm.26,4.95v-2h0a15.94,15.94,0,0,0-.68-3.35c-1-3.19-2.76-5.7-4.77-6.87l-.26-.17c-2.76-1.34-5.19.5-5.86,4.36l-.09-.09v.42h0a4.65,4.65,0,0,0-.08,1.09v1.43a16.11,16.11,0,0,0,.75,3.94c.09.25.17.42.25.67l.09.42.08-.09c1,2.69,2.6,4.87,4.36,5.79.09.08.17.08.25.17,3.11,1.59,5.79-.92,6-5.7"/><path class="cls-7" d="M76.29,490.36h0a47.63,47.63,0,0,1,2.85,4.69,3,3,0,0,1-2.43.92,35,35,0,0,1-.67-5.11C76,490.27,76,490.19,76.29,490.36Z"/><path class="cls-21" d="M75.28,478.53a31.79,31.79,0,0,1-.25,5.71c-.08.16-.25.25-.33.16a1.89,1.89,0,0,1-.42-.5c-.34-.59-1.6-4.19-1.93-5.2l.17-.08c.58,1.76,1.59,4.44,1.84,4.95.17.25.25.41.34.41s.16,0,.25-.16.17-2.85.17-5.37Z"/><path class="cls-7" d="M74.61,484c-.08,0-.17-.16-.33-.41a44.34,44.34,0,0,1-1.85-4.95,3.35,3.35,0,0,1,2.69-.09c0,2.52-.09,5.12-.17,5.37C74.86,483.9,74.78,484.07,74.61,484Z"/><path class="cls-21" d="M73.69,485.16a1.51,1.51,0,0,1-.08.59c-.09.16-.26.25-.59.08h0a32.63,32.63,0,0,1-3.1-2.68.77.77,0,0,1,.08-.42c1,.92,2,1.84,3.1,2.68h0c.34.08.42.08.42,0v-.25c-.08-.5-1.42-3.61-2.26-5.54l.17-.16C73.69,484.66,73.69,485,73.69,485.16Z"/><path class="cls-21" d="M69.58,482.73l.09-.42.08.08c-.08.09-.08.25-.17.34Z"/><path class="cls-21" d="M70.42,489.85h0l.17.42-.09.09Z"/><path class="cls-21" d="M73.69,487.67a1.18,1.18,0,0,1-.25.76,9.87,9.87,0,0,1-2.52,1.67c-.08-.16-.08-.25-.16-.41a16.13,16.13,0,0,0,2.59-1.6.6.6,0,0,0,.17-.42.59.59,0,0,0-.17-.33,32.79,32.79,0,0,0-2.93-1.6l-.59-.25v-.42l.76.34A20.75,20.75,0,0,1,73.52,487,2.42,2.42,0,0,1,73.69,487.67Z"/><path class="cls-7" d="M74.86,490.27a42.44,42.44,0,0,1-.5,4.61A9.43,9.43,0,0,1,71.85,492a18.71,18.71,0,0,1,2.59-2.52h.17A3.17,3.17,0,0,1,74.86,490.27Z"/><path class="cls-7" d="M75.62,485.66a2.17,2.17,0,0,1,.84,1.26,3,3,0,0,1,.08.84c0,.75-.5,1.25-1.09,1h-.08a2.07,2.07,0,0,1-.84-1.25,2.71,2.71,0,0,1-.09-.84c0-.84.59-1.26,1.18-1Z"/><path class="cls-21" d="M78.39,488.6c.83.41,1.92,1,2.59,1.34v.5c-.83-.42-1.92-1-2.68-1.43a4.64,4.64,0,0,0-.92-.41.18.18,0,0,0-.17.16,1.65,1.65,0,0,0,.17.59A51.92,51.92,0,0,0,80.06,494l-.17.25c-.5-.84-2.34-3.94-2.68-4.61a2.08,2.08,0,0,1-.17-1,.62.62,0,0,1,.26-.51C77.71,488.26,78.05,488.43,78.39,488.6Z"/><path class="cls-7" d="M77.71,488.18a19.33,19.33,0,0,0,3.19.58V490c-.59-.33-1.76-.92-2.6-1.34a2.74,2.74,0,0,0-1.17-.42.5.5,0,0,0-.25.5,4.43,4.43,0,0,0,.16,1c.26.75,2.18,3.77,2.69,4.61-.17.25-.34.42-.51.67-.75-1.34-2.76-4.86-2.93-5s-.5-.25-.59.76c0,.67.51,3.77.67,5.19a2.61,2.61,0,0,1-1.17-.42l-.25-.16a1.89,1.89,0,0,1-.51-.34,45.32,45.32,0,0,0,.51-4.78c-.09-.84-.25-1.09-.51-1.17l-.16-.09c-.25-.08-2,1.85-2.77,2.69a12.78,12.78,0,0,1-.75-1.6,9.81,9.81,0,0,0,2.51-1.67,1.35,1.35,0,0,0,.25-.76,1.15,1.15,0,0,0-.25-.75,13.94,13.94,0,0,0-2.93-1.59l-.76-.34v-.92a2.9,2.9,0,0,1,.09-.92,31.15,31.15,0,0,0,3.1,2.68c.33.17.5.08.58-.08a1.19,1.19,0,0,0,.09-.59c0-.17,0-.42-2.27-5.79a6.41,6.41,0,0,1,.76-.67c.33,1.09,1.59,4.61,1.93,5.2a1.48,1.48,0,0,0,.42.59c.16.08.25,0,.33-.17a32,32,0,0,0,.25-5.7l.26.08.25.17.16.08a36,36,0,0,0,0,5.87,1.43,1.43,0,0,0,.34.59.38.38,0,0,0,.42-.08,19.23,19.23,0,0,0,2.18-3.11,10.58,10.58,0,0,1,.67,1.35c-2.52,2.85-2.52,3.18-2.52,3.35v.67a1.18,1.18,0,0,0,.59.67Zm-.92-.34a3.23,3.23,0,0,0-.17-1.26,2.46,2.46,0,0,0-1-1.42h0c-.67-.34-1.26.25-1.26,1.26a3.2,3.2,0,0,0,.17,1.25,2.53,2.53,0,0,0,1,1.43h.09c.59.42,1.09-.17,1.17-1.26"/><path class="cls-21" d="M74.53,489.1c.17.08.42.33.5,1.17a45.29,45.29,0,0,1-.5,4.78l-.17-.17a42.44,42.44,0,0,0,.5-4.61.89.89,0,0,0-.25-.75h-.17A23.51,23.51,0,0,0,71.85,492c-.09-.08-.09-.25-.17-.33.75-.76,2.51-2.77,2.76-2.69Z"/><path class="cls-21" d="M76.37,489.94a45.44,45.44,0,0,1,2.94,5l-.17.17c-1.09-1.93-2.6-4.62-2.77-4.78h-.08c-.25-.09-.25,0-.34.5s.42,3.19.67,5.11h-.25a39,39,0,0,1-.67-5.19C75.79,489.69,76.21,489.77,76.37,489.94Z"/><path class="cls-21" d="M77.71,487.67c1,.25,2.1.42,3.11.59v.42a13,13,0,0,1-3.19-.59h-.08c-.25-.17-.51-.33-.51-.67a1.71,1.71,0,0,1-.08-.67c0-.17,0-.42,2.51-3.35.09.08.09.25.17.33a29.2,29.2,0,0,0-2.51,3.11.58.58,0,0,0,.42.67Z"/><path class="cls-21" d="M81.65,484.15a21.66,21.66,0,0,1,.93,7c-.25,6-3.52,9.31-7.38,7.46l-.34-.16c-2.43-1.35-4.61-4.53-5.78-8.39a21.61,21.61,0,0,1-.92-7c.25-6,3.52-9.3,7.37-7.46l.34.17C78.3,477.19,80.48,480.3,81.65,484.15Zm0,6.37a14.74,14.74,0,0,0-.67-5.11c-1-3.35-2.93-6.12-5.11-7.38l-.34-.17c-3.35-1.59-6.12.84-6.37,5.71a15.23,15.23,0,0,0,.67,5.11c1,3.35,2.94,6.12,5.12,7.38l.25.17c3.44,1.67,6.29-.84,6.45-5.71"/><path class="cls-7" d="M73.52,487.67c0,.17-.08.25-.17.42a11.93,11.93,0,0,1-2.59,1.6c-.09-.26-.17-.59-.26-.84a22.45,22.45,0,0,1-.67-3.36l.59.26a18.46,18.46,0,0,1,2.93,1.59A.41.41,0,0,1,73.52,487.67Z"/><path class="cls-7" d="M77.3,488.6a3.22,3.22,0,0,1,.92.41c.75.34,1.84.93,2.68,1.43A8.47,8.47,0,0,1,80,494c-.76-1.17-2.43-4-2.68-4.61a3.93,3.93,0,0,1-.17-.59A.18.18,0,0,0,77.3,488.6Z"/><path class="cls-21" d="M81.24,488.76v1.6c-.26,4.86-2.85,7.37-6,5.87-.08-.09-.17-.09-.25-.17a11,11,0,0,1-4.36-5.79l-.17-.42c-.08-.25-.17-.42-.25-.67a15.34,15.34,0,0,1-.67-3.94v-1.51a5.43,5.43,0,0,1,.08-1.09.73.73,0,0,1,.09-.42c.67-3.85,3.1-5.7,5.86-4.36l.26.17c2,1.09,3.77,3.69,4.77,6.88a21.37,21.37,0,0,1,.68,3.35ZM81,490.19v-1.93a17.66,17.66,0,0,0-.58-2.93l-.51-1.51c-.08-.17-.08-.25-.16-.34a5.79,5.79,0,0,0-.76-1.42l-.17-.26A10.18,10.18,0,0,0,76.21,479L76,479l-.17-.08-.25-.17-.25-.08-.17-.09a3.34,3.34,0,0,0-2.68.09l-.17.08a3.05,3.05,0,0,0-.76.67l-.16.17a7.34,7.34,0,0,0-1.35,3.1.79.79,0,0,1-.08.42c0,.34-.08.59-.08.92v1.51a16.39,16.39,0,0,0,.58,3.44c.09.25.17.59.26.84l.16.42c.25.59.51,1.09.76,1.59.08.09.08.25.17.34a11.87,11.87,0,0,0,2.51,2.93l.17.17c.17.08.33.25.5.33l.25.17a6.18,6.18,0,0,0,1.18.42h.16a2.91,2.91,0,0,0,2.44-.84c.08-.08.16-.08.16-.16a4.45,4.45,0,0,0,.51-.68l.16-.25a8.49,8.49,0,0,0,.93-3.52v-.5"/><path class="cls-7" d="M73,485.24h0a29.89,29.89,0,0,1-3.1-2.68,6,6,0,0,1,1.34-3.1c.84,1.93,2.18,5,2.26,5.53v.25C73.44,485.33,73.35,485.41,73,485.24Z"/><path class="cls-21" d="M76.62,486.67a6.06,6.06,0,0,1,.17,1.25c-.08,1.09-.58,1.6-1.26,1.26h-.08a2.52,2.52,0,0,1-1-1.42,6.79,6.79,0,0,1-.16-1.26c.08-1.09.58-1.59,1.34-1.26h0A2.17,2.17,0,0,1,76.62,486.67Zm-1.09,2.09c.51.25,1-.16,1.09-1a3,3,0,0,0-.08-.84,2.13,2.13,0,0,0-.84-1.26h0c-.58-.25-1.09.17-1.09.92a2.68,2.68,0,0,0,.09.84,2.8,2.8,0,0,0,.83,1.34h0"/><path class="cls-21" d="M76,478.87l.17.08c-.08,2.52-.17,5.12-.08,5.45a.35.35,0,0,0,.25.34c.08.08.17,0,.33-.08a23.57,23.57,0,0,0,2.1-2.94l.17.25a20.26,20.26,0,0,1-2.18,3.1c-.09.09-.34.17-.42.09a.86.86,0,0,1-.34-.59A33.87,33.87,0,0,1,76,478.87Z"/><path class="cls-7" d="M76.29,484.82c-.08-.08-.17-.25-.25-.33-.09-.34,0-2.94.08-5.45a9,9,0,0,1,2.6,2.76,14.45,14.45,0,0,1-2.1,2.94C76.46,484.91,76.37,484.91,76.29,484.82Z"/><path class="cls-7" d="M77.3,487a22.23,22.23,0,0,1,2.51-3.1c.17.5.42,1,.59,1.51a16.34,16.34,0,0,1,.58,2.93,12.78,12.78,0,0,1-3.1-.58h0a.9.9,0,0,1-.58-.76Z"/><path class="cls-21" d="M246.65,489.85l.17-.42h0v.42Z"/><path class="cls-21" d="M240.78,479,241,479c.17,2.35.42,4.87.51,5.12.08.08.16.17.25.08a.9.9,0,0,0,.42-.5c.33-.59,1.42-3.77,1.84-4.95l.25.09c-.33,1-1.59,4.61-1.93,5.28a1.13,1.13,0,0,1-.5.59c-.17.08-.25,0-.42-.17A29.81,29.81,0,0,1,240.78,479Z"/><path class="cls-21" d="M240.28,490c.25-.08.5-.17.59.76-.09,1.67-.25,3.35-.5,5l-.26.08a40.27,40.27,0,0,0,.51-5c-.09-.5-.17-.5-.42-.42l-.09.08c-.16.09-1.76,2.85-2.85,4.87l-.16-.25c.67-1.18,2.85-5,3-5.12Z"/><path class="cls-21" d="M240,479.46c.34,3.43.5,5.36.34,5.61a1,1,0,0,1-.42.59.52.52,0,0,1-.51,0,21.28,21.28,0,0,1-2.68-2.77l.17-.25a17.65,17.65,0,0,0,2.51,2.6.36.36,0,0,0,.42,0,.45.45,0,0,0,.25-.42c0-.33-.16-2.85-.42-5.2Z"/><path class="cls-21" d="M238.44,488.68a5.38,5.38,0,0,1,.67-.25.54.54,0,0,1,.33.42,2.19,2.19,0,0,1-.16,1,40.72,40.72,0,0,1-2.77,4.7l-.17-.25a37.29,37.29,0,0,0,2.77-4.78,1.14,1.14,0,0,0,.08-.51s0-.08-.17-.16a1.27,1.27,0,0,0-.5.16c-.75.34-2.35,1.26-3.52,1.93v-.42C235.75,490.19,237.43,489.18,238.44,488.68Z"/><path class="cls-21" d="M239.11,487.17v.59a1.08,1.08,0,0,1-.59.75l-.08.09a26.75,26.75,0,0,1-3.52.83v-.5a22.61,22.61,0,0,0,3.43-.84l.09-.08c.33-.25.42-.42.42-.5v-.17a30.48,30.48,0,0,0-2.94-2.77.66.66,0,0,1,.17-.33C239.11,486.75,239.11,487.09,239.11,487.17Z"/><path class="cls-21" d="M247.49,483.48c0,.34.09.67.09,1v.5a14.66,14.66,0,0,1-.42,3.27c-.09.42-.25.75-.34,1.26l-.17.42a11.4,11.4,0,0,1-4.61,6l-.5.26c-3.35,1.59-6.37-.59-6.88-5.12a10.07,10.07,0,0,1-.08-1.59v-.42a14.64,14.64,0,0,1,.42-2.68,12.72,12.72,0,0,1,5.11-7.72l.51-.25c2.93-1.42,5.7.17,6.62,3.77l.08.42A2.79,2.79,0,0,1,247.49,483.48Zm-.25,1.18a3.66,3.66,0,0,0-.08-.93,3.81,3.81,0,0,0-.17-.92c0-.17-.09-.25-.09-.42a5.51,5.51,0,0,0-1.67-2.85l-.17-.17a2,2,0,0,0-.92-.5l-.25-.08a4.13,4.13,0,0,0-3,.16l-.17.09h-.08l-.51.25-.16.08-.17.09a9.24,9.24,0,0,0-2.77,2.93l-.17.25c-.25.42-.5.93-.75,1.43-.08.08-.08.25-.17.33a21.26,21.26,0,0,0-.67,2.1,19.54,19.54,0,0,0-.33,2.26v2a8.08,8.08,0,0,0,1.25,3.35l.17.25a2.37,2.37,0,0,0,.67.59l.25.17a4.22,4.22,0,0,0,2.85.58l.17-.08a4.27,4.27,0,0,0,1.09-.42l.5-.25c.17-.09.34-.25.51-.34l.17-.17a10.13,10.13,0,0,0,2.68-3l.17-.34a7.14,7.14,0,0,0,.75-1.59l.17-.42a10.64,10.64,0,0,0,.42-1.51,10.45,10.45,0,0,0,.33-2.77l.17-.16"/><path class="cls-21" d="M243.05,487.67a1.15,1.15,0,0,1,.25-.75,31.33,31.33,0,0,1,4-2.26v.5a36.09,36.09,0,0,0-3.94,2.18c-.08.08-.08.25-.16.33a.46.46,0,0,0,.16.34,14.21,14.21,0,0,0,3,1.34c0,.17-.08.25-.17.42a13.8,13.8,0,0,1-2.93-1.34A1.35,1.35,0,0,1,243.05,487.67Z"/><path class="cls-7" d="M243.05,485.16c.08-.5,1.42-3.61,2.26-5.62a5.52,5.52,0,0,1,1.68,2.85,35.59,35.59,0,0,1-3.35,2.85h0c-.34.17-.51.09-.51,0A.08.08,0,0,1,243.05,485.16Z"/><path class="cls-21" d="M242.29,486.5a5,5,0,0,1-.08,1.09,2.4,2.4,0,0,1-1.09,1.59l-.08.09c-.76.33-1.35-.17-1.51-1.18a5.43,5.43,0,0,1,.08-1.09,2.42,2.42,0,0,1,1.09-1.59l.08-.08C241.54,485.07,242.21,485.49,242.29,486.5Zm-.25.84a1.93,1.93,0,0,0,.09-.67.89.89,0,0,0-1.26-.84l-.09.08a2.1,2.1,0,0,0-.92,1.43,2.16,2.16,0,0,0-.08.67.89.89,0,0,0,1.26.84l.08-.09a2,2,0,0,0,.92-1.42"/><path class="cls-7" d="M240.87,485.83a.89.89,0,0,1,1.26.84,2.25,2.25,0,0,1-1,2.09l-.08.09a.89.89,0,0,1-1.26-.84,1.71,1.71,0,0,1,.08-.67,2.46,2.46,0,0,1,.92-1.43Z"/><path class="cls-21" d="M248.58,482.81a14.67,14.67,0,0,1-.42,5.45c-.92,3.94-3.27,7.46-6,9.06l-.59.33c-3.94,1.84-7.46-.75-8-6a14.9,14.9,0,0,1,.42-5.45c.92-4,3.27-7.46,6-9.05a3.7,3.7,0,0,1,.58-.25C244.47,474.93,248,477.53,248.58,482.81Zm-.67,5.11a13.77,13.77,0,0,0,.34-4.86c-.51-4.94-3.94-7.29-7.72-5.45a2.19,2.19,0,0,0-.58.34c-2.69,1.59-4.87,4.86-5.79,8.63a13.6,13.6,0,0,0-.33,4.87c.5,4.94,3.94,7.29,7.71,5.45a3.79,3.79,0,0,1,.59-.26,14.31,14.31,0,0,0,5.78-8.72"/><path class="cls-15" d="M248.33,483.06c-.5-4.94-3.94-7.29-7.71-5.45a2.24,2.24,0,0,0-.59.34c-2.68,1.59-4.86,4.86-5.78,8.63a13.61,13.61,0,0,0-.34,4.87c.5,4.94,3.94,7.29,7.71,5.45a4.27,4.27,0,0,1,.59-.26c2.68-1.59,4.86-4.86,5.78-8.63A16.39,16.39,0,0,0,248.33,483.06Zm-.84,1.85a14.66,14.66,0,0,1-.42,3.27c-.08.42-.25.75-.33,1.25v.42h-.09a11.42,11.42,0,0,1-4.61,6l-.5.25c-3.35,1.59-6.37-.59-6.88-5.11a10.2,10.2,0,0,1-.08-1.6V489h.08a15.55,15.55,0,0,1,.42-2.68c.84-3.35,2.77-6.29,5.12-7.71l.5-.25c2.94-1.43,5.7.16,6.62,3.77l.09-.08.08.42-.08.08c.08.33.08.67.17,1a3.9,3.9,0,0,1,.08.92l-.17.42h0"/><path class="cls-21" d="M247.32,482.06l.09.42-.09.08v-.5Z"/><path class="cls-21" d="M243.64,485.24c1.17-.92,2.26-1.84,3.35-2.85,0,.17.08.25.08.42a30.2,30.2,0,0,1-3.43,2.94h0c-.34.16-.51.16-.68-.09a1.1,1.1,0,0,1-.08-.5c0-.17,0-.42,2.26-5.79l.17.17c-.84,1.93-2.09,5.12-2.26,5.62v.17s.17.08.59-.09Z"/><path class="cls-21" d="M242.13,489.1l.16-.09c.26-.08,2.52,1.68,3.27,2.27l-.16.33a20.74,20.74,0,0,0-3-2.18h-.09c-.25.09-.33.26-.33.76a42.87,42.87,0,0,0,.75,4.44l-.16.17a27,27,0,0,1-.76-4.61C241.71,489.43,242,489.18,242.13,489.1Z"/><path class="cls-7" d="M242.21,489.52h.08a15,15,0,0,1,3,2.18,10.29,10.29,0,0,1-2.68,3,37.56,37.56,0,0,1-.76-4.45C241.87,489.77,242,489.69,242.21,489.52Z"/><path class="cls-7" d="M240,485.16a.4.4,0,0,1-.42,0,18.77,18.77,0,0,1-2.52-2.6,10.53,10.53,0,0,1,2.77-2.94c.25,2.35.42,4.87.42,5.2A.47.47,0,0,1,240,485.16Z"/><path class="cls-7" d="M239.19,489.1c0,.17-.08.33-.08.5-.25.59-1.93,3.36-2.77,4.78a6.46,6.46,0,0,1-1.26-3.35c1.18-.67,2.77-1.6,3.52-1.93a1.14,1.14,0,0,1,.51-.17C239.11,489,239.19,489,239.19,489.1Z"/><path class="cls-7" d="M238.44,488l-.09.08a25.2,25.2,0,0,1-3.43.84,19.54,19.54,0,0,1,.33-2.26,15.65,15.65,0,0,1,.67-2.1,23.35,23.35,0,0,1,3,2.77v.17C238.94,487.67,238.86,487.84,238.44,488Z"/><path class="cls-21" d="M234.58,489.43V489h.08l-.08.42Z"/><path class="cls-7" d="M150.49,405.09l-3.94,18.7s-1.26,1.09-.84,7.88c0,0-1.85,0-2,5.28s-1.09,32-1.09,32S120,459.25,85,464.62c0,0-8.64,1.51-9.31,5.45s.25,5,.25,5l3,.58,10.4-.08.08-1.51a139.27,139.27,0,0,1,14.17,1.76c5.12,1.09,10.73,2.68,12.33,3.52l.08.51-19.12,4.19c-2.26.5-30.35,7.54-37,9.64s-28.59,10-28.59,10L16,510.39s-3.78,2.85-2.18,9.56a1.45,1.45,0,0,0,.58.42c1.6,1.18,6.46,4,14.93.42l1.59-2.93s46.45-15,78.14-18.53S139,495.64,139,495.64s5.45-1,6.29,5.62,3.52,53.07,3.52,53.07.92,7.37,9.64,7.12,10.73-4,10.73-4,.93-.76,1.18-5.37l2.51-53.57s2.27-1.93,7-1.26,23.22,2.94,23.22,2.94,23,3,37,6.54,46,12.49,46,12.49l1.68,3.1s5.7,3.35,9.72,1.68a27.2,27.2,0,0,1,5.54-1.93s2.35-8.3-3.52-10.9-38.07-17-72.78-24l-26.49-5.87s7.38-4.95,23.56-6.12,13.5-.67,13.5-.67v2l3.52-.5s1.84-6-2.18-8-11.91-5.11-33.37-3.77S175,469.4,175,469.4l-.92-32.2s.67-3.44-1.85-5c0,0,.59-6.71-.84-8.38L171,404.67Z"/><path class="cls-20" d="M175.22,475.18l-.08-5.87s9.3-4.94,36.22-5.45,29.34,5.7,29.34,5.7,1.26,1,.34,6.38a15.71,15.71,0,0,1-3.19.5c-.34-.17-.17-2-.17-2s-23.47-.34-37.47,6"/><path class="cls-20" d="M142.61,474.59v-5.7s-10.06-5.36-37.06-5.87-29.34,5.71-29.34,5.71-1.26,1-.34,6.37a15.71,15.71,0,0,0,3.19.5c.33-.17.16-2,.16-2s23.48-.34,37.48,6"/><path class="cls-20" d="M174.63,476.1s43.52,8,75.21,16.94,51.06,18.61,51.06,18.61,4.11,2.18,2.35,10.31c0,0-7.89,4.78-15.35.34l-1.67-3s-32.62-9.72-54-14.34a343.58,343.58,0,0,0-37.81-5.7c-4.86-.5-9.64-1.17-14.42-1.92h0a10.44,10.44,0,0,0-5.78.67l-1.26.58v1l-2.6,54.5a7.31,7.31,0,0,1-5.7,6.7,32.33,32.33,0,0,1-4.95.67C149.57,562.12,149,555,149,555s-.92-15.35-2-35.72-2.52-22-2.52-22l-.08-.26-1.26-.58a10.45,10.45,0,0,0-5.78-.67h0c-4.78.83-9.65,1.42-14.43,1.92a380.07,380.07,0,0,0-37.81,5.71c-21.29,4.61-53.91,14.25-53.91,14.25l-1.67,3.1c-7.47,4.44-15.35-.33-15.35-.33-1.76-8.14,2.27-10.32,2.27-10.32s19.28-9.64,51.06-18.61,75.2-16.94,75.2-16.94l.08.59"/><path class="cls-20" d="M160.21,479.71c10.23.25,15-4.53,15-4.53l.08-.59-1.08-37.72a11.92,11.92,0,0,0-.42-2.94,3.8,3.8,0,0,0-.93-1.84s-.33,5-12.66,5h-2.68c-12.32,0-12.66-5-12.66-5a5.4,5.4,0,0,0-.92,1.84,11.35,11.35,0,0,0-.42,2.94l-1.09,37.72v.59s4.78,4.78,15,4.53Z"/><path class="cls-20" d="M158,437.12c-10.82.17-12.32-4.78-12.32-4.78v-4.86s-.09-2.85.83-3.78c0,0-.08,4.53,12.08,4.45h.84c12.15.08,12.07-4.45,12.07-4.45,1,.93.84,3.78.84,3.78v4.86s-1.51,5-12.33,4.78Z"/><path class="cls-22" d="M146.55,424.12l3.52-19.2s3.44-.42,10.73.51S171,404.17,171,404.17l.17,19.45s-.59,4.95-12,4.69C148,428,146.55,424.12,146.55,424.12Z"/><path class="cls-20" d="M153.17,560.36v2.35a1.79,1.79,0,0,1,.92,1.59h8.47s.17-1.34.59-1.42V561"/><path class="cls-20" d="M153.17,562.71h-4.78l.42,29.85h4.86s.93-.59.76-3.19l-.34-25.07"/><path class="cls-20" d="M148.56,562.71l-.75,1.43c-1.6,2.93-.84,1.51-.93,12.82v.26c.17,11.31-.25,11.06,1.26,14l.76,1.42"/><path class="cls-20" d="M163.65,562.71h4.86l-.5,29.85h-4.86s-.92-.59-.76-3.19l.34-25.07"/><path class="cls-20" d="M168.43,563l.75,1.43c1.6,2.93.84,1.51.93,12.83v.25c-.09,11.32.25,11.06-1.26,14l-.76,1.42"/><line class="cls-20" x1="154.43" y1="582.25" x2="162.48" y2="582.25"/><path class="cls-19" d="M1.92,536.8c0-7.12,6-12.15,13.17-12.15a12.67,12.67,0,0,1,5.61.75"/><circle class="cls-17" cx="298.22" cy="541" r="10.9"/><circle class="cls-17" cx="15.78" cy="539.39" r="10.9"/><line class="cls-20" x1="79.06" y1="475.68" x2="83.42" y2="475.52"/><path class="cls-22" d="M94.15,484.4s-2.1-7.63-3.52-8.46l-.34,8.63-6.37,1.68-.17-1.68A14.18,14.18,0,0,0,81.49,479v-3.1a5.42,5.42,0,0,0,5.11,1.93c3.27-.5,3.61-1.93,3.61-1.93l-.84-1.26v1h-6V474"/><line class="cls-20" x1="237.43" y1="476.61" x2="232.99" y2="476.44"/><path class="cls-22" d="M221.92,485.16s1.93-7.38,3.44-8.22l.33,9.06,6.71,1.76.17-1.76a14.73,14.73,0,0,1,2.35-5.87v-3.27a5.76,5.76,0,0,1-5.37,2c-3.44-.59-3.86-2-3.86-2l.93-1.34v1H233v-1.67"/></g></g><path class="cls-21" d="M168.6,399.31a3.61,3.61,0,0,0-1.93,3.43,16,16,0,0,0,4.28.84s-.84,3.19-19.62,1.34a41.92,41.92,0,0,1,1.42-5.36Z"/><polygon class="cls-12" points="150.82 393.02 144.12 419.01 146.46 419.68 154.34 392.6 150.82 393.02"/><path class="cls-12" d="M142.61,418.84l4.61,1.34L143.61,431a2.2,2.2,0,0,0-1.34,1.51,6.73,6.73,0,0,1-1.26,3.77,2.67,2.67,0,0,0,.42,1.93c.67,1.34-1.17,5.87-1.34,5.87s-4-.84-4-1.35-.51-1.5,1.09-6.2S142.61,418.84,142.61,418.84Z"/><path class="cls-12" d="M129.61,392.09s13.16,2.18,16.18,6.63c1.09.84,0,1.26,8.22.75,10.65-.33,26.74-.92,26.74-.92s3.53,1.26,7.89-3.69c3-1.59,11.82-3.85,12.24-4.78"/><path class="cls-11" d="M89.62,346.9,80.15,275l-3.53-39.32-.92-19.2L71,190.12l-3.27-48,3.85-38.49.93-13.91-.34-48s1.76-31.36,6.54-33.45c5.37-2.94,11-6.8,19,.33,2.68,8,1.84,63.72,1.84,63.72l-.08,14.25.92,4.53S125.08,124,127.6,131.94c1.51,7.63,2.77,12.57-1.68,27.33-2.76,11.82-6.62,28.67-6.62,28.67s-2.6,8.47,2.93,24.48c6.63,15.26,8.89,20.13,8.89,20.13l11.15,21.71,8.81,18.95s7.29,14.17,7.71,25.74c.17,3.77.92,19.62-13.42,31.27a146.71,146.71,0,0,1-15.76,11.24Z"/><path d="M78.72,8.36S73.86,52.12,80.31,81C82.07,83.81,84,86.75,84,86.75s28,25.48,32,41.25c1.17,5.36,2.51,9.47-1,27.83-1.93,9.48-9.73,31.36-.34,61.88,1.76,4.44,5.62,13,5.62,13l30.52,56.51s8.8,18.53,4.53,28.67c1.67-4.86,2.43-3.85,3.18-15.51-1-9.72-2.76-16.85-9.14-29.84-6.7-13.25-18.27-34-18.27-34l-5.62-11.74S115.78,206,118.63,190c3.52-16.18,7.8-33.45,7.8-33.45l2.34-11.66s-.58-9.56-2.85-14.08c-1.67-4.61-12.82-24.15-25-38.15-1.85-2.1-7.13-11.15-6.88-31.44-.92-23-.92-33.62-.92-33.62S93.64,13.13,95,7C93.39,6,89.2,1.48,78.72,8.36Z"/><path class="cls-7" d="M80.31,81a21.06,21.06,0,0,1,4.53-.42,20.69,20.69,0,0,1,4.53.59,15.36,15.36,0,0,1,4.27,1.59,14.67,14.67,0,0,1,3.53,2.85h0a22.43,22.43,0,0,0-3.69-2.51,25.53,25.53,0,0,0-4.11-1.68,19.46,19.46,0,0,0-4.45-.67,40.84,40.84,0,0,0-4.61.25Z"/><path class="cls-23" d="M214.12,385a90.68,90.68,0,0,1,19.2.5"/><path class="cls-23" d="M214.88,374.57s9.22,2.43,17.27.09"/><path class="cls-23" d="M199.87,311.86l-2.35-30.94s-1.17,1,24.74-.42c-.34,3.27-2.94,27.25-2.94,27.25S203.14,311.27,199.87,311.86Z"/><path class="cls-24" d="M185.28,278.41v1.84s-1.26,1.18,16.1.67c17.77-.58,29.18-1.09,29.18-1.09s3.69,0,3.27-1.84c.67.33,0-1.34,0-1.34A362,362,0,0,0,185.28,278.41Z"/><path d="M210.85,265.91c25.07.34,51.57,2.69,53.66,6.46l.09.08a3.89,3.89,0,0,1,1,3,3.94,3.94,0,0,1-1.93,2.69h-.84c-4.69,0-23.3-1.35-25.57-1.51-.42-.26-1.76-.51-6.54-1h-.08c-8.47.17-32.87,1.09-33.2,1.09l-13.58,1.34h-.09c-.16,0-12.66,3.27-19.7,3.27a9.71,9.71,0,0,1-3-.33c-.42-.34-2.93-2.6-.17-6.88l.26-.08a253.25,253.25,0,0,1,49.71-8.14m0-.41A238,238,0,0,0,160.63,274c-3.35,5,.17,7.63.17,7.63a11.91,11.91,0,0,0,3.27.34c7.21,0,19.87-3.36,19.87-3.36l13.58-1.34s24.57-.92,33.12-1.09c7.13.67,6.29,1,6.29,1s20.79,1.51,25.82,1.51a2.51,2.51,0,0,0,1-.09c3.69-2.34,2-5.45,1.09-6.37-2.52-4.52-33.87-6.37-54-6.7Z"/><path class="cls-10" d="M214,384.88s-5.45,11.66-5.2,15.77c.84.92.92,1.34,2.09,1.67s24.57.42,24.57.42,3.52-.58,1.93-5.78-4-11.57-4-11.57L231.9,385l-.25-10.23s.92-.17,1-1.59,5.2-70.68,5.2-70.68L209,302.8l5.28,69.84s-.08,1.6.84,2.1c0,1.17.08,9.47.08,9.47S214,384.55,214,384.88Z"/><path class="cls-10" d="M194.76,299.87s1.34-.17,1.17.5c.08.67-.42,1.85,2.6,2.18s40.24.93,51.06-.5c.92-.17,2.09-.59,1.84-2.1,0-.75-.08-1.51-.08-1.51Z"/><path class="cls-25" d="M220.91,307.58v-4.69s-.33-.59,1.77-.59,4-.08,4-.08,1.68-.34,1.51,1.84a29.86,29.86,0,0,1,.08,3.69Z"/><path class="cls-23" d="M217.73,311.36s-1-3.53,2.93-3.53c4.11-.08,8.81,0,8.81,0a2.52,2.52,0,0,1,2.51,2,9.21,9.21,0,0,1,.17,1.51s-.5.67-2.85.25a8.56,8.56,0,0,1-4.28.33,9.28,9.28,0,0,1-4.27-.33C219.66,311.94,218,311.86,217.73,311.36Z"/><path class="cls-10" d="M173.29,302.3s-6.79,1.76-7.29-2.6c-.17-3,.17-6,4.44-7.38S207,284.44,221.25,285c14.76.16,41.42-.17,63.13,6.62,2.18,1.09,4.61,2.6,3.36,7.38l-1.26,1.34s3.44,2.18-34-1.85C211.52,299.45,214.37,297.27,173.29,302.3Z"/><path class="cls-23" d="M167.59,293.75s-8.72,8.8,20.88,1.68c4.61-.51,52.57-7.13,82.75-1.18,9,1.51,17.77,4.61,16.43.42"/><path class="cls-15" d="M91.55,385.47l5.36,5.95,68.25-.33,3.27-5-9.64-16.43s-18.53-2.1-29.26-25c-5.62-6-1.51-3.52-9.73-8.47l-4.44-47.79-7.88-23-12,1-2.94,24.23L97,339.19a20.22,20.22,0,0,0-8.13,17.27C89.79,367.78,91.55,385.47,91.55,385.47Z"/><path class="cls-14" d="M104,384.38s-5.53-.17-5.78-3.44-1.93-22.8-1.93-22.8-.42-10.73,4.52-11.91l1.26,7.89,5.45,10.56,7.88-1,2.94-11.32-1.18-8.13s1.93,0,4.61,4.61,11.66,18.53,20.46,22.64,11.82,4.95,11.82,4.95l3.86,8.46Z"/><polyline class="cls-14" points="117.04 344.22 116.62 338.1 114.86 319.99 111.42 290.14 104.54 270.11 98.84 270.69 96.08 291.4 99.18 321.42 100.1 339.27 100.77 346.23"/><polygon class="cls-4" points="330.75 593.46 324.79 581.56 336.7 581.56 330.75 593.46"/><line class="cls-26" x1="330.58" y1="592.64" x2="330.58" y2="342.88"/><line class="cls-27" x1="299.05" y1="341.12" x2="336.7" y2="341.12"/><polygon class="cls-4" points="330.75 341.12 336.7 352.94 324.79 352.94 330.75 341.12"/><rect class="cls-7" x="302.32" y="461.52" width="65.48" height="13.83"/><text class="cls-9" transform="translate(305.22 472.21)">45 a 53cm</text><line class="cls-28" x1="95.24" y1="423.03" x2="308.11" y2="423.03"/><line class="cls-29" x1="313.89" y1="358.06" x2="313.89" y2="427.81"/><line class="cls-30" x1="91.13" y1="386.98" x2="91.13" y2="428.9"/><polygon class="cls-4" points="314.31 423.03 303.83 428.9 303.83 417.16 314.31 423.03"/><polygon class="cls-4" points="91.13 423.03 102.7 428.9 102.7 417.16 91.13 423.03"/><polygon class="cls-7" points="217.73 429.07 182.85 430.33 183.02 415.82 217.14 415.82 217.73 429.07"/><text class="cls-9" transform="translate(184.39 427.79)">53cm</text></g></g></svg>