<svg id="Camada_1" data-name="Camada 1" xmlns="http://www.w3.org/2000/svg" viewBox="0 0 369 380.84"><defs><style>.cls-1,.cls-3,.cls-6{fill:#fff;}.cls-1,.cls-2,.cls-4,.cls-5,.cls-6{stroke:#1d1d1b;stroke-miterlimit:10;}.cls-1,.cls-2,.cls-4{stroke-width:1.51px;}.cls-2,.cls-5{fill:#e2e2e2;}.cls-4{fill:#bdbdbd;}.cls-5{stroke-width:1.39px;}.cls-6{stroke-width:0.76px;}</style></defs><title>Rodinha unica </title><path class="cls-1" d="M143.81,55.83l.66-2.84a4.15,4.15,0,0,1-.55-2.74c.22-1.66,2-8.75,2.43-9s2.3-5.1,10-5.89a31.13,31.13,0,0,1,16.21,3.25c.77.61,7.22,2.81,4.47,15.49a21.56,21.56,0,0,0-2.49,5,16.82,16.82,0,0,1-1.23,3.5Z"/><path class="cls-1" d="M135.38,87.45l7.56-31.06s11-8.53,31.36,4.38l-6.38,33S145,86.87,135.38,87.45Z"/><path class="cls-1" d="M175.88,99.35s-35-24.33-61-5.71L96,180.64S104,116.61,175.88,99.35Z"/><path class="cls-1" d="M303.72,252s.29,10.35-12.24,33.58-58.34,55.61-101.89,51.15c-35.63-3.64-64.17-18-85.41-51.63s-12.61-74.49-12.61-74.49Z"/><path class="cls-1" d="M304.3,232.74s2.39,19.42-10.14,42.65-58.87,59.25-101.9,51.15-64.17-18-85.41-51.63-12.61-74.49-12.61-74.49Z"/><path class="cls-2" d="M284.13,171.34C313.38,212.68,300.61,272,255.6,303.85c-37.37,26.44-105.73,15-135-26.37s-8.6-94.81,29.06-123.36C193.61,120.82,254.88,130,284.13,171.34Z"/><path class="cls-3" d="M301.55,244.58s2.56-4.9-1.4-6.58-46.6-10-51.68-11.48-33.34-2.36-26-10.61,69.35-26.63,69.35-26.63l-3.1-5.26c-10.72.79-21,6.08-21,6.08s-8,1.62-4.36-.93,21.24-11,21.24-11l-2.62-3.71a52.87,52.87,0,0,0-6.33,2.62c-2.59,1.36-37.4,21.37-51.72,30s-13.23-4.08-13.23-4.08a495.91,495.91,0,0,1,22.44-61.28l-5.9-.92c-1.62,1-6.85,17.82-6.85,17.82s-2.25,4.68-2.61,3.08,2.3-24,2.3-24l-5.38,0c.77,3.39-1.91,18.26-1.91,18.26s-5.65,38.52-8,45.32-7.41,2-7.41,2S190,192.84,178.9,172.93,159.75,143,159.75,143a15.4,15.4,0,0,0-4.41,2.5c1.36,1,11.66,16.93,12.4,19.5s-1.27,1-1.27,1c-11.9-15.52-18.37-17.9-18.37-17.9l-3.87,3.59c6.83.5,42.73,46,45.73,53.84s-5.38,8.44-5.38,8.44l-54.2-15.8s-19.6-5.44-22-5-2.22,5.59-2.22,5.59,20.94,1.86,31.81,5.45c0,0,10,2.34-7.16,1.66s-19.78-1.76-25.13-.59l-2.74,5.95s7.1-2.4,34.3.45,44.63,6.11,47.36,8.66,2.89,7.14-13.72,12.91-52.68,25.1-58.32,28.48h0l2.5,4.41s23.19-15.48,30.78-16.53c0,0,2.62,1.75-15.06,13.2-16.06,10.41-11.85,10.44-11.85,10.44l3.18,4.7s8.29-11.09,26.45-22.54,40.09-22.8,40.09-22.8,7.49-3.6,8.06,5.72-22.11,64.52-23.22,66a42.73,42.73,0,0,0-2.93,6.37l5.78,1.63s9.5-25.87,10.93-27.35-2.65,27.41-2.56,29.5c0,0,6.39,2.05,7.8,1.2s6.92-71.58,9-74.3,5.44-8.33,11.8,2,32.76,53.88,32.61,64.8l5.18-2.59s-10.82-26-10.87-27.82,15.92,20,16.61,23.42l4.95-3.25s-44.91-60.18-45.23-62.58-.55-10,10.78-6.39,51.77,15.11,60.68,20.71,10.1,7.52,10.1,7.52l2-5.9a132.9,132.9,0,0,0-21.78-10.69l-14.42-5.55S288,240,293.64,241.68C299.74,243.54,301.55,244.58,301.55,244.58Z"/><path class="cls-1" d="M308.15,222s5.12,13.69-11.42,36.51c-16.85,23.24-52.52,52.64-100.46,46.63-39.65-5-59.68-13.52-85.53-46.93C86.4,226.78,96,180.64,96,180.64Z"/><path class="cls-1" d="M289.93,137.75c32.15,45.45,29.28,99.76-17.94,133.16S151.51,296.45,119.36,251,87.67,155,133.17,119.25C181.3,81.5,257.77,92.3,289.93,137.75Z"/><path class="cls-4" d="M278.78,144.74c27.58,39,25.58,84-23.06,118.19-37.36,26.29-99.67,13.27-127.26-25.72s-9-90.64,23.57-115.47C190,92.77,251.2,105.75,278.78,144.74Z"/><path class="cls-5" d="M273,147.05c25.34,35.82,14.6,81.8-21.23,107.15-29.75,21-87.19,14-112.53-21.79S129,152.19,159,129.37C193.86,102.76,247.65,111.22,273,147.05Z"/><path class="cls-6" d="M302.63,209.85s2.56-4.9-1.41-6.57-46.6-10-51.68-11.48-33.33-2.36-26-10.61,69.35-26.64,69.35-26.64l-3.09-5.25c-10.72.79-21,6.07-21,6.07s-8,1.63-4.36-.92,21.24-11,21.24-11l-2.62-3.7a51.09,51.09,0,0,0-6.33,2.62c-2.59,1.36-37.4,21.36-51.72,30s-13.23-4.08-13.23-4.08a497.41,497.41,0,0,1,22.45-61.29l-5.91-.92c-1.61,1-6.85,17.82-6.85,17.82s-2.25,4.69-2.61,3.09,2.31-24,2.31-24l-5.39,0c.78,3.39-1.91,18.27-1.91,18.27s-5.65,38.51-8,45.32-7.42,2-7.42,2S191,158.12,180,138.21s-19.15-29.91-19.15-29.91a15.4,15.4,0,0,0-4.41,2.5c1.36,1,11.66,16.93,12.4,19.49s-1.27,1.05-1.27,1.05c-11.9-15.52-18.37-17.89-18.37-17.89L145.3,117c6.84.49,42.73,46,45.73,53.83s-5.38,8.44-5.38,8.44l-54.19-15.8s-19.61-5.44-22-4.95-2.23,5.59-2.23,5.59S128.13,166,139,169.6c0,0,10,2.35-7.16,1.67s-19.78-1.76-25.14-.6l-2.74,6s7.11-2.41,34.3.45,44.63,6.11,47.36,8.65,2.89,7.15-13.72,12.92-52.67,25.1-58.32,28.47l-1.47,1.2,2.5,4.41s24.66-16.67,32.26-17.72c0,0,2.31,1.3-15.07,13.2s-13.61,12.64-13.61,12.64L122,244s9.44-11.77,27.59-23.22S189.68,198,189.68,198s7.49-3.6,8.07,5.72-22.11,64.51-23.22,66a42,42,0,0,0-2.94,6.37l5.78,1.62s9.5-25.87,10.93-27.34-2.55,25.43-2.46,27.53c0,0,4.16,2.16,5.57,1.31s9.05-69.73,11.15-72.44,5.43-8.33,11.79,2S247.21,264,247.05,275l5.75-2.36S241.33,245,241.28,243.21s16.7,21.86,17.38,25.24l-.13,2.1,6.77-3.86s-47.38-63.48-47.69-65.89-.56-10,10.77-6.38,51.78,15.11,60.68,20.71,10.11,7.52,10.11,7.52l2-5.9a133,133,0,0,0-21.77-10.7L265,200.5s24.13,4.75,29.74,6.46A46.94,46.94,0,0,1,302.63,209.85Z"/></svg>