<svg xmlns="http://www.w3.org/2000/svg" viewBox="0 0 304.36 220.58"><defs><style>.cls-1,.cls-2{fill:#fff;}.cls-10,.cls-2,.cls-9{opacity:0.41;}.cls-10,.cls-11,.cls-3,.cls-4,.cls-5,.cls-6,.cls-7,.cls-8,.cls-9{fill:none;}.cls-10,.cls-11,.cls-4,.cls-5,.cls-6,.cls-7,.cls-8,.cls-9{stroke:#000;stroke-miterlimit:10;}.cls-10,.cls-11,.cls-4{stroke-width:0.48px;}.cls-5,.cls-8,.cls-9{stroke-width:0.96px;}.cls-6{stroke-width:2px;}.cls-11,.cls-8{opacity:0.53;}</style></defs><title>braço esquerdo GTI</title><g id="Camada_2" data-name="Camada 2"><g id="Camada_1-2" data-name="Camada 1"><path class="cls-1" d="M222.25,59.45c.45-13.58,5.15-33.91,15.86-52.89l26.24,8.73s24.37,0,39.27-.59c-3.73,7.88-20.1,43.21-23.25,61.61-3.56,20.8,7.36,60.64,9.44,82.24s-10.51,21.94-10.51,21.94L213.15,50.15S217,56.15,222.25,59.45Z"/><path class="cls-1" d="M155.64,216.2c-1-1.08-1.12-8-1.12-8s.36-2.64,2.32-2.56,2.52,1.44,2.88,2.56,1.16,5.28.6,7.12"/><path class="cls-1" d="M82.1,203.69c3.6.36,14.25,4.63,14.25,4.63s14.4,5.2,16.32,7.88,6.24,2.68,6.24,2.68,11.52.92,24.36.84,18.93.22,23.52-2c7.27-5.64,33.72-9.51,33.72-9.51"/><circle class="cls-1" cx="136.63" cy="213.34" r="3.52"/><path class="cls-1" d="M266.41,123.39c-4.56-3-18.07-13.25-23.43-18.45-1.86-1.85-1.44-12.29-7.12-18.85s-6.43-10.5-6.43-10.5-8.9-9.91-8.32-10.66-7.06-13.71-8-15.75-3.42-3.72-8.94-6.72-47-10.8-71.76-11.16-45.26,5.26-51.9,8.34-7,8-7,8S75.19,55.92,76,59.58a8.1,8.1,0,0,0,3.66,5.22c0,9.18,22.5,6.12,22.5,6.12l37.26,3c9.66.78,30.74,4.72,43.14,8.48s21.36,15.28,27.84,25.84,39,46.08,39,46.08-3.48,15-23.4,20.55-78.24-7.72-78.24-7.72-33-3.08-38.32,14.56,18.88,16.6,29.11,19,60.73,7.76,60.73,7.76,45.4,6.8,52.24,4.4,10.84-15.25,10.84-15.25"/><path class="cls-1" d="M78.81,64.86s.2-.44,16.64-3.92,67.92-.16,85,2.32S207.53,68,207.53,68"/><path class="cls-1" d="M74.41,45s18.09-5.85,55.44-8.64c32.22-2.4,83.22,12.84,83.22,12.84"/><path class="cls-1" d="M243.34,105.22c-.27-7.15,6.91-17,6.91-17a19.15,19.15,0,0,1,15-6.32c9.92.16,11.76,12.64,11.76,12.64s3.4,34.68,4,39.6c2.76,7,1.2,11.28,1.2,11.28,3.84,32.88-4.16,40.08-17,50.16-19.84,15.69-66.84,12.79-66.84,12.79"/><circle class="cls-1" cx="263.57" cy="141.74" r="18.56"/><circle class="cls-1" cx="261.31" cy="104.08" r="4.8"/><circle class="cls-1" cx="271.99" cy="165.1" r="4.8"/><circle class="cls-1" cx="208.15" cy="196.79" r="4.8"/><circle class="cls-1" cx="125.58" cy="187.18" r="4.8"/><path class="cls-1" d="M223.86,82.6c-2.82-7.62-1.54-24-1.54-24"/><path class="cls-1" d="M199.25,208.44,237.85,135l-22.93-20.42s-113.92-24.65-176,0c0,0-30.76,12.27-38.08,46.35-2.64,16.32,7.92,46.56,7.92,46.56s3.44,4.42,20.64.6c16.8-3.7,52.7-4,52.7-4Z"/><path class="cls-2" d="M235.81,170.71S133.21,151.42,94.39,153.1,8.7,168.9.57,163.16"/><path class="cls-2" d="M245,149.5s-157.77-6.88-173.85-7.76c0,0-57.39-3.58-70.59,21.42"/><path class="cls-1" d="M33.85,117.12c17-9.14,63.15,1.82,67.31,2.26s121,4,121,4"/><line class="cls-3" x1="198.37" y1="147.46" x2="193.01" y2="122.48"/><line class="cls-3" x1="148.69" y1="145.27" x2="147.49" y2="121.04"/><line class="cls-3" x1="98" y1="143.01" x2="101.62" y2="119.38"/><path class="cls-2" d="M252,42.44l-10.3,61.19C239,78,247.48,53.85,248.28,51,248.46,50.32,249.86,47.1,252,42.44Z"/><path class="cls-2" d="M258.93,14.87c1.81.18,3.61.31,5.42.42C259.86,25,255.12,35.37,252,42.44l4.68-27.83C257.39,14.71,258.16,14.8,258.93,14.87Z"/><path class="cls-1" d="M251.15,26.82,231.6,92.1c-1.09-8.44,3.61-35.6,7.33-42.92C240.63,45.85,245.68,36.75,251.15,26.82Z"/><path class="cls-1" d="M257.75,14.74c-2.14,4-4.4,8.08-6.6,12.08l3.73-12.47C255.82,14.5,256.78,14.63,257.75,14.74Z"/><path class="cls-1" d="M228.71,42.74c3.54-7.81,8.26-19.66,13.17-33.18a27.42,27.42,0,0,0,5,2.63L236.53,56S224.77,51.46,228.71,42.74Z"/><path class="cls-1" d="M112.29,32.28c-1.37-1.86-14.73-1.73-14.73-1.73s-4.19-1.33-1.35-4.89c25.27-4.39,59.6-6.32,93.6,4.48,9.6,3,18.34,14.6,18.34,14.6"/><path class="cls-1" d="M96.2,25.64c-2.46.42-2.72-2.32-2.72-2.32s-3.18-12.9,1.67-16.5,17.79-5.28,41.59-5.76,50.26,6.54,58,9.12,5.82,7.5,5.82,7.5-2.5,7.38-4,10.68A4.17,4.17,0,0,1,191.94,31"/><path class="cls-1" d="M93.14,10c1.18,1.24,27.22-6.92,53.51-5.64S200.8,15.93,200.8,15.66"/><path class="cls-1" d="M67.73,114.11c34.46-22.29,123,8.21,123,8.21"/><path class="cls-1" d="M69.23,141.74c18,9.35,126.46,5.72,126.46,5.72"/><path class="cls-4" d="M155.75,216.56c-1-1.08-1.12-8-1.12-8S155,205.92,157,206s2.52,1.44,2.88,2.56,1.16,5.28.6,7.12"/><path class="cls-5" d="M82.18,204.05c3.6.36,14.25,4.63,14.25,4.63s14.39,5.21,16.31,7.89,6.24,2.68,6.24,2.68,11.52.92,24.36.84,18.93.22,23.52-2c7.27-5.64,33.72-9.51,33.72-9.51"/><circle class="cls-4" cx="136.7" cy="213.72" r="3.52"/><path class="cls-6" d="M266.48,123.39c-4.56-3-18.07-13.25-23.43-18.45-1.85-1.8-12.24-13.92-17.92-20.48s-17.88-16.32-17.88-16.32a25.7,25.7,0,0,0,1.92-2.1c.58-.78,4.94-14.82,4-16.86s-3.42-3.72-8.94-6.72-47-10.8-71.76-11.16-45.26,5.26-51.9,8.34-7,8-7,8S75.25,55.92,76,59.58a8.1,8.1,0,0,0,3.66,5.22c0,9.18,22.5,6.12,22.5,6.12l37.26,3c9.66.78,30.74,4.72,43.14,8.48S204,97.68,210.43,108.24s39,46.08,39,46.08-3.48,15-23.4,20.51-78.2-7.68-78.2-7.68-33-3.08-38.32,14.56,18.88,16.6,29.11,19,60.73,7.76,60.73,7.76,45.4,6.8,52.24,4.4,10.84-15.25,10.84-15.25"/><path class="cls-6" d="M78.87,64.86s.2-.44,16.64-3.92,67.92-.16,85,2.32S207.59,68,207.59,68"/><path class="cls-7" d="M74.47,45s18.09-5.85,55.44-8.64c32.22-2.4,83.22,12.84,83.22,12.84"/><path class="cls-6" d="M243.4,105.22c-.27-7.15,6.91-17,6.91-17a19.15,19.15,0,0,1,15-6.32c9.92.16,11.76,12.64,11.76,12.64s3.4,34.68,4,39.6c2.76,7,1.2,11.28,1.2,11.28,3.84,32.88-4.16,40.08-17,50.16-19.84,15.69-66.84,12.79-66.84,12.79"/><circle class="cls-6" cx="263.63" cy="141.74" r="18.56"/><circle class="cls-7" cx="261.37" cy="104.08" r="4.8"/><circle class="cls-7" cx="272.05" cy="165.1" r="4.8"/><circle class="cls-7" cx="208.21" cy="196.79" r="4.8"/><circle class="cls-7" cx="125.65" cy="187.18" r="4.8"/><path class="cls-8" d="M224,82.6c-2.82-7.62-1.54-24-1.54-24"/><path class="cls-9" d="M144.86,201.84s-98.6,2.49-115.4,6.22c-17.2,3.82-20.64-.6-20.64-.6S-1.74,177.22.9,160.9C8.22,126.82,39,114.55,39,114.55c62.09-24.65,176,0,176,0"/><path class="cls-9" d="M235.88,170.71S133.28,151.42,94.46,153.1,8.77,168.9.64,163.16"/><path class="cls-10" d="M245.08,149.5s-157.77-6.88-173.85-7.76c0,0-57.39-3.58-70.59,21.42"/><path class="cls-11" d="M33.92,117.06c17-9.14,63.11,1.76,67.31,2.26s121,4.06,121,4.06"/><line class="cls-11" x1="198.44" y1="147.46" x2="193.08" y2="122.48"/><line class="cls-11" x1="148.75" y1="145.27" x2="147.56" y2="121.04"/><line class="cls-11" x1="98.06" y1="143.01" x2="101.68" y2="119.38"/><path class="cls-9" d="M263.63,17c-13.2,27.22-24.2,55.22-21.91,86.64"/><path class="cls-11" d="M243.65,12.85a296.52,296.52,0,0,0-21.31,46.26"/><path class="cls-11" d="M231.67,92.1c-2.24-27.89,11.76-52.89,25.1-75.45"/><path class="cls-11" d="M228.78,42.75C229.92,52.25,236.6,56,236.6,56"/><path class="cls-8" d="M239.43,10.92c-7,15.29-15,31.29-17.08,48.18"/><path class="cls-6" d="M112.35,32.28c-1.37-1.86-14.73-1.73-14.73-1.73s-4.19-1.33-1.35-4.89c25.27-4.39,59.6-6.32,93.6,4.48,9.6,3,18.34,14.6,18.34,14.6"/><path class="cls-6" d="M96.27,25.64c-2.46.42-2.72-2.32-2.72-2.32S90.37,10.38,95.22,6.78,113,1.5,136.81,1s50.26,6.54,58,9.12,5.82,7.5,5.82,7.5-2.5,7.38-4,10.68A4.15,4.15,0,0,1,192,31"/><path class="cls-7" d="M93.2,10c1.18,1.24,27.22-6.92,53.51-5.64s54.15,11.55,54.15,11.28"/><path class="cls-8" d="M257.25,16.56c-14.82,22.65-25.82,48.65-25.62,75.59"/><path class="cls-9" d="M1.38,163.16c24.17-20.16,133.93-15.5,141.87-13.58s105.38,5.12,105.38,5.12"/><path class="cls-8" d="M41.89,113.41c12.18-4.14,41.55-1.41,60.86,0s115.31,5,115.31,5"/><path class="cls-9" d="M279.36,180.49c6.11-.47,9.41-6.59,10.33-12,1.1-6.46-.08-13.19-1.08-19.59-1.1-7-2.43-14-3.69-21-2.55-14.15-5.39-28.63-5.19-43.06C279.9,73.18,284,62,288,51.24c4.38-11.61,9.34-23,14.58-34.25l1-2.29-39.27.59L238.11,6.56,236.9,8.84c-8.23,15.36-14,33.09-14.59,50.61a31.16,31.16,0,0,1-9.1-9.3"/></g></g></svg>