<svg id="Camada_1" data-name="Camada 1" xmlns="http://www.w3.org/2000/svg" viewBox="0 0 369 380.84"><defs><style>.cls-1,.cls-3,.cls-5{fill:#fff;}.cls-1,.cls-2,.cls-3,.cls-4,.cls-5{stroke:#1d1d1b;}.cls-1,.cls-2,.cls-3,.cls-4,.cls-5,.cls-7,.cls-8,.cls-9{stroke-miterlimit:10;}.cls-1{stroke-width:1.33px;}.cls-2{fill:#bdbdbd;stroke-width:1.39px;}.cls-3{stroke-width:1.51px;}.cls-4{fill:#e2e2e2;stroke-width:1.36px;}.cls-5{stroke-width:0.72px;}.cls-11,.cls-6{fill:#dd0613;}.cls-7,.cls-8,.cls-9{fill:none;stroke:#dd0613;}.cls-7{stroke-width:1.58px;}.cls-8{stroke-width:1.56px;}.cls-9{stroke-width:1.59px;}.cls-10{fill:#e0e0e0;}.cls-11{isolation:isolate;font-size:15px;font-family:Roboto-Medium, Roboto;}</style></defs><title>Medidas</title><circle class="cls-1" cx="151.55" cy="211.78" r="101.36"/><circle class="cls-2" cx="152.53" cy="211.78" r="87.57"/><path class="cls-3" d="M89.22,72.38l.45-2.89a4.08,4.08,0,0,1-.74-2.69c.1-1.67,1.41-8.87,1.78-9.17s1.93-5.25,9.52-6.58,15.57,1.53,16.39,2.09,7.4,2.28,5.56,15.13a21.48,21.48,0,0,0-2.12,5.16,16.61,16.61,0,0,1-1,3.58Z"/><path class="cls-3" d="M83.06,104.52,88.39,73S98.71,63.71,120,75.13l-4,33.34S92.66,103.25,83.06,104.52Z"/><path class="cls-3" d="M124.31,113.5S87.61,91.73,63,112.15L50.43,200.28S53.83,135.84,124.31,113.5Z"/><path class="cls-4" d="M217.46,168.89c24.8,35.06,14.29,80.05-20.77,104.84-29.11,20.6-85.3,13.74-110.1-21.31s-10-78.49,19.3-100.81C140,125.56,192.66,133.84,217.46,168.89Z"/><path class="cls-5" d="M241.35,226.22s2.42-4.65-1.33-6.23-36.47-8.21-44.12-9.72c-4.92-1-31.58-2.24-24.67-10.05S236.93,175,236.93,175L234,170c-10.15.74-19.92,5.75-19.92,5.75s-7.55,1.54-4.14-.88,20.13-10.43,20.13-10.43l-2.48-3.51a49.32,49.32,0,0,0-6,2.48c-2.45,1.29-35.43,20.24-49,28.37s-12.54-3.86-12.54-3.86a470.89,470.89,0,0,1,21.26-58.05l-5.59-.88c-1.53.94-6.49,16.89-6.49,16.89s-2.13,4.43-2.47,2.91S168.94,126,168.94,126l-5.1,0c.74,3.21-1.81,17.3-1.81,17.3s-5.35,36.49-7.59,42.93-7,1.87-7,1.87-6.93-9.8-17.42-28.67-18.14-28.33-18.14-28.33a14.64,14.64,0,0,0-4.18,2.37c1.29,1,11,16,11.75,18.46s-1.2,1-1.2,1c-11.28-14.7-17.4-16.95-17.4-16.95l-3.67,3.4c6.47.46,40.48,43.57,43.32,51s-5.1,8-5.1,8L84,183.48s-11.6-4.33-13.9-3.87-2.11,5.3-2.11,5.3,12.86.94,23.17,4.33c0,0,9.47,2.23-6.79,1.58s-11.53-2.31-16.6-1.21l-1.56,7.22s-1.51-3.21,24.25-.51,42.28,5.79,44.87,8.2,2.73,6.77-13,12.24S76.09,238.5,70.74,241.7l-1.39,1.13L71.72,247s19.72-13.76,26.92-14.76c0,0,3,2.44-14.27,12.51C71.49,252.3,75.86,255,75.86,255l2.85,2.73s5.3-9.12,22.5-20,38-21.6,38-21.6,7.1-3.41,7.64,5.42-20.94,61.12-22,62.56-4.3,9.18-4.3,9.18l5.83,2.06s10.17-28.17,11.52-29.57-2.94,29.81-2.85,31.8c0,0,3.93,2,5.27,1.24s9.1-71.77,11.09-74.34,5.15-7.89,11.17,1.9,31.13,52.31,31,62.65l5.44-2.24S188.12,260.7,188.07,259s15.82,20.7,16.47,23.9l5.22-4.82s-43.82-57-44.11-59.26-.53-9.43,10.2-6.05,48.69,13.31,56.08,20a20.94,20.94,0,0,1,4.23,5.08l2.52-8.52s-2.44-.89-14.5-5.53l-13.67-5.25s22.9,4.35,28.18,6.11C241,225.41,241.35,226.22,241.35,226.22Z"/><polygon class="cls-6" points="314.01 313.14 306.92 298.31 321.12 298.31 314.01 313.14"/><line class="cls-7" x1="314.01" y1="306.49" x2="314.01" y2="114.24"/><line class="cls-8" x1="162.3" y1="110.42" x2="321.11" y2="110.42"/><line class="cls-9" x1="151.55" y1="313.14" x2="321.11" y2="313.14"/><polygon class="cls-6" points="314.01 111.47 321.12 126.19 306.92 126.19 314.01 111.47"/><rect class="cls-10" x="275.11" y="201.5" width="78.1" height="16.5"/><text class="cls-11" transform="translate(288.52 214.35)">65mm</text></svg>