<svg xmlns="http://www.w3.org/2000/svg" viewBox="0 0 375.02 625.84"><title>Ativo 1</title><g id="Camada_2" data-name="Camada 2"><g id="Camada_1-2" data-name="Camada 1"><g id="Camada_2-2" data-name="Camada 2"><g id="Camada_1-2-2" data-name="Camada 1-2"><path d="M185.48,494.32,227,488.27a4.22,4.22,0,0,1,2.16-1.58c1.19-.23,16.09-2.27,16.09-2.27h5.31a3.41,3.41,0,0,1,2.12,1.93l1.1,1.9,1.37,2.7.77,11.1s-3.51,1.6-10.94,1.1c0,0-4.56-.46-5.43-1.81l-20,5.76,58.93,12.54,1.24-.77,35.91,7.63.39,1.19a3,3,0,0,1,2.28,1.81l1.13,16.41-6.6,2.05-8.53-1.25a5.29,5.29,0,0,1-3.38-2.47v-4.07L199.76,524.91S183,523.44,180.6,529.2l-2.9,49.07-9.2,1.84-10.58-1.89.35-49.1s1-5.59-17.59-4.61L37.9,538.5V542s.12,2-3.34,2.94a58.1,58.1,0,0,1-9,1.3l-6.41-2.34,1.16-15a3.14,3.14,0,0,1,2.25-3l.92-1.31,36.37-7.16.93,1,60.08-12-18.48-5.9s-1.4,2.29-10.83,1.64c0,0-4.88-.46-5.59-1.54l.69-10.41L90,483.56a4.61,4.61,0,0,1,3.57-1l17.25,2.5a11.43,11.43,0,0,1,4.41,2.19l38.9,6.7" style="fill:#fff;stroke:#000;stroke-miterlimit:10;stroke-width:1.25px"/><path d="M162.85,463s-4.87.79-5.25,1.93l-.3,4.07s-1,.11-1,.66l-.3,3.19s-1.14.23-1.19,1.15-.42,20.27-.42,20.27v3.15a1.47,1.47,0,0,0-.8,1.57c.17,1.14,1.33,4.93,16.83,4.94,0,0,12.79-.08,15.58-4,0,0,.43-.82-.55-2.28l-.75-23.89a3.09,3.09,0,0,0-1.19-1.19l-.19-2.87a2,2,0,0,0-.92-1l-.35-4.11a11.41,11.41,0,0,0-6.52-1.64v1a20.89,20.89,0,0,1-12.64.08Z" style="fill:#fff;stroke:#000;stroke-miterlimit:10;stroke-width:1.25px"/><path d="M156.71,469.6s15,6.16,26.12-.16" style="fill:none;stroke:#000;stroke-miterlimit:10;stroke-width:1.25px"/><path d="M155.47,473.37s.86,4.69,15.31,4.39,13.47-4.93,13.47-4.93" style="fill:none;stroke:#000;stroke-miterlimit:10;stroke-width:1.25px"/><path d="M88,487.87s-.14.84.47,1.05,15.35,3.58,15.35,3.58a2,2,0,0,0,1.44-.48q1.15-1.9,2.11-3.91c1-2,.89-1.67,2-1.31l5.45.54" style="fill:none;stroke:#000;stroke-miterlimit:10;stroke-width:1.25px"/><path d="M227.14,488.4a5.39,5.39,0,0,0,2-.23c1-.33,3.5-1.14,4.74.4a6.7,6.7,0,0,1,1.43,3.06,1.93,1.93,0,0,0,2,1.85h.25c2.05-.34,15.7-2.8,15.7-2.8s1-.41.89-1.31" style="fill:none;stroke:#000;stroke-miterlimit:10;stroke-width:1.25px"/><path d="M316.25,528.05s-1.89.06-3.44,3.76a2.83,2.83,0,0,1-3,1.8l-34-6.83s-1.52,0-1.31-1.84c0,0,.36-2.39,1.06-2.72a20.82,20.82,0,0,0,2.81-2.4" style="fill:none;stroke:#000;stroke-miterlimit:10;stroke-width:1.25px"/><path d="M160.15,562.44l3.62-2.35a2.7,2.7,0,0,1,2.16-.61c1.52.1,3.69.08,3.69.08a4,4,0,0,1,2.71.75l3.65,2.58,1.36-15.84-.38-1.57s-1.59-2.81-4.25-3.33l-7-.18a5.62,5.62,0,0,0-3.41,1.27,20.73,20.73,0,0,0-2.43,2.35l-.05,17.18Z" style="fill:none;stroke:#000;stroke-miterlimit:10;stroke-width:1.25px"/><path d="M22.59,525.89s2.07.9,3.5,4.36a2.92,2.92,0,0,0,3.53,1.55c2.71-.55,33.46-5.62,33.46-5.62s1.3-.5,1.13-1.58-.4-2.76-.4-2.76l-2-2.37-1.26-1.13" style="fill:none;stroke:#000;stroke-miterlimit:10;stroke-width:1.25px"/><polyline points="20.92 526.82 26.38 533.29 25.86 546.23" style="fill:none;stroke:#000;stroke-miterlimit:10;stroke-width:1.25px"/><path d="M26.7,533.29l109.88-18s15.16-2.26,22.56,3.62l-.73,46.26" style="fill:none;stroke:#000;stroke-miterlimit:10;stroke-width:1.25px"/><line x1="174.37" y1="503.69" x2="172.94" y2="542.06" style="fill:none;stroke:#000;stroke-miterlimit:10;stroke-width:1.25px"/><line x1="164.83" y1="503.75" x2="165.06" y2="541.89" style="fill:none;stroke:#000;stroke-miterlimit:10;stroke-width:1.25px"/><polyline points="317.82 528.75 311.9 536.04 312.19 547.53" style="fill:none;stroke:#000;stroke-miterlimit:10;stroke-width:1.25px"/><path d="M311.36,536,199.15,515s-15.62-3-19.27,3.59l-3.41,44.24" style="fill:none;stroke:#000;stroke-miterlimit:10;stroke-width:1.25px"/><line x1="274.51" y1="522.26" x2="183.46" y2="501.92" style="fill:none;stroke:#000;stroke-miterlimit:10;stroke-width:1.25px"/><line x1="219.54" y1="507.07" x2="185.73" y2="499.52" style="fill:none;stroke:#000;stroke-miterlimit:10;stroke-width:1.25px"/><line x1="185.71" y1="497.46" x2="234.12" y2="488.92" style="fill:none;stroke:#000;stroke-miterlimit:10;stroke-width:1.25px"/><line x1="201.14" y1="502.74" x2="254.29" y2="491.14" style="fill:none;stroke:#000;stroke-miterlimit:10;stroke-width:1.25px"/><path d="M239.72,501.31l9.95-2.94s1.73-.71,2.5.37" style="fill:none;stroke:#000;stroke-miterlimit:10;stroke-width:1.25px"/><line x1="120.84" y1="506.17" x2="153.24" y2="499.4" style="fill:none;stroke:#000;stroke-miterlimit:10;stroke-width:1.25px"/><line x1="137.29" y1="502.39" x2="86.99" y2="490.12" style="fill:none;stroke:#000;stroke-miterlimit:10;stroke-width:1.25px"/><path d="M102.16,500.5l-10.28-3.33s-2-.56-2.53.16" style="fill:none;stroke:#000;stroke-miterlimit:10;stroke-width:1.25px"/><polyline points="161.82 579.23 161.86 585.79 162.68 586.54 163.08 615.7 173.05 615.64 172.87 586.15 173.95 585.61 174.02 579.16" style="fill:none;stroke:#000;stroke-miterlimit:10;stroke-width:1.25px"/><path d="M162,580s6.64,3.76,11.82-.07" style="fill:none;stroke:#000;stroke-miterlimit:10;stroke-width:1.25px"/><path d="M174,585.61l5.37.07s2.05-.12,2.06,1.67.33,36,.33,36-.1,1.58-1,1.58l-6.39.09s-1.53-1-1.44-4.81a27.15,27.15,0,0,0,0-4.23" style="fill:none;stroke:#000;stroke-miterlimit:10;stroke-width:1.25px"/><path d="M161.86,585.79h-5.74s-1.84-.36-1.83,2,.11,35.82.11,35.82,0,1.62,2,1.61h5.69a1.29,1.29,0,0,0,1-.77c.21-.65,0-8.72,0-8.72" style="fill:none;stroke:#000;stroke-miterlimit:10;stroke-width:1.25px"/><path d="M299.25,574.5s-3-11.32,6.25-16.8,19.75,2.41,22,6.87,8.16,16.93-3.54,23.73S300.25,581,299.25,574.5Z" style="fill:none;stroke:#000;stroke-miterlimit:10;stroke-width:1.25px"/><path d="M304.25,546.93s.44,2.11,5.11,2.24,5.52-.09,6.16-1.83" style="fill:none;stroke:#000;stroke-miterlimit:10;stroke-width:1.25px"/><line x1="304.22" y1="547.47" x2="304.29" y2="558.85" style="fill:none;stroke:#000;stroke-miterlimit:10;stroke-width:1.25px"/><path d="M315.84,547.4v4.8s-8.53.6-11.35,5.78" style="fill:none;stroke:#000;stroke-miterlimit:10;stroke-width:1.25px"/><path d="M316,550.65a11.44,11.44,0,0,1,8.45-.38c4.89,1.56,9.05,3.7,12.86,11.88a16.1,16.1,0,0,1-.66,15A25.94,25.94,0,0,1,328,585" style="fill:none;stroke:#000;stroke-miterlimit:10;stroke-width:1.25px"/><path d="M307.52,554.76s11.36-3.75,19,4.06,6.58,14.68,6.58,14.68,0,6-3.51,10.32" style="fill:none;stroke:#000;stroke-miterlimit:10;stroke-width:1.25px"/><path d="M316.17,551.5s8.34-1.19,14.28,5a21.92,21.92,0,0,1,6.21,13.13A16.64,16.64,0,0,1,331,582.57" style="fill:none;stroke:#000;stroke-miterlimit:10;stroke-width:1.25px"/><line x1="332.69" y1="577.26" x2="335.61" y2="575.51" style="fill:none;stroke:#000;stroke-miterlimit:10;stroke-width:1.25px"/><path d="M302.08,572.92s-1.24-11.29,8.83-12.81,14.85,9.61,14.85,9.61,4.69,12.77-6.08,16.13C308.16,589.5,302.19,576.57,302.08,572.92Z" style="fill:none;stroke:#000;stroke-miterlimit:10;stroke-width:1.25px"/><path d="M308.15,572.34a7.66,7.66,0,0,0,6.1,7.16c6.19,1.51,5.3-7.19,5.3-7.19s-1.44-5-6.42-5.2S308.15,572.34,308.15,572.34Z" style="fill:none;stroke:#000;stroke-miterlimit:10;stroke-width:1.25px"/><path d="M311.34,567.36s1.29-1.08,1.94-1a6.33,6.33,0,0,1,6.48,3c3.18,5-1.74,9.58-1.74,9.58" style="fill:none;stroke:#000;stroke-miterlimit:10;stroke-width:1.25px"/><polyline points="304.63 563.96 305.62 564.33 310.2 567.39 310.95 566.94 308.16 562.73 306.39 561.8" style="fill:none;stroke:#000;stroke-miterlimit:10;stroke-width:1.25px"/><path d="M308.15,560.9l1.07.81,2.45,3.74s1.14.26,1.2-.55h0l-.87-3.5-.85-1.23" style="fill:none;stroke:#000;stroke-miterlimit:10;stroke-width:1.25px"/><path d="M312.64,559.9l.66,1.13.93,3.83s.76.82,1.28.21l.59-3.42-.26-1.16" style="fill:none;stroke:#000;stroke-miterlimit:10;stroke-width:1.25px"/><path d="M317.51,561.12l.08.86-.56,3.75s.59.77,1.09.62l1.74-2.77.3-.94" style="fill:none;stroke:#000;stroke-miterlimit:10;stroke-width:1.25px"/><path d="M321.41,563.89l-.19.84-1.7,2.43s0,1.15,1.07,1.11l2.9-2" style="fill:none;stroke:#000;stroke-miterlimit:10;stroke-width:1.25px"/><path d="M324.58,568l-3.06,1.64s-.9,1.36.48,1.53l3.88-1" style="fill:none;stroke:#000;stroke-miterlimit:10;stroke-width:1.25px"/><path d="M326.34,572.71l-3.65-.21s-1.6.59-.26,1.5l4.33,1.73" style="fill:none;stroke:#000;stroke-miterlimit:10;stroke-width:1.25px"/><path d="M325.69,580.61l-1.06-1.36-3.14-2.64s-.68-1.46.61-1.23,4.36,2.41,4.36,2.41" style="fill:none;stroke:#000;stroke-miterlimit:10;stroke-width:1.25px"/><path d="M322.25,584.66l-.1-1.62a3.29,3.29,0,0,0-.55-1.55c-.47-.63-1.53-2.25-1.53-2.25s-.63-2.08,1.28-1.24l2.54,3,.83,1.49" style="fill:none;stroke:#000;stroke-miterlimit:10;stroke-width:1.25px"/><path d="M317.7,586.17l.46-1.59a3.94,3.94,0,0,0-.1-2.1l-.65-2.23s.32-1.39,1.46-.53L320.1,582a4.08,4.08,0,0,1,.58,1.58l.12,1.56" style="fill:none;stroke:#000;stroke-miterlimit:10;stroke-width:1.25px"/><path d="M312.91,585.93l.82-1.25a3.17,3.17,0,0,0,.53-1.81l.44-3" style="fill:none;stroke:#000;stroke-miterlimit:10;stroke-width:1.25px"/><polyline points="315.87 579.9 316.84 583.68 316.11 586.2" style="fill:none;stroke:#000;stroke-miterlimit:10;stroke-width:1.25px"/><polyline points="308.27 583.5 309.48 582.48 311.73 578.86" style="fill:none;stroke:#000;stroke-miterlimit:10;stroke-width:1.25px"/><polyline points="313.18 579.47 312.46 583.57 310.59 585.04" style="fill:none;stroke:#000;stroke-miterlimit:10;stroke-width:1.25px"/><polyline points="304.96 579.64 306.34 578.42 309.31 576.56" style="fill:none;stroke:#000;stroke-miterlimit:10;stroke-width:1.25px"/><polyline points="310.57 577.94 308.54 580.79 307.47 582.4" style="fill:none;stroke:#000;stroke-miterlimit:10;stroke-width:1.25px"/><path d="M304.05,578l1.09-.8a6.21,6.21,0,0,1,1.46-.78,13.37,13.37,0,0,0,2-1.1" style="fill:none;stroke:#000;stroke-miterlimit:10;stroke-width:1.25px"/><polyline points="308.21 573.84 305.74 574.05 302.87 574.95" style="fill:none;stroke:#000;stroke-miterlimit:10;stroke-width:1.25px"/><polyline points="302.26 572.99 304.92 572.36 307.88 572.25" style="fill:none;stroke:#000;stroke-miterlimit:10;stroke-width:1.25px"/><polyline points="308.19 571.05 304.14 569.82 302.32 569.74" style="fill:none;stroke:#000;stroke-miterlimit:10;stroke-width:1.25px"/><polyline points="302.59 567.86 304.51 568.08 308.51 569.48" style="fill:none;stroke:#000;stroke-miterlimit:10;stroke-width:1.25px"/><polyline points="309.06 568.49 305.8 565.92 303.79 565.46" style="fill:none;stroke:#000;stroke-miterlimit:10;stroke-width:1.25px"/><path d="M40.42,572.85S43.25,561.5,34,556.13,14.25,558.78,12,563.27s-7.95,17,3.83,23.68S39.52,579.36,40.42,572.85Z" style="fill:none;stroke:#000;stroke-miterlimit:10;stroke-width:1.25px"/><path d="M35.11,545.39s-.43,2.12-5.08,2.31-5.53,0-6.19-1.75" style="fill:none;stroke:#000;stroke-miterlimit:10;stroke-width:1.25px"/><line x1="35.11" y1="545.93" x2="35.18" y2="557.31" style="fill:none;stroke:#000;stroke-miterlimit:10;stroke-width:1.25px"/><path d="M23.49,546v4.81s8.53.49,11.42,5.64" style="fill:none;stroke:#000;stroke-miterlimit:10;stroke-width:1.25px"/><path d="M23.25,549.26A11.43,11.43,0,0,0,14.8,549c-4.87,1.62-9,3.82-12.72,12a16.11,16.11,0,0,0,.85,15,26,26,0,0,0,8.8,7.78" style="fill:none;stroke:#000;stroke-miterlimit:10;stroke-width:1.25px"/><path d="M31.9,553.27S20.5,549.65,13,557.56s-6.41,14.72-6.41,14.72,0,6,3.64,10.28" style="fill:none;stroke:#000;stroke-miterlimit:10;stroke-width:1.25px"/><path d="M23.25,550.12S14.9,549,9,555.31a21.87,21.87,0,0,0-6,13.2A16.71,16.71,0,0,0,8.8,581.38" style="fill:none;stroke:#000;stroke-miterlimit:10;stroke-width:1.25px"/><line x1="7" y1="576.07" x2="4.07" y2="574.36" style="fill:none;stroke:#000;stroke-miterlimit:10;stroke-width:1.25px"/><path d="M37.56,571.35s1.1-11.29-9-12.7-14.72,9.85-14.72,9.85-4.59,12.78,6.28,16C31.68,588,37.49,575,37.56,571.35Z" style="fill:none;stroke:#000;stroke-miterlimit:10;stroke-width:1.25px"/><path d="M31.49,570.85a7.65,7.65,0,0,1-6.07,7.26C19.26,579.7,20,571,20,571s1.38-5,6.37-5.28S31.49,570.85,31.49,570.85Z" style="fill:none;stroke:#000;stroke-miterlimit:10;stroke-width:1.25px"/><path d="M28.25,565.91s-1.3-1.07-2-1A6.35,6.35,0,0,0,19.8,568c-3.11,5,1.87,9.56,1.87,9.56" style="fill:none;stroke:#000;stroke-miterlimit:10;stroke-width:1.25px"/><polyline points="34.9 562.43 33.91 562.81 29.38 565.93 28.62 565.48 31.35 561.24 33.12 560.29" style="fill:none;stroke:#000;stroke-miterlimit:10;stroke-width:1.25px"/><path d="M31.34,559.41l-1.06.82L27.88,564s-1.13.27-1.21-.54h0l.83-3.5.84-1.24" style="fill:none;stroke:#000;stroke-miterlimit:10;stroke-width:1.25px"/><path d="M26.84,558.5l-.59,1.14-.91,3.8s-.76.84-1.29.23l-.63-3.41.25-1.16" style="fill:none;stroke:#000;stroke-miterlimit:10;stroke-width:1.25px"/><path d="M22,559.74l-.07.87.6,3.74s-.57.78-1.08.63l-1.77-2.75-.31-.94" style="fill:none;stroke:#000;stroke-miterlimit:10;stroke-width:1.25px"/><path d="M18.12,562.57l.2.83,1.74,2.41s0,1.15-1.06,1.12l-2.92-2" style="fill:none;stroke:#000;stroke-miterlimit:10;stroke-width:1.25px"/><path d="M15,566.67l3.08,1.6s.91,1.35-.46,1.54l-3.89-.91" style="fill:none;stroke:#000;stroke-miterlimit:10;stroke-width:1.25px"/><path d="M13.25,571.5l3.65-.22s1.61.56.28,1.49l-4.26,1.73" style="fill:none;stroke:#000;stroke-miterlimit:10;stroke-width:1.25px"/><path d="M14.05,579.34l1-1.38,3.11-2.68s.66-1.46-.62-1.22-4.29,2.44-4.29,2.44" style="fill:none;stroke:#000;stroke-miterlimit:10;stroke-width:1.25px"/><path d="M17.56,583.34l.08-1.62a3.46,3.46,0,0,1,.53-1.56c.47-.63,1.51-2.27,1.51-2.27s.6-2.08-1.3-1.22l-2.5,3-.81,1.5" style="fill:none;stroke:#000;stroke-miterlimit:10;stroke-width:1.25px"/><path d="M22.1,584.8l-.48-1.59a4,4,0,0,1,.08-2.09l.62-2.25s-.33-1.39-1.47-.51l-1.19,2.33a4.15,4.15,0,0,0-.57,1.6l-.1,1.55" style="fill:none;stroke:#000;stroke-miterlimit:10;stroke-width:1.25px"/><path d="M26.89,584.5l-.84-1.24a3.26,3.26,0,0,1-.55-1.81l-.47-3" style="fill:none;stroke:#000;stroke-miterlimit:10;stroke-width:1.25px"/><polyline points="23.85 578.5 22.94 582.3 23.69 584.81" style="fill:none;stroke:#000;stroke-miterlimit:10;stroke-width:1.25px"/><polyline points="31.5 582.01 30.28 581.01 27.99 577.41" style="fill:none;stroke:#000;stroke-miterlimit:10;stroke-width:1.25px"/><polyline points="26.54 578.04 27.31 582.13 29.2 583.58" style="fill:none;stroke:#000;stroke-miterlimit:10;stroke-width:1.25px"/><polyline points="34.76 578.11 33.37 576.91 30.37 575.08" style="fill:none;stroke:#000;stroke-miterlimit:10;stroke-width:1.25px"/><polyline points="29.13 576.48 31.19 579.3 32.29 580.91" style="fill:none;stroke:#000;stroke-miterlimit:10;stroke-width:1.25px"/><path d="M35.66,576.42l-1.11-.78a6.25,6.25,0,0,0-1.47-.77,15.37,15.37,0,0,1-2-1.07" style="fill:none;stroke:#000;stroke-miterlimit:10;stroke-width:1.25px"/><polyline points="31.44 572.35 33.92 572.53 36.79 573.4" style="fill:none;stroke:#000;stroke-miterlimit:10;stroke-width:1.25px"/><polyline points="37.38 571.43 34.72 570.83 31.76 570.76" style="fill:none;stroke:#000;stroke-miterlimit:10;stroke-width:1.25px"/><polyline points="31.42 569.57 35.46 568.28 37.29 568.17" style="fill:none;stroke:#000;stroke-miterlimit:10;stroke-width:1.25px"/><polyline points="36.99 566.3 35.07 566.54 31.09 568" style="fill:none;stroke:#000;stroke-miterlimit:10;stroke-width:1.25px"/><polyline points="30.52 567.01 33.76 564.4 35.76 563.92" style="fill:none;stroke:#000;stroke-miterlimit:10;stroke-width:1.25px"/><polyline points="181.67 597.91 182.42 597.91 182.51 612.16 181.86 612.17" style="fill:none;stroke:#000;stroke-miterlimit:10;stroke-width:1.25px"/><polyline points="153.98 598.4 153.22 598.4 153.3 612.66 153.95 612.65" style="fill:none;stroke:#000;stroke-miterlimit:10;stroke-width:1.25px"/><path d="M242.25,503s0,1.95,5,2,4.54-1.82,4.54-1.82" style="fill:none;stroke:#000;stroke-miterlimit:10;stroke-width:1.25px"/><line x1="242.17" y1="503.19" x2="242.22" y2="511.64" style="fill:none;stroke:#000;stroke-miterlimit:10;stroke-width:1.25px"/><path d="M252.19,503.24l.2,5.14a18.51,18.51,0,0,0-4.65,4.69" style="fill:none;stroke:#000;stroke-miterlimit:10;stroke-width:1.25px"/><path d="M242.08,506.28a11.28,11.28,0,0,0-3.66,4.57" style="fill:none;stroke:#000;stroke-miterlimit:10;stroke-width:1.25px"/><path d="M252.36,503.83l13.8,5s4.13,1.93,5.15,9.08" style="fill:none;stroke:#000;stroke-miterlimit:10;stroke-width:1.25px"/><path d="M252.39,508.38s3.69-2.46,7.33-1.91" style="fill:none;stroke:#000;stroke-miterlimit:10;stroke-width:1.25px"/><path d="M255.84,514.57s2.31-3.46,6.08-3.26a7.78,7.78,0,0,1,7.08,6" style="fill:none;stroke:#000;stroke-miterlimit:10;stroke-width:1.25px"/><line x1="257.78" y1="512.88" x2="258.01" y2="514.99" style="fill:none;stroke:#000;stroke-miterlimit:10;stroke-width:1.25px"/><polyline points="259.54 511.9 259.08 513.09 259.23 515.28" style="fill:none;stroke:#000;stroke-miterlimit:10;stroke-width:1.25px"/><polyline points="261.59 511.53 260.79 512.59 259.99 515.41" style="fill:none;stroke:#000;stroke-miterlimit:10;stroke-width:1.25px"/><polyline points="263.19 511.7 262.14 512.93 261.37 515.65" style="fill:none;stroke:#000;stroke-miterlimit:10;stroke-width:1.25px"/><polyline points="261.95 515.84 263.29 513.7 264.93 512.39" style="fill:none;stroke:#000;stroke-miterlimit:10;stroke-width:1.25px"/><polyline points="266.33 513.27 264.49 514.51 263.36 516.1" style="fill:none;stroke:#000;stroke-miterlimit:10;stroke-width:1.25px"/><polyline points="264.5 516.6 266.1 515.33 267.75 514.93" style="fill:none;stroke:#000;stroke-miterlimit:10;stroke-width:1.25px"/><polyline points="266.5 516.93 267.23 516.49 268.52 516.4" style="fill:none;stroke:#000;stroke-miterlimit:10;stroke-width:1.25px"/><path d="M241.13,531.23a9.69,9.69,0,0,0,7.31,2.56" style="fill:none;stroke:#000;stroke-miterlimit:10;stroke-width:1.25px"/><path d="M244.35,531.64s.48,1.63,4,2.22a16.26,16.26,0,0,0,8.59,3.67c5.28.58,7.68-2.61,7.68-2.61" style="fill:none;stroke:#000;stroke-miterlimit:10;stroke-width:1.25px"/><path d="M249.84,532.66s1.47,2.82,6.86,5" style="fill:none;stroke:#000;stroke-miterlimit:10;stroke-width:1.25px"/><path d="M247.42,532.11a7.28,7.28,0,0,0,.91,1.75" style="fill:none;stroke:#000;stroke-miterlimit:10;stroke-width:1.25px"/><path d="M91.64,512.22c.13-2.22-1.62-6.08-1.62-6.08l.19-3.9s.45,2.06,5.36,1.77,4-2.18,4-2.18l.4,5.63a8,8,0,0,1-.52,3.2" style="fill:none;stroke:#000;stroke-miterlimit:10;stroke-width:1.25px"/><path d="M89.93,503.76l-7.94.81s-3.54,1.14-3.23,10" style="fill:none;stroke:#000;stroke-miterlimit:10;stroke-width:1.25px"/><path d="M85.91,513.21s-.08-7-3.92-8.64" style="fill:none;stroke:#000;stroke-miterlimit:10;stroke-width:1.25px"/><path d="M99.93,502.61l1.32-.11s3.51.88,4.19,6.84" style="fill:none;stroke:#000;stroke-miterlimit:10;stroke-width:1.25px"/><path d="M90,506.14a8.7,8.7,0,0,0-2.47-2" style="fill:none;stroke:#000;stroke-miterlimit:10;stroke-width:1.25px"/><path d="M84.25,513.5s-.15-4.22-2.71-5.65-2.45,6.65-2.45,6.65" style="fill:none;stroke:#000;stroke-miterlimit:10;stroke-width:1.25px"/><path d="M80,509.22l1.85.82a3.08,3.08,0,0,1,1.07,1.62c.21,1,.39,2,.39,2" style="fill:none;stroke:#000;stroke-miterlimit:10;stroke-width:1.25px"/><path d="M79.25,512.21a4.46,4.46,0,0,1,2.74.94l.29.72" style="fill:none;stroke:#000;stroke-miterlimit:10;stroke-width:1.25px"/><path d="M82.25,532.5s1,1.91,2.29,2.15,5.89-.5,5.89-.5a9.09,9.09,0,0,0,1.61-2.9" style="fill:none;stroke:#000;stroke-miterlimit:10;stroke-width:1.25px"/><path d="M87.25,531.81a3.5,3.5,0,0,1-2.46,2.89" style="fill:none;stroke:#000;stroke-miterlimit:10;stroke-width:1.25px"/><path d="M96.56,530.6a3.84,3.84,0,0,0,2.58,2.57l5.13-.45s2.45-1.64,2.29-3.34" style="fill:none;stroke:#000;stroke-miterlimit:10;stroke-width:1.25px"/><path d="M101.62,529.92s-.35,2.67-2.37,3.34" style="fill:none;stroke:#000;stroke-miterlimit:10;stroke-width:1.25px"/><path d="M169.93,415.5s6.5-.26,10.35,8.17S189.7,434,189.7,434a9.89,9.89,0,0,0,8.69-1.6l3.82-8.44" style="fill:none;stroke:#020202;stroke-miterlimit:10;stroke-width:2px"/><path d="M255,417.12l-.75,7.52a6.79,6.79,0,0,1-1.65,2.32c-1.15,1-20.74,10.9-20.74,10.9l-1.71,4.49-9.89,3.24,1,3.31s-.13,1.45-7.63,4.31l1,28.18-3.89,3.2s-6.34,2.36-16.25,1.62L189.25,483,187,460.31l-2.39-.41-.66-2.46-1.86,3.77s-15.94,4.87-26.09-.85l-3.35-16.53-7.37,1s.06,9.17-11.77,13.36L128,459.5s-.94.72-4.78-1-14.43-9.3-14.43-9.3-4,.17-3.66-7.13a4.13,4.13,0,0,1,2.65-3.63l67.11-10.94,3-7.1" style="fill:#fff;stroke:#000;stroke-miterlimit:10;stroke-width:1.25px"/><line x1="181.16" y1="426.22" x2="174.5" y2="427.51" style="fill:none;stroke:#020202;stroke-miterlimit:10;stroke-width:2px"/><path d="M152.69,443.83l27.56-3.13s7.54-8.61-2.52-13.42" style="fill:none;stroke:#000;stroke-miterlimit:10;stroke-width:1.25px"/><path d="M155.64,458.39a7.31,7.31,0,0,0,2.71-4c.53-2.49,25.6-14.89,25.6-14.89s5.62-3.18,8-3.2,13.75-2.8,13.75-2.8l47.92-7.72" style="fill:none;stroke:#000;stroke-miterlimit:10;stroke-width:1.25px"/><polyline points="231.31 437.84 199.42 443.35 176.02 453.79 178.26 457.57 184 456.61" style="fill:none;stroke:#000;stroke-miterlimit:10;stroke-width:1.25px"/><line x1="199.74" y1="443.18" x2="205.86" y2="433.77" style="fill:none;stroke:#000;stroke-miterlimit:10;stroke-width:1.25px"/><path d="M185.25,459.75l11.38-4.16,10.2-3.73s7.79-2.16,9.95-2.39,3.2-.34,3.42.09" style="fill:none;stroke:#000;stroke-miterlimit:10;stroke-width:1.25px"/><path d="M197,455.83s14-.36,16.51-2.33" style="fill:none;stroke:#000;stroke-miterlimit:10;stroke-width:1.25px"/><polyline points="177.82 456.54 200.14 446.32 230.35 441.26" style="fill:none;stroke:#000;stroke-miterlimit:10;stroke-width:1.25px"/><path d="M255,417.34s15.31-2.41,26.07-2.76c0,0,3.54-.46,4.7,1,0,0,7.14,8.19,7.9,15.05,0,0,1.1,2.74-1.06,4.2s-18.93.12-31.55-7.47L249.43,429" style="fill:#fff;stroke:#020202;stroke-miterlimit:10;stroke-width:2px"/><path d="M286.5,416.85s-23.31,5.71-24.75,7.17-2.3,1.67-1.13,3.11" style="fill:none;stroke:#020202;stroke-miterlimit:10;stroke-width:2px"/><path d="M108.14,438.59,124,455.86s1.31,1.87,5.21,1.19,11.4-3.32,14-6.44" style="fill:none;stroke:#000;stroke-miterlimit:10;stroke-width:1.25px"/><path d="M110.61,440.76s29.26-.68,33.25.6c0,0,1.88.13,1.88.78a24.46,24.46,0,0,1-.42,2.68" style="fill:none;stroke:#000;stroke-miterlimit:10;stroke-width:1.25px"/><path d="M171.86,31.93l-5.13-9.86S161.25,11.43,149.07,8.9s-17.46-3.53-17.46-3.53S97.47-1.71,81.48,2.16c.66.1-8.55,1.39-10.34,11.25.18,9-17,54.51-24.19,66.79,0,0-6.09,5.64-5.84,24.51l-3,57.81s-1.14,26.82,3.14,52l-2.86,32.3-5.92.82s-5.32,2.24-4.1,9.65,8.37,71.93,8.37,71.93,1.09,7.28-1.74,11.85l5.33,41.62s-.7,7.83,6.22,10.53,24,7.66,24,7.66l-.4,19s-.62,5.47,6.94,6.34l7.68.21,18.71-4.28.12-1.43,20.94-3.9L159,427.65s17.61,6,34.26,3.7l14,5.15s9.38,1.5,25.11-.81,20.51-9.88,121.33-18.57c0,0,2.34-.15,3.35-5.36l4.41-1.72A6.55,6.55,0,0,0,364,405.6c.5-3.12.32-33.32,2.11-38.28s-4.28-18.71-4.28-18.71S356.58,336.14,320,330.9s-80,2.7-80,2.7,20.84-18.22,17.51-51.91a112.36,112.36,0,0,0-14.72-44.29A98.8,98.8,0,0,1,230,190.75a123.7,123.7,0,0,1,8.26-34c7.18-17.88-6.32-31.85-6.32-31.85S221.42,109.73,193,88.56c0,0-5.73-.61-12.94-31.42l.8-18S181.25,30.31,171.86,31.93Z" style="fill:#fff;stroke:#000;stroke-miterlimit:10;stroke-width:2px"/><path d="M74.37,6.56S68,66.1,63.69,79.67s-17.54,54.08-17.54,54.08" style="fill:none;stroke:#000;stroke-miterlimit:10"/><path d="M59.61,304.39l.06.39,2.92,20.63s3.08,21.68-.51,29.68" style="fill:none;stroke:#000;stroke-miterlimit:10;stroke-width:2px"/><path d="M47.05,80s-7.42,10-.71,57.53l1.29,36.79,7.92,101.56" style="fill:none;stroke:#000;stroke-miterlimit:10;stroke-width:2px"/><path d="M79.63,274.72l-6.8-48.64s-5.82-58-25.5-83.14" style="fill:none;stroke:#000;stroke-miterlimit:10"/><path d="M192.36,88.22s-4,23.14-9.1,48.51l-102-2.68c4-27.61-17-54.13-17-54.13" style="fill:none;stroke:#000;stroke-miterlimit:10"/><path d="M240.6,147.14s-22.17,36.75-10.84,73c0,0,15.5,36.87,16.44,48.84s8,28.93-19,63.81" style="fill:none;stroke:#000;stroke-miterlimit:10"/><path d="M229.25,218.5c-1.55-7.62-46-81.81-46-81.81S197.13,256.78,201.71,281" style="fill:none;stroke:#000;stroke-miterlimit:10"/><path d="M96,302.5c.15,5.22.25,10.15.31,14.92v.42a15.76,15.76,0,0,1,0,4.75v.17c.06,7.43,0,14.55-.13,21.86" style="fill:none;stroke:#000;stroke-miterlimit:10;stroke-width:2px"/><path d="M81.25,134.05s5.15,3.7,6,19.58c.2,3.59.84,11.82,1.7,23.19V177a26.91,26.91,0,0,1,.42,5.53v.17c.84,11.3,1.84,25,2.8,40.09v.16a16.82,16.82,0,0,1,.33,5.2v.15c.83,13.24,1.62,27.36,2.27,41.62v.18a9.47,9.47,0,0,1,.21,4.67,1.4,1.4,0,0,0,0,.29" style="fill:none;stroke:#000;stroke-miterlimit:10;stroke-width:2px"/><path d="M73.09,225.73c7.28-22.29,8.07-87.76,8.11-91.51" style="fill:none;stroke:#000;stroke-miterlimit:10"/><path d="M88,274.67S77,185,80,169.82" style="fill:none;stroke:#000;stroke-miterlimit:10"/><path d="M180.16,57.44s1.53,20.46,5.09,36.76-14.71,5.3-14.71,5.3-30.85-21.33-69.09-2.7c0,0-12.11,5.28-14.1-7s-4.1-58.3-4.1-58.3,0-13.21,12-7.73,50.83,25.8,76.49,8" style="fill:none;stroke:#000;stroke-miterlimit:10;stroke-width:2px"/><path d="M90.51,95.56S115.25,67,117.74,57s-6-25.6-6-25.6" style="fill:none;stroke:#000;stroke-miterlimit:10"/><path d="M164.6,35.88a22.81,22.81,0,0,1,5.65,12.85c.57,7.55,7.08,28.72,7.08,28.72S182.1,92,182.12,95s.42,5.2-.73,7.55" style="fill:none;stroke:#000;stroke-miterlimit:10"/><path d="M240.48,333.5s-10.66,2.17-14,4.6" style="fill:none;stroke:#000;stroke-miterlimit:10;stroke-width:2px"/><path d="M360.25,346.39S368,355,354.36,363" style="fill:none;stroke:#000;stroke-miterlimit:10;stroke-width:2px"/><path d="M357.06,411.77l4.47-34.27s5.26-13.3-9.72-15.56-65-1.81-65-1.81-30.71,2-37.88-.42l-32-3.58-33.3,4.11s34.19,13.72,44.73,13.91c0,0,5,.75,6.56,7.51s-1.17,44.13-1.17,44.13-.86,7.85-14.64,11.17" style="fill:none;stroke:#000;stroke-miterlimit:10;stroke-width:2px"/><path d="M193.18,431.39s31-.06,40.57-5.59" style="fill:none;stroke:#000;stroke-miterlimit:10;stroke-width:2px"/><path d="M89.48,351.58s29.52-4.21,52.86,3.32,60.49,16.29,60.49,16.29,21.9,5.08,26.45,3.49" style="fill:none;stroke:#000;stroke-miterlimit:10;stroke-width:2px"/><path d="M89.44,345.08a187.47,187.47,0,0,1,71.36,6.85s20.21,7.69,23.35,8.26" style="fill:none;stroke:#000;stroke-miterlimit:10"/><path d="M134.62,284.36,206.19,281s10.58.46,13.94,10.33,9.75,33.44,6,51.51c0,0-1.93,10.08-9.24,13.33" style="fill:none;stroke:#000;stroke-miterlimit:10;stroke-width:2px"/><path d="M117,296a88.19,88.19,0,0,1,4.74,24c.69,13.27.59,24.64.59,24.64" style="fill:none;stroke:#000;stroke-miterlimit:10;stroke-width:2px"/><path d="M134.67,292.87s2.89,3.62,4.44,16.54,3.43,38.09,3.43,38.09" style="fill:none;stroke:#000;stroke-miterlimit:10"/><path d="M198.38,281.5s5.88,4.26,11.2,22.45,2.15,32.79,2.15,32.79-2.85,15.6-14.09,21.74" style="fill:none;stroke:#000;stroke-miterlimit:10"/><line x1="105.48" y1="343.81" x2="102.25" y2="297.23" style="fill:none;stroke:#000;stroke-miterlimit:10;stroke-width:2px"/><path d="M103.25,317.05l-3.3.28a50,50,0,0,1-7.24.13c-2.52-.29-2.65-.16-2.65-.16" style="fill:none;stroke:#000;stroke-miterlimit:10;stroke-width:2px"/><path d="M103.66,322.08l-3.39.28a52.64,52.64,0,0,1-7.43.13c-2.59-.28-2.72-.15-2.72-.15" style="fill:none;stroke:#000;stroke-miterlimit:10;stroke-width:2px"/><line x1="90.5" y1="306.15" x2="89.5" y2="344.86" style="fill:none;stroke:#000;stroke-miterlimit:10;stroke-width:2px"/><path d="M38.59,246.66s6.59-.45,8.27,3.79l1.8,25.39" style="fill:none;stroke:#000;stroke-miterlimit:10;stroke-width:2px"/><path d="M51.15,299l4.41,40.33L50.1,340s-4.33,1.5-3.44,5.83,3,12.74,3,12.74,2,9-2.09,12.42-8.64-7.75-8.64-7.75l-1.41-4.07" style="fill:none;stroke:#000;stroke-miterlimit:10;stroke-width:2px"/><path d="M69,372.84s-9-12.1-11.15-21.54l-1.92-2-4.63,1.85s-.73,1.35-1.26,1-3-5.32-3-5.32" style="fill:none;stroke:#000;stroke-miterlimit:10;stroke-width:2px"/><path d="M69.79,382.55s-12-8.69-18.41-31" style="fill:none;stroke:#000;stroke-miterlimit:10;stroke-width:2px"/><path d="M69.9,385.41S56.51,374.82,49.52,352" style="fill:none;stroke:#000;stroke-miterlimit:10;stroke-width:2px"/><line x1="70.82" y1="398.42" x2="41.8" y2="389.24" style="fill:none;stroke:#000;stroke-miterlimit:10;stroke-width:2px"/><path d="M67.94,363.17a8.29,8.29,0,0,0-3.52-.54s-1.37-4.2-1.46-5-1.51-5.72-4.77-6.09" style="fill:none;stroke:#000;stroke-miterlimit:10;stroke-width:2px"/><path d="M51.14,340.1a33.43,33.43,0,0,0,2,10.27" style="fill:none;stroke:#000;stroke-miterlimit:10;stroke-width:2px"/><path d="M47.05,296.44l2.67,39.46s.28,3.3-2.06,3.57l-1.71.19s-1.08,0-.94,1.48,3.24,17.36,3.24,17.36,1.11,5.31.49,9-2.26,3.87-2.26,3.87" style="fill:none;stroke:#000;stroke-miterlimit:10;stroke-width:2px"/><path d="M45.54,275.86,44.25,255s-.8-4-3.27-3.49a44.17,44.17,0,0,1-5,.68s-.81-3.9-3.28-4.34" style="fill:none;stroke:#000;stroke-miterlimit:10;stroke-width:2px"/><line x1="42.09" y1="276.58" x2="40.63" y2="251.59" style="fill:none;stroke:#000;stroke-miterlimit:10;stroke-width:2px"/><line x1="38.33" y1="278.81" x2="36.22" y2="252.19" style="fill:none;stroke:#000;stroke-miterlimit:10;stroke-width:2px"/><path d="M43.25,293.6l1.34,34.7s.14,8.79,4,10.88" style="fill:none;stroke:#000;stroke-miterlimit:10;stroke-width:2px"/><path d="M38.87,292.15l2.24,37.56s.9,7.63,3.7,10.91" style="fill:none;stroke:#000;stroke-miterlimit:10;stroke-width:2px"/><path d="M320.25,330.39,322,294.32a4.63,4.63,0,0,1,2.06-4c2.33-1.71,17.37-10.39,17.76-10.39l32.15-.85v-2.74s.51-2.34-1.32-3.37-6.27-3.89-6.27-3.89a11,11,0,0,0-5.09-1.38c-3.38-.24-37.5-2.63-47.65-2.7s-26.82-.49-37.87.62l-1.91,1.21a4.42,4.42,0,0,0-1.82,3.93c0,2.87.05,4.08.05,4.08s.12,1.41,1.05,1.45l8.33.27,15.27,12.69a6.32,6.32,0,0,1,2.5,4.41c.34,3,.15,35.07.15,35.07" style="fill:#fff;stroke:#000;stroke-miterlimit:10;stroke-width:2px"/><line x1="341.8" y1="279.89" x2="281.43" y2="276.52" style="fill:none;stroke:#000;stroke-miterlimit:10"/><path d="M332.69,285l-9.51.21s-3.73-.24-8.51-.65-25-1.16-25-1.16" style="fill:none;stroke:#000;stroke-miterlimit:10"/><path d="M373.7,273.79l-14,.17s-4.77.29-7.82-1.51-6.1-4-6.1-4-28.57-3.65-35.86-3.34" style="fill:none;stroke:#000;stroke-miterlimit:10"/><line x1="348.77" y1="270.21" x2="273.09" y2="267.64" style="fill:none;stroke:#000;stroke-miterlimit:10"/><line x1="364.22" y1="268.16" x2="345.72" y2="268.15" style="fill:none;stroke:#000;stroke-miterlimit:10;stroke-width:2px"/><path d="M103.56,420.74l.18-3.64-10.49-3.78-2-14.44a2.42,2.42,0,0,0-2-.89v-2.28H90l-1.78-84.86s-.9-3.35,4.42-6.35,6.48-4.08,7.39-5.26a18.14,18.14,0,0,1,2.07-2.22l30.44-2.66a2.42,2.42,0,0,0,2.07-2.36l-.55-8.45-3.92-3.23-35.15-5s-10.18-1.37-15.13-.56-37.08,1.74-37.08,1.74l-11.93,7.36.56,6.37L41.08,292l21.57,14.31s1.31,1.56,1.46,5.59,6.88,81,6.88,81,.92,1.42,1.57,1.55l.06,2.6s-1.48.31-1.64,1.53l-.52,2.24" style="fill:none;stroke:#000;stroke-miterlimit:10;stroke-width:2px"/><path d="M89.09,395.71s-10.44,1.41-16.53-1.11" style="fill:none;stroke:#000;stroke-miterlimit:10;stroke-width:2px"/><path d="M90.11,398.39s1.14,3.94-7.86,3.17-9.42-1.63-10.73-3.75" style="fill:none;stroke:#000;stroke-miterlimit:10;stroke-width:2px"/><line x1="93.49" y1="412.54" x2="105" y2="410.52" style="fill:none;stroke:#000;stroke-miterlimit:10;stroke-width:2px"/><line x1="104.01" y1="418.62" x2="121.69" y2="415.75" style="fill:none;stroke:#000;stroke-miterlimit:10;stroke-width:2px"/><line x1="124.63" y1="416.77" x2="92.74" y2="406.42" style="fill:none;stroke:#000;stroke-miterlimit:10;stroke-width:2px"/><path d="M102,297.14s-12.57.86-22.65-.55L40.51,291.9" style="fill:none;stroke:#000;stroke-miterlimit:10"/><path d="M99.68,299.69l-15.8,1.73a78.55,78.55,0,0,1-14.13-.68l-18.67-2.42" style="fill:none;stroke:#000;stroke-miterlimit:10"/><path d="M133.85,283.3s.44,4.71-6.06,5.1S105.5,290,105.5,290s-13.37.86-20.71-.4-53.17-5.78-53.17-5.78" style="fill:none;stroke:#000;stroke-miterlimit:10"/><path d="M130.17,280.27l-30.1,2.13a45.58,45.58,0,0,1-11.37-.53l-45.93-5.1" style="fill:none;stroke:#000;stroke-miterlimit:10"/><path d="M182,464.58a27.49,27.49,0,0,1-24.27.21" style="fill:none;stroke:#000;stroke-miterlimit:10;stroke-width:1.25px"/><path d="M84.41,55.24,74,54.5S63.08,53.19,57.4,57.06L52.09,69.93s3.55-8.35,16.53-7.13L85,63.92Z" style="fill:#fff;stroke:#000;stroke-miterlimit:10;stroke-width:2px"/><path d="M80.48,170.56a8.06,8.06,0,0,1,4.67-1.66c2.67,0,35,6.75,35,6.75l1.87,8.12,18.23,3.73,17.25-4.37v-8.38l28.63-6.5h.75" style="fill:none;stroke:#000;stroke-miterlimit:10"/><path d="M79.63,174.81A9.53,9.53,0,0,1,85,173c3.06,0,31.9,6.18,31.9,6.18l2.15,8.32,21.75,4.67L162,186.9l.33-9,24.12-5.25h.82" style="fill:none;stroke:#000;stroke-miterlimit:10"/><path d="M81.67,213.27a8.58,8.58,0,0,1,4.88-1.66c2.79,0,38.63,6.79,38.63,6.79l2,8.12,19.1,3.75,18-4.37v-8.4l27.58-5.91h.79" style="fill:none;stroke:#000;stroke-miterlimit:10"/><path d="M81.93,218.16s3.29-2.39,6.49-2.39S121.8,222,121.8,222l2.24,8.32,22.77,4.67L169,229.65l.34-9,22.91-4.79h.9" style="fill:none;stroke:#000;stroke-miterlimit:10"/><path d="M86,258.23a18.88,18.88,0,0,1,6.3-1.65c2.85-.05,37.57,6,37.57,6l2.16,8.09L151.69,274l18.39-4.73-.16-8.37L197,254.66h.8" style="fill:none;stroke:#000;stroke-miterlimit:10"/><path d="M86.54,262.6a10.69,10.69,0,0,1,5.7-1.89c3.27-.06,34.28,5.52,34.28,5.52l2.45,8.28,23.39,4.21L175,273l.17-9,22.25-4.93h.93" style="fill:none;stroke:#000;stroke-miterlimit:10"/></g></g></g></g></svg>