<?xml version="1.0" encoding="utf-8"?>
<!-- Generator: Adobe Illustrator 23.0.1, SVG Export Plug-In . SVG Version: 6.00 Build 0)  -->
<svg version="1.1" id="Camada_1" xmlns="http://www.w3.org/2000/svg" xmlns:xlink="http://www.w3.org/1999/xlink" x="0px" y="0px"
	 viewBox="0 0 600 600" style="enable-background:new 0 0 600 600;" xml:space="preserve">
<style type="text/css">
	.st0{fill:#FFFFFF;stroke:#030304;stroke-width:0.8328;stroke-miterlimit:10;}
	.st1{fill:none;stroke:#030304;stroke-width:0.8328;stroke-miterlimit:10;}
	.st2{fill:none;stroke:#030304;stroke-width:0.4164;stroke-miterlimit:10;}
	.st3{fill:none;stroke:#020203;stroke-miterlimit:10;}
	.st4{fill:#FFFFFF;stroke:#020203;stroke-miterlimit:10;}
	.st5{fill:none;stroke:#020203;stroke-width:0.75;stroke-miterlimit:10;}
	.st6{fill:none;stroke:#020203;stroke-width:0.5;stroke-miterlimit:10;}
	.st7{fill:none;stroke:#020203;stroke-width:0.25;stroke-miterlimit:10;}
	.st8{fill:#FFFFFF;stroke:#020203;stroke-width:0.75;stroke-miterlimit:10;}
	.st9{fill:#FFFFFF;}
	.st10{fill:none;stroke:#E52522;stroke-width:1.5;stroke-miterlimit:10;}
	.st11{fill:#E52522;}
	.st12{fill:#FFFFFF;stroke:#020203;stroke-width:0.5;stroke-miterlimit:10;}
	.st13{fill:#E7E6E6;}
	.st14{fill:#FFFFFF;stroke:#020203;stroke-linejoin:round;}
	.st15{fill:none;stroke:#020203;stroke-linejoin:round;}
	.st16{fill:none;stroke:#E52624;stroke-width:1.5;stroke-miterlimit:10;}
	.st17{fill:#E52624;}
	.st18{clip-path:url(#SVGID_2_);}
	.st19{fill:none;stroke:#020203;stroke-width:0.5461;stroke-miterlimit:10;}
	.st20{fill:none;stroke:#E52624;stroke-width:1.5296;stroke-miterlimit:10;}
	.st21{fill:none;stroke:#E52624;stroke-width:1.8398;stroke-miterlimit:10;}
	.st22{fill:none;stroke:#E52624;stroke-width:1.4398;stroke-miterlimit:10;}
	.st23{fill:none;stroke:#E52624;stroke-width:1.5364;stroke-miterlimit:10;}
	.st24{fill:none;stroke:#E52624;stroke-width:1.4292;stroke-miterlimit:10;}
	.st25{fill:none;stroke:#E52624;stroke-width:1.5549;stroke-miterlimit:10;}
	.st26{clip-path:url(#SVGID_4_);}
	.st27{fill:#E52622;}
	.st28{font-family:'Roboto-Medium';}
	.st29{font-size:14.7345px;}
</style>
<g>
	<g>
		<polygon class="st8" points="259.1,435.1 259.1,432.2 271.1,431.5 271.1,435.9 271.1,440.4 259.6,439 		"/>
		<g>
			<path class="st4" d="M280.9,465.7l40.4-5.6c0,0,0.9-1.3,2.1-1.5c1.2-0.2,15.7-2.1,15.7-2.1h5.2c0,0,1.5,0.4,2.1,1.9l1.1,1.8
				l1.3,2.6l0.7,10.8c0,0-3.4,1.5-10.6,1c0,0-4.4-0.5-5.3-1.8l-19.4,5.5l57.2,12.5l1.2-0.7l34.8,7.7l0.4,1.2c0,0,1.4,0.1,2.3,1.7
				l1,16l-6.4,1.9l-8.4-1.3c0,0-2.4-0.5-3.3-2.4v-4l-98.2-15.4c0,0-16.3-1.5-18.7,4.1l-3.1,47.7l-9,1.7l-10.3-1.9l0.6-47.7
				c0,0,1-5.4-17.1-4.6l-100,13v3.4c0,0,0.1,1.9-3.3,2.8c-3.4,0.9-8.7,1.2-8.7,1.2l-6.2-2.3l1.2-14.5c0,0,0-2.4,2.2-3l0.9-1.3
				l35.4-6.7l0.9,0.9l58.5-11.3l-18-5.8c0,0-1.4,2.2-10.5,1.5c0,0-4.7-0.5-5.4-1.5l0.7-10.1l3.3-6.4c0,0,1.1-1.1,3.5-0.9l16.8,2.5
				c0,0,2.7,0.7,4.3,2.2l37.8,6.7"/>
			<path class="st4" d="M271.4,435.1c3.8-0.1,6.3,1.6,6.3,1.6l0.3,4c0.6,0.2,0.9,0.9,0.9,0.9l0.2,2.8c0.8,0.5,1.2,1.2,1.2,1.2
				l0.6,23.2c0.9,1.4,0.5,2.2,0.5,2.2c-2.7,3.8-15.2,3.8-15.2,3.8c-15.1-0.1-16.2-3.8-16.3-4.9c-0.2-1.1,0.8-1.5,0.8-1.5v-3.1
				c0,0,0.5-18.8,0.5-19.7c0.1-0.9,1.2-1.1,1.2-1.1l0.3-3.1c0-0.5,0.9-0.6,0.9-0.6l0.3-4c0.4-1.1,5.1-1.8,5.1-1.8v1.1
				c4.2,1,8.4,1.1,12.4,0V435.1z"/>
			<path class="st3" d="M253,441.5c0,0,14.5,6.1,25.4,0"/>
			<path class="st3" d="M251.8,445.2c0,0,0.8,4.6,14.9,4.4c14.1-0.2,13.1-4.7,13.1-4.7"/>
			<path class="st3" d="M186.2,458.9c0,0-0.1,0.8,0.5,1s14.9,3.5,14.9,3.5s0.9,0.1,1.4-0.5c0.5-0.5,2.1-3.8,2.1-3.8s0.9-1.6,1.9-1.3
				c0,0,3.8,0.4,5.3,0.6"/>
			<path class="st3" d="M321.4,460.2c0,0,0.9,0.1,1.9-0.2c1-0.3,3.4-1.1,4.6,0.4c1.2,1.5,1.4,3,1.4,3s0.2,2.1,2.2,1.8
				c2-0.3,15.3-2.6,15.3-2.6s1-0.4,0.9-1.3"/>
			<path class="st3" d="M407.8,499.3c0,0-1.8,0.1-3.4,3.6c0,0-0.8,2.1-2.9,1.7l-33-6.9c0,0-1.5-0.1-1.3-1.8c0,0,0.4-2.3,1.1-2.6
				c0.7-0.3,2.7-2.3,2.7-2.3"/>
			<path class="st3" d="M255.8,531.8l3.5-2.3c0,0,0.6-0.7,2.1-0.6c1.5,0.1,3.6,0.1,3.6,0.1s1.3-0.2,2.6,0.7c1.3,0.9,3.5,2.5,3.5,2.5
				l1.4-15.4l-0.4-1.5c0,0-1.5-2.7-4.1-3.3l-6.8-0.2c0,0-1.8-0.1-3.3,1.2c-1.5,1.3-2.4,2.3-2.4,2.3l-0.2,16.7L255.8,531.8z"/>
			<path class="st3" d="M122.3,495.5c0,0,2,0.9,3.4,4.3c0,0,0.8,2.1,3.4,1.5c2.6-0.5,32.6-5.3,32.6-5.3s1.3-0.5,1.1-1.5
				s-0.4-2.7-0.4-2.7l-1.9-2.3l-1.2-1.1"/>
			<polyline class="st3" points="120.7,496.4 125.9,502.7 125.4,515.3 			"/>
			<path class="st6" d="M126.3,502.7l106.9-16.8c0,0,14.8-2.1,21.9,3.7l-1,45"/>
			<line class="st6" x1="270" y1="474.8" x2="268.4" y2="512.1"/>
			<line class="st6" x1="260.7" y1="474.8" x2="260.7" y2="511.9"/>
			<polyline class="st3" points="409.3,500 403.5,507.1 403.8,518.2 			"/>
			<path class="st6" d="M403,507.1L294,486c0,0-15.2-3.1-18.8,3.4l-3.6,43"/>
			<line class="st6" x1="367.3" y1="493.4" x2="278.9" y2="473.1"/>
			<line class="st3" x1="313.9" y1="478.3" x2="281.1" y2="470.8"/>
			<line class="st6" x1="281.1" y1="468.8" x2="328.2" y2="460.8"/>
			<line class="st6" x1="296" y1="474" x2="347.8" y2="463.1"/>
			<path class="st3" d="M333.6,472.9l9.7-2.8c0,0,1.7-0.7,2.4,0.4"/>
			<line class="st3" x1="218" y1="476.9" x2="249.5" y2="470.5"/>
			<line class="st6" x1="234" y1="473.3" x2="185.1" y2="461.1"/>
			<path class="st3" d="M199.8,471.3l-10-3.3c0,0-2-0.6-2.5,0.1"/>
			<polyline class="st3" points="257.4,548.2 257.4,554.5 258.2,555.3 258.4,583.6 268.1,583.6 268.1,555 269.1,554.4 269.2,548.2 
							"/>
			<path class="st3" d="M257.5,549c0,0,6.4,3.7,11.5,0"/>
			<path class="st3" d="M269.1,554.4l5.2,0.1c0,0,2-0.1,2,1.6c0,1.7,0.1,35,0.1,35s-0.1,1.5-1,1.5s-6.2,0.1-6.2,0.1s-1.5-1-1.4-4.7
				c0.1-3.7,0-4.1,0-4.1"/>
			<path class="st3" d="M257.4,554.5h-5.6c0,0-1.8-0.4-1.8,1.9s-0.1,34.8-0.1,34.8s0,1.6,1.9,1.6s5.5,0,5.5,0s0.7-0.1,0.9-0.7
				c0.2-0.6,0.1-8.5,0.1-8.5"/>
			<path class="st3" d="M391,544.3c0,0-2.8-11,6.2-16.3s19.2,2.5,21.4,6.8c2.2,4.4,7.8,16.5-3.6,23
				C403.4,564.5,391.9,550.7,391,544.3z"/>
			<path class="st3" d="M396,517.6c0,0,0.4,2.1,5,2.2c4.5,0.2,5.4-0.1,6-1.7"/>
			<line class="st3" x1="396" y1="518.1" x2="396" y2="529.2"/>
			<path class="st3" d="M407.3,518.1v4.7c0,0-8.3,0.5-11.1,5.6"/>
			<path class="st3" d="M407.5,521.3c0,0,3.5-1.9,8.2-0.3s8.8,3.7,12.4,11.6s-0.7,14.5-0.7,14.5s-3.3,5-8.5,7.6"/>
			<path class="st3" d="M399.2,525.2c0,0,11.1-3.6,18.4,4.1c7.4,7.6,6.3,14.3,6.3,14.3s0,5.8-3.5,10"/>
			<path class="st3" d="M407.6,522.1c0,0,8.1-1.1,13.9,5c5.7,6.1,6,12.8,6,12.8s0.6,7-5.5,12.5"/>
			<line class="st3" x1="423.5" y1="547.3" x2="426.4" y2="545.6"/>
			<path class="st3" d="M393.8,542.9c0,0-1.1-11,8.7-12.4s14.4,9.4,14.4,9.4s4.5,12.4-6,15.7C399.6,559,393.9,546.4,393.8,542.9z"/>
			<path class="st3" d="M399.7,542.3c0,0-0.1,5.5,5.9,7c6,1.5,5.2-7,5.2-7s-1.4-4.9-6.2-5.1C399.8,537.1,399.7,542.3,399.7,542.3z"
				/>
			<path class="st3" d="M402.8,537.5c0,0,1.3-1,1.9-1c0.6,0.1,3.9-0.7,6.3,3c3.1,4.8-1.8,9.3-1.8,9.3"/>
			<polyline class="st6" points="396.3,534.2 397.3,534.5 401.7,537.5 402.4,537.1 399.8,533 398,532.1 			"/>
			<path class="st6" d="M399.8,531.2l1,0.8l2.4,3.7c0,0,1.1,0.3,1.2-0.5c0,0,0,0,0,0l-0.8-3.4l-0.8-1.2"/>
			<path class="st6" d="M404.1,530.3l0.6,1.1l0.9,3.7c0,0,0.7,0.8,1.2,0.2l0.6-3.3l-0.2-1.1"/>
			<path class="st6" d="M408.9,531.5l0.1,0.8l-0.6,3.6c0,0,0.6,0.8,1.1,0.6l1.7-2.7l0.3-0.9"/>
			<path class="st6" d="M412.6,534.2l-0.2,0.8l-1.7,2.4c0,0,0,1.1,1,1.1l2.8-2"/>
			<path class="st6" d="M415.7,538.2l-3,1.6c0,0-0.9,1.3,0.5,1.5l3.8-0.9"/>
			<path class="st6" d="M417.4,542.8l-3.5-0.2c0,0-1.6,0.6-0.3,1.5l4.2,1.7"/>
			<path class="st6" d="M416.7,550.5l-1-1.3l-3-2.6c0,0-0.6-1.4,0.6-1.2c1.2,0.2,4.2,2.4,4.2,2.4"/>
			<path class="st6" d="M413.3,554.4l-0.1-1.6c0,0-0.1-0.9-0.5-1.5c-0.5-0.6-1.5-2.2-1.5-2.2s-0.6-2,1.3-1.2l2.5,2.9l0.8,1.5"/>
			<path class="st6" d="M408.9,555.8l0.5-1.5c0,0,0.3-1.1-0.1-2l-0.6-2.2c0,0,0.3-1.4,1.4-0.5l1.2,2.3c0,0,0.5,0.9,0.6,1.5l0.1,1.5"
				/>
			<path class="st6" d="M404.2,555.6l0.8-1.2c0,0,0.6-0.9,0.5-1.8l0.4-2.9"/>
			<polyline class="st6" points="407.2,549.7 408.1,553.4 407.3,555.9 			"/>
			<polyline class="st6" points="399.7,553.2 400.9,552.2 403.1,548.7 			"/>
			<polyline class="st6" points="404.5,549.3 403.8,553.3 402,554.7 			"/>
			<polyline class="st6" points="396.5,549.4 397.9,548.2 400.8,546.4 			"/>
			<polyline class="st6" points="402,547.8 400,550.5 399,552.1 			"/>
			<path class="st6" d="M395.7,547.8l1.1-0.8c0,0,0.7-0.5,1.4-0.8c0.7-0.2,1.9-1.1,1.9-1.1"/>
			<polyline class="st6" points="399.7,543.8 397.3,544 394.5,544.8 			"/>
			<polyline class="st6" points="394,542.9 396.5,542.3 399.4,542.2 			"/>
			<polyline class="st6" points="399.7,541.1 395.8,539.9 394,539.8 			"/>
			<polyline class="st6" points="394.3,537.9 396.2,538.2 400.1,539.6 			"/>
			<polyline class="st6" points="400.6,538.6 397.4,536.1 395.5,535.6 			"/>
			<path class="st3" d="M139.4,541.2c0,0,2.8-11-6.2-16.3c-9-5.3-19.2,2.5-21.4,6.8c-2.2,4.4-7.8,16.5,3.6,23
				C126.9,561.4,138.5,547.6,139.4,541.2z"/>
			<path class="st3" d="M134.4,514.5c0,0-0.4,2.1-5,2.2c-4.5,0.2-5.4-0.1-6-1.7"/>
			<line class="st3" x1="134.4" y1="515" x2="134.4" y2="526.1"/>
			<path class="st3" d="M123.1,515v4.7c0,0,8.3,0.5,11.1,5.6"/>
			<path class="st3" d="M122.9,518.2c0,0-3.5-1.9-8.2-0.3s-8.8,3.7-12.4,11.6S103,544,103,544s3.3,5,8.5,7.6"/>
			<path class="st3" d="M131.2,522.1c0,0-11.1-3.6-18.4,4.1s-6.3,14.3-6.3,14.3s0,5.8,3.5,10"/>
			<path class="st3" d="M122.8,519c0,0-8.1-1.1-13.9,5c-5.7,6.1-6,12.8-6,12.8s-0.6,7,5.5,12.5"/>
			<line class="st3" x1="106.9" y1="544.2" x2="104" y2="542.5"/>
			<path class="st3" d="M136.6,539.8c0,0,1.1-11-8.7-12.4s-14.4,9.4-14.4,9.4s-4.5,12.4,6,15.7C130.8,555.9,136.5,543.3,136.6,539.8
				z"/>
			<path class="st3" d="M130.7,539.2c0,0,0.1,5.5-5.9,7c-6,1.5-5.2-7-5.2-7s1.4-4.9,6.2-5.1C130.6,534,130.7,539.2,130.7,539.2z"/>
			<path class="st3" d="M127.6,534.4c0,0-1.3-1-1.9-1c-0.6,0.1-3.9-0.7-6.3,3c-3.1,4.8,1.8,9.3,1.8,9.3"/>
			<polyline class="st6" points="134.1,531.1 133.1,531.4 128.7,534.4 127.9,534 130.6,529.9 132.3,529 			"/>
			<path class="st6" d="M130.6,528.1l-1,0.8l-2.4,3.7c0,0-1.1,0.3-1.2-0.5c0,0,0,0,0,0l0.8-3.4l0.8-1.2"/>
			<path class="st6" d="M126.2,527.2l-0.6,1.1l-0.9,3.7c0,0-0.7,0.8-1.2,0.2l-0.6-3.3l0.2-1.1"/>
			<path class="st6" d="M121.5,528.4l-0.1,0.8l0.6,3.6c0,0-0.6,0.8-1.1,0.6l-1.7-2.7l-0.3-0.9"/>
			<path class="st6" d="M117.7,531.1l0.2,0.8l1.7,2.4c0,0,0,1.1-1,1.1l-2.8-2"/>
			<path class="st6" d="M114.7,535.1l3,1.6c0,0,0.9,1.3-0.5,1.5l-3.8-0.9"/>
			<path class="st6" d="M113,539.7l3.5-0.2c0,0,1.6,0.6,0.3,1.5l-4.2,1.7"/>
			<path class="st6" d="M113.7,547.4l1-1.3l3-2.6c0,0,0.6-1.4-0.6-1.2c-1.2,0.2-4.2,2.4-4.2,2.4"/>
			<path class="st6" d="M117.1,551.3l0.1-1.6c0,0,0.1-0.9,0.5-1.5c0.5-0.6,1.5-2.2,1.5-2.2s0.6-2-1.3-1.2l-2.5,2.9l-0.8,1.5"/>
			<path class="st6" d="M121.5,552.7l-0.5-1.5c0,0-0.3-1.1,0.1-2l0.6-2.2c0,0-0.3-1.4-1.4-0.5l-1.2,2.3c0,0-0.5,0.9-0.6,1.5
				l-0.1,1.5"/>
			<path class="st6" d="M126.1,552.5l-0.8-1.2c0,0-0.6-0.9-0.5-1.8l-0.4-2.9"/>
			<polyline class="st6" points="123.2,546.6 122.3,550.3 123,552.8 			"/>
			<polyline class="st6" points="130.6,550.1 129.5,549.1 127.2,545.6 			"/>
			<polyline class="st6" points="125.8,546.2 126.6,550.2 128.4,551.6 			"/>
			<polyline class="st6" points="133.8,546.3 132.5,545.1 129.6,543.3 			"/>
			<polyline class="st6" points="128.4,544.7 130.4,547.5 131.4,549 			"/>
			<path class="st6" d="M134.7,544.7l-1.1-0.8c0,0-0.7-0.5-1.4-0.8s-1.9-1.1-1.9-1.1"/>
			<polyline class="st6" points="130.6,540.7 133,540.9 135.8,541.7 			"/>
			<polyline class="st6" points="136.4,539.8 133.8,539.2 131,539.1 			"/>
			<polyline class="st6" points="130.6,538 134.6,536.8 136.3,536.7 			"/>
			<polyline class="st6" points="136.1,534.8 134.2,535.1 130.3,536.5 			"/>
			<polyline class="st6" points="129.8,535.5 132.9,533 134.9,532.5 			"/>
			<polyline class="st3" points="276.6,566.4 277.3,566.4 277.3,580.3 276.7,580.3 			"/>
			<polyline class="st3" points="249.6,566.8 248.9,566.8 248.9,580.6 249.5,580.6 			"/>
			<path class="st3" d="M336,474.5c0,0-0.1,1.9,4.8,2c4.9,0.1,4.4-1.7,4.4-1.7"/>
			<line class="st3" x1="335.9" y1="474.7" x2="335.9" y2="482.9"/>
			<path class="st3" d="M345.7,474.8l0.2,5c0,0-2.6,1.7-4.5,4.5"/>
			<path class="st3" d="M335.8,477.7c0,0-2.7,1.9-3.6,4.4"/>
			<path class="st3" d="M345.8,475.4l13.4,5c0,0,4,1.9,5,8.9"/>
			<path class="st3" d="M345.8,479.8c0,0,3.6-2.4,7.1-1.8"/>
			<path class="st3" d="M349.2,485.8c0,0,2.3-3.3,5.9-3.1c3.7,0.2,6.2,3,6.9,5.9"/>
			<line class="st3" x1="351.1" y1="484.2" x2="351.3" y2="486.3"/>
			<polyline class="st3" points="352.8,483.3 352.3,484.4 352.5,486.6 			"/>
			<polyline class="st3" points="354.8,482.9 354,484 353.2,486.7 			"/>
			<polyline class="st3" points="356.3,483.1 355.3,484.3 354.5,486.9 			"/>
			<polyline class="st3" points="355.1,487.1 356.4,485 358,483.8 			"/>
			<polyline class="st3" points="359.4,484.6 357.6,485.8 356.5,487.4 			"/>
			<polyline class="st3" points="357.6,487.9 359.1,486.6 360.7,486.3 			"/>
			<polyline class="st3" points="359.5,488.2 360.2,487.8 361.5,487.7 			"/>
			<path class="st3" d="M334.8,502c0,0,2.3,2.6,7.1,2.5"/>
			<path class="st3" d="M337.9,502.4c0,0,0.5,1.6,3.9,2.2c0,0,3.2,3,8.3,3.6s7.5-2.5,7.5-2.5"/>
			<path class="st3" d="M343.2,503.4c0,0,1.4,2.8,6.6,4.9"/>
			<path class="st3" d="M340.9,502.9c0,0,0.3,0.9,0.9,1.7"/>
			<path class="st3" d="M189.5,482.6c0.1-2.2-1.5-5.9-1.5-5.9l0.2-3.8c0,0,0.4,2,5.2,1.8c4.8-0.2,3.9-2.1,3.9-2.1l0.4,5.5
				c0,0,0,2.2-0.5,3.1"/>
			<path class="st3" d="M187.9,474.4l-7.7,0.7c0,0-3.4,1.1-3.2,9.7"/>
			<path class="st3" d="M183.9,483.5c0,0,0-6.8-3.8-8.4"/>
			<path class="st3" d="M197.6,473.3l1.3-0.1c0,0,3.4,0.9,4,6.7"/>
			<path class="st3" d="M188,476.7c-0.3-0.3-1.7-1.8-2.4-2"/>
			<path class="st3" d="M182.4,483.8c0,0-0.1-4.1-2.6-5.5c-2.5-1.4-2.5,6.4-2.5,6.4"/>
			<path class="st3" d="M178.2,479.6l1.8,0.8c0,0,0.8,0.6,1,1.6s0.4,2,0.4,2"/>
			<path class="st3" d="M177.5,482.5c0,0,1.8,0,2.7,0.9l0.3,0.7"/>
			<path class="st3" d="M180.3,502.3c0,0,0.9,1.9,2.2,2.1s5.7-0.5,5.7-0.5s1.4-1.7,1.6-2.8"/>
			<path class="st3" d="M185.1,501.6c0,0-0.3,2.3-2.4,2.8"/>
			<path class="st3" d="M194.2,500.5c0,0,0.6,2.1,2.5,2.5l5-0.4c0,0,2.4-1.6,2.2-3.2"/>
			<path class="st3" d="M199.1,499.9c0,0-0.4,2.6-2.3,3.2"/>
			<path class="st3" d="M254,436.8c0,0,12.3,4.7,23.7,0"/>
			<path class="st3" d="M254,436.8c0,0,13.5,4.8,23.8,0"/>
		</g>
	</g>
	<g>
		<path class="st4" d="M346.8,388.3l-2.4,4.1c0,0,0.4,7.9-1,9.9c-1.3,0.9-17.2,9.9-17.2,9.9l-0.5,2.4l0.6,1.6c0,0,0.4,1.2-0.6,2
			s-8.2,4.4-8.2,4.4s5,5.3,5.6,7.4c0,1-0.4,1.8-0.4,1.8l-0.4,0.6c0,0-0.9,0.3-1.7,0s-3-1.1-3-1.1l0.7,16.3c0,0,0.2,0.4-1.1,1.5
			s-2.4,1.9-2.4,1.9s-4.4,2.8-14.1,1.5c-2.2-0.9-4.7-2.2-4.7-2.2l-2.5-19.2l-1.6,0.2c0,0-1.1,0.5-1.7-0.7s-0.8-1.8-0.8-1.8l-1.6,0.5
			c0,0-1.2,0.5-3.6-0.2c-0.4-0.6-0.9-1.7-0.9-1.7l-5.6,2.3l-1.4,4c0,0-0.7,1.5-1.9,1.9c-1.2,0.4-4,1-4,1s-9.8,0.9-13.8,0
			c-1.2-0.3-2.5-0.5-3.1-2c-0.6-1.4-3.6-10.3-3.9-11.8s-0.9-2.8,0.7-3.9c1.6-1.1,14-12.2,38.7-22.4c5.2-5.2,1.6-6.9,1.6-6.9
			l-10.6-0.7c0,0-1.9-0.1-2.3,1.2c-0.5,1.3-1.9,2.9-3.7,3s-4.1-0.2-4.8-2.2c-0.7-2-0.9-2.9-2-3.3"/>
		<path class="st6" d="M344.4,392.4l-5,8.5c0,0-2.6,3.8-7.1,3.9c-4.5,0.1-9.2-0.8-12.4-3.3c-3.2-2.4-5.2-7.1-5.2-7.1l-1.9-6.4"/>
		<path class="st6" d="M249.2,421.6c0,0,1.6,1.1,14.8-4.1c13.1-5.2,29-11.4,29-11.4s7.6-3,8.7-11c1.1-8,0.8-7.1,0.8-7.1"/>
		<path class="st6" d="M254.6,436.2c0,0,7.9,0.6,12.6-6.8c3.2-1.4,63.5-26.4,73.9-25.6"/>
		<line class="st6" x1="283.2" y1="427.5" x2="326.2" y2="412.2"/>
		<line class="st6" x1="289.3" y1="428.9" x2="326" y2="415.3"/>
		<line class="st6" x1="293.4" y1="431.1" x2="317.8" y2="422.9"/>
		<path class="st12" d="M317.5,422.6c0,0-6.6-5.7-7.7-6.8c0.5-0.9,3.4-7,3.4-7s0.8-3.4-1.4-6.1c-2.3-2.7-7.5-2.3-9.4-0.3
			c0,0-2.7,4.9-4.5,18.4c0.1,1.5,1.2,4.9,5,4.9c3.2,1.2,14.5,5.6,14.5,5.6"/>
		<path class="st6" d="M298.1,420.3c0,0,1.7-5.7,6.4-3.7c1.6,0.8,2.4,2.1,2.4,3.2c0,1.1,0.4,4.7-3.9,5.9"/>
		<path class="st6" d="M306.4,418.2c0,0,1.9-2.3,3.5-2.3"/>
		<path class="st6" d="M306.6,418.5c0,0,1.3,0.6,7.6,4.7c0.8,0.5,3.1,2.5,3.9,3.1c3.1,2.5,4,3.6,5,3.5"/>
		<path class="st6" d="M295.9,450.3c0,0,12.4,3.3,22.2-2.2"/>
		<polyline class="st7" points="297.4,450.6 294.8,431 294,430.9 296.6,450.5 		"/>
		<polyline class="st7" points="298,450.6 295.4,431.1 296.1,431.1 298.8,450.9 		"/>
		<polyline class="st7" points="300,451 297.7,431.1 298.6,431.1 301.1,451.1 		"/>
		<polyline class="st7" points="302.3,451.2 300.3,431.1 301.6,431.1 303.9,451.3 		"/>
		<polyline class="st7" points="305.3,451.3 303.1,430.9 304.5,430.9 306.7,451.2 		"/>
		<polyline class="st7" points="308.1,451.1 306.3,430.9 307.6,430.8 309.7,450.9 		"/>
		<polyline class="st7" points="311,450.7 309.3,430.5 310.6,430.3 312.5,450.3 		"/>
		<polyline class="st7" points="313.6,450 312.1,430.3 313.1,430.2 314.6,449.7 		"/>
		<polyline class="st7" points="315.5,449.4 314,430 315.2,430.3 316.6,448.9 		"/>
		<polyline class="st7" points="317.3,448.5 316.2,430.8 316.9,431.1 318.1,448 		"/>
		<circle class="st6" cx="330" cy="396.8" r="5.4"/>
		<circle class="st7" cx="330" cy="396.8" r="4.7"/>
		<circle class="st6" cx="273.2" cy="388.8" r="2"/>
	</g>
	<g id="assento_5_">
		<path class="st8" d="M182.9,389c0,0-0.5,8.2,10.2,8c9.8-0.2,14.2-1.5,56.7-0.9c9.9,0,30.9-2,39.8-4s36.5,1,46.9,1.3
			s85.7-1.9,85.7-1.9s8.2-1.2,10.1-9.2s4-25.9,4-25.9s0.3-5.9-2.9-12.3c-2.3-3.3-4-5.4-4-5.4s-5.7-8.2-21.4-16.6
			c-1.7-0.8-3.9-1.3-3.9-1.3s-17.9-11.4-46.8-13.9c-6.4-0.4-42.9-3.9-96,6.5c0,0-20.4,4-26.8,6.9c-6.4,2.9-57.5,21.5-57.5,21.5"/>
		<path class="st5" d="M430.7,340.3c0,0-3.6,2-12.9,0c-9.3-2-13.4-3.1-13.8-3.1s-21.1-3.3-43.5-2.3c-22.4,0.9-29.8,1.4-29.8,1.4
			s-47.4,3.6-57.9,5.5c-10.6,1.9-53.4,9.8-53.4,9.8"/>
		<line class="st5" x1="406.8" y1="321.5" x2="352.5" y2="330.4"/>
		<path class="st5" d="M428.4,341c0,0-27.3-8.7-53.5-10c-26.2-1.3-64.3,0-64.3,0s-83.6,10.8-94.8,14.1"/>
	</g>
	<g id="encosto_3_">
		<path class="st8" d="M239.9,276.4c0,0-2-19.2-23.2-50.2c-3.6-8.4-8.8-19-8.8-19s-5.8-18.8-4.3-35.1c0.4-9.8,0.3-15.2,0.3-15.2
			s0.2-15.5-13.5-30.7c-2.2-5.1-7.2-18.8-27.8-33.6c-2.6-9.9-13.7-54.4-13.7-54.4s-9.5-26.8-16.2-28.5c-2.9-1.3-6.4-2.5-6.4-2.5
			s-4.1-0.1-6.3,5.8s-2.8,8.6-2.8,8.6l0.1,56.4l5.3,38.5l37.7,189.3l16.4,57.2c0,0,34.5-7.8,43.8-15.2c5-3.9,9.5-10.9,12.6-16.6
			c3.1-5.7,5.2-11.9,6.2-18.3C240.6,304.1,241.9,290.2,239.9,276.4z"/>
		<path class="st5" d="M203.1,354.3c0,0,24.2-10.6,28.4-37.4c0.4-9.5-0.5-15.5-0.5-15.5s-4.8-27.2-16.4-42.7c-5.1-9-16-25.9-16-25.9
			s-12.6-16.8-14.4-43c0.1-15.6,1.3-23.4,1.3-23.4l3.4-18.9c0,0,2-12.9-5-21.2c-5.8-7-19.5-18.7-19.5-18.7l-16.4-11.9l-16-9.1
			c0,0-4.8-2.7-5.7-8.4c-1-5.7-3-20.5-3-20.5l-0.6-10.8l-0.3-28.9c0,0-0.6-8.9,2.4-10.4"/>
		<path class="st5" d="M240.4,303.3c0,0,0.8-19.1-7.8-36.9c-8.6-17.8-22.2-41.3-22.2-41.3s-6.5-11.3-9.9-26.4
			c-2.1-9.4-4.1-19.6-5.3-25.8c-0.7-3.5-1.1-7.1-1.3-10.7c-0.4-6.1-1.6-16.8-4.8-22.5"/>
		<path class="st5" d="M190.3,126.3c0,0,6.7,9.9,5.6,49.9"/>
		<path class="st5" d="M122.9,10.8c0,0,5.5,5,8.9,17.5c3.4,12.6,6.2,21.9,6.2,21.9l5.5,20.4c0,0,3.4,11.9,8.6,15.2
			c5.2,3.4,11.9,7.9,11.9,7.9"/>
		<path class="st5" d="M162,92.5c0,0,14.4,10.6,21.7,26.9c2,4.3,4.2,8.3,3.6,12.7"/>
		<path class="st5" d="M198.5,189.4c0,0,5.5,7.9,9.2,17.4"/>
	</g>
	<g id="braço_10_">
		<path class="st4" d="M263.7,269v-3.3c0,0-0.3-1.7,1.3-2.6s5.1-2.9,5.1-2.9s1.3-1.3,5.3-1.5c4-0.2,52.8-3.7,84.5-0.8
			c1.7,0.6,7.1,3.9,7.1,3.9s1.1,0.5,1.1,2.1c0,1.6,0,2.8,0,2.8s0.1,1.2-2.1,1.3c-2.2,0.2-36.9,1-36.9,1l-62.6,0.9
			C266.2,269.9,264.4,270,263.7,269z"/>
		<path class="st6" d="M267.4,261.7c0,0,85.6-1.7,94.4-1.5"/>
		<path class="st6" d="M271.1,259.5c0,0,53.8-3.5,87.5-0.8c0,0,0.5,0.1,2,0.8c1.4,0.7,5.9,3.5,5.9,3.5s0.4,0.3,1.2-0.4"/>
		<ellipse class="st6" cx="354.8" cy="264.7" rx="3" ry="1.8"/>
		<ellipse class="st7" cx="354.8" cy="264.7" rx="2.5" ry="1.5"/>
		<path class="st8" d="M250.8,282v-4.2c0,0-0.2-1.4,2.3-3c2.5-1.6,6.3-3.6,6.3-3.6s4-2.1,8.8-2.2s31.1-0.9,31.1-0.9s48.9,0,68.8,2.2
			c1.2,0.1,3.5,1.2,3.5,1.2l6.8,4c0,0,2,1.1,2,3.2s0,3.6,0,3.6s0.3,1.3-2.8,1.5c-3.1,0.2-40.2,0.2-40.2,0.2l-19,12.6
			c0,0-2.3,0.7-2.3,5.2s-2.4,77.1-2.4,77.1s-0.2,0.6-1.4,0.5c-0.1,0.4-0.1,4.1-0.1,4.1h2l1.8,20.4c0,0,0.9,2.5-3.8,3.4
			s-15.5,2.8-25.5-0.8c-1.3-0.7-2.4-0.9-2.1-3.7c0.3-2.8,1.7-19.3,1.7-19.3s1.4-0.6,2.1-0.6c0.3-1,0.2-4,0.2-4s-1.8,0.4-1.8-1.7
			s-1.2-76.2-1.2-76.2s0.2-3.1-2.6-4.9c-2.8-1.8-19.1-13-19.1-13S251.5,283.6,250.8,282z"/>
		<path class="st6" d="M250.9,277.2c0,0,2.6,0.3,13.9,0.4c11.3,0.1,110.3,0.4,110.3,0.4s4.9,0.1,3.8-2.1"/>
		<path class="st6" d="M260,270.9c0,0,2.9-0.3,11.6-0.3c8.8-0.1,73.8-1,92.6,1.2c4,0.1,5-0.3,5.6-0.7"/>
		<line class="st6" x1="263.7" y1="283.3" x2="337.4" y2="284.2"/>
		<line class="st6" x1="274" y1="290.3" x2="328.2" y2="290.3"/>
		<path class="st6" d="M288.4,379.1c0,0,16.1,1.4,24.1,0.3"/>
		<path class="st6" d="M286.2,383.7c0,0,1.5,2.3,13.8,2.2c12.3-0.2,10.7-0.1,14.2-2.2"/>
		<path class="st6" d="M288.3,383c0,0,0,1.9,10.9,1.9s11.2,0,13.1-1.3"/>
		<polyline class="st6" points="295.9,306.1 295.9,310.1 305,310.1 305,306.4 		"/>
		<path class="st6" d="M293.2,305.9c0,0,3.2,0.3,7.3,0.3c4,0,5.5,0.2,7.2-0.2v-1.7c0,0,0-2.9-3.3-2.9c-3.3-0.1-7.3,0-7.3,0
			s-3.4-0.2-3.9,2.5C293.2,304.5,293.2,305.9,293.2,305.9z"/>
		<polyline class="st6" points="296.9,301.3 296.9,297.5 304.1,297.5 304.1,301.5 		"/>
	</g>
	<g id="braço_9_">
		<path class="st4" d="M174.4,355.2l3.7,29.1c0,0,0.1,8.9,9.7,8.9c9.6,0.1,71.8,0,71.8,0s4.5-1.5,6.8-6.7c2.2-5.2,1.3-9.5,1.3-9.5
			s-0.9-4.5-4.3-6.8c-3.4-2.3-9.2-3.3-9.2-3.3l-7.9-0.1c0,0-10.2-0.5-17.8-9.4c-7.6-8.9-11.1-14.8-11.1-14.8s-3.9-7.9-12.3-9.8
			c-1.3-2.3-1.3-2.3-1.3-2.3l1.4-0.9l-24-77.4c0,0-0.6-1.4-2.6-1.9c-2-0.5-5.5-2.1-5.5-2.1s-7.4-3.8-13,4.8
			c-0.7,1.2-2.1,3.2-3.5,4.6c-0.3,0.4-0.3,1.1,0,2.1c0.3,1,22.7,77.7,22.7,77.7l0.9-0.2l-0.5,3.8
			C179.7,340.8,173.8,347.7,174.4,355.2z"/>
		<path class="st6" d="M179.7,340.8l1.3,5.4c0,0-4.1,2.3-3.4,9.8c0.7,7.5,3.4,28.3,3.4,28.3s0.9,5.2,6.5,5.2
			c5.6,0,69.6,0.9,69.6,0.9s4.2-1.5,4.4-5.6c0.2-4.1-1.4-6.8-1.4-6.8s-1.4-1.9-2.8-2c-1.4-0.1-14.4,0.3-29.2-10.4
			c-2.8-2.3-8.8-5.5-14.9-17.5c-1.4-2.5-1.6-3.5-4.6-6.2c-3-2.6-5.3-3.3-5.3-3.3l-0.9-2.9l-1.8-3.1c0,0-0.2-1.4,0.5-1.7
			c0.7-0.3,2.5-0.7,2.5-0.7"/>
		<path class="st6" d="M179,348.6l3.3,27.4c0,0,2.6,11.7,13.3,11.9s64.1,1.1,64.1,1.1"/>
		<path class="st6" d="M181.1,346.2l4.7,15.4c0,0,3.7,9.3,14.6,6.4c10.9-2.9,7.3-14.8,7.3-14.8l-4.4-14.4"/>
		<line class="st6" x1="179.9" y1="339.7" x2="200.7" y2="332.7"/>
		<path class="st6" d="M180.2,337.1l0.6-10.7c0,0-0.4-7.7-1.8-11.7c-1.4-4.1-21.6-58-21.6-58"/>
		<path class="st6" d="M177.4,249.8l12.9,57.6c0,0,2.5,13.9,11.5,23.5"/>
		<path class="st6" d="M180.3,339.6l0.5,2.9l5.6,18.6c0,0,3.4,8.7,13.2,6.4c9.8-2.3,7.4-13.7,7.4-13.7l-5.6-17.5l-2-3.1l-5.7-12.1
			l-16.4-69.4l-3.6-1.9c0,0-7.9-2.7-12.6,2.9c-0.8,1.1-3.7,4.2-3.7,4.2"/>
		<line class="st7" x1="193.8" y1="321.1" x2="180.7" y2="324.9"/>
		<path class="st6" d="M179.9,339.2c0,0,2-8.8,1.6-14.5s-1.6-9.7-1.6-9.7l-10.6-26.3"/>
		<circle class="st6" cx="196.2" cy="356.2" r="7.1"/>
		<circle class="st7" cx="196.2" cy="356" r="6.3"/>
		<polyline class="st7" points="181.3,268.1 190.9,321.9 191.7,335.8 193.8,346.8 190.9,336 189.3,322.2 171.9,249.4 		"/>
		<polyline class="st7" points="161.6,252.3 186.2,323 189.3,336.6 193,347.2 188.5,336.9 184.9,323.7 164,274.2 		"/>
		<path class="st7" d="M208.4,341.7c0,0,2.1,12.2,15.2,23.6c7.1,5.2,12.5,9.4,23.8,12.4c6.6,1.2,13.3,1.2,13.3,1.2"/>
		<path class="st7" d="M200.1,374.3l10-9.7c0,0,1.6-1.2,3.5-1.7c0.6,0,0.6,0.5,0.6,0.5s-0.2,1.9-1.8,3.2c-1.5,1.3-9.9,9.5-9.9,9.5
			s-1.7,1.1-2.4,1.2c-0.6,0.2-0.6-0.5-0.6-0.5S199.5,375.6,200.1,374.3z"/>
		<path class="st7" d="M206.6,378l8-8.8c0,0,1.3-1.1,2.9-1.6c0.5,0,0.6,0.4,0.6,0.4s-0.1,1.6-1.3,2.9c-1.2,1.2-8,8.7-8,8.7
			s-1.4,1-2,1.2c-0.5,0.2-0.6-0.4-0.6-0.4S206.1,379.1,206.6,378z"/>
		<path class="st7" d="M213.2,381.6l6.8-8.9c0,0,1.1-1.2,2.6-1.7c0.5-0.1,0.5,0.3,0.5,0.3s0,1.5-1,2.8c-1.1,1.2-6.8,8.8-6.8,8.8
			s-1.3,1.1-1.8,1.3s-0.6-0.4-0.6-0.4S212.8,382.7,213.2,381.6z"/>
		<path class="st7" d="M221.3,383.4l5.2-8.6c0,0,0.9-1.1,2.1-1.8c0.4-0.1,0.5,0.2,0.5,0.2s0.2,1.4-0.6,2.6s-5.2,8.4-5.2,8.4
			s-1,1.1-1.4,1.3c-0.4,0.2-0.5-0.3-0.5-0.3S221,384.4,221.3,383.4z"/>
		<path class="st7" d="M228.9,384.1l3.9-7.5c0,0,0.7-1,1.7-1.6c0.4-0.1,0.5,0.2,0.5,0.2s0.2,1.1-0.4,2.2c-0.6,1.1-3.9,7.4-3.9,7.4
			s-0.8,0.9-1.1,1.2s-0.5-0.2-0.5-0.2S228.7,385,228.9,384.1z"/>
		<path class="st7" d="M236.4,385.2l2.2-6.6c0,0,0.4-0.9,1.2-1.5c0.3-0.1,0.4,0.1,0.4,0.1s0.3,0.9,0,1.8c-0.4,0.9-2.2,6.5-2.2,6.5
			s-0.5,0.9-0.8,1.1c-0.2,0.2-0.4-0.1-0.4-0.1S236.5,385.9,236.4,385.2z"/>
		<path class="st7" d="M242.9,379.3v6.9l15.8-1.6c0,0,1-0.6,0.4-1C258.5,383.1,242.9,379.3,242.9,379.3z"/>
		<path class="st4" d="M228.4,357.3l4.2-2.1c0,0,1.5-0.7,3.8-0.3c2.3,0.4,3.4,0.7,3.4,0.7s1.1,0.5,0.5,1.2c-0.6,0.8-0.6,1-0.6,1
			l8.5,0.4c0,0,0.2-1.3,1.5-1.3c1.5,0.1,28,0.7,28,0.7s1.1,0.3,1.7,1.7c0.6,1.5,3.2,9.4,3.2,9.4s0.7,2.2-0.7,2.9
			c-1.4,0.6-1.9,0-1.9,0l-0.7-0.8c0,0-0.5-0.6-2,0.3c-1.5,0.9-1.9,0.7-1.9,0.7s-0.9,0.4-2.4-0.8c-1.5-1.2-1.5-1.2-1.5-1.2
			s-0.6-0.9-1.9-0.6c-1.3,0.3-4.6,0.5-4.6,0.5s-6.7,1.3-9.3-1.5c-0.7-0.4-1.7-0.7-2.9-0.5s-5,0.9-5,0.9v-2.5l-9.4,0.1v-1.2
			C238.4,365.1,234.9,362.9,228.4,357.3z"/>
		<line class="st5" x1="238.4" y1="365.1" x2="239.6" y2="357.8"/>
		<line class="st5" x1="235.3" y1="354.8" x2="234.9" y2="363.2"/>
		<line class="st6" x1="248.4" y1="358.2" x2="247.7" y2="366.4"/>
		<polyline class="st6" points="248.6,357.3 250.9,360.1 276.7,360.7 278.6,358.2 		"/>
		<polyline class="st6" points="248,368.7 250.6,365.9 250.9,360.1 		"/>
		<path class="st6" d="M276.7,360.7l3,7.4c0,0-2.8,0.3-3.3,0.6c-0.5,0.4-0.9,0.5-0.9,0.5s-0.6,0.3-1.2-0.2c-0.6-0.4-2.9-2.4-5.2-2.1
			c-2.3,0.3-5.9,0.9-5.9,0.9s-3.3,0.5-5.6-0.9c-1.8-1.2-7.1-1.1-7.1-1.1"/>
	</g>
	<g>
		<g>
			<g>
				<line class="st10" x1="45.1" y1="398.5" x2="165" y2="398.5"/>
				<polygon class="st11" points="52.1,397.8 45.1,385.3 59,385.3 				"/>
			</g>
			<line class="st10" x1="52.1" y1="8.8" x2="52.1" y2="387.5"/>
			<g>
				<polygon class="st11" points="51.8,6.9 44.8,18.5 58.7,18.5 				"/>
				<line class="st10" x1="44.8" y1="6.5" x2="150.9" y2="6.5"/>
			</g>
		</g>
		<g>
			<polygon class="st11" points="478.9,580.4 494,580.4 486.4,592.4 			"/>
		</g>
		<line class="st10" x1="486.6" y1="581" x2="486.6" y2="326.5"/>
		<g>
			<polygon class="st11" points="479,338.2 494.1,338.2 486.6,325.5 			"/>
			<line class="st10" x1="387.8" y1="325.6" x2="494.3" y2="325.6"/>
		</g>
		<g>
			<g>
				<polygon class="st11" points="479,404.9 494.1,404.9 486.6,392.2 				"/>
			</g>
			<polygon class="st11" points="479,381 494.1,381 486.6,393.8 			"/>
			<line class="st10" x1="429.7" y1="392.7" x2="494.1" y2="392.7"/>
		</g>
		<g>
			<g>
				<line class="st10" x1="279.7" y1="593.5" x2="541.2" y2="593.5"/>
				<polygon class="st11" points="525.5,580.2 541.2,580.2 533.4,592.4 				"/>
			</g>
			<line class="st10" x1="533.4" y1="581.8" x2="533.4" y2="275.7"/>
			<g>
				<polygon class="st11" points="525.5,279.7 541.1,279.7 533.3,268.4 				"/>
				<line class="st10" x1="383.1" y1="268" x2="541.1" y2="268"/>
			</g>
		</g>
		<g>
			<g>
				<line class="st10" x1="435" y1="432.6" x2="435" y2="383"/>
				<polygon class="st11" points="434.3,425.6 421.7,432.6 421.7,418.7 				"/>
			</g>
			<line class="st10" x1="210.5" y1="425.8" x2="431.8" y2="425.8"/>
			<g>
				<polygon class="st11" points="202.3,425.9 214.9,432.9 214.9,419 				"/>
				<line class="st10" x1="201.9" y1="432.9" x2="201.9" y2="403.5"/>
			</g>
		</g>
		<g id="texto_43_">
			<rect x="27.9" y="173" class="st13" width="44" height="18.7"/>
			<text transform="matrix(1 0 0 1 32.003 187.0459)" class="st27 st28 st29">82cm</text>
		</g>
		<g id="texto_42_">
			<rect x="352.7" y="416.1" class="st13" width="44" height="18.7"/>
			<text transform="matrix(1 0 0 1 356.8419 430.168)" class="st27 st28 st29">53cm</text>
		</g>
		<g id="texto_41_">
			<rect x="444.7" y="498.6" class="st13" width="64.4" height="18.7"/>
			<text transform="matrix(1.0849 0 0 1 444.8087 512.6416)" class="st27 st28 st29">39-49cm</text>
		</g>
		<g id="texto_40_">
			<rect x="453" y="349.8" class="st13" width="64.4" height="18.7"/>
			<text transform="matrix(1.0849 0 0 1 466.2364 363.9023)" class="st27 st28 st29">12cm</text>
		</g>
		<g id="texto_39_">
			<rect x="502.8" y="427" class="st13" width="68.6" height="18.7"/>
			<text transform="matrix(1.128 0 0 1 503.8556 441.123)" class="st27 st28 st29">66-73cm</text>
		</g>
	</g>
</g>
</svg>
