<?xml version="1.0" encoding="utf-8"?>
<!-- Generator: Adobe Illustrator 23.0.1, SVG Export Plug-In . SVG Version: 6.00 Build 0)  -->
<svg version="1.1" id="Camada_1" xmlns="http://www.w3.org/2000/svg" xmlns:xlink="http://www.w3.org/1999/xlink" x="0px" y="0px"
	 viewBox="0 0 600 600" style="enable-background:new 0 0 600 600;" xml:space="preserve">
<style type="text/css">
	.st0{fill:#FFFFFF;stroke:#030304;stroke-width:0.8328;stroke-miterlimit:10;}
	.st1{fill:none;stroke:#030304;stroke-width:0.8328;stroke-miterlimit:10;}
	.st2{fill:none;stroke:#030304;stroke-width:0.4164;stroke-miterlimit:10;}
	.st3{fill:none;stroke:#020203;stroke-miterlimit:10;}
	.st4{fill:#FFFFFF;stroke:#020203;stroke-miterlimit:10;}
	.st5{fill:none;stroke:#020203;stroke-width:0.75;stroke-miterlimit:10;}
	.st6{fill:none;stroke:#020203;stroke-width:0.5;stroke-miterlimit:10;}
	.st7{fill:none;stroke:#020203;stroke-width:0.25;stroke-miterlimit:10;}
	.st8{fill:#FFFFFF;stroke:#020203;stroke-width:0.75;stroke-miterlimit:10;}
	.st9{fill:#FFFFFF;}
	.st10{fill:none;stroke:#E52522;stroke-width:1.5;stroke-miterlimit:10;}
	.st11{fill:#E52522;}
	.st12{fill:#FFFFFF;stroke:#020203;stroke-width:0.5;stroke-miterlimit:10;}
	.st13{fill:#E7E6E6;}
	.st14{fill:#E52622;}
	.st15{font-family:'Roboto-Medium';}
	.st16{font-size:14.3488px;}
	.st17{fill:#FFFFFF;stroke:#020203;stroke-linejoin:round;}
	.st18{fill:none;stroke:#020203;stroke-linejoin:round;}
	.st19{fill:none;stroke:#E52624;stroke-width:1.5;stroke-miterlimit:10;}
	.st20{fill:#E52624;}
	.st21{clip-path:url(#SVGID_2_);}
	.st22{fill:none;stroke:#020203;stroke-width:0.5461;stroke-miterlimit:10;}
	.st23{fill:none;stroke:#E52624;stroke-width:1.5296;stroke-miterlimit:10;}
	.st24{fill:none;stroke:#E52624;stroke-width:1.8398;stroke-miterlimit:10;}
	.st25{fill:none;stroke:#E52624;stroke-width:1.4398;stroke-miterlimit:10;}
	.st26{fill:none;stroke:#E52624;stroke-width:1.5364;stroke-miterlimit:10;}
	.st27{fill:none;stroke:#E52624;stroke-width:1.4292;stroke-miterlimit:10;}
	.st28{fill:none;stroke:#E52624;stroke-width:1.5549;stroke-miterlimit:10;}
	.st29{clip-path:url(#SVGID_4_);}
</style>
<g>
	<g id="base_5_">
		<g>
			<path class="st0" d="M283.8,470.9l-38.5-5.6c0,0-0.9-1.3-2-1.5c-1.1-0.2-14.9-2.1-14.9-2.1l-4.9,0c0,0-1.4,0.4-2,1.8l-1,1.8
				l-1.3,2.5l-0.7,10.3c0,0,3.3,1.5,10.2,1c0,0,4.2-0.4,5-1.7l18.5,5.3l-54.7,11.6l-1.2-0.7l-33.3,7.1l-0.4,1.1c0,0-1.4,0-2.2,1.6
				l-1,15.2l6.1,1.9l8-1.2c0,0,2.3-0.5,3.1-2.3l0-3.8l93.8-14.2c0,0,15.6-1.4,17.8,4l2.7,45.5l8.5,1.7l9.8-1.8l-0.3-45.6
				c0,0-0.9-5.2,16.3-4.3l95.4,13l0,3.2c0,0-0.1,1.9,3.1,2.7c3.2,0.9,8.3,1.2,8.3,1.2l5.9-2.2l-1.1-13.9c0,0,0-2.3-2.1-2.8l-0.8-1.2
				l-33.8-6.6l-0.9,0.9L343.7,482l17.2-5.4c0,0,1.3,2.1,10.1,1.5c0,0,4.5-0.4,5.2-1.4l-0.6-9.7l-3.1-6.2c0,0-1-1.1-3.3-0.9l-16,2.3
				c0,0-2.6,0.6-4.1,2l-36.1,6.2"/>
			<path class="st0" d="M304.8,441.8c0,0,4.5,0.7,4.9,1.8l0.3,3.8c0,0,0.9,0.1,0.9,0.6l0.3,3c0,0,1.1,0.2,1.1,1.1
				c0,0.9,0.4,18.8,0.4,18.8l0,2.9c0,0,0.9,0.4,0.7,1.5c-0.2,1.1-1.2,4.6-15.6,4.6c0,0-11.9-0.1-14.5-3.8c0,0-0.4-0.8,0.5-2.1
				l0.7-22.2c0,0,0.3-0.6,1.1-1.1l0.2-2.7c0,0,0.3-0.7,0.9-0.9l0.3-3.8c0,0,2.4-1.7,6-1.5l0,0.9c3.8,1.3,7.7,1.2,11.7,0.1
				L304.8,441.8z"/>
			<path class="st1" d="M310.5,447.9c0,0-13.9,5.7-24.2-0.1"/>
			<path class="st1" d="M311.6,451.4c0,0-0.8,4.4-14.2,4.1c-13.4-0.3-12.5-4.6-12.5-4.6"/>
			<path class="st1" d="M374.2,464.9c0,0,0.1,0.8-0.4,1c-0.6,0.2-14.2,3.3-14.2,3.3s-0.9,0.1-1.3-0.4c-0.4-0.5-2-3.6-2-3.6
				s-0.8-1.5-1.8-1.2c0,0-3.7,0.4-5.1,0.5"/>
			<path class="st1" d="M245.1,465.4c0,0-0.9,0.1-1.8-0.2c-1-0.3-3.2-1.1-4.4,0.4c-1.1,1.4-1.3,2.8-1.3,2.8s-0.2,2-2.1,1.7
				c-1.9-0.3-14.6-2.6-14.6-2.6s-0.9-0.4-0.8-1.2"/>
			<path class="st1" d="M162.4,502.2c0,0,1.8,0.1,3.2,3.5c0,0,0.7,2,2.8,1.7l31.5-6.3c0,0,1.4,0,1.2-1.7c0,0-0.3-2.2-1-2.5
				c-0.7-0.3-2.6-2.2-2.6-2.2"/>
			<path class="st1" d="M307.3,534.1l-3.4-2.2c0,0-0.6-0.7-2-0.6c-1.4,0.1-3.4,0.1-3.4,0.1s-1.3-0.2-2.5,0.7
				c-1.3,0.9-3.4,2.4-3.4,2.4l-1.3-14.7l0.4-1.5c0,0,1.5-2.6,3.9-3.1l6.5-0.2c0,0,1.7,0,3.2,1.2c1.5,1.2,2.3,2.2,2.3,2.2l0.1,15.9
				L307.3,534.1z"/>
			<path class="st1" d="M435,500.2c0,0-1.9,0.8-3.2,4.1c0,0-0.8,2-3.3,1.4c-2.5-0.5-31.1-5.2-31.1-5.2s-1.2-0.5-1-1.5
				c0.2-1,0.4-2.6,0.4-2.6l1.8-2.2l1.2-1"/>
			<polyline class="st1" points="436.5,501 431.5,507 431.9,519 			"/>
			<path class="st1" d="M431.2,507l-102-16.7c0,0-14.1-2.1-20.9,3.4l0.7,42.9"/>
			<line class="st1" x1="294.1" y1="479.6" x2="295.4" y2="515.2"/>
			<line class="st1" x1="302.9" y1="479.6" x2="302.7" y2="515"/>
			<polyline class="st1" points="160.9,502.8 166.4,509.6 166.2,520.3 			"/>
			<path class="st1" d="M166.9,509.6l104.1-19.5c0,0,14.5-2.8,17.9,3.3l3.2,41.1"/>
			<line class="st1" x1="201.1" y1="496.8" x2="285.7" y2="477.9"/>
			<line class="st1" x1="252.2" y1="482.7" x2="283.6" y2="475.7"/>
			<line class="st1" x1="283.6" y1="473.8" x2="238.6" y2="465.9"/>
			<line class="st1" x1="269.3" y1="478.7" x2="219.9" y2="467.9"/>
			<path class="st1" d="M233.4,477.4l-9.2-2.7c0,0-1.6-0.7-2.3,0.3"/>
			<line class="st1" x1="343.8" y1="481.9" x2="313.7" y2="475.6"/>
			<line class="st1" x1="328.5" y1="478.4" x2="375.2" y2="467"/>
			<path class="st1" d="M361.1,476.6l9.5-3.1c0,0,1.9-0.5,2.3,0.1"/>
			<polyline class="st1" points="305.7,549.7 305.7,555.8 304.9,556.5 304.6,583.5 295.3,583.5 295.5,556.1 294.5,555.6 
				294.4,549.6 			"/>
			<path class="st1" d="M305.6,550.4c0,0-6.2,3.5-11-0.1"/>
			<path class="st1" d="M294.5,555.6l-5,0.1c0,0-1.9-0.1-1.9,1.5c0,1.7-0.3,33.4-0.3,33.4s0.1,1.5,0.9,1.5c0.9,0,5.9,0.1,5.9,0.1
				s1.4-0.9,1.3-4.5c-0.1-3.5,0-3.9,0-3.9"/>
			<path class="st1" d="M305.7,555.8l5.3,0c0,0,1.7-0.3,1.7,1.8c0,2.2-0.1,33.2-0.1,33.2s0,1.5-1.9,1.5c-1.9,0-5.3,0-5.3,0
				s-0.7-0.1-0.9-0.7s0-8.1,0-8.1"/>
			<path class="st1" d="M178.2,545.2c0,0,2.7-10.5-5.8-15.6c-8.6-5.1-18.3,2.2-20.4,6.4c-2.1,4.1-7.6,15.7,3.3,22
				C166.2,564.4,177.3,551.3,178.2,545.2z"/>
			<path class="st1" d="M173.6,519.7c0,0-0.4,2-4.7,2.1c-4.3,0.1-5.1-0.1-5.7-1.7"/>
			<line class="st1" x1="173.6" y1="520.2" x2="173.5" y2="530.8"/>
			<path class="st1" d="M162.8,520.1l0,4.5c0,0,7.9,0.6,10.5,5.4"/>
			<path class="st1" d="M162.6,523.1c0,0-3.3-1.8-7.8-0.3s-8.4,3.4-11.9,11c-3.5,7.6,0.6,13.9,0.6,13.9s3.1,4.8,8.1,7.3"/>
			<path class="st1" d="M170.5,527c0,0-10.5-3.5-17.6,3.8c-7.1,7.3-6.1,13.6-6.1,13.6s0,5.6,3.3,9.6"/>
			<path class="st1" d="M162.5,524c0,0-7.7-1.1-13.3,4.6s-5.8,12.2-5.8,12.2s-0.6,6.7,5.2,12"/>
			<line class="st1" x1="147.1" y1="547.9" x2="144.4" y2="546.2"/>
			<path class="st1" d="M175.6,543.8c0,0,1.2-10.5-8.2-11.9c-9.3-1.4-13.8,8.9-13.8,8.9s-4.4,11.9,5.6,15
				C169.9,559.2,175.5,547.2,175.6,543.8z"/>
			<path class="st1" d="M169.9,543.3c0,0,0,5.3-5.7,6.7c-5.7,1.4-4.9-6.7-4.9-6.7s1.3-4.7,6-4.8
				C169.9,538.3,169.9,543.3,169.9,543.3z"/>
			<path class="st1" d="M167,538.7c0,0-1.2-1-1.8-0.9c-0.6,0.1-3.8-0.7-6,2.8c-2.9,4.6,1.6,8.9,1.6,8.9"/>
			<polyline class="st2" points="173.2,535.5 172.3,535.8 168,538.7 167.3,538.3 169.9,534.4 171.6,533.5 			"/>
			<path class="st2" d="M169.9,532.7l-1,0.7l-2.3,3.5c0,0-1.1,0.2-1.1-0.5c0,0,0,0,0,0l0.8-3.2l0.8-1.1"/>
			<path class="st2" d="M165.8,531.7l-0.6,1.1l-0.9,3.5c0,0-0.7,0.8-1.2,0.2l-0.6-3.2l0.2-1.1"/>
			<path class="st2" d="M161.2,532.9l-0.1,0.8l0.5,3.5c0,0-0.5,0.7-1,0.6l-1.6-2.6l-0.3-0.9"/>
			<path class="st2" d="M157.6,535.4l0.2,0.8l1.6,2.3c0,0,0,1.1-1,1l-2.7-1.9"/>
			<path class="st2" d="M154.7,539.2l2.8,1.5c0,0,0.8,1.3-0.4,1.4l-3.6-0.9"/>
			<path class="st2" d="M153,543.6l3.4-0.2c0,0,1.5,0.5,0.2,1.4l-4,1.6"/>
			<path class="st2" d="M153.6,551l1-1.3l2.9-2.4c0,0,0.6-1.4-0.6-1.1s-4.1,2.2-4.1,2.2"/>
			<path class="st2" d="M156.9,554.7l0.1-1.5c0,0,0.1-0.9,0.5-1.4c0.4-0.6,1.4-2.1,1.4-2.1s0.6-1.9-1.2-1.2l-2.4,2.8l-0.8,1.4"/>
			<path class="st2" d="M161.1,556.1l-0.4-1.5c0,0-0.3-1.1,0.1-1.9l0.6-2.1c0,0-0.3-1.3-1.4-0.5l-1.1,2.2c0,0-0.5,0.8-0.5,1.5
				l-0.1,1.4"/>
			<path class="st2" d="M165.5,555.9l-0.8-1.2c0,0-0.6-0.8-0.5-1.7l-0.4-2.8"/>
			<polyline class="st2" points="162.8,550.3 161.9,553.8 162.5,556.1 			"/>
			<polyline class="st2" points="169.8,553.6 168.7,552.7 166.6,549.3 			"/>
			<polyline class="st2" points="165.3,549.9 165.9,553.7 167.7,555.1 			"/>
			<polyline class="st2" points="172.9,550.1 171.6,548.9 168.8,547.2 			"/>
			<polyline class="st2" points="167.7,548.5 169.6,551.1 170.6,552.6 			"/>
			<path class="st2" d="M173.7,548.5l-1-0.7c0,0-0.7-0.5-1.4-0.7c-0.7-0.2-1.8-1-1.8-1"/>
			<polyline class="st2" points="169.9,544.7 172.2,544.9 174.8,545.7 			"/>
			<polyline class="st2" points="175.4,543.9 172.9,543.3 170.2,543.2 			"/>
			<polyline class="st2" points="169.9,542.1 173.6,540.9 175.3,540.9 			"/>
			<polyline class="st2" points="175.1,539.1 173.3,539.3 169.6,540.6 			"/>
			<polyline class="st2" points="169.1,539.7 172.1,537.3 174,536.9 			"/>
			<path class="st1" d="M418.4,543.8c0,0-2.6-10.5,6-15.5c8.6-5,18.3,2.5,20.3,6.6c2.1,4.2,7.4,15.8-3.6,22
				C430.2,563.1,419.3,549.8,418.4,543.8z"/>
			<path class="st1" d="M423.4,518.3c0,0,0.4,2,4.7,2.1c4.3,0.2,5.1,0,5.7-1.6"/>
			<line class="st1" x1="423.4" y1="518.8" x2="423.3" y2="529.3"/>
			<path class="st1" d="M434.1,518.8l0,4.5c0,0-7.9,0.5-10.6,5.2"/>
			<path class="st1" d="M434.3,521.9c0,0,3.3-1.8,7.8-0.3c4.5,1.5,8.4,3.5,11.8,11.2c3.4,7.6-0.8,13.9-0.8,13.9s-3.2,4.7-8.2,7.2"/>
			<path class="st1" d="M426.3,525.6c0,0,10.6-3.4,17.6,4c7,7.3,6,13.7,6,13.7s0,5.6-3.4,9.5"/>
			<path class="st1" d="M434.4,522.7c0,0,7.8-1,13.2,4.8c5.4,5.8,5.6,12.3,5.6,12.3s0.6,6.7-5.4,11.9"/>
			<line class="st1" x1="449.4" y1="546.7" x2="452.2" y2="545.2"/>
			<path class="st1" d="M421.1,542.4c0,0-1-10.5,8.3-11.8c9.4-1.3,13.7,9.1,13.7,9.1s4.2,11.9-5.8,14.9
				C426.5,557.8,421.1,545.8,421.1,542.4z"/>
			<path class="st1" d="M426.7,541.9c0,0-0.1,5.3,5.6,6.7c5.7,1.5,5-6.6,5-6.6s-1.3-4.7-5.9-4.9S426.7,541.9,426.7,541.9z"/>
			<path class="st1" d="M429.7,537.3c0,0,1.2-1,1.8-0.9c0.6,0.1,3.8-0.7,6,2.9c2.9,4.6-1.7,8.9-1.7,8.9"/>
			<polyline class="st2" points="423.5,534.1 424.5,534.4 428.7,537.3 429.4,536.9 426.8,533 425.2,532.1 			"/>
			<path class="st2" d="M426.8,531.3l1,0.8l2.2,3.5c0,0,1.1,0.3,1.1-0.5c0,0,0,0,0,0l-0.8-3.3l-0.8-1.1"/>
			<path class="st2" d="M431,530.4l0.6,1.1l0.8,3.6c0,0,0.7,0.8,1.2,0.2l0.6-3.2L434,531"/>
			<path class="st2" d="M435.5,531.6l0.1,0.8l-0.6,3.5c0,0,0.5,0.7,1,0.6l1.6-2.6l0.3-0.9"/>
			<path class="st2" d="M439.1,534.2l-0.2,0.8l-1.6,2.2c0,0,0,1.1,1,1l2.7-1.9"/>
			<path class="st2" d="M442,538l-2.9,1.5c0,0-0.8,1.3,0.4,1.4l3.6-0.8"/>
			<path class="st2" d="M443.6,542.5l-3.4-0.2c0,0-1.5,0.5-0.3,1.4l4,1.7"/>
			<path class="st2" d="M442.9,549.8l-1-1.3L439,546c0,0-0.6-1.4,0.6-1.1c1.2,0.2,4,2.3,4,2.3"/>
			<path class="st2" d="M439.6,553.5l-0.1-1.5c0,0-0.1-0.9-0.5-1.4c-0.4-0.6-1.4-2.1-1.4-2.1s-0.6-1.9,1.2-1.1l2.3,2.8l0.7,1.4"/>
			<path class="st2" d="M435.4,554.8l0.4-1.5c0,0,0.3-1.1-0.1-1.9l-0.6-2.1c0,0,0.3-1.3,1.4-0.5l1.1,2.2c0,0,0.5,0.8,0.5,1.5
				l0.1,1.4"/>
			<path class="st2" d="M431,554.6l0.8-1.2c0,0,0.6-0.8,0.5-1.7l0.4-2.8"/>
			<polyline class="st2" points="433.8,549 434.6,552.5 433.9,554.9 			"/>
			<polyline class="st2" points="426.7,552.3 427.8,551.3 430,548 			"/>
			<polyline class="st2" points="431.3,548.6 430.6,552.4 428.8,553.7 			"/>
			<polyline class="st2" points="423.7,548.6 425,547.5 427.7,545.8 			"/>
			<polyline class="st2" points="428.9,547.1 427,549.7 426,551.2 			"/>
			<path class="st2" d="M422.8,547.1l1-0.7c0,0,0.7-0.5,1.4-0.7c0.7-0.2,1.9-1,1.9-1"/>
			<polyline class="st2" points="426.8,543.3 424.5,543.5 421.8,544.3 			"/>
			<polyline class="st2" points="421.2,542.4 423.7,541.9 426.5,541.8 			"/>
			<polyline class="st2" points="426.8,540.7 423,539.5 421.3,539.4 			"/>
			<polyline class="st2" points="421.6,537.7 423.4,537.9 427.1,539.2 			"/>
			<polyline class="st2" points="427.6,538.3 424.6,535.9 422.7,535.5 			"/>
			<polyline class="st1" points="287.3,567 286.6,567 286.5,580.2 287.1,580.2 			"/>
			<polyline class="st1" points="313,567.5 313.7,567.5 313.6,580.7 313,580.7 			"/>
			<path class="st1" d="M231.1,478.9c0,0,0,1.8-4.6,1.9c-4.7,0.1-4.2-1.7-4.2-1.7"/>
			<line class="st1" x1="231.2" y1="479.1" x2="231.1" y2="486.9"/>
			<path class="st1" d="M221.9,479.1l-0.2,4.8c0,0,2.5,1.6,4.3,4.3"/>
			<path class="st1" d="M231.3,482c0,0,2.6,1.9,3.4,4.2"/>
			<path class="st1" d="M221.7,479.7l-12.8,4.7c0,0-3.8,1.8-4.8,8.4"/>
			<path class="st1" d="M221.7,483.9c0,0-3.4-2.3-6.8-1.8"/>
			<path class="st1" d="M218.5,489.7c0,0-2.1-3.2-5.6-3s-5.9,2.9-6.6,5.6"/>
			<line class="st1" x1="216.7" y1="488.1" x2="216.5" y2="490"/>
			<polyline class="st1" points="215,487.2 215.5,488.3 215.3,490.3 			"/>
			<polyline class="st1" points="213.1,486.8 213.9,487.8 214.6,490.4 			"/>
			<polyline class="st1" points="211.7,487 212.6,488.1 213.3,490.7 			"/>
			<polyline class="st1" points="212.8,490.8 211.6,488.9 210,487.6 			"/>
			<polyline class="st1" points="208.7,488.5 210.4,489.6 211.5,491.1 			"/>
			<polyline class="st1" points="210.4,491.5 208.9,490.4 207.4,490 			"/>
			<polyline class="st1" points="208.6,491.8 207.9,491.4 206.7,491.4 			"/>
			<path class="st1" d="M232.1,505.1c0,0-2.2,2.5-6.8,2.4"/>
			<path class="st1" d="M229.1,505.5c0,0-0.4,1.5-3.7,2.1c0,0-3.1,2.9-8,3.4c-4.9,0.5-7.1-2.4-7.1-2.4"/>
			<path class="st1" d="M224,506.5c0,0-1.4,2.6-6.4,4.6"/>
			<path class="st1" d="M226.3,505.9c0,0-0.3,0.8-0.8,1.6"/>
			<path class="st1" d="M370.9,487.5c-0.1-2.1,1.5-5.6,1.5-5.6l-0.2-3.6c0,0-0.4,1.9-5,1.6c-4.6-0.3-3.7-2-3.7-2l-0.4,5.2
				c0,0,0,2.1,0.5,3"/>
			<path class="st1" d="M372.5,479.6l7.4,0.7c0,0,3.3,1.1,3,9.3"/>
			<path class="st1" d="M376.2,488.4c0,0,0.1-6.5,3.6-8"/>
			<path class="st1" d="M363.2,478.6l-1.3-0.1c0,0-3.3,0.8-3.9,6.3"/>
			<path class="st1" d="M372.4,481.8c0.3-0.3,1.6-1.7,2.3-1.9"/>
			<path class="st1" d="M377.7,488.7c0,0,0.1-3.9,2.5-5.2c2.4-1.3,2.3,6.2,2.3,6.2"/>
			<path class="st1" d="M381.7,484.7l-1.7,0.8c0,0-0.8,0.6-1,1.5c-0.2,0.9-0.4,1.9-0.4,1.9"/>
			<path class="st1" d="M382.4,487.5c0,0-1.8,0-2.5,0.9l-0.3,0.7"/>
			<path class="st1" d="M379.5,506.3c0,0-0.9,1.8-2.1,2c-1.2,0.2-5.5-0.5-5.5-0.5s-1.3-1.7-1.5-2.7"/>
			<path class="st1" d="M375,505.7c0,0,0.3,2.2,2.3,2.7"/>
			<path class="st1" d="M366.3,504.5c0,0-0.5,2-2.4,2.4l-4.8-0.4c0,0-2.3-1.5-2.1-3.1"/>
			<path class="st1" d="M361.6,503.9c0,0,0.3,2.5,2.2,3.1"/>
		</g>
		<path class="st3" d="M287,443.3c0,0,10.1,6,22.5,0.2"/>
	</g>
	<g id="frog_5_">
		<path class="st4" d="M338.5,388c1,1.3,0.7,5.6,0.7,5.6s71.7,3.9,73.2,4.1c1.5,0.2,1.5,1.7,1.6,2.7c0.4,6.2-2.4,14.6-3.5,16.3
			c-1.1,1.7-3.3,1.5-3.3,1.5s-0.9,0-6-0.3c-17.4-2.4-25.5-11.7-25.5-11.7l-45.8-0.6v-1.5l-12.2,13.1l-3.9,2.7c0,0-0.2,2.5-0.4,3
			c-0.2,0.5-1.3,1-1.3,1l-1.4,24.3l-3.9,2.3c-8.4,1.7-15.8,0-15.8,0l-3.7-2.7c0,0-0.9-22.3-1-23.9c-1.5-0.9-1.6-2.4-1.6-2.4
			l-2.3-4.5c0,0-13-12.3-13.8-12.9c-0.1,0.9-0.7,1-0.7,1l-44.9-2c0,0,0,0-3.3,2.3c-13.7,7.6-24.9,6.8-28.5,6.8
			c-3.7,0-3.7-1.5-4.3-2.6c-2.9-8.8-1.5-12.2-1.3-15c0.2-2.8,2.9-2.3,2.9-2.3h70.2c0,0-0.3-2.7,0.3-4.6"/>
		<path class="st5" d="M185.5,394.6c0,0,22.8,1.8,37.8,5.5c1,0.3,1.8,1.1-0.4,3"/>
		<path class="st5" d="M414,400.4c0,0-21.5,0.2-36.6,2.5c-2.9,0.3-4.1,1.3-2.1,3.3"/>
		<path class="st6" d="M258.7,392.3c0,0,0.7,4,1.7,4.2c0-1.1-0.5-8.9-0.5-8.9"/>
		<path class="st6" d="M261.5,387.6l0.3,9.6c0,0,0.3,2.2,0.6,2.6"/>
		<path class="st6" d="M264.8,387.7l0.5,11.9l-3.8,0.1c0,0-0.7,0.2-0.8-1c0-1.1-0.3-2.3-0.3-2.3"/>
		<path class="st5" d="M339.2,392.7c0,0-0.7,4-1.9,4.2c0-1.1,0.5-8.9,0.5-8.9"/>
		<path class="st5" d="M336.1,388.1l-0.4,9.6c0,0-0.3,2.2-0.7,2.6"/>
		<path class="st5" d="M332.4,388.2l-0.6,11.9l4.3,0.1c0,0,0.8,0.2,0.9-1s0.3-2.3,0.3-2.3"/>
		<path class="st3" d="M268.6,404.1c0,0-3-2.8-3.3-4.5"/>
		<path class="st5" d="M265.2,397c0,0,0.5,3,1.9,4s10.5,8.5,10.5,8.5l1.7,4.5"/>
		<line class="st6" x1="265.2" y1="394.3" x2="331.8" y2="395"/>
		<line class="st6" x1="266.1" y1="399.8" x2="331.8" y2="399.8"/>
		<line class="st6" x1="277.6" y1="409.6" x2="320.5" y2="409.6"/>
		<line class="st5" x1="278.7" y1="412.6" x2="319.2" y2="412.6"/>
		<path class="st5" d="M331.8,400.1L320,410.2c0,0-0.6,2.8-1.5,3.6c-0.9,0.8-4.3,3.6-4.3,3.6l-0.4,2.6"/>
		<line class="st3" x1="329.8" y1="404.2" x2="332" y2="400.1"/>
		<line class="st3" x1="282.3" y1="417" x2="284.5" y2="418.5"/>
		<path class="st6" d="M284.5,421v-4c0,0,2.5-3.4,13.2-3.5c12.8,0,16.5,3.8,16.5,3.8"/>
		<path class="st6" d="M285.1,422.7c0,0,0.1-3.9,8.2-4.2c8.1-0.3,13,0.5,13,0.5s5.7,0.7,7,3.7"/>
		<path class="st3" d="M312,424v-2.5c0,0-4.6,1-13.3,1.2s-12.4-1.2-12.4-1.2l-0.1,2.4"/>
		<polyline class="st7" points="287.7,448.2 287.2,426.7 287.7,426.9 288.1,448.2 		"/>
		<polyline class="st7" points="289.1,449.3 288.8,427.1 289.6,427.1 289.9,449.6 		"/>
		<polyline class="st7" points="291.5,449.7 291.5,427.5 292.3,427.5 292.3,449.7 		"/>
		<polyline class="st7" points="294,449.7 294,427.5 295.4,427.5 295.4,449.7 		"/>
		<polyline class="st7" points="297.1,449.7 297.1,427.5 298.5,427.5 298.5,449.7 		"/>
		<polyline class="st7" points="300.4,449.7 300.4,427.5 301.8,427.5 301.8,449.7 		"/>
		<polyline class="st7" points="303.4,449.7 303.4,427.5 304.8,427.5 304.8,449.7 		"/>
		<polyline class="st7" points="306.7,449.7 306.7,427.5 307.8,427.5 307.8,449.7 		"/>
		<polyline class="st7" points="309,449.2 309,427 309.8,427 309.8,449.2 		"/>
		<polyline class="st7" points="310.5,448.5 310.5,426.7 311.2,426.7 311.2,439.4 		"/>
		<path class="st7" d="M308.5,449.6c0,0-17.3,0.6-19.2-0.1"/>
	</g>
	<g id="Braço_10_">
		<path class="st8" d="M184.5,368.2h-7.1c0,0-0.4,1.4-1.6,1.4s-17.9,0.4-17.9,0.4s-2.7-0.1-2.5-2.2c0.1-2.1,1.4-18.9,1.4-18.9
			s0.7-0.8,1.9-1c0.1-1,0.1-2.9,0.1-2.9l-0.8-0.6l-2.9-70.4c0,0,0.2-1.3-1-2.5s-7.6-8.1-7.6-8.1s-8.9-0.4-9.9-0.4s-2.2-0.1-2.2-1.2
			c0-1.1,0-3.6,0-3.6s0.3-1.6,2.3-3c2-1.4,8.4-5.9,8.4-5.9s3.5-2,9.6-2.1c6.1,0,30.7,0.2,30.7,0.2s0.6-0.1,0.9,0.6
			c0.3,0.7,0.4,1.1,0.4,1.1l0.9,0.2l0.4,7.9l-7.8,3.6l-6.9,10.1c0,0-1,1.5-1.1,3.4c-0.1,1.9-0.6,24.2-0.6,24.2l-0.5,32l-0.2,13.2
			l-1,0.7c0,0,0,2,0,2.8c1.5,0.4,1.9,0.7,2.2,1c0.5,13.9,1.1,12.6,1.1,12.6l5.6,0.3v1.3h2.6"/>
		<path class="st6" d="M185.3,247.6c0,0-6.5-0.1-12.2,5c0,0-18,0.1-25.3-0.1c-7.3-0.2-2.8-2.6-2.8-2.6l4-1.8"/>
		<path class="st6" d="M173.1,252.6v1.9l-3.8,2.3c0,0-2.2,1.6-7.7,1.6c-5.5,0-21.7-0.4-21.7-0.4s-4.2-0.2-5-0.8"/>
		<path class="st6" d="M187.5,249.5l-11.2,4.7c0,0-1.9,0.7-3.3,0.3"/>
		<polyline class="st6" points="186.6,249.3 175.7,253.8 173.1,254.5 		"/>
		<path class="st6" d="M146.4,263.5h25c0,0,3.3,0.1,5.3-0.8c2.6-1.2,3.4-1.7,3.4-1.7"/>
		<path class="st6" d="M149.7,267.1c0,0,0.9,0.5,4.4,0.5s16.5-0.3,16.5-0.3s1.9,0.1,3.8-0.6c1.9-0.7,2.7-1.2,2.7-1.2"/>
		<path class="st6" d="M158.7,345.1c0,0,1.9,1.2,6.4,0.4c4.5-0.8,4.7-0.9,4.7-0.9"/>
		<path class="st6" d="M156.7,349c0,0,1.6,1.7,5.1,2c4.1,0.3,8-1.4,8-1.4s1.7-0.6,2.2-1.1"/>
		<path class="st6" d="M158.6,348c0,0-0.5,0.9,0.1,1.2c0.6,0.3,0.7,0.6,2.3,0.9c1.5,0.3,4.3-0.1,4.6-0.1c0,0,0,0,0,0l2.8-0.6
			c0.9-0.2,1.5-1,1.4-1.9l0,0"/>
		<path class="st6" d="M178.7,361.4l-3.6,4c0,0-1,3.2,0.5,4.3"/>
		<path class="st6" d="M178.7,362.7l-2.9,3.1c0,0-1.3,2.6,1.1,3.3"/>
		<path class="st6" d="M175,365.4h-7.5c0,0-2.5-0.3-4.2-2"/>
	</g>
	<g id="Braço_9_">
		<path class="st8" d="M415.5,368.2h7.1c0,0,0.4,1.4,1.6,1.4s17.9,0.4,17.9,0.4s2.7-0.1,2.5-2.2c-0.1-2.1-1.4-18.9-1.4-18.9
			s-0.7-0.8-1.9-1c-0.1-1-0.1-2.9-0.1-2.9l0.8-0.6l2.9-70.4c0,0-0.2-1.3,1-2.5s7.6-8.1,7.6-8.1s8.9-0.4,9.9-0.4c1,0,2.2-0.1,2.2-1.2
			s0-3.6,0-3.6s-0.3-1.6-2.3-3c-2-1.4-8.4-5.9-8.4-5.9s-3.5-2-9.6-2.1c-6.1,0-30.7,0.2-30.7,0.2s-0.6-0.1-0.9,0.6
			c-0.3,0.7-0.4,1.1-0.4,1.1l-0.9,0.2l-0.4,7.9l7.8,3.6l6.9,10.1c0,0,1,1.5,1.1,3.4c0.1,1.9,0.6,24.2,0.6,24.2l0.5,32l0.2,13.2
			l1,0.7c0,0,0,2,0,2.8c-1.5,0.4-1.9,0.7-2.2,1c-0.5,13.9-1.1,12.6-1.1,12.6l-5.6,0.3v1.3h-2.6"/>
		<path class="st6" d="M414.7,247.6c0,0,6.5-0.1,12.2,5c0,0,18,0.1,25.3-0.1c7.3-0.2,2.8-2.6,2.8-2.6l-4-1.8"/>
		<path class="st6" d="M426.9,252.6v1.9l3.8,2.3c0,0,2.2,1.6,7.7,1.6s21.7-0.4,21.7-0.4s4.2-0.2,5-0.8"/>
		<path class="st6" d="M412.5,249.5l11.2,4.7c0,0,1.9,0.7,3.3,0.3"/>
		<polyline class="st6" points="413.4,249.3 424.3,253.8 426.9,254.5 		"/>
		<path class="st6" d="M453.6,263.5h-25c0,0-3.3,0.1-5.3-0.8c-2.6-1.2-3.4-1.7-3.4-1.7"/>
		<path class="st6" d="M450.3,267.1c0,0-0.9,0.5-4.4,0.5s-16.5-0.3-16.5-0.3s-1.9,0.1-3.8-0.6c-1.9-0.7-2.7-1.2-2.7-1.2"/>
		<path class="st6" d="M441.3,345.1c0,0-1.9,1.2-6.4,0.4s-4.7-0.9-4.7-0.9"/>
		<path class="st6" d="M443.3,349c0,0-1.6,1.7-5.1,2c-4.1,0.3-8-1.4-8-1.4s-1.7-0.6-2.2-1.1"/>
		<path class="st6" d="M441.4,348c0,0,0.5,0.9-0.1,1.2c-0.6,0.3-0.7,0.6-2.3,0.9c-1.5,0.3-4.3-0.1-4.6-0.1c0,0,0,0,0,0l-2.8-0.6
			c-0.9-0.2-1.5-1-1.4-1.9l0,0"/>
		<path class="st6" d="M421.3,361.4l3.6,4c0,0,1,3.2-0.5,4.3"/>
		<path class="st6" d="M421.3,362.7l2.9,3.1c0,0,1.3,2.6-1.1,3.3"/>
		<path class="st6" d="M425,365.4h7.5c0,0,2.5-0.3,4.2-2"/>
	</g>
	<g>
		<path class="st8" d="M307.1,7.7c0,0,9.6-0.3,23.7,1.7c14.1,1.9,16.6,8.1,19,12.9c7.1,13.2,17.5,47.5,17.5,47.5l3.4,9.7
			c0,0,4.4,7.4,8.3,11.3c4.2,3.8,17.3,18.5,17.3,18.5l6.7,9.7c0,0,5.3,9.5,4.4,19.3c-1,9.7-4.6,20.2-4.6,20.2l-4.3,11.9
			c0,0-1.8,6.2-2.7,12.8c-2.1,25,6,42.1,6,42.1l4.9,15.8c0,0,1.4,5,2.6,12.5c1.2,7.5,0.7,14.7,0,23.7c-3.1,20-12.7,33.6-14.1,36
			c7.1-0.3,12.2,0,15.5,0.7c10.5,4.1,14,8.9,14,8.9s0.5,0.5,0.8,2.7c-1.6,8.6-4.4,41-5.2,48.4c-0.7,7.5-8.5,13-8.5,13s-5.8,3.3-20,4
			c-0.6,0.8-2.6,4-4.6,4.1c-2,0.1-20.9-1.2-20.9-1.2s-16.8-1.7-22.5-1.7c-16.3-1.1-54.5-0.3-54.5-0.3s-25.3,0.1-30.6,0.4
			c-5.7,0-22.5,1.7-22.5,1.7s-18.9,1.3-20.9,1.2c-2-0.1-4-3.3-4.6-4.1c-14.2-0.7-20-4-20-4s-7.7-5.6-8.5-13
			c-0.7-7.5-3.6-39.9-5.2-48.4c0.3-2.2,0.8-2.7,0.8-2.7s3.4-4.8,14-8.9c3.4-0.7,8.4-1,15.5-0.7c-1.4-2.5-11-16-14.1-36
			c-0.7-9-1.2-16.2,0-23.7c1.2-7.5,2.6-12.5,2.6-12.5l4.9-15.8c0,0,8.1-17.1,6-42.1c-1-6.6-2.7-12.8-2.7-12.8l-4.3-11.9
			c0,0-3.6-10.5-4.6-20.2c-1-9.7,4.4-19.3,4.4-19.3l6.7-9.7c0,0,13.1-14.7,17.3-18.5c3.9-3.9,8.3-11.3,8.3-11.3l3.4-9.7
			c0,0,10.4-34.4,17.5-47.5c2.4-4.8,4.9-11,19-12.9c14.1-1.9,20.6-1.8,20.6-1.8L307.1,7.7z"/>
		<path class="st5" d="M228.1,84.4l2.4,0.6c0,0,3.1,0.7,4.4,4c1.3,3.3,7.8,16.4,12.9,42.3c0.1,4.3-7.8,194.4-7.8,194.4
			s-0.1,2.2,2.5,3.9c-1.2,1.8-5.4,7.6-9.6,10.9c-1.8,0.5-15.5,3.6-15.5,3.6s-6.3,1.4-6,5.2c0.2,3.8,0.6,11.1,0.6,11.1
			s1.1,8.1,1.6,21c0.1,3.3,0.6,7.1,0.6,7.1s1,2.5-3.9,2.5"/>
		<path class="st5" d="M189.8,386.6c0,0,14.4,4.5,24.5,2"/>
		<path class="st5" d="M177.5,323c0,0-1.1,5.5,8.5,12.5c4.6,3,8.7,6.4,25,9.4c1,0.2,1.8,1.6,1.8,1.6"/>
		<path class="st5" d="M207,313.4c0,0,10.4-0.4,22.5,7.1c2.3,1.4,7.7,5.1,10.5,5.2"/>
		<path class="st5" d="M240.2,323c0,0-5.8,0-10.7-4.8c-3.2-3.9-6.1-9-6.1-9s-11-19.7-13.5-43c-0.3-8.5-0.2-10.6-0.2-10.6
			s0.5-22.4,5.9-44.7c1.3-2.5,32.4-79.6,32.4-79.6"/>
		<path class="st5" d="M204,172c0,0-7.5-24.1-7.9-31.4c-0.3-7.3,1.1-11.1,1.1-11.1s2.9-12.3,16-26.1c4.6-4.3,8.3-7.5,8.3-7.5
			s9.7-7.5,11.2-9.9c1.4-2.4,3.4-9.1,3.4-9.1l6.5-31"/>
		<path class="st5" d="M194.6,134.1c0,0,2.2,9.6,9.4,19.7c3,5.8,9.5,16.4,11.9,31.6c0.9,8.9,1.6,16.3-0.4,25.5"/>
		<polyline class="st5" points="247.9,131.4 289.5,131 307.4,131.3 354,131.3 		"/>
		<path class="st5" d="M246.4,176.1c0,0,0.4-1.6,5.2-1.8c4.8-0.2,42.8-0.4,42.8-0.4h11.1c0,0,40,0.2,44.8,0.3
			c4.8,0.2,5.2,1.8,5.2,1.8"/>
		<path class="st5" d="M244.6,211.8c0,0,0.4-1.6,5.1-1.8c4.7-0.2,51.4,0,51.4,0l9.4,0c0,0,36.9-0.2,41.6-0.1
			c4.7,0.2,5.1,1.8,5.1,1.8"/>
		<path class="st5" d="M244.7,216.1c0,0,0.4-1.6,5.1-1.8c4.7-0.2,51.3,0.2,51.3,0.2l8.9-0.1c0,0,37.3-0.3,42-0.1
			c4.7,0.2,5.1,1.8,5.1,1.8"/>
		<path class="st5" d="M242.9,250.8c0,0,0.6-1.2,5.3-1.4c4.7-0.2,53,0.6,53,0.6l8.2,0c0,0,39.8-0.2,44.5,0c4.7,0.2,5.2,0.6,5.2,0.6"
			/>
		<path class="st5" d="M242.9,255.1c0,0,0.4-1.1,5-1.2c4.7-0.2,52.3,0.9,52.3,0.9l9.1-0.1c0,0,39.9-0.1,44.6,0.1
			c4.7,0.2,5,0.3,5,0.3"/>
		<path class="st5" d="M241.5,289.8c0,0,0.3-0.9,4.1-0.8c3.8,0.1,50.2,0.4,50.2,0.4h9.7c0,0,47-0.4,50.8-0.5
			c3.8-0.1,4.1,0.8,4.1,0.8"/>
		<polyline class="st5" points="241.4,293.4 295.6,293.9 305.5,293.9 360.5,293.3 		"/>
		<path class="st5" d="M242.6,329.6c0,0,9.7-1.4,16.1-1.6c0,0,68.2-0.9,84.5-0.1c6.4,0.3,16.1,1.6,16.1,1.6"/>
		<path class="st5" d="M198.1,296.2l-5.7,5.7c0,0-1.6,1.7-1.4,4.3c0.2,2.6,0.5,7.8,0.5,7.8"/>
		<path class="st6" d="M201.1,303h-4.7c0,0-5,0.3-4.6,5.3c0.4,5,0.4,5.6,0.4,5.6"/>
		<path class="st5" d="M373.8,84.3l-2.4,0.6c0,0-3.1,0.7-4.4,4c-1.3,3.3-7.8,16.4-12.9,42.3c-0.1,4.3,7.8,194.4,7.8,194.4
			s0.1,2.2-2.5,3.9c1.2,1.8,5.4,7.6,9.6,10.9c1.8,0.5,15.5,3.6,15.5,3.6s6.3,1.4,6,5.2c-0.2,3.8-0.6,11.1-0.6,11.1s-1.1,8.1-1.6,21
			c-0.1,3.3-0.6,7.1-0.6,7.1s-1,2.5,3.9,2.5"/>
		<path class="st5" d="M412.1,386.6c0,0-14.4,4.5-24.5,2"/>
		<path class="st5" d="M424.4,322.9c0,0,1.1,5.5-8.5,12.5c-4.6,3-8.7,6.4-25,9.4c-1,0.2-1.8,1.6-1.8,1.6"/>
		<path class="st5" d="M394.9,313.3c0,0-10.4-0.4-22.5,7.2c-2.3,1.5-7.7,5.1-10.5,5.2"/>
		<path class="st5" d="M361.8,322.9c0,0,5.8,0,10.7-4.8c3.2-3.9,6.1-9,6.1-9s11-19.7,13.5-43c0.3-8.5,0.2-10.6,0.2-10.6
			s-0.5-22.4-5.9-44.7c-1.3-2.5-32.4-79.6-32.4-79.6"/>
		<path class="st5" d="M397.9,171.9c0,0,7.5-24.1,7.9-31.4c0.3-7.3-1.1-11.1-1.1-11.1s-2.9-12.3-16-26.1c-4.6-4.3-8.3-7.5-8.3-7.5
			s-9.7-7.5-11.2-9.9c-1.4-2.4-3.4-9.1-3.4-9.1l-6.5-31"/>
		<path class="st5" d="M407.3,134c0,0-2.2,9.6-9.4,19.7c-3,5.8-9.5,16.4-11.9,31.6c-0.9,8.9-1.6,16.3,0.4,25.5"/>
		<path class="st5" d="M355.6,171.5c0,0-0.4-1.6-5.2-1.8c-4.8-0.2-44.5-0.3-44.5-0.3h-11.5c0,0-38.1,0.2-42.8,0.4
			c-4.8,0.2-5.2,1.8-5.2,1.8"/>
		<path class="st5" d="M403.8,296.1l5.7,5.7c0,0,1.6,1.7,1.4,4.3c-0.2,2.6-0.5,7.8-0.5,7.8"/>
		<path class="st6" d="M400.8,302.9h4.7c0,0,5,0.3,4.6,5.3c-0.4,5-0.4,5.6-0.4,5.6"/>
	</g>
	<g>
		<rect x="280.4" y="118.3" class="st9" width="42.8" height="18.2"/>
		<text transform="matrix(1 0 0 1 284.3893 131.9618)" class="st14 st15 st16">53cm</text>
	</g>
	<g>
		<rect x="271.8" y="185.2" class="st9" width="42.8" height="18.2"/>
		<text transform="matrix(1 0 0 1 275.78 198.867)" class="st14 st15 st16">50-53cm</text>
	</g>
	<g>
		<rect x="280.4" y="244.9" class="st9" width="42.8" height="18.2"/>
		<text transform="matrix(1 0 0 1 284.3893 258.6297)" class="st14 st15 st16">53cm</text>
	</g>
	<g>
		<rect x="280.4" y="277.6" class="st9" width="42.8" height="18.2"/>
		<text transform="matrix(1 0 0 1 284.3893 291.3045)" class="st14 st15 st16">30cm</text>
	</g>
	<g>
		<rect x="280.4" y="335" class="st9" width="42.8" height="18.2"/>
		<text transform="matrix(1 0 0 1 284.3893 348.7215)" class="st14 st15 st16">31cm</text>
	</g>
	<g>
		<rect x="280.4" y="403.1" class="st9" width="42.8" height="18.2"/>
		<text transform="matrix(1 0 0 1 284.3893 416.8553)" class="st14 st15 st16">52cm</text>
	</g>
	<g>
		<g>
			<line class="st10" x1="407.3" y1="141.6" x2="407.3" y2="128"/>
			<polygon class="st11" points="406.9,134.8 395.2,141.6 395.2,128 			"/>
		</g>
		<line class="st10" x1="203.3" y1="134.8" x2="400.3" y2="134.8"/>
		<g>
			<polygon class="st11" points="195,135.1 206.8,141.8 206.8,128.3 			"/>
			<line class="st10" x1="194.6" y1="141.8" x2="194.6" y2="127.3"/>
		</g>
	</g>
	<g>
		<g>
			<line class="st10" x1="420.8" y1="261" x2="420.8" y2="194.9"/>
			<polygon class="st11" points="420.4,201.6 408.6,208.4 408.6,194.9 			"/>
		</g>
		<line class="st10" x1="187.9" y1="201.6" x2="413.4" y2="201.6"/>
		<g>
			<polygon class="st11" points="179.7,201.9 191.4,208.7 191.4,195.1 			"/>
			<line class="st10" x1="179.2" y1="260.3" x2="179.2" y2="194.2"/>
		</g>
	</g>
	<g>
		<g>
			<line class="st10" x1="176.4" y1="322" x2="176.4" y2="427"/>
			<polygon class="st11" points="176.8,420.2 188.5,413.5 188.5,427 			"/>
		</g>
		<line class="st10" x1="416.9" y1="420.2" x2="186.6" y2="420.2"/>
		<g>
			<polygon class="st11" points="426,420 414.3,413.2 414.3,426.7 			"/>
			<line class="st10" x1="426.4" y1="322" x2="426.4" y2="427.7"/>
		</g>
	</g>
	<g>
		<g>
			<line class="st10" x1="410.1" y1="269.2" x2="410.1" y2="255.7"/>
			<polygon class="st11" points="409.7,262.5 398,269.2 398,255.7 			"/>
		</g>
		<line class="st10" x1="203.3" y1="262.5" x2="400.3" y2="262.5"/>
		<g>
			<polygon class="st11" points="191.8,262.7 203.5,269.5 203.5,256 			"/>
			<line class="st10" x1="191.4" y1="269.5" x2="191.4" y2="255"/>
		</g>
	</g>
	<g>
		<g>
			<line class="st10" x1="360.5" y1="300.9" x2="360.5" y2="287.4"/>
			<polygon class="st11" points="360.2,294.1 348.4,300.9 348.4,287.4 			"/>
		</g>
		<line class="st10" x1="248.7" y1="294.1" x2="351.2" y2="294.1"/>
		<g>
			<polygon class="st11" points="242.2,294.4 253.9,301.2 253.9,287.6 			"/>
			<line class="st10" x1="241.8" y1="301.2" x2="241.8" y2="286.7"/>
		</g>
	</g>
	<g>
		<g>
			<line class="st10" x1="390.3" y1="358.3" x2="390.3" y2="344.8"/>
			<polygon class="st11" points="389.9,351.5 378.1,358.3 378.1,344.8 			"/>
		</g>
		<line class="st10" x1="222.4" y1="351.5" x2="379.3" y2="351.5"/>
		<g>
			<polygon class="st11" points="212.7,351.8 224.4,358.6 224.4,345.1 			"/>
			<line class="st10" x1="212.3" y1="358.6" x2="212.3" y2="344.1"/>
		</g>
	</g>
</g>
</svg>
