<?xml version="1.0" encoding="utf-8"?>
<!-- Generator: Adobe Illustrator 23.0.1, SVG Export Plug-In . SVG Version: 6.00 Build 0)  -->
<svg version="1.1" id="Camada_1" xmlns="http://www.w3.org/2000/svg" xmlns:xlink="http://www.w3.org/1999/xlink" x="0px" y="0px"
	 viewBox="0 0 600 600" style="enable-background:new 0 0 600 600;" xml:space="preserve">
<style type="text/css">
	.st0{fill:#FFFFFF;stroke:#1E1E1C;stroke-miterlimit:10;}
	.st1{fill:none;stroke:#1E1E1C;stroke-width:0.6333;stroke-miterlimit:10;}
	.st2{fill:#FFFFFF;stroke:#1E1E1C;stroke-width:1.2665;stroke-miterlimit:10;}
	.st3{fill:#FFFFFF;stroke:#1E1E1C;stroke-width:0.6333;stroke-miterlimit:10;}
	.st4{fill:none;stroke:#1E1E1C;stroke-width:0.9721;stroke-miterlimit:10;}
	.st5{fill:#FFFFFF;}
	.st6{fill:none;stroke:#1E1E1C;stroke-width:0.9881;stroke-miterlimit:10;}
	.st7{fill:none;stroke:#1E1E1C;stroke-width:1.2665;stroke-miterlimit:10;}
	.st8{fill:#FFFFFF;stroke:#1E1E1C;stroke-width:0.9721;stroke-miterlimit:10;}
	.st9{fill:#FFFFFF;stroke:#1E1E1C;stroke-width:0.9091;stroke-miterlimit:10;}
	.st10{fill:#FFFFFF;stroke:#1E1E1C;stroke-width:0.5889;stroke-miterlimit:10;}
	.st11{fill:#FFFFFF;stroke:#1E1E1C;stroke-width:1.019;stroke-miterlimit:10;}
	.st12{fill:#FFFFFF;stroke:#1E1E1C;stroke-width:0.953;stroke-miterlimit:10;}
	.st13{fill:#FFFFFF;stroke:#1E1E1C;stroke-width:0.6639;stroke-miterlimit:10;}
	.st14{fill:#FFFFFF;stroke:#1E1E1C;stroke-width:0.6174;stroke-miterlimit:10;}
	.st15{fill:#FFFFFF;stroke:#1E1E1C;stroke-width:1.3277;stroke-miterlimit:10;}
	.st16{fill:none;stroke:#1E1E1C;stroke-width:0.75;stroke-miterlimit:10;}
	.st17{fill:none;stroke:#1E1E1C;stroke-miterlimit:10;}
	.st18{fill:none;stroke:#1E1E1C;stroke-width:1.3977;stroke-miterlimit:10;}
	.st19{fill:none;stroke:#1E1E1C;stroke-width:2;stroke-miterlimit:10;}
	.st20{fill:#FFFFFF;stroke:#1E1E1C;stroke-width:0.5;stroke-miterlimit:10;}
	.st21{fill:none;stroke:#1E1E1C;stroke-width:0.5;stroke-miterlimit:10;}
	.st22{fill:none;stroke:#1E1E1C;stroke-width:1.0033;stroke-miterlimit:10;}
	.st23{fill:#FFFFFF;stroke:#020203;stroke-width:0.75;stroke-miterlimit:10;}
	.st24{fill:none;stroke:#020203;stroke-miterlimit:10;}
	.st25{fill:#FFFFFF;stroke:#020203;stroke-miterlimit:10;}
	.st26{fill:none;stroke:#020203;stroke-width:0.5;stroke-miterlimit:10;}
	.st27{fill:#FFFFFF;stroke:#020203;stroke-linejoin:round;}
	.st28{fill:none;stroke:#020203;stroke-linejoin:round;}
	.st29{fill:none;stroke:#020203;stroke-width:0.75;stroke-miterlimit:10;}
	.st30{fill:none;stroke:#020203;stroke-width:0.25;stroke-miterlimit:10;}
	.st31{fill:none;stroke:#E52624;stroke-width:1.5;stroke-miterlimit:10;}
	.st32{fill:#E52624;}
	.st33{fill:#FFFFFF;stroke:#020203;stroke-width:0.5;stroke-miterlimit:10;}
	.st34{fill:none;stroke:#E52522;stroke-width:1.5;stroke-miterlimit:10;}
	.st35{fill:#E52522;}
	.st36{fill:#E7E6E6;}
	.st37{fill:none;stroke:#E20D18;stroke-width:2;stroke-miterlimit:10;}
	.st38{fill:none;stroke:#E20D18;stroke-width:1.8;stroke-miterlimit:10;}
	.st39{fill:none;stroke:#E20D18;stroke-width:1.62;stroke-miterlimit:10;}
	.st40{fill:#E20D18;}
	.st41{fill:none;stroke:#E20D18;stroke-width:1.54;stroke-miterlimit:10;}
	.st42{fill:none;stroke:#E20D18;stroke-width:1.74;stroke-miterlimit:10;}
	.st43{fill:none;stroke:#E20D18;stroke-width:1.55;stroke-miterlimit:10;}
	.st44{fill:none;stroke:#E20D18;stroke-width:1.56;stroke-miterlimit:10;}
	.st45{fill:none;stroke:#E20D18;stroke-width:1.53;stroke-miterlimit:10;}
	.st46{fill:none;stroke:#E20D18;stroke-width:1.58;stroke-miterlimit:10;}
	.st47{fill:none;stroke:#E20D18;stroke-width:1.69;stroke-miterlimit:10;}
	.st48{font-family:'Roboto-Medium';}
	.st49{font-size:12.6516px;}
	.st50{fill:none;stroke:#E20D18;stroke-width:1.43;stroke-miterlimit:10;}
	.st51{fill:none;stroke:#E20D18;stroke-width:1.48;stroke-miterlimit:10;}
	.st52{fill:none;stroke:#E20D18;stroke-width:1.67;stroke-miterlimit:10;}
	.st53{fill:none;stroke:#E20D18;stroke-width:1.65;stroke-miterlimit:10;}
	.st54{fill:#FFFFFF;stroke:#020203;stroke-width:3;stroke-miterlimit:10;}
	.st55{fill:none;stroke:#E20D18;stroke-width:1.41;stroke-miterlimit:10;}
	.st56{fill:none;stroke:#E20D18;stroke-width:1.59;stroke-miterlimit:10;}
	.st57{fill:none;stroke:#1E1E1C;stroke-width:1.05;stroke-miterlimit:10;}
	.st58{fill:none;stroke:#1E1E1C;stroke-width:0.52;stroke-miterlimit:10;}
	.st59{fill:none;stroke:#1E1E1C;stroke-width:0.8;stroke-miterlimit:10;}
	.st60{fill:none;stroke:#1E1E1C;stroke-width:0.49;stroke-miterlimit:10;}
	.st61{fill:none;stroke:#1E1E1C;stroke-width:0.84;stroke-miterlimit:10;}
	.st62{fill:none;stroke:#1E1E1C;stroke-width:0.79;stroke-miterlimit:10;}
	.st63{fill:none;stroke:#1E1E1C;stroke-width:0.55;stroke-miterlimit:10;}
	.st64{fill:none;stroke:#1E1E1C;stroke-width:0.51;stroke-miterlimit:10;}
	.st65{fill:none;stroke:#1E1E1C;stroke-width:1.1;stroke-miterlimit:10;}
	.st66{fill:none;stroke:#1E1E1C;stroke-width:0.25;stroke-miterlimit:10;}
	.st67{fill:none;stroke:#1E1E1C;stroke-width:1.07;stroke-miterlimit:10;}
	.st68{fill:none;stroke:#1E1E1C;stroke-width:0.94;stroke-miterlimit:10;}
	.st69{fill:none;stroke:#1E1E1C;stroke-width:0.56;stroke-miterlimit:10;}
	.st70{fill:none;stroke:#E20D18;stroke-width:1.5;stroke-miterlimit:10;}
	.st71{fill:none;stroke:#E20D18;stroke-width:1.49;stroke-miterlimit:10;}
	.st72{fill:none;stroke:#E20D18;stroke-miterlimit:10;}
	.st73{fill:none;stroke:#1E1E1C;stroke-width:0.78;stroke-miterlimit:10;}
	.st74{fill:none;stroke:#1E1E1C;stroke-width:1.08;stroke-miterlimit:10;}
	.st75{fill:none;stroke:#1E1E1C;stroke-width:0.54;stroke-miterlimit:10;}
	.st76{fill:none;stroke:#1E1E1C;stroke-width:0.83;stroke-miterlimit:10;}
	.st77{fill:none;stroke:#1E1E1C;stroke-width:0.77;stroke-miterlimit:10;}
	.st78{fill:none;stroke:#1E1E1C;stroke-width:0.87;stroke-miterlimit:10;}
	.st79{fill:none;stroke:#1E1E1C;stroke-width:0.81;stroke-miterlimit:10;}
	.st80{fill:none;stroke:#1E1E1C;stroke-width:1.13;stroke-miterlimit:10;}
	.st81{fill:none;stroke:#1E1E1C;stroke-width:0.21;stroke-miterlimit:10;}
	.st82{fill:#FFFFFF;stroke:#1E1E1C;stroke-width:0.84;stroke-miterlimit:10;}
	.st83{fill:none;stroke:#1E1E1C;stroke-width:0.42;stroke-miterlimit:10;}
	.st84{fill:none;stroke:#1E1E1C;stroke-width:0.24;stroke-miterlimit:10;}
	.st85{fill:none;stroke:#E20D18;stroke-width:1.6;stroke-miterlimit:10;}
	.st86{fill:none;stroke:#E20D18;stroke-width:1.64;stroke-miterlimit:10;}
	.st87{fill:none;stroke:#E20D18;stroke-width:1.484;stroke-miterlimit:10;}
	.st88{fill:none;stroke:#E20D18;stroke-width:1.4075;stroke-miterlimit:10;}
	.st89{fill:none;stroke:#E20D18;stroke-width:1.5853;stroke-miterlimit:10;}
	.st90{fill:none;stroke:#E20D18;stroke-width:1.2981;stroke-miterlimit:10;}
	.st91{fill:none;stroke:#E20D18;stroke-width:0.9733;stroke-miterlimit:10;}
	.st92{fill:none;stroke:#E20D18;stroke-width:0.9159;stroke-miterlimit:10;}
	.st93{fill:none;stroke:#E20D18;stroke-width:1.4439;stroke-miterlimit:10;}
	.st94{fill:none;stroke:#E20D18;stroke-width:1.0062;stroke-miterlimit:10;}
	.st95{fill:none;stroke:#E20D18;stroke-width:0.9468;stroke-miterlimit:10;}
	.st96{fill:none;stroke:#E20D18;stroke-width:1.6749;stroke-miterlimit:10;}
	.st97{fill:none;stroke:#E20D18;stroke-width:1.6513;stroke-miterlimit:10;}
	.st98{fill:#FFFFFF;stroke:#1E1E1C;stroke-width:0.8664;stroke-miterlimit:10;}
	.st99{fill:#FFFFFF;stroke:#1E1E1C;stroke-width:1.0973;stroke-miterlimit:10;}
	.st100{fill:none;stroke:#1E1E1C;stroke-width:1.0973;stroke-miterlimit:10;}
	.st101{fill:#FFFFFF;stroke:#1E1E1C;stroke-width:0.5487;stroke-miterlimit:10;}
	.st102{fill:none;stroke:#1E1E1C;stroke-width:0.8422;stroke-miterlimit:10;}
	.st103{fill:#FFFFFF;stroke:#1E1E1C;stroke-width:0.7877;stroke-miterlimit:10;}
	.st104{fill:#FFFFFF;stroke:#1E1E1C;stroke-width:0.5103;stroke-miterlimit:10;}
	.st105{fill:#FFFFFF;stroke:#1E1E1C;stroke-width:0.8422;stroke-miterlimit:10;}
	.st106{fill:none;stroke:#1E1E1C;stroke-width:0.8829;stroke-miterlimit:10;}
	.st107{fill:#FFFFFF;stroke:#1E1E1C;stroke-width:0.8257;stroke-miterlimit:10;}
	.st108{fill:#FFFFFF;stroke:#1E1E1C;stroke-width:0.5752;stroke-miterlimit:10;}
	.st109{fill:#FFFFFF;stroke:#1E1E1C;stroke-width:0.5349;stroke-miterlimit:10;}
	.st110{fill:#FFFFFF;stroke:#1E1E1C;stroke-width:1.1504;stroke-miterlimit:10;}
	.st111{fill:#FFFFFF;stroke:#1E1E1C;stroke-width:0.8829;stroke-miterlimit:10;}
	.st112{fill:none;stroke:#1E1E1C;stroke-width:0.5487;stroke-miterlimit:10;}
	.st113{fill:#FFFFFF;stroke:#1E1E1C;stroke-width:1.0441;stroke-miterlimit:10;}
	.st114{fill:none;stroke:#E20D18;stroke-width:1.5173;stroke-miterlimit:10;}
	.st115{fill:none;stroke:#E20D18;stroke-width:1.804;stroke-miterlimit:10;}
	.st116{fill:none;stroke:#E20D18;stroke-width:1.6153;stroke-miterlimit:10;}
	.st117{fill:none;stroke:#E20D18;stroke-width:1.578;stroke-miterlimit:10;}
	.st118{fill:none;stroke:#E20D18;stroke-width:1.6879;stroke-miterlimit:10;}
	.st119{fill:none;stroke:#E20D18;stroke-width:1.6347;stroke-miterlimit:10;}
	.st120{fill:none;stroke:#E20D18;stroke-width:1.5386;stroke-miterlimit:10;}
	.st121{fill:none;stroke:#E20D18;stroke-width:1.7396;stroke-miterlimit:10;}
	.st122{fill:#FFFFFF;stroke:#1E1E1C;stroke-width:1.4;stroke-miterlimit:10;}
	.st123{fill:none;stroke:#E20D18;stroke-width:1.4266;stroke-miterlimit:10;}
	.st124{fill:none;stroke:#E20D18;stroke-width:1.4299;stroke-miterlimit:10;}
	.st125{fill:none;stroke:#1E1E1C;stroke-width:0.9867;stroke-miterlimit:10;}
	.st126{fill:none;stroke:#DD0B18;stroke-width:1.4266;stroke-miterlimit:10;}
	.st127{fill:none;stroke:#DD0B18;stroke-width:1.4299;stroke-miterlimit:10;}
	.st128{fill:#DD0B18;}
	.st129{fill:none;stroke:#DD0B18;stroke-width:1.484;stroke-miterlimit:10;}
	.st130{fill:none;stroke:#DD0B18;stroke-width:1.4075;stroke-miterlimit:10;}
	.st131{fill:none;stroke:#DD0B18;stroke-width:1.5853;stroke-miterlimit:10;}
	.st132{fill:none;stroke:#DD0B18;stroke-width:1.2981;stroke-miterlimit:10;}
	.st133{fill:none;stroke:#DD0B18;stroke-width:0.9733;stroke-miterlimit:10;}
	.st134{fill:none;stroke:#DD0B18;stroke-width:0.9159;stroke-miterlimit:10;}
	.st135{fill:none;stroke:#DD0B18;stroke-width:1.4439;stroke-miterlimit:10;}
	.st136{fill:none;stroke:#DD0B18;stroke-width:1.0062;stroke-miterlimit:10;}
	.st137{fill:none;stroke:#DD0B18;stroke-width:0.9468;stroke-miterlimit:10;}
	.st138{fill:none;stroke:#DD0B18;stroke-width:1.6749;stroke-miterlimit:10;}
	.st139{fill:none;stroke:#DD0B18;stroke-width:1.6513;stroke-miterlimit:10;}
	.st140{fill:#FFFFFF;stroke:#1E1E1C;stroke-width:0.75;stroke-miterlimit:10;}
	.st141{fill:none;stroke:#DD0B18;stroke-width:1.5173;stroke-miterlimit:10;}
	.st142{fill:none;stroke:#DD0B18;stroke-width:1.804;stroke-miterlimit:10;}
	.st143{fill:none;stroke:#DD0B18;stroke-width:1.6153;stroke-miterlimit:10;}
	.st144{fill:none;stroke:#DD0B18;stroke-width:1.5551;stroke-miterlimit:10;}
	.st145{fill:none;stroke:#DD0B18;stroke-width:1.578;stroke-miterlimit:10;}
	.st146{fill:#E0E0E0;}
	.st147{fill:none;stroke:#DD0B18;stroke-width:1.6879;stroke-miterlimit:10;}
	.st148{fill:none;stroke:#DD0B18;stroke-width:1.6347;stroke-miterlimit:10;}
	.st149{fill:none;stroke:#DD0B18;stroke-width:1.5386;stroke-miterlimit:10;}
	.st150{fill:none;stroke:#DD0B18;stroke-width:1.7396;stroke-miterlimit:10;}
	.st151{fill:#FFFFFF;stroke:#020203;stroke-width:1.635;stroke-miterlimit:10;}
	.st152{fill:none;stroke:#E20D18;stroke-width:1.52;stroke-miterlimit:10;}
	.st153{fill:#020203;}
	.st154{fill:none;stroke:#1E1E1C;stroke-linejoin:round;}
	.st155{fill:none;stroke:#1E1E1C;stroke-linecap:round;stroke-miterlimit:10;}
	.st156{fill:#1E1E1C;}
	.st157{fill:none;stroke:#1E1E1C;stroke-linejoin:round;stroke-miterlimit:10;}
	.st158{fill:none;stroke:#020203;stroke-linejoin:bevel;stroke-miterlimit:10;}
	.st159{fill:none;stroke:#020203;stroke-miterlimit:10;stroke-dasharray:1;}
	.st160{fill:none;stroke:#020203;stroke-width:0.5;stroke-miterlimit:10;stroke-dasharray:1;}
	.st161{fill:none;stroke:#E20D18;stroke-width:1.3;stroke-miterlimit:10;}
	.st162{fill:none;stroke:#E20D18;stroke-width:0.97;stroke-miterlimit:10;}
	.st163{fill:none;stroke:#E20D18;stroke-width:0.92;stroke-miterlimit:10;}
	.st164{fill:none;stroke:#E20D18;stroke-width:1.44;stroke-miterlimit:10;}
	.st165{fill:none;stroke:#E20D18;stroke-width:1.01;stroke-miterlimit:10;}
	.st166{fill:none;stroke:#E20D18;stroke-width:0.95;stroke-miterlimit:10;}
	.st167{fill:#FFFFFF;stroke:#1E1E1C;stroke-width:2;stroke-miterlimit:10;}
	.st168{fill:none;stroke:#1E1E1C;stroke-width:1.5;stroke-linejoin:round;}
	.st169{fill:none;stroke:#1E1E1C;stroke-width:1.5;stroke-miterlimit:10;}
	.st170{fill:none;stroke:#1E1E1C;stroke-width:2;stroke-linecap:round;stroke-miterlimit:10;}
	.st171{fill:none;stroke:#1E1E1C;stroke-width:1.5;stroke-linecap:round;stroke-miterlimit:10;}
	.st172{fill:none;stroke:#1E1E1C;stroke-width:2;stroke-linejoin:round;stroke-miterlimit:10;}
	.st173{fill:none;stroke:#1E1E1C;stroke-width:2;stroke-linejoin:round;}
	.st174{fill:none;stroke:#020203;stroke-width:0.5;stroke-linejoin:bevel;stroke-miterlimit:10;}
	.st175{fill:none;stroke:#E20D18;stroke-width:1.63;stroke-miterlimit:10;}
	.st176{fill:none;stroke:#000000;stroke-miterlimit:10;}
	.st177{fill:#FFFFFF;stroke:#000000;stroke-miterlimit:10;}
	.st178{fill:none;stroke:#E20D18;stroke-width:1.3113;stroke-miterlimit:10;}
	.st179{fill:none;stroke:#E20D18;stroke-width:1.3459;stroke-miterlimit:10;}
	.st180{fill:none;stroke:#E20D18;stroke-width:1.4481;stroke-miterlimit:10;}
	.st181{fill:none;stroke:#E20D18;stroke-width:1.3929;stroke-miterlimit:10;}
	.st182{fill:none;stroke:#E20D18;stroke-width:1.327;stroke-miterlimit:10;}
	.st183{fill:none;stroke:#E20D18;stroke-width:1.4965;stroke-miterlimit:10;}
	.st184{fill:none;stroke:#E20D18;stroke-width:1.225;stroke-miterlimit:10;}
	.st185{fill:none;stroke:#E20D18;stroke-width:1.4563;stroke-miterlimit:10;}
	.st186{fill:none;stroke:#E20D18;stroke-width:1.5717;stroke-miterlimit:10;}
	.st187{fill:none;stroke:#E20D18;stroke-width:1.5529;stroke-miterlimit:10;}
	.st188{fill:#BFBEBF;stroke:#020203;stroke-miterlimit:10;}
	.st189{fill:none;stroke:#E20D18;stroke-width:2.0835;stroke-miterlimit:10;}
	.st190{fill:none;stroke:#E20D18;stroke-width:1.8751;stroke-miterlimit:10;}
	.st191{fill:none;stroke:#E20D18;stroke-width:1.6876;stroke-miterlimit:10;}
	.st192{fill:none;stroke:#E20D18;stroke-width:1.698;stroke-miterlimit:10;}
	.st193{fill:none;stroke:#E20D18;stroke-width:1.6043;stroke-miterlimit:10;}
	.st194{fill:none;stroke:#E20D18;stroke-width:1.8126;stroke-miterlimit:10;}
	.st195{fill:none;stroke:#E20D18;stroke-width:1.6147;stroke-miterlimit:10;}
	.st196{fill:none;stroke:#E20D18;stroke-width:1.5938;stroke-miterlimit:10;}
	.st197{fill:none;stroke:#E20D18;stroke-width:1.6251;stroke-miterlimit:10;}
	.st198{fill:none;stroke:#E20D18;stroke-width:1.6459;stroke-miterlimit:10;}
	.st199{fill:none;stroke:#E20D18;stroke-width:1.7605;stroke-miterlimit:10;}
	.st200{fill:#FFFFFF;stroke:#1E1E1C;stroke-width:0.87;stroke-miterlimit:10;}
	.st201{fill:#FFFFFF;stroke:#1E1E1C;stroke-width:1.1;stroke-miterlimit:10;}
	.st202{fill:#FFFFFF;stroke:#1E1E1C;stroke-width:0.55;stroke-miterlimit:10;}
	.st203{fill:#FFFFFF;stroke:#1E1E1C;stroke-width:0.79;stroke-miterlimit:10;}
	.st204{fill:#FFFFFF;stroke:#1E1E1C;stroke-width:0.51;stroke-miterlimit:10;}
	.st205{fill:none;stroke:#1E1E1C;stroke-width:0.88;stroke-miterlimit:10;}
	.st206{fill:#FFFFFF;stroke:#1E1E1C;stroke-width:0.83;stroke-miterlimit:10;}
	.st207{fill:#FFFFFF;stroke:#1E1E1C;stroke-width:0.58;stroke-miterlimit:10;}
	.st208{fill:#FFFFFF;stroke:#1E1E1C;stroke-width:0.53;stroke-miterlimit:10;}
	.st209{fill:#FFFFFF;stroke:#1E1E1C;stroke-width:1.15;stroke-miterlimit:10;}
	.st210{fill:#FFFFFF;stroke:#1E1E1C;stroke-width:0.88;stroke-miterlimit:10;}
	.st211{fill:#FFFFFF;stroke:#1E1E1C;stroke-width:1.04;stroke-miterlimit:10;}
	.st212{fill:#FFFFFF;stroke:#020203;stroke-linejoin:round;stroke-miterlimit:10;}
	.st213{font-size:12.7557px;}
</style>
<g>
	<line class="st37" x1="65.4" y1="407.5" x2="65.4" y2="12.7"/>
	<line class="st38" x1="55" y1="413.3" x2="172.6" y2="413.3"/>
	<line class="st39" x1="59.3" y1="9.3" x2="91.3" y2="9.3"/>
	<polygon class="st40" points="65.4,9.3 71.5,21 59.3,21 	"/>
	<polygon class="st40" points="65.4,413.6 59.3,402 71.5,402 	"/>
</g>
<line class="st41" x1="434.4" y1="385.4" x2="434.4" y2="437.5"/>
<line class="st42" x1="210.1" y1="404" x2="210.1" y2="437.3"/>
<polygon class="st40" points="434.9,431.3 423.2,437.3 423.2,425.4 "/>
<polygon class="st40" points="210.1,431.5 221.9,437.5 221.9,425.6 "/>
<polygon class="st40" points="486.1,593 480.2,581.2 492,581.2 "/>
<line class="st43" x1="486.1" y1="587.2" x2="486.1" y2="343.6"/>
<line class="st44" x1="280.4" y1="593" x2="527.2" y2="593"/>
<polygon class="st40" points="486.1,338.5 492,350.3 480.2,350.3 "/>
<line class="st45" x1="427.3" y1="401.5" x2="492.9" y2="401.5"/>
<polygon class="st40" points="486.1,402.2 492,414 480.2,414 "/>
<polygon class="st40" points="486.1,402.3 480.2,390.5 492,390.5 "/>
<line class="st46" x1="521.3" y1="588.7" x2="521.3" y2="278.5"/>
<line class="st47" x1="363" y1="273.6" x2="527.2" y2="273.6"/>
<polygon class="st40" points="521.3,273.8 527.2,285.1 515.4,285.1 "/>
<polygon class="st40" points="521.3,594.3 515.4,583 527.2,583 "/>
<rect x="502.4" y="426.9" class="st36" width="64.4" height="13.4"/>
<g>
	<text transform="matrix(1 0 0 1 506.7969 437.6479)" class="st40 st48 st49">64 - 72cm</text>
</g>
<rect x="33.2" y="203.4" class="st36" width="64.4" height="13.4"/>
<g>
	<text transform="matrix(1 0 0 1 49.2061 214.1557)" class="st40 st48 st49">88cm</text>
</g>
<rect x="450.1" y="485" class="st36" width="64.4" height="13.4"/>
<g>
	<text transform="matrix(1 0 0 1 454.4444 495.8164)" class="st40 st48 st49">38 - 48cm</text>
</g>
<rect x="465.9" y="363.6" class="st36" width="40.3" height="13.4"/>
<g>
	<text transform="matrix(1 0 0 1 470.3135 373.3637)" class="st40 st48 st49">13cm</text>
</g>
<g>
	<g>
		<polyline class="st25" points="259.9,553.8 259.9,578.2 270.1,578.2 270.1,554.1 		"/>
		<path class="st25" d="M259.9,558.1h-5.7c0,0-1.8,7.4-1.7,16.9s1.7,14.9,1.7,14.9h5.4L259.9,558.1z"/>
		<path class="st25" d="M270.1,558.1h5.7c0,0,1.8,7.4,1.7,16.9s-1.7,14.9-1.7,14.9h-5.4L270.1,558.1z"/>
	</g>
	<path class="st25" d="M182.8,499c0,0-9.3,1-9.5,2.3c-0.1,1.3-4.5,24.4,4.7,24.3c9.3-0.1,15.6-2.6,16.2-4
		C194.8,520.1,182.8,499,182.8,499z"/>
	<path class="st25" d="M347.9,497.5c0,0,4.9,0.2,7.4,1.3c2.5,1.1,4.3,3.2,4.3,3.2s-2.1,20.4-3.3,21.2c-1.2,0.8-6.6,1.4-15.4,0
		c-8.8-1.4,0.9-25,0.9-25L347.9,497.5z"/>
	<path class="st25" d="M252.9,517.4l1.8,34.9l10,2.9l10-2.1l1.8-35.7c0,0,3.9-2.6,17.6-1.1s103.2,9.2,103.2,9.2v2.4
		c0,0,5.8,1.3,8.7,1.6s4.7,0,4.7,0l4.5-1.6l-0.9-15l-42.2-8.5l-37-7l10.4-0.7l0.8,1.4l3.7-1.4l-0.5-9.1l-5.3-6.8l-63.3,3.2
		l-32.6,0.8l-42.2-1.3l-1.4-1.1l-17.1-0.8l-3.8,0.9l-3.4,5.4l-0.7,1.6v8.9l10.6,0.5l-33.6,7l-2.4-0.7l-36.2,7.4l-0.9,1.1l-1.8,0.8
		l-0.8,16.4l13.7,0.8l4.2-2.1l-0.3-2.2l112.3-11.2C244.5,516.2,251.3,515,252.9,517.4z"/>
	<line class="st25" x1="248.5" y1="487.1" x2="190.4" y2="499"/>
	<line class="st25" x1="282" y1="487.1" x2="335.1" y2="497.4"/>
	<polyline class="st25" points="254.2,542.1 260.5,536.4 268.8,536.4 275.3,542.1 	"/>
	<polyline class="st25" points="254.2,527.4 260.8,521.6 269,521.6 275.3,527.4 	"/>
	<line class="st25" x1="260.5" y1="536.4" x2="260.4" y2="489.3"/>
	<line class="st25" x1="268.9" y1="489.3" x2="268.8" y2="536.4"/>
	<line class="st25" x1="349.4" y1="487.7" x2="301.6" y2="490.9"/>
	<line class="st25" x1="326.7" y1="481.7" x2="331" y2="488.9"/>
	<polyline class="st25" points="414.3,512.9 409.2,518 409.2,529.6 	"/>
	<path class="st24" d="M276.5,517.4c0,0-1-15.5,2.2-17.2c3.2-1.7,14.1-0.7,14.1-0.7L409.2,518"/>
	<path class="st24" d="M252.9,517.4c0,0,1.3-18.8,0-19c-1.3-0.3-26.9,3.8-26.9,3.8l-71.4,13.4l-33.6,6.7l-5.5-7.7"/>
	<line class="st25" x1="156.8" y1="506" x2="161.2" y2="514.3"/>
	<polyline class="st25" points="180.4,488 198.4,489.8 202.6,483.6 204.7,482.4 	"/>
	<line class="st25" x1="222.9" y1="492.3" x2="198.4" y2="489.8"/>
	<path class="st25" d="M248.3,484.8c0,0,8.2,4.1,16.6,4.1s15.3-3.6,15.3-3.6l-2.6-42.9c0,0-7.6,2.9-13.3,2.9s-14.4-0.4-14.4-2.4
		S248.3,484.8,248.3,484.8z"/>
	<g>
		<path class="st25" d="M127.5,532.1l0.8,16.9c0,0,1,15.9-14.5,15.9c-7.8,0-11.9-4.2-14.1-8.3c-2.6-5.1-2.7-11.1-0.2-16.2
			c1.6-3.1,4.3-6.2,8.9-7.4c0,0,5.9-1,9.2,0.8c0.5,0.3,1-0.1,1-0.7l-0.1-1.6L127.5,532.1z"/>
		<path class="st25" d="M98.1,552.5c0,0-2.5-12.8,10.3-17.7c7.4-2.8,16.2,2.1,18.4,7.5l0.7,1.8"/>
		<path class="st25" d="M98.9,554.7c0,0-1.9-13.1,10.9-17.9c7.4-2.8,15.9,3.1,17.8,7.7l0.7,1.8"/>
		<path class="st25" d="M106.5,541.6c0.2-0.1,0.5-0.1,0.6,0.1c1.1,1.4,5.4,7.1,5.1,7.6c-0.3,0.6,0.3,1-5.2-0.1
			c-2.8-0.6-3.9-0.8-4.5-0.9c-0.3-0.1-0.6-0.4-0.5-0.7C103,545.5,105.2,542.6,106.5,541.6z"/>
		<path class="st25" d="M116.6,539.1c0.2,0.1,0.4,0.3,0.3,0.6c-0.4,1.7-2.2,8.7-2.7,8.7c-0.7,0.1-0.6,0.9-3.1-4.1
			c-1.3-2.5-1.8-3.6-2.1-4.1c-0.1-0.3-0.1-0.7,0.2-0.8C111.3,538.8,115,538.7,116.6,539.1z"/>
		<path class="st25" d="M124.8,545.2c0.1,0.2,0,0.5-0.2,0.6c-1.5,0.8-7.6,3.8-8,3.4c-0.5-0.4-1,0.1,1.1-4.8c1-2.5,1.5-3.5,1.7-4.1
			c0.1-0.2,0.5-0.5,0.7-0.3C121.8,541.2,124.1,543.8,124.8,545.2z"/>
		<path class="st25" d="M103.4,557.5c0.2,0.2,0.4,0.3,0.6,0.1c1.5-1,7.4-5,7.3-5.6c-0.1-0.6,0.6-0.9-4.9-1.5c-2.8-0.3-4-0.5-4.6-0.5
			c-0.3,0-0.7,0.2-0.7,0.5C101.3,552.7,102.4,556.1,103.4,557.5z"/>
		<path class="st25" d="M112.6,562.9c0.3,0,0.5-0.2,0.5-0.4c0.2-1.8,0.9-8.9,0.4-9.2c-0.6-0.3-0.3-1-4.3,2.8c-2.1,2-2.9,2.7-3.4,3.2
			c-0.2,0.2-0.3,0.6-0.1,0.8C107.6,561.4,111,562.8,112.6,562.9z"/>
		<path class="st25" d="M122.2,559.8c0.2-0.2,0.2-0.4,0-0.6c-1.1-1.2-5.9-6.1-6.3-5.9c-0.6,0.2-0.9-0.4-0.6,4.9
			c0.1,2.7,0.2,3.8,0.2,4.4c0,0.3,0.3,0.6,0.5,0.5C118,562.5,121,561,122.2,559.8z"/>
		<path class="st25" d="M125.8,549.8c-0.1-0.2-0.3-0.4-0.5-0.4c-1.7,0.3-8.4,1.4-8.5,1.9c-0.1,0.6-0.9,0.5,3.7,3.3
			c2.3,1.4,3.2,2,3.7,2.3c0.2,0.1,0.7,0.1,0.8-0.1C125.7,554.8,126.1,551.4,125.8,549.8z"/>
	</g>
	<g>
		<path class="st25" d="M401.6,529.1l-0.8,16.9c0,0-1,15.9,14.5,15.9c7.8,0,11.9-4.2,14.1-8.3c2.6-5.1,2.7-11.1,0.2-16.2
			c-1.6-3.1-4.3-6.2-8.9-7.4c0,0-5.9-1-9.2,0.8c-0.5,0.3-1-0.1-1-0.7l0.1-1.6L401.6,529.1z"/>
		<path class="st25" d="M431,549.5c0,0,2.5-12.8-10.3-17.7c-7.4-2.8-16.2,2.1-18.4,7.5l-0.7,1.8"/>
		<path class="st25" d="M430.2,551.7c0,0,1.9-13.1-10.9-17.9c-7.4-2.8-15.9,3.1-17.8,7.7l-0.7,1.8"/>
		<path class="st25" d="M422.6,538.6c-0.2-0.1-0.5-0.1-0.6,0.1c-1.1,1.4-5.4,7.1-5.1,7.6c0.3,0.6-0.3,1,5.2-0.1
			c2.8-0.6,3.9-0.8,4.5-0.9c0.3-0.1,0.6-0.4,0.5-0.7C426.1,542.5,424,539.6,422.6,538.6z"/>
		<path class="st25" d="M412.5,536.1c-0.2,0.1-0.4,0.3-0.3,0.6c0.4,1.7,2.2,8.7,2.7,8.7c0.7,0.1,0.6,0.9,3.1-4.1
			c1.3-2.5,1.8-3.6,2.1-4.1c0.1-0.3,0.1-0.7-0.2-0.8C417.8,535.8,414.1,535.7,412.5,536.1z"/>
		<path class="st25" d="M404.3,542.2c-0.1,0.2,0,0.5,0.2,0.6c1.5,0.8,7.6,3.8,8,3.4c0.5-0.4,1,0.1-1.1-4.8c-1-2.5-1.5-3.5-1.7-4.1
			c-0.1-0.2-0.5-0.5-0.7-0.3C407.3,538.2,405,540.8,404.3,542.2z"/>
		<path class="st25" d="M425.7,554.5c-0.2,0.2-0.4,0.3-0.6,0.1c-1.5-1-7.4-5-7.3-5.6c0.1-0.6-0.6-0.9,4.9-1.5c2.8-0.3,4-0.5,4.6-0.5
			c0.3,0,0.7,0.2,0.7,0.5C427.8,549.7,426.7,553.1,425.7,554.5z"/>
		<path class="st25" d="M416.5,559.9c-0.3,0-0.5-0.2-0.5-0.4c-0.2-1.8-0.9-8.9-0.4-9.2c0.6-0.3,0.3-1,4.3,2.8c2.1,2,2.9,2.7,3.4,3.2
			c0.2,0.2,0.3,0.6,0.1,0.8C421.5,558.4,418.2,559.8,416.5,559.9z"/>
		<path class="st25" d="M407,556.8c-0.2-0.2-0.2-0.4,0-0.6c1.1-1.2,5.9-6.1,6.3-5.9c0.6,0.2,0.9-0.4,0.6,4.9
			c-0.1,2.7-0.2,3.8-0.2,4.4c0,0.3-0.3,0.6-0.5,0.5C411.2,559.5,408.1,558,407,556.8z"/>
		<path class="st25" d="M403.3,546.8c0.1-0.2,0.3-0.4,0.5-0.4c1.7,0.3,8.4,1.4,8.5,1.9c0.1,0.6,0.9,0.5-3.7,3.3
			c-2.3,1.4-3.2,2-3.7,2.3c-0.2,0.1-0.7,0.1-0.8-0.1C403.4,551.8,403,548.4,403.3,546.8z"/>
	</g>
	<path class="st25" d="M249.9,443c0,0,11.6-4.8,27.7-0.6"/>
	<line class="st25" x1="253.6" y1="427.6" x2="274.9" y2="427.4"/>
	<line class="st24" x1="253" y1="427.8" x2="275.4" y2="427.6"/>
	<path class="st25" d="M253.2,443.3l0.7-15.2h20.7l0.5,13.9C275.1,442,268.7,447.2,253.2,443.3z"/>
	<polygon class="st25" points="257.5,428.1 257.5,408.7 271.7,409.9 271.3,428.1 	"/>
	<path class="st25" d="M283.7,407.7l4.4,15.9l-1.6,2.9l3.4,16c0,0,13.2,3.2,23.1-3.9l-3.3-18.1l-3.5-1.2l-3.9-14L283.7,407.7z"/>
	<path class="st25" d="M244,437.3c-0.4-0.1-3.9-2-3.9-2l-10.2,15.5c-0.9,1.4-1.6,3-1.8,4.7c-0.3,2.1,0,4.6,2.7,5.6
		c3.2,1.1,6.8-6.6,6.8-6.6L244,437.3z"/>
	<polygon class="st25" points="240.9,435.8 249.8,417.8 253.6,410.2 253.6,415.7 243.4,437 	"/>
	<path class="st25" d="M190.2,403.2c0,0,0,10,9.1,9.9c9.1-0.1,151.8-11,151.8-11l70.9-1.8c0,0,10-0.6,10.1-12.3
		c0.1-11.7,7.9-21.8,7.9-25.5s3.4-11.1-4.2-18.9c-7.6-7.7-13.4-7.6-18.2-15.3c-4.8-7.7-47-1-47-1s-16.6-6.2-31.4-5.6
		s-36.2,6.3-51.9,14.2c-15.7,7.9-33.6,10.1-38.1,10.8c-4.6,0.6-14.8,1.4-14.8,1.4l2.2-7.1c0,0,16.5-20.1,16.2-30.2
		c-0.3-10,0.5-22-12.3-37.1c-12.8-15.1-35.6-36.1-35.6-36.1s-19.9-23.9-22.4-42.1c-2.5-18.1-0.5-41.4-1.5-49.4s-4.8-17.9-16.5-27.5
		l-4.4-3c0,0-0.1-10.4-12.7-21.2L130,44.3c0,0-5.4-15.7-15.5-26.9S102.4,7,96.7,9.7c-5.7,2.7-8.2,6.1-6.3,14.1
		c1.9,8,14.1,65.9,14.1,65.9l4.1,9.5l2.7,46.7l0.3,24.1c0.1,9.2,1,18.3,2.7,27.4c1.8,9.8,4.5,22.6,7.8,32.4
		c6.2,18.4,17.2,47,17.2,47l26.7,57.3l12.3,25.4c0,0,0.3,11.1,2.2,23.4c1.9,12.3,2.5,15.2,2.5,15.2L190.2,403.2z"/>
	<path class="st24" d="M225,352.1c9.9-11,10.5-31.9,10.5-31.9c-1.1-35.3-31.7-53.6-54.7-84.9s-28.1-60.4-29.8-75.6
		c-1.7-15.2,3-28.1-2.5-47.1s-31.9-18.6-36.1-22.6c-4.2-4-20.7-76.5-20.7-76.5"/>
	<path class="st24" d="M422.8,400.1c0,0,3.6-12.7-5.7-28.5c-9.3-15.8-33.8-27.4-56.1-31c-22.2-3.6-54.2,1.5-82.7,16.9
		c-28.5,15.4-39.8,12.3-39.8,12.3"/>
	<path class="st24" d="M431.1,393.6c0,0-5.2-30.2-37.4-49.6c-32.2-19.4-85.1-4.6-113.5,12.7"/>
	<path class="st24" d="M382.4,338.7c0,0,47.7,0.4,48.7,0.9c0,0,6.8,5.4,9,10.9"/>
	<path class="st24" d="M190.2,403.2l71.1-3l4-6.6l-11.1-17.7c0,0-11.2-1.3-19.9-8.6c-8.7-7.2-8.4-14.4-14.8-19.2
		c-2.5-1.8-5.1-3.3-7.5-4.4c-7.1-3.3-15.4-3.2-22.2,0.8c-4.5,2.6-8.9,7.2-11.6,14.9"/>
	<polygon class="st25" points="182.9,350.5 185.3,354.4 188.5,355.9 190.8,363.3 200.7,374.3 208.2,371.2 208.2,357.3 203.4,348.9 
		206.2,343 199.6,324.4 178.9,273.2 171.3,258.7 168.4,258.7 154.1,265.2 155.4,281.4 178.2,333.6 	"/>
	<polyline class="st24" points="182.9,350.5 200.6,343.5 203.4,348.9 	"/>
	<polyline class="st24" points="200.6,343.5 195.4,325.4 174.1,273.8 168.2,261.8 171.3,258.7 	"/>
	<line class="st24" x1="155.4" y1="281.4" x2="174.1" y2="273.8"/>
	<line class="st25" x1="177.7" y1="332.6" x2="195.4" y2="325.4"/>
	<path class="st24" d="M100.7,8.2c0,0,23.6,70.7,26.1,72.8s11.6,8.7,20.5,13.5c8.9,4.8,12.4,16.8,12.7,21.2s-0.1,29.8,0,48.6
		c0.1,18.8,8.6,42.9,23.2,59.7c14.6,16.7,44.7,47.7,51.1,59.1c6.5,11.4,10,26.7,8.7,36.9c-1.3,11.2-6.3,25.1-12.7,30.7
		c0,0,67.6-7.6,108.1-16.6l32.2-6.6"/>
	<path class="st25" d="M300.1,389.2c0,0-1.1,23.2,0,23.9c1.1,0.6,1.9,2.5,14.6,1.8c12.7-0.8,11.2-0.9,13.3-1.8
		c2.1-0.9-1.1-25.6-1.1-25.6s-2.2,1.5-10.1,1.5s-14.9,0-16.1-0.5S300.1,389.2,300.1,389.2z"/>
	<path class="st25" d="M325.1,387.5l-0.5-10.9h-22.3v12.2C302.3,388.7,322.4,389.8,325.1,387.5z"/>
	<polygon class="st25" points="299.5,376.6 326.4,376.6 324.6,306.4 344.1,290.3 385.9,288.4 385.9,283.5 374.5,275.8 363.9,275.8 
		314,277.9 273.1,280.3 260.8,288 260.8,292.8 273.2,293.1 294.9,307.4 	"/>
	<line class="st25" x1="282.7" y1="299.4" x2="334.2" y2="298.5"/>
	<polyline class="st25" points="260.8,288 379.1,284.1 385.9,283.5 	"/>
	<line class="st25" x1="273.2" y1="293.1" x2="344.1" y2="290.3"/>
	<polygon class="st25" points="233.2,362.9 251.2,360.7 251.3,361.7 252.2,368.6 234,369.9 231.4,362.7 	"/>
	<path class="st212" d="M250.6,360.4l31-2.7l5.6,10.4c0,0-1.4-0.3-4.9,1.8s-4.8-0.5-7.6-0.9c-2.9-0.5-5.4,2.5-7.9,2.2
		c-2.5-0.3-2.9-2.8-6.3-2.5c-3.3,0.3-4.6,3.1-6.2,2.5S250.6,360.4,250.6,360.4z"/>
</g>
<line class="st175" x1="213.8" y1="431.1" x2="433" y2="431.1"/>
<rect x="343.2" y="424.6" class="st36" width="41.9" height="13.4"/>
<g>
	<text transform="matrix(1 0 0 1 347.6059 435.3755)" class="st40 st48 st213">51cm</text>
</g>
<line class="st45" x1="415.8" y1="338.5" x2="492" y2="338.5"/>
</svg>
