<svg xmlns="http://www.w3.org/2000/svg" viewBox="0 0 450.1 750.68"><defs><style>.cls-1,.cls-2,.cls-3,.cls-5,.cls-6{fill:#fff;}.cls-1,.cls-2,.cls-3,.cls-4,.cls-5,.cls-6,.cls-7,.cls-8{stroke:#000;}.cls-1,.cls-2,.cls-3,.cls-4,.cls-7,.cls-8{stroke-miterlimit:10;}.cls-1,.cls-7{stroke-width:2px;}.cls-2,.cls-4,.cls-5{stroke-width:3px;}.cls-4,.cls-7,.cls-8{fill:none;}.cls-5,.cls-6{stroke-linejoin:round;}</style></defs><title>ravena diagonal </title><g id="Camada_2" data-name="Camada 2"><g id="base"><polyline class="cls-1" points="206.81 703.75 206.81 734.77 219.8 734.77 219.8 704.07"/><path class="cls-1" d="M206.81,709.27h-7.23a93.57,93.57,0,0,0-2.16,21.5c.17,12.16,2.16,18.91,2.16,18.91h6.84Z"/><path class="cls-1" d="M219.8,709.27H227a93.57,93.57,0,0,1,2.16,21.5C229,742.93,227,749.68,227,749.68h-6.84Z"/><path class="cls-2" d="M109,634.18s-11.85,1.33-12,2.92-5.75,31,6,30.87,19.75-3.25,20.5-5.12S109,634.18,109,634.18Z"/><path class="cls-2" d="M318.54,632.35s6.22.25,9.34,1.67a18.52,18.52,0,0,1,5.45,4s-2.66,25.91-4.24,26.91-8.33,1.75-19.5,0,1.17-31.75,1.17-31.75Z"/><path class="cls-2" d="M197.92,657.52l2.34,44.33,12.66,3.67,12.67-2.67,2.33-45.33s5-3.34,22.34-1.34,131,11.67,131,11.67v3s7.33,1.67,11,2a28.85,28.85,0,0,0,6,0l5.66-2-1.16-19L349.26,641l-47-8.84,13.16-.83,1,1.83,4.67-1.83-.67-11.5-6.66-8.67-80.34,4-41.33,1-53.5-1.66-1.83-1.34-21.67-1-4.83,1.17-4.34,6.83-.83,2v11.34l13.5.66L75.92,643l-3-.84-46,9.34-1.16,1.33-2.34,1-1,20.83,17.34,1L45.09,673l-.33-2.84L187.26,656S195.92,654.52,197.92,657.52Z"/><line class="cls-2" x1="192.34" y1="619.1" x2="118.59" y2="634.18"/><line class="cls-2" x1="234.84" y1="619.1" x2="302.26" y2="632.18"/><polyline class="cls-2" points="199.57 688.89 207.59 681.6 218.09 681.6 226.31 688.89"/><polyline class="cls-2" points="199.57 670.18 207.92 662.85 218.42 662.85 226.31 670.18"/><line class="cls-2" x1="207.59" y1="681.6" x2="207.42" y2="621.85"/><line class="cls-2" x1="218.26" y1="621.85" x2="218.09" y2="681.6"/><line class="cls-2" x1="320.42" y1="619.85" x2="259.74" y2="623.93"/><line class="cls-2" x1="291.59" y1="612.29" x2="297.12" y2="621.42"/><polyline class="cls-3" points="402.76 651.85 396.26 658.35 396.26 672.99"/><path class="cls-4" d="M227.92,657.52s-1.23-19.67,2.77-21.84,17.9-.83,17.9-.83l147.67,23.5"/><path class="cls-4" d="M197.92,657.52s1.67-23.84,0-24.17-34.16,4.83-34.16,4.83l-90.67,17-42.67,8.5-7-9.83"/><line class="cls-2" x1="75.92" y1="643.02" x2="81.51" y2="653.6"/><polyline class="cls-2" points="105.92 620.18 128.76 622.52 134.09 614.68 136.76 613.18"/><line class="cls-2" x1="159.87" y1="625.74" x2="128.76" y2="622.52"/><path class="cls-5" d="M192.09,616.18s10.42,5.24,21.08,5.24a46.63,46.63,0,0,0,19.42-4.57l-1.9-55s-11.1,4.25-18.35,4.25-18.25-.5-18.25-3S192.09,616.18,192.09,616.18Z"/><path class="cls-6" d="M195,562.78c2.85-.93,13-3.41,35.73-.93,0,0-10.59,4.24-17,4.2-6.14,0-12.39,1.55-18.86-2.45A.45.45,0,0,1,195,562.78Z"/><path class="cls-2" d="M198.13,565.18l.84-19.33h26.25l.68,17.7S217.8,570.14,198.13,565.18Z"/><polygon class="cls-2" points="203.59 545.85 203.59 521.23 221.59 522.73 221.09 545.85 203.59 545.85"/><path class="cls-1" d="M38.8,676.25l1.07,21.51s1.3,20.16-18.41,20.16c-9.94,0-15.15-5.3-17.88-10.55a22.86,22.86,0,0,1-.25-20.6,16.76,16.76,0,0,1,11.3-9.35s7.46-1.26,11.67,1a.87.87,0,0,0,1.27-.84l-.12-2Z"/><path class="cls-1" d="M1.47,702.1s-3.15-16.29,13-22.44c9.38-3.56,20.58,2.64,23.3,9.52l.9,2.25"/><path class="cls-1" d="M2.46,704.84S.07,688.26,16.25,682.11c9.38-3.56,20.13,3.87,22.55,9.81l.89,2.25"/><path class="cls-1" d="M12.18,688.26a.62.62,0,0,1,.83.12c1.36,1.78,6.84,9,6.47,9.66s.39,1.27-6.56-.19l-5.75-1.2c-.36-.07-.74-.5-.6-.83C7.68,693.22,10.42,689.48,12.18,688.26Z"/><path class="cls-1" d="M25,685.15a.59.59,0,0,1,.42.71c-.53,2.18-2.74,11-3.45,11.11s-.75,1.1-4-5.23l-2.67-5.23c-.16-.32-.07-.89.27-1C18.27,684.76,22.9,684.54,25,685.15Z"/><path class="cls-1" d="M35.33,692.88a.58.58,0,0,1-.26.75c-1.9,1-9.64,4.8-10.15,4.34s-1.25.14,1.34-6.1c1.32-3.17,1.84-4.44,2.14-5.15.13-.32.6-.61.88-.42C31.5,687.8,34.51,691,35.33,692.88Z"/><path class="cls-1" d="M8.2,708.44a.6.6,0,0,0,.82.15c1.86-1.25,9.38-6.38,9.22-7.08s.77-1.08-6.28-1.92l-5.83-.7c-.36,0-.87.24-.84.6C5.52,702.3,6.92,706.73,8.2,708.44Z"/><path class="cls-1" d="M19.92,715.26a.6.6,0,0,0,.64-.54c.23-2.23,1.11-11.29.48-11.61s-.34-1.29-5.5,3.58l-4.28,4c-.26.25-.37.82-.07,1C13.49,713.38,17.78,715.14,19.92,715.26Z"/><path class="cls-1" d="M32,711.37a.57.57,0,0,0,0-.79c-1.46-1.55-7.43-7.8-8.06-7.54s-1.13-.56-.82,6.19c.16,3.43.22,4.8.25,5.57,0,.35.36.78.69.69C26.66,714.85,30.58,712.84,32,711.37Z"/><path class="cls-1" d="M36.6,698.68a.58.58,0,0,0-.65-.45c-2.1.33-10.63,1.76-10.77,2.42s-1.1.62,4.66,4.16l4.75,2.92c.29.18.84.14,1-.18C36.47,705,37,700.67,36.6,698.68Z"/><path class="cls-1" d="M386.67,672.44,385.6,694s-1.3,20.16,18.41,20.16c9.94,0,15.15-5.3,17.88-10.55a22.89,22.89,0,0,0,.25-20.6,16.75,16.75,0,0,0-11.3-9.35s-7.46-1.26-11.67,1a.88.88,0,0,1-1.28-.84l.13-2Z"/><path class="cls-1" d="M424,698.29s3.15-16.29-13-22.44c-9.38-3.56-20.58,2.64-23.3,9.51l-.9,2.25"/><path class="cls-1" d="M423,701s2.39-16.58-13.8-22.73c-9.37-3.57-20.12,3.87-22.54,9.81l-.89,2.25"/><path class="cls-1" d="M413.29,684.45a.61.61,0,0,0-.83.12c-1.36,1.78-6.85,9-6.47,9.66s-.39,1.27,6.56-.19l5.75-1.2c.35-.08.74-.5.6-.84C417.79,689.41,415.05,685.67,413.29,684.45Z"/><path class="cls-1" d="M400.51,681.33a.61.61,0,0,0-.42.72c.53,2.18,2.74,11,3.45,11.11s.74,1.09,4-5.23l2.67-5.23c.16-.32.07-.89-.27-1C407.2,680.94,402.56,680.73,400.51,681.33Z"/><path class="cls-1" d="M390.14,689.07a.57.57,0,0,0,.26.75c1.9,1,9.64,4.8,10.14,4.34s1.26.14-1.33-6.1c-1.32-3.17-1.85-4.44-2.14-5.16-.13-.31-.6-.6-.89-.41C394,684,391,687.21,390.14,689.07Z"/><path class="cls-1" d="M417.27,704.63a.6.6,0,0,1-.82.15c-1.86-1.25-9.38-6.39-9.22-7.08s-.77-1.09,6.28-1.92l5.83-.7c.36,0,.86.24.84.6C420,698.49,418.55,702.92,417.27,704.63Z"/><path class="cls-1" d="M405.55,711.45a.59.59,0,0,1-.64-.54c-.24-2.23-1.12-11.29-.48-11.61s.33-1.29,5.5,3.58l4.27,4c.27.25.37.82.08,1C412,709.57,407.69,711.33,405.55,711.45Z"/><path class="cls-1" d="M393.48,707.56a.57.57,0,0,1,0-.79c1.46-1.55,7.43-7.8,8.06-7.54s1.13-.56.82,6.19c-.16,3.43-.22,4.8-.26,5.57,0,.35-.35.78-.69.69C398.81,711,394.89,709,393.48,707.56Z"/><path class="cls-1" d="M388.87,694.87a.57.57,0,0,1,.65-.45c2.1.33,10.63,1.76,10.77,2.42s1.09.62-4.66,4.16l-4.75,2.92c-.3.18-.84.14-1-.18C389,701.23,388.45,696.86,388.87,694.87Z"/></g><g id="Frontal"><g id="diagonal"><g id="estofamento"><path class="cls-2" d="M156.26,8.85s-47.67-12-57.34-5.33-12.66,20.66-13.66,29,1,50-15.67,63.66-36.33,23.34-35.67,44.67.34,36.33,10,75.67c0,0,2,16.33,1.34,26.33s.66,81,.66,81l8.55-4.25L57,321l2.5,43,4.12,41.75s7.5,26.5,13.25,33.63,7.5,12.25,7.5,12.25l42.5-11.5,157.08-.92,13.67-12.34s21.33-18,20.33-43-6-41-41.33-89.33,6.67-103.67,6.33-127.34-13-29-39-43.33-36.66-28.67-45-66.33S187.26,19.52,156.26,8.85Z"/><path class="cls-2" d="M401.58,418.68A57.14,57.14,0,0,1,423.37,420c10.94,2.83,24.82,8.64,25.22,19.9.67,18.67-22,67.33-22,67.33L264.92,524.52s.67-14.34-5-19-19-35-23.66-40.67-32.67-26.32-32.67-26.32,14-3.68,72-7C321.82,428.86,379.9,421.54,401.58,418.68Z"/><path class="cls-2" d="M444.76,460.57s3.5,30.61-2.17,36.28-16,10.33-16,10.33S442.26,470.11,444.76,460.57Z"/><path class="cls-2" d="M332.09,426.84s29.17-13.16,47.83-14.32a70.18,70.18,0,0,1,32.5,5.66s-2.6-1.65-47.8,5.09Z"/><path class="cls-7" d="M278.92,167.18s-45.33,38-46.33,47.34,13.33,93,13.33,93l19,97,7.69,27.17s28-11.51,34.64-32.51,4.33-37-4-51.33-31.43-53-31.43-53-17.24-27.33-12.91-52.33,4.34-29,10.67-47S279.26,173.85,278.92,167.18Z"/><path class="cls-2" d="M102.58,2.11s-10,8.41-10,25.74-1.33,46-7.67,55-35.66,25.74-33.33,52,11,64.29,14.33,87,9.52,71.67,11.1,86,7.24,44.33,7.24,44.33"/><path class="cls-2" d="M39.35,122.58s2.24,33.6,5.24,55.94,16.67,87.33,16.67,101.33,8.33,89.33,9.33,104.33,10,60.4,10,60.4"/><path class="cls-7" d="M53.52,150.91s15.74,3.27,21.4,34.27,8,57.67,8,57.67l14.83,84,6.17,23-16.66,2.33-14-100.63s-11.53-81-13.27-86S53.52,150.91,53.52,150.91Z"/><path class="cls-7" d="M85.69,258.52s37-14,70-12,62.26,12,62.26,12c0-8.34,14.67-44,14.67-44s-43.33-25.67-82.67-27.67-71.2,21.5-71.2,21.5"/><line class="cls-7" x1="93.93" y1="305.18" x2="225.92" y2="305.18"/><path class="cls-7" d="M259.92,505.52s5.35-39.57,5-44.95-.53-18.8-27-21.12-34.33-.92-34.33-.92"/><line class="cls-8" x1="222.17" y1="305.18" x2="209.33" y2="337.39"/><line class="cls-8" x1="206.47" y1="305.18" x2="192.74" y2="339.36"/><path class="cls-2" d="M264.92,524.52s-7.33,2.08-43.33-1.8-92.33-7.87-92.33-7.87l-2.67-20.75-1.75-1.5V479.1l1.5-2.75.5-36.25s16.75-18.25,45.25-14.75,64.17,39.5,64.17,39.5,18.25,35.33,23.66,40.67S264.92,524.52,264.92,524.52Z"/><line class="cls-8" x1="186.78" y1="305.18" x2="172.73" y2="340.16"/><line class="cls-8" x1="167.09" y1="305.18" x2="152.96" y2="340.37"/><line class="cls-8" x1="147.4" y1="305.18" x2="132.66" y2="341.88"/><line class="cls-8" x1="127.71" y1="305.18" x2="109.56" y2="350.39"/><line class="cls-8" x1="94.77" y1="309.97" x2="122.99" y2="342.76"/><line class="cls-8" x1="112.59" y1="305.18" x2="143.27" y2="340.37"/><line class="cls-8" x1="134.2" y1="305.39" x2="164.88" y2="340.57"/><line class="cls-8" x1="155.82" y1="305.59" x2="186.49" y2="340.78"/><line class="cls-8" x1="177.43" y1="305.79" x2="208.11" y2="340.98"/><line class="cls-8" x1="199.05" y1="305.99" x2="229.72" y2="341.18"/></g><g id="braços"><g id="almofadas"><path class="cls-7" d="M121.92,438.11l-4-42.26,3.34-53,121.33-6.33L251.23,350a54.08,54.08,0,0,1,6.53,14.62l2.94,10.56a81.79,81.79,0,0,1,3,20.27c.14,6.85-.26,14.82-2.45,19-4.34,8.33-14.32,18.92-14.32,18.92l-47.79,2.36"/><path class="cls-1" d="M225.92,337.39s22.17,22.46,20.42,47.46-14.72,49.34-14.72,49.34"/><path class="cls-7" d="M139.87,341.88s18.39,22.1,20,43.91a255.79,255.79,0,0,1,0,39.33"/><path class="cls-7" d="M121.26,342.85s17.83,26.5,17.33,50.5a136.8,136.8,0,0,1-8.66,43.93"/><path class="cls-8" d="M205.57,338.45a89.26,89.26,0,0,1,35,20.18"/><path class="cls-8" d="M183.05,340s33.09,10.49,63.39,45.83"/><path class="cls-8" d="M161.6,340.78s47.49,17.85,78.09,74.33"/><path class="cls-8" d="M155.48,368.2s20.45,15.3,54.2,67.33"/><path class="cls-8" d="M160.54,403.2a130.12,130.12,0,0,1,16.54,21.92"/><path class="cls-8" d="M145,341.88s53,24,83.63,92.31"/><path class="cls-8" d="M243.15,364.76s-14.56,42.09-44.89,67.76"/><path class="cls-8" d="M229.84,341.88s-13.92,54.8-48.7,84.5"/><path class="cls-8" d="M207.39,338.45s-12.5,53.73-45.79,84.5"/><path class="cls-8" d="M188.11,339.36c-4.25,13.31-13,36.18-27.44,56.06"/><path class="cls-8" d="M168.87,340a195.37,195.37,0,0,1-13.39,28.24"/><path class="cls-1" d="M171.84,125.35s2.92,21,5.42,23.33,39.66,17.34,42.16,16,1.67-9-.83-15-3.5-13.52-7.33-14.83c-3.13-1.07-27.89-10.23-37-13.6a2.06,2.06,0,0,0-2.74,2.28Z"/><path class="cls-1" d="M188.67,131.1s-10.41-1.5-10.91,4.75,5,11.25,15.25,15.08,16.08,2.67,18.75-.58.83-7.25-4.09-10.5S194.92,132.27,188.67,131.1Z"/><path class="cls-3" d="M178.8,133.26s20.29,8.17,21.87,11.76-1.08,7.84-1.08,7.84"/><path class="cls-1" d="M94.5,123.09a7.44,7.44,0,0,0-6,4.26c-3,6.54-6.73,20.62-4.61,23,3,3.36,33.63-2.75,38.25-4.75s11.25-23,11.25-23,1.46-4-3-3.17C126.79,120.05,104,122.21,94.5,123.09Z"/><path class="cls-1" d="M94.72,127.85S88,129.79,88.59,136s3.22,10.46,14,8.59,18.89-1.38,23.64-12.75S128,121.12,128,121.12Z"/><path class="cls-3" d="M198.27,152.57,225.92,335.1l.49,2.29,11.18-.61-5.42-36.85-12.08-81.25L213,176.18l-4.36-23.61A19,19,0,0,1,198.27,152.57Z"/><polygon class="cls-3" points="93.54 143.4 103.92 142.14 104.72 145.05 131.26 302.18 138.6 341.18 122.23 341.88 107.26 244.98 95.26 173.68 91.76 145.85 93.54 143.4"/><polygon class="cls-3" points="99.57 3.13 116.42 21.98 131.09 37.52 132.76 34.68 110.59 1.5 99.57 3.13"/><path class="cls-3" d="M166.59,11l29,28.79,10.19-3.6L178.42,14.52A41.85,41.85,0,0,0,166.59,11Z"/><path class="cls-1" d="M108.26,22.18s-11.67-1-6.67,41.34-9.49,48.66-1.25,59,39.58-11.34,58.92-9c12.34,1.49,29.16,10.18,40.33,16,6.32,3.31,10.82,5.69,11.67,5.33,2.33-1,7.66-1,8-20.33s.33-73.34-1.67-75.34-11-8-28.33,4.67-47-1-57.67-8.33C129.26,33.91,121.26,20.18,108.26,22.18Z"/><path class="cls-1" d="M108.26,22.18S129.92,51,128.59,78.44s-7.68,44.14-7.68,44.14"/><path class="cls-1" d="M213.3,36.72s4.6,60.54-3,77.46-10.67,15.34-10.67,15.34"/><path class="cls-3" d="M111,125.29s6.5,5.22,4.62,10.31-11.12,8.1-11.12,8.1"/></g><path class="cls-2" d="M177.08,518.57,133.76,523s-7,5.16-7.5,5.33-20.34.83-20.34.83l-3-4.1V494.35h21.92l1.58,23.5,5-.17L145,516Z"/><line class="cls-2" x1="135.01" y1="522.52" x2="133.73" y2="517.4"/><polygon class="cls-2" points="104.59 478.6 104.59 494.35 122.59 494.35 122.59 478.35 104.59 478.6"/><polygon class="cls-2" points="125.34 367.39 73.42 368.68 82.92 376.52 96.09 387.31 98.09 412.02 101.09 477.23 104.59 478.6 122.59 478.35 124.09 477.23 124.84 387.6 135.72 374.03 148.84 365.52 125.34 367.39"/><line class="cls-2" x1="82.92" y1="376.52" x2="135.72" y2="374.03"/><path class="cls-2" d="M364.8,415.19l-1.21-37.51L339.42,361l-12.5.88v-9.67l3.84-4.16,80.16-4.34,25.84-1,11.84,7.84v4.58l-23.51,1-11.75,1-23.25,19.37,1,36.25A69.15,69.15,0,0,0,364.8,415.19Z"/><line class="cls-2" x1="413.34" y1="357.1" x2="339.42" y2="360.97"/><line class="cls-2" x1="349.98" y1="368.77" x2="401.72" y2="366.78"/><polygon class="cls-2" points="71.26 354.08 61.09 361.68 61.09 368.2 127.93 367.18 183.04 364.76 182.58 353.18 173.26 348.54 129.93 349.52 102.58 350.39 71.26 354.08"/><path class="cls-2" d="M45.92,323.85l-6.57,17.33,8,66.67-8,20.75v60.75l4,9.5,39.58,4.5,20-.83,2.67-21.67-3.33-9.5L84.34,451.6s-1.74-5.8-8.91-14.32L63.59,405.72l-3.85-39L57,321l-2.5-1.37Z"/><polyline class="cls-1" points="54.47 319.6 47.01 338.6 55.76 405.02 49.76 407.85"/><polyline class="cls-7" points="41.42 341.88 47.01 338.6 52.76 339.36 62.09 405.68 52.59 425.12 53.52 429.68 48.59 433.18 49.76 462.68 47.01 464.35 44.92 462.85 42.59 430.68"/><path class="cls-1" d="M104.59,494.35l-17,1-7-23.54s-11-7.63-13.88-17.29-2.88-27.81-14.17-29.4"/><polyline class="cls-1" points="39.35 489.35 77.59 493.35 84.93 503.27"/><path class="cls-2" d="M66,501.43s-2.75,10.54,7.41,13,29.5,1.13,29.5,1.13V502.52l-20,.83Z"/><polygon class="cls-2" points="112.5 528.95 99.42 546.6 95.76 544.6 105.92 529.18 112.5 528.95"/><path class="cls-2" d="M95.76,544.6l-2.67-.33s-18.58,19.58-19.17,21.25.59,7.75,5.92,8.91,8.75.67,10.17,0S99.17,557,99.17,557l2.75-7.92-2.5-2.5Z"/><path class="cls-2" d="M77.82,573.66s-2.31-4.48.77-7.73,18-18.33,18-18.33l-3.5-3.33"/><line class="cls-2" x1="101.92" y1="549.1" x2="96.59" y2="547.6"/><path class="cls-2" d="M251.22,525.08l3,15.64H256l2.75,22.83s-4.38,5.17-17.5,5.55-15.32-1.5-15.32-1.5l-.68-21.75.68-1-4.31-22.13S247.47,525.68,251.22,525.08Z"/></g></g></g></g></svg>