<?xml version="1.0" encoding="utf-8"?>
<!-- Generator: Adobe Illustrator 23.0.1, SVG Export Plug-In . SVG Version: 6.00 Build 0)  -->
<svg version="1.1" id="Camada_1" xmlns="http://www.w3.org/2000/svg" xmlns:xlink="http://www.w3.org/1999/xlink" x="0px" y="0px"
	 viewBox="0 0 600 600" style="enable-background:new 0 0 600 600;" xml:space="preserve">
<style type="text/css">
	.st0{fill:#FFFFFF;stroke:#1E1E1C;stroke-miterlimit:10;}
	.st1{fill:none;stroke:#1E1E1C;stroke-width:0.6333;stroke-miterlimit:10;}
	.st2{fill:#FFFFFF;stroke:#1E1E1C;stroke-width:1.2665;stroke-miterlimit:10;}
	.st3{fill:#FFFFFF;stroke:#1E1E1C;stroke-width:0.6333;stroke-miterlimit:10;}
	.st4{fill:none;stroke:#1E1E1C;stroke-width:0.9721;stroke-miterlimit:10;}
	.st5{fill:#FFFFFF;}
	.st6{fill:none;stroke:#1E1E1C;stroke-width:0.9881;stroke-miterlimit:10;}
	.st7{fill:none;stroke:#1E1E1C;stroke-width:1.2665;stroke-miterlimit:10;}
	.st8{fill:#FFFFFF;stroke:#1E1E1C;stroke-width:0.9721;stroke-miterlimit:10;}
	.st9{fill:#FFFFFF;stroke:#1E1E1C;stroke-width:0.9091;stroke-miterlimit:10;}
	.st10{fill:#FFFFFF;stroke:#1E1E1C;stroke-width:0.5889;stroke-miterlimit:10;}
	.st11{fill:#FFFFFF;stroke:#1E1E1C;stroke-width:1.019;stroke-miterlimit:10;}
	.st12{fill:#FFFFFF;stroke:#1E1E1C;stroke-width:0.953;stroke-miterlimit:10;}
	.st13{fill:#FFFFFF;stroke:#1E1E1C;stroke-width:0.6639;stroke-miterlimit:10;}
	.st14{fill:#FFFFFF;stroke:#1E1E1C;stroke-width:0.6174;stroke-miterlimit:10;}
	.st15{fill:#FFFFFF;stroke:#1E1E1C;stroke-width:1.3277;stroke-miterlimit:10;}
	.st16{fill:none;stroke:#1E1E1C;stroke-width:0.75;stroke-miterlimit:10;}
	.st17{fill:none;stroke:#1E1E1C;stroke-miterlimit:10;}
	.st18{fill:none;stroke:#1E1E1C;stroke-width:1.3977;stroke-miterlimit:10;}
	.st19{fill:none;stroke:#1E1E1C;stroke-width:2;stroke-miterlimit:10;}
	.st20{fill:#FFFFFF;stroke:#1E1E1C;stroke-width:0.5;stroke-miterlimit:10;}
	.st21{fill:none;stroke:#1E1E1C;stroke-width:0.5;stroke-miterlimit:10;}
	.st22{fill:none;stroke:#1E1E1C;stroke-width:1.0033;stroke-miterlimit:10;}
	.st23{fill:#FFFFFF;stroke:#020203;stroke-width:0.75;stroke-miterlimit:10;}
	.st24{fill:none;stroke:#020203;stroke-miterlimit:10;}
	.st25{fill:#FFFFFF;stroke:#020203;stroke-miterlimit:10;}
	.st26{fill:none;stroke:#020203;stroke-width:0.5;stroke-miterlimit:10;}
	.st27{fill:#FFFFFF;stroke:#020203;stroke-linejoin:round;}
	.st28{fill:none;stroke:#020203;stroke-linejoin:round;}
	.st29{fill:none;stroke:#020203;stroke-width:0.75;stroke-miterlimit:10;}
	.st30{fill:none;stroke:#020203;stroke-width:0.25;stroke-miterlimit:10;}
	.st31{fill:none;stroke:#E52624;stroke-width:1.5;stroke-miterlimit:10;}
	.st32{fill:#E52624;}
	.st33{fill:#FFFFFF;stroke:#020203;stroke-width:0.5;stroke-miterlimit:10;}
	.st34{fill:none;stroke:#E52522;stroke-width:1.5;stroke-miterlimit:10;}
	.st35{fill:#E52522;}
	.st36{fill:#E7E6E6;}
	.st37{fill:none;stroke:#E20D18;stroke-width:2;stroke-miterlimit:10;}
	.st38{fill:none;stroke:#E20D18;stroke-width:1.8;stroke-miterlimit:10;}
	.st39{fill:none;stroke:#E20D18;stroke-width:1.62;stroke-miterlimit:10;}
	.st40{fill:#E20D18;}
	.st41{fill:none;stroke:#E20D18;stroke-width:1.54;stroke-miterlimit:10;}
	.st42{fill:none;stroke:#E20D18;stroke-width:1.74;stroke-miterlimit:10;}
	.st43{fill:none;stroke:#E20D18;stroke-width:1.55;stroke-miterlimit:10;}
	.st44{fill:none;stroke:#E20D18;stroke-width:1.56;stroke-miterlimit:10;}
	.st45{fill:none;stroke:#E20D18;stroke-width:1.53;stroke-miterlimit:10;}
	.st46{fill:none;stroke:#E20D18;stroke-width:1.58;stroke-miterlimit:10;}
	.st47{fill:none;stroke:#E20D18;stroke-width:1.69;stroke-miterlimit:10;}
	.st48{fill:none;stroke:#E20D18;stroke-width:1.43;stroke-miterlimit:10;}
	.st49{fill:none;stroke:#E20D18;stroke-width:1.48;stroke-miterlimit:10;}
	.st50{font-family:'Roboto-Medium';}
	.st51{font-size:12.7915px;}
	.st52{fill:none;stroke:#E20D18;stroke-width:1.67;stroke-miterlimit:10;}
	.st53{fill:none;stroke:#E20D18;stroke-width:1.65;stroke-miterlimit:10;}
	.st54{font-size:13.0884px;}
	.st55{fill:#FFFFFF;stroke:#020203;stroke-width:3;stroke-miterlimit:10;}
	.st56{fill:none;stroke:#E20D18;stroke-width:1.41;stroke-miterlimit:10;}
	.st57{fill:none;stroke:#E20D18;stroke-width:1.59;stroke-miterlimit:10;}
	.st58{fill:none;stroke:#1E1E1C;stroke-width:1.05;stroke-miterlimit:10;}
	.st59{fill:none;stroke:#1E1E1C;stroke-width:0.52;stroke-miterlimit:10;}
	.st60{fill:none;stroke:#1E1E1C;stroke-width:0.8;stroke-miterlimit:10;}
	.st61{fill:none;stroke:#1E1E1C;stroke-width:0.49;stroke-miterlimit:10;}
	.st62{fill:none;stroke:#1E1E1C;stroke-width:0.84;stroke-miterlimit:10;}
	.st63{fill:none;stroke:#1E1E1C;stroke-width:0.79;stroke-miterlimit:10;}
	.st64{fill:none;stroke:#1E1E1C;stroke-width:0.55;stroke-miterlimit:10;}
	.st65{fill:none;stroke:#1E1E1C;stroke-width:0.51;stroke-miterlimit:10;}
	.st66{fill:none;stroke:#1E1E1C;stroke-width:1.1;stroke-miterlimit:10;}
	.st67{fill:none;stroke:#1E1E1C;stroke-width:0.25;stroke-miterlimit:10;}
	.st68{fill:none;stroke:#1E1E1C;stroke-width:1.07;stroke-miterlimit:10;}
	.st69{fill:none;stroke:#1E1E1C;stroke-width:0.94;stroke-miterlimit:10;}
	.st70{fill:none;stroke:#1E1E1C;stroke-width:0.56;stroke-miterlimit:10;}
	.st71{fill:none;stroke:#E20D18;stroke-width:1.5;stroke-miterlimit:10;}
	.st72{fill:none;stroke:#E20D18;stroke-width:1.49;stroke-miterlimit:10;}
	.st73{fill:none;stroke:#E20D18;stroke-miterlimit:10;}
	.st74{fill:none;stroke:#1E1E1C;stroke-width:0.78;stroke-miterlimit:10;}
	.st75{fill:none;stroke:#1E1E1C;stroke-width:1.08;stroke-miterlimit:10;}
	.st76{fill:none;stroke:#1E1E1C;stroke-width:0.54;stroke-miterlimit:10;}
	.st77{fill:none;stroke:#1E1E1C;stroke-width:0.83;stroke-miterlimit:10;}
	.st78{fill:none;stroke:#1E1E1C;stroke-width:0.77;stroke-miterlimit:10;}
	.st79{fill:none;stroke:#1E1E1C;stroke-width:0.87;stroke-miterlimit:10;}
	.st80{fill:none;stroke:#1E1E1C;stroke-width:0.81;stroke-miterlimit:10;}
	.st81{fill:none;stroke:#1E1E1C;stroke-width:1.13;stroke-miterlimit:10;}
	.st82{fill:none;stroke:#1E1E1C;stroke-width:0.21;stroke-miterlimit:10;}
	.st83{fill:#FFFFFF;stroke:#1E1E1C;stroke-width:0.84;stroke-miterlimit:10;}
	.st84{fill:none;stroke:#1E1E1C;stroke-width:0.42;stroke-miterlimit:10;}
	.st85{fill:none;stroke:#1E1E1C;stroke-width:0.24;stroke-miterlimit:10;}
	.st86{fill:none;stroke:#E20D18;stroke-width:1.6;stroke-miterlimit:10;}
	.st87{fill:none;stroke:#E20D18;stroke-width:1.64;stroke-miterlimit:10;}
	.st88{fill:none;stroke:#E20D18;stroke-width:1.484;stroke-miterlimit:10;}
	.st89{fill:none;stroke:#E20D18;stroke-width:1.4075;stroke-miterlimit:10;}
	.st90{fill:none;stroke:#E20D18;stroke-width:1.5853;stroke-miterlimit:10;}
	.st91{fill:none;stroke:#E20D18;stroke-width:1.2981;stroke-miterlimit:10;}
	.st92{fill:none;stroke:#E20D18;stroke-width:0.9733;stroke-miterlimit:10;}
	.st93{fill:none;stroke:#E20D18;stroke-width:0.9159;stroke-miterlimit:10;}
	.st94{fill:none;stroke:#E20D18;stroke-width:1.4439;stroke-miterlimit:10;}
	.st95{fill:none;stroke:#E20D18;stroke-width:1.0062;stroke-miterlimit:10;}
	.st96{fill:none;stroke:#E20D18;stroke-width:0.9468;stroke-miterlimit:10;}
	.st97{fill:none;stroke:#E20D18;stroke-width:1.6749;stroke-miterlimit:10;}
	.st98{fill:none;stroke:#E20D18;stroke-width:1.6513;stroke-miterlimit:10;}
	.st99{fill:#FFFFFF;stroke:#1E1E1C;stroke-width:0.8664;stroke-miterlimit:10;}
	.st100{fill:#FFFFFF;stroke:#1E1E1C;stroke-width:1.0973;stroke-miterlimit:10;}
	.st101{fill:none;stroke:#1E1E1C;stroke-width:1.0973;stroke-miterlimit:10;}
	.st102{fill:#FFFFFF;stroke:#1E1E1C;stroke-width:0.5487;stroke-miterlimit:10;}
	.st103{fill:none;stroke:#1E1E1C;stroke-width:0.8422;stroke-miterlimit:10;}
	.st104{fill:#FFFFFF;stroke:#1E1E1C;stroke-width:0.7877;stroke-miterlimit:10;}
	.st105{fill:#FFFFFF;stroke:#1E1E1C;stroke-width:0.5103;stroke-miterlimit:10;}
	.st106{fill:#FFFFFF;stroke:#1E1E1C;stroke-width:0.8422;stroke-miterlimit:10;}
	.st107{fill:none;stroke:#1E1E1C;stroke-width:0.8829;stroke-miterlimit:10;}
	.st108{fill:#FFFFFF;stroke:#1E1E1C;stroke-width:0.8257;stroke-miterlimit:10;}
	.st109{fill:#FFFFFF;stroke:#1E1E1C;stroke-width:0.5752;stroke-miterlimit:10;}
	.st110{fill:#FFFFFF;stroke:#1E1E1C;stroke-width:0.5349;stroke-miterlimit:10;}
	.st111{fill:#FFFFFF;stroke:#1E1E1C;stroke-width:1.1504;stroke-miterlimit:10;}
	.st112{fill:#FFFFFF;stroke:#1E1E1C;stroke-width:0.8829;stroke-miterlimit:10;}
	.st113{fill:none;stroke:#1E1E1C;stroke-width:0.5487;stroke-miterlimit:10;}
	.st114{fill:#FFFFFF;stroke:#1E1E1C;stroke-width:1.0441;stroke-miterlimit:10;}
	.st115{fill:none;stroke:#E20D18;stroke-width:1.5173;stroke-miterlimit:10;}
	.st116{fill:none;stroke:#E20D18;stroke-width:1.804;stroke-miterlimit:10;}
	.st117{fill:none;stroke:#E20D18;stroke-width:1.6153;stroke-miterlimit:10;}
	.st118{fill:none;stroke:#E20D18;stroke-width:1.578;stroke-miterlimit:10;}
	.st119{fill:none;stroke:#E20D18;stroke-width:1.6879;stroke-miterlimit:10;}
	.st120{fill:none;stroke:#E20D18;stroke-width:1.6347;stroke-miterlimit:10;}
	.st121{fill:none;stroke:#E20D18;stroke-width:1.5386;stroke-miterlimit:10;}
	.st122{fill:none;stroke:#E20D18;stroke-width:1.7396;stroke-miterlimit:10;}
	.st123{fill:#FFFFFF;stroke:#1E1E1C;stroke-width:1.4;stroke-miterlimit:10;}
	.st124{fill:none;stroke:#E20D18;stroke-width:1.4266;stroke-miterlimit:10;}
	.st125{fill:none;stroke:#E20D18;stroke-width:1.4299;stroke-miterlimit:10;}
	.st126{fill:none;stroke:#1E1E1C;stroke-width:0.9867;stroke-miterlimit:10;}
	.st127{fill:none;stroke:#DD0B18;stroke-width:1.4266;stroke-miterlimit:10;}
	.st128{fill:none;stroke:#DD0B18;stroke-width:1.4299;stroke-miterlimit:10;}
	.st129{fill:#DD0B18;}
	.st130{fill:none;stroke:#DD0B18;stroke-width:1.484;stroke-miterlimit:10;}
	.st131{fill:none;stroke:#DD0B18;stroke-width:1.4075;stroke-miterlimit:10;}
	.st132{fill:none;stroke:#DD0B18;stroke-width:1.5853;stroke-miterlimit:10;}
	.st133{fill:none;stroke:#DD0B18;stroke-width:1.2981;stroke-miterlimit:10;}
	.st134{fill:none;stroke:#DD0B18;stroke-width:0.9733;stroke-miterlimit:10;}
	.st135{fill:none;stroke:#DD0B18;stroke-width:0.9159;stroke-miterlimit:10;}
	.st136{fill:none;stroke:#DD0B18;stroke-width:1.4439;stroke-miterlimit:10;}
	.st137{fill:none;stroke:#DD0B18;stroke-width:1.0062;stroke-miterlimit:10;}
	.st138{fill:none;stroke:#DD0B18;stroke-width:0.9468;stroke-miterlimit:10;}
	.st139{fill:none;stroke:#DD0B18;stroke-width:1.6749;stroke-miterlimit:10;}
	.st140{fill:none;stroke:#DD0B18;stroke-width:1.6513;stroke-miterlimit:10;}
	.st141{fill:#FFFFFF;stroke:#1E1E1C;stroke-width:0.75;stroke-miterlimit:10;}
	.st142{fill:none;stroke:#DD0B18;stroke-width:1.5173;stroke-miterlimit:10;}
	.st143{fill:none;stroke:#DD0B18;stroke-width:1.804;stroke-miterlimit:10;}
	.st144{fill:none;stroke:#DD0B18;stroke-width:1.6153;stroke-miterlimit:10;}
	.st145{fill:none;stroke:#DD0B18;stroke-width:1.5551;stroke-miterlimit:10;}
	.st146{fill:none;stroke:#DD0B18;stroke-width:1.578;stroke-miterlimit:10;}
	.st147{fill:#E0E0E0;}
	.st148{fill:none;stroke:#DD0B18;stroke-width:1.6879;stroke-miterlimit:10;}
	.st149{fill:none;stroke:#DD0B18;stroke-width:1.6347;stroke-miterlimit:10;}
	.st150{fill:none;stroke:#DD0B18;stroke-width:1.5386;stroke-miterlimit:10;}
	.st151{fill:none;stroke:#DD0B18;stroke-width:1.7396;stroke-miterlimit:10;}
	.st152{fill:#FFFFFF;stroke:#020203;stroke-width:1.635;stroke-miterlimit:10;}
	.st153{fill:none;stroke:#E20D18;stroke-width:1.52;stroke-miterlimit:10;}
	.st154{fill:#020203;}
	.st155{fill:none;stroke:#1E1E1C;stroke-linejoin:round;}
	.st156{fill:none;stroke:#1E1E1C;stroke-linecap:round;stroke-miterlimit:10;}
	.st157{fill:#1E1E1C;}
	.st158{fill:none;stroke:#1E1E1C;stroke-linejoin:round;stroke-miterlimit:10;}
	.st159{fill:none;stroke:#020203;stroke-linejoin:bevel;stroke-miterlimit:10;}
	.st160{fill:none;stroke:#020203;stroke-miterlimit:10;stroke-dasharray:1;}
	.st161{fill:none;stroke:#020203;stroke-width:0.5;stroke-miterlimit:10;stroke-dasharray:1;}
	.st162{fill:none;stroke:#E20D18;stroke-width:1.3;stroke-miterlimit:10;}
	.st163{fill:none;stroke:#E20D18;stroke-width:0.97;stroke-miterlimit:10;}
	.st164{fill:none;stroke:#E20D18;stroke-width:0.92;stroke-miterlimit:10;}
	.st165{fill:none;stroke:#E20D18;stroke-width:1.44;stroke-miterlimit:10;}
	.st166{fill:none;stroke:#E20D18;stroke-width:1.01;stroke-miterlimit:10;}
	.st167{fill:none;stroke:#E20D18;stroke-width:0.95;stroke-miterlimit:10;}
	.st168{fill:#FFFFFF;stroke:#1E1E1C;stroke-width:2;stroke-miterlimit:10;}
	.st169{fill:none;stroke:#1E1E1C;stroke-width:1.5;stroke-linejoin:round;}
	.st170{fill:none;stroke:#1E1E1C;stroke-width:1.5;stroke-miterlimit:10;}
	.st171{fill:none;stroke:#1E1E1C;stroke-width:2;stroke-linecap:round;stroke-miterlimit:10;}
	.st172{fill:none;stroke:#1E1E1C;stroke-width:1.5;stroke-linecap:round;stroke-miterlimit:10;}
	.st173{fill:none;stroke:#1E1E1C;stroke-width:2;stroke-linejoin:round;stroke-miterlimit:10;}
	.st174{fill:none;stroke:#1E1E1C;stroke-width:2;stroke-linejoin:round;}
	.st175{fill:none;stroke:#020203;stroke-width:0.5;stroke-linejoin:bevel;stroke-miterlimit:10;}
	.st176{fill:none;stroke:#E20D18;stroke-width:1.63;stroke-miterlimit:10;}
	.st177{fill:none;stroke:#000000;stroke-miterlimit:10;}
	.st178{fill:#FFFFFF;stroke:#000000;stroke-miterlimit:10;}
	.st179{fill:none;stroke:#E20D18;stroke-width:1.3113;stroke-miterlimit:10;}
	.st180{fill:none;stroke:#E20D18;stroke-width:1.3459;stroke-miterlimit:10;}
	.st181{fill:none;stroke:#E20D18;stroke-width:1.4481;stroke-miterlimit:10;}
	.st182{fill:none;stroke:#E20D18;stroke-width:1.3929;stroke-miterlimit:10;}
	.st183{fill:none;stroke:#E20D18;stroke-width:1.327;stroke-miterlimit:10;}
	.st184{fill:none;stroke:#E20D18;stroke-width:1.4965;stroke-miterlimit:10;}
	.st185{fill:none;stroke:#E20D18;stroke-width:1.225;stroke-miterlimit:10;}
	.st186{fill:none;stroke:#E20D18;stroke-width:1.4563;stroke-miterlimit:10;}
	.st187{fill:none;stroke:#E20D18;stroke-width:1.5717;stroke-miterlimit:10;}
	.st188{fill:none;stroke:#E20D18;stroke-width:1.5529;stroke-miterlimit:10;}
	.st189{fill:#BFBEBF;stroke:#020203;stroke-miterlimit:10;}
	.st190{fill:none;stroke:#E20D18;stroke-width:2.0835;stroke-miterlimit:10;}
	.st191{fill:none;stroke:#E20D18;stroke-width:1.8751;stroke-miterlimit:10;}
	.st192{fill:none;stroke:#E20D18;stroke-width:1.6876;stroke-miterlimit:10;}
	.st193{fill:none;stroke:#E20D18;stroke-width:1.698;stroke-miterlimit:10;}
	.st194{fill:none;stroke:#E20D18;stroke-width:1.6043;stroke-miterlimit:10;}
	.st195{fill:none;stroke:#E20D18;stroke-width:1.8126;stroke-miterlimit:10;}
	.st196{fill:none;stroke:#E20D18;stroke-width:1.6147;stroke-miterlimit:10;}
	.st197{fill:none;stroke:#E20D18;stroke-width:1.5938;stroke-miterlimit:10;}
	.st198{fill:none;stroke:#E20D18;stroke-width:1.6251;stroke-miterlimit:10;}
	.st199{fill:none;stroke:#E20D18;stroke-width:1.6459;stroke-miterlimit:10;}
	.st200{fill:none;stroke:#E20D18;stroke-width:1.7605;stroke-miterlimit:10;}
	.st201{fill:#FFFFFF;stroke:#1E1E1C;stroke-width:0.87;stroke-miterlimit:10;}
	.st202{fill:#FFFFFF;stroke:#1E1E1C;stroke-width:1.1;stroke-miterlimit:10;}
	.st203{fill:#FFFFFF;stroke:#1E1E1C;stroke-width:0.55;stroke-miterlimit:10;}
	.st204{fill:#FFFFFF;stroke:#1E1E1C;stroke-width:0.79;stroke-miterlimit:10;}
	.st205{fill:#FFFFFF;stroke:#1E1E1C;stroke-width:0.51;stroke-miterlimit:10;}
	.st206{fill:none;stroke:#1E1E1C;stroke-width:0.88;stroke-miterlimit:10;}
	.st207{fill:#FFFFFF;stroke:#1E1E1C;stroke-width:0.83;stroke-miterlimit:10;}
	.st208{fill:#FFFFFF;stroke:#1E1E1C;stroke-width:0.58;stroke-miterlimit:10;}
	.st209{fill:#FFFFFF;stroke:#1E1E1C;stroke-width:0.53;stroke-miterlimit:10;}
	.st210{fill:#FFFFFF;stroke:#1E1E1C;stroke-width:1.15;stroke-miterlimit:10;}
	.st211{fill:#FFFFFF;stroke:#1E1E1C;stroke-width:0.88;stroke-miterlimit:10;}
	.st212{fill:#FFFFFF;stroke:#1E1E1C;stroke-width:1.04;stroke-miterlimit:10;}
	.st213{fill:#FFFFFF;stroke:#020203;stroke-linejoin:round;stroke-miterlimit:10;}
</style>
<path class="st25" d="M409.8,329c0,0,19.5-31.1,5-69.9s-20.3-50.3-16.4-79s12.8-44.7,13.6-49.7c0.8-5,3.1-27.9-12.8-36
	S367.4,82,359,71.7c-8.4-10.3-12.6-33.8-14-41.1c-1.4-7.3,1.4-25.1-43.8-23.7h-7.9c-45.2-1.4-42.4,16.5-43.8,23.7s-5.6,30.7-14,41.1
	s-24.3,14.5-40.2,22.6s-13.7,31-12.8,36c0.8,5,9.8,20.9,13.6,49.7s-1.9,40.2-16.4,79s5,69.9,5,69.9s28.2,27,67.7,31.4
	C396.5,376.2,409.8,329,409.8,329z"/>
<path class="st25" d="M372,337c26.3,0,41.3-3.9,42.4,20.9s-14.1,50-14.1,50l-97.5,0.8h-92.6c0,0-15.2-25.2-14.1-50
	c1.1-24.9,16.2-20.9,42.4-20.9s64.3-0.2,64.3-0.2S345.7,337,372,337z"/>
<path class="st25" d="M204.2,340.5c0,0-9.4-11.9-17.2-11.5c-7.7,0.4-12.1-2.1-15.7,16.3s2.7,41.7,7.3,49.4s15.9,18.5,25.1,18.6
	c9.2,0.1,36.4-4.6,36.4-4.6h-31C209.2,408.8,183.2,354.5,204.2,340.5z"/>
<path class="st25" d="M189.7,329.3c0,0-0.8,19.2,6.3,34"/>
<path class="st25" d="M170.6,350.3c0,0,2.7,30.2,25.4,60.4"/>
<path class="st25" d="M403.7,338.2c0,0,8.5-12.6,16.3-12.7s12-3,16.9,15.1s0.4,41.8-3.6,49.8c-4,8.1-14.5,19.7-23.7,20.4
	c-9.2,0.8-36.7-1.9-36.7-1.9l30.9-2.3C403.8,406.7,425.7,350.5,403.7,338.2z"/>
<path class="st25" d="M417.3,326c0,0,2.2,19.1-3.8,34.4"/>
<path class="st25" d="M438,345.5c0,0-0.5,30.3-20.9,62.1"/>
<path class="st24" d="M188.6,118.2c0,0,17.4,5.8,36.9,43.7l-3.1,132.2c0,0-0.9,29.9-1.3,32c-1.3,6.7-5.5,11.7-5.5,11.7"/>
<path class="st24" d="M381.1,337.6c1,0.5,29.9-30.8,26.3-66s-14.4-37.4-18.1-58.4c-3.7-20.9-0.9-38.8,2.2-50s14.8-37.8,14.8-49.2
	s-4.1-18.1-4.1-18.1"/>
<path class="st24" d="M405.8,118.2c0,0-17.4,5.8-36.9,43.7l3.1,132.2c0,0,0.9,29.9,1.3,32c1.3,6.7,5.5,11.7,5.5,11.7"/>
<polyline class="st24" points="225.6,167.9 235.2,199.3 230.4,336.8 "/>
<polyline class="st24" points="368.9,174.5 361.2,202.1 365,299.6 372.9,334.5 "/>
<line class="st24" x1="233.9" y1="236.5" x2="362.5" y2="234.8"/>
<path class="st24" d="M235.2,199.3c0,0,42.7-8.7,67-8.7s58.9,8.7,58.9,8.7"/>
<path class="st24" d="M225.6,161.9c0,0,24.2-18.2,72.6-18.2c47.9,0,71.3,17.1,71.3,17.1"/>
<line class="st24" x1="233.9" y1="237.9" x2="302.8" y2="337.6"/>
<line class="st24" x1="254.6" y1="236.7" x2="323.5" y2="336.5"/>
<line class="st24" x1="275.3" y1="235.6" x2="344.2" y2="335.4"/>
<line class="st24" x1="296.7" y1="235.6" x2="364.9" y2="334.3"/>
<line class="st24" x1="317.8" y1="235.1" x2="366.3" y2="305.4"/>
<line class="st24" x1="339.2" y1="235.1" x2="364.9" y2="272.2"/>
<line class="st24" x1="231.5" y1="319.1" x2="243.5" y2="336.5"/>
<line class="st24" x1="231.5" y1="293" x2="263.5" y2="337.8"/>
<line class="st24" x1="234.4" y1="267.7" x2="283.2" y2="336.8"/>
<path class="st24" d="M245.1,98.8l31.7-6.3c1.8-0.3,3.2,1.3,2.7,3l-3.2,9.9c-0.9,2.8-3.1,5.1-5.9,6.1L238,123.1c0,0-7.8,0.6-6.4-4.9
	c0.9-3.7,3.5-9.2,5.5-13.2C238.6,101.8,241.6,99.5,245.1,98.8z"/>
<path class="st24" d="M263.5,97.7l-19.9,4.2c-3.5,0.7-5.7,4.2-5,7.6l0,0.2c0.7,3.5,4.2,5.7,7.6,5l19.9-4.2c3.5-0.7,5.7-4.2,5-7.6
	l0-0.2C270.4,99.2,267,97,263.5,97.7z"/>
<path class="st24" d="M350.6,98.5l-31.7-6.3c-1.8-0.3-3.2,1.3-2.7,3l3.2,9.9c0.9,2.8,3.1,5.1,5.9,6.1l32.4,11.5c0,0,7.8,0.6,6.4-4.9
	c-0.9-3.7-3.5-9.2-5.5-13.2C357,101.4,354.1,99.1,350.6,98.5z"/>
<path class="st24" d="M332.1,97.3l19.9,4.2c3.5,0.7,5.7,4.2,5,7.6l0,0.2c-0.7,3.5-4.2,5.7-7.6,5l-19.9-4.2c-3.5-0.7-5.7-4.2-5-7.6
	l0-0.2C325.2,98.8,328.7,96.6,332.1,97.3z"/>
<line class="st24" x1="370.3" y1="319.1" x2="361.2" y2="336.8"/>
<line class="st24" x1="364.8" y1="293" x2="339.2" y2="336.5"/>
<line class="st24" x1="259.5" y1="235.6" x2="233.9" y2="279.1"/>
<line class="st24" x1="363.5" y1="260.4" x2="316.5" y2="337.4"/>
<line class="st24" x1="361.2" y1="235.1" x2="296.7" y2="336.8"/>
<line class="st24" x1="341.9" y1="234.1" x2="277.5" y2="335.8"/>
<line class="st24" x1="322.7" y1="233.2" x2="258.3" y2="334.8"/>
<line class="st24" x1="302.3" y1="234.1" x2="239.1" y2="333.9"/>
<line class="st24" x1="282.1" y1="234.8" x2="230.4" y2="316.3"/>
<path class="st24" d="M213.4,337.6c-1,0.5-29.9-30.8-26.3-66c3.6-35.2,14.4-37.4,18.1-58.4s0.9-38.8-2.2-50s-14.8-37.8-14.8-49.2
	s4.1-18.1,4.1-18.1"/>
<polygon class="st40" points="411.5,362.7 399.8,368.9 399.8,356.5 "/>
<polygon class="st40" points="197,362.8 208.7,356.6 208.7,369 "/>
<polygon class="st25" points="438,405.3 420.2,405.3 423.6,401.8 434.9,401.8 "/>
<line class="st48" x1="186" y1="117.3" x2="407.3" y2="117.3"/>
<line class="st48" x1="184" y1="123.1" x2="184" y2="112"/>
<polygon class="st40" points="184.4,117.5 194.7,123.1 194.7,112 "/>
<line class="st48" x1="412.4" y1="122.3" x2="412.4" y2="111.1"/>
<polygon class="st40" points="412.3,117 402,122.5 402,111.4 "/>
<line class="st49" x1="236.9" y1="197.9" x2="359.4" y2="197.9"/>
<polygon class="st40" points="235.7,197.9 246.8,203.4 246.8,192.3 "/>
<line class="st49" x1="361.6" y1="203.9" x2="361.6" y2="192.7"/>
<line class="st49" x1="235.2" y1="203.4" x2="235.2" y2="192.3"/>
<polygon class="st40" points="361.9,197.9 350.7,203.5 350.7,192.3 "/>
<polygon class="st5" points="322.8,203 287.2,203.4 287.2,185.8 322.8,185.8 "/>
<g>
	<text transform="matrix(1 0 0 1 288.663 202.1167)" class="st40 st50 st51">30cm</text>
</g>
<line class="st52" x1="202.9" y1="362.8" x2="400.9" y2="362.8"/>
<line class="st53" x1="413.2" y1="369.3" x2="413.2" y2="356.2"/>
<line class="st53" x1="196.4" y1="369.2" x2="196.4" y2="356.2"/>
<rect x="290.8" y="354.2" class="st5" width="38.1" height="16.8"/>
<g>
	<text transform="matrix(0.9301 0 0 1 294.2167 367.1714)" class="st40 st50 st54">39cm</text>
</g>
<rect x="279.7" y="106.4" class="st5" width="36.7" height="14"/>
<polygon class="st25" points="185,404.5 165.5,404.5 170.6,401 181.9,401 "/>
<polygon class="st25" points="211.7,412.6 205.3,420.6 202.2,419.4 206.6,413.4 "/>
<path class="st25" d="M202.2,419.4l-2.1,0c0,0-12.7,17.3-13,18.7c-0.3,1.4,1.2,6.1,5.6,6.5c4.3,0.4,7-0.4,8-1
	c1.1-0.7,5.5-14.7,5.5-14.7l1.4-6.5l-2.2-1.7L202.2,419.4z"/>
<path class="st25" d="M191,444.2c0,0-2.3-3.3-0.2-6.2c2.1-2.9,12.4-16.3,12.4-16.3l-3.1-2.3"/>
<line class="st25" x1="207.5" y1="422.4" x2="203.2" y2="421.7"/>
<g>
	<polyline class="st25" points="296.3,555.8 296.3,580.5 306.7,580.5 306.7,556 	"/>
	<path class="st25" d="M296.3,560.2h-5.8c0,0-1.8,7.4-1.7,17.1c0.1,9.7,1.7,15.1,1.7,15.1h5.5L296.3,560.2z"/>
	<path class="st25" d="M306.7,560.2h5.8c0,0,1.8,7.4,1.7,17.1c-0.1,9.7-1.7,15.1-1.7,15.1H307L306.7,560.2z"/>
</g>
<path class="st25" d="M218.4,500.3c0,0-9.4,1.1-9.6,2.3c-0.1,1.3-4.6,24.7,4.8,24.6c9.4-0.1,15.7-2.6,16.3-4.1
	C230.6,521.7,218.4,500.3,218.4,500.3z"/>
<path class="st25" d="M385.4,498.9c0,0,5,0.2,7.4,1.3s4.3,3.2,4.3,3.2s-2.1,20.6-3.4,21.4c-1.3,0.8-6.6,1.4-15.5,0
	c-8.9-1.4,0.9-25.3,0.9-25.3L385.4,498.9z"/>
<path class="st25" d="M289.3,518.9l1.9,35.3l10.1,2.9l10.1-2.1l1.9-36.1c0,0,4-2.7,17.8-1.1s104.4,9.3,104.4,9.3v2.4
	c0,0,5.8,1.3,8.8,1.6c2.9,0.3,4.8,0,4.8,0l4.5-1.6l-0.9-15.1l-42.6-8.6l-37.4-7l10.5-0.7l0.8,1.5l3.7-1.5l-0.5-9.2l-5.3-6.9l-64,3.2
	l-32.9,0.8l-42.6-1.3l-1.5-1.1l-17.3-0.8l-3.9,0.9l-3.5,5.4l-0.7,1.6v9l10.8,0.5l-34,7l-2.4-0.7l-36.6,7.4l-0.9,1.1l-1.9,0.8
	l-0.8,16.6l13.8,0.8l4.2-2.1l-0.3-2.3l113.5-11.3C280.8,517.7,287.7,516.5,289.3,518.9z"/>
<line class="st25" x1="284.8" y1="488.3" x2="226.1" y2="500.3"/>
<line class="st25" x1="318.7" y1="488.3" x2="372.4" y2="498.7"/>
<polyline class="st25" points="290.6,543.9 297,538.1 305.3,538.1 311.9,543.9 "/>
<polyline class="st25" points="290.6,529 297.2,523.2 305.6,523.2 311.9,529 "/>
<line class="st25" x1="297" y1="538.1" x2="296.8" y2="490.5"/>
<line class="st25" x1="305.5" y1="490.5" x2="305.3" y2="538.1"/>
<line class="st25" x1="386.9" y1="488.9" x2="338.5" y2="492.2"/>
<line class="st25" x1="363.9" y1="482.9" x2="368.3" y2="490.2"/>
<polyline class="st25" points="452.4,514.4 447.3,519.6 447.3,531.3 "/>
<path class="st24" d="M313.2,518.9c0,0-1-15.7,2.2-17.4c3.2-1.7,14.3-0.7,14.3-0.7l117.6,18.7"/>
<path class="st24" d="M289.3,518.9c0,0,1.3-19,0-19.3c-1.3-0.3-27.2,3.9-27.2,3.9l-72.2,13.5l-34,6.8l-5.6-7.8"/>
<line class="st25" x1="192.1" y1="507.4" x2="196.5" y2="515.8"/>
<polyline class="st25" points="216,489.2 234.2,491 238.4,484.8 240.5,483.6 "/>
<line class="st25" x1="259" y1="493.6" x2="234.2" y2="491"/>
<path class="st25" d="M284.6,486c0,0,8.3,4.2,16.8,4.2s15.5-3.6,15.5-3.6l-1.5-43.8c0,0-8.8,3.4-14.6,3.4s-14.5-0.4-14.5-2.4
	S284.6,486,284.6,486z"/>
<g>
	<path class="st25" d="M162.5,533.9l0.9,17.1c0,0,1,16.1-14.7,16.1c-7.9,0-12.1-4.2-14.2-8.4c-2.7-5.1-2.8-11.2-0.2-16.4
		c1.6-3.2,4.3-6.3,9-7.4c0,0,5.9-1,9.3,0.8c0.5,0.3,1-0.1,1-0.7l-0.1-1.6L162.5,533.9z"/>
	<path class="st25" d="M132.8,554.4c0,0-2.5-13,10.4-17.9c7.5-2.8,16.4,2.1,18.6,7.6l0.7,1.8"/>
	<path class="st25" d="M133.6,556.6c0,0-1.9-13.2,11-18.1c7.5-2.8,16,3.1,18,7.8l0.7,1.8"/>
	<path class="st25" d="M141.3,543.4c0.2-0.1,0.5-0.1,0.7,0.1c1.1,1.4,5.5,7.2,5.2,7.7c-0.3,0.6,0.3,1-5.2-0.1
		c-2.8-0.6-3.9-0.8-4.6-1c-0.3-0.1-0.6-0.4-0.5-0.7C137.7,547.4,139.9,544.4,141.3,543.4z"/>
	<path class="st25" d="M151.5,540.9c0.2,0.1,0.4,0.3,0.3,0.6c-0.4,1.7-2.2,8.8-2.7,8.8c-0.7,0.1-0.6,0.9-3.2-4.2
		c-1.3-2.6-1.8-3.6-2.1-4.2c-0.1-0.3-0.1-0.7,0.2-0.8C146.2,540.6,149.9,540.5,151.5,540.9z"/>
	<path class="st25" d="M159.7,547.1c0.1,0.2,0,0.5-0.2,0.6c-1.5,0.8-7.7,3.8-8.1,3.5c-0.5-0.4-1,0.1,1.1-4.9c1-2.5,1.5-3.5,1.7-4.1
		c0.1-0.3,0.5-0.5,0.7-0.3C156.7,543.1,159.1,545.6,159.7,547.1z"/>
	<path class="st25" d="M138.1,559.5c0.2,0.2,0.4,0.3,0.7,0.1c1.5-1,7.5-5.1,7.3-5.6c-0.1-0.7,0.6-0.9-5-1.5c-2.9-0.3-4-0.5-4.6-0.6
		c-0.3,0-0.7,0.2-0.7,0.5C136,554.6,137.1,558.1,138.1,559.5z"/>
	<path class="st25" d="M147.5,564.9c0.3,0,0.5-0.2,0.5-0.4c0.2-1.8,0.9-9,0.4-9.3c-0.6-0.3-0.3-1-4.4,2.9c-2.1,2-2.9,2.8-3.4,3.2
		c-0.2,0.2-0.3,0.6-0.1,0.8C142.3,563.4,145.8,564.8,147.5,564.9z"/>
	<path class="st25" d="M157.1,561.8c0.2-0.2,0.2-0.5,0-0.6c-1.2-1.2-5.9-6.2-6.4-6c-0.6,0.2-0.9-0.4-0.7,4.9
		c0.1,2.7,0.2,3.8,0.2,4.4c0,0.3,0.3,0.6,0.5,0.5C152.8,564.6,156,563,157.1,561.8z"/>
	<path class="st25" d="M160.8,551.7c-0.1-0.2-0.3-0.4-0.5-0.4c-1.7,0.3-8.5,1.4-8.6,1.9c-0.1,0.6-0.9,0.5,3.7,3.3
		c2.3,1.4,3.3,2,3.8,2.3c0.2,0.1,0.7,0.1,0.8-0.1C160.7,556.8,161.1,553.3,160.8,551.7z"/>
</g>
<g>
	<path class="st25" d="M439.6,530.8l-0.9,17.1c0,0-1,16.1,14.7,16.1c7.9,0,12.1-4.2,14.2-8.4c2.7-5.1,2.8-11.2,0.2-16.4
		c-1.6-3.2-4.3-6.3-9-7.4c0,0-5.9-1-9.3,0.8c-0.5,0.3-1-0.1-1-0.7l0.1-1.6L439.6,530.8z"/>
	<path class="st25" d="M469.4,551.4c0,0,2.5-13-10.4-17.9c-7.5-2.8-16.4,2.1-18.6,7.6l-0.7,1.8"/>
	<path class="st25" d="M468.6,553.6c0,0,1.9-13.2-11-18.1c-7.5-2.8-16,3.1-18,7.8l-0.7,1.8"/>
	<path class="st25" d="M460.8,540.4c-0.2-0.1-0.5-0.1-0.7,0.1c-1.1,1.4-5.5,7.2-5.2,7.7c0.3,0.6-0.3,1,5.2-0.1
		c2.8-0.6,3.9-0.8,4.6-1c0.3-0.1,0.6-0.4,0.5-0.7C464.4,544.3,462.2,541.4,460.8,540.4z"/>
	<path class="st25" d="M450.6,537.9c-0.2,0.1-0.4,0.3-0.3,0.6c0.4,1.7,2.2,8.8,2.7,8.8c0.7,0.1,0.6,0.9,3.2-4.2
		c1.3-2.6,1.8-3.6,2.1-4.2c0.1-0.3,0.1-0.7-0.2-0.8C456,537.6,452.3,537.4,450.6,537.9z"/>
	<path class="st25" d="M442.4,544.1c-0.1,0.2,0,0.5,0.2,0.6c1.5,0.8,7.7,3.8,8.1,3.5c0.5-0.4,1,0.1-1.1-4.9c-1-2.5-1.5-3.5-1.7-4.1
		c-0.1-0.3-0.5-0.5-0.7-0.3C445.4,540,443,542.6,442.4,544.1z"/>
	<path class="st25" d="M464,556.5c-0.2,0.2-0.4,0.3-0.7,0.1c-1.5-1-7.5-5.1-7.3-5.6c0.1-0.7-0.6-0.9,5-1.5c2.9-0.3,4-0.5,4.6-0.6
		c0.3,0,0.7,0.2,0.7,0.5C466.1,551.6,465,555.1,464,556.5z"/>
	<path class="st25" d="M454.7,561.9c-0.3,0-0.5-0.2-0.5-0.4c-0.2-1.8-0.9-9-0.4-9.3c0.6-0.3,0.3-1,4.4,2.9c2.1,2,2.9,2.8,3.4,3.2
		c0.2,0.2,0.3,0.6,0.1,0.8C459.8,560.4,456.4,561.8,454.7,561.9z"/>
	<path class="st25" d="M445,558.8c-0.2-0.2-0.2-0.5,0-0.6c1.2-1.2,5.9-6.2,6.4-6c0.6,0.2,0.9-0.4,0.7,4.9c-0.1,2.7-0.2,3.8-0.2,4.4
		c0,0.3-0.3,0.6-0.5,0.5C449.3,561.6,446.2,560,445,558.8z"/>
	<path class="st25" d="M441.4,548.7c0.1-0.2,0.3-0.4,0.5-0.4c1.7,0.3,8.5,1.4,8.6,1.9c0.1,0.6,0.9,0.5-3.7,3.3
		c-2.3,1.4-3.3,2-3.8,2.3c-0.2,0.1-0.7,0.1-0.8-0.1C441.5,553.8,441,550.3,441.4,548.7z"/>
</g>
<line class="st25" x1="290" y1="428.1" x2="311.6" y2="427.9"/>
<path class="st25" d="M311.6,409v18.9l2.1,1.4l0.8,14.3c0,0-2.3,2.8-12.7,3.1c-10.5,0.3-14.8-2.4-14.8-2.4l0.2-15.4l2.8-0.9
	l-0.2-18.4C289.8,409.7,308.1,409,311.6,409z"/>
<line class="st24" x1="289.4" y1="428.3" x2="312" y2="428.1"/>
<g>
	<line class="st56" x1="179.4" y1="297.1" x2="415.6" y2="297.1"/>
	<g>
		<line class="st57" x1="174.8" y1="302.7" x2="174.8" y2="291.4"/>
		<line class="st56" x1="420.2" y1="302.8" x2="420.2" y2="291.4"/>
		<polygon class="st40" points="174.8,297.1 185.6,302.7 185.6,291.4 		"/>
		<polygon class="st40" points="420.2,297.1 409.5,302.7 409.5,291.4 		"/>
	</g>
	<rect x="280.8" y="291.7" class="st5" width="37.8" height="14.7"/>
	<g>
		<text transform="matrix(1 0 0 1 283.786 302.7568)" class="st40 st50 st51">56cm</text>
	</g>
</g>
<g>
	<line class="st56" x1="178.7" y1="335.6" x2="426.6" y2="335.6"/>
	<line class="st57" x1="174" y1="341.3" x2="174" y2="329.9"/>
	<line class="st56" x1="435.4" y1="341" x2="435.4" y2="329.6"/>
	<polygon class="st40" points="174,335.6 184.8,341.3 184.8,329.9 	"/>
	<polygon class="st40" points="435.4,335.3 424.7,340.9 424.7,329.6 	"/>
	<rect x="287.3" y="330.1" class="st5" width="37.8" height="14.7"/>
	<text transform="matrix(0.9301 0 0 1 290.3319 341.1235)" class="st40 st50 st54">54cm</text>
</g>
<g>
	<g>
		<g>
			<g>
				<path class="st25" d="M169.5,399.3l-0.9-1.5l-6-0.4c0,0-0.6,1.4-1.2-13.7c-0.3-0.3-0.7-0.7-2.3-1.1v-3.1l1-0.7l0.2-14.3
					l0.5-34.6c0,0,0.6-24,0.7-26.1c0.1-1.3,0.5-2.6,1.2-3.7l7.5-10.9l8.4-3.9l-0.4-8.6l-0.9-0.2c0,0-0.1-0.4-0.4-1.2
					c-0.1-0.4-0.5-0.7-1-0.6c0,0-26.6-0.3-33.2-0.3c-6.6,0-10.4,2.2-10.4,2.2s-6.8,4.8-9,6.3c-1.2,0.7-2.1,1.9-2.5,3.3
					c0,0,0,2.7,0,3.9c0,1.2,1.3,1.3,2.3,1.3s10.7,0.5,10.7,0.5s6.8,7.4,8.2,8.7c0.8,0.7,1.2,1.7,1.1,2.7l3.1,76l0.9,0.6
					c0,0,0,2-0.1,3.1c-0.8,0.1-1.5,0.5-2,1.1c0,0-1.4,18.1-1.5,20.4c-0.1,2.3,2.7,2.4,2.7,2.4s18-0.5,19.3-0.5
					c1.3,0,1.7-1.6,1.7-1.6L169.5,399.3z"/>
				<path class="st24" d="M177.3,276.8l-11.8,4.8c0,0-2.8,0.8-2.8,0.8l-4.1,2.5c0,0-2.4,1.7-8.4,1.7s-23.4-0.4-23.4-0.4
					s-4.6-0.2-5.4-0.9"/>
				<path class="st24" d="M133.8,292.2h27c0,0,3.5,0.1,5.7-0.9c2.9-1.3,3.7-1.8,3.7-1.8"/>
				<path class="st24" d="M137.4,296c0,0,1,0.6,4.7,0.6s17.8-0.3,17.8-0.3c1.4,0,2.8-0.2,4.1-0.7c1-0.3,2-0.8,2.9-1.3"/>
				<path class="st24" d="M147.1,380.3c0,0,2.1,1.3,6.9,0.4c1.7-0.2,3.4-0.5,5-1"/>
				<path class="st24" d="M145,384.5c0,0,1.7,1.8,5.5,2.1c3,0.1,5.9-0.4,8.6-1.5c0.8-0.3,1.6-0.7,2.3-1.2"/>
				<path class="st24" d="M147,383.4c0,0-0.5,1,0.1,1.3c0.7,0.5,1.6,0.8,2.5,1c1.7,0.1,3.3,0.1,5-0.2h0.1l3-0.6c0.9-0.2,1.6-1,1.5-2
					v0"/>
			</g>
		</g>
	</g>
</g>
<g>
	<g>
		<g>
			<g>
				<path class="st25" d="M430.5,399.3l0.9-1.5l6-0.4c0,0,0.6,1.4,1.2-13.7c0.3-0.3,0.7-0.7,2.3-1.1v-3.1l-1-0.7l-0.2-14.3
					l-0.5-34.6c0,0-0.6-24-0.7-26.1c-0.1-1.3-0.5-2.6-1.2-3.7l-7.5-10.9l-8.4-3.9l0.4-8.6l0.9-0.2c0,0,0.1-0.4,0.4-1.2
					c0.1-0.4,0.5-0.7,1-0.6c0,0,26.6-0.3,33.2-0.3s10.4,2.2,10.4,2.2s6.8,4.8,9,6.3c1.2,0.7,2.1,1.9,2.5,3.3c0,0,0,2.7,0,3.9
					c0,1.2-1.3,1.3-2.3,1.3s-10.7,0.5-10.7,0.5s-6.8,7.4-8.2,8.7c-0.8,0.7-1.2,1.7-1.1,2.7l-3.1,76l-0.9,0.6c0,0,0,2,0.1,3.1
					c0.8,0.1,1.5,0.5,2,1.1c0,0,1.4,18.1,1.5,20.4c0.1,2.3-2.7,2.4-2.7,2.4s-18-0.5-19.3-0.5c-1.3,0-1.7-1.6-1.7-1.6L430.5,399.3z"
					/>
				<path class="st24" d="M422.7,276.8l11.8,4.8c0,0,2.8,0.8,2.8,0.8l4.1,2.5c0,0,2.4,1.7,8.4,1.7s23.4-0.4,23.4-0.4
					s4.6-0.2,5.4-0.9"/>
				<path class="st24" d="M466.2,292.2h-27c0,0-3.5,0.1-5.7-0.9c-2.9-1.3-3.7-1.8-3.7-1.8"/>
				<path class="st24" d="M462.6,296c0,0-1,0.6-4.7,0.6s-17.8-0.3-17.8-0.3c-1.4,0-2.8-0.2-4.1-0.7c-1-0.3-2-0.8-2.9-1.3"/>
				<path class="st24" d="M452.9,380.3c0,0-2.1,1.3-6.9,0.4c-1.7-0.2-3.4-0.5-5-1"/>
				<path class="st24" d="M455,384.5c0,0-1.7,1.8-5.5,2.1c-3,0.1-5.9-0.4-8.6-1.5c-0.8-0.3-1.6-0.7-2.3-1.2"/>
				<path class="st24" d="M453,383.4c0,0,0.5,1-0.1,1.3c-0.7,0.5-1.6,0.8-2.5,1c-1.7,0.1-3.3,0.1-5-0.2h-0.1l-3-0.6
					c-0.9-0.2-1.6-1-1.5-2v0"/>
			</g>
		</g>
	</g>
</g>
<line class="st56" x1="188.1" y1="231.7" x2="412.1" y2="231.7"/>
<polygon class="st40" points="179.2,231.7 189.3,237.3 189.3,226.1 "/>
<polygon class="st40" points="420.9,231.7 410.9,237.2 410.9,226.2 "/>
<text transform="matrix(1 0 0 1 284.2987 234.665)" class="st40 st50 st51">34cm</text>
<rect x="266.8" y="224.4" class="st5" width="59.6" height="12.7"/>
<line class="st57" x1="178.6" y1="289.6" x2="178.6" y2="226.4"/>
<line class="st57" x1="421.4" y1="289.6" x2="421.4" y2="226.2"/>
<text transform="matrix(1 0 0 1 267.8622 234.665)" class="st40 st50 st51">48 - 51cm</text>
<g>
	<text transform="matrix(1 0 0 1 282.0555 120.414)" class="st40 st50 st51">56cm</text>
</g>
</svg>
