<svg xmlns="http://www.w3.org/2000/svg" viewBox="0 0 417.48 743.33"><defs><style>.cls-1,.cls-6{fill:#fff;}.cls-1,.cls-10,.cls-2,.cls-3,.cls-4,.cls-5,.cls-6,.cls-7,.cls-8,.cls-9{stroke:#000;stroke-miterlimit:10;}.cls-1,.cls-3,.cls-8,.cls-9{stroke-width:1.86px;}.cls-2,.cls-3,.cls-4,.cls-5{fill:none;}.cls-10,.cls-2,.cls-6{stroke-width:0.93px;}.cls-4{stroke-width:2.13px;}.cls-5,.cls-7{stroke-width:3.19px;}.cls-7{fill:#a3a3a3;}.cls-8{fill:#a0a0a0;}.cls-10,.cls-9{fill:#adadad;}</style></defs><g id="Camada_2" data-name="Camada 2"><g id="Camada_1-2" data-name="Camada 1"><path class="cls-1" d="M312.36,346.23l-.2,1.5a2.77,2.77,0,0,0,2.4,3.2s9.4,1.5,10.8,1.7c.1,1.3.6,39.3.5,47.7,10.6-3.6,20.5-7.9,29-7.9l1.9-39.5,10.9-.6a3.81,3.81,0,0,0,1.9-.4c1.4-.8,1.5-2.7,1.4-4.3a173.2,173.2,0,0,0-60.5-1.4"/><path class="cls-1" d="M408.36,348.73c-1.4,3.4-5.2,5.3-8.9,5.5s-7.3-.8-10.8-1.8a199.13,199.13,0,0,0-90.5-3.5,20.59,20.59,0,0,1-7.8.5c-2.5-.6-5-2.7-5-5.3s2.2-4.7,4.4-6c9.4-5.7,28-6.3,39-6.4,13.7-.1,20.5-.3,34.3.1a109.39,109.39,0,0,1,22.8,2.8c3.7.9,17.9,5.5,18.9,5.8C408.06,341.43,409.66,345.73,408.36,348.73Z"/><path class="cls-2" d="M405.66,340.73c-6.9,2.8-14.7.8-21.9-.9a252.73,252.73,0,0,0-83.6-5.3"/><path class="cls-3" d="M325.06,352.63c10.8.6,20.9.4,31.7.4"/><path class="cls-1" d="M356.26,362.83a10.64,10.64,0,0,0,3.5-.9,2.41,2.41,0,0,0,.8-.6,2.74,2.74,0,0,0,.2-1.3,2.5,2.5,0,0,0-.3-1.3,1.56,1.56,0,0,0-.8-.6l-3-1.5Z"/><g id="Camada_1-2-2" data-name="Camada 1-2"><polyline class="cls-2" points="236.66 510.83 237.56 511.83 235.56 513.33 237.87 513.83 235.66 515.33 237.97 516.13 236.16 517.43 238.06 518.13 236.26 519.63 238.26 520.43 236.56 521.93 238.47 522.73 236.87 523.93 238.56 524.73 237.56 525.93"/><polyline class="cls-4" points="208.56 515.63 210.56 516.33 208.66 517.43 210.66 518.03 208.87 519.23 210.87 519.93 208.97 521.23 210.97 521.93 209.16 523.13 211.16 524.03 209.37 525.13 211.37 526.33 209.76 527.13 210.87 527.93"/><line class="cls-2" x1="237.46" y1="511.93" x2="208.56" y2="515.63"/><line class="cls-2" x1="237.86" y1="513.83" x2="208.86" y2="517.53"/><line class="cls-2" x1="237.66" y1="516.13" x2="209.46" y2="519.23"/><line class="cls-2" x1="237.96" y1="518.03" x2="209.36" y2="521.13"/><line class="cls-2" x1="238.26" y1="520.43" x2="209.56" y2="523.23"/><line class="cls-2" x1="238.26" y1="522.73" x2="209.76" y2="525.23"/><line class="cls-3" x1="238.56" y1="524.73" x2="210.06" y2="526.93"/><path class="cls-1" d="M209,527.93l30.8-1.9,1.5,21.5a31,31,0,0,1-15.2,5.9,30.38,30.38,0,0,1-15.6-3.6Z"/><path class="cls-1" d="M210.26,549.83a87,87,0,0,0,30.9-2.4"/><path class="cls-1" d="M212.16,550.63c0,1.5.7,48.6.7,48.6s-15.4,8.2-38.6-.9c.7-20.8,1.6-51.5,1.6-51.5a13.54,13.54,0,0,1,3.8-1.9"/><path class="cls-1" d="M175.86,546.83s8.4,6.3,34.4,1.6"/><path class="cls-1" d="M84,528s-13.3,17.2-15,20.2-1.6,9,2.5,9.1a14.6,14.6,0,0,1,4.3,2.2s1.3,1.1,4.6.4c1.9.2,2.6.6,3.8.3s3.3-1.7,4.4-5.1,5.4-22.3,5.4-22.3"/><path class="cls-2" d="M86.86,530.73l-7,12.5s.8,4.8,6.2,1.6a122.46,122.46,0,0,0,5.8-12.8s-3.4,15.6-4.3,18.6c-1,3.7-2.1,5.6-3.1,5.9a12.17,12.17,0,0,1-3.3.1c-1.5,0-3.1.6-3.9.2a10,10,0,0,0-3.7-1.9c-3.7-.6-1.8-5.1-.4-7.6s11.6-18.1,11.6-18.1"/><path class="cls-5" d="M174.26,590.33s-35.2-13.4-69.5-4.3c-14,2.3-10.4,13.3-10.4,13.3h2.1s.1-1.9.9-2.4c1.4-.9,20.7-4.3,43.4,5.7"/><path class="cls-4" d="M96.46,599.33a16.92,16.92,0,0,0,10.4,1.1c5.6-1.3,5.6-4.7,5.6-4.7"/><path class="cls-5" d="M165.66,599.13s-81.7,7.7-140.1,39c0,0-5.5,1-6.1,5.9s.5,6.9.3,7.9,7.7,4.3,15.2.9c1.5-3.1,4.6-6.4,10.6-7.5s56.7-21.2,126.6-23a30.92,30.92,0,0,0,6.5,3.4"/><path class="cls-4" d="M35.16,652.63s5.3.3,5.5-5.7"/><path class="cls-5" d="M212.36,590.33s35.2-13.4,69.5-4.3c14,2.3,10.4,13.3,10.4,13.3h-2.2s0-1.9-.9-2.4c-1.4-.9-20.7-4.3-43.4,5.7"/><path class="cls-4" d="M290.16,599.33a16.92,16.92,0,0,1-10.4,1.1c-5.6-1.3-5.6-4.7-5.6-4.7"/><path class="cls-5" d="M221.06,599.13s81.7,7.7,140.1,39c0,0,5.5,1,6.1,5.9s-.5,6.9-.3,7.9-7.7,4.3-15.2.9c-1.5-3.1-4.6-6.4-10.6-7.5s-56.7-21.2-126.7-23a30.92,30.92,0,0,1-6.5,3.4"/><path class="cls-4" d="M351.56,652.63s-5.3.3-5.5-5.7"/><path class="cls-5" d="M178.76,608.93s1.9,61.8,3.1,69.7a51,51,0,0,1,0,14.6,15,15,0,0,0,11.8,6.5"/><path class="cls-5" d="M208.46,608.93s-1.9,61.8-3.1,69.7a51,51,0,0,0,0,14.6,15,15,0,0,1-11.8,6.5"/><path class="cls-3" d="M82.06,615.73s-1-12.3,5.3-12.7,9.7,8.5,9.7,8.5"/><path class="cls-3" d="M87,603.13l6-1.4s6.5,2.5,7.5,9.1"/><path class="cls-3" d="M100.56,600.63V602s4.3,1.9,6.7,0v-1.6"/><path class="cls-1" d="M100.46,601.33s-1.4.3-1.4,1,7.1,2.9,10.1-.1c-.4-1-1.9-.9-1.9-.9"/><line class="cls-3" x1="99.06" y1="602.33" x2="99.06" y2="606.53"/><line class="cls-3" x1="109.16" y1="602.23" x2="109.16" y2="608.53"/><path class="cls-5" d="M94.46,602.33s1.7-1.2,3.5-2.5"/><path class="cls-1" d="M107.66,600.53s3.5,1.4,4.8,7.1"/><polyline class="cls-2" points="83.36 606.83 87.17 614.23 86.17 614.53 82.36 609.13"/><line class="cls-2" x1="86.26" y1="603.23" x2="87.86" y2="613.83"/><line class="cls-2" x1="88.76" y1="603.23" x2="88.66" y2="613.83"/><path class="cls-2" d="M93.56,606.23s-3.8,6.8-3.9,7.2"/><line class="cls-4" x1="91.36" y1="613.13" x2="95.06" y2="608.43"/><path class="cls-3" d="M304.76,615.73s1-12.3-5.3-12.7-9.6,8.5-9.6,8.5"/><path class="cls-3" d="M299.76,603.13l-6-1.4s-6.5,2.5-7.5,9.1"/><path class="cls-3" d="M286.16,600.63V602s-4.3,1.9-6.7,0v-1.6"/><path class="cls-3" d="M286.26,601.33s1.4.3,1.4,1-7.1,2.9-10.1-.1c.4-1,1.9-.9,1.9-.9"/><line class="cls-4" x1="287.66" y1="602.33" x2="287.66" y2="606.53"/><line class="cls-3" x1="277.56" y1="602.23" x2="277.56" y2="608.53"/><path class="cls-5" d="M292.26,602.33s-1.7-1.2-3.5-2.5"/><path class="cls-3" d="M279.06,600.53s-3.5,1.4-4.8,7.1"/><polyline class="cls-2" points="303.26 606.83 299.46 614.23 300.56 614.53 304.37 609.13"/><line class="cls-2" x1="300.36" y1="603.23" x2="298.86" y2="613.83"/><line class="cls-2" x1="297.96" y1="603.23" x2="298.06" y2="613.83"/><path class="cls-2" d="M293.06,606.23s3.8,6.8,3.9,7.2"/><line class="cls-2" x1="295.26" y1="613.13" x2="291.66" y2="608.43"/><path class="cls-1" d="M26.16,654.23c-.5-.1-2.6,1.3,1.5,1.9,3.2.5,8.7,0,9-.8s-1.3-1.3-1.9-1.4"/><line class="cls-4" x1="34.56" y1="653.03" x2="34.56" y2="655.63"/><line class="cls-3" x1="25.16" y1="655.03" x2="25.16" y2="658.83"/><path class="cls-1" d="M36.66,655l-.5,14s-.3,1.2-.8,1.5"/><ellipse class="cls-4" cx="18.56" cy="674.93" rx="17.5" ry="17.2"/><ellipse class="cls-1" cx="18.56" cy="674.93" rx="15.2" ry="15"/><path class="cls-4" d="M25.16,656.23a16.26,16.26,0,0,0-21.8,7.2,15.29,15.29,0,0,0-1.7,6.9"/><path class="cls-2" d="M13.36,660.83l4,11.9a5.55,5.55,0,0,0-.8.6c-1.1-.6-10.1-7.5-10.1-7.5"/><path class="cls-2" d="M25.56,661.63l-5.4,10.9a3.33,3.33,0,0,0-1.4-.1c-.4-2.3-1.6-12.4-1.6-12.4"/><path class="cls-2" d="M32.86,669.83l-10.8,4.4a2.36,2.36,0,0,0-.6-.9c.7-1.1,7.3-9.6,7.3-9.6"/><path class="cls-2" d="M32.46,681.33,22,676.63a1.93,1.93,0,0,0,.3-1c1.2-.2,11.4-2.8,11.4-2.8"/><path class="cls-2" d="M24.06,688.93l-3.6-10.6a2.36,2.36,0,0,0,.9-.6c1.1.7,9,6.8,9,6.8"/><path class="cls-2" d="M12.66,688.83l5.3-10.4a4.1,4.1,0,0,0,1.1.1c.4,2.3,1.2,10,1.4,11.3"/><path class="cls-2" d="M4.76,681.33l11.1-4.5a2.36,2.36,0,0,0,.6.9c-.7,1.1-7,9.2-7,9.2"/><path class="cls-2" d="M4.36,669.33l11.5,5.1a1.93,1.93,0,0,0-.3,1c-1.2.2-11.9,2.8-11.9,2.8"/><ellipse class="cls-1" cx="367.76" cy="674.93" rx="17.5" ry="17.2"/><ellipse class="cls-1" cx="367.76" cy="674.93" rx="15.2" ry="15"/><path class="cls-4" d="M361.06,656.23a16.26,16.26,0,0,1,21.8,7.2,15.29,15.29,0,0,1,1.7,6.9"/><path class="cls-2" d="M373,660.83l-4,11.9a5.55,5.55,0,0,1,.8.6c1.1-.7,10.1-7.5,10.1-7.5"/><path class="cls-2" d="M360.76,661.63l5.4,10.9a3.33,3.33,0,0,1,1.4-.1c.4-2.3,1.6-12.4,1.6-12.4"/><path class="cls-2" d="M353.46,669.83l10.9,4.4a2.36,2.36,0,0,1,.6-.9c-.7-1.1-7.3-9.6-7.3-9.6"/><path class="cls-2" d="M353.76,681.33l10.5-4.8a1.93,1.93,0,0,1-.3-1c-1.2-.2-11.4-2.8-11.4-2.8"/><path class="cls-2" d="M362.16,688.93l3.6-10.6a1.56,1.56,0,0,1-.8-.6c-1.1.7-9,6.8-9,6.8"/><path class="cls-2" d="M373.66,688.83l-5.3-10.4a4.1,4.1,0,0,1-1.1.1c-.4,2.3-1.2,10-1.4,11.3"/><path class="cls-2" d="M381.56,681.33l-11.1-4.5a2.36,2.36,0,0,1-.6.9c.7,1.1,7,9.2,7,9.2"/><path class="cls-2" d="M381.86,669.33l-11.5,5.2a1.93,1.93,0,0,1,.3,1c1.2.2,11.9,2.8,11.9,2.8"/><path class="cls-1" d="M360.16,654.43c.5-.1,2.6,1.3-1.5,1.9-3.2.5-8.6,0-9-.8s1.3-1.3,1.9-1.4"/><line class="cls-4" x1="351.66" y1="653.23" x2="351.66" y2="655.83"/><line class="cls-3" x1="361.16" y1="655.23" x2="361.16" y2="659.03"/><path class="cls-1" d="M349.56,655.23l.5,14s.3,1.2.8,1.5"/><line class="cls-4" x1="186.56" y1="697.83" x2="186.56" y2="702.83"/><path class="cls-5" d="M188.56,703h-6.7a80.84,80.84,0,0,0-1.4,17.7,3.81,3.81,0,0,1-.8,1.7l-.1,2.1s.6.6.6,1a104.34,104.34,0,0,0,1.5,15.8l6.7.4C188.26,741.83,189.56,705.73,188.56,703Z"/><path class="cls-4" d="M181.86,703s-.3,16-.3,38.3"/><path class="cls-5" d="M198.26,703H205a80.84,80.84,0,0,1,1.4,17.7,3.81,3.81,0,0,0,.8,1.7l.1,2.1s-.6.6-.6,1a104.34,104.34,0,0,1-1.5,15.8l-6.7.4C198.56,741.83,197.36,705.73,198.26,703Z"/><path class="cls-4" d="M205,703s.3,16,.3,38.3"/><line class="cls-4" x1="188.86" y1="704.83" x2="198.06" y2="704.83"/><line class="cls-4" x1="188.86" y1="728.13" x2="198.06" y2="728.13"/><line class="cls-4" x1="199.76" y1="698.23" x2="199.76" y2="703.03"/><line class="cls-3" x1="179.66" y1="526.93" x2="179.66" y2="548.53"/><path class="cls-1" d="M185.06,525s-5.1.4-5.4,2,10.5,2.8,15.3,2.7,14.2-.8,13.4-2.7-5.1-2-5.1-2"/><path class="cls-1" d="M185.16,517.23v9.6s10.2,2.3,18.2,0v-8.7"/><path class="cls-1" d="M162.06,504s1.8,3.7,4.1,4.2,62.7,1.3,62.7,1.3"/><path class="cls-3" d="M166.56,508.23s2.6,2.4,8.2,3.7c6.6,1.5,12.8,2.6,12.8,2.6s5.8.6,8.4.6h14.9"/><path class="cls-3" d="M176.76,512.33s6.9,4.1,9,4.5,13,.8,14.1.8c3.4-.8,35.4-7.3,38.7-8.5"/><path class="cls-5" d="M185,516.63a1.88,1.88,0,0,0,1.1,1.9c1.3.6,15.1.8,16.1.5a4.29,4.29,0,0,0,2.1-2.3"/><polyline class="cls-6" points="87.56 528.23 84.17 528.03 86.86 530.83 93.86 532.53 91.77 529.73"/><path class="cls-1" d="M157.36,501.73s-50.3,7.2-56.3,8.2a9.62,9.62,0,0,0-7.7,5.6l-5.4,13a2.5,2.5,0,0,0,3.2,1.2,2.09,2.09,0,0,0,.6-.4c1.1-3.4,5-11.7,5-11.7a9.16,9.16,0,0,1,5.2-3.8c8.8-1.8,67.6-10.7,67.6-10.7"/></g><path class="cls-7" d="M258.46,509.43c-1.1,0-2.1.1-3.2.1-26.8.4-53.5-3.4-80.1-5.7-11.7-1-20.3-2.7-32.1-3.3-12.2-.6-51.4-6.1-63.5-8-10.5-1.6-13.3.1-19.3-.5-14.9-1.8-16-2.1-33.1-4.8-4.7-.8-12.2-1.6-17.8-4.3a72.26,72.26,0,0,1-2.8-10.1c-.4-16.4-1.4-34.3-.4-56.6,1.7-5,7.1-17.8,8.9-22.5-1-10.1-1.6-19.9-3.3-39.2.7-6.1,1.6-14.4,2.8-25,1.6-2.7,2.4-3.5,3.8-6.1,1.1-3.6,1.3-9,1.3-12.8.3-22.6,1.8-37.2-.4-58.5-2.6-25.4-2.3-44.9-5.8-76.6C12,161.83,12.66,148,17,135s10.4-25.4,15-38.4c8.5-24.4,11.8-50.7,23.9-73.5,4.2-7.9,9.8-15.7,18.1-19.1,5.6-2.3,11.8-2.4,17.8-2.4,10.8-.1,21.8-.1,32.5,1.7s21.2,5.8,29.4,12.9c9.3,8,15,19.4,18.1,31.2s3.9,24.1,4.6,36.3c1,17.7,13.1,33.6,26.6,45.1,9.5,8.1,20.9,13.9,30.7,21.7s18.6,18.3,19.7,30.8c1,12-5.1,23.3-9.3,34.6-11.9,32-8.7,69.2,8.6,98.6,11.3,19.2,18.5,41.2,19,63.5.2,7.2-.4,14.7-4.1,20.9-4.1,6.8-11.2,11-18.1,14.9.4,2.3.9,4.5,1.3,6.8a213.36,213.36,0,0,0,36.6,1.9,143.78,143.78,0,0,1,73.5-31,57.49,57.49,0,0,1,15.5-.1c5.1.8,10.2,2.7,14,6.2,3.6,3.2,17.4,28.9,16.3,37.3,4.2,2.4,5,3.2,6.2,5.9a35.73,35.73,0,0,1-3.2,34.5c1.6,5.1-1.8,11-6.3,13.9s-9.9,3.6-15.2,4.4l-77.6,10.5C293.36,506.53,276,508.93,258.46,509.43Z"/><path class="cls-5" d="M287.46,422.53a573.05,573.05,0,0,1,89.8,2.3c5.4.6,10.9,1.2,16.1,3s9.4,3.8,13.3,7.2"/><path class="cls-5" d="M256.06,508c-9.6-1.5-17.3-8.9-22.1-17.4s-7.3-17.9-10.8-27c-8.4-21.8-23.6-42-45-51.3-16.6-7.2-35.9-7.3-53-1.3S97,454.33,62,445.83"/><path class="cls-3" d="M255.36,510c-1-8.1-.1-16.2.6-24.3s1.3-16.3-.4-24.3-6-15.7-13-19.8c-4.5-2.6-9.6-3.6-14.7-4.5-7.2-1.3-14.5-2.4-21.8-3.4"/><path class="cls-3" d="M191.36,118.73c-7.6,20.2-8.4,42.6-5.4,64,11.8,86.2,11.1,161,19.8,241.2,14.7-1.3,28.7-5.4,43.7-10"/><path class="cls-3" d="M67.26,8.13c-15.2,36.4-16.8,59.9-28.7,97.4-7.1,22.5-19.1,20-18.4,43.6.9,30.1,24.9,94.9,32.2,123.4,16.9,63.6,15.4,51.7,21.8,81.1s8.5,68.2-19.3,84"/><path class="cls-3" d="M41.36,99.13c10.4,14.3,15,32,16.7,49.5s.6,35.2.9,52.9c.3,24.3,3,48.6,9.4,72,7.8,28.6,21.1,55.7,27.3,84.7s4,69.8-34.5,87.6"/><path class="cls-3" d="M197.16,424c3.6.1,7.3.1,10.9-.1"/><path class="cls-3" d="M227.36,420.53a220.89,220.89,0,0,1,24.4.2"/><path class="cls-1" d="M19.66,321.93c3.4-.1,8.8-.3,11.9-.6a389.34,389.34,0,0,1,11,63.4c1,11.2,1.9,20.2,4.3,31.2,5,22.6,11.7,27.3,28.5,44.3,1.9,1.9,10.4,20.6,10.8,23.3s-3,6.9-5.2,8.4a34,34,0,0,0-11.15,0c-5.52,1.07-43.49-2.24-60.45-9L6.53,471.47l-.37-56.12,8.9-21.62L11.81,354.1l2.61-23.3.79-2.87Z"/><polyline class="cls-3" points="6.76 430.73 14.16 450.23 19.16 448.23 20.86 432.73 19.66 420.03 24.27 414.53 24.27 410.83 34.16 388.53 26.16 322.53 20.46 327.93"/><polyline class="cls-6" points="15.96 393.63 27.07 392.03 20.46 327.93 14.56 329.53"/><line class="cls-2" x1="34.16" y1="388.53" x2="27.06" y2="392.03"/><polyline class="cls-2" points="6.17 416.23 18.27 414.03 24.27 410.83"/><line class="cls-2" x1="18.26" y1="414.03" x2="19.16" y2="420.53"/><line class="cls-2" x1="24.26" y1="411.93" x2="45.06" y2="410.83"/><path class="cls-6" d="M20,421.13c1.7.6,2.8,2.3,3.6,4,3.9,8.3,4.1,18,8.1,26.2,3.5,7.2,19.4,17.1,20.4,18.8a104.07,104.07,0,0,1,.4,13.1L6.86,474"/><polyline class="cls-2" points="52.37 483.23 60.27 491.03 64.67 484.43 56.97 461.63"/><polyline class="cls-2" points="86.06 483.53 64.67 484.43 52.47 480.83"/><path class="cls-2" d="M23.46,412c4.7,1.5,8,6,9.8,10.6s2.4,9.7,3.7,14.5c3.3,11.7,17.6,24.8,20,24.8l19.2-.3"/><path class="cls-6" d="M56.36,455.93c1.2.4,2.4-.1,3.6-.6s2.5-.9,3.6-.2,1.6,2.4,2.8,3a3.81,3.81,0,0,0,3.1-.4,6.42,6.42,0,0,1,3-1.1c1.4,0,2.5,1.1,3.6,2a4.86,4.86,0,0,0,3.6,1.8c1.3-.1,2.3-1.1,3.6-1.3.9-.1,1.9.3,2.8,0a2.53,2.53,0,0,0,1.6-2.2,6.58,6.58,0,0,0-.4-2.8c-.8-2.8-1.5-5.6-2.3-8.4a4.79,4.79,0,0,0-1.7-3,5.85,5.85,0,0,0-2.2-.5c-5.6-.3-11.3-.5-16.9-.8-1.8-.1-4.4-.7-6,.4s-1.4,2.9-1.4,4.5A79.51,79.51,0,0,0,56.36,455.93Z"/><path class="cls-2" d="M56.86,442.93a28.75,28.75,0,0,0-4-.9,1.7,1.7,0,0,0-1,0c-.6.3-.7,1.2-.6,1.8.2,3.1.5,6.2.7,9.4a1.08,1.08,0,0,0,.2.8c.3.6,1.1.6,1.8.5s1.4-.3,1.9.1"/><path class="cls-2" d="M57.06,443.83a39.45,39.45,0,0,0,10.3,1.5l9.6.6a2.3,2.3,0,0,1,1.4.4,1.91,1.91,0,0,1,.5,1c.6,2.1,1.2,4.2,1.8,6.4a3.77,3.77,0,0,0,1,2.1c.7.7,4.7.5,5.6.8"/><path class="cls-2" d="M81.36,455.73c.2.3-3.6,3.3-5.2,3.3"/><path class="cls-2" d="M78.26,446.23a18.1,18.1,0,0,0,5.5-2.9"/><path class="cls-8" d="M92.56,352c4.6,22.3,5.3,28.3,6.1,49.9a7.1,7.1,0,0,0,.5,2.9c1.3,2.5,4.8,2.4,7.5,2a431.28,431.28,0,0,1,72.7-4.9c11,.2,22.3.8,32.9-2.3s20.6-10.6,23.2-21.4c1.1-4.4.8-9.1.5-13.6-.5-7.8-.9-15.6-1.4-23.5-.4-6.4-.8-13.1-3.8-18.8a33.2,33.2,0,0,0-24.2-17c-10-1.3-24.4,1-34.4,1.6-29.4,1.8-55.2-.9-84.2,6.9.5,9,2.3,18.1,2.8,27.1Z"/><path class="cls-8" d="M88.06,313.93a38,38,0,0,1,15,21c1.8,6.4,2,13,2.3,19.6.4,12.4.8,24.9,1.3,37.3a23.2,23.2,0,0,1-.7,8.3c-.9,2.7-3.1,5-5.8,5.3"/><polyline class="cls-2" points="67.36 192.93 119.06 167.63 182.37 200.63"/><polyline class="cls-2" points="73.06 199.63 123.27 175.23 180.97 205.03"/><polyline class="cls-2" points="88.97 256.03 131.06 235.43 185.47 263.73"/><polyline class="cls-2" points="89.86 261.93 131.97 241.53 185.26 269.03"/><polyline class="cls-2" points="83.36 222.03 124.56 201.83 174.47 227.83"/><polyline class="cls-2" points="84.77 227.73 125.47 207.93 174.47 233.23"/><polyline class="cls-2" points="94.17 290.23 137.87 268.83 181.87 291.83"/><polyline class="cls-2" points="94.77 296.33 138.76 275.03 181.47 297.03"/><polyline class="cls-2" points="132.16 308.63 143.97 302.93 153.06 307.63"/><path class="cls-3" d="M79.76,94.83c-4.8-.2-7.2-.5-10,3.4s-6,11.7-7.6,16.2a133,133,0,0,1-7.2,16.5"/><path class="cls-1" d="M80.16,102.33c-2.6-.8-4.2-.6-6.2,1.3s-3.8,6.7-4.8,9.2a215.37,215.37,0,0,0-9.2,25.9,8.69,8.69,0,0,0-.4,3.9,5.72,5.72,0,0,0,4.1,4c1.9.5,8.5.7,11.9.5a43.87,43.87,0,0,1,1.74-10.51c1.57-4.84,4.7-10.92,4.32-21.15S80.16,102.33,80.16,102.33Z"/><path class="cls-3" d="M58.16,150.93a9.49,9.49,0,0,0,4.9,2.9,41.7,41.7,0,0,0,7.1.4c5.7,0,9.5.3,15.2.2,2.3,0,4.6-.1,6.9-.1a3.81,3.81,0,0,0,1.9-.3,1.49,1.49,0,0,0,.9-1.6"/><path class="cls-3" d="M129.26,147.13a43.93,43.93,0,0,0,2.1,6.1,11.91,11.91,0,0,0,4,4.9,12.84,12.84,0,0,0,6.7,2,32.56,32.56,0,0,0,7-.6"/><path class="cls-3" d="M136.26,147.93a3.72,3.72,0,0,0,.5,2.3,4.64,4.64,0,0,0,1.8,1.6,9.2,9.2,0,0,0,4.6,1.1,24.16,24.16,0,0,0,4.7-.5"/><path class="cls-1" d="M69.46,147.33c2.6,9.6,16,61.6,37.1,162.9l14.6-1.5s-32.8-156.6-38-163c-3-.6-9.3-.3-12.4-.1A1.34,1.34,0,0,0,69.46,147.33Z"/><path class="cls-3" d="M80.66,431.93a149.77,149.77,0,0,1,21.2.5"/><path class="cls-1" d="M146.66,149s37,144.9,37.7,157l12.1-.9s-34.7-153.4-37.4-157.1S146.66,149,146.66,149Z"/><path class="cls-9" d="M127.76,81.83c-13.1-4.2-25.8-10-39.3-12.8-3.7-.8-8.3-1-10.6,2.1-1.4,2-1.4,4.6-1.1,7,1.5,16.4,7.5,33,3.5,49-1.7,6.7-5.2,13.3-4.3,20.2.3,2.6,1.4,5.3,3.7,6.6,2.7,1.5,6.1.6,9.1-.4,11.4-3.6,23.2-6.4,35.1-6.4s24.1,3.3,33.5,10.7a49.16,49.16,0,0,0,5.8,4.4,8.27,8.27,0,0,0,7,.9c2.8-1,4.4-4,4.9-6.9s-.1-5.9-.3-8.8c-1.7-18.7,5.9-36.9,10.6-55.1.5-1.7.8-3.7-.2-5.2a5.69,5.69,0,0,0-3.2-2c-3.5-1.2-16-.2-18.5.4-7.5,1.6-15.4,1-22.9-.5A82.63,82.63,0,0,1,127.76,81.83Z"/><path class="cls-10" d="M100,72.23c3.8,9.8,4.4,12.9,6.8,22.1,1.1,4.1,2.6,13.8,3.1,18,.9,7.2.3,14.5-.3,21.8-.5,5.1-1,10.3-3.2,15"/><path class="cls-10" d="M174.56,84.93c3.8,7.2,4.2,15.8,2.7,23.9s-1.5,13.5-4.7,20.9c-1.3,3-4.4,9.6-6.3,12.2-4,5.7-9.2,9.5-15.2,13"/><polygon class="cls-1" points="188.06 402.03 180.87 413.63 189.97 418.93 198.97 401.83 188.06 402.03"/><path class="cls-2" d="M104.36,310.43c5.6-.9,11.3,3.6,14.8,8.1s5.2,10.2,6.7,15.7c6.2,22.8,10,47.3,3.1,69.9"/><path class="cls-2" d="M202.56,305c10.3,8.9,11.3,38,12.5,56.8.5,7.1.6,14.3-.9,21.2s-5,13.6-10.7,17.9"/><path class="cls-1" d="M157.16,360.83c-3.5,2.3-8,2.6-12.2,2.3-11.9-.8-23.2-5.1-34.8-7.7a112.47,112.47,0,0,0-45.5-.6,22.86,22.86,0,0,1-6.4.7,7.82,7.82,0,0,1-5.7-2.6c-1.5-1.8-1.2-4.5-.4-6.3,1.4-3.7,5.2-4.9,9.7-6.7,3.6-1.4,8.1-1.9,13.2-2.3,13.9-1.2,26-2.9,39.9-3.3s28.5,1.3,40.2,8.9c2.8,1.8,6.6,4.1,6.6,7.8S160.66,358.63,157.16,360.83Z"/><path class="cls-2" d="M157.76,344.83c-3.9,2.8-8.6,3.3-13.3,2.9s-9.4-1.8-14-3c-22-5.8-47.9-7-70.5-4.1"/><path class="cls-1" d="M117.86,357.33c2,33.9,3.9,74.8,6.4,108.7.1,2.1-.6,1.8-1.8,2.3.2,4.7.6,10.8.8,15.5a6.38,6.38,0,0,1,2,.1c2,7.9,2.3,25.5,1.1,26.9-2.8,3.3-8.9,3.1-15.2,2.8-4.3-.2-6.2.4-12.9-.9-2.1-3.8-1.8-20.1-1.1-28a4.67,4.67,0,0,0,1.4-.4c-.4-4.3-.4-10.5-.5-14.9-3-.1-2.7-2.5-3.2-6.4-4.3-33.8-6.9-69.5-10.5-103.4a40.16,40.16,0,0,1-9.8-.8c-1.4-.3-1.2-2.9-.4-5.3C74,353.53,98.26,350.43,117.86,357.33Z"/><path class="cls-2" d="M84,359.43a117.55,117.55,0,0,0,33.5-1"/><path class="cls-2" d="M87,352.83a53,53,0,0,1-.1,6.9"/><path class="cls-2" d="M92.46,360.73a108.3,108.3,0,0,0,1.5,16.1,15.23,15.23,0,0,1-8.2.1"/><path class="cls-6" d="M79.76,368.23a2.7,2.7,0,0,0-.8.7c-.7,1-.2,2.3-.1,3.6a1.3,1.3,0,0,0,1.2,1.3c5,.3,9.9.5,14.9.5.7,0,1.5,0,1.9-.5a2.83,2.83,0,0,0,.6-1.6,8.34,8.34,0,0,0-.6-3.5,1.21,1.21,0,0,0-1.2-.8l-10.4-.3h-2.2A4.81,4.81,0,0,0,79.76,368.23Z"/><path class="cls-2" d="M97.16,468.93a108,108,0,0,0,19.7.1,18.52,18.52,0,0,0,5.3-1.1"/><path class="cls-2" d="M96.86,484.83a71.24,71.24,0,0,0,27.6-1.2"/><path class="cls-2" d="M28.16,124.63c12.1,7.8,25.7,24.5,31.3,44.1l24.7,55,13,86.5"/><path class="cls-2" d="M22.76,169.13c19.1,14.1,31.2,45.1,39.9,74.9"/><path class="cls-2" d="M50,263.73c12.7,5.3,19.9,16.6,25.2,31.2"/><path class="cls-2" d="M218.56,140s-22.1,25.2-42.9,74.8"/><path class="cls-2" d="M249.46,167.63s-44.1,54.3-56.8,76.4"/><path class="cls-2" d="M237,255.53s-29.1,30.5-39.8,45"/></g></g></svg>