<?xml version="1.0" encoding="utf-8"?>
<!-- Generator: Adobe Illustrator 23.0.1, SVG Export Plug-In . SVG Version: 6.00 Build 0)  -->
<svg version="1.1" id="Camada_1" xmlns="http://www.w3.org/2000/svg" xmlns:xlink="http://www.w3.org/1999/xlink" x="0px" y="0px"
	 viewBox="0 0 600 600" style="enable-background:new 0 0 600 600;" xml:space="preserve">
<style type="text/css">
	.st0{fill:#FFFFFF;stroke:#1E1E1C;stroke-miterlimit:10;}
	.st1{fill:none;stroke:#1E1E1C;stroke-width:0.6333;stroke-miterlimit:10;}
	.st2{fill:#FFFFFF;stroke:#1E1E1C;stroke-width:1.2665;stroke-miterlimit:10;}
	.st3{fill:#FFFFFF;stroke:#1E1E1C;stroke-width:0.6333;stroke-miterlimit:10;}
	.st4{fill:none;stroke:#1E1E1C;stroke-width:0.9721;stroke-miterlimit:10;}
	.st5{fill:#FFFFFF;}
	.st6{fill:none;stroke:#1E1E1C;stroke-width:0.9881;stroke-miterlimit:10;}
	.st7{fill:none;stroke:#1E1E1C;stroke-width:1.2665;stroke-miterlimit:10;}
	.st8{fill:#FFFFFF;stroke:#1E1E1C;stroke-width:0.9721;stroke-miterlimit:10;}
	.st9{fill:#FFFFFF;stroke:#1E1E1C;stroke-width:0.9091;stroke-miterlimit:10;}
	.st10{fill:#FFFFFF;stroke:#1E1E1C;stroke-width:0.5889;stroke-miterlimit:10;}
	.st11{fill:#FFFFFF;stroke:#1E1E1C;stroke-width:1.019;stroke-miterlimit:10;}
	.st12{fill:#FFFFFF;stroke:#1E1E1C;stroke-width:0.953;stroke-miterlimit:10;}
	.st13{fill:#FFFFFF;stroke:#1E1E1C;stroke-width:0.6639;stroke-miterlimit:10;}
	.st14{fill:#FFFFFF;stroke:#1E1E1C;stroke-width:0.6174;stroke-miterlimit:10;}
	.st15{fill:#FFFFFF;stroke:#1E1E1C;stroke-width:1.3277;stroke-miterlimit:10;}
	.st16{fill:none;stroke:#1E1E1C;stroke-width:0.75;stroke-miterlimit:10;}
	.st17{fill:none;stroke:#1E1E1C;stroke-miterlimit:10;}
	.st18{fill:none;stroke:#1E1E1C;stroke-width:1.3977;stroke-miterlimit:10;}
	.st19{fill:none;stroke:#1E1E1C;stroke-width:2;stroke-miterlimit:10;}
	.st20{fill:#FFFFFF;stroke:#1E1E1C;stroke-width:0.5;stroke-miterlimit:10;}
	.st21{fill:none;stroke:#1E1E1C;stroke-width:0.5;stroke-miterlimit:10;}
	.st22{fill:none;stroke:#1E1E1C;stroke-width:1.0033;stroke-miterlimit:10;}
	.st23{fill:#FFFFFF;stroke:#020203;stroke-width:0.75;stroke-miterlimit:10;}
	.st24{fill:none;stroke:#020203;stroke-miterlimit:10;}
	.st25{fill:#FFFFFF;stroke:#020203;stroke-miterlimit:10;}
	.st26{fill:none;stroke:#020203;stroke-width:0.5;stroke-miterlimit:10;}
	.st27{fill:#FFFFFF;stroke:#020203;stroke-linejoin:round;}
	.st28{fill:none;stroke:#020203;stroke-linejoin:round;}
	.st29{fill:none;stroke:#020203;stroke-width:0.75;stroke-miterlimit:10;}
	.st30{fill:none;stroke:#020203;stroke-width:0.25;stroke-miterlimit:10;}
	.st31{fill:none;stroke:#E52624;stroke-width:1.5;stroke-miterlimit:10;}
	.st32{fill:#E52624;}
	.st33{fill:#FFFFFF;stroke:#020203;stroke-width:0.5;stroke-miterlimit:10;}
	.st34{fill:none;stroke:#E52522;stroke-width:1.5;stroke-miterlimit:10;}
	.st35{fill:#E52522;}
	.st36{fill:#E7E6E6;}
	.st37{fill:none;stroke:#E20D18;stroke-width:2;stroke-miterlimit:10;}
	.st38{fill:none;stroke:#E20D18;stroke-width:1.8;stroke-miterlimit:10;}
	.st39{fill:none;stroke:#E20D18;stroke-width:1.62;stroke-miterlimit:10;}
	.st40{fill:#E20D18;}
	.st41{fill:none;stroke:#E20D18;stroke-width:1.54;stroke-miterlimit:10;}
	.st42{fill:none;stroke:#E20D18;stroke-width:1.74;stroke-miterlimit:10;}
	.st43{fill:none;stroke:#E20D18;stroke-width:1.55;stroke-miterlimit:10;}
	.st44{fill:none;stroke:#E20D18;stroke-width:1.56;stroke-miterlimit:10;}
	.st45{fill:none;stroke:#E20D18;stroke-width:1.53;stroke-miterlimit:10;}
	.st46{fill:none;stroke:#E20D18;stroke-width:1.58;stroke-miterlimit:10;}
	.st47{fill:none;stroke:#E20D18;stroke-width:1.69;stroke-miterlimit:10;}
	.st48{fill:none;stroke:#E20D18;stroke-width:1.43;stroke-miterlimit:10;}
	.st49{fill:none;stroke:#E20D18;stroke-width:1.48;stroke-miterlimit:10;}
	.st50{fill:none;stroke:#E20D18;stroke-width:1.67;stroke-miterlimit:10;}
	.st51{fill:none;stroke:#E20D18;stroke-width:1.65;stroke-miterlimit:10;}
	.st52{fill:#FFFFFF;stroke:#020203;stroke-width:3;stroke-miterlimit:10;}
	.st53{fill:none;stroke:#E20D18;stroke-width:1.41;stroke-miterlimit:10;}
	.st54{fill:none;stroke:#E20D18;stroke-width:1.59;stroke-miterlimit:10;}
	.st55{fill:none;stroke:#1E1E1C;stroke-width:1.05;stroke-miterlimit:10;}
	.st56{fill:none;stroke:#1E1E1C;stroke-width:0.52;stroke-miterlimit:10;}
	.st57{fill:none;stroke:#1E1E1C;stroke-width:0.8;stroke-miterlimit:10;}
	.st58{fill:none;stroke:#1E1E1C;stroke-width:0.49;stroke-miterlimit:10;}
	.st59{fill:none;stroke:#1E1E1C;stroke-width:0.84;stroke-miterlimit:10;}
	.st60{fill:none;stroke:#1E1E1C;stroke-width:0.79;stroke-miterlimit:10;}
	.st61{fill:none;stroke:#1E1E1C;stroke-width:0.55;stroke-miterlimit:10;}
	.st62{fill:none;stroke:#1E1E1C;stroke-width:0.51;stroke-miterlimit:10;}
	.st63{fill:none;stroke:#1E1E1C;stroke-width:1.1;stroke-miterlimit:10;}
	.st64{fill:none;stroke:#1E1E1C;stroke-width:0.25;stroke-miterlimit:10;}
	.st65{fill:none;stroke:#1E1E1C;stroke-width:1.07;stroke-miterlimit:10;}
	.st66{fill:none;stroke:#1E1E1C;stroke-width:0.94;stroke-miterlimit:10;}
	.st67{fill:none;stroke:#1E1E1C;stroke-width:0.56;stroke-miterlimit:10;}
	.st68{fill:none;stroke:#E20D18;stroke-width:1.5;stroke-miterlimit:10;}
	.st69{fill:none;stroke:#E20D18;stroke-width:1.49;stroke-miterlimit:10;}
	.st70{fill:#E52622;}
	.st71{font-family:'Roboto-Medium';}
	.st72{font-size:12.4174px;}
	.st73{fill:none;stroke:#E20D18;stroke-miterlimit:10;}
	.st74{fill:none;stroke:#1E1E1C;stroke-width:0.78;stroke-miterlimit:10;}
	.st75{fill:none;stroke:#1E1E1C;stroke-width:1.08;stroke-miterlimit:10;}
	.st76{fill:none;stroke:#1E1E1C;stroke-width:0.54;stroke-miterlimit:10;}
	.st77{fill:none;stroke:#1E1E1C;stroke-width:0.83;stroke-miterlimit:10;}
	.st78{fill:none;stroke:#1E1E1C;stroke-width:0.77;stroke-miterlimit:10;}
	.st79{fill:none;stroke:#1E1E1C;stroke-width:0.87;stroke-miterlimit:10;}
	.st80{fill:none;stroke:#1E1E1C;stroke-width:0.81;stroke-miterlimit:10;}
	.st81{fill:none;stroke:#1E1E1C;stroke-width:1.13;stroke-miterlimit:10;}
	.st82{fill:none;stroke:#1E1E1C;stroke-width:0.21;stroke-miterlimit:10;}
	.st83{fill:#FFFFFF;stroke:#1E1E1C;stroke-width:0.84;stroke-miterlimit:10;}
	.st84{fill:none;stroke:#1E1E1C;stroke-width:0.42;stroke-miterlimit:10;}
	.st85{fill:none;stroke:#1E1E1C;stroke-width:0.24;stroke-miterlimit:10;}
	.st86{fill:none;stroke:#E20D18;stroke-width:1.6;stroke-miterlimit:10;}
	.st87{fill:none;stroke:#E20D18;stroke-width:1.64;stroke-miterlimit:10;}
	.st88{fill:none;stroke:#E20D18;stroke-width:1.484;stroke-miterlimit:10;}
	.st89{fill:none;stroke:#E20D18;stroke-width:1.4075;stroke-miterlimit:10;}
	.st90{fill:none;stroke:#E20D18;stroke-width:1.5853;stroke-miterlimit:10;}
	.st91{fill:none;stroke:#E20D18;stroke-width:1.2981;stroke-miterlimit:10;}
	.st92{fill:none;stroke:#E20D18;stroke-width:0.9733;stroke-miterlimit:10;}
	.st93{fill:none;stroke:#E20D18;stroke-width:0.9159;stroke-miterlimit:10;}
	.st94{fill:none;stroke:#E20D18;stroke-width:1.4439;stroke-miterlimit:10;}
	.st95{fill:none;stroke:#E20D18;stroke-width:1.0062;stroke-miterlimit:10;}
	.st96{fill:none;stroke:#E20D18;stroke-width:0.9468;stroke-miterlimit:10;}
	.st97{fill:none;stroke:#E20D18;stroke-width:1.6749;stroke-miterlimit:10;}
	.st98{fill:none;stroke:#E20D18;stroke-width:1.6513;stroke-miterlimit:10;}
	.st99{fill:#FFFFFF;stroke:#1E1E1C;stroke-width:0.8664;stroke-miterlimit:10;}
	.st100{fill:#FFFFFF;stroke:#1E1E1C;stroke-width:1.0973;stroke-miterlimit:10;}
	.st101{fill:none;stroke:#1E1E1C;stroke-width:1.0973;stroke-miterlimit:10;}
	.st102{fill:#FFFFFF;stroke:#1E1E1C;stroke-width:0.5487;stroke-miterlimit:10;}
	.st103{fill:none;stroke:#1E1E1C;stroke-width:0.8422;stroke-miterlimit:10;}
	.st104{fill:#FFFFFF;stroke:#1E1E1C;stroke-width:0.7877;stroke-miterlimit:10;}
	.st105{fill:#FFFFFF;stroke:#1E1E1C;stroke-width:0.5103;stroke-miterlimit:10;}
	.st106{fill:#FFFFFF;stroke:#1E1E1C;stroke-width:0.8422;stroke-miterlimit:10;}
	.st107{fill:none;stroke:#1E1E1C;stroke-width:0.8829;stroke-miterlimit:10;}
	.st108{fill:#FFFFFF;stroke:#1E1E1C;stroke-width:0.8257;stroke-miterlimit:10;}
	.st109{fill:#FFFFFF;stroke:#1E1E1C;stroke-width:0.5752;stroke-miterlimit:10;}
	.st110{fill:#FFFFFF;stroke:#1E1E1C;stroke-width:0.5349;stroke-miterlimit:10;}
	.st111{fill:#FFFFFF;stroke:#1E1E1C;stroke-width:1.1504;stroke-miterlimit:10;}
	.st112{fill:#FFFFFF;stroke:#1E1E1C;stroke-width:0.8829;stroke-miterlimit:10;}
	.st113{fill:none;stroke:#1E1E1C;stroke-width:0.5487;stroke-miterlimit:10;}
	.st114{fill:#FFFFFF;stroke:#1E1E1C;stroke-width:1.0441;stroke-miterlimit:10;}
	.st115{fill:none;stroke:#E20D18;stroke-width:1.5173;stroke-miterlimit:10;}
	.st116{fill:none;stroke:#E20D18;stroke-width:1.804;stroke-miterlimit:10;}
	.st117{fill:none;stroke:#E20D18;stroke-width:1.6153;stroke-miterlimit:10;}
	.st118{fill:none;stroke:#E20D18;stroke-width:1.578;stroke-miterlimit:10;}
	.st119{fill:none;stroke:#E20D18;stroke-width:1.6879;stroke-miterlimit:10;}
	.st120{fill:none;stroke:#E20D18;stroke-width:1.6347;stroke-miterlimit:10;}
	.st121{fill:none;stroke:#E20D18;stroke-width:1.5386;stroke-miterlimit:10;}
	.st122{fill:none;stroke:#E20D18;stroke-width:1.7396;stroke-miterlimit:10;}
	.st123{fill:#FFFFFF;stroke:#1E1E1C;stroke-width:1.4;stroke-miterlimit:10;}
	.st124{fill:none;stroke:#E20D18;stroke-width:1.4266;stroke-miterlimit:10;}
	.st125{fill:none;stroke:#E20D18;stroke-width:1.4299;stroke-miterlimit:10;}
	.st126{fill:none;stroke:#1E1E1C;stroke-width:0.9867;stroke-miterlimit:10;}
	.st127{fill:none;stroke:#DD0B18;stroke-width:1.4266;stroke-miterlimit:10;}
	.st128{fill:none;stroke:#DD0B18;stroke-width:1.4299;stroke-miterlimit:10;}
	.st129{fill:#DD0B18;}
	.st130{fill:none;stroke:#DD0B18;stroke-width:1.484;stroke-miterlimit:10;}
	.st131{fill:none;stroke:#DD0B18;stroke-width:1.4075;stroke-miterlimit:10;}
	.st132{fill:none;stroke:#DD0B18;stroke-width:1.5853;stroke-miterlimit:10;}
	.st133{fill:none;stroke:#DD0B18;stroke-width:1.2981;stroke-miterlimit:10;}
	.st134{fill:none;stroke:#DD0B18;stroke-width:0.9733;stroke-miterlimit:10;}
	.st135{fill:none;stroke:#DD0B18;stroke-width:0.9159;stroke-miterlimit:10;}
	.st136{fill:none;stroke:#DD0B18;stroke-width:1.4439;stroke-miterlimit:10;}
	.st137{fill:none;stroke:#DD0B18;stroke-width:1.0062;stroke-miterlimit:10;}
	.st138{fill:none;stroke:#DD0B18;stroke-width:0.9468;stroke-miterlimit:10;}
	.st139{fill:none;stroke:#DD0B18;stroke-width:1.6749;stroke-miterlimit:10;}
	.st140{fill:none;stroke:#DD0B18;stroke-width:1.6513;stroke-miterlimit:10;}
	.st141{fill:#FFFFFF;stroke:#1E1E1C;stroke-width:0.75;stroke-miterlimit:10;}
	.st142{fill:none;stroke:#DD0B18;stroke-width:1.5173;stroke-miterlimit:10;}
	.st143{fill:none;stroke:#DD0B18;stroke-width:1.804;stroke-miterlimit:10;}
	.st144{fill:none;stroke:#DD0B18;stroke-width:1.6153;stroke-miterlimit:10;}
	.st145{fill:none;stroke:#DD0B18;stroke-width:1.5551;stroke-miterlimit:10;}
	.st146{fill:none;stroke:#DD0B18;stroke-width:1.578;stroke-miterlimit:10;}
	.st147{fill:#E0E0E0;}
	.st148{fill:none;stroke:#DD0B18;stroke-width:1.6879;stroke-miterlimit:10;}
	.st149{fill:none;stroke:#DD0B18;stroke-width:1.6347;stroke-miterlimit:10;}
	.st150{fill:none;stroke:#DD0B18;stroke-width:1.5386;stroke-miterlimit:10;}
	.st151{fill:none;stroke:#DD0B18;stroke-width:1.7396;stroke-miterlimit:10;}
	.st152{fill:#FFFFFF;stroke:#020203;stroke-width:1.635;stroke-miterlimit:10;}
	.st153{fill:none;stroke:#E20D18;stroke-width:1.52;stroke-miterlimit:10;}
	.st154{fill:#020203;}
	.st155{fill:none;stroke:#1E1E1C;stroke-linejoin:round;}
	.st156{fill:none;stroke:#1E1E1C;stroke-linecap:round;stroke-miterlimit:10;}
	.st157{fill:#1E1E1C;}
	.st158{fill:none;stroke:#1E1E1C;stroke-linejoin:round;stroke-miterlimit:10;}
	.st159{fill:none;stroke:#020203;stroke-linejoin:bevel;stroke-miterlimit:10;}
	.st160{fill:none;stroke:#020203;stroke-miterlimit:10;stroke-dasharray:1;}
	.st161{fill:none;stroke:#020203;stroke-width:0.5;stroke-miterlimit:10;stroke-dasharray:1;}
	.st162{fill:none;stroke:#E20D18;stroke-width:1.3;stroke-miterlimit:10;}
	.st163{fill:none;stroke:#E20D18;stroke-width:0.97;stroke-miterlimit:10;}
	.st164{fill:none;stroke:#E20D18;stroke-width:0.92;stroke-miterlimit:10;}
	.st165{fill:none;stroke:#E20D18;stroke-width:1.44;stroke-miterlimit:10;}
	.st166{fill:none;stroke:#E20D18;stroke-width:1.01;stroke-miterlimit:10;}
	.st167{fill:none;stroke:#E20D18;stroke-width:0.95;stroke-miterlimit:10;}
	.st168{fill:#FFFFFF;stroke:#1E1E1C;stroke-width:2;stroke-miterlimit:10;}
	.st169{fill:none;stroke:#1E1E1C;stroke-width:1.5;stroke-linejoin:round;}
	.st170{fill:none;stroke:#1E1E1C;stroke-width:1.5;stroke-miterlimit:10;}
	.st171{fill:none;stroke:#1E1E1C;stroke-width:2;stroke-linecap:round;stroke-miterlimit:10;}
	.st172{fill:none;stroke:#1E1E1C;stroke-width:1.5;stroke-linecap:round;stroke-miterlimit:10;}
	.st173{fill:none;stroke:#1E1E1C;stroke-width:2;stroke-linejoin:round;stroke-miterlimit:10;}
	.st174{fill:none;stroke:#1E1E1C;stroke-width:2;stroke-linejoin:round;}
	.st175{fill:none;stroke:#020203;stroke-width:0.5;stroke-linejoin:bevel;stroke-miterlimit:10;}
	.st176{fill:none;stroke:#E20D18;stroke-width:1.63;stroke-miterlimit:10;}
	.st177{fill:none;stroke:#000000;stroke-miterlimit:10;}
	.st178{fill:#FFFFFF;stroke:#000000;stroke-miterlimit:10;}
	.st179{fill:none;stroke:#E20D18;stroke-width:1.3113;stroke-miterlimit:10;}
	.st180{fill:none;stroke:#E20D18;stroke-width:1.3459;stroke-miterlimit:10;}
	.st181{fill:none;stroke:#E20D18;stroke-width:1.4481;stroke-miterlimit:10;}
	.st182{fill:none;stroke:#E20D18;stroke-width:1.3929;stroke-miterlimit:10;}
	.st183{fill:none;stroke:#E20D18;stroke-width:1.327;stroke-miterlimit:10;}
	.st184{fill:none;stroke:#E20D18;stroke-width:1.4965;stroke-miterlimit:10;}
	.st185{fill:none;stroke:#E20D18;stroke-width:1.225;stroke-miterlimit:10;}
	.st186{fill:none;stroke:#E20D18;stroke-width:1.4563;stroke-miterlimit:10;}
	.st187{fill:none;stroke:#E20D18;stroke-width:1.5717;stroke-miterlimit:10;}
	.st188{fill:none;stroke:#E20D18;stroke-width:1.5529;stroke-miterlimit:10;}
	.st189{fill:#BFBEBF;stroke:#020203;stroke-miterlimit:10;}
	.st190{fill:none;stroke:#E20D18;stroke-width:2.0835;stroke-miterlimit:10;}
	.st191{fill:none;stroke:#E20D18;stroke-width:1.8751;stroke-miterlimit:10;}
	.st192{fill:none;stroke:#E20D18;stroke-width:1.6876;stroke-miterlimit:10;}
	.st193{fill:none;stroke:#E20D18;stroke-width:1.698;stroke-miterlimit:10;}
	.st194{fill:none;stroke:#E20D18;stroke-width:1.6043;stroke-miterlimit:10;}
	.st195{fill:none;stroke:#E20D18;stroke-width:1.8126;stroke-miterlimit:10;}
	.st196{fill:none;stroke:#E20D18;stroke-width:1.6147;stroke-miterlimit:10;}
	.st197{fill:none;stroke:#E20D18;stroke-width:1.5938;stroke-miterlimit:10;}
	.st198{fill:none;stroke:#E20D18;stroke-width:1.6251;stroke-miterlimit:10;}
	.st199{fill:none;stroke:#E20D18;stroke-width:1.6459;stroke-miterlimit:10;}
	.st200{fill:none;stroke:#E20D18;stroke-width:1.7605;stroke-miterlimit:10;}
	.st201{fill:#FFFFFF;stroke:#1E1E1C;stroke-width:0.87;stroke-miterlimit:10;}
	.st202{fill:#FFFFFF;stroke:#1E1E1C;stroke-width:1.1;stroke-miterlimit:10;}
	.st203{fill:#FFFFFF;stroke:#1E1E1C;stroke-width:0.55;stroke-miterlimit:10;}
	.st204{fill:#FFFFFF;stroke:#1E1E1C;stroke-width:0.79;stroke-miterlimit:10;}
	.st205{fill:#FFFFFF;stroke:#1E1E1C;stroke-width:0.51;stroke-miterlimit:10;}
	.st206{fill:none;stroke:#1E1E1C;stroke-width:0.88;stroke-miterlimit:10;}
	.st207{fill:#FFFFFF;stroke:#1E1E1C;stroke-width:0.83;stroke-miterlimit:10;}
	.st208{fill:#FFFFFF;stroke:#1E1E1C;stroke-width:0.58;stroke-miterlimit:10;}
	.st209{fill:#FFFFFF;stroke:#1E1E1C;stroke-width:0.53;stroke-miterlimit:10;}
	.st210{fill:#FFFFFF;stroke:#1E1E1C;stroke-width:1.15;stroke-miterlimit:10;}
	.st211{fill:#FFFFFF;stroke:#1E1E1C;stroke-width:0.88;stroke-miterlimit:10;}
	.st212{fill:#FFFFFF;stroke:#1E1E1C;stroke-width:1.04;stroke-miterlimit:10;}
	.st213{fill:#FFFFFF;stroke:#020203;stroke-linejoin:round;stroke-miterlimit:10;}
</style>
<g id="PARA_MEDIR">
	<g id="BAse-6">
		<path class="st5" d="M230.4,407.9l-0.1,14.9c0,0-1.3,1.1-0.9,8c0,0-1.8,0-2,5.3c-0.1,5.3-1.1,32.4-1.1,32.4s-22.8-9.8-58-4.4
			c0,0-8.7,1.5-9.4,5.6s0.2,5.1,0.2,5.1l3,0.6l10.5-0.1l0.1-1.5c4.8,0.3,9.6,0.9,14.3,1.8c5.2,1.2,10.8,2.7,12.4,3.6l0.1,0.5
			c0,0-17,3.7-19.3,4.3c-2.3,0.5-30.6,7.6-37.2,9.7c-6.7,2.1-28.8,10-28.8,10L99,510.4c0,0-3.8,2.9-2.2,9.6c0.2,0.2,0.3,0.3,0.5,0.5
			c1.6,1.2,6.5,4,15,0.4l1.6-3c0,0,46.8-15.2,78.7-18.7s30.2-3.7,30.2-3.7s5.5-1,6.3,5.7c0.8,6.6,3.6,53.8,3.6,53.8s1,7.5,9.6,7.2
			c8.7-0.3,10.8-4,10.8-4s1-0.8,1.2-5.5l2.5-54.3c0,0,2.3-2,7.1-1.2c4.8,0.8,23.4,2.9,23.4,2.9s23.1,3.1,37.3,6.7
			c14.1,3.6,46.4,12.6,46.4,12.6l1.7,3.1c0,0,5.7,3.4,9.8,1.7c1.8-0.8,3.7-1.5,5.6-2c0,0,2.4-8.3-3.5-11
			c-5.9-2.7-38.3-17.2-73.3-24.3l-26.7-6c0,0,7.4-5,23.8-6.1c16.4-1.2,13.6-0.7,13.6-0.7v2l3.5-0.6c0,0,1.9-6.1-2.2-8.2
			c-4.1-2-12-5.2-33.6-3.8s-30.5,5.3-30.5,5.3l-0.9-32.6c0,0,0.6-3.5-1.8-5.1c0,0,0.6-6.8-0.9-8.4l-0.7-12.3L230.4,407.9z"/>
		<path class="st5" d="M97.3,520.5c-4.6,0-8.9,2.2-11.5,6c-4.4,6.4,0,14.8,0,14.8c2.3,12.3,13,11.7,13,11.7
			c15.6-0.2,13.4-18.9,13.4-18.9l0.1-13.1C112.3,521,106.5,525.1,97.3,520.5z"/>
		<path class="st5" d="M386.1,522.4c4.6,0,8.9,2.2,11.5,6c4.4,6.4,0,14.8,0,14.8c-2.3,12.3-13,11.7-13,11.7
			c-19.5-1.5-13.4-18.9-13.4-18.9l-0.2-16.5C371,519.4,377,527,386.1,522.4z"/>
		<path class="st5" d="M311.1,474.5l-0.6,1.4c0,0-2.1-0.1-4.4,9.5l25.4,6.3c0,0,3.8-12.4-2.6-15.5l-3.4-0.7l-3.5,0.6v-2L311.1,474.5
			z"/>
		<path class="st5" d="M173.2,473.5l0.6,1.4c0,0,2.1-0.1,4.4,9.5l-25.4,6.3c0,0-3.8-12.4,2.6-15.5l3.4-0.7l3.5,0.6v-2L173.2,473.5z"
			/>
		<path class="st5" d="M237.1,560.8v2.7h-4.8l-1.6,3.6l0.3,22.5l1.8,4.1h4.9c0,0,0.9-0.9,0.8-5c-0.1-4.1,0-5.1,0-5.1l7.9-0.1v7.8
			c0,0,0.3,2.3,0.8,2.3h4.9c0,0,2-2.7,2.3-5c0.3-2.2,0-21,0-21l-1.8-4.2h-5.2l-0.2-1.6L237.1,560.8z"/>
		<path class="st55" d="M259.9,474.9l-0.1-5.9c0,0,9.3-5,36.1-5.4c26.9-0.5,29.3,5.7,29.3,5.7s1.2,1,0.3,6.3
			c-1.1,0.3-2.1,0.5-3.2,0.5c-0.4-0.1-0.1-2-0.1-2s-23.4-0.3-37.4,6"/>
		<path class="st55" d="M227.3,474.3v-5.6c0,0-10.1-5.4-37-5.8c-26.9-0.5-29.3,5.7-29.3,5.7s-1.2,1-0.3,6.3c1.1,0.3,2.1,0.5,3.2,0.5
			c0.4-0.1,0.1-2,0.1-2s23.4-0.3,37.4,6.1"/>
		<path class="st55" d="M229,496.6l-1.2-0.6c-1.8-0.7-3.8-1-5.8-0.7l0,0c-4.8,0.8-9.6,1.4-14.4,1.9c-12.7,1.2-25.3,3.1-37.8,5.7
			c-21.2,4.6-53.8,14.3-53.8,14.3l-1.7,3.1c-7.4,4.4-15.3-0.3-15.3-0.3c-1.8-8.1,2.3-10.3,2.3-10.3s19.3-9.6,51-18.6
			s75.1-16.9,75.1-16.9v0.6"/>
		<path class="st55" d="M259.2,475.8c0,0,43.4,8,75.1,16.9c31.7,8.9,51,18.6,51,18.6s4.1,2.1,2.3,10.3c0,0-7.9,4.7-15.3,0.3
			l-1.7-3.1c0,0-32.6-9.6-53.8-14.3c-12.5-2.6-25.1-4.5-37.8-5.7c-4.8-0.5-9.6-1.1-14.4-1.9h-0.1c-1.9-0.3-3.9-0.1-5.8,0.6l-1.2,0.6
			"/>
		<path class="st55" d="M229,496.6c0,0,1.6,1.8,2.6,22.2c1.1,20.3,2,35.7,2,35.7s0.6,7.2,10.8,6.5c1.7-0.1,3.3-0.3,5-0.7
			c3.2-0.7,5.5-3.5,5.6-6.7l2.6-55.4"/>
		<path class="st55" d="M244.9,479.4c10.2,0.3,15-4.5,15-4.5l0-0.6l-1.1-37.6c0-1-0.2-2-0.4-2.9c-0.1-0.7-0.4-1.3-0.9-1.9
			c0,0-0.3,5.1-12.6,5.1h-2.6c-12.3,0-12.6-5.1-12.6-5.1c-0.4,0.5-0.7,1.2-0.9,1.9c-0.3,0.9-0.4,1.9-0.4,2.9l-1.1,37.6v0.6
			c0,0,4.7,4.8,15,4.5H244.9z"/>
		<path class="st55" d="M242.6,437c-10.8,0.2-12.3-4.8-12.3-4.8v-4.9c0,0-0.1-2.8,0.9-3.7c0,0-0.1,4.5,12,4.5h0.9
			c12.2,0.1,12-4.5,12-4.5c1,0.9,0.9,3.7,0.9,3.7v4.9c0,0-1.5,4.9-12.3,4.8L242.6,437z"/>
		<path class="st55" d="M231.3,424l-0.2-15.2h24l0.9,14.6c0,0-0.6,5-11.9,4.7C232.7,427.8,231.3,424,231.3,424z"/>
		<path class="st55" d="M237.9,562.3h-4.8l0.5,29.8h4.8c0,0,0.9-0.6,0.8-3.2l-0.3-25"/>
		<path class="st55" d="M233.3,562.3l-0.7,1.4c-1.6,2.9-0.9,1.5-1,12.8v0.3c0.1,11.3-0.3,11,1.3,13.9l0.7,1.4"/>
		<path class="st55" d="M248.3,562.3h4.8l-0.5,29.8h-4.8c0,0-0.9-0.6-0.8-3.2l0.3-25"/>
		<path class="st55" d="M253.2,562.5l0.7,1.4c1.5,2.9,0.8,1.5,1,12.8v0.3c-0.1,11.3,0.3,11-1.3,13.9l-0.7,1.4"/>
		<line class="st55" x1="239.2" y1="581.7" x2="247.1" y2="581.7"/>
		<path class="st56" d="M86.8,536.4c0-7.1,6-12.1,13.2-12.1c1.9-0.2,3.8,0.1,5.6,0.8"/>
		<path class="st55" d="M114.8,521l-0.3,12l-0.5,0.3c-0.6-2.4-1.9-4.5-3.7-6.1c-1.4-1.1-3-2-4.8-2.5v-2.4"/>
		<circle class="st55" cx="100.8" cy="539.1" r="12.9"/>
		<path class="st55" d="M87.5,540c-0.9-2.3-1.5-4.7-1.6-7.1c0-7.1,5.8-12.9,12.9-12.9"/>
		<path class="st56" d="M86.5,533.3c0-7.1,6.8-12.1,13.9-12.1"/>
		<circle class="st56" cx="101" cy="539.1" r="2.2"/>
		<path class="st56" d="M101.3,528.2c0,0,0.1,7,0.4,7.4c0.3,0.4,0.6,0.6,1.4,0s4-5.6,4-5.6"/>
		<path class="st56" d="M108.7,531.8c0,0-4.5,5.4-4.5,5.9s0,0.9,1.1,0.9c1.1,0,6.6-1.7,6.6-1.7"/>
		<path class="st56" d="M111.9,539.1c0,0-7.1,0-7.4,0.3c-0.3,0.3-0.6,0.6,0,1.4s5.6,4,5.6,4"/>
		<path class="st56" d="M108.9,546.5c0,0-5.6-4.3-6.1-4.3c-0.4,0-0.9,0.1-0.9,1.1s2,6.5,2,6.5"/>
		<path class="st56" d="M99.6,528.2c0,0,0.3,7,0.1,7.4c-0.3,0.4-0.5,0.7-1.4,0.1s-4.3-5.3-4.3-5.3"/>
		<path class="st56" d="M92.5,532.2c0,0,4.8,5.1,4.9,5.6c0,0.4,0,0.9-1,0.9c-1,0.1-6.7-1.3-6.7-1.3"/>
		<path class="st56" d="M89.7,540.6c0,0,7-0.4,7.4-0.1c0.4,0.3,0.7,0.5,0.1,1.4c-0.6,0.8-5.3,4.3-5.3,4.3"/>
		<path class="st56" d="M94.1,547.9c0,0,4.6-5.3,5.1-5.4c0.4-0.1,0.9-0.1,1,0.9c0.2,1-0.6,6.8-0.6,6.8"/>
		<path class="st55" d="M369.5,519v14.7l0.4,0.3c0.8-2.3,2.2-4.4,4.1-5.9c1.5-1,3.2-1.8,4.9-2.2l0.2-2.4"/>
		<circle class="st55" cx="382.9" cy="540.6" r="12.9"/>
		<path class="st55" d="M396,542.5c1.1-2.2,1.8-4.6,2-7c0.5-7.1-4.9-13.2-12-13.7"/>
		<path class="st56" d="M397.5,535.8c0.5-7.1-6-12.5-13.1-13"/>
		<circle class="st56" cx="382.6" cy="540.7" r="2.2"/>
		<path class="st56" d="M383.1,529.8c0,0-0.5,7-0.9,7.4s-0.6,0.6-1.4-0.1s-3.6-5.8-3.6-5.8"/>
		<path class="st56" d="M375.5,532.8c0,0,4.2,5.7,4.1,6.1c0,0.4-0.1,0.9-1.1,0.8c-1-0.1-6.5-2.1-6.5-2.1"/>
		<path class="st56" d="M371.8,539.9c0,0,7,0.5,7.4,0.8c0.4,0.3,0.6,0.6-0.1,1.4c-0.7,0.8-5.8,3.6-5.8,3.6"/>
		<path class="st56" d="M374.3,547.5c0,0,5.9-3.9,6.3-3.9c0.4,0,0.9,0.1,0.8,1.1c-0.1,1-2.4,6.4-2.4,6.4"/>
		<path class="st56" d="M384.7,529.9c0,0-0.8,7-0.6,7.4c0.2,0.4,0.5,0.7,1.4,0.2c0.9-0.5,4.6-5,4.6-5"/>
		<path class="st56" d="M391.6,534.3c0,0-5.2,4.8-5.3,5.3s-0.1,0.9,0.9,1c1,0.1,6.8-0.9,6.8-0.9"/>
		<path class="st56" d="M393.8,542.9c0,0-7-0.9-7.4-0.6c-0.4,0.3-0.7,0.5-0.2,1.4c0.5,0.9,5,4.6,5,4.6"/>
		<path class="st56" d="M388.9,549.9c0,0-4.3-5.6-4.7-5.7s-0.8-0.2-1.1,0.8c-0.3,1,0.1,6.8,0.1,6.8"/>
		<circle class="st57" cx="382.6" cy="540.6" r="10.9"/>
		<circle class="st57" cx="100.8" cy="539.1" r="10.9"/>
		<line class="st57" x1="163.9" y1="475.4" x2="168.2" y2="475.3"/>
		<path class="st16" d="M155,490c-1.4-1.6-1.2-5.5-1.2-5.5c0-5.1,2.3-9.2,5.1-9.2s5.5,3.9,5.5,9v2.8"/>
		<path class="st56" d="M155.3,489.8c-1.3-1.5-1.1-5.1-1.1-5.1c0-4.7,2.1-8.6,4.7-8.6c2.6,0,4.4,3.7,4.4,8.4l-0.1,2.9"/>
		<path class="st56" d="M157.4,477.3c0,0,0.2,6.4,0.6,7.5c0.5,1.1,0.9-4,1.8-5.3c0.2-0.4,0.4-0.8,0.6-1.1"/>
		<path class="st56" d="M161.5,480.3c0,0-2.4,4.8-2.5,5.9c-0.1,1.1,2.3-1.2,4-1.9"/>
		<path class="st58" d="M155.9,479c0,0,1.8,6.1,1.3,5.7c-0.8-0.9-1.7-1.7-2.8-2.3"/>
		<path class="st58" d="M154.5,483.4l2.8,3.1c0,0,0.6,1-0.3,1c-0.8,0-1.6,0-2.4-0.1"/>
		<ellipse class="st55" cx="158.2" cy="486.6" rx="0.8" ry="1.5"/>
		<path class="st57" d="M178.8,483.5c0,0-1.8-7-3.3-7.9l-0.3,8.6l-6.4,1.7l-0.2-1.7c-0.4-2-1.1-3.9-2.2-5.6v-3.1
			c1.2,1.5,3.2,2.3,5.1,1.9c3.3-0.5,3.6-1.9,3.6-1.9l-0.9-1.3v0.9h-6v-1.6"/>
		<line class="st59" x1="322" y1="476.3" x2="317.5" y2="476.2"/>
		<path class="st60" d="M331.4,491.6c1.5-1.7,1.3-5.8,1.3-5.8c0-5.3-2.4-9.6-5.3-9.6s-5.8,4.1-5.8,9.5v2.9"/>
		<path class="st61" d="M331.1,491.4c1.4-1.6,1.2-5.3,1.2-5.3c0-4.9-2.2-9-4.9-9c-2.7,0-4.6,3.9-4.6,8.8l0.2,3"/>
		<path class="st61" d="M328.9,478.3c0,0-0.2,6.7-0.7,7.9c-0.5,1.2-1-4.2-1.9-5.6c-0.2-0.4-0.5-0.8-0.6-1.2"/>
		<path class="st61" d="M324.6,481.4c0,0,2.5,5.1,2.6,6.1c0.1,1.1-2.4-1.3-4.2-2"/>
		<path class="st62" d="M330.4,480.1c0,0-1.8,6.4-1.3,6s1.6-1.8,2.9-2.4"/>
		<path class="st62" d="M332,484.6l-2.9,3.2c0,0-0.6,1,0.3,1.1c0.8,0,1.7,0,2.5-0.1"/>
		<ellipse class="st63" cx="328" cy="488" rx="0.9" ry="1.6"/>
		<path class="st59" d="M306.5,484.8c0,0,1.9-7.4,3.4-8.2l0.4,9l6.7,1.8l0.2-1.8c0.4-2.1,1.2-4.1,2.3-5.8v-3.2
			c-1.3,1.6-3.3,2.4-5.4,2c-3.5-0.6-3.8-2-3.8-2l0.9-1.3v1h6.3v-1.7"/>
	</g>
	<path class="st17" d="M251.8,334.5c0,0,61.2,1.1,69.7-1.1c8.6-2.2,20-9.6,20.8-24.8c0.9-15.1-7.2-66.9-7.2-66.9s-6.8-47.6-6.6-53.3
		c0.2-5.7,6.8-21,17.3-31.1c10.5-10.1,13.6-23.9,13.6-23.9s2.9-23.2-19.5-35.7c-22.4-12.5-26.5-18.4-32-26.1s-16.4-37.3-23-50
		C278.4,9,260.2,7.2,260.2,7.2c-12.2-1.5-24.6-1.5-36.8,0c0,0-18.2,1.8-24.8,14.5c-6.6,12.7-17.5,42.3-23,50s-9.6,13.6-32,26.1
		S124,133.5,124,133.5s3.1,13.8,13.6,23.9c10.5,10.1,17.1,25.4,17.3,31.1c0.2,5.7-6.6,53.3-6.6,53.3s-8.1,51.7-7.2,66.9
		s12.3,22.6,20.8,24.8c8.6,2.2,69.7,1.1,69.7,1.1L251.8,334.5z"/>
	<line class="st21" x1="296.4" y1="326" x2="297" y2="334.7"/>
	<path class="st21" d="M336.9,96c0,0-11.7,3.6-31.3,39.6s-19.1,34.8-19.1,34.8l4.4,80"/>
	<path class="st21" d="M330.6,208.5c0,0-12.6,0.8-23.2,35.7"/>
	<line class="st21" x1="187.3" y1="322.3" x2="186.5" y2="334.3"/>
	<path class="st21" d="M146.5,95.6c0,0,11.7,3.6,31.3,39.6s19.1,34.8,19.1,34.8l-4.5,81.6"/>
	<path class="st21" d="M127.4,114.4c8.6,8.2,49.7,74.1,49.7,74.1s-0.7,31.5,0,43.3c0.7,11.8,0,102.5,0,102.5V132.1
		c0-11.8-2.9-23-4.8-30.5c-0.3-1.1-0.6-2.3-1-3.4l-5.2-15.5"/>
	<path class="st21" d="M152.8,208c0,0,13.7,1.5,24.2,36.5"/>
	<polyline class="st64" points="184.6,147.6 241.7,125.7 299.6,146.6 	"/>
	<polyline class="st64" points="186.6,151.3 241.7,130.1 297.6,150.3 	"/>
	<polyline class="st64" points="193.8,227.7 243.7,208.5 289.4,223 	"/>
	<polyline class="st64" points="193.5,232.2 243.7,212.9 289.6,226.4 	"/>
	<polyline class="st64" points="197,170.8 242.6,153.3 287.6,168.4 	"/>
	<polyline class="st64" points="196.7,175.2 242.6,156.9 286.5,172.4 	"/>
	<polyline class="st64" points="195.3,199.9 243.8,181.2 287.6,195.2 	"/>
	<polyline class="st64" points="195.1,203.8 243.8,185.1 288.2,199.4 	"/>
	<polyline class="st64" points="207.7,249.7 245.5,236.1 284.9,250.4 	"/>
	<polyline class="st64" points="218.7,250.5 245.5,240.6 274.3,250.6 	"/>
	<path class="st17" d="M145.9,322.7c0,0-15-11.1-8.6-51.8c6.4-40.8,12.7-62.1,12.1-71.9s1.2-25.8-11-40.7"/>
	<path class="st17" d="M336.6,324.5c0,0,15.1-11.1,8.6-51.8c-6.4-40.8-12.7-62.1-12.1-71.9c0.6-9.8-1-26.8,11.3-41.8"/>
	<path class="st17" d="M305.7,409.5c6.9,1.2,14.4,2.3,22.7,0c8.3-2.3,8.7-15.7,9.2-18.4c0.6-2.7,0.2-23.7-1.1-35.6s-12-21.2-12-21.2
		H168.6c0,0-10.6,9.3-11.9,21.2c-1.3,12-1.6,32.9-1.1,35.6c0.6,2.7,0.9,16.1,9.2,18.4s15.8,1.2,22.7,0S298.8,408.3,305.7,409.5z"/>
	<path class="st17" d="M161.1,333.8c-1,1.5-5.8,1.8-5.8,1.8s-17.1-14.9-26.4-19.1s-8.9,2.8-8.9,2.8s1.5,15.3,12.9,48.1
		s28.3,40.1,28.3,40.1"/>
	<path class="st17" d="M159,408.4c0,0-16.7-2.6-24.7-18c-8-15.3-19-48.7-19.2-50c-0.1-1.3-2.8-16.2,4.8-23"/>
	<path class="st65" d="M324.5,334.6c1.1,1.5,6.5,1.8,6.5,1.8s19.2-15.2,29.7-19.5c10.5-4.3,10,2.8,10,2.8s-1.6,15.6-14.4,48.9
		s-25.1,39.6-25.1,39.6"/>
	<path class="st17" d="M335,405.6c0,0,16.7-2.6,24.7-18c8-15.3,12.8-34.3,14.1-40.1c1-4.7,2.6-25.2-5-31.5"/>
	<path class="st17" d="M136.8,394.9l-3.9,3.3c-1.3,1-2.2,2.4-2.6,4c-0.3,2,1.1,3.8,3,4c0.1,0,0.2,0,0.3,0c1.2,0.1,1,0.6,1.5,1.4
		c0,0,0.6,1.8,3.2,1.5c0.8-0.1,1.4-0.3,2.6,1.1c2.2,2.5,4.4,0.5,5.2-1.8c0.6-1.4,1.3-2.7,2.2-4"/>
	<g id="Almofada_cabeça-2">
		<path class="st17" d="M267.1,107.2c4.7,0.7,11.3,1.7,15.4,4.1c1.8,1.2,3.9,1.9,6.1,2.1c2.5,0,4.4-2,4.4-4.5c0-0.4-0.1-0.8-0.2-1.1
			c-1.3-4.9-4.2-17.2-3.7-23.7c0.7-8.3,3.9-22.6,4.5-24.7c1.8-6.4-0.9-11.8-15.1-5.1c-15.7,7.4-61.1,8.3-75,0.9
			c-13.9-7.5-17-1.3-15.1,5.1c0.6,2.1,3.7,16.4,4.5,24.7c0.6,6.6-2.4,18.8-3.7,23.7c-0.6,2.4,0.8,4.8,3.2,5.5
			c0.4,0.1,0.7,0.1,1.1,0.1c2.2-0.1,4.3-0.9,6.1-2.1c4.1-2.4,8.6-4.1,13.3-4.8C218.5,106.6,261.5,106.4,267.1,107.2z"/>
		<path class="st21" d="M211.8,57.9c0,0-7.3,31.7-4.5,50.8"/>
		<path class="st21" d="M269.4,57.1c0,0,9.2,12.1,6.1,51.6"/>
	</g>
	<g id="Almofada_lombar-2">
		<path class="st17" d="M305.8,307.1c0.1,20.2-9.4,19.4-9.4,19.4s-58.1-2-83.5,0.1c-13.6,1.2-20.2-0.6-23.4-2.6
			c-1.9-1.1-3-3.2-3-5.4l-0.4-20v-42.1c0,0,1-8.2,26.5-6c1.6,0.1,3.3,0.3,5.2,0.4c27.2,1.6,77-0.4,77-0.4s13.9-4,12.7,25.3
			C306.2,305,305.8,307.1,305.8,307.1z"/>
		<path class="st21" d="M198.3,250.4c0,0,14.6,13.5,13.4,40.7c-1.2,27.2-7.6,35.8-7.6,35.8"/>
		<path class="st21" d="M291.1,250.2c0,0-14.6,13.5-13.4,40.7c1.2,27.2,7.6,35.8,7.6,35.8"/>
	</g>
	<path class="st16" d="M318.2,83.9l-4.7,14.3c-0.4,1.1-0.7,2.3-1,3.4c-1.9,7.6-4.8,18.7-4.8,30.5v202.2c0,0-0.3-90.1-0.3-103.4
		c0-11.9,0.3-41,0.3-41s39.8-66.9,48.4-75"/>
	<path class="st17" d="M131.4,386.4l-23.7,0.9l-2.5,2.6c0,0-6.7,2.2-10.7,2.3c-2.2,0.1-4.3-0.7-6-2.1l-0.9-4.3l1-26.2l1.5-1.4
		l-0.1-2.1"/>
	<path class="st17" d="M105.6,355.6l0.4-88l2.1-1.9l7.7-0.4l1.2-1.4c0,0,6.6-1.4,7.7-6.5c1.1-5.1-1.5-13-6.7-14.4
		c-5.2-1.4-11.6,2.1-17.5,4.1s-13.7,0.2-15.1-0.3c-1.4-0.6-8.8-3.6-13.5,0.2c-4.6,3.8-5.7,6.1-5.4,10.2c0.2,4,3.1,6.3,6,7.3
		c1.4,0.4,2.7,1,4,1.8h8.8l0.4,1.2l0.2,4.9l3.3,83.6C89.1,356,98.2,357.8,105.6,355.6z"/>
	<path class="st17" d="M128.3,379.2l-17.5-0.5c0,0-3.9-1.3-4.2-2.5c-0.3-1.2-0.9-18-0.9-18l-1.6-0.9V356"/>
	<polyline class="st67" points="129.6,384.4 103.4,384.5 102.6,382.5 95.7,382.8 95.7,360.9 94.3,309 93.4,267.8 	"/>
	<line class="st67" x1="86.2" y1="266.9" x2="104.8" y2="266.9"/>
	<path class="st67" d="M89.8,359.3c4.9,1.6,10.3,1.4,15.1-0.4"/>
	<path class="st67" d="M103.4,384.5c0.5,0,6.5-1.3,6.9-2.6c0.4-1.4-0.7-2.8-0.7-2.8c-1,2.9-7,3.5-7,3.5"/>
	<path class="st17" d="M361,384l23.6,0.9l2.5,2.6c0,0,6.7,2.2,10.7,2.3c2.2,0.1,4.3-0.7,6-2.1l0.9-4.3l-1-26.2l-1.5-1.4l0.1-2.1"/>
	<path class="st17" d="M386.8,353.2l-0.4-88l-2.1-1.9l-7.7-0.4l-1.2-1.4c0,0-6.6-1.4-7.7-6.4c-1.1-5.1,1.5-13,6.7-14.4
		c5.2-1.4,11.6,2.1,17.5,4.1c5.9,2,13.7,0.2,15.1-0.3c1.4-0.6,8.8-3.6,13.5,0.2c4.6,3.8,5.7,6.1,5.4,10.2c-0.2,4-3.2,6.3-6,7.3
		c-1.4,0.4-2.7,1-4,1.8h-8.8l-0.4,1.2l-0.2,4.9l-3.3,83.7C403.3,353.7,394.2,355.4,386.8,353.2z"/>
	<path class="st17" d="M364.1,376.8l17.5-0.5c0,0,3.9-1.3,4.2-2.5c0.3-1.2,0.9-18,0.9-18l1.6-0.9v-1.3"/>
	<polyline class="st67" points="362.8,382 388.9,382.1 389.7,380.1 396.7,380.4 396.7,358.5 398.1,306.6 399,265.4 	"/>
	<line class="st67" x1="406.2" y1="264.5" x2="387.6" y2="264.5"/>
	<path class="st67" d="M402.6,357c-4.9,1.6-10.2,1.5-15.1-0.4"/>
	<path class="st67" d="M388.9,382.1c-0.5,0-6.5-1.3-6.9-2.6c-0.2-1,0.1-2,0.7-2.8c1,2.9,7,3.5,7,3.5"/>
</g>
<line class="st68" x1="126" y1="129.9" x2="356.7" y2="129.9"/>
<line class="st69" x1="144.5" y1="283.6" x2="337" y2="283.6"/>
<line class="st69" x1="128.2" y1="237.6" x2="364.8" y2="237.6"/>
<line class="st68" x1="122" y1="318.9" x2="368.4" y2="318.9"/>
<line class="st68" x1="159" y1="354" x2="334.3" y2="354"/>
<line class="st68" x1="178.6" y1="203.4" x2="305.5" y2="203.4"/>
<g>
	<text transform="matrix(1.128 0 0 1 231.4997 126.2544)" class="st70 st71 st72">58cm</text>
</g>
<g>
	<text transform="matrix(1.128 0 0 1 232.8152 198.5278)" class="st70 st71 st72">33cm</text>
</g>
<g>
	<text transform="matrix(1.128 0 0 1 234.28 233.9409)" class="st70 st71 st72">56cm</text>
</g>
<g>
	<text transform="matrix(1.128 0 0 1 234.28 279.2114)" class="st70 st71 st72">52cm</text>
</g>
<g>
	<text transform="matrix(1.128 0 0 1 231.4997 350.2485)" class="st70 st71 st72">36cm</text>
</g>
<g>
	<text transform="matrix(1.128 0 0 1 232.8152 315.063)" class="st70 st71 st72">56cm</text>
</g>
<line class="st68" x1="123.9" y1="136.3" x2="123.9" y2="123.9"/>
<line class="st73" x1="359.6" y1="133.1" x2="359.6" y2="126.6"/>
<line class="st68" x1="177.1" y1="209.6" x2="177.1" y2="197.2"/>
<line class="st68" x1="125.6" y1="258.9" x2="125.6" y2="233.2"/>
<line class="st68" x1="142.9" y1="289.8" x2="142.9" y2="277.4"/>
<line class="st68" x1="120.3" y1="325.2" x2="120.3" y2="312.7"/>
<line class="st68" x1="157.3" y1="360.3" x2="157.3" y2="347.8"/>
<polygon class="st40" points="124.2,130.1 135,136.3 135,123.9 "/>
<polygon class="st40" points="177.4,203.4 188.2,209.6 188.2,197.2 "/>
<polygon class="st40" points="126,238 136.7,244.2 136.7,231.8 "/>
<polygon class="st40" points="142.5,283.6 153.3,289.8 153.3,277.4 "/>
<polygon class="st40" points="120.6,318.9 131.3,325.2 131.3,312.7 "/>
<polygon class="st40" points="157.3,353.8 168.1,360 168.1,347.6 "/>
<line class="st68" x1="359.6" y1="135.4" x2="359.6" y2="123"/>
<polygon class="st40" points="359.2,129.2 348.5,135.4 348.5,123 "/>
<line class="st68" x1="308" y1="209.6" x2="308" y2="197.2"/>
<polygon class="st40" points="307.6,203.4 296.9,209.6 296.9,197.2 "/>
<polyline class="st68" points="367.5,243.8 367.5,231.4 367.5,234.8 367.5,260.5 "/>
<polygon class="st40" points="367.1,237.6 356.4,243.8 356.4,231.4 "/>
<line class="st68" x1="340.5" y1="289.5" x2="340.5" y2="277.1"/>
<polygon class="st40" points="340.1,283.3 329.4,289.5 329.4,277.1 "/>
<line class="st68" x1="370.7" y1="325.2" x2="370.7" y2="312.7"/>
<polygon class="st40" points="370.4,318.9 359.6,325.2 359.6,312.7 "/>
<line class="st68" x1="336.7" y1="360" x2="336.7" y2="347.6"/>
<polygon class="st40" points="336.4,353.8 325.6,360 325.6,347.6 "/>
</svg>
