<svg xmlns="http://www.w3.org/2000/svg" xmlns:xlink="http://www.w3.org/1999/xlink" viewBox="0 0 355.06 482.04"><defs><style>.cls-1,.cls-10,.cls-11,.cls-12,.cls-13,.cls-14,.cls-15,.cls-18,.cls-19,.cls-3,.cls-6,.cls-7,.cls-8,.cls-9{fill:none;}.cls-2{clip-path:url(#clip-path);}.cls-3{stroke:#fff;stroke-width:0.25px;}.cls-13,.cls-14,.cls-15,.cls-18,.cls-19,.cls-3,.cls-6,.cls-7,.cls-8{stroke-miterlimit:10;}.cls-4{clip-path:url(#clip-path-2);}.cls-5{fill:#fff;}.cls-10,.cls-11,.cls-12,.cls-13,.cls-14,.cls-19,.cls-6,.cls-7,.cls-8,.cls-9{stroke:#1d1d1b;}.cls-6{stroke-width:4.63px;}.cls-11,.cls-18,.cls-7{stroke-width:1.54px;}.cls-8,.cls-9{stroke-width:3.09px;}.cls-10,.cls-11,.cls-12,.cls-9{stroke-linejoin:round;}.cls-10,.cls-15{stroke-width:0.77px;}.cls-12,.cls-13{stroke-width:0.39px;}.cls-14{stroke-width:1.16px;}.cls-15{stroke:#1b1415;}.cls-16{fill:#1d1d1b;}.cls-17{fill:url(#Unnamed_Pattern_2);}.cls-18{stroke:url(#Unnamed_Pattern_2-3);}.cls-19{stroke-width:0.15px;}</style><clipPath id="clip-path"><rect class="cls-1" width="3.19" height="77.84"/></clipPath><clipPath id="clip-path-2" transform="translate(0 0)"><rect class="cls-1" width="355.06" height="482.04"/></clipPath><pattern id="Unnamed_Pattern_2" data-name="Unnamed Pattern 2" width="3.19" height="77.84" patternTransform="matrix(1.54, 0, 0, -1.54, 36.2, 24583.83)" patternUnits="userSpaceOnUse" viewBox="0 0 3.19 77.83"><rect class="cls-1" width="3.19" height="77.84"/><g class="cls-2"><path class="cls-3" d="M3-.67a.62.62,0,0,0-.62-.62.61.61,0,0,0-.61.62A.61.61,0,0,0,2.37,0,.62.62,0,0,0,3-.67Z"/><path class="cls-3" d="M4.52.67a.62.62,0,1,0-.62.62A.62.62,0,0,0,4.52.67Z"/><path class="cls-3" d="M4.52,3a.62.62,0,1,0-.62.62A.62.62,0,0,0,4.52,3Z"/><path class="cls-3" d="M4.52,10a.62.62,0,1,0-1.24,0,.62.62,0,0,0,1.24,0Z"/><path class="cls-3" d="M4.52,12.33A.62.62,0,1,0,3.9,13,.62.62,0,0,0,4.52,12.33Z"/><path class="cls-3" d="M4.47,28.24a.62.62,0,1,0-.61.62A.61.61,0,0,0,4.47,28.24Z"/><path class="cls-3" d="M4.47,30.59a.62.62,0,0,0-1.23,0,.62.62,0,1,0,1.23,0Z"/><path class="cls-3" d="M4.52,33a.62.62,0,0,0-1.24,0,.62.62,0,1,0,1.24,0Z"/><path class="cls-3" d="M4.52,35.34a.62.62,0,1,0-1.24,0,.62.62,0,0,0,1.24,0Z"/><path class="cls-3" d="M3,1.86a.62.62,0,0,0-.62-.62.62.62,0,0,0,0,1.24A.62.62,0,0,0,3,1.86Z"/><path class="cls-3" d="M1.33.67a.62.62,0,1,0-.62.62A.62.62,0,0,0,1.33.67Z"/><path class="cls-3" d="M1.33,3a.62.62,0,1,0-.62.62A.62.62,0,0,0,1.33,3Z"/><path class="cls-3" d="M3,4.15a.62.62,0,1,0-.62.62A.62.62,0,0,0,3,4.15Z"/><path class="cls-3" d="M3,6.6a.62.62,0,1,0-.62.62A.62.62,0,0,0,3,6.6Z"/><path class="cls-3" d="M1.37,5.41A.62.62,0,1,0,.76,6,.61.61,0,0,0,1.37,5.41Z"/><path class="cls-3" d="M1.37,7.76a.61.61,0,0,0-.61-.61.61.61,0,0,0-.62.61.62.62,0,1,0,1.23,0Z"/><path class="cls-3" d="M3,8.9a.62.62,0,0,0-.62-.62.62.62,0,0,0,0,1.23A.61.61,0,0,0,3,8.9Z"/><path class="cls-3" d="M3,11.17a.62.62,0,0,0-.62-.62.62.62,0,0,0,0,1.24A.62.62,0,0,0,3,11.17Z"/><path class="cls-3" d="M1.33,10A.62.62,0,0,0,.09,10a.61.61,0,0,0,.62.61A.61.61,0,0,0,1.33,10Z"/><path class="cls-3" d="M1.33,12.33A.62.62,0,1,0,.71,13,.62.62,0,0,0,1.33,12.33Z"/><path class="cls-3" d="M3,13.46a.62.62,0,1,0-.62.62A.62.62,0,0,0,3,13.46Z"/><path class="cls-3" d="M3,15.91a.62.62,0,1,0-.62.62A.62.62,0,0,0,3,15.91Z"/><path class="cls-3" d="M1.37,14.72a.62.62,0,1,0-.61.62A.61.61,0,0,0,1.37,14.72Z"/><path class="cls-3" d="M1.37,17.07a.62.62,0,1,0-.61.62A.61.61,0,0,0,1.37,17.07Z"/><path class="cls-3" d="M3,18.2a.61.61,0,0,0-.62-.61.62.62,0,0,0,0,1.23A.62.62,0,0,0,3,18.2Z"/><path class="cls-3" d="M3,20.21a.62.62,0,1,0-.62.62A.62.62,0,0,0,3,20.21Z"/><path class="cls-3" d="M1.37,19a.62.62,0,1,0-.61.62A.61.61,0,0,0,1.37,19Z"/><path class="cls-3" d="M1.37,21.37a.61.61,0,0,0-.61-.61.61.61,0,0,0-.62.61.62.62,0,1,0,1.23,0Z"/><path class="cls-3" d="M3,22.51a.62.62,0,0,0-.62-.62.62.62,0,0,0,0,1.23A.61.61,0,0,0,3,22.51Z"/><path class="cls-3" d="M3.05,25a.62.62,0,1,0-.62.62A.61.61,0,0,0,3.05,25Z"/><path class="cls-3" d="M1.42,23.76a.61.61,0,0,0-.62-.61.61.61,0,0,0-.62.61.62.62,0,0,0,1.24,0Z"/><path class="cls-3" d="M1.42,26.12a.62.62,0,0,0-1.24,0,.61.61,0,0,0,.62.61A.61.61,0,0,0,1.42,26.12Z"/><path class="cls-3" d="M3,27.25a.62.62,0,1,0-.62.62A.62.62,0,0,0,3,27.25Z"/><path class="cls-3" d="M2.92,29.43a.62.62,0,1,0-.62.62A.62.62,0,0,0,2.92,29.43Z"/><path class="cls-3" d="M1.29,28.24a.62.62,0,1,0-.62.62A.62.62,0,0,0,1.29,28.24Z"/><path class="cls-3" d="M1.29,30.59A.61.61,0,0,0,.67,30a.61.61,0,0,0-.62.61.62.62,0,0,0,1.24,0Z"/><path class="cls-3" d="M2.9,31.73a.62.62,0,1,0-1.23,0,.62.62,0,0,0,1.23,0Z"/><path class="cls-3" d="M3,34.17a.61.61,0,0,0-.62-.61.62.62,0,0,0,0,1.23A.62.62,0,0,0,3,34.17Z"/><path class="cls-3" d="M1.33,33a.61.61,0,0,0-.62-.61A.61.61,0,0,0,.09,33a.62.62,0,0,0,1.24,0Z"/><path class="cls-3" d="M1.33,35.34a.62.62,0,1,0-1.24,0A.61.61,0,0,0,.71,36,.61.61,0,0,0,1.33,35.34Z"/><path class="cls-3" d="M3,36.47a.62.62,0,1,0-.62.62A.62.62,0,0,0,3,36.47Z"/><path class="cls-3" d="M3,38.56a.62.62,0,1,0-.62.62A.61.61,0,0,0,3,38.56Z"/><path class="cls-3" d="M1.37,37.37a.61.61,0,0,0-.61-.61.61.61,0,0,0-.62.61.62.62,0,1,0,1.23,0Z"/><path class="cls-3" d="M1.37,39.73a.62.62,0,1,0-1.23,0,.61.61,0,0,0,.62.61A.61.61,0,0,0,1.37,39.73Z"/><path class="cls-3" d="M3,40.86a.62.62,0,0,0-.62-.62.62.62,0,0,0,0,1.24A.62.62,0,0,0,3,40.86Z"/><path class="cls-3" d="M3.05,43.31a.62.62,0,1,0-.62.62A.62.62,0,0,0,3.05,43.31Z"/><path class="cls-3" d="M1.42,42.12a.62.62,0,0,0-1.24,0,.61.61,0,0,0,.62.61A.61.61,0,0,0,1.42,42.12Z"/><path class="cls-3" d="M1.42,44.47a.62.62,0,1,0-.62.62A.62.62,0,0,0,1.42,44.47Z"/><path class="cls-3" d="M3,45.6a.62.62,0,1,0-.62.62A.62.62,0,0,0,3,45.6Z"/><path class="cls-3" d="M3.06,47.5a.62.62,0,0,0-.62-.62.62.62,0,0,0,0,1.24A.62.62,0,0,0,3.06,47.5Z"/><path class="cls-3" d="M1.42,46.54a.62.62,0,0,0-1.24,0,.61.61,0,0,0,.62.61A.61.61,0,0,0,1.42,46.54Z"/><path class="cls-3" d="M1.42,48.46a.62.62,0,1,0-.62.62A.62.62,0,0,0,1.42,48.46Z"/><path class="cls-3" d="M3,49.59a.62.62,0,1,0-.62.62A.61.61,0,0,0,3,49.59Z"/><path class="cls-3" d="M3.09,52a.61.61,0,0,0-.61-.62.62.62,0,1,0,0,1.24A.61.61,0,0,0,3.09,52Z"/><path class="cls-3" d="M1.46,50.85a.62.62,0,0,0-.62-.62.62.62,0,0,0,0,1.24A.62.62,0,0,0,1.46,50.85Z"/><path class="cls-3" d="M1.46,53.2a.61.61,0,0,0-.62-.61.62.62,0,0,0,0,1.23A.62.62,0,0,0,1.46,53.2Z"/><path class="cls-3" d="M3.08,54.34a.62.62,0,1,0-1.24,0,.62.62,0,0,0,1.24,0Z"/><path class="cls-3" d="M3.05,56.61a.62.62,0,1,0-.62.62A.62.62,0,0,0,3.05,56.61Z"/><path class="cls-3" d="M1.42,55.42A.62.62,0,1,0,.8,56,.62.62,0,0,0,1.42,55.42Z"/><path class="cls-3" d="M1.42,57.77a.62.62,0,1,0-.62.62A.62.62,0,0,0,1.42,57.77Z"/><path class="cls-3" d="M3,58.9a.62.62,0,1,0-.62.62A.62.62,0,0,0,3,58.9Z"/><path class="cls-3" d="M3.09,61.35a.61.61,0,0,0-.61-.62.62.62,0,1,0,0,1.24A.61.61,0,0,0,3.09,61.35Z"/><path class="cls-3" d="M1.46,60.16a.62.62,0,0,0-.62-.62.62.62,0,0,0,0,1.24A.62.62,0,0,0,1.46,60.16Z"/><path class="cls-3" d="M1.46,62.51a.61.61,0,0,0-.62-.61.61.61,0,0,0-.61.61.61.61,0,0,0,.61.62A.62.62,0,0,0,1.46,62.51Z"/><path class="cls-3" d="M3.08,63.65a.62.62,0,1,0-.62.61A.62.62,0,0,0,3.08,63.65Z"/><path class="cls-3" d="M3.09,65.65A.61.61,0,0,0,2.48,65a.62.62,0,1,0,0,1.24A.61.61,0,0,0,3.09,65.65Z"/><path class="cls-3" d="M1.46,64.46a.62.62,0,0,0-.62-.62.62.62,0,0,0,0,1.24A.62.62,0,0,0,1.46,64.46Z"/><path class="cls-3" d="M1.46,66.81a.61.61,0,0,0-.62-.61.62.62,0,0,0,0,1.23A.62.62,0,0,0,1.46,66.81Z"/><path class="cls-3" d="M3.08,68a.62.62,0,0,0-1.24,0,.62.62,0,0,0,1.24,0Z"/><path class="cls-3" d="M3.14,70.4a.62.62,0,1,0-.62.61A.62.62,0,0,0,3.14,70.4Z"/><path class="cls-3" d="M1.51,69.2a.61.61,0,0,0-.62-.61.62.62,0,1,0,.62.61Z"/><path class="cls-3" d="M1.51,71.56a.62.62,0,1,0-.62.62A.62.62,0,0,0,1.51,71.56Z"/><path class="cls-3" d="M3.12,72.69a.62.62,0,1,0-.61.62A.61.61,0,0,0,3.12,72.69Z"/><path class="cls-3" d="M3,74.87a.62.62,0,0,0-1.24,0,.62.62,0,0,0,1.24,0Z"/><path class="cls-3" d="M1.37,73.68a.62.62,0,1,0-.61.62A.61.61,0,0,0,1.37,73.68Z"/><path class="cls-3" d="M1.37,76a.61.61,0,0,0-.61-.62.62.62,0,1,0,0,1.23A.61.61,0,0,0,1.37,76Z"/><path class="cls-3" d="M3,77.17a.62.62,0,0,0-.62-.62.62.62,0,0,0,0,1.24A.62.62,0,0,0,3,77.17Z"/><path class="cls-3" d="M-.09,52a.62.62,0,0,0-.62-.62.62.62,0,0,0-.62.62.62.62,0,0,0,.62.62A.62.62,0,0,0-.09,52Z"/><path class="cls-3" d="M-.11,54.34a.62.62,0,0,0-.62-.62.61.61,0,0,0-.61.62A.61.61,0,0,0-.73,55,.61.61,0,0,0-.11,54.34Z"/><path class="cls-3" d="M-.09,61.35a.62.62,0,0,0-.62-.62.62.62,0,0,0-.62.62A.62.62,0,0,0-.71,62,.62.62,0,0,0-.09,61.35Z"/><path class="cls-3" d="M-.11,63.65A.62.62,0,0,0-.73,63a.61.61,0,0,0-.61.62.61.61,0,0,0,.61.61A.61.61,0,0,0-.11,63.65Z"/><path class="cls-3" d="M-.09,65.65A.62.62,0,0,0-.71,65a.62.62,0,0,0-.62.62.62.62,0,0,0,.62.62A.62.62,0,0,0-.09,65.65Z"/><path class="cls-3" d="M-.11,68a.62.62,0,0,0-.62-.62.61.61,0,0,0-.61.62.61.61,0,0,0,.61.61A.61.61,0,0,0-.11,68Z"/><path class="cls-3" d="M0,70.4a.62.62,0,0,0-.62-.62.62.62,0,0,0-.62.62A.61.61,0,0,0-.67,71,.61.61,0,0,0,0,70.4Z"/><path class="cls-3" d="M-.06,72.69a.62.62,0,0,0-.62-.62.62.62,0,0,0-.62.62.62.62,0,0,0,.62.62A.62.62,0,0,0-.06,72.69Z"/><path class="cls-3" d="M4.52,78.5a.62.62,0,1,0-.62.62A.62.62,0,0,0,4.52,78.5Z"/><path class="cls-3" d="M1.33,78.5a.62.62,0,1,0-.62.62A.62.62,0,0,0,1.33,78.5Z"/></g></pattern><pattern id="Unnamed_Pattern_2-3" data-name="Unnamed Pattern 2" width="3.19" height="77.84" patternTransform="matrix(1.54, 0, 0, -1.54, 39.52, 24671.65)" patternUnits="userSpaceOnUse" viewBox="0 0 3.19 77.83"><rect class="cls-1" width="3.19" height="77.84"/><g class="cls-2"><path class="cls-3" d="M3-.67a.62.62,0,0,0-.62-.62.61.61,0,0,0-.61.62A.61.61,0,0,0,2.37,0,.62.62,0,0,0,3-.67Z"/><path class="cls-3" d="M4.52.67a.62.62,0,1,0-.62.62A.62.62,0,0,0,4.52.67Z"/><path class="cls-3" d="M4.52,3a.62.62,0,1,0-.62.62A.62.62,0,0,0,4.52,3Z"/><path class="cls-3" d="M4.52,10a.62.62,0,1,0-1.24,0,.62.62,0,0,0,1.24,0Z"/><path class="cls-3" d="M4.52,12.33A.62.62,0,1,0,3.9,13,.62.62,0,0,0,4.52,12.33Z"/><path class="cls-3" d="M4.47,28.24a.62.62,0,1,0-.61.62A.61.61,0,0,0,4.47,28.24Z"/><path class="cls-3" d="M4.47,30.59a.62.62,0,0,0-1.23,0,.62.62,0,1,0,1.23,0Z"/><path class="cls-3" d="M4.52,33a.62.62,0,0,0-1.24,0,.62.62,0,1,0,1.24,0Z"/><path class="cls-3" d="M4.52,35.34a.62.62,0,1,0-1.24,0,.62.62,0,0,0,1.24,0Z"/><path class="cls-3" d="M3,1.86a.62.62,0,0,0-.62-.62.62.62,0,0,0,0,1.24A.62.62,0,0,0,3,1.86Z"/><path class="cls-3" d="M1.33.67a.62.62,0,1,0-.62.62A.62.62,0,0,0,1.33.67Z"/><path class="cls-3" d="M1.33,3a.62.62,0,1,0-.62.62A.62.62,0,0,0,1.33,3Z"/><path class="cls-3" d="M3,4.15a.62.62,0,1,0-.62.62A.62.62,0,0,0,3,4.15Z"/><path class="cls-3" d="M3,6.6a.62.62,0,1,0-.62.62A.62.62,0,0,0,3,6.6Z"/><path class="cls-3" d="M1.37,5.41A.62.62,0,1,0,.76,6,.61.61,0,0,0,1.37,5.41Z"/><path class="cls-3" d="M1.37,7.76a.61.61,0,0,0-.61-.61.61.61,0,0,0-.62.61.62.62,0,1,0,1.23,0Z"/><path class="cls-3" d="M3,8.9a.62.62,0,0,0-.62-.62.62.62,0,0,0,0,1.23A.61.61,0,0,0,3,8.9Z"/><path class="cls-3" d="M3,11.17a.62.62,0,0,0-.62-.62.62.62,0,0,0,0,1.24A.62.62,0,0,0,3,11.17Z"/><path class="cls-3" d="M1.33,10A.62.62,0,0,0,.09,10a.61.61,0,0,0,.62.61A.61.61,0,0,0,1.33,10Z"/><path class="cls-3" d="M1.33,12.33A.62.62,0,1,0,.71,13,.62.62,0,0,0,1.33,12.33Z"/><path class="cls-3" d="M3,13.46a.62.62,0,1,0-.62.62A.62.62,0,0,0,3,13.46Z"/><path class="cls-3" d="M3,15.91a.62.62,0,1,0-.62.62A.62.62,0,0,0,3,15.91Z"/><path class="cls-3" d="M1.37,14.72a.62.62,0,1,0-.61.62A.61.61,0,0,0,1.37,14.72Z"/><path class="cls-3" d="M1.37,17.07a.62.62,0,1,0-.61.62A.61.61,0,0,0,1.37,17.07Z"/><path class="cls-3" d="M3,18.2a.61.61,0,0,0-.62-.61.62.62,0,0,0,0,1.23A.62.62,0,0,0,3,18.2Z"/><path class="cls-3" d="M3,20.21a.62.62,0,1,0-.62.62A.62.62,0,0,0,3,20.21Z"/><path class="cls-3" d="M1.37,19a.62.62,0,1,0-.61.62A.61.61,0,0,0,1.37,19Z"/><path class="cls-3" d="M1.37,21.37a.61.61,0,0,0-.61-.61.61.61,0,0,0-.62.61.62.62,0,1,0,1.23,0Z"/><path class="cls-3" d="M3,22.51a.62.62,0,0,0-.62-.62.62.62,0,0,0,0,1.23A.61.61,0,0,0,3,22.51Z"/><path class="cls-3" d="M3.05,25a.62.62,0,1,0-.62.62A.61.61,0,0,0,3.05,25Z"/><path class="cls-3" d="M1.42,23.76a.61.61,0,0,0-.62-.61.61.61,0,0,0-.62.61.62.62,0,0,0,1.24,0Z"/><path class="cls-3" d="M1.42,26.12a.62.62,0,0,0-1.24,0,.61.61,0,0,0,.62.61A.61.61,0,0,0,1.42,26.12Z"/><path class="cls-3" d="M3,27.25a.62.62,0,1,0-.62.62A.62.62,0,0,0,3,27.25Z"/><path class="cls-3" d="M2.92,29.43a.62.62,0,1,0-.62.62A.62.62,0,0,0,2.92,29.43Z"/><path class="cls-3" d="M1.29,28.24a.62.62,0,1,0-.62.62A.62.62,0,0,0,1.29,28.24Z"/><path class="cls-3" d="M1.29,30.59A.61.61,0,0,0,.67,30a.61.61,0,0,0-.62.61.62.62,0,0,0,1.24,0Z"/><path class="cls-3" d="M2.9,31.73a.62.62,0,1,0-1.23,0,.62.62,0,0,0,1.23,0Z"/><path class="cls-3" d="M3,34.17a.61.61,0,0,0-.62-.61.62.62,0,0,0,0,1.23A.62.62,0,0,0,3,34.17Z"/><path class="cls-3" d="M1.33,33a.61.61,0,0,0-.62-.61A.61.61,0,0,0,.09,33a.62.62,0,0,0,1.24,0Z"/><path class="cls-3" d="M1.33,35.34a.62.62,0,1,0-1.24,0A.61.61,0,0,0,.71,36,.61.61,0,0,0,1.33,35.34Z"/><path class="cls-3" d="M3,36.47a.62.62,0,1,0-.62.62A.62.62,0,0,0,3,36.47Z"/><path class="cls-3" d="M3,38.56a.62.62,0,1,0-.62.62A.61.61,0,0,0,3,38.56Z"/><path class="cls-3" d="M1.37,37.37a.61.61,0,0,0-.61-.61.61.61,0,0,0-.62.61.62.62,0,1,0,1.23,0Z"/><path class="cls-3" d="M1.37,39.73a.62.62,0,1,0-1.23,0,.61.61,0,0,0,.62.61A.61.61,0,0,0,1.37,39.73Z"/><path class="cls-3" d="M3,40.86a.62.62,0,0,0-.62-.62.62.62,0,0,0,0,1.24A.62.62,0,0,0,3,40.86Z"/><path class="cls-3" d="M3.05,43.31a.62.62,0,1,0-.62.62A.62.62,0,0,0,3.05,43.31Z"/><path class="cls-3" d="M1.42,42.12a.62.62,0,0,0-1.24,0,.61.61,0,0,0,.62.61A.61.61,0,0,0,1.42,42.12Z"/><path class="cls-3" d="M1.42,44.47a.62.62,0,1,0-.62.62A.62.62,0,0,0,1.42,44.47Z"/><path class="cls-3" d="M3,45.6a.62.62,0,1,0-.62.62A.62.62,0,0,0,3,45.6Z"/><path class="cls-3" d="M3.06,47.5a.62.62,0,0,0-.62-.62.62.62,0,0,0,0,1.24A.62.62,0,0,0,3.06,47.5Z"/><path class="cls-3" d="M1.42,46.54a.62.62,0,0,0-1.24,0,.61.61,0,0,0,.62.61A.61.61,0,0,0,1.42,46.54Z"/><path class="cls-3" d="M1.42,48.46a.62.62,0,1,0-.62.62A.62.62,0,0,0,1.42,48.46Z"/><path class="cls-3" d="M3,49.59a.62.62,0,1,0-.62.62A.61.61,0,0,0,3,49.59Z"/><path class="cls-3" d="M3.09,52a.61.61,0,0,0-.61-.62.62.62,0,1,0,0,1.24A.61.61,0,0,0,3.09,52Z"/><path class="cls-3" d="M1.46,50.85a.62.62,0,0,0-.62-.62.62.62,0,0,0,0,1.24A.62.62,0,0,0,1.46,50.85Z"/><path class="cls-3" d="M1.46,53.2a.61.61,0,0,0-.62-.61.62.62,0,0,0,0,1.23A.62.62,0,0,0,1.46,53.2Z"/><path class="cls-3" d="M3.08,54.34a.62.62,0,1,0-1.24,0,.62.62,0,0,0,1.24,0Z"/><path class="cls-3" d="M3.05,56.61a.62.62,0,1,0-.62.62A.62.62,0,0,0,3.05,56.61Z"/><path class="cls-3" d="M1.42,55.42A.62.62,0,1,0,.8,56,.62.62,0,0,0,1.42,55.42Z"/><path class="cls-3" d="M1.42,57.77a.62.62,0,1,0-.62.62A.62.62,0,0,0,1.42,57.77Z"/><path class="cls-3" d="M3,58.9a.62.62,0,1,0-.62.62A.62.62,0,0,0,3,58.9Z"/><path class="cls-3" d="M3.09,61.35a.61.61,0,0,0-.61-.62.62.62,0,1,0,0,1.24A.61.61,0,0,0,3.09,61.35Z"/><path class="cls-3" d="M1.46,60.16a.62.62,0,0,0-.62-.62.62.62,0,0,0,0,1.24A.62.62,0,0,0,1.46,60.16Z"/><path class="cls-3" d="M1.46,62.51a.61.61,0,0,0-.62-.61.61.61,0,0,0-.61.61.61.61,0,0,0,.61.62A.62.62,0,0,0,1.46,62.51Z"/><path class="cls-3" d="M3.08,63.65a.62.62,0,1,0-.62.61A.62.62,0,0,0,3.08,63.65Z"/><path class="cls-3" d="M3.09,65.65A.61.61,0,0,0,2.48,65a.62.62,0,1,0,0,1.24A.61.61,0,0,0,3.09,65.65Z"/><path class="cls-3" d="M1.46,64.46a.62.62,0,0,0-.62-.62.62.62,0,0,0,0,1.24A.62.62,0,0,0,1.46,64.46Z"/><path class="cls-3" d="M1.46,66.81a.61.61,0,0,0-.62-.61.62.62,0,0,0,0,1.23A.62.62,0,0,0,1.46,66.81Z"/><path class="cls-3" d="M3.08,68a.62.62,0,0,0-1.24,0,.62.62,0,0,0,1.24,0Z"/><path class="cls-3" d="M3.14,70.4a.62.62,0,1,0-.62.61A.62.62,0,0,0,3.14,70.4Z"/><path class="cls-3" d="M1.51,69.2a.61.61,0,0,0-.62-.61.62.62,0,1,0,.62.61Z"/><path class="cls-3" d="M1.51,71.56a.62.62,0,1,0-.62.62A.62.62,0,0,0,1.51,71.56Z"/><path class="cls-3" d="M3.12,72.69a.62.62,0,1,0-.61.62A.61.61,0,0,0,3.12,72.69Z"/><path class="cls-3" d="M3,74.87a.62.62,0,0,0-1.24,0,.62.62,0,0,0,1.24,0Z"/><path class="cls-3" d="M1.37,73.68a.62.62,0,1,0-.61.62A.61.61,0,0,0,1.37,73.68Z"/><path class="cls-3" d="M1.37,76a.61.61,0,0,0-.61-.62.62.62,0,1,0,0,1.23A.61.61,0,0,0,1.37,76Z"/><path class="cls-3" d="M3,77.17a.62.62,0,0,0-.62-.62.62.62,0,0,0,0,1.24A.62.62,0,0,0,3,77.17Z"/><path class="cls-3" d="M-.09,52a.62.62,0,0,0-.62-.62.62.62,0,0,0-.62.62.62.62,0,0,0,.62.62A.62.62,0,0,0-.09,52Z"/><path class="cls-3" d="M-.11,54.34a.62.62,0,0,0-.62-.62.61.61,0,0,0-.61.62A.61.61,0,0,0-.73,55,.61.61,0,0,0-.11,54.34Z"/><path class="cls-3" d="M-.09,61.35a.62.62,0,0,0-.62-.62.62.62,0,0,0-.62.62A.62.62,0,0,0-.71,62,.62.62,0,0,0-.09,61.35Z"/><path class="cls-3" d="M-.11,63.65A.62.62,0,0,0-.73,63a.61.61,0,0,0-.61.62.61.61,0,0,0,.61.61A.61.61,0,0,0-.11,63.65Z"/><path class="cls-3" d="M-.09,65.65A.62.62,0,0,0-.71,65a.62.62,0,0,0-.62.62.62.62,0,0,0,.62.62A.62.62,0,0,0-.09,65.65Z"/><path class="cls-3" d="M-.11,68a.62.62,0,0,0-.62-.62.61.61,0,0,0-.61.62.61.61,0,0,0,.61.61A.61.61,0,0,0-.11,68Z"/><path class="cls-3" d="M0,70.4a.62.62,0,0,0-.62-.62.62.62,0,0,0-.62.62A.61.61,0,0,0-.67,71,.61.61,0,0,0,0,70.4Z"/><path class="cls-3" d="M-.06,72.69a.62.62,0,0,0-.62-.62.62.62,0,0,0-.62.62.62.62,0,0,0,.62.62A.62.62,0,0,0-.06,72.69Z"/><path class="cls-3" d="M4.52,78.5a.62.62,0,1,0-.62.62A.62.62,0,0,0,4.52,78.5Z"/><path class="cls-3" d="M1.33,78.5a.62.62,0,1,0-.62.62A.62.62,0,0,0,1.33,78.5Z"/></g></pattern></defs><g id="Layer_2" data-name="Layer 2"><g id="Layer_1-2" data-name="Layer 1"><g id="Vetor_kronos" data-name="Vetor kronos"><g class="cls-4"><polygon class="cls-5" points="7.41 104.84 160.71 11.7 184.56 2.29 335.18 49.86 353.73 453.6 166.62 464.69 1.64 455.78 7.41 104.84"/><g class="cls-4"><polygon class="cls-6" points="190.66 463.09 184.77 3.19 333.56 50.86 352.64 454.33 190.66 463.09"/></g><polygon class="cls-7" points="160.54 12.7 183.98 3.43 190.52 463.05 164.9 465.23 160.54 12.7"/><g class="cls-4"><polygon class="cls-7" points="7.33 105.93 160.54 12.7 164.9 465.23 0.79 455.96 7.33 105.93"/></g><polygon class="cls-8" points="138 357.28 142.71 371.52 138.55 386.72 116.37 387.81 112.38 373.63 117.1 359.46 127.08 358.42 138 357.28"/><polygon class="cls-9" points="132.19 372.73 127.08 358.42 122.92 373.27 127.46 387.45 132.19 372.73"/><line class="cls-8" x1="112.37" y1="373.64" x2="143.09" y2="371.46"/><polygon class="cls-8" points="108.47 359.95 112.52 373.6 108.67 388.39 89.39 389.79 85.47 375.71 89.36 362.08 98.48 361.06 108.47 359.95"/><polygon class="cls-9" points="103.13 374.84 98.48 361.23 94.66 375.37 98.81 389.23 103.13 374.84"/><line class="cls-8" x1="85.02" y1="375.72" x2="113.1" y2="373.59"/><polygon class="cls-8" points="81.14 362.87 85.43 375.9 81 390.2 63.35 391.66 59.94 378.13 63.52 364.87 71.94 363.92 81.14 362.87"/><polygon class="cls-9" points="76.24 377.07 71.94 363.91 68.42 377.57 72.25 390.61 76.24 377.07"/><line class="cls-8" x1="59.53" y1="377.91" x2="85.43" y2="375.9"/><polygon class="cls-8" points="56.09 365.63 59.94 378.04 55.85 391.87 39.55 392.72 36.5 380 40.1 367.28 47.72 366.34 56.09 365.63"/><polygon class="cls-9" points="51.62 379.18 47.73 366.34 44.54 379.67 47.49 392.4 51.62 379.18"/><line class="cls-8" x1="36.5" y1="380" x2="59.94" y2="378.04"/><polygon class="cls-8" points="33.11 368 36.77 379.86 33.4 392.88 16.97 393.81 14.01 381.72 17.51 369.63 24.91 368.75 33.11 368"/><polygon class="cls-9" points="28.69 380.95 25.8 368.73 21.82 381.41 25.59 393.35 28.69 380.95"/><line class="cls-8" x1="14.01" y1="381.72" x2="36.77" y2="379.86"/><polygon class="cls-8" points="138.4 387.17 142.99 401.52 139.36 417.44 116.06 417.57 112.56 402.62 116.37 388.04 127.41 387.63 138.4 387.17"/><polygon class="cls-9" points="132 402.39 127.41 387.91 122.69 402.6 127.64 417.3 132 402.39"/><line class="cls-8" x1="112.1" y1="402.58" x2="142.99" y2="401.52"/><polygon class="cls-8" points="108.66 388.54 112.83 402.56 108.11 417.32 87.74 417.65 84.57 403.66 89.41 389.97 98.61 389.29 108.66 388.54"/><polygon class="cls-9" points="102.78 403.44 98.61 389.29 94.26 403.66 97.92 417.66 102.78 403.44"/><line class="cls-8" x1="84.57" y1="403.66" x2="112.83" y2="402.56"/><polygon class="cls-8" points="81.15 390.67 84.65 403.86 80.93 417.6 62.71 418.39 59.43 404.95 63.39 392.03 71.87 391.38 81.15 390.67"/><polygon class="cls-9" points="75.71 404.69 72.48 391.29 68.53 404.51 72.35 417.25 75.71 404.69"/><line class="cls-8" x1="58.92" y1="404.91" x2="84.98" y2="403.86"/><polygon class="cls-8" points="55.89 392.21 59.33 405.06 55.99 417.87 39.56 418.21 35.73 406.16 39.53 393.23 47.49 392.67 55.89 392.21"/><polygon class="cls-9" points="50.93 405.9 47.49 392.92 43.81 406.13 47.71 418.65 50.93 405.9"/><line class="cls-8" x1="35.73" y1="406.16" x2="59.33" y2="405.06"/><polygon class="cls-8" points="33.5 393.09 36.01 406.03 32.95 418.68 17.07 419.2 13.1 407.06 16.94 394.08 24.88 393.5 33.5 393.09"/><polygon class="cls-9" points="28.41 406.62 25.63 393.54 22.14 406.07 24.96 419.16 28.41 406.62"/><line class="cls-8" x1="13.1" y1="407.06" x2="36.01" y2="406.03"/><polygon class="cls-8" points="139.44 417.5 143.33 432.07 138.32 446.9 117.24 445.81 112.71 431.55 116.17 417.73 128.37 417.68 139.44 417.5"/><polygon class="cls-9" points="132.26 432.38 127.69 417.39 122.89 432.11 128.03 446.42 132.26 432.38"/><polygon class="cls-8" points="108.06 417.39 112.99 431.57 108.47 446.01 88.5 445.26 84.57 431.24 87.89 417.73 99.39 417.59 108.06 417.39"/><polygon class="cls-9" points="102.86 431.94 97.87 417.63 94.3 431.73 98.28 445.61 102.86 431.94"/><line class="cls-8" x1="84.57" y1="431.23" x2="143.77" y2="431.97"/><polygon class="cls-8" points="80.93 418 84.97 431.45 81.14 445.2 62.8 444.38 58.76 431.18 62.67 418.82 72.44 418.32 80.93 418"/><polygon class="cls-9" points="75.62 431.81 72.44 418.32 67.72 431.63 71.8 444.86 75.62 431.81"/><line class="cls-8" x1="58.75" y1="431.18" x2="84.97" y2="431.45"/><polygon class="cls-8" points="56.03 418.39 59.15 431.35 55.63 444.33 38.54 443.65 35.41 431.24 39.63 418.87 48.25 418.6 56.03 418.39"/><polygon class="cls-9" points="50.69 431.75 47.88 418.62 43.53 431.62 47.18 444.11 50.69 431.75"/><line class="cls-8" x1="35.41" y1="431.24" x2="59.15" y2="431.35"/><polygon class="cls-8" points="32.95 418.76 35.7 431.13 32.88 443.6 15.6 443.06 12.64 430.99 17.22 419.25 24.73 419.02 32.95 418.76"/><polygon class="cls-9" points="28.32 431.16 25.23 419.16 21.32 431.25 24.57 443.29 28.32 431.16"/><line class="cls-8" x1="12.65" y1="430.99" x2="35.7" y2="431.13"/><polyline class="cls-8" points="143 356.37 141.45 37.23 17.69 110.29 15.32 369.64 143 356.37 143.77 447.24"/><line class="cls-9" x1="15.6" y1="443.06" x2="144" y2="447.11"/><g class="cls-4"><path class="cls-5" d="M11.43,457.24l.26,10.08s6.54,6,39.26.28c.27-4.91.27-7.91.27-7.91" transform="translate(0 0)"/><path class="cls-9" d="M11.43,457.24l.26,10.08s6.54,6,39.26.28c.27-4.91.27-7.91.27-7.91" transform="translate(0 0)"/><path class="cls-5" d="M193.25,463.87a118.45,118.45,0,0,1,.27,13.09c-27,7.63-49.61.54-49.61.54V464.69l21,1.82,28.36-2.64" transform="translate(0 0)"/><path class="cls-9" d="M193.25,463.87a118.45,118.45,0,0,1,.27,13.09c-27,7.63-49.61.54-49.61.54V464.69l21,1.82,28.36-2.64" transform="translate(0 0)"/><path class="cls-5" d="M268.49,461.05l.82,9.27s25.9,6.82,46.62-1.36a100.19,100.19,0,0,0-.55-10.63" transform="translate(0 0)"/><path class="cls-9" d="M268.49,461.05l.82,9.27s25.9,6.82,46.62-1.36a100.19,100.19,0,0,0-.55-10.63" transform="translate(0 0)"/><line class="cls-10" x1="213.97" y1="13.24" x2="203.88" y2="461.78"/><line class="cls-11" x1="209.13" y1="461.08" x2="217.97" y2="15.06"/><line class="cls-12" x1="214.06" y1="15.38" x2="217.79" y2="15.38"/><path class="cls-5" d="M214.14,18.29l1.6,2.28s.44.34-.1.68c-.58.68-1.57,2-1.57,2l-.1,2.42s.78,0,1.77-1.67a11,11,0,0,0,1.74-2.49l0-1.7-2.12-2.73s-.65-1-1.12-.92c0,.75-.07,2.12-.07,2.12" transform="translate(0 0)"/><path class="cls-13" d="M214.14,18.29l1.6,2.28s.44.34-.1.68c-.58.68-1.57,2-1.57,2l-.1,2.42s.78,0,1.77-1.67a11,11,0,0,0,1.74-2.49l0-1.7-2.12-2.73s-.65-1-1.12-.92C214.21,16.92,214.14,18.29,214.14,18.29Z" transform="translate(0 0)"/><path class="cls-5" d="M217.22,32.7l-1.6-2.29s-.45-.34.1-.68c.58-.68,1.57-2,1.57-2l.1-2.42s-.79,0-1.77,1.67a11,11,0,0,0-1.74,2.49l0,1.7L216,33.89s.65,1,1.13.92c0-.75.07-2.11.07-2.11" transform="translate(0 0)"/><path class="cls-13" d="M217.22,32.7l-1.6-2.29s-.45-.34.1-.68c.58-.68,1.57-2,1.57-2l.1-2.42s-.79,0-1.77,1.67a11,11,0,0,0-1.74,2.49l0,1.7L216,33.89s.65,1,1.13.92C217.15,34.06,217.22,32.7,217.22,32.7Z" transform="translate(0 0)"/><path class="cls-5" d="M213.73,36.69l1.6,2.28s.44.34-.1.68c-.58.68-1.57,2-1.57,2l-.1,2.42s.78,0,1.77-1.67a11,11,0,0,0,1.74-2.49l0-1.7-2.12-2.73s-.64-1-1.12-.92c0,.75-.07,2.12-.07,2.12" transform="translate(0 0)"/><path class="cls-13" d="M213.73,36.69l1.6,2.28s.44.34-.1.68c-.58.68-1.57,2-1.57,2l-.1,2.42s.78,0,1.77-1.67a11,11,0,0,0,1.74-2.49l0-1.7-2.12-2.73s-.64-1-1.12-.92C213.8,35.32,213.73,36.69,213.73,36.69Z" transform="translate(0 0)"/><path class="cls-5" d="M216.81,51.1l-1.6-2.29s-.45-.34.1-.68c.58-.68,1.57-2,1.57-2l.1-2.42s-.78,0-1.77,1.67a11,11,0,0,0-1.74,2.49l0,1.7,2.12,2.73s.64,1,1.12.92c0-.75.07-2.11.07-2.11" transform="translate(0 0)"/><path class="cls-13" d="M216.81,51.1l-1.6-2.29s-.45-.34.1-.68c.58-.68,1.57-2,1.57-2l.1-2.42s-.78,0-1.77,1.67a11,11,0,0,0-1.74,2.49l0,1.7,2.12,2.73s.64,1,1.12.92C216.74,52.46,216.81,51.1,216.81,51.1Z" transform="translate(0 0)"/><path class="cls-5" d="M213.32,55l1.6,2.28s.45.35-.1.69c-.58.68-1.57,2-1.57,2l-.1,2.42s.78,0,1.77-1.67a11.29,11.29,0,0,0,1.74-2.49l0-1.7-2.12-2.73s-.64-1-1.12-.92c0,.75-.07,2.11-.07,2.11" transform="translate(0 0)"/><path class="cls-13" d="M213.32,55l1.6,2.28s.45.35-.1.69c-.58.68-1.57,2-1.57,2l-.1,2.42s.78,0,1.77-1.67a11.29,11.29,0,0,0,1.74-2.49l0-1.7-2.12-2.73s-.64-1-1.12-.92C213.39,53.59,213.32,55,213.32,55Z" transform="translate(0 0)"/><path class="cls-5" d="M216.4,69.36l-1.6-2.28s-.45-.34.1-.68c.58-.68,1.57-2,1.57-2l.1-2.42s-.78,0-1.77,1.67a11,11,0,0,0-1.74,2.49l0,1.7,2.12,2.73s.64,1,1.12.92c0-.75.07-2.12.07-2.12" transform="translate(0 0)"/><path class="cls-13" d="M216.4,69.36l-1.6-2.28s-.45-.34.1-.68c.58-.68,1.57-2,1.57-2l.1-2.42s-.78,0-1.77,1.67a11,11,0,0,0-1.74,2.49l0,1.7,2.12,2.73s.64,1,1.12.92C216.33,70.73,216.4,69.36,216.4,69.36Z" transform="translate(0 0)"/><path class="cls-5" d="M212.91,73.35l1.6,2.29s.45.34-.1.68c-.58.68-1.57,2-1.57,2l-.1,2.42s.79,0,1.77-1.67a11.29,11.29,0,0,0,1.74-2.49l0-1.7-2.11-2.73s-.65-1-1.13-.92c0,.75-.07,2.11-.07,2.11" transform="translate(0 0)"/><path class="cls-13" d="M212.91,73.35l1.6,2.29s.45.34-.1.68c-.58.68-1.57,2-1.57,2l-.1,2.42s.79,0,1.77-1.67a11.29,11.29,0,0,0,1.74-2.49l0-1.7-2.11-2.73s-.65-1-1.13-.92C213,72,212.91,73.35,212.91,73.35Z" transform="translate(0 0)"/><path class="cls-5" d="M216,87.76l-1.6-2.28s-.44-.34.1-.68c.58-.68,1.57-2,1.57-2l.1-2.42s-.78,0-1.77,1.67a11,11,0,0,0-1.74,2.49l0,1.7L214.8,89s.65,1,1.12.92c0-.75.07-2.12.07-2.12" transform="translate(0 0)"/><path class="cls-13" d="M216,87.76l-1.6-2.28s-.44-.34.1-.68c.58-.68,1.57-2,1.57-2l.1-2.42s-.78,0-1.77,1.67a11,11,0,0,0-1.74,2.49l0,1.7L214.8,89s.65,1,1.12.92C215.92,89.13,216,87.76,216,87.76Z" transform="translate(0 0)"/><path class="cls-5" d="M212.5,92l1.61,2.28s.44.34-.11.68c-.58.68-1.56,2-1.56,2l-.11,2.42s.79,0,1.78-1.67a11,11,0,0,0,1.73-2.49l0-1.7-2.11-2.73s-.65-1-1.13-.92c0,.75-.07,2.12-.07,2.12" transform="translate(0 0)"/><path class="cls-13" d="M212.5,92l1.61,2.28s.44.34-.11.68c-.58.68-1.56,2-1.56,2l-.11,2.42s.79,0,1.78-1.67a11,11,0,0,0,1.73-2.49l0-1.7-2.11-2.73s-.65-1-1.13-.92C212.57,90.66,212.5,92,212.5,92Z" transform="translate(0 0)"/><path class="cls-5" d="M215.58,106.44l-1.6-2.28s-.44-.35.1-.69c.58-.68,1.57-2,1.57-2l.1-2.42s-.78,0-1.77,1.67a11.29,11.29,0,0,0-1.74,2.49l0,1.7,2.11,2.73s.65,1,1.12.92c0-.75.07-2.11.07-2.11" transform="translate(0 0)"/><path class="cls-13" d="M215.58,106.44l-1.6-2.28s-.44-.35.1-.69c.58-.68,1.57-2,1.57-2l.1-2.42s-.78,0-1.77,1.67a11.29,11.29,0,0,0-1.74,2.49l0,1.7,2.11,2.73s.65,1,1.12.92C215.51,107.8,215.58,106.44,215.58,106.44Z" transform="translate(0 0)"/><path class="cls-5" d="M212.09,110.43l1.61,2.28s.44.34-.11.68c-.57.68-1.56,2-1.56,2l-.11,2.42s.79,0,1.78-1.67a11.23,11.23,0,0,0,1.73-2.48l0-1.71-2.11-2.72s-.65-1-1.13-.92c0,.75-.07,2.11-.07,2.11" transform="translate(0 0)"/><path class="cls-13" d="M212.09,110.43l1.61,2.28s.44.34-.11.68c-.57.68-1.56,2-1.56,2l-.11,2.42s.79,0,1.78-1.67a11.23,11.23,0,0,0,1.73-2.48l0-1.71-2.11-2.72s-.65-1-1.13-.92C212.16,109.07,212.09,110.43,212.09,110.43Z" transform="translate(0 0)"/><path class="cls-5" d="M215.17,124.84l-1.6-2.28s-.44-.35.1-.68c.58-.69,1.57-2,1.57-2l.1-2.42s-.78,0-1.77,1.67a11.29,11.29,0,0,0-1.74,2.49l0,1.71L214,126s.65,1,1.12.92c0-.75.07-2.11.07-2.11" transform="translate(0 0)"/><path class="cls-13" d="M215.17,124.84l-1.6-2.28s-.44-.35.1-.68c.58-.69,1.57-2,1.57-2l.1-2.42s-.78,0-1.77,1.67a11.29,11.29,0,0,0-1.74,2.49l0,1.71L214,126s.65,1,1.12.92C215.1,126.2,215.17,124.84,215.17,124.84Z" transform="translate(0 0)"/><path class="cls-5" d="M211.92,128.59l1.61,2.28s.44.34-.11.69c-.58.68-1.56,2-1.56,2l-.11,2.42s.79,0,1.78-1.67a11.35,11.35,0,0,0,1.73-2.49l0-1.7-2.11-2.73s-.65-1-1.13-.92c0,.75-.07,2.11-.07,2.11" transform="translate(0 0)"/><path class="cls-13" d="M211.92,128.59l1.61,2.28s.44.34-.11.69c-.58.68-1.56,2-1.56,2l-.11,2.42s.79,0,1.78-1.67a11.35,11.35,0,0,0,1.73-2.49l0-1.7-2.11-2.73s-.65-1-1.13-.92C212,127.23,211.92,128.59,211.92,128.59Z" transform="translate(0 0)"/><path class="cls-5" d="M215,143l-1.6-2.28s-.44-.34.1-.68c.58-.68,1.57-2,1.57-2l.1-2.42s-.78,0-1.77,1.67a11.17,11.17,0,0,0-1.74,2.48l0,1.71,2.11,2.72s.65,1,1.12.93c0-.76.07-2.12.07-2.12" transform="translate(0 0)"/><path class="cls-13" d="M215,143l-1.6-2.28s-.44-.34.1-.68c.58-.68,1.57-2,1.57-2l.1-2.42s-.78,0-1.77,1.67a11.17,11.17,0,0,0-1.74,2.48l0,1.71,2.11,2.72s.65,1,1.12.93C214.93,144.36,215,143,215,143Z" transform="translate(0 0)"/><path class="cls-5" d="M211.52,147l1.6,2.29s.44.34-.1.68c-.58.68-1.57,2-1.57,2l-.1,2.42s.78,0,1.77-1.67a11,11,0,0,0,1.73-2.49l0-1.7-2.11-2.73s-.65-1-1.13-.92c0,.75-.06,2.11-.06,2.11" transform="translate(0 0)"/><path class="cls-13" d="M211.52,147l1.6,2.29s.44.34-.1.68c-.58.68-1.57,2-1.57,2l-.1,2.42s.78,0,1.77-1.67a11,11,0,0,0,1.73-2.49l0-1.7-2.11-2.73s-.65-1-1.13-.92C211.58,145.63,211.52,147,211.52,147Z" transform="translate(0 0)"/><path class="cls-5" d="M214.59,161.4l-1.6-2.28s-.44-.34.1-.68c.58-.68,1.57-2,1.57-2l.1-2.42s-.78,0-1.77,1.67a11,11,0,0,0-1.74,2.49l0,1.7,2.11,2.73s.65,1,1.13.92c0-.75.06-2.12.06-2.12" transform="translate(0 0)"/><path class="cls-13" d="M214.59,161.4l-1.6-2.28s-.44-.34.1-.68c.58-.68,1.57-2,1.57-2l.1-2.42s-.78,0-1.77,1.67a11,11,0,0,0-1.74,2.49l0,1.7,2.11,2.73s.65,1,1.13.92C214.53,162.77,214.59,161.4,214.59,161.4Z" transform="translate(0 0)"/><path class="cls-5" d="M211.11,165.67l1.6,2.28s.44.34-.1.68c-.58.68-1.57,2-1.57,2l-.1,2.42s.78,0,1.77-1.67a11,11,0,0,0,1.74-2.49l0-1.7-2.11-2.73s-.65-1-1.13-.92c0,.75-.06,2.12-.06,2.12" transform="translate(0 0)"/><path class="cls-13" d="M211.11,165.67l1.6,2.28s.44.34-.1.68c-.58.68-1.57,2-1.57,2l-.1,2.42s.78,0,1.77-1.67a11,11,0,0,0,1.74-2.49l0-1.7-2.11-2.73s-.65-1-1.13-.92C211.17,164.3,211.11,165.67,211.11,165.67Z" transform="translate(0 0)"/><path class="cls-5" d="M214.18,180.08l-1.6-2.29s-.44-.34.1-.68c.58-.68,1.57-2,1.57-2l.1-2.42s-.78,0-1.77,1.67a11.53,11.53,0,0,0-1.74,2.49l0,1.7,2.11,2.73s.65,1,1.13.92c0-.75.06-2.11.06-2.11" transform="translate(0 0)"/><path class="cls-13" d="M214.18,180.08l-1.6-2.29s-.44-.34.1-.68c.58-.68,1.57-2,1.57-2l.1-2.42s-.78,0-1.77,1.67a11.53,11.53,0,0,0-1.74,2.49l0,1.7,2.11,2.73s.65,1,1.13.92C214.12,181.44,214.18,180.08,214.18,180.08Z" transform="translate(0 0)"/><path class="cls-5" d="M210.7,184.07l1.6,2.28s.44.34-.1.68c-.58.68-1.57,2-1.57,2l-.1,2.42s.78,0,1.77-1.67a11.17,11.17,0,0,0,1.74-2.48l0-1.71-2.11-2.72s-.65-1-1.12-.93c0,.76-.07,2.12-.07,2.12" transform="translate(0 0)"/><path class="cls-13" d="M210.7,184.07l1.6,2.28s.44.34-.1.68c-.58.68-1.57,2-1.57,2l-.1,2.42s.78,0,1.77-1.67a11.17,11.17,0,0,0,1.74-2.48l0-1.71-2.11-2.72s-.65-1-1.12-.93C210.77,182.71,210.7,184.07,210.7,184.07Z" transform="translate(0 0)"/><path class="cls-5" d="M213.78,198.48l-1.61-2.28s-.44-.34.11-.69c.57-.68,1.56-2,1.56-2l.11-2.42s-.79,0-1.78,1.67a11.35,11.35,0,0,0-1.73,2.49l0,1.7,2.11,2.73s.65,1,1.13.92c0-.75.07-2.11.07-2.11" transform="translate(0 0)"/><path class="cls-13" d="M213.78,198.48l-1.61-2.28s-.44-.34.11-.69c.57-.68,1.56-2,1.56-2l.11-2.42s-.79,0-1.78,1.67a11.35,11.35,0,0,0-1.73,2.49l0,1.7,2.11,2.73s.65,1,1.13.92C213.71,199.84,213.78,198.48,213.78,198.48Z" transform="translate(0 0)"/><path class="cls-5" d="M210.29,202.33l1.6,2.29s.44.34-.1.68c-.58.68-1.57,2-1.57,2l-.1,2.42s.78,0,1.77-1.67a11.29,11.29,0,0,0,1.74-2.49l0-1.7-2.11-2.73s-.65-1-1.12-.92c0,.75-.07,2.11-.07,2.11" transform="translate(0 0)"/><path class="cls-13" d="M210.29,202.33l1.6,2.29s.44.34-.1.68c-.58.68-1.57,2-1.57,2l-.1,2.42s.78,0,1.77-1.67a11.29,11.29,0,0,0,1.74-2.49l0-1.7-2.11-2.73s-.65-1-1.12-.92C210.36,201,210.29,202.33,210.29,202.33Z" transform="translate(0 0)"/><path class="cls-5" d="M213.37,216.74l-1.61-2.28s-.44-.34.11-.68c.58-.68,1.56-2,1.56-2l.11-2.42s-.79,0-1.78,1.67a11,11,0,0,0-1.73,2.49l0,1.7,2.11,2.73s.65,1,1.13.92c0-.75.07-2.12.07-2.12" transform="translate(0 0)"/><path class="cls-13" d="M213.37,216.74l-1.61-2.28s-.44-.34.11-.68c.58-.68,1.56-2,1.56-2l.11-2.42s-.79,0-1.78,1.67a11,11,0,0,0-1.73,2.49l0,1.7,2.11,2.73s.65,1,1.13.92C213.3,218.11,213.37,216.74,213.37,216.74Z" transform="translate(0 0)"/><path class="cls-5" d="M209.88,220.73l1.6,2.29s.45.34-.1.68c-.58.68-1.57,2-1.57,2l-.1,2.42s.78,0,1.77-1.67a11,11,0,0,0,1.74-2.49l0-1.7-2.12-2.73s-.64-1-1.12-.92c0,.75-.07,2.11-.07,2.11" transform="translate(0 0)"/><path class="cls-13" d="M209.88,220.73l1.6,2.29s.45.34-.1.68c-.58.68-1.57,2-1.57,2l-.1,2.42s.78,0,1.77-1.67a11,11,0,0,0,1.74-2.49l0-1.7-2.12-2.73s-.64-1-1.12-.92C210,219.37,209.88,220.73,209.88,220.73Z" transform="translate(0 0)"/><path class="cls-5" d="M213,235.14l-1.6-2.28s-.45-.34.1-.68c.58-.68,1.57-2,1.57-2l.1-2.42s-.79,0-1.77,1.67a11,11,0,0,0-1.74,2.49l0,1.7,2.12,2.73s.64,1,1.12.92c0-.75.07-2.12.07-2.12" transform="translate(0 0)"/><path class="cls-13" d="M213,235.14l-1.6-2.28s-.45-.34.1-.68c.58-.68,1.57-2,1.57-2l.1-2.42s-.79,0-1.77,1.67a11,11,0,0,0-1.74,2.49l0,1.7,2.12,2.73s.64,1,1.12.92C212.89,236.51,213,235.14,213,235.14Z" transform="translate(0 0)"/><path class="cls-5" d="M209.47,239.41l1.6,2.28s.44.34-.1.68c-.58.68-1.57,2-1.57,2l-.1,2.42s.78,0,1.77-1.67a11,11,0,0,0,1.74-2.49l0-1.7-2.12-2.72s-.64-1-1.12-.93c0,.76-.07,2.12-.07,2.12" transform="translate(0 0)"/><path class="cls-13" d="M209.47,239.41l1.6,2.28s.44.34-.1.68c-.58.68-1.57,2-1.57,2l-.1,2.42s.78,0,1.77-1.67a11,11,0,0,0,1.74-2.49l0-1.7-2.12-2.72s-.64-1-1.12-.93C209.54,238.05,209.47,239.41,209.47,239.41Z" transform="translate(0 0)"/><path class="cls-5" d="M212.55,253.82l-1.6-2.28s-.45-.35.1-.69c.58-.68,1.57-2,1.57-2l.1-2.42s-.78,0-1.77,1.67a11.29,11.29,0,0,0-1.74,2.49l0,1.71,2.12,2.72s.64,1,1.12.92c0-.75.07-2.11.07-2.11" transform="translate(0 0)"/><path class="cls-13" d="M212.55,253.82l-1.6-2.28s-.45-.35.1-.69c.58-.68,1.57-2,1.57-2l.1-2.42s-.78,0-1.77,1.67a11.29,11.29,0,0,0-1.74,2.49l0,1.71,2.12,2.72s.64,1,1.12.92C212.48,255.18,212.55,253.82,212.55,253.82Z" transform="translate(0 0)"/><path class="cls-5" d="M209.06,257.81l1.6,2.28s.45.34-.1.68c-.58.68-1.57,2-1.57,2l-.1,2.41s.79,0,1.77-1.67a11.17,11.17,0,0,0,1.74-2.48l0-1.71-2.12-2.72s-.64-1-1.12-.92c0,.75-.07,2.11-.07,2.11" transform="translate(0 0)"/><path class="cls-13" d="M209.06,257.81l1.6,2.28s.45.34-.1.68c-.58.68-1.57,2-1.57,2l-.1,2.41s.79,0,1.77-1.67a11.17,11.17,0,0,0,1.74-2.48l0-1.71-2.12-2.72s-.64-1-1.12-.92C209.13,256.45,209.06,257.81,209.06,257.81Z" transform="translate(0 0)"/><path class="cls-5" d="M212.14,272.22l-1.6-2.28s-.44-.34.1-.68c.58-.69,1.57-2,1.57-2l.1-2.41s-.78,0-1.77,1.67A11.17,11.17,0,0,0,208.8,269l0,1.71,2.12,2.72s.65,1,1.12.92c0-.75.07-2.11.07-2.11" transform="translate(0 0)"/><path class="cls-13" d="M212.14,272.22l-1.6-2.28s-.44-.34.1-.68c.58-.69,1.57-2,1.57-2l.1-2.41s-.78,0-1.77,1.67A11.17,11.17,0,0,0,208.8,269l0,1.71,2.12,2.72s.65,1,1.12.92C212.07,273.58,212.14,272.22,212.14,272.22Z" transform="translate(0 0)"/><path class="cls-5" d="M208.52,275.94l1.6,2.28s.44.34-.1.68c-.58.68-1.57,2-1.57,2l-.1,2.42s.78,0,1.77-1.67a11.17,11.17,0,0,0,1.74-2.48l0-1.71-2.11-2.72s-.65-1-1.13-.93c0,.75-.06,2.12-.06,2.12" transform="translate(0 0)"/><path class="cls-13" d="M208.52,275.94l1.6,2.28s.44.34-.1.68c-.58.68-1.57,2-1.57,2l-.1,2.42s.78,0,1.77-1.67a11.17,11.17,0,0,0,1.74-2.48l0-1.71-2.11-2.72s-.65-1-1.13-.93C208.58,274.57,208.52,275.94,208.52,275.94Z" transform="translate(0 0)"/><path class="cls-5" d="M211.59,290.35l-1.6-2.29s-.44-.33.1-.68c.58-.68,1.57-2,1.57-2l.1-2.42s-.78,0-1.77,1.67a10.8,10.8,0,0,0-1.73,2.49l0,1.71,2.11,2.72s.65,1,1.13.92c0-.75.06-2.11.06-2.11" transform="translate(0 0)"/><path class="cls-13" d="M211.59,290.35l-1.6-2.29s-.44-.33.1-.68c.58-.68,1.57-2,1.57-2l.1-2.42s-.78,0-1.77,1.67a10.8,10.8,0,0,0-1.73,2.49l0,1.71,2.11,2.72s.65,1,1.13.92C211.53,291.71,211.59,290.35,211.59,290.35Z" transform="translate(0 0)"/><path class="cls-5" d="M208.11,294.34l1.6,2.28s.44.34-.1.68c-.58.69-1.57,2-1.57,2l-.1,2.42s.78,0,1.77-1.67a11.17,11.17,0,0,0,1.74-2.48l0-1.71-2.11-2.72s-.65-1-1.12-.92c0,.75-.07,2.11-.07,2.11" transform="translate(0 0)"/><path class="cls-13" d="M208.11,294.34l1.6,2.28s.44.34-.1.68c-.58.69-1.57,2-1.57,2l-.1,2.42s.78,0,1.77-1.67a11.17,11.17,0,0,0,1.74-2.48l0-1.71-2.11-2.72s-.65-1-1.12-.92C208.18,293,208.11,294.34,208.11,294.34Z" transform="translate(0 0)"/><path class="cls-5" d="M211.19,308.75l-1.61-2.28s-.44-.34.11-.68c.58-.69,1.56-2,1.56-2l.11-2.41s-.79,0-1.78,1.66a11.35,11.35,0,0,0-1.73,2.49l0,1.71,2.11,2.72s.65,1,1.13.92c0-.75.07-2.11.07-2.11" transform="translate(0 0)"/><path class="cls-13" d="M211.19,308.75l-1.61-2.28s-.44-.34.11-.68c.58-.69,1.56-2,1.56-2l.11-2.41s-.79,0-1.78,1.66a11.35,11.35,0,0,0-1.73,2.49l0,1.71,2.11,2.72s.65,1,1.13.92C211.12,310.11,211.19,308.75,211.19,308.75Z" transform="translate(0 0)"/><path class="cls-5" d="M207.7,313l1.6,2.29s.44.34-.1.68c-.58.68-1.57,2-1.57,2l-.1,2.42s.78,0,1.77-1.67a11,11,0,0,0,1.74-2.49l0-1.7-2.11-2.73s-.65-1-1.12-.92c0,.75-.07,2.11-.07,2.11" transform="translate(0 0)"/><path class="cls-13" d="M207.7,313l1.6,2.29s.44.34-.1.68c-.58.68-1.57,2-1.57,2l-.1,2.42s.78,0,1.77-1.67a11,11,0,0,0,1.74-2.49l0-1.7-2.11-2.73s-.65-1-1.12-.92C207.77,311.65,207.7,313,207.7,313Z" transform="translate(0 0)"/><path class="cls-5" d="M210.78,327.42l-1.6-2.28s-.45-.34.1-.68c.58-.68,1.57-2,1.57-2L211,320s-.79,0-1.77,1.67a11,11,0,0,0-1.74,2.49l0,1.7,2.11,2.73s.65,1,1.13.92c0-.75.07-2.12.07-2.12" transform="translate(0 0)"/><path class="cls-13" d="M210.78,327.42l-1.6-2.28s-.45-.34.1-.68c.58-.68,1.57-2,1.57-2L211,320s-.79,0-1.77,1.67a11,11,0,0,0-1.74,2.49l0,1.7,2.11,2.73s.65,1,1.13.92C210.71,328.79,210.78,327.42,210.78,327.42Z" transform="translate(0 0)"/><path class="cls-5" d="M207.29,331.42l1.6,2.28s.44.34-.1.68c-.58.68-1.57,2-1.57,2l-.1,2.42s.78,0,1.77-1.67a11,11,0,0,0,1.74-2.49l0-1.7-2.12-2.73s-.64-1-1.12-.92c0,.75-.07,2.12-.07,2.12" transform="translate(0 0)"/><path class="cls-13" d="M207.29,331.42l1.6,2.28s.44.34-.1.68c-.58.68-1.57,2-1.57,2l-.1,2.42s.78,0,1.77-1.67a11,11,0,0,0,1.74-2.49l0-1.7-2.12-2.73s-.64-1-1.12-.92C207.36,330.05,207.29,331.42,207.29,331.42Z" transform="translate(0 0)"/><path class="cls-5" d="M210.37,345.83l-1.6-2.29s-.45-.34.1-.68c.58-.68,1.57-2,1.57-2l.1-2.42s-.79,0-1.77,1.67a11,11,0,0,0-1.74,2.49l0,1.7,2.12,2.73s.64,1,1.12.92c0-.75.07-2.11.07-2.11" transform="translate(0 0)"/><path class="cls-13" d="M210.37,345.83l-1.6-2.29s-.45-.34.1-.68c.58-.68,1.57-2,1.57-2l.1-2.42s-.79,0-1.77,1.67a11,11,0,0,0-1.74,2.49l0,1.7,2.12,2.73s.64,1,1.12.92C210.3,347.19,210.37,345.83,210.37,345.83Z" transform="translate(0 0)"/><path class="cls-5" d="M206.88,350.09l1.6,2.28s.45.34-.1.68c-.58.68-1.57,2-1.57,2l-.1,2.42s.78,0,1.77-1.67a11.17,11.17,0,0,0,1.74-2.48l0-1.71-2.12-2.72s-.64-1-1.12-.92c0,.74-.07,2.11-.07,2.11" transform="translate(0 0)"/><path class="cls-13" d="M206.88,350.09l1.6,2.28s.45.34-.1.68c-.58.68-1.57,2-1.57,2l-.1,2.42s.78,0,1.77-1.67a11.17,11.17,0,0,0,1.74-2.48l0-1.71-2.12-2.72s-.64-1-1.12-.92C207,348.72,206.88,350.09,206.88,350.09Z" transform="translate(0 0)"/><path class="cls-5" d="M210,364.5l-1.6-2.28s-.44-.34.1-.69c.58-.68,1.57-2,1.57-2l.1-2.41s-.78,0-1.77,1.67a11.17,11.17,0,0,0-1.74,2.48l0,1.71,2.12,2.72s.64,1,1.12.92c0-.75.07-2.11.07-2.11" transform="translate(0 0)"/><path class="cls-13" d="M210,364.5l-1.6-2.28s-.44-.34.1-.69c.58-.68,1.57-2,1.57-2l.1-2.41s-.78,0-1.77,1.67a11.17,11.17,0,0,0-1.74,2.48l0,1.71,2.12,2.72s.64,1,1.12.92C209.89,365.86,210,364.5,210,364.5Z" transform="translate(0 0)"/><path class="cls-5" d="M206.47,368.49l1.6,2.28s.45.34-.1.68c-.58.69-1.57,2-1.57,2l-.1,2.42s.79,0,1.77-1.67a11.17,11.17,0,0,0,1.74-2.48l0-1.71-2.12-2.72s-.64-1-1.12-.92c0,.75-.07,2.11-.07,2.11" transform="translate(0 0)"/><path class="cls-13" d="M206.47,368.49l1.6,2.28s.45.34-.1.68c-.58.69-1.57,2-1.57,2l-.1,2.42s.79,0,1.77-1.67a11.17,11.17,0,0,0,1.74-2.48l0-1.71-2.12-2.72s-.64-1-1.12-.92C206.54,367.13,206.47,368.49,206.47,368.49Z" transform="translate(0 0)"/><path class="cls-5" d="M209.55,382.9l-1.6-2.28s-.44-.34.1-.68c.58-.69,1.57-2,1.57-2l.1-2.41s-.78,0-1.77,1.67a11.17,11.17,0,0,0-1.74,2.48l0,1.71,2.12,2.72s.64,1,1.12.92c0-.75.07-2.11.07-2.11" transform="translate(0 0)"/><path class="cls-13" d="M209.55,382.9l-1.6-2.28s-.44-.34.1-.68c.58-.69,1.57-2,1.57-2l.1-2.41s-.78,0-1.77,1.67a11.17,11.17,0,0,0-1.74,2.48l0,1.71,2.12,2.72s.64,1,1.12.92C209.48,384.26,209.55,382.9,209.55,382.9Z" transform="translate(0 0)"/><path class="cls-5" d="M206.06,387.16l1.6,2.29s.45.34-.1.68c-.58.68-1.56,2-1.56,2l-.11,2.42s.79,0,1.77-1.67a11,11,0,0,0,1.74-2.49l0-1.7L207.26,386s-.65-1-1.13-.92c0,.75-.07,2.11-.07,2.11" transform="translate(0 0)"/><path class="cls-13" d="M206.06,387.16l1.6,2.29s.45.34-.1.68c-.58.68-1.56,2-1.56,2l-.11,2.42s.79,0,1.77-1.67a11,11,0,0,0,1.74-2.49l0-1.7L207.26,386s-.65-1-1.13-.92C206.13,385.8,206.06,387.16,206.06,387.16Z" transform="translate(0 0)"/><path class="cls-5" d="M209.14,401.58l-1.6-2.29s-.44-.34.1-.68c.58-.68,1.57-2,1.57-2l.1-2.42s-.78,0-1.77,1.67a11,11,0,0,0-1.74,2.49l0,1.7,2.11,2.73s.65,1,1.12.92c0-.75.07-2.11.07-2.11" transform="translate(0 0)"/><path class="cls-13" d="M209.14,401.58l-1.6-2.29s-.44-.34.1-.68c.58-.68,1.57-2,1.57-2l.1-2.42s-.78,0-1.77,1.67a11,11,0,0,0-1.74,2.49l0,1.7,2.11,2.73s.65,1,1.12.92C209.07,402.94,209.14,401.58,209.14,401.58Z" transform="translate(0 0)"/><path class="cls-5" d="M205.65,405.57l1.61,2.28s.44.34-.11.68c-.58.68-1.56,2-1.56,2l-.11,2.42s.79,0,1.78-1.67A11,11,0,0,0,209,408.8l0-1.7-2.11-2.73s-.65-1-1.13-.92c0,.75-.07,2.12-.07,2.12" transform="translate(0 0)"/><path class="cls-13" d="M205.65,405.57l1.61,2.28s.44.34-.11.68c-.58.68-1.56,2-1.56,2l-.11,2.42s.79,0,1.78-1.67A11,11,0,0,0,209,408.8l0-1.7-2.11-2.73s-.65-1-1.13-.92C205.72,404.2,205.65,405.57,205.65,405.57Z" transform="translate(0 0)"/><path class="cls-5" d="M208.73,420l-1.6-2.29s-.44-.34.1-.68c.58-.68,1.57-2,1.57-2l.1-2.42s-.78,0-1.77,1.67a11,11,0,0,0-1.74,2.49l0,1.7,2.11,2.73s.65,1,1.12.92c0-.75.07-2.11.07-2.11" transform="translate(0 0)"/><path class="cls-13" d="M208.73,420l-1.6-2.29s-.44-.34.1-.68c.58-.68,1.57-2,1.57-2l.1-2.42s-.78,0-1.77,1.67a11,11,0,0,0-1.74,2.49l0,1.7,2.11,2.73s.65,1,1.12.92C208.66,421.34,208.73,420,208.73,420Z" transform="translate(0 0)"/><path class="cls-5" d="M205.25,423.15l1.6,2.28s.44.34-.1.68c-.58.68-1.57,2-1.57,2l-.1,2.42s.78,0,1.77-1.67a11.75,11.75,0,0,0,1.74-2.48l0-1.71L206.44,422s-.65-1-1.13-.92c0,.75-.06,2.11-.06,2.11" transform="translate(0 0)"/><path class="cls-13" d="M205.25,423.15l1.6,2.28s.44.34-.1.68c-.58.68-1.57,2-1.57,2l-.1,2.42s.78,0,1.77-1.67a11.75,11.75,0,0,0,1.74-2.48l0-1.71L206.44,422s-.65-1-1.13-.92C205.31,421.79,205.25,423.15,205.25,423.15Z" transform="translate(0 0)"/><path class="cls-5" d="M208.32,437.56l-1.6-2.28s-.44-.34.1-.68c.58-.69,1.57-2,1.57-2l.1-2.42s-.78,0-1.77,1.67a11.29,11.29,0,0,0-1.74,2.49l0,1.71,2.11,2.72s.65,1,1.13.92c0-.75.06-2.11.06-2.11" transform="translate(0 0)"/><path class="cls-13" d="M208.32,437.56l-1.6-2.28s-.44-.34.1-.68c.58-.69,1.57-2,1.57-2l.1-2.42s-.78,0-1.77,1.67a11.29,11.29,0,0,0-1.74,2.49l0,1.71,2.11,2.72s.65,1,1.13.92C208.26,438.92,208.32,437.56,208.32,437.56Z" transform="translate(0 0)"/><path class="cls-5" d="M204.84,441.55l1.6,2.28s.44.34-.1.68c-.58.69-1.57,2-1.57,2l-.1,2.41s.78,0,1.77-1.66a11.88,11.88,0,0,0,1.74-2.49l0-1.71L206,440.36s-.65-1-1.13-.92c0,.75-.06,2.11-.06,2.11" transform="translate(0 0)"/><path class="cls-13" d="M204.84,441.55l1.6,2.28s.44.34-.1.68c-.58.69-1.57,2-1.57,2l-.1,2.41s.78,0,1.77-1.66a11.88,11.88,0,0,0,1.74-2.49l0-1.71L206,440.36s-.65-1-1.13-.92C204.9,440.19,204.84,441.55,204.84,441.55Z" transform="translate(0 0)"/><path class="cls-5" d="M207.91,456l-1.6-2.28s-.44-.34.1-.68c.58-.69,1.57-2,1.57-2l.1-2.41s-.78,0-1.77,1.67a11.17,11.17,0,0,0-1.74,2.48l0,1.71,2.11,2.72s.65,1,1.13.92c0-.75.06-2.11.06-2.11" transform="translate(0 0)"/><path class="cls-13" d="M207.91,456l-1.6-2.28s-.44-.34.1-.68c.58-.69,1.57-2,1.57-2l.1-2.41s-.78,0-1.77,1.67a11.17,11.17,0,0,0-1.74,2.48l0,1.71,2.11,2.72s.65,1,1.13.92C207.85,457.32,207.91,456,207.91,456Z" transform="translate(0 0)"/><line class="cls-5" x1="164.08" y1="11.7" x2="168.62" y2="464.23"/><line class="cls-14" x1="164.08" y1="11.7" x2="168.62" y2="464.23"/><line class="cls-5" x1="169.5" y1="464.35" x2="165.4" y2="11.24"/><line class="cls-14" x1="169.5" y1="464.35" x2="165.4" y2="11.24"/><line class="cls-5" x1="171.85" y1="463.94" x2="167.9" y2="9.56"/><line class="cls-14" x1="171.85" y1="463.94" x2="167.9" y2="9.56"/><line class="cls-5" x1="173.49" y1="465.16" x2="169.49" y2="9.02"/><line class="cls-14" x1="173.49" y1="465.16" x2="169.49" y2="9.02"/><line class="cls-5" x1="175.67" y1="464.35" x2="171.67" y2="8.06"/><line class="cls-14" x1="175.67" y1="464.35" x2="171.67" y2="8.06"/><line class="cls-5" x1="177.3" y1="464.11" x2="173.3" y2="7.93"/><line class="cls-14" x1="177.3" y1="464.11" x2="173.3" y2="7.93"/><line class="cls-5" x1="179.48" y1="464.04" x2="175.49" y2="6.84"/><line class="cls-14" x1="179.48" y1="464.04" x2="175.49" y2="6.84"/><line class="cls-5" x1="181.12" y1="463.77" x2="177.12" y2="6.29"/><line class="cls-14" x1="181.12" y1="463.77" x2="177.12" y2="6.29"/><polygon class="cls-15" points="273.99 437.94 275.63 427.9 279.21 427.72 277.56 437.77 273.99 437.94"/><path class="cls-15" d="M282.72,426.73,272,427.3l.52-3.22c.06-.33.14-.54.45-.55l12.69-.59Z" transform="translate(0 0)"/><path class="cls-15" d="M269.63,438.16l-9.44.46,1.6-10.21,3.33-.16-1,6.58,5-.25-3.22-7.1-4,.2.57-3.63,4.49-.22a1.89,1.89,0,0,1,2,1.24c.47.95.95,1.9,1.43,2.83a40.43,40.43,0,0,1,1.79,4,7,7,0,0,1,.73,3.15,3.85,3.85,0,0,1-1.16,2.16A3.23,3.23,0,0,1,269.63,438.16Z" transform="translate(0 0)"/><path class="cls-15" d="M283.46,426.81l3.29-3.95,6.58-.33a1.15,1.15,0,0,1,1,.59,1.48,1.48,0,0,1,.15,1.26l-.47,1.84Zm6.31,10.36-7.49.37-1.22-3.35,6.8-.38L285.47,430l2.86-2.73,4.53-.25L290,429.75c.54.88,1.1,1.76,1.65,2.64a3.06,3.06,0,0,1,.49,1.9l-.27,1.09a2.68,2.68,0,0,1-.83,1.32A1.77,1.77,0,0,1,289.77,437.17Z" transform="translate(0 0)"/><polygon class="cls-15" points="281.54 438.29 284.84 438.13 284.58 440.67 281.28 440.83 281.54 438.29"/><polygon class="cls-15" points="285.29 438.12 287.62 438.01 287.35 440.56 285.02 440.67 285.29 438.12"/><polygon class="cls-15" points="288.01 438 289.77 437.91 289.48 440.46 287.72 440.55 288.01 438"/><path class="cls-15" d="M290.15,437.88l1.3-.06s0,0,0,0l-.32,2.51,0,0-1.28.06h0Z" transform="translate(0 0)"/><polygon class="cls-15" points="291.93 437.81 292.81 437.76 292.44 440.31 291.55 440.36 291.93 437.81"/><polygon class="cls-15" points="293.25 437.74 293.84 437.71 293.49 440.26 292.9 440.29 293.25 437.74"/><path class="cls-15" d="M263.32,439.18h0l-.09.68h0l-2.42.11,0,.23,2.42-.12h0l-.21,1.61h0l-3.24.16h0l.09-.68h0l2.43-.12,0-.23-2.43.12h0l.22-1.6s0,0,0,0Zm.27,0-.34,2.52h0l.82,0h0l.12-.91,2.42-.12h0l.21-1.6h0l-3.24.16Zm.72.88,0-.24,1.6-.08,0,.24Zm6.07-1.22s0,0,0,0l-.33,2.52h0l-3.24.16s0,0,0,0l.34-2.52v0Zm-2.68,2,1.61-.08.15-1.16-1.6.08Zm2.94-2-.34,2.53h0l.8,0h0l.12-.9.67.38.83.45.8,0h0l0-.32-1-.54h0l1.06,0,0,0,.21-1.6h0l-3.24.16Zm.71.88,0-.23,1.6-.08,0,.23Zm3.92-.41-1.18.06h0l.09-.69a0,0,0,0,1,0,0l3.25-.16h0l-.1.69h0l-1.18.06-.25,1.82h0l-.85.05h0Zm5.68-1-3.24.16h0l-.21,1.6s0,0,0,0l2.43-.12,0,.23-2.43.12h0l-.09.67s0,0,0,0l3.24-.16h0l.22-1.6h0l-2.43.12,0-.23,2.43-.12h0l.09-.67Z" transform="translate(0 0)"/><polygon class="cls-16" points="190.93 463.51 204.51 462.69 214.96 12.36 184.06 2.78 190.93 463.51"/><polygon class="cls-17" points="203.33 460.87 191.29 461.14 186.41 4.25 212.92 13.11 203.33 460.87"/><polygon class="cls-18" points="203.33 460.87 191.29 461.14 186.41 4.25 212.92 13.11 203.33 460.87"/><polyline class="cls-19" points="164.57 11.83 164.62 19.83 165.44 19.6"/><polyline class="cls-19" points="168.53 10.27 168.57 18.26 169.39 18.04"/><polyline class="cls-19" points="172.45 8.73 172.49 16.73 173.31 16.5"/><polyline class="cls-19" points="176.23 7.27 176.27 15.26 177.09 15.04"/></g></g></g></g></g></svg>