<svg xmlns="http://www.w3.org/2000/svg" viewBox="0 0 613.57 365.16"><defs><style>.cls-1,.cls-4,.cls-5{fill:#fff;}.cls-2,.cls-3{fill:none;}.cls-2,.cls-3,.cls-4,.cls-5{stroke:#000;stroke-miterlimit:10;}.cls-2{stroke-width:0.94px;}.cls-3,.cls-5{stroke-width:0.75px;}.cls-4{stroke-width:2px;}</style></defs><title>Almogadas gaming </title><g id="Camada_2" data-name="Camada 2"><g id="Camada_1-2" data-name="Camada 1"><rect class="cls-1" x="69.73" y="1" width="542.84" height="280.37" rx="24.27" ry="24.27"/><path d="M588.3,2a23.3,23.3,0,0,1,23.27,23.27V257.1a23.3,23.3,0,0,1-23.27,23.27H94A23.31,23.31,0,0,1,70.73,257.1V25.27A23.31,23.31,0,0,1,94,2H588.3m0-2H94A25.29,25.29,0,0,0,68.73,25.27V257.1A25.27,25.27,0,0,0,94,282.37H588.3a25.27,25.27,0,0,0,25.27-25.27h0V25.27A25.27,25.27,0,0,0,588.3,0Z"/><polygon class="cls-2" points="320.16 167.66 331.3 119.7 350.14 119.7 339 167.66 320.16 167.66 320.16 167.66"/><path class="cls-2" d="M368.86,115.74l-56.55.26,3.56-15.39c.37-1.6.84-2.55,2.5-2.54l66.87.13Z"/><path class="cls-2" d="M297.2,167.67H247.41l10.93-48.73h17.6l-7,31.39h26.49l-15.15-34.91H259.12L263,98.08h23.65q7.43,0,10.14,6.48,3.36,7,6.84,13.92a202.31,202.31,0,0,1,8.44,19.42q4,10.89,3,15.32a18,18,0,0,1-6.64,10.14A17.65,17.65,0,0,1,297.2,167.67Z"/><path class="cls-2" d="M372.7,116.33,391,98.07h34.71a6.06,6.06,0,0,1,5.22,3.07c1.11,1.63,1.26,3.66.44,6.11l-2.9,8.74-55.77.34Zm30.67,51.34H363.85l-5.59-16.39,35.87-.22-11.6-18.88,15.68-12.51,23.88-.14L406.3,132c2.63,4.36,5.32,8.72,8,13.1q3.09,6.31,2.11,9.23l-1.72,5.17a12.63,12.63,0,0,1-4.65,6.17A10,10,0,0,1,403.37,167.67Z"/><polygon class="cls-2" points="359.78 171.08 377.18 171.08 375.21 183.27 357.82 183.27 359.78 171.08"/><polygon class="cls-2" points="379.56 171.18 391.84 171.18 389.78 183.37 377.5 183.37 379.56 171.18"/><polygon class="cls-2" points="393.9 171.22 403.17 171.22 401.04 183.41 391.76 183.41 393.9 171.22"/><path class="cls-2" d="M405.19,171.18H412s.07,0,.07.06v0l-2.31,12a.1.1,0,0,1-.1.08h-6.74a.06.06,0,0,1-.06-.06v0Z"/><polygon class="cls-2" points="414.53 171.22 419.2 171.22 416.61 183.41 411.94 183.41 414.53 171.22"/><polygon class="cls-2" points="421.54 171.22 424.63 171.22 422.15 183.41 419.06 183.41 421.54 171.22"/><path class="cls-2" d="M263.77,171.1s.06,0,.05.05l-.64,3.21a.07.07,0,0,1-.07.06H250.33l-.22,1.07h12.83s.06,0,.05.07l-1.52,7.65H244.25l.64-3.21a.09.09,0,0,1,.07-.06h12.78l.22-1.09H245.13s-.06,0-.06,0l1.53-7.65s0-.06.07-.05h17.1Zm1.41.05-2.4,12.06h4.4l.87-4.36h12.76s.07,0,.07,0l1.53-7.65a.05.05,0,0,0-.06-.05h-17.1a.08.08,0,0,0-.07.05Zm3.55,4.38.22-1.11h8.43l-.23,1.11Zm32.21-4.43a0,0,0,0,1,.05.06l-2.4,12.05H281.36l2.4-12.05s0-.06.08-.06Zm-14.55,8.84h8.47l1.1-5.52h-8.47Zm16-8.79-2.45,12.06h4.38l.85-4.28c.09,0,1.25.68,3.47,2,2.76,1.58,4.18,2.37,4.24,2.37h4.28l.31-1.52c-.11-.1-1.8-1-5.09-2.81h5.56s.07,0,.07-.05l1.52-7.65a0,0,0,0,0,0-.05h-17.1s-.06,0-.07.05h0Zm3.51,4.38.22-1.11h8.44l-.22,1.11Zm20.69-1h-6.25s-.06,0-.06-.05l.66-3.3a.07.07,0,0,1,.08-.05h17.09s.06,0,.05.05l-.66,3.3a.05.05,0,0,1-.06.05h-6.26l-1.73,8.71h-4.63l1.73-8.71Zm30.14-3.4h-17.1s-.06,0-.07.05h0L338,178.83a0,0,0,0,0,0,0h12.78l-.22,1.09H337.83a.09.09,0,0,0-.07.06l-.64,3.21h17.22l1.53-7.65s0-.06-.05-.07H343l.22-1.07H356s.07,0,.07-.06l.64-3.21s0-.08-.05-.08Z"/><path class="cls-3" d="M557.44,1s-17.5,253.17-63.5,280.17"/><path class="cls-3" d="M129.94,2s17.5,253.17,63.5,280.17"/><path class="cls-4" d="M30.94,203.37C32.94,220.62-.9,294.23,1.09,332s43.48,40.18,80.25,17.91c47.08-28.52,156.51-27.19,156.51-27.19h-.08s109.42-1.33,156.51,27.19c36.77,22.27,78.25,19.89,80.24-17.91s-31.84-111.36-29.85-128.66v.3c-2-17.24,31.83-90.86,29.84-128.66S431,34.84,394.27,57.1C347.18,85.67,237.76,84.29,237.76,84.29h.08S128.41,85.67,81.33,57.1C44.56,34.84,3.07,37.21,1.08,75S32.94,186.43,30.94,203.67"/><polygon class="cls-2" points="220.95 229.12 231.35 184.31 248.95 184.31 238.55 229.12 220.95 229.12 220.95 229.12"/><path class="cls-2" d="M266.44,180.61l-52.83.24,3.33-14.38c.34-1.49.79-2.38,2.33-2.37l62.47.13Z"/><path class="cls-2" d="M199.5,229.12H152.94l10.21-45.53h16.44L173,212.92h24.74l-14.11-32.61h-19.7l3.63-16.21h22.09q6.93,0,9.48,6.06c2.09,4.37,4.2,8.7,6.38,13a188,188,0,0,1,7.88,18.15c2.52,6.77,3.45,11.54,2.83,14.31a16.82,16.82,0,0,1-6.2,9.47A16.49,16.49,0,0,1,199.5,229.12Z"/><path class="cls-2" d="M270,181.16l17.09-17.06h32.43a5.66,5.66,0,0,1,4.88,2.87q1.56,2.28.41,5.71l-2.71,8.16Zm28.65,48H261.76l-5.22-15.31,33.51-.21L279.21,196l14.65-11.66,22.31-.14-14.75,11.66c2.46,4.07,5,8.14,7.49,12.23q2.88,5.91,2,8.63l-1.61,4.83a11.87,11.87,0,0,1-4.34,5.77,9.39,9.39,0,0,1-6.28,1.8Z"/><polygon class="cls-2" points="257.96 232.31 274.21 232.31 272.38 243.7 256.13 243.7 257.96 232.31"/><polygon class="cls-2" points="276.44 232.4 287.91 232.4 285.98 243.79 274.51 243.79 276.44 232.4"/><polygon class="cls-2" points="289.83 232.44 298.5 232.44 296.5 243.83 287.84 243.83 289.83 232.44"/><path class="cls-2" d="M300.38,232.4h6.39a.07.07,0,0,1,.07.06h0l-2.16,11.2a.11.11,0,0,1-.09.08h-6.32s-.06,0-.06-.08Z"/><polygon class="cls-2" points="309.11 232.44 313.47 232.44 311.05 243.83 306.69 243.83 309.11 232.44"/><polygon class="cls-2" points="315.66 232.44 318.54 232.44 316.22 243.83 313.34 243.83 315.66 232.44"/><path class="cls-2" d="M168.27,232.32a0,0,0,0,1,0,.05l-.6,3s0,0-.07,0H155.71l-.2,1h11.94a.05.05,0,0,1,.05.06l-1.43,7.19H150l.6-3a.08.08,0,0,1,.07,0h11.94l.2-1h-12l1.42-7.15s0-.05.07-.05Zm1.32.05-2.25,11.3h4.12l.81-4.07H184.2a.06.06,0,0,0,.06,0l1.43-7.15-.05,0h-16a.06.06,0,0,0-.06,0Zm3.31,4.1.21-1h7.83l-.21,1ZM203,232.32a.05.05,0,0,1,0,.06l-2.25,11.29H184.68l2.26-11.29a.09.09,0,0,1,.07-.06Zm-13.59,8.27h7.91l1-5.16H190.4Zm14.91-8.22-2.25,11.3h4.12l.79-4a36.81,36.81,0,0,1,3.24,1.83c2.58,1.47,3.92,2.2,4,2.21h4l.29-1.42q-.15-.15-4.75-2.62h5.19a.08.08,0,0,0,.07,0l1.42-7.15v-.05h-16a.08.08,0,0,0-.07.05Zm3.27,4.1.21-1h7.89l-.21,1Zm19.34-1h-5.86l.62-3.09a.08.08,0,0,1,.07,0h16s.05,0,0,0l-.61,3.09h-5.9l-1.62,8.2H225.3l1.62-8.13Zm28.15-3.19h-16s0,0-.07.05l-1.42,7.15h12l-.2,1H237.45a.06.06,0,0,0-.06.05l-.6,3h16.07l1.42-7.15v-.06h-12l.2-1h12a.06.06,0,0,0,.06,0l.6-3s0,.06-.05,0Z"/><path class="cls-5" d="M414.26,47.57s-21.32,130.1-23.32,156.1,7.71,148.79,7.71,148.79"/><path class="cls-3" d="M61.67,47.57s21.27,130.1,23.27,156.1-7.71,148.79-7.71,148.79"/></g></g></svg>