<?xml version="1.0" encoding="utf-8"?>
<!-- Generator: Adobe Illustrator 23.0.1, SVG Export Plug-In . SVG Version: 6.00 Build 0)  -->
<svg version="1.1" id="Camada_1" xmlns="http://www.w3.org/2000/svg" xmlns:xlink="http://www.w3.org/1999/xlink" x="0px" y="0px"
	 viewBox="0 0 600 600" style="enable-background:new 0 0 600 600;" xml:space="preserve">
<style type="text/css">
	.st0{fill:#E8E7E7;}
	.st1{fill:#E7E6E6;}
	.st2{fill:#FFFFFF;}
	.st3{fill:#D3D3D3;}
	.st4{fill:none;stroke:#020203;stroke-width:0.96;stroke-miterlimit:10;}
	.st5{fill:none;stroke:#020203;stroke-width:0.48;stroke-miterlimit:10;}
	.st6{fill:none;stroke:#020203;stroke-width:0.91;stroke-miterlimit:10;}
	.st7{fill:none;stroke:#020203;stroke-width:0.79;stroke-miterlimit:10;}
	.st8{fill:none;stroke:#020203;stroke-width:0.5;stroke-miterlimit:10;}
	.st9{fill:#FFFFFF;stroke:#020203;stroke-width:0.48;stroke-miterlimit:10;}
	.st10{fill:#F2F2F2;stroke:#020203;stroke-width:0.96;stroke-miterlimit:10;}
	.st11{fill:none;stroke:#020203;stroke-width:1.01;stroke-miterlimit:10;}
	.st12{fill:none;stroke:#020203;stroke-miterlimit:10;}
	.st13{fill:none;stroke:#020203;stroke-width:0.53;stroke-miterlimit:10;}
	.st14{fill:none;stroke:#020203;stroke-width:0.75;stroke-miterlimit:10;}
	.st15{fill:none;stroke:#020203;stroke-width:0.71;stroke-miterlimit:10;}
	.st16{fill:none;stroke:#B5241F;stroke-width:1.42;stroke-miterlimit:10;}
	.st17{fill:none;stroke:#B5241F;stroke-width:1.8;stroke-miterlimit:10;}
	.st18{fill:none;stroke:#B5241F;stroke-width:1.38;stroke-miterlimit:10;}
	.st19{fill:none;stroke:#B5241F;stroke-width:1.22;stroke-miterlimit:10;}
	.st20{fill:#B5241F;}
	.st21{fill:none;stroke:#B5241F;stroke-width:1.37;stroke-miterlimit:10;}
	.st22{fill:none;stroke:#B5241F;stroke-width:1.39;stroke-miterlimit:10;}
	.st23{fill:none;stroke:#B5241F;stroke-width:1.28;stroke-miterlimit:10;}
	.st24{fill:none;stroke:#B5241F;stroke-width:1.33;stroke-miterlimit:10;}
	.st25{fill:none;stroke:#B5241F;stroke-width:1.46;stroke-miterlimit:10;}
	.st26{fill:none;stroke:#B5241F;stroke-width:1.29;stroke-miterlimit:10;}
	.st27{fill:none;stroke:#020203;stroke-width:0.42;stroke-miterlimit:10;}
	.st28{fill:none;stroke:#020203;stroke-width:0.95;stroke-miterlimit:10;}
	.st29{fill:none;stroke:#020203;stroke-width:0.83;stroke-miterlimit:10;}
	.st30{fill:none;stroke:#020203;stroke-width:0.52;stroke-miterlimit:10;}
	.st31{fill:none;stroke:#B5241F;stroke-width:1.53;stroke-miterlimit:10;}
	.st32{fill:none;stroke:#B5241F;stroke-width:1.5;stroke-miterlimit:10;}
	.st33{fill:none;stroke:#B5241F;stroke-width:1.51;stroke-miterlimit:10;}
	.st34{fill:none;stroke:#B5241F;stroke-width:1.6;stroke-miterlimit:10;}
	.st35{fill:none;stroke:#D41F19;stroke-width:1.3689;stroke-miterlimit:10;}
	.st36{fill:none;stroke:#D41F19;stroke-width:2.0559;stroke-miterlimit:10;}
	.st37{fill:#D41F19;}
	.st38{fill:none;stroke:#D41F19;stroke-width:1.3723;stroke-miterlimit:10;}
	.st39{fill:none;stroke:#D41F19;stroke-width:1.4294;stroke-miterlimit:10;}
	.st40{fill:none;stroke:#D41F19;stroke-width:1.8389;stroke-miterlimit:10;}
	.st41{fill:none;stroke:#D41F19;stroke-width:1.4538;stroke-miterlimit:10;}
	.st42{fill:none;stroke:#000000;stroke-width:0.5;stroke-miterlimit:10;}
	.st43{fill:none;stroke:#000000;stroke-miterlimit:10;}
	.st44{fill:none;stroke:#000000;stroke-width:0.4155;stroke-miterlimit:10;}
	.st45{fill:none;stroke:#000000;stroke-width:0.9506;stroke-miterlimit:10;}
	.st46{fill:none;stroke:#000000;stroke-width:0.827;stroke-miterlimit:10;}
	.st47{fill:none;stroke:#000000;stroke-width:0.5195;stroke-miterlimit:10;}
	.st48{fill:none;stroke:#000000;stroke-width:0.4172;stroke-miterlimit:10;}
	.st49{fill:none;stroke:#000000;stroke-width:0.419;stroke-miterlimit:10;}
	.st50{fill:none;stroke:#D41F19;stroke-width:1.4161;stroke-miterlimit:10;}
	.st51{fill:none;stroke:#D41F19;stroke-width:1.7984;stroke-miterlimit:10;}
	.st52{fill:none;stroke:#D41F19;stroke-width:1.2223;stroke-miterlimit:10;}
	.st53{fill:none;stroke:#D41F19;stroke-width:1.359;stroke-miterlimit:10;}
	.st54{fill:none;stroke:#D41F19;stroke-width:1.3456;stroke-miterlimit:10;}
	.st55{fill:none;stroke:#D41F19;stroke-width:1.1098;stroke-miterlimit:10;}
	.st56{fill:none;stroke:#D41F19;stroke-width:1.3365;stroke-miterlimit:10;}
	.st57{fill:none;stroke:#D41F19;stroke-width:1.3941;stroke-miterlimit:10;}
	.st58{fill:none;stroke:#D41F19;stroke-width:1.4643;stroke-miterlimit:10;}
	.st59{fill:none;stroke:#D41F19;stroke-width:1.3019;stroke-miterlimit:10;}
	.st60{fill:none;stroke:#D41F19;stroke-width:1.2895;stroke-miterlimit:10;}
	.st61{fill:none;stroke:#000000;stroke-width:0.96;stroke-miterlimit:10;}
	.st62{fill:none;stroke:#000000;stroke-width:0.48;stroke-miterlimit:10;}
	.st63{fill:none;stroke:#000000;stroke-width:0.9126;stroke-miterlimit:10;}
	.st64{fill:none;stroke:#000000;stroke-width:0.7939;stroke-miterlimit:10;}
	.st65{fill:none;stroke:#000000;stroke-width:0.4988;stroke-miterlimit:10;}
	.st66{fill:#FFFFFF;stroke:#000000;stroke-width:0.48;stroke-miterlimit:10;}
	.st67{fill:#F3F2F2;stroke:#000000;stroke-width:0.96;stroke-miterlimit:10;}
	.st68{fill:none;stroke:#000000;stroke-width:0.5045;stroke-miterlimit:10;}
	.st69{fill:none;stroke:#000000;stroke-width:1.0089;stroke-miterlimit:10;}
	.st70{fill:#D4D4D5;}
	.st71{fill:none;stroke:#020203;stroke-width:0.7361;stroke-miterlimit:10;}
	.st72{fill:none;stroke:#020203;stroke-width:0.368;stroke-miterlimit:10;}
	.st73{fill:none;stroke:#020203;stroke-width:0.6997;stroke-miterlimit:10;}
	.st74{fill:none;stroke:#020203;stroke-width:0.6087;stroke-miterlimit:10;}
	.st75{fill:none;stroke:#020203;stroke-width:0.3824;stroke-miterlimit:10;}
	.st76{fill:#FFFFFF;stroke:#020203;stroke-width:0.368;stroke-miterlimit:10;}
	.st77{fill:#F3F2F2;stroke:#020203;stroke-width:0.7361;stroke-miterlimit:10;}
	.st78{fill:none;stroke:#020203;stroke-width:0.3868;stroke-miterlimit:10;}
	.st79{fill:none;stroke:#020203;stroke-width:0.7736;stroke-miterlimit:10;}
	.st80{fill:none;stroke:#020203;stroke-width:0.3058;stroke-miterlimit:10;}
	.st81{fill:none;stroke:#D41F19;stroke-width:1.5373;stroke-miterlimit:10;}
	.st82{fill:none;stroke:#D41F19;stroke-width:1.2259;stroke-miterlimit:10;}
	.st83{fill:none;stroke:#D41F19;stroke-width:1.5;stroke-miterlimit:10;}
	.st84{fill:none;stroke:#D41F19;stroke-width:1.199;stroke-miterlimit:10;}
	.st85{fill:none;stroke:#D41F19;stroke-width:1.274;stroke-miterlimit:10;}
	.st86{fill:none;stroke:#020203;stroke-width:0.9506;stroke-miterlimit:10;}
	.st87{fill:none;stroke:#020203;stroke-width:0.827;stroke-miterlimit:10;}
	.st88{fill:none;stroke:#020203;stroke-width:0.5195;stroke-miterlimit:10;}
	.st89{fill:#FFFFFF;stroke:#020203;stroke-width:0.5;stroke-miterlimit:10;}
	.st90{fill:#F3F2F2;stroke:#020203;stroke-miterlimit:10;}
	.st91{fill:none;stroke:#020203;stroke-width:0.5255;stroke-miterlimit:10;}
	.st92{fill:none;stroke:#020203;stroke-width:1.0509;stroke-miterlimit:10;}
	.st93{fill:none;stroke:#020203;stroke-width:0.4155;stroke-miterlimit:10;}
	.st94{fill:none;}
	.st95{font-family:'MyriadPro-Regular';}
	.st96{font-size:13.4105px;}
	.st97{fill:none;stroke:#D41F19;stroke-width:1.4493;stroke-miterlimit:10;}
	.st98{fill:none;stroke:#D41F19;stroke-width:1.3972;stroke-miterlimit:10;}
	.st99{fill:none;stroke:#D41F19;stroke-width:1.4149;stroke-miterlimit:10;}
	.st100{fill:none;stroke:#D41F19;stroke-width:1.5415;stroke-miterlimit:10;}
	.st101{fill:none;stroke:#D41F19;stroke-width:1.4077;stroke-miterlimit:10;}
	.st102{fill:none;stroke:#D41F19;stroke-width:1.362;stroke-miterlimit:10;}
	.st103{fill:none;stroke:#D41F19;stroke-width:1.3128;stroke-miterlimit:10;}
	.st104{fill:#F3F3F3;stroke:#020203;stroke-width:0.96;stroke-miterlimit:10;}
	.st105{fill:#FFFFFF;stroke:#020203;stroke-width:0.96;stroke-miterlimit:10;}
	.st106{fill:#FFFFFF;stroke:#020203;stroke-width:0.87;stroke-miterlimit:10;}
	.st107{fill:#FFFFFF;stroke:#020203;stroke-width:0.3;stroke-miterlimit:10;}
	.st108{fill:none;stroke:#B5241F;stroke-width:1.91;stroke-miterlimit:10;}
	.st109{fill:none;stroke:#B5241F;stroke-width:1.45;stroke-miterlimit:10;}
	.st110{fill:none;stroke:#B5241F;stroke-width:1.47;stroke-miterlimit:10;}
	.st111{fill:none;stroke:#B5241F;stroke-width:1.36;stroke-miterlimit:10;}
	.st112{fill:none;stroke:#B5241F;stroke-width:1.41;stroke-miterlimit:10;}
	.st113{fill:none;stroke:#B5241F;stroke-width:1.55;stroke-miterlimit:10;}
	.st114{fill:#FFFFFF;stroke:#020203;stroke-width:0.51;stroke-miterlimit:10;}
	.st115{fill:#F2F2F2;stroke:#020203;stroke-width:1.02;stroke-miterlimit:10;}
	.st116{fill:none;stroke:#020203;stroke-width:1.02;stroke-miterlimit:10;}
	.st117{fill:none;stroke:#020203;stroke-width:0.51;stroke-miterlimit:10;}
	.st118{fill:none;stroke:#020203;stroke-width:0.97;stroke-miterlimit:10;}
	.st119{fill:none;stroke:#020203;stroke-width:0.84;stroke-miterlimit:10;}
	.st120{fill:#F3F3F3;stroke:#020203;stroke-width:1.02;stroke-miterlimit:10;}
	.st121{fill:none;stroke:#020203;stroke-width:1.07;stroke-miterlimit:10;}
	.st122{fill:none;stroke:#020203;stroke-width:1.06;stroke-miterlimit:10;}
	.st123{fill:none;stroke:#020203;stroke-width:0.56;stroke-miterlimit:10;}
	.st124{fill:#FFFFFF;stroke:#020203;stroke-width:0.75;stroke-miterlimit:10;}
	.st125{fill:none;stroke:#020203;stroke-width:0.49;stroke-miterlimit:10;}
</style>
<g>
	<g>
		<rect x="251" y="555.2" class="st2" width="11.1" height="26.3"/>
		<g>
			<g>
				<polyline class="st2" points="268.6,401.8 269.4,402.7 267.6,403.8 269.5,404.4 267.6,405.4 269.4,406.2 267.8,407.2 
					269.4,407.9 267.8,409.1 269.4,409.9 267.9,411.1 269.4,411.8 268,412.7 269.4,413.5 268.5,414.4 				"/>
				<polyline class="st2" points="244.8,401.8 246.4,403 244.8,404 246.4,404.7 244.8,405.5 246.4,406.1 244.8,407 246.4,407.7 
					244.8,408.6 246.4,409.3 244.8,410.3 246.4,411.1 244.9,411.9 246.4,413 245.1,413.7 246,414.4 				"/>
				<line class="st2" x1="269.3" y1="402.7" x2="244.8" y2="404"/>
				<line class="st2" x1="269.5" y1="404.4" x2="244.9" y2="405.6"/>
				<line class="st2" x1="269.1" y1="406.3" x2="245.3" y2="407"/>
				<line class="st2" x1="269.3" y1="407.9" x2="245.2" y2="408.6"/>
				<line class="st2" x1="269.4" y1="409.9" x2="245.2" y2="410.4"/>
				<line class="st2" x1="269.3" y1="411.8" x2="245.2" y2="412.1"/>
				<path class="st2" d="M244.2,414.4h25.9V432c0,0-5.9,4-13.1,4s-12.8-4-12.8-4V414.4z"/>
				<path class="st2" d="M244.2,432.1c0,0,12.1,3.1,25.9-0.1"/>
				<path class="st2" d="M270.1,427.2c0,0,2.6,0.4,2.6,1.7c0,1.3,0.7,44.2,0.7,44.2s-12.9,6.9-32.4-0.7c0.6-17.4,1.3-43.2,1.3-43.2
					s0.6-0.9,2-1.2"/>
				<path class="st2" d="M242.3,429.1c0,0,0.7,0.6,2,0.9"/>
				<path class="st2" d="M272.4,428.1c0,0-0.7,0.6-2,0.9"/>
				<path class="st2" d="M167.8,393.3l-2.6,7.9c0,0,1.2,2.2,3.1,0.7c0.9-2.8,2.7-8.2,2.7-8.2"/>
				<polyline class="st2" points="165.3,401.1 163.6,400.6 163.2,402.8 168.8,404.4 169.6,402.2 168.3,401.8 				"/>
				<path class="st2" d="M163.6,400.6c0,0-8.7,11.7-10.2,14.2s-1.4,7.5,2.1,7.6c2.2,0.7,3.5,1.8,3.5,1.8s1.1,0.9,3.9,0.3
					c1.6,0.1,2.7,0.8,3.7,0.5s2.9-1.5,3.2-4.6c0.3-3.1-0.2-18.3-0.2-18.3"/>
				<path class="st2" d="M163.4,402.9l-3.4,8.6c0,0,2.3,4.6,6.8,1.9c1.2-3.5,2-9,2-9s-0.2,12.3-0.5,14.9c-0.2,2.6-1.2,3.4-2.1,3.7
					s-2.4-0.4-3.7-0.3c-1.2,0.1-3-0.1-3.7-0.5c-0.6-0.4-0.9-0.9-2.5-1.3c-3.1-0.5-2.6-4-1.3-6.1s8-12.1,8-12.1"/>
				<g>
					<path class="st2" d="M240.9,465.6c0,0-29.6-11.3-58.4-3.6c-11.7,1.9-8.8,11.2-8.8,11.2h1.8c0,0,0-1.6,0.7-2
						c1.1-0.8,17.4-3.6,36.4,4.8"/>
					<path class="st2" d="M175.6,473.1c0,0,4.1,2,8.8,0.9c4.7-1.1,4.7-3.9,4.7-3.9"/>
					<path class="st2" d="M233.7,472.9c0,0-68.6,6.5-117.6,32.7c0,0-4.6,0.8-5.1,5c-0.5,4.2,0.4,5.8,0.3,6.6
						c-0.1,0.8,6.4,3.6,12.8,0.8c5.8-5.3,3.6-4.8,8.9-6.3c5-0.9,47.6-17.8,106.3-19.3c2.8,1.8,5,2.7,5.4,2.9"/>
					<path class="st2" d="M124.1,518c0,0,4.5,0.1,4.7-4.8"/>
					<path class="st2" d="M272.9,465.6c0,0,29.6-11.3,58.4-3.6c11.7,1.9,8.8,11.2,8.8,11.2h-1.8c0,0,0-1.6-0.7-2
						c-1.1-0.8-17.4-3.6-36.4,4.8"/>
					<path class="st2" d="M338.2,473.1c0,0-4.1,2-8.8,0.9c-4.7-1.1-4.7-3.9-4.7-3.9"/>
					<path class="st2" d="M280.2,472.9c0,0,68.6,6.5,117.6,32.7c0,0,4.6,0.8,5.1,5c0.5,4.2-0.4,5.8-0.3,6.6
						c0.1,0.8-6.4,3.6-12.8,0.8c-4.9-4.7-3.8-5.4-8.9-6.3s-47.6-17.8-106.3-19.3c-2.8,1.8-5,2.7-5.4,2.9"/>
					<path class="st2" d="M389.7,517.9c0,0-4.5,0.1-4.7-4.9"/>
					<path class="st2" d="M244.7,481.2c0,0,1.6,51.9,2.6,58.6c1,6.7,0,12.3,0,12.3s3.2,5.3,9.9,5.5"/>
					<path class="st2" d="M269.6,481.2c0,0-1.6,51.9-2.6,58.6c-1,6.7,0,12.3,0,12.3s-3.2,5.3-9.9,5.5"/>
				</g>
				<g>
					<path class="st2" d="M163.4,486.9c0,0-0.8-10.4,4.4-10.6c5.3-0.3,8.1,7.2,8.1,7.2"/>
					<path class="st2" d="M167.6,476.3l5.1-1.2c0,0,5.5,2.1,6.3,7.7"/>
					<path class="st2" d="M179,474.2v1.2c0,0,3.5,1.6,5.6,0c0-0.6,0-1.3,0-1.3"/>
					<path class="st2" d="M178.9,474.8c0,0-1.2,0.3-1.2,0.8c0,0.5,6,2.4,8.5-0.1c-0.4-0.8-1.6-0.7-1.6-0.7"/>
					<path class="st2" d="M173.9,475.7c0,0,1.5-1,2.9-2.1"/>
					<path class="st2" d="M185,474.1c0,0,2.9,1.2,4.1,5.9"/>
					<polyline class="st2" points="164.6,479.4 167.8,485.7 166.9,485.9 163.7,481.4 					"/>
					<line class="st2" x1="167" y1="476.4" x2="168.3" y2="485.3"/>
					<line class="st2" x1="169.1" y1="476.4" x2="169" y2="485.3"/>
					<path class="st2" d="M173.2,478.9c0,0-3.2,5.7-3.3,6"/>
					<line class="st2" x1="171.3" y1="484.7" x2="174.4" y2="480.7"/>
				</g>
				<g>
					<path class="st2" d="M350.4,486.9c0,0,0.8-10.4-4.4-10.6c-5.3-0.3-8.1,7.2-8.1,7.2"/>
					<path class="st2" d="M346.2,476.3l-5.1-1.2c0,0-5.5,2.1-6.3,7.7"/>
					<path class="st2" d="M334.8,474.2v1.2c0,0-3.5,1.6-5.6,0c0-0.6,0-1.3,0-1.3"/>
					<path class="st2" d="M334.9,474.8c0,0,1.2,0.3,1.2,0.8c0,0.5-6,2.4-8.5-0.1c0.4-0.8,1.6-0.7,1.6-0.7"/>
					<line class="st2" x1="336.1" y1="475.6" x2="336.1" y2="479.1"/>
					<line class="st2" x1="327.6" y1="475.6" x2="327.6" y2="480.9"/>
					<path class="st2" d="M340,475.7c0,0-1.5-1-2.9-2.1"/>
					<path class="st2" d="M328.9,474.1c0,0-2.9,1.2-4.1,5.9"/>
					<polyline class="st2" points="349.2,479.4 346,485.7 346.9,485.9 350.1,481.4 					"/>
					<line class="st2" x1="346.8" y1="476.4" x2="345.5" y2="485.3"/>
					<line class="st2" x1="344.8" y1="476.4" x2="344.9" y2="485.3"/>
					<path class="st2" d="M340.7,478.9c0,0,3.2,5.7,3.3,6"/>
					<line class="st2" x1="342.5" y1="484.7" x2="339.5" y2="480.7"/>
				</g>
				<path class="st2" d="M116.5,519.2c-0.4-0.1-2.2,1.1,1.2,1.6c2.7,0.4,7.3,0,7.6-0.7c0.3-0.7-1.1-1.1-1.6-1.2"/>
				<path class="st2" d="M125.4,519.9l-0.4,11.8c0,0-0.2,1-0.7,1.3"/>
				<path class="st2" d="M396.9,519.4c0.4-0.1,2.2,1.1-1.2,1.6c-2.7,0.4-7.3,0-7.6-0.7c-0.3-0.7,1.1-1.1,1.6-1.2"/>
				<line class="st2" x1="389.9" y1="518.4" x2="389.9" y2="520.5"/>
				<line class="st2" x1="397.8" y1="520.1" x2="397.8" y2="523.3"/>
				<path class="st2" d="M388.1,520.1l0.4,11.8c0,0,0.2,1,0.7,1.3"/>
				<path class="st2" d="M253,560.2h-5.6c0,0-1.3,5.8-1.2,14.9c0,0.5-0.7,1.4-0.7,1.4l-0.1,1.8c0,0,0.5,0.5,0.5,0.8
					c0.1,7.8,1.2,13.3,1.2,13.3l5.6,0.4C252.7,592.8,253.7,562.5,253,560.2z"/>
				<path class="st2" d="M247.3,560.2c0,0-0.2,13.4-0.2,32.2"/>
				<path class="st2" d="M261,560.2h5.6c0,0,1.3,5.8,1.2,14.9c0,0.5,0.7,1.4,0.7,1.4l0.1,1.8c0,0-0.5,0.5-0.5,0.8
					c-0.1,7.8-1.2,13.3-1.2,13.3l-5.6,0.4C261.3,592.8,260.3,562.5,261,560.2z"/>
				<path class="st2" d="M266.7,560.2c0,0,0.2,13.4,0.2,32.2"/>
				<g>
					<ellipse class="st2" cx="110.1" cy="536.6" rx="14.7" ry="14.5"/>
					<ellipse class="st2" cx="110.1" cy="536.6" rx="12.8" ry="12.6"/>
					<path class="st2" d="M115.6,520.9c-2.2-1.1-6.5-2.6-11.9-0.2c-5.3,2.4-7.8,7.6-7.9,12.1"/>
					<path class="st2" d="M105.7,524.7l3.4,10c0,0-0.3,0.1-0.7,0.5c-0.9-0.6-8.5-6.3-8.5-6.3"/>
					<path class="st2" d="M116,525.4l-4.5,9.2c0,0-0.8-0.2-1.2-0.1c-0.4-2-1.3-10.4-1.3-10.4"/>
					<path class="st2" d="M122.1,532.2l-9.1,3.7c0,0-0.1-0.3-0.5-0.7c0.6-0.9,6.1-8,6.1-8"/>
					<path class="st2" d="M121.8,541.9l-8.8-4c0,0,0.2-0.4,0.2-0.8c1-0.2,9.6-2.3,9.6-2.3"/>
					<path class="st2" d="M114.7,548.3l-3-8.9c0,0,0.3-0.1,0.7-0.5c0.9,0.6,7.6,5.7,7.6,5.7"/>
					<path class="st2" d="M105.1,548.2l4.5-8.7c0,0,0.5,0.1,0.9,0.1c0.4,2,1,8.4,1.2,9.5"/>
					<path class="st2" d="M98.5,541.9l9.3-3.8c0,0,0.1,0.3,0.5,0.7c-0.6,0.9-5.9,7.7-5.9,7.7"/>
					<path class="st2" d="M98.2,531.8l9.6,4.3c0,0-0.2,0.4-0.2,0.8c-1,0.2-10,2.3-10,2.3"/>
				</g>
				<g>
					<ellipse class="st2" cx="403.2" cy="536.6" rx="14.7" ry="14.5"/>
					<ellipse class="st2" cx="403.2" cy="536.6" rx="12.8" ry="12.6"/>
					<path class="st2" d="M397.7,520.9c2.2-1.1,6.5-2.6,11.9-0.2c5.3,2.4,7.8,7.6,7.9,12.1"/>
					<path class="st2" d="M407.6,524.7l-3.4,10c0,0,0.3,0.1,0.7,0.5c0.9-0.6,8.5-6.3,8.5-6.3"/>
					<path class="st2" d="M397.3,525.4l4.5,9.2c0,0,0.8-0.2,1.2-0.1c0.4-2,1.3-10.4,1.3-10.4"/>
					<path class="st2" d="M391.2,532.2l9.1,3.7c0,0,0.1-0.3,0.5-0.7c-0.6-0.9-6.1-8-6.1-8"/>
					<path class="st2" d="M391.5,541.9l8.8-4c0,0-0.2-0.4-0.2-0.8c-1-0.2-9.6-2.3-9.6-2.3"/>
					<path class="st2" d="M398.6,548.3l3-8.9c0,0-0.3-0.1-0.7-0.5c-0.9,0.6-7.6,5.7-7.6,5.7"/>
					<path class="st2" d="M408.2,548.2l-4.5-8.7c0,0-0.5,0.1-0.9,0.1c-0.4,2-1,8.4-1.2,9.5"/>
					<path class="st2" d="M414.8,541.9l-9.3-3.8c0,0-0.1,0.3-0.5,0.7c0.6,0.9,5.9,7.7,5.9,7.7"/>
					<path class="st2" d="M415.1,531.8l-9.6,4.3c0,0,0.2,0.4,0.2,0.8c1,0.2,10,2.3,10,2.3"/>
				</g>
				<path class="st2" d="M180,356.1l-29.5-4.4c0,0-14.8-4.7-15.1-12.9c-0.3-8.2,4.8-12.1,7.7-17s4.4-10.2,4.4-10.2"/>
				<path class="st2" d="M260.4,307.8c0,0-92.1-0.4-104.8,1.4c-12.7,1.8-12.3,8.5-12.3,8.5s-6.3,8.5-9.8,13.2s-5.4,39.3-5.4,39.3
					s-0.4,14.3,15.4,19s93.4,13.2,113.5,12.5"/>
				<path class="st2" d="M373,311.6c0,0,1.5,5.3,4.4,10.2s8,8.8,7.7,17c-0.3,8.2-15.1,12.9-15.1,12.9l-29.5,4.4"/>
				<path class="st2" d="M260.2,307.8c0,0,92.1-0.4,104.8,1.4c12.7,1.8,12.3,8.5,12.3,8.5s6.3,8.5,9.8,13.2
					c3.6,4.7,5.4,39.3,5.4,39.3s0.4,14.3-15.4,19s-100,13.2-120.1,12.5"/>
				<path class="st2" d="M197,319.3c0.4-1.3,2.5-11.5,2.5-11.5"/>
				<path class="st2" d="M192.9,324.3c0,0-3.8,2.1-5.8,9c-2,6.9-11.3,20.8-9.1,61.2"/>
				<path class="st2" d="M260.4,320c0,0-62.1-1.5-64.5-0.7c-2.4,0.7-3.2,4.5-3,5.3c0.2,0.8,27.9,5.1,67.5,4.4"/>
				<path class="st2" d="M193.7,321.3c0,0,36.3,4.2,66.7,3.2"/>
				<path class="st2" d="M323.7,319.3c-0.4-1.3-4-11.4-4-11.4"/>
				<path class="st2" d="M327.7,324.3c0,0,3.8,2.1,5.8,9c2,6.9,11.3,20.8,9.1,61.2"/>
				<path class="st2" d="M260.2,320c0,0,62.1-1.5,64.5-0.7s3.2,4.5,3,5.3s-27.9,5.1-67.5,4.4"/>
				<path class="st2" d="M326.9,321.3c0,0-36.3,4.2-66.7,3.2"/>
				<path class="st2" d="M157.6,160.1c0.4,2.7-0.7,26.2-0.7,30s-4.9,52.7-6.5,69.3s4.1,50,4.1,50s167.3-2.4,209.2,2.2
					c0,0,5.8-35.7,4.2-52.2c-1.6-16.5-6.5-65.5-6.5-69.3s-1.1-27.3-0.7-30"/>
				<path class="st2" d="M343.1,171c1.2,10-139.8,16.6-139.8,16.6s-38.9-12.7-46.7-29.6S146,114.4,146,114.4s-2.9-17.9,16.8-31.6
					s28.7-37.7,28.7-37.7s10.5-27.5,27-32.2c16.9-4.8,42-4,42-4"/>
				<path class="st2" d="M217.9,13.2c0,0-2.2,72.7-9.5,97.8"/>
				<path class="st2" d="M260.3,9c0,0,22.6-0.9,39.6,3.9c16.5,4.7,27,32.2,27,32.2S336,69,355.7,82.8s16.8,31.6,16.8,31.6
					s-2.8,26.7-10.6,43.6s-46.7,29.6-46.7,29.6s-2.9-30.3-1.7-40.3"/>
				<path class="st2" d="M300.5,13.2c0,0,2.2,72.7,9.5,97.8"/>
				<path class="st2" d="M203.3,187.6c0,0,97.5,3.1,111.8,0"/>
				<path class="st2" d="M212.6,108.6c0,0-10.3,4.4-12.4,10.6c-2.1,6.2-3.8,19.2-3.8,19.2s-0.9,9.1,6.8,8.8
					c7.6-0.3,33.4-5.5,33.4-5.5s7.8-1,8.4-11.5s2.5-26.8,2.5-26.8s-0.8-9.2-9.2-8.3C229.9,98.3,212.6,108.6,212.6,108.6z"/>
				<path class="st0" d="M210.4,116.4c0,0-4.6,2.4-5.1,5.9c-0.4,3.5-2.7,16.3-2.7,16.3s-0.5,2.9,2.8,2.5c3.4-0.4,29.5-5,29.5-5
					s4-1.2,4.5-5.5c0.4-4.4,1.8-27.5,1.8-27.5s-0.3-1.8-2.6-1.1C236.3,102.5,210.4,116.4,210.4,116.4z"/>
				<path class="st2" d="M305.6,108.6c0,0,10.3,4.4,12.4,10.6c2.1,6.2,3.8,19.2,3.8,19.2s0.9,9.1-6.8,8.8
					c-7.6-0.3-33.4-5.5-33.4-5.5s-7.8-1-8.4-11.5c-0.6-10.5-2.5-26.8-2.5-26.8s0.8-9.2,9.2-8.3C288.3,98.3,305.6,108.6,305.6,108.6z
					"/>
				<path class="st0" d="M307.8,116.4c0,0,4.6,2.4,5.1,5.9s2.7,16.3,2.7,16.3s0.5,2.9-2.8,2.5c-3.4-0.4-29.5-5-29.5-5
					s-4-1.2-4.5-5.5c-0.4-4.4-1.8-27.5-1.8-27.5s0.3-1.8,2.6-1.1C281.8,102.5,307.8,116.4,307.8,116.4z"/>
				<line class="st2" x1="202.5" y1="237.5" x2="203.2" y2="189"/>
				<line class="st2" x1="315.8" y1="236.4" x2="315.1" y2="187.9"/>
				<path class="st2" d="M150.2,219.5c0,0,0.6-8.4-21.2-5.4c-17.7,5.4-23.7,29.6-23.7,29.6s-1,10.9,5,16.6c18.8,3.8,25-2.3,25-2.3
					s5.3-5.3,7.3-11.9c2-6.6,5-15.6,7-16.4C151.6,228.9,150.8,221.4,150.2,219.5z"/>
				<path class="st2" d="M105.3,244.1c0,0,8,11.4,26.1,0.5c13.9-12.1,9.4-23.8,19.1-25.6"/>
				<path class="st2" d="M149.6,229.7c0,0,3.3,4.8,2.9,9"/>
				<path class="st2" d="M136.6,326.9c0,0-0.7-40.6,0-50.7c0.7-10.2,6.4-31.6,6.4-31.6"/>
				<path class="st2" d="M142,248.5c0,0,1.8,11,1,17.8s-5.5,59.1-5.5,59.1"/>
				<polygon class="st2" points="148.3,311.3 150.8,279.3 152.5,236.4 149.9,230.1 148.8,228.8 136.3,249.9 128.1,347.9 
					149.4,321.6 				"/>
				<path class="st2" d="M110.7,260.4c0,0,0.8,2.4,2.9,2.9c2.1,0.6,13.9,3.1,22.7-2.6c2.8-1.9,3.3-8.3,3.3-8.3"/>
				<path class="st2" d="M138.4,264.4c0,0-4,7.2-15,8.1s-13.7-9.5-13.7-9.5l0.6-2.6c0,0-3.2,10.3,0,25.1
					c3.2,14.8,14.2,64.5,14.2,64.5s1.4,3.2,4.9,2.8"/>
				<g>
					<path class="st2" d="M368.1,219.5c0,0-0.6-8.4,21.2-5.4c17.7,5.4,23.7,29.6,23.7,29.6s1,10.9-5,16.6c-18.8,3.8-25-2.3-25-2.3
						s-5.3-5.3-7.3-11.9s-5-15.6-7-16.4C366.7,228.9,367.5,221.4,368.1,219.5z"/>
					<path class="st2" d="M413,244.1c0,0-8,11.4-26.1,0.5c-13.9-12.1-9.2-23.8-18.8-25.6"/>
					<path class="st2" d="M408,260.3c0,0,3.2,10.3,0,25.1s-14.2,64.5-14.2,64.5s-0.2,2.6-2.5,2.6"/>
					<path class="st2" d="M368.7,229.7c0,0-2.6,1.9-3.1,6"/>
					<path class="st2" d="M375.2,244.6c0,0,5.7,21.4,6.4,31.6s0.1,47.2,0.1,47.2"/>
					<path class="st2" d="M376.1,248c0,0-1.7,11.6-0.9,18.4s5.2,55.5,5.2,55.5"/>
					<line class="st2" x1="367.7" y1="277.8" x2="370" y2="310.3"/>
					<line class="st2" x1="378.2" y1="256.8" x2="382" y2="299.5"/>
					<path class="st2" d="M407.6,260.4c0,0-0.8,2.4-2.9,2.9c-2.1,0.6-13.9,3.1-22.7-2.6c-2.8-1.9-3.3-8.3-3.3-8.3"/>
					<path class="st2" d="M408.6,262.9c0,0-2.7,10.4-13.7,9.5s-15-8.1-15-8.1"/>
				</g>
			</g>
			<path class="st2" d="M110.7,257.4l-1.3,7.5l7.1,10.8c0,0,12.1-1.4,12.8-1.4s7.7-5.2,7.7-5.2l4-13.9l1.8-8.8l0.2-2.4l-27.1,2.8
				L110.7,257.4z"/>
			<polygon class="st2" points="369.8,310 367.3,278 365.7,235.1 368.3,228.9 369.4,227.5 381.9,248.6 390,346.7 368.8,320.4 			"/>
			<path class="st2" d="M407.4,256.1l1.3,7.5l-2.6,23.5c0,0-16.5,74-17.2,74c-0.7,0-7.8-93.3-7.8-93.3l-4-13.9l-1.8-8.8l-0.2-2.4
				l27.1,2.8L407.4,256.1z"/>
			<polygon class="st2" points="245.3,401.2 244.8,401.3 246.1,417 267.8,416.4 268.5,414.6 267.6,398.8 			"/>
			<polygon class="st2" points="115.7,519.7 115.4,520.8 112.3,522.7 119.5,537.4 124,533.7 124.5,532.4 125.2,524.2 125.4,520.6 
				125.4,519.8 			"/>
			<polygon class="st2" points="397.7,519.9 397.8,520.9 401.1,522.4 401.6,525.4 389.7,533 388.7,532 388.2,521.4 388.1,520 			"/>
			<polygon class="st2" points="211.9,472 214.3,481.2 239.5,491 244.2,495.2 246,496.2 251.3,553.4 257,557.5 257.2,557.5 
				262.3,544.8 268.8,495.6 272.1,493.2 301,476.8 301.3,471.3 273.8,465.5 271.1,465.7 236.2,465.6 			"/>
			<polygon class="st2" points="177,473.4 171.5,477.2 173.9,485.5 183.2,485.5 189.3,482.7 189.3,480.4 188.8,479.5 185.7,474.6 
				184.4,473.8 187.1,471.5 188.8,470.5 189.3,469.6 177.9,470.2 174.7,471 174.4,472.3 175.3,472.9 175.5,473.1 175.8,473.2 			"/>
			<polygon class="st2" points="336.8,473.4 342.2,477.2 339.9,485.5 330.6,485.5 324.4,482.7 324.5,480.4 324.9,479.4 328.1,474.6 
				329.4,473.7 326.6,471.5 324.9,470.4 324.4,469.6 335.9,470.1 339,471 339.4,472.2 338.4,472.9 338.3,473.1 337.9,473.2 			"/>
		</g>
	</g>
	<g>
		<polyline class="st8" points="268.3,402.1 269,403 267.2,404 269.1,404.7 267.2,405.7 269,406.5 267.4,407.5 269,408.2 
			267.4,409.4 269,410.2 267.5,411.4 269,412.1 267.6,413 269,413.8 268.1,414.7 		"/>
		<polyline class="st8" points="244.5,402.1 246.1,403.3 244.5,404.2 246.1,405 244.5,405.8 246.1,406.4 244.5,407.3 246.1,408 
			244.5,408.9 246.1,409.6 244.5,410.6 246.1,411.4 244.5,412.2 246.1,413.3 244.7,414 245.6,414.7 		"/>
		<line class="st8" x1="268.9" y1="403" x2="244.5" y2="404.2"/>
		<line class="st8" x1="269.1" y1="404.7" x2="244.6" y2="405.9"/>
		<line class="st8" x1="268.8" y1="406.6" x2="245" y2="407.3"/>
		<line class="st8" x1="268.9" y1="408.2" x2="244.8" y2="408.9"/>
		<line class="st8" x1="269" y1="410.2" x2="244.8" y2="410.7"/>
		<line class="st8" x1="268.9" y1="412.1" x2="244.8" y2="412.4"/>
		<line class="st8" x1="269" y1="413.8" x2="245" y2="413.8"/>
		<path class="st12" d="M243.9,414.7h25.9v17.6c0,0-5.9,4-13.1,4c-7.2,0-12.8-4-12.8-4V414.7z"/>
		<path class="st8" d="M243.9,432.4c0,0,12.1,3.1,25.9-0.1"/>
		<path class="st12" d="M269.7,427.5c0,0,2.6,0.4,2.6,1.7c0,1.3,0.7,44.2,0.7,44.2s-12.9,6.9-32.4-0.7c0.6-17.4,1.3-43.2,1.3-43.2
			s0.6-0.9,2-1.2"/>
		<path class="st12" d="M241.9,429.4c0,0,0.7,0.6,2,0.9"/>
		<path class="st12" d="M272,428.4c0,0-0.7,0.6-2,0.9"/>
		<path class="st12" d="M167.5,393.6l-2.6,7.9c0,0,1.2,2.2,3.1,0.7c0.9-2.8,2.7-8.2,2.7-8.2"/>
		<polyline class="st8" points="164.9,401.4 163.2,400.9 162.8,403.1 168.4,404.7 169.2,402.5 168,402.1 		"/>
		<path class="st12" d="M163.2,400.9c0,0-8.7,11.7-10.2,14.2c-1.5,2.5-1.4,7.5,2.1,7.6c2.2,0.7,3.5,1.8,3.5,1.8s1.1,0.9,3.9,0.3
			c1.6,0.1,2.7,0.8,3.7,0.5c1-0.3,2.9-1.5,3.2-4.6c0.3-3.1-0.2-18.3-0.2-18.3"/>
		<path class="st93" d="M163,403.1l-3.4,8.6c0,0,2.3,4.6,6.8,1.9c1.2-3.5,2-9,2-9s-0.2,12.3-0.5,14.9c-0.2,2.6-1.2,3.4-2.1,3.7
			c-0.8,0.2-2.4-0.4-3.7-0.3c-1.2,0.1-3-0.1-3.7-0.5c-0.6-0.4-0.9-0.9-2.5-1.3c-3.1-0.5-2.6-4-1.3-6.1s8-12.1,8-12.1"/>
		<g>
			<path class="st12" d="M240.6,465.8c0,0-29.6-11.3-58.4-3.6c-11.7,1.9-8.8,11.2-8.8,11.2h1.8c0,0,0-1.6,0.7-2
				c1.1-0.8,17.4-3.6,36.4,4.8"/>
			<path class="st8" d="M175.2,473.4c0,0,4.1,2,8.8,0.9c4.7-1.1,4.7-3.9,4.7-3.9"/>
			<path class="st12" d="M233.3,473.2c0,0-68.6,6.5-117.6,32.7c0,0-4.6,0.8-5.1,5c-0.5,4.2,0.4,5.8,0.3,6.6s6.4,3.6,12.8,0.8
				c1.3-2.6,3.8-5.4,8.9-6.3s47.6-17.8,106.3-19.3c2.8,1.8,5,2.7,5.4,2.9"/>
			<path class="st8" d="M123.7,518.2c0,0,4.5,0.2,4.7-4.7"/>
			<path class="st12" d="M272.5,465.8c0,0,29.6-11.3,58.4-3.6c11.7,1.9,8.8,11.2,8.8,11.2h-1.8c0,0,0-1.6-0.7-2
				c-1.1-0.8-17.4-3.6-36.4,4.8"/>
			<path class="st8" d="M337.9,473.4c0,0-4.1,2-8.8,0.9c-4.7-1.1-4.7-3.9-4.7-3.9"/>
			<path class="st12" d="M279.8,473.2c0,0,68.6,6.5,117.6,32.7c0,0,4.6,0.8,5.1,5c0.5,4.2-0.4,5.8-0.3,6.6s-6.4,3.6-12.8,0.8
				c-1.3-2.6-3.8-5.4-8.9-6.3s-47.6-17.8-106.3-19.3c-2.8,1.8-5,2.7-5.4,2.9"/>
			<path class="st8" d="M389.4,518.2c0,0-4.5,0.2-4.7-4.7"/>
			<path class="st12" d="M244.3,481.5c0,0,1.6,51.9,2.6,58.6c1,6.7,0,12.3,0,12.3s3.2,5.3,9.9,5.5"/>
			<path class="st12" d="M269.3,481.5c0,0-1.6,51.9-2.6,58.6c-1,6.7,0,12.3,0,12.3s-3.2,5.3-9.9,5.5"/>
		</g>
		<g>
			<path class="st12" d="M163,487.2c0,0-0.8-10.4,4.4-10.6c5.3-0.3,8.1,7.2,8.1,7.2"/>
			<path class="st12" d="M167.2,476.6l5.1-1.2c0,0,5.5,2.1,6.3,7.7"/>
			<path class="st8" d="M178.7,474.5v1.2c0,0,3.5,1.6,5.6,0c0-0.6,0-1.3,0-1.3"/>
			<path class="st8" d="M178.6,475.1c0,0-1.2,0.3-1.2,0.8c0,0.5,6,2.4,8.5-0.1c-0.4-0.8-1.6-0.7-1.6-0.7"/>
			<line class="st8" x1="177.3" y1="475.9" x2="177.3" y2="479.4"/>
			<line class="st8" x1="185.9" y1="475.8" x2="185.9" y2="481.2"/>
			<path class="st12" d="M173.5,476c0,0,1.5-1,2.9-2.1"/>
			<path class="st12" d="M184.6,474.4c0,0,2.9,1.2,4.1,5.9"/>
			<polyline class="st8" points="164.2,479.7 167.4,486 166.5,486.2 163.4,481.7 			"/>
			<line class="st8" x1="166.7" y1="476.7" x2="168" y2="485.6"/>
			<line class="st8" x1="168.7" y1="476.7" x2="168.6" y2="485.6"/>
			<path class="st8" d="M172.8,479.2c0,0-3.2,5.7-3.3,6"/>
			<line class="st8" x1="171" y1="485" x2="174" y2="481"/>
		</g>
		<g>
			<path class="st12" d="M350.1,487.2c0,0,0.8-10.4-4.4-10.6s-8.1,7.2-8.1,7.2"/>
			<path class="st12" d="M345.9,476.6l-5.1-1.2c0,0-5.5,2.1-6.3,7.7"/>
			<path class="st8" d="M334.4,474.5v1.2c0,0-3.5,1.6-5.6,0c0-0.6,0-1.3,0-1.3"/>
			<path class="st8" d="M334.5,475.1c0,0,1.2,0.3,1.2,0.8c0,0.5-6,2.4-8.5-0.1c0.4-0.8,1.6-0.7,1.6-0.7"/>
			<line class="st8" x1="335.8" y1="475.9" x2="335.8" y2="479.4"/>
			<line class="st8" x1="327.2" y1="475.8" x2="327.2" y2="481.2"/>
			<path class="st12" d="M339.6,476c0,0-1.5-1-2.9-2.1"/>
			<path class="st12" d="M328.5,474.4c0,0-2.9,1.2-4.1,5.9"/>
			<polyline class="st8" points="348.9,479.7 345.7,486 346.6,486.2 349.7,481.7 			"/>
			<line class="st8" x1="346.4" y1="476.7" x2="345.2" y2="485.6"/>
			<line class="st8" x1="344.4" y1="476.7" x2="344.5" y2="485.6"/>
			<path class="st8" d="M340.3,479.2c0,0,3.2,5.7,3.3,6"/>
			<line class="st8" x1="342.1" y1="485" x2="339.1" y2="481"/>
		</g>
		<path class="st12" d="M116.2,519.5c-0.4-0.1-2.2,1.1,1.2,1.6c2.7,0.4,7.3,0,7.6-0.7s-1.1-1.1-1.6-1.2"/>
		<line class="st8" x1="123.3" y1="518.5" x2="123.3" y2="520.6"/>
		<line class="st12" x1="115.3" y1="520.2" x2="115.3" y2="523.4"/>
		<path class="st12" d="M125,520.2l-0.4,11.8c0,0-0.2,1-0.7,1.3"/>
		<path class="st12" d="M396.6,519.7c0.4-0.1,2.2,1.1-1.2,1.6c-2.7,0.4-7.3,0-7.6-0.7c-0.3-0.7,1.1-1.1,1.6-1.2"/>
		<line class="st8" x1="389.5" y1="518.7" x2="389.5" y2="520.8"/>
		<line class="st12" x1="397.4" y1="520.4" x2="397.4" y2="523.6"/>
		<path class="st12" d="M387.7,520.4l0.4,11.8c0,0,0.2,1,0.7,1.3"/>
		<line class="st8" x1="250.9" y1="556.1" x2="250.9" y2="560.3"/>
		<path class="st12" d="M252.6,560.5h-5.6c0,0-1.3,5.8-1.2,14.9c0,0.5-0.7,1.4-0.7,1.4l-0.1,1.8c0,0,0.5,0.5,0.5,0.8
			c0.1,7.8,1.2,13.3,1.2,13.3l5.6,0.4C252.3,593,253.3,562.8,252.6,560.5z"/>
		<path class="st8" d="M246.9,560.5c0,0-0.2,13.4-0.2,32.2"/>
		<path class="st12" d="M260.7,560.5h5.6c0,0,1.3,5.8,1.2,14.9c0,0.5,0.7,1.4,0.7,1.4l0.1,1.8c0,0-0.5,0.5-0.5,0.8
			c-0.1,7.8-1.2,13.3-1.2,13.3l-5.6,0.4C260.9,593,259.9,562.8,260.7,560.5z"/>
		<path class="st8" d="M266.3,560.5c0,0,0.2,13.4,0.2,32.2"/>
		<line class="st8" x1="252.8" y1="562" x2="260.5" y2="562"/>
		<line class="st8" x1="252.8" y1="581.5" x2="260.5" y2="581.5"/>
		<line class="st8" x1="262" y1="556.5" x2="262" y2="560.5"/>
		<g>
			<ellipse class="st86" cx="109.7" cy="536.9" rx="14.7" ry="14.5"/>
			<ellipse class="st87" cx="109.7" cy="536.9" rx="12.8" ry="12.6"/>
			<path class="st86" d="M115.2,521.2c-2.2-1.1-6.5-2.6-11.9-0.2c-5.3,2.4-7.8,7.6-7.9,12.1"/>
			<path class="st88" d="M105.3,525l3.4,10c0,0-0.3,0.1-0.7,0.5c-0.9-0.6-8.5-6.3-8.5-6.3"/>
			<path class="st88" d="M115.6,525.7l-4.5,9.2c0,0-0.8-0.2-1.2-0.1c-0.4-2-1.3-10.4-1.3-10.4"/>
			<path class="st88" d="M121.7,532.5l-9.1,3.7c0,0-0.1-0.3-0.5-0.7c0.6-0.9,6.1-8,6.1-8"/>
			<path class="st88" d="M121.4,542.2l-8.8-4c0,0,0.2-0.4,0.2-0.8c1-0.2,9.6-2.3,9.6-2.3"/>
			<path class="st88" d="M114.3,548.6l-3-8.9c0,0,0.3-0.1,0.7-0.5c0.9,0.6,7.6,5.7,7.6,5.7"/>
			<path class="st88" d="M104.7,548.5l4.5-8.7c0,0,0.5,0.1,0.9,0.1c0.4,2,1,8.4,1.2,9.5"/>
			<path class="st88" d="M98.1,542.2l9.3-3.8c0,0,0.1,0.3,0.5,0.7c-0.6,0.9-5.9,7.7-5.9,7.7"/>
			<path class="st88" d="M97.8,532.1l9.6,4.3c0,0-0.2,0.4-0.2,0.8c-1,0.2-10,2.3-10,2.3"/>
		</g>
		<g>
			<ellipse class="st86" cx="402.9" cy="536.8" rx="14.7" ry="14.5"/>
			<ellipse class="st87" cx="402.9" cy="536.8" rx="12.8" ry="12.6"/>
			<path class="st86" d="M397.3,521.2c2.2-1.1,6.5-2.6,11.9-0.2c5.3,2.4,7.8,7.6,7.9,12.1"/>
			<path class="st88" d="M407.2,525l-3.4,10c0,0,0.3,0.1,0.7,0.5c0.9-0.6,8.5-6.3,8.5-6.3"/>
			<path class="st88" d="M397,525.7l4.5,9.2c0,0,0.8-0.2,1.2-0.1c0.4-2,1.3-10.4,1.3-10.4"/>
			<path class="st88" d="M390.9,532.5l9.1,3.7c0,0,0.1-0.3,0.5-0.7c-0.6-0.9-6.1-8-6.1-8"/>
			<path class="st88" d="M391.2,542.2l8.8-4c0,0-0.2-0.4-0.2-0.8c-1-0.2-9.6-2.3-9.6-2.3"/>
			<path class="st88" d="M398.2,548.6l3-8.9c0,0-0.3-0.1-0.7-0.5c-0.9,0.6-7.6,5.7-7.6,5.7"/>
			<path class="st88" d="M407.8,548.5l-4.5-8.7c0,0-0.5,0.1-0.9,0.1c-0.4,2-1,8.4-1.2,9.5"/>
			<path class="st88" d="M414.4,542.2l-9.3-3.8c0,0-0.1,0.3-0.5,0.7c0.6,0.9,5.9,7.7,5.9,7.7"/>
			<path class="st88" d="M414.7,532.1l-9.6,4.3c0,0,0.2,0.4,0.2,0.8c1,0.2,10,2.3,10,2.3"/>
		</g>
		<path class="st12" d="M179.7,356.4l-29.5-4.4c0,0-14.8-4.7-15.1-12.9c-0.3-8.2,4.8-12.1,7.7-17s4.4-10.2,4.4-10.2"/>
		<path class="st12" d="M260.1,308.1c0,0-92.1-0.4-104.8,1.4c-12.7,1.8-12.3,8.5-12.3,8.5s-6.3,8.5-9.8,13.2
			c-3.6,4.7-5.4,39.3-5.4,39.3s-0.4,14.3,15.4,19s93.4,13.2,113.5,12.5"/>
		<path class="st12" d="M372.6,311.9c0,0,1.5,5.3,4.4,10.2s8,8.8,7.7,17c-0.3,8.2-15.1,12.9-15.1,12.9l-29.5,4.4"/>
		<path class="st12" d="M259.9,308.1c0,0,92.1-0.4,104.8,1.4S377,318,377,318s6.3,8.5,9.8,13.2c3.6,4.7,5.4,39.3,5.4,39.3
			s0.4,14.3-15.4,19c-15.9,4.7-100,13.2-120.1,12.5"/>
		<path class="st12" d="M196.6,319.6c0.4-1.3,2.5-11.5,2.5-11.5"/>
		<path class="st12" d="M192.6,324.6c0,0-3.8,2.1-5.8,9c-2,6.9-11.3,20.8-9.1,61.2"/>
		<path class="st93" d="M260.1,320.3c0,0-62.1-1.5-64.5-0.7c-2.4,0.7-3.2,4.5-3,5.3s27.9,5.1,67.5,4.4"/>
		<path class="st93" d="M193.4,321.6c0,0,36.3,4.2,66.7,3.2"/>
		<path class="st12" d="M323.3,319.6c-0.4-1.3-4-11.4-4-11.4"/>
		<path class="st12" d="M327.4,324.6c0,0,3.8,2.1,5.8,9c2,6.9,11.3,20.8,9.1,61.2"/>
		<path class="st93" d="M259.9,320.3c0,0,62.1-1.5,64.5-0.7s3.2,4.5,3,5.3c-0.2,0.8-27.9,5.1-67.5,4.4"/>
		<path class="st93" d="M326.5,321.6c0,0-36.3,4.2-66.7,3.2"/>
		<path class="st12" d="M154.2,309.7c0,0-5.7-33.5-4.1-50c1.6-16.5,6.5-65.5,6.5-69.3s1.1-27.3,0.7-30"/>
		<path class="st12" d="M204.6,147.6c1.2,10-1.7,40.3-1.7,40.3s-38.9-12.7-46.7-29.6c-7.8-16.9-10.6-43.6-10.6-43.6
			s-2.9-17.9,16.8-31.6s28.7-37.7,28.7-37.7s10.5-27.5,27-32.2c16.9-4.8,42-4,42-4"/>
		<path class="st12" d="M217.5,13.5c0,0-2.2,72.7-9.5,97.8"/>
		<path class="st12" d="M363.5,309.7c0,0,5.7-33.5,4.1-50c-1.6-16.5-6.5-65.5-6.5-69.3s-1.1-27.3-0.7-30"/>
		<path class="st12" d="M259.9,9.3c0,0,22.6-0.9,39.6,3.9c16.5,4.7,27,32.2,27,32.2s9.1,23.9,28.7,37.7s16.8,31.6,16.8,31.6
			s-2.8,26.7-10.6,43.6c-7.8,16.9-46.7,29.6-46.7,29.6s-2.9-30.3-1.7-40.3"/>
		<path class="st12" d="M300.2,13.5c0,0,2.2,72.7,9.5,97.8"/>
		<path class="st12" d="M203,187.9c0,0,97.5,3.1,111.8,0"/>
		<path class="st12" d="M212.2,108.9c0,0-10.3,4.4-12.4,10.6c-2.1,6.2-3.8,19.2-3.8,19.2s-0.9,9.1,6.8,8.8
			c7.6-0.3,33.4-5.5,33.4-5.5s7.8-1,8.4-11.5c0.6-10.5,2.5-26.8,2.5-26.8s-0.8-9.2-9.2-8.3C229.5,98.6,212.2,108.9,212.2,108.9z"/>
		<path class="st93" d="M210,116.7c0,0-4.6,2.4-5.1,5.9s-2.7,16.3-2.7,16.3s-0.5,2.9,2.8,2.5c3.4-0.4,29.5-5,29.5-5s4-1.2,4.5-5.5
			c0.4-4.4,1.8-27.5,1.8-27.5s-0.3-1.8-2.6-1.1C236,102.8,210,116.7,210,116.7z"/>
		<path class="st12" d="M305.2,108.9c0,0,10.3,4.4,12.4,10.6c2.1,6.2,3.8,19.2,3.8,19.2s0.9,9.1-6.8,8.8c-7.6-0.3-33.4-5.5-33.4-5.5
			s-7.8-1-8.4-11.5c-0.6-10.5-2.5-26.8-2.5-26.8s0.8-9.2,9.2-8.3C287.9,98.6,305.2,108.9,305.2,108.9z"/>
		<path class="st93" d="M307.4,116.7c0,0,4.6,2.4,5.1,5.9s2.7,16.3,2.7,16.3s0.5,2.9-2.8,2.5c-3.4-0.4-29.5-5-29.5-5s-4-1.2-4.5-5.5
			c-0.4-4.4-1.8-27.5-1.8-27.5s0.3-1.8,2.6-1.1C281.4,102.8,307.4,116.7,307.4,116.7z"/>
		<line class="st93" x1="202.1" y1="237.8" x2="202.8" y2="189.3"/>
		<polyline class="st12" points="199,307.5 202.1,237.2 262.2,238.4 		"/>
		<line class="st93" x1="315.4" y1="236.7" x2="314.7" y2="188.2"/>
		<polyline class="st12" points="319.3,308.2 315.4,237.3 262.2,238.4 		"/>
		<line class="st93" x1="202.5" y1="202.3" x2="315.4" y2="202.3"/>
		<line class="st93" x1="202.4" y1="219.8" x2="315.3" y2="219.8"/>
		<path class="st12" d="M149.8,219.8c0,0,0.6-8.4-21.2-5.4c-17.7,5.4-23.7,29.6-23.7,29.6s-1,10.9,5,16.6c18.8,3.8,25-2.3,25-2.3
			s5.3-5.3,7.3-11.9c2-6.6,5-15.6,7-16.4C151.2,229.2,150.4,221.7,149.8,219.8z"/>
		<path class="st8" d="M104.9,244.4c0,0,8,11.4,26.1,0.5c13.9-12.1,9.4-23.8,19.1-25.6"/>
		<path class="st12" d="M109.9,260.6c0,0-3.2,10.3,0,25.1c3.2,14.8,14.2,64.5,14.2,64.5s0.9,3.1,4.4,2.8"/>
		<path class="st12" d="M149.2,230c0,0,3.3,4.8,2.9,9"/>
		<path class="st12" d="M142.7,244.9c0,0-5.7,21.4-6.4,31.6s0,50.7,0,50.7"/>
		<path class="st12" d="M141.7,248.8c0,0,1.8,11,1,17.8s-5.5,59.1-5.5,59.1"/>
		<line class="st12" x1="150.5" y1="279.5" x2="148" y2="311.6"/>
		<line class="st12" x1="139.7" y1="257.1" x2="135.9" y2="299.8"/>
		<path class="st8" d="M110.3,260.7c0,0,0.8,2.4,2.9,2.9c2.1,0.6,13.9,3.1,22.7-2.6c2.8-1.9,3.3-8.3,3.3-8.3"/>
		<path class="st94" d="M109.3,263.2c0,0,2.7,10.4,13.7,9.5c11-0.9,15-8.1,15-8.1"/>
		<g>
			<path class="st12" d="M367.7,219.8c0,0-0.6-8.4,21.2-5.4c17.7,5.4,23.7,29.6,23.7,29.6s1,10.9-5,16.6c-18.8,3.8-25-2.3-25-2.3
				s-5.3-5.3-7.3-11.9s-5-15.6-7-16.4C366.3,229.2,367.2,221.7,367.7,219.8z"/>
			<path class="st8" d="M412.6,244.4c0,0-8,11.4-26.1,0.5c-13.9-12.1-9.2-23.8-18.8-25.6"/>
			<path class="st12" d="M407.6,260.6c0,0,3.2,10.3,0,25.1s-14.2,64.5-14.2,64.5s-0.2,2.6-2.5,2.6"/>
			<path class="st12" d="M368.3,230c0,0-2.6,1.9-3.1,6"/>
			<path class="st12" d="M374.9,244.9c0,0,5.7,21.4,6.4,31.6s0.1,47.2,0.1,47.2"/>
			<path class="st12" d="M375.7,248.2c0,0-1.7,11.6-0.9,18.4c0.8,6.8,5.2,55.5,5.2,55.5"/>
			<line class="st12" x1="367.4" y1="278" x2="369.6" y2="310.6"/>
			<line class="st12" x1="377.9" y1="257.1" x2="381.6" y2="299.8"/>
			<path class="st8" d="M407.2,260.7c0,0-0.8,2.4-2.9,2.9c-2.1,0.6-13.9,3.1-22.7-2.6c-2.8-1.9-3.3-8.3-3.3-8.3"/>
			<path class="st8" d="M408.2,263.2c0,0-2.7,10.4-13.7,9.5c-11-0.9-15-8.1-15-8.1"/>
		</g>
	</g>
</g>
<text transform="matrix(1 0 0 1 242.5847 81.7954)" class="st37 st95 st96">54cm</text>
<g>
	<g>
		<line class="st97" x1="147.4" y1="85.8" x2="368" y2="85.8"/>
	</g>
	<line class="st83" x1="145.3" y1="111.9" x2="145.3" y2="79.5"/>
	<polygon class="st37" points="145.6,85.8 156.6,92.2 156.6,79.5 	"/>
	<line class="st83" x1="372.4" y1="111.9" x2="372.4" y2="79.5"/>
	<polygon class="st37" points="372,85.8 361.1,92.2 361.1,79.5 	"/>
</g>
<text transform="matrix(1 0 0 1 242.3845 180.521)" class="st37 st95 st96">52cm</text>
<text transform="matrix(1 0 0 1 242.3845 271.414)" class="st37 st95 st96">51cm</text>
<g>
	<g>
		<line class="st98" x1="155.2" y1="184.8" x2="360.3" y2="184.8"/>
	</g>
	<line class="st83" x1="149.6" y1="234.2" x2="149.6" y2="178.5"/>
	<polygon class="st37" points="149.9,184.8 160.9,191.2 160.9,178.5 	"/>
	<line class="st83" x1="366.7" y1="235.7" x2="366.7" y2="178.5"/>
	<polygon class="st37" points="366.4,184.8 355.4,191.2 355.4,178.5 	"/>
</g>
<g>
	<g>
		<line class="st99" x1="148.6" y1="275.6" x2="358.9" y2="275.6"/>
	</g>
	<line class="st83" x1="149.2" y1="282" x2="149.2" y2="269.3"/>
	<polygon class="st37" points="149.6,275.6 160.5,282 160.5,269.3 	"/>
	<line class="st83" x1="368.6" y1="282" x2="368.6" y2="269.3"/>
	<polygon class="st37" points="368.2,275.6 357.2,282 357.2,269.3 	"/>
</g>
<text transform="matrix(1 0 0 1 241.155 368.3139)" class="st37 st95 st96">55cm</text>
<g>
	<g>
		<line class="st100" x1="136.3" y1="372.5" x2="385.9" y2="372.5"/>
	</g>
	<line class="st83" x1="127.8" y1="378.9" x2="127.8" y2="366.2"/>
	<polygon class="st37" points="128.2,372.5 139.2,378.9 139.2,366.2 	"/>
	<line class="st83" x1="391.7" y1="378.9" x2="391.7" y2="366.2"/>
	<polygon class="st37" points="391.4,372.5 380.4,378.9 380.4,366.2 	"/>
</g>
</svg>
