<?xml version="1.0" encoding="utf-8"?>
<!-- Generator: Adobe Illustrator 23.0.1, SVG Export Plug-In . SVG Version: 6.00 Build 0)  -->
<svg version="1.1" id="Camada_1" xmlns="http://www.w3.org/2000/svg" xmlns:xlink="http://www.w3.org/1999/xlink" x="0px" y="0px"
	 viewBox="0 0 600 600" style="enable-background:new 0 0 600 600;" xml:space="preserve">
<style type="text/css">
	.st0{fill:#E8E7E7;}
	.st1{fill:#E7E6E6;}
	.st2{fill:#FFFFFF;}
	.st3{fill:#D3D3D3;}
	.st4{fill:none;stroke:#020203;stroke-width:0.96;stroke-miterlimit:10;}
	.st5{fill:none;stroke:#020203;stroke-width:0.48;stroke-miterlimit:10;}
	.st6{fill:none;stroke:#020203;stroke-width:0.91;stroke-miterlimit:10;}
	.st7{fill:none;stroke:#020203;stroke-width:0.79;stroke-miterlimit:10;}
	.st8{fill:none;stroke:#020203;stroke-width:0.5;stroke-miterlimit:10;}
	.st9{fill:#FFFFFF;stroke:#020203;stroke-width:0.48;stroke-miterlimit:10;}
	.st10{fill:#F2F2F2;stroke:#020203;stroke-width:0.96;stroke-miterlimit:10;}
	.st11{fill:none;stroke:#020203;stroke-width:1.01;stroke-miterlimit:10;}
	.st12{fill:none;stroke:#020203;stroke-miterlimit:10;}
	.st13{fill:none;stroke:#020203;stroke-width:0.53;stroke-miterlimit:10;}
	.st14{fill:none;stroke:#020203;stroke-width:0.75;stroke-miterlimit:10;}
	.st15{fill:none;stroke:#020203;stroke-width:0.71;stroke-miterlimit:10;}
	.st16{fill:none;stroke:#B5241F;stroke-width:1.42;stroke-miterlimit:10;}
	.st17{fill:none;stroke:#B5241F;stroke-width:1.8;stroke-miterlimit:10;}
	.st18{fill:none;stroke:#B5241F;stroke-width:1.38;stroke-miterlimit:10;}
	.st19{fill:none;stroke:#B5241F;stroke-width:1.22;stroke-miterlimit:10;}
	.st20{fill:#B5241F;}
	.st21{fill:none;stroke:#B5241F;stroke-width:1.37;stroke-miterlimit:10;}
	.st22{fill:none;stroke:#B5241F;stroke-width:1.39;stroke-miterlimit:10;}
	.st23{fill:none;stroke:#B5241F;stroke-width:1.28;stroke-miterlimit:10;}
	.st24{fill:none;stroke:#B5241F;stroke-width:1.33;stroke-miterlimit:10;}
	.st25{fill:none;stroke:#B5241F;stroke-width:1.46;stroke-miterlimit:10;}
	.st26{fill:none;stroke:#B5241F;stroke-width:1.29;stroke-miterlimit:10;}
	.st27{fill:none;stroke:#020203;stroke-width:0.42;stroke-miterlimit:10;}
	.st28{fill:none;stroke:#020203;stroke-width:0.95;stroke-miterlimit:10;}
	.st29{fill:none;stroke:#020203;stroke-width:0.83;stroke-miterlimit:10;}
	.st30{fill:none;stroke:#020203;stroke-width:0.52;stroke-miterlimit:10;}
	.st31{fill:none;stroke:#B5241F;stroke-width:1.53;stroke-miterlimit:10;}
	.st32{fill:none;stroke:#B5241F;stroke-width:1.5;stroke-miterlimit:10;}
	.st33{fill:none;stroke:#B5241F;stroke-width:1.51;stroke-miterlimit:10;}
	.st34{fill:none;stroke:#B5241F;stroke-width:1.6;stroke-miterlimit:10;}
	.st35{fill:none;stroke:#D41F19;stroke-width:1.3689;stroke-miterlimit:10;}
	.st36{fill:none;stroke:#D41F19;stroke-width:2.0559;stroke-miterlimit:10;}
	.st37{fill:#D41F19;}
	.st38{fill:none;stroke:#D41F19;stroke-width:1.3723;stroke-miterlimit:10;}
	.st39{fill:none;stroke:#D41F19;stroke-width:1.4294;stroke-miterlimit:10;}
	.st40{fill:none;stroke:#D41F19;stroke-width:1.8389;stroke-miterlimit:10;}
	.st41{fill:none;stroke:#D41F19;stroke-width:1.4538;stroke-miterlimit:10;}
	.st42{fill:none;stroke:#000000;stroke-width:0.5;stroke-miterlimit:10;}
	.st43{fill:none;stroke:#000000;stroke-miterlimit:10;}
	.st44{fill:none;stroke:#000000;stroke-width:0.4155;stroke-miterlimit:10;}
	.st45{fill:none;stroke:#000000;stroke-width:0.9506;stroke-miterlimit:10;}
	.st46{fill:none;stroke:#000000;stroke-width:0.827;stroke-miterlimit:10;}
	.st47{fill:none;stroke:#000000;stroke-width:0.5195;stroke-miterlimit:10;}
	.st48{fill:none;stroke:#000000;stroke-width:0.4172;stroke-miterlimit:10;}
	.st49{fill:none;stroke:#000000;stroke-width:0.419;stroke-miterlimit:10;}
	.st50{fill:none;stroke:#D41F19;stroke-width:1.4161;stroke-miterlimit:10;}
	.st51{fill:none;stroke:#D41F19;stroke-width:1.7984;stroke-miterlimit:10;}
	.st52{fill:none;stroke:#D41F19;stroke-width:1.2223;stroke-miterlimit:10;}
	.st53{fill:none;stroke:#D41F19;stroke-width:1.359;stroke-miterlimit:10;}
	.st54{fill:none;stroke:#D41F19;stroke-width:1.3456;stroke-miterlimit:10;}
	.st55{fill:none;stroke:#D41F19;stroke-width:1.1098;stroke-miterlimit:10;}
	.st56{fill:none;stroke:#D41F19;stroke-width:1.3365;stroke-miterlimit:10;}
	.st57{fill:none;stroke:#D41F19;stroke-width:1.3941;stroke-miterlimit:10;}
	.st58{fill:none;stroke:#D41F19;stroke-width:1.4643;stroke-miterlimit:10;}
	.st59{fill:none;stroke:#D41F19;stroke-width:1.3019;stroke-miterlimit:10;}
	.st60{fill:none;stroke:#D41F19;stroke-width:1.2895;stroke-miterlimit:10;}
	.st61{fill:none;stroke:#000000;stroke-width:0.96;stroke-miterlimit:10;}
	.st62{fill:none;stroke:#000000;stroke-width:0.48;stroke-miterlimit:10;}
	.st63{fill:none;stroke:#000000;stroke-width:0.9126;stroke-miterlimit:10;}
	.st64{fill:none;stroke:#000000;stroke-width:0.7939;stroke-miterlimit:10;}
	.st65{fill:none;stroke:#000000;stroke-width:0.4988;stroke-miterlimit:10;}
	.st66{fill:#FFFFFF;stroke:#000000;stroke-width:0.48;stroke-miterlimit:10;}
	.st67{fill:#F3F2F2;stroke:#000000;stroke-width:0.96;stroke-miterlimit:10;}
	.st68{fill:none;stroke:#000000;stroke-width:0.5045;stroke-miterlimit:10;}
	.st69{fill:none;stroke:#000000;stroke-width:1.0089;stroke-miterlimit:10;}
	.st70{fill:#D4D4D5;}
	.st71{fill:none;stroke:#020203;stroke-width:0.7361;stroke-miterlimit:10;}
	.st72{fill:none;stroke:#020203;stroke-width:0.368;stroke-miterlimit:10;}
	.st73{fill:none;stroke:#020203;stroke-width:0.6997;stroke-miterlimit:10;}
	.st74{fill:none;stroke:#020203;stroke-width:0.6087;stroke-miterlimit:10;}
	.st75{fill:none;stroke:#020203;stroke-width:0.3824;stroke-miterlimit:10;}
	.st76{fill:#FFFFFF;stroke:#020203;stroke-width:0.368;stroke-miterlimit:10;}
	.st77{fill:#F3F2F2;stroke:#020203;stroke-width:0.7361;stroke-miterlimit:10;}
	.st78{fill:none;stroke:#020203;stroke-width:0.3868;stroke-miterlimit:10;}
	.st79{fill:none;stroke:#020203;stroke-width:0.7736;stroke-miterlimit:10;}
	.st80{fill:none;stroke:#020203;stroke-width:0.3058;stroke-miterlimit:10;}
	.st81{fill:none;stroke:#D41F19;stroke-width:1.5373;stroke-miterlimit:10;}
	.st82{fill:none;stroke:#D41F19;stroke-width:1.2259;stroke-miterlimit:10;}
	.st83{fill:none;stroke:#D41F19;stroke-width:1.5;stroke-miterlimit:10;}
	.st84{fill:none;stroke:#D41F19;stroke-width:1.199;stroke-miterlimit:10;}
	.st85{fill:none;stroke:#D41F19;stroke-width:1.274;stroke-miterlimit:10;}
	.st86{fill:none;stroke:#020203;stroke-width:0.9506;stroke-miterlimit:10;}
	.st87{fill:none;stroke:#020203;stroke-width:0.827;stroke-miterlimit:10;}
	.st88{fill:none;stroke:#020203;stroke-width:0.5195;stroke-miterlimit:10;}
	.st89{fill:#FFFFFF;stroke:#020203;stroke-width:0.5;stroke-miterlimit:10;}
	.st90{fill:#F3F2F2;stroke:#020203;stroke-miterlimit:10;}
	.st91{fill:none;stroke:#020203;stroke-width:0.5255;stroke-miterlimit:10;}
	.st92{fill:none;stroke:#020203;stroke-width:1.0509;stroke-miterlimit:10;}
	.st93{fill:none;stroke:#020203;stroke-width:0.4155;stroke-miterlimit:10;}
	.st94{fill:none;}
	.st95{fill:none;stroke:#D41F19;stroke-width:1.4493;stroke-miterlimit:10;}
	.st96{fill:none;stroke:#D41F19;stroke-width:1.3972;stroke-miterlimit:10;}
	.st97{fill:none;stroke:#D41F19;stroke-width:1.4149;stroke-miterlimit:10;}
	.st98{fill:none;stroke:#D41F19;stroke-width:1.5415;stroke-miterlimit:10;}
	.st99{fill:none;stroke:#D41F19;stroke-width:1.4077;stroke-miterlimit:10;}
	.st100{font-family:'MyriadPro-Regular';}
	.st101{font-size:12.536px;}
	.st102{fill:none;stroke:#D41F19;stroke-width:1.362;stroke-miterlimit:10;}
	.st103{fill:none;stroke:#D41F19;stroke-width:1.3128;stroke-miterlimit:10;}
	.st104{font-size:13.0352px;}
	.st105{fill:#F3F3F3;stroke:#020203;stroke-width:0.96;stroke-miterlimit:10;}
	.st106{fill:#FFFFFF;stroke:#020203;stroke-width:0.96;stroke-miterlimit:10;}
	.st107{fill:#FFFFFF;stroke:#020203;stroke-width:0.87;stroke-miterlimit:10;}
	.st108{fill:#FFFFFF;stroke:#020203;stroke-width:0.3;stroke-miterlimit:10;}
	.st109{fill:none;stroke:#B5241F;stroke-width:1.91;stroke-miterlimit:10;}
	.st110{fill:none;stroke:#B5241F;stroke-width:1.45;stroke-miterlimit:10;}
	.st111{fill:none;stroke:#B5241F;stroke-width:1.47;stroke-miterlimit:10;}
	.st112{fill:none;stroke:#B5241F;stroke-width:1.36;stroke-miterlimit:10;}
	.st113{fill:none;stroke:#B5241F;stroke-width:1.41;stroke-miterlimit:10;}
	.st114{fill:none;stroke:#B5241F;stroke-width:1.55;stroke-miterlimit:10;}
	.st115{fill:#FFFFFF;stroke:#020203;stroke-width:0.51;stroke-miterlimit:10;}
	.st116{fill:#F2F2F2;stroke:#020203;stroke-width:1.02;stroke-miterlimit:10;}
	.st117{fill:none;stroke:#020203;stroke-width:1.02;stroke-miterlimit:10;}
	.st118{fill:none;stroke:#020203;stroke-width:0.51;stroke-miterlimit:10;}
	.st119{fill:none;stroke:#020203;stroke-width:0.97;stroke-miterlimit:10;}
	.st120{fill:none;stroke:#020203;stroke-width:0.84;stroke-miterlimit:10;}
	.st121{fill:#F3F3F3;stroke:#020203;stroke-width:1.02;stroke-miterlimit:10;}
	.st122{fill:none;stroke:#020203;stroke-width:1.07;stroke-miterlimit:10;}
	.st123{fill:none;stroke:#020203;stroke-width:1.06;stroke-miterlimit:10;}
	.st124{fill:none;stroke:#020203;stroke-width:0.56;stroke-miterlimit:10;}
	.st125{fill:#FFFFFF;stroke:#020203;stroke-width:0.75;stroke-miterlimit:10;}
	.st126{fill:none;stroke:#020203;stroke-width:0.49;stroke-miterlimit:10;}
</style>
<rect x="340.7" y="439.5" class="st0" width="61.4" height="14.3"/>
<g>
	<polygon class="st2" points="294.2,556.5 294.4,582.2 306.7,582.2 304.7,555.8 	"/>
	<g>
		<g>
			<g>
				<path class="st2" d="M315,434.5c0,1.2,0.5,42.5,0.5,42.5s-12.5,6.7-31.5-0.7c0.6-16.9,1.3-42,1.3-42s1.4-1.4,3.1-1.6"/>
				<path class="st2" d="M311.8,432.7c0,0,2.5,0.2,3.1,1.7c-17.4,4.4-29.5-0.1-29.5-0.1"/>
				<g>
					<path class="st2" d="M284.1,469.8c0,0-28.7-11-56.8-3.5c-11.4,1.8-8.5,10.9-8.5,10.9h1.8c0,0,0-1.5,0.7-2
						c1.1-0.7,16.9-3.5,35.4,4.6"/>
					<path class="st2" d="M220.6,477.2c0,0,3.9,2,8.5,0.9s4.5-3.8,4.5-3.8"/>
					<path class="st2" d="M277,476.9c0,0-66.7,6.3-114.3,31.8c0,0-4.5,0.8-5,4.9c-0.5,4.1,0.4,5.6,0.3,6.4
						c-0.1,0.8,6.3,3.5,12.4,0.8c1.2-2.5,3.7-5.2,8.6-6.2c4.9-0.9,46.3-17.3,103.4-18.7c2.7,1.8,4.8,2.6,5.3,2.8"/>
					<path class="st2" d="M174.7,514.7l0.3,1.3c-0.2,4.8-4.5,4.6-4.5,4.6s-0.7-0.1-0.8-0.1"/>
					<path class="st2" d="M315.1,469.8c0,0,28.7-11,56.8-3.5c11.4,1.8,8.5,10.9,8.5,10.9h-1.8c0,0,0-1.5-0.7-2
						c-1.1-0.7-16.9-3.5-35.4,4.6"/>
					<path class="st2" d="M378.6,477.2c0,0-3.9,2-8.5,0.9s-4.5-3.8-4.5-3.8"/>
					<path class="st2" d="M322.2,476.9c0,0,66.7,6.3,114.3,31.8c0,0,4.5,0.8,5,4.9c0.5,4.1-0.4,5.6-0.3,6.4
						c0.1,0.8-6.3,3.5-12.4,0.8c-1.2-2.5-3.7-5.2-8.6-6.2s-46.3-17.3-103.4-18.7c-2.7,1.8-4.8,2.6-5.3,2.8"/>
					<path class="st2" d="M423.7,514.1l0.4,2c0.2,4.8,4.5,4.6,4.5,4.6l1.7-0.3"/>
					<path class="st2" d="M287.7,485c0,0,1.5,50.4,2.5,56.9c1,6.5,0,11.9,0,11.9s3.1,5.1,9.6,5.3"/>
					<path class="st2" d="M311.9,485c0,0-1.5,50.4-2.5,56.9c-1,6.5,0,11.9,0,11.9s-3.1,5.1-9.6,5.3"/>
				</g>
				<g>
					<path class="st2" d="M208.7,490.6c0,0-0.8-10.1,4.3-10.3c5.1-0.3,7.9,7,7.9,7"/>
					<path class="st2" d="M212.8,480.2l4.9-1.2c0,0,5.3,2,6.1,7.4"/>
					<path class="st2" d="M223.9,478.2v1.1c0,0,3.4,1.5,5.5,0c0-0.6,0-1.3,0-1.3"/>
					<path class="st2" d="M223.8,478.8c0,0-1.2,0.3-1.2,0.8c0,0.5,5.8,2.4,8.3-0.1c-0.3-0.8-1.5-0.7-1.5-0.7"/>
					<path class="st2" d="M218.9,479.6c0,0,1.4-1,2.8-2"/>
					<path class="st2" d="M229.7,478.1c0,0,2.8,1.2,3.9,5.8"/>
					<polyline class="st2" points="209.9,483.2 213,489.3 212.1,489.6 209,485.2 					"/>
					<line class="st2" x1="212.2" y1="480.3" x2="213.5" y2="489"/>
					<line class="st2" x1="214.2" y1="480.3" x2="214.1" y2="489"/>
					<path class="st2" d="M218.2,482.8c0,0-3.1,5.6-3.2,5.9"/>
					<line class="st2" x1="216.4" y1="488.4" x2="219.4" y2="484.5"/>
				</g>
				<g>
					<path class="st2" d="M390.5,490.6c0,0,0.8-10.1-4.3-10.3c-5.1-0.3-7.9,7-7.9,7"/>
					<path class="st2" d="M386.4,480.2l-4.9-1.2c0,0-5.3,2-6.1,7.4"/>
					<path class="st2" d="M375.3,478.2v1.1c0,0-3.4,1.5-5.5,0c0-0.6,0-1.3,0-1.3"/>
					<path class="st2" d="M375.4,478.8c0,0,1.2,0.3,1.2,0.8c0,0.5-5.8,2.4-8.3-0.1c0.3-0.8,1.5-0.7,1.5-0.7"/>
					<line class="st2" x1="376.6" y1="479.6" x2="376.6" y2="483"/>
					<line class="st2" x1="368.3" y1="479.5" x2="368.3" y2="484.7"/>
					<path class="st2" d="M380.3,479.6c0,0-1.4-1-2.8-2"/>
					<path class="st2" d="M369.5,478.1c0,0-2.8,1.2-3.9,5.8"/>
					<polyline class="st2" points="389.3,483.2 386.2,489.3 387.1,489.6 390.2,485.2 					"/>
					<line class="st2" x1="387" y1="480.3" x2="385.7" y2="489"/>
					<line class="st2" x1="385" y1="480.3" x2="385.1" y2="489"/>
					<path class="st2" d="M381,482.8c0,0,3.1,5.6,3.2,5.9"/>
					<line class="st2" x1="382.8" y1="488.4" x2="379.8" y2="484.5"/>
				</g>
				<path class="st2" d="M163.1,521.9c-0.4-0.1-2.1,1,1.2,1.6c2.6,0.4,7.1,0,7.4-0.7s-1-1.1-1.6-1.2"/>
				<path class="st2" d="M171.8,522.6l-0.4,11.5c0,0-0.2,1-0.6,1.2"/>
				<g>
					<ellipse class="st2" cx="156.9" cy="538.9" rx="14.3" ry="14.1"/>
					<ellipse class="st2" cx="156.9" cy="538.9" rx="12.4" ry="12.2"/>
					<path class="st2" d="M162.3,523.6c-2.1-1.1-6.4-2.5-11.5-0.2c-5.2,2.4-7.6,7.4-7.7,11.7"/>
					<path class="st2" d="M152.7,527.4l3.3,9.7c0,0-0.3,0.1-0.7,0.5c-0.9-0.6-8.2-6.1-8.2-6.1"/>
					<path class="st2" d="M162.7,528l-4.4,8.9c0,0-0.7-0.2-1.2-0.1c-0.3-1.9-1.3-10.1-1.3-10.1"/>
					<path class="st2" d="M168.6,534.7l-8.8,3.6c0,0-0.1-0.3-0.5-0.7c0.6-0.9,6-7.8,6-7.8"/>
					<path class="st2" d="M168.3,544.1l-8.6-3.9c0,0,0.2-0.4,0.2-0.8c1-0.2,9.3-2.3,9.3-2.3"/>
					<path class="st2" d="M161.4,550.3l-2.9-8.7c0,0,0.3-0.1,0.7-0.5c0.9,0.6,7.4,5.5,7.4,5.5"/>
					<path class="st2" d="M152.1,550.2l4.3-8.5c0,0,0.5,0.1,0.9,0.1c0.3,1.9,1,8.2,1.1,9.2"/>
					<path class="st2" d="M145.7,544.1l9-3.7c0,0,0.1,0.3,0.5,0.7c-0.6,0.9-5.8,7.5-5.8,7.5"/>
					<path class="st2" d="M145.4,534.2l9.4,4.2c0,0-0.2,0.4-0.2,0.8c-1,0.2-9.8,2.3-9.8,2.3"/>
				</g>
				<g>
					<ellipse class="st2" cx="441.9" cy="538.9" rx="14.3" ry="14.1"/>
					<ellipse class="st2" cx="441.9" cy="538.9" rx="12.4" ry="12.2"/>
					<path class="st2" d="M436.5,523.6c2.1-1.1,6.4-2.5,11.5-0.2c5.2,2.4,7.6,7.4,7.7,11.7"/>
					<path class="st2" d="M446.2,527.4l-3.3,9.7c0,0,0.3,0.1,0.7,0.5c0.9-0.6,8.2-6.1,8.2-6.1"/>
					<path class="st2" d="M436.2,528l4.4,8.9c0,0,0.7-0.2,1.2-0.1c0.3-1.9,1.3-10.1,1.3-10.1"/>
					<path class="st2" d="M430.2,534.7l8.8,3.6c0,0,0.1-0.3,0.5-0.7c-0.6-0.9-6-7.8-6-7.8"/>
					<path class="st2" d="M430.5,544.1l8.6-3.9c0,0-0.2-0.4-0.2-0.8c-1-0.2-9.3-2.3-9.3-2.3"/>
					<path class="st2" d="M437.4,550.3l2.9-8.7c0,0-0.3-0.1-0.7-0.5c-0.9,0.6-7.4,5.5-7.4,5.5"/>
					<path class="st2" d="M446.7,550.1l-4.3-8.5c0,0-0.5,0.1-0.9,0.1c-0.3,1.9-1,8.2-1.1,9.2"/>
					<path class="st2" d="M453.2,544.1l-9-3.7c0,0-0.1,0.3-0.5,0.7c0.6,0.9,5.8,7.5,5.8,7.5"/>
					<path class="st2" d="M453.4,534.2l-9.4,4.2c0,0,0.2,0.4,0.2,0.8c1,0.2,9.8,2.3,9.8,2.3"/>
				</g>
				<path class="st2" d="M435.7,522.1c0.4-0.1,2.1,1-1.2,1.6c-2.6,0.4-7.1,0-7.4-0.7s1-1.1,1.6-1.2"/>
				<line class="st2" x1="428.8" y1="521.2" x2="428.8" y2="523.2"/>
				<line class="st2" x1="436.5" y1="522.8" x2="436.5" y2="525.9"/>
				<path class="st2" d="M427.1,522.8l0.4,11.5c0,0,0.2,1,0.6,1.2"/>
				<path class="st2" d="M295.7,561.8h-5.5c0,0-1.3,5.6-1.2,14.4c0,0.5-0.7,1.4-0.7,1.4l-0.1,1.8c0,0,0.5,0.5,0.5,0.8
					c0.1,7.6,1.2,12.9,1.2,12.9l5.4,0.4C295.5,593.4,296.5,564,295.7,561.8z"/>
				<path class="st2" d="M290.2,561.8c0,0-0.2,13.1-0.2,31.3"/>
				<path class="st2" d="M303.6,561.8h5.5c0,0,1.3,5.6,1.2,14.4c0,0.5,0.7,1.4,0.7,1.4l0.1,1.8c0,0-0.5,0.5-0.5,0.8
					c-0.1,7.6-1.2,12.9-1.2,12.9l-5.4,0.4C303.9,593.4,302.8,564,303.6,561.8z"/>
				<path class="st2" d="M309.1,561.8c0,0,0.2,13.1,0.2,31.3"/>
				<path class="st2" d="M292.9,416.5c0,0-4.2,0.3-4.4,1.6c-0.2,1.3,8.5,2.3,12.5,2.2c3.9,0,11.6-0.6,10.9-2.2
					c-0.6-1.5-4.2-1.6-4.2-1.6"/>
				<path class="st2" d="M292.9,410.2v7.8c0,0,8.3,1.9,14.9,0c0-1.9,0-7.1,0-7.1"/>
			</g>
			<path class="st2" d="M288.1,400.5c-0.5-1.7,0.2-5.5,0.5-6.4c0.3-1,0.8-2.2,2.6-2.3s2.1,2.3,2.1,2.3s-0.1,6.3-1,7.2"/>
			<path class="st2" d="M235.1,391.1c0,0,40.5,6.5,47.1,11.6c4.2,2,9.7,1.7,21.3,1.8c11.6,0.1,22.1-0.8,22.1-0.8s3.9,0,5.6-2.4
				c1.7-2.5,14.8-7.1,14.8-7.1s11.4-3.6,14.6-3.9"/>
			<path class="st2" d="M282.8,403c0,0,0.6,4.3,4.5,5.1c3.9,0.8,5.6,2.4,7.3,2.7c1.7,0.4,11.9,0,11.9,0s1.6,0.1,2.1-1.1
				c0.9-1.3,2.5-2.5,3.5-2.8s5.8-2,6.3-2.8"/>
			<circle class="st2" cx="309.5" cy="398.7" r="3.2"/>
			<path class="st2" d="M291.8,400.4c0,0,0.2-3.4-1.6-3.3c-2.1,0.2-2,3-2,3s0,10.2-0.1,11.4c-0.1,1.2-4.1,15.3-4.5,16.2
				c1.8,0.7,3.4,1.1,3.4,1.1l4.1-13.1c0,0,0.7-2.5,0.7-4.4C291.7,409.4,291.8,400.4,291.8,400.4"/>
			<path class="st2" d="M283.5,427.7l-1-0.3l-9.1,25.7c0,0-0.5,1.8,0.2,2.2c0,0,3.7,1.4,4.1,1.3s2.6-3.7,3.1-5.2
				c0.5-1.6,0.5-2.2,0.2-2.9s0.3-1.2,0.7-1.6c0.3-0.4,1-2.1,0.9-3s1-1.1,1.5-2c0.5-0.9,3.8-12.6,3.8-12.6L283.5,427.7z"/>
			<g>
				<polyline class="st2" points="348.5,396.7 349.4,397.4 347.7,398.8 349.7,399.2 348,400.5 349.9,401.1 348.5,402.3 350.2,402.7 
					348.8,404.2 350.5,404.8 349.2,406.2 350.8,406.7 349.6,407.8 351.1,408.4 350.3,409.5 				"/>
				<polyline class="st2" points="325.9,403.6 325,404.2 326.8,404.6 325.3,405.7 327,406.1 325.5,407.4 327.3,407.8 325.8,409 
					327.6,409.6 326.1,410.7 327.9,411.6 326.6,412.4 327.6,413 				"/>
				<line class="st2" x1="349.3" y1="397.5" x2="331.2" y2="401.3"/>
				<line class="st2" x1="349.7" y1="399.2" x2="325.2" y2="404.3"/>
				<line class="st2" x1="349.7" y1="401.1" x2="325.8" y2="405.6"/>
				<line class="st2" x1="350.1" y1="402.7" x2="325.9" y2="407.3"/>
				<line class="st2" x1="350.5" y1="404.8" x2="326.2" y2="409.1"/>
				<line class="st2" x1="350.7" y1="406.7" x2="326.4" y2="410.8"/>
				<line class="st2" x1="351.1" y1="408.4" x2="326.8" y2="412.2"/>
			</g>
			<path class="st2" d="M326,413.1l26.2-3.6l2.7,18.3c0,0-5.3,5-12.6,6c-7.2,1.1-13.5-2.1-13.5-2.1L326,413.1z"/>
			<path class="st2" d="M328.6,431.7c0,0,12.7,0.8,26.3-4.1"/>
			<path class="st2" d="M353.1,392.1c0,0-0.2,1.6-2.6,3.3c-2.1,1.6-7.4,3.3-7.4,3.3"/>
			<path class="st2" d="M198.9,347.5c0,0-1.4,40.2,2.2,44.3c3.6,4.1,10.6,7.9,27.8,5.4c17.2-2.5,43-4.9,51.1-5.9
				c8.3-1,72.2,0.3,78.9,0.6c6.7,0.2,43.6,7.9,49.8,10s16.2,5.2,20.3-5.2c4.1-10.4,8.1-23.3,8.5-26.5c0.4-3.2,0.1-6.8-10.1-18.1
				c-7.5-9.5-17.5-28-33.5-34.5"/>
			<path class="st2" d="M377.7,349.6c0,0,29.7,3.9,41.6,9.9c11.9,6,13.7,5.3,16,2.3"/>
			<path class="st2" d="M392.9,320.1c0,0,7.9,1.4,11.9,4"/>
			<path class="st2" d="M382.9,340.7c0,0,16,0,25.2,3.4c5.1,1.9,22.2,11,22.2,11"/>
			<path class="st2" d="M270.3,350.9c0,0,58.2-4.9,80.2-3"/>
			<path class="st2" d="M213.7,364.8c0,0-4.1,2.2-13.4,25.6"/>
			<path class="st2" d="M237.5,355.8c0,0,11.4-2.3,15.4-2.5"/>
			<path class="st2" d="M196.1,296c0,0-11.5,25.3-9.9,34.7s5.5,13.7,5.5,13.7s14.9,15.6,22.7,21c7.8,5.3,30,20,30,20s7.9,5.7,27,6.6
				"/>
			<path class="st2" d="M210.2,311.5c0,0-3,10.4-2.2,16.2c0.9,5.8,6.7,10.4,6.7,10.4s33.8,26.9,45.6,32.6c11.9,5.6,6.1-2.1,6.1-2.1
				s-20-22.5-27.6-29.1S210.2,311.5,210.2,311.5z"/>
			<path class="st2" d="M210,311.2c0,0-16.1-14.7-18.3-22.9s1.6-14.6,7.5-17.5c6-2.9,23.4-6.7,23.4-6.7s-3.1-9.2-1.2-12.5
				s16.3-6.4,16.3-6.4s35.8-3.6,64.7-0.9c28.9,2.7,67.2,8.5,86.1,17.7c19.2,8.2,15.5,15,15.5,15s-2.3,7.8-6.2,8.6
				c-0.5,1-1.1,2.4-1.1,2.4s-5.7,2.1-3.7,7.1c2.7,4.1,4,5.7,3.9,10.6s-3.6,14.3-6.9,20.8c-3.3,6.5-24.8,47.8-35.4,54.5
				c-10.6,6.7-27.8,10-27.8,10"/>
			<path class="st2" d="M225.7,279.8c0,0-9.6,7.3-10.3,16.2c3.3,5.6,14.1,14.9,14.1,14.9s48.6,47.4,52.2,50.4s8.4,6.8,16.3,7
				s24.5-1,28.6-1.8c4.1-0.8,14-5.1,19-12.2c5.1-7.1,24-33.6,25.9-42.8c3.3-10.1-5.5-13.1-5.5-13.1S308.1,269,225.7,279.8z"/>
			<path class="st2" d="M263.7,358.2c0,0-65.9-63.9-67.2-68.5c-1.3-4.6-6.1-11.9,6.7-14.9s57-10.1,90.7-3.8
				c33.7,6.4,85.3,17.9,94.1,26.9c8.8,9-3.5,30.7-3.5,30.7s-17.2,31.3-23.2,37.7c-5.9,6.4-14.3,17.4-31,19.1
				c-16.7,1.7-63.3,2.5-63.3,2.5s-13.3,0.1-28.5-9.6c-15.2-9.7-49.1-34-49.1-46.2s13.6-37.4,13.6-37.4"/>
			<path class="st2" d="M233.7,315c0,0,61.4-14.7,138-3.5"/>
			<path class="st2" d="M239.6,278.4c0,0-7.8,30.6-10.1,32.6"/>
			<path class="st2" d="M231.4,279.2c0,0,3.3,18.4-2.4,31.3"/>
			<path class="st2" d="M218.5,287.7c0,0,0.8,11.2,0.5,13.1"/>
			<path class="st2" d="M215.8,317.2c0,0-3.3,14-4.9,17"/>
			<path class="st2" d="M224.4,326.4c0,0-4.4,12.6-6.4,14.3"/>
			<path class="st2" d="M221.4,343.4c0,0,12.3-2.9,18.7-2.8"/>
			<path class="st2" d="M259.4,339.9c0,0,37.1,1,42.9,1.2c5.8,0.2,50.3,0.1,52.4,0"/>
			<path class="st2" d="M238.8,319.9c0,0,42.7-2.5,58.4,1.2c21.1-3.1,41.2-3.1,49.8-0.4c10.4-0.9,18.2-2.7,22.1-2.5"/>
			<path class="st2" d="M297.2,321.2c0,0,5.9,13.8,5.1,19.7"/>
			<path class="st2" d="M347,320.7c0,0,8.1,17.5,8.4,19.9"/>
			<path class="st2" d="M313.2,319.7c0,0,5.5,16.3,5.5,21.6"/>
			<path class="st2" d="M330,318.8c0,0,7.6,20.3,8.8,22.5"/>
			<path class="st2" d="M233.5,300.4c0,0,14,10.5,15.6,11.7"/>
			<line class="st2" x1="237.8" y1="285.5" x2="263.4" y2="310.2"/>
			<line class="st2" x1="245.3" y1="278" x2="277.5" y2="309.2"/>
			<path class="st2" d="M350.9,292.1c0,0-8,14.7-10.4,16.1"/>
			<line class="st2" x1="367.5" y1="299" x2="362" y2="310.2"/>
			<path class="st2" d="M397.9,285.6c0,0-91.9-36-167.1-20.4c-5.9,0.7-8.2-1.4-8.2-1.4"/>
			<path class="st2" d="M222,250.9c0,0,36.6-4.4,52.6-4.2c16,0.2,45,1.2,72.3,9.1c27.4,7.9,50.7,18.6,57.2,18.3"/>
			<path class="st2" d="M396.6,302.1c0,0-5.3-9.6-18.3-14.1s-55.6-17.4-76.3-19.5c-20.6-2.1-60.2-2.1-68.5-1.7"/>
			<path class="st2" d="M396.1,288.4c0,0-2.8-1-16.7-5.3c-13.9-4.3-58-16.5-93.4-17.6c-37.5-1.1-52.3,1.3-52.3,1.3"/>
			<path class="st2" d="M237.8,245.1c0,0-2.6-4.7-1.2-5.6c1.4-0.9,3.7-0.7,3.7-0.7s-7-7.5-2.9-10.9c4.1-3.3,18.2-6.6,38.2-7
				c19.9-0.4,49,2,60.9,4.8c11.9,2.8,40.1,8,44.5,13c4.3,5,1.3,7.9,1.3,7.9s-1.6,5.2-2.5,5.7c-0.1,1.1-0.8,2.8-1.3,2.9
				s-1.9,1.1-2.1,1.7"/>
			<path class="st2" d="M236.9,228c0,0,20-4.9,37.9-4.8s43.1,0.2,66.7,5.9s41.6,13.5,41.6,13.5"/>
			<path class="st2" d="M240.2,238.8c0,0,38.6-4.8,56.7-4.1c12.6,0.5,60.4,6.7,82.8,17.6"/>
			<path class="st2" d="M378,255c0,0-17.7-7.8-32-10.2c-14.3-2.3-52.5-13.8-101.2-3.9"/>
			<path class="st2" d="M356.1,252c0,0-36.9-14.3-75.9-12.4c-12.3-0.2-35.2,1.4-35.2,1.4"/>
			<path class="st2" d="M204.1,356.8c0,0,0.2,10.4-7.9,13c-8.1,2.6-21.1,7.8-25.1,0s3.9-35.7,3.9-35.7s5.6-43,0.9-58.9
				c-2.5-11.3-8.6-43.9-12.1-51.7s-18.5-56.6-19.3-75.6c-0.2-10.4-1.2-43-1.2-43s3-44.8,4.2-65.9c1.2-21.1,4.2-27.8,9.6-30.1
				c5.4-2.3,20.1-3.6,28.9,6.4c4.5,7.4,4.5,8.3,4.5,8.3s5.6,13.5,3.1,34.9c-0.7,14-3.6,31.2-3.6,31.2s1.8,61.8,2.6,64.9
				c0.8,3,4.1,33.5,7.2,41.3c3.1,7.8-1.8,15.1-1.8,15.1"/>
			<path class="st2" d="M149.1,174.4c0,0,23.5,4.7,28.6,9.6c5.1,4.9,15.4,26.9,20.8,26.9c5.4,0.1,10.9-5.5,10.9-5.5
				s1.9-7.6,1.1-14.7c1.1-7.7,3-46.4-8.7-109.4c1.1-12.8,1.8-24.9,0.1-37.5c-2-5.3-1.4-15.4-11.6-20.4"/>
			<path class="st2" d="M201.9,81.7c0,0-5.5,35.2-11,38.1"/>
			<path class="st2" d="M193,157.6c0,0,4.6,6.6,7.7,10.2s10,14.8,9.9,23"/>
			<path class="st2" d="M210.7,196.4c0,0,24.1,39.5,25.3,44.7"/>
			<path class="st2" d="M197.9,210.9c0,0,21.1,32.8,23.4,39.3"/>
			<path class="st2" d="M208.4,206.4c0,0,18.5,24.2,26.8,39.4"/>
			<path class="st2" d="M208,226.9c0,0,9.1-5.3,10.3-7.1"/>
			<path class="st2" d="M217.4,242.6c0,0,10.4-7.5,10.8-8.5"/>
			<path class="st2" d="M176.8,183.2c0,0,16.1,30.8,19.6,40c3.5,9.1,18.2,42.8,18.2,42.8"/>
			<path class="st2" d="M183.6,12.9c0,0-1.8,47.3-3.3,55.1c-1.5,7.8-5.3,27.4-3.5,39.1c1.8,11.7,10.9,62.4,10.9,62.4
				s3.5,33.1,11.8,38"/>
			<circle class="st2" cx="203" cy="284.3" r="3.4"/>
			<circle class="st2" cx="196.3" cy="331.5" r="3.4"/>
			<circle class="st2" cx="252.8" cy="379.5" r="3.4"/>
			<circle class="st2" cx="333.4" cy="377.3" r="3.4"/>
		</g>
		<polygon class="st2" points="209.6,195.2 211.2,197.3 225.4,221.8 233.7,236.6 236.9,242.8 246.7,270.8 189.4,278.4 189.4,214.2 
			197.9,193.3 208.4,195.5 		"/>
		<polygon class="st2" points="353.1,391.6 353.2,392 353,392.4 348.4,396.2 350.6,411.1 327.5,413.7 327.6,413.1 325.4,401.3 		"/>
		<polygon class="st2" points="162.3,522.5 162.2,523.6 157.2,525.3 168.4,538.7 171,534.7 171.5,525.8 171.7,523.1 171.8,522.6 		
			"/>
		<polygon class="st2" points="436.5,522.5 436.6,523.6 441.6,525.3 430.4,538.7 427.9,534.7 427.3,525.8 427.1,523.1 427.1,522.6 
					"/>
		<polygon class="st2" points="219.7,475.4 220.4,477.1 220.5,477.1 220.7,477.2 221.7,477.5 221.7,477.5 218.6,479.8 217.1,485.2 
			220,490.8 232.4,486.7 233.7,484.4 233.4,483.2 230,478.4 229.8,478.1 228.3,477.7 231.6,475.4 235.4,473 229,470.7 		"/>
		<polygon class="st2" points="379.4,475.4 378.8,477.1 378.6,477.2 378.4,477.2 377.4,477.5 377.4,477.6 380.6,479.8 382,485.2 
			379.1,490.8 366.7,486.7 365.4,484.5 365.7,483.3 369.1,478.4 369.4,478.2 370.8,477.7 367.5,475.4 363.4,473 370.1,470.8 		"/>
		<polygon class="st2" points="256.4,478.4 257.4,483.5 278.9,491.5 287,498.5 289.4,499.6 295.4,556.7 299.3,559.1 300.7,558.9 
			306.6,538.3 311.2,498.9 313.7,497.3 337.5,490.8 343.6,477.3 318.6,469.9 309.9,469.4 280.2,469.9 		"/>
		<polygon class="st2" points="289.1,417.6 309.3,418.1 311.9,419.7 311.6,434.5 290.9,434.8 288.2,433.1 		"/>
		<path class="st0" d="M246.7,278.6l30.4,30.1l1.6,0.4l35.2-1.6l26.9,0.9l0.5,0c0,0,9.9-17.1,9.6-16.1c-0.3,1.1-23.3-9.3-35.4-9.4
			C288.1,277,250.8,276.2,246.7,278.6z"/>
		<path class="st0" d="M367.5,299l-5.5,11.2l9.8,1.3l0.8-4.8C372.6,306.7,372.4,300.9,367.5,299z"/>
		<path class="st0" d="M233.8,300.6l-4,10.4l4.3,4.4l14.7-3.4C249,311.9,239.1,303.8,233.8,300.6z"/>
	</g>
	<g>
		<g>
			<path class="st12" d="M315.1,434.6c0,1.2,0.5,42.5,0.5,42.5s-12.5,6.7-31.5-0.7c0.6-16.9,1.3-42,1.3-42s1.4-1.4,3.1-1.6"/>
			<path class="st12" d="M311.9,432.8c0,0,2.5,0.2,3.1,1.7c-17.4,4.4-29.5-0.1-29.5-0.1"/>
			<g>
				<path class="st12" d="M284.2,469.8c0,0-28.7-11-56.8-3.5c-11.4,1.8-8.5,10.9-8.5,10.9h1.8c0,0,0-1.5,0.7-2
					c1.1-0.7,16.9-3.5,35.4,4.6"/>
				<path class="st8" d="M220.7,477.2c0,0,3.9,2,8.5,0.9s4.5-3.8,4.5-3.8"/>
				<path class="st12" d="M277.1,477c0,0-66.7,6.3-114.3,31.8c0,0-4.5,0.8-5,4.9c-0.5,4.1,0.4,5.6,0.3,6.4s6.3,3.5,12.4,0.8
					c1.2-2.5,3.7-5.2,8.6-6.2c4.9-0.9,46.3-17.3,103.4-18.7c2.7,1.8,4.8,2.6,5.3,2.8"/>
				<path class="st8" d="M170.6,520.7c0,0,4.3,0.2,4.5-4.6"/>
				<path class="st12" d="M315.2,469.8c0,0,28.7-11,56.8-3.5c11.4,1.8,8.5,10.9,8.5,10.9h-1.8c0,0,0-1.5-0.7-2
					c-1.1-0.7-16.9-3.5-35.4,4.6"/>
				<path class="st8" d="M378.7,477.2c0,0-3.9,2-8.5,0.9s-4.5-3.8-4.5-3.8"/>
				<path class="st12" d="M322.3,477c0,0,66.7,6.3,114.3,31.8c0,0,4.5,0.8,5,4.9c0.5,4.1-0.4,5.6-0.3,6.4s-6.3,3.5-12.4,0.8
					c-1.2-2.5-3.7-5.2-8.6-6.2c-4.9-0.9-46.3-17.3-103.4-18.7c-2.7,1.8-4.8,2.6-5.3,2.8"/>
				<path class="st8" d="M428.8,520.7c0,0-4.3,0.2-4.5-4.6"/>
				<path class="st12" d="M287.8,485c0,0,1.5,50.4,2.5,56.9c1,6.5,0,11.9,0,11.9s3.1,5.1,9.6,5.3"/>
				<path class="st12" d="M312,485c0,0-1.5,50.4-2.5,56.9c-1,6.5,0,11.9,0,11.9s-3.1,5.1-9.6,5.3"/>
			</g>
			<g>
				<path class="st12" d="M208.8,490.6c0,0-0.8-10.1,4.3-10.3c5.1-0.3,7.9,7,7.9,7"/>
				<path class="st12" d="M212.9,480.2l4.9-1.2c0,0,5.3,2,6.1,7.4"/>
				<path class="st8" d="M224,478.2v1.1c0,0,3.4,1.5,5.5,0c0-0.6,0-1.3,0-1.3"/>
				<path class="st8" d="M223.9,478.8c0,0-1.2,0.3-1.2,0.8c0,0.5,5.8,2.4,8.3-0.1c-0.3-0.8-1.5-0.7-1.5-0.7"/>
				<line class="st8" x1="222.7" y1="479.6" x2="222.7" y2="483"/>
				<line class="st8" x1="231" y1="479.5" x2="231" y2="484.7"/>
				<path class="st12" d="M219,479.7c0,0,1.4-1,2.8-2"/>
				<path class="st12" d="M229.8,478.1c0,0,2.8,1.2,3.9,5.8"/>
				<polyline class="st8" points="210,483.3 213.1,489.4 212.2,489.6 209.1,485.2 				"/>
				<line class="st8" x1="212.3" y1="480.4" x2="213.6" y2="489"/>
				<line class="st8" x1="214.3" y1="480.4" x2="214.2" y2="489"/>
				<path class="st8" d="M218.3,482.8c0,0-3.1,5.6-3.2,5.9"/>
				<line class="st8" x1="216.5" y1="488.4" x2="219.5" y2="484.6"/>
			</g>
			<g>
				<path class="st12" d="M390.6,490.6c0,0,0.8-10.1-4.3-10.3c-5.1-0.3-7.9,7-7.9,7"/>
				<path class="st12" d="M386.5,480.2l-4.9-1.2c0,0-5.3,2-6.1,7.4"/>
				<path class="st8" d="M375.4,478.2v1.1c0,0-3.4,1.5-5.5,0c0-0.6,0-1.3,0-1.3"/>
				<path class="st8" d="M375.5,478.8c0,0,1.2,0.3,1.2,0.8c0,0.5-5.8,2.4-8.3-0.1c0.3-0.8,1.5-0.7,1.5-0.7"/>
				<line class="st8" x1="376.7" y1="479.6" x2="376.7" y2="483"/>
				<line class="st8" x1="368.4" y1="479.5" x2="368.4" y2="484.7"/>
				<path class="st12" d="M380.4,479.7c0,0-1.4-1-2.8-2"/>
				<path class="st12" d="M369.6,478.1c0,0-2.8,1.2-3.9,5.8"/>
				<polyline class="st8" points="389.4,483.3 386.3,489.4 387.2,489.6 390.3,485.2 				"/>
				<line class="st8" x1="387.1" y1="480.4" x2="385.8" y2="489"/>
				<line class="st8" x1="385.1" y1="480.4" x2="385.2" y2="489"/>
				<path class="st8" d="M381.1,482.8c0,0,3.1,5.6,3.2,5.9"/>
				<line class="st8" x1="382.9" y1="488.4" x2="379.9" y2="484.6"/>
			</g>
			<path class="st12" d="M163.2,521.9c-0.4-0.1-2.1,1,1.2,1.6c2.6,0.4,7.1,0,7.4-0.7c0.3-0.6-1-1.1-1.6-1.2"/>
			<line class="st8" x1="170.1" y1="521" x2="170.1" y2="523.1"/>
			<line class="st12" x1="162.4" y1="522.6" x2="162.4" y2="525.7"/>
			<path class="st12" d="M171.9,522.6l-0.4,11.5c0,0-0.2,1-0.6,1.2"/>
			<g>
				<ellipse class="st86" cx="157" cy="538.9" rx="14.3" ry="14.1"/>
				<ellipse class="st87" cx="157" cy="538.9" rx="12.4" ry="12.2"/>
				<path class="st86" d="M162.4,523.6c-2.1-1.1-6.4-2.5-11.5-0.2c-5.2,2.4-7.6,7.4-7.7,11.7"/>
				<path class="st88" d="M152.8,527.4l3.3,9.7c0,0-0.3,0.1-0.7,0.5c-0.9-0.6-8.2-6.1-8.2-6.1"/>
				<path class="st88" d="M162.8,528l-4.4,8.9c0,0-0.7-0.2-1.2-0.1c-0.3-1.9-1.3-10.1-1.3-10.1"/>
				<path class="st88" d="M168.7,534.7l-8.8,3.6c0,0-0.1-0.3-0.5-0.7c0.6-0.9,6-7.8,6-7.8"/>
				<path class="st88" d="M168.4,544.1l-8.6-3.9c0,0,0.2-0.4,0.2-0.8c1-0.2,9.3-2.3,9.3-2.3"/>
				<path class="st88" d="M161.6,550.3l-2.9-8.7c0,0,0.3-0.1,0.7-0.5c0.9,0.6,7.4,5.5,7.4,5.5"/>
				<path class="st88" d="M152.2,550.2l4.3-8.5c0,0,0.5,0.1,0.9,0.1c0.3,1.9,1,8.2,1.1,9.2"/>
				<path class="st88" d="M145.8,544.1l9-3.7c0,0,0.1,0.3,0.5,0.7c-0.6,0.9-5.8,7.5-5.8,7.5"/>
				<path class="st88" d="M145.5,534.3l9.4,4.2c0,0-0.2,0.4-0.2,0.8c-1,0.2-9.8,2.3-9.8,2.3"/>
			</g>
			<g>
				<ellipse class="st86" cx="442" cy="538.9" rx="14.3" ry="14.1"/>
				<ellipse class="st87" cx="442" cy="538.9" rx="12.4" ry="12.2"/>
				<path class="st86" d="M436.6,523.6c2.1-1.1,6.4-2.5,11.5-0.2c5.2,2.4,7.6,7.4,7.7,11.7"/>
				<path class="st88" d="M446.3,527.4l-3.3,9.7c0,0,0.3,0.1,0.7,0.5c0.9-0.6,8.2-6.1,8.2-6.1"/>
				<path class="st88" d="M436.3,528l4.4,8.9c0,0,0.7-0.2,1.2-0.1c0.3-1.9,1.3-10.1,1.3-10.1"/>
				<path class="st88" d="M430.3,534.7l8.8,3.6c0,0,0.1-0.3,0.5-0.7c-0.6-0.9-6-7.8-6-7.8"/>
				<path class="st88" d="M430.6,544.1l8.6-3.9c0,0-0.2-0.4-0.2-0.8c-1-0.2-9.3-2.3-9.3-2.3"/>
				<path class="st88" d="M437.5,550.3l2.9-8.7c0,0-0.3-0.1-0.7-0.5c-0.9,0.6-7.4,5.5-7.4,5.5"/>
				<path class="st88" d="M446.8,550.2l-4.3-8.5c0,0-0.5,0.1-0.9,0.1c-0.3,1.9-1,8.2-1.1,9.2"/>
				<path class="st88" d="M453.3,544.1l-9-3.7c0,0-0.1,0.3-0.5,0.7c0.6,0.9,5.8,7.5,5.8,7.5"/>
				<path class="st88" d="M453.5,534.3l-9.4,4.2c0,0,0.2,0.4,0.2,0.8c1,0.2,9.8,2.3,9.8,2.3"/>
			</g>
			<path class="st12" d="M435.8,522.1c0.4-0.1,2.1,1-1.2,1.6c-2.6,0.4-7.1,0-7.4-0.7s1-1.1,1.6-1.2"/>
			<line class="st8" x1="428.9" y1="521.2" x2="428.9" y2="523.3"/>
			<line class="st12" x1="436.6" y1="522.8" x2="436.6" y2="525.9"/>
			<path class="st12" d="M427.2,522.8l0.4,11.5c0,0,0.2,1,0.6,1.2"/>
			<line class="st8" x1="294.2" y1="557.5" x2="294.2" y2="561.7"/>
			<path class="st12" d="M295.8,561.8h-5.5c0,0-1.3,5.6-1.2,14.4c0,0.5-0.7,1.4-0.7,1.4l-0.1,1.8c0,0,0.5,0.5,0.5,0.8
				c0.1,7.6,1.2,12.9,1.2,12.9l5.4,0.4C295.6,593.5,296.6,564,295.8,561.8z"/>
			<path class="st8" d="M290.3,561.8c0,0-0.2,13.1-0.2,31.3"/>
			<path class="st12" d="M303.7,561.8h5.5c0,0,1.3,5.6,1.2,14.4c0,0.5,0.7,1.4,0.7,1.4l0.1,1.8c0,0-0.5,0.5-0.5,0.8
				c-0.1,7.6-1.2,12.9-1.2,12.9l-5.4,0.4C304,593.5,303,564,303.7,561.8z"/>
			<path class="st8" d="M309.2,561.8c0,0,0.2,13.1,0.2,31.3"/>
			<line class="st8" x1="296" y1="563.3" x2="303.5" y2="563.3"/>
			<line class="st8" x1="296" y1="582.2" x2="303.5" y2="582.2"/>
			<line class="st8" x1="304.9" y1="557.9" x2="304.9" y2="561.8"/>
			<line class="st12" x1="288.6" y1="418.1" x2="288.6" y2="435.1"/>
			<path class="st12" d="M293,416.5c0,0-4.2,0.3-4.4,1.6c-0.2,1.3,8.5,2.3,12.5,2.2c3.9,0,11.6-0.6,10.9-2.2
				c-0.6-1.5-4.2-1.6-4.2-1.6"/>
			<path class="st12" d="M293,410.2v7.8c0,0,8.3,1.9,14.9,0c0-1.9,0-7.1,0-7.1"/>
		</g>
		<line class="st12" x1="311.9" y1="418.1" x2="311.9" y2="435.3"/>
		<path class="st8" d="M288.2,400.5c-0.5-1.7,0.2-5.5,0.5-6.4c0.3-1,0.8-2.2,2.6-2.3s2.1,2.3,2.1,2.3s-0.1,6.3-1,7.2"/>
		<path class="st12" d="M252.5,394.3c0,0,23.3,3.3,29.8,8.4c4.2,2,9.7,1.7,21.3,1.8c11.6,0.1,22.1-0.8,22.1-0.8s3.9,0,5.6-2.4
			c1.7-2.5,14.8-7.1,14.8-7.1s6.1-2.2,9.4-2.5"/>
		<path class="st12" d="M282.9,403c0,0,0.6,4.3,4.5,5.1s5.6,2.4,7.3,2.7c1.7,0.4,11.9,0,11.9,0s1.6,0.1,2.1-1.1
			c0.9-1.3,2.5-2.5,3.5-2.8c1-0.3,5.8-2,6.3-2.8"/>
		<circle class="st8" cx="309.6" cy="398.8" r="3.2"/>
		<path class="st89" d="M291.9,400.4c0,0,0.2-3.4-1.6-3.3c-2.1,0.2-2,3-2,3s0,10.2-0.1,11.4c-0.1,1.2-4.1,15.3-4.5,16.2
			c1.8,0.7,3.4,1.1,3.4,1.1l4.1-13.1c0,0,0.7-2.5,0.7-4.4C291.8,409.5,291.9,400.4,291.9,400.4"/>
		<path class="st90" d="M283.7,427.7l-1-0.3l-9.1,25.7c0,0-0.5,1.8,0.2,2.2c0,0,3.7,1.4,4.1,1.3c0.4,0,2.6-3.7,3.1-5.2
			c0.5-1.6,0.5-2.2,0.2-2.9c-0.3-0.7,0.3-1.2,0.7-1.6c0.3-0.4,1-2.1,0.9-3s1-1.1,1.5-2s3.8-12.6,3.8-12.6L283.7,427.7z"/>
		<g>
			<polyline class="st91" points="348.6,396.7 349.5,397.5 347.8,398.9 349.8,399.2 348.1,400.6 350,401.1 348.6,402.4 350.3,402.8 
				348.9,404.3 350.6,404.8 349.3,406.2 350.9,406.7 349.7,407.9 351.2,408.5 350.4,409.5 			"/>
			<polyline class="st91" points="326,403.6 325.1,404.2 326.9,404.6 325.4,405.7 327.1,406.2 325.6,407.4 327.4,407.9 325.9,409.1 
				327.7,409.7 326.2,410.7 328,411.6 326.7,412.4 327.7,413.1 			"/>
			<line class="st91" x1="349.4" y1="397.6" x2="331.3" y2="401.3"/>
			<line class="st91" x1="349.8" y1="399.2" x2="325.3" y2="404.3"/>
			<line class="st91" x1="349.8" y1="401.2" x2="325.9" y2="405.7"/>
			<line class="st91" x1="350.2" y1="402.8" x2="326" y2="407.3"/>
			<line class="st91" x1="350.6" y1="404.8" x2="326.3" y2="409.1"/>
			<line class="st91" x1="350.8" y1="406.8" x2="326.5" y2="410.8"/>
			<line class="st91" x1="351.2" y1="408.5" x2="326.9" y2="412.3"/>
		</g>
		<path class="st92" d="M326.1,413.1l26.2-3.6l2.7,18.3c0,0-5.3,5-12.6,6s-13.5-2.1-13.5-2.1L326.1,413.1z"/>
		<path class="st91" d="M328.7,431.8c0,0,12.7,0.8,26.3-4.1"/>
		<path class="st91" d="M353.2,392.2c0,0-0.2,1.6-2.6,3.3c-2.1,1.6-7.4,3.3-7.4,3.3"/>
		<path class="st12" d="M199.5,367.4c0,0-2,20.3,1.6,24.4s10.6,7.9,27.8,5.4s43-4.9,51.1-5.9c8.3-1,72.2,0.3,78.9,0.6
			c6.7,0.2,43.6,7.9,49.8,10c6.2,2.1,16.2,5.2,20.3-5.2c4.1-10.4,8.1-23.3,8.5-26.5c0.4-3.2,0.1-6.8-10.1-18.1
			c-7.5-9.5-17.5-28-33.5-34.5"/>
		<path class="st12" d="M377.8,349.7c0,0,29.7,3.9,41.6,9.9s13.7,5.3,16,2.3"/>
		<path class="st12" d="M393,320.1c0,0,7.9,1.4,11.9,4"/>
		<path class="st12" d="M383,340.8c0,0,16,0,25.2,3.4c5.1,1.9,22.2,11,22.2,11"/>
		<path class="st12" d="M270.4,351c0,0,58.2-4.9,80.2-3"/>
		<path class="st12" d="M213.8,364.9c0,0-4.1,2.2-13.4,25.6"/>
		<path class="st12" d="M237.6,355.8c0,0,11.4-2.3,15.4-2.5"/>
		<path class="st12" d="M196.2,296.1c0,0-11.5,25.3-9.9,34.7s5.5,13.7,5.5,13.7s14.9,15.6,22.7,21c7.8,5.3,30,20,30,20
			s7.9,5.7,27,6.6"/>
		<path class="st12" d="M210.3,311.5c0,0-3,10.4-2.2,16.2c0.9,5.8,6.7,10.4,6.7,10.4s33.8,26.9,45.6,32.6c11.9,5.6,6.1-2.1,6.1-2.1
			s-20-22.5-27.6-29.1C231.3,332.9,210.3,311.5,210.3,311.5z"/>
		<path class="st12" d="M210.1,311.2c0,0-16.1-14.7-18.3-22.9c-2.2-8.3,1.6-14.6,7.5-17.5c6-2.9,23.4-6.7,23.4-6.7
			s-3.1-9.2-1.2-12.5s16.3-6.4,16.3-6.4s35.8-3.6,64.7-0.9c28.9,2.7,67.2,8.5,86.1,17.7c19.2,8.2,15.5,15,15.5,15s-2.3,7.8-6.2,8.6
			c-0.5,1-1.1,2.4-1.1,2.4s-5.7,2.1-3.7,7.1c2.7,4.1,4,5.7,3.9,10.6c-0.1,4.9-3.6,14.3-6.9,20.8s-24.8,47.8-35.4,54.5
			c-10.6,6.7-27.8,10-27.8,10"/>
		<path class="st12" d="M225.8,279.9c0,0-9.6,7.3-10.3,16.2c3.3,5.6,14.1,14.9,14.1,14.9s48.6,47.4,52.2,50.4c3.6,3,8.4,6.8,16.3,7
			s24.5-1,28.6-1.8s14-5.1,19-12.2c5.1-7.1,24-33.6,25.9-42.8c3.3-10.1-5.5-13.1-5.5-13.1S308.2,269.1,225.8,279.9z"/>
		<path class="st8" d="M263.9,358.2c0,0-65.9-63.9-67.2-68.5c-1.3-4.6-6.1-11.9,6.7-14.9s57-10.1,90.7-3.8
			c33.7,6.4,85.3,17.9,94.1,26.9c8.8,9-3.5,30.7-3.5,30.7s-17.2,31.3-23.2,37.7c-5.9,6.4-14.3,17.4-31,19.1
			c-16.7,1.7-63.3,2.5-63.3,2.5s-13.3,0.1-28.5-9.6s-49.1-34-49.1-46.2c0-12.2,8.8-33.2,8.8-33.2"/>
		<path class="st12" d="M233.8,315.1c0,0,61.4-14.7,138-3.5"/>
		<path class="st12" d="M239.7,278.4c0,0-7.8,30.6-10.1,32.6"/>
		<path class="st12" d="M231.5,279.2c0,0,3.3,18.4-2.4,31.3"/>
		<path class="st12" d="M218.6,287.7c0,0,0.8,11.2,0.5,13.1"/>
		<path class="st12" d="M215.9,317.2c0,0-3.3,14-4.9,17"/>
		<path class="st12" d="M224.5,326.4c0,0-4.4,12.6-6.4,14.3"/>
		<path class="st12" d="M221.5,343.4c0,0,12.3-2.9,18.7-2.8"/>
		<path class="st12" d="M259.5,340c0,0,37.1,1,42.9,1.2c5.8,0.2,50.3,0.1,52.4,0"/>
		<path class="st12" d="M238.9,320c0,0,42.7-2.5,58.4,1.2c21.1-3.1,41.2-3.1,49.8-0.4c10.4-0.9,18.2-2.7,22.1-2.5"/>
		<path class="st12" d="M297.3,321.2c0,0,5.9,13.8,5.1,19.7"/>
		<path class="st12" d="M347.1,320.8c0,0,8.1,17.5,8.4,19.9"/>
		<path class="st91" d="M313.4,319.7c0,0,5.5,16.3,5.5,21.6"/>
		<path class="st91" d="M330.1,318.9c0,0,7.6,20.3,8.8,22.5"/>
		<path class="st12" d="M233.6,300.5c0,0,14,10.5,15.6,11.7"/>
		<line class="st12" x1="237.9" y1="285.6" x2="263.5" y2="310.2"/>
		<line class="st12" x1="245.4" y1="278" x2="277.6" y2="309.2"/>
		<path class="st12" d="M351,292.2c0,0-8,14.7-10.4,16.1"/>
		<line class="st12" x1="367.6" y1="299" x2="362.1" y2="310.3"/>
		<path class="st12" d="M398,285.6c0,0-91.9-36-167.1-20.4c-5.9,0.7-8.2-1.4-8.2-1.4"/>
		<path class="st91" d="M222.1,250.9c0,0,36.6-4.4,52.6-4.2c16,0.2,45,1.2,72.3,9.1c27.4,7.9,50.7,18.6,57.2,18.3"/>
		<path class="st8" d="M396.7,302.1c0,0-5.3-9.6-18.3-14.1c-13-4.5-55.6-17.4-76.3-19.5c-20.6-2.1-60.2-2.1-68.5-1.7"/>
		<path class="st8" d="M396.2,288.4c0,0-2.8-1-16.7-5.3c-13.9-4.3-58-16.5-93.4-17.6c-37.5-1.1-52.3,1.3-52.3,1.3"/>
		<path class="st12" d="M237.9,245.2c0,0-2.6-4.7-1.2-5.6c1.4-0.9,3.7-0.7,3.7-0.7s-7-7.5-2.9-10.9c4.1-3.3,18.2-6.6,38.2-7
			c19.9-0.4,49,2,60.9,4.8c11.9,2.8,40.1,8,44.5,13c4.3,5,1.3,7.9,1.3,7.9s-1.6,5.2-2.5,5.7c-0.1,1.1-0.8,2.8-1.3,2.9
			s-1.9,1.1-2.1,1.7"/>
		<path class="st91" d="M237,228c0,0,20-4.9,37.9-4.8c17.8,0.2,43.1,0.2,66.7,5.9s41.6,13.5,41.6,13.5"/>
		<path class="st12" d="M240.3,238.9c0,0,38.6-4.8,56.7-4.1c12.6,0.5,60.4,6.7,82.8,17.6"/>
		<path class="st91" d="M378.1,255.1c0,0-17.7-7.8-32-10.2c-14.3-2.3-52.5-13.8-101.2-3.9"/>
		<path class="st91" d="M356.2,252.1c0,0-36.9-14.3-75.9-12.4c-12.3-0.2-35.2,1.4-35.2,1.4"/>
		<path class="st12" d="M204.2,356.8c0,0,0.2,10.4-7.9,13c-8.1,2.6-21.1,7.8-25.1,0s3.9-35.7,3.9-35.7s5.6-43,0.9-58.9
			c-2.5-11.3-8.6-43.9-12.1-51.7s-18.5-56.6-19.3-75.6c-0.2-10.4-1.2-43-1.2-43s3-44.8,4.2-65.9c1.2-21.1,4.2-27.8,9.6-30.1
			s20.1-3.6,28.9,6.4c4.5,7.4,4.5,8.3,4.5,8.3s5.6,13.5,3.1,34.9c-0.7,14-3.6,31.2-3.6,31.2s1.8,61.8,2.6,64.9
			c0.8,3,4.1,33.5,7.2,41.3c3.1,7.8-1.8,15.1-1.8,15.1"/>
		<path class="st12" d="M149.2,174.5c0,0,23.5,4.7,28.6,9.6c5.1,4.9,15.4,26.9,20.8,26.9c5.4,0.1,10.9-5.5,10.9-5.5
			s1.9-7.6,1.1-14.7c1.1-7.7,3-46.4-8.7-109.4c1.1-12.8,1.8-24.9,0.1-37.5c-2-5.3-1.4-15.4-11.6-20.4"/>
		<path class="st12" d="M202,81.7c0,0-5.5,35.2-11,38.1"/>
		<path class="st12" d="M193.1,157.6c0,0,4.6,6.6,7.7,10.2c3,3.6,10,14.8,9.9,23"/>
		<path class="st12" d="M210.8,196.5c0,0,24.1,39.5,25.3,44.7"/>
		<path class="st8" d="M198,211c0,0,21.1,32.8,23.4,39.3"/>
		<path class="st8" d="M208.5,206.4c0,0,18.5,24.2,26.8,39.4"/>
		<path class="st8" d="M208.1,227c0,0,9.1-5.3,10.3-7.1"/>
		<path class="st8" d="M217.5,242.6c0,0,10.4-7.5,10.8-8.5"/>
		<path class="st12" d="M176.9,183.3c0,0,16.1,30.8,19.6,40c3.5,9.1,18.2,42.8,18.2,42.8"/>
		<path class="st12" d="M183.7,13c0,0-1.8,47.3-3.3,55.1c-1.5,7.8-5.3,27.4-3.5,39.1c1.8,11.7,10.9,62.4,10.9,62.4s3.5,33.1,11.8,38
			"/>
		<circle class="st8" cx="203.1" cy="284.3" r="3.4"/>
		<circle class="st8" cx="196.4" cy="331.6" r="3.4"/>
		<circle class="st8" cx="252.9" cy="379.5" r="3.4"/>
		<circle class="st8" cx="333.5" cy="377.3" r="3.4"/>
	</g>
</g>
<line class="st99" x1="119.3" y1="363.1" x2="119.3" y2="11"/>
<line class="st51" x1="74.4" y1="585.7" x2="74.4" y2="11"/>
<line class="st52" x1="113.2" y1="373.9" x2="181.2" y2="373.9"/>
<line class="st52" x1="68.3" y1="7.9" x2="167.3" y2="7.9"/>
<polygon class="st37" points="119.3,7.9 125.5,18.6 113.2,18.6 "/>
<polygon class="st37" points="74.4,7.9 80.6,18.6 68.3,18.6 "/>
<polygon class="st37" points="119.3,373.8 113.2,363.1 125.5,363.1 "/>
<polygon class="st37" points="74.4,593.5 68.3,582.8 80.6,582.8 "/>
<g>
	<rect x="100.4" y="182" class="st0" width="37.8" height="13.8"/>
	<text transform="matrix(1.0398 0 0 1 103.3833 192.7519)" class="st37 st100 st101">71cm</text>
</g>
<g>
	<rect x="39.6" y="293.3" class="st0" width="70.5" height="13.8"/>
	<text transform="matrix(1.0398 0 0 1 42.565 304.0415)" class="st37 st100 st101">115 - 123cm</text>
</g>
<line class="st53" x1="68.3" y1="593.5" x2="527.6" y2="593.5"/>
<g>
	<line class="st102" x1="207.7" y1="455.5" x2="422.5" y2="455.5"/>
</g>
<line class="st52" x1="200.6" y1="461.6" x2="200.6" y2="390.4"/>
<polygon class="st37" points="201,455.5 211.6,461.6 211.6,449.3 "/>
<line class="st52" x1="433.5" y1="461.6" x2="433.5" y2="383.5"/>
<polygon class="st37" points="433.2,455.5 422.5,461.6 422.5,449.3 "/>
<text transform="matrix(1.0398 0 0 1 355.4605 452.1591)" class="st37 st100 st101">49cm</text>
<line class="st103" x1="474" y1="585.7" x2="474" y2="375.7"/>
<line class="st57" x1="521.5" y1="585.1" x2="521.5" y2="252.4"/>
<g>
	<rect x="443.3" y="476.4" class="st0" width="61.4" height="13.8"/>
	<text transform="matrix(1.0398 0 0 1 446.2603 487.1406)" class="st37 st100 st101">39 a 46cm</text>
</g>
<rect x="460.9" y="376.6" class="st0" width="28.2" height="13.8"/>
<text transform="matrix(1.0398 0 0 1 463.8765 387.3589)" class="st37 st100 st101">9cm</text>
<g>
	<rect x="490.8" y="412.9" class="st0" width="61.4" height="14.3"/>
	<text transform="matrix(1 0 0 1 494.812 424.1157)" class="st37 st100 st104">69 a 77cm</text>
</g>
<line class="st58" x1="417.7" y1="404.8" x2="480.1" y2="404.8"/>
<line class="st52" x1="435.6" y1="363.1" x2="480.1" y2="363.1"/>
<line class="st60" x1="318.8" y1="246" x2="527.6" y2="246"/>
<polygon class="st37" points="521.5,246.8 527.6,257.4 515.3,257.4 "/>
<polygon class="st37" points="521.5,593.5 515.3,582.8 527.6,582.8 "/>
<polygon class="st37" points="474,593.3 467.8,583 480.1,583 "/>
<polygon class="st37" points="474,404.8 467.8,394.5 480.1,394.5 "/>
<polygon class="st37" points="474,404.9 480.1,415.1 467.8,415.1 "/>
<polygon class="st37" points="474,362.7 480.1,373 467.8,373 "/>
</svg>
