<?xml version="1.0" encoding="UTF-8"?>
<!-- Generator: Adobe Illustrator 21.0.0, SVG Export Plug-In . SVG Version: 6.00 Build 0)  -->
<svg version="1.1" id="Camada_1" xmlns="http://www.w3.org/2000/svg" xmlns:xlink="http://www.w3.org/1999/xlink" x="0px" y="0px" viewBox="0 0 394.7 666.6" style="enable-background:new 0 0 394.7 666.6;" xml:space="preserve">
<style type="text/css">
	.st0{fill:none;stroke:#000000;stroke-width:2;stroke-miterlimit:10;}
	.st1{fill:none;stroke:#000000;stroke-width:3;stroke-miterlimit:10;}
</style>
<title>GTS</title>
<polyline class="st0" points="255.5,450.1 253.6,451.5 255.8,452 253.8,453.4 255.8,454.1 254.1,455.4 256,456 254.3,457.5   256.1,458.2 254.6,459.6 256.3,460.3 254.9,461.5 256.5,462.2 255.5,463.3 "/>
<polyline class="st0" points="228.1,451.3 230,452.5 228.3,453.7 230.1,454.4 228.4,455.4 230.3,456 228.5,457.1 230.4,457.7   228.7,458.9 230.5,459.6 228.8,460.8 230.7,461.5 229,462.6 230.9,463.7 229.4,464.5 230.4,465.3 "/>
<line class="st0" x1="255.4" y1="450.2" x2="228.3" y2="453.7"/>
<line class="st0" x1="255.8" y1="452" x2="228.5" y2="455.5"/>
<line class="st0" x1="255.6" y1="454.2" x2="229.1" y2="457"/>
<line class="st0" x1="255.8" y1="455.9" x2="229.1" y2="458.8"/>
<line class="st0" x1="256.1" y1="458.2" x2="229.2" y2="460.8"/>
<line class="st0" x1="256.2" y1="460.4" x2="229.4" y2="462.7"/>
<line class="st0" x1="256.5" y1="462.2" x2="229.6" y2="464.3"/>
<path class="st1" d="M228.6,465.2l28.9-1.7l1.4,20.2c-4.2,3.1-9.1,5-14.3,5.5c-5.1,0.2-10.1-1-14.6-3.4L228.6,465.2z"/>
<path class="st0" d="M229.9,485.8c9.7,1,19.6,0.2,29-2.3"/>
<path class="st1" d="M231.6,486.6c0,1.4,0.7,45.6,0.7,45.6s-14.4,7.7-36.3-0.8c0.7-19.5,1.5-48.4,1.5-48.4c1.1-0.8,2.3-1.4,3.6-1.8"/>
<path class="st1" d="M197.6,483c0,0,7.9,5.9,32.3,1.5"/>
<path class="st1" d="M178.9,440.8c0,0-45.9,6.6-51.5,7.6c-3.2,0.4-5.9,2.4-7.3,5.3l-5.1,12.3c0.5,1.1,1.9,1.6,3,1.1  c0.2-0.1,0.4-0.2,0.5-0.3c1-3.2,4.7-11,4.7-11c1.1-1.7,2.9-3,4.9-3.6c8.2-1.7,57.1-8.4,57.1-8.4"/>
<polyline class="st0" points="114.7,465.5 111.4,465.3 113.9,467.9 120.5,469.5 118.6,466.9 "/>
<path class="st1" d="M111.2,465.3c0,0-12.5,16.2-14.1,19s-1.5,8.4,2.4,8.5c1.4,0.4,2.8,1.1,4,2.1c0,0,1.3,1.1,4.3,0.4  c1.8,0.2,2.4,0.6,3.6,0.3s3.1-1.6,4.2-4.8s5.2-21,5.2-21"/>
<path class="st0" d="M113.9,467.9l-6.5,11.7c0,0,0.8,4.5,5.8,1.5c2-3.9,3.8-7.9,5.4-12c0,0-3.2,14.6-4,17.5c-0.9,3.5-2,5.2-2.9,5.5  c-1,0.2-2.1,0.2-3.1,0.1c-1.4,0-2.9,0.6-3.7,0.2c-1-0.8-2.2-1.4-3.4-1.8c-3.5-0.6-1.7-4.8-0.4-7.2s10.9-17,10.9-17"/>
<path class="st1" d="M196.1,523.8c0,0-33.1-12.6-65.3-4c-13.1,2.1-9.8,12.5-9.8,12.5h2c0,0,0.1-1.7,0.8-2.3c1.3-0.9,19.4-4,40.8,5.3  "/>
<path class="st0" d="M123,532.3c3.1,1.4,6.5,1.7,9.8,1.1c5.3-1.2,5.2-4.4,5.2-4.4"/>
<path class="st1" d="M188,532.1c0,0-76.7,7.3-131.6,36.6c0,0-5.1,0.9-5.7,5.6s0.5,6.5,0.3,7.4s7.2,4,14.3,0.9c1.4-2.9,4.3-6,9.9-7.1  s53.3-19.9,118.9-21.6c1.9,1.3,4,2.4,6.1,3.2"/>
<path class="st0" d="M65.4,582.3c0,0,5,0.3,5.2-5.3"/>
<path class="st1" d="M231.9,523.8c0,0,33.1-12.6,65.3-4c13.1,2.1,9.8,12.5,9.8,12.5h-2.1c0,0,0-1.7-0.8-2.3  c-1.3-0.9-19.4-4-40.8,5.3"/>
<path class="st0" d="M304.9,532.3c-3.1,1.4-6.5,1.7-9.8,1.1c-5.3-1.2-5.2-4.4-5.2-4.4"/>
<path class="st1" d="M240,532.1c0,0,76.7,7.3,131.6,36.6c0,0,5.1,0.9,5.7,5.6s-0.5,6.5-0.3,7.4s-7.2,4-14.3,0.9  c-1.4-2.9-4.3-6-9.9-7.1s-53.3-19.9-118.9-21.6c-1.9,1.3-4,2.4-6.1,3.2"/>
<path class="st0" d="M362.5,582.3c0,0-5,0.3-5.2-5.3"/>
<path class="st1" d="M200.3,541.3c0,0,1.8,58,2.9,65.5c0.7,4.6,0.7,9.2,0,13.8c2.5,3.7,6.6,5.9,11.1,6.1"/>
<path class="st1" d="M228.2,541.3c0,0-1.8,58-2.9,65.5c-0.7,4.6-0.7,9.2,0,13.8c-2.5,3.7-6.6,5.9-11.1,6.1"/>
<path class="st1" d="M109.4,547.7c0,0-0.9-11.6,5-11.9s9.1,8,9.1,8"/>
<path class="st1" d="M114.1,535.8l5.7-1.3c0,0,6.1,2.3,7,8.6"/>
<path class="st0" d="M126.9,533.5v1.3c0,0,4,1.8,6.3,0v-1.5"/>
<path class="st0" d="M126.7,534.2c0,0-1.3,0.3-1.3,0.9s6.7,2.7,9.5-0.1c-0.4-0.9-1.7-0.8-1.7-0.8"/>
<line class="st0" x1="125.4" y1="535.1" x2="125.4" y2="539"/>
<line class="st0" x1="134.9" y1="535" x2="134.9" y2="540.9"/>
<path class="st1" d="M121.1,535.1c0,0,1.6-1.1,3.3-2.3"/>
<path class="st1" d="M133.6,533.4c0,0,3.2,1.3,4.5,6.6"/>
<polyline class="st0" points="110.7,539.3 114.3,546.3 113.3,546.6 109.7,541.5 "/>
<line class="st0" x1="113.4" y1="536" x2="114.9" y2="545.9"/>
<line class="st0" x1="115.7" y1="536" x2="115.6" y2="545.9"/>
<path class="st0" d="M120.3,538.8c0,0-3.6,6.4-3.7,6.8"/>
<line class="st0" x1="118.2" y1="545.2" x2="121.7" y2="540.8"/>
<path class="st1" d="M318.5,547.7c0,0,0.9-11.6-5-11.9s-9,8.1-9,8.1"/>
<path class="st1" d="M313.9,535.8l-5.7-1.3c0,0-6.1,2.3-7,8.6"/>
<path class="st0" d="M301.1,533.5v1.3c0,0-4,1.8-6.3,0v-1.5"/>
<path class="st0" d="M301.2,534.2c0,0,1.4,0.3,1.4,0.9s-6.7,2.7-9.5-0.1c0.4-0.9,1.7-0.8,1.7-0.8"/>
<line class="st0" x1="302.6" y1="535.1" x2="302.6" y2="539"/>
<line class="st0" x1="293" y1="535" x2="293" y2="540.9"/>
<path class="st1" d="M306.9,535.1c0,0-1.6-1.1-3.3-2.3"/>
<path class="st1" d="M294.4,533.4c0,0-3.2,1.3-4.5,6.6"/>
<polyline class="st0" points="317.2,539.3 313.6,546.3 314.7,546.6 318.2,541.5 "/>
<line class="st0" x1="314.5" y1="536" x2="313.1" y2="545.9"/>
<line class="st0" x1="312.2" y1="536" x2="312.3" y2="545.9"/>
<path class="st0" d="M307.7,538.8c0,0,3.6,6.4,3.7,6.8"/>
<line class="st0" x1="309.7" y1="545.2" x2="306.3" y2="540.8"/>
<path class="st1" d="M57,583.8c-0.5-0.1-2.5,1.2,1.4,1.8c3,0.5,8.1,0,8.5-0.8s-1.2-1.3-1.8-1.4"/>
<line class="st0" x1="64.9" y1="582.7" x2="64.9" y2="585.1"/>
<line class="st1" x1="56" y1="584.6" x2="56" y2="588.2"/>
<path class="st1" d="M66.9,584.6l-0.5,13.2c0,0-0.3,1.1-0.7,1.4"/>
<ellipse class="st0" cx="49.8" cy="603.3" rx="16.5" ry="16.2"/>
<ellipse class="st0" cx="49.8" cy="603.3" rx="14.3" ry="14.1"/>
<path class="st0" d="M56,585.8c-7.5-3.8-16.7-0.7-20.5,6.8c-1,2-1.6,4.3-1.6,6.5"/>
<path class="st0" d="M44.9,590.1l3.8,11.2c-0.3,0.1-0.6,0.3-0.8,0.6c-1-0.7-9.5-7.1-9.5-7.1"/>
<path class="st0" d="M56.4,590.8l-5.1,10.3c-0.4-0.1-0.9-0.2-1.3-0.1c-0.4-2.2-1.5-11.7-1.5-11.7"/>
<path class="st0" d="M63.3,598.5l-10.2,4.2c-0.1-0.3-0.3-0.6-0.5-0.8c0.7-1,6.8-9,6.8-9"/>
<path class="st0" d="M62.9,609.3l-9.9-4.5c0.2-0.3,0.2-0.6,0.3-0.9c1.2-0.2,10.7-2.6,10.7-2.6"/>
<path class="st0" d="M55,616.4l-3.4-10c0.3-0.1,0.6-0.3,0.8-0.5c1,0.7,8.5,6.3,8.5,6.3"/>
<path class="st0" d="M44.3,616.3l5-9.7c0.3,0.1,0.7,0.1,1.1,0.1c0.4,2.2,1.2,9.4,1.3,10.6"/>
<path class="st0" d="M36.9,609.3l10.4-4.2c0.1,0.3,0.3,0.6,0.5,0.8c-0.7,1-6.6,8.7-6.6,8.7"/>
<path class="st0" d="M36.5,598l10.8,4.8c-0.2,0.3-0.2,0.6-0.3,0.9c-1.2,0.2-11.2,2.6-11.2,2.6"/>
<ellipse class="st0" cx="377.7" cy="603.3" rx="16.5" ry="16.2"/>
<ellipse class="st0" cx="377.7" cy="603.3" rx="14.3" ry="14.1"/>
<path class="st0" d="M371.5,585.8c7.5-3.8,16.7-0.7,20.5,6.8c1,2,1.6,4.3,1.6,6.5"/>
<path class="st0" d="M382.6,590.1l-3.8,11.2c0.3,0.1,0.6,0.3,0.8,0.6c1-0.7,9.5-7.1,9.5-7.1"/>
<path class="st0" d="M371.1,590.8l5.1,10.3c0.4-0.1,0.9-0.2,1.3-0.2c0.4-2.2,1.5-11.7,1.5-11.7"/>
<path class="st0" d="M364.3,598.5l10.2,4.2c0.1-0.3,0.3-0.6,0.5-0.8c-0.7-1-6.9-9-6.9-9"/>
<path class="st0" d="M364.6,609.3l9.9-4.4c-0.2-0.3-0.2-0.6-0.3-0.9c-1.2-0.2-10.7-2.6-10.7-2.6"/>
<path class="st0" d="M372.5,616.4l3.4-10c-0.3-0.1-0.6-0.3-0.8-0.5c-1,0.7-8.5,6.3-8.5,6.3"/>
<path class="st0" d="M383.3,616.3l-5-9.7c-0.3,0.1-0.7,0.1-1.1,0.1c-0.4,2.2-1.1,9.4-1.3,10.6"/>
<path class="st0" d="M390.7,609.3l-10.4-4.2c-0.1,0.3-0.3,0.6-0.5,0.8c0.7,1,6.6,8.7,6.6,8.7"/>
<path class="st0" d="M391,598l-10.8,4.8c0.2,0.3,0.2,0.6,0.3,0.9c1.2,0.2,11.2,2.6,11.2,2.6"/>
<path class="st1" d="M370.5,584c0.5-0.1,2.5,1.2-1.4,1.8c-3,0.5-8.1,0-8.5-0.8s1.2-1.3,1.8-1.4"/>
<line class="st0" x1="362.7" y1="582.9" x2="362.7" y2="585.3"/>
<line class="st1" x1="371.5" y1="584.8" x2="371.5" y2="588.4"/>
<path class="st1" d="M360.7,584.8l0.5,13.2c0,0,0.3,1.1,0.7,1.4"/>
<line class="st0" x1="207.6" y1="624.8" x2="207.6" y2="629.5"/>
<path class="st1" d="M209.6,629.7h-6.3c-1.1,5.5-1.5,11-1.4,16.6c-0.1,0.6-0.4,1.1-0.8,1.6l-0.1,2c0,0,0.6,0.6,0.6,0.9  c0.1,5,0.5,10,1.4,14.9l6.3,0.4C209.3,666.1,210.4,632.2,209.6,629.7z"/>
<path class="st0" d="M203.2,629.7c0,0-0.3,15-0.3,36"/>
<path class="st1" d="M218.6,629.7h6.3c1.1,5.5,1.5,11,1.4,16.6c0.1,0.6,0.4,1.1,0.8,1.6l0.1,2c0,0-0.6,0.6-0.6,0.9  c-0.1,5-0.5,10-1.4,14.9l-6.3,0.4C218.9,666.1,217.7,632.2,218.6,629.7z"/>
<path class="st0" d="M224.9,629.7c0,0,0.3,15,0.3,36"/>
<line class="st0" x1="209.7" y1="631.4" x2="218.4" y2="631.4"/>
<line class="st0" x1="209.7" y1="653.2" x2="218.4" y2="653.2"/>
<line class="st0" x1="220" y1="625.2" x2="220" y2="629.7"/>
<line class="st1" x1="201.1" y1="464.3" x2="201.1" y2="484.6"/>
<path class="st1" d="M206.2,462.5c0,0-4.8,0.4-5.1,1.9s9.8,2.6,14.3,2.6s13.3-0.7,12.6-2.6s-4.8-1.9-4.8-1.9"/>
<path class="st1" d="M206.3,455.2v9c0,0,9.6,2.2,17.1,0v-8.1"/>
<path class="st1" d="M184.6,442.8c0,0,1.7,3.5,3.8,3.9s16.6,1.7,16.6,1.7"/>
<path class="st1" d="M188.8,446.7c0,0,2.4,2.3,7.7,3.5c6.2,1.4,12,2.5,12,2.5s5.5,0.6,7.9,0.6s13.1-0.8,13.1-0.8"/>
<path class="st1" d="M198.4,450.6c0,0,6.4,3.9,8.4,4.3s12.3,0.8,13.2,0.7c3.2-0.7,6.4-1.6,9.6-2.7"/>
<path class="st1" d="M206.1,454.7c-0.1,0.8,0.4,1.5,1.1,1.8c1.3,0.6,14.2,0.8,15.1,0.4c0.9-0.4,1.6-1.2,2-2.2"/>
<path class="st1" d="M132.1,417.3c0,0,16.8,7.7,21.5,10.1c9.8,5,18,13.5,50.1,20.7s79.2-1.4,79.2-1.4s88.8-19.6,99.5-30.4  c8.1-12.9,6-47.5,6-47.5s-6.4-12-31.3-19.9s-95.5-17.3-129.1-10.6c-33.8,3.9-52.5,7.5-52.5,7.5"/>
<path class="st1" d="M51.5,393.8c0,0-2.8,7.5-2.6,10.1s1.1,6.5,10.1,7.6c6.5,0.6,13,0.8,19.4,0.5"/>
<path class="st1" d="M25.4,354.4c0,0-0.6,22,7,25.2s10.7,3,10.7,3"/>
<path class="st1" d="M171.5,309.3c2.9,3.3,5.4,6.9,7.5,10.8c3.1,6.1-4.8,29.7-4.8,29.7s-22.9,57-32.9,63.5s-29.1,4.6-29.1,4.6  s-11-1.9-31.1-5.3s-23.2-10.7-36.4-27.9c-12.7-16.6-23-38.4-23-38.4s-3.2-4.2-0.9-16.4s5.1-21.8,5.1-21.8s-11.8-17-6.6-28  c4.2-8.2,19.5-10.2,19.5-10.2s-0.6-10.6-0.3-12.1s2.4-5.8,10-6.8s36.2-3.1,54.7,1.6s36.8,7.7,70.9,29.9c7.2,9.2,2.4,20,2.4,20  S176,308.8,171.5,309.3z"/>
<path class="st1" d="M38.7,269.8c0,0,37.6-7.9,83.9,17.6s41.9,20,53.8,15.4"/>
<path class="st0" d="M38.5,257.3c0,0,3.5-7.8,34.3-3.6c30.8,4.2,61.9,25.2,61.9,25.2s16.4,11.9,27.9,12.4s14-4.3,14-4.3"/>
<path class="st1" d="M48.2,286c0,0-7,8.8-5.4,15.3s46.6,80.1,46.6,80.1s6.2,8.3,11.3,9.2s12.8,1.8,12.8,1.8s8.3,1.4,15.3-6.8  c7-8.2,19.4-46.5,20.6-51.7s0.5-10.6-5.4-15.1S95.7,280.8,48.2,286z"/>
<path class="st1" d="M25.8,308c0,0,47,78.1,48.3,82.1c-5.6-6-26.1-31.2-30.8-39.3s-8.1-13.5-6.6-24.5"/>
<path class="st0" d="M51.6,268.5c0,0,39.6-0.1,93.6,35.8c16.2,9.5,26.3,4.9,26.3,4.9"/>
<path class="st0" d="M51.2,268.4c0,0,70,15.6,91.5,40.8c13.3,11.1,12.9,24.2,12.9,24.2c-0.6,19.2-4.1,38.2-10.3,56.3  c-3.1,11-13.4,26.3-16.7,27.7"/>
<ellipse transform="matrix(0.6151 -0.7884 0.7884 0.6151 -216.143 133.8247)" class="st0" cx="29" cy="288.3" rx="3.3" ry="3.6"/>
<ellipse transform="matrix(0.9925 -0.1226 0.1226 0.9925 -41.091 5.7584)" class="st0" cx="26.3" cy="336.9" rx="3.3" ry="3.6"/>
<ellipse transform="matrix(0.5 -0.866 0.866 0.5 -311.3891 251.5133)" class="st0" cx="62.1" cy="395.4" rx="4.2" ry="2.8"/>
<ellipse transform="matrix(0.3196 -0.9475 0.9475 0.3196 -301.5177 387.144)" class="st0" cx="118.8" cy="403.5" rx="4.4" ry="2"/>
<path class="st1" d="M78.3,363.1c0,0,47.8-10.5,65.5-11.8"/>
<path class="st1" d="M80.9,367.4c0,0,39.2,0.7,54.5,5.9"/>
<path class="st1" d="M161.4,379.2c0,0,22,6,36,16.7s28.1,15.3,59.9,11.4"/>
<path class="st1" d="M376.3,379.3c0,0,9.7-3.5,12.3-7.8"/>
<path class="st1" d="M97,359.2c14.4-1,28.8,0,42.9,2.9"/>
<path class="st1" d="M166.7,367.4c0,0,4.4,0.7,9.6,2c6.1,0.9,23.8,1.1,31.8,3.7s30.7,6.4,44.4,23.5c10.4,13,4.1,30.8,4.1,30.8  l-6.5,23.3"/>
<path class="st1" d="M190.3,343.4c0,0,49.5-0.6,62.4,6.6c6.9,0,27.8-2.7,47.1,6.3c11.9,0,29.8-3.1,46.4,4.4s29.5,13.3,33.5,24.4  s-1.5,34.1-1.5,34.1"/>
<path class="st1" d="M172.3,368.5c0,0,73.2-12,80.4-18.5"/>
<path class="st0" d="M181.4,369.9c0,0,78.2-10.2,86.4-20"/>
<path class="st0" d="M190.3,370.5c13.7,0,27.4-1.3,40.9-4c20.8-4.3,48.1-9.5,52-15.5"/>
<path class="st1" d="M211.7,374.2c0,0,79-8.2,88.1-17.9"/>
<line class="st1" x1="53.5" y1="285.6" x2="52.7" y2="320"/>
<line class="st1" x1="48.5" y1="345.9" x2="47" y2="356.3"/>
<path class="st1" d="M108.1,297.1c0,0-3.9,49.9-13.4,62.5"/>
<path class="st1" d="M145.3,266.2l56.2-2.4c0,0,9,38.1-14,80"/>
<path class="st1" d="M230.5,331.8c0,0,3.4,5.1,3.9,5.5"/>
<path class="st1" d="M238.9,302.5c0,0-2.5,10.4,6,20.3s10.9,13.3,10.9,13.3"/>
<line class="st1" x1="239.5" y1="299" x2="264.8" y2="336.1"/>
<path class="st1" d="M281.5,337l-36.7-54.1c0,0-0.9-1,0-3.9c1.3-3.3,2.7-6.5,4.4-9.6c0,0,1-3,6.8-3.5s39.6-0.2,61.8,8.6  s35.6,17.1,35.6,17.1s7.1,4,4.5,11.9s-20,40.8-20,40.8"/>
<path class="st1" d="M233.4,256.9c0,0,11.1-3.1,13.5-3.6c-0.8-1.1-1.8-8.4-1.9-10.3s0.9-4.8,4.7-6s41.5-5.2,70.8,1.2  s54.2,15.6,65,23.9c5.1,4-1.8,15.6-1.8,15.6s-0.7,4-2.8,4.5s-1.9,1.9-1.2,2.6s9,6.9,6.1,17.6s-24.6,47.9-24.6,47.9"/>
<path class="st1" d="M247.3,253c0,0,32.3-4.4,58.3,1.3s55.2,20.1,55.2,20.1s13,6.2,22.9,4"/>
<path class="st0" d="M245.8,239.9c0,0,22.3-3.3,39.1-2.6s50.1,10.2,58.2,13.8s22.3,9.5,22.3,9.5s14.7,7,21.3,3.2"/>
<path class="st0" d="M234.9,261.5c0,0,29.7-7.1,51.4-2.8s55.8,13.2,72.1,26s7.7,34.1,7.7,34.1l-13.6,28.8"/>
<path class="st0" d="M379.5,283c0,0-8.6-0.9-27.7-10.1s-55.2-17.5-55.2-17.5s-37.2-6.6-62.6,3.6"/>
<path class="st1" d="M49.4,250.9c0,0-10.1-55.7-18.4-66.5"/>
<path class="st1" d="M32.1,271.3c0,0-4.4-47.8-9.5-61.9s-5.5-33-13.4-49.6s-11-35.3-6.9-45.6s35-46.4,39.3-60.8s13.6-40,31-50.2  s91.8,11.6,91.8,11.6s7.7,8.5,11.5,18.6S189,78.6,197,87.8s18.1,25.9,20,30.8s5.1,17.3,1.5,33.5s-6.9,32.6-10.8,36.4  c0,0,32.2,78.2,33.1,96.7s-12.6,53.1-12.6,53.1"/>
<path class="st1" d="M14.6,175.2c0,0,23.6,12.9,29.9,17.4s29.4,20.8,40,22.8s93-0.5,98.8-2.5s24.3-24.3,24.3-24.3"/>
<path class="st1" d="M71.5,165.1c0,0,10.8,8.4,14.5,25.2c3.1,14,1.2,22.2-1.8,25"/>
<path class="st1" d="M86.2,212.1c0,0-31.3-12.9-42.2-32.4s-29.8-53.2-21.6-74.8s27.7-31.1,34.5-45S77,8.6,85.2,6.2"/>
<path class="st1" d="M72.6,3.2c0,0,9.9-1.1,13.3,3s6.6,13.9,6.3,29.2s-6,64.9-18.9,85.6"/>
<path class="st1" d="M164.3,14.8c0,0,16.1,27.3,1.7,110.5"/>
<path class="st1" d="M170,163c0,0,15.8,13.4,13.4,49.9"/>
<path class="st1" d="M94.3,105l-24.3,18.3c-2.3,2.3-3.6,5.4-3.7,8.7c-0.3,5.5-0.4,26.8-0.4,26.8s1.4,7.4,7,6.3s25.9-7.1,25.9-7.1  s7.7-1.9,7.7-12.6v-35.2C106.6,110.2,103.6,97.9,94.3,105z"/>
<path class="st1" d="M138.3,105c0,0-9.5-8.5-12.3,4.8c0.6,15.4,3.3,38.1,3.3,38.1s0.9,6.6,6.6,8.3s28.5,7.3,28.5,7.3s8.3,2.2,9-7.4  c-0.8-8.2-3.7-23.4-3.7-23.4c-0.8-4.2-3.6-7.9-7.4-9.8C155.7,117.8,138.3,105,138.3,105z"/>
<path class="st0" d="M73.7,128.6c-1.7,1.3-2.8,3.3-3.1,5.4c-0.1,4.3-0.6,20.9-0.6,20.9s-0.5,2.8,1.8,2.6s26-7.2,26-7.2  s2.9-1.5,3.1-6.6s0.4-30.8,0.4-30.8s0.1-4.7-4.2-1.7S73.7,128.6,73.7,128.6z"/>
<path class="st0" d="M82.7,121.8v24.3c0,0,0.7,5.3-2.2,6.3S70,155.4,70,155.4"/>
<line class="st0" x1="82.1" y1="150.8" x2="99.5" y2="148.6"/>
<path class="st0" d="M134.7,110.2c0,0-3.8-3.3-3.8,1.4s2.6,32.4,2.6,32.4s0.3,5.3,4,6.4s26.2,6.6,26.2,6.6s3.8,1.8,3.3-2.6  s-3.3-21.3-3.3-21.3s-1-2.9-5.2-5.8C151.6,122.9,134.7,110.2,134.7,110.2z"/>
<path class="st0" d="M131.6,122.3l11.8,8.5c0,0,4,2.9,4.4,5s3.3,18,3.3,18"/>
<line class="st0" x1="147.6" y1="135.2" x2="163.6" y2="132.9"/>
<path class="st0" d="M85.8,216.1c0,0,12,32.6,13,35.6"/>
<path class="st0" d="M182.1,212.8c0,0,17.3,40.1,19.4,51"/>
<path class="st0" d="M91.5,231.6c0,0,73.1-1.8,96.3-5.2"/>
<path class="st0" d="M98.2,250.4c0,0,85.1-4.7,96.9-5.5"/>
</svg>