<svg xmlns="http://www.w3.org/2000/svg" viewBox="0 0 438.17 728.86"><defs><style>.cls-1,.cls-16,.cls-2,.cls-3,.cls-8{fill:#fff;}.cls-1,.cls-10,.cls-11,.cls-12,.cls-13,.cls-16,.cls-17,.cls-18,.cls-19,.cls-2,.cls-4,.cls-5,.cls-6,.cls-7,.cls-8,.cls-9{stroke:#1d1d1b;}.cls-1,.cls-11,.cls-12,.cls-13,.cls-16,.cls-17,.cls-19,.cls-4,.cls-5,.cls-6,.cls-7,.cls-8,.cls-9{stroke-miterlimit:10;}.cls-2{stroke-linejoin:bevel;}.cls-10,.cls-11,.cls-12,.cls-13,.cls-17,.cls-18,.cls-19,.cls-4,.cls-5,.cls-6,.cls-7,.cls-9{fill:none;}.cls-4,.cls-8{stroke-width:3px;}.cls-6{stroke-width:0.93px;}.cls-11,.cls-18,.cls-7{stroke-width:2px;}.cls-9{stroke-width:1.5px;}.cls-10,.cls-18{stroke-linejoin:round;}.cls-11,.cls-12{stroke-linecap:round;}.cls-13{stroke-width:0.59px;}.cls-14{fill:#1d1d1b;}.cls-15{isolation:isolate;}.cls-16{stroke-width:0.75px;}.cls-17{stroke-width:0.91px;}.cls-19{stroke-width:0.96px;}</style></defs><title>Diagonal vetor gamma_1</title><g id="Camada_2" data-name="Camada 2"><g id="Camada_1-2" data-name="Camada 1"><g id="Gamma"><path class="cls-1" d="M18.75,635.4A17.58,17.58,0,0,0,4.14,643c-5.58,8.12,0,18.66,0,18.66,3,15.52,16.45,14.76,16.45,14.76,19.8-.2,17-23.92,17-23.92l.19-16.55S30.39,641.22,18.75,635.4Z"/><path class="cls-1" d="M383.75,637.59a17.58,17.58,0,0,1,14.62,7.57c5.58,8.12,0,18.66,0,18.66-1.3,6.8-4.67,10.58-8.05,12.68a17.31,17.31,0,0,1-15.1,1.27c-15-5.43-10.31-23.08-10.31-23.08l-.29-20.9S372.11,643.42,383.75,637.59Z"/><path class="cls-2" d="M289.76,577.13l-.79,1.73s-2.7-.08-5.62,12l32.18,8s4.8-15.65-3.24-19.65l-4.3-.86-4.46.7v-2.57Z"/><path class="cls-3" d="M196,686.27v3.39h-6.12l-2.07,4.57.4,28.49,2.27,5.14h6.17s1.11-1.14,1-6.27,0-6.44,0-6.44l10.06-.08,0,9.89s.33,2.9,1,2.9h6.17s2.5-3.45,2.92-6.28-.07-26.65-.07-26.65l-2.28-5.27h-6.58l-.2-2.09Z"/><path class="cls-3" d="M159.6,33.94c-2.6-13-10.09-16.67-10.09-16.67s-7.19-4.43-30.59-9.79-35.48-6.12-41.6-6S63.4,5,55.75,9,47.34,21.4,47.34,21.4L31.28,82s-7.49,19.73-8.41,34.41c0,0-2.75,27.68-2.75,33s4.43,42.36,4.43,42.36,2.91,23.56,8.41,48.95,6.12,13.91,6.58,37.16.15,30.74.15,30.74-8.18,1.15-9.67,8.84,2.87,31.43,2.87,31.43S35,363.58,35,366.22a95.91,95.91,0,0,1-3.21,18.47c-1.6,4.82-4.7,17.09-4.36,18.92s.69,3.83,3.56,3.52l.57,1.3a23.94,23.94,0,0,0-5.27,14c-.46,8.71-.12,17.89,7.45,28.9,0,0,6.2,8.72,11.36,8.84,0,0,8.72,12.73,12.62,15.71s12.27,3.53,12.27,3.53l46.11,6.66a31.35,31.35,0,0,0,7.23,0,40.63,40.63,0,0,0,5.85-.92l10.32,2,35,4.38,73.87,7.32,46.81,5.28a110.45,110.45,0,0,0,22.82,0c11-1.38,31.88-5.4,35.55-7s75-23.66,75-23.66,7.19-4.13,8-5.66-.58-52.21-1.49-56.56-5.17-11.36-15.72-14S368.3,387,360.61,386.29s-50.35.35-83.73,14.46c0,0-33.15,9.17-36.71,9.17a4.66,4.66,0,0,1-4.55-2.79l4.13-4c8.41-4.9,14.53-11.48,23.4-24.93s9.79-24.32,7.34-38.09-19-34.56-19-34.56c-23.25-34.11-22.33-35.79-27.84-47.11s-4.28-19.89-4.13-37,5.05-25.08,4-40.83a70.66,70.66,0,0,0-8.72-28.45s-17-22.18-28.91-34.26L176.33,107Z"/><path class="cls-3" d="M361,387.31l-.21-8.68H363l.24-5.12,2-78.26,10.14-1,16.24-3.4s11.72-.58,12.57-1.16,7.45-6.14,1.39-12.84S377.74,269,367,269.42s-33.7,3.9-33.7,3.9l-21.82,2.86s-15.9,3-18.36,4.85-4.9,4.31-4.65,6.42-1.05,7.76,13.08,6.36l6.66,1.44L328,296l8.51,81.92,1.27,1.06.2,9.68Z"/><path class="cls-3" d="M328,296s31.72-.17,37.28-.71"/><path class="cls-4" d="M174.44,491.48,248.31,500l46.81,5.28a110.45,110.45,0,0,0,22.82,0c11-1.38,32.58-6.43,36.25-8s74.29-22.64,74.29-22.64,7.19-4.13,8-5.66-.58-53.38-1.49-57.73-5.17-11.36-15.72-14S368.3,387,360.61,386.29s-50.35.35-83.73,14.46c0,0-33.15,9.17-36.71,9.17a4.66,4.66,0,0,1-4.55-2.79l4.13-4c8.41-4.9,14.53-11.48,23.4-24.93s9.79-24.32,7.34-38.09-19-34.56-19-34.56c-23.25-34.11-22.33-35.79-27.84-47.11s-4.28-19.89-4.13-37,5.05-25.08,4-40.83a70.66,70.66,0,0,0-8.72-28.45s-17-22.18-28.91-34.26L176.33,107"/><path class="cls-4" d="M159.6,33.94c-2.6-13-10.09-16.67-10.09-16.67s-7.19-4.43-30.59-9.79-35.48-6.12-41.6-6S63.4,5,55.75,9,47.34,21.4,47.34,21.4L31.28,82s-7.49,19.73-8.41,34.41c0,0-2.75,27.68-2.75,33s4.43,42.36,4.43,42.36,2.91,23.56,8.41,48.95,6.12,13.91,6.58,37.16.15,30.74.15,30.74-8.18,1.15-9.67,8.84,2.87,31.43,2.87,31.43S35,363.58,35,366.22a95.91,95.91,0,0,1-3.21,18.47c-1.6,4.82-4.7,17.09-4.36,18.92s.69,3.83,3.56,3.52l.57,1.3a23.94,23.94,0,0,0-5.27,14c-.46,8.71-.12,17.89,7.45,28.9,0,0,6.2,8.72,11.36,8.84,0,0,8.72,12.73,12.62,15.71s12.27,4.7,12.27,4.7l46.11,6.66a30.68,30.68,0,0,0,7.23,0,40.63,40.63,0,0,0,5.85-.92l12.3,2.32"/><path class="cls-4" d="M360.61,386.29l-.19-7.76h2.14l.25-5.12,2-78.26,10.14-1,16.24-3.4s11.72-.58,12.57-1.16,7.44-6.14,1.39-12.84-27.84-7.89-38.6-7.44-33.7,3.9-33.7,3.9l-21.82,2.86s-15.9,3-18.36,4.85-4.9,4.31-4.66,6.42-1,7.76,13.09,6.37l6.66,1.43,19.76.71,8.52,81.92,1.27,1.06.17,8.17"/><path class="cls-4" d="M327.54,295.86s31.73-.17,37.29-.71"/><line class="cls-5" x1="337.73" y1="378.43" x2="360.3" y2="377.92"/><path class="cls-4" d="M92.54,434s22.36-41,18.69-72.8-16.11-52.82-16.11-52.82"/><path class="cls-6" d="M129.63,346.11s-10.72-36.34-13-37.72"/><path class="cls-7" d="M106.09,284.19S42.94,165.49,24.72,104.12"/><path class="cls-4" d="M24.72,104.12,26.08,121c4.9,57.2,54.7,167.34,54.7,167.34"/><path class="cls-7" d="M248,385s25.85-25.08,11.16-50.93-39.73-64-42.4-72a87.72,87.72,0,0,1-2.41-46c2.26-10.67,7-45.58,2.46-59.95"/><path class="cls-7" d="M110.51,283.4s-4.59-20.5-12.7-64.7S83.9,160.12,81,158.75,75.48,165,75.48,165s-2.9,11,2.15,34.56,20.73,69.81,20.73,69.81"/><path class="cls-7" d="M212.38,324.85s-36.56-157.84-39-160.6-4.59-4.13-8-4S90.93,155.23,81,158.75"/><line class="cls-5" x1="87.8" y1="173.81" x2="110.51" y2="157.71"/><line class="cls-5" x1="94.31" y1="200.73" x2="151.58" y2="159.57"/><line class="cls-5" x1="175.55" y1="170.87" x2="99.56" y2="228.15"/><line class="cls-5" x1="181.63" y1="195.76" x2="104.66" y2="254.85"/><line class="cls-5" x1="187.9" y1="219.7" x2="110.24" y2="282.18"/><line class="cls-5" x1="193.73" y1="243.88" x2="155.17" y2="277.97"/><line class="cls-5" x1="199.61" y1="268.62" x2="187.9" y2="279.73"/><line class="cls-5" x1="128.77" y1="279.73" x2="107.96" y2="271.36"/><line class="cls-5" x1="166.64" y1="278.34" x2="102.86" y2="245.61"/><path class="cls-5" d="M201.05,274.7c-.61.06-103-55-103-55"/><path class="cls-5" d="M195.21,250.09S94.51,194.74,92.87,194"/><path class="cls-5" d="M85.7,167.34s2.25,0,11.31,5,92,51.8,92,51.8"/><line class="cls-5" x1="183.39" y1="199.51" x2="104.66" y2="157.71"/><line class="cls-5" x1="176.36" y1="173.81" x2="143.58" y2="159.57"/><line class="cls-5" x1="182.44" y1="309.56" x2="205.95" y2="324.85"/><line class="cls-5" x1="169.89" y1="325.45" x2="187.9" y2="309.56"/><path class="cls-7" d="M80.07,158.6s-5-50.71-16-67C51.7,73.25,32.88,76,32.88,76"/><path class="cls-7" d="M169.87,161.25s12.12-36.9,7.11-53.2"/><path class="cls-4" d="M170.46,328.13l46.5-3.28s9.18,0,13.92,4.43,18.05,12.24,17.89,42.37-18.66,39.61-18.66,39.61l-61.27,2.91"/><path class="cls-7" d="M206.79,325.56s24.32,15.42,25.46,40.2-9.93,45.87-9.93,45.87"/><path class="cls-7" d="M39.69,308.63l10.52-1.14S57.9,308.63,60.3,324s6.08,44.62,6.08,44.62S67.65,386,64.2,393.18l-3.78.57s-.12,4.47-.8,5.05-.58,4.13.45,4.58,6.43,6.78,9.53,10.79S92.54,434,92.54,434a17,17,0,0,1,2.29,6.43c.8,4.36,3.67,17.78,6.2,20.87s13.42,7.46,13.42,7.46,13.42,5.39,14.11,6.19,2.86,3.22,3,5.28"/><path class="cls-7" d="M130.15,486.51s12.95-2.6,10.21-13.38-8.82-11.13-18.8-20.19"/><path class="cls-7" d="M38.85,437.42s26,24.74,41.3,30.2c0,0,.35.93,2.57-2.32a40.82,40.82,0,0,0,3.74-7.21s.46-2.9-2.34-6-12.26-12.78-12.26-12.78l-5.25.7L46.05,422.2Z"/><path class="cls-4" d="M66.61,440s3.5-13.29-3.94-25.23a26.24,26.24,0,0,0-9.46-8.93,18.26,18.26,0,0,0-17-.75,16.57,16.57,0,0,0-4.68,3.37"/><path class="cls-4" d="M45.05,460.17s10.48,3.87,16.33-3.74"/><path class="cls-7" d="M30.94,407.13s4.24-7.57,10.59-9.25S54.22,399,54.22,399h2.15a7.31,7.31,0,0,0,1.53-6c-.77-3.36,1.22-2.45,1.07-4.59S51.45,323,51.45,323s-.7-11.46-11-13.93"/><path class="cls-4" d="M168,421.66s30.89-2,52.61,1.07,52.31,8,57.81,7.8,47.11,1.84,55.22,6.12,68.67-13.46,68.67-13.46l17.74-3.67s12.31-4.23,12.66-13.43"/><path class="cls-7" d="M245,412.33S298,399.64,316.68,397.5s43.13-1.53,51.54,1.22,13.46,8.57,14.69,12.08c0,0,27.68-.3,35.17,3.83,0,0,4.61,2.23,5.63,3.22,0,0,8.94,8.71,8.48,26.72s-3.71,30-3.71,30"/><path class="cls-7" d="M213.22,413.1l40.14,4.28s45.73,3.14,49.71,4.32,27.55,2.53,37,15.55a104.16,104.16,0,0,1,9.86,38.4c1.45,22.51,1.16,22.59,1.16,22.59"/><polyline class="cls-5" points="325.09 413.1 308.27 421.7 337.63 418.91 347.27 412.33 276.8 415.78"/><line class="cls-5" x1="301.39" y1="414.17" x2="290.05" y2="420.2"/><line class="cls-5" x1="279.97" y1="414.17" x2="271.09" y2="418.66"/><line class="cls-5" x1="259.17" y1="414.17" x2="253.36" y2="417.38"/><line class="cls-5" x1="340.09" y1="416.42" x2="271.86" y2="418.28"/><path class="cls-5" d="M311.94,420.2H295.72"/><polyline class="cls-5" points="237.3 414.93 273.4 414.17 277.05 415.78"/><line class="cls-5" x1="262.54" y1="417.61" x2="272.69" y2="417.61"/><path class="cls-7" d="M60,86.46S67.38,28,67.68,26.6,69,4.06,85.45,1.79"/><path class="cls-8" d="M91,11.94,87.36,84.51S82.87,101.09,103.07,96a57.44,57.44,0,0,1,14.72-1.66c10.7.11,27.46,1.64,39.21,9.21,3.91,2.52,8.86,6.38,13.5,6.59,2.37.11,7.9-.23,12.05-20.05,4-19.33,3.25-45.14,3.35-55a7.41,7.41,0,0,0-4.43-7A4.16,4.16,0,0,0,179,27.8c-3.26.69-9.93,4.15-9.93,4.15s-28.29,7.78-50.63-8.87L104,10.84S93.7,1.4,91,11.94Z"/><polyline class="cls-7" points="90.83 14.83 113.26 36.24 113.54 74.17 125.79 94.66"/><polyline class="cls-7" points="185.9 42.35 178.2 50.03 169.63 89.19 157.14 101.59"/><path class="cls-7" d="M140.36,426.25S116.09,436.87,110.24,440"/><path class="cls-7" d="M102.78,454.16l7.88-1.22,1.07-.61a3.83,3.83,0,0,0,4.13.92c2.37-1,3.29-1.46,4.21-.92s2.75-.08,4.28-.61a6.29,6.29,0,0,1,3.82,0c.69.23,2.07-.46,3.37-1.3s4.2.3,5.5,0,2.76-3.06,2.76-3.52-4.67-6.93-4.67-6.93-21.72.73-21.94.81-3,2.22-3,2.22l-1.95.38-8.87.23S104.53,449.65,102.78,454.16Z"/><path class="cls-7" d="M99.42,457.68s3-1.6,3.36-3.52"/><path class="cls-7" d="M99.42,443.61a23.29,23.29,0,0,0-4.2-1.18"/><path class="cls-9" d="M108.94,444.28s-1,3,1.66,7"/><line class="cls-6" x1="179.03" y1="503.41" x2="178.03" y2="491.89"/><path class="cls-7" d="M382.91,410.8l-148.1,1.51a10.62,10.62,0,0,1-4.7-1.05h0"/><path class="cls-8" d="M174.31,491.6,172,476.12l-2.22-2-2.9-57.91,1.92-.72.4-38.51.85-66.36,11.67-.69,1.44-.83s32.94-3.59,35.13-4,3.59-2.92,4-6.37-2.07-6.47-2.07-6.47-.86-3.06-12.36-7.38-29.16-6-29.16-6-21.62-1.34-33.27-1-30.78,4.19-32.13,4.75-8.75,1.73-8.75,1.73-18,1.71-23.77,3.87-5.16,7.9-5.22,9.89S77.12,303,79,304.45,91,306.19,91,306.19l4.09,2.2,19.3.24,11.87,1.57,2.19,18.67,9.46,84.86,2.42,1.54,2.58,55.82-1.51,3.5v9l0,21.21,1.93,5.16c10.78,6.47,30.49,1.13,30.49,1.13l4.7-6.54.46-1.15,27.25-8.27Z"/><path class="cls-8" d="M76.39,297.23s39.27-7.91,61.29-3.74,42.67,6.34,46.34,7,37.47-.85,38.3-2"/><path class="cls-8" d="M140.36,415.27s19.56,2,26.55,1"/><path class="cls-8" d="M141.43,474s10.34,6.79,30.69,2.78"/><g id="Base"><g id="base-2" data-name="base"><path class="cls-3" d="M18.16,635.49a17.66,17.66,0,0,0-14.64,7.56c-5.59,8.11,0,18.63,0,18.63C6.5,677.18,20,676.43,20,676.43c19.83-.2,17-23.88,17-23.88l.2-16.52S29.82,641.3,18.16,635.49Z"/><path class="cls-1" d="M114.43,576.08l.38,1.94s2.6-.16,5.52,11.94l-31.24,7.77s-4.3-15.17,3.75-19.16l3.33-1.21,4.46.69V575.5Z"/><path class="cls-3" d="M195.63,686.34v3.39H189.5l-2.08,4.56.39,28.44,2.28,5.13h6.17s1.12-1.15,1-6.27,0-6.42,0-6.42l10.08-.08V725s.33,2.9,1,2.9h6.17s2.51-3.44,2.94-6.27-.07-26.61-.07-26.61l-2.28-5.25h-6.59l-.2-2.09Z"/><path class="cls-10" d="M38,636.79l-.34,15.39-.59.37s-1.17-5-4.78-7.88a18.3,18.3,0,0,0-6.1-3.22v-3.11"/><circle class="cls-7" cx="19.99" cy="659.96" r="16.47"/><path class="cls-11" d="M3.52,662.05A31.88,31.88,0,0,1,1,652.1a16.47,16.47,0,0,1,16.47-16.47"/><path class="cls-12" d="M1.1,653c0-9.09,9.33-15.93,18.43-15.93"/><circle class="cls-7" cx="20.3" cy="660.01" r="2.83"/><path class="cls-7" d="M20.63,646.08s.07,9,.44,9.48.73.81,1.76,0,5.08-7.13,5.08-7.13"/><path class="cls-7" d="M30.08,650.61s-5.81,6.93-5.81,7.5,0,1.09,1.34,1.15,8.49-2.15,8.49-2.15"/><path class="cls-7" d="M34.17,660s-9,0-9.49.39-.81.73,0,1.77,7.11,5.11,7.11,5.11"/><path class="cls-7" d="M30.35,669.45S23.16,664,22.59,664s-1.09.08-1.08,1.39S24,673.76,24,673.76"/><path class="cls-7" d="M18.5,646.1s.44,9,.1,9.49-.69.85-1.77.1-5.47-6.83-5.47-6.83"/><path class="cls-7" d="M9.32,651.16s6.19,6.58,6.23,7.16,0,1.09-1.28,1.22-8.6-1.66-8.6-1.66"/><path class="cls-7" d="M5.77,662s9-.48,9.49-.15.86.69.11,1.77-6.8,5.5-6.8,5.5"/><path class="cls-7" d="M11.4,671.25s5.93-6.83,6.49-6.93,1.09-.14,1.35,1.15-.78,8.72-.78,8.72"/><path class="cls-7" d="M364.28,634.24V653l.56.4s1.51-4.9,5.3-7.53a18.23,18.23,0,0,1,6.31-2.81l.21-3.09"/><circle class="cls-7" cx="380.98" cy="662.32" r="16.83"/><path class="cls-7" d="M398.22,664.38a26.67,26.67,0,0,0,2.59-9c.62-9.08-4.71-16.93-13.79-17.54"/><path class="cls-13" d="M400.76,656c.61-9.08-8.34-16.21-17.42-16.83"/><path class="cls-13" d="M400.1,659.17c-1.38-13-12.1-17.81-23-15.91"/><circle class="cls-7" cx="381.02" cy="662" r="2.83"/><path class="cls-7" d="M381.64,648.08s-.69,9-1.08,9.43-.79.76-1.76-.12-4.58-7.46-4.58-7.46"/><path class="cls-7" d="M371.9,652s5.33,7.31,5.29,7.89-.11,1.08-1.41,1-8.33-2.71-8.33-2.71"/><path class="cls-7" d="M367.19,661.06s9,.64,9.44,1,.76.79-.11,1.76-7.44,4.62-7.44,4.62"/><path class="cls-7" d="M370.36,670.74s7.54-5,8.11-4.94,1.08.16,1,1.47-3.09,8.19-3.09,8.19"/><path class="cls-7" d="M383.76,648.24s-1.05,9-.74,9.46.63.9,1.75.22,5.92-6.45,5.92-6.45"/><path class="cls-7" d="M392.58,653.9s-6.62,6.16-6.7,6.73-.1,1.09,1.19,1.3,8.69-1.07,8.69-1.07"/><path class="cls-7" d="M395.39,664.92s-9-1.1-9.46-.79-.9.62-.23,1.75,6.42,6,6.42,6"/><path class="cls-7" d="M389.14,673.81s-5.45-7.21-6-7.35-1.07-.21-1.41,1,.18,8.76.18,8.76"/><path class="cls-14" d="M89.84,596.54h0c.06.18.13.35.19.52l-.12.06Z"/><path class="cls-14" d="M88.67,590.68v-.26c0,.09,0,.18,0,.27Z"/><g class="cls-15"><path class="cls-3" d="M93.2,590.66h0a41.79,41.79,0,0,1-3.94-3.37,8.46,8.46,0,0,1,1.68-4c1.07,2.52,2.72,6.47,2.87,7.11a.71.71,0,0,1,0,.27C93.71,590.74,93.57,590.82,93.2,590.66Z"/><path class="cls-14" d="M94,590.41a1.69,1.69,0,0,1-.11.72c-.12.25-.34.28-.73.12l0,0a38.76,38.76,0,0,1-4-3.42c0-.18,0-.36.08-.53a41.79,41.79,0,0,0,3.94,3.37h0c.37.16.51.08.55,0a.71.71,0,0,0,0-.27c-.15-.64-1.8-4.59-2.87-7.11l.22-.24C94,589.82,94,590.25,94,590.41Z"/><path class="cls-14" d="M95.1,595.56c.24.12.51.42.59,1.5a53.61,53.61,0,0,1-.62,6.15l-.24-.17c.3-2.16.68-5.27.63-5.94s-.18-.86-.38-1l-.16-.06a25.37,25.37,0,0,0-3.28,3.24l-.24-.42c.94-1,3.23-3.49,3.52-3.4Z"/><path class="cls-14" d="M97.72,592.43a4.9,4.9,0,0,1,.2,1.55c-.06,1.37-.77,2.09-1.64,1.67l-.07,0a3.14,3.14,0,0,1-1.28-1.86,4.36,4.36,0,0,1-.2-1.55c.06-1.37.78-2.08,1.63-1.66l.08,0A3.21,3.21,0,0,1,97.72,592.43Zm-1.41,2.64c.71.34,1.33-.21,1.37-1.23a3,3,0,0,0-.15-1.1,2.74,2.74,0,0,0-1.12-1.6l-.06,0c-.71-.34-1.33.2-1.38,1.23a3.26,3.26,0,0,0,.15,1.09,2.71,2.71,0,0,0,1.11,1.6l.08,0"/><path class="cls-3" d="M99.18,594.36a20.86,20.86,0,0,0,4.07.71c0,.54,0,1.08,0,1.6-.8-.44-2.24-1.21-3.32-1.74a4,4,0,0,0-1.42-.55.7.7,0,0,0-.35.61,2.91,2.91,0,0,0,.25,1.25c.34.94,2.72,4.82,3.39,5.89a5.28,5.28,0,0,1-.68.85c-1-1.74-3.48-6.24-3.77-6.38l-.07,0c-.26-.12-.62-.21-.68,1,0,.87.6,4.85.89,6.65a5,5,0,0,1-1.52-.49l-.33-.17c-.2-.12-.41-.24-.61-.38a53.61,53.61,0,0,0,.62-6.15c-.08-1.08-.35-1.38-.59-1.5l-.18-.06c-.29-.09-2.58,2.37-3.52,3.4a20.56,20.56,0,0,1-1-2.06,15,15,0,0,0,3.27-2.12,1.62,1.62,0,0,0,.3-1,1.86,1.86,0,0,0-.31-1,20.93,20.93,0,0,0-3.81-2.13l-.84-.41c0-.41,0-.83,0-1.23a12,12,0,0,1,.1-1.23,38.76,38.76,0,0,0,4,3.42c.42.18.64.15.76-.1a1.69,1.69,0,0,0,.11-.72c0-.16,0-.59-2.9-7.37a4.54,4.54,0,0,1,1-.8c.47,1.38,2,5.87,2.51,6.67a1.8,1.8,0,0,0,.58.69c.2.1.34-.05.47-.23s.27-2.67.33-7.29l.32.14.33.17.21.13a54,54,0,0,0,0,7.46,1.26,1.26,0,0,0,.47.71.59.59,0,0,0,.58-.09,26.84,26.84,0,0,0,2.8-4,18.42,18.42,0,0,1,.92,1.77c-3.2,3.69-3.22,4.12-3.23,4.27a2.21,2.21,0,0,0,.07.81,1.42,1.42,0,0,0,.7.85ZM97.92,594a4.9,4.9,0,0,0-.2-1.55,3.21,3.21,0,0,0-1.28-1.87l-.08,0c-.85-.42-1.57.29-1.63,1.66a4.36,4.36,0,0,0,.2,1.55,3.14,3.14,0,0,0,1.28,1.86l.07,0c.87.42,1.58-.3,1.64-1.67"/><path class="cls-14" d="M96,582.08c-.06,4.62-.17,7.07-.33,7.29s-.27.33-.47.23a1.8,1.8,0,0,1-.58-.69c-.47-.8-2-5.29-2.51-6.67l.25-.13c.76,2.19,2,5.69,2.38,6.33a1.4,1.4,0,0,0,.47.57c.14.07.23,0,.32-.17.09-.31.19-3.66.23-6.85Z"/><path class="cls-3" d="M97.32,597.15l.05,0c.22.16,2.19,3.62,3.54,6.06a4,4,0,0,1-3.12,1.06c-.4-2.44-.93-5.92-.9-6.56S97,597,97.32,597.15Z"/><path class="cls-14" d="M97.32,596.56l.07,0c.29.14,2.81,4.64,3.77,6.38l-.25.25c-1.35-2.44-3.32-5.9-3.54-6.06l-.05,0c-.3-.14-.41-.1-.43.58s.5,4.12.9,6.56l-.26,0c-.29-1.8-.92-5.78-.89-6.65C96.7,596.35,97.06,596.44,97.32,596.56Z"/><path class="cls-14" d="M96.85,582.52l.25.15c-.13,3.17-.2,6.56-.12,7,.08.19.15.39.3.46s.26,0,.48-.1a24.35,24.35,0,0,0,2.66-3.78c.08.12.16.25.23.38a26.84,26.84,0,0,1-2.8,4,.59.59,0,0,1-.58.09,1.26,1.26,0,0,1-.47-.71A54,54,0,0,1,96.85,582.52Z"/><path class="cls-3" d="M97.28,590.12c-.15-.07-.22-.27-.3-.46-.08-.43,0-3.82.12-7a11.62,11.62,0,0,1,3.32,3.57A24.35,24.35,0,0,1,97.76,590C97.54,590.16,97.39,590.17,97.28,590.12Z"/><path class="cls-14" d="M100,594.93c1.08.53,2.52,1.3,3.32,1.74,0,.1,0,.19,0,.28s0,.2,0,.3c-1.08-.6-2.47-1.34-3.45-1.81a4.34,4.34,0,0,0-1.17-.48c-.06,0-.19.12-.2.22a1.94,1.94,0,0,0,.18.69c.29.82,2.5,4.44,3.42,5.93l-.2.33c-.67-1.07-3-5-3.39-5.89A2.91,2.91,0,0,1,98.2,595a.7.7,0,0,1,.35-.61A4,4,0,0,1,100,594.93Z"/><path class="cls-3" d="M98.64,595a4.34,4.34,0,0,1,1.17.48c1,.47,2.37,1.21,3.45,1.81A10.56,10.56,0,0,1,102,601.8c-.92-1.49-3.13-5.11-3.42-5.93a1.94,1.94,0,0,1-.18-.69C98.45,595.08,98.58,595,98.64,595Z"/><path class="cls-14" d="M103.62,594.51l0,.59h0c0-.19,0-.39,0-.59Z"/><path class="cls-3" d="M103.42,590.56a20.9,20.9,0,0,1,.93,6.94c-.29,6.46-4,9.8-8.36,7.67l-.37-.19c-2.85-1.59-5.36-5.2-6.71-9.64A20.87,20.87,0,0,1,88,588.4c.29-6.44,4-9.79,8.35-7.67l.38.2C99.56,582.52,102.07,586.12,103.42,590.56Zm.23,6.61a17.94,17.94,0,0,0,0-2.07v-.59h0a22.46,22.46,0,0,0-.84-4.23c-1.24-4.06-3.5-7.34-6.06-8.77l-.34-.18c-3.56-1.73-6.65.69-7.47,5.61l-.07-.06-.06.55.05.05c-.05.43-.09.88-.11,1.34s0,1.06,0,1.6v.26a22.56,22.56,0,0,0,.91,5l.27.82.07.58.12-.06c1.29,3.44,3.34,6.17,5.61,7.43l.33.17c4,2,7.39-1.33,7.67-7.48"/><path class="cls-14" d="M88.74,587.43l.06-.55.07.06c0,.18-.05.35-.08.54Z"/><path class="cls-3" d="M93.76,593.71a1,1,0,0,1-.2.49,17,17,0,0,1-3.32,2.13c-.13-.36-.25-.73-.37-1.1a19.1,19.1,0,0,1-.8-4.35l.55.26a31.42,31.42,0,0,1,3.95,2.13A1.23,1.23,0,0,1,93.76,593.71Z"/><path class="cls-14" d="M94,593.76a1.62,1.62,0,0,1-.3,1,15,15,0,0,1-3.27,2.12l-.19-.51a17,17,0,0,0,3.32-2.13,1,1,0,0,0,.2-.49,1.23,1.23,0,0,0-.19-.44,31.42,31.42,0,0,0-3.95-2.13l-.55-.26c0-.21,0-.41,0-.61l.84.41a20.93,20.93,0,0,1,3.81,2.13A1.86,1.86,0,0,1,94,593.76Z"/><path class="cls-3" d="M95.46,597.1c.05.67-.33,3.78-.63,5.94a12.31,12.31,0,0,1-3.19-3.72,25.37,25.37,0,0,1,3.28-3.24l.16.06C95.28,596.24,95.4,596.43,95.46,597.1Z"/><path class="cls-14" d="M99.21,593.79a20.93,20.93,0,0,0,4,.68c0,.2,0,.4,0,.6a20.86,20.86,0,0,1-4.07-.71l-.07,0a1.42,1.42,0,0,1-.7-.85,2.21,2.21,0,0,1-.07-.81c0-.15,0-.58,3.23-4.27.06.15.13.3.19.46a37.1,37.1,0,0,0-3.18,4,1.19,1.19,0,0,0,0,.3,1.07,1.07,0,0,0,.54.58Z"/><path class="cls-14" d="M103.62,595.1a17.94,17.94,0,0,1,0,2.07c-.28,6.15-3.69,9.43-7.67,7.48l-.33-.17c-2.27-1.26-4.32-4-5.61-7.43-.06-.17-.13-.34-.19-.52l-.27-.82a21.44,21.44,0,0,1-.89-5c0-.09,0-.18,0-.27,0-.54,0-1.07,0-1.6s.06-.91.11-1.34c0-.19,0-.36.08-.54.82-4.92,3.91-7.34,7.47-5.61l.34.18c2.56,1.43,4.82,4.71,6.06,8.77a22.46,22.46,0,0,1,.84,4.23C103.6,594.71,103.61,594.91,103.62,595.1Zm-.34,1.85c0-.09,0-.18,0-.28,0-.52,0-1.06,0-1.6,0-.2,0-.4,0-.6a19.53,19.53,0,0,0-.75-3.71,18.74,18.74,0,0,0-.69-1.91c-.06-.16-.13-.31-.19-.46a18.42,18.42,0,0,0-.92-1.77c-.07-.13-.15-.26-.23-.38a11.62,11.62,0,0,0-3.32-3.57l-.25-.15-.21-.13-.33-.17-.32-.14-.24-.09a4.12,4.12,0,0,0-3.4.12l-.25.13a4.54,4.54,0,0,0-1,.8l-.22.24a8.46,8.46,0,0,0-1.68,4c0,.17,0,.35-.08.53a12,12,0,0,0-.1,1.23c0,.4,0,.82,0,1.23,0,.2,0,.4,0,.61a19.1,19.1,0,0,0,.8,4.35c.12.37.24.74.37,1.1l.19.51a20.56,20.56,0,0,0,1,2.06l.24.42A12.31,12.31,0,0,0,94.83,603l.24.17c.2.14.41.26.61.38l.33.17a5,5,0,0,0,1.52.49l.26,0a4,4,0,0,0,3.12-1.06l.25-.25a5.28,5.28,0,0,0,.68-.85l.2-.33a10.56,10.56,0,0,0,1.22-4.55c0-.1,0-.2,0-.3"/><path class="cls-3" d="M95.2,589a1.4,1.4,0,0,1-.47-.57c-.37-.64-1.62-4.14-2.38-6.33a4.12,4.12,0,0,1,3.4-.12c0,3.19-.14,6.54-.23,6.85C95.43,589,95.34,589.08,95.2,589Z"/><path class="cls-14" d="M104.05,589.52a25.32,25.32,0,0,1,1.11,8.46c-.33,7.48-4.43,11.49-9.22,9.15l-.4-.21c-3.06-1.71-5.78-5.64-7.26-10.53a25.39,25.39,0,0,1-1.12-8.47c.34-7.48,4.45-11.47,9.23-9.14l.4.2C99.85,580.69,102.57,584.63,104.05,589.52Zm.3,8a20.9,20.9,0,0,0-.93-6.94c-1.35-4.44-3.86-8-6.71-9.63l-.38-.2C92,578.61,88.27,582,88,588.4a20.87,20.87,0,0,0,.93,6.94c1.35,4.44,3.86,8,6.71,9.64l.37.19c4.36,2.13,8.07-1.21,8.36-7.67"/><path class="cls-3" d="M96.41,591.14a2.74,2.74,0,0,1,1.12,1.6,3,3,0,0,1,.15,1.1c0,1-.66,1.57-1.37,1.23l-.08,0a2.71,2.71,0,0,1-1.11-1.6,3.26,3.26,0,0,1-.15-1.09c0-1,.67-1.57,1.38-1.23Z"/><path class="cls-3" d="M98.58,592.87a37.1,37.1,0,0,1,3.18-4,18.74,18.74,0,0,1,.69,1.91,19.53,19.53,0,0,1,.75,3.71,20.93,20.93,0,0,1-4-.68l-.07,0a1.07,1.07,0,0,1-.54-.58A1.19,1.19,0,0,1,98.58,592.87Z"/></g><g class="cls-15"><path class="cls-14" d="M316.3,589.65h0l.05.57,0,0C316.31,590.05,316.31,589.85,316.3,589.65Z"/><path class="cls-14" d="M315.15,596.48c.06-.17.13-.35.19-.53h0l0,.59Z"/><path class="cls-14" d="M307.62,582.67l.23-.1c.23,3,.53,6.24.66,6.57.1.1.2.2.36.12a1.58,1.58,0,0,0,.53-.62c.42-.72,1.8-4.75,2.32-6.31l.28.1c-.44,1.32-2,5.87-2.47,6.69a1.74,1.74,0,0,1-.61.71c-.21.1-.36,0-.52-.17S308,587.12,307.62,582.67Z"/><path class="cls-14" d="M307,596.72c.28-.14.64-.19.76,1a60.13,60.13,0,0,1-.62,6.49l-.26.05c.31-2.38.71-5.79.65-6.39s-.18-.68-.49-.53l-.1.05c-.23.14-2.27,3.68-3.68,6.19l-.29-.21c.81-1.45,3.59-6.39,3.91-6.56Z"/><path class="cls-14" d="M306.64,583.2c.46,4.4.62,6.82.48,7.19s-.25.61-.49.72a.76.76,0,0,1-.63-.05c-.59-.24-2.8-2.84-3.4-3.55l.24-.38a22.82,22.82,0,0,0,3.2,3.35.63.63,0,0,0,.54,0c.19-.09.27-.31.36-.54.05-.39-.22-3.61-.53-6.64Z"/><path class="cls-14" d="M304.58,595.06a2.24,2.24,0,0,1,.81-.3.66.66,0,0,1,.43.58,2.61,2.61,0,0,1-.21,1.24c-.33.93-2.8,4.9-3.49,6l-.25-.3c1.14-1.82,3.28-5.3,3.56-6.09a1.76,1.76,0,0,0,.16-.66s0-.1-.24-.19a1.85,1.85,0,0,0-.6.23c-1,.47-3,1.6-4.52,2.46,0-.1,0-.2,0-.3l0-.27C301.11,596.91,303.36,595.64,304.58,595.06Z"/><path class="cls-14" d="M305.53,593.1a2.37,2.37,0,0,1,0,.75,1.47,1.47,0,0,1-.75.93l-.12.07a30.83,30.83,0,0,1-4.54,1.07l0-.6a29.24,29.24,0,0,0,4.46-1.05l.11-.06a1.27,1.27,0,0,0,.6-.65.68.68,0,0,0,0-.24,39.15,39.15,0,0,0-3.84-3.56l.2-.45C305.46,592.53,305.51,592.93,305.53,593.1Z"/><path class="cls-14" d="M316.22,588.42c0,.41.07.81.08,1.23,0,.2,0,.4,0,.6a18.47,18.47,0,0,1-.52,4.13c-.13.53-.28,1.06-.45,1.57-.06.18-.13.36-.19.53a14.86,14.86,0,0,1-5.9,7.73c-.21.12-.42.23-.62.32-4.28,2-8.15-.77-8.8-6.57a16,16,0,0,1-.09-2c0-.2,0-.39,0-.59a19,19,0,0,1,.5-3.39c1.05-4.32,3.56-8.09,6.54-9.83l.61-.32c3.81-1.81,7.31.23,8.48,4.79a4.37,4.37,0,0,1,.12.52A12.26,12.26,0,0,1,316.22,588.42Zm-.29,1.41a11.14,11.14,0,0,0-.07-1.17c-.05-.41-.11-.8-.19-1.18,0-.17-.08-.35-.13-.51a7.2,7.2,0,0,0-2.13-3.67l-.26-.21a4.57,4.57,0,0,0-1.15-.66l-.28-.1a5.47,5.47,0,0,0-3.87.24l-.23.1-.13.06c-.2.1-.4.2-.6.32l-.25.15-.23.15a12.86,12.86,0,0,0-3.57,3.78l-.24.38a17,17,0,0,0-.94,1.8l-.2.45a18.53,18.53,0,0,0-.88,2.7,17,17,0,0,0-.44,2.86l0,.6c0,.52,0,1,.05,1.54l0,.27c0,.1,0,.2,0,.3a8.87,8.87,0,0,0,1.64,4.25l.25.3a5.72,5.72,0,0,0,.81.75l.29.21a5,5,0,0,0,3.62.68l.26-.05a7.24,7.24,0,0,0,1.43-.51l.63-.33c.23-.14.46-.28.68-.44l.23-.17a13.45,13.45,0,0,0,3.41-3.9l.24-.42a17.31,17.31,0,0,0,1-2.08c.07-.17.13-.35.2-.52a17,17,0,0,0,.56-1.88,16.31,16.31,0,0,0,.46-3.48c0-.21,0-.41,0-.61"/><path class="cls-14" d="M310.52,593.71a1.64,1.64,0,0,1,.29-1c.22-.38,3.77-2.21,5.12-2.91,0,.2,0,.4,0,.61a42.58,42.58,0,0,0-5,2.78,1.2,1.2,0,0,0-.19.43s0,.16.25.43a19,19,0,0,0,3.9,1.72c-.07.17-.13.35-.2.52a17.76,17.76,0,0,1-3.8-1.7A1.35,1.35,0,0,1,310.52,593.71Z"/><path class="cls-3" d="M310.54,590.46c.16-.66,1.81-4.65,2.87-7.16a7.2,7.2,0,0,1,2.13,3.67,45.37,45.37,0,0,1-4.29,3.67h0c-.46.2-.6.1-.65,0A1,1,0,0,1,310.54,590.46Z"/><path class="cls-14" d="M309.58,592.28a4,4,0,0,1-.09,1.36,3.36,3.36,0,0,1-1.38,2.08l-.13.07c-.92.44-1.73-.18-1.87-1.48a3.72,3.72,0,0,1,.1-1.36,3.32,3.32,0,0,1,1.37-2.08l.11-.06C308.62,590.37,309.44,591,309.58,592.28Zm-.3,1.06a2.58,2.58,0,0,0,.07-.9c-.11-1-.82-1.43-1.6-1.06l-.12.06a2.91,2.91,0,0,0-1.22,1.81,2.62,2.62,0,0,0-.07.91c.11,1,.82,1.42,1.58,1.06l.14-.07a2.91,2.91,0,0,0,1.22-1.81"/><path class="cls-3" d="M307.75,591.38c.78-.37,1.49.09,1.6,1.06a2.58,2.58,0,0,1-.07.9,2.91,2.91,0,0,1-1.22,1.81l-.14.07c-.76.36-1.47-.11-1.58-1.06a2.62,2.62,0,0,1,.07-.91,2.91,2.91,0,0,1,1.22-1.81Z"/><path class="cls-14" d="M317.64,587.55a20.19,20.19,0,0,1-.5,7c-1.23,5.09-4.18,9.51-7.68,11.55l-.73.38c-5,2.39-9.58-.92-10.34-7.71a20.67,20.67,0,0,1,.5-7c1.24-5.09,4.18-9.52,7.69-11.55.24-.14.48-.26.71-.37C312.32,577.45,316.89,580.74,317.64,587.55ZM316.8,594a18.31,18.31,0,0,0,.45-6.23c-.7-6.28-5-9.29-9.84-7a7.33,7.33,0,0,0-.73.39c-3.41,2-6.26,6.22-7.44,11.09a18.52,18.52,0,0,0-.46,6.22c.71,6.3,5.05,9.29,9.86,7,.24-.11.48-.24.72-.38,3.4-2,6.25-6.23,7.44-11.09"/><path class="cls-16" d="M317.25,587.8c-.7-6.28-5-9.29-9.84-7a7.33,7.33,0,0,0-.73.39c-3.41,2-6.26,6.22-7.44,11.09a18.52,18.52,0,0,0-.46,6.22c.71,6.3,5.05,9.29,9.86,7,.24-.11.48-.24.72-.38,3.4-2,6.25-6.23,7.44-11.09A18.31,18.31,0,0,0,317.25,587.8Zm-.94,2.45a18.47,18.47,0,0,1-.52,4.13c-.13.53-.28,1.06-.45,1.57l0,.59-.16-.06a14.86,14.86,0,0,1-5.9,7.73c-.21.12-.42.23-.62.32-4.28,2-8.15-.77-8.8-6.57-.07-.64-.1-1.3-.12-2l0-.59h.07a19,19,0,0,1,.5-3.39c1.05-4.32,3.56-8.09,6.54-9.83l.61-.32c3.81-1.81,7.31.23,8.48,4.79l.11-.09.08.55-.07.06a12.26,12.26,0,0,1,.21,1.26c0,.41.07.81.08,1.23l.05.57,0,0"/><path class="cls-14" d="M316,586.55l.08.55-.07.06a4.37,4.37,0,0,0-.12-.52Z"/><path class="cls-14" d="M311.25,590.64a45.37,45.37,0,0,0,4.29-3.67c0,.16.09.34.13.51a45.29,45.29,0,0,1-4.38,3.74h0c-.45.19-.69.17-.84-.08a1.73,1.73,0,0,1-.14-.68c0-.17,0-.58,2.85-7.38l.26.21c-1.06,2.51-2.71,6.5-2.87,7.16a1,1,0,0,0,0,.22c.05.07.19.17.65,0Z"/><path class="cls-14" d="M309.39,595.54l.18-.07c.32-.12,3.19,2.16,4.15,2.93l-.24.42A25.19,25.19,0,0,0,309.6,596l-.15.06c-.26.13-.39.33-.41,1a47.44,47.44,0,0,0,1,5.63l-.23.17a45.12,45.12,0,0,1-1-5.85C308.83,596,309.12,595.66,309.39,595.54Z"/><path class="cls-3" d="M309.45,596.1l.15-.06a25.19,25.19,0,0,1,3.88,2.78,13.45,13.45,0,0,1-3.41,3.9,47.44,47.44,0,0,1-1-5.63C309.06,596.43,309.19,596.23,309.45,596.1Z"/><path class="cls-3" d="M306.58,590.53a.63.63,0,0,1-.54,0,22.82,22.82,0,0,1-3.2-3.35,12.86,12.86,0,0,1,3.57-3.78c.31,3,.58,6.25.53,6.64C306.85,590.22,306.77,590.44,306.58,590.53Z"/><path class="cls-3" d="M305.59,595.53a1.76,1.76,0,0,1-.16.66c-.28.79-2.42,4.27-3.56,6.09a8.87,8.87,0,0,1-1.64-4.25c1.49-.86,3.51-2,4.52-2.46a1.85,1.85,0,0,1,.6-.23C305.54,595.43,305.58,595.49,305.59,595.53Z"/><path class="cls-3" d="M304.71,594.21l-.11.06a29.24,29.24,0,0,1-4.46,1.05,17,17,0,0,1,.44-2.86,18.53,18.53,0,0,1,.88-2.7,39.15,39.15,0,0,1,3.84,3.56.68.68,0,0,1,0,.24A1.27,1.27,0,0,1,304.71,594.21Z"/><path class="cls-14" d="M299.71,596l0-.59h.07c0,.2,0,.39,0,.59Z"/></g><path class="cls-3" d="M187.15,493.24,187.07,512s-1.58,1.34-1.1,10.06c0,0-2.34,0-2.53,6.7s-1.39,41-1.39,41-28.93-12.38-73.62-5.59c0,0-11.07,1.88-11.93,7s.27,6.48.27,6.48l3.86.71,13.33-.19.11-1.91s11.61.82,18.15,2.28S145.91,582,148,583.13l.13.64s-21.54,4.7-24.46,5.37-38.8,9.66-47.25,12.3-36.54,12.7-36.54,12.7L20.3,622.67s-4.79,3.62-2.83,12.23a6.46,6.46,0,0,0,.69.59c2,1.51,8.29,5.08,19.06.54l2.07-3.76s59.39-19.2,99.9-23.72,38.31-4.7,38.31-4.7,7-1.24,8.05,7.15,4.54,67.87,4.54,67.87,1.21,9.5,12.28,9.13,13.75-5.1,13.75-5.1,1.22-1,1.5-6.9l3.22-68.51s2.9-2.51,9-1.56,29.66,3.7,29.66,3.7,29.34,3.88,47.29,8.41,58.86,16,58.86,16l2.16,3.92s7.28,4.28,12.47,2.11a39.8,39.8,0,0,1,7.13-2.5s3-10.52-4.47-13.88-48.65-21.72-93.1-30.64L256,585.47s9.39-6.29,30.17-7.81,17.23-.83,17.23-.83v2.56l4.46-.7s2.4-7.7-2.77-10.33-15.27-6.5-42.64-4.83-38.79,6.73-38.79,6.73l-1.18-41.12s.8-4.42-2.33-6.47c0,0,.76-8.56-1.1-10.66l-.92-15.5Z"/><path class="cls-4" d="M223.81,577.78l-.14-7.52s11.85-6.37,46.26-7,37.54,7.25,37.54,7.25,1.57,1.28.4,8.14c0,0-3.63.88-4.12.69s-.2-2.55-.2-2.55-30-.39-47.93,7.74"/><path class="cls-4" d="M182.05,577v-7.24s-12.94-6.87-47.35-7.46-37.54,7.25-37.54,7.25-1.57,1.28-.39,8.14c0,0,3.63.88,4.12.68s.19-2.54.19-2.54,30-.4,47.94,7.74"/><path class="cls-4" d="M184.21,605.6l-1.57-.74a13.76,13.76,0,0,0-7.4-.84l0,0q-9.22,1.53-18.48,2.45a459.91,459.91,0,0,0-48.39,7.34c-27.19,5.89-68.95,18.28-68.95,18.28L37.22,636c-9.51,5.69-19.6-.39-19.6-.39-2.26-10.38,2.94-13.14,2.94-13.14s24.7-12.35,65.28-23.82S182.05,577,182.05,577l.06.76"/><path class="cls-4" d="M223,578.91s55.63,10.2,96.21,21.67,65.28,23.82,65.28,23.82,5.19,2.75,2.94,13.14c0,0-10.1,6.08-19.6.39L365.67,634s-41.76-12.4-69-18.28a457.79,457.79,0,0,0-48.37-7.34q-9.28-.95-18.48-2.46h-.06a13.71,13.71,0,0,0-7.39.83l-1.57.74"/><path class="cls-4" d="M184.21,605.6s2,2.31,3.38,28.37,2.54,45.69,2.54,45.69.84,9.16,13.78,8.28a42.5,42.5,0,0,0,6.36-.86,9.31,9.31,0,0,0,7.24-8.63l3.33-71"/><path class="cls-4" d="M204.65,583.58c13.09.33,19.16-5.8,19.16-5.8l.06-.77-1.39-48.24a16,16,0,0,0-.52-3.7,5.9,5.9,0,0,0-1.13-2.4s-.45,6.47-16.18,6.47h-3.39c-15.73,0-16.17-6.47-16.17-6.47a5.9,5.9,0,0,0-1.13,2.4,15.43,15.43,0,0,0-.52,3.7L182.05,577l.06.77s6.07,6.13,19.15,5.8Z"/><path class="cls-4" d="M201.7,529.14C187.88,529.36,186,523,186,523v-6.25s-.15-3.6,1.1-4.78c0,0-.14,5.81,15.44,5.73h1.11c15.58.08,15.44-5.73,15.44-5.73,1.24,1.18,1.1,4.78,1.1,4.78V523s-1.91,6.32-15.74,6.1Z"/><path class="cls-4" d="M187.15,512.49V493.24s6.43.61,15.78,1.84,15.21,1.43,15.21,1.43l.57,15.23s-.78,6.37-15.29,6S187.15,512.49,187.15,512.49Z"/><path class="cls-7" d="M195.63,686.74v3a2.29,2.29,0,0,1,1.22,2h10.88s.2-1.77.79-1.87v-2.4"/><path class="cls-7" d="M195.63,689.73H189.5l.59,38.13h6.17s1.18-.79,1-4.12l-.39-32"/><path class="cls-7" d="M189.68,689.73l-1,1.78c-2,3.75-1.07,1.88-1.23,16.36v.33c.16,14.49-.35,14.12,1.63,17.87l1,1.79"/><path class="cls-7" d="M209,689.73h6.13l-.59,38.13h-6.17s-1.18-.79-1-4.12l.39-32"/><path class="cls-7" d="M215.2,690l1,1.79c2,3.75,1.07,1.87,1.23,16.36v.33c-.16,14.48.35,14.11-1.63,17.86l-1,1.79"/><line class="cls-7" x1="197.26" y1="714.62" x2="207.48" y2="714.62"/><path class="cls-12" d="M2.12,656.56c0-9.09,7.72-15.57,16.82-15.57a16.51,16.51,0,0,1,7.2,1"/><circle class="cls-7" cx="381.02" cy="661.97" r="13.99"/><circle class="cls-7" cx="19.99" cy="659.96" r="13.99"/><line class="cls-17" x1="100.89" y1="578.38" x2="106.37" y2="578.22"/><path class="cls-18" d="M120.18,589.5s-2.66-9.75-4.49-10.79l-.44,11-8.17,2.14-.22-2.14a19.1,19.1,0,0,0-2.84-7.13v-4a7,7,0,0,0,6.57,2.5c4.21-.68,4.66-2.5,4.66-2.5L114.12,577v1.2h-7.75v-2.06"/><line class="cls-19" x1="303.41" y1="579.56" x2="297.65" y2="579.39"/><path class="cls-18" d="M283.48,590.44s2.47-9.45,4.4-10.54l.46,11.57,8.56,2.24.23-2.24a20,20,0,0,1,3-7.46v-4.16a7.42,7.42,0,0,1-6.9,2.62c-4.42-.72-4.88-2.62-4.88-2.62l1.18-1.73v1.27h8.13v-2.16"/></g></g></g></g></g></svg>