<svg xmlns="http://www.w3.org/2000/svg" viewBox="0 0 340.75 334.33"><defs><style>.cls-1,.cls-2{fill:#fff;}.cls-1,.cls-10,.cls-11,.cls-12,.cls-13,.cls-14,.cls-15,.cls-8,.cls-9{stroke:#686868;}.cls-1,.cls-10,.cls-11,.cls-12,.cls-13,.cls-14,.cls-15,.cls-4,.cls-5,.cls-7,.cls-8,.cls-9{stroke-miterlimit:10;}.cls-1,.cls-9{stroke-width:0.7px;}.cls-3{font-size:15px;font-family:MyriadPro-Regular, Myriad Pro;}.cls-3,.cls-6{fill:#b3221d;}.cls-10,.cls-11,.cls-12,.cls-13,.cls-14,.cls-15,.cls-4,.cls-5,.cls-7,.cls-8,.cls-9{fill:none;}.cls-4,.cls-5,.cls-7{stroke:#b3221d;}.cls-4{stroke-width:1.54px;}.cls-5{stroke-width:1.5px;}.cls-7{stroke-width:1.56px;}.cls-8{stroke-width:2.09px;}.cls-10{stroke-width:0.77px;}.cls-11{stroke-width:0.72px;}.cls-12{stroke-width:0.7px;}.cls-13{stroke-width:0.76px;}.cls-14{stroke-width:0.63px;}.cls-15{stroke-width:0.64px;}.cls-16{fill:#686868;opacity:0.5;}</style></defs><title>Ativo 5</title><g id="Camada_2" data-name="Camada 2"><g id="Camada_1-2" data-name="Camada 1"><polyline class="cls-1" points="6.06 108.33 0.35 108.33 0.35 202.22 4.87 202.22"/><path class="cls-2" d="M6.75,1,4.87,293.35l13.93.21v1.72s.09.53.84.53H41.09s1.12.15,1.21-.75a4.26,4.26,0,0,0,0-1.26,4.37,4.37,0,0,0,4.15-2.18c1.47-2.52,6.75-11.16,6.75-11.16l168,1,6.3,11.34s1.92,2.53,4.29,2.25v2.25l22.44.24v-2.36l14.42,0,25.48-2.11s2,.08,2.29-1.26,0-11.14,0-11.14.17-.62-.85-1.21-5.75-4.45-5.75-4.45-.1-.24,0-.24l2.23-.14.24-.1,1.08.79,1.2,0,.61-.66-.26-252.4a1.19,1.19,0,0,0-1-.59,1.73,1.73,0,0,0-1.21.34l-1.62,3.28-.61-.17,3.59-6.57a3.25,3.25,0,0,0,.55-1.47c0-.74,0-15,0-15a.62.62,0,0,0-.61-.57c-.58,0-.87,0-1,.22a.76.76,0,0,1-.28.14H275.46l-.34-.39h-5.74l-.68-.16Z"/><text class="cls-3" transform="translate(136.37 324.27)">40cm</text><line class="cls-4" x1="6.09" y1="327.25" x2="285.99" y2="327.25"/><line class="cls-5" x1="3.7" y1="334.33" x2="3.7" y2="320.17"/><polygon class="cls-6" points="4.11 327.25 16.37 334.33 16.37 320.17 4.11 327.25"/><line class="cls-5" x1="296.15" y1="334.33" x2="296.15" y2="320.17"/><polygon class="cls-6" points="295.74 327.25 283.47 334.33 283.47 320.17 295.74 327.25"/><text class="cls-3" transform="translate(337 168.57) rotate(-90)">42cm</text><line class="cls-7" x1="322.05" y1="289.08" x2="322.05" y2="4.04"/><line class="cls-5" x1="329.13" y1="297.57" x2="314.97" y2="297.57"/><polygon class="cls-6" points="322.06 297.15 329.13 284.89 314.97 284.89 322.06 297.15"/><line class="cls-5" x1="329.13" y1="1.99" x2="314.97" y2="1.99"/><polygon class="cls-6" points="322.06 2.4 329.13 14.66 314.97 14.66 322.06 2.4"/><path class="cls-8" d="M6.75,1,4.87,293.35l13.93.21v1.72s.09.53.84.53H41.09s1.12.15,1.21-.75a4.26,4.26,0,0,0,0-1.26,4.37,4.37,0,0,0,4.15-2.18c1.47-2.52,6.75-11.16,6.75-11.16l168,1,6.3,11.34s1.92,2.53,4.29,2.25v2.25l22.44.24v-2.36l14.42,0,25.48-2.11s2,.08,2.29-1.26,0-11.14,0-11.14.17-.62-.85-1.21-5.75-4.45-5.75-4.45-.1-.24,0-.24l2.23-.14.24-.1,1.08.79,1.2,0,.61-.66-.26-252.4a1.19,1.19,0,0,0-1-.59,1.73,1.73,0,0,0-1.21.34l-1.62,3.28-.61-.17,3.59-6.57a3.25,3.25,0,0,0,.55-1.47c0-.74,0-15,0-15a.62.62,0,0,0-.61-.57c-.58,0-.87,0-1,.22a.76.76,0,0,1-.28.14H275.46l-.34-.39h-5.74l-.68-.16Z"/><line class="cls-9" x1="268.99" y1="1.99" x2="268.99" y2="294.82"/><polyline class="cls-9" points="275.57 1.99 275.57 275.06 289.29 275.06"/><path class="cls-9" d="M281,275.06a2.41,2.41,0,0,1,1.76,1.45c.53,1.28,1.06,3,3,3.17s9.29,0,9.29,0"/><line class="cls-9" x1="52.8" y1="280.21" x2="5.42" y2="280.21"/><polyline class="cls-9" points="16.03 18.84 13.97 266.05 19.08 271.33 255.78 272.39 255.78 268.98 260.01 264.23 260.01 19.19"/><path class="cls-9" d="M9.28,9.85v6.81s-.41,2.17,3.35,2.17H261.15s5.17.38,5.17-3.05V9.5"/><path class="cls-9" d="M6.87,280.21V278H16s2.69,0,2.69-2.29v-5.08"/><path class="cls-9" d="M255.56,272.39v4.13s-.09,3.25,1.76,3.25h9.47v1.84"/><polyline class="cls-9" points="14.44 210.67 229.88 210.67 229.88 272.39"/><rect class="cls-9" x="159.3" y="215.81" width="58.13" height="51.44" rx="4.81" ry="4.81"/><rect class="cls-9" x="45.27" y="41.45" width="90.9" height="70.35" rx="4.83" ry="4.83"/><rect class="cls-10" x="41.33" y="38.39" width="98.79" height="76.45" rx="6.64" ry="6.64"/><rect class="cls-10" x="148.15" y="35.58" width="12.8" height="39.81" rx="5.39" ry="5.39"/><rect class="cls-10" x="178.1" y="35.58" width="12.8" height="39.81" rx="5.39" ry="5.39"/><rect class="cls-11" x="220.84" y="20.78" width="11.27" height="39.81" rx="5.06" ry="5.06" transform="translate(185.8 267.16) rotate(-90)"/><rect class="cls-10" x="148.15" y="91.89" width="12.8" height="39.81" rx="5.39" ry="5.39"/><rect class="cls-10" x="178.1" y="91.89" width="12.8" height="39.81" rx="5.39" ry="5.39"/><rect class="cls-10" x="148.15" y="149.31" width="12.8" height="39.81" rx="5.39" ry="5.39"/><rect class="cls-10" x="178.1" y="149.31" width="12.8" height="39.81" rx="5.39" ry="5.39"/><rect class="cls-9" x="44.48" y="187.42" width="26.16" height="10.13" rx="5.06" ry="5.06"/><rect class="cls-9" x="84.03" y="187.42" width="26.16" height="10.13" rx="5.06" ry="5.06"/><rect class="cls-9" x="31.74" y="192.49" width="1.35" height="8.88" rx="0.68" ry="0.68"/><rect class="cls-9" x="34.76" y="192.49" width="1.35" height="8.88" rx="0.68" ry="0.68"/><rect class="cls-9" x="31.74" y="135.88" width="1.35" height="8.88" rx="0.68" ry="0.68"/><rect class="cls-9" x="34.76" y="135.88" width="1.35" height="8.88" rx="0.68" ry="0.68"/><rect class="cls-9" x="31.74" y="79.51" width="1.35" height="8.88" rx="0.68" ry="0.68"/><rect class="cls-9" x="34.76" y="79.51" width="1.35" height="8.88" rx="0.68" ry="0.68"/><rect class="cls-9" x="152.36" y="192.49" width="1.35" height="8.88" rx="0.68" ry="0.68"/><rect class="cls-9" x="155.39" y="192.49" width="1.35" height="8.88" rx="0.68" ry="0.68"/><rect class="cls-9" x="152.36" y="135.88" width="1.35" height="8.88" rx="0.68" ry="0.68"/><rect class="cls-9" x="155.39" y="135.88" width="1.35" height="8.88" rx="0.68" ry="0.68"/><rect class="cls-9" x="152.36" y="79.51" width="1.35" height="8.88" rx="0.68" ry="0.68"/><rect class="cls-9" x="155.39" y="79.51" width="1.35" height="8.88" rx="0.68" ry="0.68"/><rect class="cls-9" x="182.31" y="192.49" width="1.35" height="8.88" rx="0.68" ry="0.68"/><rect class="cls-9" x="185.33" y="192.49" width="1.35" height="8.88" rx="0.68" ry="0.68"/><rect class="cls-9" x="182.31" y="135.88" width="1.35" height="8.88" rx="0.68" ry="0.68"/><rect class="cls-9" x="185.33" y="135.88" width="1.35" height="8.88" rx="0.68" ry="0.68"/><rect class="cls-9" x="182.31" y="79.51" width="1.35" height="8.88" rx="0.68" ry="0.68"/><rect class="cls-9" x="185.33" y="79.51" width="1.35" height="8.88" rx="0.68" ry="0.68"/><rect class="cls-9" x="224.98" y="89.57" width="1.35" height="8.88" rx="0.68" ry="0.68" transform="translate(131.64 319.67) rotate(-90)"/><rect class="cls-9" x="224.98" y="86.55" width="1.35" height="8.88" rx="0.68" ry="0.68" transform="translate(134.67 316.65) rotate(-90)"/><rect class="cls-9" x="224.98" y="186.19" width="1.35" height="8.88" rx="0.68" ry="0.68" transform="translate(35.03 416.29) rotate(-90)"/><rect class="cls-9" x="224.98" y="183.17" width="1.35" height="8.88" rx="0.68" ry="0.68" transform="translate(38.05 413.26) rotate(-90)"/><line class="cls-9" x1="230.1" y1="211.56" x2="260.36" y2="211.56"/><circle class="cls-9" cx="56.05" cy="137.39" r="1.47"/><circle class="cls-9" cx="56.05" cy="137.39" r="2.83"/><circle class="cls-9" cx="102.36" cy="137.39" r="1.47"/><circle class="cls-9" cx="102.36" cy="137.39" r="2.83"/><circle class="cls-9" cx="56.05" cy="175.38" r="1.47"/><circle class="cls-9" cx="56.05" cy="175.38" r="2.83"/><circle class="cls-9" cx="43.53" cy="204.84" r="1.47"/><circle class="cls-9" cx="43.53" cy="204.84" r="2.83"/><circle class="cls-9" cx="104.3" cy="204.84" r="1.47"/><circle class="cls-9" cx="104.3" cy="204.84" r="2.83"/><circle class="cls-9" cx="165.47" cy="204.84" r="1.47"/><circle class="cls-9" cx="165.47" cy="204.84" r="2.83"/><circle class="cls-9" cx="205.16" cy="204.84" r="1.47"/><circle class="cls-9" cx="205.16" cy="204.84" r="2.83"/><circle class="cls-9" cx="201.93" cy="188.28" r="1.47"/><circle class="cls-9" cx="201.93" cy="188.28" r="2.83"/><circle class="cls-9" cx="201.93" cy="150.32" r="1.47"/><circle class="cls-9" cx="201.93" cy="150.32" r="2.83"/><circle class="cls-9" cx="201.93" cy="131.04" r="1.47"/><circle class="cls-9" cx="201.93" cy="131.04" r="2.83"/><circle class="cls-9" cx="218.45" cy="131.04" r="1.47"/><circle class="cls-9" cx="218.45" cy="131.04" r="2.83"/><circle class="cls-9" cx="248.42" cy="131.04" r="1.47"/><circle class="cls-9" cx="248.42" cy="131.04" r="2.83"/><circle class="cls-9" cx="248.42" cy="93.34" r="1.47"/><circle class="cls-9" cx="248.42" cy="93.34" r="2.83"/><circle class="cls-9" cx="248.42" cy="150.32" r="1.47"/><circle class="cls-9" cx="248.42" cy="150.32" r="2.83"/><circle class="cls-9" cx="248.42" cy="188.28" r="1.47"/><circle class="cls-9" cx="248.42" cy="188.28" r="2.83"/><circle class="cls-9" cx="218.45" cy="150.32" r="1.47"/><circle class="cls-9" cx="218.45" cy="150.32" r="2.83"/><circle class="cls-9" cx="201.93" cy="93.34" r="1.47"/><circle class="cls-9" cx="201.93" cy="93.34" r="2.83"/><circle class="cls-9" cx="224.05" cy="71.21" r="1.47"/><circle class="cls-9" cx="224.05" cy="71.21" r="2.83"/><circle class="cls-9" cx="102.36" cy="175.38" r="1.47"/><circle class="cls-9" cx="102.36" cy="175.38" r="2.83"/><circle class="cls-9" cx="27.52" cy="122.33" r="1.45"/><circle class="cls-9" cx="27.52" cy="150.32" r="1.45"/><circle class="cls-9" cx="122.03" cy="122.33" r="1.45"/><circle class="cls-9" cx="166.36" cy="123.15" r="1.45"/><circle class="cls-9" cx="122.03" cy="150.32" r="1.45"/><circle class="cls-9" cx="122.03" cy="163.38" r="1.45"/><circle class="cls-9" cx="122.03" cy="199.01" r="1.45"/><circle class="cls-9" cx="166.24" cy="199.01" r="1.45"/><circle class="cls-9" cx="41.97" cy="26.97" r="1.45"/><circle class="cls-9" cx="122.47" cy="26.97" r="1.45"/><circle class="cls-9" cx="144.79" cy="26.97" r="1.45"/><rect class="cls-9" x="213.15" y="135.28" width="24.93" height="10.33" rx="5.17" ry="5.17"/><rect class="cls-9" x="237.29" y="108.25" width="19.95" height="8.22" rx="4.11" ry="4.11" transform="translate(134.91 359.62) rotate(-90)"/><rect class="cls-9" x="237.29" y="162.74" width="19.95" height="8.22" rx="4.11" ry="4.11" transform="translate(80.42 414.12) rotate(-90)"/><path class="cls-9" d="M41.33,130.58v64.59s-.23,5.58,5,5.58H113.5s4.29.41,4.29-3.64v-2.7s-.43-3.95,1.64-3.95h4.93s1.87-.2,1.81,4.32a24.92,24.92,0,1,0,0,2.51,3.39,3.39,0,0,0,3.52,3.57h7.2a4,4,0,0,0,3.09-3.93V129.5s-.47-3.58-4.93-3.58h-5a4.24,4.24,0,0,0-3.82,4.35v3.29s.35,2.38-2.64,2.38H121s-2.5.38-2.5-2.61v-3.05s.38-4.35-3.41-4.35h-70S41.33,126.11,41.33,130.58Z"/><rect class="cls-12" x="53.22" y="142.16" width="51.96" height="28.45" rx="3.73" ry="3.73"/><rect class="cls-12" x="116.73" y="144.76" width="10.51" height="36.26" rx="2.89" ry="2.89"/><rect class="cls-10" x="209.8" y="97.05" width="31.53" height="87.55" rx="3.08" ry="3.08"/><rect class="cls-13" x="196.65" y="88.39" width="57.07" height="105.9" rx="3.34" ry="3.34"/><rect class="cls-11" x="204.75" y="49.9" width="43.67" height="6.81"/><rect class="cls-11" x="204.75" y="76.62" width="43.67" height="6.81"/><rect class="cls-11" x="201.13" y="61.95" width="5.45" height="2.42" rx="1.21" ry="1.21"/><rect class="cls-11" x="201.13" y="69.29" width="5.45" height="2.42" rx="1.21" ry="1.21"/><circle class="cls-11" cx="199.1" cy="63.17" r="1.17"/><circle class="cls-11" cx="196.01" cy="63.17" r="1.17"/><circle class="cls-11" cx="199.1" cy="70.5" r="1.17"/><circle class="cls-11" cx="196.01" cy="70.5" r="1.17"/><path class="cls-11" d="M217.7,62.76h-7.16a1.51,1.51,0,0,0-1.61,1.61v5s-.23,1.78,1.23,1.78h7.93a.59.59,0,0,0,.51-.55c0-.47-.59-.58-.59-.58h-7.16s-.76-.08-.76-1.1,0-4.07,0-4.07-.14-1,.84-1h6.83s.88.08.88-.47S217.7,62.76,217.7,62.76Z"/><rect class="cls-11" x="249.78" y="62.06" width="5.45" height="2.42" rx="1.21" ry="1.21"/><rect class="cls-11" x="249.78" y="69.39" width="5.45" height="2.42" rx="1.21" ry="1.21"/><circle class="cls-11" cx="247.75" cy="63.27" r="1.17"/><circle class="cls-11" cx="244.66" cy="63.27" r="1.17"/><circle class="cls-11" cx="247.75" cy="70.6" r="1.17"/><circle class="cls-11" cx="244.66" cy="70.6" r="1.17"/><path class="cls-11" d="M238.55,62.87h-7.16a1.51,1.51,0,0,0-1.61,1.61v5s-.23,1.78,1.23,1.78h7.93a.59.59,0,0,0,.51-.55c0-.47-.59-.58-.59-.58h-7.16s-.76-.08-.76-1.1,0-4.07,0-4.07-.14-1,.84-1h6.83s.88.08.88-.47S238.55,62.87,238.55,62.87Z"/><polygon class="cls-9" points="166.25 221.72 166.25 223.04 167.39 224.17 168.73 224.17 169.94 222.96 169.94 221.72 168.81 220.58 167.45 220.58 166.25 221.72"/><polygon class="cls-9" points="172.96 221.72 172.96 223.04 174.1 224.17 175.44 224.17 176.66 222.96 176.66 221.72 175.52 220.58 174.16 220.58 172.96 221.72"/><polygon class="cls-9" points="179.65 221.72 179.65 223.04 180.78 224.17 182.13 224.17 183.34 222.96 183.34 221.72 182.2 220.58 180.85 220.58 179.65 221.72"/><polygon class="cls-9" points="186.35 221.72 186.35 223.04 187.49 224.17 188.84 224.17 190.05 222.96 190.05 221.72 188.91 220.58 187.56 220.58 186.35 221.72"/><polygon class="cls-9" points="193.07 221.72 193.07 223.04 194.2 224.17 195.55 224.17 196.76 222.96 196.76 221.72 195.63 220.58 194.27 220.58 193.07 221.72"/><polygon class="cls-9" points="199.78 221.72 199.78 223.04 200.91 224.17 202.26 224.17 203.47 222.96 203.47 221.72 202.34 220.58 200.98 220.58 199.78 221.72"/><polygon class="cls-9" points="206.49 221.72 206.49 223.04 207.62 224.17 208.97 224.17 210.18 222.96 210.18 221.72 209.05 220.58 207.69 220.58 206.49 221.72"/><polygon class="cls-9" points="162.82 225.31 162.82 226.63 163.96 227.77 165.3 227.77 166.52 226.55 166.52 225.31 165.38 224.17 164.03 224.17 162.82 225.31"/><polygon class="cls-9" points="169.53 225.31 169.53 226.63 170.67 227.77 172.01 227.77 173.23 226.55 173.23 225.31 172.09 224.17 170.74 224.17 169.53 225.31"/><polygon class="cls-9" points="176.22 225.31 176.22 226.63 177.36 227.77 178.7 227.77 179.91 226.55 179.91 225.31 178.78 224.17 177.42 224.17 176.22 225.31"/><polygon class="cls-9" points="182.93 225.31 182.93 226.63 184.07 227.77 185.41 227.77 186.62 226.55 186.62 225.31 185.49 224.17 184.13 224.17 182.93 225.31"/><polygon class="cls-9" points="189.64 225.31 189.64 226.63 190.78 227.77 192.12 227.77 193.33 226.55 193.33 225.31 192.2 224.17 190.84 224.17 189.64 225.31"/><polygon class="cls-9" points="196.35 225.31 196.35 226.63 197.49 227.77 198.83 227.77 200.04 226.55 200.04 225.31 198.91 224.17 197.55 224.17 196.35 225.31"/><polygon class="cls-9" points="203.06 225.31 203.06 226.63 204.2 227.77 205.54 227.77 206.75 226.55 206.75 225.31 205.62 224.17 204.26 224.17 203.06 225.31"/><polygon class="cls-9" points="209.83 225.31 209.83 226.63 210.97 227.77 212.31 227.77 213.53 226.55 213.53 225.31 212.39 224.17 211.03 224.17 209.83 225.31"/><polygon class="cls-9" points="166.09 229.06 166.09 230.38 167.23 231.52 168.57 231.52 169.79 230.3 169.79 229.06 168.65 227.92 167.3 227.92 166.09 229.06"/><polygon class="cls-9" points="172.81 229.06 172.81 230.38 173.94 231.52 175.29 231.52 176.5 230.3 176.5 229.06 175.37 227.92 174.01 227.92 172.81 229.06"/><polygon class="cls-9" points="179.49 229.06 179.49 230.38 180.63 231.52 181.97 231.52 183.19 230.3 183.19 229.06 182.05 227.92 180.69 227.92 179.49 229.06"/><polygon class="cls-9" points="186.2 229.06 186.2 230.38 187.34 231.52 188.68 231.52 189.9 230.3 189.9 229.06 188.76 227.92 187.41 227.92 186.2 229.06"/><polygon class="cls-9" points="192.91 229.06 192.91 230.38 194.05 231.52 195.39 231.52 196.61 230.3 196.61 229.06 195.47 227.92 194.12 227.92 192.91 229.06"/><polygon class="cls-9" points="199.62 229.06 199.62 230.38 200.76 231.52 202.1 231.52 203.32 230.3 203.32 229.06 202.18 227.92 200.83 227.92 199.62 229.06"/><polygon class="cls-9" points="206.33 229.06 206.33 230.38 207.47 231.52 208.81 231.52 210.03 230.3 210.03 229.06 208.89 227.92 207.54 227.92 206.33 229.06"/><polygon class="cls-9" points="162.67 232.65 162.67 233.97 163.81 235.11 165.15 235.11 166.36 233.9 166.36 232.65 165.23 231.52 163.87 231.52 162.67 232.65"/><polygon class="cls-9" points="169.38 232.65 169.38 233.97 170.52 235.11 171.86 235.11 173.07 233.9 173.07 232.65 171.94 231.52 170.58 231.52 169.38 232.65"/><polygon class="cls-9" points="176.06 232.65 176.06 233.97 177.2 235.11 178.54 235.11 179.76 233.9 179.76 232.65 178.62 231.52 177.27 231.52 176.06 232.65"/><polygon class="cls-9" points="182.77 232.65 182.77 233.97 183.91 235.11 185.25 235.11 186.47 233.9 186.47 232.65 185.33 231.52 183.98 231.52 182.77 232.65"/><polygon class="cls-9" points="189.49 232.65 189.49 233.97 190.62 235.11 191.97 235.11 193.18 233.9 193.18 232.65 192.04 231.52 190.69 231.52 189.49 232.65"/><polygon class="cls-9" points="196.19 232.65 196.19 233.97 197.33 235.11 198.68 235.11 199.89 233.9 199.89 232.65 198.75 231.52 197.4 231.52 196.19 232.65"/><polygon class="cls-9" points="202.91 232.65 202.91 233.97 204.04 235.11 205.39 235.11 206.6 233.9 206.6 232.65 205.47 231.52 204.11 231.52 202.91 232.65"/><polygon class="cls-9" points="209.68 232.65 209.68 233.97 210.81 235.11 212.16 235.11 213.37 233.9 213.37 232.65 212.24 231.52 210.88 231.52 209.68 232.65"/><polygon class="cls-9" points="166.01 236.06 166.01 237.38 167.14 238.52 168.49 238.52 169.7 237.31 169.7 236.06 168.57 234.93 167.21 234.93 166.01 236.06"/><polygon class="cls-9" points="172.72 236.06 172.72 237.38 173.85 238.52 175.2 238.52 176.41 237.31 176.41 236.06 175.28 234.93 173.92 234.93 172.72 236.06"/><polygon class="cls-9" points="179.4 236.06 179.4 237.38 180.54 238.52 181.88 238.52 183.1 237.31 183.1 236.06 181.96 234.93 180.61 234.93 179.4 236.06"/><polygon class="cls-9" points="186.11 236.06 186.11 237.38 187.25 238.52 188.59 238.52 189.81 237.31 189.81 236.06 188.67 234.93 187.32 234.93 186.11 236.06"/><polygon class="cls-9" points="192.82 236.06 192.82 237.38 193.96 238.52 195.3 238.52 196.52 237.31 196.52 236.06 195.38 234.93 194.03 234.93 192.82 236.06"/><polygon class="cls-9" points="199.53 236.06 199.53 237.38 200.67 238.52 202.01 238.52 203.23 237.31 203.23 236.06 202.09 234.93 200.74 234.93 199.53 236.06"/><polygon class="cls-9" points="206.24 236.06 206.24 237.38 207.38 238.52 208.72 238.52 209.94 237.31 209.94 236.06 208.8 234.93 207.45 234.93 206.24 236.06"/><polygon class="cls-9" points="162.58 239.66 162.58 240.98 163.72 242.12 165.06 242.12 166.28 240.9 166.28 239.66 165.14 238.52 163.78 238.52 162.58 239.66"/><polygon class="cls-9" points="169.29 239.66 169.29 240.98 170.43 242.12 171.77 242.12 172.99 240.9 172.99 239.66 171.85 238.52 170.49 238.52 169.29 239.66"/><polygon class="cls-9" points="175.98 239.66 175.98 240.98 177.11 242.12 178.46 242.12 179.67 240.9 179.67 239.66 178.53 238.52 177.18 238.52 175.98 239.66"/><polygon class="cls-9" points="182.69 239.66 182.69 240.98 183.82 242.12 185.17 242.12 186.38 240.9 186.38 239.66 185.25 238.52 183.89 238.52 182.69 239.66"/><polygon class="cls-9" points="189.4 239.66 189.4 240.98 190.53 242.12 191.88 242.12 193.09 240.9 193.09 239.66 191.96 238.52 190.6 238.52 189.4 239.66"/><polygon class="cls-9" points="196.11 239.66 196.11 240.98 197.25 242.12 198.59 242.12 199.8 240.9 199.8 239.66 198.67 238.52 197.31 238.52 196.11 239.66"/><polygon class="cls-9" points="202.82 239.66 202.82 240.98 203.96 242.12 205.3 242.12 206.51 240.9 206.51 239.66 205.38 238.52 204.02 238.52 202.82 239.66"/><polygon class="cls-9" points="209.59 239.66 209.59 240.98 210.72 242.12 212.07 242.12 213.28 240.9 213.28 239.66 212.15 238.52 210.79 238.52 209.59 239.66"/><polygon class="cls-9" points="165.85 243.41 165.85 244.73 166.99 245.87 168.33 245.87 169.55 244.65 169.55 243.41 168.41 242.27 167.06 242.27 165.85 243.41"/><polygon class="cls-9" points="172.56 243.41 172.56 244.73 173.7 245.87 175.04 245.87 176.26 244.65 176.26 243.41 175.12 242.27 173.77 242.27 172.56 243.41"/><polygon class="cls-9" points="179.25 243.41 179.25 244.73 180.39 245.87 181.73 245.87 182.94 244.65 182.94 243.41 181.81 242.27 180.45 242.27 179.25 243.41"/><polygon class="cls-9" points="185.96 243.41 185.96 244.73 187.1 245.87 188.44 245.87 189.65 244.65 189.65 243.41 188.52 242.27 187.16 242.27 185.96 243.41"/><polygon class="cls-9" points="192.67 243.41 192.67 244.73 193.81 245.87 195.15 245.87 196.37 244.65 196.37 243.41 195.23 242.27 193.87 242.27 192.67 243.41"/><polygon class="cls-9" points="199.38 243.41 199.38 244.73 200.52 245.87 201.86 245.87 203.07 244.65 203.07 243.41 201.94 242.27 200.58 242.27 199.38 243.41"/><polygon class="cls-9" points="206.09 243.41 206.09 244.73 207.23 245.87 208.57 245.87 209.79 244.65 209.79 243.41 208.65 242.27 207.29 242.27 206.09 243.41"/><polygon class="cls-9" points="162.43 247 162.43 248.32 163.56 249.46 164.91 249.46 166.12 248.25 166.12 247 164.99 245.87 163.63 245.87 162.43 247"/><polygon class="cls-9" points="169.14 247 169.14 248.32 170.27 249.46 171.62 249.46 172.83 248.25 172.83 247 171.69 245.87 170.34 245.87 169.14 247"/><polygon class="cls-9" points="175.82 247 175.82 248.32 176.96 249.46 178.3 249.46 179.52 248.25 179.52 247 178.38 245.87 177.03 245.87 175.82 247"/><polygon class="cls-9" points="182.53 247 182.53 248.32 183.67 249.46 185.01 249.46 186.23 248.25 186.23 247 185.09 245.87 183.74 245.87 182.53 247"/><polygon class="cls-9" points="189.24 247 189.24 248.32 190.38 249.46 191.72 249.46 192.94 248.25 192.94 247 191.8 245.87 190.45 245.87 189.24 247"/><polygon class="cls-9" points="195.95 247 195.95 248.32 197.09 249.46 198.43 249.46 199.65 248.25 199.65 247 198.51 245.87 197.16 245.87 195.95 247"/><polygon class="cls-9" points="202.66 247 202.66 248.32 203.8 249.46 205.14 249.46 206.36 248.25 206.36 247 205.22 245.87 203.87 245.87 202.66 247"/><polygon class="cls-9" points="209.43 247 209.43 248.32 210.57 249.46 211.91 249.46 213.13 248.25 213.13 247 211.99 245.87 210.64 245.87 209.43 247"/><polygon class="cls-14" points="55.54 146.09 55.54 147.25 56.59 148.24 57.83 148.24 58.95 147.18 58.95 146.09 57.9 145.09 56.65 145.09 55.54 146.09"/><polygon class="cls-14" points="61.73 146.09 61.73 147.25 62.78 148.24 64.02 148.24 65.14 147.18 65.14 146.09 64.1 145.09 62.84 145.09 61.73 146.09"/><polygon class="cls-14" points="67.9 146.09 67.9 147.25 68.95 148.24 70.19 148.24 71.31 147.18 71.31 146.09 70.27 145.09 69.02 145.09 67.9 146.09"/><polygon class="cls-14" points="74.1 146.09 74.1 147.25 75.15 148.24 76.39 148.24 77.51 147.18 77.51 146.09 76.46 145.09 75.21 145.09 74.1 146.09"/><polygon class="cls-14" points="80.29 146.09 80.29 147.25 81.34 148.24 82.58 148.24 83.7 147.18 83.7 146.09 82.65 145.09 81.4 145.09 80.29 146.09"/><polygon class="cls-14" points="86.48 146.09 86.48 147.25 87.53 148.24 88.77 148.24 89.89 147.18 89.89 146.09 88.85 145.09 87.59 145.09 86.48 146.09"/><polygon class="cls-14" points="92.68 146.09 92.68 147.25 93.73 148.24 94.97 148.24 96.09 147.18 96.09 146.09 95.04 145.09 93.79 145.09 92.68 146.09"/><polygon class="cls-14" points="98.93 146.09 98.93 147.25 99.98 148.24 101.22 148.24 102.34 147.18 102.34 146.09 101.29 145.09 100.04 145.09 98.93 146.09"/><polygon class="cls-14" points="58.56 149.37 58.56 150.53 59.61 151.52 60.85 151.52 61.97 150.46 61.97 149.37 60.92 148.38 59.67 148.38 58.56 149.37"/><polygon class="cls-14" points="64.75 149.37 64.75 150.53 65.8 151.52 67.04 151.52 68.17 150.46 68.17 149.37 67.12 148.38 65.86 148.38 64.75 149.37"/><polygon class="cls-14" points="70.92 149.37 70.92 150.53 71.97 151.52 73.21 151.52 74.33 150.46 74.33 149.37 73.29 148.38 72.03 148.38 70.92 149.37"/><polygon class="cls-14" points="77.12 149.37 77.12 150.53 78.17 151.52 79.41 151.52 80.53 150.46 80.53 149.37 79.48 148.38 78.23 148.38 77.12 149.37"/><polygon class="cls-14" points="83.31 149.37 83.31 150.53 84.36 151.52 85.6 151.52 86.72 150.46 86.72 149.37 85.67 148.38 84.42 148.38 83.31 149.37"/><polygon class="cls-14" points="89.5 149.37 89.5 150.53 90.55 151.52 91.79 151.52 92.92 150.46 92.92 149.37 91.87 148.38 90.61 148.38 89.5 149.37"/><polygon class="cls-14" points="95.7 149.37 95.7 150.53 96.75 151.52 97.99 151.52 99.11 150.46 99.11 149.37 98.06 148.38 96.81 148.38 95.7 149.37"/><polygon class="cls-14" points="55.4 152.52 55.4 153.68 56.45 154.67 57.69 154.67 58.81 153.61 58.81 152.52 57.76 151.52 56.51 151.52 55.4 152.52"/><polygon class="cls-14" points="61.59 152.52 61.59 153.68 62.64 154.67 63.88 154.67 65 153.61 65 152.52 63.95 151.52 62.7 151.52 61.59 152.52"/><polygon class="cls-14" points="67.76 152.52 67.76 153.68 68.81 154.67 70.05 154.67 71.17 153.61 71.17 152.52 70.12 151.52 68.87 151.52 67.76 152.52"/><polygon class="cls-14" points="73.95 152.52 73.95 153.68 75 154.67 76.25 154.67 77.37 153.61 77.37 152.52 76.32 151.52 75.07 151.52 73.95 152.52"/><polygon class="cls-14" points="80.15 152.52 80.15 153.68 81.2 154.67 82.44 154.67 83.56 153.61 83.56 152.52 82.51 151.52 81.26 151.52 80.15 152.52"/><polygon class="cls-14" points="86.34 152.52 86.34 153.68 87.39 154.67 88.63 154.67 89.75 153.61 89.75 152.52 88.7 151.52 87.45 151.52 86.34 152.52"/><polygon class="cls-14" points="92.53 152.52 92.53 153.68 93.58 154.67 94.83 154.67 95.95 153.61 95.95 152.52 94.9 151.52 93.65 151.52 92.53 152.52"/><polygon class="cls-14" points="98.78 152.52 98.78 153.68 99.83 154.67 101.07 154.67 102.19 153.61 102.19 152.52 101.15 151.52 99.89 151.52 98.78 152.52"/><polygon class="cls-14" points="58.48 155.5 58.48 156.66 59.53 157.66 60.77 157.66 61.89 156.59 61.89 155.5 60.84 154.51 59.59 154.51 58.48 155.5"/><polygon class="cls-14" points="64.67 155.5 64.67 156.66 65.72 157.66 66.96 157.66 68.08 156.59 68.08 155.5 67.03 154.51 65.78 154.51 64.67 155.5"/><polygon class="cls-14" points="70.84 155.5 70.84 156.66 71.89 157.66 73.13 157.66 74.25 156.59 74.25 155.5 73.2 154.51 71.95 154.51 70.84 155.5"/><polygon class="cls-14" points="77.04 155.5 77.04 156.66 78.09 157.66 79.33 157.66 80.45 156.59 80.45 155.5 79.4 154.51 78.15 154.51 77.04 155.5"/><polygon class="cls-14" points="83.23 155.5 83.23 156.66 84.28 157.66 85.52 157.66 86.64 156.59 86.64 155.5 85.59 154.51 84.34 154.51 83.23 155.5"/><polygon class="cls-14" points="89.42 155.5 89.42 156.66 90.47 157.66 91.71 157.66 92.83 156.59 92.83 155.5 91.79 154.51 90.53 154.51 89.42 155.5"/><polygon class="cls-14" points="95.62 155.5 95.62 156.66 96.67 157.66 97.91 157.66 99.03 156.59 99.03 155.5 97.98 154.51 96.73 154.51 95.62 155.5"/><polygon class="cls-14" points="55.32 158.65 55.32 159.81 56.37 160.8 57.61 160.8 58.73 159.74 58.73 158.65 57.68 157.66 56.43 157.66 55.32 158.65"/><polygon class="cls-14" points="61.51 158.65 61.51 159.81 62.56 160.8 63.8 160.8 64.92 159.74 64.92 158.65 63.87 157.66 62.62 157.66 61.51 158.65"/><polygon class="cls-14" points="67.68 158.65 67.68 159.81 68.73 160.8 69.97 160.8 71.09 159.74 71.09 158.65 70.04 157.66 68.79 157.66 67.68 158.65"/><polygon class="cls-14" points="73.87 158.65 73.87 159.81 74.92 160.8 76.16 160.8 77.28 159.74 77.28 158.65 76.24 157.66 74.98 157.66 73.87 158.65"/><polygon class="cls-14" points="80.07 158.65 80.07 159.81 81.12 160.8 82.36 160.8 83.48 159.74 83.48 158.65 82.43 157.66 81.18 157.66 80.07 158.65"/><polygon class="cls-14" points="86.26 158.65 86.26 159.81 87.31 160.8 88.55 160.8 89.67 159.74 89.67 158.65 88.62 157.66 87.37 157.66 86.26 158.65"/><polygon class="cls-14" points="92.45 158.65 92.45 159.81 93.5 160.8 94.74 160.8 95.86 159.74 95.86 158.65 94.82 157.66 93.56 157.66 92.45 158.65"/><polygon class="cls-14" points="98.7 158.65 98.7 159.81 99.75 160.8 100.99 160.8 102.11 159.74 102.11 158.65 101.06 157.66 99.81 157.66 98.7 158.65"/><polygon class="cls-14" points="58.34 161.93 58.34 163.09 59.39 164.09 60.63 164.09 61.75 163.02 61.75 161.93 60.7 160.94 59.45 160.94 58.34 161.93"/><polygon class="cls-14" points="64.53 161.93 64.53 163.09 65.58 164.09 66.82 164.09 67.94 163.02 67.94 161.93 66.89 160.94 65.64 160.94 64.53 161.93"/><polygon class="cls-14" points="70.7 161.93 70.7 163.09 71.75 164.09 72.99 164.09 74.11 163.02 74.11 161.93 73.06 160.94 71.81 160.94 70.7 161.93"/><polygon class="cls-14" points="76.89 161.93 76.89 163.09 77.94 164.09 79.18 164.09 80.31 163.02 80.31 161.93 79.26 160.94 78 160.94 76.89 161.93"/><polygon class="cls-14" points="83.09 161.93 83.09 163.09 84.14 164.09 85.38 164.09 86.5 163.02 86.5 161.93 85.45 160.94 84.2 160.94 83.09 161.93"/><polygon class="cls-14" points="89.28 161.93 89.28 163.09 90.33 164.09 91.57 164.09 92.69 163.02 92.69 161.93 91.64 160.94 90.39 160.94 89.28 161.93"/><polygon class="cls-14" points="95.47 161.93 95.47 163.09 96.52 164.09 97.76 164.09 98.89 163.02 98.89 161.93 97.84 160.94 96.58 160.94 95.47 161.93"/><polygon class="cls-14" points="55.17 165.08 55.17 166.24 56.22 167.23 57.46 167.23 58.59 166.17 58.59 165.08 57.54 164.09 56.28 164.09 55.17 165.08"/><polygon class="cls-14" points="61.37 165.08 61.37 166.24 62.42 167.23 63.66 167.23 64.78 166.17 64.78 165.08 63.73 164.09 62.48 164.09 61.37 165.08"/><polygon class="cls-14" points="67.54 165.08 67.54 166.24 68.59 167.23 69.83 167.23 70.95 166.17 70.95 165.08 69.9 164.09 68.65 164.09 67.54 165.08"/><polygon class="cls-14" points="73.73 165.08 73.73 166.24 74.78 167.23 76.02 167.23 77.14 166.17 77.14 165.08 76.09 164.09 74.84 164.09 73.73 165.08"/><polygon class="cls-14" points="79.92 165.08 79.92 166.24 80.97 167.23 82.21 167.23 83.33 166.17 83.33 165.08 82.29 164.09 81.04 164.09 79.92 165.08"/><polygon class="cls-14" points="86.12 165.08 86.12 166.24 87.17 167.23 88.41 167.23 89.53 166.17 89.53 165.08 88.48 164.09 87.23 164.09 86.12 165.08"/><polygon class="cls-14" points="92.31 165.08 92.31 166.24 93.36 167.23 94.6 167.23 95.72 166.17 95.72 165.08 94.67 164.09 93.42 164.09 92.31 165.08"/><polygon class="cls-14" points="98.56 165.08 98.56 166.24 99.61 167.23 100.85 167.23 101.97 166.17 101.97 165.08 100.92 164.09 99.67 164.09 98.56 165.08"/><polygon class="cls-15" points="211.75 179.59 212.93 179.59 213.93 178.54 213.93 177.29 212.86 176.17 211.75 176.17 210.75 177.22 210.75 178.48 211.75 179.59"/><polygon class="cls-15" points="211.75 173.38 212.93 173.38 213.93 172.33 213.93 171.09 212.86 169.97 211.75 169.97 210.75 171.02 210.75 172.27 211.75 173.38"/><polygon class="cls-15" points="211.75 167.2 212.93 167.2 213.93 166.15 213.93 164.91 212.86 163.79 211.75 163.79 210.75 164.84 210.75 166.09 211.75 167.2"/><polygon class="cls-15" points="211.75 161 212.93 161 213.93 159.95 213.93 158.71 212.86 157.58 211.75 157.58 210.75 158.63 210.75 159.89 211.75 161"/><polygon class="cls-15" points="211.75 154.8 212.93 154.8 213.93 153.75 213.93 152.5 212.86 151.38 211.75 151.38 210.75 152.43 210.75 153.68 211.75 154.8"/><polygon class="cls-15" points="214.94 182.76 216.11 182.76 217.12 181.71 217.12 180.46 216.04 179.34 214.94 179.34 213.93 180.39 213.93 181.64 214.94 182.76"/><polygon class="cls-15" points="214.94 176.55 216.11 176.55 217.12 175.5 217.12 174.26 216.04 173.14 214.94 173.14 213.93 174.19 213.93 175.44 214.94 176.55"/><polygon class="cls-15" points="214.94 170.37 216.11 170.37 217.12 169.32 217.12 168.08 216.04 166.96 214.94 166.96 213.93 168.01 213.93 169.26 214.94 170.37"/><polygon class="cls-15" points="214.94 164.17 216.11 164.17 217.12 163.12 217.12 161.88 216.04 160.75 214.94 160.75 213.93 161.8 213.93 163.06 214.94 164.17"/><polygon class="cls-15" points="214.94 157.97 216.11 157.97 217.12 156.91 217.12 155.67 216.04 154.55 214.94 154.55 213.93 155.6 213.93 156.85 214.94 157.97"/><polygon class="cls-15" points="218.26 179.73 219.43 179.73 220.44 178.68 220.44 177.44 219.37 176.31 218.26 176.31 217.26 177.37 217.26 178.62 218.26 179.73"/><polygon class="cls-15" points="218.26 173.53 219.43 173.53 220.44 172.48 220.44 171.23 219.37 170.11 218.26 170.11 217.26 171.16 217.26 172.41 218.26 173.53"/><polygon class="cls-15" points="218.26 167.35 219.43 167.35 220.44 166.29 220.44 165.05 219.37 163.93 218.26 163.93 217.26 164.98 217.26 166.23 218.26 167.35"/><polygon class="cls-15" points="218.26 161.14 219.43 161.14 220.44 160.09 220.44 158.85 219.37 157.73 218.26 157.73 217.26 158.78 217.26 160.03 218.26 161.14"/><polygon class="cls-15" points="221.45 182.9 222.62 182.9 223.63 181.85 223.63 180.61 222.55 179.48 221.45 179.48 220.44 180.53 220.44 181.79 221.45 182.9"/><polygon class="cls-15" points="221.45 176.7 222.62 176.7 223.63 175.64 223.63 174.4 222.55 173.28 221.45 173.28 220.44 174.33 220.44 175.58 221.45 176.7"/><polygon class="cls-15" points="221.45 170.51 222.62 170.51 223.63 169.46 223.63 168.22 222.55 167.1 221.45 167.1 220.44 168.15 220.44 169.4 221.45 170.51"/><polygon class="cls-15" points="221.45 164.31 222.62 164.31 223.63 163.26 223.63 162.02 222.55 160.9 221.45 160.9 220.44 161.94 220.44 163.2 221.45 164.31"/><polygon class="cls-15" points="221.45 158.11 222.62 158.11 223.63 157.06 223.63 155.81 222.55 154.69 221.45 154.69 220.44 155.74 220.44 157 221.45 158.11"/><polygon class="cls-15" points="224.47 179.81 225.64 179.81 226.65 178.76 226.65 177.52 225.57 176.4 224.47 176.4 223.46 177.45 223.46 178.7 224.47 179.81"/><polygon class="cls-15" points="224.47 173.61 225.64 173.61 226.65 172.56 226.65 171.32 225.57 170.19 224.47 170.19 223.46 171.24 223.46 172.5 224.47 173.61"/><polygon class="cls-15" points="224.47 167.43 225.64 167.43 226.65 166.38 226.65 165.13 225.57 164.01 224.47 164.01 223.46 165.06 223.46 166.32 224.47 167.43"/><polygon class="cls-15" points="224.47 161.22 225.64 161.22 226.65 160.17 226.65 158.93 225.57 157.81 224.47 157.81 223.46 158.86 223.46 160.11 224.47 161.22"/><polygon class="cls-15" points="224.47 155.02 225.64 155.02 226.65 153.97 226.65 152.73 225.57 151.6 224.47 151.6 223.46 152.65 223.46 153.91 224.47 155.02"/><polygon class="cls-15" points="227.66 182.98 228.83 182.98 229.84 181.93 229.84 180.69 228.76 179.56 227.66 179.56 226.65 180.61 226.65 181.87 227.66 182.98"/><polygon class="cls-15" points="227.66 176.78 228.83 176.78 229.84 175.72 229.84 174.48 228.76 173.36 227.66 173.36 226.65 174.41 226.65 175.66 227.66 176.78"/><polygon class="cls-15" points="227.66 170.6 228.83 170.6 229.84 169.54 229.84 168.3 228.76 167.18 227.66 167.18 226.65 168.23 226.65 169.48 227.66 170.6"/><polygon class="cls-15" points="227.66 164.39 228.83 164.39 229.84 163.34 229.84 162.1 228.76 160.98 227.66 160.98 226.65 162.03 226.65 163.28 227.66 164.39"/><polygon class="cls-15" points="227.66 158.19 228.83 158.19 229.84 157.14 229.84 155.9 228.76 154.77 227.66 154.77 226.65 155.82 226.65 157.08 227.66 158.19"/><polygon class="cls-15" points="227.66 151.99 228.83 151.99 229.84 150.93 229.84 149.69 228.76 148.57 227.66 148.57 226.65 149.62 226.65 150.87 227.66 151.99"/><polygon class="cls-15" points="230.98 179.96 232.15 179.96 233.16 178.9 233.16 177.66 232.08 176.54 230.98 176.54 229.97 177.59 229.97 178.84 230.98 179.96"/><polygon class="cls-15" points="230.98 173.75 232.15 173.75 233.16 172.7 233.16 171.46 232.08 170.34 230.98 170.34 229.97 171.38 229.97 172.64 230.98 173.75"/><polygon class="cls-15" points="230.98 167.57 232.15 167.57 233.16 166.52 233.16 165.28 232.08 164.15 230.98 164.15 229.97 165.2 229.97 166.46 230.98 167.57"/><polygon class="cls-15" points="230.98 161.37 232.15 161.37 233.16 160.31 233.16 159.07 232.08 157.95 230.98 157.95 229.97 159 229.97 160.25 230.98 161.37"/><polygon class="cls-15" points="230.98 155.16 232.15 155.16 233.16 154.11 233.16 152.87 232.08 151.75 230.98 151.75 229.97 152.8 229.97 154.05 230.98 155.16"/><polygon class="cls-15" points="237.49 179.96 238.66 179.96 239.67 178.9 239.67 177.66 238.59 176.54 237.49 176.54 236.48 177.59 236.48 178.84 237.49 179.96"/><polygon class="cls-15" points="237.49 173.75 238.66 173.75 239.67 172.7 239.67 171.46 238.59 170.34 237.49 170.34 236.48 171.38 236.48 172.64 237.49 173.75"/><polygon class="cls-15" points="237.49 167.57 238.66 167.57 239.67 166.52 239.67 165.28 238.59 164.15 237.49 164.15 236.48 165.2 236.48 166.46 237.49 167.57"/><polygon class="cls-15" points="237.49 161.37 238.66 161.37 239.67 160.31 239.67 159.07 238.59 157.95 237.49 157.95 236.48 159 236.48 160.25 237.49 161.37"/><polygon class="cls-15" points="237.49 155.16 238.66 155.16 239.67 154.11 239.67 152.87 238.59 151.75 237.49 151.75 236.48 152.8 236.48 154.05 237.49 155.16"/><polygon class="cls-15" points="234.16 183.12 235.34 183.12 236.34 182.07 236.34 180.83 235.27 179.71 234.16 179.71 233.16 180.76 233.16 182.01 234.16 183.12"/><polygon class="cls-15" points="234.16 176.92 235.34 176.92 236.34 175.87 236.34 174.63 235.27 173.5 234.16 173.5 233.16 174.55 233.16 175.81 234.16 176.92"/><polygon class="cls-15" points="234.16 170.74 235.34 170.74 236.34 169.69 236.34 168.44 235.27 167.32 234.16 167.32 233.16 168.37 233.16 169.63 234.16 170.74"/><polygon class="cls-15" points="234.16 164.53 235.34 164.53 236.34 163.48 236.34 162.24 235.27 161.12 234.16 161.12 233.16 162.17 233.16 163.42 234.16 164.53"/><polygon class="cls-15" points="234.16 158.33 235.34 158.33 236.34 157.28 236.34 156.04 235.27 154.91 234.16 154.91 233.16 155.97 233.16 157.22 234.16 158.33"/><polygon class="cls-15" points="234.16 152.13 235.34 152.13 236.34 151.08 236.34 149.83 235.27 148.71 234.16 148.71 233.16 149.76 233.16 151.01 234.16 152.13"/><polygon class="cls-15" points="211.75 101.84 212.93 101.84 213.93 102.9 213.93 104.14 212.86 105.26 211.75 105.26 210.75 104.21 210.75 102.96 211.75 101.84"/><polygon class="cls-15" points="211.75 108.05 212.93 108.05 213.93 109.1 213.93 110.34 212.86 111.47 211.75 111.47 210.75 110.42 210.75 109.16 211.75 108.05"/><polygon class="cls-15" points="211.75 114.23 212.93 114.23 213.93 115.28 213.93 116.52 212.86 117.65 211.75 117.65 210.75 116.6 210.75 115.34 211.75 114.23"/><polygon class="cls-15" points="211.75 120.43 212.93 120.43 213.93 121.48 213.93 122.73 212.86 123.85 211.75 123.85 210.75 122.8 210.75 121.55 211.75 120.43"/><polygon class="cls-15" points="211.75 126.64 212.93 126.64 213.93 127.69 213.93 128.93 212.86 130.05 211.75 130.05 210.75 129 210.75 127.75 211.75 126.64"/><polygon class="cls-15" points="214.94 98.68 216.11 98.68 217.12 99.73 217.12 100.97 216.04 102.09 214.94 102.09 213.93 101.04 213.93 99.79 214.94 98.68"/><polygon class="cls-15" points="214.94 104.88 216.11 104.88 217.12 105.93 217.12 107.17 216.04 108.3 214.94 108.3 213.93 107.25 213.93 105.99 214.94 104.88"/><polygon class="cls-15" points="214.94 111.06 216.11 111.06 217.12 112.11 217.12 113.36 216.04 114.48 214.94 114.48 213.93 113.43 213.93 112.17 214.94 111.06"/><polygon class="cls-15" points="214.94 117.27 216.11 117.27 217.12 118.32 217.12 119.56 216.04 120.68 214.94 120.68 213.93 119.63 213.93 118.38 214.94 117.27"/><polygon class="cls-15" points="214.94 123.47 216.11 123.47 217.12 124.52 217.12 125.76 216.04 126.89 214.94 126.89 213.93 125.84 213.93 124.58 214.94 123.47"/><polygon class="cls-15" points="218.26 101.7 219.43 101.7 220.44 102.75 220.44 104 219.37 105.12 218.26 105.12 217.26 104.07 217.26 102.82 218.26 101.7"/><polygon class="cls-15" points="218.26 107.91 219.43 107.91 220.44 108.96 220.44 110.2 219.37 111.32 218.26 111.32 217.26 110.27 217.26 109.02 218.26 107.91"/><polygon class="cls-15" points="218.26 114.09 219.43 114.09 220.44 115.14 220.44 116.38 219.37 117.5 218.26 117.5 217.26 116.45 217.26 115.2 218.26 114.09"/><polygon class="cls-15" points="218.26 120.29 219.43 120.29 220.44 121.34 220.44 122.58 219.37 123.71 218.26 123.71 217.26 122.66 217.26 121.4 218.26 120.29"/><polygon class="cls-15" points="221.45 98.53 222.62 98.53 223.63 99.59 223.63 100.83 222.55 101.95 221.45 101.95 220.44 100.9 220.44 99.65 221.45 98.53"/><polygon class="cls-15" points="221.45 104.74 222.62 104.74 223.63 105.79 223.63 107.03 222.55 108.16 221.45 108.16 220.44 107.11 220.44 105.85 221.45 104.74"/><polygon class="cls-15" points="221.45 110.92 222.62 110.92 223.63 111.97 223.63 113.21 222.55 114.34 221.45 114.34 220.44 113.29 220.44 112.03 221.45 110.92"/><polygon class="cls-15" points="221.45 117.12 222.62 117.12 223.63 118.17 223.63 119.42 222.55 120.54 221.45 120.54 220.44 119.49 220.44 118.24 221.45 117.12"/><polygon class="cls-15" points="221.45 123.33 222.62 123.33 223.63 124.38 223.63 125.62 222.55 126.74 221.45 126.74 220.44 125.69 220.44 124.44 221.45 123.33"/><polygon class="cls-15" points="224.47 101.62 225.64 101.62 226.65 102.67 226.65 103.92 225.57 105.04 224.47 105.04 223.46 103.99 223.46 102.73 224.47 101.62"/><polygon class="cls-15" points="224.47 107.83 225.64 107.83 226.65 108.88 226.65 110.12 225.57 111.24 224.47 111.24 223.46 110.19 223.46 108.94 224.47 107.83"/><polygon class="cls-15" points="224.47 114.01 225.64 114.01 226.65 115.06 226.65 116.3 225.57 117.42 224.47 117.42 223.46 116.37 223.46 115.12 224.47 114.01"/><polygon class="cls-15" points="224.47 120.21 225.64 120.21 226.65 121.26 226.65 122.5 225.57 123.63 224.47 123.63 223.46 122.58 223.46 121.32 224.47 120.21"/><polygon class="cls-15" points="224.47 126.41 225.64 126.41 226.65 127.47 226.65 128.71 225.57 129.83 224.47 129.83 223.46 128.78 223.46 127.53 224.47 126.41"/><polygon class="cls-15" points="227.66 98.45 228.83 98.45 229.84 99.5 229.84 100.75 228.76 101.87 227.66 101.87 226.65 100.82 226.65 99.57 227.66 98.45"/><polygon class="cls-15" points="227.66 104.66 228.83 104.66 229.84 105.71 229.84 106.95 228.76 108.07 227.66 108.07 226.65 107.02 226.65 105.77 227.66 104.66"/><polygon class="cls-15" points="227.66 110.84 228.83 110.84 229.84 111.89 229.84 113.13 228.76 114.25 227.66 114.25 226.65 113.2 226.65 111.95 227.66 110.84"/><polygon class="cls-15" points="227.66 117.04 228.83 117.04 229.84 118.09 229.84 119.33 228.76 120.46 227.66 120.46 226.65 119.41 226.65 118.15 227.66 117.04"/><polygon class="cls-15" points="227.66 123.25 228.83 123.25 229.84 124.3 229.84 125.54 228.76 126.66 227.66 126.66 226.65 125.61 226.65 124.36 227.66 123.25"/><polygon class="cls-15" points="227.66 129.45 228.83 129.45 229.84 130.5 229.84 131.74 228.76 132.87 227.66 132.87 226.65 131.81 226.65 130.56 227.66 129.45"/><polygon class="cls-15" points="230.98 101.48 232.15 101.48 233.16 102.53 233.16 103.77 232.08 104.89 230.98 104.89 229.97 103.84 229.97 102.59 230.98 101.48"/><polygon class="cls-15" points="230.98 107.68 232.15 107.68 233.16 108.73 233.16 109.98 232.08 111.1 230.98 111.1 229.97 110.05 229.97 108.8 230.98 107.68"/><polygon class="cls-15" points="230.98 113.86 232.15 113.86 233.16 114.92 233.16 116.16 232.08 117.28 230.98 117.28 229.97 116.23 229.97 114.98 230.98 113.86"/><polygon class="cls-15" points="230.98 120.07 232.15 120.07 233.16 121.12 233.16 122.36 232.08 123.48 230.98 123.48 229.97 122.43 229.97 121.18 230.98 120.07"/><polygon class="cls-15" points="230.98 126.27 232.15 126.27 233.16 127.32 233.16 128.56 232.08 129.69 230.98 129.69 229.97 128.64 229.97 127.38 230.98 126.27"/><polygon class="cls-15" points="237.49 101.48 238.66 101.48 239.67 102.53 239.67 103.77 238.59 104.89 237.49 104.89 236.48 103.84 236.48 102.59 237.49 101.48"/><polygon class="cls-15" points="237.49 107.68 238.66 107.68 239.67 108.73 239.67 109.98 238.59 111.1 237.49 111.1 236.48 110.05 236.48 108.8 237.49 107.68"/><polygon class="cls-15" points="237.49 113.86 238.66 113.86 239.67 114.92 239.67 116.16 238.59 117.28 237.49 117.28 236.48 116.23 236.48 114.98 237.49 113.86"/><polygon class="cls-15" points="237.49 120.07 238.66 120.07 239.67 121.12 239.67 122.36 238.59 123.48 237.49 123.48 236.48 122.43 236.48 121.18 237.49 120.07"/><polygon class="cls-15" points="237.49 126.27 238.66 126.27 239.67 127.32 239.67 128.56 238.59 129.69 237.49 129.69 236.48 128.64 236.48 127.38 237.49 126.27"/><polygon class="cls-15" points="234.16 98.31 235.34 98.31 236.34 99.36 236.34 100.6 235.27 101.73 234.16 101.73 233.16 100.68 233.16 99.42 234.16 98.31"/><polygon class="cls-15" points="234.16 104.51 235.34 104.51 236.34 105.57 236.34 106.81 235.27 107.93 234.16 107.93 233.16 106.88 233.16 105.63 234.16 104.51"/><polygon class="cls-15" points="234.16 110.69 235.34 110.69 236.34 111.75 236.34 112.99 235.27 114.11 234.16 114.11 233.16 113.06 233.16 111.81 234.16 110.69"/><polygon class="cls-15" points="234.16 116.9 235.34 116.9 236.34 117.95 236.34 119.19 235.27 120.32 234.16 120.32 233.16 119.27 233.16 118.01 234.16 116.9"/><polygon class="cls-15" points="234.16 123.1 235.34 123.1 236.34 124.16 236.34 125.4 235.27 126.52 234.16 126.52 233.16 125.47 233.16 124.22 234.16 123.1"/><polygon class="cls-15" points="234.16 129.31 235.34 129.31 236.34 130.36 236.34 131.6 235.27 132.72 234.16 132.72 233.16 131.67 233.16 130.42 234.16 129.31"/><polygon class="cls-9" points="165.61 250.59 165.61 251.92 166.74 253.05 168.09 253.05 169.3 251.84 169.3 250.59 168.17 249.46 166.81 249.46 165.61 250.59"/><polygon class="cls-9" points="172.32 250.59 172.32 251.92 173.45 253.05 174.8 253.05 176.01 251.84 176.01 250.59 174.88 249.46 173.52 249.46 172.32 250.59"/><polygon class="cls-9" points="179 250.59 179 251.92 180.14 253.05 181.48 253.05 182.7 251.84 182.7 250.59 181.56 249.46 180.21 249.46 179 250.59"/><polygon class="cls-9" points="185.71 250.59 185.71 251.92 186.85 253.05 188.19 253.05 189.41 251.84 189.41 250.59 188.27 249.46 186.92 249.46 185.71 250.59"/><polygon class="cls-9" points="192.42 250.59 192.42 251.92 193.56 253.05 194.9 253.05 196.12 251.84 196.12 250.59 194.98 249.46 193.63 249.46 192.42 250.59"/><polygon class="cls-9" points="199.13 250.59 199.13 251.92 200.27 253.05 201.61 253.05 202.83 251.84 202.83 250.59 201.69 249.46 200.34 249.46 199.13 250.59"/><polygon class="cls-9" points="205.84 250.59 205.84 251.92 206.98 253.05 208.32 253.05 209.54 251.84 209.54 250.59 208.4 249.46 207.05 249.46 205.84 250.59"/><polygon class="cls-9" points="162.18 254.19 162.18 255.51 163.32 256.65 164.66 256.65 165.88 255.43 165.88 254.19 164.74 253.05 163.38 253.05 162.18 254.19"/><polygon class="cls-9" points="168.89 254.19 168.89 255.51 170.03 256.65 171.37 256.65 172.59 255.43 172.59 254.19 171.45 253.05 170.09 253.05 168.89 254.19"/><polygon class="cls-9" points="175.57 254.19 175.57 255.51 176.71 256.65 178.06 256.65 179.27 255.43 179.27 254.19 178.13 253.05 176.78 253.05 175.57 254.19"/><polygon class="cls-9" points="182.29 254.19 182.29 255.51 183.42 256.65 184.77 256.65 185.98 255.43 185.98 254.19 184.84 253.05 183.49 253.05 182.29 254.19"/><polygon class="cls-9" points="189 254.19 189 255.51 190.13 256.65 191.48 256.65 192.69 255.43 192.69 254.19 191.56 253.05 190.2 253.05 189 254.19"/><polygon class="cls-9" points="195.71 254.19 195.71 255.51 196.84 256.65 198.19 256.65 199.4 255.43 199.4 254.19 198.27 253.05 196.91 253.05 195.71 254.19"/><polygon class="cls-9" points="202.42 254.19 202.42 255.51 203.56 256.65 204.9 256.65 206.11 255.43 206.11 254.19 204.98 253.05 203.62 253.05 202.42 254.19"/><polygon class="cls-9" points="209.19 254.19 209.19 255.51 210.32 256.65 211.67 256.65 212.88 255.43 212.88 254.19 211.75 253.05 210.39 253.05 209.19 254.19"/><polygon class="cls-9" points="165.45 257.94 165.45 259.26 166.59 260.4 167.93 260.4 169.15 259.18 169.15 257.94 168.01 256.8 166.66 256.8 165.45 257.94"/><polygon class="cls-9" points="172.16 257.94 172.16 259.26 173.3 260.4 174.64 260.4 175.86 259.18 175.86 257.94 174.72 256.8 173.37 256.8 172.16 257.94"/><polygon class="cls-9" points="178.85 257.94 178.85 259.26 179.99 260.4 181.33 260.4 182.54 259.18 182.54 257.94 181.41 256.8 180.05 256.8 178.85 257.94"/><polygon class="cls-9" points="185.56 257.94 185.56 259.26 186.7 260.4 188.04 260.4 189.25 259.18 189.25 257.94 188.12 256.8 186.76 256.8 185.56 257.94"/><polygon class="cls-9" points="192.27 257.94 192.27 259.26 193.41 260.4 194.75 260.4 195.96 259.18 195.96 257.94 194.83 256.8 193.47 256.8 192.27 257.94"/><polygon class="cls-9" points="198.98 257.94 198.98 259.26 200.12 260.4 201.46 260.4 202.68 259.18 202.68 257.94 201.54 256.8 200.18 256.8 198.98 257.94"/><polygon class="cls-9" points="205.69 257.94 205.69 259.26 206.83 260.4 208.17 260.4 209.38 259.18 209.38 257.94 208.25 256.8 206.89 256.8 205.69 257.94"/><polygon class="cls-9" points="162.03 261.53 162.03 262.86 163.16 263.99 164.51 263.99 165.72 262.78 165.72 261.53 164.59 260.4 163.23 260.4 162.03 261.53"/><polygon class="cls-9" points="168.74 261.53 168.74 262.86 169.87 263.99 171.22 263.99 172.43 262.78 172.43 261.53 171.29 260.4 169.94 260.4 168.74 261.53"/><polygon class="cls-9" points="175.42 261.53 175.42 262.86 176.56 263.99 177.9 263.99 179.12 262.78 179.12 261.53 177.98 260.4 176.63 260.4 175.42 261.53"/><polygon class="cls-9" points="182.13 261.53 182.13 262.86 183.27 263.99 184.61 263.99 185.83 262.78 185.83 261.53 184.69 260.4 183.34 260.4 182.13 261.53"/><polygon class="cls-9" points="188.84 261.53 188.84 262.86 189.98 263.99 191.32 263.99 192.54 262.78 192.54 261.53 191.4 260.4 190.05 260.4 188.84 261.53"/><polygon class="cls-9" points="195.55 261.53 195.55 262.86 196.69 263.99 198.03 263.99 199.25 262.78 199.25 261.53 198.11 260.4 196.76 260.4 195.55 261.53"/><polygon class="cls-9" points="202.26 261.53 202.26 262.86 203.4 263.99 204.74 263.99 205.96 262.78 205.96 261.53 204.82 260.4 203.47 260.4 202.26 261.53"/><polygon class="cls-9" points="209.03 261.53 209.03 262.86 210.17 263.99 211.51 263.99 212.73 262.78 212.73 261.53 211.59 260.4 210.24 260.4 209.03 261.53"/><path class="cls-1" d="M7.92,9.74,5.82,280.1,269,281.49V9.5Zm212,230.94a8.23,8.23,0,0,1-8.21,8.21H46.33a8.23,8.23,0,0,1-8.21-8.21V46.77a8.23,8.23,0,0,1,8.21-8.21H211.7a8.23,8.23,0,0,1,8.21,8.21Z"/><rect class="cls-16" x="38.12" y="38.39" width="181.79" height="211.07" rx="8.56" ry="8.56"/><line class="cls-1" x1="154.44" y1="99.44" x2="63.83" y2="190.06"/><line class="cls-1" x1="194.21" y1="81.79" x2="103.59" y2="172.41"/></g></g></svg>