<svg xmlns="http://www.w3.org/2000/svg" viewBox="0 0 132.72 352.84"><defs><style>.cls-1{fill:#fff;}.cls-2{font-size:15px;font-family:MyriadPro-Regular, Myriad Pro;}.cls-2,.cls-5{fill:#b3221d;}.cls-3,.cls-4,.cls-6,.cls-7,.cls-8{fill:none;stroke-miterlimit:10;}.cls-3,.cls-4{stroke:#b3221d;}.cls-3{stroke-width:0.98px;}.cls-4,.cls-7{stroke-width:1.5px;}.cls-6,.cls-7,.cls-8{stroke:#686868;}.cls-6{stroke-width:2.09px;}.cls-8{stroke-width:0.66px;}</style></defs><title>Ativo 4</title><g id="Camada_2" data-name="Camada 2"><g id="Camada_1-2" data-name="Camada 1"><path class="cls-1" d="M3,1S1,1.3,1,3s.67,305,.67,305S1,310.59,4,310.76,130,310,130,310s1.63.81,1.63-2.5S130,1.51,130,1.51L85.48,1s-1.1.53-2.25,1.23C80.11,2.22,3,1,3,1Z"/><text class="cls-2" transform="translate(45.65 342.78)">18,5cm</text><line class="cls-3" x1="7.55" y1="345.76" x2="121.52" y2="345.76"/><line class="cls-4" x1="5.17" y1="352.84" x2="5.17" y2="338.68"/><polygon class="cls-5" points="5.58 345.76 17.85 352.84 17.85 338.68 5.58 345.76"/><line class="cls-4" x1="128.06" y1="352.84" x2="128.06" y2="338.68"/><polygon class="cls-5" points="127.65 345.76 115.39 352.84 115.39 338.68 127.65 345.76"/><path class="cls-6" d="M3,1S1,1.3,1,3s.67,305,.67,305S1,310.59,4,310.76,130,310,130,310s1.63.81,1.63-2.5S130,1.51,130,1.51L85.48,1s-1.1.53-2.25,1.23C80.11,2.22,3,1,3,1Z"/><path class="cls-7" d="M84,2.19s-5.91,4.15-7,6.53-6,13.21-10.56,14.21-65.27,0-65.27,0"/><line class="cls-8" x1="1.05" y1="18.51" x2="70.85" y2="19.35"/><line class="cls-8" x1="1.69" y1="296.01" x2="131.67" y2="296.01"/><line class="cls-8" x1="1.69" y1="291.78" x2="131.67" y2="291.78"/><rect class="cls-8" x="12.51" y="5.13" width="4.04" height="9.12" rx="0.49" ry="0.49"/><rect class="cls-8" x="23.96" y="5.13" width="4.04" height="9.12" rx="0.49" ry="0.49"/><rect class="cls-8" x="35.13" y="5.13" width="4.04" height="9.12" rx="0.49" ry="0.49"/><circle class="cls-8" cx="47.71" cy="9.7" r="2.05"/><circle class="cls-8" cx="56.88" cy="9.7" r="2.05"/><polygon class="cls-8" points="32.45 31.97 19.27 31.97 12.67 42.97 19.27 53.97 32.45 53.97 39.05 42.97 32.45 31.97"/><polygon class="cls-8" points="52.24 42.97 39.05 42.97 32.46 53.97 39.05 64.97 52.24 64.97 58.83 53.97 52.24 42.97"/><polygon class="cls-8" points="72.03 31.97 58.85 31.97 52.25 42.97 58.85 53.97 72.03 53.97 78.63 42.97 72.03 31.97"/><polygon class="cls-8" points="91.78 42.97 78.59 42.97 72 53.97 78.59 64.97 91.78 64.97 98.38 53.97 91.78 42.97"/><polygon class="cls-8" points="111.58 31.97 98.39 31.97 91.8 42.97 98.39 53.97 111.58 53.97 118.17 42.97 111.58 31.97"/><polygon class="cls-8" points="32.45 53.97 19.27 53.97 12.67 64.97 19.27 75.97 32.45 75.97 39.05 64.97 32.45 53.97"/><polygon class="cls-8" points="52.24 64.97 39.05 64.97 32.46 75.97 39.05 86.97 52.24 86.97 58.83 75.97 52.24 64.97"/><polygon class="cls-8" points="72.03 53.97 58.85 53.97 52.25 64.97 58.85 75.97 72.03 75.97 78.63 64.97 72.03 53.97"/><polygon class="cls-8" points="91.78 64.97 78.59 64.97 72 75.97 78.59 86.97 91.78 86.97 98.38 75.97 91.78 64.97"/><polygon class="cls-8" points="111.58 53.97 98.39 53.97 91.8 64.97 98.39 75.97 111.58 75.97 118.17 64.97 111.58 53.97"/><polygon class="cls-8" points="32.45 75.97 19.27 75.97 12.67 86.97 19.27 97.97 32.45 97.97 39.05 86.97 32.45 75.97"/><polygon class="cls-8" points="52.24 86.97 39.05 86.97 32.46 97.97 39.05 108.97 52.24 108.97 58.83 97.97 52.24 86.97"/><polygon class="cls-8" points="72.03 75.97 58.85 75.97 52.25 86.97 58.85 97.97 72.03 97.97 78.63 86.97 72.03 75.97"/><polygon class="cls-8" points="91.78 86.97 78.59 86.97 72 97.97 78.59 108.97 91.78 108.97 98.38 97.97 91.78 86.97"/><polygon class="cls-8" points="111.58 75.97 98.39 75.97 91.8 86.97 98.39 97.97 111.58 97.97 118.17 86.97 111.58 75.97"/><polygon class="cls-8" points="32.45 97.97 19.27 97.97 12.67 108.97 19.27 119.97 32.45 119.97 39.05 108.97 32.45 97.97"/><polygon class="cls-8" points="52.24 108.97 39.05 108.97 32.46 119.97 39.05 130.97 52.24 130.97 58.83 119.97 52.24 108.97"/><polygon class="cls-8" points="72.03 97.97 58.85 97.97 52.25 108.97 58.85 119.97 72.03 119.97 78.63 108.97 72.03 97.97"/><polygon class="cls-8" points="91.78 108.97 78.59 108.97 72 119.97 78.59 130.97 91.78 130.97 98.38 119.97 91.78 108.97"/><polygon class="cls-8" points="111.58 97.97 98.39 97.97 91.8 108.97 98.39 119.97 111.58 119.97 118.17 108.97 111.58 97.97"/><polygon class="cls-8" points="32.45 119.97 19.27 119.97 12.67 130.97 19.27 141.97 32.45 141.97 39.05 130.97 32.45 119.97"/><polygon class="cls-8" points="52.24 130.97 39.05 130.97 32.46 141.97 39.05 152.97 52.24 152.97 58.83 141.97 52.24 130.97"/><polygon class="cls-8" points="72.03 119.97 58.85 119.97 52.25 130.97 58.85 141.97 72.03 141.97 78.63 130.97 72.03 119.97"/><polygon class="cls-8" points="91.78 130.97 78.59 130.97 72 141.97 78.59 152.97 91.78 152.97 98.38 141.97 91.78 130.97"/><polygon class="cls-8" points="111.58 119.97 98.39 119.97 91.8 130.97 98.39 141.97 111.58 141.97 118.17 130.97 111.58 119.97"/><polygon class="cls-8" points="32.45 141.97 19.27 141.97 12.67 152.97 19.27 163.97 32.45 163.97 39.05 152.97 32.45 141.97"/><polygon class="cls-8" points="52.24 152.97 39.05 152.97 32.46 163.97 39.05 174.97 52.24 174.97 58.83 163.97 52.24 152.97"/><polygon class="cls-8" points="72.03 141.97 58.85 141.97 52.25 152.97 58.85 163.97 72.03 163.97 78.63 152.97 72.03 141.97"/><polygon class="cls-8" points="91.78 152.97 78.59 152.97 72 163.97 78.59 174.97 91.78 174.97 98.38 163.97 91.78 152.97"/><polygon class="cls-8" points="111.58 141.97 98.39 141.97 91.8 152.97 98.39 163.97 111.58 163.97 118.17 152.97 111.58 141.97"/><polygon class="cls-8" points="32.45 163.97 19.27 163.97 12.67 174.97 19.27 185.97 32.45 185.97 39.05 174.97 32.45 163.97"/><polygon class="cls-8" points="52.24 174.97 39.05 174.97 32.46 185.97 39.05 196.97 52.24 196.97 58.83 185.97 52.24 174.97"/><polygon class="cls-8" points="72.03 163.97 58.85 163.97 52.25 174.97 58.85 185.97 72.03 185.97 78.63 174.97 72.03 163.97"/><polygon class="cls-8" points="91.78 174.97 78.59 174.97 72 185.97 78.59 196.97 91.78 196.97 98.38 185.97 91.78 174.97"/><polygon class="cls-8" points="111.58 163.97 98.39 163.97 91.8 174.97 98.39 185.97 111.58 185.97 118.17 174.97 111.58 163.97"/><polygon class="cls-8" points="32.45 185.97 19.27 185.97 12.67 196.97 19.27 207.97 32.45 207.97 39.05 196.97 32.45 185.97"/><polygon class="cls-8" points="52.24 196.97 39.05 196.97 32.46 207.97 39.05 218.97 52.24 218.97 58.83 207.97 52.24 196.97"/><polygon class="cls-8" points="72.03 185.97 58.85 185.97 52.25 196.97 58.85 207.97 72.03 207.97 78.63 196.97 72.03 185.97"/><polygon class="cls-8" points="91.78 196.97 78.59 196.97 72 207.97 78.59 218.97 91.78 218.97 98.38 207.97 91.78 196.97"/><polygon class="cls-8" points="111.58 185.97 98.39 185.97 91.8 196.97 98.39 207.97 111.58 207.97 118.17 196.97 111.58 185.97"/><polygon class="cls-8" points="32.45 207.99 19.27 207.99 12.67 218.99 19.27 229.99 32.45 229.99 39.05 218.99 32.45 207.99"/><polygon class="cls-8" points="52.24 218.99 39.05 218.99 32.46 229.99 39.05 240.99 52.24 240.99 58.83 229.99 52.24 218.99"/><polygon class="cls-8" points="72.03 207.99 58.85 207.99 52.25 218.99 58.85 229.99 72.03 229.99 78.63 218.99 72.03 207.99"/><polygon class="cls-8" points="91.78 218.99 78.59 218.99 72 229.99 78.59 240.99 91.78 240.99 98.38 229.99 91.78 218.99"/><polygon class="cls-8" points="111.58 207.99 98.39 207.99 91.8 218.99 98.39 229.99 111.58 229.99 118.17 218.99 111.58 207.99"/><polygon class="cls-8" points="32.45 230.01 19.27 230.01 12.67 241.01 19.27 252.01 32.45 252.01 39.05 241.01 32.45 230.01"/><polygon class="cls-8" points="52.24 241.01 39.05 241.01 32.46 252.01 39.05 263.01 52.24 263.01 58.83 252.01 52.24 241.01"/><polygon class="cls-8" points="72.03 230.01 58.85 230.01 52.25 241.01 58.85 252.01 72.03 252.01 78.63 241.01 72.03 230.01"/><polygon class="cls-8" points="91.78 241.01 78.59 241.01 72 252.01 78.59 263.01 91.78 263.01 98.38 252.01 91.78 241.01"/><polygon class="cls-8" points="111.58 230.01 98.39 230.01 91.8 241.01 98.39 252.01 111.58 252.01 118.17 241.01 111.58 230.01"/><polygon class="cls-8" points="32.45 252.01 19.27 252.01 12.67 263.01 19.27 274.01 32.45 274.01 39.05 263.01 32.45 252.01"/><polygon class="cls-8" points="52.24 263.01 39.05 263.01 32.46 274.01 39.05 285.01 52.24 285.01 58.83 274.01 52.24 263.01"/><polygon class="cls-8" points="72.03 252.01 58.85 252.01 52.25 263.01 58.85 274.01 72.03 274.01 78.63 263.01 72.03 252.01"/><polygon class="cls-8" points="91.78 263.01 78.59 263.01 72 274.01 78.59 285.01 91.78 285.01 98.38 274.01 91.78 263.01"/><polygon class="cls-8" points="111.58 252.01 98.39 252.01 91.8 263.01 98.39 274.01 111.58 274.01 118.17 263.01 111.58 252.01"/></g></g></svg>