<svg id="Camada_1" data-name="Camada 1" xmlns="http://www.w3.org/2000/svg" viewBox="0 0 446.94 777.41"><defs><style>.cls-1{fill:#fff;}.cls-2{fill:#211915;}</style></defs><title>Edge Hyve</title><polygon class="cls-1" points="446.48 683.15 444.83 44.49 356.03 29.16 343.04 35.55 308.04 22.75 175.73 5.66 172.04 13.05 165.5 18.84 157.27 20.43 5.08 152.75 5.08 609.41 16.72 621.82 28.08 626.02 43.69 628.01 115.81 691.1 121.78 724.61 173.27 769.47 183.11 774.3 361.71 740.22 443.77 727.45 442.06 700.47 428.15 689.68 442.63 685.92 446.48 683.15"/><path class="cls-2" d="M427.79,74.36h0a11.11,11.11,0,0,0-4.09,6.49c-.9,3.26-2,6.48-3,9.71a32.83,32.83,0,0,1-11.67,16.74c-.39.3-.76.63-1.14.94a4.09,4.09,0,0,0,1.88-.67,29.26,29.26,0,0,0,12.67-16.13c1.41-4.39,2.75-8.79,4.12-13.19l1.21-3.89M110.9,662.42h0a21.36,21.36,0,0,0-3.32-3.34c-1-1-2.11-1.92-3.16-2.88s-2.08-2-3.18-2.86-1.84-2.11-3.36-2.57l-1.5,9.49c.75,0,1.22,0,1.67,0a5.68,5.68,0,0,1,5.13,1.89c.26.29.63.68,1,.7A21.51,21.51,0,0,0,110.9,662.42Zm139.8,122.1h0c0,.71-.1,1.24-.11,1.77q-.08,9.45-.15,18.89c0,1.89,0,2,1.87,2.58a19.68,19.68,0,0,0,1.94.41c.12-7.78.23-15.32.35-22.82ZM82.78,636.8h0c.19,3.93.37,7.45.51,11a3.2,3.2,0,0,0,1.08,2.29c2.66,2.61,5.27,5.27,7.91,7.9a14.91,14.91,0,0,0,1.24,1c.53-3.31.94-6.38,1.55-9.41a2.43,2.43,0,0,0-.92-2.62c-3.4-3-6.74-6.08-10.11-9.12C83.76,637.51,83.43,637.3,82.78,636.8ZM193,736.51h0c1.87,8.45,3.61,16.4,5.42,24.32a4.43,4.43,0,0,0,1.26,2q11.24,10.93,22.55,21.79a16.23,16.23,0,0,0,1.34,1c0-.67.08-1.07.06-1.47-.24-6.3-.52-12.61-.7-18.91a4.22,4.22,0,0,0-1.55-3.3q-13.34-12-26.6-24C194.37,737.56,193.89,737.2,193,736.51ZM253.89,96.45h0a3.36,3.36,0,0,0-.72-.16,1.87,1.87,0,0,0-.58.17c-2.14,1.05-2.86,2.78-2.86,5.14q0,73-.07,146.05-.13,169.78-.26,339.56-.05,87.49,0,175a14,14,0,0,0,0,1.83,3.42,3.42,0,0,0,3.12,3.13c-1.27-1.67-1.38-3.55-1.38-5.48q0-22.61.07-45.22.05-101,.1-202.07.13-205.53.25-411.06C251.58,100.81,251.76,98.43,253.89,96.45ZM81.82,197.92h0c.89-.66,1.48-1.07,2-1.52l97.74-79.58q19.82-16.13,39.64-32.25a3.44,3.44,0,0,0,1.52-3.07c-.12-3,0-6.11,0-9.16a10.43,10.43,0,0,0-.27-1.51l-3.28,2.84L101.63,176.22q-9.28,8.1-18.55,16.22a3.51,3.51,0,0,0-1.21,1.73A22.82,22.82,0,0,0,81.82,197.92ZM247.33,804.39h0a9.52,9.52,0,0,0,.18-1.17c.07-6.52.12-13,.22-19.55a2.13,2.13,0,0,0-1-1.85c-2.19-1.72-4.32-3.51-6.53-5.2a3.68,3.68,0,0,1-1.57-2.89c-.31-4.19-.76-8.38-1.11-12.56a2.44,2.44,0,0,0-1-1.89c-1.45-1.12-2.81-2.36-4.31-3.41a3.7,3.7,0,0,1-1.66-3.42q-.1-47.56-.3-95.13-.22-73.74-.41-147.48-.2-74.15-.41-148.29-.18-69.36-.35-138.72-.08-33.1-.15-66.2-.13-44.2-.3-88.41c0-.78-.07-1.55-.11-2.48-2.05,1.15-3,2.43-3,4.76q.28,91,.4,181.91.18,95.64.35,191.28.23,126.4.46,252.8.08,45.43.12,90.85a3.33,3.33,0,0,0,1.51,3c5.79,4.27,11.52,8.63,17.27,13C246.17,803.66,246.67,804,247.33,804.39Zm-8-349.1h-.3c0,2.22,0,4.44,0,6.66,0,6.58.07,13.17.08,19.75q.1,35.75.2,71.5.27,98,.48,196c0,2.67.72,4.47,2.85,6,1.59,1.11,1.66,1.24,3.7.2,0-.68,0-1.42,0-2.16,0-7.74-.06-15.48,0-23.22,0-1.55-.15-2.8-1.63-3.57a2.46,2.46,0,0,1-1.27-2.55c0-2.17,0-4.35,0-6.52a11.24,11.24,0,0,1,.21-1.46l2.72,1.65c0-4.76-.06-9.17,0-13.57,0-1.57-.25-2.77-1.75-3.51a2.6,2.6,0,0,1-1.43-2.69c.06-2.24,0-4.48,0-6.72a10.57,10.57,0,0,1,.22-1.46l2.87,1.67V675a12.1,12.1,0,0,0-1.47-1,3,3,0,0,1-1.73-3.11c.11-2.24,0-4.48,0-6.72a13.23,13.23,0,0,1,.18-1.46l3,1.59V561.73a17.94,17.94,0,0,0-2.16-.9,2.1,2.1,0,0,1-1.66-2.41c0-2.65,0-5.3,0-7.94a10.23,10.23,0,0,1,.26-1.59l3.58,1.21V531.7l-2.23-.76c-1.67-.58-1.68-.58-1.71-2.28,0-1.36,0-2.72,0-4.07,0-1.89,0-3.77,0-5.89l3.9,1.07V500.85l-4-1.29c.05-3.92-.19-7.75,0-11.67l4.15.8a7.67,7.67,0,0,0,0-2,10.41,10.41,0,0,1,0-5.76,8.34,8.34,0,0,0,0-3.84,10,10,0,0,1,0-5.75,6.89,6.89,0,0,0,0-2c-1.06-.25-2-.53-2.89-.65a1.5,1.5,0,0,1-1.54-1.73c0-3.26,0-6.52,0-9.78a3.41,3.41,0,0,1,.29-.87l4.31.56a26.5,26.5,0,0,1-.49-2.9,16.55,16.55,0,0,1,0-4.42,11.22,11.22,0,0,0,0-5.32,8.84,8.84,0,0,1,0-4.38,7.62,7.62,0,0,0,.3-2.95l-4.37-.68V423.79l4.57.29a10.43,10.43,0,0,0-.4-2.65,6.43,6.43,0,0,1-.09-5,6.54,6.54,0,0,0,0-5,5.73,5.73,0,0,1-.09-4.71,4.28,4.28,0,0,0,.33-3l-4.23-.29c-.56-1.92-.61-11-.06-12.85h4.57a8.88,8.88,0,0,0-.33-2.51,7.21,7.21,0,0,1,0-5.64,5.71,5.71,0,0,0-.21-4.84,5.08,5.08,0,0,1-.1-4.84c.65-1.12.49-1.92.55-3.16H241.8c-.51-3-.39-11.75.17-13.17l4.55-.22c0-.88.31-2-.05-2.28-1.48-1.35-.78-3-.91-4.52A2,2,0,0,1,246,348c1.22-1.53.43-3.23.51-4.85-1.68-1.18-.82-2.95-1-4.47,0-.36.09-1,.33-1.09,1.35-.75.65-1.85.71-2.91h-5.16c0-2.31-.12-4.53-.08-6.76s-.32-4.42.23-6.58l5-.71c-.12-1.09.89-2.29-.8-2.94-.2-.08-.34-.57-.35-.87,0-1.08,0-2.17,0-3.26,0-.32.1-.83.3-.92,1.31-.6,1.07-1.74,1-2.77s.58-2.48-1.1-3.07c-.19-.07-.24-.74-.25-1.13,0-1.22,0-2.44,0-3.6,1.58-1,1.6-1.08,1.11-3.5l-5.2.69c-.06-4.74-.1-9.25,0-13.78l5.45-1.16v-2.76l-1.39-.37c0-1.16.08-2.25,0-3.32a2,2,0,0,1,1.48-2.48v-4.79l-1.41-.35v-5.08l1.3-.78v-2.78l-5.25,1.16A2.81,2.81,0,0,1,241,262q-.1-6.11-.17-12.22a1.48,1.48,0,0,1,1.31-1.55c1.5-.39,3-.86,4.46-1.3V244.2l-1.56-.29c0-1.07,0-2.08,0-3.09,0-1.34-.07-2.64,1.57-2.94v-5l-1.54-.32v-5.2l1.54-.9v-2.85c-2.05.12-3.72,1.45-5.91,1.34,0-4.52,0-8.93,0-13.33,0-.85.58-1.12,1.26-1.37,1.58-.58,3.13-1.2,4.62-1.78v-2.93l-1.73.12c0-1.17.05-2.19,0-3.2-.1-1.53,0-2.88,1.75-3.28v-5.33L245,194v-5.56l1.6-.95v-3.07l-5.74,2.35a9.39,9.39,0,0,1-.3-1.54c0-3.94-.05-7.88-.11-11.81a2.2,2.2,0,0,1,1.58-2.3c1.61-.66,3.17-1.46,4.62-2.14v-3.09l-1.83.36c0-1.68,0-3.23,0-4.79a1.57,1.57,0,0,1,1-1.6,6.34,6.34,0,0,0,1-.68c0-.88,0-1.7,0-2.51q0-27.5,0-55c0-6,3.15-8.86,9.11-8.21s11.85,1.43,17.77,2.16l21.8,2.7c7,.86,14,1.7,21,2.56l25,3.12c7.07.87,14.14,1.7,21.2,2.58,9.22,1.14,18.43,2.32,27.65,3.44a30.17,30.17,0,0,0,3.49,0,19.77,19.77,0,0,0-10.55-5.62c-3.68-.59-7.4-.94-11.11-1.36q-12.14-1.37-24.28-2.7c-8-.88-16.06-1.72-24.08-2.6s-16.18-1.81-24.28-2.7-16.06-1.72-24.08-2.6c-8.3-.9-16.59-1.84-24.89-2.74-2.75-.3-4.19-1.36-5-4a11.82,11.82,0,0,1-.39-3c-.13-7.54-.22-15.07-.33-22.61,0-.64-.09-1.28-.16-2.25-1.75,1.37-3.16,2.62-4.72,3.66a4.58,4.58,0,0,0-2.19,4.36q.28,47.67.38,95.33c0,.65,0,1.31,0,2.22l5.21-2.27v6a17.69,17.69,0,0,1-2.05.94,2.41,2.41,0,0,0-1.85,2.74c.08,2,.05,3.94,0,5.91,0,.46,0,1.19-.26,1.32-1.71.89-.83,2.34-1,3.65l1.24.3c.31,2.74-.16,5.52.37,8.33l3.65-1.27v5.76l-5.09,2.2v5.49l5.1-1.87v5.82l-1.9.78c-1.76.69-1.77.69-1.79,2.65,0,2.23,0,4.46,0,6.63l-1.43.9v2.9l1.43.07c.15,2.81-.07,5.5.18,8.21,1.45.11,2.47-1,3.87-.54,0,1.31,0,2.59,0,3.87a1.72,1.72,0,0,1-1.42,1.92c-1.36.38-2.69.88-4,1.33v5.25l5.3-1.46v5.63c-.59.21-1.28.46-2,.69-1.72.55-1.78.6-1.8,2.41,0,2.17,0,4.34,0,6.44-1.78,1.16-1.84,1.35-1.25,3.71l1.24.05.26,8.24,3.63-.75v5.53l-5.18,1.31v5.08l5.21-1v5.44l-3.57.9v8.11l-1.6.75v2.65l1.49.27c.28,2.66-.17,5.29.33,7.93L244,302v5.33l-5.37,1c0,.91,0,1.71,0,2.52s0,1.56.06,2.4l5.39-.58v5.12a2.84,2.84,0,0,1-.47.27,2.58,2.58,0,0,1-.79.18c-2.62-.09-2.46.79-2.44,2.88,0,1.82,0,3.64,0,5.45l-1.62.52v2.68l1.53.17c.45,2.63-.14,5.3.49,7.85h3.54c0,1.27,0,2.41,0,3.55,0,1.47-.17,1.62-1.62,1.75-1.27.12-2.54.18-3.86.26v4.9c1.88.19,3.62-.53,5.38.06v4.92l-3.53.32v7.72l-1.88.5v2.55l1.8.35c.25,2.59-.16,5.1.3,7.66l3.47.24a23.42,23.42,0,0,1-.15,5.05h-5.37v4.62c1.85.42,3.72-.19,5.48.56v4.77l-3.49.17v7.45l-1.92.3V398l2,.5v7.37l3.6.59c0,1.68.39,3.21-.31,4.81l-5.16-.26v4.58l5.46.63v4.85h-3.44v7.22h-2v2.78l2.1.45v7.24l3.35.68v4.85l-5.45-.8v4.67l5.54.8v4.85l-3.51-.35v7.07c-1.68-.28-1.73-.28-1.78-1.38C239.33,457.86,239.38,456.57,239.38,455.28ZM249.5,48.11h0c0,1.28,0,2.29,0,3.3a4.43,4.43,0,0,1-.95,3.24,3.12,3.12,0,0,0-.71,2.44q.13,8.76.22,17.52c0,2.78,0,5.57.08,8.35.07,3,.81,3.67,3.67,4,6.75.7,13.49,1.45,20.24,2.18l20.64,2.28,20.24,2.19c6.81.75,13.62,1.52,20.43,2.27S347,97.3,353.8,98c8.36.91,16.72,1.9,25.09,2.73,5.44.54,10.55,1.82,14.92,5.3.85.68,1.86,1.15,2.68,1.85a3,3,0,0,0,3.36.43,28.93,28.93,0,0,0,17.72-18.43c1.13-3.33,2-6.77,2.92-10.16a11.19,11.19,0,0,0,.21-1.23,48.68,48.68,0,0,1-5.38-.52,47.38,47.38,0,0,1-5.24-1.62c-7.34-2.42-14.67-4.89-22-7.26A52.44,52.44,0,0,0,381,67.28c-4.94-.86-9.92-1.54-14.89-2.26q-13.29-1.93-26.59-3.84l-26.18-3.8-26.78-3.91-26.78-3.9Zm-3.13,710.64h0a7.16,7.16,0,0,0-1.14.17,3.19,3.19,0,0,1-3.68-.93,20.51,20.51,0,0,0-2.77-2.4,4.16,4.16,0,0,1-1.8-3.79c0-15-.11-30-.16-45q-.21-67.32-.39-134.64-.21-72-.43-144-.2-67.32-.39-134.64-.2-70.38-.41-140.75-.12-43.29-.21-86.57c0-.66,0-1.31,0-2l-3.28-.86c0,1.05,0,1.86,0,2.66q.18,62.84.36,125.68.19,69.15.37,138.31.22,79.54.45,159.08.18,66.1.33,132.2.1,39.72.19,79.44.05,25.16.06,50.31a3.46,3.46,0,0,0,1.52,3.26c1.34.92,2.52,2.07,3.84,3a3.56,3.56,0,0,1,1.59,2.87c.3,4.13.74,8.24,1.1,12.36a2.68,2.68,0,0,0,1,2.11c2.63,2,5.19,4.17,7.84,6.17a7.15,7.15,0,0,0,5.77,1.34c5.08-.89,10.16-1.71,15.25-2.56q18.87-3.14,37.73-6.29l40.13-6.75q17.66-3,35.32-5.89l37.72-6.34L460,748l40.53-6.8,8.27-1.42a13.93,13.93,0,0,0-1.17-.91c-1.87-1.11-3.75-2.19-5.62-3.3-2.28-1.34-4.65-2.56-6.79-4.1a3.52,3.52,0,0,0-3-.73q-18.53,3.2-37.07,6.34t-37.29,6.29q-17.44,3-34.87,5.95l-32.48,5.48-32.67,5.55-30.06,5.11c-10.56,1.8-21.1,3.63-31.67,5.37-5.24.86-10.36-2.64-9.82-8.46C246.46,761.25,246.37,760.09,246.37,758.74Zm263.29-16.1h0L257.48,784.87v22.84l252.18-44.07ZM222.7,87.21h0c-.94.72-1.48,1.12-2,1.54Q152.16,144.56,83.6,200.34a4.28,4.28,0,0,0-1.81,3.73q.22,80.35.34,160.7.21,120.78.39,241.56c0,8,.06,16,0,24A3.8,3.8,0,0,0,84,633.71c1.69,1.36,3.24,2.89,4.85,4.35q11.4,10.32,22.81,20.63c.53.48,1.24,1.14,1.83,1.1,2.07-.14,3.44.92,4.84,2.18q14.93,13.55,29.9,27.06,20.46,18.52,40.94,37a6.39,6.39,0,0,1,2.46,4.07,3.45,3.45,0,0,0,1.37,2.17q14.13,12.62,28.22,25.27c.43.39.9.73,1.51,1.23ZM431.44,72.91h0c-.3.81-.56,1.43-.76,2.06-1.81,5.76-3.58,11.53-5.4,17.28a31.76,31.76,0,0,1-12,16.51,26.46,26.46,0,0,1-20,5.14c-4.83-.71-9.7-1.19-14.55-1.78l-21.21-2.6-21.82-2.69-21.21-2.59-21.81-2.7L271.1,98.88c-3.91-.48-7.81-.94-11.72-1.43a4,4,0,0,0-3.38,1c-1.36,1.22-1.5,2.75-1.5,4.44q-.09,130.57-.22,261.14-.06,68.34-.06,136.68,0,72.92-.07,145.85,0,57.75,0,115.5c0,3.82,2.28,5.66,6,5,4.34-.77,8.69-1.47,13-2.21l32.67-5.56,32.27-5.45L368,748.8l32.47-5.52,32.67-5.55,32.27-5.46,26.86-4.54a1.64,1.64,0,0,0,1.52-1.11,4.47,4.47,0,0,1,3.9-2.85c1.87-.3,3.75-.6,5.62-.92,2.45-.42,4.9-.87,7.44-1.32q.26-317.82.51-635.46ZM72.88,267v-76.6c1-1,1.87-2.09,2.92-3q35.81-31.29,71.66-62.55,39-34.1,78-68.25c2.22-1.95,4.62-2.8,7.48-1.85a2.4,2.4,0,0,0,2.58-.58,46.1,46.1,0,0,1,3.68-2.89,3.8,3.8,0,0,0,1.74-3c.76-6.68,4.78-9.55,11.42-8.49,5.22.84,10.47,1.55,15.7,2.31l26.38,3.83,26.78,3.9L348,53.74l26.58,3.85c5.3.77,10.6,1.46,15.72,3.21,8.4,2.88,16.85,5.61,25.29,8.38a20.5,20.5,0,0,0,3,.63A2.19,2.19,0,0,0,421,68.66c1.73-2.77,4.46-3.76,7.53-4.26a21.54,21.54,0,0,1,7.06.49L466.47,70,500,75.51c4.82.8,9.64,1.56,14.45,2.42,2.69.48,4.6,1.91,5.06,4.81,0,.17.21.32.33.49v87.59c-.07.94-.2,1.88-.2,2.82q-.05,23.83-.08,47.66-.07,99.08-.12,198.17,0,145.11,0,290.23c0,4.34,0,8.69,0,13,0,3.92-2.12,6.38-5.92,7.1-.89.17-1.77.36-3.14.64,1.4.83,2.37,1.42,3.36,2a8.66,8.66,0,0,1,4.8,8.14c0,8.42-.07,16.84-.17,25.25a5.57,5.57,0,0,1-5,5.91q-16.43,2.89-32.86,5.74l-35.87,6.27-36.27,6.35L374.38,796l-36.07,6.3L302,808.66q-19.14,3.35-38.27,6.69c-2.93.51-5.84,1.1-8.77,1.65h-1.22a4.65,4.65,0,0,0-.94-.32,16.48,16.48,0,0,1-8.17-3.38l-22.12-16.66a20.26,20.26,0,0,1-1.86-1.58q-14.07-13.57-28.15-27.14a7.54,7.54,0,0,1-2.25-4c-2.17-9.93-4.4-19.86-6.58-29.79a5.18,5.18,0,0,0-1.65-2.91q-32.65-29.48-65.26-59c-.44-.4-.92-.75-1.37-1.11a7.81,7.81,0,0,1-4.43,1.65c-2.1,0-4.21,0-6.31,0a5.47,5.47,0,0,1-4.29-1.56c-1.81-2.13-4-2.52-6.54-2.17-.13,0-.27,0-.41,0a4.65,4.65,0,0,1-3.67-1.43L76.25,654.08A4.46,4.46,0,0,1,74.86,651c-.29-6.85-.8-13.7-.86-20.55-.17-19.89-.17-39.78-.2-59.67q-.18-103.25-.35-206.5-.09-44.29-.32-88.59C73.12,272.8,73,269.89,72.88,267Z" transform="translate(-72.88 -39.58)"/><path class="cls-2" d="M165.63,640.62h0l-.2.36,1.41.79.15-.27-1.36-.89m7.28,5h0l-4.43-3A7.44,7.44,0,0,0,172.91,645.58ZM171.74,187.1h0l-.15-.33c-.31,0-.69,0-.93.13q-9.18,6-18.33,12.12l.3.45Zm2.68,1.87h0c-.62.36-1.21.68-1.77,1q-38.2,24.73-76.41,49.44a8.86,8.86,0,0,0-4.15,6,31.34,31.34,0,0,0-.52,5.86q.14,92.27.33,184.55.12,70,.22,139.94a43.22,43.22,0,0,0,.36,5.68c.42,3.1,1.48,5.83,4.26,7.76q38.78,26.8,77.51,53.68c.48.33,1,.61,1.52.93a10.52,10.52,0,0,0,2.4-6.88q-.25-56.32-.43-112.64-.2-57.24-.41-114.48-.19-55.4-.38-110.81-.13-39.72-.24-79.44,0-12.43,0-24.85A7.69,7.69,0,0,0,174.42,189Zm6.16,226.71c0,23.76,0,47.53,0,71.29q.13,55.3.36,110.61.07,19.76.25,39.52a13.72,13.72,0,0,1-4,9.7,8.84,8.84,0,0,1-2.29,1.66,3.94,3.94,0,0,1-4.41-.3l-1.33-.95q-37.82-26.93-75.68-53.81a14.1,14.1,0,0,1-6.28-11.27c-.3-4.74-.33-9.5-.34-14.25q-.13-63.76-.21-127.52-.19-94.52-.4-189a46.83,46.83,0,0,1,.58-7.89,11.66,11.66,0,0,1,5.4-8q37.86-25.06,75.64-50.25c2.88-1.91,4.94-1.86,7.54.41a11.31,11.31,0,0,1,4.21,8.88q0,31.88.16,63.76.18,55.41.37,110.81c.06,15.55.22,31.1.33,46.64Z" transform="translate(-72.88 -39.58)"/><path class="cls-2" d="M278.69,58.76h0L279,77.14l2.28.22V58.94l-2.62-.18m5.83,9.61q0,4.68,0,9.36c0,2.56-.61,3.08-3.21,2.75-1.55-.2-3.1-.35-4.65-.56-1.85-.24-2.52-.94-2.56-2.77q-.19-9.87-.3-19.74c0-2.23.77-2.88,3-2.61,1.62.19,3.23.42,4.83.67,2,.3,2.59.93,2.61,2.92,0,3.32,0,6.65,0,10Z" transform="translate(-72.88 -39.58)"/><path class="cls-2" d="M304.62,80.36h0l2.35.32V62.57l-2.35-.15V80.36m-5-9.78q0-4.27,0-8.54a15.72,15.72,0,0,1,0-1.63c.15-1.44.84-2.1,2.29-2,2,.18,4,.49,6,.78a2.26,2.26,0,0,1,1.95,2.06,5.88,5.88,0,0,1,0,1c.06,6.31.13,12.61.16,18.92,0,2.24-.57,2.73-2.84,2.49q-2.33-.24-4.64-.54c-2.06-.26-2.72-1-2.75-3,0-3.19,0-6.37,0-9.56Z" transform="translate(-72.88 -39.58)"/><path class="cls-2" d="M329.63,66.12h0V83.79c.51.1.83.18,1.16.21s.75,0,1.1,0V66.5l-2.25-.39m5.3,9.45c0,3,0,6,0,8.94,0,2.35-.68,2.93-2.94,2.62-1.61-.22-3.22-.41-4.83-.65a2.29,2.29,0,0,1-2.29-2.38,19.66,19.66,0,0,1-.07-2q-.08-8.33-.15-16.67a11.68,11.68,0,0,1,0-1.22c.12-1.28.7-1.93,1.94-1.84a60,60,0,0,1,6.24.75c1.41.25,1.9,1.09,1.92,2.92,0,3.18,0,6.37,0,9.55Z" transform="translate(-72.88 -39.58)"/><path class="cls-2" d="M351.65,81.08h0a2.63,2.63,0,0,0,3.17-1.28,3.77,3.77,0,0,0-.22-4.21A3.23,3.23,0,0,0,350.76,74c2.59.62,3.81,1.8,3.87,3.71.06,1.61-.74,2.54-3,3.37m6.42-2.41a5.68,5.68,0,0,1-9.18,4.16,7,7,0,0,1-3-7.1,5.54,5.54,0,0,1,7.48-4.41C356.17,72.3,358.06,75,358.07,78.66Z" transform="translate(-72.88 -39.58)"/><path class="cls-2" d="M370.74,76.85h0c2.56.61,3.66,1.68,3.75,3.6.08,1.73-.59,2.56-2.93,3.48a2.76,2.76,0,0,0,3.23-1.3,3.78,3.78,0,0,0-.21-4.21,3.17,3.17,0,0,0-3.83-1.58M378,81.58a5.67,5.67,0,0,1-9.09,4.14,7,7,0,0,1-3-7.26,5.54,5.54,0,0,1,7.55-4.28C376.21,75.21,378.06,77.94,378,81.58Z" transform="translate(-72.88 -39.58)"/><path class="cls-2" d="M245,507.76c-1.61-.47-2.89-.88-4.18-1.21a1.4,1.4,0,0,1-1.2-1.42c0-3.43,0-6.86,0-10.45l1.94.21c0,1.83,0,3.57,0,5.31s0,1.8,1.79,2.34c.51.16,1,.34,1.66.55v4.67" transform="translate(-72.88 -39.58)"/><path class="cls-2" d="M244.83,481v4.62l-3.33-.46v6.57c-1.08.25-1.92.17-1.94-.92-.07-3.56,0-7.13,0-11l5.3,1.16" transform="translate(-72.88 -39.58)"/><path class="cls-2" d="M245.11,516.83l-3.23-.82c-.73,2.21,0,4.46-.45,6.62-.84,0-1.59-.14-1.61-1.14-.08-3.31-.11-6.63-.15-9.94,0-.18.16-.36.35-.76,1.38.38,2.81.71,4.17,1.21a1.68,1.68,0,0,1,.87,1.19,35,35,0,0,1,0,3.64" transform="translate(-72.88 -39.58)"/><path class="cls-2" d="M241.87,552.6c-1.32-.08-1.9-.44-1.9-1.37,0-3.38,0-6.75,0-10.4,1.68.6,3.15,1.06,4.56,1.67a1.52,1.52,0,0,1,.65,1.12c.09,1.14,0,2.28,0,3.58l-3.34-1v6.42" transform="translate(-72.88 -39.58)"/><path class="cls-2" d="M239.51,475.2V463.59c1.63-.16,1.67-.16,1.72,1.06.05,1.42,0,2.84.05,4.27.05,1.82.1,1.84,1.87,2.26.52.12,1,.29,1.59.45v4.77l-5.23-1.19" transform="translate(-72.88 -39.58)"/><path class="cls-2" d="M245.16,567.88a2,2,0,0,1-.44,0c-4.71-1.66-4.71-1.66-4.73-6.63,0-2,0-4.05,0-6.08,1.75,0,1.81,0,1.86,1.38s.08,2.71,0,4.07c0,1.16.28,1.95,1.5,2.25a12.31,12.31,0,0,1,1.79.76v4.21" transform="translate(-72.88 -39.58)"/><path class="cls-2" d="M240,525.17l1.66.33c0,1.5,0,3,0,4.45,0,2.57,0,2.57,2.43,3.43l1,.39v4.52L240,536.52V525.17" transform="translate(-72.88 -39.58)"/><path class="cls-2" d="M240.84,681.33c1.7,1.15,3,2,4.23,2.9a2.2,2.2,0,0,1,.77,1.34,25.67,25.67,0,0,1,0,3.1l-3.23-1.84v5.53c-1.19-.26-1.77-.77-1.79-1.67,0-2.94,0-5.89,0-9.35" transform="translate(-72.88 -39.58)"/><path class="cls-2" d="M240.88,694.11c1.48.37,1.85,1.11,1.8,2.2s0,2.17,0,3.25a2.56,2.56,0,0,0,1.18,2.39c2.39,1.75,2.36,1.8,2,4.88-.81.39-1.17-.4-1.73-.67-2.68-1.33-3.7-3.43-3.32-6.42a45.87,45.87,0,0,0,0-5.63" transform="translate(-72.88 -39.58)"/><path class="cls-2" d="M240.77,667.6c1.23.06,1.68.65,1.67,1.71s0,2.31,0,3.46a2.45,2.45,0,0,0,1.43,2.67c2.4,1,2.09,2.95,1.77,5.28-1.56-1-3-1.93-4.3-2.92a1.74,1.74,0,0,1-.55-1.23c0-3,0-5.95,0-9" transform="translate(-72.88 -39.58)"/><path class="cls-2" d="M245.66,661.63,242.52,660v5.63c-1.17-.13-1.78-.56-1.79-1.53,0-3,0-6.05,0-9.25a17.63,17.63,0,0,1,4.51,2.52,1.2,1.2,0,0,1,.42.86c0,1.05,0,2.11,0,3.43" transform="translate(-72.88 -39.58)"/><path class="cls-2" d="M245.79,715l-2.95-1.88v5.33c-1.1-.21-1.73-.62-1.74-1.58,0-2.9,0-5.8,0-8.92a17,17,0,0,1,4.54,3.19c.61.56.57,1.59.16,3.85" transform="translate(-72.88 -39.58)"/><path class="cls-2" d="M245.89,733.29c-1.62-1.3-3-2.41-4.41-3.58a1.33,1.33,0,0,1-.33-.91c0-2.84,0-5.67,0-8.61a1.72,1.72,0,0,1,1.64,2c0,1.08,0,2.17,0,3.26a2.47,2.47,0,0,0,1.16,2.42c.17.11.31.28.49.37,2.05,1.06,1.9,2.8,1.48,5" transform="translate(-72.88 -39.58)"/><path class="cls-1" d="M172.91,645.58a7.44,7.44,0,0,1-4.43-3l4.43,3" transform="translate(-72.88 -39.58)"/><path class="cls-1" d="M165.63,640.62l1.36.89-.15.27-1.41-.79.2-.36" transform="translate(-72.88 -39.58)"/></svg>