<svg id="Camada_1" data-name="Camada 1" xmlns="http://www.w3.org/2000/svg" xmlns:xlink="http://www.w3.org/1999/xlink" viewBox="0 0 300 300"><defs><clipPath id="clip-path"><rect width="300" height="300" style="fill:none"/></clipPath><clipPath id="clip-path-2"><rect x="320" width="300" height="300" transform="translate(940 300) rotate(-180)" style="fill:none"/></clipPath></defs><title>braço elite series direito</title><g style="clip-path:url(#clip-path)"><g id="Camada_1-2" data-name="Camada 1-2"><g id="Camada_2-2" data-name="Camada 2-2"><g id="diagonal"><path d="M387.46,282l-1.24,11.76a10.43,10.43,0,0,1-2.61,3.62C381.8,298.92,351,314.2,351,314.2l-2.72,7-15.56,5,1.47,5.2s-.23,2.27-12,6.68l1.24,44.13-6.11,5s-9.95,3.61-25.46,2.37l-8-5.13-3.29-35.53-3.73-.68-1-3.84L273,350.28s-25,7.47-40.84-1.59l-5.09-25.9-11.54,1.47s0,14.37-18.56,20.82L188.4,347s-1.47,1.14-7.47-1.58-22.51-14.72-22.51-14.72-6.34.24-5.66-11.2a6.51,6.51,0,0,1,4.18-5.64l105.11-16.42,4.75-11.08" style="fill:#fff;stroke:#000;stroke-miterlimit:10;stroke-width:2.7152554988861084px"/><path d="M121.71,259l-2.5,1.13-70.2-12s-5.66.91-9.29-10.86L37,194.72s0-11.09,1.59-15.39l-1.13-8.59s-.57-4.53,1.36-7.36S51,146,51,146a7.29,7.29,0,0,0,.68-4.31c-.23-2.93-2.71-21.38-2.71-21.38L31.09,42.67a6.29,6.29,0,0,1,.45-5.32l3.16-5" style="fill:#fff;stroke:#000;stroke-miterlimit:10;stroke-width:2.7152554988861084px"/><path d="M34.7,32.37a8.69,8.69,0,0,1,5.95-4.58c4.57-1.19,15.19-1.36,15.19-1.36s5.85,3.4,9.41,5.94L86.63,153.76l-5.09.68.57,2.95s9.84,3.5,15.27,17.87a202.72,202.72,0,0,0,9.84,22.52l2.58-1.22s3-.18,3,.8a12.57,12.57,0,0,1-1.35,3.49l10.6,2.54.89,19.68.21,14.09a6.13,6.13,0,0,0,1.95,1.36v6.36s-2.63-.09-2.29,1.35-1.52,12.48-1.52,12.48" style="fill:none;stroke:#000;stroke-miterlimit:10;stroke-width:2.7152554988861084px"/><path d="M122.84,222.77l-6.11.46s-4,.45-5.61-2.83-8.15-1.65-8.15-1.65l.34-18,2.22-.45,7.11.9" style="fill:none;stroke:#000;stroke-miterlimit:10;stroke-width:2.7152554988861084px"/><polyline points="107.22 197.78 95.51 201.44 102.97 202.8" style="fill:none;stroke:#000;stroke-miterlimit:10;stroke-width:2.7152554988861084px"/><polyline points="102.76 214.78 92.78 213.95 93.29 201.57" style="fill:none;stroke:#000;stroke-miterlimit:10;stroke-width:2.7152554988861084px"/><path d="M38.66,179.33l3.56,20S43.69,212.48,54.78,212s8.14-21.61,8.14-21.61l-3.05-25.35s-.91-7,3.61-7.8l17.88-3.17" style="fill:none;stroke:#000;stroke-miterlimit:10;stroke-width:2.7152554988861084px"/><path d="M60.47,177l-3.14-18.64,6.61-18.54L50.2,33.38s-4.07-5.68-8.14-5.9" style="fill:none;stroke:#000;stroke-miterlimit:10;stroke-width:2.7152554988861084px"/><path d="M76.45,154.44a65.71,65.71,0,0,1-11.88-34.85c-.68-20.36-8.73-93.16-8.73-93.16" style="fill:none;stroke:#000;stroke-miterlimit:10;stroke-width:2.7152554988861084px"/><line x1="87.57" y1="85.57" x2="184.55" y2="92.96" style="fill:none;stroke:#000;stroke-miterlimit:10;stroke-width:2.7152554988861084px"/><path d="M173.91,100.37l-19.51.73a94.77,94.77,0,0,1-14.09-.73c-6.27-1-39.37-4.07-39.37-4.07" style="fill:none;stroke:#000;stroke-miterlimit:10;stroke-width:2.7152554988861084px"/><path d="M218.55,271.88l-47,6.64-.46,2.71-18,3.74s-23.87,4.18-33-3.63l2.72-35.3s8.93,6.1,29.76,3.49c0,0,4-1.46.89-2.82v-5.43l1.14-1.13,3-126s1.36-4.52,2.93-4.75,24.36-16.46,24.36-16.46l54.38-2V79.53s.1-5.51-6.27-8.4c0,0-64.91-9.93-98.6-7L88.26,65.45,76.72,72.24s-4.41,1.1-3.82,10.94l14.6,2.38,28.77,23.17s3.31.94,3,8.49l3.45,88.24" style="fill:none;stroke:#000;stroke-miterlimit:10;stroke-width:2.7152554988861084px"/><polyline points="154.97 248.12 156.88 268.14 182.59 264.07" style="fill:none;stroke:#000;stroke-miterlimit:10;stroke-width:2.7152554988861084px"/><path d="M62,158.18s11.48,4.94,15.55,20.93,15.31,30.94,15.31,30.94" style="fill:none;stroke:#000;stroke-miterlimit:10;stroke-width:2.7152554988861084px"/><path d="M96.53,214.55s9.84,13.31,17.56,11.79,9.15,10.27,9.15,10.27" style="fill:none;stroke:#000;stroke-miterlimit:10;stroke-width:2.7152554988861084px"/><path d="M65.3,172.77s4.41,51.93,48.07,63.58" style="fill:none;stroke:#000;stroke-miterlimit:10;stroke-width:2.7152554988861084px"/><path d="M114.35,226.51l-3.39,5L113.1,236s5.09,13.47-1.12,19l2,3.85" style="fill:none;stroke:#000;stroke-miterlimit:10;stroke-width:2.7152554988861084px"/><path d="M39.5,237.71a8.81,8.81,0,0,0,6.79,5.43c5,.57,65.62,11.88,65.62,11.88" style="fill:none;stroke:#000;stroke-miterlimit:10;stroke-width:2.7152554988861084px"/><path d="M38.66,182.27s-.23,7.58,0,13,1.81,26.14,1.81,26.14.57,17.2,13.36,19.68,60.07,10.56,60.07,10.56" style="fill:none;stroke:#000;stroke-miterlimit:10;stroke-width:2.7152554988861084px"/><path d="M254.3,278.61s10.18-.34,16.12,12.9,14.65,16.29,14.65,16.29a15.54,15.54,0,0,0,13.58-2.44l6.9-23.08" style="fill:none;stroke:#000;stroke-miterlimit:10;stroke-width:2.7152554988861084px"/><line x1="271.78" y1="295.49" x2="261.34" y2="297.44" style="fill:none;stroke:#000;stroke-miterlimit:10;stroke-width:2.7152554988861084px"/><path d="M227,322.79l43.27-4.6s11.88-13.4-3.81-21.05" style="fill:none;stroke:#000;stroke-miterlimit:10;stroke-width:2.7152554988861084px"/><path d="M231.51,345.61a11.35,11.35,0,0,0,4.29-6.24c.85-3.91,40.22-23.08,40.22-23.08s8.82-4.93,12.56-4.93,21.55-4.24,21.55-4.24l75.09-11.63" style="fill:none;stroke:#000;stroke-miterlimit:10;stroke-width:2.7152554988861084px"/><path d="M67.54,156.77s10.26,2.79,14.09,11.36,10.09,26.51,10.09,26.51h4.41l3.31,5.13" style="fill:none;stroke:#000;stroke-miterlimit:10;stroke-width:2.7152554988861084px"/><path d="M74.53,74.68,171,82.49a186,186,0,0,0,20.71.68c10.18-.34,41.4-1.47,41.4-1.47s6.66-.54,3.33-8.31" style="fill:none;stroke:#000;stroke-miterlimit:10;stroke-width:2.7152554988861084px"/><path d="M88.38,65.46l93,6.79s12,.45,20.21.34,30-1.36,30-1.36" style="fill:none;stroke:#000;stroke-miterlimit:10;stroke-width:2.7152554988861084px"/></g></g><path d="M156.14,255s36.32,12.55,65.5,18.22A486.2,486.2,0,0,0,291.33,282c19,1,68.9-.39,84.51-1.25s157.84-22.55,167.49-24.94c6.86-1.52,6.29-6.78,6.29-6.78s8-2.88,11.2-6.62c3.91-2.54,4.75-31.56,4.75-31.56s.18-31.39-1.18-41.23-13.24-16.8-13.24-16.8-21.32-7.23-31.72-8.48c-7.69-.92-64.36-1.1-100.82,1-12.88.74-23.26,1.78-28.05,3.16-18.33,5.32-28.05,10.24-29.69,12.45s-3.52,9-3.52,9-44.46,3.39-53.79,3.91S258,178.69,258,178.69s-29.59-11-49.78-11.65c-20.7-.68-51.79.68-51.79.68" style="fill:none;stroke:#000;stroke-miterlimit:10;stroke-width:2.7152554988861084px"/><path d="M321.2,282.31s9.95-33.74,7.24-53.2-4.53-23.46-14.49-29.38-55-21.19-55-21.19" style="fill:none;stroke:#000;stroke-miterlimit:10;stroke-width:2.7152554988861084px"/><path d="M121.56,172.77s-7.45.53-21.94,8.32" style="fill:none;stroke:#000;stroke-miterlimit:10;stroke-width:2.7152554988861084px"/><path d="M157.09,172.77s56.86,5.77,74.51,9.5,67.21,22.64,86.22,20" style="fill:none;stroke:#000;stroke-miterlimit:10;stroke-width:2.7152554988861084px"/><path d="M258,178.66s24.9,11.27,24.56,18.3" style="fill:none;stroke:#000;stroke-miterlimit:10;stroke-width:2.7152554988861084px"/><path d="M266.55,181.38s97-7.73,107.38-10.1" style="fill:none;stroke:#000;stroke-miterlimit:10;stroke-width:2.7152554988861084px"/><path d="M40.65,27.79S45.3-98.75,42-113.69,31.67-190.39,38.61-208,80.23-249.9,87-255.78s14.49-25.79,14-38,6.49-58.84,14.48-63.81,23.52-8.15,35.3-7.25,60.93,7.64,60.93,7.64,26,2.9,31.91,23.08,24.27,78.41,38.19,87.91,50.23,26.47,50.23,26.47,25.63,16.64,31.74,29.87c7.81,14.77,1,37,1,37l-20,37.33S335.5-84.82,340.75-69s32.58,67.72,39.89,80.28,22.71,43.09,22.71,43.09" style="fill:none;stroke:#000;stroke-miterlimit:10;stroke-width:2.7152554988861084px"/><path d="M92.78,65.79S65-106,62-116.85,37.39-202.38,38.66-208" style="fill:#fff;stroke:#000;stroke-miterlimit:10;stroke-width:2.7152554988861084px"/><path d="M95.51,92s2.36,65.16-1.36,77.92" style="fill:none;stroke:#000;stroke-miterlimit:10;stroke-width:2.7152554988861084px"/><path d="M122.75,64.53S108.27,16.2,106.69.8c-10.45,14,.23,48.77,3.63,64.66" style="fill:none;stroke:#000;stroke-miterlimit:10;stroke-width:2.7152554988861084px"/><line x1="98.09" y1="-65.15" x2="106.86" y2="2.16" style="fill:none;stroke:#000;stroke-miterlimit:10;stroke-width:2.7152554988861084px"/><path d="M104.43-202.27S94.1-186.09,94.18-170.48s13.42,66.3,14.32,74S109-17.3,111-.77s14.11,65.16,14.11,65.16" style="fill:none;stroke:#000;stroke-miterlimit:10;stroke-width:2.7152554988861084px"/><path d="M130.47,64.22,122.77,5.1s-2.49-25.56,10.86-25.34c7.91-2.15,13.13-1.81,20.36-2.15s155.17,3.91,155.17,3.91,12.73-1.61,14.59,1.88c0,0,13.41,42.08,16.29,53.12s9.17,65.34,8.15,79.42-2.05,50.23-5.35,55.07" style="fill:none;stroke:#000;stroke-miterlimit:10;stroke-width:2.7152554988861084px"/><path d="M139.64-21.52s-.13,12.36,1.67,18.7,13.58,66.45,13.58,66.45" style="fill:none;stroke:#000;stroke-miterlimit:10;stroke-width:2.7152554988861084px"/><line x1="161.9" y1="167.48" x2="160.62" y2="109.4" style="fill:none;stroke:#000;stroke-miterlimit:10;stroke-width:2.7152554988861084px"/><line x1="191.78" y1="92.7" x2="204.43" y2="166.91" style="fill:none;stroke:#000;stroke-miterlimit:10;stroke-width:2.7152554988861084px"/><path d="M154-22.39a81.24,81.24,0,0,1,10,13.58c3.63,6.68,13.35,23.54,16.29,35.3s7.47,39.37,7.47,39.37" style="fill:none;stroke:#000;stroke-miterlimit:10;stroke-width:2.7152554988861084px"/><path d="M304.24-18.61S300.83-1,300.5,4.47s3.39,36.65,5.6,49.89,5.27,41,3.91,51.06-12.22,47.69-24.27,70.11" style="fill:none;stroke:#000;stroke-miterlimit:10;stroke-width:2.7152554988861084px"/><line x1="112.63" y1="10.45" x2="123.45" y2="10.45" style="fill:none;stroke:#000;stroke-miterlimit:10;stroke-width:2.7152554988861084px"/><line x1="113.4" y1="14.87" x2="124.22" y2="14.87" style="fill:none;stroke:#000;stroke-miterlimit:10;stroke-width:2.7152554988861084px"/></g></g><g style="clip-path:url(#clip-path-2)"><g id="Camada_1-2-2" data-name="Camada 1-2"><g id="Camada_2-2-2" data-name="Camada 2-2"><g id="diagonal-2" data-name="diagonal"><path d="M353.2,286.36,358,297.44l105.11,16.42a6.51,6.51,0,0,1,4.18,5.64c.68,11.44-5.66,11.2-5.66,11.2s-16.51,12-22.51,14.72S431.6,347,431.6,347L423,345.08c-18.56-6.45-18.56-20.82-18.56-20.82l-11.54-1.47-5.09,25.9C372,357.75,347,350.28,347,350.28l-2.82-5.92-1,3.84-3.73.68-3.29,35.53-8,5.13c-15.51,1.24-25.46-2.37-25.46-2.37l-6.11-5,1.24-44.13c-11.76-4.41-12-6.68-12-6.68l1.47-5.2-15.56-5-2.72-7s-30.77-15.28-32.58-16.87a10.43,10.43,0,0,1-2.61-3.62L232.54,282" style="fill:#fff;stroke:#000;stroke-miterlimit:10;stroke-width:2.7152554988861084px"/><path d="M166.3,143.61s-.34-41.75-.76-46.16a8.73,8.73,0,0,0-3.48-6.37L137.53,74.71l-19.43.08c-21.72,0-28-1.86-28-1.86a18.2,18.2,0,0,1,0-5.61c.5-2.19,4.07-4.91,4.07-4.91A94.22,94.22,0,0,1,108.6,56.3c9.34-3.23,122.88-3.07,130.17-1.19s6.11,8.32,6.11,8.32v8.48H230.62s-24.61,16.63-27.15,19a9,9,0,0,0-2.72,5.59v48.77" style="fill:#fff;stroke:#000;stroke-miterlimit:10;stroke-width:2.7152554988861084px"/><line x1="231.3" y1="71.91" x2="137.53" y2="74.71" style="fill:none;stroke:#000;stroke-miterlimit:10;stroke-width:2.7152554988861084px"/><path d="M149.79,82.61s9.34.07,13.29.41,14.2,0,14.2,0L216.19,82" style="fill:none;stroke:#000;stroke-miterlimit:10;stroke-width:2.7152554988861084px"/><path d="M234.78,295.49l75.09,11.63s17.82,4.24,21.55,4.24S344,316.29,344,316.29s39.37,19.17,40.22,23.08a11.35,11.35,0,0,0,4.29,6.24" style="fill:none;stroke:#000;stroke-miterlimit:10;stroke-width:2.7152554988861084px"/><path d="M241.36,300.54,223.15,298c-19.68,12-45.94,14.24-49.33,12s-1.7-6.56-1.7-6.56c1.14-10.75,12.22-23.65,12.22-23.65,1.82-2.25,7.36-1.57,7.36-1.57,16.86.45,40.84,4.07,40.84,4.07" style="fill:none;stroke:#000;stroke-miterlimit:10;stroke-width:2.7152554988861084px"/><path d="M223.83,297.67c1.81-2.26.44-2.59-1.82-4.86s-38.8-11-38.8-11" style="fill:none;stroke:#000;stroke-miterlimit:10;stroke-width:2.7152554988861084px"/><path d="M92.14,64.61s14.72.92,21,.8,18.32-7.59,18.32-7.59C160,53,231.86,54.51,231.86,54.51" style="fill:none;stroke:#000;stroke-miterlimit:10;stroke-width:2.7152554988861084px"/><line x1="131.51" y1="57.82" x2="106.19" y2="57.16" style="fill:none;stroke:#000;stroke-miterlimit:10;stroke-width:2.7152554988861084px"/><path d="M118.22,64.53a36.79,36.79,0,0,0,13.92-3.65L243.8,58.34" style="fill:none;stroke:#000;stroke-miterlimit:10;stroke-width:2.7152554988861084px"/></g></g><path d="M463.6,167.72s-31.09-1.36-51.79-.68c-20.19.65-49.78,11.65-49.78,11.65s-36.27-4.34-45.59-4.86-53.79-3.91-53.79-3.91-1.88-6.79-3.52-9-11.36-7.13-29.69-12.45c-4.79-1.38-15.17-2.42-28.05-3.16-36.46-2.12-93.13-1.94-100.82-1-10.4,1.25-31.72,8.48-31.72,8.48S57,159.72,55.61,169.57s-1.18,41.23-1.18,41.23.84,29,4.75,31.56c3.22,3.74,11.2,6.62,11.2,6.62s-.57,5.26,6.29,6.78c9.65,2.39,151.87,24.09,167.49,24.94s65.5,2.27,84.51,1.25a486.2,486.2,0,0,0,69.69-8.71c29.18-5.67,65.5-18.22,65.5-18.22" style="fill:none;stroke:#000;stroke-miterlimit:10;stroke-width:2.7152554988861084px"/><path d="M361.08,178.54s-45.06,15.27-55,21.19-11.77,9.93-14.49,29.38,7.24,53.2,7.24,53.2" style="fill:none;stroke:#000;stroke-miterlimit:10;stroke-width:2.7152554988861084px"/><path d="M68.71,248.34c-5.08-8.14-11.57-48.21-7.15-57.72s6.12-9.51,20.54-15.11,119-.16,127.27-1,53.29-4.59,53.29-4.59" style="fill:none;stroke:#000;stroke-miterlimit:10;stroke-width:2.7152554988861084px"/><path d="M73.46,178.85c1.5-5.56,8.13-7.78,25.1-13.21s53.28-4,77.05-4.41c20.26-.36,56.86-1.34,64.83-1s21.45,7.12,21.45,7.12" style="fill:none;stroke:#000;stroke-miterlimit:10;stroke-width:2.7152554988861084px"/><path d="M56.4,166.49C58.54,172.57,71,180,71,180" style="fill:none;stroke:#000;stroke-miterlimit:10;stroke-width:2.7152554988861084px"/><path d="M246.07,171.28c10.36,2.37,107.38,10.1,107.38,10.1" style="fill:none;stroke:#000;stroke-miterlimit:10;stroke-width:2.7152554988861084px"/><path d="M186.91,144.6s-28.85.69-37,1.14c-7.59.42-35.64-.11-58.49,3.73s-33.94,17-33.94,17" style="fill:none;stroke:#000;stroke-miterlimit:10;stroke-width:2.7152554988861084px"/><path d="M216.65,54.32s15.41-30.53,22.71-43.09S274-53.27,279.25-69s-4.07-46.5-4.07-46.5l-20-37.33s-6.79-22.23,1-37c6.11-13.23,31.74-29.87,31.74-29.87s36.32-17,50.23-26.47,32.26-67.72,38.19-87.91,31.91-23.08,31.91-23.08,49.15-6.74,60.93-7.64,27.3,2.28,35.3,7.25S519.42-306,519-293.79s7.24,32.13,14,38,41.47,30.09,48.41,47.74-.09,79.42-3.39,94.35,1.35,141.48,1.35,141.48" style="fill:none;stroke:#000;stroke-miterlimit:10;stroke-width:2.7152554988861084px"/><path d="M244.94,153.56c-22.63-19.9-34.21-68-34.21-68" style="fill:none;stroke:#000;stroke-miterlimit:10;stroke-width:2.7152554988861084px"/><path d="M241.62,56.34c1.69-9.18,23.09-55.21,32.42-65.1s26.1-61.09,26.1-61.09" style="fill:none;stroke:#000;stroke-miterlimit:10;stroke-width:2.7152554988861084px"/><path d="M239.4,71.91c4.42,27.55,33.44,66.92,33.44,66.92" style="fill:none;stroke:#000;stroke-miterlimit:10;stroke-width:2.7152554988861084px"/><path d="M226.48,74.71c3.57,52.42,48.55,89.92,48.55,89.92" style="fill:none;stroke:#000;stroke-miterlimit:10;stroke-width:2.7152554988861084px"/><path d="M229.9,54.47C249.59-2.19,274-8.81,274-8.81" style="fill:none;stroke:#000;stroke-miterlimit:10;stroke-width:2.7152554988861084px"/><path d="M277.16,171c-3.3-4.84-4.33-41-5.35-55.07s5.27-68.38,8.15-79.42S296.25-16.6,296.25-16.6c1.86-3.49,14.59-1.88,14.59-1.88S458.77-22.73,466-22.39s12.45,0,20.36,2.15c13.35-.22,10.86,25.34,10.86,25.34l-7.7,59.12" style="fill:none;stroke:#000;stroke-miterlimit:10;stroke-width:2.7152554988861084px"/></g></g></svg>