<svg xmlns="http://www.w3.org/2000/svg" xmlns:xlink="http://www.w3.org/1999/xlink" viewBox="0 0 208.639 206.734">
  <defs>
    <style>
      .cls-1, .cls-2, .cls-4 {
        fill: #fff;
      }

      .cls-1, .cls-4, .cls-5, .cls-6 {
        stroke: #707070;
      }

      .cls-3 {
        clip-path: url(#clip-path);
      }

      .cls-4, .cls-5, .cls-6 {
        stroke-miterlimit: 10;
      }

      .cls-5, .cls-6 {
        fill: none;
      }

      .cls-6 {
        stroke-width: 2px;
      }
    </style>
    <clipPath id="clip-path">
      <ellipse id="Ellipse_2" data-name="Ellipse 2" class="cls-1" cx="104.319" cy="103.367" rx="104.319" ry="103.367" transform="translate(64 1945)"/>
    </clipPath>
  </defs>
  <g id="Group_375" data-name="Group 375" transform="translate(-170.688 -1039.865)">
    <path id="Ellipse_2-2" data-name="Ellipse 2" class="cls-2" d="M104.319,0c49.317,0,91.106,35.17,102.056,81.039a91.7,91.7,0,0,1,2.263,22.328c0,57.088-46.705,103.367-104.319,103.367S0,160.455,0,103.367,46.705,0,104.319,0Z" transform="translate(170.688 1039.865)"/>
    <g id="rodinha" class="cls-3" transform="translate(106.688 -905.135)">
      <g id="Rhino_Diagonal" data-name="Rhino Diagonal" transform="translate(41.31 1839.136)">
        <g id="Camada_1" data-name="Camada 1" transform="translate(1.002 0.999)">
          <g id="Camada_2" data-name="Camada 2" transform="translate(0 45.433)">
            <g id="diagonal">
              <path id="Path_1176" data-name="Path 1176" class="cls-4" d="M238.164,477.53l-.616,5.8a5.1,5.1,0,0,1-1.286,1.788c-.891.783-16.07,8.316-16.07,8.316l-1.339,3.455-7.673,2.457.723,2.564s-.114,1.118-5.912,3.294l.609,21.761-3.013,2.457a32.476,32.476,0,0,1-12.555,1.172l-3.957-2.531-1.62-17.523-1.841-.335-.5-1.895-1.393,2.919s-12.327,3.683-20.141-.783l-2.511-12.776-5.691.723s0,7.091-9.153,10.271l-4.238.944s-.723.562-3.683-.777-11.1-7.258-11.1-7.258-3.127.114-2.792-5.524a3.221,3.221,0,0,1,2.062-2.785l51.838-8.1,2.344-5.464" transform="translate(-41.109 -203.89)"/>
              <path id="Path_1177" data-name="Path 1177" class="cls-4" d="M151.105,561.375l32.053-4.479a3.3,3.3,0,0,1,1.674-1.212c.924-.167,12.434-1.674,12.434-1.674h4.1A2.678,2.678,0,0,1,203,555.516l.837,1.46,1.045,2.1.542,8.577s-2.718,1.212-8.45.8c0,0-3.515-.375-4.185-1.426l-15.44,4.352,45.444,9.963.964-.589,27.66,6.113.295.917a2.3,2.3,0,0,1,1.8,1.386l.79,12.675-5.1,1.553-6.656-1a4.009,4.009,0,0,1-2.591-1.928v-3.14l-77.965-12.26s-12.976-1.212-14.818,3.221l-2.484,37.878-7.118,1.379-8.162-1.507.5-37.918s.8-4.305-13.559-3.636l-79.4,10.332v2.678s.08,1.553-2.6,2.263a44.791,44.791,0,0,1-6.943.964l-4.941-1.841.964-11.55a2.434,2.434,0,0,1,1.761-2.344l.71-1,28.122-5.357.71.75,46.435-9-14.275-4.6s-1.085,1.754-8.37,1.212c0,0-3.763-.375-4.305-1.212l.583-8.035,2.6-5.109a3.538,3.538,0,0,1,2.759-.75l13.311,2.009A8.779,8.779,0,0,1,96.85,555.6l30,5.357" transform="translate(-8.092 -228.451)"/>
              <path id="Path_1178" data-name="Path 1178" class="cls-4" d="M194.947,529.746a8.893,8.893,0,0,1,5.022,1.3l.254,3.18a1.533,1.533,0,0,1,.71.757l.127,2.216a2.558,2.558,0,0,1,.917.917l.462,18.46c.75,1.125.415,1.754.415,1.754-2.176,3.053-12.052,3.053-12.052,3.053-11.965-.08-12.842-3.013-12.97-3.89a1.145,1.145,0,0,1,.629-1.212v-2.431s.375-14.938.415-15.648.924-.877.924-.877l.248-2.471c0-.422.757-.5.757-.5l.248-3.14c.295-.877,4.058-1.466,4.058-1.466v.837a19.5,19.5,0,0,0,9.836,0Z" transform="translate(-59.427 -221.141)"/>
              <path id="Path_1179" data-name="Path 1179" class="cls-4" d="M307.954,354.588V330.537a4.432,4.432,0,0,0-1.339-2.759c-1.252-1.172-13.391-9.374-13.391-9.374h-7.031v-4.185a3.622,3.622,0,0,1,3.013-4.1c3.6-.924,59.592-1,64.2.589a46.453,46.453,0,0,1,7.111,3.013s1.761,1.339,2.009,2.424a9.2,9.2,0,0,1,0,2.765s-3.093.917-13.807.917l-9.582-.04-12.1,8.075a4.305,4.305,0,0,0-1.714,3.14c-.208,2.176-.375,22.766-.375,22.766" transform="translate(-95.225 -148.354)"/>
              <path id="Path_1180" data-name="Path 1180" class="cls-4" d="M77.4,405.455l-1.232.556L41.544,400.1s-2.792.449-4.58-5.357l-1.339-20.978s0-5.47.783-7.593l-.556-4.238a6.16,6.16,0,0,1,.67-3.629c.951-1.4,6.026-8.591,6.026-8.591a3.6,3.6,0,0,0,.335-2.123c-.114-1.446-1.339-10.546-1.339-10.546l-8.838-38.273a3.12,3.12,0,0,1,.221-2.625l1.56-2.457" transform="translate(-11.415 -143.145)"/>
              <path id="Path_1181" data-name="Path 1181" class="cls-5" d="M35.46,292.246a4.278,4.278,0,0,1,2.933-2.256,46.374,46.374,0,0,1,7.493-.67s2.886,1.674,4.64,2.926l10.546,59.873-2.511.335.281,1.453s4.854,1.727,7.533,8.812a99.37,99.37,0,0,0,4.854,11.108l1.272-.6s1.48-.087,1.48.4a6.027,6.027,0,0,1-.67,1.721l5.229,1.252.442,9.709.1,6.95a3.06,3.06,0,0,0,.964.67v3.134s-1.3-.04-1.132.67a50.524,50.524,0,0,1-.75,6.153" transform="translate(-12.388 -141.701)"/>
              <path id="Path_1182" data-name="Path 1182" class="cls-5" d="M95.546,428.462l-3.013.228a2.853,2.853,0,0,1-2.765-1.4c-.81-1.62-4.017-.81-4.017-.81l.167-8.9,1.091-.221,3.509.442" transform="translate(-29.005 -184.008)"/>
              <path id="Path_1183" data-name="Path 1183" class="cls-5" d="M86.028,415.53l-5.778,1.808,3.683.67" transform="translate(-27.188 -183.404)"/>
              <path id="Path_1184" data-name="Path 1184" class="cls-5" d="M83.161,424.835l-4.921-.408.254-6.107" transform="translate(-26.523 -184.326)"/>
              <path id="Path_1185" data-name="Path 1185" class="cls-5" d="M38.38,395.8l1.754,9.876s.723,6.475,6.194,6.254,4.017-10.66,4.017-10.66l-1.507-12.5s-.449-3.455,1.781-3.85l8.818-1.56" transform="translate(-13.353 -172.774)"/>
              <path id="Path_1186" data-name="Path 1186" class="cls-5" d="M49.959,363.83l-1.547-9.193,3.261-9.146L44.9,293s-2.009-2.806-4.017-2.913" transform="translate(-14.179 -141.955)"/>
              <path id="Path_1187" data-name="Path 1187" class="cls-5" d="M61.194,352.454a32.421,32.421,0,0,1-5.859-17.188C55,325.223,51.03,289.32,51.03,289.32" transform="translate(-17.533 -141.701)"/>
              <line id="Line_204" data-name="Line 204" class="cls-5" x2="47.834" y2="3.642" transform="translate(49.145 176.786)"/>
              <path id="Path_1188" data-name="Path 1188" class="cls-5" d="M120.24,342.789l-9.622.362a46.721,46.721,0,0,1-6.95-.362c-3.093-.475-19.418-2.009-19.418-2.009" transform="translate(-28.509 -158.704)"/>
              <line id="Line_205" data-name="Line 205" class="cls-5" x1="46.247" y1="1.379" transform="translate(197.664 170.05)"/>
              <path id="Path_1189" data-name="Path 1189" class="cls-5" d="M307.34,330.22l19.19.522s5.055.167,7,0,6.555-.2,6.555-.2" transform="translate(-102.224 -155.215)"/>
              <path id="Path_1190" data-name="Path 1190" class="cls-5" d="M135.418,419.41l-23.154,3.274-.228,1.339-8.872,1.841s-11.771,2.062-16.291-1.788l1.339-17.409s4.406,3.006,14.677,1.721c0,0,1.948-.723.442-1.393v-2.678l.562-.556,1.473-62.143s.67-2.23,1.446-2.344,12.012-8.115,12.012-8.115l26.823-.964v-5.651a4.779,4.779,0,0,0-3.093-4.145s-32.012-4.895-48.631-3.468l-22.766.67-5.691,3.348s-2.176.542-1.882,5.4l7.2,1.172,14.188,11.43s1.634.462,1.507,4.185l1.7,43.522" transform="translate(-21.673 -150.738)"/>
              <path id="Path_1191" data-name="Path 1191" class="cls-5" d="M109.58,72.379s-4.9,17.041-.67,45.076c0,0,2.049,7.573,5.357,7.921a9.059,9.059,0,0,0,5.537-1.125s6.93-6.562,15.072-7.365,16.565-2.4,27.633,7.64c0,0,5.209,4.573,8.7,2.076,0,0,1.513.214,2.879-2.163a123.743,123.743,0,0,1-1.339-15.166s-2.009-17.181-1.306-20.543a36.661,36.661,0,0,0,.67-6.83s-1.446-7.807-8.316-6.923c0,0-5.437,1.292-8.5,4.017s-17.221,3.509-30.358-4.8c0,0-5.276-3.957-5.671-4.118S113.825,66.273,109.58,72.379Z" transform="translate(-36.089 -68.853)"/>
              <path id="Path_1192" data-name="Path 1192" class="cls-5" d="M116.2,127.484s14.8-13.552,18.715-28.229c2.009-7.546-.87-15.715-7.245-22.484" transform="translate(-39.066 -71.469)"/>
              <path id="Path_1193" data-name="Path 1193" class="cls-5" d="M110.1,78.17s1.125,43.208,1.406,46.616" transform="translate(-37.051 -71.931)"/>
              <path id="Path_1194" data-name="Path 1194" class="cls-5" d="M181.82,81.868s7.318-2.33,9.863,10.425,6.441,30.332,5.263,37.724l6.421,68.1,5.578.114-8.463-85.913H197.9" transform="translate(-60.749 -73.098)"/>
              <path id="Path_1195" data-name="Path 1195" class="cls-5" d="M124.05,452.61l.944,9.876,12.675-2.009" transform="translate(-41.66 -195.656)"/>
              <path id="Path_1196" data-name="Path 1196" class="cls-5" d="M181.59,537.36s11.523,4.828,20.168,0" transform="translate(-60.673 -223.66)"/>
              <path id="Path_1197" data-name="Path 1197" class="cls-5" d="M180.13,541.555s.67,3.629,11.8,3.462,10.412-3.736,10.412-3.736" transform="translate(-60.191 -224.955)"/>
              <path id="Path_1198" data-name="Path 1198" class="cls-5" d="M102.245,557.55s-.107.67.368.81,11.825,2.819,11.825,2.819a1.54,1.54,0,0,0,1.118-.362A33.743,33.743,0,0,0,117.2,557.8s.67-1.286,1.533-1l4.212.442" transform="translate(-34.452 -230.07)"/>
              <path id="Path_1199" data-name="Path 1199" class="cls-5" d="M262.67,559.258a4.23,4.23,0,0,0,1.533-.167c.81-.254,2.678-.87,3.656.335a5.216,5.216,0,0,1,1.091,2.37,1.486,1.486,0,0,0,1.533,1.44h.194c1.587-.248,12.133-2.089,12.133-2.089s.783-.308.67-1" transform="translate(-87.464 -230.713)"/>
              <path id="Path_1200" data-name="Path 1200" class="cls-5" d="M349.262,602.658s-1.466.04-2.678,2.886a2.189,2.189,0,0,1-2.3,1.379l-26.194-5.437s-1.172-.04-1-1.426c0,0,.295-1.841.837-2.089a16.984,16.984,0,0,0,2.176-1.841" transform="translate(-105.438 -243.079)"/>
              <path id="Path_1201" data-name="Path 1201" class="cls-5" d="M184.778,636.655l2.806-1.8a2.089,2.089,0,0,1,1.674-.455c1.172.08,2.846.08,2.846.08a3.033,3.033,0,0,1,2.089.589L197,637.077l1.132-12.22-.295-1.219a5.626,5.626,0,0,0-3.261-2.591l-5.4-.167a4.325,4.325,0,0,0-2.631.964,16.153,16.153,0,0,0-1.888,1.794l-.121,13.271Z" transform="translate(-61.644 -251.257)"/>
              <path id="Path_1202" data-name="Path 1202" class="cls-5" d="M26.53,598.541a6.167,6.167,0,0,1,2.678,3.388,2.256,2.256,0,0,0,2.718,1.232c2.089-.415,25.859-4.185,25.859-4.185s1-.375.884-1.212-.295-2.136-.295-2.136l-1.507-1.841-.964-.877" transform="translate(-9.437 -242.015)"/>
              <path id="Path_1203" data-name="Path 1203" class="cls-5" d="M24.59,602.38l4.185,5.022-.462,9.99" transform="translate(-8.796 -245.144)"/>
              <path id="Path_1204" data-name="Path 1204" class="cls-5" d="M31.21,603.144l84.9-13.351s11.718-1.674,17.409,2.906l-.783,35.708" transform="translate(-10.984 -240.886)"/>
              <line id="Line_206" data-name="Line 206" class="cls-5" x1="1.279" y2="29.622" transform="translate(133.11 340.102)"/>
              <line id="Line_207" data-name="Line 207" class="cls-5" y2="29.455" transform="translate(127.024 340.102)"/>
              <path id="Path_1205" data-name="Path 1205" class="cls-5" d="M364.69,606.7l-4.6,5.6.167,8.872" transform="translate(-119.654 -246.571)"/>
              <path id="Path_1206" data-name="Path 1206" class="cls-5" d="M308,606.524l-86.542-16.739s-12.052-2.431-14.9,2.678l-2.846,34.148" transform="translate(-67.982 -240.791)"/>
              <line id="Line_208" data-name="Line 208" class="cls-5" x1="70.205" y1="16.13" transform="translate(141.419 338.783)"/>
              <line id="Line_209" data-name="Line 209" class="cls-5" x1="26.073" y1="5.979" transform="translate(143.18 336.941)"/>
              <line id="Line_210" data-name="Line 210" class="cls-5" y1="6.368" x2="37.416" transform="translate(143.18 328.98)"/>
              <line id="Line_211" data-name="Line 211" class="cls-5" y1="8.704" x2="41.092" transform="translate(155.065 330.788)"/>
              <path id="Path_1207" data-name="Path 1207" class="cls-5" d="M277.09,573.331l7.7-2.2s1.339-.542,1.922.295" transform="translate(-92.229 -234.762)"/>
              <line id="Line_212" data-name="Line 212" class="cls-5" y1="5.082" x2="25.055" transform="translate(93.043 336.687)"/>
              <line id="Line_213" data-name="Line 213" class="cls-5" x1="38.775" y1="9.709" transform="translate(66.99 329.215)"/>
              <path id="Path_1208" data-name="Path 1208" class="cls-5" d="M113.586,571.233l-7.921-2.625s-1.56-.442-1.955.114" transform="translate(-34.939 -233.93)"/>
              <path id="Path_1209" data-name="Path 1209" class="cls-5" d="M186.71,663.82v5.062l.629.583.167,22.518h7.7V669.217l.837-.422.08-4.975" transform="translate(-62.365 -265.445)"/>
              <path id="Path_1210" data-name="Path 1210" class="cls-5" d="M186.9,664.75s5.109,2.933,9.126,0" transform="translate(-62.428 -265.752)"/>
              <path id="Path_1211" data-name="Path 1211" class="cls-5" d="M200.152,671.22l4.145.087s1.587-.087,1.587,1.3.087,27.787.087,27.787-.087,1.212-.8,1.212l-4.935.04s-1.172-.8-1.091-3.723a20.966,20.966,0,0,0,0-3.268" transform="translate(-66.473 -267.89)"/>
              <path id="Path_1212" data-name="Path 1212" class="cls-5" d="M183.779,671.371h-4.433s-1.426-.295-1.426,1.507-.08,27.66-.08,27.66,0,1.259,1.547,1.259h4.392a.991.991,0,0,0,.757-.589c.167-.5.04-6.736.04-6.736" transform="translate(-59.434 -267.934)"/>
              <path id="Path_1213" data-name="Path 1213" class="cls-5" d="M345.047,652.194s-2.23-8.765,4.915-12.95,15.233,1.955,16.96,5.417,6.214,13.1-2.846,18.3S345.777,657.216,345.047,652.194Z" transform="translate(-114.575 -256.859)"/>
              <path id="Path_1214" data-name="Path 1214" class="cls-5" d="M351.15,627.57s.335,1.627,3.937,1.754,4.265-.04,4.767-1.379" transform="translate(-116.7 -253.467)"/>
              <line id="Line_214" data-name="Line 214" class="cls-5" y2="8.792" transform="translate(234.45 374.518)"/>
              <path id="Path_1215" data-name="Path 1215" class="cls-5" d="M360.211,628.22v3.709s-6.589.422-8.792,4.413" transform="translate(-116.789 -253.682)"/>
              <path id="Path_1216" data-name="Path 1216" class="cls-5" d="M364.75,631.567a8.838,8.838,0,0,1,6.528-.248c3.77,1.225,6.977,2.9,9.876,9.233a12.441,12.441,0,0,1-.583,11.55,20.086,20.086,0,0,1-6.756,6.026" transform="translate(-121.194 -254.538)"/>
              <path id="Path_1217" data-name="Path 1217" class="cls-5" d="M354.9,636.3s8.792-2.846,14.65,3.221,5.022,11.343,5.022,11.343a13.836,13.836,0,0,1-2.765,7.948" transform="translate(-117.939 -256.132)"/>
              <path id="Path_1218" data-name="Path 1218" class="cls-5" d="M364.9,632.909a13.753,13.753,0,0,1,11.008,3.937,16.927,16.927,0,0,1,4.727,10.164,12.836,12.836,0,0,1-4.4,9.963" transform="translate(-121.243 -255.211)"/>
              <line id="Line_215" data-name="Line 215" class="cls-5" y1="1.339" x2="2.256" transform="translate(256.298 396.319)"/>
              <path id="Path_1219" data-name="Path 1219" class="cls-5" d="M348.484,652.618s-.9-8.7,6.883-9.849,11.423,7.486,11.423,7.486,3.562,9.89-4.774,12.434C353.1,665.407,348.558,655.43,348.484,652.618Z" transform="translate(-115.809 -258.455)"/>
              <path id="Path_1220" data-name="Path 1220" class="cls-5" d="M355.5,654.942a5.892,5.892,0,0,0,4.687,5.578c4.767,1.205,4.125-5.524,4.125-5.524s-1.085-3.877-4.935-4.017S355.5,654.942,355.5,654.942Z" transform="translate(-118.137 -261.201)"/>
              <path id="Path_1221" data-name="Path 1221" class="cls-5" d="M359.22,650.827s1-.837,1.5-.777a4.924,4.924,0,0,1,4.995,2.37c2.431,3.85-1.393,7.365-1.393,7.365" transform="translate(-119.367 -260.888)"/>
              <path id="Path_1222" data-name="Path 1222" class="cls-5" d="M351.5,646.391l.77.295,3.515,2.384.589-.348-2.136-3.261-1.366-.73" transform="translate(-116.816 -259.137)"/>
              <path id="Path_1223" data-name="Path 1223" class="cls-5" d="M355.59,643.456l.824.629,1.868,2.9s.877.208.931-.415h0l-.67-2.678-.67-.951" transform="translate(-118.167 -258.546)"/>
              <path id="Path_1224" data-name="Path 1224" class="cls-5" d="M360.78,642.59l.5.877.67,2.959s.583.67.991.167l.469-2.638-.194-.891" transform="translate(-119.882 -258.43)"/>
              <path id="Path_1225" data-name="Path 1225" class="cls-5" d="M366.188,644l.054.67-.442,2.886s.442.6.837.489l1.339-2.136.234-.723" transform="translate(-121.541 -258.896)"/>
              <path id="Path_1226" data-name="Path 1226" class="cls-5" d="M370.123,647.22l-.154.67-1.339,1.868s0,.9.824.87l2.243-1.567" transform="translate(-122.476 -259.96)"/>
              <path id="Path_1227" data-name="Path 1227" class="cls-5" d="M373.225,652l-2.33,1.232s-.67,1.044.362,1.185l3-.723" transform="translate(-123.153 -261.54)"/>
              <path id="Path_1228" data-name="Path 1228" class="cls-5" d="M374.785,657.384l-2.812-.154s-1.245.449-.214,1.158l3.348,1.339" transform="translate(-123.375 -263.268)"/>
              <path id="Path_1229" data-name="Path 1229" class="cls-5" d="M374.014,664.561l-.81-1.051-2.41-2.049s-.516-1.132.475-.951a14.5,14.5,0,0,1,3.348,1.888" transform="translate(-123.147 -264.345)"/>
              <path id="Path_1230" data-name="Path 1230" class="cls-5" d="M370.794,668.6l-.067-1.252a2.678,2.678,0,0,0-.422-1.2c-.362-.489-1.172-1.748-1.172-1.748s-.475-1.607,1-.951l1.948,2.317.623,1.158" transform="translate(-122.618 -265.272)"/>
              <path id="Path_1231" data-name="Path 1231" class="cls-5" d="M366.324,670.353l.362-1.225a2.993,2.993,0,0,0-.067-1.62l-.489-1.727s.248-1.078,1.132-.408l.931,1.8a3.24,3.24,0,0,1,.449,1.225l.08,1.205" transform="translate(-121.65 -265.885)"/>
              <path id="Path_1232" data-name="Path 1232" class="cls-5" d="M360.9,670.3l.67-.964a2.45,2.45,0,0,0,.415-1.393l.348-2.317" transform="translate(-119.922 -266.043)"/>
              <path id="Path_1233" data-name="Path 1233" class="cls-5" d="M364.36,665.67l.723,2.933-.569,1.935" transform="translate(-121.065 -266.056)"/>
              <path id="Path_1234" data-name="Path 1234" class="cls-5" d="M355.57,668.009l.931-.777,1.761-2.792" transform="translate(-118.16 -265.65)"/>
              <path id="Path_1235" data-name="Path 1235" class="cls-5" d="M360.252,665.16l-.569,3.16-1.453,1.132" transform="translate(-119.039 -265.888)"/>
              <path id="Path_1236" data-name="Path 1236" class="cls-5" d="M351.78,664.134l1.071-.937,2.3-1.426" transform="translate(-116.908 -264.768)"/>
              <path id="Path_1237" data-name="Path 1237" class="cls-5" d="M357.06,663.38l-1.573,2.19-.837,1.239" transform="translate(-117.856 -265.3)"/>
              <path id="Path_1238" data-name="Path 1238" class="cls-5" d="M350.73,662.349l.85-.616a5.545,5.545,0,0,1,1.132-.6,10.231,10.231,0,0,0,1.547-.837" transform="translate(-116.561 -264.282)"/>
              <path id="Path_1239" data-name="Path 1239" class="cls-5" d="M353.531,658.63l-1.915.154-2.216.683" transform="translate(-116.122 -263.73)"/>
              <path id="Path_1240" data-name="Path 1240" class="cls-5" d="M348.71,657.342l2.056-.475,2.283-.067" transform="translate(-115.894 -263.126)"/>
              <path id="Path_1241" data-name="Path 1241" class="cls-5" d="M353.333,654.9l-3.127-.978-1.406-.067" transform="translate(-115.924 -262.154)"/>
              <path id="Path_1242" data-name="Path 1242" class="cls-5" d="M349.13,651.69l1.48.181,3.08,1.1" transform="translate(-116.033 -261.437)"/>
              <path id="Path_1243" data-name="Path 1243" class="cls-5" d="M354.588,651.3l-2.511-2-1.547-.362" transform="translate(-116.495 -260.528)"/>
              <path id="Path_1244" data-name="Path 1244" class="cls-5" d="M34.652,648.528s2.236-8.765-4.908-12.95-15.233,2.009-16.96,5.417-6.22,13.1,2.846,18.3S33.929,653.55,34.652,648.528Z" transform="translate(-4.02 -255.65)"/>
              <path id="Path_1245" data-name="Path 1245" class="cls-5" d="M36.524,623.9s-.335,1.634-3.937,1.754-4.265-.04-4.767-1.379" transform="translate(-9.863 -252.255)"/>
              <line id="Line_216" data-name="Line 216" class="cls-5" y2="8.792" transform="translate(26.661 372.061)"/>
              <path id="Path_1246" data-name="Path 1246" class="cls-5" d="M27.42,624.52v3.709s6.582.422,8.792,4.413" transform="translate(-9.731 -252.459)"/>
              <path id="Path_1247" data-name="Path 1247" class="cls-5" d="M18.55,627.9a8.832,8.832,0,0,0-6.528-.248c-3.763,1.225-7,2.893-9.876,9.233a12.454,12.454,0,0,0,.589,11.55,20.034,20.034,0,0,0,6.756,6.026" transform="translate(-1.002 -253.325)"/>
              <path id="Path_1248" data-name="Path 1248" class="cls-5" d="M27.339,632.665s-8.751-2.872-14.65,3.194S7.667,647.2,7.667,647.2a13.864,13.864,0,0,0,2.765,7.955" transform="translate(-3.189 -254.926)"/>
              <path id="Path_1249" data-name="Path 1249" class="cls-5" d="M19.3,629.239A13.753,13.753,0,0,0,8.3,633.176a16.953,16.953,0,0,0-4.727,10.171,12.836,12.836,0,0,0,4.392,9.963" transform="translate(-1.849 -253.998)"/>
              <line id="Line_217" data-name="Line 217" class="cls-5" x1="2.256" y1="1.339" transform="translate(2.556 393.869)"/>
              <path id="Path_1250" data-name="Path 1250" class="cls-5" d="M34.056,648.948s.911-8.7-6.877-9.849-11.423,7.493-11.423,7.493-3.562,9.883,4.767,12.427C29.443,661.763,33.989,651.76,34.056,648.948Z" transform="translate(-5.627 -257.242)"/>
              <path id="Path_1251" data-name="Path 1251" class="cls-5" d="M32.094,651.262a5.879,5.879,0,0,1-4.687,5.578c-4.767,1.205-4.131-5.524-4.131-5.524s1.091-3.877,4.941-4.017S32.094,651.262,32.094,651.262Z" transform="translate(-8.353 -259.985)"/>
              <path id="Path_1252" data-name="Path 1252" class="cls-5" d="M29.139,647.127s-1-.837-1.5-.777a4.916,4.916,0,0,0-4.988,2.37c-2.431,3.85,1.393,7.365,1.393,7.365" transform="translate(-7.888 -259.666)"/>
              <path id="Path_1253" data-name="Path 1253" class="cls-5" d="M38.058,642.724l-.763.295L33.779,645.4l-.589-.348,2.136-3.261,1.366-.723" transform="translate(-11.638 -257.928)"/>
              <path id="Path_1254" data-name="Path 1254" class="cls-5" d="M34.592,639.746l-.824.629-1.868,2.9s-.884.208-.931-.415h0l.67-2.678.67-.951" transform="translate(-10.904 -257.32)"/>
              <path id="Path_1255" data-name="Path 1255" class="cls-5" d="M29.888,638.92l-.5.87-.67,2.96s-.583.67-.991.167l-.475-2.6.194-.891" transform="translate(-9.675 -257.218)"/>
              <path id="Path_1256" data-name="Path 1256" class="cls-5" d="M24.592,640.36l-.06.67.449,2.886s-.449.6-.837.489L22.8,642.268l-.234-.723" transform="translate(-8.129 -257.693)"/>
              <path id="Path_1257" data-name="Path 1257" class="cls-5" d="M20.33,643.59l.154.67,1.339,1.875s0,.891-.824.864l-2.25-1.567" transform="translate(-6.866 -258.761)"/>
              <path id="Path_1258" data-name="Path 1258" class="cls-5" d="M16.991,648.29l2.357,1.292s.67,1.044-.368,1.185L16,650.011" transform="translate(-5.958 -260.314)"/>
              <path id="Path_1259" data-name="Path 1259" class="cls-5" d="M15.321,653.714l2.819-.154s1.245.449.208,1.158L15,656.057" transform="translate(-5.627 -262.055)"/>
              <path id="Path_1260" data-name="Path 1260" class="cls-5" d="M16,660.877l.8-1.065,2.417-2.069s.516-1.132-.475-.944a14.8,14.8,0,0,0-3.348,1.882" transform="translate(-5.76 -263.118)"/>
              <path id="Path_1261" data-name="Path 1261" class="cls-5" d="M19.375,664.921l.067-1.252a2.6,2.6,0,0,1,.422-1.2c.362-.489,1.172-1.748,1.172-1.748s.475-1.607-1-.951l-1.948,2.317-.629,1.132" transform="translate(-6.44 -264.056)"/>
              <path id="Path_1262" data-name="Path 1262" class="cls-5" d="M24.377,666.663,24,665.458a3.027,3.027,0,0,1,.074-1.62l.489-1.728s-.254-1.078-1.132-.408l-.937,1.8a3.282,3.282,0,0,0-.442,1.232l-.054,1.2" transform="translate(-7.94 -264.673)"/>
              <path id="Path_1263" data-name="Path 1263" class="cls-5" d="M30.386,666.647l-.67-.964a2.484,2.484,0,0,1-.422-1.393L29,662" transform="translate(-10.253 -264.844)"/>
              <path id="Path_1264" data-name="Path 1264" class="cls-5" d="M27.253,662l-.723,2.933.569,1.935" transform="translate(-9.437 -264.844)"/>
              <path id="Path_1265" data-name="Path 1265" class="cls-5" d="M35.072,664.346l-.937-.783L32.38,660.77" transform="translate(-11.37 -264.437)"/>
              <path id="Path_1266" data-name="Path 1266" class="cls-5" d="M30.71,661.49l.576,3.16,1.446,1.132" transform="translate(-10.818 -264.675)"/>
              <path id="Path_1267" data-name="Path 1267" class="cls-5" d="M38.525,660.467l-1.071-.937-2.3-1.419" transform="translate(-12.285 -263.558)"/>
              <path id="Path_1268" data-name="Path 1268" class="cls-5" d="M33.71,659.71l1.58,2.189.837,1.245" transform="translate(-11.81 -264.087)"/>
              <path id="Path_1269" data-name="Path 1269" class="cls-5" d="M39.508,658.679l-.824-.616a5.4,5.4,0,0,0-1.125-.6,9.82,9.82,0,0,1-1.54-.837" transform="translate(-12.573 -263.069)"/>
              <path id="Path_1270" data-name="Path 1270" class="cls-5" d="M36.4,654.96l1.908.154,2.223.683" transform="translate(-12.698 -262.518)"/>
              <path id="Path_1271" data-name="Path 1271" class="cls-5" d="M41.109,653.672,39.06,653.2l-2.29-.067" transform="translate(-12.821 -261.913)"/>
              <path id="Path_1272" data-name="Path 1272" class="cls-5" d="M36.4,651.235l3.127-.978,1.406-.067" transform="translate(-12.698 -260.941)"/>
              <path id="Path_1273" data-name="Path 1273" class="cls-5" d="M40.586,648.02l-1.48.181-3.087,1.1" transform="translate(-12.573 -260.224)"/>
              <path id="Path_1274" data-name="Path 1274" class="cls-5" d="M35.38,647.627l2.511-1.989,1.547-.368" transform="translate(-12.361 -259.316)"/>
              <path id="Path_1275" data-name="Path 1275" class="cls-5" d="M209.46,685.5h.589v11.008h-.5" transform="translate(-69.882 -272.609)"/>
              <path id="Path_1276" data-name="Path 1276" class="cls-5" d="M177.233,685.87h-.583v11h.5" transform="translate(-59.041 -272.731)"/>
              <path id="Path_1277" data-name="Path 1277" class="cls-5" d="M280,576.44s-.047,1.507,3.85,1.594,3.515-1.386,3.515-1.386" transform="translate(-93.19 -236.573)"/>
              <line id="Line_218" data-name="Line 218" class="cls-5" y2="6.528" transform="translate(186.743 340.035)"/>
              <path id="Path_1278" data-name="Path 1278" class="cls-5" d="M289.742,576.82l.127,3.971a14.262,14.262,0,0,0-3.609,3.6" transform="translate(-95.259 -236.698)"/>
              <path id="Path_1279" data-name="Path 1279" class="cls-5" d="M278.376,580.22a8.72,8.72,0,0,0-2.846,3.515" transform="translate(-91.713 -237.822)"/>
              <path id="Path_1280" data-name="Path 1280" class="cls-5" d="M291.65,577.5l10.633,3.937s3.18,1.506,3.93,7.031" transform="translate(-97.04 -236.923)"/>
              <path id="Path_1281" data-name="Path 1281" class="cls-5" d="M291.65,582.006s2.866-1.882,5.671-1.44" transform="translate(-97.04 -237.914)"/>
              <path id="Path_1282" data-name="Path 1282" class="cls-5" d="M295.59,588.676s1.8-2.678,4.687-2.491a6.026,6.026,0,0,1,5.437,4.687" transform="translate(-98.342 -239.79)"/>
              <line id="Line_219" data-name="Line 219" class="cls-5" x2="0.167" y2="1.634" transform="translate(198.755 347.588)"/>
              <path id="Path_1283" data-name="Path 1283" class="cls-5" d="M299.695,586.86l-.355.911.1,1.694" transform="translate(-99.581 -240.016)"/>
              <path id="Path_1284" data-name="Path 1284" class="cls-5" d="M301.622,586.44l-.623.817-.629,2.176" transform="translate(-99.921 -239.877)"/>
              <path id="Path_1285" data-name="Path 1285" class="cls-5" d="M303.386,586.66l-.817.944-.609,2.089" transform="translate(-100.446 -239.949)"/>
              <path id="Path_1286" data-name="Path 1286" class="cls-5" d="M302.63,590.112l1.045-1.647,1.272-1" transform="translate(-100.668 -240.214)"/>
              <path id="Path_1287" data-name="Path 1287" class="cls-5" d="M306.553,588.48l-1.419.951-.884,1.225" transform="translate(-101.203 -240.551)"/>
              <path id="Path_1288" data-name="Path 1288" class="cls-5" d="M305.56,591.689l1.245-.978,1.272-.3" transform="translate(-101.636 -241.189)"/>
              <path id="Path_1289" data-name="Path 1289" class="cls-5" d="M307.87,592.512l.562-.335,1-.067" transform="translate(-102.399 -241.75)"/>
              <path id="Path_1290" data-name="Path 1290" class="cls-5" d="M278.5,609a7.468,7.468,0,0,0,5.638,2.009" transform="translate(-92.695 -247.331)"/>
              <path id="Path_1291" data-name="Path 1291" class="cls-5" d="M282.21,609.52s.362,1.259,3.073,1.734a12.46,12.46,0,0,0,6.609,2.872,6.5,6.5,0,0,0,5.946-2.009" transform="translate(-93.92 -247.503)"/>
              <path id="Path_1292" data-name="Path 1292" class="cls-5" d="M288.55,610.73s1.112,2.19,5.27,3.857" transform="translate(-96.015 -247.903)"/>
              <path id="Path_1293" data-name="Path 1293" class="cls-5" d="M285.76,610.08a5.578,5.578,0,0,0,.67,1.339" transform="translate(-95.093 -247.688)"/>
              <path id="Path_1294" data-name="Path 1294" class="cls-5" d="M105.645,582.115c.107-1.721-1.225-4.687-1.225-4.687l.167-3.013s.335,1.587,4.131,1.393,3.093-1.667,3.093-1.667l.281,4.346a6.333,6.333,0,0,1-.422,2.471" transform="translate(-35.174 -235.813)"/>
              <path id="Path_1295" data-name="Path 1295" class="cls-5" d="M100.053,576.28l-6.14.583s-2.732.864-2.538,7.7" transform="translate(-30.86 -236.52)"/>
              <path id="Path_1296" data-name="Path 1296" class="cls-5" d="M98.156,583.846s0-5.41-2.986-6.7" transform="translate(-32.118 -236.807)"/>
              <path id="Path_1297" data-name="Path 1297" class="cls-5" d="M115.88,574.944l1.058-.114s2.678.67,3.207,5.3" transform="translate(-38.961 -236.041)"/>
              <path id="Path_1298" data-name="Path 1298" class="cls-5" d="M103.485,578.227a6.656,6.656,0,0,0-1.895-1.567" transform="translate(-34.239 -236.645)"/>
              <path id="Path_1299" data-name="Path 1299" class="cls-5" d="M95.788,585.253s-.1-3.261-2.069-4.379-2.009,5.109-2.009,5.109" transform="translate(-30.974 -237.993)"/>
              <path id="Path_1300" data-name="Path 1300" class="cls-5" d="M92.8,582.5l1.419.67a2.444,2.444,0,0,1,.824,1.259c.154.737.295,1.56.295,1.56" transform="translate(-31.334 -238.575)"/>
              <path id="Path_1301" data-name="Path 1301" class="cls-5" d="M92,585.94a3.248,3.248,0,0,1,2.109.743l.221.556" transform="translate(-31.07 -239.712)"/>
              <path id="Path_1302" data-name="Path 1302" class="cls-5" d="M95.34,608.947s.723,1.48,1.754,1.674a24.544,24.544,0,0,0,4.546-.362,6.876,6.876,0,0,0,1.259-2.23" transform="translate(-32.174 -247.011)"/>
              <path id="Path_1303" data-name="Path 1303" class="cls-5" d="M100.058,608.6a2.719,2.719,0,0,1-1.908,2.23" transform="translate(-33.102 -247.199)"/>
              <path id="Path_1304" data-name="Path 1304" class="cls-5" d="M111.8,606.844a2.96,2.96,0,0,0,2.009,2.009l3.964-.321s1.895-1.259,1.788-2.571" transform="translate(-37.613 -246.327)"/>
              <path id="Path_1305" data-name="Path 1305" class="cls-5" d="M116.721,606.53s-.281,2.062-1.841,2.564" transform="translate(-38.63 -246.515)"/>
              <path id="Path_1306" data-name="Path 1306" class="cls-5" d="M55.55,386.36s5.658,2.437,7.667,10.325,7.553,15.26,7.553,15.26" transform="translate(-19.026 -173.765)"/>
              <path id="Path_1307" data-name="Path 1307" class="cls-5" d="M81,427.88s4.854,6.569,8.664,5.819,4.513,5.062,4.513,5.062" transform="translate(-27.435 -187.484)"/>
              <path id="Path_1308" data-name="Path 1308" class="cls-5" d="M58,397.11s2.176,25.611,23.71,31.356" transform="translate(-19.836 -177.317)"/>
              <path id="Path_1309" data-name="Path 1309" class="cls-5" d="M93.3,436.69l-1.674,2.457,1.058,2.23s2.511,6.642-.556,9.374l1,1.9" transform="translate(-30.948 -190.396)"/>
              <path id="Path_1310" data-name="Path 1310" class="cls-5" d="M39,444.94a4.339,4.339,0,0,0,3.348,2.678c2.451.281,32.361,5.859,32.361,5.859" transform="translate(-13.558 -193.122)"/>
              <path id="Path_1311" data-name="Path 1311" class="cls-5" d="M38.355,404.11s-.114,3.736,0,6.414.891,12.889.891,12.889.281,8.484,6.589,9.709,29.629,5.209,29.629,5.209" transform="translate(-13.328 -179.63)"/>
              <path id="Path_1312" data-name="Path 1312" class="cls-5" d="M197.21,475.07s5.022-.167,7.955,6.361,7.225,8.035,7.225,8.035a7.653,7.653,0,0,0,6.7-1.205l3.4-11.383" transform="translate(-65.834 -203.077)"/>
              <line id="Line_220" data-name="Line 220" class="cls-5" x1="5.149" y2="0.964" transform="translate(134.851 280.316)"/>
              <path id="Path_1313" data-name="Path 1313" class="cls-5" d="M177.13,501.368l21.339-2.27s5.859-6.609-1.882-10.378" transform="translate(-59.199 -207.588)"/>
              <path id="Path_1314" data-name="Path 1314" class="cls-5" d="M180.43,512.221a5.624,5.624,0,0,0,2.116-3.08c.415-1.928,19.833-11.383,19.833-11.383s4.352-2.431,6.194-2.431,10.633-2.089,10.633-2.089l37.034-5.738" transform="translate(-60.29 -207.184)"/>
              <path id="Path_1315" data-name="Path 1315" class="cls-5" d="M246.732,501.26l-24.654,4.1-18.119,7.948,1.714,2.933,4.439-.71" transform="translate(-68.065 -211.731)"/>
              <line id="Line_221" data-name="Line 221" class="cls-5" y1="7.238" x2="4.774" transform="translate(154.268 286.261)"/>
              <path id="Path_1316" data-name="Path 1316" class="cls-5" d="M214.65,522.287l8.8-3.16,7.894-2.866s6.026-1.627,7.7-1.794,2.471-.254,2.638.08" transform="translate(-71.597 -216.046)"/>
              <path id="Path_1317" data-name="Path 1317" class="cls-5" d="M228.09,520.9s10.84-.208,12.762-1.714" transform="translate(-76.038 -217.656)"/>
              <path id="Path_1318" data-name="Path 1318" class="cls-5" d="M206.02,516.74l17.288-7.78,23.348-3.77" transform="translate(-68.745 -213.03)"/>
              <path id="Path_1319" data-name="Path 1319" class="cls-5" d="M293.152,476.765s11.825-1.788,20.141-2.009c0,0,2.732-.335,3.629.777,0,0,5.464,6.361,6.026,11.664,0,0,.837,2.123-.837,3.234s-14.624,0-24.332-5.912l-8.979,1.245" transform="translate(-96.098 -202.958)"/>
              <path id="Path_1320" data-name="Path 1320" class="cls-5" d="M321.541,477.44s-18.025,4.3-19.136,5.417-1.788,1.279-.9,2.4" transform="translate(-100.161 -203.86)"/>
              <path id="Path_1321" data-name="Path 1321" class="cls-5" d="M125.8,501.22l12.159,13.391s1,1.446,4.017.944,8.818-2.511,10.881-4.908" transform="translate(-42.239 -211.718)"/>
              <path id="Path_1322" data-name="Path 1322" class="cls-5" d="M128.63,503.742s22.6-.4,25.665.609c0,0,1.453.114,1.453.616a17.522,17.522,0,0,1-.335,2.062" transform="translate(-43.174 -212.526)"/>
              <path id="Path_1323" data-name="Path 1323" class="cls-5" d="M295.8,309.943s35.427-.763,49.488,1.634c0,0,5.919,3.683,9.039,3.743s10.378-.4,10.378-.4" transform="translate(-98.411 -148.477)"/>
              <line id="Line_222" data-name="Line 222" class="cls-5" x1="12.488" y2="0.328" transform="translate(246.877 162.772)"/>
              <path id="Path_1324" data-name="Path 1324" class="cls-5" d="M287,312.82l55.072,1.252a18.119,18.119,0,0,0,6.863,1.8" transform="translate(-95.503 -149.466)"/>
              <path id="Path_1325" data-name="Path 1325" class="cls-5" d="M59.65,385.32s5.062,1.379,6.95,5.6S71.575,404,71.575,404h2.176l1.634,2.531" transform="translate(-20.381 -173.422)"/>
              <path id="Path_1326" data-name="Path 1326" class="cls-5" d="M182.73,531.73s9.809,3.776,18.822,0" transform="translate(-61.05 -221.799)"/>
              <path id="Path_1327" data-name="Path 1327" class="cls-5" d="M182.73,531.78s10.713,3.843,18.869,0" transform="translate(-61.05 -221.816)"/>
              <path id="Path_1328" data-name="Path 1328" class="cls-5" d="M64.8,324.546l47.593,3.85a90.714,90.714,0,0,0,10.211.335c5.022-.167,20.422-.723,20.422-.723s3.281-.268,1.64-4.1" transform="translate(-22.083 -153.13)"/>
              <path id="Path_1329" data-name="Path 1329" class="cls-5" d="M75,318.07l45.886,3.348s5.9.221,9.97.167,14.784-.67,14.784-.67" transform="translate(-25.453 -151.2)"/>
            </g>
          </g>
          <path id="Path_1330" data-name="Path 1330" class="cls-5" d="M124.91,430.581s17.911,6.194,32.307,8.986a239.72,239.72,0,0,0,34.369,4.3c9.374.5,33.981-.194,41.681-.616s77.845-11.122,82.605-12.3c3.381-.75,3.1-3.348,3.1-3.348s3.937-1.419,5.524-3.261c1.928-1.252,2.344-15.568,2.344-15.568s.087-15.481-.583-20.335-6.528-8.283-6.528-8.283-10.519-3.569-15.648-4.185c-3.79-.455-31.738-.542-49.723.5-6.354.368-11.47.877-13.833,1.56-9.039,2.625-13.833,5.049-14.644,6.14a20.35,20.35,0,0,0-1.734,4.439s-21.929,1.674-26.529,1.928-22.484,2.4-22.484,2.4-14.6-5.424-24.553-5.745c-10.211-.335-25.544.335-25.544.335" transform="translate(-41.944 -124.793)"/>
          <path id="Path_1331" data-name="Path 1331" class="cls-5" d="M231.333,452.536S236.241,435.9,234.9,426.3s-2.23-11.57-7.144-14.49S200.62,401.36,200.62,401.36" transform="translate(-66.961 -133.288)"/>
          <path id="Path_1332" data-name="Path 1332" class="cls-5" d="M94.1,397.11s-3.676.261-10.82,4.1" transform="translate(-28.189 -131.884)"/>
          <path id="Path_1333" data-name="Path 1333" class="cls-5" d="M273.11,395s22.183,1.841,26.281,2.263,55.662-2.256,62.773.5,7.955,2.765,10.131,7.452-1.024,24.453-3.529,28.464" transform="translate(-90.914 -131.187)"/>
          <path id="Path_1334" data-name="Path 1334" class="cls-5" d="M273.68,391.353s6.649-3.348,10.579-3.509,21.982.321,31.972.5c11.724.214,29.629-.5,38,2.176s11.644,3.77,12.38,6.515" transform="translate(-91.102 -128.812)"/>
          <path id="Path_1335" data-name="Path 1335" class="cls-5" d="M414.29,399.122s6.14-3.643,7.2-6.642" transform="translate(-137.563 -130.354)"/>
          <path id="Path_1336" data-name="Path 1336" class="cls-5" d="M125.61,397.11s28.042,2.846,36.746,4.687,33.151,11.162,42.525,9.849" transform="translate(-42.176 -131.884)"/>
          <path id="Path_1337" data-name="Path 1337" class="cls-5" d="M199.9,401.45s12.28,5.557,12.113,9.026" transform="translate(-66.723 -133.318)"/>
          <path id="Path_1338" data-name="Path 1338" class="cls-5" d="M206.24,400.992s47.848-3.81,52.957-4.982" transform="translate(-68.818 -131.521)"/>
          <path id="Path_1339" data-name="Path 1339" class="cls-5" d="M392.74,387.147s-5.47-6.488-16.739-8.383-25.1-1.634-28.845-1.841c-4.017-.221-18.246-.562-18.246-.562" transform="translate(-109.351 -125.028)"/>
          <path id="Path_1340" data-name="Path 1340" class="cls-5" d="M38.626,194.721s2.3-62.411.67-69.776-5.1-37.831-1.674-46.535S58.151,57.766,61.5,54.867s7.144-12.722,6.917-18.748S71.616,7.1,75.56,4.649,87.157.631,92.969,1.073s30.05,3.77,30.05,3.77,12.809,1.426,15.735,11.383,11.972,38.668,18.835,43.355,24.774,13.057,24.774,13.057,12.642,8.2,15.655,14.731c3.85,7.285.5,18.246.5,18.246l-9.876,18.413s-4.6,15.152-2.009,22.933,16.07,33.4,19.672,39.592,11.2,21.252,11.2,21.252" transform="translate(-12.621 -0.999)"/>
          <path id="Path_1341" data-name="Path 1341" class="cls-5" d="M303.033,332.88s-5.711,23.716-16.873,33.532" transform="translate(-95.226 -110.661)"/>
          <path id="Path_1342" data-name="Path 1342" class="cls-4" d="M65.056,251.663S51.35,166.942,49.863,161.585,37.737,119.4,38.367,116.61" transform="translate(-13.339 -39.2)"/>
          <path id="Path_1343" data-name="Path 1343" class="cls-5" d="M79.92,337.59s1.165,32.14-.67,38.434" transform="translate(-26.857 -112.217)"/>
          <path id="Path_1344" data-name="Path 1344" class="cls-5" d="M65.413,85.11l2.524,1.681s-7.593,5.8-8.812,8.477-2.611,6.14-1.138,14.51,15.869,63.5,15.969,66.395c-2.123,4.238-10.09,19.465-10.09,19.465" transform="translate(-19.622 -28.791)"/>
          <path id="Path_1345" data-name="Path 1345" class="cls-5" d="M95.322,301.87s-7.144-23.837-7.921-31.43c-5.156,6.917.114,24.051,1.788,31.892" transform="translate(-28.821 -90.029)"/>
          <line id="Line_223" data-name="Line 223" class="cls-5" x2="4.325" y2="33.197" transform="translate(54.335 147.883)"/>
          <path id="Path_1346" data-name="Path 1346" class="cls-5" d="M73.15,87.61s7.78,10.044,8.189,12.836" transform="translate(-24.842 -29.617)"/>
          <path id="Path_1347" data-name="Path 1347" class="cls-5" d="M99.515,97.74l-10.84,3.093s-4.1,1.507-4.6,5.276.529,10.325,6.475,11.831" transform="translate(-28.415 -32.965)"/>
          <path id="Path_1348" data-name="Path 1348" class="cls-5" d="M100.818,102.68l-10.653,3.562a4.325,4.325,0,0,0-2.384,4.453c.295,3.348,1.841,5.357,3.388,5.544s9.642-3.093,9.642-3.093" transform="translate(-29.664 -34.597)"/>
          <line id="Line_224" data-name="Line 224" class="cls-5" y1="1.875" x2="4.064" transform="translate(67.452 82.693)"/>
          <line id="Line_225" data-name="Line 225" class="cls-5" x1="12.555" y2="13.137" transform="translate(144.031 65.78)"/>
          <path id="Path_1349" data-name="Path 1349" class="cls-5" d="M203.2,109.62s8.336,1.908,8.644,7.031c.254,4.145-.462,5.9-2.678,8.035" transform="translate(-67.813 -36.89)"/>
          <path id="Path_1350" data-name="Path 1350" class="cls-5" d="M203.55,114.19s5.1.87,5.484,3.509-.335,4.982-.917,5.357" transform="translate(-67.929 -38.4)"/>
          <path id="Path_1351" data-name="Path 1351" class="cls-5" d="M84.325,120.86s-5.1,7.981-5.055,15.681,6.622,32.7,7.064,36.492.221,39.056,1.225,47.2,6.957,32.14,6.957,32.14" transform="translate(-26.864 -40.604)"/>
          <path id="Path_1352" data-name="Path 1352" class="cls-5" d="M215.42,127.43s11.7,8.5,13.017,10.948,5.665,6.475,3.348,11.831-14.51,30.017-14.51,30.017" transform="translate(-71.851 -42.775)"/>
          <line id="Line_226" data-name="Line 226" class="cls-5" y1="6.247" x2="15.233" transform="translate(57.816 118.368)"/>
          <path id="Path_1353" data-name="Path 1353" class="cls-5" d="M116.2,173.015s17.268-5.47,28.316-4.466,32.7,10.211,32.7,10.211" transform="translate(-39.066 -56.321)"/>
          <line id="Line_227" data-name="Line 227" class="cls-5" x2="6.964" y2="2.484" transform="translate(143.569 124.508)"/>
          <path id="Path_1354" data-name="Path 1354" class="cls-5" d="M92.86,122.355l26.7,87.333h4.687l-26.843-88.5" transform="translate(-31.354 -40.713)"/>
          <path id="Path_1355" data-name="Path 1355" class="cls-5" d="M260.737,118.86s5.6,7.867,3.93,15.233-7.533,19.357-12.722,27.339-7.867,20.757-7.031,23.636c2.19,3,19.572,20.214,19.572,20.214" transform="translate(-81.547 -39.943)"/>
          <path id="Path_1356" data-name="Path 1356" class="cls-5" d="M220.36,235.47s6.81,3.026,10.044,13.572" transform="translate(-73.484 -78.474)"/>
          <path id="Path_1357" data-name="Path 1357" class="cls-5" d="M245.5,218.4s8.276,25.256,12.876,30.131,15.152,27.58,15.989,32.106" transform="translate(-81.791 -72.834)"/>
          <path id="Path_1358" data-name="Path 1358" class="cls-5" d="M265.61,355.823s14.315-19.418,16.492-33" transform="translate(-88.435 -107.337)"/>
          <path id="Path_1359" data-name="Path 1359" class="cls-5" d="M264,369.226s22.183-18.494,23.944-44.346" transform="translate(-87.903 -108.017)"/>
          <path id="Path_1360" data-name="Path 1360" class="cls-5" d="M264.74,263.36s12.052,3.268,21.761,31.209" transform="translate(-88.148 -87.69)"/>
          <path id="Path_1361" data-name="Path 1361" class="cls-6" d="M104.082,296.067l-3.8-29.153s-1.225-12.608,5.357-12.5c3.9-1.058,6.475-.891,10.044-1.058s76.526,1.928,76.526,1.928,6.281-.8,7.2.924c0,0,6.615,20.757,8.035,26.2s4.52,32.227,4.017,39.17-1.011,24.774-2.638,27.158" transform="translate(-33.778 -84.381)"/>
          <path id="Path_1362" data-name="Path 1362" class="cls-6" d="M112.759,254s-.067,6.093.824,9.22,6.7,32.776,6.7,32.776" transform="translate(-37.929 -84.597)"/>
          <line id="Line_228" data-name="Line 228" class="cls-6" x1="0.629" y1="28.644" transform="translate(85.175 233.97)"/>
          <line id="Line_229" data-name="Line 229" class="cls-5" x2="6.24" y2="36.599" transform="translate(100.542 225.734)"/>
          <path id="Path_1363" data-name="Path 1363" class="cls-5" d="M123.32,253.36a40.357,40.357,0,0,1,4.908,6.7c1.788,3.294,6.582,11.61,8.035,17.409s3.683,19.418,3.683,19.418" transform="translate(-41.419 -84.385)"/>
          <path id="Path_1364" data-name="Path 1364" class="cls-5" d="M229.5,256.14s-1.681,8.7-1.848,11.383,1.674,18.078,2.765,24.607,2.6,20.228,1.928,25.183-6.026,23.522-11.972,34.577" transform="translate(-73.487 -85.304)"/>
          <line id="Line_230" data-name="Line 230" class="cls-5" x2="0.254" transform="translate(90.217 160.083)"/>
          <path id="Path_1365" data-name="Path 1365" class="cls-5" d="M90.66,199.634h3.622l2.759-5.524h5.725l2.685,5.752h3.013" transform="translate(-30.627 -64.808)"/>
          <path id="Path_1366" data-name="Path 1366" class="cls-5" d="M123.5,197.94l1.908-3.83h5.732l2.685,5.752H140.4" transform="translate(-41.479 -64.808)"/>
          <path id="Path_1367" data-name="Path 1367" class="cls-5" d="M148.66,199.862h.054l2.531-5.752h5.725l2.692,5.752h5.792" transform="translate(-49.792 -64.808)"/>
          <path id="Path_1368" data-name="Path 1368" class="cls-5" d="M196.479,194.338H192.83l-1.928,5.524h-6.24l-2.692-5.752h-5.725l-2.531,5.752h-.054" transform="translate(-58.053 -64.808)"/>
          <path id="Path_1369" data-name="Path 1369" class="cls-5" d="M129.934,187.822h-6.575l-2.692-5.752H118.23" transform="translate(-39.737 -60.829)"/>
          <path id="Path_1370" data-name="Path 1370" class="cls-5" d="M135.63,187.822h.054l2.531-5.752h5.725l2.692,5.752h5.792" transform="translate(-45.487 -60.829)"/>
          <path id="Path_1371" data-name="Path 1371" class="cls-5" d="M160.63,187.822h.054l2.531-5.752h5.725l2.692,5.752h6.234L179.8,182.3h.362l5.865.094,2.611,5.578h3.649" transform="translate(-53.747 -60.829)"/>
          <line id="Line_231" data-name="Line 231" class="cls-5" x1="5.082" transform="translate(85.115 143.33)"/>
          <path id="Path_1372" data-name="Path 1372" class="cls-5" d="M135.63,212.225h.054l2.531-5.745h5.725l2.692,5.745h5.792" transform="translate(-45.487 -68.895)"/>
          <path id="Path_1373" data-name="Path 1373" class="cls-5" d="M102.933,212.225H96.365l-2.692-5.745H90.66" transform="translate(-30.627 -68.895)"/>
          <path id="Path_1374" data-name="Path 1374" class="cls-5" d="M108.92,212.225h.047l2.531-5.745h3.656" transform="translate(-36.661 -68.895)"/>
          <path id="Path_1375" data-name="Path 1375" class="cls-5" d="M160.63,212.225h.054l2.531-5.745h5.725l2.692,5.745h6.234L179.8,206.7h.362l5.865.094,2.611,5.584h3.649" transform="translate(-53.747 -68.895)"/>
          <path id="Path_1376" data-name="Path 1376" class="cls-5" d="M136.12,237.245l2.591-5.745h6.8l2.692,5.745h5.792" transform="translate(-45.649 -77.162)"/>
          <path id="Path_1377" data-name="Path 1377" class="cls-5" d="M104.386,237.245H97.817L95.125,231.5H90.8" transform="translate(-30.674 -77.162)"/>
          <path id="Path_1378" data-name="Path 1378" class="cls-5" d="M111.01,237.245h.054l2.531-5.745h7.024" transform="translate(-37.352 -77.162)"/>
          <path id="Path_1379" data-name="Path 1379" class="cls-5" d="M162.73,237.245h.054l2.531-5.745h5.725l2.692,5.745h6.234l1.935-5.524h.362l5.865.094,2.611,5.584h3.649" transform="translate(-54.441 -77.162)"/>
          <path id="Path_1380" data-name="Path 1380" class="cls-5" d="M90.66,224.594h3.622l2.759-5.524h5.725l2.685,5.745h8.182" transform="translate(-30.627 -73.055)"/>
          <path id="Path_1381" data-name="Path 1381" class="cls-5" d="M129.34,219.07h3.73l2.685,5.745h6.575" transform="translate(-43.408 -73.055)"/>
          <path id="Path_1382" data-name="Path 1382" class="cls-5" d="M148.66,224.815h.054l2.531-5.745h5.725l2.692,5.745h5.792" transform="translate(-49.792 -73.055)"/>
          <path id="Path_1383" data-name="Path 1383" class="cls-5" d="M198.736,219.291H192.83l-1.928,5.524h-6.24l-2.692-5.745h-5.725l-2.531,5.745h-.054" transform="translate(-58.053 -73.055)"/>
          <path id="Path_1384" data-name="Path 1384" class="cls-5" d="M90.8,250.284h5.343L98.9,244.76h5.732l2.685,5.745h8.175" transform="translate(-30.674 -81.544)"/>
          <path id="Path_1385" data-name="Path 1385" class="cls-5" d="M137.55,244.76h.04l2.692,5.745h6.575" transform="translate(-46.121 -81.544)"/>
          <path id="Path_1386" data-name="Path 1386" class="cls-5" d="M151.37,250.5h.054l2.531-5.745h5.725l2.692,5.745h5.792" transform="translate(-50.688 -81.544)"/>
          <path id="Path_1387" data-name="Path 1387" class="cls-5" d="M200.923,244.981H195.54L193.6,250.5h-6.234l-2.692-5.745h-5.725l-2.531,5.745h-.054" transform="translate(-58.948 -81.544)"/>
          <path id="Path_1388" data-name="Path 1388" class="cls-5" d="M124.97,250.379l2.712-6h.931" transform="translate(-41.964 -81.418)"/>
          <path id="Path_1389" data-name="Path 1389" class="cls-5" d="M117.25,175.3h2.785l.462-1.714" transform="translate(-39.413 -58.027)"/>
          <path id="Path_1390" data-name="Path 1390" class="cls-5" d="M135.11,169.959l2.21,4.1h6.361l2.511-5.343" transform="translate(-45.315 -56.418)"/>
          <path id="Path_1391" data-name="Path 1391" class="cls-5" d="M160.74,168.88l2.176,5.571,6.475.408L171,171.3" transform="translate(-53.784 -56.471)"/>
          <path id="Path_1392" data-name="Path 1392" class="cls-5" d="M96.89,183.2l1.962,4.238h6.307l1.607-3.455" transform="translate(-32.686 -61.203)"/>
          <path id="Path_1393" data-name="Path 1393" class="cls-5" d="M188.8,176.7l.71,1.2,3.247.027" transform="translate(-63.055 -59.055)"/>
          <path id="Path_1394" data-name="Path 1394" class="cls-5" d="M90.8,256.61h4.647l2.638,2.4" transform="translate(-30.674 -85.459)"/>
          <line id="Line_232" data-name="Line 232" class="cls-5" x2="5.337" transform="translate(61.506 185.172)"/>
          <line id="Line_233" data-name="Line 233" class="cls-5" x2="5.337" transform="translate(61.887 187.348)"/>
        </g>
      </g>
    </g>
  </g>
</svg>
