<svg xmlns="http://www.w3.org/2000/svg" xmlns:xlink="http://www.w3.org/1999/xlink" viewBox="0 0 208.639 206.734">
  <defs>
    <style>
      .cls-1, .cls-2, .cls-4 {
        fill: #fff;
      }

      .cls-1, .cls-4, .cls-5, .cls-6 {
        stroke: #707070;
      }

      .cls-3 {
        clip-path: url(#clip-path);
      }

      .cls-4, .cls-5, .cls-6 {
        stroke-miterlimit: 10;
      }

      .cls-5, .cls-6 {
        fill: none;
      }

      .cls-6 {
        stroke-width: 2px;
      }
    </style>
    <clipPath id="clip-path">
      <ellipse id="Ellipse_2" data-name="Ellipse 2" class="cls-1" cx="104.319" cy="103.367" rx="104.319" ry="103.367" transform="translate(64 1945)"/>
    </clipPath>
  </defs>
  <g id="Group_378" data-name="Group 378" transform="translate(-737.688 -1039.865)">
    <g id="Group_377" data-name="Group 377">
      <path id="Ellipse_2-2" data-name="Ellipse 2" class="cls-2" d="M104.319,0c49.317,0,91.106,35.17,102.056,81.039a91.7,91.7,0,0,1,2.263,22.328c0,57.088-46.705,103.367-104.319,103.367S0,160.455,0,103.367,46.705,0,104.319,0Z" transform="translate(737.688 1039.865)"/>
      <g id="rodinha" class="cls-3" transform="translate(673.688 -905.135)">
        <g id="Rhino_Diagonal" data-name="Rhino Diagonal" transform="translate(48.31 1662.136)">
          <g id="Camada_1" data-name="Camada 1">
            <g id="Camada_2" data-name="Camada 2">
              <g id="diagonal">
                <path id="Path_738" data-name="Path 738" class="cls-4" d="M295.3,477.53l-.92,8.66a7.619,7.619,0,0,1-1.92,2.67c-1.33,1.17-24,12.42-24,12.42l-2,5.16L255,510.11l1.08,3.83s-.17,1.67-8.83,4.92l.91,32.5-4.5,3.67s-7.33,2.66-18.75,1.75L219,553l-2.42-26.17-2.75-.5-.75-2.83L211,527.86s-18.41,5.5-30.08-1.17l-3.75-19.08-8.5,1.08s0,10.59-13.67,15.34l-6.33,1.41s-1.08.84-5.5-1.16-16.58-10.84-16.58-10.84-4.67.17-4.17-8.25a4.81,4.81,0,0,1,3.08-4.16l77.42-12.09,3.5-8.16"/>
                <path id="Path_739" data-name="Path 739" class="cls-4" d="M214.59,566.07l47.87-6.69a4.93,4.93,0,0,1,2.5-1.81c1.38-.25,18.57-2.5,18.57-2.5h6.12a4,4,0,0,1,2.44,2.25l1.25,2.18,1.56,3.13.81,12.81s-4.06,1.81-12.62,1.19c0,0-5.25-.56-6.25-2.13L253.78,581l67.87,14.88,1.44-.88,41.31,9.13.44,1.37a3.43,3.43,0,0,1,2.69,2.07l1.18,18.93-7.62,2.32-9.94-1.5s-2.87-.63-3.87-2.88v-4.69L230.84,601.44s-19.38-1.81-22.13,4.81L205,662.82l-10.63,2.06-12.19-2.25.75-56.63s1.19-6.43-20.25-5.43L44.09,616v4s.12,2.32-3.88,3.38a66.889,66.889,0,0,1-10.37,1.44l-7.38-2.75,1.44-17.25s0-2.88,2.63-3.5l1.06-1.5,42-8,1.06,1.12L140,579.5l-21.32-6.87s-1.62,2.62-12.5,1.81c0,0-5.62-.56-6.43-1.81l.87-12L104.5,553s1.25-1.31,4.12-1.12l19.88,3a13.109,13.109,0,0,1,5.06,2.56l44.81,8"/>
                <path id="Path_740" data-name="Path 740" class="cls-4" d="M203.4,529.75a13.28,13.28,0,0,1,7.5,1.94l.38,4.75a2.29,2.29,0,0,1,1.06,1.13l.19,3.31a3.82,3.82,0,0,1,1.37,1.37l.69,27.57c1.12,1.68.62,2.62.62,2.62-3.25,4.56-18,4.56-18,4.56-17.87-.12-19.18-4.5-19.37-5.81a1.71,1.71,0,0,1,.94-1.81v-3.63s.56-22.31.62-23.37,1.38-1.31,1.38-1.31l.37-3.69c0-.63,1.13-.75,1.13-.75l.37-4.69c.44-1.31,6.06-2.19,6.06-2.19V531a29.12,29.12,0,0,0,14.69,0Z"/>
                <path id="Path_741" data-name="Path 741" class="cls-4" d="M318.71,376.86V340.94a6.62,6.62,0,0,0-2-4.12c-1.87-1.75-20-14-20-14h-10.5v-6.25s-.87-4.75,4.5-6.13,89-1.5,95.88.88a69.378,69.378,0,0,1,10.62,4.5s2.63,2,3,3.62a13.74,13.74,0,0,1,0,4.13s-4.62,1.37-20.62,1.37l-14.31-.06-18.07,12.06a6.43,6.43,0,0,0-2.56,4.69c-.31,3.25-.56,34-.56,34"/>
                <path id="Path_742" data-name="Path 742" class="cls-4" d="M99.55,460.61l-1.84.83L46,452.61s-4.17.67-6.84-8l-2-31.33s0-8.17,1.17-11.34l-.83-6.33s-.42-3.33,1-5.42,9-12.83,9-12.83a5.38,5.38,0,0,0,.5-3.17c-.17-2.16-2-15.75-2-15.75L32.8,301.28a4.66,4.66,0,0,1,.33-3.92l2.33-3.67"/>
                <path id="Path_743" data-name="Path 743" class="cls-5" d="M35.46,293.69a6.39,6.39,0,0,1,4.38-3.37c3.37-.88,11.19-1,11.19-1s4.31,2.5,6.93,4.37l15.75,89.42-3.75.5.42,2.17s7.25,2.58,11.25,13.16a148.412,148.412,0,0,0,7.25,16.59l1.9-.9s2.21-.13,2.21.59a9,9,0,0,1-1,2.57l7.81,1.87.66,14.5.15,10.38a4.57,4.57,0,0,0,1.44,1v4.68s-1.94-.06-1.69,1-1.12,9.19-1.12,9.19"/>
                <path id="Path_744" data-name="Path 744" class="cls-5" d="M100.38,433.94l-4.5.34s-2.92.33-4.13-2.09-6-1.21-6-1.21L86,417.69l1.63-.33,5.24.66"/>
                <path id="Path_745" data-name="Path 745" class="cls-5" d="M88.88,415.53l-8.63,2.7,5.5,1"/>
                <path id="Path_746" data-name="Path 746" class="cls-5" d="M85.59,428.05l-7.35-.61.38-9.12"/>
                <path id="Path_747" data-name="Path 747" class="cls-5" d="M38.38,401.94,41,416.69s1.08,9.67,9.25,9.34,6-15.92,6-15.92L54,391.44s-.67-5.16,2.66-5.75l13.17-2.33"/>
                <path id="Path_748" data-name="Path 748" class="cls-5" d="M54.44,400.22l-2.31-13.73L57,372.83,46.88,294.44s-3-4.19-6-4.35"/>
                <path id="Path_749" data-name="Path 749" class="cls-5" d="M66.21,383.61a48.42,48.42,0,0,1-8.75-25.67c-.5-15-6.43-68.62-6.43-68.62"/>
                <line id="Line_144" data-name="Line 144" class="cls-5" x2="71.44" y2="5.44" transform="translate(74.4 332.88)"/>
                <path id="Path_750" data-name="Path 750" class="cls-5" d="M138,343.78l-14.37.54a69.77,69.77,0,0,1-10.38-.54c-4.62-.71-29-3-29-3"/>
                <line id="Line_145" data-name="Line 145" class="cls-5" x1="69.07" y1="2.06" transform="translate(296.21 322.82)"/>
                <path id="Path_751" data-name="Path 751" class="cls-5" d="M307.34,330.22,336,331s7.55.25,10.46,0,9.79-.3,9.79-.3"/>
                <path id="Path_752" data-name="Path 752" class="cls-6" d="M170.88,470.11,136.3,475l-.34,2-13.25,2.75s-17.58,3.08-24.33-2.67l2-26s6.58,4.49,21.92,2.57c0,0,2.91-1.08.66-2.08v-4l.84-.83,2.2-92.81s1-3.33,2.16-3.5,17.94-12.12,17.94-12.12l40.06-1.44v-8.44s.07-4.06-4.62-6.19c0,0-47.81-7.31-72.63-5.18l-34,1-8.5,5s-3.25.81-2.81,8.06l10.75,1.75,21.19,17.07s2.44.69,2.25,6.25l2.54,65"/>
                <path id="Path_753" data-name="Path 753" class="cls-5" d="M110.76,74.12s-7.32,25.45-1,67.32c0,0,3.06,11.31,8,11.83a13.53,13.53,0,0,0,8.27-1.68s10.35-9.8,22.51-11S173.28,137,189.81,152c0,0,7.78,6.83,13,3.1,0,0,2.26.32,4.3-3.23,0,0-2.12-14.21-2-22.65,0,0-3-25.66-1.95-30.68a54.751,54.751,0,0,0,1-10.2S202,76.68,191.74,78c0,0-8.12,1.93-12.7,6s-25.72,5.24-45.34-7.17c0,0-7.88-5.91-8.47-6.15S117.1,65,110.76,74.12Z"/>
                <path id="Path_754" data-name="Path 754" class="cls-5" d="M116.2,152.51s22.11-20.24,27.95-42.16c3-11.27-1.3-23.47-10.82-33.58"/>
                <path id="Path_755" data-name="Path 755" class="cls-5" d="M110.1,78.17s1.68,64.53,2.1,69.62"/>
                <path id="Path_756" data-name="Path 756" class="cls-5" d="M181.82,81.95s10.93-3.48,14.73,15.57,9.62,45.3,7.86,56.34L214,255.57l8.33.17L209.69,127.43h-3.86"/>
                <path id="Path_757" data-name="Path 757" class="cls-5" d="M124.05,452.61l1.41,14.75,18.93-3"/>
                <path id="Path_758" data-name="Path 758" class="cls-5" d="M181.59,537.36s17.21,7.21,30.12,0"/>
                <path id="Path_759" data-name="Path 759" class="cls-5" d="M180.13,541.69s1,5.42,17.62,5.17,15.55-5.58,15.55-5.58"/>
                <path id="Path_760" data-name="Path 760" class="cls-5" d="M102.25,557.94s-.16,1,.55,1.21,17.66,4.21,17.66,4.21a2.3,2.3,0,0,0,1.67-.54,50.394,50.394,0,0,0,2.46-4.5s1-1.92,2.29-1.5l6.29.66"/>
                <path id="Path_761" data-name="Path 761" class="cls-5" d="M262.67,559.53a6.319,6.319,0,0,0,2.29-.25c1.21-.38,4-1.3,5.46.5a7.79,7.79,0,0,1,1.63,3.54,2.22,2.22,0,0,0,2.29,2.15h.29c2.37-.37,18.12-3.12,18.12-3.12s1.17-.46,1-1.5"/>
                <path id="Path_762" data-name="Path 762" class="cls-5" d="M365.15,605.88s-2.19.06-4,4.31a3.27,3.27,0,0,1-3.44,2.06l-39.12-8.12s-1.75-.06-1.5-2.13c0,0,.44-2.75,1.25-3.12a25.366,25.366,0,0,0,3.25-2.75"/>
                <path id="Path_763" data-name="Path 763" class="cls-5" d="M184.9,644.44l4.19-2.69a3.12,3.12,0,0,1,2.5-.68c1.75.12,4.25.12,4.25.12a4.53,4.53,0,0,1,3.12.88l4.19,3,1.69-18.25L204.4,625s-1.81-3.25-4.87-3.87l-8.07-.25a6.46,6.46,0,0,0-3.93,1.44,24.118,24.118,0,0,0-2.82,2.68l-.18,19.82Z"/>
                <path id="Path_764" data-name="Path 764" class="cls-5" d="M26.53,601.32s2.37,1.06,4,5.06a3.37,3.37,0,0,0,4.06,1.84c3.12-.62,38.62-6.25,38.62-6.25s1.5-.56,1.32-1.81-.44-3.19-.44-3.19l-2.25-2.75-1.44-1.31"/>
                <path id="Path_765" data-name="Path 765" class="cls-5" d="M24.59,602.38l6.25,7.5-.69,14.92"/>
                <path id="Path_766" data-name="Path 766" class="cls-5" d="M31.21,609.88,158,589.94s17.5-2.5,26,4.34l-1.17,53.33"/>
                <line id="Line_146" data-name="Line 146" class="cls-5" x1="1.91" y2="44.24" transform="translate(199.8 576.79)"/>
                <line id="Line_147" data-name="Line 147" class="cls-5" y2="43.99" transform="translate(190.71 576.79)"/>
                <path id="Path_767" data-name="Path 767" class="cls-5" d="M366.96,606.7l-6.87,8.37.25,13.25"/>
                <path id="Path_768" data-name="Path 768" class="cls-5" d="M359.46,615.07l-129.25-25s-18-3.63-22.25,4l-4.25,51"/>
                <line id="Line_148" data-name="Line 148" class="cls-5" x1="104.85" y1="24.09" transform="translate(212.21 574.82)"/>
                <line id="Line_149" data-name="Line 149" class="cls-5" x1="38.94" y1="8.93" transform="translate(214.84 572.07)"/>
                <line id="Line_150" data-name="Line 150" class="cls-5" y1="9.51" x2="55.88" transform="translate(214.84 560.18)"/>
                <line id="Line_151" data-name="Line 151" class="cls-5" y1="13" x2="61.37" transform="translate(232.59 562.88)"/>
                <path id="Path_769" data-name="Path 769" class="cls-5" d="M277.09,574.5l11.5-3.28s2-.81,2.87.44"/>
                <line id="Line_152" data-name="Line 152" class="cls-5" y1="7.59" x2="37.42" transform="translate(139.96 571.69)"/>
                <line id="Line_153" data-name="Line 153" class="cls-5" x1="57.91" y1="14.5" transform="translate(101.05 560.53)"/>
                <path id="Path_770" data-name="Path 770" class="cls-5" d="M118.46,572.61l-11.83-3.92s-2.33-.66-2.92.17"/>
                <path id="Path_771" data-name="Path 771" class="cls-5" d="M186.71,663.82v7.56l.94.87.25,33.63h11.5v-34l1.25-.63.12-7.43"/>
                <path id="Path_772" data-name="Path 772" class="cls-5" d="M186.9,664.75s7.63,4.38,13.63,0"/>
                <path id="Path_773" data-name="Path 773" class="cls-5" d="M200.65,671.22l6.19.13s2.37-.13,2.37,1.94.13,41.5.13,41.5-.13,1.81-1.19,1.81l-7.37.06s-1.75-1.19-1.63-5.56a31.312,31.312,0,0,0,0-4.88"/>
                <path id="Path_774" data-name="Path 774" class="cls-5" d="M186.71,671.38h-6.62s-2.13-.44-2.13,2.25-.12,41.31-.12,41.31,0,1.88,2.31,1.88h6.56a1.48,1.48,0,0,0,1.13-.88c.25-.75.06-10.06.06-10.06"/>
                <path id="Path_775" data-name="Path 775" class="cls-5" d="M345.21,659.28s-3.33-13.09,7.34-19.34,22.75,2.92,25.33,8.09,9.28,19.57-4.25,27.33S346.3,666.78,345.21,659.28Z"/>
                <path id="Path_776" data-name="Path 776" class="cls-5" d="M351.15,627.57s.5,2.43,5.88,2.62,6.37-.06,7.12-2.06"/>
                <line id="Line_154" data-name="Line 154" class="cls-5" y2="13.13" transform="translate(351.15 628.19)"/>
                <path id="Path_777" data-name="Path 777" class="cls-5" d="M364.55,628.22v5.54s-9.84.63-13.13,6.59"/>
                <path id="Path_778" data-name="Path 778" class="cls-5" d="M364.75,631.94a13.2,13.2,0,0,1,9.75-.37c5.63,1.83,10.42,4.33,14.75,13.79a18.58,18.58,0,0,1-.87,17.25,30,30,0,0,1-10.09,9"/>
                <path id="Path_779" data-name="Path 779" class="cls-5" d="M354.9,636.63s13.13-4.25,21.88,4.81,7.5,16.94,7.5,16.94,0,6.94-4.13,11.87"/>
                <path id="Path_780" data-name="Path 780" class="cls-5" d="M364.9,632.94s9.63-1.31,16.44,5.88A25.28,25.28,0,0,1,388.4,654a19.17,19.17,0,0,1-6.57,14.88"/>
                <line id="Line_155" data-name="Line 155" class="cls-5" y1="2" x2="3.37" transform="translate(383.78 660.75)"/>
                <path id="Path_781" data-name="Path 781" class="cls-5" d="M348.5,657.53s-1.35-13,10.28-14.71S375.84,654,375.84,654s5.32,14.77-7.13,18.57C355.4,676.63,348.61,661.73,348.5,657.53Z"/>
                <path id="Path_782" data-name="Path 782" class="cls-5" d="M355.5,656.9a8.8,8.8,0,0,0,7,8.33c7.12,1.8,6.16-8.25,6.16-8.25s-1.62-5.79-7.37-6S355.5,656.9,355.5,656.9Z"/>
                <path id="Path_783" data-name="Path 783" class="cls-5" d="M359.22,651.22s1.49-1.25,2.24-1.16,4.68-.87,7.46,3.54c3.63,5.75-2.08,11-2.08,11"/>
                <path id="Path_784" data-name="Path 784" class="cls-5" d="M351.5,647.21l1.15.44,5.25,3.56.88-.52-3.19-4.87-2.04-1.09"/>
                <path id="Path_785" data-name="Path 785" class="cls-5" d="M355.59,643.71l1.23.94,2.79,4.33s1.31.31,1.39-.62h0l-1-4-1-1.42"/>
                <path id="Path_786" data-name="Path 786" class="cls-5" d="M360.78,642.59l.75,1.31,1,4.42s.87,1,1.48.25l.7-3.94-.29-1.33"/>
                <path id="Path_787" data-name="Path 787" class="cls-5" d="M366.38,644l.08,1-.66,4.31s.66.89,1.25.73l2-3.19.35-1.08"/>
                <path id="Path_788" data-name="Path 788" class="cls-5" d="M370.86,647.22l-.23,1-2,2.79s0,1.34,1.23,1.3l3.35-2.34"/>
                <path id="Path_789" data-name="Path 789" class="cls-5" d="M374.48,652,371,653.84s-1,1.56.54,1.77l4.48-1.08"/>
                <path id="Path_790" data-name="Path 790" class="cls-5" d="M376.48,657.46l-4.2-.23s-1.86.67-.32,1.73l5,2"/>
                <path id="Path_791" data-name="Path 791" class="cls-5" d="M375.67,666.57,374.46,665l-3.6-3.06s-.77-1.69.71-1.42,5,2.82,5,2.82"/>
                <path id="Path_792" data-name="Path 792" class="cls-5" d="M371.65,671.22l-.1-1.87a4,4,0,0,0-.63-1.79c-.54-.73-1.75-2.61-1.75-2.61s-.71-2.4,1.49-1.42l2.91,3.46.93,1.73"/>
                <path id="Path_793" data-name="Path 793" class="cls-5" d="M366.42,672.92l.54-1.83a4.47,4.47,0,0,0-.1-2.42l-.73-2.58s.37-1.61,1.69-.61l1.39,2.69a4.84,4.84,0,0,1,.67,1.83l.12,1.8"/>
                <path id="Path_794" data-name="Path 794" class="cls-5" d="M360.9,672.61l1-1.44a3.66,3.66,0,0,0,.62-2.08l.52-3.46"/>
                <path id="Path_795" data-name="Path 795" class="cls-5" d="M364.36,665.67l1.08,4.38-.85,2.89"/>
                <path id="Path_796" data-name="Path 796" class="cls-5" d="M355.57,669.77l1.39-1.16,2.63-4.17"/>
                <path id="Path_797" data-name="Path 797" class="cls-5" d="M361.25,665.16l-.85,4.72-2.17,1.69"/>
                <path id="Path_798" data-name="Path 798" class="cls-5" d="M351.78,665.3l1.6-1.4,3.44-2.13"/>
                <path id="Path_799" data-name="Path 799" class="cls-5" d="M358.25,663.38l-2.35,3.27-1.25,1.85"/>
                <path id="Path_800" data-name="Path 800" class="cls-5" d="M350.73,663.36l1.27-.92a8.284,8.284,0,0,1,1.69-.89A15.285,15.285,0,0,0,356,660.3"/>
                <path id="Path_801" data-name="Path 801" class="cls-5" d="M355.57,658.63l-2.86.23-3.31,1.02"/>
                <path id="Path_802" data-name="Path 802" class="cls-5" d="M348.71,657.61l3.07-.71,3.41-.1"/>
                <path id="Path_803" data-name="Path 803" class="cls-5" d="M355.57,655.42l-4.67-1.46-2.1-.1"/>
                <path id="Path_804" data-name="Path 804" class="cls-5" d="M349.13,651.69l2.21.27,4.6,1.65"/>
                <path id="Path_805" data-name="Path 805" class="cls-5" d="M356.59,652.46l-3.75-2.98-2.31-.54"/>
                <path id="Path_806" data-name="Path 806" class="cls-5" d="M46.75,655.61s3.34-13.09-7.33-19.34-22.75,3-25.33,8.09-9.29,19.57,4.25,27.33S45.67,663.11,46.75,655.61Z"/>
                <path id="Path_807" data-name="Path 807" class="cls-5" d="M40.82,623.9s-.5,2.44-5.88,2.62-6.37-.06-7.12-2.06"/>
                <line id="Line_156" data-name="Line 156" class="cls-5" y2="13.13" transform="translate(40.82 624.52)"/>
                <path id="Path_808" data-name="Path 808" class="cls-5" d="M27.42,624.52v5.54s9.83.63,13.13,6.59"/>
                <path id="Path_809" data-name="Path 809" class="cls-5" d="M27.21,628.27a13.19,13.19,0,0,0-9.75-.37C11.84,629.73,7,632.22,2.71,641.69a18.6,18.6,0,0,0,.88,17.25,29.92,29.92,0,0,0,10.09,9"/>
                <path id="Path_810" data-name="Path 810" class="cls-5" d="M37.07,633S24,628.71,15.19,637.77s-7.5,16.94-7.5,16.94,0,6.94,4.13,11.88"/>
                <path id="Path_811" data-name="Path 811" class="cls-5" d="M27.07,629.27s-9.63-1.31-16.44,5.88a25.32,25.32,0,0,0-7.06,15.19,19.17,19.17,0,0,0,6.56,14.88"/>
                <line id="Line_157" data-name="Line 157" class="cls-5" x1="3.37" y1="2" transform="translate(4.82 657.09)"/>
                <path id="Path_812" data-name="Path 812" class="cls-5" d="M43.46,653.86s1.36-13-10.27-14.71-17.06,11.19-17.06,11.19-5.32,14.76,7.12,18.56C36.57,673,43.36,658.06,43.46,653.86Z"/>
                <path id="Path_813" data-name="Path 813" class="cls-5" d="M36.46,653.22a8.78,8.78,0,0,1-7,8.33c-7.12,1.8-6.17-8.25-6.17-8.25s1.63-5.79,7.38-6S36.46,653.22,36.46,653.22Z"/>
                <path id="Path_814" data-name="Path 814" class="cls-5" d="M32.74,647.52s-1.49-1.25-2.24-1.16-4.67-.87-7.45,3.54c-3.63,5.75,2.08,11,2.08,11"/>
                <path id="Path_815" data-name="Path 815" class="cls-5" d="M40.46,643.54l-1.14.44-5.25,3.56-.88-.52,3.19-4.87,2.04-1.08"/>
                <path id="Path_816" data-name="Path 816" class="cls-5" d="M36.38,640l-1.23.94-2.79,4.33s-1.32.31-1.39-.62h0l1-4,1-1.42"/>
                <path id="Path_817" data-name="Path 817" class="cls-5" d="M31.19,638.92l-.75,1.3-1,4.42s-.87,1-1.48.25L27.25,641l.29-1.33"/>
                <path id="Path_818" data-name="Path 818" class="cls-5" d="M25.59,640.36l-.09,1,.67,4.31s-.67.89-1.25.73l-2-3.19-.35-1.08"/>
                <path id="Path_819" data-name="Path 819" class="cls-5" d="M21.11,643.59l.23,1,2,2.8s0,1.33-1.23,1.29l-3.36-2.34"/>
                <path id="Path_820" data-name="Path 820" class="cls-5" d="M17.48,648.29,21,650.22s1,1.56-.55,1.77L16,650.86"/>
                <path id="Path_821" data-name="Path 821" class="cls-5" d="M15.48,653.79l4.21-.23s1.86.67.31,1.73l-5,2"/>
                <path id="Path_822" data-name="Path 822" class="cls-5" d="M16.3,662.9l1.2-1.59,3.61-3.09s.77-1.69-.71-1.41-5,2.81-5,2.81"/>
                <path id="Path_823" data-name="Path 823" class="cls-5" d="M20.32,667.54l.1-1.87a3.89,3.89,0,0,1,.63-1.79c.54-.73,1.75-2.61,1.75-2.61s.71-2.4-1.49-1.42l-2.91,3.46L17.46,665"/>
                <path id="Path_824" data-name="Path 824" class="cls-5" d="M25.55,669.22l-.56-1.8A4.52,4.52,0,0,1,25.1,665l.73-2.58s-.38-1.61-1.69-.61l-1.4,2.69a4.9,4.9,0,0,0-.66,1.84L22,668.13"/>
                <path id="Path_825" data-name="Path 825" class="cls-5" d="M31.07,668.94l-1-1.44a3.711,3.711,0,0,1-.63-2.08L29,662"/>
                <path id="Path_826" data-name="Path 826" class="cls-5" d="M27.61,662l-1.08,4.38.85,2.89"/>
                <path id="Path_827" data-name="Path 827" class="cls-5" d="M36.4,666.11,35,664.94l-2.62-4.17"/>
                <path id="Path_828" data-name="Path 828" class="cls-5" d="M30.71,661.49l.86,4.72,2.16,1.69"/>
                <path id="Path_829" data-name="Path 829" class="cls-5" d="M40.19,661.63l-1.6-1.4-3.44-2.12"/>
                <path id="Path_830" data-name="Path 830" class="cls-5" d="M33.71,659.71l2.36,3.27,1.25,1.86"/>
                <path id="Path_831" data-name="Path 831" class="cls-5" d="M41.23,659.69,40,658.77a8.067,8.067,0,0,0-1.68-.89,14.663,14.663,0,0,1-2.3-1.25"/>
                <path id="Path_832" data-name="Path 832" class="cls-5" d="M36.4,654.96l2.85.23,3.32,1.02"/>
                <path id="Path_833" data-name="Path 833" class="cls-5" d="M43.25,653.94l-3.06-.71-3.42-.1"/>
                <path id="Path_834" data-name="Path 834" class="cls-5" d="M36.4,651.75l4.67-1.46,2.1-.1"/>
                <path id="Path_835" data-name="Path 835" class="cls-5" d="M42.84,648.02l-2.21.27-4.61,1.65"/>
                <path id="Path_836" data-name="Path 836" class="cls-5" d="M35.38,648.79l3.75-2.97,2.31-.55"/>
                <path id="Path_837" data-name="Path 837" class="cls-5" d="M209.46,685.5h.88v16.44h-.75"/>
                <path id="Path_838" data-name="Path 838" class="cls-5" d="M177.52,685.87h-.87V702.3h.75"/>
                <path id="Path_839" data-name="Path 839" class="cls-5" d="M280,576.44s-.07,2.25,5.75,2.38,5.25-2.07,5.25-2.07"/>
                <line id="Line_158" data-name="Line 158" class="cls-5" y2="9.75" transform="translate(279.9 576.69)"/>
                <path id="Path_840" data-name="Path 840" class="cls-5" d="M291.46,576.82l.19,5.93a21.3,21.3,0,0,0-5.39,5.37"/>
                <path id="Path_841" data-name="Path 841" class="cls-5" d="M279.78,580.22s-3.25,2.32-4.25,5.25"/>
                <path id="Path_842" data-name="Path 842" class="cls-5" d="M291.65,577.5l15.88,5.88s4.75,2.25,5.87,10.5"/>
                <path id="Path_843" data-name="Path 843" class="cls-5" d="M291.65,582.75s4.28-2.81,8.47-2.15"/>
                <path id="Path_844" data-name="Path 844" class="cls-5" d="M295.59,589.91s2.69-4,7-3.72a9,9,0,0,1,8.12,7"/>
                <line id="Line_159" data-name="Line 159" class="cls-5" x2="0.25" y2="2.44" transform="translate(297.84 587.97)"/>
                <path id="Path_845" data-name="Path 845" class="cls-5" d="M299.87,586.86l-.53,1.36.15,2.53"/>
                <path id="Path_846" data-name="Path 846" class="cls-5" d="M302.24,586.44l-.93,1.22-.94,3.25"/>
                <path id="Path_847" data-name="Path 847" class="cls-5" d="M304.09,586.66l-1.22,1.41-.91,3.12"/>
                <path id="Path_848" data-name="Path 848" class="cls-5" d="M302.63,591.42l1.56-2.46,1.9-1.5"/>
                <path id="Path_849" data-name="Path 849" class="cls-5" d="M307.69,588.48l-2.12,1.42-1.32,1.83"/>
                <path id="Path_850" data-name="Path 850" class="cls-5" d="M305.56,592.32l1.86-1.46,1.9-.45"/>
                <path id="Path_851" data-name="Path 851" class="cls-5" d="M307.87,592.71l.84-.5,1.49-.1"/>
                <path id="Path_852" data-name="Path 852" class="cls-5" d="M278.5,609s2.75,3.12,8.42,3"/>
                <path id="Path_853" data-name="Path 853" class="cls-5" d="M282.21,609.52s.54,1.88,4.59,2.59a18.61,18.61,0,0,0,9.87,4.29c6.08.71,8.88-3,8.88-3"/>
                <path id="Path_854" data-name="Path 854" class="cls-5" d="M288.55,610.73s1.66,3.27,7.87,5.76"/>
                <path id="Path_855" data-name="Path 855" class="cls-5" d="M285.76,610.08a8.331,8.331,0,0,0,1,2"/>
                <path id="Path_856" data-name="Path 856" class="cls-5" d="M106.25,586.05c.16-2.57-1.83-7-1.83-7l.25-4.5s.5,2.37,6.17,2.08,4.62-2.49,4.62-2.49l.42,6.49a9.459,9.459,0,0,1-.63,3.69"/>
                <path id="Path_857" data-name="Path 857" class="cls-5" d="M104.34,576.28l-9.17.87s-4.08,1.29-3.79,11.5"/>
                <path id="Path_858" data-name="Path 858" class="cls-5" d="M99.63,587.15s0-8.08-4.46-10"/>
                <path id="Path_859" data-name="Path 859" class="cls-5" d="M115.88,575l1.58-.17s4,1,4.79,7.92"/>
                <path id="Path_860" data-name="Path 860" class="cls-5" d="M104.42,579a9.94,9.94,0,0,0-2.83-2.34"/>
                <path id="Path_861" data-name="Path 861" class="cls-5" d="M97.8,587.48s-.15-4.87-3.09-6.54-3,7.63-3,7.63"/>
                <path id="Path_862" data-name="Path 862" class="cls-5" d="M92.8,582.5l2.12,1a3.65,3.65,0,0,1,1.23,1.88c.23,1.1.44,2.33.44,2.33"/>
                <path id="Path_863" data-name="Path 863" class="cls-5" d="M92,585.94s2.19,0,3.15,1.11l.33.83"/>
                <path id="Path_864" data-name="Path 864" class="cls-5" d="M95.34,609.4s1.08,2.21,2.62,2.5,6.79-.54,6.79-.54a10.269,10.269,0,0,0,1.88-3.33"/>
                <path id="Path_865" data-name="Path 865" class="cls-5" d="M101,608.6a4.06,4.06,0,0,1-2.85,3.33"/>
                <path id="Path_866" data-name="Path 866" class="cls-5" d="M111.8,607.28a4.42,4.42,0,0,0,3,3l5.92-.48s2.83-1.88,2.67-3.84"/>
                <path id="Path_867" data-name="Path 867" class="cls-5" d="M117.63,606.53s-.42,3.08-2.75,3.83"/>
                <path id="Path_868" data-name="Path 868" class="cls-5" d="M55.55,386.36S64,390,67,401.78s11.28,22.79,11.28,22.79"/>
                <path id="Path_869" data-name="Path 869" class="cls-5" d="M81,427.88s7.25,9.81,12.94,8.69,6.74,7.56,6.74,7.56"/>
                <path id="Path_870" data-name="Path 870" class="cls-5" d="M58,397.11s3.25,38.25,35.41,46.83"/>
                <path id="Path_871" data-name="Path 871" class="cls-5" d="M94.13,436.69l-2.5,3.67,1.58,3.33s3.75,9.92-.83,14l1.5,2.84"/>
                <path id="Path_872" data-name="Path 872" class="cls-5" d="M39,444.94a6.48,6.48,0,0,0,5,4c3.66.42,48.33,8.75,48.33,8.75"/>
                <path id="Path_873" data-name="Path 873" class="cls-5" d="M38.38,404.11s-.17,5.58,0,9.58,1.33,19.25,1.33,19.25.42,12.67,9.84,14.5,44.25,7.78,44.25,7.78"/>
                <path id="Path_874" data-name="Path 874" class="cls-5" d="M197.21,475.07s7.5-.25,11.88,9.5,10.79,12,10.79,12a11.43,11.43,0,0,0,10-1.8l5.08-17"/>
                <line id="Line_160" data-name="Line 160" class="cls-5" x1="7.69" y2="1.44" transform="translate(202.4 487.5)"/>
                <path id="Path_875" data-name="Path 875" class="cls-5" d="M177.13,507.61,209,504.22s8.75-9.87-2.81-15.5"/>
                <path id="Path_876" data-name="Path 876" class="cls-5" d="M180.43,524.42a8.4,8.4,0,0,0,3.16-4.6c.62-2.88,29.62-17,29.62-17s6.5-3.63,9.25-3.63,15.88-3.12,15.88-3.12l55.31-8.57"/>
                <path id="Path_877" data-name="Path 877" class="cls-5" d="M267.84,501.26l-36.82,6.12-27.06,11.87,2.56,4.38,6.63-1.06"/>
                <line id="Line_161" data-name="Line 161" class="cls-5" y1="10.81" x2="7.13" transform="translate(231.4 496.38)"/>
                <path id="Path_878" data-name="Path 878" class="cls-5" d="M214.65,526.22l13.15-4.72,11.79-4.28s9-2.43,11.5-2.68,3.69-.38,3.94.12"/>
                <path id="Path_879" data-name="Path 879" class="cls-5" d="M228.09,521.75s16.19-.31,19.06-2.56"/>
                <path id="Path_880" data-name="Path 880" class="cls-5" d="M206.02,522.44l25.82-11.62,34.87-5.63"/>
                <path id="Path_881" data-name="Path 881" class="cls-5" d="M295.3,477.78s17.66-2.67,30.08-3c0,0,4.08-.5,5.42,1.16,0,0,8.16,9.5,9,17.42,0,0,1.25,3.17-1.25,4.83s-21.84,0-36.34-8.83l-13.41,1.86"/>
                <path id="Path_882" data-name="Path 882" class="cls-5" d="M331.63,477.44s-26.92,6.42-28.58,8.09-2.67,1.91-1.34,3.58"/>
                <path id="Path_883" data-name="Path 883" class="cls-5" d="M125.8,501.22l18.16,20s1.5,2.16,6,1.41,13.17-3.75,16.25-7.33"/>
                <path id="Path_884" data-name="Path 884" class="cls-5" d="M128.63,503.78s33.75-.59,38.33.91c0,0,2.17.17,2.17.92a26.171,26.171,0,0,1-.5,3.08"/>
                <path id="Path_885" data-name="Path 885" class="cls-5" d="M295.8,310s52.91-1.14,73.91,2.44c0,0,8.84,5.5,13.5,5.59s15.5-.59,15.5-.59"/>
                <line id="Line_162" data-name="Line 162" class="cls-5" x1="18.65" y2="0.49" transform="translate(369.71 311.95)"/>
                <path id="Path_886" data-name="Path 886" class="cls-5" d="M287,312.82l82.25,1.87a27.059,27.059,0,0,0,10.25,2.69"/>
                <path id="Path_887" data-name="Path 887" class="cls-5" d="M59.65,385.32s7.56,2.06,10.38,8.37,7.43,19.53,7.43,19.53h3.25L83.15,417"/>
                <path id="Path_888" data-name="Path 888" class="cls-5" d="M182.73,531.73s14.65,5.64,28.11,0"/>
                <path id="Path_889" data-name="Path 889" class="cls-5" d="M182.73,531.78s16,5.74,28.18,0"/>
                <path id="Path_890" data-name="Path 890" class="cls-5" d="M64.8,324.86l71.08,5.75a135.477,135.477,0,0,0,15.25.5c7.5-.25,30.5-1.08,30.5-1.08s4.9-.4,2.45-6.12"/>
                <path id="Path_891" data-name="Path 891" class="cls-5" d="M75,318.07l68.53,5s8.81.33,14.89.25,22.08-1,22.08-1"/>
              </g>
            </g>
            <path id="Path_892" data-name="Path 892" class="cls-5" d="M124.91,457.69s26.75,9.25,48.25,13.42a358.013,358.013,0,0,0,51.33,6.42c14,.75,50.75-.29,62.25-.92S403,460,410.11,458.24c5.05-1.12,4.63-5,4.63-5s5.88-2.12,8.25-4.87c2.88-1.87,3.5-23.25,3.5-23.25s.13-23.12-.87-30.37-9.75-12.37-9.75-12.37-15.71-5.33-23.37-6.25c-5.66-.68-47.4-.81-74.26.75-9.49.55-17.13,1.31-20.66,2.33-13.5,3.92-20.66,7.54-21.87,9.17s-2.59,6.63-2.59,6.63-32.75,2.5-39.62,2.88-33.58,3.58-33.58,3.58-21.8-8.1-36.67-8.58c-15.25-.5-38.15.5-38.15.5"/>
            <path id="Path_893" data-name="Path 893" class="cls-5" d="M246.49,477.79s7.33-24.85,5.33-39.18-3.33-17.28-10.67-21.64-40.53-15.61-40.53-15.61"/>
            <path id="Path_894" data-name="Path 894" class="cls-5" d="M99.44,397.11s-5.49.39-16.16,6.13"/>
            <path id="Path_895" data-name="Path 895" class="cls-5" d="M273.11,395s33.13,2.75,39.25,3.38,83.13-3.37,93.75.75,11.88,4.13,15.13,11.13-1.53,36.52-5.27,42.51"/>
            <path id="Path_896" data-name="Path 896" class="cls-5" d="M273.68,393.1s9.93-5,15.8-5.24,32.83.48,47.75.75c17.51.32,44.25-.75,56.75,3.25s17.39,5.63,18.49,9.73"/>
            <path id="Path_897" data-name="Path 897" class="cls-5" d="M414.29,402.4s9.17-5.44,10.75-9.92"/>
            <path id="Path_898" data-name="Path 898" class="cls-5" d="M125.61,397.11s41.88,4.25,54.88,7S230,420.78,244,418.82"/>
            <path id="Path_899" data-name="Path 899" class="cls-5" d="M199.9,401.45s18.34,8.3,18.09,13.48"/>
            <path id="Path_900" data-name="Path 900" class="cls-5" d="M206.24,403.45s71.46-5.69,79.09-7.44"/>
            <path id="Path_901" data-name="Path 901" class="cls-5" d="M424.24,392.47s-8.17-9.69-25-12.52-37.49-2.44-43.08-2.75c-6-.33-27.25-.84-27.25-.84"/>
            <path id="Path_902" data-name="Path 902" class="cls-5" d="M39.84,290.32s3.43-93.21,1-104.21-7.61-56.5-2.5-69.5S69,85.78,74,81.45s10.67-19,10.33-28S89.11,10.11,95,6.45s17.32-6,26-5.34,44.88,5.63,44.88,5.63,19.13,2.13,23.5,17,17.88,57.75,28.13,64.75,37,19.5,37,19.5,18.88,12.25,23.38,22c5.75,10.88.75,27.25.75,27.25l-14.75,27.5s-6.87,22.63-3,34.25,24,49.88,29.38,59.13S307,309.86,307,309.86"/>
            <path id="Path_903" data-name="Path 903" class="cls-5" d="M311.36,332.88s-8.53,35.42-25.2,50.08"/>
            <path id="Path_904" data-name="Path 904" class="cls-4" d="M78.24,318.31S57.77,191.78,55.55,183.78s-18.11-63-17.17-67.17"/>
            <path id="Path_905" data-name="Path 905" class="cls-5" d="M80.25,337.59s1.74,48-1,57.4"/>
            <path id="Path_906" data-name="Path 906" class="cls-5" d="M69.39,85.11l3.77,2.51S61.82,96.28,60,100.28s-3.9,9.17-1.7,21.67S82,216.78,82.15,221.11c-3.17,6.33-15.07,29.07-15.07,29.07"/>
            <path id="Path_907" data-name="Path 907" class="cls-5" d="M100.32,317.38s-10.67-35.6-11.83-46.94c-7.7,10.33.17,35.92,2.67,47.63"/>
            <line id="Line_163" data-name="Line 163" class="cls-5" x2="6.46" y2="49.58" transform="translate(82.15 221.86)"/>
            <path id="Path_908" data-name="Path 908" class="cls-5" d="M73.15,87.61s11.62,15,12.23,19.17"/>
            <path id="Path_909" data-name="Path 909" class="cls-5" d="M107.19,97.74,91,102.36s-6.12,2.25-6.87,7.88.79,15.42,9.67,17.67"/>
            <path id="Path_910" data-name="Path 910" class="cls-5" d="M107.27,102.68,91.36,108a6.46,6.46,0,0,0-3.56,6.65c.44,5,2.75,8,5.06,8.28s14.4-4.62,14.4-4.62"/>
            <line id="Line_164" data-name="Line 164" class="cls-5" y1="2.8" x2="6.07" transform="translate(101.74 124.5)"/>
            <line id="Line_165" data-name="Line 165" class="cls-5" x1="18.75" y2="19.62" transform="translate(216.11 99.24)"/>
            <path id="Path_911" data-name="Path 911" class="cls-5" d="M203.2,109.62s12.45,2.85,12.91,10.5c.38,6.19-.69,8.81-4,12"/>
            <path id="Path_912" data-name="Path 912" class="cls-5" d="M203.55,114.19s7.62,1.3,8.19,5.24-.5,7.44-1.37,8"/>
            <path id="Path_913" data-name="Path 913" class="cls-5" d="M86.82,120.86s-7.61,11.92-7.55,23.42,9.89,48.83,10.55,54.5.33,58.33,1.83,70.5,10.39,48,10.39,48"/>
            <path id="Path_914" data-name="Path 914" class="cls-5" d="M215.42,127.43s17.48,12.69,19.44,16.35,8.46,9.67,5,17.67-21.67,44.83-21.67,44.83"/>
            <line id="Line_166" data-name="Line 166" class="cls-5" y1="9.33" x2="22.75" transform="translate(87.35 177.78)"/>
            <path id="Path_915" data-name="Path 915" class="cls-5" d="M116.2,175.28s25.79-8.17,42.29-6.67,48.83,15.25,48.83,15.25"/>
            <line id="Line_167" data-name="Line 167" class="cls-5" x2="10.4" y2="3.71" transform="translate(215.42 186.95)"/>
            <path id="Path_916" data-name="Path 916" class="cls-5" d="M92.86,122.93l39.88,130.43h7L99.65,121.19"/>
            <path id="Path_917" data-name="Path 917" class="cls-5" d="M268.62,118.86s8.37,11.75,5.87,22.75-11.25,28.91-19,40.83-11.75,31-10.5,35.3c3.27,4.48,29.23,30.19,29.23,30.19"/>
            <path id="Path_918" data-name="Path 918" class="cls-5" d="M220.36,235.47s10.17,4.52,15,20.27"/>
            <path id="Path_919" data-name="Path 919" class="cls-5" d="M245.5,218.4s12.36,37.72,19.23,45,22.63,41.19,23.88,47.95"/>
            <path id="Path_920" data-name="Path 920" class="cls-5" d="M265.61,372.11s21.38-29,24.63-49.29"/>
            <path id="Path_921" data-name="Path 921" class="cls-5" d="M264,391.11s33.13-27.62,35.76-66.23"/>
            <path id="Path_922" data-name="Path 922" class="cls-5" d="M264.74,263.36s18,4.88,32.5,46.61"/>
            <path id="Path_923" data-name="Path 923" class="cls-5" d="M106,317.15l-5.67-43.54s-1.83-18.83,8-18.67c5.83-1.58,9.67-1.33,15-1.58s114.29,2.88,114.29,2.88,9.38-1.19,10.75,1.38c0,0,9.88,31,12,39.13s6.75,48.13,6,58.5-1.51,37-3.94,40.56"/>
            <path id="Path_924" data-name="Path 924" class="cls-5" d="M112.76,254s-.1,9.1,1.23,13.77,10,48.95,10,48.95"/>
            <line id="Line_168" data-name="Line 168" class="cls-5" x1="0.94" y1="42.78" transform="translate(128.21 350.43)"/>
            <line id="Line_169" data-name="Line 169" class="cls-5" x2="9.32" y2="54.66" transform="translate(151.16 338.13)"/>
            <path id="Path_925" data-name="Path 925" class="cls-5" d="M123.32,253.36a60.271,60.271,0,0,1,7.33,10c2.67,4.92,9.83,17.34,12,26s5.5,29,5.5,29"/>
            <path id="Path_926" data-name="Path 926" class="cls-5" d="M234,256.14s-2.51,13-2.76,17,2.5,27,4.13,36.75,3.88,30.21,2.88,37.61-9,35.13-17.88,51.64"/>
            <line id="Line_170" data-name="Line 170" class="cls-5" x2="0.38" transform="translate(135.74 240.08)"/>
            <path id="Path_927" data-name="Path 927" class="cls-5" d="M90.66,202.36h5.41l4.12-8.25h8.55l4.01,8.59h4.5"/>
            <path id="Path_928" data-name="Path 928" class="cls-5" d="M123.5,199.83l2.85-5.72h8.56l4.01,8.59h9.82"/>
            <path id="Path_929" data-name="Path 929" class="cls-5" d="M148.66,202.7h.08l3.78-8.59h8.55l4.02,8.59h8.65"/>
            <path id="Path_930" data-name="Path 930" class="cls-5" d="M207.74,194.45h-5.45l-2.88,8.25h-9.32l-4.02-8.59h-8.55l-3.78,8.59h-.08"/>
            <path id="Path_931" data-name="Path 931" class="cls-5" d="M135.71,190.66h-9.82l-4.02-8.59h-3.64"/>
            <path id="Path_932" data-name="Path 932" class="cls-5" d="M135.63,190.66h.08l3.78-8.59h8.55l4.02,8.59h8.65"/>
            <path id="Path_933" data-name="Path 933" class="cls-5" d="M160.63,190.66h.08l3.78-8.59h8.55l4.02,8.59h9.31l2.89-8.25h.54l8.76.14,3.9,8.33h5.45"/>
            <line id="Line_171" data-name="Line 171" class="cls-5" x1="7.59" transform="translate(128.12 215.06)"/>
            <path id="Path_934" data-name="Path 934" class="cls-5" d="M135.63,215.06h.08l3.78-8.58h8.55l4.02,8.58h8.65"/>
            <path id="Path_935" data-name="Path 935" class="cls-5" d="M108.99,215.06H99.18l-4.02-8.58h-4.5"/>
            <path id="Path_936" data-name="Path 936" class="cls-5" d="M108.92,215.06h.07l3.78-8.58h5.46"/>
            <path id="Path_937" data-name="Path 937" class="cls-5" d="M160.63,215.06h.08l3.78-8.58h8.55l4.02,8.58h9.31l2.89-8.25h.54l8.76.14,3.9,8.34h5.45"/>
            <path id="Path_938" data-name="Path 938" class="cls-5" d="M136.12,240.08l3.87-8.58h10.15l4.02,8.58h8.65"/>
            <path id="Path_939" data-name="Path 939" class="cls-5" d="M111.09,240.08h-9.81l-4.02-8.58H90.8"/>
            <path id="Path_940" data-name="Path 940" class="cls-5" d="M111.01,240.08h.08l3.78-8.58h10.49"/>
            <path id="Path_941" data-name="Path 941" class="cls-5" d="M162.73,240.08h.08l3.78-8.58h8.55l4.02,8.58h9.31l2.89-8.25h.54l8.76.14,3.9,8.34h5.45"/>
            <path id="Path_942" data-name="Path 942" class="cls-5" d="M90.66,227.32h5.41l4.12-8.25h8.55l4.01,8.58h12.22"/>
            <path id="Path_943" data-name="Path 943" class="cls-5" d="M129.34,219.07h5.57l4.01,8.58h9.82"/>
            <path id="Path_944" data-name="Path 944" class="cls-5" d="M148.66,227.65h.08l3.78-8.58h8.55l4.02,8.58h8.65"/>
            <path id="Path_945" data-name="Path 945" class="cls-5" d="M211.11,219.4h-8.82l-2.88,8.25h-9.32l-4.02-8.58h-8.55l-3.78,8.58h-.08"/>
            <path id="Path_946" data-name="Path 946" class="cls-5" d="M90.8,253.01h7.98l4.11-8.25h8.56l4.01,8.58h12.21"/>
            <path id="Path_947" data-name="Path 947" class="cls-5" d="M137.55,244.76h.06l4.02,8.58h9.82"/>
            <path id="Path_948" data-name="Path 948" class="cls-5" d="M151.37,253.34h.08l3.78-8.58h8.55l4.02,8.58h8.65"/>
            <path id="Path_949" data-name="Path 949" class="cls-5" d="M213.04,245.09H205l-2.89,8.25H192.8l-4.02-8.58h-8.55l-3.78,8.58h-.08"/>
            <path id="Path_950" data-name="Path 950" class="cls-5" d="M124.97,253.34l4.05-8.96h1.39"/>
            <path id="Path_951" data-name="Path 951" class="cls-5" d="M117.25,176.15h4.16l.69-2.56"/>
            <path id="Path_952" data-name="Path 952" class="cls-5" d="M135.11,170.57l3.3,6.13h9.5l3.75-7.98"/>
            <path id="Path_953" data-name="Path 953" class="cls-5" d="M160.74,168.88l3.25,8.32,9.67.61,2.4-5.32"/>
            <path id="Path_954" data-name="Path 954" class="cls-5" d="M96.89,183.2l2.93,6.33h9.42l2.4-5.16"/>
            <path id="Path_955" data-name="Path 955" class="cls-5" d="M188.8,176.7l1.06,1.79,4.85.04"/>
            <path id="Path_956" data-name="Path 956" class="cls-5" d="M90.8,256.61h6.94l3.94,3.58"/>
            <line id="Line_172" data-name="Line 172" class="cls-5" x2="7.97" transform="translate(92.86 277.55)"/>
            <line id="Line_173" data-name="Line 173" class="cls-5" x2="7.97" transform="translate(93.43 280.8)"/>
          </g>
        </g>
      </g>
    </g>
  </g>
</svg>
