<svg xmlns="http://www.w3.org/2000/svg" xmlns:xlink="http://www.w3.org/1999/xlink" viewBox="0 0 192 192">
  <defs>
    <style>
      .cls-1, .cls-3, .cls-4 {
        fill: #fff;
      }

      .cls-1 {
        stroke: #707070;
      }

      .cls-2 {
        clip-path: url(#clip-path);
      }

      .cls-4, .cls-5, .cls-6, .cls-7, .cls-8 {
        stroke: #000;
        stroke-miterlimit: 10;
      }

      .cls-5, .cls-6, .cls-7, .cls-8 {
        fill: none;
      }

      .cls-6 {
        stroke-width: 0.75px;
      }

      .cls-7 {
        stroke-width: 0.25px;
      }

      .cls-8 {
        stroke-width: 0.5px;
      }
    </style>
    <clipPath id="clip-path">
      <circle id="Ellipse_2" data-name="Ellipse 2" class="cls-1" cx="96" cy="96" r="96" transform="translate(64 1945)"/>
    </clipPath>
  </defs>
  <g id="Mask_Group_11" data-name="Mask Group 11" class="cls-2" transform="translate(-64 -1945)">
    <g id="Group_113" data-name="Group 113" transform="translate(-521 -486)">
      <rect id="Rectangle_774" data-name="Rectangle 774" class="cls-3" width="382" height="630" transform="translate(464 2092)"/>
      <g id="Group_112" data-name="Group 112" transform="translate(497.503 2120.908)">
        <path id="Path_238" data-name="Path 238" class="cls-4" d="M262.448,480.8l-.732,7.074a6.784,6.784,0,0,1-1.545,2.2c-1.057.976-19.515,10.083-19.515,10.083l-1.626,4.228-9.27,3.009.894,3.09s-.163,1.382-7.156,3.984l.732,26.427-3.659,3.009s-5.936,2.2-15.287,1.464l-4.8-3.09-1.952-21.3-2.277-.407-.651-2.277-1.789,3.5s-14.962,4.472-24.476-.976l-3.09-15.531-6.912.894s0,8.619-11.14,12.441l-5.123,1.138s-.894.651-4.472-.976-13.5-8.782-13.5-8.782-3.822.163-3.415-6.668a3.992,3.992,0,0,1,2.521-3.415l62.937-9.839L190,483.4" transform="translate(-22.641 -89.736)"/>
        <path id="Path_239" data-name="Path 239" class="cls-4" d="M178.186,566.643l38.949-5.448a3.678,3.678,0,0,1,2.033-1.464c1.138-.163,15.124-2.033,15.124-2.033h4.96a3.078,3.078,0,0,1,1.952,1.87l1.057,1.789,1.3,2.521.65,10.408s-3.334,1.464-10.246.976c0,0-4.31-.488-5.123-1.708l-18.784,5.285,55.212,12.116,1.138-.732,33.583,7.4.325,1.138a2.858,2.858,0,0,1,2.2,1.708l.976,15.368-6.18,1.87-8.05-1.22a4.785,4.785,0,0,1-3.171-2.358v-3.822l-94.65-14.88s-15.775-1.464-17.97,3.9l-3.009,46.024-8.619,1.708-9.92-1.87.651-46.024s.976-5.2-16.507-4.391L39.545,607.3v3.253s.081,1.87-3.171,2.765a49.1,49.1,0,0,1-8.457,1.138L21.9,612.179l1.138-14.067a2.945,2.945,0,0,1,2.114-2.846l.894-1.22L60.2,587.54l.894.894,56.432-10.9-17.32-5.611s-1.3,2.114-10.164,1.464c0,0-4.554-.488-5.2-1.464l.732-9.758,3.171-6.18a4.364,4.364,0,0,1,3.334-.894l16.182,2.439a10.309,10.309,0,0,1,4.147,2.114l36.429,6.505" transform="translate(-3.999 -103.616)"/>
        <path id="Path_240" data-name="Path 240" class="cls-4" d="M198.131,532.981a11.053,11.053,0,0,1,6.1,1.545l.325,3.9a2.1,2.1,0,0,1,.894.894l.163,2.683a3.128,3.128,0,0,1,1.138,1.138l.569,22.443c.894,1.382.488,2.114.488,2.114-2.683,3.74-14.637,3.74-14.637,3.74-14.555-.081-15.612-3.659-15.775-4.716a1.368,1.368,0,0,1,.732-1.464v-3.009s.488-18.133.488-19.028,1.138-1.057,1.138-1.057l.325-3.009c0-.488.894-.65.894-.65l.325-3.822c.325-1.057,4.96-1.789,4.96-1.789v1.057a23.807,23.807,0,0,0,11.953,0v-.976Z" transform="translate(-33.051 -99.472)"/>
        <path id="Path_241" data-name="Path 241" class="cls-4" d="M312.117,358.327v-20a5.175,5.175,0,0,0-1.626-3.334c-1.545-1.382-16.263-11.384-16.263-11.384H285.69v-5.123a4.33,4.33,0,0,1,3.659-4.96c4.391-1.057,72.37-1.22,77.98.732a57.272,57.272,0,0,1,8.619,3.659s2.114,1.626,2.439,2.927a10.487,10.487,0,0,1,0,3.334s-3.74,1.138-16.751,1.138l-11.628-.081-14.718,9.839a5.1,5.1,0,0,0-2.114,3.822c-.244,2.683-.488,12.36-.488,12.36" transform="translate(-53.282 -58.335)"/>
        <path id="Path_242" data-name="Path 242" class="cls-4" d="M82.713,377.322l-1.464.65-42.039-7.156s-3.415.569-5.529-6.505L32.054,338.86s0-6.668.976-9.189l-.651-5.123a7.582,7.582,0,0,1,.813-4.391c1.138-1.708,7.318-10.408,7.318-10.408a4.123,4.123,0,0,0,.407-2.6c-.163-1.789-1.626-12.848-1.626-12.848L28.476,247.788a3.952,3.952,0,0,1,.244-3.171c.894-1.464,1.87-3.009,1.87-3.009s-14.311-56.351-15.124-73.1S11.4,112.4,11.4,112.4s0-16.263,10.327-27.078A223.361,223.361,0,0,1,42.869,66.051s4.066-2.683,4.228-6.912l6.912-44.316s1.057-6.261,5.855-8.538c2.358-1.138,4.716-2.439,6.505-3.5a15.372,15.372,0,0,1,7.481-2.2c6.83-.163,20.572.163,34.233,4.8.081,0,.163.081.244.081,0,0,10.327,1.22,15.45,13.01s10.815,31.956,10.815,31.956,5.448,20.329,17.32,25.858c11.953,5.529,31.956,21.792,31.956,21.792s14.88,8.945,7.156,31.55S180.7,159.481,180.7,159.481s-5.285,17.076,4.228,39.6,24.15,44.723,24.15,44.723,21.386,30.655,5.123,58.14c0,0-10.977,14.8-11.791,15.45s5.285,9.107,5.285,9.107,11.953,1.789,15.856,0,6.668,1.22,29.029-19.759,46.349-11.628,46.349-11.628,18.54,5.285,32.363,26.671-10,56.351-10,56.351-2.846,6.261-20.9,3.415l-71.15,11.14-.976,1.464S221.922,397,215.905,397l-14.23.976-5.936.651s-10.815-8.782-92.454-19.271" transform="translate(-2.037 0)"/>
        <path id="Path_243" data-name="Path 243" class="cls-5" d="M35,296.178a5.262,5.262,0,0,1,3.578-2.765c2.765-.732,9.107-.813,9.107-.813s3.5,2.033,5.611,3.578l12.848,72.695-3.09.407.325,1.789s5.936,2.114,9.188,10.733A115.124,115.124,0,0,0,78.5,395.3l1.545-.732s1.87-.081,1.87.488a8.152,8.152,0,0,1-.813,2.114l6.343,1.545.569,11.791.081,8.457a4.927,4.927,0,0,0,1.138.813V423.6s-1.545-.081-1.382.813-.894,7.481-.894,7.481" transform="translate(-6.447 -54.57)"/>
        <path id="Path_244" data-name="Path 244" class="cls-5" d="M97.172,434.1l-3.659.244a3.476,3.476,0,0,1-3.334-1.708c-.976-1.952-4.879-.976-4.879-.976l.244-10.815,1.3-.244,4.228.569" transform="translate(-15.846 -78.487)"/>
        <path id="Path_245" data-name="Path 245" class="cls-5" d="M86.793,418.8,79.8,421l4.472.813" transform="translate(-14.818 -78.151)"/>
        <path id="Path_246" data-name="Path 246" class="cls-5" d="M83.736,429.487,77.8,429l.244-7.4" transform="translate(-14.445 -78.674)"/>
        <path id="Path_247" data-name="Path 247" class="cls-5" d="M37.9,401.724l2.2,12.034s.894,7.887,7.562,7.562c6.668-.244,4.879-12.929,4.879-12.929l-1.87-15.206s-.569-4.228,2.2-4.716c2.683-.488,10.733-1.87,10.733-1.87" transform="translate(-6.989 -72.134)"/>
        <path id="Path_248" data-name="Path 248" class="cls-6" d="M51.459,382.946l-1.87-11.14,3.984-11.14L45.279,297s-2.439-3.415-4.879-3.5" transform="translate(-7.456 -54.738)"/>
        <path id="Path_249" data-name="Path 249" class="cls-7" d="M63.065,370.139a39.353,39.353,0,0,1-7.156-20.9C55.5,337.044,51.6,297.2,51.6,297.2" transform="translate(-9.549 -55.429)"/>
        <line id="Line_95" data-name="Line 95" class="cls-6" x2="58.058" y2="4.391" transform="translate(60.184 273.483)"/>
        <path id="Path_250" data-name="Path 250" class="cls-8" d="M127.447,346.539l-11.709.407a54.7,54.7,0,0,1-8.457-.407C103.541,345.97,83.7,344.1,83.7,344.1" transform="translate(-15.547 -64.193)"/>
        <line id="Line_96" data-name="Line 96" class="cls-8" x1="56.188" y1="1.708" transform="translate(240.539 265.271)"/>
        <path id="Path_251" data-name="Path 251" class="cls-8" d="M306.8,333.5l23.337.65s6.1.244,8.538,0c2.358-.244,7.969-.244,7.969-.244" transform="translate(-57.235 -62.212)"/>
        <path id="Path_252" data-name="Path 252" class="cls-5" d="M382.124,406.522s2.683-15.043-16.507-31.713S327.4,364.157,327.4,364.157" transform="translate(-61.084 -67.743)"/>
        <path id="Path_253" data-name="Path 253" class="cls-5" d="M150.4,444.758l-28.135,3.984-.244,1.626-10.733,2.277s-14.311,2.521-19.759-2.2l1.626-21.142s5.367,3.659,17.808,2.114c0,0,2.358-.894.569-1.708v-3.253l.651-.65,1.87-75.46s.813-2.683,1.789-2.846,14.555-9.839,14.555-9.839L163,336.529V329.7a5.736,5.736,0,0,0-3.74-5.041s-38.868-5.936-59.034-4.228l-27.647.813-6.912,4.066s-2.683.65-2.277,6.586l8.782,1.464,17.239,13.9s1.952.569,1.87,5.123l2.033,52.854" transform="translate(-11.744 -59.712)"/>
        <path id="Path_254" data-name="Path 254" class="cls-5" d="M110.527,5.188S83.856-.1,76.538,1.529s-7.969,7.725-7.969,7.725L64.91,48.691s.651,9.107-6.668,14.067c-7.318,5.041-20.9,18.3-20.9,18.3s-3.9,1.789-1.789,12.766c2.2,10.977,3.5,16.913,3.5,16.913S44.175,142.2,56.535,160.5c0,0,19.271,42.039,42.2,74.972L112.4,260.6" transform="translate(-6.434 -0.123)"/>
        <path id="Path_255" data-name="Path 255" class="cls-5" d="M90.336,279.122s-31.143-60.254-48.707-86.844c0,0-20.572-50.171-20.572-72.939,0,0-1.708-8.131,5.123-18.54" transform="translate(-3.806 -18.73)"/>
        <path id="Path_256" data-name="Path 256" class="cls-5" d="M54.194,104.4l13.092-9.6A2.991,2.991,0,0,1,72,95.534a16.611,16.611,0,0,1,2.521,7.318v27.484s0,5.2-3.334,7.237S52.65,142.7,52.65,142.7s-1.87-.081-2.358-6.912c-.325-4.635,1.545-17.32,2.846-25.045C53.707,106.918,54.194,104.4,54.194,104.4Z" transform="translate(-9.297 -17.449)"/>
        <path id="Path_257" data-name="Path 257" class="cls-5" d="M50.3,137.693s8.538-3.253,9.676-4.066,1.057-2.765,1.057-2.765L60.383,107.2l-7.237,5.855" transform="translate(-9.306 -19.926)"/>
        <path id="Path_258" data-name="Path 258" class="cls-5" d="M50.3,136.816l17.808-4.066s2.521-.081,2.277-4.066.325-24.069.325-24.069.488-6.1-3.9-3.74-13.742,10.408-13.742,10.408" transform="translate(-9.306 -18.643)"/>
        <path id="Path_259" data-name="Path 259" class="cls-5" d="M89.98,99.354s-6.424,20.572-2.033,54.724c0,0,2.277,9.27,6.343,9.758a11.187,11.187,0,0,0,6.749-1.22s8.619-7.806,18.54-8.538,20.166-2.521,33.339,10.083c0,0,6.18,5.692,10.49,2.765,0,0,1.87.325,3.578-2.521,0,0-1.464-11.628-1.22-18.458,0,0-1.952-20.9-1.057-24.963a44.313,44.313,0,0,0,1.057-8.294s-1.545-9.6-9.92-8.7c0,0-6.668,1.464-10.408,4.635-3.822,3.171-20.979,3.822-36.754-6.668,0,0-6.343-4.96-6.749-5.123S95.347,92.036,89.98,99.354Z" transform="translate(-16.054 -17.691)"/>
        <path id="Path_260" data-name="Path 260" class="cls-8" d="M94.6,164.73s18.377-16.019,23.5-33.745c2.6-9.107-.651-19.109-8.213-27.484" transform="translate(-17.584 -19.235)"/>
        <path id="Path_261" data-name="Path 261" class="cls-5" d="M90.1,104.3s.244,52.529.488,56.676" transform="translate(-16.743 -19.384)"/>
        <path id="Path_262" data-name="Path 262" class="cls-8" d="M161.7,109.662s8.945-2.6,11.709,12.929,6.993,37,5.367,45.943" transform="translate(-30.122 -20.356)"/>
        <path id="Path_263" data-name="Path 263" class="cls-5" d="M154.5,111.394s1.3-5.692,4.066-6.586,2.358-1.708,7.4,1.138" transform="translate(-28.777 -19.323)"/>
        <path id="Path_264" data-name="Path 264" class="cls-5" d="M184.3,118l6.017,4.554a9.747,9.747,0,0,1,4.31,7.237c.651,5.2,1.87,15.287,1.87,15.287s.813,11.709-8.863,10.9l-3.253-1.057" transform="translate(-34.345 -21.944)"/>
        <path id="Path_265" data-name="Path 265" class="cls-5" d="M182.5,130.647a2.334,2.334,0,0,1,.894,1.22c.244.813,1.952,17.32,1.952,17.32s.163,1.87-1.3,1.3l3.171,1.22a2.631,2.631,0,0,0,3.09-2.439c.244-2.846-1.708-17.157-1.708-17.157a10.4,10.4,0,0,0-1.545-3.09,28.815,28.815,0,0,0-3.9-2.521" transform="translate(-34.009 -23.533)"/>
        <path id="Path_266" data-name="Path 266" class="cls-8" d="M190.927,163.2s2.846,5.123-.163,13.173-13.254,26.346-14.149,35.534c-.976,9.189-3.415,5.285-1.22,23.581s14.474,57.57,14.474,57.57" transform="translate(-32.515 -30.39)"/>
        <path id="Path_267" data-name="Path 267" class="cls-8" d="M56.6,153.7s11.221,11.791,15.856,28.216,6.1,35.372,6.1,35.372l24.882,47.731" transform="translate(-10.483 -28.615)"/>
        <path id="Path_268" data-name="Path 268" class="cls-5" d="M86.6,412.231a29.708,29.708,0,0,0,10-8.131" transform="translate(-16.089 -75.404)"/>
        <path id="Path_269" data-name="Path 269" class="cls-5" d="M135.915,347.1s2.846,16.425-10.815,36.347" transform="translate(-23.283 -64.753)"/>
        <path id="Path_270" data-name="Path 270" class="cls-5" d="M124.4,406.478s7.887-8.131,10.733-15.206,15.368-15.124,20.572-16.1,16.588-7.562,43.91,11.791,27.322,26.427,27.322,26.427,7.237,29.6,10.49,35.86,5.773,13.742.488,17.32" transform="translate(-23.152 -69.651)"/>
        <path id="Path_271" data-name="Path 271" class="cls-5" d="M221.371,469.287s-.732-45.536-12.848-59.685c0,0-24.232-28.3-45.048-28.7S131.6,400.983,131.6,400.983" transform="translate(-24.498 -71.068)"/>
        <path id="Path_272" data-name="Path 272" class="cls-5" d="M247.1,416.3s11.628,4.31,11.384,16.507-.081,18.784-.081,18.784" transform="translate(-46.08 -77.684)"/>
        <path id="Path_273" data-name="Path 273" class="cls-5" d="M237.1,400.8l30-1.952s16.182-5.936,25.858-18.946" transform="translate(-44.211 -70.882)"/>
        <path id="Path_274" data-name="Path 274" class="cls-5" d="M232.679,325.853s15.694-22.117,9.6-44.154c-6.1-22.117-23.744-55.294-23.744-55.294s-10.408-32.363-1.464-45.78S230.808,139.4,230.808,139.4" transform="translate(-39.79 -25.943)"/>
        <line id="Line_97" data-name="Line 97" class="cls-5" x2="0.732" y2="23.093" transform="translate(112.144 296.577)"/>
        <path id="Path_275" data-name="Path 275" class="cls-5" d="M177.8,324.013s13.01-.894,21.3-1.626a56.206,56.206,0,0,0,6.749-.813c1.057-.651,10.652,1.22,14.555,11.465s10.733,41.8,1.464,53.179" transform="translate(-33.13 -59.962)"/>
        <path id="Path_276" data-name="Path 276" class="cls-8" d="M217.348,379.251s7.237-37-12.848-56.351" transform="translate(-38.12 -60.231)"/>
        <path id="Path_277" data-name="Path 277" class="cls-8" d="M153.172,371.9s-.976-22.687-4.472-30" transform="translate(-27.693 -63.782)"/>
        <path id="Path_278" data-name="Path 278" class="cls-5" d="M123.6,455.9l1.138,11.953,10.652-1.626" transform="translate(-23.003 -85.084)"/>
        <path id="Path_279" data-name="Path 279" class="cls-8" d="M84.9,1.8s14.88,41.145,7.562,76.761" transform="translate(-15.771 -0.231)"/>
        <line id="Line_98" data-name="Line 98" class="cls-8" y1="17.401" x2="6.261" transform="translate(65.307 92.803)"/>
        <path id="Path_280" data-name="Path 280" class="cls-8" d="M152.35,94.982s3.822-20.9,1.626-32.77S144.3,14.4,144.3,14.4" transform="translate(-26.871 -2.586)"/>
        <path id="Path_281" data-name="Path 281" class="cls-5" d="M274,402.6s52.366-6.668,82.859,1.22c0,0,15.043,2.439,17.076,14.88s1.87,21.548-.813,27.809a22.867,22.867,0,0,1-7.806,9.514" transform="translate(-51.106 -74.631)"/>
        <path id="Path_282" data-name="Path 282" class="cls-5" d="M181.1,540.6s13.986,5.855,24.476,0" transform="translate(-33.747 -100.91)"/>
        <path id="Path_283" data-name="Path 283" class="cls-5" d="M179.6,544.925s.813,4.391,14.311,4.228,12.6-4.554,12.6-4.554" transform="translate(-33.467 -101.658)"/>
        <path id="Path_284" data-name="Path 284" class="cls-5" d="M101.8,560.984s-.163.813.407.976c.569.244,14.393,3.415,14.393,3.415a1.962,1.962,0,0,0,1.382-.407,30.412,30.412,0,0,0,2.033-3.659s.813-1.545,1.87-1.22l5.123.569" transform="translate(-18.924 -104.544)"/>
        <path id="Path_285" data-name="Path 285" class="cls-5" d="M262.2,562.635a5.117,5.117,0,0,0,1.87-.244c.976-.325,3.253-1.057,4.472.407a6.333,6.333,0,0,1,1.3,2.846,1.792,1.792,0,0,0,2.114,1.708c1.952-.325,14.718-2.521,14.718-2.521s.976-.407.813-1.22" transform="translate(-48.901 -104.894)"/>
        <path id="Path_286" data-name="Path 286" class="cls-5" d="M355.725,607.388s-1.789.081-3.253,3.5a2.689,2.689,0,0,1-2.765,1.708l-31.794-6.586a1.344,1.344,0,0,1-1.22-1.708s.325-2.277,1.057-2.521a14.083,14.083,0,0,0,2.683-2.277" transform="translate(-59.079 -111.916)"/>
        <path id="Path_287" data-name="Path 287" class="cls-5" d="M184.344,643.271l3.415-2.2a2.71,2.71,0,0,1,2.033-.569c1.382.081,3.5.081,3.5.081a3.349,3.349,0,0,1,2.521.732c1.22.976,3.415,2.439,3.415,2.439l1.382-14.88-.325-1.464s-1.464-2.683-3.984-3.171L189.711,624a5.04,5.04,0,0,0-3.171,1.138,19.3,19.3,0,0,0-2.277,2.2l-.163,16.1Z" transform="translate(-34.308 -116.494)"/>
        <path id="Path_288" data-name="Path 288" class="cls-5" d="M26,603.012s1.952.894,3.253,4.147a2.764,2.764,0,0,0,3.334,1.464c2.6-.488,31.387-5.123,31.387-5.123s1.22-.488,1.057-1.464c-.163-1.057-.325-2.6-.325-2.6l-1.87-2.277L61.7,596.1" transform="translate(-4.765 -111.281)"/>
        <path id="Path_289" data-name="Path 289" class="cls-5" d="M24.1,605.7l5.041,6.1-.488,12.116" transform="translate(-4.41 -113.075)"/>
        <path id="Path_290" data-name="Path 290" class="cls-5" d="M30.7,609.4l103.106-16.182s14.23-2.033,21.142,3.5l-.976,43.341" transform="translate(-5.644 -110.674)"/>
        <line id="Line_99" data-name="Line 99" class="cls-5" x1="1.545" y2="35.941" transform="translate(162.152 471.809)"/>
        <line id="Line_100" data-name="Line 100" class="cls-5" y2="35.778" transform="translate(154.753 471.809)"/>
        <path id="Path_291" data-name="Path 291" class="cls-5" d="M365.211,610l-5.611,6.749.163,10.815" transform="translate(-67.101 -113.878)"/>
        <path id="Path_292" data-name="Path 292" class="cls-5" d="M329.869,613.469,224.73,593.141s-14.637-2.927-18.133,3.253l-3.5,41.47" transform="translate(-37.858 -110.599)"/>
        <line id="Line_101" data-name="Line 101" class="cls-5" x1="85.299" y1="19.597" transform="translate(172.235 470.182)"/>
        <line id="Line_102" data-name="Line 102" class="cls-5" x1="31.713" y1="7.318" transform="translate(174.349 467.906)"/>
        <line id="Line_103" data-name="Line 103" class="cls-5" y1="7.725" x2="45.455" transform="translate(174.349 458.31)"/>
        <line id="Line_104" data-name="Line 104" class="cls-5" y1="10.571" x2="49.927" transform="translate(188.823 460.506)"/>
        <path id="Path_293" data-name="Path 293" class="cls-5" d="M276.6,577.135l9.351-2.683s1.626-.651,2.358.325" transform="translate(-51.592 -107.196)"/>
        <line id="Line_105" data-name="Line 105" class="cls-5" y1="6.18" x2="30.412" transform="translate(113.526 467.662)"/>
        <line id="Line_106" data-name="Line 106" class="cls-5" x1="47.081" y1="11.791" transform="translate(81.895 458.554)"/>
        <path id="Path_294" data-name="Path 294" class="cls-5" d="M115.253,575.123l-9.6-3.171s-1.87-.569-2.358.163" transform="translate(-19.21 -106.729)"/>
        <path id="Path_295" data-name="Path 295" class="cls-5" d="M186.2,667.1v6.18l.813.651.163,27.4h9.351V673.686l1.057-.569.081-6.017" transform="translate(-34.7 -124.548)"/>
        <path id="Path_296" data-name="Path 296" class="cls-5" d="M186.4,668s6.18,3.578,11.059,0" transform="translate(-34.737 -124.716)"/>
        <path id="Path_297" data-name="Path 297" class="cls-5" d="M199.917,674.5l5.041.081s1.952-.081,1.952,1.545.081,33.745.081,33.745-.081,1.464-.976,1.464-6.017.081-6.017.081-1.464-.976-1.3-4.554a17.862,17.862,0,0,0,0-3.984" transform="translate(-37.033 -125.931)"/>
        <path id="Path_298" data-name="Path 298" class="cls-5" d="M184.556,674.7h-5.367s-1.708-.325-1.708,1.87-.081,33.583-.081,33.583,0,1.545,1.87,1.545h5.367a1.07,1.07,0,0,0,.894-.732c.163-.651.081-8.213.081-8.213" transform="translate(-33.056 -125.964)"/>
        <path id="Path_299" data-name="Path 299" class="cls-5" d="M344.609,658.6s-2.683-10.652,5.936-15.694c8.7-5.123,18.54,2.358,20.572,6.586,2.114,4.228,7.562,15.938-3.5,22.2C356.644,678.03,345.5,664.695,344.609,658.6Z" transform="translate(-64.226 -119.703)"/>
        <path id="Path_300" data-name="Path 300" class="cls-5" d="M350.7,630.8s.407,1.952,4.8,2.114,5.2-.081,5.773-1.708" transform="translate(-65.438 -117.765)"/>
        <line id="Line_107" data-name="Line 107" class="cls-5" y2="10.652" transform="translate(285.262 513.604)"/>
        <path id="Path_301" data-name="Path 301" class="cls-5" d="M361.652,631.5v4.472s-7.969.488-10.652,5.367" transform="translate(-65.494 -117.896)"/>
        <path id="Path_302" data-name="Path 302" class="cls-5" d="M364.3,634.993a10.911,10.911,0,0,1,7.969-.325c4.554,1.464,8.457,3.5,12.034,11.221a15.25,15.25,0,0,1-.732,14.067,23.993,23.993,0,0,1-8.213,7.318" transform="translate(-67.979 -118.38)"/>
        <path id="Path_303" data-name="Path 303" class="cls-5" d="M354.4,639.71s10.652-3.5,17.808,3.9,6.1,13.742,6.1,13.742,0,5.611-3.334,9.676" transform="translate(-66.13 -119.276)"/>
        <path id="Path_304" data-name="Path 304" class="cls-5" d="M364.4,636.183s7.806-1.057,13.336,4.8a20.844,20.844,0,0,1,5.773,12.36,15.759,15.759,0,0,1-5.367,12.116" transform="translate(-67.998 -118.757)"/>
        <line id="Line_108" data-name="Line 108" class="cls-5" y1="1.626" x2="2.765" transform="translate(311.77 540.031)"/>
        <path id="Path_305" data-name="Path 305" class="cls-5" d="M347.99,658.024s-1.138-10.571,8.375-11.953,13.9,9.107,13.9,9.107,4.31,12.034-5.773,15.124C353.6,673.555,348.072,661.44,347.99,658.024Z" transform="translate(-64.924 -120.595)"/>
        <path id="Path_306" data-name="Path 306" class="cls-5" d="M355,659.078a7.108,7.108,0,0,0,5.692,6.749c5.773,1.464,5.042-6.749,5.042-6.749s-1.3-4.716-6.017-4.879S355,659.078,355,659.078Z" transform="translate(-66.242 -122.137)"/>
        <path id="Path_307" data-name="Path 307" class="cls-5" d="M358.7,654.27s1.22-.976,1.789-.976c.651.081,3.822-.732,6.1,2.846,2.927,4.716-1.708,8.945-1.708,8.945" transform="translate(-66.933 -121.963)"/>
        <path id="Path_308" data-name="Path 308" class="cls-8" d="M351,650.033l.976.325,4.228,2.927.732-.407-2.6-3.984L352.708,648" transform="translate(-65.494 -120.979)"/>
        <path id="Path_309" data-name="Path 309" class="cls-8" d="M355.1,646.85l.976.732,2.277,3.5s1.057.244,1.138-.488h0l-.813-3.253-.813-1.138" transform="translate(-66.26 -120.643)"/>
        <path id="Path_310" data-name="Path 310" class="cls-8" d="M360.3,645.9l.651,1.057.813,3.578s.732.813,1.22.244l.569-3.171-.244-1.057" transform="translate(-67.232 -120.587)"/>
        <path id="Path_311" data-name="Path 311" class="cls-8" d="M365.788,647.3l.081.813-.569,3.5s.569.732,1.057.569l1.626-2.6.325-.894" transform="translate(-68.166 -120.848)"/>
        <path id="Path_312" data-name="Path 312" class="cls-8" d="M369.989,650.5l-.163.813L368.2,653.59s0,1.057.976,1.057l2.765-1.87" transform="translate(-68.708 -121.446)"/>
        <path id="Path_313" data-name="Path 313" class="cls-8" d="M373.285,655.2l-2.846,1.545s-.813,1.3.407,1.464l3.659-.894" transform="translate(-69.077 -122.324)"/>
        <path id="Path_314" data-name="Path 314" class="cls-8" d="M375.039,660.663l-3.415-.163s-1.545.569-.244,1.382l4.066,1.626" transform="translate(-69.205 -123.315)"/>
        <path id="Path_315" data-name="Path 315" class="cls-8" d="M374.263,668.654l-.976-1.3-2.927-2.521s-.651-1.382.569-1.138S375,665.97,375,665.97" transform="translate(-69.08 -123.906)"/>
        <path id="Path_316" data-name="Path 316" class="cls-8" d="M370.713,673.016l-.081-1.545a3.5,3.5,0,0,0-.488-1.464c-.407-.569-1.464-2.114-1.464-2.114s-.569-1.952,1.22-1.138l2.358,2.846.732,1.382" transform="translate(-68.782 -124.446)"/>
        <path id="Path_317" data-name="Path 317" class="cls-8" d="M365.844,674.756l.407-1.464a3.952,3.952,0,0,0-.081-1.952l-.569-2.114s.325-1.3,1.382-.488l1.138,2.2a4.7,4.7,0,0,1,.569,1.464l.081,1.464" transform="translate(-68.222 -124.804)"/>
        <path id="Path_318" data-name="Path 318" class="cls-8" d="M360.4,674.592l.813-1.138a2.917,2.917,0,0,0,.488-1.708l.407-2.846" transform="translate(-67.251 -124.884)"/>
        <path id="Path_319" data-name="Path 319" class="cls-8" d="M363.9,669l.894,3.5-.732,2.358" transform="translate(-67.905 -124.903)"/>
        <path id="Path_320" data-name="Path 320" class="cls-8" d="M355.1,672.091l1.138-.976,2.114-3.415" transform="translate(-66.26 -124.66)"/>
        <path id="Path_321" data-name="Path 321" class="cls-8" d="M360.221,668.4l-.732,3.9-1.789,1.3" transform="translate(-66.746 -124.791)"/>
        <path id="Path_322" data-name="Path 322" class="cls-8" d="M351.3,667.946l1.3-1.138,2.765-1.708" transform="translate(-65.55 -124.174)"/>
        <path id="Path_323" data-name="Path 323" class="cls-8" d="M357.127,666.7l-1.952,2.6-.976,1.545" transform="translate(-66.092 -124.473)"/>
        <path id="Path_324" data-name="Path 324" class="cls-8" d="M350.2,666.021l1.057-.732a8.2,8.2,0,0,1,1.382-.732,13.485,13.485,0,0,0,1.87-1.057" transform="translate(-65.345 -123.875)"/>
        <path id="Path_325" data-name="Path 325" class="cls-8" d="M353.941,661.9l-2.358.163-2.683.894" transform="translate(-65.102 -123.576)"/>
        <path id="Path_326" data-name="Path 326" class="cls-8" d="M348.2,660.751l2.521-.569,2.765-.081" transform="translate(-64.971 -123.24)"/>
        <path id="Path_327" data-name="Path 327" class="cls-8" d="M353.829,658.4l-3.822-1.22L348.3,657.1" transform="translate(-64.99 -122.679)"/>
        <path id="Path_328" data-name="Path 328" class="cls-8" d="M348.6,655l1.789.163,3.822,1.382" transform="translate(-65.046 -122.287)"/>
        <path id="Path_329" data-name="Path 329" class="cls-8" d="M354.96,655.046l-3.09-2.358L350,652.2" transform="translate(-65.307 -121.764)"/>
        <path id="Path_330" data-name="Path 330" class="cls-5" d="M39.473,654.9s2.683-10.652-5.936-15.694S15,641.568,12.964,645.8,5.4,661.734,16.379,668C27.438,674.338,38.578,661,39.473,654.9Z" transform="translate(-1.731 -119.02)"/>
        <path id="Path_331" data-name="Path 331" class="cls-5" d="M37.871,627.2s-.407,1.952-4.8,2.114-5.2-.081-5.773-1.708" transform="translate(-5.008 -117.092)"/>
        <line id="Line_109" data-name="Line 109" class="cls-5" y2="10.652" transform="translate(32.863 510.595)"/>
        <path id="Path_332" data-name="Path 332" class="cls-5" d="M26.9,627.8v4.472s7.969.488,10.652,5.367" transform="translate(-4.934 -117.205)"/>
        <path id="Path_333" data-name="Path 333" class="cls-5" d="M21.8,631.393a10.911,10.911,0,0,0-7.969-.325c-4.554,1.464-8.375,3.5-11.953,11.221a15.251,15.251,0,0,0,.732,14.067,23.993,23.993,0,0,0,8.213,7.318" transform="translate(0 -117.708)"/>
        <path id="Path_334" data-name="Path 334" class="cls-5" d="M31.094,636.01s-10.652-3.5-17.808,3.9-6.1,13.823-6.1,13.823,0,5.611,3.334,9.676" transform="translate(-1.24 -118.584)"/>
        <path id="Path_335" data-name="Path 335" class="cls-5" d="M22.205,632.583s-7.806-1.057-13.336,4.8A20.844,20.844,0,0,0,3.1,649.74a15.759,15.759,0,0,0,5.367,12.116" transform="translate(-0.483 -118.084)"/>
        <line id="Line_110" data-name="Line 110" class="cls-5" x1="2.765" y1="1.626" transform="translate(3.589 537.104)"/>
        <path id="Path_336" data-name="Path 336" class="cls-5" d="M37.67,654.324s1.138-10.571-8.375-11.953-13.9,9.107-13.9,9.107-4.31,12.034,5.773,15.124C32.059,669.855,37.588,657.74,37.67,654.324Z" transform="translate(-2.612 -119.904)"/>
        <path id="Path_337" data-name="Path 337" class="cls-5" d="M33.527,655.378a7.108,7.108,0,0,1-5.692,6.749c-5.773,1.464-5.041-6.749-5.041-6.749s1.3-4.716,6.017-4.879S33.527,655.378,33.527,655.378Z" transform="translate(-4.161 -121.445)"/>
        <path id="Path_338" data-name="Path 338" class="cls-5" d="M30.265,650.562s-1.22-.976-1.789-.976a5.88,5.88,0,0,0-6.1,2.846c-2.927,4.716,1.708,8.945,1.708,8.945" transform="translate(-3.907 -121.264)"/>
        <path id="Path_339" data-name="Path 339" class="cls-8" d="M38.636,646.333l-.976.406-4.228,2.846-.732-.407,2.6-3.984,1.626-.895" transform="translate(-6.017 -120.288)"/>
        <path id="Path_340" data-name="Path 340" class="cls-8" d="M34.891,643.151l-.976.732-2.277,3.5s-1.057.244-1.138-.488h0l.813-3.253.813-1.138" transform="translate(-5.606 -119.951)"/>
        <path id="Path_341" data-name="Path 341" class="cls-8" d="M29.953,642.2l-.651,1.057-.813,3.578s-.732.813-1.22.244l-.569-3.171.244-1.057" transform="translate(-4.896 -119.895)"/>
        <path id="Path_342" data-name="Path 342" class="cls-8" d="M24.521,643.6l-.081.813.569,3.5s-.569.732-1.057.569l-1.626-2.6L22,644.982" transform="translate(-4.018 -120.157)"/>
        <path id="Path_343" data-name="Path 343" class="cls-8" d="M20.152,646.9l.163.813,1.626,2.277s0,1.057-.976,1.057l-2.765-1.87" transform="translate(-3.308 -120.773)"/>
        <path id="Path_344" data-name="Path 344" class="cls-8" d="M16.72,651.6l2.846,1.545s.813,1.3-.407,1.464l-3.659-.894" transform="translate(-2.803 -121.652)"/>
        <path id="Path_345" data-name="Path 345" class="cls-8" d="M14.907,657.063l3.415-.163s1.545.569.244,1.382L14.5,659.909" transform="translate(-2.617 -122.642)"/>
        <path id="Path_346" data-name="Path 346" class="cls-8" d="M15.632,665.054l.976-1.3,2.927-2.521s.651-1.382-.569-1.138S14.9,662.37,14.9,662.37" transform="translate(-2.691 -123.233)"/>
        <path id="Path_347" data-name="Path 347" class="cls-8" d="M19.277,669.316l.081-1.545a3.5,3.5,0,0,1,.488-1.464c.407-.569,1.464-2.114,1.464-2.114s.569-1.952-1.22-1.138L17.732,665.9,17,667.283" transform="translate(-3.084 -123.755)"/>
        <path id="Path_348" data-name="Path 348" class="cls-8" d="M24.427,671.056l-.407-1.464a3.952,3.952,0,0,1,.081-1.952l.569-2.114s-.325-1.3-1.382-.488l-1.138,2.2a4.7,4.7,0,0,0-.569,1.464l-.081,1.464" transform="translate(-3.925 -124.113)"/>
        <path id="Path_349" data-name="Path 349" class="cls-8" d="M30.208,670.892l-.813-1.138a2.917,2.917,0,0,1-.488-1.708L28.5,665.2" transform="translate(-5.233 -124.193)"/>
        <path id="Path_350" data-name="Path 350" class="cls-8" d="M26.894,665.3,26,668.878l.732,2.358" transform="translate(-4.765 -124.212)"/>
        <path id="Path_351" data-name="Path 351" class="cls-8" d="M35.153,668.41l-1.138-.976L31.9,664.1" transform="translate(-5.868 -123.987)"/>
        <path id="Path_352" data-name="Path 352" class="cls-8" d="M30.2,664.8l.732,3.822L32.639,670" transform="translate(-5.55 -124.118)"/>
        <path id="Path_353" data-name="Path 353" class="cls-8" d="M38.766,664.246l-1.3-1.138L34.7,661.4" transform="translate(-6.391 -123.483)"/>
        <path id="Path_354" data-name="Path 354" class="cls-8" d="M33.2,663l1.952,2.683.976,1.464" transform="translate(-6.111 -123.782)"/>
        <path id="Path_355" data-name="Path 355" class="cls-8" d="M39.71,662.421l-1.057-.732a8.209,8.209,0,0,0-1.382-.732A13.479,13.479,0,0,1,35.4,659.9" transform="translate(-6.522 -123.203)"/>
        <path id="Path_356" data-name="Path 356" class="cls-8" d="M35.9,658.2l2.358.244,2.683.813" transform="translate(-6.615 -122.885)"/>
        <path id="Path_357" data-name="Path 357" class="cls-8" d="M41.585,657.051l-2.521-.569L36.3,656.4" transform="translate(-6.69 -122.549)"/>
        <path id="Path_358" data-name="Path 358" class="cls-8" d="M35.9,654.72l3.822-1.138,1.708-.081" transform="translate(-6.615 -122.007)"/>
        <path id="Path_359" data-name="Path 359" class="cls-8" d="M41.029,651.3l-1.789.244-3.74,1.3" transform="translate(-6.541 -121.596)"/>
        <path id="Path_360" data-name="Path 360" class="cls-8" d="M34.9,651.446l3.009-2.439,1.952-.407" transform="translate(-6.428 -121.091)"/>
        <path id="Path_361" data-name="Path 361" class="cls-5" d="M209,688.8h.651v13.336h-.569" transform="translate(-38.96 -128.603)"/>
        <path id="Path_362" data-name="Path 362" class="cls-5" d="M176.851,689.1H176.2v13.417h.569" transform="translate(-32.831 -128.659)"/>
        <path id="Path_363" data-name="Path 363" class="cls-5" d="M279.5,579.7s-.081,1.87,4.716,1.952,4.31-1.708,4.31-1.708" transform="translate(-52.134 -108.217)"/>
        <line id="Line_111" data-name="Line 111" class="cls-5" y2="7.887" transform="translate(227.285 471.727)"/>
        <path id="Path_364" data-name="Path 364" class="cls-5" d="M290.028,580.1l.163,4.8a17.3,17.3,0,0,0-4.391,4.391" transform="translate(-53.311 -108.291)"/>
        <path id="Path_365" data-name="Path 365" class="cls-5" d="M278.5,583.5a10.347,10.347,0,0,0-3.5,4.31" transform="translate(-51.293 -108.927)"/>
        <path id="Path_366" data-name="Path 366" class="cls-5" d="M291.2,580.8l12.929,4.8s3.9,1.87,4.8,8.538" transform="translate(-54.32 -108.422)"/>
        <path id="Path_367" data-name="Path 367" class="cls-5" d="M291.2,585.573s3.5-2.277,6.912-1.789" transform="translate(-54.32 -108.967)"/>
        <path id="Path_368" data-name="Path 368" class="cls-5" d="M295.1,592.506s2.2-3.253,5.692-3.009a7.4,7.4,0,0,1,6.586,5.692" transform="translate(-55.049 -110.045)"/>
        <line id="Line_112" data-name="Line 112" class="cls-5" x2="0.244" y2="1.952" transform="translate(241.84 480.916)"/>
        <path id="Path_369" data-name="Path 369" class="cls-5" d="M299.288,590.1l-.488,1.138.163,2.033" transform="translate(-55.74 -110.16)"/>
        <path id="Path_370" data-name="Path 370" class="cls-5" d="M301.445,589.7l-.813.976-.732,2.683" transform="translate(-55.946 -110.085)"/>
        <path id="Path_371" data-name="Path 371" class="cls-5" d="M303.208,589.9l-.976,1.138-.732,2.6" transform="translate(-56.245 -110.123)"/>
        <path id="Path_372" data-name="Path 372" class="cls-5" d="M302.1,593.953l1.3-2.033,1.545-1.22" transform="translate(-56.357 -110.272)"/>
        <path id="Path_373" data-name="Path 373" class="cls-5" d="M306.565,591.8l-1.708,1.138L303.8,594.4" transform="translate(-56.675 -110.478)"/>
        <path id="Path_374" data-name="Path 374" class="cls-5" d="M305.1,595.245l1.464-1.22,1.545-.325" transform="translate(-56.917 -110.833)"/>
        <path id="Path_375" data-name="Path 375" class="cls-5" d="M307.4,595.888l.651-.407,1.22-.081" transform="translate(-57.347 -111.15)"/>
        <path id="Path_376" data-name="Path 376" class="cls-5" d="M278,612.3a9.228,9.228,0,0,0,6.83,2.439" transform="translate(-51.854 -114.308)"/>
        <path id="Path_377" data-name="Path 377" class="cls-5" d="M281.7,612.8s.407,1.545,3.74,2.114a15.1,15.1,0,0,0,8.05,3.5c4.96.569,7.237-2.439,7.237-2.439" transform="translate(-52.545 -114.402)"/>
        <path id="Path_378" data-name="Path 378" class="cls-5" d="M288.1,614s1.382,2.683,6.424,4.716" transform="translate(-53.741 -114.626)"/>
        <path id="Path_379" data-name="Path 379" class="cls-5" d="M285.3,613.4a6.371,6.371,0,0,0,.813,1.626" transform="translate(-53.218 -114.514)"/>
        <path id="Path_380" data-name="Path 380" class="cls-5" d="M105.464,587.076c.163-2.114-1.464-5.692-1.464-5.692l.244-3.659s.407,1.952,5.041,1.708,3.74-2.033,3.74-2.033l.325,5.285a8.71,8.71,0,0,1-.488,3.009" transform="translate(-19.34 -107.787)"/>
        <path id="Path_381" data-name="Path 381" class="cls-5" d="M101.368,579.6l-7.481.732s-3.334,1.057-3.09,9.351" transform="translate(-16.871 -108.198)"/>
        <path id="Path_382" data-name="Path 382" class="cls-5" d="M98.259,588.531s0-6.586-3.659-8.131" transform="translate(-17.584 -108.347)"/>
        <path id="Path_383" data-name="Path 383" class="cls-5" d="M115.4,578.263l1.3-.163s3.253.813,3.9,6.424" transform="translate(-21.471 -107.918)"/>
        <path id="Path_384" data-name="Path 384" class="cls-5" d="M103.377,581.87A7.591,7.591,0,0,0,101.1,580" transform="translate(-18.798 -108.273)"/>
        <path id="Path_385" data-name="Path 385" class="cls-5" d="M96.16,589.547s-.081-3.984-2.521-5.285c-2.358-1.382-2.439,6.18-2.439,6.18" transform="translate(-16.949 -109.037)"/>
        <path id="Path_386" data-name="Path 386" class="cls-5" d="M92.3,585.8l1.708.813a2.961,2.961,0,0,1,.976,1.545c.163.894.325,1.87.325,1.87" transform="translate(-17.154 -109.356)"/>
        <path id="Path_387" data-name="Path 387" class="cls-5" d="M91.5,589.2a3.81,3.81,0,0,1,2.521.894l.244.651" transform="translate(-17.005 -109.992)"/>
        <path id="Path_388" data-name="Path 388" class="cls-5" d="M94.8,612.457s.894,1.789,2.114,2.033a30.05,30.05,0,0,0,5.529-.407,7.867,7.867,0,0,0,1.545-2.683" transform="translate(-17.621 -114.14)"/>
        <path id="Path_389" data-name="Path 389" class="cls-5" d="M99.958,611.9a3.363,3.363,0,0,1-2.358,2.683" transform="translate(-18.144 -114.233)"/>
        <path id="Path_390" data-name="Path 390" class="cls-5" d="M111.3,610.357a3.761,3.761,0,0,0,2.439,2.439l4.8-.407s2.277-1.545,2.2-3.09" transform="translate(-20.704 -113.748)"/>
        <path id="Path_391" data-name="Path 391" class="cls-5" d="M116.577,609.8s-.325,2.521-2.277,3.09" transform="translate(-21.265 -113.841)"/>
        <path id="Path_392" data-name="Path 392" class="cls-5" d="M55.1,389.6s6.83,3.009,9.27,12.522c2.439,9.6,9.188,18.54,9.188,18.54" transform="translate(-10.203 -72.695)"/>
        <path id="Path_393" data-name="Path 393" class="cls-5" d="M80.5,431.2s5.936,7.969,10.49,7.074c4.635-.894,5.448,6.18,5.448,6.18" transform="translate(-14.949 -80.468)"/>
        <path id="Path_394" data-name="Path 394" class="cls-8" d="M57.6,400.4s2.683,31.143,28.785,38.055" transform="translate(-10.67 -74.713)"/>
        <path id="Path_395" data-name="Path 395" class="cls-5" d="M93.133,440,91.1,443.009l1.3,2.683s3.09,8.05-.651,11.384l1.22,2.277" transform="translate(-16.93 -82.113)"/>
        <path id="Path_396" data-name="Path 396" class="cls-8" d="M38.6,448.2a5.2,5.2,0,0,0,4.066,3.253c3.009.325,39.275,7.156,39.275,7.156" transform="translate(-7.12 -83.645)"/>
        <path id="Path_397" data-name="Path 397" class="cls-8" d="M37.883,407.4s-.163,4.554,0,7.806S38.94,430.9,38.94,430.9s.325,10.327,7.969,11.791,35.941,6.342,35.941,6.342" transform="translate(-6.972 -76.021)"/>
        <path id="Path_398" data-name="Path 398" class="cls-8" d="M83,227.8l41.064,17.808,34.559-16.751" transform="translate(-15.416 -42.461)"/>
        <path id="Path_399" data-name="Path 399" class="cls-8" d="M98.6,259.672l30.493,11.465L160.968,255.2" transform="translate(-18.331 -47.581)"/>
        <path id="Path_400" data-name="Path 400" class="cls-8" d="M111.1,284.361l4.391,1.87,20.329,8.457,31.55-16.588" transform="translate(-20.667 -51.86)"/>
        <line id="Line_113" data-name="Line 113" class="cls-8" x1="17.564" y1="25.858" transform="translate(95.393 234.859)"/>
        <line id="Line_114" data-name="Line 114" class="cls-8" x1="14.311" y1="21.304" transform="translate(109.217 240.307)"/>
        <line id="Line_115" data-name="Line 115" class="cls-8" x1="15.124" y1="22.524" transform="translate(119.381 240.551)"/>
        <line id="Line_116" data-name="Line 116" class="cls-8" x1="17.97" y1="27.566" transform="translate(126.943 236.811)"/>
        <line id="Line_117" data-name="Line 117" class="cls-8" x1="18.946" y1="30.33" transform="translate(134.017 232.745)"/>
        <line id="Line_118" data-name="Line 118" class="cls-8" x2="11.465" y2="17.889" transform="translate(141.173 229.492)"/>
        <line id="Line_119" data-name="Line 119" class="cls-8" y1="9.92" x2="1.708" transform="translate(98.646 236.648)"/>
        <line id="Line_120" data-name="Line 120" class="cls-8" y1="18.865" x2="2.927" transform="translate(106.777 241.283)"/>
        <line id="Line_121" data-name="Line 121" class="cls-8" y1="20.166" x2="2.602" transform="translate(116.779 240.958)"/>
        <line id="Line_122" data-name="Line 122" class="cls-8" y1="26.915" x2="3.578" transform="translate(126.374 235.103)"/>
        <line id="Line_123" data-name="Line 123" class="cls-8" y1="33.176" x2="5.041" transform="translate(135.074 229.818)"/>
        <line id="Line_124" data-name="Line 124" class="cls-8" y1="30.412" x2="3.903" transform="translate(144.67 233.395)"/>
        <path id="Path_401" data-name="Path 401" class="cls-5" d="M196.7,478.3s6.1-.244,9.676,7.725,8.782,9.758,8.782,9.758a9.319,9.319,0,0,0,8.131-1.464l3.659-7.888" transform="translate(-36.662 -89.269)"/>
        <line id="Line_125" data-name="Line 125" class="cls-5" x1="6.261" y2="1.138" transform="translate(164.266 399.195)"/>
        <path id="Path_402" data-name="Path 402" class="cls-5" d="M176.6,507.368l25.858-2.765s7.156-8.05-2.277-12.6" transform="translate(-32.906 -91.829)"/>
        <path id="Path_403" data-name="Path 403" class="cls-5" d="M179.9,520.8a7,7,0,0,0,2.6-3.74c.569-2.358,24.069-13.823,24.069-13.823s5.285-2.927,7.562-2.927,12.929-2.521,12.929-2.521l44.967-6.993" transform="translate(-33.523 -91.605)"/>
        <path id="Path_404" data-name="Path 404" class="cls-5" d="M255.378,504.5l-29.924,5.042-21.955,9.6,2.033,3.578,5.448-.895" transform="translate(-37.933 -94.165)"/>
        <line id="Line_126" data-name="Line 126" class="cls-5" y1="8.782" x2="5.773" transform="translate(187.847 406.432)"/>
        <path id="Path_405" data-name="Path 405" class="cls-5" d="M214.2,527.286l10.733-3.822,9.6-3.415s7.318-1.952,9.351-2.2,3.009-.325,3.171.081" transform="translate(-39.932 -96.622)"/>
        <path id="Path_406" data-name="Path 406" class="cls-5" d="M227.6,524.514s13.173-.244,15.531-2.114" transform="translate(-42.436 -97.51)"/>
        <path id="Path_407" data-name="Path 407" class="cls-5" d="M205.5,522.486l20.979-9.432,28.379-4.554" transform="translate(-38.306 -94.912)"/>
        <path id="Path_408" data-name="Path 408" class="cls-5" d="M293.585,480.527a241.437,241.437,0,0,1,24.476-2.439s3.334-.407,4.391.976c0,0,6.668,7.725,7.318,14.149,0,0,1.057,2.6-1.057,3.9-2.033,1.382-17.726,0-29.517-7.156l-10.9,1.464" transform="translate(-53.778 -89.219)"/>
        <path id="Path_409" data-name="Path 409" class="cls-5" d="M325.389,480.7s-21.874,5.2-23.256,6.586-2.2,1.545-1.057,2.927" transform="translate(-56.065 -89.718)"/>
        <path id="Path_410" data-name="Path 410" class="cls-5" d="M125.3,504.5l14.8,16.263s1.22,1.789,4.879,1.138,10.733-3.09,13.254-5.936" transform="translate(-23.32 -94.165)"/>
        <path id="Path_411" data-name="Path 411" class="cls-5" d="M128.1,507.078s27.484-.488,31.143.732c0,0,1.789.163,1.789.732a23.343,23.343,0,0,1-.407,2.521" transform="translate(-23.844 -94.629)"/>
        <path id="Path_412" data-name="Path 412" class="cls-8" d="M295.3,313.269s43.015-.894,60.091,1.952c0,0,7.156,4.472,10.977,4.554s12.6-.488,12.6-.488" transform="translate(-55.086 -58.407)"/>
        <line id="Line_127" data-name="Line 127" class="cls-8" x1="15.206" y2="0.407" transform="translate(300.305 256.407)"/>
        <path id="Path_413" data-name="Path 413" class="cls-8" d="M286.5,316.1l66.84,1.545a22.784,22.784,0,0,0,8.375,2.2" transform="translate(-53.442 -58.961)"/>
        <path id="Path_414" data-name="Path 414" class="cls-8" d="M59.2,388.6s6.18,1.708,8.457,6.83,6.017,15.856,6.017,15.856h2.683l1.952,3.09" transform="translate(-10.969 -72.508)"/>
        <path id="Path_415" data-name="Path 415" class="cls-5" d="M182.2,535s11.872,4.554,22.849,0" transform="translate(-33.953 -99.864)"/>
        <path id="Path_416" data-name="Path 416" class="cls-5" d="M182.2,535.1s13.01,4.635,22.931,0" transform="translate(-33.953 -99.883)"/>
        <path id="Path_417" data-name="Path 417" class="cls-8" d="M64.3,327.932l57.814,4.716a101.014,101.014,0,0,0,12.441.407c6.1-.244,24.8-.894,24.8-.894s3.984-.325,1.952-4.96" transform="translate(-11.922 -61.035)"/>
        <path id="Path_418" data-name="Path 418" class="cls-8" d="M74.5,321.3l55.7,4.066s7.156.244,12.116.244,17.97-.813,17.97-.813" transform="translate(-13.828 -59.932)"/>
        <g id="Group_111" data-name="Group 111" transform="translate(43.108 102.398)">
          <path id="Path_419" data-name="Path 419" class="cls-4" d="M63.3,125.8l18.865,4.472-.163,8.7L63.544,134.5Z" transform="translate(-54.843 -125.8)"/>
          <path id="Path_420" data-name="Path 420" class="cls-4" d="M52.9,141.682l4.147.325a2.582,2.582,0,0,1,2.765,1.789c.813,2.114,5.529,10,5.529,10l28.948,92.617L107.95,271.7,70.464,152.985,64.934,142.5s0-1.626-3.659-2.2l-4.716.569Z" transform="translate(-52.9 -128.509)"/>
          <path id="Path_421" data-name="Path 421" class="cls-4" d="M185.164,297.128,175,184.1l2.765.081,2.114-.976,1.789-.407,9.27,114.084Z" transform="translate(-75.715 -136.451)"/>
        </g>
      </g>
    </g>
  </g>
</svg>
