<svg xmlns="http://www.w3.org/2000/svg" xmlns:xlink="http://www.w3.org/1999/xlink" viewBox="0 0 192 192">
  <defs>
    <style>
      .cls-1, .cls-3, .cls-4 {
        fill: #fff;
      }

      .cls-1 {
        stroke: #707070;
      }

      .cls-2 {
        clip-path: url(#clip-path);
      }

      .cls-4, .cls-5, .cls-6, .cls-7, .cls-8 {
        stroke: #000;
        stroke-miterlimit: 10;
      }

      .cls-5, .cls-6, .cls-7, .cls-8 {
        fill: none;
      }

      .cls-6 {
        stroke-width: 0.75px;
      }

      .cls-7 {
        stroke-width: 0.25px;
      }

      .cls-8 {
        stroke-width: 0.5px;
      }
    </style>
    <clipPath id="clip-path">
      <circle id="Ellipse_2" data-name="Ellipse 2" class="cls-1" cx="96" cy="96" r="96" transform="translate(64 1945)"/>
    </clipPath>
  </defs>
  <g id="Mask_Group_11" data-name="Mask Group 11" class="cls-2" transform="translate(-64 -1945)">
    <g id="Group_113" data-name="Group 113" transform="translate(-409.921 -921.278)">
      <rect id="Rectangle_774" data-name="Rectangle 774" class="cls-3" width="607.372" height="1001.687" transform="translate(464 2092)"/>
      <g id="Group_112" data-name="Group 112" transform="translate(518.059 2138.857)">
        <path id="Path_238" data-name="Path 238" class="cls-4" d="M345.508,480.8l-1.164,11.248a10.786,10.786,0,0,1-2.456,3.491c-1.681,1.551-31.029,16.032-31.029,16.032l-2.586,6.723-14.739,4.784,1.422,4.913s-.259,2.2-11.377,6.335l1.164,42.018-5.818,4.784s-9.438,3.491-24.306,2.327l-7.628-4.913-3.1-33.873-3.62-.646-1.034-3.62-2.844,5.559s-23.789,7.111-38.916-1.552l-4.913-24.694-10.989,1.422s0,13.7-17.712,19.781l-8.145,1.81s-1.422,1.034-7.111-1.552-21.462-13.963-21.462-13.963-6.077.259-5.43-10.6a6.347,6.347,0,0,1,4.008-5.43l100.069-15.644,4.525-10.6" transform="translate(34.99 140.089)"/>
        <path id="Path_239" data-name="Path 239" class="cls-4" d="M270.391,573.465,332.32,564.8s1.422-2.069,3.232-2.327,24.048-3.232,24.048-3.232h7.887a4.895,4.895,0,0,1,3.1,2.974l1.681,2.844,2.069,4.008,1.034,16.549s-5.3,2.327-16.29,1.551c0,0-6.852-.776-8.145-2.715l-29.866,8.4,87.786,19.264,1.81-1.164,53.4,11.765.517,1.81a4.544,4.544,0,0,1,3.491,2.715l1.552,24.436-9.826,2.974L447,652.718s-3.749-.776-5.042-3.749v-6.076l-150.491-23.66s-25.082-2.327-28.573,6.206l-4.784,73.177-13.7,2.715-15.773-2.974,1.034-73.177s1.551-8.274-26.245-6.982L49.955,638.109v5.172s.129,2.974-5.042,4.4-13.446,1.81-13.446,1.81l-9.567-3.62L23.71,623.5s0-3.749,3.361-4.525l1.422-1.939,54.3-10.343,1.422,1.422,89.726-17.325L146.4,581.869s-2.069,3.361-16.161,2.327c0,0-7.24-.776-8.274-2.327l1.164-15.515,5.042-9.826s1.681-1.681,5.3-1.422l25.728,3.879s4.267,1.034,6.594,3.362l57.921,10.343" transform="translate(5.771 161.844)"/>
        <path id="Path_240" data-name="Path 240" class="cls-4" d="M210.376,533.029a17.575,17.575,0,0,1,9.7,2.456l.517,6.206a3.345,3.345,0,0,1,1.422,1.422l.259,4.266a4.974,4.974,0,0,1,1.81,1.81l.9,35.683c1.422,2.2.776,3.361.776,3.361-4.267,5.947-23.272,5.947-23.272,5.947-23.143-.129-24.823-5.818-25.082-7.5a2.176,2.176,0,0,1,1.164-2.327v-4.784s.776-28.831.776-30.253,1.81-1.681,1.81-1.681l.517-4.784c0-.776,1.422-1.034,1.422-1.034l.517-6.077c.517-1.681,7.887-2.844,7.887-2.844v1.681a37.853,37.853,0,0,0,19.005,0v-1.551Z" transform="translate(51.307 155.348)"/>
        <path id="Path_241" data-name="Path 241" class="cls-4" d="M327.735,385.216v-31.8a8.229,8.229,0,0,0-2.586-5.3c-2.456-2.2-25.858-18.1-25.858-18.1H285.717v-8.145s-1.164-6.206,5.818-7.886,115.066-1.939,123.987,1.164a91.068,91.068,0,0,1,13.7,5.818s3.361,2.586,3.879,4.654a16.673,16.673,0,0,1,0,5.3s-5.947,1.81-26.633,1.81l-18.488-.129-23.4,15.644a8.1,8.1,0,0,0-3.361,6.077c-.388,4.267-.776,19.652-.776,19.652" transform="translate(83.016 90.871)"/>
        <path id="Path_242" data-name="Path 242" class="cls-4" d="M124.785,599.6l-2.327,1.034L55.616,589.259s-5.43.905-8.792-10.343l-2.586-40.467s0-10.6,1.551-14.61l-1.034-8.145s-.517-4.267,1.293-6.982,11.636-16.549,11.636-16.549a6.556,6.556,0,0,0,.646-4.137c-.259-2.844-2.586-20.428-2.586-20.428l-17.2-73.953a6.284,6.284,0,0,1,.388-5.042c1.422-2.327,2.974-4.784,2.974-4.784s-22.755-89.6-24.048-116.23S11.4,178.382,11.4,178.382s0-25.858,16.42-43.053a355.138,355.138,0,0,1,33.615-30.641S67.9,100.421,68.157,93.7L79.147,23.237s1.681-9.955,9.309-13.575C92.2,7.851,95.954,5.783,98.8,4.1A24.441,24.441,0,0,1,110.693.611c10.86-.259,32.71.259,54.43,7.628.129,0,.259.129.388.129,0,0,16.42,1.939,24.565,20.686s17.2,50.81,17.2,50.81,8.662,32.322,27.538,41.114c19.005,8.792,50.81,34.649,50.81,34.649s23.66,14.222,11.377,50.164-16.42,47.449-16.42,47.449-8.4,27.15,6.723,62.963,38.4,71.108,38.4,71.108,34,48.742,8.145,92.441c0,0-17.454,23.53-18.747,24.565s8.4,14.48,8.4,14.48,19.005,2.844,25.211,0,10.6,1.939,46.156-31.417,73.694-18.488,73.694-18.488,29.478,8.4,51.457,42.406-15.9,89.6-15.9,89.6-4.525,9.955-33.227,5.43L357.762,624.037l-1.551,2.327s-10.084,4.525-19.652,4.525l-22.625,1.551-9.438,1.034s-17.2-13.963-147-30.641" transform="translate(2.696 -0.562)"/>
        <path id="Path_243" data-name="Path 243" class="cls-5" d="M35,298.289a8.367,8.367,0,0,1,5.689-4.4c4.4-1.164,14.48-1.293,14.48-1.293s5.559,3.232,8.921,5.689L84.517,413.872l-4.913.646.517,2.844s9.438,3.361,14.61,17.066a183.046,183.046,0,0,0,9.438,21.462l2.456-1.164s2.974-.129,2.974.776a12.962,12.962,0,0,1-1.293,3.361l10.084,2.456.905,18.747.129,13.446a7.833,7.833,0,0,0,1.81,1.293v6.077s-2.456-.129-2.2,1.293-1.422,11.894-1.422,11.894" transform="translate(9.608 84.97)"/>
        <path id="Path_244" data-name="Path 244" class="cls-5" d="M104.176,442.062l-5.818.388s-3.749.388-5.3-2.715-7.757-1.551-7.757-1.551l.388-17.2,2.069-.388,6.723.905" transform="translate(24.34 122.458)"/>
        <path id="Path_245" data-name="Path 245" class="cls-5" d="M90.919,418.8,79.8,422.291l7.111,1.293" transform="translate(22.729 121.931)"/>
        <path id="Path_246" data-name="Path 246" class="cls-5" d="M87.238,434.141l-9.438-.776.388-11.765" transform="translate(22.143 122.751)"/>
        <path id="Path_247" data-name="Path 247" class="cls-5" d="M37.9,410.648l3.491,19.135s1.422,12.541,12.024,12.024c10.6-.388,7.757-20.557,7.757-20.557L58.2,397.072s-.905-6.723,3.491-7.5c4.266-.776,17.066-2.974,17.066-2.974" transform="translate(10.457 112.5)"/>
        <path id="Path_248" data-name="Path 248" class="cls-6" d="M57.983,435.717,55.01,418l6.335-17.712L48.157,299.059s-3.879-5.43-7.757-5.559" transform="translate(11.189 85.233)"/>
        <path id="Path_249" data-name="Path 249" class="cls-7" d="M69.83,413.171a62.57,62.57,0,0,1-11.377-33.227C57.806,360.551,51.6,297.2,51.6,297.2" transform="translate(14.47 86.317)"/>
        <line id="Line_95" data-name="Line 95" class="cls-6" x2="92.312" y2="6.982" transform="translate(94.901 433.939)"/>
        <path id="Path_250" data-name="Path 250" class="cls-8" d="M153.257,347.979l-18.617.646a86.968,86.968,0,0,1-13.446-.646C115.246,347.074,83.7,344.1,83.7,344.1" transform="translate(23.871 100.053)"/>
        <line id="Line_96" data-name="Line 96" class="cls-8" x1="89.338" y1="2.715" transform="translate(381.661 420.881)"/>
        <path id="Path_251" data-name="Path 251" class="cls-8" d="M306.8,333.5l37.106,1.034s9.7.388,13.575,0c3.749-.388,12.67-.388,12.67-.388" transform="translate(89.212 96.948)"/>
        <path id="Path_252" data-name="Path 252" class="cls-5" d="M414.411,432.14s4.266-23.918-26.245-50.422S327.4,364.781,327.4,364.781" transform="translate(95.246 105.617)"/>
        <path id="Path_253" data-name="Path 253" class="cls-5" d="M201.753,518.292l-44.734,6.335-.388,2.586-17.066,3.62s-22.755,4.008-31.417-3.491l2.586-33.615s8.533,5.818,28.314,3.361c0,0,3.749-1.422.9-2.715V489.2l1.034-1.034,2.974-119.979s1.293-4.266,2.844-4.525,23.143-15.644,23.143-15.644l51.844-1.81V335.35s.129-5.3-5.947-8.016c0,0-61.8-9.438-93.863-6.723L78.025,321.9l-10.989,6.465s-4.266,1.034-3.62,10.472l13.963,2.327,27.409,22.108s3.1.905,2.974,8.145l3.232,84.037" transform="translate(17.911 93.03)"/>
        <path id="Path_254" data-name="Path 254" class="cls-5" d="M155.13,7.53s-42.406-8.4-54.042-5.818-12.67,12.282-12.67,12.282L82.6,76.7S83.633,91.179,72,99.066c-11.636,8.016-33.227,29.09-33.227,29.09s-6.206,2.844-2.844,20.3c3.491,17.454,5.559,26.892,5.559,26.892s8.145,50.034,27.8,79.124c0,0,30.641,66.842,67.1,119.2l21.72,39.95" transform="translate(9.587 -0.37)"/>
        <path id="Path_255" data-name="Path 255" class="cls-5" d="M131.322,384.328S81.8,288.526,53.878,246.249c0,0-32.71-79.771-32.71-115.971,0,0-2.715-12.929,8.145-29.478" transform="translate(5.469 28.796)"/>
        <path id="Path_256" data-name="Path 256" class="cls-5" d="M56.519,110.566,77.335,95.31s4.008-3.749,7.5,1.164,4.008,11.636,4.008,11.636v43.7s0,8.274-5.3,11.507-29.478,8.145-29.478,8.145-2.974-.129-3.749-10.989c-.517-7.369,2.456-27.538,4.525-39.821C55.744,114.574,56.519,110.566,56.519,110.566Z" transform="translate(14.075 26.787)"/>
        <path id="Path_257" data-name="Path 257" class="cls-5" d="M50.3,155.683s13.575-5.172,15.385-6.464,1.681-4.4,1.681-4.4L66.332,107.2l-11.507,9.309" transform="translate(14.089 30.67)"/>
        <path id="Path_258" data-name="Path 258" class="cls-5" d="M50.3,158.34l28.314-6.464s4.008-.129,3.62-6.464.517-38.269.517-38.269.776-9.7-6.206-5.947S54.7,117.744,54.7,117.744" transform="translate(14.089 28.659)"/>
        <path id="Path_259" data-name="Path 259" class="cls-5" d="M92.085,101.783s-10.214,32.71-3.232,87.011c0,0,3.62,14.739,10.084,15.515a17.787,17.787,0,0,0,10.731-1.939s13.7-12.412,29.478-13.575,32.063-4.008,53.008,16.032c0,0,9.826,9.05,16.678,4.4,0,0,2.974.517,5.689-4.008,0,0-2.327-18.488-1.939-29.348,0,0-3.1-33.227-1.681-39.691a70.459,70.459,0,0,0,1.681-13.187s-2.456-15.256-15.773-13.834c0,0-10.6,2.327-16.549,7.369-6.077,5.042-33.356,6.077-58.438-10.6,0,0-10.084-7.887-10.731-8.145S100.618,90.147,92.085,101.783Z" transform="translate(24.665 27.166)"/>
        <path id="Path_260" data-name="Path 260" class="cls-8" d="M94.6,200.854s29.219-25.47,37.364-53.654c4.137-14.48-1.034-30.383-13.058-43.7" transform="translate(27.063 29.586)"/>
        <path id="Path_261" data-name="Path 261" class="cls-5" d="M90.1,104.3s.388,83.52.776,90.114" transform="translate(25.745 29.821)"/>
        <path id="Path_262" data-name="Path 262" class="cls-8" d="M161.7,109.759s14.222-4.137,18.617,20.557,11.119,58.826,8.533,73.048" transform="translate(46.716 31.343)"/>
        <path id="Path_263" data-name="Path 263" class="cls-5" d="M154.5,115.773s2.069-9.05,6.464-10.472,3.749-2.715,11.765,1.81" transform="translate(44.607 29.725)"/>
        <path id="Path_264" data-name="Path 264" class="cls-5" d="M184.3,118l9.567,7.24s5.818,3.232,6.852,11.507,2.974,24.306,2.974,24.306,1.293,18.617-14.092,17.325l-5.172-1.681" transform="translate(53.335 33.833)"/>
        <path id="Path_265" data-name="Path 265" class="cls-5" d="M182.5,133.094a3.711,3.711,0,0,1,1.422,1.939c.388,1.293,3.1,27.538,3.1,27.538s.259,2.974-2.069,2.069L190,166.579s4.525.646,4.913-3.879-2.715-27.28-2.715-27.28-1.164-3.62-2.456-4.913-6.206-4.008-6.206-4.008" transform="translate(52.807 36.323)"/>
        <path id="Path_266" data-name="Path 266" class="cls-8" d="M200.614,163.2s4.525,8.145-.259,20.945-21.074,41.889-22.5,56.5c-1.551,14.61-5.43,8.4-1.939,37.493s23.013,91.536,23.013,91.536" transform="translate(50.466 47.071)"/>
        <path id="Path_267" data-name="Path 267" class="cls-8" d="M56.6,153.7s17.842,18.747,25.211,44.863,9.7,56.24,9.7,56.24L131.07,330.7" transform="translate(15.934 44.289)"/>
        <path id="Path_268" data-name="Path 268" class="cls-5" d="M86.6,417.029s8.145-3.491,15.9-12.929" transform="translate(24.72 117.626)"/>
        <path id="Path_269" data-name="Path 269" class="cls-5" d="M142.3,347.1s4.525,26.116-17.2,57.792" transform="translate(35.996 100.932)"/>
        <path id="Path_270" data-name="Path 270" class="cls-5" d="M124.4,426.047s12.541-12.929,17.066-24.177,24.435-24.048,32.71-25.6,26.375-12.024,69.815,18.747,43.441,42.019,43.441,42.019,11.507,47.061,16.678,57.016,9.179,21.85.776,27.538" transform="translate(35.791 108.608)"/>
        <path id="Path_271" data-name="Path 271" class="cls-5" d="M274.334,521.438s-1.164-72.4-20.427-94.9c0,0-38.528-44.992-71.625-45.639S131.6,412.836,131.6,412.836" transform="translate(37.9 110.829)"/>
        <path id="Path_272" data-name="Path 272" class="cls-5" d="M247.1,416.3s18.488,6.852,18.1,26.245-.129,29.866-.129,29.866" transform="translate(71.727 121.199)"/>
        <path id="Path_273" data-name="Path 273" class="cls-5" d="M237.1,413.127l47.707-3.1s25.728-9.438,41.114-30.124" transform="translate(68.799 110.538)"/>
        <path id="Path_274" data-name="Path 274" class="cls-5" d="M244.03,435.857s24.953-35.166,15.256-70.2c-9.7-35.166-37.752-87.916-37.752-87.916s-16.549-51.457-2.327-72.789,21.85-65.549,21.85-65.549" transform="translate(61.868 40.101)"/>
        <line id="Line_97" data-name="Line 97" class="cls-5" x2="1.164" y2="36.718" transform="translate(177.516 470.657)"/>
        <path id="Path_275" data-name="Path 275" class="cls-5" d="M177.8,325.52s20.686-1.422,33.873-2.586c5.818-.517,10.214-1.034,10.731-1.293,1.681-1.034,16.937,1.939,23.143,18.23s17.066,66.454,2.327,84.554" transform="translate(51.431 93.422)"/>
        <path id="Path_276" data-name="Path 276" class="cls-8" d="M224.927,412.5s11.507-58.826-20.427-89.6" transform="translate(59.251 93.844)"/>
        <path id="Path_277" data-name="Path 277" class="cls-8" d="M155.811,389.607s-1.551-36.071-7.111-47.707" transform="translate(42.908 99.409)"/>
        <path id="Path_278" data-name="Path 278" class="cls-5" d="M123.6,455.9l1.81,19.005,16.937-2.586" transform="translate(35.557 132.797)"/>
        <path id="Path_279" data-name="Path 279" class="cls-8" d="M84.9,1.8s23.66,65.42,12.024,122.048" transform="translate(24.223 -0.199)"/>
        <line id="Line_98" data-name="Line 98" class="cls-8" y1="27.668" x2="9.955" transform="translate(103.046 146.662)"/>
        <path id="Path_280" data-name="Path 280" class="cls-8" d="M157.1,142.524s6.077-33.227,2.586-52.1S144.3,14.4,144.3,14.4" transform="translate(41.619 3.491)"/>
        <path id="Path_281" data-name="Path 281" class="cls-5" d="M274,404.148s83.261-10.6,131.744,1.939c0,0,23.918,3.879,27.15,23.66s2.974,34.261-1.293,44.216A36.358,36.358,0,0,1,419.19,489.09" transform="translate(79.606 116.414)"/>
        <path id="Path_282" data-name="Path 282" class="cls-5" d="M181.1,540.6s22.237,9.309,38.916,0" transform="translate(52.397 157.604)"/>
        <path id="Path_283" data-name="Path 283" class="cls-5" d="M179.6,545.117s1.293,6.982,22.755,6.723,20.04-7.24,20.04-7.24" transform="translate(51.958 158.775)"/>
        <path id="Path_284" data-name="Path 284" class="cls-5" d="M101.808,561.538s-.259,1.293.646,1.552c.905.388,22.884,5.43,22.884,5.43a3.119,3.119,0,0,0,2.2-.646c.776-.776,3.232-5.818,3.232-5.818s1.293-2.456,2.974-1.939l8.145.905" transform="translate(29.164 163.299)"/>
        <path id="Path_285" data-name="Path 285" class="cls-5" d="M262.2,563.058a8.135,8.135,0,0,0,2.974-.388c1.551-.517,5.172-1.681,7.111.646a10.07,10.07,0,0,1,2.069,4.525s.259,3.232,3.361,2.715,23.4-4.008,23.4-4.008,1.552-.646,1.293-1.939" transform="translate(76.15 163.847)"/>
        <path id="Path_286" data-name="Path 286" class="cls-5" d="M378.768,612.041s-2.844.129-5.171,5.559a4.276,4.276,0,0,1-4.4,2.715l-50.552-10.472a2.137,2.137,0,0,1-1.939-2.715s.517-3.62,1.681-4.008,4.266-3.62,4.266-3.62" transform="translate(92.102 174.854)"/>
        <path id="Path_287" data-name="Path 287" class="cls-5" d="M184.488,654.642l5.43-3.491a4.309,4.309,0,0,1,3.232-.905c2.2.129,5.559.129,5.559.129a5.324,5.324,0,0,1,4.008,1.164c1.939,1.552,5.43,3.879,5.43,3.879l2.2-23.66-.517-2.327s-2.327-4.267-6.335-5.042L193.021,624a8.013,8.013,0,0,0-5.042,1.81,30.685,30.685,0,0,0-3.62,3.491l-.259,25.6Z" transform="translate(53.276 182.029)"/>
        <path id="Path_288" data-name="Path 288" class="cls-5" d="M26,607.089s3.1,1.422,5.172,6.594c0,0,1.164,3.1,5.3,2.327s49.905-8.145,49.905-8.145,1.939-.776,1.681-2.327c-.259-1.681-.517-4.137-.517-4.137l-2.974-3.62-1.81-1.681" transform="translate(6.972 173.858)"/>
        <path id="Path_289" data-name="Path 289" class="cls-5" d="M24.1,605.7l8.016,9.7-.776,19.264" transform="translate(6.416 176.67)"/>
        <path id="Path_290" data-name="Path 290" class="cls-5" d="M30.7,619.16l163.937-25.728s22.625-3.232,33.615,5.559L226.7,667.9" transform="translate(8.349 172.907)"/>
        <line id="Line_99" data-name="Line 99" class="cls-5" x1="2.456" y2="57.145" transform="translate(257.028 749.272)"/>
        <line id="Line_100" data-name="Line 100" class="cls-5" y2="56.887" transform="translate(245.263 749.272)"/>
        <path id="Path_291" data-name="Path 291" class="cls-5" d="M368.521,610,359.6,620.731l.259,17.2" transform="translate(104.676 177.929)"/>
        <path id="Path_292" data-name="Path 292" class="cls-5" d="M404.66,625.872,237.491,593.55s-23.272-4.654-28.831,5.172L203.1,664.658" transform="translate(58.841 172.789)"/>
        <line id="Line_101" data-name="Line 101" class="cls-5" x1="135.623" y1="31.158" transform="translate(273.06 746.687)"/>
        <line id="Line_102" data-name="Line 102" class="cls-5" x1="50.422" y1="11.636" transform="translate(276.421 743.066)"/>
        <line id="Line_103" data-name="Line 103" class="cls-5" y1="12.282" x2="72.272" transform="translate(276.421 727.81)"/>
        <line id="Line_104" data-name="Line 104" class="cls-5" y1="16.807" x2="79.383" transform="translate(299.434 731.301)"/>
        <path id="Path_293" data-name="Path 293" class="cls-5" d="M276.6,578.843l14.868-4.266s2.586-1.034,3.749.517" transform="translate(80.367 167.456)"/>
        <line id="Line_105" data-name="Line 105" class="cls-5" y1="9.826" x2="48.354" transform="translate(179.714 742.679)"/>
        <line id="Line_106" data-name="Line 106" class="cls-5" x1="74.858" y1="18.747" transform="translate(129.421 728.198)"/>
        <path id="Path_294" data-name="Path 294" class="cls-5" d="M122.305,577.118l-15.256-5.042s-2.974-.9-3.749.259" transform="translate(29.611 166.724)"/>
        <path id="Path_295" data-name="Path 295" class="cls-5" d="M186.2,667.1v9.826l1.293,1.034.259,43.57H202.62V677.572l1.681-.9.129-9.567" transform="translate(53.891 194.653)"/>
        <path id="Path_296" data-name="Path 296" class="cls-5" d="M186.4,668s9.826,5.689,17.583,0" transform="translate(53.95 194.916)"/>
        <path id="Path_297" data-name="Path 297" class="cls-5" d="M200.644,674.5l8.016.129s3.1-.129,3.1,2.457.129,53.654.129,53.654-.129,2.327-1.551,2.327-9.567.129-9.567.129-2.327-1.551-2.069-7.24,0-6.335,0-6.335" transform="translate(57.548 196.82)"/>
        <path id="Path_298" data-name="Path 298" class="cls-5" d="M188.777,674.706h-8.533s-2.715-.517-2.715,2.974-.129,53.4-.129,53.4,0,2.456,2.974,2.456h8.533a1.7,1.7,0,0,0,1.422-1.164c.259-1.034.129-13.058.129-13.058" transform="translate(51.314 196.872)"/>
        <path id="Path_299" data-name="Path 299" class="cls-5" d="M344.842,668.876s-4.266-16.937,9.438-24.953c13.834-8.145,29.478,3.749,32.71,10.472,3.361,6.723,12.024,25.34-5.559,35.3C363.977,699.776,346.264,678.572,344.842,668.876Z" transform="translate(100.17 187.059)"/>
        <path id="Path_300" data-name="Path 300" class="cls-5" d="M350.7,630.8s.646,3.1,7.628,3.362,8.274-.129,9.179-2.715" transform="translate(102.07 184.021)"/>
        <line id="Line_107" data-name="Line 107" class="cls-5" y2="16.937" transform="translate(452.77 815.726)"/>
        <path id="Path_301" data-name="Path 301" class="cls-5" d="M367.937,631.5v7.111s-12.67.776-16.937,8.533" transform="translate(102.158 184.226)"/>
        <path id="Path_302" data-name="Path 302" class="cls-5" d="M364.3,635.525a17.348,17.348,0,0,1,12.67-.517c7.24,2.327,13.446,5.559,19.135,17.842a24.248,24.248,0,0,1-1.164,22.367s-5.042,7.628-13.058,11.636" transform="translate(106.053 184.985)"/>
        <path id="Path_303" data-name="Path 303" class="cls-5" d="M354.4,640.2s16.937-5.559,28.314,6.206,9.7,21.85,9.7,21.85,0,8.921-5.3,15.385" transform="translate(103.153 186.389)"/>
        <path id="Path_304" data-name="Path 304" class="cls-5" d="M364.4,636.227s12.412-1.681,21.2,7.628a33.142,33.142,0,0,1,9.179,19.652,25.056,25.056,0,0,1-8.533,19.264" transform="translate(106.082 185.576)"/>
        <line id="Line_108" data-name="Line 108" class="cls-5" y1="2.586" x2="4.396" transform="translate(494.917 857.745)"/>
        <path id="Path_305" data-name="Path 305" class="cls-5" d="M348.015,665.151s-1.81-16.808,13.317-19.005,22.108,14.48,22.108,14.48,6.852,19.135-9.179,24.047C356.936,689.844,348.145,670.581,348.015,665.151Z" transform="translate(101.264 188.457)"/>
        <path id="Path_306" data-name="Path 306" class="cls-5" d="M355,661.959a11.3,11.3,0,0,0,9.05,10.731c9.179,2.327,8.016-10.731,8.016-10.731S370,654.46,362.5,654.2,355,661.959,355,661.959Z" transform="translate(103.329 190.873)"/>
        <path id="Path_307" data-name="Path 307" class="cls-5" d="M358.7,654.861s1.939-1.551,2.844-1.551c1.034.129,6.076-1.164,9.7,4.525,4.654,7.5-2.715,14.222-2.715,14.222" transform="translate(104.413 190.601)"/>
        <path id="Path_308" data-name="Path 308" class="cls-8" d="M351,651.232l1.551.517,6.723,4.654,1.164-.647-4.137-6.335L353.715,648" transform="translate(102.158 189.059)"/>
        <path id="Path_309" data-name="Path 309" class="cls-8" d="M355.1,647.234l1.552,1.164,3.62,5.559s1.681.388,1.81-.776h0l-1.293-5.171L359.5,646.2" transform="translate(103.358 188.532)"/>
        <path id="Path_310" data-name="Path 310" class="cls-8" d="M360.3,645.9l1.034,1.681,1.293,5.689s1.164,1.293,1.939.388l.905-5.042-.388-1.681" transform="translate(104.881 188.444)"/>
        <path id="Path_311" data-name="Path 311" class="cls-8" d="M366.076,647.3l.129,1.293-.9,5.559s.9,1.164,1.681.905l2.586-4.137.517-1.422" transform="translate(106.346 188.854)"/>
        <path id="Path_312" data-name="Path 312" class="cls-8" d="M371.044,650.5l-.259,1.293-2.586,3.62s0,1.681,1.551,1.681l4.4-2.974" transform="translate(107.195 189.791)"/>
        <path id="Path_313" data-name="Path 313" class="cls-8" d="M375.121,655.2l-4.525,2.456s-1.293,2.069.646,2.327l5.818-1.422" transform="translate(107.773 191.167)"/>
        <path id="Path_314" data-name="Path 314" class="cls-8" d="M377.506,660.759l-5.43-.259s-2.456.905-.388,2.2l6.464,2.586" transform="translate(107.974 192.72)"/>
        <path id="Path_315" data-name="Path 315" class="cls-8" d="M376.668,671.6l-1.551-2.069-4.654-4.008s-1.034-2.2.9-1.81,6.464,3.62,6.464,3.62" transform="translate(107.777 193.646)"/>
        <path id="Path_316" data-name="Path 316" class="cls-8" d="M371.963,676.827l-.129-2.456a5.562,5.562,0,0,0-.776-2.327c-.646-.905-2.327-3.361-2.327-3.361s-.905-3.1,1.939-1.81l3.749,4.525,1.164,2.2" transform="translate(107.31 194.493)"/>
        <path id="Path_317" data-name="Path 317" class="cls-8" d="M365.988,678.464l.646-2.327a6.284,6.284,0,0,0-.129-3.1l-.905-3.361s.517-2.069,2.2-.776l1.81,3.491a7.474,7.474,0,0,1,.905,2.327l.129,2.327" transform="translate(106.434 195.054)"/>
        <path id="Path_318" data-name="Path 318" class="cls-8" d="M360.4,677.95l1.293-1.81a4.638,4.638,0,0,0,.776-2.715l.646-4.525" transform="translate(104.911 195.18)"/>
        <path id="Path_319" data-name="Path 319" class="cls-8" d="M363.9,669l1.422,5.559-1.164,3.749" transform="translate(105.936 195.209)"/>
        <path id="Path_320" data-name="Path 320" class="cls-8" d="M355.1,674.682l1.81-1.551,3.361-5.43" transform="translate(103.358 194.829)"/>
        <path id="Path_321" data-name="Path 321" class="cls-8" d="M361.708,668.4l-1.164,6.206-2.844,2.069" transform="translate(104.12 195.033)"/>
        <path id="Path_322" data-name="Path 322" class="cls-8" d="M351.3,669.625l2.069-1.81,4.4-2.715" transform="translate(102.245 194.067)"/>
        <path id="Path_323" data-name="Path 323" class="cls-8" d="M358.854,666.7l-3.1,4.137-1.551,2.456" transform="translate(103.095 194.535)"/>
        <path id="Path_324" data-name="Path 324" class="cls-8" d="M350.2,667.508l1.681-1.164a13.037,13.037,0,0,1,2.2-1.164,21.441,21.441,0,0,0,2.974-1.681" transform="translate(101.923 193.598)"/>
        <path id="Path_325" data-name="Path 325" class="cls-8" d="M356.916,661.9l-3.749.258-4.266,1.422" transform="translate(101.542 193.13)"/>
        <path id="Path_326" data-name="Path 326" class="cls-8" d="M348.2,661.134l4.008-.905,4.4-.129" transform="translate(101.337 192.603)"/>
        <path id="Path_327" data-name="Path 327" class="cls-8" d="M357.092,659.169l-6.077-1.939L348.3,657.1" transform="translate(101.367 191.724)"/>
        <path id="Path_328" data-name="Path 328" class="cls-8" d="M348.6,655l2.844.259,6.077,2.2" transform="translate(101.455 191.109)"/>
        <path id="Path_329" data-name="Path 329" class="cls-8" d="M357.887,656.725l-4.913-3.749L350,652.2" transform="translate(101.865 190.289)"/>
        <path id="Path_330" data-name="Path 330" class="cls-5" d="M57,665.164s4.267-16.937-9.438-24.953-29.478,3.749-32.71,10.472-12.024,25.34,5.43,35.3C37.867,696.063,55.579,674.86,57,665.164Z" transform="translate(2.216 185.988)"/>
        <path id="Path_331" data-name="Path 331" class="cls-5" d="M44.107,627.2s-.646,3.1-7.628,3.361-8.274-.129-9.179-2.715" transform="translate(7.353 182.967)"/>
        <line id="Line_109" data-name="Line 109" class="cls-5" y2="16.937" transform="translate(51.46 810.943)"/>
        <path id="Path_332" data-name="Path 332" class="cls-5" d="M26.9,627.8v7.111s12.67.776,16.937,8.533" transform="translate(7.236 183.143)"/>
        <path id="Path_333" data-name="Path 333" class="cls-5" d="M34.374,631.924a17.349,17.349,0,0,0-12.67-.517c-7.24,2.327-13.317,5.559-19.005,17.842a24.248,24.248,0,0,0,1.164,22.367S8.9,679.244,16.92,683.252" transform="translate(-0.497 183.931)"/>
        <path id="Path_334" data-name="Path 334" class="cls-5" d="M45.23,636.5s-16.937-5.559-28.314,6.206-9.7,21.979-9.7,21.979,0,8.921,5.3,15.385" transform="translate(1.446 185.305)"/>
        <path id="Path_335" data-name="Path 335" class="cls-5" d="M33.488,632.627s-12.412-1.681-21.2,7.628a33.141,33.141,0,0,0-9.179,19.652,25.057,25.057,0,0,0,8.533,19.264" transform="translate(0.26 184.522)"/>
        <line id="Line_110" data-name="Line 110" class="cls-5" x1="4.396" y1="2.586" transform="translate(4.917 853.09)"/>
        <path id="Path_336" data-name="Path 336" class="cls-5" d="M51.355,661.451s1.81-16.807-13.317-19.005-22.108,14.48-22.108,14.48-6.852,19.135,9.179,24.048C42.434,686.145,51.225,666.881,51.355,661.451Z" transform="translate(3.596 187.373)"/>
        <path id="Path_337" data-name="Path 337" class="cls-5" d="M39.877,658.259a11.3,11.3,0,0,1-9.05,10.731c-9.179,2.327-8.016-10.731-8.016-10.731s2.069-7.5,9.567-7.757S39.877,658.259,39.877,658.259Z" transform="translate(6.024 189.789)"/>
        <path id="Path_338" data-name="Path 338" class="cls-5" d="M35.49,651.174s-1.939-1.552-2.844-1.552a9.348,9.348,0,0,0-9.7,4.525c-4.654,7.5,2.715,14.222,2.715,14.222" transform="translate(5.627 189.505)"/>
        <path id="Path_339" data-name="Path 339" class="cls-8" d="M42.138,647.532l-1.551.646L33.864,652.7l-1.164-.646,4.137-6.335,2.586-1.422" transform="translate(8.934 187.975)"/>
        <path id="Path_340" data-name="Path 340" class="cls-8" d="M37.482,643.534,35.93,644.7l-3.62,5.559s-1.681.388-1.81-.776h0l1.293-5.172,1.293-1.81" transform="translate(8.29 187.448)"/>
        <path id="Path_341" data-name="Path 341" class="cls-8" d="M31.872,642.2l-1.034,1.681-1.293,5.689s-1.164,1.293-1.939.388l-.905-5.042.388-1.681" transform="translate(7.177 187.36)"/>
        <path id="Path_342" data-name="Path 342" class="cls-8" d="M26.008,643.6l-.129,1.293.905,5.559s-.905,1.164-1.681.9l-2.586-4.137L22,645.8" transform="translate(5.8 187.77)"/>
        <path id="Path_343" data-name="Path 343" class="cls-8" d="M21.3,646.9l.259,1.293,2.586,3.62s0,1.681-1.551,1.681l-4.4-2.974" transform="translate(4.688 188.737)"/>
        <path id="Path_344" data-name="Path 344" class="cls-8" d="M17.439,651.6l4.525,2.457s1.293,2.069-.646,2.327L15.5,654.962" transform="translate(3.897 190.113)"/>
        <path id="Path_345" data-name="Path 345" class="cls-8" d="M15.146,657.159l5.43-.259s2.456.905.388,2.2L14.5,661.684" transform="translate(3.604 191.665)"/>
        <path id="Path_346" data-name="Path 346" class="cls-8" d="M16.064,668l1.551-2.069,4.654-4.008s1.034-2.2-.905-1.81-6.464,3.62-6.464,3.62" transform="translate(3.721 192.592)"/>
        <path id="Path_347" data-name="Path 347" class="cls-8" d="M20.62,673.127l.129-2.456a5.561,5.561,0,0,1,.776-2.327c.646-.9,2.327-3.361,2.327-3.361s.905-3.1-1.939-1.81L18.164,667.7,17,669.894" transform="translate(4.336 193.41)"/>
        <path id="Path_348" data-name="Path 348" class="cls-8" d="M26.154,674.764l-.646-2.327a6.284,6.284,0,0,1,.129-3.1l.905-3.361s-.517-2.069-2.2-.776l-1.81,3.491a7.475,7.475,0,0,0-.905,2.327l-.129,2.327" transform="translate(5.654 193.971)"/>
        <path id="Path_349" data-name="Path 349" class="cls-8" d="M31.215,674.25l-1.293-1.81a4.638,4.638,0,0,1-.776-2.715L28.5,665.2" transform="translate(7.704 194.096)"/>
        <path id="Path_350" data-name="Path 350" class="cls-8" d="M27.422,665.3,26,670.989l1.164,3.749" transform="translate(6.972 194.125)"/>
        <path id="Path_351" data-name="Path 351" class="cls-8" d="M37.072,670.952l-1.81-1.551L31.9,664.1" transform="translate(8.7 193.774)"/>
        <path id="Path_352" data-name="Path 352" class="cls-8" d="M30.2,664.8l1.164,6.077,2.715,2.2" transform="translate(8.202 193.979)"/>
        <path id="Path_353" data-name="Path 353" class="cls-8" d="M41.164,665.925l-2.069-1.81L34.7,661.4" transform="translate(9.52 192.983)"/>
        <path id="Path_354" data-name="Path 354" class="cls-8" d="M33.2,663l3.1,4.266,1.551,2.327" transform="translate(9.081 193.452)"/>
        <path id="Path_355" data-name="Path 355" class="cls-8" d="M42.252,663.908l-1.681-1.164a13.052,13.052,0,0,0-2.2-1.164A21.43,21.43,0,0,1,35.4,659.9" transform="translate(9.725 192.544)"/>
        <path id="Path_356" data-name="Path 356" class="cls-8" d="M35.9,658.2l3.749.388,4.267,1.293" transform="translate(9.871 192.046)"/>
        <path id="Path_357" data-name="Path 357" class="cls-8" d="M44.7,657.434l-4.008-.9-4.4-.129" transform="translate(9.989 191.519)"/>
        <path id="Path_358" data-name="Path 358" class="cls-8" d="M35.9,655.439l6.077-1.81,2.715-.129" transform="translate(9.871 190.67)"/>
        <path id="Path_359" data-name="Path 359" class="cls-8" d="M44.292,651.3l-2.844.388L35.5,653.757" transform="translate(9.754 190.025)"/>
        <path id="Path_360" data-name="Path 360" class="cls-8" d="M34.9,653.125l4.784-3.879,3.1-.646" transform="translate(9.579 189.234)"/>
        <path id="Path_361" data-name="Path 361" class="cls-5" d="M209,688.8h1.034V710h-.9" transform="translate(60.569 201.008)"/>
        <path id="Path_362" data-name="Path 362" class="cls-5" d="M177.234,689.1H176.2v21.332h.9" transform="translate(50.962 201.096)"/>
        <path id="Path_363" data-name="Path 363" class="cls-5" d="M279.5,579.7s-.129,2.974,7.5,3.1,6.852-2.715,6.852-2.715" transform="translate(81.217 169.055)"/>
        <line id="Line_111" data-name="Line 111" class="cls-5" y2="12.541" transform="translate(360.587 749.143)"/>
        <path id="Path_364" data-name="Path 364" class="cls-5" d="M292.523,580.1l.259,7.628a27.508,27.508,0,0,0-6.982,6.982" transform="translate(83.062 169.172)"/>
        <path id="Path_365" data-name="Path 365" class="cls-5" d="M280.559,583.5s-4.266,2.974-5.559,6.852" transform="translate(79.899 170.168)"/>
        <path id="Path_366" data-name="Path 366" class="cls-5" d="M291.2,580.8l20.557,7.628s6.206,2.974,7.628,13.575" transform="translate(84.643 169.377)"/>
        <path id="Path_367" data-name="Path 367" class="cls-5" d="M291.2,586.669s5.559-3.62,10.99-2.844" transform="translate(84.643 170.231)"/>
        <path id="Path_368" data-name="Path 368" class="cls-5" d="M295.1,594.288s3.491-5.171,9.05-4.784a11.766,11.766,0,0,1,10.472,9.05" transform="translate(85.786 171.921)"/>
        <line id="Line_112" data-name="Line 112" class="cls-5" x2="0.388" y2="3.103" transform="translate(383.73 763.753)"/>
        <path id="Path_369" data-name="Path 369" class="cls-5" d="M299.576,590.1l-.776,1.81.259,3.232" transform="translate(86.869 172.101)"/>
        <path id="Path_370" data-name="Path 370" class="cls-5" d="M302.356,589.7l-1.293,1.551-1.164,4.266" transform="translate(87.191 171.984)"/>
        <path id="Path_371" data-name="Path 371" class="cls-5" d="M304.215,589.9l-1.551,1.81-1.164,4.137" transform="translate(87.66 172.042)"/>
        <path id="Path_372" data-name="Path 372" class="cls-5" d="M302.1,595.872l2.069-3.232,2.456-1.939" transform="translate(87.836 172.277)"/>
        <path id="Path_373" data-name="Path 373" class="cls-5" d="M308.2,591.8l-2.715,1.81-1.681,2.327" transform="translate(88.334 172.599)"/>
        <path id="Path_374" data-name="Path 374" class="cls-5" d="M305.1,596.156l2.327-1.939,2.456-.517" transform="translate(88.714 173.155)"/>
        <path id="Path_375" data-name="Path 375" class="cls-5" d="M307.4,596.176l1.034-.646,1.939-.129" transform="translate(89.388 173.653)"/>
        <path id="Path_376" data-name="Path 376" class="cls-5" d="M278,612.3s3.62,4.008,10.86,3.879" transform="translate(80.777 178.603)"/>
        <path id="Path_377" data-name="Path 377" class="cls-5" d="M281.7,612.8s.646,2.456,5.947,3.361a24,24,0,0,0,12.8,5.559c7.887.905,11.507-3.879,11.507-3.879" transform="translate(81.861 178.749)"/>
        <path id="Path_378" data-name="Path 378" class="cls-5" d="M288.1,614s2.2,4.266,10.214,7.5" transform="translate(83.735 179.101)"/>
        <path id="Path_379" data-name="Path 379" class="cls-5" d="M285.3,613.4a10.13,10.13,0,0,0,1.293,2.586" transform="translate(82.915 178.925)"/>
        <path id="Path_380" data-name="Path 380" class="cls-5" d="M106.327,592.785c.259-3.361-2.327-9.05-2.327-9.05l.388-5.818s.646,3.1,8.016,2.715,5.947-3.232,5.947-3.232l.517,8.4s0,3.361-.776,4.784" transform="translate(29.816 168.381)"/>
        <path id="Path_381" data-name="Path 381" class="cls-5" d="M107.612,579.6l-11.894,1.164s-5.3,1.681-4.913,14.868" transform="translate(25.946 169.026)"/>
        <path id="Path_382" data-name="Path 382" class="cls-5" d="M100.418,593.329s0-10.472-5.818-12.929" transform="translate(27.063 169.26)"/>
        <path id="Path_383" data-name="Path 383" class="cls-5" d="M115.4,578.359l2.069-.259s5.172,1.293,6.206,10.214" transform="translate(33.155 168.587)"/>
        <path id="Path_384" data-name="Path 384" class="cls-5" d="M104.72,582.974c-.388-.517-2.586-2.715-3.62-2.974" transform="translate(28.967 169.143)"/>
        <path id="Path_385" data-name="Path 385" class="cls-5" d="M99.087,592.765s-.129-6.335-4.008-8.4c-3.749-2.2-3.879,9.826-3.879,9.826" transform="translate(26.068 170.342)"/>
        <path id="Path_386" data-name="Path 386" class="cls-5" d="M92.3,585.8l2.715,1.293a4.708,4.708,0,0,1,1.551,2.457c.259,1.422.517,2.974.517,2.974" transform="translate(26.39 170.842)"/>
        <path id="Path_387" data-name="Path 387" class="cls-5" d="M91.5,589.2s2.844,0,4.008,1.422l.388,1.034" transform="translate(26.156 171.837)"/>
        <path id="Path_388" data-name="Path 388" class="cls-5" d="M94.8,613.081s1.422,2.844,3.361,3.232,8.792-.646,8.792-.646,2.2-2.586,2.456-4.267" transform="translate(27.122 178.339)"/>
        <path id="Path_389" data-name="Path 389" class="cls-5" d="M101.349,611.9s-.517,3.491-3.749,4.267" transform="translate(27.942 178.486)"/>
        <path id="Path_390" data-name="Path 390" class="cls-5" d="M111.3,610.981a5.98,5.98,0,0,0,3.879,3.879l7.628-.646s3.62-2.457,3.491-4.913" transform="translate(31.955 177.724)"/>
        <path id="Path_391" data-name="Path 391" class="cls-5" d="M117.92,609.8s-.517,4.008-3.62,4.913" transform="translate(32.833 177.871)"/>
        <path id="Path_392" data-name="Path 392" class="cls-5" d="M55.1,389.6s10.86,4.784,14.739,19.91c3.879,15.256,14.61,29.478,14.61,29.478" transform="translate(15.495 113.379)"/>
        <path id="Path_393" data-name="Path 393" class="cls-5" d="M80.5,431.2s9.438,12.67,16.678,11.248c7.369-1.422,8.662,9.826,8.662,9.826" transform="translate(22.934 125.563)"/>
        <path id="Path_394" data-name="Path 394" class="cls-8" d="M57.6,400.4s4.266,49.517,45.768,60.507" transform="translate(16.227 116.542)"/>
        <path id="Path_395" data-name="Path 395" class="cls-5" d="M94.332,440,91.1,444.784l2.069,4.266s4.913,12.8-1.034,18.1l1.939,3.62" transform="translate(26.038 128.14)"/>
        <path id="Path_396" data-name="Path 396" class="cls-8" d="M38.6,448.2s1.681,4.654,6.464,5.172,62.446,11.377,62.446,11.377" transform="translate(10.662 130.542)"/>
        <path id="Path_397" data-name="Path 397" class="cls-8" d="M37.926,407.4s-.259,7.24,0,12.412,1.681,24.953,1.681,24.953.517,16.42,12.67,18.747S109.422,473.6,109.422,473.6" transform="translate(10.431 118.592)"/>
        <path id="Path_398" data-name="Path 398" class="cls-8" d="M83,227.8l65.29,28.314,54.947-26.633" transform="translate(23.666 65.991)"/>
        <path id="Path_399" data-name="Path 399" class="cls-8" d="M98.6,262.311l48.483,18.23,50.681-25.34" transform="translate(28.235 74.016)"/>
        <path id="Path_400" data-name="Path 400" class="cls-8" d="M111.1,288.055l6.982,2.974L150.4,304.475,200.567,278.1" transform="translate(31.896 80.723)"/>
        <line id="Line_113" data-name="Line 113" class="cls-8" x1="27.926" y1="41.114" transform="translate(150.883 372.527)"/>
        <line id="Line_114" data-name="Line 114" class="cls-8" x1="22.755" y1="33.873" transform="translate(172.861 381.19)"/>
        <line id="Line_115" data-name="Line 115" class="cls-8" x1="24.048" y1="35.813" transform="translate(189.022 381.578)"/>
        <line id="Line_116" data-name="Line 116" class="cls-8" x1="28.573" y1="43.829" transform="translate(201.046 375.63)"/>
        <line id="Line_117" data-name="Line 117" class="cls-8" x1="30.124" y1="48.224" transform="translate(212.294 369.166)"/>
        <line id="Line_118" data-name="Line 118" class="cls-8" x2="18.23" y2="28.443" transform="translate(223.672 363.995)"/>
        <line id="Line_119" data-name="Line 119" class="cls-8" y1="15.773" x2="2.715" transform="translate(156.054 375.372)"/>
        <line id="Line_120" data-name="Line 120" class="cls-8" y1="29.995" x2="4.654" transform="translate(168.983 382.741)"/>
        <line id="Line_121" data-name="Line 121" class="cls-8" y1="32.063" x2="4.137" transform="translate(184.885 382.224)"/>
        <line id="Line_122" data-name="Line 122" class="cls-8" y1="42.794" x2="5.689" transform="translate(200.141 372.915)"/>
        <line id="Line_123" data-name="Line 123" class="cls-8" y1="52.749" x2="8.016" transform="translate(213.975 364.512)"/>
        <line id="Line_124" data-name="Line 124" class="cls-8" y1="48.354" x2="6.206" transform="translate(229.231 370.2)"/>
        <path id="Path_401" data-name="Path 401" class="cls-5" d="M196.7,478.3s9.7-.388,15.385,12.282S226.048,506.1,226.048,506.1a14.816,14.816,0,0,0,12.929-2.327l5.818-12.541" transform="translate(56.966 139.357)"/>
        <line id="Line_125" data-name="Line 125" class="cls-5" x1="9.955" y2="1.81" transform="translate(260.389 633.818)"/>
        <path id="Path_402" data-name="Path 402" class="cls-5" d="M176.6,516.435l41.114-4.4s11.377-12.8-3.62-20.04" transform="translate(51.079 143.37)"/>
        <path id="Path_403" data-name="Path 403" class="cls-5" d="M179.9,538.507a11.124,11.124,0,0,0,4.137-5.947c.9-3.749,38.269-21.979,38.269-21.979s8.4-4.654,12.024-4.654,20.557-4.008,20.557-4.008l71.5-11.119" transform="translate(52.046 143.018)"/>
        <path id="Path_404" data-name="Path 404" class="cls-5" d="M285.986,504.5l-47.578,8.016L203.5,527.772l3.232,5.689,8.662-1.422" transform="translate(58.958 147.031)"/>
        <line id="Line_126" data-name="Line 126" class="cls-5" y1="13.963" x2="9.179" transform="translate(297.883 645.325)"/>
        <path id="Path_405" data-name="Path 405" class="cls-5" d="M214.2,532.971l17.066-6.077,15.256-5.43s11.636-3.1,14.868-3.491,4.784-.517,5.042.129" transform="translate(62.092 150.882)"/>
        <path id="Path_406" data-name="Path 406" class="cls-5" d="M227.6,525.761s20.945-.388,24.694-3.361" transform="translate(66.016 152.273)"/>
        <path id="Path_407" data-name="Path 407" class="cls-5" d="M205.5,530.738l33.356-15,45.121-7.24" transform="translate(59.544 148.202)"/>
        <path id="Path_408" data-name="Path 408" class="cls-5" d="M296.7,482s22.884-3.491,38.916-3.879c0,0,5.3-.646,6.982,1.551,0,0,10.6,12.282,11.636,22.5,0,0,1.681,4.137-1.681,6.206-3.232,2.2-28.185,0-46.931-11.377L288.3,499.323" transform="translate(83.794 139.279)"/>
        <path id="Path_409" data-name="Path 409" class="cls-5" d="M340.051,480.7s-34.778,8.274-36.976,10.472-3.491,2.456-1.681,4.654" transform="translate(87.378 140.06)"/>
        <path id="Path_410" data-name="Path 410" class="cls-5" d="M125.3,504.5l23.53,25.858s1.939,2.844,7.757,1.81,17.066-4.913,21.074-9.438" transform="translate(36.055 147.031)"/>
        <path id="Path_411" data-name="Path 411" class="cls-5" d="M128.1,507.135s43.7-.776,49.517,1.164c0,0,2.844.259,2.844,1.164a37.113,37.113,0,0,1-.646,4.008" transform="translate(36.875 147.757)"/>
        <path id="Path_412" data-name="Path 412" class="cls-8" d="M295.3,313.348s68.393-1.422,95.544,3.1c0,0,11.377,7.111,17.454,7.24s20.04-.776,20.04-.776" transform="translate(85.844 90.984)"/>
        <line id="Line_127" data-name="Line 127" class="cls-8" x1="24.177" y2="0.646" transform="translate(476.688 406.789)"/>
        <path id="Path_413" data-name="Path 413" class="cls-8" d="M286.5,316.1l106.275,2.456s6.723,3.362,13.317,3.491" transform="translate(83.267 91.852)"/>
        <path id="Path_414" data-name="Path 414" class="cls-8" d="M59.2,388.6s9.826,2.715,13.446,10.86,9.567,25.211,9.567,25.211H86.48l3.1,4.913" transform="translate(16.696 113.086)"/>
        <path id="Path_415" data-name="Path 415" class="cls-5" d="M182.2,535s18.876,7.24,36.33,0" transform="translate(52.72 155.963)"/>
        <path id="Path_416" data-name="Path 416" class="cls-5" d="M182.2,535.1s20.686,7.369,36.459,0" transform="translate(52.72 155.993)"/>
        <path id="Path_417" data-name="Path 417" class="cls-8" d="M64.3,328.364l91.924,7.5a160.608,160.608,0,0,0,19.781.646c9.7-.388,39.433-1.422,39.433-1.422s6.335-.517,3.1-7.887" transform="translate(18.189 95.103)"/>
        <path id="Path_418" data-name="Path 418" class="cls-8" d="M74.5,321.3l88.562,6.464s11.377.388,19.264.388,28.573-1.293,28.573-1.293" transform="translate(21.177 93.375)"/>
        <g id="Group_111" data-name="Group 111" transform="translate(67.75 161.918)">
          <path id="Path_419" data-name="Path 419" class="cls-4" d="M63.3,125.8l29.995,7.111-.259,13.834-29.348-7.111Z" transform="translate(-49.854 -125.8)"/>
          <path id="Path_420" data-name="Path 420" class="cls-4" d="M52.9,142.5l6.594.517a4.106,4.106,0,0,1,4.4,2.844c1.293,3.362,8.792,15.9,8.792,15.9l46.026,147.259,21.72,40.209-59.6-188.76-8.792-16.678s0-2.586-5.818-3.491l-7.5.905Z" transform="translate(-52.9 -121.553)"/>
          <path id="Path_421" data-name="Path 421" class="cls-4" d="M191.161,364.579,175,184.869l4.4.129,3.361-1.551,2.844-.646L200.34,364.191Z" transform="translate(-17.14 -109.106)"/>
        </g>
      </g>
    </g>
  </g>
</svg>
