<svg xmlns="http://www.w3.org/2000/svg" viewBox="0 0 639.19 713.86"><defs><style>.cls-1,.cls-3{fill:#fff;}.cls-1,.cls-2,.cls-3,.cls-4,.cls-5{stroke:#000;stroke-width:2px;}.cls-1,.cls-10,.cls-11,.cls-12,.cls-13,.cls-14,.cls-16,.cls-17,.cls-2,.cls-3,.cls-4,.cls-5,.cls-6,.cls-7,.cls-9{stroke-miterlimit:10;}.cls-10,.cls-11,.cls-12,.cls-13,.cls-14,.cls-16,.cls-17,.cls-2,.cls-4,.cls-5,.cls-6,.cls-7,.cls-9{fill:none;}.cls-3,.cls-4{fill-rule:evenodd;}.cls-4,.cls-5{opacity:0.6;}.cls-10,.cls-11,.cls-12,.cls-13,.cls-14,.cls-16,.cls-17,.cls-6,.cls-7,.cls-9{stroke:#e10a17;}.cls-6{stroke-width:1.62px;}.cls-7{stroke-width:1.81px;}.cls-18,.cls-8{fill:#e10a17;}.cls-9{stroke-width:1.63px;}.cls-10{stroke-width:1.54px;}.cls-11{stroke-width:1.74px;}.cls-12{stroke-width:1.64px;}.cls-13{stroke-width:1.53px;}.cls-14{stroke-width:1.58px;}.cls-15{fill:#e6e5e5;}.cls-16{stroke-width:1.69px;}.cls-17{stroke-width:1.76px;}.cls-18{font-size:13px;font-family:OpenSans-SemiBold, Open Sans;font-weight:600;}</style></defs><title>Spider Lateral Medidas</title><g id="Camada_2" data-name="Camada 2"><g id="Camada_1-2" data-name="Camada 1"><polyline class="cls-1" points="356.99 524.67 356.99 508.08 371.81 508.08 371.81 524.67"/><line class="cls-1" x1="251.38" y1="586.53" x2="259.92" y2="584.51"/><path class="cls-1" d="M272.74,610.81a12.45,12.45,0,0,1-4.27,5.85"/><line class="cls-2" x1="566.8" y1="657.8" x2="569.95" y2="655.77"/><line class="cls-1" x1="381.1" y1="677.58" x2="381.78" y2="705.91"/><path class="cls-1" d="M348.24,553.93s0,2,10.55,3.3h16.89a36.3,36.3,0,0,0,7-2.85"/><path class="cls-1" d="M351.65,557.53s-34-1-89.48,11.24c0,0-2.7.67-2.7,4.72l-.22,7.64a7.32,7.32,0,0,0,1.57,3.6l3.15.9,7.64-2.7,4.95-1.57s-11-.9-13-.68a6.55,6.55,0,0,0-2.7,4.05"/><path class="cls-1" d="M344.23,561.35s.45-2.25-27.2,0l-56.21,8.54"/><path class="cls-1" d="M351.65,559.1l-4.72,1.35-7,2-63.18,19.11-36.64,13-44.07,17.09s-10.11,3.37-9.44,8.09l-.9,10.34s-.9,1.8,2.93,2.48H197s2.25-.23,2.7-.9v-3.37s0-1.35,4.05-1.8l96-22,38.44-7.2s14.39-2,18,1.57l2.47,48.34.45,18.44L362,667l.45.9a13.46,13.46,0,0,0,7.87.23,2.3,2.3,0,0,1,1.8-1.35l.9-.9.67-10.34v-8.77l.23-47.66,3.37-1.57,6.52-.9s44.74,6.07,138.94,30.35c0,0,10.11.45,8.32,6.07l1.79,1.35.45.22a13.88,13.88,0,0,0,11.92-.9l-.9-14.39s0-1.57-3.37-3.37L481.6,592.6l-30.36-11-56.87-17.76-10.12-2.69.45-.9,26.08,1.57,56.5,9.5.38,13.17s-1,2.14-4.41,1.47"/><path class="cls-1" d="M377.73,558.2l9.82-.56s25-.11,78.76,12.48a3.32,3.32,0,0,1,1.35,2.25V585"/><path class="cls-1" d="M452.14,582l10.57-.9s1.57-.45,4.72,3.15"/><path class="cls-1" d="M241.26,594.4s5-12.14,13.27-4.72"/><path class="cls-1" d="M249.13,587.2l1.8-.67a9.59,9.59,0,0,1,6.52,1.8"/><line class="cls-1" x1="250.93" y1="586.53" x2="259.47" y2="584.51"/><path class="cls-1" d="M245.76,616.66a11,11,0,0,0,15.51-.23h0l2.25-3.6"/><path class="cls-1" d="M275.44,610.14a10.32,10.32,0,0,1-7.42,6.52,31.63,31.63,0,0,1-6.52-.23"/><path class="cls-1" d="M272.29,610.81a12.45,12.45,0,0,1-4.27,5.85"/><path class="cls-1" d="M188.43,632.84v.45s1.57,2.92,7.87.68v-1.35"/><path class="cls-1" d="M188.43,633.52s-2.25.22-2,1.57v1.57H186a13.63,13.63,0,0,0-11.47-.89s-9.89,2.24-12.81,15.28a17.57,17.57,0,0,0,3.14,13.72l5,4.49s10.12,12.59,23.38,3.15c0,0,12.59-10.34,5.4-24.95l.45-.23.67-12.36s-1.12-1.35-2.25-1.35l-1.12-.45"/><path class="cls-1" d="M186.18,634.64s3.6,3.82,13.27.23"/><polyline class="cls-1" points="165.95 658.25 162.8 656.22 164.82 664.99"/><path class="cls-1" d="M185.28,636.21s-20.46-4.94-22.93,19.34"/><path class="cls-1" d="M352.55,597.55l.45,7.86.67,2-.45,37.32s.45,1.8,3.15,2.25c0,0,2,.45,2,.67"/><polyline class="cls-1" points="376.38 597.77 376.38 604.51 375.48 609.91 375.48 645.21 373.46 646.78"/><path class="cls-1" d="M467.08,585.18a29.81,29.81,0,0,1,10.69,2.47,16.77,16.77,0,0,1,9.22,7"/><path class="cls-1" d="M470.13,588.78a6.64,6.64,0,0,1,7-1.58"/><path class="cls-1" d="M474.63,590.35a4.61,4.61,0,0,1,6.29-1.35"/><path class="cls-1" d="M450.35,609.69s3.14,7.64,16,8.31c0,0,9.44,6.3,16.18-.9"/><path class="cls-1" d="M452.59,610.14a9.52,9.52,0,0,0,4.5,5.62"/><path class="cls-1" d="M455.74,610.81s-.9,1.57,3.37,5.62"/><path class="cls-1" d="M463.16,612.38a11,11,0,0,0,3.15,5.4"/><path class="cls-2" d="M532.85,634.64s-2,1.35-1.57,2.7l1.12,11.46s2.25-6.52,12.37-11.46l-.45-1.8-.45-.67a.77.77,0,0,0-.22-.45"/><path class="cls-2" d="M532.4,648.8s-5.62,17.77,9.22,25.41c0,0,13.27,7,21.58-4.72A20,20,0,0,0,570.85,654s-.68-16.64-19.34-18.44a19.78,19.78,0,0,0-7.11,2"/><path class="cls-2" d="M534.2,645.88s15.29-12.59,27,5.4c0,0,7.42,14.61-7.87,24.5"/><path class="cls-2" d="M541.26,639.3s22.39-3.09,25.32,18.72a26.06,26.06,0,0,1-3.38,11.47"/><path class="cls-2" d="M546.3,636.68s17.06-.61,21.85,12.57c0,0,2.55,4.28.68,13"/><line class="cls-2" x1="566.35" y1="657.8" x2="569.5" y2="655.77"/><path class="cls-1" d="M362,667.24s-2.7.22-2.7,1.8v4h.9a119.61,119.61,0,0,1,1.13,25.41l-.45,13s-4.5,2.25-6.52-.23l-.9-3.14-1.22-12.9s.32-10.71,1.22-17.45l.67-.68.45-2a1.75,1.75,0,0,1,2.05-2l2.67,0"/><path class="cls-1" d="M353.88,677.36a135.39,135.39,0,0,1,0,31.62"/><path class="cls-1" d="M359.74,668.14s1.58,2.38,8.33,2.16c0,0,8.56-1.11,2.46-2.84"/><path class="cls-1" d="M361.56,672.69l9.65-.28,1.16,22.83-.71,2.13h-8.77l-.71-1.48Z"/><path class="cls-1" d="M372.78,668.59l.23,4.27.22.67,5.4-.22.67,1.35.23,2.25.9.45,1.35,5.84L382,701l-1.12,5.85-.68,3.37A2.41,2.41,0,0,1,378,712H375l-1.57-.9-.23-4.5L372,687.93"/><path class="cls-1" d="M373.23,673.53s1.35,25.63,1.13,38.22"/><path class="cls-1" d="M379.08,674s2.44,26.26,1.31,35.25"/><path class="cls-1" d="M169.77,669.26s-12.6-16.76,7.56-28c0,0,13.7-4.89,21.22,6.19"/><path class="cls-1" d="M440.55,493.39s3.6.08,4,.95c.36.7,3.93,13.75,5.3,18.77a2.33,2.33,0,0,1-1.37,2.79,89.26,89.26,0,0,1-30.58,6.86c-1.06,0-1.93-1-2.22-2.06L411,503.9s-.14-1.35,1.66-3.44C412.65,500.46,417.13,503.07,440.55,493.39Z"/><path class="cls-3" d="M341,395.14s-59.65,8.12-64.59,11.29-21.88,16.94-22.23,22.24,2,12.35,5.05,12.7,20,2.12,20,2.12l24,17.65-2.47,8.47,12.36,38.47s48.36,1.06,62.47,0,66.35-13.41,69.53-17.29c-1.06-2.47,0-20.47,0-20.47s15.17.7,17.29-.36,8.12-7.06,8.12-7.06V458l11.65.36,7.41-6.47s18.7,2.23,21.53,1.52,10.23-8.82,7.41-14.11,1.06-12-22.24-27.53c0,0-15.53-15.88-18-16.59S455.73,381,428.2,382.43s-43.92,6.36-43.92,6.36Z"/><path class="cls-4" d="M254.5,433.39s26.52-.84,45.23-5.78,85.76-18,101.29-18.35,89.29-4.59,117.53,30"/><path class="cls-4" d="M303.25,461.14s39.89,10.94,74.48,8.82a563.06,563.06,0,0,1,67.41.36"/><path class="cls-4" d="M516.65,448.48s-19.28-25.81-63.4-28.63h-4.94V452H420.43V416s-33.88-3.17-46.23,6l-57.53,9.18s-43.19,11.29-57.42,10.23"/><path class="cls-3" d="M317.23,450c2.78,2.38,7,4.81,9.67,1.92,3.9-4.22,18.71-66,18.71-66l8.2-30.71s2.65-8.2-3.17-13.76-9.53-9.26-9.53-9.26h-9.53v-2.91h-7.15s-6.09-2.65-3.7-11.12,42.61-13.24,49.76-13.77,64.32-3.7,87.35-1.58,24.62,8.2,24.62,8.2v6.35l-8.73.27-.53,5.56S442,320.58,424.75,328s-26.47,15.62-31.23,31.24S371,448.79,368.2,452s-20.83,7.06-41.65,6-23.3-23.54-23.3-23.54l5.94-1.43s-.05,3.2,3.73,10.15C312.92,443.14,316,449,317.23,450Z"/><path class="cls-4" d="M331.58,329.32s53.07-7.59,98.2-10.06c42.23-2.32,44-1.59,44-1.59"/><polygon class="cls-3" points="301.26 471.1 296.73 471.1 290.02 481.43 290.02 495.55 311.23 502.13 301.26 471.1"/><path class="cls-3" d="M295,473.84l-37.93-1L244,459l-3.18-63.79s-1.94-32.65-1.67-32.74a25.69,25.69,0,0,1,2.64,0l0-31.19a54.73,54.73,0,0,0-5.69.93c-.4.26-16.28,23-16.28,23l3,110.48s19.33,28,27.8,31h40.5L290,481.43Z"/><path class="cls-4" d="M290,481.43s-33.42,1.59-35.86,0-15.85-15.7-15.85-15.7L233,360.2l8.73-2.12"/><path class="cls-3" d="M254.5,396.55s-11.34,5.05-13.37,5.7-.79,10.47,0,13.18,10,10.22,13.37,8.66,30.4-15.19,46.64-50.48,9.17-55.44,4.94-71.48-14.83-58.76-14.83-58.76-18.7-81.88-18.17-89.29-3.18-47.12-32.3-45.53c0,0-24.88,8.21-29.11,8.74s-1.33,14.82,2.38,16.41,13.76.26,17.2,4,24.62,59,24.62,59l15.62,97.15s-6.23,21.52-14.15,24.35c0,0-16.63.71-17.26,7.06s1.48,11.66,1.75,13.76c2,15.91-1.93,30.06.9,32.3,3.52,2.79,12.7,4.41,15.88,1.23s10.41-.88,10.41-.88S257.64,392.32,254.5,396.55Z"/><path class="cls-4" d="M274.31,312.9s-23.29,18.89-23.47,27-2.47,14.83,2.47,13.59,25.06-17.12,25.06-17.12S280.81,321.84,274.31,312.9Z"/><path class="cls-4" d="M248.9,368s19.59-20.82,27.71-19.76c0,0-4.32,17.6-7.59,23.47"/><path class="cls-4" d="M271.66,412.63s28.07-48.61,28.77-59,2.47-32.65-3.53-51.51S283.6,209,283.6,209"/><path class="cls-1" d="M195.25,162.55,188.11,166l-5-62.47h1.59V75.73S186,68.58,203.46,62l14-4.92s-.79-7.25,0-7.78,10.06-5.56,10.06-5.56l-9-10.19s-2.91-13.11.53-17.34,18-13.24,21.44-12.44,7.68,0,15.09,15.09S272,52.43,268.31,64.74s.67,17.56.86,23-7.39,25-11.67,25.67-34.72-.09-35.51-8-2.65-13.31,17.74-24.13c0,0,6.35-6.14,8.2-9,0,0-12.63,10.9-21.8,6.4s-8.9-6.4-8.9-6.4-21.18-.75-24.36,2.16-4.76,15.62-4.23,28.86l2.11.26.27,10.59,3.71.53s2.91-2.91,6.35-1.59,8.49,5.56,8.49,5.56,0,12.71,3.34,14.18a30,30,0,0,0,7.78,1.92l-5.58,9.84-3.44.27-5.3-8.21s-9.79,5.56-10.85,8.47S195.25,162.55,195.25,162.55Z"/><path class="cls-1" d="M194.73,114.64s-6.36,3.71-2.39,10.06,23.3,9.7,23.3,9.7-8.42-4.67-6.07-15.79C209.57,118.61,200.55,108.55,194.73,114.64Z"/><path class="cls-5" d="M200.92,130.35s-14.85,10.35-14.17,18.77"/><circle class="cls-5" cx="199.52" cy="119.98" r="5.12"/><path class="cls-5" d="M222.25,35.23S232.31,23.05,236,24.9s7.68,10.33,7.68,10.33L227.55,43.7"/><path class="cls-5" d="M249.25,70.24c3.71-5,1.59-20.72-2.38-21.25s-24.62,16.67-24.62,16.67-1.32-5-4-4-24.08,4.91-29.64,8.54c-6,3.94,0,33,0,33l-4,.26"/><path class="cls-1" d="M350.81,550.45c-.77-.62-1.65,1-2.27,1.68v1.35l-.91.68v6.74s0,1.8,9.08,2.25h20.56a10.59,10.59,0,0,0,5.75-2.47l-.61-6.3a1.47,1.47,0,0,1-.6-1.8s-.41-1.52-4.08-2.81c0,0-1.52,4.38-12.28,4.16C355.92,553.74,352.91,552.14,350.81,550.45Z"/><path class="cls-1" d="M350.81,550.45V524.67h26.92v25.1S367.05,559.1,350.81,550.45Z"/><g id="Frontal"><line class="cls-6" x1="108.74" y1="420.32" x2="108.74" y2="119.98"/><line class="cls-7" x1="103.06" y1="427.19" x2="254.2" y2="428.67"/><line class="cls-6" x1="98.5" y1="114.11" x2="222.42" y2="114.11"/><polygon class="cls-8" points="108.74 113.72 115.27 126.24 102.21 126.24 108.74 113.72"/><polygon class="cls-8" points="109.6 427.96 103.06 415.43 116.13 415.43 109.6 427.96"/><line class="cls-9" x1="261.52" y1="532.9" x2="518.01" y2="532.9"/><line class="cls-10" x1="521.37" y1="427.85" x2="521.37" y2="539.32"/><line class="cls-11" x1="254.98" y1="439.26" x2="254.98" y2="542.11"/><polygon class="cls-8" points="521.37 532.9 508.6 539.43 508.6 526.38 521.37 532.9"/><polygon class="cls-8" points="254.05 533.02 266.83 539.56 266.83 526.5 254.05 533.02"/><polygon class="cls-8" points="550.5 712.45 543.97 699.37 557.03 699.37 550.5 712.45"/><line class="cls-12" x1="550.5" y1="706.4" x2="550.5" y2="405.17"/><line class="cls-13" x1="473.73" y1="403.13" x2="555.15" y2="403.13"/><polygon class="cls-8" points="550.5 403.17 557.03 416.25 543.97 416.25 550.5 403.17"/><line class="cls-14" x1="608.88" y1="706.72" x2="608.88" y2="313.54"/><rect class="cls-15" x="574.02" y="500.3" width="65.17" height="16.85"/><line class="cls-16" x1="435.14" y1="302.13" x2="613.13" y2="302.13"/><line class="cls-17" x1="351.91" y1="712.98" x2="615.41" y2="712.98"/><polygon class="cls-8" points="608.88 302.13 615.41 314.64 602.35 314.64 608.88 302.13"/><polygon class="cls-8" points="608.88 708.9 602.35 696.38 615.41 696.38 608.88 708.9"/><rect class="cls-15" x="361.74" y="521.83" width="37.61" height="16.61"/><rect class="cls-15" x="89.1" y="240.94" width="44.98" height="15.22"/></g><text class="cls-18" transform="translate(93.78 252.66)">54cm</text><line class="cls-6" x1="28.84" y1="697.37" x2="28.84" y2="13.34"/><line class="cls-7" x1="17.75" y1="710.52" x2="344.23" y2="712.47"/><line class="cls-6" x1="18.61" y1="0.81" x2="240.52" y2="1.24"/><polygon class="cls-8" points="28.84 0.81 35.38 13.34 22.31 13.34 28.84 0.81"/><polygon class="cls-8" points="28.84 703.63 22.31 691.1 35.38 691.1 28.84 703.63"/><rect class="cls-15" y="294.51" width="93.78" height="15.22"/><text class="cls-18" transform="translate(4.68 306.23)">110 a 124cm</text><text class="cls-18" transform="translate(363.56 535.61)">48cm</text><text class="cls-18" transform="translate(576.14 513.55)">62 a 76cm</text><rect class="cls-15" x="531.14" y="524.48" width="65.17" height="16.85"/><text class="cls-18" transform="translate(533.25 537.73)">41 a 51cm</text></g></g></svg>