<svg xmlns="http://www.w3.org/2000/svg" viewBox="0 0 411.47 708.6"><defs><style>.cls-1,.cls-4{fill:#fff;}.cls-1,.cls-2,.cls-3,.cls-4,.cls-5{stroke:#000;}.cls-1,.cls-10,.cls-11,.cls-2,.cls-3,.cls-5,.cls-7,.cls-8,.cls-9{stroke-miterlimit:10;}.cls-1,.cls-4,.cls-5{stroke-width:2px;}.cls-10,.cls-11,.cls-2,.cls-3,.cls-5,.cls-7,.cls-8,.cls-9{fill:none;}.cls-2{stroke-width:1.5px;}.cls-3{opacity:0.6;}.cls-4{stroke-linejoin:round;}.cls-12,.cls-6{fill:#e10a17;}.cls-10,.cls-11,.cls-7,.cls-8,.cls-9{stroke:#e10a17;}.cls-7{stroke-width:1.56px;}.cls-8{stroke-width:1.57px;}.cls-9{stroke-width:1.76px;}.cls-10{stroke-width:1.09px;}.cls-11{stroke-width:1.03px;}.cls-12{font-size:13px;font-family:OpenSans-SemiBold, Open Sans;font-weight:600;}</style></defs><title>Spider Frontal Medida</title><g id="Camada_2" data-name="Camada 2"><g id="Camada_1-2" data-name="Camada 1"><path class="cls-1" d="M277.41,27c.63,18,1.65,49.75,1.65,49.75s0,7.78-12.75,7.78-38.79-3.18-61.37-2.93-65.32,4.85-65.32,4.85-13.91,1.91-15.19-11,.64-51.55.64-51.55S123.23,6.48,141.79,4.39C161.05,2.22,199.44,1,199.44,1s53.22.84,62.53,2.37,14.29,7.4,14.8,13.53S277.41,27,277.41,27Z"/><polyline class="cls-2" points="125.95 16.43 173.43 29.53 225.74 29.53 274.67 10.85"/><path class="cls-2" d="M145.22,4,166,6.56s30.23,18.63,33.68,23c0,0,31.51-23.73,35.08-24.37s13.15-2.82,13.15-2.82S188.23-.46,145.22,4Z"/><path class="cls-3" d="M147.44,22.36s-6.55,0-6.67,2.83,0,7.4,0,7.4l26.92,1.91h65.7l30.49-3.31s.39-6.89-1.15-7.91-12.53-3.09-12.53-3.09l-24.46,9.34H173.43Z"/><path class="cls-3" d="M169.22,52.36l-24-5.74s-6-1.53-6.62,5.74-.77,16.46-.77,16.46.64,3.32,8.17,3.19,45.93-2,45.93-2V52.49Z"/><path class="cls-3" d="M236.47,51.79l23.3-5.74s5.81-1.53,6.43,5.74a97.75,97.75,0,0,1,.23,13.2s-.11,6.58-7.41,6.45-44.61-2-44.61-2V51.92Z"/><path class="cls-1" d="M188.11,82.26s-1.54,4.24-4.09,4.27-17.87,0-17.87,0l-.63,3.22s77-.54,76.93-.9-1.15-3.57-1.15-3.57-17.1.38-18.63,0S220,81.84,220,81.84,197.56,80.65,188.11,82.26Z"/><path class="cls-1" d="M242.45,88.85l61,5s10.34,2.1,12.83,12.82S326,274.2,324.48,299.08a236.3,236.3,0,0,1-6.79,39.32c-5.26,19.05-16.74,16-27.56,16.46s-83,1.73-83,1.73H118.44s-15.18,3.5-21.69-12.32-12-47.07-12.5-66.85,2.68-154.63,4.21-163.31,4.08-15.5,18.24-18.18,58.82-6.18,58.82-6.18Z"/><path class="cls-2" d="M104.61,96.38l40.56,66a15.23,15.23,0,0,1,0,7.08c-1,3.64-25.07,85.74-30.62,112.53s-6,28.8-5.46,29.28,47.08,45.69,47.08,45.69H132.44L88.75,315s24.55-102.43,27-110.47,10.33-36.08,10.33-37.89-24.85-43.79-31.28-54.35c0,0-3.43-4.26-4.63-5C90.21,107.34,92.38,98.84,104.61,96.38Z"/><path class="cls-2" d="M303.43,93.83,262,161.57a7.79,7.79,0,0,0,0,5c.89,2.87,33.81,110.81,38,130.9,0,0,2.68,10.14,2.49,11.48S291.94,331.65,260,355.6l23.16-.52,39.68-41.9.22-1.53-7.88-27.4-27.81-93.2s-7.47-22.59-5.93-26.22S304.6,122.12,308.82,116c0,0,2.42-3.89,2.64-4.15a50.1,50.1,0,0,1,4.8-5.19S314.92,97.27,303.43,93.83Z"/><path class="cls-3" d="M280.84,337.63H238v-17s9.38-1.53,14.55-7.85c0,0,41.75-9.56,49-9.09l-2.89-11.88s-32.73,8.91-41.34,7.57c0,0-1.72-7.84,4.21-12.05S294,274.74,294,274.74l-3.51-12.34s-2.15,4.56-24.22,9.79c0,0-12,1.79-15.82,1.4l-.26-8.55s-2-3.06-7.27-4.33-29.35-9.83-77.19.76c0,0-4.46,1.92-4.59,5.11s0,7,0,7-16.46.13-27.81-2.93-14.75-5.89-14.75-5.89l-2.81,11.46s32.74,7.06,37.33,14.59c0,0,3.64,2.8,3,10.2l-44.51-5.15-1.92,9.49s41,4.46,48.57,8.29c0,0,6.25,8.3,19.71,9.06v15.82H137.25"/><path class="cls-3" d="M117.4,117.19s22.34-7.67,71.59-7.8l2.17,4.47v14h27.05V113.48l2-4.09s45.65-.62,70.41,5.3"/><polygon class="cls-1" points="178.18 356.58 178.18 366.35 237.79 365.58 237.79 356.03 178.18 356.58"/><path class="cls-1" d="M237.79,365.58s61.31-.13,78,3.83,25.9,29.21,27.3,34.83,1.81,21.94-6.76,32.41c-8.11,9.91-13.91,17.85-55.37,29.08s-87.65,12.76-145.32,3.06-67.11-37.51-67.11-37.51-5.23-15.18-2.68-25.77S85,377.83,94.07,373s47.71-5.85,52.44-6c5.48-.17,31.67-.63,31.67-.63Z"/><path class="cls-2" d="M65.9,420.39s6,23.65,36,33.8l22,7.08a40.56,40.56,0,0,1-3.44-8.81c-.89-4.08-10-49.24-10-49.24s-17.2-12.28-34-15"/><path class="cls-2" d="M343.38,419.25s-8.89,26.13-39.39,34.82l-24.48,7.2s3.32-5.92,4.4-9.95,13.92-48.57,13.92-48.57,19.38-14.54,37.68-16"/><path class="cls-1" d="M123.92,461.27s82.3,19.52,155.59,0"/><path class="cls-2" d="M95.84,372.21s22.15-.54,41.1-3,109.85-2.14,130.13-1.37,39.68,2.9,48.74,1.56"/><path class="cls-4" d="M73.87,391.42l-4.93-63.86a100.55,100.55,0,0,1-20.54.64l7.78,80.5,9.61,10.95S61.13,405.58,73.87,391.42Z"/><path class="cls-1" d="M84.19,304.72a9,9,0,0,0,.82-5.61c-.64-2.94-14.42-6.64-32.4-6s-24.37,10.46-22.46,20.42,2,12.5,8.8,13.39,9.45,1.28,9.45,1.28,12.12.76,20.54-.64,7-10.33,7-10.33A14.82,14.82,0,0,1,79,308.68C82.2,304.47,84.19,304.72,84.19,304.72Z"/><path class="cls-1" d="M29.83,310s1.28,12.82,26.73,10.68c14.94-1.25,19.55-5.23,19.55-5.23"/><path class="cls-1" d="M343.89,417.44s9.68-1.72,12.36-9.57,5.17-77.12,5.17-77.12-13.59,1.66-19.2-1.15l-3.17,63.84S345.44,401.46,343.89,417.44Z"/><path class="cls-1" d="M340.69,292.22s-13.27,2.55-15.31,5.17c-.8,1-2.3,6.57,0,7.46s8.71,1.28,9.07,8.68,1.5,14.62,7.77,16.07,30.3,4.21,37.28-7.65a51.07,51.07,0,0,0-.79-21.18C375.77,289.92,351.26,289.92,340.69,292.22Z"/><path class="cls-1" d="M334.45,313.53s-.88,8.32,17.21,8.32,27.89-5,28.54-11.2"/><line class="cls-1" x1="91.01" y1="581.66" x2="99.55" y2="579.64"/><path class="cls-1" d="M112.36,605.94a12.45,12.45,0,0,1-4.27,5.85"/><line class="cls-5" x1="406.43" y1="652.93" x2="409.57" y2="650.91"/><line class="cls-1" x1="220.73" y1="672.71" x2="221.4" y2="701.04"/><path class="cls-1" d="M192.55,474.93l-2.09,70.4a9.73,9.73,0,0,0,4.14,2.44c6.35,2.1,19.89,2,22.75-2.86l2.27-70C207.58,475.66,192.55,474.93,192.55,474.93Z"/><path class="cls-1" d="M187.86,549.06s0,2,10.56,3.3h16.89a36.3,36.3,0,0,0,7-2.85"/><path class="cls-1" d="M191.27,552.66s-34-1-89.47,11.24c0,0-2.7.68-2.7,4.72l-.23,7.65a7.44,7.44,0,0,0,1.58,3.59l3.15.9,7.64-2.7,4.94-1.57s-11-.9-13-.67a6.53,6.53,0,0,0-2.7,4"/><path class="cls-1" d="M183.86,556.48s.45-2.25-27.21,0L100.45,565"/><path class="cls-1" d="M191.27,554.23l-4.72,1.35-7,2-63.17,19.11-36.65,13L35.7,606.84s-10.12,3.37-9.44,8.09l-.9,10.35s-.9,1.8,2.92,2.47H36.6s2.25-.23,2.7-.9v-3.37s0-1.35,4-1.8l96-22,38.45-7.2s14.38-2,18,1.58l2.47,48.33.45,18.44,2.93,1.35.45.9a13.34,13.34,0,0,0,7.86.22,2.36,2.36,0,0,1,1.8-1.35l.9-.9.68-10.34v-8.77l.22-47.66,3.37-1.57,6.52-.9s44.74,6.07,138.94,30.35c0,0,10.12.45,8.32,6.07l1.8,1.35.45.22a13.82,13.82,0,0,0,11.91-.9l-.9-14.38s0-1.58-3.37-3.38l-59.35-23.38-30.35-11L234,559l-10.12-2.7.45-.9,26.08,1.57,56.5,9.5.38,13.18s-1,2.14-4.41,1.46"/><path class="cls-1" d="M217.35,553.33l9.82-.55s25-.12,78.76,12.47a3.32,3.32,0,0,1,1.35,2.25v12.59"/><path class="cls-1" d="M291.77,577.17l10.57-.9s1.57-.45,4.72,3.14"/><path class="cls-1" d="M80.89,589.53s4.94-12.14,13.26-4.72"/><path class="cls-1" d="M88.76,582.34l1.8-.68a9.66,9.66,0,0,1,6.52,1.8"/><line class="cls-1" x1="90.56" y1="581.66" x2="99.1" y2="579.64"/><path class="cls-1" d="M85.38,611.79a11,11,0,0,0,15.52-.23h0l2.25-3.59"/><path class="cls-1" d="M115.06,605.27a10.32,10.32,0,0,1-7.42,6.52,31.63,31.63,0,0,1-6.52-.23"/><path class="cls-1" d="M111.91,605.94a12.38,12.38,0,0,1-4.27,5.85"/><path class="cls-1" d="M28.06,628v.45s1.57,2.93,7.86.68v-1.35"/><path class="cls-1" d="M28.06,628.65s-2.25.22-2,1.57v1.58h-.45a13.57,13.57,0,0,0-11.46-.9s-9.9,2.25-12.82,15.28A17.56,17.56,0,0,0,4.45,659.9l5,4.5S19.51,677,32.78,667.54c0,0,12.59-10.34,5.39-24.95l.45-.23L39.3,630s-1.13-1.35-2.25-1.35l-1.13-.45"/><path class="cls-1" d="M25.81,629.77s3.59,3.83,13.26.23"/><path class="cls-1" d="M24.91,631.35S4.45,626.4,2,650.68"/><path class="cls-1" d="M192.17,592.68l.45,7.87.68,2-.45,37.32s.45,1.8,3.15,2.25c0,0,2,.45,2,.67"/><polyline class="cls-1" points="216 592.9 216 599.65 215.11 605.04 215.11 640.34 213.08 641.91"/><path class="cls-1" d="M306.7,580.31a29.67,29.67,0,0,1,10.7,2.48,16.71,16.71,0,0,1,9.22,7"/><path class="cls-1" d="M309.75,583.91a6.64,6.64,0,0,1,7-1.57"/><path class="cls-1" d="M314.25,585.48a4.63,4.63,0,0,1,6.3-1.35"/><path class="cls-1" d="M290,604.82s3.15,7.64,16,8.32c0,0,9.44,6.29,16.19-.9"/><path class="cls-1" d="M292.22,605.27a9.47,9.47,0,0,0,4.49,5.62"/><path class="cls-1" d="M295.37,605.94s-.9,1.58,3.37,5.62"/><path class="cls-1" d="M302.79,607.52a11,11,0,0,0,3.14,5.39"/><path class="cls-5" d="M372.48,629.77s-2,1.35-1.57,2.7L372,643.94s2.25-6.52,12.36-11.47l-.45-1.8-.44-.67a.76.76,0,0,0-.23-.45"/><path class="cls-5" d="M372,643.94s-5.62,17.76,9.22,25.4c0,0,13.26,7,21.58-4.72a20,20,0,0,0,7.64-15.51s-.67-16.64-19.33-18.44a19.79,19.79,0,0,0-7.12,2"/><path class="cls-5" d="M373.83,641s15.29-12.59,27,5.4c0,0,7.42,14.61-7.87,24.5"/><path class="cls-5" d="M380.89,634.43s22.39-3.08,25.31,18.72a26,26,0,0,1-3.37,11.47"/><path class="cls-5" d="M385.93,631.81s17.06-.61,21.85,12.58c0,0,2.55,4.28.67,13"/><line class="cls-5" x1="405.98" y1="652.93" x2="409.12" y2="650.91"/><path class="cls-1" d="M201.62,662.37s-2.7.23-2.7,1.8v4.05h.9a119.52,119.52,0,0,1,1.12,25.4l-.45,13s-4.49,2.25-6.52-.22l-.9-3.15-1.21-12.9s.31-10.71,1.21-17.45l.68-.68.45-2a1.73,1.73,0,0,1,2-2l2.68,0"/><path class="cls-1" d="M193.5,672.49a134.94,134.94,0,0,1,0,31.63"/><path class="cls-1" d="M199.37,663.27s1.58,2.38,8.32,2.16c0,0,8.57-1.1,2.47-2.83"/><path class="cls-1" d="M201.19,667.82l9.64-.28L212,690.37l-.71,2.13h-8.76l-.71-1.48Z"/><path class="cls-1" d="M212.41,663.72l.22,4.27.23.68,5.39-.23.68,1.35.22,2.25.9.45,1.35,5.84.23,17.76-1.13,5.85-.67,3.37a2.43,2.43,0,0,1-2.25,1.8h-2.92l-1.58-.9-.22-4.49-1.22-18.66"/><path class="cls-1" d="M212.86,668.67s1.35,25.63,1.12,38.22"/><path class="cls-1" d="M218.7,669.12s2.44,26.25,1.32,35.24"/><path class="cls-1" d="M9.4,664.4s-12.6-16.77,7.55-28c0,0,13.71-4.89,21.22,6.19"/><path class="cls-1" d="M191.38,474.93l-.38,20.5s7.94,3.25,29.19.48v-21S204.3,475.74,191.38,474.93Z"/><path class="cls-1" d="M220.19,495.91s3.44,1,3.63,2c.16.78.06,14.3,0,19.51a2.34,2.34,0,0,1-2.08,2.31,89.33,89.33,0,0,1-31.3-1.69c-1-.24-1.57-1.53-1.57-2.58V498s.23-1.34,2.53-2.87C191.42,495.14,195,498.87,220.19,495.91Z"/><path class="cls-1" d="M190.43,545.58c-.77-.61-1.64,1-2.27,1.68v1.35l-.9.68V556s0,1.8,9.07,2.25H216.9a10.45,10.45,0,0,0,5.74-2.47l-.6-6.3a1.46,1.46,0,0,1-.61-1.8s-.41-1.51-4.08-2.8c0,0-1.51,4.37-12.27,4.15C195.55,548.87,192.54,547.27,190.43,545.58Z"/><polygon class="cls-6" points="87.02 144.44 99.86 151.24 99.86 137.66 87.02 144.44"/><polygon class="cls-6" points="320.66 143.76 307.81 150.55 307.81 136.97 320.66 143.76"/><polygon class="cls-6" points="77.64 270.68 90.47 278.42 90.47 263.89 77.64 270.68"/><polygon class="cls-6" points="332.59 270.49 319.77 275.39 319.77 263.7 332.59 270.49"/><polygon class="cls-6" points="73.87 391.6 86.81 398.39 86.81 384.81 73.87 391.6"/><polygon class="cls-6" points="339.05 391.69 326.12 398.48 326.12 384.9 339.05 391.69"/><line class="cls-7" x1="87.29" y1="144.44" x2="319.2" y2="144.44"/><line class="cls-8" x1="87.02" y1="151.73" x2="87.02" y2="138.16"/><line class="cls-8" x1="319.2" y1="151.14" x2="319.2" y2="137.56"/><line class="cls-7" x1="82.57" y1="270.49" x2="329.49" y2="270.49"/><line class="cls-9" x1="77.15" y1="302.9" x2="77.15" y2="267.43"/><line class="cls-9" x1="332.59" y1="263.46" x2="332.59" y2="309.99"/><polygon class="cls-6" points="89.25 312.31 102.07 319.1 102.07 305.52 89.25 312.31"/><polygon class="cls-6" points="324.4 312.31 311.58 319.1 311.58 305.52 324.4 312.31"/><line class="cls-7" x1="94.18" y1="312.12" x2="317.99" y2="312.12"/><line class="cls-9" x1="88.75" y1="331.03" x2="88.75" y2="295.56"/><line class="cls-9" x1="324.16" y1="297.29" x2="324.16" y2="332.77"/><line class="cls-8" x1="79" y1="391.2" x2="332.59" y2="391.2"/><line class="cls-10" x1="73.87" y1="397.41" x2="73.87" y2="383.83"/><line class="cls-11" x1="339.05" y1="385.67" x2="339.05" y2="397.7"/><text class="cls-12" transform="translate(186.89 140.39)">44,5cm</text><text class="cls-12" transform="translate(186.89 267.43)">47cm</text><text class="cls-12" transform="translate(186.89 307.36)">47,5cm</text><text class="cls-12" transform="translate(186.89 386.72)">49cm</text></g></g></svg>