<svg xmlns="http://www.w3.org/2000/svg" viewBox="0 0 346.61 705.44"><defs><style>.cls-1{fill:#fff;}.cls-1,.cls-2,.cls-3{stroke:#000;stroke-miterlimit:10;stroke-width:2px;}.cls-2,.cls-3{fill:none;}.cls-2{opacity:0.6;}</style></defs><title>Spider Diagonal</title><g id="Camada_2" data-name="Camada 2"><g id="Camada_1-2" data-name="Camada 1"><path class="cls-1" d="M51.1,9s7.75,29.71,5.17,50.38a119.58,119.58,0,0,1-8.19,16.37s-5.59,9.9,9.05,9.9S170,87.42,170,87.42s12.06-2.16,14.22-22c0-20.67-4.74-45.65-7.33-49.52s-4.73-8.61-32.72-8.61S67,1.29,67,1.29,56.27-1.3,51.1,9Z"/><path class="cls-2" d="M54.11,12.48,58,10.76,94.16,28.42H141.1c1.29,0,34-13.35,34-13.35"/><path class="cls-2" d="M72.63,1.72s29.71,15.5,40.91,25c15.5-9.9,26.27-18.08,26.27-18.08"/><path class="cls-2" d="M64,18.94s6,32.3-1.29,49.1c46.5,1.72,96.89,5.16,96.89,5.16s7.32-.43,10.33-16.79C165.22,40.48,162.2,31,162.2,31s-2.15-6-8.61-6"/><path class="cls-2" d="M67,30.14c1.29-.86,12.06,4.31,12.06,4.31h82.68"/><path class="cls-2" d="M93.73,66.74c0-2.58.43-9,.43-9s-6.46-4.74,9-3.87a321.72,321.72,0,0,0,34-.44l28.42-3.87"/><polyline class="cls-2" points="67.03 44.78 73.49 50.38 73.06 66.74"/><path class="cls-1" d="M55,371.64c48.24-6.89,82.26-14.21,94.31-15.51,25.84-1.29,57.28-10.76,59.86-15.5,26.27-28.42,22.4-59,22.4-59S218.62,172.25,213,128.76C215.17,96,191.92,96,191.92,96S80.81,91.29,33.44,93c-23.68,1.73-14.21,19.81-14.21,19.81L32.58,301.87"/><polyline class="cls-1" points="30 97.32 71.34 166.22 56.27 300.58"/><path class="cls-1" d="M18.37,105.93s-.86-5.17,5.6,0,34,59.86,34,59.86L44.64,300.58"/><path class="cls-1" d="M210,111.1l-24.11,51.25L230.24,289s3.45,9.05-3.87,18.09-43.5,43.07-43.5,43.07"/><line class="cls-1" x1="59.21" y1="343" x2="73.06" y2="367.76"/><path class="cls-2" d="M59.28,277.33A184.3,184.3,0,0,0,86,281.2c-.86-5.6-4.31-13.35-4.31-13.35s28.43-16.36,73.21-6c3,.87,5.6,0,4.74,9.05,10.33-1.29,19.38-3,37.9-16.37"/><path class="cls-2" d="M201.86,264s-25.45,16.74-37.93,21.05a113.25,113.25,0,0,1,1.72,12.49L207,284.65"/><path class="cls-2" d="M58.42,286.37s15.07,6,14.64,15.5"/><path class="cls-2" d="M210.41,294.85,164.79,307s-1.73,11.2-15.51,14.64c-8.18,2.59-19.9,2.65-19.38,4.74,2.21,8.71.87,14.64.87,14.64l50.81-7.75"/><polyline class="cls-2" points="75.64 327.71 76.51 349.68 63.16 349.68"/><path class="cls-2" d="M41.62,113.68l31.44-1.29,1.72,19,24.55,1.29L98.47,112l60.29,1.72s20.24.87,25.41,4.74"/><path class="cls-1" d="M72.63,84.4l-1.29,4.31s-15.51,3.44-20.24,3"/><polyline class="cls-1" points="100.19 86.12 104.07 89.14 129.91 93.01"/><path class="cls-1" d="M90.48,424.34l-27,1.74a32.11,32.11,0,0,0-5.78.94c-4.19,1.05-11.12-4.71-6.63-22.65,4.3-40.48,4.73-66.75,17.22-74.94,8.19-1.29,20.67-1.29,20.67-1.29s25.41.43,27.57-1.72V314.79s-9-15.5-89.15-12.05c-8.18,2.15-27.56,5.16-25.84,7.75-1.29,6,0,8.61,0,8.61l7.76.43v3.88H19.66s9.91,0,9.91,24.11c-3.88,22.83-9.48,74.5-9.48,74.5s-.86,16.37,23.69,17.23c26.7-2.16,50.53-6.47,50.53-6.47"/><path class="cls-2" d="M5,310.06l72.78,3.87s19.38,3,27.56,2.16,8.18.43,8.18.43"/><path class="cls-1" d="M23.32,325.24c0-1.3,41.13,1.18,41.13,1.18"/><path class="cls-3" d="M64.23,326.1s-9.69,11.09-10.12,21.42-10.33,76.23-10.33,76.23-1.75,8.9,15.93,6c31.33-5.09,17.66-3,17.66-3"/><polygon class="cls-1" points="75.86 368.41 75.21 380.04 130.77 368.84 130.55 359.36 75.86 368.41"/><path class="cls-1" d="M54.11,384.56s104.22-20.46,130.06-23.9c29.49-1.94,112.61.64,112.61.64s49.74,7.32,37.46,43.07c-1.45,4.78-10.92,27.2-76.78,46.17a66.14,66.14,0,0,1-15.16,2.55c-12.64.63-36.61,1.29-58.57.68a97.45,97.45,0,0,1-53.27-17.65c-9.35-6.56-19.45-14.08-27-20.34-9-6.89-47.15-16.37-49.31-15.72"/><path class="cls-1" d="M53.68,394.68l29.19,7.14a71.9,71.9,0,0,1,21.73,9.3c9.84,6.31,24.78,16.28,36.5,25.76,5.82,3,13.35,11,54.05,15.5,30.79,1.51,35.74.86,35.74.86"/><path class="cls-2" d="M86,400.71s3.88-12.49,44.79-2.8c7.53,1.29,31,6,57.7,37.89,3.66,3.66,7.32,10.55,6.25,15.51"/><path class="cls-2" d="M291.83,361.52l-2.37,8.61s0,2.58,6.24,9.91c7.32,10.33,19.38,25.4,17,45.64"/><path class="cls-1" d="M103.76,416.58s-1,20.3,23.35,27.62c7.53,0,17.65.86,17.65.86"/><path class="cls-3" d="M89.24,409.38s0,36.76,31.19,46.23c20.89,5.17,47.37,8.62,47.37,8.62"/><path class="cls-3" d="M166.94,453s-4.09,11.63,3.66,11.41c17.23-.21,54.26-4.31,54.26-4.31s4.74.87,3.88-5.38"/><path class="cls-3" d="M141.75,461.21c0-.76,31.43,13.57,31.43,13.57l50.17-13.57"/><line class="cls-1" x1="172.32" y1="465.73" x2="173.18" y2="474.78"/><path class="cls-1" d="M190.63,471.55l1.07,17s17,1.07,25.84-5.82c-.86-8.18-.86-20.88-.86-20.88l-27.13,9.26Z"/><path class="cls-1" d="M188,487.7,193,511s.43,6.89,11.42,4.31a65.76,65.76,0,0,0,16.79-4.53s4.31-1.5,3.23-7.75-2.58-21.31-2.58-21.31S207,493.08,188,487.7Z"/><path class="cls-1" d="M166.51,472.84l.43,49.74s2.42,3.87,9.79,2.53a4.73,4.73,0,0,0,3.85-4.57c.52-27.07-.07-47.06-.07-47.06l-7.33,2.37Z"/><path class="cls-1" d="M165.65,521.5l-3.23,1.72s-2.59,5,9.26,6a26.64,26.64,0,0,0,11-2.28,2.87,2.87,0,0,0,.88-4.6,16.84,16.84,0,0,0-1.73-1.52"/><path class="cls-1" d="M161.34,524.3l.65,33.37s7.1,4.53,23.47,1.08c.21-15.93,0-35.1,0-35.1"/><path class="cls-1" d="M160.48,551.65l-137.37,20s-3.23,3.45-.22,3.66c5.38-.43,125.75-14.86,125.75-14.86s9-.64,1.51,6.89c-11.2,9-90,81.83-90,81.83s-6,11.41,8.83,5.59c18.52-17,94.31-82.89,94.31-82.89s11-12.92,23,.43c20.88,19.59,89.79,82,89.79,82s10.12,7.54,11.84-1.5c-9.47-9.26-90.65-85.49-90.65-85.49s-7.32-8.18,8.4-6.24,118.85,15.07,118.85,15.07,1.51,2.59,2.8-1.72C312.5,571.89,187,550.35,187,550.35"/><path class="cls-1" d="M19.88,574.68l-.65,15.72s9.69,4.09,11.2-.21a68.51,68.51,0,0,0,.64-7.11l101-1.51"/><path class="cls-1" d="M58.58,652.9l-.59,17a24.42,24.42,0,0,0,13.13-.65,31.9,31.9,0,0,1,.38-8.56l97.59-71.75s4.31-6.68,11.42.43c7.53,7.1,95.17,72.34,95.17,72.34l.43,11.2,12.16-.11L288,652.85"/><polyline class="cls-1" points="215.17 582.65 317.02 583.08 317.88 592.77 328.21 592.34 327.35 574.47"/><polyline class="cls-1" points="164.14 593.2 163.93 619.9 183.3 619.9 184.6 593.2"/><ellipse class="cls-1" cx="39.47" cy="603.75" rx="2.15" ry="15.07"/><path class="cls-1" d="M39.47,588.68l-7.32.22s-5.38,24.54,1.51,29.71a31.67,31.67,0,0,1,5.81.22"/><path class="cls-1" d="M26.55,608.92a14.27,14.27,0,0,1-1.27,7c-1.39,2.62-6.11,2.58-7.64,0-7.09-11.82,1.05-25.84,1.05-25.84L15.87,590s-11,22.45,2.58,28.58a13.93,13.93,0,0,0,4.2-.4"/><polyline class="cls-1" points="20.91 590.97 21.38 609.14 29.75 608.73"/><ellipse class="cls-1" cx="79.82" cy="682.69" rx="0.73" ry="17.52"/><path class="cls-1" d="M79.25,664.37H71.34l-.49,35.2s2.91,4.2,8.4.16"/><path class="cls-1" d="M57.93,666.3c.74,5.66,1.3,32.79,1.3,32.79s-4.83,4.68-6.87-1.3L51,670s-.25-3.76,2.22-5.16C53.22,664.8,56.32,663.93,57.93,666.3Z"/><line class="cls-1" x1="59.71" y1="692.3" x2="70.37" y2="692.3"/><polygon class="cls-1" points="266.42 693.33 270.51 703.55 274.6 703.77 275.68 666.09 268.25 666.2 266.63 674.27 266.42 693.33"/><polygon class="cls-1" points="288.27 666.63 287.2 704.41 292.69 704.31 296.02 693.22 295.92 672.23 291.93 666.84 288.27 666.63"/><line class="cls-1" x1="275.25" y1="695.37" x2="287.2" y2="695.59"/><polygon class="cls-1" points="329 588.63 328.83 618.91 333.19 618.91 336.34 613.34 336.34 591.61 333.27 587.74 328.67 587.74 329 588.63"/><polygon class="cls-1" points="317.05 587.82 313.41 587.58 310.1 594.12 310.1 614.87 313.9 618.91 317.61 619.07 317.05 587.82"/><line class="cls-1" x1="318.18" y1="607.84" x2="328.11" y2="607.6"/><path class="cls-1" d="M282.35,358.93c-.43-.86,9.91-47.15,9.91-47.15s6.67-13.35,16.36-14c10.55.86,26.27,5.6,32.3,1.08,4.74-5.38,6-9.47,3.23-13.14s-14.21-7.75-29.07-8.82-56.2-1.94-56.2-1.94l-19.16,7.1-.22,10.34s15.51,0,19.17,1.51c3.66,2.58,10.76,10.55,3.87,35.09-5.81,24.55-8,29.93-8,29.93Z"/><path class="cls-2" d="M239.66,283.15l48.07-.65s24.12.64,33.59,14.64c2.59,1.93,9.26,3.66,9.26,3.66"/><path class="cls-1" d="M240.11,292.6s52.15-4.94,75.19,5.83"/><path class="cls-3" d="M194.93,97.32l-28,65.46s29.71,76.22,45.22,137.8c-5.6,8.18-51.25,54.35-51.25,54.35"/></g></g></svg>