<?xml version="1.0" encoding="utf-8"?>
<!-- Generator: Adobe Illustrator 23.0.1, SVG Export Plug-In . SVG Version: 6.00 Build 0)  -->
<svg version="1.1" id="Camada_1" xmlns="http://www.w3.org/2000/svg" xmlns:xlink="http://www.w3.org/1999/xlink" x="0px" y="0px"
	 viewBox="0 0 600 600" style="enable-background:new 0 0 600 600;" xml:space="preserve">
<style type="text/css">
	.st0{fill:#FFFFFF;}
	.st1{fill:#FFFFFF;stroke:#020203;stroke-width:0.48;stroke-miterlimit:10;}
	.st2{fill:#F2F2F2;stroke:#020203;stroke-width:0.96;stroke-miterlimit:10;}
	.st3{fill:none;stroke:#020203;stroke-width:0.96;stroke-miterlimit:10;}
	.st4{fill:#F3F3F3;stroke:#020203;stroke-width:0.96;stroke-miterlimit:10;}
	.st5{fill:none;stroke:#B5241F;stroke-width:1.42;stroke-miterlimit:10;}
	.st6{fill:none;stroke:#B5241F;stroke-width:1.8;stroke-miterlimit:10;}
	.st7{fill:none;stroke:#B5241F;stroke-width:1.38;stroke-miterlimit:10;}
	.st8{fill:none;stroke:#B5241F;stroke-width:1.22;stroke-miterlimit:10;}
	.st9{fill:#B5241F;}
	.st10{fill:#E7E6E6;}
	.st11{fill:none;stroke:#B5241F;stroke-width:1.37;stroke-miterlimit:10;}
	.st12{fill:none;stroke:#B5241F;stroke-width:1.39;stroke-miterlimit:10;}
	.st13{fill:none;stroke:#B5241F;stroke-width:1.28;stroke-miterlimit:10;}
	.st14{fill:none;stroke:#B5241F;stroke-width:1.33;stroke-miterlimit:10;}
	.st15{fill:none;stroke:#B5241F;stroke-width:1.46;stroke-miterlimit:10;}
	.st16{fill:none;stroke:#B5241F;stroke-width:1.29;stroke-miterlimit:10;}
	.st17{fill:none;stroke:#020203;stroke-width:0.48;stroke-miterlimit:10;}
	.st18{fill:none;stroke:#020203;stroke-width:0.91;stroke-miterlimit:10;}
	.st19{fill:none;stroke:#020203;stroke-width:0.79;stroke-miterlimit:10;}
	.st20{fill:none;stroke:#020203;stroke-width:0.5;stroke-miterlimit:10;}
	.st21{fill:none;stroke:#020203;stroke-width:1.01;stroke-miterlimit:10;}
	.st22{fill:none;stroke:#020203;stroke-miterlimit:10;}
	.st23{fill:none;stroke:#020203;stroke-width:0.53;stroke-miterlimit:10;}
</style>
<g id="Camada_1-2_2_">
	<path class="st0" d="M460.7,534.9L460.7,534.9c-0.1-4.8-2.9-9.1-7.2-11.1c-3.5-1.6-7.4-1.5-10.8,0.1l-0.1-0.7
		c0.2-0.4-0.5-0.8-0.7-0.7H441l-0.2-0.1c3.5,0,6.2-1.4,6.2-1.8c-0.1-0.7,0.7-2.2,0.2-6.1c-0.5-3.8-4.7-4.6-4.7-4.6
		c-13.7-7.3-29-13-43.7-17.3h0.1c0.1-1.7,0-3.4-0.3-5.1l0,0c-0.4-2.3-1.4-4.4-3.6-4.7h0.1l-4.7-1.1c-0.4,0.2-0.7,0.3-1.1,0.5l-2-1.4
		l-0.7-0.5l0.5,0.3l-0.5-0.3c0.3-0.1,0.7-0.2,1-0.4h1.8c0,0,2.7-8.6-8.1-10.3c-24.9-6.7-50.4,2.1-53.4,3.2
		c-0.1-11.3-0.4-32.4-0.4-33.3H327l0.4-0.1c-0.5-1.3-2.6-1.5-2.9-1.6v-13.9l0,0c-0.5-1.3-3.3-1.5-3.8-1.5v-5.3l-1.1-0.1
		c0.8,0,1.5-0.4,1.9-1c0.8-1.2,2-2.1,3.3-2.6c1-0.3,5.5-1.9,6-2.7l0,0c4-0.2,6.6-0.4,6.6-0.4h0.1l-0.6,0.4l0.9,0.2l0.1,0.6l-0.9,0.6
		l1,0.3l0.1,0.7l-0.9,0.7l1,0.2l0.1,0.6l-0.9,0.7l1,0.3l0.1,0.6l-0.9,0.6l1,0.5l0.1,0.7l-0.7,0.5l0.8,0.5l-1.4,0.2l2.6,17.6h0.1
		c4,1.8,8.4,2.5,12.7,1.9c4.4-0.8,8.5-2.8,11.9-5.7v0l0,0l-2.6-17.1l-1.7,0.2l-0.2-1.6l0,0l-0.1-0.6l0,0l-0.1-1l0,0l-0.1-0.8l0,0
		l-0.2-1l0,0l-0.1-0.9l0,0l-0.1-0.9l0,0l-0.1-0.8l0,0l-0.1-0.9l0,0l-0.1-1l0,0l-0.1-0.8l0,0l-0.1-0.9l0,0l-0.2-1.3
		c0.7-0.3,1.3-0.7,2-1.1c1.3-1.1,2.1-2.6,2.3-4.3l1.3-0.7c6.8,0.3,13.5,1.2,20.2,2.5c14,3,38.6,11,43,11.2s14.1-2.7,18.7-14.5
		c3.9-10.1,5-17,1.9-25.1l0,0c-0.6-1.4-1.2-2.9-1.9-4.2c-0.9-1.8-2.4-4.1-4-6.6l0,0c-7.9-12-21.9-30.3-24-31.9
		c-1.7-1.3-3.5-2.4-5.4-3.4l0,0c1.7-4.5,3-9,3-11.9c0-1.2-0.1-2.4-0.3-3.6l0,0c-0.5-2.4-1.7-4-3.5-6.8c-1.9-4.9,3.7-7,3.7-7
		s0.6-1.4,1.1-2.4c3.9-0.9,6.1-8.5,6.1-8.5c0.4-0.9,0.4-1.9,0.1-2.8c-0.7-2.7-3.9-7.1-15.4-12c-4.2-2-8.5-3.6-13-5h1
		c0.1-0.6,1.5-1.6,2-1.7s1.2-1.7,1.3-2.9c0.9-0.5,2.4-5.6,2.4-5.6c1-1.1,1.3-2.6,0.9-4l0,0c-0.4-1.4-1.1-2.7-2.1-3.7
		c-4.3-4.9-32-10.1-43.8-12.8s-40.4-5.1-60.1-4.7c-17.5,0.3-30.5,2.9-36,5.8l0,0c0,0-5.1-9.1-10.5-19.7c-5.4-10.6-7.9-17-7.2-28.5
		c-0.1-4.3-0.2-7.3-0.5-12.5c-1-18.6-13.3-37.6-22.3-50.2l0,0c-1-1.3-1.9-2.6-2.8-3.8c-9.1-12.3-4.6-40.5-4.9-58
		c-0.3-17.5-4.3-30.8-13.4-40.6c-3.1-3.4-6.9-6.1-11.1-7.8l0,0c-5.4-2.2-11.1-2.5-17.2-3c-10.3-0.9-12,3.7-12,3.7s-4.3,12.3-10,73.4
		c-0.2,2.1-0.4,4.1-0.5,6.1l0,0c-4.4,56.6,6.8,77.3,6.8,77.3s35.6,75,41.4,99.4c5.9,24.4-0.1,34.4-3.4,55
		c-3.3,20.6-2.6,35.4,4.9,44.1s16.3,2.1,16.3,2.1s-4.5,25.2,6.6,26.8c7.8,1.1,29.3-0.8,47-1.9c7.3,2.4,24,8,28.8,11.7l0.6,0.3l0,0
		c0,0,0.6,4.1,4.3,4.8l0.8,0.2c0,1,0,2-0.1,3c-0.1,1.1-3.9,14.5-4.3,15.4c1.7,0.6,3.3,1.1,3.3,1.1l0.9-2.7v6.5
		c-0.4,0.1-0.7,0.3-1.1,0.4l1.1-3.8l-4.1-1.5l-0.9-0.3l-8.7,24.3c0,0-0.5,1.7,0.2,2.1c0,0,3.5,1.3,3.9,1.3c0.3,0,2.5-3.5,2.9-5
		s0.4-2.1,0.2-2.7c-0.3-0.7,0.3-1.1,0.6-1.5c0.5-0.9,0.8-1.8,0.9-2.8c-0.1-0.9,1-1,1.4-1.9c0.2-0.3,0.6-1.6,1-3.2
		c-0.2,6.2-0.5,18.7-0.9,29.6h-0.2c0,0-27.2-10.4-53.7-3.3c-10.8,1.7-8.1,10.3-8.1,10.3h1.7c0.3,0.2,0.7,0.3,1,0.4l-2.7,1.9
		c-0.3-0.2-0.7-0.4-1.1-0.5l-4.7,1.1h0.1c-2.2,0.2-3.2,2.4-3.6,4.7l0,0c-0.3,1.7-0.4,3.4-0.3,5.1h0.1c-14.7,4.3-30,10-43.7,17.3
		c0,0-4.2,0.8-4.7,4.6s0.4,5.3,0.2,6.1c-0.1,0.4,2,1.5,4.8,1.8c-0.3,0-0.9,0.4-0.7,0.7l-0.2,0.9c-6.2-3-13.7-0.5-16.8,5.8
		c-0.8,1.6-1.2,3.4-1.3,5.2l0,0c-1.8,7.2,2.6,14.6,9.8,16.4s14.6-2.6,16.4-9.8c0.3-1,0.4-2.1,0.4-3.1c0-1.2-0.2-2.3-0.5-3.4
		c0.3-0.3,0.5-0.7,0.6-1.1l0.4-10.9l0,0c0-0.5-1-0.9-1.5-1l0.1-0.7l0.2-0.1l0.1-0.2c0,0,4.1,0.2,4.3-4.4c1.2-0.6,2.4-1.1,3.8-1.3
		c4.6-0.9,43.8-16.3,97.8-17.7c1.6,1.1,3.3,1.9,5,2.7v-0.1l0.5,0.3c0.5,14.6,1.3,36.5,2,40.6c0.6,3.7,0.6,7.6,0,11.3
		c1,1.4,2.2,2.6,3.7,3.4v4H304c-0.9,4.5-1.2,9.1-1.1,13.7c-0.1,0.5-0.3,0.9-0.7,1.3v1.7c0,0,0.5,0.5,0.5,0.8c0,4.1,0.4,8.2,1.1,12.2
		l5.1,0.3c0,0,0.2-4.8,0.3-10.6h7.3c0.1,5.8,0.3,10.6,0.3,10.6l5.1-0.3c0.7-4,1.1-8.1,1.1-12.2c0-0.3,0.5-0.8,0.5-0.8l-0.1-1.7
		c-0.3-0.4-0.5-0.8-0.7-1.3c0.1-4.6-0.2-9.2-1.1-13.7h-4v-3.7c1.7-0.9,3.2-2.2,4.3-3.8c-0.5-3.8-0.5-7.6,0-11.3
		c0.6-4.1,1.5-26.3,2-40.9l0.1-0.1l-0.1,0.1c1.8-0.7,3.4-1.6,5-2.7c54,1.4,93.2,16.8,97.8,17.7c1.3,0.2,2.6,0.7,3.8,1.3
		c0.2,4.1,3.4,4.4,4.1,4.4l0.1,1.1c-0.5,0.1-1.5,0.4-1.5,1l0,0l0.4,10.8c0.1,0.4,0.3,0.8,0.5,1.1c-1.6,7.3,2.9,14.5,10.2,16.1
		c7.3,1.6,14.5-2.9,16.1-10.2c0.2-0.9,0.3-1.8,0.3-2.7C461.1,537.2,461,536,460.7,534.9z M261.3,247.5c-1.2,0.1-2.3,0.4-3.4,0.9
		c-1.4,0.7,1.2,5.5,1.2,5.5s11.4,0.1,8.4,1l-9.4-12.3c0.9,1.8,2,3.5,3.3,5L261.3,247.5L261.3,247.5z M250.6,486.6l-0.2-0.4l0.1,0.2
		c-0.9-3.4-2.6-4.8-3.4-5.3l0,0l-0.2-0.1l-0.1-0.1l0,0l-0.3-0.1c4-1,4-3.5,4-3.5c7.5,0.4,14.8,2.2,21.7,5.2
		C265.9,483.5,258.6,484.9,250.6,486.6L250.6,486.6z M306.6,416.6v6h-0.1c-0.7,0.1-1.3,0.2-2,0.3l0.3-1c0.4-1.4,0.6-2.8,0.6-4.2V416
		L306.6,416.6L306.6,416.6z M379.4,480.8L379.4,480.8c-0.1,0-0.2,0.1-0.3,0.1l0,0c0,0-2.7,1.1-3.7,5.5l0.1-0.2l-0.2,0.4
		c-8-1.8-15.4-3.1-21.6-4.2c6.9-3,14.2-4.8,21.7-5.2C375.3,477.3,375.3,479.9,379.4,480.8L379.4,480.8z"/>
	<path class="st1" d="M304.6,406.6c0,0,0.2-3.2-1.5-3.1c-2,0.1-1.9,2.8-1.9,2.8s0,9.6-0.1,10.7s-3.9,14.5-4.3,15.4
		c1.7,0.6,3.3,1.1,3.3,1.1l3.8-12.4c0.4-1.4,0.6-2.8,0.6-4.2C304.5,415.1,304.6,406.6,304.6,406.6"/>
	<path class="st2" d="M296.8,432.4l-0.9-0.3l-8.6,24.4c0,0-0.5,1.7,0.2,2.1c0,0,3.5,1.3,3.9,1.3c0.3,0,2.5-3.5,2.9-5
		s0.4-2.1,0.2-2.7c-0.3-0.7,0.3-1.1,0.6-1.5c0.5-0.9,0.8-1.8,0.9-2.8c-0.1-0.9,1-1,1.4-1.9c0.5-0.9,3.5-11.9,3.5-11.9L296.8,432.4z"
		/>
	<path class="st3" d="M326.9,439.1c0,1.2,0.5,40.3,0.5,40.3s-11.9,6.3-29.8-0.7c0.6-16,1.2-39.8,1.2-39.8c0.8-0.8,1.8-1.3,2.9-1.5"
		/>
	<path class="st3" d="M323.9,437.4c0,0,2.4,0.2,2.9,1.6c-16.5,4.2-28-0.1-28-0.1"/>
	<line class="st3" x1="301.7" y1="423.6" x2="301.7" y2="439.6"/>
	<path class="st3" d="M305.9,422c0,0-4,0.3-4.2,1.5s8.1,2.1,11.8,2.1s11-0.6,10.4-2.1S320,422,320,422"/>
	<path class="st3" d="M306,416.1v7.4c0,0,7.9,1.8,14.1,0v-6.7"/>
	<line class="st3" x1="323.9" y1="423.6" x2="323.9" y2="439.8"/>
	<path class="st3" d="M296.4,409.2c0,0,0.6,4.1,4.3,4.8c3.7,0.7,5.3,2.2,6.9,2.6c1.6,0.3,11.3,0,11.3,0s1.5,0.1,2-1
		c0.8-1.2,2-2.1,3.3-2.6c1-0.3,5.5-1.9,6-2.7"/>
	<path class="st1" d="M304.9,406.8c0,0,0.2-3.2-1.5-3.1c-2,0.1-1.9,2.8-1.9,2.8s0,9.6-0.1,10.7s-3.9,14.5-4.3,15.4
		c1.7,0.6,3.3,1.1,3.3,1.1l3.9-12.4c0.4-1.4,0.6-2.8,0.6-4.2C304.9,415.3,305,406.8,304.9,406.8"/>
	<path class="st4" d="M297.1,432.6l-0.9-0.3l-8.6,24.4c0,0-0.5,1.7,0.2,2.1c0,0,3.5,1.3,3.9,1.3c0.3,0,2.5-3.5,2.9-5
		s0.4-2.1,0.2-2.7c-0.3-0.7,0.3-1.1,0.6-1.5c0.5-0.9,0.8-1.8,0.9-2.8c-0.1-0.9,1-1,1.4-1.9c0.5-0.9,3.6-11.9,3.6-11.9L297.1,432.6z"
		/>
	<line class="st5" x1="126.7" y1="365.6" x2="126.7" y2="14"/>
	<line class="st6" x1="82.4" y1="580.7" x2="82.4" y2="14"/>
	<line class="st7" x1="120.6" y1="374.3" x2="206.1" y2="374.3"/>
	<line class="st8" x1="76.3" y1="11" x2="174" y2="11"/>
	<polygon class="st9" points="126.7,11 132.7,21.5 120.6,21.5 	"/>
	<polygon class="st9" points="82.4,11 88.5,21.5 76.3,21.5 	"/>
	<polygon class="st9" points="126.7,374.1 120.6,363.6 132.7,363.6 	"/>
	<polygon class="st9" points="82.4,588.3 76.3,577.8 88.5,577.8 	"/>
	<rect x="108" y="182.6" class="st10" width="37.3" height="13.6"/>
	<path class="st9" d="M117,185.2v0.7l-3.6,7.3h-1.2l3.6-7.1h-4.1v-0.9H117z"/>
	<path class="st9" d="M120.6,186.2L120.6,186.2l-1.4,0.8l-0.2-0.9l1.8-0.9h1v8h-1.1L120.6,186.2z"/>
	<path class="st9" d="M129.5,193c-0.6,0.2-1.2,0.4-1.8,0.3c-1.6,0.1-3-1.1-3.1-2.7l0,0c0-0.1,0-0.3,0-0.4c0-1.7,1.3-3.1,3-3.2l0,0
		h0.3c0.5,0,1.1,0.1,1.6,0.3l-0.3,0.9c-0.4-0.2-0.9-0.3-1.3-0.3c-1.2,0.1-2.2,1.1-2.1,2.4c0.1,1.1,1,2,2.1,2.1c0.5,0,1-0.1,1.4-0.3
		L129.5,193z"/>
	<path class="st9" d="M130.9,188.8c0-0.5,0-1.1-0.1-1.6h1l0.1,1l0,0c0.4-0.7,1.1-1.1,2-1.1c0.8,0,1.5,0.5,1.8,1.2l0,0
		c0.2-0.3,0.4-0.6,0.7-0.8c0.4-0.3,0.9-0.4,1.4-0.4c0.9,0,2,0.5,2,2.6v3.5h-1.1v-3.4c0-1.1-0.4-1.8-1.4-1.8c-0.6,0-1.1,0.4-1.3,1
		c-0.1,0.2-0.1,0.4-0.1,0.5v3.7h-1.1v-3.6c0-1-0.4-1.6-1.3-1.6c-0.7,0-1.2,0.5-1.4,1.1c-0.1,0.2-0.1,0.4-0.1,0.5v3.6h-1.1
		L130.9,188.8L130.9,188.8z"/>
	<rect x="48.1" y="292.3" class="st10" width="69.5" height="13.6"/>
	<path class="st9" d="M54.1,295.9L54.1,295.9l-1.5,0.7l-0.3-0.9l1.8-0.9h1v8H54L54.1,295.9L54.1,295.9z"/>
	<path class="st9" d="M60.6,295.9L60.6,295.9l-1.4,0.7l-0.2-0.9l1.8-0.9h1v8h-1.1L60.6,295.9L60.6,295.9z"/>
	<path class="st9" d="M69.8,295.8h-3.2l-0.3,2.1c0.2,0,0.5-0.1,0.7-0.1c0.6,0,1.2,0.1,1.8,0.4c0.8,0.4,1.2,1.2,1.2,2.1
		c-0.1,1.6-1.4,2.8-2.9,2.8h-0.2c-0.7,0-1.4-0.2-2.1-0.5l0.3-0.9c0.6,0.3,1.2,0.4,1.8,0.4c1,0.1,1.9-0.6,2-1.6l0,0c0,0,0,0,0-0.1
		c0-1-0.7-1.8-2.4-1.8c-0.4,0-0.8,0-1.2,0.1l0.5-3.9h4C69.8,294.8,69.8,295.8,69.8,295.8z"/>
	<path class="st9" d="M77.9,303l-0.1-0.8l0,0c-0.5,0.6-1.2,0.9-1.9,0.9c-0.9,0.1-1.8-0.6-1.9-1.5l0,0c0-0.1,0-0.1,0-0.2
		c0-1.4,1.3-2.2,3.7-2.2V299c0.1-0.7-0.4-1.3-1.1-1.4c-0.1,0-0.2,0-0.3,0c-0.6,0-1.1,0.2-1.6,0.4l-0.3-0.7c0.6-0.4,1.3-0.5,2-0.5
		c1.9,0,2.4,1.3,2.4,2.5v2.3c0,0.5,0,1,0.1,1.4L77.9,303z M77.7,299.9c-1.2,0-2.6,0.2-2.6,1.3c0,0.5,0.4,1,0.9,1l0,0h0.1
		c0.7,0,1.3-0.4,1.5-1c0-0.1,0.1-0.2,0.1-0.3V299.9z"/>
	<path class="st9" d="M85.5,295.9L85.5,295.9l-1.4,0.7l-0.2-0.9l1.8-0.9h1v8h-1.1v-6.9H85.5z"/>
	<path class="st9" d="M89.6,303v-0.7l0.9-0.9c2.1-2,3.1-3,3.1-4.2c0.1-0.8-0.5-1.5-1.3-1.6l0,0c-0.1,0-0.2,0-0.3,0
		c-0.7,0-1.3,0.3-1.8,0.7l-0.4-0.8c0.7-0.5,1.5-0.8,2.4-0.9c1.3-0.2,2.4,0.7,2.6,2l0,0c0,0.1,0,0.2,0,0.3c0,1.5-1.1,2.7-2.9,4.3
		l-0.7,0.6H95v0.9L89.6,303z"/>
	<path class="st9" d="M96.5,301.7c0.6,0.3,1.2,0.5,1.9,0.5c1.5,0,1.9-0.9,1.9-1.6c0-1.1-1.1-1.6-2.2-1.6h-0.6v-0.9h0.6
		c0.9,0,1.9-0.4,1.9-1.4c0-0.6-0.4-1.2-1.5-1.2c-0.6,0-1.2,0.2-1.7,0.5l-0.3-0.8c0.7-0.4,1.4-0.6,2.2-0.6c1.6,0,2.4,0.9,2.4,1.9
		c0,0.9-0.7,1.7-1.5,1.9l0,0c1.1,0.1,1.9,1.1,1.9,2.2c0,1.3-1,2.4-3.1,2.4c-0.8,0-1.5-0.2-2.2-0.5L96.5,301.7z"/>
	<path class="st9" d="M107.6,302.7c-0.6,0.2-1.2,0.4-1.8,0.3c-1.6,0.1-3-1.1-3.1-2.7l0,0c0-0.1,0-0.3,0-0.4c0-1.7,1.3-3.1,3-3.2l0,0
		h0.3c0.5,0,1.1,0.1,1.6,0.3l-0.3,0.9c-0.4-0.2-0.9-0.3-1.3-0.3c-1.2,0.1-2.2,1.1-2.1,2.4c0.1,1.1,1,2,2.1,2.1c0.5,0,1-0.1,1.4-0.3
		L107.6,302.7z"/>
	<path class="st9" d="M108.9,298.6c0-0.5,0-1.1-0.1-1.6h1l0.1,1l0,0c0.4-0.7,1.1-1.1,2-1.1c0.8,0,1.5,0.5,1.8,1.2l0,0
		c0.2-0.3,0.4-0.6,0.7-0.8c0.4-0.3,0.9-0.4,1.4-0.4c0.9,0,2,0.5,2,2.6v3.5h-1v-3.4c0-1.1-0.4-1.8-1.4-1.8c-0.6,0-1.2,0.5-1.3,1.1
		c-0.1,0.2-0.1,0.4-0.1,0.5v3.7h-1.1v-3.6c0-1-0.4-1.6-1.3-1.6c-0.7,0-1.2,0.5-1.4,1.1c-0.1,0.2-0.1,0.4-0.1,0.5v3.6H109
		L108.9,298.6L108.9,298.6z"/>
	<line class="st11" x1="76.3" y1="588.3" x2="536" y2="588.3"/>
	<line class="st12" x1="220.5" y1="456.2" x2="439.9" y2="456.2"/>
	<line class="st13" x1="213.5" y1="462.3" x2="213.5" y2="385.3"/>
	<polygon class="st9" points="213.8,456.2 224.3,462.3 224.3,450.1 	"/>
	<line class="st8" x1="450.7" y1="462.3" x2="450.7" y2="385.2"/>
	<polygon class="st9" points="450.4,456.2 439.9,462.3 439.9,450.1 	"/>
	<line class="st14" x1="483.1" y1="588.4" x2="483.1" y2="377.2"/>
	<line class="st12" x1="529.9" y1="587.8" x2="529.9" y2="259.8"/>
	<rect x="452.8" y="479.2" class="st10" width="60.5" height="13.6"/>
	<path class="st9" d="M456.6,488.5c0.6,0.3,1.2,0.5,1.9,0.5c1.5,0,1.9-0.9,1.9-1.6c0-1.1-1.1-1.6-2.2-1.6h-0.6V485h0.6
		c0.9,0,1.9-0.4,1.9-1.4c0-0.6-0.4-1.2-1.5-1.2c-0.6,0-1.2,0.2-1.7,0.5l-0.3-0.8c0.7-0.4,1.4-0.6,2.2-0.6c1.6,0,2.4,0.9,2.4,1.9
		c0,0.9-0.7,1.7-1.5,1.9l0,0c1,0.1,1.8,1,1.9,2.1c0,1.3-1,2.4-3.1,2.4c-0.8,0-1.5-0.2-2.2-0.5L456.6,488.5z"/>
	<path class="st9" d="M463.6,489c0.3,0,0.6,0,0.9,0c0.6-0.1,1.2-0.4,1.7-0.8c0.6-0.6,1-1.3,1.1-2.1l0,0c-0.5,0.6-1.2,0.9-2,0.9
		c-1.3,0.1-2.4-1-2.5-2.3l0,0v-0.2c0-1.6,1.2-2.8,2.8-2.9l0,0h0.1c1.7,0,2.8,1.3,2.8,3.4c0.1,1.4-0.4,2.8-1.4,3.8
		c-0.7,0.6-1.5,1-2.4,1.1c-0.3,0.1-0.7,0.1-1,0.1L463.6,489z M464,484.4c-0.1,0.9,0.6,1.6,1.4,1.7l0,0h0.2c0.7,0,1.3-0.3,1.6-0.9
		c0.1-0.1,0.1-0.3,0.1-0.4c0-1.4-0.5-2.4-1.7-2.4c-0.9,0-1.7,0.8-1.7,1.8l0,0C463.9,484.2,463.9,484.3,464,484.4L464,484.4z"/>
	<path class="st9" d="M476,489.8V489l0,0c-0.5,0.6-1.2,0.9-1.9,0.9c-0.9,0.1-1.8-0.6-1.9-1.5l0,0c0-0.1,0-0.1,0-0.2
		c0-1.4,1.3-2.2,3.7-2.2v-0.1c0.1-0.7-0.4-1.3-1.1-1.4l0,0c-0.1,0-0.2,0-0.3,0c-0.6,0-1.1,0.2-1.6,0.4l-0.3-0.7
		c0.6-0.4,1.3-0.5,2-0.5c1.9,0,2.4,1.3,2.4,2.5v2.3c0,0.5,0,1,0.1,1.4L476,489.8z M475.9,486.7c-1.2,0-2.6,0.2-2.6,1.3
		c0,0.5,0.4,1,0.9,1l0,0h0.1c0.7,0,1.3-0.4,1.5-1c0-0.1,0.1-0.2,0.1-0.3V486.7z"/>
	<path class="st9" d="M484.6,489.8v-2.2h-3.8v-0.7l3.7-5.1h1.2v5h1.2v0.9h-1.2v2.2L484.6,489.8z M484.6,486.7v-3.9l0,0
		c-0.2,0.4-0.4,0.8-0.7,1.2l-2,2.7l0,0L484.6,486.7z"/>
	<path class="st9" d="M493.2,481.7v0.7l-3.6,7.3h-1.2l3.6-7.1h-4.1v-0.9H493.2z"/>
	<path class="st9" d="M499.1,489.5c-0.6,0.2-1.2,0.4-1.8,0.3c-1.6,0.1-3-1.1-3.1-2.7l0,0c0-0.1,0-0.3,0-0.4c0-1.7,1.3-3.1,3-3.2l0,0
		h0.3c0.5,0,1.1,0.1,1.6,0.3l-0.3,0.9c-0.4-0.2-0.9-0.3-1.3-0.3c-1.2,0.1-2.2,1.1-2.1,2.4c0.1,1.1,1,2,2.1,2.1c0.5,0,1-0.1,1.4-0.3
		L499.1,489.5z"/>
	<path class="st9" d="M500.5,485.4c0-0.5,0-1.1-0.1-1.6h0.9l0.1,1l0,0c0.4-0.7,1.1-1.1,2-1.1c0.8,0,1.5,0.5,1.8,1.2l0,0
		c0.2-0.3,0.4-0.6,0.7-0.8c0.4-0.3,0.9-0.4,1.4-0.4c0.9,0,2,0.5,2,2.6v3.5h-1v-3.4c0-1.1-0.4-1.8-1.4-1.8c-0.6,0-1.1,0.4-1.3,1
		c-0.1,0.2-0.1,0.4-0.1,0.5v3.7h-1.1v-3.6c0-1-0.4-1.6-1.3-1.6c-0.7,0-1.2,0.5-1.4,1.1c-0.1,0.2-0.1,0.3-0.1,0.5v3.6h-1.1V485.4z"/>
	<rect x="470.2" y="382.2" class="st10" width="27.8" height="13.6"/>
	<path class="st9" d="M474.3,392.1c0.3,0,0.6,0,0.9,0c0.6-0.1,1.2-0.4,1.7-0.8c0.6-0.6,1-1.3,1.1-2.1l0,0c-0.5,0.6-1.2,0.9-2,0.9
		c-1.3,0.1-2.4-1-2.5-2.3l0,0v-0.2c0-1.6,1.2-2.8,2.7-2.9l0,0h0.1c1.7,0,2.8,1.3,2.8,3.4c0.1,1.4-0.4,2.8-1.4,3.8
		c-0.7,0.6-1.5,1-2.4,1.1c-0.3,0.1-0.7,0.1-1,0.1L474.3,392.1z M474.8,387.4c-0.1,0.9,0.6,1.6,1.4,1.7l0,0h0.2
		c0.7,0,1.3-0.3,1.6-0.9c0.1-0.1,0.1-0.3,0.1-0.4c0-1.4-0.5-2.4-1.7-2.4c-0.9,0-1.7,0.8-1.7,1.8l0,0
		C474.7,387.3,474.7,387.4,474.8,387.4L474.8,387.4z"/>
	<path class="st9" d="M485.1,392.6c-0.6,0.2-1.2,0.4-1.8,0.3c-1.6,0.1-3-1.1-3.1-2.7l0,0c0-0.1,0-0.3,0-0.4c0-1.7,1.3-3.1,3-3.2l0,0
		h0.3c0.5,0,1.1,0.1,1.6,0.3l-0.3,0.9c-0.4-0.2-0.9-0.3-1.3-0.3c-1.2,0.1-2.2,1.1-2.1,2.4c0.1,1.1,1,2,2.1,2.1c0.5,0,1-0.1,1.4-0.3
		L485.1,392.6z"/>
	<path class="st9" d="M486.4,388.5c0-0.5,0-1.1-0.1-1.6h1l0.1,1l0,0c0.4-0.7,1.1-1.1,2-1.1c0.8,0,1.5,0.5,1.8,1.2l0,0
		c0.2-0.3,0.4-0.6,0.7-0.8c0.4-0.3,0.9-0.4,1.4-0.4c0.9,0,2,0.5,2,2.6v3.5h-1.1v-3.4c0-1.1-0.4-1.8-1.4-1.8c-0.6,0-1.1,0.4-1.3,1
		c-0.1,0.2-0.1,0.4-0.1,0.5v3.7h-1.1v-3.6c0-1-0.4-1.6-1.3-1.6c-0.7,0-1.2,0.5-1.4,1.1c-0.1,0.2-0.1,0.4-0.1,0.5v3.6h-1.1V388.5z"/>
	<rect x="499.7" y="416" class="st10" width="60.5" height="14.1"/>
	<path class="st9" d="M509,419.5c-0.3,0-0.6,0-0.9,0.1c-1.5,0.2-2.7,1.4-2.9,3l0,0c0.9-1.1,2.5-1.2,3.6-0.3c0.6,0.5,0.9,1.2,0.9,2
		c0.1,1.5-1.1,2.9-2.6,2.9H507c-1.8,0-3-1.4-3-3.6c0-1.4,0.5-2.7,1.4-3.8c0.7-0.7,1.7-1.1,2.7-1.2c0.3,0,0.6-0.1,0.9-0.1V419.5z
		 M508.6,424.3c0.1-0.9-0.6-1.8-1.5-1.9l0,0h-0.2c-0.7,0-1.3,0.4-1.6,1c-0.1,0.2-0.1,0.3-0.1,0.5c0,1.4,0.7,2.4,1.8,2.4
		C508,426.3,508.6,425.5,508.6,424.3L508.6,424.3z"/>
	<path class="st9" d="M511.4,426.2c0.3,0,0.6,0,0.9,0c0.6-0.1,1.2-0.4,1.7-0.8c0.6-0.6,1-1.4,1.1-2.2l0,0c-1,1-2.6,1.1-3.6,0.1
		c-0.5-0.4-0.7-1-0.8-1.6c0-0.1,0-0.1,0-0.2c-0.1-1.6,1.2-2.9,2.8-3l0,0h0.1c1.7,0,2.8,1.4,2.8,3.5c0.1,1.5-0.4,2.9-1.4,3.9
		c-0.7,0.6-1.5,1-2.4,1.1c-0.3,0.1-0.7,0.1-1,0.1L511.4,426.2z M511.8,421.4c-0.1,0.9,0.6,1.7,1.4,1.8h0.2c0.7,0,1.3-0.3,1.6-0.9
		c0.1-0.1,0.1-0.3,0.1-0.4c0-1.4-0.5-2.5-1.7-2.5C512.5,419.4,511.8,420.2,511.8,421.4L511.8,421.4z"/>
	<path class="st9" d="M523.9,427l-0.1-0.8l0,0c-0.4,0.6-1.1,0.9-1.9,0.9c-1,0.1-1.8-0.7-1.9-1.6l0,0v-0.1c0-1.5,1.3-2.3,3.7-2.3V423
		c0.1-0.7-0.4-1.3-1.1-1.4h-0.3c-0.6,0-1.1,0.2-1.6,0.5l-0.3-0.7c0.6-0.4,1.3-0.6,2-0.6c1.9,0,2.4,1.3,2.4,2.6v2.3
		c0,0.5,0,1,0.1,1.5L523.9,427z M523.7,423.8c-1.2,0-2.6,0.2-2.6,1.4c0,0.6,0.4,1,0.9,1.1h0.2c0.7,0,1.3-0.4,1.5-1
		c0-0.1,0.1-0.2,0.1-0.4L523.7,423.8z"/>
	<path class="st9" d="M534.4,418.7v0.7l-3.6,7.6h-1.1l3.6-7.4h-4.1v-0.9L534.4,418.7z"/>
	<path class="st9" d="M541,418.7v0.7l-3.7,7.6h-1.2l3.6-7.4h-4.1v-0.9L541,418.7z"/>
	<path class="st9" d="M547,426.8c-0.6,0.2-1.2,0.4-1.8,0.4c-1.6,0.1-3-1.2-3.1-2.8l0,0c0-0.1,0-0.2,0-0.4c-0.1-1.7,1.3-3.2,3-3.3
		l0,0c0.1,0,0.2,0,0.3,0c0.5,0,1.1,0.1,1.6,0.3l-0.3,0.9c-0.4-0.2-0.9-0.3-1.3-0.3c-1.3,0.1-2.2,1.2-2.1,2.5c0.1,1.1,1,2,2.1,2.1
		c0.5,0,1-0.1,1.4-0.3L547,426.8z"/>
	<path class="st9" d="M548.3,422.5c0-0.6,0-1.2-0.1-1.7h1l0.1,1l0,0c0.4-0.7,1.1-1.2,2-1.1c0.8,0,1.5,0.5,1.7,1.3l0,0
		c0.2-0.3,0.4-0.6,0.7-0.8c0.4-0.3,0.9-0.5,1.4-0.4c0.9,0,2,0.5,2,2.7v3.7H556v-3.5c0-1.2-0.4-1.9-1.4-1.9c-0.6,0-1.2,0.4-1.3,1
		c-0.1,0.2-0.1,0.4-0.1,0.6v3.8h-1.1v-3.7c0-1-0.4-1.7-1.3-1.7c-0.9,0.1-1.5,0.8-1.5,1.7v3.8h-1.1L548.3,422.5z"/>
	<line class="st15" x1="427.6" y1="410" x2="489.1" y2="410"/>
	<line class="st8" x1="445.2" y1="368.9" x2="489.1" y2="368.9"/>
	<line class="st16" x1="330.1" y1="252.3" x2="536" y2="252.3"/>
	<polygon class="st9" points="529.9,253 536,263.5 523.8,263.5 	"/>
	<polygon class="st9" points="529.9,589 523.8,578.5 536,578.5 	"/>
	<polygon class="st9" points="483.1,588.3 477,578.2 489.1,578.2 	"/>
	<polygon class="st9" points="483.1,410 477,399.9 489.1,399.9 	"/>
	<polygon class="st9" points="483.1,410.1 489.1,420.2 477,420.2 	"/>
	<polygon class="st9" points="483.1,368.5 489.1,378.6 477,378.6 	"/>
	<path class="st10" d="M261.4,303.6l-1.9,12.4l13.1-3C272.5,312.9,262.3,302.8,261.4,303.6z"/>
	<path class="st10" d="M274.5,285.6l20.6,25.2l52.8-3.6c2.1-4.3,4.6-8.4,7.4-12.3C310.1,282.8,274.9,285.3,274.5,285.6z"/>
	<path class="st10" d="M370.8,300.1l-4.1,7.2l11.7,1.1l12,3.4l-0.5-2.6l-4.5-3.7C385.4,305.6,371.8,299.6,370.8,300.1z"/>
	<path class="st3" d="M297.6,472.5c0,0-27.2-10.4-53.7-3.3c-10.8,1.7-8.1,10.3-8.1,10.3h1.7c0,0,0-1.4,0.7-1.9
		c1.1-0.7,16-3.3,33.5,4.4"/>
	<path class="st17" d="M237.5,479.5c2.5,1.1,5.4,1.4,8.1,0.9c4.3-1,4.3-3.6,4.3-3.6"/>
	<path class="st3" d="M290.9,479.3c0,0-63.1,6-108.2,30.1c0,0-4.2,0.8-4.7,4.6c-0.5,3.8,0.4,5.3,0.2,6.1s5.9,3.3,11.8,0.7
		c1.2-2.4,3.5-5,8.1-5.8c4.6-0.9,43.8-16.4,97.8-17.7c1.6,1.1,3.3,1.9,5,2.7"/>
	<path class="st17" d="M190.1,520.6c0,0,4.1,0.2,4.3-4.4"/>
	<path class="st3" d="M327,472.5c0,0,27.2-10.4,53.7-3.3c10.8,1.7,8.1,10.3,8.1,10.3h-1.7c0,0,0-1.4-0.7-1.9
		c-1.1-0.7-16-3.3-33.5,4.4"/>
	<path class="st17" d="M387.1,479.5c-2.5,1.1-5.4,1.4-8.1,0.9c-4.3-1-4.3-3.6-4.3-3.6"/>
	<path class="st3" d="M333.7,479.3c0,0,63.1,6,108.2,30.1c0,0,4.2,0.8,4.7,4.6c0.5,3.8-0.4,5.3-0.2,6.1s-5.9,3.3-11.8,0.7
		c-1.2-2.4-3.5-5-8.1-5.8c-4.6-0.9-43.8-16.4-97.8-17.7c-1.6,1.1-3.3,1.9-5,2.7"/>
	<path class="st17" d="M434.5,520.6c0,0-4.1,0.2-4.3-4.4"/>
	<path class="st3" d="M301,486.9c0,0,1.5,47.7,2.4,53.9c0.6,3.8,0.6,7.6,0,11.3c2.1,3,5.4,4.9,9.1,5.1"/>
	<path class="st3" d="M324,486.9c0,0-1.5,47.7-2.4,53.9c-0.6,3.8-0.6,7.6,0,11.3c-2.1,3-5.4,4.9-9.1,5.1"/>
	<path class="st3" d="M226.3,492.2c0,0-0.8-9.5,4.1-9.8c4.8-0.3,7.5,6.6,7.5,6.6"/>
	<path class="st3" d="M230.1,482.4l4.7-1.1c0,0,5,1.9,5.8,7"/>
	<path class="st17" d="M240.6,480.4v1.1c0,0,3.3,1.5,5.2,0c0-0.6,0-1.2,0-1.2"/>
	<path class="st17" d="M240.5,481c0,0-1.1,0.2-1.1,0.7s5.5,2.2,7.8-0.1c-0.3-0.8-1.4-0.7-1.4-0.7"/>
	<line class="st17" x1="239.4" y1="481.7" x2="239.4" y2="485"/>
	<line class="st17" x1="247.3" y1="481.7" x2="247.3" y2="486.6"/>
	<path class="st3" d="M235.9,481.8c0,0,1.3-0.9,2.7-1.9"/>
	<path class="st3" d="M246.1,480.4c0,0,2.7,1.1,3.7,5.5"/>
	<polyline class="st17" points="227.4,485.2 230.3,491 229.5,491.2 226.5,487.1 	"/>
	<line class="st17" x1="229.6" y1="482.5" x2="230.8" y2="490.7"/>
	<line class="st17" x1="231.5" y1="482.5" x2="231.4" y2="490.7"/>
	<path class="st17" d="M235.2,484.8c0,0-2.9,5.3-3,5.6"/>
	<line class="st17" x1="233.5" y1="490.1" x2="236.4" y2="486.5"/>
	<path class="st3" d="M398.3,492.2c0,0,0.8-9.5-4.1-9.8c-4.8-0.3-7.5,6.6-7.5,6.6"/>
	<path class="st3" d="M394.5,482.4l-4.7-1.1c0,0-5,1.9-5.8,7"/>
	<path class="st17" d="M384,480.4v1.1c0,0-3.2,1.5-5.1,0c0-0.6,0-1.2,0-1.2"/>
	<path class="st17" d="M384.1,481c0,0,1.1,0.2,1.1,0.7s-5.5,2.2-7.8-0.1c0.3-0.8,1.4-0.7,1.4-0.7"/>
	<line class="st17" x1="385.2" y1="481.7" x2="385.2" y2="485"/>
	<line class="st17" x1="377.4" y1="481.7" x2="377.4" y2="486.6"/>
	<path class="st3" d="M388.7,481.8c0,0-1.3-0.9-2.7-1.9"/>
	<path class="st3" d="M378.5,480.4c0,0-2.7,1.1-3.7,5.5"/>
	<polyline class="st17" points="397.3,485.2 394.3,491 395.1,491.2 398.1,487.1 	"/>
	<line class="st17" x1="395" y1="482.5" x2="393.8" y2="490.7"/>
	<line class="st17" x1="393.1" y1="482.5" x2="393.2" y2="490.7"/>
	<path class="st17" d="M389.4,484.8c0,0,2.9,5.3,3,5.6"/>
	<line class="st17" x1="391.1" y1="490.1" x2="388.3" y2="486.5"/>
	<path class="st3" d="M183.1,521.8c-0.4-0.1-2,1,1.1,1.5c2.4,0.4,6.7,0,7-0.6s-1-1-1.5-1.1"/>
	<line class="st17" x1="189.6" y1="520.9" x2="189.6" y2="522.9"/>
	<line class="st3" x1="182.4" y1="522.5" x2="182.4" y2="525.4"/>
	<path class="st3" d="M191.3,522.5l-0.4,10.8c0,0-0.2,0.9-0.6,1.2"/>
	<ellipse class="st18" cx="177.2" cy="537.9" rx="13.5" ry="13.3"/>
	<ellipse class="st19" cx="177.2" cy="537.9" rx="11.8" ry="11.6"/>
	<path class="st18" d="M182.4,523.5c-6.2-3.1-13.7-0.6-16.8,5.6c-0.8,1.7-1.3,3.5-1.3,5.4"/>
	<path class="st20" d="M173.2,527l3.1,9.2c-0.2,0.1-0.5,0.3-0.6,0.5c-0.9-0.5-7.8-5.8-7.8-5.8"/>
	<path class="st20" d="M182.7,527.6l-4.2,8.4c-0.4-0.1-0.7-0.1-1.1-0.1c-0.3-1.8-1.2-9.6-1.2-9.6"/>
	<path class="st20" d="M188.3,533.9l-8.4,3.4c-0.1-0.3-0.2-0.5-0.4-0.7c0.5-0.9,5.6-7.4,5.6-7.4"/>
	<path class="st20" d="M188,542.8l-8.1-3.7c0.1-0.2,0.2-0.5,0.2-0.8c1-0.2,8.8-2.2,8.8-2.2"/>
	<path class="st20" d="M181.5,548.7l-2.8-8.2c0.3-0.1,0.5-0.2,0.7-0.4c0.9,0.5,7,5.2,7,5.2"/>
	<path class="st20" d="M172.7,548.6l4.1-8c0.3,0.1,0.6,0.1,0.9,0.1c0.3,1.8,0.9,7.7,1.1,8.7"/>
	<path class="st20" d="M166.6,542.8l8.6-3.5c0.1,0.3,0.2,0.5,0.4,0.7c-0.5,0.8-5.4,7.1-5.4,7.1"/>
	<path class="st20" d="M166.3,533.5l8.9,4c-0.1,0.2-0.2,0.5-0.2,0.8c-1,0.2-9.2,2.2-9.2,2.2"/>
	<ellipse class="st18" cx="447" cy="537.9" rx="13.5" ry="13.3"/>
	<ellipse class="st19" cx="447" cy="537.9" rx="11.8" ry="11.6"/>
	<path class="st18" d="M441.9,523.4c6.2-3.1,13.7-0.6,16.8,5.6c0.8,1.7,1.3,3.5,1.3,5.4"/>
	<path class="st20" d="M451,527l-3.1,9.2c0.2,0.1,0.5,0.3,0.6,0.5c0.9-0.5,7.8-5.8,7.8-5.8"/>
	<path class="st20" d="M441.6,527.6l4.2,8.4c0.4-0.1,0.7-0.1,1.1-0.1c0.3-1.8,1.2-9.6,1.2-9.6"/>
	<path class="st20" d="M436,533.9l8.4,3.4c0.1-0.3,0.2-0.5,0.4-0.7c-0.5-0.9-5.6-7.4-5.6-7.4"/>
	<path class="st20" d="M436.2,542.8l8.1-3.7c-0.1-0.2-0.2-0.5-0.2-0.8c-1-0.2-8.8-2.2-8.8-2.2"/>
	<path class="st20" d="M442.8,548.7l2.8-8.2c-0.3-0.1-0.5-0.2-0.7-0.4c-0.8,0.5-7,5.2-7,5.2"/>
	<path class="st20" d="M451.6,548.6l-4.1-8c-0.3,0.1-0.6,0.1-0.9,0.1c-0.3,1.8-1,7.7-1.1,8.7"/>
	<path class="st20" d="M457.7,542.8l-8.6-3.5c-0.1,0.3-0.2,0.5-0.4,0.7c0.5,0.8,5.4,7.1,5.4,7.1"/>
	<path class="st20" d="M457.9,533.5l-8.8,4c0.1,0.2,0.2,0.5,0.2,0.8c1,0.2,9.2,2.2,9.2,2.2"/>
	<path class="st3" d="M441.2,522c0.4-0.1,2,1-1.1,1.5c-2.4,0.4-6.7,0-7-0.6s1-1,1.5-1.1"/>
	<line class="st17" x1="434.6" y1="521.1" x2="434.6" y2="523.1"/>
	<line class="st3" x1="441.9" y1="522.7" x2="441.9" y2="525.6"/>
	<path class="st3" d="M433,522.7l0.4,10.8c0,0,0.2,0.9,0.6,1.2"/>
	<line class="st17" x1="307.1" y1="555.5" x2="307.1" y2="559.4"/>
	<path class="st3" d="M308.6,559.6h-5.2c-0.9,4.5-1.2,9.1-1.1,13.7c-0.1,0.5-0.3,0.9-0.7,1.3l-0.1,1.7c0,0,0.5,0.5,0.5,0.8
		c0,4.1,0.4,8.2,1.1,12.2l5.1,0.3C308.4,589.5,309.3,561.7,308.6,559.6z"/>
	<path class="st17" d="M303.4,559.6c0,0-0.2,12.4-0.2,29.6"/>
	<path class="st3" d="M316.1,559.6h5.2c0.9,4.5,1.2,9.1,1.1,13.7c0.1,0.5,0.3,0.9,0.7,1.3l0.1,1.7c0,0-0.5,0.5-0.5,0.8
		c0,4.1-0.4,8.2-1.1,12.2l-5.1,0.3C316.3,589.5,315.4,561.7,316.1,559.6z"/>
	<path class="st17" d="M321.3,559.6c0,0,0.2,12.4,0.2,29.6"/>
	<line class="st17" x1="308.8" y1="561" x2="315.9" y2="561"/>
	<line class="st17" x1="308.8" y1="578.9" x2="315.9" y2="578.9"/>
	<line class="st17" x1="317.3" y1="555.9" x2="317.3" y2="559.6"/>
	<path class="st17" d="M301.4,406.9c-0.5-1.6,0.2-5.1,0.5-6.1s0.8-2.1,2.5-2.2s2,2.2,2,2.2s-0.1,5.9-1,6.9"/>
	<path class="st3" d="M266.2,397c0,0,23.4,7.1,29.7,11.9c3.9,1.9,9.2,1.6,20.2,1.7s20.9-0.7,20.9-0.7s3.7,0,5.3-2.3
		c1.6-2.3,14-6.8,14-6.8s1.7-0.3,8-3.9"/>
	<circle class="st17" cx="321.7" cy="405.2" r="3"/>
	<polyline class="st20" points="358.6,403.3 359.4,404 357.9,405.3 359.8,405.6 358.1,406.9 360,407.4 358.6,408.6 360.2,409 
		358.8,410.4 360.5,411 359.2,412.3 360.8,412.7 359.6,413.8 361.1,414.4 360.3,415.4 	"/>
	<polyline class="st20" points="337.2,409.8 336.4,410.4 338,410.8 336.6,411.8 338.3,412.3 336.9,413.4 338.5,413.8 337.1,415 
		338.8,415.5 337.4,416.5 339.1,417.4 337.9,418.2 338.8,418.8 	"/>
	<line class="st20" x1="359.3" y1="404.1" x2="342.2" y2="407.7"/>
	<line class="st20" x1="359.8" y1="405.6" x2="336.5" y2="410.5"/>
	<line class="st20" x1="359.7" y1="407.5" x2="337.1" y2="411.8"/>
	<line class="st20" x1="360.1" y1="409" x2="337.2" y2="413.3"/>
	<line class="st20" x1="360.5" y1="411" x2="337.5" y2="415"/>
	<line class="st20" x1="360.7" y1="412.8" x2="337.7" y2="416.6"/>
	<line class="st20" x1="361.1" y1="414.4" x2="338.1" y2="418"/>
	<path class="st21" d="M337.3,418.8l24.8-3.4l2.6,17.3c-3.4,2.9-7.5,4.9-11.9,5.7c-4.4,0.5-8.8-0.1-12.9-2L337.3,418.8z"/>
	<path class="st20" d="M339.7,436.5c8.5,0.2,16.9-1.1,24.9-3.9"/>
	<path class="st20" d="M363,397c0,0-0.2,3.5-2.5,5.1c-2,1.5-7,3.2-7,3.2"/>
	<line class="st3" x1="355.5" y1="295" x2="347.2" y2="307.5"/>
	<line class="st3" x1="370.9" y1="299.9" x2="366.7" y2="307.6"/>
	<path class="st22" d="M217.5,303.5c0,0-11.3,24.9-9.8,34.2c1.5,9.4,5.4,13.5,5.4,13.5s14.7,15.4,22.4,20.7
		c7.7,5.2,29.6,19.8,29.6,19.8s4.1,8.1,81.4,5.5"/>
	<path class="st22" d="M231.4,318.7c0,0-3,10.3-2.1,16s6.6,10.2,6.6,10.2s33.3,26.6,45,32.1s6-2.1,6-2.1s-19.7-22.2-27.2-28.7
		C252.1,339.8,231.4,318.7,231.4,318.7z"/>
	<path class="st22" d="M231.2,318.4c0,0-15.9-14.5-18-22.6s1.6-14.4,7.4-17.2c5.9-2.8,23.1-6.6,23.1-6.6s-3.1-9.1-1.2-12.4
		c1.9-3.3,16.1-6.3,16.1-6.3s35.3-3.5,63.8-0.9c28.5,2.7,66.3,8.4,84.9,17.5c18.9,8.1,15.3,14.8,15.3,14.8s-2.2,7.7-6.1,8.5
		c-0.5,1-1.1,2.4-1.1,2.4s-5.6,2.1-3.7,7c2.6,4,3.9,5.6,3.9,10.4c-0.1,4.8-3.6,14.1-6.8,20.5c-3.2,6.4-24.5,47.2-34.9,53.8
		c-10.4,6.6-27.4,9.9-27.4,9.9"/>
	<path class="st22" d="M246.6,287.5c0,0-9.4,7.2-10.1,16c3.2,5.5,13.9,14.7,13.9,14.7s48,46.7,51.5,49.7s8.3,6.7,16.1,6.9
		c7.9,0.2,24.2-1,28.2-1.8s13.8-5.1,18.8-12.1s23.6-33.1,25.6-42.2c3.2-10-5.5-13-5.5-13S327.9,276.9,246.6,287.5z"/>
	<path class="st20" d="M284.2,364.8c0,0-65-63-66.3-67.6s-6-11.7,6.6-14.7s56.2-10,89.5-3.7c33.2,6.3,84.1,17.7,92.8,26.6
		s-3.4,30.3-3.4,30.3s-17,30.8-22.8,37.1c-5.9,6.3-14.1,17.1-30.6,18.9s-62.4,2.4-62.4,2.4s-13.1,0.1-28.1-9.4
		c-15-9.6-48.4-33.6-48.4-45.6s8.7-32.8,8.7-32.8"/>
	<path class="st22" d="M416.5,293.2c0,0-90.6-35.6-164.8-20.1c-5.8,0.7-8.1-1.4-8.1-1.4"/>
	<path class="st23" d="M243,258.9c0,0,36.1-4.4,51.8-4.2c15.7,0.2,44.3,1.2,71.3,9c27,7.8,49.9,18.4,56.4,18.1"/>
	<path class="st20" d="M415.2,309.4c0,0-5.3-9.5-18-13.9s-54.8-17.1-75.2-19.3s-59.4-2-67.6-1.7"/>
	<path class="st20" d="M414.7,295.9c0,0-2.7-0.9-16.4-5.2c-13.7-4.3-57.2-16.3-92.1-17.4c-37-1.1-51.2,1-51.2,1"/>
	<path class="st22" d="M258.6,253.3c0,0-2.6-4.6-1.2-5.5c1.1-0.5,2.4-0.8,3.6-0.7c0,0-6.9-7.4-2.9-10.7s18-6.5,37.6-6.9
		s48.3,2,60.1,4.7c11.8,2.7,39.6,7.8,43.8,12.8c4.3,4.9,1.3,7.8,1.3,7.8s-1.6,5.1-2.4,5.6c-0.1,1.1-0.8,2.7-1.3,2.9
		c-0.5,0.1-1.9,1.1-2,1.7"/>
	<path class="st23" d="M257.7,236.4c0,0,19.8-4.9,37.3-4.7c17.6,0.2,42.5,0.2,65.8,5.8c14,3.3,27.7,7.8,41,13.3"/>
	<path class="st22" d="M261,247.1c0,0,38.1-4.7,55.9-4.1c12.5,0.5,59.6,6.6,81.6,17.4"/>
	<path class="st23" d="M396.8,263c0,0-17.5-7.7-31.6-10s-51.8-13.7-99.8-3.8"/>
	<circle class="st20" cx="224.3" cy="291.9" r="3.3"/>
	<circle class="st20" cx="217.6" cy="340.7" r="3.3"/>
	<circle class="st20" cx="273.4" cy="388" r="3.3"/>
	<circle class="st20" cx="352.9" cy="385.8" r="3.3"/>
	<line class="st3" x1="262.8" y1="286.1" x2="284.3" y2="311.5"/>
	<line class="st3" x1="274.3" y1="285.2" x2="295.4" y2="310.2"/>
	<path class="st22" d="M286.3,396.6c-16.3-0.3-55.1,4.2-66.3,2.6c-11.1-1.6-6.6-26.8-6.6-26.8s1.9-5.2,13.6-7.5"/>
	<path class="st22" d="M348.1,396.8c0,0,22.1-0.4,36.1,2.6s38.6,11,43,11.2s14.1-2.6,18.7-14.4s5.4-19.3,0-29.3
		s-25.5-36.6-28.1-38.6c-1.7-1.3-3.5-2.4-5.4-3.4"/>
	<path class="st3" d="M391.2,312.7c0,0-2.2-4.1-29.8-5.2c-27.5-1.1-87.2,3.5-102.1,9"/>
	<path class="st22" d="M257.7,325.2c0,0,2.1-10.3,3.7-21c1-7.2,1.8-14.5,1.5-19.1"/>
	<line class="st22" x1="273.5" y1="313.3" x2="261.5" y2="303"/>
	<path class="st22" d="M243,330.4c0,0-3.4,13.1-5.8,15.6"/>
	<path class="st22" d="M247.6,315.6c0,0,2.1-14.6,1-28.3"/>
	<path class="st22" d="M250.1,337.4c0,0-5.4,8.9-8.3,12.2"/>
	<path class="st22" d="M254.3,359.2c0,0,10.6-1.9,15.8-2.5"/>
	<path class="st22" d="M287.4,354.1c0,0,64.8-1.2,81.4,1.3"/>
	<path class="st22" d="M395.1,358.4c0,0,47.6,6.3,52.8,12.7"/>
	<path class="st22" d="M213.4,372.4c0,0-8.9,6.6-16.3-2.1s-8.1-23.6-4.9-44.1c3.3-20.6,9.3-30.6,3.4-55s-41.4-99.4-41.4-99.4
		s-12-22.3-6.3-83.4s10-73.4,10-73.4s1.7-4.6,12-3.7c10.3,0.9,19.1,1.1,28.3,10.9s13.1,23.1,13.4,40.6c0.3,17.4-4.3,45.7,4.9,58
		c9.1,12.3,24,33.4,25.1,54s-0.3,23.1,3,31.1s15.2,29.6,15.2,29.6"/>
	<path class="st22" d="M187.1,14.3c0,0-6.9,36.7-7.8,55.3c-0.9,18.6-0.6,27.6,1.5,34.1c2.1,6.4,13.1,18.4,15.2,30.8
		c2.1,12.4,9.9,48.4,12,63.2s34,67.3,34,67.3"/>
	<path class="st23" d="M147.4,94.4c0,0,20.2-3,31.6-2.2c0,0,8.8,3.1,13.1,16.7s9.7,24.2,12,30.1s8.7,32.9,10.4,45.1
		c1.7,12.2,2.3,23.4,7.6,35.1c5.3,11.7,20.7,35.1,22.4,38.7"/>
	<path class="st23" d="M251.4,286.9c0,0,2.1,18.9-1,31.3"/>
	<path class="st23" d="M246.9,334.2c0,0-3.1,9.6-6.8,14.1"/>
	<path class="st20" d="M247.9,354c0,0,13.2-3.1,16.3-3.4"/>
	<path class="st23" d="M281.1,348c0,0,66.9-4.8,93.6-0.8"/>
	<path class="st23" d="M400.7,348.7c0,0,15.3-0.6,17.9,0s19.1,5.6,23.4,11.6"/>
	<path class="st20" d="M258.6,320.6c0,0,11.2-4.9,22.5-6.1c11.3-1.1,63.5-6,80.9-5.1c11,0.5,21.7,1.9,24,3.9c2.4,2,4.8,4.6,4.8,4.6"
		/>
	<path class="st22" d="M259,326.5c0,0,57.7,2.9,68.2,4.9c11.4-1.4,47.5-12.4,63.7-11.7"/>
	<path class="st23" d="M330,330.4c0,0,1.6,13,1.7,15.3"/>
	<line class="st20" x1="299.3" y1="328.9" x2="297.9" y2="347"/>
	<line class="st20" x1="307.5" y1="329.5" x2="306.1" y2="346.6"/>
	<polyline class="st22" points="219.3,124.4 219.9,164.8 210.2,162.5 	"/>
	<path class="st23" d="M218.9,139.6c0,0,15.9,10.7,16.9,18.4c5.2,10.9,5.5,40.8,6.3,47.7s16.1,30.6,16.1,30.6"/>
	<path class="st23" d="M261,286c0,0-0.6,27.9-4.4,37.6"/>
	<path class="st22" d="M219.9,164.8c0,0,7.4,46.2,11.5,53.9s19,32.9,19.3,36.7"/>
	<line class="st23" x1="213.6" y1="178.8" x2="222.4" y2="179.3"/>
	<line class="st23" x1="214.8" y1="185.6" x2="223.6" y2="186.1"/>
	<line class="st23" x1="220" y1="214.3" x2="229.5" y2="213.5"/>
	<line class="st23" x1="222.7" y1="220.7" x2="231.6" y2="219.1"/>
	<line class="st23" x1="238.5" y1="248.1" x2="245.2" y2="243.5"/>
	<line class="st23" x1="241.9" y1="253.5" x2="248.2" y2="249.2"/>
	<path class="st23" d="M192.4,109.9c0,0,1-1,2.7,3.8s11.4,24.4,10,24.9c-0.4,0.1-0.8,0.1-1.3,0"/>
	<path class="st23" d="M252.1,291.9l6.6-5.7c0,0-2.1,29.1-4.7,35.5"/>
	<line class="st23" x1="252.4" y1="298.2" x2="258.3" y2="293.2"/>
	<rect x="299.7" y="444.6" class="st0" width="32.9" height="9.1"/>
	<path class="st9" d="M303.8,453v-2.2h-3.9v-0.7l3.7-5.1h1.2v5h1.2v0.9h-1.2v2.2L303.8,453z M303.8,450v-4l0,0
		c-0.2,0.4-0.4,0.8-0.7,1.2l-2,2.7l0,0L303.8,450z"/>
	<path class="st9" d="M307.6,452.2c0.3,0,0.6,0,0.9,0c0.6-0.1,1.2-0.4,1.7-0.8c0.6-0.6,1-1.3,1.1-2.1l0,0c-0.5,0.6-1.2,0.9-2,0.9
		c-1.3,0.1-2.4-1-2.5-2.3l0,0v-0.2c0-1.6,1.2-2.8,2.8-2.9l0,0h0.1c1.7,0,2.8,1.3,2.8,3.4c0.1,1.4-0.4,2.8-1.4,3.8
		c-0.7,0.6-1.5,1-2.4,1.1c-0.3,0.1-0.7,0.1-1,0.1L307.6,452.2z M308,447.6c-0.1,0.9,0.5,1.6,1.4,1.7l0,0h0.2c0.7,0,1.3-0.3,1.6-0.9
		c0.1-0.1,0.1-0.3,0.1-0.4c0-1.4-0.5-2.4-1.7-2.4c-0.9,0-1.7,0.8-1.7,1.8l0,0C308,447.5,308,447.6,308,447.6L308,447.6z"/>
	<path class="st9" d="M318.3,452.8c-0.6,0.2-1.2,0.4-1.8,0.3c-1.6,0.1-3-1.1-3.1-2.7l0,0c0-0.1,0-0.3,0-0.4c0-1.7,1.3-3.1,3-3.2l0,0
		h0.3c0.5,0,1.1,0.1,1.6,0.3L318,448c-0.4-0.2-0.9-0.3-1.3-0.3c-1.2,0.1-2.2,1.1-2.1,2.4c0.1,1.1,1,2,2.1,2.1c0.5,0,1-0.1,1.4-0.3
		L318.3,452.8z"/>
	<path class="st9" d="M319.6,448.6c0-0.5,0-1.1-0.1-1.6h1l0.1,1l0,0c0.4-0.7,1.1-1.1,2-1.1c0.8,0,1.5,0.5,1.8,1.2l0,0
		c0.2-0.3,0.4-0.6,0.7-0.8c0.4-0.3,0.9-0.4,1.4-0.4c0.9,0,2,0.5,2,2.6v3.5h-1v-3.4c0-1.1-0.4-1.8-1.4-1.8c-0.6,0-1.1,0.4-1.3,1
		c-0.1,0.2-0.1,0.4-0.1,0.5v3.7h-1.1v-3.6c0-1-0.4-1.6-1.3-1.6c-0.7,0-1.2,0.5-1.4,1.1c-0.1,0.2-0.1,0.3-0.1,0.5v3.6h-1.1
		L319.6,448.6z"/>
</g>
</svg>
