<?xml version="1.0" encoding="utf-8"?>
<!-- Generator: Adobe Illustrator 23.0.1, SVG Export Plug-In . SVG Version: 6.00 Build 0)  -->
<svg version="1.1" id="Camada_1" xmlns="http://www.w3.org/2000/svg" xmlns:xlink="http://www.w3.org/1999/xlink" x="0px" y="0px"
	 viewBox="0 0 600 600" style="enable-background:new 0 0 600 600;" xml:space="preserve">
<style type="text/css">
	.st0{fill:#FFFFFF;}
	.st1{fill:#E6E6E6;}
	.st2{fill:none;stroke:#000000;stroke-width:0.5;stroke-miterlimit:10;}
	.st3{fill:none;stroke:#000000;stroke-miterlimit:10;}
	.st4{fill:none;stroke:#000000;stroke-width:0.42;stroke-miterlimit:10;}
	.st5{fill:none;stroke:#000000;stroke-width:0.95;stroke-miterlimit:10;}
	.st6{fill:none;stroke:#000000;stroke-width:0.83;stroke-miterlimit:10;}
	.st7{fill:none;stroke:#000000;stroke-width:0.52;stroke-miterlimit:10;}
	.st8{fill:none;stroke:#000000;stroke-width:0.49;stroke-miterlimit:10;}
	.st9{fill:#B5221D;}
	.st10{fill:none;stroke:#B5221D;stroke-width:1.53;stroke-miterlimit:10;}
	.st11{fill:none;stroke:#B5221D;stroke-width:1.5;stroke-miterlimit:10;}
	.st12{fill:none;stroke:#B5221D;stroke-width:1.51;stroke-miterlimit:10;}
	.st13{fill:none;stroke:#B5221D;stroke-width:1.6;stroke-miterlimit:10;}
</style>
<path class="st0" d="M259.3,563.9h-5.2c-0.9,4.6-1.2,9.1-1.2,13.7c-0.1,0.5-0.3,0.9-0.7,1.3l-0.1,1.7c0,0,0.5,0.5,0.5,0.7
	c0.1,4.1,0.4,8.3,1.2,12.3l5.2,0.3C259.1,594,260,565.9,259.3,563.9z"/>
<path class="st0" d="M273.1,577.6c0.2-4.6-0.2-9.2-1.2-13.7h-5.2C266.1,566,267,594,267,594l5.2-0.3c0.7-4.1,1.1-8.2,1.2-12.3
	c0-0.2,0.5-0.7,0.5-0.7l-0.1-1.7C273.5,578.5,273.2,578.1,273.1,577.6z"/>
<path class="st1" d="M289.6,110.4c-8.7-10.2-27.7-10.3-27.7-10.3s-19,0-27.7,10.3c-7.4,8.6-1.1,14.3,3.4,14.2c4.8,0,21.2-1.8,24-1.7
	c2.8-0.1,18.1,1.7,22.9,1.7C289.3,124.8,297.1,119.1,289.6,110.4z"/>
<polygon class="st1" points="150.6,287.5 151.6,336.6 149.6,338.1 147.4,342.1 142.3,343.9 149.9,287.5 "/>
<polygon class="st1" points="376.7,292.1 374.9,337.3 377.2,338.7 379.2,342.7 384.2,344.7 377.5,292.1 "/>
<polyline class="st2" points="273.6,416.9 274.2,417.8 272.6,418.8 274.3,419.4 272.6,420.3 274.2,421.1 272.7,422.1 274.2,422.6 
	272.7,423.8 274.2,424.5 272.8,425.5 274.2,426.3 273,427.1 274.2,427.9 273.4,428.7 "/>
<polyline class="st2" points="251.5,416.9 253,418.1 251.5,419 253,419.7 251.5,420.4 253,421 251.5,421.8 253,422.5 251.5,423.3 
	253,424 251.5,424.9 253,425.6 251.5,426.4 253,427.4 251.7,427.9 252.5,428.7 "/>
<line class="st2" x1="274.1" y1="417.8" x2="251.5" y2="419"/>
<line class="st2" x1="274.3" y1="419.4" x2="251.6" y2="420.5"/>
<line class="st2" x1="274.1" y1="421.1" x2="251.9" y2="421.8"/>
<line class="st2" x1="274.1" y1="422.6" x2="251.9" y2="423.3"/>
<line class="st2" x1="274.2" y1="424.5" x2="251.9" y2="425"/>
<line class="st2" x1="274.1" y1="426.3" x2="251.9" y2="426.5"/>
<line class="st2" x1="274.2" y1="427.9" x2="251.9" y2="427.9"/>
<path class="st3" d="M251,428.7h23.9V445c-3.6,2.3-7.8,3.6-12.1,3.7c-4.2-0.1-8.4-1.4-11.8-3.6L251,428.7z"/>
<path class="st2" d="M251,445c7.9,1.7,16.1,1.7,23.9-0.1"/>
<path class="st3" d="M274.9,440.4c0,0,2.4,0.3,2.4,1.6c0,1.2,0.7,40.9,0.7,40.9s-11.9,6.4-30.1-0.7c0.6-16.1,1.2-40.1,1.2-40.1
	c0.5-0.6,1.1-1,1.8-1.1"/>
<path class="st3" d="M249.1,442.3c0.5,0.4,1.2,0.7,1.8,0.8"/>
<path class="st3" d="M277,441.3c-0.5,0.4-1.2,0.7-1.8,0.8"/>
<path class="st3" d="M179.8,410.6l-1.9,5.9c0.4,0.9,1.6,1.3,2.5,0.9c0.2-0.1,0.3-0.2,0.4-0.2c0.8-2.6,1.8-6,1.8-6"/>
<polyline class="st2" points="177.9,416.3 176.3,415.8 175.9,417.9 181.1,419.4 181.8,417.3 180.7,416.9 "/>
<path class="st3" d="M176.3,415.8c0,0-8.1,10.8-9.4,13.2c-1.3,2.3-1.2,7,2,7c1.2,0.3,2.3,0.9,3.3,1.7c0,0,1.1,0.9,3.6,0.3
	c1.5,0.2,2.5,0.7,3.5,0.5s2.7-1.3,3-4.2s-0.2-17-0.2-17"/>
<path class="st4" d="M176,418l-3.1,7.9c0,0,2.2,4.2,6.3,1.7c0.8-2.7,1.5-5.5,1.9-8.3c0,0-0.2,11.4-0.4,13.8
	c-0.2,2.4-1.2,3.1-1.9,3.4s-2.2-0.4-3.4-0.2c-1.2,0.1-2.3-0.1-3.4-0.5c-0.7-0.6-1.4-1-2.3-1.2c-2.9-0.5-2.4-3.7-1.2-5.6
	s7.5-11.2,7.5-11.2"/>
<path class="st3" d="M247.9,476c0,0-27.4-10.4-54.1-3.3c-10.8,1.7-8.1,10.3-8.1,10.3h1.7c0,0,0-1.4,0.7-1.9
	c1.1-0.7,16.1-3.3,33.8,4.4"/>
<path class="st2" d="M187.5,483.1c2.6,1.2,5.4,1.4,8.1,0.9c4.4-1,4.3-3.6,4.3-3.6"/>
<path class="st3" d="M241.2,482.8c0,0-63.5,6-109,30.3c0,0-4.2,0.7-4.7,4.6c-0.5,3.9,0.4,5.4,0.2,6.1s6,3.3,11.8,0.7
	c1.2-2.4,3.6-5,8.2-5.9c4.6-0.9,44.1-16.5,98.4-17.8c1.6,1.1,3.3,2,5.1,2.6"/>
<path class="st2" d="M139.7,524.5c0,0,4.1,0.2,4.3-4.4"/>
<path class="st3" d="M277.5,476c0,0,27.4-10.4,54.1-3.3c10.8,1.7,8.1,10.3,8.1,10.3H338c0,0-0.1-1.4-0.7-1.9
	c-1.1-0.7-16.1-3.3-33.8,4.4"/>
<path class="st2" d="M338,483.1c-2.6,1.2-5.4,1.4-8.1,0.9c-4.4-1-4.3-3.6-4.3-3.6"/>
<path class="st3" d="M284.2,482.8c0,0,63.5,6,109,30.3c0,0,4.2,0.7,4.7,4.6c0.5,3.9-0.4,5.4-0.2,6.1s-6,3.3-11.8,0.7
	c-1.2-2.4-3.6-5-8.2-5.9c-4.6-0.9-44.1-16.5-98.4-17.8c-1.6,1.1-3.3,2-5.1,2.6"/>
<path class="st2" d="M385.7,524.5c0,0-4.1,0.2-4.3-4.4"/>
<path class="st3" d="M251.4,490.5c0,0,1.5,48,2.4,54.2c0.6,3.8,0.6,7.6,0,11.4c2.1,3.1,5.5,4.9,9.2,5.1"/>
<path class="st3" d="M274.5,490.5c0,0-1.5,48-2.4,54.2c-0.6,3.8-0.6,7.6,0,11.4c-2.1,3.1-5.5,4.9-9.2,5.1"/>
<path class="st3" d="M176.1,495.8c0,0-0.7-9.6,4.1-9.9s7.5,6.6,7.5,6.6"/>
<path class="st3" d="M180,486l4.7-1.1c0,0,5.1,1.9,5.8,7.1"/>
<path class="st2" d="M190.6,484v1.1c0,0,3.3,1.5,5.2,0c0-0.6,0-1.2,0-1.2"/>
<path class="st2" d="M190.4,484.6c0,0-1.1,0.2-1.1,0.7c0,0.5,5.5,2.2,7.9-0.1c-0.3-0.7-1.4-0.7-1.4-0.7"/>
<line class="st2" x1="189.4" y1="485.3" x2="189.4" y2="488.6"/>
<line class="st2" x1="197.2" y1="485.3" x2="197.2" y2="490.2"/>
<path class="st3" d="M185.8,485.4c0,0,1.3-1,2.7-1.9"/>
<path class="st3" d="M196.1,483.9c0,0,2.6,1.1,3.7,5.5"/>
<polyline class="st2" points="177.2,488.9 180.2,494.7 179.3,494.9 176.4,490.7 "/>
<line class="st2" x1="179.5" y1="486.1" x2="180.7" y2="494.3"/>
<line class="st2" x1="181.3" y1="486.1" x2="181.2" y2="494.3"/>
<path class="st2" d="M185.1,488.4c0,0-3,5.3-3.1,5.6"/>
<line class="st2" x1="183.4" y1="493.8" x2="186.3" y2="490.1"/>
<path class="st3" d="M349.3,495.8c0,0,0.7-9.6-4.1-9.9s-7.5,6.6-7.5,6.6"/>
<path class="st3" d="M345.4,486l-4.6-1.1c0,0-5.1,1.9-5.8,7.1"/>
<path class="st2" d="M334.8,484v1.1c0,0-3.3,1.5-5.2,0c0-0.6,0-1.2,0-1.2"/>
<path class="st2" d="M334.9,484.6c0,0,1.2,0.2,1.2,0.7c0,0.5-5.5,2.2-7.9-0.1c0.3-0.7,1.4-0.7,1.4-0.7"/>
<line class="st2" x1="336.1" y1="485.3" x2="336.1" y2="488.6"/>
<line class="st2" x1="328.2" y1="485.3" x2="328.2" y2="490.2"/>
<path class="st3" d="M339.6,485.4c0,0-1.3-1-2.7-1.9"/>
<path class="st3" d="M329.3,483.9c0,0-2.6,1.1-3.7,5.5"/>
<polyline class="st2" points="348.2,488.9 345.3,494.7 346.1,494.9 349,490.7 "/>
<line class="st2" x1="345.9" y1="486.1" x2="344.8" y2="494.3"/>
<line class="st2" x1="344.1" y1="486.1" x2="344.1" y2="494.3"/>
<path class="st2" d="M340.3,488.4c0,0,3,5.3,3.1,5.6"/>
<line class="st2" x1="341.9" y1="493.8" x2="339.1" y2="490.1"/>
<path class="st3" d="M132.7,525.6c-0.4-0.1-2.1,1,1.2,1.5c2.5,0.4,6.7,0,7-0.7c0.3-0.7-1-1.1-1.5-1.2"/>
<line class="st2" x1="139.3" y1="524.8" x2="139.3" y2="526.8"/>
<line class="st3" x1="131.9" y1="526.4" x2="131.9" y2="529.3"/>
<path class="st3" d="M140.9,526.4l-0.4,10.9c0,0-0.2,1-0.6,1.2"/>
<path class="st3" d="M392.4,525.9c0.4-0.1,2.1,1-1.2,1.5c-2.5,0.4-6.7,0-7-0.7c-0.3-0.7,1-1.1,1.5-1.2"/>
<line class="st2" x1="385.8" y1="525" x2="385.8" y2="527"/>
<line class="st3" x1="393.2" y1="526.5" x2="393.2" y2="529.5"/>
<path class="st3" d="M384.2,526.5l0.4,10.9c0,0,0.2,0.9,0.6,1.2"/>
<line class="st2" x1="257.5" y1="559.6" x2="257.5" y2="563.5"/>
<path class="st3" d="M259.1,563.6h-5.2c-0.9,4.6-1.2,9.1-1.1,13.7c-0.1,0.5-0.3,0.9-0.7,1.3l-0.1,1.7c0,0,0.5,0.5,0.5,0.7
	c0.1,4.1,0.4,8.3,1.2,12.3l5.2,0.3C258.7,593.8,259.7,565.8,259.1,563.6z"/>
<path class="st2" d="M253.8,563.6c0,0-0.2,12.4-0.2,29.8"/>
<path class="st3" d="M266.5,563.6h5.2c0.9,4.6,1.2,9.1,1.2,13.7c0.1,0.5,0.3,0.9,0.7,1.3l0.1,1.7c0,0-0.5,0.5-0.5,0.7
	c-0.1,4.1-0.4,8.3-1.2,12.3l-5.2,0.3C266.8,593.8,265.8,565.8,266.5,563.6z"/>
<path class="st2" d="M271.7,563.6c0,0,0.2,12.4,0.2,29.8"/>
<line class="st2" x1="259.2" y1="565.1" x2="266.4" y2="565.1"/>
<line class="st2" x1="267.7" y1="560" x2="267.7" y2="563.6"/>
<ellipse class="st5" cx="126.7" cy="541.8" rx="13.7" ry="13.4"/>
<ellipse class="st6" cx="126.7" cy="541.8" rx="11.8" ry="11.7"/>
<path class="st5" d="M131.8,527.3c-6.2-3.1-13.8-0.7-17,5.6c-0.8,1.7-1.3,3.6-1.3,5.4"/>
<path class="st7" d="M122.6,530.8l3.1,9.3c-0.2,0.2-0.5,0.3-0.7,0.5c-0.8-0.6-7.9-5.9-7.9-5.9"/>
<path class="st7" d="M132.2,531.4l-4.2,8.5c-0.3-0.1-0.7-0.2-1.2-0.1c-0.3-1.8-1.2-9.6-1.2-9.6"/>
<path class="st7" d="M137.9,537.8l-8.4,3.5c-0.1-0.2-0.2-0.5-0.4-0.7c0.6-0.8,5.7-7.5,5.7-7.5"/>
<path class="st7" d="M137.5,546.7l-8.2-3.7c0.2-0.2,0.2-0.5,0.2-0.7c0.9-0.2,8.9-2.2,8.9-2.2"/>
<path class="st7" d="M131,552.6l-2.8-8.3c0.2-0.1,0.5-0.2,0.7-0.4c0.8,0.6,7,5.2,7,5.2"/>
<path class="st7" d="M122.1,552.5l4.1-8c0.3,0.1,0.6,0.1,0.9,0.1c0.3,1.8,0.9,7.8,1.1,8.8"/>
<path class="st7" d="M116,546.7l8.6-3.6c0.1,0.2,0.2,0.5,0.4,0.7c-0.6,0.8-5.5,7.2-5.5,7.2"/>
<path class="st7" d="M115.8,537.4l8.9,4c-0.2,0.2-0.2,0.5-0.2,0.7c-1,0.2-9.3,2.2-9.3,2.2"/>
<ellipse class="st5" cx="398.2" cy="541.8" rx="13.7" ry="13.4"/>
<ellipse class="st6" cx="398.2" cy="541.8" rx="11.8" ry="11.7"/>
<path class="st5" d="M393,527.2c6.2-3.1,13.8-0.6,17,5.6c0.8,1.7,1.3,3.6,1.3,5.4"/>
<path class="st7" d="M402.2,530.8l-3.1,9.3c0.2,0.1,0.5,0.2,0.7,0.5c0.8-0.6,7.9-5.8,7.9-5.8"/>
<path class="st7" d="M392.8,531.4l4.2,8.5c0.3-0.1,0.7-0.2,1.1-0.2c0.3-1.8,1.2-9.7,1.2-9.6"/>
<path class="st7" d="M387.1,537.8l8.4,3.5c0.1-0.2,0.2-0.5,0.4-0.7c-0.6-0.8-5.7-7.5-5.7-7.5"/>
<path class="st7" d="M387.4,546.7l8.2-3.7c-0.2-0.2-0.2-0.5-0.2-0.7c-1-0.2-8.9-2.2-8.9-2.2"/>
<path class="st7" d="M393.9,552.6l2.8-8.3c-0.2-0.1-0.5-0.2-0.7-0.4c-0.8,0.6-7,5.2-7,5.2"/>
<path class="st7" d="M402.8,552.5l-4.1-8c-0.2,0.1-0.6,0.1-0.9,0.1c-0.3,1.8-0.9,7.8-1.1,8.8"/>
<path class="st7" d="M408.9,546.7l-8.6-3.6c-0.1,0.2-0.2,0.5-0.4,0.7c0.6,0.8,5.5,7.2,5.5,7.2"/>
<path class="st7" d="M409.2,537.4l-8.9,4c0.2,0.2,0.2,0.5,0.2,0.7c1,0.2,9.3,2.2,9.3,2.2"/>
<path class="st3" d="M146.1,253.1c0,0,0.6-7.8-19.6-5c-16.4,5-21.9,27.4-21.9,27.4s-0.9,10.1,4.6,15.4c17.5,3.6,23.1-2.2,23.1-2.2
	s4.9-4.9,6.8-11c1.9-6.1,4.6-14.4,6.5-15.2S146.6,254.9,146.1,253.1z"/>
<path class="st2" d="M104.4,275.9c0,0,7.5,10.6,24.1,0.5c12.8-11.2,9.2-22,18-23.8"/>
<path class="st3" d="M109.1,290.9c0,0-2.9,9.5,0,23.2c2.9,13.7,13.2,59.7,13.2,59.7s0.4,2.6,5.5,2.6"/>
<path class="st3" d="M145.5,262.6c0,0,4.1,5.5,4.8,7.2"/>
<path class="st3" d="M139.4,276.3c0,0-5.3,19.9-6,29.3c-0.7,9.4,0.1,44.9,0.1,44.9"/>
<path class="st3" d="M138.4,280c0,0,1.7,10.2,0.9,16.5s-4.9,52.9-4.9,52.9"/>
<line class="st3" x1="150.3" y1="283.1" x2="142" y2="344.8"/>
<line class="st3" x1="136.6" y1="287.6" x2="133.1" y2="327.2"/>
<path class="st2" d="M109.5,291c0.4,1.2,1.4,2.2,2.6,2.7c2,0.5,12.9,2.9,21-2.4c2.6-1.7,3.1-7.7,3.1-7.7"/>
<path class="st3" d="M263.4,416.6c-55.5,1.7-111.9-10.1-124-14.8s-12.6-33.7-10.8-43.5c1.8-9.8,18.8-15.9,18.8-15.9s0.9-4.6,6.5-6.6
	c8.4-3.8,40.9,2.4,40.9,2.4l69.2,3.1"/>
<path class="st3" d="M263.4,416.6c55.5,1.7,111.3-10.1,123.4-14.8s12.6-33.7,10.8-43.5s-18.8-15.8-18.8-15.8s-0.9-4.6-6.5-6.6
	c-8.4-3.8-40.9,2.4-40.9,2.4l-68.1,3"/>
<path class="st4" d="M135.7,348.7c0,0-7.5,7.5-0.8,13.3s25.3,11.8,25.3,11.8s0.2,25.3,5.2,34.4"/>
<path class="st3" d="M330.3,338.5c0,0,0.7,3.6,0.4,5c1.7,1.2,10.3,1.3,10.4,18.5c1.8,13.2,1.7,39.9-1,49.8"/>
<path class="st4" d="M358.8,334.6c1.8,1.6,3,3.7,3.3,6c7.5,0.4,18.4,4.8,18.4,10.6c0,8.7-39.2,12.9-39.2,12.9"/>
<path class="st4" d="M390.6,348.7c0,0,7.5,7.5,0.8,13.3s-25.3,11.8-25.3,11.8s-0.2,25.3-5.2,34.4"/>
<path class="st4" d="M195.7,343.5c0,0,88.8,4.8,134.9,0"/>
<path class="st3" d="M151.6,336.9c0,0-2.8-41.2-0.6-97.4c4.1-42.1-5.6-72.4-5.6-72.4s-7-29.6,10.6-42.6c6.3-4.6,13.8-10.5,23.6-19.2
	c9-9.8,16.1-21,21.1-33.4c0,0,8.9-34.6,12.4-38.9c3.6-4.3,11.7-14.9,50.6-15.7"/>
<path class="st3" d="M379.9,253.1c0,0-0.6-7.8,19.6-5c16.4,5,21.9,27.4,21.9,27.4s0.9,10.1-4.6,15.4c-17.5,3.6-23.1-2.2-23.1-2.2
	s-4.9-4.9-6.8-11s-4.6-14.4-6.5-15.2S379.4,254.9,379.9,253.1z"/>
<path class="st2" d="M421.5,275.9c0,0-7.5,10.6-24.1,0.5c-12.8-11.2-9.2-22-18.1-23.8"/>
<path class="st3" d="M416.8,290.9c0,0-1.4,9.4,0,23.2c2.2,21.9-11.9,61.7-13.2,59.7c0,0-0.4,2.6-5.5,2.6"/>
<path class="st3" d="M380.4,262.6c0,0-4.3,5.5-5,7.2"/>
<path class="st3" d="M386.5,276.3c0,0,5.3,19.9,6,29.3c0.7,9.4-0.1,44.9-0.1,44.9"/>
<path class="st3" d="M387.5,280c0,0-1.7,10.2-0.9,16.5s4.9,52.9,4.9,52.9"/>
<line class="st3" x1="376.1" y1="286.6" x2="383.9" y2="344.8"/>
<line class="st3" x1="389.3" y1="287.6" x2="392.8" y2="327.2"/>
<path class="st2" d="M416.5,291c-0.4,1.2-1.4,2.2-2.6,2.7c-2,0.5-12.9,2.9-21-2.4c-2.6-1.7-3.1-7.7-3.1-7.7"/>
<path class="st3" d="M374.6,336.9c0,0,4.6-37.7-1.1-91.1c-4.1-42.1,7-78.7,7-78.7s7-29.6-10.6-42.6c-6.3-4.6-13.8-10.5-23.6-19.2
	c-8.9-9.8-16.1-21-21.1-33.3c0,0-8.9-34.6-12.4-38.9c-3.5-4.3-10-15-48.9-15.8"/>
<path class="st3" d="M179.7,105.3c0,0,12,9.7,14.2,49.4s2.2,183.9,2.2,183.9s-0.7,3.6-0.4,5c-1.7,1.2-10.3,1.3-10.4,18.5
	c-1.8,13.2-1.7,39.9,1,49.8"/>
<path class="st3" d="M346.7,105.3c0,0-12,9.7-14.2,49.4c-2.2,39.7-2.2,183.9-2.2,183.9"/>
<path class="st4" d="M190.1,127.7c0,0-28.9,13.8-32,25c-3.1,11.2,8.7,43.9,9.8,61.3s-1.2,117.1-0.3,120.7c-1.8,1.6-3,3.7-3.3,6
	c-7.5,0.4-18.4,4.8-18.4,10.6c0,8.7,39.2,12.9,39.2,12.9"/>
<path class="st4" d="M336.1,127.7c0,0,28.9,13.8,32,25c3.1,11.2-8.7,43.9-9.8,61.3c-1.1,17.4,1.2,117.1,0.3,120.7"/>
<path class="st3" d="M295.7,109.4c-10.7-15.9-34-15.4-34-15.4s-23.3-0.5-34,15.4c-9,13.5,1.7,21.2,7.1,21.1
	c5.9-0.1,23.3-2.3,26.9-2.2c3.6-0.2,20.9,2.2,26.9,2.2C294.1,130.5,304.9,122.8,295.7,109.4z"/>
<path class="st2" d="M289.4,110.4c-8.7-10.2-27.7-10.3-27.7-10.3s-19,0-27.7,10.3c-7.4,8.6-1.1,14.3,3.5,14.2c4.8,0,21.2-1.8,24-1.7
	c2.8-0.1,18.1,1.7,22.9,1.7C289,124.8,296.7,119.1,289.4,110.4z"/>
<line class="st2" x1="193.8" y1="154.6" x2="332.5" y2="154.6"/>
<line class="st2" x1="194.5" y1="174.5" x2="331.5" y2="174.5"/>
<line class="st2" x1="194.6" y1="181.2" x2="331.7" y2="181.2"/>
<line class="st8" x1="195.4" y1="215.2" x2="330.8" y2="215.2"/>
<line class="st8" x1="195.6" y1="221.9" x2="330.9" y2="221.9"/>
<line class="st8" x1="195.8" y1="256.6" x2="330.4" y2="256.6"/>
<line class="st8" x1="196" y1="263.3" x2="330.6" y2="263.3"/>
<line class="st8" x1="196.1" y1="297.2" x2="330.2" y2="297.2"/>
<line class="st8" x1="196.3" y1="303.9" x2="330.4" y2="303.9"/>
<g>
	<path class="st9" d="M252.9,108.4h-3.1l-0.3,2.1c0.2,0,0.4-0.1,0.7-0.1c0.6,0,1.2,0.2,1.7,0.4c0.7,0.4,1.2,1.2,1.2,2.1
		c0,1.6-1.3,2.8-2.8,2.7l0,0H250c-0.7,0-1.4-0.2-2-0.5l0.2-0.8c0.5,0.3,1.2,0.4,1.7,0.4c1,0.1,1.8-0.7,1.9-1.7l0,0V113
		c0-1.1-0.7-1.8-2.3-1.8c-0.4,0-0.7,0-1.2,0.1l0.5-3.9h3.9L252.9,108.4z"/>
	<path class="st9" d="M254.7,114.3c0.6,0.3,1.2,0.5,1.8,0.5c1.4,0,1.8-0.9,1.8-1.6c0-1.2-1-1.7-2.1-1.7h-0.6v-0.8h0.6
		c0.8,0,1.8-0.4,1.8-1.4c0-0.7-0.4-1.2-1.4-1.2c-0.6,0-1.2,0.2-1.6,0.5l-0.3-0.8c0.7-0.4,1.3-0.6,2.1-0.6c1.6,0,2.3,0.9,2.3,1.9
		c0,0.9-0.7,1.7-1.5,1.9l0,0c1,0.2,1.8,1,1.8,2.1c0,1.3-1,2.4-3,2.4c-0.7,0-1.5-0.2-2.1-0.6L254.7,114.3z"/>
	<path class="st9" d="M265.4,115.4c-0.6,0.2-1.2,0.3-1.7,0.3c-1.6,0.1-2.9-1.2-3-2.7l0,0c0-0.1,0-0.2,0-0.3
		c-0.1-1.7,1.2-3.1,2.9-3.2h0.3c0.5,0,1.1,0.1,1.5,0.3l-0.2,0.8c-0.4-0.2-0.8-0.3-1.2-0.2c-1.2,0.1-2.2,1.2-2.1,2.5
		c0.1,1.1,1,2,2.1,2.1c0.5,0,0.9-0.1,1.3-0.3L265.4,115.4z"/>
	<path class="st9" d="M266.7,111.2c0-0.7,0-1.2-0.1-1.7h0.9l0.1,1l0,0c0.3-0.7,1.1-1.2,1.9-1.1c0.7,0,1.4,0.5,1.7,1.2l0,0
		c0.2-0.3,0.4-0.6,0.7-0.8c0.4-0.3,0.8-0.4,1.3-0.4c0.8,0,2,0.5,2,2.6v3.6h-1.1v-3.6c0-1.2-0.4-1.8-1.3-1.8c-0.6,0-1.1,0.4-1.3,1
		c-0.1,0.2-0.1,0.3-0.1,0.6v3.7h-0.9V112c0-1-0.4-1.7-1.2-1.7c-0.8,0.1-1.4,0.8-1.4,1.7v3.6h-1L266.7,111.2z"/>
</g>
<line class="st10" x1="146.4" y1="119.3" x2="373.2" y2="119.3"/>
<line class="st11" x1="144.4" y1="143.5" x2="144.4" y2="113.5"/>
<polygon class="st9" points="144.7,119.3 154.9,125.2 154.9,113.5 "/>
<line class="st11" x1="381.1" y1="143.5" x2="381.1" y2="113.5"/>
<polygon class="st9" points="380.8,119.3 370.7,125.2 370.7,113.5 "/>
<g>
	<path class="st9" d="M252.9,203.2h-3.1l-0.3,2.1c0.2,0,0.4-0.1,0.7-0.1c0.6,0,1.2,0.2,1.7,0.4c0.7,0.4,1.2,1.2,1.2,2.1
		c0,1.6-1.3,2.8-2.8,2.7l0,0H250c-0.7,0-1.4-0.2-2-0.5l0.2-0.8c0.5,0.3,1.2,0.4,1.7,0.4c1,0.1,1.8-0.7,1.9-1.7l0,0v-0.1
		c0-1.1-0.7-1.8-2.3-1.8c-0.4,0-0.7,0-1.2,0.1l0.5-3.9h3.9L252.9,203.2z"/>
	<path class="st9" d="M259.8,206.2c0,2.7-1,4.2-2.8,4.2c-1.6,0-2.6-1.5-2.6-4.1c0-2.6,1.2-4.2,2.8-4.2
		C258.8,202.1,259.8,203.7,259.8,206.2z M255.4,206.4c0,2.1,0.7,3.3,1.7,3.3c1,0,1.7-1.3,1.7-3.4c0-2.1-0.5-3.3-1.7-3.3
		C256.1,203,255.4,204.2,255.4,206.4z"/>
	<path class="st9" d="M265.4,210.1c-0.6,0.2-1.2,0.3-1.7,0.3c-1.6,0.1-2.9-1.2-3-2.7l0,0c0-0.1,0-0.2,0-0.3
		c-0.1-1.7,1.2-3.1,2.9-3.2c0.1,0,0.2,0,0.3,0c0.5,0,1.1,0.1,1.5,0.3l-0.2,0.8c-0.4-0.2-0.8-0.3-1.2-0.2c-1.2,0.1-2.2,1.2-2.1,2.5
		c0.1,1.1,1,2,2.1,2.1c0.5,0,0.9-0.1,1.3-0.3L265.4,210.1z"/>
	<path class="st9" d="M266.7,206c0-0.7,0-1.2-0.1-1.7h0.9l0.1,1l0,0c0.3-0.7,1.1-1.2,1.9-1.1c0.7,0,1.4,0.5,1.7,1.2l0,0
		c0.2-0.3,0.4-0.6,0.7-0.7c0.4-0.3,0.9-0.4,1.4-0.4c0.8,0,2,0.5,2,2.6v3.6h-1.1V207c0-1.2-0.4-1.8-1.3-1.8c-0.6,0-1.1,0.4-1.3,1
		c-0.1,0.2-0.1,0.3-0.1,0.6v3.7h-1v-3.6c0-1-0.4-1.7-1.2-1.7c-0.8,0.1-1.4,0.8-1.4,1.7v3.6h-1.1V206z"/>
</g>
<line class="st12" x1="152.2" y1="214.3" x2="373.2" y2="214.3"/>
<line class="st11" x1="146.3" y1="260.1" x2="146.3" y2="208.5"/>
<polygon class="st9" points="146.6,214.3 156.8,220.2 156.8,208.5 "/>
<line class="st11" x1="380.4" y1="261.4" x2="380.4" y2="208.5"/>
<polygon class="st9" points="380,214.3 369.8,220.2 369.8,208.5 "/>
<line class="st11" x1="151.2" y1="304.2" x2="368.7" y2="304.2"/>
<line class="st11" x1="150.7" y1="310" x2="150.7" y2="298.3"/>
<polygon class="st9" points="151,304.2 161.2,310 161.2,298.3 "/>
<line class="st11" x1="376.6" y1="310" x2="376.6" y2="298.3"/>
<polygon class="st9" points="376.2,304.2 366.1,310 366.1,298.3 "/>
<path class="st9" d="M252.9,378.2h-3.1l-0.3,2.1c0.2,0,0.4-0.1,0.7-0.1c0.6,0,1.2,0.2,1.7,0.4c0.7,0.4,1.2,1.2,1.2,2.1
	c0,1.6-1.3,2.8-2.8,2.7l0,0H250c-0.7,0-1.4-0.2-2-0.5l0.2-0.8c0.5,0.3,1.2,0.4,1.7,0.4c1,0.1,1.8-0.7,1.9-1.7l0,0v0
	c0-1.1-0.7-1.8-2.3-1.8c-0.4,0-0.7,0-1.2,0.1l0.5-3.9h3.9L252.9,378.2z"/>
<path class="st9" d="M257.8,385.3v-2.2h-3.7v-0.7l3.6-5.1h1.2v5.1h1.2v0.8h-1.2v2.2H257.8z M257.8,382.2v-4l0,0
	c-0.2,0.5-0.4,0.8-0.7,1.2l-2,2.7l0,0L257.8,382.2z"/>
<path class="st9" d="M265.4,385.1c-0.6,0.2-1.2,0.3-1.7,0.3c-1.6,0.1-2.9-1.2-3-2.7l0,0c0-0.1,0-0.2,0-0.4c-0.1-1.7,1.2-3.1,2.9-3.2
	h0.3c0.5,0,1,0.1,1.5,0.3l-0.2,0.8c-0.4-0.2-0.8-0.3-1.2-0.2c-1.2,0.1-2.2,1.2-2.1,2.5c0.1,1.1,1,2,2.1,2.1c0.5,0,0.9-0.1,1.3-0.3
	L265.4,385.1z"/>
<path class="st9" d="M266.7,380.9c0-0.7,0-1.2-0.1-1.7h0.9l0.1,1l0,0c0.3-0.7,1.1-1.2,1.9-1.1c0.7,0,1.4,0.5,1.7,1.2l0,0
	c0.2-0.3,0.4-0.6,0.7-0.8c0.4-0.3,0.8-0.4,1.3-0.4c0.8,0,2,0.5,2,2.6v3.6h-1.1v-3.4c0-1.2-0.4-1.8-1.3-1.8c-0.6,0-1.1,0.4-1.3,1
	c-0.1,0.2-0.1,0.3-0.1,0.6v3.7h-0.9v-3.6c0-1-0.4-1.7-1.2-1.7c-0.8,0.1-1.4,0.8-1.4,1.7v3.6h-1L266.7,380.9z"/>
<line class="st13" x1="138" y1="389.3" x2="388" y2="389.3"/>
<line class="st11" x1="130.2" y1="395.1" x2="130.2" y2="383.4"/>
<polygon class="st9" points="130.6,389.3 140.7,395.1 140.7,383.4 "/>
<line class="st11" x1="397.1" y1="395.1" x2="397.1" y2="383.4"/>
<polygon class="st9" points="396.7,389.3 386.6,395.1 386.6,383.4 "/>
<rect x="246" y="288.4" class="st0" width="34" height="12.1"/>
<g>
	<path class="st9" d="M252.9,292.1h-3.1l-0.3,2.1c0.2,0,0.4-0.1,0.7-0.1c0.6,0,1.2,0.2,1.7,0.4c0.7,0.4,1.2,1.2,1.2,2.1
		c0,1.6-1.3,2.8-2.8,2.7l0,0H250c-0.7,0-1.4-0.2-2-0.5l0.2-0.8c0.5,0.3,1.2,0.4,1.7,0.4c1,0.1,1.8-0.7,1.9-1.7l0,0v-0.1
		c0-1.1-0.7-1.8-2.3-1.8c-0.4,0-0.7,0-1.2,0.1l0.5-3.9h3.9L252.9,292.1z"/>
	<path class="st9" d="M259.8,295.1c0,2.7-1,4.2-2.8,4.2c-1.6,0-2.6-1.5-2.6-4.1c0-2.6,1.2-4.2,2.8-4.2
		C258.8,291,259.8,292.6,259.8,295.1z M255.4,295.2c0,2.1,0.7,3.3,1.7,3.3c1,0,1.7-1.3,1.7-3.4s-0.5-3.3-1.7-3.3
		C256.1,291.9,255.4,293.1,255.4,295.2L255.4,295.2z"/>
	<path class="st9" d="M265.4,299c-0.6,0.2-1.2,0.3-1.7,0.3c-1.6,0.1-2.9-1.2-3-2.7l0,0c0-0.1,0-0.2,0-0.4c-0.1-1.7,1.2-3.1,2.9-3.2
		h0.3c0.5,0,1.1,0.1,1.5,0.3l-0.2,0.8c-0.4-0.2-0.8-0.3-1.2-0.2c-1.2,0.1-2.2,1.2-2.1,2.5c0.1,1.1,1,2,2.1,2.1
		c0.5,0,0.9-0.1,1.3-0.3L265.4,299z"/>
	<path class="st9" d="M266.7,294.9c0-0.7,0-1.2-0.1-1.7h0.9l0.1,1l0,0c0.3-0.7,1.1-1.2,1.9-1.1c0.7,0,1.4,0.5,1.7,1.2l0,0
		c0.2-0.3,0.4-0.6,0.7-0.8c0.4-0.3,0.8-0.4,1.3-0.4c0.8,0,2,0.5,2,2.6v3.6h-1.1v-3.4c0-1.2-0.4-1.8-1.3-1.8c-0.6,0-1.1,0.4-1.3,1
		c-0.1,0.2-0.1,0.3-0.1,0.6v3.7h-0.9v-3.6c0-1-0.4-1.7-1.2-1.7c-0.8,0.1-1.4,0.8-1.4,1.7v3.6h-1L266.7,294.9z"/>
</g>
</svg>
