<?xml version="1.0" encoding="UTF-8"?>
<!-- Generator: Adobe Illustrator 21.0.0, SVG Export Plug-In . SVG Version: 6.00 Build 0)  -->
<svg version="1.1" id="Camada_1" xmlns="http://www.w3.org/2000/svg" xmlns:xlink="http://www.w3.org/1999/xlink" x="0px" y="0px" viewBox="0 0 444.5 716.4" style="enable-background:new 0 0 444.5 716.4;" xml:space="preserve">
<style type="text/css">
	.st0{fill:none;stroke:#000000;stroke-width:2;stroke-miterlimit:10;}
	.st1{fill:none;stroke:#000000;stroke-width:3;stroke-miterlimit:10;}
	.st2{fill:none;stroke:#000000;stroke-width:0.83;stroke-miterlimit:10;}
</style>
<title>GTX</title>
<g>
	<polyline class="st0" points="257.8,500.2 257.1,500.7 259.2,501.2 257.2,502.5 259.3,503.3 257.6,504.5 259.4,505.2 257.7,506.6    259.6,507.4 258,508.8 259.8,509.5 258.3,510.6 259.9,511.4 259,512.5  "/>
	<polyline class="st0" points="231.7,499.8 233.5,501.7 231.7,502.9 233.6,503.5 231.9,504.6 233.7,505.1 232,506.2 233.9,506.9    232.1,508.1 234,508.7 232.3,509.9 234.2,510.7 232.5,511.7 234.3,512.9 232.8,513.7 233.9,514.4  "/>
	<line class="st0" x1="250.2" y1="500.5" x2="231.7" y2="502.9"/>
	<line class="st0" x1="259.2" y1="501.2" x2="232" y2="504.7"/>
	<line class="st0" x1="259" y1="503.4" x2="232.6" y2="506.2"/>
	<line class="st0" x1="259.3" y1="505.1" x2="232.5" y2="508"/>
	<line class="st0" x1="259.6" y1="507.4" x2="232.7" y2="510"/>
	<line class="st0" x1="259.7" y1="509.5" x2="232.8" y2="511.9"/>
	<line class="st0" x1="259.9" y1="511.4" x2="233.1" y2="513.5"/>
	<path class="st1" d="M232.1,514.4l28.9-1.7l1.4,20.2c-4.2,3.1-9.1,5-14.3,5.5c-5.1,0.2-10.1-1-14.6-3.4L232.1,514.4z"/>
	<path class="st0" d="M233.3,534.9c9.7,1,19.6,0.2,29-2.3"/>
	<path class="st1" d="M235.1,535.7c0,1.4,0.7,45.6,0.7,45.6s-14.4,7.7-36.3-0.8c0.7-19.5,1.5-48.4,1.5-48.4c1.1-0.8,2.3-1.4,3.6-1.8   "/>
	<path class="st1" d="M201.1,532.2c0,0,7.9,5.9,32.3,1.5"/>
	<path class="st1" d="M181.8,490.1c0,0-45.4,6.5-51,7.5c-3.2,0.4-5.9,2.4-7.3,5.3l-5.1,12.3c0.5,1.1,1.9,1.6,3,1.1   c0.2-0.1,0.4-0.2,0.5-0.3c1-3.2,4.7-11,4.7-11c1.1-1.7,2.9-3,4.9-3.6c8.2-1.7,57.1-8.4,57.1-8.4"/>
	<polyline class="st0" points="118.1,514.7 114.9,514.5 117.4,517.1 124,518.7 122.1,516.1  "/>
	<path class="st1" d="M114.7,514.5c0,0-12.5,16.2-14.1,19s-1.5,8.4,2.4,8.5c1.4,0.4,2.8,1.1,4,2.1c0,0,1.3,1.1,4.3,0.4   c1.8,0.2,2.4,0.6,3.6,0.3s3.1-1.6,4.2-4.8s5.1-21,5.1-21"/>
	<path class="st0" d="M117.4,517.1l-6.5,11.7c0,0,0.8,4.5,5.8,1.5c2-3.9,3.8-7.9,5.4-12c0,0-3.2,14.6-4,17.5c-0.9,3.5-2,5.2-2.9,5.5   c-1,0.2-2.1,0.2-3.1,0.1c-1.4,0-2.9,0.6-3.7,0.2c-1-0.8-2.2-1.4-3.4-1.8c-3.5-0.6-1.7-4.8-0.4-7.2s10.9-17,10.9-17"/>
	<path class="st1" d="M199.6,573c0,0-33.1-12.6-65.3-4c-13.1,2.1-9.8,12.5-9.8,12.5h2.1c0,0,0.1-1.7,0.8-2.3   c1.3-0.9,19.4-4,40.8,5.3"/>
	<path class="st0" d="M126.5,581.5c3.1,1.4,6.5,1.7,9.8,1.1c5.3-1.2,5.2-4.4,5.2-4.4"/>
	<path class="st1" d="M191.5,581.2c0,0-76.7,7.3-131.6,36.6c0,0-5.1,0.9-5.7,5.6s0.5,6.5,0.3,7.4s7.2,4,14.3,0.9   c1.4-2.9,4.3-6,9.9-7.1s53.3-19.9,118.9-21.5c1.9,1.3,4,2.4,6.1,3.2"/>
	<path class="st0" d="M68.9,631.5c0,0,5,0.3,5.2-5.3"/>
	<path class="st1" d="M235.3,573c0,0,33.1-12.6,65.3-4c13.1,2.1,9.8,12.5,9.8,12.5h-2.1c0,0,0-1.7-0.8-2.3c-1.3-0.9-19.4-4-40.8,5.3   "/>
	<path class="st0" d="M308.4,581.5c-3.1,1.4-6.5,1.7-9.8,1.1c-5.3-1.2-5.2-4.4-5.2-4.4"/>
	<path class="st1" d="M243.4,581.2c0,0,76.7,7.3,131.6,36.6c0,0,5.1,0.9,5.7,5.6s-0.5,6.5-0.3,7.4s-7.2,4-14.3,0.9   c-1.4-2.9-4.3-6-9.9-7.1s-53.3-19.9-118.9-21.5c-1.9,1.3-4,2.4-6.1,3.2"/>
	<path class="st0" d="M366,631.5c0,0-5,0.3-5.2-5.3"/>
	<path class="st1" d="M203.8,590.5c0,0,1.8,58,2.9,65.5c0.7,4.6,0.7,9.2,0,13.8c2.5,3.7,6.6,5.9,11.1,6.1"/>
	<path class="st1" d="M231.7,590.5c0,0-1.8,58-2.9,65.5c-0.7,4.6-0.7,9.2,0,13.8c-2.5,3.7-6.6,5.9-11.1,6.1"/>
	<path class="st1" d="M112.9,596.9c0,0-0.9-11.6,5-11.9s9.1,8,9.1,8"/>
	<path class="st1" d="M117.5,585l5.7-1.3c0,0,6.1,2.3,7,8.6"/>
	<path class="st0" d="M130.3,582.6v1.3c0,0,4,1.8,6.3,0c0-0.7,0-1.5,0-1.5"/>
	<path class="st0" d="M130.2,583.4c0,0-1.4,0.3-1.4,0.9s6.7,2.7,9.5-0.1c-0.4-0.9-1.7-0.8-1.7-0.8"/>
	<line class="st0" x1="128.9" y1="584.2" x2="128.9" y2="588.2"/>
	<line class="st0" x1="138.4" y1="584.2" x2="138.4" y2="590.1"/>
	<path class="st1" d="M124.5,584.3c0,0,1.6-1.1,3.3-2.3"/>
	<path class="st1" d="M137,582.6c0,0,3.2,1.3,4.5,6.6"/>
	<polyline class="st0" points="114.2,588.5 117.8,595.5 116.8,595.8 113.2,590.7  "/>
	<line class="st0" x1="116.9" y1="585.1" x2="118.3" y2="595.1"/>
	<line class="st0" x1="119.2" y1="585.1" x2="119.1" y2="595.1"/>
	<path class="st0" d="M123.8,587.9c0,0-3.6,6.4-3.7,6.8"/>
	<line class="st0" x1="121.7" y1="594.4" x2="125.1" y2="590"/>
	<path class="st1" d="M322,596.9c0,0,0.9-11.6-5-11.9s-9.1,8-9.1,8"/>
	<path class="st1" d="M317.4,585l-5.7-1.3c0,0-6.1,2.3-7,8.6"/>
	<path class="st0" d="M304.6,582.6v1.3c0,0-4,1.8-6.3,0c0-0.7,0-1.5,0-1.5"/>
	<path class="st0" d="M304.7,583.4c0,0,1.4,0.3,1.4,0.9s-6.7,2.7-9.5-0.1c0.4-0.9,1.7-0.8,1.7-0.8"/>
	<line class="st0" x1="306" y1="584.2" x2="306" y2="588.2"/>
	<line class="st0" x1="296.5" y1="584.2" x2="296.5" y2="590.1"/>
	<path class="st1" d="M310.4,584.3c0,0-1.6-1.1-3.3-2.3"/>
	<path class="st1" d="M297.9,582.6c0,0-3.2,1.3-4.5,6.6"/>
	<polyline class="st0" points="320.7,588.5 317.1,595.5 318.1,595.8 321.7,590.7  "/>
	<line class="st0" x1="318" y1="585.1" x2="316.5" y2="595.1"/>
	<line class="st0" x1="315.7" y1="585.1" x2="315.8" y2="595.1"/>
	<path class="st0" d="M311.1,587.9c0,0,3.6,6.4,3.7,6.8"/>
	<line class="st0" x1="313.2" y1="594.4" x2="309.8" y2="590"/>
	<path class="st1" d="M60.4,633c-0.5-0.1-2.4,1.2,1.4,1.8c3,0.5,8.1,0,8.5-0.8s-1.2-1.3-1.8-1.4"/>
	<line class="st0" x1="68.4" y1="631.9" x2="68.4" y2="634.3"/>
	<line class="st1" x1="59.5" y1="633.8" x2="59.5" y2="637.3"/>
	<path class="st1" d="M70.3,633.8L69.8,647c0,0-0.3,1.1-0.7,1.4"/>
	<ellipse class="st0" cx="53.3" cy="652.5" rx="16.4" ry="16.2"/>
	<ellipse class="st2" cx="53.3" cy="652.5" rx="14.3" ry="14.1"/>
	<path class="st0" d="M59.5,634.9c-7.5-3.8-16.7-0.7-20.5,6.8c-1,2-1.6,4.3-1.6,6.5"/>
	<path class="st0" d="M48.4,639.3l3.8,11.1c-0.3,0.1-0.6,0.3-0.8,0.6c-1-0.7-9.5-7.1-9.5-7.1"/>
	<path class="st0" d="M59.9,640l-5.1,10.3c-0.4-0.1-0.9-0.2-1.3-0.1c-0.4-2.2-1.5-11.7-1.5-11.7"/>
	<path class="st0" d="M66.8,647.7l-10.2,4.2c-0.1-0.3-0.3-0.6-0.5-0.8c0.7-1,6.9-9,6.9-9"/>
	<path class="st0" d="M66.4,658.5l-9.9-4.5c0.2-0.3,0.2-0.6,0.3-0.9c1.2-0.2,10.7-2.6,10.7-2.6"/>
	<path class="st0" d="M58.5,665.6l-3.4-10c0.3-0.1,0.6-0.3,0.8-0.5c1,0.7,8.5,6.3,8.5,6.3"/>
	<path class="st0" d="M47.8,665.5l5-9.7c0.3,0.1,0.7,0.1,1.1,0.1c0.4,2.2,1.1,9.4,1.3,10.6"/>
	<path class="st0" d="M40.3,658.5l10.4-4.2c0.1,0.3,0.3,0.6,0.5,0.8c-0.7,1-6.6,8.7-6.6,8.7"/>
	<path class="st0" d="M40,647.2l10.7,4.8c-0.2,0.3-0.2,0.6-0.3,0.9c-1.2,0.2-11.2,2.6-11.2,2.6"/>
	<ellipse class="st0" cx="381.2" cy="652.5" rx="16.5" ry="16.2"/>
	<ellipse class="st2" cx="381.2" cy="652.5" rx="14.3" ry="14.1"/>
	<path class="st0" d="M375,634.9c7.5-3.8,16.7-0.7,20.5,6.8c1,2,1.6,4.3,1.6,6.5"/>
	<path class="st0" d="M386.1,639.2l-3.8,11.1c0.3,0.1,0.6,0.3,0.8,0.6c1-0.7,9.5-7.1,9.5-7.1"/>
	<path class="st0" d="M374.6,640l5.1,10.3c0.4-0.1,0.9-0.2,1.3-0.1c0.4-2.2,1.5-11.7,1.5-11.7"/>
	<path class="st0" d="M367.8,647.6l10.2,4.2c0.1-0.3,0.3-0.6,0.5-0.8c-0.7-1-6.9-9-6.9-9"/>
	<path class="st0" d="M368.1,658.5l9.9-4.5c-0.2-0.3-0.2-0.6-0.3-0.9c-1.2-0.2-10.7-2.6-10.7-2.6"/>
	<path class="st0" d="M376,665.6l3.4-10c-0.3-0.1-0.6-0.3-0.8-0.5c-1,0.7-8.5,6.3-8.5,6.3"/>
	<path class="st0" d="M386.8,665.5l-5-9.7c-0.3,0.1-0.7,0.1-1.1,0.1c-0.4,2.2-1.1,9.4-1.3,10.6"/>
	<path class="st0" d="M394.2,658.5l-10.4-4.2c-0.1,0.3-0.3,0.6-0.5,0.8c0.7,1,6.6,8.7,6.6,8.7"/>
	<path class="st0" d="M394.5,647.2l-10.8,4.8c0.2,0.3,0.2,0.6,0.3,0.9c1.2,0.2,11.2,2.6,11.2,2.6"/>
	<path class="st1" d="M374.1,633.2c0.5-0.1,2.5,1.2-1.4,1.8c-3,0.5-8.1,0-8.5-0.8s1.2-1.3,1.8-1.4"/>
	<line class="st0" x1="366.1" y1="632.1" x2="366.1" y2="634.5"/>
	<line class="st1" x1="375" y1="634" x2="375" y2="637.6"/>
	<path class="st1" d="M364.1,634l0.5,13.2c0,0,0.3,1.1,0.7,1.4"/>
	<line class="st0" x1="211.1" y1="673.9" x2="211.1" y2="678.7"/>
	<path class="st1" d="M213,678.8h-6.3c-1.1,5.5-1.5,11-1.4,16.6c-0.1,0.6-0.4,1.1-0.8,1.6l-0.1,2c0,0,0.6,0.6,0.6,0.9   c0.1,5,0.5,10,1.4,14.9l6.3,0.4C212.7,715.3,213.8,681.4,213,678.8z"/>
	<path class="st0" d="M206.7,678.8c0,0-0.3,15-0.3,36"/>
	<path class="st1" d="M222,678.8h6.3c1.1,5.5,1.5,11,1.4,16.6c0.1,0.6,0.4,1.1,0.8,1.6l0.1,2c0,0-0.6,0.6-0.6,0.9   c-0.1,5-0.5,10-1.4,14.9l-6.3,0.4C222.3,715.3,221.2,681.4,222,678.8z"/>
	<path class="st0" d="M228.3,678.8c0,0,0.3,15,0.3,36"/>
	<line class="st0" x1="213.2" y1="680.6" x2="221.8" y2="680.6"/>
	<line class="st0" x1="213.2" y1="702.4" x2="221.8" y2="702.4"/>
	<line class="st0" x1="223.5" y1="674.4" x2="223.5" y2="678.8"/>
	<line class="st1" x1="204.6" y1="513.5" x2="204.6" y2="533.7"/>
	<path class="st1" d="M209.7,511.7c0,0-4.8,0.4-5.1,1.8s9.8,2.6,14.3,2.6s13.3-0.7,12.6-2.6c-0.7-1.9-4.8-1.8-4.8-1.8"/>
	<path class="st1" d="M209.8,504.4v9c0,0,9.6,2.2,17.1,0v-8.1"/>
	<path class="st1" d="M188,492.3c0,0,1.7,3.1,3.8,3.5s11.1,0.6,11.1,0.6"/>
	<path class="st1" d="M192.3,495.9c0,0,2.4,2.3,7.7,3.5c6.2,1.4,12,2.5,12,2.5s5.5,0.6,7.9,0.6s13.1-0.8,13.1-0.8"/>
	<path class="st1" d="M201.9,499.8c0,0,6.4,3.8,8.4,4.3s12.3,0.8,13.2,0.7c3.2-0.7,6.4-1.6,9.6-2.7"/>
	<path class="st1" d="M209.6,503.8c-0.1,0.8,0.4,1.5,1.1,1.8c1.3,0.6,14.2,0.8,15.1,0.4c0.9-0.4,1.6-1.2,2-2.2"/>
	<path class="st1" d="M163,366.6c2.9,3.3,5.4,6.9,7.5,10.8c3.1,6.1-4.8,29.7-4.8,29.7s-22.9,57-32.9,63.5s-29.1,4.6-29.1,4.6   s-11-1.9-31.1-5.3s-23.2-10.7-36.3-27.9c-12.7-16.6-23-38.4-23-38.4s-3.2-4.2-0.9-16.4s5.1-21.8,5.1-21.8s-11.8-16.9-6.6-27.9   c4.2-8.2,19.5-10.2,19.5-10.2s-0.6-10.6-0.3-12.1s2.4-5.8,10-6.8s36.2-3.1,54.7,1.6s36.8,7.7,70.9,29.9c7.2,9.2,2.4,20,2.4,20   S167.6,366.2,163,366.6z"/>
	<path class="st1" d="M30.2,327.2c0,0,37.6-7.9,83.9,17.6s41.9,20,53.8,15.4"/>
	<path class="st0" d="M30.1,314.6c0,0,3.5-7.8,34.3-3.6s61.8,25.2,61.8,25.2s16.4,11.9,27.9,12.4s14-4.3,14-4.3"/>
	<path class="st1" d="M39.8,343.4c0,0-7,8.8-5.4,15.3s46.6,80.1,46.6,80.1s6.2,8.3,11.3,9.2s12.8,1.8,12.8,1.8s8.3,1.4,15.3-6.8   s19.4-46.5,20.6-51.7s0.5-10.6-5.4-15.1c-9.6-7.5-20-14-30.9-19.4C87.1,348.2,64.1,340.6,39.8,343.4z"/>
	<path class="st1" d="M17.3,365.3c0,0,47,78.1,48.3,82.1c-5.6-6-26.1-31.2-30.8-39.3s-8.1-13.5-6.6-24.5"/>
	<path class="st0" d="M43.2,325.8c0,0,39.6-0.1,93.6,35.8c16.2,9.5,26.3,4.9,26.3,4.9"/>
	<path class="st0" d="M42.8,325.7c0,0,70,15.6,91.5,40.8c13.3,11.1,12.8,24.2,12.8,24.2c-0.6,19.2-4.1,38.2-10.3,56.3   c-3.1,11-13.4,26.3-16.7,27.7"/>
	
		<ellipse transform="matrix(0.6151 -0.7884 0.7884 0.6151 -264.5957 149.2197)" class="st0" cx="20.5" cy="345.6" rx="3.3" ry="3.6"/>
	<ellipse transform="matrix(0.9925 -0.1226 0.1226 0.9925 -48.1816 5.1521)" class="st0" cx="17.8" cy="394.2" rx="3.3" ry="3.6"/>
	<ellipse transform="matrix(0.5 -0.866 0.866 0.5 -365.2722 272.8484)" class="st0" cx="53.7" cy="452.8" rx="4.2" ry="2.8"/>
	
		<ellipse transform="matrix(0.3196 -0.9475 0.9475 0.3196 -361.5942 418.1292)" class="st0" cx="110.4" cy="460.9" rx="4.4" ry="2"/>
	<path class="st1" d="M282.8,394.4c0,0,4.9,7.2,5.4,7.7"/>
	<path class="st1" d="M295.1,364.2c0,0-3,14.3,5.1,24.5c8.4,10.5,10.3,13.5,10.3,13.5"/>
	<line class="st1" x1="295.1" y1="364.2" x2="321.4" y2="402.2"/>
	<path class="st1" d="M338,403.1L301.3,349c0,0-0.9-1,0-3.9c1.3-3.3,2.7-6.5,4.4-9.6c0,0,1-3,6.8-3.5s39.6-0.2,61.8,8.6   s35.6,17.1,35.6,17.1s7.1,4,4.5,11.9S396,407.4,396,407.4"/>
	<path class="st1" d="M290,323c0,0,11.1-3.1,13.5-3.6c-0.8-1.1-1.8-8.4-1.9-10.3s0.9-4.8,4.7-6s41.5-5.2,70.8,1.2s54.2,15.6,65,23.9   c5.1,4-1.8,15.6-1.8,15.6s-0.7,4-2.8,4.5s-1.9,1.9-1.2,2.6s9,6.9,6.1,17.6S418,416.5,418,416.5"/>
	<path class="st1" d="M303.8,319.1c0,0,32.4-4.4,58.3,1.3s55.2,20.1,55.2,20.1s13,6.2,22.9,4"/>
	<path class="st0" d="M302.4,305.9c0,0,22.3-3.3,39.1-2.6s50.1,10.2,58.2,13.8s22.3,9.5,22.3,9.5s14.7,7,21.3,3.2"/>
	<path class="st0" d="M291.5,327.6c0,0,29.7-7.1,51.4-2.8s55.8,13.2,72.1,26s7.7,34.1,7.7,34.1l-13.1,27.7"/>
	<path class="st0" d="M436.1,349.1c0,0-8.6-0.9-27.7-10.1s-55.2-17.5-55.2-17.5s-37.2-6.6-62.6,3.6"/>
	<path class="st1" d="M41.5,449.8c0,0,1.5,21.6,26,25s85.4,2.4,107,12.4c22,10.2,51.9,14,84.8,12.9c31.7-1,155-6.3,167.2-25.3   s10-41.6,7.3-45.6s-24-21.1-44-22.8s-90.8-5.9-104-4.4s-58.9,10.5-73.1,11s-49.6,0.5-49.6,0.5"/>
	<path class="st1" d="M65.7,413.6c0,0,25.7-8.5,68.1-1.7"/>
	<path class="st1" d="M35.2,440.6c0,0-17.7,0.3-16.3-11.5s1.1-12.4,1.1-12.4"/>
	<path class="st1" d="M32.7,311.2c0,0-6.3-43.3-15.4-74.3s-24.4-74.3-12.4-88s38.2-36.7,49.1-58.6s17.8-56.1,17.8-56.1   s6.5-26.3,28-31.6s57.3-1.9,68.4,3s21.9,14.5,22.1,15.4s20.3,75.5,30.2,86.8s37,33.2,37,33.2s20.3,20.7,20.2,34.2   s-3.4,68.6-1.7,77.6c1.8,9,16.2,69.2,14.7,81.6s-8.8,68.1-8.8,68.1"/>
	<path class="st1" d="M49.4,386.2c0,0,5-34.2,4.3-43.4"/>
	<path class="st1" d="M51.5,307.4c0,0-11.9-62.5-19.1-88s-20.7-64.8-7.3-82s35.7-41.5,41.5-58.8S87,12.2,96.8,6.8s49.4-8,76.5,1.3"/>
	<path class="st1" d="M44,420.9c0,0,0.9-7.2,0.9-9.5"/>
	<path class="st1" d="M43.9,106l5.1,1.6c0,0,18,14.8,21,31.3s31.9,172.9,31.9,172.9"/>
	<path class="st1" d="M104.5,356.7c0,0-0.5,48.3-2.6,53.4"/>
	<path class="st1" d="M230.3,117.6c0,0-12,26.9-6.7,61.6s19.7,101.7,22.7,117.3s6.9,80.1,2.5,111.3"/>
	<line class="st0" x1="76.4" y1="174.1" x2="223.2" y2="176.2"/>
	<line class="st0" x1="81.4" y1="200.1" x2="227.5" y2="202.2"/>
	<line class="st0" x1="82.7" y1="207.9" x2="229" y2="210"/>
	<line class="st0" x1="91" y1="251.2" x2="237.3" y2="253.2"/>
	<line class="st0" x1="92.3" y1="259.2" x2="239.3" y2="261.2"/>
	<line class="st0" x1="100.2" y1="302.4" x2="248.3" y2="304.5"/>
	<line class="st0" x1="167.6" y1="361.5" x2="251.4" y2="359.7"/>
	<line class="st0" x1="165.5" y1="369.6" x2="251.4" y2="368.3"/>
	<line class="st0" x1="101.6" y1="310.4" x2="248.5" y2="312.3"/>
	<line class="st0" x1="126.4" y1="369.6" x2="104.3" y2="369.6"/>
	<line class="st0" x1="114.8" y1="362.3" x2="104.3" y2="361.8"/>
	<path class="st1" d="M166.6,413.4c0,0,18,2.9,23.5,3s36.8-0.9,48.6,22.8s1.3,59.8,1.3,59.8"/>
	<path class="st0" d="M154.6,432.9c0,0,42.9,20.3,59.6,21.4c1,10.5,1.6,36.6,0.7,42.2"/>
	<path class="st1" d="M250.8,407.9c0,0,48.9,1.1,62.7,3.5s36.2-4.1,55.8,0c14.9,3.1,28.3,9.7,35.5,31.5c7.3,21.7-11.1,45-11.1,45"/>
	<path class="st0" d="M419.9,418c0,0,7.7,12-20,14"/>
	<path class="st0" d="M160.7,420.9c0,0,8.6,5.5,28.2,11.9c19.8,6.5,50.3,7.5,50.3,7.5"/>
	<path class="st0" d="M434.1,429.9c0,0-2.3,13.3-9.2,14.3c0,11.6-8.5,33.5-13.5,39.3"/>
	<path class="st0" d="M133.6,413.6c0,0-24.1-1.6-48.5-3.5"/>
	<path class="st0" d="M190.1,416.5c0,0,115.3-3.7,123.3-5"/>
	<path class="st0" d="M69.9,138.9c0,0-33.3,20.2-31,35.2c2.3,15,30.8,113.8,31,133.3"/>
	<path class="st0" d="M71.2,345c0,0-0.3,55.3-5.5,68.6c0,0,51.5,10.1,63.4,12"/>
	<path class="st0" d="M223.5,144c0,0,40,18.8,43.5,30.1c3.5,11.3-1.7,60.1,2.2,83.3c4.7,15.2,9.1,47.1,12.6,71.8   c2.7,18.9-10,74.8-10,74.8s55.4-1.6,71.9-0.6"/>
	<path class="st1" d="M145.9,107c0,0-21.3-0.5-38.3,11.7s-12,27.2-12,27.2s4.5,10.7,17.8,8s33.5-6.5,56-0.7s18.8-16.7,18.8-16.7   S183.4,110.3,145.9,107z"/>
	<path class="st0" d="M143.4,114.5c0,0-19.7-0.1-34.3,13.3c-6.7,6.4-5,12.6-5,12.6s2.4,6.1,8.1,5.6s24.9-4.3,33.5-3.3   s25.2,2.8,28.7,4.1s9.5-3.9,3.8-14.5S163.5,115.9,143.4,114.5z"/>
</g>
</svg>