<svg xmlns="http://www.w3.org/2000/svg" viewBox="0 0 457.97 503.6"><defs><style>.cls-1,.cls-2{fill:#fff;stroke:#1d1d1b;stroke-width:2.24px;}.cls-1,.cls-4,.cls-5,.cls-6{stroke-miterlimit:10;}.cls-2{stroke-linejoin:round;}.cls-3,.cls-8{fill:#dd0613;}.cls-4,.cls-5,.cls-6{fill:none;stroke:#dd0613;}.cls-4{stroke-width:1.8px;}.cls-5{stroke-width:1.88px;}.cls-6{stroke-width:1.81px;}.cls-7{fill:#e0e0e0;}.cls-8{isolation:isolate;font-size:15px;font-family:Roboto-Medium, Roboto;}</style></defs><title>roda com trava</title><g id="Camada_2" data-name="Camada 2"><g id="Camada_1-2" data-name="Camada 1"><polygon class="cls-1" points="112.57 105.07 68.16 55.86 106.66 23.11 150.01 68.43 112.57 105.07"/><path class="cls-1" d="M61,43.48s.62,12.38,4.12,13.25c2.84.71,23.21-18.06,23.21-18.06s18.92-15.06,19.42-18.06-11.13-5.38-12.38-5.25S61,43.48,61,43.48Z"/><path class="cls-1" d="M61,43.48,49,31s11.66-9.42,17.5-14.92S82.12,1.61,82.12,1.61L95.45,15.36Z"/><path class="cls-2" d="M49,31s-.86-8.38,9.35-17.61C74.54-1.2,78.35,1,82.08,1.61Z"/><path class="cls-2" d="M111.58,117.94s-4.79-12.33,11.21-26.58,19.58-17.8,23.9-20.77c10.79-7.43,10.68-4.4,19.89-3.81C166.58,66.8,145.82,96.86,111.58,117.94Z"/><circle class="cls-1" cx="197.65" cy="330.13" r="172.35"/><circle class="cls-1" cx="197.65" cy="334.28" r="46"/><path class="cls-1" d="M266.9,160.47l-81-90.19s-30.66,44-75.33,70.66l24,27.34S214.2,139,278.3,177.8h0A69.34,69.34,0,0,0,266.9,160.47Z"/><path class="cls-1" d="M170.9,159.8l-14.36-13.7,37.87-12.83,27.46,26A182.07,182.07,0,0,0,170.9,159.8Z"/><path class="cls-1" d="M180.55,75.44l-14-8.66s-12.17,16.66-28.17,29.5-26.83,21.66-26.83,21.66,3.35,7.86,7.35,12.5,2.48,3.55,2.48,3.55S157.58,109.11,180.55,75.44Z"/><polygon class="cls-1" points="30.27 416.26 37.47 393.87 50.59 420.07 48.75 425.55 30.27 416.26"/><path class="cls-1" d="M39.9,416.43h0a14.67,14.67,0,0,1,8.75,18.81L29.57,487.52a14.67,14.67,0,0,1-18.81,8.76h0A14.68,14.68,0,0,1,2,477.47L21.1,425.18A14.65,14.65,0,0,1,39.9,416.43Z"/><polygon class="cls-3" points="404.09 502.48 396.01 485.61 412.17 485.61 404.09 502.48"/><line class="cls-4" x1="404.09" y1="489.86" x2="404.09" y2="168.5"/><line class="cls-5" x1="219.15" y1="159.81" x2="420.26" y2="159.81"/><line class="cls-6" x1="197.65" y1="502.48" x2="420.26" y2="502.48"/><polygon class="cls-3" points="404.09 160.12 412.17 176.88 396.01 176.88 404.09 160.12"/><rect class="cls-7" x="379.87" y="320.93" width="78.1" height="16.5"/><text class="cls-8" transform="translate(390.2 334.27)">75 mm</text></g></g></svg>