<?xml version="1.0" encoding="utf-8"?>
<!-- Generator: Adobe Illustrator 23.0.1, SVG Export Plug-In . SVG Version: 6.00 Build 0)  -->
<svg version="1.1" id="Camada_1" xmlns="http://www.w3.org/2000/svg" xmlns:xlink="http://www.w3.org/1999/xlink" x="0px" y="0px"
	 viewBox="0 0 600 600" style="enable-background:new 0 0 600 600;" xml:space="preserve">
<style type="text/css">
	.st0{fill:#FFFFFF;stroke:#1E1E1C;stroke-miterlimit:10;}
	.st1{fill:none;stroke:#1E1E1C;stroke-width:0.6333;stroke-miterlimit:10;}
	.st2{fill:#FFFFFF;stroke:#1E1E1C;stroke-width:1.2665;stroke-miterlimit:10;}
	.st3{fill:#FFFFFF;stroke:#1E1E1C;stroke-width:0.6333;stroke-miterlimit:10;}
	.st4{fill:none;stroke:#1E1E1C;stroke-width:0.9721;stroke-miterlimit:10;}
	.st5{fill:#FFFFFF;}
	.st6{fill:none;stroke:#1E1E1C;stroke-width:0.9881;stroke-miterlimit:10;}
	.st7{fill:none;stroke:#1E1E1C;stroke-width:1.2665;stroke-miterlimit:10;}
	.st8{fill:#FFFFFF;stroke:#1E1E1C;stroke-width:0.9721;stroke-miterlimit:10;}
	.st9{fill:#FFFFFF;stroke:#1E1E1C;stroke-width:0.9091;stroke-miterlimit:10;}
	.st10{fill:#FFFFFF;stroke:#1E1E1C;stroke-width:0.5889;stroke-miterlimit:10;}
	.st11{fill:#FFFFFF;stroke:#1E1E1C;stroke-width:1.019;stroke-miterlimit:10;}
	.st12{fill:#FFFFFF;stroke:#1E1E1C;stroke-width:0.953;stroke-miterlimit:10;}
	.st13{fill:#FFFFFF;stroke:#1E1E1C;stroke-width:0.6639;stroke-miterlimit:10;}
	.st14{fill:#FFFFFF;stroke:#1E1E1C;stroke-width:0.6174;stroke-miterlimit:10;}
	.st15{fill:#FFFFFF;stroke:#1E1E1C;stroke-width:1.3277;stroke-miterlimit:10;}
	.st16{fill:none;stroke:#1E1E1C;stroke-width:0.75;stroke-miterlimit:10;}
	.st17{fill:none;stroke:#1E1E1C;stroke-miterlimit:10;}
	.st18{fill:none;stroke:#1E1E1C;stroke-width:1.3977;stroke-miterlimit:10;}
	.st19{fill:none;stroke:#1E1E1C;stroke-width:2;stroke-miterlimit:10;}
	.st20{fill:#FFFFFF;stroke:#1E1E1C;stroke-width:0.5;stroke-miterlimit:10;}
	.st21{fill:none;stroke:#1E1E1C;stroke-width:0.5;stroke-miterlimit:10;}
	.st22{fill:none;stroke:#1E1E1C;stroke-width:1.0033;stroke-miterlimit:10;}
	.st23{fill:#FFFFFF;stroke:#020203;stroke-width:0.75;stroke-miterlimit:10;}
	.st24{fill:none;stroke:#020203;stroke-miterlimit:10;}
	.st25{fill:#FFFFFF;stroke:#020203;stroke-miterlimit:10;}
	.st26{fill:none;stroke:#020203;stroke-width:0.5;stroke-miterlimit:10;}
	.st27{fill:#FFFFFF;stroke:#020203;stroke-linejoin:round;}
	.st28{fill:none;stroke:#020203;stroke-linejoin:round;}
	.st29{fill:none;stroke:#020203;stroke-width:0.75;stroke-miterlimit:10;}
	.st30{fill:none;stroke:#020203;stroke-width:0.25;stroke-miterlimit:10;}
	.st31{fill:none;stroke:#E52624;stroke-width:1.5;stroke-miterlimit:10;}
	.st32{fill:#E52624;}
	.st33{fill:#FFFFFF;stroke:#020203;stroke-width:0.5;stroke-miterlimit:10;}
	.st34{fill:none;stroke:#E52522;stroke-width:1.5;stroke-miterlimit:10;}
	.st35{fill:#E52522;}
	.st36{fill:#E7E6E6;}
	.st37{fill:none;stroke:#E20D18;stroke-width:2;stroke-miterlimit:10;}
	.st38{fill:none;stroke:#E20D18;stroke-width:1.8;stroke-miterlimit:10;}
	.st39{fill:none;stroke:#E20D18;stroke-width:1.62;stroke-miterlimit:10;}
	.st40{fill:#E20D18;}
	.st41{fill:none;stroke:#E20D18;stroke-width:1.54;stroke-miterlimit:10;}
	.st42{fill:none;stroke:#E20D18;stroke-width:1.74;stroke-miterlimit:10;}
	.st43{fill:none;stroke:#E20D18;stroke-width:1.55;stroke-miterlimit:10;}
	.st44{fill:none;stroke:#E20D18;stroke-width:1.56;stroke-miterlimit:10;}
	.st45{fill:none;stroke:#E20D18;stroke-width:1.53;stroke-miterlimit:10;}
	.st46{fill:none;stroke:#E20D18;stroke-width:1.58;stroke-miterlimit:10;}
	.st47{fill:none;stroke:#E20D18;stroke-width:1.69;stroke-miterlimit:10;}
	.st48{fill:none;stroke:#E20D18;stroke-width:1.43;stroke-miterlimit:10;}
	.st49{fill:none;stroke:#E20D18;stroke-width:1.48;stroke-miterlimit:10;}
	.st50{fill:none;stroke:#E20D18;stroke-width:1.67;stroke-miterlimit:10;}
	.st51{fill:none;stroke:#E20D18;stroke-width:1.65;stroke-miterlimit:10;}
	.st52{fill:#FFFFFF;stroke:#020203;stroke-width:3;stroke-miterlimit:10;}
	.st53{fill:none;stroke:#E20D18;stroke-width:1.41;stroke-miterlimit:10;}
	.st54{fill:none;stroke:#E20D18;stroke-width:1.59;stroke-miterlimit:10;}
	.st55{fill:none;stroke:#1E1E1C;stroke-width:1.05;stroke-miterlimit:10;}
	.st56{fill:none;stroke:#1E1E1C;stroke-width:0.52;stroke-miterlimit:10;}
	.st57{fill:none;stroke:#1E1E1C;stroke-width:0.8;stroke-miterlimit:10;}
	.st58{fill:none;stroke:#1E1E1C;stroke-width:0.49;stroke-miterlimit:10;}
	.st59{fill:none;stroke:#1E1E1C;stroke-width:0.84;stroke-miterlimit:10;}
	.st60{fill:none;stroke:#1E1E1C;stroke-width:0.79;stroke-miterlimit:10;}
	.st61{fill:none;stroke:#1E1E1C;stroke-width:0.55;stroke-miterlimit:10;}
	.st62{fill:none;stroke:#1E1E1C;stroke-width:0.51;stroke-miterlimit:10;}
	.st63{fill:none;stroke:#1E1E1C;stroke-width:1.1;stroke-miterlimit:10;}
	.st64{fill:none;stroke:#1E1E1C;stroke-width:0.25;stroke-miterlimit:10;}
	.st65{fill:none;stroke:#1E1E1C;stroke-width:1.07;stroke-miterlimit:10;}
	.st66{fill:none;stroke:#1E1E1C;stroke-width:0.94;stroke-miterlimit:10;}
	.st67{fill:none;stroke:#1E1E1C;stroke-width:0.56;stroke-miterlimit:10;}
	.st68{fill:none;stroke:#E20D18;stroke-width:1.5;stroke-miterlimit:10;}
	.st69{fill:none;stroke:#E20D18;stroke-width:1.49;stroke-miterlimit:10;}
	.st70{fill:none;stroke:#E20D18;stroke-miterlimit:10;}
	.st71{fill:none;stroke:#1E1E1C;stroke-width:0.78;stroke-miterlimit:10;}
	.st72{fill:none;stroke:#1E1E1C;stroke-width:1.08;stroke-miterlimit:10;}
	.st73{fill:none;stroke:#1E1E1C;stroke-width:0.54;stroke-miterlimit:10;}
	.st74{fill:none;stroke:#1E1E1C;stroke-width:0.83;stroke-miterlimit:10;}
	.st75{fill:none;stroke:#1E1E1C;stroke-width:0.77;stroke-miterlimit:10;}
	.st76{fill:none;stroke:#1E1E1C;stroke-width:0.87;stroke-miterlimit:10;}
	.st77{fill:none;stroke:#1E1E1C;stroke-width:0.81;stroke-miterlimit:10;}
	.st78{fill:none;stroke:#1E1E1C;stroke-width:1.13;stroke-miterlimit:10;}
	.st79{fill:none;stroke:#1E1E1C;stroke-width:0.21;stroke-miterlimit:10;}
	.st80{fill:#FFFFFF;stroke:#1E1E1C;stroke-width:0.84;stroke-miterlimit:10;}
	.st81{fill:none;stroke:#1E1E1C;stroke-width:0.42;stroke-miterlimit:10;}
	.st82{fill:none;stroke:#1E1E1C;stroke-width:0.24;stroke-miterlimit:10;}
	.st83{fill:none;stroke:#E20D18;stroke-width:1.6;stroke-miterlimit:10;}
	.st84{fill:none;stroke:#E20D18;stroke-width:1.64;stroke-miterlimit:10;}
	.st85{fill:none;stroke:#E20D18;stroke-width:1.484;stroke-miterlimit:10;}
	.st86{fill:none;stroke:#E20D18;stroke-width:1.4075;stroke-miterlimit:10;}
	.st87{fill:none;stroke:#E20D18;stroke-width:1.5853;stroke-miterlimit:10;}
	.st88{fill:none;stroke:#E20D18;stroke-width:1.2981;stroke-miterlimit:10;}
	.st89{fill:none;stroke:#E20D18;stroke-width:0.9733;stroke-miterlimit:10;}
	.st90{fill:none;stroke:#E20D18;stroke-width:0.9159;stroke-miterlimit:10;}
	.st91{fill:none;stroke:#E20D18;stroke-width:1.4439;stroke-miterlimit:10;}
	.st92{fill:none;stroke:#E20D18;stroke-width:1.0062;stroke-miterlimit:10;}
	.st93{fill:none;stroke:#E20D18;stroke-width:0.9468;stroke-miterlimit:10;}
	.st94{fill:none;stroke:#E20D18;stroke-width:1.6749;stroke-miterlimit:10;}
	.st95{fill:none;stroke:#E20D18;stroke-width:1.6513;stroke-miterlimit:10;}
	.st96{fill:#FFFFFF;stroke:#1E1E1C;stroke-width:0.8664;stroke-miterlimit:10;}
	.st97{fill:#FFFFFF;stroke:#1E1E1C;stroke-width:1.0973;stroke-miterlimit:10;}
	.st98{fill:none;stroke:#1E1E1C;stroke-width:1.0973;stroke-miterlimit:10;}
	.st99{fill:#FFFFFF;stroke:#1E1E1C;stroke-width:0.5487;stroke-miterlimit:10;}
	.st100{fill:none;stroke:#1E1E1C;stroke-width:0.8422;stroke-miterlimit:10;}
	.st101{fill:#FFFFFF;stroke:#1E1E1C;stroke-width:0.7877;stroke-miterlimit:10;}
	.st102{fill:#FFFFFF;stroke:#1E1E1C;stroke-width:0.5103;stroke-miterlimit:10;}
	.st103{fill:#FFFFFF;stroke:#1E1E1C;stroke-width:0.8422;stroke-miterlimit:10;}
	.st104{fill:none;stroke:#1E1E1C;stroke-width:0.8829;stroke-miterlimit:10;}
	.st105{fill:#FFFFFF;stroke:#1E1E1C;stroke-width:0.8257;stroke-miterlimit:10;}
	.st106{fill:#FFFFFF;stroke:#1E1E1C;stroke-width:0.5752;stroke-miterlimit:10;}
	.st107{fill:#FFFFFF;stroke:#1E1E1C;stroke-width:0.5349;stroke-miterlimit:10;}
	.st108{fill:#FFFFFF;stroke:#1E1E1C;stroke-width:1.1504;stroke-miterlimit:10;}
	.st109{fill:#FFFFFF;stroke:#1E1E1C;stroke-width:0.8829;stroke-miterlimit:10;}
	.st110{fill:none;stroke:#1E1E1C;stroke-width:0.5487;stroke-miterlimit:10;}
	.st111{fill:#FFFFFF;stroke:#1E1E1C;stroke-width:1.0441;stroke-miterlimit:10;}
	.st112{fill:none;stroke:#E20D18;stroke-width:1.5173;stroke-miterlimit:10;}
	.st113{fill:none;stroke:#E20D18;stroke-width:1.804;stroke-miterlimit:10;}
	.st114{fill:none;stroke:#E20D18;stroke-width:1.6153;stroke-miterlimit:10;}
	.st115{fill:none;stroke:#E20D18;stroke-width:1.578;stroke-miterlimit:10;}
	.st116{fill:none;stroke:#E20D18;stroke-width:1.6879;stroke-miterlimit:10;}
	.st117{fill:none;stroke:#E20D18;stroke-width:1.6347;stroke-miterlimit:10;}
	.st118{fill:none;stroke:#E20D18;stroke-width:1.5386;stroke-miterlimit:10;}
	.st119{fill:none;stroke:#E20D18;stroke-width:1.7396;stroke-miterlimit:10;}
	.st120{fill:#FFFFFF;stroke:#1E1E1C;stroke-width:1.4;stroke-miterlimit:10;}
	.st121{fill:none;stroke:#E20D18;stroke-width:1.4266;stroke-miterlimit:10;}
	.st122{fill:none;stroke:#E20D18;stroke-width:1.4299;stroke-miterlimit:10;}
	.st123{font-family:'Roboto-Medium';}
	.st124{font-size:12.5735px;}
	.st125{fill:none;stroke:#1E1E1C;stroke-width:0.9867;stroke-miterlimit:10;}
	.st126{fill:none;stroke:#DD0B18;stroke-width:1.4266;stroke-miterlimit:10;}
	.st127{fill:none;stroke:#DD0B18;stroke-width:1.4299;stroke-miterlimit:10;}
	.st128{fill:#DD0B18;}
	.st129{fill:none;stroke:#DD0B18;stroke-width:1.484;stroke-miterlimit:10;}
	.st130{fill:none;stroke:#DD0B18;stroke-width:1.4075;stroke-miterlimit:10;}
	.st131{fill:none;stroke:#DD0B18;stroke-width:1.5853;stroke-miterlimit:10;}
	.st132{fill:none;stroke:#DD0B18;stroke-width:1.2981;stroke-miterlimit:10;}
	.st133{fill:none;stroke:#DD0B18;stroke-width:0.9733;stroke-miterlimit:10;}
	.st134{fill:none;stroke:#DD0B18;stroke-width:0.9159;stroke-miterlimit:10;}
	.st135{fill:none;stroke:#DD0B18;stroke-width:1.4439;stroke-miterlimit:10;}
	.st136{fill:none;stroke:#DD0B18;stroke-width:1.0062;stroke-miterlimit:10;}
	.st137{fill:none;stroke:#DD0B18;stroke-width:0.9468;stroke-miterlimit:10;}
	.st138{fill:none;stroke:#DD0B18;stroke-width:1.6749;stroke-miterlimit:10;}
	.st139{fill:none;stroke:#DD0B18;stroke-width:1.6513;stroke-miterlimit:10;}
	.st140{fill:#FFFFFF;stroke:#1E1E1C;stroke-width:0.75;stroke-miterlimit:10;}
	.st141{fill:none;stroke:#DD0B18;stroke-width:1.5173;stroke-miterlimit:10;}
	.st142{fill:none;stroke:#DD0B18;stroke-width:1.804;stroke-miterlimit:10;}
	.st143{fill:none;stroke:#DD0B18;stroke-width:1.6153;stroke-miterlimit:10;}
	.st144{fill:none;stroke:#DD0B18;stroke-width:1.5551;stroke-miterlimit:10;}
	.st145{fill:none;stroke:#DD0B18;stroke-width:1.578;stroke-miterlimit:10;}
	.st146{fill:#E0E0E0;}
	.st147{fill:none;stroke:#DD0B18;stroke-width:1.6879;stroke-miterlimit:10;}
	.st148{fill:none;stroke:#DD0B18;stroke-width:1.6347;stroke-miterlimit:10;}
	.st149{fill:none;stroke:#DD0B18;stroke-width:1.5386;stroke-miterlimit:10;}
	.st150{fill:none;stroke:#DD0B18;stroke-width:1.7396;stroke-miterlimit:10;}
	.st151{fill:#FFFFFF;stroke:#020203;stroke-width:1.635;stroke-miterlimit:10;}
	.st152{fill:none;stroke:#E20D18;stroke-width:1.52;stroke-miterlimit:10;}
	.st153{fill:#020203;}
	.st154{fill:none;stroke:#1E1E1C;stroke-linejoin:round;}
	.st155{fill:none;stroke:#1E1E1C;stroke-linecap:round;stroke-miterlimit:10;}
	.st156{fill:#1E1E1C;}
	.st157{fill:none;stroke:#1E1E1C;stroke-linejoin:round;stroke-miterlimit:10;}
	.st158{fill:none;stroke:#020203;stroke-linejoin:bevel;stroke-miterlimit:10;}
	.st159{fill:none;stroke:#020203;stroke-miterlimit:10;stroke-dasharray:1;}
	.st160{fill:none;stroke:#020203;stroke-width:0.5;stroke-miterlimit:10;stroke-dasharray:1;}
	.st161{fill:none;stroke:#E20D18;stroke-width:1.3;stroke-miterlimit:10;}
	.st162{fill:none;stroke:#E20D18;stroke-width:0.97;stroke-miterlimit:10;}
	.st163{fill:none;stroke:#E20D18;stroke-width:0.92;stroke-miterlimit:10;}
	.st164{fill:none;stroke:#E20D18;stroke-width:1.44;stroke-miterlimit:10;}
	.st165{fill:none;stroke:#E20D18;stroke-width:1.01;stroke-miterlimit:10;}
	.st166{fill:none;stroke:#E20D18;stroke-width:0.95;stroke-miterlimit:10;}
	.st167{fill:#FFFFFF;stroke:#1E1E1C;stroke-width:2;stroke-miterlimit:10;}
	.st168{fill:none;stroke:#1E1E1C;stroke-width:1.5;stroke-linejoin:round;}
	.st169{fill:none;stroke:#1E1E1C;stroke-width:1.5;stroke-miterlimit:10;}
	.st170{fill:none;stroke:#1E1E1C;stroke-width:2;stroke-linecap:round;stroke-miterlimit:10;}
	.st171{fill:none;stroke:#1E1E1C;stroke-width:1.5;stroke-linecap:round;stroke-miterlimit:10;}
	.st172{fill:none;stroke:#1E1E1C;stroke-width:2;stroke-linejoin:round;stroke-miterlimit:10;}
	.st173{fill:none;stroke:#1E1E1C;stroke-width:2;stroke-linejoin:round;}
	.st174{fill:none;stroke:#020203;stroke-width:0.5;stroke-linejoin:bevel;stroke-miterlimit:10;}
	.st175{fill:none;stroke:#E20D18;stroke-width:1.63;stroke-miterlimit:10;}
	.st176{fill:none;stroke:#000000;stroke-miterlimit:10;}
	.st177{fill:#FFFFFF;stroke:#000000;stroke-miterlimit:10;}
	.st178{fill:none;stroke:#E20D18;stroke-width:1.3113;stroke-miterlimit:10;}
	.st179{fill:none;stroke:#E20D18;stroke-width:1.3459;stroke-miterlimit:10;}
	.st180{fill:none;stroke:#E20D18;stroke-width:1.4481;stroke-miterlimit:10;}
	.st181{fill:none;stroke:#E20D18;stroke-width:1.3929;stroke-miterlimit:10;}
	.st182{fill:none;stroke:#E20D18;stroke-width:1.327;stroke-miterlimit:10;}
	.st183{fill:none;stroke:#E20D18;stroke-width:1.4965;stroke-miterlimit:10;}
	.st184{fill:none;stroke:#E20D18;stroke-width:1.225;stroke-miterlimit:10;}
	.st185{fill:none;stroke:#E20D18;stroke-width:1.4563;stroke-miterlimit:10;}
	.st186{fill:none;stroke:#E20D18;stroke-width:1.5717;stroke-miterlimit:10;}
	.st187{fill:none;stroke:#E20D18;stroke-width:1.5529;stroke-miterlimit:10;}
	.st188{fill:#BFBEBF;stroke:#020203;stroke-miterlimit:10;}
	.st189{fill:none;stroke:#E20D18;stroke-width:2.0835;stroke-miterlimit:10;}
	.st190{fill:none;stroke:#E20D18;stroke-width:1.8751;stroke-miterlimit:10;}
	.st191{fill:none;stroke:#E20D18;stroke-width:1.6876;stroke-miterlimit:10;}
	.st192{fill:none;stroke:#E20D18;stroke-width:1.698;stroke-miterlimit:10;}
	.st193{fill:none;stroke:#E20D18;stroke-width:1.6043;stroke-miterlimit:10;}
	.st194{fill:none;stroke:#E20D18;stroke-width:1.8126;stroke-miterlimit:10;}
	.st195{fill:none;stroke:#E20D18;stroke-width:1.6147;stroke-miterlimit:10;}
	.st196{fill:none;stroke:#E20D18;stroke-width:1.5938;stroke-miterlimit:10;}
	.st197{fill:none;stroke:#E20D18;stroke-width:1.6251;stroke-miterlimit:10;}
	.st198{fill:none;stroke:#E20D18;stroke-width:1.6459;stroke-miterlimit:10;}
	.st199{fill:none;stroke:#E20D18;stroke-width:1.7605;stroke-miterlimit:10;}
	.st200{fill:#FFFFFF;stroke:#1E1E1C;stroke-width:0.87;stroke-miterlimit:10;}
	.st201{fill:#FFFFFF;stroke:#1E1E1C;stroke-width:1.1;stroke-miterlimit:10;}
	.st202{fill:#FFFFFF;stroke:#1E1E1C;stroke-width:0.55;stroke-miterlimit:10;}
	.st203{fill:#FFFFFF;stroke:#1E1E1C;stroke-width:0.79;stroke-miterlimit:10;}
	.st204{fill:#FFFFFF;stroke:#1E1E1C;stroke-width:0.51;stroke-miterlimit:10;}
	.st205{fill:none;stroke:#1E1E1C;stroke-width:0.88;stroke-miterlimit:10;}
	.st206{fill:#FFFFFF;stroke:#1E1E1C;stroke-width:0.83;stroke-miterlimit:10;}
	.st207{fill:#FFFFFF;stroke:#1E1E1C;stroke-width:0.58;stroke-miterlimit:10;}
	.st208{fill:#FFFFFF;stroke:#1E1E1C;stroke-width:0.53;stroke-miterlimit:10;}
	.st209{fill:#FFFFFF;stroke:#1E1E1C;stroke-width:1.15;stroke-miterlimit:10;}
	.st210{fill:#FFFFFF;stroke:#1E1E1C;stroke-width:0.88;stroke-miterlimit:10;}
	.st211{fill:#FFFFFF;stroke:#1E1E1C;stroke-width:1.04;stroke-miterlimit:10;}
	.st212{fill:#FFFFFF;stroke:#020203;stroke-linejoin:round;stroke-miterlimit:10;}
</style>
<g>
	<path class="st0" d="M457.2,504.4c7.9,0.2,14.2,7.2,14,15.7c-0.1,2.4-1,6.5-1.9,8.5l-28.1-8l10.2-13.4L457.2,504.4z"/>
	<path class="st1" d="M470.7,520.5c0.2-8.5-7.3-14.6-15.3-14.8"/>
	<path class="st2" d="M454.1,542.4c7.9,0.2,14.5-6.5,14.7-15s-6.1-15.5-14-15.7s-14.5,6.5-14.7,15
		C439.9,535.2,446.2,542.2,454.1,542.4"/>
	
		<ellipse transform="matrix(2.294241e-02 -0.9997 0.9997 2.294241e-02 -83.1636 969.1037)" class="st3" cx="454.2" cy="527.1" rx="2.6" ry="2.5"/>
	<path class="st1" d="M454.2,514.1c0,0-0.3,8.4-0.6,8.8c-0.3,0.4-0.7,0.7-1.5,0c-0.9-0.8-4.3-6.8-4.3-6.8"/>
	<path class="st1" d="M456.1,514.2c0,0-0.6,8.4-0.3,8.8c0.3,0.4,0.6,0.8,1.5,0.1c1-0.7,4.9-6.3,4.9-6.3"/>
	<path class="st1" d="M464,519.1c0,0-5.5,6-5.6,6.6s0,1,1.1,1.2c1.1,0.1,7.5-1.4,7.5-1.4"/>
	<path class="st1" d="M466.9,529.2c0,0-7.9-0.6-8.3-0.3c-0.4,0.3-0.8,0.6-0.1,1.6c0.6,1,5.8,5.3,5.8,5.3"/>
	<path class="st4" d="M454.2,540.1c6.7,0.2,12.4-5.6,12.5-12.8c0.2-7.2-5.2-13.2-11.9-13.3c-6.7-0.2-12.4,5.6-12.5,12.8
		S447.4,539.9,454.2,540.1"/>
	<path class="st1" d="M470.2,524.2c0.2-8.5-5.8-14.8-13.8-14.9c0,0-2.2-0.4-6,0.9"/>
	<g>
		<g>
			<path class="st5" d="M137,509.9c0,0-7.9-0.3-12.6,7.3c-4.7,7.7,0.4,17.4,0.4,17.4c2.9,14.4,14.7,13.4,14.7,13.4
				c17.3-0.6,14.4-22.6,14.4-22.6l-0.2-15.4C153.6,510,147.3,515.1,137,509.9z"/>
			<path class="st5" d="M372.8,450.3l-0.7,1.6c0,0-2.4,0-4.7,11.3l28.3,6.8c0,0,3.9-14.7-3.3-18.2l-3.8-0.7l-3.9,0.7l-0.1-2.4
				L372.8,450.3z"/>
			<path class="st5" d="M219.8,452.6l0.7,1.6c0,0,2.4-0.1,5.2,11.1l-28,8.1c0,0-4.5-14.5,2.4-18.4l3.7-0.9l3.9,0.6l-0.1-2.4
				L219.8,452.6z"/>
			<path class="st5" d="M293,553.8l0.1,3.2l-5.4,0.1l-1.7,4.3l0.9,26.5l2.1,4.7l5.4-0.1c0,0,0.9-1.1,0.7-5.9c-0.2-4.8-0.1-6-0.1-6
				l8.8-0.3l0.2,9.2c0,0,0.4,2.7,0.9,2.7c0.6,0,5.4-0.1,5.4-0.1s2.1-3.3,2.4-5.9c0.3-2.6-0.6-24.8-0.6-24.8l-2.1-4.9l-5.8,0.1
				l-0.2-1.9L293,553.8z"/>
		</g>
		<g id="Base_5_">
			<g id="base_8_">
				<g>
					<path class="st0" d="M315.3,452l-0.3-7c0,0,10.2-6.2,40.3-7.4c30-1.2,32.9,6,32.9,6s1.4,1.2,0.5,7.6c0,0-3.1,0.9-3.6,0.7
						c-0.4-0.2-0.2-2.4-0.2-2.4s-26.2,0.2-41.7,8.2"/>
					<path class="st0" d="M278.8,452.1l-0.2-6.7c0,0-11.4-6.1-41.5-6c-30.1,0.1-32.6,7.5-32.6,7.5s-1.3,1.2-0.2,7.6
						c0,0,3.2,0.7,3.6,0.6c0.4-0.2,0.1-2.4,0.1-2.4s26.2-1,42,6.3"/>
					<path class="st0" d="M298.7,457.8c11.4,0,16.6-5.8,16.6-5.8l0-0.7l-2.2-44.9c-0.1-1.2-0.2-2.3-0.5-3.4c-0.2-0.9-0.6-1.8-1-2.2
						c0,0-0.2,6-14,6.4l-3,0.1c-13.7,0.3-14.3-5.7-14.3-5.7c-0.4,0.5-0.7,1.4-0.9,2.3c-0.3,1.1-0.4,2.3-0.4,3.5l-0.2,45l0.1,0.7
						c0,0,5.4,5.6,16.9,5L298.7,457.8z"/>
					<path class="st0" d="M295,407.1c-12.1,0.5-13.9-5.4-13.9-5.4l-0.1-5.8c0,0-0.2-3.4,0.9-4.5c0,0,0,5.4,13.6,5l1,0
						c13.6-0.2,13.4-5.7,13.4-5.7c1.1,1.1,1.1,4.4,1.1,4.4l0.1,5.8c0,0-1.5,5.9-13.6,6L295,407.1z"/>
					<path class="st0" d="M281.9,391.9l0-3.4H310l-0.5,2.1c0,0-0.5,6-13.2,5.9S281.9,391.9,281.9,391.9z"/>
					<path class="st2" d="M293,554.1l0.1,2.8c0,0,0.9,0.3,1.1,1.8l9.5-0.2c0,0,0.1-1.6,0.6-1.8l-0.1-2.2"/>
					<path class="st2" d="M293.1,556.9l-5.4,0.1l1.3,35.5l5.4-0.1c0,0,1-0.8,0.8-3.9l-1-29.9"/>
					<path class="st2" d="M287.9,557l-0.8,1.7c-1.7,3.5-0.9,1.8-0.7,15.3l0,0.3c0.5,13.5,0,13.2,1.8,16.6l0.9,1.6"/>
					<path class="st2" d="M304.8,556.7l5.4-0.1l0.3,35.6l-5.4,0.1c0,0-1-0.7-0.9-3.8l-0.3-29.9"/>
					<path class="st2" d="M310.2,556.8l0.9,1.6c1.8,3.5,1,1.7,1.4,15.2l0,0.3c0.2,13.5,0.6,13.2-1,16.7l-0.8,1.7"/>
					<line class="st2" x1="295.1" y1="580.1" x2="304" y2="579.9"/>
					<path class="st0" d="M278.9,452.8l-0.1-0.7c0,0-48.4,10.6-83.6,22.1s-56.5,23.5-56.5,23.5s-4.5,2.7-2.3,12.3
						c0,0,8.9,5.5,17.1,0l1.8-3.7c0,0,36.2-12.4,59.8-18.4c16-4.1,32.8-6.6,42.1-7.8c5.4-0.7,10.7-1.6,16.1-2.7l0,0
						c2.2-0.4,4.4-0.2,6.5,0.6l1.4,0.7l0,0c0,0,1.8,2.1,3.5,26.4c1.7,24.3,3.2,42.5,3.2,42.5s0.9,8.5,12.2,7.4
						c2.3-0.2,4.1-0.5,5.5-0.9c3.5-0.9,6-4.3,6.1-8.2l1.4-66.2l0,0l1.4-0.7c2-0.9,4.2-1.3,6.4-0.9l0.1,0c5.4,0.8,10.8,1.5,16.2,1.9
						c9.3,0.8,26.3,2.5,42.4,5.9c23.9,4.9,60.6,15.7,60.6,15.7l-0.1,3c12.4,5.7,19.2-0.2,19.2-0.2c1.7-9.7-2.8-12.2-2.8-12.2
						s-21.8-11-57.5-20.9S315.3,452,315.3,452"/>
				</g>
				<g>
					<path class="st7" d="M154.3,510.7l0,14.4l-0.5,0.4c0,0-1.1-4.6-4.3-7.2c-2.7-2.2-5.4-2.9-5.4-2.9l-0.1-2.9"/>
					<path class="st2" d="M124.2,534.2c-1-2-1.9-6.1-1.9-8.5c-0.2-8.5,6.1-15.5,14-15.7"/>
					<path class="st3" d="M122.9,526.2c-0.2-8.5,7.3-14.6,15.3-14.8"/>
					
						<ellipse transform="matrix(0.9997 -2.294241e-02 2.294241e-02 0.9997 -12.1848 3.3309)" class="st2" cx="139.1" cy="532.7" rx="14.4" ry="15.4"/>
					
						<ellipse transform="matrix(0.9997 -2.294241e-02 2.294241e-02 0.9997 -12.1857 3.3372)" class="st3" cx="139.3" cy="532.7" rx="2.5" ry="2.6"/>
					<path class="st3" d="M139.3,519.7c0,0,0.3,8.4,0.6,8.8c0.3,0.4,0.7,0.7,1.5,0c0.9-0.8,4.3-6.8,4.3-6.8"/>
					<path class="st3" d="M147.7,523.8c0,0-4.9,6.6-4.9,7.1c0,0.5,0.1,1,1.2,1s7.4-2.2,7.4-2.2"/>
					<path class="st3" d="M151.5,532.5c0,0-7.9,0.2-8.3,0.6s-0.7,0.7,0,1.6c0.7,0.9,6.3,4.6,6.3,4.6"/>
					<path class="st3" d="M148.3,541.3c0,0-6.4-5-6.9-4.9c-0.5,0-0.9,0.1-0.9,1.3c0,1.2,2.4,7.8,2.4,7.8"/>
					<path class="st3" d="M137.5,519.8c0,0,0.6,8.4,0.3,8.8c-0.3,0.4-0.6,0.8-1.5,0.1s-4.9-6.3-4.9-6.3"/>
					<path class="st3" d="M129.6,524.7c0,0,5.5,6,5.6,6.6c0,0.5,0,1-1.1,1.2c-1.1,0.1-7.5-1.4-7.5-1.4"/>
					<path class="st3" d="M126.7,534.8c0,0,7.9-0.6,8.3-0.3c0.4,0.3,0.8,0.6,0.1,1.6c-0.6,1-5.8,5.3-5.8,5.3"/>
					<path class="st3" d="M131.8,543.4c0,0,5-6.5,5.5-6.6c0.5-0.1,0.9-0.2,1.2,1S138,546,138,546"/>
				</g>
				<line class="st8" x1="208" y1="455" x2="212.8" y2="454.8"/>
				<path class="st9" d="M198.4,472.7c-1.6-1.9-1.5-6.5-1.5-6.5c-0.1-6.1,2.3-11.1,5.4-11.2c3.1-0.1,6.2,4.6,6.4,10.7l0.1,3.4"/>
				<path class="st3" d="M198.7,472.5c-1.5-1.7-1.4-6.1-1.4-6.1c-0.1-5.6,2.1-10.3,5-10.3s5,4.3,5.1,9.9l-0.1,3.5"/>
				<path class="st3" d="M200.7,457.4c0,0,0.4,7.6,0.9,9c0.5,1.4,0.9-4.8,1.8-6.4c0.4-0.8,0.7-1.4,0.7-1.4"/>
				<path class="st3" d="M205.3,460.9c0,0-2.6,5.8-2.6,7.1c0,1.3,2.5-1.5,4.4-2.4"/>
				<path class="st10" d="M199.1,459.5c0,0,2.1,7.2,1.6,6.8c-0.5-0.4-1.8-2.1-3.1-2.7"/>
				<path class="st10" d="M197.6,464.8l3.2,3.6c0,0,0.7,1.2-0.3,1.3s-2.7-0.1-2.7-0.1"/>
				
					<ellipse transform="matrix(0.9997 -2.294241e-02 2.294241e-02 0.9997 -10.6967 4.7556)" class="st2" cx="201.9" cy="468.6" rx="0.9" ry="1.8"/>
				<path class="st8" d="M224.8,464.3c0,0-2.2-8.4-3.9-9.3l-0.1,10.3l-7.1,2.2l-0.2-2c-0.9-4.2-2.6-6.6-2.6-6.6l-0.1-3.7
					c0,0,2.1,2.9,5.8,2.2c3.7-0.7,4-2.4,4-2.4l-1-1.5l0,1.1l-6.8,0.2l0-1.9"/>
				<line class="st11" x1="384.9" y1="452.1" x2="379.8" y2="452"/>
				<path class="st12" d="M395.8,470.1c1.6-2,1.3-6.9,1.3-6.9c-0.1-6.4-2.9-11.5-6.2-11.4c-3.3,0.1-6.3,5.1-6.2,11.5l0.1,3.5"/>
				<path class="st13" d="M395.4,469.9c1.5-1.9,1.2-6.4,1.2-6.4c-0.1-5.9-2.7-10.6-5.8-10.6c-3,0.1-5,4.7-4.9,10.6l0.3,3.6"/>
				<path class="st13" d="M392.7,454.2c0,0,0,8-0.5,9.4c-0.5,1.4-1.2-4.9-2.2-6.6c-0.5-0.8-0.8-1.4-0.8-1.4"/>
				<path class="st13" d="M387.9,458.1c0,0,3,6,3.1,7.3c0.1,1.3-2.7-1.4-4.8-2.2"/>
				<path class="st14" d="M394.4,456.4c0,0-1.9,7.7-1.3,7.2c0.5-0.4,1.7-2.2,3.2-2.9"/>
				<path class="st14" d="M396.2,461.8l-3.1,3.9c0,0-0.7,1.3,0.3,1.3c1,0,2.8-0.2,2.8-0.2"/>
				
					<ellipse transform="matrix(0.9997 -2.294241e-02 2.294241e-02 0.9997 -10.5862 9.1135)" class="st15" cx="391.9" cy="465.9" rx="1" ry="1.9"/>
				<path class="st11" d="M367.7,462.6c0,0,2-8.9,3.6-9.9l0.7,10.8l7.5,1.9l0.2-2.1c0.7-4.4,2.4-7,2.4-7l-0.1-3.9c0,0-2.1,3.2-6,2.6
					c-3.9-0.6-4.3-2.3-4.3-2.3l1-1.6l0,1.2l7.1-0.2l0-2"/>
				
					<ellipse transform="matrix(0.9997 -2.294241e-02 2.294241e-02 0.9997 -12.1848 3.3309)" class="st4" cx="139.1" cy="532.7" rx="12.2" ry="13"/>
				<path class="st1" d="M123.4,529.9c-0.2-8.5,6.4-14.7,14.4-14.8c0,0,2.5-0.5,6.3,0.8"/>
			</g>
		</g>
	</g>
	<path class="st2" d="M451.6,507.2l-0.1,2.4c0,0-2.7,1.2-5.4,3.4c-3.2,2.6-4.6,6.1-4.6,6.1l-0.7,2.1l0.8-15.7c0,0,1.2,0.8,4.3,1.3
		S451.6,507.2,451.6,507.2z"/>
	<path class="st1" d="M446.2,518c0,0,4.6,5.6,4.9,6.5c0.2,0.5-0.2,2-1.3,2.1s-7-1.8-7-1.8"/>
	<path class="st1" d="M442.5,528c0,0,6.8,0.2,7.2,0.5c0.4,0.3,0.7,0.7,0,1.6c-0.7,0.9-5.2,3.9-5.2,3.9"/>
	<path class="st1" d="M445.6,536c0,0,5.4-4.2,5.9-4.1s0.9,0.1,0.9,1.3c0,1.2-1.8,6.2-1.8,6.2"/>
	<path class="st1" d="M460.4,538c0,0-4.3-5.6-4.8-5.7c-0.5-0.1-0.9-0.2-1.2,1c-0.3,1.2,0.3,6.8,0.3,6.8"/>
	<path class="st0" d="M395,382l13.7,1c0,0-0.5,1.8,0.8,1.9c1.4,0.1,5,0.5,5,0.5s0,2,4.9,2.3c5,0.3,5.6,0.3,5.6,0.3s1.4-0.6,1.4-1.5
		c0.1-0.9,0.9,0.2,1-0.9c0.1-1.1,1.1-14.7,1.1-14.7s-0.5-1.7-1.3-2c-0.7-0.3-0.8-3.6-0.8-3.6l1.8-0.1c0,0,0.7-0.1,1.1-1.1
		s9.9-70,9.9-70l3.2-10.7l1.1-4l9.6,0.8c0.8,0.1,1.6-0.1,2.3-0.6c0.8-0.6,1.4-1.1,1.8-1.6c0.6-0.6,0.9-1.4,0.9-2.2l0.1-1.1
		c0-0.5-0.1-1-0.3-1.5v0c-0.5-1.2-1.2-2.3-2.1-3.3c-1-1.1-2.5-2.5-4.3-3.5c-3.5-2.1-9.3-2.4-9.3-2.4L432,263l-18-1.9
		c0,0-2.7,0.1-3.5,1.1c-0.8,1-0.9,4.4-0.9,4.4s2,4,7.1,7.4l8.5,3.9l-0.1,13.8l-9.1,71c0,0,0.4,0.9,1.8,1.3l1.4,0.4l-1.6,3.2
		c0,0-1.4,0.1-1.7,1.1s-1.6,7.9-1.6,7.9l-4-0.3c0,0-1.1,0.5-1.3,0.8s-0.6,0.3-0.6,0.3l-9.5-0.7L395,382z"/>
	<path class="st0" d="M198.1,381.8h-13.7c0,0,0.4,1.8-1,1.8c-1.4,0-5.1,0.1-5.1,0.1s-0.1,2-5.1,2c-5,0-5.6-0.1-5.6-0.1
		s-1.3-0.7-1.3-1.6s-0.9,0.2-0.9-0.9c0-1.1,0-14.8,0-14.8s0.7-1.6,1.4-1.9c0.8-0.3,1.1-3.5,1.1-3.5l-1.8-0.3c0,0-0.7-0.2-1-1.1
		c-0.3-1-4.9-70.5-4.9-70.5l-2.4-10.9l-0.8-4.1l-9.7,0.1c-0.8,0-1.6-0.2-2.2-0.7c-0.7-0.6-1.3-1.2-1.7-1.7c-0.5-0.6-0.8-1.4-0.7-2.2
		l0-1.1c0-0.5,0.1-1,0.4-1.5l0,0c0.6-1.2,1.4-2.2,2.3-3.1c1.1-1,2.7-2.3,4.6-3.2c3.7-1.8,9.4-1.7,9.4-1.7l10.3-0.4l18-0.6
		c0,0,2.7,0.3,3.4,1.3s0.6,4.4,0.6,4.4s-2.2,3.8-7.7,6.8l-8.7,3.2l-0.9,13.8l4,71.5c0,0-0.5,0.9-1.8,1.2l-1.4,0.3l1.3,3.3
		c0,0,1.4,0.2,1.6,1.3c0.3,1.1,1,8,1,8h4c0,0,1.1,0.6,1.3,0.9c0.2,0.4,0.5,0.4,0.5,0.4h9.5L198.1,381.8z"/>
	<path class="st120" d="M340.3,22c6.8,6.4,11.4,17,16.1,31.5c0,0,5.9,17.4,11.8,27.5v0c0.6,1,1.2,2,1.8,2.8c1.5,2.1,3.4,4.2,5.4,6.3
		c0.1,0.1,0.2,0.2,0.2,0.2c0.1,0.1,0.2,0.2,0.2,0.2c7,7,15.5,13.1,15.5,13.1s32.9,20.7,6.1,62.2c0,0-0.3,0.5-0.7,1.4
		c-1.7,3.6-6,14.5-7.8,33.4c0,0,0,0,0,0c-0.5,5.6-0.8,11.8-0.8,18.8c0,0,0,0.1,0,0.1c0,1.4,0,2.7,0.1,4.2c0,0,0.2,3.3,0.5,8.1
		c0,0,0,0,0,0.1c0,0,0,0,0,0c0,0,0,0,0,0c0.6,10.7,1.6,28.7,1.9,32.8c0.4,6.1,4.4,17.8,1.5,31.4s-6.5,17-15.3,27c0,0,0.2,1.6-12.9,0
		c-0.2,0-0.5-0.1-0.8-0.1c-0.1,0-0.2,0-0.2,0c0,0,0,0-0.1,0c-8.4-0.7-39-0.7-68.8-0.5c-0.6,0-0.9,0-0.9,0s-1.1,0-3,0
		c-26.1,0.2-50.6,0.4-57.9,0.5c0,0,0,0-0.1,0c-1.4,0-2.1,0-2.1,0s-0.1,0.1-0.4,0.1c0,0,0,0,0,0h0h0c-0.1,0-0.1,0-0.2,0.1
		c0,0,0,0,0,0c-0.1,0-0.2,0.1-0.2,0.1c-2,0.6-7,1.7-10.8,0.4c-4.9-1.6-19.6-11.7-19.7-41.6c-0.1-29.9,3.2-51.1,3.2-51.1
		s2.3-12.4,1-27c0,0,0,0,0-0.1c-0.4-4.9-1.2-10-2.7-15c-1.1-3.7-2.1-7.1-3.1-10.1c0,0,0,0,0,0c-1.1-3.4-2.2-6.4-3.1-9c0,0,0,0,0,0
		c-2.8-7.5-4.8-11.8-5.3-13.5c-0.8-2.8-4-12-2.7-23.6c1.1-9.1,9.1-21.1,15.8-27.9c0,0,0,0,0.1,0c0,0,0,0,0.1-0.1
		c1.8-1.9,3.5-3.3,5-4.2c0,0,0.6-0.5,1.7-1.5c0.1-0.1,0.1-0.1,0.2-0.2c1.8-1.6,4.6-4.2,7.7-7.6c0.2-0.3,0.5-0.6,0.7-0.9
		c2.1-2.4,4.3-5.1,6.3-8.2c0,0,0-0.1,0.1-0.1c4.2-6.3,7.9-13.8,9-21.8c1.6-11.1,8.1-24.7,18.5-35.5c7.9-9.8,21.4-15,21.4-15
		c6.3-2.6,13.6-2.7,21-2.8c14.9-0.1,17.8,0.4,25.4,2.6C318.9,9.8,328.8,11.2,340.3,22z"/>
	<path class="st120" d="M293.1,322.7c0,0-63.1,0.6-63.8,0.8c-0.7,0.2-0.6,0.2-4.5,3.9s-7.5,0.8-10.9,2.5c-3.4,1.7-7.4,7.5-8.5,14.5
		c-1.1,7,0,30.9,0,30.9s-1.4,16.1,22.2,14.6c23.7-1.5,72,0.1,72,0.1s41.2-0.5,64.8,0.9s22.2-14.6,22.2-14.6s1.1-23.9,0-30.9
		c-1.1-7-5.2-12.9-8.5-14.5c-3.4-1.7-7,1.2-10.9-2.5c-3.9-3.8-3.6-5-4.3-5.2C362.4,323,293.1,322.7,293.1,322.7z"/>
	<path class="st120" d="M381.7,387.9c0,0,7.4,2,12.2-4.4c4.7-6.4,13.5-18.1,17.5-32.6c3.9-14.2,4.7-20.3,3.4-27.2
		c0-0.2-0.1-0.4-0.1-0.6c0-1-0.3-4.5-1.6-6.6c-1.1-1.8-2.2-2.5-4-3.2c-1.4-0.5-3-0.6-4.5-0.2c-0.1,0-0.2,0.1-0.4,0.1
		c0,0,3,0.6,4.3,2.1c1.3,1.5,3.8,4.7,1.9,13.6c-1.9,9-8.4,23.1-17.5,39.6c0,0-4.4,8.2-5.7,9.6C387.3,378.1,386.6,384.2,381.7,387.9z
		"/>
	<path class="st120" d="M368.7,328.5c0,0,3.3-4.2,12.5-2.8c0,0,5.7-3.5,9.2-7c3.5-3.5,8.8-5.6,11.7-5.4s10.7,1.3,8.8,14
		c-2,12.7-13.6,33.3-13.6,33.3l-9.9,17.5c0,0,0.8-22.7,0.4-26.9c-0.4-4.2-0.4-13.5-8-19.7c0,0-0.9-1-5.1-1.1
		C369.9,330.3,368.7,328.5,368.7,328.5z"/>
	<path class="st0" d="M210.8,386.3c0,0-7.4,2-12.2-4.4s-13.5-18.1-17.5-32.6c-3.9-14.2-4.7-20.3-3.4-27.2c0-0.2,0.1-0.4,0.1-0.6
		c0-1,0.3-4.5,1.6-6.6c1.1-1.8,2.2-2.5,4-3.2c1.4-0.5,3-0.6,4.5-0.2c0.1,0,0.2,0.1,0.4,0.1c0,0-3,0.6-4.3,2.1
		c-1.3,1.5-3.8,4.7-1.9,13.6c1.9,9,8.4,23.1,17.5,39.6c0,0,4.4,8.2,5.7,9.6C205.2,376.4,205.9,382.5,210.8,386.3z"/>
	<path class="st120" d="M223.8,326.8c0,0-3.3-4.2-12.5-2.8c0,0-5.7-3.5-9.2-7s-8.8-5.6-11.7-5.4s-10.7,1.3-8.8,14
		c2,12.7,13.6,33.3,13.6,33.3l9.9,17.5c0,0-0.8-22.7-0.4-26.9c0.4-4.2,0.4-13.5,8-19.7c0,0,0.9-1,5.1-1.1
		C222.6,328.6,223.8,326.8,223.8,326.8z"/>
	<g id="Almofada_lombar_1_">
		<path class="st17" d="M236.1,246.1c0,0,8.1-0.7,18.8,0c10.7,0.7,79,0.6,81.3,0c2.3-0.6,16.1-0.4,19.6-0.4c3.5,0,7.1,11.7,7.8,22.4
			c0.6,10.7,0.4,40.9-5.8,46.5c-6.2,5.6-49.7,3.6-49.7,3.6l-20.7-0.3c0,0-50.2-0.8-55-3.7s-6.1-30.3-6.1-30.3s-1.3-21.9,2.3-29.8
			C232,246.1,236.1,246.1,236.1,246.1z"/>
	</g>
	<g id="Meanismo_1_">
		<polyline class="st0" points="200.6,403.2 210.1,390.3 212.1,390.6 		"/>
		<path class="st20" d="M216.3,389.4l-1.2,2.3c0,0,1,0.5,1.2,1.2c0.1,0.7,0.2,7-0.8,13.7c-1,6.7-2.8,6.5-5.4,6.3c0,0-0.9-0.6-3-0.5
			c-2.1,0.1-3.1-1.3-3.1-1.3s-1-1.1-2.5-1.5c-1.5-0.4-2-2.9-2-2.9s-0.8-2,3.4-6.4l7.1-8.4c0,0,0.2-1.4,0.5-1.4
			c0.2,0,1.8,0.2,1.8,0.2l1.2-2.7C213.4,387.9,213.2,388.4,216.3,389.4z"/>
		<path class="st20" d="M211.2,393.3c-0.4-0.1-0.7,0-1,0.3l-8.1,10.2c0,0-2.1,2.5,0.8,4.2c0,0,0.7,0.4,1.4,0.9c0.7,0.5,1,1,1,1
			s0.1,0.3,1.4,0.5s3,0.7,3.5,0.9c0.5,0.3,2.3-0.3,2.5-0.6c0.2-0.3,0.7-0.7,1.2-5.1c0.4-3.7,0.8-8.8,0.9-10.2c0-0.4-0.1-0.7-0.4-0.9
			c-0.1-0.1-0.3-0.2-0.5-0.3C213.3,394.1,212.2,393.6,211.2,393.3z"/>
		<path class="st20" d="M214.5,399.4c-0.1,1.6-1.3,2.4-1.3,2.4s-1.7,1.7-4.5,0.6c-1.4-0.5-1.9-1.6-2-2.5c-0.1-0.8,0.1-1.6,0.5-2.3
			l0.4-0.7"/>
		<path class="st20" d="M212.2,391c0,0-0.5,1.3,0.5,1.6c1,0.3,1.6,0.6,2.3-0.3"/>
	</g>
	<polygon class="st21" points="198.1,381.8 180.9,381.8 180.9,379.9 196.8,380 	"/>
	<path class="st21" d="M184.6,376.3h9.9l2.3,3.5h-15.3c0,0,2.3-0.8,2.9-1.8C185,377.2,184.6,376.3,184.6,376.3z"/>
	<path class="st21" d="M180.9,379.9c4.7-1.4,3.8-2.8,3.6-3.5c-0.1-0.7-1.4-1.3-1.4-1.3h-4c0,0,1,2.2-3.7,3.5l-1.7,0.7l6.8-0.1
		L180.9,379.9z"/>
	<path class="st21" d="M180.5,379.1c0,0,3.2-0.9,3.8-3.3"/>
	<path class="st21" d="M184.3,381.8c0,0,0.5,1.3-0.3,1.8l-3.2,0.1c0,0-0.4,0.1-2.3,0.1c0,0-0.9,1.8-3.3,1.9c-2.4,0.1-7.5,0-7.5,0
		s-1.2-0.8-1.3-1.6l10.3,0l1.7-0.3"/>
	<path class="st21" d="M166.3,369.3v14.8c0,0-0.3,0.1-0.9-0.9v-14v-0.6C165.3,368.6,165.7,369.2,166.3,369.3z"/>
	<path class="st21" d="M179.2,375l-0.8-7.9l-0.2-0.2c0,0,0,1.7-3,2.3s-8,0.4-9,0c0,0-0.8-0.4-0.8-1c0,0,0.5-1.1,1.8-1.6
		c0,0-0.4,1.4,0.3,1.8c0.7,0.4,1.5,0.3,1.5,0.3l4.3-0.2c0.6,0,1.3-0.2,1.9-0.4c0.7-0.3,1.4-0.8,1.5-1.5c0,0,0.1-0.5-0.1-0.7
		c0,0,1.1,0,1.7,1.1"/>
	<path class="st17" d="M191.7,265.6c0,0-11.2,5.8-12.7,6.3c-1.5,0.4-36.2,0.9-36.2,0.9"/>
	<path class="st17" d="M190.5,260.6l-13,5.6c-0.7,0.3-1.4,0.5-2.1,0.5l-31.4,0.8"/>
	<g id="Braço_direito_1_">
		<path class="st21" d="M409.7,266.5c0,0,16.8,9,18.3,9.4c2.9,0.8,30.3,0.8,30.3,0.8"/>
		<path class="st21" d="M410.6,262.2l14.3,7.5c0.7,0.3,3.9,1,4.7,1l28.2,1.7"/>
		<polygon class="st21" points="395.1,382.5 412.2,383.6 412.3,381.7 396.4,380.8 		"/>
		<path class="st21" d="M408.9,377.9l-9.9-0.7l-2.5,3.4l15.8,1.1c0,0-2.7-1-3.3-2C408.4,378.7,408.9,377.9,408.9,377.9z"/>
		<path class="st21" d="M412.3,381.7c-4.6-1.8-3.6-3.1-3.4-3.8s1.5-1.2,1.5-1.2l4,0.3c0,0-1.2,2.1,3.5,3.7l1.6,0.8l-6.8-0.6
			L412.3,381.7z"/>
		<path class="st21" d="M412.8,381c0,0-3.1-1.1-3.6-3.5"/>
		<path class="st21" d="M408.8,383.4c0,0-0.5,1.2,0.2,1.8l3.2,0.3c0,0,0.4,0.1,2.3,0.2c0,0,0.8,1.8,3.2,2.1s7.5,0.5,7.5,0.5
			s1.2-0.7,1.4-1.5l-10.3-0.7l-1.7-0.4"/>
		<path class="st21" d="M427.9,372l-1.3,14.8c0,0,0.3,0.2,1-1.4l0.9-14l0-0.5C428.7,371,428.5,372,427.9,372z"/>
		<path class="st21" d="M414.4,377l1.4-7.8l0.2-0.2c0,0-0.1,1.7,2.9,2.5c3,0.8,7.9,1,9,0.6"/>
		<path class="st21" d="M428.7,371.1c0,0-0.4-1.1-1.7-1.7c0,0,0.3,1.4-0.4,1.8c-0.7,0.4-1.5,0.2-1.5,0.2l-4.3-0.5
			c-0.6-0.1-1.3-0.3-1.8-0.6c-0.6-0.3-1.3-0.9-1.4-1.6c0,0,0-0.5,0.2-0.7c0,0-1.1-0.1-1.7,1"/>
		<polyline class="st21" points="443.6,279.5 429.5,278.6 428.3,293.6 420,364.4 421.4,364.8 418.5,364 		"/>
	</g>
	<polyline class="st17" points="156.9,276.1 170.8,275.8 171.1,290.9 175.1,362.5 173.7,362.8 176.6,362.2 	"/>
	<line class="st22" x1="425.1" y1="277.6" x2="429.5" y2="278.6"/>
</g>
<g>
	<g>
		<line class="st121" x1="187.8" y1="133.7" x2="405.3" y2="133.7"/>
	</g>
	<line class="st122" x1="185.9" y1="139.4" x2="185.9" y2="128.4"/>
	<polygon class="st40" points="186.2,133.9 196.3,139.4 196.3,128.4 	"/>
	<line class="st122" x1="408" y1="138.6" x2="408" y2="127.7"/>
	<polygon class="st40" points="407.7,133.1 397.6,138.6 397.6,127.7 	"/>
</g>
<g>
	<line class="st86" x1="189.9" y1="239.1" x2="407.7" y2="239.1"/>
	<line class="st87" x1="187.5" y1="264.4" x2="187.5" y2="235.8"/>
	<polygon class="st40" points="187.8,239.4 197.7,244.9 197.7,233.9 	"/>
	<polyline class="st87" points="415.3,246.3 415.3,232.5 415.3,236.2 415.3,264.8 	"/>
	<polygon class="st40" points="415,238 405.1,243.5 405.1,232.5 	"/>
</g>
<g>
	<line class="st88" x1="207" y1="285.9" x2="392.3" y2="285.9"/>
	<line class="st89" x1="198.7" y1="291.4" x2="198.7" y2="280.4"/>
	<polygon class="st40" points="199,285.9 208.7,291.4 208.7,280.4 	"/>
	<polyline class="st90" points="393,285.1 393,280.4 393,281.7 393,291.4 	"/>
	<polygon class="st40" points="393.7,285.9 383.9,291.4 383.9,280.4 	"/>
</g>
<g>
	<line class="st91" x1="183.3" y1="320.5" x2="412.5" y2="320.5"/>
	<line class="st92" x1="178.8" y1="326" x2="178.8" y2="315"/>
	<polygon class="st40" points="178.8,320.5 189.2,326 189.2,315 	"/>
	<polyline class="st93" points="414.2,319.7 414.2,315 414.2,316.3 414.2,326 	"/>
	<polygon class="st40" points="414.2,320.5 403.8,326 403.8,315 	"/>
</g>
<g>
	<g>
		<line class="st94" x1="210.9" y1="348.4" x2="375" y2="348.4"/>
	</g>
	<polygon class="st40" points="206,348.4 218.5,353.8 218.5,342.9 	"/>
	<line class="st95" x1="386.9" y1="353.8" x2="386.9" y2="342.9"/>
	<line class="st95" x1="205.4" y1="353.8" x2="205.4" y2="342.8"/>
	<polygon class="st40" points="386.4,348.4 372.9,353.8 372.9,342.9 	"/>
</g>
<g>
	<rect x="283.1" y="231.8" class="st5" width="34" height="12.5"/>
	<text transform="matrix(1 0 0 1 284.4297 242.0005)" class="st40 st123 st124">53cm</text>
</g>
<rect x="278.9" y="315.4" class="st5" width="36.7" height="14.1"/>
<rect x="284.4" y="341.3" class="st5" width="35.1" height="14.1"/>
<text transform="matrix(0.9441 0 0 1 281.7891 325.9599)" class="st40 st123 st124">54cm</text>
<text transform="matrix(0.9441 0 0 1 286.9571 352.0849)" class="st40 st123 st124">40cm</text>
<rect x="282.4" y="278" class="st5" width="35" height="14.1"/>
<text transform="matrix(0.9441 0 0 1 284.751 288.9228)" class="st40 st123 st124">49cm</text>
<rect x="279.9" y="123" class="st5" width="33.5" height="13.8"/>
<text transform="matrix(1 0 0 1 282.4874 136.0337)" class="st40 st123 st124">57cm</text>
<g>
	<g id="linhas_meio_3_">
		<polyline class="st17" points="253.3,229.4 294.6,209.8 342.6,228.9 		"/>
		<polyline class="st17" points="248.2,193.3 294.6,171.3 347.6,193.5 		"/>
		<polyline class="st17" points="242.9,155.8 294.2,134.1 352.8,156.5 		"/>
	</g>
	<path class="st16" d="M248.5,93.5L248.5,93.5l-2.9,6.5c-1.5,3.4-2.1,6.7,0,10c0.3,0.5,0.7,1,1.2,1.4"/>
	<path class="st16" d="M338,76.8c0.5,1,0.7,1.7,0.7,1.7l9.6,21.4c1.5,3.4,2.1,6.7,0,10c-2.1,3.3-6.3,3.8-6.3,3.8s-0.9,0-2.2-0.1"/>
	<path class="st16" d="M255.6,246.2c-0.1,0-0.2,0-0.2,0c-2.7-0.2-5.3-0.3-7.7-0.3L232.5,146l-2.4-0.4l-4.3-0.7
		c0,0-17-15.7-36.2-21.1l4.1-8.9l0,0c0,0,14.7,3.5,36.3,21.7l10.7,3.7l2.2,15.6l5.3,37.5l5.1,36.1l0.7,5.1L255.6,246.2z"/>
	<polyline class="st16" points="230.1,145.6 230.1,176 231.5,206.8 231.5,243.6 231.5,249.7 	"/>
	<path class="st17" d="M230.1,136.5c0,0,1.2-23.2,1.4-25.3c0.2-2.1,1.3-17.2,1-18.7c-0.2-1.5-2.2-11.7-5-16.9"/>
	<path class="st16" d="M348.1,246l0-0.2l15.3-100.3l2.4-0.4l4.3-0.7c0,0,17.3-14.7,36.1-20.4c0,0-4.4-9.7-4.4-9.7
		c-0.6,0.1-14.5,3.6-36.1,21.7l-10.7,3.7l-2.4,16.9l-5.2,36.9l-5,35.5l-0.7,5l-1.7,11.9"/>
	<polyline class="st16" points="361.7,323.2 361.7,312.2 364.4,275.2 364.4,243.1 364.4,206.2 365.8,175.4 365.8,145.1 	"/>
	<path class="st17" d="M365.8,136c0,0-1.2-23.2-1.4-25.3s-1.3-17.2-1-18.7c0.2-1.5,0.6-8.2,3.4-13.4"/>
	<path class="st125" d="M254.1,388.4c0,0-6.1-10.5-7.3-15.9s-4.4-24.4-4.4-24.4s-1.9-12.2-8-14.5c-6.1-2.2-12.6-3.7-12.6-3.7
		l5.1-3.5c0,0,7.4,2.4,11,3.2c3.6,0.8,9.4,3.1,11.3,10.1c1.9,7,4.4,14.4,7.3,28c2.9,13.6,4.5,16.5,6.1,19.4c0.6,1.2,1,1.3,1,1.3
		H254.1z"/>
	<path class="st17" d="M337.1,389.2c0,0,6.1-10.7,7.3-16.3c1.3-5.6,4.4-25,4.4-25s1.9-12.6,8-14.9c6.1-2.3,12.6-3.8,12.6-3.8
		l-5.1-3.6c0,0-7.4,2.4-11,3.3c-3.6,0.8-9.4,3.1-11.3,10.4c-1.9,7.2-4.4,14.8-7.3,28.7s-4.5,17-6.1,19.9c-0.6,1.2-1,1.4-1,1.4H337.1
		z"/>
	<g id="Almofada_cabeça_4_">
		<path class="st17" d="M310.2,67.7c-9.1,1.1-15.7,0.8-15.7,0.8l-3,0.1c0,0-2.5,0.1-6.7-0.1c0,0,0,0,0,0c-2.9-0.1-6.6-0.4-10.7-1
			c-4.2-0.6-8.8-1.4-13.6-2.7c-3.4-0.9-6.8-2-10.1-3.5c0,0-8.4-3.8-2.9,10.1c0,0,1.7,7.7,1,22v0c-0.2,4.7-0.7,10.2-1.5,16.4
			c0,0-0.1,0.6-0.2,1.5c-0.2,1.3-0.4,3.2-0.5,4.2c-0.1,1.8-2.9,8.4,8,4.2c3-1.1,7.1-2.2,11.6-3.1c2.2-0.4,4.4-0.8,6.6-1.2
			c9.8-1.6,19.1-2.5,19.1-2.5l3-0.1c0,0,8,0.8,17,2.1c2.1,0.3,4.3,0.7,6.4,1.1c5.3,1,10.4,2.1,13.9,3.5c10.9,4.2,8.1-2.4,8-4.2
			c0-0.5-0.1-1.1-0.2-1.8c-0.2-1.8-0.5-4-0.5-4c-0.1-0.6-0.2-1.1-0.2-1.7c-0.9-7-1.3-13.1-1.4-18.2c-0.1-5.6,0.1-9.9,0.4-13
			c0.3-3.6,0.7-5.4,0.7-5.4c5.4-13.8-2.9-10.1-2.9-10.1c-2.2,0.9-4.5,1.8-6.8,2.5c-1.9,0.6-3.8,1.1-5.7,1.6c-2.3,0.6-4.6,1-6.8,1.4
			L310.2,67.7z"/>
		<path class="st17" d="M260.5,64.9c0,0,3.3,30.4,12,50.7"/>
		<path class="st17" d="M254.5,63.6c0,0,2.7,32.9,11.3,53.2"/>
		<path class="st17" d="M314.7,115.6c8.6-20.3,12-50.7,12-50.7"/>
		<path class="st17" d="M332.9,63.1c0,0-2.7,32.9-11.3,53.2"/>
	</g>
	<path class="st17" d="M239.5,246.9l2.4,19l5.3,20.7c0,0,3.2,12.9,6.1,20c2.9,7.1,3.7,10.1,5.1,10.3c1.4,0.2,8.2,0.5,8.2,0.5
		s-5.7-9.4-9.2-25.4c-3.5-15.9-10.2-45.1-10.2-45.1H239.5z"/>
	<path class="st17" d="M336.5,246.9c0,0,0.4,6.3-3.3,27.1s-5.9,37.8-11.8,44.2l10.2,0.3c0,0,5.6-14.8,7.4-22.6s7.7-37.9,7-49.9
		L336.5,246.9z"/>
</g>
<g>
	<g>
		<line class="st85" x1="231" y1="189.7" x2="359.8" y2="189.7"/>
	</g>
	<polygon class="st40" points="229.7,189.7 240.6,195.2 240.6,184.2 	"/>
	<line class="st85" x1="362.2" y1="195.2" x2="362.2" y2="184.2"/>
	<line class="st85" x1="229.2" y1="195.1" x2="229.2" y2="184.2"/>
	<polygon class="st40" points="361.9,189.7 351,195.2 351,184.2 	"/>
</g>
<g>
	<polygon class="st5" points="315.3,194.8 280.4,195.2 280.4,182.6 315.3,184.8 	"/>
	<text transform="matrix(1 0 0 1 281.7891 192.5488)" class="st40 st123 st124">32cm</text>
</g>
</svg>
