<?xml version="1.0" encoding="utf-8"?>
<!-- Generator: Adobe Illustrator 23.0.1, SVG Export Plug-In . SVG Version: 6.00 Build 0)  -->
<svg version="1.1" id="Camada_1" xmlns="http://www.w3.org/2000/svg" xmlns:xlink="http://www.w3.org/1999/xlink" x="0px" y="0px"
	 viewBox="0 0 600 600" style="enable-background:new 0 0 600 600;" xml:space="preserve">
<style type="text/css">
	.st0{fill:#FFFFFF;stroke:#1E1E1C;stroke-miterlimit:10;}
	.st1{fill:none;stroke:#1E1E1C;stroke-width:0.6333;stroke-miterlimit:10;}
	.st2{fill:#FFFFFF;stroke:#1E1E1C;stroke-width:1.2665;stroke-miterlimit:10;}
	.st3{fill:#FFFFFF;stroke:#1E1E1C;stroke-width:0.6333;stroke-miterlimit:10;}
	.st4{fill:none;stroke:#1E1E1C;stroke-width:0.9721;stroke-miterlimit:10;}
	.st5{fill:#FFFFFF;}
	.st6{fill:none;stroke:#1E1E1C;stroke-width:0.9881;stroke-miterlimit:10;}
	.st7{fill:none;stroke:#1E1E1C;stroke-width:1.2665;stroke-miterlimit:10;}
	.st8{fill:#FFFFFF;stroke:#1E1E1C;stroke-width:0.9721;stroke-miterlimit:10;}
	.st9{fill:#FFFFFF;stroke:#1E1E1C;stroke-width:0.9091;stroke-miterlimit:10;}
	.st10{fill:#FFFFFF;stroke:#1E1E1C;stroke-width:0.5889;stroke-miterlimit:10;}
	.st11{fill:#FFFFFF;stroke:#1E1E1C;stroke-width:1.019;stroke-miterlimit:10;}
	.st12{fill:#FFFFFF;stroke:#1E1E1C;stroke-width:0.953;stroke-miterlimit:10;}
	.st13{fill:#FFFFFF;stroke:#1E1E1C;stroke-width:0.6639;stroke-miterlimit:10;}
	.st14{fill:#FFFFFF;stroke:#1E1E1C;stroke-width:0.6174;stroke-miterlimit:10;}
	.st15{fill:#FFFFFF;stroke:#1E1E1C;stroke-width:1.3277;stroke-miterlimit:10;}
	.st16{fill:none;stroke:#1E1E1C;stroke-width:0.75;stroke-miterlimit:10;}
	.st17{fill:none;stroke:#1E1E1C;stroke-miterlimit:10;}
	.st18{fill:none;stroke:#1E1E1C;stroke-width:1.3977;stroke-miterlimit:10;}
	.st19{fill:none;stroke:#1E1E1C;stroke-width:2;stroke-miterlimit:10;}
	.st20{fill:#FFFFFF;stroke:#1E1E1C;stroke-width:0.5;stroke-miterlimit:10;}
	.st21{fill:none;stroke:#1E1E1C;stroke-width:0.5;stroke-miterlimit:10;}
	.st22{fill:none;stroke:#1E1E1C;stroke-width:1.0033;stroke-miterlimit:10;}
	.st23{fill:#FFFFFF;stroke:#020203;stroke-width:0.75;stroke-miterlimit:10;}
	.st24{fill:none;stroke:#020203;stroke-miterlimit:10;}
	.st25{fill:#FFFFFF;stroke:#020203;stroke-miterlimit:10;}
	.st26{fill:none;stroke:#020203;stroke-width:0.5;stroke-miterlimit:10;}
	.st27{fill:#FFFFFF;stroke:#020203;stroke-linejoin:round;}
	.st28{fill:none;stroke:#020203;stroke-linejoin:round;}
	.st29{fill:none;stroke:#020203;stroke-width:0.75;stroke-miterlimit:10;}
	.st30{fill:none;stroke:#020203;stroke-width:0.25;stroke-miterlimit:10;}
	.st31{fill:none;stroke:#E52624;stroke-width:1.5;stroke-miterlimit:10;}
	.st32{fill:#E52624;}
	.st33{fill:#FFFFFF;stroke:#020203;stroke-width:0.5;stroke-miterlimit:10;}
	.st34{fill:none;stroke:#E52522;stroke-width:1.5;stroke-miterlimit:10;}
	.st35{fill:#E52522;}
	.st36{fill:#E7E6E6;}
	.st37{fill:none;stroke:#E20D18;stroke-width:2;stroke-miterlimit:10;}
	.st38{fill:none;stroke:#E20D18;stroke-width:1.8;stroke-miterlimit:10;}
	.st39{fill:none;stroke:#E20D18;stroke-width:1.62;stroke-miterlimit:10;}
	.st40{fill:#E20D18;}
	.st41{fill:none;stroke:#E20D18;stroke-width:1.54;stroke-miterlimit:10;}
	.st42{fill:none;stroke:#E20D18;stroke-width:1.74;stroke-miterlimit:10;}
	.st43{fill:none;stroke:#E20D18;stroke-width:1.55;stroke-miterlimit:10;}
	.st44{fill:none;stroke:#E20D18;stroke-width:1.56;stroke-miterlimit:10;}
	.st45{fill:none;stroke:#E20D18;stroke-width:1.53;stroke-miterlimit:10;}
	.st46{fill:none;stroke:#E20D18;stroke-width:1.58;stroke-miterlimit:10;}
	.st47{fill:none;stroke:#E20D18;stroke-width:1.69;stroke-miterlimit:10;}
	.st48{fill:none;stroke:#E20D18;stroke-width:1.43;stroke-miterlimit:10;}
	.st49{fill:none;stroke:#E20D18;stroke-width:1.48;stroke-miterlimit:10;}
	.st50{fill:none;stroke:#E20D18;stroke-width:1.67;stroke-miterlimit:10;}
	.st51{fill:none;stroke:#E20D18;stroke-width:1.65;stroke-miterlimit:10;}
	.st52{fill:#FFFFFF;stroke:#020203;stroke-width:3;stroke-miterlimit:10;}
	.st53{fill:none;stroke:#E20D18;stroke-width:1.41;stroke-miterlimit:10;}
	.st54{fill:none;stroke:#E20D18;stroke-width:1.59;stroke-miterlimit:10;}
	.st55{fill:none;stroke:#1E1E1C;stroke-width:1.05;stroke-miterlimit:10;}
	.st56{fill:none;stroke:#1E1E1C;stroke-width:0.52;stroke-miterlimit:10;}
	.st57{fill:none;stroke:#1E1E1C;stroke-width:0.8;stroke-miterlimit:10;}
	.st58{fill:none;stroke:#1E1E1C;stroke-width:0.49;stroke-miterlimit:10;}
	.st59{fill:none;stroke:#1E1E1C;stroke-width:0.84;stroke-miterlimit:10;}
	.st60{fill:none;stroke:#1E1E1C;stroke-width:0.79;stroke-miterlimit:10;}
	.st61{fill:none;stroke:#1E1E1C;stroke-width:0.55;stroke-miterlimit:10;}
	.st62{fill:none;stroke:#1E1E1C;stroke-width:0.51;stroke-miterlimit:10;}
	.st63{fill:none;stroke:#1E1E1C;stroke-width:1.1;stroke-miterlimit:10;}
	.st64{fill:none;stroke:#1E1E1C;stroke-width:0.25;stroke-miterlimit:10;}
	.st65{fill:none;stroke:#1E1E1C;stroke-width:1.07;stroke-miterlimit:10;}
	.st66{fill:none;stroke:#1E1E1C;stroke-width:0.94;stroke-miterlimit:10;}
	.st67{fill:none;stroke:#1E1E1C;stroke-width:0.56;stroke-miterlimit:10;}
	.st68{fill:none;stroke:#E20D18;stroke-width:1.5;stroke-miterlimit:10;}
	.st69{fill:none;stroke:#E20D18;stroke-width:1.49;stroke-miterlimit:10;}
	.st70{fill:none;stroke:#E20D18;stroke-miterlimit:10;}
	.st71{fill:none;stroke:#1E1E1C;stroke-width:0.78;stroke-miterlimit:10;}
	.st72{fill:none;stroke:#1E1E1C;stroke-width:1.08;stroke-miterlimit:10;}
	.st73{fill:none;stroke:#1E1E1C;stroke-width:0.54;stroke-miterlimit:10;}
	.st74{fill:none;stroke:#1E1E1C;stroke-width:0.83;stroke-miterlimit:10;}
	.st75{fill:none;stroke:#1E1E1C;stroke-width:0.77;stroke-miterlimit:10;}
	.st76{fill:none;stroke:#1E1E1C;stroke-width:0.87;stroke-miterlimit:10;}
	.st77{fill:none;stroke:#1E1E1C;stroke-width:0.81;stroke-miterlimit:10;}
	.st78{fill:none;stroke:#1E1E1C;stroke-width:1.13;stroke-miterlimit:10;}
	.st79{fill:none;stroke:#1E1E1C;stroke-width:0.21;stroke-miterlimit:10;}
	.st80{fill:#FFFFFF;stroke:#1E1E1C;stroke-width:0.84;stroke-miterlimit:10;}
	.st81{fill:none;stroke:#1E1E1C;stroke-width:0.42;stroke-miterlimit:10;}
	.st82{fill:none;stroke:#1E1E1C;stroke-width:0.24;stroke-miterlimit:10;}
	.st83{fill:none;stroke:#E20D18;stroke-width:1.6;stroke-miterlimit:10;}
	.st84{fill:none;stroke:#E20D18;stroke-width:1.64;stroke-miterlimit:10;}
	.st85{fill:none;stroke:#E20D18;stroke-width:1.484;stroke-miterlimit:10;}
	.st86{fill:none;stroke:#E20D18;stroke-width:1.4075;stroke-miterlimit:10;}
	.st87{fill:none;stroke:#E20D18;stroke-width:1.5853;stroke-miterlimit:10;}
	.st88{fill:none;stroke:#E20D18;stroke-width:1.2981;stroke-miterlimit:10;}
	.st89{fill:none;stroke:#E20D18;stroke-width:0.9733;stroke-miterlimit:10;}
	.st90{fill:none;stroke:#E20D18;stroke-width:0.9159;stroke-miterlimit:10;}
	.st91{fill:none;stroke:#E20D18;stroke-width:1.4439;stroke-miterlimit:10;}
	.st92{fill:none;stroke:#E20D18;stroke-width:1.0062;stroke-miterlimit:10;}
	.st93{fill:none;stroke:#E20D18;stroke-width:0.9468;stroke-miterlimit:10;}
	.st94{fill:none;stroke:#E20D18;stroke-width:1.6749;stroke-miterlimit:10;}
	.st95{fill:none;stroke:#E20D18;stroke-width:1.6513;stroke-miterlimit:10;}
	.st96{fill:#FFFFFF;stroke:#1E1E1C;stroke-width:0.8664;stroke-miterlimit:10;}
	.st97{fill:#FFFFFF;stroke:#1E1E1C;stroke-width:1.0973;stroke-miterlimit:10;}
	.st98{fill:none;stroke:#1E1E1C;stroke-width:1.0973;stroke-miterlimit:10;}
	.st99{fill:#FFFFFF;stroke:#1E1E1C;stroke-width:0.5487;stroke-miterlimit:10;}
	.st100{fill:none;stroke:#1E1E1C;stroke-width:0.8422;stroke-miterlimit:10;}
	.st101{fill:#FFFFFF;stroke:#1E1E1C;stroke-width:0.7877;stroke-miterlimit:10;}
	.st102{fill:#FFFFFF;stroke:#1E1E1C;stroke-width:0.5103;stroke-miterlimit:10;}
	.st103{fill:#FFFFFF;stroke:#1E1E1C;stroke-width:0.8422;stroke-miterlimit:10;}
	.st104{fill:none;stroke:#1E1E1C;stroke-width:0.8829;stroke-miterlimit:10;}
	.st105{fill:#FFFFFF;stroke:#1E1E1C;stroke-width:0.8257;stroke-miterlimit:10;}
	.st106{fill:#FFFFFF;stroke:#1E1E1C;stroke-width:0.5752;stroke-miterlimit:10;}
	.st107{fill:#FFFFFF;stroke:#1E1E1C;stroke-width:0.5349;stroke-miterlimit:10;}
	.st108{fill:#FFFFFF;stroke:#1E1E1C;stroke-width:1.1504;stroke-miterlimit:10;}
	.st109{fill:#FFFFFF;stroke:#1E1E1C;stroke-width:0.8829;stroke-miterlimit:10;}
	.st110{fill:none;stroke:#1E1E1C;stroke-width:0.5487;stroke-miterlimit:10;}
	.st111{fill:#FFFFFF;stroke:#1E1E1C;stroke-width:1.0441;stroke-miterlimit:10;}
	.st112{fill:none;stroke:#E20D18;stroke-width:1.5173;stroke-miterlimit:10;}
	.st113{fill:none;stroke:#E20D18;stroke-width:1.804;stroke-miterlimit:10;}
	.st114{fill:none;stroke:#E20D18;stroke-width:1.6153;stroke-miterlimit:10;}
	.st115{fill:none;stroke:#E20D18;stroke-width:1.578;stroke-miterlimit:10;}
	.st116{fill:none;stroke:#E20D18;stroke-width:1.6879;stroke-miterlimit:10;}
	.st117{fill:none;stroke:#E20D18;stroke-width:1.6347;stroke-miterlimit:10;}
	.st118{fill:none;stroke:#E20D18;stroke-width:1.5386;stroke-miterlimit:10;}
	.st119{fill:none;stroke:#E20D18;stroke-width:1.7396;stroke-miterlimit:10;}
	.st120{fill:#FFFFFF;stroke:#1E1E1C;stroke-width:1.4;stroke-miterlimit:10;}
	.st121{fill:none;stroke:#E20D18;stroke-width:1.4266;stroke-miterlimit:10;}
	.st122{fill:none;stroke:#E20D18;stroke-width:1.4299;stroke-miterlimit:10;}
	.st123{font-family:'Roboto-Medium';}
	.st124{font-size:13.1047px;}
	.st125{fill:none;stroke:#1E1E1C;stroke-width:0.9867;stroke-miterlimit:10;}
	.st126{fill:none;stroke:#DD0B18;stroke-width:1.4266;stroke-miterlimit:10;}
	.st127{fill:none;stroke:#DD0B18;stroke-width:1.4299;stroke-miterlimit:10;}
	.st128{fill:#DD0B18;}
	.st129{fill:none;stroke:#DD0B18;stroke-width:1.484;stroke-miterlimit:10;}
	.st130{fill:none;stroke:#DD0B18;stroke-width:1.4075;stroke-miterlimit:10;}
	.st131{fill:none;stroke:#DD0B18;stroke-width:1.5853;stroke-miterlimit:10;}
	.st132{fill:none;stroke:#DD0B18;stroke-width:1.2981;stroke-miterlimit:10;}
	.st133{fill:none;stroke:#DD0B18;stroke-width:0.9733;stroke-miterlimit:10;}
	.st134{fill:none;stroke:#DD0B18;stroke-width:0.9159;stroke-miterlimit:10;}
	.st135{fill:none;stroke:#DD0B18;stroke-width:1.4439;stroke-miterlimit:10;}
	.st136{fill:none;stroke:#DD0B18;stroke-width:1.0062;stroke-miterlimit:10;}
	.st137{fill:none;stroke:#DD0B18;stroke-width:0.9468;stroke-miterlimit:10;}
	.st138{fill:none;stroke:#DD0B18;stroke-width:1.6749;stroke-miterlimit:10;}
	.st139{fill:none;stroke:#DD0B18;stroke-width:1.6513;stroke-miterlimit:10;}
	.st140{fill:#FFFFFF;stroke:#1E1E1C;stroke-width:0.75;stroke-miterlimit:10;}
	.st141{fill:none;stroke:#DD0B18;stroke-width:1.5173;stroke-miterlimit:10;}
	.st142{fill:none;stroke:#DD0B18;stroke-width:1.804;stroke-miterlimit:10;}
	.st143{fill:none;stroke:#DD0B18;stroke-width:1.6153;stroke-miterlimit:10;}
	.st144{fill:none;stroke:#DD0B18;stroke-width:1.5551;stroke-miterlimit:10;}
	.st145{fill:none;stroke:#DD0B18;stroke-width:1.578;stroke-miterlimit:10;}
	.st146{fill:#E0E0E0;}
	.st147{fill:none;stroke:#DD0B18;stroke-width:1.6879;stroke-miterlimit:10;}
	.st148{fill:none;stroke:#DD0B18;stroke-width:1.6347;stroke-miterlimit:10;}
	.st149{fill:none;stroke:#DD0B18;stroke-width:1.5386;stroke-miterlimit:10;}
	.st150{fill:none;stroke:#DD0B18;stroke-width:1.7396;stroke-miterlimit:10;}
	.st151{fill:#FFFFFF;stroke:#020203;stroke-width:1.635;stroke-miterlimit:10;}
	.st152{fill:none;stroke:#E20D18;stroke-width:1.52;stroke-miterlimit:10;}
	.st153{fill:#020203;}
	.st154{fill:none;stroke:#1E1E1C;stroke-linejoin:round;}
	.st155{fill:none;stroke:#1E1E1C;stroke-linecap:round;stroke-miterlimit:10;}
	.st156{fill:#1E1E1C;}
	.st157{fill:none;stroke:#1E1E1C;stroke-linejoin:round;stroke-miterlimit:10;}
	.st158{fill:none;stroke:#020203;stroke-linejoin:bevel;stroke-miterlimit:10;}
	.st159{fill:none;stroke:#020203;stroke-miterlimit:10;stroke-dasharray:1;}
	.st160{fill:none;stroke:#020203;stroke-width:0.5;stroke-miterlimit:10;stroke-dasharray:1;}
	.st161{fill:none;stroke:#E20D18;stroke-width:1.3;stroke-miterlimit:10;}
	.st162{fill:none;stroke:#E20D18;stroke-width:0.97;stroke-miterlimit:10;}
	.st163{fill:none;stroke:#E20D18;stroke-width:0.92;stroke-miterlimit:10;}
	.st164{fill:none;stroke:#E20D18;stroke-width:1.44;stroke-miterlimit:10;}
	.st165{fill:none;stroke:#E20D18;stroke-width:1.01;stroke-miterlimit:10;}
	.st166{fill:none;stroke:#E20D18;stroke-width:0.95;stroke-miterlimit:10;}
	.st167{fill:#FFFFFF;stroke:#1E1E1C;stroke-width:2;stroke-miterlimit:10;}
	.st168{fill:none;stroke:#1E1E1C;stroke-width:1.5;stroke-linejoin:round;}
	.st169{fill:none;stroke:#1E1E1C;stroke-width:1.5;stroke-miterlimit:10;}
	.st170{fill:none;stroke:#1E1E1C;stroke-width:2;stroke-linecap:round;stroke-miterlimit:10;}
	.st171{fill:none;stroke:#1E1E1C;stroke-width:1.5;stroke-linecap:round;stroke-miterlimit:10;}
	.st172{fill:none;stroke:#1E1E1C;stroke-width:2;stroke-linejoin:round;stroke-miterlimit:10;}
	.st173{fill:none;stroke:#1E1E1C;stroke-width:2;stroke-linejoin:round;}
	.st174{fill:none;stroke:#020203;stroke-width:0.5;stroke-linejoin:bevel;stroke-miterlimit:10;}
	.st175{fill:none;stroke:#E20D18;stroke-width:1.63;stroke-miterlimit:10;}
	.st176{fill:none;stroke:#000000;stroke-miterlimit:10;}
	.st177{fill:#FFFFFF;stroke:#000000;stroke-miterlimit:10;}
	.st178{fill:none;stroke:#E20D18;stroke-width:1.3113;stroke-miterlimit:10;}
	.st179{fill:none;stroke:#E20D18;stroke-width:1.3459;stroke-miterlimit:10;}
	.st180{fill:none;stroke:#E20D18;stroke-width:1.4481;stroke-miterlimit:10;}
	.st181{fill:none;stroke:#E20D18;stroke-width:1.3929;stroke-miterlimit:10;}
	.st182{fill:none;stroke:#E20D18;stroke-width:1.327;stroke-miterlimit:10;}
	.st183{fill:none;stroke:#E20D18;stroke-width:1.4965;stroke-miterlimit:10;}
	.st184{fill:none;stroke:#E20D18;stroke-width:1.225;stroke-miterlimit:10;}
	.st185{fill:none;stroke:#E20D18;stroke-width:1.4563;stroke-miterlimit:10;}
	.st186{fill:none;stroke:#E20D18;stroke-width:1.5717;stroke-miterlimit:10;}
	.st187{fill:none;stroke:#E20D18;stroke-width:1.5529;stroke-miterlimit:10;}
	.st188{fill:#BFBEBF;stroke:#020203;stroke-miterlimit:10;}
	.st189{fill:none;stroke:#E20D18;stroke-width:2.0835;stroke-miterlimit:10;}
	.st190{fill:none;stroke:#E20D18;stroke-width:1.8751;stroke-miterlimit:10;}
	.st191{fill:none;stroke:#E20D18;stroke-width:1.6876;stroke-miterlimit:10;}
	.st192{fill:none;stroke:#E20D18;stroke-width:1.698;stroke-miterlimit:10;}
	.st193{fill:none;stroke:#E20D18;stroke-width:1.6043;stroke-miterlimit:10;}
	.st194{fill:none;stroke:#E20D18;stroke-width:1.8126;stroke-miterlimit:10;}
	.st195{fill:none;stroke:#E20D18;stroke-width:1.6147;stroke-miterlimit:10;}
	.st196{fill:none;stroke:#E20D18;stroke-width:1.5938;stroke-miterlimit:10;}
	.st197{fill:none;stroke:#E20D18;stroke-width:1.6251;stroke-miterlimit:10;}
	.st198{fill:none;stroke:#E20D18;stroke-width:1.6459;stroke-miterlimit:10;}
	.st199{fill:none;stroke:#E20D18;stroke-width:1.7605;stroke-miterlimit:10;}
	.st200{fill:#FFFFFF;stroke:#1E1E1C;stroke-width:0.87;stroke-miterlimit:10;}
	.st201{fill:#FFFFFF;stroke:#1E1E1C;stroke-width:1.1;stroke-miterlimit:10;}
	.st202{fill:#FFFFFF;stroke:#1E1E1C;stroke-width:0.55;stroke-miterlimit:10;}
	.st203{fill:#FFFFFF;stroke:#1E1E1C;stroke-width:0.79;stroke-miterlimit:10;}
	.st204{fill:#FFFFFF;stroke:#1E1E1C;stroke-width:0.51;stroke-miterlimit:10;}
	.st205{fill:none;stroke:#1E1E1C;stroke-width:0.88;stroke-miterlimit:10;}
	.st206{fill:#FFFFFF;stroke:#1E1E1C;stroke-width:0.83;stroke-miterlimit:10;}
	.st207{fill:#FFFFFF;stroke:#1E1E1C;stroke-width:0.58;stroke-miterlimit:10;}
	.st208{fill:#FFFFFF;stroke:#1E1E1C;stroke-width:0.53;stroke-miterlimit:10;}
	.st209{fill:#FFFFFF;stroke:#1E1E1C;stroke-width:1.15;stroke-miterlimit:10;}
	.st210{fill:#FFFFFF;stroke:#1E1E1C;stroke-width:0.88;stroke-miterlimit:10;}
	.st211{fill:#FFFFFF;stroke:#1E1E1C;stroke-width:1.04;stroke-miterlimit:10;}
	.st212{fill:#FFFFFF;stroke:#020203;stroke-linejoin:round;stroke-miterlimit:10;}
	.st213{fill:#E52622;}
	.st214{font-size:12.4174px;}
</style>
<line class="st116" x1="304" y1="596.6" x2="505" y2="596.6"/>
<g>
	<g>
		<g>
			<g>
				<path class="st5" d="M139.4,518.8c0,0-7.2-0.3-11.4,6.6c-4.3,6.9,0.3,15.7,0.3,15.7c2.6,13,13.3,12.1,13.3,12.1
					c15.6-0.5,12.9-20.4,12.9-20.4l-0.2-13.9C154.4,518.9,148.7,523.4,139.4,518.8z"/>
				<path class="st5" d="M352.3,465l-0.6,1.5c0,0-2.1,0-4.2,10.2l25.6,6.2c0,0,3.5-13.3-3-16.4l-3.4-0.6l-3.5,0.7l-0.1-2.2
					L352.3,465z"/>
				<path class="st5" d="M214.2,467l0.6,1.5c0,0,2.1-0.1,4.7,10l-25.2,7.3c0,0-4.1-13.1,2.2-16.6l3.4-0.8l3.5,0.5l-0.1-2.2
					L214.2,467z"/>
				<path class="st5" d="M280.3,558.4l0.1,2.9l-4.8,0.1l-1.6,3.8l0.9,23.9l1.9,4.3l4.9-0.1c0,0,0.9-1,0.7-5.3
					c-0.2-4.3-0.1-5.4-0.1-5.4l8-0.3l0.2,8.3c0,0,0.3,2.4,0.9,2.4s4.9-0.1,4.9-0.1s1.9-3,2.2-5.3c0.3-2.4-0.5-22.4-0.5-22.4
					l-1.9-4.4l-5.2,0.1l-0.2-1.7L280.3,558.4z"/>
			</g>
			<g id="Base_1_">
				<g id="base_2_">
					<g>
						<path class="st96" d="M300.4,466.5l-0.3-6.3c0,0,9.3-5.6,36.3-6.7c27.1-1.1,29.8,5.4,29.8,5.4s1.2,1,0.4,6.8
							c0,0-2.9,0.8-3.2,0.6c-0.3-0.2-0.2-2.2-0.2-2.2s-23.7,0.2-37.7,7.4"/>
						<path class="st96" d="M267.5,466.6l-0.2-6.1c0,0-10.3-5.6-37.5-5.4c-27.2,0.1-29.4,6.8-29.4,6.8s-1.2,1.1-0.2,6.8
							c0,0,2.9,0.7,3.2,0.5s0.1-2.2,0.1-2.2s23.7-0.9,37.9,5.7"/>
						<path class="st96" d="M285.5,471.7c10.3,0,15-5.2,15-5.2v-0.6l-2-40.6c-0.1-1-0.2-2.1-0.5-3.1c-0.3-0.8-0.5-1.6-1-2
							c0,0-0.3,5.4-12.7,5.8l-2.7,0.1c-12.4,0.3-12.8-5.2-12.8-5.2c-0.3,0.4-0.7,1.2-0.9,2c-0.3,1-0.3,2.1-0.3,3.1l-0.2,40.6
							l0.1,0.6c0,0,4.9,5.1,15.2,4.5L285.5,471.7z"/>
						<path class="st96" d="M282.1,425.9c-10.9,0.4-12.5-4.9-12.5-4.9l-0.1-5.2c0,0-0.2-3.1,0.8-4c0,0,0,4.9,12.3,4.5h0.9
							c12.3-0.3,12.1-5.1,12.1-5.1c1,1,1,4,1,4l0.1,5.2c0,0-1.4,5.3-12.3,5.4L282.1,425.9z"/>
						<path class="st96" d="M270.3,412.1v-3.1h25.3l-0.5,1.9c0,0-0.5,5.4-12,5.3C271.8,416.2,270.3,412.1,270.3,412.1z"/>
						<path class="st97" d="M280.3,558.7l0.1,2.5c0,0,0.8,0.3,1,1.7l8.6-0.2c0,0,0.1-1.5,0.6-1.6l-0.1-2"/>
						<path class="st97" d="M280.4,561.2l-4.8,0.1l1.2,32.1l4.9-0.1c0,0,0.9-0.7,0.7-3.5l-1-27"/>
						<path class="st97" d="M275.7,561.4l-0.7,1.5c-1.5,3.2-0.8,1.6-0.7,13.8v0.3c0.4,12.2,0,11.9,1.7,15l0.8,1.5"/>
						<path class="st97" d="M290.9,561l4.8-0.1l0.3,32.2l-4.9,0.1c0,0-1-0.6-0.9-3.4l-0.3-27"/>
						<path class="st97" d="M295.8,561.1l0.8,1.5c1.7,3.1,0.9,1.6,1.3,13.7v0.3c0.2,12.2,0.5,11.9-1,15l-0.7,1.5"/>
						<line class="st98" x1="282.1" y1="582.1" x2="290.2" y2="582"/>
						<path class="st96" d="M267.6,467.3l-0.1-0.6c0,0-43.7,9.6-75.5,20s-51,21.2-51,21.2s-4,2.4-2.1,11.1c0,0,8,5,15.5,0l1.7-3.3
							c0,0,32.7-11.2,54-16.6c14.4-3.7,29.6-5.9,38-7.1c4.9-0.6,9.7-1.4,14.5-2.4l0,0c1.9-0.3,4-0.2,5.9,0.6l1.2,0.6l0,0
							c0,0,1.6,1.9,3.1,23.8c1.6,21.9,2.9,38.4,2.9,38.4s0.9,7.7,11,6.7c2-0.2,3.7-0.5,5-0.9c3.2-0.9,5.5-3.8,5.5-7.4l1.2-59.8l0,0
							l1.2-0.6c1.8-0.9,3.8-1.1,5.8-0.9h0.1c4.9,0.8,9.7,1.3,14.6,1.7c8.4,0.7,23.8,2.3,38.3,5.3c21.6,4.5,54.8,14.2,54.8,14.2
							l-0.1,2.7c11.2,5.2,17.3-0.2,17.3-0.2c1.6-8.8-2.5-11-2.5-11s-19.7-10-52-18.9c-32.2-8.9-75.7-17.5-75.7-17.5"/>
					</g>
					<g>
						<path class="st98" d="M155,519.5v12.9l-0.4,0.3c0,0-1-4.2-3.9-6.6c-2.4-2-4.9-2.6-4.9-2.6l-0.1-2.6"/>
						<path class="st97" d="M127.9,540.7c-0.9-1.8-1.7-5.5-1.7-7.7c-0.2-7.7,5.5-14,12.7-14.2"/>
						<path class="st99" d="M126.7,533.4c-0.2-7.7,6.6-13.2,13.8-13.4"/>
						
							<ellipse transform="matrix(0.9997 -2.294325e-02 2.294325e-02 0.9997 -12.3365 3.3841)" class="st97" cx="141.3" cy="539.3" rx="13" ry="13.9"/>
						
							<ellipse transform="matrix(0.9997 -2.294325e-02 2.294325e-02 0.9997 -12.3365 3.3881)" class="st99" cx="141.5" cy="539.3" rx="2.3" ry="2.4"/>
						<path class="st99" d="M141.5,527.6c0,0,0.3,7.6,0.5,8c0.3,0.3,0.6,0.7,1.4,0s3.8-6.1,3.8-6.1"/>
						<path class="st99" d="M149.1,531.3c0,0-4.5,5.9-4.5,6.5c0,0.5,0.1,1,1,1s6.6-1.9,6.6-1.9"/>
						<path class="st99" d="M152.5,539.2c0,0-7.2,0.2-7.5,0.5s-0.6,0.6,0,1.5c0.6,0.9,5.7,4.2,5.7,4.2"/>
						<path class="st99" d="M149.6,547.1c0,0-5.8-4.5-6.2-4.5s-0.9,0.1-0.8,1.2c0.1,1.1,2.2,7,2.2,7"/>
						<path class="st99" d="M139.8,527.7c0,0,0.5,7.6,0.3,8s-0.5,0.7-1.4,0.1c-0.9-0.6-4.5-5.7-4.5-5.7"/>
						<path class="st99" d="M132.7,532.1c0,0,5,5.4,5.1,5.9c0,0.5,0,1-1,1c-1,0.1-6.8-1.2-6.8-1.2"/>
						<path class="st99" d="M130.1,541.3c0,0,7.1-0.6,7.5-0.3c0.3,0.3,0.7,0.5,0.1,1.5c-0.5,1-5.2,4.7-5.2,4.7"/>
						<path class="st99" d="M134.8,549c0,0,4.5-5.9,5-5.9c0.4-0.1,0.9-0.2,1,1c0.3,1-0.4,7.3-0.4,7.3"/>
					</g>
					<line class="st100" x1="203.5" y1="469.2" x2="207.8" y2="469"/>
					<path class="st101" d="M194.9,485.2c-1.5-1.7-1.3-5.9-1.3-5.9c-0.1-5.5,2.1-10,4.9-10c2.8-0.1,5.7,4.1,5.8,9.6l0.1,3.1"/>
					<path class="st99" d="M195.1,485c-1.4-1.6-1.2-5.5-1.2-5.5c-0.1-5.1,1.9-9.3,4.5-9.3c2.6-0.1,4.5,3.8,4.6,9l-0.1,3.1"/>
					<path class="st99" d="M196.9,471.4c0,0,0.3,6.9,0.8,8.1c0.5,1.2,0.9-4.3,1.7-5.8c0.3-0.7,0.6-1.2,0.6-1.2"/>
					<path class="st99" d="M201.2,474.5c0,0-2.4,5.2-2.4,6.5c0,1.2,2.3-1.3,4-2.1"/>
					<path class="st102" d="M195.5,473.3c0,0,1.9,6.6,1.4,6.1c-0.4-0.3-1.6-1.8-2.9-2.4"/>
					<path class="st102" d="M194.2,478l2.9,3.2c0,0,0.6,1-0.3,1.1c-0.9,0.1-2.4-0.1-2.4-0.1"/>
					
						<ellipse transform="matrix(0.9997 -2.294325e-02 2.294325e-02 0.9997 -10.9927 4.6697)" class="st97" cx="198" cy="481.4" rx="0.8" ry="1.7"/>
					<path class="st103" d="M218.7,477.6c0,0-2-7.5-3.5-8.4l-0.2,9.3l-6.4,1.9l-0.2-1.7c-0.8-3.8-2.4-5.9-2.4-5.9l-0.1-3.3
						c0,0,1.9,2.6,5.2,2c3.3-0.6,3.6-2.2,3.6-2.2l-1-1.4v1l-6.1,0.2v-1.7"/>
					<line class="st104" x1="363.2" y1="466.6" x2="358.7" y2="466.5"/>
					<path class="st105" d="M373.1,482.8c1.5-1.8,1.1-6.3,1.1-6.3c-0.2-5.8-2.6-10.4-5.6-10.3c-3,0.1-5.7,4.5-5.6,10.3l0.1,3.1"/>
					<path class="st106" d="M372.8,482.6c1.4-1.7,1-5.8,1-5.8c-0.1-5.3-2.4-9.6-5.2-9.5s-4.5,4.3-4.5,9.6l0.3,3.3"/>
					<path class="st106" d="M370.3,468.5c0,0,0,7.2-0.4,8.5c-0.4,1.3-1.1-4.5-2-6c-0.4-0.7-0.7-1.3-0.7-1.3"/>
					<path class="st106" d="M366,472c0,0,2.7,5.4,2.8,6.6s-2.4-1.3-4.3-2"/>
					<path class="st107" d="M371.8,470.4c0,0-1.7,6.9-1.2,6.5s1.6-2,2.9-2.6"/>
					<path class="st107" d="M373.5,475.3l-2.8,3.6c0,0-0.6,1.1,0.3,1.1c0.9,0,2.5-0.3,2.5-0.3"/>
					
						<ellipse transform="matrix(0.9997 -2.294325e-02 2.294325e-02 0.9997 -10.8934 8.6057)" class="st108" cx="369.6" cy="479" rx="0.9" ry="1.7"/>
					<path class="st109" d="M347.8,476.1c0,0,1.7-8,3.2-8.9l0.6,9.7l6.8,1.7l0.2-1.9c0.6-3.9,2.2-6.4,2.2-6.4l-0.1-3.5
						c0,0-1.9,2.9-5.4,2.4s-3.9-2.1-3.9-2.1l0.9-1.5v1l6.4-0.2v-1.8"/>
					
						<ellipse transform="matrix(0.9997 -2.294325e-02 2.294325e-02 0.9997 -12.3365 3.3841)" class="st100" cx="141.3" cy="539.3" rx="11" ry="11.8"/>
					<path class="st110" d="M127.2,536.8c-0.2-7.7,5.8-13.3,12.9-13.4c0,0,2.3-0.4,5.7,0.7"/>
				</g>
			</g>
		</g>
		<g>
			<path class="st96" d="M428.6,513.8c7.2,0.2,12.8,6.5,12.7,14.2c-0.1,2.2-0.9,5.9-1.7,7.7l-25.4-7.2l9.3-12.1L428.6,513.8z"/>
			<path class="st110" d="M440.7,528.3c0.2-7.7-6.6-13.2-13.8-13.4"/>
			<path class="st97" d="M425.8,548.1c7.2,0.2,13.1-5.9,13.3-13.5c0.2-7.7-5.5-14-12.7-14.2c-7.2-0.2-13.1,5.9-13.3,13.5
				C412.9,541.6,418.6,547.9,425.8,548.1"/>
			
				<ellipse transform="matrix(2.294325e-02 -0.9997 0.9997 2.294325e-02 -118.0962 947.772)" class="st99" cx="425.8" cy="534.3" rx="2.4" ry="2.3"/>
			<path class="st110" d="M425.9,522.6c0,0-0.3,7.6-0.5,8c-0.3,0.3-0.6,0.7-1.4,0c-0.8-0.7-3.8-6.1-3.8-6.1"/>
			<path class="st110" d="M427.5,522.6c0,0-0.5,7.6-0.3,8c0.3,0.4,0.5,0.7,1.4,0.1c0.9-0.6,4.5-5.7,4.5-5.7"/>
			<path class="st110" d="M434.7,527c0,0-5,5.4-5.1,5.9c0,0.5,0,1,1,1c1,0.1,6.8-1.2,6.8-1.2"/>
			<path class="st110" d="M437.3,536.2c0,0-7.1-0.6-7.5-0.3c-0.3,0.3-0.7,0.5-0.1,1.5c0.5,1,5.2,4.7,5.2,4.7"/>
			<path class="st100" d="M425.9,546c6.1,0.2,11.2-5,11.3-11.5s-4.6-11.9-10.7-12.1c-6.1-0.2-11.2,5-11.3,11.5
				C414.9,540.5,419.7,545.9,425.9,546"/>
			<path class="st110" d="M440.3,531.7c0.2-7.7-5.2-13.4-12.4-13.5c0,0-2-0.3-5.4,0.8"/>
			<path class="st97" d="M423.5,516.4l-0.1,2.2c0,0-2.4,1-4.9,3.1c-2.9,2.4-4.1,5.5-4.1,5.5l-0.7,1.8l0.7-14.2c0,0,1,0.7,3.9,1.1
				C421.2,516.4,423.5,516.4,423.5,516.4z"/>
			<path class="st110" d="M418.6,526.1c0,0,4.1,5.1,4.4,5.9c0.2,0.4-0.2,1.8-1.2,1.8s-6.4-1.7-6.4-1.7"/>
			<path class="st110" d="M418.1,542.3c0,0,4.8-3.8,5.3-3.8c0.4,0,0.9,0.1,0.8,1.2c0,1.1-1.7,5.6-1.7,5.6"/>
			<path class="st110" d="M425.7,545.6c0,0,0.7-6.1,1-6.4c0.3-0.3,0.7-0.5,1.4,0.3c0.8,0.8,2.9,5.1,2.9,5.1"/>
			<path class="st110" d="M415.2,535c0,0,6.1,0.1,6.5,0.4c0.3,0.3,0.6,0.6-0.1,1.5s-4.8,3.3-4.8,3.3"/>
		</g>
	</g>
	<path class="st0" d="M254,339.3l-40.4,28l-42.5-102.5L160.9,16.9l8.3-9.2c1.3-1.1,2.4-1,3.8,0s2,2.2,2,2.2c1.2,0.2,2.6,0.9,3.9,1.8
		c4,3,6.8,7.3,8,12.2c3.6,15.6,3.6,43,3.6,43s0.3,3.8,1,14.3c0.6,10.6,3.6,20.4,3.6,20.4l2,2.4l5.3,5.9l12.8,12.1l3.8,3.7
		c3.1,2.9,5.8,6.3,7.7,10.1c0.9,1.7,1.6,3.4,2,5.2c1.3,5.6,1.1,10,1.4,15c0.3,5.1-1.7,14.2-1.7,14.2l-0.9,6.6l14.5,74.9l0.6,1.7
		c0,0,15.6,24.5,22.1,43.3c0.3,1,0.6,2.1,0.7,3.2C266.2,306.3,267.7,328.4,254,339.3z"/>
	<path class="st111" d="M177.8,360.9L176,313l70.6,23.2c0,0,15.9-0.3,25.3-2.7c10.6-2.6,17.2-6.2,17.2-6.2s20.1-11.5,30.9-14.3
		c8.5-2.2,14.3-2.4,37.5,0.1c5.2,0.5,10.2,2.3,13.9,4.5c13.3,8.1,14.7,10.1,14.7,10.1c7.7-0.3,18.5,4,18.5,4
		c6.3,2,9.8,6.1,12.7,11.2c0.2,0.3,2.2,3.8,2.4,4.1c1.9,3.6,3.2,7,5.1,10.7c2.4,4.8,4.4,10,3.5,15.3c-0.8,4.7,0.1,10.2-2.6,14.3
		c-2.8,4.2-6.2,8-10.7,10.7c0,6-23.1,7.9-23.1,7.9l-49.8,1.8l-28,1l-1.7,0.1l-19.9,0.8h-0.5l-35,1.3l0.3,2.6c0,0,2.1,0.4-13.1,1.3
		c-15.2,0.8-64,0-64,0l-6.2-4.9l-5-30.5C168.9,379.5,167.5,368.2,177.8,360.9C177.8,360.9,177.9,360.9,177.8,360.9"/>
	<path class="st17" d="M249.9,412.7l3.3-3.6l3.1-6l-10.9-16.4c0,0-8.6-3-11.4-4.2c-2.8-1.2-7.1-1.7-15.6-11.3c0,0-5.2-7.1-5.6-8.3
		c-0.4-1.2-8.3-8-9.2-8.2l-2.1,2.1c0,0,7.1,4.4,9.1,8.6c2,4.2,7.5,12.6,11.4,15.6c3.9,3.1,12.1,8.7,20,9.6c0,0,0.5-2,10.6,16.2
		l-2,4.4L249.9,412.7z"/>
	<path class="st17" d="M201.7,356.9C201.7,356.9,201.7,356.8,201.7,356.9"/>
	<path class="st17" d="M249.9,412.7c0,0,1.9,0.4-12.1,1.3c-14,0.8-58.8,0-58.8,0l-5.7-4.9l-4.6-30.5c0,0-1.2-11.4,8.2-18.7l0,0"/>
	<path class="st17" d="M181.3,367.6c-6.9,5.7-5.1,14.9-5.1,14.9l3.5,23.9l4.4,3.8l45.1,0.2l10.7-0.7l1.9-4.7c-1.4-2.6-4-6.6-4-6.6
		c-3.4-0.6-17.6-6.6-23.4-13.9c-2.4-3-7.3-9-8.8-12.2c-1.5-3.2-7-6.6-7-6.6s-0.2-0.1-0.5-0.2"/>
	<polyline class="st17" points="241.8,404.9 253.1,406.7 256.4,403.1 	"/>
	<line class="st17" x1="179.8" y1="406.4" x2="173.5" y2="409.1"/>
	<g>
		<line class="st17" x1="242.2" y1="390.6" x2="237.7" y2="398.3"/>
		<path class="st17" d="M230.4,371.9l-8.1,2.2c-0.2,0-0.3-0.2-0.2-0.3l1.7-2.4l7.3-2L230.4,371.9l6.5-2.4l3.1,7.5
			c0,0-1.6,1.9-5.4,3.1L230.4,371.9"/>
		<path class="st17" d="M262.9,357.5l-26.1,10.6l4.3,10.7c0,0,3-2.6,5.4-3.7c0,0,1.6-0.4,4.2,0.2c2.7,0.6,5.4-2.8,7.7-3.7
			c2.3-0.9,4.2-0.3,4.2-0.3s2.1,0.7,4.3-1.8s3.8-1.6,3.8-1.6s1.2-1.2,1.1-1.8c-0.1-0.6-7.2-8.6-7.2-8.6S264.2,357,262.9,357.5z"/>
		<polyline class="st17" points="263.7,357.8 263.1,360.3 240.3,370 242.7,375.4 241.1,378.9 		"/>
		<polyline class="st17" points="271.4,366.3 269,366.9 263.1,360.3 		"/>
		<line class="st17" x1="242.7" y1="375.4" x2="269" y2="366.9"/>
		<polyline class="st17" points="231,369.4 236.8,368.1 240.3,370 		"/>
	</g>
	<path class="st17" d="M354,347.2L354,347.2c0.3,0,0.3,0.1,0.3,0.1s13.9,1.7,32,13.5c18.1,11.7,25.8,30.6,25.8,36.6
		c0,6-21.2,7.9-21.2,7.9l-45.7,1.8"/>
	<polyline class="st17" points="319.7,408 318.1,408.1 299.9,408.8 299.4,408.9 251.7,410.8 	"/>
	<path class="st17" d="M329.1,347.6c-15,1.8-35.4,6.8-57.6,19.6"/>
	<path class="st17" d="M355.1,343c0,0,16,5,25.6,9.3"/>
	<path class="st17" d="M329.6,343.8c-15.6,1.9-36.8,7.1-59.1,19.9"/>
	<path class="st17" d="M411.5,399.1c0,0,16-7.4,16.4-22c0.3-12.8-6.3-18.2-6.3-18.2s-10-7.1-41.1-6.6c0,0,14.8,8.6,21.1,16.1
		c6.4,7.4,10,11.4,12.1,19.8C415.8,396.6,411.5,399.1,411.5,399.1z"/>
	<path class="st0" d="M214.5,365.6c0,0,24.5-5.8,37.2-20.6c12.8-14.9-14-54.8-14-54.8l-20.2-33.8c0,0-9-19.5-11.2-25.6
		c-2.2-6.1-6.8-24-5.2-35.6c1.7-11.6,4-21.2,4-21.2s5.9-19.4,3.3-29.9c-2.6-10.5-4.5-12.9-12.7-22.5c-5.2-6.1-13-15.2-17.9-20.9
		c-3.4-3.9-6.1-8.5-7.9-13.4c-1.3-3.8-2.7-8.1-3.1-11.6c-0.7-7.6-1.1-32.3-0.9-36.9s2.4-24.6,2.4-24.6s0.1-5.2,0.3-5.5s-3.7,1-6,3.5
		s-3.6,4.2-4.2,10.1s-1.7,9.6-1.7,9.6s-1.4,8-2,17.4s-2.6,38.1-2.6,38.1s-0.3,9.7,0,13.4c0.3,3.7-0.2,8.2-0.2,8.2l-1,30.7l3.1,27.6
		l3.6,28.2l2.7,21.7l2,14l2.5,20.8l2.3,25.2c0,0-0.3,10.8,0.9,21.8s5.2,33.9,5.2,33.9l3.2,8.3L214.5,365.6z"/>
	<path class="st17" d="M215.9,367.7c0,0,25.9-6.6,38.7-21.4c12.8-14.9-12.3-55.6-12.3-55.6l-19.7-33.5c0,0-9.7-19.1-11.9-25.2
		c-2.2-6.1-7.3-23.2-6.1-34.9c1.1-10.4,2.5-16.4,3.1-19.4c0.2-0.9,1.7-5.1,1.9-5.9c1.2-4.4,3.8-17.1,2.4-26.4
		c-1.8-12.9-4.1-14.5-12.2-24.1C191.6,111.7,179,96,179,96s-6.6-12.1-7.7-19.7c-1.3-9.1-1.9-30.8-1.6-35.4
		c0.3-4.5,2.3-25.1,2.3-25.1s0.3-2.1,0.6-3.8c0.2-1.2,1.4-2.2,2.6-1.8c0.1,0-0.4-0.5-0.3-0.5c0,0-2.3-3.6-5.2-1.9
		c-1.5,0.9-1.1,4.3-1.1,4.3"/>
	<path class="st17" d="M172.5,307.7c0,0-2.3-17.1-1.7-20.9c0.7-3.8,2.2-7.6,2.2-7.6s-0.9-29.4-1.8-37.6c-1-8.2-1.1-26.9-3-33.2
		c-1.8-6.3-10.4-72.4-10.4-72.4v-9.6c0,0,2.1-17.1,5.5-23.1c3.4-5.9,8.3-12,8.3-12"/>
	<polyline class="st21" points="257.2,341.5 279.5,339.1 272.4,362.7 	"/>
	<path class="st16" d="M385.9,327.8c-10.8-1-22.7,0.6-22.7,0.6l-6.3,0.8"/>
	<polyline class="st17" points="280,339.1 330.7,332.5 330.9,332.5 	"/>
	<path class="st17" d="M420.7,393.3c0,0,0.2-4.6,0.7-5.8c0.5-1.1,4.6-13.1,2.8-17.4c-1.9-4.3-3-11.1-19.9-14.2c0,0-13-1.7-19.2-1.2"
		/>
	<path class="st17" d="M258.2,337.1c0,0,15.1-0.9,23.4-4.4c8.3-3.5,14.9-7.3,14.9-7.3s11.3-6.9,21.2-9.7c10-2.8,15.6-3.4,15.6-3.4
		l0,0"/>
	<path class="st17" d="M333.4,311.3L333.4,311.3c-2.3,0.2-8.2,0.8-16,3c-10,2.8-21.3,9.4-21.3,9.4s-6.6,3.8-14.9,7.3
		c-8.3,3.5-23.4,4.4-23.4,4.4"/>
	<path class="st21" d="M227.1,264.9c0,0,5-2.9,10.8-1.7c5.6,1,9.6,6.1,9.9,6.5l0,0l0,0c0.2,0.2,2.4,2.4,4.5,6.6
		c2.2,4.5,4.8,22.3,5.5,25.6c0.7,3.3,1,14,0.9,16.7c-0.1,2.6-1.4,5.7-1.5,5.9"/>
	<path class="st17" d="M257.2,324.5L257.2,324.5c0.4-0.3,13.5-9.3,7.5-28c-6.1-19-22.2-45.4-22.2-45.4s-7.6-14.7-9.3-18.7
		c-1.7-4-5.6-13.3-7.4-23.3c-1.8-10,1.3-29.5,1.3-29.5l0.4-3.2"/>
	<path class="st17" d="M205.4,190c0,0,4.7-3.9,5-9.5c0,0-1.7,21-0.9,30.6c0.9,9.6,2.6,19.1,2.6,19.1l5.9,17.9
		c0,0-12.1-22.5-13.4-41.6C204.7,206.4,203.8,198.1,205.4,190z"/>
	<path class="st21" d="M250,305.3c0,0-0.5-13.1-6.9-21.3c-6.4-8.2-9.3-7.8-9.3-7.8l-6.6-11.2c0,0,8.5-0.4,13.5,2.4
		c5.1,2.9,8,5.5,11.6,13.5c0,0,2.8,4.1,5.2,19.3"/>
	<line class="st17" x1="232.2" y1="381.8" x2="234.5" y2="380.1"/>
	<path class="st16" d="M195,101.2c0,0,4.1,7.6,4.5,12c0.3,4.4,0.3,8.1,0.3,8.1s4,4.7,7.8,9.7c3.8,4.9,5.5,16,5.9,25
		c0.3,9-3.1,24.5-3.1,24.5l15,40.4l13.5,29.4l8.9,19.3"/>
	<line class="st21" x1="318.6" y1="412.4" x2="318.1" y2="407.3"/>
	<line class="st17" x1="263.1" y1="409.3" x2="262.3" y2="423.1"/>
	<polygon class="st0" points="260.9,410.8 253.9,437.8 256.4,438.6 264.6,410.4 	"/>
	<path class="st0" d="M250.3,463.4h0.8c0,0,1.3-2.4,1-4.2c-0.3-1.7,0.6-2.6,0.6-2.6s0.6-0.4,0.4-1.9c-0.3-1.5,1.1-2.3,1.1-2.3
		s0.3,0.8,1-3.1c0.7-3.8,2.5-9.2,1.9-10.2l-1.5-0.4l-7.9,21.7L250.3,463.4z"/>
	<path class="st0" d="M252.4,437.7l4.8,1.4l-3.8,11.3c0,0-1.2,0.5-1.4,1.6c-0.2,1-0.2,2.5-1.3,3.9c0,0-0.3,0.7,0.4,2
		c0.7,1.4-1.2,6.1-1.4,6.1s-4.2-0.9-4.2-1.4c0-0.6-0.5-1.6,1.1-6.5C248.3,451.2,252.4,437.7,252.4,437.7z"/>
	<path class="st0" d="M317.9,422.1c-0.9-0.9-1.2-2.2-1-3.4l0,0l0.4-1.7l0.4-1.8l0.4-1.6l0.3-1l1.1-4.4c0,0,1.2-3,2-3
		s-0.7,2.5,11.7,1.9c12.4-0.7,10.5-2.4,10.5-2.4c1.5,0.3,1.5,2.8,1.5,2.8l0.3,13.9c0,0-0.3,2.1-1.7,3.2c-1.1,1-16.7,0.9-21.4,0.9
		c-0.9,0-1.7-0.3-2.4-1L317.9,422.1z"/>
	<path class="st17" d="M322.8,404.5l5.3-32.5c0,0,8.9,0.3,11.4,0.3s8.7-0.8,8.7-0.8l-4.9,33.5c0,0-4.1,2-11.4,1.7
		c-7.3-0.3-9.4-0.8-9.6-1.5C322.2,404.4,322.8,404.5,322.8,404.5z"/>
	<path class="st17" d="M342.3,281l-1.2,0.7v1.6c0,0,7.7,0.6,11.3,0.6c3.6,0,10-1.4,10-1.4v-1.4c0,0-6.4,1.1-10.1,1.1
		c-3.8,0-10.4-0.3-10.4-0.3"/>
	<line class="st17" x1="360.3" y1="280" x2="362.2" y2="281"/>
	<g>
		<path class="st5" d="M404.4,273l-103.6,1.7c-1.8,0-4.7,1.8-4.7,0l-0.7-3.3c0-1.8,3.7-3.3,5.5-3.3l55.4-6.2
			c1.8,0,53.6,2.4,53.6,4.3l0.8,3.8C410.5,271.7,406.2,273,404.4,273z"/>
		<path class="st0" d="M349.4,371.4l0.9-0.3l12.2-77.4l11-17.6l-42.4,1.4l4,18.2l-8.8,75.4c0,0-0.2,0.9,1,1c1.1,0.1,11,0.3,11,0.3
			L349.4,371.4z"/>
		<path class="st0" d="M299.6,278.3l96.8-3.1l10-0.8l4.2-4.5c0,0-14.4,2.7-56.4,3.6s-58.5,0.6-58.5,0.6S298.9,278.3,299.6,278.3z"/>
		<path class="st0" d="M410.5,269.8c0,0,1.1-3.6-0.8-5.3c-1.7-1.5-0.6-2.5-14.3-3c-13.7-0.4-33.4-1.1-43.8-0.7
			c-10.4,0.3-37.7,3.3-37.7,3.3s-13.2,2-14.7,2.4c-1.5,0.4-3.8,3.9-3.8,3.9"/>
		<path class="st0" d="M295.5,274c0,0-0.4-3,0-3.6"/>
	</g>
	<path class="st0" d="M313.3,254.1l74.3-1.4l7.6-0.4l2.8-4.5c0,0-10.7,3-42.9,3.1c-32.2,0.2-44.9-0.2-44.9-0.2
		S312.7,254.1,313.3,254.1z"/>
	<path class="st0" d="M398.1,247.8c0,0,0.9-2.4-0.6-3.5c-1.2-1-0.5-1.7-11-1.9c-10.5-0.3-25.7-0.7-33.6-0.4s-28.9,2.2-28.9,2.2
		s-10.1,1.3-11.3,1.6c-1.1,0.3-3,2.6-3,2.6c-0.3,0.3,0,2.4,0,2.4S381.3,253,398.1,247.8z"/>
	<polygon class="st0" points="365.6,260.7 370.7,253 335.7,253.7 337.6,261.9 	"/>
	<g>
		<polygon class="st17" points="176.8,342.2 177.2,361.8 181,364.8 182.3,376.1 187.4,386.7 196,386.1 199.1,374.5 197.8,363.7 
			201.7,359.9 201.2,337.2 196.6,338.6 197.1,357.6 196.7,358.2 180.9,359.5 180.6,358.8 180.4,339.8 176.8,339 		"/>
		<polygon class="st17" points="176.8,338.6 173.6,308.5 176.8,282.7 190.4,281.4 198.1,306.4 201.2,337.2 196.6,338.6 193.8,307.8 
			187,286.2 180.5,286.9 177.1,308.5 180.4,339.8 176.8,339 		"/>
		<line class="st17" x1="177" y1="283" x2="180.5" y2="286.9"/>
		<line class="st17" x1="190.2" y1="281.8" x2="187" y2="286.2"/>
		<circle class="st17" cx="185.8" cy="313" r="3"/>
	</g>
</g>
<g>
	<line class="st112" x1="91.4" y1="411.8" x2="91.4" y2="10.3"/>
	<line class="st113" x1="81" y1="414.7" x2="174.8" y2="414.7"/>
	<line class="st114" x1="85.2" y1="6.8" x2="171.2" y2="6.8"/>
	<polygon class="st40" points="91.4,6.9 97.6,18.7 85.2,18.7 	"/>
	<polygon class="st40" points="91.4,415.1 85.2,403.3 97.6,403.3 	"/>
</g>
<line class="st115" x1="498.7" y1="590.1" x2="498.7" y2="265.9"/>
<g>
	<rect x="471.5" y="410.6" class="st36" width="61.7" height="16"/>
</g>
<line class="st116" x1="368.9" y1="260.7" x2="504.9" y2="260.7"/>
<polygon class="st40" points="498.7,261 504.9,272.9 492.6,272.9 "/>
<polygon class="st40" points="498.7,596 492.6,585.2 504.9,585.2 "/>
<text transform="matrix(0.9128 0 0 1 474.4299 423.0337)" class="st40 st123 st124">62 a 69cm</text>
<rect x="70.2" y="224" class="st36" width="42.6" height="14.4"/>
<text transform="matrix(1 0 0 1 73.4641 235.6982)" class="st40 st123 st124">82cm</text>
<g>
	<line class="st117" x1="211.4" y1="436.3" x2="421.3" y2="436.3"/>
	<line class="st118" x1="428.2" y1="391" x2="428" y2="441.4"/>
	<line class="st119" x1="202.9" y1="421.5" x2="202.9" y2="442.5"/>
	<polygon class="st40" points="428.4,436.4 416.3,442.5 416.3,430.2 	"/>
	<polygon class="st40" points="202.9,436.4 214.9,442.5 214.9,430.2 	"/>
</g>
<polygon class="st5" points="373.8,442.7 337.5,444 337.6,428.8 373.2,428.8 "/>
<text transform="matrix(1 0 0 1 338.4388 441.3315)" class="st40 st123 st124">56cm</text>
<g>
	<polygon class="st35" points="456,585.3 468.7,585.3 462.4,596.1 	"/>
</g>
<line class="st34" x1="462.4" y1="587.6" x2="462.4" y2="350.6"/>
<g>
	<polygon class="st35" points="456.2,357.2 468.9,357.2 462.5,346.4 	"/>
	<line class="st34" x1="404.4" y1="345.9" x2="468.8" y2="345.9"/>
</g>
<g>
	<polygon class="st35" points="456,412.4 468.7,412.4 462.4,401.7 	"/>
</g>
<g>
	<polygon class="st35" points="456,392.4 468.7,392.4 462.4,403.1 	"/>
	<line class="st34" x1="413.8" y1="402.7" x2="468.7" y2="402.7"/>
</g>
<g id="texto_9_">
	<rect x="435.2" y="366.7" class="st36" width="54.3" height="15.7"/>
	<text transform="matrix(1.0849 0 0 1 446.3315 378.5716)" class="st213 st123 st214">13cm</text>
</g>
<rect x="425" y="461.5" class="st36" width="68.2" height="14.4"/>
<text transform="matrix(1 0 0 1 428.0162 472.7055)" class="st40 st123 st124">38 a 48cm</text>
</svg>
