<svg xmlns="http://www.w3.org/2000/svg" xmlns:xlink="http://www.w3.org/1999/xlink" viewBox="0 0 99.88 378.06"><defs><linearGradient id="光譜_" x1="41.46" y1="119.81" x2="41.46" y2="212.98" gradientUnits="userSpaceOnUse"><stop offset="0" stop-color="#36a0d7"/><stop offset="0.2" stop-color="#1c2380"/><stop offset="0.4" stop-color="#bb127e"/><stop offset="0.6" stop-color="#c13125"/><stop offset="0.8" stop-color="#faec40"/><stop offset="1" stop-color="#38924f"/></linearGradient><linearGradient id="光譜_2" x1="41.03" y1="245.8" x2="41.03" y2="343.75" xlink:href="#光譜_"/><linearGradient id="光譜_3" x1="41.48" y1="7.43" x2="41.48" y2="86.28" xlink:href="#光譜_"/></defs><title>Suporte VGA Hyperstone</title><g id="Camada_2" data-name="Camada 2"><g id="Camada_1-2" data-name="Camada 1"><polygon points="42.33 119.81 42.33 212.98 40.58 212.81 40.62 119.81 42.33 119.81" style="stroke:#040006;stroke-miterlimit:10;stroke-width:0.75px;fill:url(#光譜_)"/><polygon points="42.33 245.8 42.33 327.29 42.33 338.18 42.28 339.16 41.23 343.75 39.72 343.64 40.57 245.8 42.33 245.8" style="stroke:#040006;stroke-miterlimit:10;stroke-width:0.75px;fill:url(#光譜_2)"/><polygon points="32.48 2.54 38.49 1.64 40.55 2.09 40.55 86.28 32.48 86.28 32.48 2.54" style="fill:none;stroke:#040006;stroke-miterlimit:10;stroke-width:0.75px"/><line x1="38.49" y1="1.64" x2="38.49" y2="86.28" style="fill:none;stroke:#040006;stroke-miterlimit:10;stroke-width:0.75px"/><polyline points="40.55 86.28 40.63 86.28 41.99 86.28 42.33 86.27 48.18 86.26 69.01 86.18 69.01 4.88 68 3.68 67.45 3.68 67.45 2.86 66.59 1.64 48.18 0.38 42.12 1.08 42.12 1.93 40.55 2.09" style="fill:none;stroke:#040006;stroke-miterlimit:10;stroke-width:0.75px"/><line x1="42.12" y1="1.94" x2="41.99" y2="86.28" style="fill:none;stroke:#040006;stroke-miterlimit:10;stroke-width:0.75px"/><line x1="48.18" y1="86.28" x2="48.18" y2="0.38" style="fill:none;stroke:#040006;stroke-miterlimit:10;stroke-width:0.75px"/><polygon points="69.06 120.81 69.06 212.79 66.48 213.55 48.18 213.55 42.33 212.98 40.58 212.81 38.55 212.62 32.62 212.05 32.62 119.81 66.48 119.81 69.06 120.81" style="fill:none;stroke:#040006;stroke-miterlimit:10;stroke-width:0.75px"/><line x1="48.18" y1="213.55" x2="48.18" y2="119.81" style="fill:none;stroke:#040006;stroke-miterlimit:10;stroke-width:0.75px"/><line x1="38.55" y1="212.62" x2="38.55" y2="119.81" style="fill:none;stroke:#040006;stroke-miterlimit:10;stroke-width:0.75px"/><line x1="42.33" y1="119.81" x2="42.33" y2="212.98" style="fill:none;stroke:#040006;stroke-miterlimit:10;stroke-width:0.75px"/><polyline points="38.55 338.97 38.07 338.89 32.62 338.03 32.62 245.8 38.55 245.8 39.97 245.8 40.57 245.8 42.32 245.8 42.33 245.8 48.18 245.8 66.48 245.8 69.06 246.28 69.06 336.45 66.48 339.54 48.18 340.5 42.2 339.56" style="fill:none;stroke:#040006;stroke-miterlimit:10;stroke-width:0.75px"/><polyline points="48.18 245.79 48.18 340.51 43.83 360.98 43.36 377.68" style="fill:none;stroke:#040006;stroke-miterlimit:10;stroke-width:0.75px"/><polyline points="39.97 343.51 38.55 344.26 38.55 245.79" style="fill:none;stroke:#040006;stroke-miterlimit:10;stroke-width:0.75px"/><path d="M69.06,210.35h6.49l2.1,1.55h0a.34.34,0,0,1-.11.59l-4.83,1.59s-.8.11-1.91.14c-.63,0-46.93-.19-46.93-.19s-1.77,0-1.85-.11,7.77-1.62,7.77-1.62a19.14,19.14,0,0,1,2.81-.26" style="fill:none;stroke:#040006;stroke-miterlimit:10;stroke-width:0.75px"/><line x1="22.04" y1="218" x2="22.04" y2="213.93" style="fill:none;stroke:#040006;stroke-miterlimit:10;stroke-width:0.75px"/><path d="M22,218h-.9a4.42,4.42,0,0,0-3.71,2.77s-.12,16.53,0,18.15,2.48,2.54,2.48,2.54l2.13,0c3.53.07,11,.2,18.53.32l1.76,0c8.93.15,17.58.28,19.65.28,4.61,0,6.41-1.07,6.41-1.07V217.55a30.92,30.92,0,0,1-7,.91L22,218.05V218" style="fill:none;stroke:#040006;stroke-miterlimit:10;stroke-width:0.75px"/><polyline points="32.62 336.46 12.2 347.03 3.59 355.47 0.45 371.05 7.31 372.17 12.88 372.17 36.1 375.55 36.1 376.62 43.36 377.68 94.15 373.75 95.67 372.06 94.54 365.82 98.59 365.42 99.49 363.79 96.68 349.11 70.36 336.46 69.06 336.46" style="fill:none;stroke:#040006;stroke-miterlimit:10;stroke-width:0.75px"/><polyline points="32.62 338.03 3.59 355.47 9.16 356.31" style="fill:none;stroke:#040006;stroke-miterlimit:10;stroke-width:0.75px"/><polyline points="38.55 338.6 9.16 356.31 7.31 372.17" style="fill:none;stroke:#040006;stroke-miterlimit:10;stroke-width:0.75px"/><polyline points="12.88 372.17 14.21 358.8 38.55 344.26" style="fill:none;stroke:#040006;stroke-miterlimit:10;stroke-width:0.75px"/><line x1="14.21" y1="358.8" x2="37.38" y2="362.18" style="fill:none;stroke:#040006;stroke-miterlimit:10;stroke-width:0.75px"/><polyline points="36.1 375.55 37.38 360.49 42.33 338.97 42.33 245.79" style="fill:none;stroke:#040006;stroke-miterlimit:10;stroke-width:0.75px"/><polyline points="66.31 339.53 67.75 339.53 68.86 338.46 67.37 338.32" style="fill:none;stroke:#040006;stroke-miterlimit:10;stroke-width:0.75px"/><polyline points="67.75 339.53 91.75 357.6 94.15 373.75" style="fill:none;stroke:#040006;stroke-miterlimit:10;stroke-width:0.75px"/><polyline points="94.54 365.82 92.8 356.31 91.75 357.6 43.83 360.98" style="fill:none;stroke:#040006;stroke-miterlimit:10;stroke-width:0.75px"/><line x1="68.87" y1="338.46" x2="92.8" y2="356.31" style="fill:none;stroke:#040006;stroke-miterlimit:10;stroke-width:0.75px"/><polyline points="68.24 337.44 69.7 337.44 95.65 350.18 98.59 365.42" style="fill:none;stroke:#040006;stroke-miterlimit:10;stroke-width:0.75px"/><line x1="96.68" y1="349.11" x2="95.65" y2="350.18" style="fill:none;stroke:#040006;stroke-miterlimit:10;stroke-width:0.75px"/><polyline points="86.25 351.43 91.45 353.63 91.56 355.39" style="fill:none;stroke:#040006;stroke-miterlimit:10;stroke-width:0.75px"/><path d="M22,241.5v3.43a.86.86,0,0,0,.86.86h9.72" style="fill:none;stroke:#040006;stroke-miterlimit:10;stroke-width:0.75px"/><path d="M77.66,211.9s.49.11.54,1.65,0,28.59,0,28.59a1.13,1.13,0,0,1-.54,1.15c-.7.42-4.6,2.5-4.6,2.5a5.73,5.73,0,0,1-1.89.34H68.39" style="fill:none;stroke:#040006;stroke-miterlimit:10;stroke-width:0.75px"/><path d="M50.53,223.1a.58.58,0,0,1,.43.18.47.47,0,0,1,.14.28v.1a.35.35,0,0,1-.09.25l-1.25,1.71H40.19l1-1.26,1-1.26h8.37m0-.75H41.79l-1.21,1.54-1.93,2.48H50.14l1.48-2a1.1,1.1,0,0,0,.22-.67s0,0,0,0a1.31,1.31,0,0,0-1.33-1.32Z" style="fill:#040006"/><path d="M47.12,227.85l-1.83,1.66-.49.45.38.54s1,1.41,1.61,2.28a5.25,5.25,0,0,1,.39.63,2.48,2.48,0,0,1,.27,1.07,2.8,2.8,0,0,1-.77,2,2.72,2.72,0,0,1-1.9.83h-4.2l-2.89,0-1.17-2.41h8.55l-.84-1.18-1.29-1.82-1.21-1.72,1.11-1,1.46-1.33h2.82m2-.75H44l-1.68,1.52-1.6,1.45,1.6,2.26,1.29,1.82h-8.3l1.9,3.91,3.35,0h4.21a3.49,3.49,0,0,0,3.42-3.62,3.29,3.29,0,0,0-.35-1.4,5,5,0,0,0-.45-.72c-.6-.87-1.6-2.28-1.6-2.28l3.27-3Z" style="fill:#040006"/><path d="M50.06,95a.58.58,0,0,1,.43.18.52.52,0,0,1,.14.35.49.49,0,0,1-.09.28l-1.26,1.7H39.72l2-2.51h8.38m0-.75H41.32l-3.14,4H49.66l1.48-2a1.12,1.12,0,0,0,.23-.66v0a1.29,1.29,0,0,0-1.31-1.32Z" style="fill:#040006"/><path d="M46.64,99.75l-1.82,1.66-.49.45.38.54s1,1.41,1.6,2.28a4.66,4.66,0,0,1,.39.62,3,3,0,0,1,.28,1.08,2.84,2.84,0,0,1-.79,2,2.73,2.73,0,0,1-1.89.82H40.62l-3.4,0-1.17-2.41h8.53l-.83-1.18-.8-1.14-1.7-2.4,1.59-1.43,1-.9h2.81M48.58,99h-5l-1.21,1.09-1.71,1.55-.36.33.36.51,1.71,2.43.8,1.14H34.85l1.9,3.91,3.87,0H44.3a3.5,3.5,0,0,0,3.43-3.62,3.79,3.79,0,0,0-.35-1.4,6.33,6.33,0,0,0-.46-.72c-.59-.87-1.6-2.28-1.6-2.28l3.26-3Z" style="fill:#040006"/><path d="M69,121.21h8.71l-4.66-2.47a13.76,13.76,0,0,0-3.09-.4c-1.33-.08-15.41.07-27.64.22l-1.71,0L24,118.79l-1.85.06L29,121.21h3.6" style="fill:none;stroke:#040006;stroke-linejoin:round;stroke-width:0.75px"/><path d="M32.48,85.72v.56H23.22A1.12,1.12,0,0,0,22.1,87.4v3.5" style="fill:none;stroke:#040006;stroke-miterlimit:10;stroke-width:0.75px"/><path d="M69,86.18h1.85a6.92,6.92,0,0,1,2.14.55c.62.4,4.72,3.55,4.72,3.55a3.84,3.84,0,0,1,.51,2c.06,1.35,0,28.34,0,28.34s0,.28-.51.62" style="fill:none;stroke:#040006;stroke-linejoin:round;stroke-width:0.75px"/><line x1="22.1" y1="118.85" x2="22.1" y2="114.56" style="fill:none;stroke:#040006;stroke-miterlimit:10;stroke-width:0.75px"/><path d="M68.16,90.62v23.44l-46.63.5s-3.93.18-4-2.85,0-17.89,0-17.89.4-3.2,4.56-2.92l18.53-.13h1.7l20.82-.14Z" style="fill:none;stroke:#040006;stroke-miterlimit:10;stroke-width:0.75px"/><polygon points="42.21 7.43 42.33 86.27 41.99 86.28 40.63 86.28 40.65 7.43 42.21 7.43" style="stroke:#040006;stroke-miterlimit:10;stroke-width:0.75px;fill:url(#光譜_3)"/><line x1="66.59" y1="1.64" x2="66.59" y2="86.28" style="fill:none;stroke:#040006;stroke-miterlimit:10;stroke-width:0.75px"/><line x1="66.59" y1="119.81" x2="66.59" y2="213.55" style="fill:none;stroke:#040006;stroke-miterlimit:10;stroke-width:0.75px"/><line x1="67.45" y1="3.68" x2="67.45" y2="86.18" style="fill:none;stroke:#040006;stroke-miterlimit:10;stroke-width:0.75px"/><line x1="67.45" y1="120.23" x2="67.45" y2="213.12" style="fill:none;stroke:#040006;stroke-miterlimit:10;stroke-width:0.75px"/><line x1="66.59" y1="245.83" x2="66.59" y2="339.53" style="fill:none;stroke:#040006;stroke-miterlimit:10;stroke-width:0.75px"/><line x1="67.45" y1="245.98" x2="67.45" y2="338.33" style="fill:none;stroke:#040006;stroke-miterlimit:10;stroke-width:0.75px"/></g></g></svg>