<svg xmlns="http://www.w3.org/2000/svg" viewBox="0 0 243.4 239.97"><defs><style>.cls-1,.cls-4{fill:none;}.cls-1,.cls-2,.cls-3,.cls-4{stroke:#1d1d1b;stroke-miterlimit:10;}.cls-1,.cls-2{stroke-width:0.69px;}.cls-2,.cls-3{fill:#fff;}.cls-3{stroke-width:1.39px;}.cls-4{stroke-width:1.04px;}.cls-5{fill:#1d1d1b;}</style></defs><title>Wolf120 vetor</title><g id="Layer_2" data-name="Layer 2"><g id="Camada_1" data-name="Camada 1"><path class="cls-1" d="M241.25,32.94,228,37.82l-3.42-.46a1.17,1.17,0,0,1,.9-.6c.55,0-.41-1.31-11.32.6S204,42.94,204,42.94s.3.8,2.62.53c0,0,.21-.7.62-.75a20,20,0,0,1,3.1,1.08s.24.34-.75.77-18.23,6.83-18.23,6.83l-3.95-.17L176.72,48"/><path class="cls-1" d="M176.24,53.41l10.7,3.14,3.94.15L203.17,52l.12,0c3-1.14,5.43-2.09,5.79-2.25s.7-.42.76-.56a.26.26,0,0,0,0-.14h0"/><line class="cls-1" x1="208.34" y1="48.35" x2="208.33" y2="48.35"/><path class="cls-1" d="M209,43.61h0l.5-.16a34.93,34.93,0,0,1,4.16-1c10.89-2,11.86-.69,11.3-.69a1.19,1.19,0,0,0-.9.6l3.42.45,13.2-5"/><path class="cls-1" d="M175.79,58.34l1.65.47,9.05,2.6,3.93.11,12.19-4.76.29-.11c2.95-1.16,5.35-2.11,5.71-2.27,1-.45.75-.77.75-.77s-1.23-.5-2.15-.81"/><path class="cls-1" d="M203,52.83a1.66,1.66,0,0,1,.14-.83,1.81,1.81,0,0,1,.14-.33h0c.49-.9,1.76-2.16,5-3.31h0c.49-.18,1-.35,1.63-.52.94-.27,2-.52,3.21-.75C224.06,45,225,46.3,224.47,46.3a1.17,1.17,0,0,0-.9.61l3.41.42,13-5h0l.14-.06"/><path class="cls-1" d="M175.4,62.76l1.39.39,9.3,2.61,3.93.09L202.29,61l.27-.11c2.92-1.17,5.28-2.12,5.63-2.28,1-.45.75-.78.75-.78s-.73-.29-1.5-.57"/><path class="cls-1" d="M202.84,57.31a.59.59,0,0,1-.22-.25,1.43,1.43,0,0,1,0-.3,2.61,2.61,0,0,1,.36-1h0c.5-.82,1.64-1.92,4.24-3a23.18,23.18,0,0,1,2.36-.79c.93-.28,2-.54,3.18-.78,10.87-2.17,11.83-.86,11.28-.85s-.89.61-.89.61l3.4.39,12.67-4.93"/><path class="cls-1" d="M175,67.71l.14,0,10.53,2.89,3.94.06,12.22-5,.37-.16c2.88-1.17,5.2-2.13,5.55-2.29,1-.47.75-.8.75-.8s-1.72-.67-2.62-.91"/><path class="cls-1" d="M238.71,50.91h0l0,0-12.57,5-3.41-.37a1.25,1.25,0,0,1,.9-.63c.55,0-.41-1.3-11.27,1-1.18.24-2.24.51-3.16.78-.61.19-1.16.37-1.67.55-2.93,1.09-4.26,2.24-4.84,3.13h0a2.46,2.46,0,0,0-.31.6"/><polyline class="cls-1" points="204.43 62.3 204.44 62.3 204.44 62.3"/><path class="cls-1" d="M238.09,54.64l-.06,0-12.38,5-3.4-.35s.34-.63.89-.63-.41-1.3-11.26,1c-1.18.26-2.22.53-3.14.81a23.14,23.14,0,0,0-2.89,1.06c-.37.16-.71.33-1,.49l-.4.24h0a6.65,6.65,0,0,0-2.14,1.82h0a2.17,2.17,0,0,0-.52,1.55.11.11,0,0,1,0,0,0,0,0,0,0,0,0,.9.9,0,0,0,.33.28"/><path class="cls-1" d="M206.73,65.83c.71.25,1.36.5,1.36.5s.23.33-.75.8c-.35.17-2.64,1.12-5.49,2.31l-.37.16h0l-12.26,5.07-3.93,0-10.67-2.87"/><path class="cls-1" d="M174.17,76.85l10.66,2.78h3.93s6.88-2.89,12.17-5.13l.53-.23,5.4-2.32c1-.48.75-.81.75-.81s-.88-.33-1.71-.61h0"/><path class="cls-1" d="M201.31,70.54a1.71,1.71,0,0,1,.16-.94h0a2.77,2.77,0,0,1,.42-.72h0c.65-.88,2-2,4.83-3h0c.47-.18,1-.35,1.54-.53.91-.28,1.95-.55,3.12-.82,10.83-2.4,11.8-1.11,11.24-1.1s-.89.65-.89.65l3.4.32,12.14-5,.07,0,.42-.17"/><path class="cls-1" d="M236.67,63.7l-.07,0-11.92,5-3.4-.31s.35-.63.9-.65S221.77,66.5,211,69c-1.17.27-2.2.55-3.12.85-.71.23-1.35.45-1.93.69h0a10.31,10.31,0,0,0-4.37,2.84h0a3,3,0,0,0-.6,1.1v0h0a1.57,1.57,0,0,0,0,.64"/><path class="cls-1" d="M205,75c.93.28,2.17.75,2.17.75s.24.32-.75.81c-.34.17-2.55,1.12-5.32,2.33l-.64.27h0l-12.12,5.22-3.93,0-10.65-2.71"/><path class="cls-1" d="M236,67.8l-.08,0-11.7,5-3.39-.28s.34-.64.89-.67-.41-1.29-11.22,1.26c-1.16.28-2.2.57-3.1.87s-1.74.62-2.44.92a10,10,0,0,0-3.8,2.58,2.93,2.93,0,0,0-.74,1.58h0a1.1,1.1,0,0,0,0,.27"/><path class="cls-1" d="M204.49,79.15h0c.93.27,2.24.75,2.24.75s.25.33-.74.82c-.34.16-2.51,1.14-5.26,2.35l-.68.3c-5.27,2.32-12.13,5.31-12.13,5.31l-3.91.06-10.64-2.65"/><path class="cls-1" d="M235.4,71.82l-.09,0-11.49,5-3.38-.26s.34-.64.89-.66-.42-1.3-11.21,1.32c-1.16.29-2.19.58-3.09.89h0a23.56,23.56,0,0,0-2.53,1h0a10.18,10.18,0,0,0-3.64,2.48h0a3,3,0,0,0-.79,1.74.58.58,0,0,0,0,.21"/><path class="cls-1" d="M204.36,83.39c.89.27,2,.66,2,.66s.25.33-.75.83c-.32.16-2.48,1.13-5.19,2.35l-.74.33L187.55,93l-3.91.08L173,90.46"/><path class="cls-1" d="M234.74,76.07h0l-.08,0-11.26,5L220,80.88s.34-.65.89-.67-.42-1.3-11.2,1.4c-1.15.3-2.18.6-3.08.91a22.74,22.74,0,0,0-2.25.87A10.68,10.68,0,0,0,200.5,86a3.17,3.17,0,0,0-.84,1.58,1.28,1.28,0,0,0,0,.43"/><path class="cls-1" d="M204.14,87.83c.85.25,1.78.59,1.78.59s.24.33-.75.83c-.32.17-2.45,1.14-5.13,2.37l-.78.36-12.1,5.5-3.92.1-10.62-2.51"/><path class="cls-1" d="M172.22,99.84l10.62,2.43,3.9-.12,12.09-5.6.84-.38c2.65-1.23,4.74-2.22,5.07-2.39,1-.51.75-.84.75-.84s-.94-.32-1.79-.58"/><path class="cls-1" d="M199.22,92.56a1.36,1.36,0,0,1,0-.58,3.64,3.64,0,0,1,.87-1.52,11.32,11.32,0,0,1,4-2.63c.59-.27,1.27-.53,2-.8.91-.32,1.93-.63,3.08-.93C220,83.31,221,84.58,220.44,84.61s-.89.68-.89.68l3.38.21,11-5,.08,0h0"/><path class="cls-1" d="M171.82,104.61,182.43,107l3.9-.16,12.08-5.68.88-.42c2.63-1.24,4.7-2.23,5-2.4,1-.52.74-.84.74-.84s-.95-.33-1.8-.58"/><path class="cls-1" d="M198.79,97.13a1.61,1.61,0,0,1,0-.58,3.81,3.81,0,0,1,.94-1.6,12,12,0,0,1,3.93-2.59c.6-.27,1.28-.54,2-.8.91-.33,1.93-.65,3.08-1C219.58,87.73,220.54,89,220,89s-.89.68-.89.68l3.38.2,10.76-5,.08,0h0"/><path class="cls-1" d="M232.64,89.34l0,0-.07,0L222,94.32l-3.36-.17s.33-.65.88-.69-.42-1.3-11.16,1.64c-1.15.31-2.18.64-3.08,1s-1.44.56-2,.83a12,12,0,0,0-3.87,2.57,3.72,3.72,0,0,0-1,1.67,1.36,1.36,0,0,0,0,.58"/><path class="cls-1" d="M202.84,101.45c.85.25,1.78.57,1.78.57s.25.32-.74.85c-.32.17-2.36,1.16-5,2.41l-.93.46-12.07,5.77-3.89.18-10.6-2.3"/><path class="cls-1" d="M231.93,93.8h0l-.07,0-10.25,4.9-3.37-.15s.34-.66.88-.69-.41-1.3-11.14,1.72c-1.16.33-2.19.66-3.09,1s-1.42.55-2,.83A12.31,12.31,0,0,0,199,104h0a3.79,3.79,0,0,0-1,1.74,1.32,1.32,0,0,0,0,.57"/><path class="cls-1" d="M202.4,106c.85.23,1.8.55,1.8.55s.24.31-.74.85c-.32.18-2.34,1.17-4.91,2.41h0l-1,.48c-5.24,2.57-12,5.87-12,5.87l-3.89.21-9.76-2-.1,0-.73-.15"/><path class="cls-1" d="M172.53,119.38h.07l8.62,1.76,3.9-.25s6.8-3.35,12-6l1-.51c2.55-1.27,4.54-2.28,4.87-2.45,1-.54.73-.86.73-.86s-.93-.31-1.78-.53"/><path class="cls-1" d="M197.52,110.92a1.66,1.66,0,0,1,0-.59,4,4,0,0,1,1.1-1.8,12.49,12.49,0,0,1,3.74-2.5c.59-.29,1.26-.57,2-.86.91-.34,1.94-.68,3.1-1,10.73-3.09,11.68-1.85,11.14-1.8s-.88.71-.88.71l3.36.12,10-4.85.06,0h.05"/><path class="cls-1" d="M173.09,124.36h0l7.69,1.52,3.88-.27,12-6.05,1.07-.54c2.52-1.27,4.49-2.28,4.81-2.46.57-.32.73-.56.76-.71a.15.15,0,0,0,0-.06.13.13,0,0,0,0-.09s-.93-.31-1.77-.53h0"/><path class="cls-1" d="M197.11,115.53a1.36,1.36,0,0,1,0-.58,4.07,4.07,0,0,1,1.13-1.87A13,13,0,0,1,202,110.6c.59-.28,1.25-.57,2-.86.91-.36,1.94-.71,3.11-1.06,10.71-3.18,11.67-1.94,11.13-1.88s-.88.71-.88.71l3.35.1,9.74-4.8.06,0,.05,0"/><path class="cls-1" d="M173.45,129.31h0l7,1.32,3.89-.3s6.79-3.46,12-6.14l1.1-.57h0c2.51-1.28,4.46-2.29,4.77-2.47a1.57,1.57,0,0,0,.73-.64.33.33,0,0,0,0-.18h0l0,0s-.94-.29-1.78-.51h0"/><path class="cls-1" d="M196.7,120.15a1.44,1.44,0,0,1,0-.58,4.15,4.15,0,0,1,1.18-1.92,13.2,13.2,0,0,1,3.66-2.47h0c.57-.28,1.23-.57,1.94-.86.92-.37,2-.74,3.14-1.09,10.7-3.26,11.65-2,11.1-2s-.88.72-.88.72l3.37.08,9.45-4.74.06,0,.06,0"/><path class="cls-1" d="M173.62,134.22h0l6.4,1.18,3.88-.32,12-6.24,1.13-.58h0c2.5-1.3,4.43-2.32,4.74-2.5a1.91,1.91,0,0,0,.71-.58c.11-.2,0-.3,0-.3h0c-.1,0-1-.3-1.76-.5h0"/><path class="cls-1" d="M196.28,124.79a1.41,1.41,0,0,1,0-.59,4.33,4.33,0,0,1,1.21-2,13.28,13.28,0,0,1,3.61-2.46h0c.57-.29,1.21-.58,1.93-.87.92-.37,2-.76,3.15-1.13,10.68-3.33,11.64-2.09,11.1-2s-.88.72-.88.72l3.35.06,9.19-4.68,0,0,.07,0"/><path class="cls-1" d="M173.61,139.1h0l6,1.07,3.87-.35s6.77-3.57,12-6.33l1.16-.62h0c2.47-1.31,4.4-2.33,4.7-2.51a2.12,2.12,0,0,0,.66-.53h0c.17-.24.07-.36.07-.36h0c-.17-.05-1-.3-1.73-.47h0"/><path class="cls-1" d="M195.88,129.43a1.48,1.48,0,0,1,0-.59,4.32,4.32,0,0,1,1.25-2h0a13.87,13.87,0,0,1,3.57-2.45h0c.57-.29,1.19-.58,1.89-.86.93-.39,2-.78,3.18-1.17,10.67-3.41,11.62-2.18,11.08-2.11s-.88.72-.88.72l3.35,0,8.91-4.62,0,0,.08,0"/><path class="cls-1" d="M227.68,120.87l-.09,0,0,0-8.62,4.53h-3.35s.33-.68.88-.74-.41-1.29-11.08,2.19c-1.2.41-2.27.81-3.19,1.2h0c-.7.29-1.31.59-1.87.88h0a13.46,13.46,0,0,0-3.53,2.44,4.45,4.45,0,0,0-1.28,2.06,1.4,1.4,0,0,0,0,.59"/><path class="cls-1" d="M199.9,133.6c.72.17,1.5.4,1.71.47h.06s.11.14-.1.41a2.57,2.57,0,0,1-.63.49c-.3.18-2.2,1.21-4.66,2.53l-1.18.64-12,6.42-3.87.38-5.85-1"/><path class="cls-1" d="M201.17,138.68l.1,0s.11.16-.15.45a2.52,2.52,0,0,1-.59.45c-.3.19-2.19,1.22-4.63,2.57l-1.21.66-11.94,6.5-3.87.4-5.87-.95h0"/><path class="cls-1" d="M227,125.43l-.08,0,0,0L218.49,130h-3.34s.33-.68.88-.75-.42-1.29-11.06,2.28c-1.21.41-2.29.83-3.22,1.23-.69.29-1.31.59-1.85.87a13.91,13.91,0,0,0-3.5,2.45,4.4,4.4,0,0,0-1.3,2.1"/><path class="cls-1" d="M172.41,153.58h0l6.07.95,3.87-.43,11.93-6.6,1.23-.67c2.42-1.36,4.3-2.41,4.6-2.59a2.64,2.64,0,0,0,.55-.42c.31-.32.18-.49.18-.49l-.13,0"/><path class="cls-1" d="M201.29,137.37h0c.94-.42,2-.84,3.25-1.27,10.65-3.65,11.6-2.43,11.05-2.35s-.87.75-.87.75l3.34,0,8-4.37,0,0,.09,0"/><path class="cls-1" d="M200.27,147.91l.18.06s.14.18-.24.53h0a2.93,2.93,0,0,1-.49.37c-.3.19-2.17,1.24-4.58,2.6l-1.25.71c-5.18,2.92-11.92,6.69-11.92,6.69l-3.85.46-6.5-1"/><path class="cls-1" d="M200.84,142c1-.44,2-.87,3.29-1.32,10.62-3.73,11.58-2.51,11-2.43s-.87.76-.87.76l3.33-.06,7.74-4.25,0,0,.11-.06"/><path class="cls-1" d="M199.82,152.56l.22.06s.15.19-.28.59a3.62,3.62,0,0,1-.45.32c-.3.19-2.15,1.26-4.56,2.63h0l-1.26.71c-5.17,3-11.9,6.79-11.9,6.79l-3.85.48-7.12-1"/><path class="cls-1" d="M200.39,146.66c1-.45,2.06-.91,3.33-1.36,10.61-3.8,11.56-2.59,11-2.51s-.87.77-.87.77l3.33-.08,7.44-4.16,0,0,.11-.06"/><path class="cls-1" d="M199.37,157.2l.27.07s.17.21-.34.64a4.61,4.61,0,0,1-.39.28c-.3.2-2.15,1.27-4.54,2.66-.4.24-.83.48-1.27.73-5.17,3-11.89,6.88-11.89,6.88l-3.85.52-8-1.1h0"/><path class="cls-1" d="M199.94,151.32h0c1-.45,2.08-.92,3.37-1.4,10.59-3.87,11.54-2.68,11-2.59s-.87.78-.87.78l3.32-.11,7.14-4h0l.12-.07"/><path class="cls-1" d="M167.87,172.62h0l9.11,1.19,3.84-.54s6.71-3.93,11.87-7l1.28-.75c2.39-1.4,4.22-2.49,4.52-2.68a2.93,2.93,0,0,0,.35-.25c.56-.46.38-.68.38-.68l-.31-.08"/><path class="cls-1" d="M223.32,148.53l-.13.08h0l-6.82,3.93-3.32.13s.33-.7.86-.79-.4-1.29-11,2.67c-1.3.49-2.43,1-3.41,1.45h0"/><path class="cls-1" d="M199,160.7c1-.5,2.14-1,3.47-1.51,10.56-4,11.51-2.84,11-2.74s-.87.79-.87.79l3.32-.16,6.5-3.79h0l.13-.08"/><path class="cls-1" d="M198.47,166.51l.37.1s.18.24-.45.74l-.28.19c-.3.2-2.13,1.31-4.51,2.73l-1.28.76-11.86,7.06-3.85.56-9.9-1.22-.56-.07"/><path class="cls-1" d="M198,171.19a4.09,4.09,0,0,1,.43.1s.2.25-.51.79l-.22.16c-.3.19-2.13,1.31-4.5,2.74l-1.29.78-11.84,7.15-3.83.6-10.46-1.24"/><path class="cls-1" d="M198.57,165.4c1-.5,2.17-1,3.52-1.56,10.56-4.11,11.51-2.92,11-2.83s-.87.8-.87.8l3.32-.17,6.18-3.66h0l.15-.08"/><path class="cls-1" d="M198.12,170.11c1-.53,2.19-1.06,3.57-1.62,10.54-4.18,11.49-3,11-2.89s-.87.8-.87.8l3.31-.19,5.85-3.52h0l.15-.08"/><path class="cls-1" d="M165.44,187.2l10.44,1.16,3.84-.62s6.69-4.08,11.83-7.24l1.28-.78c2.37-1.46,4.18-2.59,4.49-2.79l.15-.11c.79-.57.58-.84.58-.84l-.49-.1"/><path class="cls-1" d="M197.66,174.84c1-.54,2.24-1.11,3.63-1.68,10.53-4.26,11.48-3.08,10.94-3s-.86.81-.86.81l3.31-.21,5.51-3.36h0l.16-.1"/><path class="cls-1" d="M197.1,180.57c.33.06.55.12.55.12s.23.28-.64.9l-.08,0c-.3.2-2.12,1.35-4.49,2.82l-1.28.79-11.81,7.33-3.83.65-10.44-1.09"/><path class="cls-1" d="M219.61,172.06l-.17.1-5.18,3.2-3.3.24s.33-.71.86-.82-.41-1.28-10.92,3.06a37.42,37.42,0,0,0-3.7,1.75"/><path class="cls-1" d="M196.65,185.27l.61.13s.24.3-.72,1l-.83.54-3.66,2.32c-5.22,3.29-13.07,8.21-13.07,8.21l-3.82.68-10.25-1-.18,0"/><path class="cls-1" d="M174.94,44.08l11.47,3,4.2.09s18.18-7,19.23-7.48.79-.82.79-.82a21.68,21.68,0,0,0-3.32-1c-.42.06-.64.8-.64.8-2.46.34-2.8-.48-2.8-.48s-.86-3.72,10.75-6.09,12.66-1,12.06-1a1.3,1.3,0,0,0-1,.66l3.65.38,13.55-5.32-.37-.75a2.48,2.48,0,0,0-1.86-1.38l-30.22-4.8-3.39.08L193,17.49,129.88,6.94l-4,0S96.83,1.71,94.57,1.38a44.28,44.28,0,0,0-5.06-.33L72.46,4.37l1,.25,3.07-.53,0,.57L58.14,8.39l-4.93.15,1.61-.22,0-.46-2.22-.45-20,4.28L49,16.18,53,16,68.59,19.8l1.18,1,53.84,12.47,4.62.09L152,38.56a7.12,7.12,0,0,0,4,2.11Z"/><path class="cls-1" d="M177.44,58.81a13.62,13.62,0,0,1-.65,4.34c-.16.53-.35,1.1-.59,1.7-.35.88-.72,1.86-1.09,2.9-2.08,5.61-4.43,12.79-4.43,12.79s-.81,4.27-3.12,4.68a174.76,174.76,0,0,1,2.78,21.27q.89,3.9,1.53,7.88c.28,1.66.52,3.34.73,5s.39,3.31.54,5,.25,3.3.34,4.95.15,3.27.16,4.9c0,1.09,0,2.19,0,3.28a1.09,1.09,0,0,1,0,.18c0,.48,0,.95,0,1.42h0l0,.93c0,.65,0,1.3-.07,1.95s-.07,1.32-.11,2c-.09,1.36-.19,2.71-.32,4,0,.27-.05.53-.08.8s-.08.78-.13,1.16c-.07.65-.15,1.29-.23,1.93s-.15,1.14-.23,1.71h0a1.38,1.38,0,0,1,0,.2c-.09.64-.18,1.26-.29,1.89s-.18,1.14-.29,1.72c0,0,0,.06,0,.08-.05.3-.1.6-.16.9s-.12.66-.19,1c-.26,1.27-.52,2.53-.81,3.76-.06.22-.1.42-.16.63a.19.19,0,0,0,0,.08l-.21.81c-.07.29-.15.59-.22.89-.21.79-.43,1.57-.65,2.34-.47,1.61-1,3.2-1.5,4.74h0c-.21.6-.42,1.18-.64,1.77a.13.13,0,0,0,0,.06h0v0c-.17,1-.34,2-.52,2.94a132.55,132.55,0,0,1-3.89,15.62,8.09,8.09,0,0,1,2.09,4.06,16.78,16.78,0,0,1,.42,2.39s2.15,11.73,3.7,18.51-.05,8.62-.05,8.62a20.82,20.82,0,0,1-4.83,5c-2.65,1.75-5.44-.93-7.18-2.83s-11.68-10.56-11.68-10.56a17.61,17.61,0,0,1-3.26-3.54,0,0,0,0,0,0,0,5.45,5.45,0,0,1-.31-.58c-.06-.16-.12-.32-.17-.49l-.29.28-.94.11-.21,0a51.92,51.92,0,0,1-9.78-.22l-.47-.06h0c-.62-.07-1.25-.17-1.91-.28a40.85,40.85,0,0,1-4.69.73c-.25,0-.52.06-.77.08,0,0,0,0,0,0a48,48,0,0,1-10.61-.28l-1.12-.17-.22,0-1.06-.18-.65-.13c-.22,0-.43-.08-.65-.13l-1.32-.28-1.3-.32-1-.27-1-.28c-.67-.19-1.33-.4-2-.62l-1.29-.44h0l-.73-.28-.65-.24a75.18,75.18,0,0,1-10.45-4.94h0l-.73-.42h0a88,88,0,0,1-9.76-6.59L67.62,161.89v0L65,152.67h0l-6-21.44h0l-.77-2.72-4.55-16.22-.81-2.93L47.38,89.69l-1.8-6.44L40.87,66.46h0l-2.13-7.61-2.62-9.35L32.88,37.93l-2.36-8.39s0-.05,0-.08l-.35-1.16c-1.81-5.91-.25-7.75-.25-7.75a22.91,22.91,0,0,1,4.82-5.13c2.7-1.94,5.68.11,7.53,1.62s12.39,8.27,12.39,8.27c2.6,1.8,3.59,2.78,4,3.87l.29-.3a57.36,57.36,0,0,1,15-1.17h.28c.54-.16,1.07-.3,1.61-.43l.17,0A51.52,51.52,0,0,1,83,26l.4-.05.39,0,.37,0,.35,0,1.79-.13c.56,0,1.13,0,1.7-.05s1.16,0,1.73,0h.7a61,61,0,0,1,12.69,1.59,66.12,66.12,0,0,1,12.32,4.21h0a79,79,0,0,1,17.61,11.06,80.17,80.17,0,0,1,14.11,8.27l.28.47c.46-1,1.51-1.51,4.23-2.13,0,0,11-2,13-2.77s5.12-1.51,7.73,2A44.67,44.67,0,0,1,177,56.37,6.25,6.25,0,0,1,177.44,58.81Z"/><line class="cls-1" x1="34.65" y1="37.41" x2="34.65" y2="37.4"/><path class="cls-1" d="M33.18,31.92c-.38-1.41-.78-2.79-1.13-4-1.41-4.64-.2-6.08-.2-6.08a17.83,17.83,0,0,1,3.78-4c2.11-1.52,4.46.1,5.91,1.29s9.7,6.48,9.7,6.48c2.86,2,3.23,2.68,3.32,4.14A3.65,3.65,0,0,1,53,32.39l-.09.08"/><path class="cls-1" d="M40.57,26c0,1.81-1.3,3-2.82,2.66a3.89,3.89,0,0,1-2.66-3.88c0-1.81,1.3-3,2.81-2.67A3.88,3.88,0,0,1,40.57,26Z"/><path class="cls-1" d="M42.25,26.66c-.07,2.93-2.1,4.85-4.55,4.3s-4.36-3.37-4.3-6.27,2.1-4.84,4.55-4.3S42.32,23.73,42.25,26.66Z"/><path class="cls-1" d="M155.08,51.11s8.66-1.6,10.21-2.16,4-1.17,6.06,1.55a35,35,0,0,1,3.56,6.36s1.14,2.23-.61,6.64S170,75.79,170,75.79s-1.1,5.74-4.46,2.94c-4-6.38-9.73-17.39-11.18-19.28s-3-4.15-2.83-5.57S152.09,51.8,155.08,51.11Z"/><path class="cls-1" d="M165.82,57c-.07,2,1.12,4,2.67,4.37s2.87-.89,2.95-2.9-1.12-4-2.67-4.37S165.9,55,165.82,57Z"/><path class="cls-1" d="M164.09,56.79c-.12,3.23,1.81,6.38,4.31,7s4.63-1.42,4.76-4.66-1.81-6.41-4.32-7.05S164.21,53.57,164.09,56.79Z"/><path class="cls-1" d="M148.56,218.34s7.79,6.8,9.16,8.28,3.55,3.58,5.64,2.21a16.35,16.35,0,0,0,3.78-3.93s1.23-1.44,0-6.75-2.9-14.5-2.9-14.5-.53-6.21-3.89-5.6c-4.26,3.69-10.4,10.83-11.89,11.77s-3.07,2.19-3,3.67S145.85,215.86,148.56,218.34Z"/><path class="cls-1" d="M158.86,219.23c.1-2,1.35-3.13,2.81-2.57s2.55,2.61,2.45,4.59-1.36,3.13-2.81,2.57S158.76,221.2,158.86,219.23Z"/><path class="cls-1" d="M157.26,218.34c.15-3.18,2.18-5,4.53-4.15s4.12,4.22,4,7.42-2.19,5-4.53,4.14S157.11,221.52,157.26,218.34Z"/><path class="cls-1" d="M34.43,157.23a.63.63,0,0,1,0-.13s.4-2.51,1.77-3.08c.59-.24,1.37-.12,2.37.72.76,1.15,1.58,2.45,2.41,3.83,3,5,6.37,10.92,8.06,13.64"/><path class="cls-1" d="M35.47,176.41h0"/><line class="cls-1" x1="37.16" y1="178.96" x2="37.15" y2="178.96"/><path class="cls-1" d="M30.31,78.87q-.9,4.22-1.41,8.68c-.29,2.62-.49,5.29-.58,8v0h0c0,.62,0,1.26,0,1.89a116.45,116.45,0,0,0,1.28,17.25c.13.91.28,1.83.43,2.74.07.46.16.92.25,1.37s.17.92.26,1.37.21,1.06.32,1.58c0,.14.06.29.09.42.15.7.3,1.38.46,2.07.54,2.4,1.16,4.77,1.84,7.14a.08.08,0,0,0,0,0v0a138.14,138.14,0,0,0,9.34,23.73h0q2.89,5.79,6.29,11.21a127.1,127.1,0,0,0,18.53,23.31c.28.28.55.55.83.81A102.74,102.74,0,0,0,78.1,199a88.55,88.55,0,0,0,10,6.56h0a76.92,76.92,0,0,0,10.75,5l1.38.51h0l1.29.44c.66.22,1.32.43,2,.62l1,.28c.33.1.65.19,1,.27s.86.23,1.3.32l1.31.29.66.13.46.09.19,0c.35.07.71.13,1.06.18l.22,0,1.12.16a47.85,47.85,0,0,0,11.52.11,44.16,44.16,0,0,0,8.28-1.75,45.22,45.22,0,0,0,7.68-3.22c.58-.3,1.15-.62,1.72-1,11.3-6.62,20.46-18.24,26.18-33.71h0v0c.23-.6.44-1.21.65-1.82q.81-2.32,1.5-4.75c.22-.77.44-1.55.64-2.34.07-.29.15-.59.22-.89s.13-.54.21-.81a.11.11,0,0,1,0-.08c.06-.2.1-.41.16-.62.28-1.24.55-2.5.81-3.77.07-.33.13-.67.19-1s.11-.59.16-.89c0,0,0-.06,0-.09.11-.56.2-1.15.29-1.72s.2-1.25.29-1.88a1.52,1.52,0,0,0,0-.21c.08-.56.16-1.13.23-1.7s.17-1.29.24-1.94c0-.38.09-.78.12-1.16l.08-.8c.14-1.32.24-2.67.33-4,0-.65.08-1.31.11-2s0-1.29.07-1.95c0-.31,0-.62,0-.92h0c0-.47,0-.94,0-1.42a1.09,1.09,0,0,0,0-.18c0-1.09,0-2.18,0-3.27,0-1.65-.08-3.29-.17-4.91s-.21-3.31-.36-4.95-.34-3.34-.56-5-.48-3.37-.76-5C165.37,77,143.3,44.14,115,31.31h0a60.31,60.31,0,0,0-24.47-5.67h0l-.79,0c-1.16,0-2.3,0-3.43.07-.6,0-1.2.07-1.79.12a54.76,54.76,0,0,0-10.63,1.91h0"/><path class="cls-1" d="M30.31,78.87q-.9,4.22-1.41,8.68c-.29,2.62-.49,5.29-.58,8v0h0c0,.62,0,1.26,0,1.89a116.45,116.45,0,0,0,1.28,17.25c.13.91.28,1.83.43,2.74.07.46.16.92.25,1.37s.17.92.26,1.37.21,1.06.32,1.58c0,.14.06.29.09.42.15.7.3,1.38.46,2.07.54,2.4,1.16,4.77,1.84,7.14a.08.08,0,0,0,0,0v0a138.14,138.14,0,0,0,9.34,23.73h0q2.89,5.79,6.29,11.21a127.1,127.1,0,0,0,18.53,23.31c.28.28.55.55.83.81A102.74,102.74,0,0,0,78.1,199a88.55,88.55,0,0,0,10,6.56h0a76.92,76.92,0,0,0,10.75,5l1.38.51h0l1.29.44c.66.22,1.32.43,2,.62l1,.28c.33.1.65.19,1,.27s.86.23,1.3.32l1.31.29.66.13.46.09.19,0c.35.07.71.13,1.06.18l.22,0,1.12.16a47.85,47.85,0,0,0,11.52.11,44.16,44.16,0,0,0,8.28-1.75,45.22,45.22,0,0,0,7.68-3.22c.58-.3,1.15-.62,1.72-1,11.3-6.62,20.46-18.24,26.18-33.71h0v0c.23-.6.44-1.21.65-1.82q.81-2.32,1.5-4.75c.22-.77.44-1.55.64-2.34.07-.29.15-.59.22-.89s.13-.54.21-.81a.11.11,0,0,1,0-.08c.06-.2.1-.41.16-.62.28-1.24.55-2.5.81-3.77.07-.33.13-.67.19-1s.11-.59.16-.89c0,0,0-.06,0-.09.11-.56.2-1.15.29-1.72s.2-1.25.29-1.88a1.52,1.52,0,0,0,0-.21c.08-.56.16-1.13.23-1.7s.17-1.29.24-1.94c0-.38.09-.78.12-1.16l.08-.8c.14-1.32.24-2.67.33-4,0-.65.08-1.31.11-2s0-1.29.07-1.95c0-.31,0-.62,0-.92h0c0-.47,0-.94,0-1.42a1.09,1.09,0,0,0,0-.18c0-1.09,0-2.18,0-3.27,0-1.65-.08-3.29-.17-4.91s-.21-3.31-.36-4.95-.34-3.34-.56-5-.48-3.37-.76-5C165.37,77,143.3,44.14,115,31.31h0a60.31,60.31,0,0,0-24.47-5.67h0l-.79,0c-1.16,0-2.3,0-3.43.07-.6,0-1.2.07-1.79.12a101,101,0,0,0-10.64,1.91"/><line class="cls-1" x1="43.65" y1="184.12" x2="43.64" y2="184.13"/><path class="cls-1" d="M68.19,190.28l-.81-.51"/><path class="cls-1" d="M33.05,154.58l.57-1.85a9,9,0,0,1,.74-2.3,2.84,2.84,0,0,1,2.06-1.76,163.87,163.87,0,0,1-3.2-17.16v0a.08.08,0,0,1,0,0c0-.12,0-.25-.05-.37-.65-2.25-1.25-4.51-1.78-6.78-.16-.68-.32-1.37-.47-2.06,0-.13-.06-.28-.09-.42-.11-.52-.22-1.06-.32-1.58s-.18-.91-.26-1.37-.18-.91-.25-1.37c-.16-.91-.31-1.82-.44-2.73a109.83,109.83,0,0,1-1.27-17.26c0-.63,0-1.27,0-1.89h0s0,0,0,0c.07-2.73.26-5.4.54-8,.33-3,.8-5.89,1.4-8.71"/><path class="cls-1" d="M74.43,15.24l-.1-4.51a10.84,10.84,0,0,0,5.59,1c3.38-.23,4.63-1.54,4.63-1.54l.2,5.12a6.64,6.64,0,0,1-4.63,1.91A7.33,7.33,0,0,1,74.43,15.24Z"/><polyline class="cls-1" points="74.17 10.24 77.06 6.79 81.27 6.66 84.65 9.59"/><path class="cls-1" d="M88.72,14.57l-.1-4.52a10.84,10.84,0,0,0,5.59,1c3.38-.23,4.63-1.54,4.63-1.54l.2,5.12a6.64,6.64,0,0,1-4.63,1.91A7.36,7.36,0,0,1,88.72,14.57Z"/><polyline class="cls-1" points="88.45 9.56 91.35 6.11 95.56 5.98 98.94 8.91"/><path class="cls-1" d="M99.78,8.94l-.1-4.51a11,11,0,0,0,5.59,1c3.39-.23,4.64-1.54,4.64-1.54L110.1,9a6.63,6.63,0,0,1-4.63,1.92A7.34,7.34,0,0,1,99.78,8.94Z"/><polyline class="cls-1" points="99.52 3.94 102.41 0.49 106.63 0.35 110 3.29"/><path class="cls-1" d="M60.2,14.22,60.1,9.7a10.84,10.84,0,0,0,5.59,1c3.39-.23,4.64-1.53,4.64-1.53l.19,5.11a6.64,6.64,0,0,1-4.63,1.91A7.33,7.33,0,0,1,60.2,14.22Z"/><polyline class="cls-1" points="59.94 9.22 62.83 5.76 67.05 5.63 70.42 8.56"/><path class="cls-1" d="M175.39,22.26l-.1-4.51A11,11,0,0,1,169.74,19c-3.39-.07-4.7-1.32-4.7-1.32l.05,5.12a6.58,6.58,0,0,0,4.7,1.7A7.34,7.34,0,0,0,175.39,22.26Z"/><polyline class="cls-1" points="175.42 17.25 172.37 13.94 168.16 13.99 164.92 17.08"/><path class="cls-1" d="M164.17,35.74l-.11-4.51a10.87,10.87,0,0,1-5.54,1.26c-3.39-.08-4.7-1.33-4.7-1.33l.05,5.12a6.58,6.58,0,0,0,4.7,1.7A7.34,7.34,0,0,0,164.17,35.74Z"/><polyline class="cls-1" points="164.2 30.74 161.15 27.42 156.94 27.48 153.7 30.56"/><path class="cls-1" d="M161.76,23.38l-.1-4.52a10.87,10.87,0,0,1-5.54,1.26c-3.39-.07-4.7-1.32-4.7-1.32l0,5.11a6.61,6.61,0,0,0,4.71,1.7A7.35,7.35,0,0,0,161.76,23.38Z"/><polyline class="cls-1" points="161.8 18.37 158.75 15.05 154.53 15.11 151.29 18.2"/><path class="cls-1" d="M188.89,22.3l-.1-4.51A10.85,10.85,0,0,1,183.25,19c-3.39-.07-4.7-1.32-4.7-1.32l0,5.12a6.61,6.61,0,0,0,4.71,1.7A7.32,7.32,0,0,0,188.89,22.3Z"/><polyline class="cls-1" points="188.93 17.29 185.88 13.98 181.66 14.04 178.42 17.12"/><polyline class="cls-1" points="219.44 172.2 235.72 69.81 242.56 26.05"/><path class="cls-2" d="M43.39,183.83h0m104.8-88.52s3.49-9.25,5.86-14.37,1-8,1-8a45.42,45.42,0,0,0-4.33-8.18c-2.55-3.59-5.76-3.19-7.78-2.72s-13.2,1.21-13.2,1.21c-2.76.3-3.83.71-4.29,1.59l-.28-.48a96.63,96.63,0,0,0-14.4-9.64,95.33,95.33,0,0,0-29.37-18c-.71-.27-1.41-.52-2.12-.76-1.56-.54-3.12-1-4.66-1.45l-1.53-.41-.09,0-1-.24-1-.23c-.64-.14-1.28-.28-1.92-.4a66.83,66.83,0,0,0-7.23-1,61,61,0,0,0-8.64-.1l-.63,0c-.77,0-1.52.13-2.27.23h-.08c-.49.05-1,.11-1.46.18l-.22,0c-.44-.09-.9-.17-1.33-.24,0,0,0,0,0,0h0a62,62,0,0,0-14.12-.69h-.3l-.29.26a7.37,7.37,0,0,0-2-2.44l-.24-.21c-.62-.54-1.4-1.16-2.37-1.89,0,0-12.06-8.57-14.25-10.42S8,12.47,5.26,14.08A15.85,15.85,0,0,0,.72,18.71S-.71,20.4,2,26.88s6.79,17.7,6.79,17.7S9.91,49,12.39,50.82a103,103,0,0,0-1.92,17.42A80.64,80.64,0,0,0,8.2,90.14v.42c0,.66,0,1.34.06,2,.05,1,.11,2.07.19,3.12s.17,2.07.28,3.11c.07.74.16,1.47.24,2.2a148,148,0,0,0,8.15,32.89c.22,1,.44,2.06.67,3,2,8.51,4.13,15.23,4.13,15.23-2,.09-2.23,4-2.23,4S18,165.11,16.8,170s.39,7.76.39,7.76A64.78,64.78,0,0,0,22.11,186c2.65,3.63,5.25,3.38,6.87,3s10.88-.66,10.88-.66c2.28-.19,3.13-.55,3.44-1.4l.28.48a103.28,103.28,0,0,0,9.1,7.42c.66.47,1.32.94,2,1.41a94.72,94.72,0,0,0,23.37,18.83l1.64.86c.52.26,1,.51,1.54.75l1.18.55a52.1,52.1,0,0,0,6.26,2.38l.84.24a38,38,0,0,0,18.4,1,38.59,38.59,0,0,0,11.66.74l.25-.26c.31,1.17,1.12,2.32,3.26,4.55,0,0,8.58,8.56,10.06,10.41s3.84,4.46,6.15,2.83a19,19,0,0,0,4.24-4.7s1.41-1.72.21-8.23c-.64-3.39-1.4-8.06-2-11.76h0c0-.1,0-.19,0-.29-.51-3.26-.87-5.69-.87-5.69a.67.67,0,0,0,0-.1h0c0-.09,0-.23,0-.41-.14-1.23-.61-4.31-2.07-5.74a133.77,133.77,0,0,0,4-16.25c.08-.46.16-.93.25-1.41a106.17,106.17,0,0,0,6-26.34c.15-1.39.27-2.8.38-4.22.05-.84.11-1.7.15-2.54l0-.39c0-.94.07-1.89.09-2.82,0-.6,0-1.2,0-1.81A129.3,129.3,0,0,0,147.25,120,164.73,164.73,0,0,0,145,99.49C147.28,99.31,148.18,95.31,148.18,95.31Zm-94.1,79c.52.71,1.05,1.4,1.58,2.1a0,0,0,0,0,0,0c.52.68,1,1.36,1.59,2l.26.33.17.22q-1.45-1.78-2.82-3.63Zm3.75,4.87a.94.94,0,0,1,.09.12l.2.25-.43-.54A.75.75,0,0,0,57.83,179.15Zm-1.43-1.81-.73-.93c.52.68,1,1.36,1.59,2C57,178.07,56.68,177.71,56.4,177.34Zm-.85-1.13c-.48-.62-.94-1.25-1.4-1.89q-2.77-3.81-5.3-7.86l-.27-.44v.15c.35.57.71,1.13,1.08,1.7l.93,1.42.26.39c.34.51.69,1,1,1.53s.76,1.1,1.15,1.65.68.95,1,1.42c.52.71,1.05,1.4,1.58,2.1a0,0,0,0,0,0,0l.73.93C56.11,177,55.83,176.59,55.55,176.21Zm-16.63,5.68a25.35,25.35,0,0,0-2-3.23m30.23,10.82q-1.94-1.92-3.8-3.93c-.75-.8-1.48-1.62-2.2-2.45-.41-.46-.82-.93-1.21-1.41s-.81-.95-1.19-1.43l-.6-.74q-1.69-2-3.25-4.17l-.79-1.07c-.35-.47-.7-.94-1-1.42s-.78-1.09-1.15-1.65-.7-1-1-1.53l-.26-.39-.93-1.42c-.37-.57-.73-1.13-1.08-1.7.09,2.58.11,4.17.11,4.17s0,.14,0,.39,0,.25,0,.4,0,.38.06.61h0c0,.05,0,.1,0,.16v0c0,.28.08.59.15.91,0,.13.05.26.08.39s.12.53.2.81a8,8,0,0,0,.26.83l.11.28a5.27,5.27,0,0,0,.23.53,6.54,6.54,0,0,0,.3.59.33.33,0,0,1,.06.1c.11.17.23.35.36.52.93,1.24,2.7,3.34,4.71,5.58"/><path class="cls-1" d="M24.3,27.19S14.85,20.47,13.13,19s-4.45-3.5-6.55-2.24A12.45,12.45,0,0,0,3,20.4S1.9,21.73,4,26.82,9.35,40.69,9.35,40.69s1.46,5.93,4.92,5.49c4-3.34,9.67-10,11.16-10.81s3.06-2,2.83-3.44S27.56,29.65,24.3,27.19Z"/><path class="cls-1" d="M12.93,26.06c.17,1.88-1,2.93-2.69,2.36A5.67,5.67,0,0,1,6.89,24c-.19-1.88,1-2.93,2.69-2.36A5.59,5.59,0,0,1,12.93,26.06Z"/><path class="cls-1" d="M14.8,27c.28,3-1.66,4.74-4.33,3.81a9.14,9.14,0,0,1-5.41-7.18c-.31-3,1.64-4.74,4.34-3.81A9,9,0,0,1,14.8,27Z"/><path class="cls-1" d="M133.17,65.64s8.76-.59,10.33-1a5.27,5.27,0,0,1,6.08,2.13,35.92,35.92,0,0,1,3.4,6.42s1.07,2.22-.79,6.23-4.58,11.27-4.58,11.27-1.21,5.36-4.45,2.39c-3.84-6.48-9.38-17.59-10.82-19.56s-3-4.3-2.8-5.66S130.14,66,133.17,65.64Z"/><path class="cls-1" d="M143.88,72.39a4.54,4.54,0,0,0,2.58,4.43c1.54.55,2.88-.55,3-2.45a4.49,4.49,0,0,0-2.57-4.43C145.35,69.39,144,70.49,143.88,72.39Z"/><path class="cls-1" d="M140.44,72.08c-.17,3.06,1.69,6.27,4.16,7.15s4.65-.89,4.86-4-1.65-6.27-4.15-7.15S140.62,69,140.44,72.08Z"/><path class="cls-1" d="M125.94,226s6.72,6.71,7.88,8.16,3,3.49,4.84,2.22a15,15,0,0,0,3.33-3.69s1.09-1.35.15-6.45-2.3-13.92-2.3-13.92-.37-6-3.35-5.48c-3.8,3.41-9.26,10.1-10.57,11s-2.69,2-2.66,3.46S123.6,223.58,125.94,226Z"/><path class="cls-1" d="M134.9,227.12c.1-1.89,1.21-3,2.47-2.39s2.18,2.55,2.07,4.45-1.23,3-2.48,2.39S134.79,229,134.9,227.12Z"/><path class="cls-1" d="M133.51,226.23c.17-3,2-4.77,4-3.86s3.53,4.13,3.33,7.18-2,4.78-4,3.86S133.35,229.28,133.51,226.23Z"/><path class="cls-1" d="M39.55,183.85c0,.2,0,.38,0,.55-.11,1-.64,1.37-2.8,1.55,0,0-7.28.22-8.54.52s-3.33.48-5.41-2.37a49.46,49.46,0,0,1-3.85-6.45s-1.26-2.23-.29-6.08,2.28-10.88,2.28-10.88.28-5.22,3.63-2.17c1.36,2.06,2.9,4.57,4.44,7.12.49.81,1,1.64,1.46,2.45s1,1.71,1.5,2.53c.61,1,1.17,2,1.7,2.88l1.56,2.62c.59,1,1,1.67,1.33,2.06l.35.48h0a25.35,25.35,0,0,1,2,3.23A4.69,4.69,0,0,1,39.55,183.85Z"/><path class="cls-1" d="M26.81,178.88A5.71,5.71,0,0,0,24,174.41c-1.41-.6-2.4.42-2.23,2.28a5.83,5.83,0,0,0,2.84,4.47C26,181.76,27,180.74,26.81,178.88Z"/><path class="cls-1" d="M28.34,179.29c-.26-3-2.31-6.23-4.57-7.2s-3.89.67-3.6,3.67S22.52,182,24.76,183,28.6,182.3,28.34,179.29Z"/><path class="cls-1" d="M104,136c-.2,16.65-10.28,26-22.63,21s-23.3-22.69-24.06-39.26,9.58-25.93,23-20.9S104.23,119.37,104,136Z"/><path class="cls-1" d="M43.38,183.83h0c3,3.91,6.1,7.61,9.3,11,8,8.57,16.61,15.53,25.38,20.24l1.63.86c.52.26,1,.52,1.55.75s.78.37,1.17.55a51.6,51.6,0,0,0,6.27,2.38c.28.09.55.17.84.24a37.31,37.31,0,0,0,33.45-6,.71.71,0,0,0,.14-.1c8.18-6.09,14.95-15.62,19.62-27.9a109.23,109.23,0,0,0,6.31-27.75c.15-1.39.27-2.8.37-4.22.06-.84.12-1.7.16-2.54V151c0-.94.07-1.89.09-2.82l0-1.81C150,99.19,121,51.71,81.41,36.76c-.7-.27-1.41-.52-2.12-.76-1.56-.54-3.12-1-4.65-1.45l-1.54-.41-.09,0A69.3,69.3,0,0,0,62,32.2a57.4,57.4,0,0,0-9.25-.11c-1.4.1-2.77.25-4.12.46a45.15,45.15,0,0,0-14.23,4.56h0C17.29,46,7.09,65.72,8.27,92.58c.05,1,.11,2.07.19,3.12s.17,2.07.28,3.11c.08.74.16,1.47.25,2.2A158.85,158.85,0,0,0,17.81,137a182.27,182.27,0,0,0,12.06,26.23c.47.85.95,1.69,1.44,2.53s1.08,1.86,1.65,2.78c.4.67.81,1.35,1.23,2,1.24,2,2.54,4,3.86,5.94.37.55.75,1.1,1.13,1.63"/><path class="cls-3" d="M43.38,183.83s6.11,7.61,9.31,11c8,8.57,16.61,15.53,25.38,20.24l1.63.86c.52.26,1,.52,1.55.75s.78.37,1.17.55a51.6,51.6,0,0,0,6.27,2.38c.28.09.55.17.84.24a37.31,37.31,0,0,0,33.45-6,.71.71,0,0,0,.14-.1c8.18-6.09,14.95-15.62,19.62-27.9a109.23,109.23,0,0,0,6.31-27.75c.15-1.39.27-2.8.37-4.22.06-.84.12-1.7.16-2.54V151c0-.94.07-1.89.09-2.82l0-1.81C150,99.19,121,51.71,81.41,36.76c-.7-.27-1.41-.52-2.12-.76-1.56-.54-3.12-1-4.65-1.45l-1.54-.41-.09,0A69.3,69.3,0,0,0,62,32.2a57.4,57.4,0,0,0-9.25-.11c-1.4.1-2.77.25-4.12.46a45.15,45.15,0,0,0-14.23,4.56h0C17.29,46,7.09,65.72,8.27,92.58c.05,1,.11,2.07.19,3.12s.17,2.07.28,3.11c.08.74.16,1.47.25,2.2A158.85,158.85,0,0,0,17.81,137a182.27,182.27,0,0,0,12.06,26.23c.47.85.95,1.69,1.44,2.53s1.08,1.86,1.65,2.78c.4.67.81,1.35,1.23,2,1.24,2,2.54,4,3.86,5.94.37.55.75,1.1,1.13,1.63Z"/><path class="cls-4" d="M51.9,183.11c9.28,10.87,19.71,19.34,30.36,24A39.49,39.49,0,0,0,100,210.87h0c22.49-.91,39.74-24.19,41.92-59.91,2.78-44.76-24.84-91.62-62.45-104.77C41.06,32.84,12.79,57.8,17,102c1.66,17.72,7.43,35.94,15.79,52.3q.68,1.34,1.38,2.64a148.65,148.65,0,0,0,15.74,23.79Z"/><path class="cls-1" d="M99.89,134.23c-.09,13.63-8.38,21.33-18.58,17.17s-19.13-18.59-19.69-32.17S69.53,98,80.46,102.1,100,120.58,99.89,134.23Z"/><path class="cls-1" d="M74.35,95.41s-7-19.17-28-32.3c-4.82-2.6-8.29-4.66-8.29-4.66s-3.6-2.18-5.17-.7c-2.13,2-7.68,10.11-8.25,13.47-.86,2.29-.83,4.21,1.7,5.8s13.34,4.49,17.23,5.53S52.17,86.93,54,88.44,64.09,98.57,64.09,98.57"/><path class="cls-1" d="M62.87,100S49.55,85.5,30.52,87c-4.1.7-7.13,1-7.13,1s-3.14.26-3.34,2.94c-.27,3.64.38,16.22,1.63,20.22.57,3.07,1.48,5.09,3.66,4.95s9.85-5,12.65-6.74,7.18-1.72,9-1.52,10.82,3,10.82,3"/><path class="cls-1" d="M57.54,113.09s-14.78-5.5-25.71,9.69C29.7,126.49,28,129,28,129a6.74,6.74,0,0,0-.68,5.59c1.42,4.12,7.16,17.24,9.55,20.64,1.61,2.9,3,4.4,4.22,2.61S45,145.13,46,141.18a18.46,18.46,0,0,1,4.91-8.27C52.1,131.78,59,128.1,59,128.1"/><path class="cls-1" d="M67.29,144.87a1.31,1.31,0,0,1,0,.14c-.37,1.21-2.88,9.57-3.15,11.57a42.81,42.81,0,0,0,.32,12.6c.91,4.59,3.24,16.7,3.52,20.8,0,.11,0,.21,0,.31a4.5,4.5,0,0,1,0,.51c-.07,2.93-1.48,2.43-3.57.64-1.72-1.07-5.74-5.2-9.11-9-2-2.24-3.78-4.34-4.71-5.58a10.75,10.75,0,0,1-1.74-5,15.27,15.27,0,0,1-.13-1.57s0-1.59-.11-4.17c0-1.52-.11-3.39-.22-5.47.08-23.91,10.93-29.72,11.5-30h0"/><path class="cls-1" d="M68.7,146.76s-4.88,14.73,4.76,40.74c2.31,5.75,3.84,9.94,3.84,9.94s1.54,4.35,3.6,5.4c2.79,1.42,11.75,4.18,14.16,3.6,2,.09,3.12-.6,2.13-3.72S89.4,187.56,86.9,183.21a59,59,0,0,1-5.06-12.86c-.65-2.46-2.53-14.24-2.53-14.24"/><path class="cls-1" d="M81.17,156.82S83.8,176,99.87,195c3.62,4,6.16,7,6.16,7s2.58,3.15,4.36,2.45c2.43-1,9.69-5.92,11.21-8.59,1.47-1.65,2-3.31.2-5.57s-11-8.65-14.35-11-6.93-6.91-8.31-8.9-7.25-12.48-7.25-12.48"/><path class="cls-1" d="M93.45,157.35s9,17.58,27.35,23.67c4.07,1,7,1.86,7,1.86s3,1,4.12-1.22c1.49-3,5.24-13.9,5.42-17.76.53-2.83.34-4.9-1.89-5.62s-11.51.44-14.84.85-7.64-1.34-9.38-2.22-9.94-6.85-9.94-6.85"/><path class="cls-1" d="M102.08,148.08s13.25,10.23,29,1.12c3.42-2.43,6-4,6-4a5.61,5.61,0,0,0,2.65-4.58c0-4.09-1.64-17.58-3.1-21.42-.79-3.11-1.81-4.94-3.8-3.84S124.38,125,122.1,128a17,17,0,0,1-7.7,5.34c-1.61.52-10.16,1.15-10.16,1.15"/><path class="cls-1" d="M103.75,132.27s13.71,0,21.76-21c1.59-4.94,2.89-8.4,2.89-8.4s1.39-3.54.08-6.4c-1.79-3.89-8.87-15.7-11.67-18.33-2-2.44-3.55-3.47-4.54-1s-2,15.48-2.32,20.16a29.92,29.92,0,0,1-3.35,11c-.95,1.72-6.6,8.49-6.6,8.49"/><path class="cls-1" d="M98.91,114.8s9.8-10.34,6.47-36.82c-1.08-6-1.72-10.27-1.72-10.27s-.62-4.44-2.9-6.29c-3.1-2.52-13.72-9.07-16.94-9.7-2.55-1-4.14-.95-3.62,2.21S86.08,70.63,88,75.52a47.38,47.38,0,0,1,2.6,13.32c.1,2.41-.88,13.31-.88,13.31"/><path class="cls-1" d="M87.79,100.71S89.8,83.09,75,59.35c-3.65-5.14-6.19-8.94-6.19-8.94s-2.62-4-5-4.2c-3.3-.32-13.45.54-15.82,2.15-2.13.74-3.09,1.93-1.18,4.77s12,12.71,15.56,16.27a51.68,51.68,0,0,1,8,11.51c1.19,2.35,5.72,14.49,5.72,14.49"/><path class="cls-1" d="M104,136c-.2,16.65-10.28,26-22.63,21s-23.3-22.69-24.06-39.26,9.58-25.93,23-20.9S104.23,119.37,104,136Z"/><path class="cls-5" d="M149.14,100.36a119.07,119.07,0,0,1,8.75,26.46A115.18,115.18,0,0,1,160,140.66a104,104,0,0,1,.37,14,95.93,95.93,0,0,1-5.39,27.41,127.74,127.74,0,0,1-11.87,25.23,138.72,138.72,0,0,0,6-12.55c1.82-4.26,3.47-8.6,4.86-13a99.83,99.83,0,0,0,5-27.14A119.85,119.85,0,0,0,156.79,127a136.51,136.51,0,0,0-3.18-13.51A122.94,122.94,0,0,0,149.14,100.36Z"/><path class="cls-1" d="M114.2,56.34s20.4-3,18.87-13.88"/></g></g></svg>