<svg xmlns="http://www.w3.org/2000/svg" xmlns:xlink="http://www.w3.org/1999/xlink" viewBox="0 0 192 192">
  <defs>
    <style>
      .cls-1, .cls-10, .cls-13, .cls-14, .cls-15, .cls-16, .cls-19, .cls-6, .cls-7, .cls-8, .cls-9 {
        fill: none;
      }

      .cls-1, .cls-2 {
        stroke: #707070;
      }

      .cls-12, .cls-17, .cls-2, .cls-4, .cls-5 {
        fill: #fff;
      }

      .cls-3 {
        clip-path: url(#clip-path);
      }

      .cls-10, .cls-12, .cls-13, .cls-14, .cls-15, .cls-16, .cls-17, .cls-5, .cls-6, .cls-7, .cls-8, .cls-9 {
        stroke: #1d1d1b;
      }

      .cls-10, .cls-12, .cls-13, .cls-15, .cls-16, .cls-5, .cls-7, .cls-8, .cls-9 {
        stroke-miterlimit: 10;
      }

      .cls-5, .cls-6, .cls-9 {
        stroke-width: 0.259px;
      }

      .cls-14, .cls-17, .cls-6 {
        stroke-linejoin: round;
      }

      .cls-14, .cls-17, .cls-7, .cls-8 {
        stroke-width: 0.777px;
      }

      .cls-8, .cls-9 {
        stroke-linecap: round;
      }

      .cls-10 {
        stroke-width: 0.153px;
      }

      .cls-11 {
        fill: #1d1d1b;
      }

      .cls-12 {
        stroke-width: 0.194px;
      }

      .cls-13 {
        stroke-width: 0.236px;
      }

      .cls-15 {
        stroke-width: 0.249px;
      }

      .cls-16 {
        stroke-width: 0.13px;
      }

      .cls-18 {
        stroke: none;
      }
    </style>
    <clipPath id="clip-path">
      <circle id="Ellipse_228" data-name="Ellipse 228" class="cls-1" cx="94.795" cy="94.795" r="94.795"/>
    </clipPath>
  </defs>
  <g id="Group_439" data-name="Group 439" transform="translate(-4540 -1752)">
    <g id="Group_438" data-name="Group 438">
      <g id="Ellipse_285" data-name="Ellipse 285" class="cls-2" transform="translate(4540 1752)">
        <circle class="cls-18" cx="96" cy="96" r="96"/>
        <circle class="cls-19" cx="96" cy="96" r="95.5"/>
      </g>
      <g id="Group_395" data-name="Group 395" transform="translate(4484 241)">
        <g id="Mask_Group_40" data-name="Mask Group 40" class="cls-3" transform="translate(56 1512.41)">
          <g id="Mizano_Diagonal" data-name="Mizano Diagonal" transform="translate(27 -12.25)">
            <g id="Camada_1" data-name="Camada 1">
              <g id="Base" transform="translate(0 327.923)">
                <g id="base-2" data-name="base">
                  <path id="Path_5522" data-name="Path 5522" class="cls-4" d="M107.039,168.288a11.463,11.463,0,0,1,9.514,4.919c3.633,5.264,0,12.107,0,12.107-1.95,10.073-10.7,9.579-10.7,9.579-12.887-.13-11.048-15.519-11.048-15.519l-.13-10.729S99.462,172.07,107.039,168.288Z" transform="translate(141.823 -74.365)"/>
                  <path id="Path_5523" data-name="Path 5523" class="cls-5" d="M77.42,152.956l-.247,1.261s-1.69-.1-3.594,7.759l20.308,5.043s2.794-9.858-2.437-12.451l-2.164-.78-2.9.448v-1.631Z" transform="translate(110.011 -98.017)"/>
                  <path id="Path_5524" data-name="Path 5524" class="cls-4" d="M11.534,167.687A11.476,11.476,0,0,0,2.007,172.6c-3.633,5.27,0,12.113,0,12.113,1.95,10.066,10.7,9.579,10.7,9.579,12.887-.13,11.048-15.519,11.048-15.519l.13-10.736S19.111,171.45,11.534,167.687Z" transform="translate(-0.37 -75.271)"/>
                  <path id="Path_5525" data-name="Path 5525" class="cls-5" d="M40.128,152.527l.247,1.254s1.69-.1,3.587,7.759l-20.3,5.049s-2.794-9.858,2.437-12.451l2.164-.786,2.9.455v-1.664Z" transform="translate(33.598 -98.713)"/>
                  <path id="Path_5526" data-name="Path 5526" class="cls-4" d="M54.024,180.862v2.2H50.04l-1.352,2.957.253,18.482,1.482,3.334h4.01s.728-.741.65-4.075,0-4.172,0-4.172l6.551-.052v6.414s.214,1.885.65,1.885h4a11.779,11.779,0,0,0,1.911-4.075c.279-1.839-.045-17.293-.045-17.293l-1.482-3.412H62.387l-.13-1.358Z" transform="translate(72.47 -55.401)"/>
                  <path id="Path_5527" data-name="Path 5527" class="cls-6" d="M14.577,168.024l-.221,10-.383.24a10.363,10.363,0,0,0-3.106-5.121A11.892,11.892,0,0,0,6.9,171.052v-2.015" transform="translate(9.448 -74.763)"/>
                  <circle id="Ellipse_263" data-name="Ellipse 263" class="cls-7" cx="10.703" cy="10.703" r="10.703" transform="translate(1.651 97.615)"/>
                  <path id="Path_5528" data-name="Path 5528" class="cls-8" d="M2.021,184.9a20.8,20.8,0,0,1-1.638-6.5,10.7,10.7,0,0,1,10.736-10.677" transform="translate(-0.383 -75.216)"/>
                  <path id="Path_5529" data-name="Path 5529" class="cls-9" d="M.415,178.456c0-5.907,6.063-10.352,11.977-10.352" transform="translate(-0.337 -74.642)"/>
                  <circle id="Ellipse_264" data-name="Ellipse 264" class="cls-7" cx="1.839" cy="1.839" r="1.839" transform="translate(10.716 106.511)"/>
                  <path id="Path_5530" data-name="Path 5530" class="cls-7" d="M5.475,170.431a56.309,56.309,0,0,0,.286,6.167c.24.318.474.52,1.144,0a43.841,43.841,0,0,0,3.3-4.64" transform="translate(7.295 -71.133)"/>
                  <path id="Path_5531" data-name="Path 5531" class="cls-7" d="M10.193,171.6s-3.776,4.5-3.776,4.874,0,.715.871.747a43.668,43.668,0,0,0,5.517-1.391" transform="translate(8.717 -69.363)"/>
                  <path id="Path_5532" data-name="Path 5532" class="cls-7" d="M12.884,174.04s-5.849,0-6.167.253-.526.481,0,1.15a45.2,45.2,0,0,0,4.614,3.321" transform="translate(8.684 -65.689)"/>
                  <path id="Path_5533" data-name="Path 5533" class="cls-7" d="M11.447,178.623A56.606,56.606,0,0,0,6.4,175.068c-.37.013-.708.059-.7.91a44.636,44.636,0,0,0,1.638,5.446" transform="translate(7.639 -64.138)"/>
                  <path id="Path_5534" data-name="Path 5534" class="cls-7" d="M7.713,170.436a56.488,56.488,0,0,1,.065,6.167c-.221.318-.448.552-1.15.065a43.863,43.863,0,0,1-3.555-4.439" transform="translate(3.673 -71.125)"/>
                  <path id="Path_5535" data-name="Path 5535" class="cls-7" d="M3.971,171.747s4.016,4.283,4.049,4.627,0,.708-.832.793A44.441,44.441,0,0,1,1.6,176.088" transform="translate(1.449 -69.148)"/>
                  <path id="Path_5536" data-name="Path 5536" class="cls-7" d="M1.625,174.65a56.075,56.075,0,0,1,6.167-.1c.318.221.559.442.071,1.144a44.535,44.535,0,0,1-4.419,3.574" transform="translate(1.488 -65.033)"/>
                  <path id="Path_5537" data-name="Path 5537" class="cls-7" d="M3.083,179.684a57.329,57.329,0,0,1,4.218-4.5c.364-.065.708-.084.877.747a44.045,44.045,0,0,1-.507,5.667" transform="translate(3.688 -64.01)"/>
                  <path id="Path_5538" data-name="Path 5538" class="cls-7" d="M94.511,167.373v12.2l.364.266a10.394,10.394,0,0,1,3.444-4.9,11.9,11.9,0,0,1,4.1-1.82l.136-2.014" transform="translate(141.581 -75.744)"/>
                  <circle id="Ellipse_265" data-name="Ellipse 265" class="cls-7" cx="10.937" cy="10.937" r="10.937" transform="translate(236.008 98.921)"/>
                  <path id="Path_5539" data-name="Path 5539" class="cls-7" d="M107.682,185.543a17.285,17.285,0,0,0,1.683-5.849c.4-5.894-3.061-11-8.961-11.4" transform="translate(150.467 -74.353)"/>
                  <path id="Path_5540" data-name="Path 5540" class="cls-10" d="M110.77,179.578c.4-5.9-5.42-10.534-11.32-10.931" transform="translate(149.029 -73.821)"/>
                  <path id="Path_5541" data-name="Path 5541" class="cls-10" d="M112.78,180.2c-.9-8.448-7.863-11.574-14.947-10.339" transform="translate(146.59 -72.391)"/>
                  <circle id="Ellipse_266" data-name="Ellipse 266" class="cls-7" cx="1.839" cy="1.839" r="1.839" transform="translate(245.132 107.804)"/>
                  <path id="Path_5542" data-name="Path 5542" class="cls-7" d="M101.909,170.949a57.6,57.6,0,0,1-.7,6.128c-.253.279-.513.494-1.144-.078a44.847,44.847,0,0,1-2.976-4.848" transform="translate(145.465 -70.351)"/>
                  <path id="Path_5543" data-name="Path 5543" class="cls-7" d="M98.205,171.954s3.464,4.744,3.438,5.121-.071.708-.916.682A44.413,44.413,0,0,1,95.346,176" transform="translate(142.839 -68.835)"/>
                  <path id="Path_5544" data-name="Path 5544" class="cls-7" d="M95.265,174.312s5.849.416,6.135.65.494.507-.071,1.144a43.806,43.806,0,0,1-4.835,3" transform="translate(142.718 -65.279)"/>
                  <path id="Path_5545" data-name="Path 5545" class="cls-7" d="M96.087,178.746s4.9-3.249,5.27-3.2.7.1.65.949A42.377,42.377,0,0,1,100,181.814" transform="translate(143.957 -63.423)"/>
                  <path id="Path_5546" data-name="Path 5546" class="cls-7" d="M99.87,171s-.682,5.849-.481,6.154.409.578,1.137.143a44.159,44.159,0,0,0,3.847-4.192" transform="translate(148.881 -70.273)"/>
                  <path id="Path_5547" data-name="Path 5547" class="cls-7" d="M104.474,172.459a56.381,56.381,0,0,0-4.354,4.367c-.052.37-.065.708.773.845a44.888,44.888,0,0,0,5.647-.7" transform="translate(150.009 -68.073)"/>
                  <path id="Path_5548" data-name="Path 5548" class="cls-7" d="M106.492,175.642s-5.849-.715-6.148-.513-.585.4-.149,1.137a43.974,43.974,0,0,0,4.172,3.867" transform="translate(149.817 -64.101)"/>
                  <path id="Path_5549" data-name="Path 5549" class="cls-7" d="M103.893,180.522a57.8,57.8,0,0,0-3.9-4.783c-.357-.091-.7-.136-.916.689a44.842,44.842,0,0,0,.117,5.686" transform="translate(148.354 -63.198)"/>
                  <path id="Path_5550" data-name="Path 5550" class="cls-4" d="M25.9,158.513a1.151,1.151,0,0,1-.305-.377c-.24-.409-1.046-2.69-1.54-4.114a2.7,2.7,0,0,1,2.21-.078c0,2.073-.1,4.25-.149,4.451C26.058,158.481,26,158.559,25.9,158.513Z" transform="translate(35.321 -96.296)"/>
                  <path id="Path_5551" data-name="Path 5551" class="cls-11" d="M26.748,157.409c.7.338,1.612.832,2.119,1.111a1.825,1.825,0,0,1,0,.188v.188c-.7-.383-1.573-.851-2.2-1.157a3.462,3.462,0,0,0-.806-.331s-.123.085-.13.15a1.54,1.54,0,0,0,.117.448c.195.526,1.625,2.879,2.229,3.847l-.136.221c-.429-.7-1.95-3.249-2.2-3.834a1.95,1.95,0,0,1-.156-.812.422.422,0,0,1,.227-.39,2.683,2.683,0,0,1,.942.37Z" transform="translate(37.614 -91.331)"/>
                  <path id="Path_5552" data-name="Path 5552" class="cls-11" d="M26.52,153.89a30.574,30.574,0,0,1-.214,4.731c-.1.136-.175.214-.312.149a1.17,1.17,0,0,1-.37-.448c-.305-.52-1.3-3.444-1.631-4.328a1.3,1.3,0,0,1,.162-.091c.494,1.423,1.3,3.7,1.54,4.114a1.15,1.15,0,0,0,.305.377c.1.046.156,0,.214-.117.052-.2.117-2.378.149-4.451Z" transform="translate(35.223 -96.177)"/>
                  <path id="Path_5553" data-name="Path 5553" class="cls-11" d="M23.121,155.45l.039-.357.045.045a3.41,3.41,0,0,1-.052.344Z" transform="translate(33.91 -94.266)"/>
                  <path id="Path_5554" data-name="Path 5554" class="cls-11" d="M23.406,157.6h0c.039.117.078.227.123.344l-.078.039Z" transform="translate(34.34 -90.491)"/>
                  <g id="Group_393" data-name="Group 393" transform="translate(55.862 54.826)">
                    <path id="Path_5555" data-name="Path 5555" class="cls-11" d="M23.1,156.177v-.162a1.469,1.469,0,0,1,0,.169Z" transform="translate(-21.98 -147.7)"/>
                    <path id="Path_5556" data-name="Path 5556" class="cls-11" d="M26.2,157.385c.162.078.338.266.4.975a36.622,36.622,0,0,1-.4,4l-.156-.117a36.394,36.394,0,0,0,.4-3.854c0-.435-.11-.565-.234-.65a.379.379,0,0,0-.11-.039,16.732,16.732,0,0,0-2.132,2.1c-.058-.091-.1-.175-.156-.273a15.6,15.6,0,0,1,2.281-2.216Z" transform="translate(-20.913 -145.743)"/>
                    <path id="Path_5557" data-name="Path 5557" class="cls-4" d="M25.762,157.186a3.459,3.459,0,0,1,.806.331c.65.305,1.508.773,2.2,1.157a6.889,6.889,0,0,1-.793,2.957c-.6-.968-2.034-3.321-2.229-3.847a1.541,1.541,0,0,1-.117-.448C25.638,157.27,25.729,157.212,25.762,157.186Z" transform="translate(-18.166 -145.934)"/>
                    <path id="Path_5558" data-name="Path 5558" class="cls-4" d="M25.464,158.847a.488.488,0,0,1-.195-.3c-.052-.279,0-2.476.071-4.549a7.461,7.461,0,0,1,2.164,2.313,15.968,15.968,0,0,1-1.729,2.463A.338.338,0,0,1,25.464,158.847Z" transform="translate(-18.745 -150.74)"/>
                    <path id="Path_5559" data-name="Path 5559" class="cls-11" d="M26.411,158.207a1.072,1.072,0,0,1-.195.65,10.467,10.467,0,0,1-2.125,1.378c-.045-.11-.084-.227-.13-.338a11.164,11.164,0,0,0,2.158-1.378.65.65,0,0,0,.136-.325.91.91,0,0,0-.123-.286,18.526,18.526,0,0,0-2.463-1.3l-.461-.227v-.39l.585.286a13.22,13.22,0,0,1,2.437,1.358,1.209,1.209,0,0,1,.182.572Z" transform="translate(-21.823 -147.736)"/>
                    <path id="Path_5560" data-name="Path 5560" class="cls-11" d="M26.377,158.875a1.248,1.248,0,0,1-.065.474c-.078.149-.227.175-.474.078h0a26.048,26.048,0,0,1-2.6-2.223.782.782,0,0,1,.052-.344,28,28,0,0,0,2.56,2.19h0c.24.1.325.052.357,0a.416.416,0,0,0,0-.175c-.1-.409-1.17-2.976-1.872-4.607.045-.059.1-.11.143-.162C26.377,158.492,26.377,158.791,26.377,158.875Z" transform="translate(-21.776 -150.58)"/>
                    <path id="Path_5561" data-name="Path 5561" class="cls-4" d="M25.687,156.232a1.774,1.774,0,0,1,.708,1.046,2.268,2.268,0,0,1,.1.708c-.032.65-.435,1.027-.89.8h-.052a1.8,1.8,0,0,1-.728-1.033,2.314,2.314,0,0,1-.1-.715c.032-.65.442-1.027.9-.8Z" transform="translate(-19.534 -147.463)"/>
                    <path id="Path_5562" data-name="Path 5562" class="cls-11" d="M26.615,157.3a2.989,2.989,0,0,1,.136,1.007c-.039.89-.5,1.358-1.066,1.085H25.64a2.093,2.093,0,0,1-.838-1.215,3.158,3.158,0,0,1-.13-1.007c.045-.9.52-1.345,1.085-1.072h0A2.1,2.1,0,0,1,26.615,157.3Zm0,.916a2.268,2.268,0,0,0-.1-.708,1.774,1.774,0,0,0-.728-1.046h-.039c-.461-.227-.871.13-.9.8a2.313,2.313,0,0,0,.1.715,1.8,1.8,0,0,0,.728,1.033h.052c.455.227.858-.136.89-.8" transform="translate(-19.616 -147.693)"/>
                    <path id="Path_5563" data-name="Path 5563" class="cls-11" d="M25.661,157.641c.188.1,1.826,3.028,2.456,4.159l-.162.156c-.877-1.579-2.158-3.834-2.307-3.938s-.292-.1-.312.37.325,2.677.585,4.257l-.182-.006c-.195-1.176-.6-3.756-.578-4.322C25.213,157.439,25.493,157.563,25.661,157.641Z" transform="translate(-18.878 -145.33)"/>
                    <path id="Path_5564" data-name="Path 5564" class="cls-4" d="M25.231,158.162c0-.474.1-.474.312-.37a37.217,37.217,0,0,1,2.307,3.938,2.56,2.56,0,0,1-2.034.682C25.556,160.84,25.211,158.578,25.231,158.162Z" transform="translate(-18.772 -145.104)"/>
                    <path id="Path_5565" data-name="Path 5565" class="cls-11" d="M26.994,157.072v.383h0a1.505,1.505,0,0,0-.032-.383Z" transform="translate(-16.161 -146.106)"/>
                    <path id="Path_5566" data-name="Path 5566" class="cls-11" d="M33.878,160.26a17.4,17.4,0,0,1,.747,5.745c-.227,5.036-2.95,7.74-6.135,6.187l-.26-.136c-2.028-1.131-3.828-3.737-4.815-6.992a17.377,17.377,0,0,1-.747-5.738c.227-5.043,2.95-7.74,6.141-6.187l.253.13C31.09,154.412,32.89,157.011,33.878,160.26Zm-.045,5.277a12.847,12.847,0,0,0-.572-4.263c-.858-2.814-2.45-5.095-4.27-6.109l-.247-.13c-2.755-1.345-5.1.728-5.283,4.75a12.828,12.828,0,0,0,.572,4.263c.858,2.807,2.456,5.095,4.27,6.109l.24.123c2.755,1.345,5.108-.715,5.29-4.744" transform="translate(-22.655 -152.7)"/>
                    <path id="Path_5567" data-name="Path 5567" class="cls-11" d="M25.285,153.965l.156.1c-.078,2.06-.123,4.257-.071,4.549a.488.488,0,0,0,.195.3.338.338,0,0,0,.312-.059,15.972,15.972,0,0,0,1.729-2.463l.149.247a17.394,17.394,0,0,1-1.826,2.6.4.4,0,0,1-.377.059.806.806,0,0,1-.3-.461,33.935,33.935,0,0,1,.032-4.868Z" transform="translate(-18.846 -150.791)"/>
                    <path id="Path_5568" data-name="Path 5568" class="cls-4" d="M29.383,161.825a2.684,2.684,0,0,1,.955.37c.7.338,1.612.832,2.119,1.111v-1.04a13.543,13.543,0,0,1-2.651-.461H29.76a.962.962,0,0,1-.455-.546,1.573,1.573,0,0,1-.039-.526c0-.1,0-.377,2.093-2.775a11.341,11.341,0,0,0-.591-1.157,17.392,17.392,0,0,1-1.826,2.6.4.4,0,0,1-.377.059.806.806,0,0,1-.3-.461,33.935,33.935,0,0,1,0-4.848l-.136-.084-.214-.111-.208-.091a30.576,30.576,0,0,1-.214,4.731c-.1.137-.175.214-.312.149a1.17,1.17,0,0,1-.37-.448c-.305-.52-1.3-3.444-1.631-4.328a2.944,2.944,0,0,0-.65.513c1.885,4.406,1.885,4.685,1.885,4.789a1.247,1.247,0,0,1-.065.474c-.078.149-.227.176-.474.078h0a26.043,26.043,0,0,1-2.6-2.223c-.032.253-.058.52-.071.793s0,.533,0,.806l.585.286a13.22,13.22,0,0,1,2.437,1.358,1.209,1.209,0,0,1,.2.65,1.072,1.072,0,0,1-.195.65,10.471,10.471,0,0,1-2.125,1.378,11.449,11.449,0,0,0,.65,1.3,15.6,15.6,0,0,1,2.281-2.216l.11.046c.162.078.338.266.4.975a36.626,36.626,0,0,1-.4,4c.13.085.26.169.4.247l.214.11a3.634,3.634,0,0,0,.949.267c-.195-1.176-.6-3.756-.578-4.322,0-.884.312-.741.481-.65s1.826,3.028,2.456,4.159a3.708,3.708,0,0,0,.435-.552c-.429-.7-1.95-3.249-2.2-3.834a1.949,1.949,0,0,1-.156-.812A.422.422,0,0,1,29.383,161.825Zm-.409-.266c-.039.89-.5,1.358-1.066,1.085h-.045a2.093,2.093,0,0,1-.838-1.215,3.158,3.158,0,0,1-.13-1.007c.045-.9.52-1.345,1.085-1.072h0a2.1,2.1,0,0,1,.832,1.215,2.99,2.99,0,0,1,.136,1.007" transform="translate(-21.838 -150.944)"/>
                    <path id="Path_5569" data-name="Path 5569" class="cls-4" d="M23.668,156.369l-.461-.227a12.405,12.405,0,0,0,.52,2.833c.071.241.149.474.234.708a11.162,11.162,0,0,0,2.158-1.378.65.65,0,0,0,.136-.325.911.911,0,0,0-.123-.286,18.526,18.526,0,0,0-2.463-1.326Z" transform="translate(-21.823 -147.509)"/>
                    <path id="Path_5570" data-name="Path 5570" class="cls-4" d="M25.828,158.962h0a28,28,0,0,1-2.58-2.2,5.537,5.537,0,0,1,1.085-2.6c.7,1.631,1.768,4.2,1.872,4.607a.416.416,0,0,1,0,.175C26.153,159.014,26.069,159.066,25.828,158.962Z" transform="translate(-21.761 -150.498)"/>
                    <path id="Path_5571" data-name="Path 5571" class="cls-4" d="M26.381,158.157a36.392,36.392,0,0,1-.4,3.854,8,8,0,0,1-2.106-2.443,16.738,16.738,0,0,1,2.132-2.1.38.38,0,0,1,.11.039C26.238,157.618,26.316,157.722,26.381,158.157Z" transform="translate(-20.819 -145.508)"/>
                    <path id="Path_5572" data-name="Path 5572" class="cls-4" d="M25.676,158.21a24.624,24.624,0,0,1,2.067-2.6,12.173,12.173,0,0,1,.448,1.241,13.29,13.29,0,0,1,.487,2.417,13.563,13.563,0,0,1-2.6-.448h-.045a.741.741,0,0,1-.351-.37A.6.6,0,0,1,25.676,158.21Z" transform="translate(-18.113 -148.31)"/>
                    <path id="Path_5573" data-name="Path 5573" class="cls-11" d="M26.191,158.977a13.562,13.562,0,0,0,2.6.448v.383a13.542,13.542,0,0,1-2.651-.461h-.045a.962.962,0,0,1-.455-.546,1.573,1.573,0,0,1-.039-.526c0-.1,0-.377,2.093-2.781.045.1.091.2.13.3a24.624,24.624,0,0,0-2.067,2.6.6.6,0,0,0,0,.195.741.741,0,0,0,.351.37Z" transform="translate(-18.225 -148.486)"/>
                  </g>
                  <path id="Path_5574" data-name="Path 5574" class="cls-4" d="M32.781,160.11a12.848,12.848,0,0,1,.572,4.263c-.182,4.029-2.534,6.089-5.29,4.744l-.24-.123c-1.813-1.014-3.412-3.3-4.27-6.109a12.828,12.828,0,0,1-.572-4.263c.182-4.023,2.528-6.1,5.283-4.75l.247.13C30.337,155.016,31.923,157.3,32.781,160.11Zm.247,4.133a11.639,11.639,0,0,0,0-1.345v-.383a16.468,16.468,0,0,0-.565-2.755,9.753,9.753,0,0,0-3.945-5.693l-.208-.111c-2.32-1.131-4.335.435-4.861,3.639l-.045-.045-.039.357.032.032c-.039.279-.065.572-.078.871s0,.7,0,1.053v.163a14.6,14.6,0,0,0,.591,3.249c.052.182.11.357.175.533l.045.383.078-.039a9.168,9.168,0,0,0,3.639,4.822l.221.11c2.6,1.3,4.8-.858,4.978-4.854" transform="translate(33.686 -96.724)"/>
                  <g id="Group_394" data-name="Group 394" transform="translate(193.207 55.753)">
                    <path id="Path_5575" data-name="Path 5575" class="cls-11" d="M82.08,155.81h0l.032.377h0A2.326,2.326,0,0,1,82.08,155.81Z" transform="translate(-70.375 -148.937)"/>
                    <path id="Path_5576" data-name="Path 5576" class="cls-11" d="M81.782,157.787c.039-.11.084-.227.123-.344h0v.383Z" transform="translate(-70.825 -146.475)"/>
                    <path id="Path_5577" data-name="Path 5577" class="cls-11" d="M79.831,154.141l.149-.071c.149,1.989.344,4.062.429,4.27.065.065.13.13.234.078a1.026,1.026,0,0,0,.344-.4c.273-.461,1.17-3.087,1.508-4.1l.182.065c-.286.858-1.3,3.815-1.605,4.348a1.131,1.131,0,0,1-.4.461c-.136.065-.234,0-.338-.11A27.807,27.807,0,0,1,79.831,154.141Z" transform="translate(-73.767 -151.797)"/>
                    <path id="Path_5578" data-name="Path 5578" class="cls-11" d="M81.235,157.67c.182-.091.416-.123.494.65a39.076,39.076,0,0,1-.4,4.218l-.169.033c.2-1.547.461-3.756.422-4.153s-.117-.442-.318-.344l-.065.032c-.149.091-1.475,2.4-2.391,4.023l-.188-.137c.526-.942,2.333-4.146,2.541-4.257Z" transform="translate(-75.6 -146.202)"/>
                    <path id="Path_5579" data-name="Path 5579" class="cls-11" d="M81.156,154.139a28.039,28.039,0,0,1,.312,4.672c-.091.24-.162.4-.318.468a.487.487,0,0,1-.409,0,16.531,16.531,0,0,1-2.21-2.314l.156-.247a14.829,14.829,0,0,0,2.08,2.177.41.41,0,0,0,.351,0c.123-.052.175-.2.234-.351.033-.253-.143-2.346-.344-4.315Z" transform="translate(-75.729 -151.457)"/>
                    <path id="Path_5580" data-name="Path 5580" class="cls-11" d="M80.743,157.328c.286-.136.481-.214.526-.188a.409.409,0,0,1,.279.37,1.689,1.689,0,0,1-.136.806c-.214.6-1.82,3.191-2.268,3.9-.052-.059-.111-.124-.162-.195.741-1.176,2.132-3.444,2.313-3.958a1.144,1.144,0,0,0,.1-.429s0-.065-.156-.123a1.4,1.4,0,0,0-.39.149c-.65.312-1.95,1.04-2.937,1.6v-.37C78.489,158.537,79.951,157.7,80.743,157.328Z" transform="translate(-76.655 -146.939)"/>
                    <path id="Path_5581" data-name="Path 5581" class="cls-11" d="M81.4,158.165a1.539,1.539,0,0,1,0,.487.955.955,0,0,1-.487.6l-.078.045a19.242,19.242,0,0,1-2.95.7v-.39a19,19,0,0,0,2.9-.65l.071-.039a.825.825,0,0,0,.39-.422.441.441,0,0,0,0-.156,25.445,25.445,0,0,0-2.5-2.314l.13-.292C81.4,157.8,81.4,158.055,81.4,158.165Z" transform="translate(-76.71 -149.05)"/>
                    <path id="Path_5582" data-name="Path 5582" class="cls-11" d="M88.5,158.329c0,.26.046.526.052.793v.39a12.1,12.1,0,0,1-.338,2.69q-.123.513-.292,1.014c-.039.117-.084.234-.123.344a9.631,9.631,0,0,1-3.834,5.023l-.4.214c-2.781,1.3-5.3-.507-5.719-4.276a10.391,10.391,0,0,1-.058-1.3c0-.123,0-.253,0-.383a12.2,12.2,0,0,1,.325-2.2,10.237,10.237,0,0,1,4.25-6.388l.4-.214c2.476-1.176,4.75.149,5.511,3.119a2.737,2.737,0,0,1,.078.331,8.1,8.1,0,0,1,.156.838Zm-.188.916a7.357,7.357,0,0,0-.045-.767c-.032-.266-.071-.52-.123-.767a1.244,1.244,0,0,0-.084-.331A4.705,4.705,0,0,0,86.678,155l-.169-.136a2.969,2.969,0,0,0-.747-.429l-.182-.065a3.555,3.555,0,0,0-2.515.156l-.149.071-.085.039c-.13.059-.26.13-.39.2l-.162.1-.149.1a8.357,8.357,0,0,0-2.32,2.456l-.156.247a11.049,11.049,0,0,0-.611,1.17l-.13.292a12.3,12.3,0,0,0-.572,1.755,11.048,11.048,0,0,0-.286,1.859v.39c0,.338,0,.65.033,1v.37a5.706,5.706,0,0,0,1.066,2.762c.052.071.11.136.162.195a3.084,3.084,0,0,0,.526.487l.188.136a3.249,3.249,0,0,0,2.352.442l.169-.032a4.7,4.7,0,0,0,.929-.331l.409-.214c.149-.084.3-.182.442-.279l.149-.111a8.858,8.858,0,0,0,2.216-2.541l.156-.273a11.152,11.152,0,0,0,.65-1.345l.13-.344A10.913,10.913,0,0,0,88,161.9a10.708,10.708,0,0,0,.3-2.268q0-.2,0-.39" transform="translate(-76.851 -152.249)"/>
                    <path id="Path_5583" data-name="Path 5583" class="cls-11" d="M80.578,158.386a1.066,1.066,0,0,1,.188-.65,25.606,25.606,0,0,1,3.327-1.885v.39a27.676,27.676,0,0,0-3.249,1.807.78.78,0,0,0-.123.279.5.5,0,0,0,.162.279,12.344,12.344,0,0,0,2.534,1.118l-.13.344a11.512,11.512,0,0,1-2.469-1.111A.877.877,0,0,1,80.578,158.386Z" transform="translate(-72.642 -148.874)"/>
                    <path id="Path_5584" data-name="Path 5584" class="cls-4" d="M80.578,158.818c.1-.422,1.176-3.022,1.865-4.653a4.705,4.705,0,0,1,1.384,2.385,29.489,29.489,0,0,1-2.788,2.385h0c-.3.13-.39.071-.422,0A.652.652,0,0,1,80.578,158.818Z" transform="translate(-72.642 -151.418)"/>
                    <path id="Path_5585" data-name="Path 5585" class="cls-11" d="M81.7,157.121a2.6,2.6,0,0,1-.058.884,2.2,2.2,0,0,1-.9,1.358l-.084.039c-.6.286-1.124-.117-1.215-.955a2.443,2.443,0,0,1,.065-.89,2.177,2.177,0,0,1,.89-1.352l.071-.039C81.08,155.88,81.613,156.276,81.7,157.121Zm-.195.689a1.664,1.664,0,0,0,.045-.585c-.071-.65-.533-.929-1.04-.689l-.078.039a1.911,1.911,0,0,0-.793,1.176,1.7,1.7,0,0,0-.046.591c.071.65.533.929,1.027.689l.091-.045a1.891,1.891,0,0,0,.793-1.176" transform="translate(-74.366 -148.539)"/>
                    <path id="Path_5586" data-name="Path 5586" class="cls-4" d="M80.421,156.308c.507-.24.968.059,1.04.689a1.664,1.664,0,0,1-.045.585,1.891,1.891,0,0,1-.793,1.176l-.091.045c-.494.24-.955-.065-1.027-.689a1.7,1.7,0,0,1,.045-.591,1.911,1.911,0,0,1,.793-1.176Z" transform="translate(-74.272 -148.31)"/>
                    <path id="Path_5587" data-name="Path 5587" class="cls-11" d="M89.989,158.578a13.114,13.114,0,0,1-.325,4.549c-.8,3.308-2.716,6.18-4.991,7.506-.162.084-.318.175-.474.247-3.249,1.553-6.226-.6-6.719-5.01a13.446,13.446,0,0,1,.325-4.549c.806-3.3,2.716-6.18,5-7.506l.461-.24C86.532,152.021,89.5,154.153,89.989,158.578Zm-.546,4.211a11.86,11.86,0,0,0,.292-4.042c-.455-4.088-3.249-6.044-6.395-4.549-.162.078-.318.162-.474.253a11.573,11.573,0,0,0-4.835,7.207,12.041,12.041,0,0,0-.3,4.042c.461,4.094,3.282,6.037,6.408,4.549.156-.078.312-.156.468-.247a11.639,11.639,0,0,0,4.835-7.213" transform="translate(-77.414 -153.07)"/>
                    <path id="Path_5588" data-name="Path 5588" class="cls-12" d="M89.577,158.369c-.455-4.087-3.249-6.044-6.395-4.549-.162.078-.318.162-.474.253a11.573,11.573,0,0,0-4.835,7.207,12.041,12.041,0,0,0-.3,4.042c.461,4.094,3.282,6.037,6.408,4.549.156-.078.312-.156.468-.247a11.64,11.64,0,0,0,4.835-7.213,11.861,11.861,0,0,0,.292-4.042Zm-.611,1.586a12.1,12.1,0,0,1-.338,2.69q-.123.513-.292,1.014v.383l-.1-.039a9.631,9.631,0,0,1-3.834,5.023l-.4.214c-2.781,1.3-5.3-.507-5.719-4.276-.046-.416-.065-.845-.078-1.3v-.383h.045a12.2,12.2,0,0,1,.325-2.2,10.237,10.237,0,0,1,4.25-6.388l.4-.214c2.476-1.176,4.75.149,5.511,3.119l.071-.065.052.357-.046.039a8.1,8.1,0,0,1,.136.825c0,.26.045.526.052.793l.033.377h0" transform="translate(-77.254 -152.691)"/>
                    <path id="Path_5589" data-name="Path 5589" class="cls-11" d="M82.046,155.007l.052.357-.046.039a2.744,2.744,0,0,0-.078-.331Z" transform="translate(-70.536 -150.148)"/>
                    <path id="Path_5590" data-name="Path 5590" class="cls-11" d="M81.139,159.021a29.483,29.483,0,0,0,2.788-2.385,1.551,1.551,0,0,0,.084.331,28.538,28.538,0,0,1-2.846,2.43h0c-.292.123-.448.11-.546-.052a1.124,1.124,0,0,1-.091-.442c0-.11,0-.37,1.852-4.8l.169.136c-.689,1.631-1.761,4.231-1.865,4.653a.653.653,0,0,0,0,.143c.033.052.123.11.422,0Z" transform="translate(-72.716 -151.504)"/>
                    <path id="Path_5591" data-name="Path 5591" class="cls-11" d="M80.517,157.365l.117-.046a15.3,15.3,0,0,1,2.7,1.9l-.156.273a16.161,16.161,0,0,0-2.521-1.8.306.306,0,0,0-.1.039c-.169.078-.253.214-.266.65a31.065,31.065,0,0,0,.65,3.659l-.149.11a29.4,29.4,0,0,1-.65-3.808C80.153,157.645,80.341,157.45,80.517,157.365Z" transform="translate(-73.302 -146.664)"/>
                    <path id="Path_5592" data-name="Path 5592" class="cls-4" d="M80.472,157.507a.307.307,0,0,1,.1-.039,16.157,16.157,0,0,1,2.521,1.8,8.856,8.856,0,0,1-2.216,2.541,31.065,31.065,0,0,1-.65-3.659C80.187,157.722,80.271,157.618,80.472,157.507Z" transform="translate(-73.187 -146.436)"/>
                    <path id="Path_5593" data-name="Path 5593" class="cls-4" d="M81.023,158.824a.409.409,0,0,1-.351,0,14.828,14.828,0,0,1-2.079-2.177,8.357,8.357,0,0,1,2.32-2.456c.2,1.95.377,4.062.344,4.315C81.2,158.623,81.147,158.772,81.023,158.824Z" transform="translate(-75.635 -151.379)"/>
                    <path id="Path_5594" data-name="Path 5594" class="cls-4" d="M81.4,157.408a1.144,1.144,0,0,1-.1.429c-.182.513-1.573,2.781-2.313,3.958a5.706,5.706,0,0,1-1.066-2.762c.968-.559,2.281-1.3,2.937-1.6a1.405,1.405,0,0,1,.39-.149C81.341,157.343,81.393,157.382,81.4,157.408Z" transform="translate(-76.655 -146.713)"/>
                    <path id="Path_5595" data-name="Path 5595" class="cls-4" d="M80.863,158.75l-.071.039a19.01,19.01,0,0,1-2.9.65,11.051,11.051,0,0,1,.286-1.859,12.307,12.307,0,0,1,.572-1.755,25.447,25.447,0,0,1,2.5,2.32.442.442,0,0,1,0,.156.826.826,0,0,1-.383.448Z" transform="translate(-76.69 -148.913)"/>
                    <path id="Path_5596" data-name="Path 5596" class="cls-11" d="M77.782,157.683V157.3h.045v.383Z" transform="translate(-76.858 -146.69)"/>
                  </g>
                  <path id="Path_5597" data-name="Path 5597" class="cls-4" d="M115.1,130.841l-.052,12.2s-1.027.877-.715,6.538c0,0-1.521.033-1.644,4.361s-.9,26.644-.9,26.644-18.8-8.045-47.842-3.633c0,0-7.194,1.228-7.753,4.549s.175,4.211.175,4.211l2.508.461,8.663-.123.071-1.241a105.959,105.959,0,0,1,11.795,1.482c4.25.949,8.9,2.21,10.255,2.957l.084.409s-14,3.054-15.9,3.49-25.214,6.278-30.706,8S19.4,209.389,19.4,209.389L6.674,214.933s-3.119,2.339-1.82,7.941a4.2,4.2,0,0,0,.448.383c1.3.981,5.387,3.3,12.386.351l1.326-2.437s38.595-12.484,64.92-15.415,24.9-3.061,24.9-3.061,4.549-.8,5.231,4.646,2.95,44.106,2.95,44.106.786,6.174,7.98,5.933,8.935-3.314,8.935-3.314.793-.65.975-4.484L137,205.068s1.885-1.638,5.849-1.02,19.275,2.411,19.275,2.411,19.067,2.515,30.732,5.459,38.25,10.4,38.25,10.4l1.4,2.547s4.731,2.781,8.1,1.371a25.862,25.862,0,0,1,4.634-1.625s1.95-6.836-2.9-9.02-31.615-14.108-60.5-19.912l-22-4.906s6.1-4.081,19.606-5.075,11.2-.539,11.2-.539v1.664l2.9-.455s1.56-5-1.8-6.707-9.923-4.231-27.71-3.145-25.195,4.367-25.195,4.367l-.76-26.729s.52-2.879-1.514-4.211c0,0,.494-5.563-.715-6.927l-.6-10.073Z" transform="translate(5.881 -130.841)"/>
                  <path id="Path_5598" data-name="Path 5598" class="cls-7" d="M58.172,158.422l-.091-4.887s7.7-4.14,30.062-4.549,24.415,4.744,24.415,4.744,1.02.825.26,5.283a14.027,14.027,0,0,1-2.677.448c-.318-.123-.13-1.657-.13-1.657s-19.5-.253-31.148,5.03" transform="translate(86.636 -103.51)"/>
                  <path id="Path_5599" data-name="Path 5599" class="cls-7" d="M80.793,158.292v-4.7s-8.409-4.465-30.771-4.848-24.4,4.711-24.4,4.711-1.02.832-.253,5.29a14.028,14.028,0,0,0,2.677.448c.318-.123.123-1.657.123-1.657s19.5-.253,31.154,5.03" transform="translate(36.876 -103.879)"/>
                  <path id="Path_5600" data-name="Path 5600" class="cls-7" d="M138.373,153.77s36.151,6.629,62.523,14.082,42.429,15.48,42.429,15.48,3.373,1.787,1.911,8.539c0,0-6.564,3.951-12.737.254l-1.4-2.547s-27.138-8.058-44.84-11.879a297.485,297.485,0,0,0-31.433-4.77q-6.031-.6-12.009-1.6h-.039a8.851,8.851,0,0,0-4.8.546l-1.02.481v.845L134.8,218.456a6.037,6.037,0,0,1-4.7,5.608,26.8,26.8,0,0,1-4.133.559c-8.409.578-8.955-5.381-8.955-5.381s-.76-12.744-1.651-29.692-2.106-18.261-2.106-18.261l-.091-.175-1.02-.481a8.877,8.877,0,0,0-4.809-.539h0q-5.992.994-12.009,1.6a297.17,297.17,0,0,0-31.446,4.77c-17.67,3.821-44.808,11.879-44.808,11.879l-1.4,2.541c-6.18,3.7-12.737-.247-12.737-.247-1.469-6.752,1.911-8.539,1.911-8.539s16.051-8.032,42.423-15.48,62.523-14.082,62.523-14.082l.039.494" transform="translate(5.908 -98.123)"/>
                  <path id="Path_5601" data-name="Path 5601" class="cls-7" d="M61.976,178.039c8.507.214,12.451-3.769,12.451-3.769l.039-.5-.89-31.342a10.4,10.4,0,0,0-.338-2.411,3.9,3.9,0,0,0-.734-1.56s-.292,4.2-10.515,4.2h-2.2c-10.222,0-10.508-4.2-10.508-4.2a3.9,3.9,0,0,0-.734,1.56,10.08,10.08,0,0,0-.338,2.411l-.9,31.342.039.5s3.945,3.984,12.445,3.769Z" transform="translate(70.38 -119.357)"/>
                  <path id="Path_5602" data-name="Path 5602" class="cls-7" d="M58.537,146.826c-8.981.143-10.222-3.964-10.222-3.964V138.8s-.1-2.339.715-3.106c0,0-.091,3.776,10.034,3.73h.721c10.125.046,10.034-3.73,10.034-3.73.806.767.715,3.106.715,3.106v4.062s-1.241,4.107-10.229,3.964Z" transform="translate(71.902 -123.522)"/>
                  <path id="Path_5603" data-name="Path 5603" class="cls-7" d="M48.619,143.325V130.841s4.179.4,10.255,1.2,9.884.929,9.884.929l.37,9.9s-.507,4.14-9.936,3.9S48.619,143.325,48.619,143.325Z" transform="translate(72.365 -130.841)"/>
                  <path id="Path_5604" data-name="Path 5604" class="cls-7" d="M50.816,180.965v1.95a1.488,1.488,0,0,1,.793,1.3h7.07s.13-1.15.513-1.209V181.44" transform="translate(75.679 -55.244)"/>
                  <path id="Path_5605" data-name="Path 5605" class="cls-7" d="M53.211,181.74H49.227l.383,24.779h4.01s.767-.513.65-2.677l-.253-20.828" transform="translate(73.283 -54.076)"/>
                  <path id="Path_5606" data-name="Path 5606" class="cls-7" d="M50.177,181.74l-.65,1.163c-1.3,2.437-.7,1.215-.8,10.625v.215c.1,9.416-.227,9.176,1.059,11.613l.65,1.163" transform="translate(72.451 -54.076)"/>
                  <path id="Path_5607" data-name="Path 5607" class="cls-7" d="M54.927,181.74H58.91l-.4,24.779H54.5s-.767-.513-.65-2.677l.253-20.828" transform="translate(80.243 -54.076)"/>
                  <path id="Path_5608" data-name="Path 5608" class="cls-7" d="M56.042,181.812l.65,1.163c1.3,2.437.7,1.222.8,10.632v.215c-.1,9.41.227,9.176-1.059,11.613l-.65,1.157" transform="translate(83.169 -53.967)"/>
                  <line id="Line_697" data-name="Line 697" class="cls-7" x2="6.642" transform="translate(127.553 143.845)"/>
                  <path id="Path_5609" data-name="Path 5609" class="cls-9" d="M.679,179.25c0-5.907,5.017-10.112,10.931-10.112a10.65,10.65,0,0,1,4.679.65" transform="translate(0.062 -73.141)"/>
                  <circle id="Ellipse_267" data-name="Ellipse 267" class="cls-7" cx="9.091" cy="9.091" r="9.091" transform="translate(237.879 100.533)"/>
                  <circle id="Ellipse_268" data-name="Ellipse 268" class="cls-7" cx="9.091" cy="9.091" r="9.091" transform="translate(3.262 99.226)"/>
                  <line id="Line_698" data-name="Line 698" class="cls-13" y1="0.11" x2="3.561" transform="translate(64.927 55.199)"/>
                  <path id="Path_5610" data-name="Path 5610" class="cls-14" d="M37.582,161s-1.729-6.343-2.918-7.018l-.286,7.187-5.309,1.384-.143-1.384a12.348,12.348,0,0,0-1.846-4.633v-2.6a4.549,4.549,0,0,0,4.27,1.625c2.736-.448,3.028-1.625,3.028-1.625l-.734-1.072v.78H28.607V152.31" transform="translate(39.881 -98.463)"/>
                  <line id="Line_699" data-name="Line 699" class="cls-15" x1="3.743" y1="0.11" transform="translate(192.792 55.959)"/>
                  <path id="Path_5611" data-name="Path 5611" class="cls-14" d="M73.582,161.157s1.605-6.141,2.859-6.849l.3,7.525,5.563,1.449.149-1.449a13,13,0,0,1,1.95-4.854v-2.7a4.8,4.8,0,0,1-4.484,1.7c-2.872-.468-3.171-1.7-3.171-1.7l.767-1.118v.819H82.8v-1.371" transform="translate(110.015 -98.017)"/>
                </g>
              </g>
              <g id="Mizano" transform="translate(7.5)">
                <path id="Path_5612" data-name="Path 5612" class="cls-4" d="M127.724,85.96l-9.618-.383H102.38l-21.952-.819-2.892-2.781s-1.1-4.055,1.742-4.607,17.254-.734,17.254-.734,27.222.526,29.068.182,29,1.872,29,1.872,2.274.65,2.274,2.762-.845,2.7-.845,2.7l-1.982,1.95s-.227.136-5.114,0-17.091,0-17.091,0Z" transform="translate(108.16 115.327)"/>
                <path id="Path_5613" data-name="Path 5613" class="cls-4" d="M54.5,111.181v-.234l11.7.091,10.684-.409s6.83-.721,7.876-.4a34.868,34.868,0,0,0,4.75.481s18.352-1.566,40.083-3.626,39.232-.364,48.408,2.658c.266.091.526.175.78.273,8.481,3.015,9.748,7.558,10.209,15.064.481,7.72-1.813,15.687-5.069,20.145s-12.347,5.556-12.347,5.556l-20.145,7c-16.779,4.7-17.988,8.325-31.875,11.951s-16.409.481-16.409.481l-50.89-2.729-2.781-.149h-.442l-.234-6.388-.728-.241s.273.292-.221.65l2.437-25.585,1.618-.383,2.6-24.142Z" transform="translate(63.697 159.88)"/>
                <path id="Path_5614" data-name="Path 5614" class="cls-4" d="M173.839,118.373l.949,1.3c-.253-.1-.513-.182-.78-.273-9.176-3.022-26.677-4.7-48.408-2.658s-40.083,3.626-40.083,3.626a34.867,34.867,0,0,1-4.75-.481c-1.046-.318-7.876.4-7.876.4l-10.684.409-11.7-.091.221-2.054,24.175-2.281s10.4-.858,12.191-1.339,14.485-5.387,14.485-5.387,14.245-7.857,27.294-9.1c4.75-.442,8.325-.65,11.32-.7a44.449,44.449,0,0,1,13.556,1.95l2.216.526s8.65,2.9,15.941,13.043a18.486,18.486,0,0,1,1.93,3.1Z" transform="translate(67.718 150.192)"/>
                <path id="Path_5615" data-name="Path 5615" class="cls-4" d="M110.181,80.508l-8.325,13.575-7.974,37.477-2.216-.526,7.005-37.087,7.421-13.595Z" transform="translate(129.79 120.934)"/>
                <path id="Path_5616" data-name="Path 5616" class="cls-4" d="M114.245,80.583l-7.421,13.595-7.005,37.087a44.452,44.452,0,0,0-13.556-1.95l5.166-35.092L88.9,80.2h15.726Z" transform="translate(121.639 120.703)"/>
                <path id="Path_5617" data-name="Path 5617" class="cls-4" d="M86.907,92.615l-11.762.221L68.327,92.8l-9.254-.052-.227.058H57.7l-14.875-.136L35.451,92.6H33.944L30.909,90s-1.352-3.99,1.449-4.711S46.8,83.147,46.8,83.147l1.3-.032c1.95-.058,6.018-.169,10.573-.253,3.093-.065,6.421-.117,9.5-.13,4.322-.039,8.169,0,10.19.149,2.424.182,6.752.448,11.2.708h0c2.957.182,5.979.357,8.533.5l1.371.071,5.322.3a40.8,40.8,0,0,0,6.8-.364c1.813-.461,7.993-1.391,7.993-1.391s2.313.487,2.45,2.6-.65,2.755-.65,2.755l-1.852,2.086a74.307,74.307,0,0,1-12,1.95c-1.079.045-2.547.084-4.2.13l-1.443.046c-3.087.078-6.5.149-8.987.208H89.474Z" transform="translate(37.663 124.482)"/>
                <path id="Path_5618" data-name="Path 5618" class="cls-4" d="M93.889,82.306l15.174,1.95s-6.2.942-8.006,1.391a42.271,42.271,0,0,1-6.8.364l-5.322-.3-1.371-.071c-2.554-.143-5.576-.318-8.533-.5h0c-4.452-.26-8.78-.526-11.2-.708-2.021-.156-5.849-.188-10.19-.149-3.08,0-6.408.065-9.5.13-4.549.084-8.6.195-10.573.253v-.253s4.315-.832,10.749-1.573c2.762-.318,5.907-.617,9.28-.825,2.164-.13,4.419-.227,6.713-.266,4.633-.084,9.273-.058,13.4,0,3.041.039,5.816.1,8.123.169l1.3.045c1.761.052,3.171.11,4.12.143A26.186,26.186,0,0,1,93.889,82.306Z" transform="translate(48.195 122.957)"/>
                <path id="Path_5619" data-name="Path 5619" class="cls-4" d="M69.635,99.6c1.488,5.433,3.529,21.094-10.235,29.341-.975.578-1.9,1.131-2.8,1.638a30.763,30.763,0,0,0,1.95-3.821c11.119-6.5,10.573-22.446,9.1-27.879a114.689,114.689,0,0,0-5-12.347l1.443-.045A130.436,130.436,0,0,1,69.635,99.6Z" transform="translate(76.9 130.191)"/>
                <path id="Path_5620" data-name="Path 5620" class="cls-4" d="M69.4,98.859c1.449,5.433,2,21.354-9.1,27.879a50.527,50.527,0,0,0,2.645-8.416c2.417-10.625-3.626-27.047-3.626-27.047H56.843c-.253-1.053-.754-2.6-1.41-4.549,2.469-.058,5.9-.13,8.987-.208A118.348,118.348,0,0,1,69.4,98.859Z" transform="translate(75.142 130.234)"/>
                <path id="Path_5621" data-name="Path 5621" class="cls-4" d="M51.167,134.306a48.369,48.369,0,0,0,4.854-4.438h0c3.106-3.321,6.044-7.623,5.751-11.866,0,0-.923-23.674-2.6-29.581h7.434s6.044,16.422,3.626,27.047a50.527,50.527,0,0,1-2.645,8.416,30.758,30.758,0,0,1-1.95,3.821,13.283,13.283,0,0,1-1.6,2.248,32.7,32.7,0,0,1-8.039,4.3c-.435.169-.884.318-1.339.468a27.95,27.95,0,0,1-4.081.962l.11-1.014.046-.39Z" transform="translate(67.827 133.102)"/>
                <path id="Path_5622" data-name="Path 5622" class="cls-4" d="M66.45,215.946l7.376.065,14.875.136h1.144l3.984,16.1-.37,4.4-3.249,38.757-1.092,13.114-.318,6.07,1.807.273-2.541,25.344c-.923-.149-1.482-.253-1.482-.253l-.416.442-.4.435-.76,3.75L48.78,321.606l5.309-.864,1.95-4.549-.253-.468-7.35-13.647-.741-.4-6.629-3.587-1.69.546-3.62-3.9.65-1.027L33.691,287.5h0l-.65-1.4c.494-.156,2.638-.877,5.381-1.911h0c2.352-.9,5.14-2.028,7.707-3.249h.058a37.041,37.041,0,0,0,5.069-2.846,19.5,19.5,0,0,0,7.259-9.767s1.092-3.438.13-10.32a57.387,57.387,0,0,0-3.119-12.263s-2.762-7.7-6.564-15.85-6.9-13.368-6.9-13.368L31.338,194.923s-8.611-22.362-12.185-32.818a83.155,83.155,0,0,1-3.386-17.871c-.435-4.659-.507-8.026-.507-8.026s.65-9.332,1.085-20.334-.721-16.565-1.131-18.417c-.266-1.2-1.352-6.239-2.1-9.663v-.175c-.4-1.8-.682-3.113-.682-3.113s-1.4-7.246-1.859-12.094c-.123-1.345-.227-2.684-.3-3.9,0-.273-.039-.533-.045-.767-.162-2.853-.2-4.991-.2-4.991s.76-19.84,3.464-33.792l1.787-7.278C17.691,14.186,19.5,8.747,22.955,5.3h0l2.6-2.034A19.086,19.086,0,0,1,33.931.981c12.133-.9,25.715,7.064,25.715,7.064s.949.273,2.515,2.424a.2.2,0,0,0,.045.065,23.072,23.072,0,0,1,1.3,2.021l15.226,47.16C84.165,72.523,89.13,74.8,89.13,74.8L113.5,93.059s17.455,12.022,5.7,36.489c-13,27.105-2.268,47.264-2.268,47.264l9.7,22.914s.793,1.592,1.989,4.049l-1.3-.045c-2.307-.065-5.082-.13-8.123-.169-4.127-.058-8.767-.084-13.4,0-2.294.039-4.549.136-6.713.266-3.373.208-6.5.507-9.28.825-6.434.741-10.749,1.573-10.749,1.573v.253l-1.3.033s-11.632,1.41-14.44,2.132-1.449,4.711-1.449,4.711l3.035,2.6Z" transform="translate(6.665 1.118)"/>
                <path id="Path_5623" data-name="Path 5623" class="cls-4" d="M59.107,91.115H54.148l-.234-.1,1.774-4.348v-.046H57.7C58.353,88.5,58.853,90.062,59.107,91.115Z" transform="translate(72.852 130.394)"/>
                <path id="Path_5624" data-name="Path 5624" class="cls-4" d="M61.665,118.063c.292,4.244-2.645,8.546-5.751,11.866h0a48.366,48.366,0,0,1-4.854,4.439l-.4-.039.266-2.547,1.443-13.569L54.5,98.951l4.315-10.58.234.1C60.742,94.389,61.665,118.063,61.665,118.063Z" transform="translate(67.948 133.028)"/>
                <path id="Path_5625" data-name="Path 5625" class="cls-4" d="M65.63,86.625v.046l-1.774,4.348L59.54,101.6l-2.132,19.249-1.456,13.569-.266,2.547-.046.39-.11,1.014-.221,2.054h0v.305l-2.6,24.142-1.618.383-3.249.76-.52.124L52.171,124.1l2.6-22.245L61.685,86.69l2.541-.052Z" transform="translate(62.911 130.394)"/>
                <path id="Path_5626" data-name="Path 5626" class="cls-4" d="M70.537,86.656l-6.914,15.161-2.573,22.245L56.188,166.1l-12.4-.448-.546-.091-1.807-.273.318-6.07L42.847,146.1l3.243-38.757.37-4.4-3.984-16.1.227-.058,9.254.052,6.817.039Z" transform="translate(54.033 130.441)"/>
                <path id="Path_5627" data-name="Path 5627" class="cls-4" d="M54.683,139.319s1.183.767-3.756,2.08a1.228,1.228,0,0,1-.188,1.456,3.029,3.029,0,0,1-1.358.76,9.713,9.713,0,0,1-2.106.364h-.149l-.546-10.671v-.195l2.859-1.085.325-3.464c.494-.37.221-.65.221-.65l.767.266.234,6.388.084,2.164,3.074-.812Z" transform="translate(61.79 192.666)"/>
                <path id="Path_5628" data-name="Path 5628" class="cls-4" d="M52.018,117.977l-2.437,25.585a6.75,6.75,0,0,1-2.885.89l2.112-25.591v-.123Z" transform="translate(61.966 177.681)"/>
                <path id="Path_5629" data-name="Path 5629" class="cls-4" d="M49.761,128.178l-.325,3.464-2.859,1.085.3-3.659A6.749,6.749,0,0,0,49.761,128.178Z" transform="translate(61.786 193.065)"/>
                <path id="Path_5630" data-name="Path 5630" class="cls-4" d="M57.169,118.546v.124l-2.112,25.591-.292.045-.494.072c-3.678.481-10.216-.448-13.14-.929L43.672,118.1l.546.091,12.4.448Z" transform="translate(53.572 177.872)"/>
                <path id="Path_5631" data-name="Path 5631" class="cls-4" d="M57.6,132.85l.546,10.671a67.675,67.675,0,0,1-10.872-.377,58.664,58.664,0,0,1-7.506-1.2l-.5-1.3L40.85,132.8l.4-.143h-.37v-.091l.76.065.4.032v-1.3l1.683-.949.214-2.2c2.924.481,9.462,1.41,13.14.929l.494-.072.292-.045-.3,3.659Z" transform="translate(50.766 193.124)"/>
                <path id="Path_5632" data-name="Path 5632" class="cls-4" d="M40.3,129.989l-.4.143.026-.143Z" transform="translate(51.724 195.796)"/>
                <path id="Path_5633" data-name="Path 5633" class="cls-4" d="M55.14,129.989v.143l-15.083,5.433a7.8,7.8,0,0,0-3.249,3.9l-4.452,10.723-2.534-.728s3.717-10.138,5.433-12.75a7.017,7.017,0,0,1,3.717-3.1l10.931-3.62Z" transform="translate(36.515 195.796)"/>
                <path id="Path_5634" data-name="Path 5634" class="cls-4" d="M38.336,138.667l-2.054,9.54a2.255,2.255,0,0,0-.968,1.566,4.712,4.712,0,0,1-.513,2.119,5.452,5.452,0,0,0-.5,1.911,2.989,2.989,0,0,1-1.534,2.417h0a3.587,3.587,0,0,1-2.846.156s-3.353-1.488-3.392-3.171.24-2.1.6-2.482,1.566-1.085,1.7-1.885.227-1.449.728-1.761,1.69-.773,1.95-1.605,4.12-7.044,4.12-7.044l.1-.4Z" transform="translate(31.542 207.914)"/>
                <path id="Path_5635" data-name="Path 5635" class="cls-4" d="M37.455,138.9l-.1.4s-3.847,6.2-4.12,7.044-1.475,1.3-1.95,1.605-.6.975-.728,1.761-1.339,1.5-1.7,1.885-.65.812-.6,2.482,3.392,3.171,3.392,3.171a3.587,3.587,0,0,0,2.846-.156h0l.11.188a2.547,2.547,0,0,1-.793.715,3.327,3.327,0,0,1-1.885,0,.825.825,0,0,0-.949.247c-.2.253-1.267,0-1.449-.266a5.749,5.749,0,0,0-1.651-.65,8.982,8.982,0,0,1-2.4-3.418c-.65-1.917,2.145-5.316,2.145-5.316l7.3-11.151L37.4,138.9Z" transform="translate(29.817 207.039)"/>
                <path id="Path_5636" data-name="Path 5636" class="cls-4" d="M16.923,22.846,15.11,30.124c-2.7,13.985-3.464,33.825-3.464,33.825s.039,2.138.2,4.991a4.564,4.564,0,0,0,.045.767c.071,1.241.175,2.6.3,3.9.455,4.848,1.852,12.094,1.852,12.094s.279,1.3.682,3.113v.175c.747,3.425,1.833,8.448,2.1,9.663.409,1.852,1.592,7.421,1.131,18.417S16.871,137.4,16.871,137.4s.071,3.366.507,8.026A83.154,83.154,0,0,0,20.764,163.3c3.574,10.456,12.185,32.818,12.185,32.818L43.7,217.737s3.08,5.2,6.882,13.355,6.564,15.85,6.564,15.85A57.388,57.388,0,0,1,60.269,259.2c.962,6.882-.13,10.32-.13,10.32a19.5,19.5,0,0,1-7.239,9.7,37.044,37.044,0,0,1-5.069,2.846h-.058c-2.6,1.241-5.355,2.372-7.707,3.249h0c-2.742,1.033-4.887,1.755-5.381,1.911a.454.454,0,0,0-.1.039h-2.6l-1.3-1.859s12.633-2.125,19.06-7.688,6.875-6.882,6.875-6.882a20.074,20.074,0,0,0,1.092-10.281c-.858-5.972-3.126-12.269-5.615-18.15s-8.058-18.144-8.058-18.144l-7.415-13.77-9.514-20.6s-7.512-20.8-8.006-22.862S14.343,149.314,14.252,142s1-22.452,1-22.452.182-14.212-.5-16.747-2.132-9.1-2.443-10.333S9.82,77.395,9.82,77.395s-1.3-11.639-.741-14.3c0,0,.507-18.846,3.321-33.5l1.579-6.745c.273-.955.559-1.872.864-2.723,2.255-6.317,4.127-11.048,6.947-14.3S28.569.634,34.879.173c12.49-.9,24.24,7.044,24.24,7.044s1.9.331,4.685,4.5C62.238,9.569,61.289,9.3,61.289,9.3s-13.582-8-25.715-7.1A18.9,18.9,0,0,0,27.23,4.481l-2.6,2.034h0C21.141,9.966,19.334,15.405,16.923,22.846Z" transform="translate(5.022 -0.101)"/>
                <path id="Path_5637" data-name="Path 5637" class="cls-4" d="M65.233,257.181a20.074,20.074,0,0,1-1.092,10.281s-.448,1.3-6.875,6.882-19.041,7.688-19.041,7.688l1.3,1.859s-.65-.091-1.651-.279c0,0-3.6-8.864-6.622-10.736a8.273,8.273,0,0,0-5.693-.916l6.5-1.521-4.413-38.12-5.374-19.08-1.755.247-8.682.416h0l-1.469,9.533c-.065-.851-.1-1.3-.1-1.3a13.939,13.939,0,0,1-.123-6.882,91.922,91.922,0,0,0,1.573-23.538c-.611-11.346-1.7-21.25-1.7-21.25s-1.2-14.726-3.139-36.45S3.75,100.69,3.984,95.134,7.032,73.142,7.032,73.142,14,42.469,16.455,28.595a56.537,56.537,0,0,1,9.982-23.3l2.872-2.918c-2.82,3.282-4.692,8.013-6.947,14.329-.305.851-.591,1.768-.864,2.723L19.919,26.2C17.1,40.825,16.6,59.7,16.6,59.7c-.559,2.6.741,14.3.741,14.3s2.171,13.855,2.489,15.07,1.761,7.8,2.443,10.333.5,16.747.5,16.747-1.085,15.122-1,22.452,4.348,23,4.848,25.032S34.625,186.5,34.625,186.5l9.514,20.6,7.421,13.822s5.569,12.256,8.058,18.144S64.375,251.209,65.233,257.181Z" transform="translate(-2.497 3.326)"/>
                <path id="Path_5638" data-name="Path 5638" class="cls-4" d="M35.953,126.437l.253.468-1.95,4.549-5.3.832a26.649,26.649,0,0,1-5.79,1.365l1.989-4.711.728.117,9.416-2.288Z" transform="translate(26.484 190.439)"/>
                <path id="Path_5639" data-name="Path 5639" class="cls-4" d="M31.475,121.212l7.35,13.647-.65.344-9.416,2.3-.728-.117s-4.406-10.4-5.374-12.256a6.563,6.563,0,0,0-.877-1.371c-.318-.344-.448-.253-.448-.253a.221.221,0,0,0-.065-.039h1.215l7.9-2,.351-.65Z" transform="translate(23.612 181.971)"/>
                <path id="Path_5640" data-name="Path 5640" class="cls-4" d="M45.931,137.443l-.351.65-7.87,1.982H36.5a89.56,89.56,0,0,1-10.4-6.9c-4.14-3.314-6.914-10.19-8.643-14.069l-.468-1.02c-1.69-3.561-5.8-7.064-5.8-7.064l2.378-.825h.052l1.04-.24a8.273,8.273,0,0,1,5.641.9c3.022,1.872,6.622,10.736,6.622,10.736L29,124.55l.786,3.386,2.054,3.132,2.171-.6,3.62,3.9,1.69-.546Z" transform="translate(8.415 165.344)"/>
                <path id="Path_5641" data-name="Path 5641" class="cls-4" d="M29.047,128.732l-1.989,4.711L20.9,128.01l-.305-.305.305-1.144Z" transform="translate(22.596 190.627)"/>
                <path id="Path_5642" data-name="Path 5642" class="cls-4" d="M30.333,135.617l-8.117-2.17-2.476-5.673h0s4.1-5.251,4.1-5.491l.266-.286a6.563,6.563,0,0,1,.851,1.391C25.927,125.239,30.333,135.617,30.333,135.617Z" transform="translate(21.311 183.741)"/>
                <path id="Path_5643" data-name="Path 5643" class="cls-4" d="M48.977,134.932H40.886L6.119,130.526v-.007l-.058-4.945L38.891,129.5l3.62-.305.305.305Z" transform="translate(0.678 189.138)"/>
                <path id="Path_5644" data-name="Path 5644" class="cls-4" d="M39.626,139.605l-.266.286c0,.24-4.1,5.491-4.1,5.491h0l-4.588-2.294a20.146,20.146,0,0,1-5.127-3.8,60.268,60.268,0,0,1-10.268-15.512c-3.321-7.148-5.745-7.584-5.745-7.584l-.1-.981,2.125-1.3,2.145-1.3-.6-2.08.728-.214s4.107,3.5,5.8,7.064l.468,1.02c1.729,3.9,4.5,10.755,8.643,14.069a89.552,89.552,0,0,0,10.4,6.9.222.222,0,0,1,.065.039S39.307,139.261,39.626,139.605Z" transform="translate(5.766 166.126)"/>
                <path id="Path_5645" data-name="Path 5645" class="cls-4" d="M42.76,141.829l2.508,5.673-.305,1.144-3.62.305-32.837-3.9-1.144-1.02h0L4.47,122.587S4.106,116.316,7,113.06h.266l.513,7.629,3.139,8.208h5.01l1.872-8.637-.734-7.584s2.424.409,5.745,7.584a60.267,60.267,0,0,0,10.261,15.519,20.146,20.146,0,0,0,5.127,3.8Z" transform="translate(-1.742 169.686)"/>
                <path id="Path_5646" data-name="Path 5646" class="cls-4" d="M21.247,115.153l2.716,6.219-.669,1.027-2.171.6-2.054-3.132-.786-3.386h.006l2.931-1.319Z" transform="translate(19.114 173.421)"/>
                <path id="Path_5647" data-name="Path 5647" class="cls-4" d="M21.822,114.753l.65,1.4-2.931,1.3h0l-2.073-2.963c1.033.188,1.651.279,1.651.279h2.6A.454.454,0,0,1,21.822,114.753Z" transform="translate(17.884 172.425)"/>
                <path id="Path_5648" data-name="Path 5648" class="cls-4" d="M17.98,105.523l4.406,38.14-6.5,1.521a7.808,7.808,0,0,0-1.04.24H14.8l-2.378.825-.728.214-.052-.214L16.1,130.737l-1.742-24.629-3.99-19,.5-.416,1.755-.247Z" transform="translate(7.169 130.121)"/>
                <path id="Path_5649" data-name="Path 5649" class="cls-4" d="M16.509,105.722l1.742,24.629-4.458,15.512.052.214.6,2.08L12.3,149.49l-2.125,1.326-.409-4.3v-.007L14.2,131.255,12.22,106.574,8.939,89.729l.006-.007L12.5,86.708Z" transform="translate(5.02 130.519)"/>
                <path id="Path_5650" data-name="Path 5650" class="cls-4" d="M18.055,104.761l1.976,24.681L15.6,144.7v.006l.409,4.3.1.981.734,7.584L14.974,166.2H9.964L6.825,158l-.513-7.629-.091-1.313L5.07,145.74v-1.631L9.418,129.2,7.247,104.839h.006L8.9,97.177l1.969-9.143,3.906-.123-.007.007Z" transform="translate(-0.814 132.333)"/>
                <path id="Path_5651" data-name="Path 5651" class="cls-4" d="M15.779,86.542l-.5.416-3.555,3.015L7.818,90.1,7.1,86.958Z" transform="translate(2.241 130.269)"/>
                <path id="Path_5652" data-name="Path 5652" class="cls-4" d="M7.968,86.708l.721,3.139L6.74,98.983h0c-.1-1.124-.169-2.054-.221-2.736h0l1.469-9.533Z" transform="translate(1.37 130.519)"/>
                <path id="Path_5653" data-name="Path 5653" class="cls-4" d="M8.071,131.145h0a19.605,19.605,0,0,1-3.3-4.549h0l2.093-1.436h0l1.144,1.02Z" transform="translate(-1.268 188.513)"/>
                <path id="Path_5654" data-name="Path 5654" class="cls-4" d="M6.07,125.142l2.892,21.445-2.093,1.423h0c-.13-.247-.195-.383-.195-.383S4.5,136.04,3.5,125.266s4.133-14.3,4.133-14.3l1.15,3.321.091,1.3H8.611C5.706,118.871,6.07,125.142,6.07,125.142Z" transform="translate(-3.374 167.11)"/>
                <path id="Path_5655" data-name="Path 5655" class="cls-16" d="M103.838,170.2H99.146s2.534,3.139,16.409-.481,15.1-7.246,31.875-11.951l20.145-7s9.053-1.085,12.347-5.556,5.55-12.438,5.069-20.145c-.468-7.506-1.729-12.048-10.209-15.064-.253-.1-.513-.182-.78-.273-9.176-3.022-26.677-4.7-48.408-2.658S85.512,110.7,85.512,110.7a34.868,34.868,0,0,1-4.75-.481c-1.046-.318-7.876.4-7.876.4l-10.684.409-11.7-.091h0v.773" transform="translate(67.71 159.883)"/>
                <path id="Path_5656" data-name="Path 5656" class="cls-7" d="M32.368,150.5l4.426-10.736a7.837,7.837,0,0,1,3.249-3.9h0l15.48-5.582H49.914l-10.957,3.626a7.057,7.057,0,0,0-3.711,3.1c-1.716,2.606-5.433,12.744-5.433,12.744Z" transform="translate(36.503 196.234)"/>
                <path id="Path_5657" data-name="Path 5657" class="cls-7" d="M37.373,139.606s-3.847,6.2-4.12,7.038-1.469,1.3-1.95,1.612-.591.968-.728,1.761-1.3,1.495-1.7,1.878-.65.819-.611,2.5,3.4,3.165,3.4,3.165a3.6,3.6,0,0,0,2.853-.156,2.97,2.97,0,0,0,1.534-2.424,5.53,5.53,0,0,1,.5-1.9,4.731,4.731,0,0,0,.52-2.125,2.255,2.255,0,0,1,.968-1.566l2.054-9.54-2.658-.65-2.476-1.456-7.3,11.152s-2.827,3.386-2.171,5.335a9.1,9.1,0,0,0,2.4,3.418s1.475.338,1.657.65,1.241.52,1.449.273a.825.825,0,0,1,.949-.247,3.3,3.3,0,0,0,1.878,0,2.736,2.736,0,0,0,.929-.884" transform="translate(29.828 207.488)"/>
                <path id="Path_5658" data-name="Path 5658" class="cls-7" d="M20.234,2.819c-.123.11-.247.227-.364.351h0c-3.457,3.438-5.257,8.884-7.668,16.318-.039.11-.078.221-.11.338" transform="translate(9.775 3.998)"/>
                <path id="Path_5659" data-name="Path 5659" class="cls-7" d="M86.574,169.963c-.6-1.261-.975-2.021-.975-2.021l-10.313-22.9s-9.39-17.468-1.3-41.831h0c.13-.422.273-.832.422-1.254h0c.546-1.547,1.163-3.113,1.859-4.711,11.951-27.437-5.251-37.581-5.251-37.581L65.818,56,47.485,43.1S45.88,42.351,43.5,38.92a57.487,57.487,0,0,1-6.336-13.127c0-.078-.058-1.911-.084-2" transform="translate(47.464 35.638)"/>
                <line id="Line_700" data-name="Line 700" class="cls-7" x1="0.013" y1="0.162" transform="translate(119.02 268.163)"/>
                <path id="Path_5660" data-name="Path 5660" class="cls-7" d="M61.493,86.824A112.66,112.66,0,0,1,66.5,99.171c1.443,5.433,1.989,21.354-9.13,27.879" transform="translate(78.069 130.695)"/>
                <path id="Path_5661" data-name="Path 5661" class="cls-7" d="M64.085,86.8A117.283,117.283,0,0,1,69.641,99.89c1.495,5.433,3.529,21.094-10.235,29.334-.968.585-1.9,1.131-2.794,1.638" transform="translate(76.92 130.652)"/>
                <path id="Path_5662" data-name="Path 5662" class="cls-7" d="M19.129,115.074s-.611-.084-1.651-.273" transform="translate(17.899 172.89)"/>
                <path id="Path_5663" data-name="Path 5663" class="cls-7" d="M29.326,2.674,26.447,5.592a56.537,56.537,0,0,0-9.982,23.3C14.009,42.757,7.016,73.437,7.016,73.437S4.229,89.852,3.995,95.4s.962,17.143,2.9,38.874,3.132,36.457,3.132,36.457,1.085,9.9,1.7,21.244a91.344,91.344,0,0,1-1.573,23.544,14.037,14.037,0,0,0,.117,6.895s.039.468.1,1.3h0c.045.682.123,1.605.214,2.736h0" transform="translate(-2.481 3.779)"/>
                <line id="Line_701" data-name="Line 701" class="cls-7" y1="0.006" transform="translate(14.816 277.78)"/>
                <path id="Path_5664" data-name="Path 5664" class="cls-7" d="M16.118,152.352l.734,7.584-1.872,8.637H9.97l-3.139-8.208-.6-8.942-1.15-3.314v-1.631l4.341-14.908L7.254,107.2v-.013l-.058-.669L8.69,96.8V96.8l1.462-9.533,8.689-.422-.5.422-3.561,3.022,3.282,16.838,1.976,24.688-4.426,15.252v.007l.416,4.3Z" transform="translate(-0.795 130.719)"/>
                <path id="Path_5665" data-name="Path 5665" class="cls-7" d="M11.738,90.023l-3.906.123L7.1,87.008" transform="translate(2.253 130.973)"/>
                <line id="Line_702" data-name="Line 702" class="cls-7" y1="16.799" x2="3.626" transform="translate(6.459 221.12)"/>
                <path id="Path_5666" data-name="Path 5666" class="cls-7" d="M11.76,87.008l4.01,19.015,1.748,24.629-4.465,15.512.656,2.287-2.145,1.332L9.446,151.11" transform="translate(5.786 130.973)"/>
                <line id="Line_703" data-name="Line 703" class="cls-7" x1="0.013" transform="translate(127.247 208.824)"/>
                <path id="Path_5667" data-name="Path 5667" class="cls-7" d="M56.843,91.451c-.253-1.053-.754-2.6-1.41-4.549" transform="translate(75.142 130.812)"/>
                <path id="Path_5668" data-name="Path 5668" class="cls-7" d="M26.2,60.26h0l-6.953.78A3.769,3.769,0,0,1,15.6,58.59h0A37.854,37.854,0,0,1,14.413,51.1v-.026c-.156-1.8-.227-3.165-.227-3.165l5.433-21.627a1.41,1.41,0,0,1,.091-.26h0" transform="translate(12.933 38.999)"/>
                <path id="Path_5669" data-name="Path 5669" class="cls-7" d="M19.194,30.034h0L14.768,46.417c.123,4.166,2.9,3.8,2.9,3.8s2.742-.169,5.979-.435h0" transform="translate(13.812 45.044)"/>
                <path id="Path_5670" data-name="Path 5670" class="cls-7" d="M15.312,38.757s3.015-.182,5.127-.422a1.9,1.9,0,0,0,1.54-1.3" transform="translate(14.632 55.602)"/>
                <line id="Line_704" data-name="Line 704" class="cls-7" x1="0.585" y2="0.617" transform="translate(72.556 217.812)"/>
                <path id="Path_5671" data-name="Path 5671" class="cls-7" d="M103.888,170.5H99.2s2.534,3.139,16.422-.481,15.09-7.239,31.843-11.951l20.145-7s9.059-1.092,12.315-5.556,5.556-12.432,5.075-20.146-1.813-12.347-10.989-15.337-26.644-4.7-48.408-2.651S85.516,111,85.516,111a35.966,35.966,0,0,1-4.75-.481c-1.046-.318-7.883.4-7.883.4L62.2,111.33l-11.7-.091v.773" transform="translate(67.706 160.342)"/>
                <path id="Path_5672" data-name="Path 5672" class="cls-7" d="M101.964,151.419s-.091-1.176,2.086-11.951-3.425-15.3-3.425-15.3-1.742-2.443-8.351-5.524S61.894,114,61.894,114s11.152,6.44,18.846,15.674,14.251,16.851,14.251,16.851l3.08,5.342-.136,4.341S102.328,153.862,101.964,151.419Z" transform="translate(84.888 171.682)"/>
                <path id="Path_5673" data-name="Path 5673" class="cls-7" d="M50.507,109.137s11.886.968,28.561,12.2" transform="translate(67.714 164.348)"/>
                <line id="Line_705" data-name="Line 705" class="cls-7" x2="53.659" y2="2.879" transform="translate(113.243 327.975)"/>
                <path id="Path_5674" data-name="Path 5674" class="cls-7" d="M42.385,165.984l12.4.448,3.763-.884,1.625-.383,2.6-24.142v-.305L63,138.664l.1-1.014.312-2.937,1.456-13.575L67,101.882,73.09,86.936" transform="translate(55.463 130.863)"/>
                <path id="Path_5675" data-name="Path 5675" class="cls-7" d="M47.328,166.425l4.861-42.039,2.573-22.245,6.927-15.2" transform="translate(62.919 130.871)"/>
                <path id="Path_5676" data-name="Path 5676" class="cls-7" d="M99.769,134.943l5.16-35.092-2.56-14-21.959-.819-2.866-2.768s-1.1-4.055,1.742-4.607,17.234-.708,17.234-.708,27.229.52,29.062.182,29,1.859,29,1.859,2.274.65,2.281,2.762-.851,2.716-.851,2.716l-1.982,1.95a34.507,34.507,0,0,1-5.121,0c-4.893-.123-17.085,0-17.085,0l-13.7-.546H102.368" transform="translate(108.171 115.803)"/>
                <path id="Path_5677" data-name="Path 5677" class="cls-7" d="M108.855,80.717,100.53,94.286l-7.967,37.477s8.643,2.9,15.934,13.036a19.554,19.554,0,0,1,1.95,3.035l.955,1.3" transform="translate(131.142 121.485)"/>
                <path id="Path_5678" data-name="Path 5678" class="cls-7" d="M49,119.162l-2.411,29.25,2.859-1.085,2.762-29.048" transform="translate(61.801 178.134)"/>
                <path id="Path_5679" data-name="Path 5679" class="cls-7" d="M50.608,148.367l24.162-2.287s10.4-.851,12.2-1.332,14.485-5.381,14.485-5.381,14.245-7.863,27.294-9.1,17.228-.851,24.883,1.3l7.005-37.087L168.265,80.5" transform="translate(67.866 121.161)"/>
                <path id="Path_5680" data-name="Path 5680" class="cls-7" d="M100.125,93.057l9.254.052,6.817.032,14.3-.266,3.022-.058h.409c2.469-.058,5.9-.13,8.988-.208l1.456-.084c1.651-.046,3.126-.084,4.2-.13a73.539,73.539,0,0,0,11.99-1.95l1.859-2.086s.812-.65.682-2.762-2.45-2.6-2.45-2.6-6.2.942-8.013,1.391a42.3,42.3,0,0,1-6.8.364l-5.322-.3-1.365-.071c-2.56-.143-5.582-.318-8.533-.5h0c-4.452-.26-8.773-.526-11.2-.708-2.021-.162-5.849-.188-10.19-.156-3.08,0-6.4.065-9.494.13-6.447.123-11.866.292-11.866.292s-11.632,1.4-14.446,2.132-1.449,4.7-1.449,4.7l3.035,2.6h1.508l7.376.065,14.875.136H99.91l3.984,16.116-.364,4.393-3.249,38.764-1.092,13.114-.318,6.07,1.813.266-2.762,27.528-1.683.949v1.3l-.4-.039L58.852,198.49a26.681,26.681,0,0,1-5.8,1.365H44.939l-34.767-4.406A20.021,20.021,0,0,1,6.864,190.9c-.13-.247-.195-.383-.195-.383s-2.158-11.561-3.158-22.31,4.14-14.3,4.14-14.3" transform="translate(-3.362 124.924)"/>
                <path id="Path_5681" data-name="Path 5681" class="cls-7" d="M10.568,86.988l1.755-.247,5.374,19.08L22.1,143.968l-6.492,1.521-1.033.24" transform="translate(7.478 130.57)"/>
                <path id="Path_5682" data-name="Path 5682" class="cls-7" d="M12.144,110.505H12.2a6.682,6.682,0,0,1,1.033-.24,8.2,8.2,0,0,1,5.641.9C21.9,113.033,25.5,121.9,25.5,121.9l2.073,2.963.786,3.379,2.067,3.126,2.171-.6,3.626,3.9,1.683-.546,7.369,3.984,7.6,14.128-1.95,4.549-5.309.871" transform="translate(9.853 165.806)"/>
                <path id="Path_5683" data-name="Path 5683" class="cls-7" d="M13.574,110.264l-2.378.825s4.107,3.5,5.8,7.064c.143.312.305.65.468,1.02,1.735,3.9,4.51,10.755,8.643,14.069a90.553,90.553,0,0,0,10.443,6.934s.364-.234,1.3,1.631,5.4,12.269,5.4,12.269l-1.989,4.711L35.1,153.343" transform="translate(8.423 166.048)"/>
                <line id="Line_706" data-name="Line 706" class="cls-7" y1="2.294" x2="9.416" transform="translate(52.397 317.941)"/>
                <line id="Line_707" data-name="Line 707" class="cls-7" y1="1.989" x2="7.909" transform="translate(46.12 304.178)"/>
                <path id="Path_5684" data-name="Path 5684" class="cls-7" d="M7,113.354c-2.9,3.249-2.534,9.533-2.534,9.533l2.9,21.445,1.144,1.027,32.831,3.9,3.626-.305.305-1.144-2.482-5.673-4.581-2.294a20.069,20.069,0,0,1-5.127-3.808,60.192,60.192,0,0,1-10.268-15.512c-3.321-7.187-5.745-7.558-5.745-7.558" transform="translate(-1.745 170.119)"/>
                <path id="Path_5685" data-name="Path 5685" class="cls-7" d="M23.841,122.408c0,.247-4.1,5.5-4.1,5.5" transform="translate(21.311 184.363)"/>
                <line id="Line_708" data-name="Line 708" class="cls-7" x1="8.143" y1="2.171" transform="translate(43.527 317.941)"/>
                <line id="Line_709" data-name="Line 709" class="cls-7" x1="0.058" y1="4.952" transform="translate(6.764 315.466)"/>
                <line id="Line_710" data-name="Line 710" class="cls-7" y1="1.443" x2="2.093" transform="translate(3.522 314.439)"/>
                <path id="Path_5686" data-name="Path 5686" class="cls-7" d="M61.126,109.6s-13.647,3.613-18.846,7.48a33.955,33.955,0,0,1-12.8,5.888" transform="translate(36.007 165.039)"/>
                <path id="Path_5687" data-name="Path 5687" class="cls-7" d="M18.294,116.78l2.963-1.326,2.71,6.219L23.3,122.7" transform="translate(19.13 173.875)"/>
                <path id="Path_5688" data-name="Path 5688" class="cls-7" d="M22.47,127.4l.539.728s1.631-.065,1.748-.728,1.872-2.352,2.781-2.054,3.321.6,3.8-.032a8.615,8.615,0,0,1,1.631-1.3c.292-.2.6-.4.89-.565a3.762,3.762,0,0,1,1.339-.559c.728,0,3.022.793,3.451.721s2.71-2.476,3.314-2.476a4.174,4.174,0,0,0,2.294-.9,2.32,2.32,0,0,0-.422-2.294c-.728-.786-4.348-5.615-4.348-5.615s-.773-.7-3.2,0S19.572,119.3,19.572,119.3v.955Z" transform="translate(21.057 168.681)"/>
                <path id="Path_5689" data-name="Path 5689" class="cls-7" d="M20.15,118.975l15.934-5.855,3.561,4.5" transform="translate(21.928 170.354)"/>
                <path id="Path_5690" data-name="Path 5690" class="cls-7" d="M37.568,84.7s4.315-.832,10.749-1.566c2.762-.318,5.914-.617,9.28-.825,2.164-.136,4.419-.227,6.713-.273,4.64-.078,9.273-.058,13.4,0,3.041.046,5.816.111,8.123.175l1.3.045c1.761.052,3.178.1,4.127.143s1.774.11,2.658.227l15.174,1.95" transform="translate(48.199 123.392)"/>
                <path id="Path_5691" data-name="Path 5691" class="cls-7" d="M23.973,68.654h0a18.138,18.138,0,0,0-.1-2.814c-.13-1.358-.357-2.9-.65-4.516-.591-3.314-1.423-6.875-2.093-9.449-.273-1.04-.513-1.95-.708-2.56a46.023,46.023,0,0,1-1.365-8.773c0-2.255-.123-4.322-.279-6.174h0c-.162-1.859-.377-3.516-.65-4.958a36.431,36.431,0,0,0-1.761-7.148" transform="translate(16.227 33.321)"/>
                <path id="Path_5692" data-name="Path 5692" class="cls-7" d="M21.621,23.627h0a36.053,36.053,0,0,1,5.1,7.311h0a110.116,110.116,0,0,1,8.448,19.385s2.775,11.7-1.3,17.358c0,0,5.758-.24,9.384,1.3,3.425,1.456,16.9,6.2,20.217,6.635a2.093,2.093,0,0,0,.461.039" transform="translate(24.147 35.38)"/>
                <path id="Path_5693" data-name="Path 5693" class="cls-7" d="M34.516,53.138s4.042-2.989,5.888-6.447c.045-.078.084-.156.123-.24a6.531,6.531,0,0,0,.793-2.814c.091-4.549.442-8.663.442-8.663" transform="translate(43.596 52.496)"/>
                <path id="Path_5694" data-name="Path 5694" class="cls-7" d="M33.366,25.311a15.214,15.214,0,0,1,6.5,11.048" transform="translate(41.861 37.92)"/>
                <path id="Path_5695" data-name="Path 5695" class="cls-7" d="M36.348,86.765s-7.486,1.085-8.572,1.2-.968.851-.968.851c5.914.357,6.882,3.62,8.936,6.031s4.464,21.491,3.5,33.442a62.249,62.249,0,0,1-5.2,20.522c8.929,2.177,28.594-4.224,28.594-4.224l-5.2-9.488A20.015,20.015,0,0,1,55,126.731l-.923-14.5c-.962-16.656-6.875-20.88-6.875-20.88s-6.232-2.866-7.545-3.984A4.081,4.081,0,0,0,36.348,86.765Z" transform="translate(31.964 130.429)"/>
                <path id="Path_5696" data-name="Path 5696" class="cls-7" d="M51.143,134.608a39.931,39.931,0,0,0,4.348-3.249,6.083,6.083,0,0,0,.689-.832c1.254-1.794,5.849-8.585,5.582-12.243,0,0-.923-23.674-2.6-29.581h7.447s6.037,16.422,3.62,27.047a50.528,50.528,0,0,1-2.645,8.448,30.7,30.7,0,0,1-1.911,3.815,13.4,13.4,0,0,1-1.605,2.255,32.7,32.7,0,0,1-8.039,4.3c-.435.169-.884.318-1.339.461a27.054,27.054,0,0,1-4.075.968" transform="translate(67.878 133.528)"/>
                <path id="Path_5697" data-name="Path 5697" class="cls-7" d="M59.154,88.716H66.6s6.037,16.422,3.62,27.047a50.527,50.527,0,0,1-2.645,8.448,30.7,30.7,0,0,1-1.911,3.815,13.4,13.4,0,0,1-1.605,2.255,32.7,32.7,0,0,1-8.039,4.3c-.435.169-.884.318-1.339.461a27.042,27.042,0,0,1-4.075.968" transform="translate(67.866 133.548)"/>
                <path id="Path_5698" data-name="Path 5698" class="cls-7" d="M31.694,113.863s-3.659-1.683-3.3-4.042" transform="translate(34.324 165.379)"/>
                <path id="Path_5699" data-name="Path 5699" class="cls-7" d="M38.821,86.648s-9.956,1.2-11.048,1.3-.968.851-.968.851c5.914.357,6.882,3.62,8.935,6.031s4.465,21.491,3.5,33.442a62.249,62.249,0,0,1-5.2,20.522c8.929,2.177,28.594-4.224,28.594-4.224" transform="translate(31.96 130.43)"/>
                <path id="Path_5700" data-name="Path 5700" class="cls-7" d="M59.154,88.716H66.6s6.037,16.422,3.62,27.047a50.527,50.527,0,0,1-2.645,8.448,30.7,30.7,0,0,1-1.911,3.815,13.4,13.4,0,0,1-1.605,2.255,32.7,32.7,0,0,1-8.039,4.3c-.435.169-.884.318-1.339.461a27.042,27.042,0,0,1-4.075.968" transform="translate(67.866 133.548)"/>
                <path id="Path_5701" data-name="Path 5701" class="cls-7" d="M31.694,113.863s-3.659-1.683-3.3-4.042" transform="translate(34.324 165.379)"/>
                <line id="Line_711" data-name="Line 711" class="cls-7" x1="0.006" transform="translate(32.954 74.142)"/>
                <path id="Path_5702" data-name="Path 5702" class="cls-7" d="M29.566,26.647c-.435-.162-.845-.331-1.254-.487h0c-5.127-2.021-7.8-3.171-9.293-3.808a6.4,6.4,0,0,0-2.236-.728c-.169,0-.279.585-.344,1.566,0,.351-.039.747-.058,1.2h0c-.065,2.132,0,5.2.052,8.234h0c.11,4.094.286,8.013.325,9.137l.052.936h0l.331,6.4a24.214,24.214,0,0,0,1.2,5.641c.468,1.2,1.215,3.2,2.073,5.511.26.7.539,1.436.819,2.184h0c.552,1.462,1.124,2.983,1.69,4.432h0c.364.942.715,1.859,1.066,2.71h0c1.2,2.97,2.229,5.251,2.671,5.563,1.209.851,3.984-2.411,15.1-4.465a31.843,31.843,0,0,1,19.795,2.417,2.859,2.859,0,0,1,.351.143c1.586.754,6.44,3.62,9.364,5.121l.552.286a1.592,1.592,0,0,0,.331.13,2.365,2.365,0,0,0,3.074-2.19c.227-6.239-4.055-16.246-6.076-21.51q-.182-.507-.351-.936a51.843,51.843,0,0,1-2.658-9.293c-.838-12.2-3.015-15.46-3.5-16.058s-1.215.721-3.626,2.047a8.214,8.214,0,0,1-2.112.773h-.058a17.508,17.508,0,0,1-2.924.39,40.668,40.668,0,0,1-6.252-.188c-1.228-.123-2.281-.24-3.379-.422-2.749-.455-5.712-1.3-12.016-3.743l-2.7-.988h0" transform="translate(16.202 32.36)"/>
                <path id="Path_5703" data-name="Path 5703" class="cls-7" d="M16.94,23.146l-1.794,7.278c-2.7,13.991-3.464,33.831-3.464,33.831s.039,2.138.208,4.991a5.36,5.36,0,0,0,.039.767c.071,1.241.175,2.6.3,3.9C12.684,78.761,14.081,86,14.081,86s.286,1.3.682,3.119v.169c.741,3.431,1.833,8.448,2.1,9.663.4,1.859,1.586,7.428,1.131,18.423s-1.085,20.334-1.085,20.334.071,3.366.507,8.026A82.609,82.609,0,0,0,20.794,163.6c3.581,10.463,12.185,32.824,12.185,32.824l10.729,21.588s3.074,5.2,6.882,13.361,6.557,15.85,6.557,15.85a57.187,57.187,0,0,1,3.126,12.263c.955,6.875-.13,10.32-.13,10.32a19.5,19.5,0,0,1-7.246,9.689,35.7,35.7,0,0,1-5.069,2.846.169.169,0,0,0-.058.032c-2.6,1.235-5.355,2.365-7.707,3.249h0c-3.139,1.176-5.491,1.95-5.491,1.95h-2.58l-1.3-1.807s12.633-2.132,19.06-7.694,6.882-6.882,6.882-6.882a20.016,20.016,0,0,0,1.085-10.274c-.858-5.979-3.119-12.269-5.615-18.15s-8.052-18.15-8.052-18.15L36.631,210.8l-9.507-20.6s-7.512-20.8-8.013-22.862-4.75-17.7-4.848-25.032,1-22.452,1-22.452.182-14.212-.5-16.747-2.132-9.1-2.443-10.333S9.831,77.7,9.831,77.7s-1.3-11.645-.741-14.264c0,0,.507-18.878,3.321-33.5l1.579-6.784c.273-.955.565-1.865.871-2.723,2.248-6.317,4.12-11.048,6.947-14.3S28.586.934,34.9.473C47.379-.456,59.129,7.485,59.129,7.485s1.9.338,4.685,4.51a.081.081,0,0,0,.045.065c.39.591.806,1.3,1.222,2.034" transform="translate(5.037 0.346)"/>
                <path id="Path_5704" data-name="Path 5704" class="cls-7" d="M15.193,5.6l2.638-2.034a18.917,18.917,0,0,1,8.344-2.281C38.308.372,51.89,8.339,51.89,8.339s.949.279,2.508,2.43a.081.081,0,0,0,.045.065,22.127,22.127,0,0,1,1.3,2.021L71,60.016c5.433,12.809,10.4,15.083,10.4,15.083L105.757,93.36s17.455,12.022,5.7,36.489c-13,27.105-2.268,47.264-2.268,47.264l9.7,22.914s.793,1.592,1.989,4.049" transform="translate(14.453 1.571)"/>
                <path id="Path_5705" data-name="Path 5705" class="cls-7" d="M83.2,130.841s-9.234,2.937-11.541,2.944" transform="translate(99.619 197.082)"/>
                <line id="Line_712" data-name="Line 712" class="cls-7" x2="2.223" y2="0.526" transform="translate(221.483 252.722)"/>
                <line id="Line_713" data-name="Line 713" class="cls-7" y1="0.006" transform="translate(130.165 217.734)"/>
                <path id="Path_5706" data-name="Path 5706" class="cls-7" d="M39.832,29.91s-.721,17.4.91,24.642c1.033,4.588,3.08,16.9,4.445,25.279a32.3,32.3,0,0,0,.78,3.516l3.516,12.432q.266.923.6,1.833L64.5,135.673s5.608,13.257,10.281,25.117" transform="translate(51.374 44.856)"/>
                <path id="Path_5707" data-name="Path 5707" class="cls-7" d="M83.455,67.8,45.685,46.473,17.319,70.862l-.734,1.092" transform="translate(16.551 69.838)"/>
                <path id="Path_5708" data-name="Path 5708" class="cls-7" d="M77.141,70.048,50.555,59.462,19.362,83.506" transform="translate(20.74 89.427)"/>
                <path id="Path_5709" data-name="Path 5709" class="cls-7" d="M22.606,97.052l31.68-24.915L84.621,84.458" transform="translate(25.632 108.543)"/>
                <path id="Path_5710" data-name="Path 5710" class="cls-7" d="M28.923,87.446a18.846,18.846,0,0,0-1.365,2.56s-2.6,8.071-2.19,9" transform="translate(29.733 131.633)"/>
                <path id="Path_5711" data-name="Path 5711" class="cls-7" d="M31.817,113.865s-3.665-1.683-3.3-4.036" transform="translate(34.507 165.391)"/>
                <path id="Path_5712" data-name="Path 5712" class="cls-7" d="M39.979,157.118h0l-2.567-14.03L33.89,128.843h0l-5.075-20.548L24.143,87.136V87.09l-.819-5.1a65.4,65.4,0,0,0-1.878-8.331L18.125,62.441,12.543,42.621" transform="translate(10.455 64.027)"/>
                <path id="Path_5713" data-name="Path 5713" class="cls-17" d="M61.961,141.316a1.228,1.228,0,0,1-.188,1.456,3.028,3.028,0,0,1-1.358.76,9.709,9.709,0,0,1-2.106.364,66.624,66.624,0,0,1-11.015-.364,58.915,58.915,0,0,1-7.512-1.215l-.5-1.267,2.4-11.853.4-.435.416-.442s9.78,1.813,14.622,1.183l.494-.071c4.283-.65,3.4-1.605,3.4-1.605l.767.273.318,8.552,3.08-.812.539,3.4S66.9,140,61.961,141.316Z" transform="translate(50.782 192.533)"/>
                <path id="Path_5714" data-name="Path 5714" class="cls-7" d="M46.587,128.655l.007.195.682,13.251" transform="translate(61.801 193.784)"/>
              </g>
              <path id="Path_5715" data-name="Path 5715" class="cls-7" d="M48.693,59.591s-6.752,5.426-6.5,13.647,19.073,42.026,19.073,42.026" transform="translate(62.666 89.622)"/>
            </g>
          </g>
        </g>
        <g id="Ellipse_228-2" data-name="Ellipse 228" class="cls-1" transform="translate(56 1511)">
          <circle class="cls-18" cx="96" cy="96" r="96"/>
          <circle class="cls-19" cx="96" cy="96" r="95.5"/>
        </g>
      </g>
    </g>
  </g>
</svg>
