<svg xmlns="http://www.w3.org/2000/svg" xmlns:xlink="http://www.w3.org/1999/xlink" viewBox="0 0 193 193">
  <defs>
    <style>
      .cls-1, .cls-10, .cls-13, .cls-14, .cls-15, .cls-16, .cls-19, .cls-6, .cls-7, .cls-8, .cls-9 {
        fill: none;
      }

      .cls-1, .cls-2 {
        stroke: #707070;
      }

      .cls-12, .cls-17, .cls-2, .cls-4, .cls-5 {
        fill: #fff;
      }

      .cls-3 {
        clip-path: url(#clip-path);
      }

      .cls-10, .cls-12, .cls-13, .cls-14, .cls-15, .cls-16, .cls-17, .cls-5, .cls-6, .cls-7, .cls-8, .cls-9 {
        stroke: #1d1d1b;
      }

      .cls-10, .cls-12, .cls-13, .cls-15, .cls-16, .cls-5, .cls-7, .cls-8, .cls-9 {
        stroke-miterlimit: 10;
      }

      .cls-5, .cls-6, .cls-9 {
        stroke-width: 0.259px;
      }

      .cls-14, .cls-17, .cls-6 {
        stroke-linejoin: round;
      }

      .cls-14, .cls-17, .cls-7, .cls-8 {
        stroke-width: 0.777px;
      }

      .cls-8, .cls-9 {
        stroke-linecap: round;
      }

      .cls-10 {
        stroke-width: 0.153px;
      }

      .cls-11 {
        fill: #1d1d1b;
      }

      .cls-12 {
        stroke-width: 0.194px;
      }

      .cls-13 {
        stroke-width: 0.236px;
      }

      .cls-15 {
        stroke-width: 0.249px;
      }

      .cls-16 {
        stroke-width: 0.13px;
      }

      .cls-18 {
        stroke: none;
      }
    </style>
    <clipPath id="clip-path">
      <circle id="Ellipse_228" data-name="Ellipse 228" class="cls-1" cx="96" cy="96" r="96" transform="translate(71 400)"/>
    </clipPath>
  </defs>
  <g id="Group_443" data-name="Group 443" transform="translate(-5643 -1752)">
    <g id="Ellipse_285" data-name="Ellipse 285" class="cls-2" transform="translate(5644 1752)">
      <circle class="cls-18" cx="96" cy="96" r="96"/>
      <circle class="cls-19" cx="96" cy="96" r="95.5"/>
    </g>
    <g id="Group_399" data-name="Group 399" transform="translate(4484 241)">
      <g id="Mask_Group_40" data-name="Mask Group 40" class="cls-3" transform="translate(1088 1112)">
        <g id="Mizano_Diagonal" data-name="Mizano Diagonal" transform="translate(85.853 246.807)">
          <g id="Camada_1" data-name="Camada 1" transform="translate(0.383 0.101)">
            <g id="Base" transform="translate(0 208.792)">
              <g id="base-2" data-name="base">
                <path id="Path_5522" data-name="Path 5522" class="cls-4" d="M102.546,168.288a7.3,7.3,0,0,1,6.058,3.132c2.313,3.352,0,7.709,0,7.709-1.241,6.413-6.815,6.1-6.815,6.1-8.205-.083-7.034-9.881-7.034-9.881l-.083-6.831S97.722,170.7,102.546,168.288Z" transform="translate(55.907 -108.486)"/>
                <path id="Path_5523" data-name="Path 5523" class="cls-5" d="M76.025,152.828l-.157.8s-1.076-.066-2.288,4.94l12.93,3.211s1.779-6.277-1.552-7.928l-1.378-.5-1.845.285v-1.039Z" transform="translate(43.314 -117.848)"/>
                <path id="Path_5524" data-name="Path 5524" class="cls-4" d="M7.487,167.687a7.307,7.307,0,0,0-6.066,3.128c-2.313,3.356,0,7.713,0,7.713,1.241,6.409,6.815,6.1,6.815,6.1,8.205-.083,7.034-9.881,7.034-9.881l.083-6.836S12.311,170.083,7.487,167.687Z" transform="translate(-0.378 -108.845)"/>
                <path id="Path_5525" data-name="Path 5525" class="cls-5" d="M33.874,152.388l.157.8s1.076-.066,2.284,4.94l-12.926,3.215s-1.779-6.277,1.552-7.928l1.378-.5,1.845.29v-1.059Z" transform="translate(13.068 -118.124)"/>
                <path id="Path_5526" data-name="Path 5526" class="cls-4" d="M52.086,180.862v1.4H49.549l-.861,1.883.161,11.768.943,2.123h2.553s.463-.472.414-2.594,0-2.656,0-2.656l4.171-.033v4.084s.137,1.2.414,1.2h2.549a7.5,7.5,0,0,0,1.216-2.594c.178-1.171-.029-11.01-.029-11.01l-.943-2.172H57.411l-.083-.865Z" transform="translate(28.455 -100.979)"/>
                <path id="Path_5527" data-name="Path 5527" class="cls-6" d="M11.789,168.024l-.141,6.368-.244.153a6.6,6.6,0,0,0-1.978-3.261A7.572,7.572,0,0,0,6.9,169.952v-1.283" transform="translate(3.508 -108.644)"/>
                <circle id="Ellipse_263" data-name="Ellipse 263" class="cls-7" cx="6.815" cy="6.815" r="6.815" transform="translate(1.051 62.152)"/>
                <path id="Path_5528" data-name="Path 5528" class="cls-8" d="M1.426,178.659a13.241,13.241,0,0,1-1.043-4.138,6.815,6.815,0,0,1,6.835-6.8" transform="translate(-0.383 -108.823)"/>
                <path id="Path_5529" data-name="Path 5529" class="cls-9" d="M.415,174.7c0-3.761,3.86-6.591,7.626-6.591" transform="translate(-0.365 -108.596)"/>
                <circle id="Ellipse_264" data-name="Ellipse 264" class="cls-7" cx="1.171" cy="1.171" r="1.171" transform="translate(6.823 67.817)"/>
                <path id="Path_5530" data-name="Path 5530" class="cls-7" d="M5.475,170.431a35.852,35.852,0,0,0,.182,3.927c.153.2.3.331.728,0a27.914,27.914,0,0,0,2.1-2.954" transform="translate(2.656 -107.207)"/>
                <path id="Path_5531" data-name="Path 5531" class="cls-7" d="M8.822,171.6a35.548,35.548,0,0,0-2.4,3.1c0,.236,0,.455.554.476a27.808,27.808,0,0,0,3.513-.885" transform="translate(3.219 -106.506)"/>
                <path id="Path_5532" data-name="Path 5532" class="cls-7" d="M10.527,174.04A33.649,33.649,0,0,0,6.6,174.2c-.2.161-.335.306,0,.732a28.775,28.775,0,0,0,2.938,2.114" transform="translate(3.206 -105.052)"/>
                <path id="Path_5533" data-name="Path 5533" class="cls-7" d="M9.36,177.332a36.043,36.043,0,0,0-3.211-2.263c-.236.008-.451.037-.447.579a28.418,28.418,0,0,0,1.043,3.467" transform="translate(2.792 -104.438)"/>
                <path id="Path_5534" data-name="Path 5534" class="cls-7" d="M6.027,170.436a35.967,35.967,0,0,1,.041,3.927c-.141.2-.286.352-.732.041a27.928,27.928,0,0,1-2.263-2.826" transform="translate(1.222 -107.204)"/>
                <path id="Path_5535" data-name="Path 5535" class="cls-7" d="M3.109,171.747s2.557,2.727,2.578,2.946,0,.451-.53.5a28.3,28.3,0,0,1-3.558-.687" transform="translate(0.342 -106.421)"/>
                <path id="Path_5536" data-name="Path 5536" class="cls-7" d="M1.625,174.587a35.71,35.71,0,0,1,3.927-.062c.2.141.356.281.046.728a28.355,28.355,0,0,1-2.814,2.276" transform="translate(0.357 -104.792)"/>
                <path id="Path_5537" data-name="Path 5537" class="cls-7" d="M3.083,178.038a36.506,36.506,0,0,1,2.685-2.867c.232-.041.451-.054.559.476A28.044,28.044,0,0,1,6,179.255" transform="translate(1.228 -104.387)"/>
                <path id="Path_5538" data-name="Path 5538" class="cls-7" d="M94.511,167.373v7.766l.232.17a6.618,6.618,0,0,1,2.193-3.12,7.576,7.576,0,0,1,2.611-1.159l.087-1.283" transform="translate(55.811 -109.032)"/>
                <circle id="Ellipse_265" data-name="Ellipse 265" class="cls-7" cx="6.964" cy="6.964" r="6.964" transform="translate(150.269 62.984)"/>
                <path id="Path_5539" data-name="Path 5539" class="cls-7" d="M105.037,179.277a11.006,11.006,0,0,0,1.072-3.724c.257-3.753-1.949-7.005-5.706-7.258" transform="translate(59.328 -108.481)"/>
                <path id="Path_5540" data-name="Path 5540" class="cls-10" d="M106.658,175.608c.252-3.757-3.451-6.707-7.208-6.96" transform="translate(58.759 -108.271)"/>
                <path id="Path_5541" data-name="Path 5541" class="cls-10" d="M107.35,176.345c-.571-5.379-5.007-7.369-9.517-6.583" transform="translate(57.794 -107.705)"/>
                <circle id="Ellipse_266" data-name="Ellipse 266" class="cls-7" cx="1.171" cy="1.171" r="1.171" transform="translate(156.078 68.64)"/>
                <path id="Path_5542" data-name="Path 5542" class="cls-7" d="M100.157,170.949a36.68,36.68,0,0,1-.447,3.9c-.161.178-.327.314-.728-.05a28.552,28.552,0,0,1-1.9-3.087" transform="translate(57.348 -106.897)"/>
                <path id="Path_5543" data-name="Path 5543" class="cls-7" d="M97.166,171.954a34.833,34.833,0,0,1,2.189,3.26c-.017.24-.046.451-.583.434a28.281,28.281,0,0,1-3.426-1.121" transform="translate(56.309 -106.297)"/>
                <path id="Path_5544" data-name="Path 5544" class="cls-7" d="M95.265,174.312s3.724.265,3.906.414.314.323-.046.728a27.892,27.892,0,0,1-3.078,1.907" transform="translate(56.261 -104.89)"/>
                <path id="Path_5545" data-name="Path 5545" class="cls-7" d="M96.087,177.582a34.9,34.9,0,0,1,3.356-2.04c.236.029.447.062.414.6a26.981,26.981,0,0,1-1.279,3.389" transform="translate(56.751 -104.155)"/>
                <path id="Path_5546" data-name="Path 5546" class="cls-7" d="M99.682,171a35.977,35.977,0,0,0-.306,3.918c.128.194.261.368.724.091a28.117,28.117,0,0,0,2.45-2.669" transform="translate(58.701 -106.866)"/>
                <path id="Path_5547" data-name="Path 5547" class="cls-7" d="M102.885,172.459a35.9,35.9,0,0,0-2.772,2.781c-.033.236-.041.451.492.538a28.579,28.579,0,0,0,3.6-.443" transform="translate(59.147 -105.995)"/>
                <path id="Path_5548" data-name="Path 5548" class="cls-7" d="M104.124,175.443a35.783,35.783,0,0,0-3.914-.327c-.19.128-.372.257-.1.724a28,28,0,0,0,2.656,2.462" transform="translate(59.071 -104.423)"/>
                <path id="Path_5549" data-name="Path 5549" class="cls-7" d="M102.116,178.767a36.793,36.793,0,0,0-2.483-3.045c-.228-.058-.443-.087-.583.439a28.551,28.551,0,0,0,.074,3.62" transform="translate(58.492 -104.066)"/>
                <path id="Path_5550" data-name="Path 5550" class="cls-4" d="M25.232,156.781a.733.733,0,0,1-.194-.24c-.153-.261-.666-1.713-.981-2.619a1.721,1.721,0,0,1,1.407-.05c0,1.32-.062,2.706-.1,2.834C25.331,156.761,25.294,156.81,25.232,156.781Z" transform="translate(13.749 -117.167)"/>
                <path id="Path_5551" data-name="Path 5551" class="cls-11" d="M26.322,157.274c.443.215,1.026.53,1.349.708a1.163,1.163,0,0,1,0,.12v.12c-.443-.244-1-.542-1.4-.737a2.2,2.2,0,0,0-.513-.211s-.079.054-.083.1a.981.981,0,0,0,.074.285c.124.335,1.034,1.833,1.419,2.45l-.087.141c-.273-.447-1.241-2.069-1.4-2.441a1.241,1.241,0,0,1-.1-.517.269.269,0,0,1,.145-.248,1.708,1.708,0,0,1,.6.236Z" transform="translate(14.657 -115.202)"/>
                <path id="Path_5552" data-name="Path 5552" class="cls-11" d="M25.6,153.867a19.468,19.468,0,0,1-.137,3.012c-.066.087-.112.137-.2.1a.745.745,0,0,1-.236-.285c-.194-.331-.828-2.193-1.039-2.756a.83.83,0,0,1,.1-.058c.314.906.828,2.359.981,2.619a.732.732,0,0,0,.194.24c.062.029.1,0,.137-.074.033-.128.074-1.514.1-2.834Z" transform="translate(13.711 -117.12)"/>
                <path id="Path_5553" data-name="Path 5553" class="cls-11" d="M23.121,155.32l.025-.228.029.029a2.169,2.169,0,0,1-.033.219Z" transform="translate(13.191 -116.363)"/>
                <path id="Path_5554" data-name="Path 5554" class="cls-11" d="M23.406,157.6h0c.025.074.05.145.079.219l-.05.025Z" transform="translate(13.361 -114.869)"/>
                <g id="Group_393" data-name="Group 393" transform="translate(35.568 34.908)">
                  <path id="Path_5555" data-name="Path 5555" class="cls-11" d="M23.1,156.118v-.1a.934.934,0,0,1,0,.108Z" transform="translate(-22.388 -150.721)"/>
                  <path id="Path_5556" data-name="Path 5556" class="cls-11" d="M25.333,157.359c.1.05.215.17.252.621a23.318,23.318,0,0,1-.257,2.549l-.1-.074A23.173,23.173,0,0,0,25.486,158c0-.277-.07-.36-.149-.414a.24.24,0,0,0-.07-.025A10.654,10.654,0,0,0,23.91,158.9c-.037-.058-.066-.112-.1-.174a9.935,9.935,0,0,1,1.452-1.411Z" transform="translate(-21.966 -149.946)"/>
                  <path id="Path_5557" data-name="Path 5557" class="cls-4" d="M25.715,157.186a2.2,2.2,0,0,1,.513.211c.414.195.96.492,1.4.737a4.386,4.386,0,0,1-.5,1.883c-.385-.616-1.3-2.114-1.419-2.449a.981.981,0,0,1-.074-.286C25.636,157.24,25.694,157.2,25.715,157.186Z" transform="translate(-20.878 -150.022)"/>
                  <path id="Path_5558" data-name="Path 5558" class="cls-4" d="M25.385,157.086a.31.31,0,0,1-.124-.19c-.033-.178,0-1.576.046-2.9a4.75,4.75,0,0,1,1.378,1.473,10.168,10.168,0,0,1-1.1,1.568A.215.215,0,0,1,25.385,157.086Z" transform="translate(-21.107 -151.924)"/>
                  <path id="Path_5559" data-name="Path 5559" class="cls-11" d="M25.247,157.4a.683.683,0,0,1-.124.414,6.665,6.665,0,0,1-1.353.877c-.029-.07-.054-.145-.083-.215a7.108,7.108,0,0,0,1.374-.877.414.414,0,0,0,.087-.207.579.579,0,0,0-.079-.182,11.79,11.79,0,0,0-1.568-.828l-.294-.145v-.248l.372.182a8.417,8.417,0,0,1,1.552.865.77.77,0,0,1,.116.364Z" transform="translate(-22.326 -150.735)"/>
                  <path id="Path_5560" data-name="Path 5560" class="cls-11" d="M25.236,157.142a.794.794,0,0,1-.041.3c-.05.1-.145.112-.3.05h0a16.591,16.591,0,0,1-1.655-1.415.5.5,0,0,1,.033-.219,17.817,17.817,0,0,0,1.63,1.394h0c.153.066.207.033.228,0a.265.265,0,0,0,0-.112c-.066-.261-.745-1.9-1.192-2.934.029-.037.062-.07.091-.1A17.155,17.155,0,0,1,25.236,157.142Z" transform="translate(-22.307 -151.861)"/>
                  <path id="Path_5561" data-name="Path 5561" class="cls-4" d="M25.338,156.21a1.13,1.13,0,0,1,.451.666,1.444,1.444,0,0,1,.062.451c-.021.414-.277.654-.567.509h-.033a1.146,1.146,0,0,1-.463-.658,1.473,1.473,0,0,1-.062-.455c.021-.414.281-.654.575-.509Z" transform="translate(-21.42 -150.627)"/>
                  <path id="Path_5562" data-name="Path 5562" class="cls-11" d="M25.908,156.835a1.9,1.9,0,0,1,.087.641c-.025.567-.319.865-.679.691h-.029a1.332,1.332,0,0,1-.534-.774,2.011,2.011,0,0,1-.083-.641c.029-.571.331-.856.691-.683h0a1.336,1.336,0,0,1,.546.765Zm0,.583a1.444,1.444,0,0,0-.062-.451,1.129,1.129,0,0,0-.463-.666h-.025c-.294-.145-.554.083-.575.509a1.473,1.473,0,0,0,.062.455,1.146,1.146,0,0,0,.463.658h.033c.29.145.546-.087.567-.509" transform="translate(-21.452 -150.718)"/>
                  <path id="Path_5563" data-name="Path 5563" class="cls-11" d="M25.479,157.621c.12.062,1.163,1.928,1.564,2.648l-.1.1c-.559-1.005-1.374-2.441-1.469-2.507s-.186-.066-.2.236.207,1.7.372,2.71l-.116,0c-.124-.749-.385-2.392-.368-2.752C25.194,157.493,25.372,157.571,25.479,157.621Z" transform="translate(-21.16 -149.783)"/>
                  <path id="Path_5564" data-name="Path 5564" class="cls-4" d="M25.231,158.007c0-.3.062-.3.2-.236a23.7,23.7,0,0,1,1.469,2.507,1.63,1.63,0,0,1-1.3.434C25.437,159.712,25.218,158.272,25.231,158.007Z" transform="translate(-21.118 -149.693)"/>
                  <path id="Path_5565" data-name="Path 5565" class="cls-11" d="M26.982,157.072v.244h0a.958.958,0,0,0-.021-.244Z" transform="translate(-20.085 -150.09)"/>
                  <path id="Path_5566" data-name="Path 5566" class="cls-11" d="M29.8,157.514a11.076,11.076,0,0,1,.476,3.658c-.145,3.207-1.879,4.928-3.906,3.939l-.166-.087a7.594,7.594,0,0,1-3.066-4.452,11.064,11.064,0,0,1-.476-3.654c.145-3.211,1.879-4.928,3.91-3.939l.161.083A7.634,7.634,0,0,1,29.8,157.514Zm-.029,3.36a8.18,8.18,0,0,0-.364-2.714,6.644,6.644,0,0,0-2.718-3.889l-.157-.083c-1.754-.857-3.248.463-3.364,3.025a8.168,8.168,0,0,0,.364,2.714,6.675,6.675,0,0,0,2.718,3.889l.153.079c1.754.857,3.252-.455,3.368-3.021" transform="translate(-22.655 -152.7)"/>
                  <path id="Path_5567" data-name="Path 5567" class="cls-11" d="M25.247,153.965l.1.062c-.05,1.312-.079,2.71-.046,2.9a.31.31,0,0,0,.124.19.215.215,0,0,0,.2-.037,10.168,10.168,0,0,0,1.1-1.568l.1.157a11.077,11.077,0,0,1-1.163,1.655.257.257,0,0,1-.24.037.513.513,0,0,1-.19-.294,21.608,21.608,0,0,1,.021-3.1Z" transform="translate(-21.147 -151.944)"/>
                  <path id="Path_5568" data-name="Path 5568" class="cls-4" d="M27.135,158.933a1.71,1.71,0,0,1,.608.236c.443.215,1.026.53,1.349.708v-.662a8.621,8.621,0,0,1-1.688-.294h-.029a.612.612,0,0,1-.29-.348,1,1,0,0,1-.025-.335c0-.066,0-.24,1.332-1.767a7.221,7.221,0,0,0-.377-.737,11.076,11.076,0,0,1-1.163,1.655.256.256,0,0,1-.24.037.513.513,0,0,1-.19-.294,21.606,21.606,0,0,1,0-3.087l-.087-.054-.137-.07-.132-.058a19.468,19.468,0,0,1-.137,3.012c-.066.087-.112.137-.2.1a.745.745,0,0,1-.236-.285c-.194-.331-.828-2.193-1.039-2.756a1.874,1.874,0,0,0-.414.327,16.829,16.829,0,0,1,1.2,3.049.8.8,0,0,1-.041.3c-.05.1-.145.112-.3.05h0a16.587,16.587,0,0,1-1.655-1.415c-.021.161-.037.331-.046.5s0,.339,0,.513l.372.182a8.416,8.416,0,0,1,1.552.865.77.77,0,0,1,.128.414.683.683,0,0,1-.124.414,6.667,6.667,0,0,1-1.353.877,7.288,7.288,0,0,0,.414.828,9.936,9.936,0,0,1,1.452-1.411l.07.029c.1.05.215.17.252.621a23.32,23.32,0,0,1-.257,2.549c.083.054.166.108.252.157l.137.07a2.313,2.313,0,0,0,.6.17c-.124-.749-.385-2.392-.368-2.752,0-.563.2-.472.306-.414s1.163,1.928,1.564,2.648a2.361,2.361,0,0,0,.277-.352c-.273-.447-1.241-2.069-1.4-2.441a1.241,1.241,0,0,1-.1-.517A.269.269,0,0,1,27.135,158.933Zm-.261-.17c-.025.567-.319.865-.679.691h-.029a1.332,1.332,0,0,1-.534-.774,2.011,2.011,0,0,1-.083-.641c.029-.571.331-.856.691-.683h0a1.337,1.337,0,0,1,.53.774,1.9,1.9,0,0,1,.087.641" transform="translate(-22.332 -152.005)"/>
                  <path id="Path_5569" data-name="Path 5569" class="cls-4" d="M23.5,156.286l-.294-.145a7.9,7.9,0,0,0,.331,1.8c.046.153.1.3.149.451a7.106,7.106,0,0,0,1.374-.877.414.414,0,0,0,.087-.207.579.579,0,0,0-.079-.182,11.8,11.8,0,0,0-1.568-.844Z" transform="translate(-22.326 -150.645)"/>
                  <path id="Path_5570" data-name="Path 5570" class="cls-4" d="M24.891,157.217h0a17.832,17.832,0,0,1-1.643-1.4,3.526,3.526,0,0,1,.691-1.655c.447,1.039,1.125,2.673,1.192,2.934a.265.265,0,0,1,0,.112C25.1,157.25,25.044,157.284,24.891,157.217Z" transform="translate(-22.301 -151.828)"/>
                  <path id="Path_5571" data-name="Path 5571" class="cls-4" d="M25.47,157.907a23.17,23.17,0,0,1-.257,2.454,5.094,5.094,0,0,1-1.341-1.556,10.655,10.655,0,0,1,1.357-1.336.242.242,0,0,1,.07.025C25.379,157.563,25.428,157.63,25.47,157.907Z" transform="translate(-21.928 -149.853)"/>
                  <path id="Path_5572" data-name="Path 5572" class="cls-4" d="M25.673,157.266a15.68,15.68,0,0,1,1.316-1.655,7.748,7.748,0,0,1,.285.79,8.462,8.462,0,0,1,.31,1.539,8.634,8.634,0,0,1-1.655-.286H25.9a.472.472,0,0,1-.223-.236.381.381,0,0,1,0-.153Z" transform="translate(-20.857 -150.962)"/>
                  <path id="Path_5573" data-name="Path 5573" class="cls-11" d="M25.974,157.712a8.636,8.636,0,0,0,1.655.286c0,.083,0,.166,0,.244a8.624,8.624,0,0,1-1.688-.294h-.029a.612.612,0,0,1-.29-.348,1,1,0,0,1-.025-.335c0-.066,0-.24,1.332-1.771.029.066.058.128.083.19a15.679,15.679,0,0,0-1.316,1.655.38.38,0,0,0,0,.124.472.472,0,0,0,.223.236Z" transform="translate(-20.901 -151.032)"/>
                </g>
                <path id="Path_5574" data-name="Path 5574" class="cls-4" d="M29.218,157.7a8.18,8.18,0,0,1,.364,2.714c-.116,2.565-1.614,3.877-3.368,3.021l-.153-.079a6.675,6.675,0,0,1-2.718-3.889,8.168,8.168,0,0,1-.364-2.714c.116-2.561,1.61-3.881,3.364-3.025l.157.083A6.626,6.626,0,0,1,29.218,157.7Zm.157,2.632a7.411,7.411,0,0,0,0-.856v-.244a10.484,10.484,0,0,0-.36-1.754,6.21,6.21,0,0,0-2.512-3.625l-.132-.07c-1.477-.72-2.76.277-3.095,2.317l-.029-.029-.025.228.021.021c-.025.178-.041.364-.05.554s0,.447,0,.67v.1a9.3,9.3,0,0,0,.377,2.069c.033.116.07.228.112.339l.029.244.05-.025a5.837,5.837,0,0,0,2.317,3.07l.141.07c1.655.828,3.058-.546,3.169-3.091" transform="translate(13.103 -117.336)"/>
                <g id="Group_394" data-name="Group 394" transform="translate(123.017 35.499)">
                  <path id="Path_5575" data-name="Path 5575" class="cls-11" d="M82.08,155.81h0l.021.24h0A1.483,1.483,0,0,1,82.08,155.81Z" transform="translate(-74.628 -151.434)"/>
                  <path id="Path_5576" data-name="Path 5576" class="cls-11" d="M81.782,157.662c.025-.07.054-.145.079-.219h0v.244Z" transform="translate(-74.806 -150.459)"/>
                  <path id="Path_5577" data-name="Path 5577" class="cls-11" d="M79.831,154.058l.1-.046c.1,1.266.219,2.586.273,2.718.041.041.083.083.149.05a.653.653,0,0,0,.219-.257c.174-.294.745-1.965.96-2.611l.116.041c-.182.546-.828,2.429-1.022,2.768a.72.72,0,0,1-.252.294c-.087.041-.149,0-.215-.07A17.708,17.708,0,0,1,79.831,154.058Z" transform="translate(-75.97 -152.566)"/>
                  <path id="Path_5578" data-name="Path 5578" class="cls-11" d="M80.284,157.653c.116-.058.265-.079.314.414a24.877,24.877,0,0,1-.257,2.685l-.108.021c.128-.985.294-2.392.269-2.644s-.074-.281-.2-.219l-.041.021c-.1.058-.939,1.527-1.523,2.561l-.12-.087c.335-.6,1.485-2.64,1.618-2.71Z" transform="translate(-76.696 -150.351)"/>
                  <path id="Path_5579" data-name="Path 5579" class="cls-11" d="M80.2,154.139a17.852,17.852,0,0,1,.2,2.975c-.058.153-.1.252-.2.3a.31.31,0,0,1-.261,0,10.527,10.527,0,0,1-1.407-1.473l.1-.157a9.444,9.444,0,0,0,1.324,1.386.261.261,0,0,0,.223,0c.079-.033.112-.128.149-.223.021-.161-.091-1.494-.219-2.747Z" transform="translate(-76.747 -152.431)"/>
                  <path id="Path_5580" data-name="Path 5580" class="cls-11" d="M79.717,157.258c.182-.087.306-.137.335-.12a.261.261,0,0,1,.178.236,1.076,1.076,0,0,1-.087.513c-.137.385-1.159,2.032-1.444,2.483-.033-.037-.07-.079-.1-.124.472-.749,1.357-2.193,1.473-2.52a.728.728,0,0,0,.066-.273s0-.041-.1-.079a.894.894,0,0,0-.248.1c-.414.2-1.241.662-1.87,1.018v-.236C78.281,158.027,79.212,157.5,79.717,157.258Z" transform="translate(-77.113 -150.643)"/>
                  <path id="Path_5581" data-name="Path 5581" class="cls-11" d="M80.119,157.282a.981.981,0,0,1,0,.31.608.608,0,0,1-.31.385l-.05.029a12.256,12.256,0,0,1-1.879.443V158.2a12.1,12.1,0,0,0,1.845-.414l.046-.025a.526.526,0,0,0,.248-.269.281.281,0,0,0,0-.1,16.2,16.2,0,0,0-1.589-1.473l.083-.186C80.119,157.051,80.119,157.212,80.119,157.282Z" transform="translate(-77.135 -151.478)"/>
                  <path id="Path_5582" data-name="Path 5582" class="cls-11" d="M84.611,156.616c0,.165.029.335.033.5v.248a7.7,7.7,0,0,1-.215,1.713q-.079.327-.186.645c-.025.074-.054.149-.079.219a6.132,6.132,0,0,1-2.441,3.2l-.257.137c-1.771.828-3.372-.323-3.641-2.723a6.617,6.617,0,0,1-.037-.828c0-.079,0-.161,0-.244a7.766,7.766,0,0,1,.207-1.4,6.518,6.518,0,0,1,2.706-4.067l.252-.137c1.576-.749,3.025.1,3.509,1.986a1.748,1.748,0,0,1,.05.211,5.162,5.162,0,0,1,.1.534Zm-.12.583a4.682,4.682,0,0,0-.029-.488c-.021-.17-.046-.331-.079-.488a.792.792,0,0,0-.054-.211,3,3,0,0,0-.881-1.519l-.108-.087a1.89,1.89,0,0,0-.476-.273l-.116-.041a2.263,2.263,0,0,0-1.6.1l-.1.046-.054.025c-.083.037-.166.083-.248.128l-.1.062-.1.062a5.321,5.321,0,0,0-1.477,1.564l-.1.157a7.031,7.031,0,0,0-.389.745l-.083.186a7.831,7.831,0,0,0-.364,1.117,7.034,7.034,0,0,0-.182,1.183v.248c0,.215,0,.414.021.637v.236a3.633,3.633,0,0,0,.679,1.759c.033.046.07.087.1.124a1.965,1.965,0,0,0,.335.31l.12.087a2.069,2.069,0,0,0,1.5.281l.108-.021a3,3,0,0,0,.592-.211l.261-.137c.1-.054.19-.116.281-.178l.1-.07a5.639,5.639,0,0,0,1.411-1.618l.1-.174a7.1,7.1,0,0,0,.414-.857l.083-.219a6.947,6.947,0,0,0,.232-.774,6.818,6.818,0,0,0,.19-1.444V157.2" transform="translate(-77.191 -152.745)"/>
                  <path id="Path_5583" data-name="Path 5583" class="cls-11" d="M80.578,157.465a.679.679,0,0,1,.12-.414,16.311,16.311,0,0,1,2.119-1.2v.248a17.621,17.621,0,0,0-2.069,1.15.5.5,0,0,0-.079.178.318.318,0,0,0,.1.178,7.86,7.86,0,0,0,1.614.712l-.083.219a7.331,7.331,0,0,1-1.572-.708A.559.559,0,0,1,80.578,157.465Z" transform="translate(-75.525 -151.409)"/>
                  <path id="Path_5584" data-name="Path 5584" class="cls-4" d="M80.578,157.127c.066-.269.749-1.924,1.188-2.963a3,3,0,0,1,.881,1.519,18.783,18.783,0,0,1-1.775,1.519h0c-.19.083-.248.045-.269,0A.416.416,0,0,1,80.578,157.127Z" transform="translate(-75.525 -152.416)"/>
                  <path id="Path_5585" data-name="Path 5585" class="cls-11" d="M80.879,156.741a1.655,1.655,0,0,1-.037.563,1.4,1.4,0,0,1-.571.865l-.054.025c-.381.182-.716-.074-.774-.608a1.556,1.556,0,0,1,.041-.567,1.386,1.386,0,0,1,.567-.861l.046-.025C80.482,155.95,80.822,156.2,80.879,156.741Zm-.124.439a1.059,1.059,0,0,0,.029-.372c-.045-.414-.339-.592-.662-.439l-.05.025a1.216,1.216,0,0,0-.5.749,1.085,1.085,0,0,0-.029.377c.046.414.339.592.654.439l.058-.029a1.2,1.2,0,0,0,.5-.749" transform="translate(-76.207 -151.276)"/>
                  <path id="Path_5586" data-name="Path 5586" class="cls-4" d="M80.085,156.278c.323-.153.617.037.662.439a1.059,1.059,0,0,1-.029.372,1.2,1.2,0,0,1-.5.749l-.058.029c-.314.153-.608-.041-.654-.439a1.085,1.085,0,0,1,.029-.377,1.217,1.217,0,0,1,.5-.749Z" transform="translate(-76.17 -151.186)"/>
                  <path id="Path_5587" data-name="Path 5587" class="cls-11" d="M85.421,156.577a8.35,8.35,0,0,1-.207,2.9,7.658,7.658,0,0,1-3.178,4.779c-.1.054-.2.112-.3.157-2.069.989-3.964-.381-4.278-3.19a8.561,8.561,0,0,1,.207-2.9,7.674,7.674,0,0,1,3.182-4.779l.294-.153C83.219,152.4,85.11,153.759,85.421,156.577Zm-.348,2.681a7.552,7.552,0,0,0,.186-2.574c-.29-2.6-2.069-3.848-4.072-2.9-.1.05-.2.1-.3.161a7.369,7.369,0,0,0-3.078,4.589,7.666,7.666,0,0,0-.19,2.574c.294,2.607,2.09,3.844,4.08,2.9.1-.05.2-.1.3-.157a7.411,7.411,0,0,0,3.078-4.593" transform="translate(-77.414 -153.07)"/>
                  <path id="Path_5588" data-name="Path 5588" class="cls-12" d="M85.2,156.535c-.29-2.6-2.069-3.848-4.071-2.9-.1.05-.2.1-.3.161a7.369,7.369,0,0,0-3.078,4.589,7.667,7.667,0,0,0-.19,2.574c.294,2.607,2.09,3.844,4.08,2.9.1-.05.2-.1.3-.157a7.411,7.411,0,0,0,3.078-4.593,7.551,7.551,0,0,0,.186-2.574Zm-.389,1.01a7.7,7.7,0,0,1-.215,1.713q-.079.327-.186.645v.244l-.066-.025a6.132,6.132,0,0,1-2.441,3.2l-.257.137c-1.771.828-3.372-.323-3.641-2.723-.029-.265-.041-.538-.05-.828v-.244h.029a7.763,7.763,0,0,1,.207-1.4,6.518,6.518,0,0,1,2.706-4.067l.252-.137c1.576-.749,3.025.1,3.509,1.986l.046-.041.033.228-.029.025a5.157,5.157,0,0,1,.087.525c0,.166.029.335.033.5l.021.24h0" transform="translate(-77.351 -152.92)"/>
                  <path id="Path_5589" data-name="Path 5589" class="cls-11" d="M82.02,155.007l.033.228-.029.025a1.746,1.746,0,0,0-.05-.211Z" transform="translate(-74.691 -151.913)"/>
                  <path id="Path_5590" data-name="Path 5590" class="cls-11" d="M80.917,157.236a18.767,18.767,0,0,0,1.775-1.519.987.987,0,0,0,.054.211,18.168,18.168,0,0,1-1.812,1.547h0c-.186.079-.285.07-.348-.033a.715.715,0,0,1-.058-.281,17.265,17.265,0,0,1,1.179-3.054l.108.087c-.439,1.039-1.121,2.694-1.188,2.963a.415.415,0,0,0,0,.091c.021.033.079.07.269,0Z" transform="translate(-75.554 -152.45)"/>
                  <path id="Path_5591" data-name="Path 5591" class="cls-11" d="M80.38,157.348l.074-.029a9.738,9.738,0,0,1,1.717,1.212l-.1.174a10.289,10.289,0,0,0-1.605-1.146.194.194,0,0,0-.062.025c-.108.05-.161.137-.17.414a19.774,19.774,0,0,0,.414,2.329l-.1.07a18.712,18.712,0,0,1-.414-2.425C80.148,157.525,80.268,157.4,80.38,157.348Z" transform="translate(-75.786 -150.534)"/>
                  <path id="Path_5592" data-name="Path 5592" class="cls-4" d="M80.379,157.493a.2.2,0,0,1,.062-.025,10.285,10.285,0,0,1,1.605,1.146,5.64,5.64,0,0,1-1.411,1.618,19.78,19.78,0,0,1-.414-2.33C80.2,157.63,80.251,157.563,80.379,157.493Z" transform="translate(-75.74 -150.444)"/>
                  <path id="Path_5593" data-name="Path 5593" class="cls-4" d="M80.14,157.141a.261.261,0,0,1-.223,0,9.441,9.441,0,0,1-1.324-1.386,5.321,5.321,0,0,1,1.477-1.564c.128,1.241.24,2.586.219,2.747C80.252,157.013,80.219,157.108,80.14,157.141Z" transform="translate(-76.71 -152.4)"/>
                  <path id="Path_5594" data-name="Path 5594" class="cls-4" d="M80.134,157.363a.729.729,0,0,1-.066.273c-.116.327-1,1.771-1.473,2.52a3.633,3.633,0,0,1-.679-1.759c.617-.356,1.452-.828,1.87-1.018a.9.9,0,0,1,.248-.1C80.1,157.321,80.13,157.346,80.134,157.363Z" transform="translate(-77.113 -150.553)"/>
                  <path id="Path_5595" data-name="Path 5595" class="cls-4" d="M79.784,157.688l-.046.025a12.1,12.1,0,0,1-1.845.414,7.036,7.036,0,0,1,.182-1.183,7.84,7.84,0,0,1,.364-1.117,16.2,16.2,0,0,1,1.589,1.477.282.282,0,0,1,0,.1.526.526,0,0,1-.244.286Z" transform="translate(-77.127 -151.424)"/>
                  <path id="Path_5596" data-name="Path 5596" class="cls-11" d="M77.782,157.544V157.3h.029v.244Z" transform="translate(-77.194 -150.544)"/>
                </g>
                <path id="Path_5597" data-name="Path 5597" class="cls-4" d="M74.935,130.841l-.033,7.766s-.654.559-.455,4.163c0,0-.968.021-1.047,2.776s-.575,16.964-.575,16.964-11.97-5.122-30.462-2.313c0,0-4.58.782-4.936,2.9s.112,2.681.112,2.681l1.6.294,5.516-.079.046-.79a67.461,67.461,0,0,1,7.51.943,38.29,38.29,0,0,1,6.529,1.883l.054.261s-8.913,1.945-10.121,2.222-16.054,4-19.551,5.094S14,180.854,14,180.854l-8.1,3.529s-1.986,1.49-1.159,5.056a2.672,2.672,0,0,0,.285.244c.828.625,3.43,2.1,7.886.223l.844-1.552s24.574-7.948,41.336-9.815,15.852-1.949,15.852-1.949,2.9-.509,3.331,2.958,1.879,28.083,1.879,28.083.5,3.931,5.081,3.778,5.689-2.11,5.689-2.11.5-.414.621-2.855L88.875,178.1a4.708,4.708,0,0,1,3.724-.65c2.524.393,12.272,1.535,12.272,1.535s12.14,1.6,19.567,3.476,24.354,6.62,24.354,6.62l.894,1.622s3.012,1.771,5.16.873a16.469,16.469,0,0,1,2.95-1.034s1.241-4.353-1.85-5.743-20.13-8.983-38.522-12.678L103.419,169s3.885-2.6,12.483-3.232,7.129-.343,7.129-.343v1.059l1.845-.29s.993-3.186-1.146-4.27-6.318-2.694-17.643-2S90.046,162.7,90.046,162.7l-.484-17.018A2.81,2.81,0,0,0,88.6,143s.314-3.542-.455-4.411l-.381-6.413Z" transform="translate(2.096 -130.841)"/>
                <path id="Path_5598" data-name="Path 5598" class="cls-7" d="M58.139,154.986l-.058-3.112s4.9-2.636,19.141-2.9S92.767,152,92.767,152s.65.526.165,3.364a8.932,8.932,0,0,1-1.7.285c-.2-.079-.083-1.055-.083-1.055s-12.413-.161-19.832,3.2" transform="translate(34.062 -120.022)"/>
                <path id="Path_5599" data-name="Path 5599" class="cls-7" d="M60.556,154.814v-3s-5.354-2.843-19.592-3.087-15.533,3-15.533,3-.65.53-.161,3.368a8.932,8.932,0,0,0,1.7.286c.2-.079.079-1.055.079-1.055s12.413-.161,19.836,3.2" transform="translate(14.365 -120.169)"/>
                <path id="Path_5600" data-name="Path 5600" class="cls-7" d="M89.758,153.321s23.018,4.22,39.809,8.966a169.213,169.213,0,0,1,27.015,9.856s2.147,1.138,1.216,5.437c0,0-4.179,2.516-8.11.161l-.894-1.622s-17.279-5.131-28.55-7.564a189.424,189.424,0,0,0-20.014-3.037q-3.84-.385-7.646-1.018h-.025a5.636,5.636,0,0,0-3.058.348l-.65.306v.538l-1.37,28.815a3.844,3.844,0,0,1-3,3.571,17.062,17.062,0,0,1-2.632.356c-5.354.368-5.7-3.426-5.7-3.426s-.484-8.114-1.051-18.905-1.341-11.627-1.341-11.627l-.058-.112-.65-.306a5.652,5.652,0,0,0-3.062-.343h0q-3.815.633-7.646,1.018a189.2,189.2,0,0,0-20.022,3.037c-11.25,2.433-28.529,7.564-28.529,7.564l-.894,1.618c-3.935,2.359-8.11-.157-8.11-.157-.935-4.3,1.216-5.437,1.216-5.437A168.55,168.55,0,0,1,33.018,161.5c16.791-4.742,39.809-8.966,39.809-8.966l.025.314" transform="translate(2.107 -117.89)"/>
                <path id="Path_5601" data-name="Path 5601" class="cls-7" d="M56.645,163.659c5.416.137,7.928-2.4,7.928-2.4l.025-.319-.567-19.956a6.622,6.622,0,0,0-.215-1.535,2.482,2.482,0,0,0-.468-.993s-.186,2.677-6.695,2.677h-1.4c-6.509,0-6.691-2.677-6.691-2.677a2.483,2.483,0,0,0-.468.993,6.418,6.418,0,0,0-.215,1.535L47.3,160.94l.025.319s2.512,2.536,7.924,2.4Z" transform="translate(27.627 -126.295)"/>
                <path id="Path_5602" data-name="Path 5602" class="cls-7" d="M54.822,142.782c-5.718.091-6.509-2.524-6.509-2.524v-2.586s-.062-1.49.455-1.978c0,0-.058,2.4,6.389,2.375h.459c6.447.029,6.389-2.375,6.389-2.375.513.488.455,1.978.455,1.978v2.586s-.79,2.615-6.513,2.524Z" transform="translate(28.229 -127.944)"/>
                <path id="Path_5603" data-name="Path 5603" class="cls-7" d="M48.619,138.79v-7.949s2.661.257,6.529.761,6.293.592,6.293.592l.236,6.3s-.323,2.636-6.327,2.483S48.619,138.79,48.619,138.79Z" transform="translate(28.413 -130.841)"/>
                <path id="Path_5604" data-name="Path 5604" class="cls-7" d="M50.816,180.965v1.241a.948.948,0,0,1,.5.828h4.5s.083-.732.327-.77v-1" transform="translate(29.725 -100.917)"/>
                <path id="Path_5605" data-name="Path 5605" class="cls-7" d="M51.764,181.74H49.227l.244,15.777h2.553s.488-.327.414-1.7l-.161-13.261" transform="translate(28.776 -100.455)"/>
                <path id="Path_5606" data-name="Path 5606" class="cls-7" d="M49.631,181.74l-.414.741c-.828,1.552-.443.774-.509,6.765v.137c.066,6-.145,5.842.674,7.394l.414.741" transform="translate(28.447 -100.455)"/>
                <path id="Path_5607" data-name="Path 5607" class="cls-7" d="M54.533,181.74h2.536l-.252,15.777H54.264s-.488-.327-.414-1.7l.161-13.261" transform="translate(31.531 -100.455)"/>
                <path id="Path_5608" data-name="Path 5608" class="cls-7" d="M55.948,181.812l.414.741c.828,1.552.443.778.509,6.769v.137c-.066,5.991.145,5.842-.674,7.394l-.414.737" transform="translate(32.69 -100.412)"/>
                <line id="Line_697" data-name="Line 697" class="cls-7" x2="4.229" transform="translate(81.215 91.588)"/>
                <path id="Path_5609" data-name="Path 5609" class="cls-9" d="M.679,175.562c0-3.761,3.194-6.438,6.96-6.438a6.781,6.781,0,0,1,2.979.414" transform="translate(-0.207 -108.002)"/>
                <circle id="Ellipse_267" data-name="Ellipse 267" class="cls-7" cx="5.789" cy="5.789" r="5.789" transform="translate(151.46 64.01)"/>
                <circle id="Ellipse_268" data-name="Ellipse 268" class="cls-7" cx="5.789" cy="5.789" r="5.789" transform="translate(2.077 63.178)"/>
                <line id="Line_698" data-name="Line 698" class="cls-13" y1="0.07" x2="2.267" transform="translate(41.34 35.146)"/>
                <path id="Path_5610" data-name="Path 5610" class="cls-14" d="M33.767,157.842s-1.1-4.038-1.858-4.469l-.182,4.576-3.38.881-.091-.881A7.862,7.862,0,0,0,27.08,155v-1.655a2.9,2.9,0,0,0,2.718,1.034c1.742-.285,1.928-1.034,1.928-1.034l-.468-.683v.5H28.053v-.848" transform="translate(15.555 -118.025)"/>
                <line id="Line_699" data-name="Line 699" class="cls-15" x1="2.383" y1="0.07" transform="translate(122.753 35.63)"/>
                <path id="Path_5611" data-name="Path 5611" class="cls-14" d="M73.582,158.05s1.022-3.91,1.821-4.361l.19,4.791,3.542.923.1-.923a8.276,8.276,0,0,1,1.241-3.091v-1.721a3.058,3.058,0,0,1-2.855,1.084c-1.829-.3-2.019-1.084-2.019-1.084l.488-.712v.521h3.364v-.873" transform="translate(43.316 -117.848)"/>
              </g>
            </g>
            <g id="Mizano" transform="translate(4.775)">
              <path id="Path_5612" data-name="Path 5612" class="cls-4" d="M109.414,82.572l-6.124-.244H93.277L79.3,81.806l-1.841-1.771s-.7-2.582,1.109-2.934,10.986-.468,10.986-.468,17.333.335,18.508.116,18.462,1.192,18.462,1.192a1.986,1.986,0,0,1,1.448,1.759c0,1.345-.538,1.721-.538,1.721l-1.262,1.241a19.841,19.841,0,0,1-3.256,0c-3.112-.087-10.882,0-10.882,0Z" transform="translate(40.775 45.589)"/>
              <path id="Path_5613" data-name="Path 5613" class="cls-4" d="M52.081,109.362v-.149l7.448.058,6.8-.261a35.243,35.243,0,0,1,5.015-.257,22.2,22.2,0,0,0,3.025.306s11.685-1,25.521-2.309,24.979-.232,30.822,1.692c.17.058.335.112.5.174,5.4,1.92,6.207,4.812,6.5,9.591.306,4.916-1.154,9.988-3.227,12.827s-7.862,3.538-7.862,3.538l-12.827,4.456c-10.684,3-11.453,5.3-20.3,7.609s-10.448.306-10.448.306l-32.4-1.738-1.771-.1H48.6l-.149-4.067-.463-.153s.174.186-.141.414l1.552-16.29,1.03-.244L52.081,109.4Z" transform="translate(23.175 63.225)"/>
              <path id="Path_5614" data-name="Path 5614" class="cls-4" d="M129.035,111.608l.6.828c-.161-.062-.327-.116-.5-.174-5.842-1.924-16.985-3-30.822-1.692S72.8,112.878,72.8,112.878a22.2,22.2,0,0,1-3.025-.306,35.241,35.241,0,0,0-5.015.257l-6.8.261-7.448-.058.141-1.308,15.392-1.452s6.62-.546,7.762-.852,9.223-3.43,9.223-3.43,9.07-5,17.378-5.793c3.025-.281,5.3-.414,7.208-.443a28.3,28.3,0,0,1,8.631,1.241l1.411.335s5.507,1.845,10.15,8.3a11.772,11.772,0,0,1,1.229,1.974Z" transform="translate(24.767 59.39)"/>
              <path id="Path_5615" data-name="Path 5615" class="cls-4" d="M103.455,80.451l-5.3,8.644-5.077,23.862-1.411-.335,4.46-23.614,4.725-8.656Z" transform="translate(49.337 47.809)"/>
              <path id="Path_5616" data-name="Path 5616" class="cls-4" d="M104.079,80.443,99.354,89.1l-4.46,23.614a28.3,28.3,0,0,0-8.631-1.241l3.289-22.344L87.942,80.2H97.955Z" transform="translate(46.111 47.718)"/>
              <path id="Path_5617" data-name="Path 5617" class="cls-4" d="M66.445,89.015l-7.489.141-4.34-.025L48.723,89.1l-.145.037H47.85l-9.471-.087-4.7-.041h-.96L30.79,87.351s-.861-2.541.923-3,9.2-1.365,9.2-1.365l.828-.021c1.241-.037,3.831-.108,6.732-.161,1.97-.041,4.088-.074,6.049-.083,2.752-.025,5.2,0,6.488.1,1.543.116,4.3.286,7.133.451h0c1.883.116,3.807.228,5.433.319l.873.046,3.389.19a25.975,25.975,0,0,0,4.328-.232c1.154-.294,5.089-.885,5.089-.885a1.972,1.972,0,0,1,1.56,1.655c.087,1.345-.414,1.754-.414,1.754L87.22,87.442a47.314,47.314,0,0,1-7.638,1.241c-.687.029-1.622.054-2.673.083l-.919.029c-1.965.05-4.138.1-5.722.132H68.079Z" transform="translate(12.87 49.213)"/>
              <path id="Path_5618" data-name="Path 5618" class="cls-4" d="M73.427,82.084l9.662,1.241s-3.947.6-5.1.885a26.914,26.914,0,0,1-4.328.232l-3.389-.19-.873-.046c-1.626-.091-3.55-.2-5.433-.319h0c-2.834-.165-5.59-.335-7.133-.451-1.287-.1-3.724-.12-6.488-.1-1.961,0-4.08.041-6.049.083-2.9.054-5.474.124-6.732.161v-.161s2.747-.53,6.844-1c1.759-.2,3.761-.393,5.909-.525,1.378-.083,2.814-.145,4.274-.17,2.95-.054,5.9-.037,8.532,0,1.936.025,3.7.066,5.172.108l.828.029c1.121.033,2.019.07,2.623.091A16.665,16.665,0,0,1,73.427,82.084Z" transform="translate(17.039 48.61)"/>
              <path id="Path_5619" data-name="Path 5619" class="cls-4" d="M64.9,94.84c.948,3.459,2.247,13.431-6.517,18.682-.621.368-1.212.72-1.783,1.043a19.586,19.586,0,0,0,1.241-2.433c7.08-4.138,6.732-14.292,5.793-17.751a73.016,73.016,0,0,0-3.186-7.862l.919-.029A83.045,83.045,0,0,1,64.9,94.84Z" transform="translate(28.402 51.473)"/>
              <path id="Path_5620" data-name="Path 5620" class="cls-4" d="M64.325,94.376c.923,3.459,1.27,13.6-5.793,17.751a32.172,32.172,0,0,0,1.684-5.358c1.539-6.765-2.309-17.221-2.309-17.221H56.331c-.161-.67-.48-1.655-.9-2.9,1.572-.037,3.757-.083,5.722-.132A75.349,75.349,0,0,1,64.325,94.376Z" transform="translate(27.706 51.49)"/>
              <path id="Path_5621" data-name="Path 5621" class="cls-4" d="M50.955,117.636a30.8,30.8,0,0,0,3.091-2.826h0c1.978-2.114,3.848-4.854,3.662-7.555,0,0-.588-15.074-1.655-18.835h4.734s3.848,10.456,2.309,17.221A32.173,32.173,0,0,1,61.411,111a19.589,19.589,0,0,1-1.241,2.433,8.457,8.457,0,0,1-1.018,1.432,20.821,20.821,0,0,1-5.118,2.739c-.277.108-.563.2-.852.3a17.8,17.8,0,0,1-2.6.612l.07-.645.029-.248Z" transform="translate(24.81 52.625)"/>
              <path id="Path_5622" data-name="Path 5622" class="cls-4" d="M45.953,137.826l4.7.041,9.471.087h.728l2.536,10.253-.236,2.8L61.08,175.685l-.7,8.35-.2,3.865,1.15.174-1.618,16.137c-.588-.1-.943-.161-.943-.161l-.265.281-.257.277L57.766,207,34.7,205.1l3.38-.55,1.241-2.9-.161-.3-4.68-8.689-.472-.252-4.22-2.284-1.076.348L26.411,188l.414-.654-1.73-3.96h0l-.414-.894c.314-.1,1.68-.559,3.426-1.216h0c1.5-.571,3.273-1.291,4.907-2.069h.037a23.585,23.585,0,0,0,3.227-1.812,12.413,12.413,0,0,0,4.622-6.219s.7-2.189.083-6.571A36.539,36.539,0,0,0,39,156.793s-1.759-4.9-4.179-10.092-4.394-8.511-4.394-8.511L23.6,124.44s-5.482-14.238-7.758-20.9a52.945,52.945,0,0,1-2.156-11.379c-.277-2.967-.323-5.11-.323-5.11s.414-5.942.691-12.947a44.676,44.676,0,0,0-.72-11.726c-.17-.765-.861-3.972-1.336-6.153v-.112c-.257-1.146-.434-1.982-.434-1.982s-.894-4.614-1.183-7.7c-.079-.857-.145-1.709-.19-2.483,0-.174-.025-.339-.029-.488-.1-1.816-.128-3.178-.128-3.178a174.649,174.649,0,0,1,2.205-21.516l1.138-4.634C14.908,9.363,16.058,5.9,18.259,3.706h0l1.655-1.3A12.152,12.152,0,0,1,25.248.955c7.725-.575,16.373,4.5,16.373,4.5s.6.174,1.6,1.543a.124.124,0,0,0,.029.041,14.689,14.689,0,0,1,.828,1.287l9.695,30.027c3.459,8.155,6.62,9.6,6.62,9.6L75.91,59.582s11.114,7.655,3.629,23.233c-8.275,17.258-1.444,30.093-1.444,30.093l6.173,14.59s.5,1.014,1.266,2.578l-.828-.029c-1.469-.041-3.236-.083-5.172-.108-2.627-.037-5.582-.054-8.532,0-1.461.025-2.9.087-4.274.17-2.147.132-4.138.323-5.909.525-4.1.472-6.844,1-6.844,1v.161l-.828.021s-7.406.9-9.194,1.357-.923,3-.923,3l1.932,1.655Z" transform="translate(0.6 0.382)"/>
              <path id="Path_5623" data-name="Path 5623" class="cls-4" d="M57.22,89.484H54.063l-.149-.062,1.13-2.768v-.029h1.279C56.74,87.821,57.059,88.814,57.22,89.484Z" transform="translate(26.799 51.554)"/>
              <path id="Path_5624" data-name="Path 5624" class="cls-4" d="M57.668,107.276c.186,2.7-1.684,5.441-3.662,7.555h0a30.8,30.8,0,0,1-3.091,2.826l-.252-.025.17-1.622.919-8.639,1.357-12.264,2.747-6.736.149.062C57.08,92.2,57.668,107.276,57.668,107.276Z" transform="translate(24.858 52.596)"/>
              <path id="Path_5625" data-name="Path 5625" class="cls-4" d="M58.979,86.625v.029l-1.13,2.768L55.1,96.158l-1.357,12.256-.927,8.639-.17,1.622-.029.248-.07.645-.141,1.308h0v.194l-1.655,15.372-1.03.244-2.069.484-.331.079,3.087-26.767,1.655-14.163,4.4-9.653,1.618-.033Z" transform="translate(22.864 51.554)"/>
              <path id="Path_5626" data-name="Path 5626" class="cls-4" d="M59.965,86.656l-4.4,9.653-1.639,14.163-3.095,26.767-7.895-.286-.348-.058-1.15-.174.2-3.865.7-8.35L44.4,99.83l.236-2.8L42.1,86.776l.145-.037,5.892.033,4.34.025Z" transform="translate(19.35 51.572)"/>
              <path id="Path_5627" data-name="Path 5627" class="cls-4" d="M51.739,135.175s.753.488-2.392,1.324a.782.782,0,0,1-.12.927,1.929,1.929,0,0,1-.865.484,6.183,6.183,0,0,1-1.341.232h-.1l-.348-6.794v-.124l1.821-.691.207-2.205c.314-.236.141-.414.141-.414l.488.17.149,4.067.054,1.378,1.957-.517Z" transform="translate(22.42 76.203)"/>
              <path id="Path_5628" data-name="Path 5628" class="cls-4" d="M50.085,117.977l-1.552,16.29a4.3,4.3,0,0,1-1.837.567l1.345-16.294v-.079Z" transform="translate(22.49 70.271)"/>
              <path id="Path_5629" data-name="Path 5629" class="cls-4" d="M48.6,128.178l-.207,2.205-1.821.691.19-2.33A4.3,4.3,0,0,0,48.6,128.178Z" transform="translate(22.419 76.361)"/>
              <path id="Path_5630" data-name="Path 5630" class="cls-4" d="M51.343,118.386v.079L50,134.759l-.186.029-.314.046a36.439,36.439,0,0,1-8.366-.592L42.749,118.1l.348.058,7.895.286Z" transform="translate(19.167 70.347)"/>
              <path id="Path_5631" data-name="Path 5631" class="cls-4" d="M50.943,131.167l.348,6.794a43.087,43.087,0,0,1-6.922-.24,37.347,37.347,0,0,1-4.779-.761l-.319-.828,1.005-4.994.252-.091h-.236v-.058l.484.041.257.021v-.828l1.072-.6.137-1.4a36.438,36.438,0,0,0,8.366.592l.314-.046.186-.029-.19,2.329Z" transform="translate(18.057 76.384)"/>
              <path id="Path_5632" data-name="Path 5632" class="cls-4" d="M40.158,129.989l-.252.091.017-.091Z" transform="translate(18.436 77.442)"/>
              <path id="Path_5633" data-name="Path 5633" class="cls-4" d="M45.942,129.989v.091l-9.6,3.459a4.965,4.965,0,0,0-2.069,2.483l-2.834,6.827-1.614-.463s2.367-6.455,3.459-8.118a4.467,4.467,0,0,1,2.367-1.974l6.96-2.3Z" transform="translate(12.416 77.442)"/>
              <path id="Path_5634" data-name="Path 5634" class="cls-4" d="M34.045,138.433l-1.308,6.074a1.436,1.436,0,0,0-.617,1,3,3,0,0,1-.327,1.349,3.472,3.472,0,0,0-.319,1.216,1.9,1.9,0,0,1-.977,1.539h0a2.284,2.284,0,0,1-1.812.1s-2.135-.948-2.16-2.019.153-1.336.385-1.581,1-.691,1.084-1.2.145-.923.463-1.121,1.076-.492,1.241-1.022,2.623-4.485,2.623-4.485l.062-.257Z" transform="translate(10.447 82.238)"/>
              <path id="Path_5635" data-name="Path 5635" class="cls-4" d="M33.069,138.37l-.062.257s-2.45,3.947-2.623,4.485-.939.828-1.241,1.022-.381.621-.463,1.121-.852.956-1.084,1.2-.414.517-.385,1.581,2.16,2.019,2.16,2.019a2.284,2.284,0,0,0,1.812-.1h0l.07.12a1.622,1.622,0,0,1-.5.455,2.118,2.118,0,0,1-1.2,0,.525.525,0,0,0-.6.157c-.128.161-.807,0-.923-.17a3.66,3.66,0,0,0-1.051-.414,5.719,5.719,0,0,1-1.527-2.176c-.414-1.221,1.365-3.385,1.365-3.385l4.651-7.1,1.576.927Z" transform="translate(9.764 81.892)"/>
              <path id="Path_5636" data-name="Path 5636" class="cls-4" d="M14.023,14.583l-1.154,4.634a175.2,175.2,0,0,0-2.205,21.537s.025,1.361.128,3.178a2.906,2.906,0,0,0,.029.488c.046.79.112,1.655.19,2.483.29,3.087,1.179,7.7,1.179,7.7s.178.828.434,1.982V56.7c.476,2.181,1.167,5.379,1.336,6.153a43.9,43.9,0,0,1,.72,11.726c-.294,7-.691,12.947-.691,12.947s.046,2.143.323,5.11a52.945,52.945,0,0,0,2.156,11.379c2.276,6.658,7.758,20.9,7.758,20.9l6.848,13.766s1.961,3.31,4.382,8.5,4.179,10.092,4.179,10.092a36.539,36.539,0,0,1,1.986,7.808c.612,4.382-.083,6.571-.083,6.571a12.413,12.413,0,0,1-4.609,6.173,23.584,23.584,0,0,1-3.227,1.812h-.037c-1.655.79-3.409,1.51-4.907,2.069h0c-1.746.658-3.112,1.117-3.426,1.216a.289.289,0,0,0-.066.025H23.61l-.828-1.183s8.044-1.353,12.136-4.895,4.378-4.382,4.378-4.382a12.781,12.781,0,0,0,.7-6.546,48.508,48.508,0,0,0-3.575-11.557c-1.585-3.745-5.131-11.552-5.131-11.552l-4.721-8.768-6.058-13.117s-4.783-13.241-5.1-14.556S12.38,95.107,12.322,90.448s.637-14.3.637-14.3.116-9.049-.319-10.663S11.284,59.7,11.085,58.91s-1.585-9.6-1.585-9.6-.828-7.411-.472-9.1a158.3,158.3,0,0,1,2.114-21.33l1.005-4.295c.174-.608.356-1.192.55-1.734,1.436-4.022,2.627-7.034,4.423-9.1S21.438.44,25.456.147c7.953-.575,15.434,4.485,15.434,4.485S42.1,4.843,43.872,7.5c-1-1.37-1.6-1.543-1.6-1.543S33.623.862,25.9,1.438A12.032,12.032,0,0,0,20.585,2.89l-1.655,1.3h0C16.708,6.382,15.558,9.845,14.023,14.583Z" transform="translate(-0.05 -0.101)"/>
              <path id="Path_5637" data-name="Path 5637" class="cls-4" d="M42.971,164.612a12.781,12.781,0,0,1-.7,6.546s-.286.828-4.378,4.382-12.123,4.895-12.123,4.895l.828,1.183s-.414-.058-1.051-.178c0,0-2.292-5.644-4.216-6.835a5.268,5.268,0,0,0-3.625-.583l4.138-.968-2.809-24.272-3.422-12.148-1.117.157-5.528.265h0l-.935,6.07c-.041-.542-.062-.828-.062-.828a8.875,8.875,0,0,1-.079-4.382,58.527,58.527,0,0,0,1-14.987c-.389-7.224-1.08-13.53-1.08-13.53s-.765-9.376-2-23.208S3.825,64.972,3.974,61.435s1.941-14,1.941-14,4.436-19.53,6-28.364A36,36,0,0,1,18.269,4.231L20.1,2.373c-1.8,2.09-2.987,5.1-4.423,9.124-.194.542-.377,1.125-.55,1.734l-1.005,4.316A158.011,158.011,0,0,0,12,38.876c-.356,1.655.472,9.1.472,9.1s1.382,8.822,1.585,9.6,1.121,4.965,1.556,6.579.319,10.663.319,10.663-.691,9.628-.637,14.3,2.768,14.643,3.087,15.938,5.1,14.556,5.1,14.556l6.058,13.116,4.725,8.8s3.546,7.8,5.131,11.552A48.413,48.413,0,0,1,42.971,164.612Z" transform="translate(-3.026 1.256)"/>
              <path id="Path_5638" data-name="Path 5638" class="cls-4" d="M31.309,126.437l.161.3-1.241,2.9-3.372.53a16.966,16.966,0,0,1-3.687.869l1.266-3,.463.074,6-1.456Z" transform="translate(8.445 75.321)"/>
              <path id="Path_5639" data-name="Path 5639" class="cls-4" d="M27.767,121.07l4.68,8.689-.414.219-6,1.465-.463-.074s-2.805-6.62-3.422-7.8a4.18,4.18,0,0,0-.559-.873c-.2-.219-.285-.161-.285-.161a.14.14,0,0,0-.041-.025h.774l5.031-1.27.223-.414Z" transform="translate(7.308 71.969)"/>
              <path id="Path_5640" data-name="Path 5640" class="cls-4" d="M33.31,127.4l-.223.414-5.011,1.262H27.3a57.022,57.022,0,0,1-6.62-4.394c-2.636-2.11-4.4-6.488-5.5-8.958l-.3-.65a16.9,16.9,0,0,0-3.691-4.5l1.514-.525h.033l.662-.153a5.267,5.267,0,0,1,3.592.571c1.924,1.192,4.216,6.835,4.216,6.835l1.32,1.887.5,2.156,1.308,1.994,1.382-.381,2.3,2.483L29.1,125.1Z" transform="translate(1.293 65.388)"/>
              <path id="Path_5641" data-name="Path 5641" class="cls-4" d="M25.976,127.943l-1.266,3-3.923-3.459-.194-.194.194-.728Z" transform="translate(6.906 75.395)"/>
              <path id="Path_5642" data-name="Path 5642" class="cls-4" d="M26.485,130.669l-5.168-1.382-1.576-3.612h0s2.611-3.343,2.611-3.5l.17-.182a4.179,4.179,0,0,1,.542.885C23.679,124.061,26.485,130.669,26.485,130.669Z" transform="translate(6.397 72.67)"/>
              <path id="Path_5643" data-name="Path 5643" class="cls-4" d="M33.385,131.532H28.234L6.1,128.727v0l-.037-3.149,20.9,2.5,2.3-.194.194.194Z" transform="translate(-1.77 74.806)"/>
              <path id="Path_5644" data-name="Path 5644" class="cls-4" d="M28.657,128.965l-.17.182c0,.153-2.611,3.5-2.611,3.5h0l-2.921-1.461a12.827,12.827,0,0,1-3.265-2.421,38.373,38.373,0,0,1-6.538-9.877c-2.114-4.551-3.658-4.829-3.658-4.829l-.062-.625,1.353-.828,1.365-.828-.385-1.324.463-.137a16.9,16.9,0,0,1,3.691,4.5l.3.65c1.1,2.483,2.867,6.848,5.5,8.958a57.026,57.026,0,0,0,6.62,4.394.141.141,0,0,1,.041.025S28.454,128.745,28.657,128.965Z" transform="translate(0.244 65.697)"/>
              <path id="Path_5645" data-name="Path 5645" class="cls-4" d="M28.844,131.238l1.6,3.612-.194.728-2.3.194L7.035,133.29l-.728-.65h0L4.465,118.986s-.232-3.993,1.614-6.066h.17l.327,4.858,2,5.226h3.19l1.192-5.5-.468-4.829s1.543.261,3.658,4.829a38.373,38.373,0,0,0,6.533,9.881,12.828,12.828,0,0,0,3.265,2.421Z" transform="translate(-2.728 67.106)"/>
              <path id="Path_5646" data-name="Path 5646" class="cls-4" d="M20.171,115.153l1.73,3.96-.426.654-1.382.381-1.308-1.994-.5-2.156h0l1.866-.84Z" transform="translate(5.528 68.585)"/>
              <path id="Path_5647" data-name="Path 5647" class="cls-4" d="M20.24,114.658l.414.894-1.866.828h0l-1.32-1.887c.658.12,1.051.178,1.051.178h1.655A.29.29,0,0,1,20.24,114.658Z" transform="translate(5.041 68.191)"/>
              <path id="Path_5648" data-name="Path 5648" class="cls-4" d="M15.213,98.592l2.805,24.284-4.138.968a4.967,4.967,0,0,0-.662.153h-.033l-1.514.525-.463.137-.033-.137,2.838-9.877L12.9,98.964l-2.541-12.1.319-.265,1.117-.157Z" transform="translate(0.799 51.445)"/>
              <path id="Path_5649" data-name="Path 5649" class="cls-4" d="M13.759,98.815,14.868,114.5l-2.838,9.877.033.137.385,1.324-1.365.848-1.353.844-.261-2.735v0l2.818-9.715L11.028,99.357,8.939,88.632l0,0,2.263-1.92Z" transform="translate(-0.051 51.603)"/>
              <path id="Path_5650" data-name="Path 5650" class="cls-4" d="M13.338,98.639,14.6,114.354l-2.818,9.715v0l.261,2.735.062.625.468,4.829-1.192,5.5H8.186l-2-5.226-.327-4.858-.058-.836-.732-2.11v-1.039L7.839,114.2,6.457,98.689h0L7.512,93.81l1.254-5.822,2.487-.079,0,0Z" transform="translate(-2.361 52.321)"/>
              <path id="Path_5651" data-name="Path 5651" class="cls-4" d="M12.624,86.542l-.319.265-2.263,1.92-2.487.079-.459-2Z" transform="translate(-1.151 51.504)"/>
              <path id="Path_5652" data-name="Path 5652" class="cls-4" d="M7.441,86.708l.459,2L6.659,94.524h0c-.062-.716-.108-1.307-.141-1.742h0l.935-6.07Z" transform="translate(-1.496 51.603)"/>
              <path id="Path_5653" data-name="Path 5653" class="cls-4" d="M6.872,128.97h0a12.482,12.482,0,0,1-2.1-2.9h0l1.332-.914h0l.728.65Z" transform="translate(-2.54 74.559)"/>
              <path id="Path_5654" data-name="Path 5654" class="cls-4" d="M5.09,119.993l1.841,13.654-1.332.906h0c-.083-.157-.124-.244-.124-.244s-1.382-7.378-2.019-14.238,2.632-9.1,2.632-9.1l.732,2.114.058.828h-.17C4.859,116,5.09,119.993,5.09,119.993Z" transform="translate(-3.374 66.087)"/>
              <path id="Path_5655" data-name="Path 5655" class="cls-16" d="M84.463,146.944H81.475s1.614,2,10.448-.306,9.612-4.614,20.3-7.609l12.827-4.456s5.764-.691,7.862-3.538,3.534-7.92,3.227-12.827c-.3-4.779-1.1-7.671-6.5-9.591-.161-.062-.327-.116-.5-.174-5.842-1.924-16.985-3-30.822-1.692s-25.521,2.309-25.521,2.309a22.2,22.2,0,0,1-3.025-.306,35.243,35.243,0,0,0-5.015.257l-6.8.261-7.448-.058h0v.492" transform="translate(24.764 63.226)"/>
              <path id="Path_5656" data-name="Path 5656" class="cls-7" d="M31.44,143.151l2.818-6.835a4.99,4.99,0,0,1,2.069-2.483h0l9.856-3.554H42.612l-6.976,2.309a4.493,4.493,0,0,0-2.363,1.974c-1.092,1.659-3.459,8.114-3.459,8.114Z" transform="translate(12.411 77.615)"/>
              <path id="Path_5657" data-name="Path 5657" class="cls-7" d="M33.019,138.928s-2.45,3.947-2.623,4.481-.935.828-1.241,1.026-.377.617-.463,1.121-.828.952-1.08,1.2-.414.521-.389,1.589,2.164,2.015,2.164,2.015a2.292,2.292,0,0,0,1.816-.1,1.891,1.891,0,0,0,.976-1.543,3.521,3.521,0,0,1,.319-1.208,3.013,3.013,0,0,0,.331-1.353,1.436,1.436,0,0,1,.617-1l1.308-6.074-1.692-.414-1.576-.927-4.651,7.1s-1.8,2.156-1.382,3.4a5.793,5.793,0,0,0,1.527,2.176s.939.215,1.055.414.79.331.923.174a.525.525,0,0,1,.6-.157,2.1,2.1,0,0,0,1.2,0,1.742,1.742,0,0,0,.592-.563" transform="translate(9.769 82.07)"/>
              <path id="Path_5658" data-name="Path 5658" class="cls-7" d="M17.276,2.819c-.079.07-.157.145-.232.223h0c-2.2,2.189-3.347,5.656-4.882,10.39-.025.07-.05.141-.07.215" transform="translate(1.831 1.522)"/>
              <path id="Path_5659" data-name="Path 5659" class="cls-7" d="M68.594,116.863c-.385-.8-.621-1.287-.621-1.287l-6.567-14.581s-5.979-11.122-.828-26.634h0c.083-.269.174-.53.269-.8h0c.348-.985.741-1.982,1.183-3,7.609-17.469-3.343-23.928-3.343-23.928L55.378,44.3,43.706,36.087a7.943,7.943,0,0,1-2.536-2.661,36.6,36.6,0,0,1-4.034-8.358c0-.05-.037-1.216-.054-1.27" transform="translate(16.75 14.046)"/>
              <line id="Line_700" data-name="Line 700" class="cls-7" x1="0.008" y1="0.103" transform="translate(75.781 170.742)"/>
              <path id="Path_5660" data-name="Path 5660" class="cls-7" d="M60,86.824a71.733,71.733,0,0,1,3.19,7.862c.919,3.459,1.266,13.6-5.813,17.751" transform="translate(28.864 51.673)"/>
              <path id="Path_5661" data-name="Path 5661" class="cls-7" d="M61.37,86.8a74.679,74.679,0,0,1,3.538,8.337c.952,3.459,2.247,13.431-6.517,18.678-.617.372-1.212.72-1.779,1.043" transform="translate(28.409 51.656)"/>
              <path id="Path_5662" data-name="Path 5662" class="cls-7" d="M18.529,114.975s-.389-.054-1.051-.174" transform="translate(5.047 68.375)"/>
              <path id="Path_5663" data-name="Path 5663" class="cls-7" d="M20.113,2.674,18.28,4.532a36,36,0,0,0-6.355,14.838C10.36,28.2,5.908,47.729,5.908,47.729S4.133,58.181,3.984,61.71,4.6,72.626,5.829,86.462s1.994,23.212,1.994,23.212S8.515,115.98,8.9,123.2a58.16,58.16,0,0,1-1,14.991,8.937,8.937,0,0,0,.074,4.39s.025.3.066.828h0c.029.434.079,1.022.137,1.742h0" transform="translate(-3.02 1.435)"/>
              <line id="Line_701" data-name="Line 701" class="cls-7" y1="0.004" transform="translate(9.434 176.866)"/>
              <path id="Path_5664" data-name="Path 5664" class="cls-7" d="M12.109,128.552l.468,4.829-1.192,5.5H8.195l-2-5.226-.381-5.693-.732-2.11v-1.039l2.764-9.492L6.465,99.8v-.008l-.037-.426.952-6.186v0l.931-6.07,5.532-.269-.319.269-2.267,1.924,2.09,10.721L14.6,115.473l-2.818,9.711v0l.265,2.735Z" transform="translate(-2.353 51.682)"/>
              <path id="Path_5665" data-name="Path 5665" class="cls-7" d="M10.054,88.928l-2.487.079-.463-2" transform="translate(-1.146 51.782)"/>
              <line id="Line_702" data-name="Line 702" class="cls-7" y1="10.696" x2="2.309" transform="translate(4.112 140.789)"/>
              <path id="Path_5666" data-name="Path 5666" class="cls-7" d="M10.92,87.008l2.553,12.107L14.585,114.8l-2.843,9.877.418,1.456-1.365.848-1.349.844" transform="translate(0.252 51.782)"/>
              <line id="Line_703" data-name="Line 703" class="cls-7" x1="0.008" transform="translate(81.02 132.961)"/>
              <path id="Path_5667" data-name="Path 5667" class="cls-7" d="M56.331,89.8c-.161-.67-.48-1.655-.9-2.9" transform="translate(27.706 51.719)"/>
              <path id="Path_5668" data-name="Path 5668" class="cls-7" d="M21.836,47.823h0l-4.427.5a2.4,2.4,0,0,1-2.325-1.56h0a24.1,24.1,0,0,1-.753-4.767v-.017c-.1-1.146-.145-2.015-.145-2.015l3.459-13.77a.9.9,0,0,1,.058-.166h0" transform="translate(3.081 15.376)"/>
              <path id="Path_5669" data-name="Path 5669" class="cls-7" d="M17.586,30.034h0L14.768,40.465c.079,2.652,1.845,2.421,1.845,2.421s1.746-.108,3.807-.277h0" transform="translate(3.429 17.769)"/>
              <path id="Path_5670" data-name="Path 5670" class="cls-7" d="M15.312,38.131s1.92-.116,3.265-.269a1.208,1.208,0,0,0,.981-.828" transform="translate(3.754 21.948)"/>
              <line id="Line_704" data-name="Line 704" class="cls-7" x1="0.372" y2="0.393" transform="translate(46.197 138.683)"/>
              <path id="Path_5671" data-name="Path 5671" class="cls-7" d="M84.493,147.242H81.506s1.614,2,10.456-.306,9.608-4.609,20.275-7.609l12.827-4.456s5.768-.7,7.841-3.538,3.538-7.915,3.232-12.827-1.154-7.862-7-9.765-16.965-3-30.822-1.688-25.521,2.3-25.521,2.3a22.9,22.9,0,0,1-3.025-.306,35.3,35.3,0,0,0-5.019.257l-6.8.261-7.448-.058V110" transform="translate(24.762 63.408)"/>
              <path id="Path_5672" data-name="Path 5672" class="cls-7" d="M87.407,137.825s-.058-.749,1.328-7.609-2.181-9.744-2.181-9.744-1.109-1.556-5.317-3.517S61.894,114,61.894,114a51.193,51.193,0,0,1,12,9.98c4.9,5.88,9.074,10.729,9.074,10.729l1.961,3.4-.087,2.764S87.639,139.381,87.407,137.825Z" transform="translate(31.563 67.897)"/>
              <path id="Path_5673" data-name="Path 5673" class="cls-7" d="M50.507,109.137s7.568.617,18.185,7.771" transform="translate(24.765 64.993)"/>
              <line id="Line_705" data-name="Line 705" class="cls-7" x2="34.165" y2="1.833" transform="translate(72.103 208.825)"/>
              <path id="Path_5674" data-name="Path 5674" class="cls-7" d="M42.385,137.267l7.895.285,2.4-.563,1.034-.244,1.655-15.372v-.194l.145-1.308.066-.645.2-1.87.927-8.644,1.357-12.26,3.877-9.517" transform="translate(19.916 51.739)"/>
              <path id="Path_5675" data-name="Path 5675" class="cls-7" d="M47.328,137.549l3.095-26.767,1.639-14.163,4.411-9.678" transform="translate(22.867 51.742)"/>
              <path id="Path_5676" data-name="Path 5676" class="cls-7" d="M91.618,113.875,94.9,91.531l-1.63-8.913L79.292,82.1l-1.825-1.763s-.7-2.582,1.109-2.934,10.973-.451,10.973-.451,17.337.331,18.5.116,18.467,1.183,18.467,1.183a1.993,1.993,0,0,1,1.452,1.759c0,1.345-.542,1.73-.542,1.73l-1.262,1.241a21.972,21.972,0,0,1-3.261,0c-3.116-.079-10.878,0-10.878,0l-8.722-.348H93.273" transform="translate(40.78 45.778)"/>
              <path id="Path_5677" data-name="Path 5677" class="cls-7" d="M102.936,80.717l-5.3,8.64-5.073,23.862s5.5,1.845,10.146,8.3a12.449,12.449,0,0,1,1.241,1.932l.608.828" transform="translate(49.872 48.027)"/>
              <path id="Path_5678" data-name="Path 5678" class="cls-7" d="M48.122,118.841l-1.535,18.624,1.821-.691,1.759-18.5" transform="translate(22.425 70.45)"/>
              <path id="Path_5679" data-name="Path 5679" class="cls-7" d="M50.608,123.712l15.384-1.456s6.62-.542,7.766-.848,9.223-3.426,9.223-3.426,9.07-5.007,17.378-5.793,10.969-.542,15.843.828l4.46-23.614,4.858-8.9" transform="translate(24.825 47.898)"/>
              <path id="Path_5680" data-name="Path 5680" class="cls-7" d="M64.979,89.4l5.892.033,4.34.021,9.1-.17,1.924-.037H86.5c1.572-.037,3.757-.083,5.722-.132l.927-.054c1.051-.029,1.99-.054,2.677-.083a46.822,46.822,0,0,0,7.634-1.241l1.183-1.328s.517-.414.434-1.759S103.517,83,103.517,83s-3.947.6-5.1.885a26.933,26.933,0,0,1-4.328.232l-3.389-.19-.869-.046c-1.63-.091-3.554-.2-5.433-.319h0c-2.834-.166-5.586-.335-7.133-.451-1.287-.1-3.724-.12-6.488-.1-1.961,0-4.076.041-6.045.083-4.1.079-7.555.186-7.555.186s-7.406.894-9.2,1.357-.923,3-.923,3l1.932,1.655h.96l4.7.041,9.471.087h.728l2.536,10.261-.232,2.8-2.069,24.681-.7,8.35-.2,3.865,1.154.17-1.759,17.527-1.072.6v.828l-.257-.025L38.7,156.533a16.987,16.987,0,0,1-3.691.869H29.842L7.7,154.6A12.749,12.749,0,0,1,5.6,151.7c-.083-.157-.124-.244-.124-.244s-1.374-7.361-2.011-14.2,2.636-9.1,2.636-9.1" transform="translate(-3.369 49.388)"/>
              <path id="Path_5681" data-name="Path 5681" class="cls-7" d="M10.568,86.9l1.117-.157L15.107,98.89l2.805,24.288-4.134.968-.658.153" transform="translate(0.922 51.623)"/>
              <path id="Path_5682" data-name="Path 5682" class="cls-7" d="M12.144,110.36h.037a4.253,4.253,0,0,1,.658-.153,5.218,5.218,0,0,1,3.592.571c1.924,1.192,4.216,6.835,4.216,6.835l1.32,1.887.5,2.152,1.316,1.99,1.382-.381,2.309,2.483,1.072-.348,4.692,2.536,4.841,9-1.241,2.9-3.38.554" transform="translate(1.862 65.571)"/>
              <path id="Path_5683" data-name="Path 5683" class="cls-7" d="M12.71,110.264l-1.514.525a16.827,16.827,0,0,1,3.691,4.5c.091.2.194.414.3.65,1.1,2.483,2.872,6.848,5.5,8.958a57.654,57.654,0,0,0,6.649,4.415s.232-.149.828,1.039,3.438,7.812,3.438,7.812l-1.266,3-3.918-3.467" transform="translate(1.296 65.666)"/>
              <line id="Line_706" data-name="Line 706" class="cls-7" y1="1.461" x2="5.996" transform="translate(33.362 202.437)"/>
              <line id="Line_707" data-name="Line 707" class="cls-7" y1="1.266" x2="5.036" transform="translate(29.365 193.673)"/>
              <path id="Path_5684" data-name="Path 5684" class="cls-7" d="M6.076,113.212c-1.845,2.069-1.614,6.07-1.614,6.07l1.845,13.654.728.654,20.9,2.483,2.309-.194.194-.728-1.581-3.612-2.917-1.461a12.777,12.777,0,0,1-3.265-2.425,38.325,38.325,0,0,1-6.538-9.877c-2.114-4.576-3.658-4.812-3.658-4.812" transform="translate(-2.729 67.278)"/>
              <path id="Path_5685" data-name="Path 5685" class="cls-7" d="M22.351,122.408c0,.157-2.611,3.5-2.611,3.5" transform="translate(6.397 72.916)"/>
              <line id="Line_708" data-name="Line 708" class="cls-7" x1="5.185" y1="1.382" transform="translate(27.714 202.437)"/>
              <line id="Line_709" data-name="Line 709" class="cls-7" x1="0.037" y1="3.153" transform="translate(4.307 200.86)"/>
              <line id="Line_710" data-name="Line 710" class="cls-7" y1="0.919" x2="1.332" transform="translate(2.242 200.206)"/>
              <path id="Path_5686" data-name="Path 5686" class="cls-7" d="M49.631,109.6s-8.689,2.3-12,4.762a21.619,21.619,0,0,1-8.147,3.749" transform="translate(12.215 65.267)"/>
              <path id="Path_5687" data-name="Path 5687" class="cls-7" d="M18.294,116.3l1.887-.844,1.725,3.96-.422.654" transform="translate(5.534 68.764)"/>
              <path id="Path_5688" data-name="Path 5688" class="cls-7" d="M21.417,121.809l.343.463s1.039-.041,1.113-.463,1.192-1.5,1.771-1.307,2.114.381,2.421-.021a5.484,5.484,0,0,1,1.039-.828c.186-.128.381-.252.567-.36a2.4,2.4,0,0,1,.852-.356c.463,0,1.924.5,2.2.459s1.725-1.576,2.11-1.576a2.658,2.658,0,0,0,1.461-.575,1.477,1.477,0,0,0-.269-1.461c-.463-.5-2.768-3.575-2.768-3.575s-.492-.447-2.036,0-10.646,4.44-10.646,4.44v.608Z" transform="translate(6.297 66.709)"/>
              <path id="Path_5689" data-name="Path 5689" class="cls-7" d="M20.15,116.847,30.3,113.119l2.267,2.863" transform="translate(6.642 67.371)"/>
              <path id="Path_5690" data-name="Path 5690" class="cls-7" d="M37.568,83.711s2.747-.53,6.844-1c1.759-.2,3.765-.393,5.909-.525,1.378-.087,2.814-.145,4.274-.174,2.954-.05,5.9-.037,8.532,0,1.936.029,3.7.07,5.172.112l.828.029c1.121.033,2.023.066,2.627.091s1.13.07,1.692.145l9.662,1.241" transform="translate(17.041 48.782)"/>
              <path id="Path_5691" data-name="Path 5691" class="cls-7" d="M21.211,51.8h0a11.548,11.548,0,0,0-.062-1.792c-.083-.865-.228-1.85-.414-2.876-.377-2.11-.906-4.378-1.332-6.016-.174-.662-.327-1.241-.451-1.63a29.3,29.3,0,0,1-.869-5.586c0-1.436-.079-2.752-.178-3.931h0c-.1-1.183-.24-2.238-.414-3.157a23.2,23.2,0,0,0-1.121-4.551" transform="translate(4.385 13.129)"/>
              <path id="Path_5692" data-name="Path 5692" class="cls-7" d="M21.621,23.627h0a22.955,22.955,0,0,1,3.248,4.655h0a70.113,70.113,0,0,1,5.379,12.343s1.767,7.448-.828,11.052A16.994,16.994,0,0,1,35.4,52.5c2.181.927,10.758,3.947,12.872,4.225a1.332,1.332,0,0,0,.294.025" transform="translate(7.52 13.944)"/>
              <path id="Path_5693" data-name="Path 5693" class="cls-7" d="M34.516,46.54a15.066,15.066,0,0,0,3.749-4.1c.029-.05.054-.1.079-.153a4.159,4.159,0,0,0,.5-1.792c.058-2.9.281-5.516.281-5.516" transform="translate(15.218 20.719)"/>
              <path id="Path_5694" data-name="Path 5694" class="cls-7" d="M33.366,25.311A9.687,9.687,0,0,1,37.5,32.345" transform="translate(14.532 14.949)"/>
              <path id="Path_5695" data-name="Path 5695" class="cls-7" d="M32.881,86.723s-4.767.691-5.458.765-.617.542-.617.542c3.765.228,4.382,2.3,5.689,3.84s2.843,13.683,2.226,21.293a39.635,39.635,0,0,1-3.31,13.067c5.685,1.386,18.206-2.689,18.206-2.689l-3.31-6.041a12.744,12.744,0,0,1-1.552-5.329l-.588-9.231c-.612-10.6-4.378-13.294-4.378-13.294a40.289,40.289,0,0,1-4.8-2.536A2.6,2.6,0,0,0,32.881,86.723Z" transform="translate(10.614 51.567)"/>
              <path id="Path_5696" data-name="Path 5696" class="cls-7" d="M50.951,117.931a25.424,25.424,0,0,0,2.768-2.069,3.873,3.873,0,0,0,.439-.53c.8-1.142,3.724-5.466,3.554-7.8,0,0-.588-15.074-1.655-18.835H60.8s3.844,10.456,2.3,17.221A32.17,32.17,0,0,1,61.42,111.3a19.545,19.545,0,0,1-1.216,2.429,8.533,8.533,0,0,1-1.022,1.436,20.82,20.82,0,0,1-5.118,2.739c-.277.108-.563.2-.852.294a17.226,17.226,0,0,1-2.594.617" transform="translate(24.83 52.794)"/>
              <path id="Path_5697" data-name="Path 5697" class="cls-7" d="M56.049,88.716h4.742s3.844,10.456,2.3,17.221a32.171,32.171,0,0,1-1.684,5.379,19.547,19.547,0,0,1-1.216,2.429,8.53,8.53,0,0,1-1.022,1.436,20.82,20.82,0,0,1-5.118,2.739c-.277.108-.563.2-.852.294a17.221,17.221,0,0,1-2.594.617" transform="translate(24.825 52.802)"/>
              <path id="Path_5698" data-name="Path 5698" class="cls-7" d="M30.486,112.395s-2.33-1.072-2.1-2.574" transform="translate(11.548 65.402)"/>
              <path id="Path_5699" data-name="Path 5699" class="cls-7" d="M34.455,86.648s-6.339.765-7.034.828-.617.542-.617.542c3.765.228,4.382,2.3,5.689,3.84s2.843,13.683,2.226,21.293a39.635,39.635,0,0,1-3.31,13.067c5.685,1.386,18.206-2.689,18.206-2.689" transform="translate(10.613 51.567)"/>
              <path id="Path_5700" data-name="Path 5700" class="cls-7" d="M56.049,88.716h4.742s3.844,10.456,2.3,17.221a32.171,32.171,0,0,1-1.684,5.379,19.547,19.547,0,0,1-1.216,2.429,8.53,8.53,0,0,1-1.022,1.436,20.82,20.82,0,0,1-5.118,2.739c-.277.108-.563.2-.852.294a17.221,17.221,0,0,1-2.594.617" transform="translate(24.825 52.802)"/>
              <path id="Path_5701" data-name="Path 5701" class="cls-7" d="M30.486,112.395s-2.33-1.072-2.1-2.574" transform="translate(11.548 65.402)"/>
              <line id="Line_711" data-name="Line 711" class="cls-7" x1="0.004" transform="translate(20.982 47.207)"/>
              <path id="Path_5702" data-name="Path 5702" class="cls-7" d="M24.766,24.822c-.277-.1-.538-.211-.8-.31h0C20.7,23.225,19,22.493,18.051,22.087a4.072,4.072,0,0,0-1.423-.463c-.108,0-.178.372-.219,1,0,.223-.025.476-.037.765h0c-.041,1.357,0,3.31.033,5.242h0c.07,2.607.182,5.1.207,5.818l.033.6h0l.211,4.076a15.417,15.417,0,0,0,.765,3.592c.3.761.774,2.04,1.32,3.509.166.447.343.914.521,1.39h0c.352.931.716,1.9,1.076,2.822h0c.232.6.455,1.183.679,1.725h0a15.541,15.541,0,0,0,1.7,3.542c.77.542,2.536-1.535,9.612-2.843a20.275,20.275,0,0,1,12.6,1.539,1.821,1.821,0,0,1,.223.091c1.01.48,4.1,2.3,5.962,3.26l.352.182a1.014,1.014,0,0,0,.211.083,1.506,1.506,0,0,0,1.957-1.394c.145-3.972-2.582-10.344-3.869-13.7q-.116-.323-.223-.6a33.01,33.01,0,0,1-1.692-5.917c-.534-7.766-1.92-9.844-2.226-10.224s-.774.459-2.309,1.3a5.23,5.23,0,0,1-1.345.492h-.037a11.147,11.147,0,0,1-1.862.248,25.893,25.893,0,0,1-3.98-.12c-.782-.079-1.452-.153-2.152-.269a37.815,37.815,0,0,1-7.651-2.383l-1.721-.629h0" transform="translate(4.375 12.748)"/>
              <path id="Path_5703" data-name="Path 5703" class="cls-7" d="M14.038,14.882,12.9,19.516A175.307,175.307,0,0,0,10.69,41.057s.025,1.361.132,3.178a3.413,3.413,0,0,0,.025.488c.046.79.112,1.655.19,2.483.29,3.087,1.179,7.7,1.179,7.7s.182.828.434,1.986V57c.472,2.185,1.167,5.379,1.336,6.153a44.358,44.358,0,0,1,.72,11.73c-.29,7-.691,12.947-.691,12.947s.046,2.143.323,5.11a52.6,52.6,0,0,0,2.152,11.375c2.28,6.662,7.758,20.9,7.758,20.9l6.831,13.745s1.957,3.31,4.382,8.507,4.175,10.092,4.175,10.092a36.412,36.412,0,0,1,1.99,7.808,16.508,16.508,0,0,1-.083,6.571,12.413,12.413,0,0,1-4.614,6.169,22.727,22.727,0,0,1-3.227,1.812.108.108,0,0,0-.037.021c-1.655.786-3.409,1.506-4.907,2.069h0c-2,.749-3.5,1.241-3.5,1.241H23.62l-.828-1.15s8.044-1.357,12.136-4.9,4.382-4.382,4.382-4.382A12.744,12.744,0,0,0,40,166.272a48.261,48.261,0,0,0-3.575-11.557c-1.589-3.745-5.127-11.557-5.127-11.557l-4.725-8.8-6.053-13.116S15.738,108,15.42,106.689s-3.025-11.271-3.087-15.938.637-14.3.637-14.3.116-9.049-.319-10.663S11.294,60,11.1,59.213s-1.585-9.6-1.585-9.6-.828-7.415-.472-9.082a158.011,158.011,0,0,1,2.114-21.33l1.005-4.32c.174-.608.36-1.188.554-1.734,1.432-4.022,2.623-7.034,4.423-9.1S21.452.739,25.47.446C33.419-.146,40.9,4.91,40.9,4.91s1.208.215,2.983,2.872a.052.052,0,0,0,.029.041c.248.377.513.828.778,1.3" transform="translate(-0.044 0.076)"/>
              <path id="Path_5704" data-name="Path 5704" class="cls-7" d="M15.193,4l1.68-1.3a12.045,12.045,0,0,1,5.313-1.452C29.911.676,38.559,5.749,38.559,5.749s.6.178,1.6,1.547a.052.052,0,0,0,.029.041,14.088,14.088,0,0,1,.828,1.287l9.711,30.027c3.459,8.155,6.62,9.6,6.62,9.6L72.856,59.883s11.114,7.655,3.629,23.233c-8.275,17.258-1.444,30.093-1.444,30.093L81.214,127.8s.5,1.014,1.266,2.578" transform="translate(3.683 0.561)"/>
              <path id="Path_5705" data-name="Path 5705" class="cls-7" d="M79.011,130.841s-5.88,1.87-7.349,1.874" transform="translate(37.395 77.951)"/>
              <line id="Line_712" data-name="Line 712" class="cls-7" x2="1.415" y2="0.335" transform="translate(141.02 160.911)"/>
              <line id="Line_713" data-name="Line 713" class="cls-7" y1="0.004" transform="translate(82.878 138.633)"/>
              <path id="Path_5706" data-name="Path 5706" class="cls-7" d="M39.775,29.91s-.459,11.077.579,15.69c.658,2.921,1.961,10.758,2.83,16.1a20.568,20.568,0,0,0,.5,2.238l2.238,7.915q.17.588.385,1.167L55.481,97.25s3.571,8.441,6.546,15.992" transform="translate(18.297 17.695)"/>
              <path id="Path_5707" data-name="Path 5707" class="cls-7" d="M59.161,60.049,35.113,46.473,17.052,62l-.468.7" transform="translate(4.513 27.583)"/>
              <path id="Path_5708" data-name="Path 5708" class="cls-7" d="M56.15,66.2l-16.927-6.74L19.362,74.771" transform="translate(6.171 35.337)"/>
              <path id="Path_5709" data-name="Path 5709" class="cls-7" d="M22.606,88,42.777,72.136l19.315,7.845" transform="translate(8.108 42.904)"/>
              <path id="Path_5710" data-name="Path 5710" class="cls-7" d="M27.615,87.446a12,12,0,0,0-.869,1.63s-1.655,5.139-1.394,5.731" transform="translate(9.731 52.044)"/>
              <path id="Path_5711" data-name="Path 5711" class="cls-7" d="M30.608,112.4s-2.334-1.072-2.1-2.569" transform="translate(11.621 65.406)"/>
              <path id="Path_5712" data-name="Path 5712" class="cls-7" d="M30.012,115.523h0l-1.634-8.933-2.243-9.07h0L22.9,84.436,19.928,70.964v-.029l-.521-3.248a41.64,41.64,0,0,0-1.2-5.3L16.1,55.241l-3.554-12.62" transform="translate(2.1 25.283)"/>
              <path id="Path_5713" data-name="Path 5713" class="cls-17" d="M53.721,136.415a.782.782,0,0,1-.12.927,1.928,1.928,0,0,1-.865.484,6.182,6.182,0,0,1-1.341.232,42.418,42.418,0,0,1-7.013-.232,37.509,37.509,0,0,1-4.783-.774l-.319-.807,1.527-7.547.257-.277.265-.281s6.227,1.154,9.31.753l.314-.046c2.727-.414,2.164-1.022,2.164-1.022l.488.174.2,5.445,1.961-.517.343,2.164S56.866,135.58,53.721,136.415Z" transform="translate(18.063 76.15)"/>
              <path id="Path_5714" data-name="Path 5714" class="cls-7" d="M46.587,128.655l0,.124.434,8.437" transform="translate(22.425 76.645)"/>
            </g>
            <path id="Path_5715" data-name="Path 5715" class="cls-7" d="M46.33,59.591s-4.3,3.455-4.138,8.689S54.336,95.039,54.336,95.039" transform="translate(24.574 35.414)"/>
          </g>
        </g>
      </g>
      <g id="Ellipse_228-2" data-name="Ellipse 228" class="cls-1" transform="translate(1160 1511)">
        <circle class="cls-18" cx="96" cy="96" r="96"/>
        <circle class="cls-19" cx="96" cy="96" r="95.5"/>
      </g>
    </g>
  </g>
</svg>
