<svg xmlns="http://www.w3.org/2000/svg" xmlns:xlink="http://www.w3.org/1999/xlink" viewBox="0 0 192 192">
  <defs>
    <style>
      .cls-1, .cls-10, .cls-13, .cls-14, .cls-15, .cls-16, .cls-19, .cls-6, .cls-7, .cls-8, .cls-9 {
        fill: none;
      }

      .cls-1, .cls-2 {
        stroke: #707070;
      }

      .cls-12, .cls-17, .cls-2, .cls-4, .cls-5 {
        fill: #fff;
      }

      .cls-3 {
        clip-path: url(#clip-path);
      }

      .cls-10, .cls-12, .cls-13, .cls-14, .cls-15, .cls-16, .cls-17, .cls-5, .cls-6, .cls-7, .cls-8, .cls-9 {
        stroke: #1d1d1b;
      }

      .cls-10, .cls-12, .cls-13, .cls-15, .cls-16, .cls-5, .cls-7, .cls-8, .cls-9 {
        stroke-miterlimit: 10;
      }

      .cls-5, .cls-6, .cls-9 {
        stroke-width: 0.259px;
      }

      .cls-14, .cls-17, .cls-6 {
        stroke-linejoin: round;
      }

      .cls-14, .cls-17, .cls-7, .cls-8 {
        stroke-width: 0.777px;
      }

      .cls-8, .cls-9 {
        stroke-linecap: round;
      }

      .cls-10 {
        stroke-width: 0.153px;
      }

      .cls-11 {
        fill: #1d1d1b;
      }

      .cls-12 {
        stroke-width: 0.194px;
      }

      .cls-13 {
        stroke-width: 0.236px;
      }

      .cls-15 {
        stroke-width: 0.249px;
      }

      .cls-16 {
        stroke-width: 0.13px;
      }

      .cls-18 {
        stroke: none;
      }
    </style>
    <clipPath id="clip-path">
      <circle id="Ellipse_228" data-name="Ellipse 228" class="cls-1" cx="95" cy="95" r="95" transform="translate(71 400)"/>
    </clipPath>
  </defs>
  <g id="Group_441" data-name="Group 441" transform="translate(-5092 -1752)">
    <g id="Ellipse_285" data-name="Ellipse 285" class="cls-2" transform="translate(5092 1752)">
      <circle class="cls-18" cx="96" cy="96" r="96"/>
      <circle class="cls-19" cx="96" cy="96" r="95.5"/>
    </g>
    <g id="Group_397" data-name="Group 397" transform="translate(4484 241)">
      <g id="Mask_Group_40" data-name="Mask Group 40" class="cls-3" transform="translate(537 1113)">
        <g id="Mizano_Diagonal" data-name="Mizano Diagonal" transform="translate(85.867 278.962)">
          <g id="Camada_1" data-name="Camada 1">
            <g id="Base" transform="translate(0 269.04)">
              <g id="base-2" data-name="base">
                <path id="Path_5522" data-name="Path 5522" class="cls-4" d="M104.818,168.288a9.4,9.4,0,0,1,7.806,4.036c2.98,4.319,0,9.933,0,9.933-1.6,8.264-8.781,7.859-8.781,7.859-10.573-.107-9.064-12.732-9.064-12.732l-.107-8.8S98.6,171.391,104.818,168.288Z" transform="translate(99.357 -91.23)"/>
                <path id="Path_5523" data-name="Path 5523" class="cls-5" d="M76.73,152.893l-.2,1.034s-1.386-.085-2.948,6.366l16.661,4.137s2.293-8.088-2-10.215l-1.775-.64-2.378.368V152.6Z" transform="translate(77.045 -107.819)"/>
                <path id="Path_5524" data-name="Path 5524" class="cls-4" d="M9.533,167.687a9.416,9.416,0,0,0-7.816,4.031c-2.98,4.324,0,9.938,0,9.938,1.6,8.259,8.781,7.859,8.781,7.859,10.573-.107,9.064-12.732,9.064-12.732l.107-8.808S15.75,170.774,9.533,167.687Z" transform="translate(-0.374 -91.866)"/>
                <path id="Path_5525" data-name="Path 5525" class="cls-5" d="M37.037,152.458l.2,1.029s1.386-.085,2.943,6.366L23.526,164s-2.293-8.088,2-10.215l1.775-.645,2.378.373v-1.365Z" transform="translate(23.451 -108.307)"/>
                <path id="Path_5526" data-name="Path 5526" class="cls-4" d="M53.066,180.862v1.807H49.8l-1.109,2.426.208,15.163,1.216,2.735H53.4s.6-.608.533-3.343,0-3.423,0-3.423l5.374-.043v5.262s.176,1.546.533,1.546h3.284a9.664,9.664,0,0,0,1.568-3.343c.229-1.509-.037-14.187-.037-14.187l-1.216-2.8H59.928l-.107-1.114Z" transform="translate(50.715 -77.929)"/>
                <path id="Path_5527" data-name="Path 5527" class="cls-6" d="M13.2,168.024l-.181,8.205-.315.2a8.5,8.5,0,0,0-2.549-4.2A9.756,9.756,0,0,0,6.9,170.508v-1.653" transform="translate(6.512 -91.509)"/>
                <circle id="Ellipse_263" data-name="Ellipse 263" class="cls-7" cx="8.781" cy="8.781" r="8.781" transform="translate(1.354 80.087)"/>
                <path id="Path_5528" data-name="Path 5528" class="cls-8" d="M1.727,181.815a17.061,17.061,0,0,1-1.344-5.332,8.781,8.781,0,0,1,8.808-8.76" transform="translate(-0.383 -91.827)"/>
                <path id="Path_5529" data-name="Path 5529" class="cls-9" d="M.415,176.6c0-4.847,4.974-8.493,9.826-8.493" transform="translate(-0.351 -91.424)"/>
                <circle id="Ellipse_264" data-name="Ellipse 264" class="cls-7" cx="1.509" cy="1.509" r="1.509" transform="translate(8.792 87.386)"/>
                <path id="Path_5530" data-name="Path 5530" class="cls-7" d="M5.475,170.431a46.2,46.2,0,0,0,.235,5.06c.2.261.389.427.938,0a35.969,35.969,0,0,0,2.708-3.807" transform="translate(5.002 -88.963)"/>
                <path id="Path_5531" data-name="Path 5531" class="cls-7" d="M9.515,171.6a45.8,45.8,0,0,0-3.1,4c0,.3,0,.586.714.613a35.829,35.829,0,0,0,4.527-1.141" transform="translate(6 -87.721)"/>
                <path id="Path_5532" data-name="Path 5532" class="cls-7" d="M11.719,174.04a43.356,43.356,0,0,0-5.06.208c-.261.208-.432.395,0,.944a37.083,37.083,0,0,0,3.785,2.724" transform="translate(5.976 -85.145)"/>
                <path id="Path_5533" data-name="Path 5533" class="cls-7" d="M10.416,177.985a46.441,46.441,0,0,0-4.137-2.916c-.3.011-.581.048-.576.746a36.62,36.62,0,0,0,1.344,4.468" transform="translate(5.243 -84.057)"/>
                <path id="Path_5534" data-name="Path 5534" class="cls-7" d="M6.88,170.436a46.345,46.345,0,0,1,.053,5.06c-.181.261-.368.453-.944.053a35.985,35.985,0,0,1-2.916-3.642" transform="translate(2.461 -88.958)"/>
                <path id="Path_5535" data-name="Path 5535" class="cls-7" d="M3.545,171.747s3.295,3.514,3.322,3.8,0,.581-.682.65a36.46,36.46,0,0,1-4.585-.885" transform="translate(0.902 -87.571)"/>
                <path id="Path_5536" data-name="Path 5536" class="cls-7" d="M1.625,174.619a46.015,46.015,0,0,1,5.06-.08c.261.181.459.363.059.938a36.538,36.538,0,0,1-3.626,2.932" transform="translate(0.929 -84.685)"/>
                <path id="Path_5537" data-name="Path 5537" class="cls-7" d="M3.083,178.871a47.042,47.042,0,0,1,3.46-3.695c.3-.053.581-.069.72.613a36.136,36.136,0,0,1-.416,4.649" transform="translate(2.472 -83.967)"/>
                <path id="Path_5538" data-name="Path 5538" class="cls-7" d="M94.511,167.373v10.008l.3.219a8.527,8.527,0,0,1,2.826-4.02A9.762,9.762,0,0,1,101,172.086l.112-1.653" transform="translate(99.187 -92.197)"/>
                <circle id="Ellipse_265" data-name="Ellipse 265" class="cls-7" cx="8.973" cy="8.973" r="8.973" transform="translate(193.629 81.158)"/>
                <path id="Path_5539" data-name="Path 5539" class="cls-7" d="M106.375,182.446a14.181,14.181,0,0,0,1.381-4.8c.331-4.836-2.511-9.026-7.352-9.352" transform="translate(105.42 -91.221)"/>
                <path id="Path_5540" data-name="Path 5540" class="cls-10" d="M108.737,177.616c.325-4.841-4.447-8.643-9.288-8.968" transform="translate(104.411 -90.849)"/>
                <path id="Path_5541" data-name="Path 5541" class="cls-10" d="M110.1,178.292c-.736-6.931-6.451-9.5-12.263-8.483" transform="translate(102.701 -89.845)"/>
                <circle id="Ellipse_266" data-name="Ellipse 266" class="cls-7" cx="1.509" cy="1.509" r="1.509" transform="translate(201.115 88.447)"/>
                <path id="Path_5542" data-name="Path 5542" class="cls-7" d="M101.043,170.949a47.264,47.264,0,0,1-.576,5.028c-.208.229-.421.405-.938-.064a36.789,36.789,0,0,1-2.442-3.977" transform="translate(101.911 -88.415)"/>
                <path id="Path_5543" data-name="Path 5543" class="cls-7" d="M97.692,171.954a44.883,44.883,0,0,1,2.82,4.2c-.021.309-.059.581-.752.56a36.437,36.437,0,0,1-4.415-1.445" transform="translate(100.07 -87.351)"/>
                <path id="Path_5544" data-name="Path 5544" class="cls-7" d="M95.265,174.312s4.8.341,5.033.533.405.416-.059.938a35.944,35.944,0,0,1-3.967,2.458" transform="translate(99.985 -84.857)"/>
                <path id="Path_5545" data-name="Path 5545" class="cls-7" d="M96.087,178.171a44.964,44.964,0,0,1,4.324-2.629c.3.037.576.08.533.778a34.765,34.765,0,0,1-1.647,4.367" transform="translate(100.854 -83.556)"/>
                <path id="Path_5546" data-name="Path 5546" class="cls-7" d="M99.777,171a46.367,46.367,0,0,0-.395,5.049c.165.251.336.475.933.117a36.229,36.229,0,0,0,3.156-3.439" transform="translate(104.308 -88.36)"/>
                <path id="Path_5547" data-name="Path 5547" class="cls-7" d="M103.689,172.459a46.26,46.26,0,0,0-3.572,3.583c-.043.3-.053.581.634.693a36.829,36.829,0,0,0,4.633-.57" transform="translate(105.099 -86.817)"/>
                <path id="Path_5548" data-name="Path 5548" class="cls-7" d="M105.322,175.543a46.115,46.115,0,0,0-5.044-.421c-.245.165-.48.331-.123.933a36.087,36.087,0,0,0,3.423,3.172" transform="translate(104.964 -84.031)"/>
                <path id="Path_5549" data-name="Path 5549" class="cls-7" d="M103.015,179.655a47.411,47.411,0,0,0-3.2-3.924c-.293-.075-.571-.112-.752.565a36.79,36.79,0,0,0,.1,4.665" transform="translate(103.938 -83.397)"/>
                <path id="Path_5550" data-name="Path 5550" class="cls-4" d="M25.571,157.657a.944.944,0,0,1-.251-.309c-.2-.336-.858-2.207-1.264-3.375a2.218,2.218,0,0,1,1.813-.064c0,1.7-.08,3.487-.123,3.652C25.7,157.631,25.651,157.695,25.571,157.657Z" transform="translate(24.659 -106.612)"/>
                <path id="Path_5551" data-name="Path 5551" class="cls-11" d="M26.537,157.342c.57.277,1.322.682,1.738.912a1.5,1.5,0,0,1,0,.155v.155c-.57-.315-1.29-.7-1.807-.949a2.842,2.842,0,0,0-.661-.272s-.1.069-.107.123a1.264,1.264,0,0,0,.1.368c.16.432,1.333,2.362,1.829,3.156l-.112.181c-.352-.576-1.6-2.666-1.807-3.146a1.6,1.6,0,0,1-.128-.666.347.347,0,0,1,.187-.32,2.2,2.2,0,0,1,.773.3Z" transform="translate(26.267 -103.13)"/>
                <path id="Path_5552" data-name="Path 5552" class="cls-11" d="M26.066,153.879a25.086,25.086,0,0,1-.176,3.881c-.085.112-.144.176-.256.123a.96.96,0,0,1-.3-.368c-.251-.427-1.066-2.826-1.338-3.551a1.06,1.06,0,0,1,.133-.075c.405,1.168,1.066,3.039,1.264,3.375a.944.944,0,0,0,.251.309c.08.037.128,0,.176-.1.043-.165.1-1.951.123-3.652Z" transform="translate(24.59 -106.528)"/>
                <path id="Path_5553" data-name="Path 5553" class="cls-11" d="M23.121,155.386l.032-.293.037.037a2.8,2.8,0,0,1-.043.283Z" transform="translate(23.669 -105.188)"/>
                <path id="Path_5554" data-name="Path 5554" class="cls-11" d="M23.406,157.6h0c.032.1.064.187.1.283l-.064.032Z" transform="translate(23.971 -102.541)"/>
                <g id="Group_393" data-name="Group 393" transform="translate(45.831 44.981)">
                  <path id="Path_5555" data-name="Path 5555" class="cls-11" d="M23.1,156.148v-.133a1.2,1.2,0,0,1,0,.139Z" transform="translate(-22.181 -149.193)"/>
                  <path id="Path_5556" data-name="Path 5556" class="cls-11" d="M25.773,157.372c.133.064.277.219.325.8a30.047,30.047,0,0,1-.331,3.284l-.128-.1a29.858,29.858,0,0,0,.331-3.162c0-.357-.091-.464-.192-.533a.311.311,0,0,0-.091-.032,13.726,13.726,0,0,0-1.749,1.722c-.048-.075-.085-.144-.128-.224a12.8,12.8,0,0,1,1.871-1.818Z" transform="translate(-21.433 -147.821)"/>
                  <path id="Path_5557" data-name="Path 5557" class="cls-4" d="M25.739,157.186a2.839,2.839,0,0,1,.661.272c.533.251,1.237.634,1.807.949a5.652,5.652,0,0,1-.65,2.426c-.5-.794-1.669-2.724-1.829-3.156a1.264,1.264,0,0,1-.1-.368C25.637,157.255,25.712,157.207,25.739,157.186Z" transform="translate(-19.506 -147.954)"/>
                  <path id="Path_5558" data-name="Path 5558" class="cls-4" d="M25.425,157.976a.4.4,0,0,1-.16-.245c-.043-.229,0-2.031.059-3.732a6.121,6.121,0,0,1,1.775,1.9,13.1,13.1,0,0,1-1.418,2.021A.277.277,0,0,1,25.425,157.976Z" transform="translate(-19.913 -151.326)"/>
                  <path id="Path_5559" data-name="Path 5559" class="cls-11" d="M25.835,157.809a.88.88,0,0,1-.16.533,8.588,8.588,0,0,1-1.743,1.13c-.037-.091-.069-.187-.107-.277a9.161,9.161,0,0,0,1.77-1.13.533.533,0,0,0,.112-.267.746.746,0,0,0-.1-.235,15.192,15.192,0,0,0-2.021-1.066l-.379-.187v-.32l.48.235a10.844,10.844,0,0,1,2,1.114.992.992,0,0,1,.149.469Z" transform="translate(-22.072 -149.218)"/>
                  <path id="Path_5560" data-name="Path 5560" class="cls-11" d="M25.813,158.019a1.024,1.024,0,0,1-.053.389c-.064.123-.187.144-.389.064h0a21.368,21.368,0,0,1-2.133-1.823.642.642,0,0,1,.043-.283,22.976,22.976,0,0,0,2.1,1.8h0c.2.085.267.043.293,0a.342.342,0,0,0,0-.144c-.085-.336-.96-2.442-1.536-3.78.037-.048.08-.091.117-.133C25.813,157.7,25.813,157.949,25.813,158.019Z" transform="translate(-22.039 -151.213)"/>
                  <path id="Path_5561" data-name="Path 5561" class="cls-4" d="M25.514,156.221a1.456,1.456,0,0,1,.581.858,1.861,1.861,0,0,1,.08.581c-.027.533-.357.842-.73.656H25.4a1.477,1.477,0,0,1-.6-.848,1.9,1.9,0,0,1-.08-.587c.027-.533.363-.842.741-.656Z" transform="translate(-20.466 -149.027)"/>
                  <path id="Path_5562" data-name="Path 5562" class="cls-11" d="M26.266,157.071a2.453,2.453,0,0,1,.112.826c-.032.73-.411,1.114-.874.89h-.037a1.717,1.717,0,0,1-.688-1,2.591,2.591,0,0,1-.107-.826c.037-.736.427-1.1.89-.88h0a1.722,1.722,0,0,1,.7.986Zm0,.752a1.861,1.861,0,0,0-.08-.581,1.455,1.455,0,0,0-.6-.858h-.032c-.379-.187-.714.107-.741.656a1.9,1.9,0,0,0,.08.587,1.477,1.477,0,0,0,.6.848h.043c.373.187.7-.112.73-.656" transform="translate(-20.524 -149.188)"/>
                  <path id="Path_5563" data-name="Path 5563" class="cls-11" d="M25.571,157.631c.155.08,1.5,2.484,2.015,3.412l-.133.128c-.72-1.3-1.77-3.146-1.893-3.231s-.24-.085-.256.3.267,2.2.48,3.492l-.149-.005c-.16-.965-.5-3.082-.475-3.546C25.2,157.466,25.433,157.567,25.571,157.631Z" transform="translate(-20.006 -147.531)"/>
                  <path id="Path_5564" data-name="Path 5564" class="cls-4" d="M25.231,158.086c0-.389.08-.389.256-.3a30.541,30.541,0,0,1,1.893,3.231,2.1,2.1,0,0,1-1.669.56C25.5,160.282,25.215,158.427,25.231,158.086Z" transform="translate(-19.932 -147.372)"/>
                  <path id="Path_5565" data-name="Path 5565" class="cls-11" d="M26.988,157.072v.315h0a1.235,1.235,0,0,0-.027-.315Z" transform="translate(-18.1 -148.075)"/>
                  <path id="Path_5566" data-name="Path 5566" class="cls-11" d="M31.862,158.9a14.273,14.273,0,0,1,.613,4.713c-.187,4.132-2.421,6.35-5.033,5.076l-.213-.112c-1.663-.928-3.14-3.066-3.951-5.737a14.257,14.257,0,0,1-.613-4.708c.187-4.137,2.421-6.35,5.038-5.076l.208.107A9.837,9.837,0,0,1,31.862,158.9Zm-.037,4.329a10.541,10.541,0,0,0-.469-3.5,8.56,8.56,0,0,0-3.5-5.012l-.2-.107c-2.261-1.1-4.185.6-4.335,3.9a10.525,10.525,0,0,0,.469,3.5,8.6,8.6,0,0,0,3.5,5.012l.2.1c2.261,1.1,4.191-.586,4.34-3.892" transform="translate(-22.655 -152.7)"/>
                  <path id="Path_5567" data-name="Path 5567" class="cls-11" d="M25.267,153.965l.128.08c-.064,1.69-.1,3.492-.059,3.732a.4.4,0,0,0,.16.245.277.277,0,0,0,.256-.048,13.1,13.1,0,0,0,1.418-2.021l.123.2a14.274,14.274,0,0,1-1.5,2.133.331.331,0,0,1-.309.048.661.661,0,0,1-.245-.379,27.842,27.842,0,0,1,.027-3.993Z" transform="translate(-19.983 -151.361)"/>
                  <path id="Path_5568" data-name="Path 5568" class="cls-4" d="M28.272,160.4a2.2,2.2,0,0,1,.784.3c.57.277,1.322.682,1.738.912v-.853a11.111,11.111,0,0,1-2.175-.379h-.037a.789.789,0,0,1-.373-.448,1.29,1.29,0,0,1-.032-.432c0-.085,0-.309,1.717-2.277a9.3,9.3,0,0,0-.485-.949,14.272,14.272,0,0,1-1.5,2.133.33.33,0,0,1-.309.048.661.661,0,0,1-.245-.379,27.84,27.84,0,0,1,0-3.977l-.112-.069-.176-.091-.171-.075a25.086,25.086,0,0,1-.176,3.881c-.085.112-.144.176-.256.123a.96.96,0,0,1-.3-.368c-.251-.427-1.066-2.826-1.338-3.551a2.416,2.416,0,0,0-.533.421c1.546,3.615,1.546,3.844,1.546,3.929a1.024,1.024,0,0,1-.053.389c-.064.123-.187.144-.389.064h0a21.378,21.378,0,0,1-2.133-1.823c-.027.208-.048.427-.059.65s0,.437,0,.661l.48.235a10.844,10.844,0,0,1,2,1.114.992.992,0,0,1,.165.533.88.88,0,0,1-.16.533,8.588,8.588,0,0,1-1.743,1.13,9.388,9.388,0,0,0,.533,1.066,12.8,12.8,0,0,1,1.871-1.818l.091.037c.133.064.277.219.325.8a30.049,30.049,0,0,1-.331,3.284c.107.069.213.139.325.2l.176.091a2.984,2.984,0,0,0,.778.219c-.16-.965-.5-3.082-.475-3.546,0-.725.256-.608.395-.533s1.5,2.484,2.015,3.412a3.044,3.044,0,0,0,.357-.453c-.352-.576-1.6-2.666-1.807-3.146a1.6,1.6,0,0,1-.128-.666A.347.347,0,0,1,28.272,160.4Zm-.336-.219c-.032.73-.411,1.114-.874.89h-.037a1.717,1.717,0,0,1-.688-1,2.591,2.591,0,0,1-.107-.826c.037-.736.427-1.1.89-.88h0a1.722,1.722,0,0,1,.682,1,2.453,2.453,0,0,1,.112.826" transform="translate(-22.082 -151.468)"/>
                  <path id="Path_5569" data-name="Path 5569" class="cls-4" d="M23.585,156.328l-.379-.187a10.178,10.178,0,0,0,.427,2.325c.059.2.123.389.192.581a9.158,9.158,0,0,0,1.77-1.13.533.533,0,0,0,.112-.267.746.746,0,0,0-.1-.235,15.2,15.2,0,0,0-2.021-1.088Z" transform="translate(-22.072 -149.059)"/>
                  <path id="Path_5570" data-name="Path 5570" class="cls-4" d="M25.365,158.1h0a22.982,22.982,0,0,1-2.117-1.807,4.543,4.543,0,0,1,.89-2.133c.576,1.338,1.45,3.444,1.535,3.78a.342.342,0,0,1,0,.144C25.632,158.142,25.562,158.185,25.365,158.1Z" transform="translate(-22.028 -151.156)"/>
                  <path id="Path_5571" data-name="Path 5571" class="cls-4" d="M25.931,158.033A29.858,29.858,0,0,1,25.6,161.2a6.564,6.564,0,0,1-1.727-2,13.727,13.727,0,0,1,1.749-1.722.311.311,0,0,1,.091.032C25.813,157.591,25.877,157.676,25.931,158.033Z" transform="translate(-21.367 -147.656)"/>
                  <path id="Path_5572" data-name="Path 5572" class="cls-4" d="M25.675,157.743a20.2,20.2,0,0,1,1.7-2.133,9.982,9.982,0,0,1,.368,1.018,10.9,10.9,0,0,1,.4,1.983,11.125,11.125,0,0,1-2.133-.368h-.037a.608.608,0,0,1-.288-.3.491.491,0,0,1-.005-.2Z" transform="translate(-19.469 -149.621)"/>
                  <path id="Path_5573" data-name="Path 5573" class="cls-11" d="M26.084,158.352a11.128,11.128,0,0,0,2.133.368c0,.107,0,.213,0,.315a11.11,11.11,0,0,1-2.175-.379H26a.789.789,0,0,1-.373-.448,1.29,1.29,0,0,1-.032-.432c0-.085,0-.309,1.717-2.282.037.085.075.165.107.245a20.2,20.2,0,0,0-1.7,2.133.49.49,0,0,0,0,.16.608.608,0,0,0,.288.3Z" transform="translate(-19.548 -149.744)"/>
                </g>
                <path id="Path_5574" data-name="Path 5574" class="cls-4" d="M31.02,158.917a10.541,10.541,0,0,1,.469,3.5c-.149,3.306-2.079,5-4.34,3.892l-.2-.1a8.6,8.6,0,0,1-3.5-5.012,10.525,10.525,0,0,1-.469-3.5c.149-3.3,2.074-5,4.335-3.9l.2.107A8.538,8.538,0,0,1,31.02,158.917Zm.2,3.391a9.549,9.549,0,0,0,0-1.1v-.315a13.51,13.51,0,0,0-.464-2.261,8,8,0,0,0-3.236-4.671l-.171-.091c-1.9-.928-3.556.357-3.988,2.986l-.037-.037-.032.293.027.027c-.032.229-.053.469-.064.714s0,.576,0,.864v.133a11.98,11.98,0,0,0,.485,2.666c.043.149.091.293.144.437l.037.315.064-.032a7.522,7.522,0,0,0,2.986,3.956l.181.091c2.133,1.066,3.94-.7,4.084-3.983" transform="translate(23.512 -106.912)"/>
                <g id="Group_394" data-name="Group 394" transform="translate(158.514 45.742)">
                  <path id="Path_5575" data-name="Path 5575" class="cls-11" d="M82.08,155.81h0l.027.309h0A1.907,1.907,0,0,1,82.08,155.81Z" transform="translate(-72.477 -150.171)"/>
                  <path id="Path_5576" data-name="Path 5576" class="cls-11" d="M81.782,157.725c.032-.091.069-.187.1-.283h0v.315Z" transform="translate(-72.792 -148.444)"/>
                  <path id="Path_5577" data-name="Path 5577" class="cls-11" d="M79.831,154.1l.123-.059c.123,1.631.283,3.332.352,3.5.053.053.107.107.192.064a.842.842,0,0,0,.283-.331c.224-.379.96-2.533,1.237-3.364l.149.053c-.235.7-1.066,3.13-1.317,3.567a.928.928,0,0,1-.325.379c-.112.053-.192,0-.277-.091A22.818,22.818,0,0,1,79.831,154.1Z" transform="translate(-74.856 -152.177)"/>
                  <path id="Path_5578" data-name="Path 5578" class="cls-11" d="M80.765,157.661c.149-.075.341-.1.405.533a32.06,32.06,0,0,1-.331,3.46l-.139.027c.165-1.269.379-3.082.347-3.407s-.1-.363-.261-.283l-.053.027c-.123.075-1.21,1.967-1.962,3.3l-.155-.112c.432-.773,1.914-3.4,2.085-3.492Z" transform="translate(-76.142 -148.253)"/>
                  <path id="Path_5579" data-name="Path 5579" class="cls-11" d="M80.685,154.139a23,23,0,0,1,.256,3.833c-.075.2-.133.325-.261.384a.4.4,0,0,1-.336,0,13.566,13.566,0,0,1-1.813-1.9l.128-.2a12.169,12.169,0,0,0,1.706,1.786.336.336,0,0,0,.288,0c.1-.043.144-.165.192-.288.027-.208-.117-1.925-.283-3.54Z" transform="translate(-76.232 -151.939)"/>
                  <path id="Path_5580" data-name="Path 5580" class="cls-11" d="M80.236,157.293c.235-.112.395-.176.432-.155a.336.336,0,0,1,.229.3,1.386,1.386,0,0,1-.112.661c-.176.5-1.493,2.618-1.861,3.2-.043-.048-.091-.1-.133-.16.608-.965,1.749-2.826,1.9-3.247a.939.939,0,0,0,.085-.352s0-.053-.128-.1a1.153,1.153,0,0,0-.32.123c-.533.256-1.6.853-2.41,1.312v-.3C78.386,158.285,79.585,157.6,80.236,157.293Z" transform="translate(-76.882 -148.77)"/>
                  <path id="Path_5581" data-name="Path 5581" class="cls-11" d="M80.765,157.729a1.263,1.263,0,0,1,0,.4.784.784,0,0,1-.4.5l-.064.037a15.792,15.792,0,0,1-2.421.571v-.32a15.594,15.594,0,0,0,2.378-.533l.059-.032a.677.677,0,0,0,.32-.347.362.362,0,0,0,0-.128,20.875,20.875,0,0,0-2.047-1.9l.107-.24C80.765,157.43,80.765,157.638,80.765,157.729Z" transform="translate(-76.92 -150.25)"/>
                  <path id="Path_5582" data-name="Path 5582" class="cls-11" d="M86.58,157.483c0,.213.037.432.043.65v.32a9.928,9.928,0,0,1-.277,2.207q-.1.421-.24.832c-.032.1-.069.192-.1.283a7.9,7.9,0,0,1-3.146,4.121l-.331.176c-2.282,1.066-4.345-.416-4.692-3.508a8.527,8.527,0,0,1-.048-1.066c0-.1,0-.208,0-.315a10.007,10.007,0,0,1,.267-1.8,8.4,8.4,0,0,1,3.487-5.241l.325-.176c2.031-.965,3.9.123,4.521,2.559a2.245,2.245,0,0,1,.064.272,6.644,6.644,0,0,1,.128.688Zm-.155.752a6.037,6.037,0,0,0-.037-.629c-.027-.219-.059-.427-.1-.629a1.02,1.02,0,0,0-.069-.272,3.86,3.86,0,0,0-1.136-1.957l-.139-.112a2.435,2.435,0,0,0-.613-.352l-.149-.053a2.916,2.916,0,0,0-2.063.128l-.123.059-.069.032c-.107.048-.213.107-.32.165l-.133.08-.123.08a6.856,6.856,0,0,0-1.9,2.015l-.128.2a9.064,9.064,0,0,0-.5.96l-.107.24a10.092,10.092,0,0,0-.469,1.44,9.067,9.067,0,0,0-.235,1.525v.32c0,.277,0,.533.027.821v.3a4.681,4.681,0,0,0,.874,2.266c.043.059.091.112.133.16a2.529,2.529,0,0,0,.432.4l.155.112a2.666,2.666,0,0,0,1.93.363l.139-.027a3.86,3.86,0,0,0,.762-.272l.336-.176c.123-.069.245-.149.363-.229l.123-.091a7.267,7.267,0,0,0,1.818-2.085l.128-.224a9.15,9.15,0,0,0,.533-1.1l.107-.283a8.952,8.952,0,0,0,.3-1,8.786,8.786,0,0,0,.245-1.861q0-.16,0-.32" transform="translate(-77.019 -152.494)"/>
                  <path id="Path_5583" data-name="Path 5583" class="cls-11" d="M80.578,157.931a.874.874,0,0,1,.155-.533,21.009,21.009,0,0,1,2.73-1.546v.32a22.717,22.717,0,0,0-2.666,1.482.64.64,0,0,0-.1.229.411.411,0,0,0,.133.229,10.128,10.128,0,0,0,2.079.917l-.107.283a9.447,9.447,0,0,1-2.026-.912A.72.72,0,0,1,80.578,157.931Z" transform="translate(-74.067 -150.127)"/>
                  <path id="Path_5584" data-name="Path 5584" class="cls-4" d="M80.578,157.982c.085-.347.965-2.479,1.53-3.817a3.86,3.86,0,0,1,1.136,1.957,24.191,24.191,0,0,1-2.287,1.957h0c-.245.107-.32.059-.347,0A.534.534,0,0,1,80.578,157.982Z" transform="translate(-74.067 -151.911)"/>
                  <path id="Path_5585" data-name="Path 5585" class="cls-11" d="M81.3,156.933a2.132,2.132,0,0,1-.048.725,1.807,1.807,0,0,1-.736,1.114l-.069.032c-.491.235-.922-.1-1-.784a2,2,0,0,1,.053-.73,1.786,1.786,0,0,1,.73-1.109l.059-.032C80.785,155.915,81.222,156.24,81.3,156.933Zm-.16.565a1.364,1.364,0,0,0,.037-.48c-.059-.533-.437-.762-.853-.565l-.064.032a1.567,1.567,0,0,0-.65.965,1.4,1.4,0,0,0-.037.485c.059.533.437.762.842.565l.075-.037a1.552,1.552,0,0,0,.65-.965" transform="translate(-75.276 -149.892)"/>
                  <path id="Path_5586" data-name="Path 5586" class="cls-4" d="M80.255,156.293c.416-.2.794.048.853.565a1.365,1.365,0,0,1-.037.48,1.552,1.552,0,0,1-.65.965l-.075.037c-.405.2-.784-.053-.842-.565a1.4,1.4,0,0,1,.037-.485,1.567,1.567,0,0,1,.65-.965Z" transform="translate(-75.21 -149.732)"/>
                  <path id="Path_5587" data-name="Path 5587" class="cls-11" d="M87.731,157.589a10.759,10.759,0,0,1-.267,3.732,9.868,9.868,0,0,1-4.095,6.158c-.133.069-.261.144-.389.2-2.666,1.274-5.108-.491-5.513-4.111a11.031,11.031,0,0,1,.267-3.732,9.889,9.889,0,0,1,4.1-6.158l.379-.2C84.895,152.21,87.331,153.958,87.731,157.589Zm-.448,3.455a9.731,9.731,0,0,0,.24-3.316c-.373-3.354-2.666-4.958-5.246-3.732-.133.064-.261.133-.389.208a9.495,9.495,0,0,0-3.967,5.913,9.878,9.878,0,0,0-.245,3.316c.379,3.359,2.692,4.953,5.257,3.732.128-.064.256-.128.384-.2a9.549,9.549,0,0,0,3.967-5.918" transform="translate(-77.414 -153.07)"/>
                  <path id="Path_5588" data-name="Path 5588" class="cls-12" d="M87.412,157.463c-.373-3.354-2.666-4.958-5.246-3.732-.133.064-.261.133-.389.208a9.495,9.495,0,0,0-3.967,5.913,9.879,9.879,0,0,0-.245,3.316c.379,3.359,2.692,4.953,5.257,3.732.128-.064.256-.128.384-.2a9.549,9.549,0,0,0,3.967-5.918,9.731,9.731,0,0,0,.24-3.316Zm-.5,1.3a9.928,9.928,0,0,1-.277,2.207q-.1.421-.24.832v.315l-.085-.032a7.9,7.9,0,0,1-3.146,4.121l-.331.176c-2.282,1.066-4.345-.416-4.692-3.508-.037-.341-.053-.693-.064-1.066v-.315h.037a10.008,10.008,0,0,1,.267-1.8,8.4,8.4,0,0,1,3.487-5.241l.325-.176c2.031-.965,3.9.123,4.521,2.559l.059-.053.043.293-.037.032a6.645,6.645,0,0,1,.112.677c0,.213.037.432.043.65l.027.309h0" transform="translate(-77.302 -152.804)"/>
                  <path id="Path_5589" data-name="Path 5589" class="cls-11" d="M82.033,155.007l.043.293-.037.032a2.252,2.252,0,0,0-.064-.272Z" transform="translate(-72.59 -151.02)"/>
                  <path id="Path_5590" data-name="Path 5590" class="cls-11" d="M81.029,158.138a24.182,24.182,0,0,0,2.287-1.957,1.272,1.272,0,0,0,.069.272,23.411,23.411,0,0,1-2.335,1.994h0c-.24.1-.368.091-.448-.043a.923.923,0,0,1-.075-.363c0-.091,0-.3,1.52-3.935l.139.112c-.565,1.338-1.445,3.471-1.53,3.817a.534.534,0,0,0,0,.117c.027.043.1.091.347,0Z" transform="translate(-74.119 -151.971)"/>
                  <path id="Path_5591" data-name="Path 5591" class="cls-11" d="M80.449,157.356l.1-.037a12.55,12.55,0,0,1,2.213,1.562l-.128.224a13.257,13.257,0,0,0-2.069-1.477.25.25,0,0,0-.08.032c-.139.064-.208.176-.219.533a25.484,25.484,0,0,0,.533,3l-.123.091a24.116,24.116,0,0,1-.533-3.124C80.15,157.586,80.3,157.426,80.449,157.356Z" transform="translate(-74.53 -148.577)"/>
                  <path id="Path_5592" data-name="Path 5592" class="cls-4" d="M80.426,157.5a.251.251,0,0,1,.08-.032,13.25,13.25,0,0,1,2.069,1.477,7.267,7.267,0,0,1-1.818,2.085,25.486,25.486,0,0,1-.533-3C80.192,157.676,80.261,157.591,80.426,157.5Z" transform="translate(-74.449 -148.417)"/>
                  <path id="Path_5593" data-name="Path 5593" class="cls-4" d="M80.587,157.992a.336.336,0,0,1-.288,0,12.169,12.169,0,0,1-1.706-1.786,6.856,6.856,0,0,1,1.9-2.015c.165,1.6.309,3.332.283,3.54C80.731,157.827,80.688,157.949,80.587,157.992Z" transform="translate(-76.166 -151.884)"/>
                  <path id="Path_5594" data-name="Path 5594" class="cls-4" d="M80.774,157.385a.939.939,0,0,1-.085.352c-.149.421-1.29,2.282-1.9,3.247a4.681,4.681,0,0,1-.874-2.266c.794-.459,1.871-1.066,2.41-1.312a1.153,1.153,0,0,1,.32-.123C80.726,157.332,80.769,157.364,80.774,157.385Z" transform="translate(-76.882 -148.611)"/>
                  <path id="Path_5595" data-name="Path 5595" class="cls-4" d="M80.33,158.225l-.059.032a15.593,15.593,0,0,1-2.378.533,9.064,9.064,0,0,1,.235-1.525,10.1,10.1,0,0,1,.469-1.44,20.881,20.881,0,0,1,2.047,1.9.363.363,0,0,1,0,.128.677.677,0,0,1-.315.368Z" transform="translate(-76.906 -150.154)"/>
                  <path id="Path_5596" data-name="Path 5596" class="cls-11" d="M77.782,157.614V157.3h.037v.315Z" transform="translate(-77.024 -148.595)"/>
                </g>
                <path id="Path_5597" data-name="Path 5597" class="cls-4" d="M95.249,130.841l-.043,10.008s-.842.72-.586,5.364c0,0-1.248.027-1.349,3.578s-.741,21.86-.741,21.86-15.424-6.6-39.252-2.98c0,0-5.9,1.008-6.361,3.732s.144,3.455.144,3.455l2.058.379,7.107-.1.059-1.018a86.933,86.933,0,0,1,9.677,1.216,49.335,49.335,0,0,1,8.413,2.426l.069.336S62.96,181.6,61.4,181.956s-20.687,5.15-25.192,6.563-19.482,6.766-19.482,6.766L6.29,199.833s-2.559,1.919-1.493,6.515a3.444,3.444,0,0,0,.368.315c1.066.805,4.42,2.708,10.162.288l1.088-2S48.08,194.709,69.678,192.3,90.1,189.793,90.1,189.793s3.732-.656,4.292,3.812,2.421,36.186,2.421,36.186.645,5.065,6.547,4.868,7.331-2.719,7.331-2.719.65-.533.8-3.679l1.717-36.522s1.546-1.344,4.8-.837,15.814,1.978,15.814,1.978,15.643,2.063,25.213,4.479,31.382,8.531,31.382,8.531l1.152,2.09s3.881,2.282,6.649,1.125a21.221,21.221,0,0,1,3.8-1.333s1.6-5.609-2.383-7.4S173.7,188.8,150,184.035l-18.048-4.025s5.006-3.348,16.086-4.164,9.186-.443,9.186-.443v1.365l2.378-.373s1.28-4.105-1.477-5.5-8.141-3.471-22.734-2.581-20.671,3.583-20.671,3.583l-.624-21.929s.427-2.362-1.242-3.455c0,0,.405-4.564-.586-5.684l-.491-8.264Z" transform="translate(4.011 -130.841)"/>
                <path id="Path_5598" data-name="Path 5598" class="cls-7" d="M58.155,156.724l-.075-4.009s6.318-3.4,24.664-3.732,20.031,3.892,20.031,3.892.837.677.213,4.335a11.506,11.506,0,0,1-2.2.368c-.261-.1-.107-1.36-.107-1.36s-15.995-.208-25.555,4.127" transform="translate(60.65 -111.671)"/>
                <path id="Path_5599" data-name="Path 5599" class="cls-7" d="M70.791,156.573v-3.86s-6.9-3.663-25.245-3.977S25.53,152.6,25.53,152.6s-.837.682-.208,4.34a11.509,11.509,0,0,0,2.2.368c.261-.1.1-1.36.1-1.36s15.995-.208,25.56,4.127" transform="translate(25.75 -111.931)"/>
                <path id="Path_5600" data-name="Path 5600" class="cls-7" d="M114.344,153.548s29.66,5.438,51.3,11.554,34.81,12.7,34.81,12.7,2.767,1.466,1.568,7.006c0,0-5.385,3.242-10.45.208l-1.152-2.09s-22.265-6.611-36.788-9.746a244.079,244.079,0,0,0-25.789-3.913q-4.948-.5-9.853-1.312h-.032a7.262,7.262,0,0,0-3.94.448l-.837.395v.693l-1.765,37.13a4.953,4.953,0,0,1-3.86,4.6,21.983,21.983,0,0,1-3.391.459c-6.9.474-7.347-4.415-7.347-4.415s-.624-10.455-1.354-24.36-1.727-14.982-1.727-14.982l-.075-.144-.837-.395a7.282,7.282,0,0,0-3.945-.443h0q-4.916.816-9.853,1.312a243.814,243.814,0,0,0-25.8,3.913c-14.5,3.135-36.762,9.746-36.762,9.746L15.309,184c-5.07,3.039-10.45-.2-10.45-.2-1.2-5.54,1.568-7.006,1.568-7.006s13.169-6.59,34.8-12.7,51.3-11.554,51.3-11.554l.032.405" transform="translate(4.029 -107.893)"/>
                <path id="Path_5601" data-name="Path 5601" class="cls-7" d="M59.341,170.931c6.979.176,10.215-3.092,10.215-3.092l.032-.411-.73-25.715a8.532,8.532,0,0,0-.277-1.978,3.2,3.2,0,0,0-.6-1.28s-.24,3.45-8.627,3.45H57.544c-8.387,0-8.621-3.45-8.621-3.45a3.2,3.2,0,0,0-.6,1.28,8.269,8.269,0,0,0-.277,1.978L47.3,167.428l.032.411s3.236,3.268,10.21,3.092Z" transform="translate(49.248 -122.786)"/>
                <path id="Path_5602" data-name="Path 5602" class="cls-7" d="M56.7,144.827c-7.368.117-8.387-3.252-8.387-3.252v-3.332s-.08-1.919.586-2.549c0,0-.075,3.1,8.232,3.06h.592c8.307.037,8.232-3.06,8.232-3.06.661.629.586,2.549.586,2.549v3.332s-1.018,3.37-8.392,3.252Z" transform="translate(50.316 -125.708)"/>
                <path id="Path_5603" data-name="Path 5603" class="cls-7" d="M48.619,141.083V130.841s3.428.331,8.413.981,8.109.762,8.109.762l.3,8.12s-.416,3.4-8.152,3.2S48.619,141.083,48.619,141.083Z" transform="translate(50.641 -130.841)"/>
                <path id="Path_5604" data-name="Path 5604" class="cls-7" d="M50.816,180.965v1.6a1.221,1.221,0,0,1,.65,1.066h5.8s.107-.944.421-.992v-1.285" transform="translate(52.965 -77.819)"/>
                <path id="Path_5605" data-name="Path 5605" class="cls-7" d="M52.5,181.74H49.227l.315,20.33h3.29s.629-.421.533-2.2l-.208-17.088" transform="translate(51.285 -77)"/>
                <path id="Path_5606" data-name="Path 5606" class="cls-7" d="M49.907,181.74l-.533.954c-1.066,2-.57,1-.656,8.717v.176c.085,7.726-.187,7.528.869,9.528l.533.954" transform="translate(50.701 -77)"/>
                <path id="Path_5607" data-name="Path 5607" class="cls-7" d="M54.732,181.74H58l-.325,20.33h-3.29s-.629-.421-.533-2.2l.208-17.088" transform="translate(56.166 -77)"/>
                <path id="Path_5608" data-name="Path 5608" class="cls-7" d="M56,181.812l.533.954c1.066,2,.57,1,.656,8.723v.176c-.085,7.72.187,7.528-.869,9.528l-.533.949" transform="translate(58.219 -76.923)"/>
                <line id="Line_697" data-name="Line 697" class="cls-7" x2="5.449" transform="translate(104.649 118.016)"/>
                <path id="Path_5609" data-name="Path 5609" class="cls-9" d="M.679,177.427c0-4.846,4.116-8.3,8.968-8.3a8.738,8.738,0,0,1,3.839.533" transform="translate(-0.071 -90.372)"/>
                <circle id="Ellipse_267" data-name="Ellipse 267" class="cls-7" cx="7.459" cy="7.459" r="7.459" transform="translate(195.165 82.481)"/>
                <circle id="Ellipse_268" data-name="Ellipse 268" class="cls-7" cx="7.459" cy="7.459" r="7.459" transform="translate(2.676 81.409)"/>
                <line id="Line_698" data-name="Line 698" class="cls-13" y1="0.091" x2="2.922" transform="translate(53.268 45.287)"/>
                <path id="Path_5610" data-name="Path 5610" class="cls-14" d="M35.7,159.438s-1.418-5.2-2.394-5.758l-.235,5.9-4.356,1.136-.117-1.136a10.13,10.13,0,0,0-1.514-3.8v-2.133a3.732,3.732,0,0,0,3.5,1.333c2.245-.368,2.485-1.333,2.485-1.333l-.6-.88v.64H28.333V152.31" transform="translate(27.857 -108.132)"/>
                <line id="Line_699" data-name="Line 699" class="cls-15" x1="3.071" y1="0.091" transform="translate(158.174 45.911)"/>
                <path id="Path_5611" data-name="Path 5611" class="cls-14" d="M73.582,159.621s1.317-5.038,2.346-5.62l.245,6.174,4.564,1.189.123-1.189a10.663,10.663,0,0,1,1.6-3.983v-2.218a3.94,3.94,0,0,1-3.679,1.4c-2.357-.384-2.6-1.4-2.6-1.4l.629-.917v.672h4.335V152.6" transform="translate(77.048 -107.819)"/>
              </g>
            </g>
            <g id="Mizano" transform="translate(6.153)">
              <path id="Path_5612" data-name="Path 5612" class="cls-4" d="M118.674,84.285l-7.891-.315h-12.9L79.87,83.3,77.5,81.017s-.906-3.327,1.429-3.78,14.156-.6,14.156-.6,22.334.432,23.848.149,23.79,1.536,23.79,1.536a2.559,2.559,0,0,1,1.866,2.266c0,1.733-.693,2.218-.693,2.218l-1.626,1.6a25.566,25.566,0,0,1-4.2,0c-4.009-.112-14.022,0-14.022,0Z" transform="translate(74.853 80.857)"/>
              <path id="Path_5613" data-name="Path 5613" class="cls-4" d="M53.3,110.282v-.192l9.6.075,8.765-.336s5.6-.592,6.462-.331a28.6,28.6,0,0,0,3.9.395s15.057-1.285,32.886-2.975,32.187-.3,39.715,2.181c.219.075.432.144.64.224,6.958,2.474,8,6.2,8.376,12.359.395,6.334-1.488,12.871-4.159,16.528s-10.13,4.559-10.13,4.559l-16.528,5.742c-13.766,3.86-14.758,6.83-26.152,9.8s-13.462.395-13.462.395L51.459,156.47l-2.282-.123h-.363l-.192-5.241-.6-.2s.224.24-.181.533l2-20.991,1.328-.315L53.3,110.33Z" transform="translate(43.668 112.106)"/>
              <path id="Path_5614" data-name="Path 5614" class="cls-4" d="M151.694,115.029l.778,1.066c-.208-.08-.421-.149-.64-.224-7.528-2.479-21.886-3.86-39.715-2.181s-32.886,2.975-32.886,2.975a28.607,28.607,0,0,1-3.9-.395c-.858-.261-6.462.331-6.462.331l-8.765.336-9.6-.075.181-1.685,19.834-1.871s8.531-.7,10-1.1,11.884-4.42,11.884-4.42,11.687-6.446,22.393-7.464c3.9-.363,6.83-.533,9.288-.57a36.468,36.468,0,0,1,11.122,1.6l1.818.432s7.1,2.378,13.079,10.7a15.169,15.169,0,0,1,1.583,2.543Z" transform="translate(46.488 105.312)"/>
              <path id="Path_5615" data-name="Path 5615" class="cls-4" d="M106.857,80.48l-6.83,11.138-6.542,30.748-1.818-.432,5.748-30.428L103.5,80.352Z" transform="translate(90.025 84.79)"/>
              <path id="Path_5616" data-name="Path 5616" class="cls-4" d="M109.22,80.514l-6.089,11.154L97.384,122.1a36.469,36.469,0,0,0-11.122-1.6L90.5,91.7,88.427,80.2h12.9Z" transform="translate(84.307 84.629)"/>
              <path id="Path_5617" data-name="Path 5617" class="cls-4" d="M76.793,90.835l-9.65.181-5.593-.032-7.592-.043-.187.048h-.938l-12.2-.112-6.051-.053H33.34l-2.49-2.133s-1.109-3.274,1.189-3.865,11.852-1.759,11.852-1.759l1.066-.027c1.6-.048,4.937-.139,8.675-.208,2.538-.053,5.268-.1,7.795-.107,3.546-.032,6.7,0,8.36.123,1.989.149,5.54.368,9.192.581h0c2.426.149,4.905.293,7,.411L87.1,83.9l4.367.245a33.47,33.47,0,0,0,5.577-.3c1.488-.379,6.558-1.141,6.558-1.141a2.541,2.541,0,0,1,2.01,2.133c.112,1.733-.533,2.261-.533,2.261l-1.52,1.711a60.966,60.966,0,0,1-9.842,1.6c-.885.037-2.09.069-3.444.107l-1.184.037c-2.533.064-5.332.123-7.374.171H78.9Z" transform="translate(25.409 87.279)"/>
              <path id="Path_5618" data-name="Path 5618" class="cls-4" d="M83.775,82.2l12.449,1.6s-5.086.773-6.569,1.141a34.68,34.68,0,0,1-5.577.3l-4.367-.245-1.125-.059c-2.1-.117-4.575-.261-7-.411h0c-3.652-.213-7.2-.432-9.192-.581-1.658-.128-4.8-.155-8.36-.123-2.527,0-5.257.053-7.795.107-3.732.069-7.054.16-8.675.208v-.208s3.54-.682,8.819-1.29c2.266-.261,4.846-.507,7.614-.677,1.775-.107,3.626-.187,5.508-.219,3.8-.069,7.608-.048,10.994,0,2.5.032,4.772.085,6.665.139l1.066.037c1.445.043,2.6.091,3.38.117A21.484,21.484,0,0,1,83.775,82.2Z" transform="translate(32.795 86.209)"/>
              <path id="Path_5619" data-name="Path 5619" class="cls-4" d="M67.294,97.249c1.221,4.457,2.9,17.307-8.4,24.072-.8.475-1.562.928-2.3,1.344a25.236,25.236,0,0,0,1.6-3.135c9.122-5.332,8.675-18.415,7.464-22.873a94.088,94.088,0,0,0-4.105-10.13l1.184-.037A107.011,107.011,0,0,1,67.294,97.249Z" transform="translate(52.929 91.283)"/>
              <path id="Path_5620" data-name="Path 5620" class="cls-4" d="M66.89,96.643c1.189,4.457,1.637,17.52-7.464,22.873a41.455,41.455,0,0,0,2.17-6.9c1.983-8.717-2.975-22.19-2.975-22.19H56.59c-.208-.864-.618-2.133-1.157-3.732,2.026-.048,4.841-.107,7.374-.171A97.1,97.1,0,0,1,66.89,96.643Z" transform="translate(51.696 91.313)"/>
              <path id="Path_5621" data-name="Path 5621" class="cls-4" d="M51.062,126.067a39.683,39.683,0,0,0,3.983-3.641h0c2.549-2.724,4.958-6.254,4.719-9.736,0,0-.757-19.423-2.133-24.27h6.1s4.958,13.473,2.975,22.19a41.457,41.457,0,0,1-2.17,6.9,25.238,25.238,0,0,1-1.6,3.135,10.9,10.9,0,0,1-1.312,1.845,26.828,26.828,0,0,1-6.6,3.53c-.357.139-.725.261-1.1.384a22.931,22.931,0,0,1-3.348.789l.091-.832.037-.32Z" transform="translate(46.565 93.325)"/>
              <path id="Path_5622" data-name="Path 5622" class="cls-4" d="M56.319,177.333l6.051.053,12.2.112h.938l3.268,13.212-.3,3.61-2.666,31.8-.9,10.759-.261,4.98,1.482.224-2.085,20.793c-.757-.123-1.216-.208-1.216-.208l-.341.363-.331.357-.624,3.076-29.719-2.442,4.356-.709,1.6-3.732-.208-.384L41.539,248l-.608-.325-5.438-2.943-1.386.448-2.97-3.2.533-.842-2.229-5.1h0l-.533-1.152c.405-.128,2.165-.72,4.415-1.567h0c1.93-.736,4.217-1.663,6.323-2.666h.048a30.392,30.392,0,0,0,4.159-2.335,16,16,0,0,0,5.955-8.013s.9-2.82.107-8.467a47.083,47.083,0,0,0-2.559-10.061s-2.266-6.318-5.385-13S36.309,177.8,36.309,177.8l-8.8-17.717s-7.064-18.346-10-26.925A68.223,68.223,0,0,1,14.737,118.5c-.357-3.823-.416-6.585-.416-6.585s.533-7.656.89-16.683-.592-13.59-.928-15.11c-.219-.986-1.109-5.118-1.722-7.928v-.144C12.231,70.573,12,69.5,12,69.5s-1.152-5.945-1.525-9.922c-.1-1.1-.187-2.2-.245-3.2,0-.224-.032-.437-.037-.629-.133-2.341-.165-4.095-.165-4.095s.624-16.278,2.842-27.725l1.466-5.971c1.978-6.153,3.46-10.615,6.3-13.441h0l2.133-1.669A15.659,15.659,0,0,1,29.639.968c9.954-.741,21.1,5.8,21.1,5.8s.778.224,2.063,1.989a.16.16,0,0,0,.037.053A18.93,18.93,0,0,1,53.9,10.464L66.4,49.155c4.457,10.509,8.531,12.375,8.531,12.375L94.92,76.512s14.321,9.864,4.676,29.937c-10.663,22.238-1.861,38.777-1.861,38.777l7.955,18.8s.65,1.306,1.631,3.322l-1.066-.037c-1.893-.053-4.169-.107-6.665-.139-3.386-.048-7.192-.069-10.994,0-1.882.032-3.732.112-5.508.219-2.767.171-5.332.416-7.614.677-5.278.608-8.819,1.29-8.819,1.29v.208l-1.066.027s-9.544,1.157-11.847,1.749-1.189,3.865-1.189,3.865l2.49,2.133Z" transform="translate(3.667 0.754)"/>
              <path id="Path_5623" data-name="Path 5623" class="cls-4" d="M58.174,90.309H54.106l-.192-.08,1.456-3.567v-.037h1.647C57.556,88.166,57.966,89.445,58.174,90.309Z" transform="translate(50.089 91.426)"/>
              <path id="Path_5624" data-name="Path 5624" class="cls-4" d="M59.689,112.731c.24,3.482-2.17,7.011-4.718,9.736h0a39.685,39.685,0,0,1-3.983,3.641l-.325-.032.219-2.09,1.184-11.132,1.749-15.8,3.54-8.68.192.08C58.932,93.308,59.689,112.731,59.689,112.731Z" transform="translate(46.65 93.273)"/>
              <path id="Path_5625" data-name="Path 5625" class="cls-4" d="M62.342,86.625v.037l-1.456,3.567-3.54,8.68L55.6,114.7,54.4,125.834l-.219,2.09-.037.32-.091.832-.181,1.685h0v.251l-2.133,19.807-1.328.315-2.666.624-.427.1,3.977-34.49,2.133-18.25,5.673-12.439,2.085-.043Z" transform="translate(43.117 91.426)"/>
              <path id="Path_5626" data-name="Path 5626" class="cls-4" d="M65.312,86.656,59.639,99.095l-2.111,18.25-3.988,34.49-10.173-.368-.448-.075-1.482-.224.261-4.98.9-10.759,2.66-31.8.3-3.61L42.29,86.81l.187-.048,7.592.043,5.593.032Z" transform="translate(36.89 91.458)"/>
              <path id="Path_5627" data-name="Path 5627" class="cls-4" d="M53.228,137.271s.97.629-3.082,1.706a1.008,1.008,0,0,1-.155,1.194,2.485,2.485,0,0,1-1.114.624,7.969,7.969,0,0,1-1.727.3h-.123l-.448-8.755v-.16l2.346-.89.267-2.842c.405-.3.181-.533.181-.533l.629.219.192,5.241.069,1.775,2.522-.666Z" transform="translate(42.33 135.102)"/>
              <path id="Path_5628" data-name="Path 5628" class="cls-4" d="M51.063,117.977l-2,20.991a5.537,5.537,0,0,1-2.367.73l1.733-21v-.1Z" transform="translate(42.454 124.591)"/>
              <path id="Path_5629" data-name="Path 5629" class="cls-4" d="M49.189,128.178l-.267,2.842-2.346.89.245-3A5.537,5.537,0,0,0,49.189,128.178Z" transform="translate(42.328 135.381)"/>
              <path id="Path_5630" data-name="Path 5630" class="cls-4" d="M54.289,118.467v.1l-1.733,21-.24.037-.405.059c-3.018.395-8.381-.368-10.781-.762L43.215,118.1l.448.075,10.173.368Z" transform="translate(36.567 124.725)"/>
              <path id="Path_5631" data-name="Path 5631" class="cls-4" d="M54.311,132.018l.448,8.755a55.526,55.526,0,0,1-8.92-.309,48.125,48.125,0,0,1-6.158-.981l-.411-1.066,1.3-6.435.325-.117h-.3v-.075l.624.053.331.027V130.8l1.381-.778.176-1.807c2.4.395,7.763,1.157,10.781.762l.405-.059.24-.037-.245,3Z" transform="translate(34.599 135.422)"/>
              <path id="Path_5632" data-name="Path 5632" class="cls-4" d="M40.231,129.989l-.325.117.021-.117Z" transform="translate(35.27 137.297)"/>
              <path id="Path_5633" data-name="Path 5633" class="cls-4" d="M50.594,129.989v.117l-12.375,4.457a6.4,6.4,0,0,0-2.666,3.2l-3.652,8.8-2.079-.6s3.05-8.317,4.457-10.461a5.757,5.757,0,0,1,3.05-2.543l8.968-2.97Z" transform="translate(24.603 137.297)"/>
              <path id="Path_5634" data-name="Path 5634" class="cls-4" d="M36.215,138.551l-1.685,7.827a1.85,1.85,0,0,0-.794,1.285,3.866,3.866,0,0,1-.421,1.738,4.473,4.473,0,0,0-.411,1.568,2.453,2.453,0,0,1-1.258,1.983h0a2.943,2.943,0,0,1-2.335.128s-2.751-1.221-2.783-2.6.2-1.722.5-2.037,1.285-.89,1.4-1.546.187-1.189.6-1.445,1.386-.634,1.6-1.317,3.38-5.78,3.38-5.78l.08-.331Z" transform="translate(21.116 145.796)"/>
              <path id="Path_5635" data-name="Path 5635" class="cls-4" d="M35.287,138.637l-.08.331s-3.156,5.086-3.38,5.78-1.21,1.066-1.6,1.317-.491.8-.6,1.445-1.1,1.232-1.4,1.546-.533.666-.5,2.037,2.783,2.6,2.783,2.6a2.943,2.943,0,0,0,2.335-.128h0l.091.155a2.089,2.089,0,0,1-.65.586,2.729,2.729,0,0,1-1.546,0,.677.677,0,0,0-.778.2c-.165.208-1.04,0-1.189-.219a4.717,4.717,0,0,0-1.354-.533,7.369,7.369,0,0,1-1.967-2.8c-.533-1.573,1.759-4.361,1.759-4.361l5.993-9.149,2.031,1.194Z" transform="translate(19.906 145.182)"/>
              <path id="Path_5636" data-name="Path 5636" class="cls-4" d="M15.49,18.762,14,24.733c-2.218,11.474-2.842,27.751-2.842,27.751s.032,1.754.165,4.095a3.745,3.745,0,0,0,.037.629c.059,1.018.144,2.133.245,3.2.373,3.977,1.52,9.922,1.52,9.922s.229,1.066.56,2.554v.144c.613,2.81,1.5,6.931,1.722,7.928.336,1.52,1.306,6.089.928,15.11s-.89,16.683-.89,16.683.059,2.762.416,6.585a68.223,68.223,0,0,0,2.778,14.662c2.932,8.579,10,26.925,10,26.925l8.824,17.738s2.527,4.265,5.646,10.957,5.385,13,5.385,13a47.083,47.083,0,0,1,2.559,10.061c.789,5.646-.107,8.467-.107,8.467a16,16,0,0,1-5.939,7.955,30.388,30.388,0,0,1-4.159,2.335H40.8c-2.133,1.018-4.393,1.946-6.323,2.666h0c-2.25.848-4.009,1.44-4.415,1.567a.374.374,0,0,0-.085.032H27.843l-1.066-1.525s10.365-1.743,15.638-6.307,5.641-5.646,5.641-5.646a16.47,16.47,0,0,0,.9-8.435A62.5,62.5,0,0,0,44.345,198.9c-2.042-4.825-6.611-14.886-6.611-14.886l-6.083-11.3-7.806-16.9s-6.163-17.061-6.569-18.757-3.9-14.534-3.977-20.538S14.12,98.1,14.12,98.1s.149-11.66-.411-13.74-1.749-7.464-2-8.477S9.662,63.516,9.662,63.516,8.6,53.967,9.055,51.786c0,0,.416-15.462,2.724-27.485l1.3-5.534c.224-.784.459-1.536.709-2.234,1.85-5.182,3.386-9.064,5.7-11.73S25.044.538,30.221.16c10.247-.741,19.887,5.78,19.887,5.78s1.557.272,3.844,3.695c-1.285-1.765-2.063-1.989-2.063-1.989s-11.143-6.563-21.1-5.822a15.5,15.5,0,0,0-6.846,1.871L21.813,5.363h0C18.95,8.195,17.468,12.657,15.49,18.762Z" transform="translate(2.515 -0.101)"/>
              <path id="Path_5637" data-name="Path 5637" class="cls-4" d="M54.23,211.427a16.47,16.47,0,0,1-.9,8.435s-.368,1.066-5.641,5.646-15.622,6.307-15.622,6.307l1.066,1.525s-.533-.075-1.354-.229c0,0-2.954-7.272-5.433-8.808a6.787,6.787,0,0,0-4.671-.752l5.332-1.248-3.62-31.275-4.409-15.654-1.44.2-7.123.341h0l-1.2,7.822c-.053-.7-.08-1.066-.08-1.066a11.436,11.436,0,0,1-.1-5.646,75.416,75.416,0,0,0,1.29-19.311c-.5-9.309-1.392-17.434-1.392-17.434S7.946,128.2,6.357,110.376s-2.57-27.341-2.378-31.9,2.5-18.042,2.5-18.042S12.2,35.27,14.21,23.886A46.385,46.385,0,0,1,22.4,4.767l2.357-2.394c-2.314,2.692-3.849,6.574-5.7,11.756-.251.7-.485,1.45-.709,2.234l-1.3,5.561c-2.309,12-2.724,27.485-2.724,27.485-.459,2.133.608,11.73.608,11.73S16.716,72.506,16.978,73.5s1.445,6.4,2,8.477.411,13.74.411,13.74-.89,12.407-.821,18.421,3.567,18.869,3.977,20.537,6.569,18.757,6.569,18.757l7.806,16.9,6.089,11.34s4.569,10.055,6.611,14.886A62.382,62.382,0,0,1,54.23,211.427Z" transform="translate(-2.759 2.303)"/>
              <path id="Path_5638" data-name="Path 5638" class="cls-4" d="M33.658,126.437l.208.384-1.6,3.732-4.345.682a21.862,21.862,0,0,1-4.75,1.12l1.631-3.865.6.1,7.726-1.877Z" transform="translate(17.568 133.54)"/>
              <path id="Path_5639" data-name="Path 5639" class="cls-4" d="M29.642,121.142l6.03,11.2-.533.283-7.726,1.887-.6-.1s-3.615-8.531-4.409-10.055a5.385,5.385,0,0,0-.72-1.125c-.261-.283-.368-.208-.368-.208a.181.181,0,0,0-.053-.032h1l6.483-1.637.288-.533Z" transform="translate(15.554 127.6)"/>
              <path id="Path_5640" data-name="Path 5640" class="cls-4" d="M39.693,132.479l-.288.533-6.457,1.626h-1a73.476,73.476,0,0,1-8.531-5.662c-3.4-2.719-5.673-8.36-7.091-11.543l-.384-.837a21.78,21.78,0,0,0-4.756-5.8l1.951-.677h.043l.853-.2a6.787,6.787,0,0,1,4.628.736c2.479,1.535,5.433,8.808,5.433,8.808l1.7,2.431.645,2.778,1.685,2.57,1.781-.491,2.97,3.2,1.386-.448Z" transform="translate(4.895 115.938)"/>
              <path id="Path_5641" data-name="Path 5641" class="cls-4" d="M27.529,128.342,25.9,132.207l-5.054-4.457-.251-.251.251-.938Z" transform="translate(14.841 133.671)"/>
              <path id="Path_5642" data-name="Path 5642" class="cls-4" d="M28.431,133.171l-6.659-1.781-2.031-4.655h0s3.364-4.308,3.364-4.505l.219-.235a5.385,5.385,0,0,1,.7,1.141C24.816,124.656,28.431,133.171,28.431,133.171Z" transform="translate(13.939 128.842)"/>
              <path id="Path_5643" data-name="Path 5643" class="cls-4" d="M41.27,133.252H34.632L6.108,129.637v-.005l-.048-4.057L33,128.794l2.97-.251.251.251Z" transform="translate(-0.532 132.627)"/>
              <path id="Path_5644" data-name="Path 5644" class="cls-4" d="M34.2,134.346l-.219.235c0,.2-3.364,4.505-3.364,4.505h0L26.857,137.2a16.528,16.528,0,0,1-4.207-3.119,49.446,49.446,0,0,1-8.424-12.727c-2.724-5.865-4.713-6.222-4.713-6.222l-.08-.805,1.743-1.066,1.759-1.066-.5-1.706.6-.176a21.78,21.78,0,0,1,4.756,5.8l.384.837c1.418,3.2,3.695,8.824,7.091,11.543a73.479,73.479,0,0,0,8.531,5.662.182.182,0,0,1,.053.032S33.943,134.063,34.2,134.346Z" transform="translate(3.037 116.487)"/>
              <path id="Path_5645" data-name="Path 5645" class="cls-4" d="M35.882,136.594l2.058,4.655-.251.938-2.97.251-26.941-3.2L6.84,138.4h0L4.468,120.807s-.3-5.145,2.079-7.816h.219l.421,6.259,2.575,6.734h4.111l1.536-7.086-.6-6.222s1.989.336,4.713,6.222a49.445,49.445,0,0,0,8.419,12.732,16.528,16.528,0,0,0,4.207,3.119Z" transform="translate(-2.229 118.984)"/>
              <path id="Path_5646" data-name="Path 5646" class="cls-4" d="M20.715,115.153l2.229,5.1-.549.842-1.781.49-1.685-2.57-.645-2.778h.005l2.4-1.082Z" transform="translate(12.399 121.604)"/>
              <path id="Path_5647" data-name="Path 5647" class="cls-4" d="M21.04,114.706l.533,1.152-2.4,1.066h0l-1.7-2.431c.848.155,1.354.229,1.354.229h2.133A.372.372,0,0,1,21.04,114.706Z" transform="translate(11.536 120.905)"/>
              <path id="Path_5648" data-name="Path 5648" class="cls-4" d="M16.612,102.1l3.615,31.291L14.9,134.636a6.4,6.4,0,0,0-.853.2H14l-1.951.677-.6.176-.043-.176,3.658-12.727-1.429-20.207-3.274-15.59.411-.341,1.44-.2Z" transform="translate(4.021 91.234)"/>
              <path id="Path_5649" data-name="Path 5649" class="cls-4" d="M15.15,102.308l1.429,20.207-3.658,12.727.043.176.5,1.706L11.7,138.217,9.957,139.3l-.336-3.524v-.005l3.631-12.519-1.621-20.25L8.939,89.187l.005-.005,2.916-2.474Z" transform="translate(2.513 91.513)"/>
              <path id="Path_5650" data-name="Path 5650" class="cls-4" d="M15.723,101.735l1.621,20.25L13.713,134.5v.005l.336,3.524.08.805.6,6.222L13.2,152.145H9.085L6.51,145.412l-.421-6.259-.075-1.077-.944-2.719v-1.338l3.567-12.231L6.857,101.8h.005l1.354-6.286,1.615-7.5,3.2-.1-.005.005Z" transform="translate(-1.579 92.785)"/>
              <path id="Path_5651" data-name="Path 5651" class="cls-4" d="M14.22,86.542l-.411.341-2.916,2.474-3.2.1L7.1,86.883Z" transform="translate(0.565 91.338)"/>
              <path id="Path_5652" data-name="Path 5652" class="cls-4" d="M7.708,86.708,8.3,89.283l-1.6,7.5h0c-.08-.922-.139-1.685-.181-2.245h0l1.2-7.822Z" transform="translate(-0.047 91.513)"/>
              <path id="Path_5653" data-name="Path 5653" class="cls-4" d="M7.478,130.07h0a16.084,16.084,0,0,1-2.708-3.732h0l1.717-1.178h0l.938.837Z" transform="translate(-1.897 132.188)"/>
              <path id="Path_5654" data-name="Path 5654" class="cls-4" d="M5.586,122.6l2.373,17.594-1.717,1.168h0c-.107-.2-.16-.315-.16-.315S4.3,131.538,3.48,122.7s3.391-11.73,3.391-11.73l.944,2.724.075,1.066H7.67C5.287,117.452,5.586,122.6,5.586,122.6Z" transform="translate(-3.374 117.177)"/>
              <path id="Path_5655" data-name="Path 5655" class="cls-16" d="M94.262,158.707H90.412s2.079,2.575,13.462-.395,12.385-5.945,26.152-9.8l16.528-5.742s7.427-.89,10.13-4.559,4.553-10.2,4.159-16.528c-.384-6.158-1.418-9.885-8.376-12.359-.208-.08-.421-.149-.64-.224-7.528-2.479-21.886-3.86-39.715-2.181s-32.886,2.975-32.886,2.975a28.6,28.6,0,0,1-3.9-.395c-.858-.261-6.462.331-6.462.331l-8.765.336-9.6-.075h0v.634" transform="translate(46.483 112.109)"/>
              <path id="Path_5656" data-name="Path 5656" class="cls-7" d="M31.909,146.866l3.631-8.808a6.43,6.43,0,0,1,2.666-3.2h0l12.7-4.58H46.3l-8.989,2.975a5.79,5.79,0,0,0-3.044,2.543c-1.408,2.138-4.457,10.455-4.457,10.455Z" transform="translate(24.595 137.604)"/>
              <path id="Path_5657" data-name="Path 5657" class="cls-7" d="M35.221,139.271s-3.156,5.086-3.38,5.774-1.2,1.066-1.6,1.322-.485.794-.6,1.445-1.066,1.226-1.392,1.541-.533.672-.5,2.047,2.788,2.6,2.788,2.6a2.954,2.954,0,0,0,2.341-.128,2.437,2.437,0,0,0,1.258-1.989,4.537,4.537,0,0,1,.411-1.557,3.881,3.881,0,0,0,.427-1.743,1.85,1.85,0,0,1,.794-1.285l1.685-7.827-2.181-.533-2.031-1.194L27.25,146.89s-2.319,2.778-1.781,4.377a7.465,7.465,0,0,0,1.967,2.8s1.21.277,1.36.533,1.018.427,1.189.224a.677.677,0,0,1,.778-.2,2.708,2.708,0,0,0,1.541,0,2.245,2.245,0,0,0,.762-.725" transform="translate(19.914 145.497)"/>
              <path id="Path_5658" data-name="Path 5658" class="cls-7" d="M18.772,2.819c-.1.091-.2.187-.3.288h0c-2.836,2.82-4.313,7.288-6.291,13.388-.032.091-.064.181-.091.277" transform="translate(5.849 2.774)"/>
              <path id="Path_5659" data-name="Path 5659" class="cls-7" d="M77.687,143.717c-.5-1.034-.8-1.658-.8-1.658L68.426,123.27s-7.7-14.331-1.066-34.32h0c.107-.347.224-.682.347-1.029h0c.448-1.269.954-2.554,1.525-3.865,9.8-22.51-4.308-30.833-4.308-30.833l-4.265-3.007L45.617,39.633S44.3,39.019,42.349,36.2a47.164,47.164,0,0,1-5.2-10.77c0-.064-.048-1.568-.069-1.637" transform="translate(32.283 24.966)"/>
              <line id="Line_700" data-name="Line 700" class="cls-7" x1="0.011" y1="0.133" transform="translate(97.649 220.01)"/>
              <path id="Path_5660" data-name="Path 5660" class="cls-7" d="M60.754,86.824a92.438,92.438,0,0,1,4.111,10.13c1.184,4.457,1.631,17.52-7.491,22.873" transform="translate(53.748 91.637)"/>
              <path id="Path_5661" data-name="Path 5661" class="cls-7" d="M62.743,86.8A96.223,96.223,0,0,1,67.3,97.539c1.226,4.457,2.9,17.306-8.4,24.067-.794.48-1.562.928-2.293,1.344" transform="translate(52.943 91.606)"/>
              <path id="Path_5662" data-name="Path 5662" class="cls-7" d="M18.833,115.025s-.5-.069-1.354-.224" transform="translate(11.547 121.231)"/>
              <path id="Path_5663" data-name="Path 5663" class="cls-7" d="M24.772,2.674,22.41,5.068a46.385,46.385,0,0,0-8.189,19.119C12.205,35.559,6.469,60.73,6.469,60.73S4.181,74.2,3.989,78.746s.789,14.065,2.378,31.894,2.57,29.911,2.57,29.911.89,8.125,1.392,17.429A74.942,74.942,0,0,1,9.038,177.3a11.516,11.516,0,0,0,.1,5.657s.032.384.085,1.066h0c.037.56.1,1.317.176,2.245h0" transform="translate(-2.748 2.621)"/>
              <line id="Line_701" data-name="Line 701" class="cls-7" y1="0.005" transform="translate(12.156 227.901)"/>
              <path id="Path_5664" data-name="Path 5664" class="cls-7" d="M14.137,140.588l.6,6.222L13.2,153.9H9.093l-2.575-6.734-.491-7.336-.944-2.719v-1.338l3.562-12.231L6.864,103.544v-.011l-.048-.549,1.226-7.971v-.005l1.2-7.822,7.128-.347-.411.347-2.922,2.479,2.692,13.814,1.621,20.255-3.631,12.513v.005l.341,3.524Z" transform="translate(-1.565 91.653)"/>
              <path id="Path_5665" data-name="Path 5665" class="cls-7" d="M10.906,89.482l-3.2.1-.6-2.575" transform="translate(0.573 91.831)"/>
              <line id="Line_702" data-name="Line 702" class="cls-7" y1="13.782" x2="2.975" transform="translate(5.299 181.415)"/>
              <path id="Path_5666" data-name="Path 5666" class="cls-7" d="M11.345,87.008l3.29,15.6,1.434,20.207-3.663,12.727.538,1.877-1.759,1.093L9.446,139.6" transform="translate(3.05 91.831)"/>
              <line id="Line_703" data-name="Line 703" class="cls-7" x1="0.011" transform="translate(104.398 171.327)"/>
              <path id="Path_5667" data-name="Path 5667" class="cls-7" d="M56.59,90.634c-.208-.864-.618-2.133-1.157-3.732" transform="translate(51.696 91.719)"/>
              <path id="Path_5668" data-name="Path 5668" class="cls-7" d="M24.043,54.113h0l-5.7.64a3.092,3.092,0,0,1-3-2.01h0a31.057,31.057,0,0,1-.97-6.142v-.021c-.128-1.477-.187-2.6-.187-2.6l4.457-17.744a1.156,1.156,0,0,1,.075-.213h0" transform="translate(8.063 27.323)"/>
              <path id="Path_5669" data-name="Path 5669" class="cls-7" d="M18.4,30.034h0L14.768,43.475c.1,3.418,2.378,3.119,2.378,3.119s2.25-.139,4.905-.357h0" transform="translate(8.68 31.563)"/>
              <path id="Path_5670" data-name="Path 5670" class="cls-7" d="M15.312,38.447s2.474-.149,4.207-.347a1.557,1.557,0,0,0,1.264-1.066" transform="translate(9.255 38.968)"/>
              <line id="Line_704" data-name="Line 704" class="cls-7" x1="0.48" y2="0.507" transform="translate(59.527 178.701)"/>
              <path id="Path_5671" data-name="Path 5671" class="cls-7" d="M94.3,159H90.452s2.079,2.575,13.473-.395,12.38-5.939,26.125-9.8l16.528-5.742s7.432-.9,10.1-4.559,4.559-10.2,4.164-16.528-1.488-10.13-9.016-12.583-21.86-3.86-39.715-2.175-32.886,2.97-32.886,2.97a29.508,29.508,0,0,1-3.9-.395c-.858-.261-6.467.331-6.467.331l-8.765.336-9.6-.075v.634" transform="translate(46.48 112.43)"/>
              <path id="Path_5672" data-name="Path 5672" class="cls-7" d="M94.769,144.7s-.075-.965,1.711-9.8-2.81-12.556-2.81-12.556-1.429-2-6.851-4.532S61.894,114,61.894,114s9.149,5.284,15.462,12.86,11.692,13.825,11.692,13.825l2.527,4.383-.112,3.562S95.068,146.7,94.769,144.7Z" transform="translate(58.531 120.384)"/>
              <path id="Path_5673" data-name="Path 5673" class="cls-7" d="M50.507,109.137s9.752.794,23.433,10.013" transform="translate(46.485 115.24)"/>
              <line id="Line_705" data-name="Line 705" class="cls-7" x2="44.023" y2="2.362" transform="translate(92.909 269.083)"/>
              <path id="Path_5674" data-name="Path 5674" class="cls-7" d="M42.385,151.79l10.173.368,3.087-.725,1.333-.315,2.133-19.807v-.251l.187-1.685.085-.832.256-2.41L60.832,115l1.749-15.8,5-12.263" transform="translate(37.893 91.754)"/>
              <path id="Path_5675" data-name="Path 5675" class="cls-7" d="M47.328,152.152l3.988-34.49,2.111-18.25,5.684-12.471" transform="translate(43.123 91.76)"/>
              <path id="Path_5676" data-name="Path 5676" class="cls-7" d="M95.74,124.53l4.233-28.791-2.1-11.484-18.016-.672-2.351-2.271s-.906-3.327,1.429-3.78,14.14-.581,14.14-.581,22.34.427,23.843.149,23.8,1.525,23.8,1.525a2.569,2.569,0,0,1,1.871,2.266c.005,1.733-.7,2.229-.7,2.229l-1.626,1.6a28.307,28.307,0,0,1-4.2,0c-4.015-.1-14.017,0-14.017,0L110.8,84.271H97.872" transform="translate(74.862 81.192)"/>
              <path id="Path_5677" data-name="Path 5677" class="cls-7" d="M105.93,80.717,99.1,91.85,92.563,122.6s7.091,2.378,13.073,10.7a16.042,16.042,0,0,1,1.6,2.49l.784,1.066" transform="translate(90.973 85.177)"/>
              <path id="Path_5678" data-name="Path 5678" class="cls-7" d="M48.565,119l-1.978,24,2.346-.89L51.2,118.278" transform="translate(42.339 124.909)"/>
              <path id="Path_5679" data-name="Path 5679" class="cls-7" d="M50.608,136.181,70.431,134.3s8.531-.7,10.007-1.093S92.323,128.8,92.323,128.8s11.687-6.451,22.393-7.464,14.134-.7,20.415,1.066l5.748-30.428L147.138,80.5" transform="translate(46.592 84.949)"/>
              <path id="Path_5680" data-name="Path 5680" class="cls-7" d="M82.753,91.251l7.592.043,5.593.027,11.73-.219,2.479-.048h.336c2.026-.048,4.841-.107,7.374-.171l1.194-.069c1.354-.037,2.565-.069,3.45-.107a60.335,60.335,0,0,0,9.837-1.6l1.525-1.711s.666-.533.56-2.266S132.412,83,132.412,83s-5.086.773-6.574,1.141a34.7,34.7,0,0,1-5.577.3l-4.367-.245-1.12-.059c-2.1-.117-4.58-.261-7-.411h0c-3.652-.213-7.2-.432-9.192-.581-1.658-.133-4.8-.155-8.36-.128-2.527,0-5.252.053-7.79.107-5.289.1-9.736.24-9.736.24s-9.544,1.152-11.852,1.749-1.189,3.86-1.189,3.86l2.49,2.133h1.237l6.051.053,12.2.112h.938l3.268,13.222-.3,3.6-2.666,31.8-.9,10.759-.261,4.98,1.488.219-2.266,22.585-1.381.778v1.066l-.331-.032-30.342-2.5a21.892,21.892,0,0,1-4.756,1.12H37.477L8.952,175.256a16.427,16.427,0,0,1-2.714-3.732c-.107-.2-.16-.315-.16-.315s-1.77-9.485-2.591-18.3,3.4-11.73,3.4-11.73" transform="translate(-3.365 87.589)"/>
              <path id="Path_5681" data-name="Path 5681" class="cls-7" d="M10.568,86.944l1.44-.2L16.417,102.4l3.615,31.3-5.326,1.248-.848.2" transform="translate(4.237 91.549)"/>
              <path id="Path_5682" data-name="Path 5682" class="cls-7" d="M12.144,110.433h.048a5.481,5.481,0,0,1,.848-.2,6.723,6.723,0,0,1,4.628.736c2.479,1.535,5.433,8.808,5.433,8.808l1.7,2.431.645,2.772,1.7,2.565,1.781-.491,2.975,3.2,1.381-.448,6.046,3.268,6.238,11.591-1.6,3.732-4.356.714" transform="translate(5.903 116.263)"/>
              <path id="Path_5683" data-name="Path 5683" class="cls-7" d="M13.147,110.264l-1.951.677a21.682,21.682,0,0,1,4.756,5.8c.117.256.251.533.384.837,1.424,3.2,3.7,8.824,7.091,11.543a74.3,74.3,0,0,0,8.568,5.689s.3-.192,1.066,1.338,4.431,10.066,4.431,10.066l-1.631,3.865-5.049-4.468" transform="translate(4.9 116.432)"/>
              <line id="Line_706" data-name="Line 706" class="cls-7" y1="1.882" x2="7.726" transform="translate(42.989 260.851)"/>
              <line id="Line_707" data-name="Line 707" class="cls-7" y1="1.631" x2="6.489" transform="translate(37.838 249.558)"/>
              <path id="Path_5684" data-name="Path 5684" class="cls-7" d="M6.544,113.284c-2.378,2.666-2.079,7.822-2.079,7.822L6.843,138.7l.938.842,26.935,3.2,2.975-.251.251-.938L35.906,136.9l-3.759-1.882a16.465,16.465,0,0,1-4.207-3.124,49.384,49.384,0,0,1-8.424-12.727c-2.724-5.9-4.713-6.2-4.713-6.2" transform="translate(-2.232 119.288)"/>
              <path id="Path_5685" data-name="Path 5685" class="cls-7" d="M23.1,122.408c0,.2-3.364,4.511-3.364,4.511" transform="translate(13.939 129.278)"/>
              <line id="Line_708" data-name="Line 708" class="cls-7" x1="6.681" y1="1.781" transform="translate(35.711 260.851)"/>
              <line id="Line_709" data-name="Line 709" class="cls-7" x1="0.048" y1="4.063" transform="translate(5.55 258.819)"/>
              <line id="Line_710" data-name="Line 710" class="cls-7" y1="1.184" x2="1.717" transform="translate(2.889 257.977)"/>
              <path id="Path_5686" data-name="Path 5686" class="cls-7" d="M55.444,109.6s-11.2,2.964-15.462,6.137a27.858,27.858,0,0,1-10.5,4.83" transform="translate(24.247 115.725)"/>
              <path id="Path_5687" data-name="Path 5687" class="cls-7" d="M18.294,116.542l2.431-1.088,2.223,5.1-.544.842" transform="translate(12.41 121.922)"/>
              <path id="Path_5688" data-name="Path 5688" class="cls-7" d="M21.95,124.636l.443.6s1.338-.053,1.434-.6,1.536-1.93,2.282-1.685,2.724.491,3.119-.027a7.069,7.069,0,0,1,1.338-1.066c.24-.165.491-.325.73-.464a3.087,3.087,0,0,1,1.1-.459c.6,0,2.479.65,2.831.592s2.223-2.031,2.719-2.031a3.425,3.425,0,0,0,1.882-.741,1.9,1.9,0,0,0-.347-1.882c-.6-.645-3.567-4.607-3.567-4.607s-.634-.576-2.623,0-13.718,5.721-13.718,5.721v.784Z" transform="translate(13.761 118.279)"/>
              <path id="Path_5689" data-name="Path 5689" class="cls-7" d="M20.15,117.923l13.073-4.8,2.922,3.689" transform="translate(14.372 119.452)"/>
              <path id="Path_5690" data-name="Path 5690" class="cls-7" d="M37.568,84.21s3.54-.682,8.819-1.285c2.266-.261,4.852-.507,7.614-.677,1.775-.112,3.626-.187,5.508-.224,3.807-.064,7.608-.048,10.994,0,2.5.037,4.772.091,6.665.144l1.066.037c1.445.043,2.607.085,3.386.117s1.456.091,2.181.187l12.449,1.6" transform="translate(32.798 86.514)"/>
              <path id="Path_5691" data-name="Path 5691" class="cls-7" d="M22.607,60.324h0a14.88,14.88,0,0,0-.08-2.309c-.107-1.114-.293-2.383-.533-3.705-.485-2.719-1.168-5.641-1.717-7.752-.224-.853-.421-1.6-.581-2.1a37.759,37.759,0,0,1-1.12-7.2c0-1.85-.1-3.546-.229-5.065h0c-.133-1.525-.309-2.884-.533-4.068a29.889,29.889,0,0,0-1.445-5.865" transform="translate(10.374 23.34)"/>
              <path id="Path_5692" data-name="Path 5692" class="cls-7" d="M21.621,23.627h0a29.579,29.579,0,0,1,4.185,6h0a90.344,90.344,0,0,1,6.931,15.9s2.277,9.6-1.066,14.241c0,0,4.724-.2,7.7,1.066,2.81,1.194,13.862,5.086,16.587,5.444a1.717,1.717,0,0,0,.379.032" transform="translate(15.929 24.785)"/>
              <path id="Path_5693" data-name="Path 5693" class="cls-7" d="M34.516,49.877a19.413,19.413,0,0,0,4.83-5.289c.037-.064.069-.128.1-.2a5.358,5.358,0,0,0,.65-2.309c.075-3.732.363-7.107.363-7.107" transform="translate(29.57 36.789)"/>
              <path id="Path_5694" data-name="Path 5694" class="cls-7" d="M33.366,25.311A12.482,12.482,0,0,1,38.7,34.374" transform="translate(28.353 26.566)"/>
              <path id="Path_5695" data-name="Path 5695" class="cls-7" d="M34.634,86.744s-6.142.89-7.032.986-.794.7-.794.7c4.852.293,5.646,2.97,7.331,4.948s3.663,17.632,2.868,27.437a51.072,51.072,0,0,1-4.265,16.837c7.326,1.786,23.459-3.466,23.459-3.466L51.935,126.4a16.421,16.421,0,0,1-2-6.867l-.757-11.895c-.789-13.665-5.641-17.131-5.641-17.131a51.913,51.913,0,0,1-6.19-3.268A3.348,3.348,0,0,0,34.634,86.744Z" transform="translate(21.412 91.45)"/>
              <path id="Path_5696" data-name="Path 5696" class="cls-7" d="M51.048,126.365a32.759,32.759,0,0,0,3.567-2.666,4.989,4.989,0,0,0,.565-.682c1.029-1.472,4.8-7.043,4.58-10.045,0,0-.757-19.423-2.133-24.27h6.11s4.953,13.473,2.97,22.19a41.454,41.454,0,0,1-2.17,6.931,25.185,25.185,0,0,1-1.567,3.13,11,11,0,0,1-1.317,1.85,26.83,26.83,0,0,1-6.6,3.53c-.357.139-.725.261-1.1.379a22.2,22.2,0,0,1-3.343.794" transform="translate(46.601 93.624)"/>
              <path id="Path_5697" data-name="Path 5697" class="cls-7" d="M57.62,88.716h6.11s4.953,13.473,2.97,22.19a41.454,41.454,0,0,1-2.17,6.931,25.188,25.188,0,0,1-1.568,3.13,10.993,10.993,0,0,1-1.317,1.85,26.828,26.828,0,0,1-6.6,3.53c-.357.139-.725.261-1.1.379a22.2,22.2,0,0,1-3.343.794" transform="translate(46.592 93.637)"/>
              <path id="Path_5698" data-name="Path 5698" class="cls-7" d="M31.1,113.137s-3-1.381-2.708-3.316" transform="translate(23.067 115.963)"/>
              <path id="Path_5699" data-name="Path 5699" class="cls-7" d="M36.663,86.648s-8.168.986-9.064,1.066-.794.7-.794.7c4.852.293,5.646,2.97,7.331,4.948S37.8,110.992,37,120.8a51.072,51.072,0,0,1-4.265,16.837c7.326,1.786,23.459-3.466,23.459-3.466" transform="translate(21.409 91.45)"/>
              <path id="Path_5700" data-name="Path 5700" class="cls-7" d="M57.62,88.716h6.11s4.953,13.473,2.97,22.19a41.454,41.454,0,0,1-2.17,6.931,25.188,25.188,0,0,1-1.568,3.13,10.993,10.993,0,0,1-1.317,1.85,26.828,26.828,0,0,1-6.6,3.53c-.357.139-.725.261-1.1.379a22.2,22.2,0,0,1-3.343.794" transform="translate(46.592 93.637)"/>
              <path id="Path_5701" data-name="Path 5701" class="cls-7" d="M31.1,113.137s-3-1.381-2.708-3.316" transform="translate(23.067 115.963)"/>
              <line id="Line_711" data-name="Line 711" class="cls-7" x1="0.005" transform="translate(27.036 60.829)"/>
              <path id="Path_5702" data-name="Path 5702" class="cls-7" d="M27.194,25.745c-.357-.133-.693-.272-1.029-.4h0c-4.207-1.658-6.4-2.6-7.624-3.124a5.248,5.248,0,0,0-1.834-.6c-.139,0-.229.48-.283,1.285,0,.288-.032.613-.048.986h0c-.053,1.749,0,4.265.043,6.755h0c.091,3.359.235,6.574.267,7.5l.043.768h0L17,44.166a19.866,19.866,0,0,0,.986,4.628c.384.981,1,2.629,1.7,4.521.213.576.443,1.178.672,1.791h0c.453,1.2.922,2.447,1.386,3.636h0c.3.773.586,1.525.874,2.223h0A20.026,20.026,0,0,0,24.81,65.53c.992.7,3.268-1.978,12.385-3.663a26.125,26.125,0,0,1,16.24,1.983,2.348,2.348,0,0,1,.288.117c1.3.618,5.284,2.97,7.683,4.2l.453.235a1.306,1.306,0,0,0,.272.107,1.941,1.941,0,0,0,2.522-1.8c.187-5.118-3.327-13.329-4.985-17.648q-.149-.416-.288-.768A42.535,42.535,0,0,1,57.2,40.674C56.512,30.666,54.726,27.99,54.332,27.5s-1,.592-2.975,1.679a6.739,6.739,0,0,1-1.733.634h-.048a14.364,14.364,0,0,1-2.4.32,33.365,33.365,0,0,1-5.129-.155c-1.008-.1-1.871-.2-2.772-.347-2.255-.373-4.687-1.066-9.858-3.071L27.2,25.75h0" transform="translate(10.357 22.666)"/>
              <path id="Path_5703" data-name="Path 5703" class="cls-7" d="M15.506,19.062l-1.472,5.971c-2.218,11.479-2.842,27.757-2.842,27.757s.032,1.754.171,4.095a4.4,4.4,0,0,0,.032.629c.059,1.018.144,2.133.245,3.2.373,3.977,1.52,9.917,1.52,9.917s.235,1.066.56,2.559v.139c.608,2.815,1.5,6.931,1.722,7.928.331,1.525,1.3,6.094.928,15.115s-.89,16.683-.89,16.683.059,2.762.416,6.585a67.775,67.775,0,0,0,2.772,14.657c2.938,8.584,10,26.93,10,26.93l8.8,17.712s2.522,4.265,5.646,10.962,5.38,13,5.38,13a46.918,46.918,0,0,1,2.565,10.061c.784,5.641-.107,8.467-.107,8.467a16,16,0,0,1-5.945,7.949,29.286,29.286,0,0,1-4.159,2.335.139.139,0,0,0-.048.027c-2.133,1.013-4.393,1.941-6.323,2.666h0c-2.575.965-4.505,1.6-4.505,1.6H27.854l-1.066-1.482s10.365-1.749,15.638-6.313,5.646-5.646,5.646-5.646a16.422,16.422,0,0,0,.89-8.429,62.187,62.187,0,0,0-4.607-14.891c-2.047-4.825-6.606-14.891-6.606-14.891L31.66,173.018l-7.8-16.9S17.7,139.055,17.286,137.36s-3.9-14.523-3.977-20.537S14.13,98.4,14.13,98.4s.149-11.66-.411-13.74-1.749-7.464-2-8.477S9.673,63.821,9.673,63.821s-1.066-9.554-.608-11.7c0,0,.416-15.488,2.724-27.485l1.3-5.566c.224-.784.464-1.53.714-2.234,1.845-5.182,3.38-9.064,5.7-11.73S25.06.838,30.237.459C40.479-.3,50.119,6.212,50.119,6.212s1.557.277,3.844,3.7A.067.067,0,0,0,54,9.966c.32.485.661,1.066,1,1.669" transform="translate(2.526 0.212)"/>
              <path id="Path_5704" data-name="Path 5704" class="cls-7" d="M15.193,4.809,17.358,3.14A15.52,15.52,0,0,1,24.2,1.269c9.954-.746,21.1,5.79,21.1,5.79s.778.229,2.058,1.994a.067.067,0,0,0,.037.053,18.154,18.154,0,0,1,1.066,1.658L60.976,49.456c4.457,10.509,8.531,12.375,8.531,12.375L89.495,76.813s14.321,9.864,4.676,29.937c-10.663,22.238-1.861,38.777-1.861,38.777l7.955,18.8s.65,1.306,1.631,3.322" transform="translate(9.129 1.072)"/>
              <path id="Path_5705" data-name="Path 5705" class="cls-7" d="M81.131,130.841s-7.576,2.41-9.469,2.415" transform="translate(68.863 138.199)"/>
              <line id="Line_712" data-name="Line 712" class="cls-7" x2="1.823" y2="0.432" transform="translate(181.713 207.342)"/>
              <line id="Line_713" data-name="Line 713" class="cls-7" y1="0.005" transform="translate(106.792 178.637)"/>
              <path id="Path_5706" data-name="Path 5706" class="cls-7" d="M39.8,29.91s-.592,14.273.746,20.218c.848,3.764,2.527,13.862,3.647,20.74a26.5,26.5,0,0,0,.64,2.884l2.884,10.2q.219.757.5,1.5l11.826,31.227s4.6,10.877,8.435,20.607" transform="translate(35.025 31.431)"/>
              <path id="Path_5707" data-name="Path 5707" class="cls-7" d="M71.447,63.966,40.46,46.473,17.187,66.483l-.6.9" transform="translate(10.601 48.953)"/>
              <path id="Path_5708" data-name="Path 5708" class="cls-7" d="M66.766,68.147,44.954,59.462,19.362,79.189" transform="translate(13.539 62.692)"/>
              <path id="Path_5709" data-name="Path 5709" class="cls-7" d="M22.606,92.578,48.6,72.136,73.486,82.245" transform="translate(16.971 76.099)"/>
              <path id="Path_5710" data-name="Path 5710" class="cls-7" d="M28.277,87.446a15.46,15.46,0,0,0-1.12,2.1s-2.133,6.622-1.8,7.384" transform="translate(19.846 92.294)"/>
              <path id="Path_5711" data-name="Path 5711" class="cls-7" d="M31.219,113.14s-3.007-1.381-2.708-3.311" transform="translate(23.195 115.971)"/>
              <path id="Path_5712" data-name="Path 5712" class="cls-7" d="M35.053,136.559h0l-2.106-11.511-2.89-11.687h0L25.893,96.5,22.06,79.142v-.037l-.672-4.185a53.655,53.655,0,0,0-1.541-6.835l-2.724-9.2-4.58-16.262" transform="translate(6.326 44.877)"/>
              <path id="Path_5713" data-name="Path 5713" class="cls-17" d="M57.888,138.894a1.008,1.008,0,0,1-.155,1.194,2.485,2.485,0,0,1-1.114.624,7.966,7.966,0,0,1-1.727.3,54.663,54.663,0,0,1-9.037-.3,48.338,48.338,0,0,1-6.163-1l-.411-1.04,1.967-9.725.331-.357.341-.363s8.024,1.488,12,.97l.405-.059c3.514-.533,2.788-1.317,2.788-1.317l.629.224L58,135.066l2.527-.666.443,2.788S61.94,137.817,57.888,138.894Z" transform="translate(34.61 135.009)"/>
              <path id="Path_5714" data-name="Path 5714" class="cls-7" d="M46.587,128.655l.005.16.56,10.871" transform="translate(42.339 135.886)"/>
            </g>
            <path id="Path_5715" data-name="Path 5715" class="cls-7" d="M47.525,59.591s-5.54,4.452-5.332,11.2,15.648,34.48,15.648,34.48" transform="translate(43.838 62.829)"/>
          </g>
        </g>
      </g>
      <g id="Ellipse_228-2" data-name="Ellipse 228" class="cls-1" transform="translate(608 1511)">
        <circle class="cls-18" cx="96" cy="96" r="96"/>
        <circle class="cls-19" cx="96" cy="96" r="95.5"/>
      </g>
    </g>
  </g>
</svg>
