<svg xmlns="http://www.w3.org/2000/svg" xmlns:xlink="http://www.w3.org/1999/xlink" viewBox="0 0 193 193">
  <defs>
    <style>
      .cls-1, .cls-10, .cls-13, .cls-14, .cls-15, .cls-16, .cls-19, .cls-6, .cls-7, .cls-8, .cls-9 {
        fill: none;
      }

      .cls-1, .cls-2 {
        stroke: #707070;
      }

      .cls-12, .cls-17, .cls-2, .cls-4, .cls-5 {
        fill: #fff;
      }

      .cls-3 {
        clip-path: url(#clip-path);
      }

      .cls-10, .cls-12, .cls-13, .cls-14, .cls-15, .cls-16, .cls-17, .cls-5, .cls-6, .cls-7, .cls-8, .cls-9 {
        stroke: #1d1d1b;
      }

      .cls-10, .cls-12, .cls-13, .cls-15, .cls-16, .cls-5, .cls-7, .cls-8, .cls-9 {
        stroke-miterlimit: 10;
      }

      .cls-5, .cls-6, .cls-9 {
        stroke-width: 0.259px;
      }

      .cls-14, .cls-17, .cls-6 {
        stroke-linejoin: round;
      }

      .cls-14, .cls-17, .cls-7, .cls-8 {
        stroke-width: 0.777px;
      }

      .cls-8, .cls-9 {
        stroke-linecap: round;
      }

      .cls-10 {
        stroke-width: 0.153px;
      }

      .cls-11 {
        fill: #1d1d1b;
      }

      .cls-12 {
        stroke-width: 0.194px;
      }

      .cls-13 {
        stroke-width: 0.236px;
      }

      .cls-15 {
        stroke-width: 0.249px;
      }

      .cls-16 {
        stroke-width: 0.13px;
      }

      .cls-18 {
        stroke: none;
      }
    </style>
    <clipPath id="clip-path">
      <circle id="Ellipse_228" data-name="Ellipse 228" class="cls-1" cx="96" cy="96" r="96" transform="translate(71 400)"/>
    </clipPath>
  </defs>
  <g id="Group_440" data-name="Group 440" transform="translate(-4815 -1751)">
    <g id="Ellipse_285" data-name="Ellipse 285" class="cls-2" transform="translate(4816 1752)">
      <circle class="cls-18" cx="96" cy="96" r="96"/>
      <circle class="cls-19" cx="96" cy="96" r="95.5"/>
    </g>
    <g id="Group_396" data-name="Group 396" transform="translate(4484 241)">
      <g id="Mask_Group_40" data-name="Mask Group 40" class="cls-3" transform="translate(260 1110)">
        <g id="Mizano_Diagonal" data-name="Mizano Diagonal" transform="translate(113.127 412.897)">
          <g id="Camada_1" data-name="Camada 1" transform="translate(0.383 0.101)">
            <g id="Base" transform="translate(0 155.561)">
              <g id="base-2" data-name="base">
                <path id="Path_5522" data-name="Path 5522" class="cls-4" d="M100.539,168.288a5.438,5.438,0,0,1,4.513,2.334c1.723,2.5,0,5.743,0,5.743-.925,4.778-5.077,4.544-5.077,4.544-6.113-.062-5.241-7.362-5.241-7.362l-.062-5.09S96.944,170.082,100.539,168.288Z" transform="translate(17.517 -123.732)"/>
                <path id="Path_5523" data-name="Path 5523" class="cls-5" d="M75.4,152.771l-.117.6s-.8-.049-1.7,3.681l9.634,2.392s1.326-4.677-1.156-5.907l-1.027-.37-1.375.213v-.774Z" transform="translate(13.512 -126.71)"/>
                <path id="Path_5524" data-name="Path 5524" class="cls-4" d="M5.678,167.687a5.444,5.444,0,0,0-4.519,2.331c-1.723,2.5,0,5.746,0,5.746.925,4.775,5.077,4.544,5.077,4.544,6.113-.062,5.241-7.362,5.241-7.362l.062-5.093S9.272,169.472,5.678,167.687Z" transform="translate(-0.382 -123.846)"/>
                <path id="Path_5525" data-name="Path 5525" class="cls-5" d="M31.08,152.326l.117.595s.8-.049,1.7,3.681L23.268,159s-1.326-4.677,1.156-5.907l1.027-.373,1.375.216v-.789Z" transform="translate(3.894 -126.797)"/>
                <path id="Path_5526" data-name="Path 5526" class="cls-4" d="M51.219,180.862v1.045H49.33l-.641,1.4.12,8.767.7,1.581h1.9s.345-.351.308-1.933,0-1.979,0-1.979l3.107-.025v3.043s.1.894.308.894h1.9a5.588,5.588,0,0,0,.906-1.933c.133-.872-.022-8.2-.022-8.2l-.7-1.618H55.187l-.062-.644Z" transform="translate(8.787 -121.345)"/>
                <path id="Path_5527" data-name="Path 5527" class="cls-6" d="M10.543,168.024l-.1,4.744-.182.114a4.916,4.916,0,0,0-1.474-2.429A5.641,5.641,0,0,0,6.9,169.46V168.5" transform="translate(0.854 -123.782)"/>
                <circle id="Ellipse_263" data-name="Ellipse 263" class="cls-7" cx="5.077" cy="5.077" r="5.077" transform="translate(0.783 46.307)"/>
                <path id="Path_5528" data-name="Path 5528" class="cls-8" d="M1.16,175.871a9.865,9.865,0,0,1-.777-3.083,5.077,5.077,0,0,1,5.093-5.065" transform="translate(-0.383 -123.839)"/>
                <path id="Path_5529" data-name="Path 5529" class="cls-9" d="M.415,173.015c0-2.8,2.876-4.911,5.682-4.911" transform="translate(-0.378 -123.767)"/>
                <circle id="Ellipse_264" data-name="Ellipse 264" class="cls-7" cx="0.872" cy="0.872" r="0.872" transform="translate(5.084 50.527)"/>
                <path id="Path_5530" data-name="Path 5530" class="cls-7" d="M5.475,170.431a26.712,26.712,0,0,0,.136,2.926c.114.151.225.247.543,0a20.8,20.8,0,0,0,1.566-2.2" transform="translate(0.583 -123.325)"/>
                <path id="Path_5531" data-name="Path 5531" class="cls-7" d="M8.209,171.6a26.487,26.487,0,0,0-1.791,2.312c0,.176,0,.339.413.355a20.711,20.711,0,0,0,2.617-.66" transform="translate(0.762 -123.103)"/>
                <path id="Path_5532" data-name="Path 5532" class="cls-7" d="M9.474,174.04a25.064,25.064,0,0,0-2.926.12c-.151.12-.25.228,0,.546a21.442,21.442,0,0,0,2.189,1.575" transform="translate(0.758 -122.64)"/>
                <path id="Path_5533" data-name="Path 5533" class="cls-7" d="M8.428,176.755a26.85,26.85,0,0,0-2.392-1.686c-.176.006-.336.028-.333.432a21.175,21.175,0,0,0,.777,2.583" transform="translate(0.626 -122.445)"/>
                <path id="Path_5534" data-name="Path 5534" class="cls-7" d="M5.274,170.436a26.8,26.8,0,0,1,.031,2.926c-.1.151-.213.262-.546.031a20.806,20.806,0,0,1-1.686-2.106" transform="translate(0.127 -123.324)"/>
                <path id="Path_5535" data-name="Path 5535" class="cls-7" d="M2.724,171.747s1.905,2.032,1.921,2.195,0,.336-.395.376a21.084,21.084,0,0,1-2.651-.512" transform="translate(-0.153 -123.076)"/>
                <path id="Path_5536" data-name="Path 5536" class="cls-7" d="M1.625,174.558a26.6,26.6,0,0,1,2.926-.046c.151.1.265.21.034.543a21.126,21.126,0,0,1-2.1,1.7" transform="translate(-0.148 -122.558)"/>
                <path id="Path_5537" data-name="Path 5537" class="cls-7" d="M3.083,177.3a27.2,27.2,0,0,1,2-2.136c.173-.031.336-.04.416.355a20.894,20.894,0,0,1-.24,2.688" transform="translate(0.129 -122.429)"/>
                <path id="Path_5538" data-name="Path 5538" class="cls-7" d="M94.511,167.373v5.786l.173.126a4.93,4.93,0,0,1,1.634-2.324,5.644,5.644,0,0,1,1.945-.863l.065-.956" transform="translate(17.486 -123.906)"/>
                <circle id="Ellipse_265" data-name="Ellipse 265" class="cls-7" cx="5.188" cy="5.188" r="5.188" transform="translate(111.958 46.926)"/>
                <path id="Path_5539" data-name="Path 5539" class="cls-7" d="M103.856,176.477a8.2,8.2,0,0,0,.8-2.775c.191-2.8-1.452-5.219-4.251-5.407" transform="translate(18.605 -123.731)"/>
                <path id="Path_5540" data-name="Path 5540" class="cls-10" d="M104.82,173.833c.188-2.8-2.571-5-5.37-5.185" transform="translate(18.424 -123.664)"/>
                <path id="Path_5541" data-name="Path 5541" class="cls-10" d="M104.923,174.624c-.425-4.008-3.73-5.49-7.09-4.9" transform="translate(18.117 -123.484)"/>
                <circle id="Ellipse_266" data-name="Ellipse 266" class="cls-7" cx="0.872" cy="0.872" r="0.872" transform="translate(116.286 51.14)"/>
                <path id="Path_5542" data-name="Path 5542" class="cls-7" d="M99.374,170.949a27.328,27.328,0,0,1-.333,2.907c-.12.133-.244.234-.543-.037a21.274,21.274,0,0,1-1.412-2.3" transform="translate(17.975 -123.227)"/>
                <path id="Path_5543" data-name="Path 5543" class="cls-7" d="M96.7,171.954a25.956,25.956,0,0,1,1.631,2.429c-.012.179-.034.336-.435.324a21.069,21.069,0,0,1-2.553-.835" transform="translate(17.645 -123.036)"/>
                <path id="Path_5544" data-name="Path 5544" class="cls-7" d="M95.265,174.312s2.774.2,2.91.308.234.24-.034.543a20.78,20.78,0,0,1-2.294,1.421" transform="translate(17.629 -122.589)"/>
                <path id="Path_5545" data-name="Path 5545" class="cls-7" d="M96.087,177.062a26,26,0,0,1,2.5-1.52c.176.022.333.046.308.45a20.1,20.1,0,0,1-.953,2.525" transform="translate(17.785 -122.355)"/>
                <path id="Path_5546" data-name="Path 5546" class="cls-7" d="M99.6,171a26.806,26.806,0,0,0-.228,2.919c.1.145.194.274.539.068A20.95,20.95,0,0,0,101.734,172" transform="translate(18.405 -123.217)"/>
                <path id="Path_5547" data-name="Path 5547" class="cls-7" d="M102.175,172.459a26.747,26.747,0,0,0-2.065,2.072c-.025.176-.031.336.367.4a21.291,21.291,0,0,0,2.679-.33" transform="translate(18.547 -122.94)"/>
                <path id="Path_5548" data-name="Path 5548" class="cls-7" d="M103.065,175.353a26.66,26.66,0,0,0-2.916-.244c-.142.1-.277.191-.071.54a20.866,20.866,0,0,0,1.979,1.834" transform="translate(18.523 -122.44)"/>
                <path id="Path_5549" data-name="Path 5549" class="cls-7" d="M101.323,177.983a27.408,27.408,0,0,0-1.85-2.269c-.17-.043-.33-.065-.435.327a21.273,21.273,0,0,0,.055,2.7" transform="translate(18.339 -122.327)"/>
                <path id="Path_5550" data-name="Path 5550" class="cls-4" d="M24.932,156.008a.546.546,0,0,1-.145-.179c-.114-.194-.5-1.276-.731-1.951a1.282,1.282,0,0,1,1.048-.037c0,.983-.046,2.016-.071,2.112C25.006,155.992,24.978,156.029,24.932,156.008Z" transform="translate(4.111 -126.493)"/>
                <path id="Path_5551" data-name="Path 5551" class="cls-11" d="M26.132,157.214c.33.16.765.395,1,.527a.867.867,0,0,1,0,.089v.089c-.33-.182-.746-.4-1.045-.549a1.643,1.643,0,0,0-.382-.157s-.059.04-.062.071a.731.731,0,0,0,.055.213c.092.25.771,1.366,1.057,1.825l-.065.1c-.2-.333-.925-1.541-1.045-1.819a.925.925,0,0,1-.074-.385.2.2,0,0,1,.108-.185,1.273,1.273,0,0,1,.447.176Z" transform="translate(4.399 -125.868)"/>
                <path id="Path_5552" data-name="Path 5552" class="cls-11" d="M25.191,153.856a14.505,14.505,0,0,1-.1,2.244c-.049.065-.083.1-.148.071a.555.555,0,0,1-.176-.213c-.145-.247-.617-1.634-.774-2.053a.612.612,0,0,1,.077-.043c.234.675.617,1.757.731,1.951a.546.546,0,0,0,.145.179c.046.022.074,0,.1-.055.025-.1.055-1.128.071-2.112Z" transform="translate(4.098 -126.478)"/>
                <path id="Path_5553" data-name="Path 5553" class="cls-11" d="M23.121,155.262l.018-.17.022.022a1.618,1.618,0,0,1-.025.163Z" transform="translate(3.933 -126.237)"/>
                <path id="Path_5554" data-name="Path 5554" class="cls-11" d="M23.406,157.6h0c.019.055.037.108.059.163l-.037.018Z" transform="translate(3.987 -125.762)"/>
                <g id="Group_393" data-name="Group 393" transform="translate(26.5 26.008)">
                  <path id="Path_5555" data-name="Path 5555" class="cls-11" d="M23.1,156.092v-.077a.7.7,0,0,1,0,.08Z" transform="translate(-22.57 -152.071)"/>
                  <path id="Path_5556" data-name="Path 5556" class="cls-11" d="M24.945,157.347c.077.037.16.126.188.462a17.373,17.373,0,0,1-.191,1.9l-.074-.056a17.263,17.263,0,0,0,.191-1.828c0-.207-.052-.268-.111-.308a.179.179,0,0,0-.052-.018,7.938,7.938,0,0,0-1.011,1c-.028-.043-.049-.083-.074-.129a7.4,7.4,0,0,1,1.082-1.051Z" transform="translate(-22.436 -151.824)"/>
                  <path id="Path_5557" data-name="Path 5557" class="cls-4" d="M25.694,157.186a1.642,1.642,0,0,1,.382.157c.308.145.715.367,1.045.549a3.268,3.268,0,0,1-.376,1.4c-.287-.459-.965-1.575-1.057-1.825a.731.731,0,0,1-.055-.213C25.635,157.226,25.678,157.2,25.694,157.186Z" transform="translate(-22.09 -151.848)"/>
                  <path id="Path_5558" data-name="Path 5558" class="cls-4" d="M25.35,156.3a.231.231,0,0,1-.092-.142c-.025-.133,0-1.175.034-2.158a3.539,3.539,0,0,1,1.027,1.1,7.579,7.579,0,0,1-.82,1.168A.16.16,0,0,1,25.35,156.3Z" transform="translate(-22.163 -152.453)"/>
                  <path id="Path_5559" data-name="Path 5559" class="cls-11" d="M24.727,157.043a.509.509,0,0,1-.092.308,4.966,4.966,0,0,1-1.008.654c-.022-.052-.04-.108-.062-.16a5.3,5.3,0,0,0,1.023-.654.308.308,0,0,0,.065-.154.432.432,0,0,0-.059-.136,8.786,8.786,0,0,0-1.168-.617l-.219-.108v-.185l.277.136a6.272,6.272,0,0,1,1.156.644.573.573,0,0,1,.086.271Z" transform="translate(-22.55 -152.075)"/>
                  <path id="Path_5560" data-name="Path 5560" class="cls-11" d="M24.727,156.368a.592.592,0,0,1-.031.225c-.037.071-.108.083-.225.037h0a12.352,12.352,0,0,1-1.233-1.054.371.371,0,0,1,.025-.163,13.284,13.284,0,0,0,1.215,1.039h0c.114.049.154.025.17,0a.2.2,0,0,0,0-.083c-.049-.194-.555-1.412-.888-2.186.022-.028.046-.052.068-.077A12.782,12.782,0,0,1,24.727,156.368Z" transform="translate(-22.545 -152.433)"/>
                  <path id="Path_5561" data-name="Path 5561" class="cls-4" d="M25.181,156.2a.842.842,0,0,1,.336.5,1.076,1.076,0,0,1,.046.336c-.015.308-.207.487-.422.379h-.025a.854.854,0,0,1-.345-.49,1.1,1.1,0,0,1-.046-.339c.015-.308.21-.487.429-.379Z" transform="translate(-22.262 -152.041)"/>
                  <path id="Path_5562" data-name="Path 5562" class="cls-11" d="M25.593,156.627a1.418,1.418,0,0,1,.065.478c-.018.422-.237.644-.506.515H25.13a.993.993,0,0,1-.4-.576,1.5,1.5,0,0,1-.062-.478c.022-.425.247-.638.515-.509h0a1,1,0,0,1,.407.57Zm0,.435a1.076,1.076,0,0,0-.046-.336.841.841,0,0,0-.345-.5h-.018c-.219-.108-.413.062-.429.379a1.1,1.1,0,0,0,.046.339.854.854,0,0,0,.345.49h.025c.216.108.407-.065.422-.379" transform="translate(-22.273 -152.07)"/>
                  <path id="Path_5563" data-name="Path 5563" class="cls-11" d="M25.4,157.612c.089.046.866,1.437,1.165,1.973l-.077.074c-.416-.749-1.023-1.819-1.094-1.868s-.139-.049-.148.176.154,1.27.277,2.019l-.086,0c-.092-.558-.287-1.782-.274-2.05C25.185,157.517,25.318,157.575,25.4,157.612Z" transform="translate(-22.18 -151.772)"/>
                  <path id="Path_5564" data-name="Path 5564" class="cls-4" d="M25.23,157.938c0-.225.046-.225.148-.176a17.656,17.656,0,0,1,1.094,1.868,1.215,1.215,0,0,1-.965.324C25.385,159.208,25.221,158.136,25.23,157.938Z" transform="translate(-22.166 -151.744)"/>
                  <path id="Path_5565" data-name="Path 5565" class="cls-11" d="M26.976,157.072v.182h0a.714.714,0,0,0-.015-.182Z" transform="translate(-21.838 -151.87)"/>
                  <path id="Path_5566" data-name="Path 5566" class="cls-11" d="M27.979,156.286a8.253,8.253,0,0,1,.355,2.725c-.108,2.389-1.4,3.672-2.91,2.935l-.123-.065a5.658,5.658,0,0,1-2.284-3.317,8.243,8.243,0,0,1-.355-2.722c.108-2.392,1.4-3.672,2.913-2.935l.12.062A5.688,5.688,0,0,1,27.979,156.286Zm-.022,2.5a6.094,6.094,0,0,0-.271-2.022,4.95,4.95,0,0,0-2.025-2.9l-.117-.062c-1.307-.638-2.42.345-2.506,2.254a6.086,6.086,0,0,0,.271,2.022,4.973,4.973,0,0,0,2.025,2.9l.114.059c1.307.638,2.423-.339,2.509-2.25" transform="translate(-22.655 -152.7)"/>
                  <path id="Path_5567" data-name="Path 5567" class="cls-11" d="M25.23,153.965l.074.046c-.037.977-.059,2.019-.034,2.158a.231.231,0,0,0,.092.142.16.16,0,0,0,.148-.028,7.573,7.573,0,0,0,.82-1.168l.071.117a8.254,8.254,0,0,1-.866,1.233.191.191,0,0,1-.179.028.382.382,0,0,1-.142-.219,16.1,16.1,0,0,1,.015-2.309Z" transform="translate(-22.176 -152.46)"/>
                  <path id="Path_5568" data-name="Path 5568" class="cls-4" d="M26.131,157.641a1.274,1.274,0,0,1,.453.176c.33.16.765.395,1,.527v-.493a6.423,6.423,0,0,1-1.258-.219H26.31a.456.456,0,0,1-.216-.259.746.746,0,0,1-.018-.25c0-.049,0-.179.993-1.316a5.383,5.383,0,0,0-.281-.549,8.251,8.251,0,0,1-.866,1.233.191.191,0,0,1-.179.028.382.382,0,0,1-.142-.219,16.1,16.1,0,0,1,0-2.3l-.065-.04-.1-.052-.1-.043a14.5,14.5,0,0,1-.1,2.244c-.049.065-.083.1-.148.071a.555.555,0,0,1-.176-.213c-.145-.247-.617-1.634-.774-2.053a1.4,1.4,0,0,0-.308.244,12.539,12.539,0,0,1,.894,2.272.592.592,0,0,1-.031.225c-.037.071-.108.083-.225.037h0a12.358,12.358,0,0,1-1.233-1.054c-.015.12-.028.247-.034.376s0,.253,0,.382l.277.136a6.27,6.27,0,0,1,1.156.644.573.573,0,0,1,.1.308.509.509,0,0,1-.092.308,4.968,4.968,0,0,1-1.008.654,5.43,5.43,0,0,0,.308.617,7.4,7.4,0,0,1,1.082-1.051l.052.022c.077.037.16.126.188.462a17.375,17.375,0,0,1-.191,1.9c.062.04.123.08.188.117l.1.052a1.724,1.724,0,0,0,.45.126c-.092-.558-.287-1.782-.274-2.05,0-.419.148-.351.228-.308s.866,1.437,1.165,1.973a1.76,1.76,0,0,0,.207-.262c-.2-.333-.925-1.541-1.045-1.819a.925.925,0,0,1-.074-.385A.2.2,0,0,1,26.131,157.641Zm-.194-.126c-.018.422-.237.644-.506.515H25.41a.993.993,0,0,1-.4-.576,1.5,1.5,0,0,1-.062-.478c.022-.425.247-.638.515-.509h0a1,1,0,0,1,.395.576,1.418,1.418,0,0,1,.065.478" transform="translate(-22.552 -152.479)"/>
                  <path id="Path_5569" data-name="Path 5569" class="cls-4" d="M23.426,156.25l-.219-.108a5.885,5.885,0,0,0,.247,1.344c.034.114.071.225.111.336a5.3,5.3,0,0,0,1.023-.654.308.308,0,0,0,.065-.154.432.432,0,0,0-.059-.136,8.79,8.79,0,0,0-1.168-.629Z" transform="translate(-22.55 -152.046)"/>
                  <path id="Path_5570" data-name="Path 5570" class="cls-4" d="M24.472,156.438h0a13.28,13.28,0,0,1-1.224-1.045,2.627,2.627,0,0,1,.515-1.233c.333.774.839,1.991.888,2.186a.2.2,0,0,1,0,.083C24.626,156.462,24.586,156.487,24.472,156.438Z" transform="translate(-22.543 -152.423)"/>
                  <path id="Path_5571" data-name="Path 5571" class="cls-4" d="M25.063,157.795a17.263,17.263,0,0,1-.191,1.828,3.8,3.8,0,0,1-1-1.159,7.938,7.938,0,0,1,1.011-1,.18.18,0,0,1,.052.019C24.995,157.539,25.032,157.588,25.063,157.795Z" transform="translate(-22.424 -151.795)"/>
                  <path id="Path_5572" data-name="Path 5572" class="cls-4" d="M25.672,156.844a11.681,11.681,0,0,1,.98-1.233,5.772,5.772,0,0,1,.213.589,6.3,6.3,0,0,1,.231,1.147,6.432,6.432,0,0,1-1.233-.213h-.022a.352.352,0,0,1-.166-.176A.284.284,0,0,1,25.672,156.844Z" transform="translate(-22.083 -152.147)"/>
                  <path id="Path_5573" data-name="Path 5573" class="cls-11" d="M25.877,157.146a6.433,6.433,0,0,0,1.233.213c0,.062,0,.123,0,.182a6.425,6.425,0,0,1-1.258-.219H25.83a.456.456,0,0,1-.216-.259.746.746,0,0,1-.019-.25c0-.049,0-.179.993-1.319.022.049.043.1.062.142a11.683,11.683,0,0,0-.98,1.233.283.283,0,0,0,0,.092.351.351,0,0,0,.166.176Z" transform="translate(-22.098 -152.169)"/>
                </g>
                <path id="Path_5574" data-name="Path 5574" class="cls-4" d="M27.626,156.616a6.094,6.094,0,0,1,.271,2.022c-.086,1.911-1.2,2.889-2.509,2.25l-.114-.059a4.973,4.973,0,0,1-2.025-2.9,6.086,6.086,0,0,1-.271-2.022c.086-1.908,1.2-2.892,2.506-2.253l.117.062A4.937,4.937,0,0,1,27.626,156.616Zm.117,1.961a5.522,5.522,0,0,0,0-.638v-.182a7.812,7.812,0,0,0-.268-1.307,4.627,4.627,0,0,0-1.871-2.7l-.1-.052c-1.1-.536-2.056.207-2.306,1.726l-.022-.022-.018.17.015.015c-.018.133-.031.271-.037.413s0,.333,0,.5v.077a6.927,6.927,0,0,0,.281,1.541c.025.086.052.17.083.253l.022.182.037-.018a4.349,4.349,0,0,0,1.726,2.287l.1.052c1.233.617,2.278-.407,2.361-2.3" transform="translate(3.905 -126.547)"/>
                <g id="Group_394" data-name="Group 394" transform="translate(91.654 26.448)">
                  <path id="Path_5575" data-name="Path 5575" class="cls-11" d="M82.08,155.81h0l.015.179h0A1.1,1.1,0,0,1,82.08,155.81Z" transform="translate(-76.528 -152.549)"/>
                  <path id="Path_5576" data-name="Path 5576" class="cls-11" d="M81.782,157.606c.018-.052.04-.108.059-.163h0v.182Z" transform="translate(-76.584 -152.239)"/>
                  <path id="Path_5577" data-name="Path 5577" class="cls-11" d="M79.831,154.021l.071-.034c.071.943.163,1.927.2,2.025.031.031.062.062.111.037a.487.487,0,0,0,.163-.191c.129-.219.555-1.464.715-1.945l.086.031c-.136.407-.617,1.81-.761,2.062a.536.536,0,0,1-.188.219c-.065.031-.111,0-.16-.052A13.194,13.194,0,0,1,79.831,154.021Z" transform="translate(-76.955 -152.909)"/>
                  <path id="Path_5578" data-name="Path 5578" class="cls-11" d="M79.859,157.645c.086-.043.2-.059.234.308a18.535,18.535,0,0,1-.191,2l-.08.015c.1-.734.219-1.782.2-1.97s-.055-.21-.151-.163l-.031.015c-.071.043-.7,1.138-1.134,1.908l-.089-.065c.25-.447,1.107-1.967,1.205-2.019Z" transform="translate(-77.185 -152.205)"/>
                  <path id="Path_5579" data-name="Path 5579" class="cls-11" d="M79.776,154.139a13.3,13.3,0,0,1,.148,2.217c-.043.114-.077.188-.151.222a.231.231,0,0,1-.194,0,7.841,7.841,0,0,1-1.048-1.1l.074-.117a7.035,7.035,0,0,0,.986,1.033.194.194,0,0,0,.166,0c.059-.025.083-.1.111-.166.015-.12-.068-1.113-.163-2.047Z" transform="translate(-77.202 -152.867)"/>
                  <path id="Path_5580" data-name="Path 5580" class="cls-11" d="M79.258,157.226c.136-.065.228-.1.25-.089a.194.194,0,0,1,.133.176.8.8,0,0,1-.065.382c-.1.287-.863,1.514-1.076,1.85-.025-.028-.052-.059-.077-.092.351-.558,1.011-1.634,1.1-1.877a.543.543,0,0,0,.049-.2s0-.031-.074-.059a.666.666,0,0,0-.185.071c-.308.148-.925.493-1.393.758v-.176C78.188,157.8,78.882,157.405,79.258,157.226Z" transform="translate(-77.318 -152.298)"/>
                  <path id="Path_5581" data-name="Path 5581" class="cls-11" d="M79.548,156.888a.73.73,0,0,1,0,.231.453.453,0,0,1-.231.287l-.037.022a9.135,9.135,0,0,1-1.4.33v-.185a9.016,9.016,0,0,0,1.375-.308l.034-.018a.392.392,0,0,0,.185-.2.209.209,0,0,0,0-.074,12.07,12.07,0,0,0-1.184-1.1l.062-.139C79.548,156.715,79.548,156.835,79.548,156.888Z" transform="translate(-77.325 -152.564)"/>
                  <path id="Path_5582" data-name="Path 5582" class="cls-11" d="M82.871,155.851c0,.123.022.25.025.376v.185a5.741,5.741,0,0,1-.16,1.276q-.059.244-.139.481c-.018.055-.04.111-.059.163a4.569,4.569,0,0,1-1.819,2.383l-.191.1c-1.319.617-2.512-.24-2.713-2.028a4.929,4.929,0,0,1-.028-.617c0-.059,0-.12,0-.182a5.787,5.787,0,0,1,.154-1.042,4.856,4.856,0,0,1,2.016-3.03l.188-.1c1.175-.558,2.254.071,2.614,1.48a1.3,1.3,0,0,1,.037.157,3.838,3.838,0,0,1,.074.4Zm-.089.435a3.493,3.493,0,0,0-.022-.364c-.015-.126-.034-.247-.059-.364a.59.59,0,0,0-.04-.157A2.232,2.232,0,0,0,82,154.269l-.08-.065a1.409,1.409,0,0,0-.355-.2l-.086-.031a1.686,1.686,0,0,0-1.193.074l-.071.034-.04.019c-.062.028-.123.062-.185.1l-.077.046-.071.046a3.965,3.965,0,0,0-1.1,1.165l-.074.117a5.241,5.241,0,0,0-.29.555l-.062.139a5.835,5.835,0,0,0-.271.832,5.241,5.241,0,0,0-.136.882v.185c0,.16,0,.308.015.475v.176a2.707,2.707,0,0,0,.506,1.31c.025.034.052.065.077.092a1.463,1.463,0,0,0,.25.231l.089.065a1.542,1.542,0,0,0,1.116.21l.08-.015a2.231,2.231,0,0,0,.441-.157l.194-.1c.071-.04.142-.086.21-.133l.071-.052a4.2,4.2,0,0,0,1.051-1.205l.074-.13a5.292,5.292,0,0,0,.308-.638l.062-.163a5.177,5.177,0,0,0,.173-.576,5.081,5.081,0,0,0,.142-1.076q0-.092,0-.185" transform="translate(-77.343 -152.966)"/>
                  <path id="Path_5583" data-name="Path 5583" class="cls-11" d="M80.578,157.054a.506.506,0,0,1,.089-.308,12.15,12.15,0,0,1,1.578-.894v.185a13.133,13.133,0,0,0-1.541.857.37.37,0,0,0-.059.133.237.237,0,0,0,.077.133,5.858,5.858,0,0,0,1.2.53l-.062.163a5.46,5.46,0,0,1-1.171-.527A.416.416,0,0,1,80.578,157.054Z" transform="translate(-76.813 -152.541)"/>
                  <path id="Path_5584" data-name="Path 5584" class="cls-4" d="M80.578,156.372c.049-.2.558-1.434.885-2.207a2.232,2.232,0,0,1,.657,1.131,13.986,13.986,0,0,1-1.323,1.131h0c-.142.062-.185.034-.2,0A.308.308,0,0,1,80.578,156.372Z" transform="translate(-76.813 -152.862)"/>
                  <path id="Path_5585" data-name="Path 5585" class="cls-11" d="M80.511,156.571a1.233,1.233,0,0,1-.028.419,1.045,1.045,0,0,1-.425.644l-.04.018c-.284.136-.533-.055-.576-.453a1.159,1.159,0,0,1,.031-.422,1.033,1.033,0,0,1,.422-.641l.034-.018C80.215,155.982,80.468,156.17,80.511,156.571Zm-.092.327a.789.789,0,0,0,.022-.277c-.034-.308-.253-.441-.493-.327l-.037.018a.907.907,0,0,0-.376.558.808.808,0,0,0-.022.281c.034.308.253.441.487.327l.043-.022a.9.9,0,0,0,.376-.558" transform="translate(-77.03 -152.499)"/>
                  <path id="Path_5586" data-name="Path 5586" class="cls-4" d="M79.935,156.264c.24-.114.459.028.493.327a.789.789,0,0,1-.022.277.9.9,0,0,1-.376.558l-.043.022c-.234.114-.453-.031-.487-.327a.808.808,0,0,1,.022-.281.906.906,0,0,1,.376-.558Z" transform="translate(-77.018 -152.471)"/>
                  <path id="Path_5587" data-name="Path 5587" class="cls-11" d="M83.379,155.683a6.221,6.221,0,0,1-.154,2.158,5.706,5.706,0,0,1-2.368,3.561c-.077.04-.151.083-.225.117-1.541.737-2.953-.284-3.188-2.377a6.378,6.378,0,0,1,.154-2.158,5.718,5.718,0,0,1,2.371-3.561l.219-.114C81.739,152.572,83.148,153.583,83.379,155.683Zm-.259,2a5.626,5.626,0,0,0,.139-1.917c-.216-1.939-1.541-2.867-3.033-2.158-.077.037-.151.077-.225.12a5.49,5.49,0,0,0-2.294,3.419,5.711,5.711,0,0,0-.142,1.917c.219,1.942,1.557,2.864,3.04,2.158.074-.037.148-.074.222-.117a5.522,5.522,0,0,0,2.294-3.422" transform="translate(-77.414 -153.07)"/>
                  <path id="Path_5588" data-name="Path 5588" class="cls-12" d="M83.239,155.715c-.216-1.939-1.541-2.867-3.033-2.158-.077.037-.151.077-.225.12a5.49,5.49,0,0,0-2.294,3.419,5.712,5.712,0,0,0-.142,1.917c.219,1.942,1.557,2.864,3.04,2.158.074-.037.148-.074.222-.117a5.521,5.521,0,0,0,2.294-3.422,5.626,5.626,0,0,0,.139-1.917Zm-.29.752a5.741,5.741,0,0,1-.16,1.276q-.059.244-.139.481v.182l-.049-.018a4.569,4.569,0,0,1-1.819,2.383l-.191.1c-1.319.617-2.512-.24-2.713-2.028-.022-.2-.031-.4-.037-.617v-.182h.022A5.787,5.787,0,0,1,78.017,157a4.856,4.856,0,0,1,2.016-3.03l.188-.1c1.175-.558,2.254.071,2.614,1.48l.034-.031.025.17-.022.018a3.844,3.844,0,0,1,.065.392c0,.123.022.25.025.376l.015.179h0" transform="translate(-77.394 -153.022)"/>
                  <path id="Path_5589" data-name="Path 5589" class="cls-11" d="M82.008,155.007l.025.17-.022.018a1.3,1.3,0,0,0-.037-.157Z" transform="translate(-76.548 -152.702)"/>
                  <path id="Path_5590" data-name="Path 5590" class="cls-11" d="M80.818,156.438a13.982,13.982,0,0,0,1.323-1.131.736.736,0,0,0,.04.157,13.534,13.534,0,0,1-1.35,1.153h0c-.139.059-.213.052-.259-.025a.533.533,0,0,1-.043-.21,12.864,12.864,0,0,1,.879-2.275l.08.065c-.327.774-.835,2.007-.885,2.207a.309.309,0,0,0,0,.068c.015.025.059.052.2,0Z" transform="translate(-76.822 -152.873)"/>
                  <path id="Path_5591" data-name="Path 5591" class="cls-11" d="M80.318,157.34l.055-.022a7.256,7.256,0,0,1,1.279.9l-.074.129a7.664,7.664,0,0,0-1.2-.854.145.145,0,0,0-.046.018c-.08.037-.12.1-.126.308a14.738,14.738,0,0,0,.308,1.736l-.071.052a13.946,13.946,0,0,1-.308-1.807C80.146,157.472,80.235,157.38,80.318,157.34Z" transform="translate(-76.896 -152.263)"/>
                  <path id="Path_5592" data-name="Path 5592" class="cls-4" d="M80.338,157.487a.145.145,0,0,1,.046-.019,7.662,7.662,0,0,1,1.2.854,4.2,4.2,0,0,1-1.051,1.205,14.736,14.736,0,0,1-.308-1.736C80.2,157.588,80.242,157.539,80.338,157.487Z" transform="translate(-76.882 -152.235)"/>
                  <path id="Path_5593" data-name="Path 5593" class="cls-4" d="M79.746,156.389a.194.194,0,0,1-.166,0,7.034,7.034,0,0,1-.986-1.033,3.964,3.964,0,0,1,1.1-1.165c.1.925.179,1.927.163,2.047C79.829,156.293,79.8,156.364,79.746,156.389Z" transform="translate(-77.19 -152.857)"/>
                  <path id="Path_5594" data-name="Path 5594" class="cls-4" d="M79.569,157.343a.543.543,0,0,1-.049.2c-.086.244-.746,1.319-1.1,1.877a2.707,2.707,0,0,1-.506-1.31c.459-.265,1.082-.617,1.393-.758a.667.667,0,0,1,.185-.071C79.541,157.312,79.566,157.33,79.569,157.343Z" transform="translate(-77.318 -152.269)"/>
                  <path id="Path_5595" data-name="Path 5595" class="cls-4" d="M79.3,157.213l-.034.018a9.017,9.017,0,0,1-1.375.308,5.243,5.243,0,0,1,.136-.882,5.838,5.838,0,0,1,.271-.832,12.07,12.07,0,0,1,1.184,1.1.21.21,0,0,1,0,.074.392.392,0,0,1-.182.213Z" transform="translate(-77.323 -152.546)"/>
                  <path id="Path_5596" data-name="Path 5596" class="cls-11" d="M77.782,157.482V157.3H77.8v.182Z" transform="translate(-77.344 -152.267)"/>
                </g>
                <path id="Path_5597" data-name="Path 5597" class="cls-4" d="M56.987,130.841l-.025,5.786s-.487.416-.339,3.1c0,0-.721.015-.78,2.069s-.429,12.639-.429,12.639-8.919-3.816-22.7-1.723c0,0-3.413.583-3.678,2.158s.083,2,.083,2l1.19.219,4.109-.059.034-.589a50.262,50.262,0,0,1,5.6.7,28.524,28.524,0,0,1,4.865,1.4l.04.194s-6.64,1.449-7.541,1.655-11.961,2.978-14.566,3.795S11.587,168.1,11.587,168.1l-6.036,2.63s-1.48,1.11-.863,3.767a1.993,1.993,0,0,0,.213.182c.617.465,2.556,1.566,5.876.166l.629-1.156s18.309-5.922,30.8-7.312,11.81-1.452,11.81-1.452,2.158-.379,2.482,2.2,1.4,20.923,1.4,20.923a3.407,3.407,0,0,0,3.786,2.815c3.413-.114,4.239-1.572,4.239-1.572s.376-.308.462-2.127l.993-21.117a3.507,3.507,0,0,1,2.775-.484c1.881.293,9.144,1.144,9.144,1.144s9.045,1.193,14.579,2.59,18.145,4.932,18.145,4.932l.666,1.208s2.244,1.319,3.844.65a12.268,12.268,0,0,1,2.2-.771s.925-3.243-1.378-4.279a145.343,145.343,0,0,0-28.7-9.446l-10.435-2.327s2.895-1.936,9.3-2.408,5.312-.256,5.312-.256v.789l1.375-.216s.74-2.374-.854-3.181-4.707-2.007-13.145-1.492-11.952,2.072-11.952,2.072l-.361-12.68a2.094,2.094,0,0,0-.718-2s.234-2.639-.339-3.286l-.284-4.778Z" transform="translate(0.405 -130.841)"/>
                <path id="Path_5598" data-name="Path 5598" class="cls-7" d="M58.124,153.451l-.043-2.318s3.653-1.964,14.261-2.158,11.582,2.25,11.582,2.25.484.392.123,2.506a6.653,6.653,0,0,1-1.27.213c-.151-.059-.062-.786-.062-.786s-9.248-.12-14.776,2.386" transform="translate(10.57 -127.401)"/>
                <path id="Path_5599" data-name="Path 5599" class="cls-7" d="M51.513,153.26v-2.232s-3.989-2.118-14.6-2.3-11.573,2.235-11.573,2.235-.484.395-.12,2.509a6.655,6.655,0,0,0,1.27.213c.151-.059.059-.786.059-.786s9.248-.12,14.779,2.386" transform="translate(4.307 -127.447)"/>
                <path id="Path_5600" data-name="Path 5600" class="cls-7" d="M68.036,153.121s17.15,3.144,29.66,6.68a126.072,126.072,0,0,1,20.128,7.343s1.6.848.906,4.051c0,0-3.114,1.874-6.042.12l-.666-1.208s-12.874-3.823-21.271-5.635a141.135,141.135,0,0,0-14.911-2.263q-2.861-.287-5.7-.758h-.018a4.2,4.2,0,0,0-2.278.259l-.484.228v.4l-1.02,21.469a2.864,2.864,0,0,1-2.232,2.66,12.71,12.71,0,0,1-1.961.265c-3.989.274-4.248-2.553-4.248-2.553s-.361-6.045-.783-14.085-1-8.663-1-8.663l-.043-.083-.484-.228a4.211,4.211,0,0,0-2.281-.256h0q-2.842.472-5.7.758a140.96,140.96,0,0,0-14.918,2.263c-8.382,1.813-21.256,5.635-21.256,5.635l-.666,1.205c-2.932,1.757-6.042-.117-6.042-.117-.7-3.2.906-4.051.906-4.051a125.578,125.578,0,0,1,20.124-7.343c12.51-3.533,29.66-6.68,29.66-6.68l.019.234" transform="translate(0.409 -126.723)"/>
                <path id="Path_5601" data-name="Path 5601" class="cls-7" d="M54.263,157.233c4.035.1,5.907-1.788,5.907-1.788l.018-.237-.422-14.868a4.933,4.933,0,0,0-.16-1.144,1.849,1.849,0,0,0-.348-.74s-.139,1.995-4.988,1.995H53.224c-4.849,0-4.985-1.995-4.985-1.995a1.85,1.85,0,0,0-.348.74,4.781,4.781,0,0,0-.16,1.144L47.3,155.208l.019.237s1.871,1.89,5.9,1.788Z" transform="translate(8.524 -129.396)"/>
                <path id="Path_5602" data-name="Path 5602" class="cls-7" d="M53.162,140.975c-4.26.068-4.849-1.881-4.849-1.881v-1.927s-.046-1.11.339-1.474c0,0-.043,1.791,4.76,1.77h.342c4.8.022,4.76-1.77,4.76-1.77.382.364.339,1.474.339,1.474v1.927s-.589,1.948-4.852,1.881Z" transform="translate(8.715 -129.92)"/>
                <path id="Path_5603" data-name="Path 5603" class="cls-7" d="M48.619,136.763v-5.922s1.982.191,4.865.567,4.689.441,4.689.441l.176,4.7s-.24,1.964-4.714,1.85S48.619,136.763,48.619,136.763Z" transform="translate(8.774 -130.841)"/>
                <path id="Path_5604" data-name="Path 5604" class="cls-7" d="M50.816,180.965v.925a.706.706,0,0,1,.376.617h3.354s.062-.546.244-.573v-.743" transform="translate(9.191 -121.326)"/>
                <path id="Path_5605" data-name="Path 5605" class="cls-7" d="M51.117,181.74h-1.89l.182,11.755h1.9s.364-.244.308-1.27l-.12-9.88" transform="translate(8.889 -121.178)"/>
                <path id="Path_5606" data-name="Path 5606" class="cls-7" d="M49.388,181.74l-.308.552c-.617,1.156-.33.576-.379,5.04v.1c.049,4.467-.108,4.353.5,5.509l.308.552" transform="translate(8.785 -121.178)"/>
                <path id="Path_5607" data-name="Path 5607" class="cls-7" d="M54.357,181.74h1.89l-.188,11.755h-1.9s-.364-.244-.308-1.27l.12-9.88" transform="translate(9.765 -121.178)"/>
                <path id="Path_5608" data-name="Path 5608" class="cls-7" d="M55.906,181.812l.308.552c.617,1.156.33.58.379,5.043v.1c-.049,4.464.108,4.353-.5,5.509l-.308.549" transform="translate(10.134 -121.165)"/>
                <line id="Line_697" data-name="Line 697" class="cls-7" x2="3.151" transform="translate(60.509 68.238)"/>
                <path id="Path_5609" data-name="Path 5609" class="cls-9" d="M.679,173.914a4.94,4.94,0,0,1,5.185-4.8,5.052,5.052,0,0,1,2.22.308" transform="translate(-0.327 -123.578)"/>
                <circle id="Ellipse_267" data-name="Ellipse 267" class="cls-7" cx="4.313" cy="4.313" r="4.313" transform="translate(112.846 47.691)"/>
                <circle id="Ellipse_268" data-name="Ellipse 268" class="cls-7" cx="4.313" cy="4.313" r="4.313" transform="translate(1.548 47.071)"/>
                <line id="Line_698" data-name="Line 698" class="cls-13" y1="0.052" x2="1.689" transform="translate(30.8 26.185)"/>
                <path id="Path_5610" data-name="Path 5610" class="cls-14" d="M32.062,156.431s-.82-3.009-1.384-3.329l-.136,3.41-2.519.657-.068-.657a5.857,5.857,0,0,0-.876-2.2V153.08a2.158,2.158,0,0,0,2.025.771c1.3-.213,1.437-.771,1.437-.771l-.348-.509v.37H27.8v-.632" transform="translate(4.685 -126.766)"/>
                <line id="Line_699" data-name="Line 699" class="cls-15" x1="1.776" y1="0.052" transform="translate(91.457 26.546)"/>
                <path id="Path_5611" data-name="Path 5611" class="cls-14" d="M73.582,156.662s.761-2.913,1.356-3.249l.142,3.57,2.639.687.071-.687a6.166,6.166,0,0,1,.925-2.3V153.4a2.278,2.278,0,0,1-2.127.808c-1.363-.222-1.5-.808-1.5-.808l.364-.53v.388h2.506v-.65" transform="translate(13.513 -126.71)"/>
              </g>
            </g>
            <g id="Mizano" transform="translate(3.558)">
              <path id="Path_5612" data-name="Path 5612" class="cls-4" d="M101.233,81.058l-4.563-.182H89.21L78.8,80.488l-1.372-1.319s-.524-1.924.826-2.186,8.185-.348,8.185-.348,12.914.25,13.789.086,13.755.888,13.755.888a1.48,1.48,0,0,1,1.079,1.31c0,1-.4,1.282-.4,1.282l-.94.925a14.781,14.781,0,0,1-2.426,0c-2.318-.065-8.108,0-8.108,0Z" transform="translate(10.666 14.428)"/>
              <path id="Path_5613" data-name="Path 5613" class="cls-4" d="M51,108.55v-.111l5.549.043,5.068-.194a26.256,26.256,0,0,1,3.736-.191,16.54,16.54,0,0,0,2.254.228s8.706-.743,19.015-1.72,18.611-.173,22.964,1.261c.126.043.25.083.37.129,4.023,1.43,4.624,3.585,4.843,7.146a15.735,15.735,0,0,1-2.4,9.557c-1.544,2.115-5.857,2.636-5.857,2.636l-9.557,3.32c-7.96,2.232-8.533,3.949-15.121,5.669s-7.784.228-7.784.228l-24.141-1.295-1.319-.071H48.4l-.111-3.03-.345-.114s.129.139-.1.308L49,120.212l.768-.182L51,108.577Z" transform="translate(5.069 20.037)"/>
              <path id="Path_5614" data-name="Path 5614" class="cls-4" d="M109.015,108.585l.45.617c-.12-.046-.244-.086-.37-.129-4.353-1.433-12.655-2.232-22.964-1.261s-19.015,1.72-19.015,1.72a16.54,16.54,0,0,1-2.254-.228,26.257,26.257,0,0,0-3.736.191l-5.068.194-5.549-.043.1-.974,11.468-1.082s4.932-.407,5.783-.635,6.872-2.556,6.872-2.556,6.757-3.727,12.948-4.316c2.254-.21,3.949-.308,5.37-.33a21.086,21.086,0,0,1,6.431.925l1.051.25a17.16,17.16,0,0,1,7.562,6.187,8.77,8.77,0,0,1,.916,1.47Z" transform="translate(5.575 18.817)"/>
              <path id="Path_5615" data-name="Path 5615" class="cls-4" d="M100.45,80.426,96.5,86.866l-3.783,17.778-1.051-.25L94.99,86.8l3.521-6.449Z" transform="translate(13.388 15.134)"/>
              <path id="Path_5616" data-name="Path 5616" class="cls-4" d="M99.536,80.381,96.016,86.83l-3.323,17.593a21.087,21.087,0,0,0-6.431-.925l2.451-16.647-1.2-6.653h7.46Z" transform="translate(12.362 15.105)"/>
              <path id="Path_5617" data-name="Path 5617" class="cls-4" d="M57.3,87.406l-5.58.1-3.234-.018-4.39-.025-.108.028h-.543l-7.057-.065-3.5-.031h-.715l-1.44-1.233s-.641-1.893.687-2.235,6.853-1.017,6.853-1.017l.617-.015c.925-.028,2.855-.08,5.016-.12,1.467-.031,3.046-.055,4.507-.062,2.05-.018,3.875,0,4.834.071,1.15.086,3.2.213,5.315.336h0c1.4.086,2.836.17,4.048.237l.65.034,2.525.142a19.351,19.351,0,0,0,3.225-.173c.86-.219,3.792-.66,3.792-.66a1.469,1.469,0,0,1,1.162,1.233c.065,1-.308,1.307-.308,1.307l-.879.99a35.251,35.251,0,0,1-5.691.925c-.512.022-1.208.04-1.992.062l-.684.022c-1.464.037-3.083.071-4.263.1H58.52Z" transform="translate(1.792 15.581)"/>
              <path id="Path_5618" data-name="Path 5618" class="cls-4" d="M64.284,81.984l7.2.925s-2.941.447-3.8.66a20.052,20.052,0,0,1-3.225.173L61.935,83.6l-.65-.034c-1.212-.068-2.645-.151-4.048-.237h0c-2.112-.123-4.165-.25-5.315-.336-.959-.074-2.775-.089-4.834-.071-1.461,0-3.04.031-4.507.062-2.158.04-4.079.092-5.016.12v-.12s2.047-.395,5.1-.746c1.31-.151,2.8-.293,4.4-.392,1.027-.062,2.1-.108,3.185-.126,2.2-.04,4.4-.028,6.357,0,1.443.019,2.759.049,3.853.08l.617.022c.835.025,1.5.052,1.954.068A12.419,12.419,0,0,1,64.284,81.984Z" transform="translate(3.118 15.389)"/>
              <path id="Path_5619" data-name="Path 5619" class="cls-4" d="M62.783,92.711c.706,2.577,1.674,10.007-4.855,13.919-.462.274-.9.536-1.329.777a14.592,14.592,0,0,0,.925-1.813c5.275-3.083,5.016-10.648,4.316-13.225a54.4,54.4,0,0,0-2.374-5.857l.684-.022A61.873,61.873,0,0,1,62.783,92.711Z" transform="translate(6.731 16.3)"/>
              <path id="Path_5620" data-name="Path 5620" class="cls-4" d="M62.058,92.373c.687,2.577.946,10.13-4.316,13.225A23.969,23.969,0,0,0,59,101.606c1.147-5.04-1.72-12.831-1.72-12.831H56.1c-.12-.5-.358-1.233-.669-2.158,1.171-.028,2.8-.062,4.264-.1A56.148,56.148,0,0,1,62.058,92.373Z" transform="translate(6.51 16.305)"/>
              <path id="Path_5621" data-name="Path 5621" class="cls-4" d="M50.86,110.188a22.945,22.945,0,0,0,2.3-2.106h0c1.474-1.575,2.867-3.616,2.728-5.629,0,0-.438-11.231-1.233-14.033h3.527s2.867,7.79,1.72,12.831a23.97,23.97,0,0,1-1.255,3.992,14.593,14.593,0,0,1-.925,1.813,6.3,6.3,0,0,1-.758,1.067,15.512,15.512,0,0,1-3.813,2.041c-.207.08-.419.151-.635.222a13.256,13.256,0,0,1-1.936.456l.052-.481.022-.185Z" transform="translate(5.589 16.666)"/>
              <path id="Path_5622" data-name="Path 5622" class="cls-4" d="M36.794,102.919l3.5.031,7.057.065h.543l1.89,7.639-.176,2.087-1.541,18.386-.518,6.221-.151,2.879.857.129-1.205,12.023c-.438-.071-.7-.12-.7-.12l-.2.21-.191.207-.361,1.779-17.183-1.412,2.519-.41.925-2.158-.12-.222-3.487-6.474-.351-.188-3.144-1.7-.8.259-1.717-1.85.308-.487-1.289-2.95h0l-.308-.666c.234-.074,1.252-.416,2.553-.906h0c1.116-.425,2.438-.962,3.656-1.541h.028a17.572,17.572,0,0,0,2.4-1.35,9.248,9.248,0,0,0,3.443-4.633,12.216,12.216,0,0,0,.062-4.9,27.223,27.223,0,0,0-1.48-5.817S30.3,113.4,28.5,109.532s-3.274-6.341-3.274-6.341L20.138,92.946s-4.085-10.608-5.78-15.568A39.447,39.447,0,0,1,12.752,68.9c-.207-2.21-.24-3.807-.24-3.807s.308-4.427.515-9.646a33.286,33.286,0,0,0-.536-8.737c-.126-.57-.641-2.959-1-4.584v-.083c-.191-.854-.324-1.477-.324-1.477s-.666-3.437-.882-5.737c-.059-.638-.108-1.273-.142-1.85,0-.129-.018-.253-.022-.364-.077-1.353-.1-2.368-.1-2.368a130.122,130.122,0,0,1,1.643-16.031l.848-3.453c1.144-3.558,2-6.138,3.641-7.772h0l1.233-.965A9.054,9.054,0,0,1,21.368.943c5.756-.429,12.2,3.351,12.2,3.351s.45.129,1.193,1.15a.093.093,0,0,0,.022.031,10.943,10.943,0,0,1,.617.959l7.223,22.372c2.577,6.076,4.932,7.155,4.932,7.155l11.56,8.663s8.28,5.7,2.7,17.31c-6.166,12.858-1.076,22.421-1.076,22.421l4.6,10.87s.376.755.943,1.921l-.617-.022c-1.094-.031-2.411-.062-3.853-.08-1.958-.028-4.159-.04-6.357,0-1.088.018-2.158.065-3.185.126-1.6.1-3.083.24-4.4.392-3.052.351-5.1.746-5.1.746v.12l-.617.015s-5.518.669-6.85,1.011-.687,2.235-.687,2.235l1.44,1.233Z" transform="translate(-2.11 0.052)"/>
              <path id="Path_5623" data-name="Path 5623" class="cls-4" d="M56.378,88.755H54.025l-.111-.046.842-2.062v-.022h.953C56.02,87.516,56.257,88.256,56.378,88.755Z" transform="translate(6.221 16.325)"/>
              <path id="Path_5624" data-name="Path 5624" class="cls-4" d="M55.882,102.456c.139,2.013-1.255,4.054-2.728,5.629h0a22.944,22.944,0,0,1-2.3,2.106l-.188-.018.126-1.208.684-6.437,1.011-9.137,2.047-5.019.111.046C55.444,91.226,55.882,102.456,55.882,102.456Z" transform="translate(5.604 16.657)"/>
              <path id="Path_5625" data-name="Path 5625" class="cls-4" d="M56.007,86.625v.022l-.842,2.062-2.047,5.019-1.011,9.131-.691,6.437-.126,1.208-.022.185-.052.481-.1.974h0v.145l-1.233,11.453-.768.182-1.541.361-.247.059,2.3-19.943,1.233-10.552,3.28-7.192,1.205-.025Z" transform="translate(4.97 16.325)"/>
              <path id="Path_5626" data-name="Path 5626" class="cls-4" d="M55.241,86.656l-3.28,7.192L50.74,104.4l-2.306,19.943-5.882-.213-.259-.043-.857-.129.151-2.879.518-6.221,1.538-18.386.176-2.087-1.89-7.639.108-.028,4.39.025,3.234.018Z" transform="translate(3.852 16.331)"/>
              <path id="Path_5627" data-name="Path 5627" class="cls-4" d="M50.424,133.324s.561.364-1.782.987a.583.583,0,0,1-.089.691,1.437,1.437,0,0,1-.644.361,4.607,4.607,0,0,1-1,.173h-.071l-.259-5.062v-.092l1.356-.515.154-1.643c.234-.176.1-.308.1-.308l.364.126.111,3.03.04,1.027,1.458-.385Z" transform="translate(4.829 24.164)"/>
              <path id="Path_5628" data-name="Path 5628" class="cls-4" d="M49.221,117.977l-1.156,12.137a3.2,3.2,0,0,1-1.369.422l1-12.14v-.059Z" transform="translate(4.851 22.277)"/>
              <path id="Path_5629" data-name="Path 5629" class="cls-4" d="M48.087,128.178l-.154,1.643-1.356.515.142-1.736A3.2,3.2,0,0,0,48.087,128.178Z" transform="translate(4.828 24.214)"/>
              <path id="Path_5630" data-name="Path 5630" class="cls-4" d="M48.739,118.314v.059l-1,12.14-.139.022-.234.034a27.149,27.149,0,0,1-6.233-.441L42.336,118.1l.259.043,5.882.213Z" transform="translate(3.794 22.301)"/>
              <path id="Path_5631" data-name="Path 5631" class="cls-4" d="M47.967,130.415l.259,5.062a32.1,32.1,0,0,1-5.158-.179,27.824,27.824,0,0,1-3.561-.567l-.237-.617.749-3.721.188-.068h-.176v-.043l.361.031.191.015v-.617l.8-.45.1-1.045a27.148,27.148,0,0,0,6.233.441l.234-.034.139-.022-.142,1.736Z" transform="translate(3.441 24.221)"/>
              <path id="Path_5632" data-name="Path 5632" class="cls-4" d="M40.093,129.989l-.188.068.012-.068Z" transform="translate(3.562 24.558)"/>
              <path id="Path_5633" data-name="Path 5633" class="cls-4" d="M41.832,129.989v.068l-7.155,2.577a3.7,3.7,0,0,0-1.541,1.85l-2.112,5.087-1.2-.345a53.335,53.335,0,0,1,2.577-6.048,3.328,3.328,0,0,1,1.763-1.47l5.185-1.717Z" transform="translate(1.647 24.558)"/>
              <path id="Path_5634" data-name="Path 5634" class="cls-4" d="M32.128,138.329l-.974,4.526a1.07,1.07,0,0,0-.459.743,2.235,2.235,0,0,1-.244,1,2.586,2.586,0,0,0-.237.906,1.418,1.418,0,0,1-.728,1.147h0a1.7,1.7,0,0,1-1.35.074s-1.591-.706-1.609-1.5.114-1,.287-1.178.743-.515.808-.894.108-.687.345-.835.8-.367.925-.761,1.954-3.342,1.954-3.342l.046-.191Z" transform="translate(1.021 26.083)"/>
              <path id="Path_5635" data-name="Path 5635" class="cls-4" d="M31.108,138.134l-.046.191s-1.825,2.941-1.954,3.342-.7.617-.925.761-.284.462-.345.835-.635.712-.808.894-.308.385-.287,1.178,1.609,1.5,1.609,1.5a1.7,1.7,0,0,0,1.35-.074h0l.052.089a1.208,1.208,0,0,1-.376.339,1.578,1.578,0,0,1-.894,0,.392.392,0,0,0-.45.117c-.1.12-.6,0-.687-.126a2.727,2.727,0,0,0-.783-.308,4.261,4.261,0,0,1-1.138-1.622c-.308-.909,1.017-2.522,1.017-2.522l3.465-5.29,1.175.691Z" transform="translate(0.804 25.973)"/>
              <path id="Path_5636" data-name="Path 5636" class="cls-4" d="M12.727,10.891l-.86,3.453a130.532,130.532,0,0,0-1.643,16.046s.018,1.014.1,2.368a2.165,2.165,0,0,0,.022.364c.034.589.083,1.233.142,1.85.216,2.3.879,5.737.879,5.737s.133.617.324,1.477v.083c.355,1.625.869,4.008,1,4.584a32.706,32.706,0,0,1,.536,8.737C13,60.8,12.7,65.234,12.7,65.234s.034,1.6.24,3.807a39.447,39.447,0,0,0,1.606,8.478c1.7,4.96,5.78,15.568,5.78,15.568l5.1,10.256s1.461,2.466,3.265,6.335S31.81,117.2,31.81,117.2a27.224,27.224,0,0,1,1.48,5.817,12.217,12.217,0,0,1-.062,4.9,9.248,9.248,0,0,1-3.434,4.6,17.573,17.573,0,0,1-2.4,1.35h-.028c-1.233.589-2.54,1.125-3.656,1.541h0c-1.3.49-2.318.832-2.553.906a.216.216,0,0,0-.049.018H19.87l-.617-.882s5.993-1.008,9.042-3.647,3.262-3.265,3.262-3.265a9.523,9.523,0,0,0,.518-4.877,36.14,36.14,0,0,0-2.664-8.61c-1.181-2.79-3.823-8.607-3.823-8.607l-3.517-6.532-4.513-9.772s-3.564-9.865-3.8-10.845-2.257-8.4-2.3-11.875.475-10.651.475-10.651.086-6.742-.237-7.944-1.011-4.316-1.159-4.9-1.181-7.149-1.181-7.149-.617-5.521-.351-6.782a117.941,117.941,0,0,1,1.575-15.892l.749-3.2c.129-.453.265-.888.41-1.292,1.07-3,1.958-5.241,3.3-6.782S18.252.354,21.245.135c5.925-.429,11.5,3.342,11.5,3.342s.9.157,2.223,2.136c-.743-1.02-1.193-1.15-1.193-1.15S27.33.668,21.575,1.1a8.965,8.965,0,0,0-3.958,1.082l-1.233.965h0C14.728,4.781,13.871,7.361,12.727,10.891Z" transform="translate(-2.317 -0.101)"/>
              <path id="Path_5637" data-name="Path 5637" class="cls-4" d="M33.024,123.249a9.523,9.523,0,0,1-.518,4.877s-.213.617-3.262,3.265-9.033,3.647-9.033,3.647l.617.882s-.308-.043-.783-.133c0,0-1.708-4.2-3.141-5.093a3.924,3.924,0,0,0-2.7-.435l3.083-.721-2.093-18.084L12.644,102.4l-.832.117-4.119.2h0L7,107.241c-.031-.4-.046-.617-.046-.617a6.613,6.613,0,0,1-.059-3.265,43.606,43.606,0,0,0,.746-11.166c-.29-5.383-.8-10.081-.8-10.081s-.57-6.986-1.489-17.291S3.858,49.013,3.969,46.377,5.415,35.945,5.415,35.945s3.3-14.551,4.47-21.133A26.82,26.82,0,0,1,14.62,3.757l1.363-1.384c-1.338,1.557-2.226,3.8-3.3,6.8-.145.4-.281.839-.41,1.292l-.749,3.215A117.726,117.726,0,0,0,9.953,29.57c-.265,1.233.351,6.782.351,6.782s1.03,6.573,1.181,7.149.835,3.7,1.159,4.9.237,7.944.237,7.944S12.366,63.52,12.406,67s2.062,10.91,2.3,11.875,3.8,10.845,3.8,10.845l4.513,9.772,3.521,6.557s2.642,5.814,3.823,8.607A36.07,36.07,0,0,1,33.024,123.249Z" transform="translate(-3.263 0.33)"/>
              <path id="Path_5638" data-name="Path 5638" class="cls-4" d="M29.234,126.437l.12.222-.925,2.158-2.512.395a12.641,12.641,0,0,1-2.747.647l.943-2.235.345.055,4.467-1.085Z" transform="translate(0.385 23.883)"/>
              <path id="Path_5639" data-name="Path 5639" class="cls-4" d="M26.109,121.007l3.487,6.474-.308.163-4.467,1.091-.345-.055s-2.09-4.932-2.549-5.814a3.114,3.114,0,0,0-.416-.65c-.151-.163-.213-.12-.213-.12a.1.1,0,0,0-.031-.019h.576l3.749-.946.166-.308Z" transform="translate(0.023 22.817)"/>
              <path id="Path_5640" data-name="Path 5640" class="cls-4" d="M27.671,122.912l-.166.308-3.733.94h-.576a42.483,42.483,0,0,1-4.932-3.274c-1.964-1.572-3.28-4.834-4.1-6.674l-.222-.484a12.593,12.593,0,0,0-2.75-3.351l1.128-.392h.025l.493-.114a3.924,3.924,0,0,1,2.676.425c1.433.888,3.141,5.093,3.141,5.093l.983,1.406.373,1.606.974,1.486,1.03-.284,1.717,1.85.8-.259Z" transform="translate(-1.89 20.724)"/>
              <path id="Path_5641" data-name="Path 5641" class="cls-4" d="M24.6,127.591l-.943,2.235-2.922-2.577-.145-.145.145-.543Z" transform="translate(-0.105 23.907)"/>
              <path id="Path_5642" data-name="Path 5642" class="cls-4" d="M24.765,128.457l-3.85-1.03-1.175-2.691h0s1.945-2.491,1.945-2.6l.126-.136a3.113,3.113,0,0,1,.4.66C22.675,123.534,24.765,128.457,24.765,128.457Z" transform="translate(-0.266 23.04)"/>
              <path id="Path_5643" data-name="Path 5643" class="cls-4" d="M26.419,130.013H22.581l-16.493-2.09v0l-.028-2.346,15.574,1.862,1.717-.145.145.145Z" transform="translate(-2.864 23.719)"/>
              <path id="Path_5644" data-name="Path 5644" class="cls-4" d="M23.756,124.21l-.126.136c0,.114-1.945,2.6-1.945,2.6h0l-2.176-1.088a9.557,9.557,0,0,1-2.432-1.8A28.59,28.59,0,0,1,12.2,116.7c-1.575-3.391-2.725-3.6-2.725-3.6l-.046-.466,1.008-.617,1.017-.617-.287-.987.345-.1a12.593,12.593,0,0,1,2.75,3.351l.222.484c.82,1.85,2.136,5.1,4.1,6.674a42.484,42.484,0,0,0,4.932,3.274.1.1,0,0,1,.031.018S23.605,124.047,23.756,124.21Z" transform="translate(-2.223 20.823)"/>
              <path id="Path_5645" data-name="Path 5645" class="cls-4" d="M22.626,126.506l1.19,2.691-.145.543-1.717.145-15.577-1.85-.543-.484h0L4.463,117.378s-.173-2.975,1.2-4.519h.126l.244,3.619,1.489,3.894H9.9l.888-4.1-.348-3.6s1.15.194,2.725,3.6a28.59,28.59,0,0,0,4.868,7.362,9.556,9.556,0,0,0,2.432,1.8Z" transform="translate(-3.168 21.271)"/>
              <path id="Path_5646" data-name="Path 5646" class="cls-4" d="M19.69,115.153l1.289,2.95-.318.487-1.03.284-.974-1.486-.373-1.606h0l1.39-.626Z" transform="translate(-0.543 21.741)"/>
              <path id="Path_5647" data-name="Path 5647" class="cls-4" d="M19.533,114.616l.308.666-1.39.617h0l-.983-1.406c.49.089.783.133.783.133h1.233A.216.216,0,0,1,19.533,114.616Z" transform="translate(-0.698 21.616)"/>
              <path id="Path_5648" data-name="Path 5648" class="cls-4" d="M13.977,95.494l2.09,18.093-3.083.721a3.7,3.7,0,0,0-.493.114h-.025l-1.128.392-.345.1-.025-.1,2.115-7.359-.826-11.684-1.893-9.014.237-.2.832-.117Z" transform="translate(-2.047 16.291)"/>
              <path id="Path_5649" data-name="Path 5649" class="cls-4" d="M12.53,95.728l.826,11.684-2.115,7.359.025.1.287.986-1.017.632-1.008.629-.194-2.038v0l2.1-7.238L10.5,96.132,8.939,88.141l0,0,1.686-1.43Z" transform="translate(-2.317 16.341)"/>
              <path id="Path_5650" data-name="Path 5650" class="cls-4" d="M11.23,95.9l.937,11.708-2.1,7.238v0l.194,2.038.046.465.348,3.6-.888,4.1H7.392L5.9,121.158l-.244-3.619-.043-.623-.546-1.572v-.774L7.133,107.5,6.1,95.94h0l.783-3.635.934-4.337,1.853-.059,0,0Z" transform="translate(-3.051 16.569)"/>
              <path id="Path_5651" data-name="Path 5651" class="cls-4" d="M11.215,86.542l-.237.2L9.291,88.17l-1.853.059L7.1,86.739Z" transform="translate(-2.667 16.309)"/>
              <path id="Path_5652" data-name="Path 5652" class="cls-4" d="M7.206,86.708,7.548,88.2l-.925,4.334h0c-.046-.533-.08-.974-.1-1.3h0l.7-4.522Z" transform="translate(-2.777 16.341)"/>
              <path id="Path_5653" data-name="Path 5653" class="cls-4" d="M6.336,128h0a9.3,9.3,0,0,1-1.566-2.158h0l.993-.681h0l.543.484Z" transform="translate(-3.109 23.641)"/>
              <path id="Path_5654" data-name="Path 5654" class="cls-4" d="M4.653,117.693l1.372,10.173-.993.675h0c-.062-.117-.092-.182-.092-.182s-1.03-5.5-1.5-10.608S5.4,110.969,5.4,110.969l.546,1.575.043.617H5.858C4.48,114.718,4.653,117.693,4.653,117.693Z" transform="translate(-3.374 20.947)"/>
              <path id="Path_5655" data-name="Path 5655" class="cls-16" d="M75.805,136.55H73.579s1.2,1.489,7.784-.228,7.161-3.437,15.121-5.669l9.557-3.32s4.294-.515,5.857-2.636a15.633,15.633,0,0,0,2.4-9.557c-.222-3.561-.82-5.715-4.843-7.146-.12-.046-.244-.086-.37-.129-4.353-1.433-12.655-2.232-22.964-1.261s-19.015,1.72-19.015,1.72a16.541,16.541,0,0,1-2.254-.228,26.256,26.256,0,0,0-3.736.191l-5.068.194-5.549-.043h0v.367" transform="translate(5.574 20.037)"/>
              <path id="Path_5656" data-name="Path 5656" class="cls-7" d="M31.025,139.87l2.1-5.093a3.718,3.718,0,0,1,1.541-1.85h0l7.343-2.648h-2.66l-5.2,1.72a3.348,3.348,0,0,0-1.76,1.47,53.1,53.1,0,0,0-2.577,6.045Z" transform="translate(1.646 24.613)"/>
              <path id="Path_5657" data-name="Path 5657" class="cls-7" d="M31.073,138.626s-1.825,2.941-1.954,3.339-.7.617-.925.765-.281.459-.345.835-.617.709-.8.891-.308.388-.29,1.184,1.612,1.5,1.612,1.5a1.708,1.708,0,0,0,1.353-.074,1.409,1.409,0,0,0,.728-1.15,2.623,2.623,0,0,1,.237-.9,2.244,2.244,0,0,0,.247-1.008,1.07,1.07,0,0,1,.459-.743l.974-4.526-1.261-.308-1.175-.691-3.465,5.29s-1.341,1.606-1.03,2.531a4.316,4.316,0,0,0,1.138,1.622s.7.16.786.308.589.247.687.129a.392.392,0,0,1,.45-.117,1.566,1.566,0,0,0,.891,0,1.3,1.3,0,0,0,.441-.419" transform="translate(0.806 26.029)"/>
              <path id="Path_5658" data-name="Path 5658" class="cls-7" d="M15.955,2.819c-.059.052-.117.108-.173.166h0c-1.64,1.631-2.494,4.214-3.638,7.741-.018.052-.037.1-.052.16" transform="translate(-1.719 0.415)"/>
              <path id="Path_5659" data-name="Path 5659" class="cls-7" d="M60.56,93.136c-.287-.6-.462-.959-.462-.959L55.2,81.313s-4.455-8.287-.617-19.844h0c.062-.2.129-.395.2-.595h0c.259-.734.552-1.477.882-2.235C61.34,45.624,53.18,40.812,53.18,40.812l-2.466-1.739-8.7-6.119a5.918,5.918,0,0,1-1.89-1.982,27.271,27.271,0,0,1-3.006-6.227c0-.037-.028-.906-.04-.946" transform="translate(3.026 4.398)"/>
              <line id="Line_700" data-name="Line 700" class="cls-7" x1="0.006" y1="0.077" transform="translate(56.461 127.211)"/>
              <path id="Path_5660" data-name="Path 5660" class="cls-7" d="M59.328,86.824A53.45,53.45,0,0,1,61.7,92.682c.684,2.577.943,10.13-4.331,13.225" transform="translate(6.878 16.363)"/>
              <path id="Path_5661" data-name="Path 5661" class="cls-7" d="M60.157,86.8a55.638,55.638,0,0,1,2.636,6.212c.709,2.577,1.674,10.007-4.855,13.916-.459.277-.9.536-1.326.777" transform="translate(6.733 16.358)"/>
              <path id="Path_5662" data-name="Path 5662" class="cls-7" d="M18.261,114.93s-.29-.04-.783-.129" transform="translate(-0.696 21.674)"/>
              <path id="Path_5663" data-name="Path 5663" class="cls-7" d="M16,2.674,14.63,4.058A26.82,26.82,0,0,0,9.9,15.113C8.73,21.688,5.413,36.242,5.413,36.242S4.09,44.029,3.979,46.659,4.436,54.791,5.354,65.1,6.84,82.395,6.84,82.395s.515,4.7.8,10.078A43.332,43.332,0,0,1,6.9,103.641a6.659,6.659,0,0,0,.055,3.271s.018.222.049.617H7c.022.324.059.761.1,1.3h0" transform="translate(-3.261 0.387)"/>
              <line id="Line_701" data-name="Line 701" class="cls-7" y1="0.003" transform="translate(7.028 131.774)"/>
              <path id="Path_5664" data-name="Path 5664" class="cls-7" d="M10.318,117.917l.348,3.6-.888,4.1H7.4l-1.489-3.894-.284-4.242L5.083,115.9v-.774l2.059-7.072L6.113,96.5v-.006l-.028-.318.709-4.609v0l.694-4.522,4.122-.2-.237.2L9.683,88.474l1.557,7.987.937,11.712-2.1,7.235v0l.2,2.038Z" transform="translate(-3.049 16.366)"/>
              <path id="Path_5665" data-name="Path 5665" class="cls-7" d="M9.3,88.439,7.45,88.5,7.1,87.008" transform="translate(-2.665 16.398)"/>
              <line id="Line_702" data-name="Line 702" class="cls-7" y1="7.969" x2="1.72" transform="translate(3.064 104.895)"/>
              <path id="Path_5666" data-name="Path 5666" class="cls-7" d="M10.544,87.008l1.9,9.02.829,11.684-2.118,7.359.311,1.085-1.017.632-1,.629" transform="translate(-2.221 16.398)"/>
              <line id="Line_703" data-name="Line 703" class="cls-7" x1="0.006" transform="translate(60.364 99.062)"/>
              <path id="Path_5667" data-name="Path 5667" class="cls-7" d="M56.1,89.06c-.12-.5-.358-1.233-.669-2.158" transform="translate(6.51 16.378)"/>
              <path id="Path_5668" data-name="Path 5668" class="cls-7" d="M19.885,42.266h0l-3.3.37a1.788,1.788,0,0,1-1.733-1.162h0a17.957,17.957,0,0,1-.561-3.551V37.91c-.074-.854-.108-1.5-.108-1.5l2.577-10.26a.669.669,0,0,1,.043-.123h0" transform="translate(-1.321 4.821)"/>
              <path id="Path_5669" data-name="Path 5669" class="cls-7" d="M16.868,30.034h0l-2.1,7.772c.059,1.976,1.375,1.8,1.375,1.8s1.3-.08,2.836-.207h0" transform="translate(-1.21 5.582)"/>
              <path id="Path_5670" data-name="Path 5670" class="cls-7" d="M15.312,37.852s1.43-.086,2.432-.2a.9.9,0,0,0,.731-.617" transform="translate(-1.107 6.911)"/>
              <line id="Line_704" data-name="Line 704" class="cls-7" x1="0.277" y2="0.293" transform="translate(34.419 103.326)"/>
              <path id="Path_5671" data-name="Path 5671" class="cls-7" d="M75.827,136.85H73.6s1.2,1.489,7.79-.228,7.158-3.434,15.106-5.669l9.557-3.32s4.3-.518,5.842-2.636a15.747,15.747,0,0,0,2.408-9.557c-.228-3.659-.86-5.857-5.213-7.275s-12.639-2.232-22.964-1.258-19.015,1.717-19.015,1.717a17.061,17.061,0,0,1-2.254-.228,26.3,26.3,0,0,0-3.739.191l-5.068.194-5.549-.043v.367" transform="translate(5.574 20.095)"/>
              <path id="Path_5672" data-name="Path 5672" class="cls-7" d="M80.9,131.751a43.007,43.007,0,0,1,.99-5.669c1.033-5.111-1.625-7.26-1.625-7.26s-.826-1.159-3.961-2.62S61.894,114,61.894,114a38.142,38.142,0,0,1,8.94,7.436c3.65,4.381,6.761,7.994,6.761,7.994l1.461,2.534-.065,2.059S81.076,132.91,80.9,131.751Z" transform="translate(7.736 21.522)"/>
              <path id="Path_5673" data-name="Path 5673" class="cls-7" d="M50.507,109.137s5.638.459,13.549,5.789" transform="translate(5.575 20.599)"/>
              <line id="Line_705" data-name="Line 705" class="cls-7" x2="25.455" y2="1.366" transform="translate(53.72 155.585)"/>
              <path id="Path_5674" data-name="Path 5674" class="cls-7" d="M42.385,124.435l5.882.213,1.785-.419.771-.182,1.233-11.453v-.145l.108-.974.049-.481.148-1.393.691-6.44,1.011-9.134,2.889-7.09" transform="translate(4.032 16.384)"/>
              <path id="Path_5675" data-name="Path 5675" class="cls-7" d="M47.328,124.646,49.634,104.7l1.221-10.552,3.286-7.211" transform="translate(4.971 16.385)"/>
              <path id="Path_5676" data-name="Path 5676" class="cls-7" d="M87.976,104.461l2.448-16.647-1.215-6.64-10.417-.388-1.36-1.313s-.524-1.924.826-2.186,8.176-.336,8.176-.336,12.917.247,13.786.086,13.758.882,13.758.882a1.485,1.485,0,0,1,1.082,1.31c0,1-.4,1.289-.4,1.289l-.94.925a16.368,16.368,0,0,1-2.429,0c-2.321-.059-8.1,0-8.1,0l-6.5-.259H89.209" transform="translate(10.667 14.488)"/>
              <path id="Path_5677" data-name="Path 5677" class="cls-7" d="M100.292,80.717l-3.949,6.437-3.78,17.778a17.167,17.167,0,0,1,7.559,6.184,9.275,9.275,0,0,1,.925,1.44l.453.617" transform="translate(13.559 15.204)"/>
              <path id="Path_5678" data-name="Path 5678" class="cls-7" d="M47.731,118.7l-1.144,13.876,1.356-.515,1.31-13.78" transform="translate(4.83 22.334)"/>
              <path id="Path_5679" data-name="Path 5679" class="cls-7" d="M50.608,112.7l11.462-1.085s4.932-.4,5.786-.632,6.872-2.553,6.872-2.553,6.757-3.73,12.948-4.316,8.172-.4,11.8.617L102.8,87.133l3.619-6.631" transform="translate(5.594 15.163)"/>
              <path id="Path_5680" data-name="Path 5680" class="cls-7" d="M49.275,87.77l4.39.025,3.234.015,6.782-.126,1.434-.028h.194c1.171-.028,2.8-.062,4.264-.1l.691-.04c.783-.022,1.483-.04,1.995-.062a34.886,34.886,0,0,0,5.688-.925l.882-.99s.385-.308.324-1.31S77.988,83,77.988,83s-2.941.447-3.8.66a20.067,20.067,0,0,1-3.225.173l-2.525-.142-.647-.034c-1.215-.068-2.648-.151-4.048-.237h0c-2.112-.123-4.162-.25-5.315-.336-.959-.077-2.775-.089-4.834-.074-1.461,0-3.037.031-4.5.062-3.058.059-5.629.139-5.629.139s-5.518.666-6.853,1.011-.687,2.232-.687,2.232l1.44,1.233h.715l3.5.031,7.057.065h.543l1.89,7.645-.173,2.084L49.349,115.9l-.518,6.221L48.68,125l.86.126-1.31,13.059-.8.45v.617l-.191-.019L29.7,137.785a12.658,12.658,0,0,1-2.75.647H23.1L6.6,136.342a9.5,9.5,0,0,1-1.569-2.158c-.062-.117-.092-.182-.092-.182s-1.023-5.484-1.5-10.583,1.964-6.782,1.964-6.782" transform="translate(-3.372 15.636)"/>
              <path id="Path_5681" data-name="Path 5681" class="cls-7" d="M10.568,86.858l.832-.117,2.549,9.051,2.09,18.1-3.08.721-.49.114" transform="translate(-2.008 16.347)"/>
              <path id="Path_5682" data-name="Path 5682" class="cls-7" d="M12.144,110.295h.028a3.171,3.171,0,0,1,.49-.114,3.888,3.888,0,0,1,2.676.425c1.433.888,3.141,5.093,3.141,5.093l.983,1.406.373,1.6.98,1.483,1.03-.284,1.72,1.85.8-.259,3.5,1.89,3.607,6.7-.925,2.158-2.519.413" transform="translate(-1.709 20.783)"/>
              <path id="Path_5683" data-name="Path 5683" class="cls-7" d="M12.324,110.264l-1.128.392a12.537,12.537,0,0,1,2.75,3.351c.068.148.145.308.222.484.823,1.85,2.139,5.1,4.1,6.674a42.954,42.954,0,0,0,4.954,3.289s.173-.111.617.774,2.562,5.82,2.562,5.82l-.943,2.235L22.537,130.7" transform="translate(-1.889 20.813)"/>
              <line id="Line_706" data-name="Line 706" class="cls-7" y1="1.088" x2="4.467" transform="translate(24.856 150.826)"/>
              <line id="Line_707" data-name="Line 707" class="cls-7" y1="0.943" x2="3.752" transform="translate(21.878 144.296)"/>
              <path id="Path_5684" data-name="Path 5684" class="cls-7" d="M5.662,113.149c-1.375,1.541-1.2,4.522-1.2,4.522l1.375,10.173.543.487,15.574,1.85,1.72-.145.145-.543L22.639,126.8l-2.173-1.088a9.521,9.521,0,0,1-2.432-1.807,28.554,28.554,0,0,1-4.871-7.359c-1.575-3.41-2.725-3.585-2.725-3.585" transform="translate(-3.169 21.325)"/>
              <path id="Path_5685" data-name="Path 5685" class="cls-7" d="M21.685,122.408c0,.117-1.945,2.608-1.945,2.608" transform="translate(-0.266 23.118)"/>
              <line id="Line_708" data-name="Line 708" class="cls-7" x1="3.863" y1="1.03" transform="translate(20.648 150.826)"/>
              <line id="Line_709" data-name="Line 709" class="cls-7" x1="0.028" y1="2.349" transform="translate(3.209 149.651)"/>
              <line id="Line_710" data-name="Line 710" class="cls-7" y1="0.684" x2="0.993" transform="translate(1.671 149.164)"/>
              <path id="Path_5686" data-name="Path 5686" class="cls-7" d="M44.495,109.6s-6.474,1.714-8.94,3.548a16.108,16.108,0,0,1-6.07,2.793" transform="translate(1.583 20.686)"/>
              <path id="Path_5687" data-name="Path 5687" class="cls-7" d="M18.294,116.083l1.406-.629,1.286,2.95-.314.487" transform="translate(-0.541 21.798)"/>
              <path id="Path_5688" data-name="Path 5688" class="cls-7" d="M20.947,119.311l.256.345s.774-.031.829-.345.888-1.116,1.319-.974,1.575.284,1.8-.015a4.087,4.087,0,0,1,.774-.617c.139-.1.284-.188.422-.268a1.785,1.785,0,0,1,.635-.265c.345,0,1.434.376,1.637.342s1.286-1.175,1.572-1.175a1.98,1.98,0,0,0,1.088-.429,1.1,1.1,0,0,0-.2-1.088c-.345-.373-2.062-2.664-2.062-2.664s-.367-.333-1.517,0-7.932,3.308-7.932,3.308v.453Z" transform="translate(-0.298 21.144)"/>
              <path id="Path_5689" data-name="Path 5689" class="cls-7" d="M20.15,115.9l7.559-2.778,1.689,2.133" transform="translate(-0.189 21.355)"/>
              <path id="Path_5690" data-name="Path 5690" class="cls-7" d="M37.568,83.27s2.047-.395,5.1-.743c1.31-.151,2.805-.293,4.4-.392,1.027-.065,2.1-.108,3.185-.129,2.2-.037,4.4-.028,6.357,0,1.443.022,2.759.052,3.853.083l.617.022c.835.025,1.507.049,1.958.068s.842.052,1.261.108l7.2.925" transform="translate(3.118 15.444)"/>
              <path id="Path_5691" data-name="Path 5691" class="cls-7" d="M19.976,44.269h0a8.6,8.6,0,0,0-.046-1.335c-.062-.644-.17-1.378-.308-2.143-.281-1.572-.675-3.262-.993-4.482-.129-.493-.244-.925-.336-1.215a21.833,21.833,0,0,1-.647-4.162c0-1.07-.059-2.05-.133-2.929h0c-.077-.882-.179-1.668-.308-2.352a17.282,17.282,0,0,0-.835-3.391" transform="translate(-0.906 4.106)"/>
              <path id="Path_5692" data-name="Path 5692" class="cls-7" d="M21.621,23.627h0a17.1,17.1,0,0,1,2.42,3.468h0a52.237,52.237,0,0,1,4.008,9.2s1.316,5.549-.617,8.234a12.662,12.662,0,0,1,4.452.617,76.473,76.473,0,0,0,9.591,3.148.993.993,0,0,0,.219.019" transform="translate(0.091 4.365)"/>
              <path id="Path_5693" data-name="Path 5693" class="cls-7" d="M34.516,43.591a11.225,11.225,0,0,0,2.793-3.058c.022-.037.04-.074.059-.114a3.1,3.1,0,0,0,.376-1.335c.043-2.158.21-4.109.21-4.109" transform="translate(2.539 6.52)"/>
              <path id="Path_5694" data-name="Path 5694" class="cls-7" d="M33.366,25.311a7.217,7.217,0,0,1,3.083,5.241" transform="translate(2.32 4.685)"/>
              <path id="Path_5695" data-name="Path 5695" class="cls-7" d="M31.331,86.7s-3.551.515-4.066.57-.459.4-.459.4c2.805.17,3.265,1.717,4.239,2.861S33.163,100.733,32.7,106.4a29.53,29.53,0,0,1-2.466,9.735c4.236,1.033,13.564-2,13.564-2l-2.466-4.5a9.495,9.495,0,0,1-1.156-3.971l-.438-6.878c-.456-7.9-3.262-9.905-3.262-9.905A30.017,30.017,0,0,1,32.9,86.99,1.936,1.936,0,0,0,31.331,86.7Z" transform="translate(1.075 16.329)"/>
              <path id="Path_5696" data-name="Path 5696" class="cls-7" d="M50.866,110.479a18.944,18.944,0,0,0,2.062-1.541,2.885,2.885,0,0,0,.327-.395c.595-.851,2.775-4.072,2.648-5.808,0,0-.438-11.231-1.233-14.033H58.2s2.864,7.79,1.717,12.831a23.968,23.968,0,0,1-1.255,4.008,14.562,14.562,0,0,1-.906,1.81A6.358,6.358,0,0,1,57,108.42a15.513,15.513,0,0,1-3.813,2.041c-.207.08-.419.151-.635.219a12.834,12.834,0,0,1-1.933.459" transform="translate(5.595 16.72)"/>
              <path id="Path_5697" data-name="Path 5697" class="cls-7" d="M54.662,88.716H58.2s2.864,7.79,1.717,12.831a23.968,23.968,0,0,1-1.255,4.008,14.563,14.563,0,0,1-.906,1.81,6.355,6.355,0,0,1-.761,1.07,15.511,15.511,0,0,1-3.813,2.041c-.207.08-.419.151-.635.219a12.832,12.832,0,0,1-1.933.459" transform="translate(5.594 16.722)"/>
              <path id="Path_5698" data-name="Path 5698" class="cls-7" d="M29.946,111.739s-1.736-.8-1.566-1.917" transform="translate(1.372 20.729)"/>
              <path id="Path_5699" data-name="Path 5699" class="cls-7" d="M32.5,86.648s-4.723.57-5.241.617-.459.4-.459.4c2.805.17,3.265,1.717,4.239,2.861s2.118,10.195,1.659,15.864a29.53,29.53,0,0,1-2.466,9.735c4.236,1.033,13.564-2,13.564-2" transform="translate(1.074 16.33)"/>
              <path id="Path_5700" data-name="Path 5700" class="cls-7" d="M54.662,88.716H58.2s2.864,7.79,1.717,12.831a23.968,23.968,0,0,1-1.255,4.008,14.563,14.563,0,0,1-.906,1.81,6.355,6.355,0,0,1-.761,1.07,15.511,15.511,0,0,1-3.813,2.041c-.207.08-.419.151-.635.219a12.832,12.832,0,0,1-1.933.459" transform="translate(5.594 16.722)"/>
              <path id="Path_5701" data-name="Path 5701" class="cls-7" d="M29.946,111.739s-1.736-.8-1.566-1.917" transform="translate(1.372 20.729)"/>
              <line id="Line_711" data-name="Line 711" class="cls-7" x1="0.003" transform="translate(15.633 35.172)"/>
              <path id="Path_5702" data-name="Path 5702" class="cls-7" d="M22.621,24.007c-.207-.077-.4-.157-.595-.231h0c-2.432-.959-3.7-1.5-4.408-1.807a3.034,3.034,0,0,0-1.06-.345c-.08,0-.133.277-.163.743,0,.166-.018.355-.028.57h0c-.031,1.011,0,2.466.025,3.906h0c.052,1.942.136,3.8.154,4.334l.025.444h0l.157,3.037a11.486,11.486,0,0,0,.57,2.676c.222.567.576,1.52.983,2.614.123.333.256.681.388,1.036h0c.262.694.533,1.415.8,2.1h0c.173.447.339.882.506,1.286h0a11.579,11.579,0,0,0,1.267,2.639c.573.4,1.89-1.144,7.161-2.118a15.106,15.106,0,0,1,9.39,1.147,1.355,1.355,0,0,1,.166.068c.752.358,3.055,1.717,4.442,2.429l.262.136a.755.755,0,0,0,.157.062,1.122,1.122,0,0,0,1.458-1.039c.108-2.959-1.924-7.707-2.882-10.2q-.086-.24-.166-.444a24.594,24.594,0,0,1-1.261-4.408c-.4-5.786-1.43-7.334-1.659-7.618s-.576.342-1.72.971a3.9,3.9,0,0,1-1,.367h-.028a8.305,8.305,0,0,1-1.387.185,19.291,19.291,0,0,1-2.966-.089c-.583-.059-1.082-.114-1.6-.2a28.175,28.175,0,0,1-5.7-1.776l-1.282-.469h0" transform="translate(-0.909 3.985)"/>
              <path id="Path_5703" data-name="Path 5703" class="cls-7" d="M12.741,11.189l-.851,3.453a130.613,130.613,0,0,0-1.643,16.049s.018,1.014.1,2.368a2.543,2.543,0,0,0,.018.364c.034.589.083,1.233.142,1.85.216,2.3.879,5.734.879,5.734s.136.617.324,1.48v.08c.351,1.628.869,4.008,1,4.584a33.049,33.049,0,0,1,.536,8.74c-.216,5.216-.515,9.646-.515,9.646s.034,1.6.24,3.807a39.188,39.188,0,0,0,1.6,8.475c1.7,4.963,5.78,15.571,5.78,15.571l5.09,10.241S26.9,106.1,28.7,109.968s3.111,7.519,3.111,7.519A27.128,27.128,0,0,1,33.3,123.3a12.3,12.3,0,0,1-.062,4.9,9.248,9.248,0,0,1-3.437,4.6,16.932,16.932,0,0,1-2.4,1.35.081.081,0,0,0-.028.015c-1.233.586-2.54,1.122-3.656,1.541h0c-1.489.558-2.6.925-2.6.925H19.88l-.617-.857s5.993-1.011,9.042-3.65,3.265-3.265,3.265-3.265a9.5,9.5,0,0,0,.515-4.874,35.957,35.957,0,0,0-2.664-8.61c-1.184-2.79-3.82-8.61-3.82-8.61l-3.521-6.554-4.51-9.772s-3.564-9.865-3.8-10.845-2.254-8.4-2.3-11.875.475-10.651.475-10.651.086-6.742-.237-7.944-1.011-4.316-1.159-4.9-1.181-7.149-1.181-7.149-.617-5.524-.351-6.767a117.726,117.726,0,0,1,1.575-15.892l.749-3.218c.129-.453.268-.885.413-1.292,1.067-3,1.954-5.241,3.3-6.782S18.265.652,21.258.433c5.922-.441,11.5,3.326,11.5,3.326s.9.16,2.223,2.139A.038.038,0,0,0,35,5.93c.185.281.382.617.58.965" transform="translate(-2.315 -0.045)"/>
              <path id="Path_5704" data-name="Path 5704" class="cls-7" d="M15.193,3.291l1.252-.965A8.974,8.974,0,0,1,20.4,1.244C26.159.812,32.6,4.592,32.6,4.592s.45.133,1.19,1.153a.038.038,0,0,0,.022.031,10.5,10.5,0,0,1,.617.959l7.235,22.372c2.577,6.076,4.932,7.155,4.932,7.155l11.557,8.663s8.28,5.7,2.7,17.31c-6.166,12.858-1.076,22.421-1.076,22.421l4.6,10.87s.376.755.943,1.921" transform="translate(-1.13 0.109)"/>
              <path id="Path_5705" data-name="Path 5705" class="cls-7" d="M77.137,130.841a39.046,39.046,0,0,1-5.475,1.4" transform="translate(9.591 24.719)"/>
              <line id="Line_712" data-name="Line 712" class="cls-7" x2="1.054" y2="0.25" transform="translate(105.067 119.887)"/>
              <line id="Line_713" data-name="Line 713" class="cls-7" y1="0.003" transform="translate(61.748 103.289)"/>
              <path id="Path_5706" data-name="Path 5706" class="cls-7" d="M39.749,29.91s-.342,8.253.432,11.69c.49,2.176,1.461,8.015,2.109,11.992a15.324,15.324,0,0,0,.37,1.668l1.668,5.9q.126.438.287.869l6.838,18.056S54.112,86.371,56.328,92" transform="translate(3.518 5.558)"/>
              <path id="Path_5707" data-name="Path 5707" class="cls-7" d="M48.306,56.588,30.389,46.473,16.933,58.043l-.348.518" transform="translate(-0.866 8.703)"/>
              <path id="Path_5708" data-name="Path 5708" class="cls-7" d="M46.771,64.483,34.159,59.462l-14.8,11.406" transform="translate(-0.338 11.168)"/>
              <path id="Path_5709" data-name="Path 5709" class="cls-7" d="M22.606,83.956,37.634,72.136l14.39,5.845" transform="translate(0.278 13.575)"/>
              <path id="Path_5710" data-name="Path 5710" class="cls-7" d="M27.031,87.446a8.939,8.939,0,0,0-.647,1.215s-1.233,3.829-1.039,4.27" transform="translate(0.794 16.481)"/>
              <path id="Path_5711" data-name="Path 5711" class="cls-7" d="M30.068,111.743s-1.739-.8-1.566-1.914" transform="translate(1.395 20.73)"/>
              <path id="Path_5712" data-name="Path 5712" class="cls-7" d="M25.558,96.936h0L24.34,90.281,22.67,83.523h0l-2.408-9.748L18.045,63.738v-.022l-.388-2.42a31.023,31.023,0,0,0-.891-3.952l-1.575-5.321-2.648-9.4" transform="translate(-1.633 7.971)"/>
              <path id="Path_5713" data-name="Path 5713" class="cls-17" d="M50.04,134.225a.583.583,0,0,1-.089.691,1.437,1.437,0,0,1-.644.361,4.606,4.606,0,0,1-1,.173,31.605,31.605,0,0,1-5.225-.173,27.949,27.949,0,0,1-3.564-.577l-.237-.6,1.138-5.623.191-.207.2-.21a31.516,31.516,0,0,0,6.936.561l.234-.034c2.032-.308,1.612-.761,1.612-.761l.364.129.151,4.057,1.461-.385.256,1.612S52.383,133.6,50.04,134.225Z" transform="translate(3.443 24.147)"/>
              <path id="Path_5714" data-name="Path 5714" class="cls-7" d="M46.587,128.655l0,.092.324,6.286" transform="translate(4.83 24.304)"/>
            </g>
            <path id="Path_5715" data-name="Path 5715" class="cls-7" d="M45.274,59.591a8.768,8.768,0,0,0-3.083,6.474C42.311,69.965,51.239,86,51.239,86" transform="translate(7.553 11.193)"/>
          </g>
        </g>
      </g>
      <g id="Ellipse_228-2" data-name="Ellipse 228" class="cls-1" transform="translate(332 1511)">
        <circle class="cls-18" cx="96" cy="96" r="96"/>
        <circle class="cls-19" cx="96" cy="96" r="95.5"/>
      </g>
    </g>
  </g>
</svg>
