<svg xmlns="http://www.w3.org/2000/svg" xmlns:xlink="http://www.w3.org/1999/xlink" viewBox="0 0 193 193">
  <defs>
    <style>
      .cls-1, .cls-10, .cls-12, .cls-13, .cls-14, .cls-15, .cls-16, .cls-17, .cls-20, .cls-7, .cls-8, .cls-9 {
        fill: none;
      }

      .cls-1, .cls-2 {
        stroke: #707070;
      }

      .cls-18, .cls-2, .cls-5, .cls-6 {
        fill: #fff;
      }

      .cls-3 {
        clip-path: url(#clip-path);
      }

      .cls-4 {
        clip-path: url(#clip-path-2);
      }

      .cls-10, .cls-12, .cls-13, .cls-14, .cls-15, .cls-16, .cls-17, .cls-18, .cls-5, .cls-7, .cls-8, .cls-9 {
        stroke: #1d1d1b;
      }

      .cls-10, .cls-12, .cls-13, .cls-14, .cls-15, .cls-16, .cls-17, .cls-18, .cls-5, .cls-8, .cls-9 {
        stroke-miterlimit: 10;
      }

      .cls-10, .cls-5, .cls-7, .cls-9 {
        stroke-width: 0.588px;
      }

      .cls-7 {
        stroke-linejoin: round;
      }

      .cls-8 {
        stroke-width: 0.588px;
      }

      .cls-9 {
        stroke-linecap: round;
      }

      .cls-11 {
        fill: #1d1d1b;
      }

      .cls-12, .cls-18 {
        stroke-width: 0.294px;
      }

      .cls-13 {
        stroke-width: 0.176px;
      }

      .cls-14 {
        stroke-width: 0.22px;
      }

      .cls-15 {
        stroke-width: 0.308px;
      }

      .cls-16 {
        stroke-width: 0.306px;
      }

      .cls-17 {
        stroke-width: 0.147px;
      }

      .cls-19 {
        stroke: none;
      }
    </style>
    <clipPath id="clip-path">
      <circle id="Ellipse_228" data-name="Ellipse 228" class="cls-1" cx="96" cy="96" r="96" transform="translate(71 400)"/>
    </clipPath>
    <clipPath id="clip-path-2">
      <circle id="Ellipse_276" data-name="Ellipse 276" class="cls-1" cx="96" cy="96" r="96" transform="translate(891 678)"/>
    </clipPath>
  </defs>
  <g id="Group_442" data-name="Group 442" transform="translate(-5367 -1752)">
    <g id="Ellipse_285" data-name="Ellipse 285" class="cls-2" transform="translate(5368 1752)">
      <circle class="cls-19" cx="96" cy="96" r="96"/>
      <circle class="cls-20" cx="96" cy="96" r="95.5"/>
    </g>
    <g id="Group_398" data-name="Group 398" transform="translate(4484 241)">
      <g id="Mask_Group_41" data-name="Mask Group 41" class="cls-4" transform="translate(-7 833)">
        <g id="inclinação_modena_" data-name="inclinação modena " transform="translate(893.222 633.32)">
          <g id="Camada_1" data-name="Camada 1" transform="translate(0.293 0.293)">
            <g id="Base" transform="translate(24.661 177.305)">
              <g id="base-2">
                <path id="Path_5716" data-name="Path 5716" class="cls-5" d="M110.417,146.437v1.129l1.969-.306,1.465.53c3.55,1.758,1.654,8.448,1.654,8.448l-13.786-3.446c1.292-5.333,2.438-5.264,2.438-5.264l.164-.862Z" transform="translate(22.364 -109.419)"/>
                <path id="Path_5717" data-name="Path 5717" class="cls-6" d="M126.473,163.731l-.271,7.754s-1.771,11.084,7.194,11.588c0,0,6.087.633,7.754-6.6,0,0,2.753-4.842.4-8.771-1.4-2.326-4.683-3.016-6.462-3.877C129.691,166.363,126.473,163.731,126.473,163.731Z" transform="translate(33.719 -101.351)"/>
                <path id="Path_5718" data-name="Path 5718" class="cls-6" d="M24.671,163.948a7.785,7.785,0,0,0-6.462,3.334c-2.464,3.576,0,8.215,0,8.215,1.314,6.828,7.259,6.5,7.259,6.5,8.741-.09,7.509-10.524,7.509-10.524l.082-7.28S29.81,166.511,24.671,163.948Z" transform="translate(-17.106 -101.25)"/>
                <path id="Path_5719" data-name="Path 5719" class="cls-5" d="M54.92,146.166l.164.862s1.146-.069,2.438,5.264l-13.786,3.446s-1.9-6.69,1.654-8.448l1.465-.53,1.969.306v-1.129Z" transform="translate(-4.922 -109.652)"/>
                <path id="Path_5720" data-name="Path 5720" class="cls-6" d="M76.755,179.232v1.508h-2.7l-.909,2.012.172,12.532,1,2.262h2.7s.491-.5.431-2.761,0-2.83,0-2.83l4.442-.034v4.308s.146,1.292.431,1.292h2.723a7.93,7.93,0,0,0,1.292-2.761c.185-1.245-.03-11.731-.03-11.731l-.982-2.309H82.42l-.086-.922Z" transform="translate(9.034 -94.119)"/>
                <path id="Path_5721" data-name="Path 5721" class="cls-7" d="M29.872,164.342l-.151,6.781-.258.164a7.065,7.065,0,0,0-2.107-3.472,7.97,7.97,0,0,0-2.692-1.422v-1.383" transform="translate(-13.584 -101.066)"/>
                <circle id="Ellipse_269" data-name="Ellipse 269" class="cls-8" cx="7.259" cy="7.259" r="7.259" transform="translate(1.016 66.302) rotate(-0.58)"/>
                <path id="Path_5722" data-name="Path 5722" class="cls-9" d="M18.22,175.637a14.165,14.165,0,0,1-1.111-4.386,7.255,7.255,0,0,1,7.25-7.259h0" transform="translate(-17.108 -101.229)"/>
                <path id="Path_5723" data-name="Path 5723" class="cls-9" d="M17.138,171.455c0-4.006,4.114-7.022,8.125-7.022" transform="translate(-17.095 -101.024)"/>
                <circle id="Ellipse_270" data-name="Ellipse 270" class="cls-10" cx="1.249" cy="1.249" r="1.249" transform="translate(7.259 72.258)"/>
                <path id="Path_5724" data-name="Path 5724" class="cls-10" d="M23.007,167.147a38.8,38.8,0,0,0,.194,4.179c.159.194.327.358.78,0a30.408,30.408,0,0,0,2.236-3.145" transform="translate(-14.357 -99.757)"/>
                <path id="Path_5725" data-name="Path 5725" class="cls-10" d="M26.665,168.492a37.484,37.484,0,0,0-2.559,3.309c0,.254,0,.482.59.5a29.756,29.756,0,0,0,3.744-.943" transform="translate(-13.844 -99.13)"/>
                <path id="Path_5726" data-name="Path 5726" class="cls-10" d="M28.476,171.318a35.571,35.571,0,0,0-4.183.172c-.194.172-.358.323,0,.78a30.337,30.337,0,0,0,3.128,2.253" transform="translate(-13.855 -97.811)"/>
                <path id="Path_5727" data-name="Path 5727" class="cls-10" d="M27.161,174.924a38.017,38.017,0,0,0-3.421-2.412c-.254.009-.482.039-.478.616a30.311,30.311,0,0,0,1.111,3.7" transform="translate(-14.237 -97.255)"/>
                <path id="Path_5728" data-name="Path 5728" class="cls-10" d="M23.367,167.147a38.141,38.141,0,0,1,.043,4.183c-.151.2-.3.375-.775.043a30.21,30.21,0,0,1-2.412-3.016" transform="translate(-15.656 -99.757)"/>
                <path id="Path_5729" data-name="Path 5729" class="cls-10" d="M20.122,168.657a37.93,37.93,0,0,1,2.744,3.158c.017.254,0,.482-.56.538a30.5,30.5,0,0,1-3.8-.741" transform="translate(-16.456 -99.053)"/>
                <path id="Path_5730" data-name="Path 5730" class="cls-10" d="M18.542,171.941a37.957,37.957,0,0,1,4.187-.065c.207.151.375.3.047.775a30.112,30.112,0,0,1-3.016,2.425" transform="translate(-16.44 -97.576)"/>
                <path id="Path_5731" data-name="Path 5731" class="cls-10" d="M20.234,175.674a38.2,38.2,0,0,1,2.86-3.054c.246-.039.478-.06.595.508a29.561,29.561,0,0,1-.34,3.843" transform="translate(-15.65 -97.212)"/>
                <path id="Path_5732" data-name="Path 5732" class="cls-10" d="M126.3,163.575v8.276l.246.177a7.1,7.1,0,0,1,2.339-3.321,8.065,8.065,0,0,1,2.779-1.236l.09-1.361" transform="translate(33.83 -101.424)"/>
                <circle id="Ellipse_271" data-name="Ellipse 271" class="cls-10" cx="7.418" cy="7.418" r="7.418" transform="translate(160.067 67.11)"/>
                <path id="Path_5733" data-name="Path 5733" class="cls-10" d="M138.066,176.347a11.764,11.764,0,0,0,1.146-3.955c.267-4-2.081-7.461-6.079-7.754" transform="translate(37.019 -100.928)"/>
                <path id="Path_5734" data-name="Path 5734" class="cls-10" d="M139.7,172.48c.271-4-3.679-7.147-7.677-7.418" transform="translate(36.5 -100.73)"/>
                <path id="Path_5735" data-name="Path 5735" class="cls-10" d="M140.291,173.353c-.607-5.721-5.329-7.849-10.154-7.013" transform="translate(35.621 -100.216)"/>
                <circle id="Ellipse_272" data-name="Ellipse 272" class="cls-10" cx="1.249" cy="1.249" r="1.249" transform="translate(166.258 73.137)"/>
                <path id="Path_5736" data-name="Path 5736" class="cls-10" d="M132.556,167.735a37.7,37.7,0,0,1-.478,4.157c-.177.181-.349.336-.775-.052a30.625,30.625,0,0,1-2.02-3.287" transform="translate(35.222 -99.483)"/>
                <path id="Path_5737" data-name="Path 5737" class="cls-10" d="M129.209,168.91a38.842,38.842,0,0,1,2.335,3.472c-.013.25-.047.482-.625.465a30.3,30.3,0,0,1-3.67-1.193" transform="translate(34.274 -98.935)"/>
                <path id="Path_5738" data-name="Path 5738" class="cls-10" d="M127.17,171.636a38.585,38.585,0,0,1,4.162.452c.185.172.336.349-.047.78a29.924,29.924,0,0,1-3.278,2.033" transform="translate(34.237 -97.663)"/>
                <path id="Path_5739" data-name="Path 5739" class="cls-10" d="M128.125,175.229a33.814,33.814,0,0,1,3.576-2.154c.254.047.474.069.431.646a30.055,30.055,0,0,1-1.361,3.61" transform="translate(34.683 -96.992)"/>
                <path id="Path_5740" data-name="Path 5740" class="cls-10" d="M132.264,167.782a38.949,38.949,0,0,0-.327,4.17c.134.211.28.4.771.1a30.582,30.582,0,0,0,2.611-2.843" transform="translate(36.449 -99.461)"/>
                <path id="Path_5741" data-name="Path 5741" class="cls-10" d="M135.744,169.5a36.9,36.9,0,0,0-2.951,2.964c-.03.254-.047.478.521.573a29.969,29.969,0,0,0,3.83-.474" transform="translate(36.855 -98.661)"/>
                <path id="Path_5742" data-name="Path 5742" class="cls-10" d="M137.052,172.911a37.6,37.6,0,0,0-4.17-.345c-.215.138-.392.271-.1.771a29.356,29.356,0,0,0,2.83,2.624" transform="translate(36.784 -97.241)"/>
                <path id="Path_5743" data-name="Path 5743" class="cls-10" d="M134.824,176.511a38.35,38.35,0,0,0-2.645-3.244c-.246-.06-.474-.09-.625.465a30.646,30.646,0,0,0,.078,3.877" transform="translate(36.259 -96.917)"/>
                <path id="Path_5744" data-name="Path 5744" class="cls-11" d="M43.861,152.634v-.06a.125.125,0,0,1,0,.056Z" transform="translate(-4.628 -106.556)"/>
                <path id="Path_5745" data-name="Path 5745" class="cls-6" d="M44.871,150.95l-.862-.431-.383-.185v-.465C43.966,150.157,44.479,150.627,44.871,150.95Z" transform="translate(-4.738 -107.818)"/>
                <path id="Path_5746" data-name="Path 5746" class="cls-6" d="M43.767,150.832a17.383,17.383,0,0,1,1.624.862,8.847,8.847,0,0,1-1.335.827c-.03-.095-.065-.19-.09-.284a7.888,7.888,0,0,1-.3-1.443Z" transform="translate(-4.72 -107.387)"/>
                <path id="Path_5747" data-name="Path 5747" class="cls-6" d="M45.384,151.144h-.052a17.983,17.983,0,0,1-1.607-1.37,3.537,3.537,0,0,1,.56-1.292C44.725,149.49,45.186,150.6,45.384,151.144Z" transform="translate(-4.691 -108.465)"/>
                <path id="Path_5748" data-name="Path 5748" class="cls-11" d="M46.342,148.132a19.846,19.846,0,0,1-.146,3.089.25.25,0,0,1-.052.108c-.086.116-.172.181-.284.125l-.069-.043a1.292,1.292,0,0,1-.237-.31,28.126,28.126,0,0,1-1.1-2.9,1.722,1.722,0,0,1,.366-.19c.345.987.78,2.193.909,2.408.073.121.112.177.146.19a.026.026,0,0,0,.034,0c.03-.349.065-1.508.082-2.611A2.508,2.508,0,0,1,46.342,148.132Z" transform="translate(-4.352 -108.693)"/>
                <path id="Path_5749" data-name="Path 5749" class="cls-6" d="M45.918,151.977h-.039a1.017,1.017,0,0,1-.409-.569,1,1,0,0,1-.034-.254.332.332,0,0,1,.3-.358.328.328,0,0,1,.181.039h0a1,1,0,0,1,.431.573.642.642,0,0,1,.039.254.323.323,0,0,1-.465.314Z" transform="translate(-3.894 -107.385)"/>
                <path id="Path_5750" data-name="Path 5750" class="cls-6" d="M46.328,151.455Z" transform="translate(-3.477 -107.078)"/>
                <path id="Path_5751" data-name="Path 5751" class="cls-6" d="M46.011,152.612h.069c.121.151.737,1.215,1.357,2.322a1.723,1.723,0,0,1-1.064.31c-.185-1.137-.362-2.356-.362-2.585Z" transform="translate(-3.625 -106.538)"/>
                <path id="Path_5752" data-name="Path 5752" class="cls-11" d="M45.846,148.135h.026q.168.1.323.207c-.039,1.1-.069,2.27-.052,2.641,0,.022.022.034.039.039a.276.276,0,0,0,.151-.039,9.443,9.443,0,0,0,1.012-1.43c.121.172.233.353.34.543a10.092,10.092,0,0,1-1.228,1.723.617.617,0,0,1-.121.056.285.285,0,0,1-.19,0,.788.788,0,0,1-.28-.431,1.016,1.016,0,0,1-.052-.22,25.472,25.472,0,0,1,.03-3.089Z" transform="translate(-3.731 -108.627)"/>
                <path id="Path_5753" data-name="Path 5753" class="cls-6" d="M46.537,151.992c.086.034.211.09.366.168.388.19.948.482,1.43.741a4.2,4.2,0,0,1-.431,1.456C47.342,153.418,46.722,152.376,46.537,151.992Z" transform="translate(-3.379 -106.827)"/>
                <path id="Path_5754" data-name="Path 5754" class="cls-6" d="M47.787,150.159c.082.2.155.431.22.625a8.273,8.273,0,0,1,.271,1.206,8.237,8.237,0,0,1-1.615-.28h-.03l-.06-.039C46.8,151.335,47.3,150.719,47.787,150.159Z" transform="translate(-3.363 -107.683)"/>
                <path id="Path_5755" data-name="Path 5755" class="cls-11" d="M47.186,151.661c.267.134.642.327,1.167.612l.155.086v.431a2.071,2.071,0,0,1-.03.431c-.482-.258-1.043-.551-1.43-.741-.155-.078-.28-.134-.366-.168.185.383.806,1.426,1.387,2.365a2.788,2.788,0,0,1-.3.478,27.449,27.449,0,0,1-1.379-2.425,2.526,2.526,0,0,1-.138-.53,1.763,1.763,0,0,1,0-.3.689.689,0,0,1,.121-.366h0a.46.46,0,0,1,.1-.086C46.492,151.377,46.548,151.342,47.186,151.661Z" transform="translate(-3.516 -107.104)"/>
                <path id="Path_5756" data-name="Path 5756" class="cls-6" d="M47.838,152.087,47.682,152h.151S47.838,152.04,47.838,152.087Z" transform="translate(-2.845 -106.823)"/>
                <path id="Path_5757" data-name="Path 5757" class="cls-11" d="M49.755,151.642a9.645,9.645,0,0,1,.431,3.209c-.129,2.835-1.671,4.351-3.481,3.472l-.146-.082a6.315,6.315,0,0,1-2.464-3.179.125.125,0,0,0,0-.056c-.09-.237-.177-.482-.254-.732a9.874,9.874,0,0,1-.431-3.209c.125-2.839,1.671-4.347,3.485-3.446l.142.073A6.66,6.66,0,0,1,49.755,151.642Zm.069,3.016v-.5a7.535,7.535,0,0,0-.345-2.072,6.246,6.246,0,0,0-.22-.625c-.082-.194-.185-.431-.289-.663-.056-.112-.116-.224-.177-.332-.108-.19-.22-.37-.34-.543a4.738,4.738,0,0,0-1.15-1.211q-.155-.108-.323-.207h-.026l-.116-.06a2.1,2.1,0,0,0-.366-.146,1.762,1.762,0,0,0-1.172,0,1.724,1.724,0,0,0-.366.19l-.181.142a2.072,2.072,0,0,0-.323.349,3.537,3.537,0,0,0-.56,1.292,6.673,6.673,0,0,0-.121.771v.465a7.22,7.22,0,0,0,.047.862,7.889,7.889,0,0,0,.3,1.443c.026.095.06.19.09.284.086.258.185.5.293.745.06.134.125.263.19.388a5.78,5.78,0,0,0,.353.607,5.407,5.407,0,0,0,1.09,1.232,4.024,4.024,0,0,0,.353.25l.125.073.142.073a2.636,2.636,0,0,0,.5.181,2.74,2.74,0,0,0,.37.056,1.723,1.723,0,0,0,1.064-.31,1.937,1.937,0,0,0,.366-.336l.078-.065a2.787,2.787,0,0,0,.3-.478,4.2,4.2,0,0,0,.431-1.456c0-.134.026-.271.03-.431" transform="translate(-4.841 -108.989)"/>
                <path id="Path_5758" data-name="Path 5758" class="cls-11" d="M44.647,148.241c1.206,2.835,1.206,3.016,1.206,3.222a1.292,1.292,0,0,1-.082.521.246.246,0,0,1-.224.155,4.7,4.7,0,0,0-.685-.431c-.392-.323-.9-.793-1.219-1.081a6.673,6.673,0,0,1,.121-.771,17.985,17.985,0,0,0,1.607,1.37h.052c-.2-.534-.659-1.641-1.1-2.671a2.222,2.222,0,0,1,.323-.314Z" transform="translate(-4.729 -108.577)"/>
                <path id="Path_5759" data-name="Path 5759" class="cls-11" d="M45.913,151.758c.1.047.228.159.31.482a2.248,2.248,0,0,1,.069.431,19.289,19.289,0,0,1-.241,2.585,4.02,4.02,0,0,1-.353-.25c.138-.991.258-2.055.25-2.3v-.116a.039.039,0,0,0-.034,0h-.047a13.391,13.391,0,0,0-1.241,1.232c-.125-.194-.241-.4-.353-.607,1.4-1.529,1.525-1.495,1.572-1.478h.043Z" transform="translate(-4.436 -106.951)"/>
                <path id="Path_5760" data-name="Path 5760" class="cls-6" d="M45.829,152.367v.116c0,.25-.112,1.292-.25,2.3a5.406,5.406,0,0,1-1.09-1.232,13.4,13.4,0,0,1,1.241-1.232h.047a.052.052,0,0,1,.052.043Z" transform="translate(-4.335 -106.673)"/>
                <path id="Path_5761" data-name="Path 5761" class="cls-6" d="M45.756,150.633c-.034,0-.073-.069-.146-.19-.129-.215-.564-1.422-.909-2.408a1.762,1.762,0,0,1,1.172,0c0,1.1-.052,2.262-.082,2.611a.03.03,0,0,1-.034,0Z" transform="translate(-4.236 -108.72)"/>
                <path id="Path_5762" data-name="Path 5762" class="cls-6" d="M45.9,152.707a25.459,25.459,0,0,0,.345,2.74,2.634,2.634,0,0,1-.5-.181l-.142-.073-.125-.073a19.286,19.286,0,0,0,.241-2.585,2.249,2.249,0,0,0-.069-.431.775.775,0,0,0,.168.125h.034a.539.539,0,0,0,.108.039,2.085,2.085,0,0,0-.065.439Z" transform="translate(-3.87 -106.775)"/>
                <path id="Path_5763" data-name="Path 5763" class="cls-6" d="M46.07,150.962s-.026,0-.039-.039c0-.37,0-1.538.052-2.641a4.738,4.738,0,0,1,1.15,1.211,9.438,9.438,0,0,1-1.012,1.43C46.161,150.962,46.1,150.983,46.07,150.962Z" transform="translate(-3.615 -108.558)"/>
                <path id="Path_5764" data-name="Path 5764" class="cls-11" d="M46.231,152.075a.348.348,0,0,1,.069.069,28.393,28.393,0,0,1,1.616,2.753,1.939,1.939,0,0,1-.366.336c-.62-1.107-1.236-2.154-1.357-2.322h-.069v.026c0,.241.177,1.46.362,2.585a2.745,2.745,0,0,1-.37-.056,25.46,25.46,0,0,1-.345-2.74,2.084,2.084,0,0,1,.065-.461C45.955,151.929,46.149,152.032,46.231,152.075Z" transform="translate(-3.737 -106.812)"/>
                <path id="Path_5765" data-name="Path 5765" class="cls-6" d="M50.05,151.912a9.232,9.232,0,0,1,.431,3.063c-.129,2.852-1.766,4.308-3.683,3.39l-.168-.09a7.217,7.217,0,0,1-2.96-4.248,9.232,9.232,0,0,1-.431-3.063c.129-2.848,1.762-4.308,3.683-3.395l.168.09A7.124,7.124,0,0,1,50.05,151.912Zm.194,2.968a9.646,9.646,0,0,0-.431-3.209,6.777,6.777,0,0,0-2.736-3.968l-.142-.073c-1.814-.862-3.36.625-3.485,3.446a9.874,9.874,0,0,0,.431,3.209c.078.25.164.5.254.732v.06a6.331,6.331,0,0,0,2.477,3.175l.146.082c1.809.862,3.352-.638,3.481-3.472" transform="translate(-4.92 -109.017)"/>
                <path id="Path_5766" data-name="Path 5766" class="cls-11" d="M50.448,151.734a11.11,11.11,0,0,1,.487,3.722c-.146,3.291-1.952,5.053-4.062,4.024l-.172-.086a7.945,7.945,0,0,1-3.2-4.64,11.352,11.352,0,0,1-.491-3.722c.151-3.3,1.956-5.058,4.071-4.028l.168.09A7.917,7.917,0,0,1,50.448,151.734Zm.138,3.515a9.232,9.232,0,0,0-.431-3.063,7.326,7.326,0,0,0-2.96-4.252l-.168-.09c-1.921-.935-3.554.547-3.683,3.395a9.232,9.232,0,0,0,.431,3.063,7.217,7.217,0,0,0,2.96,4.248l.168.09c1.917.935,3.554-.538,3.683-3.39" transform="translate(-5.029 -109.292)"/>
                <path id="Path_5767" data-name="Path 5767" class="cls-11" d="M45.846,152a1.086,1.086,0,0,1-.181.659,5.683,5.683,0,0,1-1.292.862c-.108-.241-.207-.487-.293-.745a8.848,8.848,0,0,0,1.335-.827c-.267-.172-.987-.538-1.624-.862l-.1-.052a7.169,7.169,0,0,1-.047-.862l.383.185.862.431a4.7,4.7,0,0,1,.685.431c.073.056.09.082.1.1a1.293,1.293,0,0,1,.177.676Z" transform="translate(-4.731 -107.674)"/>
                <path id="Path_5768" data-name="Path 5768" class="cls-6" d="M45.83,151.233a.538.538,0,0,0-.19-.056,19.845,19.845,0,0,0,.146-3.089h0l.116.06a25.765,25.765,0,0,0-.03,3.106h0Z" transform="translate(-3.797 -108.649)"/>
                <path id="Path_5769" data-name="Path 5769" class="cls-11" d="M46.851,152.052a.689.689,0,0,0-.121.366,1.763,1.763,0,0,0,0,.3.823.823,0,0,1-.164.276.35.35,0,0,0-.069-.069c-.082-.039-.289-.142-.4.211a.535.535,0,0,1-.108-.039h-.034a.776.776,0,0,1-.168-.125.659.659,0,0,0-.31-.483h-.043a2.4,2.4,0,0,1-.129-.332,2.731,2.731,0,0,1-.116-.913,1.439,1.439,0,0,1,.25-.827l.069.043c.112.056.2,0,.284-.125a.25.25,0,0,0,.052-.108.539.539,0,0,1,.19.056h.043a1.016,1.016,0,0,0,.052.22.788.788,0,0,0,.28.431.284.284,0,0,0,.19,0,2.027,2.027,0,0,1,.116.306,1.06,1.06,0,0,0,.056.215,1.8,1.8,0,0,0,.056.547v.026Zm-.819.207c.25.125.457-.073.465-.323a.642.642,0,0,0-.039-.254,1,1,0,0,0-.431-.573h0a.323.323,0,0,0-.431.138.327.327,0,0,0-.039.181,1,1,0,0,0,.034.254,1.017,1.017,0,0,0,.409.569h.039" transform="translate(-4.008 -107.65)"/>
                <path id="Path_5770" data-name="Path 5770" class="cls-6" d="M46.3,151.916a2.524,2.524,0,0,0,.138.53,27.449,27.449,0,0,0,1.379,2.425l-.065.073a28.4,28.4,0,0,0-1.615-2.753.823.823,0,0,0,.164-.276Z" transform="translate(-3.569 -106.863)"/>
                <path id="Path_5771" data-name="Path 5771" class="cls-6" d="M46.164,151.263a.616.616,0,0,0,.121-.056,10.1,10.1,0,0,0,1.228-1.723c.06.108.121.22.177.332-1.331,1.551-1.34,1.723-1.353,1.934v.034a.759.759,0,0,0-.056-.215,2.031,2.031,0,0,0-.116-.306Z" transform="translate(-3.554 -107.998)"/>
                <path id="Path_5772" data-name="Path 5772" class="cls-11" d="M47.631,149.71a7.151,7.151,0,0,1,.289.663c-.478.56-.987,1.176-1.215,1.495l.06.039h.03a8.235,8.235,0,0,0,1.615.28,8.185,8.185,0,0,1,.073.862h-.151c-.526-.284-.9-.478-1.167-.612-.638-.306-.689-.271-.719-.254a.459.459,0,0,0-.1.086v-.026h0a1.8,1.8,0,0,1-.056-.547v-.034C46.291,151.433,46.3,151.256,47.631,149.71Z" transform="translate(-3.495 -107.892)"/>
                <path id="Path_5773" data-name="Path 5773" class="cls-6" d="M45.936,153.409h-.043c-.047,0-.172-.052-1.572,1.478-.065-.125-.129-.254-.19-.388a5.682,5.682,0,0,0,1.292-.862,1.086,1.086,0,0,0,.181-.659,1.267,1.267,0,0,0-.2-.681.38.38,0,0,0-.1-.1.246.246,0,0,0,.224-.155,1.292,1.292,0,0,0,.082-.521c0-.224,0-.388-1.206-3.222l.181-.142c.263.763.887,2.542,1.1,2.9a1.293,1.293,0,0,0,.237.31,1.439,1.439,0,0,0-.25.827,2.731,2.731,0,0,0,.116.913A2.128,2.128,0,0,0,45.936,153.409Z" transform="translate(-4.502 -108.619)"/>
                <path id="Path_5774" data-name="Path 5774" class="cls-11" d="M111.454,150.23h0v.25h0A2.411,2.411,0,0,0,111.454,150.23Z" transform="translate(26.905 -107.65)"/>
                <path id="Path_5775" data-name="Path 5775" class="cls-11" d="M111.131,152.332l.078-.228h0v.254Z" transform="translate(26.755 -106.775)"/>
                <path id="Path_5776" data-name="Path 5776" class="cls-11" d="M108.983,148.208l.095-.047c.1,1.331.22,2.723.28,2.861.039.043.078.086.146.056a.754.754,0,0,0,.22-.271c.177-.31.745-2.072.965-2.753l.116.043c-.185.582-.814,2.555-1.025,2.916a.741.741,0,0,1-.258.314c-.086.043-.151,0-.215-.078A22.183,22.183,0,0,1,108.983,148.208Z" transform="translate(25.753 -108.665)"/>
                <path id="Path_5777" data-name="Path 5777" class="cls-11" d="M109.326,152.34c.121-.06.267-.082.319.431a26.931,26.931,0,0,1-.258,2.822l-.112.026c.134-1.038.3-2.52.276-2.787s-.073-.3-.207-.228l-.043.022c-.095.06-.943,1.607-1.525,2.7l-.125-.09c.34-.633,1.495-2.787,1.624-2.856Z" transform="translate(25.131 -106.68)"/>
                <path id="Path_5778" data-name="Path 5778" class="cls-11" d="M109.248,148.32a18.986,18.986,0,0,1,.2,3.136.552.552,0,0,1-.2.314.289.289,0,0,1-.258,0,10.767,10.767,0,0,1-1.417-1.551l.1-.164a9.989,9.989,0,0,0,1.335,1.46.241.241,0,0,0,.224.022.379.379,0,0,0,.146-.237c.022-.168-.09-1.572-.22-2.891Z" transform="translate(25.092 -108.54)"/>
                <path id="Path_5779" data-name="Path 5779" class="cls-11" d="M108.708,151.878a.861.861,0,0,1,.332-.129.276.276,0,0,1,.181.254,1.2,1.2,0,0,1-.086.538,29.538,29.538,0,0,1-1.452,2.615,1.624,1.624,0,0,1-.108-.134c.478-.788,1.37-2.309,1.486-2.654a.806.806,0,0,0,.065-.284.289.289,0,0,0-.1-.086.862.862,0,0,0-.254.1c-.4.207-1.258.7-1.878,1.068v-.246C107.261,152.683,108.2,152.132,108.708,151.878Z" transform="translate(24.778 -106.941)"/>
                <path id="Path_5780" data-name="Path 5780" class="cls-11" d="M109.118,151.777a1.043,1.043,0,0,1,0,.327.672.672,0,0,1-.31.431l-.056.03a12,12,0,0,1-1.9.431v-.263a12.1,12.1,0,0,0,1.852-.431l.052-.03a.53.53,0,0,0,.246-.284.38.38,0,0,0,0-.1,15.941,15.941,0,0,0-1.594-1.551c.026-.069.052-.138.082-.2C109.092,151.531,109.118,151.7,109.118,151.777Z" transform="translate(24.757 -107.693)"/>
                <path id="Path_5781" data-name="Path 5781" class="cls-11" d="M113.613,150.875c0,.177.026.353.03.534v.258a8.185,8.185,0,0,1-.215,1.805c-.052.233-.116.457-.185.685l-.078.228a6.462,6.462,0,0,1-2.443,3.369c-.082.052-.168.1-.254.142-1.783.862-3.395-.34-3.662-2.865a6.189,6.189,0,0,1-.043-.862v-.263a8.487,8.487,0,0,1,.207-1.473,6.975,6.975,0,0,1,2.727-4.308l.254-.138c1.585-.788,3.041.1,3.533,2.089l.047.224C113.565,150.513,113.591,150.694,113.613,150.875Zm-.121.616a5.031,5.031,0,0,0-.03-.513q-.026-.258-.078-.517a1.016,1.016,0,0,0-.052-.22,3.231,3.231,0,0,0-.887-1.6l-.108-.09a2.106,2.106,0,0,0-.482-.289l-.112-.043a2.189,2.189,0,0,0-1.624.108l-.1.047a.1.1,0,0,0-.052.026l-.254.134-.1.065-.095.069a5.445,5.445,0,0,0-1.486,1.646l-.1.164a7.945,7.945,0,0,0-.4.784c-.03.065-.056.134-.082.2a7.754,7.754,0,0,0-.37,1.176,7.488,7.488,0,0,0-.181,1.241v1.18a3.877,3.877,0,0,0,.681,1.852,1.614,1.614,0,0,0,.108.134,2.155,2.155,0,0,0,.332.327l.129.09a1.969,1.969,0,0,0,1.5.3l.112-.026a2.938,2.938,0,0,0,.59-.215c.09-.043.177-.095.267-.147s.19-.125.28-.19l.1-.073a5.838,5.838,0,0,0,1.417-1.723l.1-.181a7.79,7.79,0,0,0,.4-.909c.034-.078.06-.151.086-.228.09-.267.172-.538.237-.814a7.853,7.853,0,0,0,.19-1.521v-.263" transform="translate(24.716 -108.829)"/>
                <path id="Path_5782" data-name="Path 5782" class="cls-11" d="M109.815,151.982a.745.745,0,0,1,.121-.431,17.17,17.17,0,0,1,2.132-1.292v.263A17.232,17.232,0,0,0,110,151.737a.491.491,0,0,0-.082.181.431.431,0,0,0,.108.194,7.936,7.936,0,0,0,1.628.745c-.03.078-.052.151-.086.228a7.18,7.18,0,0,1-1.572-.741.6.6,0,0,1-.177-.362Z" transform="translate(26.141 -107.636)"/>
                <path id="Path_5783" data-name="Path 5783" class="cls-6" d="M109.824,151.464c.06-.284.75-2.029,1.193-3.123a3.231,3.231,0,0,1,.887,1.6,21,21,0,0,1-1.788,1.6h0c-.19.086-.254.047-.267,0a.3.3,0,0,1-.026-.082Z" transform="translate(26.145 -108.531)"/>
                <path id="Path_5784" data-name="Path 5784" class="cls-11" d="M110.009,151.231a1.839,1.839,0,0,1-.034.594,1.482,1.482,0,0,1-.573.909l-.056.026c-.383.19-.719-.078-.78-.646a1.723,1.723,0,0,1,.043-.59,1.439,1.439,0,0,1,.569-.909h.043C109.613,150.4,109.949,150.662,110.009,151.231Zm-.125.465a1.233,1.233,0,0,0,.03-.4c-.047-.431-.345-.625-.663-.461l-.047.03a1.254,1.254,0,0,0-.513.788,1.189,1.189,0,0,0-.03.392c.043.431.345.62.659.461l.056-.026a1.293,1.293,0,0,0,.508-.788" transform="translate(25.554 -107.505)"/>
                <path id="Path_5785" data-name="Path 5785" class="cls-6" d="M109.22,150.762c.319-.164.616.039.663.461a1.233,1.233,0,0,1-.03.4,1.292,1.292,0,0,1-.508.788l-.056.026c-.314.159-.616-.043-.659-.461a1.19,1.19,0,0,1,.03-.392,1.254,1.254,0,0,1,.513-.788Z" transform="translate(25.586 -107.428)"/>
                <path id="Path_5786" data-name="Path 5786" class="cls-11" d="M114.41,150.779a9.284,9.284,0,0,1-.211,3.046,8.022,8.022,0,0,1-3.2,5.036c-.1.06-.2.116-.3.164-2.089,1.047-3.985-.4-4.308-3.36a9.408,9.408,0,0,1,.207-3.046,8.006,8.006,0,0,1,3.2-5.027l.3-.168C112.187,146.381,114.091,147.815,114.41,150.779Zm-.358,2.826a8.219,8.219,0,0,0,.194-2.714c-.293-2.74-2.1-4.045-4.1-3.05l-.306.168a7.739,7.739,0,0,0-3.1,4.834,8.3,8.3,0,0,0-.19,2.71c.293,2.744,2.1,4.049,4.105,3.054q.146-.078.3-.168a7.835,7.835,0,0,0,3.093-4.834" transform="translate(24.522 -109.117)"/>
                <path id="Path_5787" data-name="Path 5787" class="cls-6" d="M114.185,150.756c-.293-2.74-2.1-4.045-4.1-3.05l-.306.168a7.827,7.827,0,0,0-3.1,4.834,8.3,8.3,0,0,0-.19,2.71c.293,2.744,2.1,4.049,4.105,3.054a3.315,3.315,0,0,0,.3-.168,7.835,7.835,0,0,0,3.093-4.834A8.22,8.22,0,0,0,114.185,150.756Zm-.409,1.064a8.187,8.187,0,0,1-.215,1.805c-.052.233-.116.457-.185.685v.254l-.065-.026a6.462,6.462,0,0,1-2.443,3.369c-.082.052-.168.1-.254.142-1.784.862-3.395-.34-3.662-2.865-.034-.28-.047-.569-.056-.862v-.254h.03a8.488,8.488,0,0,1,.207-1.473,6.975,6.975,0,0,1,2.727-4.308l.25-.138c1.59-.788,3.046.1,3.533,2.089l.043-.043.034.241-.026.026c.034.181.065.366.082.551s.03.353.039.534v.25h0" transform="translate(24.575 -108.982)"/>
                <path id="Path_5788" data-name="Path 5788" class="cls-11" d="M111.381,149.307l.039.241-.03.026-.047-.224Z" transform="translate(26.853 -108.08)"/>
                <path id="Path_5789" data-name="Path 5789" class="cls-11" d="M110.148,151.576a21,21,0,0,0,1.788-1.6l.052.22a19.2,19.2,0,0,1-1.822,1.633h0c-.19.082-.289.073-.349-.034a.78.78,0,0,1-.06-.3,18.716,18.716,0,0,1,1.189-3.218l.108.09c-.431,1.094-1.133,2.839-1.193,3.123a.348.348,0,0,0,0,.095c0,.034.078.073.267,0Z" transform="translate(26.113 -108.561)"/>
                <path id="Path_5790" data-name="Path 5790" class="cls-11" d="M109.578,151.992a.324.324,0,0,1,.078-.034,9.591,9.591,0,0,1,1.723,1.292l-.1.181a10.847,10.847,0,0,0-1.624-1.215l-.065.03c-.108.052-.164.142-.172.431a22.516,22.516,0,0,0,.431,2.456l-.1.073a20.608,20.608,0,0,1-.431-2.559C109.363,152.164,109.466,152.048,109.578,151.992Z" transform="translate(25.908 -106.844)"/>
                <path id="Path_5791" data-name="Path 5791" class="cls-6" d="M109.563,152.157l.06-.03a10.67,10.67,0,0,1,1.628,1.215,5.837,5.837,0,0,1-1.417,1.723,22.532,22.532,0,0,1-.431-2.456C109.4,152.3,109.455,152.209,109.563,152.157Z" transform="translate(25.949 -106.764)"/>
                <path id="Path_5792" data-name="Path 5792" class="cls-6" d="M109.186,151.479a.241.241,0,0,1-.224,0,9.99,9.99,0,0,1-1.335-1.46,5.389,5.389,0,0,1,1.486-1.646c.129,1.318.241,2.723.22,2.891A.379.379,0,0,1,109.186,151.479Z" transform="translate(25.12 -108.516)"/>
                <path id="Path_5793" data-name="Path 5793" class="cls-6" d="M109.126,152a.806.806,0,0,1-.065.284c-.116.345-1.008,1.865-1.486,2.654a3.877,3.877,0,0,1-.681-1.852c.62-.37,1.465-.862,1.878-1.068a.862.862,0,0,1,.254-.1C109.1,151.962,109.122,151.988,109.126,152Z" transform="translate(24.778 -106.862)"/>
                <path id="Path_5794" data-name="Path 5794" class="cls-6" d="M108.772,152.2l-.047.03a12.024,12.024,0,0,1-1.857.431,7.068,7.068,0,0,1,.185-1.241,7.324,7.324,0,0,1,.37-1.176,15.944,15.944,0,0,1,1.594,1.551.383.383,0,0,1,0,.1A.431.431,0,0,1,108.772,152.2Z" transform="translate(24.766 -107.643)"/>
                <path id="Path_5795" data-name="Path 5795" class="cls-11" d="M106.748,152.193v-.254h.026v.263Z" transform="translate(24.71 -106.852)"/>
                <path id="Path_5796" data-name="Path 5796" class="cls-6" d="M96.9,121.195l-.03,8.271s-.7.594-.491,4.437c0,0-1.03.022-1.116,2.955s-.612,18.068-.612,18.068S81.9,149.468,62.2,152.462c0,0-4.881.831-5.26,3.1s.121,2.856.121,2.856l1.723.314,5.876-.082.047-.862a71.466,71.466,0,0,1,8,1.008,41.661,41.661,0,0,1,6.957,2l.056.28s-9.478,2.072-10.77,2.369-17.1,4.261-20.825,5.424-16.108,5.6-16.108,5.6l-8.616,3.774s-2.115,1.594-1.249,5.389c.1.09.2.177.306.258.862.668,3.653,2.24,8.4.241l.918-1.659s26.175-8.461,44.032-10.455S92.7,169.948,92.7,169.948s3.1-.543,3.545,3.149,2,29.919,2,29.919.534,4.183,5.415,4.024,6.031-2.227,6.031-2.227.538-.431.659-3.041l1.417-30.195a5.068,5.068,0,0,1,3.976-.689c2.684.418,13.075,1.615,13.075,1.615s12.924,1.723,20.846,3.7,25.943,7.065,25.943,7.065l.948,1.723s3.188,1.865,5.484.918a17.032,17.032,0,0,1,3.145-1.1s1.318-4.635-1.973-6.117-21.458-9.585-41.038-13.527l-14.919-3.33s4.136-2.77,13.3-3.446,7.591-.37,7.591-.37v1.129l1.964-.306s1.06-3.395-1.215-4.554-6.733-2.865-18.8-2.128-17.1,2.964-17.1,2.964L112.478,137a2.987,2.987,0,0,0-1.025-2.852s.336-3.774-.487-4.7l-.4-6.828Z" transform="translate(-14.85 -121.195)"/>
                <path id="Path_5797" data-name="Path 5797" class="cls-10" d="M84.1,148.636l-.06-3.313s5.226-2.809,20.39-3.067,16.534,3.184,16.534,3.184.694.564.172,3.589a9.326,9.326,0,0,1-1.814.3c-.215-.086-.086-1.124-.086-1.124s-13.221-.172-21.109,3.416" transform="translate(14.118 -111.376)"/>
                <path id="Path_5798" data-name="Path 5798" class="cls-10" d="M83.542,148.439v-3.192s-5.7-3.016-20.868-3.287-16.547,3.188-16.547,3.188-.694.56-.172,3.584a9.3,9.3,0,0,0,1.814.306c.215-.086.086-1.124.086-1.124s13.221-.172,21.109,3.412" transform="translate(-3.741 -111.515)"/>
                <path id="Path_5799" data-name="Path 5799" class="cls-10" d="M95.6,158.976l-.689-.327a6.066,6.066,0,0,0-3.261-.366h-.022q-4.058.681-8.146,1.086A201.329,201.329,0,0,0,62.162,162.6c-11.985,2.585-30.393,8.052-30.393,8.052l-.956,1.723c-4.187,2.507-8.616-.172-8.616-.172-1-4.579,1.292-5.79,1.292-5.79s10.891-5.445,28.777-10.5,42.408-9.551,42.408-9.551l.026.336" transform="translate(-14.852 -109.452)"/>
                <path id="Path_5800" data-name="Path 5800" class="cls-10" d="M84.136,146.943s24.521,4.5,42.408,9.551,28.777,10.5,28.777,10.5,2.288,1.215,1.292,5.794c0,0-4.454,2.68-8.646.172l-.948-1.723s-18.4-5.467-30.4-8.06A203.346,203.346,0,0,0,95.3,159.94q-4.084-.409-8.146-1.081H87.13a6.031,6.031,0,0,0-3.257.366l-.694.327" transform="translate(13.715 -109.183)"/>
                <path id="Path_5801" data-name="Path 5801" class="cls-10" d="M72.173,154.965s.887,1.017,1.495,12.493,1.12,20.14,1.12,20.14.366,4.037,6.07,3.649a18.6,18.6,0,0,0,2.8-.379,4.088,4.088,0,0,0,3.188-3.8l1.469-31.276" transform="translate(8.58 -105.441)"/>
                <path id="Path_5802" data-name="Path 5802" class="cls-10" d="M81.488,156.887c5.768.146,8.444-2.559,8.444-2.559l.026-.336-.612-21.26a7.207,7.207,0,0,0-.228-1.633,2.559,2.559,0,0,0-.5-1.06s-.194,2.852-7.13,2.852H79.993c-6.932,0-7.13-2.852-7.13-2.852a2.606,2.606,0,0,0-.5,1.06,6.979,6.979,0,0,0-.233,1.633l-.612,21.26.026.336s2.675,2.705,8.444,2.559Z" transform="translate(8.277 -117.069)"/>
                <path id="Path_5803" data-name="Path 5803" class="cls-10" d="M79.637,134.39c-6.091.095-6.932-2.688-6.932-2.688v-2.766s-.065-1.585.487-2.107c0,0-.065,2.559,6.8,2.529h.487c6.871.03,6.807-2.529,6.807-2.529.551.521.487,2.107.487,2.107v2.74s-.862,2.783-6.936,2.688Z" transform="translate(8.827 -118.566)"/>
                <path id="Path_5804" data-name="Path 5804" class="cls-10" d="M73.057,129.677v-8.482s2.835.271,6.957.81,6.7.633,6.7.633l.254,6.712s-.349,2.809-6.742,2.645S73.057,129.677,73.057,129.677Z" transform="translate(8.993 -121.195)"/>
                <path id="Path_5805" data-name="Path 5805" class="cls-10" d="M75.607,179.353v1.331a1,1,0,0,1,.538.862H80.94s.086-.775.345-.819v-1.06" transform="translate(10.182 -94.063)"/>
                <path id="Path_5806" data-name="Path 5806" class="cls-10" d="M76.466,180.26h-2.7l.258,16.8h2.71s.517-.345.431-1.814l-.172-14.13" transform="translate(9.323 -93.64)"/>
                <path id="Path_5807" data-name="Path 5807" class="cls-10" d="M74.139,180.26l-.431.788c-.862,1.65-.47.823-.543,7.207v.146c.073,6.384-.155,6.221.719,7.875l.431.788" transform="translate(9.031 -93.64)"/>
                <path id="Path_5808" data-name="Path 5808" class="cls-10" d="M79.837,180.26h2.7l-.258,16.8H79.557s-.517-.345-.431-1.814l.172-14.13" transform="translate(11.819 -93.64)"/>
                <path id="Path_5809" data-name="Path 5809" class="cls-10" d="M81.545,180.337l.431.788c.862,1.65.47.827.543,7.212v.142c-.073,6.384.151,6.225-.724,7.875l-.431.788" transform="translate(12.868 -93.604)"/>
                <line id="Line_714" data-name="Line 714" class="cls-10" x2="4.502" transform="translate(86.508 97.58)"/>
                <path id="Path_5810" data-name="Path 5810" class="cls-9" d="M17.446,172.465c0-4.006,3.4-6.863,7.41-6.863a7.246,7.246,0,0,1,3.175.431" transform="translate(-16.951 -100.491)"/>
                <circle id="Ellipse_273" data-name="Ellipse 273" class="cls-10" cx="6.169" cy="6.169" r="6.169" transform="translate(161.338 68.2)"/>
                <circle id="Ellipse_274" data-name="Ellipse 274" class="cls-10" cx="6.169" cy="6.169" r="6.169" transform="translate(2.201 67.316)"/>
                <line id="Line_715" data-name="Line 715" class="cls-10" y1="0.073" x2="2.421" transform="translate(44.028 37.458)"/>
                <path id="Path_5811" data-name="Path 5811" class="cls-7" d="M55.194,151.992s-1.172-4.308-1.982-4.739l-.194,4.872-3.6.939-.095-.939a8.465,8.465,0,0,0-1.254-3.145v-1.753a3.115,3.115,0,0,0,2.895,1.1c1.857-.3,2.051-1.1,2.051-1.1l-.487-.719v.53H49.12v-.909" transform="translate(-2.663 -109.563)"/>
                <line id="Line_716" data-name="Line 716" class="cls-10" x1="2.537" y1="0.073" transform="translate(130.756 37.97)"/>
                <path id="Path_5812" data-name="Path 5812" class="cls-7" d="M102,152.253s1.09-4.166,1.939-4.648l.207,5.1,3.774.982.1-.982a8.763,8.763,0,0,1,1.318-3.291v-1.835a3.253,3.253,0,0,1-3.041,1.155c-1.947-.314-2.154-1.155-2.154-1.155l.521-.758v.556h3.58v-.943" transform="translate(22.497 -109.419)"/>
              </g>
            </g>
            <path id="Path_5813" data-name="Path 5813" class="cls-5" d="M40.9,116.289,40,92.681,74.807,104.14s7.841-.172,12.493-1.335a39.634,39.634,0,0,0,8.487-3.059s9.908-5.687,15.25-7.065c4.179-1.077,7.065-1.163,18.481.043a16.5,16.5,0,0,1,6.85,2.24c6.548,4.006,7.237,5,7.237,5,3.791-.129,9.133,1.982,9.133,1.982,3.1.991,4.825,3.016,6.247,5.514.086.129,1.077,1.9,1.163,2.025.948,1.766,1.594,3.446,2.5,5.256,1.163,2.369,2.154,4.911,1.723,7.539-.388,2.326.043,5.04-1.292,7.065a17.133,17.133,0,0,1-5.256,5.3c0,2.973-11.373,3.877-11.373,3.877l-24.555.9-13.829.517-.819.043-9.822.388h-.258l-17.262.646.172,1.292s1.034.215-6.462.646-31.577,0-31.577,0l-3.059-2.412-2.456-15.035a10.4,10.4,0,0,1,4.394-9.219h0" transform="translate(16.597 42.419)"/>
            <path id="Path_5814" data-name="Path 5814" class="cls-12" d="M47.521,107.191h0" transform="translate(21.74 49.577)"/>
            <path id="Path_5815" data-name="Path 5815" class="cls-5" d="M76.484,134.21s.948.215-5.945.646-28.993,0-28.993,0l-2.8-2.412-2.283-15.035a10.919,10.919,0,0,1,4.049-9.219h0" transform="translate(16.57 50.043)"/>
            <path id="Path_5816" data-name="Path 5816" class="cls-12" d="M58.493,112.6l-4.006,1.077c-.086,0-.129-.086-.086-.129l.862-1.163,3.576-.991-.345,1.206,3.188-1.206,1.551,3.7a5.624,5.624,0,0,1-2.671,1.508L58.493,112.6" transform="translate(24.942 51.537)"/>
            <path id="Path_5817" data-name="Path 5817" class="cls-12" d="M72.207,107.438,59.339,112.65l2.111,5.256a12.765,12.765,0,0,1,2.671-1.809,4.553,4.553,0,0,1,2.068.086c1.335.3,2.671-1.379,3.791-1.809a3.619,3.619,0,0,1,2.068-.172,2.071,2.071,0,0,0,2.111-.9c1.077-1.249,1.9-.775,1.9-.775s.6-.6.56-.9-3.533-4.222-3.533-4.222S72.853,107.179,72.207,107.438Z" transform="translate(27.253 49.633)"/>
            <path id="Path_5818" data-name="Path 5818" class="cls-12" d="M72.05,107.485l-.3,1.249L60.5,113.516l1.163,2.628-.775,1.723" transform="translate(27.797 49.714)"/>
            <path id="Path_5819" data-name="Path 5819" class="cls-12" d="M72.265,111.267l-1.163.3-2.929-3.231" transform="translate(31.374 50.112)"/>
            <line id="Line_717" data-name="Line 717" class="cls-12" y1="4.179" x2="13.01" transform="translate(89.465 161.68)"/>
            <path id="Path_5820" data-name="Path 5820" class="cls-12" d="M57.391,111.6l2.843-.646,1.723.948" transform="translate(26.345 51.332)"/>
            <line id="Line_718" data-name="Line 718" class="cls-12" x1="2.24" y2="3.791" transform="translate(87.01 173.398)"/>
            <path id="Path_5821" data-name="Path 5821" class="cls-12" d="M100.136,103.931h0a.25.25,0,0,1,.172.043s6.85.862,15.767,6.634,12.709,15.078,12.709,18.05-10.468,3.877-10.468,3.877l-22.531.9" transform="translate(44.256 48.056)"/>
            <path id="Path_5822" data-name="Path 5822" class="cls-12" d="M97.883,124.376l-.775.043-9,.345-.215.043-23.565.948" transform="translate(29.579 57.594)"/>
            <path id="Path_5823" data-name="Path 5823" class="cls-12" d="M99.411,104.048a75.2,75.2,0,0,0-28.39,9.65" transform="translate(32.704 48.111)"/>
            <path id="Path_5824" data-name="Path 5824" class="cls-10" d="M99.1,102.521s7.884,2.456,12.622,4.566" transform="translate(45.805 47.398)"/>
            <path id="Path_5825" data-name="Path 5825" class="cls-10" d="M99.791,102.785a77.328,77.328,0,0,0-29.122,9.822" transform="translate(32.539 47.522)"/>
            <path id="Path_5826" data-name="Path 5826" class="cls-10" d="M122.941,128.728s7.884-3.662,8.1-10.856c.172-6.333-3.1-8.961-3.1-8.961s-4.954-3.489-20.247-3.274c0,0,7.28,4.265,10.425,7.927s4.954,5.643,5.945,9.779S122.941,128.728,122.941,128.728Z" transform="translate(49.81 48.848)"/>
            <path id="Path_5827" data-name="Path 5827" class="cls-13" d="M63.061,102.362,78.655,101.2,73.641,112.83" transform="translate(28.99 46.782)"/>
            <path id="Path_5828" data-name="Path 5828" class="cls-14" d="M114.024,97.453a59.308,59.308,0,0,0-11.2.3l-3.1.388" transform="translate(46.092 44.971)"/>
            <path id="Path_5829" data-name="Path 5829" class="cls-12" d="M73.841,102.227,98.871,99h.086" transform="translate(34.019 45.754)"/>
            <path id="Path_5830" data-name="Path 5830" class="cls-15" d="M63.98,104.4s8.185-.431,12.709-2.154A87.718,87.718,0,0,0,84.8,98.672,57.985,57.985,0,0,1,96.32,93.89a63.684,63.684,0,0,1,8.444-1.68h0" transform="translate(29.419 42.588)"/>
            <path id="Path_5831" data-name="Path 5831" class="cls-16" d="M104.652,91.857h0a48.41,48.41,0,0,0-8.521,1.465,60.916,60.916,0,0,0-11.36,4.653s-3.541,1.852-7.965,3.576S64.312,103.7,64.312,103.7" transform="translate(29.573 42.424)"/>
            <line id="Line_719" data-name="Line 719" class="cls-12" y1="0.862" x2="1.163" transform="translate(84.296 168.185)"/>
            <path id="Path_5832" data-name="Path 5832" class="cls-5" d="M92.113,144.4,77.246,163.524,42.093,121.607.637,6.524,3.188.979C3.619.251,4.153.178,5,.411a2.705,2.705,0,0,1,1.267.745,4.6,4.6,0,0,1,2.12.28A10.434,10.434,0,0,1,13.919,6c4,6.785,8.052,19.709,8.052,19.709s.724,1.723,2.585,6.6a49.774,49.774,0,0,0,4.709,9.09l1.292.862,3.373,1.964,7.836,3.813,2.352,1.159A17.266,17.266,0,0,1,49.244,52.8a11.408,11.408,0,0,1,1.723,2.128,37.645,37.645,0,0,1,2.878,6.863A35.286,35.286,0,0,1,55.116,68.7l.569,3.253,17.9,33.077.543.732s10.99,9.236,16.8,17.116a6.552,6.552,0,0,1,.806,1.417C92.983,127.061,96.951,137.241,92.113,144.4Z" transform="translate(-0.132 -0.293)"/>
            <path id="Path_5833" data-name="Path 5833" class="cls-5" d="M77.584,162.263s10.658-6.333,14.462-15.2-14.677-23.694-14.677-23.694L62.876,110.443s-7.112-7.836-9.047-10.391-6.759-10.292-7.694-16-1.249-10.58-1.249-10.58-.073-10-2.856-14.548-4.049-5.411-9.292-8.728c-3.365-2.107-8.366-5.23-11.507-7.168a20.8,20.8,0,0,1-5.678-5.135A28.493,28.493,0,0,1,12.4,32.873C10.944,29.4,7.084,17.834,6.537,15.641S4.042,3.708,4.042,3.708A18.672,18.672,0,0,1,3.4,1.067,6.312,6.312,0,0,0,1.074,3.6C.324,5.1.01,6.1.6,8.99a30.488,30.488,0,0,1,.642,4.765s.53,3.989,1.637,8.478,4.386,18.3,4.386,18.3,1.271,4.614,1.977,6.285A23.225,23.225,0,0,1,10.375,50.7l4.08,14.57L19.977,77.8l5.855,12.747,4.48,9.792,3.016,6.277,4.265,9.409,4.8,11.541a96.646,96.646,0,0,0,3.64,10.145c2.154,5.01,7.436,15.181,7.436,15.181l3.1,5.941Z" transform="translate(-0.293 0.059)"/>
            <path id="Path_5834" data-name="Path 5834" class="cls-10" d="M77.576,163.361s11.24-6.919,15.043-15.793-14.01-24.319-14.01-24.319L64.367,110.39s-7.388-7.569-9.322-10.124-6.893-9.8-8.03-15.509c-1-5.058-1.236-8.1-1.43-9.577-.047-.431.034-2.628.039-3.016-.069-2.236-.763-8.616-2.748-12.773C40.1,53.58,38.8,53.175,33.557,49.858S20.03,41.014,20.03,41.014s-4.92-4.739-6.522-8.112A140.012,140.012,0,0,1,7.532,16.489C7.024,14.292,4.9,4.362,4.9,4.362s-.146-1.038-.28-1.9a1.06,1.06,0,0,1,.961-1.249c.043,0-.284-.185-.241-.2S3.728-.338,2.617.868c-.569.633.1,2.184.1,2.184" transform="translate(0.685 -0.259)"/>
            <path id="Path_5835" data-name="Path 5835" class="cls-10" d="M44.736,128.989s-3.6-7.716-3.877-9.577a24.171,24.171,0,0,1-.095-3.9s-4.739-13.678-6.419-17.4S29.83,85.62,28.038,82.936,12.439,50.4,12.439,50.4l-1.422-4.519S9.475,37.517,10.2,34.217a52.348,52.348,0,0,1,2.132-6.854" transform="translate(4.239 12.336)"/>
            <path id="Path_5836" data-name="Path 5836" class="cls-12" d="M46.886,78.21a8.487,8.487,0,0,1,4.838-2.425,9.155,9.155,0,0,1,5.6,1.581h0A12.4,12.4,0,0,1,60.4,79.83c1.689,1.775,5.557,9.77,6.376,11.231a60.883,60.883,0,0,1,2.878,7.72,9.305,9.305,0,0,1,.168,2.973" transform="translate(21.444 34.906)"/>
            <path id="Path_5837" data-name="Path 5837" class="cls-10" d="M73.975,114.285h0c.168-.19,4.963-6.346-.6-14.264C67.7,92.008,56.221,81.927,56.221,81.927s-5.76-5.777-7.134-7.4a56.8,56.8,0,0,1-6.94-9.908C39.8,60.151,38.4,50.531,38.4,50.531l-.271-1.585" transform="translate(17.356 22.405)"/>
            <path id="Path_5838" data-name="Path 5838" class="cls-12" d="M32.381,57.223a7.307,7.307,0,0,0,.931-5.217S35.59,62.13,37.425,66.52s4.058,8.616,4.058,8.616l5.4,7.556s-9-8.818-12.45-17.585a30.531,30.531,0,0,1-2.055-7.884Z" transform="translate(14.677 23.833)"/>
            <path id="Path_5839" data-name="Path 5839" class="cls-12" d="M63.606,93.344s-2.184-6.087-6.4-9.008-5.544-2.275-5.544-2.275l-4.739-4.308s3.92-1.456,6.729-.862,4.6,1.4,7.457,4.61c0,0,1.921,1.521,5.277,8.323" transform="translate(21.461 35.376)"/>
            <path id="Path_5840" data-name="Path 5840" class="cls-12" d="M20.1,28.139s3.054,2.973,3.877,4.976,1.366,3.769,1.366,3.769,2.585,1.624,5.092,3.412S35.385,47,36.893,51.182s2.154,11.959,2.154,11.959L52.1,79.942,62.822,91.789l7.044,7.754" transform="translate(8.946 12.698)"/>
            <line id="Line_720" data-name="Line 720" class="cls-17" x1="0.258" y1="2.499" transform="translate(126.643 181.626)"/>
            <line id="Line_721" data-name="Line 721" class="cls-12" x1="0.388" y2="6.85" transform="translate(99.158 182.574)"/>
            <path id="Path_5841" data-name="Path 5841" class="cls-18" d="M68.534,125.385,65.087,138.7l1.206.388,4.049-13.915Z" transform="translate(29.935 57.964)"/>
            <path id="Path_5842" data-name="Path 5842" class="cls-18" d="M64.267,146.879h.388a4.24,4.24,0,0,0,.517-2.068,1.387,1.387,0,0,1,.3-1.292s.3-.215.215-.948a1.133,1.133,0,0,1,.56-1.12s.129.388.474-1.508,1.249-4.523.948-5.04l-.732-.215-3.877,10.684Z" transform="translate(28.99 62.404)"/>
            <path id="Path_5843" data-name="Path 5843" class="cls-18" d="M65.636,134.364l2.369.689-1.84,5.557a1.219,1.219,0,0,0-.689.775,3.554,3.554,0,0,1-.646,1.939,1.314,1.314,0,0,0,.215.991c.345.689-.6,3.016-.689,3.016s-2.068-.431-2.068-.689-.258-.775.56-3.188S65.636,134.364,65.636,134.364Z" transform="translate(28.611 62.254)"/>
            <path id="Path_5844" data-name="Path 5844" class="cls-5" d="M86.755,131.847a1.844,1.844,0,0,1-.474-1.68h0l.215-.862.215-.9.215-.775.129-.517.56-2.154s.6-1.465.991-1.465-.345,1.249,5.773.948,5.17-1.206,5.17-1.206c.732.129.732,1.379.732,1.379l.129,6.85a2.925,2.925,0,0,1-.862,1.594c-.56.474-8.228.431-10.555.431a1.663,1.663,0,0,1-1.163-.474Z" transform="translate(39.802 57.06)"/>
            <path id="Path_5845" data-name="Path 5845" class="cls-10" d="M88.3,128.381l2.628-16.026s4.394.172,5.643.129,4.308-.388,4.308-.388l-2.4,16.5a12.474,12.474,0,0,1-5.643.819c-3.619-.172-4.653-.388-4.739-.732S88.3,128.381,88.3,128.381Z" transform="translate(40.665 51.866)"/>
            <path id="Path_5846" data-name="Path 5846" class="cls-12" d="M94.978,81.664l-.6.345v.775s3.791.3,5.557.3a31.11,31.11,0,0,0,4.911-.689v-.689a37.819,37.819,0,0,1-5,.56c-1.852,0-5.126-.129-5.126-.129" transform="translate(43.598 37.668)"/>
            <line id="Line_722" data-name="Line 722" class="cls-12" x2="0.905" y2="0.517" transform="translate(147.494 118.816)"/>
            <path id="Path_5847" data-name="Path 5847" class="cls-6" d="M132.771,80.7l-51.093.862c-.9,0-2.326.9-2.326,0l-.332-1.637c0-.9,1.809-1.637,2.714-1.637l27.313-3.059c.9,0,26.408,1.206,26.408,2.111l.388,1.852C135.787,80.056,133.676,80.7,132.771,80.7Z" transform="translate(36.435 34.667)"/>
            <path id="Path_5848" data-name="Path 5848" class="cls-5" d="M100.81,127.019l.431-.172,6.031-38.169,5.428-8.659-20.881.689L93.8,89.669,89.45,126.847s-.086.431.474.474,5.428.129,5.428.129Z" transform="translate(41.299 36.901)"/>
            <path id="Path_5849" data-name="Path 5849" class="cls-5" d="M81.081,82.069l47.732-1.551,4.911-.388,2.068-2.2s-7.108,1.335-27.83,1.766S79.1,80,79.1,80,80.737,82.069,81.081,82.069Z" transform="translate(36.472 35.928)"/>
            <path id="Path_5850" data-name="Path 5850" class="cls-5" d="M135.777,79.337s.56-1.766-.388-2.628c-.819-.732-.3-1.249-7.065-1.465s-16.456-.56-21.583-.345-18.567,1.637-18.567,1.637-6.505.991-7.237,1.206-1.9,1.939-1.9,1.939" transform="translate(36.445 34.481)"/>
            <path id="Path_5851" data-name="Path 5851" class="cls-5" d="M79.1,79.876s-.215-1.465,0-1.766" transform="translate(36.428 36.01)"/>
            <path id="Path_5852" data-name="Path 5852" class="cls-5" d="M85.543,73.6l36.661-.689,3.748-.215,1.379-2.2s-5.256,1.465-21.152,1.551-22.143-.086-22.143-.086S85.241,73.6,85.543,73.6Z" transform="translate(38.774 32.461)"/>
            <path id="Path_5853" data-name="Path 5853" class="cls-5" d="M127.45,71.432s.431-1.163-.3-1.723c-.6-.474-.258-.819-5.428-.948s-12.665-.345-16.586-.215-14.259,1.077-14.259,1.077-5,.646-5.557.775-1.465,1.292-1.465,1.292c-.172.172,0,1.163,0,1.163S119.179,74.017,127.45,71.432Z" transform="translate(38.654 31.53)"/>
            <path id="Path_5854" data-name="Path 5854" class="cls-5" d="M107.316,76.069l2.542-3.834-17.275.345.948,4.05Z" transform="translate(42.762 33.269)"/>
            <path id="Path_5855" data-name="Path 5855" class="cls-12" d="M65.011,127.441,68.2,122.7,66.6,124.511l-5.6-.9" transform="translate(28.03 56.813)"/>
            <line id="Line_723" data-name="Line 723" class="cls-12" x1="3.102" y2="1.335" transform="translate(55.346 181.152)"/>
            <path id="Path_5856" data-name="Path 5856" class="cls-18" d="M72.982,122.451s-9.3-1.133-16.069-11.718a9.957,9.957,0,0,0-5.463-4.442c-5.88-1.818-12.243,2.977-12.243,2.977" transform="translate(17.862 48.965)"/>
            <path id="Path_5857" data-name="Path 5857" class="cls-12" d="M41.506,111.1c-3.4,2.8-2.5,7.367-2.5,7.367l1.723,11.761,2.154,1.9,22.229.086,5.256-.345.948-2.326c-.689-1.292-1.982-3.231-1.982-3.231-1.68-.3-8.659-3.274-11.545-6.85a40.158,40.158,0,0,1-4.351-6.031c-.732-1.594-3.446-3.274-3.446-3.274a1.388,1.388,0,0,0-.258-.086" transform="translate(17.718 50.92)"/>
            <path id="Path_5858" data-name="Path 5858" class="cls-10" d="M71.323,135.033l1.637-1.766,1.551-2.973-5.385-8.1s-4.222-1.465-5.6-2.068-3.489-.862-7.711-5.557c0,0-2.542-3.489-2.757-4.093a24.818,24.818,0,0,0-4.523-4.049L47.5,107.462s3.489,2.154,4.48,4.222,3.7,6.2,5.643,7.711,5.945,4.308,9.865,4.739c0,0,.258-.991,5.213,7.97l-.991,2.154Z" transform="translate(21.731 49.221)"/>
            <path id="Path_5859" data-name="Path 5859" class="cls-10" d="M39.656,110,38.062,95.179l.824-6.568.77-6.141,6.72-.689,3.791,12.364,1.508,15.164-2.24.689L48.056,94.835,44.7,84.151l-3.231.345L39.828,95.179,41.422,110.6l-1.766-.388Z" transform="matrix(0.978, -0.208, 0.208, 0.978, -7.692, 50.154)"/>
            <circle id="Ellipse_275" data-name="Ellipse 275" class="cls-10" cx="1.465" cy="1.465" r="1.465" transform="translate(53.956 132.635)"/>
            <path id="Path_5860" data-name="Path 5860" class="cls-5" d="M39.149,103.008l.215,9.693,1.852,1.465.646,5.6,2.5,5.213,4.265-.3,1.508-5.73-.6-5.3,1.9-1.9-.258-11.2-2.24.689.258,9.391-.215.3-7.8.646-.129-.345-.129-9.391-1.766-.388Z" transform="translate(-11.494 63.332) rotate(-16)"/>
          </g>
        </g>
      </g>
      <g id="Ellipse_228-2" data-name="Ellipse 228" class="cls-1" transform="translate(884 1511)">
        <circle class="cls-19" cx="96" cy="96" r="96"/>
        <circle class="cls-20" cx="96" cy="96" r="95.5"/>
      </g>
    </g>
  </g>
</svg>
