<svg xmlns="http://www.w3.org/2000/svg" xmlns:xlink="http://www.w3.org/1999/xlink" viewBox="0 0 195 192.59">
  <defs>
    <style>
      .cls-1, .cls-3, .cls-5, .cls-8 {
        fill: #fff;
      }

      .cls-1 {
        stroke: #707070;
      }

      .cls-2 {
        clip-path: url(#clip-path);
      }

      .cls-3, .cls-4, .cls-6, .cls-7, .cls-8 {
        stroke: #1d1d1b;
        stroke-miterlimit: 10;
      }

      .cls-3, .cls-4, .cls-6 {
        stroke-width: 0.949px;
      }

      .cls-4, .cls-7 {
        fill: #e2e2e2;
      }

      .cls-6 {
        fill: #bdbdbd;
      }

      .cls-7 {
        stroke-width: 0.873px;
      }

      .cls-8 {
        stroke-width: 0.477px;
      }

      .cls-9 {
        stroke: none;
      }

      .cls-10 {
        fill: none;
      }
    </style>
    <clipPath id="clip-path">
      <ellipse id="Ellipse_273" data-name="Ellipse 273" class="cls-1" cx="95" cy="95.295" rx="95" ry="95.295" transform="translate(11887 2151.803)"/>
    </clipPath>
  </defs>
  <g id="Group_428" data-name="Group 428" transform="translate(-11887 -2149.803)">
    <g id="Ellipse_272" data-name="Ellipse 272" class="cls-1" transform="translate(11887 2151.803)">
      <ellipse class="cls-9" cx="95" cy="95.295" rx="95" ry="95.295"/>
      <ellipse class="cls-10" cx="95" cy="95.295" rx="94.5" ry="94.795"/>
    </g>
    <g id="Mask_Group_54" data-name="Mask Group 54" class="cls-2" transform="translate(5 -2)">
      <g id="Rodinha_unica_" data-name="Rodinha unica " transform="translate(11869.7 2148.763)">
        <path id="Path_5013" data-name="Path 5013" class="cls-3" d="M90.335,32.532l.333-1.433a2.094,2.094,0,0,1-.278-1.383,25.406,25.406,0,0,1,1.226-4.542A6.2,6.2,0,0,1,96.663,22.2a15.709,15.709,0,0,1,8.18,1.64c.389.308,3.643,1.418,2.256,7.817a10.88,10.88,0,0,0-1.257,2.523,8.487,8.487,0,0,1-.621,1.766Z" transform="translate(-6.668)"/>
        <path id="Path_5014" data-name="Path 5014" class="cls-3" d="M85.04,50.754,88.855,35.08s5.551-4.3,15.825,2.21L101.46,53.943S89.894,50.461,85.04,50.754Z" transform="translate(-5.626 -2.266)"/>
        <path id="Path_5015" data-name="Path 5015" class="cls-3" d="M100.612,60.835S82.951,48.558,69.83,57.954l-9.527,43.9S64.34,69.545,100.612,60.835Z" transform="translate(-0.762 -6.342)"/>
        <path id="Path_5016" data-name="Path 5016" class="cls-3" d="M164.362,153.183s.146,5.223-6.177,16.945-29.44,28.062-51.416,25.811c-17.98-1.837-32.382-9.083-43.1-26.054S57.306,132.3,57.306,132.3Z" transform="translate(0 -21.659)"/>
        <path id="Path_5017" data-name="Path 5017" class="cls-3" d="M164.984,142.2s1.206,9.8-5.117,21.522-29.707,29.9-51.421,25.811-32.382-9.083-43.1-26.054S58.983,125.9,58.983,125.9Z" transform="translate(-0.33 -20.4)"/>
        <path id="Path_5018" data-name="Path 5018" class="cls-4" d="M156.566,103c14.76,20.861,8.316,50.8-14.4,66.868-18.858,13.342-53.354,7.569-68.124-13.307s-4.34-47.843,14.664-62.25C110.888,77.506,141.806,82.139,156.566,103Z" transform="translate(-2.09 -12.179)"/>
        <path id="Path_5019" data-name="Path 5019" class="cls-5" d="M164.886,140.431s1.292-2.473-.706-3.32-23.515-5.046-26.079-5.793-16.824-1.191-13.12-5.354,35-13.438,35-13.438l-1.564-2.654a31.739,31.739,0,0,0-10.6,3.068s-4.037.817-2.2-.469,10.718-5.551,10.718-5.551l-1.322-1.872a26.676,26.676,0,0,0-3.194,1.322c-1.307.686-18.873,10.784-26.1,15.139s-6.676-2.059-6.676-2.059a250.257,250.257,0,0,1,11.324-30.923l-2.977-.464c-.817.5-3.457,8.992-3.457,8.992s-1.135,2.362-1.317,1.554S123.774,86.5,123.774,86.5h-2.715c.389,1.711-.964,9.214-.964,9.214s-2.851,19.438-4.037,22.87-3.739,1.009-3.739,1.009-3.724-5.268-9.325-15.315a118.555,118.555,0,0,0-9.664-15.1A7.771,7.771,0,0,0,91.1,90.433c.686.5,5.884,8.543,6.257,9.84s-.641.5-.641.5c-6.005-7.832-9.27-9.033-9.27-9.033L85.5,93.557c3.447.252,21.563,23.213,23.076,27.169s-2.715,4.259-2.715,4.259l-27.351-7.973s-9.891-2.745-11.1-2.523-1.12,2.821-1.12,2.821,10.567.939,16.052,2.75c0,0,5.046,1.181-3.613.838s-9.981-.888-12.681-.3l-1.383,3s3.583-1.211,17.309.227,22.521,3.083,23.9,4.37,1.458,3.6-6.923,6.515-26.584,12.666-29.43,14.372h0l1.262,2.225s11.7-7.812,15.532-8.341c0,0,1.322.883-7.6,6.661-8.1,5.253-5.98,5.268-5.98,5.268l1.6,2.372s4.183-5.6,13.347-11.374,20.23-11.505,20.23-11.505,3.78-1.817,4.067,2.886-11.157,32.558-11.717,33.305a21.561,21.561,0,0,0-1.479,3.214l2.917.823s4.794-13.055,5.516-13.8-1.337,13.832-1.292,14.886c0,0,3.225,1.034,3.936.606s3.492-36.121,4.542-37.493,2.745-4.2,5.955,1.009,16.531,27.189,16.456,32.7l2.614-1.307s-5.46-13.12-5.485-14.039,8.034,10.092,8.382,11.818l2.5-1.64S122.159,136.99,122,135.779s-.278-5.046,5.44-3.225,26.124,7.625,30.621,10.451,5.1,3.795,5.1,3.795l1.009-2.977a67.067,67.067,0,0,0-10.991-5.394l-7.277-2.8s12.151,2.493,15,3.341A22.992,22.992,0,0,1,164.886,140.431Z" transform="translate(-1.619 -12.652)"/>
        <path id="Path_5020" data-name="Path 5020" class="cls-3" d="M167.128,134.342s2.584,6.908-5.763,18.424c-8.5,11.727-26.5,26.563-50.694,23.531-20.008-2.523-30.116-6.822-43.16-23.682-12.283-15.86-7.438-39.144-7.438-39.144Z" transform="translate(-0.531 -17.957)"/>
        <path id="Path_5021" data-name="Path 5021" class="cls-3" d="M158.276,81.413c16.224,22.935,14.775,50.341-9.053,67.2S88.426,161.5,72.2,138.562,56.211,90.118,79.171,72.078C103.459,53.028,142.047,58.478,158.276,81.413Z" transform="translate(-0.873 -7.543)"/>
        <path id="Path_5022" data-name="Path 5022" class="cls-6" d="M154.894,86.134c13.918,19.68,12.908,42.388-11.637,59.641-18.853,13.267-50.3,6.7-64.218-12.979S74.5,87.058,90.933,74.528C110.093,59.909,140.976,66.459,154.894,86.134Z" transform="translate(-3.117 -8.737)"/>
        <path id="Path_5023" data-name="Path 5023" class="cls-7" d="M153.377,88.26c12.787,18.076,7.368,41.278-10.713,54.07-15.013,10.6-44,7.065-56.785-11s-5.167-40.481,9.971-52C113.441,65.911,140.585,70.18,153.377,88.26Z" transform="translate(-4.517 -9.697)"/>
        <path id="Path_5024" data-name="Path 5024" class="cls-8" d="M165.557,118.618s1.292-2.473-.712-3.315-23.515-5.046-26.079-5.793-16.819-1.191-13.12-5.354,35-13.443,35-13.443l-1.559-2.649a31.794,31.794,0,0,0-10.6,3.063s-4.037.823-2.2-.464S157,85.111,157,85.111l-1.322-1.867a25.781,25.781,0,0,0-3.194,1.322c-1.307.686-18.873,10.779-26.1,15.139s-6.676-2.059-6.676-2.059a251,251,0,0,1,11.329-30.928l-2.982-.464c-.812.5-3.457,8.992-3.457,8.992s-1.135,2.367-1.317,1.559,1.166-12.111,1.166-12.111h-2.72c.394,1.711-.964,9.219-.964,9.219s-2.851,19.433-4.037,22.87-3.744,1.009-3.744,1.009a174.806,174.806,0,0,1-9.31-15.325,111.265,111.265,0,0,0-9.664-15.093,7.771,7.771,0,0,0-2.225,1.262c.686.5,5.884,8.543,6.257,9.835S97.4,79,97.4,79c-6.005-7.832-9.27-9.028-9.27-9.028l-1.968,1.791c3.452.247,21.563,23.213,23.076,27.164s-2.715,4.259-2.715,4.259L79.18,95.214s-9.9-2.745-11.1-2.5-1.125,2.821-1.125,2.821,10.547.954,16.032,2.77c0,0,5.046,1.186-3.613.843s-9.981-.888-12.686-.3L65.3,101.875s3.588-1.216,17.309.227,22.521,3.083,23.9,4.365,1.458,3.608-6.923,6.52-26.578,12.666-29.43,14.367l-.742.606,1.262,2.225s12.444-8.412,16.279-8.942c0,0,1.166.656-7.6,6.661s-6.868,6.378-6.868,6.378l1.923,1.569a60.538,60.538,0,0,1,13.923-11.717c9.159-5.778,20.23-11.5,20.23-11.5s3.78-1.817,4.072,2.886-11.157,32.553-11.717,33.305a21.193,21.193,0,0,0-1.484,3.214l2.917.817s4.794-13.055,5.516-13.8-1.287,12.833-1.241,13.892c0,0,2.1,1.09,2.811.661s4.567-35.187,5.627-36.555,2.74-4.2,5.95,1.009,16.582,27.87,16.5,33.421l2.9-1.191s-5.788-13.948-5.813-14.851,8.427,11.031,8.77,12.737l-.066,1.06,3.416-1.948s-23.909-32.033-24.065-33.25-.283-5.046,5.435-3.219,26.129,7.625,30.621,10.451,5.1,3.795,5.1,3.795l1.009-2.977a67.116,67.116,0,0,0-10.986-5.4l-7.267-2.8s12.177,2.4,15.007,3.26A23.688,23.688,0,0,1,165.557,118.618Z" transform="translate(-1.745 -8.364)"/>
      </g>
    </g>
  </g>
</svg>
