<svg id="Camada_1" data-name="Camada 1" xmlns="http://www.w3.org/2000/svg" viewBox="0 0 356.3 503.9"><defs><style>.cls-1{fill:#fff;}.cls-1,.cls-2{stroke:#000;stroke-miterlimit:10;}.cls-2{fill:none;}</style></defs><title>icone</title><path class="cls-1" d="M161.69,132.33c37-.5,40.87,8.89,40.87,8.89l2.78,192.12s-.28,88.13-.28,91.38-2.25,8.75-3.25,11.5,1,10.25,0,13-11.5,8.25-38.75,9-36.72-8.29-36.72-11.54-1.53-13.46-1.53-13.46L122,424.84c-.07-3.25-4.1-93.29-4.1-93.29l-4-190.08s3.56-8.83,40.56-9.14Z"/><path class="cls-1" d="M132.6,138.93,132,53.15s-2.57-9.3,12-10.52,24.38,0,27.66.73c6.12,1.4,8,2.49,8.21,9.73.2,8.09,1.25,86.78,1.25,86.78a68.91,68.91,0,0,1-23.68,4.54C140.32,144.75,132.6,138.93,132.6,138.93Z"/><path class="cls-2" d="M113.88,141.47S125,150,156.73,149.55c34.67-.5,45.83-8.33,45.83-8.33"/><path class="cls-2" d="M113.88,150.43s11.12,7.95,42.85,7.49c34.67-.5,45.83-8.35,45.83-8.35"/><path class="cls-1" d="M125,434.23s23.54,8.61,47.38,6.95,29.47-5,29.47-5"/><path class="cls-1" d="M145.63,46.19V32.54s2.93-2.66,10.69-2.66c5.71,0,8.32,1.23,9.3,2.31s1.67,14,1.67,14S156.54,49.26,145.63,46.19Z"/><path class="cls-1" d="M131.84,50.84a98.87,98.87,0,0,0,26.38,3.75c14.37,0,21.48-3.75,21.48-3.75"/></svg>