<svg xmlns="http://www.w3.org/2000/svg" viewBox="0 0 477.26 776.6"><title>Pandora diagonal_3DT3 </title><g id="Camada_2" data-name="Camada 2"><g id="Camada_3" data-name="Camada 3"><g id="base"><polyline points="214.66 727.89 214.66 760.09 228.15 760.09 228.15 728.23" style="fill:#fff;stroke:#000;stroke-miterlimit:10;stroke-width:2.07596186927827px"/><path d="M214.66,733.62h-7.5a96.82,96.82,0,0,0-2.24,22.32c.17,12.62,2.24,19.63,2.24,19.63h7.1Z" style="fill:#fff;stroke:#000;stroke-miterlimit:10;stroke-width:2.07596186927827px"/><path d="M228.15,733.62h7.47a96.82,96.82,0,0,1,2.24,22.32c-.16,12.62-2.24,19.63-2.24,19.63h-7.1Z" style="fill:#fff;stroke:#000;stroke-miterlimit:10;stroke-width:2.07596186927827px"/><path d="M113.14,655.68s-12.3,1.38-12.46,3-6,32.18,6.23,32,20.5-3.37,21.28-5.31S113.14,655.68,113.14,655.68Z" style="fill:#fff;stroke:#000;stroke-miterlimit:10;stroke-width:3.11394280391741px"/><path d="M330.64,653.78s6.45.26,9.69,1.73a19.33,19.33,0,0,1,5.66,4.16s-2.76,26.89-4.4,27.93-8.65,1.81-20.24,0,1.21-33,1.21-33Z" style="fill:#fff;stroke:#000;stroke-miterlimit:10;stroke-width:3.11394280391741px"/><path d="M205.44,679.91l2.42,46L221,729.73,234.16,727l2.42-47.05s5.19-3.47,23.18-1.39,136,12.11,136,12.11v3.11s7.61,1.74,11.42,2.08a29.49,29.49,0,0,0,6.23,0l5.87-2.08L418.06,674l-55.54-11.26-48.78-9.18,13.66-.86,1,1.9,4.84-1.9-.69-11.93-6.91-9-83.4,4.15-42.9,1-55.53-1.73-1.9-1.39-22.49-1-5,1.22-4.51,7.09-.86,2.07V655l14,.69L78.8,664.84,75.69,664l-47.75,9.7L26.74,675l-2.43,1-1,21.62,18,1L46.8,696,46.46,693l147.91-14.7S203.36,676.79,205.44,679.91Z" style="fill:#fff;stroke:#000;stroke-miterlimit:10;stroke-width:3.11394280391741px"/><line x1="203.36" y1="639.27" x2="123.09" y2="655.68" style="fill:none;stroke:#000;stroke-miterlimit:10;stroke-width:2px"/><line x1="239.27" y1="638.66" x2="313.74" y2="653.6" style="fill:none;stroke:#000;stroke-miterlimit:10;stroke-width:2px"/><polyline points="207.15 712.47 215.47 704.9 226.37 704.9 234.9 712.47" style="fill:#fff;stroke:#000;stroke-miterlimit:10;stroke-width:3.11394280391741px"/><polyline points="207.15 693.05 215.82 685.44 226.72 685.44 234.9 693.05" style="fill:#fff;stroke:#000;stroke-miterlimit:10;stroke-width:3.11394280391741px"/><line x1="215.47" y1="704.9" x2="215.3" y2="642.88" style="fill:none;stroke:#000;stroke-miterlimit:10;stroke-width:2px"/><line x1="226.55" y1="642.88" x2="226.37" y2="704.9" style="fill:none;stroke:#000;stroke-miterlimit:10;stroke-width:2px"/><line x1="332.59" y1="640.81" x2="269.6" y2="645.04" style="fill:none;stroke:#000;stroke-miterlimit:10;stroke-width:2px"/><line x1="302.66" y1="632.96" x2="308.4" y2="642.44" style="fill:none;stroke:#000;stroke-miterlimit:10;stroke-width:3.11394280391741px"/><polyline points="418.06 674.02 411.31 680.77 411.31 695.96" style="fill:#fff;stroke:#000;stroke-miterlimit:10;stroke-width:1.03798093463914px"/><path d="M236.58,679.91s-1.28-20.42,2.87-22.67,18.58-.86,18.58-.86l153.28,24.39" style="fill:none;stroke:#000;stroke-miterlimit:10;stroke-width:2px"/><path d="M205.44,679.91s1.73-24.75,0-25.09-35.46,5-35.46,5L75.86,677.48,31.57,686.3l-7.26-10.2" style="fill:none;stroke:#000;stroke-miterlimit:10;stroke-width:2px"/><line x1="78.8" y1="664.86" x2="84.6" y2="675.84" style="fill:none;stroke:#000;stroke-miterlimit:10;stroke-width:3.11394280391741px"/><polyline points="109.94 641.15 133.65 643.58 139.18 635.44 141.95 633.88" style="fill:#fff;stroke:#000;stroke-miterlimit:10;stroke-width:3.11394280391741px"/><line x1="165.94" y1="646.92" x2="133.65" y2="643.58" style="fill:none;stroke:#000;stroke-miterlimit:10;stroke-width:2px"/><path d="M199.38,637s10.82,5.44,21.89,5.44a48.37,48.37,0,0,0,20.15-4.75l-2-57.09s-11.52,4.41-19,4.41-18.94-.51-18.94-3.11S199.38,637,199.38,637Z" style="fill:#fff;stroke:#000;stroke-linejoin:round;stroke-width:3.11394280391741px"/><path d="M202.41,581.57c3-1,13.49-3.54,37.08-1,0,0-11,4.4-17.64,4.36-6.38,0-12.86,1.61-19.58-2.54a.46.46,0,0,1-.15-.64A.45.45,0,0,1,202.41,581.57Z" style="fill:#fff;stroke:#000;stroke-linejoin:round;stroke-width:1.03798093463914px"/><path d="M205.65,584.06l.88-20.06h27.24l.71,18.37S226.07,589.21,205.65,584.06Z" style="fill:#fff;stroke:#000;stroke-miterlimit:10;stroke-width:3.11394280391741px"/><polygon points="211.32 564 211.32 538.44 230 540 229.49 564 211.32 564" style="fill:#fff;stroke:#000;stroke-miterlimit:10;stroke-width:3.11394280391741px"/><path d="M40.27,699.35l1.11,22.32s1.35,20.93-19.11,20.93c-10.31,0-15.72-5.5-18.56-11a23.71,23.71,0,0,1-.25-21.38,17.37,17.37,0,0,1,11.72-9.71s7.75-1.31,12.12,1a.91.91,0,0,0,1.22-.38,1,1,0,0,0,.1-.49l-.13-2.08Z" style="fill:#fff;stroke:#000;stroke-miterlimit:10;stroke-width:2.07596186927827px"/><path d="M1.52,726.18S-1.75,709.27,15,702.89c9.73-3.7,21.36,2.74,24.18,9.88l.94,2.33" style="fill:#fff;stroke:#000;stroke-miterlimit:10;stroke-width:2.07596186927827px"/><path d="M2.55,729S.07,711.81,16.87,705.43c9.73-3.69,20.89,4,23.4,10.18L41.2,718" style="fill:#fff;stroke:#000;stroke-miterlimit:10;stroke-width:2.07596186927827px"/><path d="M12.64,711.81a.65.65,0,0,1,.86.13c1.41,1.85,7.1,9.34,6.72,10s.4,1.31-6.81-.2l-6-1.25c-.37-.07-.77-.52-.62-.86C8,717,10.81,713.08,12.64,711.81Z" style="fill:#fff;stroke:#000;stroke-miterlimit:10"/><path d="M26,708.59a.6.6,0,0,1,.43.73c-.55,2.27-2.84,11.42-3.58,11.53S22,722,18.65,715.43L15.88,710c-.17-.33-.07-.93.28-1C19,708.18,23.77,708,26,708.59Z" style="fill:#fff;stroke:#000;stroke-miterlimit:10"/><path d="M36.67,716.61a.61.61,0,0,1-.27.78c-2,1-10,5-10.53,4.5s-1.3.15,1.39-6.33c1.37-3.29,1.91-4.61,2.22-5.34.13-.34.62-.64.91-.44C32.7,711.34,35.82,714.66,36.67,716.61Z" style="fill:#fff;stroke:#000;stroke-miterlimit:10"/><path d="M8.51,732.76a.63.63,0,0,0,.85.16c1.93-1.3,9.74-6.63,9.57-7.35s.8-1.12-6.52-2l-6-.72c-.37,0-.9.25-.87.62C5.73,726.39,7.18,731,8.51,732.76Z" style="fill:#fff;stroke:#000;stroke-miterlimit:10"/><path d="M20.68,739.84a.62.62,0,0,0,.66-.56c.24-2.32,1.15-11.72.5-12s-.36-1.34-5.71,3.71l-4.44,4.16c-.27.26-.39.85-.08,1C14,737.89,18.45,739.72,20.68,739.84Z" style="fill:#fff;stroke:#000;stroke-miterlimit:10"/><path d="M33.21,735.8a.59.59,0,0,0,0-.82c-1.51-1.61-7.71-8.09-8.36-7.82s-1.17-.59-.85,6.42c.16,3.56.23,5,.26,5.78,0,.37.37.81.71.72C27.67,739.41,31.74,737.33,33.21,735.8Z" style="fill:#fff;stroke:#000;stroke-miterlimit:10"/><path d="M38,722.63a.61.61,0,0,0-.68-.47c-2.18.35-11,1.83-11.17,2.51S25,725.32,31,729l4.93,3a.79.79,0,0,0,1-.18C37.85,729.19,38.4,724.7,38,722.63Z" style="fill:#fff;stroke:#000;stroke-miterlimit:10"/><path d="M401.35,695.39l-1.11,22.38s-1.35,20.93,19.11,20.93c10.32,0,15.73-5.5,18.56-11a23.77,23.77,0,0,0,.26-21.39,17.38,17.38,0,0,0-11.73-9.7s-7.74-1.31-12.11,1a.91.91,0,0,1-1.23-.4.85.85,0,0,1-.1-.47l.14-2.08Z" style="fill:#fff;stroke:#000;stroke-miterlimit:10;stroke-width:2.07596186927827px"/><path d="M440.1,722.23s3.27-16.91-13.49-23.3c-9.74-3.69-21.36,2.74-24.19,9.87l-.93,2.34" style="fill:#fff;stroke:#000;stroke-miterlimit:10;stroke-width:2.07596186927827px"/><path d="M439.06,725s2.49-17.21-14.32-23.6c-9.73-3.7-20.88,4-23.4,10.19l-.92,2.33" style="fill:#fff;stroke:#000;stroke-miterlimit:10;stroke-width:2.07596186927827px"/><path d="M429,707.86a.65.65,0,0,0-.87.12c-1.41,1.85-7.11,9.35-6.71,10s-.41,1.32,6.81-.2l6-1.24c.36-.09.76-.52.62-.87C433.66,713,430.81,709.13,429,707.86Z" style="fill:#fff;stroke:#000;stroke-miterlimit:10"/><path d="M415.72,704.62a.64.64,0,0,0-.44.75c.55,2.26,2.85,11.42,3.59,11.53s.76,1.13,4.15-5.43l2.77-5.43c.17-.33.07-.92-.28-1C422.66,704.22,417.85,704,415.72,704.62Z" style="fill:#fff;stroke:#000;stroke-miterlimit:10"/><path d="M405,712.65a.58.58,0,0,0,.27.78c2,1,10,5,10.52,4.51s1.31.14-1.38-6.33c-1.37-3.29-1.92-4.61-2.22-5.36-.14-.32-.62-.62-.92-.42C409,707.39,405.85,710.72,405,712.65Z" style="fill:#fff;stroke:#000;stroke-miterlimit:10"/><path d="M433.12,728.81a.62.62,0,0,1-.85.15c-1.93-1.3-9.74-6.63-9.57-7.35s-.8-1.13,6.51-2l6.06-.73c.37,0,.89.25.87.63C436,722.43,434.45,727,433.12,728.81Z" style="fill:#fff;stroke:#000;stroke-miterlimit:10"/><path d="M421,735.88a.6.6,0,0,1-.66-.55h0c-.25-2.31-1.16-11.71-.5-12.05s.34-1.34,5.71,3.72l4.43,4.15c.28.26.38.85.08,1C427.65,733.93,423.17,735.76,421,735.88Z" style="fill:#fff;stroke:#000;stroke-miterlimit:10"/><path d="M408.42,731.85a.59.59,0,0,1,0-.82c1.52-1.61,7.72-8.1,8.37-7.83s1.17-.58.85,6.43c-.17,3.56-.23,5-.27,5.78,0,.36-.36.81-.72.71C414,735.42,409.89,733.34,408.42,731.85Z" style="fill:#fff;stroke:#000;stroke-miterlimit:10"/><path d="M403.64,718.68a.58.58,0,0,1,.67-.47c2.18.34,11,1.82,11.18,2.51s1.13.64-4.83,4.32l-4.94,3a.78.78,0,0,1-1-.19C403.77,725.28,403.2,720.74,403.64,718.68Z" style="fill:#fff;stroke:#000;stroke-miterlimit:10"/></g><path d="M177.21,522.77l5.5,5.89s.62,1.74,4.33,1.83l1.85.88s.35,1.32,2.91,1.32h2.91s3.8,5.21,9.09,6.8a3.05,3.05,0,0,1,1.44,1.82l1.45.23-.33,7.71s-.12,1.44,2.12,1.47,15.53,0,15.53,0l20.87-12.82,10.1-5.65,4.1-4.35s1.78-4.18,2.72-3.91,4.1-2.09,4.1-2.09" style="fill:#fff;stroke:#000;stroke-linejoin:bevel;stroke-width:2px"/><path d="M187,530.49l21.09,2.38s3.35.09,4.45-2.12,2.91-5.31,5-6" style="fill:none;stroke:#000;stroke-linecap:round;stroke-miterlimit:10"/><path d="M194.71,532.69l11.48,2.65a7.28,7.28,0,0,0,5.77-3.76" style="fill:none;stroke:#000;stroke-linecap:round;stroke-miterlimit:10;stroke-width:0.5px"/><path d="M206.69,541.54s6.6,2.22,24.33,1" style="fill:none;stroke:#000;stroke-linecap:round;stroke-miterlimit:10"/><path d="M224,551.55s16.68-6.58,35.56-6" style="fill:#fff;stroke:#000;stroke-linecap:round;stroke-miterlimit:10"/><path d="M223.87,550.55s16.68-6.54,35.56-6" style="fill:#fff;stroke:#000;stroke-linecap:round;stroke-miterlimit:10;stroke-width:0.978260869160295px"/><path d="M223.73,549.56s16.69-6.51,35.56-5.91" style="fill:#fff;stroke:#000;stroke-linecap:round;stroke-miterlimit:10;stroke-width:0.956521738764076px"/><path d="M223.59,548.56s16.7-6.47,35.57-5.84" style="fill:#fff;stroke:#000;stroke-linecap:round;stroke-miterlimit:10;stroke-width:0.934782608367858px"/><path d="M223.45,547.57s16.71-6.45,35.57-5.77" style="fill:#fff;stroke:#000;stroke-linecap:round;stroke-miterlimit:10;stroke-width:0.913043477971639px"/><path d="M223.31,546.57s16.72-6.41,35.57-5.7" style="fill:#fff;stroke:#000;stroke-linecap:round;stroke-miterlimit:10;stroke-width:0.891304347575421px"/><path d="M223.17,545.58s16.73-6.38,35.57-5.64" style="fill:#fff;stroke:#000;stroke-linecap:round;stroke-miterlimit:10;stroke-width:0.869565217179202px"/><path d="M223,544.58s16.73-6.34,35.57-5.56" style="fill:#fff;stroke:#000;stroke-linecap:round;stroke-miterlimit:10;stroke-width:0.847826086782984px"/><path d="M222.9,543.59s16.74-6.31,35.57-5.5" style="fill:#fff;stroke:#000;stroke-linecap:round;stroke-miterlimit:10;stroke-width:0.826086956386765px"/><path d="M222.76,542.59s16.74-6.28,35.57-5.43" style="fill:#fff;stroke:#000;stroke-linecap:round;stroke-miterlimit:10;stroke-width:0.804347825990547px"/><path d="M222.62,541.6s16.75-6.25,35.57-5.36" style="fill:#fff;stroke:#000;stroke-linecap:round;stroke-miterlimit:10;stroke-width:0.782608695594328px"/><path d="M222.48,540.6s16.76-6.21,35.58-5.29" style="fill:#fff;stroke:#000;stroke-linecap:round;stroke-miterlimit:10;stroke-width:0.76086956519811px"/><path d="M222.34,539.61s16.77-6.18,35.58-5.23" style="fill:#fff;stroke:#000;stroke-linecap:round;stroke-miterlimit:10;stroke-width:0.739130434801891px"/><path d="M222.2,538.61s16.78-6.15,35.58-5.15" style="fill:#fff;stroke:#000;stroke-linecap:round;stroke-miterlimit:10;stroke-width:0.717391304405673px"/><path d="M222.06,537.61s16.79-6.11,35.58-5.08" style="fill:#fff;stroke:#000;stroke-linecap:round;stroke-miterlimit:10;stroke-width:0.695652174009454px"/><path d="M221.92,536.62s16.8-6.08,35.58-5" style="fill:#fff;stroke:#000;stroke-linecap:round;stroke-miterlimit:10;stroke-width:0.673913043613235px"/><path d="M221.78,535.62s16.81-6,35.59-4.94" style="fill:#fff;stroke:#000;stroke-linecap:round;stroke-miterlimit:10;stroke-width:0.652173913217017px"/><path d="M221.65,534.63s16.81-6,35.58-4.88" style="fill:#fff;stroke:#000;stroke-linecap:round;stroke-miterlimit:10;stroke-width:0.630434782820798px"/><path d="M221.51,533.63s16.81-6,35.58-4.81" style="fill:#fff;stroke:#000;stroke-linecap:round;stroke-miterlimit:10;stroke-width:0.60869565242458px"/><path d="M221.37,532.64s16.82-5.95,35.58-4.74" style="fill:#fff;stroke:#000;stroke-linecap:round;stroke-miterlimit:10;stroke-width:0.586956522028361px"/><path d="M221.23,531.64s16.83-5.91,35.59-4.67" style="fill:#fff;stroke:#000;stroke-linecap:round;stroke-miterlimit:10;stroke-width:0.565217391632143px"/><path d="M221.09,530.65s16.84-5.89,35.59-4.61" style="fill:#fff;stroke:#000;stroke-linecap:round;stroke-miterlimit:10;stroke-width:0.543478261235924px"/><path d="M221,529.65s16.85-5.85,35.59-4.53" style="fill:#fff;stroke:#000;stroke-linecap:round;stroke-miterlimit:10;stroke-width:0.521739130839705px"/><path d="M220.81,528.66s16.86-5.82,35.59-4.47" style="fill:#fff;stroke:#000;stroke-linecap:round;stroke-miterlimit:10;stroke-width:0.5px"/><path d="M225.27,552.25l3.59,21.94a4.3,4.3,0,0,0,3,3.59c2.71.71,8.47,1.71,12.12,1.35a35.4,35.4,0,0,0,16.76-6.41c.95-1,1.95-1.35,1.53-3.65s-3.17-22.47-3.17-22.47S240.86,546.9,225.27,552.25Z" style="fill:#fff;stroke:#000;stroke-miterlimit:10;stroke-width:1.5px"/><path d="M257.05,552.5l2,16.72s.26,1.81-.53,2.65l-1.63,1.73" style="fill:none;stroke:#000;stroke-linecap:round;stroke-miterlimit:10;stroke-width:0.5px"/><path d="M253.79,552.28l2.34,16.81a4,4,0,0,1-.62,2.91c-.93,1.06-1.32,1.6-1.32,1.6" style="fill:none;stroke:#000;stroke-linecap:round;stroke-miterlimit:10;stroke-width:0.5px"/><path d="M246.06,552.28,248.23,570s.18,2.83,1,4" style="fill:none;stroke:#000;stroke-linecap:round;stroke-miterlimit:10;stroke-width:0.5px"/><path d="M241.79,553.34l2,17.42a8.65,8.65,0,0,0,1.06,4" style="fill:none;stroke:#000;stroke-linecap:round;stroke-miterlimit:10;stroke-width:0.5px"/><path d="M233.14,555.37,236,571.82s.35,2.3,1.94,3.09l1.59.8" style="fill:none;stroke:#000;stroke-linecap:round;stroke-miterlimit:10;stroke-width:0.5px"/><path d="M230.23,556l2.91,17s.49,2.12,1.68,2.7a3.76,3.76,0,0,0,1.52.53" style="fill:none;stroke:#000;stroke-linecap:round;stroke-miterlimit:10;stroke-width:0.5px"/><path d="M178.49,524.15l-70,5.16s-10.71,1.41-13.82,8-6.06,12.23-6.06,12.23" style="fill:none;stroke:#000;stroke-miterlimit:10;stroke-width:4px"/><path d="M81.21,549.54s.89-1.94,2.42-1.82S90.57,550,90.57,550l2.06,2.53s-.42,11.21-6.3,27.24a5.77,5.77,0,0,1-6.88,3.41c-4.71-1-11.12-2.65-12.18-4.06s-3.06-4.23-3.06-4.23-1.88-2.41,1.18-6.41S81.21,549.54,81.21,549.54Z" style="fill:none;stroke:#000;stroke-miterlimit:10"/><path d="M92.59,553.2l-6.32-2s-1.11-.58-2.41,1S67.1,573.84,67.1,573.84,66,575.66,68,577.9s2.74,3,2.74,3" style="fill:none;stroke:#000;stroke-miterlimit:10"/><line x1="82.33" y1="548.15" x2="84.8" y2="551.09" style="fill:none;stroke:#000;stroke-miterlimit:10"/><g id="Camada_9" data-name="Camada 9"><path d="M395.28,418.61l-.79-4.61L392.54,374v-.08a5.15,5.15,0,0,0-1.9-4c-2.36-1.89-16.92-11.23-19.31-12.76l-22.92-1.24-.32-.19c-.27-.16-1.61-1.1-1.61-3.75v-8.32l0-.2a6.42,6.42,0,0,1,2.77-3.59c.4-.23.74-.46,1.06-.67a6.78,6.78,0,0,1,3.4-1.38c.2,0,.81-.12,1.82-.28a591.77,591.77,0,0,1,73.82-6.94c9.74.11,27.57.7,27.75.7h0c.25,0,4.79,0,7.79,1.87,2.65,1.61,9.3,5.34,9.36,5.38l.68.38.65,6.29a3.55,3.55,0,0,1-.33,2.73,3.27,3.27,0,0,1-2.44,1.51c-2.12.33-21.46,1.94-24.73,2.21l-21.52,16.46a8.74,8.74,0,0,0-1.88,4.93c-.13,3.49,0,48.45,0,48.91v1.78Z" style="fill:#fff"/><path d="M429.45,332c9.76.12,27.65.71,27.65.71s4.35,0,7.06,1.65,9.41,5.41,9.41,5.41l.59,5.65a1.82,1.82,0,0,1-1.53,2.47c-2.24.35-25.06,2.23-25.06,2.23l-22,16.83a10.21,10.21,0,0,0-2.34,6c-.13,3.56,0,49,0,49l-26.65-4.58-.6-3.47L394,374a6.77,6.77,0,0,0-2.46-5.3c-2.66-2.12-19.78-13.06-19.78-13.06l-22.94-1.23s-.88-.53-.88-2.47v-8.12a4.89,4.89,0,0,1,2.07-2.69c1.59-.93,2.3-1.72,3.84-1.85A587.91,587.91,0,0,1,429.45,332m0-3h-.07a592.75,592.75,0,0,0-74,7l-1.74.27a8.25,8.25,0,0,0-4.08,1.62c-.31.21-.63.42-1,.63a8,8,0,0,0-3.45,4.48l-.11.39v8.53c0,3.37,1.79,4.71,2.34,5l.64.38.74,0,22.15,1.2c5.15,3.3,16.87,10.86,18.86,12.45a3.75,3.75,0,0,1,1.33,2.76v.33L393,414v.19l0,.18.6,3.47.37,2.09,2.08.36,26.65,4.58,3.52.6v-3.57c0-15.68-.1-46.07,0-48.84a7.24,7.24,0,0,1,1.43-3.91l21-16.08c4.61-.38,22.3-1.86,24.4-2.19a4.86,4.86,0,0,0,3.5-2.21,5.12,5.12,0,0,0,.53-3.75l-.57-5.43-.16-1.55-1.35-.76c-.07,0-6.69-3.75-9.32-5.35-3.24-2-7.82-2.08-8.57-2.09-1,0-18.21-.59-27.66-.7Z"/><path d="M348.76,342.26l78.81-7.89s4.23.12,5.53,0" style="fill:none;stroke:#000;stroke-miterlimit:10"/><path d="M427.83,332l10.41,4.62a29.54,29.54,0,0,0,12.18,3.09c6.35,0,23.15.06,23.15.06" style="fill:none;stroke:#000;stroke-miterlimit:10"/><path d="M348.86,354.37a2.3,2.3,0,0,1,2.24-2C353.21,352.13,438,346,438,346s9.06-.23,16.59,0l19.57.63" style="fill:none;stroke:#000;stroke-miterlimit:10"/><path d="M371.8,355.6l-3.17-2.41s.47-.7,3.17-.94,46.12-3.06,46.12-3.06,23.25-.7,29.65.94" style="fill:none;stroke:#000;stroke-miterlimit:10;stroke-width:0.75px"/><path d="M380.66,361.32s.44-1.66,6.2-1.89,24.67-1.3,24.67-1.3,14.16-1.06,25,0" style="fill:none;stroke:#000;stroke-miterlimit:10;stroke-width:0.75px"/></g><polygon points="174.18 520.13 106.16 527.9 105.45 524.72 106.51 521.54 171.33 514.13 174.18 520.13" style="fill:#e6e6e6;stroke:#000;stroke-miterlimit:10"/><line x1="172.43" y1="517.57" x2="105.45" y2="524.72" style="fill:none;stroke:#000;stroke-miterlimit:10"/><g id="Camada_6" data-name="Camada 6"><path d="M46.39,512s2.59,14.12,34.35,9.18c22.59-1.88,34.36-2.82,49.42-1.41s84.7,5.18,91.05,4.94c2.45,1.77,5.48,2.94,11.65,2.59,0,0,.15,2.59,7.21.06,6.44-1.47,35-8.3,59.73-10.18S369,512,372.27,512s23,1.71,23,1.71,19.83,2.77,30.42-1.71,12.64-6.23,12.64-6.23,16.06-9.53,12.36-30.35-8.83-29.65-8.83-29.65-7.23-24.88-29.47-27.18c-6.88-2.29-34.06-15.7-87.7,22.24l-29.24-1.37s1.06-5.63,7.94-13.1c4-5.47,10.88-12.36,19.35-47.12,1.42-9.18,6.18-24-9.53-64.06-6-14.12-18.7-37.76-26.11-52.23a96.65,96.65,0,0,1-7.24-21.89c-2.65-18,5.47-40.06,8.12-51.17,0,0,13-32-9.47-52.36s-52.94-40-52.94-40S208.39,84.9,196.39,57.37l-12-27.53S176.27,9.9,157.39,6c-17.92-3.68-25.51-6.25-50.67-3.79A30.86,30.86,0,0,0,96.23,5.1a21.49,21.49,0,0,0-10.84,11c-1.23,1.12-6.94,6.65-9.7,21.89C73,52.84,73,64.92,57.39,86.55A21.59,21.59,0,0,1,55,89.35c-6.48,6.36-22.25,22.19-22.25,22.19s-11.55,9.62-13.5,16-4.41,9.71-1.32,35S22,195.46,22,195.46l11,55.85a116.76,116.76,0,0,1,3.29,27.41c.12,15.88-.94,48.94-.94,48.94Z" style="fill:#fff;stroke:#000;stroke-miterlimit:10;stroke-width:2.5px"/><path d="M98.33,4.78S87.57,7.37,86.27,21.72s.59,42.41-9.76,52.65S38.86,115.9,38.86,115.9,20.8,133,31.33,158.72l12.12,35.06s6.71,26,11.88,49.06,24.94,98.59,24.94,98.59,17.42,68.47-2.58,114.35" style="fill:none;stroke:#000;stroke-miterlimit:10;stroke-width:2.5px"/><path d="M68.1,190.54S65.69,207,65.51,209s-4.82,19.65,5.94,55.86c1.76,6.38,9.18,44,9.18,44l6.7,31.59s16.24,100.47-8.12,115.35" style="fill:none;stroke:#000;stroke-miterlimit:10;stroke-width:2.5px"/><path d="M78.5,138.72s10.07,3,7.07,30.53S79,218.66,75,229.07c-1.06,4.77-2.12,9.89-.71,22.94s5.17,50.85,5.17,50.85" style="fill:none;stroke:#000;stroke-miterlimit:10;stroke-width:2.5px"/><path d="M34.49,121.4s5.28,1.35,10.14,11.41,10.23,21.44,10.23,21.44,21.65,49.41,20.83,72.59" style="fill:none;stroke:#000;stroke-miterlimit:10;stroke-width:2.5px"/><path d="M97.45,445.07s7.65-10.58,23.76-10.94,21,1.41,21,1.41,14.08,1.14,38.79,26.73c3.88,3.89,18.09,20,23.21,27.54s16.94,24.7,16.94,24.7,5.62,9.39,12.74,10.21" style="fill:none;stroke:#000;stroke-miterlimit:10;stroke-width:2.5px"/><path d="M225.24,526.07a54.1,54.1,0,0,1-9.72-9.54c-4.91-6.5-11.45-16.28-17.36-24.34-10.24-13.94-22-30.87-42.36-44.29-5.29-3.36-13.41-8.53-24.29-8.83s-15.24.42-15.24.42-11.06,1.35-17.94,13.17" style="fill:none;stroke:#000;stroke-miterlimit:10;stroke-width:2.5px"/><path d="M111.71,435.66a51.19,51.19,0,0,1,47.15-8c8.83,3.65,23.41,10.35,52.71,41.77,2.12,4.82,12.42,37.17,22.27,52.82.32,1.76,1.24,3.21-.26,5.1" style="fill:none;stroke:#000;stroke-miterlimit:10;stroke-width:2.5px"/><line x1="185.51" y1="444.33" x2="295.45" y2="439.9" style="fill:none;stroke:#000;stroke-miterlimit:10;stroke-width:2.5px"/><path d="M192.94,450.83s22.51-1.34,31.33,2.54a16.7,16.7,0,0,1,6.53,6.7s8.42,25,.33,57.5" style="fill:none;stroke:#000;stroke-miterlimit:10;stroke-width:2.5px"/><path d="M324.69,440.84s12.35,3.08,39.88,1.27,53.12-2.21,53.12-2.21,11-1.21,17.29,7.82l.19.27a45.84,45.84,0,0,1,7.88,21.23c.67,6.25,1.2,14,.22,17.5-1.76,6.35-3.19,13.77-15.8,24.53" style="fill:none;stroke:#000;stroke-miterlimit:10;stroke-width:2.5px"/><path d="M365.94,418.89s24.45-8.05,37.39,1.83c4.47,3.77,7.77,7.19,13.88,19.12" style="fill:none;stroke:#000;stroke-miterlimit:10;stroke-width:2.5px"/><path d="M412.39,418.6s13.06,5.83,16.77,11.12,8.64,15.88,8.64,15.88,8.3,15.11,8.83,33c.17,5.65,2.08,17.59-11.58,25.12" style="fill:none;stroke:#000;stroke-miterlimit:10;stroke-width:2.5px"/><path d="M56.74,342.84S44.27,286.13,33,251.31" style="fill:none;stroke:#000;stroke-miterlimit:10;stroke-width:2.5px"/><path d="M62.36,342.84S32.5,233,28,211.78s-8.71-65.65-8.71-65.65-2.26-19,15.16-36.37" style="fill:none;stroke:#000;stroke-miterlimit:10;stroke-width:2.5px"/><path d="M243.64,334.47l-9.8-40.1s-10.51-45.83-9.57-64.09,1.65-45.35-2.58-56.16" style="fill:none;stroke:#000;stroke-miterlimit:10;stroke-width:2.5px"/><line x1="269.68" y1="440.94" x2="263.28" y2="414.79" style="fill:none;stroke:#000;stroke-miterlimit:10;stroke-width:2.5px"/><path d="M224.22,233.43l26.41-37.65s28.84-43.29,29.12-57.06" style="fill:none;stroke:#000;stroke-miterlimit:10;stroke-width:2.5px"/><path d="M265.34,399.84c3,14.3,7.28,29.71,12.58,40.76" style="fill:none;stroke:#000;stroke-miterlimit:10;stroke-width:2.5px"/><path d="M247.33,200.48s-.47,28.71,1.41,50.83,9.89,104,9.89,104" style="fill:none;stroke:#000;stroke-miterlimit:10;stroke-width:2.5px"/><path d="M277.92,440.6a314.11,314.11,0,0,0,20-42.7c9.18-24.24,9.41-33.18,9.41-33.18s3.77-16.53-3.06-37.09S286.63,284,286.63,284l-12.71-28.23s-8.23-19.53,0-36.47,17.57-45.19,17.57-45.19" style="fill:none;stroke:#000;stroke-miterlimit:10;stroke-width:2.5px"/><path d="M59.35,83.78s8.45-12.71,17.16-9.41,19.59,7.88,21.82,34.35" style="fill:none;stroke:#000;stroke-miterlimit:10;stroke-width:2.5px"/></g><path d="M97.45,339.78s4.88-4.47,32.76-2.88c16.77.35,60.36.53,90.36-.89,6-1.23,19-2.63,21-2.29s16.94,7.59,22.59,42.88c1.94,14.65,4.12,50.63-16.88,64.34-8.69,1.25-62.71,3.39-62.71,3.39" style="fill:none;stroke:#000;stroke-miterlimit:10;stroke-width:2.5px"/><line x1="106" y1="438.07" x2="100.26" y2="372.1" style="fill:none;stroke:#000;stroke-miterlimit:10"/><path d="M223.54,335.48S239.87,351.3,243,372c3.11,20.45,3.85,51.08-17.78,70.1" style="fill:none;stroke:#000;stroke-miterlimit:10"/><path d="M133.74,351.54s12,16.53,12.72,73.65" style="fill:none;stroke:#000;stroke-miterlimit:10"/><path d="M115,433.32s14-38-2.39-73.21" style="fill:none;stroke:#000;stroke-miterlimit:10"/><path d="M94.06,111.16,80.63,113.4A5.51,5.51,0,0,0,77,117.19c-1.21,4.33-5,17.38-5,17.38s-1.85,5.83,4.15,5.3,19-1.15,19-1.15" style="fill:none;stroke:#000;stroke-miterlimit:10"/><path d="M94.25,113.12l-10.81,2.6a4.59,4.59,0,0,0-3,2.88c-.65,2.24-2.76,13.83-2.76,13.83s-.42,3.88,3.94,3.76,13.54-.53,13.54-.53" style="fill:none;stroke:#000;stroke-miterlimit:10;stroke-width:0.75px"/><path d="M94.86,133H88.8s-7.23-1.11-7.82-5.7-.89-9.41,3.32-11.79" style="fill:none;stroke:#000;stroke-miterlimit:10;stroke-width:0.75px"/><line x1="81.18" y1="119.26" x2="94.51" y2="116.31" style="fill:none;stroke:#000;stroke-miterlimit:10"/><line x1="82.77" y1="192.03" x2="224.9" y2="198.48" style="fill:none;stroke:#000;stroke-miterlimit:10"/><path d="M77.46,283.08s8.34-2.71,20.87-2.36S231.39,283,231.39,283" style="fill:none;stroke:#000;stroke-miterlimit:10"/><polygon points="221.69 335.8 203.27 166.96 215.45 167.66 220.94 181.6 236.45 333.67 221.69 335.8" style="fill:#fff;stroke:#000;stroke-miterlimit:10"/><path d="M83.44,130.94s3.63,12.13,4.41,18.84,18.79,187.45,18.79,187.45l16.44-.63L97.06,133H88.8S83.7,131.75,83.44,130.94Z" style="fill:#fff;stroke:#000;stroke-miterlimit:10"/><g id="Camada_8" data-name="Camada 8"><path d="M67.39,513.46l-39.7-2.3s-6,1.33-6.27-10,0-43.68,0-43.68l2.65-18.17,7.23-12.71s4.33-.53,6.53-.62a62.54,62.54,0,0,1,8.3,1.06L46.3,430s6.27,3.44,8.21,13.41,4.59,27.2,18.7,33.2,11.42,28.12,11.42,28.12l.2,6.24-4.91,3.53Z" style="fill:#e6e6e6;stroke:#000;stroke-miterlimit:10;stroke-width:2px"/><path d="M22.3,452.75c-.44-3.35-1.76-12.88-1.76-12.88a9,9,0,0,1,.79-3.8c.88-1.85,10-21.17,10-21.17l-8.38-65.47L28.21,333l6.62-5.82L40,322.6h2.65l4.41,17.12,10,67.59,3.26,21.53L37.26,430l-2.47,4.46-4,4,1.81,12.93.08,16.32L28,470.22,23.1,455Z" style="fill:#e6e6e6;stroke:#000;stroke-miterlimit:10;stroke-width:2px"/><path d="M37.26,430s5.72.57,8.43,14.46,8,33.41,18.58,35.52c1.06,4.95,5.53,26.71,5.53,26.71l-1.33,6.82-9.26-11-2.47-13.06s-13.09-8.59-16.31-24.59-5.31-23.13-9.5-25.51" style="fill:none;stroke:#000;stroke-miterlimit:10"/><line x1="21.41" y1="500.61" x2="59.21" y2="502.49" style="fill:none;stroke:#000;stroke-miterlimit:10"/><polyline points="56.74 489.43 64.27 480.01 77.43 479.25" style="fill:none;stroke:#000;stroke-miterlimit:10"/><polyline points="30.82 438.5 29.69 432.96 39.92 409.31 30.51 342.25 34.34 327.63" style="fill:none;stroke:#000;stroke-miterlimit:10"/><polyline points="22.92 349.43 29.69 342.84 37.22 341.43 41.8 322.6" style="fill:none;stroke:#000;stroke-miterlimit:10"/><polyline points="35.44 433.31 34.8 430.6 46.39 407.19 37.22 341.43" style="fill:none;stroke:#000;stroke-miterlimit:10"/><polyline points="31.3 414.9 39.92 409.31 46.39 407.19" style="fill:none;stroke:#000;stroke-miterlimit:10"/></g><g id="Camada_7" data-name="Camada 7"><path d="M81.15,535.74l-1.35,0c-3.07-.09-3.66-1.49-3.77-2.08s-.92-2.68-1.41-4.78v-.11c-1.57-13.6-.67-31.58-.66-31.76l0-.57.71-.37L74,482.4c-.29,0-.6,0-.9,0a3.48,3.48,0,0,1-1.32-.17l-.62-.25v-.67c-.12-1.48-10.74-94.86-10.85-95.8a7.59,7.59,0,0,0-3.51-5c-3.29-2.06-16.82-11.32-19-12.81l-22.38.91V362a4.35,4.35,0,0,1,1.48-3.65c1.3-1,6.2-5.15,6.25-5.19a25.87,25.87,0,0,1,11.13-5.6c.94-.18,2-.41,3.26-.67,6.56-1.41,18.77-4,45.28-6.4,5.65-.35,40.4-3.11,41.29-3.18a5.32,5.32,0,0,1,.68,0,7.75,7.75,0,0,1,4.3,1.36c2.46,1.67,2.93,3.4,3,3.6l0,.11,1.15,9.79c.18,1.25,0,3.49-1.87,3.84-1.34.25-15.09,1.9-17.41,2.18l-.28.24-.34.94-19,18.6s-1,1.12-.85,5.08c.17,4.61,5.5,95,5.56,95.89V479l0,.11c-.09.59-.65,1.31-2.62,1.65.08,2.38.47,8.94.76,13.76l1.76.34,3.7,23.4a9.87,9.87,0,0,1,3.37,1.36l.14.11.1.15c1.11,1.72,1.36,4.7.76,8.86l0,.11c-.2,1.39-6.41,6.64-8.1,6.85h-.19c-1.06-.07-2.69-.1-5-.1s-5.13,0-7.57.07c-2,0-3.75,0-5,0Z" style="fill:#fff"/><path d="M124.8,338.27a6.72,6.72,0,0,1,3.74,1.19,5.85,5.85,0,0,1,2.56,3l1.14,9.79s.36,2.47-1.05,2.74-17.65,2.2-17.65,2.2l-.71.62-.35,1L93.69,377.22s-1.33,1.15-1.15,5.82S98.1,479,98.1,479s-.12.7-2.65.94c-.06,1.29.82,15.47.82,15.47l1.83.35,3.7,23.38a10.87,10.87,0,0,1,3.65,1.33c1.53,2.38.71,7.47.59,8.29s-5.83,5.82-7.24,6c-1.19-.07-3-.1-5-.1-4.35,0-9.76.12-12.59.12l-1.33,0C77,534.63,77,533.4,77,533.4s-.88-2.47-1.41-4.77C74,515,74.94,497,74.94,497l.77-.41L75,481.34s-1,.09-1.85.09a3.08,3.08,0,0,1-.94-.09c0-.56-10.86-95.91-10.86-95.91a8.63,8.63,0,0,0-4-5.74c-3.53-2.2-19.23-13-19.23-13l-21.67.88V362a3.35,3.35,0,0,1,1.11-2.83c1.32-1.06,6.26-5.2,6.26-5.2a25,25,0,0,1,10.68-5.39c6-1.14,17-4.23,48.44-7.05,5.74-.36,41.29-3.18,41.29-3.18a3.64,3.64,0,0,1,.59,0m0-2a6.1,6.1,0,0,0-.8.05c-1.65.13-35.66,2.83-41.2,3.17h-.06c-26.58,2.39-38.83,5-45.41,6.42-1.23.26-2.3.49-3.23.67a26.8,26.8,0,0,0-11.61,5.84c-.38.32-5,4.16-6.2,5.15A5.28,5.28,0,0,0,14.43,362v7.65l2.08-.09,21-.85c2.85,1.95,15.56,10.64,18.75,12.64a6.58,6.58,0,0,1,3,4.31c3.66,32.14,10.59,93.16,10.84,95.72v1.26l1.23.51a4.25,4.25,0,0,0,1.66.24l.6,12-.65.35-.06,1.13c0,.74-.92,18.24.67,31.92V529l0,.11a49.23,49.23,0,0,0,1.43,4.85c.21.93,1.09,2.68,4.69,2.79l1.39,0c1.27,0,3.06,0,5,0,2.42,0,5.16-.07,7.56-.07s3.89,0,4.93.1h.19l.18,0c.44-.06,1.6-.2,5.15-3.22s3.74-4,3.82-4.49v-.11c.65-4.39.35-7.61-.9-9.54l-.19-.31-.29-.21a9.71,9.71,0,0,0-3.08-1.37l-3.5-22.05L99.85,494l-1.37-.26-.31-.06c-.25-4.14-.56-9.48-.68-12.13,1.53-.43,2.4-1.19,2.58-2.29l0-.22,0-.22c0-.91-5.38-91.27-5.55-95.87-.12-3.08.49-4.19.59-4.37l18.75-18.39.32-.32.16-.43.13-.37c3.42-.41,15.75-1.89,17.06-2.14,2.27-.42,3-2.79,2.68-5l-1.15-9.77v-.11l0-.11c-.08-.38-.66-2.35-3.38-4.2a8.71,8.71,0,0,0-4.86-1.53Z"/><path d="M114.07,357.57l-33.53,1.3s-8,.6-12.62,1.32c-6,.73-52.23,7.3-52.23,7.3" style="fill:none;stroke:#000;stroke-miterlimit:10"/><path d="M16.14,360.11l56.55-8A153.59,153.59,0,0,1,94,350c13.32-.53,23.38-1.42,23.38-1.42s12.47-1.81,12.79-8.76" style="fill:none;stroke:#000;stroke-miterlimit:10"/><path d="M46.88,373.56l20.28-2.72s3.88-.94,13.35-1.47,23-1.25,23-1.25" style="fill:none;stroke:#000;stroke-miterlimit:10"/><path d="M74.64,482s10.93-.3,21.25-1.53" style="fill:none;stroke:#000;stroke-miterlimit:10"/><path d="M74.64,497.13s2.81,1.46,19.8,0A7.31,7.31,0,0,0,98,495.69" style="fill:none;stroke:#000;stroke-miterlimit:10"/><path d="M55.19,393.93l5.38-.39,9.76-.47s.5-5.56-2.44-5.5-7.7.24-7.7.24S54.83,388.49,55.19,393.93Z" style="fill:#e6e6e6;stroke:#000;stroke-miterlimit:10;stroke-width:0.75px"/><path d="M68.07,393.43v4s.08,1.79-1,1.94a39.74,39.74,0,0,1-4.3,0s-.44.17-.44-.85-.16-5-.16-5" style="fill:#e6e6e6;stroke:#000;stroke-miterlimit:10;stroke-width:0.705493703484535px"/><polyline points="66.83 387.25 66.66 381.13 62.36 381.13 62.67 387.57" style="fill:none;stroke:#000;stroke-miterlimit:10;stroke-width:0.721514761447907px"/><polyline points="94.69 497.43 97.95 522.19 106.16 520.54" style="fill:none;stroke:#000;stroke-miterlimit:10"/></g><path d="M90.33,81.28s-1.14-8.38,2.74-11,9.79-6.53,17.47-1.59S144.86,91,161.89,91.87c9.44.35,24-.09,48.18-14.3,1.59-.79,8.38-2.2,10.59.44s5.55,6.8,5.11,15.36S220.25,132,227,152.31c2.17,5.12,3.2,17.94,3.2,17.94s.06,8.71-4.17,10.59c-3.24,1.53-6.18,2.7-8.59,1.76S195.8,169,167.69,161.07c-8.12-.7-19.18-4.82-44.36,12-5.41,2.71-13.53,6-19.64,4.24-5.65-2.47-10.24-6.24-9.42-13.77s1.77-38.47-.58-55.41S90.33,81.28,90.33,81.28Z" style="fill:#fff;stroke:#000;stroke-miterlimit:10;stroke-width:2px"/><path d="M122.86,173.31s6.47-21.71,1.71-44.82-4.94-28.95-12.88-43.59c-3.71-6.71-8.43-16.67-14.63-17.07" style="fill:none;stroke:#000;stroke-miterlimit:10"/><path d="M207.89,177.37s9.32-10.77,10.5-28.65c1.06-16.09,2.27-46,2.54-58.17a34.07,34.07,0,0,0-.91-8.83,13.15,13.15,0,0,0-2.13-5.08" style="fill:none;stroke:#000;stroke-miterlimit:10"/></g></g></svg>