<?xml version="1.0" encoding="utf-8"?>
<!-- Generator: Adobe Illustrator 23.0.1, SVG Export Plug-In . SVG Version: 6.00 Build 0)  -->
<svg version="1.1" id="Camada_1" xmlns="http://www.w3.org/2000/svg" xmlns:xlink="http://www.w3.org/1999/xlink" x="0px" y="0px"
	 viewBox="0 0 600 600" style="enable-background:new 0 0 600 600;" xml:space="preserve">
<style type="text/css">
	.st0{fill:#FFFFFF;stroke:#1E1E1C;stroke-miterlimit:10;}
	.st1{fill:none;stroke:#1E1E1C;stroke-width:0.6333;stroke-miterlimit:10;}
	.st2{fill:#FFFFFF;stroke:#1E1E1C;stroke-width:1.2665;stroke-miterlimit:10;}
	.st3{fill:#FFFFFF;stroke:#1E1E1C;stroke-width:0.6333;stroke-miterlimit:10;}
	.st4{fill:none;stroke:#1E1E1C;stroke-width:0.9721;stroke-miterlimit:10;}
	.st5{fill:#FFFFFF;}
	.st6{fill:none;stroke:#1E1E1C;stroke-width:0.9881;stroke-miterlimit:10;}
	.st7{fill:none;stroke:#1E1E1C;stroke-width:1.2665;stroke-miterlimit:10;}
	.st8{fill:#FFFFFF;stroke:#1E1E1C;stroke-width:0.9721;stroke-miterlimit:10;}
	.st9{fill:#FFFFFF;stroke:#1E1E1C;stroke-width:0.9091;stroke-miterlimit:10;}
	.st10{fill:#FFFFFF;stroke:#1E1E1C;stroke-width:0.5889;stroke-miterlimit:10;}
	.st11{fill:#FFFFFF;stroke:#1E1E1C;stroke-width:1.019;stroke-miterlimit:10;}
	.st12{fill:#FFFFFF;stroke:#1E1E1C;stroke-width:0.953;stroke-miterlimit:10;}
	.st13{fill:#FFFFFF;stroke:#1E1E1C;stroke-width:0.6639;stroke-miterlimit:10;}
	.st14{fill:#FFFFFF;stroke:#1E1E1C;stroke-width:0.6174;stroke-miterlimit:10;}
	.st15{fill:#FFFFFF;stroke:#1E1E1C;stroke-width:1.3277;stroke-miterlimit:10;}
	.st16{fill:none;stroke:#1E1E1C;stroke-width:0.75;stroke-miterlimit:10;}
	.st17{fill:none;stroke:#1E1E1C;stroke-miterlimit:10;}
	.st18{fill:none;stroke:#1E1E1C;stroke-width:1.3977;stroke-miterlimit:10;}
	.st19{fill:none;stroke:#1E1E1C;stroke-width:2;stroke-miterlimit:10;}
	.st20{fill:#FFFFFF;stroke:#1E1E1C;stroke-width:0.5;stroke-miterlimit:10;}
	.st21{fill:none;stroke:#1E1E1C;stroke-width:0.5;stroke-miterlimit:10;}
	.st22{fill:none;stroke:#1E1E1C;stroke-width:1.0033;stroke-miterlimit:10;}
	.st23{fill:#FFFFFF;stroke:#020203;stroke-width:0.75;stroke-miterlimit:10;}
	.st24{fill:none;stroke:#020203;stroke-miterlimit:10;}
	.st25{fill:#FFFFFF;stroke:#020203;stroke-miterlimit:10;}
	.st26{fill:none;stroke:#020203;stroke-width:0.5;stroke-miterlimit:10;}
	.st27{fill:#FFFFFF;stroke:#020203;stroke-linejoin:round;}
	.st28{fill:none;stroke:#020203;stroke-linejoin:round;}
	.st29{fill:none;stroke:#020203;stroke-width:0.75;stroke-miterlimit:10;}
	.st30{fill:none;stroke:#020203;stroke-width:0.25;stroke-miterlimit:10;}
	.st31{fill:none;stroke:#E52624;stroke-width:1.5;stroke-miterlimit:10;}
	.st32{fill:#E52624;}
	.st33{fill:#FFFFFF;stroke:#020203;stroke-width:0.5;stroke-miterlimit:10;}
	.st34{fill:none;stroke:#E52522;stroke-width:1.5;stroke-miterlimit:10;}
	.st35{fill:#E52522;}
	.st36{fill:#E7E6E6;}
	.st37{fill:none;stroke:#E20D18;stroke-width:2;stroke-miterlimit:10;}
	.st38{fill:none;stroke:#E20D18;stroke-width:1.8;stroke-miterlimit:10;}
	.st39{fill:none;stroke:#E20D18;stroke-width:1.62;stroke-miterlimit:10;}
	.st40{fill:#E20D18;}
	.st41{fill:none;stroke:#E20D18;stroke-width:1.54;stroke-miterlimit:10;}
	.st42{fill:none;stroke:#E20D18;stroke-width:1.74;stroke-miterlimit:10;}
	.st43{fill:none;stroke:#E20D18;stroke-width:1.55;stroke-miterlimit:10;}
	.st44{fill:none;stroke:#E20D18;stroke-width:1.56;stroke-miterlimit:10;}
	.st45{fill:none;stroke:#E20D18;stroke-width:1.53;stroke-miterlimit:10;}
	.st46{fill:none;stroke:#E20D18;stroke-width:1.58;stroke-miterlimit:10;}
	.st47{fill:none;stroke:#E20D18;stroke-width:1.69;stroke-miterlimit:10;}
	.st48{fill:none;stroke:#E20D18;stroke-width:1.43;stroke-miterlimit:10;}
	.st49{fill:none;stroke:#E20D18;stroke-width:1.48;stroke-miterlimit:10;}
	.st50{fill:none;stroke:#E20D18;stroke-width:1.67;stroke-miterlimit:10;}
	.st51{fill:none;stroke:#E20D18;stroke-width:1.65;stroke-miterlimit:10;}
	.st52{fill:#FFFFFF;stroke:#020203;stroke-width:3;stroke-miterlimit:10;}
	.st53{fill:none;stroke:#E20D18;stroke-width:1.41;stroke-miterlimit:10;}
	.st54{fill:none;stroke:#E20D18;stroke-width:1.59;stroke-miterlimit:10;}
	.st55{fill:none;stroke:#1E1E1C;stroke-width:1.05;stroke-miterlimit:10;}
	.st56{fill:none;stroke:#1E1E1C;stroke-width:0.52;stroke-miterlimit:10;}
	.st57{fill:none;stroke:#1E1E1C;stroke-width:0.8;stroke-miterlimit:10;}
	.st58{fill:none;stroke:#1E1E1C;stroke-width:0.49;stroke-miterlimit:10;}
	.st59{fill:none;stroke:#1E1E1C;stroke-width:0.84;stroke-miterlimit:10;}
	.st60{fill:none;stroke:#1E1E1C;stroke-width:0.79;stroke-miterlimit:10;}
	.st61{fill:none;stroke:#1E1E1C;stroke-width:0.55;stroke-miterlimit:10;}
	.st62{fill:none;stroke:#1E1E1C;stroke-width:0.51;stroke-miterlimit:10;}
	.st63{fill:none;stroke:#1E1E1C;stroke-width:1.1;stroke-miterlimit:10;}
	.st64{fill:none;stroke:#1E1E1C;stroke-width:0.25;stroke-miterlimit:10;}
	.st65{fill:none;stroke:#1E1E1C;stroke-width:1.07;stroke-miterlimit:10;}
	.st66{fill:none;stroke:#1E1E1C;stroke-width:0.94;stroke-miterlimit:10;}
	.st67{fill:none;stroke:#1E1E1C;stroke-width:0.56;stroke-miterlimit:10;}
	.st68{fill:none;stroke:#E20D18;stroke-width:1.5;stroke-miterlimit:10;}
	.st69{fill:none;stroke:#E20D18;stroke-width:1.49;stroke-miterlimit:10;}
	.st70{fill:none;stroke:#E20D18;stroke-miterlimit:10;}
	.st71{fill:none;stroke:#1E1E1C;stroke-width:0.78;stroke-miterlimit:10;}
	.st72{fill:none;stroke:#1E1E1C;stroke-width:1.08;stroke-miterlimit:10;}
	.st73{fill:none;stroke:#1E1E1C;stroke-width:0.54;stroke-miterlimit:10;}
	.st74{fill:none;stroke:#1E1E1C;stroke-width:0.83;stroke-miterlimit:10;}
	.st75{fill:none;stroke:#1E1E1C;stroke-width:0.77;stroke-miterlimit:10;}
	.st76{fill:none;stroke:#1E1E1C;stroke-width:0.87;stroke-miterlimit:10;}
	.st77{fill:none;stroke:#1E1E1C;stroke-width:0.81;stroke-miterlimit:10;}
	.st78{fill:none;stroke:#1E1E1C;stroke-width:1.13;stroke-miterlimit:10;}
	.st79{fill:none;stroke:#1E1E1C;stroke-width:0.21;stroke-miterlimit:10;}
	.st80{fill:#FFFFFF;stroke:#1E1E1C;stroke-width:0.84;stroke-miterlimit:10;}
	.st81{fill:none;stroke:#1E1E1C;stroke-width:0.42;stroke-miterlimit:10;}
	.st82{fill:none;stroke:#1E1E1C;stroke-width:0.24;stroke-miterlimit:10;}
	.st83{fill:none;stroke:#E20D18;stroke-width:1.6;stroke-miterlimit:10;}
	.st84{fill:none;stroke:#E20D18;stroke-width:1.64;stroke-miterlimit:10;}
	.st85{fill:none;stroke:#E20D18;stroke-width:1.484;stroke-miterlimit:10;}
	.st86{fill:none;stroke:#E20D18;stroke-width:1.4075;stroke-miterlimit:10;}
	.st87{fill:none;stroke:#E20D18;stroke-width:1.5853;stroke-miterlimit:10;}
	.st88{fill:none;stroke:#E20D18;stroke-width:1.2981;stroke-miterlimit:10;}
	.st89{fill:none;stroke:#E20D18;stroke-width:0.9733;stroke-miterlimit:10;}
	.st90{fill:none;stroke:#E20D18;stroke-width:0.9159;stroke-miterlimit:10;}
	.st91{fill:none;stroke:#E20D18;stroke-width:1.4439;stroke-miterlimit:10;}
	.st92{fill:none;stroke:#E20D18;stroke-width:1.0062;stroke-miterlimit:10;}
	.st93{fill:none;stroke:#E20D18;stroke-width:0.9468;stroke-miterlimit:10;}
	.st94{fill:none;stroke:#E20D18;stroke-width:1.6749;stroke-miterlimit:10;}
	.st95{fill:none;stroke:#E20D18;stroke-width:1.6513;stroke-miterlimit:10;}
	.st96{fill:#FFFFFF;stroke:#1E1E1C;stroke-width:0.8664;stroke-miterlimit:10;}
	.st97{fill:#FFFFFF;stroke:#1E1E1C;stroke-width:1.0973;stroke-miterlimit:10;}
	.st98{fill:none;stroke:#1E1E1C;stroke-width:1.0973;stroke-miterlimit:10;}
	.st99{fill:#FFFFFF;stroke:#1E1E1C;stroke-width:0.5487;stroke-miterlimit:10;}
	.st100{fill:none;stroke:#1E1E1C;stroke-width:0.8422;stroke-miterlimit:10;}
	.st101{fill:#FFFFFF;stroke:#1E1E1C;stroke-width:0.7877;stroke-miterlimit:10;}
	.st102{fill:#FFFFFF;stroke:#1E1E1C;stroke-width:0.5103;stroke-miterlimit:10;}
	.st103{fill:#FFFFFF;stroke:#1E1E1C;stroke-width:0.8422;stroke-miterlimit:10;}
	.st104{fill:none;stroke:#1E1E1C;stroke-width:0.8829;stroke-miterlimit:10;}
	.st105{fill:#FFFFFF;stroke:#1E1E1C;stroke-width:0.8257;stroke-miterlimit:10;}
	.st106{fill:#FFFFFF;stroke:#1E1E1C;stroke-width:0.5752;stroke-miterlimit:10;}
	.st107{fill:#FFFFFF;stroke:#1E1E1C;stroke-width:0.5349;stroke-miterlimit:10;}
	.st108{fill:#FFFFFF;stroke:#1E1E1C;stroke-width:1.1504;stroke-miterlimit:10;}
	.st109{fill:#FFFFFF;stroke:#1E1E1C;stroke-width:0.8829;stroke-miterlimit:10;}
	.st110{fill:none;stroke:#1E1E1C;stroke-width:0.5487;stroke-miterlimit:10;}
	.st111{fill:#FFFFFF;stroke:#1E1E1C;stroke-width:1.0441;stroke-miterlimit:10;}
	.st112{fill:none;stroke:#E20D18;stroke-width:1.5173;stroke-miterlimit:10;}
	.st113{fill:none;stroke:#E20D18;stroke-width:1.804;stroke-miterlimit:10;}
	.st114{fill:none;stroke:#E20D18;stroke-width:1.6153;stroke-miterlimit:10;}
	.st115{fill:none;stroke:#E20D18;stroke-width:1.578;stroke-miterlimit:10;}
	.st116{fill:none;stroke:#E20D18;stroke-width:1.6879;stroke-miterlimit:10;}
	.st117{fill:none;stroke:#E20D18;stroke-width:1.6347;stroke-miterlimit:10;}
	.st118{fill:none;stroke:#E20D18;stroke-width:1.5386;stroke-miterlimit:10;}
	.st119{fill:none;stroke:#E20D18;stroke-width:1.7396;stroke-miterlimit:10;}
	.st120{fill:#FFFFFF;stroke:#1E1E1C;stroke-width:1.4;stroke-miterlimit:10;}
	.st121{fill:none;stroke:#E20D18;stroke-width:1.4266;stroke-miterlimit:10;}
	.st122{fill:none;stroke:#E20D18;stroke-width:1.4299;stroke-miterlimit:10;}
	.st123{fill:none;stroke:#1E1E1C;stroke-width:0.9867;stroke-miterlimit:10;}
	.st124{fill:none;stroke:#DD0B18;stroke-width:1.4266;stroke-miterlimit:10;}
	.st125{fill:none;stroke:#DD0B18;stroke-width:1.4299;stroke-miterlimit:10;}
	.st126{fill:#DD0B18;}
	.st127{fill:none;stroke:#DD0B18;stroke-width:1.484;stroke-miterlimit:10;}
	.st128{fill:none;stroke:#DD0B18;stroke-width:1.4075;stroke-miterlimit:10;}
	.st129{fill:none;stroke:#DD0B18;stroke-width:1.5853;stroke-miterlimit:10;}
	.st130{fill:none;stroke:#DD0B18;stroke-width:1.2981;stroke-miterlimit:10;}
	.st131{fill:none;stroke:#DD0B18;stroke-width:0.9733;stroke-miterlimit:10;}
	.st132{fill:none;stroke:#DD0B18;stroke-width:0.9159;stroke-miterlimit:10;}
	.st133{fill:none;stroke:#DD0B18;stroke-width:1.4439;stroke-miterlimit:10;}
	.st134{fill:none;stroke:#DD0B18;stroke-width:1.0062;stroke-miterlimit:10;}
	.st135{fill:none;stroke:#DD0B18;stroke-width:0.9468;stroke-miterlimit:10;}
	.st136{fill:none;stroke:#DD0B18;stroke-width:1.6749;stroke-miterlimit:10;}
	.st137{fill:none;stroke:#DD0B18;stroke-width:1.6513;stroke-miterlimit:10;}
	.st138{fill:#FFFFFF;stroke:#1E1E1C;stroke-width:0.75;stroke-miterlimit:10;}
	.st139{fill:none;stroke:#DD0B18;stroke-width:1.5173;stroke-miterlimit:10;}
	.st140{fill:none;stroke:#DD0B18;stroke-width:1.804;stroke-miterlimit:10;}
	.st141{fill:none;stroke:#DD0B18;stroke-width:1.6153;stroke-miterlimit:10;}
	.st142{fill:none;stroke:#DD0B18;stroke-width:1.5551;stroke-miterlimit:10;}
	.st143{fill:none;stroke:#DD0B18;stroke-width:1.578;stroke-miterlimit:10;}
	.st144{fill:#E0E0E0;}
	.st145{fill:none;stroke:#DD0B18;stroke-width:1.6879;stroke-miterlimit:10;}
	.st146{fill:none;stroke:#DD0B18;stroke-width:1.6347;stroke-miterlimit:10;}
	.st147{fill:none;stroke:#DD0B18;stroke-width:1.5386;stroke-miterlimit:10;}
	.st148{fill:none;stroke:#DD0B18;stroke-width:1.7396;stroke-miterlimit:10;}
	.st149{fill:#FFFFFF;stroke:#020203;stroke-width:1.635;stroke-miterlimit:10;}
	.st150{fill:none;stroke:#E20D18;stroke-width:1.52;stroke-miterlimit:10;}
	.st151{fill:#020203;}
	.st152{fill:none;stroke:#1E1E1C;stroke-linejoin:round;}
	.st153{fill:none;stroke:#1E1E1C;stroke-linecap:round;stroke-miterlimit:10;}
	.st154{fill:#1E1E1C;}
	.st155{fill:none;stroke:#1E1E1C;stroke-linejoin:round;stroke-miterlimit:10;}
	.st156{fill:none;stroke:#020203;stroke-linejoin:bevel;stroke-miterlimit:10;}
	.st157{fill:none;stroke:#020203;stroke-miterlimit:10;stroke-dasharray:1;}
	.st158{fill:none;stroke:#020203;stroke-width:0.5;stroke-miterlimit:10;stroke-dasharray:1;}
	.st159{fill:none;stroke:#E20D18;stroke-width:1.3;stroke-miterlimit:10;}
	.st160{fill:none;stroke:#E20D18;stroke-width:0.97;stroke-miterlimit:10;}
	.st161{fill:none;stroke:#E20D18;stroke-width:0.92;stroke-miterlimit:10;}
	.st162{fill:none;stroke:#E20D18;stroke-width:1.44;stroke-miterlimit:10;}
	.st163{fill:none;stroke:#E20D18;stroke-width:1.01;stroke-miterlimit:10;}
	.st164{fill:none;stroke:#E20D18;stroke-width:0.95;stroke-miterlimit:10;}
	.st165{fill:#FFFFFF;stroke:#1E1E1C;stroke-width:2;stroke-miterlimit:10;}
	.st166{fill:none;stroke:#1E1E1C;stroke-width:1.5;stroke-linejoin:round;}
	.st167{fill:none;stroke:#1E1E1C;stroke-width:1.5;stroke-miterlimit:10;}
	.st168{fill:none;stroke:#1E1E1C;stroke-width:2;stroke-linecap:round;stroke-miterlimit:10;}
	.st169{fill:none;stroke:#1E1E1C;stroke-width:1.5;stroke-linecap:round;stroke-miterlimit:10;}
	.st170{fill:none;stroke:#1E1E1C;stroke-width:2;stroke-linejoin:round;stroke-miterlimit:10;}
	.st171{fill:none;stroke:#1E1E1C;stroke-width:2;stroke-linejoin:round;}
	.st172{fill:none;stroke:#020203;stroke-width:0.5;stroke-linejoin:bevel;stroke-miterlimit:10;}
	.st173{fill:none;stroke:#E20D18;stroke-width:1.63;stroke-miterlimit:10;}
	.st174{fill:none;stroke:#000000;stroke-miterlimit:10;}
	.st175{fill:#FFFFFF;stroke:#000000;stroke-miterlimit:10;}
	.st176{fill:none;stroke:#E20D18;stroke-width:1.3113;stroke-miterlimit:10;}
	.st177{fill:none;stroke:#E20D18;stroke-width:1.3459;stroke-miterlimit:10;}
	.st178{fill:none;stroke:#E20D18;stroke-width:1.4481;stroke-miterlimit:10;}
	.st179{fill:none;stroke:#E20D18;stroke-width:1.3929;stroke-miterlimit:10;}
	.st180{fill:none;stroke:#E20D18;stroke-width:1.327;stroke-miterlimit:10;}
	.st181{fill:none;stroke:#E20D18;stroke-width:1.4965;stroke-miterlimit:10;}
	.st182{fill:none;stroke:#E20D18;stroke-width:1.225;stroke-miterlimit:10;}
	.st183{fill:none;stroke:#E20D18;stroke-width:1.4563;stroke-miterlimit:10;}
	.st184{fill:none;stroke:#E20D18;stroke-width:1.5717;stroke-miterlimit:10;}
	.st185{fill:none;stroke:#E20D18;stroke-width:1.5529;stroke-miterlimit:10;}
	.st186{fill:#BFBEBF;stroke:#020203;stroke-miterlimit:10;}
	.st187{fill:none;stroke:#E20D18;stroke-width:2.0835;stroke-miterlimit:10;}
	.st188{fill:none;stroke:#E20D18;stroke-width:1.8751;stroke-miterlimit:10;}
	.st189{fill:none;stroke:#E20D18;stroke-width:1.6876;stroke-miterlimit:10;}
	.st190{fill:none;stroke:#E20D18;stroke-width:1.698;stroke-miterlimit:10;}
	.st191{fill:none;stroke:#E20D18;stroke-width:1.6043;stroke-miterlimit:10;}
	.st192{fill:none;stroke:#E20D18;stroke-width:1.8126;stroke-miterlimit:10;}
	.st193{fill:none;stroke:#E20D18;stroke-width:1.6147;stroke-miterlimit:10;}
	.st194{fill:none;stroke:#E20D18;stroke-width:1.5938;stroke-miterlimit:10;}
	.st195{fill:none;stroke:#E20D18;stroke-width:1.6251;stroke-miterlimit:10;}
	.st196{fill:none;stroke:#E20D18;stroke-width:1.6459;stroke-miterlimit:10;}
	.st197{fill:none;stroke:#E20D18;stroke-width:1.7605;stroke-miterlimit:10;}
	.st198{font-family:'Roboto-Medium';}
	.st199{font-size:12.6297px;}
	.st200{fill:#FFFFFF;stroke:#1E1E1C;stroke-width:0.87;stroke-miterlimit:10;}
	.st201{fill:#FFFFFF;stroke:#1E1E1C;stroke-width:1.1;stroke-miterlimit:10;}
	.st202{fill:#FFFFFF;stroke:#1E1E1C;stroke-width:0.55;stroke-miterlimit:10;}
	.st203{fill:#FFFFFF;stroke:#1E1E1C;stroke-width:0.79;stroke-miterlimit:10;}
	.st204{fill:#FFFFFF;stroke:#1E1E1C;stroke-width:0.51;stroke-miterlimit:10;}
	.st205{fill:none;stroke:#1E1E1C;stroke-width:0.88;stroke-miterlimit:10;}
	.st206{fill:#FFFFFF;stroke:#1E1E1C;stroke-width:0.83;stroke-miterlimit:10;}
	.st207{fill:#FFFFFF;stroke:#1E1E1C;stroke-width:0.58;stroke-miterlimit:10;}
	.st208{fill:#FFFFFF;stroke:#1E1E1C;stroke-width:0.53;stroke-miterlimit:10;}
	.st209{fill:#FFFFFF;stroke:#1E1E1C;stroke-width:1.15;stroke-miterlimit:10;}
	.st210{fill:#FFFFFF;stroke:#1E1E1C;stroke-width:0.88;stroke-miterlimit:10;}
	.st211{fill:#FFFFFF;stroke:#1E1E1C;stroke-width:1.04;stroke-miterlimit:10;}
	.st212{fill:#FFFFFF;stroke:#020203;stroke-linejoin:round;stroke-miterlimit:10;}
</style>
<g>
	<path class="st186" d="M300.1,387.5c0,0-0.5,23.7,0.7,24.3c1.2,0.6,2,2.5,14.9,1.4s11.4-1.2,13.5-2.2c2.1-1-1.9-26-1.9-26
		s-2.2,1.6-10.2,1.8c-8,0.2-15.2,0.4-16.4,0C299.5,386.2,300.1,387.5,300.1,387.5z"/>
	<path class="st186" d="M325.5,385l-0.8-11.1l-22.7,0.7l0.4,12.4C302.4,387,322.8,387.5,325.5,385z"/>
	<polygon class="st186" points="299.2,374.7 326.5,373.9 322.6,302.6 342,285.6 384.5,282.5 384.3,277.5 372.5,270.1 361.7,270.4 
		311,273.9 269.5,277.6 257.2,285.8 257.3,290.7 270,290.6 292.4,304.5 	"/>
	<line class="st24" x1="279.8" y1="296.7" x2="332.1" y2="294.3"/>
	<polyline class="st25" points="257.2,285.8 377.4,278.3 384.3,277.5 	"/>
	<line class="st24" x1="270" y1="290.6" x2="342" y2="285.6"/>
</g>
<g id="base_4_">
	<polyline class="st25" points="267.4,553.5 267.4,577.9 277.6,577.9 277.6,553.7 	"/>
	<path class="st25" d="M267.4,557.8h-5.7c-1.2,5.6-1.8,11.2-1.7,16.9c0.1,9.6,1.7,14.9,1.7,14.9h5.4L267.4,557.8z"/>
	<path class="st25" d="M277.6,557.8h5.7c1.2,5.6,1.8,11.2,1.7,16.9c-0.1,9.6-1.7,14.9-1.7,14.9h-5.4L277.6,557.8z"/>
	<path class="st25" d="M190.4,498.8c0,0-9.3,1-9.4,2.3c-0.1,1.3-4.5,24.4,4.7,24.3s15.5-2.6,16.1-4
		C202.4,519.9,190.4,498.8,190.4,498.8z"/>
	<path class="st25" d="M355.2,497.3c0,0,4.9,0.2,7.3,1.3c1.6,0.8,3.1,1.8,4.3,3.1c0,0-2.1,20.4-3.3,21.2c-1.3,0.8-6.6,1.4-15.3,0
		c-8.8-1.4,0.9-25,0.9-25L355.2,497.3z"/>
	<path class="st25" d="M260.4,517.1l1.8,34.9l10,2.9l10-2.1l1.8-35.6c0,0,3.9-2.6,17.6-1s103,9.2,103,9.2v2.4c0,0,5.8,1.3,8.7,1.6
		c1.6,0.2,3.2,0.2,4.7,0l4.5-1.6l-0.9-14.9l-42.1-8.5l-37-6.9l10.4-0.7l0.8,1.4l3.7-1.4l-0.5-9l-5.2-6.8l-63.2,3.1l-32.5,0.8
		l-42.1-1.3l-1.4-1l-17-0.8l-3.8,0.9l-3.4,5.4l-0.7,1.6v8.9l10.6,0.5l-33.5,6.9l-2.4-0.7l-36.2,7.3l-0.9,1l-1.8,0.8l-0.8,16.4
		l13.6,0.8l4.2-2.1l-0.3-2.2L252,516C252,516,258.8,514.8,260.4,517.1z"/>
	<line class="st24" x1="256" y1="486.9" x2="198" y2="498.8"/>
	<line class="st24" x1="289.4" y1="486.9" x2="342.4" y2="497.2"/>
	<polyline class="st25" points="261.7,541.8 268,536.1 276.2,536.1 282.7,541.8 	"/>
	<polyline class="st25" points="261.7,527.1 268.2,521.3 276.5,521.3 282.7,527.1 	"/>
	<line class="st24" x1="268" y1="536.1" x2="267.9" y2="489.1"/>
	<line class="st24" x1="276.4" y1="489.1" x2="276.2" y2="536.1"/>
	<line class="st24" x1="356.7" y1="487.5" x2="309" y2="490.7"/>
	<line class="st24" x1="334" y1="481.6" x2="338.4" y2="488.8"/>
	<polyline class="st25" points="421.5,512.7 416.4,517.8 416.4,529.3 	"/>
	<path class="st24" d="M284,517.1c0,0-1-15.5,2.2-17.2s14.1-0.7,14.1-0.7l116.1,18.5"/>
	<path class="st24" d="M260.4,517.1c0,0,1.3-18.7,0-19c-1.3-0.3-26.9,3.8-26.9,3.8l-71.3,13.4l-33.5,6.7l-5.5-7.7"/>
	<line class="st24" x1="164.4" y1="505.7" x2="168.8" y2="514.1"/>
	<polyline class="st25" points="188,487.8 206,489.6 210.2,483.5 212.3,482.3 	"/>
	<line class="st24" x1="230.5" y1="492.1" x2="206" y2="489.6"/>
	<path class="st25" d="M255.8,484.6c0,0,8.2,4.1,16.6,4.1c5.3-0.1,10.5-1.3,15.3-3.6l-2.6-42.9c0,0-7.6,2.9-13.4,2.9
		c-5.7,0-14.4-0.4-14.4-2.4S255.8,484.6,255.8,484.6z"/>
	<path class="st25" d="M135.2,531.9l0.8,16.9c0,0,1,15.9-14.5,15.9c-7.8,0-11.9-4.2-14.1-8.3c-2.6-5.1-2.7-11.1-0.2-16.2
		c1.7-3.7,5-6.4,8.9-7.4c0,0,5.9-1,9.2,0.8c0.3,0.2,0.8,0,0.9-0.3c0.1-0.1,0.1-0.2,0.1-0.4l-0.1-1.6L135.2,531.9z"/>
	<path class="st25" d="M105.9,552.2c0,0-2.5-12.8,10.2-17.6c7.4-2.8,16.2,2.1,18.3,7.5l0.7,1.8"/>
	<path class="st25" d="M106.7,554.4c0,0-1.9-13,10.9-17.9c7.4-2.8,15.8,3.1,17.7,7.7l0.7,1.8"/>
	<path class="st25" d="M114.3,541.3c0.2-0.2,0.5-0.1,0.7,0.1c1.1,1.4,5.4,7.1,5.1,7.6c-0.3,0.5,0.3,1-5.2-0.1l-4.5-1
		c-0.3-0.1-0.6-0.4-0.5-0.7C110.8,545.2,112.9,542.3,114.3,541.3z"/>
	<path class="st25" d="M124.4,538.9c0.2,0.1,0.4,0.3,0.3,0.6c-0.4,1.7-2.2,8.7-2.7,8.7s-0.6,0.9-3.1-4.1l-2.1-4.1
		c-0.1-0.3-0.1-0.7,0.2-0.8C119.1,538.6,122.7,538.4,124.4,538.9z"/>
	<path class="st25" d="M132.6,544.9c0.1,0.2,0,0.5-0.2,0.6c-1.5,0.8-7.6,3.8-8,3.4s-1,0.1,1-4.8c1-2.5,1.5-3.5,1.7-4.1
		c0.1-0.3,0.5-0.5,0.7-0.3C129.5,541,131.9,543.5,132.6,544.9z"/>
	<path class="st25" d="M111.2,557.2c0.1,0.2,0.4,0.3,0.6,0.1c1.5-1,7.4-5,7.3-5.6c-0.1-0.6,0.6-0.8-4.9-1.5l-4.6-0.5
		c-0.3,0-0.7,0.2-0.7,0.5C109.1,552.4,110.2,555.8,111.2,557.2z"/>
	<path class="st25" d="M120.4,562.5c0.3,0,0.5-0.2,0.5-0.4c0.2-1.8,0.9-8.9,0.4-9.1c-0.5-0.3-0.3-1-4.3,2.8l-3.4,3.1
		c-0.2,0.2-0.3,0.6-0.1,0.8C115.3,561.1,118.7,562.5,120.4,562.5z"/>
	<path class="st25" d="M129.9,559.5c0.2-0.2,0.2-0.5,0-0.6c-1.1-1.2-5.8-6.1-6.3-5.9c-0.5,0.2-0.9-0.4-0.6,4.9
		c0.1,2.7,0.2,3.8,0.2,4.4c0,0.3,0.3,0.6,0.5,0.5C125.7,562.2,128.8,560.6,129.9,559.5z"/>
	<path class="st25" d="M133.5,549.5c0-0.2-0.3-0.4-0.5-0.4c-1.7,0.3-8.4,1.4-8.5,1.9c-0.1,0.5-0.9,0.5,3.7,3.3l3.7,2.3
		c0.2,0.1,0.7,0.1,0.8-0.1C133.4,554.5,133.8,551.1,133.5,549.5z"/>
	<path class="st25" d="M408.8,528.9l-0.8,16.9c0,0-1,15.9,14.5,15.9c7.8,0,11.9-4.2,14.1-8.3c2.6-5.1,2.7-11.1,0.2-16.2
		c-1.7-3.7-5-6.4-8.9-7.4c0,0-5.9-1-9.2,0.8c-0.3,0.2-0.7,0-0.9-0.3c-0.1-0.1-0.1-0.2-0.1-0.4l0.1-1.6L408.8,528.9z"/>
	<path class="st25" d="M438.2,549.2c0,0,2.5-12.8-10.2-17.6c-7.4-2.8-16.2,2.1-18.3,7.5l-0.7,1.8"/>
	<path class="st25" d="M437.4,551.4c0,0,1.9-13-10.8-17.9c-7.4-2.8-15.8,3.1-17.7,7.7l-0.7,1.8"/>
	<path class="st25" d="M429.7,538.3c-0.2-0.1-0.5-0.1-0.7,0.1c-1.1,1.4-5.4,7.1-5.1,7.6c0.3,0.5-0.3,1,5.2-0.1l4.5-1
		c0.3-0.1,0.6-0.4,0.5-0.7C433.3,542.2,431.1,539.3,429.7,538.3z"/>
	<path class="st25" d="M419.7,535.9c-0.2,0.1-0.4,0.3-0.3,0.6c0.4,1.7,2.2,8.7,2.7,8.7c0.6,0.1,0.6,0.9,3.1-4.1l2.1-4.1
		c0.1-0.3,0.1-0.7-0.2-0.8C425,535.6,421.3,535.4,419.7,535.9z"/>
	<path class="st25" d="M411.5,542c-0.1,0.2,0,0.5,0.2,0.6c1.5,0.8,7.6,3.8,8,3.4c0.4-0.4,1,0.1-1.1-4.8c-1-2.5-1.4-3.5-1.7-4.1
		c-0.1-0.3-0.5-0.5-0.7-0.3C414.6,538,412.2,540.5,411.5,542z"/>
	<path class="st25" d="M432.9,554.2c-0.2,0.2-0.4,0.3-0.6,0.1c-1.5-1-7.4-5-7.3-5.6c0.1-0.6-0.6-0.8,4.9-1.5l4.6-0.5
		c0.3,0,0.7,0.2,0.7,0.5C435,549.4,433.9,552.8,432.9,554.2z"/>
	<path class="st25" d="M423.7,559.6c-0.3,0-0.5-0.2-0.5-0.4c-0.2-1.8-0.9-8.9-0.4-9.1c0.5-0.3,0.3-1,4.3,2.8l3.4,3.1
		c0.2,0.2,0.3,0.6,0.1,0.8C428.7,558.1,425.3,559.5,423.7,559.6z"/>
	<path class="st25" d="M414.2,556.5c-0.2-0.2-0.2-0.4,0-0.6c1.1-1.2,5.8-6.1,6.3-5.9c0.5,0.2,0.9-0.4,0.6,4.9
		c-0.1,2.7-0.2,3.8-0.2,4.4c0,0.3-0.3,0.6-0.5,0.5C418.4,559.2,415.3,557.6,414.2,556.5z"/>
	<path class="st25" d="M410.5,546.5c0.1-0.2,0.3-0.4,0.5-0.4c1.7,0.3,8.4,1.4,8.5,1.9c0.1,0.5,0.9,0.5-3.7,3.3l-3.7,2.3
		c-0.2,0.1-0.7,0.1-0.8-0.1C410.6,551.5,410.2,548.1,410.5,546.5z"/>
	<path class="st25" d="M257.4,442.9c0,0,11.6-4.8,27.7-0.6"/>
	<line class="st24" x1="261.1" y1="427.5" x2="282.4" y2="427.3"/>
	<line class="st24" x1="260.5" y1="427.7" x2="282.8" y2="427.5"/>
	<path class="st25" d="M260.7,443.2l0.7-15.2H282l0.5,13.9C282.6,441.9,276.2,447.1,260.7,443.2z"/>
	<polygon class="st25" points="265,428 265,408.6 279.2,409.8 278.8,428 	"/>
	<path class="st25" d="M291.1,407.7l4.4,15.9l-1.6,2.8l3.4,15.9c0,0,13.2,3.2,23.1-3.9l-3.3-18.1l-3.5-1.2l-3.9-14L291.1,407.7z"/>
</g>
<g id="Frontal_1_">
	<g id="diagonal_1_">
		<g id="braços_1_">
			<path class="st25" d="M251.5,437.2c-0.4-0.1-3.9-2-3.9-2l-10.2,15.4c-1,1.4-1.6,3-1.8,4.7c-0.3,2.1,0,4.6,2.7,5.5
				c3.2,1.1,6.8-6.6,6.8-6.6L251.5,437.2z"/>
			<polygon class="st25" points="248.5,435.7 257.3,417.7 261.1,410.2 261.1,415.7 250.9,436.9 			"/>
		</g>
	</g>
</g>
<g id="Lateral_1_">
	<g id="Camada_12_1_">
		<g id="Camada_11_2_">
			<path class="st25" d="M197.8,403.2c0,0,0,10,9.1,9.9s151.6-10.9,151.6-10.9l70.8-1.8c0,0,10-0.6,10.1-12.3
				c0.1-11.6,7.9-21.7,7.9-25.4s3.4-11.1-4.2-18.9s-13.4-7.6-18.2-15.3c-4.8-7.7-46.9-1-46.9-1s-16.6-6.2-31.4-5.6
				c-14.8,0.6-36.2,6.3-51.8,14.2s-33.5,10.1-38.1,10.7s-14.8,1.4-14.8,1.4s17.4-21.8,18.3-37.2c0.6-10,0.5-22-12.3-37.1
				s-35.5-36-35.5-36s-19.9-23.9-22.4-42c-2.5-18.1-0.5-41.3-1.5-49.3s-4.8-17.8-16.4-27.4l-4.4-3.1c0,0-0.1-10.4-12.6-21.1
				l-17.2-50c0,0-5.4-15.7-15.4-26.8s-12.1-10.4-17.8-7.7s-8.2,6.1-6.3,14s14,65.8,14,65.8l4,9.5l2.7,46.7l0.3,24.1
				c0.1,9.2,1,18.3,2.7,27.3c1.8,9.8,4.5,22.6,7.8,32.3c6.2,18.3,17.2,46.9,17.2,46.9l26.7,57.2l12.3,25.4c0.3,7.8,1,15.6,2.2,23.4
				c1.9,12.3,2.5,15.2,2.5,15.2L197.8,403.2z"/>
			<path class="st24" d="M232.1,352.7c9.9-11,10.8-32.4,10.8-32.4c-1.1-35.3-31.7-53.5-54.6-84.8s-28.1-60.3-29.8-75.5
				c-1.7-15.2,3-28.1-2.5-47c-5.5-19-31.9-18.6-36-22.6S99.4,14,99.4,14"/>
			<path class="st24" d="M430,400.1c0,0,3.6-12.7-5.7-28.4c-9.3-15.7-33.8-27.3-56-30.9s-54.1,1.5-82.5,16.9
				c-28.5,15.4-39.7,12.2-39.7,12.2"/>
			<path class="st24" d="M438.3,393.6c0,0-5.2-30.2-37.3-49.5c-32.1-19.4-84.9-4.6-113.3,12.7"/>
			<path class="st24" d="M389.7,338.8c0,0,47.6,0.4,48.6,0.9c0,0,6.8,5.4,9,10.9"/>
			<path class="st24" d="M197.8,403.2l70.9-3l4-6.6l-11-17.7c0,0-11.2-1.3-19.9-8.5c-8.7-7.2-8.3-14.4-14.8-19.2
				c-2.4-1.7-4.9-3.1-7.5-4.3c-7.1-3.4-15.4-3.1-22.2,0.8c-4.5,2.6-8.9,7.1-11.5,14.9"/>
			<polygon class="st25" points="190.5,350.6 192.9,354.5 196.1,356 198.5,363.3 208.3,374.3 215.8,371.3 215.8,357.4 211,349 
				213.8,343.1 207.2,324.5 186.6,273.4 179,259 176.1,259 161.8,265.4 163.1,281.6 185.8,333.7 			"/>
			<polyline class="st24" points="190.5,350.6 208.2,343.6 211,349 			"/>
			<polyline class="st24" points="208.2,343.6 203,325.5 181.8,274 175.8,262 179,259 			"/>
			<line class="st24" x1="163.1" y1="281.6" x2="181.8" y2="274"/>
			<line class="st24" x1="185.4" y1="332.7" x2="203" y2="325.5"/>
			<path class="st24" d="M108.5,8.9c0,0,23.6,70.6,26,72.6c6.4,5.1,13.3,9.6,20.5,13.5c8.9,4.7,12.4,16.8,12.6,21.1
				c0.3,4.3-0.1,29.7,0,48.5s8.6,42.9,23.2,59.6c14.6,16.7,44.6,47.6,51,59c6.4,11.4,9.9,26.6,8.7,36.8c-1.3,11.2-6.3,25-12.7,30.6
				c0,0,67.5-7.6,107.9-16.6l32.1-6.6"/>
		</g>
	</g>
</g>
<line class="st187" x1="73.5" y1="406.9" x2="73.5" y2="12.9"/>
<line class="st188" x1="63.1" y1="412.8" x2="180.5" y2="412.8"/>
<line class="st189" x1="67.4" y1="9.5" x2="99.3" y2="9.5"/>
<polygon class="st40" points="73.5,9.5 79.6,21.1 67.4,21.1 "/>
<polygon class="st40" points="73.5,413 67.4,401.4 79.6,401.4 "/>
<line class="st190" x1="226" y1="450.6" x2="440.4" y2="450.6"/>
<line class="st191" x1="446.6" y1="394.6" x2="446.6" y2="455.5"/>
<line class="st192" x1="218.6" y1="418.1" x2="218.6" y2="456.6"/>
<polygon class="st40" points="447.3,450.7 435.6,456.6 435.6,444.7 "/>
<polygon class="st40" points="219,450.7 230.7,456.6 230.7,444.7 "/>
<polygon class="st40" points="493.4,592.1 487.5,580.3 499.3,580.3 "/>
<line class="st193" x1="493.4" y1="586.3" x2="493.4" y2="343.1"/>
<line class="st194" x1="423.2" y1="338.1" x2="499.3" y2="338.1"/>
<line class="st195" x1="254.8" y1="591.7" x2="534.4" y2="591.7"/>
<polygon class="st40" points="493.4,338.1 499.3,349.8 487.5,349.8 "/>
<line class="st194" x1="436.5" y1="401.9" x2="499.3" y2="401.9"/>
<polygon class="st40" points="493.4,401.8 499.3,413.5 487.5,413.5 "/>
<polygon class="st40" points="493.4,401 487.5,389.3 499.3,389.3 "/>
<line class="st196" x1="528.5" y1="587.8" x2="528.5" y2="278.1"/>
<line class="st197" x1="370.5" y1="273.3" x2="534.4" y2="273.3"/>
<polygon class="st40" points="528.5,273.5 534.4,284.8 522.6,284.8 "/>
<polygon class="st40" points="528.5,593.4 522.6,582.1 534.4,582.1 "/>
<g id="frontal_com_cota">
	<rect x="320.8" y="444" class="st36" width="41.9" height="13.4"/>
	<text transform="matrix(1 0 0 1 325.2161 454.7558)" class="st40 st198 st199">48cm</text>
	<rect x="496.8" y="426.3" class="st36" width="67.1" height="20.6"/>
	<text transform="matrix(1 0 0 1 504.0491 440.037)" class="st40 st198 st199">64 - 72cm</text>
	<rect x="41.3" y="203.2" class="st36" width="64.3" height="13.4"/>
	<text transform="matrix(1 0 0 1 57.3186 213.9569)" class="st40 st198 st199">86cm</text>
	<rect x="457.4" y="484.3" class="st36" width="64.3" height="13.4"/>
	<text transform="matrix(1 0 0 1 461.8 495.0907)" class="st40 st198 st199">38 - 48cm</text>
	<rect x="473.3" y="363.1" class="st36" width="40.3" height="13.4"/>
	<text transform="matrix(1 0 0 1 477.6389 373.8583)" class="st40 st198 st199">11cm</text>
</g>
<g>
	<path class="st25" d="M321.2,394c0,0-0.5,24.6,0.7,25.3c1.2,0.6,2.1,2.6,15.5,1.4c13.4-1.2,11.8-1.3,14-2.3s-2-27-2-27
		s-2.3,1.6-10.6,1.9c-8.3,0.2-15.8,0.5-17,0C320.6,392.8,321.2,394,321.2,394z"/>
	<path class="st25" d="M347.7,391.5l-0.9-11.5l-23.6,0.7l0.4,12.9C323.6,393.5,344.8,394.1,347.7,391.5z"/>
	<polygon class="st25" points="320.3,380.7 348.7,379.9 344.7,305.7 364.8,288.1 409,284.9 408.8,279.6 396.5,271.9 385.3,272.3 
		332.5,275.9 289.3,279.7 276.6,288.3 276.7,293.4 289.9,293.3 313.2,307.7 	"/>
	<line class="st24" x1="300.1" y1="299.6" x2="354.5" y2="297.1"/>
	<polyline class="st25" points="276.6,288.3 401.6,280.5 408.8,279.6 	"/>
	<line class="st24" x1="289.9" y1="293.3" x2="364.8" y2="288.1"/>
</g>
<g>
	<path class="st25" d="M238.6,363.6l18.5-2.6l1.6,5.9l-12.7,2.3l-2.6-1.3c-0.5-0.3-2.8-2.1-3.2-2.5L238.6,363.6z"/>
	<path class="st27" d="M256.6,358.9l30.9-2.7l5.6,10.3c0,0-1.4-0.3-4.9,1.8c-3.5,2.1-4.7-0.5-7.6-0.9c-2.9-0.5-5.4,2.5-7.9,2.2
		c-2.5-0.3-2.9-2.8-6.3-2.5c-3.4,0.3-4.6,3.1-6.2,2.5C258.6,369,256.6,358.9,256.6,358.9z"/>
</g>
</svg>
