<?xml version="1.0" encoding="utf-8"?>
<!-- Generator: Adobe Illustrator 23.0.1, SVG Export Plug-In . SVG Version: 6.00 Build 0)  -->
<svg version="1.1" id="Camada_1" xmlns="http://www.w3.org/2000/svg" xmlns:xlink="http://www.w3.org/1999/xlink" x="0px" y="0px"
	 viewBox="0 0 600 600" style="enable-background:new 0 0 600 600;" xml:space="preserve">
<style type="text/css">
	.st0{fill:#FFFFFF;stroke:#1E1E1C;stroke-miterlimit:10;}
	.st1{fill:none;stroke:#1E1E1C;stroke-width:0.6333;stroke-miterlimit:10;}
	.st2{fill:#FFFFFF;stroke:#1E1E1C;stroke-width:1.2665;stroke-miterlimit:10;}
	.st3{fill:#FFFFFF;stroke:#1E1E1C;stroke-width:0.6333;stroke-miterlimit:10;}
	.st4{fill:none;stroke:#1E1E1C;stroke-width:0.9721;stroke-miterlimit:10;}
	.st5{fill:#FFFFFF;}
	.st6{fill:none;stroke:#1E1E1C;stroke-width:0.9881;stroke-miterlimit:10;}
	.st7{fill:none;stroke:#1E1E1C;stroke-width:1.2665;stroke-miterlimit:10;}
	.st8{fill:#FFFFFF;stroke:#1E1E1C;stroke-width:0.9721;stroke-miterlimit:10;}
	.st9{fill:#FFFFFF;stroke:#1E1E1C;stroke-width:0.9091;stroke-miterlimit:10;}
	.st10{fill:#FFFFFF;stroke:#1E1E1C;stroke-width:0.5889;stroke-miterlimit:10;}
	.st11{fill:#FFFFFF;stroke:#1E1E1C;stroke-width:1.019;stroke-miterlimit:10;}
	.st12{fill:#FFFFFF;stroke:#1E1E1C;stroke-width:0.953;stroke-miterlimit:10;}
	.st13{fill:#FFFFFF;stroke:#1E1E1C;stroke-width:0.6639;stroke-miterlimit:10;}
	.st14{fill:#FFFFFF;stroke:#1E1E1C;stroke-width:0.6174;stroke-miterlimit:10;}
	.st15{fill:#FFFFFF;stroke:#1E1E1C;stroke-width:1.3277;stroke-miterlimit:10;}
	.st16{fill:none;stroke:#1E1E1C;stroke-width:0.75;stroke-miterlimit:10;}
	.st17{fill:none;stroke:#1E1E1C;stroke-miterlimit:10;}
	.st18{fill:none;stroke:#1E1E1C;stroke-width:1.3977;stroke-miterlimit:10;}
	.st19{fill:none;stroke:#1E1E1C;stroke-width:2;stroke-miterlimit:10;}
	.st20{fill:#FFFFFF;stroke:#1E1E1C;stroke-width:0.5;stroke-miterlimit:10;}
	.st21{fill:none;stroke:#1E1E1C;stroke-width:0.5;stroke-miterlimit:10;}
	.st22{fill:none;stroke:#1E1E1C;stroke-width:1.0033;stroke-miterlimit:10;}
	.st23{fill:none;}
	.st24{font-family:'MyriadPro-Regular';}
	.st25{font-size:43px;}
	.st26{fill:#FFFFFF;stroke:#020203;stroke-width:0.75;stroke-miterlimit:10;}
	.st27{fill:none;stroke:#020203;stroke-miterlimit:10;}
	.st28{fill:#FFFFFF;stroke:#020203;stroke-miterlimit:10;}
	.st29{fill:none;stroke:#020203;stroke-width:0.5;stroke-miterlimit:10;}
	.st30{fill:#FFFFFF;stroke:#020203;stroke-linejoin:round;}
	.st31{fill:none;stroke:#020203;stroke-linejoin:round;}
	.st32{fill:none;stroke:#020203;stroke-width:0.75;stroke-miterlimit:10;}
	.st33{fill:none;stroke:#020203;stroke-width:0.25;stroke-miterlimit:10;}
	.st34{fill:none;stroke:#E52624;stroke-width:1.5;stroke-miterlimit:10;}
	.st35{fill:#E52624;}
	.st36{fill:#FFFFFF;stroke:#020203;stroke-width:0.5;stroke-miterlimit:10;}
	.st37{fill:none;stroke:#E52522;stroke-width:1.5;stroke-miterlimit:10;}
	.st38{fill:#E52522;}
	.st39{fill:#E7E6E6;}
	.st40{fill:none;stroke:#E20D18;stroke-width:2;stroke-miterlimit:10;}
	.st41{fill:none;stroke:#E20D18;stroke-width:1.8;stroke-miterlimit:10;}
	.st42{fill:none;stroke:#E20D18;stroke-width:1.62;stroke-miterlimit:10;}
	.st43{fill:#E20D18;}
	.st44{fill:none;stroke:#E20D18;stroke-width:1.54;stroke-miterlimit:10;}
	.st45{fill:none;stroke:#E20D18;stroke-width:1.74;stroke-miterlimit:10;}
	.st46{fill:none;stroke:#E20D18;stroke-width:1.55;stroke-miterlimit:10;}
	.st47{fill:none;stroke:#E20D18;stroke-width:1.56;stroke-miterlimit:10;}
	.st48{fill:none;stroke:#E20D18;stroke-width:1.53;stroke-miterlimit:10;}
	.st49{fill:none;stroke:#E20D18;stroke-width:1.58;stroke-miterlimit:10;}
	.st50{fill:none;stroke:#E20D18;stroke-width:1.69;stroke-miterlimit:10;}
	.st51{fill:none;stroke:#E20D18;stroke-width:1.43;stroke-miterlimit:10;}
	.st52{fill:none;stroke:#E20D18;stroke-width:1.48;stroke-miterlimit:10;}
	.st53{fill:none;stroke:#E20D18;stroke-width:1.67;stroke-miterlimit:10;}
	.st54{fill:none;stroke:#E20D18;stroke-width:1.65;stroke-miterlimit:10;}
	.st55{fill:#FFFFFF;stroke:#020203;stroke-width:3;stroke-miterlimit:10;}
	.st56{fill:none;stroke:#E20D18;stroke-width:1.41;stroke-miterlimit:10;}
	.st57{fill:none;stroke:#E20D18;stroke-width:1.59;stroke-miterlimit:10;}
	.st58{fill:none;stroke:#1E1E1C;stroke-width:1.05;stroke-miterlimit:10;}
	.st59{fill:none;stroke:#1E1E1C;stroke-width:0.52;stroke-miterlimit:10;}
	.st60{fill:none;stroke:#1E1E1C;stroke-width:0.8;stroke-miterlimit:10;}
	.st61{fill:none;stroke:#1E1E1C;stroke-width:0.49;stroke-miterlimit:10;}
	.st62{fill:none;stroke:#1E1E1C;stroke-width:0.84;stroke-miterlimit:10;}
	.st63{fill:none;stroke:#1E1E1C;stroke-width:0.79;stroke-miterlimit:10;}
	.st64{fill:none;stroke:#1E1E1C;stroke-width:0.55;stroke-miterlimit:10;}
	.st65{fill:none;stroke:#1E1E1C;stroke-width:0.51;stroke-miterlimit:10;}
	.st66{fill:none;stroke:#1E1E1C;stroke-width:1.1;stroke-miterlimit:10;}
	.st67{fill:none;stroke:#1E1E1C;stroke-width:0.25;stroke-miterlimit:10;}
	.st68{fill:none;stroke:#1E1E1C;stroke-width:1.07;stroke-miterlimit:10;}
	.st69{fill:none;stroke:#1E1E1C;stroke-width:0.94;stroke-miterlimit:10;}
	.st70{fill:none;stroke:#1E1E1C;stroke-width:0.56;stroke-miterlimit:10;}
	.st71{fill:none;stroke:#E20D18;stroke-width:1.5;stroke-miterlimit:10;}
	.st72{fill:none;stroke:#E20D18;stroke-width:1.49;stroke-miterlimit:10;}
	.st73{fill:none;stroke:#E20D18;stroke-miterlimit:10;}
	.st74{fill:none;stroke:#1E1E1C;stroke-width:0.78;stroke-miterlimit:10;}
	.st75{fill:none;stroke:#1E1E1C;stroke-width:1.08;stroke-miterlimit:10;}
	.st76{fill:none;stroke:#1E1E1C;stroke-width:0.54;stroke-miterlimit:10;}
	.st77{fill:none;stroke:#1E1E1C;stroke-width:0.83;stroke-miterlimit:10;}
	.st78{fill:none;stroke:#1E1E1C;stroke-width:0.77;stroke-miterlimit:10;}
	.st79{fill:none;stroke:#1E1E1C;stroke-width:0.87;stroke-miterlimit:10;}
	.st80{fill:none;stroke:#1E1E1C;stroke-width:0.81;stroke-miterlimit:10;}
	.st81{fill:none;stroke:#1E1E1C;stroke-width:1.13;stroke-miterlimit:10;}
	.st82{fill:none;stroke:#1E1E1C;stroke-width:0.21;stroke-miterlimit:10;}
	.st83{fill:#FFFFFF;stroke:#1E1E1C;stroke-width:0.84;stroke-miterlimit:10;}
	.st84{fill:none;stroke:#1E1E1C;stroke-width:0.42;stroke-miterlimit:10;}
	.st85{fill:none;stroke:#1E1E1C;stroke-width:0.24;stroke-miterlimit:10;}
	.st86{fill:none;stroke:#E20D18;stroke-width:1.6;stroke-miterlimit:10;}
	.st87{fill:none;stroke:#E20D18;stroke-width:1.64;stroke-miterlimit:10;}
	.st88{fill:none;stroke:#E20D18;stroke-width:1.484;stroke-miterlimit:10;}
	.st89{fill:none;stroke:#E20D18;stroke-width:1.4075;stroke-miterlimit:10;}
	.st90{fill:none;stroke:#E20D18;stroke-width:1.5853;stroke-miterlimit:10;}
	.st91{fill:none;stroke:#E20D18;stroke-width:1.2981;stroke-miterlimit:10;}
	.st92{fill:none;stroke:#E20D18;stroke-width:0.9733;stroke-miterlimit:10;}
	.st93{fill:none;stroke:#E20D18;stroke-width:0.9159;stroke-miterlimit:10;}
	.st94{fill:none;stroke:#E20D18;stroke-width:1.4439;stroke-miterlimit:10;}
	.st95{fill:none;stroke:#E20D18;stroke-width:1.0062;stroke-miterlimit:10;}
	.st96{fill:none;stroke:#E20D18;stroke-width:0.9468;stroke-miterlimit:10;}
	.st97{fill:none;stroke:#E20D18;stroke-width:1.6749;stroke-miterlimit:10;}
	.st98{fill:none;stroke:#E20D18;stroke-width:1.6513;stroke-miterlimit:10;}
	.st99{fill:#FFFFFF;stroke:#1E1E1C;stroke-width:0.8664;stroke-miterlimit:10;}
	.st100{fill:#FFFFFF;stroke:#1E1E1C;stroke-width:1.0973;stroke-miterlimit:10;}
	.st101{fill:none;stroke:#1E1E1C;stroke-width:1.0973;stroke-miterlimit:10;}
	.st102{fill:#FFFFFF;stroke:#1E1E1C;stroke-width:0.5487;stroke-miterlimit:10;}
	.st103{fill:none;stroke:#1E1E1C;stroke-width:0.8422;stroke-miterlimit:10;}
	.st104{fill:#FFFFFF;stroke:#1E1E1C;stroke-width:0.7877;stroke-miterlimit:10;}
	.st105{fill:#FFFFFF;stroke:#1E1E1C;stroke-width:0.5103;stroke-miterlimit:10;}
	.st106{fill:#FFFFFF;stroke:#1E1E1C;stroke-width:0.8422;stroke-miterlimit:10;}
	.st107{fill:none;stroke:#1E1E1C;stroke-width:0.8829;stroke-miterlimit:10;}
	.st108{fill:#FFFFFF;stroke:#1E1E1C;stroke-width:0.8257;stroke-miterlimit:10;}
	.st109{fill:#FFFFFF;stroke:#1E1E1C;stroke-width:0.5752;stroke-miterlimit:10;}
	.st110{fill:#FFFFFF;stroke:#1E1E1C;stroke-width:0.5349;stroke-miterlimit:10;}
	.st111{fill:#FFFFFF;stroke:#1E1E1C;stroke-width:1.1504;stroke-miterlimit:10;}
	.st112{fill:#FFFFFF;stroke:#1E1E1C;stroke-width:0.8829;stroke-miterlimit:10;}
	.st113{fill:none;stroke:#1E1E1C;stroke-width:0.5487;stroke-miterlimit:10;}
	.st114{fill:#FFFFFF;stroke:#1E1E1C;stroke-width:1.0441;stroke-miterlimit:10;}
	.st115{fill:none;stroke:#E20D18;stroke-width:1.5173;stroke-miterlimit:10;}
	.st116{fill:none;stroke:#E20D18;stroke-width:1.804;stroke-miterlimit:10;}
	.st117{fill:none;stroke:#E20D18;stroke-width:1.6153;stroke-miterlimit:10;}
	.st118{fill:none;stroke:#E20D18;stroke-width:1.578;stroke-miterlimit:10;}
	.st119{fill:none;stroke:#E20D18;stroke-width:1.6879;stroke-miterlimit:10;}
	.st120{fill:none;stroke:#E20D18;stroke-width:1.6347;stroke-miterlimit:10;}
	.st121{fill:none;stroke:#E20D18;stroke-width:1.5386;stroke-miterlimit:10;}
	.st122{fill:none;stroke:#E20D18;stroke-width:1.7396;stroke-miterlimit:10;}
	.st123{fill:#FFFFFF;stroke:#1E1E1C;stroke-width:1.4;stroke-miterlimit:10;}
	.st124{fill:none;stroke:#E20D18;stroke-width:1.4266;stroke-miterlimit:10;}
	.st125{fill:none;stroke:#E20D18;stroke-width:1.4299;stroke-miterlimit:10;}
	.st126{fill:none;stroke:#1E1E1C;stroke-width:0.9867;stroke-miterlimit:10;}
	.st127{fill:none;stroke:#DD0B18;stroke-width:1.4266;stroke-miterlimit:10;}
	.st128{fill:none;stroke:#DD0B18;stroke-width:1.4299;stroke-miterlimit:10;}
	.st129{fill:#DD0B18;}
	.st130{fill:none;stroke:#DD0B18;stroke-width:1.484;stroke-miterlimit:10;}
	.st131{fill:none;stroke:#DD0B18;stroke-width:1.4075;stroke-miterlimit:10;}
	.st132{fill:none;stroke:#DD0B18;stroke-width:1.5853;stroke-miterlimit:10;}
	.st133{fill:none;stroke:#DD0B18;stroke-width:1.2981;stroke-miterlimit:10;}
	.st134{fill:none;stroke:#DD0B18;stroke-width:0.9733;stroke-miterlimit:10;}
	.st135{fill:none;stroke:#DD0B18;stroke-width:0.9159;stroke-miterlimit:10;}
	.st136{fill:none;stroke:#DD0B18;stroke-width:1.4439;stroke-miterlimit:10;}
	.st137{fill:none;stroke:#DD0B18;stroke-width:1.0062;stroke-miterlimit:10;}
	.st138{fill:none;stroke:#DD0B18;stroke-width:0.9468;stroke-miterlimit:10;}
	.st139{fill:none;stroke:#DD0B18;stroke-width:1.6749;stroke-miterlimit:10;}
	.st140{fill:none;stroke:#DD0B18;stroke-width:1.6513;stroke-miterlimit:10;}
	.st141{fill:#FFFFFF;stroke:#1E1E1C;stroke-width:0.75;stroke-miterlimit:10;}
	.st142{fill:none;stroke:#DD0B18;stroke-width:1.5173;stroke-miterlimit:10;}
	.st143{fill:none;stroke:#DD0B18;stroke-width:1.804;stroke-miterlimit:10;}
	.st144{fill:none;stroke:#DD0B18;stroke-width:1.6153;stroke-miterlimit:10;}
	.st145{fill:none;stroke:#DD0B18;stroke-width:1.5551;stroke-miterlimit:10;}
	.st146{fill:none;stroke:#DD0B18;stroke-width:1.578;stroke-miterlimit:10;}
	.st147{fill:#E0E0E0;}
	.st148{fill:none;stroke:#DD0B18;stroke-width:1.6879;stroke-miterlimit:10;}
	.st149{fill:none;stroke:#DD0B18;stroke-width:1.6347;stroke-miterlimit:10;}
	.st150{fill:none;stroke:#DD0B18;stroke-width:1.5386;stroke-miterlimit:10;}
	.st151{fill:none;stroke:#DD0B18;stroke-width:1.7396;stroke-miterlimit:10;}
	.st152{fill:#FFFFFF;stroke:#020203;stroke-width:1.635;stroke-miterlimit:10;}
	.st153{fill:none;stroke:#E20D18;stroke-width:1.52;stroke-miterlimit:10;}
	.st154{fill:#020203;}
	.st155{fill:none;stroke:#1E1E1C;stroke-linejoin:round;}
	.st156{fill:none;stroke:#1E1E1C;stroke-linecap:round;stroke-miterlimit:10;}
	.st157{fill:#1E1E1C;}
	.st158{fill:none;stroke:#1E1E1C;stroke-linejoin:round;stroke-miterlimit:10;}
	.st159{fill:none;stroke:#020203;stroke-linejoin:bevel;stroke-miterlimit:10;}
	.st160{fill:none;stroke:#020203;stroke-miterlimit:10;stroke-dasharray:1;}
	.st161{fill:none;stroke:#020203;stroke-width:0.5;stroke-miterlimit:10;stroke-dasharray:1;}
	.st162{fill:none;stroke:#E20D18;stroke-width:1.3;stroke-miterlimit:10;}
	.st163{fill:none;stroke:#E20D18;stroke-width:0.97;stroke-miterlimit:10;}
	.st164{fill:none;stroke:#E20D18;stroke-width:0.92;stroke-miterlimit:10;}
	.st165{fill:none;stroke:#E20D18;stroke-width:1.44;stroke-miterlimit:10;}
	.st166{fill:none;stroke:#E20D18;stroke-width:1.01;stroke-miterlimit:10;}
	.st167{fill:none;stroke:#E20D18;stroke-width:0.95;stroke-miterlimit:10;}
	.st168{fill:#FFFFFF;stroke:#1E1E1C;stroke-width:2;stroke-miterlimit:10;}
	.st169{fill:none;stroke:#1E1E1C;stroke-width:1.5;stroke-linejoin:round;}
	.st170{fill:none;stroke:#1E1E1C;stroke-width:1.5;stroke-miterlimit:10;}
	.st171{fill:none;stroke:#1E1E1C;stroke-width:2;stroke-linecap:round;stroke-miterlimit:10;}
	.st172{fill:none;stroke:#1E1E1C;stroke-width:1.5;stroke-linecap:round;stroke-miterlimit:10;}
	.st173{fill:none;stroke:#1E1E1C;stroke-width:2;stroke-linejoin:round;stroke-miterlimit:10;}
	.st174{fill:none;stroke:#1E1E1C;stroke-width:2;stroke-linejoin:round;}
	.st175{fill:none;stroke:#020203;stroke-width:0.5;stroke-linejoin:bevel;stroke-miterlimit:10;}
	.st176{fill:none;stroke:#E20D18;stroke-width:1.63;stroke-miterlimit:10;}
	.st177{fill:none;stroke:#000000;stroke-miterlimit:10;}
	.st178{fill:#FFFFFF;stroke:#000000;stroke-miterlimit:10;}
	.st179{fill:none;stroke:#E20D18;stroke-width:1.3113;stroke-miterlimit:10;}
	.st180{fill:none;stroke:#E20D18;stroke-width:1.3459;stroke-miterlimit:10;}
	.st181{fill:none;stroke:#E20D18;stroke-width:1.4481;stroke-miterlimit:10;}
	.st182{fill:none;stroke:#E20D18;stroke-width:1.3929;stroke-miterlimit:10;}
	.st183{font-family:'Roboto-Medium';}
	.st184{font-size:12.596px;}
	.st185{fill:none;stroke:#E20D18;stroke-width:1.327;stroke-miterlimit:10;}
	.st186{fill:none;stroke:#E20D18;stroke-width:1.4965;stroke-miterlimit:10;}
	.st187{fill:none;stroke:#E20D18;stroke-width:1.225;stroke-miterlimit:10;}
	.st188{font-size:12.8861px;}
	.st189{fill:none;stroke:#E20D18;stroke-width:1.4563;stroke-miterlimit:10;}
	.st190{fill:none;stroke:#E20D18;stroke-width:1.5717;stroke-miterlimit:10;}
	.st191{fill:none;stroke:#E20D18;stroke-width:1.5529;stroke-miterlimit:10;}
	.st192{fill:#BFBEBF;stroke:#020203;stroke-miterlimit:10;}
	.st193{fill:none;stroke:#E20D18;stroke-width:2.0835;stroke-miterlimit:10;}
	.st194{fill:none;stroke:#E20D18;stroke-width:1.8751;stroke-miterlimit:10;}
	.st195{fill:none;stroke:#E20D18;stroke-width:1.6876;stroke-miterlimit:10;}
	.st196{fill:none;stroke:#E20D18;stroke-width:1.698;stroke-miterlimit:10;}
	.st197{fill:none;stroke:#E20D18;stroke-width:1.6043;stroke-miterlimit:10;}
	.st198{fill:none;stroke:#E20D18;stroke-width:1.8126;stroke-miterlimit:10;}
	.st199{fill:none;stroke:#E20D18;stroke-width:1.6147;stroke-miterlimit:10;}
	.st200{fill:none;stroke:#E20D18;stroke-width:1.5938;stroke-miterlimit:10;}
	.st201{fill:none;stroke:#E20D18;stroke-width:1.6251;stroke-miterlimit:10;}
	.st202{fill:none;stroke:#E20D18;stroke-width:1.6459;stroke-miterlimit:10;}
	.st203{fill:none;stroke:#E20D18;stroke-width:1.7605;stroke-miterlimit:10;}
	.st204{fill:#FFFFFF;stroke:#1E1E1C;stroke-width:0.87;stroke-miterlimit:10;}
	.st205{fill:#FFFFFF;stroke:#1E1E1C;stroke-width:1.1;stroke-miterlimit:10;}
	.st206{fill:#FFFFFF;stroke:#1E1E1C;stroke-width:0.55;stroke-miterlimit:10;}
	.st207{fill:#FFFFFF;stroke:#1E1E1C;stroke-width:0.79;stroke-miterlimit:10;}
	.st208{fill:#FFFFFF;stroke:#1E1E1C;stroke-width:0.51;stroke-miterlimit:10;}
	.st209{fill:none;stroke:#1E1E1C;stroke-width:0.88;stroke-miterlimit:10;}
	.st210{fill:#FFFFFF;stroke:#1E1E1C;stroke-width:0.83;stroke-miterlimit:10;}
	.st211{fill:#FFFFFF;stroke:#1E1E1C;stroke-width:0.58;stroke-miterlimit:10;}
	.st212{fill:#FFFFFF;stroke:#1E1E1C;stroke-width:0.53;stroke-miterlimit:10;}
	.st213{fill:#FFFFFF;stroke:#1E1E1C;stroke-width:1.15;stroke-miterlimit:10;}
	.st214{fill:#FFFFFF;stroke:#1E1E1C;stroke-width:0.88;stroke-miterlimit:10;}
	.st215{fill:#FFFFFF;stroke:#1E1E1C;stroke-width:1.04;stroke-miterlimit:10;}
	.st216{fill:#FFFFFF;stroke:#020203;stroke-linejoin:round;stroke-miterlimit:10;}
</style>
<rect x="-0.3" y="-37.4" class="st23" width="378" height="41.3"/>
<text transform="matrix(1 0 0 1 -0.2851 -6.8859)" class="st24 st25">Pandora</text>
<g>
	<g>
		<polygon class="st28" points="217.6,414.6 211.2,422.5 208.2,421.3 212.5,415.4 		"/>
		<path class="st28" d="M208.2,421.3h-2.1c0,0-12.5,17.1-12.8,18.4c-0.3,1.4,1.2,6,5.5,6.4c4.3,0.4,6.9-0.3,7.9-1
			c1-0.7,5.4-14.5,5.4-14.5l1.4-6.4l-2.2-1.7L208.2,421.3z"/>
		<path class="st28" d="M197.1,445.7c0,0-2.2-3.3-0.2-6.1c2.1-2.8,12.2-16,12.2-16l-3.1-2.3"/>
		<line class="st27" x1="213.4" y1="424.2" x2="209.1" y2="423.6"/>
		<polyline class="st28" points="300.9,555.6 300.9,579.9 311.1,579.9 311.1,555.8 		"/>
		<path class="st28" d="M300.9,559.9h-5.7c-1.2,5.5-1.8,11.2-1.7,16.9c0.1,9.5,1.7,14.8,1.7,14.8h5.4L300.9,559.9z"/>
		<path class="st28" d="M311.1,559.9h5.7c1.2,5.5,1.8,11.2,1.7,16.9c-0.1,9.5-1.7,14.8-1.7,14.8h-5.4L311.1,559.9z"/>
		<path class="st28" d="M224.1,501c0,0-9.3,1-9.4,2.3c-0.1,1.2-4.5,24.3,4.7,24.2c9.2-0.1,15.5-2.5,16.1-4
			C236.1,522,224.1,501,224.1,501z"/>
		<path class="st28" d="M388.5,499.6c0,0,4.9,0.2,7.3,1.3c1.6,0.8,3.1,1.8,4.3,3.1c0,0-2.1,20.3-3.3,21.1s-6.5,1.4-15.3,0
			c-8.8-1.4,0.9-24.9,0.9-24.9L388.5,499.6z"/>
		<path class="st28" d="M293.9,519.3l1.8,34.8l9.9,2.9l9.9-2.1l1.8-35.6c0,0,3.9-2.6,17.5-1s102.7,9.2,102.7,9.2v2.4
			c0,0,5.7,1.3,8.6,1.6c1.6,0.2,3.1,0.2,4.7,0l4.4-1.6l-0.9-14.9l-42-8.5l-36.9-6.9l10.3-0.7l0.8,1.4l3.7-1.4l-0.5-9l-5.2-6.8
			l-63,3.1l-32.4,0.8l-42-1.3l-1.4-1l-17-0.8l-3.8,0.9l-3.4,5.4l-0.7,1.6v8.9l10.6,0.5l-33.5,7l-2.4-0.7l-36.1,7.3l-0.9,1.1
			l-1.8,0.8l-0.8,16.3l13.6,0.8l4.2-2.1l-0.2-2.2l111.8-11.1C285.5,518.1,292.3,516.9,293.9,519.3z"/>
		<line class="st27" x1="289.5" y1="489.2" x2="231.7" y2="501"/>
		<line class="st27" x1="322.9" y1="489.2" x2="375.7" y2="499.4"/>
		<polyline class="st28" points="295.2,543.9 301.5,538.2 309.7,538.2 316.2,543.9 		"/>
		<polyline class="st28" points="295.2,529.2 301.7,523.5 310,523.5 316.2,529.2 		"/>
		<line class="st27" x1="301.5" y1="538.2" x2="301.4" y2="491.3"/>
		<line class="st27" x1="309.9" y1="491.3" x2="309.7" y2="538.2"/>
		<line class="st27" x1="390" y1="489.7" x2="342.4" y2="492.9"/>
		<line class="st27" x1="367.4" y1="483.8" x2="371.7" y2="491"/>
		<polyline class="st28" points="454.6,514.8 449.5,519.9 449.5,531.4 		"/>
		<path class="st27" d="M317.4,519.3c0,0-1-15.4,2.2-17.1c3.1-1.7,14-0.7,14-0.7l115.8,18.4"/>
		<path class="st27" d="M293.9,519.3c0,0,1.3-18.7,0-18.9s-26.8,3.8-26.8,3.8L196,517.4l-33.5,6.7l-5.5-7.7"/>
		<line class="st27" x1="198.2" y1="507.9" x2="202.6" y2="516.2"/>
		<polyline class="st28" points="221.7,490 239.7,491.8 243.8,485.7 245.9,484.5 		"/>
		<line class="st27" x1="264.1" y1="494.4" x2="239.7" y2="491.8"/>
		<path class="st28" d="M289.3,486.8c0,0,8.2,4.1,16.5,4.1c5.3-0.1,10.5-1.3,15.2-3.6l-1.5-43.1c0,0-8.7,3.4-14.4,3.4
			c-5.7,0-14.3-0.4-14.3-2.4C290.9,443.3,289.3,486.8,289.3,486.8z"/>
		<path class="st28" d="M169.1,534l0.9,16.9c0,0,1,15.8-14.4,15.8c-7.8,0-11.9-4.2-14-8.3c-2.6-5-2.7-11-0.2-16.2
			c1.7-3.7,4.9-6.4,8.9-7.3c0,0,5.9-1,9.2,0.8c0.3,0.2,0.7,0,0.9-0.3c0.1-0.1,0.1-0.2,0.1-0.4l-0.1-1.6L169.1,534z"/>
		<path class="st28" d="M139.8,554.3c0,0-2.5-12.8,10.2-17.6c7.4-2.8,16.2,2,18.3,7.4l0.7,1.8"/>
		<path class="st28" d="M140.6,556.4c0,0-1.9-13,10.8-17.8c7.4-2.8,15.8,3,17.7,7.7l0.7,1.8"/>
		<path class="st28" d="M148.2,543.4c0.2-0.1,0.5-0.1,0.7,0.1c1.1,1.4,5.4,7.1,5.1,7.6c-0.3,0.5,0.3,1-5.1-0.1l-4.5-0.9
			c-0.3-0.1-0.6-0.4-0.5-0.7C144.7,547.3,146.8,544.4,148.2,543.4z"/>
		<path class="st28" d="M158.2,541c0.2,0.1,0.4,0.3,0.3,0.6c-0.4,1.7-2.1,8.6-2.7,8.7s-0.6,0.9-3.1-4.1l-2.1-4.1
			c-0.1-0.3-0.1-0.7,0.2-0.8C153,540.7,156.6,540.5,158.2,541z"/>
		<path class="st28" d="M166.4,547c0.1,0.2,0,0.5-0.2,0.6c-1.5,0.8-7.6,3.8-8,3.4c-0.4-0.4-1,0.1,1.1-4.8c1-2.5,1.4-3.5,1.7-4
			c0.1-0.2,0.5-0.5,0.7-0.3C163.4,543,165.7,545.6,166.4,547z"/>
		<path class="st28" d="M154.3,564.6c0.3,0,0.5-0.2,0.5-0.4c0.2-1.7,0.9-8.9,0.4-9.1c-0.5-0.3-0.3-1-4.3,2.8l-3.4,3.1
			c-0.2,0.2-0.3,0.6-0.1,0.8C149.3,563.1,152.6,564.5,154.3,564.6z"/>
		<path class="st28" d="M163.8,561.5c0.2-0.2,0.2-0.4,0-0.6c-1.1-1.2-5.8-6.1-6.3-5.9c-0.5,0.2-0.9-0.4-0.6,4.9
			c0.1,2.7,0.2,3.8,0.2,4.4c0,0.3,0.3,0.6,0.5,0.5C159.6,564.3,162.7,562.7,163.8,561.5z"/>
		<path class="st28" d="M167.4,551.6c-0.1-0.2-0.3-0.4-0.5-0.4c-1.6,0.3-8.3,1.4-8.4,1.9s-0.9,0.5,3.7,3.3l3.7,2.3
			c0.2,0.1,0.7,0.1,0.8-0.1C167.3,556.6,167.7,553.1,167.4,551.6z"/>
		<path class="st28" d="M441.9,531l-0.8,16.9c0,0-1,15.8,14.4,15.8c7.8,0,11.9-4.2,14-8.3c2.6-5,2.7-11,0.2-16.1
			c-1.7-3.7-4.9-6.4-8.9-7.3c0,0-5.9-1-9.2,0.8c-0.3,0.2-0.8,0-0.9-0.3c-0.1-0.1-0.1-0.2-0.1-0.4l0.1-1.6L441.9,531z"/>
		<path class="st28" d="M471.2,551.3c0,0,2.5-12.8-10.2-17.6c-7.4-2.8-16.1,2.1-18.3,7.5l-0.7,1.8"/>
		<path class="st28" d="M470.4,553.4c0,0,1.9-13-10.8-17.8c-7.3-2.8-15.8,3-17.7,7.7l-0.7,1.8"/>
		<path class="st28" d="M462.8,540.4c-0.2-0.2-0.5-0.1-0.7,0.1c-1.1,1.4-5.4,7.1-5.1,7.6s-0.3,1,5.1-0.1l4.5-0.9
			c0.3-0.1,0.6-0.4,0.5-0.7C466.3,544.3,464.2,541.4,462.8,540.4z"/>
		<path class="st28" d="M452.8,538c-0.2,0.1-0.4,0.3-0.3,0.6c0.4,1.7,2.1,8.6,2.7,8.7c0.6,0.1,0.6,0.9,3.1-4.1l2.1-4.1
			c0.1-0.3,0.1-0.7-0.2-0.8C458,537.7,454.4,537.5,452.8,538z"/>
		<path class="st28" d="M444.7,544c-0.1,0.2,0,0.5,0.2,0.6c0,0,0,0,0,0c1.5,0.8,7.6,3.8,8,3.4c0.4-0.4,1,0.1-1-4.8
			c-1-2.5-1.5-3.5-1.7-4c-0.1-0.2-0.5-0.5-0.7-0.3C447.7,540,445.3,542.6,444.7,544z"/>
		<path class="st28" d="M465.9,556.2c-0.1,0.2-0.4,0.3-0.6,0.1c-1.5-1-7.4-5-7.2-5.6c0.1-0.5-0.6-0.8,4.9-1.5l4.6-0.5
			c0.3,0,0.7,0.2,0.7,0.5C468,551.4,466.9,554.9,465.9,556.2z"/>
		<path class="st28" d="M456.7,561.6c-0.3,0-0.5-0.2-0.5-0.4c-0.2-1.7-0.9-8.9-0.4-9.1c0.5-0.3,0.3-1,4.3,2.8l3.3,3.1
			c0.2,0.2,0.3,0.6,0.1,0.8C461.8,560.1,458.4,561.5,456.7,561.6z"/>
		<path class="st28" d="M447.3,558.5c-0.2-0.2-0.2-0.4,0-0.6c1.1-1.2,5.8-6.1,6.3-5.9c0.5,0.2,0.9-0.4,0.6,4.9
			c-0.1,2.7-0.2,3.8-0.2,4.4c0,0.3-0.3,0.6-0.5,0.5C451.5,561.3,448.4,559.7,447.3,558.5z"/>
		<path class="st28" d="M443.7,548.6c0.1-0.2,0.3-0.4,0.5-0.4c1.6,0.3,8.3,1.4,8.4,1.9c0.1,0.5,0.9,0.5-3.7,3.3l-3.7,2.3
			c-0.2,0.1-0.7,0.1-0.8-0.1C443.8,553.6,443.3,550.1,443.7,548.6z"/>
		<line class="st27" x1="294.6" y1="429.9" x2="315.8" y2="429.7"/>
		<path class="st28" d="M315.8,411.1v18.6l2.1,1.4l0.8,14.1c0,0-2.3,2.8-12.5,3.1c-10.3,0.3-14.6-2.4-14.6-2.4l0.2-15.1l2.8-0.9
			l-0.2-18.1C294.4,411.8,312.5,411.1,315.8,411.1z"/>
		<line class="st27" x1="294" y1="430.1" x2="316.3" y2="429.9"/>
		<path class="st28" d="M145.1,559.2c0.1,0.2,0.4,0.3,0.6,0.1c1.5-1,7.4-5,7.2-5.6c-0.1-0.5,0.6-0.9-4.9-1.5l-4.6-0.5
			c-0.3,0-0.7,0.2-0.7,0.5C143,554.4,144.1,557.9,145.1,559.2z"/>
	</g>
</g>
<g>
	<g>
		<path class="st5" d="M267.2,398.9c-0.6,0-1.2,0-1.8,0c-16.9-0.6-43.7-7.4-44-7.5l-0.1,0l-30.9-28.8l-4.4-23.7
			c-1.5-4.5-6.6-21.6-7.7-50.5c-0.1-5,0.6-39.1,6.6-69.5c0.2-1.3,0.4-2.9,0.6-4.6c1.4-9.7,3.6-24.4-0.5-41.9
			c-1.2-6.7-4.7-34.5-4.8-34.8c-0.1-0.6-3.8-17.1,2.7-26.9c2.8-4.1,7.7-10.5,18.3-17.8c9.6-6.6,33.5-24.7,33.7-24.9
			c0.1-0.1,7.4-5.3,11.7-16.2c2.1-5.6,8.6-25.6,8.6-25.9c0-0.1,4.9-15.5,20.7-18c8.5-1.2,18.5-2.2,21.8-2.2h4.7
			c3.3,0,13.4,0.9,21.8,2.2c15.8,2.5,20.7,17.8,20.7,18c0.1,0.2,6.5,20.2,8.6,25.9c4.3,10.9,11.6,16.1,11.7,16.1
			c0.3,0.2,24.1,18.3,33.7,24.9c10.6,7.3,15.5,13.6,18.3,17.8c6.5,9.8,2.9,26.3,2.7,27c0,0.2-3.6,28-4.8,34.7
			c-4.1,17.6-1.9,32.3-0.5,42c0.3,1.8,0.5,3.3,0.6,4.7c6.1,30.4,6.7,64.5,6.6,69.5c-1.1,28.9-6.1,46-7.7,50.5l-3.3,20.4l-15.2,22.2
			l-0.2,0.1c-2.4,0.9-23.7,8.4-25.7,8.4c-0.4,0-5.4,0.5-12.4,1.2C333.4,393.8,282.8,398.9,267.2,398.9z"/>
		<path d="M302.5,6.3c3.1,0,13,0.9,21.8,2.2c15.7,2.5,20.3,17.6,20.3,17.6s6.5,20.2,8.6,25.9c4.4,11.2,11.9,16.4,11.9,16.4
			s24,18.2,33.7,24.9c9.7,6.7,14.8,12.6,18.1,17.6c6.5,9.7,2.6,26.6,2.6,26.6s-3.6,28-4.8,34.8c-4.9,20.9-0.9,37.9,0.1,46.8
			c5.9,29.6,6.8,63.5,6.6,69.4c-1,28.7-6.1,45.7-7.6,50.4l-3.3,20.4l-15,22c0,0-23.5,8.4-25.5,8.4c-1.9,0-82.5,8.8-103,8.8
			c-0.6,0-1.2,0-1.7,0c-17.1-0.6-43.9-7.5-43.9-7.5l-30.7-28.6l-4.4-23.5c-1.6-4.7-6.6-21.7-7.6-50.4c-0.1-5.9,0.7-39.9,6.6-69.4
			c1-8.8,5-25.9,0.1-46.8c-1.2-6.8-4.8-34.8-4.8-34.8s-3.8-16.9,2.6-26.6c3.3-5,8.4-11,18.1-17.6c9.7-6.7,33.7-24.9,33.7-24.9
			s7.5-5.2,11.9-16.4c2.2-5.7,8.6-25.9,8.6-25.9s4.6-15.2,20.3-17.6c8.7-1.3,18.6-2.2,21.8-2.2H302.5 M302.5,5.3h-4.7
			c-3.3,0-13.4,0.9-21.9,2.2c-16.1,2.5-21.1,18.2-21.1,18.3c-0.1,0.2-6.5,20.2-8.6,25.8c-4.2,10.8-11.4,15.9-11.5,15.9
			c-0.3,0.2-24.1,18.3-33.7,24.9c-10.7,7.3-15.6,13.7-18.4,17.9c-6.5,9.8-3.1,26.1-2.8,27.3c0.2,1.3,3.6,28.2,4.8,34.8l0,0l0,0
			c4.1,17.5,1.9,32.1,0.5,41.8c-0.3,1.8-0.5,3.3-0.6,4.6c-6.1,30.5-6.8,64.6-6.6,69.6c1,28.8,6.1,45.9,7.7,50.6l4.3,23.4l0.1,0.3
			l0.2,0.2l30.7,28.6l0.2,0.2l0.2,0.1c0.3,0.1,27.1,6.9,44.1,7.5c0.5,0,1.1,0,1.8,0c15.7,0,66.3-5.2,90.6-7.6
			c6.6-0.7,11.9-1.2,12.4-1.2c2,0,21.9-7,25.8-8.4l0.3-0.1l0.2-0.3l15-22l0.1-0.2l0-0.2l3.3-20.3c1.6-4.7,6.6-21.8,7.7-50.6
			c0.1-5-0.6-39.1-6.6-69.6c-0.2-1.4-0.4-2.9-0.6-4.6c-1.4-9.7-3.6-24.3,0.5-41.8l0,0l0,0c1.2-6.6,4.6-33.5,4.8-34.8
			c0.3-1.2,3.7-17.5-2.8-27.3c-2.8-4.2-7.7-10.6-18.4-17.9c-9.6-6.6-33.4-24.7-33.7-24.9c-0.1-0.1-7.3-5.2-11.5-15.9
			c-2.1-5.6-8.5-25.6-8.6-25.8c0-0.1-5-15.8-21.1-18.3C315.9,6.2,305.9,5.3,302.5,5.3L302.5,5.3z"/>
	</g>
	<g>
		<path class="st5" d="M384.4,421.2c-1.2,0-2.5-0.2-3.8-0.5c-4.5-0.7-46.2-3.8-80.2-4.9h-0.6c-34,1.1-75.7,4.2-80.2,4.9
			c-1.2,0.3-2.5,0.5-3.8,0.5c-2.6,0-4.4-0.8-5-1.1c-0.3,0.1-0.8,0.2-1.6,0.2c-1.7,0-4.1-0.5-6.8-1.4c-4.9-1-13.3-2.8-22.9-14.2
			c-0.4-0.5-0.8-1-1.2-1.6c-4.4-5.8-12.5-16.6-13.8-53c-1-1.4-1.7-2.7-1.7-2.8l0-0.1l0-0.1c0-0.1-0.1-0.9,0.3-1.9
			c0.2-0.6,1-0.9,1.9-0.9c0.6,0,1.4,0.1,1.9,0.5c2-2,7.6-7.1,15.1-7.1c1.5,0,3,0.2,4.5,0.6c0.3,0.1,7.3,2.2,10.7,8
			c2.7,4.8,5.6,10.3,6.5,12c0.7-0.5,2-1.2,3.7-1.4c2.7-0.3,58.1-0.4,92.4-0.4h0.6c34.3,0,89.7,0.1,92.4,0.4c1.8,0.2,3.1,0.9,3.7,1.4
			c0.9-1.7,3.8-7.2,6.5-12c3.4-5.8,10.4-7.9,10.7-8c1.5-0.4,3-0.6,4.5-0.6c7.5,0,13.2,5.1,15.1,7.1c0.5-0.3,1.3-0.5,1.9-0.5
			c1,0,1.7,0.3,1.9,0.9c0.4,1,0.3,1.8,0.3,1.9l0,0.1l0,0.1c0,0.1-0.7,1.3-1.7,2.8c-1.4,36.4-9.5,47.2-13.8,53
			c-0.4,0.6-0.8,1.1-1.1,1.6c-9.7,11.4-18,13.2-23,14.2c-3.4,1.2-5.5,1.4-6.7,1.4c-0.8,0-1.3-0.1-1.6-0.2
			C388.8,420.4,387,421.2,384.4,421.2z"/>
		<path d="M418.3,338.2c8.3,0,14.4,6.5,15.1,7.3c0.4-0.4,1.2-0.6,2-0.6c0.7,0,1.3,0.2,1.5,0.6c0.4,0.9,0.3,1.6,0.3,1.6
			s-0.7,1.3-1.8,2.8c-1.5,40-11.1,49-14.9,54.4c-9.3,11-17.1,12.9-22.7,14c-3.3,1.1-5.4,1.4-6.6,1.4c-1.2,0-1.6-0.2-1.6-0.2
			s-1.8,1.1-5,1.1c-1.1,0-2.3-0.1-3.7-0.5c-4.9-0.8-46.9-3.8-80.3-4.9h-0.6c-33.3,1.1-75.4,4.1-80.3,4.9c-1.4,0.4-2.6,0.5-3.7,0.5
			c-3.1,0-5-1.1-5-1.1s-0.5,0.2-1.6,0.2c-1.3,0-3.4-0.3-6.6-1.4c-5.6-1.2-13.5-3.1-22.7-14c-3.8-5.4-13.4-14.4-14.9-54.4
			c-1.1-1.5-1.8-2.8-1.8-2.8s-0.1-0.7,0.3-1.6c0.2-0.4,0.8-0.6,1.5-0.6c0.8,0,1.6,0.2,2,0.6c0.7-0.8,6.7-7.3,15.1-7.3
			c1.4,0,2.9,0.2,4.4,0.6c0,0,7.1,2,10.4,7.8c3.3,5.7,6.8,12.5,6.8,12.5s1.5-1.4,3.9-1.6c2.5-0.2,52.3-0.4,92.4-0.4h0.6
			c40.1,0,89.9,0.1,92.4,0.4c2.5,0.2,3.9,1.6,3.9,1.6s3.5-6.8,6.8-12.5c3.3-5.7,10.4-7.8,10.4-7.8
			C415.4,338.4,416.9,338.2,418.3,338.2 M418.3,337.2c-1.6,0-3.1,0.2-4.6,0.6c-0.3,0.1-7.5,2.2-11,8.2c-2.5,4.4-5.2,9.4-6.3,11.5
			c-0.8-0.5-2-1-3.5-1.1c-2.7-0.3-58.1-0.4-92.5-0.4h-0.6c-34.3,0-89.7,0.1-92.5,0.4c-1.5,0.2-2.7,0.7-3.5,1.1
			c-1.1-2.1-3.7-7.1-6.3-11.5c-3.5-6-10.7-8.1-11-8.2c-1.5-0.4-3.1-0.6-4.6-0.6c-7.4,0-13,4.8-15.2,7c-0.6-0.2-1.3-0.3-1.8-0.3
			c-1.2,0-2.1,0.4-2.4,1.2c-0.5,1.2-0.4,2.1-0.3,2.2l0,0.2l0.1,0.1c0,0.1,0.7,1.3,1.7,2.7c1.4,36.5,9.5,47.3,13.9,53.1
			c0.4,0.6,0.8,1.1,1.1,1.5l0,0l0,0c9.7,11.5,18.1,13.3,23.2,14.4c2.8,1,5.1,1.5,6.9,1.5c0.7,0,1.2-0.1,1.5-0.2
			c0.8,0.4,2.5,1.1,5,1.1c1.3,0,2.6-0.2,3.9-0.5c4.8-0.7,46.3-3.8,80.1-4.9l0.5,0c33.8,1.1,75.3,4.1,80.1,4.9
			c1.3,0.4,2.6,0.5,3.9,0.5c2.5,0,4.3-0.7,5-1.1c0.3,0.1,0.8,0.2,1.5,0.2c1.8,0,4.1-0.5,6.9-1.5c5.1-1.1,13.5-2.9,23.2-14.4l0,0l0,0
			c0.3-0.5,0.7-1,1.1-1.5c4.4-5.8,12.5-16.6,13.9-53.1c1-1.4,1.7-2.6,1.7-2.7l0.1-0.1l0-0.2c0-0.1,0.2-1-0.3-2.2
			c-0.3-0.8-1.2-1.2-2.4-1.2c-0.5,0-1.2,0.1-1.8,0.3C431.3,342,425.7,337.2,418.3,337.2L418.3,337.2z"/>
	</g>
	<path class="st177" d="M184.7,338.4c0,0,7.7,12.4,12.2,27.8"/>
	<path class="st177" d="M208,416.9c0,0-7-0.9-13.3-10.8s-11.8-23.2-11.8-23.2s-8.9-27.6-15.9-37.4"/>
	<path class="st177" d="M165.1,349.9c0,0,3.4,6,9,21.4c5.6,15.4,9.8,25.9,9.8,25.9s4.1,12.3,18.8,21.2"/>
	<path class="st177" d="M261.7,16.2c0,0-3.2,5.5-7.3,20c-4.1,14.4-6.8,25.6-17.2,32.8C226.7,76.2,197,98.7,197,98.7
		s-20.9,15.1-14.4,33.7c6.5,18.5,10.7,27.2,10.7,27.2s10.7,20.9,7.6,44.4c-3.1,23.5-5.6,45.7-5.6,45.7s-3.7,20.9,3.4,58.2
		c7.1,37.4,9.2,49.5,9.2,49.5"/>
	<path class="st177" d="M231.8,185.1c-18-42.9-42-79.6-42-79.6"/>
	<path class="st177" d="M207.8,355.9c0,0,6.2-6.2,7.4-18.4s3.7-45,3.7-45s3.1-28.4,0-73.7c-1.4-11.6-4.5-31.5,0.1-61.6"/>
	<path class="st177" d="M214,357.3c0,0,2.7,0.2,4.1-15.7c1.4-15.9,8.4-95.5,8.4-95.5s4.5-59.5,7.3-73.3c2.7-13.7,6-37.7,4.5-55.8"/>
	<path class="st177" d="M203.6,359.1c0,0-2.4,8-3,18.3c-0.6,10.3-0.8,32,9.8,41.9c0,0-12-10.3-14.3-27.3c-0.6-10.1-2.9-26.6,7-33.9"
		/>
	<path class="st177" d="M189.7,340.2c0,0-3.2-16-5-28.2c-1.8-12.2-4.2-23.6-2.6-44.6c0.6-6,3.6-34.2,5.6-47.3
		c0.9-6,4.6-31.2-2.8-51.7"/>
	<path class="st177" d="M230.7,113.5l6.2-13c0,0,0.4-2.2,4.4-3.2c3.9-1,33.8-9.8,33.8-9.8s10.1-3.3,7.8,6
		c-2.1,4.6-7.5,16.3-7.5,16.3s-1.2,3-3.9,3.3c-2.7,0.3-38.6,4.7-38.6,4.7S228.3,118.4,230.7,113.5z"/>
	<path class="st177" d="M234.6,111.5l4.1-9.1c0,0,1.6-3.4,4.8-4.2c3.2-0.8,28.3-6.4,28.3-6.4s8.5-1.7,6.8,4.7
		c-1.3,3.4-4.8,11.2-4.8,11.2s-0.8,1.9-4.3,2.3c-2.2,0.3-31.2,4.9-31.2,4.9S232.1,116,234.6,111.5z"/>
	<path class="st177" d="M243.7,99.2c0,0-4.9,1.8-4.1,7.4c1.2,2.9,3.3,6.4,8.4,6.1c3.9-0.8,22.3-4.6,22.3-4.6s3.6-1.9,4.2-5
		c0.3-2.2-0.5-8.1-5-8.4c-4.4-0.3-6.5,0.4-6.5,0.4L243.7,99.2z"/>
	<path class="st177" d="M239.6,104.6c0,0,0.6-1.2,2.3-1.7c1.7-0.5,21.7-4.3,21.7-4.3s4.4-1.3,6.9,2.7c0.7,1.2,1.7,2.5,1.2,5.9"/>
	<path class="st177" d="M239.5,67.2c0,0,6.4-0.9,11.2,5.5c3,4,5.3,6.8,6.6,8.3c1.5,1.8,2.7,3.8,3.5,5.9c0.5,1.4,0.9,3,0.9,4.6"/>
	<path class="st177" d="M415.6,338.4c0,0-7.7,12.4-12.2,27.8"/>
	<path class="st177" d="M392.3,416.9c0,0,7-0.9,13.3-10.8c6.4-9.9,11.8-23.2,11.8-23.2s8.9-27.6,15.9-37.4"/>
	<path class="st177" d="M435.3,349.9c0,0-3.4,6-9,21.4c-5.6,15.4-9.8,25.9-9.8,25.9s-4.1,12.3-18.8,21.2"/>
	<path class="st177" d="M338.7,16.2c0,0,3.2,5.5,7.3,20s6.8,25.6,17.2,32.8c10.4,7.2,40.1,29.7,40.1,29.7s20.9,15.1,14.4,33.7
		S407,159.6,407,159.6s-10.7,20.9-7.6,44.4s5.6,45.7,5.6,45.7s3.7,20.9-3.4,58.2s-9.2,49.5-9.2,49.5"/>
	<path class="st177" d="M368.5,185.1c18-42.9,42-79.6,42-79.6"/>
	<path class="st177" d="M392.6,355.9c0,0-6.2-6.2-7.4-18.4s-3.7-45-3.7-45s-3.1-28.4,0-73.7c1.4-11.6,4.5-31.5-0.1-61.6"/>
	<path class="st177" d="M386.3,357.3c0,0-2.7,0.2-4.1-15.7c-1.4-15.9-8.4-95.5-8.4-95.5s-4.5-59.5-7.3-73.3s-6-37.7-4.5-55.8"/>
	<path class="st177" d="M378.4,297.8c0,0-4-3.1-13.9-2.9s-59.8,1.5-59.8,1.5h-8.9c0,0-50-1.3-59.8-1.5c-9.9-0.1-13.9,2.9-13.9,2.9"
		/>
	<path class="st177" d="M372.3,227.7c0,0-4.4-3.1-12.2-3.1c-7.8,0-58.2,0-58.2,0h-3.3c0,0-50.4,0-58.2,0c-7.8,0-12.2,3.1-12.2,3.1"
		/>
	<polyline class="st177" points="363.9,157.2 305.7,157.2 298.5,157.2 236.4,157.2 	"/>
	<path class="st177" d="M396.8,359.1c0,0,2.4,8,3,18.3c0.6,10.3,0.8,32-9.8,41.9c0,0,12-10.3,14.3-27.3c0.6-10.1,2.9-26.6-7-33.9"/>
	<path class="st177" d="M410.6,340.2c0,0,3.2-16,5-28.2c1.8-12.2,4.2-23.6,2.6-44.6c-0.6-6-3.6-34.2-5.6-47.3
		c-0.9-6-4.6-31.2,2.8-51.7"/>
	<path class="st177" d="M369.7,113.5l-6.2-13c0,0-0.4-2.2-4.4-3.2s-33.8-9.8-33.8-9.8s-10.1-3.3-7.8,6c2.1,4.6,7.5,16.3,7.5,16.3
		s1.2,3,3.9,3.3c2.7,0.3,38.6,4.7,38.6,4.7S372,118.4,369.7,113.5z"/>
	<path class="st177" d="M365.7,111.5l-4.1-9.1c0,0-1.6-3.4-4.8-4.2c-3.2-0.8-28.3-6.4-28.3-6.4s-8.5-1.7-6.8,4.7
		c1.3,3.4,4.8,11.2,4.8,11.2s0.8,1.9,4.3,2.3c2.2,0.3,31.2,4.9,31.2,4.9S368.3,116,365.7,111.5z"/>
	<path class="st177" d="M356.6,99.2c0,0,4.9,1.8,4.1,7.4c-1.2,2.9-3.3,6.4-8.4,6.1c-3.9-0.8-22.3-4.6-22.3-4.6s-3.6-1.9-4.2-5
		c-0.3-2.2,0.5-8.1,5-8.4c4.4-0.3,6.5,0.4,6.5,0.4L356.6,99.2z"/>
	<path class="st177" d="M360.8,104.6c0,0-0.6-1.2-2.3-1.7c-1.7-0.5-21.7-4.3-21.7-4.3s-4.4-1.3-6.9,2.7c-0.7,1.2-1.7,2.5-1.2,5.9"/>
	<path class="st177" d="M325.1,110.3c0,0-7.9,2.8-22.6,3.4h-3.6c-14.7-0.6-23.7-3.4-23.7-3.4"/>
	<path class="st177" d="M360.8,67.2c0,0-6.4-0.9-11.2,5.5c-3,4-5.3,6.8-6.6,8.3c-1.5,1.8-2.7,3.8-3.5,5.9c-0.5,1.4-0.9,3-0.9,4.6"/>
</g>
<g>
	<polygon class="st28" points="185.7,411.3 163.6,411.3 162.3,407.9 181.9,407.9 	"/>
	<path class="st28" d="M167.6,406.2l-0.8-1.4l-6-0.3c0,0-0.6,1.4-1.2-13.4c-0.3-0.3-0.7-0.7-2.3-1.1v-3l1-0.7l0.2-14l0.5-34
		c0,0,0.6-23.7,0.7-25.7c0.1-1.3,0.5-2.5,1.2-3.6l7.4-10.7l8.3-3.8l-0.4-8.4l-0.9-0.2c0,0-0.1-0.4-0.4-1.2c-0.1-0.4-0.5-0.7-1-0.6
		c0,0-26.1-0.3-32.6-0.2s-10.2,2.2-10.2,2.2s-6.7,4.7-8.9,6.3c-1.2,0.7-2.1,1.9-2.5,3.2c0,0,0,2.6,0,3.8s1.2,1.2,2.3,1.3l10.6,0.5
		c0,0,6.7,7.3,8.1,8.6c0.8,0.7,1.1,1.7,1.1,2.7l3.1,74.9l0.8,0.6c0,0,0,2-0.1,3.1c-0.8,0.1-1.5,0.5-2,1.1c0,0-1.4,17.8-1.5,20.1
		c-0.1,2.3,2.7,2.4,2.7,2.4s17.7-0.5,19-0.5c1.3,0,1.7-1.6,1.7-1.6L167.6,406.2z"/>
	<path class="st27" d="M175.2,285.6l-11.6,4.8l-2.8,0.8l-4.1,2.5c0,0-2.4,1.7-8.2,1.7s-23-0.4-23-0.4s-4.5-0.2-5.4-0.9"/>
	<path class="st27" d="M132.4,300.7h26.7c0,0,3.5,0.1,5.6-0.9c2.8-1.3,3.6-1.8,3.6-1.8"/>
	<path class="st27" d="M135.9,304.4c0,0,1,0.5,4.7,0.5c3.7,0,17.5-0.3,17.5-0.3c1.4,0,2.7-0.2,4-0.6c1-0.3,2-0.8,2.9-1.3"/>
	<path class="st27" d="M145.5,387.5c0,0,2.1,1.2,6.8,0.4c1.7-0.2,3.3-0.5,5-1"/>
	<path class="st27" d="M143.4,391.6c0,0,1.7,1.8,5.4,2.1c2.9,0.1,5.8-0.4,8.5-1.5c0.8-0.3,1.6-0.7,2.3-1.2"/>
	<path class="st27" d="M145.4,390.5c0,0-0.5,1,0.1,1.3c0.7,0.5,1.6,0.8,2.4,0.9c1.6,0.1,3.3,0.1,4.9-0.2h0.1l2.9-0.6
		c0.9-0.2,1.5-1,1.5-2v0"/>
</g>
<g>
	<polygon class="st178" points="439.9,412.1 413.8,412.1 418.3,408.6 435.2,408.6 	"/>
	<path class="st178" d="M432.4,406.2l0.9-1.4l6-0.3c0,0,0.6,1.4,1.2-13.4c0.3-0.3,0.7-0.7,2.3-1.1v-3l-1-0.7l-0.2-14l-0.5-34
		c0,0-0.6-23.7-0.7-25.7c-0.1-1.3-0.5-2.5-1.2-3.6l-7.4-10.7l-8.3-3.8l0.4-8.4l0.9-0.2c0,0,0.1-0.4,0.4-1.2c0.1-0.4,0.5-0.7,1-0.6
		c0,0,26.1-0.3,32.6-0.2s10.2,2.2,10.2,2.2s6.7,4.7,8.9,6.3c1.2,0.7,2.1,1.9,2.4,3.2c0,0,0,2.6,0,3.8s-1.2,1.2-2.3,1.3l-10.6,0.5
		c0,0-6.7,7.3-8,8.6c-0.8,0.7-1.1,1.7-1.1,2.7l-3.1,74.9l-0.9,0.6c0,0,0,2,0.1,3.1c0.8,0.1,1.5,0.5,2,1.1c0,0,1.4,17.8,1.5,20.1
		c0.1,2.3-2.7,2.4-2.7,2.4s-17.7-0.5-19-0.5s-1.7-1.6-1.7-1.6L432.4,406.2z"/>
	<path class="st177" d="M424.8,285.6l11.6,4.8l2.8,0.8l4.1,2.5c0,0,2.4,1.7,8.2,1.7s23.1-0.4,23.1-0.4s4.5-0.2,5.3-0.9"/>
	<path class="st177" d="M467.6,300.7h-26.6c0,0-3.5,0.1-5.6-0.9c-2.8-1.3-3.6-1.8-3.6-1.8"/>
	<path class="st177" d="M464.1,304.5c0,0-1,0.5-4.7,0.5s-17.5-0.3-17.5-0.3c-1.4,0-2.7-0.2-4-0.6c-1-0.3-2-0.8-2.9-1.3"/>
	<path class="st177" d="M454.5,387.5c0,0-2.1,1.2-6.8,0.4c-1.7-0.2-3.3-0.5-5-1"/>
	<path class="st177" d="M456.6,391.6c0,0-1.7,1.8-5.4,2.1c-2.9,0.1-5.8-0.4-8.5-1.5c-0.8-0.3-1.6-0.7-2.3-1.2"/>
	<path class="st177" d="M454.6,390.6c0,0,0.5,1-0.1,1.3c-0.7,0.5-1.6,0.8-2.4,0.9c-1.6,0.1-3.3,0.1-4.9-0.2h0l-2.9-0.6
		c-0.9-0.2-1.5-1-1.5-2v0"/>
</g>
<g>
	<line class="st179" x1="187.2" y1="128.5" x2="412.6" y2="128.5"/>
	<g>
		<line class="st180" x1="178.1" y1="134.1" x2="178.1" y2="123.1"/>
		<polygon class="st43" points="178.4,128.6 188.6,134.1 188.6,123.1 		"/>
	</g>
	<g>
		<line class="st180" x1="421.5" y1="133.7" x2="421.5" y2="122.7"/>
		<polygon class="st43" points="421.5,128.4 411.3,133.9 411.3,122.9 		"/>
	</g>
	<line class="st181" x1="237.3" y1="208" x2="362.6" y2="208"/>
	<g>
		<polygon class="st43" points="230.4,208 241.3,213.5 241.3,202.5 		"/>
		<line class="st182" x1="229.9" y1="213.4" x2="229.9" y2="202.5"/>
	</g>
	<g>
		<line class="st182" x1="370.7" y1="213.9" x2="370.7" y2="202.9"/>
		<polygon class="st43" points="371,208 360,213.5 360,202.5 		"/>
	</g>
	<polygon class="st5" points="321.8,213 286.8,213.5 286.8,196.1 321.8,196.1 	"/>
	<text transform="matrix(1 0 0 1 288.2492 212.1532)" class="st43 st183 st184">33cm</text>
	<rect x="279.5" y="117.9" class="st5" width="36.2" height="13.8"/>
	<line class="st185" x1="180.7" y1="305.6" x2="413.2" y2="305.6"/>
	<g>
		<line class="st186" x1="178.1" y1="311.2" x2="178.1" y2="300"/>
		<polygon class="st43" points="178.1,305.6 188.7,311.2 188.7,300 		"/>
	</g>
	<g>
		<line class="st185" x1="421.2" y1="311.3" x2="421.2" y2="300.1"/>
		<polygon class="st43" points="421.2,305.6 410.6,311.2 410.6,300 		"/>
	</g>
	<rect x="280.5" y="300.4" class="st5" width="37.2" height="14.4"/>
	<text transform="matrix(1 0 0 1 283.4484 311.2348)" class="st43 st183 st184">52cm</text>
	<g>
		<line class="st187" x1="172.3" y1="352.3" x2="426.9" y2="352.3"/>
		<g>
			<line class="st186" x1="162.6" y1="357.9" x2="162.6" y2="346.7"/>
			<polygon class="st43" points="162.6,352.3 173.2,357.9 173.2,346.7 			"/>
		</g>
		<g>
			<line class="st185" x1="435.6" y1="357.9" x2="435.6" y2="346.7"/>
			<polygon class="st43" points="435.6,352.3 425,357.9 425,346.7 			"/>
		</g>
		<rect x="286.3" y="345.1" class="st5" width="37.2" height="14.4"/>
		<text transform="matrix(0.93 0 0 1 289.2492 356.0683)" class="st43 st183 st188">54cm</text>
	</g>
	<line class="st189" x1="178.8" y1="241.4" x2="420.8" y2="241.4"/>
	<text transform="matrix(1 0 0 1 283.9514 244.1918)" class="st43 st183 st184">34cm</text>
	<rect x="266.7" y="234.1" class="st5" width="58.7" height="12.5"/>
	<g>
		<polygon class="st43" points="170,241.3 179.9,246.8 179.9,235.8 		"/>
		<line class="st186" x1="169.4" y1="298.3" x2="169.4" y2="236.1"/>
	</g>
	<g>
		<polygon class="st43" points="430.7,241.3 420.8,246.7 420.8,235.8 		"/>
		<line class="st186" x1="431.1" y1="298.3" x2="431.1" y2="235.8"/>
	</g>
	<text transform="matrix(1 0 0 1 271.4484 244.1996)" class="st43 st183 st184">52-55cm</text>
	<text transform="matrix(1 0 0 1 281.7473 131.7069)" class="st43 st183 st184">54cm</text>
	<g>
		<line class="st190" x1="203.8" y1="383.8" x2="398.7" y2="383.8"/>
		<g>
			<line class="st191" x1="404.8" y1="390.3" x2="404.8" y2="377.3"/>
			<polygon class="st43" points="404.2,383.8 392.6,389.9 392.6,377.7 			"/>
		</g>
		<g>
			<line class="st191" x1="194.8" y1="390.2" x2="194.8" y2="377.4"/>
			<polygon class="st43" points="195.4,383.9 206.9,377.8 206.9,390 			"/>
		</g>
		<rect x="289.8" y="375.9" class="st5" width="37.5" height="16.6"/>
		<text transform="matrix(0.93 0 0 1 293.716 387.5741)" class="st43 st183 st188">39cm</text>
	</g>
</g>
</svg>
