<svg xmlns="http://www.w3.org/2000/svg" viewBox="0 0 137.76 352.79"><defs><style>.cls-1{font-size:15px;font-family:MyriadPro-Regular, Myriad Pro;}.cls-1,.cls-4{fill:#b3221d;}.cls-2,.cls-3,.cls-6{fill:none;}.cls-2,.cls-3{stroke:#b3221d;}.cls-2,.cls-3,.cls-5,.cls-6{stroke-miterlimit:10;}.cls-2{stroke-width:0.98px;}.cls-3{stroke-width:1.5px;}.cls-5{fill:#fff;}.cls-5,.cls-6{stroke:#686868;stroke-width:2px;}.cls-7{fill:#686868;opacity:0.6;}</style></defs><title>Atomo frontal</title><g id="Camada_2" data-name="Camada 2"><g id="Camada_1-2" data-name="Camada 1"><text class="cls-1" transform="translate(48.74 342.73)">19,5cm</text><line class="cls-2" x1="10.65" y1="345.71" x2="124.62" y2="345.71"/><line class="cls-3" x1="8.27" y1="352.79" x2="8.27" y2="338.63"/><polygon class="cls-4" points="8.68 345.71 20.95 352.79 20.95 338.63 8.68 345.71"/><line class="cls-3" x1="131.16" y1="352.79" x2="131.16" y2="338.63"/><polygon class="cls-4" points="130.75 345.71 118.49 352.79 118.49 338.63 130.75 345.71"/><polygon class="cls-5" points="136.76 290.45 6.23 290.45 6.23 12.22 6.23 1 136.76 1 136.76 290.45"/><line class="cls-6" x1="137.38" y1="12.22" x2="6.23" y2="12.22"/><line class="cls-6" x1="137.38" y1="276.94" x2="6.23" y2="276.94"/><rect class="cls-5" x="1" y="7.91" width="4.84" height="9.45"/><rect class="cls-5" x="1" y="274.02" width="4.84" height="9.45"/><rect class="cls-5" x="10.73" y="290.45" width="23.85" height="5.51"/><rect class="cls-5" x="107.95" y="290.45" width="23.85" height="5.51"/><path class="cls-7" d="M137.33,276.94,7.61,276c-2.33,0-1,3-1-1.59L6.23,12.22c4.09-.07,11.35.16,13.68.16H136.7c.94.1.63-1.38.63,3.21l0,207.54C137.38,227.71,137.33,238.86,137.33,276.94Z"/></g></g></svg>