<svg xmlns="http://www.w3.org/2000/svg" viewBox="0 0 340.75 334.33"><defs><style>.cls-1,.cls-15,.cls-7{fill:#fff;}.cls-1,.cls-10,.cls-11,.cls-12,.cls-13,.cls-15,.cls-8,.cls-9{stroke:#686868;}.cls-1,.cls-10,.cls-11,.cls-12,.cls-13,.cls-15,.cls-3,.cls-4,.cls-6,.cls-8,.cls-9{stroke-miterlimit:10;}.cls-1,.cls-9{stroke-width:0.7px;}.cls-2{font-size:15px;font-family:MyriadPro-Regular, Myriad Pro;}.cls-2,.cls-5{fill:#b3221d;}.cls-10,.cls-11,.cls-12,.cls-13,.cls-3,.cls-4,.cls-6,.cls-8,.cls-9{fill:none;}.cls-3,.cls-4,.cls-6{stroke:#b3221d;}.cls-3{stroke-width:1.54px;}.cls-4{stroke-width:1.5px;}.cls-6{stroke-width:1.56px;}.cls-15,.cls-8{stroke-width:2.09px;}.cls-10{stroke-width:0.77px;}.cls-11{stroke-width:0.72px;}.cls-12{stroke-width:0.7px;}.cls-13{stroke-width:0.76px;}.cls-14{fill:#686868;opacity:0.6;}</style></defs><title>Atomo lateral</title><g id="Camada_2" data-name="Camada 2"><g id="Camada_1-2" data-name="Camada 1"><polyline class="cls-1" points="6.06 108.33 0.35 108.33 0.35 202.22 4.87 202.22"/><text class="cls-2" transform="translate(123.48 324.26)">37,5cm</text><line class="cls-3" x1="6.09" y1="327.25" x2="285.99" y2="327.25"/><line class="cls-4" x1="3.7" y1="334.33" x2="3.7" y2="320.17"/><polygon class="cls-5" points="4.11 327.25 16.37 334.32 16.37 320.17 4.11 327.25"/><line class="cls-4" x1="296.15" y1="334.33" x2="296.15" y2="320.17"/><polygon class="cls-5" points="295.74 327.25 283.47 334.32 283.47 320.17 295.74 327.25"/><text class="cls-2" transform="translate(337 168.57) rotate(-90)">43,5cm</text><line class="cls-6" x1="322.05" y1="289.07" x2="322.05" y2="4.04"/><line class="cls-4" x1="329.13" y1="297.56" x2="314.97" y2="297.56"/><polygon class="cls-5" points="322.06 297.15 329.13 284.89 314.97 284.89 322.06 297.15"/><line class="cls-4" x1="329.13" y1="1.98" x2="314.97" y2="1.98"/><polygon class="cls-5" points="322.06 2.4 329.13 14.66 314.97 14.66 322.06 2.4"/><path class="cls-7" d="M295.15,268.16l-7.76,6.9L281,280.72l-59.85.77-168-1-.7,1.15H5v-1.4L6.75,1.05l262,.27.68.16h5.74l.34.39s9-.06,9.7,0c.5,0,4.47,6.63,7.08,11l.08.14c1.15,1.94,2,3.44,2.18,3.71a.06.06,0,0,1,0,0v.86l.61,241.58Z"/><path class="cls-8" d="M295.17,268.15h0l-7.76,6.9L281,280.72l-59.85.77-168-1L5,280.21H4.87L6.75,1.05l262,.27.68.16h5.74l.34.39h9.7s4.27,6.52,7.08,11l.08.14c1.05,1.69,1.88,3.08,2.18,3.71a.06.06,0,0,1,0,0,1,1,0,0,1,.11.3,2.14,2.14,0,0,1-.11.56,3.72,3.72,0,0,1-.44.91l1.05,240.67Z"/><line class="cls-9" x1="268.99" y1="1.98" x2="268.99" y2="280.87"/><polyline class="cls-9" points="275.57 1.98 275.57 275.06 287.98 275.06"/><line class="cls-9" x1="52.8" y1="280.21" x2="5.42" y2="280.21"/><polyline class="cls-9" points="16.03 18.84 13.97 266.04 19.08 271.33 255.78 272.38 255.78 268.98 260.01 264.22 260.01 19.19"/><path class="cls-9" d="M9.28,9.85v6.81s-.41,2.18,3.34,2.18H261.15s5.17.38,5.17-3.06V9.5"/><path class="cls-9" d="M6.87,280.21V278H16s2.68,0,2.68-2.29v-5.08"/><path class="cls-9" d="M255.56,272.38v4.13s-.09,3.25,1.76,3.25h9.47v1.84"/><polyline class="cls-9" points="14.44 210.67 229.88 210.67 229.88 272.38"/><rect class="cls-9" x="45.27" y="41.44" width="90.9" height="70.35" rx="4.83"/><rect class="cls-10" x="41.33" y="38.39" width="98.79" height="76.45" rx="6.64"/><rect class="cls-10" x="148.15" y="35.57" width="12.8" height="39.81" rx="5.39"/><rect class="cls-10" x="178.1" y="35.57" width="12.8" height="39.81" rx="5.39"/><rect class="cls-11" x="220.84" y="20.77" width="11.27" height="39.81" rx="5.06" transform="translate(185.8 267.16) rotate(-90)"/><rect class="cls-10" x="148.15" y="91.88" width="12.8" height="39.81" rx="5.39"/><rect class="cls-10" x="178.1" y="91.88" width="12.8" height="39.81" rx="5.39"/><rect class="cls-10" x="148.15" y="149.3" width="12.8" height="39.81" rx="5.39"/><rect class="cls-10" x="178.1" y="149.3" width="12.8" height="39.81" rx="5.39"/><rect class="cls-9" x="44.48" y="187.42" width="26.16" height="10.13" rx="5.06"/><rect class="cls-9" x="84.03" y="187.42" width="26.16" height="10.13" rx="5.06"/><rect class="cls-9" x="31.74" y="192.48" width="1.35" height="8.88" rx="0.68"/><rect class="cls-9" x="34.76" y="192.48" width="1.35" height="8.88" rx="0.68"/><rect class="cls-9" x="31.74" y="135.88" width="1.35" height="8.88" rx="0.68"/><rect class="cls-9" x="34.76" y="135.88" width="1.35" height="8.88" rx="0.68"/><rect class="cls-9" x="31.74" y="79.51" width="1.35" height="8.88" rx="0.68"/><rect class="cls-9" x="34.76" y="79.51" width="1.35" height="8.88" rx="0.68"/><rect class="cls-9" x="152.36" y="192.48" width="1.35" height="8.88" rx="0.68"/><rect class="cls-9" x="155.39" y="192.48" width="1.35" height="8.88" rx="0.68"/><rect class="cls-9" x="152.36" y="135.88" width="1.35" height="8.88" rx="0.68"/><rect class="cls-9" x="155.39" y="135.88" width="1.35" height="8.88" rx="0.68"/><rect class="cls-9" x="152.36" y="79.51" width="1.35" height="8.88" rx="0.68"/><rect class="cls-9" x="155.39" y="79.51" width="1.35" height="8.88" rx="0.68"/><rect class="cls-9" x="182.31" y="192.48" width="1.35" height="8.88" rx="0.68"/><rect class="cls-9" x="185.33" y="192.48" width="1.35" height="8.88" rx="0.68"/><rect class="cls-9" x="182.31" y="135.88" width="1.35" height="8.88" rx="0.68"/><rect class="cls-9" x="185.33" y="135.88" width="1.35" height="8.88" rx="0.68"/><rect class="cls-9" x="182.31" y="79.51" width="1.35" height="8.88" rx="0.68"/><rect class="cls-9" x="185.33" y="79.51" width="1.35" height="8.88" rx="0.68"/><rect class="cls-9" x="224.98" y="89.57" width="1.35" height="8.88" rx="0.68" transform="translate(131.65 319.67) rotate(-90)"/><rect class="cls-9" x="224.98" y="86.55" width="1.35" height="8.88" rx="0.68" transform="translate(134.67 316.64) rotate(-90)"/><rect class="cls-9" x="224.98" y="186.19" width="1.35" height="8.88" rx="0.68" transform="translate(35.03 416.28) rotate(-90)"/><rect class="cls-9" x="224.98" y="183.16" width="1.35" height="8.88" rx="0.68" transform="translate(38.06 413.26) rotate(-90)"/><line class="cls-9" x1="230.1" y1="211.55" x2="260.36" y2="211.55"/><circle class="cls-9" cx="56.05" cy="137.39" r="1.47"/><circle class="cls-9" cx="56.05" cy="137.39" r="2.83"/><circle class="cls-9" cx="102.36" cy="137.39" r="1.47"/><circle class="cls-9" cx="102.36" cy="137.39" r="2.83"/><circle class="cls-9" cx="56.05" cy="175.38" r="1.47"/><circle class="cls-9" cx="56.05" cy="175.38" r="2.83"/><circle class="cls-9" cx="43.53" cy="204.84" r="1.47"/><circle class="cls-9" cx="43.53" cy="204.84" r="2.83"/><circle class="cls-9" cx="104.3" cy="204.84" r="1.47"/><circle class="cls-9" cx="104.3" cy="204.84" r="2.83"/><circle class="cls-9" cx="165.47" cy="204.84" r="1.47"/><circle class="cls-9" cx="165.47" cy="204.84" r="2.83"/><circle class="cls-9" cx="205.16" cy="204.84" r="1.47"/><circle class="cls-9" cx="205.16" cy="204.84" r="2.83"/><circle class="cls-9" cx="201.93" cy="188.28" r="1.47"/><circle class="cls-9" cx="201.93" cy="188.28" r="2.83"/><circle class="cls-9" cx="201.93" cy="150.31" r="1.47"/><circle class="cls-9" cx="201.93" cy="150.31" r="2.83"/><circle class="cls-9" cx="201.93" cy="131.04" r="1.47"/><circle class="cls-9" cx="201.93" cy="131.04" r="2.83"/><circle class="cls-9" cx="218.45" cy="131.04" r="1.47"/><circle class="cls-9" cx="218.45" cy="131.04" r="2.83"/><circle class="cls-9" cx="248.42" cy="131.04" r="1.47"/><circle class="cls-9" cx="248.42" cy="131.04" r="2.83"/><circle class="cls-9" cx="248.42" cy="93.34" r="1.47"/><circle class="cls-9" cx="248.42" cy="93.34" r="2.83"/><circle class="cls-9" cx="248.42" cy="150.31" r="1.47"/><circle class="cls-9" cx="248.42" cy="150.31" r="2.83"/><circle class="cls-9" cx="248.42" cy="188.28" r="1.47"/><circle class="cls-9" cx="248.42" cy="188.28" r="2.83"/><circle class="cls-9" cx="218.45" cy="150.31" r="1.47"/><circle class="cls-9" cx="218.45" cy="150.31" r="2.83"/><circle class="cls-9" cx="201.93" cy="93.34" r="1.47"/><circle class="cls-9" cx="201.93" cy="93.34" r="2.83"/><circle class="cls-9" cx="224.05" cy="71.21" r="1.47"/><circle class="cls-9" cx="224.05" cy="71.21" r="2.83"/><circle class="cls-9" cx="102.36" cy="175.38" r="1.47"/><circle class="cls-9" cx="102.36" cy="175.38" r="2.83"/><circle class="cls-9" cx="27.52" cy="122.33" r="1.45"/><circle class="cls-9" cx="27.52" cy="150.31" r="1.45"/><circle class="cls-9" cx="122.03" cy="122.33" r="1.45"/><circle class="cls-9" cx="166.36" cy="123.15" r="1.45"/><circle class="cls-9" cx="122.03" cy="150.31" r="1.45"/><circle class="cls-9" cx="122.03" cy="163.38" r="1.45"/><circle class="cls-9" cx="122.03" cy="199" r="1.45"/><circle class="cls-9" cx="166.24" cy="199" r="1.45"/><circle class="cls-9" cx="41.97" cy="26.97" r="1.45"/><circle class="cls-9" cx="122.47" cy="26.97" r="1.45"/><circle class="cls-9" cx="144.79" cy="26.97" r="1.45"/><rect class="cls-9" x="213.15" y="135.28" width="24.93" height="10.33" rx="5.17"/><rect class="cls-9" x="237.29" y="108.24" width="19.95" height="8.22" rx="4.11" transform="translate(134.91 359.62) rotate(-90)"/><rect class="cls-9" x="237.29" y="162.73" width="19.95" height="8.22" rx="4.11" transform="translate(80.42 414.11) rotate(-90)"/><path class="cls-9" d="M41.33,130.58v64.59s-.23,5.58,5,5.58H113.5s4.29.41,4.29-3.64v-2.7s-.43-3.95,1.64-3.95h4.94s1.87-.2,1.8,4.31,0,2.51,0,2.51a3.4,3.4,0,0,0,3.53,3.57h7.2a4,4,0,0,0,3.09-3.93V129.49s-.47-3.58-4.94-3.58h-5a4.23,4.23,0,0,0-3.81,4.35v3.28s.35,2.38-2.65,2.38H121s-2.49.38-2.49-2.61v-3.05s.38-4.35-3.41-4.35h-70S41.33,126.1,41.33,130.58Z"/><rect class="cls-12" x="53.22" y="142.16" width="51.96" height="28.45" rx="3.73"/><rect class="cls-12" x="116.73" y="144.76" width="10.51" height="36.26" rx="2.89"/><rect class="cls-10" x="209.8" y="97.05" width="31.53" height="87.55" rx="3.08"/><rect class="cls-13" x="196.65" y="88.39" width="57.07" height="105.9" rx="3.34"/><rect class="cls-11" x="204.75" y="49.9" width="43.67" height="6.81"/><rect class="cls-11" x="204.75" y="76.62" width="43.67" height="6.81"/><rect class="cls-11" x="201.13" y="61.95" width="5.45" height="2.42" rx="1.21"/><rect class="cls-11" x="201.13" y="69.28" width="5.45" height="2.42" rx="1.21"/><circle class="cls-11" cx="199.1" cy="63.16" r="1.17"/><circle class="cls-11" cx="196.01" cy="63.16" r="1.17"/><circle class="cls-11" cx="199.1" cy="70.49" r="1.17"/><circle class="cls-11" cx="196.01" cy="70.49" r="1.17"/><path class="cls-11" d="M217.7,62.76h-7.16a1.51,1.51,0,0,0-1.62,1.61v5s-.23,1.78,1.24,1.78h7.92s.51-.08.51-.55S218,70,218,70h-7.16s-.76-.08-.76-1.1,0-4.08,0-4.08-.14-1,.84-1h6.83s.88.08.88-.47S217.7,62.76,217.7,62.76Z"/><rect class="cls-11" x="249.78" y="62.06" width="5.45" height="2.42" rx="1.21"/><rect class="cls-11" x="249.78" y="69.39" width="5.45" height="2.42" rx="1.21"/><circle class="cls-11" cx="247.75" cy="63.27" r="1.17"/><circle class="cls-11" cx="244.66" cy="63.27" r="1.17"/><circle class="cls-11" cx="247.75" cy="70.6" r="1.17"/><circle class="cls-11" cx="244.66" cy="70.6" r="1.17"/><path class="cls-11" d="M238.55,62.86h-7.17a1.52,1.52,0,0,0-1.61,1.62v5s-.24,1.79,1.23,1.79h7.93a.58.58,0,0,0,.5-.55c0-.48-.59-.59-.59-.59h-7.16s-.77-.07-.77-1.1,0-4.07,0-4.07-.13-1,.85-1h6.82s.88.07.88-.48S238.55,62.86,238.55,62.86Z"/><path class="cls-14" d="M269,273.22l-262.12-1c-4.71,0-2,3.07-2-1.64L7.92,1.75c8.26-.07,19.11,0,23.82,0l236,0C269.63,1.82,269,.3,269,5l.11,213C269.1,222.7,269,234.13,269,273.22Z"/><line class="cls-1" x1="154.44" y1="99.44" x2="63.83" y2="190.05"/><line class="cls-1" x1="194.21" y1="81.79" x2="103.59" y2="172.4"/><path class="cls-9" d="M16.37,226.38l5.37-4.91H84.53s2.28-.36,2.28,1.53v30.38L74.59,264.54H16.37Z"/><rect class="cls-15" x="19.98" y="280.68" width="36.12" height="10.98"/><rect class="cls-15" x="231.83" y="281.49" width="36.12" height="10.98"/></g></g></svg>