<svg xmlns="http://www.w3.org/2000/svg" xmlns:xlink="http://www.w3.org/1999/xlink" viewBox="0 0 282.32 376.06"><defs><style>.cls-1,.cls-3,.cls-5,.cls-6,.cls-8,.cls-9{fill:none;}.cls-2{clip-path:url(#clip-path);}.cls-3,.cls-5,.cls-6,.cls-9{stroke:#1d1d1b;}.cls-3,.cls-5,.cls-6,.cls-8{stroke-linejoin:round;}.cls-3{stroke-width:0.25px;}.cls-4{clip-path:url(#clip-path-2);}.cls-6{stroke-width:0.5px;}.cls-7{fill:url(#Unnamed_Pattern);}.cls-8{stroke:#000;}.cls-9{stroke-miterlimit:10;}</style><clipPath id="clip-path"><rect class="cls-1" width="4" height="4"/></clipPath><clipPath id="clip-path-2" transform="translate(0 0)"><rect class="cls-1" width="282.32" height="376.06"/></clipPath><pattern id="Unnamed_Pattern" data-name="Unnamed Pattern" width="4" height="4" patternTransform="matrix(1, 0, 0, -1, 8.76, 15973.97)" patternUnits="userSpaceOnUse" viewBox="0 0 4 4"><rect class="cls-1" width="4" height="4"/><g class="cls-2"><polygon class="cls-3" points="3.36 0.06 2.73 -0.88 3.35 -1.92 4.56 -1.93 5.22 -1 4.64 0.04 3.36 0.06"/><polygon class="cls-3" points="-0.64 0.06 -1.27 -0.88 -0.65 -1.92 0.56 -1.93 1.22 -1 0.64 0.04 -0.64 0.06"/><polygon class="cls-3" points="3.36 2.06 2.73 1.12 3.35 0.08 4.56 0.07 5.22 1 4.64 2.04 3.36 2.06"/><polygon class="cls-3" points="1.36 1.06 0.73 0.12 1.35 -0.92 2.56 -0.93 3.22 0 2.64 1.04 1.36 1.06"/><polygon class="cls-3" points="-0.64 2.06 -1.27 1.12 -0.65 0.08 0.56 0.07 1.22 1 0.64 2.04 -0.64 2.06"/><polygon class="cls-3" points="3.36 4.06 2.73 3.12 3.35 2.08 4.56 2.07 5.22 3 4.64 4.04 3.36 4.06"/><polygon class="cls-3" points="1.36 3.06 0.73 2.12 1.35 1.08 2.56 1.07 3.22 2 2.64 3.04 1.36 3.06"/><polygon class="cls-3" points="-0.64 4.06 -1.27 3.12 -0.65 2.08 0.56 2.07 1.22 3 0.64 4.04 -0.64 4.06"/><polygon class="cls-3" points="3.36 6.06 2.73 5.12 3.35 4.08 4.56 4.07 5.22 5 4.64 6.04 3.36 6.06"/><polygon class="cls-3" points="1.36 5.06 0.73 4.12 1.35 3.08 2.56 3.07 3.22 4 2.64 5.04 1.36 5.06"/><polygon class="cls-3" points="-0.64 6.06 -1.27 5.12 -0.65 4.08 0.56 4.07 1.22 5 0.64 6.04 -0.64 6.06"/></g></pattern></defs><g id="Camada_2" data-name="Camada 2"><g id="Camada_1-2" data-name="Camada 1"><g id="Arte_3" data-name="Arte 3"><g class="cls-4"><line class="cls-5" x1="4.97" y1="119.19" x2="4.97" y2="118.63"/><line class="cls-5" x1="4.94" y1="103.42" x2="4.94" y2="103.41"/><polyline class="cls-5" points="5.12 219.87 5.12 219.88 5.15 235.76"/><g class="cls-4"><path class="cls-5" d="M5.16,243.27l.16,104.11,158.35,27.53L161.11,4.56,7.36,40.21a3.24,3.24,0,0,0-2.51,3.16l0,21.55v0l0,33.23h0" transform="translate(0 0)"/><line class="cls-5" x1="5.11" y1="214.4" x2="4.98" y2="127.08"/><line class="cls-5" x1="5.18" y1="214.41" x2="4.98" y2="127.08"/><path class="cls-5" d="M4.92,98.17,4.85,65.41a3.59,3.59,0,0,1,0-.47v0C5,64,5.6,63.29,7.36,63.1L158,32.78a1,1,0,0,1,1.24,1l1.57,261a.9.9,0,0,1-1,.9L6.27,281.43a1,1,0,0,1-.95-1l-.08-37" transform="translate(0 0)"/><polyline class="cls-5" points="5.22 235.71 5.22 235.7 5.19 219.9"/><line class="cls-5" x1="4.97" y1="119.19" x2="4.97" y2="118.63"/><path class="cls-5" d="M154.34,49.5c0,2.78-1.51,5-3.38,5s-3.38-2.25-3.38-5,1.51-5,3.38-5S154.34,46.72,154.34,49.5Z" transform="translate(0 0)"/><path class="cls-5" d="M154.42,54.25c1.87,0,3.38-2.25,3.38-5s-1.51-5-3.38-5l-.35,0" transform="translate(0 0)"/><line class="cls-5" x1="150.89" y1="44.47" x2="154.42" y2="44.19"/><line class="cls-5" x1="151.24" y1="54.51" x2="154.42" y2="54.25"/><path class="cls-5" d="M155.67,281.18c0,2.77-1.52,5-3.38,5s-3.39-2.26-3.39-5,1.52-5,3.39-5S155.67,278.4,155.67,281.18Z" transform="translate(0 0)"/><path class="cls-5" d="M155.74,285.93c1.87,0,3.38-2.25,3.38-5s-1.51-5-3.38-5l-.35,0" transform="translate(0 0)"/><line class="cls-5" x1="152.21" y1="276.15" x2="155.74" y2="275.87"/><line class="cls-5" x1="152.56" y1="286.19" x2="155.74" y2="285.93"/><path class="cls-6" d="M133.36,312.36s-.51-1.64.74-2.13l3.15,3.11,2.87-2.06a2.48,2.48,0,0,1,1.22,2.11l-3,2.49.47,5.42s-.34.2-1.67-.08l-.54-5.66Z" transform="translate(0 0)"/><path class="cls-6" d="M142.92,313.56s-.51-1.64.74-2.13l3.15,3.13,2.87-2.08a2.53,2.53,0,0,1,1.23,2.12l-3,2.51.47,5.44s-.34.2-1.67-.08l-.55-5.68Z" transform="translate(0 0)"/><path class="cls-6" d="M123.68,311s-.51-1.62.74-2.11l3.15,3.09,2.87-2.06a2.5,2.5,0,0,1,1.22,2.1l-3,2.49.47,5.39s-.34.2-1.67-.08l-.54-5.63Z" transform="translate(0 0)"/><path class="cls-6" d="M114,309.58s-.51-1.61.74-2.1l3.15,3.08,2.87-2.06a2.47,2.47,0,0,1,1.22,2.09l-3,2.48.46,5.36s-.34.2-1.67-.08l-.53-5.6Z" transform="translate(0 0)"/><path class="cls-6" d="M104.32,308.21s-.5-1.6.74-2.09l3.15,3.06,2.87-2a2.44,2.44,0,0,1,1.22,2.07l-3,2.47.45,5.33s-.34.2-1.67-.07l-.52-5.57Z" transform="translate(0 0)"/><path class="cls-6" d="M94.64,306.86s-.5-1.6.75-2.09l3.14,3.05,2.87-2a2.44,2.44,0,0,1,1.22,2.07l-3,2.46.45,5.3s-.34.2-1.67-.07L97.9,310Z" transform="translate(0 0)"/><path class="cls-6" d="M85,305.52s-.5-1.59.75-2.08l3.14,3,2.87-2a2.41,2.41,0,0,1,1.21,2.06l-3,2.44.45,5.28s-.34.2-1.67-.07l-.52-5.52Z" transform="translate(0 0)"/><path class="cls-6" d="M75.3,304.19s-.49-1.58.75-2.07l3.13,3,2.88-2a2.41,2.41,0,0,1,1.21,2.05l-3,2.43.44,5.26s-.34.19-1.67-.07l-.51-5.49Z" transform="translate(0 0)"/><path class="cls-6" d="M65.63,302.87s-.49-1.57.75-2.06l3.13,3,2.88-2a2.37,2.37,0,0,1,1.21,2l-3,2.43.43,5.22s-.34.2-1.67-.06l-.5-5.47Z" transform="translate(0 0)"/><path class="cls-6" d="M56,301.57s-.49-1.57.75-2.05l3.13,3,2.88-2a2.35,2.35,0,0,1,1.21,2l-3,2.41.43,5.2s-.34.2-1.67-.06l-.5-5.44Z" transform="translate(0 0)"/><path class="cls-6" d="M46.31,300.28s-.49-1.56.75-2l3.12,3,2.89-2a2.34,2.34,0,0,1,1.2,2l-3,2.41.42,5.17s-.34.19-1.66-.07l-.49-5.41Z" transform="translate(0 0)"/><path class="cls-6" d="M36.65,299s-.49-1.55.75-2l3.12,2.94,2.89-2a2.34,2.34,0,0,1,1.2,2l-3,2.4.41,5.14s-.34.2-1.66-.06L39.88,302Z" transform="translate(0 0)"/><path class="cls-6" d="M27,297.74s-.49-1.54.76-2l3.11,2.93,2.89-2a2.31,2.31,0,0,1,1.2,2L32,301l.41,5.12s-.34.2-1.67-.06l-.48-5.35Z" transform="translate(0 0)"/><path class="cls-6" d="M17.34,296.49s-.49-1.53.76-2l3.11,2.91,2.89-2a2.29,2.29,0,0,1,1.19,2l-3,2.37.4,5.09s-.34.2-1.66-.06l-.48-5.32Z" transform="translate(0 0)"/><path class="cls-6" d="M133.26,326.23s-.51-1.63.74-2.12l3.15,3.14L140,325.2a2.53,2.53,0,0,1,1.22,2.12l-3,2.47.46,5.41s-.34.2-1.67-.09l-.54-5.65Z" transform="translate(0 0)"/><path class="cls-6" d="M142.83,327.51s-.5-1.64.74-2.13l3.16,3.15,2.87-2a2.53,2.53,0,0,1,1.23,2.12l-3,2.49.47,5.43s-.34.2-1.67-.09l-.55-5.68Z" transform="translate(0 0)"/><path class="cls-6" d="M123.56,324.77s-.5-1.62.74-2.11l3.16,3.12,2.87-2a2.5,2.5,0,0,1,1.22,2.11l-3,2.46.46,5.38s-.34.2-1.67-.09l-.54-5.62Z" transform="translate(0 0)"/><path class="cls-6" d="M113.87,323.32s-.5-1.61.74-2.1l3.15,3.1,2.88-2a2.47,2.47,0,0,1,1.22,2.09l-3,2.45.46,5.35s-.34.2-1.68-.08l-.52-5.6Z" transform="translate(0 0)"/><path class="cls-6" d="M104.18,321.89s-.5-1.61.74-2.09l3.15,3.08,2.88-2a2.46,2.46,0,0,1,1.22,2.08l-3,2.45.46,5.32s-.34.2-1.67-.08l-.53-5.57Z" transform="translate(0 0)"/><path class="cls-6" d="M94.49,320.46s-.5-1.6.75-2.07l3.14,3.06,2.88-2a2.46,2.46,0,0,1,1.22,2.07l-3,2.43.45,5.3s-.34.2-1.67-.08l-.52-5.54Z" transform="translate(0 0)"/><path class="cls-6" d="M84.8,319.06s-.49-1.6.75-2.07l3.14,3,2.88-2a2.43,2.43,0,0,1,1.22,2.06l-3,2.42.44,5.28s-.34.19-1.67-.09l-.51-5.51Z" transform="translate(0 0)"/><path class="cls-6" d="M75.12,317.66s-.5-1.59.75-2.06l3.14,3,2.88-2a2.38,2.38,0,0,1,1.21,2l-3,2.42.44,5.24s-.34.2-1.67-.08l-.51-5.49Z" transform="translate(0 0)"/><path class="cls-6" d="M65.44,316.27s-.5-1.57.75-2l3.14,3,2.88-2a2.4,2.4,0,0,1,1.21,2l-3,2.4.43,5.22s-.34.2-1.67-.08l-.5-5.46Z" transform="translate(0 0)"/><path class="cls-6" d="M55.76,314.9s-.49-1.56.76-2l3.13,3,2.88-2a2.37,2.37,0,0,1,1.21,2l-3,2.39.42,5.19s-.34.2-1.67-.08L59,318Z" transform="translate(0 0)"/><path class="cls-6" d="M46.09,313.55s-.5-1.56.75-2l3.13,3,2.89-2a2.34,2.34,0,0,1,1.2,2l-3,2.38.42,5.17s-.34.19-1.67-.08l-.49-5.4Z" transform="translate(0 0)"/><path class="cls-6" d="M36.41,312.2s-.49-1.55.76-2l3.13,3,2.88-2a2.36,2.36,0,0,1,1.21,2l-3,2.37.42,5.14s-.35.19-1.67-.08l-.49-5.37Z" transform="translate(0 0)"/><path class="cls-6" d="M26.74,310.87s-.49-1.54.76-2l3.12,2.95,2.89-2a2.32,2.32,0,0,1,1.2,2l-3,2.35.41,5.12s-.35.19-1.67-.08L30,313.9Z" transform="translate(0 0)"/><path class="cls-6" d="M17.07,309.55s-.48-1.53.77-2L21,310.48l2.9-2a2.31,2.31,0,0,1,1.19,2l-3,2.35.41,5.08s-.34.19-1.67-.07l-.47-5.32Z" transform="translate(0 0)"/><path class="cls-6" d="M132.42,337.93s-.51-1.63.74-2.11l3.16,3.15,2.87-2a2.53,2.53,0,0,1,1.23,2.12l-3,2.45.47,5.4s-.35.2-1.68-.1l-.54-5.64Z" transform="translate(0 0)"/><path class="cls-6" d="M142,339.26s-.51-1.64.74-2.12l3.16,3.16,2.88-2A2.58,2.58,0,0,1,150,340.4l-3,2.46.47,5.43s-.34.2-1.67-.1l-.55-5.67Z" transform="translate(0 0)"/><path class="cls-6" d="M122.71,336.41s-.51-1.62.74-2.1l3.16,3.13,2.88-2a2.5,2.5,0,0,1,1.22,2.1l-3,2.44.46,5.38s-.34.2-1.68-.1l-.53-5.62Z" transform="translate(0 0)"/><path class="cls-6" d="M113,334.91s-.5-1.62.75-2.1l3.15,3.12,2.88-2A2.47,2.47,0,0,1,121,336l-3,2.43.45,5.35s-.34.19-1.67-.1l-.53-5.59Z" transform="translate(0 0)"/><path class="cls-6" d="M103.3,333.41s-.5-1.61.75-2.08l3.15,3.1,2.88-2a2.49,2.49,0,0,1,1.22,2.09l-3,2.41.45,5.33s-.34.19-1.67-.1l-.52-5.56Z" transform="translate(0 0)"/><path class="cls-6" d="M93.6,331.93s-.5-1.6.75-2.07l3.15,3.08,2.88-2A2.48,2.48,0,0,1,101.6,333l-3,2.41.44,5.29s-.34.19-1.67-.1l-.51-5.53Z" transform="translate(0 0)"/><path class="cls-6" d="M83.91,330.47s-.5-1.6.75-2.06l3.14,3.06,2.88-2a2.45,2.45,0,0,1,1.22,2.06l-3,2.4.44,5.27s-.34.19-1.67-.1l-.52-5.5Z" transform="translate(0 0)"/><path class="cls-6" d="M74.21,329s-.5-1.58.75-2.05L78.1,330,81,328a2.43,2.43,0,0,1,1.21,2.06l-3,2.38.43,5.25s-.34.19-1.67-.1l-.5-5.48Z" transform="translate(0 0)"/><path class="cls-6" d="M64.52,327.57s-.5-1.57.75-2l3.14,3,2.89-2a2.42,2.42,0,0,1,1.21,2l-3,2.38.43,5.22s-.34.19-1.67-.09l-.5-5.45Z" transform="translate(0 0)"/><path class="cls-6" d="M54.83,326.15s-.49-1.57.76-2l3.13,3,2.89-1.95a2.39,2.39,0,0,1,1.21,2l-3,2.37.43,5.18s-.35.19-1.68-.09l-.49-5.42Z" transform="translate(0 0)"/><path class="cls-6" d="M45.14,324.73s-.49-1.56.76-2l3.13,3,2.89-1.95a2.39,2.39,0,0,1,1.21,2l-3,2.36.42,5.16s-.34.19-1.67-.09l-.49-5.39Z" transform="translate(0 0)"/><path class="cls-6" d="M35.46,323.33s-.49-1.55.76-2l3.12,3,2.9-1.94a2.36,2.36,0,0,1,1.2,2l-3,2.35.41,5.13s-.34.19-1.67-.08l-.48-5.37Z" transform="translate(0 0)"/><path class="cls-6" d="M25.78,321.94s-.49-1.54.76-2l3.12,3,2.9-1.93a2.33,2.33,0,0,1,1.2,2l-3,2.34.4,5.11s-.34.19-1.67-.09L29,325Z" transform="translate(0 0)"/><path class="cls-6" d="M16.1,320.57s-.49-1.54.76-2L20,321.51l2.9-1.92a2.33,2.33,0,0,1,1.2,2l-3,2.32.41,5.08s-.35.19-1.67-.08l-.48-5.31Z" transform="translate(0 0)"/><path class="cls-6" d="M134.25,350.75s-.51-1.64.74-2.11l3.17,3.17,2.88-2a2.53,2.53,0,0,1,1.22,2.12l-3,2.43.47,5.4s-.35.2-1.68-.11l-.54-5.65Z" transform="translate(0 0)"/><path class="cls-6" d="M143.85,352.14s-.51-1.64.74-2.11l3.17,3.18,2.88-2a2.58,2.58,0,0,1,1.23,2.14l-3,2.44.47,5.42s-.34.2-1.67-.11l-.55-5.67Z" transform="translate(0 0)"/><path class="cls-6" d="M124.53,349.16s-.5-1.62.75-2.09l3.16,3.15,2.88-2a2.52,2.52,0,0,1,1.22,2.11l-3,2.42.46,5.37s-.34.2-1.68-.11l-.53-5.62Z" transform="translate(0 0)"/><path class="cls-6" d="M114.81,347.6s-.5-1.62.75-2.09l3.16,3.13,2.88-2a2.52,2.52,0,0,1,1.22,2.1l-3,2.41.46,5.35s-.34.19-1.68-.11l-.52-5.59Z" transform="translate(0 0)"/><path class="cls-6" d="M105.1,346s-.5-1.61.75-2.08l3.15,3.12,2.89-2a2.51,2.51,0,0,1,1.22,2.09l-3,2.4.45,5.32s-.34.2-1.68-.1l-.52-5.57Z" transform="translate(0 0)"/><path class="cls-6" d="M95.39,344.49s-.5-1.6.75-2.06l3.15,3.1,2.88-2a2.46,2.46,0,0,1,1.22,2.08l-3,2.39.45,5.29s-.35.2-1.68-.1l-.52-5.54Z" transform="translate(0 0)"/><path class="cls-6" d="M85.68,343s-.5-1.59.75-2L89.58,344l2.88-2a2.46,2.46,0,0,1,1.22,2.07l-3,2.38.44,5.27s-.35.19-1.68-.11l-.51-5.51Z" transform="translate(0 0)"/><path class="cls-6" d="M76,341.45s-.5-1.59.75-2.05l3.15,3.07,2.89-2A2.45,2.45,0,0,1,84,342.57l-3,2.37.43,5.24s-.34.19-1.67-.1l-.51-5.48Z" transform="translate(0 0)"/><path class="cls-6" d="M66.27,339.94s-.5-1.58.75-2l3.14,3L73.05,339a2.45,2.45,0,0,1,1.22,2.05l-3,2.36.43,5.21s-.35.19-1.68-.1l-.5-5.45Z" transform="translate(0 0)"/><path class="cls-6" d="M56.56,338.45s-.49-1.57.76-2l3.14,3,2.89-1.94a2.42,2.42,0,0,1,1.21,2l-3,2.34.42,5.19s-.34.19-1.67-.1l-.49-5.42Z" transform="translate(0 0)"/><path class="cls-6" d="M46.86,337s-.49-1.56.76-2l3.14,3L53.65,336a2.39,2.39,0,0,1,1.21,2l-3,2.34.42,5.16s-.35.18-1.68-.1l-.49-5.4Z" transform="translate(0 0)"/><path class="cls-6" d="M37.17,335.51s-.49-1.56.76-2l3.13,3,2.9-1.92a2.38,2.38,0,0,1,1.2,2l-3,2.33.41,5.13s-.34.19-1.67-.1l-.49-5.36Z" transform="translate(0 0)"/><path class="cls-6" d="M27.47,334.06s-.49-1.55.77-2l3.12,3,2.9-1.91a2.36,2.36,0,0,1,1.21,2l-3,2.32.41,5.1s-.35.19-1.68-.09l-.47-5.34Z" transform="translate(0 0)"/><path class="cls-6" d="M17.78,332.62s-.49-1.54.77-2l3.12,3,2.9-1.9a2.33,2.33,0,0,1,1.2,2l-3,2.31.41,5.08s-.35.18-1.68-.1L21,335.66Z" transform="translate(0 0)"/><polygon class="cls-5" points="161.11 4.56 170.61 2.32 173.55 375.56 163.67 374.91 161.11 4.56"/><polygon class="cls-5" points="170.61 2.32 194.73 0.94 196.23 0.5 211.76 3.77 211.76 21.15 199.31 37.21 201.79 338.09 215.14 355.38 215.14 371.91 199.37 375.32 197.55 374.91 173.55 375.56 170.61 2.32"/><polyline class="cls-6" points="197.49 337.74 199.05 336.26 173.1 318.09 197.49 337.74 197.55 374.91 199.37 375.32 196.23 0.5 194.73 0.94 195.02 37.62 171.06 59.26 196.55 38.82"/><path class="cls-6" d="M258.9,360.48s10.3.95,10.3.64V345.5l11.16-19.72L278,51.09,266.67,31.91l-.24-16.23-7.53,1.11,4.36.59.47,15,11.94,21.06V317.21l1.88,5.94L265.9,344.79l-.17,14.12Z" transform="translate(0 0)"/><polygon class="cls-7" points="215.14 368.85 215.14 355.38 201.78 338.09 199.31 37.21 211.76 21.15 211.76 6.79 258.9 16.79 263.26 17.38 263.73 32.38 275.67 53.44 275.67 317.21 277.55 323.15 265.9 344.79 265.73 358.91 258.9 360.48 215.14 368.85"/><polygon class="cls-8" points="215.14 368.85 215.14 355.38 201.78 338.09 199.31 37.21 211.76 21.15 211.76 6.79 258.9 16.79 263.26 17.38 263.73 32.38 275.67 53.44 275.67 317.21 277.55 323.15 265.9 344.79 265.73 358.91 258.9 360.48 215.14 368.85"/><line class="cls-6" x1="269.2" y1="345.5" x2="265.9" y2="344.79"/><line class="cls-6" x1="280.36" y1="325.78" x2="277.55" y2="323.15"/><line class="cls-6" x1="266.67" y1="31.91" x2="263.73" y2="32.38"/><polyline class="cls-5" points="263.26 17.38 266.43 15.68 279.37 18.74 281.81 358.25 269.2 361.12 265.73 358.91 215.14 370.5"/><line class="cls-6" x1="211.76" y1="6.79" x2="258.9" y2="16.79"/><path class="cls-9" d="M3.43,98.28.5,101.82v20.12l3.71,4.84a.78.78,0,0,0,1.15.1l4.9-4.59V100.67L4.59,98A1,1,0,0,0,3.43,98.28Z" transform="translate(0 0)"/><polyline class="cls-9" points="0.5 121.94 4.62 118.99 10.27 122.29"/><polyline class="cls-9" points="0.5 101.82 4.62 103.58 10.27 100.67"/><line class="cls-9" x1="4.47" y1="118.99" x2="4.47" y2="103.58"/><path class="cls-9" d="M4.36,214.76l-2.93,3.53v20.12l3.72,4.85a.77.77,0,0,0,1.14.09l4.91-4.59V217.15l-5.67-2.66A1,1,0,0,0,4.36,214.76Z" transform="translate(0 0)"/><polyline class="cls-9" points="1.43 238.41 5.55 235.47 11.2 238.76"/><polyline class="cls-9" points="1.43 218.29 5.55 220.06 11.2 217.15"/></g></g></g></g></g></svg>