<svg id="Camada_1" data-name="Camada 1" xmlns="http://www.w3.org/2000/svg" xmlns:xlink="http://www.w3.org/1999/xlink" viewBox="0 0 300 300"><defs><clipPath id="clip-path"><rect x="-320" width="300" height="300" style="fill:none"/></clipPath><clipPath id="clip-path-2"><rect width="300" height="300" transform="translate(300 300) rotate(-180)" style="fill:none"/></clipPath></defs><title>braço elite series esquerdo</title><g style="clip-path:url(#clip-path)"><g id="Camada_1-2" data-name="Camada 1-2"><g id="Camada_2-2" data-name="Camada 2-2"><g id="diagonal"><path d="M67.46,282l-1.24,11.76a10.43,10.43,0,0,1-2.61,3.62C61.8,298.92,31,314.2,31,314.2l-2.72,7-15.56,5,1.47,5.2s-.23,2.27-12,6.68l1.24,44.13-6.11,5s-9.95,3.61-25.46,2.37l-8-5.13-3.29-35.53-3.73-.68-1-3.84L-47,350.28s-25,7.47-40.84-1.59l-5.09-25.9-11.54,1.47s0,14.37-18.56,20.82L-131.6,347s-1.47,1.14-7.47-1.58-22.51-14.72-22.51-14.72-6.34.24-5.66-11.2a6.51,6.51,0,0,1,4.18-5.64l105.11-16.42,4.75-11.08" style="fill:#fff;stroke:#000;stroke-miterlimit:10;stroke-width:2.7152554988861084px"/><path d="M99.25,145.28V96.51a9,9,0,0,0-2.72-5.59c-2.54-2.38-27.15-19-27.15-19H55.12V63.43S53.94,57,61.23,55.11s120.83-2,130.17,1.19a94.22,94.22,0,0,1,14.42,6.11s3.57,2.72,4.07,4.91a18.2,18.2,0,0,1,0,5.61s-6.27,1.86-28,1.86l-19.43-.08L137.94,91.08a8.73,8.73,0,0,0-3.48,6.37c-.42,4.41-.76,46.16-.76,46.16" style="fill:#fff;stroke:#000;stroke-miterlimit:10;stroke-width:2.7152554988861084px"/><line x1="162.47" y1="74.71" x2="68.7" y2="71.91" style="fill:none;stroke:#000;stroke-miterlimit:10;stroke-width:2.7152554988861084px"/><path d="M83.81,82,122.72,83s10.25.34,14.2,0,13.29-.41,13.29-.41" style="fill:none;stroke:#000;stroke-miterlimit:10;stroke-width:2.7152554988861084px"/><path d="M-88.49,345.61a11.35,11.35,0,0,0,4.29-6.24c.85-3.91,40.22-23.08,40.22-23.08s8.82-4.93,12.56-4.93,21.55-4.24,21.55-4.24l75.09-11.63" style="fill:none;stroke:#000;stroke-miterlimit:10;stroke-width:2.7152554988861084px"/><path d="M67.46,282.29s24-3.62,40.84-4.07c0,0,5.54-.68,7.36,1.57,0,0,11.08,12.9,12.22,23.65,0,0,1.7,4.31-1.7,6.56s-29.65,0-49.33-12l-18.21,2.53" style="fill:none;stroke:#000;stroke-miterlimit:10;stroke-width:2.7152554988861084px"/><path d="M116.79,281.83s-36.55,8.72-38.8,11-3.63,2.6-1.82,4.86" style="fill:none;stroke:#000;stroke-miterlimit:10;stroke-width:2.7152554988861084px"/><path d="M68.14,54.51S140,53,168.49,57.82c0,0,12,7.47,18.32,7.59s21.05-.8,21.05-.8" style="fill:none;stroke:#000;stroke-miterlimit:10;stroke-width:2.7152554988861084px"/><line x1="193.81" y1="57.16" x2="168.49" y2="57.82" style="fill:none;stroke:#000;stroke-miterlimit:10;stroke-width:2.7152554988861084px"/><path d="M56.2,58.34l111.66,2.54a36.79,36.79,0,0,0,13.92,3.65" style="fill:none;stroke:#000;stroke-miterlimit:10;stroke-width:2.7152554988861084px"/></g></g><path d="M-163.86,255s36.32,12.55,65.5,18.22A486.2,486.2,0,0,0-28.67,282c19,1,68.9-.39,84.51-1.25s157.84-22.55,167.49-24.94c6.86-1.52,6.29-6.78,6.29-6.78s8-2.88,11.2-6.62c3.91-2.54,4.75-31.56,4.75-31.56s.18-31.39-1.18-41.23-13.24-16.8-13.24-16.8-21.32-7.23-31.72-8.48c-7.69-.92-64.36-1.1-100.82,1-12.88.74-23.26,1.78-28,3.16-18.33,5.32-28.05,10.24-29.69,12.45s-3.52,9-3.52,9-44.46,3.39-53.79,3.91S-62,178.69-62,178.69s-29.59-11-49.78-11.65c-20.7-.68-51.79.68-51.79.68" style="fill:none;stroke:#000;stroke-miterlimit:10;stroke-width:2.7152554988861084px"/><path d="M1.2,282.31s10-33.74,7.24-53.2S3.91,205.65-6,199.73s-55-21.19-55-21.19" style="fill:none;stroke:#000;stroke-miterlimit:10;stroke-width:2.7152554988861084px"/><path d="M37.34,169.91s45,3.73,53.29,4.59,112.86-4.58,127.27,1,16.13,5.61,20.54,15.11-2.07,49.58-7.15,57.72" style="fill:none;stroke:#000;stroke-miterlimit:10;stroke-width:2.7152554988861084px"/><path d="M38.11,167.33s13.48-6.79,21.45-7.12,44.57.66,64.83,1c23.77.44,60.08-1,77.05,4.41s23.6,7.65,25.1,13.21" style="fill:none;stroke:#000;stroke-miterlimit:10;stroke-width:2.7152554988861084px"/><path d="M229,180s12.45-7.38,14.59-13.46" style="fill:none;stroke:#000;stroke-miterlimit:10;stroke-width:2.7152554988861084px"/><path d="M-53.45,181.38s97-7.73,107.38-10.1" style="fill:none;stroke:#000;stroke-miterlimit:10;stroke-width:2.7152554988861084px"/><path d="M242.52,166.47s-11.09-13.15-33.94-17-50.9-3.31-58.49-3.73c-8.15-.45-37-1.14-37-1.14" style="fill:none;stroke:#000;stroke-miterlimit:10;stroke-width:2.7152554988861084px"/><path d="M-279.35,27.79S-274.7-98.75-278-113.69s-10.33-76.7-3.39-94.35,41.62-41.86,48.41-47.74,14.49-25.79,14-38,6.49-58.84,14.48-63.81,23.52-8.15,35.3-7.25,60.93,7.64,60.93,7.64,26,2.9,31.91,23.08,24.27,78.41,38.19,87.91,50.23,26.47,50.23,26.47,25.63,16.64,31.74,29.87c7.81,14.77,1,37,1,37l-20,37.33S15.5-84.82,20.75-69,53.33-1.33,60.64,11.23,83.35,54.32,83.35,54.32" style="fill:none;stroke:#000;stroke-miterlimit:10;stroke-width:2.7152554988861084px"/><path d="M89.27,85.57s-11.58,48.09-34.21,68" style="fill:none;stroke:#000;stroke-miterlimit:10;stroke-width:2.7152554988861084px"/><path d="M-.14-69.85S16.64-18.64,26-8.76s30.73,55.92,32.42,65.1" style="fill:none;stroke:#000;stroke-miterlimit:10;stroke-width:2.7152554988861084px"/><path d="M27.16,138.83s29-39.37,33.44-66.92" style="fill:none;stroke:#000;stroke-miterlimit:10;stroke-width:2.7152554988861084px"/><path d="M25,164.63s45-37.5,48.55-89.92" style="fill:none;stroke:#000;stroke-miterlimit:10;stroke-width:2.7152554988861084px"/><path d="M26-8.81S50.41-2.19,70.1,54.47" style="fill:none;stroke:#000;stroke-miterlimit:10;stroke-width:2.7152554988861084px"/><path d="M-189.53,64.22l-7.7-59.12s-2.49-25.56,10.86-25.34c7.91-2.15,13.13-1.81,20.36-2.15s155.17,3.91,155.17,3.91S1.89-20.09,3.75-16.6c0,0,13.41,42.08,16.29,53.12s9.17,65.34,8.15,79.42S26.14,166.17,22.84,171" style="fill:none;stroke:#000;stroke-miterlimit:10;stroke-width:2.7152554988861084px"/></g></g><g style="clip-path:url(#clip-path-2)"><g id="Camada_1-2-2" data-name="Camada 1-2"><g id="Camada_2-2-2" data-name="Camada 2-2"><g id="diagonal-2" data-name="diagonal"><path d="M33.2,286.36,38,297.44l105.11,16.42a6.51,6.51,0,0,1,4.18,5.64c.68,11.44-5.66,11.2-5.66,11.2s-16.51,12-22.51,14.72S111.6,347,111.6,347L103,345.08c-18.56-6.45-18.56-20.82-18.56-20.82l-11.54-1.47-5.09,25.9C52,357.75,27,350.28,27,350.28l-2.82-5.92-1,3.84-3.73.68-3.29,35.53-8,5.13c-15.51,1.24-25.46-2.37-25.46-2.37l-6.11-5,1.24-44.13c-11.76-4.41-12-6.68-12-6.68l1.47-5.2-15.56-5-2.72-7s-30.77-15.28-32.58-16.87a10.43,10.43,0,0,1-2.61-3.62L-87.46,282" style="fill:#fff;stroke:#000;stroke-miterlimit:10;stroke-width:2.7152554988861084px"/><path d="M265.3,32.37l3.16,5a6.29,6.29,0,0,1,.45,5.32L251,120.27s-2.48,18.45-2.71,21.38A7.29,7.29,0,0,0,249,146s10.29,14.58,12.21,17.42,1.36,7.36,1.36,7.36l-1.13,8.59c1.59,4.3,1.59,15.39,1.59,15.39l-2.71,42.54C256.65,249,251,248.12,251,248.12l-70.2,12-2.5-1.13" style="fill:#fff;stroke:#000;stroke-miterlimit:10;stroke-width:2.7152554988861084px"/><path d="M178.71,258.71s-1.86-11-1.52-12.48-2.29-1.35-2.29-1.35v-6.36a6.13,6.13,0,0,0,1.95-1.36l.21-14.09.89-19.68,10.6-2.54a12.57,12.57,0,0,1-1.35-3.49c0-1,3-.8,3-.8l2.58,1.22a202.72,202.72,0,0,0,9.84-22.52c5.43-14.37,15.27-17.87,15.27-17.87l.57-2.95-5.09-.68L234.75,32.37c3.56-2.54,9.41-5.94,9.41-5.94s10.62.17,15.19,1.36a8.69,8.69,0,0,1,5.95,4.58" style="fill:none;stroke:#000;stroke-miterlimit:10;stroke-width:2.7152554988861084px"/><path d="M187.36,201.16l7.11-.9,2.22.45.34,18s-6.51-1.64-8.15,1.65-5.61,2.83-5.61,2.83l-6.11-.46" style="fill:none;stroke:#000;stroke-miterlimit:10;stroke-width:2.7152554988861084px"/><polyline points="197.03 202.8 204.49 201.44 192.78 197.78" style="fill:none;stroke:#000;stroke-miterlimit:10;stroke-width:2.7152554988861084px"/><polyline points="206.71 201.57 207.22 213.95 197.24 214.78" style="fill:none;stroke:#000;stroke-miterlimit:10;stroke-width:2.7152554988861084px"/><path d="M218.64,154.1l17.88,3.17c4.52.8,3.61,7.8,3.61,7.8l-3,25.35s-3,21.17,8.14,21.61,12.56-12.68,12.56-12.68l3.56-20" style="fill:none;stroke:#000;stroke-miterlimit:10;stroke-width:2.7152554988861084px"/><path d="M257.94,27.48c-4.07.22-8.14,5.9-8.14,5.9L236.06,139.81l6.61,18.54L239.53,177" style="fill:none;stroke:#000;stroke-miterlimit:10;stroke-width:2.7152554988861084px"/><path d="M244.16,26.43s-8,72.8-8.73,93.16a65.71,65.71,0,0,1-11.88,34.85" style="fill:none;stroke:#000;stroke-miterlimit:10;stroke-width:2.7152554988861084px"/><line x1="115.45" y1="92.96" x2="212.43" y2="85.57" style="fill:none;stroke:#000;stroke-miterlimit:10;stroke-width:2.7152554988861084px"/><path d="M199.06,96.3s-33.1,3.11-39.37,4.07a94.77,94.77,0,0,1-14.09.73l-19.51-.73" style="fill:none;stroke:#000;stroke-miterlimit:10;stroke-width:2.7152554988861084px"/><path d="M177.23,205.46l3.45-88.24c-.26-7.55,3-8.49,3-8.49L212.5,85.56l14.6-2.38c.59-9.84-3.82-10.94-3.82-10.94l-11.54-6.79-46.16-1.36c-33.69-2.89-98.6,7-98.6,7-6.37,2.89-6.27,8.4-6.27,8.4V91l54.38,2s22.78,16.23,24.36,16.46,2.93,4.75,2.93,4.75l3,126,1.14,1.13v5.43c-3.06,1.36.89,2.82.89,2.82,20.83,2.61,29.76-3.49,29.76-3.49l2.72,35.3c-9.16,7.81-33,3.63-33,3.63l-18-3.74-.46-2.71-46.95-6.64" style="fill:none;stroke:#000;stroke-miterlimit:10;stroke-width:2.7152554988861084px"/><polyline points="117.42 264.07 143.12 268.14 145.03 248.12" style="fill:none;stroke:#000;stroke-miterlimit:10;stroke-width:2.7152554988861084px"/><path d="M207.17,210.05s11.24-15,15.31-30.94S238,158.18,238,158.18" style="fill:none;stroke:#000;stroke-miterlimit:10;stroke-width:2.7152554988861084px"/><path d="M176.76,236.61s1.42-11.79,9.15-10.27,17.56-11.79,17.56-11.79" style="fill:none;stroke:#000;stroke-miterlimit:10;stroke-width:2.7152554988861084px"/><path d="M186.63,236.35c43.66-11.65,48.07-63.58,48.07-63.58" style="fill:none;stroke:#000;stroke-miterlimit:10;stroke-width:2.7152554988861084px"/><path d="M186,258.87l2-3.85c-6.21-5.54-1.12-19-1.12-19l2.14-4.52-3.39-5" style="fill:none;stroke:#000;stroke-miterlimit:10;stroke-width:2.7152554988861084px"/><path d="M188.09,255s60.65-11.31,65.62-11.88a8.81,8.81,0,0,0,6.79-5.43" style="fill:none;stroke:#000;stroke-miterlimit:10;stroke-width:2.7152554988861084px"/><path d="M186.1,251.66s47.28-8.07,60.07-10.56,13.36-19.68,13.36-19.68,1.58-20.71,1.81-26.14,0-13,0-13" style="fill:none;stroke:#000;stroke-miterlimit:10;stroke-width:2.7152554988861084px"/><path d="M-5.55,282.28l6.9,23.08a15.54,15.54,0,0,0,13.58,2.44s8.7-3.05,14.65-16.29,16.12-12.9,16.12-12.9" style="fill:none;stroke:#000;stroke-miterlimit:10;stroke-width:2.7152554988861084px"/><line x1="38.66" y1="297.44" x2="28.22" y2="295.49" style="fill:none;stroke:#000;stroke-miterlimit:10;stroke-width:2.7152554988861084px"/><path d="M33.51,297.14c-15.69,7.65-3.81,21.05-3.81,21.05L73,322.79" style="fill:none;stroke:#000;stroke-miterlimit:10;stroke-width:2.7152554988861084px"/><path d="M-85.22,295.49l75.09,11.63s17.82,4.24,21.55,4.24S24,316.29,24,316.29s39.37,19.17,40.22,23.08a11.35,11.35,0,0,0,4.29,6.24" style="fill:none;stroke:#000;stroke-miterlimit:10;stroke-width:2.7152554988861084px"/><path d="M200.56,199.77l3.31-5.13h4.41s6.26-17.94,10.09-26.51,14.09-11.36,14.09-11.36" style="fill:none;stroke:#000;stroke-miterlimit:10;stroke-width:2.7152554988861084px"/><path d="M63.53,73.39c-3.33,7.77,3.33,8.31,3.33,8.31s31.22,1.13,41.4,1.47A186,186,0,0,0,129,82.49l96.5-7.81" style="fill:none;stroke:#000;stroke-miterlimit:10;stroke-width:2.7152554988861084px"/><path d="M68.39,71.23s21.72,1.25,30,1.36,20.21-.34,20.21-.34l93-6.79" style="fill:none;stroke:#000;stroke-miterlimit:10;stroke-width:2.7152554988861084px"/></g></g><path d="M143.6,167.72s-31.09-1.36-51.79-.68C71.62,167.69,42,178.69,42,178.69s-36.27-4.34-45.59-4.86-53.79-3.91-53.79-3.91-1.88-6.79-3.52-9-11.36-7.13-29.69-12.45c-4.79-1.38-15.17-2.42-28-3.16-36.46-2.12-93.13-1.94-100.82-1-10.4,1.25-31.72,8.48-31.72,8.48s-11.88,6.95-13.24,16.8-1.18,41.23-1.18,41.23.84,29,4.75,31.56c3.22,3.74,11.2,6.62,11.2,6.62s-.57,5.26,6.29,6.78c9.65,2.39,151.87,24.09,167.49,24.94S-10.34,283,8.67,282a486.2,486.2,0,0,0,69.69-8.71c29.18-5.67,65.5-18.22,65.5-18.22" style="fill:none;stroke:#000;stroke-miterlimit:10;stroke-width:2.7152554988861084px"/><path d="M41.08,178.54s-45.06,15.27-55,21.19-11.77,9.93-14.49,29.38,7.24,53.2,7.24,53.2" style="fill:none;stroke:#000;stroke-miterlimit:10;stroke-width:2.7152554988861084px"/><path d="M200.38,181.09c-14.49-7.79-21.94-8.32-21.94-8.32" style="fill:none;stroke:#000;stroke-miterlimit:10;stroke-width:2.7152554988861084px"/><path d="M-17.82,202.25c19,2.66,68.58-16.24,86.22-20s74.51-9.5,74.51-9.5" style="fill:none;stroke:#000;stroke-miterlimit:10;stroke-width:2.7152554988861084px"/><path d="M17.49,197c-.34-7,24.56-18.3,24.56-18.3" style="fill:none;stroke:#000;stroke-miterlimit:10;stroke-width:2.7152554988861084px"/><path d="M-73.93,171.28c10.36,2.37,107.38,10.1,107.38,10.1" style="fill:none;stroke:#000;stroke-miterlimit:10;stroke-width:2.7152554988861084px"/><path d="M-103.35,54.32s15.41-30.53,22.71-43.09S-46-53.27-40.75-69s-4.07-46.5-4.07-46.5l-20-37.33s-6.79-22.23,1-37c6.11-13.23,31.74-29.87,31.74-29.87s36.32-17,50.23-26.47,32.26-67.72,38.19-87.91,31.91-23.08,31.91-23.08,49.15-6.74,60.93-7.64,27.3,2.28,35.3,7.25S199.42-306,199-293.79s7.24,32.13,14,38,41.47,30.09,48.41,47.74-.09,79.42-3.39,94.35,1.35,141.48,1.35,141.48" style="fill:none;stroke:#000;stroke-miterlimit:10;stroke-width:2.7152554988861084px"/><path d="M261.34-208c1.27,5.66-20.3,80.33-23.31,91.19S207.22,65.79,207.22,65.79" style="fill:#fff;stroke:#000;stroke-miterlimit:10;stroke-width:2.7152554988861084px"/><path d="M205.85,169.89C202.13,157.13,204.49,92,204.49,92" style="fill:none;stroke:#000;stroke-miterlimit:10;stroke-width:2.7152554988861084px"/><path d="M189.68,65.46c3.4-15.89,14.08-50.63,3.63-64.66-1.58,15.4-16.06,63.73-16.06,63.73" style="fill:none;stroke:#000;stroke-miterlimit:10;stroke-width:2.7152554988861084px"/><line x1="193.14" y1="2.16" x2="201.91" y2="-65.15" style="fill:none;stroke:#000;stroke-miterlimit:10;stroke-width:2.7152554988861084px"/><path d="M174.91,64.39S187,15.75,189-.77s1.58-88,2.48-95.72,14.24-58.37,14.32-74-10.25-31.79-10.25-31.79" style="fill:none;stroke:#000;stroke-miterlimit:10;stroke-width:2.7152554988861084px"/><path d="M-42.84,171c-3.3-4.84-4.33-41-5.35-55.07S-42.92,47.56-40,36.52-23.75-16.6-23.75-16.6c1.86-3.49,14.59-1.88,14.59-1.88S138.77-22.73,146-22.39s12.45,0,20.36,2.15c13.35-.22,10.86,25.34,10.86,25.34l-7.7,59.12" style="fill:none;stroke:#000;stroke-miterlimit:10;stroke-width:2.7152554988861084px"/><path d="M145.11,63.63S156.88,3.52,158.69-2.82s1.67-18.7,1.67-18.7" style="fill:none;stroke:#000;stroke-miterlimit:10;stroke-width:2.7152554988861084px"/><line x1="139.38" y1="109.4" x2="138.1" y2="167.48" style="fill:none;stroke:#000;stroke-miterlimit:10;stroke-width:2.7152554988861084px"/><line x1="95.57" y1="166.91" x2="108.22" y2="92.7" style="fill:none;stroke:#000;stroke-miterlimit:10;stroke-width:2.7152554988861084px"/><path d="M112.31,65.86s4.52-27.62,7.47-39.37,12.66-28.62,16.29-35.3a81.24,81.24,0,0,1,10-13.58" style="fill:none;stroke:#000;stroke-miterlimit:10;stroke-width:2.7152554988861084px"/><path d="M14.26,175.53C2.21,153.11-8.65,115.47-10,105.42S-8.32,67.6-6.1,54.36-.16,9.9-.5,4.47-4.24-18.61-4.24-18.61" style="fill:none;stroke:#000;stroke-miterlimit:10;stroke-width:2.7152554988861084px"/><line x1="176.55" y1="10.45" x2="187.37" y2="10.45" style="fill:none;stroke:#000;stroke-miterlimit:10;stroke-width:2.7152554988861084px"/><line x1="175.78" y1="14.87" x2="186.6" y2="14.87" style="fill:none;stroke:#000;stroke-miterlimit:10;stroke-width:2.7152554988861084px"/></g></g></svg>