<svg xmlns="http://www.w3.org/2000/svg" xmlns:xlink="http://www.w3.org/1999/xlink" width="189" height="189" viewBox="0 0 189 189">
  <defs>
    <clipPath id="clip-path">
      <circle id="Elipse_91" data-name="Elipse 91" cx="93.202" cy="93.202" r="93.202" transform="translate(301 2000)" fill="#fff" stroke="#707070" stroke-width="0.4"/>
    </clipPath>
  </defs>
  <g id="Agrupar_358" data-name="Agrupar 358" transform="translate(-209 -1995)">
    <g id="Elipse_90" data-name="Elipse 90" transform="translate(209 1995)" fill="#fff" stroke="#707070" stroke-width="1">
      <circle cx="94.5" cy="94.5" r="94.5" stroke="none"/>
      <circle cx="94.5" cy="94.5" r="94" fill="none"/>
    </g>
    <g id="Grupo_de_máscara_13" data-name="Grupo de máscara 13" transform="translate(-90.702 -3.702)" clip-path="url(#clip-path)">
      <g id="Pandora_diagonal_2DT3_" data-name="Pandora diagonal_2DT3 " transform="translate(337.665 2003.206)">
        <g id="Camada_3" data-name="Camada 3" transform="translate(1.037 1.495)">
          <g id="base" transform="translate(0 167.753)">
            <path id="Caminho_5006" data-name="Caminho 5006" d="M214.66,728.14V738.2h4.213v-9.949" transform="translate(-147.951 -668.979)" fill="#fff" stroke="#000" stroke-miterlimit="10" stroke-width="2.076"/>
            <path id="Caminho_5007" data-name="Caminho 5007" d="M207.953,733.87h-2.342a30.235,30.235,0,0,0-.7,6.97,25,25,0,0,0,.7,6.13h2.217Z" transform="translate(-141.244 -672.92)" fill="#fff" stroke="#000" stroke-miterlimit="10" stroke-width="2.076"/>
            <path id="Caminho_5008" data-name="Caminho 5008" d="M228.15,733.87h2.333a30.234,30.234,0,0,1,.7,6.97,24.81,24.81,0,0,1-.7,6.13h-2.217Z" transform="translate(-157.228 -672.92)" fill="#fff" stroke="#000" stroke-miterlimit="10" stroke-width="2.076"/>
            <path id="Caminho_5009" data-name="Caminho 5009" d="M103.517,655.93s-3.841.431-3.891.937-1.874,10.049,1.945,9.993,6.4-1.052,6.645-1.658S103.517,655.93,103.517,655.93Z" transform="translate(-68.51 -619.319)" fill="#fff" stroke="#000" stroke-miterlimit="10" stroke-width="3.114"/>
            <path id="Caminho_5010" data-name="Caminho 5010" d="M320.912,654a10.757,10.757,0,0,1,3.026.54,6.036,6.036,0,0,1,1.767,1.3s-.862,8.4-1.374,8.722-2.7.565-6.32,0,.378-10.305.378-10.305Z" transform="translate(-217.985 -617.992)" fill="#fff" stroke="#000" stroke-miterlimit="10" stroke-width="3.114"/>
            <path id="Caminho_5011" data-name="Caminho 5011" d="M80.185,647.039,80.94,661.4l4.1,1.2,4.106-.865.756-14.693s1.621-1.084,7.239-.434,42.469,3.782,42.469,3.782v.968s2.376.543,3.566.649a9.2,9.2,0,0,0,1.945,0l1.833-.649-.375-6.158-17.347-3.522L114,638.814l4.266-.256.312.593,1.511-.593-.2-3.747L117.733,632l-26.044,1.3-13.4.312-17.341-.54-.593-.434-7.023-.312-1.561.381-1.408,2.214-.269.646v3.676l4.372.215-13.831,2.879-.971-.275-14.911,3.029-.375.431-.759.312-.312,6.751,5.621.312,1.727-.865-.106-.918,46.189-4.59S79.535,646.052,80.185,647.039Z" transform="translate(-16.355 -602.862)" fill="#fff" stroke="#000" stroke-miterlimit="10" stroke-width="3.114"/>
            <line id="Linha_687" data-name="Linha 687" x1="25.066" y2="5.124" transform="translate(38.114 31.487)" fill="none" stroke="#000" stroke-miterlimit="10" stroke-width="2"/>
            <line id="Linha_688" data-name="Linha 688" x2="23.255" y2="4.665" transform="translate(74.394 31.296)" fill="none" stroke="#000" stroke-miterlimit="10" stroke-width="2"/>
            <path id="Caminho_5012" data-name="Caminho 5012" d="M207.15,707.514l2.6-2.364h3.4l2.664,2.364" transform="translate(-142.786 -653.169)" fill="#fff" stroke="#000" stroke-miterlimit="10" stroke-width="3.114"/>
            <path id="Caminho_5013" data-name="Caminho 5013" d="M207.15,688.066l2.707-2.376h3.4l2.554,2.376" transform="translate(-142.786 -639.786)" fill="#fff" stroke="#000" stroke-miterlimit="10" stroke-width="3.114"/>
            <line id="Linha_689" data-name="Linha 689" x1="0.053" y1="19.367" transform="translate(66.909 32.614)" fill="none" stroke="#000" stroke-miterlimit="10" stroke-width="2"/>
            <line id="Linha_690" data-name="Linha 690" x1="0.056" y2="19.367" transform="translate(70.366 32.614)" fill="none" stroke="#000" stroke-miterlimit="10" stroke-width="2"/>
            <line id="Linha_691" data-name="Linha 691" x1="19.67" y2="1.321" transform="translate(83.866 31.968)" fill="none" stroke="#000" stroke-miterlimit="10" stroke-width="2"/>
            <line id="Linha_692" data-name="Linha 692" x2="1.792" y2="2.96" transform="translate(94.189 29.516)" fill="none" stroke="#000" stroke-miterlimit="10" stroke-width="3.114"/>
            <path id="Caminho_5014" data-name="Caminho 5014" d="M413.418,674.27l-2.108,2.108v4.743" transform="translate(-283.192 -631.932)" fill="#fff" stroke="#000" stroke-miterlimit="10" stroke-width="1.038"/>
            <path id="Caminho_5015" data-name="Caminho 5015" d="M236.452,663.686s-.4-6.377.9-7.079,5.8-.269,5.8-.269l47.866,7.61" transform="translate(-162.898 -619.508)" fill="none" stroke="#000" stroke-miterlimit="10" stroke-width="2"/>
            <path id="Caminho_5016" data-name="Caminho 5016" d="M80.872,662.894s.54-7.729,0-7.835S69.8,656.621,69.8,656.621l-29.391,5.515L26.577,664.89,24.31,661.7" transform="translate(-17.042 -618.717)" fill="none" stroke="#000" stroke-miterlimit="10" stroke-width="2"/>
            <line id="Linha_693" data-name="Linha 693" x2="1.811" y2="3.429" transform="translate(24.284 39.478)" fill="none" stroke="#000" stroke-miterlimit="10" stroke-width="3.114"/>
            <path id="Caminho_5017" data-name="Caminho 5017" d="M109.94,636.4l7.4.759,1.727-2.542.865-.487" transform="translate(-75.932 -604.326)" fill="#fff" stroke="#000" stroke-miterlimit="10" stroke-width="3.114"/>
            <line id="Linha_694" data-name="Linha 694" x1="10.083" y1="1.043" transform="translate(41.412 32.833)" fill="none" stroke="#000" stroke-miterlimit="10" stroke-width="2"/>
            <path id="Caminho_5018" data-name="Caminho 5018" d="M199.38,598.462a17.506,17.506,0,0,0,6.836,1.7,15.1,15.1,0,0,0,6.292-1.483l-.625-17.828a21.7,21.7,0,0,1-5.933,1.377c-2.336,0-5.914-.159-5.914-.971S199.38,598.462,199.38,598.462Z" transform="translate(-137.442 -567.684)" fill="#fff" stroke="#000" stroke-linejoin="round" stroke-width="3.114"/>
            <path id="Caminho_5019" data-name="Caminho 5019" d="M202.161,580.379c.937-.312,4.213-1.105,11.579-.312a19.681,19.681,0,0,1-5.509,1.362c-1.992,0-4.016.5-6.114-.793a.144.144,0,0,1-.047-.2A.14.14,0,0,1,202.161,580.379Z" transform="translate(-139.277 -566.911)" fill="#fff" stroke="#000" stroke-linejoin="round" stroke-width="1.038"/>
            <path id="Caminho_5020" data-name="Caminho 5020" d="M205.65,570.514l.275-6.264h8.506l.222,5.736S212.027,572.122,205.65,570.514Z" transform="translate(-141.754 -556.268)" fill="#fff" stroke="#000" stroke-miterlimit="10" stroke-width="3.114"/>
            <path id="Caminho_5021" data-name="Caminho 5021" d="M211.32,546.672V538.69l5.833.487-.159,7.495Z" transform="translate(-145.654 -538.69)" fill="#fff" stroke="#000" stroke-miterlimit="10" stroke-width="3.114"/>
            <path id="Caminho_5022" data-name="Caminho 5022" d="M13.288,699.057l.347,6.97s.422,6.536-5.968,6.536a6.1,6.1,0,0,1-5.8-3.435,7.4,7.4,0,0,1-.078-6.676,5.424,5.424,0,0,1,3.66-3.032,7.434,7.434,0,0,1,3.785.312.284.284,0,0,0,.381-.119.312.312,0,0,0,.031-.153l-.041-.649Z" transform="translate(-1.037 -648.808)" fill="#fff" stroke="#000" stroke-miterlimit="10" stroke-width="2.076"/>
            <path id="Caminho_5023" data-name="Caminho 5023" d="M1.343,709.671A6.535,6.535,0,0,1,5.552,702.4a6.337,6.337,0,0,1,7.551,3.085l.294.728" transform="translate(-1.192 -651.044)" fill="#fff" stroke="#000" stroke-miterlimit="10" stroke-width="2.076"/>
            <path id="Caminho_5024" data-name="Caminho 5024" d="M2.461,712.385a6.957,6.957,0,0,1,4.472-7.367c3.038-1.152,6.523,1.249,7.307,3.179l.29.731" transform="translate(-1.989 -652.872)" fill="#fff" stroke="#000" stroke-miterlimit="10" stroke-width="2.076"/>
            <path id="Caminho_5025" data-name="Caminho 5025" d="M8.595,711.986a.2.2,0,0,1,.269.041c.44.578,2.217,2.917,2.1,3.123s.125.409-2.127-.062l-1.874-.39c-.116-.022-.24-.162-.194-.269A7.49,7.49,0,0,1,8.595,711.986Z" transform="translate(-4.971 -657.847)" fill="#fff" stroke="#000" stroke-miterlimit="10" stroke-width="1"/>
            <path id="Caminho_5026" data-name="Caminho 5026" d="M19.019,708.587a.187.187,0,0,1,.134.228c-.172.709-.887,3.566-1.118,3.6s-.244.359-1.3-1.693l-.865-1.7c-.053-.1-.022-.29.087-.312A7.032,7.032,0,0,1,19.019,708.587Z" transform="translate(-11.223 -655.453)" fill="#fff" stroke="#000" stroke-miterlimit="10" stroke-width="1"/>
            <path id="Caminho_5027" data-name="Caminho 5027" d="M28.882,712.119a.191.191,0,0,1-.084.244c-.625.312-3.123,1.561-3.288,1.405s-.406.047.434-1.977c.428-1.027.6-1.44.693-1.668.041-.106.194-.2.284-.137A6.752,6.752,0,0,1,28.882,712.119Z" transform="translate(-17.755 -656.48)" fill="#fff" stroke="#000" stroke-miterlimit="10" stroke-width="1"/>
            <path id="Caminho_5028" data-name="Caminho 5028" d="M6.467,726.185a.2.2,0,0,0,.265.05c.6-.406,3.042-2.07,2.988-2.3s.25-.35-2.036-.625l-1.874-.225c-.116,0-.281.078-.272.194A6.927,6.927,0,0,0,6.467,726.185Z" transform="translate(-4.133 -665.506)" fill="#fff" stroke="#000" stroke-miterlimit="10" stroke-width="1"/>
            <path id="Caminho_5029" data-name="Caminho 5029" d="M14.316,731.256a.194.194,0,0,0,.206-.175c.075-.725.359-3.66.156-3.747s-.112-.418-1.783,1.159l-1.387,1.3c-.084.081-.122.265-.025.312A6.862,6.862,0,0,0,14.316,731.256Z" transform="translate(-8.182 -668.364)" fill="#fff" stroke="#000" stroke-miterlimit="10" stroke-width="1"/>
            <path id="Caminho_5030" data-name="Caminho 5030" d="M26.809,730.1a.184.184,0,0,0,0-.256A17.139,17.139,0,0,0,24.2,727.4c-.2.084-.365-.184-.265,2,.05,1.112.072,1.561.081,1.8,0,.116.116.253.222.225A6.8,6.8,0,0,0,26.809,730.1Z" transform="translate(-16.762 -668.472)" fill="#fff" stroke="#000" stroke-miterlimit="10" stroke-width="1"/>
            <path id="Caminho_5031" data-name="Caminho 5031" d="M29.738,722.553a.191.191,0,0,0-.212-.147,17.667,17.667,0,0,0-3.488.784c-.053.212-.359.2,1.508,1.349l1.54.937a.247.247,0,0,0,.312-.056A7.05,7.05,0,0,0,29.738,722.553Z" transform="translate(-18.196 -665.035)" fill="#fff" stroke="#000" stroke-miterlimit="10" stroke-width="1"/>
            <path id="Caminho_5032" data-name="Caminho 5032" d="M400.574,695.172l-.347,6.982s-.422,6.558,5.968,6.558a6.092,6.092,0,0,0,5.8-3.435,7.423,7.423,0,0,0,.081-6.68,5.427,5.427,0,0,0-3.663-3.029,7.422,7.422,0,0,0-3.782.312.284.284,0,0,1-.384-.125.265.265,0,0,1-.031-.147l.044-.65Z" transform="translate(-275.566 -646.161)" fill="#fff" stroke="#000" stroke-miterlimit="10" stroke-width="2.076"/>
            <path id="Caminho_5033" data-name="Caminho 5033" d="M413.547,705.717a6.539,6.539,0,0,0-4.213-7.276,6.347,6.347,0,0,0-7.554,3.082l-.29.731" transform="translate(-276.438 -648.324)" fill="#fff" stroke="#000" stroke-miterlimit="10" stroke-width="2.076"/>
            <path id="Caminho_5034" data-name="Caminho 5034" d="M412.486,708.4a6.957,6.957,0,0,0-4.472-7.37c-3.038-1.155-6.52,1.249-7.307,3.182l-.287.728" transform="translate(-275.702 -650.125)" fill="#fff" stroke="#000" stroke-miterlimit="10" stroke-width="2.076"/>
            <path id="Caminho_5035" data-name="Caminho 5035" d="M423.773,708.031a.2.2,0,0,0-.272.037c-.44.578-2.22,2.92-2.1,3.123s-.128.412,2.127-.062l1.874-.387c.112-.028.237-.162.194-.272A7.508,7.508,0,0,0,423.773,708.031Z" transform="translate(-290.131 -655.125)" fill="#fff" stroke="#000" stroke-miterlimit="10" stroke-width="1"/>
            <path id="Caminho_5036" data-name="Caminho 5036" d="M415.407,704.625a.2.2,0,0,0-.137.234c.172.706.89,3.566,1.121,3.6s.237.353,1.3-1.7l.865-1.7c.053-.1.022-.287-.087-.312A7.158,7.158,0,0,0,415.407,704.625Z" transform="translate(-285.912 -652.731)" fill="#fff" stroke="#000" stroke-miterlimit="10" stroke-width="1"/>
            <path id="Caminho_5037" data-name="Caminho 5037" d="M404.959,708.165a.181.181,0,0,0,.084.244c.625.312,3.123,1.561,3.285,1.408s.409.044-.431-1.977c-.428-1.027-.6-1.44-.693-1.674-.044-.1-.194-.194-.287-.131A7.056,7.056,0,0,0,404.959,708.165Z" transform="translate(-278.811 -653.764)" fill="#fff" stroke="#000" stroke-miterlimit="10" stroke-width="1"/>
            <path id="Caminho_5038" data-name="Caminho 5038" d="M425.952,722.231a.194.194,0,0,1-.265.047c-.6-.406-3.042-2.07-2.988-2.3s-.25-.353,2.033-.625l1.892-.228c.116,0,.278.078.272.2A6.774,6.774,0,0,1,425.952,722.231Z" transform="translate(-291.023 -662.783)" fill="#fff" stroke="#000" stroke-miterlimit="10" stroke-width="1"/>
            <path id="Caminho_5039" data-name="Caminho 5039" d="M420.04,727.25a.187.187,0,0,1-.206-.172h0c-.078-.721-.362-3.657-.156-3.763s.106-.419,1.783,1.162l1.383,1.3c.087.081.119.265.025.312A7.021,7.021,0,0,1,420.04,727.25Z" transform="translate(-288.896 -665.595)" fill="#fff" stroke="#000" stroke-miterlimit="10" stroke-width="1"/>
            <path id="Caminho_5040" data-name="Caminho 5040" d="M408.306,726.146a.184.184,0,0,1,0-.256,17.335,17.335,0,0,1,2.614-2.445c.2.084.365-.181.265,2.008-.053,1.112-.072,1.561-.084,1.8,0,.112-.112.253-.225.222A7.24,7.24,0,0,1,408.306,726.146Z" transform="translate(-281.09 -665.748)" fill="#fff" stroke="#000" stroke-miterlimit="10" stroke-width="1"/>
            <path id="Caminho_5041" data-name="Caminho 5041" d="M403.536,718.6a.181.181,0,0,1,.209-.147,17.3,17.3,0,0,1,3.491.784c.056.215.353.2-1.508,1.349l-1.543.937a.244.244,0,0,1-.312-.059A6.772,6.772,0,0,1,403.536,718.6Z" transform="translate(-277.813 -662.316)" fill="#fff" stroke="#000" stroke-miterlimit="10" stroke-width="1"/>
          </g>
          <path id="Caminho_5042" data-name="Caminho 5042" d="M177.21,522.415l1.718,1.839s.194.543,1.352.571l.578.275s.109.412.909.412h.909a6.385,6.385,0,0,0,2.839,2.124.952.952,0,0,1,.45.568l.453.072-.1,2.408s-.037.45.662.459,4.846.016,4.846.016l6.517-4,3.163-1.774,1.28-1.358s.556-1.305.849-1.221,1.28-.653,1.28-.653" transform="translate(-122.195 -359.562)" fill="#fff" stroke="#000" stroke-linejoin="bevel" stroke-width="2"/>
          <path id="Caminho_5043" data-name="Caminho 5043" d="M187,526.792l6.586.743s1.046.028,1.39-.662.909-1.658,1.561-1.874" transform="translate(-128.928 -361.522)" fill="none" stroke="#000" stroke-linecap="round" stroke-miterlimit="10" stroke-width="1"/>
          <path id="Caminho_5044" data-name="Caminho 5044" d="M194.71,532.177l3.585.828a2.273,2.273,0,0,0,1.8-1.174" transform="translate(-134.231 -366.22)" fill="none" stroke="#000" stroke-linecap="round" stroke-miterlimit="10" stroke-width="0.5"/>
          <path id="Caminho_5045" data-name="Caminho 5045" d="M206.69,541.79s2.061.693,7.6.312" transform="translate(-142.47 -373.069)" fill="none" stroke="#000" stroke-linecap="round" stroke-miterlimit="10" stroke-width="1"/>
          <path id="Caminho_5046" data-name="Caminho 5046" d="M224,547.649a31.342,31.342,0,0,1,11.1-1.874" transform="translate(-154.374 -375.802)" fill="#fff" stroke="#000" stroke-linecap="round" stroke-miterlimit="10" stroke-width="1"/>
          <path id="Caminho_5047" data-name="Caminho 5047" d="M223.87,546.652a31.669,31.669,0,0,1,11.1-1.874" transform="translate(-154.285 -375.118)" fill="#fff" stroke="#000" stroke-linecap="round" stroke-miterlimit="10" stroke-width="0.978"/>
          <path id="Caminho_5048" data-name="Caminho 5048" d="M223.73,545.719a31.542,31.542,0,0,1,11.1-1.846" transform="translate(-154.188 -374.494)" fill="#fff" stroke="#000" stroke-linecap="round" stroke-miterlimit="10" stroke-width="0.957"/>
          <path id="Caminho_5049" data-name="Caminho 5049" d="M223.59,544.764A31.6,31.6,0,0,1,234.7,542.94" transform="translate(-154.092 -373.851)" fill="#fff" stroke="#000" stroke-linecap="round" stroke-miterlimit="10" stroke-width="0.935"/>
          <path id="Caminho_5050" data-name="Caminho 5050" d="M223.45,543.817a31.476,31.476,0,0,1,11.108-1.8" transform="translate(-153.996 -373.214)" fill="#fff" stroke="#000" stroke-linecap="round" stroke-miterlimit="10" stroke-width="0.913"/>
          <path id="Caminho_5051" data-name="Caminho 5051" d="M223.31,542.862a31.521,31.521,0,0,1,11.108-1.78" transform="translate(-153.9 -372.571)" fill="#fff" stroke="#000" stroke-linecap="round" stroke-miterlimit="10" stroke-width="0.891"/>
          <path id="Caminho_5052" data-name="Caminho 5052" d="M223.17,541.91a31.528,31.528,0,0,1,11.108-1.761" transform="translate(-153.803 -371.928)" fill="#fff" stroke="#000" stroke-linecap="round" stroke-miterlimit="10" stroke-width="0.87"/>
          <path id="Caminho_5053" data-name="Caminho 5053" d="M223,540.961a31.508,31.508,0,0,1,11.108-1.736" transform="translate(-153.686 -371.291)" fill="#fff" stroke="#000" stroke-linecap="round" stroke-miterlimit="10" stroke-width="0.848"/>
          <path id="Caminho_5054" data-name="Caminho 5054" d="M222.9,540.008a31.515,31.515,0,0,1,11.108-1.718" transform="translate(-153.618 -370.647)" fill="#fff" stroke="#000" stroke-linecap="round" stroke-miterlimit="10" stroke-width="0.826"/>
          <path id="Caminho_5055" data-name="Caminho 5055" d="M222.76,539.051a31.459,31.459,0,0,1,11.108-1.7" transform="translate(-153.521 -370.003)" fill="#fff" stroke="#000" stroke-linecap="round" stroke-miterlimit="10" stroke-width="0.804"/>
          <path id="Caminho_5056" data-name="Caminho 5056" d="M222.62,538.1a31.421,31.421,0,0,1,11.108-1.674" transform="translate(-153.425 -369.365)" fill="#fff" stroke="#000" stroke-linecap="round" stroke-miterlimit="10" stroke-width="0.783"/>
          <path id="Caminho_5057" data-name="Caminho 5057" d="M222.48,537.148a31.474,31.474,0,0,1,11.111-1.652" transform="translate(-153.329 -368.721)" fill="#fff" stroke="#000" stroke-linecap="round" stroke-miterlimit="10" stroke-width="0.761"/>
          <path id="Caminho_5058" data-name="Caminho 5058" d="M222.34,536.195a31.482,31.482,0,0,1,11.111-1.633" transform="translate(-153.232 -368.077)" fill="#fff" stroke="#000" stroke-linecap="round" stroke-miterlimit="10" stroke-width="0.739"/>
          <path id="Caminho_5059" data-name="Caminho 5059" d="M222.2,535.243a31.4,31.4,0,0,1,11.111-1.608" transform="translate(-153.136 -367.437)" fill="#fff" stroke="#000" stroke-linecap="round" stroke-miterlimit="10" stroke-width="0.717"/>
          <path id="Caminho_5060" data-name="Caminho 5060" d="M222.06,534.286a31.445,31.445,0,0,1,11.111-1.586" transform="translate(-153.04 -366.792)" fill="#fff" stroke="#000" stroke-linecap="round" stroke-miterlimit="10" stroke-width="0.696"/>
          <path id="Caminho_5061" data-name="Caminho 5061" d="M221.92,533.343a31.365,31.365,0,0,1,11.111-1.561" transform="translate(-152.944 -366.159)" fill="#fff" stroke="#000" stroke-linecap="round" stroke-miterlimit="10" stroke-width="0.674"/>
          <path id="Caminho_5062" data-name="Caminho 5062" d="M221.78,532.386a31.8,31.8,0,0,1,11.114-1.543" transform="translate(-152.847 -365.514)" fill="#fff" stroke="#000" stroke-linecap="round" stroke-miterlimit="10" stroke-width="0.652"/>
          <path id="Caminho_5063" data-name="Caminho 5063" d="M221.65,531.428a31.525,31.525,0,0,1,11.111-1.524" transform="translate(-152.758 -364.865)" fill="#fff" stroke="#000" stroke-linecap="round" stroke-miterlimit="10" stroke-width="0.63"/>
          <path id="Caminho_5064" data-name="Caminho 5064" d="M221.51,530.465a31.225,31.225,0,0,1,11.111-1.5" transform="translate(-152.662 -364.214)" fill="#fff" stroke="#000" stroke-linecap="round" stroke-miterlimit="10" stroke-width="0.609"/>
          <path id="Caminho_5065" data-name="Caminho 5065" d="M221.37,529.518a31.353,31.353,0,0,1,11.111-1.48" transform="translate(-152.565 -363.577)" fill="#fff" stroke="#000" stroke-linecap="round" stroke-miterlimit="10" stroke-width="0.587"/>
          <path id="Caminho_5066" data-name="Caminho 5066" d="M221.23,528.561a31.407,31.407,0,0,1,11.114-1.458" transform="translate(-152.469 -362.932)" fill="#fff" stroke="#000" stroke-linecap="round" stroke-miterlimit="10" stroke-width="0.565"/>
          <path id="Caminho_5067" data-name="Caminho 5067" d="M221.09,527.6a31.332,31.332,0,0,1,11.114-1.44" transform="translate(-152.373 -362.285)" fill="#fff" stroke="#000" stroke-linecap="round" stroke-miterlimit="10" stroke-width="0.543"/>
          <path id="Caminho_5068" data-name="Caminho 5068" d="M221,526.651a31.334,31.334,0,0,1,11.114-1.415" transform="translate(-152.311 -361.644)" fill="#fff" stroke="#000" stroke-linecap="round" stroke-miterlimit="10" stroke-width="0.522"/>
          <path id="Caminho_5069" data-name="Caminho 5069" d="M220.81,525.7a31.341,31.341,0,0,1,11.114-1.4" transform="translate(-152.18 -360.998)" fill="#fff" stroke="#000" stroke-linecap="round" stroke-miterlimit="10" stroke-width="0.5"/>
          <path id="Caminho_5070" data-name="Caminho 5070" d="M225.27,548.635l1.121,6.851a1.343,1.343,0,0,0,.937,1.121,13.294,13.294,0,0,0,3.785.422,11.055,11.055,0,0,0,5.234-1.992c.3-.312.609-.422.478-1.14s-.99-7.017-.99-7.017A39.481,39.481,0,0,0,225.27,548.635Z" transform="translate(-155.247 -376.57)" fill="#fff" stroke="#000" stroke-miterlimit="10" stroke-width="1.5"/>
          <path id="Caminho_5071" data-name="Caminho 5071" d="M256.94,552.75l.625,5.221a1.2,1.2,0,0,1-.165.828l-.509.54" transform="translate(-176.993 -380.607)" fill="none" stroke="#000" stroke-linecap="round" stroke-miterlimit="10" stroke-width="0.5"/>
          <path id="Caminho_5072" data-name="Caminho 5072" d="M253.79,552.53l.731,5.249a1.249,1.249,0,0,1-.194.909c-.29.331-.412.5-.412.5" transform="translate(-174.861 -380.456)" fill="none" stroke="#000" stroke-linecap="round" stroke-miterlimit="10" stroke-width="0.5"/>
          <path id="Caminho_5073" data-name="Caminho 5073" d="M246.06,552.53l.678,5.537a3.287,3.287,0,0,0,.312,1.249" transform="translate(-169.545 -380.456)" fill="none" stroke="#000" stroke-linecap="round" stroke-miterlimit="10" stroke-width="0.5"/>
          <path id="Caminho_5074" data-name="Caminho 5074" d="M241.79,553.59l.625,5.44a2.7,2.7,0,0,0,.331,1.249" transform="translate(-166.609 -381.185)" fill="none" stroke="#000" stroke-linecap="round" stroke-miterlimit="10" stroke-width="0.5"/>
          <path id="Caminho_5075" data-name="Caminho 5075" d="M233.14,555.62l.893,5.137a1.416,1.416,0,0,0,.606.965l.5.25" transform="translate(-160.66 -382.581)" fill="none" stroke="#000" stroke-linecap="round" stroke-miterlimit="10" stroke-width="0.5"/>
          <path id="Caminho_5076" data-name="Caminho 5076" d="M230.23,556.28l.909,5.309s.153.662.525.843a1.173,1.173,0,0,0,.475.166" transform="translate(-158.659 -383.035)" fill="none" stroke="#000" stroke-linecap="round" stroke-miterlimit="10" stroke-width="0.5"/>
          <path id="Caminho_5077" data-name="Caminho 5077" d="M116.677,524.4l-21.859,1.611s-3.344.44-4.316,2.5-1.892,3.819-1.892,3.819" transform="translate(-61.263 -361.11)" fill="none" stroke="#000" stroke-miterlimit="10" stroke-width="4"/>
          <path id="Caminho_5078" data-name="Caminho 5078" d="M69.126,548.535s.278-.606.756-.568a14.877,14.877,0,0,1,2.167.715l.643.79a30.6,30.6,0,0,1-1.967,8.5,1.8,1.8,0,0,1-2.148,1.065c-1.471-.312-3.472-.828-3.8-1.268s-.956-1.321-.956-1.321-.587-.753.368-2S69.126,548.535,69.126,548.535Z" transform="translate(-44.09 -377.316)" fill="none" stroke="#000" stroke-miterlimit="10" stroke-width="1"/>
          <path id="Caminho_5079" data-name="Caminho 5079" d="M74.861,552l-1.974-.625s-.347-.181-.753.312-5.234,6.758-5.234,6.758a1.111,1.111,0,0,0,.275,1.268c.606.7.856.937.856.937" transform="translate(-46.271 -379.641)" fill="none" stroke="#000" stroke-miterlimit="10" stroke-width="1"/>
          <line id="Linha_695" data-name="Linha 695" x2="0.771" y2="0.918" transform="translate(25.386 170.785)" fill="none" stroke="#000" stroke-miterlimit="10" stroke-width="1"/>
          <g id="Camada_9" data-name="Camada 9" transform="translate(107.399 102.343)">
            <path id="Caminho_5080" data-name="Caminho 5080" d="M361.719,358.251l-.247-1.44-.609-12.507v-.025a1.608,1.608,0,0,0-.593-1.249c-.737-.59-5.284-3.507-6.03-3.985l-7.157-.387-.1-.059a1.28,1.28,0,0,1-.5-1.171v-2.661a2,2,0,0,1,.881-1.143c.125-.072.231-.144.331-.209a2.117,2.117,0,0,1,1.062-.431c.062,0,.253-.037.568-.087a184.8,184.8,0,0,1,23.052-2.167c3.042.034,8.609.219,8.666.219h0a5.279,5.279,0,0,1,2.433.584c.828.5,2.9,1.668,2.923,1.68l.212.119.2,1.964a1.109,1.109,0,0,1-.1.853,1.021,1.021,0,0,1-.762.472c-.662.1-6.7.606-7.723.69l-6.72,5.153a2.729,2.729,0,0,0-.587,1.54c-.041,1.09,0,15.13,0,15.273v.556Z" transform="translate(-346.005 -330.262)" fill="#fff"/>
            <path id="Caminho_5081" data-name="Caminho 5081" d="M371.344,330.176c3.048.037,8.634.222,8.634.222a5.06,5.06,0,0,1,2.2.515c.846.515,2.939,1.689,2.939,1.689l.184,1.764a.568.568,0,0,1-.478.771c-.7.109-7.826.7-7.826.7l-6.87,5.256a3.189,3.189,0,0,0-.731,1.874c-.041,1.112,0,15.3,0,15.3l-8.322-1.43-.187-1.084-.618-12.475a2.114,2.114,0,0,0-.768-1.655c-.831-.662-6.177-4.078-6.177-4.078l-7.164-.384s-.275-.166-.275-.771v-2.545a1.527,1.527,0,0,1,.646-.84c.5-.29.718-.537,1.2-.578a183.583,183.583,0,0,1,23.6-2.258m0-.937h-.022a185.093,185.093,0,0,0-23.108,2.186l-.543.084a2.577,2.577,0,0,0-1.274.506c-.1.066-.2.131-.312.2a2.5,2.5,0,0,0-1.077,1.4l-.034.122v2.664a1.679,1.679,0,0,0,.731,1.561l.2.119h.231l6.917.375c1.608,1.03,5.268,3.391,5.89,3.888a1.171,1.171,0,0,1,.409.881v.1l.625,12.46v.116l.187,1.084.116.653.65.112,8.322,1.43,1.1.187V358.24c0-4.9-.031-14.387,0-15.252a2.261,2.261,0,0,1,.447-1.221l6.558-5.021c1.44-.119,6.964-.581,7.62-.684a1.518,1.518,0,0,0,1.093-.69,1.6,1.6,0,0,0,.165-1.171l-.178-1.7-.05-.484-.422-.237c-.022,0-2.089-1.171-2.91-1.671a5.754,5.754,0,0,0-2.676-.653c-.312,0-5.687-.184-8.638-.219Z" transform="translate(-344.96 -329.23)"/>
            <path id="Caminho_5082" data-name="Caminho 5082" d="M348.76,337.084l24.61-2.464s1.321.037,1.727,0" transform="translate(-347.573 -332.937)" fill="none" stroke="#000" stroke-miterlimit="10" stroke-width="1"/>
            <path id="Caminho_5083" data-name="Caminho 5083" d="M427.83,332.26l3.251,1.443a9.224,9.224,0,0,0,3.8.974c1.983,0,7.229.019,7.229.019" transform="translate(-401.952 -331.314)" fill="none" stroke="#000" stroke-miterlimit="10" stroke-width="1"/>
            <path id="Caminho_5084" data-name="Caminho 5084" d="M348.86,348.8a.718.718,0,0,1,.7-.625c.659-.075,27.149-1.986,27.149-1.986s2.829-.072,5.181,0l6.111.2" transform="translate(-347.642 -340.872)" fill="none" stroke="#000" stroke-miterlimit="10" stroke-width="1"/>
            <path id="Caminho_5085" data-name="Caminho 5085" d="M369.62,351.34l-.99-.753s.147-.219.99-.294,14.4-.956,14.4-.956,7.26-.219,9.259.294" transform="translate(-361.238 -343.027)" fill="none" stroke="#000" stroke-miterlimit="10" stroke-width="0.75"/>
            <path id="Caminho_5086" data-name="Caminho 5086" d="M380.66,359.052s.137-.518,1.936-.59,7.7-.406,7.7-.406a54.964,54.964,0,0,1,7.807,0" transform="translate(-369.512 -348.953)" fill="none" stroke="#000" stroke-miterlimit="10" stroke-width="0.75"/>
          </g>
          <path id="Caminho_5087" data-name="Caminho 5087" d="M126.913,516.254l-21.241,2.426-.222-.993.331-.993,20.242-2.314Z" transform="translate(-72.844 -354.219)" fill="#e6e6e6" stroke="#000" stroke-miterlimit="10" stroke-width="1"/>
          <line id="Linha_696" data-name="Linha 696" x1="20.916" y2="2.233" transform="translate(32.606 161.235)" fill="none" stroke="#000" stroke-miterlimit="10" stroke-width="1"/>
          <g id="Camada_6" data-name="Camada 6" transform="translate(4.805)">
            <path id="Caminho_5088" data-name="Caminho 5088" d="M25.782,160.994s.809,4.409,10.727,2.867c7.054-.587,10.73-.881,15.433-.44s26.45,1.618,28.433,1.543a5.131,5.131,0,0,0,3.638.809s.047.809,2.252.019a136.181,136.181,0,0,1,18.652-3.179c7.723-.587,21.6-1.618,22.631-1.618s7.182.534,7.182.534,6.192.865,9.5-.534a19.05,19.05,0,0,0,3.947-1.955,9.153,9.153,0,0,0,3.86-9.478c-1.155-6.5-2.757-9.259-2.757-9.259s-2.258-7.769-9.2-8.488c-2.148-.715-10.636-4.9-27.387,6.945l-9.131-.428a9.448,9.448,0,0,1,2.479-4.091c1.249-1.708,3.4-3.86,6.043-14.714.443-2.867,1.93-7.495-2.976-20-1.874-4.409-5.84-11.792-8.153-16.31a30.181,30.181,0,0,1-2.261-6.836c-.828-5.621,1.708-12.51,2.536-15.979,0,0,4.06-9.993-2.957-16.351A150.231,150.231,0,0,0,81.736,31.556s-5.365-3.947-9.112-12.544l-3.747-8.6S66.34,4.189,60.445,2.974c-5.6-1.14-7.966-1.945-15.823-1.174a9.637,9.637,0,0,0-3.276.9,6.711,6.711,0,0,0-3.385,3.435c-.384.35-2.167,2.077-3.029,6.836-.84,4.637-.84,8.41-5.715,15.164a6.742,6.742,0,0,1-.746.874c-2.036,2-6.961,6.929-6.961,6.929s-3.607,3-4.216,5-1.377,3.032-.412,10.93,1.283,10.28,1.283,10.28L21.6,79.584a36.461,36.461,0,0,1,1.021,8.569c.037,4.959-.294,15.283-.294,15.283Z" transform="translate(-16.425 -1.495)" fill="#fff" stroke="#000" stroke-miterlimit="10" stroke-width="1"/>
            <path id="Caminho_5089" data-name="Caminho 5089" d="M49.985,5s-3.36.818-3.766,5.309S46.4,23.552,43.171,26.75,31.414,39.719,31.414,39.719A12.259,12.259,0,0,0,29.063,53.09l3.785,10.93s2.1,8.119,3.71,15.32,7.788,30.787,7.788,30.787,5.44,21.391-.806,35.709" transform="translate(-24.408 -3.906)" fill="none" stroke="#000" stroke-miterlimit="10" stroke-width="1"/>
            <path id="Caminho_5090" data-name="Caminho 5090" d="M65.53,190.79s-.753,5.128-.809,5.768S63.216,202.694,66.576,214c.55,1.992,2.867,13.74,2.867,13.74l2.092,9.865s5.071,31.365-2.536,36" transform="translate(-49.393 -131.678)" fill="none" stroke="#000" stroke-miterlimit="10" stroke-width="1"/>
            <path id="Caminho_5091" data-name="Caminho 5091" d="M75.138,139s3.145.937,2.208,9.534-2.052,15.42-3.3,18.671a18.86,18.86,0,0,0-.222,7.164c.44,4.075,1.614,15.879,1.614,15.879" transform="translate(-55.753 -96.061)" fill="none" stroke="#000" stroke-miterlimit="10" stroke-width="1"/>
            <path id="Caminho_5092" data-name="Caminho 5092" d="M34.49,121.65s1.649.422,3.166,3.563,3.195,6.7,3.195,6.7,6.761,15.43,6.5,22.668" transform="translate(-28.849 -84.129)" fill="none" stroke="#000" stroke-miterlimit="10" stroke-width="1"/>
            <path id="Caminho_5093" data-name="Caminho 5093" d="M97.45,437.763a9.646,9.646,0,0,1,7.42-3.416c5.031-.112,6.558.44,6.558.44s4.4.356,12.113,8.347a95.71,95.71,0,0,1,7.248,8.6c1.6,2.355,5.29,7.713,5.29,7.713s1.755,2.932,3.978,3.188" transform="translate(-72.148 -299.168)" fill="none" stroke="#000" stroke-miterlimit="10" stroke-width="1"/>
            <path id="Caminho_5094" data-name="Caminho 5094" d="M137.961,466.438a16.9,16.9,0,0,1-3.035-2.979c-1.533-2.03-3.576-5.084-5.421-7.6-3.2-4.353-6.87-9.64-13.228-13.831a14.6,14.6,0,0,0-7.585-2.757,28.878,28.878,0,0,0-4.759.131,8.212,8.212,0,0,0-5.6,4.113" transform="translate(-72.753 -302.548)" fill="none" stroke="#000" stroke-miterlimit="10" stroke-width="1"/>
            <path id="Caminho_5095" data-name="Caminho 5095" d="M111.71,428.643a15.985,15.985,0,0,1,14.724-2.5c2.757,1.14,7.31,3.232,16.46,13.044.662,1.505,3.878,11.607,6.954,16.494.1.55.387,1-.081,1.593" transform="translate(-81.955 -292.986)" fill="none" stroke="#000" stroke-miterlimit="10" stroke-width="1"/>
            <line id="Linha_697" data-name="Linha 697" y1="1.383" x2="34.332" transform="translate(52.801 136.981)" fill="none" stroke="#000" stroke-miterlimit="10" stroke-width="1"/>
            <path id="Caminho_5096" data-name="Caminho 5096" d="M192.94,450.926s7.029-.418,9.784.793a5.215,5.215,0,0,1,2.039,2.092,34.826,34.826,0,0,1,.1,17.956" transform="translate(-137.819 -310.532)" fill="none" stroke="#000" stroke-miterlimit="10" stroke-width="1"/>
            <path id="Caminho_5097" data-name="Caminho 5097" d="M324.69,440.406s3.857.962,12.454.4,16.588-.69,16.588-.69a6.153,6.153,0,0,1,5.4,2.442l.059.084a14.314,14.314,0,0,1,2.461,6.63,19.557,19.557,0,0,1,.069,5.465c-.55,1.983-1,4.3-4.934,7.66" transform="translate(-228.426 -303.132)" fill="none" stroke="#000" stroke-miterlimit="10" stroke-width="1"/>
            <path id="Caminho_5098" data-name="Caminho 5098" d="M365.94,417.014s7.635-2.514,11.676.571c1.4,1.177,2.426,2.245,4.334,5.971" transform="translate(-256.795 -286.594)" fill="none" stroke="#000" stroke-miterlimit="10" stroke-width="1"/>
            <path id="Caminho_5099" data-name="Caminho 5099" d="M412.39,418.85s4.078,1.821,5.237,3.473a43.305,43.305,0,0,1,2.7,4.959,25.541,25.541,0,0,1,2.757,10.305c.053,1.764.65,5.493-3.616,7.844" transform="translate(-288.74 -288.52)" fill="none" stroke="#000" stroke-miterlimit="10" stroke-width="1"/>
            <path id="Caminho_5100" data-name="Caminho 5100" d="M40.413,280.143S36.519,262.433,33,251.56" transform="translate(-27.824 -173.471)" fill="none" stroke="#000" stroke-miterlimit="10" stroke-width="1"/>
            <path id="Caminho_5101" data-name="Caminho 5101" d="M32.674,182.774s-9.325-34.313-10.73-40.936-2.72-20.5-2.72-20.5-.706-5.933,4.734-11.357" transform="translate(-18.329 -76.103)" fill="none" stroke="#000" stroke-miterlimit="10" stroke-width="1"/>
            <path id="Caminho_5102" data-name="Caminho 5102" d="M228.544,224.443l-3.06-12.522s-3.282-14.312-2.988-20.014.515-14.162-.806-17.537" transform="translate(-157.591 -120.385)" fill="none" stroke="#000" stroke-miterlimit="10" stroke-width="1"/>
            <line id="Linha_698" data-name="Linha 698" x1="1.999" y1="8.166" transform="translate(77.087 129.14)" fill="none" stroke="#000" stroke-miterlimit="10" stroke-width="1"/>
            <path id="Caminho_5103" data-name="Caminho 5103" d="M224.22,168.525l8.247-11.767s9.006-13.518,9.093-17.818" transform="translate(-159.331 -96.019)" fill="none" stroke="#000" stroke-miterlimit="10" stroke-width="1"/>
            <path id="Caminho_5104" data-name="Caminho 5104" d="M265.34,400.09a60.089,60.089,0,0,0,3.928,12.728" transform="translate(-187.61 -275.619)" fill="none" stroke="#000" stroke-miterlimit="10" stroke-width="1"/>
            <path id="Caminho_5105" data-name="Caminho 5105" d="M247.294,200.73s-.147,8.965.44,15.873,3.088,32.477,3.088,32.477" transform="translate(-175.188 -138.514)" fill="none" stroke="#000" stroke-miterlimit="10" stroke-width="1"/>
            <path id="Caminho_5106" data-name="Caminho 5106" d="M272.654,257.564A98.089,98.089,0,0,0,278.9,244.23c2.867-7.57,2.939-10.361,2.939-10.361a23.536,23.536,0,0,0-.956-11.582c-2.133-6.42-5.509-13.621-5.509-13.621L271.4,199.84s-2.57-6.1,0-11.389a146.369,146.369,0,0,0,5.487-14.112" transform="translate(-190.995 -120.365)" fill="none" stroke="#000" stroke-miterlimit="10" stroke-width="1"/>
            <path id="Caminho_5107" data-name="Caminho 5107" d="M59.35,77.152s2.639-3.969,5.359-2.939,6.117,2.47,6.814,10.745" transform="translate(-45.945 -51.388)" fill="none" stroke="#000" stroke-miterlimit="10" stroke-width="1"/>
          </g>
          <path id="Caminho_5108" data-name="Caminho 5108" d="M97.45,335.8s1.524-1.4,10.23-.9c5.237.109,18.849.165,28.217-.278a40.388,40.388,0,0,1,6.558-.715c.625.106,5.29,2.37,7.054,13.39.606,4.575,1.287,15.81-5.271,20.092-2.714.39-19.583,1.059-19.583,1.059" transform="translate(-67.342 -230.09)" fill="none" stroke="#000" stroke-miterlimit="10" stroke-width="1"/>
          <line id="Linha_699" data-name="Linha 699" x1="1.792" y1="20.601" transform="translate(30.985 115.809)" fill="none" stroke="#000" stroke-miterlimit="10" stroke-width="1"/>
          <path id="Caminho_5109" data-name="Caminho 5109" d="M223.54,335.73s5.1,4.94,6.083,11.407c.971,6.386,1.2,15.951-5.552,21.891" transform="translate(-154.058 -231.357)" fill="none" stroke="#000" stroke-miterlimit="10" stroke-width="1"/>
          <path id="Caminho_5110" data-name="Caminho 5110" d="M133.74,351.79s3.747,5.162,3.972,23" transform="translate(-92.3 -242.402)" fill="none" stroke="#000" stroke-miterlimit="10" stroke-width="1"/>
          <path id="Caminho_5111" data-name="Caminho 5111" d="M113.356,383.222s4.372-11.866-.746-22.862" transform="translate(-77.768 -248.295)" fill="none" stroke="#000" stroke-miterlimit="10" stroke-width="1"/>
          <path id="Caminho_5112" data-name="Caminho 5112" d="M78.7,111.41l-4.194.7a1.721,1.721,0,0,0-1.134,1.184c-.378,1.352-1.561,5.427-1.561,5.427s-.578,1.821,1.3,1.655,5.933-.359,5.933-.359" transform="translate(-49.655 -77.086)" fill="none" stroke="#000" stroke-miterlimit="10" stroke-width="1"/>
          <path id="Caminho_5113" data-name="Caminho 5113" d="M82.847,113.37l-3.376.821a1.433,1.433,0,0,0-.937.9c-.2.7-.862,4.319-.862,4.319a1.063,1.063,0,0,0,1.23,1.174c1.362-.037,4.228-.165,4.228-.165" transform="translate(-53.739 -78.434)" fill="none" stroke="#000" stroke-miterlimit="10" stroke-width="0.75"/>
          <path id="Caminho_5114" data-name="Caminho 5114" d="M85.081,121.232H83.189s-2.258-.347-2.442-1.78-.278-2.939,1.037-3.682" transform="translate(-55.782 -80.085)" fill="none" stroke="#000" stroke-miterlimit="10" stroke-width="0.75"/>
          <line id="Linha_700" data-name="Linha 700" y1="0.921" x2="4.163" transform="translate(25.027 35.932)" fill="none" stroke="#000" stroke-miterlimit="10" stroke-width="1"/>
          <line id="Linha_701" data-name="Linha 701" x2="44.384" y2="2.014" transform="translate(25.523 59.577)" fill="none" stroke="#000" stroke-miterlimit="10" stroke-width="1"/>
          <path id="Caminho_5115" data-name="Caminho 5115" d="M77.46,281.685a21.169,21.169,0,0,1,6.517-.737c3.913.109,41.551.715,41.551.715" transform="translate(-53.595 -193.676)" fill="none" stroke="#000" stroke-miterlimit="10" stroke-width="1"/>
          <path id="Caminho_5116" data-name="Caminho 5116" d="M209.022,219.935,203.27,167.21l3.8.219,1.714,4.353,4.843,47.488Z" transform="translate(-140.118 -115.461)" fill="#fff" stroke="#000" stroke-miterlimit="10" stroke-width="1"/>
          <path id="Caminho_5117" data-name="Caminho 5117" d="M83.44,131.19a47.249,47.249,0,0,1,1.377,5.883c.244,2.1,5.868,58.536,5.868,58.536l5.134-.2L87.7,131.836H85.114S83.521,131.443,83.44,131.19Z" transform="translate(-57.707 -90.69)" fill="#fff" stroke="#000" stroke-miterlimit="10" stroke-width="1"/>
          <g id="Camada_8" data-name="Camada 8" transform="translate(6.09 100.351)">
            <path id="Caminho_5118" data-name="Caminho 5118" d="M35.693,453.548l-12.4-.718s-1.874.415-1.958-3.123,0-13.64,0-13.64l.828-5.674,2.258-3.969s1.352-.166,2.039-.194a19.519,19.519,0,0,1,2.592.331l.053.912a6.065,6.065,0,0,1,2.564,4.188c.606,3.113,1.433,8.494,5.84,10.367s3.566,8.8,3.566,8.8l.062,1.949-1.533,1.1Z" transform="translate(-21.062 -393.947)" fill="#e6e6e6" stroke="#000" stroke-miterlimit="10" stroke-width="2"/>
            <path id="Caminho_5119" data-name="Caminho 5119" d="M21.089,363.493c-.137-1.046-.55-4.022-.55-4.022a2.811,2.811,0,0,1,.247-1.187c.275-.578,3.123-6.611,3.123-6.611l-2.617-20.445,1.652-5.128,2.067-1.817,1.605-1.433h.828l1.39,5.356,3.123,21.107,1.018,6.723-7.2.372L25,357.8l-1.249,1.249.565,4.038.025,5.09-1.471.771-1.53-4.74Z" transform="translate(-20.539 -322.85)" fill="#e6e6e6" stroke="#000" stroke-miterlimit="10" stroke-width="2"/>
            <path id="Caminho_5120" data-name="Caminho 5120" d="M32.907,430.28s1.786.178,2.632,4.516,2.5,10.433,5.8,11.092c.331,1.546,1.727,8.35,1.727,8.35l-.415,2.13-2.892-3.435-.771-4.078a13.022,13.022,0,0,1-5.093-7.679c-1.006-5-1.658-7.223-2.967-7.966" transform="translate(-27.685 -396.732)" fill="none" stroke="#000" stroke-miterlimit="10" stroke-width="1"/>
            <line id="Linha_702" data-name="Linha 702" x2="11.804" y2="0.587" transform="translate(0.272 55.588)" fill="none" stroke="#000" stroke-miterlimit="10" stroke-width="1"/>
            <path id="Caminho_5121" data-name="Caminho 5121" d="M56.74,482.679l2.351-2.942,4.11-.237" transform="translate(-45.435 -430.582)" fill="none" stroke="#000" stroke-miterlimit="10" stroke-width="1"/>
            <path id="Caminho_5122" data-name="Caminho 5122" d="M30.043,362.5l-.353-1.73,3.195-7.385-2.939-20.941,1.2-4.565" transform="translate(-26.832 -326.309)" fill="none" stroke="#000" stroke-miterlimit="10" stroke-width="1"/>
            <path id="Caminho_5123" data-name="Caminho 5123" d="M22.92,331.228l2.114-2.058,2.351-.44,1.43-5.88" transform="translate(-22.177 -322.85)" fill="none" stroke="#000" stroke-miterlimit="10" stroke-width="1"/>
            <path id="Caminho_5124" data-name="Caminho 5124" d="M35,370.372l-.2-.846,3.619-7.31L35.556,341.68" transform="translate(-30.347 -335.8)" fill="none" stroke="#000" stroke-miterlimit="10" stroke-width="1"/>
            <path id="Caminho_5125" data-name="Caminho 5125" d="M31.3,409.848l2.692-1.746,2.02-.662" transform="translate(-27.94 -381.025)" fill="none" stroke="#000" stroke-miterlimit="10" stroke-width="1"/>
          </g>
          <g id="Camada_7" data-name="Camada 7" transform="translate(4.183 104.604)">
            <path id="Caminho_5126" data-name="Caminho 5126" d="M35.935,399.5h-.422c-.959-.028-1.143-.465-1.177-.65s-.287-.837-.44-1.493v-.044a72.7,72.7,0,0,1-.206-9.918v-.178l.222-.116L33.7,382.84h-.281a1.086,1.086,0,0,1-.412-.053l-.194-.078V382.5c-.037-.462-3.354-29.622-3.388-29.916a2.37,2.37,0,0,0-1.1-1.561c-1.027-.643-5.252-3.535-5.933-4l-6.989.284v-2.074a1.358,1.358,0,0,1,.462-1.14c.406-.312,1.936-1.608,1.952-1.621a8.078,8.078,0,0,1,3.476-1.749c.294-.056.625-.128,1.018-.209a107.489,107.489,0,0,1,14.14-2c1.764-.109,12.616-.971,12.894-.993a1.666,1.666,0,0,1,.212,0,2.42,2.42,0,0,1,1.343.425,2.166,2.166,0,0,1,.937,1.124v.034l.359,3.057c.056.39,0,1.09-.584,1.2-.418.078-4.712.593-5.437.681l-.087.075-.106.294-5.933,5.808s-.312.35-.265,1.586c.053,1.44,1.718,29.666,1.736,29.944v.069c-.028.184-.2.409-.818.515.025.743.147,2.792.237,4.3l.55.106,1.155,7.307a3.082,3.082,0,0,1,1.052.425l.044.034.031.047a4.265,4.265,0,0,1,.237,2.767v.034a6.392,6.392,0,0,1-2.529,2.139h-.059c-.331-.022-.84-.031-1.561-.031s-1.6,0-2.364.022H35.938Z" transform="translate(-15.101 -337.191)" fill="#fff"/>
            <path id="Caminho_5127" data-name="Caminho 5127" d="M48.9,337.11a2.1,2.1,0,0,1,1.168.372,1.827,1.827,0,0,1,.8.937l.356,3.057s.112.771-.328.856-5.512.687-5.512.687l-.222.194-.109.312-5.868,5.749s-.415.359-.359,1.817,1.736,29.953,1.736,29.953-.037.219-.828.294c-.019.4.256,4.831.256,4.831l.571.109,1.155,7.3a3.4,3.4,0,0,1,1.14.415,4.671,4.671,0,0,1,.184,2.589,7.056,7.056,0,0,1-2.261,1.874c-.372-.022-.937-.031-1.561-.031-1.358,0-3.048.037-3.932.037H34.87c-.9-.034-.9-.418-.9-.418s-.275-.771-.44-1.49a71.354,71.354,0,0,1-.206-9.865l.24-.128-.219-4.775s-.312.028-.578.028a.961.961,0,0,1-.294-.028c0-.175-3.391-29.95-3.391-29.95a2.7,2.7,0,0,0-1.249-1.792c-1.1-.687-6.005-4.06-6.005-4.06l-6.767.275V344.5a1.046,1.046,0,0,1,.347-.884c.412-.331,1.955-1.624,1.955-1.624a7.806,7.806,0,0,1,3.335-1.683,105.876,105.876,0,0,1,15.127-2.2c1.792-.112,12.894-.993,12.894-.993a1.146,1.146,0,0,1,.184,0m0-.625a1.9,1.9,0,0,0-.25.016c-.515.041-11.136.884-12.866.99h-.019a106.513,106.513,0,0,0-14.18,2c-.384.081-.718.153-1.009.209a8.369,8.369,0,0,0-3.626,1.824c-.119.1-1.561,1.3-1.936,1.608a1.649,1.649,0,0,0-.581,1.4v2.389l.65-.028,6.558-.265c.89.609,4.859,3.323,5.855,3.947a2.055,2.055,0,0,1,.937,1.346c1.143,10.036,3.307,29.092,3.385,29.891v.393l.384.159a1.326,1.326,0,0,0,.518.075l.187,3.747-.2.109-.019.353a73.118,73.118,0,0,0,.209,9.968v.069a15.371,15.371,0,0,0,.447,1.515c.066.29.34.837,1.465.871h2c.756,0,1.611-.022,2.361-.022s1.215,0,1.54.031h.116c.137-.019.5-.062,1.608-1.005s1.168-1.249,1.193-1.4v-.034a4.493,4.493,0,0,0-.281-2.979l-.059-.1-.091-.066a3.032,3.032,0,0,0-.962-.428l-1.093-6.886-.069-.434-.39-.091-.1-.019c-.078-1.293-.175-2.96-.212-3.788.478-.134.749-.372.806-.715V381c0-.284-1.68-28.5-1.733-29.938a2.615,2.615,0,0,1,.184-1.365l5.855-5.743.1-.1.05-.134.041-.116c1.068-.128,4.918-.59,5.327-.668.709-.131.937-.871.837-1.561l-.359-3.051v-.069a2.35,2.35,0,0,0-1.055-1.312,2.72,2.72,0,0,0-1.518-.478Z" transform="translate(-14.432 -336.47)"/>
            <path id="Caminho_5128" data-name="Caminho 5128" d="M46.412,357.82l-10.471.406s-2.5.187-3.941.412c-1.874.228-16.31,2.28-16.31,2.28" transform="translate(-15.297 -351.153)" fill="none" stroke="#000" stroke-miterlimit="10" stroke-width="1"/>
            <path id="Caminho_5129" data-name="Caminho 5129" d="M16.14,346.358l17.659-2.5a47.965,47.965,0,0,1,6.655-.671c4.16-.165,7.3-.443,7.3-.443s3.907-.559,4.006-2.745" transform="translate(-15.607 -338.898)" fill="none" stroke="#000" stroke-miterlimit="10" stroke-width="1"/>
            <path id="Caminho_5130" data-name="Caminho 5130" d="M46.88,370.069l6.333-.849a26.585,26.585,0,0,1,4.169-.459c2.957-.166,7.182-.39,7.182-.39" transform="translate(-36.747 -358.408)" fill="none" stroke="#000" stroke-miterlimit="10" stroke-width="1"/>
            <path id="Caminho_5131" data-name="Caminho 5131" d="M74.64,481.158s3.413-.094,6.636-.478" transform="translate(-55.839 -435.647)" fill="none" stroke="#000" stroke-miterlimit="10" stroke-width="1"/>
            <path id="Caminho_5132" data-name="Caminho 5132" d="M74.64,496.39s.877.456,6.183,0a2.283,2.283,0,0,0,1.112-.45" transform="translate(-55.839 -446.141)" fill="none" stroke="#000" stroke-miterlimit="10" stroke-width="1"/>
            <path id="Caminho_5133" data-name="Caminho 5133" d="M55.178,389.806l1.68-.122,3.048-.147s.156-1.736-.762-1.717-2.4.075-2.4.075A1.778,1.778,0,0,0,55.178,389.806Z" transform="translate(-42.45 -371.784)" fill="#e6e6e6" stroke="#000" stroke-miterlimit="10" stroke-width="0.75"/>
            <path id="Caminho_5134" data-name="Caminho 5134" d="M64.012,393.68v1.249s.025.559-.312.606a12.4,12.4,0,0,1-1.343,0s-.137.053-.137-.265-.05-1.561-.05-1.561" transform="translate(-47.263 -375.815)" fill="#e6e6e6" stroke="#000" stroke-miterlimit="10" stroke-width="0.705"/>
            <path id="Caminho_5135" data-name="Caminho 5135" d="M63.756,383.291,63.7,381.38H62.36l.1,2.011" transform="translate(-47.393 -367.356)" fill="none" stroke="#000" stroke-miterlimit="10" stroke-width="0.722"/>
            <path id="Caminho_5136" data-name="Caminho 5136" d="M94.69,497.68l1.018,7.732,2.564-.515" transform="translate(-69.628 -447.338)" fill="none" stroke="#000" stroke-miterlimit="10" stroke-width="1"/>
          </g>
          <path id="Caminho_5137" data-name="Caminho 5137" d="M90.223,71.242s-.356-2.617.856-3.435,3.057-2.039,5.455-.5,10.717,6.973,16.035,7.248c2.948.109,7.495-.028,15.045-4.466.5-.247,2.617-.687,3.307.137a6.2,6.2,0,0,1,1.6,4.8c-.137,2.673-1.724,12.066.387,18.405a26.629,26.629,0,0,1,1,5.6s.019,2.72-1.3,3.307a3.643,3.643,0,0,1-2.682.55,69.628,69.628,0,0,0-15.539-6.723c-2.536-.219-5.989-1.505-13.853,3.747-1.689.846-4.225,1.874-6.133,1.324-1.764-.771-3.2-1.949-2.942-4.3a102.554,102.554,0,0,0-.181-17.3C90.538,74.346,90.223,71.242,90.223,71.242Z" transform="translate(-62.338 -46.249)" fill="#fff" stroke="#000" stroke-miterlimit="10" stroke-width="1"/>
          <path id="Caminho_5138" data-name="Caminho 5138" d="M105.117,101.019a32.135,32.135,0,0,0,.534-14c-1.486-7.217-1.543-9.04-4.022-13.612C100.47,71.315,99,68.2,97.06,68.08" transform="translate(-67.074 -47.287)" fill="none" stroke="#000" stroke-miterlimit="10" stroke-width="1"/>
          <path id="Caminho_5139" data-name="Caminho 5139" d="M207.89,108.366a16.2,16.2,0,0,0,3.279-8.947c.331-5.025.709-14.365.793-18.165a10.639,10.639,0,0,0-.29-2.748,4.106,4.106,0,0,0-.665-1.586" transform="translate(-143.295 -53.367)" fill="none" stroke="#000" stroke-miterlimit="10" stroke-width="1"/>
        </g>
      </g>
    </g>
  </g>
</svg>
