<svg xmlns="http://www.w3.org/2000/svg" xmlns:xlink="http://www.w3.org/1999/xlink" width="189" height="189" viewBox="0 0 189 189">
  <defs>
    <clipPath id="clip-path">
      <circle id="Elipse_91" data-name="Elipse 91" cx="93.202" cy="93.202" r="93.202" transform="translate(301 2000)" fill="#fff" stroke="#707070" stroke-width="0.4"/>
    </clipPath>
  </defs>
  <g id="Agrupar_369" data-name="Agrupar 369" transform="translate(-209 -1995)">
    <g id="Elipse_90" data-name="Elipse 90" transform="translate(209 1995)" fill="#fff" stroke="#707070" stroke-width="1">
      <circle cx="94.5" cy="94.5" r="94.5" stroke="none"/>
      <circle cx="94.5" cy="94.5" r="94" fill="none"/>
    </g>
    <g id="Grupo_de_máscara_13" data-name="Grupo de máscara 13" transform="translate(-90.702 -3.702)" clip-path="url(#clip-path)">
      <g id="Pandora_cotas_lateralDT3_DT3_" data-name="Pandora cotas lateralDT3 DT3 " transform="translate(160.978 1830.917)">
        <g id="Camada_4" data-name="Camada 4" transform="translate(1 1.57)">
          <path id="Caminho_5140" data-name="Caminho 5140" d="M342.689,501.957s-.383,19.068.565,19.554,1.617,2.031,12.027,1.107,9.157-.991,10.847-1.769S364.6,499.92,364.6,499.92s-1.788,1.277-8.221,1.459-12.258.353-13.182-.03S342.689,501.957,342.689,501.957Z" transform="translate(-134.288 -196.91)" fill="#bfbfbf" stroke="#000" stroke-miterlimit="10" stroke-width="3.185"/>
          <path id="Caminho_5141" data-name="Caminho 5141" d="M364.27,494.254l-.669-8.914-18.241.529.286,9.978S362.075,496.254,364.27,494.254Z" transform="translate(-135.372 -191.195)" fill="#bfbfbf" stroke="#000" stroke-miterlimit="10" stroke-width="3.185"/>
          <path id="Caminho_5142" data-name="Caminho 5142" d="M319.761,432l22-.632-3.113-57.434,15.6-13.638,34.2-2.542-.116-4.043L378.8,347.75l-8.707.255-40.829,2.833-33.454,2.943-9.88,6.615.116,3.946,10.172-.085,18.071,11.212Z" transform="translate(-112.077 -137.263)" fill="#bfbfbf" stroke="#000" stroke-miterlimit="10" stroke-width="1.18"/>
          <line id="Linha_703" data-name="Linha 703" y1="1.927" x2="42.161" transform="translate(192.064 229.98)" fill="none" stroke="#000" stroke-miterlimit="10" stroke-width="1.18"/>
          <path id="Caminho_5143" data-name="Caminho 5143" d="M285.93,364.238l96.8-6.007,5.594-.681" transform="translate(-112.077 -141.105)" fill="#fff" stroke="#000" stroke-miterlimit="10" stroke-width="1.18"/>
          <line id="Linha_704" data-name="Linha 704" y1="3.958" x2="58.024" transform="translate(184.141 223.036)" fill="none" stroke="#000" stroke-miterlimit="10" stroke-width="1.18"/>
          <g id="base" transform="translate(51.699 319.329)">
            <path id="Caminho_5144" data-name="Caminho 5144" d="M299.42,723.2v19.645h8.227V723.4" transform="translate(-169.064 -603.759)" fill="#fff" stroke="#000" stroke-miterlimit="10" stroke-width="3.125"/>
            <path id="Caminho_5145" data-name="Caminho 5145" d="M295.586,729h-4.578a59.252,59.252,0,0,0-1.362,13.62,49.007,49.007,0,0,0,1.362,11.984h4.323Z" transform="translate(-165.229 -606.033)" fill="#fff" stroke="#000" stroke-miterlimit="10" stroke-width="3.125"/>
            <path id="Caminho_5146" data-name="Caminho 5146" d="M313,729h4.585a59.967,59.967,0,0,1,1.362,13.62,49.39,49.39,0,0,1-1.362,11.984h-4.341Z" transform="translate(-174.387 -606.033)" fill="#fff" stroke="#000" stroke-miterlimit="10" stroke-width="3.125"/>
            <path id="Caminho_5147" data-name="Caminho 5147" d="M192,650.74s-7.5.833-7.6,1.824-3.648,19.633,3.8,19.56,12.507-2.061,12.987-3.253S192,650.74,192,650.74Z" transform="translate(-123.615 -575.357)" fill="#fff" stroke="#000" stroke-miterlimit="10" stroke-width="2.083"/>
            <path id="Caminho_5148" data-name="Caminho 5148" d="M410.252,648.82a20.987,20.987,0,0,1,5.916,1.058,11.691,11.691,0,0,1,3.448,2.535s-1.678,16.417-2.681,17.025-5.278,1.107-12.355,0,.742-20.107.742-20.107Z" transform="translate(-209.122 -574.604)" fill="#fff" stroke="#000" stroke-miterlimit="10" stroke-width="2.083"/>
            <path id="Caminho_5149" data-name="Caminho 5149" d="M218.51,656.1l1.478,28.079,8.026,2.323,8.026-1.666L237.51,656.1s3.168-2.11,14.149-.839,82.971,7.406,82.971,7.406v1.9s4.645,1.058,6.968,1.265a18.053,18.053,0,0,0,3.8,0l3.593-1.265-.742-12.039-33.885-6.859-29.793-5.594,8.342-.529.608,1.167,2.949-1.167-.42-7.3-4.22-5.472-50.837,2.566-26.182.608L180.927,628.9l-1.161-.845-13.723-.608-3.04.736-2.742,4.329-.529,1.271v7.12l8.549.426-27.021,5.594-1.9-.529-29.185,5.934-.742.845-1.478.608-.608,13.2,10.975.608,3.381-1.69-.213-1.824,90.262-8.974S217.245,654.226,218.51,656.1Z" transform="translate(-93.778 -565.965)" fill="#fff" stroke="#000" stroke-miterlimit="10" stroke-width="3.125"/>
            <line id="Linha_705" data-name="Linha 705" x1="46.715" y2="9.558" transform="translate(74.478 65.825)" fill="none" stroke="#000" stroke-miterlimit="10" stroke-width="3.125"/>
            <line id="Linha_706" data-name="Linha 706" x2="42.708" y2="8.287" transform="translate(148.11 65.825)" fill="none" stroke="#000" stroke-miterlimit="10" stroke-width="3.125"/>
            <path id="Caminho_5150" data-name="Caminho 5150" d="M291.89,704.745l5.077-4.615h6.646l5.211,4.615" transform="translate(-166.112 -594.716)" fill="#fff" stroke="#000" stroke-miterlimit="10" stroke-width="3.125"/>
            <path id="Caminho_5151" data-name="Caminho 5151" d="M291.89,685.241l5.29-4.651h6.652l4.992,4.651" transform="translate(-166.112 -587.057)" fill="#fff" stroke="#000" stroke-miterlimit="10" stroke-width="3.125"/>
            <line id="Linha_707" data-name="Linha 707" x1="0.103" y1="37.85" transform="translate(130.751 67.564)" fill="none" stroke="#000" stroke-miterlimit="10" stroke-width="3.125"/>
            <line id="Linha_708" data-name="Linha 708" x1="0.109" y2="37.85" transform="translate(137.5 67.564)" fill="none" stroke="#000" stroke-miterlimit="10" stroke-width="3.125"/>
            <line id="Linha_709" data-name="Linha 709" x1="38.439" y2="2.59" transform="translate(163.883 66.299)" fill="none" stroke="#000" stroke-miterlimit="10" stroke-width="3.125"/>
            <line id="Linha_710" data-name="Linha 710" x2="3.502" y2="5.788" transform="translate(184.057 61.508)" fill="none" stroke="#000" stroke-miterlimit="10" stroke-width="3.125"/>
            <path id="Caminho_5152" data-name="Caminho 5152" d="M500.9,669.13l-4.116,4.122v9.272" transform="translate(-246.424 -582.565)" fill="#fff" stroke="#000" stroke-miterlimit="10" stroke-width="3.125"/>
            <path id="Caminho_5153" data-name="Caminho 5153" d="M321.346,665.581s-.784-12.458,1.751-13.826,11.34-.529,11.34-.529L427.97,666.11" transform="translate(-177.613 -575.447)" fill="none" stroke="#000" stroke-miterlimit="10" stroke-width="3.125"/>
            <path id="Caminho_5154" data-name="Caminho 5154" d="M218.917,665.123s1.052-15.091,0-15.31-21.64,3.04-21.64,3.04l-57.434,10.768-27.021,5.387-4.433-6.232" transform="translate(-94.185 -574.989)" fill="none" stroke="#000" stroke-miterlimit="10" stroke-width="3.125"/>
            <line id="Linha_711" data-name="Linha 711" x2="3.539" y2="6.707" transform="translate(47.458 80.977)" fill="none" stroke="#000" stroke-miterlimit="10" stroke-width="3.125"/>
            <path id="Caminho_5155" data-name="Caminho 5155" d="M194.33,633.293l14.465,1.477,3.375-4.961,1.69-.949" transform="translate(-127.871 -566.78)" fill="#fff" stroke="#000" stroke-miterlimit="10" stroke-width="3.125"/>
            <line id="Linha_712" data-name="Linha 712" x1="19.7" y1="2.043" transform="translate(80.924 67.99)" fill="none" stroke="#000" stroke-miterlimit="10" stroke-width="3.125"/>
            <path id="Caminho_5156" data-name="Caminho 5156" d="M284.09,610.018s6.6,3.314,13.377,3.314a29.513,29.513,0,0,0,12.294-2.894l-2.092-34.518s-6.141,2.371-10.768,2.371-11.552-.316-11.552-1.9S284.09,610.018,284.09,610.018Z" transform="translate(-163.055 -546.029)" fill="#fff" stroke="#000" stroke-miterlimit="10" stroke-width="3.125"/>
            <path id="Caminho_5157" data-name="Caminho 5157" d="M108.967,694.3l.681,13.62s.821,12.769-11.662,12.769c-6.3,0-9.595-3.356-11.328-6.688a14.5,14.5,0,0,1-.158-13.048,10.671,10.671,0,0,1,7.156-5.922s4.73-.8,7.394.669a.565.565,0,0,0,.754-.243.535.535,0,0,0,.055-.292l-.079-1.265Z" transform="translate(-85.028 -592.274)" fill="#fff" stroke="#000" stroke-miterlimit="10" stroke-width="2.083"/>
            <path id="Caminho_5158" data-name="Caminho 5158" d="M85.418,711.9s-2-10.337,8.233-14.2c5.94-2.256,13.036,1.672,14.757,6.019l.572,1.429" transform="translate(-85.119 -593.505)" fill="#fff" stroke="#000" stroke-miterlimit="10" stroke-width="2.083"/>
            <path id="Caminho_5159" data-name="Caminho 5159" d="M86.5,714.684s-1.514-10.513,8.737-14.4c5.934-2.256,12.769,2.432,14.276,6.214l.565,1.423" transform="translate(-85.574 -594.544)" fill="#fff" stroke="#000" stroke-miterlimit="10" stroke-width="2.083"/>
            <path id="Caminho_5160" data-name="Caminho 5160" d="M94.365,707.023a.383.383,0,0,1,.529.079c.857,1.125,4.329,5.7,4.1,6.08s.243.809-4.159-.116l-3.648-.766c-.219-.042-.468-.316-.377-.523A14.382,14.382,0,0,1,94.365,707.023Z" transform="translate(-87.286 -597.39)" fill="#fff" stroke="#000" stroke-miterlimit="10" stroke-width="2.083"/>
            <path id="Caminho_5161" data-name="Caminho 5161" d="M106.013,703.675a.383.383,0,0,1,.261.456c-.334,1.386-1.733,6.968-2.183,7.035s-.474.693-2.535-3.314l-1.678-3.308c-.1-.2-.043-.565.17-.608A13.606,13.606,0,0,1,106.013,703.675Z" transform="translate(-90.83 -596.018)" fill="#fff" stroke="#000" stroke-miterlimit="10" stroke-width="2.083"/>
            <path id="Caminho_5162" data-name="Caminho 5162" d="M116.382,709.17a.359.359,0,0,1-.164.474c-1.216.608-6.08,3.04-6.421,2.754s-.8.085.839-3.861c.839-2.013,1.173-2.821,1.356-3.271.085-.2.383-.383.565-.261A14.123,14.123,0,0,1,116.382,709.17Z" transform="translate(-94.607 -596.612)" fill="#fff" stroke="#000" stroke-miterlimit="10" stroke-width="2.083"/>
            <path id="Caminho_5163" data-name="Caminho 5163" d="M91.338,724.2a.371.371,0,0,0,.517.085c1.18-.79,5.94-4.037,5.843-4.481s.486-.687-3.983-1.216l-3.691-.438c-.231,0-.553.152-.535.377A14.1,14.1,0,0,0,91.338,724.2Z" transform="translate(-86.777 -601.78)" fill="#fff" stroke="#000" stroke-miterlimit="10" stroke-width="2.083"/>
            <path id="Caminho_5164" data-name="Caminho 5164" d="M101.1,730.1a.371.371,0,0,0,.4-.334c.152-1.411.711-7.15.3-7.363s-.207-.809-3.484,2.274l-2.706,2.535c-.17.158-.237.511-.049.608A13.265,13.265,0,0,0,101.1,730.1Z" transform="translate(-89.114 -603.374)" fill="#fff" stroke="#000" stroke-miterlimit="10" stroke-width="2.083"/>
            <path id="Caminho_5165" data-name="Caminho 5165" d="M113.646,727.741a.365.365,0,0,0,0-.5c-.924-.985-4.706-4.937-5.107-4.779s-.711-.347-.517,3.922c.1,2.171.14,3.04.164,3.533,0,.219.219.486.438.438A13.439,13.439,0,0,0,113.646,727.741Z" transform="translate(-94.017 -603.466)" fill="#fff" stroke="#000" stroke-miterlimit="10" stroke-width="2.083"/>
            <path id="Caminho_5166" data-name="Caminho 5166" d="M117.387,717.733a.365.365,0,0,0-.413-.286c-1.325.213-6.731,1.113-6.822,1.532s-.687.4,2.955,2.633l3.04,1.861a.493.493,0,0,0,.608-.116A13.6,13.6,0,0,0,117.387,717.733Z" transform="translate(-94.84 -601.502)" fill="#fff" stroke="#000" stroke-miterlimit="10" stroke-width="2.083"/>
            <path id="Caminho_5167" data-name="Caminho 5167" d="M486.344,690.3l-.681,13.626s-.821,12.769,11.662,12.769c6.3,0,9.595-3.356,11.328-6.688a14.483,14.483,0,0,0,.158-13.048,10.628,10.628,0,0,0-7.138-5.922s-4.724-.8-7.394.608a.547.547,0,0,1-.742-.231.541.541,0,0,1-.061-.292l.073-1.265Z" transform="translate(-242.062 -590.691)" fill="#fff" stroke="#000" stroke-miterlimit="10" stroke-width="2.083"/>
            <path id="Caminho_5168" data-name="Caminho 5168" d="M510.487,707.928s1.994-10.336-8.239-14.2c-5.94-2.262-13.036,1.666-14.757,6.02l-.572,1.429" transform="translate(-242.559 -591.947)" fill="#fff" stroke="#000" stroke-miterlimit="10" stroke-width="2.083"/>
            <path id="Caminho_5169" data-name="Caminho 5169" d="M509.439,710.714s1.514-10.507-8.731-14.4c-5.94-2.256-12.769,2.432-14.283,6.214l-.565,1.423" transform="translate(-242.143 -592.988)" fill="#fff" stroke="#000" stroke-miterlimit="10" stroke-width="2.083"/>
            <path id="Caminho_5170" data-name="Caminho 5170" d="M511.53,703.053a.383.383,0,0,0-.529.079c-.857,1.125-4.329,5.7-4.1,6.08s-.243.809,4.159-.109l3.648-.766c.225-.049.468-.322.377-.529A14.3,14.3,0,0,0,511.53,703.053Z" transform="translate(-250.387 -595.834)" fill="#fff" stroke="#000" stroke-miterlimit="10" stroke-width="2.083"/>
            <path id="Caminho_5171" data-name="Caminho 5171" d="M501.03,699.716a.377.377,0,0,0-.268.456c.334,1.38,1.733,6.962,2.183,7.029s.474.693,2.535-3.314l1.69-3.314c.1-.2.043-.565-.17-.608A13.82,13.82,0,0,0,501.03,699.716Z" transform="translate(-247.98 -594.466)" fill="#fff" stroke="#000" stroke-miterlimit="10" stroke-width="2.083"/>
            <path id="Caminho_5172" data-name="Caminho 5172" d="M490.38,705.2a.371.371,0,0,0,.164.474c1.216.608,6.111,3.04,6.433,2.748s.79.091-.851-3.855c-.833-2.019-1.167-2.821-1.356-3.271-.079-.2-.377-.383-.553-.268A13.6,13.6,0,0,0,490.38,705.2Z" transform="translate(-243.903 -595.054)" fill="#fff" stroke="#000" stroke-miterlimit="10" stroke-width="2.083"/>
            <path id="Caminho_5173" data-name="Caminho 5173" d="M514.563,720.23a.377.377,0,0,1-.517.085c-1.18-.79-5.94-4.037-5.837-4.481s-.493-.687,3.977-1.216l3.691-.438c.231,0,.553.146.535.371A14,14,0,0,1,514.563,720.23Z" transform="translate(-250.903 -600.224)" fill="#fff" stroke="#000" stroke-miterlimit="10" stroke-width="2.083"/>
            <path id="Caminho_5174" data-name="Caminho 5174" d="M505.908,726.134a.377.377,0,0,1-.407-.334c-.146-1.411-.711-7.15-.3-7.363s.213-.815,3.484,2.274l2.712,2.535c.164.152.231.517.043.608A13.37,13.37,0,0,1,505.908,726.134Z" transform="translate(-249.666 -601.817)" fill="#fff" stroke="#000" stroke-miterlimit="10" stroke-width="2.083"/>
            <path id="Caminho_5175" data-name="Caminho 5175" d="M493.815,723.724a.365.365,0,0,1,0-.5c.924-.979,4.706-4.937,5.107-4.773s.717-.353.517,3.922c-.1,2.171-.14,3.04-.164,3.533,0,.219-.219.486-.432.438A12.685,12.685,0,0,1,493.815,723.724Z" transform="translate(-245.222 -601.894)" fill="#fff" stroke="#000" stroke-miterlimit="10" stroke-width="2.083"/>
            <path id="Caminho_5176" data-name="Caminho 5176" d="M489.021,713.813a.371.371,0,0,1,.413-.286c1.325.207,6.731,1.113,6.822,1.532s.687.4-2.955,2.639l-3.01,1.824a.48.48,0,0,1-.608-.122A13.365,13.365,0,0,1,489.021,713.813Z" transform="translate(-243.347 -599.966)" fill="#fff" stroke="#000" stroke-miterlimit="10" stroke-width="2.083"/>
            <path id="Caminho_5177" data-name="Caminho 5177" d="M286.17,575.479s9.315-3.861,22.3-.468" transform="translate(-163.87 -545.126)" fill="#fff" stroke="#000" stroke-miterlimit="10" stroke-width="3.125"/>
            <line id="Linha_713" data-name="Linha 713" y1="0.152" x2="17.159" transform="translate(125.291 17.815)" fill="none" stroke="#000" stroke-miterlimit="10" stroke-width="3.125"/>
            <line id="Linha_714" data-name="Linha 714" y1="0.152" x2="17.973" transform="translate(124.817 17.967)" fill="none" stroke="#000" stroke-miterlimit="10" stroke-width="3.125"/>
            <path id="Caminho_5178" data-name="Caminho 5178" d="M290.64,569.222l.529-12.252h16.623l.432,11.218S303.092,572.353,290.64,569.222Z" transform="translate(-165.622 -538.602)" fill="#fff" stroke="#000" stroke-miterlimit="10" stroke-width="2.13"/>
            <path id="Caminho_5179" data-name="Caminho 5179" d="M296.32,546.906v-15.6l11.4.955-.322,14.641Z" transform="translate(-167.849 -528.543)" fill="#fff" stroke="#000" stroke-miterlimit="10" stroke-width="2.13"/>
            <path id="Caminho_5180" data-name="Caminho 5180" d="M330.9,528.766l3.569,12.769-1.265,2.286,2.767,12.829s10.61,2.59,18.606-3.1l-2.687-14.593-2.852-.948L345.87,526.76Z" transform="translate(-182.403 -527.76)" fill="#fff" stroke="#000" stroke-miterlimit="10" stroke-width="1.13"/>
          </g>
          <g id="Frontal" transform="translate(156.362 323.324)">
            <g id="diagonal">
              <g id="braços">
                <path id="Caminho_5181" data-name="Caminho 5181" d="M270.094,568.107c-.316-.079-3.168-1.587-3.168-1.587l-8.233,12.452a9.169,9.169,0,0,0-1.459,3.8c-.231,1.709,0,3.739,2.152,4.469,2.608.888,5.472-5.308,5.472-5.308Z" transform="translate(-257.162 -546.34)" fill="#fff" stroke="#000" stroke-miterlimit="10" stroke-width="3.125"/>
                <path id="Caminho_5182" data-name="Caminho 5182" d="M274.37,553.881l7.138-14.459,3.028-6.092v4.432l-8.214,17.1Z" transform="translate(-263.907 -533.33)" fill="#fff" stroke="#000" stroke-miterlimit="10" stroke-width="3.125"/>
              </g>
            </g>
          </g>
          <g id="Lateral" transform="translate(45.3)">
            <g id="Camada_12" data-name="Camada 12">
              <g id="Camada_11" data-name="Camada 11">
                <path id="Caminho_5183" data-name="Caminho 5183" d="M155.248,319.222s0,8.044,7.333,7.947,122.068-8.81,122.068-8.81l57-1.477s8.05-.5,8.154-9.88,6.336-17.517,6.336-20.472,2.748-8.962-3.362-15.2-10.768-6.08-14.666-12.319-37.813-.8-37.813-.8-13.34-4.986-25.263-4.475-29.131,5.065-41.753,11.4-26.984,8.148-30.657,8.652-11.905,1.125-11.905,1.125,14.039-17.566,14.769-29.939c.48-8.032.407-17.736-9.88-29.842s-28.614-29.027-28.614-29.027-16.028-19.244-18.077-33.812-.413-33.308-1.216-39.722-3.849-14.362-13.231-22.1L130.914,88s-.1-8.348-10.184-17.025L106.873,30.713S102.489,18.084,94.445,9.128,84.668.768,80.083,2.908s-6.615,4.864-5.065,11.3,11.3,52.965,11.3,52.965l3.259,7.619,2.14,37.582.274,19.4a132.16,132.16,0,0,0,2.134,22c1.441,7.9,3.6,18.186,6.251,26.024,4.992,14.763,13.851,37.783,13.851,37.783l21.488,46.082,9.88,20.424a163.026,163.026,0,0,0,1.733,18.849c1.526,9.88,2.037,12.221,2.037,12.221Z" transform="translate(-74.504 -1.57)" fill="#fff" stroke="#000" stroke-miterlimit="10" stroke-width="1.13"/>
                <path id="Caminho_5184" data-name="Caminho 5184" d="M183.813,281.365c7.941-8.871,8.737-26.066,8.737-26.066-.918-28.419-25.537-43.073-44-68.294s-22.613-48.581-23.987-60.8S127,103.59,122.579,88.316s-25.665-14.97-29.021-18.18S76.91,8.61,76.91,8.61" transform="translate(-75.447 -4.33)" fill="none" stroke="#000" stroke-miterlimit="10" stroke-width="1.13"/>
                <path id="Caminho_5185" data-name="Caminho 5185" d="M419.374,488.63s2.882-10.2-4.6-22.874-27.191-22-45.067-24.9-43.541,1.216-66.457,13.589-32.007,9.862-32.007,9.862" transform="translate(-151.619 -173.411)" fill="none" stroke="#000" stroke-miterlimit="10" stroke-width="1.13"/>
                <path id="Caminho_5186" data-name="Caminho 5186" d="M447.624,480.895s-4.177-24.321-30.067-39.9-68.4-3.691-91.277,10.221" transform="translate(-173.193 -170.923)" fill="none" stroke="#000" stroke-miterlimit="10" stroke-width="1.13"/>
                <path id="Caminho_5187" data-name="Caminho 5187" d="M461.48,438.85s38.306.322,39.169.7c0,0,5.5,4.366,7.229,8.743" transform="translate(-226.188 -172.972)" fill="none" stroke="#000" stroke-miterlimit="10" stroke-width="1.13"/>
                <path id="Caminho_5188" data-name="Caminho 5188" d="M201.087,492.03l57.155-2.432,3.216-5.272-8.871-14.185a34.534,34.534,0,0,1-16.022-6.883c-7.029-5.813-6.719-11.607-11.917-15.426a35.508,35.508,0,0,0-6.032-3.5,19.39,19.39,0,0,0-17.876.608c-3.648,2.1-7.187,5.746-9.291,12.033" transform="translate(-120.344 -174.379)" fill="none" stroke="#000" stroke-miterlimit="10" stroke-width="1"/>
                <path id="Caminho_5189" data-name="Caminho 5189" d="M182.714,406.834l1.9,3.143,2.6,1.222,1.885,5.91,7.941,8.859,6.013-2.444V412.318l-3.873-6.719,2.244-4.785-5.3-14.976-16.6-41.145-6.117-11.613H171.07l-11.51,5.2,1.021,13.03,18.332,41.966Z" transform="translate(-107.844 -131.513)" fill="#fff" stroke="#000" stroke-miterlimit="10" stroke-width="3.125"/>
                <path id="Caminho_5190" data-name="Caminho 5190" d="M197.64,450.758l14.222-5.618,2.244,4.384" transform="translate(-122.77 -175.438)" fill="none" stroke="#000" stroke-miterlimit="10" stroke-width="3.125"/>
                <path id="Caminho_5191" data-name="Caminho 5191" d="M204.226,401.216l-4.171-14.562L182.945,345.2l-4.785-9.674,2.542-2.45" transform="translate(-115.134 -131.513)" fill="none" stroke="#000" stroke-miterlimit="10" stroke-width="3.125"/>
                <line id="Linha_715" data-name="Linha 715" y1="6.111" x2="15.073" transform="translate(52.738 213.691)" fill="none" stroke="#000" stroke-miterlimit="10" stroke-width="3.125"/>
                <line id="Linha_716" data-name="Linha 716" y1="5.776" x2="14.222" transform="translate(70.699 255.14)" fill="none" stroke="#000" stroke-miterlimit="10" stroke-width="3.125"/>
                <path id="Caminho_5192" data-name="Caminho 5192" d="M88.91,1.76s19,56.832,20.959,58.517a115.432,115.432,0,0,0,16.5,10.847c7.175,3.8,9.984,13.541,10.184,17.025s-.049,23.938,0,39.066,6.925,34.524,18.685,47.967,35.9,38.342,41.1,47.505,8,21.427,7.029,29.635c-1.07,9.017-5.065,20.15-10.233,24.662,0,0,54.327-6.08,86.948-13.377l25.89-5.29" transform="translate(-80.151 -1.645)" fill="none" stroke="#000" stroke-miterlimit="10" stroke-width="1.13"/>
              </g>
            </g>
          </g>
          <g id="frontal_com_cota" data-name="frontal com cota" transform="translate(0 156.634)">
            <rect id="Retângulo_214" data-name="Retângulo 214" width="33.721" height="10.768" transform="translate(225.116 193.948)" fill="#e6e6e6"/>
            <g id="Agrupar_370" data-name="Agrupar 370" transform="translate(228.904 195.28)">
              <path id="Caminho_5202" data-name="Caminho 5202" d="M380.842,585.177h.9v.967h-.9v1.611h-1.216v-1.611h-3.119l-.036-.73,3.119-4.864h1.246Zm-3.1,0h1.891v-3.04l-.085.164Z" transform="translate(-376.47 -580.428)" fill="#e30613"/>
              <path id="Caminho_5203" data-name="Caminho 5203" d="M390.987,582.35a1.672,1.672,0,0,1-.274.949,1.885,1.885,0,0,1-.742.651,2.062,2.062,0,0,1,.869.724,1.824,1.824,0,0,1,.3,1.034,1.909,1.909,0,0,1-.645,1.514,2.937,2.937,0,0,1-3.441,0,1.891,1.891,0,0,1-.651-1.508,1.824,1.824,0,0,1,.31-1.046,2.049,2.049,0,0,1,.863-.711,1.867,1.867,0,0,1-.736-.651,1.672,1.672,0,0,1-.274-.949,1.9,1.9,0,0,1,.608-1.465,2.669,2.669,0,0,1,3.223,0A1.879,1.879,0,0,1,390.987,582.35Zm-1.046,3.3a1.216,1.216,0,0,0-.322-.869,1.125,1.125,0,0,0-.845-.328,1.1,1.1,0,0,0-.839.328,1.216,1.216,0,0,0-.316.87,1.173,1.173,0,0,0,.31.851,1.319,1.319,0,0,0,1.709,0A1.174,1.174,0,0,0,389.942,585.646Zm-.152-3.247a1.119,1.119,0,0,0-.274-.778.93.93,0,0,0-.736-.3.954.954,0,0,0-.73.286,1.313,1.313,0,0,0,0,1.587,1.064,1.064,0,0,0,1.465,0,1.125,1.125,0,0,0,.292-.79Z" transform="translate(-380.365 -580.35)" fill="#e30613"/>
              <path id="Caminho_5204" data-name="Caminho 5204" d="M398.149,588.027a1.082,1.082,0,0,0,.748-.262.894.894,0,0,0,.316-.651h1.143a1.824,1.824,0,0,1-.316.936,2.1,2.1,0,0,1-.8.687,2.34,2.34,0,0,1-1.082.249,2.3,2.3,0,0,1-1.788-.73,2.894,2.894,0,0,1-.657-2.013v-.128a2.875,2.875,0,0,1,.651-1.964,2.268,2.268,0,0,1,1.788-.736,2.177,2.177,0,0,1,1.563.559,1.994,1.994,0,0,1,.638,1.465h-1.143a1.119,1.119,0,0,0-.31-.76,1.015,1.015,0,0,0-.754-.3,1.064,1.064,0,0,0-.906.426,2.183,2.183,0,0,0-.322,1.289v.195a2.171,2.171,0,0,0,.316,1.3,1.07,1.07,0,0,0,.912.432Z" transform="translate(-384.012 -581.552)" fill="#e30613"/>
              <path id="Caminho_5205" data-name="Caminho 5205" d="M405.957,583.493l.036.559a1.94,1.94,0,0,1,1.55-.657,1.478,1.478,0,0,1,1.471.821,1.921,1.921,0,0,1,1.654-.821,1.666,1.666,0,0,1,1.319.492,2.146,2.146,0,0,1,.444,1.447v3.533h-1.216v-3.5a1.045,1.045,0,0,0-.225-.748.955.955,0,0,0-.742-.243,1,1,0,0,0-.669.225,1.125,1.125,0,0,0-.365.608V588.9H408v-3.539a.863.863,0,0,0-.967-.949,1.058,1.058,0,0,0-1.028.608v3.891H404.79v-5.375Z" transform="translate(-387.571 -581.541)" fill="#e30613"/>
            </g>
            <rect id="Retângulo_215" data-name="Retângulo 215" width="54.072" height="16.623" transform="translate(374.916 179.672)" fill="#e6e6e6"/>
            <g id="Agrupar_371" data-name="Agrupar 371" transform="translate(381.311 181)">
              <path id="Caminho_5206" data-name="Caminho 5206" d="M630.856,556.976v1H630.7a2.377,2.377,0,0,0-1.617.559,2.286,2.286,0,0,0-.718,1.532,1.946,1.946,0,0,1,1.484-.608,1.824,1.824,0,0,1,1.508.675,2.639,2.639,0,0,1,.559,1.709,2.493,2.493,0,0,1-.651,1.788,2.232,2.232,0,0,1-1.7.681,2.177,2.177,0,0,1-1.757-.8,3.18,3.18,0,0,1-.669-2.1V561a4.445,4.445,0,0,1,.924-2.979,3.332,3.332,0,0,1,2.663-1.076Zm-1.3,3.454a1.289,1.289,0,0,0-.73.219,1.349,1.349,0,0,0-.486.608v.365a2.165,2.165,0,0,0,.341,1.277,1.034,1.034,0,0,0,.876.474,1.015,1.015,0,0,0,.845-.4,1.647,1.647,0,0,0,.316-1.058,1.678,1.678,0,0,0-.322-1.064.991.991,0,0,0-.839-.432Z" transform="translate(-627.128 -556.893)" fill="#e30613"/>
              <path id="Caminho_5207" data-name="Caminho 5207" d="M640.511,561.707h.894v.967h-.894v1.611H639.3v-1.611H636.17v-.73l3.119-4.864h1.216Zm-3.1,0H639.3v-3.04l-.091.158Z" transform="translate(-630.672 -556.948)" fill="#e30613"/>
              <path id="Caminho_5208" data-name="Caminho 5208" d="M652.578,564.049H650v-.979h2.6Z" transform="translate(-636.093 -559.296)" fill="#e30613"/>
              <path id="Caminho_5209" data-name="Caminho 5209" d="M664.606,557.693l-2.894,6.561h-1.265l2.888-6.263H659.59V557h5.016Z" transform="translate(-639.852 -556.917)" fill="#e30613"/>
              <path id="Caminho_5210" data-name="Caminho 5210" d="M674.216,564.2h-4.864v-.827l2.432-2.627a5.972,5.972,0,0,0,.742-.973,1.6,1.6,0,0,0,.225-.784,1.216,1.216,0,0,0-.292-.833,1.009,1.009,0,0,0-.784-.316,1.137,1.137,0,0,0-.906.359,1.374,1.374,0,0,0-.322.973H669.23a2.36,2.36,0,0,1,.3-1.186,2.031,2.031,0,0,1,.857-.821,2.669,2.669,0,0,1,1.289-.3,2.432,2.432,0,0,1,1.66.529,1.824,1.824,0,0,1,.608,1.465,2.529,2.529,0,0,1-.3,1.137,6.3,6.3,0,0,1-1,1.344l-1.769,1.9h3.362Z" transform="translate(-643.631 -556.863)" fill="#e30613"/>
              <path id="Caminho_5211" data-name="Caminho 5211" d="M681.125,564.537a1.088,1.088,0,0,0,.748-.261.894.894,0,0,0,.316-.651h1.137a1.775,1.775,0,0,1-.31.936,2.1,2.1,0,0,1-.8.687,2.341,2.341,0,0,1-1.082.249,2.286,2.286,0,0,1-1.788-.73,2.9,2.9,0,0,1-.663-2.013v-.128a2.852,2.852,0,0,1,.657-1.964,2.269,2.269,0,0,1,1.788-.736,2.189,2.189,0,0,1,1.563.559,1.994,1.994,0,0,1,.608,1.465h-1.137a1.094,1.094,0,0,0-.316-.76,1.015,1.015,0,0,0-.748-.3,1.058,1.058,0,0,0-.906.426,2.14,2.14,0,0,0-.322,1.289v.195a2.171,2.171,0,0,0,.316,1.3A1.058,1.058,0,0,0,681.125,564.537Z" transform="translate(-647.336 -558.064)" fill="#e30613"/>
              <path id="Caminho_5212" data-name="Caminho 5212" d="M688.941,560.023l.036.565a1.921,1.921,0,0,1,1.55-.663,1.478,1.478,0,0,1,1.471.821,1.909,1.909,0,0,1,1.648-.821,1.678,1.678,0,0,1,1.326.493,2.146,2.146,0,0,1,.444,1.447V565.4H694.2v-3.5a1.076,1.076,0,0,0-.207-.717.985.985,0,0,0-.742-.243,1,1,0,0,0-.669.225,1.18,1.18,0,0,0-.371.608v3.685H691V561.92a.863.863,0,0,0-.967-.949,1.076,1.076,0,0,0-1.034.608v3.891H687.78V560.1Z" transform="translate(-650.902 -558.061)" fill="#e30613"/>
            </g>
            <g id="Agrupar_372" data-name="Agrupar 372" transform="translate(381.853 189.887)">
              <path id="Caminho_5213" data-name="Caminho 5213" d="M631.048,574.415a1.38,1.38,0,0,1-.45.955,1.545,1.545,0,0,1-1.046.34,1.471,1.471,0,0,1-.8-.219,1.4,1.4,0,0,1-.535-.608,2.276,2.276,0,0,1-.195-.924v-.353a2.249,2.249,0,0,1,.188-.955,1.441,1.441,0,0,1,.553-.608,1.544,1.544,0,0,1,.827-.225,1.471,1.471,0,0,1,1.015.347,1.423,1.423,0,0,1,.444.967h-.657a.918.918,0,0,0-.243-.608.9.9,0,0,0-1.228.134,1.635,1.635,0,0,0-.237.93v.334a1.708,1.708,0,0,0,.225.949.736.736,0,0,0,.645.322.875.875,0,0,0,.608-.176.93.93,0,0,0,.249-.608Z" transform="translate(-628.019 -571.612)" fill="#e30613"/>
              <path id="Caminho_5214" data-name="Caminho 5214" d="M635.531,576.279a.809.809,0,0,1-.073-.261.979.979,0,0,1-.742.316,1,1,0,0,1-.7-.243.772.772,0,0,1-.267-.608.809.809,0,0,1,.334-.7,1.66,1.66,0,0,1,.961-.237h.4v-.17a.45.45,0,0,0-.5-.486.56.56,0,0,0-.359.109.341.341,0,0,0-.14.28h-.608a.7.7,0,0,1,.152-.438,1.009,1.009,0,0,1,.419-.316,1.447,1.447,0,0,1,.608-.116,1.161,1.161,0,0,1,.79.249.876.876,0,0,1,.3.7v1.283a1.411,1.411,0,0,0,.109.608v.043Zm-.7-.456a.712.712,0,0,0,.353-.091.608.608,0,0,0,.255-.249v-.535h-.322a.894.894,0,0,0-.529.128.389.389,0,0,0-.182.347.383.383,0,0,0,.122.292.486.486,0,0,0,.3.109Z" transform="translate(-630.265 -572.235)" fill="#e30613"/>
              <path id="Caminho_5215" data-name="Caminho 5215" d="M638.469,574.088a1.69,1.69,0,0,1,.322-1.076.961.961,0,0,1,.815-.4.924.924,0,0,1,.73.31V571.48h.608V575.5h-.578l-.03-.292a.942.942,0,0,1-.766.347.967.967,0,0,1-.8-.4A1.739,1.739,0,0,1,638.469,574.088Zm.608.055a1.215,1.215,0,0,0,.164.675.547.547,0,0,0,.474.243.608.608,0,0,0,.572-.353v-1.216a.608.608,0,0,0-.565-.341.535.535,0,0,0-.474.249,1.264,1.264,0,0,0-.14.742Z" transform="translate(-632.114 -571.48)" fill="#e30613"/>
              <path id="Caminho_5216" data-name="Caminho 5216" d="M644.825,576.325a1.307,1.307,0,0,1-.979-.383,1.374,1.374,0,0,1-.377-1.015v-.079a1.678,1.678,0,0,1,.164-.754,1.246,1.246,0,0,1,.462-.523,1.217,1.217,0,0,1,.657-.182,1.107,1.107,0,0,1,.894.365,1.557,1.557,0,0,1,.316,1.046v.255h-1.824a.876.876,0,0,0,.231.559.717.717,0,0,0,.517.2.851.851,0,0,0,.711-.353l.347.328a1.15,1.15,0,0,1-.456.4,1.448,1.448,0,0,1-.663.14Zm-.073-2.432a.541.541,0,0,0-.426.182.936.936,0,0,0-.207.511h1.216v-.049a.808.808,0,0,0-.17-.48.535.535,0,0,0-.413-.158Z" transform="translate(-634.074 -572.227)" fill="#e30613"/>
              <path id="Caminho_5217" data-name="Caminho 5217" d="M648.38,572.04a.353.353,0,0,1,.1-.243.371.371,0,0,1,.267-.1.377.377,0,0,1,.268.1.371.371,0,0,1,0,.486.377.377,0,0,1-.268.091.365.365,0,0,1-.268-.091A.353.353,0,0,1,648.38,572.04Zm.681,3.569h-.608v-2.833h.608Z" transform="translate(-636 -571.566)" fill="#e30613"/>
              <path id="Caminho_5218" data-name="Caminho 5218" d="M652.128,574.038a1.815,1.815,0,0,0-.261,0,.608.608,0,0,0-.608.341v1.933h-.608v-2.833h.608v.316a.717.717,0,0,1,.638-.365.609.609,0,0,1,.225.036Z" transform="translate(-636.89 -572.244)" fill="#e30613"/>
              <path id="Caminho_5219" data-name="Caminho 5219" d="M655.241,576.279a1.331,1.331,0,0,1-.073-.261.979.979,0,0,1-.742.316,1,1,0,0,1-.7-.243.8.8,0,0,1-.267-.608.809.809,0,0,1,.334-.7,1.673,1.673,0,0,1,.967-.237h.389v-.17a.444.444,0,0,0-.5-.486.572.572,0,0,0-.359.109.341.341,0,0,0-.14.28h-.608a.7.7,0,0,1,.152-.438,1.01,1.01,0,0,1,.42-.316,1.467,1.467,0,0,1,.608-.116,1.155,1.155,0,0,1,.79.249.857.857,0,0,1,.3.7v1.283a1.41,1.41,0,0,0,.109.608v.042Zm-.7-.456a.749.749,0,0,0,.359-.091.608.608,0,0,0,.249-.249v-.535H654.8a.905.905,0,0,0-.529.128.383.383,0,0,0-.176.347.359.359,0,0,0,.122.292.462.462,0,0,0,.322.109Z" transform="translate(-637.991 -572.235)" fill="#e30613"/>
              <path id="Caminho_5220" data-name="Caminho 5220" d="M661.17,573.438v.328a1.009,1.009,0,0,1,.827-.377c.608,0,.888.334.9,1.009v1.873h-.608v-1.824a.571.571,0,0,0-.116-.4.48.48,0,0,0-.383-.134.608.608,0,0,0-.572.353v2.013h-.638V573.45Z" transform="translate(-640.782 -572.228)" fill="#e30613"/>
              <path id="Caminho_5221" data-name="Caminho 5221" d="M665.289,574.83a1.649,1.649,0,0,1,.164-.748,1.216,1.216,0,0,1,.462-.517,1.3,1.3,0,0,1,.687-.176,1.216,1.216,0,0,1,.93.365,1.447,1.447,0,0,1,.389.985v.146a1.732,1.732,0,0,1-.158.748,1.217,1.217,0,0,1-.462.511,1.314,1.314,0,0,1-.693.182,1.216,1.216,0,0,1-.961-.4,1.545,1.545,0,0,1-.359-1.064Zm.638.055a1.137,1.137,0,0,0,.176.687.608.608,0,0,0,.5.243.565.565,0,0,0,.5-.249,1.252,1.252,0,0,0,.182-.736,1.143,1.143,0,0,0-.182-.681.628.628,0,0,0-1-.006,1.247,1.247,0,0,0-.182.742Z" transform="translate(-642.627 -572.228)" fill="#e30613"/>
              <path id="Caminho_5222" data-name="Caminho 5222" d="M673.345,573.436v.3a1.015,1.015,0,0,1,.815-.347.778.778,0,0,1,.778.432,1,1,0,0,1,.87-.432.888.888,0,0,1,.7.255,1.173,1.173,0,0,1,.237.766v1.861h-.608v-1.824a.536.536,0,0,0-1.058-.091v1.94h-.608v-1.861a.456.456,0,0,0-.511-.5.553.553,0,0,0-.541.316v2.049h-.608V573.46Z" transform="translate(-645.576 -572.226)" fill="#e30613"/>
              <path id="Caminho_5223" data-name="Caminho 5223" d="M681.1,575.551h-.608v-2.833h.608Zm-.122-4h.724l-.724.79h-.511Z" transform="translate(-648.578 -571.507)" fill="#e30613"/>
              <path id="Caminho_5224" data-name="Caminho 5224" d="M683.29,573.438v.328a1.015,1.015,0,0,1,.827-.377c.608,0,.888.334.9,1.009v1.873h-.608v-1.824a.572.572,0,0,0-.116-.4.48.48,0,0,0-.383-.134.608.608,0,0,0-.572.353v2.013H682.7V573.45Z" transform="translate(-649.452 -572.228)" fill="#e30613"/>
              <path id="Caminho_5225" data-name="Caminho 5225" d="M687.61,572.04a.346.346,0,0,1,.091-.243.371.371,0,0,1,.267-.1.377.377,0,0,1,.268.1.371.371,0,0,1,0,.486.377.377,0,0,1-.268.091.365.365,0,0,1-.267-.091.347.347,0,0,1-.091-.243Zm.675,3.569h-.638v-2.833h.638Z" transform="translate(-651.377 -571.566)" fill="#e30613"/>
              <path id="Caminho_5226" data-name="Caminho 5226" d="M690.479,573.436v.3a1.034,1.034,0,0,1,.821-.347.778.778,0,0,1,.778.432,1,1,0,0,1,.87-.432.906.906,0,0,1,.7.255,1.174,1.174,0,0,1,.231.766v1.861h-.638v-1.824a.571.571,0,0,0-.115-.4.511.511,0,0,0-.389-.128.535.535,0,0,0-.359.122.608.608,0,0,0-.188.3v1.94h-.608v-1.861a.45.45,0,0,0-.5-.5.566.566,0,0,0-.547.316v2.049h-.608v-2.833Z" transform="translate(-652.283 -572.226)" fill="#e30613"/>
              <path id="Caminho_5227" data-name="Caminho 5227" d="M697.339,574.83a1.648,1.648,0,0,1,.164-.748,1.216,1.216,0,0,1,.462-.517,1.3,1.3,0,0,1,.687-.176,1.216,1.216,0,0,1,.93.365,1.447,1.447,0,0,1,.389.985v.146a1.648,1.648,0,0,1-.158.748,1.217,1.217,0,0,1-.462.511,1.314,1.314,0,0,1-.693.182,1.216,1.216,0,0,1-.961-.4,1.545,1.545,0,0,1-.359-1.064Zm.608.055a1.216,1.216,0,0,0,.176.687.64.64,0,0,0,1.009-.006,1.3,1.3,0,0,0,.176-.736,1.143,1.143,0,0,0-.182-.681.628.628,0,0,0-1-.006,1.246,1.246,0,0,0-.152.742Z" transform="translate(-655.19 -572.228)" fill="#e30613"/>
            </g>
            <rect id="Retângulo_216" data-name="Retângulo 216" width="51.774" height="10.768" fill="#e6e6e6"/>
            <g id="Agrupar_373" data-name="Agrupar 373" transform="translate(13.375 1.328)">
              <path id="Caminho_5228" data-name="Caminho 5228" d="M26.6,263.374a1.666,1.666,0,0,1-.274.942,1.872,1.872,0,0,1-.748.657,2.067,2.067,0,0,1,.876.717,1.824,1.824,0,0,1,.3,1.034,1.891,1.891,0,0,1-.645,1.514,2.548,2.548,0,0,1-1.721.559,2.566,2.566,0,0,1-1.727-.559A1.909,1.909,0,0,1,22,266.724a1.824,1.824,0,0,1,.3-1.04,1.946,1.946,0,0,1,.912-.711,1.824,1.824,0,0,1-.742-.657,1.709,1.709,0,0,1-.268-.942,1.861,1.861,0,0,1,.608-1.465,2.274,2.274,0,0,1,1.605-.541,2.292,2.292,0,0,1,1.617.541A1.879,1.879,0,0,1,26.6,263.374Zm-1.046,3.289a1.216,1.216,0,0,0-.322-.863,1.137,1.137,0,0,0-.845-.334,1.125,1.125,0,0,0-.845.328,1.216,1.216,0,0,0-.316.869,1.161,1.161,0,0,0,.31.851,1.137,1.137,0,0,0,.857.316,1.064,1.064,0,0,0,1.161-1.167Zm-.158-3.247a1.125,1.125,0,0,0-.274-.778,1.052,1.052,0,0,0-1.465,0,1.131,1.131,0,0,0-.268.79,1.107,1.107,0,0,0,.274.79.942.942,0,0,0,.73.292.955.955,0,0,0,.736-.292,1.131,1.131,0,0,0,.268-.8Z" transform="translate(-21.998 -261.364)" fill="#e30613"/>
              <path id="Caminho_5229" data-name="Caminho 5229" d="M35.35,261.465v1H35.2a2.432,2.432,0,0,0-1.623.553,2.353,2.353,0,0,0-.717,1.532,1.958,1.958,0,0,1,1.484-.608,1.861,1.861,0,0,1,1.514.675,2.657,2.657,0,0,1,.553,1.745,2.432,2.432,0,0,1-.651,1.782,2.232,2.232,0,0,1-1.7.687,2.183,2.183,0,0,1-1.757-.8,3.119,3.119,0,0,1-.675-2.092v-.413a4.4,4.4,0,0,1,.93-2.979,3.3,3.3,0,0,1,2.663-1.082Zm-1.3,3.454a1.258,1.258,0,0,0-.73.225,1.289,1.289,0,0,0-.48.608v.365a2.171,2.171,0,0,0,.334,1.283,1.07,1.07,0,0,0,1.727.073,1.964,1.964,0,0,0,0-2.128,1.015,1.015,0,0,0-.851-.426Z" transform="translate(-25.772 -261.401)" fill="#e30613"/>
              <path id="Caminho_5230" data-name="Caminho 5230" d="M43.285,269.012a1.094,1.094,0,0,0,.754-.261.906.906,0,0,0,.316-.651h1.137a1.775,1.775,0,0,1-.286.912,2.085,2.085,0,0,1-.8.687,2.347,2.347,0,0,1-1.082.255,2.286,2.286,0,0,1-1.788-.73,2.888,2.888,0,0,1-.663-2.019v-.122a2.827,2.827,0,0,1,.657-1.964,2.274,2.274,0,0,1,1.788-.742,2.219,2.219,0,0,1,1.563.559,2,2,0,0,1,.608,1.471H44.355a1.076,1.076,0,0,0-.316-.76,1.009,1.009,0,0,0-.754-.3,1.064,1.064,0,0,0-.9.42,2.152,2.152,0,0,0-.322,1.289v.195a2.244,2.244,0,0,0,.31,1.307A1.064,1.064,0,0,0,43.285,269.012Z" transform="translate(-29.396 -262.544)" fill="#e30613"/>
              <path id="Caminho_5231" data-name="Caminho 5231" d="M51.119,264.519v.559a1.921,1.921,0,0,1,1.55-.663,1.49,1.49,0,0,1,1.478.827,1.891,1.891,0,0,1,1.648-.827,1.684,1.684,0,0,1,1.325.492,2.2,2.2,0,0,1,.444,1.453v3.527H56.348v-3.5a1.076,1.076,0,0,0-.219-.748,1,1,0,0,0-.742-.237,1.022,1.022,0,0,0-.675.219,1.216,1.216,0,0,0-.365.578v3.685H53.131v-3.533a.857.857,0,0,0-.967-.949,1.058,1.058,0,0,0-.949.578v3.891H50v-5.369Z" transform="translate(-32.974 -262.557)" fill="#e30613"/>
            </g>
            <rect id="Retângulo_217" data-name="Retângulo 217" width="51.774" height="10.768" transform="translate(335.126 226.435)" fill="#e6e6e6"/>
            <g id="Agrupar_374" data-name="Agrupar 374" transform="translate(339.028 227.767)">
              <path id="Caminho_5232" data-name="Caminho 5232" d="M559.158,636.955h.73a1.326,1.326,0,0,0,.882-.292,1.022,1.022,0,0,0,.328-.815,1.107,1.107,0,0,0-.274-.8,1.07,1.07,0,0,0-.827-.286,1.137,1.137,0,0,0-.8.28.948.948,0,0,0-.316.73h-1.216a1.788,1.788,0,0,1,.3-1.009,2.012,2.012,0,0,1,.821-.717,2.692,2.692,0,0,1,1.186-.255,2.481,2.481,0,0,1,1.7.547,1.9,1.9,0,0,1,.608,1.514,1.526,1.526,0,0,1-.31.912,1.958,1.958,0,0,1-.8.651,1.672,1.672,0,0,1,1.216,1.684,1.945,1.945,0,0,1-.669,1.55,2.614,2.614,0,0,1-1.757.572,2.578,2.578,0,0,1-1.709-.553,1.824,1.824,0,0,1-.663-1.477h1.216a1.016,1.016,0,0,0,.322.772,1.216,1.216,0,0,0,.857.3,1.252,1.252,0,0,0,.888-.3,1.313,1.313,0,0,0,0-1.745,1.465,1.465,0,0,0-1-.3h-.705Z" transform="translate(-557.588 -633.781)" fill="#e30613"/>
              <path id="Caminho_5233" data-name="Caminho 5233" d="M571.918,635.78a1.672,1.672,0,0,1-.274.949,1.88,1.88,0,0,1-.742.651,2.1,2.1,0,0,1,.869.724,1.824,1.824,0,0,1,.3,1.034,1.909,1.909,0,0,1-.645,1.514,2.949,2.949,0,0,1-3.447,0,2.031,2.031,0,0,1-.341-2.554,2.067,2.067,0,0,1,.869-.711,1.824,1.824,0,0,1-.742-.651,1.715,1.715,0,0,1-.268-.948,1.879,1.879,0,0,1,.608-1.465,2.669,2.669,0,0,1,3.223,0A1.9,1.9,0,0,1,571.918,635.78Zm-1.046,3.3a1.216,1.216,0,0,0-.322-.87,1.253,1.253,0,0,0-1.69,0,1.216,1.216,0,0,0-.316.869,1.174,1.174,0,0,0,.31.851,1.161,1.161,0,0,0,2.019-.851Zm-.158-3.247a1.118,1.118,0,0,0-.274-.778.924.924,0,0,0-.736-.3.954.954,0,0,0-.73.292,1.289,1.289,0,0,0,0,1.581,1.064,1.064,0,0,0,1.465,0A1.143,1.143,0,0,0,570.714,635.829Z" transform="translate(-561.41 -633.78)" fill="#e30613"/>
              <path id="Caminho_5234" data-name="Caminho 5234" d="M583.318,640.961H580.71V640h2.608Z" transform="translate(-566.651 -636.218)" fill="#e30613"/>
              <path id="Caminho_5235" data-name="Caminho 5235" d="M594.606,638.607h.9v.973h-.9v1.605H593.39V639.58h-3.113l-.036-.736,3.119-4.864h1.216Zm-3.095,0H593.4v-3.04l-.091.158Z" transform="translate(-570.387 -633.858)" fill="#e30613"/>
              <path id="Caminho_5236" data-name="Caminho 5236" d="M604.746,635.78a1.672,1.672,0,0,1-.274.949,1.855,1.855,0,0,1-.766.651,2.116,2.116,0,0,1,.876.724,1.823,1.823,0,0,1,.3,1.034,1.909,1.909,0,0,1-.644,1.514,2.949,2.949,0,0,1-3.448,0,1.947,1.947,0,0,1,.523-3.265,1.861,1.861,0,0,1-.736-.651,1.667,1.667,0,0,1-.268-.949,1.879,1.879,0,0,1,.608-1.465,2.669,2.669,0,0,1,3.223,0,1.9,1.9,0,0,1,.6,1.459Zm-1.04,3.3a1.216,1.216,0,0,0-.322-.87,1.253,1.253,0,0,0-1.69,0,1.216,1.216,0,0,0-.316.869,1.173,1.173,0,0,0,.31.851,1.161,1.161,0,0,0,2.019-.851Zm-.158-3.247a1.119,1.119,0,0,0-.274-.778.924.924,0,0,0-.736-.3.954.954,0,0,0-.73.292,1.289,1.289,0,0,0,0,1.581.942.942,0,0,0,.73.292.954.954,0,0,0,.736-.292,1.143,1.143,0,0,0,.268-.79Z" transform="translate(-574.271 -633.78)" fill="#e30613"/>
              <path id="Caminho_5237" data-name="Caminho 5237" d="M611.909,641.437a1.094,1.094,0,0,0,.754-.261.918.918,0,0,0,.316-.651h1.137a1.775,1.775,0,0,1-.31.936,2.1,2.1,0,0,1-.8.687,2.342,2.342,0,0,1-1.082.249,2.287,2.287,0,0,1-1.788-.73,2.87,2.87,0,0,1-.663-2.013v-.128a2.852,2.852,0,0,1,.657-1.964,2.268,2.268,0,0,1,1.788-.736,2.22,2.22,0,0,1,1.563.559,2,2,0,0,1,.608,1.465h-1.137a1.094,1.094,0,0,0-.316-.76,1.021,1.021,0,0,0-.754-.3,1.052,1.052,0,0,0-.9.426,2.14,2.14,0,0,0-.322,1.289v.195a2.17,2.17,0,0,0,.316,1.3A1.052,1.052,0,0,0,611.909,641.437Z" transform="translate(-577.925 -634.974)" fill="#e30613"/>
              <path id="Caminho_5238" data-name="Caminho 5238" d="M619.7,636.933v.565a1.94,1.94,0,0,1,1.55-.663,1.49,1.49,0,0,1,1.477.827,1.9,1.9,0,0,1,1.648-.827,1.678,1.678,0,0,1,1.326.493,2.147,2.147,0,0,1,.444,1.447v3.533h-1.216v-3.5a1.075,1.075,0,0,0-.219-.748.985.985,0,0,0-.742-.243,1.028,1.028,0,0,0-.675.225,1.216,1.216,0,0,0-.365.578v3.685h-1.216v-3.551a.87.87,0,0,0-.973-.955,1.064,1.064,0,0,0-1.028.608V642.3H618.5v-5.369Z" transform="translate(-581.464 -634.975)" fill="#e30613"/>
            </g>
            <rect id="Retângulo_218" data-name="Retângulo 218" width="32.426" height="10.768" transform="translate(347.883 133.626)" fill="#e6e6e6"/>
            <g id="Agrupar_375" data-name="Agrupar 375" transform="translate(352.236 135.049)">
              <path id="Caminho_5239" data-name="Caminho 5239" d="M582.3,488.526h-1.216v-5.813l-1.775.608v-.991l2.821-1.04h.158Z" transform="translate(-579.31 -481.29)" fill="#e30613"/>
              <path id="Caminho_5240" data-name="Caminho 5240" d="M591.8,488.526h-1.216v-5.813l-1.775.608v-.991l2.821-1.04h.152Z" transform="translate(-583.034 -481.29)" fill="#e30613"/>
              <path id="Caminho_5241" data-name="Caminho 5241" d="M600.055,488.793a1.1,1.1,0,0,0,.748-.268.882.882,0,0,0,.316-.651h1.137a1.757,1.757,0,0,1-.31.936,2,2,0,0,1-.8.687,2.348,2.348,0,0,1-1.082.255,2.286,2.286,0,0,1-1.788-.73,2.912,2.912,0,0,1-.663-2.019v-.122a2.84,2.84,0,0,1,.657-1.964,2.274,2.274,0,0,1,1.788-.742,2.22,2.22,0,0,1,1.563.559,2.012,2.012,0,0,1,.608,1.471h-1.137a1.076,1.076,0,0,0-.316-.76.991.991,0,0,0-.748-.3,1.058,1.058,0,0,0-.906.426,2.128,2.128,0,0,0-.322,1.289v.189a2.2,2.2,0,0,0,.316,1.307,1.058,1.058,0,0,0,.936.432Z" transform="translate(-586.484 -482.421)" fill="#e30613"/>
              <path id="Caminho_5242" data-name="Caminho 5242" d="M607.84,484.279v.559a1.958,1.958,0,0,1,1.55-.663,1.49,1.49,0,0,1,1.478.827,1.915,1.915,0,0,1,1.648-.827,1.678,1.678,0,0,1,1.325.492,2.158,2.158,0,0,1,.444,1.453v3.533h-1.216v-3.5a1.094,1.094,0,0,0-.225-.754.985.985,0,0,0-.742-.237,1.022,1.022,0,0,0-.675.219,1.216,1.216,0,0,0-.365.608v3.685h-1.216V486.14a.863.863,0,0,0-.973-.948,1.058,1.058,0,0,0-1.028.608v3.9H606.63v-5.375Z" transform="translate(-590.019 -482.419)" fill="#e30613"/>
            </g>
          </g>
          <path id="Caminho_5243" data-name="Caminho 5243" d="M370.675,510.644s-.4,19.828.608,20.339,1.678,2.116,12.5,1.149,9.534-1.028,11.285-1.824-1.593-21.767-1.593-21.767-1.854,1.319-8.549,1.514-12.769.371-13.711-.03S370.675,510.644,370.675,510.644Z" transform="translate(-145.261 -200.289)" fill="#fff" stroke="#000" stroke-miterlimit="10" stroke-width="1.31"/>
          <path id="Caminho_5244" data-name="Caminho 5244" d="M393.1,502.6l-.693-9.272-18.995.547.3,10.379S390.794,504.682,393.1,502.6Z" transform="translate(-146.367 -194.327)" fill="#fff" stroke="#000" stroke-miterlimit="10" stroke-width="1.31"/>
          <path id="Caminho_5245" data-name="Caminho 5245" d="M346.813,437.859l22.88-.663-3.235-59.739,16.222-14.179,35.57-2.645-.122-4.208-9.9-6.2-9.06.261L356.7,353.44,321.9,356.5l-10.282,6.877.122,4.11,10.58-.091,18.8,11.662Z" transform="translate(-122.147 -138.236)" fill="#fff" stroke="#000" stroke-miterlimit="10" stroke-width="1.31"/>
          <line id="Linha_729" data-name="Linha 729" y1="2" x2="43.851" transform="translate(208.419 232.266)" fill="none" stroke="#000" stroke-miterlimit="10" stroke-width="1.31"/>
          <path id="Caminho_5246" data-name="Caminho 5246" d="M311.62,367.37l100.689-6.244,5.819-.705" transform="translate(-122.147 -142.23)" fill="#fff" stroke="#000" stroke-miterlimit="10" stroke-width="1.31"/>
          <line id="Linha_730" data-name="Linha 730" y1="4.116" x2="60.359" transform="translate(200.175 225.043)" fill="none" stroke="#000" stroke-miterlimit="10" stroke-width="1.31"/>
          <path id="Caminho_5247" data-name="Caminho 5247" d="M261.26,470.339l14.945-2.079,1.253,4.755-10.276,1.861-2.079-1.082a30.324,30.324,0,0,1-2.572-2Z" transform="translate(-102.407 -184.5)" fill="#fff" stroke="#000" stroke-miterlimit="10" stroke-width="1.13"/>
          <path id="Caminho_5248" data-name="Caminho 5248" d="M285.1,464.02l24.868-2.14,4.505,8.324s-1.149-.237-3.977,1.447-3.8-.377-6.111-.76-4.353,1.988-6.33,1.757-2.371-2.213-5.071-1.988-3.7,2.481-4.986,2.007S285.1,464.02,285.1,464.02Z" transform="translate(-111.752 -181.999)" fill="#fff" stroke="#000" stroke-linejoin="round" stroke-width="1.13"/>
        </g>
      </g>
    </g>
  </g>
</svg>
