<svg xmlns="http://www.w3.org/2000/svg" xmlns:xlink="http://www.w3.org/1999/xlink" width="189" height="189" viewBox="0 0 189 189">
  <defs>
    <clipPath id="clip-path">
      <circle id="Elipse_91" data-name="Elipse 91" cx="93.202" cy="93.202" r="93.202" transform="translate(301 2000)" fill="#fff" stroke="#707070" stroke-width="0.4"/>
    </clipPath>
  </defs>
  <g id="Agrupar_377" data-name="Agrupar 377" transform="translate(-209 -1995)">
    <g id="Elipse_90" data-name="Elipse 90" transform="translate(209 1995)" fill="#fff" stroke="#707070" stroke-width="1">
      <circle cx="94.5" cy="94.5" r="94.5" stroke="none"/>
      <circle cx="94.5" cy="94.5" r="94" fill="none"/>
    </g>
    <g id="Grupo_de_máscara_13" data-name="Grupo de máscara 13" transform="translate(-90.702 -3.702)" clip-path="url(#clip-path)">
      <g id="Pandora_diagonal_2DT3_" data-name="Pandora diagonal_2DT3 " transform="translate(249.936 1785.039)">
        <g id="Camada_3" data-name="Camada 3" transform="translate(1.037 1.495)">
          <g id="base" transform="translate(0 392.763)">
            <path id="Caminho_5006" data-name="Caminho 5006" d="M214.66,728.14v23.543h9.863V728.389" transform="translate(-58.472 -589.626)" fill="#fff" stroke="#000" stroke-miterlimit="10" stroke-width="2.076"/>
            <path id="Caminho_5007" data-name="Caminho 5007" d="M212.038,733.87h-5.484a70.79,70.79,0,0,0-1.638,16.319c.124,9.227,1.638,14.352,1.638,14.352h5.191Z" transform="translate(-55.85 -591.167)" fill="#fff" stroke="#000" stroke-miterlimit="10" stroke-width="2.076"/>
            <path id="Caminho_5008" data-name="Caminho 5008" d="M228.15,733.87h5.462a70.79,70.79,0,0,1,1.638,16.319c-.117,9.227-1.638,14.352-1.638,14.352h-5.191Z" transform="translate(-62.099 -591.167)" fill="#fff" stroke="#000" stroke-miterlimit="10" stroke-width="2.076"/>
            <path id="Caminho_5009" data-name="Caminho 5009" d="M109.378,655.93s-8.993,1.009-9.11,2.193-4.387,23.528,4.555,23.4,14.988-2.464,15.559-3.882S109.378,655.93,109.378,655.93Z" transform="translate(-27.415 -570.211)" fill="#fff" stroke="#000" stroke-miterlimit="10" stroke-width="3.114"/>
            <path id="Caminho_5010" data-name="Caminho 5010" d="M326.837,654s4.716.19,7.085,1.265a14.131,14.131,0,0,1,4.138,3.042s-2.018,19.66-3.217,20.421-6.324,1.323-14.8,0,.885-24.128.885-24.128Z" transform="translate(-85.851 -569.692)" fill="#fff" stroke="#000" stroke-miterlimit="10" stroke-width="3.114"/>
            <path id="Caminho_5011" data-name="Caminho 5011" d="M156.472,667.212l1.769,33.632,9.607,2.807,9.614-2.025,1.769-34.4s3.795-2.537,16.948-1.016,99.435,8.854,99.435,8.854v2.267s5.564,1.272,8.35,1.521a21.553,21.553,0,0,0,4.555,0l4.292-1.521-.877-14.418-40.615-8.247-35.665-6.712,9.987-.6.731,1.389,3.539-1.389-.475-8.774L244.384,632l-60.977,3.034-31.366.731-40.6-1.265-1.389-1.016-16.443-.731-3.656.892-3.3,5.184-.629,1.513v8.606l10.236.5-32.382,6.741-2.274-.643L26.7,662.642l-.877,1.009-1.777.731-.731,15.807,13.16.731,4.043-2.025-.249-2.15L148.408,666S154.951,664.9,156.472,667.212Z" transform="translate(-7.025 -563.778)" fill="#fff" stroke="#000" stroke-miterlimit="10" stroke-width="3.114"/>
            <line id="Linha_687" data-name="Linha 687" x1="58.688" y2="11.998" transform="translate(89.238 73.721)" fill="none" stroke="#000" stroke-miterlimit="10" stroke-width="2"/>
            <line id="Linha_688" data-name="Linha 688" x2="54.448" y2="10.923" transform="translate(174.181 73.275)" fill="none" stroke="#000" stroke-miterlimit="10" stroke-width="2"/>
            <path id="Caminho_5012" data-name="Caminho 5012" d="M207.15,710.685l6.083-5.535H221.2l6.237,5.535" transform="translate(-56.453 -583.445)" fill="#fff" stroke="#000" stroke-miterlimit="10" stroke-width="3.114"/>
            <path id="Caminho_5013" data-name="Caminho 5013" d="M207.15,691.254l6.339-5.564h7.969l5.981,5.564" transform="translate(-56.453 -578.213)" fill="#fff" stroke="#000" stroke-miterlimit="10" stroke-width="3.114"/>
            <line id="Linha_689" data-name="Linha 689" x1="0.124" y1="45.345" transform="translate(156.656 76.36)" fill="none" stroke="#000" stroke-miterlimit="10" stroke-width="2"/>
            <line id="Linha_690" data-name="Linha 690" x1="0.132" y2="45.345" transform="translate(164.75 76.36)" fill="none" stroke="#000" stroke-miterlimit="10" stroke-width="2"/>
            <line id="Linha_691" data-name="Linha 691" x1="46.054" y2="3.093" transform="translate(196.357 74.847)" fill="none" stroke="#000" stroke-miterlimit="10" stroke-width="2"/>
            <line id="Linha_692" data-name="Linha 692" x2="4.197" y2="6.931" transform="translate(220.528 69.107)" fill="none" stroke="#000" stroke-miterlimit="10" stroke-width="3.114"/>
            <path id="Caminho_5014" data-name="Caminho 5014" d="M416.245,674.27l-4.935,4.935v11.106" transform="translate(-111.344 -575.142)" fill="#fff" stroke="#000" stroke-miterlimit="10" stroke-width="1.038"/>
            <path id="Caminho_5015" data-name="Caminho 5015" d="M236.53,673.719s-.936-14.93,2.1-16.575,13.585-.629,13.585-.629l112.069,17.818" transform="translate(-64.315 -570.285)" fill="none" stroke="#000" stroke-miterlimit="10" stroke-width="2"/>
            <path id="Caminho_5016" data-name="Caminho 5016" d="M156.741,673.41s1.265-18.1,0-18.344-25.926,3.656-25.926,3.656L62,671.633l-32.382,6.449-5.308-7.458" transform="translate(-7.294 -569.976)" fill="none" stroke="#000" stroke-miterlimit="10" stroke-width="2"/>
            <line id="Linha_693" data-name="Linha 693" x2="4.241" y2="8.028" transform="translate(56.856 92.43)" fill="none" stroke="#000" stroke-miterlimit="10" stroke-width="3.114"/>
            <path id="Caminho_5017" data-name="Caminho 5017" d="M109.94,639.445l17.335,1.777,4.043-5.952,2.025-1.141" transform="translate(-30.317 -564.35)" fill="#fff" stroke="#000" stroke-miterlimit="10" stroke-width="3.114"/>
            <line id="Linha_694" data-name="Linha 694" x1="23.608" y1="2.442" transform="translate(96.959 76.872)" fill="none" stroke="#000" stroke-miterlimit="10" stroke-width="2"/>
            <path id="Caminho_5018" data-name="Caminho 5018" d="M199.38,622.086s7.911,3.977,16,3.977a35.365,35.365,0,0,0,14.732-3.473l-1.462-41.741s-8.423,3.224-13.892,3.224-13.848-.373-13.848-2.274S199.38,622.086,199.38,622.086Z" transform="translate(-54.364 -550.025)" fill="#fff" stroke="#000" stroke-linejoin="round" stroke-width="3.114"/>
            <path id="Caminho_5019" data-name="Caminho 5019" d="M202.313,581.257c2.193-.731,9.863-2.588,27.111-.731,0,0-8.042,3.217-12.9,3.188-4.665,0-9.4,1.177-14.316-1.857a.336.336,0,0,1-.11-.468A.329.329,0,0,1,202.313,581.257Z" transform="translate(-55.081 -549.723)" fill="#fff" stroke="#000" stroke-linejoin="round" stroke-width="1.038"/>
            <path id="Caminho_5020" data-name="Caminho 5020" d="M205.65,578.917l.643-14.667H226.21l.519,13.431S220.58,582.682,205.65,578.917Z" transform="translate(-56.049 -545.562)" fill="#fff" stroke="#000" stroke-miterlimit="10" stroke-width="3.114"/>
            <path id="Caminho_5021" data-name="Caminho 5021" d="M211.32,557.378V538.69l13.658,1.141-.373,17.547Z" transform="translate(-57.574 -538.69)" fill="#fff" stroke="#000" stroke-miterlimit="10" stroke-width="3.114"/>
            <path id="Caminho_5022" data-name="Caminho 5022" d="M29.722,699.388l.812,16.319s.987,15.3-13.972,15.3c-7.538,0-11.493-4.021-13.57-8.042a17.335,17.335,0,0,1-.183-15.632,12.7,12.7,0,0,1,8.569-7.1s5.666-.958,8.861.731a.665.665,0,0,0,.892-.278.731.731,0,0,0,.073-.358l-.1-1.521Z" transform="translate(-1.037 -581.74)" fill="#fff" stroke="#000" stroke-miterlimit="10" stroke-width="2.076"/>
            <path id="Caminho_5023" data-name="Caminho 5023" d="M1.451,719.878S-.94,707.515,11.306,702.85c7.114-2.705,15.617,2,17.679,7.224l.687,1.7" transform="translate(-1.097 -582.614)" fill="#fff" stroke="#000" stroke-miterlimit="10" stroke-width="2.076"/>
            <path id="Caminho_5024" data-name="Caminho 5024" d="M2.515,722.669S.7,710.086,12.985,705.421c7.114-2.7,15.273,2.925,17.109,7.443l.68,1.711" transform="translate(-1.409 -583.329)" fill="#fff" stroke="#000" stroke-miterlimit="10" stroke-width="2.076"/>
            <path id="Caminho_5025" data-name="Caminho 5025" d="M11.058,712.031a.475.475,0,0,1,.629.095c1.031,1.353,5.191,6.829,4.913,7.312s.292.958-4.979-.146l-4.387-.914c-.271-.051-.563-.38-.453-.629A17.536,17.536,0,0,1,11.058,712.031Z" transform="translate(-2.575 -585.274)" fill="#fff" stroke="#000" stroke-miterlimit="10" stroke-width="1"/>
            <path id="Caminho_5026" data-name="Caminho 5026" d="M23.271,708.741a.439.439,0,0,1,.314.534c-.4,1.66-2.076,8.349-2.617,8.43s-.57.841-3.034-3.963l-2.025-3.97c-.124-.241-.051-.68.2-.731A16.463,16.463,0,0,1,23.271,708.741Z" transform="translate(-5.019 -584.338)" fill="#fff" stroke="#000" stroke-miterlimit="10" stroke-width="1"/>
            <path id="Caminho_5027" data-name="Caminho 5027" d="M33.625,715.006a.446.446,0,0,1-.2.57c-1.462.731-7.311,3.656-7.7,3.29s-.95.11,1.016-4.628c1-2.406,1.4-3.37,1.623-3.9.1-.248.453-.468.665-.322A15.808,15.808,0,0,1,33.625,715.006Z" transform="translate(-7.572 -584.74)" fill="#fff" stroke="#000" stroke-miterlimit="10" stroke-width="1"/>
            <path id="Caminho_5028" data-name="Caminho 5028" d="M7.711,730.336a.461.461,0,0,0,.621.117c1.411-.951,7.121-4.848,7-5.374s.585-.819-4.767-1.462l-4.387-.526c-.271,0-.658.183-.636.453A16.219,16.219,0,0,0,7.711,730.336Z" transform="translate(-2.247 -588.268)" fill="#fff" stroke="#000" stroke-miterlimit="10" stroke-width="1"/>
            <path id="Caminho_5029" data-name="Caminho 5029" d="M18.192,736.636a.453.453,0,0,0,.483-.409c.175-1.7.841-8.569.366-8.774s-.263-.98-4.175,2.713l-3.246,3.042c-.2.19-.285.621-.058.731A16.067,16.067,0,0,0,18.192,736.636Z" transform="translate(-3.83 -589.385)" fill="#fff" stroke="#000" stroke-miterlimit="10" stroke-width="1"/>
            <path id="Caminho_5030" data-name="Caminho 5030" d="M30.708,733.725a.432.432,0,0,0,0-.6c-1.1-1.177-5.637-5.915-6.112-5.717s-.855-.431-.621,4.694c.117,2.6.168,3.656.19,4.226,0,.271.271.592.519.526A15.934,15.934,0,0,0,30.708,733.725Z" transform="translate(-7.184 -589.427)" fill="#fff" stroke="#000" stroke-miterlimit="10" stroke-width="1"/>
            <path id="Caminho_5031" data-name="Caminho 5031" d="M34.77,722.752a.446.446,0,0,0-.5-.344c-1.594.256-8.043,1.338-8.167,1.835s-.841.475,3.531,3.159l3.6,2.193a.578.578,0,0,0,.731-.132A16.508,16.508,0,0,0,34.77,722.752Z" transform="translate(-7.745 -588.084)" fill="#fff" stroke="#000" stroke-miterlimit="10" stroke-width="1"/>
            <path id="Caminho_5032" data-name="Caminho 5032" d="M401.047,695.457l-.812,16.348s-.987,15.354,13.972,15.354c7.545,0,11.5-4.021,13.57-8.042a17.38,17.38,0,0,0,.19-15.639,12.707,12.707,0,0,0-8.576-7.092s-5.659-.958-8.854.731a.665.665,0,0,1-.9-.292.622.622,0,0,1-.073-.344l.1-1.521Z" transform="translate(-108.362 -580.705)" fill="#fff" stroke="#000" stroke-miterlimit="10" stroke-width="2.076"/>
            <path id="Caminho_5033" data-name="Caminho 5033" d="M429.719,715.926s2.391-12.364-9.863-17.035c-7.121-2.7-15.617,2-17.686,7.216l-.68,1.711" transform="translate(-108.703 -581.551)" fill="#fff" stroke="#000" stroke-miterlimit="10" stroke-width="2.076"/>
            <path id="Caminho_5034" data-name="Caminho 5034" d="M428.671,718.685s1.821-12.583-10.47-17.255c-7.114-2.705-15.266,2.925-17.109,7.45l-.673,1.7" transform="translate(-108.416 -582.255)" fill="#fff" stroke="#000" stroke-miterlimit="10" stroke-width="2.076"/>
            <path id="Caminho_5035" data-name="Caminho 5035" d="M426.957,708.079a.475.475,0,0,0-.636.088c-1.031,1.353-5.2,6.836-4.906,7.311s-.3.965,4.979-.146l4.387-.906c.263-.066.556-.38.453-.636A17.578,17.578,0,0,0,426.957,708.079Z" transform="translate(-114.056 -584.21)" fill="#fff" stroke="#000" stroke-miterlimit="10" stroke-width="1"/>
            <path id="Caminho_5036" data-name="Caminho 5036" d="M415.6,704.774a.468.468,0,0,0-.322.548c.4,1.652,2.084,8.349,2.625,8.43s.556.826,3.034-3.97l2.025-3.97c.124-.241.051-.672-.2-.731A16.755,16.755,0,0,0,415.6,704.774Z" transform="translate(-112.407 -583.274)" fill="#fff" stroke="#000" stroke-miterlimit="10" stroke-width="1"/>
            <path id="Caminho_5037" data-name="Caminho 5037" d="M404.984,711.049a.424.424,0,0,0,.2.57c1.462.731,7.312,3.656,7.692,3.3s.958.1-1.009-4.628c-1-2.405-1.4-3.37-1.623-3.919-.1-.234-.453-.453-.673-.307A16.522,16.522,0,0,0,404.984,711.049Z" transform="translate(-109.631 -583.678)" fill="#fff" stroke="#000" stroke-miterlimit="10" stroke-width="1"/>
            <path id="Caminho_5038" data-name="Caminho 5038" d="M430.318,726.39a.453.453,0,0,1-.621.11c-1.411-.951-7.121-4.847-7-5.374s-.585-.826,4.76-1.462l4.431-.534c.271,0,.651.183.636.461A15.859,15.859,0,0,1,430.318,726.39Z" transform="translate(-114.405 -587.204)" fill="#fff" stroke="#000" stroke-miterlimit="10" stroke-width="1"/>
            <path id="Caminho_5039" data-name="Caminho 5039" d="M420.625,732.659a.439.439,0,0,1-.483-.4h0c-.183-1.689-.848-8.561-.366-8.81s.249-.98,4.175,2.72l3.239,3.034c.2.19.278.622.058.731A16.439,16.439,0,0,1,420.625,732.659Z" transform="translate(-113.574 -588.303)" fill="#fff" stroke="#000" stroke-miterlimit="10" stroke-width="1"/>
            <path id="Caminho_5040" data-name="Caminho 5040" d="M408.375,729.772a.431.431,0,0,1,0-.6c1.111-1.177,5.644-5.922,6.12-5.725s.855-.424.621,4.7c-.124,2.6-.168,3.656-.2,4.226,0,.263-.263.592-.526.519A16.948,16.948,0,0,1,408.375,729.772Z" transform="translate(-110.522 -588.363)" fill="#fff" stroke="#000" stroke-miterlimit="10" stroke-width="1"/>
            <path id="Caminho_5041" data-name="Caminho 5041" d="M403.6,718.8a.424.424,0,0,1,.49-.344c1.594.248,8.043,1.33,8.174,1.835s.826.468-3.531,3.159l-3.612,2.193a.57.57,0,0,1-.731-.139A15.855,15.855,0,0,1,403.6,718.8Z" transform="translate(-109.241 -587.021)" fill="#fff" stroke="#000" stroke-miterlimit="10" stroke-width="1"/>
          </g>
          <path id="Caminho_5042" data-name="Caminho 5042" d="M177.21,522.771l4.021,4.307s.453,1.272,3.166,1.338l1.353.643s.256.965,2.128.965H190s2.778,3.809,6.646,4.972a2.23,2.23,0,0,1,1.053,1.33l1.06.168-.241,5.637s-.088,1.053,1.55,1.075,11.347.036,11.347.036l15.259-9.373,7.406-4.153,3-3.18s1.3-3.056,1.989-2.859,3-1.528,3-1.528" transform="translate(-48.403 -141.48)" fill="#fff" stroke="#000" stroke-linejoin="bevel" stroke-width="2"/>
          <path id="Caminho_5043" data-name="Caminho 5043" d="M187,529.2l15.42,1.74s2.449.066,3.254-1.55S207.8,525.5,209.329,525" transform="translate(-51.035 -142.246)" fill="none" stroke="#000" stroke-linecap="round" stroke-miterlimit="10" stroke-width="1"/>
          <path id="Caminho_5044" data-name="Caminho 5044" d="M194.71,532.642l8.393,1.938a5.323,5.323,0,0,0,4.219-2.749" transform="translate(-53.108 -144.082)" fill="none" stroke="#000" stroke-linecap="round" stroke-miterlimit="10" stroke-width="0.5"/>
          <path id="Caminho_5045" data-name="Caminho 5045" d="M206.69,541.79s4.826,1.623,17.789.731" transform="translate(-56.329 -146.76)" fill="none" stroke="#000" stroke-linecap="round" stroke-miterlimit="10" stroke-width="1"/>
          <path id="Caminho_5046" data-name="Caminho 5046" d="M224,550.177a73.384,73.384,0,0,1,26-4.387" transform="translate(-60.983 -147.828)" fill="#fff" stroke="#000" stroke-linecap="round" stroke-miterlimit="10" stroke-width="1"/>
          <path id="Caminho_5047" data-name="Caminho 5047" d="M223.87,549.178a74.145,74.145,0,0,1,26-4.387" transform="translate(-60.948 -147.561)" fill="#fff" stroke="#000" stroke-linecap="round" stroke-miterlimit="10" stroke-width="0.978"/>
          <path id="Caminho_5048" data-name="Caminho 5048" d="M223.73,548.211a73.851,73.851,0,0,1,26-4.321" transform="translate(-60.91 -147.317)" fill="#fff" stroke="#000" stroke-linecap="round" stroke-miterlimit="10" stroke-width="0.957"/>
          <path id="Caminho_5049" data-name="Caminho 5049" d="M223.59,547.228a73.976,73.976,0,0,1,26.007-4.27" transform="translate(-60.873 -147.066)" fill="#fff" stroke="#000" stroke-linecap="round" stroke-miterlimit="10" stroke-width="0.935"/>
          <path id="Caminho_5050" data-name="Caminho 5050" d="M223.45,546.255a73.7,73.7,0,0,1,26.007-4.219" transform="translate(-60.835 -146.816)" fill="#fff" stroke="#000" stroke-linecap="round" stroke-miterlimit="10" stroke-width="0.913"/>
          <path id="Caminho_5051" data-name="Caminho 5051" d="M223.31,545.273a73.8,73.8,0,0,1,26.007-4.167" transform="translate(-60.797 -146.565)" fill="#fff" stroke="#000" stroke-linecap="round" stroke-miterlimit="10" stroke-width="0.891"/>
          <path id="Caminho_5052" data-name="Caminho 5052" d="M223.17,544.3a73.816,73.816,0,0,1,26.007-4.124" transform="translate(-60.76 -146.314)" fill="#fff" stroke="#000" stroke-linecap="round" stroke-miterlimit="10" stroke-width="0.87"/>
          <path id="Caminho_5053" data-name="Caminho 5053" d="M223,543.317a73.771,73.771,0,0,1,26.007-4.065" transform="translate(-60.714 -146.065)" fill="#fff" stroke="#000" stroke-linecap="round" stroke-miterlimit="10" stroke-width="0.848"/>
          <path id="Caminho_5054" data-name="Caminho 5054" d="M222.9,542.342a73.786,73.786,0,0,1,26.007-4.021" transform="translate(-60.687 -145.813)" fill="#fff" stroke="#000" stroke-linecap="round" stroke-miterlimit="10" stroke-width="0.826"/>
          <path id="Caminho_5055" data-name="Caminho 5055" d="M222.76,541.359a73.656,73.656,0,0,1,26.007-3.97" transform="translate(-60.65 -145.561)" fill="#fff" stroke="#000" stroke-linecap="round" stroke-miterlimit="10" stroke-width="0.804"/>
          <path id="Caminho_5056" data-name="Caminho 5056" d="M222.62,540.386a73.566,73.566,0,0,1,26.007-3.919" transform="translate(-60.612 -145.312)" fill="#fff" stroke="#000" stroke-linecap="round" stroke-miterlimit="10" stroke-width="0.783"/>
          <path id="Caminho_5057" data-name="Caminho 5057" d="M222.48,539.4a73.692,73.692,0,0,1,26.014-3.868" transform="translate(-60.574 -145.06)" fill="#fff" stroke="#000" stroke-linecap="round" stroke-miterlimit="10" stroke-width="0.761"/>
          <path id="Caminho_5058" data-name="Caminho 5058" d="M222.34,538.427a73.709,73.709,0,0,1,26.014-3.824" transform="translate(-60.537 -144.808)" fill="#fff" stroke="#000" stroke-linecap="round" stroke-miterlimit="10" stroke-width="0.739"/>
          <path id="Caminho_5059" data-name="Caminho 5059" d="M222.2,537.446a73.516,73.516,0,0,1,26.014-3.765" transform="translate(-60.499 -144.558)" fill="#fff" stroke="#000" stroke-linecap="round" stroke-miterlimit="10" stroke-width="0.717"/>
          <path id="Caminho_5060" data-name="Caminho 5060" d="M222.06,536.463a73.621,73.621,0,0,1,26.014-3.714" transform="translate(-60.461 -144.306)" fill="#fff" stroke="#000" stroke-linecap="round" stroke-miterlimit="10" stroke-width="0.696"/>
          <path id="Caminho_5061" data-name="Caminho 5061" d="M221.92,535.491a73.437,73.437,0,0,1,26.014-3.656" transform="translate(-60.424 -144.058)" fill="#fff" stroke="#000" stroke-linecap="round" stroke-miterlimit="10" stroke-width="0.674"/>
          <path id="Caminho_5062" data-name="Caminho 5062" d="M221.78,534.508A74.448,74.448,0,0,1,247.8,530.9" transform="translate(-60.386 -143.806)" fill="#fff" stroke="#000" stroke-linecap="round" stroke-miterlimit="10" stroke-width="0.652"/>
          <path id="Caminho_5063" data-name="Caminho 5063" d="M221.65,533.53a73.811,73.811,0,0,1,26.014-3.568" transform="translate(-60.351 -143.553)" fill="#fff" stroke="#000" stroke-linecap="round" stroke-miterlimit="10" stroke-width="0.63"/>
          <path id="Caminho_5064" data-name="Caminho 5064" d="M221.51,532.545a73.109,73.109,0,0,1,26.014-3.517" transform="translate(-60.314 -143.298)" fill="#fff" stroke="#000" stroke-linecap="round" stroke-miterlimit="10" stroke-width="0.609"/>
          <path id="Caminho_5065" data-name="Caminho 5065" d="M221.37,531.572a73.409,73.409,0,0,1,26.014-3.466" transform="translate(-60.276 -143.049)" fill="#fff" stroke="#000" stroke-linecap="round" stroke-miterlimit="10" stroke-width="0.587"/>
          <path id="Caminho_5066" data-name="Caminho 5066" d="M221.23,530.589a73.537,73.537,0,0,1,26.021-3.415" transform="translate(-60.238 -142.797)" fill="#fff" stroke="#000" stroke-linecap="round" stroke-miterlimit="10" stroke-width="0.565"/>
          <path id="Caminho_5067" data-name="Caminho 5067" d="M221.09,529.612a73.357,73.357,0,0,1,26.021-3.37" transform="translate(-60.201 -142.544)" fill="#fff" stroke="#000" stroke-linecap="round" stroke-miterlimit="10" stroke-width="0.543"/>
          <path id="Caminho_5068" data-name="Caminho 5068" d="M221,528.63a73.362,73.362,0,0,1,26.021-3.312" transform="translate(-60.176 -142.293)" fill="#fff" stroke="#000" stroke-linecap="round" stroke-miterlimit="10" stroke-width="0.522"/>
          <path id="Caminho_5069" data-name="Caminho 5069" d="M220.81,527.654a73.379,73.379,0,0,1,26.021-3.268" transform="translate(-60.125 -142.041)" fill="#fff" stroke="#000" stroke-linecap="round" stroke-miterlimit="10" stroke-width="0.5"/>
          <path id="Caminho_5070" data-name="Caminho 5070" d="M225.27,550.989l2.625,16.041a3.144,3.144,0,0,0,2.193,2.625,31.122,31.122,0,0,0,8.861.987,25.883,25.883,0,0,0,12.254-4.665c.695-.731,1.426-.987,1.119-2.669S250,546.88,250,546.88,236.668,547.077,225.27,550.989Z" transform="translate(-61.324 -148.129)" fill="#fff" stroke="#000" stroke-miterlimit="10" stroke-width="1.5"/>
          <path id="Caminho_5071" data-name="Caminho 5071" d="M257.007,552.75l1.462,12.224a2.8,2.8,0,0,1-.387,1.938l-1.192,1.265" transform="translate(-69.826 -149.707)" fill="none" stroke="#000" stroke-linecap="round" stroke-miterlimit="10" stroke-width="0.5"/>
          <path id="Caminho_5072" data-name="Caminho 5072" d="M253.79,552.53l1.711,12.29a2.925,2.925,0,0,1-.453,2.128c-.68.775-.965,1.17-.965,1.17" transform="translate(-68.992 -149.648)" fill="none" stroke="#000" stroke-linecap="round" stroke-miterlimit="10" stroke-width="0.5"/>
          <path id="Caminho_5073" data-name="Caminho 5073" d="M246.06,552.53l1.587,12.963a7.7,7.7,0,0,0,.731,2.925" transform="translate(-66.914 -149.648)" fill="none" stroke="#000" stroke-linecap="round" stroke-miterlimit="10" stroke-width="0.5"/>
          <path id="Caminho_5074" data-name="Caminho 5074" d="M241.79,553.59l1.462,12.736a6.324,6.324,0,0,0,.775,2.925" transform="translate(-65.766 -149.933)" fill="none" stroke="#000" stroke-linecap="round" stroke-miterlimit="10" stroke-width="0.5"/>
          <path id="Caminho_5075" data-name="Caminho 5075" d="M233.14,555.62l2.091,12.027a3.315,3.315,0,0,0,1.418,2.259l1.163.585" transform="translate(-63.44 -150.478)" fill="none" stroke="#000" stroke-linecap="round" stroke-miterlimit="10" stroke-width="0.5"/>
          <path id="Caminho_5076" data-name="Caminho 5076" d="M230.23,556.28l2.128,12.429s.358,1.55,1.228,1.974a2.746,2.746,0,0,0,1.111.387" transform="translate(-62.658 -150.656)" fill="none" stroke="#000" stroke-linecap="round" stroke-miterlimit="10" stroke-width="0.5"/>
          <path id="Caminho_5077" data-name="Caminho 5077" d="M154.325,524.4l-51.18,3.773s-7.83,1.031-10.1,5.849-4.431,8.942-4.431,8.942" transform="translate(-24.582 -142.085)" fill="none" stroke="#000" stroke-miterlimit="10" stroke-width="4"/>
          <path id="Caminho_5078" data-name="Caminho 5078" d="M76.486,549.3s.651-1.418,1.769-1.331a34.837,34.837,0,0,1,5.074,1.674l1.506,1.85s-.307,8.2-4.606,19.894a4.219,4.219,0,0,1-5.03,2.493c-3.444-.731-8.13-1.938-8.905-2.969s-2.237-3.093-2.237-3.093-1.375-1.762.863-4.687S76.486,549.3,76.486,549.3Z" transform="translate(-17.868 -148.42)" fill="none" stroke="#000" stroke-miterlimit="10" stroke-width="1"/>
          <path id="Caminho_5079" data-name="Caminho 5079" d="M85.659,552.884l-4.621-1.462s-.812-.424-1.762.731-12.254,15.822-12.254,15.822a2.6,2.6,0,0,0,.643,2.969c1.418,1.638,2,2.193,2,2.193" transform="translate(-18.721 -149.329)" fill="none" stroke="#000" stroke-miterlimit="10" stroke-width="1"/>
          <line id="Linha_695" data-name="Linha 695" x2="1.806" y2="2.15" transform="translate(59.437 399.863)" fill="none" stroke="#000" stroke-miterlimit="10" stroke-width="1"/>
          <g id="Camada_9" data-name="Camada 9" transform="translate(251.455 239.619)">
            <path id="Caminho_5080" data-name="Caminho 5080" d="M382.16,395.165l-.578-3.371-1.426-29.282v-.058a3.765,3.765,0,0,0-1.389-2.925c-1.725-1.382-12.371-8.211-14.118-9.329l-16.758-.906-.234-.139a3,3,0,0,1-1.177-2.742v-6.229a4.693,4.693,0,0,1,2.062-2.676c.292-.168.541-.336.775-.49a4.957,4.957,0,0,1,2.486-1.009c.146,0,.592-.088,1.331-.2a432.674,432.674,0,0,1,53.973-5.074c7.121.08,20.157.512,20.289.512h0a12.359,12.359,0,0,1,5.7,1.367c1.938,1.177,6.8,3.9,6.843,3.933l.5.278.475,4.6a2.6,2.6,0,0,1-.241,2,2.391,2.391,0,0,1-1.784,1.1c-1.55.241-15.69,1.418-18.081,1.616L405.066,358.2a6.39,6.39,0,0,0-1.375,3.6c-.1,2.552,0,35.424,0,35.76v1.3Z" transform="translate(-345.369 -329.633)" fill="#fff"/>
            <path id="Caminho_5081" data-name="Caminho 5081" d="M406.734,331.445c7.136.088,20.216.519,20.216.519a11.847,11.847,0,0,1,5.162,1.206c1.981,1.206,6.88,3.955,6.88,3.955l.431,4.131a1.331,1.331,0,0,1-1.119,1.806c-1.638.256-18.322,1.63-18.322,1.63L403.9,357a7.465,7.465,0,0,0-1.711,4.387c-.1,2.6,0,35.826,0,35.826L382.7,393.863l-.439-2.537-1.448-29.209a4.95,4.95,0,0,0-1.8-3.875c-1.945-1.55-14.462-9.549-14.462-9.549l-16.772-.9s-.643-.388-.643-1.806v-5.959a3.575,3.575,0,0,1,1.513-1.967c1.162-.68,1.682-1.258,2.808-1.353a429.825,429.825,0,0,1,55.245-5.286m0-2.193h-.051a433.365,433.365,0,0,0-54.1,5.118l-1.272.2a6.033,6.033,0,0,0-2.983,1.184c-.227.154-.461.307-.731.461a5.849,5.849,0,0,0-2.522,3.275l-.08.285v6.237c0,2.464,1.309,3.444,1.711,3.656l.468.278h.541l16.195.877c3.765,2.413,12.334,7.94,13.789,9.1a2.742,2.742,0,0,1,.958,2.062v.241l1.462,29.172v.27l.439,2.537.27,1.528,1.521.263,19.485,3.349,2.574.439v-2.61c0-11.464-.073-33.684,0-35.709a5.3,5.3,0,0,1,1.046-2.859l15.354-11.757c3.37-.278,16.3-1.36,17.84-1.6a3.554,3.554,0,0,0,2.559-1.616,3.743,3.743,0,0,0,.388-2.742l-.417-3.97-.117-1.133-.987-.556c-.051,0-4.891-2.742-6.814-3.912a13.471,13.471,0,0,0-6.266-1.528c-.731,0-13.314-.431-20.223-.512Z" transform="translate(-344.96 -329.23)"/>
            <path id="Caminho_5082" data-name="Caminho 5082" d="M348.76,340.389l57.621-5.769s3.093.088,4.043,0" transform="translate(-345.982 -330.679)" fill="none" stroke="#000" stroke-miterlimit="10" stroke-width="1"/>
            <path id="Caminho_5083" data-name="Caminho 5083" d="M427.83,332.26l7.611,3.378a21.6,21.6,0,0,0,8.905,2.281c4.643,0,16.926.044,16.926.044" transform="translate(-367.241 -330.045)" fill="none" stroke="#000" stroke-miterlimit="10" stroke-width="1"/>
            <path id="Caminho_5084" data-name="Caminho 5084" d="M348.86,352.345a1.681,1.681,0,0,1,1.638-1.462c1.543-.175,63.565-4.65,63.565-4.65s6.624-.168,12.13,0l14.308.461" transform="translate(-346.009 -333.781)" fill="none" stroke="#000" stroke-miterlimit="10" stroke-width="1"/>
            <path id="Caminho_5085" data-name="Caminho 5085" d="M370.948,354.087l-2.318-1.762s.344-.512,2.318-.687,33.72-2.237,33.72-2.237,17-.512,21.678.687" transform="translate(-351.324 -334.624)" fill="none" stroke="#000" stroke-miterlimit="10" stroke-width="0.75"/>
            <path id="Caminho_5086" data-name="Caminho 5086" d="M380.66,360.586s.322-1.214,4.533-1.382,18.037-.95,18.037-.95a128.689,128.689,0,0,1,18.279,0" transform="translate(-354.558 -336.941)" fill="none" stroke="#000" stroke-miterlimit="10" stroke-width="0.75"/>
          </g>
          <path id="Caminho_5087" data-name="Caminho 5087" d="M155.7,518.767l-49.732,5.681-.519-2.325.775-2.325,47.392-5.418Z" transform="translate(-29.109 -139.391)" fill="#e6e6e6" stroke="#000" stroke-miterlimit="10" stroke-width="1"/>
          <line id="Linha_696" data-name="Linha 696" x1="48.972" y2="5.228" transform="translate(76.341 377.505)" fill="none" stroke="#000" stroke-miterlimit="10" stroke-width="1"/>
          <g id="Camada_6" data-name="Camada 6" transform="translate(11.251)">
            <path id="Caminho_5088" data-name="Caminho 5088" d="M38.333,374.935s1.894,10.324,25.115,6.712c16.516-1.375,25.122-2.062,36.133-1.031s61.927,3.787,66.57,3.612c1.791,1.294,4.007,2.15,8.518,1.894,0,0,.11,1.894,5.271.044,4.709-1.075,25.59-6.068,43.671-7.443s50.58-3.787,52.986-3.787,16.816,1.25,16.816,1.25,14.5,2.025,22.241-1.25,9.242-4.577,9.242-4.577,11.742-6.968,9.037-22.19-6.456-21.678-6.456-21.678S322.19,308.3,305.93,306.617c-5.03-1.674-24.9-11.479-64.121,16.26l-21.378-1s.775-4.116,5.805-9.578c2.925-4,7.955-9.037,14.148-34.451,1.038-6.712,4.518-17.547-6.968-46.837-4.387-10.324-13.672-27.608-19.09-38.187a70.663,70.663,0,0,1-5.293-16c-1.938-13.16,4-29.289,5.937-37.412,0,0,9.5-23.4-6.924-38.282s-38.706-29.246-38.706-29.246S156.778,62.636,148,42.508L139.23,22.38S133.294,7.8,119.49,4.957C106.388,2.288,100.838.4,82.443,2.208a22.563,22.563,0,0,0-7.67,2.106,15.712,15.712,0,0,0-7.926,8.043c-.9.819-5.074,4.862-7.092,16-1.967,10.857-1.967,19.69-13.38,35.5a15.786,15.786,0,0,1-1.747,2.047c-4.767,4.679-16.3,16.224-16.3,16.224s-8.445,7.034-9.87,11.7-3.224,7.1-.965,25.59,3,24.069,3,24.069l8.043,40.834a85.368,85.368,0,0,1,2.391,20.062c.088,11.61-.687,35.782-.687,35.782Z" transform="translate(-16.425 -1.495)" fill="#fff" stroke="#000" stroke-miterlimit="10" stroke-width="1"/>
            <path id="Caminho_5089" data-name="Caminho 5089" d="M79.43,5s-7.867,1.916-8.818,12.429.431,31.008-7.136,38.494S35.949,86.288,35.949,86.288A28.7,28.7,0,0,0,30.444,117.6l8.861,25.59s4.906,19.01,8.686,35.87,18.235,72.083,18.235,72.083,12.736,50.083-1.886,83.606" transform="translate(-19.546 -2.438)" fill="none" stroke="#000" stroke-miterlimit="10" stroke-width="1"/>
            <path id="Caminho_5090" data-name="Caminho 5090" d="M67.1,190.79s-1.762,12.005-1.894,13.5-3.524,14.367,4.343,40.841c1.287,4.665,6.712,32.17,6.712,32.17l4.9,23.1s11.874,73.436-5.937,84.293" transform="translate(-29.313 -52.389)" fill="none" stroke="#000" stroke-miterlimit="10" stroke-width="1"/>
            <path id="Caminho_5091" data-name="Caminho 5091" d="M77.186,139s7.363,2.193,5.169,22.322-4.8,36.1-7.728,43.715c-.775,3.488-1.55,7.231-.519,16.772s3.78,37.178,3.78,37.178" transform="translate(-31.8 -38.465)" fill="none" stroke="#000" stroke-miterlimit="10" stroke-width="1"/>
            <path id="Caminho_5092" data-name="Caminho 5092" d="M34.49,121.65s3.86.987,7.414,8.342,7.48,15.676,7.48,15.676,15.829,36.126,15.23,53.073" transform="translate(-21.282 -33.8)" fill="none" stroke="#000" stroke-miterlimit="10" stroke-width="1"/>
            <path id="Caminho_5093" data-name="Caminho 5093" d="M97.45,442.366s5.593-7.735,17.372-8,15.354,1.031,15.354,1.031,10.294.833,28.361,19.543c2.837,2.844,13.226,14.623,16.97,20.135s12.385,18.059,12.385,18.059S192,500,197.206,500.6" transform="translate(-38.209 -117.869)" fill="none" stroke="#000" stroke-miterlimit="10" stroke-width="1"/>
            <path id="Caminho_5094" data-name="Caminho 5094" d="M191.119,502.909a39.557,39.557,0,0,1-7.107-6.975c-3.59-4.752-8.372-11.9-12.693-17.8-7.487-10.192-16.085-22.57-30.971-32.382-3.868-2.457-9.8-6.237-17.759-6.456a67.609,67.609,0,0,0-11.143.307s-8.086.987-13.117,9.629" transform="translate(-38.446 -119.19)" fill="none" stroke="#000" stroke-miterlimit="10" stroke-width="1"/>
            <path id="Caminho_5095" data-name="Caminho 5095" d="M111.71,433.069a37.427,37.427,0,0,1,34.473-5.849c6.456,2.669,17.116,7.567,38.538,30.54,1.55,3.524,9.081,27.176,16.282,38.619.234,1.287.907,2.347-.19,3.729" transform="translate(-42.043 -115.452)" fill="none" stroke="#000" stroke-miterlimit="10" stroke-width="1"/>
            <line id="Linha_697" data-name="Linha 697" y1="3.239" x2="80.381" transform="translate(123.625 320.717)" fill="none" stroke="#000" stroke-miterlimit="10" stroke-width="1"/>
            <path id="Caminho_5096" data-name="Caminho 5096" d="M192.94,451.02s16.458-.98,22.907,1.857a12.21,12.21,0,0,1,4.774,4.9s6.156,18.278.241,42.04" transform="translate(-63.883 -122.311)" fill="none" stroke="#000" stroke-miterlimit="10" stroke-width="1"/>
            <path id="Caminho_5097" data-name="Caminho 5097" d="M324.69,440.823s9.029,2.252,29.158.928,38.838-1.616,38.838-1.616,8.043-.885,12.641,5.718l.139.2a33.515,33.515,0,0,1,5.761,15.522c.49,4.57.877,10.236.161,12.795-1.287,4.643-2.332,10.068-11.552,17.935" transform="translate(-99.306 -119.418)" fill="none" stroke="#000" stroke-miterlimit="10" stroke-width="1"/>
            <path id="Caminho_5098" data-name="Caminho 5098" d="M365.94,418.309s17.876-5.886,27.337,1.338c3.268,2.756,5.681,5.257,10.148,13.979" transform="translate(-110.396 -112.953)" fill="none" stroke="#000" stroke-miterlimit="10" stroke-width="1"/>
            <path id="Caminho_5099" data-name="Caminho 5099" d="M412.39,418.85s9.549,4.263,12.261,8.13a101.393,101.393,0,0,1,6.317,11.61,59.8,59.8,0,0,1,6.456,24.127c.124,4.131,1.521,12.861-8.467,18.366" transform="translate(-122.885 -113.706)" fill="none" stroke="#000" stroke-miterlimit="10" stroke-width="1"/>
            <path id="Caminho_5100" data-name="Caminho 5100" d="M50.357,318.481S41.24,277.018,33,251.56" transform="translate(-20.881 -68.728)" fill="none" stroke="#000" stroke-miterlimit="10" stroke-width="1"/>
            <path id="Caminho_5101" data-name="Caminho 5101" d="M50.754,280.416s-21.832-80.337-25.122-95.845-6.368-48-6.368-48S17.612,122.68,30.348,109.98" transform="translate(-17.169 -30.663)" fill="none" stroke="#000" stroke-miterlimit="10" stroke-width="1"/>
            <path id="Caminho_5102" data-name="Caminho 5102" d="M237.739,291.608l-7.165-29.319s-7.684-33.508-7-46.859,1.206-33.157-1.886-41.061" transform="translate(-71.613 -47.975)" fill="none" stroke="#000" stroke-miterlimit="10" stroke-width="1"/>
            <line id="Linha_698" data-name="Linha 698" x1="4.679" y1="19.119" transform="translate(180.485 302.358)" fill="none" stroke="#000" stroke-miterlimit="10" stroke-width="1"/>
            <path id="Caminho_5103" data-name="Caminho 5103" d="M224.22,208.208l19.309-27.549s21.086-31.651,21.291-41.719" transform="translate(-72.293 -38.449)" fill="none" stroke="#000" stroke-miterlimit="10" stroke-width="1"/>
            <path id="Caminho_5104" data-name="Caminho 5104" d="M265.34,400.09c2.193,10.455,5.323,21.722,9.2,29.8" transform="translate(-83.349 -108.662)" fill="none" stroke="#000" stroke-miterlimit="10" stroke-width="1"/>
            <path id="Caminho_5105" data-name="Caminho 5105" d="M247.316,200.73s-.344,20.991,1.031,37.164,7.231,76.038,7.231,76.038" transform="translate(-78.492 -55.062)" fill="none" stroke="#000" stroke-miterlimit="10" stroke-width="1"/>
            <path id="Caminho_5106" data-name="Caminho 5106" d="M275.861,369.2a229.656,229.656,0,0,0,14.623-31.22c6.712-17.723,6.88-24.259,6.88-24.259s2.756-12.086-2.237-27.118-12.9-31.892-12.9-31.892l-9.293-20.662s-6.017-14.279,0-26.665,12.846-33.04,12.846-33.04" transform="translate(-84.672 -47.967)" fill="none" stroke="#000" stroke-miterlimit="10" stroke-width="1"/>
            <path id="Caminho_5107" data-name="Caminho 5107" d="M59.35,81.323s6.178-9.293,12.546-6.88S86.219,80.226,87.85,99.6" transform="translate(-27.966 -21.001)" fill="none" stroke="#000" stroke-miterlimit="10" stroke-width="1"/>
          </g>
          <path id="Caminho_5108" data-name="Caminho 5108" d="M97.45,338.357s3.568-3.268,23.952-2.106c12.261.256,44.131.387,66.066-.651,4.387-.9,13.892-1.923,15.354-1.674s12.385,5.549,16.516,31.351c1.418,10.711,3.012,37.018-12.342,47.041-6.354.914-45.85,2.479-45.85,2.479" transform="translate(-26.958 -90.863)" fill="none" stroke="#000" stroke-miterlimit="10" stroke-width="1"/>
          <line id="Linha_699" data-name="Linha 699" x1="4.197" y1="48.233" transform="translate(72.546 271.146)" fill="none" stroke="#000" stroke-miterlimit="10" stroke-width="1"/>
          <path id="Caminho_5109" data-name="Caminho 5109" d="M223.54,335.73s11.94,11.567,14.243,26.708c2.274,14.952,2.815,37.347-13,51.253" transform="translate(-60.859 -91.358)" fill="none" stroke="#000" stroke-miterlimit="10" stroke-width="1"/>
          <path id="Caminho_5110" data-name="Caminho 5110" d="M133.74,351.79s8.774,12.086,9.3,53.848" transform="translate(-36.715 -95.676)" fill="none" stroke="#000" stroke-miterlimit="10" stroke-width="1"/>
          <path id="Caminho_5111" data-name="Caminho 5111" d="M114.357,413.887s10.236-27.783-1.747-53.527" transform="translate(-31.034 -97.98)" fill="none" stroke="#000" stroke-miterlimit="10" stroke-width="1"/>
          <path id="Caminho_5112" data-name="Caminho 5112" d="M88.057,111.41l-9.819,1.638a4.029,4.029,0,0,0-2.654,2.771c-.885,3.166-3.656,12.707-3.656,12.707s-1.353,4.263,3.034,3.875,13.892-.841,13.892-.841" transform="translate(-20.044 -31.047)" fill="none" stroke="#000" stroke-miterlimit="10" stroke-width="1"/>
          <path id="Caminho_5113" data-name="Caminho 5113" d="M89.792,113.37l-7.9,1.923a3.356,3.356,0,0,0-2.193,2.106c-.475,1.638-2.018,10.112-2.018,10.112a2.488,2.488,0,0,0,2.881,2.749c3.188-.088,9.9-.387,9.9-.387" transform="translate(-21.64 -31.574)" fill="none" stroke="#000" stroke-miterlimit="10" stroke-width="0.75"/>
          <path id="Caminho_5114" data-name="Caminho 5114" d="M91.037,128.558H86.606s-5.286-.812-5.717-4.167-.651-6.88,2.427-8.62" transform="translate(-22.439 -32.219)" fill="none" stroke="#000" stroke-miterlimit="10" stroke-width="0.75"/>
          <line id="Linha_700" data-name="Linha 700" y1="2.157" x2="9.746" transform="translate(58.596 84.128)" fill="none" stroke="#000" stroke-miterlimit="10" stroke-width="1"/>
          <line id="Linha_701" data-name="Linha 701" x2="103.917" y2="4.716" transform="translate(59.758 139.49)" fill="none" stroke="#000" stroke-miterlimit="10" stroke-width="1"/>
          <path id="Caminho_5115" data-name="Caminho 5115" d="M77.46,282.687a49.563,49.563,0,0,1,15.259-1.725c9.161.256,97.285,1.674,97.285,1.674" transform="translate(-21.584 -76.627)" fill="none" stroke="#000" stroke-miterlimit="10" stroke-width="1"/>
          <path id="Caminho_5116" data-name="Caminho 5116" d="M216.738,290.655,203.27,167.21l8.905.512,4.014,10.192L227.529,289.1Z" transform="translate(-55.41 -46.05)" fill="#fff" stroke="#000" stroke-miterlimit="10" stroke-width="1"/>
          <path id="Caminho_5117" data-name="Caminho 5117" d="M83.44,131.19s2.654,8.869,3.224,13.775S100.4,282.016,100.4,282.016l12.02-.461L93.413,132.7H87.359S83.63,131.782,83.44,131.19Z" transform="translate(-23.192 -36.365)" fill="#fff" stroke="#000" stroke-miterlimit="10" stroke-width="1"/>
          <g id="Camada_8" data-name="Camada 8" transform="translate(14.259 234.955)">
            <path id="Caminho_5118" data-name="Caminho 5118" d="M55,490.19l-29.026-1.682s-4.387.972-4.584-7.311,0-31.936,0-31.936l1.938-13.285,5.286-9.293s3.166-.388,4.774-.453a45.7,45.7,0,0,1,6.068.775l.124,2.135s4.584,2.515,6,9.8,3.356,19.887,13.672,24.274,8.35,20.6,8.35,20.6l.146,4.562-3.59,2.581Z" transform="translate(-20.744 -350.645)" fill="#e6e6e6" stroke="#000" stroke-miterlimit="10" stroke-width="2"/>
            <path id="Caminho_5119" data-name="Caminho 5119" d="M21.827,418.008c-.322-2.449-1.287-9.417-1.287-9.417a6.581,6.581,0,0,1,.578-2.779c.643-1.352,7.311-15.478,7.311-15.478L22.3,342.466l3.868-12.005,4.84-4.255,3.758-3.356h1.938l3.254,12.539,7.311,49.418,2.384,15.741-16.867.87-1.806,3.261L28.056,407.6l1.323,9.454.058,11.918-3.444,1.806-3.583-11.1Z" transform="translate(-20.539 -322.85)" fill="#e6e6e6" stroke="#000" stroke-miterlimit="10" stroke-width="2"/>
            <path id="Caminho_5120" data-name="Caminho 5120" d="M35.558,430.28s4.182.417,6.163,10.572,5.849,24.427,13.585,25.97c.775,3.619,4.043,19.551,4.043,19.551l-.972,4.986-6.77-8.042L49.8,473.768s-9.571-6.281-11.925-17.979-3.882-16.911-6.946-18.651" transform="translate(-23.333 -351.734)" fill="none" stroke="#000" stroke-miterlimit="10" stroke-width="1"/>
            <line id="Linha_702" data-name="Linha 702" x2="27.637" y2="1.375" transform="translate(0.637 130.15)" fill="none" stroke="#000" stroke-miterlimit="10" stroke-width="1"/>
            <path id="Caminho_5121" data-name="Caminho 5121" d="M56.74,486.943l5.505-6.887,9.622-.556" transform="translate(-30.272 -364.967)" fill="none" stroke="#000" stroke-miterlimit="10" stroke-width="1"/>
            <path id="Caminho_5122" data-name="Caminho 5122" d="M30.516,408.941l-.826-4.05L37.17,387.6l-6.88-49.03,2.8-10.689" transform="translate(-23 -324.202)" fill="none" stroke="#000" stroke-miterlimit="10" stroke-width="1"/>
            <path id="Caminho_5123" data-name="Caminho 5123" d="M22.92,342.466l4.95-4.818,5.505-1.031,3.349-13.767" transform="translate(-21.179 -322.85)" fill="none" stroke="#000" stroke-miterlimit="10" stroke-width="1"/>
            <path id="Caminho_5124" data-name="Caminho 5124" d="M35.268,408.857l-.468-1.981,8.474-17.116-6.7-48.08" transform="translate(-24.373 -327.913)" fill="none" stroke="#000" stroke-miterlimit="10" stroke-width="1"/>
            <path id="Caminho_5125" data-name="Caminho 5125" d="M31.3,413.077l6.3-4.087,4.73-1.55" transform="translate(-23.432 -345.593)" fill="none" stroke="#000" stroke-miterlimit="10" stroke-width="1"/>
          </g>
          <g id="Camada_7" data-name="Camada 7" transform="translate(9.794 244.913)">
            <path id="Caminho_5126" data-name="Caminho 5126" d="M63.473,482.636h-.987c-2.245-.066-2.676-1.089-2.756-1.521s-.673-1.959-1.031-3.495v-.1c-1.148-9.943-.49-23.089-.483-23.221v-.417l.519-.271-.49-9.98h-.658a2.541,2.541,0,0,1-.965-.124l-.453-.183v-.49c-.088-1.082-7.852-69.356-7.933-70.043a5.55,5.55,0,0,0-2.566-3.656c-2.405-1.506-12.3-8.276-13.892-9.366l-16.363.665v-4.855A3.18,3.18,0,0,1,16.5,352.91c.95-.731,4.533-3.765,4.57-3.795a18.914,18.914,0,0,1,8.138-4.094c.687-.132,1.462-.3,2.384-.49,4.8-1.031,13.723-2.925,33.106-4.679,4.131-.256,29.538-2.274,30.189-2.325a3.883,3.883,0,0,1,.5,0,5.666,5.666,0,0,1,3.144.994,5.072,5.072,0,0,1,2.193,2.632v.08l.841,7.158c.132.914,0,2.552-1.367,2.807-.98.183-11.033,1.389-12.729,1.594l-.2.175-.249.687-13.892,13.6s-.731.819-.621,3.714c.124,3.371,4.021,69.458,4.065,70.109v.161c-.066.431-.475.958-1.916,1.206.058,1.74.344,6.536.556,10.06l1.287.249,2.705,17.109a7.215,7.215,0,0,1,2.464.994l.1.08.073.11c.812,1.257.994,3.436.556,6.478v.08c-.146,1.016-4.687,4.855-5.922,5.008h-.139c-.775-.051-1.967-.073-3.656-.073s-3.751,0-5.535.051H63.481Z" transform="translate(-14.694 -336.752)" fill="#fff"/>
            <path id="Caminho_5127" data-name="Caminho 5127" d="M95.126,337.969a4.913,4.913,0,0,1,2.734.87,4.278,4.278,0,0,1,1.872,2.193l.834,7.158s.263,1.806-.768,2-12.9,1.608-12.9,1.608l-.519.453-.256.731-13.738,13.46s-.972.841-.841,4.255S75.6,440.833,75.6,440.833s-.088.512-1.938.687c-.044.943.6,11.311.6,11.311l1.338.256L78.31,470.18a7.949,7.949,0,0,1,2.669.972c1.119,1.74.519,5.462.431,6.061s-4.263,4.255-5.293,4.387c-.87-.051-2.193-.073-3.656-.073-3.18,0-7.136.088-9.205.088h-.972c-2.106-.081-2.106-.98-2.106-.98s-.643-1.806-1.031-3.488c-1.163-9.995-.483-23.1-.483-23.1l.563-.3-.512-11.179s-.731.066-1.353.066a2.251,2.251,0,0,1-.687-.066c0-.409-7.94-70.123-7.94-70.123a6.31,6.31,0,0,0-2.925-4.2c-2.581-1.609-14.06-9.5-14.06-9.5l-15.844.643v-4.124a2.449,2.449,0,0,1,.812-2.069c.965-.775,4.577-3.8,4.577-3.8a18.275,18.275,0,0,1,7.809-3.941c4.387-.833,12.429-3.093,35.416-5.154,4.2-.263,30.189-2.325,30.189-2.325a2.679,2.679,0,0,1,.431,0m0-1.462a4.463,4.463,0,0,0-.585.037c-1.206.1-26.072,2.069-30.123,2.318h-.044c-19.434,1.747-28.39,3.656-33.2,4.694-.9.19-1.682.358-2.362.49a19.594,19.594,0,0,0-8.489,4.27c-.278.234-3.656,3.042-4.533,3.765a3.86,3.86,0,0,0-1.36,3.268v5.593l1.521-.066,15.354-.621c2.084,1.426,11.377,7.779,13.709,9.242a4.811,4.811,0,0,1,2.193,3.151c2.676,23.5,7.743,68.113,7.926,69.984v.921l.9.373a3.1,3.1,0,0,0,1.214.175l.439,8.774-.475.256-.044.826c0,.541-.673,13.336.49,23.338v.161a35.99,35.99,0,0,0,1.046,3.546c.154.68.8,1.96,3.429,2.04h4.672c1.769,0,3.773-.051,5.527-.051s2.844,0,3.6.073h.271c.322-.044,1.17-.146,3.765-2.354s2.734-2.925,2.793-3.283v-.08c.475-3.21.256-5.564-.658-6.975l-.139-.227L81.768,470a7.1,7.1,0,0,0-2.252-1l-2.559-16.122-.161-1.016-.914-.212-.227-.044c-.183-3.027-.409-6.931-.5-8.869,1.119-.314,1.755-.87,1.886-1.674v-.322c0-.665-3.934-66.731-4.058-70.094a6.123,6.123,0,0,1,.431-3.2L87.128,354l.234-.234.117-.314.1-.27c2.5-.3,11.515-1.382,12.473-1.565,1.66-.307,2.193-2.04,1.959-3.656l-.841-7.143v-.161a5.5,5.5,0,0,0-2.471-3.071,6.368,6.368,0,0,0-3.553-1.119Z" transform="translate(-14.432 -336.47)"/>
            <path id="Caminho_5128" data-name="Caminho 5128" d="M87.619,357.82l-24.515.95s-5.849.439-9.227.965c-4.387.534-38.187,5.337-38.187,5.337" transform="translate(-14.77 -342.21)" fill="none" stroke="#000" stroke-miterlimit="10" stroke-width="1"/>
            <path id="Caminho_5129" data-name="Caminho 5129" d="M16.14,354.886l41.346-5.849a112.3,112.3,0,0,1,15.581-1.572c9.739-.387,17.094-1.038,17.094-1.038s9.147-1.309,9.381-6.427" transform="translate(-14.891 -337.419)" fill="none" stroke="#000" stroke-miterlimit="10" stroke-width="1"/>
            <path id="Caminho_5130" data-name="Caminho 5130" d="M46.88,372.347l14.827-1.989a62.239,62.239,0,0,1,9.761-1.075c6.924-.388,16.816-.914,16.816-.914" transform="translate(-23.156 -345.047)" fill="none" stroke="#000" stroke-miterlimit="10" stroke-width="1"/>
            <path id="Caminho_5131" data-name="Caminho 5131" d="M74.64,481.8s7.991-.219,15.537-1.119" transform="translate(-30.62 -375.243)" fill="none" stroke="#000" stroke-miterlimit="10" stroke-width="1"/>
            <path id="Caminho_5132" data-name="Caminho 5132" d="M74.64,496.993s2.054,1.068,14.477,0a5.344,5.344,0,0,0,2.6-1.053" transform="translate(-30.62 -379.345)" fill="none" stroke="#000" stroke-miterlimit="10" stroke-width="1"/>
            <path id="Caminho_5133" data-name="Caminho 5133" d="M55.185,392.47l3.934-.285,7.136-.344s.366-4.065-1.784-4.021-5.63.175-5.63.175A4.162,4.162,0,0,0,55.185,392.47Z" transform="translate(-25.386 -350.276)" fill="#e6e6e6" stroke="#000" stroke-miterlimit="10" stroke-width="0.75"/>
            <path id="Caminho_5134" data-name="Caminho 5134" d="M66.484,393.68V396.6s.059,1.309-.731,1.418a29.011,29.011,0,0,1-3.144,0s-.322.124-.322-.621-.117-3.656-.117-3.656" transform="translate(-27.267 -351.852)" fill="#e6e6e6" stroke="#000" stroke-miterlimit="10" stroke-width="0.705"/>
            <path id="Caminho_5135" data-name="Caminho 5135" d="M65.628,385.855,65.5,381.38H62.36l.227,4.708" transform="translate(-27.318 -348.545)" fill="none" stroke="#000" stroke-miterlimit="10" stroke-width="0.722"/>
            <path id="Caminho_5136" data-name="Caminho 5136" d="M94.69,497.68l2.384,18.1,6-1.206" transform="translate(-36.011 -379.813)" fill="none" stroke="#000" stroke-miterlimit="10" stroke-width="1"/>
          </g>
          <path id="Caminho_5137" data-name="Caminho 5137" d="M90.288,77.508s-.833-6.127,2-8.043,7.158-4.774,12.773-1.163,25.093,16.326,37.544,16.97c6.9.256,17.547-.066,35.226-10.455,1.163-.578,6.127-1.608,7.743.322a14.515,14.515,0,0,1,3.736,11.23c-.322,6.259-4.036,28.251.907,43.093,1.587,3.743,2.34,13.117,2.34,13.117s.044,6.368-3.049,7.743c-2.369,1.119-4.518,1.974-6.28,1.287s-15.829-9.973-36.381-15.741c-5.937-.512-14.023-3.524-32.433,8.774-3.955,1.981-9.892,4.387-14.36,3.1-4.131-1.806-7.487-4.562-6.887-10.068s1.294-28.127-.424-40.512S90.288,77.508,90.288,77.508Z" transform="translate(-25.002 -18.992)" fill="#fff" stroke="#000" stroke-miterlimit="10" stroke-width="1"/>
          <path id="Caminho_5138" data-name="Caminho 5138" d="M115.923,145.2s4.73-15.873,1.25-32.77-3.612-21.166-9.417-31.87c-2.713-4.906-6.163-12.188-10.7-12.48" transform="translate(-26.854 -19.397)" fill="none" stroke="#000" stroke-miterlimit="10" stroke-width="1"/>
          <path id="Caminho_5139" data-name="Caminho 5139" d="M207.89,150.546a37.932,37.932,0,0,0,7.677-20.947c.775-11.764,1.66-33.632,1.857-42.53a24.909,24.909,0,0,0-.68-6.434,9.613,9.613,0,0,0-1.557-3.714" transform="translate(-56.652 -21.774)" fill="none" stroke="#000" stroke-miterlimit="10" stroke-width="1"/>
        </g>
      </g>
    </g>
  </g>
</svg>
