<svg xmlns="http://www.w3.org/2000/svg" xmlns:xlink="http://www.w3.org/1999/xlink" width="189" height="189" viewBox="0 0 189 189">
  <defs>
    <clipPath id="clip-path">
      <circle id="Elipse_91" data-name="Elipse 91" cx="93.202" cy="93.202" r="93.202" transform="translate(301 2000)" fill="#fff" stroke="#707070" stroke-width="0.4"/>
    </clipPath>
  </defs>
  <g id="Agrupar_378" data-name="Agrupar 378" transform="translate(-209 -1995)">
    <g id="Elipse_90" data-name="Elipse 90" transform="translate(209 1995)" fill="#fff" stroke="#707070" stroke-width="1">
      <circle cx="94.5" cy="94.5" r="94.5" stroke="none"/>
      <circle cx="94.5" cy="94.5" r="94" fill="none"/>
    </g>
    <g id="Grupo_de_máscara_13" data-name="Grupo de máscara 13" transform="translate(-90.702 -3.702)" clip-path="url(#clip-path)">
      <g id="pandora_deitadaDT3_" data-name="pandora deitadaDT3 " transform="translate(304.669 2027.595)">
        <g id="Camada_5" data-name="Camada 5" transform="translate(-32 -50)">
          <rect id="Retângulo_219" data-name="Retângulo 219" width="283.065" height="267.212" fill="#fff"/>
          <g id="base" transform="translate(132.322 177.882)">
            <path id="Caminho_5249" data-name="Caminho 5249" d="M124.788,139.691v9.952h4.164v-9.848" transform="translate(-58.765 -80.609)" fill="#fff" stroke="#000" stroke-miterlimit="10" stroke-width="0.729"/>
            <path id="Caminho_5250" data-name="Caminho 5250" d="M125.518,141.034h-2.324a30.073,30.073,0,0,0-.689,6.893,24.972,24.972,0,0,0,.689,6.066h2.2Z" transform="translate(-59.495 -80.18)" fill="#fff" stroke="#000" stroke-miterlimit="10" stroke-width="0.729"/>
            <path id="Caminho_5251" data-name="Caminho 5251" d="M127.945,141.034h2.321a29.914,29.914,0,0,1,.689,6.893,24.79,24.79,0,0,1-.689,6.066h-2.2Z" transform="translate(-57.757 -80.18)" fill="#fff" stroke="#000" stroke-miterlimit="10" stroke-width="0.729"/>
            <path id="Caminho_5252" data-name="Caminho 5252" d="M102.05,122.773s-3.8.425-3.849.936-1.844,9.943,1.924,9.906,6.333-1.043,6.574-1.646S102.05,122.773,102.05,122.773Z" transform="translate(-67.407 -86.013)" fill="#fff" stroke="#000" stroke-miterlimit="10" stroke-width="0.486"/>
            <path id="Caminho_5253" data-name="Caminho 5253" d="M153,122.337a10.6,10.6,0,0,1,3,.537,5.91,5.91,0,0,1,1.746,1.284s-.862,8.309-1.358,8.616-2.671.574-6.255,0,.376-10.184.376-10.184Z" transform="translate(-51.151 -86.152)" fill="#fff" stroke="#000" stroke-miterlimit="10" stroke-width="0.486"/>
            <path id="Caminho_5254" data-name="Caminho 5254" d="M136.254,132.051l.75,14.22,4.061,1.178,4.064-.862.747-14.541s1.606-1.071,7.166-.428,42.018,3.734,42.018,3.734v.982s2.352.537,3.53.64a8.978,8.978,0,0,0,1.924,0l1.815-.64-.373-6.095L184.8,126.767l-15.075-2.838,4.219-.264.322.574,1.5-.574-.213-3.7-2.137-2.78-25.762,1.29-13.257.319-17.161-.531-.574-.431-6.953-.319-1.548.373-1.393,2.191-.264.643v3.636l4.328.213L97.139,127.4l-.962-.27-14.754,3-.373.428-.767.322-.322,6.683,5.563.319,1.723-.862-.106-.91,45.7-4.541S135.613,131.089,136.254,132.051Z" transform="translate(-73.082 -87.798)" fill="#fff" stroke="#000" stroke-miterlimit="10" stroke-width="0.729"/>
            <line id="Linha_731" data-name="Linha 731" x1="23.657" y2="4.837" transform="translate(37.725 31.932)" fill="none" stroke="#000" stroke-miterlimit="10" stroke-width="0.729"/>
            <line id="Linha_732" data-name="Linha 732" x2="21.627" y2="4.193" transform="translate(75.013 31.932)" fill="none" stroke="#000" stroke-miterlimit="10" stroke-width="0.729"/>
            <path id="Caminho_5255" data-name="Caminho 5255" d="M123.027,136.645l2.573-2.338h3.369l2.634,2.338" transform="translate(-59.328 -82.329)" fill="#fff" stroke="#000" stroke-miterlimit="10" stroke-width="0.729"/>
            <path id="Caminho_5256" data-name="Caminho 5256" d="M123.027,132.1l2.68-2.349h3.366l2.53,2.349" transform="translate(-59.328 -83.785)" fill="#fff" stroke="#000" stroke-miterlimit="10" stroke-width="0.729"/>
            <line id="Linha_733" data-name="Linha 733" x1="0.055" y1="19.165" transform="translate(66.218 32.813)" fill="none" stroke="#000" stroke-miterlimit="10" stroke-width="0.729"/>
            <line id="Linha_734" data-name="Linha 734" x1="0.055" y2="19.165" transform="translate(69.639 32.813)" fill="none" stroke="#000" stroke-miterlimit="10" stroke-width="0.729"/>
            <line id="Linha_735" data-name="Linha 735" x1="19.464" y2="1.31" transform="translate(83 32.17)" fill="none" stroke="#000" stroke-miterlimit="10" stroke-width="0.729"/>
            <line id="Linha_736" data-name="Linha 736" x2="1.775" y2="2.93" transform="translate(93.216 29.746)" fill="none" stroke="#000" stroke-miterlimit="10" stroke-width="0.729"/>
            <path id="Caminho_5257" data-name="Caminho 5257" d="M172.928,127.074l-2.082,2.085v4.7" transform="translate(-44.055 -84.639)" fill="#fff" stroke="#000" stroke-miterlimit="10" stroke-width="0.729"/>
            <path id="Caminho_5258" data-name="Caminho 5258" d="M129.933,130.243s-.4-6.319.887-7,5.744-.264,5.744-.264l47.363,7.531" transform="translate(-57.14 -85.99)" fill="none" stroke="#000" stroke-miterlimit="10" stroke-width="0.729"/>
            <path id="Caminho_5259" data-name="Caminho 5259" d="M136.176,130.33s.534-7.645,0-7.755-10.957,1.548-10.957,1.548l-29.083,5.457-13.685,2.734L80.2,129.156" transform="translate(-73.005 -86.077)" fill="none" stroke="#000" stroke-miterlimit="10" stroke-width="0.729"/>
            <line id="Linha_737" data-name="Linha 737" x2="1.792" y2="3.395" transform="translate(24.039 39.603)" fill="none" stroke="#000" stroke-miterlimit="10" stroke-width="0.729"/>
            <path id="Caminho_5260" data-name="Caminho 5260" d="M100.26,119.917l7.327.75,1.709-2.513.859-.48" transform="translate(-66.599 -87.641)" fill="#fff" stroke="#000" stroke-miterlimit="10" stroke-width="0.729"/>
            <line id="Linha_738" data-name="Linha 738" x1="9.978" y1="1.031" transform="translate(40.987 33.029)" fill="none" stroke="#000" stroke-miterlimit="10" stroke-width="0.729"/>
            <path id="Caminho_5261" data-name="Caminho 5261" d="M121.216,122.58a17.3,17.3,0,0,0,6.761,1.683,14.935,14.935,0,0,0,6.23-1.468l-1.06-17.477a18.782,18.782,0,0,1-5.434,1.2c-2.324,0-5.853-.161-5.853-.962S121.216,122.58,121.216,122.58Z" transform="translate(-59.906 -91.587)" fill="#fff" stroke="#000" stroke-miterlimit="10" stroke-width="0.729"/>
            <path id="Caminho_5262" data-name="Caminho 5262" d="M86.876,133.056l.348,6.893s.416,6.468-5.9,6.468a6.07,6.07,0,0,1-5.744-3.383,7.33,7.33,0,0,1-.08-6.606,5.379,5.379,0,0,1,3.625-3,7.241,7.241,0,0,1,3.734.319.287.287,0,0,0,.4-.118.27.27,0,0,0,.029-.149l-.04-.643Z" transform="translate(-74.748 -82.798)" fill="#fff" stroke="#000" stroke-miterlimit="10" stroke-width="0.486"/>
            <path id="Caminho_5263" data-name="Caminho 5263" d="M74.886,141.11a6.447,6.447,0,0,1,4.17-7.18,6.251,6.251,0,0,1,7.467,3.05l.287.721" transform="translate(-74.728 -82.557)" fill="#fff" stroke="#000" stroke-miterlimit="10" stroke-width="0.486"/>
            <path id="Caminho_5264" data-name="Caminho 5264" d="M75.11,141.793a6.883,6.883,0,0,1,4.423-7.289c3.01-1.149,6.456,1.241,7.229,3.159l.287.721" transform="translate(-74.645 -82.362)" fill="#fff" stroke="#000" stroke-miterlimit="10" stroke-width="0.486"/>
            <path id="Caminho_5265" data-name="Caminho 5265" d="M77.911,135.933a.192.192,0,0,1,.261.04c.439.574,2.2,2.9,2.079,3.1s.123.4-2.108-.06l-1.841-.388c-.115-.02-.241-.158-.192-.264A7.22,7.22,0,0,1,77.911,135.933Z" transform="translate(-74.316 -81.82)" fill="#fff" stroke="#000" stroke-miterlimit="10" stroke-width="0.486"/>
            <path id="Caminho_5266" data-name="Caminho 5266" d="M81.339,135.21a.192.192,0,0,1,.135.23c-.172.7-.879,3.53-1.109,3.561s-.238.353-1.281-1.677l-.862-1.677c-.049-.1-.023-.287.089-.322A6.763,6.763,0,0,1,81.339,135.21Z" transform="translate(-73.645 -82.08)" fill="#fff" stroke="#000" stroke-miterlimit="10" stroke-width="0.486"/>
            <path id="Caminho_5267" data-name="Caminho 5267" d="M83.948,137.564a.187.187,0,0,1-.083.241,16.169,16.169,0,0,1-3.257,1.393c-.164-.146-.4.043.431-1.956.419-1.017.589-1.436.686-1.654.04-.1.192-.2.287-.135A6.861,6.861,0,0,1,83.948,137.564Z" transform="translate(-72.927 -81.969)" fill="#fff" stroke="#000" stroke-miterlimit="10" stroke-width="0.486"/>
            <path id="Caminho_5268" data-name="Caminho 5268" d="M76.73,141.581a.2.2,0,0,0,.264.049c.595-.4,3.007-2.048,2.955-2.272s.247-.345-2.01-.615l-1.873-.224c-.112,0-.287.075-.267.192A7.09,7.09,0,0,0,76.73,141.581Z" transform="translate(-74.412 -80.983)" fill="#fff" stroke="#000" stroke-miterlimit="10" stroke-width="0.486"/>
            <path id="Caminho_5269" data-name="Caminho 5269" d="M80.046,143.459a.192.192,0,0,0,.2-.169,18.365,18.365,0,0,0,.155-3.734c-.2-.112-.109-.414-1.763,1.149l-1.373,1.281c-.083.078-.121.261-.023.322A6.845,6.845,0,0,0,80.046,143.459Z" transform="translate(-73.968 -80.684)" fill="#fff" stroke="#000" stroke-miterlimit="10" stroke-width="0.486"/>
            <path id="Caminho_5270" data-name="Caminho 5270" d="M82.98,142.19a.181.181,0,0,0,0-.253,17.091,17.091,0,0,0-2.585-2.418c-.2.083-.362-.181-.264,1.985.049,1.1.072,1.542.08,1.789,0,.109.115.247.221.224A6.682,6.682,0,0,0,82.98,142.19Z" transform="translate(-73.037 -80.665)" fill="#fff" stroke="#000" stroke-miterlimit="10" stroke-width="0.486"/>
            <path id="Caminho_5271" data-name="Caminho 5271" d="M84.3,138.494a.187.187,0,0,0-.21-.144,17.6,17.6,0,0,0-3.446.775c-.037.2-.353.2,1.493,1.336l1.525.939a.253.253,0,0,0,.3-.052A6.973,6.973,0,0,0,84.3,138.494Z" transform="translate(-72.877 -81.038)" fill="#fff" stroke="#000" stroke-miterlimit="10" stroke-width="0.486"/>
            <path id="Caminho_5272" data-name="Caminho 5272" d="M168.6,132.133l-.342,6.893s-.416,6.465,5.9,6.465a6.045,6.045,0,0,0,5.744-3.383,7.338,7.338,0,0,0,.083-6.606,5.385,5.385,0,0,0-3.625-3,7.252,7.252,0,0,0-3.734.322.287.287,0,0,1-.4-.27l.04-.64Z" transform="translate(-44.884 -83.093)" fill="#fff" stroke="#000" stroke-miterlimit="10" stroke-width="0.486"/>
            <path id="Caminho_5273" data-name="Caminho 5273" d="M180.473,140.189a6.47,6.47,0,0,0-4.167-7.2,6.271,6.271,0,0,0-7.467,3.05l-.287.724" transform="translate(-44.788 -82.857)" fill="#fff" stroke="#000" stroke-miterlimit="10" stroke-width="0.486"/>
            <path id="Caminho_5274" data-name="Caminho 5274" d="M180.236,140.864a6.88,6.88,0,0,0-4.423-7.289c-3.007-1.149-6.454,1.241-7.232,3.159l-.287.724" transform="translate(-44.87 -82.659)" fill="#fff" stroke="#000" stroke-miterlimit="10" stroke-width="0.486"/>
            <path id="Caminho_5275" data-name="Caminho 5275" d="M175.552,135.008a.2.2,0,0,0-.264.037c-.436.574-2.2,2.9-2.076,3.1s-.123.408,2.105-.06l1.844-.385c.112-.023.238-.161.192-.267A7.094,7.094,0,0,0,175.552,135.008Z" transform="translate(-43.301 -82.116)" fill="#fff" stroke="#000" stroke-miterlimit="10" stroke-width="0.486"/>
            <path id="Caminho_5276" data-name="Caminho 5276" d="M171.911,134.272a.19.19,0,0,0-.135.227,18.1,18.1,0,0,0,1.106,3.564c.227.037.238.35,1.284-1.677l.862-1.68c.049-.1.02-.287-.092-.319A7.1,7.1,0,0,0,171.911,134.272Z" transform="translate(-43.759 -82.377)" fill="#fff" stroke="#000" stroke-miterlimit="10" stroke-width="0.486"/>
            <path id="Caminho_5277" data-name="Caminho 5277" d="M169.361,136.639a.181.181,0,0,0,.083.241,16.174,16.174,0,0,0,3.251,1.39c.161-.149.4.046-.425-1.956-.425-1.017-.595-1.436-.686-1.651-.046-.1-.192-.2-.287-.135A6.889,6.889,0,0,0,169.361,136.639Z" transform="translate(-44.535 -82.265)" fill="#fff" stroke="#000" stroke-miterlimit="10" stroke-width="0.486"/>
            <path id="Caminho_5278" data-name="Caminho 5278" d="M176.732,140.648a.2.2,0,0,1-.264.046c-.595-.4-3.007-2.048-2.955-2.269s-.247-.348,2.01-.617l1.87-.224c.115,0,.287.078.27.192A7.1,7.1,0,0,1,176.732,140.648Z" transform="translate(-43.203 -81.282)" fill="#fff" stroke="#000" stroke-miterlimit="10" stroke-width="0.486"/>
            <path id="Caminho_5279" data-name="Caminho 5279" d="M173.207,142.532a.187.187,0,0,1-.2-.172h0c-.075-.715-.359-3.622-.152-3.734s.106-.414,1.763,1.149l1.37,1.284c.086.08.118.261.026.322A6.832,6.832,0,0,1,173.207,142.532Z" transform="translate(-43.438 -80.981)" fill="#fff" stroke="#000" stroke-miterlimit="10" stroke-width="0.486"/>
            <path id="Caminho_5280" data-name="Caminho 5280" d="M170.181,141.27a.181.181,0,0,1,0-.253,16.985,16.985,0,0,1,2.585-2.421c.2.083.362-.178.264,1.987-.052,1.1-.072,1.539-.083,1.786,0,.112-.118.25-.221.221A7,7,0,0,1,170.181,141.27Z" transform="translate(-44.284 -80.96)" fill="#fff" stroke="#000" stroke-miterlimit="10" stroke-width="0.486"/>
            <path id="Caminho_5281" data-name="Caminho 5281" d="M169.059,137.569a.187.187,0,0,1,.21-.146,17.463,17.463,0,0,1,3.447.778c.037.2.348.2-1.5,1.333l-1.525.936a.244.244,0,0,1-.322-.057A7.111,7.111,0,0,1,169.059,137.569Z" transform="translate(-44.64 -81.334)" fill="#fff" stroke="#000" stroke-miterlimit="10" stroke-width="0.486"/>
            <path id="Caminho_5282" data-name="Caminho 5282" d="M121.7,105.729a19.026,19.026,0,0,1,11.287-.238" transform="translate(-59.75 -91.759)" fill="#fff" stroke="#000" stroke-miterlimit="10" stroke-width="0.729"/>
            <line id="Linha_739" data-name="Linha 739" y1="0.078" x2="8.694" transform="translate(63.453 7.617)" fill="none" stroke="#000" stroke-miterlimit="10" stroke-width="0.729"/>
            <line id="Linha_740" data-name="Linha 740" y1="0.078" x2="9.102" transform="translate(63.217 7.694)" fill="none" stroke="#000" stroke-miterlimit="10" stroke-width="0.729"/>
            <path id="Caminho_5283" data-name="Caminho 5283" d="M122.735,107.1l.267-6.2h8.418l.218,5.681S129.043,108.687,122.735,107.1Z" transform="translate(-59.421 -93)" fill="#fff" stroke="#000" stroke-miterlimit="10" stroke-width="0.729"/>
            <path id="Caminho_5284" data-name="Caminho 5284" d="M124.061,102.807v-7.9l5.773.48-.161,7.416Z" transform="translate(-58.997 -94.911)" fill="#fff" stroke="#000" stroke-miterlimit="10" stroke-width="0.729"/>
          </g>
          <g id="Lateral" transform="translate(39.83 76.199)">
            <path id="Caminho_5285" data-name="Caminho 5285" d="M132.133,94.863l1.8,6.456-.64,1.149,1.4,6.5s5.374,1.31,9.42-1.571l-1.359-7.367-1.436-.477-1.6-5.7Z" transform="translate(36.073 6.436)" fill="#fff" stroke="#000" stroke-miterlimit="10" stroke-width="0.729"/>
            <g id="Camada_12" data-name="Camada 12">
              <path id="Caminho_5286" data-name="Caminho 5286" d="M132.618,85.777s-.462,9.478,0,9.722.775,1.028,5.96.721,4.564-.359,5.414-.721-.46-10.42-.46-10.42-.9.62-4.093.62a43.543,43.543,0,0,1-6.551-.21C132.431,85.28,132.618,85.777,132.618,85.777Z" transform="translate(36.162 3.632)" fill="#fff" stroke="#000" stroke-miterlimit="10" stroke-width="0.729"/>
              <path id="Caminho_5287" data-name="Caminho 5287" d="M136.243,91.643h10.934l-.724-28.571,7.944-6.551,17.017-.773V53.735l-4.641-3.093h-4.328l-20.323.824-16.661.977-5,3.148v1.959l5.055.1,8.817,5.827Z" transform="translate(32.345 -7.367)" fill="#bfbfbf" stroke="#000" stroke-miterlimit="10" stroke-width="0.729"/>
              <path id="Caminho_5288" data-name="Caminho 5288" d="M120.461,54.841l48.17-1.6,2.783-.258" transform="translate(32.345 -6.618)" fill="#fff" stroke="#000" stroke-miterlimit="10" stroke-width="0.729"/>
              <line id="Linha_741" data-name="Linha 741" y1="1.132" x2="28.882" transform="translate(157.86 49.153)" fill="none" stroke="#000" stroke-miterlimit="10" stroke-width="0.729"/>
              <line id="Linha_742" data-name="Linha 742" y1="0.353" x2="20.969" transform="translate(161.726 52.488)" fill="none" stroke="#000" stroke-miterlimit="10" stroke-width="0.729"/>
              <path id="Caminho_5289" data-name="Caminho 5289" d="M142.565,86.152l-.207-4.434h-9.076v4.957S141.442,87.12,142.565,86.152Z" transform="translate(36.44 2.558)" fill="#fff" stroke="#000" stroke-miterlimit="10" stroke-width="0.729"/>
              <g id="Camada_11" data-name="Camada 11">
                <path id="Caminho_5290" data-name="Caminho 5290" d="M134.793,117.286l28.933-1.229,1.631-2.674-4.492-7.212a17.483,17.483,0,0,1-8.114-3.481c-3.559-2.941-3.4-5.879-6.031-7.815a18.2,18.2,0,0,0-3.059-1.775,9.82,9.82,0,0,0-9.053.319,10.564,10.564,0,0,0-4.7,6.095,82.352,82.352,0,0,0,.862,9.544c.773,5,1.031,6.186,1.031,6.186l2.99,2.065s0,4.075,3.714,4.021,61.816-4.463,61.816-4.463l28.867-.747s4.076-.258,4.127-5,3.205-8.872,3.205-10.368,1.393-4.538-1.7-7.7-5.457-3.1-7.43-6.238-19.134-.414-19.134-.414-6.758-2.527-12.789-2.272A58.657,58.657,0,0,0,174.319,89.9c-6.39,3.205-13.7,4.11-15.564,4.377-1.307.187-6.8.807-11.3,1.235a11.076,11.076,0,0,0-2.783-1.91,11.908,11.908,0,0,0-2.909-1.178c-1.531-5.744-5.015-16.107-8.5-20.211-2.642-3.1-5.69-6.948-13.631-8.214s-20.57-1.723-20.57-1.723S86.56,60.149,80.979,55.221,69.856,42.552,67.429,40.358s-6.221-4.248-12.376-4.124l-2.174.236s-2.795-3.179-9.524-3.182L24.727,22.338a36.833,36.833,0,0,0-11.9-4.2c-6.054-.79-6.514,0-7.568,2.346s-.928,4.061,1.775,6.031S28.845,43.126,28.845,43.126l3.768,1.861L45.825,58.722,52.319,66.1a67.082,67.082,0,0,0,8.073,7.755A101.081,101.081,0,0,0,71.369,81.8c6.787,4.035,17.807,9.966,17.807,9.966l23.453,10.627,10.529,4.6a82.845,82.845,0,0,0,6.876,6.672c3.849,3.294,4.811,4.021,4.811,4.021" transform="translate(-4.645 -17.843)" fill="#fff" stroke="#000" stroke-miterlimit="10" stroke-width="0.729"/>
                <path id="Caminho_5291" data-name="Caminho 5291" d="M193.171,98.249s1.459-5.17-2.332-11.586S177.07,75.523,168.018,74.049s-22.046.62-33.652,6.893-15.986,5.293-15.986,5.293" transform="translate(31.68 -0.035)" fill="none" stroke="#000" stroke-miterlimit="10" stroke-width="0.729"/>
                <path id="Caminho_5292" data-name="Caminho 5292" d="M192.5,96.051s-2.114-12.3-15.222-20.208-34.64-1.861-46.22,5.17" transform="translate(35.73 -0.511)" fill="none" stroke="#000" stroke-miterlimit="10" stroke-width="0.729"/>
                <path id="Caminho_5293" data-name="Caminho 5293" d="M181.488,73.188a64.426,64.426,0,0,0-9.446-.465,84.425,84.425,0,0,0-9.446.81" transform="translate(45.802 -0.32)" fill="none" stroke="#000" stroke-miterlimit="10" stroke-width="0.729"/>
                <path id="Caminho_5294" data-name="Caminho 5294" d="M108.321,89.618l1.8.5,1.381-.445,2.74,1.534,6,.528,1.376-2.984-3.874-4.144-3.757-1.146-.827-2.545-7.137-3.708L85.651,67.733l-6.278-2.183-.864.813-2.461,5.9,4.885,4.472,21.294,9.179Z" transform="translate(18.16 -2.605)" fill="#fff" stroke="#000" stroke-miterlimit="10" stroke-width="0.729"/>
                <path id="Caminho_5295" data-name="Caminho 5295" d="M100.508,85.487l3.32-7,2.344.844" transform="translate(25.972 1.526)" fill="none" stroke="#000" stroke-miterlimit="10" stroke-width="0.729"/>
                <path id="Caminho_5296" data-name="Caminho 5296" d="M110.859,82.619l-6.58-3.943L83.614,69.261,78.5,67.337l.095-1.786" transform="translate(18.942 -2.605)" fill="#fff" stroke="#000" stroke-miterlimit="10" stroke-width="0.729"/>
                <line id="Linha_743" data-name="Linha 743" y1="7.476" x2="3.461" transform="translate(99.092 66.656)" fill="none" stroke="#000" stroke-miterlimit="10" stroke-width="0.729"/>
                <line id="Linha_744" data-name="Linha 744" y1="7.054" x2="3.26" transform="translate(119.958 76.07)" fill="none" stroke="#000" stroke-miterlimit="10" stroke-width="0.729"/>
                <path id="Caminho_5297" data-name="Caminho 5297" d="M6.089,18.69s26.021,15.6,27.339,15.584a58.841,58.841,0,0,0,9.917-1.281c4.021-.9,8.3,1.924,9.524,3.182S60.735,45.409,65.75,51.2,79.792,62.193,88.744,63.486,115.187,66.407,120.2,68.2s10.138,5.6,12.471,9.076c2.565,3.817,4.078,11.549,3.573,15,.132-6.031-5.822-12.864-5.822-12.864C120.707,68.788,106.419,71.261,91,67.665A62.943,62.943,0,0,1,61.741,52.2c-4.561-4.245-6.517-9.5-13.252-13.912s-14.8,2.705-17.149,2.568S4.65,22.7,4.65,22.7" transform="translate(-4.644 -17.572)" fill="none" stroke="#000" stroke-miterlimit="10" stroke-width="0.729"/>
              </g>
              <path id="Caminho_5298" data-name="Caminho 5298" d="M115.243,80.665l6.712-.7.078.635a8.849,8.849,0,0,0,.715,2.585l.319.712" transform="translate(30.678 1.999)" fill="#fff" stroke="#000" stroke-miterlimit="10" stroke-width="0.729"/>
              <path id="Caminho_5299" data-name="Caminho 5299" d="M120.128,80.138l12.608-1.08,2.28,4.216s-.574-.123-2.01.73-1.924-.192-3.093-.385-2.2,1.008-3.208.887-1.2-1.117-2.55-1-1.875,1.255-2.525,1.014S120.128,80.138,120.128,80.138Z" transform="translate(32.238 1.709)" fill="#fff" stroke="#000" stroke-linejoin="round" stroke-width="0.729"/>
              <path id="Caminho_5300" data-name="Caminho 5300" d="M142.424,88.482s-.462,9.463,0,9.722.775,1.028,5.96.721,4.564-.359,5.414-.721-.474-10.42-.474-10.42-.9.62-4.1.62a43.545,43.545,0,0,1-6.551-.21C142.218,87.986,142.424,88.482,142.424,88.482Z" transform="translate(39.294 4.496)" fill="#fff" stroke="#000" stroke-miterlimit="10" stroke-width="0.729"/>
              <path id="Caminho_5301" data-name="Caminho 5301" d="M146.038,94.349h10.934l-.721-28.571,7.941-6.551,17.02-.773V56.44l-4.641-3.093H172.24l-20.323.824-16.658.977-5,3.148v1.962l5.058.1,8.817,5.827Z" transform="translate(35.473 -6.503)" fill="#fff" stroke="#000" stroke-miterlimit="10" stroke-width="0.729"/>
              <path id="Caminho_5302" data-name="Caminho 5302" d="M130.256,57.547l48.173-1.6,2.783-.258" transform="translate(35.473 -5.754)" fill="#fff" stroke="#000" stroke-miterlimit="10" stroke-width="0.729"/>
              <line id="Linha_745" data-name="Linha 745" y1="1.132" x2="28.879" transform="translate(170.788 52.723)" fill="none" stroke="#000" stroke-miterlimit="10" stroke-width="0.729"/>
              <line id="Linha_746" data-name="Linha 746" y1="0.353" x2="20.972" transform="translate(174.651 56.058)" fill="none" stroke="#000" stroke-miterlimit="10" stroke-width="0.729"/>
              <path id="Caminho_5303" data-name="Caminho 5303" d="M152.363,88.858l-.207-4.434H143.08v4.957S151.24,89.826,152.363,88.858Z" transform="translate(39.569 3.422)" fill="#fff" stroke="#000" stroke-miterlimit="10" stroke-width="0.729"/>
            </g>
            <g id="Frontal" transform="translate(151.889 101.684)">
              <g id="diagonal">
                <g id="braços">
                  <path id="Caminho_5304" data-name="Caminho 5304" d="M125.559,102.224c-.161-.023-1.672-.649-1.672-.649l-3.561,6.657a4.6,4.6,0,0,0-.557,1.97,1.866,1.866,0,0,0,1.3,2.151c1.358.322,2.5-2.935,2.5-2.935Z" transform="translate(-119.766 -92.783)" fill="#fff" stroke="#000" stroke-miterlimit="10" stroke-width="0.729"/>
                  <path id="Caminho_5305" data-name="Caminho 5305" d="M123.173,103.855l3.6-8.849,1.152-.095L124.2,104.26Z" transform="translate(-118.678 -94.911)" fill="#fff" stroke="#000" stroke-miterlimit="10" stroke-width="0.729"/>
                </g>
              </g>
            </g>
          </g>
        </g>
      </g>
    </g>
  </g>
</svg>
