<svg xmlns="http://www.w3.org/2000/svg" viewBox="0 0 154.49 359.47"><defs><style>.cls-1{fill:#fff;}.cls-2{fill:#686868;opacity:0.5;}.cls-10,.cls-3,.cls-5,.cls-6,.cls-8,.cls-9{fill:none;stroke-miterlimit:10;}.cls-10,.cls-3,.cls-8,.cls-9{stroke:#686868;}.cls-3{stroke-width:0.33px;fill-rule:evenodd;}.cls-4{font-size:15px;font-family:MyriadPro-Regular, Myriad Pro;}.cls-4,.cls-7{fill:#b5221d;}.cls-5,.cls-6{stroke:#b5221d;}.cls-5{stroke-width:1.05px;}.cls-6{stroke-width:1.5px;}.cls-8{stroke-width:1.84px;}.cls-9{stroke-width:0.88px;}.cls-10{stroke-width:0.66px;}</style></defs><title>frontal</title><g id="Camada_2" data-name="Camada 2"><g id="Camada_1-2" data-name="Camada 1"><polygon class="cls-1" points="5.01 14.64 19.84 4.89 26.2 6.41 29.41 4.17 127.74 4.08 129.92 6.8 135.02 4.3 150.73 14.1 148.6 326.22 129.47 331.77 26.91 331.77 5.76 327.69 5.01 14.64"/><path class="cls-2" d="M128.14,47.62S24.79,305.71,24.89,305.85s103.58-.24,103.58-.24Z"/><polygon class="cls-3" points="76.3 273.83 77.67 267.91 79.99 267.91 78.62 273.83 76.3 273.83 76.3 273.83"/><path class="cls-3" d="M82.3,267.42l-7,0,.44-1.9c0-.2.1-.32.3-.31h8.25Z"/><path class="cls-3" d="M73.46,273.83H67.32l1.35-6h2.17L70,271.69h3.27l-1.87-4.31h-2.6l.48-2.13h2.91a1.23,1.23,0,0,1,1.25.79c.28.58.56,1.15.85,1.72.43.9.78,1.69,1,2.4a3.94,3.94,0,0,1,.37,1.89,2.27,2.27,0,0,1-.82,1.25A2.2,2.2,0,0,1,73.46,273.83Z"/><path class="cls-3" d="M82.77,267.5,85,265.25h4.28a.75.75,0,0,1,.65.37.86.86,0,0,1,.05.76l-.36,1.07-6.88.05Zm3.79,6.33H81.68l-.69-2,4.43,0L84,269.45l1.93-1.54,3,0-2,1.54q.48.81,1,1.62a1.72,1.72,0,0,1,.26,1.14l-.22.63a1.44,1.44,0,0,1-.57.76A1.19,1.19,0,0,1,86.56,273.83Z"/><polygon class="cls-3" points="81.18 274.25 83.33 274.25 83.08 275.75 80.94 275.75 81.18 274.25"/><polygon class="cls-3" points="83.62 274.26 85.14 274.26 84.88 275.76 83.37 275.76 83.62 274.26"/><polygon class="cls-3" points="85.39 274.27 86.53 274.27 86.27 275.77 85.13 275.77 85.39 274.27"/><path class="cls-3" d="M86.78,274.26h.85l-.28,1.48h-.86Z"/><polygon class="cls-3" points="87.93 274.27 88.51 274.27 88.19 275.77 87.61 275.77 87.93 274.27"/><polygon class="cls-3" points="88.8 274.27 89.18 274.27 88.87 275.77 88.49 275.77 88.8 274.27"/><path class="cls-3" d="M69.34,274.25h0l-.08.39a0,0,0,0,1,0,0H67.68l0,.13h1.58l-.19.95H66.93l.08-.4s0,0,0,0h1.57l0-.13H67s0,0,0,0l.18-.94h2.12Zm.18,0-.3,1.49h.54l.11-.54h1.58l.19-.94H69.52Zm.43.54,0-.14h1l0,.14Zm4-.55h0l-.3,1.49H71.51l.3-1.49h2.11Zm-1.79,1.09h1.05l.13-.68h-1l-.14.68Zm2-1.08-.3,1.49h.54l.11-.53.43.24.52.29h.53l0-.19s-.22-.13-.62-.35H76l.18-.94H74.1Zm.43.54,0-.14h1l0,.14Zm2.55-.13h-.77l.08-.4h2.13l-.09.4h-.78l-.21,1.08h-.57l.21-1.08Zm3.72-.42H78.68l-.19.94h1.59l0,.13H78.47l-.08.4h2.12l.19-.95H79.12l0-.13h1.58a0,0,0,0,0,0,0l.08-.39Z"/><text class="cls-4" transform="translate(53.6 349.41)">22,5cm</text><line class="cls-5" x1="10.54" y1="352.39" x2="139.68" y2="352.39"/><line class="cls-6" x1="8.15" y1="359.47" x2="8.15" y2="345.31"/><polygon class="cls-7" points="8.57 352.39 20.83 359.47 20.83 345.31 8.57 352.39"/><line class="cls-6" x1="146.22" y1="359.47" x2="146.22" y2="345.31"/><polygon class="cls-7" points="145.81 352.39 133.54 359.47 133.54 345.31 145.81 352.39"/><polygon class="cls-8" points="6.36 327.71 25.45 331.77 25.45 6.8 19.68 4.17 4.32 14.12 6.36 327.71"/><polygon class="cls-9" points="9.49 18.54 17.61 12.62 17.61 28.2 9.49 27.43 9.49 18.54"/><polygon class="cls-9" points="7.46 17.99 19.42 9.38 22.98 14.21 23.31 31.27 19.36 36.59 7.46 35.11 7.46 17.99"/><polygon class="cls-9" points="8.56 62.43 16.24 56.06 16.46 286.5 8.56 278.6 8.56 62.43"/><polygon class="cls-8" points="148.13 326.51 129.04 331.77 129.04 6.8 134.82 4.17 150.18 14.12 148.13 326.51"/><polygon class="cls-9" points="145 18.54 136.88 12.62 136.88 28.2 145 27.43 145 18.54"/><polygon class="cls-9" points="147.03 17.99 135.07 9.38 131.51 14.21 131.18 31.27 135.13 36.59 147.03 35.11 147.03 17.99"/><polygon class="cls-9" points="145.94 62.43 138.25 56.06 138.03 286.5 145.94 278.6 145.94 62.43"/><line class="cls-8" x1="25.45" y1="331.77" x2="129.04" y2="331.77"/><line class="cls-8" x1="25.45" y1="46.88" x2="129.04" y2="46.88"/><line class="cls-8" x1="25.45" y1="305.66" x2="128.92" y2="305.66"/><polyline class="cls-8" points="25.45 6.8 27.72 4.17 127.05 4.17 129.04 6.8"/><polyline class="cls-9" points="37.19 4.17 37.19 0.44 44.21 0.44 44.21 4.17"/><polyline class="cls-9" points="108.94 4.17 108.94 0.44 115.97 0.44 115.97 4.17"/><circle class="cls-9" cx="40.81" cy="56.06" r="4.33"/><circle class="cls-9" cx="114.97" cy="56.06" r="4.33"/><circle class="cls-9" cx="40.81" cy="297.76" r="4.33"/><circle class="cls-9" cx="114.97" cy="297.76" r="4.33"/><polyline class="cls-9" points="4.52 46.08 19.6 42.72 25.45 45.79"/><polyline class="cls-9" points="129.04 45.26 135.66 42.19 149.98 44.65"/><line class="cls-9" x1="6.2" y1="302.81" x2="24.94" y2="309.17"/><line class="cls-9" x1="129.04" y1="309.5" x2="148.77" y2="302.81"/><path class="cls-10" d="M60.58,18.93H58.33l-1.19,0-1.4,2.42q2.1-.36,5.32-.94A6.66,6.66,0,0,0,60.58,18.93Z"/><path class="cls-10" d="M81,20.55s0,0,0,0L78.07,21c0,.1-.3,1.76-.79,5,0,0,0,0,0,0h6.78a7.37,7.37,0,0,0,.34-1.94v0h-4C80.82,21.77,81,20.61,81,20.55Z"/><path class="cls-10" d="M81.57,20.06a3.78,3.78,0,0,0,.2-1.09s0,0-.06,0h-2.8a13.24,13.24,0,0,0-.28,1.6l0,0Z"/><path class="cls-10" d="M88.75,20.06A3.39,3.39,0,0,0,89,19s0,0-.06,0H86.1a11.16,11.16,0,0,0-.28,1.6l0,0Z"/><path class="cls-10" d="M88.22,20.55s0,0,0,0L85.25,21c0,.1-.3,1.76-.79,5,0,0,0,0,.06,0h6.77a7.37,7.37,0,0,0,.34-1.94v0h-4C88,21.77,88.2,20.61,88.22,20.55Z"/><path class="cls-10" d="M73.64,18.93h-.59a7.76,7.76,0,0,0-1.42.12,4.89,4.89,0,0,0-1.83.73l0,0a1.66,1.66,0,0,0-.58-.53,4.71,4.71,0,0,0-2.29-.36H63c0,.15-.37,2.24-1,6.28L60.81,21c-.07,0-1.71.25-4.91.75-.12.15-1,1.55-2.63,4.21a.05.05,0,0,0,.06.06h2.85a4.46,4.46,0,0,0,.62-1.13h2.63s.07.13.14.4c.06.48.12.73.2.73h4.94l.05,0s.15-.86.4-2.51h1.3a5.23,5.23,0,0,0,1.71-.28,4.27,4.27,0,0,0,.16.95q2.78-.48,2.82-.51a2.67,2.67,0,0,1-.08-.58V23a3.78,3.78,0,0,1,.06-.61c.23-1.1.81-1.66,1.75-1.66h.17a1.47,1.47,0,0,1,.33,0,1.06,1.06,0,0,1,.91,1.13v.06a4.47,4.47,0,0,1-.2,1.18l0,0,3-.54a2.38,2.38,0,0,0,.1-.8v0a2.84,2.84,0,0,0-.34-1.42C76.32,19.41,75.25,18.93,73.64,18.93ZM57.73,23.14c.6-1.11.92-1.72,1-1.82h0c.21,1,.34,1.64.4,1.82Zm8.13-1.3h-.45c.13-.71.2-1.13.2-1.25h.62q.93,0,.93.54C67.16,21.6,66.73,21.84,65.86,21.84Z"/><path class="cls-10" d="M72.45,24.27h-.11a1.3,1.3,0,0,1-1-.34c-.06,0-1,.17-2.94.5a1.93,1.93,0,0,0,.75.94,5,5,0,0,0,2.67.64h.59a5,5,0,0,0,3.11-.85A3.89,3.89,0,0,0,77,23l-3.12.52A1.62,1.62,0,0,1,72.45,24.27Z"/><path class="cls-10" d="M100.74,20.37c-.55-.95-1.65-1.43-3.29-1.43h-.57a7.57,7.57,0,0,0-1.41.12,5,5,0,0,0-1.84.72A4,4,0,0,0,92,23a4.63,4.63,0,0,0,.17,1.07q2.76-.46,2.82-.51A2.09,2.09,0,0,1,94.9,23v-.1a3.57,3.57,0,0,1,.06-.6c.23-1.09.81-1.64,1.75-1.64h.17a2.43,2.43,0,0,1,.33,0,1.05,1.05,0,0,1,.91,1.11v.11a4.15,4.15,0,0,1-.21,1.18l0,0,3-.54a2.62,2.62,0,0,0,.09-.8v0A2.74,2.74,0,0,0,100.74,20.37Z"/><path class="cls-10" d="M96.19,24.31h-.11a1.26,1.26,0,0,1-1-.34c-.06,0-1,.17-2.92.5a1.9,1.9,0,0,0,.74.94A5.09,5.09,0,0,0,95.6,26h.59a4.92,4.92,0,0,0,3.09-.85A3.82,3.82,0,0,0,100.75,23l-3.1.52A1.61,1.61,0,0,1,96.19,24.31Z"/><polyline class="cls-9" points="4.32 38.73 0.44 38.73 0.44 47.73 4.32 47.73"/><polyline class="cls-9" points="6.25 308.29 2.38 308.29 2.38 317.29 6.25 317.29"/><polyline class="cls-9" points="148.24 316.06 152.12 316.06 152.12 307.07 148.24 307.07"/><polyline class="cls-9" points="150.18 46.5 154.05 46.5 154.05 37.5 150.18 37.5"/></g></g></svg>