<svg xmlns="http://www.w3.org/2000/svg" viewBox="0 0 332.78 352.04"><defs><style>.cls-1{fill:#fff;}.cls-2{font-size:15px;font-family:MyriadPro-Regular, Myriad Pro;}.cls-2,.cls-5{fill:#b5221d;}.cls-10,.cls-11,.cls-3,.cls-4,.cls-6,.cls-7,.cls-8,.cls-9{fill:none;stroke-miterlimit:10;}.cls-3,.cls-4,.cls-6{stroke:#b5221d;}.cls-3{stroke-width:1.48px;}.cls-4{stroke-width:1.5px;}.cls-6{stroke-width:1.62px;}.cls-10,.cls-11,.cls-7,.cls-8,.cls-9{stroke:#686868;}.cls-7{stroke-width:2.1px;}.cls-8{stroke-width:0.71px;}.cls-9{stroke-width:0.59px;}.cls-10{stroke-width:0.57px;}.cls-11{stroke-width:0.3px;}.cls-12{fill:#686868;opacity:0.5;isolation:isolate;}</style></defs><title>lateral</title><g id="Camada_2" data-name="Camada 2"><g id="Camada_1-2" data-name="Camada 1"><polygon class="cls-1" points="7.95 0.52 6.09 6.26 4.94 22.94 3.65 309.81 268.74 311.27 273.09 310.45 281.8 309.21 299.46 278.84 289.57 31.65 258.9 2.1 7.95 0.52"/><text class="cls-2" transform="translate(112.62 341.98)">44cm</text><line class="cls-3" x1="7.25" y1="344.96" x2="263.75" y2="344.96"/><line class="cls-4" x1="4.86" y1="352.04" x2="4.86" y2="337.88"/><polygon class="cls-5" points="5.27 344.96 17.54 352.04 17.54 337.88 5.27 344.96"/><line class="cls-4" x1="267.14" y1="352.04" x2="267.14" y2="337.88"/><polygon class="cls-5" points="266.73 344.96 254.47 352.04 254.47 337.88 266.73 344.96"/><text class="cls-2" transform="translate(320.72 178.81) rotate(-90)">48cm</text><line class="cls-6" x1="325.71" y1="316.47" x2="325.71" y2="7.6"/><line class="cls-4" x1="332.78" y1="318.85" x2="318.63" y2="318.85"/><polygon class="cls-5" points="325.71 318.44 332.79 306.18 318.63 306.18 325.71 318.44"/><line class="cls-4" x1="332.78" y1="3.05" x2="318.63" y2="3.05"/><polygon class="cls-5" points="325.71 3.46 332.79 15.73 318.63 15.73 325.71 3.46"/><line class="cls-7" x1="156.26" y1="39.19" x2="49.3" y2="146.14"/><line class="cls-7" x1="111.73" y1="112.21" x2="4.77" y2="219.16"/><line class="cls-7" x1="153.97" y1="258.02" x2="260.93" y2="151.06"/><line class="cls-7" x1="124.86" y1="258.63" x2="231.82" y2="151.67"/><polygon class="cls-7" points="7.95 1.05 6.09 6.8 4.94 23.48 3.65 310.34 268.74 311.81 273.09 310.99 281.8 309.75 299.46 279.38 289.57 32.19 258.9 2.64 7.95 1.05"/><polyline class="cls-8" points="5.01 22.45 266.44 24.18 268.74 311.81"/><line class="cls-8" x1="21.17" y1="33.72" x2="249.67" y2="35.13"/><line class="cls-8" x1="256.55" y1="40.45" x2="258.32" y2="295.38"/><line class="cls-8" x1="20.31" y1="301.22" x2="252.94" y2="302.81"/><line class="cls-8" x1="14.25" y1="293.82" x2="15.18" y2="40.2"/><path class="cls-8" d="M12.06,33.46a1.57,1.57,0,0,1,1,1.23c0,.86-.24,5.27,3,5.71s4.94-.71,5.06-2.91a39.56,39.56,0,0,0,0-4.62H12.06Z"/><path class="cls-8" d="M258.8,34.3a1.61,1.61,0,0,0-1,1.24c0,.86.23,5.27-3,5.71s-4.94-.71-5.06-2.91a39.56,39.56,0,0,1,0-4.62h9.06Z"/><path class="cls-8" d="M262.09,302.81A3.57,3.57,0,0,1,261,301c0-.86.24-5.27-3-5.71s-4.94.7-5.06,2.92a44.31,44.31,0,0,0,0,4.61h9.16Z"/><path class="cls-8" d="M11,301a2.88,2.88,0,0,0,1-1.65c0-.85-.23-5.27,3-5.71s4.94.71,5.06,2.92a39.56,39.56,0,0,1,0,4.62H11Z"/><line class="cls-8" x1="5.01" y1="33.72" x2="12.66" y2="33.72"/><path class="cls-8" d="M11,301.16s-3.2-.32-3.53.71a62.19,62.19,0,0,0-.64,6.35l-3.17-.05"/><path class="cls-8" d="M262,302.81s2.78-.18,3,1,.58,6.08.58,6.08l3.17-.05"/><line class="cls-8" x1="259.05" y1="34.07" x2="266.52" y2="34.07"/><rect class="cls-8" x="72.84" y="58.18" width="8.74" height="2.83"/><rect class="cls-8" x="72.84" y="67.39" width="8.74" height="2.83"/><rect class="cls-8" x="128.14" y="58.18" width="8.74" height="2.83"/><rect class="cls-8" x="128.14" y="67.39" width="8.74" height="2.83"/><rect class="cls-8" x="161.03" y="69.72" width="2.83" height="8.74"/><rect class="cls-9" x="185.22" y="73.71" width="2.83" height="6.17"/><rect class="cls-9" x="179.92" y="132.15" width="2.83" height="6.17"/><rect class="cls-9" x="179.92" y="204.84" width="2.83" height="6.17"/><rect class="cls-9" x="199.17" y="73.71" width="2.83" height="6.17"/><rect class="cls-8" x="161.03" y="135.64" width="2.83" height="8.74"/><rect class="cls-8" x="161.03" y="202.26" width="2.83" height="8.74"/><rect class="cls-8" x="96.99" y="232.28" width="2.83" height="8.74"/><rect class="cls-8" x="30.48" y="232.28" width="2.83" height="8.74"/><rect class="cls-8" x="32.14" y="88.28" width="96.76" height="74.16" rx="8.48" ry="8.48"/><rect class="cls-8" x="32.14" y="58.17" width="34.78" height="12.03" rx="3.75" ry="3.75"/><rect class="cls-8" x="87.46" y="58.17" width="34.78" height="12.03" rx="3.75" ry="3.75"/><polyline class="cls-8" points="15.19 47.58 173.27 48.32 173.27 247.63"/><line class="cls-8" x1="14.41" y1="247.63" x2="257.99" y2="247.63"/><path class="cls-8" d="M173.27,58.26h16.54v10.2s-.22,3.09,2.65,3.09h33.91s2.83-.48,2.83-4.06V58.26h27.32"/><line class="cls-8" x1="189.81" y1="61.32" x2="229.23" y2="61.32"/><rect class="cls-8" x="247.02" y="129.07" width="8.88" height="17.78" rx="2.47" ry="2.47"/><rect class="cls-8" x="247.02" y="195.96" width="8.88" height="17.78" rx="2.47" ry="2.47"/><path class="cls-8" d="M185.19,86.22h0a1.43,1.43,0,0,1,1.44,1.44v25.25a1.44,1.44,0,0,1-1.44,1.44h0a1.45,1.45,0,0,1-1.44-1.44V87.66A1.44,1.44,0,0,1,185.19,86.22Z"/><rect class="cls-8" x="242.66" y="86.22" width="2.88" height="28.13" rx="1.44" ry="1.44"/><path class="cls-8" d="M185.19,149.69h0a1.43,1.43,0,0,1,1.44,1.44v25.25a1.44,1.44,0,0,1-1.44,1.44h0a1.45,1.45,0,0,1-1.44-1.44V151.13A1.44,1.44,0,0,1,185.19,149.69Z"/><rect class="cls-8" x="242.66" y="149.69" width="2.88" height="28.13" rx="1.44" ry="1.44"/><path class="cls-8" d="M185.19,211.83h0a1.44,1.44,0,0,1,1.44,1.44v25.25a1.43,1.43,0,0,1-1.44,1.44h0a1.44,1.44,0,0,1-1.44-1.44V213.27A1.45,1.45,0,0,1,185.19,211.83Z"/><rect class="cls-8" x="242.66" y="211.83" width="2.88" height="28.13" rx="1.44" ry="1.44"/><path class="cls-8" d="M53.34,229.45H74.21s.45,4.15-2.07,4.15h-17S52.75,233.16,53.34,229.45Z"/><path class="cls-8" d="M120.81,229.45h20.88s.45,4.15-2.07,4.15H122.55S120.2,233.16,120.81,229.45Z"/><path class="cls-8" d="M179.57,247.63s-.79-5,3.62-5h41.89s3.67.31,3.67,5"/><path class="cls-8" d="M13.13,25.65h4.35a2.77,2.77,0,0,1,2.77,2.77h0a2.76,2.76,0,0,1-2.77,2.76H13.13a2.76,2.76,0,0,1-2.77-2.76h0A2.77,2.77,0,0,1,13.13,25.65Z"/><circle class="cls-10" cx="12.78" cy="28.42" r="1.26"/><circle class="cls-10" cx="17.72" cy="28.42" r="1.26"/><path class="cls-8" d="M254.07,26.27h4.35A2.77,2.77,0,0,1,261.19,29h0a2.76,2.76,0,0,1-2.77,2.76h-4.35A2.76,2.76,0,0,1,251.3,29h0A2.77,2.77,0,0,1,254.07,26.27Z"/><circle class="cls-10" cx="253.73" cy="29.04" r="1.26"/><circle class="cls-10" cx="258.66" cy="29.04" r="1.26"/><circle class="cls-10" cx="16.57" cy="35.69" r="1.26"/><circle class="cls-8" cx="16.63" cy="35.84" r="2.5"/><circle class="cls-10" cx="254.38" cy="36.75" r="1.26"/><circle class="cls-8" cx="254.23" cy="36.81" r="2.5"/><circle class="cls-10" cx="15.5" cy="297.04" r="1.26"/><circle class="cls-8" cx="15.57" cy="297.19" r="2.5"/><circle class="cls-10" cx="256.49" cy="298.45" r="1.26"/><circle class="cls-8" cx="256.55" cy="298.6" r="2.5"/><path class="cls-8" d="M11.73,302.63h4.35a2.77,2.77,0,0,1,2.77,2.77h0a2.77,2.77,0,0,1-2.77,2.76H11.73A2.77,2.77,0,0,1,9,305.4H9A2.77,2.77,0,0,1,11.73,302.63Z"/><circle class="cls-10" cx="11.39" cy="305.4" r="1.26"/><circle class="cls-10" cx="16.33" cy="305.4" r="1.26"/><path class="cls-8" d="M256,304.13h4.35a2.77,2.77,0,0,1,2.77,2.76h0a2.77,2.77,0,0,1-2.77,2.77H256a2.77,2.77,0,0,1-2.77-2.77h0A2.77,2.77,0,0,1,256,304.13Z"/><circle class="cls-10" cx="255.62" cy="306.9" r="1.26"/><circle class="cls-10" cx="260.56" cy="306.9" r="1.26"/><circle class="cls-8" cx="86.26" cy="28.34" r="3.27"/><circle class="cls-11" cx="86.26" cy="28.34" r="1.38"/><circle class="cls-11" cx="135.41" cy="29.51" r="1.38"/><circle class="cls-8" cx="185.61" cy="28.91" r="3.27"/><circle class="cls-11" cx="185.61" cy="28.91" r="1.38"/><circle class="cls-11" cx="33.89" cy="80.71" r="1.38"/><circle class="cls-11" cx="107.43" cy="80.71" r="1.38"/><circle class="cls-11" cx="147.57" cy="80.71" r="1.38"/><circle class="cls-11" cx="21.09" cy="168.51" r="1.38"/><circle class="cls-11" cx="21.09" cy="193.67" r="1.38"/><circle class="cls-11" cx="21.09" cy="237.55" r="1.38"/><circle class="cls-11" cx="107.43" cy="193.67" r="1.38"/><circle class="cls-11" cx="107.43" cy="237.55" r="1.38"/><circle class="cls-11" cx="107.43" cy="168.51" r="1.38"/><circle class="cls-11" cx="148.49" cy="237.55" r="1.38"/><circle class="cls-11" cx="148.49" cy="168.51" r="1.38"/><polygon class="cls-9" points="193.52 81.04 188.44 84.08 188.44 89.96 193.52 92.96 198.77 89.97 198.77 84.11 193.52 81.04"/><polygon class="cls-9" points="207.31 81.04 202.23 84.08 202.23 89.96 207.31 92.96 212.57 89.97 212.57 84.11 207.31 81.04"/><polygon class="cls-9" points="221.1 81.04 216.03 84.08 216.03 89.96 221.1 92.96 226.36 89.97 226.36 84.11 221.1 81.04"/><polygon class="cls-9" points="234.9 81.04 229.82 84.08 229.82 89.96 234.9 92.96 240.15 89.97 240.15 84.11 234.9 81.04"/><polygon class="cls-9" points="200.49 92.96 195.41 96 195.41 101.87 200.49 104.88 205.74 101.89 205.74 96.03 200.49 92.96"/><polygon class="cls-9" points="214.28 92.96 209.2 96 209.2 101.87 214.28 104.88 219.53 101.89 219.53 96.03 214.28 92.96"/><polygon class="cls-9" points="228.08 92.96 223 96 223 101.87 228.08 104.88 233.32 101.89 233.32 96.03 228.08 92.96"/><polygon class="cls-9" points="193.52 104.66 188.44 107.71 188.44 113.58 193.52 116.58 198.77 113.59 198.77 107.74 193.52 104.66"/><polygon class="cls-9" points="207.31 104.66 202.23 107.71 202.23 113.58 207.31 116.58 212.57 113.59 212.57 107.74 207.31 104.66"/><polygon class="cls-9" points="221.1 104.66 216.03 107.71 216.03 113.58 221.1 116.58 226.36 113.59 226.36 107.74 221.1 104.66"/><polygon class="cls-9" points="234.9 104.66 229.82 107.71 229.82 113.58 234.9 116.58 240.15 113.59 240.15 107.74 234.9 104.66"/><polygon class="cls-9" points="200.49 117.26 195.41 120.3 195.41 126.17 200.49 129.17 205.74 126.18 205.74 120.33 200.49 117.26"/><polygon class="cls-9" points="214.28 117.26 209.2 120.3 209.2 126.17 214.28 129.17 219.53 126.18 219.53 120.33 214.28 117.26"/><polygon class="cls-9" points="228.08 117.26 223 120.3 223 126.17 228.08 129.17 233.32 126.18 233.32 120.33 228.08 117.26"/><polygon class="cls-9" points="193.52 128.96 188.44 132 188.44 137.87 193.52 140.87 198.77 137.89 198.77 132.03 193.52 128.96"/><polygon class="cls-9" points="207.31 128.96 202.23 132 202.23 137.87 207.31 140.87 212.57 137.89 212.57 132.03 207.31 128.96"/><polygon class="cls-9" points="221.1 128.96 216.03 132 216.03 137.87 221.1 140.87 226.36 137.89 226.36 132.03 221.1 128.96"/><polygon class="cls-9" points="234.9 128.96 229.82 132 229.82 137.87 234.9 140.87 240.15 137.89 240.15 132.03 234.9 128.96"/><polygon class="cls-9" points="200.49 141.21 195.41 144.26 195.41 150.13 200.49 153.13 205.74 150.15 205.74 144.29 200.49 141.21"/><polygon class="cls-9" points="214.28 141.21 209.2 144.26 209.2 150.13 214.28 153.13 219.53 150.15 219.53 144.29 214.28 141.21"/><polygon class="cls-9" points="228.08 141.21 223 144.26 223 150.13 228.08 153.13 233.32 150.15 233.32 144.29 228.08 141.21"/><polygon class="cls-9" points="193.52 152.92 188.44 155.96 188.44 161.84 193.52 164.84 198.77 161.85 198.77 156 193.52 152.92"/><polygon class="cls-9" points="207.31 152.92 202.23 155.96 202.23 161.84 207.31 164.84 212.57 161.85 212.57 156 207.31 152.92"/><polygon class="cls-9" points="221.1 152.92 216.03 155.96 216.03 161.84 221.1 164.84 226.36 161.85 226.36 156 221.1 152.92"/><polygon class="cls-9" points="234.9 152.92 229.82 155.96 229.82 161.84 234.9 164.84 240.15 161.85 240.15 156 234.9 152.92"/><polygon class="cls-9" points="200.49 165.51 195.41 168.56 195.41 174.43 200.49 177.43 205.74 174.44 205.74 168.59 200.49 165.51"/><polygon class="cls-9" points="214.28 165.51 209.2 168.56 209.2 174.43 214.28 177.43 219.53 174.44 219.53 168.59 214.28 165.51"/><polygon class="cls-9" points="228.08 165.51 223 168.56 223 174.43 228.08 177.43 233.32 174.44 233.32 168.59 228.08 165.51"/><polygon class="cls-9" points="193.52 177.21 188.44 180.26 188.44 186.13 193.52 189.13 198.77 186.15 198.77 180.29 193.52 177.21"/><polygon class="cls-9" points="207.31 177.21 202.23 180.26 202.23 186.13 207.31 189.13 212.57 186.15 212.57 180.29 207.31 177.21"/><polygon class="cls-9" points="221.1 177.21 216.03 180.26 216.03 186.13 221.1 189.13 226.36 186.15 226.36 180.29 221.1 177.21"/><polygon class="cls-9" points="234.9 177.21 229.82 180.26 229.82 186.13 234.9 189.13 240.15 186.15 240.15 180.29 234.9 177.21"/><polygon class="cls-9" points="200.49 189.77 195.41 192.81 195.41 198.69 200.49 201.69 205.74 198.7 205.74 192.85 200.49 189.77"/><polygon class="cls-9" points="214.28 189.77 209.2 192.81 209.2 198.69 214.28 201.69 219.53 198.7 219.53 192.85 214.28 189.77"/><polygon class="cls-9" points="228.08 189.77 223 192.81 223 198.69 228.08 201.69 233.32 198.7 233.32 192.85 228.08 189.77"/><polygon class="cls-9" points="193.52 201.47 188.44 204.52 188.44 210.39 193.52 213.39 198.77 210.41 198.77 204.55 193.52 201.47"/><polygon class="cls-9" points="207.31 201.47 202.23 204.52 202.23 210.39 207.31 213.39 212.57 210.41 212.57 204.55 207.31 201.47"/><polygon class="cls-9" points="221.1 201.47 216.03 204.52 216.03 210.39 221.1 213.39 226.36 210.41 226.36 204.55 221.1 201.47"/><polygon class="cls-9" points="234.9 201.47 229.82 204.52 229.82 210.39 234.9 213.39 240.15 210.41 240.15 204.55 234.9 201.47"/><polygon class="cls-9" points="200.49 214.06 195.41 217.12 195.41 222.99 200.49 225.99 205.74 223 205.74 217.14 200.49 214.06"/><polygon class="cls-9" points="214.28 214.06 209.2 217.12 209.2 222.99 214.28 225.99 219.53 223 219.53 217.14 214.28 214.06"/><polygon class="cls-9" points="228.08 214.06 223 217.12 223 222.99 228.08 225.99 233.32 223 233.32 217.14 228.08 214.06"/><polygon class="cls-9" points="193.52 225.77 188.44 228.82 188.44 234.69 193.52 237.69 198.77 234.7 198.77 228.85 193.52 225.77"/><polygon class="cls-9" points="207.31 225.77 202.23 228.82 202.23 234.69 207.31 237.69 212.57 234.7 212.57 228.85 207.31 225.77"/><polygon class="cls-9" points="221.1 225.77 216.03 228.82 216.03 234.69 221.1 237.69 226.36 234.7 226.36 228.85 221.1 225.77"/><polygon class="cls-9" points="234.9 225.77 229.82 228.82 229.82 234.69 234.9 237.69 240.15 234.7 240.15 228.85 234.9 225.77"/><polyline class="cls-7" points="23.19 310.45 23.19 318.35 47.44 318.35 47.44 310.45"/><polyline class="cls-7" points="224.01 310.45 224.01 318.35 248.25 318.35 248.25 310.45"/><polyline class="cls-8" points="3.65 155.02 0.35 155.02 0.35 241.02 3.65 241.02"/><polygon class="cls-12" points="4.94 22.45 3.65 301.74 268.74 302.02 266.44 24.18 4.94 22.45"/><polygon class="cls-7" points="5.63 22.45 4.33 301.74 269.42 302.02 267.13 24.18 5.63 22.45"/></g></g></svg>