<?xml version="1.0" encoding="utf-8"?>
<!-- Generator: Adobe Illustrator 23.0.1, SVG Export Plug-In . SVG Version: 6.00 Build 0)  -->
<svg version="1.1" id="Camada_1" xmlns="http://www.w3.org/2000/svg" xmlns:xlink="http://www.w3.org/1999/xlink" x="0px" y="0px"
	 viewBox="0 0 593.3 375.5" style="enable-background:new 0 0 593.3 375.5;" xml:space="preserve">
<style type="text/css">
	.st0{fill:#FFFFFF;stroke:#1D1D1B;stroke-width:2;stroke-miterlimit:10;}
	.st1{fill:none;stroke:#1D1D1B;stroke-width:2;stroke-linecap:round;stroke-linejoin:round;}
	.st2{fill:none;stroke:#1D1D1B;stroke-width:2.09;stroke-linecap:round;stroke-linejoin:round;}
	.st3{fill:none;stroke:#1D1D1B;stroke-width:2.03;stroke-linecap:round;stroke-linejoin:round;}
	.st4{fill:none;stroke:#1D1D1B;stroke-width:1.83;stroke-linecap:round;stroke-linejoin:round;}
	.st5{fill:none;stroke:#1D1D1B;stroke-width:3;stroke-linecap:round;stroke-linejoin:bevel;}
	.st6{fill:#FFFFFF;stroke:#1D1D1B;stroke-miterlimit:10;}
	.st7{fill:#DD0613;}
	.st8{fill:none;stroke:#DD0613;stroke-width:1.8;stroke-miterlimit:10;}
	.st9{fill:none;stroke:#DD0613;stroke-width:1.88;stroke-miterlimit:10;}
	.st10{fill:none;stroke:#DD0613;stroke-width:1.81;stroke-miterlimit:10;}
	.st11{fill:#E0E0E0;}
	.st12{font-family:'Roboto-Medium';}
	.st13{font-size:15px;}
</style>
<title>Medida inferior</title>
<rect x="42.3" y="44.6" class="st0" width="408" height="229.7"/>
<image style="overflow:visible;enable-background:new    ;" width="1808" height="897" xlink:href="A66AAD64.png"  transform="matrix(0.2095 0 0 0.2095 55.9583 57.11)">
</image>
<circle class="st1" cx="65.8" cy="155.1" r="7"/>
<path class="st2" d="M61.5,155.1v1.2c0,0,1.8-0.4,2.6,0.4s0.6,2.6,0.6,2.6h2.1c0,0-0.1-2.3,0.9-2.7c0.8-0.3,1.6-0.4,2.4-0.4V154
	c-0.8,0-1.6-0.1-2.4-0.4c-1-0.4-0.9-2.7-0.9-2.7h-2.1c0,0,0.1,1.9-0.6,2.6s-2.6,0.4-2.6,0.4V155.1z"/>
<circle class="st1" cx="175.3" cy="155.1" r="7"/>
<path class="st2" d="M171,155.1v1.2c0,0,1.8-0.4,2.6,0.4s0.6,2.6,0.6,2.6h2.1c0,0-0.1-2.3,0.9-2.7c0.8-0.3,1.6-0.4,2.4-0.4V154
	c-0.8,0-1.6-0.1-2.4-0.4c-1-0.4-0.9-2.7-0.9-2.7h-2.1c0,0,0.1,1.9-0.6,2.6s-2.6,0.4-2.6,0.4V155.1z"/>
<path class="st1" d="M58.8,144.4l20.5-15.9c-0.6,2.1-1,4.2-1.3,6.4c-0.2,2.4,0.6,43,0.6,43s0.6,3,2.2,4.2c1.2,0.9-14-10.9-21.3-16.5
	c-3.7-2.8-5.9-7.2-5.8-11.9C53.7,149.9,55.6,146.4,58.8,144.4z"/>
<path class="st1" d="M182,144.4l-20.5-15.9c0.6,2.1,1.1,4.2,1.3,6.4c0.1,2.4-0.6,43-0.6,43s-0.6,3-2.2,4.2
	c-1.2,0.9,14-10.9,21.3-16.5c3.7-2.8,5.9-7.2,5.8-11.9C187.2,149.9,185.2,146.4,182,144.4z"/>
<path class="st3" d="M86.5,124.4h67.9c4.6,0,8.3,3.7,8.3,8.3v43.9c0,4.6-3.7,8.3-8.3,8.3H86.5c-4.6,0-8.3-3.7-8.3-8.3v-43.9
	C78.2,128.1,81.9,124.4,86.5,124.4z"/>
<path class="st3" d="M85.8,145.8V168c0,5.4,4.4,9.7,9.7,9.7c0,0,0,0,0,0h49.9c5.1,0,9.2-4.1,9.2-9.2c0,0,0,0,0,0v-24L140,131.2
	h-39.6L85.8,145.8z"/>
<rect x="101.5" y="156.2" class="st3" width="2.1" height="6.9"/>
<rect x="138.2" y="156.2" class="st3" width="2.1" height="6.9"/>
<rect x="119.8" y="145.9" class="st3" width="2.1" height="6.9"/>
<rect x="103" y="151.4" class="st4" width="5.6" height="2.1"/>
<rect x="139.7" y="150.7" class="st4" width="5.6" height="2.1"/>
<path class="st4" d="M96.1,78.2H147c1.6,0,2.9,1.3,2.9,2.9v34.2c0,1.6-1.3,2.9-2.9,2.9H96.1c-1.6,0-2.9-1.3-2.9-2.9V81.1
	C93.2,79.5,94.5,78.2,96.1,78.2z"/>
<path class="st4" d="M138.6,111h-34.2c-2.3,0-4.1-1.8-4.1-4.1l0,0V88.5c0-2.3,1.8-4.1,4.1-4.1l0,0h34.2c2.3,0,4.1,1.8,4.1,4.1l0,0
	v18.4C142.7,109.1,140.9,111,138.6,111C138.6,111,138.6,111,138.6,111z"/>
<path class="st4" d="M104.8,109.9c0,0-2.2-1.2-2.2-6.2s0.4-14.5,0.4-14.5s0.4-4.3,4.1-4.9"/>
<path class="st4" d="M113.3,84.7c-2.2,0.6-3.9,2.1-4.8,4.2c-0.4,1.1-0.3,12.2-0.4,16.9c0,1.6,0.6,3.1,1.7,4.2c0.4,0.5,1,0.8,1.6,0.9
	"/>
<line class="st5" x1="111.9" y1="98.2" x2="120.8" y2="98.2"/>
<circle class="st5" cx="135.2" cy="98.2" r="4.2"/>
<circle class="st6" cx="73.3" cy="262.4" r="3.3"/>
<circle class="st6" cx="427.4" cy="262.1" r="3.3"/>
<circle class="st6" cx="439.3" cy="84.7" r="3.3"/>
<circle class="st6" cx="119.8" cy="65.8" r="3.3"/>
<polygon class="st7" points="541.3,273.8 533.3,256.9 549.4,256.9 "/>
<line class="st8" x1="541.3" y1="271.4" x2="541.3" y2="53.3"/>
<line class="st9" x1="457" y1="44.6" x2="557.5" y2="44.6"/>
<line class="st10" x1="457" y1="274.3" x2="553.9" y2="274.3"/>
<polygon class="st7" points="541.3,44.9 549.4,61.6 533.3,61.6 "/>
<rect x="508.8" y="137.1" class="st11" width="63.6" height="16.5"/>
<text transform="matrix(1 0 0 1 519.11 150.5)" class="st7 st12 st13">86mm</text>
<polygon class="st7" points="40.5,337 57.4,329 57.4,345.1 "/>
<line class="st8" x1="42.9" y1="337" x2="432.5" y2="337"/>
<line class="st9" x1="450.3" y1="279.3" x2="450.3" y2="345.3"/>
<line class="st10" x1="41.6" y1="280.5" x2="41.6" y2="344.1"/>
<polygon class="st7" points="446.1,337 429.4,345.1 429.4,329 "/>
<rect x="203" y="314.1" class="st11" width="63.6" height="16.5"/>
<text transform="matrix(1 0 0 1 213.29 327.42)" class="st7 st12 st13">160mm</text>
</svg>
