<?xml version="1.0" encoding="utf-8"?>
<!-- Generator: Adobe Illustrator 23.0.1, SVG Export Plug-In . SVG Version: 6.00 Build 0)  -->
<svg version="1.1" id="Camada_1" xmlns="http://www.w3.org/2000/svg" xmlns:xlink="http://www.w3.org/1999/xlink" x="0px" y="0px"
	 viewBox="0 0 448.5 375.5" style="enable-background:new 0 0 448.5 375.5;" xml:space="preserve">
<style type="text/css">
	.st0{fill:#FFFFFF;stroke:#1D1D1B;stroke-width:2;stroke-miterlimit:10;}
	.st1{fill:none;stroke:#1D1D1B;stroke-width:2;stroke-miterlimit:10;}
	.st2{fill:none;stroke:#1D1D1B;stroke-width:1.03;stroke-miterlimit:10;}
	.st3{fill:none;stroke:#1D1D1B;stroke-width:2.09;stroke-linecap:round;stroke-linejoin:round;}
	.st4{fill:none;stroke:#1D1D1B;stroke-width:2.29;stroke-linecap:round;stroke-linejoin:round;}
	.st5{fill:none;stroke:#1D1D1B;stroke-linecap:round;stroke-linejoin:round;}
	.st6{fill:#686868;}
	.st7{fill:none;stroke:#1D1D1B;stroke-width:1.4;stroke-miterlimit:10;}
	.st8{fill:#DD0613;}
	.st9{fill:none;stroke:#DD0613;stroke-width:1.8;stroke-miterlimit:10;}
	.st10{fill:none;stroke:#DD0613;stroke-width:1.88;stroke-miterlimit:10;}
	.st11{fill:none;stroke:#DD0613;stroke-width:1.81;stroke-miterlimit:10;}
	.st12{fill:#E0E0E0;}
	.st13{font-family:'Roboto-Medium';}
	.st14{font-size:12.97px;}
</style>
<title>Medida frontal</title>
<rect x="53" y="24.9" class="st0" width="260.4" height="279.1"/>
<path class="st1" d="M299.6,54.5v215.6c0,5.2-4.2,9.4-9.4,9.4c0,0,0,0,0,0H74.6c-5.2,0-9.4-4.2-9.4-9.4l0,0V54.5
	c0-5.2,4.2-9.4,9.4-9.5c0,0,0,0,0.1,0h215.6C295.4,45,299.6,49.2,299.6,54.5C299.6,54.4,299.6,54.4,299.6,54.5z"/>
<path class="st2" d="M245.4,279.5c22.7-11.8,41.5-29.8,54.2-52"/>
<path class="st2" d="M247.1,45c21.9,11.8,40.1,29.5,52.5,51.1"/>
<path class="st2" d="M65.1,104.5C77.3,79.1,97.2,58.3,122,45"/>
<path class="st2" d="M65.1,219.2c12.5,25.9,33,47.1,58.6,60.3"/>
<path class="st3" d="M72.1,55.2v1.1c0,0,1.7-0.3,2.4,0.4s0.5,2.5,0.5,2.5h2c0,0-0.1-2.2,0.8-2.5c0.7-0.2,1.5-0.4,2.3-0.4v-2
	c-0.8,0-1.5-0.1-2.3-0.4c-0.9-0.4-0.8-2.5-0.8-2.5h-2c0.1,0.9-0.1,1.7-0.5,2.5c-0.7,0.7-2.4,0.4-2.4,0.4V55.2z"/>
<circle class="st4" cx="76.1" cy="54.8" r="6.8"/>
<path class="st5" d="M93,33.6v0.8c0,0,1.3-0.3,1.8,0.3s0.4,1.9,0.4,1.9h1.5c0,0-0.1-1.7,0.7-2c0.6-0.2,1.2-0.3,1.8-0.3v-1.5
	c-0.6,0-1.2-0.1-1.8-0.3c-0.7-0.3-0.7-2-0.7-2h-1.5c0,0,0.1,1.4-0.4,1.9S93,32.7,93,32.7L93,33.6z"/>
<circle class="st5" cx="96.1" cy="33.3" r="5.3"/>
<path class="st3" d="M286.6,54.5v1.1c0,0,1.7-0.3,2.4,0.4c0.4,0.7,0.6,1.6,0.5,2.5h2c0,0-0.1-2.2,0.9-2.5c0.7-0.2,1.5-0.4,2.3-0.4
	v-2c-0.8,0-1.5-0.1-2.3-0.4c-1-0.4-0.9-2.5-0.9-2.5h-2c0,0,0.1,1.8-0.5,2.5s-2.4,0.4-2.4,0.4V54.5z"/>
<circle class="st4" cx="290.6" cy="54.2" r="6.8"/>
<path class="st3" d="M286.6,270.1v1.1c0,0,1.7-0.3,2.4,0.4s0.5,2.5,0.5,2.5h2c0,0-0.1-2.2,0.9-2.5c0.7-0.2,1.5-0.4,2.3-0.4v-2
	c-0.8,0-1.5-0.1-2.3-0.4c-1-0.4-0.9-2.5-0.9-2.5h-2c0,0,0.1,1.8-0.5,2.5s-2.4,0.4-2.4,0.4V270.1z"/>
<circle class="st4" cx="290.6" cy="269.8" r="6.8"/>
<path class="st3" d="M71.5,269.8v1.1c0,0,1.7-0.3,2.4,0.4c0.4,0.7,0.6,1.6,0.5,2.5h2c0,0-0.1-2.2,0.8-2.5c0.7-0.2,1.5-0.4,2.3-0.4
	v-2c-0.8,0-1.5-0.1-2.3-0.4c-0.9-0.4-0.8-2.5-0.8-2.5h-2c0.1,0.9-0.1,1.7-0.5,2.5c-0.7,0.7-2.4,0.4-2.4,0.4V269.8z"/>
<circle class="st4" cx="75.5" cy="269.4" r="6.8"/>
<path class="st5" d="M275.4,33.6v0.8c0,0,1.3-0.3,1.9,0.3c0.3,0.6,0.5,1.2,0.4,1.9h1.5c0,0-0.1-1.7,0.6-2c0.6-0.2,1.2-0.3,1.8-0.3
	v-1.5c-0.6,0-1.2-0.1-1.8-0.3c-0.7-0.3-0.6-2-0.6-2h-1.5c0.1,0.7-0.1,1.3-0.4,1.9c-0.5,0.5-1.9,0.3-1.9,0.3V33.6z"/>
<circle class="st5" cx="278.5" cy="33.3" r="5.3"/>
<path class="st5" d="M275.4,289.3v0.8c0,0,1.3-0.3,1.9,0.3c0.3,0.6,0.5,1.2,0.4,1.9h1.5c0,0-0.1-1.7,0.6-2c0.6-0.2,1.2-0.3,1.8-0.3
	v-1.5c-0.6,0-1.2-0.1-1.8-0.3c-0.7-0.3-0.6-2-0.6-2h-1.5c0,0,0.1,1.4-0.4,1.9s-1.9,0.3-1.9,0.3V289.3z"/>
<circle class="st5" cx="278.5" cy="289" r="5.3"/>
<path class="st5" d="M77.9,289.6v0.8c0,0,1.3-0.3,1.8,0.3s0.4,1.9,0.4,1.9h1.5c0,0-0.1-1.7,0.7-2c0.6-0.2,1.2-0.3,1.8-0.3v-1.5
	c-0.6,0-1.2-0.1-1.8-0.3c-0.7-0.3-0.7-2-0.7-2h-1.5c0.1,0.7-0.1,1.3-0.4,1.9c-0.5,0.5-1.8,0.3-1.8,0.3V289.6z"/>
<circle class="st5" cx="80.9" cy="289.3" r="5.3"/>
<path class="st6" d="M182,129.9c0,0-13.8-34.1-26.8-48.3S137,67,139.4,64.5s25.6-11,40.6-9.7c7.1,0.6,14.1,1.7,21,3.4
	c2.2,0.6,3.8,2.6,4,4.9c1,12.3,3.7,51.4-0.3,74.5C204.7,137.6,197,131.1,182,129.9z"/>
<path class="st6" d="M207.9,140.8c0,0,23.4-31.8,28.4-50.4s2.5-23.2,5.9-22.5s23,15.7,30,29c3.3,6.3,6.1,12.8,8.4,19.5
	c0.7,2.2,0,4.7-1.9,6.1c-9.8,7.5-41.4,30.8-63,39.7C215.6,162.3,214.9,154.1,207.9,140.8z"/>
<path class="st6" d="M215.6,167.1c0,0,36.4-5.1,53.3-14.3s18.6-14.2,20.4-11.2s4.4,27.4-0.4,41.7c-2.2,6.7-5,13.2-8.4,19.5
	c-1.1,2.1-3.4,3.2-5.7,2.8c-12.2-2-50.8-8.9-72.2-18.4C202.6,187.3,210.7,181.4,215.6,167.1z"/>
<path class="st6" d="M200.6,188.5c0,0,25.4,30.5,41.7,40.6s21.5,9.2,19.8,12.2s-21.7,17.4-36.5,20.3c-7,1.4-14,2.2-21.1,2.4
	c-2.3,0-4.5-1.4-5.3-3.6c-4.3-11.6-17.4-48.6-19.7-71.8C179.6,188.5,185.8,191.4,200.6,188.5z"/>
<path class="st6" d="M172.8,191.6c0,0-4.1,39.4,0.2,58.1s8.7,21.7,5.4,22.6s-27.6-3-40.1-11.4c-5.9-3.9-11.4-8.4-16.6-13.2
	c-1.7-1.6-2.2-4.1-1.2-6.3c5.2-11.2,22-46.6,36.8-64.7C157.4,176.7,160.4,183.2,172.8,191.6z"/>
<path class="st6" d="M152.1,170.7c0,0-31.9,18.3-44.1,33.1s-12,20.1-14.7,18s-14.4-23.9-15.2-38.9c-0.4-7.1-0.2-14.2,0.5-21.2
	c0.3-2.3,2-4.2,4.3-4.7c12-2.7,50.5-10.7,73.8-9.8C156.7,147.1,151.3,155.6,152.1,170.7z"/>
<path class="st6" d="M158.6,140.8c0,0-35.3-10.3-54.5-8.9s-22.8,5.3-23.1,1.9S88.2,107,98.4,96c4.8-5.2,10-10,15.6-14.4
	c1.9-1.4,4.4-1.5,6.4-0.2c10.3,6.8,43.6,30.3,59.2,47.8C179.6,129.2,168.9,129.8,158.6,140.8z"/>
<circle class="st7" cx="183.6" cy="160.9" r="31.5"/>
<circle class="st7" cx="183.6" cy="160.9" r="38.9"/>
<circle class="st7" cx="183.6" cy="160.9" r="48"/>
<circle class="st7" cx="183.6" cy="160.9" r="59.3"/>
<circle class="st7" cx="183.6" cy="160.9" r="73.2"/>
<circle class="st7" cx="183.6" cy="160.9" r="90.4"/>
<circle class="st7" cx="183.6" cy="160.9" r="111.6"/>
<line class="st1" x1="78.9" y1="59.8" x2="159.6" y2="139.7"/>
<line class="st1" x1="205.3" y1="139.7" x2="286" y2="59.2"/>
<line class="st1" x1="209.9" y1="190" x2="285.9" y2="264.1"/>
<line class="st1" x1="155.6" y1="190" x2="80.3" y2="264"/>
<circle class="st0" cx="184.2" cy="160.6" r="32.1"/>
<polygon class="st8" points="394.4,304.1 387.4,289.6 401.4,289.6 "/>
<line class="st9" x1="394.4" y1="292.3" x2="394.4" y2="32"/>
<line class="st10" x1="321.5" y1="24.5" x2="408.4" y2="24.5"/>
<line class="st11" x1="319" y1="304" x2="402.8" y2="304"/>
<polygon class="st8" points="394.4,24.7 401.4,39.2 387.4,39.2 "/>
<rect x="366.3" y="149.9" class="st12" width="54.9" height="14.3"/>
<text transform="matrix(1 0 0 1 375.2 161.43)" class="st8 st13 st14">150mm</text>
<polygon class="st8" points="53.3,353.1 67.9,346.1 67.9,360.1 "/>
<line class="st9" x1="55.4" y1="353.1" x2="309" y2="353.1"/>
<line class="st11" x1="53" y1="311.9" x2="53" y2="364"/>
<line class="st11" x1="313.4" y1="312.2" x2="313.4" y2="364.3"/>
<polygon class="st8" points="311.9,353.1 297.4,360.1 297.4,346.1 "/>
<rect x="163.2" y="333.3" class="st12" width="54.9" height="14.3"/>
<text transform="matrix(1 0 0 1 172.11 344.8)" class="st8 st13 st14">160mm</text>
</svg>
