<svg xmlns="http://www.w3.org/2000/svg" viewBox="0 0 2796.13 1259.5"><title>lombar xl e cabeça vetor</title><g id="Camada_2" data-name="Camada 2"><g id="Camada_2-2" data-name="Camada 2"><path d="M926.9,232.38c20.86,0,47.85,8.06,45.22,50.54-4.24,68.47,4.23,134.82,6.35,158.82s17.65,362.12,0,529.41c-3.8,67.38,1.19,115.48-44.3,115.48-1,0-2,0-3-.07-31.75-1.38-323.1-11.7-560.23-11.7-126.68,0-237.84,2.94-285.77,11.77-29.65-.07-67.77-7.48-68.83-34S6.83,876.92,4.71,840.92s0-307.06,14.82-438.36c1-52.23,10.64-156,26.28-156a3.75,3.75,0,0,1,1.6.36S57.72,235.4,71.59,235.4a25.46,25.46,0,0,1,3.35.22c13.57,1.85,126.29,15,188,15,8.92,0,16.76-.28,23.09-.9,35.19-3.47,169.87-13.22,296.58-13.22,53.79,0,106.14,1.76,148.83,6.5,12.77.56,25.46.8,37.81.8a1108.51,1108.51,0,0,0,134.43-8.42,93.54,93.54,0,0,1,23.25-3m0-4a98.13,98.13,0,0,0-24.06,3.09,1118.63,1118.63,0,0,1-133.62,8.35c-12.88,0-25.5-.26-37.5-.79-39-4.32-89.14-6.51-149.14-6.51-133.77,0-270.33,10.61-297,13.24-5.92.58-13.56.88-22.7.88-61.2,0-174.38-13.2-187.43-15a28,28,0,0,0-3.89-.26c-12.21,0-21.76,7.66-25.48,11.16h-.3c-5.89,0-10.33,6.14-14.4,19.9-3,10.06-5.73,24.18-8.18,42a917.85,917.85,0,0,0-7.69,97.87C7.06,477.49,3.27,594.37,1.77,657.38c-2,85.8-2.2,164.29-1.06,183.77C2.77,876.08,11.28,1026,12.36,1052.84c.54,13.49,9.61,24,26.24,30.45,16.38,6.33,36.21,7.32,46.57,7.34h.37l.36-.07c42.18-7.76,138.09-11.7,285-11.7,236.79,0,524.78,10.17,560.05,11.7,1.08,0,2.14.07,3.17.07,20.19,0,32.68-8.73,39.31-27.46,5.78-16.32,6.72-39.42,7.8-66.16.34-8.2.68-16.68,1.18-25.54,18-170.87,1.66-511.19,0-530.08-.3-3.38-.72-7.6-1.22-12.48-3.06-30.46-8.75-87.17-5.13-145.75,1.11-17.93-2.79-31.76-11.58-41.12-8.41-8.94-21.42-13.66-37.63-13.66Z" transform="translate(0 -11.56)"/><path d="M874.7,238.62s-73.76,120.53-81.17,242.3S788.24,716,788.24,716s-6.36,122.82-45.53,218.11S679.26,1079,679.26,1079" transform="translate(0 -11.56)" style="fill:none;stroke:#000;stroke-miterlimit:10;stroke-width:4px"/><path d="M123.88,241.16s66.12,95.4,69,221.05S201.3,700.8,201.3,700.8s-2.83,108.7,57.88,262.59c29.65,76.23,42.34,111.8,42.34,111.8" transform="translate(0 -11.56)" style="fill:none;stroke:#000;stroke-miterlimit:10;stroke-width:4px"/><path d="M563.19,569.08l-21.66,27.74-84.42,0,4.72-21.17a8.47,8.47,0,0,1,6.65-6.35,9.23,9.23,0,0,1,1.89-.17h.92Z" transform="translate(0 -11.56)" style="fill:none;stroke:#000;stroke-miterlimit:10;stroke-width:2px;fill-rule:evenodd"/><polygon points="489.94 590.32 518.59 590.32 501.8 666.18 473.14 666.18 489.94 590.32" style="fill:none;stroke:#000;stroke-miterlimit:10;stroke-width:2px;fill-rule:evenodd"/><path d="M440.51,677.77c14.87,0,26.93-11.8,26.93-26.35a22.38,22.38,0,0,0-.34-4.48,20.07,20.07,0,0,0-1.6-4.82l-2.33-4.93,0,0-29.71-61.85c-2.87-6.21-7.25-6.31-10-6.15l-34.77,0-6.17,27.65,30.46,0,26.09,53.78H399.32l10.79-48.68H381.44l-16.8,75.86,75.87,0" transform="translate(0 -11.56)" style="fill:none;stroke:#000;stroke-miterlimit:10;stroke-width:2px;fill-rule:evenodd"/><path d="M643,578.2s0,.09,0,.14a8,8,0,0,1-1.58,4.59L631.15,596.8H551.93l21.65-27.71h59.7C638.24,568.75,643.21,572.58,643,578.2Z" transform="translate(0 -11.56)" style="fill:none;stroke:#000;stroke-linecap:round;stroke-linejoin:round;stroke-width:2px"/><path d="M615.39,643.07a24.48,24.48,0,0,1,2.43,9.65,24.12,24.12,0,0,1-23.66,25L542,677.52l-13-27h57.17l-19.87-28.21,22.66-20.48h34.84l-22.54,20.5s6.93,9.75,11.06,15.74A44.2,44.2,0,0,1,615.39,643.07Z" transform="translate(0 -11.56)" style="fill:none;stroke:#000;stroke-linecap:round;stroke-linejoin:round;stroke-width:2px"/><polygon points="539.78 674.8 566.75 674.83 562.92 692.29 535.95 692.26 539.78 674.8" style="fill:none;stroke:#000;stroke-miterlimit:10;stroke-width:2px;fill-rule:evenodd"/><polygon points="570.39 674.82 590.76 674.81 586.92 692.3 566.57 692.29 570.39 674.82" style="fill:none;stroke:#000;stroke-miterlimit:10;stroke-width:2px;fill-rule:evenodd"/><polygon points="594.51 674.81 608.41 674.81 604.6 692.28 590.68 692.27 594.51 674.81" style="fill:none;stroke:#000;stroke-miterlimit:10;stroke-width:2px;fill-rule:evenodd"/><polygon points="611.94 674.8 618.81 674.81 614.96 692.29 608.11 692.28 611.94 674.8" style="fill:none;stroke:#000;stroke-miterlimit:10;stroke-width:2px;fill-rule:evenodd"/><polygon points="622.24 674.8 627.5 674.8 623.67 692.29 618.41 692.28 622.24 674.8" style="fill:none;stroke:#000;stroke-miterlimit:10;stroke-width:2px;fill-rule:evenodd"/><polygon points="630.75 674.81 634.15 674.81 630.39 692.28 626.98 692.27 630.75 674.81" style="fill:none;stroke:#000;stroke-miterlimit:10;stroke-width:2px;fill-rule:evenodd"/><polygon points="536.01 674.83 510.08 674.83 507.76 685.31 528.6 685.31 527.84 688.77 507 688.77 506.23 692.24 532.18 692.25 534.48 681.84 513.67 681.83 514.44 678.33 535.23 678.33 536.01 674.83" style="fill:none;stroke:#000;stroke-miterlimit:10;stroke-width:2px"/><polygon points="388.63 674.82 362.7 674.82 360.38 685.3 381.22 685.3 380.45 688.76 359.61 688.76 358.85 692.22 384.8 692.23 387.1 681.83 366.28 681.82 367.06 678.32 387.85 678.32 388.63 674.82" style="fill:none;stroke:#000;stroke-miterlimit:10;stroke-width:2px"/><path d="M392.51,686.38l-3.85,17.42h5.25l1.53-6.93h20.11l2.32-10.49Zm18.67,7h-15l.78-3.51h15Z" transform="translate(0 -11.56)" style="fill:none;stroke:#000;stroke-miterlimit:10;stroke-width:2px"/><path d="M421.74,686.39l-3.86,17.43h25.57l3.86-17.43Zm17.37,13.94H424l2.31-10.44h15.1Z" transform="translate(0 -11.56)" style="fill:none;stroke:#000;stroke-miterlimit:10;stroke-width:2px"/><polygon points="480.68 674.83 479.91 678.32 489.94 678.32 486.86 692.25 492.42 692.25 495.5 678.32 505.46 678.32 506.23 674.83 480.68 674.83" style="fill:none;stroke:#000;stroke-miterlimit:10;stroke-width:2px"/><path d="M476.81,686.38h-25.6l-3.86,17.44h5.25l1.57-7.11,12.3,7.11H473l.32-1.45-9.55-5.5h10.77Zm-6.68,7H454.9l.78-3.51H470.9Z" transform="translate(0 -11.56)" style="fill:none;stroke:#000;stroke-miterlimit:10;stroke-width:2px"/><line x1="1065.07" y1="1028.98" x2="1065.07" y2="273" style="fill:none;stroke:#db0612;stroke-miterlimit:10;stroke-width:5px"/><line x1="1108.46" y1="1081.53" x2="1024.39" y2="1081.53" style="fill:none;stroke:#db0612;stroke-miterlimit:10;stroke-width:8.94970605984537px"/><polygon points="1063.04 1085.6 1105.07 1012.03 1021 1012.03 1063.04 1085.6" style="fill:#db0612"/><line x1="1105.75" y1="210.63" x2="1021.68" y2="210.63" style="fill:none;stroke:#db0612;stroke-miterlimit:10;stroke-width:8.94970605984537px"/><polygon points="1063.71 213 1105.75 286.56 1021.68 286.56 1063.71 213" style="fill:#db0612"/><g style="isolation:isolate"><path d="M1161.81,511.1v7a12.52,12.52,0,0,0,2.74,8.38c1.8,2.06,4.39,3.09,7.79,3.09s5.82-.85,7.63-2.57,2.72-4.34,2.72-7.86a11,11,0,0,0-2.67-7.61,8.93,8.93,0,0,0-7-3V497.07a17.42,17.42,0,0,1,9.64,2.81,18.9,18.9,0,0,1,6.77,7.84A25.42,25.42,0,0,1,1191.9,519q0,10.31-5.18,16.18T1172.34,541a14.66,14.66,0,0,1-8.71-2.95,18.49,18.49,0,0,1-6.16-7.63,16.87,16.87,0,0,1-6.09,8.62,16.67,16.67,0,0,1-9.92,2.95q-9.26,0-14.74-6.35t-5.47-16.7q0-9.92,5.29-16.24a17.4,17.4,0,0,1,14.07-6.33v11.48a9.61,9.61,0,0,0-7.37,3,11.55,11.55,0,0,0-2.83,8.2c0,3.55.94,6.36,2.83,8.4s4.63,3.07,8.22,3.07,6.41-1.07,8.36-3.21,2.93-5.32,2.93-9.54V511.1Z" transform="translate(0 -11.56)" style="fill:#db0612"/><path d="M1122.19,583.87V572.44h55.24l-5.75-16.86h9.64l9.87,26.83v1.46Z" transform="translate(0 -11.56)" style="fill:#db0612"/><path d="M1151.14,652.59q-14.84,0-22.36-5.55t-7.53-16.89q0-11.14,7.34-16.78t21.75-5.79h11.9q14.82,0,22.24,5.55t7.42,16.93q0,11.28-7.23,16.83t-21.63,5.7ZM1164,641.11q9.67,0,14.19-2.65t4.51-8.4q0-5.62-4.28-8.27T1165.07,619h-15.58q-9.63,0-14.36,2.69a9,9,0,0,0-4.72,8.45,8.86,8.86,0,0,0,4.37,8.17q4.37,2.65,13.67,2.79Z" transform="translate(0 -11.56)" style="fill:#db0612"/><path d="M1173.29,674.26l-5.34.33q6.29,5.38,6.28,14.74,0,10.24-7.84,14,7.84,5.58,7.84,15.68,0,8.46-4.67,12.59t-13.79,4.22h-33.58V724.37h33.25q4.86,0,7.13-2.13c1.51-1.41,2.27-3.76,2.27-7a9.5,9.5,0,0,0-2.11-6.4,11,11,0,0,0-5.5-3.47l-35,0V693.91h33.63q9-.24,9-9.21,0-6.9-5.62-9.78h-37V663.45h51.1Z" transform="translate(0 -11.56)" style="fill:#db0612"/><path d="M1173.29,758.42l-5.34.33q6.29,5.38,6.28,14.73,0,10.24-7.84,14,7.84,5.57,7.84,15.68,0,8.44-4.67,12.58T1155.77,820h-33.58V808.52h33.25c3.24,0,5.62-.7,7.13-2.12s2.27-3.76,2.27-7a9.53,9.53,0,0,0-2.11-6.4,11.07,11.07,0,0,0-5.5-3.47l-35,0V778.06h33.63q9-.22,9-9.21,0-6.89-5.62-9.77h-37V747.6h51.1Z" transform="translate(0 -11.56)" style="fill:#db0612"/></g><line x1="1080.32" y1="1081.53" x2="1092.19" y2="1081.53" style="fill:none;stroke:#db0612;stroke-miterlimit:10;stroke-width:3.18663762902473px"/><line x1="1090.5" y1="210.29" x2="1102.36" y2="210.29" style="fill:none;stroke:#db0612;stroke-miterlimit:10;stroke-width:3.18663762902473px"/><line x1="920.61" y1="1217.47" x2="70.72" y2="1217.47" style="fill:none;stroke:#db0612;stroke-miterlimit:10;stroke-width:5px"/><line x1="970.65" y1="1175.43" x2="970.65" y2="1259.5" style="fill:none;stroke:#db0612;stroke-miterlimit:10;stroke-width:8.94970605984537px"/><polygon points="974.72 1217.47 901.16 1175.43 901.16 1259.51 974.72 1217.47" style="fill:#db0612"/><line x1="16.44" y1="1175.43" x2="16.44" y2="1259.5" style="fill:none;stroke:#db0612;stroke-miterlimit:10;stroke-width:8.94970605984537px"/><polygon points="18.81 1217.47 92.37 1175.43 92.37 1259.51 18.81 1217.47" style="fill:#db0612"/><g style="isolation:isolate"><path d="M343.48,1155.3h7a12.5,12.5,0,0,0,8.39-2.74q3.09-2.68,3.09-7.79c0-3.27-.86-5.82-2.57-7.63s-4.34-2.71-7.87-2.71a11,11,0,0,0-7.6,2.67,8.93,8.93,0,0,0-3,7H329.46a17.33,17.33,0,0,1,2.81-9.63,18.79,18.79,0,0,1,7.84-6.78,25.52,25.52,0,0,1,11.26-2.43q10.29,0,16.18,5.17t5.88,14.38a14.58,14.58,0,0,1-3,8.71,18.49,18.49,0,0,1-7.62,6.17,16.91,16.91,0,0,1,8.62,6.09,16.74,16.74,0,0,1,2.95,9.92q0,9.25-6.36,14.73t-16.69,5.48q-9.92,0-16.25-5.29a17.45,17.45,0,0,1-6.32-14.07h11.47a9.59,9.59,0,0,0,3.05,7.36,11.54,11.54,0,0,0,8.19,2.84q5.34,0,8.41-2.84c2-1.89,3.07-4.62,3.07-8.21s-1.07-6.41-3.21-8.36-5.32-2.93-9.54-2.93h-6.76Z" transform="translate(0 -11.56)" style="fill:#db0612"/><path d="M420.89,1125.83v9.5h-1.42q-9.63.14-15.4,5.28t-6.84,14.6a18.6,18.6,0,0,1,14.12-5.81q9.11,0,14.38,6.42T431,1172.4q0,10.49-6.16,17t-16.17,6.49a20.79,20.79,0,0,1-16.7-7.61q-6.4-7.59-6.4-19.92v-3.92q0-18.09,8.81-28.34t25.34-10.25Zm-12.33,32.82a12.08,12.08,0,0,0-6.92,2.13,12.43,12.43,0,0,0-4.6,5.67v3.49q0,7.65,3.21,12.16a10.17,10.17,0,0,0,16.39.69q3-3.82,3-10.06a16.21,16.21,0,0,0-3-10.16A9.65,9.65,0,0,0,408.56,1158.65Z" transform="translate(0 -11.56)" style="fill:#db0612"/><path d="M485,1166q0,14.83-5.55,22.37t-16.88,7.53q-11.15,0-16.79-7.35T440,1166.78v-11.9q0-14.84,5.54-22.25t16.94-7.41q11.28,0,16.83,7.22t5.69,21.63Zm-11.47-12.84q0-9.68-2.65-14.19t-8.4-4.51q-5.62,0-8.27,4.27T451.39,1152v15.59q0,9.63,2.7,14.35a9,9,0,0,0,8.45,4.73,8.89,8.89,0,0,0,8.17-4.37q2.64-4.36,2.79-13.67Z" transform="translate(0 -11.56)" style="fill:#db0612"/><path d="M506.65,1143.83l.33,5.33q5.38-6.27,14.73-6.28,10.24,0,14,7.84,5.57-7.83,15.68-7.84,8.45,0,12.58,4.68t4.23,13.79v33.57H556.75v-33.24c0-3.25-.7-5.62-2.12-7.13s-3.76-2.27-7-2.27a9.58,9.58,0,0,0-6.4,2.1,11.11,11.11,0,0,0-3.47,5.5l0,35H526.29V1161.3q-.22-9-9.21-9-6.89,0-9.77,5.62v37H495.83v-51.09Z" transform="translate(0 -11.56)" style="fill:#db0612"/><path d="M590.8,1143.83l.33,5.33q5.39-6.27,14.74-6.28,10.25,0,14,7.84,5.58-7.83,15.68-7.84,8.46,0,12.59,4.68t4.23,13.79v33.57H640.91v-33.24c0-3.25-.71-5.62-2.13-7.13s-3.76-2.27-7-2.27a9.54,9.54,0,0,0-6.4,2.1,11.11,11.11,0,0,0-3.47,5.5l0,35H610.45V1161.3q-.24-9-9.21-9c-4.6,0-7.85,1.87-9.78,5.62v37H580v-51.09Z" transform="translate(0 -11.56)" style="fill:#db0612"/></g><line x1="970.65" y1="1223.4" x2="970.65" y2="1211.54" style="fill:none;stroke:#db0612;stroke-miterlimit:10;stroke-width:3.18663762902473px"/><line x1="16.1" y1="1223.4" x2="16.1" y2="1211.54" style="fill:none;stroke:#db0612;stroke-miterlimit:10;stroke-width:3.18663762902473px"/><g style="isolation:isolate"><path d="M365.17,42.15H340.52V62.3h28.63v6.14H333V11.56h35.74V17.7H340.52V36h24.65Z" transform="translate(0 -11.56)" style="fill:#db0612"/><path d="M402,57.23a5.31,5.31,0,0,0-2.2-4.55c-1.48-1.08-4-2-7.7-2.8a36.5,36.5,0,0,1-8.71-2.81,12.38,12.38,0,0,1-4.77-3.91A9.31,9.31,0,0,1,377,37.77,11,11,0,0,1,381.43,29a17.21,17.21,0,0,1,11.24-3.59q7.18,0,11.66,3.71a11.8,11.8,0,0,1,4.47,9.49h-7.27A6.52,6.52,0,0,0,399,33.48a9.39,9.39,0,0,0-6.34-2.15,9.87,9.87,0,0,0-6.18,1.72,5.4,5.4,0,0,0-2.22,4.49,4.37,4.37,0,0,0,2.07,3.94A25.08,25.08,0,0,0,393.82,44a39.24,39.24,0,0,1,8.77,2.89,12.76,12.76,0,0,1,5,4.05,9.92,9.92,0,0,1,1.62,5.76,10.81,10.81,0,0,1-4.53,9.08q-4.53,3.42-11.76,3.42a21.2,21.2,0,0,1-9-1.8,14.59,14.59,0,0,1-6.12-5,12.11,12.11,0,0,1-2.21-7h7.23a7.48,7.48,0,0,0,2.91,5.76,11.29,11.29,0,0,0,7.17,2.13,11.62,11.62,0,0,0,6.58-1.66A5.08,5.08,0,0,0,402,57.23Z" transform="translate(0 -11.56)" style="fill:#db0612"/><path d="M454.31,47.77q0,9.66-4.42,15.55a14.15,14.15,0,0,1-11.95,5.9q-7.69,0-12.11-4.88V84.69H418.6V26.17h6.6l.36,4.69q4.41-5.47,12.26-5.47a14.39,14.39,0,0,1,12.05,5.74q4.44,5.75,4.44,16ZM447.08,47q0-7.14-3.05-11.29a9.82,9.82,0,0,0-8.36-4.14,10.63,10.63,0,0,0-9.84,5.82v20.2a10.65,10.65,0,0,0,9.92,5.78A9.76,9.76,0,0,0,444,59.2Q447.09,55.08,447.08,47Z" transform="translate(0 -11.56)" style="fill:#db0612"/><path d="M481,69.22q-8.58,0-14-5.65t-5.39-15.09V47.15a25.38,25.38,0,0,1,2.4-11.23,18.74,18.74,0,0,1,6.72-7.74,16.92,16.92,0,0,1,9.36-2.79q8.24,0,12.81,5.43t4.57,15.55v3H468.88a15,15,0,0,0,3.65,10.09,11.46,11.46,0,0,0,8.89,3.85,12.59,12.59,0,0,0,6.48-1.56,16.29,16.29,0,0,0,4.65-4.14L497,61.05Q491.65,69.22,481,69.22Zm-.89-37.89a9.65,9.65,0,0,0-7.35,3.18q-3,3.18-3.67,8.93h21.17v-.55c-.21-3.67-1.2-6.52-3-8.53A9.06,9.06,0,0,0,480.13,31.33Z" transform="translate(0 -11.56)" style="fill:#db0612"/><path d="M530.48,57.23a5.31,5.31,0,0,0-2.21-4.55c-1.47-1.08-4-2-7.69-2.8a36.6,36.6,0,0,1-8.72-2.81,12.42,12.42,0,0,1-4.76-3.91,9.31,9.31,0,0,1-1.54-5.39A11,11,0,0,1,510,29a17.19,17.19,0,0,1,11.23-3.59q7.19,0,11.66,3.71a11.8,11.8,0,0,1,4.47,9.49h-7.26a6.52,6.52,0,0,0-2.52-5.11,9.41,9.41,0,0,0-6.35-2.15A9.84,9.84,0,0,0,515,33.05a5.39,5.39,0,0,0-2.23,4.49,4.37,4.37,0,0,0,2.07,3.94A25.19,25.19,0,0,0,522.33,44a39.06,39.06,0,0,1,8.77,2.89,12.76,12.76,0,0,1,5,4.05,9.92,9.92,0,0,1,1.62,5.76,10.81,10.81,0,0,1-4.53,9.08q-4.53,3.42-11.75,3.42a21.25,21.25,0,0,1-9-1.8,14.62,14.62,0,0,1-6.11-5,12.11,12.11,0,0,1-2.21-7h7.23a7.48,7.48,0,0,0,2.91,5.76,11.29,11.29,0,0,0,7.17,2.13A11.64,11.64,0,0,0,528,61.66,5.11,5.11,0,0,0,530.48,57.23Z" transform="translate(0 -11.56)" style="fill:#db0612"/><path d="M571.73,57.23a5.31,5.31,0,0,0-2.21-4.55c-1.47-1.08-4-2-7.69-2.8a36.6,36.6,0,0,1-8.72-2.81,12.42,12.42,0,0,1-4.76-3.91,9.31,9.31,0,0,1-1.54-5.39A11,11,0,0,1,551.2,29a17.19,17.19,0,0,1,11.23-3.59q7.19,0,11.66,3.71a11.8,11.8,0,0,1,4.47,9.49H571.3a6.52,6.52,0,0,0-2.52-5.11,9.41,9.41,0,0,0-6.35-2.15,9.84,9.84,0,0,0-6.17,1.72A5.39,5.39,0,0,0,554,37.54a4.37,4.37,0,0,0,2.07,3.94A25.19,25.19,0,0,0,563.58,44a39.06,39.06,0,0,1,8.77,2.89,12.76,12.76,0,0,1,5,4.05A9.92,9.92,0,0,1,579,56.72a10.81,10.81,0,0,1-4.53,9.08q-4.53,3.42-11.75,3.42a21.25,21.25,0,0,1-9-1.8,14.62,14.62,0,0,1-6.11-5,12.11,12.11,0,0,1-2.21-7h7.23a7.48,7.48,0,0,0,2.91,5.76,11.29,11.29,0,0,0,7.17,2.13,11.64,11.64,0,0,0,6.58-1.66A5.11,5.11,0,0,0,571.73,57.23Z" transform="translate(0 -11.56)" style="fill:#db0612"/><path d="M614.46,64.26q-4.22,5-12.38,5-6.76,0-10.29-3.93t-3.58-11.62V26.17h7.23V53.48q0,9.6,7.81,9.61,8.28,0,11-6.18V26.17h7.22V68.44h-6.87Z" transform="translate(0 -11.56)" style="fill:#db0612"/><path d="M652.9,32.66a20.82,20.82,0,0,0-3.56-.28q-7.11,0-9.64,6.06v30h-7.23V26.17h7l.12,4.88a11.26,11.26,0,0,1,10.08-5.66,7.3,7.3,0,0,1,3.2.55Z" transform="translate(0 -11.56)" style="fill:#db0612"/><path d="M684.07,68.44a15.18,15.18,0,0,1-1-4.46,16.13,16.13,0,0,1-12,5.24,14.91,14.91,0,0,1-10.25-3.54,11.41,11.41,0,0,1-4-9,12,12,0,0,1,5-10.26q5-3.65,14.12-3.65h7V39.49a8.12,8.12,0,0,0-2.27-6c-1.51-1.5-3.73-2.25-6.68-2.25a10.54,10.54,0,0,0-6.48,1.95,5.76,5.76,0,0,0-2.62,4.73h-7.26a9.93,9.93,0,0,1,2.24-6.11,15.34,15.34,0,0,1,6.1-4.67,20.39,20.39,0,0,1,8.45-1.72q7.3,0,11.45,3.65t4.3,10.06V58.55a23.76,23.76,0,0,0,1.48,9.26v.63Zm-12-5.51a12.71,12.71,0,0,0,6.44-1.76,10.55,10.55,0,0,0,4.42-4.57V47.93h-5.67Q664,47.93,664,55.7A6.6,6.6,0,0,0,666.26,61,8.74,8.74,0,0,0,672.08,62.93Z" transform="translate(0 -11.56)" style="fill:#db0612"/><path d="M356.14,164.44h-7.26V116.27l-14.57,5.36v-6.57l20.7-7.77h1.13Z" transform="translate(0 -11.56)" style="fill:#db0612"/><path d="M401.06,164.44H393.8V116.27l-14.57,5.36v-6.57l20.7-7.77h1.13Z" transform="translate(0 -11.56)" style="fill:#db0612"/><path d="M457.9,140.18q0,12.69-4.34,18.87T440,165.22q-9.11,0-13.48-6t-4.53-18v-9.65q0-12.54,4.34-18.63t13.59-6.1q9.18,0,13.52,5.88t4.45,18.14Zm-7.23-9.88q0-9.18-2.58-13.38c-1.71-2.8-4.44-4.2-8.16-4.2s-6.39,1.39-8.09,4.18-2.56,7.07-2.61,12.85v11.56q0,9.23,2.67,13.62a8.87,8.87,0,0,0,8.11,4.39,8.73,8.73,0,0,0,7.95-4.14q2.6-4.14,2.71-13.05Z" transform="translate(0 -11.56)" style="fill:#db0612"/><path d="M482.94,143.23H463.88v-5.9h19.06Z" transform="translate(0 -11.56)" style="fill:#db0612"/><path d="M526,111.63l-23.56,52.81h-7.58l23.48-50.94H487.51v-5.94H526Z" transform="translate(0 -11.56)" style="fill:#db0612"/><path d="M569.81,140.18q0,12.69-4.33,18.87t-13.56,6.17q-9.1,0-13.47-6t-4.53-18v-9.65q0-12.54,4.33-18.63t13.59-6.1q9.18,0,13.52,5.88t4.45,18.14Zm-7.22-9.88q0-9.18-2.58-13.38t-8.17-4.2q-5.54,0-8.08,4.18t-2.62,12.85v11.56q0,9.23,2.68,13.62a8.84,8.84,0,0,0,8.1,4.39,8.73,8.73,0,0,0,8-4.14q2.6-4.14,2.72-13.05Z" transform="translate(0 -11.56)" style="fill:#db0612"/><path d="M586.61,122.17l.2,4.69q4.63-5.48,12.53-5.47,8.88,0,12.08,6.8a16,16,0,0,1,5.48-4.92,16.25,16.25,0,0,1,8-1.88q13.9,0,14.14,14.73v28.32h-7.22V136.55q0-4.53-2.07-6.78c-1.39-1.5-3.7-2.25-7-2.25a9.55,9.55,0,0,0-6.68,2.41,9.7,9.7,0,0,0-3.08,6.46v28.05h-7.27v-27.7q0-9.21-9-9.22-7.11,0-9.73,6.06v30.86h-7.23V122.17Z" transform="translate(0 -11.56)" style="fill:#db0612"/><path d="M656.73,122.17l.19,4.69q4.65-5.48,12.54-5.47,8.87,0,12.07,6.8a15.76,15.76,0,0,1,13.48-6.8q13.9,0,14.14,14.73v28.32h-7.23V136.55q0-4.53-2.07-6.78t-7-2.25a9.55,9.55,0,0,0-6.68,2.41,9.75,9.75,0,0,0-3.09,6.46v28.05h-7.26v-27.7q0-9.21-9-9.22-7.11,0-9.72,6.06v30.86h-7.23V122.17Z" transform="translate(0 -11.56)" style="fill:#db0612"/></g></g><g id="Camada_4" data-name="Camada 4"><path d="M1762.5,417.7s10.07-19.55,62.82-11.85,57.49,4.15,153.5,53.34c42.08,22.52,105.5,44.45,140.47,46.82s68.07.19,77.55.19,41.57,5.74,212.86-71.9c47.41-19.56,88.9-45,141.05-23.71,8.89,9.48,32,30.23,27.26,93.64s-20.06,138.1.64,260.78c4.11,38.52,36.7,166.54-2.41,184.32-15.41,10.07-68.75,23.11-133.95,4.74S2263.9,891.84,2195.74,880c-11.26-1.19-38.37-2.82-52.15-2.77-8.3-.39-108.26,3.16-258.41,75.07-15.41,6.32-59.27,23.71-130-3.55-12.64-13.44-32-35.56-25.68-75.47s38.32-128.41,21.43-289.32C1745.61,551.94,1718.94,469.27,1762.5,417.7Z" transform="translate(0 -11.56)" style="fill:none;stroke:#000;stroke-miterlimit:10;stroke-width:3px;fill-rule:evenodd"/><path d="M1978.82,459.19s-40.89,41.49-77,200.32S1856.14,960,1856.14,960" transform="translate(0 -11.56)" style="fill:none;stroke:#000;stroke-miterlimit:10;stroke-width:3px;fill-rule:evenodd"/><path d="M2337.18,465.32s20.06,51,67.18,217.73,64.58,277,64.58,277" transform="translate(0 -11.56)" style="fill:none;stroke:#000;stroke-miterlimit:10;stroke-width:3px;fill-rule:evenodd"/><path d="M2230.11,597.15,2203.65,631l-103.12,0,5.77-25.86a10.35,10.35,0,0,1,8.13-7.76,11.06,11.06,0,0,1,2.3-.2h1.12Z" transform="translate(0 -11.56)" style="fill:none;stroke:#000;stroke-miterlimit:10;stroke-width:1.6792343854904175px;fill-rule:evenodd"/><polygon points="2140.63 625.65 2175.64 625.65 2155.12 718.31 2120.11 718.31 2140.63 625.65" style="fill:none;stroke:#000;stroke-miterlimit:10;stroke-width:1.6792343854904175px;fill-rule:evenodd"/><path d="M2080.25,729.9c18.17,0,32.9-14.4,32.9-32.17a27.65,27.65,0,0,0-.41-5.48,24.71,24.71,0,0,0-2-5.89l-2.84-6s0,0,0,0l-36.3-75.55c-3.51-7.6-8.86-7.72-12.2-7.52l-42.47,0L2009.41,631l37.21,0,31.86,65.69h-48.54l13.18-59.46h-35l-20.52,92.66,92.66,0" transform="translate(0 -11.56)" style="fill:none;stroke:#000;stroke-miterlimit:10;stroke-width:1.6792343854904175px;fill-rule:evenodd"/><path d="M2327.58,608.29c0,.05,0,.1,0,.17a9.76,9.76,0,0,1-1.93,5.61L2313.13,631h-96.77l26.44-33.84h72.92C2321.79,596.75,2327.85,601.42,2327.58,608.29Z" transform="translate(0 -11.56)" style="fill:none;stroke:#000;stroke-linecap:round;stroke-linejoin:round;stroke-width:1.6792343854904175px"/><path d="M2293.87,687.52a30,30,0,0,1,3,11.79c.31,17.74-13.41,30.36-28.9,30.56l-63.71-.26-15.93-33h69.84l-24.27-34.45,27.68-25h42.55l-27.53,25.05s8.47,11.9,13.51,19.23A53.43,53.43,0,0,1,2293.87,687.52Z" transform="translate(0 -11.56)" style="fill:none;stroke:#000;stroke-linecap:round;stroke-linejoin:round;stroke-width:1.6792343854904175px"/><polygon points="2201.51 728.84 2234.46 728.88 2229.78 750.21 2196.84 750.17 2201.51 728.84" style="fill:none;stroke:#000;stroke-miterlimit:10;stroke-width:1.2214815059439068px;fill-rule:evenodd"/><polygon points="2238.91 728.87 2263.79 728.85 2259.1 750.21 2234.23 750.2 2238.91 728.87" style="fill:none;stroke:#000;stroke-miterlimit:10;stroke-width:1.2214815059439068px;fill-rule:evenodd"/><polygon points="2268.37 728.86 2285.34 728.86 2280.68 750.19 2263.69 750.19 2268.37 728.86" style="fill:none;stroke:#000;stroke-miterlimit:10;stroke-width:1.2214815059439068px;fill-rule:evenodd"/><polygon points="2289.66 728.84 2298.05 728.85 2293.34 750.21 2284.98 750.2 2289.66 728.84" style="fill:none;stroke:#000;stroke-miterlimit:10;stroke-width:1.2214815059439068px;fill-rule:evenodd"/><polygon points="2302.24 728.84 2308.66 728.85 2303.99 750.2 2297.56 750.2 2302.24 728.84" style="fill:none;stroke:#000;stroke-miterlimit:10;stroke-width:1.2214815059439068px;fill-rule:evenodd"/><polygon points="2312.63 728.85 2316.79 728.86 2312.19 750.19 2308.02 750.19 2312.63 728.85" style="fill:none;stroke:#000;stroke-miterlimit:10;stroke-width:1.2214815059439068px;fill-rule:evenodd"/><polygon points="2196.91 728.88 2165.24 728.88 2162.41 741.68 2187.86 741.68 2186.93 745.91 2161.47 745.91 2160.53 750.14 2192.23 750.15 2195.04 737.44 2169.62 737.43 2170.56 733.15 2195.96 733.15 2196.91 728.88" style="fill:none;stroke:#000;stroke-miterlimit:10;stroke-width:1.2214815059439068px"/><polygon points="2016.89 728.86 1985.21 728.86 1982.38 741.67 2007.84 741.67 2006.9 745.89 1981.44 745.89 1980.51 750.12 2012.2 750.13 2015.02 737.43 1989.59 737.42 1990.54 733.14 2015.93 733.14 2016.89 728.86" style="fill:none;stroke:#000;stroke-miterlimit:10;stroke-width:1.2214815059439068px"/><path d="M2021.63,740.43l-4.71,21.27h6.41l1.88-8.47h24.56l2.83-12.8Zm22.8,8.56h-18.28l.95-4.28h18.28Z" transform="translate(0 -11.56)" style="fill:none;stroke:#000;stroke-miterlimit:10;stroke-width:1.2214815059439068px"/><path d="M2057.33,740.43l-4.71,21.3h31.23l4.71-21.3Zm21.22,17h-18.43l2.82-12.76h18.44Z" transform="translate(0 -11.56)" style="fill:none;stroke:#000;stroke-miterlimit:10;stroke-width:1.2214815059439068px"/><polygon points="2129.33 728.88 2128.39 733.14 2140.64 733.14 2136.87 750.16 2143.67 750.16 2147.43 733.14 2159.59 733.14 2160.53 728.88 2129.33 728.88" style="fill:none;stroke:#000;stroke-miterlimit:10;stroke-width:1.2214815059439068px"/><path d="M2124.6,740.43h-31.27l-4.72,21.29H2095l1.92-8.67,15,8.67h7.91l.39-1.77-11.66-6.72h13.15Zm-8.16,8.56h-18.6l.94-4.28h18.6Z" transform="translate(0 -11.56)" style="fill:none;stroke:#000;stroke-miterlimit:10;stroke-width:1.2214815059439068px"/><line x1="2703.05" y1="912.68" x2="2703.05" y2="421.85" style="fill:none;stroke:#db0612;stroke-miterlimit:10;stroke-width:3.257660149151321px"/><line x1="2740.03" y1="945.06" x2="2669.44" y2="945.06" style="fill:none;stroke:#db0612;stroke-miterlimit:10;stroke-width:7.514327077862153px"/><polygon points="2702.31 948.48 2737.6 886.71 2667.01 886.71 2702.31 948.48" style="fill:#db0612"/><line x1="2738.81" y1="390.95" x2="2668.22" y2="390.95" style="fill:none;stroke:#db0612;stroke-miterlimit:10;stroke-width:7.514327077862153px"/><polygon points="2703.52 392.94 2738.81 454.71 2668.22 454.71 2703.52 392.94" style="fill:#db0612"/><g style="isolation:isolate"><path d="M2737.6,573.56V564H2784l-4.83-14.16h8.09l8.29,22.52v1.23Z" transform="translate(0 -11.56)" style="fill:#db0612"/><path d="M2766.23,596.21l29.1,3.13v31H2787v-23l-13.8-1.59a17.85,17.85,0,0,1,2.3,9q0,8.25-5.28,12.83T2756,632.21q-8.8,0-14-5.08t-5.21-13.91a19.42,19.42,0,0,1,4.5-13.15,16.25,16.25,0,0,1,11.87-5.65v9.32a10.15,10.15,0,0,0-6.44,3,9.19,9.19,0,0,0-2.24,6.43,8.27,8.27,0,0,0,3.17,6.91c2.12,1.66,5,2.48,8.65,2.48s6.29-.91,8.34-2.73a9.58,9.58,0,0,0,3.07-7.54,12.63,12.63,0,0,0-.69-4.44,12.49,12.49,0,0,0-2.72-4Z" transform="translate(0 -11.56)" style="fill:#db0612"/><path d="M2761.91,677.41q-12.45,0-18.78-4.66t-6.32-14.17q0-9.36,6.16-14.1t18.26-4.86h10q12.45,0,18.68,4.66t6.23,14.22q0,9.46-6.07,14.13t-18.16,4.78Zm10.78-9.63q8.13,0,11.92-2.23a8.48,8.48,0,0,0,.19-14q-3.59-2.22-11.2-2.34h-13.08q-8.08,0-12.06,2.26a7.6,7.6,0,0,0-4,7.1,7.45,7.45,0,0,0,3.67,6.86q3.66,2.22,11.48,2.34Z" transform="translate(0 -11.56)" style="fill:#db0612"/><path d="M2780.5,695.61l-4.48.28q5.28,4.51,5.28,12.37,0,8.61-6.59,11.78a15.21,15.21,0,0,1,6.59,13.16q0,7.09-3.93,10.57t-11.58,3.55H2737.6v-9.64h27.91c2.73,0,4.72-.59,6-1.78s1.9-3.16,1.9-5.91a8,8,0,0,0-1.76-5.37,9.37,9.37,0,0,0-4.62-2.92l-29.42,0v-9.63h28.23c5.05-.14,7.57-2.71,7.57-7.74q0-5.79-4.71-8.2H2737.6v-9.64h42.9Z" transform="translate(0 -11.56)" style="fill:#db0612"/><path d="M2780.5,766.27l-4.48.28q5.28,4.51,5.28,12.37,0,8.6-6.59,11.77a15.23,15.23,0,0,1,6.59,13.17q0,7.1-3.93,10.57T2765.79,818H2737.6v-9.63h27.91c2.73,0,4.72-.59,6-1.79s1.9-3.15,1.9-5.9a8,8,0,0,0-1.76-5.38,9.42,9.42,0,0,0-4.62-2.91l-29.42,0v-9.64h28.23q7.58-.19,7.57-7.73,0-5.79-4.71-8.21H2737.6v-9.63h42.9Z" transform="translate(0 -11.56)" style="fill:#db0612"/></g><line x1="1614.45" y1="531.59" x2="1614.45" y2="844.35" style="fill:none;stroke:#db0612;stroke-miterlimit:10;stroke-width:2.5423986421465736px"/><line x1="1578.71" y1="493.82" x2="1646.6" y2="493.82" style="fill:none;stroke:#db0612;stroke-miterlimit:10;stroke-width:7.227470427891388px"/><polygon points="1614.99 490.53 1581.04 549.94 1648.93 549.94 1614.99 490.53" style="fill:#db0612"/><line x1="1579.87" y1="863.89" x2="1647.77" y2="863.89" style="fill:none;stroke:#db0612;stroke-miterlimit:10;stroke-width:7.227470427891388px"/><polygon points="1613.82 861.97 1579.87 802.56 1647.77 802.56 1613.82 861.97" style="fill:#db0612"/><g style="isolation:isolate"><path d="M1562,784.87v9.23h-44.61l4.64,13.62h-7.78l-8-21.66v-1.19Z" transform="translate(0 -11.56)" style="fill:#db0612"/><path d="M1530,754.86v-5.65a10,10,0,0,0-2.21-6.76,7.87,7.87,0,0,0-6.29-2.5,8.59,8.59,0,0,0-6.16,2.08q-2.19,2.07-2.19,6.35a8.88,8.88,0,0,0,2.15,6.14,7.21,7.21,0,0,0,5.63,2.4v9.27a14,14,0,0,1-7.78-2.27,15.29,15.29,0,0,1-5.48-6.33,20.63,20.63,0,0,1-2-9.1q0-8.31,4.18-13.06t11.61-4.75a11.87,11.87,0,0,1,7,2.38,15,15,0,0,1,5,6.16,13.72,13.72,0,0,1,4.92-7,13.47,13.47,0,0,1,8-2.38,14.91,14.91,0,0,1,11.9,5.13q4.42,5.13,4.42,13.48,0,8-4.27,13.12a14,14,0,0,1-11.36,5.11v-9.27a7.76,7.76,0,0,0,6-2.46,9.34,9.34,0,0,0,2.29-6.61,9.64,9.64,0,0,0-2.29-6.79q-2.3-2.48-6.64-2.48a8.68,8.68,0,0,0-6.75,2.59c-1.58,1.73-2.36,4.3-2.36,7.71v5.45Z" transform="translate(0 -11.56)" style="fill:#db0612"/><path d="M1538.6,685q12,0,18.06,4.48t6.08,13.64q0,9-5.93,13.56t-17.56,4.67h-9.61q-12,0-18-4.48t-6-13.68q0-9.1,5.84-13.59T1529,685Zm-10.37,9.27q-7.82,0-11.46,2.14a8.16,8.16,0,0,0-.19,13.46q3.45,2.13,10.77,2.25h12.59q7.79,0,11.59-2.18a7.29,7.29,0,0,0,3.82-6.82,7.17,7.17,0,0,0-3.53-6.6q-3.52-2.13-11-2.25Z" transform="translate(0 -11.56)" style="fill:#db0612"/><path d="M1520.72,667.49l4.31-.27q-5.08-4.35-5.08-11.9,0-8.28,6.33-11.33a14.63,14.63,0,0,1-6.33-12.66q0-6.83,3.78-10.16c2.52-2.23,6.23-3.36,11.14-3.42H1562V627h-26.85q-3.93,0-5.76,1.72c-1.22,1.14-1.83,3-1.83,5.68a7.74,7.74,0,0,0,1.7,5.17,8.94,8.94,0,0,0,4.44,2.8l28.3,0v9.27h-27.15q-7.29.2-7.29,7.44,0,5.57,4.54,7.89H1562v9.27h-41.26Z" transform="translate(0 -11.56)" style="fill:#db0612"/><path d="M1520.72,599.53l4.31-.27q-5.08-4.35-5.08-11.9,0-8.28,6.33-11.33a14.63,14.63,0,0,1-6.33-12.66q0-6.82,3.78-10.16t11.14-3.42H1562v9.27h-26.85q-3.93,0-5.76,1.72c-1.22,1.14-1.83,3-1.83,5.68a7.74,7.74,0,0,0,1.7,5.17,8.94,8.94,0,0,0,4.44,2.8l28.3,0v9.27h-27.15q-7.29.2-7.29,7.44,0,5.56,4.54,7.89H1562v9.27h-41.26Z" transform="translate(0 -11.56)" style="fill:#db0612"/></g><line x1="2536.53" y1="1041.25" x2="1759.17" y2="1041.25" style="fill:none;stroke:#db0612;stroke-miterlimit:10;stroke-width:3.119135551268902px"/><line x1="2591.86" y1="1006.28" x2="2591.86" y2="1076.86" style="fill:none;stroke:#db0612;stroke-miterlimit:10;stroke-width:7.514327077862153px"/><polygon points="2595.28 1044 2533.51 1008.7 2533.51 1079.29 2595.28 1044" style="fill:#db0612"/><line x1="1728.27" y1="1007.49" x2="1728.27" y2="1078.08" style="fill:none;stroke:#db0612;stroke-miterlimit:10;stroke-width:7.514327077862153px"/><polygon points="1730.26 1042.78 1792.03 1007.49 1792.03 1078.08 1730.26 1042.78" style="fill:#db0612"/><g style="isolation:isolate"><path d="M2051.05,1023.82h-9.6V977.44l-14.15,4.82v-8.08l22.52-8.29h1.23Z" transform="translate(0 -11.56)" style="fill:#db0612"/><path d="M2073.69,995.19l3.13-29.1h31v8.32h-23l-1.58,13.8a17.85,17.85,0,0,1,9-2.3q8.24,0,12.82,5.28t4.58,14.19q0,8.8-5.07,14t-13.92,5.21a19.37,19.37,0,0,1-13.14-4.5,16.25,16.25,0,0,1-5.65-11.87h9.31a10.16,10.16,0,0,0,3,6.44,9.18,9.18,0,0,0,6.42,2.24,8.29,8.29,0,0,0,6.92-3.17q2.48-3.18,2.48-8.65,0-5.26-2.74-8.34a9.55,9.55,0,0,0-7.53-3.08,10.59,10.59,0,0,0-8.41,3.41Z" transform="translate(0 -11.56)" style="fill:#db0612"/><path d="M2154.9,999.51q0,12.45-4.66,18.78t-14.18,6.32q-9.36,0-14.09-6.16t-4.86-18.26v-10q0-12.47,4.66-18.68t14.21-6.23q9.48,0,14.14,6.07t4.78,18.16Zm-9.64-10.78q0-8.13-2.22-11.92a8.5,8.5,0,0,0-14-.2q-2.22,3.6-2.34,11.21v13.08q0,8.08,2.26,12.06a7.61,7.61,0,0,0,7.1,4,7.45,7.45,0,0,0,6.86-3.67q2.22-3.66,2.34-11.48Z" transform="translate(0 -11.56)" style="fill:#db0612"/><path d="M2173.1,980.92l.27,4.48q4.53-5.28,12.37-5.28,8.61,0,11.78,6.59a15.22,15.22,0,0,1,13.16-6.59q7.11,0,10.57,3.93t3.55,11.58v28.19h-9.63V995.91c0-2.73-.6-4.72-1.79-6s-3.16-1.91-5.91-1.91a8,8,0,0,0-5.37,1.77,9.28,9.28,0,0,0-2.91,4.62l0,29.42h-9.64V995.59q-.2-7.58-7.73-7.58-5.79,0-8.21,4.72v31.09H2164v-42.9Z" transform="translate(0 -11.56)" style="fill:#db0612"/><path d="M2243.75,980.92l.28,4.48q4.53-5.28,12.37-5.28,8.61,0,11.78,6.59a15.22,15.22,0,0,1,13.16-6.59q7.11,0,10.57,3.93t3.55,11.58v28.19h-9.64V995.91c0-2.73-.59-4.72-1.78-6s-3.16-1.91-5.91-1.91a8,8,0,0,0-5.37,1.77,9.37,9.37,0,0,0-2.92,4.62l0,29.42h-9.63V995.59q-.2-7.58-7.73-7.58-5.79,0-8.21,4.72v31.09h-9.64v-42.9Z" transform="translate(0 -11.56)" style="fill:#db0612"/></g><g style="isolation:isolate"><path d="M2004.58,245.15h-24.65v20.16h28.63v6.13h-36.13V214.57h35.74v6.13h-28.24V239h24.65Z" transform="translate(0 -11.56)" style="fill:#db0612"/><path d="M2041.37,260.23a5.32,5.32,0,0,0-2.2-4.55c-1.48-1.08-4-2-7.7-2.79a36,36,0,0,1-8.71-2.82,12.37,12.37,0,0,1-4.77-3.9,9.41,9.41,0,0,1-1.54-5.39,11,11,0,0,1,4.4-8.79,17.13,17.13,0,0,1,11.23-3.59q7.18,0,11.66,3.71a11.77,11.77,0,0,1,4.47,9.49h-7.27a6.52,6.52,0,0,0-2.52-5.12,9.44,9.44,0,0,0-6.34-2.15,10,10,0,0,0-6.18,1.72,5.42,5.42,0,0,0-2.22,4.49,4.39,4.39,0,0,0,2.07,4,25.67,25.67,0,0,0,7.48,2.54,39.06,39.06,0,0,1,8.77,2.89,12.83,12.83,0,0,1,5,4,10,10,0,0,1,1.62,5.76,10.83,10.83,0,0,1-4.53,9.09q-4.53,3.4-11.76,3.41a21.39,21.39,0,0,1-9-1.79,14.59,14.59,0,0,1-6.12-5,12.13,12.13,0,0,1-2.2-7h7.22a7.49,7.49,0,0,0,2.91,5.77,11.29,11.29,0,0,0,7.17,2.12,11.6,11.6,0,0,0,6.58-1.66A5.07,5.07,0,0,0,2041.37,260.23Z" transform="translate(0 -11.56)" style="fill:#db0612"/><path d="M2093.72,250.78q0,9.64-4.42,15.54a14.12,14.12,0,0,1-12,5.9q-7.7,0-12.11-4.88v20.35H2058V229.18h6.61l.35,4.68q4.41-5.46,12.26-5.46a14.39,14.39,0,0,1,12.05,5.74q4.44,5.75,4.44,16Zm-7.23-.82q0-7.16-3-11.29a9.8,9.8,0,0,0-8.36-4.14,10.63,10.63,0,0,0-9.84,5.82v20.19a10.63,10.63,0,0,0,9.92,5.78,9.74,9.74,0,0,0,8.26-4.12C2085.47,259.46,2086.49,255.37,2086.49,250Z" transform="translate(0 -11.56)" style="fill:#db0612"/><path d="M2120.44,272.22a18.5,18.5,0,0,1-14-5.64q-5.38-5.64-5.39-15.1v-1.33a25.41,25.41,0,0,1,2.4-11.23,18.72,18.72,0,0,1,6.72-7.73,16.92,16.92,0,0,1,9.36-2.79q8.24,0,12.81,5.42t4.57,15.55v3h-28.63a15,15,0,0,0,3.65,10.1,11.49,11.49,0,0,0,8.89,3.84,12.59,12.59,0,0,0,6.48-1.56,16.29,16.29,0,0,0,4.65-4.14l4.41,3.44Q2131.06,272.22,2120.44,272.22Zm-.9-37.89a9.63,9.63,0,0,0-7.35,3.19q-3,3.18-3.67,8.92h21.17v-.54c-.21-3.68-1.19-6.52-3-8.54A9.06,9.06,0,0,0,2119.54,234.33Z" transform="translate(0 -11.56)" style="fill:#db0612"/><path d="M2169.89,260.23a5.33,5.33,0,0,0-2.21-4.55c-1.47-1.08-4-2-7.69-2.79a35.87,35.87,0,0,1-8.71-2.82,12.37,12.37,0,0,1-4.77-3.9,9.34,9.34,0,0,1-1.54-5.39,11,11,0,0,1,4.39-8.79,17.13,17.13,0,0,1,11.23-3.59q7.18,0,11.66,3.71a11.77,11.77,0,0,1,4.47,9.49h-7.26a6.52,6.52,0,0,0-2.52-5.12,9.46,9.46,0,0,0-6.35-2.15,9.9,9.9,0,0,0-6.17,1.72,5.42,5.42,0,0,0-2.23,4.49,4.39,4.39,0,0,0,2.07,4,25.78,25.78,0,0,0,7.48,2.54,39.06,39.06,0,0,1,8.77,2.89,12.83,12.83,0,0,1,5,4,10,10,0,0,1,1.63,5.76,10.84,10.84,0,0,1-4.54,9.09q-4.53,3.4-11.75,3.41a21.44,21.44,0,0,1-9-1.79,14.62,14.62,0,0,1-6.11-5,12.14,12.14,0,0,1-2.21-7h7.23a7.49,7.49,0,0,0,2.91,5.77,11.29,11.29,0,0,0,7.17,2.12,11.64,11.64,0,0,0,6.58-1.66A5.09,5.09,0,0,0,2169.89,260.23Z" transform="translate(0 -11.56)" style="fill:#db0612"/><path d="M2211.14,260.23a5.33,5.33,0,0,0-2.21-4.55c-1.47-1.08-4-2-7.69-2.79a35.87,35.87,0,0,1-8.71-2.82,12.37,12.37,0,0,1-4.77-3.9,9.34,9.34,0,0,1-1.54-5.39,11,11,0,0,1,4.39-8.79,17.13,17.13,0,0,1,11.23-3.59q7.18,0,11.66,3.71a11.77,11.77,0,0,1,4.47,9.49h-7.26a6.52,6.52,0,0,0-2.52-5.12,9.46,9.46,0,0,0-6.35-2.15,9.9,9.9,0,0,0-6.17,1.72,5.42,5.42,0,0,0-2.23,4.49,4.39,4.39,0,0,0,2.07,4A25.78,25.78,0,0,0,2203,247a39.06,39.06,0,0,1,8.77,2.89,12.83,12.83,0,0,1,5,4,10,10,0,0,1,1.63,5.76,10.84,10.84,0,0,1-4.54,9.09q-4.53,3.4-11.75,3.41a21.44,21.44,0,0,1-9-1.79,14.62,14.62,0,0,1-6.11-5,12.14,12.14,0,0,1-2.21-7H2192a7.49,7.49,0,0,0,2.91,5.77,11.29,11.29,0,0,0,7.17,2.12,11.64,11.64,0,0,0,6.58-1.66A5.09,5.09,0,0,0,2211.14,260.23Z" transform="translate(0 -11.56)" style="fill:#db0612"/><path d="M2253.87,267.26q-4.22,5-12.38,5-6.76,0-10.29-3.92t-3.58-11.62v-27.5h7.23v27.3q0,9.61,7.81,9.61,8.28,0,11-6.17V229.18h7.22v42.26H2254Z" transform="translate(0 -11.56)" style="fill:#db0612"/><path d="M2292.31,235.66a21.89,21.89,0,0,0-3.55-.27q-7.11,0-9.65,6.05v30h-7.23V229.18h7l.12,4.88a11.24,11.24,0,0,1,10.08-5.66,7.47,7.47,0,0,1,3.2.54Z" transform="translate(0 -11.56)" style="fill:#db0612"/><path d="M2323.48,271.44a15.42,15.42,0,0,1-1-4.45,16.12,16.12,0,0,1-12,5.23,14.91,14.91,0,0,1-10.26-3.53,11.45,11.45,0,0,1-4-9,11.93,11.93,0,0,1,5-10.25q5-3.66,14.12-3.65h7V242.5a8.13,8.13,0,0,0-2.27-6c-1.51-1.5-3.73-2.24-6.68-2.24a10.54,10.54,0,0,0-6.48,1.95,5.77,5.77,0,0,0-2.62,4.73H2297a10,10,0,0,1,2.24-6.12,15.43,15.43,0,0,1,6.1-4.67,20.55,20.55,0,0,1,8.45-1.71q7.3,0,11.45,3.65t4.3,10.06v19.45a23.79,23.79,0,0,0,1.48,9.26v.62Zm-12-5.51a12.74,12.74,0,0,0,6.45-1.75,10.69,10.69,0,0,0,4.41-4.57v-8.68h-5.66q-13.29,0-13.29,7.78a6.59,6.59,0,0,0,2.27,5.31A8.68,8.68,0,0,0,2311.49,265.93Z" transform="translate(0 -11.56)" style="fill:#db0612"/><path d="M2022.62,310.53v6.13h-1.32q-8.44.16-13.44,5t-5.78,13.63q4.49-5.15,12.26-5.15a14.76,14.76,0,0,1,11.86,5.23q4.42,5.24,4.43,13.52,0,8.79-4.78,14.06T2013,368.22a16.24,16.24,0,0,1-13.24-6.27q-5.07-6.27-5.08-16.15V343q0-15.7,6.7-24t19.94-8.49Zm-9.49,25.62A12.16,12.16,0,0,0,2002,344v2.65q0,7,3.16,11.33a9.5,9.5,0,0,0,7.89,4.3,9.18,9.18,0,0,0,7.68-3.6,17.26,17.26,0,0,0,0-18.88A9.08,9.08,0,0,0,2013.13,336.15Z" transform="translate(0 -11.56)" style="fill:#db0612"/><path d="M2074.85,343.18q0,12.7-4.34,18.87T2057,368.22q-9.11,0-13.48-6t-4.53-18v-9.65q0-12.54,4.34-18.63t13.59-6.09q9.18,0,13.52,5.87t4.45,18.15Zm-7.23-9.88q0-9.18-2.57-13.38t-8.17-4.2q-5.55,0-8.08,4.18t-2.62,12.85v11.57q0,9.21,2.67,13.61a8.87,8.87,0,0,0,8.11,4.39,8.73,8.73,0,0,0,7.95-4.14q2.6-4.14,2.71-13Z" transform="translate(0 -11.56)" style="fill:#db0612"/><path d="M2099.89,346.23h-19.06v-5.9h19.06Z" transform="translate(0 -11.56)" style="fill:#db0612"/><path d="M2140.67,325.41a13.19,13.19,0,0,1-2.25,7.58,15.25,15.25,0,0,1-6.07,5.19,16.3,16.3,0,0,1,7.05,5.59,14.07,14.07,0,0,1,2.6,8.32q0,7.38-5,11.76t-13.11,4.37q-8.2,0-13.14-4.39a14.91,14.91,0,0,1-4.94-11.74,14.47,14.47,0,0,1,2.52-8.32,15.64,15.64,0,0,1,7-5.62,14.94,14.94,0,0,1-6-5.2,13.38,13.38,0,0,1-2.19-7.54q0-7.19,4.61-11.41t12.15-4.21q7.5,0,12.13,4.21T2140.67,325.41Zm-5.9,26.52a10.49,10.49,0,0,0-3-7.77,10.74,10.74,0,0,0-7.91-3,10.17,10.17,0,0,0-10.78,10.78,10.12,10.12,0,0,0,2.87,7.62q2.88,2.77,8,2.77c3.39,0,6-.93,8-2.79A10.05,10.05,0,0,0,2134.77,351.93Zm-10.86-36.21a9.31,9.31,0,0,0-6.89,2.64,10.9,10.9,0,0,0,0,14.18,10.31,10.31,0,0,0,13.87,0,10.71,10.71,0,0,0-.1-14.08A9.22,9.22,0,0,0,2123.91,315.72Z" transform="translate(0 -11.56)" style="fill:#db0612"/><path d="M2186.76,343.18q0,12.7-4.33,18.87t-13.56,6.17q-9.1,0-13.47-6t-4.53-18v-9.65q0-12.54,4.33-18.63t13.6-6.09q9.16,0,13.51,5.87t4.45,18.15Zm-7.22-9.88q0-9.18-2.58-13.38t-8.16-4.2q-5.55,0-8.09,4.18t-2.62,12.85v11.57q0,9.21,2.68,13.61a8.84,8.84,0,0,0,8.1,4.39,8.73,8.73,0,0,0,8-4.14q2.59-4.14,2.72-13Z" transform="translate(0 -11.56)" style="fill:#db0612"/><path d="M2203.56,325.18l.2,4.68q4.63-5.46,12.54-5.46,8.86,0,12.07,6.79a16,16,0,0,1,5.48-4.92,16.24,16.24,0,0,1,8-1.87q13.9,0,14.14,14.72v28.32h-7.22V339.55q0-4.53-2.07-6.78c-1.39-1.49-3.7-2.24-7-2.24a9.59,9.59,0,0,0-6.68,2.4,9.72,9.72,0,0,0-3.08,6.47v28h-7.27V339.75q0-9.22-9-9.22-7.11,0-9.73,6.05v30.86h-7.23V325.18Z" transform="translate(0 -11.56)" style="fill:#db0612"/><path d="M2273.68,325.18l.19,4.68q4.65-5.46,12.54-5.46,8.87,0,12.07,6.79A15.72,15.72,0,0,1,2312,324.4q13.9,0,14.14,14.72v28.32h-7.23V339.55q0-4.53-2.07-6.78t-7-2.24a9.59,9.59,0,0,0-6.68,2.4,9.77,9.77,0,0,0-3.09,6.47v28h-7.26V339.75q0-9.22-9-9.22-7.12,0-9.73,6.05v30.86h-7.23V325.18Z" transform="translate(0 -11.56)" style="fill:#db0612"/></g><line x1="2154.12" y1="495.55" x2="1612.65" y2="495.55" style="fill:#db0612"/><line x1="2154.12" y1="495.55" x2="2148.12" y2="495.55" style="fill:none;stroke:#db0612;stroke-miterlimit:10;stroke-width:3px"/><line x1="2136.36" y1="495.55" x2="1624.54" y2="495.55" style="fill:none;stroke:#db0612;stroke-miterlimit:10;stroke-width:3px;stroke-dasharray:11.765983581542969,11.765983581542969"/><line x1="1618.65" y1="495.55" x2="1612.65" y2="495.55" style="fill:none;stroke:#db0612;stroke-miterlimit:10;stroke-width:3px"/><line x1="2154.12" y1="864.3" x2="1612.65" y2="864.3" style="fill:#db0612"/><line x1="2154.12" y1="864.3" x2="2148.12" y2="864.3" style="fill:none;stroke:#db0612;stroke-miterlimit:10;stroke-width:3px"/><line x1="2136.36" y1="864.3" x2="1624.54" y2="864.3" style="fill:none;stroke:#db0612;stroke-miterlimit:10;stroke-width:3px;stroke-dasharray:11.765983581542969,11.765983581542969"/><line x1="1618.65" y1="864.3" x2="1612.65" y2="864.3" style="fill:none;stroke:#db0612;stroke-miterlimit:10;stroke-width:3px"/></g></g></svg>