<svg xmlns="http://www.w3.org/2000/svg" viewBox="0 0 1410.58 398.92"><defs><style>.cls-1,.cls-11,.cls-3{fill:#fff;}.cls-12,.cls-2,.cls-4,.cls-5,.cls-6,.cls-7{fill:none;}.cls-11,.cls-12,.cls-2,.cls-3{stroke:#000;}.cls-11,.cls-12,.cls-2,.cls-3,.cls-4,.cls-5,.cls-6,.cls-7{stroke-miterlimit:10;}.cls-2,.cls-4,.cls-5,.cls-6{stroke-width:0.94px;}.cls-3{stroke-width:2px;}.cls-4,.cls-5,.cls-6{stroke:red;}.cls-5{stroke-dasharray:6.83 6.83 6.83 6.83;}.cls-6{stroke-dasharray:6.83 6.83 6.83 6.83 6.83 6.83;}.cls-7{stroke:#bc0f19;stroke-width:2.64px;}.cls-8,.cls-9{fill:#bc0f19;}.cls-9{isolation:isolate;font-size:28.53px;font-family:Roboto-Medium, Roboto;}.cls-10{letter-spacing:-0.01em;}.cls-11,.cls-12{stroke-width:0.75px;}</style></defs><title>Almofadas Gaming series final_1</title><g id="Camada_2" data-name="Camada 2"><g id="Camada_1-2" data-name="Camada 1"><rect class="cls-1" x="865.55" y="54.59" width="542.84" height="280.37" rx="24.27" ry="24.27"/><path d="M1384.12,55.59a23.31,23.31,0,0,1,23.27,23.27V310.69A23.3,23.3,0,0,1,1384.12,334H889.82a23.29,23.29,0,0,1-23.27-23.27V78.86a23.3,23.3,0,0,1,23.27-23.27h494.3m0-2H889.82a25.28,25.28,0,0,0-25.27,25.27V310.69A25.27,25.27,0,0,0,889.82,336h494.3a25.27,25.27,0,0,0,25.27-25.27h0V78.86a25.27,25.27,0,0,0-25.27-25.27Z"/><polygon class="cls-2" points="1115.98 221.25 1127.12 173.29 1145.96 173.29 1134.82 221.25 1115.98 221.25 1115.98 221.25"/><path class="cls-2" d="M1164.68,169.33l-56.55.26,3.56-15.39c.37-1.6.84-2.55,2.5-2.54l66.87.13Z"/><path class="cls-2" d="M1093,221.26h-49.79l10.93-48.73h17.6l-7,31.39h26.49L1076.1,169H1055l3.89-17.34h23.65q7.41,0,10.14,6.48,3.36,7,6.84,13.92a207.46,207.46,0,0,1,8.44,19.42q4,10.89,3,15.32a18,18,0,0,1-6.64,10.14A17.64,17.64,0,0,1,1093,221.26Z"/><path class="cls-2" d="M1168.52,169.92l18.3-18.26h34.71a6.07,6.07,0,0,1,5.22,3.07c1.11,1.63,1.26,3.66.44,6.11l-2.9,8.74-55.77.34Zm30.67,51.34h-39.52l-5.59-16.39,35.87-.22-11.6-18.88L1194,173.26l23.88-.14-15.79,12.48c2.63,4.36,5.32,8.72,8,13.1q3.09,6.31,2.11,9.23l-1.72,5.17a12.75,12.75,0,0,1-4.65,6.17A10,10,0,0,1,1199.19,221.26Z"/><polygon class="cls-2" points="1155.6 224.67 1173 224.67 1171.03 236.86 1153.64 236.86 1155.6 224.67"/><polygon class="cls-2" points="1175.38 224.77 1187.66 224.77 1185.6 236.96 1173.32 236.96 1175.38 224.77"/><polygon class="cls-2" points="1189.72 224.81 1198.99 224.81 1196.86 237 1187.58 237 1189.72 224.81"/><path class="cls-2" d="M1201,224.77h6.84a.06.06,0,0,1,.06.06v0l-2.31,12a.11.11,0,0,1-.1.08h-6.74s-.07,0-.07-.06v0Z"/><polygon class="cls-2" points="1210.35 224.81 1215.02 224.81 1212.43 237 1207.77 237 1210.35 224.81"/><polygon class="cls-2" points="1217.36 224.81 1220.45 224.81 1217.97 237 1214.88 237 1217.36 224.81"/><path class="cls-2" d="M1059.59,224.69s.06,0,.05.05L1059,228a.07.07,0,0,1-.07.06h-12.78l-.22,1.07h12.83s.06,0,0,.07l-1.52,7.65h-17.17l.64-3.21a.07.07,0,0,1,.07-.06h12.78l.22-1.09H1041s-.06,0-.06-.05l1.53-7.65a.06.06,0,0,1,.06-.05h17.06Zm1.41.05-2.4,12.06h4.4l.87-4.36h12.76s.07,0,.07-.05l1.53-7.65a.05.05,0,0,0-.06-.05h-17.1l-.07.05Zm3.55,4.38.22-1.11h8.43l-.23,1.11Zm32.21-4.43s.06,0,0,.06l-2.4,12.05h-17.23l2.4-12.05s0-.06.08-.06Zm-14.55,8.84h8.47l1.1-5.52h-8.47Zm16-8.79-2.4,12.06h4.33l.85-4.28c.09,0,1.25.68,3.47,2q4.14,2.37,4.24,2.37H1113l.31-1.52c-.11-.1-1.8-1-5.09-2.81h5.56a.08.08,0,0,0,.07-.05l1.52-7.65a0,0,0,0,0,0-.05h-17.1s-.07,0-.07.05h0Zm3.51,4.38.22-1.11h8.44l-.22,1.11Zm20.69-1h-6.21s-.06,0-.06-.05l.66-3.3a.07.07,0,0,1,.08-.05H1134s.06,0,0,.05l-.66,3.3a.05.05,0,0,1-.06.05H1127l-1.73,8.71h-4.63l1.73-8.71Zm30.14-3.4h-17.1s-.07,0-.07.05h0l-1.52,7.65v.05h12.78l-.22,1.09h-12.78a.07.07,0,0,0-.07.06l-.64,3.21h17.17l1.53-7.65v-.07h-12.79l.22-1.07h12.78s.07,0,.07-.06l.64-3.21s0-.08,0-.08Z"/><path class="cls-3" d="M96.76,180c2,17.25-31.84,90.86-29.85,128.66s43.48,40.18,80.25,17.91c47.08-28.52,156.51-27.19,156.51-27.19h-.08S413,298,460.1,326.53c36.77,22.27,78.25,19.89,80.24-17.91S508.5,197.26,510.49,180v.3c-2-17.24,31.83-90.86,29.84-128.66s-43.47-40.17-80.24-17.91C413,62.26,303.58,60.88,303.58,60.88h.08S194.23,62.26,147.15,33.69C110.38,11.43,68.89,13.8,66.9,51.6S98.76,163,96.76,180.26"/><polygon class="cls-2" points="286.77 205.71 297.17 160.9 314.77 160.9 304.37 205.71 286.77 205.71 286.77 205.71"/><path class="cls-2" d="M332.26,157.2l-52.83.24,3.33-14.38c.34-1.49.79-2.38,2.33-2.37l62.47.13Z"/><path class="cls-2" d="M265.32,205.71H218.76L229,160.18h16.44l-6.58,29.33h24.74L249.46,156.9h-19.7l3.63-16.21h22.09q6.93,0,9.48,6.06c2.09,4.37,4.2,8.7,6.38,13a190.53,190.53,0,0,1,7.88,18.15c2.52,6.77,3.45,11.54,2.83,14.31a16.92,16.92,0,0,1-6.2,9.47A16.53,16.53,0,0,1,265.32,205.71Z"/><path class="cls-2" d="M335.85,157.75l17.09-17.06h32.43a5.71,5.71,0,0,1,4.88,2.87c1,1.52,1.17,3.42.41,5.71L388,157.43l-52.1.32Zm28.65,48H327.58l-5.22-15.31,33.51-.21L345,172.59l14.65-11.66,22.31-.14-14.75,11.66c2.46,4.07,5,8.14,7.49,12.23q2.88,5.91,2,8.63l-1.61,4.83a12,12,0,0,1-4.34,5.77,9.43,9.43,0,0,1-6.28,1.8Z"/><polygon class="cls-2" points="323.78 208.9 340.03 208.9 338.2 220.29 321.95 220.29 323.78 208.9"/><polygon class="cls-2" points="342.26 208.99 353.73 208.99 351.8 220.38 340.33 220.38 342.26 208.99"/><polygon class="cls-2" points="355.65 209.03 364.32 209.03 362.32 220.42 353.66 220.42 355.65 209.03"/><path class="cls-2" d="M366.2,209h6.39a.06.06,0,0,1,.06.06h0l-2.16,11.2a.14.14,0,0,1-.09.08h-6.32s-.06,0-.06-.08Z"/><polygon class="cls-2" points="374.93 209.03 379.29 209.03 376.87 220.42 372.51 220.42 374.93 209.03"/><polygon class="cls-2" points="381.48 209.03 384.36 209.03 382.04 220.42 379.16 220.42 381.48 209.03"/><path class="cls-2" d="M234.09,208.91a0,0,0,0,1,0,.05l-.6,3a.08.08,0,0,1-.07,0H221.53l-.2,1h11.94a.05.05,0,0,1,0,.06l-1.43,7.19H215.82l.6-3a.07.07,0,0,1,.07,0h11.94l.2-1h-12l1.42-7.15s0-.05.07-.05Zm1.32.05-2.25,11.3h4.12l.81-4.07h12l1.43-7.15,0,0h-16a.06.06,0,0,0-.06,0Zm3.31,4.1.21-1h7.83l-.21,1Zm30.09-4.15a.05.05,0,0,1,.05.06l-2.25,11.29H250.5L252.76,209a.07.07,0,0,1,.07-.06Zm-13.59,8.27h7.91l1-5.16h-7.91ZM270.13,209l-2.25,11.3H272l.79-4q.13,0,3.24,1.83c2.58,1.47,3.91,2.2,4,2.21h4l.29-1.42c-.1-.1-1.69-1-4.75-2.62h5.19a.08.08,0,0,0,.07,0l1.42-7.15v-.05h-16a.07.07,0,0,0-.07.05Zm3.27,4.1.21-1h7.89l-.21,1Zm19.34-1h-5.86l.62-3.09a.07.07,0,0,1,.07-.05h16s.05,0,0,.05l-.61,3.09h-5.9l-1.62,8.2h-4.32l1.62-8.13Zm28.15-3.19h-16a.08.08,0,0,0-.07,0l-1.42,7.15h12l-.2,1H303.27a.06.06,0,0,0-.06.05l-.6,3h16.07L320.1,213v-.06h-12l.2-1h11.95a.06.06,0,0,0,.06,0l.6-3s0,.06-.05,0Z"/><line class="cls-4" x1="587.76" y1="60.32" x2="584.28" y2="60.32"/><line class="cls-5" x1="577.45" y1="60.32" x2="553.56" y2="60.32"/><line class="cls-6" x1="550.14" y1="60.32" x2="307.79" y2="60.32"/><line class="cls-4" x1="304.37" y1="60.32" x2="300.89" y2="60.32"/><line class="cls-4" x1="587.76" y1="299.76" x2="584.28" y2="299.76"/><line class="cls-5" x1="577.45" y1="299.76" x2="553.56" y2="299.76"/><line class="cls-6" x1="550.14" y1="299.76" x2="307.79" y2="299.76"/><line class="cls-4" x1="304.37" y1="299.76" x2="300.89" y2="299.76"/><line class="cls-7" x1="70.99" y1="374.01" x2="536.96" y2="374.01"/><line class="cls-7" x1="66.76" y1="386.92" x2="66.76" y2="362.1"/><polygon class="cls-8" points="67.49 374.51 89.2 386.92 89.2 362.1 67.49 374.51"/><line class="cls-7" x1="542.76" y1="385.17" x2="542.76" y2="360.35"/><polygon class="cls-8" points="542.03 372.76 520.32 385.17 520.32 360.35 542.03 372.76"/><text class="cls-9" transform="translate(266.92 366.05)">280mm</text><line class="cls-7" x1="876.99" y1="386.01" x2="1390.76" y2="384.76"/><line class="cls-7" x1="868.32" y1="398.92" x2="868.26" y2="338.26"/><polygon class="cls-8" points="869.05 386.51 890.76 398.92 890.76 374.1 869.05 386.51"/><line class="cls-7" x1="1408.76" y1="397.17" x2="1409.26" y2="329.26"/><polygon class="cls-8" points="1408.03 384.76 1386.32 397.17 1386.32 372.35 1408.03 384.76"/><text class="cls-9" transform="translate(1072.92 378.05)">280mm</text><text class="cls-9" transform="translate(1029 24.41)">Espessu<tspan class="cls-10" x="107.53" y="0">r</tspan><tspan x="117.14" y="0">a 60mm</tspan></text><text class="cls-9" transform="translate(200.04 24.64)">Espessu<tspan class="cls-10" x="107.53" y="0">r</tspan><tspan x="117.14" y="0">a 80mm</tspan></text><line class="cls-7" x1="41.26" y1="26.26" x2="41.26" y2="333.26"/><line class="cls-7" x1="30.47" y1="19.76" x2="75.76" y2="19.76"/><polygon class="cls-8" points="41.88 19.55 29.47 41.26 54.29 41.26 41.88 19.55"/><line class="cls-7" x1="29.22" y1="340.64" x2="78.76" y2="340.76"/><polygon class="cls-8" points="41.64 339.91 29.23 318.19 54.05 318.19 41.64 339.91"/><text class="cls-9" transform="translate(24.41 228.87) rotate(-90)">200mm</text><line class="cls-7" x1="826.26" y1="58.26" x2="826.26" y2="327.26"/><line class="cls-7" x1="814.47" y1="54.76" x2="868.76" y2="54.76"/><polygon class="cls-8" points="826.88 54.55 814.47 76.26 839.29 76.26 826.88 54.55"/><line class="cls-7" x1="814.22" y1="334.64" x2="875.76" y2="334.76"/><polygon class="cls-8" points="826.64 333.91 814.23 312.19 839.05 312.19 826.64 333.91"/><text class="cls-9" transform="translate(809.41 222.87) rotate(-90)">190mm</text><line class="cls-7" x1="596.26" y1="65.26" x2="596.26" y2="288.26"/><line class="cls-7" x1="582.47" y1="58.76" x2="607.3" y2="58.76"/><polygon class="cls-8" points="595.88 57.55 583.47 79.26 608.29 79.26 595.88 57.55"/><line class="cls-7" x1="584.22" y1="299.64" x2="609.05" y2="299.64"/><polygon class="cls-8" points="596.64 298.97 584.23 277.26 609.05 277.26 596.64 298.97"/><text class="cls-9" transform="translate(579.41 226.87) rotate(-90)">150mm</text><path class="cls-11" d="M480.08,24.16s-21.32,130.1-23.32,156.1,7.71,148.79,7.71,148.79"/><path class="cls-12" d="M127.49,24.16s21.27,130.1,23.27,156.1-7.71,148.79-7.71,148.79"/><path class="cls-12" d="M1353.26,54.59s-17.5,253.17-63.5,280.17"/><path class="cls-12" d="M925.76,55.59s17.5,253.17,63.5,280.17"/></g></g></svg>