<svg id="Camada_1" data-name="Camada 1" xmlns="http://www.w3.org/2000/svg" viewBox="0 0 818.39 504"><defs><style>.cls-1,.cls-3,.cls-4{fill:none;stroke-miterlimit:10;}.cls-1{stroke:#000;}.cls-2,.cls-5{fill:#e52421;}.cls-3,.cls-4,.cls-5{stroke:#e52421;}.cls-3{stroke-width:2px;}.cls-4{stroke-width:3px;}.cls-5{font-size:27px;font-family:OpenSans, Open Sans;}</style></defs><path class="cls-1" d="M159.63,240.22l7.51-56.13c4.3-35.92,28.59-55.45,62.19-57l123.15-8.36A162.51,162.51,0,0,1,386.7,120l11.71,1.68a114.61,114.61,0,0,0,33.34-.11l16.34-2.46a163.72,163.72,0,0,1,34.48-1.52l111.63,6.87c32.59,1.71,64.11,18.25,64.91,53.27l3.51,62.52"/><path class="cls-1" d="M669.33,335.75l1.57,32.53a12.85,12.85,0,0,1-.16,2.77c-2.94,16.69-9.67,29.59-19.22,39s-21.95,15.32-36.25,18.05A195.15,195.15,0,0,1,590.66,431l-135.81,8.19c-16.6,1-76.13-1.49-120.34-2.29C313.37,436.51,204.29,426,204.29,426a95.23,95.23,0,0,1-33.92-10.59c-12.47-6.7-17.91-13.44-21.89-24.63a54.79,54.79,0,0,1-3.14-18.27c0-1.59.07-3.17.21-4.76l3-34.08,2.66-30.47,5.31-39.65a.13.13,0,0,0,0-.06"/><path class="cls-1" d="M147.33,347.33s-7.4,34.46,29.26,50.84S376,424.34,410.89,423.45s197.64-12.18,212.53-16.56,48.23-27.18,45.6-77.66"/><path class="cls-1" d="M322.1,129.84l-81.92,4.58s-43.54-1.15-49.27,24.63-24.06,183.32-24.06,183.32S158.6,383.3,215,388.77c43,4.17,88.22,13.18,198.79,13.18,84.51,0,160.2-8.37,191.18-12.32a44.4,44.4,0,0,0,34.84-25.46c3.8-8.3,6.6-19.15,6.56-33.07-.15-48.78-6.88-163.45-6.88-163.45s.58-32.66-55.56-35-83.64-2.86-83.64-2.86-32.19-3-41.44,14.51c-14.86,28.15-43.73,27.88-43.73,27.88a55.76,55.76,0,0,1-46.21-29.79C358.46,123.08,322.1,129.84,322.1,129.84Z"/><path class="cls-1" d="M159.63,240.21l-24.09,2.67s-2.3-.95-3.06,11.84-1.72,43.73-1.72,43.73l-5.34,56.71s-4.59,19.48-2.3,39.91,5,26.54,5,26.54h18.63s-3.48-36.67-.49-66.26,10.29-91.88,10.29-91.88l9.91-1.49V241.61Z"/><path class="cls-1" d="M133.14,248.27h-1.68s-3.69,9.76-3.69,24.4a134.32,134.32,0,0,0,2.16,24.95h.86"/><path class="cls-1" d="M125.17,356.75h-1.68s-3.69,9.76-3.69,24.4,1.8,31.39,1.8,31.39l4.84,3.36"/><path class="cls-1" d="M664.16,240.22l21.49,1.07s2.3-.93,2.92,11.87,1.25,43.74,1.25,43.74l3.28,59.6s1.51,20.49,1.29,41.05-3.19,27-3.19,27l-21.25.67s2.73-34.25,1-63.94c-1.9-32-5.87-93-5.87-93l-10.57-1.73.28-26Z"/><path class="cls-1" d="M688,248.61l1.93,0s4.13,10.12,4,25.23a124.92,124.92,0,0,1-2.76,25.74h-1"/><path class="cls-1" d="M693.48,358.57l1.68,0s3.59,9.8,3.43,24.44-2.13,31.37-2.13,31.37l-3.39,2.29"/><path class="cls-1" d="M146.72,421.61s.15,14,8.8,17.8,250.86,8.17,250.86,8.17l222.2-4.2s24.61-.32,34.61-4.11a11.48,11.48,0,0,0,3.48-2.14h0a9,9,0,0,0,3.05-6.36l.36-7.26"/><path class="cls-1" d="M416.62,152.41s22-.68,24.57-5.64c2.84-5.53-25.21-5.86-25.21-5.86s-28-.7-28,5.74C387.93,152.46,416.62,152.41,416.62,152.41Z"/><polygon class="cls-2" points="748.1 125.42 736.33 145.81 759.87 145.81 748.1 125.42"/><polygon class="cls-2" points="748.1 429.51 759.87 409.12 736.33 409.12 748.1 429.51"/><line class="cls-3" x1="594.2" y1="124.16" x2="764.21" y2="124.16"/><line class="cls-3" x1="603.93" y1="430.2" x2="764.21" y2="430.2"/><line class="cls-4" x1="748.1" y1="419.36" x2="748.1" y2="138.46"/><polygon class="cls-2" points="160.88 76.91 181.27 88.69 181.27 65.14 160.88 76.91"/><polygon class="cls-2" points="662.62 76.91 642.23 65.14 642.23 88.69 662.62 76.91"/><line class="cls-3" x1="159.63" y1="230.81" x2="159.63" y2="60.8"/><line class="cls-3" x1="662.62" y1="221.09" x2="662.62" y2="60.8"/><line class="cls-4" x1="649.03" y1="76.91" x2="173.93" y2="76.91"/><text class="cls-5" transform="translate(766.1 255.52) rotate(90)">33,5cm</text><text class="cls-5" transform="translate(383.26 60.8)">45cm</text></svg>