<svg id="Camada_1" data-name="Camada 1" xmlns="http://www.w3.org/2000/svg" viewBox="0 0 717 504"><defs><style>.cls-1,.cls-2,.cls-4,.cls-5{fill:none;}.cls-1,.cls-2{stroke:#000;}.cls-1,.cls-4,.cls-5{stroke-miterlimit:10;}.cls-2{stroke-linejoin:round;}.cls-3,.cls-6{fill:#e52421;}.cls-4,.cls-5,.cls-6{stroke:#e52421;}.cls-4{stroke-width:2px;}.cls-5{stroke-width:3px;}.cls-6{font-size:27px;font-family:OpenSans, Open Sans;}</style></defs><path class="cls-1" d="M118.6,296.46c-1.57,1.3-8,5.82-9.41,7.3-7.43,7.88-26.32,30.67-26.48,38.89-.19,9.52-.77,11.65,8.79,28.07,3,5.25,20.73,1.07,32.84-3.82,15.83-6.38,33.34-13.7,34-18.14,1.14-7.83,3.25-29.6,27.69-40.29s42,3.44,42,3.44l56.14-53.28s11.26-27.49,30-33.8S354.06,223.5,368,244.5l.95,1.72,177-90.7s19.28-10.51,14.89-21.58l-11.53-16.55a8.07,8.07,0,0,0-4.73-3.21,35.27,35.27,0,0,0-6-.67,4.29,4.29,0,0,1-2.7-1c-.82-.72-2.82-1.53-7.72-1.33-9.91.41-33.86,2.29-38.32,4.33,0,0-8.14-.89-14.38.64s-106,45.32-106,45.32l-60.22,29-30.93,14.9L208,241.64l-75.47,43.95a35.51,35.51,0,0,0-4.86,3.39Z"/><path class="cls-1" d="M119.4,368.75s-2.44-.57-3,3.63-1,23.17,24.31,35.64c0,0,11.59,3.57,50.41,3.69h15.92s7.25,2.93,23.29,1l42.65.65,44.43-.65,13.24-28.9a23.71,23.71,0,0,1,16.8-9.29c11.59-1.27,116.48,1.4,116.48,1.4s11.84.77,18.72,9.17,24.44,30.55,24.44,30.55,41.88,1.15,57.67-1.53,18.84-5.85,19.22-11.84-.38-24.06-8.66-34.5S540.62,344,540.62,344l-.51-5s-.38-3.56-16.8-10.31a359,359,0,0,0-85-22.53l-27.37-4.07-38.07-30.56A40.55,40.55,0,0,0,369,246.22"/><path class="cls-1" d="M120.6,368.32s1.45,9.15,11.76,15.26l.89-9.8s.26-3.66,6.49-5.46,35.9-8.55,35.9-8.55a40.13,40.13,0,0,1,20.12-27.87s4.06-2.7,16.93-6.37a45.79,45.79,0,0,0,9.29-6.75c3.44-3.56,6.05-6.87,6.05-6.87l-69.48,35.33"/><path class="cls-1" d="M175.64,359.77s-3.83,26.14,13,41.22c13.74,12.35,25,12.51,39.43,12,18.06-.64,30.12-20,33.66-30.27a20,20,0,0,1,5.11-8l41.49-39.4s22-20.88,26.1-23.42,12.66-4.84,15.81-6.49,19.07-12.35,22.63-33.87"/><path class="cls-1" d="M304.4,339l27.7-3.95s1.78-.25,9.16,3.95,16.55,3.7,24.32,3.31,7.76-5.1,13-5.61,38.32,4.33,38.32,4.33.64,2.55,5.86,3.44,84.78,13.87,84.78,13.87,34.24,8.66,38.06,7.9-.09-5.86-8.3-12.16c-9.14-7-26.83-17.38-26.83-17.38l-6.45-1a2.65,2.65,0,0,1-1.29-.57c-.64-.53-2.44-1.39-7.41-1.74-7.38-.51-43.79-5.47-43.79-5.47s-2.36-.38-2.42.83-.13,6.36-.13,6.36L442.53,326s.19-3.82,4.71-3.7,45.07,5.86,45.07,5.86a23.7,23.7,0,0,1,6.87,2.92l11.27,5.67L540.62,344"/><path class="cls-1" d="M330.77,314.75l51.31,2.11a1.07,1.07,0,0,0,.71-1.92l-22.66-17.63"/><path class="cls-1" d="M540.11,339l-22.5-10.31s-6.25-3.2-9.36-.33c-1.65,1.52-13.17-6.73-13.17-6.73a450.18,450.18,0,0,0-78.2-14.9"/><line class="cls-1" x1="507.3" y1="328.71" x2="510.45" y2="336.73"/><path class="cls-1" d="M574.1,366.31s5.66,9.38-2,9.57S387.28,344.3,387.28,344.3s-5.15-1.84-12,2.55-22.28,7-41-2.93c0,0-3.31-3.48-13.11-1.58S295,348,295,348"/><line class="cls-1" x1="319.97" y1="407.24" x2="498.71" y2="405.06"/><path class="cls-2" d="M484,386.68s-4.72,5.57-14.27,3.59l-18.46-14.39L460.93,388s7,3.43-23,1.78-41.63-14.77-41.63-14.77"/><circle class="cls-2" cx="219.95" cy="372.35" r="34.89"/><circle class="cls-2" cx="330.77" cy="268.18" r="34.89"/><path class="cls-2" d="M83.56,339s-3.18,13.66,10.8,9.55c38-11.16,199.85-108,197.38-103.86"/><path class="cls-2" d="M336.56,222.89l202.8-94a18.69,18.69,0,0,0,7.69-5.7c1.84-2.55,4.13-5.6-1.78-8.81"/><path class="cls-2" d="M489.82,115.48l13.88.89s4.07,1.66-3.82,5.35S442,147.43,442,147.43s-3.95,2.93,3.69,0,67.09-24.82,67.09-24.82,5.6-2.67,7.64-.64,3.82,9.17-2.42,12.35S417.77,179,417.77,179l-92.14,43.44"/><path class="cls-2" d="M299.11,235.24l-92,48.15-70.53,40.48s-27.5,16.55-31.44,10.57c-3-4.49-4.71-6.75-.34-16.09A63.92,63.92,0,0,1,118,299.76l14.47-14.17"/><line class="cls-2" x1="265.9" y1="413.13" x2="265.9" y2="379.51"/><line class="cls-1" x1="382.79" y1="314.94" x2="416.88" y2="341.06"/><path class="cls-1" d="M370.42,282.37l59.15,43.93a6.61,6.61,0,0,1,1.88,2.19l1.88,3.54a1.1,1.1,0,0,1-1.62,1.41l-64.09-46.56"/><path class="cls-1" d="M410.9,302.11l23.46,18.4a7.57,7.57,0,0,1,2.76,4.6l.27,1.52a6.89,6.89,0,0,0,1,2.54l12.91,20"/><line class="cls-1" x1="502.71" y1="335.16" x2="502.71" y2="357.59"/><polygon class="cls-3" points="652.76 111.12 640.99 131.51 664.53 131.51 652.76 111.12"/><polygon class="cls-3" points="652.76 415.21 664.53 394.82 640.99 394.82 652.76 415.21"/><line class="cls-4" x1="537.64" y1="109.87" x2="668.87" y2="109.87"/><line class="cls-4" x1="558.57" y1="415.9" x2="668.87" y2="415.9"/><line class="cls-5" x1="652.76" y1="405.06" x2="652.76" y2="124.16"/><text class="cls-6" transform="translate(684.69 316.43) rotate(-90)">15,5cm</text><polygon class="cls-3" points="47.65 345.93 35.88 366.31 59.42 366.31 47.65 345.93"/><polygon class="cls-3" points="47.65 415.21 59.42 394.82 35.88 394.82 47.65 415.21"/><line class="cls-4" x1="33.97" y1="344.3" x2="75.47" y2="344.3"/><line class="cls-4" x1="34.23" y1="415.9" x2="144.53" y2="415.9"/><line class="cls-5" x1="47.65" y1="405.06" x2="47.65" y2="353.85"/><text class="cls-6" transform="translate(31.15 405.06) rotate(-90)">8cm</text></svg>