<?xml version="1.0" encoding="utf-8"?>
<!-- Generator: Adobe Illustrator 23.0.1, SVG Export Plug-In . SVG Version: 6.00 Build 0)  -->
<svg version="1.1" id="Camada_1" xmlns="http://www.w3.org/2000/svg" xmlns:xlink="http://www.w3.org/1999/xlink" x="0px" y="0px"
	 viewBox="0 0 600 600" style="enable-background:new 0 0 600 600;" xml:space="preserve">
<style type="text/css">
	.st0{fill:#FFFFFF;stroke:#030304;stroke-width:0.8328;stroke-miterlimit:10;}
	.st1{fill:none;stroke:#030304;stroke-width:0.8328;stroke-miterlimit:10;}
	.st2{fill:none;stroke:#030304;stroke-width:0.4164;stroke-miterlimit:10;}
	.st3{fill:none;stroke:#020203;stroke-miterlimit:10;}
	.st4{fill:#FFFFFF;stroke:#020203;stroke-miterlimit:10;}
	.st5{fill:none;stroke:#020203;stroke-width:0.75;stroke-miterlimit:10;}
	.st6{fill:none;stroke:#020203;stroke-width:0.5;stroke-miterlimit:10;}
	.st7{fill:none;stroke:#020203;stroke-width:0.25;stroke-miterlimit:10;}
	.st8{fill:#FFFFFF;stroke:#020203;stroke-width:0.75;stroke-miterlimit:10;}
	.st9{fill:#FFFFFF;}
	.st10{fill:none;stroke:#E52522;stroke-width:1.5;stroke-miterlimit:10;}
	.st11{fill:#E52522;}
	.st12{fill:#FFFFFF;stroke:#020203;stroke-width:0.5;stroke-miterlimit:10;}
	.st13{fill:#E7E6E6;}
	.st14{fill:#FFFFFF;stroke:#020203;stroke-linejoin:round;}
	.st15{fill:none;stroke:#020203;stroke-linejoin:round;}
	.st16{fill:none;stroke:#E52624;stroke-width:1.5;stroke-miterlimit:10;}
	.st17{fill:#E52624;}
	.st18{clip-path:url(#SVGID_2_);}
	.st19{fill:none;stroke:#020203;stroke-width:0.5461;stroke-miterlimit:10;}
	.st20{fill:none;stroke:#E52624;stroke-width:1.5296;stroke-miterlimit:10;}
	.st21{fill:none;stroke:#E52624;stroke-width:1.8398;stroke-miterlimit:10;}
	.st22{fill:none;stroke:#E52624;stroke-width:1.4398;stroke-miterlimit:10;}
	.st23{fill:none;stroke:#E52624;stroke-width:1.5364;stroke-miterlimit:10;}
	.st24{fill:none;stroke:#E52624;stroke-width:1.4292;stroke-miterlimit:10;}
	.st25{fill:none;stroke:#E52624;stroke-width:1.5549;stroke-miterlimit:10;}
	.st26{clip-path:url(#SVGID_4_);}
	.st27{fill:#E52620;}
	.st28{font-family:'Roboto-Medium';}
	.st29{font-size:11.6824px;}
</style>
<g>
	<g>
		<path class="st4" d="M333.6,390.3c1,1.3,0.7,5.5,0.7,5.5s70,3.8,71.5,4c1.5,0.2,1.5,1.7,1.6,2.7c0.4,6.1-2.4,14.2-3.5,15.9
			c-0.7,1-2,1.6-3.3,1.5c0,0-0.9,0-5.9-0.3c-17-2.4-24.9-11.5-24.9-11.5l-44.7-0.6v-1.4l-11.9,12.8l-3.8,2.7c-0.1,1-0.2,2-0.4,2.9
			c-0.2,0.5-1.3,1-1.3,1l-1.4,23.7l-3.8,2.3c-5.1,1-10.3,1-15.4,0l-3.6-2.7c0,0-0.8-21.8-1-23.4c-0.8-0.5-1.4-1.4-1.6-2.3l-2.3-4.4
			c0,0-12.7-12-13.4-12.6c-0.1,0.9-0.7,1-0.7,1l-43.9-1.9l-3.2,2.2c-8.5,4.8-18.1,7.1-27.8,6.6c-3.6,0-3.6-1.5-4.2-2.5
			c-2.8-8.6-1.4-11.9-1.3-14.6c0.2-2.7,2.9-2.3,2.9-2.3h68.5c-0.1-1.5-0.1-3,0.3-4.5"/>
		<line class="st6" x1="262" y1="396.4" x2="327.1" y2="397.1"/>
	</g>
	<g>
		<g>
			<g>
				<g>
					<g>
						<path class="st8" d="M185.2,375.7h-6.9c0,0-0.4,1.4-1.6,1.4s-17.4,0.4-17.4,0.4s-2.6-0.1-2.5-2.1c0.1-2.1,1.4-18.4,1.4-18.4
							c0.5-0.5,1.1-0.9,1.8-1c0.1-1,0.1-2.8,0.1-2.8l-0.8-0.6l-2.8-68.5c0.1-0.9-0.3-1.8-1-2.5c-1.2-1.2-7.4-7.9-7.4-7.9
							s-8.7-0.4-9.7-0.4c-1,0-2.1-0.1-2.1-1.2c0-1.1,0-3.5,0-3.5c0.4-1.2,1.2-2.3,2.2-3c2-1.4,8.1-5.7,8.1-5.7s3.4-2,9.3-2
							c5.9,0,29.9,0.2,29.9,0.2c0.4-0.1,0.8,0.2,0.9,0.6c0.3,0.7,0.4,1.1,0.4,1.1l0.8,0.2l0.4,7.7l-7.6,3.5l-6.7,9.8
							c-0.6,1-1,2.1-1.1,3.3c-0.1,1.9-0.6,23.6-0.6,23.6l-0.5,31.2l-0.2,12.9l-0.9,0.6v2.8c1.5,0.4,1.8,0.7,2.1,1
							c0.5,13.6,1.1,12.3,1.1,12.3l5.5,0.3v1.3h2.6"/>
						<path class="st6" d="M186.1,258.3c-4.4,0.2-8.6,1.9-11.9,4.9c0,0-17.5,0.1-24.7-0.1c-7.1-0.2-2.7-2.6-2.7-2.6l3.9-1.8"/>
						<path class="st6" d="M174.2,263.2v1.9l-3.7,2.3c0,0-2.2,1.6-7.5,1.6c-5.4,0-21.1-0.4-21.1-0.4s-4.1-0.2-4.9-0.8"/>
						<polyline class="st6" points="187.4,260 176.7,264.3 174.2,265 						"/>
						<path class="st6" d="M148.2,273.8h24.4c0,0,3.2,0.1,5.1-0.8c2.6-1.2,3.3-1.6,3.3-1.6"/>
						<path class="st6" d="M151.4,277.3c0,0,0.9,0.5,4.3,0.5s16-0.2,16-0.2c1.3,0,2.5-0.2,3.7-0.6c0.9-0.3,1.8-0.7,2.6-1.2"/>
					</g>
					<path class="st6" d="M160.2,353.2c0,0,1.9,1.1,6.2,0.4c1.5-0.2,3.1-0.5,4.5-0.9"/>
					<path class="st6" d="M158.2,357c0,0,1.6,1.6,5,1.9c2.7,0.1,5.3-0.3,7.8-1.4c0.8-0.2,1.5-0.6,2.1-1.1"/>
					<path class="st6" d="M160.1,356.1c0,0-0.5,0.9,0.1,1.2c0.7,0.4,1.4,0.7,2.2,0.9c1.5,0.1,3,0.1,4.5-0.1h0l2.7-0.6
						c0.8-0.2,1.4-0.9,1.4-1.8v0"/>
				</g>
				<path class="st6" d="M176.1,373h-7.3c-1.6-0.2-3-0.9-4.1-2"/>
			</g>
			<path class="st6" d="M179.6,369.1l-3.5,3.9c0,0-1,3.1,0.5,4.2"/>
			<path class="st6" d="M179.6,370.4l-2.8,3c0,0-1.3,2.5,1.1,3.2"/>
		</g>
		<path class="st6" d="M188.2,260.2l-10.9,4.6c-1,0.4-2.1,0.5-3.2,0.3"/>
	</g>
	<g>
		<g>
			<g>
				<g>
					<g>
						<path class="st8" d="M417.8,370.4h2.6v-1.3l5.5-0.3c0,0,0.6,1.2,1.1-12.3c0.3-0.3,0.6-0.6,2.1-1v-2.8l-0.9-0.6l-0.2-12.9
							l-0.5-31.2c0,0-0.6-21.7-0.6-23.6c-0.1-1.2-0.4-2.3-1.1-3.3l-6.7-9.8l-7.6-3.5l0.4-7.7l0.8-0.2c0,0,0.1-0.4,0.4-1.1
							c0.1-0.4,0.5-0.7,0.9-0.6c0,0,23.9-0.3,29.9-0.2c5.9,0,9.3,2,9.3,2s6.2,4.3,8.1,5.7c1.1,0.7,1.9,1.7,2.2,3c0,0,0,2.4,0,3.5
							c0,1.1-1.1,1.1-2.1,1.2c-1,0-9.7,0.4-9.7,0.4s-6.2,6.7-7.4,7.9c-0.7,0.6-1.1,1.5-1,2.5l-2.8,68.5l-0.8,0.6c0,0,0,1.8,0.1,2.8
							c0.7,0.1,1.3,0.5,1.8,1c0,0,1.2,16.3,1.4,18.4c0.1,2.1-2.5,2.1-2.5,2.1s-16.2-0.4-17.4-0.4s-1.6-1.4-1.6-1.4h-6.9"/>
						<path class="st6" d="M449.3,258.7l3.9,1.8c0,0,4.4,2.4-2.7,2.6c-7.1,0.2-24.7,0.1-24.7,0.1c-3.3-2.9-7.5-4.7-11.9-4.9"/>
						<path class="st6" d="M463.1,267.6c-0.8,0.6-4.9,0.8-4.9,0.8s-15.8,0.4-21.1,0.4s-7.5-1.6-7.5-1.6l-3.7-2.3v-1.9"/>
						<polyline class="st6" points="425.8,265 423.3,264.3 412.6,260 						"/>
						<path class="st6" d="M419,271.4c0,0,0.7,0.4,3.3,1.6c1.9,0.9,5.1,0.8,5.1,0.8h24.4"/>
						<path class="st6" d="M422,275.7c0.8,0.5,1.7,0.9,2.6,1.2c1.2,0.4,2.4,0.6,3.7,0.6c0,0,12.7,0.2,16,0.2c3.4,0,4.3-0.5,4.3-0.5"
							/>
					</g>
					<path class="st6" d="M429.1,352.7c1.5,0.4,3,0.7,4.5,0.9c4.3,0.7,6.2-0.4,6.2-0.4"/>
					<path class="st6" d="M426.9,356.5c0.6,0.5,1.4,0.9,2.1,1.1c2.5,1,5.1,1.5,7.8,1.4c3.4-0.3,5-1.9,5-1.9"/>
					<path class="st6" d="M429,355.5L429,355.5c0,0.9,0.5,1.6,1.4,1.8l2.7,0.6h0c1.5,0.2,3,0.3,4.5,0.1c0.8-0.1,1.6-0.4,2.2-0.9
						c0.6-0.3,0.1-1.2,0.1-1.2"/>
				</g>
				<path class="st6" d="M435.4,371c-1.1,1.1-2.6,1.8-4.1,2h-7.3"/>
			</g>
			<path class="st6" d="M423.4,377.2c1.5-1.1,0.5-4.2,0.5-4.2l-3.5-3.9"/>
			<path class="st6" d="M422.1,376.6c2.4-0.7,1.1-3.2,1.1-3.2l-2.8-3"/>
		</g>
		<path class="st6" d="M425.9,265.1c-1.1,0.2-2.2,0-3.2-0.3l-10.9-4.6"/>
	</g>
	<g>
		<path class="st4" d="M413.7,316.2c0,0-10.4-1.2-14-0.6c2.1-2.1,17.3-36.6,11.3-66.2c-6-29.6-14.6-65.4-10.3-83.1
			c4.3-17.7,15.4-42.4,14.4-52.8s-7.6-23.9-36-35.8c-28.4-11.9-25.8-25.2-27.1-30.6c-1.3-5.5-2.9-27.5-8.8-34
			c-2.2-2.3-2.9-3.4-13.2-4.7c-10.4-1.3-29.9-1-29.9-1s-19.5-0.3-29.9,1c-10.4,1.3-11,2.3-13.2,4.7c-6,6.5-7.5,28.6-8.8,34
			c-1.3,5.5,1.3,18.8-27.1,30.6s-35,25.5-36,35.8s10.1,35,14.4,52.8c4.3,17.7-4.3,53.5-10.3,83.1s9.2,64.1,11.3,66.2
			c-3.6-0.5-14,0.6-14,0.6s-10-0.1-8.3,14c2.1,16.6,4.2,47.8,7.8,52.4c0.8,4.7,30.6,8.8,30.6,8.8l83.6-1.6l83.6,1.6
			c0,0,29.9-4.2,30.6-8.8c3.6-4.7,5.7-35.8,7.8-52.4C423.7,316,413.7,316.2,413.7,316.2z"/>
		<g>
			<path class="st6" d="M222.5,76.9l2.2,1.5c0,0-13.9,4.9-18.9,9.3c-4.8,3.8-7.6,7.7-8.3,14.6c-0.7,7.9,4.9,22,6.3,24.9
				c1.5,2.9,13.2,25.6,13.8,30.5c1.5,7,4.7,16.4,3.1,22c-1.6,5.6-19.1,23.9-19.1,23.9s6.6-28.2,1.9-45.1s-15.5-38.1-17-42.7
				c-1.2-3.4-0.5-8.2-0.5-8.2"/>
			<path class="st6" d="M202.8,316.1c0,0-8.6-19.3-9.5-31.5c-2.3-12.1-1.4-30,0-38.9c1.4-8.8,8.5-42.5,8.5-42.5"/>
			<path class="st6" d="M220.5,180.4c0,0-4.3,28.4-6.7,36.9s-5,20.4-5.7,29.3c-0.8,8.9,1.1,16.1,3.7,23.7
				c2.3,8.7,8.9,26.5,10.5,29.9c1.7,3.4,11.8,18.2,11.8,18.2v12c0,0-13.1-5.9-14.6-7.5c-1.5-1.6-17.7-39.6-18.2-64.5
				c-1.1-6.5,1.5-20.4,3.6-26.3c2.1-5.8,8.8-14.3,8.8-14.3"/>
			<path class="st6" d="M238.2,97c0,0-5-12.7-13.5-18.5"/>
			<path class="st6" d="M239,101.9c0,0-8.8,6.7-12.4,13.1c-3.6,6.4-2.5,13.4-2.5,13.4s2.5,12.7,10.4,26.3
				c7.9,13.6,6.9,27.9,6.9,27.9L234,318"/>
			<path class="st6" d="M240.9,189.8c0,0-6.1,2.4-8.3,10.9c-2.1,8.5-2.9,19.5-2.9,19.5s-1.4,27.3-1.5,36.5c-0.1,9.2-0.3,38-4.6,45.7
				"/>
		</g>
		<g>
			<path class="st6" d="M378.1,76.9l-2.2,1.5c0,0,13.9,4.9,18.9,9.3c4.8,3.8,7.6,7.7,8.3,14.6c0.7,7.9-4.9,22-6.3,24.9
				c-1.5,2.9-13.2,25.6-13.8,30.5c-1.5,7-4.7,16.4-3.1,22c1.6,5.6,19.1,23.9,19.1,23.9s-6.6-28.2-1.9-45.1s15.5-38.1,17-42.7
				c1.2-3.4,0.5-8.2,0.5-8.2"/>
			<path class="st6" d="M397.8,316.1c0,0,8.6-19.3,9.5-31.5c2.3-12.1,1.4-30,0-38.9c-1.4-8.8-8.5-42.5-8.5-42.5"/>
			<path class="st6" d="M380.1,180.4c0,0,4.3,28.4,6.7,36.9s5,20.4,5.7,29.3s-1.1,16.1-3.7,23.7c-2.3,8.7-8.9,26.5-10.5,29.9
				c-1.7,3.4-11.8,18.2-11.8,18.2v12c0,0,13.1-5.9,14.6-7.5s17.7-39.6,18.2-64.5c1.1-6.5-1.5-20.4-3.6-26.3
				c-2.1-5.8-8.8-14.3-8.8-14.3"/>
			<path class="st6" d="M362.4,97c0,0,5-12.7,13.5-18.5"/>
			<path class="st6" d="M361.6,101.9c0,0,8.8,6.7,12.4,13.1c3.6,6.4,2.5,13.4,2.5,13.4s-2.5,12.7-10.4,26.3s-6.9,27.9-6.9,27.9
				l7.3,135.5"/>
			<path class="st6" d="M359.7,189.8c0,0,6.1,2.4,8.3,10.9c2.1,8.5,2.9,19.5,2.9,19.5s1.4,27.3,1.5,36.5s0.3,38,4.6,45.7"/>
		</g>
		<g>
			<path class="st3" d="M268,102l-16.5,5.3c-5.3,1.7-10.9-1.2-12.6-6.5v0c-1.7-5.3,1.2-10.9,6.5-12.6l16.5-5.3
				c5.3-1.7,10.9,1.2,12.6,6.5v0C276.1,94.6,273.2,100.3,268,102z"/>
			<path class="st6" d="M265.8,99.1l-14.9,4.8c-3.5,1.1-7.3-0.8-8.4-4.3v0c-1.1-3.5,0.8-7.3,4.3-8.4l14.9-4.8
				c3.5-1.1,7.3,0.8,8.4,4.3v0C271.3,94.2,269.3,98,265.8,99.1z"/>
		</g>
		<g>
			<path class="st3" d="M332.7,102l16.5,5.3c5.3,1.7,10.9-1.2,12.6-6.5v0c1.7-5.3-1.2-10.9-6.5-12.6l-16.5-5.3
				c-5.3-1.7-10.9,1.2-12.6,6.5v0C324.5,94.6,327.4,100.3,332.7,102z"/>
			<path class="st6" d="M334.8,99.1l14.9,4.8c3.5,1.1,7.3-0.8,8.4-4.3v0c1.1-3.5-0.8-7.3-4.3-8.4L339,86.4c-3.5-1.1-7.3,0.8-8.4,4.3
				l0,0C329.4,94.2,331.3,98,334.8,99.1z"/>
		</g>
		<line class="st6" x1="274.8" y1="90.7" x2="325.6" y2="90.7"/>
		<g>
			<path class="st3" d="M201.4,316.1c0,0,12.8,0.5,17.9,6.5"/>
			<g>
				<path class="st6" d="M217.5,342.9c0,0-15.1-2.9-20.2-5.8s-16.7-10-17.7-17.3"/>
				<path class="st6" d="M218,391.4c-1-2.4-1.5-42.6-1.3-45.1s0.8-5.8,1.3-6.6s4.2-2.9,7.9-4.6c3.7-1.8,8.2-4.7,8.2-4.7h132.5"/>
				<path class="st6" d="M217.3,341.9c0,0-4.7-4.1-5.7-6.9c-0.9-2.3-1.1-5.8,2.5-7.2c3.4-1.3,8.5-1.2,13.1-0.7"/>
				<path class="st6" d="M207.8,316.9c0,0-5.3-0.4-7,0.4c-1.7,0.8-2.9,1.9-3.5,3.4s-1.1,5.8-1,7.5c0.1,1.7,1.1,8.1,2.1,9.4"/>
			</g>
		</g>
		<g>
			<path class="st3" d="M399.2,316.1c0,0-12.8,0.5-17.9,6.5"/>
			<g>
				<path class="st6" d="M383.1,342.9c0,0,15.1-2.9,20.2-5.8c5.1-2.9,16.7-10,17.7-17.3"/>
				<path class="st6" d="M366.5,330.3c0,0,4.5,3,8.2,4.7c3.7,1.8,7.4,3.8,7.9,4.6c0.5,0.8,1.1,4.1,1.3,6.6
					c0.2,2.5-0.3,42.8-1.3,45.1"/>
				<path class="st6" d="M383.3,341.9c0,0,4.7-4.1,5.7-6.9c0.9-2.3,1.1-5.8-2.5-7.2c-3.4-1.3-8.5-1.2-13.1-0.7"/>
				<path class="st6" d="M392.8,316.9c0,0,5.3-0.4,7,0.4c1.7,0.8,2.9,1.9,3.5,3.4s1.1,5.8,1,7.5c-0.1,1.7-1.1,8.1-2.1,9.4"/>
			</g>
		</g>
		<path class="st6" d="M234.4,154.6c0,0,62.5-35.7,131.8,0"/>
		<g>
		</g>
		<g>
			<defs>
				<path id="SVGID_3_" d="M359.5,177.3c0.2,9.6,3.2,92.7,4.9,99.5c1.8,6.8,1.9,53.5,1.9,53.5l-132.5,0.5c0,0,0-0.2,0-0.5
					c0-0.1,0-0.3,0-0.5c-0.7-12.4,6.7-138.7,7.2-151.3c0.6-13.2-6.9-23.9-6.9-23.9c-0.4,0.1,66.3-35.2,131.8,0
					C362.2,162.8,359.3,169.5,359.5,177.3z"/>
			</defs>
			<clipPath id="SVGID_2_">
				<use xlink:href="#SVGID_3_"  style="overflow:visible;"/>
			</clipPath>
			<g class="st18">
				<g>
					<polyline class="st19" points="366.7,159.9 359,159.9 355.1,152.4 346.7,152.4 342.8,159.9 339.7,159.9 333.2,159.9 
						329.3,152.4 320.9,152.4 317,159.9 307.5,159.9 303.6,152.4 295.2,152.4 291.3,159.9 281.8,159.9 277.9,152.4 269.6,152.4 
						265.7,159.9 256.2,159.9 252.3,152.4 243.9,152.4 240,159.9 233.5,159.9 					"/>
					<polyline class="st19" points="232.4,161.9 240.1,161.9 244,169.5 252.4,169.5 256.3,161.9 259.3,161.9 265.9,161.9 
						269.8,169.5 278.2,169.5 282,161.9 291.6,161.9 295.5,169.5 303.8,169.5 307.7,161.9 317.2,161.9 321.1,169.5 329.5,169.5 
						333.4,161.9 342.9,161.9 346.8,169.5 355.1,169.5 359,161.9 365.6,161.9 					"/>
				</g>
				<g>
					<polyline class="st19" points="366.7,140.8 359,140.8 355.1,133.3 346.7,133.3 342.8,140.8 339.7,140.8 333.2,140.8 
						329.3,133.3 320.9,133.3 317,140.8 307.5,140.8 303.6,133.3 295.2,133.3 291.3,140.8 281.8,140.8 277.9,133.3 269.6,133.3 
						265.7,140.8 256.2,140.8 252.3,133.3 243.9,133.3 240,140.8 233.5,140.8 					"/>
					<polyline class="st19" points="232.4,142.8 240.1,142.8 244,150.4 252.4,150.4 256.3,142.8 259.3,142.8 265.9,142.8 
						269.8,150.4 278.2,150.4 282,142.8 291.6,142.8 295.5,150.4 303.8,150.4 307.7,142.8 317.2,142.8 321.1,150.4 329.5,150.4 
						333.4,142.8 342.9,142.8 346.8,150.4 355.1,150.4 359,142.8 365.6,142.8 					"/>
				</g>
				<g>
					<polyline class="st19" points="366.7,179 359,179 355.1,171.5 346.7,171.5 342.8,179 339.7,179 333.2,179 329.3,171.5 
						320.9,171.5 317,179 307.5,179 303.6,171.5 295.2,171.5 291.3,179 281.8,179 277.9,171.5 269.6,171.5 265.7,179 256.2,179 
						252.3,171.5 243.9,171.5 240,179 233.5,179 					"/>
					<polyline class="st19" points="232.4,181 240.1,181 244,188.6 252.4,188.6 256.3,181 259.3,181 265.9,181 269.8,188.6 
						278.2,188.6 282,181 291.6,181 295.5,188.6 303.8,188.6 307.7,181 317.2,181 321.1,188.6 329.5,188.6 333.4,181 342.9,181 
						346.8,188.6 355.1,188.6 359,181 365.6,181 					"/>
				</g>
				<g>
					<polyline class="st19" points="366.7,198.1 359,198.1 355.1,190.6 346.7,190.6 342.8,198.1 339.7,198.1 333.2,198.1 
						329.3,190.6 320.9,190.6 317,198.1 307.5,198.1 303.6,190.6 295.2,190.6 291.3,198.1 281.8,198.1 277.9,190.6 269.6,190.6 
						265.7,198.1 256.2,198.1 252.3,190.6 243.9,190.6 240,198.1 233.5,198.1 					"/>
					<polyline class="st19" points="232.4,200.1 240.1,200.1 244,207.7 252.4,207.7 256.3,200.1 259.3,200.1 265.9,200.1 
						269.8,207.7 278.2,207.7 282,200.1 291.6,200.1 295.5,207.7 303.8,207.7 307.7,200.1 317.2,200.1 321.1,207.7 329.5,207.7 
						333.4,200.1 342.9,200.1 346.8,207.7 355.1,207.7 359,200.1 365.6,200.1 					"/>
				</g>
				<g>
					<polyline class="st19" points="366.7,217.2 359,217.2 355.1,209.7 346.7,209.7 342.8,217.2 339.7,217.2 333.2,217.2 
						329.3,209.7 320.9,209.7 317,217.2 307.5,217.2 303.6,209.7 295.2,209.7 291.3,217.2 281.8,217.2 277.9,209.7 269.6,209.7 
						265.7,217.2 256.2,217.2 252.3,209.7 243.9,209.7 240,217.2 233.5,217.2 					"/>
					<polyline class="st19" points="232.4,219.2 240.1,219.2 244,226.8 252.4,226.8 256.3,219.2 259.3,219.2 265.9,219.2 
						269.8,226.8 278.2,226.8 282,219.2 291.6,219.2 295.5,226.8 303.8,226.8 307.7,219.2 317.2,219.2 321.1,226.8 329.5,226.8 
						333.4,219.2 342.9,219.2 346.8,226.8 355.1,226.8 359,219.2 365.6,219.2 					"/>
				</g>
				<g>
					<polyline class="st19" points="366.7,236.3 359,236.3 355.1,228.8 346.7,228.8 342.8,236.3 339.7,236.3 333.2,236.3 
						329.3,228.8 320.9,228.8 317,236.3 307.5,236.3 303.6,228.8 295.2,228.8 291.3,236.3 281.8,236.3 277.9,228.8 269.6,228.8 
						265.7,236.3 256.2,236.3 252.3,228.8 243.9,228.8 240,236.3 233.5,236.3 					"/>
					<polyline class="st19" points="232.4,238.3 240.1,238.3 244,245.9 252.4,245.9 256.3,238.3 259.3,238.3 265.9,238.3 
						269.8,245.9 278.2,245.9 282,238.3 291.6,238.3 295.5,245.9 303.8,245.9 307.7,238.3 317.2,238.3 321.1,245.9 329.5,245.9 
						333.4,238.3 342.9,238.3 346.8,245.9 355.1,245.9 359,238.3 365.6,238.3 					"/>
				</g>
				<g>
					<polyline class="st19" points="366.7,255.4 359,255.4 355.1,247.9 346.7,247.9 342.8,255.4 339.7,255.4 333.2,255.4 
						329.3,247.9 320.9,247.9 317,255.4 307.5,255.4 303.6,247.9 295.2,247.9 291.3,255.4 281.8,255.4 277.9,247.9 269.6,247.9 
						265.7,255.4 256.2,255.4 252.3,247.9 243.9,247.9 240,255.4 233.5,255.4 					"/>
					<polyline class="st19" points="232.4,257.4 240.1,257.4 244,265 252.4,265 256.3,257.4 259.3,257.4 265.9,257.4 269.8,265 
						278.2,265 282,257.4 291.6,257.4 295.5,265 303.8,265 307.7,257.4 317.2,257.4 321.1,265 329.5,265 333.4,257.4 342.9,257.4 
						346.8,265 355.1,265 359,257.4 365.6,257.4 					"/>
				</g>
				<g>
					<polyline class="st19" points="366.7,274.5 359,274.5 355.1,267 346.7,267 342.8,274.5 339.7,274.5 333.2,274.5 329.3,267 
						320.9,267 317,274.5 307.5,274.5 303.6,267 295.2,267 291.3,274.5 281.8,274.5 277.9,267 269.6,267 265.7,274.5 256.2,274.5 
						252.3,267 243.9,267 240,274.5 233.5,274.5 					"/>
					<polyline class="st19" points="232.4,276.5 240.1,276.5 244,284.1 252.4,284.1 256.3,276.5 259.3,276.5 265.9,276.5 
						269.8,284.1 278.2,284.1 282,276.5 291.6,276.5 295.5,284.1 303.8,284.1 307.7,276.5 317.2,276.5 321.1,284.1 329.5,284.1 
						333.4,276.5 342.9,276.5 346.8,284.1 355.1,284.1 359,276.5 365.6,276.5 					"/>
				</g>
				<g>
					<polyline class="st19" points="366.7,293.6 359,293.6 355.1,286.1 346.7,286.1 342.8,293.6 339.7,293.6 333.2,293.6 
						329.3,286.1 320.9,286.1 317,293.6 307.5,293.6 303.6,286.1 295.2,286.1 291.3,293.6 281.8,293.6 277.9,286.1 269.6,286.1 
						265.7,293.6 256.2,293.6 252.3,286.1 243.9,286.1 240,293.6 233.5,293.6 					"/>
					<polyline class="st19" points="232.4,295.6 240.1,295.6 244,303.2 252.4,303.2 256.3,295.6 259.3,295.6 265.9,295.6 
						269.8,303.2 278.2,303.2 282,295.6 291.6,295.6 295.5,303.2 303.8,303.2 307.7,295.6 317.2,295.6 321.1,303.2 329.5,303.2 
						333.4,295.6 342.9,295.6 346.8,303.2 355.1,303.2 359,295.6 365.6,295.6 					"/>
				</g>
				<g>
					<polyline class="st19" points="366.7,312.3 359,312.3 355.1,304.7 346.7,304.7 342.8,312.3 339.7,312.3 333.2,312.3 
						329.3,304.7 320.9,304.7 317,312.3 307.5,312.3 303.6,304.7 295.2,304.7 291.3,312.3 281.8,312.3 277.9,304.7 269.6,304.7 
						265.7,312.3 256.2,312.3 252.3,304.7 243.9,304.7 240,312.3 233.5,312.3 					"/>
					<polyline class="st19" points="232.4,314.3 240.1,314.3 244,321.9 252.4,321.9 256.3,314.3 259.3,314.3 265.9,314.3 
						269.8,321.9 278.2,321.9 282,314.3 291.6,314.3 295.5,321.9 303.8,321.9 307.7,314.3 317.2,314.3 321.1,321.9 329.5,321.9 
						333.4,314.3 342.9,314.3 346.8,321.9 355.1,321.9 359,314.3 366.3,314.3 					"/>
				</g>
				<g>
					<polyline class="st19" points="366.7,331 359,331 355.1,323.4 346.7,323.4 342.8,331 339.7,331 333.2,331 329.3,323.4 
						320.9,323.4 317,331 307.5,331 303.6,323.4 295.2,323.4 291.3,331 281.8,331 277.9,323.4 269.6,323.4 265.7,331 256.2,331 
						252.3,323.4 243.9,323.4 240,331 233.5,331 					"/>
					<polyline class="st19" points="232.4,333 240.1,333 244,340.5 252.4,340.5 256.3,333 259.3,333 265.9,333 269.8,340.5 
						278.2,340.5 282,333 291.6,333 295.5,340.5 303.8,340.5 307.7,333 317.2,333 321.1,340.5 329.5,340.5 333.4,333 342.9,333 
						346.8,340.5 355.1,340.5 359,333 365.6,333 					"/>
				</g>
			</g>
		</g>
	</g>
	<polygon class="st9" points="415.1,521 415.1,527 425.5,526.4 425.2,521.1 	"/>
	<path class="st9" d="M364.8,511.3c0,0,3.2,1.8,3.3,2.1s7.6,1.2,7.6,1.2s14.7-7,9.7-19c-0.8-1.8-1.2-4.8-2.9-5.7
		c-5.4-2.9-14.3-5.8-14.3-5.8s-5.2-2.3-8.5-1c-0.4,0.1,0.3,3.1-0.1,3.3c-1.6,0.7-2.8,2.1-3.3,3.7c-1.6,4.1-2.4,7.9,2.4,18.9
		C359.4,510.5,362.7,510.4,364.8,511.3z"/>
	<path class="st9" d="M215.9,509.2l1,1.4c0,0,1.2,0.4,1.7,0.5c0.5,0.1,4.4-0.4,4.4-0.4l0.4-0.1l1.7-3.5l3.6-0.8l0.2,1.9l0.8,1.1
		l1.3,0.7l4.5-0.5l1.6-1.2l0.9-1.7l-1.3-18.9l-0.7-3.2l-2.4-2.2l-1.9-0.1l-0.7-1.1c0,0-6.5-0.5-6.8-0.6c-0.4,0-0.8,0.1-1.2,0.3
		l0.3,2.6l-7.8,0.7l-1.8,2.7l-0.7,2.9v4.3L215.9,509.2z"/>
	<path class="st9" d="M146.2,549.8l5.4,4.5l5.2,4c0,0,4.8,1.3,8.2,0.5c2.1-0.6,4.1-1.6,5.8-3l4.7-5.5l2.4-4.7l0.5-4.1l-0.8-4.9
		l-1.3-2.8l-2-2.3l-0.9-1.7v-11.2h-10.3l-0.2,4.7l-1.8-0.2l-3.3-0.2l-4.1,1.1l-5.1,3.1l-3.3,3.9c0,0-2.8,4.9-3.1,8.8
		c-0.4,3.9,2.8,8.5,2.8,8.5L146.2,549.8z"/>
	<path class="st3" d="M152.2,554.7c-3.1-1.7-5.8-4.1-7.9-7c-2.4-4.1-2.7-9.1-0.7-13.4c3.4-7.4,7.1-9.3,11.5-10.7
		c2.5-0.9,5.2-0.8,7.6,0.3"/>
	<path class="st4" d="M287.9,584.2c0,0,0.1,7.3,0,7.8c-0.2,0.4-0.5,0.6-0.9,0.7h-5.1c-1.8,0-1.8-1.5-1.8-1.5s0.1-30.1,0.1-32.2
		c0-2.1,1.7-1.8,1.7-1.8h5.2l10.9-0.1l4.8,0.1c0,0,1.8-0.1,1.8,1.5s0.1,32.3,0.1,32.3s-0.1,1.4-0.9,1.4s-5.7,0.1-5.7,0.1
		s-1.4-0.9-1.3-4.3c0.1-1.3,0.1-2.5,0-3.8"/>
	<polyline class="st4" points="287,551.5 287,557.4 287.7,558 287.9,584.2 296.9,584.2 296.9,557.7 297.9,557.3 298,551.5 	"/>
	<path class="st4" d="M425.7,526.6c2.4-1.1,5.1-1.2,7.6-0.3c4.4,1.4,8.1,3.4,11.5,10.7c2,4.3,1.7,9.3-0.7,13.4
		c-2.1,2.9-4.7,5.3-7.9,7"/>
	<path class="st4" d="M439,555.4c3.3-2.9,5.2-7.2,5.1-11.6c-0.4-4.5-2.4-8.6-5.5-11.8c-5.3-5.6-12.8-4.6-12.8-4.6l-6,0.6l-2.2,1.3
		c0,0,1,0.5,1.1,0.5"/>
	<path class="st4" d="M437.7,556.5c3.2-3.8,3.2-9.3,3.2-9.3s1-6.1-5.8-13.2c-6.8-7.1-17-3.8-17-3.8l-2.5,2.7"/>
	<path class="st4" d="M308.7,475.3l37.3-5.2c0.5-0.7,1.2-1.2,1.9-1.4c1.1-0.2,14.5-1.9,14.5-1.9h4.8c0.8,0.3,1.5,0.9,1.9,1.7l1,1.7
		l1.2,2.4l0.6,10c0,0-3.2,1.4-9.8,0.9c0,0-4.1-0.4-4.9-1.7l-18,5.1l52.9,11.6l1.1-0.7l32.2,7.1l0.3,1.1c0.9,0.1,1.7,0.7,2.1,1.6
		l0.9,14.8l-5.9,1.8l-7.7-1.2c0,0-2.2-0.5-3-2.2v-3.7l-90.7-14.3c0,0-15.1-1.4-17.2,3.8l-2.9,44.1l-8.3,1.6l-9.5-1.8l0.6-44.1
		c0,0,0.9-5-15.8-4.2l-92.4,12v3.1c0,0,0.1,1.8-3,2.6c-2.7,0.6-5.4,1-8.1,1.1l-5.7-2.1l1.1-13.4c0,0,0-2.2,2-2.7l0.8-1.2l32.7-6.2
		l0.8,0.9l54-10.5l-16.6-5.4c0,0-1.3,2-9.7,1.4c0,0-4.4-0.4-5-1.4l0.7-9.3l3-5.9c0,0,1-1,3.2-0.9l15.5,2.3c1.4,0.4,2.8,1.1,3.9,2
		l34.9,6.2"/>
	<path class="st4" d="M300,447.1c2.1-0.1,4.1,0.4,5.8,1.5l0.3,3.7c0.4,0.2,0.7,0.5,0.8,0.9l0.1,2.6c0.4,0.3,0.8,0.6,1.1,1.1
		l0.5,21.5c0.9,1.3,0.5,2,0.5,2c-2.5,3.6-14,3.6-14,3.6c-13.9-0.1-14.9-3.5-15.1-4.5c-0.1-0.6,0.2-1.2,0.7-1.4v-2.8
		c0,0,0.4-17.4,0.5-18.2c0-0.8,1.1-1,1.1-1l0.3-2.9c0-0.5,0.9-0.6,0.9-0.6l0.3-3.6c0.3-1,4.7-1.7,4.7-1.7v1c3.8,1,7.7,1,11.4,0
		V447.1z"/>
	<path class="st3" d="M283,453c0,0,13.4,5.6,23.5,0"/>
	<path class="st3" d="M281.9,456.4c0,0,0.8,4.2,13.7,4c12.9-0.2,12.1-4.3,12.1-4.3"/>
	<path class="st3" d="M221.2,469c0,0-0.1,0.8,0.4,0.9c0.6,0.2,13.8,3.3,13.8,3.3c0.5,0,0.9-0.1,1.3-0.4c0.7-1.1,1.3-2.3,1.9-3.5
		c0,0,0.8-1.5,1.8-1.2c0,0,3.5,0.4,4.9,0.5"/>
	<path class="st3" d="M346.2,470.2c0.6,0,1.2,0,1.8-0.2c0.9-0.3,3.1-1,4.3,0.4c0.6,0.8,1.1,1.7,1.3,2.8c0,1,0.8,1.7,1.8,1.7
		c0.1,0,0.1,0,0.2,0c1.8-0.3,14.1-2.4,14.1-2.4s0.9-0.4,0.8-1.2"/>
	<path class="st3" d="M426,506.3c0,0-1.7,0.1-3.1,3.4c-0.4,1.1-1.5,1.7-2.7,1.6l-30.5-6.3c0,0-1.4,0-1.2-1.7c0,0,0.3-2.1,1-2.4
		c0.9-0.6,1.8-1.4,2.5-2.1"/>
	<path class="st3" d="M285.6,536.4l3.3-2.1c0.5-0.5,1.3-0.6,1.9-0.5c1.4,0.1,3.3,0.1,3.3,0.1c0.9-0.1,1.7,0.2,2.4,0.7l3.3,2.3
		l1.3-14.2l-0.3-1.4c0,0-1.4-2.5-3.8-3l-6.3-0.2c-1.1,0-2.2,0.4-3.1,1.1c-0.8,0.6-1.5,1.3-2.2,2.1l-0.1,15.4L285.6,536.4z"/>
	<path class="st3" d="M162.2,502.8c0,0,1.8,0.8,3.1,3.9c0.6,1.2,1.9,1.8,3.2,1.4c2.4-0.5,30.1-4.9,30.1-4.9s1.2-0.4,1-1.4
		c-0.1-1-0.3-2.5-0.3-2.5l-1.8-2.1l-1.1-1"/>
	<polyline class="st3" points="160.7,503.6 165.6,509.5 165.1,521.1 	"/>
	<path class="st6" d="M165.9,509.5l98.8-15.5c0,0,13.6-1.9,20.2,3.4l-0.9,41.5"/>
	<line class="st6" x1="298.7" y1="483.7" x2="297.2" y2="518.1"/>
	<line class="st6" x1="290.1" y1="483.7" x2="290.1" y2="517.9"/>
	<polyline class="st3" points="427.4,507 422,513.5 422.2,523.8 	"/>
	<path class="st6" d="M421.6,513.5L320.9,494c0,0-14-2.8-17.3,3.1l-3.3,39.7"/>
	<line class="st6" x1="389.5" y1="500.9" x2="306.9" y2="482.2"/>
	<line class="st3" x1="339.2" y1="487" x2="308.9" y2="480"/>
	<line class="st6" x1="308.9" y1="478.2" x2="352.4" y2="470.8"/>
	<line class="st3" x1="322.7" y1="483" x2="370.5" y2="472.9"/>
	<path class="st3" d="M357.4,481.9l9-2.6c0,0,1.6-0.6,2.2,0.3"/>
	<line class="st3" x1="250.6" y1="485.6" x2="279.7" y2="479.7"/>
	<line class="st6" x1="265.4" y1="482.3" x2="220.3" y2="471"/>
	<path class="st3" d="M233.9,480.4l-9.2-3c0,0-1.8-0.5-2.3,0.1"/>
	<path class="st3" d="M287.1,552.2c0,0,5.9,3.4,10.6,0"/>
	<path class="st4" d="M410.4,548c0,0-2.6-10.2,5.7-15.1s17.7,2.3,19.7,6.3s7.2,15.2-3.3,21.3C422,566.5,411.3,553.8,410.4,548z"/>
	<path class="st14" d="M415.1,523.2c0,0,0.4,1.9,4.6,2c4.2,0.1,5-0.1,5.5-1.6l0.3,0.1v4.3c0,0-6.5,0.2-8.5,3l-2,2.5V523.2z"/>
	<line class="st3" x1="440.5" y1="550.6" x2="443.1" y2="549.1"/>
	<path class="st3" d="M413,546.6c0,0-1.1-10.1,8-11.5c9.1-1.3,13.3,8.7,13.3,8.7s4.1,11.5-5.6,14.5
		C418.4,561.4,413.1,549.8,413,546.6z"/>
	<path class="st3" d="M418.5,546.1c0.1,3.2,2.4,5.9,5.5,6.5c5.5,1.4,4.8-6.4,4.8-6.4s-1.3-4.5-5.7-4.7S418.5,546.1,418.5,546.1z"/>
	<path class="st3" d="M421.4,541.6c0,0,1.2-1,1.7-0.9c0.6,0.1,3.6-0.7,5.8,2.8c2.8,4.5-1.6,8.6-1.6,8.6"/>
	<polyline class="st6" points="415.3,538.5 416.2,538.9 420.3,541.7 421,541.2 418.5,537.4 416.9,536.6 	"/>
	<path class="st6" d="M418.5,535.8l1,0.7l2.2,3.4c0,0,1,0.2,1.1-0.5l0,0l-0.8-3.1l-0.8-1.1"/>
	<path class="st6" d="M422.6,534.9l0.6,1l0.8,3.4c0,0,0.7,0.8,1.2,0.2l0.5-3.1l-0.2-1"/>
	<path class="st6" d="M426.9,536.1l0.1,0.8l-0.5,3.4c0,0,0.5,0.7,1,0.6l1.6-2.5l0.3-0.8"/>
	<path class="st6" d="M430.4,538.6l-0.2,0.8l-1.6,2.2c0,0,0,1,1,1l2.6-1.8"/>
	<path class="st6" d="M433.2,542.2l-2.8,1.5c0,0-0.8,1.2,0.4,1.4l3.5-0.8"/>
	<path class="st6" d="M434.8,546.5l-3.3-0.2c0,0-1.4,0.5-0.2,1.3l3.9,1.6"/>
	<path class="st6" d="M434.2,553.6l-0.9-1.2l-2.8-2.4c0,0-0.6-1.3,0.6-1.1c1.2,0.2,3.9,2.2,3.9,2.2"/>
	<path class="st6" d="M431,557.2l-0.1-1.5c0-0.5-0.2-1-0.5-1.4c-0.4-0.6-1.4-2-1.4-2s-0.6-1.9,1.2-1.1l2.3,2.7l0.7,1.3"/>
	<path class="st6" d="M427,558.6l0.4-1.4c0.1-0.6,0.1-1.3-0.1-1.9l-0.6-2c0,0,0.3-1.2,1.3-0.5l1.1,2.1c0.3,0.4,0.4,0.9,0.5,1.4
		l0.1,1.4"/>
	<path class="st6" d="M422.7,558.3l0.8-1.1c0.3-0.5,0.5-1,0.5-1.6l0.4-2.7"/>
	<polyline class="st6" points="425.4,552.9 426.2,556.3 425.5,558.6 	"/>
	<polyline class="st6" points="418.5,556.1 419.6,555.2 421.6,552 	"/>
	<polyline class="st6" points="422.9,552.5 422.3,556.2 420.6,557.5 	"/>
	<polyline class="st6" points="415.6,552.6 416.8,551.5 419.5,549.9 	"/>
	<polyline class="st6" points="420.6,551.1 418.8,553.7 417.8,555.1 	"/>
	<path class="st6" d="M414.7,551.1l1-0.7c0.4-0.3,0.9-0.5,1.3-0.7c0.6-0.3,1.2-0.6,1.8-1"/>
	<polyline class="st6" points="418.5,547.4 416.3,547.6 413.7,548.4 	"/>
	<polyline class="st6" points="413.2,546.6 415.6,546.1 418.2,546 	"/>
	<polyline class="st6" points="418.5,544.9 414.9,543.8 413.2,543.7 	"/>
	<polyline class="st6" points="413.5,542 415.2,542.2 418.8,543.5 	"/>
	<polyline class="st6" points="419.3,542.6 416.4,540.3 414.6,539.9 	"/>
	<path class="st3" d="M178,545.1c0,0,2.6-10.2-5.7-15c-8.3-4.8-17.7,2.3-19.7,6.3c-2,4-7.2,15.2,3.3,21.3
		C166.4,563.7,177.2,550.9,178,545.1z"/>
	<path class="st3" d="M173.4,520.4c0,0-0.4,1.9-4.6,2c-4.2,0.1-5-0.1-5.5-1.6"/>
	<line class="st3" x1="173.4" y1="520.9" x2="173.4" y2="531.1"/>
	<path class="st3" d="M173.2,530.3c-2.6-4.7-10.2-5.1-10.2-5.1v-4.3"/>
	<path class="st3" d="M170.5,527.4c0,0-10.2-3.3-17,3.8c-6.8,7.1-5.8,13.2-5.8,13.2s0,5.4,3.2,9.3"/>
	<path class="st3" d="M162.7,524.6c0,0-7.5-1-12.8,4.6c-3.1,3.2-5.1,7.3-5.5,11.8c-0.1,4.4,1.8,8.7,5.1,11.6"/>
	<line class="st3" x1="148" y1="547.8" x2="145.3" y2="546.2"/>
	<path class="st3" d="M175.5,543.7c0,0,1.1-10.1-8-11.5c-9.1-1.3-13.3,8.7-13.3,8.7s-4.1,11.5,5.5,14.5
		C170.1,558.6,175.4,547,175.5,543.7z"/>
	<path class="st3" d="M170,543.2c-0.1,3.2-2.4,5.8-5.5,6.5c-5.5,1.4-4.8-6.4-4.8-6.4s1.3-4.5,5.7-4.7S170,543.2,170,543.2z"/>
	<path class="st3" d="M167.1,538.8c0,0-1.2-0.9-1.8-0.9c-0.6,0-3.6-0.7-5.8,2.8c-2.8,4.5,1.6,8.6,1.6,8.6"/>
	<polyline class="st6" points="173.1,535.7 172.2,536 168.1,538.8 167.4,538.4 169.9,534.6 171.5,533.7 	"/>
	<path class="st6" d="M169.9,533l-1,0.7l-2.2,3.4c0,0-1,0.2-1.1-0.5l0,0l0.8-3.1l0.8-1.1"/>
	<path class="st6" d="M165.9,532.1l-0.5,1l-0.8,3.4c0,0-0.7,0.8-1.2,0.2l-0.6-3.1l0.2-1"/>
	<path class="st6" d="M161.5,533.2l-0.1,0.8l0.5,3.4c0,0-0.5,0.7-1,0.6l-1.6-2.5l-0.3-0.8"/>
	<path class="st6" d="M158,535.7l0.2,0.8l1.6,2.2c0,0,0,1-1,1l-2.6-1.8"/>
	<path class="st6" d="M155.2,539.4l2.8,1.5c0,0,0.8,1.2-0.4,1.4l-3.5-0.8"/>
	<path class="st6" d="M153.7,543.7l3.3-0.2c0,0,1.4,0.5,0.2,1.3l-3.9,1.6"/>
	<path class="st6" d="M154.3,550.8l0.9-1.2l2.8-2.3c0,0,0.6-1.3-0.6-1.1c-1.2,0.2-3.9,2.2-3.9,2.2"/>
	<path class="st6" d="M157.4,554.4l0.1-1.5c0-0.5,0.2-1,0.5-1.4c0.4-0.6,1.4-2,1.4-2s0.6-1.9-1.2-1.1l-2.3,2.7l-0.7,1.4"/>
	<path class="st6" d="M161.5,555.7l-0.4-1.4c-0.1-0.6-0.1-1.3,0.1-1.9l0.6-2c0,0-0.3-1.2-1.3-0.5l-1.1,2.1c-0.3,0.4-0.4,0.9-0.5,1.4
		l-0.1,1.4"/>
	<path class="st6" d="M165.8,555.5l-0.8-1.1c-0.3-0.5-0.5-1-0.5-1.6l-0.4-2.7"/>
	<polyline class="st6" points="163.1,550.1 162.2,553.5 162.9,555.7 	"/>
	<polyline class="st6" points="169.9,553.3 168.8,552.3 166.8,549.1 	"/>
	<polyline class="st6" points="165.5,549.7 166.2,553.3 167.9,554.6 	"/>
	<polyline class="st6" points="172.9,549.8 171.6,548.7 169,547 	"/>
	<polyline class="st6" points="167.8,548.3 169.7,550.8 170.7,552.3 	"/>
	<path class="st6" d="M173.7,548.3l-1-0.7c-0.4-0.3-0.8-0.5-1.3-0.7c-0.6-0.3-1.2-0.6-1.8-1"/>
	<polyline class="st6" points="169.9,544.6 172.2,544.7 174.7,545.5 	"/>
	<polyline class="st6" points="175.3,543.8 172.9,543.2 170.2,543.1 	"/>
	<polyline class="st6" points="169.9,542.1 173.6,540.9 175.2,540.9 	"/>
	<polyline class="st6" points="175,539.2 173.2,539.4 169.6,540.7 	"/>
	<polyline class="st6" points="169.1,539.8 172.1,537.4 173.9,537 	"/>
	<polyline class="st3" points="304.7,568.4 305.4,568.4 305.4,581.2 304.8,581.2 	"/>
	<polyline class="st3" points="279.8,568.6 279.2,568.6 279.2,581.4 279.8,581.4 	"/>
	<path class="st3" d="M359.7,483.4c0,0-0.1,1.8,4.5,1.8c4.5,0.1,4.1-1.6,4.1-1.6"/>
	<line class="st3" x1="359.6" y1="483.6" x2="359.6" y2="491.2"/>
	<path class="st3" d="M368.6,483.7l0.1,4.6c-1.6,1.1-3.1,2.5-4.2,4.2"/>
	<path class="st3" d="M359.5,486.4c0,0-2.6,1.8-3.3,4"/>
	<path class="st3" d="M368.7,484.2l12.3,4.6c0,0,3.7,1.8,4.6,8.2"/>
	<path class="st3" d="M368.7,488.3c0,0,3.3-2.2,6.6-1.7"/>
	<path class="st3" d="M371.8,493.9c0,0,2.1-3.1,5.5-2.9c3.1,0.2,5.6,2.4,6.3,5.5"/>
	<line class="st3" x1="373.6" y1="492.4" x2="373.7" y2="494.3"/>
	<polyline class="st3" points="375.1,491.5 374.7,492.6 374.8,494.6 	"/>
	<polyline class="st3" points="377,491.2 376.3,492.2 375.5,494.7 	"/>
	<polyline class="st3" points="378.4,491.4 377.5,492.5 376.8,494.9 	"/>
	<polyline class="st3" points="377.3,495.1 378.5,493.2 380,492 	"/>
	<polyline class="st3" points="381.2,492.8 379.6,493.9 378.5,495.3 	"/>
	<polyline class="st3" points="379.6,495.8 381,494.6 382.5,494.3 	"/>
	<polyline class="st3" points="381.4,496.1 382,495.7 383.2,495.6 	"/>
	<path class="st3" d="M358.5,508.8c0,0,2.1,2.4,6.6,2.3"/>
	<path class="st3" d="M361.4,509.2c0,0,0.4,1.5,3.6,2c2.2,1.8,4.9,3,7.7,3.3c4.7,0.6,6.9-2.3,6.9-2.3"/>
	<path class="st3" d="M366.3,510.1c0,0,1.3,2.5,6.1,4.5"/>
	<path class="st3" d="M364.1,509.6c0.2,0.6,0.5,1.1,0.8,1.6"/>
	<path class="st15" d="M224.3,490.9c0.1-2-1.4-5.5-1.4-5.5l0.2-3.5c0,0,0.4,1.8,4.8,1.6c4.4-0.2,3.6-1.9,3.6-1.9l0.3,5
		c0,1-0.1,2-0.5,2.9"/>
	<path class="st3" d="M222.8,483.3l-7.1,0.7c0,0-3.2,1-3,9"/>
	<path class="st3" d="M219.2,491.8c0,0,0-6.3-3.5-7.8"/>
	<path class="st3" d="M236.8,488.4c-0.6-5.4-3.7-6.2-3.7-6.2l-1.2,0.1"/>
	<path class="st3" d="M222.9,485.4c-0.6-0.7-1.4-1.4-2.2-1.8"/>
	<path class="st3" d="M217.8,492c0,0-0.1-3.8-2.4-5.1c-2.3-1.3-2.3,5.9-2.3,5.9"/>
	<path class="st3" d="M213.9,488.1l1.7,0.8c0.5,0.4,0.8,0.8,1,1.4c0.2,0.9,0.3,1.8,0.3,1.8"/>
	<path class="st3" d="M213.2,490.8c0,0,1.7,0,2.5,0.9l0.3,0.6"/>
	<path class="st3" d="M224.6,508c-0.3,0.9-0.8,1.8-1.5,2.6c0,0-4.1,0.7-5.3,0.4c-1.2-0.2-2-1.9-2-1.9"/>
	<path class="st3" d="M220.2,508.5c-0.2,1.2-1,2.2-2.2,2.6"/>
	<path class="st3" d="M228.7,507.5c0.3,1.1,1.2,2,2.3,2.3l4.6-0.4c0,0,2.2-1.5,2.1-3"/>
	<path class="st3" d="M233.2,506.8c0,0-0.4,2.3-2.2,2.9"/>
	<path class="st3" d="M283.9,448.6c0,0,11.4,4.4,21.9,0"/>
	<path class="st3" d="M283.9,448.6c0,0,12.5,4.5,21.9,0"/>
	<path class="st5" d="M184.2,396.8c0,0,22.3,1.7,36.9,5.4c1,0.3,1.8,1.1-0.4,3"/>
	<path class="st5" d="M407.4,402.5c0,0-21,0.2-35.8,2.4c-2.9,0.3-4,1.3-2.1,3.2"/>
	<path class="st6" d="M255.7,394.5c0,0,0.7,3.9,1.7,4.1c0-1.1-0.5-8.6-0.5-8.6"/>
	<path class="st6" d="M258.4,390l0.3,9.3c0,0,0.3,2.2,0.6,2.5"/>
	<path class="st6" d="M261.6,390.1l0.5,11.6l-3.7,0.1c0,0-0.7,0.2-0.8-1c0-0.8-0.1-1.5-0.3-2.2"/>
	<path class="st5" d="M334.3,395c0,0-0.7,3.9-1.9,4.1c0-1.1,0.5-8.6,0.5-8.6"/>
	<path class="st5" d="M331.2,390.4l-0.4,9.3c0,0-0.3,2.2-0.7,2.5"/>
	<path class="st5" d="M327.7,390.5l-0.6,11.6l4.2,0.1c0,0,0.8,0.2,0.8-1c0-0.8,0.1-1.5,0.3-2.2"/>
	<path class="st3" d="M265.3,406.1c0,0-2.9-2.7-3.2-4.4"/>
	<path class="st5" d="M262,399.2c0,0,0.5,2.9,1.8,3.9c1.3,1,10.3,8.3,10.3,8.3l1.6,4.4"/>
	<line class="st6" x1="262.9" y1="401.8" x2="327.1" y2="401.8"/>
	<line class="st6" x1="274.1" y1="411.4" x2="316" y2="411.4"/>
	<line class="st5" x1="275.2" y1="414.3" x2="314.7" y2="414.3"/>
	<path class="st5" d="M327.1,402.1l-11.5,9.8c0,0-0.6,2.7-1.5,3.5l-4.2,3.6l-0.4,2.5"/>
	<line class="st3" x1="325.1" y1="406.1" x2="327.3" y2="402.1"/>
	<line class="st3" x1="278.8" y1="418.7" x2="280.9" y2="420.1"/>
	<path class="st6" d="M280.9,422.6v-3.9c0,0,2.4-3.3,12.9-3.4c12.5,0,16.1,3.8,16.1,3.8"/>
	<path class="st6" d="M281.4,424.2c0,0,0.1-3.8,8-4.1c4.2-0.2,8.5-0.1,12.7,0.5c0,0,5.5,0.7,6.9,3.6"/>
	<path class="st3" d="M307.7,425.5v-2.4c-4.3,0.8-8.6,1.1-12.9,1.1c-8.4,0.1-12.1-1.1-12.1-1.1l-0.1,2.3"/>
	<polyline class="st7" points="284,449.1 283.5,428.2 284,428.4 284.4,449.1 	"/>
	<polyline class="st7" points="285.4,450.2 285.1,428.6 285.8,428.6 286.2,450.5 	"/>
	<path class="st7" d="M304.4,450.5c0,0-16.9,0.6-18.7-0.1"/>
	<polyline class="st7" points="287.7,450.6 287.7,428.9 288.5,428.9 288.5,450.6 	"/>
	<polyline class="st7" points="290.1,450.6 290.1,428.9 291.5,428.9 291.5,450.6 	"/>
	<polyline class="st7" points="293.2,450.6 293.2,428.9 294.6,428.9 294.6,450.6 	"/>
	<polyline class="st7" points="296.4,450.6 296.4,428.9 297.8,428.9 297.8,450.6 	"/>
	<polyline class="st7" points="299.3,450.6 299.3,428.9 300.7,428.9 300.7,450.6 	"/>
	<polyline class="st7" points="302.5,450.6 302.5,428.9 303.7,428.9 303.7,450.6 	"/>
	<polyline class="st7" points="304.8,450.1 304.8,428.4 305.6,428.4 305.6,450.1 	"/>
	<polyline class="st7" points="306.3,449.4 306.3,428.2 306.9,428.2 306.9,440.5 	"/>
	<g id="texto_49_">
		<rect x="279" y="104.8" class="st9" width="34.9" height="14.8"/>
		<rect x="269.8" y="189.1" class="st9" width="54.7" height="14.8"/>
		<rect x="278.8" y="242" class="st9" width="36.7" height="14.8"/>
		<rect x="278.8" y="281.7" class="st9" width="36.7" height="14.8"/>
		<rect x="278.8" y="322.6" class="st9" width="36.7" height="12.1"/>
		<rect x="278.8" y="398.7" class="st9" width="36.7" height="14.8"/>
		<text transform="matrix(1 0 0 1 282.2744 115.9698)" class="st27 st28 st29">61cm</text>
		<text transform="matrix(1 0 0 1 271.3008 202.2257)" class="st27 st28 st29">56 - 60cm</text>
		<text transform="matrix(1 0 0 1 282.2744 253.4332)" class="st27 st28 st29">59cm</text>
		<text transform="matrix(1 0 0 1 282.2744 293.7765)" class="st27 st28 st29">34cm</text>
		<text transform="matrix(1 0 0 1 282.2744 332.3292)" class="st27 st28 st29">39cm</text>
		<text transform="matrix(1 0 0 1 282.2744 411.4185)" class="st27 st28 st29">60cm</text>
	</g>
	<line class="st20" x1="193.9" y1="118.8" x2="407" y2="118.8"/>
	<line class="st16" x1="185.2" y1="124.5" x2="185.2" y2="113.5"/>
	<polygon class="st17" points="185.6,119 195.1,124.5 195.1,113.5 	"/>
	<line class="st16" x1="415.3" y1="123.8" x2="415.3" y2="112.7"/>
	<polygon class="st17" points="415,118.2 405.5,123.7 405.5,112.7 	"/>
	<line class="st21" x1="196.8" y1="257.2" x2="411.4" y2="257.2"/>
	<line class="st16" x1="187.9" y1="262.9" x2="187.9" y2="251.9"/>
	<polygon class="st17" points="188.2,257.4 197.8,262.9 197.8,251.9 	"/>
	<line class="st16" x1="412.2" y1="262.2" x2="412.2" y2="251.1"/>
	<polygon class="st17" points="411.9,256.7 402.4,262.2 402.4,251.1 	"/>
	<line class="st16" x1="244.3" y1="296.4" x2="356.3" y2="296.4"/>
	<line class="st16" x1="235.2" y1="302.1" x2="235.2" y2="291.1"/>
	<polygon class="st17" points="235.5,296.6 245,302.1 245,291.1 	"/>
	<line class="st16" x1="365.6" y1="302.1" x2="365.6" y2="291.1"/>
	<polygon class="st17" points="365.3,296.6 355.8,302.1 355.8,291.1 	"/>
	<g>
		<line class="st22" x1="231" y1="335.6" x2="375.2" y2="335.6"/>
		<line class="st16" x1="222.1" y1="341.3" x2="222.1" y2="330.3"/>
		<polygon class="st17" points="222.4,335.8 232,341.3 232,330.3 		"/>
		<line class="st16" x1="378.5" y1="341.3" x2="378.5" y2="330.3"/>
		<polygon class="st17" points="378.2,335.8 368.7,341.3 368.7,330.3 		"/>
	</g>
	<line class="st23" x1="188.8" y1="414.1" x2="417" y2="414.1"/>
	<line class="st24" x1="177.7" y1="419.8" x2="177.7" y2="322.6"/>
	<polygon class="st17" points="178,414.3 187.6,419.8 187.6,408.8 	"/>
	<line class="st24" x1="422.1" y1="419.8" x2="422.1" y2="322.6"/>
	<polygon class="st17" points="421.8,414.3 412.2,419.8 412.2,408.8 	"/>
	<line class="st25" x1="194.5" y1="203.9" x2="405.7" y2="203.9"/>
	<line class="st16" x1="186.1" y1="271.4" x2="186.1" y2="198.6"/>
	<polygon class="st17" points="186.1,204.2 195.6,209.7 195.6,198.6 	"/>
	<line class="st16" x1="413.7" y1="271.4" x2="413.7" y2="197.9"/>
	<polygon class="st17" points="413.4,203.4 403.8,208.9 403.8,197.9 	"/>
</g>
</svg>
