<svg xmlns="http://www.w3.org/2000/svg" viewBox="0 0 427.49 717.82"><defs><style>.cls-1{fill:#fff;}.cls-1,.cls-2,.cls-3{stroke:#000;stroke-miterlimit:10;}.cls-1,.cls-2{stroke-width:2px;}.cls-2,.cls-3{fill:none;}</style></defs><title>Rhino Diagonal</title><g id="Camada_2" data-name="Camada 2"><g id="Camada_1-2" data-name="Camada 1"><g id="Camada_2-2" data-name="Camada 2"><g id="diagonal"><path class="cls-1" d="M295.3,477.53l-.92,8.66a7.62,7.62,0,0,1-1.92,2.67c-1.33,1.17-24,12.42-24,12.42l-2,5.16L255,510.11l1.08,3.83s-.17,1.67-8.83,4.92l.91,32.5-4.5,3.67s-7.33,2.66-18.75,1.75L219,553l-2.42-26.17-2.75-.5-.75-2.83L211,527.86s-18.41,5.5-30.08-1.17l-3.75-19.08-8.5,1.08s0,10.59-13.67,15.34l-6.33,1.41s-1.08.84-5.5-1.16-16.58-10.84-16.58-10.84-4.67.17-4.17-8.25a4.81,4.81,0,0,1,3.08-4.16l77.42-12.09,3.5-8.16"/><path class="cls-1" d="M214.59,566.07l47.87-6.69a4.93,4.93,0,0,1,2.5-1.81c1.38-.25,18.57-2.5,18.57-2.5h6.12a4,4,0,0,1,2.44,2.25l1.25,2.18,1.56,3.13.81,12.81s-4.06,1.81-12.62,1.19c0,0-5.25-.56-6.25-2.13L253.78,581l67.87,14.88,1.44-.88,41.31,9.13.44,1.37a3.43,3.43,0,0,1,2.69,2.07l1.18,18.93-7.62,2.32-9.94-1.5s-2.87-.63-3.87-2.88v-4.69L230.84,601.44s-19.38-1.81-22.13,4.81L205,662.82l-10.63,2.06-12.19-2.25.75-56.63s1.19-6.43-20.25-5.43L44.09,616v4s.12,2.32-3.88,3.38a66.89,66.89,0,0,1-10.37,1.44l-7.38-2.75,1.44-17.25s0-2.88,2.63-3.5l1.06-1.5,42-8,1.06,1.12L140,579.5l-21.32-6.87s-1.62,2.62-12.5,1.81c0,0-5.62-.56-6.43-1.81l.87-12,3.88-7.63s1.25-1.31,4.12-1.12l19.88,3a13.11,13.11,0,0,1,5.06,2.56l44.81,8"/><path class="cls-1" d="M203.4,529.75a13.28,13.28,0,0,1,7.5,1.94l.38,4.75a2.29,2.29,0,0,1,1.06,1.13l.19,3.31a3.82,3.82,0,0,1,1.37,1.37l.69,27.57c1.12,1.68.62,2.62.62,2.62-3.25,4.56-18,4.56-18,4.56-17.87-.12-19.18-4.5-19.37-5.81a1.71,1.71,0,0,1,.94-1.81v-3.63s.56-22.31.62-23.37,1.38-1.31,1.38-1.31l.37-3.69c0-.63,1.13-.75,1.13-.75l.37-4.69c.44-1.31,6.06-2.19,6.06-2.19V531a29.12,29.12,0,0,0,14.69,0Z"/><path class="cls-1" d="M318.71,376.86V340.94a6.62,6.62,0,0,0-2-4.12c-1.87-1.75-20-14-20-14h-10.5v-6.25s-.87-4.75,4.5-6.13,89-1.5,95.88.88a69.38,69.38,0,0,1,10.62,4.5s2.63,2,3,3.62a13.74,13.74,0,0,1,0,4.13s-4.62,1.37-20.62,1.37l-14.31-.06-18.07,12.06a6.43,6.43,0,0,0-2.56,4.69c-.31,3.25-.56,34-.56,34"/><path class="cls-1" d="M99.55,460.61l-1.84.83L46,452.61s-4.17.67-6.84-8l-2-31.33s0-8.17,1.17-11.34l-.83-6.33s-.42-3.33,1-5.42,9-12.83,9-12.83a5.38,5.38,0,0,0,.5-3.17c-.17-2.16-2-15.75-2-15.75L32.8,301.28a4.66,4.66,0,0,1,.33-3.92l2.33-3.67"/><path class="cls-2" d="M35.46,293.69a6.39,6.39,0,0,1,4.38-3.37c3.37-.88,11.19-1,11.19-1s4.31,2.5,6.93,4.37l15.75,89.42-3.75.5.42,2.17s7.25,2.58,11.25,13.16a148.41,148.41,0,0,0,7.25,16.59l1.9-.9s2.21-.13,2.21.59a9,9,0,0,1-1,2.57l7.81,1.87.66,14.5.15,10.38a4.57,4.57,0,0,0,1.44,1v4.68s-1.94-.06-1.69,1-1.12,9.19-1.12,9.19"/><path class="cls-2" d="M100.38,433.94l-4.5.34s-2.92.33-4.13-2.09-6-1.21-6-1.21L86,417.69l1.63-.33,5.24.66"/><polyline class="cls-2" points="88.88 415.53 80.25 418.23 85.75 419.23"/><polyline class="cls-2" points="85.59 428.05 78.24 427.44 78.62 418.32"/><path class="cls-2" d="M38.38,401.94,41,416.69s1.08,9.67,9.25,9.34,6-15.92,6-15.92L54,391.44s-.67-5.16,2.66-5.75l13.17-2.33"/><path class="cls-2" d="M54.44,400.22l-2.31-13.73L57,372.83,46.88,294.44s-3-4.19-6-4.35"/><path class="cls-2" d="M66.21,383.61a48.42,48.42,0,0,1-8.75-25.67c-.5-15-6.43-68.62-6.43-68.62"/><line class="cls-2" x1="74.4" y1="332.88" x2="145.84" y2="338.32"/><path class="cls-2" d="M138,343.78l-14.37.54a69.77,69.77,0,0,1-10.38-.54c-4.62-.71-29-3-29-3"/><line class="cls-2" x1="365.28" y1="324.88" x2="296.21" y2="322.82"/><path class="cls-2" d="M307.34,330.22,336,331s7.55.25,10.46,0,9.79-.3,9.79-.3"/><path class="cls-2" d="M170.88,470.11,136.3,475l-.34,2-13.25,2.75s-17.58,3.08-24.33-2.67l2-26s6.58,4.49,21.92,2.57c0,0,2.91-1.08.66-2.08v-4l.84-.83L126,353.93s1-3.33,2.16-3.5,17.94-12.12,17.94-12.12l40.06-1.44v-8.44s.07-4.06-4.62-6.19c0,0-47.81-7.31-72.63-5.18l-34,1-8.5,5s-3.25.81-2.81,8.06l10.75,1.75,21.19,17.07s2.44.69,2.25,6.25l2.54,65"/><path class="cls-2" d="M110.76,74.12s-7.32,25.45-1,67.32c0,0,3.06,11.31,8,11.83a13.53,13.53,0,0,0,8.27-1.68s10.35-9.8,22.51-11S173.28,137,189.81,152c0,0,7.78,6.83,13,3.1,0,0,2.26.32,4.3-3.23,0,0-2.12-14.21-2-22.65,0,0-3-25.66-1.95-30.68a54.75,54.75,0,0,0,1-10.2S202,76.68,191.74,78c0,0-8.12,1.93-12.7,6s-25.72,5.24-45.34-7.17c0,0-7.88-5.91-8.47-6.15S117.1,65,110.76,74.12Z"/><path class="cls-2" d="M116.2,152.51s22.11-20.24,27.95-42.16c3-11.27-1.3-23.47-10.82-33.58"/><path class="cls-2" d="M110.1,78.17s1.68,64.53,2.1,69.62"/><path class="cls-2" d="M181.82,81.95s10.93-3.48,14.73,15.57,9.62,45.3,7.86,56.34L214,255.57l8.33.17L209.69,127.43h-3.86"/><polyline class="cls-2" points="124.05 452.61 125.46 467.36 144.39 464.36"/><path class="cls-2" d="M181.59,537.36s17.21,7.21,30.12,0"/><path class="cls-2" d="M180.13,541.69s1,5.42,17.62,5.17,15.55-5.58,15.55-5.58"/><path class="cls-2" d="M102.25,557.94s-.16,1,.55,1.21,17.66,4.21,17.66,4.21a2.3,2.3,0,0,0,1.67-.54,50.4,50.4,0,0,0,2.46-4.5s1-1.92,2.29-1.5l6.29.66"/><path class="cls-2" d="M262.67,559.53a6.32,6.32,0,0,0,2.29-.25c1.21-.38,4-1.3,5.46.5a7.79,7.79,0,0,1,1.63,3.54,2.22,2.22,0,0,0,2.29,2.15l.29,0c2.37-.37,18.12-3.12,18.12-3.12s1.17-.46,1-1.5"/><path class="cls-2" d="M365.15,605.88s-2.19.06-4,4.31a3.27,3.27,0,0,1-3.44,2.06l-39.12-8.12s-1.75-.06-1.5-2.13c0,0,.44-2.75,1.25-3.12a25.36,25.36,0,0,0,3.25-2.75"/><path class="cls-2" d="M184.9,644.44l4.19-2.69a3.12,3.12,0,0,1,2.5-.68c1.75.12,4.25.12,4.25.12a4.53,4.53,0,0,1,3.12.88l4.19,3,1.69-18.25L204.4,625s-1.81-3.25-4.87-3.87l-8.07-.25a6.46,6.46,0,0,0-3.93,1.44,24.11,24.11,0,0,0-2.82,2.68l-.18,19.82Z"/><path class="cls-2" d="M26.53,601.32s2.37,1.06,4,5.06a3.37,3.37,0,0,0,4.06,1.84c3.12-.62,38.62-6.25,38.62-6.25s1.5-.56,1.32-1.81-.44-3.19-.44-3.19l-2.25-2.75-1.44-1.31"/><polyline class="cls-2" points="24.59 602.38 30.84 609.88 30.15 624.8"/><path class="cls-2" d="M31.21,609.88,158,589.94s17.5-2.5,26,4.34l-1.17,53.33"/><line class="cls-2" x1="201.71" y1="576.79" x2="199.8" y2="621.03"/><line class="cls-2" x1="190.71" y1="576.79" x2="190.71" y2="620.78"/><polyline class="cls-2" points="366.96 606.7 360.09 615.07 360.34 628.32"/><path class="cls-2" d="M359.46,615.07l-129.25-25s-18-3.63-22.25,4l-4.25,51"/><line class="cls-2" x1="317.06" y1="598.91" x2="212.21" y2="574.82"/><line class="cls-2" x1="253.78" y1="581" x2="214.84" y2="572.07"/><line class="cls-2" x1="214.84" y1="569.69" x2="270.72" y2="560.18"/><line class="cls-2" x1="232.59" y1="575.88" x2="293.96" y2="562.88"/><path class="cls-2" d="M277.09,574.5l11.5-3.28s2-.81,2.87.44"/><line class="cls-2" x1="139.96" y1="579.28" x2="177.38" y2="571.69"/><line class="cls-2" x1="158.96" y1="575.03" x2="101.05" y2="560.53"/><path class="cls-2" d="M118.46,572.61l-11.83-3.92s-2.33-.66-2.92.17"/><polyline class="cls-2" points="186.71 663.82 186.71 671.38 187.65 672.25 187.9 705.88 199.4 705.88 199.4 671.88 200.65 671.25 200.77 663.82"/><path class="cls-2" d="M186.9,664.75s7.63,4.38,13.63,0"/><path class="cls-2" d="M200.65,671.22l6.19.13s2.37-.13,2.37,1.94.13,41.5.13,41.5-.13,1.81-1.19,1.81l-7.37.06s-1.75-1.19-1.63-5.56a31.31,31.31,0,0,0,0-4.88"/><path class="cls-2" d="M186.71,671.38h-6.62s-2.13-.44-2.13,2.25-.12,41.31-.12,41.31,0,1.88,2.31,1.88h6.56a1.48,1.48,0,0,0,1.13-.88c.25-.75.06-10.06.06-10.06"/><path class="cls-2" d="M345.21,659.28s-3.33-13.09,7.34-19.34,22.75,2.92,25.33,8.09,9.28,19.57-4.25,27.33S346.3,666.78,345.21,659.28Z"/><path class="cls-2" d="M351.15,627.57s.5,2.43,5.88,2.62,6.37-.06,7.12-2.06"/><line class="cls-2" x1="351.15" y1="628.19" x2="351.15" y2="641.32"/><path class="cls-2" d="M364.55,628.22v5.54s-9.84.63-13.13,6.59"/><path class="cls-2" d="M364.75,631.94a13.2,13.2,0,0,1,9.75-.37c5.63,1.83,10.42,4.33,14.75,13.79a18.58,18.58,0,0,1-.87,17.25,30,30,0,0,1-10.09,9"/><path class="cls-2" d="M354.9,636.63s13.13-4.25,21.88,4.81,7.5,16.94,7.5,16.94,0,6.94-4.13,11.87"/><path class="cls-2" d="M364.9,632.94s9.63-1.31,16.44,5.88A25.28,25.28,0,0,1,388.4,654a19.17,19.17,0,0,1-6.57,14.88"/><line class="cls-2" x1="383.78" y1="662.75" x2="387.15" y2="660.75"/><path class="cls-2" d="M348.5,657.53s-1.35-13,10.28-14.71S375.84,654,375.84,654s5.32,14.77-7.13,18.57C355.4,676.63,348.61,661.73,348.5,657.53Z"/><path class="cls-2" d="M355.5,656.9a8.8,8.8,0,0,0,7,8.33c7.12,1.8,6.16-8.25,6.16-8.25s-1.62-5.79-7.37-6S355.5,656.9,355.5,656.9Z"/><path class="cls-2" d="M359.22,651.22s1.49-1.25,2.24-1.16,4.68-.87,7.46,3.54c3.63,5.75-2.08,11-2.08,11"/><polyline class="cls-2" points="351.5 647.21 352.65 647.65 357.9 651.21 358.78 650.69 355.59 645.82 353.55 644.73"/><path class="cls-2" d="M355.59,643.71l1.23.94,2.79,4.33s1.31.31,1.39-.62h0l-1-4-1-1.42"/><path class="cls-2" d="M360.78,642.59l.75,1.31,1,4.42s.87,1,1.48.25l.7-3.94-.29-1.33"/><path class="cls-2" d="M366.38,644l.08,1-.66,4.31s.66.89,1.25.73l2-3.19.35-1.08"/><path class="cls-2" d="M370.86,647.22l-.23,1-2,2.79s0,1.34,1.23,1.3l3.35-2.34"/><path class="cls-2" d="M374.48,652,371,653.84s-1,1.56.54,1.77l4.48-1.08"/><path class="cls-2" d="M376.48,657.46l-4.2-.23s-1.86.67-.32,1.73l5,2"/><path class="cls-2" d="M375.67,666.57,374.46,665l-3.6-3.06s-.77-1.69.71-1.42,5,2.82,5,2.82"/><path class="cls-2" d="M371.65,671.22l-.1-1.87a4,4,0,0,0-.63-1.79c-.54-.73-1.75-2.61-1.75-2.61s-.71-2.4,1.49-1.42l2.91,3.46.93,1.73"/><path class="cls-2" d="M366.42,672.92l.54-1.83a4.47,4.47,0,0,0-.1-2.42l-.73-2.58s.37-1.61,1.69-.61l1.39,2.69a4.84,4.84,0,0,1,.67,1.83l.12,1.8"/><path class="cls-2" d="M360.9,672.61l1-1.44a3.66,3.66,0,0,0,.62-2.08l.52-3.46"/><polyline class="cls-2" points="364.36 665.67 365.44 670.05 364.59 672.94"/><polyline class="cls-2" points="355.57 669.77 356.96 668.61 359.59 664.44"/><polyline class="cls-2" points="361.25 665.16 360.4 669.88 358.23 671.57"/><polyline class="cls-2" points="351.78 665.3 353.38 663.9 356.82 661.77"/><polyline class="cls-2" points="358.25 663.38 355.9 666.65 354.65 668.5"/><path class="cls-2" d="M350.73,663.36l1.27-.92a8.28,8.28,0,0,1,1.69-.89A15.29,15.29,0,0,0,356,660.3"/><polyline class="cls-2" points="355.57 658.63 352.71 658.86 349.4 659.88"/><polyline class="cls-2" points="348.71 657.61 351.78 656.9 355.19 656.8"/><polyline class="cls-2" points="355.57 655.42 350.9 653.96 348.8 653.86"/><polyline class="cls-2" points="349.13 651.69 351.34 651.96 355.94 653.61"/><polyline class="cls-2" points="356.59 652.46 352.84 649.48 350.53 648.94"/><path class="cls-2" d="M46.75,655.61s3.34-13.09-7.33-19.34-22.75,3-25.33,8.09-9.29,19.57,4.25,27.33S45.67,663.11,46.75,655.61Z"/><path class="cls-2" d="M40.82,623.9s-.5,2.44-5.88,2.62-6.37-.06-7.12-2.06"/><line class="cls-2" x1="40.82" y1="624.52" x2="40.82" y2="637.65"/><path class="cls-2" d="M27.42,624.52v5.54s9.83.63,13.13,6.59"/><path class="cls-2" d="M27.21,628.27a13.19,13.19,0,0,0-9.75-.37C11.84,629.73,7,632.22,2.71,641.69a18.6,18.6,0,0,0,.88,17.25,29.92,29.92,0,0,0,10.09,9"/><path class="cls-2" d="M37.07,633S24,628.71,15.19,637.77s-7.5,16.94-7.5,16.94,0,6.94,4.13,11.88"/><path class="cls-2" d="M27.07,629.27s-9.63-1.31-16.44,5.88a25.32,25.32,0,0,0-7.06,15.19,19.17,19.17,0,0,0,6.56,14.88"/><line class="cls-2" x1="8.19" y1="659.09" x2="4.82" y2="657.09"/><path class="cls-2" d="M43.46,653.86s1.36-13-10.27-14.71-17.06,11.19-17.06,11.19-5.32,14.76,7.12,18.56C36.57,673,43.36,658.06,43.46,653.86Z"/><path class="cls-2" d="M36.46,653.22a8.78,8.78,0,0,1-7,8.33c-7.12,1.8-6.17-8.25-6.17-8.25s1.63-5.79,7.38-6S36.46,653.22,36.46,653.22Z"/><path class="cls-2" d="M32.74,647.52s-1.49-1.25-2.24-1.16-4.67-.87-7.45,3.54c-3.63,5.75,2.08,11,2.08,11"/><polyline class="cls-2" points="40.46 643.54 39.32 643.98 34.07 647.54 33.19 647.02 36.38 642.15 38.42 641.07"/><path class="cls-2" d="M36.38,640l-1.23.94-2.79,4.33s-1.32.31-1.39-.62h0l1-4,1-1.42"/><path class="cls-2" d="M31.19,638.92l-.75,1.3-1,4.42s-.87,1-1.48.25L27.25,641l.29-1.33"/><path class="cls-2" d="M25.59,640.36l-.09,1,.67,4.31s-.67.89-1.25.73l-2-3.19-.35-1.08"/><path class="cls-2" d="M21.11,643.59l.23,1,2,2.8s0,1.33-1.23,1.29l-3.36-2.34"/><path class="cls-2" d="M17.48,648.29,21,650.22s1,1.56-.55,1.77L16,650.86"/><path class="cls-2" d="M15.48,653.79l4.21-.23s1.86.67.31,1.73l-5,2"/><path class="cls-2" d="M16.3,662.9l1.2-1.59,3.61-3.09s.77-1.69-.71-1.41-5,2.81-5,2.81"/><path class="cls-2" d="M20.32,667.54l.1-1.87a3.89,3.89,0,0,1,.63-1.79c.54-.73,1.75-2.61,1.75-2.61s.71-2.4-1.49-1.42l-2.91,3.46L17.46,665"/><path class="cls-2" d="M25.55,669.22l-.56-1.8A4.52,4.52,0,0,1,25.1,665l.73-2.58s-.38-1.61-1.69-.61l-1.4,2.69a4.9,4.9,0,0,0-.66,1.84L22,668.13"/><path class="cls-2" d="M31.07,668.94l-1-1.44a3.71,3.71,0,0,1-.63-2.08L29,662"/><polyline class="cls-2" points="27.61 662 26.53 666.38 27.38 669.27"/><polyline class="cls-2" points="36.4 666.11 35 664.94 32.38 660.77"/><polyline class="cls-2" points="30.71 661.49 31.57 666.21 33.73 667.9"/><polyline class="cls-2" points="40.19 661.63 38.59 660.23 35.15 658.11"/><polyline class="cls-2" points="33.71 659.71 36.07 662.98 37.32 664.84"/><path class="cls-2" d="M41.23,659.69,40,658.77a8.07,8.07,0,0,0-1.68-.89,14.66,14.66,0,0,1-2.3-1.25"/><polyline class="cls-2" points="36.4 654.96 39.25 655.19 42.57 656.21"/><polyline class="cls-2" points="43.25 653.94 40.19 653.23 36.77 653.13"/><polyline class="cls-2" points="36.4 651.75 41.07 650.29 43.17 650.19"/><polyline class="cls-2" points="42.84 648.02 40.63 648.29 36.02 649.94"/><polyline class="cls-2" points="35.38 648.79 39.13 645.82 41.44 645.27"/><polyline class="cls-2" points="209.46 685.5 210.34 685.5 210.34 701.94 209.59 701.94"/><polyline class="cls-2" points="177.52 685.87 176.65 685.87 176.65 702.3 177.4 702.3"/><path class="cls-2" d="M280,576.44s-.07,2.25,5.75,2.38,5.25-2.07,5.25-2.07"/><line class="cls-2" x1="279.9" y1="576.69" x2="279.9" y2="586.44"/><path class="cls-2" d="M291.46,576.82l.19,5.93a21.3,21.3,0,0,0-5.39,5.37"/><path class="cls-2" d="M279.78,580.22s-3.25,2.32-4.25,5.25"/><path class="cls-2" d="M291.65,577.5l15.88,5.88s4.75,2.25,5.87,10.5"/><path class="cls-2" d="M291.65,582.75s4.28-2.81,8.47-2.15"/><path class="cls-2" d="M295.59,589.91s2.69-4,7-3.72a9,9,0,0,1,8.12,7"/><line class="cls-2" x1="297.84" y1="587.97" x2="298.09" y2="590.41"/><polyline class="cls-2" points="299.87 586.86 299.34 588.22 299.49 590.75"/><polyline class="cls-2" points="302.24 586.44 301.31 587.66 300.37 590.91"/><polyline class="cls-2" points="304.09 586.66 302.87 588.07 301.96 591.19"/><polyline class="cls-2" points="302.63 591.42 304.19 588.96 306.09 587.46"/><polyline class="cls-2" points="307.69 588.48 305.57 589.9 304.25 591.73"/><polyline class="cls-2" points="305.56 592.32 307.42 590.86 309.32 590.41"/><polyline class="cls-2" points="307.87 592.71 308.71 592.21 310.2 592.11"/><path class="cls-2" d="M278.5,609s2.75,3.12,8.42,3"/><path class="cls-2" d="M282.21,609.52s.54,1.88,4.59,2.59a18.61,18.61,0,0,0,9.87,4.29c6.08.71,8.88-3,8.88-3"/><path class="cls-2" d="M288.55,610.73s1.66,3.27,7.87,5.76"/><path class="cls-2" d="M285.76,610.08a8.33,8.33,0,0,0,1,2"/><path class="cls-2" d="M106.25,586.05c.16-2.57-1.83-7-1.83-7l.25-4.5s.5,2.37,6.17,2.08,4.62-2.49,4.62-2.49l.42,6.49a9.46,9.46,0,0,1-.63,3.69"/><path class="cls-2" d="M104.34,576.28l-9.17.87s-4.08,1.29-3.79,11.5"/><path class="cls-2" d="M99.63,587.15s0-8.08-4.46-10"/><path class="cls-2" d="M115.88,575l1.58-.17s4,1,4.79,7.92"/><path class="cls-2" d="M104.42,579a9.94,9.94,0,0,0-2.83-2.34"/><path class="cls-2" d="M97.8,587.48s-.15-4.87-3.09-6.54-3,7.63-3,7.63"/><path class="cls-2" d="M92.8,582.5l2.12,1a3.65,3.65,0,0,1,1.23,1.88c.23,1.1.44,2.33.44,2.33"/><path class="cls-2" d="M92,585.94s2.19,0,3.15,1.11l.33.83"/><path class="cls-2" d="M95.34,609.4s1.08,2.21,2.62,2.5,6.79-.54,6.79-.54a10.27,10.27,0,0,0,1.88-3.33"/><path class="cls-2" d="M101,608.6a4.06,4.06,0,0,1-2.85,3.33"/><path class="cls-2" d="M111.8,607.28a4.42,4.42,0,0,0,3,3l5.92-.48s2.83-1.88,2.67-3.84"/><path class="cls-2" d="M117.63,606.53s-.42,3.08-2.75,3.83"/><path class="cls-2" d="M55.55,386.36S64,390,67,401.78s11.28,22.79,11.28,22.79"/><path class="cls-2" d="M81,427.88s7.25,9.81,12.94,8.69,6.74,7.56,6.74,7.56"/><path class="cls-2" d="M58,397.11s3.25,38.25,35.41,46.83"/><path class="cls-2" d="M94.13,436.69l-2.5,3.67,1.58,3.33s3.75,9.92-.83,14l1.5,2.84"/><path class="cls-2" d="M39,444.94a6.48,6.48,0,0,0,5,4c3.66.42,48.33,8.75,48.33,8.75"/><path class="cls-2" d="M38.38,404.11s-.17,5.58,0,9.58,1.33,19.25,1.33,19.25.42,12.67,9.84,14.5,44.25,7.78,44.25,7.78"/><path class="cls-2" d="M197.21,475.07s7.5-.25,11.88,9.5,10.79,12,10.79,12a11.43,11.43,0,0,0,10-1.8l5.08-17"/><line class="cls-2" x1="210.09" y1="487.5" x2="202.4" y2="488.94"/><path class="cls-2" d="M177.13,507.61,209,504.22s8.75-9.87-2.81-15.5"/><path class="cls-2" d="M180.43,524.42a8.4,8.4,0,0,0,3.16-4.6c.62-2.88,29.62-17,29.62-17s6.5-3.63,9.25-3.63,15.88-3.12,15.88-3.12l55.31-8.57"/><polyline class="cls-2" points="267.84 501.26 231.02 507.38 203.96 519.25 206.52 523.63 213.15 522.57"/><line class="cls-2" x1="231.4" y1="507.19" x2="238.53" y2="496.38"/><path class="cls-2" d="M214.65,526.22l13.15-4.72,11.79-4.28s9-2.43,11.5-2.68,3.69-.38,3.94.12"/><path class="cls-2" d="M228.09,521.75s16.19-.31,19.06-2.56"/><polyline class="cls-2" points="206.02 522.44 231.84 510.82 266.71 505.19"/><path class="cls-2" d="M295.3,477.78s17.66-2.67,30.08-3c0,0,4.08-.5,5.42,1.16,0,0,8.16,9.5,9,17.42,0,0,1.25,3.17-1.25,4.83s-21.84,0-36.34-8.83l-13.41,1.86"/><path class="cls-2" d="M331.63,477.44s-26.92,6.42-28.58,8.09-2.67,1.91-1.34,3.58"/><path class="cls-2" d="M125.8,501.22l18.16,20s1.5,2.16,6,1.41,13.17-3.75,16.25-7.33"/><path class="cls-2" d="M128.63,503.78s33.75-.59,38.33.91c0,0,2.17.17,2.17.92a26.17,26.17,0,0,1-.5,3.08"/><path class="cls-2" d="M295.8,310s52.91-1.14,73.91,2.44c0,0,8.84,5.5,13.5,5.59s15.5-.59,15.5-.59"/><line class="cls-2" x1="388.36" y1="311.95" x2="369.71" y2="312.44"/><path class="cls-2" d="M287,312.82l82.25,1.87a27.06,27.06,0,0,0,10.25,2.69"/><path class="cls-2" d="M59.65,385.32s7.56,2.06,10.38,8.37,7.43,19.53,7.43,19.53h3.25L83.15,417"/><path class="cls-2" d="M182.73,531.73s14.65,5.64,28.11,0"/><path class="cls-2" d="M182.73,531.78s16,5.74,28.18,0"/><path class="cls-2" d="M64.8,324.86l71.08,5.75a135.48,135.48,0,0,0,15.25.5c7.5-.25,30.5-1.08,30.5-1.08s4.9-.4,2.45-6.12"/><path class="cls-2" d="M75,318.07l68.53,5s8.81.33,14.89.25,22.08-1,22.08-1"/></g></g><path class="cls-2" d="M124.91,457.69s26.75,9.25,48.25,13.42a358,358,0,0,0,51.33,6.42c14,.75,50.75-.29,62.25-.92S403,460,410.11,458.24c5.05-1.12,4.63-5,4.63-5s5.88-2.12,8.25-4.87c2.88-1.87,3.5-23.25,3.5-23.25s.13-23.12-.87-30.37-9.75-12.37-9.75-12.37-15.71-5.33-23.37-6.25c-5.66-.68-47.4-.81-74.26.75-9.49.55-17.13,1.31-20.66,2.33-13.5,3.92-20.66,7.54-21.87,9.17s-2.59,6.63-2.59,6.63-32.75,2.5-39.62,2.88-33.58,3.58-33.58,3.58-21.8-8.1-36.67-8.58c-15.25-.5-38.15.5-38.15.5"/><path class="cls-2" d="M246.49,477.79s7.33-24.85,5.33-39.18-3.33-17.28-10.67-21.64-40.53-15.61-40.53-15.61"/><path class="cls-2" d="M99.44,397.11s-5.49.39-16.16,6.13"/><path class="cls-2" d="M273.11,395s33.13,2.75,39.25,3.38,83.13-3.37,93.75.75,11.88,4.13,15.13,11.13-1.53,36.52-5.27,42.51"/><path class="cls-2" d="M273.68,393.1s9.93-5,15.8-5.24,32.83.48,47.75.75c17.51.32,44.25-.75,56.75,3.25s17.39,5.63,18.49,9.73"/><path class="cls-2" d="M414.29,402.4s9.17-5.44,10.75-9.92"/><path class="cls-2" d="M125.61,397.11s41.88,4.25,54.88,7S230,420.78,244,418.82"/><path class="cls-2" d="M199.9,401.45s18.34,8.3,18.09,13.48"/><path class="cls-2" d="M206.24,403.45s71.46-5.69,79.09-7.44"/><path class="cls-2" d="M424.24,392.47s-8.17-9.69-25-12.52-37.49-2.44-43.08-2.75c-6-.33-27.25-.84-27.25-.84"/><path class="cls-2" d="M39.84,290.32s3.43-93.21,1-104.21-7.61-56.5-2.5-69.5S69,85.78,74,81.45s10.67-19,10.33-28S89.11,10.11,95,6.45,112.32.45,121,1.11s44.88,5.63,44.88,5.63,19.13,2.13,23.5,17,17.88,57.75,28.13,64.75,37,19.5,37,19.5,18.88,12.25,23.38,22c5.75,10.88.75,27.25.75,27.25l-14.75,27.5s-6.87,22.63-3,34.25,24,49.88,29.38,59.13S307,309.86,307,309.86"/><path class="cls-2" d="M311.36,332.88s-8.53,35.42-25.2,50.08"/><path class="cls-1" d="M78.24,318.31S57.77,191.78,55.55,183.78s-18.11-63-17.17-67.17"/><path class="cls-2" d="M80.25,337.59s1.74,48-1,57.4"/><path class="cls-2" d="M69.39,85.11l3.77,2.51S61.82,96.28,60,100.28s-3.9,9.17-1.7,21.67S82,216.78,82.15,221.11c-3.17,6.33-15.07,29.07-15.07,29.07"/><path class="cls-2" d="M100.32,317.38s-10.67-35.6-11.83-46.94c-7.7,10.33.17,35.92,2.67,47.63"/><line class="cls-2" x1="82.15" y1="221.86" x2="88.61" y2="271.44"/><path class="cls-2" d="M73.15,87.61s11.62,15,12.23,19.17"/><path class="cls-2" d="M107.19,97.74,91,102.36s-6.12,2.25-6.87,7.88.79,15.42,9.67,17.67"/><path class="cls-2" d="M107.27,102.68,91.36,108a6.46,6.46,0,0,0-3.56,6.65c.44,5,2.75,8,5.06,8.28s14.4-4.62,14.4-4.62"/><line class="cls-2" x1="101.74" y1="127.3" x2="107.81" y2="124.5"/><line class="cls-2" x1="234.86" y1="99.24" x2="216.11" y2="118.86"/><path class="cls-2" d="M203.2,109.62s12.45,2.85,12.91,10.5c.38,6.19-.69,8.81-4,12"/><path class="cls-2" d="M203.55,114.19s7.62,1.3,8.19,5.24-.5,7.44-1.37,8"/><path class="cls-2" d="M86.82,120.86s-7.61,11.92-7.55,23.42,9.89,48.83,10.55,54.5.33,58.33,1.83,70.5,10.39,48,10.39,48"/><path class="cls-2" d="M215.42,127.43s17.48,12.69,19.44,16.35,8.46,9.67,5,17.67-21.67,44.83-21.67,44.83"/><line class="cls-2" x1="87.35" y1="187.11" x2="110.1" y2="177.78"/><path class="cls-2" d="M116.2,175.28s25.79-8.17,42.29-6.67,48.83,15.25,48.83,15.25"/><line class="cls-2" x1="215.42" y1="186.95" x2="225.82" y2="190.66"/><polyline class="cls-2" points="92.86 122.93 132.74 253.36 139.74 253.36 99.65 121.19"/><path class="cls-2" d="M268.62,118.86s8.37,11.75,5.87,22.75-11.25,28.91-19,40.83-11.75,31-10.5,35.3c3.27,4.48,29.23,30.19,29.23,30.19"/><path class="cls-2" d="M220.36,235.47s10.17,4.52,15,20.27"/><path class="cls-2" d="M245.5,218.4s12.36,37.72,19.23,45,22.63,41.19,23.88,47.95"/><path class="cls-2" d="M265.61,372.11s21.38-29,24.63-49.29"/><path class="cls-2" d="M264,391.11s33.13-27.62,35.76-66.23"/><path class="cls-2" d="M264.74,263.36s18,4.88,32.5,46.61"/><path class="cls-2" d="M106,317.15l-5.67-43.54s-1.83-18.83,8-18.67c5.83-1.58,9.67-1.33,15-1.58s114.29,2.88,114.29,2.88,9.38-1.19,10.75,1.38c0,0,9.88,31,12,39.13s6.75,48.13,6,58.5-1.51,37-3.94,40.56"/><path class="cls-2" d="M112.76,254s-.1,9.1,1.23,13.77,10,48.95,10,48.95"/><line class="cls-2" x1="129.15" y1="393.21" x2="128.21" y2="350.43"/><line class="cls-2" x1="151.16" y1="338.13" x2="160.48" y2="392.79"/><path class="cls-2" d="M123.32,253.36a60.27,60.27,0,0,1,7.33,10c2.67,4.92,9.83,17.34,12,26s5.5,29,5.5,29"/><path class="cls-2" d="M234,256.14s-2.51,13-2.76,17,2.5,27,4.13,36.75,3.88,30.21,2.88,37.61-9,35.13-17.88,51.64"/><line class="cls-2" x1="135.74" y1="240.08" x2="136.12" y2="240.08"/><polyline class="cls-3" points="90.66 202.36 96.07 202.36 100.19 194.11 108.74 194.11 112.75 202.7 117.25 202.7"/><polyline class="cls-3" points="123.5 199.83 126.35 194.11 134.91 194.11 138.92 202.7 148.74 202.7"/><polyline class="cls-3" points="148.66 202.7 148.74 202.7 152.52 194.11 161.07 194.11 165.09 202.7 172.61 202.7 173.74 202.7"/><polyline class="cls-3" points="207.74 194.45 202.29 194.45 199.41 202.7 199.41 202.7 190.09 202.7 186.07 194.11 177.52 194.11 173.74 202.7 173.66 202.7"/><polyline class="cls-3" points="135.71 190.66 125.89 190.66 121.87 182.07 118.23 182.07"/><polyline class="cls-3" points="135.63 190.66 135.71 190.66 139.49 182.07 148.04 182.07 152.06 190.66 159.58 190.66 160.71 190.66"/><polyline class="cls-3" points="160.63 190.66 160.71 190.66 164.49 182.07 173.04 182.07 177.06 190.66 186.37 190.66 186.37 190.66 189.26 182.41 189.8 182.41 198.56 182.55 202.46 190.88 207.91 190.88 207.91 190.88"/><line class="cls-3" x1="135.71" y1="215.06" x2="128.12" y2="215.06"/><polyline class="cls-3" points="135.63 215.06 135.71 215.06 139.49 206.48 148.04 206.48 152.06 215.06 159.58 215.06 160.71 215.06"/><polyline class="cls-3" points="108.99 215.06 99.18 215.06 95.16 206.48 90.66 206.48"/><polyline class="cls-3" points="108.92 215.06 108.99 215.06 112.77 206.48 118.23 206.48"/><polyline class="cls-3" points="160.63 215.06 160.71 215.06 164.49 206.48 173.04 206.48 177.06 215.06 186.37 215.06 186.37 215.06 189.26 206.81 189.8 206.81 198.56 206.95 202.46 215.29 210.22 215.29 207.91 215.29"/><polyline class="cls-3" points="136.12 240.08 139.99 231.5 150.14 231.5 154.16 240.08 161.68 240.08 162.81 240.08"/><polyline class="cls-3" points="111.09 240.08 101.28 240.08 97.26 231.5 90.8 231.5"/><polyline class="cls-3" points="111.01 240.08 111.09 240.08 114.87 231.5 125.36 231.5"/><polyline class="cls-3" points="162.73 240.08 162.81 240.08 166.59 231.5 175.14 231.5 179.16 240.08 188.47 240.08 188.47 240.08 191.36 231.83 191.9 231.83 200.66 231.97 204.56 240.31 212.32 240.31 210.01 240.31"/><polyline class="cls-3" points="90.66 227.32 96.07 227.32 100.19 219.07 108.74 219.07 112.75 227.65 124.97 227.65"/><polyline class="cls-3" points="129.34 219.07 134.91 219.07 138.92 227.65 148.74 227.65"/><polyline class="cls-3" points="148.66 227.65 148.74 227.65 152.52 219.07 161.07 219.07 165.09 227.65 172.61 227.65 173.74 227.65"/><polyline class="cls-3" points="211.11 219.4 202.29 219.4 199.41 227.65 199.41 227.65 190.09 227.65 186.07 219.07 177.52 219.07 173.74 227.65 173.66 227.65"/><polyline class="cls-3" points="90.8 253.01 98.78 253.01 102.89 244.76 111.45 244.76 115.46 253.34 127.67 253.34"/><polyline class="cls-3" points="137.55 244.76 137.61 244.76 141.63 253.34 151.45 253.34"/><polyline class="cls-3" points="151.37 253.34 151.45 253.34 155.23 244.76 163.78 244.76 167.8 253.34 175.32 253.34 176.45 253.34"/><polyline class="cls-3" points="213.04 245.09 205 245.09 202.11 253.34 202.11 253.34 192.8 253.34 188.78 244.76 180.23 244.76 176.45 253.34 176.37 253.34"/><polyline class="cls-3" points="124.97 253.34 129.02 244.38 130.41 244.38"/><polyline class="cls-3" points="117.25 176.15 121.41 176.15 122.1 173.59"/><polyline class="cls-3" points="135.11 170.57 138.41 176.7 147.91 176.7 151.66 168.72"/><polyline class="cls-3" points="160.74 168.88 163.99 177.2 173.66 177.81 176.06 172.49"/><polyline class="cls-3" points="96.89 183.2 99.82 189.53 109.24 189.53 111.64 184.37"/><polyline class="cls-3" points="188.8 176.7 189.86 178.49 194.71 178.53"/><polyline class="cls-3" points="90.8 256.61 97.74 256.61 101.68 260.19"/><line class="cls-2" x1="92.86" y1="277.55" x2="100.83" y2="277.55"/><line class="cls-2" x1="93.43" y1="280.8" x2="101.4" y2="280.8"/></g></g></svg>