<?xml version="1.0" encoding="utf-8"?>
<!-- Generator: Adobe Illustrator 23.0.1, SVG Export Plug-In . SVG Version: 6.00 Build 0)  -->
<svg version="1.1" id="Camada_1" xmlns="http://www.w3.org/2000/svg" xmlns:xlink="http://www.w3.org/1999/xlink" x="0px" y="0px"
	 viewBox="0 0 600 600" style="enable-background:new 0 0 600 600;" xml:space="preserve">
<style type="text/css">
	.st0{fill:#FFFFFF;stroke:#030304;stroke-width:0.8328;stroke-miterlimit:10;}
	.st1{fill:none;stroke:#030304;stroke-width:0.8328;stroke-miterlimit:10;}
	.st2{fill:none;stroke:#030304;stroke-width:0.4164;stroke-miterlimit:10;}
	.st3{fill:none;stroke:#020203;stroke-miterlimit:10;}
	.st4{fill:#FFFFFF;stroke:#020203;stroke-miterlimit:10;}
	.st5{fill:none;stroke:#020203;stroke-width:0.75;stroke-miterlimit:10;}
	.st6{fill:none;stroke:#020203;stroke-width:0.5;stroke-miterlimit:10;}
	.st7{fill:none;stroke:#020203;stroke-width:0.25;stroke-miterlimit:10;}
	.st8{fill:#FFFFFF;stroke:#020203;stroke-width:0.75;stroke-miterlimit:10;}
	.st9{fill:#FFFFFF;}
	.st10{fill:none;stroke:#E52522;stroke-width:1.5;stroke-miterlimit:10;}
	.st11{fill:#E52522;}
	.st12{fill:#FFFFFF;stroke:#020203;stroke-width:0.5;stroke-miterlimit:10;}
	.st13{fill:#E7E6E6;}
	.st14{fill:#FFFFFF;stroke:#020203;stroke-linejoin:round;}
	.st15{fill:none;stroke:#020203;stroke-linejoin:round;}
	.st16{fill:none;stroke:#E52624;stroke-width:1.5;stroke-miterlimit:10;}
	.st17{fill:#E52624;}
	.st18{clip-path:url(#SVGID_2_);}
	.st19{fill:none;stroke:#020203;stroke-width:0.5461;stroke-miterlimit:10;}
	.st20{fill:none;stroke:#E52624;stroke-width:1.5296;stroke-miterlimit:10;}
	.st21{fill:none;stroke:#E52624;stroke-width:1.8398;stroke-miterlimit:10;}
	.st22{fill:none;stroke:#E52624;stroke-width:1.4398;stroke-miterlimit:10;}
	.st23{fill:none;stroke:#E52624;stroke-width:1.5364;stroke-miterlimit:10;}
	.st24{fill:none;stroke:#E52624;stroke-width:1.4292;stroke-miterlimit:10;}
	.st25{fill:none;stroke:#E52624;stroke-width:1.5549;stroke-miterlimit:10;}
	.st26{clip-path:url(#SVGID_4_);}
	.st27{fill:#E52622;}
	.st28{font-family:'Roboto-Medium';}
	.st29{font-size:12.4132px;}
</style>
<g>
	<path class="st4" d="M191.2,346.5c0,0-38.4-96.6-40.5-123.3s-0.3-81.4,0-91.6c0.3-10.2-0.2-36-1-44c-0.8-8-3.1-37.9-3.1-37.9
		s-5.2-33-2.7-36.9c2.5-3.9,11.5-6.1,11.5-6.1s2.4-0.7,5.1,2.7s11.7,22,12.6,24.1s9.9,34,9.9,34s1.5-0.9,2-0.5
		c0.5,0.4,14.4,12.6,16.8,14.7c2.4,2.1,9.5,9.9,10.3,11.2c0.8,1.3,6.8,8.6,2,26.4c2.8,4.1,5.4,9.4,5,14.5c-0.4,5-0.6,8.9-2.6,14.4
		c-2,5.5-6.8,29.4-7.7,34.4c-0.3,2.1,0,3.9,0,3.9s4.4,14.9,6.3,18.4c1.9,3.5,9.5,17.4,12.4,19.9c1.9,0.7,2.8,0.7,4.1,2.6
		c1.3,1.9,11.1,16.4,12.2,17.9s17.5,21,19.4,29.7s0,18.7,0,18.7s2.4,13.9-3.7,23.7c0.2,2.9,0.3,5.8,0.3,5.8s32-5,34.8-5.3
		c2.8-0.3,51-5.7,62.6-5.2c11.6,0.5,32.7,3.5,45,12c12.7,5.3,28.1,11.7,32.6,21.7s2.5,22,1.6,27c-0.9,5-3.8,12.7-5.5,14.3
		c-1.8,1.6-11.3,5.5-30.2,5.2s-118.8,2.8-127.7,1.7C264,393.6,206.5,399.1,191.2,346.5z"/>
	<g id="mecanismo_3_">
		<polygon class="st8" points="268.7,448.6 268.7,445.9 279.7,445.3 279.7,449.4 279.7,453.5 269.2,452.1 		"/>
		<path class="st4" d="M357.8,394l-4.7,8c0,0,0.4,7.8-1,9.8c-1.3,0.9-17,9.8-17,9.8l-0.5,2.4l0.6,1.6c0.2,0.7,0,1.5-0.6,1.9
			c-1,0.7-8.1,4.4-8.1,4.4s4.9,5.3,5.5,7.3c0,0.6-0.2,1.3-0.5,1.9l-0.4,0.6c-0.6,0.2-1.1,0.2-1.7,0c-0.8-0.3-3-1.1-3-1.1l0.7,16.2
			c0,0,0.2,0.4-1.1,1.5l-2.4,1.8c0,0-4.4,2.7-14,1.5c-1.6-0.6-3.1-1.4-4.6-2.2l-2.5-19l-1.6,0.2c-0.6,0.3-1.3,0-1.6-0.7
			c0,0,0,0,0-0.1c-0.6-1.2-0.8-1.7-0.8-1.7l-1.6,0.5c0,0-1.2,0.5-3.5-0.2c-0.3-0.5-0.6-1.1-0.9-1.6L287,439l-1.4,4
			c-0.4,0.8-1.1,1.5-1.9,1.9c-1.2,0.4-3.9,1-3.9,1s-9.7,0.9-13.6,0c-1.2-0.3-2.4-0.5-3.1-1.9c-0.6-1.4-3.6-10.2-3.9-11.7
			s-0.9-2.8,0.7-3.8s13.9-12.1,38.3-22.2c5.1-5.1,1.6-6.9,1.6-6.9l-10.5-0.7c0,0-1.8-0.1-2.4,1.2c-0.5,1.3-1.9,2.9-3.7,2.9
			s-4.1-0.2-4.7-2.2c-0.7-2-0.9-2.9-2-3.3"/>
		<path class="st6" d="M353.1,402l-5,8.4c0,0-2.6,3.8-7.1,3.9c-4.5,0.1-9.1-0.8-12.3-3.2c-3.1-2.4-5.2-7-5.2-7l-1.9-6.4"/>
		<path class="st6" d="M258.8,430.9c0,0,1.6,1.1,14.6-4.1s28.7-11.3,28.7-11.3s7.5-3,8.6-10.9c1.1-7.9,0.8-7,0.8-7"/>
		<path class="st6" d="M264.1,445.3c5.1,0.1,9.8-2.4,12.4-6.8c3.1-1.4,62.8-26.1,73.2-25.3"/>
		<line class="st6" x1="292.5" y1="436.7" x2="335" y2="421.6"/>
		<line class="st6" x1="298.5" y1="438.1" x2="334.8" y2="424.6"/>
		<line class="st6" x1="302.5" y1="440.3" x2="326.7" y2="432.2"/>
		<path class="st12" d="M326.4,431.9c0,0-6.6-5.6-7.6-6.7c0.5-0.9,3.4-6.9,3.4-6.9c0.4-2.1-0.1-4.3-1.4-6.1
			c-2.3-2.6-7.4-2.3-9.3-0.3c0,0-2.7,4.8-4.4,18.2c0.1,1.5,1.2,4.9,5,4.8c3.1,1.2,14.4,5.6,14.4,5.6"/>
		<path class="st6" d="M307.1,429.6c0,0,1.7-5.7,6.4-3.7c1.3,0.6,2.2,1.8,2.4,3.2c0,1.1,0.4,4.6-3.9,5.9"/>
		<path class="st6" d="M315.4,427.5c0,0,1.8-2.3,3.5-2.4"/>
		<path class="st6" d="M315.6,427.8c0,0,1.3,0.6,7.5,4.6c0.8,0.5,3.1,2.4,3.8,3.1c3,2.5,4,3.6,4.9,3.5"/>
		<path class="st6" d="M305,459.3c0,0,12.3,3.3,22-2.2"/>
		<polyline class="st7" points="306.5,459.6 303.9,440.2 303.1,440.1 305.7,459.4 		"/>
		<polyline class="st7" points="307.1,459.6 304.5,440.3 305.2,440.3 307.9,459.9 		"/>
		<polyline class="st7" points="309.1,460 306.8,440.3 307.7,440.3 310.1,460.1 		"/>
		<polyline class="st7" points="311.4,460.2 309.4,440.3 310.7,440.3 312.9,460.3 		"/>
		<polyline class="st7" points="314.3,460.3 312.2,440.1 313.6,440.1 315.7,460.2 		"/>
		<polyline class="st7" points="317.1,460.1 315.3,440.1 316.6,440 318.6,459.9 		"/>
		<polyline class="st7" points="319.9,459.7 318.3,439.7 319.6,439.5 321.4,459.3 		"/>
		<polyline class="st7" points="322.5,459 321,439.5 322.1,439.3 323.5,458.7 		"/>
		<polyline class="st7" points="324.4,458.4 323,439.2 324.1,439.5 325.5,457.9 		"/>
		<polyline class="st7" points="326.2,457.5 325.1,440 325.8,440.3 327,457 		"/>
		<circle class="st6" cx="338.8" cy="406.3" r="5.3"/>
		<circle class="st7" cx="338.8" cy="406.3" r="4.7"/>
		<circle class="st6" cx="282.5" cy="398.4" r="2"/>
	</g>
	<g id="Camada_12_3_">
		<path class="st4" d="M274.8,279.5v-3.1c-0.1-1,0.3-1.9,1.2-2.4l4.7-2.8c0,0,1.2-1.3,4.9-1.4c3.7-0.1,49.4-3.5,78.9-0.7
			c1.6,0.6,6.6,3.6,6.6,3.6c0.7,0.4,1.1,1.1,1,1.9v2.6c0,0,0,1.1-2,1.2c-2,0.1-34.5,1-34.5,1l-58.5,0.9
			C277.1,280.4,275.5,280.4,274.8,279.5z"/>
		<path class="st6" d="M278.2,272.7c0,0,80-1.6,88.2-1.4"/>
		<path class="st6" d="M281.7,270.6c0,0,50.2-3.2,81.7-0.8c0.6,0.2,1.3,0.5,1.8,0.8c1.3,0.7,5.5,3.3,5.5,3.3s0.4,0.3,1.1-0.4"/>
		<ellipse class="st6" cx="360" cy="275.5" rx="2.8" ry="1.7"/>
		<ellipse class="st7" cx="360" cy="275.5" rx="2.3" ry="1.4"/>
	</g>
	<g id="Camada_10_3_">
		<path class="st4" d="M188.1,361.2l3.5,27.6c0,0,0.1,8.5,9.2,8.5s68.2,0,68.2,0c2.9-1.2,5.2-3.5,6.4-6.4c1.3-2.8,1.7-6,1.2-9
			c0,0-0.8-4.3-4.1-6.5c-3.3-2.2-8.7-3.1-8.7-3.1l-7.5-0.1c-6.6-0.7-12.6-3.9-16.9-9c-3.9-4.4-7.4-9.1-10.5-14c0,0-3.7-7.5-11.7-9.3
			l-1.2-2.2l1.4-0.9l-22.8-73.5c-0.5-0.9-1.4-1.6-2.5-1.8c-1.8-0.6-3.5-1.2-5.2-2c0,0-7-3.6-12.3,4.6c-0.9,1.6-2,3-3.3,4.4
			c-0.3,0.6-0.3,1.4,0,2l21.6,73.8l0.8-0.2l-0.5,3.6C193.2,347.6,187.6,354.1,188.1,361.2z"/>
		<path class="st6" d="M193.2,347.6l1.3,5.1c0,0-3.9,2.2-3.2,9.3s3.2,26.9,3.2,26.9c0.6,2.9,3.2,5,6.2,5c5.3,0,66.1,0.8,66.1,0.8
			s4-1.4,4.2-5.3c0.2-2.2-0.3-4.5-1.4-6.4c0,0-1.4-1.8-2.6-1.9c-1.3-0.1-13.7,0.3-27.8-9.9c-2.6-2.2-8.4-5.2-14.2-16.6
			c-1.3-2.4-1.6-3.4-4.4-5.9c-1.4-1.4-3.1-2.4-5-3.1l-0.8-2.8l-1.7-2.9c0,0-0.2-1.4,0.5-1.6s2.4-0.6,2.4-0.6"/>
		<path class="st6" d="M192.5,354.9l3.1,26c0,0,2.4,11.1,12.6,11.3s60.9,1,60.9,1"/>
		<path class="st6" d="M194.5,352.7l4.5,14.6c0,0,3.5,8.8,13.9,6.1c10.4-2.8,7-14.1,7-14.1l-4.2-13.7"/>
		<line class="st6" x1="193.3" y1="346.5" x2="213.2" y2="339.9"/>
		<path class="st6" d="M193.7,344l0.6-10.2c0,0-0.4-7.3-1.7-11.1c-1.4-3.9-20.5-55.1-20.5-55.1"/>
		<path class="st6" d="M191,261.1l12.3,54.7c0,0,2.4,13.2,10.9,22.3"/>
		<path class="st6" d="M193.7,346.4l0.5,2.8l5.4,17.6c0,0,3.2,8.2,12.6,6.1s7-13,7-13l-5.3-16.6l-1.9-2.9l-5.4-11.5L191,262.9
			l-3.4-1.8c0,0-7.6-2.6-12,2.8c-0.8,1-3.5,3.9-3.5,3.9"/>
		<line class="st6" x1="206.6" y1="328.8" x2="194.1" y2="332.5"/>
		<path class="st6" d="M193.4,346.1c0,0,1.9-8.4,1.5-13.8c-0.2-3.1-0.7-6.2-1.5-9.2l-10-24.9"/>
		<circle class="st6" cx="208.8" cy="362.1" r="6.7"/>
		<circle class="st7" cx="208.8" cy="362" r="6"/>
		<polyline class="st7" points="194.7,278.5 203.8,329.6 204.6,342.8 206.6,353.3 203.8,343 202.3,329.9 185.8,260.7 		"/>
		<polyline class="st7" points="176,263.5 199.3,330.6 202.3,343.5 205.8,353.6 201.5,343.8 198.1,331.3 178.2,284.3 		"/>
		<path class="st7" d="M220.4,348.4c0,0,2,11.6,14.4,22.4c6.8,5,11.8,9,22.6,11.8c4.2,0.7,8.4,1.1,12.6,1.1"/>
		<path class="st7" d="M212.6,379.4l9.5-9.2c1-0.7,2.1-1.3,3.3-1.6c0.3,0,0.5,0.2,0.6,0.4c0,0,0,0,0,0.1c-0.2,1.2-0.8,2.3-1.7,3.1
			c-1.4,1.3-9.4,9-9.4,9c-0.7,0.4-1.5,0.8-2.3,1.2c-0.6,0.2-0.6-0.5-0.6-0.5C212,381,212.2,380.2,212.6,379.4z"/>
		<path class="st7" d="M218.7,382.9l7.6-8.4c0.8-0.7,1.7-1.2,2.7-1.6c0.2,0,0.5,0.1,0.5,0.3c0,0,0,0,0,0c-0.1,1-0.6,2-1.3,2.7
			c-1.2,1.2-7.6,8.2-7.6,8.2c-0.6,0.4-1.2,0.8-1.9,1.1c-0.5,0.2-0.5-0.4-0.5-0.4C218.3,384.2,218.4,383.5,218.7,382.9z"/>
		<path class="st7" d="M225,386.2l6.5-8.5c0.7-0.7,1.5-1.3,2.4-1.7c0.2-0.1,0.5,0.1,0.5,0.3c0,0,0,0,0,0c0,1-0.4,1.9-1,2.7
			c-1,1.2-6.4,8.4-6.4,8.4c-0.5,0.4-1.1,0.8-1.7,1.2c-0.5,0.2-0.6-0.3-0.6-0.3C224.7,387.6,224.8,386.9,225,386.2z"/>
		<path class="st7" d="M232.6,388l4.9-8.1c0.6-0.7,1.2-1.3,2-1.7c0.2-0.1,0.4,0,0.5,0.2c0,0,0,0,0,0c0.1,0.9-0.1,1.7-0.6,2.4
			c-0.8,1.1-4.9,8-4.9,8c-0.4,0.4-0.9,0.8-1.4,1.2c-0.4,0.2-0.5-0.2-0.5-0.2C232.5,389.2,232.5,388.6,232.6,388z"/>
		<path class="st7" d="M239.9,388.6l3.7-7.1c0.4-0.6,1-1.1,1.6-1.6c0.2-0.1,0.3,0,0.4,0.1c0,0,0,0,0,0c0.1,0.7,0,1.5-0.4,2.1
			c-0.6,1-3.7,7-3.7,7c-0.3,0.4-0.7,0.8-1.1,1.1c-0.3,0.2-0.5-0.2-0.5-0.2C239.8,389.7,239.8,389.2,239.9,388.6z"/>
		<path class="st7" d="M247.1,389.7l2.1-6.3c0.3-0.6,0.6-1.1,1.1-1.5c0.1-0.1,0.3-0.1,0.4,0.1c0,0,0,0,0,0c0.2,0.6,0.2,1.2,0,1.8
			c-0.4,0.9-2.1,6.2-2.1,6.2c-0.2,0.4-0.5,0.7-0.7,1c-0.2,0.2-0.4-0.1-0.4-0.1C247.2,390.6,247.1,390.1,247.1,389.7z"/>
		<path class="st7" d="M253.2,384.1v6.5l15-1.6c0,0,1-0.5,0.4-1C268,387.7,253.2,384.1,253.2,384.1z"/>
		<path class="st4" d="M239.4,363.2l4-2c1.2-0.4,2.4-0.5,3.6-0.3c2.2,0.4,3.2,0.7,3.2,0.7s1,0.4,0.5,1.2c-0.2,0.3-0.4,0.6-0.6,0.9
			l8.1,0.4c0.1-0.7,0.7-1.2,1.4-1.2c1.5,0.1,26.6,0.7,26.6,0.7c0.8,0.3,1.4,0.9,1.6,1.6c0.6,1.4,3,8.9,3,8.9s0.7,2.1-0.7,2.7
			c-1.4,0.6-1.8,0-1.8,0l-0.7-0.7c0,0-0.4-0.5-1.9,0.3c-1.5,0.8-1.8,0.7-1.8,0.7s-0.9,0.4-2.3-0.7l-1.4-1.1
			c-0.4-0.5-1.1-0.7-1.8-0.6c-1.2,0.2-4.3,0.5-4.3,0.5s-6.3,1.2-8.8-1.4c-0.9-0.5-1.8-0.6-2.8-0.4c-1.2,0.2-4.7,0.9-4.7,0.9v-2.4
			l-8.9,0.1v-1.2C245.6,368.4,242.4,365.9,239.4,363.2z"/>
		<line class="st5" x1="248.9" y1="370.6" x2="250.1" y2="363.7"/>
		<line class="st5" x1="245.9" y1="360.8" x2="245.6" y2="368.8"/>
		<line class="st6" x1="258.4" y1="364.1" x2="257.8" y2="371.9"/>
		<polyline class="st6" points="258.6,363.2 260.8,365.8 285.3,366.5 287.1,364.1 		"/>
		<polyline class="st6" points="258.1,374.1 260.6,371.4 260.8,365.8 		"/>
		<path class="st6" d="M285.3,366.5l2.8,7c0,0-2.6,0.2-3.1,0.6c-0.3,0.2-0.5,0.4-0.8,0.5c-0.4,0.1-0.8,0.1-1.2-0.2
			c-0.6-0.4-2.8-2.4-4.9-2c-2.2,0.4-5.6,0.9-5.6,0.9s-3.1,0.5-5.3-0.9c-1.7-1.1-6.7-1-6.7-1"/>
	</g>
	<polygon class="st9" points="394,522.1 394,528.1 404.3,527.5 404,522.3 	"/>
	<path class="st9" d="M344.1,512.5c0,0,3.1,1.8,3.3,2c0.1,0.2,7.6,1.2,7.6,1.2s14.6-6.9,9.6-18.8c-0.8-1.8-1.2-4.8-2.9-5.7
		c-5.4-2.9-14.2-5.7-14.2-5.7s-5.1-2.2-8.4-1c-0.4,0.1,0.3,3.1-0.1,3.2c-1.6,0.7-2.8,2.1-3.2,3.7c-1.6,4.1-2.4,7.8,2.4,18.8
		C338.7,511.7,342,511.7,344.1,512.5z"/>
	<path class="st9" d="M196.3,510.4l1,1.4c0,0,1.2,0.4,1.7,0.5c0.4,0.1,4.3-0.4,4.3-0.4l0.4-0.1l1.7-3.5l3.6-0.8l0.2,1.8l0.8,1.1
		l1.3,0.7l4.4-0.5l1.6-1.2l0.9-1.7l-1.3-18.7l-0.7-3.1l-2.4-2.2l-1.9-0.1l-0.7-1.1l-6.7-0.6c-0.4,0-0.8,0.1-1.1,0.3l0.3,2.6
		l-7.8,0.7l-1.8,2.7l-0.7,2.8v4.3L196.3,510.4z"/>
	<path class="st9" d="M127.2,550.7l5.3,4.5l5.2,4c0,0,4.8,1.3,8.1,0.5c2.1-0.6,4-1.6,5.7-3l4.7-5.4l2.4-4.7l0.5-4.1l-0.8-4.9
		l-1.3-2.7l-2-2.3l-0.9-1.6v-11.1H144l-0.2,4.7l-1.8-0.2l-3.3-0.2l-4.1,1.1l-5,3.1l-3.3,3.9c0,0-2.7,4.9-3.1,8.8s2.8,8.4,2.8,8.4
		L127.2,550.7z"/>
	<path class="st3" d="M133.2,555.6c-3.1-1.7-5.8-4.1-7.8-7c-2.4-4.1-2.7-9.1-0.7-13.3c3.4-7.3,7.1-9.2,11.4-10.7
		c2.5-0.9,5.2-0.8,7.5,0.3"/>
	<path class="st4" d="M267.8,584.9c0,0,0.1,7.2,0,7.8c-0.2,0.4-0.5,0.6-0.9,0.7h-5.1c-1.8,0-1.8-1.5-1.8-1.5s0.1-29.8,0.1-31.9
		c0-2.1,1.6-1.7,1.6-1.7h5.1l10.8-0.1l4.8,0.1c0,0,1.8-0.1,1.8,1.5s0.1,32,0.1,32s-0.1,1.4-0.9,1.4l-5.7,0c0,0-1.4-0.9-1.3-4.3
		c0.1-1.3,0.1-2.5,0-3.8"/>
	<polyline class="st4" points="266.9,552.3 266.9,558.2 267.6,558.9 267.8,584.9 276.7,584.9 276.7,558.6 277.7,558.1 277.8,552.3 	
		"/>
	<path class="st4" d="M404.5,527.7c2.4-1.1,5.1-1.2,7.5-0.3c4.3,1.4,8.1,3.4,11.4,10.7c2,4.3,1.7,9.3-0.7,13.3c-2,2.9-4.7,5.3-7.8,7
		"/>
	<path class="st4" d="M417.7,556.3c3.3-2.9,5.2-7.1,5.1-11.5c-0.4-4.4-2.4-8.6-5.5-11.7c-5.3-5.6-12.7-4.5-12.7-4.5l-6,0.6l-2.2,1.3
		c0,0,1,0.4,1.1,0.4"/>
	<path class="st4" d="M416.4,557.3c3.2-3.8,3.2-9.2,3.2-9.2s1-6.1-5.8-13.1c-6.8-7-16.9-3.7-16.9-3.7l-2.4,2.7"/>
	<path class="st4" d="M288.4,476.8l37-5.2c0.5-0.7,1.2-1.2,1.9-1.4c1.1-0.2,14.3-1.9,14.3-1.9h4.7c0.8,0.3,1.5,0.9,1.9,1.7l1,1.7
		l1.2,2.4l0.6,9.9c0,0-3.1,1.4-9.8,0.9c0,0-4.1-0.4-4.8-1.6l-17.8,5l52.5,11.5l1.1-0.7l31.9,7.1l0.3,1.1c0.9,0.1,1.7,0.7,2.1,1.6
		l0.9,14.6l-5.9,1.8l-7.7-1.2c0,0-2.2-0.5-3-2.2v-3.6l-90-14.1c0,0-15-1.4-17.1,3.7l-2.8,43.7l-8.2,1.6l-9.4-1.7l0.6-43.8
		c0,0,0.9-5-15.7-4.2l-91.7,11.9v3.1c0,0,0.1,1.8-3,2.6c-2.6,0.6-5.3,1-8,1.1l-5.7-2.2l1.1-13.3c0,0,0-2.2,2-2.7l0.8-1.2l32.5-6.1
		l0.8,0.9l53.6-10.4l-16.5-5.3c0,0-1.3,2-9.7,1.4c0,0-4.3-0.4-5-1.4l0.7-9.3l3-5.9c0,0,1-1,3.2-0.9l15.4,2.4c1.4,0.4,2.8,1,3.9,2
		l34.7,6.1"/>
	<path class="st4" d="M279.8,448.8c2-0.1,4.1,0.4,5.8,1.5l0.3,3.7c0.4,0.2,0.7,0.5,0.8,0.9l0.1,2.6c0.4,0.3,0.8,0.6,1.1,1.1
		l0.5,21.3c0.9,1.3,0.5,2,0.5,2c-2.5,3.5-13.9,3.5-13.9,3.5c-13.8-0.1-14.8-3.5-15-4.5c-0.1-0.6,0.2-1.1,0.7-1.4v-2.8
		c0,0,0.4-17.3,0.5-18.1s1.1-1,1.1-1l0.3-2.8c0-0.5,0.9-0.6,0.9-0.6l0.3-3.6c0.3-1,4.7-1.7,4.7-1.7v1c3.7,1,7.6,1,11.3,0
		L279.8,448.8z"/>
	<path class="st3" d="M262.9,454.6c0,0,13.3,5.6,23.3,0"/>
	<path class="st3" d="M261.8,458c0,0,0.7,4.2,13.6,4c12.9-0.2,12-4.3,12-4.3"/>
	<path class="st3" d="M201.6,470.5c0,0-0.1,0.7,0.4,0.9c0.5,0.2,13.6,3.2,13.6,3.2c0.5,0,0.9-0.1,1.3-0.4c0.7-1.1,1.3-2.3,1.9-3.5
		c0,0,0.8-1.5,1.8-1.2c0,0,3.5,0.4,4.9,0.5"/>
	<path class="st3" d="M325.6,471.8c0.6,0,1.2,0,1.8-0.2c0.9-0.3,3.1-1,4.2,0.4c0.6,0.8,1.1,1.7,1.3,2.7c0,0.9,0.8,1.7,1.8,1.7
		c0.1,0,0.1,0,0.2,0c1.8-0.3,14-2.4,14-2.4s0.9-0.4,0.8-1.2"/>
	<path class="st3" d="M404.8,507.6c0,0-1.7,0-3.1,3.3c-0.4,1.1-1.5,1.7-2.7,1.6l-30.2-6.3c0,0-1.4,0-1.2-1.6c0,0,0.3-2.1,1-2.4
		c0.9-0.6,1.7-1.3,2.5-2.1"/>
	<path class="st3" d="M265.5,537.4l3.2-2.1c0.5-0.4,1.2-0.6,1.9-0.5c1.4,0.1,3.3,0.1,3.3,0.1c0.9-0.1,1.7,0.2,2.4,0.7l3.2,2.4
		l1.3-14.1l-0.3-1.4c0,0-1.4-2.5-3.8-3l-6.2-0.2c-1.1,0-2.2,0.4-3,1.1c-0.8,0.6-1.5,1.3-2.2,2.1l-0.1,15.3L265.5,537.4z"/>
	<path class="st3" d="M143.1,504.1c0,0,1.8,0.8,3.1,3.9c0.5,1.2,1.9,1.8,3.1,1.4c2.4-0.5,29.8-4.8,29.8-4.8s1.2-0.4,1-1.4
		c-0.1-1-0.3-2.5-0.3-2.5l-1.7-2.1l-1.1-1"/>
	<polyline class="st3" points="141.6,504.9 146.5,510.7 145.9,522.2 	"/>
	<path class="st6" d="M146.8,510.7l98-15.4c0,0,13.5-1.9,20.1,3.4l-0.9,41.2"/>
	<line class="st6" x1="278.5" y1="485.1" x2="277" y2="519.3"/>
	<line class="st6" x1="270" y1="485.1" x2="270" y2="519.1"/>
	<polyline class="st3" points="406.2,508.2 400.9,514.7 401.1,524.9 	"/>
	<path class="st6" d="M400.4,514.7l-99.9-19.3c0,0-13.9-2.8-17.2,3.1l-3.3,39.4"/>
	<line class="st6" x1="368.6" y1="502.2" x2="286.6" y2="483.6"/>
	<line class="st3" x1="318.7" y1="488.4" x2="288.6" y2="481.5"/>
	<line class="st6" x1="288.6" y1="479.6" x2="331.8" y2="472.3"/>
	<line class="st3" x1="302.4" y1="484.4" x2="349.8" y2="474.4"/>
	<path class="st3" d="M336.7,483.3l8.9-2.6c0,0,1.6-0.6,2.2,0.3"/>
	<line class="st3" x1="230.8" y1="487" x2="259.7" y2="481.2"/>
	<line class="st6" x1="245.5" y1="483.7" x2="200.7" y2="472.5"/>
	<path class="st3" d="M214.2,481.8l-9.1-3c0,0-1.8-0.5-2.3,0.1"/>
	<path class="st3" d="M267.1,553.1c0,0,5.9,3.4,10.5,0"/>
	<path class="st4" d="M389.4,548.8c0,0-2.6-10.1,5.7-14.9c8.2-4.8,17.6,2.3,19.6,6.2s7.2,15.1-3.3,21.1
		C400.9,567.3,390.2,554.6,389.4,548.8z"/>
	<path class="st14" d="M394,524.3c0,0,0.4,1.9,4.5,2c4.2,0.1,4.9,0,5.5-1.6l0.3,0v4.3c0,0-6.4,0.2-8.4,3l-2,2.5L394,524.3L394,524.3
		z"/>
	<line class="st3" x1="419.2" y1="551.5" x2="421.8" y2="550"/>
	<path class="st3" d="M391.9,547.5c0,0-1-10.1,7.9-11.4s13.2,8.6,13.2,8.6s4.1,11.4-5.5,14.3C397.3,562.2,392,550.7,391.9,547.5z"/>
	<path class="st3" d="M397.3,547c0.1,3.1,2.4,5.8,5.4,6.4c5.5,1.4,4.8-6.4,4.8-6.4s-1.3-4.5-5.7-4.7
		C397.4,542.1,397.3,547,397.3,547z"/>
	<path class="st3" d="M400.2,542.6c0,0,1.2-1,1.7-0.9s3.6-0.7,5.8,2.7c2.8,4.4-1.6,8.5-1.6,8.5"/>
	<polyline class="st6" points="394.2,539.5 395.1,539.9 399.2,542.6 399.9,542.2 397.4,538.4 395.8,537.6 	"/>
	<path class="st6" d="M397.4,536.8l0.9,0.7l2.2,3.4c0,0,1,0.2,1.1-0.5l0,0l-0.8-3.1l-0.8-1.1"/>
	<path class="st6" d="M401.4,535.9l0.6,1l0.8,3.4c0,0,0.7,0.7,1.1,0.2l0.5-3l-0.2-1"/>
	<path class="st6" d="M405.7,537.1l0.1,0.8l-0.5,3.3c0,0,0.5,0.7,1,0.6l1.6-2.5l0.3-0.8"/>
	<path class="st6" d="M409.2,539.5l-0.2,0.8l-1.5,2.2c0,0,0,1,0.9,1l2.6-1.8"/>
	<path class="st6" d="M412,543.2l-2.7,1.4c0,0-0.8,1.2,0.4,1.4l3.5-0.8"/>
	<path class="st6" d="M413.5,547.4l-3.2-0.2c0,0-1.4,0.5-0.2,1.3l3.8,1.6"/>
	<path class="st6" d="M412.9,554.5l-0.9-1.2l-2.8-2.4c0,0-0.6-1.3,0.5-1.1s3.9,2.2,3.9,2.2"/>
	<path class="st6" d="M409.8,558.1l-0.1-1.5c0-0.5-0.2-1-0.5-1.4c-0.4-0.6-1.4-2-1.4-2s-0.5-1.9,1.2-1.1l2.2,2.7l0.7,1.3"/>
	<path class="st6" d="M405.8,559.4l0.4-1.4c0.1-0.6,0.1-1.3-0.1-1.9l-0.6-2c0,0,0.3-1.2,1.3-0.5l1.1,2.1c0.3,0.4,0.4,0.9,0.5,1.4
		l0.1,1.4"/>
	<path class="st6" d="M401.5,559.1l0.7-1.1c0.3-0.5,0.5-1,0.5-1.6l0.4-2.7"/>
	<polyline class="st6" points="404.2,553.8 405,557.2 404.3,559.4 	"/>
	<polyline class="st6" points="397.4,557 398.5,556.1 400.5,552.8 	"/>
	<polyline class="st6" points="401.8,553.4 401.1,557 399.4,558.3 	"/>
	<polyline class="st6" points="394.5,553.5 395.7,552.4 398.3,550.8 	"/>
	<polyline class="st6" points="399.5,552 397.6,554.5 396.7,556 	"/>
	<path class="st6" d="M393.6,552l1-0.7c0.4-0.3,0.8-0.5,1.3-0.7c0.6-0.3,1.2-0.6,1.8-1"/>
	<polyline class="st6" points="397.4,548.3 395.2,548.5 392.6,549.3 	"/>
	<polyline class="st6" points="392.1,547.6 394.5,547 397.1,546.9 	"/>
	<polyline class="st6" points="397.4,545.9 393.8,544.7 392.2,544.7 	"/>
	<polyline class="st6" points="392.4,543 394.1,543.2 397.7,544.5 	"/>
	<polyline class="st6" points="398.2,543.6 395.3,541.3 393.5,540.9 	"/>
	<path class="st3" d="M158.8,546c0,0,2.6-10.1-5.7-14.9s-17.6,2.3-19.6,6.3s-7.2,15.1,3.3,21.1C147.3,564.4,157.9,551.8,158.8,546z"
		/>
	<path class="st3" d="M154.2,521.5c0,0-0.4,1.9-4.5,2s-4.9,0-5.5-1.6"/>
	<line class="st3" x1="154.2" y1="522" x2="154.2" y2="532.1"/>
	<path class="st3" d="M154,531.4c-2.5-4.6-10.1-5.1-10.1-5.1V522"/>
	<path class="st3" d="M151.3,528.5c0,0-10.1-3.3-16.9,3.7c-6.8,7-5.8,13.1-5.8,13.1s0,5.4,3.2,9.2"/>
	<path class="st3" d="M143.5,525.7c0,0-7.4-1-12.7,4.5c-3.1,3.2-5,7.3-5.5,11.7c-0.1,4.4,1.8,8.6,5.1,11.5"/>
	<line class="st3" x1="129" y1="548.7" x2="126.4" y2="547.1"/>
	<path class="st3" d="M156.2,544.6c0,0,1-10.1-7.9-11.4c-9-1.3-13.2,8.6-13.2,8.6s-4.1,11.4,5.5,14.3
		C150.9,559.4,156.1,547.9,156.2,544.6z"/>
	<path class="st3" d="M150.8,544.2c-0.1,3.1-2.4,5.8-5.4,6.4c-5.5,1.4-4.8-6.4-4.8-6.4s1.3-4.5,5.7-4.7S150.8,544.2,150.8,544.2z"/>
	<path class="st3" d="M147.9,539.8c0,0-1.2-1-1.7-0.9c-0.6,0.1-3.6-0.7-5.8,2.7c-2.8,4.4,1.6,8.5,1.6,8.5"/>
	<polyline class="st6" points="153.9,536.7 153,537 149,539.8 148.3,539.4 150.7,535.6 152.3,534.8 	"/>
	<path class="st6" d="M150.7,534l-0.9,0.7l-2.2,3.3c0,0-1,0.2-1.1-0.5l0,0l0.8-3.1l0.8-1.1"/>
	<path class="st6" d="M146.7,533.1l-0.6,1l-0.8,3.4c0,0-0.7,0.7-1.1,0.2l-0.5-3l0.2-1"/>
	<path class="st6" d="M142.4,534.2l-0.1,0.8l0.5,3.4c0,0-0.5,0.7-1,0.6l-1.6-2.5l-0.3-0.8"/>
	<path class="st6" d="M138.9,536.7l0.2,0.8l1.6,2.2c0,0,0,1-0.9,1l-2.6-1.8"/>
	<path class="st6" d="M136.1,540.4l2.7,1.4c0,0,0.8,1.2-0.4,1.4l-3.5-0.8"/>
	<path class="st6" d="M134.6,544.6l3.3-0.2c0,0,1.4,0.5,0.2,1.3l-3.8,1.6"/>
	<path class="st6" d="M135.2,551.6l0.9-1.2l2.8-2.4c0,0,0.6-1.3-0.5-1.1c-1.1,0.2-3.9,2.2-3.9,2.2"/>
	<path class="st6" d="M138.3,555.2l0.1-1.5c0.1-0.5,0.2-1,0.5-1.4c0.4-0.6,1.4-2,1.4-2s0.6-1.9-1.1-1.1l-2.2,2.7l-0.7,1.3"/>
	<path class="st6" d="M142.4,556.5l-0.4-1.4c-0.1-0.6-0.1-1.3,0.1-1.9l0.6-2c0,0-0.3-1.2-1.3-0.5l-1.1,2.1c-0.3,0.4-0.4,0.9-0.5,1.4
		l-0.1,1.4"/>
	<path class="st6" d="M146.6,556.3l-0.8-1.1c-0.3-0.5-0.5-1-0.5-1.6l-0.4-2.7"/>
	<polyline class="st6" points="144,550.9 143.1,554.3 143.8,556.6 	"/>
	<polyline class="st6" points="150.8,554.1 149.7,553.2 147.7,550 	"/>
	<polyline class="st6" points="146.4,550.5 147,554.2 148.7,555.5 	"/>
	<polyline class="st6" points="153.7,550.7 152.5,549.6 149.8,547.9 	"/>
	<polyline class="st6" points="148.7,549.2 150.5,551.7 151.5,553.1 	"/>
	<path class="st6" d="M154.5,549.2l-1-0.7c-0.4-0.3-0.8-0.5-1.3-0.7c-0.6-0.3-1.2-0.6-1.8-1"/>
	<polyline class="st6" points="150.8,545.5 153,545.7 155.5,546.5 	"/>
	<polyline class="st6" points="156.1,544.7 153.7,544.2 151.1,544.1 	"/>
	<polyline class="st6" points="150.8,543 154.4,541.9 156,541.8 	"/>
	<polyline class="st6" points="155.7,540.1 154,540.4 150.5,541.6 	"/>
	<polyline class="st6" points="150,540.7 152.9,538.4 154.7,538 	"/>
	<polyline class="st3" points="284.5,569.1 285.2,569.1 285.2,581.8 284.6,581.8 	"/>
	<polyline class="st3" points="259.8,569.4 259.1,569.4 259.1,582.1 259.7,582.1 	"/>
	<path class="st3" d="M339,484.8c0,0,0,1.7,4.4,1.8c4.5,0.1,4.1-1.6,4.1-1.6"/>
	<line class="st3" x1="338.9" y1="485" x2="338.9" y2="492.6"/>
	<path class="st3" d="M347.8,485.1l0.1,4.6c-1.6,1.1-3,2.5-4.2,4.1"/>
	<path class="st3" d="M338.8,487.8c0,0-2.5,1.8-3.3,4.1"/>
	<path class="st3" d="M348,485.7l12.3,4.5c0,0,3.7,1.7,4.5,8.1"/>
	<path class="st3" d="M348,489.7c0,0,3.3-2.2,6.5-1.7"/>
	<path class="st3" d="M351,495.2c0,0,2.1-3.1,5.4-2.9c3.1,0.2,5.6,2.4,6.3,5.4"/>
	<line class="st3" x1="352.8" y1="493.7" x2="353" y2="495.6"/>
	<polyline class="st3" points="354.3,492.9 353.9,493.9 354.1,495.9 	"/>
	<polyline class="st3" points="356.2,492.6 355.4,493.5 354.7,496 	"/>
	<polyline class="st3" points="357.6,492.7 356.7,493.8 356,496.2 	"/>
	<polyline class="st3" points="356.5,496.4 357.7,494.5 359.1,493.3 	"/>
	<polyline class="st3" points="360.4,494.1 358.7,495.2 357.7,496.7 	"/>
	<polyline class="st3" points="358.7,497.1 360.2,496 361.6,495.6 	"/>
	<polyline class="st3" points="360.5,497.4 361.2,497 362.3,496.9 	"/>
	<path class="st3" d="M337.8,510c0,0,2.1,2.4,6.5,2.4"/>
	<path class="st3" d="M340.7,510.4c0,0,0.4,1.5,3.5,2c2.2,1.8,4.8,3,7.6,3.3c4.7,0.5,6.9-2.3,6.9-2.3"/>
	<path class="st3" d="M345.6,511.3c0,0,1.3,2.5,6.1,4.5"/>
	<path class="st3" d="M343.4,510.8c0.2,0.6,0.5,1.1,0.8,1.6"/>
	<path class="st15" d="M204.7,492.3c0.1-2-1.4-5.4-1.4-5.4l0.2-3.5c0,0,0.4,1.8,4.8,1.6s3.6-1.9,3.6-1.9l0.3,5c0,1-0.1,1.9-0.5,2.9"
		/>
	<path class="st3" d="M203.3,484.7l-7.1,0.7c0,0-3.1,1-2.9,8.9"/>
	<path class="st3" d="M199.6,493.1c0,0,0-6.3-3.4-7.7"/>
	<path class="st3" d="M217.1,489.7c-0.6-5.3-3.7-6.1-3.7-6.1l-1.2,0.1"/>
	<path class="st3" d="M203.3,486.8c-0.6-0.7-1.4-1.3-2.2-1.8"/>
	<path class="st3" d="M198.2,493.4c0,0-0.1-3.8-2.4-5.1c-2.2-1.3-2.3,5.9-2.3,5.9"/>
	<path class="st3" d="M194.3,489.5l1.6,0.7c0.5,0.4,0.8,0.9,0.9,1.5c0.2,0.9,0.3,1.8,0.3,1.8"/>
	<path class="st3" d="M193.7,492.2c0,0,1.7,0,2.4,0.9l0.3,0.6"/>
	<path class="st3" d="M205,509.2c-0.3,0.9-0.8,1.8-1.4,2.6c0,0-4.1,0.6-5.3,0.4s-2-1.9-2-1.9"/>
	<path class="st3" d="M200.7,509.7c-0.2,1.2-1,2.2-2.2,2.6"/>
	<path class="st3" d="M209,508.7c0.3,1.1,1.2,2,2.3,2.3l4.6-0.4c0,0,2.2-1.5,2.1-3"/>
	<path class="st3" d="M213.5,508.1c0,0-0.4,2.3-2.2,2.9"/>
	<path class="st3" d="M263.8,450.3c0,0,11.3,4.3,21.7,0"/>
	<path class="st3" d="M263.8,450.3c0,0,12.4,4.4,21.8,0"/>
	<path class="st6" d="M144.4,12.3c0,0,4.9,31.3,10.2,46s9.2,21.6,16,26c6.8,4.4,22.8,17.7,27.3,22.6c4.5,4.9,5.1,18.6,3.5,26.9
		c-1.6,8.2-6.7,23.7-7.5,36.1c-0.8,12.4,9.4,39.8,20.2,54c10.8,14.1,38.5,49.4,42.2,58.2c3.7,8.7,6.3,25.1,1.5,34.8
		s-19.9,28.1-28.2,33.4"/>
	<path class="st6" d="M150.4,90.5c0,0,5.6,2.4,6.2,2.9c0.6,0.5,0.8,4.8,0.9,5.2c0.1,0.4,7.7,2.7,12.2,5.7c4.4,3,10.8,12.9,10.5,24.7
		c-0.3,11.8-2.7,53.4-0.9,61.8s9.3,25.9,23.9,44.8s31.7,43.2,33.4,52.4c1.8,9.2,2.3,44.5-1.9,58.2"/>
	<path class="st6" d="M157.8,98.8c0,0-0.4,15.7-1.6,18.9s-4.2,7.4-5.5,12.9"/>
	<path class="st6" d="M155.7,118.8c0,0-1.8,23.8-2.2,31.5c-0.4,7.8-1,41.9-0.6,53.6c0.4,11.7,2.1,30,5.1,40.1
		c3,10.1,13,41.9,15.4,48.4c2.5,6.5,14.8,40.2,17.5,45"/>
	<path class="st6" d="M157.8,8.3c0,0,17.3,60.5,20.4,64.9c3.1,4.4,12,11.3,15.4,13.3c3.3,2,9.8,9.7,13.1,17.2s5.1,16.2,0,32.6
		s-8.9,32.1-8,42.4c0.9,10.3,12.6,31.9,16.6,38.9s34.8,46.3,38.5,52.3c3.7,6,7.6,11.8,9.4,23.3"/>
	<path class="st6" d="M179.7,75.1c0,0,1.1-8,3-8.3"/>
	<path class="st6" d="M183.5,78.8c0,0-1.6-9.6-0.6-11.3"/>
	<path class="st6" d="M205.6,85.6c0,0,6.3,9.9,2.8,23"/>
	<path class="st6" d="M206.2,137.8c0,0,5-6.4,7.8-18.6"/>
	<path class="st6" d="M218.9,222.9c0,0,3-0.7,7.8,1.1"/>
	<path class="st6" d="M221,225.8c0,0,4.8,0.1,6.7,2.2c1.9,2.1,11.2,19.5,12.1,22.9"/>
	<path class="st6" d="M224.4,223.3c0,0,0.7,1.9,0.6,3.1"/>
	<path class="st6" d="M243.8,245.3c0,0,6.3,16.1,7.8,21.4"/>
	<path class="st6" d="M245.9,250.9c0,0,8.8,10.7,10.9,14.8c2.1,4,4.5,11,4.2,18.6"/>
	<path class="st6" d="M230.9,352.1c0,0,94.6-14.7,118.2-14.5c23.5,0.2,68.5-1.2,86.7,11.4"/>
	<path class="st6" d="M234.4,352.1c0,0,33.5-12.7,98.8-16.9c24.6-2.3,66.5-4.6,89.7,8.1"/>
	<path class="st6" d="M257.8,345.6c0,0,1.6-19.5,1.9-22.4"/>
	<path class="st6" d="M258.7,331.7c0,0,63.8-5.9,78-6.9s53.8-2.1,64.5-0.6"/>
	<path class="st6" d="M271.9,321.3c0,0,59.5-5.6,67.3-6.3c7.8-0.7,29.6-0.5,37.2,0.1"/>
	<g>
		<path class="st8" d="M262.7,291.6v-3.9c0,0-0.2-1.4,2.1-2.8s5.8-3.3,5.8-3.3c2.6-1.2,5.4-1.9,8.3-2.1c4.5-0.1,29-0.8,29-0.8
			s45.7,0,64.3,2.1c1.1,0.3,2.2,0.6,3.3,1.1l6.4,3.8c1.1,0.6,1.8,1.8,1.8,3v3.4c0,0,0.3,1.2-2.6,1.4c-2.9,0.2-37.6,0.2-37.6,0.2
			l-17.8,11.8c0,0-2.1,0.7-2.1,4.9c0,4.2-2.2,72-2.2,72s-0.2,0.5-1.4,0.4c-0.1,0.4-0.1,3.8-0.1,3.8h1.8l1.6,19.1
			c0,0,0.9,2.4-3.5,3.2c-4.4,0.8-14.4,2.6-23.9-0.8c-1.3-0.6-2.3-0.9-2-3.5c0.3-2.6,1.6-18,1.6-18c0.6-0.3,1.2-0.5,1.9-0.6
			c0.2-1.2,0.2-2.5,0.1-3.7c0,0-1.7,0.4-1.7-1.6s-1.1-71.2-1.1-71.2c0-1.8-0.9-3.6-2.4-4.6c-2.6-1.6-17.9-12.1-17.9-12.1
			S263.4,293.2,262.7,291.6z"/>
		<path class="st6" d="M262.8,287.2c0,0,2.5,0.3,13,0.3s103.1,0.4,103.1,0.4s4.6,0.1,3.6-1.9"/>
		<path class="st6" d="M271.3,281.3c0,0,2.7-0.3,10.9-0.3s69-1,86.5,1.1c3.7,0.1,4.6-0.3,5.3-0.7"/>
		<line class="st6" x1="274.8" y1="292.9" x2="343.7" y2="293.7"/>
		<line class="st6" x1="284.4" y1="299.4" x2="335" y2="299.4"/>
		<path class="st6" d="M297.9,382.4c0,0,15.1,1.3,22.5,0.3"/>
		<path class="st6" d="M295.8,386.7c0,0,1.4,2.2,12.9,2s10-0.1,13.3-2"/>
		<path class="st6" d="M297.7,386.1c0,0,0,1.8,10.2,1.8s10.5,0,12.2-1.2"/>
		<polyline class="st6" points="304.9,314.2 304.9,317.9 313.4,317.9 313.4,314.5 		"/>
		<path class="st6" d="M302.3,314c0,0,3,0.3,6.8,0.3s5.1,0.2,6.7-0.2v-1.6c-0.1-1.6-1.4-2.8-3-2.7c0,0-0.1,0-0.1,0
			c-3.1,0-6.8,0-6.8,0s-3.2-0.2-3.6,2.4L302.3,314z"/>
		<polyline class="st6" points="305.8,309.7 305.8,306.1 312.6,306.1 312.6,309.9 		"/>
	</g>
	<g>
		<g>
			<g>
				<line class="st10" x1="64.5" y1="396.8" x2="190.4" y2="396.8"/>
				<polygon class="st11" points="71.8,396.1 64.5,384.7 79.1,384.7 				"/>
			</g>
			<line class="st10" x1="70.4" y1="9.7" x2="70.4" y2="386.8"/>
			<g>
				<polygon class="st11" points="70.6,7.9 64.3,19.3 77,19.3 				"/>
				<line class="st10" x1="64.2" y1="6.9" x2="187.8" y2="6.9"/>
			</g>
		</g>
		<g>
			<g>
				<polygon class="st11" points="471.6,580.6 484.3,580.6 478,591.4 				"/>
			</g>
			<line class="st10" x1="478.1" y1="582" x2="478.1" y2="338.7"/>
			<g>
				<polygon class="st11" points="471.8,340.5 484.5,340.5 478.1,329.8 				"/>
				<line class="st10" x1="394.7" y1="329.9" x2="484.5" y2="329.9"/>
			</g>
			<g>
				<polygon class="st11" points="471.6,406.8 484.3,406.8 478,396.1 				"/>
			</g>
			<g>
				<polygon class="st11" points="471.6,386.8 484.3,386.8 478,397.5 				"/>
				<line class="st10" x1="429.4" y1="397.1" x2="484.3" y2="397.1"/>
			</g>
		</g>
		<g>
			<g>
				<line class="st10" x1="303.7" y1="592.3" x2="524" y2="592.3"/>
				<polygon class="st11" points="510.8,580.4 524,580.4 517.4,591.4 				"/>
			</g>
			<line class="st10" x1="517.4" y1="581.9" x2="517.4" y2="285.3"/>
			<g>
				<polygon class="st11" points="510.7,292.3 523.9,292.3 517.3,281.4 				"/>
				<line class="st10" x1="390.8" y1="281" x2="523.9" y2="281"/>
			</g>
		</g>
		<g id="texto_48_">
			<rect x="50" y="185.2" class="st13" width="37" height="15.7"/>
			<text transform="matrix(1 0 0 1 53.4481 197.0558)" class="st27 st28 st29">88cm</text>
		</g>
		<g id="texto_47_">
			<rect x="442.6" y="495.2" class="st13" width="54.3" height="15.7"/>
			<text transform="matrix(1.0849 0 0 1 442.7713 507.0924)" class="st27 st28 st29">39-49cm</text>
		</g>
		<g id="texto_46_">
			<rect x="451.3" y="359.7" class="st13" width="54.3" height="15.7"/>
			<text transform="matrix(1.0849 0 0 1 462.3944 371.5812)" class="st27 st28 st29">12cm</text>
		</g>
		<g id="texto_45_">
			<rect x="491.7" y="427.1" class="st13" width="57.8" height="15.7"/>
			<text transform="matrix(1.128 0 0 1 492.5164 438.9919)" class="st27 st28 st29">66-73cm</text>
		</g>
		<g>
			<g>
				<line class="st10" x1="435.3" y1="431" x2="435.3" y2="389.3"/>
				<polygon class="st11" points="434.7,425.1 424.1,431 424.1,419.3 				"/>
			</g>
			<line class="st10" x1="231.2" y1="425.3" x2="432.7" y2="425.3"/>
			<g>
				<polygon class="st11" points="222.8,425.4 233.4,431.2 233.4,419.5 				"/>
				<line class="st10" x1="222.4" y1="431.3" x2="222.4" y2="406.5"/>
			</g>
		</g>
		<g id="texto_44_">
			<rect x="366" y="417.1" class="st13" width="37" height="15.7"/>
			<text transform="matrix(1 0 0 1 369.4491 428.9782)" class="st27 st28 st29">56cm</text>
		</g>
	</g>
</g>
</svg>
