<svg xmlns="http://www.w3.org/2000/svg" viewBox="0 0 253.33 147.35"><defs><style>.cls-1{fill:#fff;}.cls-2,.cls-4,.cls-5{fill:none;}.cls-3{fill:#d2d2d3;}.cls-4,.cls-5{stroke:#040006;stroke-miterlimit:10;}.cls-4{stroke-width:0.74px;}.cls-5{stroke-width:0.39px;}</style></defs><title>braço esquerdo GT</title><g id="Camada_2" data-name="Camada 2"><g id="Camada_1-2" data-name="Camada 1"><path class="cls-1" d="M39,106.35c11.88-2.19,25-3.57,31.8-3.35C67.6,96.23,67,95.49,64.28,92.38c-9.77-1-48.51,3.42-56.45,17.5C9.89,111.14,21.43,109.6,39,106.35Z"/><path class="cls-1" d="M191.65,111.51c-12.24-2.29-40.93-4.79-64.72-7.29a198.07,198.07,0,0,0-31.47-.92S90,96.13,88.58,91.87c1.13-1.48-.58-2.28.69-6.48,9-1.66,18.82-3.56,66.55,2.67,13.61-3.08,25.08-.58,34.79.19C202.55,89.19,201.9,100,201.9,100S194.21,112,191.65,111.51Z"/><path class="cls-1" d="M191.06,57.88c-2-1.85,4.38,30.53,4.84,31.45,1.8.72,5.26,7.66,5.26,7.66l-5.1-31.69S192.62,59.36,191.06,57.88Z"/><path class="cls-1" d="M219.09,6.52c-7.33,15.41-13.67,28.65-13.67,28.65s-6.71-.43-8.36-2.62c4.19-9.47,8.66-18.25,13.07-26.19Z"/><path class="cls-1" d="M198.75,10.14c.63-1.32,1.28-2.63,1.93-3.94l8,.14a141.29,141.29,0,0,0-11.92,27.13l-4.16-1.33s.54-.53,2.24-6C196.18,20.67,196.44,15,198.75,10.14Z"/><path class="cls-1" d="M149.77,141.26c7.62,2.3,31.49,7.83,51,4.83,11.41-1.54,11.6-9.27,12.1-13s-2.58-11.5-2.58-11.5"/><path class="cls-1" d="M55.53,76.33C43,76.83,30.92,81.75,28,83S13.06,95.35,7.56,101.18.7,111.16.38,119.52s6.5,24.22,8.16,25.08,27.62-1.84,36.19-3.8,52.57-.21,52.57-.21"/><path class="cls-1" d="M190.36,80.42l-.54-23.87-4.42-8.08V40.8l37.81,16.26s4,18.79,4.65,24.35,2.76,16.88-6.81,27c-10.46,14-15.49,17.63-22.17,23.09-5,4.12-14.36,10.79-23.51,11.73-9.75,1-20.14.34-25.6,0-1-.07-10.14-.63-11.11-.76L97.88,137.2,62.48,73.72l27.58,2.1L184.8,88"/><path class="cls-1" d="M48.81,63.22s2.64,1.33,7.24,13.85,36.07,56.68,36.07,56.68,5.48,7.5,8.51,9.94,11.06,4.5,16.42,1.81,4.21-6.37,3-7.57-7.57-6.44-7.57-6.44c-8.82-4.55-11.82-20.61-11.82-20.61l-7.32-10.24C75.58,73.64,74.11,43,74.11,43"/><path class="cls-1" d="M182.33,33.14c-20.24-3.5-66.88-10.48-92.1-7.36S44.6,43.67,41,45.42l-.28.12a3.68,3.68,0,0,0-1.65,4.94,2.89,2.89,0,0,0,1.47,2.67c1.7,1.15,2.26,4.48,1.7,6.72s1.25,3.16,2.44,5S48.06,64,48.06,64A179.27,179.27,0,0,1,85.83,36.16C110.76,24.66,180.2,46.88,180.66,47s36.11,11.14,40.25,11.87,2.76.69,4.74-1.61,3.82-8.93,4.37-12.47-.78-4.56-3.68-5.2-35.47-7.45-35.47-7.45S191.18,34.72,182.33,33.14Z"/><path class="cls-1" d="M80.93,75c15-2.37,81,7.06,92.45,8.63S193.85,88.71,196.2,90s5.86,10.39,5.86,10.39"/><path class="cls-1" d="M42.49,52.57c12.53-9.8,34-19.5,50.25-22.8,16.08-3.26,35.36-.78,43.08.26S214.7,42.42,214.7,42.42s6.3,1,7.22,2.3,3.68,7.87-3.61,9.25c-6.73-1.09-39.13-10.86-43.18-11.55s-49.19-16-73.42-12.76c-31,2.57-59.59,30.91-59.59,30.91"/><circle class="cls-1" cx="216.91" cy="48.47" r="4.07"/><circle class="cls-1" cx="219.14" cy="88.71" r="4.07"/><circle class="cls-1" cx="174.48" cy="134.27" r="4.07"/><circle class="cls-1" cx="96.95" cy="125.66" r="4.07"/><path class="cls-1" d="M95.17,103.2c24.25-1.23,97.12,8.38,97.12,8.38"/><path class="cls-1" d="M3.49,106.34c3,7.67,18.82,3.34,30.05,1s37.23-4.87,37.23-4.87"/><path class="cls-1" d="M88.18,91.88c10.67-.5,61,5.83,71.23,6.85s41.3,3.4,41.3,3.4"/><path class="cls-1" d="M7.31,109.88s4.51-5.64,15.92-10.79,41.1-6.75,41.1-6.75"/><path class="cls-1" d="M89.3,91.85a12.68,12.68,0,0,1-.37-6.35c9.75-3.57,49.59.44,66.89,2.56,19.32-4.23,40.85,1.47,40.85,1.47"/><path class="cls-1" d="M157.82,98.57c-.18-.9-2-10.51-2-10.51"/><path class="cls-1" d="M85.34,84.75a10.52,10.52,0,0,1,3.59.75"/><path class="cls-1" d="M25.34,84.9c8.92-4,32.78-3.34,32.78-3.34"/><path class="cls-1" d="M3.23,106.8C14.21,92,63.81,92.34,63.81,92.34"/><path class="cls-1" d="M49.7,23.45,36.14,33.54l-.56,3.81L37.49,43l3,3.61L59.3,59.44,72.43,80.6l18,.92,8.42-6.47-5.42-9.53L88.81,50.65,84.94,30.07l36.12-2.5,61.61,13.25,11.39-16.75-5.57-4.52-6.14-2.39s0-3.11-3.87-5.55S149.68,2,129,1.05C119,.59,94,.82,79.3,6c-12.76,4.44-16.82,7.71-22.88,14Z"/><path class="cls-1" d="M191.62,88.05c-.7-2.66-2.56-33.52-2.56-33.52"/><line class="cls-2" x1="185.4" y1="86.08" x2="190.8" y2="79.94"/><path class="cls-1" d="M206.51,93.3c-.7-1.75-2.31-15.69-2.31-15.69"/><path class="cls-1" d="M202.23,100.05c-2.29-3.35-5.92-34.75-5.92-34.75"/><path class="cls-1" d="M196.67,90.31c-1.75-2.36-5.27-25-5.52-26.73s-.35-6.5-.35-6.5"/><line class="cls-2" x1="191" y1="62.01" x2="196.31" y2="66.28"/><path class="cls-1" d="M253,6.91c-6.9,18-14,41-16,52.16-2.78,15.64-1,42.72-1,42.72s.91,28.58-11.59,30-14-10.58-14-10.58L230.58,6.71Q241.79,6.88,253,6.91Z"/><path class="cls-1" d="M198.73,6.17l-7.4,15.46c.43-1.75,3.43-7.88,7.35-15.46Z"/><path class="cls-1" d="M219.14,6.52C212,21.35,206.46,32.84,205.49,35.17l9-28.73Z"/><path class="cls-1" d="M214.06,6.43l-16,27.18c0-3.42,5.57-14.65,12-27.25Z"/><path class="cls-1" d="M199.31,9c.29-.49.82-1.48,1.54-2.82l7.84.14c-4.24,7.21-8.75,16.05-10.3,23.16-.36,1.45-1.15,3.91-1.15,3.91l-4.55-1.3a16.29,16.29,0,0,1,1.9-4C195.08,25,197.41,12.27,199.31,9Z"/><path class="cls-1" d="M57.6,71.32c1.38,5.43,23.26,40.91,26.87,45.91,2.06,4,5,2.76,5,2.76s8.89-2.57,2.27-11.66c-8.8-12.08-20.12-44.56-20.12-44.56S70.4,58,67,57.88s-9.38,6.9-9.38,6.9S56.22,65.89,57.6,71.32Z"/><path class="cls-1" d="M198.74,6.17c12.14.19,24.29.44,36.44.6l-10.77,43L176.29,35.17l11.64-6.34Z"/><path class="cls-3" d="M39,106.35c11.88-2.19,25-3.57,31.8-3.35C67.6,96.23,67,95.49,64.28,92.38c-9.77-1-48.51,3.42-56.45,17.5C9.89,111.16,21.43,109.62,39,106.35Z"/><path class="cls-3" d="M191.65,111.53c-12.24-2.29-40.93-4.79-64.72-7.29a198.07,198.07,0,0,0-31.47-.92S90,96.15,88.58,91.89c1.13-1.48-.58-2.28.69-6.48,9-1.66,18.82-3.56,66.55,2.67,13.61-3.08,25.08-.58,34.79.19,11.94.94,11.29,11.79,11.29,11.79S194.21,112,191.65,111.53Z"/><path class="cls-3" d="M191.06,57.9c-2-1.85,4.38,30.53,4.84,31.45,1.8.72,5.26,7.66,5.26,7.66l-5.1-31.69S192.62,59.38,191.06,57.9Z"/><path class="cls-3" d="M219.1,6.52c-7.33,15.42-13.68,28.67-13.68,28.67s-6.71-.43-8.36-2.62c4.2-9.48,8.67-18.27,13.08-26.21Z"/><path class="cls-3" d="M198.75,10.2c.64-1.34,1.3-2.67,2-4l8,.14a141.93,141.93,0,0,0-11.95,27.19l-4.16-1.33s.54-.53,2.24-6C196.18,20.73,196.44,15,198.75,10.2Z"/><path class="cls-4" d="M149.77,141.28c7.62,2.3,31.49,7.83,51,4.83,11.41-1.54,11.6-9.27,12.1-13s-2.58-11.5-2.58-11.5"/><path class="cls-4" d="M55.53,76.35C43,76.85,30.92,81.76,28,83.05S13.08,95.36,7.56,101.19.68,111.12.38,119.53s6.5,24.23,8.16,25.09,27.62-1.84,36.19-3.8,52.57-.21,52.57-.21"/><path class="cls-4" d="M115.37,134.31l27.44,5.26s21.06,4.86,32.57,3.68c9.16-.93,18.51-7.61,23.51-11.73,6.68-5.45,11.71-9.09,22.17-23.09,9.57-10.16,7.46-21.45,6.81-27s-11.23-23.55-11.23-23.55"/><path class="cls-4" d="M48.8,63.28S51.44,64.61,56,77.13s36.07,56.68,36.07,56.68,5.48,7.5,8.51,9.94,11.06,4.5,16.42,1.81,4.21-6.37,3-7.57-7.57-6.44-7.57-6.44c-8.82-4.55-11.82-20.61-11.82-20.61l-7.31-10.28C75.58,73.66,74.11,43,74.11,43"/><path class="cls-4" d="M184.8,48.23s11.59,17,17.94,26.87,3.77,18.22,3.77,18.22-14.9,27.78-36.34,29.35-69.51-11.73-69.51-11.73"/><path class="cls-4" d="M182.33,33.16c-20.24-3.5-66.88-10.48-92.1-7.36S44.6,43.69,41,45.44l-.28.12a3.68,3.68,0,0,0-1.65,4.94,2.89,2.89,0,0,0,1.47,2.67c1.7,1.15,2.26,4.48,1.7,6.72s1.25,3.16,2.44,5S48.06,64,48.06,64A179.57,179.57,0,0,1,85.83,36.19C110.76,24.69,180.2,46.91,180.66,47s36.11,11.14,40.25,11.87,2.76.69,4.74-1.61,3.82-8.93,4.37-12.47-.78-4.56-3.68-5.2-35.47-7.45-35.47-7.45S191.18,34.74,182.33,33.16Z"/><path class="cls-4" d="M40.54,45.7c-2.64.5-5.48-8.55-4.48-11.4S45.78,25,61.6,17.66,107,7.73,121.91,8s54.94,7.5,61.17,9.25,9.48,5.21,9.6,6.41-1.81,8.5-1.81,8.5"/><path class="cls-4" d="M80.93,75c15-2.37,81,7.06,92.45,8.63S193.85,88.73,196.2,90s5.86,10.39,5.86,10.39"/><path class="cls-4" d="M99.14,74.62c-6.53-4.26-13.31-38.44-13.31-38.44"/><path class="cls-5" d="M40.27,53C52.8,43.19,76.46,33.09,92.74,29.79c16.08-3.26,35.36-.78,43.08.26S214.7,42.44,214.7,42.44s6.3,1,7.22,2.3,3.68,7.87-3.61,9.25c-6.73-1.11-39.13-10.86-43.18-11.55s-49.19-16-73.42-12.76c-31,2.57-59.59,30.91-59.59,30.91"/><circle class="cls-5" cx="216.91" cy="48.49" r="4.07"/><circle class="cls-5" cx="219.14" cy="88.73" r="4.07"/><circle class="cls-5" cx="174.48" cy="134.29" r="4.07"/><circle class="cls-5" cx="96.95" cy="125.69" r="4.07"/><path class="cls-4" d="M95.17,103.23c24.25-1.23,97.12,8.38,97.12,8.38"/><path class="cls-4" d="M3.49,106.36c3,7.67,18.82,3.34,30.05,1s37.23-4.87,37.23-4.87"/><path class="cls-4" d="M88.18,91.9c10.67-.5,61,5.83,71.23,6.85s41.3,3.4,41.3,3.4"/><path class="cls-4" d="M7.31,109.88s4.51-5.62,15.92-10.77,41.1-6.75,41.1-6.75"/><path class="cls-4" d="M89.3,91.87a12.68,12.68,0,0,1-.37-6.35c9.75-3.57,49.59.44,66.89,2.56,19.32-4.23,40.85,1.47,40.85,1.47"/><path class="cls-5" d="M157.82,98.59c-.18-.9-2-10.51-2-10.51"/><path class="cls-4" d="M85.34,84.77a10.52,10.52,0,0,1,3.59.75"/><path class="cls-4" d="M25.34,84.92c8.92-4,32.78-3.34,32.78-3.34"/><path class="cls-4" d="M3.23,106.82C14.21,92,63.81,92.36,63.81,92.36"/><path class="cls-4" d="M56.75,20C71.63,5.3,80.19,4.61,94.19,2.61c21-4,44.1-2.41,65.18,2.92l7.54,1.91c5,1.37,15.23,3.09,15.77,9.72"/><path class="cls-4" d="M191.62,88.07c-.7-2.66-2.56-33.52-2.56-33.52"/><line class="cls-4" x1="185.4" y1="86.1" x2="190.8" y2="79.96"/><path class="cls-4" d="M206.51,93.32c-.7-1.75-2.31-15.69-2.31-15.69"/><path class="cls-4" d="M202.23,100.07c-2.29-3.35-5.92-34.75-5.92-34.75"/><path class="cls-4" d="M196.67,90.33c-1.75-2.36-5.27-25-5.52-26.73s-.35-6.5-.35-6.5"/><line class="cls-5" x1="191" y1="62.04" x2="196.31" y2="66.3"/><path class="cls-4" d="M210.44,121.23c1.85,6,6.85,12,13.85,11,14-4,12-23,11-35-2-30,6.77-62,17.7-90.29"/><path class="cls-4" d="M198.73,6.17c-2.14,4.18-6.07,10.94-7.4,15.48"/><path class="cls-4" d="M219.09,6.52c-3.89,8.67-9.8,19.68-13.6,28.68"/><path class="cls-4" d="M210.13,6.36c-3.6,7.51-9.84,17.84-12.07,27.27"/><path class="cls-4" d="M208.73,6.34a150.85,150.85,0,0,0-11.49,27.15"/><path class="cls-4" d="M192.69,32.14c2.6-7.94,5.61-18.15,8-25.94"/><path class="cls-5" d="M57.6,71.34c1.38,5.43,23.26,40.91,26.87,45.91,2.06,4,5,2.76,5,2.76s8.89-2.57,2.27-11.66c-8.8-12.08-20.12-44.56-20.12-44.56S70.4,58,67,57.9s-9.38,6.9-9.38,6.9S56.22,65.91,57.6,71.34Z"/></g></g></svg>