<?xml version="1.0" encoding="UTF-8"?>
<!-- Generator: Adobe Illustrator 23.0.1, SVG Export Plug-In . SVG Version: 6.00 Build 0)  -->
<svg version="1.1" id="Camada_1" xmlns="http://www.w3.org/2000/svg" xmlns:xlink="http://www.w3.org/1999/xlink" x="0px" y="0px" viewBox="0 0 491.3 741.1" style="enable-background:new 0 0 491.3 741.1;" xml:space="preserve">
<style type="text/css">
	.st0{fill:#FFFFFF;stroke:#000000;stroke-width:1.8583;stroke-miterlimit:10;}
	.st1{fill:none;stroke:#000000;stroke-width:0.9291;stroke-miterlimit:10;}
	.st2{fill:none;stroke:#000000;stroke-width:1.8583;stroke-miterlimit:10;}
	.st3{fill:#FFFFFF;stroke:#000000;stroke-width:3;stroke-miterlimit:10;}
	.st4{fill:#FFFFFF;stroke:#000000;stroke-width:2;stroke-miterlimit:10;}
	.st5{fill:none;stroke:#000000;stroke-width:3;stroke-miterlimit:10;}
	.st6{fill:#FFFFFF;}
	.st7{fill:none;stroke:#000000;stroke-width:2.1297;stroke-miterlimit:10;}
	.st8{fill:none;stroke:#000000;stroke-width:3.1946;stroke-miterlimit:10;}
	.st9{fill:#FFFFFF;stroke:#000000;stroke-width:0.9291;stroke-miterlimit:10;}
	.st10{fill:none;stroke:#000000;stroke-width:2;stroke-miterlimit:10;}
</style>
<g>
	<path class="st0" d="M359.7,348.9l-0.2,1.5c-0.3,1.6,0.9,3,2.4,3.2c0,0,9.4,1.5,10.8,1.7c0.1,1.3,0.6,34,0.5,42.4   c12.9-4.1,20.3-5,28.9-5.2l2.1-36.9c3.6-0.2,7.2-0.4,10.9-0.6c0.7,0,1.4-0.1,1.9-0.4c1.4-0.8,1.5-2.7,1.4-4.3   c-19.9-4-40.4-4.5-60.5-1.4"/>
	<path class="st0" d="M455.7,351.4c-1.4,3.4-5.2,5.3-8.9,5.5c-3.7,0.2-7.3-0.8-10.8-1.8c-29.3-8.1-60.6-9.3-90.5-3.5   c-2.6,0.5-5.2,1-7.8,0.5c-2.5-0.6-5-2.7-5-5.3c0-2.6,2.2-4.7,4.4-6c9.4-5.7,28-6.3,39-6.4c13.7-0.1,20.5-0.3,34.3,0.1   c7.7,0.2,15.3,1,22.8,2.8c3.7,0.9,17.9,5.5,18.9,5.8C455.4,344.1,457,348.4,455.7,351.4z"/>
	<path class="st1" d="M453,343.4c-6.9,2.8-14.7,0.8-21.9-0.9c-27.3-6.4-55.7-8.2-83.6-5.3"/>
	<path class="st2" d="M372.4,355.3c10.8,0.6,20.9,0.4,31.7,0.4"/>
	<path class="st0" d="M403.6,365.5c1-0.1,2.6-0.4,3.5-0.9c0.3-0.2,0.6-0.3,0.8-0.6c0.2-0.4,0.2-0.8,0.2-1.3c0-0.5-0.1-1-0.3-1.3   c-0.2-0.3-0.5-0.5-0.8-0.6c-0.8-0.4-3-1.5-3-1.5L403.6,365.5z"/>
</g>
<g>
	<path class="st3" d="M126.6,613.8c0,0-11.8,1.3-12,2.9c-0.2,1.6-5.8,31,6,30.9s19.8-3.3,20.5-5.1S126.6,613.8,126.6,613.8z"/>
	<path class="st3" d="M336.1,612c0,0,6.2,0.2,9.3,1.7c3.1,1.4,5.4,4,5.4,4s-2.7,25.9-4.2,26.9c-1.6,1-8.3,1.8-19.5,0   c-11.2-1.8,1.2-31.8,1.2-31.8L336.1,612z"/>
	<path class="st3" d="M215.5,637.2l2.3,44.3l12.7,3.7l12.7-2.7l2.3-45.3c0,0,5-3.3,22.3-1.3c17.3,2,131,11.7,131,11.7v3   c0,0,7.3,1.7,11,2c3.7,0.3,6,0,6,0l5.7-2l-1.2-19l-53.5-10.8l-47-8.8L333,611l1,1.8l4.7-1.8l-0.7-11.5l-6.7-8.7l-80.3,4l-41.3,1   l-53.5-1.7l-1.8-1.3l-21.7-1l-4.8,1.2l-4.3,6.8l-0.8,2v11.3l13.5,0.7l-42.7,8.8l-3-0.8l-46,9.3l-1.2,1.3l-2.3,1l-1,20.8l17.3,1   l5.3-2.7l-0.3-2.8l142.5-14.2C204.9,635.7,213.5,634.2,215.5,637.2z"/>
	<line class="st3" x1="212.9" y1="598.2" x2="136.2" y2="613.8"/>
	<line class="st3" x1="251.1" y1="598.5" x2="319.9" y2="611.8"/>
	<polyline class="st4" points="217.2,668.5 225.2,661.3 235.7,661.3 243.9,668.5  "/>
	<polyline class="st4" points="217.2,649.8 225.5,642.5 236,642.5 243.9,649.8  "/>
	<line class="st4" x1="225.2" y1="661.3" x2="225" y2="601.5"/>
	<line class="st4" x1="235.9" y1="601.5" x2="235.7" y2="661.3"/>
	<line class="st3" x1="338" y1="599.5" x2="277.3" y2="603.6"/>
	<line class="st4" x1="309.2" y1="591.9" x2="314.7" y2="601.1"/>
	<path class="st5" d="M245.5,637.2c0,0-1.2-19.7,2.8-21.8c4-2.2,17.9-0.8,17.9-0.8L413.9,638l6.5-6.5"/>
	<path class="st5" d="M215.5,637.2c0,0,1.7-23.8,0-24.2c-1.7-0.3-34.2,4.8-34.2,4.8l-90.7,17L48,643.3l-7-9.8"/>
	<line class="st4" x1="93.5" y1="622.7" x2="99.1" y2="633.3"/>
	<line class="st4" x1="372" y1="620.8" x2="366.4" y2="631.3"/>
	<polyline class="st4" points="123.5,599.8 146.4,602.2 151.7,594.3 154.4,592.8  "/>
	<line class="st3" x1="177.5" y1="605.4" x2="146.4" y2="602.2"/>
</g>
<path class="st0" d="M117.2,493c1.8,2,5.7-5.7,5.2-8.4c-0.4-2.7-8.9-21.4-10.8-23.3c-16.8-16.9-23.5-21.6-28.5-44.3  c-2.4-11-3.3-20-4.3-31.2c-1.9-21.4-5.6-42.6-11-63.4c-3,0.3-8.4,0.5-11.9,0.6l-4.4,7.4l-3.3,26.3l3.2,38.1l-8.4,24v54l3.3,10.9  l49.3,8.4C95.7,492,114.9,490.5,117.2,493z"/>
<title>Mizano Diagonal</title>
<path class="st6" d="M195.1,158.6"/>
<path class="st6" d="M175.1,150.3c0,0,6.7,1.7,7.6,2.4C182.2,152.8,176.9,153.2,175.1,150.3z"/>
<g>
	<g>
		<g>
			<g id="Camada_1-2_1_">
				<polyline class="st1" points="274.4,511.6 275.3,512.6 273.3,514.1 275.6,514.6 273.4,516.1 275.7,516.9 273.9,518.2       275.8,518.9 274,520.4 276,521.2 274.3,522.7 276.2,523.5 274.6,524.7 276.3,525.5 275.3,526.7     "/>
				<polyline class="st7" points="246.3,516.4 248.3,517.1 246.4,518.2 248.4,518.8 246.6,520 248.6,520.7 246.7,522 248.7,522.7       246.9,523.9 248.9,524.8 247.1,525.9 249.1,527.1 247.5,527.9 248.6,528.7     "/>
				<line class="st1" x1="275.2" y1="512.7" x2="246.3" y2="516.4"/>
				<line class="st1" x1="275.6" y1="514.6" x2="246.6" y2="518.3"/>
				<line class="st1" x1="275.4" y1="516.9" x2="247.2" y2="520"/>
				<line class="st1" x1="275.7" y1="518.8" x2="247.1" y2="521.9"/>
				<line class="st1" x1="276" y1="521.2" x2="247.3" y2="524"/>
				<line class="st1" x1="276" y1="523.5" x2="247.5" y2="526"/>
				<line class="st2" x1="276.3" y1="525.5" x2="247.8" y2="527.7"/>
				<path class="st0" d="M246.7,528.7l30.8-1.9l1.5,21.5c-4.4,3.3-9.7,5.3-15.2,5.9c-5.4,0.2-10.8-1-15.6-3.6L246.7,528.7z"/>
				<path class="st0" d="M248,550.6c10.4,1.1,20.8,0.2,30.9-2.4"/>
				<path class="st0" d="M249.9,551.4c0,1.5,0.7,48.6,0.7,48.6s-15.4,8.2-38.6-0.9c0.7-20.8,1.6-51.5,1.6-51.5      c1.2-0.8,2.4-1.5,3.8-1.9"/>
				<path class="st0" d="M213.6,547.6c0,0,8.4,6.3,34.4,1.6"/>
				<path class="st0" d="M121.7,528.8c0,0-13.3,17.2-15,20.2s-1.6,9,2.5,9.1c1.5,0.5,3,1.2,4.3,2.2c0,0,1.3,1.1,4.6,0.4      c1.9,0.2,2.6,0.6,3.8,0.3c1.2-0.3,3.3-1.7,4.4-5.1c1.2-3.4,5.4-22.3,5.4-22.3"/>
				<path class="st1" d="M124.6,531.5l-7,12.5c0,0,0.8,4.8,6.2,1.6c2.2-4.2,4.1-8.4,5.8-12.8c0,0-3.4,15.6-4.3,18.6      c-1,3.7-2.1,5.6-3.1,5.9c-1.1,0.2-2.2,0.2-3.3,0.1c-1.5,0-3.1,0.6-3.9,0.2c-1.1-0.9-2.3-1.5-3.7-1.9c-3.7-0.6-1.8-5.1-0.4-7.6      s11.6-18.1,11.6-18.1"/>
				<line class="st2" x1="217.4" y1="527.7" x2="217.4" y2="549.3"/>
				<path class="st0" d="M222.8,525.8c0,0-5.1,0.4-5.4,2c-0.3,1.6,10.5,2.8,15.3,2.7c4.8,0,14.2-0.8,13.4-2.7c-0.8-2-5.1-2-5.1-2"/>
				<path class="st0" d="M222.9,518v9.6c0,0,10.2,2.3,18.2,0v-8.7"/>
				<path class="st0" d="M199.8,504.8c0,0,1.8,3.7,4.1,4.2c2.3,0.4,62.7,1.3,62.7,1.3"/>
				<path class="st2" d="M204.3,509c0,0,2.6,2.4,8.2,3.7c6.6,1.5,12.8,2.6,12.8,2.6s5.8,0.6,8.4,0.6c2.5,0,14.9,0,14.9,0"/>
				<path class="st2" d="M214.5,513.1c0,0,6.9,4.1,9,4.5s13,0.8,14.1,0.8c3.4-0.8,35.4-7.3,38.7-8.5"/>
				<path class="st8" d="M222.7,517.4c-0.1,0.8,0.4,1.6,1.1,1.9c1.3,0.6,15.1,0.8,16.1,0.5c1-0.5,1.7-1.3,2.1-2.3"/>
				<polyline class="st9" points="125.3,529 121.9,528.8 124.6,531.6 131.6,533.3 129.5,530.5     "/>
				<path class="st0" d="M195.1,502.5c0,0-50.3,7.2-56.3,8.2c-3.4,0.4-6.3,2.5-7.7,5.6l-5.4,13c0.6,1.2,2,1.7,3.2,1.2      c0.2-0.1,0.4-0.2,0.6-0.4c1.1-3.4,5-11.7,5-11.7c1.2-1.8,3-3.2,5.2-3.8c8.8-1.8,67.6-10.7,67.6-10.7"/>
			</g>
		</g>
		<path class="st8" d="M325.2,423.3c30.7-1.5,59.2-0.9,89.8,2.3c5.4,0.6,10.9,1.2,16.1,3s9.4,3.8,13.3,7.2"/>
		<path class="st8" d="M293.8,508.8c-9.6-1.5-17.3-8.9-22.1-17.4c-4.8-8.4-7.3-17.9-10.8-27c-8.4-21.8-23.6-42-45-51.3    c-16.6-7.2-35.9-7.3-53-1.3s-28.2,43.3-63.2,34.8"/>
		<path class="st2" d="M293.1,510.8c-1-8.1-0.1-16.2,0.6-24.3c0.8-8.1,1.3-16.3-0.4-24.3c-1.7-8-6-15.7-13-19.8    c-4.5-2.6-9.6-3.6-14.7-4.5c-7.2-1.3-14.5-2.4-21.8-3.4"/>
		<path class="st2" d="M234.9,424.8c3.6,0.1,7.3,0.1,10.9-0.1"/>
		<path class="st2" d="M265.1,421.3c8.1-0.4,16.2-0.3,24.4,0.2"/>
		<path class="st2" d="M57.4,322.7c3.4-0.1,8.8-0.3,11.9-0.6c5.4,20.8,9.1,42,11,63.4c1,11.2,1.9,20.2,4.3,31.2    c5,22.6,11.7,27.3,28.5,44.3c1.9,1.9,10.4,20.6,10.8,23.3c0.4,2.7-3,6.9-5.2,8.4"/>
		<polyline class="st2" points="44.5,431.5 51.9,451 56.9,449 58.6,433.5 57.4,420.8 62,415.3 62,411.6 71.9,389.3 63.9,323.3     58.2,328.7   "/>
		<polyline class="st1" points="53.7,394.4 64.8,392.8 58.2,328.7 52.3,330.3   "/>
		<line class="st1" x1="71.9" y1="389.3" x2="64.8" y2="392.8"/>
		<polyline class="st1" points="43.9,417 56,414.8 62,411.6   "/>
		<line class="st1" x1="56" y1="414.8" x2="56.9" y2="421.3"/>
		<line class="st1" x1="62" y1="412.7" x2="82.8" y2="411.6"/>
		<path class="st1" d="M57.7,421.9c1.7,0.6,2.8,2.3,3.6,4c3.9,8.3,4.1,18,8.1,26.2c3.5,7.2,19.4,17.1,20.4,18.8    c0.6,5.5,0.4,9.4,0.4,13.1l-45.6-9.2"/>
		<polyline class="st1" points="90.1,484 98,491.8 102.4,485.2 94.7,462.4   "/>
		<polyline class="st1" points="123.8,484.3 102.4,485.2 90.2,481.6   "/>
		<path class="st1" d="M61.2,412.8c4.7,1.5,8,6,9.8,10.6c1.8,4.7,2.4,9.7,3.7,14.5c3.3,11.7,17.6,24.8,20,24.8l19.2-0.3"/>
		<path class="st1" d="M94.6,443.7c-1.3-0.4-2.7-0.7-4-0.9c-0.3-0.1-0.7-0.1-1,0c-0.6,0.3-0.7,1.2-0.6,1.8c0.2,3.1,0.5,6.2,0.7,9.4    c0,0.3,0,0.6,0.2,0.8c0.3,0.6,1.1,0.6,1.8,0.5c0.7-0.1,1.4-0.3,1.9,0.1"/>
		<polyline class="st1" points="96.9,201.1 160.1,169.9 225.7,204.1   "/>
		<polyline class="st1" points="100.7,253.3 168.8,220 231.6,252.7   "/>
		<polyline class="st1" points="115,299.3 175.6,269.6 219.9,292.8   "/>
		<path class="st0" d="M117.5,95.6c-4.8-0.2-7.2-0.5-10,3.4c-2.8,4-6,11.7-7.6,16.2c-1.9,5.4-4.3,11.1-7,16.3c0,0,3.6,14.7,3,20.2    c1.1,1.4,3.2,2.5,4.9,2.9c1.7,0.4,5.3,0.4,7.1,0.4c5.7,0,9.5,0.3,15.2,0.2c2.3,0,4.6-0.1,6.9-0.1c0.7,0,1.4,0,1.9-0.3    c0.6-0.3,1.1-1,0.9-1.6"/>
		<path class="st2" d="M117.9,103.1c-2.6-0.8-4.2-0.6-6.2,1.3c-1.9,1.9-3.8,6.7-4.8,9.2c-3.6,8.8-6.7,16.7-9.2,25.9    c-0.3,1.3-0.7,2.6-0.4,3.9c0.4,2,2.2,3.4,4.1,4c1.9,0.5,8.5,0.7,11.9,0.5"/>
		<path class="st0" d="M185.2,153.3c-1.5,0.3-2.7,0.4-4.3,0.4s-3.2-0.3-4.6-1.1c-0.7-0.4-1.4-0.9-1.8-1.6s-0.5-1.1-0.4-1.9    c-1.3-0.2-7.1-0.8-7.1-0.8c0.6,2.1,1.2,3.7,2.1,5.7c0.9,1.9,2.2,3.7,4,4.9c1.9,1.3,4.3,1.9,6.7,2s4.7-0.2,7-0.6L185.2,153.3"/>
		<path class="st0" d="M107.2,148.1c2.6,9.6,16,61.6,37.1,162.9l14.6-1.5c0,0-32.8-156.6-38-163c-3-0.6-9.3-0.3-12.4-0.1    C107.6,146.4,107,147.2,107.2,148.1z"/>
		<path class="st2" d="M118.4,432.7c7.1-0.3,14.2-0.2,21.2,0.5"/>
		<path class="st0" d="M185.1,152.6c0,0,36.3,142.1,37,154.2l12.1-0.9c0,0-31.5-141.5-34.2-145.2    C197.2,156.9,185.1,152.6,185.1,152.6z"/>
		<polygon class="st0" points="225.8,402.8 218.6,414.4 227.7,419.7 236.7,402.6   "/>
		<path class="st2" d="M79.1,99.9c10.4,14.3,15,32,16.7,49.5c1.7,17.5,0.6,35.2,0.9,52.9c0.3,24.3,3,48.6,9.4,72    c7.8,28.6,21.1,55.7,27.3,84.7c6.1,29.1,1.9,65.5-26.9,83.6"/>
		<path class="st2" d="M105,8.9c-15.2,36.4-16.8,59.9-28.7,97.4c-7.1,22.5-20,32.1-19.3,55.7c0.9,30.1,9.2,79.8,22.7,106.7    s28.5,53.6,34.9,83s5.8,70.8-22,86.6"/>
		<path class="st9" d="M94.1,456.7c1.2,0.4,2.4-0.1,3.6-0.6c1.1-0.5,2.5-0.9,3.6-0.2c1.2,0.7,1.6,2.4,2.8,3c1,0.4,2.1,0.1,3.1-0.4    c0.9-0.5,1.9-1.1,3-1.1c1.4,0,2.5,1.1,3.6,2c1,1,2.2,1.9,3.6,1.8c1.3-0.1,2.3-1.1,3.6-1.3c0.9-0.1,1.9,0.3,2.8,0s1.5-1.2,1.6-2.2    s-0.1-1.9-0.4-2.8c-0.8-2.8-1.5-5.6-2.3-8.4c-0.3-1.1-0.7-2.4-1.7-3c-0.7-0.4-1.5-0.4-2.2-0.5c-5.6-0.3-11.3-0.5-16.9-0.8    c-1.8-0.1-4.4-0.7-6,0.4c-1.5,1-1.4,2.9-1.4,4.5C94.1,450.5,94.1,453.6,94.1,456.7z"/>
		<path class="st1" d="M94.8,444.6c3.3,1.1,6.8,1.3,10.3,1.5c3.2,0.2,6.4,0.4,9.6,0.6c0.5,0,1,0.1,1.4,0.4c0.3,0.3,0.4,0.6,0.5,1    c0.6,2.1,1.2,4.2,1.8,6.4c0.2,0.8,0.4,1.6,1,2.1c0.7,0.7,4.7,0.5,5.6,0.8"/>
		<path class="st1" d="M119.1,456.5c0.2,0.3-3.6,3.3-5.2,3.3"/>
		<path class="st1" d="M116,447c2-0.7,3.9-1.6,5.5-2.9"/>
		<path class="st2" d="M229.1,119.5c-7.6,20.2-8.4,42.6-5.4,64c11.8,86.2,11.1,161,19.8,241.2c14.7-1.3,28.7-5.4,43.7-10"/>
		<path class="st8" d="M296.2,510.2c-1.1,0-2.1,0.1-3.2,0.1c-26.8,0.4-53.5-3.4-80.1-5.7c-11.7-1-20.3-2.7-32.1-3.3    c-12.2-0.6-51.4-6.1-63.5-8c-10.5-1.6-13.3,0.1-19.3-0.5c-14.9-1.8-16-2.1-33.1-4.8c-4.7-0.8-12.2-1.6-17.8-4.3    c-1.6-4.9-2-6.2-2.8-10.1c-0.4-16.4-1.4-34.3-0.4-56.6c1.7-5,7.1-17.8,8.9-22.5c-1-10.1-1.6-19.9-3.3-39.2    c0.7-6.1,1.6-14.4,2.8-25c1.6-2.7,2.4-3.5,3.8-6.1c1.1-3.6,1.3-9,1.3-12.8c0.3-22.6,1.8-37.2-0.4-58.5    c-2.6-25.4-2.3-44.9-5.8-76.6c-1.5-13.7-0.8-27.5,3.5-40.5c4.3-13.1,10.4-25.4,15-38.4C78.2,73,81.5,46.7,93.6,23.9    c4.2-7.9,9.8-15.7,18.1-19.1c5.6-2.3,11.8-2.4,17.8-2.4c10.8-0.1,21.8-0.1,32.5,1.7s21.2,5.8,29.4,12.9c9.3,8,15,19.4,18.1,31.2    s4.9,24.5,5.6,36.7c1,17.7,12.1,33.2,25.6,44.7c9.5,8.1,20.9,13.9,30.7,21.7c9.9,7.7,18.6,18.3,19.7,30.8c1,12-5.1,23.3-9.3,34.6    c-11.9,32-8.7,69.2,8.6,98.6c11.3,19.2,18.5,41.2,19,63.5c0.2,7.2-0.4,14.7-4.1,20.9c-4.1,6.8-11.2,11-18.1,14.9    c0.4,2.3,0.9,4.5,1.3,6.8c12.1,1.7,24.4,2.3,36.6,1.9c20.7-17,46.8-27.8,73.5-31c5.2-0.6,10.4-0.9,15.5-0.1s10.2,2.7,14,6.2    c3.6,3.2,17.4,28.9,16.3,37.3c4.2,2.4,5,3.2,6.2,5.9c5,11,3.7,24.6-3.2,34.5c1.6,5.1-1.8,11-6.3,13.9s-9.9,3.6-15.2,4.4    c-25.9,3.5-51.7,7-77.6,10.5C331.1,507.3,313.7,509.7,296.2,510.2z"/>
		<g>
			<path class="st0" d="M130.3,352.8c4.6,22.3,5.3,28.3,6.1,49.9c0,1,0.1,2,0.5,2.9c1.3,2.5,4.8,2.4,7.5,2c24-3.7,48.4-5.3,72.7-4.9     c11,0.2,22.3,0.8,32.9-2.3c10.6-3.1,20.6-10.6,23.2-21.4c1.1-4.4,0.8-9.1,0.5-13.6c-0.5-7.8-0.9-15.6-1.4-23.5     c-0.4-6.4-0.8-13.1-3.8-18.8c-4.7-8.9-14.2-15.7-24.2-17s-24.4,1-34.4,1.6c-29.4,1.8-55.2-0.9-84.2,6.9c0.5,9,2.3,18.1,2.8,27.1     L130.3,352.8z"/>
			<path class="st0" d="M126.3,315.7c7.4,5.3,12,11.2,14.5,20c1.8,6.4,2,13,2.3,19.6c0.4,12.4,0.8,24.9,1.3,37.3     c0.1,2.8,0.2,5.6-0.7,8.3s-3.1,5-5.8,5.3C134.1,393.5,126.3,315.7,126.3,315.7z"/>
			<path class="st9" d="M239.1,306.3c8.5,4.3,15.6,12.6,16.8,22.1c7.9,63-7.7,70.6-14.6,73.4"/>
		</g>
		<g>
			<path class="st0" d="M165.5,82.6c-13.1-4.2-25.8-10-39.3-12.8c-3.7-0.8-8.3-1-10.6,2.1c-1.4,2-1.4,4.6-1.1,7     c1.5,16.4,7.5,33,3.5,49c-1.7,6.7-5.2,13.3-4.3,20.2c0.3,2.6,1.4,5.3,3.7,6.6c2.7,1.5,6.1,0.6,9.1-0.4     c11.4-3.6,23.2-6.4,35.1-6.4s24.1,3.3,33.5,10.7c1.9,1.5,3.7,3.2,5.8,4.4s4.7,1.8,7,0.9c2.8-1,4.4-4,4.9-6.9s-0.1-5.9-0.3-8.8     c-1.7-18.7,5.9-36.9,10.6-55.1c0.5-1.7,0.8-3.7-0.2-5.2c-0.7-1.1-2-1.6-3.2-2c-3.5-1.2-16-0.2-18.5,0.4c-7.5,1.6-15.4,1-22.9-0.5     C174,85.1,169.7,84,165.5,82.6z"/>
			<path class="st1" d="M122.9,69.7c3.8,9.8,5.8,16.2,8.2,25.4c1.1,4.1,2.6,13.8,3.1,18c0.9,7.2,0.3,14.5-0.3,21.8     c-0.5,5.1-2.9,14.3-5.1,19"/>
			<path class="st1" d="M144.8,75.3c3.8,9.8,3.7,10.6,6.1,19.8c1.1,4.1,2.6,13.8,3.1,18c0.9,7.2,0.3,14.5-0.3,21.8     c-0.5,5.1-0.2,8.4-2.4,13.1"/>
			<path class="st1" d="M212.3,85.7c3.8,7.2,4.2,15.8,2.7,23.9c-1.5,8-1.5,13.5-4.7,20.9c-0.8,1.8-2,4.5-3.4,7.1     c-1.4,2.7-3,5.3-4.9,7.8c-4.9,6.5-6.3,8.5-9.1,10.9"/>
		</g>
	</g>
</g>
<g>
	<circle class="st10" cx="40.9" cy="679.6" r="14.7"/>
	<path class="st10" d="M26.3,680.2l-1,1.7c-0.6,1-2,1.1-2.8,0.2l-2.3-3c-0.4-0.6-0.9-1.1-1.1-1.8c-0.4-0.9-0.3-2-0.2-3   c0.6-5.3,3.3-10.2,7.5-13.5c3.9-3.1,9-4.6,14-4.2c0.5,0,0.9,0.3,1.2,0.7c0.6,0.9,1.5,1.5,2.5,1.9c1.2,0.5,2.5,0.6,3.8,0.8   c2.2,0.2,4.4,0.5,6.6,0.1c1.1-0.2,2.2-0.5,3.1-1c1.1-0.6,2.3,0.1,2.4,1.3c0.1,1.6,0.4,3.1,0.6,4.7c0.4,2.7,0.7,5.5-0.1,8.1   c-0.7,2.6-2.7,5-5.4,5.5"/>
	<path class="st1" d="M40.8,656.7c-0.6,0.8-0.5,2,0,2.9c0.5,0.9,1.4,1.5,2.3,1.9s2,0.6,3,0.8"/>
	<path class="st1" d="M58.2,658.7c0-0.6,0-1.2,0-1.8v-1.6"/>
	<line class="st1" x1="41.1" y1="656.6" x2="41.1" y2="655.1"/>
</g>
<g>
	<circle class="st10" cx="420.2" cy="677" r="14.7"/>
	<path class="st10" d="M434.7,677.6l1,1.7c0.6,1,2,1.1,2.8,0.2l2.3-3c0.4-0.6,0.9-1.1,1.1-1.8c0.4-0.9,0.3-2,0.2-3   c-0.6-5.3-3.3-10.2-7.5-13.5c-3.9-3.1-9-4.6-14-4.2c-0.5,0-0.9,0.3-1.2,0.7c-0.6,0.9-1.5,1.5-2.5,1.9c-1.2,0.5-2.5,0.6-3.8,0.8   c-2.2,0.2-4.4,0.5-6.6,0.1c-1.1-0.2-2.2-0.5-3.1-1c-1.1-0.6-2.3,0.1-2.4,1.3c-0.1,1.6-0.4,3.1-0.6,4.7c-0.4,2.7-0.7,5.5,0.1,8.1   c0.7,2.6,2.7,5,5.4,5.5"/>
	<path class="st1" d="M420.2,654.1c0.6,0.8,0.5,2,0,2.9c-0.5,0.9-1.4,1.5-2.3,1.9s-2,0.6-3,0.8"/>
	<path class="st1" d="M402.9,656.1c0-0.6,0-1.2,0-1.8v-1.6"/>
	<line class="st1" x1="420" y1="653.9" x2="420" y2="652.4"/>
</g>
<g>
	<path class="st10" d="M243.2,688.4l-0.3,29.8l-25.5-0.1c0,0,0-24.5,0.1-29.7c0-0.5,0.4-1,1-1l23.5-0.3   C242.7,687.2,243.3,687.8,243.2,688.4z"/>
	<path class="st10" d="M217.9,691.4c-1.8,0.7-3.6,1.4-4.7,3c-0.8,1.2-1,2.8-1.1,4.3c-0.3,3.4-0.5,6.9-0.5,10.3   c0,3.2,0.1,6.4,1.1,9.5c1,3,2.9,5.9,5.7,7.4c1.1,0.6,2.8,0.9,3.5-0.2c0.4-0.5,0.4-1.2,0.4-1.8c0.1-1.9,0.1-3.7,0-5.6"/>
	<path class="st10" d="M243.1,691.4c1.8,0.7,3.6,1.4,4.7,3c0.8,1.2,1,2.8,1.1,4.3c0.3,3.4,0.5,6.9,0.5,10.3c0,3.2-0.1,6.4-1.1,9.5   c-1,3-2.9,5.9-5.7,7.4c-1.1,0.6-2.8,0.9-3.5-0.2c-0.4-0.5-0.4-1.2-0.4-1.8c-0.1-1.9-0.1-3.7,0-5.6"/>
	<path class="st10" d="M218.5,687.3c0-1.3,0-2.5,0-3.7c0-0.5,0.4-0.8,0.9-0.8c2.4,0.4,8.5,1.6,11.4,1.5c2.2-0.1,6.7-0.3,10.8-1.4   c0.3-0.1,0.7,0.2,0.7,0.5l0.1,4.2"/>
</g>
<path class="st1" d="M197.8,87c5.3,21.9,7.9,37.8-16.8,64"/>
<path class="st1" d="M92,130c-4.3,12-8.6,24.2-10.1,36.9c-2.8,22.5,16.5,88.4,24.3,107.3"/>
<path class="st1" d="M224.5,135.8c13,14.8,35.2,20.6,44.4,38c6.1,11.5,4.9,25.6,1.2,38.1c-3.6,12.5-9.4,24.4-12.2,37.1  c-3.6,16.5-1.8,34.2,5.1,49.7c5.5,12.5,14.2,23.4,19,36.2c6,15.9,5.3,34.1-1.7,49.6c-7,15.5-20.3,28-36.2,34"/>
<path class="st9" d="M143.6,310.9c8.7,9.6,13.7,22.1,16.1,34.8s2.5,25.8,2.5,38.7c0,7.3,0,14.9-3.5,21.3"/>
<path class="st9" d="M167.3,309.1c17.8,19.6,22.7,63.2,14.5,94.6"/>
<path class="st1" d="M220.3,306.8c7.6,10.2,13.4,25.3,14.9,37.9s0.8,25.4,0.2,38.1c-0.4,7.5-3.3,16-9.6,20"/>
<path class="st1" d="M331.8,419.4c17.7-4.5,35.5-8.6,53.4-12.4c6.3-1.3,12.9-2.6,19-0.9c8.6,2.4,15,11,14.9,19.9"/>
<g>
	<path class="st0" d="M186.7,366c-3.5,2.3-8,2.6-12.2,2.3c-11.9-0.8-23.2-5.1-34.8-7.7c-14.9-3.3-30.5-3.5-45.5-0.6   c-2.1,0.4-4.2,0.9-6.4,0.7c-2.1-0.1-4.3-0.9-5.7-2.6c-1.5-1.8-1.2-4.5-0.4-6.3c1.4-3.7,5.2-4.9,9.7-6.7c3.6-1.4,8.1-1.9,13.2-2.3   c13.9-1.2,26-2.9,39.9-3.3s28.5,1.3,40.2,8.9c2.8,1.8,6.6,4.1,6.6,7.8C191.3,360,190.2,363.8,186.7,366z"/>
	<path class="st1" d="M187.3,350c-3.9,2.8-8.6,3.3-13.3,2.9s-9.4-1.8-14-3c-22-5.8-47.9-7-70.5-4.1"/>
	<path class="st0" d="M147.4,362.5c2,33.9,3.9,74.8,6.4,108.7c0.1,2.1-0.6,1.8-1.8,2.3c0.2,4.7,0.6,10.8,0.8,15.5   c0.7-0.1,1.5,0,2,0.1c2,7.9,2.3,25.5,1.1,26.9c-2.8,3.3-8.9,3.1-15.2,2.8c-4.3-0.2-6.2,0.4-12.9-0.9c-2.1-3.8-1.8-20.1-1.1-28   c0.6-0.1,1-0.2,1.4-0.4c-0.4-4.3-0.4-10.5-0.5-14.9c-3-0.1-2.7-2.5-3.2-6.4c-4.3-33.8-6.9-69.5-10.5-103.4   c-2.7,0.2-7.2-0.2-9.8-0.8c-1.4-0.3-1.2-2.9-0.4-5.3C103.5,358.7,127.8,355.6,147.4,362.5z"/>
	<path class="st1" d="M113.5,364.6c11.1,1.3,22.5,0.9,33.5-1"/>
	<path class="st1" d="M116.5,358c0.1,2.3,0.1,4.6-0.1,6.9"/>
	<path class="st1" d="M122,365.9c0.1,5.4,0.6,10.8,1.5,16.1c-2.7,0.8-5.5,0.8-8.2,0.1"/>
	<path class="st9" d="M109.3,373.4c-0.3,0.2-0.6,0.4-0.8,0.7c-0.7,1-0.2,2.3-0.1,3.6c0,0.7,0.5,1.2,1.2,1.3c5,0.3,9.9,0.5,14.9,0.5   c0.7,0,1.5,0,1.9-0.5c0.4-0.4,0.5-1,0.6-1.6c0.1-1.2-0.2-2.4-0.6-3.5c-0.2-0.5-0.6-0.8-1.2-0.8l-10.4-0.3c-0.7,0-1.4,0-2.2,0   C111.5,372.7,110.3,372.7,109.3,373.4z"/>
	<path class="st1" d="M126.7,474.1c6.5,0.6,13.1,0.7,19.7,0.1c1.8-0.2,3.7-0.4,5.3-1.1"/>
	<path class="st1" d="M126.4,490c9.2,1.4,18.6,1,27.6-1.2"/>
</g>
</svg>