<?xml version="1.0" encoding="utf-8"?>
<!-- Generator: Adobe Illustrator 23.0.1, SVG Export Plug-In . SVG Version: 6.00 Build 0)  -->
<svg version="1.1" id="Camada_1" xmlns="http://www.w3.org/2000/svg" xmlns:xlink="http://www.w3.org/1999/xlink" x="0px" y="0px"
	 viewBox="0 0 600 600" style="enable-background:new 0 0 600 600;" xml:space="preserve">
<style type="text/css">
	.st0{fill:#FFFFFF;stroke:#1E1E1C;stroke-miterlimit:10;}
	.st1{fill:none;stroke:#1E1E1C;stroke-width:0.6333;stroke-miterlimit:10;}
	.st2{fill:#FFFFFF;stroke:#1E1E1C;stroke-width:1.2665;stroke-miterlimit:10;}
	.st3{fill:#FFFFFF;stroke:#1E1E1C;stroke-width:0.6333;stroke-miterlimit:10;}
	.st4{fill:none;stroke:#1E1E1C;stroke-width:0.9721;stroke-miterlimit:10;}
	.st5{fill:#FFFFFF;}
	.st6{fill:none;stroke:#1E1E1C;stroke-width:0.9881;stroke-miterlimit:10;}
	.st7{fill:none;stroke:#1E1E1C;stroke-width:1.2665;stroke-miterlimit:10;}
	.st8{fill:#FFFFFF;stroke:#1E1E1C;stroke-width:0.9721;stroke-miterlimit:10;}
	.st9{fill:#FFFFFF;stroke:#1E1E1C;stroke-width:0.9091;stroke-miterlimit:10;}
	.st10{fill:#FFFFFF;stroke:#1E1E1C;stroke-width:0.5889;stroke-miterlimit:10;}
	.st11{fill:#FFFFFF;stroke:#1E1E1C;stroke-width:1.019;stroke-miterlimit:10;}
	.st12{fill:#FFFFFF;stroke:#1E1E1C;stroke-width:0.953;stroke-miterlimit:10;}
	.st13{fill:#FFFFFF;stroke:#1E1E1C;stroke-width:0.6639;stroke-miterlimit:10;}
	.st14{fill:#FFFFFF;stroke:#1E1E1C;stroke-width:0.6174;stroke-miterlimit:10;}
	.st15{fill:#FFFFFF;stroke:#1E1E1C;stroke-width:1.3277;stroke-miterlimit:10;}
	.st16{fill:none;stroke:#1E1E1C;stroke-width:0.75;stroke-miterlimit:10;}
	.st17{fill:none;stroke:#1E1E1C;stroke-miterlimit:10;}
	.st18{fill:none;stroke:#1E1E1C;stroke-width:1.3977;stroke-miterlimit:10;}
	.st19{fill:none;stroke:#1E1E1C;stroke-width:2;stroke-miterlimit:10;}
	.st20{fill:#FFFFFF;stroke:#1E1E1C;stroke-width:0.5;stroke-miterlimit:10;}
	.st21{fill:none;stroke:#1E1E1C;stroke-width:0.5;stroke-miterlimit:10;}
	.st22{fill:none;stroke:#1E1E1C;stroke-width:1.0033;stroke-miterlimit:10;}
	.st23{fill:#FFFFFF;stroke:#020203;stroke-width:0.75;stroke-miterlimit:10;}
	.st24{fill:none;stroke:#020203;stroke-miterlimit:10;}
	.st25{fill:#FFFFFF;stroke:#020203;stroke-miterlimit:10;}
	.st26{fill:none;stroke:#020203;stroke-width:0.5;stroke-miterlimit:10;}
	.st27{fill:#FFFFFF;stroke:#020203;stroke-linejoin:round;}
	.st28{fill:none;stroke:#020203;stroke-linejoin:round;}
	.st29{fill:none;stroke:#020203;stroke-width:0.75;stroke-miterlimit:10;}
	.st30{fill:none;stroke:#020203;stroke-width:0.25;stroke-miterlimit:10;}
	.st31{fill:none;stroke:#E52624;stroke-width:1.5;stroke-miterlimit:10;}
	.st32{fill:#E52624;}
	.st33{fill:#FFFFFF;stroke:#020203;stroke-width:0.5;stroke-miterlimit:10;}
	.st34{fill:none;stroke:#E52522;stroke-width:1.5;stroke-miterlimit:10;}
	.st35{fill:#E52522;}
	.st36{fill:#E7E6E6;}
	.st37{fill:none;stroke:#E20D18;stroke-width:2;stroke-miterlimit:10;}
	.st38{fill:none;stroke:#E20D18;stroke-width:1.8;stroke-miterlimit:10;}
	.st39{fill:none;stroke:#E20D18;stroke-width:1.62;stroke-miterlimit:10;}
	.st40{fill:#E20D18;}
	.st41{fill:none;stroke:#E20D18;stroke-width:1.54;stroke-miterlimit:10;}
	.st42{fill:none;stroke:#E20D18;stroke-width:1.74;stroke-miterlimit:10;}
	.st43{fill:none;stroke:#E20D18;stroke-width:1.55;stroke-miterlimit:10;}
	.st44{fill:none;stroke:#E20D18;stroke-width:1.56;stroke-miterlimit:10;}
	.st45{fill:none;stroke:#E20D18;stroke-width:1.53;stroke-miterlimit:10;}
	.st46{fill:none;stroke:#E20D18;stroke-width:1.58;stroke-miterlimit:10;}
	.st47{fill:none;stroke:#E20D18;stroke-width:1.69;stroke-miterlimit:10;}
	.st48{fill:none;stroke:#E20D18;stroke-width:1.43;stroke-miterlimit:10;}
	.st49{fill:none;stroke:#E20D18;stroke-width:1.48;stroke-miterlimit:10;}
	.st50{fill:none;stroke:#E20D18;stroke-width:1.67;stroke-miterlimit:10;}
	.st51{fill:none;stroke:#E20D18;stroke-width:1.65;stroke-miterlimit:10;}
	.st52{fill:#FFFFFF;stroke:#020203;stroke-width:3;stroke-miterlimit:10;}
	.st53{fill:none;stroke:#E20D18;stroke-width:1.41;stroke-miterlimit:10;}
	.st54{fill:none;stroke:#E20D18;stroke-width:1.59;stroke-miterlimit:10;}
	.st55{fill:none;stroke:#1E1E1C;stroke-width:1.05;stroke-miterlimit:10;}
	.st56{fill:none;stroke:#1E1E1C;stroke-width:0.52;stroke-miterlimit:10;}
	.st57{fill:none;stroke:#1E1E1C;stroke-width:0.8;stroke-miterlimit:10;}
	.st58{fill:none;stroke:#1E1E1C;stroke-width:0.49;stroke-miterlimit:10;}
	.st59{fill:none;stroke:#1E1E1C;stroke-width:0.84;stroke-miterlimit:10;}
	.st60{fill:none;stroke:#1E1E1C;stroke-width:0.79;stroke-miterlimit:10;}
	.st61{fill:none;stroke:#1E1E1C;stroke-width:0.55;stroke-miterlimit:10;}
	.st62{fill:none;stroke:#1E1E1C;stroke-width:0.51;stroke-miterlimit:10;}
	.st63{fill:none;stroke:#1E1E1C;stroke-width:1.1;stroke-miterlimit:10;}
	.st64{fill:none;stroke:#1E1E1C;stroke-width:0.25;stroke-miterlimit:10;}
	.st65{fill:none;stroke:#1E1E1C;stroke-width:1.07;stroke-miterlimit:10;}
	.st66{fill:none;stroke:#1E1E1C;stroke-width:0.94;stroke-miterlimit:10;}
	.st67{fill:none;stroke:#1E1E1C;stroke-width:0.56;stroke-miterlimit:10;}
	.st68{fill:none;stroke:#E20D18;stroke-width:1.5;stroke-miterlimit:10;}
	.st69{fill:none;stroke:#E20D18;stroke-width:1.49;stroke-miterlimit:10;}
	.st70{fill:none;stroke:#E20D18;stroke-miterlimit:10;}
	.st71{fill:none;stroke:#1E1E1C;stroke-width:0.78;stroke-miterlimit:10;}
	.st72{fill:none;stroke:#1E1E1C;stroke-width:1.08;stroke-miterlimit:10;}
	.st73{fill:none;stroke:#1E1E1C;stroke-width:0.54;stroke-miterlimit:10;}
	.st74{fill:none;stroke:#1E1E1C;stroke-width:0.83;stroke-miterlimit:10;}
	.st75{fill:none;stroke:#1E1E1C;stroke-width:0.77;stroke-miterlimit:10;}
	.st76{fill:none;stroke:#1E1E1C;stroke-width:0.87;stroke-miterlimit:10;}
	.st77{fill:none;stroke:#1E1E1C;stroke-width:0.81;stroke-miterlimit:10;}
	.st78{fill:none;stroke:#1E1E1C;stroke-width:1.13;stroke-miterlimit:10;}
	.st79{fill:none;stroke:#1E1E1C;stroke-width:0.21;stroke-miterlimit:10;}
	.st80{fill:#FFFFFF;stroke:#1E1E1C;stroke-width:0.84;stroke-miterlimit:10;}
	.st81{fill:none;stroke:#1E1E1C;stroke-width:0.42;stroke-miterlimit:10;}
	.st82{fill:none;stroke:#1E1E1C;stroke-width:0.24;stroke-miterlimit:10;}
	.st83{fill:none;stroke:#E20D18;stroke-width:1.6;stroke-miterlimit:10;}
	.st84{fill:none;stroke:#E20D18;stroke-width:1.64;stroke-miterlimit:10;}
	.st85{fill:none;stroke:#E20D18;stroke-width:1.484;stroke-miterlimit:10;}
	.st86{fill:none;stroke:#E20D18;stroke-width:1.4075;stroke-miterlimit:10;}
	.st87{fill:none;stroke:#E20D18;stroke-width:1.5853;stroke-miterlimit:10;}
	.st88{fill:none;stroke:#E20D18;stroke-width:1.2981;stroke-miterlimit:10;}
	.st89{fill:none;stroke:#E20D18;stroke-width:0.9733;stroke-miterlimit:10;}
	.st90{fill:none;stroke:#E20D18;stroke-width:0.9159;stroke-miterlimit:10;}
	.st91{fill:none;stroke:#E20D18;stroke-width:1.4439;stroke-miterlimit:10;}
	.st92{fill:none;stroke:#E20D18;stroke-width:1.0062;stroke-miterlimit:10;}
	.st93{fill:none;stroke:#E20D18;stroke-width:0.9468;stroke-miterlimit:10;}
	.st94{fill:none;stroke:#E20D18;stroke-width:1.6749;stroke-miterlimit:10;}
	.st95{fill:none;stroke:#E20D18;stroke-width:1.6513;stroke-miterlimit:10;}
	.st96{fill:#FFFFFF;stroke:#1E1E1C;stroke-width:0.8664;stroke-miterlimit:10;}
	.st97{fill:#FFFFFF;stroke:#1E1E1C;stroke-width:1.0973;stroke-miterlimit:10;}
	.st98{fill:none;stroke:#1E1E1C;stroke-width:1.0973;stroke-miterlimit:10;}
	.st99{fill:#FFFFFF;stroke:#1E1E1C;stroke-width:0.5487;stroke-miterlimit:10;}
	.st100{fill:none;stroke:#1E1E1C;stroke-width:0.8422;stroke-miterlimit:10;}
	.st101{fill:#FFFFFF;stroke:#1E1E1C;stroke-width:0.7877;stroke-miterlimit:10;}
	.st102{fill:#FFFFFF;stroke:#1E1E1C;stroke-width:0.5103;stroke-miterlimit:10;}
	.st103{fill:#FFFFFF;stroke:#1E1E1C;stroke-width:0.8422;stroke-miterlimit:10;}
	.st104{fill:none;stroke:#1E1E1C;stroke-width:0.8829;stroke-miterlimit:10;}
	.st105{fill:#FFFFFF;stroke:#1E1E1C;stroke-width:0.8257;stroke-miterlimit:10;}
	.st106{fill:#FFFFFF;stroke:#1E1E1C;stroke-width:0.5752;stroke-miterlimit:10;}
	.st107{fill:#FFFFFF;stroke:#1E1E1C;stroke-width:0.5349;stroke-miterlimit:10;}
	.st108{fill:#FFFFFF;stroke:#1E1E1C;stroke-width:1.1504;stroke-miterlimit:10;}
	.st109{fill:#FFFFFF;stroke:#1E1E1C;stroke-width:0.8829;stroke-miterlimit:10;}
	.st110{fill:none;stroke:#1E1E1C;stroke-width:0.5487;stroke-miterlimit:10;}
	.st111{fill:#FFFFFF;stroke:#1E1E1C;stroke-width:1.0441;stroke-miterlimit:10;}
	.st112{fill:none;stroke:#E20D18;stroke-width:1.5173;stroke-miterlimit:10;}
	.st113{fill:none;stroke:#E20D18;stroke-width:1.804;stroke-miterlimit:10;}
	.st114{fill:none;stroke:#E20D18;stroke-width:1.6153;stroke-miterlimit:10;}
	.st115{fill:none;stroke:#E20D18;stroke-width:1.578;stroke-miterlimit:10;}
	.st116{fill:none;stroke:#E20D18;stroke-width:1.6879;stroke-miterlimit:10;}
	.st117{fill:none;stroke:#E20D18;stroke-width:1.6347;stroke-miterlimit:10;}
	.st118{fill:none;stroke:#E20D18;stroke-width:1.5386;stroke-miterlimit:10;}
	.st119{fill:none;stroke:#E20D18;stroke-width:1.7396;stroke-miterlimit:10;}
	.st120{fill:#FFFFFF;stroke:#1E1E1C;stroke-width:1.4;stroke-miterlimit:10;}
	.st121{fill:none;stroke:#E20D18;stroke-width:1.4266;stroke-miterlimit:10;}
	.st122{fill:none;stroke:#E20D18;stroke-width:1.4299;stroke-miterlimit:10;}
	.st123{fill:none;stroke:#1E1E1C;stroke-width:0.9867;stroke-miterlimit:10;}
	.st124{fill:none;stroke:#DD0B18;stroke-width:1.4266;stroke-miterlimit:10;}
	.st125{fill:none;stroke:#DD0B18;stroke-width:1.4299;stroke-miterlimit:10;}
	.st126{fill:#DD0B18;}
	.st127{fill:none;stroke:#DD0B18;stroke-width:1.484;stroke-miterlimit:10;}
	.st128{fill:none;stroke:#DD0B18;stroke-width:1.4075;stroke-miterlimit:10;}
	.st129{fill:none;stroke:#DD0B18;stroke-width:1.5853;stroke-miterlimit:10;}
	.st130{fill:none;stroke:#DD0B18;stroke-width:1.2981;stroke-miterlimit:10;}
	.st131{fill:none;stroke:#DD0B18;stroke-width:0.9733;stroke-miterlimit:10;}
	.st132{fill:none;stroke:#DD0B18;stroke-width:0.9159;stroke-miterlimit:10;}
	.st133{fill:none;stroke:#DD0B18;stroke-width:1.4439;stroke-miterlimit:10;}
	.st134{fill:none;stroke:#DD0B18;stroke-width:1.0062;stroke-miterlimit:10;}
	.st135{fill:none;stroke:#DD0B18;stroke-width:0.9468;stroke-miterlimit:10;}
	.st136{fill:none;stroke:#DD0B18;stroke-width:1.6749;stroke-miterlimit:10;}
	.st137{fill:none;stroke:#DD0B18;stroke-width:1.6513;stroke-miterlimit:10;}
	.st138{fill:#FFFFFF;stroke:#1E1E1C;stroke-width:0.75;stroke-miterlimit:10;}
	.st139{fill:none;stroke:#DD0B18;stroke-width:1.5173;stroke-miterlimit:10;}
	.st140{fill:none;stroke:#DD0B18;stroke-width:1.804;stroke-miterlimit:10;}
	.st141{fill:none;stroke:#DD0B18;stroke-width:1.6153;stroke-miterlimit:10;}
	.st142{fill:none;stroke:#DD0B18;stroke-width:1.5551;stroke-miterlimit:10;}
	.st143{fill:none;stroke:#DD0B18;stroke-width:1.578;stroke-miterlimit:10;}
	.st144{fill:#E0E0E0;}
	.st145{fill:none;stroke:#DD0B18;stroke-width:1.6879;stroke-miterlimit:10;}
	.st146{font-family:'Roboto-Medium';}
	.st147{font-size:13.6121px;}
	.st148{fill:none;stroke:#DD0B18;stroke-width:1.6347;stroke-miterlimit:10;}
	.st149{fill:none;stroke:#DD0B18;stroke-width:1.5386;stroke-miterlimit:10;}
	.st150{fill:none;stroke:#DD0B18;stroke-width:1.7396;stroke-miterlimit:10;}
	.st151{fill:#FFFFFF;stroke:#020203;stroke-width:1.635;stroke-miterlimit:10;}
	.st152{fill:none;stroke:#E20D18;stroke-width:1.52;stroke-miterlimit:10;}
	.st153{fill:#020203;}
	.st154{fill:none;stroke:#1E1E1C;stroke-linejoin:round;}
	.st155{fill:none;stroke:#1E1E1C;stroke-linecap:round;stroke-miterlimit:10;}
	.st156{fill:#1E1E1C;}
	.st157{fill:none;stroke:#1E1E1C;stroke-linejoin:round;stroke-miterlimit:10;}
	.st158{fill:none;stroke:#020203;stroke-linejoin:bevel;stroke-miterlimit:10;}
	.st159{fill:none;stroke:#020203;stroke-miterlimit:10;stroke-dasharray:1;}
	.st160{fill:none;stroke:#020203;stroke-width:0.5;stroke-miterlimit:10;stroke-dasharray:1;}
	.st161{fill:none;stroke:#E20D18;stroke-width:1.3;stroke-miterlimit:10;}
	.st162{fill:none;stroke:#E20D18;stroke-width:0.97;stroke-miterlimit:10;}
	.st163{fill:none;stroke:#E20D18;stroke-width:0.92;stroke-miterlimit:10;}
	.st164{fill:none;stroke:#E20D18;stroke-width:1.44;stroke-miterlimit:10;}
	.st165{fill:none;stroke:#E20D18;stroke-width:1.01;stroke-miterlimit:10;}
	.st166{fill:none;stroke:#E20D18;stroke-width:0.95;stroke-miterlimit:10;}
	.st167{fill:#FFFFFF;stroke:#1E1E1C;stroke-width:2;stroke-miterlimit:10;}
	.st168{fill:none;stroke:#1E1E1C;stroke-width:1.5;stroke-linejoin:round;}
	.st169{fill:none;stroke:#1E1E1C;stroke-width:1.5;stroke-miterlimit:10;}
	.st170{fill:none;stroke:#1E1E1C;stroke-width:2;stroke-linecap:round;stroke-miterlimit:10;}
	.st171{fill:none;stroke:#1E1E1C;stroke-width:1.5;stroke-linecap:round;stroke-miterlimit:10;}
	.st172{fill:none;stroke:#1E1E1C;stroke-width:2;stroke-linejoin:round;stroke-miterlimit:10;}
	.st173{fill:none;stroke:#1E1E1C;stroke-width:2;stroke-linejoin:round;}
	.st174{fill:none;stroke:#020203;stroke-width:0.5;stroke-linejoin:bevel;stroke-miterlimit:10;}
	.st175{fill:none;stroke:#E20D18;stroke-width:1.63;stroke-miterlimit:10;}
	.st176{fill:none;stroke:#000000;stroke-miterlimit:10;}
	.st177{fill:#FFFFFF;stroke:#000000;stroke-miterlimit:10;}
	.st178{fill:none;stroke:#E20D18;stroke-width:1.3113;stroke-miterlimit:10;}
	.st179{fill:none;stroke:#E20D18;stroke-width:1.3459;stroke-miterlimit:10;}
	.st180{fill:none;stroke:#E20D18;stroke-width:1.4481;stroke-miterlimit:10;}
	.st181{fill:none;stroke:#E20D18;stroke-width:1.3929;stroke-miterlimit:10;}
	.st182{fill:none;stroke:#E20D18;stroke-width:1.327;stroke-miterlimit:10;}
	.st183{fill:none;stroke:#E20D18;stroke-width:1.4965;stroke-miterlimit:10;}
	.st184{fill:none;stroke:#E20D18;stroke-width:1.225;stroke-miterlimit:10;}
	.st185{fill:none;stroke:#E20D18;stroke-width:1.4563;stroke-miterlimit:10;}
	.st186{fill:none;stroke:#E20D18;stroke-width:1.5717;stroke-miterlimit:10;}
	.st187{fill:none;stroke:#E20D18;stroke-width:1.5529;stroke-miterlimit:10;}
	.st188{fill:#BFBEBF;stroke:#020203;stroke-miterlimit:10;}
	.st189{fill:none;stroke:#E20D18;stroke-width:2.0835;stroke-miterlimit:10;}
	.st190{fill:none;stroke:#E20D18;stroke-width:1.8751;stroke-miterlimit:10;}
	.st191{fill:none;stroke:#E20D18;stroke-width:1.6876;stroke-miterlimit:10;}
	.st192{fill:none;stroke:#E20D18;stroke-width:1.698;stroke-miterlimit:10;}
	.st193{fill:none;stroke:#E20D18;stroke-width:1.6043;stroke-miterlimit:10;}
	.st194{fill:none;stroke:#E20D18;stroke-width:1.8126;stroke-miterlimit:10;}
	.st195{fill:none;stroke:#E20D18;stroke-width:1.6147;stroke-miterlimit:10;}
	.st196{fill:none;stroke:#E20D18;stroke-width:1.5938;stroke-miterlimit:10;}
	.st197{fill:none;stroke:#E20D18;stroke-width:1.6251;stroke-miterlimit:10;}
	.st198{fill:none;stroke:#E20D18;stroke-width:1.6459;stroke-miterlimit:10;}
	.st199{fill:none;stroke:#E20D18;stroke-width:1.7605;stroke-miterlimit:10;}
	.st200{fill:#FFFFFF;stroke:#1E1E1C;stroke-width:0.87;stroke-miterlimit:10;}
	.st201{fill:#FFFFFF;stroke:#1E1E1C;stroke-width:1.1;stroke-miterlimit:10;}
	.st202{fill:#FFFFFF;stroke:#1E1E1C;stroke-width:0.55;stroke-miterlimit:10;}
	.st203{fill:#FFFFFF;stroke:#1E1E1C;stroke-width:0.79;stroke-miterlimit:10;}
	.st204{fill:#FFFFFF;stroke:#1E1E1C;stroke-width:0.51;stroke-miterlimit:10;}
	.st205{fill:none;stroke:#1E1E1C;stroke-width:0.88;stroke-miterlimit:10;}
	.st206{fill:#FFFFFF;stroke:#1E1E1C;stroke-width:0.83;stroke-miterlimit:10;}
	.st207{fill:#FFFFFF;stroke:#1E1E1C;stroke-width:0.58;stroke-miterlimit:10;}
	.st208{fill:#FFFFFF;stroke:#1E1E1C;stroke-width:0.53;stroke-miterlimit:10;}
	.st209{fill:#FFFFFF;stroke:#1E1E1C;stroke-width:1.15;stroke-miterlimit:10;}
	.st210{fill:#FFFFFF;stroke:#1E1E1C;stroke-width:0.88;stroke-miterlimit:10;}
	.st211{fill:#FFFFFF;stroke:#1E1E1C;stroke-width:1.04;stroke-miterlimit:10;}
	.st212{fill:#FFFFFF;stroke:#020203;stroke-linejoin:round;stroke-miterlimit:10;}
	.st213{fill:#E52622;}
	.st214{font-size:12.4174px;}
</style>
<g>
	<path class="st0" d="M318,309.2l6.8,65.1c0,0,11.3,2.3,17.5-1.5c0-3.8,1.1-64.5,1.1-64.5S321.3,309.2,318,309.2z"/>
	<path class="st0" d="M284.4,299.4c-1.8,0.5-3.7,1.2-5.2,2.4c-1.5,1.2-2.5,3.2-1.9,5.1c0.5,1.9,2.5,3.1,4.4,3.4
		c1.9,0.3,3.9-0.2,5.8-0.6c31.3-7.1,62.6-6.2,94.6-5.1c2.7,0.1,5.9-1,6-3.7c0.1-3.1-1.2-4.2-4.9-5.2c-7.3-2-21.6-3.3-29.2-3.8
		c-15-1-30.1-0.4-44.9,2C300.9,295.1,292.5,297,284.4,299.4z"/>
	<path class="st0" d="M277.7,303.6c36.4-8.3,72.9-10.4,110-6.3"/>
	<path class="st0" d="M305.8,306.3c0.6,1.2,1.9,2,3.2,2.4c1.3,0.4,2.7,0.4,4.1,0.4c13.3,0.2,26.8,0.1,39.9-2.2
		c0.8-0.1,1.7-0.3,2.4-0.8s1.2-1.3,1-2.2"/>
</g>
<g>
	<g>
		<g>
			<path class="st25" d="M190.9,502.8c0,0-9.4,1-9.6,2.3c-0.2,1.3-4.6,24.8,4.8,24.7c9.4-0.1,15.8-2.6,16.4-4.1
				C203.1,524.3,190.9,502.8,190.9,502.8z"/>
			<path class="st25" d="M358.2,501.4c0,0,5,0.2,7.4,1.4c2.5,1.1,4.3,3.2,4.3,3.2s-2.2,20.7-3.4,21.5c-1.3,0.8-6.6,1.4-15.6,0
				s1-25.4,1-25.4L358.2,501.4z"/>
			<path class="st25" d="M261.9,521.5l1.8,35.4l10.1,3l10.1-2.2l1.8-36.2c0,0,4-2.6,17.8-1c13.8,1.6,104.6,9.3,104.6,9.3v2.4
				c0,0,5.8,1.4,8.8,1.6s4.8,0,4.8,0l4.6-1.6l-1-15.2l-42.7-8.6l-37.5-7l10.5-0.8l0.8,1.4l3.8-1.4l-0.6-9.2l-5.3-6.9l-64.1,3.2
				l-33,0.8l-42.7-1.4l-1.4-1l-17.3-0.8l-3.8,1l-3.4,5.4l-0.6,1.6v9l10.8,0.6l-34.1,7l-2.4-0.6l-36.7,7.4l-1,1l-1.8,0.8l-0.8,16.6
				l13.8,0.8l4.2-2.2l-0.2-2.2l113.8-11.3C253.5,520.3,260.3,519.1,261.9,521.5z"/>
			<line class="st24" x1="259.8" y1="490.3" x2="198.6" y2="502.8"/>
			<line class="st24" x1="290.3" y1="490.6" x2="345.3" y2="501.2"/>
			<polyline class="st25" points="263.3,546.5 269.7,540.7 278,540.7 284.6,546.5 			"/>
			<polyline class="st25" points="263.3,531.5 269.9,525.7 278.3,525.7 284.6,531.5 			"/>
			<line class="st24" x1="269.7" y1="540.7" x2="269.5" y2="493"/>
			<line class="st24" x1="278.2" y1="493" x2="278" y2="540.7"/>
			<line class="st24" x1="359.7" y1="491.4" x2="311.3" y2="494.7"/>
			<line class="st24" x1="336.7" y1="485.3" x2="341.1" y2="492.7"/>
			<path class="st24" d="M285.9,521.5c0,0-1-15.7,2.2-17.4c3.2-1.8,14.3-0.6,14.3-0.6l117.9,18.7l5.2-5.2"/>
			<path class="st24" d="M261.9,521.5c0,0,1.4-19,0-19.3c-1.4-0.2-27.3,3.8-27.3,3.8l-72.4,13.6l-34,6.8l-5.6-7.8"/>
			<line class="st24" x1="164.5" y1="509.9" x2="169" y2="518.4"/>
			<line class="st24" x1="386.9" y1="508.4" x2="382.4" y2="516.8"/>
			<polyline class="st25" points="188.5,491.6 206.7,493.5 211,487.2 213.1,486 			"/>
			<line class="st24" x1="231.6" y1="496.1" x2="206.7" y2="493.5"/>
		</g>
		<path class="st25" d="M289.4,450.5c0,1.2,0.6,41.3,0.6,41.3s-12.3,6.5-30.8-0.7c0.6-16.6,1.3-41.1,1.3-41.1"/>
		<path class="st25" d="M263.4,448.2c-4.7,0.4-3,1.7-3,1.7s8.2,4.3,28.9,0.6c0,0,1.3-1.7-3-1.8"/>
		<g>
			<circle class="st24" cx="122.5" cy="555.3" r="11.7"/>
			<path class="st24" d="M110.9,555.8l-0.8,1.4c-0.5,0.8-1.6,0.9-2.2,0.2l-1.8-2.4c-0.3-0.5-0.7-0.9-0.9-1.4
				c-0.3-0.7-0.2-1.6-0.2-2.4c0.5-4.2,2.6-8.1,6-10.8c3.1-2.5,7.2-3.7,11.2-3.4c0.4,0,0.7,0.2,1,0.6c0.5,0.7,1.2,1.2,2,1.5
				c1,0.4,2,0.5,3,0.6c1.8,0.2,3.5,0.4,5.3,0.1c0.9-0.2,1.8-0.4,2.5-0.8c0.9-0.5,1.8,0.1,1.9,1c0.1,1.3,0.3,2.5,0.5,3.8
				c0.3,2.2,0.6,4.4-0.1,6.5c-0.6,2.1-2.2,4-4.3,4.4"/>
			<path class="st24" d="M122.4,537.1c-0.5,0.6-0.4,1.6,0,2.3c0.4,0.7,1.1,1.2,1.8,1.5s1.6,0.5,2.4,0.6"/>
			<path class="st24" d="M136.3,538.6c0-0.5,0-1,0-1.4v-1.3"/>
			<line class="st24" x1="122.7" y1="537" x2="122.7" y2="535.8"/>
		</g>
		<g>
			<circle class="st24" cx="425.4" cy="553.3" r="11.7"/>
			<path class="st24" d="M436.9,553.7l0.8,1.4c0.5,0.8,1.6,0.9,2.2,0.2l1.8-2.4c0.3-0.5,0.7-0.9,0.9-1.4c0.3-0.7,0.2-1.6,0.2-2.4
				c-0.5-4.2-2.6-8.1-6-10.8c-3.1-2.5-7.2-3.7-11.2-3.4c-0.4,0-0.7,0.2-1,0.6c-0.5,0.7-1.2,1.2-2,1.5c-1,0.4-2,0.5-3,0.6
				c-1.8,0.2-3.5,0.4-5.3,0.1c-0.9-0.2-1.8-0.4-2.5-0.8c-0.9-0.5-1.8,0.1-1.9,1c-0.1,1.3-0.3,2.5-0.5,3.8c-0.3,2.2-0.6,4.4,0.1,6.5
				c0.6,2.1,2.2,4,4.3,4.4"/>
			<path class="st24" d="M425.4,535c0.5,0.6,0.4,1.6,0,2.3c-0.4,0.7-1.1,1.2-1.8,1.5s-1.6,0.5-2.4,0.6"/>
			<path class="st24" d="M411.5,536.6c0-0.5,0-1,0-1.4v-1.3"/>
			<line class="st24" x1="425.2" y1="534.8" x2="425.2" y2="533.6"/>
		</g>
		<g>
			<path class="st24" d="M284,562.4l-0.2,23.8l-20.4-0.1c0,0,0-19.6,0.1-23.7c0-0.4,0.3-0.8,0.8-0.8l18.8-0.2
				C283.6,561.4,284.1,561.9,284,562.4z"/>
			<path class="st24" d="M263.8,564.8c-1.4,0.6-2.9,1.1-3.8,2.4c-0.6,1-0.8,2.2-0.9,3.4c-0.2,2.7-0.4,5.5-0.4,8.2
				c0,2.6,0.1,5.1,0.9,7.6c0.8,2.4,2.3,4.7,4.6,5.9c0.9,0.5,2.2,0.7,2.8-0.2c0.3-0.4,0.3-1,0.3-1.4c0.1-1.5,0.1-3,0-4.5"/>
			<path class="st24" d="M284,564.8c1.4,0.6,2.9,1.1,3.8,2.4c0.6,1,0.8,2.2,0.9,3.4c0.2,2.7,0.4,5.5,0.4,8.2c0,2.6-0.1,5.1-0.9,7.6
				c-0.8,2.4-2.3,4.7-4.6,5.9c-0.9,0.5-2.2,0.7-2.8-0.2c-0.3-0.4-0.3-1-0.3-1.4c-0.1-1.5-0.1-3,0-4.5"/>
			<path class="st24" d="M264.3,561.5c0-1,0-2,0-3c0-0.4,0.3-0.6,0.7-0.6c1.9,0.3,6.8,1.3,9.1,1.2c1.8-0.1,5.3-0.2,8.6-1.1
				c0.2-0.1,0.6,0.2,0.6,0.4l0.1,3.4"/>
		</g>
	</g>
	<g>
		<polyline class="st24" points="327.4,430.5 328.1,431.3 326.5,432.5 328.4,432.9 326.6,434.1 328.5,434.7 327,435.8 328.6,436.3 
			327.1,437.5 328.7,438.2 327.4,439.4 328.9,440 327.6,441 329,441.6 328.2,442.6 		"/>
		<polyline class="st24" points="305.3,433 306,433.8 304.4,435 306.3,435.3 304.5,436.6 306.4,437.2 304.9,438.2 306.4,438.8 
			305,440 306.6,440.6 305.3,441.8 306.8,442.5 305.5,443.4 306.9,444 306.1,445 		"/>
		<line class="st24" x1="328.1" y1="431.4" x2="305" y2="434.4"/>
		<line class="st24" x1="328.4" y1="432.9" x2="305.2" y2="435.9"/>
		<line class="st24" x1="328.2" y1="434.7" x2="305.7" y2="437.3"/>
		<line class="st24" x1="328.5" y1="436.2" x2="305.6" y2="438.8"/>
		<line class="st24" x1="328.7" y1="438.2" x2="305.8" y2="440.5"/>
		<line class="st24" x1="328.7" y1="440" x2="306" y2="442.1"/>
		<line class="st24" x1="329" y1="441.6" x2="306.2" y2="443.4"/>
		<path class="st25" d="M305.1,445.7l24.9-2.6l1.2,16.7c-4.4,0.8-7.3,1.6-10.9,2.1c-0.9,0.1-1.8,0.2-2.7,0.2
			c-3.8,0.2-6.8,0.3-10.9,0.2L305.1,445.7z"/>
	</g>
</g>
<g>
	<path class="st138" d="M243.7,268.5l0.6,1.8c0,0,16.2,25.5,23,45c0.4,1.1,0.6,2.2,0.7,3.4c0.8,6.4,2.4,29.3-11.9,40.7l-41.9,29
		L170,281.9L159.4,24.4l8.6-9.5c1.4-1.2,2.5-1,4,0c1.5,1,2.1,2.3,2.1,2.3c1.3,0.2,2.7,0.9,4.1,1.9c4.2,3.1,7.1,7.6,8.3,12.7
		c3.7,16.2,3.7,44.6,3.7,44.6s0.4,3.9,1,14.9c0.6,11,3.7,21.2,3.7,21.2l2.1,2.5l5.5,6.1l13.3,12.6l4,3.8c3.3,3,6,6.5,8,10.5
		c0.9,1.7,1.6,3.5,2.1,5.4c1.4,5.8,1.2,10.3,1.5,15.6c0.3,5.3-1.8,14.7-1.8,14.7l-0.9,6.9"/>
	<path class="st138" d="M177,381.7l-1.9-49.7l73.3,24.1c0,0,16.5-0.4,26.3-2.8c11-2.7,17.9-6.4,17.9-6.4s20.9-12,32.1-14.9
		c8.8-2.3,14.9-2.5,38.9,0.1c5.4,0.5,10.6,2.4,14.4,4.7c13.8,8.4,15.2,10.5,15.2,10.5c8-0.3,19.2,4.2,19.2,4.2
		c6.5,2.1,10.2,6.4,13.2,11.6c0.2,0.3,2.3,4,2.5,4.3c2,3.7,3.4,7.3,5.3,11.1c2.5,5,4.5,10.3,3.6,15.9c-0.8,4.9,0.1,10.6-2.7,14.9
		c-2.9,4.4-6.4,8.3-11.1,11.2c0,6.3-24,8.2-24,8.2l-51.7,1.9l-29.1,1.1l-1.7,0.1l-20.7,0.8h-0.5l-36.4,1.4l0.4,2.7
		c0,0,2.2,0.5-13.6,1.4c-15.8,0.8-66.5,0-66.5,0l-6.4-5.1l-5.2-31.7C167.7,401.1,166.3,389.3,177,381.7
		C177,381.7,177.1,381.7,177,381.7"/>
	<path class="st16" d="M251.8,435.5l3.4-3.7l3.3-6.3l-11.3-17.1c0,0-8.9-3.1-11.8-4.4c-2.9-1.3-7.4-1.8-16.2-11.7
		c0,0-5.4-7.4-5.8-8.6c-0.5-1.3-8.6-8.3-9.5-8.5l-2.2,2.2c0,0,7.4,4.5,9.4,8.9c2.1,4.4,7.8,13.1,11.9,16.2c4.1,3.2,12.5,9.1,20.8,10
		c0,0,0.5-2.1,11,16.8l-2.1,4.5L251.8,435.5z"/>
	<path class="st16" d="M201.7,377.6C201.7,377.6,201.7,377.5,201.7,377.6"/>
	<path class="st16" d="M251.8,435.5c0,0,2,0.5-12.5,1.4c-14.5,0.8-61.1,0-61.1,0l-5.9-5.1l-4.8-31.7c0,0-1.3-11.9,8.5-19.4l0,0"/>
	<path class="st16" d="M180.6,388.7c-7.2,5.9-5.3,15.5-5.3,15.5L179,429l4.5,4l46.8,0.2l11.1-0.7l2-4.9c-1.5-2.7-4.2-6.8-4.2-6.8
		c-3.5-0.6-18.2-6.9-24.3-14.4c-2.5-3.1-7.6-9.3-9.2-12.7s-7.3-6.9-7.3-6.9s-0.2-0.1-0.5-0.2"/>
	<polyline class="st16" points="243.4,427.4 255.2,429.3 258.5,425.5 	"/>
	<line class="st16" x1="179" y1="429" x2="172.4" y2="431.8"/>
	<g>
		<line class="st16" x1="243.8" y1="412.6" x2="239.1" y2="420.6"/>
		<path class="st16" d="M231.6,393.1l-8.4,2.3c-0.2,0-0.3-0.2-0.2-0.3l1.8-2.5l7.5-2.1L231.6,393.1l6.7-2.5l3.3,7.8
			c0,0-1.6,2-5.6,3.2L231.6,393.1"/>
		<path class="st16" d="M265.3,378.3l-27.1,11l4.4,11.1c0,0,3.1-2.7,5.6-3.8c0,0,1.6-0.5,4.4,0.2c2.8,0.6,5.6-2.9,8-3.8
			s4.4-0.4,4.4-0.4s2.2,0.7,4.4-1.9c2.3-2.6,4-1.6,4-1.6s1.3-1.3,1.2-1.9c-0.1-0.6-7.4-8.9-7.4-8.9S266.7,377.7,265.3,378.3z"/>
		<polyline class="st16" points="266.2,378.5 265.5,381.2 241.8,391.2 244.3,396.8 242.7,400.4 		"/>
		<polyline class="st16" points="274.1,387.3 271.7,388 265.5,381.2 		"/>
		<line class="st16" x1="244.3" y1="396.8" x2="271.7" y2="388"/>
		<polyline class="st16" points="232.2,390.6 238.2,389.2 241.8,391.2 		"/>
	</g>
	<path class="st16" d="M360,367.5L360,367.5c0.3,0,0.4,0.1,0.4,0.1s14.4,1.8,33.2,14s26.8,31.8,26.8,38c0,6.3-22.1,8.2-22.1,8.2
		l-47.5,1.9"/>
	<line class="st16" x1="258.3" y1="433.7" x2="252.8" y2="433.9"/>
	<path class="st16" d="M334.1,367.9c-15.6,1.9-36.8,7.1-59.8,20.3"/>
	<path class="st16" d="M361.1,363.2c0,0,16.6,5.2,26.6,9.6"/>
	<path class="st16" d="M334.6,364c-16.2,2-38.2,7.4-61.3,20.7"/>
	<path class="st16" d="M387.6,372.8c0,0,15.3,9,22,16.7c6.6,7.7,10.4,11.9,12.5,20.6c2.1,8.7-2.4,11.3-2.4,11.3s16.6-7.7,17.1-22.9"
		/>
	<path class="st138" d="M215.1,386.6c0,0,25.4-6,38.7-21.4c13.2-15.4-14.5-56.9-14.5-56.9l-21-35.1c0,0-9.3-20.2-11.6-26.6
		c-2.3-6.4-7.1-25-5.4-37c1.7-12.1,4.2-22.1,4.2-22.1s6.2-20.1,3.4-31c-2.7-10.9-4.7-13.4-13.2-23.4c-5.4-6.4-13.5-15.8-18.6-21.7
		c-3.5-4.1-6.4-8.8-8.2-13.9c-1.4-3.9-2.8-8.4-3.2-12.1c-0.7-7.9-1.2-33.6-0.9-38.3s2.5-25.6,2.5-25.6s0.1-5.4,0.4-5.7
		c0.3-0.4-3.8,1.1-6.3,3.6c-2.5,2.5-3.7,4.4-4.4,10.5c-0.6,6.2-1.7,10-1.7,10s-1.5,8.3-2.1,18.1c-0.6,9.7-2.7,39.6-2.7,39.6
		s-0.4,10.1,0,13.9s-0.2,8.5-0.2,8.5l-1,31.9l3.2,28.7l3.7,29.3l2.8,22.5l2.1,14.5l2.6,21.6l2.4,26.2c0,0-0.3,11.3,0.9,22.7
		c1.2,11.4,5.4,35.2,5.4,35.2l3.4,8.6L215.1,386.6z"/>
	<path class="st16" d="M216.5,388.8c0,0,27-6.8,40.2-22.2c13.2-15.4-12.8-57.7-12.8-57.7L223.4,274c0,0-10.1-19.9-12.3-26.2
		c-2.3-6.4-7.6-24-6.4-36.2c1.2-10.8,2.6-17.1,3.2-20.1c0.2-0.9,1.7-5.3,2-6.1c1.3-4.5,3.9-17.8,2.5-27.4
		c-1.9-13.4-4.3-15.1-12.7-25s-21.6-26.3-21.6-26.3s-6.9-12.6-8-20.4c-1.4-9.4-2-32-1.6-36.8c0.3-4.7,2.4-26,2.4-26s0.4-2.2,0.6-4
		c0.2-1.3,1.5-2.3,2.7-1.9c0.1,0-0.5-0.5-0.4-0.5c0,0-2.4-3.7-5.4-2c-1.5,0.9-1.2,4.4-1.2,4.4"/>
	<line class="st16" x1="259.4" y1="361.6" x2="282.6" y2="359.1"/>
	<path class="st16" d="M393.1,347.4c-11.3-1-23.6,0.6-23.6,0.6l-6.5,0.8"/>
	<polyline class="st16" points="283,359.1 335.8,352.3 335.9,352.3 	"/>
	<path class="st16" d="M429.2,415.4c0,0,0.2-4.8,0.7-6c0.5-1.2,4.8-13.6,2.9-18.1c-2-4.4-3.1-11.5-20.7-14.7c0,0-13.5-1.7-20-1.3"/>
	<path class="st16" d="M260.4,357c0,0,15.7-0.9,24.3-4.5c8.6-3.6,15.5-7.5,15.5-7.5s11.7-7.2,22.1-10.1s16.2-3.5,16.2-3.5l0,0"/>
	<path class="st16" d="M338.6,330.3L338.6,330.3c-2.4,0.2-8.5,0.8-16.6,3.1c-10.3,2.9-22.1,9.8-22.1,9.8s-6.9,3.9-15.5,7.5
		c-8.6,3.6-24.3,4.5-24.3,4.5"/>
	<path class="st16" d="M228.1,282.1c0,0,5.2-3,11.3-1.8c5.8,1.1,10,6.4,10.3,6.7l0,0l0,0c0.2,0.2,2.5,2.5,4.6,6.9
		c2.3,4.6,5,23.1,5.7,26.6c0.7,3.4,1,14.5,0.9,17.3c-0.1,2.7-1.5,5.9-1.5,6.1"/>
	<path class="st16" d="M259.4,344L259.4,344c0.5-0.3,14-9.6,7.8-29c-6.4-19.7-23-47.2-23-47.2s-7.9-15.2-9.6-19.4
		c-1.7-4.2-5.8-13.8-7.7-24.2c-1.9-10.4,1.4-30.7,1.4-30.7l0.5-3.4"/>
	<path class="st16" d="M205.6,204.2c0,0,4.9-4.1,5.2-9.9c0,0-1.8,21.8-0.9,31.8c0.9,10,2.7,19.9,2.7,19.9l6.1,18.6
		c0,0-12.5-23.4-13.9-43.2C204.8,221.3,203.9,212.6,205.6,204.2z"/>
	<path class="st16" d="M251.9,324c0,0-0.5-13.6-7.2-22.1s-9.7-8.1-9.7-8.1l-6.8-11.6c0,0,8.8-0.5,14.1,2.5c5.3,3,8.3,5.7,12.1,14
		c0,0,2.9,4.3,5.4,20.1"/>
	<line class="st16" x1="233.4" y1="403.5" x2="235.9" y2="401.7"/>
	<path class="st16" d="M194.8,112c0,0,4.3,7.9,4.6,12.4c0.4,4.5,0.4,8.4,0.4,8.4s4.2,4.9,8.1,10.1c3.9,5.1,5.7,16.6,6.1,26
		c0.3,9.3-3.2,25.4-3.2,25.4l15.6,42l14.1,30.6l9.3,20.1"/>
	<path class="st138" d="M252.3,488.2h0.8c0,0,1.4-2.5,1.1-4.4c-0.4-1.8,0.6-2.7,0.6-2.7s0.6-0.5,0.5-2c-0.3-1.5,1.2-2.4,1.2-2.4
		s0.3,0.8,1-3.2c0.7-4,2.6-9.5,2-10.6l-1.5-0.5l-8.2,22.5L252.3,488.2z"/>
	<path class="st138" d="M254.4,461.6l5,1.5l-3.9,11.7c0,0-1.3,0.5-1.5,1.6c-0.2,1.1-0.2,2.6-1.4,4.1c0,0-0.3,0.7,0.5,2.1
		c0.7,1.5-1.3,6.4-1.5,6.4s-4.4-0.9-4.4-1.5c0-0.6-0.5-1.6,1.2-6.7C250.1,475.5,254.4,461.6,254.4,461.6z"/>
	<g>
		<polyline class="st138" points="197,378.3 196.6,379 180.1,380.3 		"/>
		<polyline class="st138" points="175.9,359 175.9,362.3 176.3,382.7 180.2,385.8 181.6,397.6 186.9,408.6 195.8,407.9 199,395.9 
			197.7,384.7 201.7,380.7 		"/>
		<line class="st138" x1="186.5" y1="304.1" x2="179.7" y2="304.8"/>
		<polyline class="st138" points="176.3,382.7 172.5,327.3 175.9,300.6 190,299.1 198,325.2 201.7,380.7 		"/>
		<polyline class="st16" points="180.1,385.3 176.6,326.8 179.7,304.8 176.1,300.8 		"/>
		<polyline class="st16" points="179.7,304.8 186.5,304.1 189.8,299.6 		"/>
		<circle class="st16" cx="185.2" cy="332" r="3.1"/>
	</g>
	<path class="st16" d="M199.8,132.9c0,0,17.7,15.9,18.9,29.8c1.2,13.9,0.1,46.7,0,51.6"/>
	<polygon class="st138" points="263.3,433.6 256,461.7 258.5,462.5 267.1,433.2 	"/>
</g>
<g>
	<line class="st139" x1="88.8" y1="431.6" x2="88.8" y2="14.6"/>
	<line class="st140" x1="77.9" y1="437.8" x2="163" y2="437.8"/>
	<line class="st141" x1="82.3" y1="13.1" x2="170.7" y2="13.1"/>
	<polygon class="st126" points="88.8,13.1 95.2,25.3 82.3,25.3 	"/>
	<polygon class="st126" points="88.8,438.1 82.3,425.9 95.2,425.9 	"/>
</g>
<line class="st142" x1="293.5" y1="592.7" x2="516.7" y2="592.7"/>
<line class="st143" x1="510.1" y1="588.4" x2="510.1" y2="317.4"/>
<g>
	<rect x="482" y="433.3" class="st144" width="64.1" height="16.6"/>
</g>
<line class="st145" x1="375.4" y1="314.2" x2="516.7" y2="314.2"/>
<polygon class="st126" points="510.3,314.4 516.7,326.8 503.9,326.8 "/>
<polygon class="st126" points="510.2,593.1 503.9,580.7 516.7,580.7 "/>
<text transform="matrix(0.9128 0 0 1 485.0386 446.2919)" class="st126 st146 st147">62 a 69cm</text>
<rect x="66.7" y="229.6" class="st144" width="44.3" height="15"/>
<text transform="matrix(1 0 0 1 70.0971 241.704)" class="st126 st146 st147">82cm</text>
<g>
	<line class="st148" x1="197.8" y1="460.3" x2="429.9" y2="460.3"/>
	<line class="st149" x1="436.8" y1="418.9" x2="436.8" y2="465.4"/>
	<line class="st150" x1="194.3" y1="444.5" x2="194.3" y2="466.6"/>
	<polygon class="st126" points="437.2,460.2 424.7,466.6 424.7,453.8 	"/>
	<polygon class="st126" points="194.8,460.2 207.3,466.6 207.3,453.8 	"/>
</g>
<polygon class="st5" points="377.3,467.4 340.1,468.8 340.2,453 377.2,453 "/>
<text transform="matrix(1 0 0 1 341.0718 465.2987)" class="st126 st146 st147">56cm</text>
<path class="st21" d="M277.1,359.7c0,0,46.9-14.1,59.7-14.7"/>
<path class="st21" d="M363.7,344c0,0,5.2,0.1,11.7,3.5"/>
<path class="st0" d="M213.2,161.3c-0.1,4.1,9.5-8.9,3.6-24.7c-4.5-12.1-8.4-19.1-18.8-26.6c-0.6-0.4-1.2-0.8-2-0.9
	c-1.1-0.1-2,0.8-2.8,1.6c-2.1,2.1-4.2,5.3-5,8.2c0,0,13.1,15.6,14.3,17.2C209.5,146.1,213.3,158,213.2,161.3z"/>
<path class="st16" d="M196.1,109.3c-1.4,6.1-1.3,13.5,0.3,19.6"/>
<path class="st16" d="M201.2,112.6c3.9,9.5,5.8,19.9,5.4,30.2"/>
<polyline class="st17" points="197.7,384.7 193.4,325.1 186.5,304.1 "/>
<line class="st0" x1="172.6" y1="326.8" x2="176.8" y2="326.8"/>
<line class="st0" x1="193.4" y1="325.7" x2="198" y2="325.2"/>
<line class="st151" x1="286.4" y1="433" x2="286.4" y2="451.3"/>
<line class="st151" x1="263.4" y1="446.1" x2="263.4" y2="451.3"/>
<g>
	<path class="st0" d="M331.1,337.2l8.5,81c0,0,14.1,2.8,21.8-1.9c0-4.7,1.3-80.3,1.3-80.3S335.2,337.2,331.1,337.2z"/>
	<path class="st0" d="M289.3,325c-2.3,0.7-4.6,1.4-6.5,3c-1.8,1.5-3.1,4-2.4,6.3c0.7,2.3,3.1,3.8,5.5,4.2c2.4,0.3,4.9-0.3,7.2-0.8
		c38.9-8.9,77.9-7.7,117.8-6.4c3.4,0.1,7.4-1.2,7.5-4.5c0.2-3.8-1.5-5.2-6.1-6.5c-9.1-2.5-26.9-4.1-36.3-4.7
		c-18.6-1.3-37.4-0.5-55.9,2.5C309.8,319.7,299.4,322,289.3,325z"/>
	<path class="st0" d="M281,330.3c45.3-10.3,90.7-12.9,137-7.9"/>
	<path class="st0" d="M315.9,333.6c0.8,1.5,2.3,2.5,3.9,3c1.6,0.5,3.4,0.5,5.1,0.6c16.6,0.3,33.3,0.1,49.7-2.7c1-0.2,2.1-0.4,3-1
		c0.9-0.6,1.5-1.7,1.3-2.7"/>
	<path class="st0" d="M343.2,337.7c0,1.7-0.1,3.4-0.1,5"/>
	<path class="st0" d="M351.7,337.2c0,1.8-0.1,3.6-0.1,5.4"/>
	<path class="st0" d="M353.2,347.8h-10.4c-1.6,0-2.9-1.3-2.9-2.9l0,0c0-1.6,1.3-2.9,2.9-2.9h10.4c1.6,0,2.9,1.3,2.9,2.9l0,0
		C356.1,346.5,354.8,347.8,353.2,347.8z"/>
	<path class="st0" d="M339.5,430.6c0,0,13.6,2,21.4-0.4c1.8,2.9,10.1,17.5,1.4,19.3c-8.8,1.8-14.5,1.9-22.8,0
		C331.3,447.6,339.5,430.6,339.5,430.6z"/>
	<path class="st0" d="M341,418.5l-0.7,12.3c0,0,10.5,1.8,19.3-0.2c0-4.8,0.3-13.5,0.3-13.5S354.7,420.3,341,418.5z"/>
</g>
<g>
	<g>
		<polygon class="st35" points="463.6,581.8 476.3,581.8 470,592.5 		"/>
	</g>
	<line class="st34" x1="469.9" y1="588.2" x2="469.9" y2="374"/>
	<g>
		<polygon class="st35" points="463.8,376.7 476.5,376.7 470.1,365.9 		"/>
		<line class="st34" x1="412" y1="365.4" x2="476.4" y2="365.4"/>
	</g>
	<g>
		<polygon class="st35" points="463.6,435.9 476.3,435.9 470,425.2 		"/>
	</g>
	<g>
		<polygon class="st35" points="463.6,415.8 476.3,415.8 470,426.6 		"/>
		<line class="st34" x1="427.5" y1="426.1" x2="476.3" y2="426.1"/>
	</g>
</g>
<g id="texto_10_">
	<rect x="443.3" y="388.8" class="st36" width="54.3" height="15.7"/>
	<text transform="matrix(1.0849 0 0 1 454.3906 400.6305)" class="st213 st146 st214">13cm</text>
</g>
<rect x="431.1" y="482.1" class="st144" width="70.9" height="15"/>
<text transform="matrix(1 0 0 1 434.1392 493.7323)" class="st126 st146 st147">38 a 48cm</text>
</svg>
