<?xml version="1.0" encoding="utf-8"?>
<!-- Generator: Adobe Illustrator 23.0.1, SVG Export Plug-In . SVG Version: 6.00 Build 0)  -->
<svg version="1.1" id="Camada_1" xmlns="http://www.w3.org/2000/svg" xmlns:xlink="http://www.w3.org/1999/xlink" x="0px" y="0px"
	 viewBox="0 0 600 600" style="enable-background:new 0 0 600 600;" xml:space="preserve">
<style type="text/css">
	.st0{fill:#FFFFFF;stroke:#1E1E1C;stroke-miterlimit:10;}
	.st1{fill:none;stroke:#1E1E1C;stroke-width:0.6333;stroke-miterlimit:10;}
	.st2{fill:#FFFFFF;stroke:#1E1E1C;stroke-width:1.2665;stroke-miterlimit:10;}
	.st3{fill:#FFFFFF;stroke:#1E1E1C;stroke-width:0.6333;stroke-miterlimit:10;}
	.st4{fill:none;stroke:#1E1E1C;stroke-width:0.9721;stroke-miterlimit:10;}
	.st5{fill:#FFFFFF;}
	.st6{fill:none;stroke:#1E1E1C;stroke-width:0.9881;stroke-miterlimit:10;}
	.st7{fill:none;stroke:#1E1E1C;stroke-width:1.2665;stroke-miterlimit:10;}
	.st8{fill:#FFFFFF;stroke:#1E1E1C;stroke-width:0.9721;stroke-miterlimit:10;}
	.st9{fill:#FFFFFF;stroke:#1E1E1C;stroke-width:0.9091;stroke-miterlimit:10;}
	.st10{fill:#FFFFFF;stroke:#1E1E1C;stroke-width:0.5889;stroke-miterlimit:10;}
	.st11{fill:#FFFFFF;stroke:#1E1E1C;stroke-width:1.019;stroke-miterlimit:10;}
	.st12{fill:#FFFFFF;stroke:#1E1E1C;stroke-width:0.953;stroke-miterlimit:10;}
	.st13{fill:#FFFFFF;stroke:#1E1E1C;stroke-width:0.6639;stroke-miterlimit:10;}
	.st14{fill:#FFFFFF;stroke:#1E1E1C;stroke-width:0.6174;stroke-miterlimit:10;}
	.st15{fill:#FFFFFF;stroke:#1E1E1C;stroke-width:1.3277;stroke-miterlimit:10;}
	.st16{fill:none;stroke:#1E1E1C;stroke-width:0.75;stroke-miterlimit:10;}
	.st17{fill:none;stroke:#1E1E1C;stroke-miterlimit:10;}
	.st18{fill:none;stroke:#1E1E1C;stroke-width:1.3977;stroke-miterlimit:10;}
	.st19{fill:none;stroke:#1E1E1C;stroke-width:2;stroke-miterlimit:10;}
	.st20{fill:#FFFFFF;stroke:#1E1E1C;stroke-width:0.5;stroke-miterlimit:10;}
	.st21{fill:none;stroke:#1E1E1C;stroke-width:0.5;stroke-miterlimit:10;}
	.st22{fill:none;stroke:#1E1E1C;stroke-width:1.0033;stroke-miterlimit:10;}
	.st23{fill:#FFFFFF;stroke:#020203;stroke-width:0.75;stroke-miterlimit:10;}
	.st24{fill:none;stroke:#020203;stroke-miterlimit:10;}
	.st25{fill:#FFFFFF;stroke:#020203;stroke-miterlimit:10;}
	.st26{fill:none;stroke:#020203;stroke-width:0.5;stroke-miterlimit:10;}
	.st27{fill:#FFFFFF;stroke:#020203;stroke-linejoin:round;}
	.st28{fill:none;stroke:#020203;stroke-linejoin:round;}
	.st29{fill:none;stroke:#020203;stroke-width:0.75;stroke-miterlimit:10;}
	.st30{fill:none;stroke:#020203;stroke-width:0.25;stroke-miterlimit:10;}
	.st31{fill:none;stroke:#E52624;stroke-width:1.5;stroke-miterlimit:10;}
	.st32{fill:#E52624;}
	.st33{fill:#FFFFFF;stroke:#020203;stroke-width:0.5;stroke-miterlimit:10;}
	.st34{fill:none;stroke:#E52522;stroke-width:1.5;stroke-miterlimit:10;}
	.st35{fill:#E52522;}
	.st36{fill:#E7E6E6;}
	.st37{fill:none;stroke:#E20D18;stroke-width:2;stroke-miterlimit:10;}
	.st38{fill:none;stroke:#E20D18;stroke-width:1.8;stroke-miterlimit:10;}
	.st39{fill:none;stroke:#E20D18;stroke-width:1.62;stroke-miterlimit:10;}
	.st40{fill:#E20D18;}
	.st41{fill:none;stroke:#E20D18;stroke-width:1.54;stroke-miterlimit:10;}
	.st42{fill:none;stroke:#E20D18;stroke-width:1.74;stroke-miterlimit:10;}
	.st43{fill:none;stroke:#E20D18;stroke-width:1.55;stroke-miterlimit:10;}
	.st44{fill:none;stroke:#E20D18;stroke-width:1.56;stroke-miterlimit:10;}
	.st45{fill:none;stroke:#E20D18;stroke-width:1.53;stroke-miterlimit:10;}
	.st46{fill:none;stroke:#E20D18;stroke-width:1.58;stroke-miterlimit:10;}
	.st47{fill:none;stroke:#E20D18;stroke-width:1.69;stroke-miterlimit:10;}
	.st48{fill:none;stroke:#E20D18;stroke-width:1.43;stroke-miterlimit:10;}
	.st49{fill:none;stroke:#E20D18;stroke-width:1.48;stroke-miterlimit:10;}
	.st50{fill:none;stroke:#E20D18;stroke-width:1.67;stroke-miterlimit:10;}
	.st51{fill:none;stroke:#E20D18;stroke-width:1.65;stroke-miterlimit:10;}
	.st52{fill:#FFFFFF;stroke:#020203;stroke-width:3;stroke-miterlimit:10;}
	.st53{fill:none;stroke:#E20D18;stroke-width:1.41;stroke-miterlimit:10;}
	.st54{fill:none;stroke:#E20D18;stroke-width:1.59;stroke-miterlimit:10;}
	.st55{fill:none;stroke:#1E1E1C;stroke-width:1.05;stroke-miterlimit:10;}
	.st56{fill:none;stroke:#1E1E1C;stroke-width:0.52;stroke-miterlimit:10;}
	.st57{fill:none;stroke:#1E1E1C;stroke-width:0.8;stroke-miterlimit:10;}
	.st58{fill:none;stroke:#1E1E1C;stroke-width:0.49;stroke-miterlimit:10;}
	.st59{fill:none;stroke:#1E1E1C;stroke-width:0.84;stroke-miterlimit:10;}
	.st60{fill:none;stroke:#1E1E1C;stroke-width:0.79;stroke-miterlimit:10;}
	.st61{fill:none;stroke:#1E1E1C;stroke-width:0.55;stroke-miterlimit:10;}
	.st62{fill:none;stroke:#1E1E1C;stroke-width:0.51;stroke-miterlimit:10;}
	.st63{fill:none;stroke:#1E1E1C;stroke-width:1.1;stroke-miterlimit:10;}
	.st64{fill:none;stroke:#1E1E1C;stroke-width:0.25;stroke-miterlimit:10;}
	.st65{fill:none;stroke:#1E1E1C;stroke-width:1.07;stroke-miterlimit:10;}
	.st66{fill:none;stroke:#1E1E1C;stroke-width:0.94;stroke-miterlimit:10;}
	.st67{fill:none;stroke:#1E1E1C;stroke-width:0.56;stroke-miterlimit:10;}
	.st68{fill:none;stroke:#E20D18;stroke-width:1.5;stroke-miterlimit:10;}
	.st69{fill:none;stroke:#E20D18;stroke-width:1.49;stroke-miterlimit:10;}
	.st70{fill:none;stroke:#E20D18;stroke-miterlimit:10;}
	.st71{fill:none;stroke:#1E1E1C;stroke-width:0.78;stroke-miterlimit:10;}
	.st72{fill:none;stroke:#1E1E1C;stroke-width:1.08;stroke-miterlimit:10;}
	.st73{fill:none;stroke:#1E1E1C;stroke-width:0.54;stroke-miterlimit:10;}
	.st74{fill:none;stroke:#1E1E1C;stroke-width:0.83;stroke-miterlimit:10;}
	.st75{fill:none;stroke:#1E1E1C;stroke-width:0.77;stroke-miterlimit:10;}
	.st76{fill:none;stroke:#1E1E1C;stroke-width:0.87;stroke-miterlimit:10;}
	.st77{fill:none;stroke:#1E1E1C;stroke-width:0.81;stroke-miterlimit:10;}
	.st78{fill:none;stroke:#1E1E1C;stroke-width:1.13;stroke-miterlimit:10;}
	.st79{fill:none;stroke:#1E1E1C;stroke-width:0.21;stroke-miterlimit:10;}
	.st80{fill:#FFFFFF;stroke:#1E1E1C;stroke-width:0.84;stroke-miterlimit:10;}
	.st81{fill:none;stroke:#1E1E1C;stroke-width:0.42;stroke-miterlimit:10;}
	.st82{fill:none;stroke:#1E1E1C;stroke-width:0.24;stroke-miterlimit:10;}
	.st83{fill:none;stroke:#E20D18;stroke-width:1.6;stroke-miterlimit:10;}
	.st84{fill:none;stroke:#E20D18;stroke-width:1.64;stroke-miterlimit:10;}
	.st85{fill:none;stroke:#E20D18;stroke-width:1.484;stroke-miterlimit:10;}
	.st86{fill:none;stroke:#E20D18;stroke-width:1.4075;stroke-miterlimit:10;}
	.st87{fill:none;stroke:#E20D18;stroke-width:1.5853;stroke-miterlimit:10;}
	.st88{fill:none;stroke:#E20D18;stroke-width:1.2981;stroke-miterlimit:10;}
	.st89{fill:none;stroke:#E20D18;stroke-width:0.9733;stroke-miterlimit:10;}
	.st90{fill:none;stroke:#E20D18;stroke-width:0.9159;stroke-miterlimit:10;}
	.st91{fill:none;stroke:#E20D18;stroke-width:1.4439;stroke-miterlimit:10;}
	.st92{fill:none;stroke:#E20D18;stroke-width:1.0062;stroke-miterlimit:10;}
	.st93{fill:none;stroke:#E20D18;stroke-width:0.9468;stroke-miterlimit:10;}
	.st94{fill:none;stroke:#E20D18;stroke-width:1.6749;stroke-miterlimit:10;}
	.st95{fill:none;stroke:#E20D18;stroke-width:1.6513;stroke-miterlimit:10;}
	.st96{fill:#FFFFFF;stroke:#1E1E1C;stroke-width:0.8664;stroke-miterlimit:10;}
	.st97{fill:#FFFFFF;stroke:#1E1E1C;stroke-width:1.0973;stroke-miterlimit:10;}
	.st98{fill:none;stroke:#1E1E1C;stroke-width:1.0973;stroke-miterlimit:10;}
	.st99{fill:#FFFFFF;stroke:#1E1E1C;stroke-width:0.5487;stroke-miterlimit:10;}
	.st100{fill:none;stroke:#1E1E1C;stroke-width:0.8422;stroke-miterlimit:10;}
	.st101{fill:#FFFFFF;stroke:#1E1E1C;stroke-width:0.7877;stroke-miterlimit:10;}
	.st102{fill:#FFFFFF;stroke:#1E1E1C;stroke-width:0.5103;stroke-miterlimit:10;}
	.st103{fill:#FFFFFF;stroke:#1E1E1C;stroke-width:0.8422;stroke-miterlimit:10;}
	.st104{fill:none;stroke:#1E1E1C;stroke-width:0.8829;stroke-miterlimit:10;}
	.st105{fill:#FFFFFF;stroke:#1E1E1C;stroke-width:0.8257;stroke-miterlimit:10;}
	.st106{fill:#FFFFFF;stroke:#1E1E1C;stroke-width:0.5752;stroke-miterlimit:10;}
	.st107{fill:#FFFFFF;stroke:#1E1E1C;stroke-width:0.5349;stroke-miterlimit:10;}
	.st108{fill:#FFFFFF;stroke:#1E1E1C;stroke-width:1.1504;stroke-miterlimit:10;}
	.st109{fill:#FFFFFF;stroke:#1E1E1C;stroke-width:0.8829;stroke-miterlimit:10;}
	.st110{fill:none;stroke:#1E1E1C;stroke-width:0.5487;stroke-miterlimit:10;}
	.st111{fill:#FFFFFF;stroke:#1E1E1C;stroke-width:1.0441;stroke-miterlimit:10;}
	.st112{fill:none;stroke:#E20D18;stroke-width:1.5173;stroke-miterlimit:10;}
	.st113{fill:none;stroke:#E20D18;stroke-width:1.804;stroke-miterlimit:10;}
	.st114{fill:none;stroke:#E20D18;stroke-width:1.6153;stroke-miterlimit:10;}
	.st115{fill:none;stroke:#E20D18;stroke-width:1.578;stroke-miterlimit:10;}
	.st116{fill:none;stroke:#E20D18;stroke-width:1.6879;stroke-miterlimit:10;}
	.st117{fill:none;stroke:#E20D18;stroke-width:1.6347;stroke-miterlimit:10;}
	.st118{fill:none;stroke:#E20D18;stroke-width:1.5386;stroke-miterlimit:10;}
	.st119{fill:none;stroke:#E20D18;stroke-width:1.7396;stroke-miterlimit:10;}
	.st120{fill:#FFFFFF;stroke:#1E1E1C;stroke-width:1.4;stroke-miterlimit:10;}
	.st121{fill:none;stroke:#E20D18;stroke-width:1.4266;stroke-miterlimit:10;}
	.st122{fill:none;stroke:#E20D18;stroke-width:1.4299;stroke-miterlimit:10;}
	.st123{fill:none;stroke:#1E1E1C;stroke-width:0.9867;stroke-miterlimit:10;}
	.st124{fill:none;stroke:#DD0B18;stroke-width:1.4266;stroke-miterlimit:10;}
	.st125{fill:none;stroke:#DD0B18;stroke-width:1.4299;stroke-miterlimit:10;}
	.st126{fill:#DD0B18;}
	.st127{fill:none;stroke:#DD0B18;stroke-width:1.484;stroke-miterlimit:10;}
	.st128{fill:none;stroke:#DD0B18;stroke-width:1.4075;stroke-miterlimit:10;}
	.st129{fill:none;stroke:#DD0B18;stroke-width:1.5853;stroke-miterlimit:10;}
	.st130{fill:none;stroke:#DD0B18;stroke-width:1.2981;stroke-miterlimit:10;}
	.st131{fill:none;stroke:#DD0B18;stroke-width:0.9733;stroke-miterlimit:10;}
	.st132{fill:none;stroke:#DD0B18;stroke-width:0.9159;stroke-miterlimit:10;}
	.st133{fill:none;stroke:#DD0B18;stroke-width:1.4439;stroke-miterlimit:10;}
	.st134{fill:none;stroke:#DD0B18;stroke-width:1.0062;stroke-miterlimit:10;}
	.st135{fill:none;stroke:#DD0B18;stroke-width:0.9468;stroke-miterlimit:10;}
	.st136{font-family:'Roboto-Medium';}
	.st137{font-size:13.84px;}
	.st138{fill:none;stroke:#DD0B18;stroke-width:1.6749;stroke-miterlimit:10;}
	.st139{fill:none;stroke:#DD0B18;stroke-width:1.6513;stroke-miterlimit:10;}
	.st140{fill:#FFFFFF;stroke:#1E1E1C;stroke-width:0.75;stroke-miterlimit:10;}
	.st141{fill:none;stroke:#DD0B18;stroke-width:1.5173;stroke-miterlimit:10;}
	.st142{fill:none;stroke:#DD0B18;stroke-width:1.804;stroke-miterlimit:10;}
	.st143{fill:none;stroke:#DD0B18;stroke-width:1.6153;stroke-miterlimit:10;}
	.st144{fill:none;stroke:#DD0B18;stroke-width:1.5551;stroke-miterlimit:10;}
	.st145{fill:none;stroke:#DD0B18;stroke-width:1.578;stroke-miterlimit:10;}
	.st146{fill:#E0E0E0;}
	.st147{fill:none;stroke:#DD0B18;stroke-width:1.6879;stroke-miterlimit:10;}
	.st148{fill:none;stroke:#DD0B18;stroke-width:1.6347;stroke-miterlimit:10;}
	.st149{fill:none;stroke:#DD0B18;stroke-width:1.5386;stroke-miterlimit:10;}
	.st150{fill:none;stroke:#DD0B18;stroke-width:1.7396;stroke-miterlimit:10;}
	.st151{fill:#FFFFFF;stroke:#020203;stroke-width:1.635;stroke-miterlimit:10;}
	.st152{fill:none;stroke:#E20D18;stroke-width:1.52;stroke-miterlimit:10;}
	.st153{fill:#020203;}
	.st154{fill:none;stroke:#1E1E1C;stroke-linejoin:round;}
	.st155{fill:none;stroke:#1E1E1C;stroke-linecap:round;stroke-miterlimit:10;}
	.st156{fill:#1E1E1C;}
	.st157{fill:none;stroke:#1E1E1C;stroke-linejoin:round;stroke-miterlimit:10;}
	.st158{fill:none;stroke:#020203;stroke-linejoin:bevel;stroke-miterlimit:10;}
	.st159{fill:none;stroke:#020203;stroke-miterlimit:10;stroke-dasharray:1;}
	.st160{fill:none;stroke:#020203;stroke-width:0.5;stroke-miterlimit:10;stroke-dasharray:1;}
	.st161{fill:none;stroke:#E20D18;stroke-width:1.3;stroke-miterlimit:10;}
	.st162{fill:none;stroke:#E20D18;stroke-width:0.97;stroke-miterlimit:10;}
	.st163{fill:none;stroke:#E20D18;stroke-width:0.92;stroke-miterlimit:10;}
	.st164{fill:none;stroke:#E20D18;stroke-width:1.44;stroke-miterlimit:10;}
	.st165{fill:none;stroke:#E20D18;stroke-width:1.01;stroke-miterlimit:10;}
	.st166{fill:none;stroke:#E20D18;stroke-width:0.95;stroke-miterlimit:10;}
	.st167{fill:#FFFFFF;stroke:#1E1E1C;stroke-width:2;stroke-miterlimit:10;}
	.st168{fill:none;stroke:#1E1E1C;stroke-width:1.5;stroke-linejoin:round;}
	.st169{fill:none;stroke:#1E1E1C;stroke-width:1.5;stroke-miterlimit:10;}
	.st170{fill:none;stroke:#1E1E1C;stroke-width:2;stroke-linecap:round;stroke-miterlimit:10;}
	.st171{fill:none;stroke:#1E1E1C;stroke-width:1.5;stroke-linecap:round;stroke-miterlimit:10;}
	.st172{fill:none;stroke:#1E1E1C;stroke-width:2;stroke-linejoin:round;stroke-miterlimit:10;}
	.st173{fill:none;stroke:#1E1E1C;stroke-width:2;stroke-linejoin:round;}
	.st174{fill:none;stroke:#020203;stroke-width:0.5;stroke-linejoin:bevel;stroke-miterlimit:10;}
	.st175{fill:none;stroke:#E20D18;stroke-width:1.63;stroke-miterlimit:10;}
	.st176{fill:none;stroke:#000000;stroke-miterlimit:10;}
	.st177{fill:#FFFFFF;stroke:#000000;stroke-miterlimit:10;}
	.st178{fill:none;stroke:#E20D18;stroke-width:1.3113;stroke-miterlimit:10;}
	.st179{fill:none;stroke:#E20D18;stroke-width:1.3459;stroke-miterlimit:10;}
	.st180{fill:none;stroke:#E20D18;stroke-width:1.4481;stroke-miterlimit:10;}
	.st181{fill:none;stroke:#E20D18;stroke-width:1.3929;stroke-miterlimit:10;}
	.st182{fill:none;stroke:#E20D18;stroke-width:1.327;stroke-miterlimit:10;}
	.st183{fill:none;stroke:#E20D18;stroke-width:1.4965;stroke-miterlimit:10;}
	.st184{fill:none;stroke:#E20D18;stroke-width:1.225;stroke-miterlimit:10;}
	.st185{fill:none;stroke:#E20D18;stroke-width:1.4563;stroke-miterlimit:10;}
	.st186{fill:none;stroke:#E20D18;stroke-width:1.5717;stroke-miterlimit:10;}
	.st187{fill:none;stroke:#E20D18;stroke-width:1.5529;stroke-miterlimit:10;}
	.st188{fill:#BFBEBF;stroke:#020203;stroke-miterlimit:10;}
	.st189{fill:none;stroke:#E20D18;stroke-width:2.0835;stroke-miterlimit:10;}
	.st190{fill:none;stroke:#E20D18;stroke-width:1.8751;stroke-miterlimit:10;}
	.st191{fill:none;stroke:#E20D18;stroke-width:1.6876;stroke-miterlimit:10;}
	.st192{fill:none;stroke:#E20D18;stroke-width:1.698;stroke-miterlimit:10;}
	.st193{fill:none;stroke:#E20D18;stroke-width:1.6043;stroke-miterlimit:10;}
	.st194{fill:none;stroke:#E20D18;stroke-width:1.8126;stroke-miterlimit:10;}
	.st195{fill:none;stroke:#E20D18;stroke-width:1.6147;stroke-miterlimit:10;}
	.st196{fill:none;stroke:#E20D18;stroke-width:1.5938;stroke-miterlimit:10;}
	.st197{fill:none;stroke:#E20D18;stroke-width:1.6251;stroke-miterlimit:10;}
	.st198{fill:none;stroke:#E20D18;stroke-width:1.6459;stroke-miterlimit:10;}
	.st199{fill:none;stroke:#E20D18;stroke-width:1.7605;stroke-miterlimit:10;}
	.st200{fill:#FFFFFF;stroke:#1E1E1C;stroke-width:0.87;stroke-miterlimit:10;}
	.st201{fill:#FFFFFF;stroke:#1E1E1C;stroke-width:1.1;stroke-miterlimit:10;}
	.st202{fill:#FFFFFF;stroke:#1E1E1C;stroke-width:0.55;stroke-miterlimit:10;}
	.st203{fill:#FFFFFF;stroke:#1E1E1C;stroke-width:0.79;stroke-miterlimit:10;}
	.st204{fill:#FFFFFF;stroke:#1E1E1C;stroke-width:0.51;stroke-miterlimit:10;}
	.st205{fill:none;stroke:#1E1E1C;stroke-width:0.88;stroke-miterlimit:10;}
	.st206{fill:#FFFFFF;stroke:#1E1E1C;stroke-width:0.83;stroke-miterlimit:10;}
	.st207{fill:#FFFFFF;stroke:#1E1E1C;stroke-width:0.58;stroke-miterlimit:10;}
	.st208{fill:#FFFFFF;stroke:#1E1E1C;stroke-width:0.53;stroke-miterlimit:10;}
	.st209{fill:#FFFFFF;stroke:#1E1E1C;stroke-width:1.15;stroke-miterlimit:10;}
	.st210{fill:#FFFFFF;stroke:#1E1E1C;stroke-width:0.88;stroke-miterlimit:10;}
	.st211{fill:#FFFFFF;stroke:#1E1E1C;stroke-width:1.04;stroke-miterlimit:10;}
	.st212{fill:#FFFFFF;stroke:#020203;stroke-linejoin:round;stroke-miterlimit:10;}
</style>
<g>
	<path class="st0" d="M348.2,23.6c7.5,7,12.5,18.7,17.7,34.6c0,0,6.5,19.1,13,30.2v0c0.7,1.1,1.3,2.2,2,3.1c1.6,2.3,3.7,4.7,6,7
		c0.1,0.1,0.2,0.2,0.2,0.3c0.1,0.1,0.2,0.2,0.3,0.3c7.7,7.7,17,14.4,17,14.4s36.2,22.8,6.7,68.5c0,0-0.3,0.5-0.7,1.5
		c-1.8,4-6.6,15.9-8.6,36.7c0,0,0,0,0,0c-0.6,6.1-0.9,13-0.9,20.7c0,0,0,0.1,0,0.1c0,1.5,0,3,0.1,4.6c0,0,0.2,3.7,0.5,8.9
		c0,0,0,0,0,0.1c0,0,0,0,0,0c0,0,0,0,0,0c0.6,11.8,1.7,31.5,2,36.1c0.5,6.7,4.8,19.6,1.6,34.6c-3.2,15-7.2,18.7-16.8,29.8
		c0,0,0.2,1.7-14.2,0c-0.3,0-0.6-0.1-0.9-0.1c-0.1,0-0.2,0-0.3,0c0,0,0,0-0.1,0c-9.2-0.7-43-0.7-75.7-0.5c-0.7,0-1,0-1,0
		s-1.2,0-3.3,0c-28.7,0.2-55.7,0.5-63.7,0.6c0,0,0,0-0.1,0c-1.5,0-2.3,0-2.3,0s-0.2,0.1-0.4,0.1c0,0,0,0,0,0h0h0
		c-0.1,0-0.2,0-0.3,0.1c0,0,0,0,0,0c-0.1,0-0.2,0.1-0.3,0.1c-2.2,0.6-7.7,1.8-11.9,0.5c-5.4-1.8-21.5-12.8-21.7-45.8
		c-0.2-32.9,3.5-56.3,3.5-56.3s2.5-13.7,1.1-29.7c0,0,0,0,0-0.1c-0.5-5.4-1.4-11-3-16.5c-1.2-4.1-2.3-7.8-3.4-11.2c0,0,0,0,0,0
		c-1.2-3.7-2.4-7-3.5-9.9c0,0,0,0,0,0c-3.1-8.2-5.3-13-5.8-14.8c-0.9-3.1-4.5-13.2-2.9-26c1.2-10,10-23.2,17.4-30.7c0,0,0,0,0.1,0
		c0,0,0,0,0.1-0.1c2-2,3.9-3.6,5.5-4.6c0,0,0.7-0.6,1.9-1.6c0.1-0.1,0.1-0.1,0.2-0.2c1.9-1.7,5-4.6,8.4-8.4c0.3-0.3,0.5-0.6,0.8-0.9
		c2.3-2.6,4.7-5.7,7-9c0,0,0-0.1,0.1-0.1c4.7-6.9,8.7-15.1,9.9-24c1.7-12.2,9-27.2,20.3-39.1c8.6-10.8,23.6-16.5,23.6-16.5
		c7-2.9,15-3,23.1-3c16.4-0.2,19.5,0.4,28,2.9C324.6,10.2,335.5,11.7,348.2,23.6z"/>
	<path class="st17" d="M195.7,115c0,0,5.3-4.3,7.5-6.4c2.3-2.1,7.7-7.5,9.2-9.2c1.4-1.7,7.4-9.5,7.4-9.5s11.3,14,7.9,53.5
		c-2.7,31.3-5.9,130.4-7.1,169.9c-0.3,10.2,1.9,20.3,6.4,29.5c0,0,0,0,0,0.1c0.9,1.9,2.3,12.3,2.3,12.3s-12.2,0.9-14.6,0
		c-2.4-0.9-8.2-5.6-10.2-12.8c0,0-5.2-13.8-5.8-34.3s-1.8-56.1-1.8-56.1s1.9-15.9,0.2-27.7"/>
	<path class="st17" d="M371.7,108.9c0,0,23.9,16.8,27.4,33.4c3.5,16.6-0.1,27.1-4.2,39.6c-4.1,12.6-10.8,27.4-10.7,38.9
		c0.1,11.5-2,64.6-2.2,66.3c-0.7,6.8-6,44.4-10.5,53.8c0,0,0,0,0,0.1c-0.9,1.9-2.3,12.3-2.3,12.3s12.2,0.9,14.6,0
		c2.4-0.9,8.2-5.6,10.2-12.8c0,0,5.2-13.8,5.8-34.3s1.8-56.1,1.8-56.1s-1.9-15.9-0.2-27.7c1.8-11.8,6.5-34.4,8.9-38.8"/>
	<path class="st17" d="M386,97.5c-1.4-1.7-7.4-9.5-7.4-9.5s-11.3,14-7.9,53.5c0,0,3.1,32.9,2.9,39.3l-3.1,97"/>
	<path class="st17" d="M227,340.2c-0.2,0.2-0.3,0.4-0.4,0.5c-0.1,0.1-0.1,0.2-0.1,0.2l0-0.6v0l0-4.8c0,0,0,0,0,0l-0.3-25.4
		c0-0.1,0-0.1,0-0.2"/>
	<path class="st17" d="M370.1,299.9C370.1,300,370.1,300,370.1,299.9"/>
	<g id="linhas_meio_1_">
		<polyline class="st17" points="221.8,270.7 297.6,234.8 370.7,263.9 		"/>
		<polyline class="st17" points="223.4,227.6 297.6,192.4 372,223.5 		"/>
		<polyline class="st17" points="225.3,181.8 297.2,151.5 373.7,180.8 		"/>
	</g>
	<path class="st17" d="M248.7,121.1L248.7,121.1c-0.6-0.9-0.6-2.1-0.1-3.1l0.6-1.4"/>
	<path class="st17" d="M349.8,122.4c0.4-0.1,1.1-0.4,1.6-1.3c0.6-0.9,0.6-2.1,0.1-3.1l-3-6.7c0,0,0,0,0,0"/>
	<path class="st17" d="M247.8,128.3c-1.4-0.6-3-1.7-4.1-3.4c-2.3-3.6-1.7-7.3,0-11l6.6-14.8"/>
	<path class="st17" d="M348.1,94.9l8.5,19c1.7,3.7,2.3,7.4,0,11c-1.7,2.6-4.5,3.6-6,4"/>
	<path class="st0" d="M296.3,354.6c0,0-69.5,0.7-70.2,0.9c-0.8,0.2-0.6,0.2-4.9,4.3c-4.3,4.1-8.3,0.9-12,2.8
		c-3.7,1.8-8.2,8.3-9.4,16c-1.2,7.7,0,34,0,34s-1.6,17.7,24.5,16.1c26.1-1.6,79.3,0.1,79.3,0.1s45.3-0.6,71.4,1
		c26.1,1.6,24.5-16.1,24.5-16.1s1.2-26.3,0-34c-1.2-7.7-5.7-14.1-9.4-16c-3.7-1.8-7.7,1.4-12-2.8c-4.3-4.1-4-5.5-4.7-5.8
		C372.5,354.9,296.3,354.6,296.3,354.6z"/>
	<path class="st0" d="M393.8,426.4c0,0,8.2,2.2,13.4-4.8c5.2-7,14.9-20,19.3-35.9c4.3-15.7,5.2-22.4,3.8-30c0-0.2-0.1-0.5-0.1-0.7
		c0-1.1-0.3-4.9-1.7-7.3c-1.3-2-2.5-2.8-4.4-3.5c-1.6-0.6-3.3-0.6-5-0.2c-0.1,0-0.3,0.1-0.4,0.1c0,0,3.3,0.7,4.7,2.3
		c1.4,1.6,4.2,5.2,2.1,15c-2.1,10-9.3,25.4-19.2,43.6c0,0-4.8,9.1-6.3,10.5C399.9,415.6,399.1,422.3,393.8,426.4z"/>
	<path class="st0" d="M379.4,361c0,0,3.6-4.6,13.7-3.1c0,0,6.3-3.9,10.1-7.7c3.8-3.9,9.7-6.1,12.9-5.9s11.8,1.5,9.7,15.4
		c-2.2,14-15,36.7-15,36.7l-10.8,19.3c0,0,0.9-25,0.4-29.6c-0.5-4.6-0.4-14.9-8.8-21.7c0,0-1-1.1-5.6-1.2
		C380.8,362.9,379.4,361,379.4,361z"/>
	<path class="st0" d="M205.7,424.5c0,0-8.2,2.2-13.4-4.8c-5.2-7-14.9-20-19.3-35.9c-4.3-15.7-5.2-22.4-3.8-30c0-0.2,0.1-0.5,0.1-0.7
		c0-1.1,0.3-4.9,1.7-7.3c1.3-2,2.5-2.8,4.4-3.5c1.6-0.6,3.3-0.6,5-0.2c0.1,0,0.3,0.1,0.4,0.1c0,0-3.3,0.7-4.7,2.3s-4.2,5.2-2.1,15
		c2.1,10,9.3,25.4,19.2,43.6c0,0,4.8,9.1,6.3,10.5C199.5,413.7,200.3,420.4,205.7,424.5z"/>
	<path class="st0" d="M220,359.1c0,0-3.6-4.6-13.7-3.1c0,0-6.3-3.9-10.1-7.7c-3.8-3.9-9.7-6.1-12.9-5.9s-11.8,1.5-9.7,15.4
		c2.2,14,15,36.7,15,36.7l10.8,19.3c0,0-0.9-25-0.4-29.6c0.5-4.6,0.4-14.9,8.8-21.7c0,0,1-1.1,5.6-1.2
		C218.7,361.1,220,359.1,220,359.1z"/>
	<g id="Almofada_lombar_2_">
		<path class="st17" d="M233.5,270.2c0,0,8.9-0.8,20.7,0c11.8,0.8,86.9,0.7,89.4,0s17.7-0.4,21.5-0.4c3.8,0,7.8,12.9,8.5,24.6
			c0.7,11.8,0.5,45-6.4,51.1c-6.8,6.2-54.7,3.9-54.7,3.9l-22.8-0.3c0,0-55.2-0.8-60.5-4.1c-5.3-3.2-6.8-33.4-6.8-33.4
			s-1.5-24.1,2.5-32.8C229,270.3,233.5,270.2,233.5,270.2z"/>
		<path class="st17" d="M278,347.6l1.7,1.4c0,0-47-0.5-51.3-4.6c-4.3-4.1-1.9-52-0.8-58.4c1.2-6.3,0.2-5.4,2.5-14.3"/>
		<path class="st17" d="M318.6,348.2l-1.7,1.4c0,0,47-0.5,51.3-4.6c4.3-4.1,1.9-52,0.8-58.4s-0.4-7.5-2.8-16.4"/>
	</g>
	<g id="Almofada_cabeça_1_">
		<path class="st17" d="M300.8,126.5c0,0,29.1,2.8,41.1,7.4c12,4.6,8.9-2.7,8.8-4.6c-0.1-2-0.8-6.3-0.8-6.3
			c-3.8-27.1-0.5-42.2-0.5-42.2c6-15.2-3.2-11.1-3.2-11.1c-21.5,9-45.3,8-45.3,8l-3.3,0.1c0,0-23.9,1-45.3-8c0,0-9.2-4.2-3.2,11.1
			c0,0,3.2,15.1-0.5,42.2c0,0-0.6,4.4-0.8,6.3c-0.1,2-3.2,9.2,8.8,4.6c12-4.6,41.1-7.4,41.1-7.4L300.8,126.5z"/>
		<path class="st17" d="M261.1,73.6c0,0-11.2,37.1-1.6,59.4"/>
		<path class="st17" d="M337.1,72.8c0,0,10.8,37.5,1.3,59.9"/>
	</g>
	<g id="Meanismo_3_">
		<polyline class="st0" points="194.4,443.2 204.9,429 207,429.3 		"/>
		<path class="st0" d="M211.7,428l-1.3,2.5c0,0,1.2,0.5,1.3,1.3c0.1,0.7,0.2,7.7-0.9,15.1c-1.2,7.4-3.1,7.1-5.9,6.9
			c0,0-1-0.7-3.3-0.6c-2.3,0.1-3.5-1.4-3.5-1.4s-1.1-1.2-2.7-1.7c-1.6-0.5-2.2-3.2-2.2-3.2s-0.9-2.2,3.7-7l7.8-9.3
			c0,0,0.3-1.5,0.5-1.5c0.2,0,2,0.2,2,0.2l1.3-3C208.5,426.4,208.3,426.8,211.7,428z"/>
		<path class="st0" d="M206.1,432.3c-0.4-0.1-0.8,0-1.1,0.4l-8.9,11.3c0,0-2.3,2.8,0.9,4.7c0,0,0.8,0.4,1.5,1
			c0.7,0.5,1.1,1.2,1.1,1.2s0.1,0.3,1.5,0.5c1.5,0.2,3.3,0.7,3.8,1c0.5,0.3,2.5-0.3,2.8-0.6c0.3-0.3,0.7-0.7,1.3-5.6
			c0.5-4.1,0.9-9.6,1-11.2c0-0.4-0.1-0.8-0.5-1c-0.1-0.1-0.3-0.2-0.5-0.3C208.4,433.2,207.2,432.6,206.1,432.3z"/>
		<path class="st0" d="M209.8,439c-0.1,1.7-1.4,2.6-1.4,2.6s-1.8,1.8-4.9,0.7c-1.6-0.6-2.1-1.8-2.2-2.8c-0.1-0.9,0.1-1.7,0.5-2.5
			l0.4-0.7"/>
		<path class="st0" d="M207.2,429.8c0,0-0.5,1.5,0.6,1.8c1.1,0.3,1.7,0.6,2.5-0.4"/>
	</g>
</g>
<g>
	<g>
		<line class="st124" x1="180.4" y1="146.5" x2="419.8" y2="146.5"/>
	</g>
	<line class="st125" x1="178.2" y1="152.8" x2="178.2" y2="140.7"/>
	<polygon class="st126" points="178.6,146.7 189.7,152.8 189.7,140.7 	"/>
	<line class="st125" x1="422.8" y1="151.9" x2="422.8" y2="139.9"/>
	<polygon class="st126" points="422.4,145.9 411.2,151.9 411.2,139.9 	"/>
</g>
<g>
	<g>
		<line class="st127" x1="227.8" y1="208.2" x2="369.6" y2="208.2"/>
	</g>
	<polygon class="st126" points="226.5,208.2 238.5,214.2 238.5,202.1 	"/>
	<line class="st127" x1="372.4" y1="214.2" x2="372.4" y2="202.1"/>
	<line class="st127" x1="226" y1="214.1" x2="226" y2="202.1"/>
	<polygon class="st126" points="372,208.2 359.9,214.2 359.9,202.1 	"/>
</g>
<g>
	<line class="st128" x1="180.4" y1="262.5" x2="422.4" y2="262.5"/>
	<line class="st129" x1="170.2" y1="290.4" x2="170.2" y2="258.9"/>
	<polygon class="st126" points="170.5,262.9 181.4,268.9 181.4,256.8 	"/>
	<polyline class="st129" points="430.8,270.5 430.8,255.3 430.8,259.4 430.8,290.8 	"/>
	<polygon class="st126" points="430.4,261.3 419.5,267.3 419.5,255.3 	"/>
</g>
<g>
	<line class="st130" x1="201.5" y1="314.1" x2="405.4" y2="314.1"/>
	<line class="st131" x1="192.4" y1="320.1" x2="192.4" y2="308"/>
	<polygon class="st126" points="192.7,314.1 203.4,320.1 203.4,308 	"/>
	<polyline class="st132" points="406.2,313.2 406.2,308 406.2,309.4 406.2,320.1 	"/>
	<polygon class="st126" points="407,314.1 396.2,320.1 396.2,308 	"/>
</g>
<g>
	<line class="st133" x1="175.4" y1="356.1" x2="427.7" y2="356.1"/>
	<line class="st134" x1="170.4" y1="362.2" x2="170.4" y2="350.1"/>
	<polygon class="st126" points="170.4,356.1 181.9,362.2 181.9,350.1 	"/>
	<polyline class="st135" points="429.6,355.3 429.6,350.1 429.6,351.5 429.6,362.2 	"/>
	<polygon class="st126" points="429.6,356.1 418.1,362.2 418.1,350.1 	"/>
</g>
<g>
	<polygon class="st5" points="320.7,213.8 282.2,214.2 282.2,200.4 320.7,202.8 	"/>
	<text transform="matrix(1 0 0 1 283.7999 211.31)" class="st126 st136 st137">32cm</text>
</g>
<g>
	<g>
		<line class="st138" x1="205.8" y1="382.8" x2="386.4" y2="382.8"/>
	</g>
	<polygon class="st126" points="200.4,382.8 214.1,388.8 214.1,376.8 	"/>
	<line class="st139" x1="399.5" y1="388.8" x2="399.5" y2="376.8"/>
	<line class="st139" x1="199.7" y1="388.8" x2="199.7" y2="376.7"/>
	<polygon class="st126" points="399,382.8 384.1,388.8 384.1,376.8 	"/>
</g>
<g>
	<rect x="285.2" y="254.6" class="st5" width="37.4" height="13.8"/>
	<text transform="matrix(1 0 0 1 286.7061 265.7421)" class="st126 st136 st137">53cm</text>
</g>
<rect x="280.6" y="350.5" class="st5" width="40.4" height="15.5"/>
<rect x="286.7" y="375" class="st5" width="38.6" height="15.5"/>
<text transform="matrix(0.9441 0 0 1 283.7999 362.1601)" class="st126 st136 st137">54cm</text>
<text transform="matrix(0.9441 0 0 1 289.4893 386.9159)" class="st126 st136 st137">40cm</text>
<rect x="284.4" y="305.4" class="st5" width="38.5" height="15.5"/>
<text transform="matrix(0.9441 0 0 1 287.0597 317.3915)" class="st126 st136 st137">49cm</text>
<rect x="281.7" y="134.7" class="st5" width="36.9" height="15.2"/>
<text transform="matrix(1 0 0 1 284.5685 149.101)" class="st126 st136 st137">57cm</text>
<path class="st17" d="M278.2,76.6c0,0-7.1,23.6-2.8,53"/>
<path class="st17" d="M318.4,129.5c0,0,7.1-23.6,2.8-53"/>
<path class="st17" d="M238.5,269.8c0,0-4.6,57,0,77.6"/>
<path class="st17" d="M258.9,269.8c0,0-4.6,57,0,77.6"/>
<path class="st17" d="M358.4,348.3c0,0,4.6-57,0-77.6"/>
<path class="st17" d="M338,348.3c0,0,4.6-57,0-77.6"/>
<path class="st17" d="M201.5,352.7c0,0-11.4-2.6-11.3,5.4c0.1,8.1,6.4,24.7,8.7,31.7"/>
<path class="st17" d="M398,354.6c0,0,27-5.7,1.9,37.6"/>
<path class="st17" d="M226.6,108.9c0,0-23.9,16.8-27.4,33.4s0.1,27.1,4.2,39.6c4.1,12.6,10.8,27.4,10.7,38.9
	c-0.1,11.5,5.5,102.7,8.9,112"/>
<g>
	<g>
		<g>
			<path class="st25" d="M213.7,500.9c0,0-9.6,1.1-9.7,2.4c-0.2,1.3-4.7,25.2,4.9,25.1c9.6-0.1,16.1-2.7,16.6-4.1
				C226.1,522.7,213.7,500.9,213.7,500.9z"/>
			<path class="st25" d="M383.8,499.5c0,0,5,0.2,7.5,1.4c2.5,1.1,4.4,3.2,4.4,3.2s-2.2,21-3.4,21.8c-1.3,0.8-6.7,1.5-15.8,0
				c-9.1-1.5,1-25.8,1-25.8L383.8,499.5z"/>
			<path class="st25" d="M285.9,519.9l1.9,36l10.3,3l10.3-2.2l1.9-36.8c0,0,4.1-2.7,18.1-1.1c14,1.6,106.3,9.5,106.3,9.5v2.4
				c0,0,5.9,1.4,8.9,1.6c3,0.2,4.9,0,4.9,0l4.6-1.6l-1-15.4l-43.4-8.8l-38.2-7.1l10.7-0.8l0.8,1.5l3.8-1.5l-0.6-9.3l-5.4-7.1
				l-65.2,3.2l-33.5,0.8l-43.4-1.4l-1.5-1.1l-17.6-0.8l-3.9,1l-3.5,5.5l-0.6,1.6v9.2l11,0.6l-34.7,7.1l-2.4-0.6l-37.3,7.5l-1,1.1
				l-1.9,0.8l-0.8,16.9l14,0.8l4.3-2.2l-0.2-2.3l115.7-11.5C277.3,518.7,284.3,517.5,285.9,519.9z"/>
			<line class="st24" x1="283.8" y1="488.2" x2="221.5" y2="500.9"/>
			<line class="st24" x1="314.8" y1="488.5" x2="370.7" y2="499.3"/>
			<polyline class="st25" points="287.3,545.3 293.8,539.5 302.3,539.5 309,545.3 			"/>
			<polyline class="st25" points="287.3,530.1 294,524.2 302.5,524.2 309,530.1 			"/>
			<line class="st24" x1="293.8" y1="539.5" x2="293.6" y2="490.9"/>
			<line class="st24" x1="302.5" y1="490.9" x2="302.3" y2="539.5"/>
			<line class="st24" x1="385.4" y1="489.3" x2="336.1" y2="492.6"/>
			<line class="st24" x1="362" y1="483.1" x2="366.4" y2="490.6"/>
			<path class="st24" d="M310.3,519.9c0,0-1-16,2.3-17.7c3.2-1.8,14.5-0.6,14.5-0.6l119.9,19l5.3-5.3"/>
			<path class="st24" d="M285.9,519.9c0,0,1.4-19.3,0-19.6c-1.4-0.2-27.8,3.9-27.8,3.9L184.5,518l-34.6,6.9l-5.7-8"/>
			<line class="st24" x1="186.9" y1="508.1" x2="191.4" y2="516.7"/>
			<line class="st24" x1="413" y1="506.6" x2="408.4" y2="515.1"/>
			<polyline class="st25" points="211.2,489.5 229.8,491.5 234.1,485.1 236.3,483.9 			"/>
			<line class="st24" x1="255.1" y1="494.1" x2="229.8" y2="491.5"/>
		</g>
		<path class="st25" d="M313.8,447.7c0,1.2,0.6,42,0.6,42s-12.5,6.7-31.3-0.7c0.6-16.9,1.3-41.8,1.3-41.8"/>
		<path class="st25" d="M287.4,445.4c-4.7,0.4-3.1,1.8-3.1,1.8s8.3,4.4,29.4,0.6c0,0,1.3-1.8-3-1.9"/>
		<g>
			<circle class="st24" cx="144.2" cy="554.3" r="11.9"/>
			<path class="st24" d="M132.3,554.8l-0.8,1.4c-0.5,0.8-1.6,0.9-2.3,0.2l-1.9-2.4c-0.3-0.5-0.7-0.9-0.9-1.5
				c-0.3-0.7-0.2-1.6-0.2-2.4c0.5-4.3,2.7-8.3,6.1-11c3.2-2.5,7.3-3.7,11.4-3.4c0.4,0,0.7,0.2,1,0.6c0.5,0.7,1.2,1.2,2,1.5
				c1,0.4,2,0.5,3.1,0.6c1.8,0.2,3.6,0.4,5.4,0.1c0.9-0.2,1.8-0.4,2.5-0.8c0.9-0.5,1.9,0.1,1.9,1.1c0.1,1.3,0.3,2.5,0.5,3.8
				c0.3,2.2,0.6,4.5-0.1,6.6c-0.6,2.1-2.2,4.1-4.4,4.5"/>
			<path class="st24" d="M144.1,535.7c-0.5,0.6-0.4,1.6,0,2.4s1.1,1.2,1.9,1.5s1.6,0.5,2.4,0.6"/>
			<path class="st24" d="M158.2,537.4c0-0.5,0-1,0-1.5v-1.3"/>
			<line class="st24" x1="144.3" y1="535.7" x2="144.3" y2="534.4"/>
		</g>
		<g>
			<circle class="st24" cx="452.1" cy="552.2" r="11.9"/>
			<path class="st24" d="M463.9,552.7l0.8,1.4c0.5,0.8,1.6,0.9,2.3,0.2l1.9-2.4c0.3-0.5,0.7-0.9,0.9-1.5c0.3-0.7,0.2-1.6,0.2-2.4
				c-0.5-4.3-2.7-8.3-6.1-11c-3.2-2.5-7.3-3.7-11.4-3.4c-0.4,0-0.7,0.2-1,0.6c-0.5,0.7-1.2,1.2-2,1.5c-1,0.4-2,0.5-3.1,0.6
				c-1.8,0.2-3.6,0.4-5.4,0.1c-0.9-0.2-1.8-0.4-2.5-0.8c-0.9-0.5-1.9,0.1-1.9,1.1c-0.1,1.3-0.3,2.5-0.5,3.8
				c-0.3,2.2-0.6,4.5,0.1,6.6c0.6,2.1,2.2,4.1,4.4,4.5"/>
			<path class="st24" d="M452.1,533.6c0.5,0.6,0.4,1.6,0,2.4c-0.4,0.7-1.1,1.2-1.9,1.5c-0.7,0.3-1.6,0.5-2.4,0.6"/>
			<path class="st24" d="M438,535.2c0-0.5,0-1,0-1.5v-1.3"/>
			<line class="st24" x1="451.9" y1="533.5" x2="451.9" y2="532.2"/>
		</g>
		<g>
			<path class="st24" d="M308.4,561.5l-0.2,24.2l-20.7-0.1c0,0,0-19.9,0.1-24.1c0-0.4,0.3-0.8,0.8-0.8l19.1-0.2
				C308,560.5,308.5,561,308.4,561.5z"/>
			<path class="st24" d="M287.9,563.9c-1.5,0.6-2.9,1.1-3.8,2.4c-0.6,1-0.8,2.3-0.9,3.5c-0.2,2.8-0.4,5.6-0.4,8.4
				c0,2.6,0.1,5.2,0.9,7.7c0.8,2.4,2.4,4.8,4.6,6c0.9,0.5,2.3,0.7,2.8-0.2c0.3-0.4,0.3-1,0.3-1.5c0.1-1.5,0.1-3,0-4.5"/>
			<path class="st24" d="M308.3,563.9c1.5,0.6,2.9,1.1,3.8,2.4c0.6,1,0.8,2.3,0.9,3.5c0.2,2.8,0.4,5.6,0.4,8.4
				c0,2.6-0.1,5.2-0.9,7.7c-0.8,2.4-2.4,4.8-4.6,6c-0.9,0.5-2.3,0.7-2.8-0.2c-0.3-0.4-0.3-1-0.3-1.5c-0.1-1.5-0.1-3,0-4.5"/>
			<path class="st24" d="M288.3,560.6c0-1.1,0-2,0-3c0-0.4,0.3-0.6,0.7-0.6c1.9,0.3,6.9,1.3,9.3,1.2c1.8-0.1,5.4-0.2,8.8-1.1
				c0.2-0.1,0.6,0.2,0.6,0.4l0.1,3.4"/>
		</g>
	</g>
	<g>
		<polyline class="st24" points="310.4,428.4 311,429.3 309.3,430.3 311.1,430.9 309.2,432 311,432.8 309.5,433.7 311,434.4 
			309.4,435.5 311,436.3 309.5,437.4 310.9,438.1 309.6,439 310.9,439.8 310,440.7 		"/>
		<polyline class="st24" points="287.8,428.8 288.4,429.6 286.7,430.7 288.5,431.3 286.6,432.3 288.4,433.1 286.9,434.1 
			288.4,434.8 286.8,435.8 288.3,436.6 286.9,437.7 288.3,438.5 287,439.4 288.3,440.1 287.4,441 		"/>
		<line class="st24" x1="310.9" y1="429.3" x2="287.3" y2="430.2"/>
		<line class="st24" x1="311.1" y1="430.9" x2="287.4" y2="431.8"/>
		<line class="st24" x1="310.8" y1="432.8" x2="287.8" y2="433.2"/>
		<line class="st24" x1="310.9" y1="434.3" x2="287.5" y2="434.7"/>
		<line class="st24" x1="311" y1="436.3" x2="287.5" y2="436.4"/>
		<line class="st24" x1="310.8" y1="438.1" x2="287.6" y2="438.1"/>
		<line class="st24" x1="310.9" y1="439.8" x2="287.7" y2="439.4"/>
		<path class="st25" d="M286.3,441.6l25.4-0.2l-0.4,17c-4.5,0.4-7.6,0.9-11.3,1c-0.9,0-1.8,0-2.8,0c-3.8-0.2-6.9-0.3-11-0.8V441.6z"
			/>
	</g>
</g>
<g>
	<path class="st17" d="M139,306.2l4.4,79.3l1.4,0.1v11.6l-1.3,1l-1.5,14.8l2,6.4l19.3-0.3c0,0,2.1-0.5,2.7-4.2
		c0.5-3.7-0.8-17.3-0.8-17.3l-1.6,0.1l-0.7-12.8l1.5-0.6l-3.5-81.9c0,0,2-1.4,2.2-2.1c0.2-0.8-0.6-2-0.6-2L139,306.2z"/>
	<path class="st0" d="M162.9,298.5c0.4,0.1,0.8,0.4,1.3,0.6c1.5,0.5,3-0.7,4-2c1.4-2,2.3-4.4,2-6.8c-0.3-2.4-2-4.7-4.3-5.3
		c-2.8-0.8-5.7,0.9-8.4,1.9c-3,1.1-6.2,1.6-9.4,1.3c-2.8-0.3-5.6-1.1-8.4-1.6s-5.8-0.6-8.4,0.5c-3.2,1.3-5.5,4.4-5.9,7.9s1.2,7,4,9
		c2,1.4,4.5,2,7,2.2c2.5,0.2,4.9-0.1,7.4-0.2c3-0.2,6.1-0.1,8.9-1.3c2.1-0.8,3.9-2.3,5.6-3.8C159.5,299.7,160.9,297.9,162.9,298.5z"
		/>
	<path class="st17" d="M125.5,294.3c4.6,2.1,9.8,2.4,14.8,1.6c5-0.8,9.7-2.6,14.4-4.5c4.7-1.9,9.3-3.9,14.2-5.2"/>
	<path class="st17" d="M160.6,302.1c-2.1,1.2-4.5,2-6.9,2.3"/>
	<path class="st17" d="M139,309.3c-0.9,0-1.8,0-2.7-0.1c-0.9-0.1-1.9-0.2-2.7,0.3c-0.7,0.4-1.2,1.1-1.4,1.9c-0.2,0.8,0,1.6,0.4,2.3
		c2.2-0.1,4.4-0.2,6.6-0.2"/>
	<path class="st17" d="M143.9,385.3c6.5,0.8,13,0.6,19.4-0.7"/>
	<path class="st17" d="M143.7,398.3c6.6,0.6,13.4,1.3,19.9-0.4"/>
	<path class="st17" d="M153.3,398.9c-0.2,0.8-0.4,1.6-0.4,2.4v18.1"/>
	<path class="st17" d="M152.9,412.2c0.6,0,1.2,0,1.7-0.1h11.5"/>
	<path class="st17" d="M165.5,406.9c0.4,0,0.7,0,1.1,0h17.3"/>
	<path class="st17" d="M166.3,413.2c0.3,0,0.7,0,1-0.1H188"/>
	<path class="st17" d="M166.3,410.1c0.3,0,0.7,0,1-0.1h19"/>
</g>
<g>
	<path class="st17" d="M461,306.2l-4.4,79.3l-1.4,0.1v11.6l1.3,1l1.5,14.8l-2,6.4l-19.3-0.3c0,0-2.1-0.5-2.7-4.2
		c-0.5-3.7,0.8-17.3,0.8-17.3l1.6,0.1l0.7-12.8l-1.5-0.6l3.5-81.9c0,0-2-1.4-2.2-2.1c-0.2-0.8,0.6-2,0.6-2L461,306.2z"/>
	<path class="st0" d="M437.1,298.5c-0.4,0.1-0.8,0.4-1.3,0.6c-1.5,0.5-3-0.7-4-2c-1.4-2-2.3-4.4-2-6.8c0.3-2.4,2-4.7,4.3-5.3
		c2.8-0.8,5.7,0.9,8.4,1.9c3,1.1,6.2,1.6,9.4,1.3c2.8-0.3,5.6-1.1,8.4-1.6s5.8-0.6,8.4,0.5c3.2,1.3,5.5,4.4,5.9,7.9s-1.2,7-4,9
		c-2,1.4-4.5,2-7,2.2c-2.5,0.2-4.9-0.1-7.4-0.2c-3-0.2-6.1-0.1-8.9-1.3c-2.1-0.8-3.9-2.3-5.6-3.8
		C440.5,299.7,439.1,297.9,437.1,298.5z"/>
	<path class="st17" d="M474.5,294.3c-4.6,2.1-9.8,2.4-14.8,1.6c-5-0.8-9.7-2.6-14.4-4.5c-4.7-1.9-9.3-3.9-14.2-5.2"/>
	<path class="st17" d="M439.4,302.1c2.1,1.2,4.5,2,6.9,2.3"/>
	<path class="st17" d="M461,309.3c0.9,0,1.8,0,2.7-0.1c0.9-0.1,1.9-0.2,2.7,0.3c0.7,0.4,1.2,1.1,1.4,1.9c0.2,0.8,0,1.6-0.4,2.3
		c-2.2-0.1-4.4-0.2-6.6-0.2"/>
	<path class="st17" d="M456.1,385.3c-6.5,0.8-13,0.6-19.4-0.7"/>
	<path class="st17" d="M456.3,398.3c-6.6,0.6-13.4,1.3-19.9-0.4"/>
	<path class="st17" d="M446.7,398.9c0.2,0.8,0.4,1.6,0.4,2.4v18.1"/>
	<path class="st17" d="M447.1,412.2c-0.6,0-1.2,0-1.7-0.1h-11.5"/>
	<path class="st17" d="M434.5,406.9c-0.4,0-0.7,0-1.1,0h-17.3"/>
	<path class="st17" d="M433.7,413.2c-0.3,0-0.7,0-1-0.1H412"/>
	<path class="st17" d="M433.7,410.1c-0.3,0-0.7,0-1-0.1h-19"/>
</g>
</svg>
