<svg xmlns="http://www.w3.org/2000/svg" viewBox="0 0 460.38 779.41"><defs><style>.cls-1,.cls-10,.cls-12,.cls-2,.cls-3{fill:#fff;}.cls-1,.cls-10,.cls-11,.cls-12,.cls-2,.cls-4,.cls-5,.cls-6,.cls-9{stroke:#1d1d1b;}.cls-1,.cls-10,.cls-11,.cls-12,.cls-13,.cls-14,.cls-16,.cls-17,.cls-18,.cls-19,.cls-20,.cls-21,.cls-22,.cls-23,.cls-24,.cls-25,.cls-5,.cls-6,.cls-9{stroke-miterlimit:10;}.cls-1,.cls-2,.cls-4,.cls-5,.cls-6{stroke-width:2px;}.cls-2{stroke-linejoin:bevel;}.cls-11,.cls-13,.cls-14,.cls-16,.cls-17,.cls-18,.cls-19,.cls-20,.cls-21,.cls-22,.cls-23,.cls-24,.cls-25,.cls-4,.cls-5,.cls-6,.cls-9{fill:none;}.cls-4{stroke-linejoin:round;}.cls-6{stroke-linecap:round;}.cls-7{isolation:isolate;}.cls-8{fill:#1d1d1b;}.cls-12,.cls-9{stroke-width:1.3px;}.cls-10{stroke-width:3px;}.cls-13,.cls-14,.cls-16,.cls-17,.cls-18,.cls-19,.cls-20,.cls-21,.cls-22,.cls-23,.cls-24,.cls-25{stroke:#e30613;}.cls-13{stroke-width:1.56px;}.cls-14{stroke-width:1.57px;}.cls-15{fill:#e30613;}.cls-16{stroke-width:1.53px;}.cls-17{stroke-width:1.56px;}.cls-18{stroke-width:1.76px;}.cls-19{stroke-width:1.52px;}.cls-20{stroke-width:1.06px;}.cls-21{stroke-width:0.99px;}.cls-22{stroke-width:1.57px;}.cls-23{stroke-width:1.09px;}.cls-24{stroke-width:1.03px;}.cls-25{stroke-width:1.71px;}</style></defs><title>frontal gamma medidas</title><g id="Camada_2" data-name="Camada 2"><g id="Frontal"><path class="cls-1" d="M21.35,672.42a20.17,20.17,0,0,0-16.76,8.69c-6.39,9.31,0,21.39,0,21.39C8,720.3,23.46,719.42,23.46,719.42,46.15,719.19,42.94,692,42.94,692l.22-19S34.7,679.09,21.35,672.42Z"/><path class="cls-1" d="M439.76,674.93a20.16,20.16,0,0,1,16.76,8.68c6.4,9.3,0,21.39,0,21.39-1.49,7.79-5.35,12.13-9.22,14.54A19.91,19.91,0,0,1,430,721c-17.16-6.22-11.82-26.46-11.82-26.46l-.34-24S426.42,681.61,439.76,674.93Z"/><path class="cls-2" d="M332,605.62l-.9,2s-3.1-.1-6.44,13.8l36.89,9.19s5.5-18-3.72-22.53l-4.93-1-5.1.8v-2.94Z"/><path class="cls-3" d="M224.49,730.73v3.89h-7l-2.38,5.24.46,32.66,2.6,5.89h7.07s1.28-1.31,1.15-7.19,0-7.38,0-7.38l11.53-.09,0,11.33s.38,3.33,1.13,3.33h7.07s2.87-3.95,3.36-7.2-.09-30.55-.09-30.55l-2.61-6h-7.55l-.22-2.39Z"/><g id="Base"><g id="base-2" data-name="base"><path class="cls-3" d="M20.67,672.52a20.22,20.22,0,0,0-16.78,8.67c-6.41,9.3,0,21.36,0,21.36,3.41,17.77,18.88,16.9,18.88,16.9,22.73-.23,19.52-27.37,19.52-27.37l.23-18.94S34,679.19,20.67,672.52Z"/><path class="cls-1" d="M131,604.42l.43,2.22s3-.18,6.34,13.69L102,629.24s-4.93-17.4,4.3-22l3.82-1.38,5.11.79v-2.93Z"/><path class="cls-3" d="M224.11,730.81v3.89h-7l-2.37,5.23.44,32.6,2.61,5.88h7.08s1.27-1.31,1.15-7.19,0-7.36,0-7.36l11.54-.09,0,11.31s.38,3.33,1.13,3.33h7.08s2.88-3.94,3.36-7.19-.07-30.5-.07-30.5l-2.61-6h-7.57l-.22-2.4Z"/><path class="cls-4" d="M43.36,674,43,691.66l-.68.42s-1.35-5.73-5.47-9a21,21,0,0,0-7-3.7V675.8"/><circle class="cls-5" cx="22.77" cy="700.57" r="18.88"/><path class="cls-6" d="M3.89,703C2.7,700.5,1,694.49,1,691.56a18.87,18.87,0,0,1,18.88-18.87"/><path class="cls-6" d="M1.12,692.63c0-10.42,10.69-18.26,21.12-18.26"/><circle class="cls-5" cx="23.12" cy="700.63" r="3.24"/><path class="cls-5" d="M23.5,684.66s.08,10.37.51,10.87.84.93,2,0,5.81-8.18,5.81-8.18"/><path class="cls-5" d="M34.34,689.85s-6.66,7.95-6.67,8.61,0,1.25,1.54,1.31,9.73-2.46,9.73-2.46"/><path class="cls-5" d="M39,700.63s-10.37,0-10.87.45-.94.84,0,2S36.29,709,36.29,709"/><path class="cls-5" d="M34.64,711.45s-8.23-6.29-8.89-6.27-1.25.1-1.24,1.6,2.89,9.61,2.89,9.61"/><path class="cls-5" d="M21.06,684.68s.5,10.36.11,10.89-.79,1-2,.11-6.27-7.83-6.27-7.83"/><path class="cls-5" d="M10.53,690.48s7.1,7.56,7.15,8.21,0,1.25-1.47,1.4-9.85-1.9-9.85-1.9"/><path class="cls-5" d="M6.47,702.86s10.35-.56,10.88-.17,1,.78.13,2S9.68,711,9.68,711"/><path class="cls-5" d="M12.93,713.52s6.79-7.83,7.44-7.95,1.24-.15,1.53,1.32-.88,10-.88,10"/><path class="cls-5" d="M417.44,671.09v21.53l.65.46s1.73-5.62,6.07-8.64a21.1,21.1,0,0,1,7.23-3.21l.24-3.55"/><circle class="cls-5" cx="436.59" cy="703.28" r="19.29"/><path class="cls-5" d="M456.35,705.64a30.72,30.72,0,0,0,3-10.28C460,685,453.91,676,443.51,675.25"/><path class="cls-5" d="M459.26,696.05c.7-10.4-9.56-18.58-20-19.28"/><path class="cls-5" d="M458.5,699.67c-1.58-14.88-13.86-20.42-26.41-18.24"/><circle class="cls-5" cx="436.64" cy="702.91" r="3.24"/><path class="cls-5" d="M437.34,687s-.78,10.34-1.24,10.81-.9.87-2-.13-5.25-8.56-5.25-8.56"/><path class="cls-5" d="M426.18,691.4s6.1,8.37,6.07,9-.13,1.25-1.63,1.21-9.54-3.11-9.54-3.11"/><path class="cls-5" d="M420.78,701.84s10.34.73,10.82,1.18.87.9-.13,2-8.53,5.29-8.53,5.29"/><path class="cls-5" d="M424.41,712.93s8.65-5.72,9.3-5.66,1.24.18,1.13,1.68-3.53,9.39-3.53,9.39"/><path class="cls-5" d="M439.78,687.14s-1.21,10.29-.85,10.85.72,1,2,.25,6.79-7.39,6.79-7.39"/><path class="cls-5" d="M449.88,693.63s-7.59,7.06-7.68,7.71-.11,1.25,1.37,1.5,10-1.23,10-1.23"/><path class="cls-5" d="M453.1,706.26s-10.29-1.26-10.84-.91-1,.72-.27,2,7.36,6.82,7.36,6.82"/><path class="cls-5" d="M445.94,716.46s-6.25-8.28-6.89-8.43-1.22-.24-1.62,1.2.21,10,.21,10"/><path class="cls-3" d="M116.55,619.78q.33.83.6,1.71a22.33,22.33,0,0,1,.73,3.33,20.57,20.57,0,0,1-4.28-.75l-.07,0-.27-.2C113.8,623.05,115.21,621.33,116.55,619.78Z"/><g class="cls-7"><path class="cls-3" d="M108.85,628.07c.13.06.14.15.16.47,0,.64-.3,3.5-.66,6.14a13.74,13.74,0,0,1-3-3.38A28.58,28.58,0,0,1,108.7,628Z"/><path class="cls-8" d="M110.16,611.89c-.11,7.32-.3,8.05-.46,8.3l0,0c-.22.29-.44.45-.72.31h0a2.22,2.22,0,0,1-.76-.89c-.55-.94-2.2-5.64-2.87-7.58a4.61,4.61,0,0,1,.85-.45c.9,2.59,2.08,5.86,2.43,6.44a1.54,1.54,0,0,0,.4.53.11.11,0,0,0,.13,0c.09-.86.18-4,.23-7A6,6,0,0,1,110.16,611.89Z"/><path class="cls-3" d="M108.86,626.1l-.21-.08c-.1,0-.43-.12-4.09,3.88-.2-.4-.4-.81-.59-1.23a14.54,14.54,0,0,0,3.46-2.31,2.66,2.66,0,0,0,.45-1.63,3.25,3.25,0,0,0-.49-1.66c-.08-.14-.29-.51-4.24-2.44l-1-.5c0-.25,0-.5,0-.75s0-.48,0-.72a42,42,0,0,0,4.46,3.78l0,0c.53.22.84.14,1-.26a3.11,3.11,0,0,0,.2-1.27c0-.51,0-.95-3.18-8.42a4.81,4.81,0,0,1,.57-.44c.67,1.94,2.32,6.64,2.87,7.58a2.22,2.22,0,0,0,.76.89,3.3,3.3,0,0,0-.76,2.2,6.76,6.76,0,0,0,.3,2.27,6.06,6.06,0,0,0,.46,1.13Z"/><path class="cls-8" d="M108.86,626.1l.07,0a1.44,1.44,0,0,1,.61.85,5.67,5.67,0,0,1,.27,1.44,51.6,51.6,0,0,1-.64,6.83,8.76,8.76,0,0,1-.82-.58c.36-2.64.69-5.5.66-6.14,0-.32,0-.41-.16-.47l-.15-.05a28.58,28.58,0,0,0-3.32,3.28c-.29-.45-.56-.91-.82-1.4,3.66-4,4-3.91,4.09-3.88Z"/><path class="cls-3" d="M110.37,628.94a68.56,68.56,0,0,0,.92,7.24,6.5,6.5,0,0,1-1.35-.49l-.38-.2-.39-.23a51.6,51.6,0,0,0,.64-6.83,5.67,5.67,0,0,0-.27-1.44,2.44,2.44,0,0,0,.58.46l.09,0a1.23,1.23,0,0,0,.38.13A4.13,4.13,0,0,0,110.37,628.94Z"/><path class="cls-3" d="M111.41,619.87a.35.35,0,0,1-.14-.17c0-.93,0-4.11.14-7.08a13.3,13.3,0,0,1,3.13,3.31,25.26,25.26,0,0,1-2.72,3.83C111.62,619.88,111.5,619.91,111.41,619.87Z"/><path class="cls-8" d="M111.51,627.29l.06,0c.2.18.9,1.13,4.34,7.32a5.23,5.23,0,0,1-.86.78c-1.65-2.95-3.31-5.83-3.63-6.2a.61.61,0,0,0-.22-.07s0,.1,0,.24c0,.63.48,3.89,1,6.9a4.34,4.34,0,0,1-.86-.12,68.56,68.56,0,0,1-.92-7.24,4.13,4.13,0,0,1,.22-1.32A.58.58,0,0,1,111.51,627.29Z"/><path class="cls-8" d="M110.59,612.11h0c.26.15.53.32.79.5-.11,3-.19,6.15-.14,7.08a.35.35,0,0,0,.14.17c.09,0,.21,0,.41-.11a25.26,25.26,0,0,0,2.72-3.83q.4.6.78,1.26c-.74,1.2-2.61,4.16-3.21,4.51a1,1,0,0,1-.41.17.62.62,0,0,1-.36,0,1.83,1.83,0,0,1-.7-1,1.18,1.18,0,0,1-.1-.33C110.43,619.86,110.36,618.25,110.59,612.11Z"/><path class="cls-8" d="M115.87,618.24c.24.5.47,1,.68,1.54-1.34,1.55-2.75,3.27-3.29,4.06l.27.2.07,0a20.57,20.57,0,0,0,4.28.75,19.94,19.94,0,0,1,.17,2l-1-.12c-1.09-.59-1.9-1-2.5-1.3-1.61-.78-1.75-.69-1.81-.65a1.17,1.17,0,0,0-.21.16c0-.08,0-.15-.07-.23a3.38,3.38,0,0,1-.09-.41,2.72,2.72,0,0,1,0-.39,4.29,4.29,0,0,1,0-.63C112.35,622.76,112.37,622.32,115.87,618.24Z"/><path class="cls-8" d="M117.78,620.45a24.93,24.93,0,0,1,1.08,8.26c-.33,7.31-4.32,11.21-9,8.93l-.39-.2c-2.56-1.43-4.87-4.45-6.39-8.29,0-.09-.07-.18-.11-.26-.21-.56-.41-1.13-.59-1.72a25.16,25.16,0,0,1-1.08-8.26c.33-7.31,4.34-11.2,9-8.92l.36.19C113.68,611.84,116.33,615.69,117.78,620.45Zm.2,8.76c0-.32,0-.65.07-1s0-.64,0-1c0-.15,0-.3,0-.44a19.94,19.94,0,0,0-.17-2,22.33,22.33,0,0,0-.73-3.33q-.27-.88-.6-1.71c-.21-.53-.44-1-.68-1.54s-.36-.71-.55-1-.51-.86-.78-1.26a13.3,13.3,0,0,0-3.13-3.31c-.26-.18-.53-.35-.79-.5l-.38-.19-.08,0a6,6,0,0,0-.82-.32,4.7,4.7,0,0,0-3.19,0,4.61,4.61,0,0,0-.85.45,4.81,4.81,0,0,0-.57.44,5.89,5.89,0,0,0-.75.82,9,9,0,0,0-1.53,3.54,13.69,13.69,0,0,0-.28,1.79c0,.24,0,.48,0,.72s0,.5,0,.75a17.62,17.62,0,0,0,.11,2,21.43,21.43,0,0,0,.81,4c.08.28.17.55.26.81.21.6.44,1.18.68,1.74s.39.83.59,1.23.53,1,.82,1.4a13.74,13.74,0,0,0,3,3.38,8.76,8.76,0,0,0,.82.58l.39.23.38.2a6.5,6.5,0,0,0,1.35.49,4.6,4.6,0,0,0,3.76-.75,5.23,5.23,0,0,0,.86-.78l.25-.32a6.77,6.77,0,0,0,.7-1.11,11.5,11.5,0,0,0,1.12-4"/><path class="cls-3" d="M106.7,620.49h0a40.34,40.34,0,0,1-4.22-3.61,9,9,0,0,1,1.53-3.54c1.22,2.85,2.49,5.93,3,7.24Z"/><path class="cls-3" d="M109.1,624a2.07,2.07,0,0,1-.11-.75c0-.73.59-1.26,1.29-.92l.07,0a2.73,2.73,0,0,1,1.1,1.54,2.41,2.41,0,0,1,.11.76c0,.74-.6,1.25-1.29.91l-.07,0A2.66,2.66,0,0,1,109.1,624Z"/><path class="cls-8" d="M119.08,619.9a28.49,28.49,0,0,1,1.26,9.58c-.38,8.52-5,13-10.51,10.38a4.78,4.78,0,0,1-.45-.23c-3.5-1.94-6.59-6.43-8.29-12A29,29,0,0,1,99.83,618c.39-8.53,5.08-13,10.57-10.34l.4.2C114.3,609.84,117.39,614.33,119.08,619.9Zm.45,9.11a24.36,24.36,0,0,0-1.08-8.07c-1.56-5.12-4.45-9.27-7.73-11.1l-.44-.23c-5-2.45-9.3,1.44-9.63,8.9a24.16,24.16,0,0,0,1.08,8.08c1.55,5.12,4.44,9.27,7.73,11.09a4.92,4.92,0,0,0,.45.24c5,2.45,9.29-1.45,9.62-8.91"/><path class="cls-8" d="M103,629.18l0-.29c0,.08.07.17.11.26Z"/><path class="cls-3" d="M102.85,622.46a41.18,41.18,0,0,1,4.08,2.18,19.29,19.29,0,0,1-3.64,2.29c-.09-.26-.18-.53-.26-.81a21.43,21.43,0,0,1-.81-4Z"/><path class="cls-8" d="M104.73,612.51c3.18,7.47,3.18,7.91,3.18,8.42a3.11,3.11,0,0,1-.2,1.27c-.2.4-.51.48-1,.26l0,0a42,42,0,0,1-4.46-3.78,13.69,13.69,0,0,1,.28-1.79,40.34,40.34,0,0,0,4.22,3.61h0l.25.08c-.48-1.31-1.75-4.39-3-7.24A5.89,5.89,0,0,1,104.73,612.51Z"/><path class="cls-3" d="M110.43,620.38l-.09,0a1.3,1.3,0,0,0-.64-.15c.16-.25.35-1,.46-8.3l.08,0,.35.18c-.23,6.14-.16,7.75,0,8.34Z"/><path class="cls-3" d="M112.37,625.12v0a7.51,7.51,0,0,0,0-.82,3.38,3.38,0,0,0,.09.41c0,.08,0,.15.07.23A.86.86,0,0,0,112.37,625.12Z"/><path class="cls-3" d="M111.2,629.16a.61.61,0,0,1,.22.07c.32.37,2,3.25,3.63,6.2a4.34,4.34,0,0,1-2.9.87c-.49-3-1-6.27-1-6.9C111.19,629.26,111.2,629.18,111.2,629.16Z"/><path class="cls-3" d="M112.15,626.36a6,6,0,0,0,.36,1.57,69.66,69.66,0,0,0,3.65,6.4l-.25.32c-3.44-6.19-4.14-7.14-4.34-7.32A2.22,2.22,0,0,0,112.15,626.36Z"/><path class="cls-3" d="M111.7,621.87a1,1,0,0,0,.41-.17c.6-.35,2.47-3.31,3.21-4.51.19.34.38.69.55,1-3.5,4.08-3.52,4.52-3.55,5a4.29,4.29,0,0,0,0,.63,6.61,6.61,0,0,0-.24-1.07A5.38,5.38,0,0,0,111.7,621.87Z"/><path class="cls-3" d="M113.1,626.74a10.7,10.7,0,0,1,1.13.51c1,.48,2.38,1.21,3.75,2a11.5,11.5,0,0,1-1.12,4C115.41,630.89,113.41,627.53,113.1,626.74Z"/><path class="cls-3" d="M118.07,627.27l-1-.56,1,.12C118.06,627,118.06,627.12,118.07,627.27Z"/><path class="cls-8" d="M114.54,625.41c.6.3,1.41.71,2.5,1.3l1,.56c0,.32,0,.64,0,1l.41.24-.41-.24c0,.33,0,.66-.07,1-1.37-.75-2.77-1.48-3.75-2a10.7,10.7,0,0,0-1.13-.51c.31.79,2.31,4.15,3.76,6.48a6.77,6.77,0,0,1-.7,1.11,69.66,69.66,0,0,1-3.65-6.4,6,6,0,0,1-.36-1.57,3.92,3.92,0,0,1,0-.48,1.69,1.69,0,0,1,.21-.76.86.86,0,0,1,.15-.2,1.17,1.17,0,0,1,.21-.16C112.79,624.72,112.93,624.63,114.54,625.41Z"/><path class="cls-3" d="M118.45,620.94a24.36,24.36,0,0,1,1.08,8.07c-.33,7.46-4.6,11.36-9.62,8.91a4.92,4.92,0,0,1-.45-.24c-3.29-1.82-6.18-6-7.73-11.09a24.16,24.16,0,0,1-1.08-8.08c.33-7.46,4.61-11.35,9.63-8.9l.44.23C114,611.67,116.89,615.82,118.45,620.94Zm.41,7.77a24.93,24.93,0,0,0-1.08-8.26c-1.45-4.76-4.1-8.61-7.09-10.27l-.36-.19c-4.68-2.28-8.69,1.61-9,8.92a25.16,25.16,0,0,0,1.08,8.26c.18.59.38,1.16.59,1.72l0,.29.07,0c1.52,3.84,3.83,6.86,6.39,8.29l.39.2c4.67,2.28,8.66-1.62,9-8.93"/><path class="cls-8" d="M107.88,624.73a2.66,2.66,0,0,1-.45,1.63,14.54,14.54,0,0,1-3.46,2.31c-.24-.56-.47-1.14-.68-1.74a19.29,19.29,0,0,0,3.64-2.29,41.18,41.18,0,0,0-4.08-2.18l-.63-.3a17.62,17.62,0,0,1-.11-2l1,.5c3.95,1.93,4.16,2.3,4.24,2.44A3.25,3.25,0,0,1,107.88,624.73Z"/><path class="cls-3" d="M109,618.59a1.54,1.54,0,0,1-.4-.53c-.35-.58-1.53-3.85-2.43-6.44a4.7,4.7,0,0,1,3.19,0c0,3-.14,6.13-.23,7A.11.11,0,0,1,109,618.59Z"/><path class="cls-8" d="M112.36,624.28a7.51,7.51,0,0,1,0,.82,1.88,1.88,0,0,0-.21.78,3.92,3.92,0,0,0,0,.48,2.22,2.22,0,0,1-.58,1l-.06,0a.58.58,0,0,0-.92.33,1.23,1.23,0,0,1-.38-.13l-.09,0a2.44,2.44,0,0,1-.58-.46,1.44,1.44,0,0,0-.61-.85,6.06,6.06,0,0,1-.46-1.13,6.76,6.76,0,0,1-.3-2.27,3.3,3.3,0,0,1,.76-2.2h0c.28.14.5,0,.72-.31l0,0a1.3,1.3,0,0,1,.64.15l.09,0,.11.07a1.18,1.18,0,0,0,.1.33,1.83,1.83,0,0,0,.7,1,.62.62,0,0,0,.36,0,5.38,5.38,0,0,1,.38,1,6.61,6.61,0,0,1,.24,1.07A2.72,2.72,0,0,0,112.36,624.28Zm-.8.34a2.41,2.41,0,0,0-.11-.76,2.73,2.73,0,0,0-1.1-1.54l-.07,0c-.7-.34-1.26.19-1.29.92a2.07,2.07,0,0,0,.11.75,2.66,2.66,0,0,0,1.1,1.54l.07,0c.69.34,1.26-.17,1.29-.91"/></g><g class="cls-7"><path class="cls-8" d="M362.44,620h0l.06.66-.05,0C362.45,620.43,362.45,620.2,362.44,620Z"/><path class="cls-8" d="M361.12,627.81c.08-.21.15-.41.22-.61h0l0,.67Z"/><path class="cls-8" d="M352.49,612l.27-.12c.26,3.5.61,7.16.75,7.53.12.11.23.23.42.14a1.91,1.91,0,0,0,.6-.71c.49-.82,2.06-5.45,2.66-7.24a1.75,1.75,0,0,1,.32.12c-.51,1.51-2.27,6.73-2.83,7.67a2,2,0,0,1-.7.81c-.24.12-.42,0-.59-.19S352.87,617.08,352.49,612Z"/><path class="cls-8" d="M351.73,628.07c.33-.15.74-.21.88,1.11a69.17,69.17,0,0,1-.72,7.44l-.3.06c.36-2.73.82-6.64.75-7.33s-.21-.78-.56-.61l-.12.06c-.26.16-2.6,4.23-4.21,7.09l-.34-.23c.93-1.67,4.12-7.32,4.49-7.52Z"/><path class="cls-8" d="M351.37,612.58c.52,5,.71,7.82.54,8.24a1.4,1.4,0,0,1-.55.83.91.91,0,0,1-.73,0c-.67-.28-3.21-3.27-3.89-4.08l.27-.43c.83,1,3.08,3.6,3.67,3.84a.79.79,0,0,0,.62.06,1.05,1.05,0,0,0,.41-.62c.06-.45-.25-4.15-.61-7.62Z"/><path class="cls-8" d="M349,626.17a2.49,2.49,0,0,1,.93-.33.73.73,0,0,1,.49.66,3.05,3.05,0,0,1-.24,1.42c-.38,1.07-3.22,5.62-4,6.88-.1-.11-.2-.23-.29-.35,1.31-2.08,3.76-6.07,4.08-7a2.4,2.4,0,0,0,.19-.75c0-.05-.06-.12-.29-.22a2,2,0,0,0-.68.26c-1.15.55-3.47,1.84-5.18,2.82,0-.12,0-.23,0-.34l0-.31C345,628.3,347.61,626.84,349,626.17Z"/><path class="cls-8" d="M350.09,623.93a2.26,2.26,0,0,1,0,.86,1.71,1.71,0,0,1-.85,1.06l-.15.08a33.72,33.72,0,0,1-5.19,1.23c0-.23,0-.45,0-.68a33.82,33.82,0,0,0,5.1-1.21l.14-.07c.49-.32.64-.58.68-.74a1.16,1.16,0,0,0,0-.27,44.61,44.61,0,0,0-4.41-4.09c.08-.17.15-.35.23-.52C350,623.28,350.07,623.73,350.09,623.93Z"/><path class="cls-8" d="M362.34,618.57c.05.46.09.93.1,1.4,0,.23,0,.46,0,.69a20.45,20.45,0,0,1-.6,4.74c-.14.61-.32,1.21-.51,1.8-.07.2-.14.4-.22.61-1.44,3.92-3.91,7.2-6.76,8.86l-.71.37c-4.9,2.33-9.35-.89-10.08-7.54a16.84,16.84,0,0,1-.11-2.27c0-.22,0-.45,0-.68a21.9,21.9,0,0,1,.57-3.88c1.21-5,4.08-9.27,7.5-11.27.24-.13.47-.26.7-.37,4.37-2.07,8.38.26,9.72,5.5,0,.19.1.39.14.59A12.92,12.92,0,0,1,362.34,618.57Zm-.32,1.62q0-.69-.09-1.35a13.63,13.63,0,0,0-.21-1.35c-.05-.2-.09-.4-.15-.59a8.3,8.3,0,0,0-2.44-4.21l-.29-.24a5.67,5.67,0,0,0-1.33-.75,1.75,1.75,0,0,0-.32-.12,6.31,6.31,0,0,0-4.43.28l-.27.12-.15.07-.69.36-.28.17-.27.17a14.61,14.61,0,0,0-4.09,4.34l-.27.43a19.1,19.1,0,0,0-1.08,2.06c-.08.17-.15.35-.23.52a21.2,21.2,0,0,0-1,3.1,17.84,17.84,0,0,0-.5,3.28c0,.23,0,.45,0,.68a14.83,14.83,0,0,0,.05,1.77l0,.31c0,.11,0,.22,0,.34a10.07,10.07,0,0,0,1.88,4.87c.09.12.19.24.29.35a6.75,6.75,0,0,0,.92.86l.34.23a5.63,5.63,0,0,0,4.14.79l.3-.06a8.48,8.48,0,0,0,1.64-.58c.24-.12.48-.24.73-.39a9.06,9.06,0,0,0,.77-.49l.27-.2a15.44,15.44,0,0,0,3.91-4.47l.28-.48a20.8,20.8,0,0,0,1.13-2.38c.07-.2.15-.4.22-.61a18.93,18.93,0,0,0,.65-2.14,19.46,19.46,0,0,0,.53-4q0-.36,0-.69"/><path class="cls-8" d="M355.81,624.63a2,2,0,0,1,.33-1.11c.26-.44,4.33-2.54,5.88-3.33q0,.33,0,.69a50.88,50.88,0,0,0-5.72,3.19c-.18.32-.22.45-.21.49s0,.19.29.49a21.23,21.23,0,0,0,4.46,2c-.07.21-.15.41-.22.61-1.28-.46-3.89-1.45-4.35-2A1.63,1.63,0,0,1,355.81,624.63Z"/><path class="cls-3" d="M355.84,620.9c.18-.75,2.07-5.33,3.29-8.21a8.3,8.3,0,0,1,2.44,4.21,51.28,51.28,0,0,1-4.92,4.21h0c-.52.23-.69.12-.74,0A.63.63,0,0,1,355.84,620.9Z"/><path class="cls-8" d="M354.74,623a4.63,4.63,0,0,1-.11,1.56,3.88,3.88,0,0,1-1.57,2.39l-.16.07c-1,.5-2-.2-2.14-1.69a4.38,4.38,0,0,1,.11-1.56,3.86,3.86,0,0,1,1.57-2.39l.13-.06C353.63,620.8,354.57,621.49,354.74,623Zm-.34,1.22a3.13,3.13,0,0,0,.07-1c-.12-1.11-.94-1.64-1.83-1.22l-.13.08a3.29,3.29,0,0,0-1.4,2.07,3.19,3.19,0,0,0-.09,1c.13,1.1,1,1.64,1.82,1.22l.15-.08a3.38,3.38,0,0,0,1.41-2.07"/><path class="cls-3" d="M352.64,622c.89-.42,1.71.11,1.83,1.22a3.13,3.13,0,0,1-.07,1,3.38,3.38,0,0,1-1.41,2.07l-.15.08c-.87.42-1.69-.12-1.82-1.22a3.19,3.19,0,0,1,.09-1,3.29,3.29,0,0,1,1.4-2.07Z"/><path class="cls-8" d="M364,617.56a23.44,23.44,0,0,1-.57,8c-1.42,5.83-4.79,10.9-8.81,13.24-.28.15-.56.3-.84.43-5.76,2.75-11-1-11.84-8.84a23.1,23.1,0,0,1,.57-8c1.41-5.84,4.79-10.91,8.81-13.24.28-.16.55-.3.82-.43C357.88,606,363.11,609.76,364,617.56ZM363,625a20.91,20.91,0,0,0,.52-7.14c-.8-7.21-5.77-10.65-11.28-8-.28.13-.56.28-.84.44-3.9,2.27-7.17,7.14-8.52,12.72a21.12,21.12,0,0,0-.53,7.13c.81,7.22,5.79,10.65,11.3,8,.27-.13.55-.28.82-.44,3.91-2.27,7.17-7.14,8.53-12.71"/><path class="cls-3" d="M363.53,617.86c-.8-7.21-5.77-10.65-11.28-8-.28.13-.56.28-.84.44-3.9,2.27-7.17,7.14-8.52,12.72a21.12,21.12,0,0,0-.53,7.13c.81,7.22,5.79,10.65,11.3,8,.27-.13.55-.28.82-.44,3.91-2.27,7.17-7.14,8.53-12.71A20.91,20.91,0,0,0,363.53,617.86Zm-1.08,2.8a20.45,20.45,0,0,1-.6,4.74c-.14.61-.32,1.21-.51,1.8l0,.67-.19-.06c-1.44,3.92-3.91,7.2-6.76,8.86l-.71.37c-4.9,2.33-9.35-.89-10.08-7.54-.09-.73-.12-1.49-.15-2.26l0-.67.08,0a21.9,21.9,0,0,1,.57-3.88c1.21-5,4.08-9.27,7.5-11.27.24-.13.47-.26.7-.37,4.37-2.07,8.38.26,9.72,5.5l.12-.11.1.63-.08.07a12.92,12.92,0,0,1,.23,1.45c.05.46.09.93.1,1.4l.06.66-.05,0"/><path class="cls-8" d="M362.09,616.42l.1.63-.08.07c0-.2-.09-.4-.14-.59Z"/><path class="cls-8" d="M356.65,621.11a51.28,51.28,0,0,0,4.92-4.21c.06.19.1.39.15.59a51.41,51.41,0,0,1-5,4.28h0c-.51.22-.8.2-1-.08a1.91,1.91,0,0,1-.16-.78c0-.2,0-.67,3.27-8.47l.29.24c-1.22,2.88-3.11,7.46-3.29,8.21a.63.63,0,0,0,.05.25c.05.09.22.2.74,0Z"/><path class="cls-8" d="M354.52,626.72l.21-.08c.36-.13,3.65,2.48,4.76,3.37l-.28.48c-1.74-1.39-4.18-3.24-4.45-3.19l-.17.07c-.3.15-.45.38-.48,1.14A55.18,55.18,0,0,0,355.3,635l-.27.2a52.62,52.62,0,0,1-1.2-6.72C353.88,627.21,354.21,626.87,354.52,626.72Z"/><path class="cls-3" d="M354.59,627.37l.17-.07c.27,0,2.71,1.8,4.45,3.19A15.44,15.44,0,0,1,355.3,635a55.18,55.18,0,0,1-1.19-6.45C354.14,627.75,354.29,627.52,354.59,627.37Z"/><path class="cls-3" d="M351.3,621a.79.79,0,0,1-.62-.06c-.59-.24-2.84-2.86-3.67-3.84a14.61,14.61,0,0,1,4.09-4.34c.36,3.47.67,7.17.61,7.62A1.05,1.05,0,0,1,351.3,621Z"/><path class="cls-3" d="M350.17,626.72a2.4,2.4,0,0,1-.19.75c-.32.91-2.77,4.9-4.08,7a10.07,10.07,0,0,1-1.88-4.87c1.71-1,4-2.27,5.18-2.82a2,2,0,0,1,.68-.26C350.11,626.6,350.16,626.67,350.17,626.72Z"/><path class="cls-3" d="M349.16,625.2l-.14.07a33.82,33.82,0,0,1-5.1,1.21,17.84,17.84,0,0,1,.5-3.28,21.2,21.2,0,0,1,1-3.1,44.61,44.61,0,0,1,4.41,4.09,1.16,1.16,0,0,1,0,.27C349.8,624.62,349.65,624.88,349.16,625.2Z"/><path class="cls-8" d="M343.42,627.24l0-.67.08,0c0,.23,0,.46,0,.68Z"/></g><path class="cls-3" d="M214.39,509.46,214.3,531s-1.82,1.54-1.27,11.54c0,0-2.68,0-2.9,7.68s-1.58,47-1.58,47-33.16-14.2-84.39-6.41c0,0-12.7,2.16-13.69,8.06s.31,7.43.31,7.43l4.43.82,15.28-.21.13-2.2s13.31.94,20.81,2.62,15.68,3.89,18.08,5.21l.15.72s-24.69,5.39-28,6.16S97.14,630.47,87.46,633.5s-41.9,14.55-41.9,14.55l-22.44,9.78s-5.49,4.15-3.24,14a6.58,6.58,0,0,0,.79.68c2.29,1.73,9.51,5.83,21.85.62l2.38-4.3s68.08-22,114.51-27.2,43.91-5.39,43.91-5.39,8.07-1.41,9.23,8.19,5.21,77.81,5.21,77.81,1.39,10.89,14.08,10.47,15.77-5.85,15.77-5.85,1.39-1.11,1.71-7.91L253,640.43s3.32-2.88,10.34-1.79,34,4.24,34,4.24,33.63,4.44,54.22,9.64S419,670.82,419,670.82l2.47,4.49s8.35,4.92,14.3,2.43,8.17-2.87,8.17-2.87,3.44-12-5.12-15.91-55.77-24.89-106.73-35.12l-38.8-8.66s10.76-7.2,34.59-8.95,19.74-1,19.74-1v2.93l5.11-.8s2.76-8.83-3.17-11.84-17.5-7.45-48.88-5.54-44.46,7.72-44.46,7.72l-1.36-47.13s.92-5.08-2.66-7.43c0,0,.86-9.81-1.27-12.22l-1.06-17.76Z"/><path class="cls-5" d="M256.41,606.37l-.15-8.62s13.58-7.31,53-8,43,8.31,43,8.31,1.8,1.47.45,9.33c0,0-4.16,1-4.72.79s-.22-2.92-.22-2.92-34.39-.45-54.95,8.87"/><path class="cls-5" d="M208.55,605.49v-8.3s-14.84-7.88-54.28-8.56-43,8.32-43,8.32-1.79,1.46-.45,9.32c0,0,4.16,1,4.72.79s.23-2.92.23-2.92,34.38-.45,55,8.88"/><path class="cls-5" d="M255.49,607.66s63.76,11.69,110.29,24.84,74.83,27.31,74.83,27.31,5.95,3.15,3.37,15.06c0,0-11.58,7-22.47.44L419,670.82s-47.87-14.21-79.06-21a522.71,522.71,0,0,0-55.45-8.41q-10.63-1.08-21.18-2.82l-.07,0a15.71,15.71,0,0,0-8.47,1l-1.8.85,0,1-3.77,80.33a10.66,10.66,0,0,1-8.29,9.9,48.92,48.92,0,0,1-7.3,1c-14.83,1-15.79-9.49-15.79-9.49s-1.35-22.48-2.91-52.38-3.81-31.9-3.81-31.9l-.19-.35-1.68-1.12a15.75,15.75,0,0,0-8.48-1l-.05,0q-10.56,1.75-21.19,2.81A525.92,525.92,0,0,0,124,647.7c-31.17,6.74-79,20.95-79,20.95l-2.48,4.49c-10.9,6.53-22.47-.44-22.47-.44-2.59-11.91,3.37-15.06,3.37-15.06s28.32-14.16,74.84-27.31,110.29-24.84,110.29-24.84l.07.88"/><path class="cls-5" d="M234.45,613c15,.38,22-6.65,22-6.65l.07-.88-1.59-55.3a17.85,17.85,0,0,0-.6-4.24,6.69,6.69,0,0,0-1.29-2.76s-.51,7.42-18.55,7.42h-3.88c-18,0-18.54-7.42-18.54-7.42a6.7,6.7,0,0,0-1.3,2.76,18.38,18.38,0,0,0-.6,4.24l-1.58,55.3.06.88s7,7,22,6.65Z"/><path class="cls-5" d="M231.08,550.61c-15.85.25-18-7-18-7v-7.16s-.17-4.13,1.26-5.48c0,0-.16,6.66,17.7,6.58h1.27c17.86.08,17.7-6.58,17.7-6.58,1.43,1.35,1.26,5.48,1.26,5.48v7.16s-2.19,7.25-18,7Z"/><path class="cls-5" d="M214.39,531.52V509.46s7.37.7,18.09,2.1,17.43,1.65,17.43,1.65l.66,17.45s-.9,7.31-17.53,6.89S214.39,531.52,214.39,531.52Z"/><path class="cls-5" d="M224.11,731.27v3.43a2.59,2.59,0,0,1,1.4,2.24H238s.23-2,.9-2.13v-2.76"/><path class="cls-5" d="M224.11,734.7h-7l.68,43.71h7.08s1.35-.9,1.12-4.72l-.45-36.75"/><path class="cls-5" d="M217.3,734.7l-1.1,2c-2.27,4.29-1.22,2.15-1.41,18.75v.38c.19,16.6-.4,16.18,1.87,20.48l1.1,2"/><path class="cls-5" d="M239.42,734.7h7l-.68,43.71h-7.08s-1.35-.9-1.12-4.72l.45-36.75"/><path class="cls-5" d="M246.54,735l1.1,2.05c2.27,4.3,1.22,2.15,1.41,18.76v.37c-.19,16.61.4,16.19-1.87,20.48l-1.1,2.05"/><line class="cls-5" x1="225.99" y1="763.24" x2="237.7" y2="763.24"/><path class="cls-6" d="M2.28,696.68c0-10.43,8.85-17.85,19.28-17.85a18.94,18.94,0,0,1,8.26,1.11"/><circle class="cls-5" cx="436.64" cy="702.87" r="16.04"/><circle class="cls-5" cx="22.77" cy="700.57" r="16.04"/><line class="cls-5" x1="115.5" y1="607.06" x2="121.79" y2="606.88"/><path class="cls-4" d="M137.62,619.81s-3-11.18-5.15-12.37L132,620.11l-9.35,2.44-.25-2.44a21.91,21.91,0,0,0-3.26-8.18v-4.55a8.07,8.07,0,0,0,7.53,2.87c4.83-.79,5.33-2.87,5.33-2.87l-1.29-1.89v1.39h-8.88v-2.36"/><line class="cls-5" x1="347.66" y1="608.4" x2="341.06" y2="608.21"/><path class="cls-4" d="M324.82,620.88s2.83-10.83,5-12.08l.53,13.27,9.81,2.56.27-2.56a22.79,22.79,0,0,1,3.42-8.56v-4.77a8.48,8.48,0,0,1-7.9,3c-5.07-.82-5.6-3-5.6-3l1.35-2v1.45h9.32v-2.47"/></g></g><g id="Frontal-2" data-name="Frontal"><path class="cls-1" d="M50.85,461.8l.42-100.32,2.38-2.13,8.74-.48,1.38-1.57s7.52-1.53,8.78-7.35-1.75-14.83-7.68-16.47-13.26,2.4-20,4.69-15.64.28-17.26-.36-10.07-4.09-15.37.29S5.79,345,6.07,349.68,9.66,356.9,12.9,358a21.2,21.2,0,0,1,4.56,2H27.52l.51,1.33.24,5.57L32,462.32S42.4,464.27,50.85,461.8Z"/><path class="cls-1" d="M33.24,462.52c15.93.92,15.87-.28,15.87-.28v1.48l1.79,1s.71,19.15,1,20.52,4.81,2.84,4.81,2.84l20,.58,3.49,8.24-26.95,1-2.8,3s-7.69,2.56-12.18,2.58a10,10,0,0,1-6.86-2.4l-1-4.85,1.14-29.82,1.68-1.56-.07-2.35"/><polyline class="cls-9" points="78.22 494.61 48.39 494.72 47.46 492.45 39.53 492.8 39.57 467.83 37.93 408.67 36.92 361.65"/><line class="cls-9" x1="28.68" y1="360.67" x2="49.89" y2="360.7"/><path class="cls-9" d="M32.82,466.07A25.71,25.71,0,0,0,50,465.61"/><path class="cls-9" d="M48.39,494.72c.55,0,7.39-1.45,7.88-3a4.13,4.13,0,0,0-.78-3.24c-1.15,3.28-8,4-8,4"/><path class="cls-1" d="M403.1,458.08l-.43-100.32-2.37-2.12-8.75-.48-1.37-1.57s-7.53-1.54-8.78-7.35,1.74-14.83,7.67-16.47,13.26,2.39,20,4.69,15.65.27,17.26-.36,10.08-4.1,15.37.28,6.46,6.95,6.18,11.59-3.59,7.22-6.82,8.33a21.1,21.1,0,0,0-4.57,2H426.42l-.5,1.33-.25,5.57-3.75,95.37S411.55,460.56,403.1,458.08Z"/><path class="cls-1" d="M404.83,458.53V460l-1.78,1s-.72,19.14-1,20.52-4.81,2.83-4.81,2.83l-20,.59-3.49,8.24,27,1,2.8,3s7.69,2.56,12.18,2.57a9.92,9.92,0,0,0,6.86-2.39l.95-4.86-1.14-29.82-1.68-1.56.07-2.35S416,460.12,404.83,458.53Z"/><polyline class="cls-9" points="375.73 490.9 405.55 491 406.48 488.73 414.42 489.09 414.38 464.12 416.01 404.95 417.02 357.94"/><line class="cls-9" x1="425.26" y1="356.96" x2="404.05" y2="356.99"/><path class="cls-9" d="M421.12,462.36a25.7,25.7,0,0,1-17.18-.46"/><path class="cls-9" d="M405.55,491c-.55,0-7.38-1.44-7.88-3s.78-3.24.78-3.24c1.15,3.29,8,4,8,4"/><path class="cls-10" d="M361.84,411.06s17.79-1,20.79,19.66c2.79,19.23.1,38.45-12.9,75.65a13,13,0,0,1-12.22,8.69H93.17a10.55,10.55,0,0,1-9.94-7c-13.5-38.29-16.31-57.8-13.47-77.31,3-20.66,28.15-19.66,28.15-19.66"/><path class="cls-11" d="M74.1,420.41s-6.89,11.52,1.61,17.15,53.38,15.62,53.38,15.62l192.75.5s52.75-16.75,56.12-19.5a12.09,12.09,0,0,0,4.06-6.61"/><path class="cls-11" d="M133.59,515.06s-6.75-47.75-4.5-61.88c0,0,.67-12.46,10.67-17.46a67.45,67.45,0,0,0,16.16-11.18"/><path class="cls-11" d="M321.34,515.06s4-47.5.5-61.38c0,0,.75-7.47-6.58-16.63s-6.84-13.68-6.84-13.68"/><path class="cls-10" d="M323.91,88.56l-19.75-65s-6.25-20.25-44.25-21.5-67.75,0-67.75,0-27-1.69-34.86,24.11c-.14.45-.27.91-.39,1.39-1.6,6-3.15,11.61-4.6,16.7-5.11,18-8.9,29.55-8.9,29.55s-9.75,19.75-23.25,32.5-36.5,29.5-37,52.75,1.5,28.5,17.75,77.25c0,0,10,30.5-9,90.75s6,84,6,84,29.25,3,43,12.25l12.43,1.25,165.5-1.25c13.75-9.25,43-12.25,43-12.25s25-23.75,6-84-9-90.75-9-90.75c16.25-48.75,18.25-54,17.75-77.25s-23.5-40-37-52.75C339.59,106.31,327.47,96.68,323.91,88.56Z"/><path class="cls-11" d="M151.48,328.12c-.31-80.69,5.11-169.22,5.11-169.22l143.62-.17s9.88,121,9.55,142.66c-.09,5.68-.13,16.77-.15,30"/><polyline class="cls-11" points="155.67 174.06 195.05 158.4 301.92 195.06"/><polyline class="cls-11" points="154.4 200.56 259.71 158.4 300.75 169.71"/><path class="cls-11" d="M153.33,227.22l146.88-64"/><line class="cls-11" x1="152.46" y1="254.39" x2="302.35" y2="189.38"/><line class="cls-11" x1="151.84" y1="281.39" x2="304.42" y2="215.52"/><line class="cls-11" x1="151.84" y1="307.72" x2="306.36" y2="241.36"/><polyline class="cls-11" points="308.2 267.87 165.26 328.39 151.48 323.81"/><line class="cls-11" x1="232.55" y1="328.39" x2="151.84" y2="296.22"/><line class="cls-11" x1="304.42" y1="330.06" x2="152.46" y2="269.56"/><line class="cls-11" x1="309.71" y1="305.23" x2="153.33" y2="244.22"/><line class="cls-11" x1="308.2" y1="276.89" x2="153.68" y2="218.04"/><line class="cls-11" x1="154.75" y1="192.89" x2="306.95" y2="249.54"/><line class="cls-11" x1="156.06" y1="168.06" x2="304.97" y2="222.71"/><line class="cls-11" x1="309.26" y1="295.47" x2="232.55" y2="328.39"/><line class="cls-11" x1="294.34" y1="329.39" x2="309.63" y2="323.06"/><path class="cls-9" d="M155.92,424.54s-9.33-24.82-11.83-45.65,3.17-49.5,3.17-49.5,2.27-1.75,10.83-1.67,142.83,1.67,142.83,1.67,8.84-.17,10.17,6.33,6.67,31.5,4.5,53.34-3.54,34.3-3.54,34.3Z"/><path class="cls-11" d="M163.42,327.78s-1.83,48.94,4.5,96.28"/><path class="cls-11" d="M295.59,423.48s3.5-35,3.67-47.56,1-25-4.92-46.53"/><path class="cls-11" d="M134.09,417.06s-29.33-34.67-26.33-68c1.95-21.73,12.32-46.69,13.45-55.75.71-5.65,7.42-40.59-3.62-65.25C109,208.93,83.82,152.9,83.82,152.9"/><path class="cls-11" d="M318.84,423.31s33.86-41.07,30.86-74.4c-1.95-21.72-12.31-46.69-13.45-55.75-.71-5.65-7.42-40.58,3.62-65.25,8.56-19.13,35.55-77.23,35.55-77.23"/><line class="cls-11" x1="156.59" y1="158.9" x2="133.26" y2="90.68"/><line class="cls-11" x1="300.21" y1="158.73" x2="325.01" y2="90.68"/><path class="cls-12" d="M170,111.64c-5.48,2.22-10.52,2.65-9.3-4.09s1-21.45,1-27.47-2.36-38.31-2.36-38.31S153.36,23,167.05,28s36.37,15.42,63.8,15.18c27.44.24,50.1-10.12,63.8-15.18s7.74,13.74,7.74,13.74S300,74.06,300,80.08s-.24,20.72,1,27.47-3.82,6.31-9.3,4.09C275.08,104.9,185.67,105.28,170,111.64Z"/><polyline class="cls-11" points="159.69 47.12 173.06 59.3 181.13 93.54 201.88 107.46"/><polyline class="cls-11" points="256.94 107.26 279.95 95.01 288.51 55.63 302.39 41.77"/></g><line class="cls-13" x1="84.95" y1="163.61" x2="372.33" y2="163.61"/><line class="cls-14" x1="82.34" y1="170.98" x2="82.34" y2="156.82"/><polygon class="cls-15" points="82.79 163.9 96.18 170.98 96.18 156.82 82.79 163.9"/><line class="cls-14" x1="375.91" y1="169.98" x2="375.91" y2="155.82"/><polygon class="cls-15" points="375.46 162.9 362.06 169.98 362.06 155.82 375.46 162.9"/><line class="cls-16" x1="158.14" y1="247.46" x2="308.22" y2="247.46"/><polygon class="cls-15" points="153.69 247.65 166.41 254.73 166.41 240.57 153.69 247.65"/><line class="cls-16" x1="308.1" y1="254.73" x2="308.1" y2="240.57"/><line class="cls-16" x1="153.14" y1="254.67" x2="153.14" y2="240.51"/><polygon class="cls-15" points="307.67 247.65 294.95 254.73 294.95 240.57 307.67 247.65"/><line class="cls-17" x1="75.14" y1="311.58" x2="369.23" y2="311.58"/><line class="cls-18" x1="71.94" y1="344.34" x2="71.94" y2="307.36"/><polygon class="cls-15" points="72.32 311.99 85.69 319.07 85.69 304.91 72.32 311.99"/><polyline class="cls-18" points="379.47 320.92 379.47 303.1 379.47 307.88 379.47 344.87"/><polygon class="cls-15" points="379.02 310.18 365.66 317.26 365.66 303.1 379.02 310.18"/><line class="cls-19" x1="87.63" y1="371.1" x2="365.28" y2="371.1"/><line class="cls-20" x1="84.6" y1="378.59" x2="84.6" y2="364.43"/><polygon class="cls-15" points="84.97 371.51 97.59 378.6 97.59 364.44 84.97 371.51"/><polyline class="cls-21" points="374.95 368.66 374.95 362.62 374.95 364.24 374.95 376.78"/><polygon class="cls-15" points="374.52 369.7 361.9 376.78 361.9 362.62 374.52 369.7"/><line class="cls-22" x1="74.94" y1="420.91" x2="371.68" y2="420.91"/><line class="cls-23" x1="71.71" y1="428.4" x2="71.71" y2="414.24"/><polygon class="cls-15" points="72.1 421.32 85.59 428.4 85.59 414.24 72.1 421.32"/><polyline class="cls-24" points="382.02 418.47 382.02 412.43 382.02 414.05 382.02 426.59"/><polygon class="cls-15" points="381.56 419.51 368.08 426.59 368.08 412.43 381.56 419.51"/><rect class="cls-3" x="210" y="240.13" width="41.25" height="14.67"/><path class="cls-15" d="M215.46,245.37h1a2.23,2.23,0,0,0,1.51-.5,1.72,1.72,0,0,0,.55-1.33,1.65,1.65,0,0,0-1.87-1.87,1.89,1.89,0,0,0-1.4.5,1.75,1.75,0,0,0-.53,1.33h-1.35a2.74,2.74,0,0,1,.92-2.11,3.39,3.39,0,0,1,2.36-.84,3.34,3.34,0,0,1,2.36.8,2.86,2.86,0,0,1,.86,2.22,2.35,2.35,0,0,1-.45,1.35,2.7,2.7,0,0,1-1.23,1,2.64,2.64,0,0,1,1.36.93,2.55,2.55,0,0,1,.48,1.57,2.89,2.89,0,0,1-.94,2.28,3.49,3.49,0,0,1-2.43.84,3.62,3.62,0,0,1-2.45-.81,2.72,2.72,0,0,1-.94-2.15h1.36a1.78,1.78,0,0,0,.55,1.35,2.1,2.1,0,0,0,1.48.51,2.07,2.07,0,0,0,1.5-.52,2,2,0,0,0,.52-1.47,1.8,1.8,0,0,0-.57-1.43,2.5,2.5,0,0,0-1.65-.51h-1Z"/><path class="cls-15" d="M223.88,245.37h1a2.23,2.23,0,0,0,1.51-.5,1.69,1.69,0,0,0,.55-1.33,1.65,1.65,0,0,0-1.87-1.87,1.91,1.91,0,0,0-1.4.5,1.75,1.75,0,0,0-.52,1.33h-1.36a2.72,2.72,0,0,1,.93-2.11,3.81,3.81,0,0,1,4.72,0,2.89,2.89,0,0,1,.85,2.22,2.35,2.35,0,0,1-.45,1.35,2.73,2.73,0,0,1-1.22,1,2.69,2.69,0,0,1,1.36.93,2.55,2.55,0,0,1,.48,1.57,2.93,2.93,0,0,1-.94,2.28,3.53,3.53,0,0,1-2.44.84,3.59,3.59,0,0,1-2.44-.81,2.7,2.7,0,0,1-.95-2.15h1.37a1.74,1.74,0,0,0,.55,1.35,2.4,2.4,0,0,0,3,0,2,2,0,0,0,.52-1.47,1.8,1.8,0,0,0-.57-1.43,2.5,2.5,0,0,0-1.65-.51h-1Z"/><path class="cls-15" d="M233.65,250.41a2,2,0,0,0,1.27-.44,1.57,1.57,0,0,0,.6-1.1h1.28a2.4,2.4,0,0,1-.47,1.29,3,3,0,0,1-1.15,1,3.51,3.51,0,0,1-4.1-.71,4.28,4.28,0,0,1-1-3v-.23a4.69,4.69,0,0,1,.43-2.06,3.21,3.21,0,0,1,1.22-1.4,3.47,3.47,0,0,1,1.88-.5,3.19,3.19,0,0,1,2.21.8,2.84,2.84,0,0,1,.94,2.07h-1.28a1.86,1.86,0,0,0-.58-1.26,1.81,1.81,0,0,0-1.29-.49,1.87,1.87,0,0,0-1.6.74,3.49,3.49,0,0,0-.57,2.15v.26a3.48,3.48,0,0,0,.56,2.11A1.93,1.93,0,0,0,233.65,250.41Z"/><path class="cls-15" d="M239.6,243.44l0,.88a2.93,2.93,0,0,1,2.35-1,2.26,2.26,0,0,1,2.26,1.28,3.18,3.18,0,0,1,1-.93,3.08,3.08,0,0,1,1.5-.35c1.74,0,2.62.92,2.65,2.76v5.31h-1.36v-5.22a1.83,1.83,0,0,0-.38-1.28,1.73,1.73,0,0,0-1.31-.42,1.79,1.79,0,0,0-1.25.45,1.88,1.88,0,0,0-.58,1.22v5.25h-1.36v-5.19a1.51,1.51,0,0,0-1.69-1.73,1.82,1.82,0,0,0-1.83,1.14v5.78h-1.35v-7.92Z"/><line class="cls-25" x1="131.13" y1="454.13" x2="318.69" y2="454.13"/><polygon class="cls-15" points="129.32 454.13 145.22 461.21 145.22 447.05 129.32 454.13"/><line class="cls-25" x1="322.29" y1="461.21" x2="322.29" y2="447.05"/><line class="cls-25" x1="128.63" y1="461.15" x2="128.63" y2="446.99"/><polygon class="cls-15" points="321.75 454.13 305.86 461.21 305.86 447.05 321.75 454.13"/><rect class="cls-3" x="208.92" y="303.25" width="39.04" height="15.15"/><path class="cls-15" d="M211.53,310l.54-5.32h5.47V306h-4.32l-.32,2.91a3.52,3.52,0,0,1,1.78-.46,3,3,0,0,1,2.32,1,3.8,3.8,0,0,1,.85,2.61,3.59,3.59,0,0,1-.89,2.59,3.2,3.2,0,0,1-2.48.95,3.37,3.37,0,0,1-2.31-.78,3.11,3.11,0,0,1-1-2.17h1.28a2.19,2.19,0,0,0,.65,1.38,2.06,2.06,0,0,0,1.4.47,1.83,1.83,0,0,0,1.48-.65,2.68,2.68,0,0,0,.54-1.78,2.49,2.49,0,0,0-.58-1.71,2,2,0,0,0-1.55-.65,2.26,2.26,0,0,0-1.4.39l-.35.29Z"/><path class="cls-15" d="M220,310l.54-5.32H226V306h-4.31l-.33,2.91a3.55,3.55,0,0,1,1.78-.46,2.94,2.94,0,0,1,2.32,1,3.8,3.8,0,0,1,.86,2.61,3.64,3.64,0,0,1-.89,2.59,3.24,3.24,0,0,1-2.49.95,3.4,3.4,0,0,1-2.31-.78,3.19,3.19,0,0,1-1-2.17h1.29a2.14,2.14,0,0,0,.65,1.38,2,2,0,0,0,1.39.47,1.83,1.83,0,0,0,1.48-.65,2.68,2.68,0,0,0,.54-1.78,2.45,2.45,0,0,0-.58-1.71,2,2,0,0,0-1.55-.65,2.21,2.21,0,0,0-1.39.39l-.36.29Z"/><path class="cls-15" d="M231.07,314.42a2,2,0,0,0,1.27-.44,1.55,1.55,0,0,0,.6-1.1h1.28a2.43,2.43,0,0,1-.47,1.3,3.07,3.07,0,0,1-1.15,1,3.38,3.38,0,0,1-1.53.36,3.26,3.26,0,0,1-2.57-1.08,4.28,4.28,0,0,1-1-2.95v-.23a4.69,4.69,0,0,1,.43-2.06,3.27,3.27,0,0,1,1.22-1.4,3.47,3.47,0,0,1,1.88-.49,3.19,3.19,0,0,1,2.21.79,2.88,2.88,0,0,1,.94,2.08h-1.28a1.87,1.87,0,0,0-.58-1.27,1.81,1.81,0,0,0-1.29-.49,1.9,1.9,0,0,0-1.6.74,3.49,3.49,0,0,0-.57,2.15v.26a3.48,3.48,0,0,0,.56,2.11A1.93,1.93,0,0,0,231.07,314.42Z"/><path class="cls-15" d="M237,307.45l0,.88a2.92,2.92,0,0,1,2.35-1,2.26,2.26,0,0,1,2.26,1.27,3,3,0,0,1,1-.92,3,3,0,0,1,1.5-.35c1.74,0,2.62.92,2.65,2.76v5.31h-1.36v-5.23a1.8,1.8,0,0,0-.38-1.27,1.73,1.73,0,0,0-1.31-.43,1.8,1.8,0,0,0-1.25.46,1.86,1.86,0,0,0-.58,1.21v5.26h-1.36v-5.2a1.52,1.52,0,0,0-1.69-1.73,1.82,1.82,0,0,0-1.83,1.14v5.79h-1.35v-7.93Z"/><rect class="cls-3" x="207.53" y="410.4" width="37.84" height="18.22"/><rect class="cls-3" x="204.39" y="443.92" width="37.84" height="18.22"/><path class="cls-15" d="M210,418l.51-5.32h5.16v1.25h-4.07l-.31,2.91a3.1,3.1,0,0,1,1.68-.46,2.72,2.72,0,0,1,2.19,1,3.94,3.94,0,0,1,.81,2.61,3.75,3.75,0,0,1-.84,2.59,3,3,0,0,1-2.35.95,3.08,3.08,0,0,1-2.18-.78,3.23,3.23,0,0,1-1-2.17h1.21a2.17,2.17,0,0,0,.62,1.38,1.83,1.83,0,0,0,1.31.47,1.7,1.7,0,0,0,1.4-.65,2.79,2.79,0,0,0,.51-1.78,2.63,2.63,0,0,0-.55-1.72,1.83,1.83,0,0,0-1.46-.64,2.09,2.09,0,0,0-1.32.38l-.34.3Z"/><path class="cls-15" d="M223.67,418.76a6.52,6.52,0,0,1-.77,3.54,3.09,3.09,0,0,1-4.79,0,6.21,6.21,0,0,1-.8-3.38v-1.81a6.33,6.33,0,0,1,.77-3.49,3.13,3.13,0,0,1,4.8,0,6.17,6.17,0,0,1,.79,3.4Zm-1.28-1.86a5.11,5.11,0,0,0-.46-2.5,1.71,1.71,0,0,0-2.88,0,5.11,5.11,0,0,0-.46,2.41V419a5.37,5.37,0,0,0,.47,2.55,1.57,1.57,0,0,0,1.44.83,1.53,1.53,0,0,0,1.41-.78,5.26,5.26,0,0,0,.48-2.45Z"/><path class="cls-15" d="M228.44,422.35a1.79,1.79,0,0,0,1.19-.44,1.57,1.57,0,0,0,.57-1.1h1.21a2.53,2.53,0,0,1-.44,1.29,3.06,3.06,0,0,1-1.09,1,3.2,3.2,0,0,1-3.87-.72,4.47,4.47,0,0,1-.91-2.95v-.23a5,5,0,0,1,.41-2.06,3.05,3.05,0,0,1,2.92-1.9,2.9,2.9,0,0,1,2.09.8,2.94,2.94,0,0,1,.89,2.08H230.2a1.93,1.93,0,0,0-.55-1.27,1.64,1.64,0,0,0-1.22-.49,1.77,1.77,0,0,0-1.51.74,3.63,3.63,0,0,0-.54,2.15v.26a3.56,3.56,0,0,0,.54,2.11A1.76,1.76,0,0,0,228.44,422.35Z"/><path class="cls-15" d="M234.05,415.38l0,.88a2.7,2.7,0,0,1,2.22-1,2.12,2.12,0,0,1,2.13,1.28,2.94,2.94,0,0,1,1-.92,2.7,2.7,0,0,1,1.42-.36c1.64,0,2.47.92,2.5,2.77v5.31h-1.28v-5.23a1.91,1.91,0,0,0-.36-1.27,1.54,1.54,0,0,0-1.23-.43,1.63,1.63,0,0,0-1.19.46,1.87,1.87,0,0,0-.54,1.21v5.26h-1.29v-5.2c0-1.15-.53-1.73-1.6-1.73a1.71,1.71,0,0,0-1.72,1.14v5.79h-1.28v-7.93Z"/><rect class="cls-3" x="211.69" y="361.99" width="37.84" height="18.22"/><path class="cls-15" d="M214.15,369.55l.51-5.32h5.16v1.25h-4.07l-.3,2.91a3.07,3.07,0,0,1,1.68-.46,2.71,2.71,0,0,1,2.18,1,3.94,3.94,0,0,1,.81,2.61,3.75,3.75,0,0,1-.84,2.59,3,3,0,0,1-2.35,1,3.1,3.1,0,0,1-2.18-.78,3.23,3.23,0,0,1-1-2.17H215a2.22,2.22,0,0,0,.62,1.38,1.84,1.84,0,0,0,1.31.47,1.68,1.68,0,0,0,1.4-.65,2.79,2.79,0,0,0,.51-1.78,2.57,2.57,0,0,0-.55-1.72,1.82,1.82,0,0,0-1.46-.64,2.09,2.09,0,0,0-1.32.38l-.33.3Z"/><path class="cls-15" d="M225.72,374.9h-1.29v-9l-2.57,1v-1.23l3.66-1.46h.2Z"/><path class="cls-15" d="M232.6,373.94a1.8,1.8,0,0,0,1.2-.44,1.56,1.56,0,0,0,.56-1.1h1.21a2.53,2.53,0,0,1-.44,1.29,3,3,0,0,1-1.09,1,3.2,3.2,0,0,1-3.87-.72,4.46,4.46,0,0,1-.9-2.95v-.23a5,5,0,0,1,.4-2.06,3.25,3.25,0,0,1,1.15-1.4,3.14,3.14,0,0,1,1.77-.5,2.87,2.87,0,0,1,3,2.88h-1.21a1.88,1.88,0,0,0-.55-1.27,1.64,1.64,0,0,0-1.22-.49,1.77,1.77,0,0,0-1.51.74,3.71,3.71,0,0,0-.53,2.15v.26a3.56,3.56,0,0,0,.53,2.11A1.76,1.76,0,0,0,232.6,373.94Z"/><path class="cls-15" d="M238.21,367l0,.88a2.72,2.72,0,0,1,2.22-1,2.13,2.13,0,0,1,2.14,1.28,2.76,2.76,0,0,1,1-.92,2.69,2.69,0,0,1,1.41-.36c1.64,0,2.48.93,2.51,2.77v5.31h-1.28v-5.23a1.91,1.91,0,0,0-.37-1.27,1.85,1.85,0,0,0-2.41,0,1.83,1.83,0,0,0-.55,1.21v5.26H241.6v-5.2c0-1.15-.53-1.73-1.59-1.73a1.72,1.72,0,0,0-1.73,1.14v5.79H237V367Z"/><rect class="cls-3" x="203.38" y="446.8" width="37.6" height="14.67"/><path class="cls-15" d="M213.86,458h-7v-1l3.69-4.1a9.18,9.18,0,0,0,1.13-1.52,2.47,2.47,0,0,0,.31-1.2,1.9,1.9,0,0,0-.51-1.37,1.73,1.73,0,0,0-1.34-.53,2.09,2.09,0,0,0-1.57.57,2.17,2.17,0,0,0-.56,1.6h-1.36a3.16,3.16,0,0,1,1-2.38,3.5,3.5,0,0,1,2.54-.91,3.38,3.38,0,0,1,2.35.78,2.68,2.68,0,0,1,.86,2.08c0,1.05-.67,2.3-2,3.75l-2.86,3.1h5.35Z"/><path class="cls-15" d="M220.49,453.35a3.47,3.47,0,0,1-1,.81,3,3,0,0,1-2.9-.15,2.92,2.92,0,0,1-1.06-1.28,4.33,4.33,0,0,1-.38-1.82,4.43,4.43,0,0,1,.41-1.92,3,3,0,0,1,1.16-1.31,3.18,3.18,0,0,1,1.74-.46,3,3,0,0,1,2.49,1.18,5.16,5.16,0,0,1,.91,3.23v.4a6.88,6.88,0,0,1-1.23,4.54,4.68,4.68,0,0,1-3.71,1.47h-.26v-1.15h.28a3.22,3.22,0,0,0,3.56-3.54Zm-2.09,0a2.08,2.08,0,0,0,1.26-.42,2.55,2.55,0,0,0,.84-1v-.54a3.71,3.71,0,0,0-.58-2.17,1.73,1.73,0,0,0-1.46-.83A1.75,1.75,0,0,0,217,449a2.85,2.85,0,0,0-.54,1.81,2.93,2.93,0,0,0,.52,1.8A1.67,1.67,0,0,0,218.4,453.35Z"/><path class="cls-15" d="M227,457.07a1.94,1.94,0,0,0,1.27-.44,1.55,1.55,0,0,0,.6-1.1h1.28a2.48,2.48,0,0,1-.47,1.3,3.06,3.06,0,0,1-1.15,1,3.52,3.52,0,0,1-4.11-.71,4.35,4.35,0,0,1-1-3v-.22a4.8,4.8,0,0,1,.42-2.06,3.27,3.27,0,0,1,1.22-1.4A3.49,3.49,0,0,1,227,450a3.2,3.2,0,0,1,2.22.8,2.84,2.84,0,0,1,.94,2.07h-1.28a1.87,1.87,0,0,0-.59-1.26,1.8,1.8,0,0,0-1.29-.5,1.89,1.89,0,0,0-1.6.75,3.47,3.47,0,0,0-.57,2.15v.25a3.38,3.38,0,0,0,.57,2.11A1.88,1.88,0,0,0,227,457.07Z"/><path class="cls-15" d="M233,450.11l0,.88a2.92,2.92,0,0,1,2.35-1,2.28,2.28,0,0,1,2.27,1.28,2.89,2.89,0,0,1,1-.93,3.07,3.07,0,0,1,1.49-.35c1.74,0,2.63.92,2.66,2.76V458h-1.36V452.8a1.82,1.82,0,0,0-.39-1.27,1.71,1.71,0,0,0-1.3-.42,1.76,1.76,0,0,0-1.83,1.66V458h-1.36v-5.19a1.52,1.52,0,0,0-1.7-1.73,1.81,1.81,0,0,0-1.82,1.14V458H231.7v-7.92Z"/><rect class="cls-3" x="205.25" y="153.7" width="41" height="17.83"/><path class="cls-15" d="M210.07,162l.55-5.32h5.46v1.25h-4.31l-.33,2.91a3.45,3.45,0,0,1,1.78-.46,3,3,0,0,1,2.32,1,3.78,3.78,0,0,1,.85,2.61,3.59,3.59,0,0,1-.89,2.59,3.2,3.2,0,0,1-2.48.95,3.4,3.4,0,0,1-2.31-.78,3.19,3.19,0,0,1-1-2.17H211a2.15,2.15,0,0,0,.66,1.38,2,2,0,0,0,1.39.47,1.83,1.83,0,0,0,1.48-.65A2.68,2.68,0,0,0,215,164a2.54,2.54,0,0,0-.58-1.72,2,2,0,0,0-1.55-.64,2.27,2.27,0,0,0-1.39.38l-.36.3Z"/><path class="cls-15" d="M218.5,162l.54-5.32h5.46v1.25h-4.31l-.32,2.91a3.4,3.4,0,0,1,1.78-.46,2.94,2.94,0,0,1,2.31,1,3.78,3.78,0,0,1,.86,2.61,3.64,3.64,0,0,1-.89,2.59,3.24,3.24,0,0,1-2.49.95,3.4,3.4,0,0,1-2.31-.78,3.14,3.14,0,0,1-1-2.17h1.28a2.14,2.14,0,0,0,.65,1.38,2,2,0,0,0,1.39.47,1.83,1.83,0,0,0,1.48-.65,2.68,2.68,0,0,0,.54-1.78,2.49,2.49,0,0,0-.58-1.72,2,2,0,0,0-1.55-.64,2.29,2.29,0,0,0-1.39.38l-.36.3Z"/><path class="cls-15" d="M229.61,166.4a2,2,0,0,0,1.27-.44,1.57,1.57,0,0,0,.6-1.1h1.28a2.4,2.4,0,0,1-.47,1.29,3.09,3.09,0,0,1-1.15,1,3.38,3.38,0,0,1-1.53.36,3.27,3.27,0,0,1-2.57-1.08,4.28,4.28,0,0,1-1-2.95v-.23a4.83,4.83,0,0,1,.43-2.06,3.21,3.21,0,0,1,1.22-1.4,3.47,3.47,0,0,1,1.88-.5,3.18,3.18,0,0,1,2.21.8,2.88,2.88,0,0,1,.94,2.08h-1.28a1.87,1.87,0,0,0-.58-1.27,1.81,1.81,0,0,0-1.29-.49,1.9,1.9,0,0,0-1.6.74,3.49,3.49,0,0,0-.57,2.15v.26a3.48,3.48,0,0,0,.56,2.11A1.93,1.93,0,0,0,229.61,166.4Z"/><path class="cls-15" d="M235.56,159.43l0,.88a2.93,2.93,0,0,1,2.35-1,2.26,2.26,0,0,1,2.26,1.28,3,3,0,0,1,1-.92,3,3,0,0,1,1.5-.36c1.74,0,2.62.92,2.65,2.76v5.32H244v-5.23a1.8,1.8,0,0,0-.39-1.27,1.69,1.69,0,0,0-1.31-.43,1.79,1.79,0,0,0-1.25.45,1.88,1.88,0,0,0-.58,1.22v5.26h-1.36v-5.2a1.51,1.51,0,0,0-1.69-1.73,1.82,1.82,0,0,0-1.83,1.14v5.79h-1.35v-7.93Z"/></g></g></svg>