<svg xmlns="http://www.w3.org/2000/svg" viewBox="0 0 437.26 727.95"><defs><style>.cls-1,.cls-10,.cls-11,.cls-2,.cls-3{fill:#fff;}.cls-1,.cls-10,.cls-11,.cls-12,.cls-13,.cls-14,.cls-15,.cls-16,.cls-19,.cls-2,.cls-20,.cls-21,.cls-22,.cls-4,.cls-5,.cls-6,.cls-7,.cls-8,.cls-9{stroke:#1d1d1b;}.cls-1,.cls-10,.cls-11,.cls-13,.cls-14,.cls-15,.cls-16,.cls-19,.cls-21,.cls-4,.cls-5,.cls-6,.cls-7,.cls-8,.cls-9{stroke-miterlimit:10;}.cls-2{stroke-linejoin:bevel;}.cls-12,.cls-13,.cls-14,.cls-15,.cls-16,.cls-19,.cls-20,.cls-21,.cls-22,.cls-4,.cls-5,.cls-6,.cls-7,.cls-8,.cls-9{fill:none;}.cls-10,.cls-4{stroke-width:2px;}.cls-11,.cls-5{stroke-width:1.3px;}.cls-7{stroke-width:0.93px;}.cls-8{stroke-width:1.5px;}.cls-9{stroke-width:0.75px;}.cls-12,.cls-20,.cls-22{stroke-linejoin:round;}.cls-12,.cls-13,.cls-14{stroke-width:1.19px;}.cls-14,.cls-15{stroke-linecap:round;}.cls-15,.cls-16{stroke-width:0.59px;}.cls-17{isolation:isolate;}.cls-18{fill:#1d1d1b;}.cls-19,.cls-20{stroke-width:0.91px;}.cls-21,.cls-22{stroke-width:0.96px;}</style></defs><title>Diagonal vetor gamma</title><g id="Camada_2" data-name="Camada 2"><g id="Camada_1-2" data-name="Camada 1"><g id="Gamma"><path class="cls-1" d="M18.35,634.9a17.59,17.59,0,0,0-14.62,7.58c-5.58,8.12,0,18.66,0,18.66,3,15.52,16.44,14.76,16.44,14.76,19.8-.2,17-23.92,17-23.92l.19-16.55S30,640.72,18.35,634.9Z"/><path class="cls-1" d="M383.34,637.09A17.58,17.58,0,0,1,398,644.66c5.58,8.12,0,18.66,0,18.66-1.3,6.8-4.67,10.58-8,12.68a17.32,17.32,0,0,1-15.1,1.27c-15-5.43-10.31-23.08-10.31-23.08l-.3-20.9S371.7,642.92,383.34,637.09Z"/><path class="cls-2" d="M289.35,576.63l-.79,1.73s-2.7-.08-5.62,12l32.19,8s4.79-15.65-3.25-19.65l-4.3-.86-4.45.7V576Z"/><path class="cls-3" d="M195.56,685.77v3.39h-6.13l-2.06,4.57.39,28.49,2.27,5.14h6.17s1.11-1.14,1-6.27,0-6.44,0-6.44l10.06-.08,0,9.89s.33,2.9,1,2.9h6.16s2.51-3.45,2.93-6.28-.07-26.65-.07-26.65L215,689.15h-6.59l-.2-2.09Z"/><path class="cls-3" d="M159.2,33.44c-2.6-13-10.1-16.67-10.1-16.67S141.92,12.34,118.51,7,83,.86,76.91,1,63,4.54,55.35,8.51,46.94,20.9,46.94,20.9L30.88,81.47s-7.5,19.73-8.42,34.41c0,0-2.75,27.68-2.75,33s4.44,42.36,4.44,42.36,2.9,23.56,8.41,48.95,6.12,13.91,6.57,37.16.16,30.74.16,30.74-8.18,1.15-9.68,8.84,2.87,31.43,2.87,31.43,2.07,14.68,2.07,17.32a96,96,0,0,1-3.22,18.47c-1.6,4.82-4.7,17.09-4.35,18.92s.68,3.83,3.55,3.52l.58,1.3a24,24,0,0,0-5.28,14c-.46,8.71-.12,17.89,7.45,28.9,0,0,6.2,8.72,11.36,8.84,0,0,8.72,12.73,12.62,15.71s12.27,3.53,12.27,3.53l46.12,6.66a31.25,31.25,0,0,0,7.22,0,40.25,40.25,0,0,0,5.85-.92l10.33,2L174,491l73.88,7.32,46.8,5.28a110.53,110.53,0,0,0,22.83,0c11-1.38,31.87-5.4,35.54-7s75-23.66,75-23.66,7.19-4.13,7.95-5.66-.57-52.21-1.49-56.56-5.16-11.36-15.71-14-50.94-10.21-58.62-10.9-50.36.35-83.74,14.46c0,0-33.15,9.17-36.71,9.17a4.68,4.68,0,0,1-4.55-2.79l4.13-4c8.41-4.9,14.53-11.48,23.4-24.93s9.79-24.32,7.34-38.09-19-34.56-19-34.56C227.87,271,228.79,269.29,223.28,258s-4.28-19.89-4.13-37,5-25.08,4-40.83a70.66,70.66,0,0,0-8.72-28.45s-17-22.18-28.91-34.26l-9.57-10.93Z"/><path class="cls-3" d="M360.63,386.81l-.21-8.68h2.14l.24-5.12,2-78.26,10.14-1,16.23-3.4s11.72-.58,12.57-1.16,7.45-6.14,1.4-12.84-27.84-7.89-38.61-7.44-33.7,3.9-33.7,3.9L311,275.68s-15.9,3-18.36,4.85-4.9,4.31-4.65,6.42-1,7.76,13.09,6.36l6.65,1.44,19.77.71,8.52,81.92,1.26,1.06.21,9.68Z"/><path class="cls-3" d="M327.54,295.46s31.73-.17,37.29-.71"/><path class="cls-4" d="M174,491l73.88,8.49,46.8,5.28a110.53,110.53,0,0,0,22.83,0c11-1.38,32.57-6.43,36.24-8s74.3-22.64,74.3-22.64,7.19-4.13,7.95-5.66-.57-53.38-1.49-57.73-5.16-11.36-15.71-14-50.94-10.21-58.62-10.9-50.36.35-83.74,14.46c0,0-33.15,9.17-36.71,9.17a4.68,4.68,0,0,1-4.55-2.79l4.13-4c8.41-4.9,14.53-11.48,23.4-24.93s9.79-24.32,7.34-38.09-19-34.56-19-34.56C227.87,271,228.79,269.29,223.28,258s-4.28-19.89-4.13-37,5-25.08,4-40.83a70.66,70.66,0,0,0-8.72-28.45s-17-22.18-28.91-34.26l-9.57-10.93"/><path class="cls-4" d="M159.2,33.44c-2.6-13-10.1-16.67-10.1-16.67S141.92,12.34,118.51,7,83,.86,76.91,1,63,4.54,55.35,8.51,46.94,20.9,46.94,20.9L30.88,81.47s-7.5,19.73-8.42,34.41c0,0-2.75,27.68-2.75,33s4.44,42.36,4.44,42.36,2.9,23.56,8.41,48.95,6.12,13.91,6.57,37.16.16,30.74.16,30.74-8.18,1.15-9.68,8.84,2.87,31.43,2.87,31.43,2.07,14.68,2.07,17.32a96,96,0,0,1-3.22,18.47c-1.6,4.82-4.7,17.09-4.35,18.92s.68,3.83,3.55,3.52l.58,1.3a24,24,0,0,0-5.28,14c-.46,8.71-.12,17.89,7.45,28.9,0,0,6.2,8.72,11.36,8.84,0,0,8.72,12.73,12.62,15.71s12.27,4.7,12.27,4.7l46.12,6.66a30.57,30.57,0,0,0,7.22,0,40.25,40.25,0,0,0,5.85-.92L141,488.14"/><path class="cls-4" d="M360.21,385.79,360,378h2.14l.24-5.12,2-78.26,10.15-1,16.23-3.4s11.72-.58,12.57-1.16,7.45-6.14,1.39-12.84-27.83-7.89-38.6-7.44-33.7,3.9-33.7,3.9l-21.82,2.86s-15.9,3-18.36,4.85-4.9,4.31-4.65,6.42-1,7.76,13.08,6.37l6.66,1.43,19.77.71,8.51,81.92,1.27,1.06.17,8.17"/><path class="cls-5" d="M327.14,295.36s31.72-.17,37.28-.71"/><line class="cls-6" x1="337.32" y1="377.93" x2="359.89" y2="377.42"/><path class="cls-4" d="M92.13,433.51s22.36-41,18.69-72.8-16.1-52.82-16.1-52.82"/><path class="cls-7" d="M129.22,345.61s-10.72-36.34-13-37.72"/><path class="cls-5" d="M105.68,283.69S42.54,165,24.32,103.62"/><path class="cls-4" d="M24.32,103.62l1.36,16.85c4.89,57.2,54.69,167.34,54.69,167.34"/><path class="cls-5" d="M247.6,384.45s25.85-25.08,11.17-50.93-39.73-64-42.4-72a87.6,87.6,0,0,1-2.42-46c2.26-10.67,7.06-45.58,2.46-59.95"/><path class="cls-8" d="M110.1,282.9s-4.59-20.5-12.69-64.7-13.92-58.58-16.83-59.95-5.5,6.27-5.5,6.27-2.91,11,2.14,34.56S98,268.89,98,268.89"/><path class="cls-8" d="M212,324.35s-36.56-157.84-39-160.6-4.59-4.13-8-4-74.48-5.05-84.43-1.53"/><line class="cls-9" x1="87.39" y1="173.31" x2="110.1" y2="157.21"/><line class="cls-9" x1="93.91" y1="200.23" x2="151.17" y2="159.07"/><line class="cls-9" x1="175.15" y1="170.37" x2="99.15" y2="227.65"/><line class="cls-9" x1="181.22" y1="195.26" x2="104.25" y2="254.35"/><line class="cls-9" x1="187.5" y1="219.2" x2="109.84" y2="281.68"/><line class="cls-9" x1="193.32" y1="243.38" x2="154.77" y2="277.47"/><line class="cls-9" x1="199.21" y1="268.12" x2="187.5" y2="279.23"/><line class="cls-9" x1="128.37" y1="279.23" x2="107.56" y2="270.86"/><line class="cls-9" x1="166.23" y1="277.84" x2="102.45" y2="245.11"/><path class="cls-9" d="M200.64,274.2c-.61.06-103-55-103-55"/><path class="cls-9" d="M194.81,249.59S94.1,194.24,92.46,193.49"/><path class="cls-9" d="M85.29,166.84s2.25,0,11.31,5,92,51.8,92,51.8"/><line class="cls-9" x1="182.98" y1="199.01" x2="104.25" y2="157.21"/><line class="cls-9" x1="175.96" y1="173.31" x2="143.18" y2="159.07"/><line class="cls-9" x1="182.04" y1="309.06" x2="205.54" y2="324.35"/><line class="cls-9" x1="169.48" y1="324.95" x2="187.5" y2="309.06"/><path class="cls-5" d="M79.67,158.1s-5-50.71-16-67C51.29,72.75,32.47,75.45,32.47,75.45"/><path class="cls-5" d="M169.47,160.75s12.11-36.9,7.11-53.2"/><path class="cls-4" d="M170.06,327.63l46.49-3.28s9.18,0,13.92,4.43,18.05,12.24,17.9,42.37-18.66,39.61-18.66,39.61l-61.27,2.91"/><path class="cls-5" d="M206.38,325.06s24.32,15.42,25.47,40.2-9.94,45.87-9.94,45.87"/><path class="cls-8" d="M39.29,308.13,49.8,307s7.69,1.14,10.1,16.52S66,368.13,66,368.13s1.26,17.32-2.18,24.55l-3.79.57s-.11,4.47-.8,5.05-.57,4.13.46,4.58,6.42,6.78,9.52,10.79,22.94,19.84,22.94,19.84a17.14,17.14,0,0,1,2.3,6.43c.8,4.36,3.67,17.78,6.19,20.87S114,468.27,114,468.27s13.42,5.39,14.11,6.19,2.87,3.22,3,5.28"/><path class="cls-8" d="M129.74,486s12.95-2.6,10.21-13.38-8.82-11.13-18.8-20.19"/><path class="cls-8" d="M38.45,436.92s26,24.74,41.3,30.2c0,0,.35.93,2.56-2.32a40.82,40.82,0,0,0,3.74-7.21s.47-2.9-2.33-6-12.27-12.78-12.27-12.78l-5.25.7L45.65,421.7Z"/><path class="cls-4" d="M66.2,439.47s3.5-13.29-3.94-25.23a26.22,26.22,0,0,0-9.45-8.93,18.28,18.28,0,0,0-17-.75,16.4,16.4,0,0,0-4.67,3.37"/><path class="cls-4" d="M44.64,459.67s10.48,3.87,16.33-3.74"/><path class="cls-8" d="M30.53,406.63s4.25-7.57,10.59-9.25,12.7,1.15,12.7,1.15H56a7.31,7.31,0,0,0,1.53-6c-.77-3.36,1.22-2.45,1.07-4.59S51,322.54,51,322.54s-.7-11.46-11-13.93"/><path class="cls-4" d="M167.61,421.16s30.9-2,52.61,1.07,52.31,8,57.82,7.8,47.11,1.84,55.21,6.12,68.67-13.46,68.67-13.46L419.67,419s12.31-4.23,12.65-13.43"/><path class="cls-5" d="M244.54,411.83s53.07-12.69,71.73-14.83,43.14-1.53,51.55,1.22,13.46,8.57,14.68,12.08c0,0,27.68-.3,35.18,3.83,0,0,4.6,2.23,5.63,3.22,0,0,8.94,8.71,8.48,26.72s-3.71,30-3.71,30"/><path class="cls-5" d="M212.81,412.6,253,416.88s45.74,3.14,49.71,4.32,27.55,2.53,37,15.55a104.16,104.16,0,0,1,9.86,38.4c1.45,22.51,1.16,22.59,1.16,22.59"/><polyline class="cls-9" points="324.69 412.6 307.86 421.2 337.23 418.41 346.86 411.83 276.39 415.28"/><line class="cls-9" x1="300.98" y1="413.67" x2="289.64" y2="419.7"/><line class="cls-9" x1="279.57" y1="413.67" x2="270.68" y2="418.16"/><line class="cls-9" x1="258.77" y1="413.67" x2="252.95" y2="416.88"/><line class="cls-9" x1="339.68" y1="415.92" x2="271.45" y2="417.78"/><path class="cls-9" d="M311.53,419.7H295.31"/><polyline class="cls-9" points="236.9 414.43 272.99 413.67 276.64 415.28"/><line class="cls-9" x1="262.13" y1="417.11" x2="272.28" y2="417.11"/><path class="cls-5" d="M59.57,86S67,27.48,67.28,26.1,68.55,3.56,85.05,1.29"/><path class="cls-10" d="M90.56,11.44,87,84s-4.49,16.58,15.72,11.47a57.31,57.31,0,0,1,14.71-1.66c10.7.11,27.47,1.64,39.22,9.21,3.9,2.52,8.86,6.38,13.5,6.59,2.37.11,7.89-.23,12-20.05,4.05-19.33,3.26-45.14,3.35-55a7.4,7.4,0,0,0-4.42-7,4.2,4.2,0,0,0-2.46-.31c-3.26.69-9.93,4.15-9.93,4.15s-28.29,7.78-50.62-8.87L103.58,10.34S93.29.9,90.56,11.44Z"/><polyline class="cls-5" points="90.42 14.33 112.86 35.74 113.13 73.67 125.39 94.16"/><polyline class="cls-5" points="185.49 41.85 177.79 49.53 169.22 88.69 156.74 101.09"/><path class="cls-4" d="M140,425.75s-24.26,10.62-30.11,13.72"/><path class="cls-8" d="M102.37,453.66l7.89-1.22,1.07-.61a3.82,3.82,0,0,0,4.13.92c2.37-1,3.28-1.46,4.2-.92s2.75-.08,4.28-.61a6.33,6.33,0,0,1,3.83,0c.69.23,2.06-.46,3.36-1.3s4.21.3,5.51,0,2.75-3.06,2.75-3.52-4.66-6.93-4.66-6.93-21.72.73-21.95.81-2.94,2.22-2.94,2.22l-2,.38-8.87.23S104.12,449.15,102.37,453.66Z"/><path class="cls-8" d="M99,457.18s3-1.6,3.36-3.52"/><path class="cls-8" d="M99,443.11a23,23,0,0,0-4.2-1.18"/><path class="cls-8" d="M108.53,443.78s-1,3,1.67,7"/><line class="cls-7" x1="178.62" y1="502.91" x2="177.62" y2="491.39"/><path class="cls-5" d="M382.5,410.3l-148.1,1.51a10.58,10.58,0,0,1-4.69-1.05h0"/><path class="cls-10" d="M173.9,491.1l-2.28-15.48-2.21-2-2.91-57.91,1.92-.72.4-38.51.85-66.36,11.67-.69,1.44-.83s32.94-3.59,35.13-4,3.59-2.92,4-6.37-2.08-6.47-2.08-6.47-.85-3.06-12.36-7.38-29.15-6-29.15-6-21.63-1.34-33.28-1-30.78,4.19-32.12,4.75-8.76,1.73-8.76,1.73-18,1.71-23.77,3.87-5.16,7.9-5.22,9.89,1.56,4.81,3.41,6.25,12.06,1.74,12.06,1.74l4.1,2.2,19.29.24,11.88,1.57,2.18,18.67,9.47,84.86,2.41,1.54,2.58,55.82-1.51,3.5v9l0,21.21,1.92,5.16c10.79,6.47,30.49,1.13,30.49,1.13l4.7-6.54.46-1.15,27.25-8.27Z"/><path class="cls-11" d="M76,296.73s39.26-7.91,61.28-3.74,42.67,6.34,46.34,7,37.47-.85,38.3-2"/><path class="cls-11" d="M140,414.77s19.56,2,26.55,1"/><path class="cls-11" d="M141,473.49s10.33,6.79,30.68,2.78"/><g id="Base"><g id="base-2" data-name="base"><path class="cls-3" d="M17.76,635a17.67,17.67,0,0,0-14.65,7.56c-5.58,8.11,0,18.63,0,18.63,3,15.5,16.47,14.75,16.47,14.75,19.83-.2,17-23.88,17-23.88l.19-16.52S29.41,640.8,17.76,635Z"/><path class="cls-1" d="M114,575.58l.38,1.94s2.6-.16,5.53,11.94l-31.25,7.77s-4.3-15.17,3.75-19.16l3.33-1.21,4.46.69V575Z"/><path class="cls-3" d="M195.22,685.84v3.39h-6.13L187,693.79l.38,28.44,2.28,5.13h6.18s1.11-1.15,1-6.27,0-6.42,0-6.42l10.07-.08v9.87s.33,2.9,1,2.9h6.18s2.51-3.44,2.93-6.27-.07-26.61-.07-26.61l-2.27-5.25h-6.6l-.2-2.09Z"/><path class="cls-12" d="M37.55,636.29l-.35,15.39-.58.37s-1.18-5-4.78-7.88A18.29,18.29,0,0,0,25.73,641v-3.11"/><circle class="cls-13" cx="19.58" cy="659.46" r="16.47"/><path class="cls-14" d="M3.11,661.55A31.88,31.88,0,0,1,.59,651.6a16.47,16.47,0,0,1,16.47-16.47"/><path class="cls-15" d="M.69,652.53c0-9.09,9.34-15.93,18.43-15.93"/><circle class="cls-16" cx="19.89" cy="659.51" r="2.83"/><path class="cls-16" d="M20.22,645.58s.07,9,.44,9.48.74.81,1.77,0,5.07-7.13,5.07-7.13"/><path class="cls-16" d="M29.67,650.11s-5.8,6.93-5.81,7.5,0,1.09,1.34,1.15,8.49-2.15,8.49-2.15"/><path class="cls-16" d="M33.76,659.51s-9,0-9.49.39-.81.73,0,1.77,7.1,5.11,7.1,5.11"/><path class="cls-16" d="M29.94,669s-7.18-5.49-7.76-5.47-1.09.08-1.08,1.39,2.52,8.39,2.52,8.39"/><path class="cls-16" d="M18.09,645.6s.44,9,.1,9.49-.69.85-1.76.1S11,648.36,11,648.36"/><path class="cls-16" d="M8.91,650.66s6.19,6.58,6.23,7.16,0,1.09-1.27,1.22-8.6-1.66-8.6-1.66"/><path class="cls-16" d="M5.37,661.45s9-.48,9.49-.15.85.69.11,1.77-6.81,5.5-6.81,5.5"/><path class="cls-16" d="M11,670.75s5.92-6.83,6.49-6.93,1.08-.14,1.34,1.15-.77,8.72-.77,8.72"/><path class="cls-13" d="M363.87,633.74v18.78l.57.4s1.51-4.9,5.3-7.53a18.15,18.15,0,0,1,6.3-2.81l.21-3.09"/><circle class="cls-13" cx="380.57" cy="661.82" r="16.83"/><path class="cls-13" d="M397.81,663.88a26.68,26.68,0,0,0,2.6-9c.61-9.08-4.72-16.93-13.79-17.54"/><path class="cls-16" d="M400.35,655.52c.61-9.08-8.34-16.21-17.41-16.83"/><path class="cls-16" d="M399.69,658.67c-1.38-13-12.09-17.81-23-15.91"/><circle class="cls-16" cx="380.62" cy="661.5" r="2.83"/><path class="cls-16" d="M381.23,647.58s-.68,9-1.08,9.43-.79.76-1.76-.12-4.58-7.46-4.58-7.46"/><path class="cls-16" d="M371.49,651.45s5.33,7.31,5.3,7.89-.11,1.08-1.42,1-8.33-2.71-8.33-2.71"/><path class="cls-16" d="M366.78,660.56s9,.64,9.44,1,.76.79-.11,1.76-7.44,4.62-7.44,4.62"/><path class="cls-16" d="M370,670.24s7.54-5,8.12-4.94,1.08.16,1,1.47S376,675,376,675"/><path class="cls-16" d="M383.36,647.74s-1.05,9-.74,9.46.62.9,1.75.22,5.92-6.45,5.92-6.45"/><path class="cls-16" d="M392.17,653.4s-6.62,6.16-6.7,6.73-.1,1.09,1.19,1.3,8.69-1.07,8.69-1.07"/><path class="cls-16" d="M395,664.42s-9-1.1-9.46-.79-.9.62-.23,1.75,6.42,6,6.42,6"/><path class="cls-16" d="M388.73,673.31s-5.45-7.21-6-7.35-1.08-.21-1.42,1,.18,8.76.18,8.76"/><g class="cls-17"><path class="cls-3" d="M93.36,593.21a1,1,0,0,1-.21.49,17,17,0,0,1-3.32,2.13c-.13-.36-.25-.73-.36-1.1a19.69,19.69,0,0,1-.81-4.35l.56.26a32.21,32.21,0,0,1,4,2.13A1.43,1.43,0,0,1,93.36,593.21Z"/><path class="cls-18" d="M93.6,593.26a1.57,1.57,0,0,1-.31,1A15,15,0,0,1,90,596.34l-.2-.51a17,17,0,0,0,3.32-2.13,1,1,0,0,0,.21-.49,1.43,1.43,0,0,0-.19-.44,32.21,32.21,0,0,0-4-2.13l-.56-.26,0-.61.84.41a21.51,21.51,0,0,1,3.82,2.13A1.86,1.86,0,0,1,93.6,593.26Z"/><path class="cls-3" d="M95.05,596.6a57.1,57.1,0,0,1-.63,5.94,12.59,12.59,0,0,1-3.19-3.72,26.06,26.06,0,0,1,3.28-3.24l.16.06C94.87,595.74,95,595.93,95.05,596.6Z"/><path class="cls-18" d="M94.69,595.06c.24.12.51.42.6,1.5a56.24,56.24,0,0,1-.63,6.15l-.24-.17a57.1,57.1,0,0,0,.63-5.94c0-.67-.18-.86-.38-1l-.16-.06a26.06,26.06,0,0,0-3.28,3.24L91,598.4c1-1,3.23-3.49,3.52-3.4Z"/><path class="cls-3" d="M94.79,588.51c-.11,0-.25-.21-.47-.57-.37-.64-1.62-4.14-2.38-6.33a4.14,4.14,0,0,1,3.41-.12c0,3.19-.15,6.54-.23,6.85C95,588.47,94.94,588.58,94.79,588.51Z"/><path class="cls-3" d="M96.91,596.65l0,0c.22.16,2.2,3.62,3.55,6.06a4,4,0,0,1-3.13,1.06c-.4-2.44-.93-5.92-.9-6.56S96.61,596.51,96.91,596.65Z"/><path class="cls-18" d="M96.91,596.06l.07,0c.29.14,2.81,4.64,3.78,6.38l-.25.25c-1.35-2.44-3.33-5.9-3.55-6.06l0,0c-.3-.14-.4-.1-.43.58s.5,4.12.9,6.56l-.25,0c-.3-1.8-.93-5.78-.89-6.65C96.29,595.85,96.66,595.94,96.91,596.06Z"/><path class="cls-18" d="M96.45,582l.24.15c-.12,3.17-.2,6.56-.12,7,.08.19.16.39.31.46s.25,0,.47-.1a23.68,23.68,0,0,0,2.66-3.78l.24.38a26.84,26.84,0,0,1-2.81,4,.59.59,0,0,1-.58.09,1.21,1.21,0,0,1-.46-.71C96.25,589.12,96.27,586.61,96.45,582Z"/><path class="cls-18" d="M99.56,594.43c1.09.53,2.52,1.3,3.32,1.74a2.53,2.53,0,0,1,0,.28c0,.1,0,.2,0,.3-1.09-.6-2.48-1.34-3.45-1.81a4.34,4.34,0,0,0-1.18-.48s-.19.12-.2.22a1.94,1.94,0,0,0,.18.69c.3.82,2.5,4.44,3.42,5.93-.06.11-.13.22-.2.33-.66-1.07-3.05-5-3.39-5.89a3.07,3.07,0,0,1-.25-1.25.69.69,0,0,1,.36-.61A4,4,0,0,1,99.56,594.43Z"/><path class="cls-18" d="M98.8,593.29a21,21,0,0,0,4,.68c0,.2,0,.4,0,.6a20.83,20.83,0,0,1-4.08-.71l-.07,0A1.46,1.46,0,0,1,98,593a2.17,2.17,0,0,1-.06-.81c0-.15,0-.58,3.22-4.27.07.15.13.3.2.46a37.66,37.66,0,0,0-3.19,4,1.19,1.19,0,0,0,0,.3,1.11,1.11,0,0,0,.54.58Z"/><path class="cls-18" d="M103.22,594.6a20.48,20.48,0,0,1,0,2.07c-.28,6.15-3.68,9.43-7.66,7.48l-.34-.17c-2.27-1.26-4.31-4-5.61-7.43l-.18-.52c-.1-.27-.19-.54-.27-.82a21.46,21.46,0,0,1-.9-5c0-.09,0-.18,0-.27,0-.54,0-1.07,0-1.6s.06-.91.12-1.34c0-.19,0-.36.07-.54.82-4.92,3.91-7.34,7.47-5.61l.34.18c2.56,1.43,4.83,4.71,6.06,8.77a21,21,0,0,1,.84,4.23C103.19,594.21,103.21,594.41,103.22,594.6Zm-.35,1.85a2.53,2.53,0,0,0,0-.28c0-.52,0-1.06,0-1.6,0-.2,0-.4,0-.6a19.56,19.56,0,0,0-.76-3.71c-.2-.66-.43-1.3-.68-1.91-.07-.16-.13-.31-.2-.46a18.37,18.37,0,0,0-.91-1.77l-.24-.38a11.62,11.62,0,0,0-3.32-3.57l-.24-.15-.21-.12-.33-.18-.32-.14-.24-.09a4.14,4.14,0,0,0-3.41.12l-.24.13a4.59,4.59,0,0,0-1,.8l-.22.24a8.56,8.56,0,0,0-1.67,4c0,.17-.06.35-.08.53a12,12,0,0,0-.11,1.23c0,.4,0,.82,0,1.23l0,.61a19.69,19.69,0,0,0,.81,4.35c.11.37.23.74.36,1.1l.2.51a19.54,19.54,0,0,0,1,2.06l.24.42a12.59,12.59,0,0,0,3.19,3.72l.24.17c.21.14.41.26.62.38l.33.17a4.89,4.89,0,0,0,1.52.49l.25,0a4,4,0,0,0,3.13-1.06l.25-.25a5.85,5.85,0,0,0,.67-.85c.07-.11.14-.22.2-.33a10.56,10.56,0,0,0,1.23-4.55c0-.1,0-.2,0-.3"/><path class="cls-18" d="M88.33,586.93l.06-.55.07.06c0,.18,0,.35-.07.54Z"/><path class="cls-18" d="M89.43,596h0l.18.52-.12.06Z"/><path class="cls-3" d="M92.79,590.16h0a40.61,40.61,0,0,1-3.93-3.37,8.56,8.56,0,0,1,1.67-4c1.08,2.52,2.72,6.47,2.88,7.11a.71.71,0,0,1,0,.27C93.3,590.24,93.17,590.32,92.79,590.16Z"/><path class="cls-18" d="M95.59,581.58c-.07,4.62-.18,7.07-.33,7.29s-.28.33-.48.23a1.8,1.8,0,0,1-.58-.69c-.47-.8-2-5.29-2.5-6.67l.24-.13c.76,2.19,2,5.69,2.38,6.33.22.36.36.52.47.57s.23,0,.33-.17c.08-.31.18-3.66.23-6.85Z"/><path class="cls-3" d="M96.88,589.62c-.15-.07-.23-.27-.31-.46-.08-.43,0-3.82.12-7a11.62,11.62,0,0,1,3.32,3.57,23.68,23.68,0,0,1-2.66,3.78C97.13,589.66,97,589.67,96.88,589.62Z"/><path class="cls-3" d="M98.23,594.46a4.34,4.34,0,0,1,1.18.48c1,.47,2.36,1.21,3.45,1.81a10.56,10.56,0,0,1-1.23,4.55c-.92-1.49-3.12-5.11-3.42-5.93a1.94,1.94,0,0,1-.18-.69C98,594.58,98.18,594.49,98.23,594.46Z"/><path class="cls-3" d="M98.17,592.37a37.66,37.66,0,0,1,3.19-4c.25.61.48,1.25.68,1.91a19.56,19.56,0,0,1,.76,3.71,21,21,0,0,1-4-.68l-.07,0a1.11,1.11,0,0,1-.54-.58A1.19,1.19,0,0,1,98.17,592.37Z"/><path class="cls-18" d="M103.21,594l0,.59h0c0-.19,0-.39,0-.59Z"/><path class="cls-18" d="M103.49,589.28a24.41,24.41,0,0,1,1.06,8.08c-.32,7.22-4.32,11.06-9,8.78l-.4-.2c-3-1.68-5.67-5.54-7.12-10.31A24.46,24.46,0,0,1,87,587.55c.33-7.24,4.33-11.06,9-8.78l.39.21C99.37,580.65,102,584.5,103.49,589.28Zm.66,7.84a22.1,22.1,0,0,0-1-7.32c-1.38-4.56-3.94-8.24-6.85-9.85l-.38-.21c-4.47-2.18-8.27,1.34-8.57,8a22,22,0,0,0,1,7.31c1.39,4.56,4,8.24,6.85,9.86l.41.21c4.45,2.17,8.24-1.35,8.55-8"/><path class="cls-18" d="M93.62,589.91a1.84,1.84,0,0,1-.1.72c-.13.25-.35.28-.73.12l0,0a38.78,38.78,0,0,1-4-3.42c0-.18,0-.36.08-.53a40.61,40.61,0,0,0,3.93,3.37h0c.38.16.51.08.56,0a.71.71,0,0,0,0-.27c-.16-.64-1.8-4.59-2.88-7.11l.22-.24C93.62,589.32,93.62,589.75,93.62,589.91Z"/><path class="cls-3" d="M102.85,594.57a20.83,20.83,0,0,1-4.08-.71l-.07,0A1.46,1.46,0,0,1,98,593a2.17,2.17,0,0,1-.06-.81c0-.15,0-.58,3.22-4.27a18.37,18.37,0,0,0-.91-1.77,26.84,26.84,0,0,1-2.81,4,.59.59,0,0,1-.58.09,1.21,1.21,0,0,1-.46-.71c-.15-.36-.13-2.87,0-7.46l-.21-.12-.33-.17-.32-.15c-.07,4.62-.18,7.07-.34,7.29l0,.06,0,.06,0,0-.06.05a.27.27,0,0,1-.29,0l-.12-.08a1.88,1.88,0,0,1-.24-.28,3.76,3.76,0,0,1-.22-.33c0-.09-.11-.22-.19-.39s-.06-.15-.1-.23l0-.09c-.17-.4-.37-.93-.59-1.51l0-.13c-.31-.83-.64-1.76-.93-2.57l-.28-.8-.07-.2-.06-.19c-.08-.22-.14-.41-.19-.56a4.59,4.59,0,0,0-1,.8c2.9,6.78,2.9,7.21,2.9,7.37a1.84,1.84,0,0,1-.1.72c-.13.25-.35.28-.77.1a38.78,38.78,0,0,1-4-3.42,12,12,0,0,0-.11,1.23c0,.4,0,.82,0,1.23l.84.41a21.51,21.51,0,0,1,3.82,2.13,1.86,1.86,0,0,1,.31,1,1.57,1.57,0,0,1-.31,1A15,15,0,0,1,90,596.34a19.54,19.54,0,0,0,1,2.06c1-1,3.23-3.49,3.52-3.4l.18.06c.24.12.51.42.6,1.5a56.24,56.24,0,0,1-.63,6.15c.21.14.41.26.62.38l.33.17a4.89,4.89,0,0,0,1.52.49c-.3-1.8-.93-5.78-.89-6.65.05-1.25.42-1.16.67-1l.07,0c.29.14,2.81,4.64,3.78,6.38a5.85,5.85,0,0,0,.67-.85c-.66-1.07-3.05-5-3.39-5.89a3.07,3.07,0,0,1-.25-1.25.69.69,0,0,1,.36-.61,4,4,0,0,1,1.41.55c1.09.53,2.52,1.3,3.32,1.74C102.9,595.65,102.88,595.11,102.85,594.57Zm-5.34-1.09c-.06,1.37-.77,2.09-1.63,1.67l-.08,0a3.23,3.23,0,0,1-1.28-1.86,4.86,4.86,0,0,1-.2-1.55c.06-1.37.78-2.08,1.64-1.66l.07,0a3.17,3.17,0,0,1,1.28,1.87,4.38,4.38,0,0,1,.2,1.55"/><path class="cls-18" d="M95.8,595.1l.08,0c.86.42,1.57-.3,1.63-1.67a4.38,4.38,0,0,0-.2-1.55A3.17,3.17,0,0,0,96,590.06L96,590c-.86-.42-1.58.29-1.64,1.66a4.86,4.86,0,0,0,.2,1.55A3.23,3.23,0,0,0,95.8,595.1Zm-1.24-3.26c0-1,.67-1.57,1.38-1.23l.07,0a2.77,2.77,0,0,1,1.11,1.6,3.3,3.3,0,0,1,.16,1.1c0,1-.67,1.57-1.38,1.23l-.07,0a2.67,2.67,0,0,1-1.12-1.6,3.53,3.53,0,0,1-.15-1.09"/><path class="cls-3" d="M96.32,580l-.38-.21c-4.47-2.18-8.27,1.34-8.57,8a22,22,0,0,0,1,7.31c1.39,4.56,4,8.24,6.85,9.86l.41.21c4.45,2.17,8.24-1.35,8.55-8a22.1,22.1,0,0,0-1-7.32C101.79,585.24,99.23,581.56,96.32,580Zm6.9,14.65a20.48,20.48,0,0,1,0,2.07c-.28,6.15-3.68,9.43-7.66,7.48l-.34-.17c-2.27-1.26-4.31-4-5.61-7.43l-.12.06-.08-.57h0c-.1-.27-.19-.54-.27-.82a22.58,22.58,0,0,1-.92-5v-.26c0-.54,0-1.07,0-1.6s.06-.91.12-1.34l-.06-.05.06-.55.07.06c.82-4.92,3.91-7.34,7.47-5.61l.34.18c2.56,1.43,4.83,4.71,6.06,8.77a21,21,0,0,1,.84,4.23h0v.59"/><path class="cls-18" d="M88.28,590.19c0-.09,0-.18,0-.27v.26Z"/><path class="cls-3" d="M96,590.64a2.77,2.77,0,0,1,1.11,1.6,3.3,3.3,0,0,1,.16,1.1c0,1-.67,1.57-1.38,1.23l-.07,0a2.67,2.67,0,0,1-1.12-1.6,3.53,3.53,0,0,1-.15-1.09c0-1,.68-1.57,1.38-1.23Z"/></g><g class="cls-17"><path class="cls-18" d="M315.89,589.15h0l0,.57,0,0C315.9,589.55,315.9,589.35,315.89,589.15Z"/><path class="cls-18" d="M314.74,596c.07-.17.13-.35.19-.53h0l0,.59Z"/><path class="cls-18" d="M307.21,582.17l.24-.1c.23,3,.53,6.24.66,6.57.09.1.2.2.35.12a1.5,1.5,0,0,0,.53-.62c.43-.72,1.8-4.75,2.32-6.31l.28.1c-.44,1.32-2,5.87-2.47,6.69a1.67,1.67,0,0,1-.61.71c-.21.1-.36,0-.51-.17S307.54,586.62,307.21,582.17Z"/><path class="cls-18" d="M306.55,596.22c.29-.14.65-.19.77,1a58.06,58.06,0,0,1-.63,6.49l-.26.05c.31-2.38.72-5.79.65-6.39s-.18-.68-.49-.53l-.1.05c-.23.14-2.27,3.68-3.67,6.19l-.3-.21c.81-1.45,3.6-6.39,3.92-6.56Z"/><path class="cls-18" d="M306.23,582.7c.46,4.4.62,6.82.48,7.19a1.19,1.19,0,0,1-.49.72.76.76,0,0,1-.63-.05c-.59-.24-2.8-2.84-3.39-3.55.07-.13.15-.26.23-.38a23.91,23.91,0,0,0,3.2,3.35.65.65,0,0,0,.55,0,.89.89,0,0,0,.35-.54c.06-.39-.22-3.61-.53-6.64Z"/><path class="cls-18" d="M304.18,594.56a2.12,2.12,0,0,1,.81-.3.65.65,0,0,1,.42.58,2.71,2.71,0,0,1-.2,1.24c-.34.93-2.81,4.9-3.5,6l-.25-.3c1.14-1.82,3.28-5.3,3.57-6.09a2.1,2.1,0,0,0,.16-.66s-.06-.1-.25-.19a1.85,1.85,0,0,0-.6.23c-1,.47-3,1.6-4.52,2.46,0-.1,0-.2,0-.3s0-.18,0-.27C300.7,596.41,303,595.14,304.18,594.56Z"/><path class="cls-18" d="M305.12,592.6a2.11,2.11,0,0,1,0,.75,1.47,1.47,0,0,1-.75.93l-.12.07a30.69,30.69,0,0,1-4.53,1.07c0-.2,0-.4,0-.6a29,29,0,0,0,4.46-1.05l.11-.06c.44-.28.57-.51.6-.65a.9.9,0,0,0,0-.24,40.38,40.38,0,0,0-3.84-3.56l.19-.45C305.05,592,305.1,592.43,305.12,592.6Z"/><path class="cls-18" d="M315.81,587.92c0,.41.07.81.08,1.23,0,.2,0,.4,0,.6a18.47,18.47,0,0,1-.52,4.13c-.13.53-.28,1.06-.45,1.57-.06.18-.12.36-.19.53a14.81,14.81,0,0,1-5.9,7.73,5.2,5.2,0,0,1-.62.32c-4.27,2-8.15-.77-8.79-6.57a12.89,12.89,0,0,1-.09-2c0-.2,0-.39,0-.59a18.12,18.12,0,0,1,.49-3.39c1-4.32,3.56-8.09,6.54-9.83.21-.12.41-.22.62-.32,3.8-1.81,7.3.23,8.48,4.79l.12.52C315.69,587.06,315.76,587.49,315.81,587.92Zm-.28,1.41c0-.4,0-.79-.08-1.17a10.76,10.76,0,0,0-.19-1.18c0-.17-.08-.35-.12-.51A7.27,7.27,0,0,0,313,582.8l-.26-.21a4.63,4.63,0,0,0-1.16-.66l-.28-.1a5.44,5.44,0,0,0-3.86.24l-.24.1-.13.06c-.2.1-.4.2-.6.32l-.25.15-.23.15a13,13,0,0,0-3.57,3.78c-.08.12-.16.25-.23.38a17,17,0,0,0-.95,1.8l-.19.45a18.56,18.56,0,0,0-.89,2.7,17,17,0,0,0-.44,2.86c0,.2,0,.4,0,.6a13.07,13.07,0,0,0,.05,1.54c0,.09,0,.18,0,.27s0,.2,0,.3a8.87,8.87,0,0,0,1.64,4.25l.25.3a7.06,7.06,0,0,0,.81.75l.3.21a4.92,4.92,0,0,0,3.61.68l.26-.05a7,7,0,0,0,1.43-.51l.63-.33c.23-.14.46-.28.68-.44l.24-.17a13.28,13.28,0,0,0,3.4-3.9c.09-.14.17-.28.25-.42a18.93,18.93,0,0,0,1-2.08c.07-.17.14-.35.2-.52a17,17,0,0,0,.56-1.88,16.33,16.33,0,0,0,.47-3.48v-.61"/><path class="cls-18" d="M310.11,593.21a1.64,1.64,0,0,1,.29-1c.22-.38,3.77-2.21,5.13-2.91v.61a43,43,0,0,0-5,2.78,1.2,1.2,0,0,0-.19.43.89.89,0,0,0,.26.43,18.59,18.59,0,0,0,3.89,1.72c-.06.17-.13.35-.2.52a17.42,17.42,0,0,1-3.79-1.7A1.42,1.42,0,0,1,310.11,593.21Z"/><path class="cls-3" d="M310.14,590c.15-.66,1.8-4.65,2.87-7.16a7.27,7.27,0,0,1,2.13,3.67,46.61,46.61,0,0,1-4.3,3.67h0c-.46.2-.61.1-.65,0A.59.59,0,0,1,310.14,590Z"/><path class="cls-18" d="M309.18,591.78a4.23,4.23,0,0,1-.1,1.36,3.35,3.35,0,0,1-1.37,2.08l-.14.07c-.92.44-1.72-.18-1.87-1.48a4,4,0,0,1,.1-1.36,3.32,3.32,0,0,1,1.37-2.08l.11-.06C308.21,589.87,309,590.47,309.18,591.78Zm-.3,1.06a2.82,2.82,0,0,0,.06-.9c-.11-1-.82-1.43-1.59-1.06l-.12.06a2.84,2.84,0,0,0-1.22,1.81,2.64,2.64,0,0,0-.08.91c.11,1,.83,1.42,1.59,1.06l.13-.07a3,3,0,0,0,1.23-1.81"/><path class="cls-3" d="M307.35,590.88c.77-.37,1.48.09,1.59,1.06a2.82,2.82,0,0,1-.06.9,3,3,0,0,1-1.23,1.81l-.13.07c-.76.36-1.48-.11-1.59-1.06a2.64,2.64,0,0,1,.08-.91,2.84,2.84,0,0,1,1.22-1.81Z"/><path class="cls-18" d="M317.24,587.05a20.69,20.69,0,0,1-.5,7c-1.24,5.09-4.18,9.51-7.69,11.55l-.73.38c-5,2.39-9.58-.92-10.33-7.71a20.18,20.18,0,0,1,.5-7c1.23-5.09,4.18-9.52,7.69-11.55a6.85,6.85,0,0,1,.71-.37C311.92,577,316.48,580.24,317.24,587.05Zm-.85,6.48a18.32,18.32,0,0,0,.46-6.23c-.71-6.28-5-9.29-9.85-7-.24.12-.49.24-.73.39-3.41,2-6.25,6.22-7.43,11.09a18,18,0,0,0-.46,6.22c.7,6.3,5,9.29,9.85,7,.24-.11.48-.24.72-.38,3.41-2,6.26-6.23,7.44-11.09"/><path class="cls-3" d="M316.85,587.3c-.71-6.28-5-9.29-9.85-7-.24.12-.49.24-.73.39-3.41,2-6.25,6.22-7.43,11.09a18,18,0,0,0-.46,6.22c.7,6.3,5,9.29,9.85,7,.24-.11.48-.24.72-.38,3.41-2,6.26-6.23,7.44-11.09A18.32,18.32,0,0,0,316.85,587.3Zm-1,2.45a18.47,18.47,0,0,1-.52,4.13c-.13.53-.28,1.06-.45,1.57l0,.59-.16-.06a14.81,14.81,0,0,1-5.9,7.73,5.2,5.2,0,0,1-.62.32c-4.27,2-8.15-.77-8.79-6.57-.08-.64-.11-1.3-.13-2l0-.59h.08a18.12,18.12,0,0,1,.49-3.39c1-4.32,3.56-8.09,6.54-9.83.21-.12.41-.22.62-.32,3.8-1.81,7.3.23,8.48,4.79l.1-.09.08.55-.06.06c.08.4.15.83.2,1.26s.07.81.09,1.23l0,.57,0,0"/><path class="cls-18" d="M315.59,586.05l.08.55-.06.06-.12-.52Z"/><path class="cls-18" d="M310.84,590.14a46.61,46.61,0,0,0,4.3-3.67c0,.16.08.34.12.51a45.32,45.32,0,0,1-4.37,3.74h0c-.44.19-.69.17-.83-.08a1.57,1.57,0,0,1-.14-.68c0-.17,0-.58,2.85-7.38l.26.21c-1.07,2.51-2.72,6.5-2.87,7.16a.59.59,0,0,0,0,.22c0,.07.19.17.65,0Z"/><path class="cls-18" d="M309,595l.18-.07c.32-.12,3.19,2.16,4.16,2.93-.08.14-.16.28-.25.42a25.19,25.19,0,0,0-3.88-2.78l-.15.06c-.26.13-.39.33-.41,1a46,46,0,0,0,1,5.63l-.24.17a43.26,43.26,0,0,1-1-5.85C308.43,595.46,308.71,595.16,309,595Z"/><path class="cls-3" d="M309,595.6l.15-.06a25.19,25.19,0,0,1,3.88,2.78,13.28,13.28,0,0,1-3.4,3.9,46,46,0,0,1-1-5.63C308.65,595.93,308.78,595.73,309,595.6Z"/><path class="cls-3" d="M306.18,590a.65.65,0,0,1-.55,0,23.91,23.91,0,0,1-3.2-3.35,13,13,0,0,1,3.57-3.78c.31,3,.59,6.25.53,6.64A.89.89,0,0,1,306.18,590Z"/><path class="cls-3" d="M305.19,595a2.1,2.1,0,0,1-.16.66c-.29.79-2.43,4.27-3.57,6.09a8.87,8.87,0,0,1-1.64-4.25c1.49-.86,3.52-2,4.52-2.46a1.85,1.85,0,0,1,.6-.23C305.13,594.93,305.18,595,305.19,595Z"/><path class="cls-3" d="M304.3,593.71l-.11.06a29,29,0,0,1-4.46,1.05,17,17,0,0,1,.44-2.86,18.56,18.56,0,0,1,.89-2.7,40.38,40.38,0,0,1,3.84,3.56.9.9,0,0,1,0,.24C304.87,593.2,304.74,593.43,304.3,593.71Z"/><path class="cls-18" d="M299.3,595.49l0-.59h.08c0,.2,0,.39,0,.59Z"/></g><path class="cls-3" d="M186.74,492.74l-.07,18.77s-1.59,1.34-1.11,10.06c0,0-2.34,0-2.53,6.7s-1.39,41-1.39,41-28.92-12.38-73.61-5.59c0,0-11.08,1.88-11.94,7s.27,6.48.27,6.48l3.86.71,13.33-.19.11-1.91s11.61.82,18.16,2.28,13.68,3.39,15.77,4.54l.14.64s-21.54,4.7-24.47,5.37S84.46,598.3,76,600.94s-36.55,12.7-36.55,12.7l-19.58,8.53s-4.79,3.62-2.83,12.23a6.11,6.11,0,0,0,.7.59c2,1.51,8.29,5.08,19.05.54l2.08-3.76s59.38-19.2,99.89-23.72,38.31-4.7,38.31-4.7,7-1.24,8,7.15,4.54,67.87,4.54,67.87,1.22,9.5,12.29,9.13,13.75-5.1,13.75-5.1,1.22-1,1.49-6.9L220.43,607s2.9-2.51,9-1.56,29.66,3.7,29.66,3.7,29.34,3.88,47.3,8.41,58.86,16,58.86,16l2.15,3.92s7.28,4.28,12.48,2.11A39.8,39.8,0,0,1,387,637s3-10.52-4.47-13.88-48.66-21.72-93.11-30.64L255.6,585s9.39-6.29,30.18-7.81,17.22-.83,17.22-.83v2.56l4.46-.7s2.4-7.7-2.77-10.33-15.26-6.5-42.64-4.83-38.79,6.73-38.79,6.73l-1.18-41.12s.8-4.42-2.32-6.47c0,0,.75-8.56-1.11-10.66l-.92-15.5Z"/><path class="cls-4" d="M223.4,577.28l-.14-7.52s11.86-6.37,46.26-7,37.55,7.25,37.55,7.25,1.57,1.28.39,8.14c0,0-3.63.88-4.12.69s-.19-2.55-.19-2.55-30-.39-47.94,7.74"/><path class="cls-4" d="M181.64,576.51v-7.24s-12.94-6.87-47.34-7.46-37.55,7.25-37.55,7.25-1.56,1.28-.39,8.14c0,0,3.63.88,4.12.68s.2-2.54.2-2.54,30-.4,47.93,7.74"/><path class="cls-4" d="M183.8,605.1l-1.57-.74a13.73,13.73,0,0,0-7.39-.84l-.05,0q-9.21,1.53-18.48,2.45a459.4,459.4,0,0,0-48.38,7.34c-27.2,5.89-69,18.28-69,18.28l-2.16,3.92c-9.51,5.69-19.6-.39-19.6-.39C15,624.76,20.15,622,20.15,622s24.71-12.35,65.29-23.82,96.21-21.66,96.21-21.66l.06.76"/><path class="cls-4" d="M222.59,578.41s55.63,10.2,96.21,21.67,65.29,23.82,65.29,23.82,5.18,2.75,2.94,13.14c0,0-10.11,6.08-19.61.39l-2.15-3.92s-41.76-12.4-69-18.28a457,457,0,0,0-48.37-7.34q-9.28-.95-18.48-2.46h-.06a13.67,13.67,0,0,0-7.38.83l-1.58.74"/><path class="cls-4" d="M183.8,605.1s2,2.31,3.39,28.37,2.54,45.69,2.54,45.69.83,9.16,13.77,8.28a42.85,42.85,0,0,0,6.37-.86A9.3,9.3,0,0,0,217.1,678l3.33-71"/><path class="cls-4" d="M204.25,583.08c13.08.33,19.15-5.8,19.15-5.8l.06-.77-1.39-48.24a15.43,15.43,0,0,0-.52-3.7,5.9,5.9,0,0,0-1.13-2.4s-.44,6.47-16.17,6.47h-3.39c-15.74,0-16.18-6.47-16.18-6.47a5.9,5.9,0,0,0-1.13,2.4,16,16,0,0,0-.52,3.7l-1.39,48.24.06.77s6.07,6.13,19.16,5.8Z"/><path class="cls-4" d="M201.3,528.64c-13.82.22-15.73-6.1-15.73-6.1v-6.25s-.15-3.6,1.1-4.78c0,0-.15,5.81,15.44,5.73h1.1c15.59.08,15.44-5.73,15.44-5.73,1.25,1.18,1.1,4.78,1.1,4.78v6.25s-1.91,6.32-15.73,6.1Z"/><path class="cls-4" d="M186.74,512V492.74s6.43.61,15.78,1.84S217.73,496,217.73,496l.58,15.23s-.79,6.37-15.3,6S186.74,512,186.74,512Z"/><path class="cls-4" d="M195.22,686.24v3a2.27,2.27,0,0,1,1.22,2h10.88s.2-1.77.79-1.87v-2.4"/><path class="cls-13" d="M195.22,689.23h-6.13l.59,38.13h6.18s1.17-.79,1-4.12l-.4-32"/><path class="cls-13" d="M189.28,689.23l-1,1.78c-2,3.75-1.07,1.88-1.23,16.36v.33c.16,14.49-.35,14.12,1.63,17.87l1,1.79"/><path class="cls-13" d="M208.57,689.23h6.14l-.59,38.13h-6.18s-1.17-.79-1-4.12l.39-32"/><path class="cls-13" d="M214.79,689.51l1,1.79c2,3.75,1.07,1.87,1.24,16.36V708c-.17,14.48.35,14.11-1.64,17.86l-1,1.79"/><line class="cls-13" x1="196.86" y1="714.12" x2="207.07" y2="714.12"/><path class="cls-15" d="M1.71,656.06c0-9.09,7.72-15.57,16.82-15.57a16.5,16.5,0,0,1,7.2,1"/><circle class="cls-19" cx="380.62" cy="661.47" r="13.99"/><circle class="cls-19" cx="19.58" cy="659.46" r="13.99"/><line class="cls-19" x1="100.48" y1="577.88" x2="105.97" y2="577.72"/><path class="cls-20" d="M119.78,589s-2.66-9.75-4.5-10.79l-.44,11-8.16,2.14-.22-2.14a19.1,19.1,0,0,0-2.84-7.13v-4a7,7,0,0,0,6.56,2.5c4.22-.68,4.66-2.5,4.66-2.5l-1.13-1.64v1.2H106v-2.06"/><line class="cls-21" x1="303" y1="579.06" x2="297.24" y2="578.89"/><path class="cls-22" d="M283.07,589.94s2.47-9.45,4.4-10.54l.46,11.57,8.56,2.24.24-2.24a19.87,19.87,0,0,1,3-7.46v-4.16a7.41,7.41,0,0,1-6.89,2.62c-4.43-.72-4.89-2.62-4.89-2.62l1.18-1.73v1.27h8.13v-2.16"/></g></g></g></g></g></svg>