<svg xmlns="http://www.w3.org/2000/svg" viewBox="0 0 596.26 771.89"><defs><style>.cls-1,.cls-2,.cls-3{fill:#fff;}.cls-1,.cls-10,.cls-11,.cls-12,.cls-2,.cls-4,.cls-5,.cls-6,.cls-9{stroke:#1d1d1b;}.cls-1,.cls-10,.cls-11,.cls-12,.cls-13,.cls-14,.cls-16,.cls-17,.cls-18,.cls-19,.cls-20,.cls-21,.cls-22,.cls-24,.cls-25,.cls-5,.cls-6,.cls-9{stroke-miterlimit:10;}.cls-1,.cls-2,.cls-4,.cls-5,.cls-6{stroke-width:2px;}.cls-2{stroke-linejoin:bevel;}.cls-10,.cls-12,.cls-13,.cls-14,.cls-16,.cls-17,.cls-18,.cls-19,.cls-20,.cls-21,.cls-22,.cls-24,.cls-25,.cls-4,.cls-5,.cls-6,.cls-9{fill:none;}.cls-4{stroke-linejoin:round;}.cls-6{stroke-linecap:round;}.cls-7{isolation:isolate;}.cls-11,.cls-8{fill:#1d1d1b;}.cls-9{stroke-width:1.3px;}.cls-10,.cls-11{stroke-width:0.75px;}.cls-13,.cls-14,.cls-16,.cls-17,.cls-18,.cls-19,.cls-20,.cls-21,.cls-22,.cls-24,.cls-25{stroke:#e30613;}.cls-13{stroke-width:1.62px;}.cls-14{stroke-width:1.81px;}.cls-15{fill:#e30613;}.cls-16{stroke-width:1.63px;}.cls-17{stroke-width:1.54px;}.cls-18{stroke-width:1.74px;}.cls-19{stroke-width:1.64px;}.cls-20{stroke-width:1.53px;}.cls-21{stroke-width:1.56px;}.cls-22{stroke-width:1.58px;}.cls-23{fill:#e6e6e6;}.cls-24{stroke-width:1.69px;}.cls-25{stroke-width:1.76px;}</style></defs><title>lateral gamma medidas</title><g id="Camada_2" data-name="Camada 2"><g id="Camada_1-2" data-name="Camada 1"><path class="cls-1" d="M64.67,664.9a20.17,20.17,0,0,0-16.76,8.69c-6.39,9.31,0,21.4,0,21.4,3.41,17.79,18.85,16.92,18.85,16.92,22.7-.24,19.49-27.43,19.49-27.43l.22-19S78,671.58,64.67,664.9Z"/><path class="cls-1" d="M483.08,667.41a20.19,20.19,0,0,1,16.76,8.68c6.39,9.31,0,21.4,0,21.4-1.49,7.78-5.35,12.12-9.22,14.53a19.88,19.88,0,0,1-17.31,1.45C456.16,707.26,461.5,687,461.5,687l-.34-24S469.74,674.1,483.08,667.41Z"/><path class="cls-2" d="M375.33,598.1l-.9,2s-3.1-.09-6.44,13.81l36.89,9.18s5.49-18-3.72-22.53l-4.93-1-5.11.8v-2.94Z"/><path class="cls-3" d="M267.81,723.21v3.89h-7l-2.37,5.24.45,32.65,2.61,5.89h7.07s1.27-1.31,1.14-7.2,0-7.37,0-7.37l11.53-.09,0,11.33s.38,3.32,1.13,3.32h7.07s2.87-4,3.35-7.19-.08-30.56-.08-30.56l-2.61-6h-7.55l-.23-2.4Z"/><g id="Base"><g id="base-2" data-name="base"><path class="cls-3" d="M64,665a20.24,20.24,0,0,0-16.79,8.68c-6.4,9.29,0,21.36,0,21.36,3.42,17.76,18.88,16.89,18.88,16.89,22.73-.22,19.53-27.37,19.53-27.37l.22-18.93S77.35,671.67,64,665Z"/><path class="cls-1" d="M174.34,596.91l.44,2.22s3-.18,6.33,13.69l-35.82,8.9s-4.92-17.39,4.31-22l3.81-1.38,5.11.8v-2.94Z"/><path class="cls-3" d="M267.43,723.3v3.88h-7L258,732.41l.45,32.6,2.61,5.88h7.07s1.28-1.31,1.15-7.18,0-7.36,0-7.36l11.55-.09v11.31s.38,3.32,1.14,3.32h7.08s2.88-3.94,3.36-7.18-.08-30.5-.08-30.5l-2.61-6H282.2l-.23-2.39Z"/><path class="cls-4" d="M86.68,666.5l-.4,17.64-.67.42s-1.35-5.73-5.48-9a21,21,0,0,0-7-3.69v-3.56"/><circle class="cls-5" cx="66.08" cy="693.06" r="18.88"/><path class="cls-6" d="M47.2,695.46C46,693,44.32,687,44.32,684.05A18.88,18.88,0,0,1,63.2,665.17"/><path class="cls-6" d="M44.43,685.12c0-10.43,10.7-18.26,21.12-18.26"/><circle class="cls-5" cx="66.44" cy="693.12" r="3.24"/><path class="cls-5" d="M66.82,677.15s.08,10.36.5,10.87.84.93,2,0,5.82-8.18,5.82-8.18"/><path class="cls-5" d="M77.65,682.34S71,690.28,71,690.94s0,1.25,1.54,1.31,9.73-2.45,9.73-2.45"/><path class="cls-5" d="M82.34,693.12s-10.37,0-10.88.45-.93.83,0,2,8.15,5.86,8.15,5.86"/><path class="cls-5" d="M78,703.94s-8.24-6.3-8.9-6.27-1.24.09-1.24,1.59,2.9,9.61,2.9,9.61"/><path class="cls-5" d="M64.37,677.17s.51,10.35.12,10.88-.79,1-2,.12-6.27-7.84-6.27-7.84"/><path class="cls-5" d="M53.85,683s7.1,7.55,7.14,8.21,0,1.25-1.46,1.39-9.85-1.89-9.85-1.89"/><path class="cls-5" d="M49.79,695.34s10.35-.56,10.88-.17,1,.79.13,2S53,703.5,53,703.5"/><path class="cls-5" d="M56.24,706s6.79-7.83,7.44-7.94,1.25-.16,1.54,1.31-.88,10-.88,10"/><path class="cls-5" d="M460.76,663.58V685.1l.65.47s1.73-5.63,6.07-8.64a20.94,20.94,0,0,1,7.23-3.22l.24-3.55"/><circle class="cls-5" cx="479.91" cy="695.77" r="19.29"/><path class="cls-5" d="M499.66,698.12a30.36,30.36,0,0,0,3-10.28c.7-10.4-5.41-19.4-15.81-20.11"/><path class="cls-5" d="M502.57,688.54c.71-10.4-9.56-18.58-20-19.29"/><path class="cls-5" d="M501.82,692.15c-1.58-14.88-13.86-20.41-26.41-18.24"/><circle class="cls-5" cx="479.96" cy="695.4" r="3.24"/><path class="cls-5" d="M480.66,679.44s-.79,10.33-1.24,10.81-.91.87-2-.14-5.25-8.55-5.25-8.55"/><path class="cls-5" d="M469.49,683.88s6.11,8.38,6.07,9-.12,1.24-1.62,1.2S464.4,691,464.4,691"/><path class="cls-5" d="M464.09,694.32s10.34.73,10.82,1.18.87.9-.12,2-8.53,5.3-8.53,5.3"/><path class="cls-5" d="M467.73,705.41s8.64-5.72,9.3-5.65,1.24.18,1.13,1.68-3.54,9.39-3.54,9.39"/><path class="cls-5" d="M483.09,679.62s-1.2,10.3-.85,10.85.72,1,2,.25,6.79-7.39,6.79-7.39"/><path class="cls-5" d="M493.2,686.12s-7.59,7-7.68,7.71-.12,1.24,1.36,1.49,10-1.23,10-1.23"/><path class="cls-5" d="M496.42,698.74s-10.29-1.26-10.85-.9-1,.71-.26,2,7.36,6.83,7.36,6.83"/><path class="cls-5" d="M489.26,708.94s-6.25-8.27-6.89-8.43-1.23-.24-1.62,1.21.2,10,.2,10"/><g class="cls-7"><path class="cls-3" d="M146.16,615a42.83,42.83,0,0,1,4.08,2.17,18.8,18.8,0,0,1-3.63,2.3c-.1-.27-.18-.54-.27-.81a21.43,21.43,0,0,1-.81-4Z"/><path class="cls-3" d="M152.19,618.59a1,1,0,0,0-.22-.08c-.11,0-.44-.13-4.09,3.87-.21-.39-.41-.8-.59-1.22a15.07,15.07,0,0,0,3.45-2.31,2.61,2.61,0,0,0,.46-1.63,3.35,3.35,0,0,0-.49-1.66c-.08-.15-.29-.52-4.24-2.44l-1.05-.51c0-.25,0-.49,0-.74s0-.49.05-.73a40,40,0,0,0,4.45,3.78l.05,0c.53.22.83.15,1-.25a3.19,3.19,0,0,0,.2-1.27c0-.51,0-1-3.18-8.42a4.77,4.77,0,0,1,.58-.45c.67,2,2.32,6.64,2.87,7.59a2.38,2.38,0,0,0,.75.89,3.26,3.26,0,0,0-.75,2.18,7.14,7.14,0,0,0,.29,2.29,5.62,5.62,0,0,0,.47,1.12Z"/><path class="cls-8" d="M148,605c3.19,7.46,3.18,7.91,3.18,8.42a3.19,3.19,0,0,1-.2,1.27c-.2.4-.5.47-1,.25l-.05,0a40,40,0,0,1-4.45-3.78,13.56,13.56,0,0,1,.27-1.78A44.81,44.81,0,0,0,150,613h0l.25.08c-.49-1.31-1.76-4.39-3-7.24A6.65,6.65,0,0,1,148,605Z"/><path class="cls-3" d="M153.69,621.42a63,63,0,0,0,.92,7.24,6.52,6.52,0,0,1-1.36-.48l-.38-.2-.38-.23a53.5,53.5,0,0,0,.64-6.84,5.76,5.76,0,0,0-.27-1.44,2.45,2.45,0,0,0,.57.47l.1,0a1.43,1.43,0,0,0,.38.13A3.61,3.61,0,0,0,153.69,621.42Z"/><path class="cls-8" d="M153.47,604.38c-.1,7.31-.29,8-.45,8.29l0,.05c-.22.3-.45.46-.73.32h0a2.38,2.38,0,0,1-.75-.89c-.55-.95-2.2-5.64-2.87-7.59a4.22,4.22,0,0,1,.84-.44c.91,2.59,2.09,5.85,2.43,6.43.2.34.32.49.41.53a.11.11,0,0,0,.13,0c.09-.87.18-4,.22-7A7,7,0,0,1,153.47,604.38Z"/><path class="cls-3" d="M153.74,612.87l-.09,0a1.38,1.38,0,0,0-.63-.15c.16-.25.35-1,.45-8.29l.09,0,.35.18c-.23,6.14-.17,7.74-.06,8.34A.41.41,0,0,0,153.74,612.87Z"/><path class="cls-3" d="M152.41,616.45a2.35,2.35,0,0,1-.11-.75c0-.74.59-1.27,1.3-.92l.06,0a2.69,2.69,0,0,1,1.1,1.54,2.15,2.15,0,0,1,.11.76c0,.72-.58,1.26-1.28.91l-.08,0A2.6,2.6,0,0,1,152.41,616.45Z"/><path class="cls-8" d="M153.91,604.6h0c.27.15.53.32.79.5-.1,3-.18,6.15-.14,7.07a.35.35,0,0,0,.14.17c.09,0,.21,0,.42-.1a25.71,25.71,0,0,0,2.71-3.84c.28.4.54.83.79,1.27-.74,1.2-2.61,4.16-3.21,4.51a1.23,1.23,0,0,1-.41.17.57.57,0,0,1-.37-.06,1.84,1.84,0,0,1-.7-1,1.53,1.53,0,0,1-.1-.32C153.74,612.34,153.68,610.74,153.91,604.6Z"/><path class="cls-3" d="M155,614.36a1.23,1.23,0,0,0,.41-.17c.6-.35,2.47-3.31,3.21-4.51.19.34.37.69.55,1.05-3.51,4.07-3.53,4.51-3.56,5a6,6,0,0,0,0,.61,7.7,7.7,0,0,0-.23-1.06A6.15,6.15,0,0,0,155,614.36Z"/><path class="cls-3" d="M159.86,612.26c.22.56.42,1.13.6,1.72a20.67,20.67,0,0,1,.73,3.33,21,21,0,0,1-4.27-.74l-.08-.05a2.55,2.55,0,0,1-.26-.19C157.12,615.54,158.53,613.81,159.86,612.26Z"/><path class="cls-8" d="M161.09,612.94a24.85,24.85,0,0,1,1.09,8.25c-.33,7.31-4.33,11.22-9,8.94-.13-.07-.25-.14-.39-.2-2.56-1.43-4.87-4.46-6.39-8.3l-.11-.27c-.21-.55-.4-1.12-.58-1.7a25,25,0,0,1-1.08-8.27c.32-7.31,4.34-11.19,9-8.92l.37.2C157,604.33,159.64,608.17,161.09,612.94Zm.27,7.78c0-.32,0-.64,0-1,0-.14,0-.29,0-.44a19.8,19.8,0,0,0-.18-2,20.67,20.67,0,0,0-.73-3.33c-.18-.59-.38-1.16-.6-1.72s-.43-1-.67-1.53-.36-.71-.55-1.05-.51-.87-.79-1.27a12.74,12.74,0,0,0-3.13-3.3c-.26-.18-.52-.35-.79-.5l-.37-.19-.09,0a7,7,0,0,0-.82-.33,4.64,4.64,0,0,0-3.19.06,4.22,4.22,0,0,0-.84.44,4.77,4.77,0,0,0-.58.45,6.65,6.65,0,0,0-.75.82,9.23,9.23,0,0,0-1.53,3.54,13.56,13.56,0,0,0-.27,1.78c0,.24,0,.48-.05.73s0,.49,0,.74a20.23,20.23,0,0,0,.11,2,21.43,21.43,0,0,0,.81,4c.09.27.17.54.27.81.2.6.43,1.18.68,1.74s.38.83.59,1.22.53,1,.81,1.41a13.57,13.57,0,0,0,3,3.38,8.76,8.76,0,0,0,.82.58l.38.23.38.2a6.52,6.52,0,0,0,1.36.48,5.27,5.27,0,0,0,.86.13,4.41,4.41,0,0,0,2.9-.87,5.24,5.24,0,0,0,.85-.79l.26-.31a7.51,7.51,0,0,0,.7-1.11,11.56,11.56,0,0,0,1.11-4c0-.32.06-.64.07-1"/><path class="cls-8" d="M151.2,617.22a2.61,2.61,0,0,1-.46,1.63,15.07,15.07,0,0,1-3.45,2.31c-.25-.56-.48-1.14-.68-1.74a18.8,18.8,0,0,0,3.63-2.3,42.83,42.83,0,0,0-4.08-2.17l-.63-.3a20.23,20.23,0,0,1-.11-2l1.05.51c3.95,1.92,4.16,2.29,4.24,2.44A3.35,3.35,0,0,1,151.2,617.22Z"/><path class="cls-8" d="M162.4,612.38c-1.69-5.56-4.79-10-8.29-12l-.42-.22c-5.47-2.67-10.16,1.84-10.54,10.36a29,29,0,0,0,1.26,9.59c1.69,5.57,4.79,10,8.29,12l.45.23c5.46,2.66,10.13-1.88,10.51-10.38A28.77,28.77,0,0,0,162.4,612.38Zm.45,9.11c-.34,7.45-4.59,11.37-9.6,8.93l-.48-.25c-3.28-1.83-6.17-6-7.73-11.11A24.27,24.27,0,0,1,144,611c.34-7.47,4.62-11.36,9.64-8.91l.44.23c3.28,1.83,6.17,6,7.73,11.11a24.56,24.56,0,0,1,1.08,8.06"/><path class="cls-8" d="M146.34,621.67l-.05-.31.11.27Z"/><path class="cls-3" d="M150,613h0a44.81,44.81,0,0,1-4.23-3.61,9.23,9.23,0,0,1,1.53-3.54c1.22,2.85,2.49,5.93,3,7.24Z"/><path class="cls-3" d="M155.69,617.6v0a7,7,0,0,0,0-.79c0,.12.05.25.09.38s.05.16.08.23A1.15,1.15,0,0,0,155.69,617.6Z"/><path class="cls-3" d="M154.68,621.68l.06,0c.31.38,2,3.25,3.63,6.21a4.41,4.41,0,0,1-2.9.87c-.5-3-1-6.28-1-6.91,0-.14,0-.21,0-.24A.41.41,0,0,1,154.68,621.68Z"/><path class="cls-8" d="M154.83,619.78s0,0,.06,0c.19.18.89,1.12,4.33,7.31a5.24,5.24,0,0,1-.85.79c-1.65-3-3.32-5.83-3.63-6.21l-.06,0a.41.41,0,0,0-.17,0s0,.1,0,.24c0,.63.47,3.89,1,6.91a5.27,5.27,0,0,1-.86-.13,63,63,0,0,1-.92-7.24,3.61,3.61,0,0,1,.22-1.31A.57.57,0,0,1,154.83,619.78Z"/><path class="cls-3" d="M156.42,619.23c.21.07.63.26,1.18.52,1,.48,2.35,1.2,3.69,1.94a11.56,11.56,0,0,1-1.11,4C158.73,623.37,156.72,620,156.42,619.23Z"/><path class="cls-8" d="M157.86,617.9c.6.29,1.41.71,2.49,1.29l1,.56c0,.33,0,.65,0,1s0,.65-.07,1c-1.34-.74-2.72-1.46-3.69-1.94-.55-.26-1-.45-1.18-.52.3.78,2.31,4.15,3.76,6.48a7.51,7.51,0,0,1-.7,1.11,70,70,0,0,1-3.65-6.4,5.77,5.77,0,0,1-.36-1.57,2.57,2.57,0,0,1,0-.48,1.79,1.79,0,0,1,.21-.77,1.15,1.15,0,0,1,.15-.2.8.8,0,0,1,.2-.15C156.11,617.2,156.24,617.11,157.86,617.9Z"/><path class="cls-8" d="M159.19,610.73c.24.49.47,1,.67,1.53-1.33,1.55-2.74,3.28-3.28,4.07a2.55,2.55,0,0,0,.26.19l.08.05a21,21,0,0,0,4.27.74,19.8,19.8,0,0,1,.18,2l-1-.12c-1.08-.58-1.89-1-2.49-1.29-1.62-.79-1.75-.7-1.82-.65a.8.8,0,0,0-.2.15c0-.07-.05-.15-.08-.23s-.06-.26-.09-.38,0-.3,0-.43a6,6,0,0,1,0-.61C155.66,615.24,155.68,614.8,159.19,610.73Z"/><path class="cls-3" d="M161.77,613.43c-1.56-5.13-4.45-9.28-7.73-11.11l-.44-.23c-5-2.45-9.3,1.44-9.64,8.91a24.27,24.27,0,0,0,1.08,8.06c1.56,5.13,4.45,9.28,7.73,11.11l.48.25c5,2.44,9.26-1.48,9.6-8.93A24.56,24.56,0,0,0,161.77,613.43Zm.41,7.76c-.33,7.31-4.33,11.22-9,8.94-.13-.07-.25-.14-.39-.2-2.56-1.43-4.87-4.46-6.39-8.3l-.06,0-.05-.31c-.21-.55-.4-1.12-.58-1.7a25,25,0,0,1-1.08-8.27c.32-7.31,4.34-11.19,9-8.92l.37.2c3,1.66,5.63,5.5,7.08,10.27a24.85,24.85,0,0,1,1.09,8.25"/><path class="cls-8" d="M152.19,618.59l.06,0a1.48,1.48,0,0,1,.61.85,5.76,5.76,0,0,1,.27,1.44,53.5,53.5,0,0,1-.64,6.84,8.76,8.76,0,0,1-.82-.58c.36-2.64.69-5.5.66-6.14,0-.32,0-.41-.16-.47l-.16-.06a31,31,0,0,0-3.32,3.29c-.28-.45-.56-.92-.81-1.41,3.65-4,4-3.91,4.09-3.87A1,1,0,0,1,152.19,618.59Z"/><path class="cls-3" d="M152.3,611.07c-.09,0-.21-.19-.41-.53-.34-.58-1.52-3.84-2.43-6.43a4.64,4.64,0,0,1,3.19-.06c0,3-.13,6.13-.22,7A.11.11,0,0,1,152.3,611.07Z"/><path class="cls-8" d="M155.67,616.79a7,7,0,0,1,0,.79,2,2,0,0,0-.21.79,2.57,2.57,0,0,0,0,.48,2.28,2.28,0,0,1-.58,1s0,0-.06,0a.57.57,0,0,0-.92.33,1.43,1.43,0,0,1-.38-.13l-.1,0a2.45,2.45,0,0,1-.57-.47,1.48,1.48,0,0,0-.61-.85,5.62,5.62,0,0,1-.47-1.12,7.14,7.14,0,0,1-.29-2.29,3.26,3.26,0,0,1,.75-2.18h0c.28.14.51,0,.73-.32l0-.05a1.38,1.38,0,0,1,.63.15l.09,0a.41.41,0,0,1,.11.07,1.53,1.53,0,0,0,.1.32,1.84,1.84,0,0,0,.7,1,.57.57,0,0,0,.37.06,6.15,6.15,0,0,1,.38.94,7.7,7.7,0,0,1,.23,1.06C155.64,616.49,155.65,616.64,155.67,616.79Zm-.8.32a2.15,2.15,0,0,0-.11-.76,2.69,2.69,0,0,0-1.1-1.54l-.06,0c-.71-.35-1.26.18-1.3.92a2.35,2.35,0,0,0,.11.75,2.6,2.6,0,0,0,1.1,1.53l.08,0c.7.35,1.25-.19,1.28-.91"/><path class="cls-3" d="M154.72,612.35a.35.35,0,0,1-.14-.17c0-.92,0-4.1.14-7.07a12.74,12.74,0,0,1,3.13,3.3,25.71,25.71,0,0,1-2.71,3.84C154.93,612.37,154.81,612.39,154.72,612.35Z"/><path class="cls-3" d="M161.38,619.75l-1-.56,1,.12C161.37,619.46,161.38,619.61,161.38,619.75Z"/></g><path class="cls-3" d="M155.47,618.85a5.77,5.77,0,0,0,.36,1.57,70,70,0,0,0,3.65,6.4l-.26.31c-3.44-6.19-4.14-7.13-4.33-7.31A2.28,2.28,0,0,0,155.47,618.85Z"/><path class="cls-3" d="M152.17,620.56c.13.06.13.15.16.47,0,.64-.3,3.5-.66,6.14a13.57,13.57,0,0,1-3-3.38A31,31,0,0,1,152,620.5Z"/><g class="cls-7"><path class="cls-8" d="M405.76,612.46h0l.06.66-.05,0C405.77,612.91,405.76,612.69,405.76,612.46Z"/><path class="cls-8" d="M404.44,620.29l.21-.61h0l0,.68Z"/><path class="cls-8" d="M395.8,604.46l.28-.11c.26,3.5.6,7.15.75,7.53.11.11.23.22.41.14a1.8,1.8,0,0,0,.6-.72c.49-.82,2.07-5.45,2.67-7.24l.32.12c-.51,1.52-2.27,6.74-2.83,7.67a1.94,1.94,0,0,1-.7.82c-.24.11-.42,0-.6-.2S396.18,609.56,395.8,604.46Z"/><path class="cls-8" d="M395.05,620.56c.32-.16.74-.21.88,1.11a68.79,68.79,0,0,1-.72,7.43l-.3.06c.36-2.73.82-6.63.75-7.32s-.21-.78-.57-.61l-.11,0c-.26.17-2.6,4.23-4.21,7.1l-.34-.24c.93-1.66,4.12-7.32,4.49-7.51Z"/><path class="cls-8" d="M394.68,605.07c.53,5,.71,7.81.55,8.24a1.39,1.39,0,0,1-.56.82.85.85,0,0,1-.72,0c-.68-.27-3.21-3.26-3.89-4.08l.26-.43c.84,1,3.09,3.61,3.67,3.84a.73.73,0,0,0,.63.06,1.05,1.05,0,0,0,.41-.62c.06-.45-.25-4.14-.61-7.61Z"/><path class="cls-8" d="M392.33,618.66a2.53,2.53,0,0,1,.92-.34.74.74,0,0,1,.49.67,3,3,0,0,1-.23,1.41c-.38,1.07-3.22,5.63-4,6.88-.09-.11-.19-.22-.28-.34,1.3-2.08,3.76-6.08,4.08-7a2.17,2.17,0,0,0,.18-.76c0-.05-.06-.11-.28-.22a2.83,2.83,0,0,0-.69.26c-1.15.55-3.47,1.84-5.18,2.82,0-.11,0-.22,0-.34l0-.31C388.34,620.79,390.92,619.33,392.33,618.66Z"/><path class="cls-8" d="M393.41,616.41a2.77,2.77,0,0,1,0,.86,1.68,1.68,0,0,1-.86,1.07l-.14.08a33.59,33.59,0,0,1-5.2,1.22l0-.68a32.79,32.79,0,0,0,5.11-1.21.4.4,0,0,0,.13-.07c.5-.32.65-.58.68-.74a.58.58,0,0,0,0-.27,43.22,43.22,0,0,0-4.4-4.08c.07-.18.15-.35.23-.52C393.33,615.77,393.39,616.22,393.41,616.41Z"/><path class="cls-8" d="M405.66,611.06c0,.45.08.92.1,1.4,0,.23,0,.45,0,.68a21.76,21.76,0,0,1-.6,4.75c-.15.61-.32,1.2-.52,1.79l-.21.61c-1.44,3.92-3.91,7.2-6.77,8.86a7.88,7.88,0,0,1-.7.37c-4.91,2.33-9.35-.89-10.09-7.53a17,17,0,0,1-.1-2.27c0-.23,0-.45,0-.68a21.77,21.77,0,0,1,.57-3.88c1.21-5,4.08-9.28,7.5-11.27a7.88,7.88,0,0,1,.7-.37c4.37-2.08,8.38.26,9.72,5.49,0,.2.1.39.14.6C405.53,610.07,405.6,610.55,405.66,611.06Zm-.32,1.61q0-.69-.09-1.35A11.19,11.19,0,0,0,405,610c0-.2-.09-.39-.14-.59a8.34,8.34,0,0,0-2.44-4.2l-.3-.24a5.45,5.45,0,0,0-1.32-.76l-.32-.12a6.26,6.26,0,0,0-4.43.29l-.28.11-.14.07a7.73,7.73,0,0,0-.69.37,2.61,2.61,0,0,0-.28.17l-.27.17a14.85,14.85,0,0,0-4.1,4.33l-.26.43a18.43,18.43,0,0,0-1.08,2.07c-.08.17-.16.34-.23.52a21.07,21.07,0,0,0-1,3.09,18.91,18.91,0,0,0-.51,3.28l0,.68a17.06,17.06,0,0,0,.06,1.77l0,.31c0,.12,0,.23,0,.34a10.07,10.07,0,0,0,1.89,4.88c.09.12.19.23.28.34a6.24,6.24,0,0,0,.93.86l.34.24a5.61,5.61,0,0,0,4.14.78l.3-.06a7.5,7.5,0,0,0,1.64-.58c.24-.11.48-.24.72-.38a7.94,7.94,0,0,0,.78-.5l.27-.19a15.49,15.49,0,0,0,3.91-4.48l.27-.48a20,20,0,0,0,1.13-2.38c.08-.2.16-.4.23-.6a22.23,22.23,0,0,0,.65-2.15,19.37,19.37,0,0,0,.53-4v-.69"/><path class="cls-8" d="M399.13,617.11a1.93,1.93,0,0,1,.33-1.11c.25-.43,4.32-2.54,5.88-3.33v.69a49.93,49.93,0,0,0-5.72,3.19c-.18.32-.22.45-.21.49s0,.19.29.5a21.77,21.77,0,0,0,4.46,2c-.07.2-.15.4-.23.6a20.29,20.29,0,0,1-4.34-2A1.58,1.58,0,0,1,399.13,617.11Z"/><path class="cls-3" d="M399.16,613.39c.18-.75,2.07-5.34,3.29-8.21a8.34,8.34,0,0,1,2.44,4.2A53.1,53.1,0,0,1,400,613.6h0c-.53.23-.69.12-.74,0A.68.68,0,0,1,399.16,613.39Z"/><path class="cls-8" d="M398.06,615.47A5,5,0,0,1,398,617a3.84,3.84,0,0,1-1.58,2.38l-.15.08c-1.06.5-2-.21-2.15-1.69a4.68,4.68,0,0,1,.12-1.57,3.8,3.8,0,0,1,1.57-2.38l.12-.07C397,613.28,397.89,614,398.06,615.47Zm-.35,1.22a3.13,3.13,0,0,0,.08-1c-.12-1.11-.94-1.63-1.83-1.21l-.13.07a3.33,3.33,0,0,0-1.41,2.08,3.13,3.13,0,0,0-.08,1c.12,1.09.94,1.63,1.82,1.22l.15-.08a3.36,3.36,0,0,0,1.4-2.08"/><path class="cls-3" d="M396,614.44c.89-.42,1.71.1,1.83,1.21a3.13,3.13,0,0,1-.08,1,3.36,3.36,0,0,1-1.4,2.08l-.15.08c-.88.41-1.7-.13-1.82-1.22a3.13,3.13,0,0,1,.08-1,3.33,3.33,0,0,1,1.41-2.08Z"/><path class="cls-8" d="M407.3,610.05a23.41,23.41,0,0,1-.58,8c-1.41,5.84-4.79,10.9-8.81,13.24-.28.16-.55.31-.83.44-5.76,2.74-11-1-11.85-8.84a23.64,23.64,0,0,1,.57-8c1.42-5.83,4.8-10.91,8.82-13.24a9.16,9.16,0,0,1,.82-.43C401.2,598.48,406.43,602.25,407.3,610.05Zm-1,7.43a20.91,20.91,0,0,0,.52-7.14c-.81-7.2-5.77-10.65-11.29-8-.27.13-.55.28-.83.44-3.91,2.26-7.17,7.13-8.53,12.71a20.85,20.85,0,0,0-.52,7.13c.8,7.23,5.78,10.66,11.3,8,.27-.13.55-.27.82-.43,3.9-2.28,7.17-7.14,8.53-12.72"/><path class="cls-3" d="M406.85,610.34c-.81-7.2-5.77-10.65-11.29-8-.27.13-.55.28-.83.44-3.91,2.26-7.17,7.13-8.53,12.71a20.85,20.85,0,0,0-.52,7.13c.8,7.23,5.78,10.66,11.3,8,.27-.13.55-.27.82-.43,3.9-2.28,7.17-7.14,8.53-12.72A20.91,20.91,0,0,0,406.85,610.34Zm-1.08,2.8a21.76,21.76,0,0,1-.6,4.75c-.15.61-.32,1.2-.51,1.79l0,.68-.18-.07c-1.44,3.92-3.91,7.2-6.77,8.86a7.88,7.88,0,0,1-.7.37c-4.91,2.33-9.35-.89-10.09-7.53-.08-.74-.12-1.5-.14-2.27l0-.67h.08a21.77,21.77,0,0,1,.57-3.88c1.21-5,4.08-9.28,7.5-11.27a7.88,7.88,0,0,1,.7-.37c4.37-2.08,8.38.26,9.72,5.49l.12-.11.1.63-.08.08c.1.46.17.94.23,1.45s.08.92.1,1.4l.06.66-.05,0"/><path class="cls-8" d="M405.41,608.9l.1.63-.08.08c0-.21-.09-.4-.14-.6Z"/><path class="cls-8" d="M400,613.6a53.1,53.1,0,0,0,4.92-4.22c.05.2.1.39.14.59a50.55,50.55,0,0,1-5,4.29h0c-.51.22-.79.2-.95-.09a2.07,2.07,0,0,1-.17-.78c0-.2,0-.66,3.27-8.46l.3.24c-1.22,2.87-3.11,7.46-3.29,8.21a.68.68,0,0,0,0,.25c.05.08.21.19.74,0Z"/><path class="cls-8" d="M397.83,619.21l.21-.08c.37-.14,3.66,2.47,4.76,3.36l-.27.48c-1.74-1.38-4.19-3.24-4.45-3.18l-.17.07c-.31.14-.45.38-.48,1.13a55.25,55.25,0,0,0,1.19,6.46l-.27.19a52.81,52.81,0,0,1-1.2-6.71C397.2,619.7,397.53,619.35,397.83,619.21Z"/><path class="cls-3" d="M397.91,619.86l.17-.07c.26-.06,2.71,1.8,4.45,3.18a15.49,15.49,0,0,1-3.91,4.48,55.25,55.25,0,0,1-1.19-6.46C397.46,620.24,397.6,620,397.91,619.86Z"/><path class="cls-3" d="M394.62,613.47a.73.73,0,0,1-.63-.06c-.58-.23-2.83-2.86-3.67-3.84a14.85,14.85,0,0,1,4.1-4.33c.36,3.47.67,7.16.61,7.61A1.05,1.05,0,0,1,394.62,613.47Z"/><path class="cls-3" d="M393.48,619.2a2.17,2.17,0,0,1-.18.76c-.32.9-2.78,4.9-4.08,7a10.07,10.07,0,0,1-1.89-4.88c1.71-1,4-2.27,5.18-2.82a2.83,2.83,0,0,1,.69-.26C393.42,619.09,393.48,619.15,393.48,619.2Z"/><path class="cls-3" d="M392.47,617.68a.4.4,0,0,1-.13.07,32.79,32.79,0,0,1-5.11,1.21,18.91,18.91,0,0,1,.51-3.28,21.07,21.07,0,0,1,1-3.09,43.22,43.22,0,0,1,4.4,4.08.58.58,0,0,1,0,.27C393.12,617.1,393,617.36,392.47,617.68Z"/><path class="cls-8" d="M386.74,619.72l0-.67h.08c0,.23,0,.45,0,.68Z"/></g><path class="cls-3" d="M257.71,501.94l-.09,21.52S255.8,525,256.35,535c0,0-2.68.06-2.9,7.68s-1.59,47-1.59,47-33.16-14.19-84.39-6.41c0,0-12.69,2.16-13.68,8.07s.31,7.43.31,7.43l4.42.82,15.29-.22.12-2.2s13.31.94,20.81,2.62,15.69,3.89,18.09,5.21l.15.73s-24.69,5.38-28,6.16S140.46,623,130.78,626s-41.9,14.55-41.9,14.55l-22.44,9.79s-5.49,4.15-3.24,14A7.3,7.3,0,0,0,64,665c2.28,1.74,9.51,5.83,21.84.63l2.38-4.31s68.08-22,114.52-27.19,43.91-5.39,43.91-5.39,8.07-1.42,9.23,8.19,5.21,77.81,5.21,77.81,1.39,10.88,14.08,10.46,15.76-5.85,15.76-5.85,1.4-1.1,1.72-7.9l3.68-78.53s3.33-2.89,10.35-1.8,34,4.25,34,4.25,33.63,4.44,54.21,9.64,67.48,18.3,67.48,18.3l2.46,4.49s8.35,4.91,14.31,2.42,8.17-2.87,8.17-2.87,3.44-12.05-5.12-15.9-55.77-24.9-106.73-35.13l-38.81-8.65s10.76-7.21,34.59-8.95,19.75-1,19.75-1v2.93l5.11-.79s2.75-8.83-3.17-11.84-17.5-7.46-48.88-5.54-44.47,7.71-44.47,7.71l-1.35-47.13s.92-5.07-2.67-7.42c0,0,.87-9.82-1.27-12.22l-1-17.77Z"/><path class="cls-5" d="M299.73,598.85l-.16-8.62s13.59-7.3,53-8,43,8.32,43,8.32,1.8,1.46.45,9.33c0,0-4.16,1-4.72.78s-.23-2.92-.23-2.92-34.38-.45-54.94,8.88"/><path class="cls-5" d="M251.86,598v-8.3s-14.83-7.88-54.27-8.55-43,8.31-43,8.31-1.8,1.46-.45,9.33c0,0,4.16,1,4.72.79s.22-2.93.22-2.93,34.39-.45,55,8.88"/><path class="cls-5" d="M298.8,600.15S362.57,611.84,409.09,625s74.84,27.3,74.84,27.3,5.95,3.16,3.37,15.06c0,0-11.58,7-22.48.45l-2.46-4.49s-47.87-14.21-79.06-21a528.38,528.38,0,0,0-55.45-8.41q-10.64-1.07-21.18-2.82h-.07a15.61,15.61,0,0,0-8.47,1l-1.81.85,0,1-3.77,80.33a10.66,10.66,0,0,1-8.3,9.9,48.58,48.58,0,0,1-7.29,1c-14.83,1-15.79-9.49-15.79-9.49s-1.35-22.48-2.91-52.37-3.81-31.91-3.81-31.91l-.19-.35-1.68-1.11a15.66,15.66,0,0,0-8.48-1H244q-10.55,1.75-21.18,2.82a527.73,527.73,0,0,0-55.46,8.41c-31.18,6.75-79.05,21-79.05,21l-2.48,4.49c-10.89,6.53-22.46-.45-22.46-.45-2.59-11.9,3.37-15.06,3.37-15.06s28.32-14.16,74.84-27.3S251.87,598,251.87,598l.06.87"/><path class="cls-5" d="M277.77,605.5c15,.38,22-6.65,22-6.65l.07-.88-1.59-55.3a17.85,17.85,0,0,0-.6-4.24,6.71,6.71,0,0,0-1.3-2.75s-.5,7.41-18.54,7.41h-3.88c-18,0-18.54-7.41-18.54-7.41a6.71,6.71,0,0,0-1.3,2.75,17.85,17.85,0,0,0-.6,4.24L251.86,598l.07.88s7,7,22,6.65Z"/><path class="cls-5" d="M274.39,543.09c-15.84.26-18-7-18-7v-7.17s-.17-4.12,1.26-5.47c0,0-.17,6.65,17.7,6.57h1.26c17.87.08,17.7-6.57,17.7-6.57,1.44,1.35,1.27,5.47,1.27,5.47v7.17s-2.19,7.25-18,7Z"/><path class="cls-5" d="M257.71,524V501.94s7.37.7,18.09,2.11,17.43,1.64,17.43,1.64l.66,17.46s-.9,7.3-17.53,6.88S257.71,524,257.71,524Z"/><path class="cls-5" d="M267.43,723.75v3.43a2.64,2.64,0,0,1,1.4,2.25H281.3s.23-2,.9-2.14v-2.75"/><path class="cls-5" d="M267.43,727.18h-7l.68,43.71h7.07s1.35-.9,1.13-4.72l-.45-36.74"/><path class="cls-5" d="M260.61,727.18l-1.09,2.05c-2.28,4.3-1.23,2.15-1.42,18.75v.38c.19,16.6-.4,16.18,1.88,20.48l1.1,2"/><path class="cls-5" d="M282.73,727.18h7l-.67,43.71H282s-1.35-.9-1.12-4.72l.44-36.74"/><path class="cls-5" d="M289.86,727.51l1.09,2c2.28,4.3,1.23,2.15,1.42,18.75v.38c-.19,16.6.4,16.18-1.88,20.48l-1.09,2.05"/><line class="cls-5" x1="269.3" y1="755.72" x2="281.01" y2="755.72"/><path class="cls-6" d="M45.6,689.16c0-10.42,8.85-17.84,19.28-17.84a18.94,18.94,0,0,1,8.26,1.11"/><circle class="cls-5" cx="479.96" cy="695.36" r="16.04"/><circle class="cls-5" cx="66.08" cy="693.06" r="16.04"/><line class="cls-5" x1="158.82" y1="599.55" x2="165.11" y2="599.36"/><path class="cls-4" d="M180.94,612.29s-3.05-11.18-5.15-12.37l-.51,12.67L165.93,615l-.26-2.45a21.8,21.8,0,0,0-3.26-8.17v-4.55a8.06,8.06,0,0,0,7.53,2.86c4.84-.79,5.34-2.86,5.34-2.86L174,598v1.38h-8.88V597"/><line class="cls-5" x1="390.98" y1="600.89" x2="384.38" y2="600.69"/><path class="cls-4" d="M368.13,613.36s2.83-10.83,5-12.08l.53,13.27,9.82,2.56.27-2.56a22.89,22.89,0,0,1,3.42-8.56v-4.77a8.45,8.45,0,0,1-7.9,3c-5.07-.82-5.61-3-5.61-3l1.36-2v1.44h9.32v-2.47"/></g></g><path class="cls-1" d="M53.58,7.25S59,.92,70.83,1,86.49,4.13,86.49,4.13,91.66,9,92.24,18.58s.92,18.92.92,18.92,7.67,68.5,13.42,77.25,22,25.75,26.75,42.75S146.08,216,146.08,216s4.75,27.5,18.5,49.75,32.75,43,32.75,43,19.16,23.25,22,35.92c0,0,.7.57,1.85,1.62a64,64,0,0,1,18.26,29.89c1.3,4.66,2.84,10.56,4.12,16.65v21.42c69-45.67,170.18-27,183.6-18.58a42.48,42.48,0,0,1,17.33,21.83l6.92,10.42c10.08,12.16,16.24,32.77,16.24,32.77l-.07.58-2.73,17.64L183.21,496.84,167.68,452,47.08,123.5,53.51,7.84"/><path class="cls-9" d="M244.08,412.43c.12,1.92-4,18.7-4,18.7s-1.25,1.87-5.63,11.95-26.37,17.61-26.37,17.61c24.5-11.14,27.13-21.19,31.33-47.21,5.17-32.07-21.25-47.22-21.25-47.22"/><path class="cls-10" d="M400,415.6s-29.54-16.81-79.54-10.83-81,21.65-81,21.65"/><path class="cls-1" d="M169.23,472.25a76.9,76.9,0,0,0,37.08-29c7.59-11.34,10.49-21,10.77-26.46.57-11.33,2-28.5-38.75-73.75s-41.25-80.5-44.25-92.75-4-52.75-33.25-82.5S52.08,114,51.08,107s2.5-99.75,2.5-99.75c-3.75,3.5-12,31.25-12,31.25l2,56.75-1,28.67s9.66,62,26.66,115,34,124.33,34,124.33l11.34,42.67,22.66,78.33Z"/><path class="cls-1" d="M213.08,482.5l53-21.25S295.19,451.12,350,444.5c61-7.37,101.93-2.32,102.13-1.25,0,0,19,7.75,20.25,39.25V502s-5.25,14.25-39,15.75S342.7,524,342.7,524l-81.12,4.25-7-1.5Z"/><path class="cls-1" d="M117.08,461.5s-6.75,3-6-3.75,8-26.25,7.5-30.75-10.25-50.75-10.25-50.75-4.7-21.25,10.27-23.5c0,0,19.23-7.5,25.48,18.75s11,49.25,11,49.25l3.25,13.5v17.5l16.25,10.42,17,10.08h1.75l19.75,10.25,42.75,20.75s10.75,23.75-7.75,29.25H164.33s-4.25,5.75-31.5-19.25c0,0-24.5-12.25-15-42.75Z"/><path class="cls-5" d="M137.2,515.63s20.13,6.75,32.63-5.75l20.62,9h3.63l7.5-10.88s1-3.75-4.13-6.62-16.62-11-16.62-11A28,28,0,0,0,176,467.25a50.23,50.23,0,0,0-13.46-12c-13.5-8.4-30-.41-30.36-.22-10,5.12-11.18,8.87-14.3,15.49"/><polyline class="cls-5" points="180.83 490.38 178.83 492 150.83 475.25 140.7 492 169.83 509.88"/><path class="cls-1" d="M208.08,490.13h15.25l7.75,1.87h7.12l1.63-1.87,23.25-2h9.62l6.25,6.12s1.25,4.63-5.62,4.75-9,1.38-9,1.38a18.6,18.6,0,0,1-4.63,0c-1.25-.38-4.87,1.5-4.87,1.5s-5.38-1.13-7-.63-3.75,1.25-3.75,1.25h-4.63l-.75-.87-9.25.12-7-.62s-.62,3.25-2.25,3.25-4-1.75-5.5-1.75h-1.5"/><path class="cls-5" d="M253.83,523s-12.88-7.37-25-9.5-15.88-6-17.5-12.25c-1-3.8-2.53-9.26-3.59-13a52.07,52.07,0,0,1-1.43-6.53c-.23-1.46-.62-3.09-1.27-3.43"/><path class="cls-5" d="M239.41,432.58l24.67-2,81-7.9s69.83-9.26,81.16-10.1,11.92,1.92,11.92,1.92,12.42,13.88,13.92,28.75"/><polyline class="cls-10" points="355.96 421.25 393.99 429.67 379.24 440.67"/><polyline class="cls-10" points="375.88 425.66 354.31 442.63 344.08 439.17"/><line class="cls-10" x1="344.08" y1="432.58" x2="359.57" y2="422.05"/><line class="cls-10" x1="381.79" y1="438.76" x2="344.66" y2="427.32"/><line class="cls-10" x1="282.44" y1="428.79" x2="218.04" y2="472.28"/><line class="cls-10" x1="237.2" y1="439.5" x2="277.7" y2="455.75"/><polyline class="cls-10" points="250.56 431.68 296.45 448.81 293.33 451.4"/><path class="cls-10" d="M275.7,429.45l19,5.68s-37.25,26.37-38,27.37l-28-12.6"/><line class="cls-11" x1="233.15" y1="445.1" x2="255.33" y2="431.68"/><path class="cls-9" d="M114.49,185.35S135.75,197.82,138,211.5c4,24.88,23.29,78.42,28.29,84.42s40.34,51.08,49.21,65.83S235,393.44,231.7,418.58c-3.62,27.4-38.37,53.67-38.37,53.67s17.41-8.5,22.12-13l15.25,10.5"/><path class="cls-9" d="M52.77,111.3s29.31-6.3,38.31,1.2S120.33,153,120.33,153s16.81,30.29,18.15,61.52"/><path class="cls-9" d="M90.66,111.17s-11-74.31-10.37-94.83c0-.78,0-1.56,0-2.34,0-3.57-.09-12.32.44-12.25"/><path class="cls-1" d="M284.58,381.92l-3.84-39.5-23.16-1.67H237.41a14.3,14.3,0,0,1-2.94-7.17c-.15-2.62.92-5.45,4.94-7.5,9.83-5,44.83-10.83,63-11.5s47.5,0,60,5.5,7,15.17,7,15.17-4.33,5.5-21.5,3.83l-23,2.5-2.33,35.5S288.58,380.92,284.58,381.92Z"/><path class="cls-5" d="M235.21,333.92s8.2.5,22.2-1.67,66.17-4.33,82.17-1.5,29.16.07,31-1.3"/><path class="cls-5" d="M282.44,342.25s32,.88,40-.62"/><path class="cls-1" d="M307.49,514.92l-2.75,1.66s-1.33,27.25-.66,29a38.37,38.37,0,0,1,1.25,4.75s9.75,3.17,18.83,2.34,19.08-2.75,20.08-3.75.5-27.34-2.25-34l-2.66-1.39-.35-4.12s2.53-.94,2.6-1.35,4.25-98.18,4.25-98.18L375,406.5s27.85-.12,25-12.87S375.88,379,375.88,379s-34.3-2-53.3-1.92-57.88,9.05-57.88,9.05-20.37,5.62-24,9-6.75,14.35,4.75,17.3c0,0,12.88,1.05,20.38,0h26.5l12.5,97.95,2.75.87Z"/><path class="cls-5" d="M238.58,404s16.37,3.25,40.12-3.62,76.63-7,82.5-6.13,27.08,2,31.13,1.63a18.82,18.82,0,0,0,7.62-2.25"/><path class="cls-12" d="M308.49,516.17s18.59,3.25,29.34-1"/><path class="cls-12" d="M308.49,511.35s18.59,3.25,29.34-1"/><path class="cls-12" d="M294.2,412.54s40.35-.53,49.88-2.16"/><path class="cls-9" d="M219.33,344.67s-10.61-7.45-20.35-6.39"/><line class="cls-10" x1="220.63" y1="455.13" x2="215.45" y2="459.25"/><path class="cls-10" d="M199.89,474.44s32.72-3.06,44.35-7.69a390.23,390.23,0,0,1,38.2-12.5c7.26-1.75,12.71-2.45,14.86-2.85"/></g><g id="Frontal"><line class="cls-13" x1="21.29" y1="528.94" x2="21.29" y2="5.68"/><line class="cls-14" x1="14.21" y1="533.07" x2="150.33" y2="533.07"/><line class="cls-13" x1="14.21" y1="1.75" x2="51.3" y2="1.75"/><polygon class="cls-15" points="21.29 1.76 28.37 15.34 14.21 15.34 21.29 1.76"/><polygon class="cls-15" points="21.29 532.54 14.21 518.96 28.37 518.96 21.29 532.54"/><line class="cls-16" x1="163.45" y1="579.02" x2="464.91" y2="579.02"/><line class="cls-17" x1="472.62" y1="502.97" x2="472.62" y2="586.1"/><line class="cls-18" x1="158.48" y1="535.97" x2="158.48" y2="586.1"/><polygon class="cls-15" points="471.84 579.02 457.99 586.1 457.99 571.95 471.84 579.02"/><polygon class="cls-15" points="158.48 579.02 172.33 586.1 172.33 571.95 158.48 579.02"/><polygon class="cls-15" points="500.13 768.97 493.05 754.8 507.21 754.8 500.13 768.97"/><line class="cls-19" x1="500.13" y1="767.08" x2="500.13" y2="440.57"/><line class="cls-20" x1="452.08" y1="438.35" x2="505.17" y2="438.35"/><line class="cls-21" x1="292.52" y1="769.61" x2="507.21" y2="769.61"/><polygon class="cls-15" points="500.13 438.4 507.21 452.57 493.05 452.57 500.13 438.4"/><line class="cls-22" x1="563.41" y1="767.43" x2="563.41" y2="382.7"/><rect class="cls-23" x="525.62" y="543.68" width="70.64" height="18.26"/><text></text><line class="cls-24" x1="377.56" y1="377.08" x2="570.49" y2="377.08"/><line class="cls-25" x1="284.87" y1="769.88" x2="570.49" y2="769.88"/><polygon class="cls-15" points="563.41 377.08 570.49 390.65 556.33 390.65 563.41 377.08"/><polygon class="cls-15" points="563.41 769.79 556.33 756.22 570.49 756.22 563.41 769.79"/><path class="cls-15" d="M534.72,547.24v1.15h-.23a3.13,3.13,0,0,0-2.3.94,4.12,4.12,0,0,0-1,2.56,2.52,2.52,0,0,1,2.1-1,2.45,2.45,0,0,1,2,1,4.08,4.08,0,0,1,.76,2.54,4,4,0,0,1-.82,2.63,2.85,2.85,0,0,1-4.46-.18,5,5,0,0,1-.87-3v-.52a7.55,7.55,0,0,1,1.14-4.5,4.09,4.09,0,0,1,3.42-1.6Zm-1.63,4.81a1.87,1.87,0,0,0-1.17.42,2.2,2.2,0,0,0-.74,1v.5a3.78,3.78,0,0,0,.54,2.13,1.6,1.6,0,0,0,1.35.8,1.53,1.53,0,0,0,1.32-.67,3.54,3.54,0,0,0,0-3.54A1.51,1.51,0,0,0,533.09,552.05Z"/><path class="cls-15" d="M538.12,552.57l.5-5.32h5v1.25h-3.93l-.3,2.91A2.93,2.93,0,0,1,541,551a2.58,2.58,0,0,1,2.11,1,4,4,0,0,1,.78,2.61,3.84,3.84,0,0,1-.81,2.59,2.81,2.81,0,0,1-2.27.95,2.94,2.94,0,0,1-2.11-.78,3.3,3.3,0,0,1-.93-2.17h1.17a2.27,2.27,0,0,0,.6,1.38,1.75,1.75,0,0,0,1.27.47,1.61,1.61,0,0,0,1.35-.65,2.85,2.85,0,0,0,.49-1.78,2.62,2.62,0,0,0-.53-1.72,1.72,1.72,0,0,0-1.41-.64,2,2,0,0,0-1.27.38l-.33.3Z"/><path class="cls-15" d="M553.22,557.92a3.07,3.07,0,0,1-.17-.84,2.64,2.64,0,0,1-2.06,1,2.41,2.41,0,0,1-1.75-.66,2.22,2.22,0,0,1-.69-1.68,2.31,2.31,0,0,1,.86-1.92,3.77,3.77,0,0,1,2.42-.69H553v-.62a1.6,1.6,0,0,0-.39-1.13,1.48,1.48,0,0,0-1.14-.42,1.72,1.72,0,0,0-1.11.36,1.12,1.12,0,0,0-.45.89H548.7a2,2,0,0,1,.38-1.15,2.69,2.69,0,0,1,1-.87,3.22,3.22,0,0,1,1.45-.33,2.68,2.68,0,0,1,2,.69,2.62,2.62,0,0,1,.74,1.89v3.64a4.86,4.86,0,0,0,.25,1.74v.12Zm-2.05-1a2,2,0,0,0,1.1-.33,1.94,1.94,0,0,0,.76-.85v-1.63h-1c-1.52,0-2.27.49-2.27,1.46a1.3,1.3,0,0,0,.38,1A1.43,1.43,0,0,0,551.17,556.88Z"/><path class="cls-15" d="M565.75,548l-4,9.91h-1.3l4-9.55h-5.27v-1.12h6.58Z"/><path class="cls-15" d="M572.38,554.33h1.35v1.11h-1.35v2.48h-1.25v-2.48H566.7v-.8l4.36-7.39h1.32Zm-4.27,0h3v-5.22l-.14.29Z"/><path class="cls-15" d="M577.87,557a1.69,1.69,0,0,0,1.16-.44,1.63,1.63,0,0,0,.55-1.1h1.17a2.61,2.61,0,0,1-.43,1.29,2.85,2.85,0,0,1-1.05,1,3,3,0,0,1-3.75-.72,4.57,4.57,0,0,1-.87-3v-.23a5.15,5.15,0,0,1,.39-2.06,3.19,3.19,0,0,1,1.11-1.4,3,3,0,0,1,1.72-.5,2.77,2.77,0,0,1,2,.8,3,3,0,0,1,.86,2.08h-1.17a2,2,0,0,0-.53-1.27,1.59,1.59,0,0,0-1.18-.49,1.68,1.68,0,0,0-1.46.74,3.71,3.71,0,0,0-.52,2.15v.26a3.72,3.72,0,0,0,.51,2.11A1.71,1.71,0,0,0,577.87,557Z"/><path class="cls-15" d="M583.3,550l0,.88a2.58,2.58,0,0,1,2.14-1,2.06,2.06,0,0,1,2.07,1.28,2.76,2.76,0,0,1,.94-.92,2.51,2.51,0,0,1,1.36-.36c1.59,0,2.4.93,2.42,2.77v5.31H591v-5.23a1.91,1.91,0,0,0-.36-1.27,1.44,1.44,0,0,0-1.19-.43,1.51,1.51,0,0,0-1.14.46,1.91,1.91,0,0,0-.53,1.21v5.26h-1.24v-5.2c0-1.15-.52-1.73-1.55-1.73a1.65,1.65,0,0,0-1.66,1.14v5.79h-1.24V550Z"/><rect class="cls-23" x="295.52" y="567.02" width="40.77" height="18"/><path class="cls-15" d="M297.91,576.63l.54-5.31h5.46v1.25H299.6l-.32,2.91a3.4,3.4,0,0,1,1.78-.46,2.94,2.94,0,0,1,2.31,1,3.78,3.78,0,0,1,.86,2.6,3.66,3.66,0,0,1-.89,2.6,3.26,3.26,0,0,1-2.49,1,3.36,3.36,0,0,1-2.31-.79,3.11,3.11,0,0,1-1-2.16h1.28a2.14,2.14,0,0,0,.65,1.38,2,2,0,0,0,1.39.46,1.82,1.82,0,0,0,1.48-.64,2.7,2.7,0,0,0,.54-1.78,2.45,2.45,0,0,0-.58-1.72,2,2,0,0,0-1.55-.65,2.23,2.23,0,0,0-1.39.39l-.36.29Z"/><path class="cls-15" d="M312.39,577.43a6.21,6.21,0,0,1-.81,3.54,2.89,2.89,0,0,1-2.54,1.16,2.93,2.93,0,0,1-2.53-1.13,6,6,0,0,1-.85-3.38v-1.81a6,6,0,0,1,.82-3.5,2.91,2.91,0,0,1,2.55-1.14,3,3,0,0,1,2.53,1.1,5.84,5.84,0,0,1,.83,3.4ZM311,575.58a4.89,4.89,0,0,0-.49-2.51,1.86,1.86,0,0,0-3,0,4.8,4.8,0,0,0-.49,2.41v2.17a5.09,5.09,0,0,0,.5,2.55,1.82,1.82,0,0,0,3,0,4.89,4.89,0,0,0,.51-2.45Z"/><path class="cls-15" d="M317.45,581a1.9,1.9,0,0,0,1.26-.44,1.53,1.53,0,0,0,.61-1.1h1.28a2.48,2.48,0,0,1-.47,1.3,3,3,0,0,1-1.16,1,3.51,3.51,0,0,1-4.1-.71,4.35,4.35,0,0,1-.95-3v-.22a4.8,4.8,0,0,1,.42-2.06,3.27,3.27,0,0,1,1.22-1.4,3.49,3.49,0,0,1,1.88-.5,3.2,3.2,0,0,1,2.22.8,2.88,2.88,0,0,1,.94,2.07h-1.28a1.87,1.87,0,0,0-.59-1.26,1.81,1.81,0,0,0-1.29-.5,1.89,1.89,0,0,0-1.6.75,3.47,3.47,0,0,0-.57,2.15v.25a3.38,3.38,0,0,0,.57,2.11A1.88,1.88,0,0,0,317.45,581Z"/><path class="cls-15" d="M323.39,574.06l0,.88a2.92,2.92,0,0,1,2.35-1,2.29,2.29,0,0,1,2.27,1.27,3,3,0,0,1,1-.92,3.13,3.13,0,0,1,1.5-.35c1.74,0,2.63.92,2.65,2.76V582h-1.35v-5.23a1.82,1.82,0,0,0-.39-1.27,1.71,1.71,0,0,0-1.3-.42,1.76,1.76,0,0,0-1.83,1.66V582H327v-5.19a1.51,1.51,0,0,0-1.69-1.73,1.8,1.8,0,0,0-1.82,1.14V582h-1.36v-7.92Z"/><rect class="cls-23" y="235.05" width="48.75" height="16.5"/><path class="cls-15" d="M11.6,241.36a2.49,2.49,0,0,1-.42,1.42,2.85,2.85,0,0,1-1.14,1,3,3,0,0,1,1.32,1.05,2.61,2.61,0,0,1,.49,1.56,2.75,2.75,0,0,1-.94,2.2,3.56,3.56,0,0,1-2.45.82A3.58,3.58,0,0,1,6,248.56a2.78,2.78,0,0,1-.92-2.2,2.66,2.66,0,0,1,.47-1.56,2.86,2.86,0,0,1,1.31-1.05,2.84,2.84,0,0,1-1.13-1,2.53,2.53,0,0,1-.41-1.41,2.75,2.75,0,0,1,.87-2.14,3.21,3.21,0,0,1,2.28-.79,3.24,3.24,0,0,1,2.27.79A2.75,2.75,0,0,1,11.6,241.36Zm-1.11,5a2,2,0,0,0-.57-1.46,2,2,0,0,0-1.48-.56,1.91,1.91,0,0,0-2,2A1.89,1.89,0,0,0,7,247.76a2.06,2.06,0,0,0,1.5.52,2.05,2.05,0,0,0,1.49-.53A1.87,1.87,0,0,0,10.49,246.33Zm-2-6.79a1.76,1.76,0,0,0-1.3.5,1.8,1.8,0,0,0-.49,1.34,1.77,1.77,0,0,0,.49,1.31,1.71,1.71,0,0,0,1.3.51,1.72,1.72,0,0,0,1.3-.51,2,2,0,0,0,0-2.64A1.74,1.74,0,0,0,8.46,239.54Z"/><path class="cls-15" d="M20.24,244.69a6.21,6.21,0,0,1-.81,3.54,2.89,2.89,0,0,1-2.54,1.15,2.9,2.9,0,0,1-2.53-1.13,5.85,5.85,0,0,1-.85-3.38v-1.81a6.08,6.08,0,0,1,.81-3.49,2.92,2.92,0,0,1,2.55-1.14,2.94,2.94,0,0,1,2.54,1.1,5.82,5.82,0,0,1,.83,3.4Zm-1.35-1.85a5,5,0,0,0-.49-2.51,1.65,1.65,0,0,0-1.53-.79,1.63,1.63,0,0,0-1.51.78,4.85,4.85,0,0,0-.49,2.41v2.17a5,5,0,0,0,.5,2.56,1.67,1.67,0,0,0,1.52.82,1.64,1.64,0,0,0,1.49-.78,4.93,4.93,0,0,0,.51-2.44Z"/><path class="cls-15" d="M29,248.28a2,2,0,0,0,1.26-.44,1.53,1.53,0,0,0,.61-1.1h1.28a2.48,2.48,0,0,1-.47,1.3,3.15,3.15,0,0,1-1.15,1,3.44,3.44,0,0,1-1.53.36,3.28,3.28,0,0,1-2.58-1.08,4.32,4.32,0,0,1-.95-3v-.23a4.83,4.83,0,0,1,.42-2.06,3.25,3.25,0,0,1,1.22-1.39,3.41,3.41,0,0,1,1.88-.5,3.19,3.19,0,0,1,2.22.79,2.92,2.92,0,0,1,.94,2.08H30.88a1.9,1.9,0,0,0-.59-1.27,1.85,1.85,0,0,0-1.29-.49,1.91,1.91,0,0,0-1.6.74,3.51,3.51,0,0,0-.57,2.15v.26a3.4,3.4,0,0,0,.57,2.11A1.9,1.9,0,0,0,29,248.28Z"/><path class="cls-15" d="M35,241.31l0,.88a2.94,2.94,0,0,1,2.35-1,2.27,2.27,0,0,1,2.27,1.27,2.92,2.92,0,0,1,1-.92,3,3,0,0,1,1.5-.35c1.74,0,2.62.92,2.65,2.76v5.31H43.43V244a1.8,1.8,0,0,0-.39-1.27,1.71,1.71,0,0,0-1.3-.42A1.76,1.76,0,0,0,39.91,244v5.26H38.54V244a1.5,1.5,0,0,0-1.69-1.72A1.81,1.81,0,0,0,35,243.45v5.79H33.67v-7.93Z"/></g></g></svg>