<?xml version="1.0" encoding="utf-8"?>
<!-- Generator: Adobe Illustrator 23.0.1, SVG Export Plug-In . SVG Version: 6.00 Build 0)  -->
<svg version="1.1" id="Camada_1" xmlns="http://www.w3.org/2000/svg" xmlns:xlink="http://www.w3.org/1999/xlink" x="0px" y="0px"
	 viewBox="0 0 600 600" style="enable-background:new 0 0 600 600;" xml:space="preserve">
<style type="text/css">
	.st0{fill:#FFFFFF;stroke:#030304;stroke-width:0.8328;stroke-miterlimit:10;}
	.st1{fill:none;stroke:#030304;stroke-width:0.8328;stroke-miterlimit:10;}
	.st2{fill:none;stroke:#030304;stroke-width:0.4164;stroke-miterlimit:10;}
	.st3{fill:none;stroke:#020203;stroke-miterlimit:10;}
	.st4{fill:#FFFFFF;stroke:#020203;stroke-miterlimit:10;}
	.st5{fill:none;stroke:#020203;stroke-width:0.75;stroke-miterlimit:10;}
	.st6{fill:none;stroke:#020203;stroke-width:0.5;stroke-miterlimit:10;}
	.st7{fill:none;stroke:#020203;stroke-width:0.25;stroke-miterlimit:10;}
	.st8{fill:#FFFFFF;stroke:#020203;stroke-width:0.75;stroke-miterlimit:10;}
	.st9{fill:#FFFFFF;}
	.st10{fill:none;stroke:#E52522;stroke-width:1.5;stroke-miterlimit:10;}
	.st11{fill:#E52522;}
	.st12{fill:#FFFFFF;stroke:#020203;stroke-width:0.5;stroke-miterlimit:10;}
	.st13{fill:#E7E6E6;}
	.st14{fill:#E52622;}
	.st15{font-family:'Roboto-Medium';}
	.st16{font-size:13.5172px;}
	.st17{fill:#FFFFFF;stroke:#020203;stroke-linejoin:round;}
	.st18{fill:none;stroke:#020203;stroke-linejoin:round;}
	.st19{fill:none;stroke:#E52624;stroke-width:1.5;stroke-miterlimit:10;}
	.st20{fill:#E52624;}
	.st21{clip-path:url(#SVGID_2_);}
	.st22{fill:none;stroke:#020203;stroke-width:0.5461;stroke-miterlimit:10;}
	.st23{fill:none;stroke:#E52624;stroke-width:1.5296;stroke-miterlimit:10;}
	.st24{fill:none;stroke:#E52624;stroke-width:1.8398;stroke-miterlimit:10;}
	.st25{fill:none;stroke:#E52624;stroke-width:1.4398;stroke-miterlimit:10;}
	.st26{fill:none;stroke:#E52624;stroke-width:1.5364;stroke-miterlimit:10;}
	.st27{fill:none;stroke:#E52624;stroke-width:1.4292;stroke-miterlimit:10;}
	.st28{fill:none;stroke:#E52624;stroke-width:1.5549;stroke-miterlimit:10;}
	.st29{clip-path:url(#SVGID_4_);}
</style>
<g>
	<g>
		<polygon class="st8" points="263,439.3 263,436.4 274.7,435.8 274.7,440 274.7,444.4 263.5,443 		"/>
		<g>
			<path class="st4" d="M284.2,469l39.3-5.5c0,0,0.9-1.3,2-1.5s15.2-2,15.2-2h5c0,0,1.4,0.4,2,1.8l1,1.8l1.3,2.6l0.7,10.5
				c0,0-3.3,1.5-10.4,1c0,0-4.3-0.5-5.1-1.7l-18.9,5.3l55.7,12.2l1.2-0.7l33.9,7.5l0.4,1.1c0,0,1.4,0.1,2.2,1.7l1,15.5l-6.3,1.9
				l-8.1-1.2c0,0-2.4-0.5-3.2-2.4v-3.8l-95.5-15c0,0-15.9-1.5-18.1,3.9l-3,46.4l-8.7,1.7l-10-1.8l0.6-46.4c0,0,1-5.3-16.6-4.5
				L144.4,510v3.3c0,0,0.1,1.9-3.2,2.8c-3.3,0.9-8.5,1.2-8.5,1.2l-6-2.3l1.2-14.1c0,0,0-2.4,2.2-2.9l0.9-1.2l34.4-6.6l0.9,0.9
				l56.9-11l-17.5-5.6c0,0-1.3,2.2-10.2,1.5c0,0-4.6-0.5-5.3-1.5l0.7-9.8l3.2-6.3c0,0,1-1.1,3.4-0.9l16.3,2.5c0,0,2.7,0.7,4.2,2.1
				l36.7,6.6"/>
			<path class="st4" d="M275,439.3c3.7-0.1,6.1,1.6,6.1,1.6l0.3,3.9c0.6,0.2,0.9,0.9,0.9,0.9l0.2,2.7c0.8,0.5,1.1,1.1,1.1,1.1
				l0.6,22.6c0.9,1.4,0.5,2.2,0.5,2.2c-2.7,3.7-14.8,3.7-14.8,3.7c-14.7-0.1-15.7-3.7-15.9-4.8c-0.2-1.1,0.8-1.5,0.8-1.5v-3
				c0,0,0.5-18.3,0.5-19.2c0.1-0.9,1.1-1.1,1.1-1.1l0.3-3c0-0.5,0.9-0.6,0.9-0.6l0.3-3.8c0.4-1.1,5-1.8,5-1.8v1c4.1,1,8.1,1,12,0
				V439.3z"/>
			<path class="st3" d="M257.1,445.5c0,0,14.1,5.9,24.7,0"/>
			<path class="st3" d="M255.9,449c0,0,0.8,4.4,14.5,4.2c13.7-0.2,12.7-4.6,12.7-4.6"/>
			<path class="st3" d="M192.1,462.4c0,0-0.1,0.8,0.4,1c0.6,0.2,14.5,3.5,14.5,3.5s0.9,0.1,1.4-0.4c0.4-0.5,2-3.7,2-3.7
				s0.9-1.6,1.9-1.2c0,0,3.7,0.4,5.2,0.5"/>
			<path class="st3" d="M323.6,463.7c0,0,0.9,0.1,1.9-0.2c1-0.3,3.3-1.1,4.5,0.4c1.2,1.5,1.3,2.9,1.3,2.9s0.2,2,2.1,1.7
				c1.9-0.3,14.9-2.6,14.9-2.6s1-0.4,0.9-1.2"/>
			<path class="st3" d="M407.6,501.7c0,0-1.8,0.1-3.3,3.5c0,0-0.8,2-2.8,1.7l-32.1-6.7c0,0-1.4-0.1-1.2-1.7c0,0,0.4-2.3,1-2.6
				c0.7-0.3,2.7-2.3,2.7-2.3"/>
			<path class="st3" d="M259.8,533.3l3.4-2.2c0,0,0.6-0.7,2-0.6c1.4,0.1,3.5,0.1,3.5,0.1s1.3-0.2,2.6,0.7c1.3,0.9,3.4,2.5,3.4,2.5
				l1.4-15l-0.4-1.5c0,0-1.5-2.7-4-3.2l-6.6-0.2c0,0-1.7-0.1-3.2,1.2c-1.5,1.2-2.3,2.2-2.3,2.2l-0.2,16.2L259.8,533.3z"/>
			<path class="st3" d="M130,497.9c0,0,1.9,0.9,3.3,4.2c0,0,0.8,2,3.3,1.5c2.6-0.5,31.7-5.1,31.7-5.1s1.2-0.5,1.1-1.5
				c-0.2-1-0.4-2.6-0.4-2.6l-1.8-2.3L166,491"/>
			<polyline class="st3" points="128.4,498.8 133.5,505 133,517.2 			"/>
			<path class="st6" d="M133.8,505l104-16.3c0,0,14.3-2,21.3,3.6l-1,43.7"/>
			<line class="st6" x1="273.6" y1="477.8" x2="272.1" y2="514.1"/>
			<line class="st6" x1="264.6" y1="477.8" x2="264.6" y2="513.9"/>
			<polyline class="st3" points="409.1,502.4 403.5,509.2 403.7,520.1 			"/>
			<path class="st6" d="M403,509.2l-106-20.5c0,0-14.8-3-18.2,3.3l-3.5,41.8"/>
			<line class="st6" x1="368.2" y1="496" x2="282.2" y2="476.2"/>
			<line class="st3" x1="316.3" y1="481.3" x2="284.4" y2="474"/>
			<line class="st6" x1="284.4" y1="472" x2="330.2" y2="464.2"/>
			<line class="st6" x1="298.9" y1="477.1" x2="349.3" y2="466.4"/>
			<path class="st3" d="M335.4,476l9.4-2.7c0,0,1.6-0.7,2.4,0.4"/>
			<line class="st3" x1="223" y1="479.9" x2="253.7" y2="473.6"/>
			<line class="st6" x1="238.6" y1="476.4" x2="191.1" y2="464.5"/>
			<path class="st3" d="M205.4,474.4l-9.7-3.2c0,0-1.9-0.5-2.4,0.1"/>
			<polyline class="st3" points="261.3,549.2 261.3,555.4 262.1,556.1 262.3,583.7 271.7,583.7 271.7,555.8 272.8,555.3 
				272.9,549.2 			"/>
			<path class="st3" d="M261.5,550c0,0,6.3,3.6,11.2,0"/>
			<path class="st3" d="M272.8,555.3l5.1,0.1c0,0,1.9-0.1,1.9,1.6c0,1.7,0.1,34,0.1,34s-0.1,1.5-1,1.5s-6,0.1-6,0.1s-1.4-1-1.3-4.6
				c0.1-3.6,0-4,0-4"/>
			<path class="st3" d="M261.3,555.4h-5.4c0,0-1.7-0.4-1.7,1.8c0,2.2-0.1,33.9-0.1,33.9s0,1.5,1.9,1.5c1.9,0,5.4,0,5.4,0
				s0.7-0.1,0.9-0.7c0.2-0.6,0.1-8.3,0.1-8.3"/>
			<path class="st3" d="M391.3,545.5c0,0-2.7-10.7,6-15.9c8.7-5.1,18.7,2.4,20.8,6.6c2.1,4.2,7.6,16.1-3.5,22.4
				C403.4,565.1,392.2,551.6,391.3,545.5z"/>
			<path class="st3" d="M396.2,519.5c0,0,0.4,2,4.8,2.2c4.4,0.2,5.2-0.1,5.8-1.7"/>
			<line class="st3" x1="396.2" y1="520" x2="396.2" y2="530.7"/>
			<path class="st3" d="M407.1,520v4.5c0,0-8.1,0.5-10.8,5.4"/>
			<path class="st3" d="M407.3,523c0,0,3.4-1.8,8-0.3c4.6,1.5,8.5,3.6,12.1,11.3c3.6,7.8-0.7,14.1-0.7,14.1s-3.2,4.8-8.3,7.4"/>
			<path class="st3" d="M399.2,526.9c0,0,10.8-3.5,17.9,3.9s6.1,13.9,6.1,13.9s0,5.7-3.4,9.7"/>
			<path class="st3" d="M407.4,523.9c0,0,7.9-1.1,13.5,4.8c5.6,5.9,5.8,12.5,5.8,12.5s0.6,6.8-5.4,12.2"/>
			<line class="st3" x1="422.9" y1="548.3" x2="425.7" y2="546.7"/>
			<path class="st3" d="M394,544c0,0-1.1-10.7,8.4-12.1c9.5-1.4,14,9.2,14,9.2s4.4,12.1-5.8,15.2C399.6,559.7,394.1,547.5,394,544z"
				/>
			<path class="st3" d="M399.7,543.5c0,0-0.1,5.4,5.8,6.8c5.8,1.5,5.1-6.8,5.1-6.8s-1.3-4.7-6-5
				C399.8,538.4,399.7,543.5,399.7,543.5z"/>
			<path class="st3" d="M402.8,538.8c0,0,1.2-1,1.8-1c0.6,0.1,3.8-0.7,6.1,2.9c3,4.7-1.7,9.1-1.7,9.1"/>
			<polyline class="st6" points="396.4,535.6 397.4,535.9 401.7,538.8 402.4,538.4 399.8,534.4 398.1,533.5 			"/>
			<path class="st6" d="M399.8,532.7l1,0.8l2.3,3.6c0,0,1.1,0.2,1.1-0.5c0,0,0,0,0,0l-0.8-3.3l-0.8-1.2"/>
			<path class="st6" d="M404,531.8l0.6,1.1l0.9,3.6c0,0,0.7,0.8,1.2,0.2l0.6-3.2l-0.2-1.1"/>
			<path class="st6" d="M408.6,533l0.1,0.8l-0.5,3.5c0,0,0.5,0.7,1,0.6l1.7-2.6l0.3-0.9"/>
			<path class="st6" d="M412.3,535.6l-0.2,0.8l-1.6,2.3c0,0,0,1.1,1,1.1l2.8-1.9"/>
			<path class="st6" d="M415.3,539.5l-2.9,1.5c0,0-0.9,1.3,0.4,1.5l3.7-0.9"/>
			<path class="st6" d="M416.9,544l-3.5-0.2c0,0-1.5,0.5-0.3,1.4l4.1,1.7"/>
			<path class="st6" d="M416.3,551.4l-1-1.3l-3-2.5c0,0-0.6-1.4,0.6-1.2c1.2,0.2,4.1,2.3,4.1,2.3"/>
			<path class="st6" d="M413,555.2l-0.1-1.5c0,0-0.1-0.9-0.5-1.5c-0.4-0.6-1.4-2.1-1.4-2.1s-0.6-2,1.2-1.2l2.4,2.8l0.8,1.4"/>
			<path class="st6" d="M408.7,556.6l0.4-1.5c0,0,0.3-1.1-0.1-2l-0.6-2.1c0,0,0.3-1.3,1.4-0.5l1.1,2.2c0,0,0.5,0.8,0.5,1.5l0.1,1.5"
				/>
			<path class="st6" d="M404.1,556.4l0.8-1.2c0,0,0.6-0.8,0.5-1.7l0.4-2.8"/>
			<polyline class="st6" points="407,550.7 407.9,554.3 407.2,556.7 			"/>
			<polyline class="st6" points="399.8,554.1 400.9,553.1 403.1,549.7 			"/>
			<polyline class="st6" points="404.4,550.3 403.7,554.2 402,555.5 			"/>
			<polyline class="st6" points="396.7,550.4 398,549.3 400.8,547.5 			"/>
			<polyline class="st6" points="402,548.8 400,551.5 399,553 			"/>
			<path class="st6" d="M395.8,548.8l1-0.8c0,0,0.7-0.5,1.4-0.7s1.9-1,1.9-1"/>
			<polyline class="st6" points="399.8,544.9 397.4,545.1 394.7,546 			"/>
			<polyline class="st6" points="394.2,544.1 396.7,543.5 399.5,543.4 			"/>
			<polyline class="st6" points="399.8,542.3 395.9,541.1 394.2,541 			"/>
			<polyline class="st6" points="394.5,539.2 396.3,539.5 400.1,540.8 			"/>
			<polyline class="st6" points="400.6,539.9 397.5,537.4 395.6,537 			"/>
			<path class="st3" d="M146.6,542.5c0,0,2.7-10.7-6-15.9c-8.7-5.1-18.7,2.4-20.8,6.6c-2.1,4.2-7.6,16.1,3.5,22.4
				C134.5,562.1,145.7,548.6,146.6,542.5z"/>
			<path class="st3" d="M141.7,516.5c0,0-0.4,2-4.8,2.2s-5.2-0.1-5.8-1.7"/>
			<line class="st3" x1="141.7" y1="517" x2="141.7" y2="527.7"/>
			<path class="st3" d="M130.7,517v4.5c0,0,8.1,0.5,10.8,5.4"/>
			<path class="st3" d="M130.5,520c0,0-3.4-1.8-8-0.3c-4.6,1.5-8.5,3.6-12.1,11.3c-3.6,7.8,0.7,14.1,0.7,14.1s3.2,4.8,8.3,7.4"/>
			<path class="st3" d="M138.6,523.9c0,0-10.8-3.5-17.9,3.9s-6.1,13.9-6.1,13.9s0,5.7,3.4,9.7"/>
			<path class="st3" d="M130.4,520.9c0,0-7.9-1.1-13.5,4.8c-5.6,5.9-5.8,12.5-5.8,12.5s-0.6,6.8,5.4,12.2"/>
			<line class="st3" x1="114.9" y1="545.3" x2="112.2" y2="543.7"/>
			<path class="st3" d="M143.9,541c0,0,1.1-10.7-8.4-12.1c-9.5-1.4-14,9.2-14,9.2s-4.4,12.1,5.8,15.2
				C138.2,556.7,143.8,544.5,143.9,541z"/>
			<path class="st3" d="M138.1,540.5c0,0,0.1,5.4-5.8,6.8s-5.1-6.8-5.1-6.8s1.3-4.7,6-5C138.1,535.4,138.1,540.5,138.1,540.5z"/>
			<path class="st3" d="M135.1,535.8c0,0-1.2-1-1.8-1c-0.6,0.1-3.8-0.7-6.1,2.9c-3,4.7,1.7,9.1,1.7,9.1"/>
			<polyline class="st6" points="141.4,532.6 140.5,532.9 136.2,535.8 135.4,535.4 138.1,531.4 139.7,530.5 			"/>
			<path class="st6" d="M138.1,529.7l-1,0.8l-2.3,3.6c0,0-1.1,0.2-1.1-0.5c0,0,0,0,0,0l0.8-3.3l0.8-1.2"/>
			<path class="st6" d="M133.8,528.8l-0.6,1.1l-0.9,3.6c0,0-0.7,0.8-1.2,0.2l-0.6-3.2l0.2-1.1"/>
			<path class="st6" d="M129.2,529.9l-0.1,0.8l0.5,3.5c0,0-0.5,0.7-1,0.6l-1.7-2.6l-0.3-0.9"/>
			<path class="st6" d="M125.5,532.6l0.2,0.8l1.6,2.3c0,0,0,1.1-1,1.1l-2.8-1.9"/>
			<path class="st6" d="M122.6,536.5l2.9,1.5c0,0,0.9,1.3-0.4,1.5l-3.7-0.9"/>
			<path class="st6" d="M120.9,541l3.5-0.2c0,0,1.5,0.5,0.3,1.4l-4.1,1.7"/>
			<path class="st6" d="M121.6,548.4l1-1.3l3-2.5c0,0,0.6-1.4-0.6-1.2c-1.2,0.2-4.1,2.3-4.1,2.3"/>
			<path class="st6" d="M124.9,552.2l0.1-1.5c0,0,0.1-0.9,0.5-1.5c0.4-0.6,1.4-2.1,1.4-2.1s0.6-2-1.2-1.2l-2.4,2.8l-0.8,1.4"/>
			<path class="st6" d="M129.2,553.6l-0.4-1.5c0,0-0.3-1.1,0.1-2l0.6-2.1c0,0-0.3-1.3-1.4-0.5l-1.1,2.2c0,0-0.5,0.8-0.5,1.5
				l-0.1,1.5"/>
			<path class="st6" d="M133.7,553.4l-0.8-1.2c0,0-0.6-0.8-0.5-1.7l-0.4-2.8"/>
			<polyline class="st6" points="130.9,547.7 130,551.3 130.7,553.7 			"/>
			<polyline class="st6" points="138.1,551.1 136.9,550.1 134.8,546.7 			"/>
			<polyline class="st6" points="133.4,547.3 134.1,551.1 135.9,552.5 			"/>
			<polyline class="st6" points="141.2,547.4 139.9,546.2 137.1,544.5 			"/>
			<polyline class="st6" points="135.9,545.8 137.8,548.5 138.8,550 			"/>
			<path class="st6" d="M142,545.8l-1-0.8c0,0-0.7-0.5-1.4-0.7c-0.7-0.2-1.9-1-1.9-1"/>
			<polyline class="st6" points="138.1,541.9 140.4,542.1 143.1,542.9 			"/>
			<polyline class="st6" points="143.7,541.1 141.2,540.5 138.4,540.4 			"/>
			<polyline class="st6" points="138.1,539.3 141.9,538.1 143.6,538 			"/>
			<polyline class="st6" points="143.4,536.2 141.5,536.5 137.8,537.8 			"/>
			<polyline class="st6" points="137.2,536.9 140.3,534.4 142.2,534 			"/>
			<polyline class="st3" points="280,567 280.7,567 280.7,580.4 280.1,580.4 			"/>
			<polyline class="st3" points="253.8,567.3 253.1,567.3 253.1,580.7 253.7,580.7 			"/>
			<path class="st3" d="M337.8,477.5c0,0-0.1,1.8,4.7,1.9s4.3-1.7,4.3-1.7"/>
			<line class="st3" x1="337.7" y1="477.7" x2="337.7" y2="485.7"/>
			<path class="st3" d="M347.2,477.8l0.2,4.9c0,0-2.5,1.6-4.4,4.4"/>
			<path class="st3" d="M337.6,480.7c0,0-2.7,1.9-3.5,4.3"/>
			<path class="st3" d="M347.4,478.4l13,4.8c0,0,3.9,1.8,4.8,8.6"/>
			<path class="st3" d="M347.4,482.7c0,0,3.5-2.3,6.9-1.8"/>
			<path class="st3" d="M350.6,488.6c0,0,2.2-3.3,5.8-3c3.6,0.2,6,2.9,6.7,5.7"/>
			<line class="st3" x1="352.4" y1="487" x2="352.6" y2="489"/>
			<polyline class="st3" points="354.1,486.1 353.7,487.2 353.8,489.3 			"/>
			<polyline class="st3" points="356.1,485.7 355.3,486.7 354.5,489.4 			"/>
			<polyline class="st3" points="357.6,485.9 356.6,487.1 355.8,489.6 			"/>
			<polyline class="st3" points="356.4,489.8 357.7,487.8 359.2,486.6 			"/>
			<polyline class="st3" points="360.5,487.4 358.8,488.6 357.7,490.1 			"/>
			<polyline class="st3" points="358.8,490.6 360.3,489.4 361.9,489 			"/>
			<polyline class="st3" points="360.7,490.9 361.4,490.5 362.6,490.4 			"/>
			<path class="st3" d="M336.6,504.3c0,0,2.3,2.6,6.9,2.5"/>
			<path class="st3" d="M339.6,504.7c0,0,0.4,1.5,3.8,2.1c0,0,3.1,2.9,8.1,3.5s7.3-2.4,7.3-2.4"/>
			<path class="st3" d="M344.8,505.7c0,0,1.4,2.7,6.5,4.7"/>
			<path class="st3" d="M342.5,505.1c0,0,0.3,0.8,0.9,1.7"/>
			<path class="st3" d="M195.4,485.4c0.1-2.1-1.5-5.8-1.5-5.8l0.2-3.7c0,0,0.4,1.9,5.1,1.7c4.6-0.2,3.8-2,3.8-2l0.3,5.3
				c0,0,0,2.1-0.5,3"/>
			<path class="st3" d="M193.8,477.4l-7.5,0.7c0,0-3.3,1.1-3.1,9.4"/>
			<path class="st3" d="M189.9,486.3c0,0,0-6.6-3.7-8.2"/>
			<path class="st3" d="M203.2,476.4l1.3-0.1c0,0,3.3,0.9,3.9,6.5"/>
			<path class="st3" d="M193.9,479.7c-0.3-0.3-1.6-1.7-2.3-1.9"/>
			<path class="st3" d="M188.4,486.6c0,0-0.1-4-2.5-5.4c-2.4-1.4-2.4,6.3-2.4,6.3"/>
			<path class="st3" d="M184.3,482.5l1.7,0.8c0,0,0.8,0.6,1,1.5c0.2,0.9,0.4,1.9,0.4,1.9"/>
			<path class="st3" d="M183.6,485.3c0,0,1.8,0,2.6,0.9l0.3,0.7"/>
			<path class="st3" d="M186.4,504.6c0,0,0.9,1.8,2.2,2c1.3,0.2,5.6-0.4,5.6-0.4s1.4-1.7,1.5-2.7"/>
			<path class="st3" d="M191,503.9c0,0-0.3,2.2-2.3,2.7"/>
			<path class="st3" d="M199.9,502.8c0,0,0.5,2,2.4,2.4l4.9-0.4c0,0,2.3-1.5,2.2-3.1"/>
			<path class="st3" d="M204.7,502.2c0,0-0.3,2.5-2.3,3.1"/>
			<path class="st3" d="M258.1,440.9c0,0,12,4.6,23,0"/>
			<path class="st3" d="M258.1,440.9c0,0,13.1,4.7,23.1,0"/>
		</g>
	</g>
	<g>
		<path class="st4" d="M348.3,393.7l-2.3,4c0,0,0.4,7.7-1,9.6c-1.2,0.9-16.7,9.6-16.7,9.6l-0.5,2.3l0.6,1.6c0,0,0.4,1.2-0.6,1.9
			c-1,0.7-8,4.3-8,4.3s4.8,5.2,5.4,7.2c0,0.9-0.4,1.8-0.4,1.8l-0.4,0.6c0,0-0.9,0.3-1.7,0c-0.8-0.3-2.9-1-2.9-1l0.7,15.9
			c0,0,0.2,0.4-1.1,1.4c-1.3,1-2.3,1.8-2.3,1.8s-4.3,2.7-13.7,1.5c-2.2-0.9-4.6-2.1-4.6-2.1l-2.5-18.6l-1.6,0.2c0,0-1,0.5-1.6-0.7
			c-0.6-1.2-0.8-1.7-0.8-1.7l-1.6,0.5c0,0-1.2,0.5-3.5-0.2c-0.4-0.6-0.9-1.6-0.9-1.6l-5.4,2.2l-1.4,3.9c0,0-0.7,1.5-1.9,1.9
			c-1.2,0.4-3.9,1-3.9,1s-9.5,0.9-13.4,0c-1.2-0.3-2.4-0.5-3-1.9s-3.5-10.1-3.8-11.5c-0.3-1.5-0.9-2.7,0.7-3.8
			c1.5-1,13.7-11.9,37.6-21.8c5-5,1.5-6.7,1.5-6.7l-10.3-0.7c0,0-1.8-0.1-2.3,1.1c-0.5,1.2-1.8,2.8-3.6,2.9c-1.8,0-4-0.2-4.6-2.2
			c-0.7-1.9-0.9-2.8-2-3.2"/>
		<path class="st6" d="M346,397.7l-4.9,8.3c0,0-2.5,3.7-6.9,3.8s-9-0.8-12-3.2c-3.1-2.4-5.1-6.9-5.1-6.9l-1.9-6.3"/>
		<path class="st6" d="M253.4,426.1c0,0,1.6,1.1,14.3-4c12.8-5.1,28.2-11.1,28.2-11.1s7.4-2.9,8.5-10.7s0.8-6.9,0.8-6.9"/>
		<path class="st6" d="M258.6,440.3c0,0,7.7,0.6,12.2-6.6c3.1-1.4,61.7-25.6,71.8-24.9"/>
		<line class="st6" x1="286.5" y1="431.8" x2="328.3" y2="417"/>
		<line class="st6" x1="292.4" y1="433.2" x2="328" y2="420"/>
		<line class="st6" x1="296.4" y1="435.4" x2="320.1" y2="427.4"/>
		<path class="st12" d="M319.8,427.1c0,0-6.4-5.5-7.5-6.6c0.5-0.9,3.4-6.8,3.4-6.8s0.8-3.4-1.4-5.9c-2.2-2.6-7.3-2.3-9.1-0.3
			c0,0-2.6,4.7-4.3,17.9c0.1,1.5,1.2,4.8,4.9,4.7c3.1,1.1,14.1,5.5,14.1,5.5"/>
		<path class="st6" d="M300.9,424.9c0,0,1.7-5.6,6.2-3.6c1.6,0.8,2.3,2,2.4,3.1c0,1.1,0.4,4.5-3.8,5.8"/>
		<path class="st6" d="M309,422.8c0,0,1.8-2.2,3.4-2.3"/>
		<path class="st6" d="M309.2,423.1c0,0,1.3,0.6,7.4,4.6c0.8,0.5,3,2.4,3.8,3c3,2.4,3.9,3.5,4.8,3.4"/>
		<path class="st6" d="M298.8,454c0,0,12,3.2,21.5-2.1"/>
		<polyline class="st7" points="300.2,454.3 297.7,435.2 297,435.2 299.4,454.2 		"/>
		<polyline class="st7" points="300.9,454.3 298.3,435.4 299,435.4 301.6,454.6 		"/>
		<polyline class="st7" points="302.8,454.7 300.5,435.4 301.5,435.4 303.8,454.8 		"/>
		<polyline class="st7" points="305,454.9 303.1,435.4 304.4,435.4 306.5,455 		"/>
		<polyline class="st7" points="307.9,455 305.8,435.2 307.2,435.2 309.3,454.9 		"/>
		<polyline class="st7" points="310.7,454.8 308.9,435.2 310.2,435 312.2,454.6 		"/>
		<polyline class="st7" points="313.5,454.4 311.9,434.8 313.1,434.6 314.9,454.1 		"/>
		<polyline class="st7" points="316,453.7 314.5,434.6 315.5,434.4 316.9,453.4 		"/>
		<polyline class="st7" points="317.9,453.1 316.4,434.2 317.5,434.6 318.9,452.6 		"/>
		<polyline class="st7" points="319.6,452.3 318.6,435.1 319.2,435.3 320.4,451.8 		"/>
		<circle class="st6" cx="331.9" cy="402" r="5.2"/>
		<circle class="st7" cx="331.9" cy="402" r="4.6"/>
		<circle class="st6" cx="276.7" cy="394.2" r="1.9"/>
	</g>
	<g id="assento_1_">
		<path class="st8" d="M188.9,394.4c0,0-0.5,8,9.9,7.8c9.5-0.2,13.8-1.4,55.1-0.9c9.6,0,30-1.9,38.7-3.9c8.7-1.9,35.4,1,45.6,1.2
			c10.2,0.2,83.4-1.9,83.4-1.9s8-1.2,9.8-9c1.8-7.8,3.9-25.1,3.9-25.1s0.3-5.7-2.8-12c-2.3-3.2-3.9-5.3-3.9-5.3s-5.6-7.9-20.8-16.2
			c-1.7-0.8-3.8-1.3-3.8-1.3s-17.4-11.1-45.5-13.5c-6.2-0.4-41.7-3.8-93.3,6.3c0,0-19.8,3.9-26.1,6.7c-6.3,2.8-55.9,20.9-55.9,20.9"
			/>
		<path class="st5" d="M429.9,347.1c0,0-3.5,2-12.5,0c-9.1-2-13-3-13.4-3c-0.5,0-20.5-3.2-42.3-2.3c-21.7,0.9-29,1.3-29,1.3
			s-46.1,3.5-56.3,5.3s-52,9.5-52,9.5"/>
		<line class="st5" x1="406.7" y1="328.8" x2="353.8" y2="337.4"/>
		<path class="st5" d="M427.6,347.7c0,0-26.5-8.5-52-9.7c-25.5-1.2-62.5,0-62.5,0s-81.3,10.5-92.2,13.7"/>
	</g>
	<g>
		<path class="st4" d="M184.9,364.1c0,0,38.3-6.5,58-43.9c6.3-13.7,7.2-19.6,7.2-19.6s5.6-16.1-6.9-37.7
			c-3.9-8.8-22.2-29.3-28.6-37.8c-6.4-8.5-11-23.3-9.8-33.5c1.2-10.2,1.9-27.7,1.9-27.7s0.7-22.4-10.8-33.3
			c-2.1-8.2-4.4-14.4-4.4-14.4s-1.2-9.6-17.2-16.8c-1.6-7.2-10.2-58.6-10.2-58.6l-1.8-9.8c0,0-3.8-19.7-9.9-22.9
			c-0.4-0.2-0.8-0.4-1.2-0.6c-3.2-1.6-6.7-2.2-10.3-1.9c-3.7,0.3-9.1,1-12.4,2.5c-3.4,3-6.6,6.7-6.8,13.5s0.8,44.4,0.8,44.4
			s0.9,3.3,2,5.8c0.4,2.9,1.1,15.1,1.1,15.1l-1.1,12.4c0,0-0.1,25.9,5,47.5c5.1,21.6,16.2,61.8,16.2,61.8l14,63.9l14.3,60.7
			L184.9,364.1z"/>
		<path class="st6" d="M174.2,99.4l-10.9-6.1c0,0-4.1-1.6-5.4-9.2s-5-48.8-5-59.4s-0.6-16.5-0.6-16.5"/>
		<path class="st6" d="M125.1,92.6c0,0,15.1-9,33.7-5.1"/>
		<path class="st6" d="M127.8,8.7c0,0-2.3,2.4-2.6,9s-0.4,19.9-0.4,19.9l1,29.6l1.9,21.9l0.2,17.8c0,0,1,19.4,4.4,32.4
			S185,358.8,185,358.8"/>
		<path class="st6" d="M184.2,362c0,0,39.2-9.4,54.7-40c6.9-14.3,12.9-25.2,6.9-43.8c-3.3-9-6.8-16.1-6.8-16.1s-10-17.2-31.3-39.7
			c-3-4.4-13.4-19.1-14.6-38.7c-1.3-19.6-0.4-45.6-0.4-45.6s0.5-28.5-13-35.8"/>
		<path class="st6" d="M195.8,130.5c0,0,1.7,8.3,1.3,27.3c0,0,0.2,27.9,0.2,32.3c0,2.6,4,17.3,8.9,25.2c5.5,9.3,17,24,29.7,36.6"/>
	</g>
	<g id="braço_3_">
		<path class="st4" d="M267.4,277.7v-3.2c0,0-0.3-1.6,1.3-2.5c1.6-0.9,4.9-2.9,4.9-2.9s1.3-1.3,5.1-1.5s51.4-3.6,82.1-0.8
			c1.7,0.6,6.9,3.8,6.9,3.8s1,0.5,1,2c0,1.6,0,2.7,0,2.7s0.1,1.1-2.1,1.3c-2.1,0.2-35.9,1-35.9,1l-60.9,0.9
			C270,278.6,268.2,278.7,267.4,277.7z"/>
		<path class="st6" d="M271.1,270.6c0,0,83.2-1.6,91.8-1.4"/>
		<path class="st6" d="M274.7,268.5c0,0,52.3-3.4,85.1-0.8c0,0,0.5,0.1,1.9,0.8s5.7,3.4,5.7,3.4s0.4,0.3,1.2-0.4"/>
		<ellipse class="st6" cx="356.1" cy="273.5" rx="3" ry="1.8"/>
		<ellipse class="st7" cx="356.1" cy="273.5" rx="2.4" ry="1.4"/>
		<path class="st8" d="M254.9,290.3v-4.1c0,0-0.2-1.4,2.2-2.9s6.1-3.5,6.1-3.5s3.9-2,8.6-2.2c4.7-0.2,30.2-0.9,30.2-0.9
			s47.6,0,66.9,2.2c1.1,0.1,3.4,1.2,3.4,1.2l6.7,3.9c0,0,1.9,1,1.9,3.1c0,2.1,0,3.5,0,3.5s0.3,1.3-2.7,1.5c-3,0.2-39.1,0.2-39.1,0.2
			l-18.5,12.3c0,0-2.2,0.7-2.2,5.1c0,4.4-2.3,74.9-2.3,74.9s-0.2,0.6-1.4,0.5c-0.1,0.4-0.1,4-0.1,4h1.9l1.7,19.9
			c0,0,0.9,2.5-3.7,3.3c-4.6,0.9-15,2.7-24.8-0.8c-1.3-0.7-2.4-0.9-2.1-3.6c0.3-2.7,1.6-18.7,1.6-18.7s1.4-0.6,2-0.6
			c0.3-1,0.2-3.9,0.2-3.9s-1.8,0.4-1.8-1.7c0-2.1-1.1-74.1-1.1-74.1s0.2-3-2.5-4.8c-2.7-1.7-18.6-12.6-18.6-12.6
			S255.7,291.9,254.9,290.3z"/>
		<path class="st6" d="M255,285.7c0,0,2.6,0.3,13.6,0.3c11,0.1,107.3,0.4,107.3,0.4s4.8,0.1,3.7-2"/>
		<path class="st6" d="M263.9,279.6c0,0,2.8-0.3,11.3-0.3c8.5-0.1,71.8-1,90.1,1.1c3.9,0.1,4.8-0.3,5.5-0.7"/>
		<line class="st6" x1="267.4" y1="291.6" x2="339.2" y2="292.5"/>
		<line class="st6" x1="277.5" y1="298.4" x2="330.2" y2="298.4"/>
		<path class="st6" d="M291.5,384.7c0,0,15.7,1.4,23.4,0.3"/>
		<path class="st6" d="M289.4,389.2c0,0,1.5,2.3,13.4,2.1c12-0.2,10.4-0.1,13.8-2.1"/>
		<path class="st6" d="M291.4,388.6c0,0,0,1.8,10.6,1.8s10.9,0,12.7-1.2"/>
		<polyline class="st6" points="298.8,313.8 298.8,317.7 307.7,317.7 307.7,314.1 		"/>
		<path class="st6" d="M296.2,313.6c0,0,3.1,0.3,7.1,0.3s5.3,0.2,7-0.2v-1.6c0,0,0-2.8-3.2-2.8c-3.2-0.1-7.1,0-7.1,0
			s-3.3-0.2-3.8,2.4C296.2,312.2,296.2,313.6,296.2,313.6z"/>
		<polyline class="st6" points="299.8,309.2 299.8,305.4 306.8,305.4 306.8,309.3 		"/>
	</g>
	<g id="braço_2_">
		<path class="st4" d="M180.6,361.5l3.6,28.3c0,0,0.1,8.7,9.4,8.7c9.3,0,69.8,0,69.8,0s4.4-1.5,6.6-6.6c2.2-5.1,1.3-9.2,1.3-9.2
			s-0.8-4.4-4.2-6.7c-3.3-2.2-8.9-3.2-8.9-3.2l-7.7-0.1c0,0-9.9-0.5-17.3-9.2c-7.4-8.6-10.7-14.4-10.7-14.4s-3.8-7.6-12-9.6
			c-1.3-2.2-1.3-2.2-1.3-2.2l1.4-0.9l-23.3-75.2c0,0-0.6-1.4-2.5-1.9c-1.9-0.5-5.3-2.1-5.3-2.1s-7.2-3.7-12.6,4.7
			c-0.7,1.2-2,3.1-3.4,4.5c-0.2,0.4-0.3,1.1,0,2.1c0.3,1,22.1,75.5,22.1,75.5l0.8-0.2l-0.5,3.7C185.8,347.5,180.1,354.2,180.6,361.5
			z"/>
		<path class="st6" d="M185.8,347.5l1.3,5.3c0,0-4,2.2-3.3,9.6c0.7,7.3,3.3,27.6,3.3,27.6s0.9,5.1,6.3,5.1c5.5,0,67.7,0.9,67.7,0.9
			s4.1-1.5,4.3-5.5c0.2-4-1.4-6.6-1.4-6.6s-1.4-1.8-2.7-2c-1.3-0.1-14,0.3-28.4-10.1c-2.7-2.2-8.6-5.3-14.5-17
			c-1.3-2.4-1.6-3.4-4.5-6c-2.9-2.6-5.1-3.2-5.1-3.2l-0.9-2.8l-1.7-3c0,0-0.2-1.4,0.5-1.6c0.7-0.3,2.4-0.7,2.4-0.7"/>
		<path class="st6" d="M185.1,355.1l3.2,26.7c0,0,2.5,11.3,12.9,11.5c10.4,0.2,62.3,1.1,62.3,1.1"/>
		<path class="st6" d="M187.1,352.8l4.6,15c0,0,3.6,9,14.2,6.2s7.1-14.4,7.1-14.4l-4.3-14"/>
		<line class="st6" x1="186" y1="346.5" x2="206.3" y2="339.7"/>
		<path class="st6" d="M186.3,343.9l0.6-10.5c0,0-0.4-7.5-1.8-11.4c-1.4-4-21-56.4-21-56.4"/>
		<path class="st6" d="M183.6,259l12.5,56c0,0,2.4,13.6,11.1,22.8"/>
		<path class="st6" d="M186.3,346.4l0.5,2.8l5.5,18.1c0,0,3.3,8.4,12.9,6.2c9.6-2.2,7.2-13.4,7.2-13.4l-5.4-17l-2-3l-5.5-11.8
			l-15.9-67.5l-3.5-1.8c0,0-7.7-2.6-12.3,2.9c-0.8,1-3.6,4-3.6,4"/>
		<line class="st7" x1="199.5" y1="328.4" x2="186.8" y2="332.1"/>
		<path class="st6" d="M186,346c0,0,1.9-8.6,1.5-14.1s-1.5-9.5-1.5-9.5l-10.3-25.5"/>
		<circle class="st6" cx="201.8" cy="362.5" r="6.9"/>
		<circle class="st7" cx="201.8" cy="362.3" r="6.1"/>
		<polyline class="st7" points="187.3,276.8 196.6,329.2 197.5,342.6 199.5,353.4 196.7,342.9 195.1,329.5 178.2,258.6 		"/>
		<polyline class="st7" points="168.1,261.5 192.1,330.2 195.1,343.4 198.7,353.7 194.3,343.7 190.8,330.9 170.5,282.8 		"/>
		<path class="st7" d="M213.7,348.4c0,0,2.1,11.9,14.7,22.9c6.9,5.1,12.1,9.2,23.1,12.1c6.4,1.2,12.9,1.2,12.9,1.2"/>
		<path class="st7" d="M205.6,380.1l9.7-9.4c0,0,1.5-1.2,3.4-1.6c0.6,0,0.6,0.5,0.6,0.5s-0.2,1.8-1.7,3.1c-1.5,1.3-9.6,9.2-9.6,9.2
			s-1.7,1-2.3,1.2c-0.6,0.2-0.6-0.5-0.6-0.5S205,381.4,205.6,380.1z"/>
		<path class="st7" d="M211.9,383.7l7.8-8.6c0,0,1.3-1.1,2.8-1.6c0.5,0,0.5,0.4,0.5,0.4s-0.1,1.6-1.3,2.8c-1.2,1.2-7.8,8.4-7.8,8.4
			s-1.4,1-1.9,1.1c-0.5,0.2-0.6-0.4-0.6-0.4S211.5,384.8,211.9,383.7z"/>
		<path class="st7" d="M218.4,387.2l6.6-8.7c0,0,1.1-1.1,2.5-1.7c0.5-0.1,0.5,0.3,0.5,0.3s0,1.5-1,2.7c-1,1.2-6.6,8.6-6.6,8.6
			s-1.2,1-1.7,1.2s-0.6-0.3-0.6-0.3S218,388.3,218.4,387.2z"/>
		<path class="st7" d="M226.2,388.9l5-8.3c0,0,0.9-1.1,2.1-1.7c0.4-0.1,0.5,0.2,0.5,0.2s0.2,1.3-0.6,2.5c-0.8,1.2-5,8.2-5,8.2
			s-1,1-1.4,1.3c-0.4,0.2-0.5-0.3-0.5-0.3S226,389.9,226.2,388.9z"/>
		<path class="st7" d="M233.6,389.6l3.8-7.3c0,0,0.7-1,1.6-1.6c0.3-0.1,0.4,0.2,0.4,0.2s0.2,1.1-0.4,2.1c-0.6,1-3.7,7.2-3.7,7.2
			s-0.8,0.9-1.1,1.1c-0.3,0.2-0.5-0.2-0.5-0.2S233.5,390.5,233.6,389.6z"/>
		<path class="st7" d="M241,390.7l2.1-6.4c0,0,0.4-0.9,1.1-1.5c0.3-0.1,0.4,0.1,0.4,0.1s0.3,0.9,0,1.8c-0.4,0.9-2.1,6.3-2.1,6.3
			s-0.5,0.8-0.8,1.1s-0.4-0.1-0.4-0.1S241,391.4,241,390.7z"/>
		<path class="st7" d="M247.2,385v6.7l15.4-1.6c0,0,1-0.6,0.4-1C262.4,388.7,247.2,385,247.2,385z"/>
		<path class="st4" d="M233.2,363.6l4.1-2c0,0,1.5-0.7,3.7-0.3c2.2,0.4,3.3,0.7,3.3,0.7s1,0.4,0.5,1.2c-0.5,0.7-0.6,0.9-0.6,0.9
			l8.3,0.4c0,0,0.1-1.3,1.4-1.2c1.5,0.1,27.2,0.7,27.2,0.7s1.1,0.2,1.7,1.7c0.6,1.4,3.1,9.1,3.1,9.1s0.7,2.2-0.7,2.8
			c-1.4,0.6-1.9,0-1.9,0l-0.7-0.7c0,0-0.4-0.5-1.9,0.3c-1.5,0.8-1.8,0.7-1.8,0.7s-0.9,0.4-2.3-0.8c-1.4-1.1-1.4-1.1-1.4-1.1
			s-0.6-0.8-1.8-0.6s-4.5,0.5-4.5,0.5s-6.5,1.2-9-1.5c-0.7-0.4-1.6-0.6-2.9-0.4s-4.8,0.9-4.8,0.9v-2.4l-9.1,0v-1.2
			C242.9,371.2,239.4,369,233.2,363.6z"/>
		<line class="st5" x1="242.9" y1="371.2" x2="244.1" y2="364.1"/>
		<line class="st5" x1="239.8" y1="361.1" x2="239.5" y2="369.3"/>
		<line class="st6" x1="252.6" y1="364.5" x2="252" y2="372.5"/>
		<polyline class="st6" points="252.8,363.5 255,366.3 280.2,366.9 282,364.5 		"/>
		<polyline class="st6" points="252.3,374.7 254.8,371.9 255,366.3 		"/>
		<path class="st6" d="M280.2,366.9l2.9,7.2c0,0-2.7,0.2-3.2,0.6s-0.9,0.5-0.9,0.5s-0.6,0.3-1.2-0.2c-0.6-0.4-2.8-2.4-5-2
			c-2.2,0.3-5.7,0.9-5.7,0.9s-3.2,0.5-5.4-0.9c-1.7-1.1-6.9-1-6.9-1"/>
	</g>
	<g id="texto_10_">
		<rect x="348.4" y="413" class="st13" width="40.3" height="17.1"/>
		<text transform="matrix(1 0 0 1 352.1467 425.9511)" class="st14 st15 st16">53cm</text>
	</g>
	<g>
		<g>
			<g>
				<line class="st10" x1="66.2" y1="402.3" x2="176.2" y2="402.3"/>
				<polygon class="st11" points="72.5,401.6 66.2,390 78.9,390 				"/>
			</g>
			<line class="st10" x1="72.5" y1="7.8" x2="72.5" y2="392.1"/>
			<g>
				<polygon class="st11" points="72.3,6 65.9,17.6 78.7,17.6 				"/>
				<line class="st10" x1="65.9" y1="5.6" x2="163.3" y2="5.6"/>
			</g>
		</g>
		<g>
			<g>
				<polygon class="st11" points="464.2,581.7 478.1,581.7 471.2,593.4 				"/>
			</g>
			<line class="st10" x1="471.1" y1="583.1" x2="471.1" y2="335.9"/>
			<g>
				<polygon class="st11" points="464.4,344.2 478.3,344.2 471.3,332.5 				"/>
				<line class="st10" x1="380.5" y1="332.6" x2="478.3" y2="332.6"/>
			</g>
			<g>
				<polygon class="st11" points="464.3,408.7 478.1,408.7 471.2,397 				"/>
			</g>
			<g>
				<polygon class="st11" points="464.3,386.8 478.1,386.8 471.2,398.5 				"/>
				<line class="st10" x1="428.7" y1="398" x2="478.1" y2="398"/>
			</g>
		</g>
		<g>
			<g>
				<line class="st10" x1="281.4" y1="594.4" x2="521.3" y2="594.4"/>
				<polygon class="st11" points="506.9,581.5 521.3,581.5 514.1,593.4 				"/>
			</g>
			<line class="st10" x1="514.1" y1="583" x2="514.1" y2="284.7"/>
			<g>
				<polygon class="st11" points="506.8,288.6 521.2,288.6 514,277.5 				"/>
				<line class="st10" x1="376.2" y1="277.2" x2="521.2" y2="277.2"/>
			</g>
		</g>
		<g>
			<g>
				<line class="st10" x1="434.1" y1="428.2" x2="434.1" y2="382.7"/>
				<polygon class="st11" points="433.5,421.8 421.9,428.2 421.9,415.4 				"/>
			</g>
			<line class="st10" x1="217.9" y1="421.8" x2="427" y2="421.8"/>
			<g>
				<polygon class="st11" points="210.4,422 222,428.4 222,415.7 				"/>
				<line class="st10" x1="210" y1="428.4" x2="210" y2="401.5"/>
			</g>
		</g>
		<g id="texto_7_">
			<rect x="50.4" y="190" class="st13" width="40.3" height="17.1"/>
			<text transform="matrix(1 0 0 1 54.1428 202.914)" class="st14 st15 st16">86cm</text>
		</g>
		<g id="texto_6_">
			<rect x="432.7" y="488.7" class="st13" width="59.1" height="17.1"/>
			<text transform="matrix(1.0849 0 0 1 432.8459 501.6107)" class="st14 st15 st16">39-49cm</text>
		</g>
		<g id="texto_5_">
			<rect x="440.4" y="354" class="st13" width="59.1" height="17.1"/>
			<text transform="matrix(1.0849 0 0 1 452.5041 366.8676)" class="st14 st15 st16">12cm</text>
		</g>
		<g id="texto_4_">
			<rect x="486.1" y="423.1" class="st13" width="62.9" height="17.1"/>
			<text transform="matrix(1.128 0 0 1 487.0149 436.0009)" class="st14 st15 st16">66-73cm</text>
		</g>
	</g>
</g>
</svg>
