<svg xmlns="http://www.w3.org/2000/svg" viewBox="0 0 381.98 688.26"><defs><style>.cls-1{fill:#fff;}.cls-1,.cls-2{stroke:#000;stroke-miterlimit:10;stroke-width:2px;}.cls-2{fill:none;}</style></defs><title>Ativo 7</title><g id="Camada_2" data-name="Camada 2"><g id="diagonal"><path class="cls-1" d="M207.12,542.85l45.61-7.07a4.68,4.68,0,0,1,2.36-1.76c1.31-.26,17.69-2.65,17.69-2.65l5.85-.09a3.83,3.83,0,0,1,2.35,2.11l1.23,2.07,1.54,3,.95,12.22s-3.85,1.79-12,1.32c0,0-5-.46-6-1.94l-21.93,6.53,65,13.24,1.36-.86,39.57,8.12.44,1.31a3.25,3.25,0,0,1,2.59,1.93l1.41,18.06-7.25,2.32-9.51-1.29s-2.75-.56-3.74-2.69l-.07-4.47L223.14,576.39s-18.53-1.45-21.06,4.91l-2.71,54.06-10.12,2.12-11.66-2-.1-54.07s1-6.16-19.41-4.9L45.05,593l.06,3.81s.15,2.21-3.65,3.28a63.77,63.77,0,0,1-9.89,1.52l-7.08-2.52,1.13-16.49a3.48,3.48,0,0,1,2.45-3.38l1-1.44,40-8.24,1,1.06,66-13.82-20.44-6.26s-1.52,2.53-11.91,1.91c0,0-5.38-.46-6.17-1.64l.66-11.47,3.59-7.33a5.1,5.1,0,0,1,3.93-1.14l19,2.59a12.41,12.41,0,0,1,4.87,2.37l42.9,7"/><path class="cls-1" d="M181.66,508.55l0,1.38a22.5,22.5,0,0,0,14.25-.21v-1.38a12.71,12.71,0,0,1,7.19,1.74l.42,4.53a2.16,2.16,0,0,1,1,1.06l.23,3.16a3.7,3.7,0,0,1,1.33,1.3l1,26.3c1.1,1.6.64,2.5.64,2.5-3,4.4-17.12,4.61-17.12,4.61-17.07.14-18.39-4-18.58-5.27a1.64,1.64,0,0,1,.87-1.75l-.06-3.46s.22-21.31.27-22.32,1.29-1.28,1.29-1.28l.31-3.52c0-.6,1.06-.73,1.06-.73l.29-4.48c.4-1.26,5.76-2.18,5.76-2.18"/><path class="cls-2" d="M175.2,515.91s16.54,6.64,28.76-.43"/><path class="cls-2" d="M173.87,520.07s1,5.16,16.9,4.68,14.76-5.55,14.76-5.55"/><path class="cls-2" d="M99.76,536.69s-.15.92.53,1.15,16.93,3.77,16.93,3.77a2.16,2.16,0,0,0,1.58-.55,45.87,45.87,0,0,0,2.28-4.33s1-1.84,2.17-1.46c0,0,4.34.38,6,.55"/><path class="cls-2" d="M252.93,535.92a6.06,6.06,0,0,0,2.19-.27c1.14-.38,3.84-1.29,5.21.4a7.5,7.5,0,0,1,1.61,3.36,2.12,2.12,0,0,0,2.49,2c2.26-.39,17.26-3.24,17.26-3.24s1.11-.46,1-1.45"/><path class="cls-2" d="M351.43,578.71s-2.09.1-3.76,4.18a3.13,3.13,0,0,1-3.25,2L307,577.71s-1.67,0-1.46-2c0,0,.38-2.63,1.15-3A23.66,23.66,0,0,0,309.7,570"/><path class="cls-2" d="M179.89,618.1l4-2.63a3,3,0,0,1,2.38-.69c1.67.1,4.06.06,4.06.06a4.34,4.34,0,0,1,3,.79l4,2.81L198.68,601l-.45-1.73s-1.77-3.07-4.71-3.63l-7.7-.12a6.17,6.17,0,0,0-3.74,1.43,22.8,22.8,0,0,0-2.64,2.6l.1,18.92Z"/><path class="cls-2" d="M28.07,579.18s2.29,1,3.9,4.78a3.22,3.22,0,0,0,3.9,1.67c3-.64,36.79-6.52,36.79-6.52s1.42-.55,1.22-1.74-.46-3-.46-3l-2.19-2.59-1.39-1.24"/><polyline class="cls-2" points="26.24 580.23 32.31 587.3 31.87 601.55"/><path class="cls-2" d="M32.67,587.29l120.81-20.84s16.67-2.64,24.88,3.77L178,621.15"/><line class="cls-2" x1="194.97" y1="553.27" x2="193.78" y2="595.53"/><line class="cls-2" x1="184.48" y1="553.43" x2="185.1" y2="595.42"/><polyline class="cls-2" points="353.17 579.47 346.73 587.56 347.16 600.2"/><path class="cls-2" d="M346.13,587.57l-123.75-22s-17.24-3.2-21.19,4.14l-3.33,48.75"/><line class="cls-2" x1="305.42" y1="572.74" x2="204.98" y2="551.24"/><line class="cls-2" x1="244.74" y1="556.55" x2="207.44" y2="548.57"/><line class="cls-2" x1="207.41" y1="546.31" x2="260.63" y2="536.43"/><line class="cls-2" x1="224.44" y1="551.96" x2="282.85" y2="538.68"/><path class="cls-2" d="M266.91,550l10.93-3.32s1.9-.81,2.75.38"/><line class="cls-2" x1="136.06" y1="556.52" x2="171.68" y2="548.75"/><line class="cls-2" x1="154.14" y1="552.2" x2="98.64" y2="539.18"/><path class="cls-2" d="M115.44,550.47l-11.35-3.58s-2.24-.6-2.79.2"/><polyline class="cls-2" points="181.9 636.57 182.01 643.79 182.91 644.61 183.63 676.71 194.61 676.55 194.13 644.09 195.31 643.47 195.32 636.37"/><path class="cls-2" d="M182.09,637.46s7.34,4.07,13-.19"/><path class="cls-2" d="M195.31,643.47l5.91,0s2.27-.15,2.3,1.82.71,39.62.71,39.62-.1,1.73-1.11,1.75-7,.16-7,.16-1.69-1.11-1.63-5.29a32.52,32.52,0,0,0-.08-4.65"/><path class="cls-2" d="M182,643.79l-6.33.1s-2-.39-2,2.17.47,39.45.47,39.45,0,1.79,2.24,1.75l6.26-.09a1.4,1.4,0,0,0,1.07-.85c.22-.72-.09-9.61-.09-9.61"/><path class="cls-2" d="M333.16,630s-3.37-12.45,6.72-18.57,21.76,2.46,24.3,7.36,9.15,18.56-3.66,26.16S334.3,637.12,333.16,630Z"/><path class="cls-2" d="M338.37,599.62s.52,2.32,5.65,2.42,6.09-.15,6.77-2.07"/><line class="cls-2" x1="338.38" y1="600.22" x2="338.57" y2="612.75"/><path class="cls-2" d="M351.17,600l.08,5.29s-9.38.73-12.44,6.47"/><path class="cls-2" d="M351.42,603.6a12.67,12.67,0,0,1,9.31-.49c5.39,1.67,10,4,14.28,12.95a17.75,17.75,0,0,1-.59,16.48,28.71,28.71,0,0,1-9.51,8.77"/><path class="cls-2" d="M342.08,608.22s12.47-4.25,21,4.28,7.4,16.06,7.4,16.06.1,6.63-3.77,11.4"/><path class="cls-2" d="M351.58,604.56s9.17-1.4,15.77,5.37a24.13,24.13,0,0,1,7,14.4,18.29,18.29,0,0,1-6.05,14.29"/><line class="cls-2" x1="370.02" y1="632.75" x2="373.22" y2="630.79"/><path class="cls-2" d="M336.27,628.26s-1.47-12.41,9.6-14.19,16.45,10.44,16.45,10.44,5.29,14-6.54,17.82C343.13,646.4,336.43,632.28,336.27,628.26Z"/><path class="cls-2" d="M343,627.56a8.39,8.39,0,0,0,6.84,7.86c6.83,1.61,5.77-8,5.77-8s-1.63-5.5-7.13-5.66S343,627.56,343,627.56Z"/><path class="cls-2" d="M346.42,622.05s1.4-1.21,2.12-1.14,4.45-.89,7.17,3.28c3.54,5.44-1.83,10.57-1.83,10.57"/><polyline class="cls-2" points="338.99 618.37 340.09 618.77 345.15 622.1 345.98 621.59 342.87 616.98 340.91 615.98"/><path class="cls-2" d="M342.84,615l1.19.88,2.72,4.1s1.26.27,1.33-.62v0l-1-3.85-.95-1.33"/><path class="cls-2" d="M347.78,613.82l.73,1.25,1.06,4.2s.85.9,1.41.21l.63-3.76-.3-1.27"/><path class="cls-2" d="M353.15,615.12l.09,1-.57,4.13s.65.84,1.2.67l1.88-3.07.33-1"/><path class="cls-2" d="M357.47,618.13l-.2.92-1.85,2.7s0,1.27,1.19,1.21l3.17-2.27"/><path class="cls-2" d="M361,622.58l-3.36,1.84s-1,1.51.55,1.68l4.26-1.1"/><path class="cls-2" d="M363,627.8l-4-.16s-1.76.66-.27,1.66l4.78,1.86"/><path class="cls-2" d="M362.34,636.5,361.16,635l-3.48-2.87s-.76-1.6.66-1.37,4.83,2.62,4.83,2.62"/><path class="cls-2" d="M358.57,641l-.13-1.79a3.71,3.71,0,0,0-.62-1.7c-.53-.69-1.71-2.46-1.71-2.46s-.71-2.29,1.4-1.38l2.83,3.26.92,1.64"/><path class="cls-2" d="M353.6,642.7l.49-1.76a4.29,4.29,0,0,0-.13-2.3l-.74-2.46s.34-1.53,1.61-.6l1.37,2.55a4.62,4.62,0,0,1,.66,1.74l.14,1.71"/><path class="cls-2" d="M348.32,642.48l.9-1.38a3.59,3.59,0,0,0,.57-2l.44-3.31"/><polyline class="cls-2" points="351.53 635.81 352.62 639.97 351.85 642.75"/><polyline class="cls-2" points="343.19 639.85 344.51 638.72 346.95 634.7"/><polyline class="cls-2" points="348.56 635.36 347.81 639.88 345.76 641.53"/><polyline class="cls-2" points="339.51 635.63 341.02 634.28 344.27 632.2"/><polyline class="cls-2" points="345.67 633.71 343.47 636.87 342.3 638.65"/><path class="cls-2" d="M338.49,633.8l1.2-.9a7.57,7.57,0,0,1,1.59-.88,13.91,13.91,0,0,0,2.17-1.22"/><polyline class="cls-2" points="343.03 629.21 340.31 629.47 337.16 630.49"/><polyline class="cls-2" points="336.48 628.34 339.39 627.62 342.65 627.47"/><polyline class="cls-2" points="342.99 626.15 338.51 624.82 336.5 624.75"/><polyline class="cls-2" points="336.79 622.68 338.9 622.91 343.32 624.41"/><polyline class="cls-2" points="343.92 623.31 340.3 620.52 338.08 620.03"/><path class="cls-2" d="M48.16,630.73s3-12.54-7.28-18.36-21.67,3.11-24.07,8.08-8.58,18.82,4.45,26S47.23,637.9,48.16,630.73Z"/><path class="cls-2" d="M42,600.54s-.44,2.33-5.57,2.59-6.09,0-6.83-1.87"/><line class="cls-2" x1="42.05" y1="601.14" x2="42.24" y2="613.67"/><path class="cls-2" d="M29.26,601.33l.08,5.29s9.4.45,12.62,6.09"/><path class="cls-2" d="M29.11,604.91a12.61,12.61,0,0,0-9.31-.22c-5.34,1.83-9.88,4.29-13.88,13.38A17.72,17.72,0,0,0,7,634.52,28.68,28.68,0,0,0,16.76,643"/><path class="cls-2" d="M38.59,609.24S26,605.37,17.77,614.15s-6.92,16.28-6.92,16.28.1,6.62,4.11,11.28"/><path class="cls-2" d="M29,605.87s-9.21-1.12-15.61,5.84a24.19,24.19,0,0,0-6.53,14.6,18.33,18.33,0,0,0,6.49,14.11"/><line class="cls-2" x1="11.39" y1="634.6" x2="8.14" y2="632.74"/><path class="cls-2" d="M45,629.1s1.11-12.45-10-13.89-16.13,10.92-16.13,10.92S14,640.3,25.91,643.75C38.68,647.44,45,633.12,45,629.1Z"/><path class="cls-2" d="M38.3,628.61a8.39,8.39,0,0,1-6.6,8c-6.78,1.81-6-7.79-6-7.79s1.47-5.55,7-5.87S38.3,628.61,38.3,628.61Z"/><path class="cls-2" d="M34.67,623.2s-1.44-1.16-2.15-1.07-4.48-.77-7.08,3.48c-3.37,5.55,2.15,10.52,2.15,10.52"/><polyline class="cls-2" points="41.98 619.3 40.9 619.73 35.93 623.21 35.09 622.73 38.06 618.02 40 616.96"/><path class="cls-2" d="M38,616l-1.16.91-2.6,4.18s-1.25.3-1.34-.58v0l.88-3.87.91-1.37"/><path class="cls-2" d="M33.07,615l-.7,1.26-.93,4.23s-.83.93-1.41.26L29.3,617l.26-1.27"/><path class="cls-2" d="M27.74,616.47l-.07.95.7,4.11s-.63.87-1.18.72l-2-3-.35-1"/><path class="cls-2" d="M23.51,619.62l.23.91,1.93,2.63s0,1.28-1.16,1.25l-3.23-2.18"/><path class="cls-2" d="M20.11,624.16l3.41,1.74s1,1.48-.49,1.7l-4.29-1"/><path class="cls-2" d="M18.28,629.44l4-.28s1.78.61.33,1.65l-4.73,2"/><path class="cls-2" d="M19.19,638.12l1.13-1.53,3.39-3s.72-1.62-.69-1.34S18.26,635,18.26,635"/><path class="cls-2" d="M23.09,642.5l.07-1.79a3.86,3.86,0,0,1,.57-1.72c.51-.7,1.64-2.51,1.64-2.51s.65-2.31-1.44-1.34l-2.73,3.35-.87,1.66"/><path class="cls-2" d="M28.11,644.06l-.55-1.75a4.32,4.32,0,0,1,.07-2.3l.66-2.48s-.38-1.53-1.62-.55l-1.3,2.58a4.68,4.68,0,0,0-.61,1.76L24.67,643"/><path class="cls-2" d="M33.37,643.68l-.93-1.36a3.55,3.55,0,0,1-.63-2l-.54-3.29"/><polyline class="cls-2" points="29.97 637.11 29 641.3 29.86 644.05"/><polyline class="cls-2" points="38.42 640.9 37.08 639.8 34.51 635.86"/><polyline class="cls-2" points="32.93 636.57 33.81 641.07 35.91 642.65"/><polyline class="cls-2" points="41.98 636.57 40.43 635.26 37.12 633.28"/><polyline class="cls-2" points="35.77 634.83 38.06 637.92 39.28 639.67"/><path class="cls-2" d="M43,634.7l-1.23-.85A7.34,7.34,0,0,0,40.1,633a14.43,14.43,0,0,1-2.21-1.17"/><polyline class="cls-2" points="38.27 630.26 40.99 630.43 44.17 631.36"/><polyline class="cls-2" points="44.8 629.18 41.86 628.55 38.6 628.5"/><polyline class="cls-2" points="38.22 627.19 42.66 625.74 44.66 625.61"/><polyline class="cls-2" points="44.31 623.54 42.21 623.83 37.84 625.47"/><polyline class="cls-2" points="37.2 624.38 40.74 621.49 42.94 620.94"/><polyline class="cls-2" points="203.93 656.95 204.76 656.94 205 672.63 204.28 672.64"/><polyline class="cls-2" points="173.44 657.75 172.61 657.76 172.84 673.46 173.56 673.45"/><path class="cls-2" d="M269.74,551.82s0,2.15,5.52,2.19,5-2,5-2"/><line class="cls-2" x1="269.63" y1="552.06" x2="269.76" y2="561.37"/><path class="cls-2" d="M280.67,552l.26,5.66a20.47,20.47,0,0,0-5.07,5.21"/><path class="cls-2" d="M269.56,555.47s-3.07,2.25-4,5.07"/><path class="cls-2" d="M280.85,552.67l15.24,5.38s4.57,2.08,5.76,10"/><path class="cls-2" d="M280.93,557.68s4.05-2.74,8.05-2.18"/><path class="cls-2" d="M284.79,564.46s2.51-3.83,6.66-3.65a8.61,8.61,0,0,1,7.86,6.57"/><line class="cls-2" x1="286.91" y1="562.58" x2="287.18" y2="564.9"/><polyline class="cls-2" points="288.83 561.49 288.35 562.79 288.53 565.21"/><polyline class="cls-2" points="291.1 561.05 290.22 562.23 289.37 565.35"/><polyline class="cls-2" points="292.86 561.24 291.72 562.6 290.89 565.59"/><polyline class="cls-2" points="291.54 565.8 292.99 563.43 294.78 561.97"/><polyline class="cls-2" points="296.33 562.92 294.32 564.31 293.09 566.08"/><polyline class="cls-2" points="294.34 566.62 296.1 565.2 297.9 564.74"/><polyline class="cls-2" points="296.56 566.96 297.35 566.47 298.77 566.36"/><path class="cls-2" d="M268.75,583s2.67,2.95,8.08,2.75"/><path class="cls-2" d="M272.3,583.37s.54,1.79,4.41,2.41a17.79,17.79,0,0,0,9.49,4c5.82.59,8.43-3,8.43-3"/><path class="cls-2" d="M278.36,584.44s1.64,3.09,7.61,5.38"/><path class="cls-2" d="M275.69,583.86a8.12,8.12,0,0,0,1,1.92"/><path class="cls-2" d="M104,563.47c.12-2.45-1.84-6.68-1.84-6.68l.17-4.3s.51,2.26,5.92,1.9,4.37-2.44,4.37-2.44l.5,6.19a9.14,9.14,0,0,1-.55,3.54"/><path class="cls-2" d="M102,554.17l-8.74,1s-3.88,1.29-3.46,11"/><path class="cls-2" d="M97.67,564.62s-.16-7.72-4.4-9.49"/><path class="cls-2" d="M113,552.81l1.51-.18s3.87.93,4.68,7.49"/><path class="cls-2" d="M102.13,556.79a9.74,9.74,0,0,0-2.74-2.19"/><path class="cls-2" d="M95.92,565s-.21-4.65-3-6.2-2.71,7.32-2.71,7.32"/><path class="cls-2" d="M91.08,560.28l2,.88a3.51,3.51,0,0,1,1.2,1.78c.23,1,.45,2.22.45,2.22"/><path class="cls-2" d="M90.33,563.57s2.09,0,3,1l.33.79"/><path class="cls-2" d="M93.89,585.92S95,588,96.43,588.27s6.47-.61,6.47-.61a9.84,9.84,0,0,0,1.75-3.21"/><path class="cls-2" d="M99.26,585.08a3.86,3.86,0,0,1-2.67,3.21"/><path class="cls-2" d="M109.57,583.66a4.25,4.25,0,0,0,2.87,2.81l5.64-.55s2.68-1.83,2.49-3.7"/><path class="cls-2" d="M115.13,582.86s-.36,2.95-2.57,3.7"/><path class="cls-2" d="M203.48,469.87c3.78,5.23,7.7,6.51,7.7,6.51a10.91,10.91,0,0,0,9.56-1.85l1.29-2.91"/><path class="cls-1" d="M282.91,457.17l-.75,8.28a7.36,7.36,0,0,1-1.79,2.58c-1.26,1.13-22.74,12.19-22.74,12.19l-1.83,5L245,488.85l1.09,3.64s-.14,1.6-8.37,4.82l1.34,31-4.24,3.56s-7,2.65-17.88,1.94l-5.7-3.49-2.68-25-2.63-.44-.76-2.69-2,4.16s-17.5,5.52-28.73-.68l-3.86-18.17-8.1,1.16s.15,10.1-12.83,14.83l-6,1.44s-1,.82-5.27-1-16-10.11-16-10.11-4.45.23-4.09-7.81a4.61,4.61,0,0,1,2.88-4l73.74-12.64"/><path class="cls-2" d="M170.52,487.57l30.35-3.71s8.21-9.56-2.91-14.76"/><path class="cls-2" d="M173.92,503.58a8,8,0,0,0,2.94-4.44c.56-2.76,28-16.66,28-16.66s6.16-3.55,8.78-3.59,15.12-3.21,15.12-3.21l52.68-9"/><polyline class="cls-2" points="257.63 480.23 221.98 486.59 196.31 498.31 198.82 502.45 205.13 501.34"/><line class="cls-2" x1="222.33" y1="486.4" x2="228.98" y2="475.98"/><path class="cls-2" d="M206.61,504.78l12.49-4.69,11.19-4.21s8.56-2.44,10.94-2.72,3.52-.41,3.76.07"/><path class="cls-2" d="M219.38,500.35s15.45-.53,18.16-2.72"/><polyline class="cls-2" points="198.32 501.32 222.8 489.86 256.02 483.99"/><path class="cls-2" d="M282.91,457.41s16.83-2.8,28.68-3.3c0,0,3.89-.53,5.19,1,0,0,7.93,9,8.84,16.5,0,0,1.24,3-1.12,4.63s-20.85.31-34.82-7.91l-12.78,1.94"/><path class="cls-2" d="M317.6,456.57s-25.61,6.51-27.18,8.12-2.51,1.87-1.22,3.45"/><path class="cls-2" d="M121.42,482.24l17.63,18.85s1.47,2.05,5.75,1.27,12.52-3.77,15.41-7.23"/><path class="cls-2" d="M124.17,484.6s32.21-1,36.61.33c0,0,2.07.13,2.08.85a25.09,25.09,0,0,1-.44,3"/><path class="cls-2" d="M176.16,510.61S189.1,516.55,203,510"/><path class="cls-1" d="M147.78,87.48c1.76,17.23,11.68,24.58,11.68,24.58L200.1,138s17.17,10.87,9,42.12-6.29,47.85-6.29,47.85,3.44,20.95,20.65,43.07,15.15,43.9,15.15,43.9c-.25,3.8-3,32.75-25,52l-2.23,5.72s27.22-6.59,74.82-8.18,73.42,10.41,73.42,10.41,10.95,5,18.65,18.59-3.74,50.82-3.74,50.82-72,16.2-82.15,24-42.68,5.39-42.68,5.39-70.93-3.69-91.41-10.39L142.52,468l-.34,1.88L131.11,474s-10.08,2.9-17.73,1.14-8.07-4.63-8.07-4.63l.53-14.76-11.26-.71-3.12.42-53.39-8.58s-7.38-.14-8.36-7.5-2.93-28.83-2.93-28.83-1.49-7.36,1.92-13.41l-.43-3.74a8.86,8.86,0,0,1,1.65-6.9c2.51-3.35,7.83-11.75,7.83-11.75L25.24,299.09l2.32-3.91L3.53,176.4s-10.1-40.11,10.05-63.91a69.94,69.94,0,0,0,11.83-28C28.66,67.26,35.52,32.9,35.52,32.9s5.32-28.83,28-31.42,44.1,6.09,44.1,6.09S121,13.13,126.18,26.3c2.18,5.53,4,11.35,5.41,16.25"/><path class="cls-2" d="M85.81,2s-18-5.6-22.79,14.1c0,0-12.36,42.94-18.6,77.41,0,0-5,9.45-8.5,25.13s-4.49,17.32-2.39,32S40,196.86,40,196.86,45.15,234,66.35,264s24.56,54.14,24.56,54.14"/><path class="cls-2" d="M70.31,395.55s17.67-14,21.77-48.71"/><path class="cls-2" d="M27.52,295s1.35-4.09,6.72-4.55a59.85,59.85,0,0,1,9.12-.13l6.83,5.33,13.4,85.46-15.28,3.73s-2.82,1-2.57,6.12S47.4,407.1,47.4,407.1s2.07,11.89-4.58,14.8-11.39-5.64-11.39-5.64l-2.85-19.09"/><path class="cls-2" d="M26.91,402.91l3.22,25.54S31.48,441.09,41,442.62s47.7,7.45,47.7,7.45a9.78,9.78,0,0,0-.15-9.66s-16.72-5.56-21.66-10.6S52.28,416.28,47.72,395.1c0,0,2.86,1.95,3.56,4.19s8.88,30.79,35.39,37.15c0,0,2.62,2.12,2.71,2.87a.74.74,0,0,1-.65.85"/><path class="cls-2" d="M47.66,385.43s6.47,3.49,9.88,14.44S74.16,430.37,90.87,433c0,0,12.42,5.48,3,21.87"/><path class="cls-2" d="M29.69,438.29s.9,4.48,4.58,5.35,52.47,8.46,52.47,8.46l3.54,2.95"/><line class="cls-2" x1="86.87" y1="451.81" x2="88.71" y2="450.07"/><path class="cls-2" d="M113.44,317.65S111,298.89,95,277.13s-17.42-61.75-17.42-61.75-.76-39.66,8-45.12,51.48-1.44,55.89,3.83,28.27,39.75,36.16,55.3a229.18,229.18,0,0,0,33.73,48.33c12.87,13.81,25.95,40.95,5.9,71.59"/><path class="cls-2" d="M43.47,96.29a12.22,12.22,0,0,1,5.17,3.55c1.92,2.47,21.83,30.3,39.79,68.91"/><path class="cls-2" d="M159.46,112.06c-2.79,18.2-9.39,39.22-17.71,61.52"/><path class="cls-2" d="M187.88,310.08c1-.29-19-93.71-37.15-116a44.28,44.28,0,0,0-26.11-18.2s-13.1-1.14-22.85-1.24S88,187.22,88,187.22a150.09,150.09,0,0,0-8,47.62"/><path class="cls-2" d="M72.31,400.08s15.56-8.79,30.94-9"/><path class="cls-2" d="M102.47,376.69A40.9,40.9,0,0,1,88.75,393.4"/><path class="cls-2" d="M105.63,455.61l.49-8.92a4.14,4.14,0,0,1,1.73-1.24l.12-3.37L106.68,441l-6-84.29s.27-4.59-3.34-6.37-20.3-14-20.3-14l-8.51-.79s-2.5.12-3.36-1.7L65,329.75s-.61-2.08,2.53-3.79a49.67,49.67,0,0,0,5.66-3.63,14.71,14.71,0,0,1,6.13-2.09c3.33-.26,20.09-2.47,20.09-2.47s56.83-.8,87.42,5.16l3.62,2.19a6.69,6.69,0,0,1,3.15,4.46,53.19,53.19,0,0,1,.7,7.74L170,340.93a168.07,168.07,0,0,1-23.25.43L132.57,351s-3.27,1.88-2.58,7.12l1.27,85.1s-.16,1-1.59,1l.14,3.56a4,4,0,0,1,1.63.14c.38.24,1.66,16.94,1.66,16.94"/><path class="cls-2" d="M131,463.71a4.46,4.46,0,0,0,5.42,3.17c4.49-.75,5.73-1.46,5.73-1.46l.47,2.53"/><line class="cls-2" x1="142.42" y1="465.33" x2="133.1" y2="463.03"/><line class="cls-2" x1="142.61" y1="465.95" x2="154.32" y2="462.59"/><line class="cls-2" x1="158.42" y1="463.23" x2="132.03" y2="458.1"/><path class="cls-2" d="M106.37,446.85s3.43,3.45,12.3,3,11.44-1.05,12.35-1.56"/><path class="cls-2" d="M107.92,441.91s3.22,3.16,21.58,2.14"/><line class="cls-2" x1="77.09" y1="336.32" x2="146.76" y2="341.36"/><path class="cls-2" d="M87,343.17l32.35,2.64a60.45,60.45,0,0,0,11.13.15c6.43-.47,10.92-1.16,10.92-1.16"/><path class="cls-2" d="M73.62,402.42a73.43,73.43,0,0,1,29.48-7"/><path class="cls-2" d="M130.47,390.53s52.35-3.28,100.13,6.75l32,7s21.16,2.68,22.92,2.78,19.66,19,6.94,55c0,0-23.68,12.35-79.49,8.94"/><path class="cls-2" d="M291.06,469.26a5.57,5.57,0,0,0,1.39-7.14"/><path class="cls-2" d="M130.52,394.11s54,.86,96.6,9.89,58.95,3.37,58.95,3.37"/><path class="cls-2" d="M176,390.43l23.43-5.31s8.47-.72,11.93-12.15"/><path class="cls-2" d="M239.25,398.78s33.27-2.08,79-8.43c45.41-6.3,54.71-3.12,61.09,5.37"/><path class="cls-2" d="M369.57,382.09a13,13,0,0,1,3.05,7.86"/><path class="cls-2" d="M120.32,317.46s8-2.35,13.3-1.93,38.36-1.15,47.13-4.68A47.49,47.49,0,0,1,192,311s5.12,0,5.93-.45,5.37-.53,7.21,1.25,11.37,6.81,12.47,24.63-4,30.44-4,30.44"/><path class="cls-2" d="M188.89,310.5s12.62,8.36,14.25,28.18-11.51,44-11.51,44l-32.06,7.14"/><path class="cls-2" d="M145.5,342.21s3,11.79,2,21.81-.72,18.18-4.78,25.57"/><line class="cls-2" x1="125.92" y1="316.34" x2="128.2" y2="317.8"/><line class="cls-2" x1="94.37" y1="454.99" x2="105.61" y2="451.74"/><path class="cls-2" d="M46.8,411.72c.06-.19-3.44-25.39-3.44-25.39l4.46-14.88-7.63-75.71s-2.78-2-3.28-2.33-2.49-3.2-4.32-2.68"/><polyline class="cls-2" points="40.32 295.74 45.78 295.53 47.48 296.07 50.04 295.75"/><line class="cls-2" x1="47.5" y1="296.5" x2="56.7" y2="382.54"/><path class="cls-2" d="M55.37,382.81a48.55,48.55,0,0,1-6.66-21.4c-.85-12.57-2.73-65.6-2.73-65.6"/><line class="cls-2" x1="29.03" y1="388.21" x2="43.21" y2="386.12"/><polygon class="cls-2" points="80.41 410.53 73.97 414.5 74.35 423.56 80.61 424.02 80.6 415.09 81.84 414.38 78.46 414.24 83.29 411.17 80.41 410.53"/><path class="cls-2" d="M80.68,424.59l0,2.93,3.19-.36s2.43-.66,3.76.7a9.6,9.6,0,0,0,2.78,2s1.51.54,6.63.27c0,0,2.74-.35,3.76,1.07a11.65,11.65,0,0,0,1.4,1.73s2.34,1.53,3.38-.05"/><polyline class="cls-2" points="104.74 417.6 83.46 413.86 80.6 415.09 80.68 424.68"/><path class="cls-2" d="M80.85,415.11,82,418l-.1,6.15s3.87-.77,5.81,1.73,8.15,1.5,8.15,1.5,6.24,1.13,7,2.21,2.85.62,2.85.62l-1.91-8.66,1.26-1.46"/><line class="cls-2" x1="82.15" y1="417.97" x2="103.76" y2="421.59"/><path class="cls-2" d="M51.35,384.21S58.78,388.08,61.9,396s4.85,12.1,4.85,12.1a3.41,3.41,0,0,0,4.11,1.78l4.3,3.68"/><line class="cls-2" x1="58.53" y1="382.77" x2="64.83" y2="402.55"/><path class="cls-2" d="M59.48,384.84s7.28,2.14,11,11.42a79.77,79.77,0,0,0,7.89,15.13"/><path class="cls-2" d="M60.63,388.9s4-.31,6.93,6.69S76.9,412.5,76.9,412.5"/><path class="cls-1" d="M308.45,364.37l.34-33a6.51,6.51,0,0,1,2.6-4.54c2.4-1.62,15.52-10.32,15.52-10.32l7,.15s7.34.14,11.33-.25,15.56-1.82,15.56-1.82A1.83,1.83,0,0,0,362,312.9c.07-1.34.05-2.25.05-2.25a3.5,3.5,0,0,0-2.12-2.56c-2-1-7.48-4.22-7.48-4.22s-56.32-4.41-80.7-1.79L258,303.78s-3.82,1.14-4.18,4.56a23.46,23.46,0,0,0-.09,5.34l10.18.68.29.19,18.65,12.2a6.37,6.37,0,0,1,2.16,5.3c-.2,3.5,1.06,32.24,1.06,32.24"/><line class="cls-2" x1="326.32" y1="316.51" x2="263.87" y2="314.53"/><line class="cls-2" x1="254.92" y1="305.76" x2="337.87" y2="308.09"/><path class="cls-2" d="M259.3,303.84s61.71-2.58,77.7,2l4.7,2.18a15.07,15.07,0,0,0,10.78,2.17c6.32-1.09,8.32-1.29,8.32-1.29"/><line class="cls-2" x1="336.73" y1="305.78" x2="352.39" y2="304.12"/><path class="cls-2" d="M274.3,320.87l28.43.91s9,.78,11,.34,6.23-1,6.23-1"/><path class="cls-2" d="M43.09,96.05s-12.26-1.27-23,5.24"/><polyline class="cls-2" points="83.33 204.47 126.98 222.56 158.65 208.34"/><polyline class="cls-2" points="80.41 225.12 130.81 244.51 166.57 227.87"/><polyline class="cls-2" points="82.5 248 134.39 266.7 173.04 248.24"/><line class="cls-2" x1="92.48" y1="273.3" x2="96.47" y2="253.04"/><line class="cls-2" x1="100.79" y1="285.33" x2="107.33" y2="256.95"/><polyline class="cls-2" points="108.65 300.72 117.39 261.46 144.12 315.48"/><line class="cls-2" x1="127.23" y1="264.31" x2="115.28" y2="317.75"/><line class="cls-2" x1="137.74" y1="264.9" x2="125.63" y2="316.21"/><line class="cls-2" x1="149.23" y1="259.61" x2="136.25" y2="315.6"/><line class="cls-2" x1="160.99" y1="254" x2="146.75" y2="315.27"/><line class="cls-2" x1="171.09" y1="249.17" x2="156.99" y2="315.11"/><line class="cls-2" x1="178.36" y1="267.44" x2="167.6" y2="313.51"/><line class="cls-2" x1="183.49" y1="289.22" x2="178.07" y2="311.69"/><line class="cls-2" x1="85.16" y1="248.96" x2="84.06" y2="253.23"/><line class="cls-2" x1="88.9" y1="250.4" x2="124.14" y2="316.51"/><line class="cls-2" x1="103.95" y1="255.73" x2="133.62" y2="315.53"/><line class="cls-2" x1="130.64" y1="265.35" x2="154.87" y2="314.75"/><line class="cls-2" x1="140.73" y1="264.11" x2="164.73" y2="313.85"/><line class="cls-2" x1="149.24" y1="260.23" x2="174.82" y2="311.98"/><line class="cls-2" x1="157.36" y1="256.21" x2="185.3" y2="310.37"/><line class="cls-2" x1="182.75" y1="285" x2="165.3" y2="251.49"/><path class="cls-1" d="M58.51,74.32s4.42,28.1,5.29,30.42,2.79,8.29,15.56,3.77S111.8,93,132.57,110.88c0,0,15.08,16.44,16.94-3.75,0,0-4.68-34.44-1.51-56.82,0,0,1.52-20.86-13.81-9.46s-32,13.31-60.33-10.77c0,0-14.52-12.28-14.55,8.05S58.36,63.82,58.51,74.32Z"/><path class="cls-2" d="M69.7,27.89S72,31.73,73.43,43.46,77.11,89,75.61,97.69s-2,10.47-2.68,12.39"/><path class="cls-2" d="M72.48,29.06s13.86,33.59,15.6,40.81,7.37,24.68.52,35.14"/><path class="cls-2" d="M89.41,41.73s8.27,9.62,11.32,30.12c1.43,12.19.34,22.46-6.91,31.19"/><path class="cls-2" d="M128.68,44.47s16.48,5.42,13.7,28.34-7.79,28.26-16.17,33.44"/><path class="cls-2" d="M132.44,110.47S147.54,98.61,147,75.24s.42-33.88-4-37.69"/><path class="cls-2" d="M63.93,26.85s-3.59,2.56-2.54,13.79,1.94,55.11,4,66.83"/><path class="cls-2" d="M65.43,328.37l77.22,5.47s22.27,1.42,33.73-1.25l13.35-1.95s2.6-.54,3.14-2.43"/><path class="cls-2" d="M76.86,320.7l78.67,5.2a135.32,135.32,0,0,0,15.33-.48c6.9-.73,16-2.49,16-2.49"/><path class="cls-1" d="M68.19,109.6s55.09,194,56.11,206.43l7.57-.78L76.7,109.35A19.3,19.3,0,0,1,68.19,109.6Z"/><polygon class="cls-1" points="133.56 112.2 181.55 310.42 187.93 310.66 140.47 116.37 133.56 112.2"/><path class="cls-1" d="M30.82,57.6l15.89,4.64L58.49,66.6a39.54,39.54,0,0,0,.58,10.22S50.42,72.25,43.28,71s-14.64-3.29-14.64-3.29Z"/><path class="cls-2" d="M176.26,510.67s12.84,5.78,26.68-.46"/></g></g></svg>