<?xml version="1.0" encoding="utf-8"?>
<!-- Generator: Adobe Illustrator 23.0.1, SVG Export Plug-In . SVG Version: 6.00 Build 0)  -->
<svg version="1.1" id="Camada_1" xmlns="http://www.w3.org/2000/svg" xmlns:xlink="http://www.w3.org/1999/xlink" x="0px" y="0px"
	 viewBox="0 0 600 600" style="enable-background:new 0 0 600 600;" xml:space="preserve">
<style type="text/css">
	.st0{fill:#FFFFFF;stroke:#030304;stroke-width:0.8328;stroke-miterlimit:10;}
	.st1{fill:none;stroke:#030304;stroke-width:0.8328;stroke-miterlimit:10;}
	.st2{fill:none;stroke:#030304;stroke-width:0.4164;stroke-miterlimit:10;}
	.st3{fill:none;stroke:#020203;stroke-miterlimit:10;}
	.st4{fill:#FFFFFF;stroke:#020203;stroke-miterlimit:10;}
	.st5{fill:none;stroke:#020203;stroke-width:0.75;stroke-miterlimit:10;}
	.st6{fill:none;stroke:#020203;stroke-width:0.5;stroke-miterlimit:10;}
	.st7{fill:none;stroke:#020203;stroke-width:0.25;stroke-miterlimit:10;}
	.st8{fill:#FFFFFF;stroke:#020203;stroke-width:0.75;stroke-miterlimit:10;}
	.st9{fill:#FFFFFF;}
	.st10{fill:#E52622;}
	.st11{font-family:'Roboto-Medium';}
	.st12{font-size:14.0378px;}
	.st13{fill:none;stroke:#E52522;stroke-width:1.5;stroke-miterlimit:10;}
	.st14{fill:#E52522;}
	.st15{fill:#FFFFFF;stroke:#020203;stroke-width:0.5;stroke-miterlimit:10;}
	.st16{fill:#E7E6E6;}
	.st17{fill:#FFFFFF;stroke:#020203;stroke-linejoin:round;}
	.st18{fill:none;stroke:#020203;stroke-linejoin:round;}
	.st19{fill:none;stroke:#E52624;stroke-width:1.5;stroke-miterlimit:10;}
	.st20{fill:#E52624;}
	.st21{clip-path:url(#SVGID_2_);}
	.st22{fill:none;stroke:#020203;stroke-width:0.5461;stroke-miterlimit:10;}
	.st23{fill:none;stroke:#E52624;stroke-width:1.5296;stroke-miterlimit:10;}
	.st24{fill:none;stroke:#E52624;stroke-width:1.8398;stroke-miterlimit:10;}
	.st25{fill:none;stroke:#E52624;stroke-width:1.4398;stroke-miterlimit:10;}
	.st26{fill:none;stroke:#E52624;stroke-width:1.5364;stroke-miterlimit:10;}
	.st27{fill:none;stroke:#E52624;stroke-width:1.4292;stroke-miterlimit:10;}
	.st28{fill:none;stroke:#E52624;stroke-width:1.5549;stroke-miterlimit:10;}
	.st29{clip-path:url(#SVGID_4_);}
</style>
<g>
	<g>
		<g id="base_1_">
			<g>
				<path class="st0" d="M285.8,476.7l-36.8-5.4c0,0-0.9-1.2-1.9-1.4c-1.1-0.2-14.3-2-14.3-2l-4.7,0c0,0-1.3,0.4-1.9,1.7l-1,1.7
					l-1.2,2.4l-0.7,9.8c0,0,3.1,1.4,9.7,1c0,0,4-0.4,4.8-1.6l17.7,5.1l-52.3,11.1l-1.1-0.7l-31.8,6.8l-0.3,1.1c0,0-1.3,0-2.1,1.6
					l-1,14.6l5.9,1.8l7.6-1.1c0,0,2.2-0.5,3-2.2l0-3.6l89.6-13.5c0,0,14.9-1.3,17,3.8l2.6,43.5l8.2,1.6l9.4-1.7l-0.3-43.5
					c0,0-0.9-5,15.6-4.1l91.1,12.4l0,3.1c0,0-0.1,1.8,3,2.6s8,1.2,8,1.2l5.7-2.1l-1-13.3c0,0,0-2.2-2-2.7l-0.8-1.2l-32.3-6.3
					l-0.8,0.9l-53.3-10.7l16.4-5.2c0,0,1.2,2,9.6,1.5c0,0,4.3-0.4,5-1.4l-0.6-9.2l-2.9-5.9c0,0-1-1-3.2-0.9l-15.3,2.2
					c0,0-2.5,0.6-3.9,1.9l-34.5,5.9"/>
				<path class="st0" d="M305.9,448.9c0,0,4.3,0.7,4.7,1.7l0.3,3.6c0,0,0.9,0.1,0.9,0.6l0.3,2.8c0,0,1,0.2,1.1,1
					c0,0.8,0.4,18,0.4,18l0,2.8c0,0,0.9,0.4,0.7,1.4c-0.2,1-1.2,4.4-14.9,4.4c0,0-11.3-0.1-13.8-3.6c0,0-0.4-0.7,0.5-2l0.7-21.2
					c0,0,0.3-0.6,1.1-1.1l0.2-2.5c0,0,0.3-0.7,0.8-0.9l0.3-3.7c0,0,2.3-1.6,5.8-1.5l0,0.9c3.6,1.2,7.4,1.1,11.2,0.1L305.9,448.9z"/>
				<path class="st1" d="M311.3,454.8c0,0-13.3,5.5-23.2-0.1"/>
				<path class="st1" d="M312.4,458.1c0,0-0.8,4.2-13.6,3.9c-12.8-0.3-11.9-4.4-11.9-4.4"/>
				<path class="st1" d="M372.2,471c0,0,0.1,0.7-0.4,0.9s-13.6,3.2-13.6,3.2s-0.9,0.1-1.3-0.4s-1.9-3.5-1.9-3.5s-0.8-1.5-1.8-1.2
					c0,0-3.5,0.3-4.8,0.5"/>
				<path class="st1" d="M248.9,471.5c0,0-0.8,0.1-1.8-0.2c-0.9-0.3-3.1-1-4.2,0.4s-1.3,2.7-1.3,2.7s-0.2,1.9-2,1.6
					s-13.9-2.5-13.9-2.5s-0.9-0.4-0.8-1.2"/>
				<path class="st1" d="M169.9,506.6c0,0,1.7,0.1,3.1,3.3c0,0,0.7,1.9,2.6,1.6l30.1-6.1c0,0,1.3,0,1.2-1.6c0,0-0.3-2.1-0.9-2.4
					c-0.6-0.3-2.5-2.1-2.5-2.1"/>
				<path class="st1" d="M308.3,537.1l-3.2-2.1c0,0-0.6-0.6-1.9-0.5c-1.3,0.1-3.3,0.1-3.3,0.1s-1.2-0.2-2.4,0.7
					c-1.2,0.9-3.2,2.3-3.2,2.3l-1.2-14l0.3-1.4c0,0,1.4-2.5,3.8-3l6.2-0.2c0,0,1.6,0,3,1.1s2.1,2.1,2.1,2.1l0.1,15.2L308.3,537.1z"
					/>
				<path class="st1" d="M430.3,504.7c0,0-1.8,0.8-3.1,3.9c0,0-0.7,1.9-3.1,1.4c-2.4-0.5-29.7-5-29.7-5s-1.2-0.4-1-1.4
					s0.4-2.4,0.4-2.4l1.7-2.1l1.1-1"/>
				<polyline class="st1" points="431.7,505.5 426.9,511.3 427.4,522.7 				"/>
				<path class="st1" d="M426.6,511.3l-97.4-15.9c0,0-13.4-2-20,3.2l0.6,41"/>
				<line class="st1" x1="295.7" y1="485" x2="296.9" y2="519"/>
				<line class="st1" x1="304.1" y1="485.1" x2="303.9" y2="518.9"/>
				<polyline class="st1" points="168.5,507.3 173.7,513.7 173.5,523.9 				"/>
				<path class="st1" d="M174.2,513.7l99.5-18.6c0,0,13.9-2.7,17.1,3.2l3,39.2"/>
				<line class="st1" x1="206.9" y1="501.5" x2="287.6" y2="483.5"/>
				<line class="st1" x1="255.6" y1="488" x2="285.6" y2="481.3"/>
				<line class="st1" x1="285.6" y1="479.5" x2="242.7" y2="471.9"/>
				<line class="st1" x1="271.9" y1="484.2" x2="224.8" y2="473.9"/>
				<path class="st1" d="M237.7,482.9l-8.8-2.6c0,0-1.5-0.6-2.2,0.3"/>
				<line class="st1" x1="343.1" y1="487.2" x2="314.4" y2="481.2"/>
				<line class="st1" x1="328.5" y1="483.9" x2="373.1" y2="473"/>
				<path class="st1" d="M359.7,482.2l9.1-3c0,0,1.8-0.5,2.2,0.1"/>
				<polyline class="st1" points="306.8,552 306.8,557.8 306,558.5 305.7,584.3 296.8,584.3 297,558.2 296,557.7 296,551.9 				"/>
				<path class="st1" d="M306.6,552.7c0,0-5.9,3.3-10.5-0.1"/>
				<path class="st1" d="M296,557.7l-4.8,0.1c0,0-1.8-0.1-1.8,1.5c0,1.6-0.3,31.9-0.3,31.9s0.1,1.4,0.9,1.4s5.7,0.1,5.7,0.1
					s1.4-0.9,1.3-4.3c-0.1-3.4,0-3.7,0-3.7"/>
				<path class="st1" d="M306.8,557.8l5.1,0c0,0,1.6-0.3,1.6,1.7s-0.1,31.8-0.1,31.8s0,1.4-1.8,1.4c-1.8,0-5,0-5,0s-0.7-0.1-0.9-0.7
					c-0.2-0.6,0-7.7,0-7.7"/>
				<path class="st1" d="M184.9,547.8c0,0,2.6-10-5.5-14.9c-8.2-4.9-17.5,2.1-19.5,6.1c-2,4-7.2,15,3.1,21
					C173.5,566.1,184.1,553.5,184.9,547.8z"/>
				<path class="st1" d="M180.5,523.4c0,0-0.4,1.9-4.5,2s-4.9-0.1-5.5-1.6"/>
				<line class="st1" x1="180.5" y1="523.8" x2="180.5" y2="533.9"/>
				<path class="st1" d="M170.2,523.8l0,4.3c0,0,7.6,0.5,10.1,5.1"/>
				<path class="st1" d="M170,526.7c0,0-3.2-1.7-7.5-0.3c-4.3,1.4-8,3.3-11.4,10.5c-3.4,7.3,0.6,13.3,0.6,13.3s3,4.6,7.7,7"/>
				<path class="st1" d="M177.6,530.3c0,0-10.1-3.3-16.8,3.6s-5.8,13-5.8,13s0,5.3,3.1,9.2"/>
				<path class="st1" d="M169.9,527.4c0,0-7.4-1.1-12.7,4.4c-5.3,5.5-5.5,11.6-5.5,11.6s-0.6,6.4,5,11.5"/>
				<line class="st1" x1="155.3" y1="550.3" x2="152.7" y2="548.7"/>
				<path class="st1" d="M182.4,546.4c0,0,1.1-10-7.8-11.4c-8.9-1.4-13.2,8.5-13.2,8.5s-4.2,11.3,5.4,14.3
					C177,561.1,182.3,549.7,182.4,546.4z"/>
				<path class="st1" d="M177,545.9c0,0,0,5-5.5,6.4c-5.5,1.3-4.7-6.4-4.7-6.4s1.3-4.4,5.7-4.6C177,541.1,177,545.9,177,545.9z"/>
				<path class="st1" d="M174.2,541.5c0,0-1.1-1-1.7-0.9c-0.6,0.1-3.6-0.7-5.8,2.7c-2.8,4.4,1.5,8.5,1.5,8.5"/>
				<polyline class="st2" points="180.2,538.5 179.3,538.8 175.2,541.5 174.6,541.1 177,537.4 178.6,536.6 				"/>
				<path class="st2" d="M177,535.8l-0.9,0.7l-2.2,3.3c0,0-1,0.2-1.1-0.5c0,0,0,0,0,0l0.8-3.1l0.8-1.1"/>
				<path class="st2" d="M173.1,534.9l-0.6,1l-0.8,3.4c0,0-0.7,0.7-1.1,0.2l-0.5-3l0.2-1"/>
				<path class="st2" d="M168.7,536l-0.1,0.8l0.5,3.3c0,0-0.5,0.7-1,0.6l-1.5-2.5l-0.3-0.8"/>
				<path class="st2" d="M165.3,538.4l0.2,0.7l1.5,2.2c0,0,0,1-1,1l-2.6-1.8"/>
				<path class="st2" d="M162.5,542l2.7,1.5c0,0,0.8,1.2-0.4,1.4l-3.4-0.9"/>
				<path class="st2" d="M160.9,546.2l3.2-0.2c0,0,1.4,0.5,0.2,1.3l-3.8,1.5"/>
				<path class="st2" d="M161.5,553.2l0.9-1.2l2.8-2.3c0,0,0.6-1.3-0.5-1.1c-1.1,0.2-3.9,2.1-3.9,2.1"/>
				<path class="st2" d="M164.6,556.8l0.1-1.4c0,0,0.1-0.8,0.5-1.4s1.4-2,1.4-2s0.6-1.8-1.1-1.1l-2.3,2.6l-0.7,1.3"/>
				<path class="st2" d="M168.6,558.2l-0.4-1.4c0,0-0.3-1,0.1-1.9l0.6-2c0,0-0.3-1.2-1.3-0.5l-1.1,2.1c0,0-0.5,0.8-0.5,1.4l-0.1,1.4
					"/>
				<path class="st2" d="M172.8,558l-0.7-1.1c0,0-0.5-0.8-0.5-1.6l-0.4-2.7"/>
				<polyline class="st2" points="170.2,552.6 169.3,556 170,558.2 				"/>
				<polyline class="st2" points="176.9,555.8 175.9,554.9 173.9,551.7 				"/>
				<polyline class="st2" points="172.6,552.2 173.2,555.9 174.9,557.2 				"/>
				<polyline class="st2" points="179.9,552.4 178.6,551.3 176,549.6 				"/>
				<polyline class="st2" points="174.9,550.9 176.7,553.4 177.6,554.8 				"/>
				<path class="st2" d="M180.7,550.9l-1-0.7c0,0-0.7-0.5-1.3-0.7c-0.6-0.2-1.8-1-1.8-1"/>
				<polyline class="st2" points="177,547.2 179.2,547.4 181.7,548.2 				"/>
				<polyline class="st2" points="182.3,546.5 179.9,545.9 177.3,545.8 				"/>
				<polyline class="st2" points="177,544.8 180.6,543.7 182.2,543.6 				"/>
				<polyline class="st2" points="182,541.9 180.3,542.1 176.7,543.4 				"/>
				<polyline class="st2" points="176.2,542.5 179.1,540.2 180.9,539.8 				"/>
				<path class="st1" d="M414.4,546.4c0,0-2.5-10.1,5.7-14.8s17.5,2.3,19.4,6.3c2,4,7,15.1-3.4,21
					C425.7,564.8,415.2,552.1,414.4,546.4z"/>
				<path class="st1" d="M419.2,522c0,0,0.4,1.9,4.5,2s4.9,0,5.5-1.6"/>
				<line class="st1" x1="419.2" y1="522.5" x2="419.1" y2="532.6"/>
				<path class="st1" d="M429.5,522.5l0,4.3c0,0-7.6,0.4-10.1,5"/>
				<path class="st1" d="M429.6,525.4c0,0,3.2-1.7,7.5-0.2c4.3,1.4,8,3.4,11.3,10.7c3.3,7.3-0.8,13.3-0.8,13.3s-3,4.5-7.8,6.9"/>
				<path class="st1" d="M422,529c0,0,10.1-3.2,16.8,3.8s5.7,13.1,5.7,13.1s0,5.3-3.2,9.1"/>
				<path class="st1" d="M429.7,526.2c0,0,7.4-1,12.6,4.6c5.2,5.6,5.4,11.7,5.4,11.7s0.5,6.4-5.1,11.4"/>
				<line class="st1" x1="444.1" y1="549.2" x2="446.7" y2="547.7"/>
				<path class="st1" d="M417,545c0,0-1-10,8-11.3c8.9-1.2,13.1,8.7,13.1,8.7s4,11.4-5.6,14.2C422.2,559.7,417,548.3,417,545z"/>
				<path class="st1" d="M422.4,544.6c0,0-0.1,5,5.4,6.4c5.5,1.4,4.8-6.3,4.8-6.3s-1.2-4.5-5.6-4.7
					C422.5,539.8,422.4,544.6,422.4,544.6z"/>
				<path class="st1" d="M425.3,540.2c0,0,1.2-1,1.7-0.9c0.6,0.1,3.6-0.6,5.7,2.8c2.8,4.4-1.7,8.5-1.7,8.5"/>
				<polyline class="st2" points="419.3,537.1 420.2,537.5 424.2,540.2 424.9,539.8 422.5,536.1 420.9,535.2 				"/>
				<path class="st2" d="M422.5,534.4l0.9,0.7l2.1,3.3c0,0,1,0.2,1.1-0.5c0,0,0,0,0,0l-0.7-3.1l-0.7-1.1"/>
				<path class="st2" d="M426.5,533.6l0.6,1l0.8,3.4c0,0,0.7,0.7,1.1,0.2l0.6-3l-0.2-1"/>
				<path class="st2" d="M430.8,534.7l0.1,0.8l-0.5,3.3c0,0,0.5,0.7,1,0.6l1.6-2.4l0.3-0.8"/>
				<path class="st2" d="M434.2,537.2L434,538l-1.5,2.1c0,0,0,1,0.9,1l2.6-1.8"/>
				<path class="st2" d="M437,540.9l-2.7,1.4c0,0-0.8,1.2,0.4,1.4l3.4-0.8"/>
				<path class="st2" d="M438.5,545.1l-3.2-0.2c0,0-1.4,0.5-0.2,1.3l3.8,1.6"/>
				<path class="st2" d="M437.8,552.1l-0.9-1.2l-2.8-2.4c0,0-0.6-1.3,0.6-1.1c1.1,0.2,3.8,2.2,3.8,2.2"/>
				<path class="st2" d="M434.7,555.7l-0.1-1.4c0,0-0.1-0.8-0.5-1.4c-0.4-0.6-1.3-2-1.3-2s-0.5-1.9,1.1-1.1l2.2,2.7l0.7,1.3"/>
				<path class="st2" d="M430.7,557l0.4-1.4c0,0,0.3-1-0.1-1.9l-0.5-2c0,0,0.3-1.2,1.3-0.5l1.1,2.1c0,0,0.5,0.8,0.5,1.4l0.1,1.4"/>
				<path class="st2" d="M426.4,556.7l0.7-1.1c0,0,0.5-0.8,0.5-1.6l0.4-2.7"/>
				<polyline class="st2" points="429.1,551.4 429.9,554.7 429.3,557 				"/>
				<polyline class="st2" points="422.4,554.5 423.4,553.6 425.5,550.4 				"/>
				<polyline class="st2" points="426.8,551 426.1,554.6 424.4,555.9 				"/>
				<polyline class="st2" points="419.5,551 420.7,550 423.4,548.3 				"/>
				<polyline class="st2" points="424.5,549.6 422.6,552.1 421.7,553.5 				"/>
				<path class="st2" d="M418.7,549.5l1-0.7c0,0,0.7-0.5,1.3-0.7c0.6-0.2,1.8-1,1.8-1"/>
				<polyline class="st2" points="422.4,545.9 420.2,546.1 417.7,546.8 				"/>
				<polyline class="st2" points="417.1,545.1 419.5,544.6 422.1,544.5 				"/>
				<polyline class="st2" points="422.4,543.4 418.8,542.3 417.2,542.2 				"/>
				<polyline class="st2" points="417.5,540.5 419.2,540.8 422.7,542.1 				"/>
				<polyline class="st2" points="423.2,541.2 420.4,538.9 418.6,538.4 				"/>
				<polyline class="st1" points="289.2,568.6 288.5,568.6 288.4,581.2 289,581.2 				"/>
				<polyline class="st1" points="313.8,569 314.4,569 314.3,581.7 313.8,581.6 				"/>
				<path class="st1" d="M235.5,484.4c0,0,0,1.7-4.4,1.8c-4.5,0.1-4-1.6-4-1.6"/>
				<line class="st1" x1="235.6" y1="484.6" x2="235.5" y2="492.1"/>
				<path class="st1" d="M226.7,484.6l-0.2,4.6c0,0,2.4,1.5,4.1,4.2"/>
				<path class="st1" d="M235.6,487.3c0,0,2.5,1.8,3.2,4.1"/>
				<path class="st1" d="M226.5,485.2l-12.2,4.4c0,0-3.7,1.7-4.6,8"/>
				<path class="st1" d="M226.5,489.2c0,0-3.3-2.2-6.5-1.7"/>
				<path class="st1" d="M223.4,494.7c0,0-2-3.1-5.4-2.9c-3.3,0.2-5.7,2.7-6.3,5.3"/>
				<line class="st1" x1="221.7" y1="493.2" x2="221.5" y2="495"/>
				<polyline class="st1" points="220.1,492.3 220.6,493.4 220.4,495.3 				"/>
				<polyline class="st1" points="218.3,492 219,492.9 219.7,495.4 				"/>
				<polyline class="st1" points="216.9,492.1 217.8,493.2 218.5,495.6 				"/>
				<polyline class="st1" points="218,495.8 216.8,493.9 215.4,492.7 				"/>
				<polyline class="st1" points="214.1,493.5 215.8,494.6 216.8,496 				"/>
				<polyline class="st1" points="215.8,496.5 214.3,495.3 212.9,495 				"/>
				<polyline class="st1" points="214,496.8 213.3,496.4 212.2,496.3 				"/>
				<path class="st1" d="M236.5,509.5c0,0-2.1,2.4-6.5,2.3"/>
				<path class="st1" d="M233.6,509.8c0,0-0.4,1.4-3.5,2c0,0-2.9,2.7-7.6,3.3s-6.8-2.3-6.8-2.3"/>
				<path class="st1" d="M228.7,510.7c0,0-1.3,2.5-6.1,4.4"/>
				<path class="st1" d="M230.9,510.2c0,0-0.3,0.8-0.8,1.6"/>
				<path class="st1" d="M369,492.6c-0.1-2,1.4-5.4,1.4-5.4l-0.2-3.5c0,0-0.4,1.8-4.8,1.6c-4.4-0.3-3.5-1.9-3.5-1.9l-0.4,5
					c0,0,0,2,0.5,2.8"/>
				<path class="st1" d="M370.5,485.1l7,0.7c0,0,3.1,1,2.9,8.9"/>
				<path class="st1" d="M374.1,493.5c0,0,0.1-6.2,3.5-7.7"/>
				<path class="st1" d="M361.7,484.1l-1.2-0.1c0,0-3.1,0.8-3.7,6.1"/>
				<path class="st1" d="M370.5,487.2c0.2-0.3,1.5-1.6,2.2-1.8"/>
				<path class="st1" d="M375.5,493.7c0,0,0.1-3.7,2.4-5c2.3-1.3,2.2,5.9,2.2,5.9"/>
				<path class="st1" d="M379.4,489.9l-1.6,0.7c0,0-0.8,0.6-1,1.4s-0.3,1.8-0.3,1.8"/>
				<path class="st1" d="M380,492.6c0,0-1.7,0-2.4,0.8l-0.3,0.6"/>
				<path class="st1" d="M377.3,510.6c0,0-0.8,1.7-2,1.9c-1.2,0.2-5.2-0.4-5.2-0.4s-1.3-1.6-1.4-2.6"/>
				<path class="st1" d="M373,510c0,0,0.3,2.1,2.2,2.6"/>
				<path class="st1" d="M364.7,508.9c0,0-0.5,1.9-2.3,2.3l-4.5-0.4c0,0-2.2-1.5-2-3"/>
				<path class="st1" d="M360.2,508.3c0,0,0.3,2.4,2.1,3"/>
			</g>
			<path class="st3" d="M288.9,450.3c0,0,9.6,5.7,21.5,0.2"/>
		</g>
		<g id="frog_1_">
			<path class="st4" d="M262.1,397.2c-0.5,1.8-0.3,4.4-0.3,4.4h-67.1c0,0-2.6-0.4-2.8,2.2c-0.2,2.7-1.5,5.8,1.2,14.3
				c0.6,1,0.6,2.5,4.1,2.5s14.2,0.8,27.2-6.5c3.1-2.2,3.1-2.2,3.1-2.2l42.9,1.9c0,0,0.6-0.1,0.7-1c0.8,0.6,13.1,12.3,13.1,12.3
				l2.2,4.3c0,0,0.1,1.4,1.5,2.3c0.1,1.5,1,22.9,1,22.9l3.5,2.6c0,0,7.1,1.6,15.1,0l3.7-2.2l1.3-23.2c0,0,1.1-0.5,1.3-1
				s0.4-2.9,0.4-2.9l3.7-2.6l11.6-12.5v1.4l43.8,0.6c0,0,7.8,8.9,24.4,11.2c4.9,0.3,5.8,0.3,5.8,0.3s2.1,0.2,3.2-1.5
				c1-1.7,3.8-9.6,3.4-15.6c0-1-0.1-2.4-1.5-2.6c-1.4-0.2-70-4-70-4s0.2-4-0.7-5.3"/>
			<path class="st5" d="M191.9,403.9c0,0,21.8,1.7,36.1,5.2c1,0.3,1.7,1.1-0.4,2.9"/>
			<path class="st5" d="M410.2,409.4c0,0-20.6,0.2-35,2.4c-2.8,0.3-3.9,1.3-2,3.2"/>
			<path class="st6" d="M261.8,401.6c0,0,0.6,3.8,1.7,4c0-1.1-0.4-8.5-0.4-8.5"/>
			<path class="st6" d="M264.5,397.2l0.3,9.1c0,0,0.3,2.1,0.6,2.5"/>
			<path class="st6" d="M267.6,397.3l0.5,11.4l-3.7,0.1c0,0-0.7,0.2-0.7-0.9c0-1.1-0.3-2.2-0.3-2.2"/>
			<path class="st5" d="M338.8,402.1c0,0-0.7,3.8-1.9,4c0-1.1,0.5-8.5,0.5-8.5"/>
			<path class="st5" d="M335.8,397.6l-0.4,9.1c0,0-0.3,2.1-0.7,2.5"/>
			<path class="st5" d="M332.3,397.7l-0.6,11.4l4.1,0.1c0,0,0.8,0.2,0.8-0.9s0.3-2.2,0.3-2.2"/>
			<path class="st3" d="M271.3,412.9c0,0-2.8-2.7-3.1-4.3"/>
			<path class="st5" d="M268,406.2c0,0,0.5,2.9,1.8,3.8c1.3,1,10,8.2,10,8.2l1.6,4.3"/>
			<line class="st6" x1="268" y1="403.5" x2="331.7" y2="404.2"/>
			<line class="st6" x1="268.9" y1="408.8" x2="331.7" y2="408.8"/>
			<line class="st6" x1="279.9" y1="418.2" x2="320.9" y2="418.2"/>
			<line class="st5" x1="280.9" y1="421" x2="319.6" y2="421"/>
			<path class="st5" d="M331.7,409.1l-11.3,9.6c0,0-0.6,2.7-1.5,3.4c-0.9,0.8-4.1,3.5-4.1,3.5l-0.4,2.5"/>
			<line class="st3" x1="329.8" y1="413" x2="331.9" y2="409.1"/>
			<line class="st3" x1="284.4" y1="425.3" x2="286.5" y2="426.7"/>
			<path class="st6" d="M286.5,429.1v-3.8c0,0,2.3-3.3,12.6-3.3c12.2,0,15.7,3.7,15.7,3.7"/>
			<path class="st6" d="M287,430.7c0,0,0.1-3.7,7.8-4c7.7-0.3,12.4,0.5,12.4,0.5s5.4,0.7,6.7,3.5"/>
			<path class="st3" d="M312.7,431.9v-2.3c0,0-4.4,1-12.7,1.1c-8.3,0.1-11.8-1.1-11.8-1.1l-0.1,2.3"/>
			<polyline class="st7" points="289.6,455.1 289.1,434.6 289.6,434.8 289.9,455.1 			"/>
			<polyline class="st7" points="290.9,456.1 290.6,435 291.3,435 291.7,456.4 			"/>
			<polyline class="st7" points="293.2,456.5 293.2,435.3 293.9,435.3 293.9,456.5 			"/>
			<polyline class="st7" points="295.6,456.5 295.6,435.3 296.9,435.3 296.9,456.5 			"/>
			<polyline class="st7" points="298.5,456.5 298.5,435.3 299.9,435.3 299.9,456.5 			"/>
			<polyline class="st7" points="301.7,456.5 301.7,435.3 303,435.3 303,456.5 			"/>
			<polyline class="st7" points="304.5,456.5 304.5,435.3 305.9,435.3 305.9,456.5 			"/>
			<polyline class="st7" points="307.7,456.5 307.7,435.3 308.8,435.3 308.8,456.5 			"/>
			<polyline class="st7" points="309.9,456 309.9,434.8 310.6,434.8 310.6,456 			"/>
			<polyline class="st7" points="311.4,455.4 311.4,434.6 312,434.6 312,446.7 			"/>
			<path class="st7" d="M309.5,456.4c0,0-16.5,0.6-18.3-0.1"/>
		</g>
		<g id="Braço_3_">
			<path class="st8" d="M196.8,378.7H190c0,0-0.4,1.4-1.5,1.4c-1.1,0-17.1,0.4-17.1,0.4s-2.5-0.1-2.4-2.1c0.1-2,1.3-18.1,1.3-18.1
				s0.6-0.8,1.8-1c0.1-1,0.1-2.8,0.1-2.8l-0.8-0.5l-2.8-67.2c0,0,0.2-1.2-1-2.4s-7.2-7.8-7.2-7.8s-8.5-0.4-9.5-0.4
				c-1,0-2.1-0.1-2.1-1.1c0-1.1,0-3.4,0-3.4s0.3-1.5,2.2-2.9s8-5.6,8-5.6s3.3-1.9,9.2-2c5.8,0,29.3,0.2,29.3,0.2s0.6-0.1,0.9,0.6
				s0.4,1.1,0.4,1.1l0.8,0.2l0.4,7.6l-7.4,3.4l-6.6,9.6c0,0-1,1.4-1.1,3.3c-0.1,1.8-0.6,23.1-0.6,23.1l-0.5,30.6l-0.2,12.6l-0.9,0.6
				c0,0,0,1.9,0,2.7c1.5,0.4,1.8,0.7,2.1,1c0.5,13.3,1.1,12.1,1.1,12.1l5.3,0.3v1.2h2.5"/>
			<path class="st6" d="M197.6,263.4c0,0-6.2-0.1-11.7,4.8c0,0-17.2,0.1-24.2-0.1s-2.6-2.5-2.6-2.5l3.8-1.7"/>
			<path class="st6" d="M185.9,268.2v1.8l-3.7,2.2c0,0-2.1,1.5-7.4,1.5s-20.7-0.4-20.7-0.4s-4-0.2-4.8-0.8"/>
			<path class="st6" d="M199.7,265.2l-10.7,4.5c0,0-1.9,0.7-3.2,0.3"/>
			<polyline class="st6" points="198.8,265.1 188.4,269.3 185.9,270 			"/>
			<path class="st6" d="M160.4,278.6h23.9c0,0,3.1,0.1,5-0.8c2.5-1.2,3.2-1.6,3.2-1.6"/>
			<path class="st6" d="M163.6,282c0,0,0.9,0.5,4.2,0.5s15.7-0.2,15.7-0.2s1.8,0.1,3.6-0.6c1.8-0.6,2.6-1.2,2.6-1.2"/>
			<path class="st6" d="M172.2,356.6c0,0,1.8,1.1,6.1,0.4c4.3-0.7,4.5-0.9,4.5-0.9"/>
			<path class="st6" d="M170.3,360.3c0,0,1.5,1.6,4.9,1.9c3.9,0.3,7.6-1.3,7.6-1.3s1.7-0.6,2.1-1.1"/>
			<path class="st6" d="M172.1,359.3c0,0-0.5,0.9,0.1,1.2c0.5,0.3,0.7,0.5,2.2,0.8c1.4,0.3,4.1-0.1,4.4-0.1c0,0,0,0,0,0l2.7-0.6
				c0.8-0.2,1.4-0.9,1.3-1.8l0,0"/>
			<path class="st6" d="M191.2,372.1l-3.5,3.8c0,0-0.9,3,0.5,4.1"/>
			<path class="st6" d="M191.2,373.4l-2.8,3c0,0-1.3,2.4,1.1,3.1"/>
			<path class="st6" d="M187.8,375.9h-7.1c0,0-2.4-0.3-4.1-1.9"/>
		</g>
		<g id="Braço_2_">
			<path class="st8" d="M403.2,378.7h6.8c0,0,0.4,1.4,1.5,1.4c1.1,0,17.1,0.4,17.1,0.4s2.5-0.1,2.4-2.1c-0.1-2-1.3-18.1-1.3-18.1
				s-0.6-0.8-1.8-1c-0.1-1-0.1-2.8-0.1-2.8l0.8-0.5l2.8-67.2c0,0-0.2-1.2,1-2.4s7.2-7.8,7.2-7.8s8.5-0.4,9.5-0.4
				c1,0,2.1-0.1,2.1-1.1c0-1.1,0-3.4,0-3.4s-0.3-1.5-2.2-2.9s-8-5.6-8-5.6s-3.3-1.9-9.2-2c-5.8,0-29.3,0.2-29.3,0.2
				s-0.6-0.1-0.9,0.6s-0.4,1.1-0.4,1.1l-0.8,0.2l-0.4,7.6l7.4,3.4l6.6,9.6c0,0,1,1.4,1.1,3.3c0.1,1.8,0.6,23.1,0.6,23.1l0.5,30.6
				l0.2,12.6l0.9,0.6c0,0,0,1.9,0,2.7c-1.5,0.4-1.8,0.7-2.1,1c-0.5,13.3-1.1,12.1-1.1,12.1l-5.3,0.3v1.2h-2.5"/>
			<path class="st6" d="M402.4,263.4c0,0,6.2-0.1,11.7,4.8c0,0,17.2,0.1,24.2-0.1s2.6-2.5,2.6-2.5l-3.8-1.7"/>
			<path class="st6" d="M414.1,268.2v1.8l3.7,2.2c0,0,2.1,1.5,7.4,1.5s20.7-0.4,20.7-0.4s4-0.2,4.8-0.8"/>
			<path class="st6" d="M400.3,265.2l10.7,4.5c0,0,1.9,0.7,3.2,0.3"/>
			<polyline class="st6" points="401.2,265.1 411.6,269.3 414.1,270 			"/>
			<path class="st6" d="M439.6,278.6h-23.9c0,0-3.1,0.1-5-0.8c-2.5-1.2-3.2-1.6-3.2-1.6"/>
			<path class="st6" d="M436.4,282c0,0-0.9,0.5-4.2,0.5s-15.7-0.2-15.7-0.2s-1.8,0.1-3.6-0.6c-1.8-0.6-2.6-1.2-2.6-1.2"/>
			<path class="st6" d="M427.8,356.6c0,0-1.8,1.1-6.1,0.4c-4.3-0.7-4.5-0.9-4.5-0.9"/>
			<path class="st6" d="M429.7,360.3c0,0-1.5,1.6-4.9,1.9c-3.9,0.3-7.6-1.3-7.6-1.3s-1.7-0.6-2.1-1.1"/>
			<path class="st6" d="M427.9,359.3c0,0,0.5,0.9-0.1,1.2c-0.5,0.3-0.7,0.5-2.2,0.8c-1.4,0.3-4.1-0.1-4.4-0.1c0,0,0,0,0,0l-2.7-0.6
				c-0.8-0.2-1.4-0.9-1.3-1.8l0,0"/>
			<path class="st6" d="M408.8,372.1l3.5,3.8c0,0,0.9,3-0.5,4.1"/>
			<path class="st6" d="M408.8,373.4l2.8,3c0,0,1.3,2.4-1.1,3.1"/>
			<path class="st6" d="M412.2,375.9h7.1c0,0,2.4-0.3,4.1-1.9"/>
		</g>
		<g>
			<path class="st4" d="M315.1,397.7c0,0,54.7,0.2,57.3,0c3.4,0.6,2.6-1.4,2.6-1.4l-1.4-2.1h17.9c0,0,3.7-0.3,6.2-3.4
				c2.6-3.1,6.3-8.1,6.3-8.1s1.7-2.3,1.7-5.7c0-3.4,4.3-41.9,4.3-41.9s1.4-9.7-8.8-15.5c-4.2-1.8-8-3.1-16.7-2.9
				c1.8-2.7,7.2-16.3,7.2-16.3s6.9-21,7.5-46.2c-0.1-4.5-0.8-19.2-0.8-19.2l-3-21.7c0,0-3.4-15,1.4-36c4.8-21,9-38.4,9-38.4
				s8.3-19.4-10.2-32.9c-15.2-8.9-25.2-14.3-25.2-14.3s-5.8-5.3-8.1-11.9c-2.3-6.6-21.8-56-21.8-56s-5.4-15.8-27.2-16.8h-26.9
				c-21.8,1-27.2,16.8-27.2,16.8s-19.5,49.3-21.8,56c-2.3,6.6-8.1,11.9-8.1,11.9s-10.1,5.4-25.2,14.3
				c-18.5,13.5-10.2,32.9-10.2,32.9s4.2,17.4,9,38.4s1.4,36,1.4,36l-3,21.7c0,0-0.8,14.7-0.8,19.2c0.6,25.1,7.5,46.2,7.5,46.2
				s5.5,13.6,7.2,16.3c-8.7-0.2-12.5,1.1-16.7,2.9c-10.1,5.9-8.8,15.5-8.8,15.5s4.3,38.5,4.3,41.9c0,3.4,1.7,5.7,1.7,5.7
				s3.7,5,6.3,8.1c2.6,3.1,6.2,3.4,6.2,3.4h17.9l-1.4,2.1c0,0-0.9,1.9,2.6,1.4c2.6,0.2,63.6-0.1,63.6-0.1L315.1,397.7z"/>
			<path class="st6" d="M203.4,179.8c0,0,5.8,19.7,3.8,36.7c-0.3,10.1-2.5,31.5-0.3,49.3c0.9,8.1,3.3,30.3,9.6,51"/>
			<path class="st6" d="M396.7,179.8c0,0-5.8,19.7-3.8,36.7c0.3,10.1,2.5,31.5,0.3,49.3c-0.9,8.1-3.3,30.3-9.6,51"/>
			<path class="st6" d="M215.2,316.7c0,0,10,0,19.4,6.3c2.7,2.2,6.8,7.1,12.5,7.7l-3.7,10.1l-10.9,1c0,0-2.2,0.1-2.6,3
				c-1.1,0.2-21.4,1.1-31.5-8.3c-2.3-2.1-7.9-6.1-5.6-12.1"/>
			<path class="st6" d="M229.9,344.8c0,0-1.3,4.5,0.6,16.1c0.6,7.7,1.1,29.9,1.1,29.9l-5.4,3.4"/>
			<path class="st6" d="M204,392.6c0,0,16.9,0,26.9-1.3"/>
			<path class="st3" d="M233.1,87.6c9.5,6.2,32.6,51.6,35.1,55.9c-19.5,20.7-28.8,40.4-34.3,64.5c-4.9,19.8-4.3,46.6-4.3,46.6
				s0.7,13.5,1.1,22.4c1.3,24.9,9.3,43.1,10.2,44.9c0.9,1.8,5.3,8.8,5.3,8.8h107.1c0,0,4.4-7,5.3-8.8c0.9-1.8,8.9-20,10.2-44.9
				c0.5-8.9,1.1-22.4,1.1-22.4s1-29.5-6.1-46.8c-4.3-12.9-6.9-19.6-6.9-19.6s-6.2-23.9-25.7-44.6c2.5-4.3,25.6-49.7,35.1-55.9"/>
			<path class="st6" d="M268.2,143.5c0,0,2.2,2.5,2.4,3.8"/>
			<path class="st3" d="M301.4,77.4c5,0.5,5.7,1.2,7.1,2.2c1.7,1.2,3.5,2.2,5.3,3.1c3.2,1.4,4.9,1.9,4.9,1.9s15.3,3.2,19,3.8
				c3.7,0.6,7-0.9,8.2-5.5c1.2-4.6-3.5-7.7-3.5-7.7l-14.5-7.7c0,0-5.6-2.7-14.7-3s-10.9-0.3-10.9-0.3l-5.6,0c0,0-1.4,0-10.5,0.4
				s-14.7,3-14.7,3l-14.5,7.7c0,0-4.7,3.1-3.5,7.7c1.2,4.6,4.5,6.1,8.2,5.5s19-3.8,19-3.8s1.8-0.5,4.9-1.9c1.9-0.8,3.7-1.9,5.3-3.1
				c1.4-1,1.2-1.6,6.2-2L301.4,77.4z"/>
			<path class="st5" d="M302.7,72.4c0,0,0.9,0,3.2,0c4.5,0,5.7,2.6,7,4.4c3.7,4,8.5,4.6,8.5,4.6s15,3.2,16.8,3.1
				c1.6,0.2,2.5-0.9,3.2-2.4c0.9-2.1-1.6-3.5-1.6-3.5s-6-3.5-12.2-6.7c-6.2-3.2-11.4-3.3-11.4-3.3l-13.3-0.4l-6.3,0l-13,0.4
				c0,0-5.2,0.1-11.4,3.3c-6.2,3.2-12.2,6.7-12.2,6.7s-2.5,1.4-1.6,3.5c0.7,1.4,1.6,2.6,3.2,2.4c1.8,0.1,16.8-3.1,16.8-3.1
				s4.8-0.6,8.5-4.6c1.2-1.8,2.4-4.4,7-4.4c1.4,0,3.8,0,3.8,0L302.7,72.4z"/>
			<path class="st6" d="M384.3,316.8c0,0-9.7-0.1-19.1,6.2c-2.7,2.2-6.8,7.1-12.5,7.7l3.7,10.1l10.9,1c0,0,2.2,0.1,2.6,3
				c1.1,0.2,21.4,1.1,31.5-8.3c2.3-2.1,7.9-6.1,5.6-12.1"/>
			<path class="st6" d="M369.8,344.8c0,0,1.3,4.5-0.6,16.1c-0.6,7.7-1.1,29.9-1.1,29.9l5.4,3.4"/>
			<path class="st6" d="M395.7,392.6c0,0-16.9,0-26.9-1.3"/>
			<path class="st6" d="M331.5,143.5c0,0-1.6,2-2.1,3.2"/>
			<path class="st3" d="M241,321.8c0,0-5.5-88,6.4-129.1c3.4-11.4,10.3-30.6,10.3-30.6s4.1-13.5,17.1-16.5c13-3,49.9-0.7,49.9-0.7
				s11.5,1.5,16.9,17c5.4,15.5,9,25.4,9,25.4s4,13.5,4.7,23.2c0.7,9.7,5.5,73.2,1.9,113.9"/>
			<polyline class="st6" points="255.1,169.3 300.5,183.8 344.6,170.5 			"/>
			<polyline class="st6" points="249.3,186.5 299.9,202.2 350.3,186.5 			"/>
			<polyline class="st6" points="244.7,203.9 300.4,220.8 354.6,204.3 			"/>
			<line class="st6" x1="249.3" y1="205.3" x2="242.9" y2="215.5"/>
			<line class="st6" x1="240.3" y1="247.4" x2="260" y2="208.6"/>
			<line class="st6" x1="270.5" y1="211.8" x2="239.7" y2="272.5"/>
			<line class="st6" x1="240" y1="297.8" x2="281.3" y2="215"/>
			<line class="st6" x1="292.2" y1="218.3" x2="240.9" y2="320.7"/>
			<line class="st6" x1="246.3" y1="330.6" x2="303.9" y2="219.7"/>
			<path class="st6" d="M317.9,215.5c0,0-52.3,108.5-59.2,115.1"/>
			<path class="st6" d="M279.2,330.9c7.5-2.5,14.4-17,14.4-17l54.8-107.6"/>
			<path class="st6" d="M357,236.7l-39.9,78.6c0,0-8.4,13.7-11.6,15.5"/>
			<line class="st6" x1="319.4" y1="330.6" x2="358.1" y2="261.4"/>
			<line class="st6" x1="330.4" y1="330.6" x2="358.5" y2="285.3"/>
			<line class="st6" x1="343" y1="330.6" x2="358.1" y2="308.6"/>
			<path class="st6" d="M351.2,205.3l4.5,10.2c0,0-45.4,90-50.1,99.1s-13.4,16-13.4,16s-6.7-7.6-10.8-16
				c-4.1-8.4-40.3-80.3-40.3-80.3"/>
			<line class="st6" x1="340.6" y1="208.6" x2="357.4" y2="243.7"/>
			<line class="st6" x1="329.4" y1="212" x2="358.1" y2="269.5"/>
			<line class="st6" x1="358.1" y1="296.9" x2="319.4" y2="215"/>
			<line class="st6" x1="357.4" y1="321.8" x2="308.6" y2="218.3"/>
			<line class="st6" x1="295.7" y1="219.4" x2="350.3" y2="330"/>
			<path class="st6" d="M340.6,330.8c0,0-10-12.6-17-28.1c-7-15.5-41.6-87.7-41.6-87.7"/>
			<path class="st6" d="M328.4,330.8c0,0-8.7-10.6-13.3-21c-4.6-10.4-48-99.1-48-99.1"/>
			<path class="st6" d="M316.2,330.6c0,0-9.6-12.8-13.3-20.4s-50.8-104-50.8-104"/>
			<path class="st6" d="M243.3,212.4l50.2,102.8c0,0,5,9.9,10.3,15.6"/>
			<path class="st6" d="M239.9,257.8l34.5,66.7c0,0,2.6,4.4,6.9,6.4"/>
			<path class="st6" d="M239.7,280.5l23.1,44c0,0,2.7,4,5.1,6.1c0,0,9.1-5.2,19.6-27.9c10.5-22.7,45.9-92,45.9-92"/>
			<line class="st6" x1="240.3" y1="307.2" x2="255.1" y2="330.6"/>
			<line class="st6" x1="243.4" y1="340.8" x2="356.3" y2="340.8"/>
			<line class="st6" x1="246.7" y1="330.6" x2="253.9" y2="335.5"/>
			<line class="st6" x1="255.5" y1="330.6" x2="263" y2="335.5"/>
			<line class="st6" x1="264.4" y1="330.6" x2="272.1" y2="335.5"/>
			<line class="st6" x1="273.2" y1="330.6" x2="281.2" y2="335.5"/>
			<line class="st6" x1="282.1" y1="330.6" x2="290.3" y2="335.5"/>
			<line class="st6" x1="290.9" y1="330.6" x2="299.4" y2="335.5"/>
			<line class="st6" x1="299.8" y1="330.6" x2="308.5" y2="335.5"/>
			<line class="st6" x1="308.6" y1="330.7" x2="317.6" y2="335.6"/>
			<line class="st6" x1="317.5" y1="330.7" x2="326.7" y2="335.6"/>
			<line class="st6" x1="326.3" y1="330.7" x2="335.8" y2="335.6"/>
			<line class="st6" x1="335.2" y1="330.7" x2="344.9" y2="335.6"/>
			<line class="st6" x1="344" y1="330.7" x2="354" y2="335.6"/>
			<line class="st6" x1="352.7" y1="330.7" x2="345.5" y2="335.5"/>
			<line class="st6" x1="343.8" y1="330.7" x2="336.4" y2="335.5"/>
			<line class="st6" x1="335" y1="330.7" x2="327.3" y2="335.5"/>
			<line class="st6" x1="326.1" y1="330.7" x2="318.2" y2="335.5"/>
			<line class="st6" x1="317.3" y1="330.7" x2="309.1" y2="335.5"/>
			<line class="st6" x1="308.4" y1="330.7" x2="299.9" y2="335.5"/>
			<line class="st6" x1="299.6" y1="330.7" x2="290.8" y2="335.5"/>
			<line class="st6" x1="290.7" y1="330.8" x2="281.7" y2="335.7"/>
			<line class="st6" x1="281.9" y1="330.8" x2="272.6" y2="335.7"/>
			<line class="st6" x1="273" y1="330.8" x2="263.5" y2="335.7"/>
			<line class="st6" x1="264.2" y1="330.8" x2="254.4" y2="335.7"/>
			<line class="st6" x1="255.3" y1="330.8" x2="245.3" y2="335.7"/>
			<line class="st6" x1="245.1" y1="335.5" x2="252.4" y2="340.6"/>
			<line class="st6" x1="254.2" y1="335.5" x2="261.8" y2="340.6"/>
			<line class="st6" x1="263.3" y1="335.5" x2="271.2" y2="340.6"/>
			<line class="st6" x1="272.4" y1="335.5" x2="280.6" y2="340.6"/>
			<line class="st6" x1="281.5" y1="335.5" x2="289.9" y2="340.6"/>
			<line class="st6" x1="290.6" y1="335.5" x2="299.3" y2="340.6"/>
			<line class="st6" x1="299.7" y1="335.5" x2="308.7" y2="340.6"/>
			<line class="st6" x1="308.8" y1="335.6" x2="318" y2="340.8"/>
			<line class="st6" x1="317.9" y1="335.6" x2="327.4" y2="340.8"/>
			<line class="st6" x1="327" y1="335.6" x2="336.8" y2="340.8"/>
			<line class="st6" x1="336.1" y1="335.6" x2="346.2" y2="340.8"/>
			<line class="st6" x1="345.2" y1="335.6" x2="355.5" y2="340.8"/>
			<line class="st6" x1="354.1" y1="335.5" x2="346.7" y2="340.7"/>
			<line class="st6" x1="345" y1="335.5" x2="337.4" y2="340.7"/>
			<line class="st6" x1="335.9" y1="335.5" x2="328" y2="340.7"/>
			<line class="st6" x1="326.8" y1="335.5" x2="318.6" y2="340.7"/>
			<line class="st6" x1="317.7" y1="335.5" x2="309.2" y2="340.7"/>
			<line class="st6" x1="308.6" y1="335.5" x2="299.9" y2="340.7"/>
			<line class="st6" x1="299.5" y1="335.5" x2="290.5" y2="340.7"/>
			<line class="st6" x1="290.4" y1="335.7" x2="281.1" y2="340.8"/>
			<line class="st6" x1="281.3" y1="335.7" x2="271.7" y2="340.8"/>
			<line class="st6" x1="272.2" y1="335.7" x2="262.3" y2="340.8"/>
			<line class="st6" x1="263" y1="335.7" x2="253" y2="340.8"/>
			<line class="st6" x1="253.9" y1="335.7" x2="243.6" y2="340.8"/>
		</g>
	</g>
	<g>
		<g>
			<rect x="278.6" y="111" class="st9" width="41.9" height="17.8"/>
			<text transform="matrix(1 0 0 1 282.5677 124.4436)" class="st10 st11 st12">56cm</text>
		</g>
		<g>
			<rect x="271.5" y="202.6" class="st9" width="60.4" height="16.8"/>
			<text transform="matrix(1 0 0 1 274.1429 216.4661)" class="st10 st11 st12">50-53cm</text>
		</g>
		<g>
			<rect x="278.6" y="235" class="st9" width="41.9" height="17.8"/>
			<text transform="matrix(1 0 0 1 282.5677 248.366)" class="st10 st11 st12">52cm</text>
		</g>
		<g>
			<rect x="278.6" y="266.9" class="st9" width="41.9" height="17.8"/>
			<text transform="matrix(1 0 0 1 282.5677 280.3333)" class="st10 st11 st12">33cm</text>
		</g>
		<g>
			<rect x="278.6" y="337.4" class="st9" width="41.9" height="17.8"/>
			<text transform="matrix(1 0 0 1 282.5677 350.8025)" class="st10 st11 st12">31cm</text>
		</g>
		<g>
			<rect x="278.6" y="389.8" class="st9" width="41.9" height="17.8"/>
			<text transform="matrix(1 0 0 1 282.5677 403.1643)" class="st10 st11 st12">52cm</text>
		</g>
		<g>
			<g>
				<line class="st13" x1="407.8" y1="133.8" x2="407.8" y2="120.6"/>
				<polygon class="st14" points="407.4,127.2 396,133.8 396,120.6 				"/>
			</g>
			<line class="st13" x1="203.2" y1="127.2" x2="396" y2="127.2"/>
			<g>
				<polygon class="st14" points="191.7,127.5 203.2,134.1 203.2,120.9 				"/>
				<line class="st13" x1="191.3" y1="134.1" x2="191.3" y2="119.9"/>
			</g>
		</g>
		<g>
			<g>
				<line class="st13" x1="408.6" y1="278.5" x2="408.6" y2="213.7"/>
				<polygon class="st14" points="408.2,220.4 396.7,227 396.7,213.7 				"/>
			</g>
			<line class="st13" x1="199.4" y1="220.4" x2="398.4" y2="220.4"/>
			<g>
				<polygon class="st14" points="191.8,220.6 203.2,227.2 203.2,214 				"/>
				<line class="st13" x1="191.4" y1="277.8" x2="191.4" y2="213.1"/>
			</g>
		</g>
		<g>
			<g>
				<line class="st13" x1="189.4" y1="334.8" x2="189.4" y2="413.1"/>
				<polygon class="st14" points="189.8,406.5 201.2,399.8 201.2,413.1 				"/>
			</g>
			<line class="st13" x1="400.1" y1="406.5" x2="197.3" y2="406.5"/>
			<g>
				<polygon class="st14" points="410.2,406.2 398.7,399.6 398.7,412.8 				"/>
				<line class="st13" x1="410.6" y1="334.7" x2="410.6" y2="413.8"/>
			</g>
		</g>
		<g>
			<g>
				<line class="st13" x1="399.7" y1="258.7" x2="399.7" y2="245.5"/>
				<polygon class="st14" points="399.3,252.1 387.8,258.7 387.8,245.5 				"/>
			</g>
			<line class="st13" x1="203.2" y1="252.1" x2="396" y2="252.1"/>
			<g>
				<polygon class="st14" points="200.8,252.4 212.3,259 212.3,245.8 				"/>
				<line class="st13" x1="200.4" y1="259" x2="200.4" y2="244.8"/>
			</g>
		</g>
		<g>
			<g>
				<line class="st13" x1="358.7" y1="289.7" x2="358.7" y2="276.5"/>
				<polygon class="st14" points="358.3,283.1 346.8,289.7 346.8,276.5 				"/>
			</g>
			<line class="st13" x1="247.6" y1="283.1" x2="347.9" y2="283.1"/>
			<g>
				<polygon class="st14" points="241.3,283.4 252.8,290 252.8,276.8 				"/>
				<line class="st13" x1="240.9" y1="290" x2="240.9" y2="275.8"/>
			</g>
		</g>
		<g>
			<g>
				<line class="st13" x1="370.2" y1="360.2" x2="370.2" y2="346.9"/>
				<polygon class="st14" points="369.8,353.6 358.3,360.2 358.3,346.9 				"/>
			</g>
			<line class="st13" x1="236.8" y1="353.6" x2="360" y2="353.6"/>
			<g>
				<polygon class="st14" points="230.2,353.8 241.7,360.5 241.7,347.2 				"/>
				<line class="st13" x1="229.8" y1="360.5" x2="229.8" y2="346.3"/>
			</g>
		</g>
	</g>
</g>
</svg>
