<svg id="Camada_1" data-name="Camada 1" xmlns="http://www.w3.org/2000/svg" viewBox="0 0 1238.86 1040"><defs><style>.cls-1,.cls-11,.cls-12,.cls-13,.cls-3,.cls-6,.cls-7{fill:#fff;}.cls-1,.cls-10,.cls-11,.cls-12,.cls-13,.cls-2,.cls-4,.cls-5,.cls-6,.cls-7,.cls-8{stroke:#1d1d1b;}.cls-1,.cls-10,.cls-11,.cls-12,.cls-13,.cls-2,.cls-4,.cls-5,.cls-6,.cls-7,.cls-8,.cls-9{stroke-miterlimit:10;}.cls-1,.cls-2,.cls-4{stroke-width:1.51px;}.cls-2,.cls-5{fill:#e2e2e2;}.cls-4{fill:#bdbdbd;}.cls-5{stroke-width:1.39px;}.cls-6{stroke-width:0.76px;}.cls-7,.cls-8{stroke-width:2px;}.cls-8{fill:#adadad;}.cls-10,.cls-9{fill:none;}.cls-9{stroke:#ff29ff;stroke-width:1.35px;}.cls-10{stroke-width:0.75px;}.cls-11{stroke-width:2.28px;}.cls-12{stroke-width:2.9px;}.cls-13{stroke-width:3px;}</style></defs><title>categoria acessorios icone</title><path class="cls-1" d="M357,211.17l-2.54-5.33a8.28,8.28,0,0,0-.11-5.64c-1.15-3.18-7.84-16.35-8.72-16.72s-6.76-9.06-22.22-7.27-29.27,11.94-30.54,13.48-13,8.68-2.06,32.49c0,0,5.58,5.46,7.09,8.78a33.74,33.74,0,0,0,3.95,6.36Z"/><path class="cls-1" d="M387.44,269.86l-28.46-58s-25.33-12-60,22.32l27,62.25S368.13,272.92,387.44,269.86Z"/><path class="cls-1" d="M312.75,311s58.51-63.26,117.88-37.88l75.12,163.38S462.06,313.67,312.75,311Z"/><path class="cls-1" d="M127.21,667.89s3.94,20.54,38.78,60.89S305.3,813,389.26,785.23C458,762.5,508,721.73,535.2,646.14s-7.61-152.4-7.61-152.4Z"/><path class="cls-1" d="M117.65,630.07s3.76,39.35,38.6,79.7S298.19,801,379.53,766.21s118.71-63.5,145.93-139.09-7.61-152.4-7.61-152.4Z"/><path class="cls-2" d="M130.64,500.18C91,594.48,142.05,705.92,244.7,749.09c85.24,35.84,215.08-16.58,254.73-110.88S475,447.46,388.31,407.58C287.14,361.06,170.29,405.87,130.64,500.18Z"/><path class="cls-3" d="M128.22,652.23s-7.18-8.55-.09-13.58,87.55-40,96.91-45.18,64.72-19.2,46.74-32.29-148.4-22.28-148.4-22.28l3.82-11.72c21.49-3.12,44.13,2.81,44.13,2.81s16.42-.28,8.21-3.73-46.71-12.46-46.71-12.46l3.55-8.45A105.66,105.66,0,0,1,150,507.76c5.69,1.56,83.08,25.82,115.06,36.51s24.32-13.81,24.32-13.81c-32.86-60.51-71-111.09-71-111.09L229.64,415c3.62,1.25,21.29,32.16,21.29,32.16s6.48,8.25,6.49,4.94-15-46.38-15-46.38L253,403.4c-.05,7,11.73,35.19,11.73,35.19s27.95,73.5,35.59,85.89,15.47.64,15.47.64,9.93-23.59,23.08-67.69,24.73-67.35,24.73-67.35c6.93,1.26,9.78,3,9.78,3-2.22,2.66-15.62,38.47-15.95,43.86s2.95,1.52,2.95,1.52c16.71-35.8,28.44-43.31,28.44-43.31l9.2,5.39c-13.27,3.95-64.22,109.35-66.71,126.12S345.62,541,345.62,541l100-54.79s36.29-19.28,41.31-19.38,6.82,10.05,6.82,10.05-40.48,12.82-60.37,24.63c0,0-18.7,9,14.86.16s38.24-12.1,49.31-12.14l8,10.55s-15.06-1.64-67.45,15.84-85.37,31.52-89.64,37.74-2.59,15.35,32.7,19.48S496,599.64,508.59,603.84h0l-3,9.78s-52.48-20.41-67.92-19.16c0,0-4.39,4.6,35.46,19.47C509.35,627.45,501,629.34,501,629.34L496.82,640s-21.18-18.24-62-32.91-89-27.49-89-27.49-16.35-3.83-13.41,14.81S404.15,712,407,714.53s8.57,11.28,8.57,11.28l-10.7,5.73s-30-46.89-33.48-49.17,17.18,52.89,17.91,57.07c0,0-11.7,6.81-14.85,5.76S329.58,607,324.27,602.59s-14.36-14.05-22.39,9.1-41.12,120.56-36.06,142l-11.35-2.85s10-56,9.3-59.61-22.65,46.48-22.53,53.44l-11.19-4.25S292.39,602.17,292,597.29s-3.25-19.87-24-7.89-95.53,52.39-110.65,67.31S140.63,676,140.63,676l-6.53-10.76a268.91,268.91,0,0,1,38.28-30.59l26-17.24s-45.52,19.88-55.84,25.7C131.35,649.39,128.22,652.23,128.22,652.23Z"/><path class="cls-1" d="M105.38,610.63s-4.13,29.23,38.45,67c43.36,38.49,126.54,80.92,218.47,48.16,76.05-27.1,111.81-52.7,148.22-129.87,34.28-72.66-4.77-159.47-4.77-159.47Z"/><path class="cls-1" d="M104.57,436.46C61,540.13,90.33,646,198,691.27s248.76-2.18,292.35-105.84S511,382.17,405.66,331.61C294.28,278.14,148.16,332.79,104.57,436.46Z"/><path class="cls-4" d="M129.6,445.38c-37.4,88.93-13.83,176.79,97,223.06C311.79,704,429,651.14,466.39,562.21s-21.8-182.7-96.85-217.48C282,304.17,167,356.45,129.6,445.38Z"/><path class="cls-5" d="M142,447.41c-34.37,81.72,6.88,167.71,88.6,202.08,67.86,28.53,178.08-10.34,212.44-92s-14.88-162.66-83.84-194.62C278.78,325.55,176.37,365.69,142,447.41Z"/><path class="cls-6" d="M111,584.21s-7.18-8.55-.09-13.58,87.55-40,96.91-45.18,64.72-19.2,46.74-32.29-148.4-22.28-148.4-22.28l3.82-11.71C131.42,456,154.07,462,154.07,462s16.42-.28,8.2-3.74-46.7-12.46-46.7-12.46l3.55-8.45a105.64,105.64,0,0,1,13.63,2.41c5.7,1.56,83.08,25.83,115.06,36.51s24.32-13.81,24.32-13.81c-32.85-60.51-71-111.09-71-111.09L212.38,347c3.62,1.25,21.29,32.17,21.29,32.17s6.48,8.24,6.49,4.93-15-46.38-15-46.38l10.63-2.3c0,7,11.73,35.19,11.73,35.19s27.95,73.5,35.58,85.89,15.48.65,15.48.65,9.92-23.6,23.08-67.7,24.73-67.34,24.73-67.34c6.93,1.25,9.78,3,9.78,3-2.22,2.65-15.62,38.46-15.95,43.85s2.95,1.52,2.95,1.52c16.71-35.8,28.43-43.3,28.43-43.3l9.2,5.38c-13.26,4-64.21,109.35-66.71,126.13s14.3,14.3,14.3,14.3l100-54.8s36.29-19.28,41.3-19.38,6.83,10.05,6.83,10.05S436,421.65,416.11,433.46c0,0-18.7,9,14.85.17s38.25-12.1,49.32-12.15l8,10.55s-15.07-1.64-67.45,15.85-85.37,31.52-89.64,37.73-2.59,15.35,32.7,19.48,114.83,26.54,127.44,30.73l3.42,1.72-3,9.78s-55.9-22.12-71.35-20.88c0,0-4,3.57,35.47,19.47s32.35,19,32.35,19l-6.09,7.93s-23.75-19.1-64.55-33.77-89-27.49-89-27.49-16.35-3.83-13.42,14.81S386.89,644,389.75,646.51s8.57,11.28,8.57,11.28l-10.7,5.73s-30-46.89-33.48-49.17,16.12,49,16.85,53.23c0,0-7.25,6.07-10.4,5S312.32,539,307,534.57s-14.36-14.05-22.39,9.1S243.9,666.91,249,688.38l-12.35-2.16s10.59-59.37,9.9-63-23.4,50.39-23.28,57.35l1.18,4.08-15-4.66s65.75-145.86,65.32-150.74-3.25-19.88-24-7.9S155.14,573.77,140,588.69s-16.65,19.25-16.65,19.25l-6.53-10.76a268.52,268.52,0,0,1,38.28-30.6l26-17.23s-45.52,19.88-55.85,25.7C114.09,581.38,111,584.21,111,584.21Z"/><path class="cls-7" d="M541.94,361.52c9.67,10.34,46.3,2.47,75-24,28-25.74,39.67-44.68,30.12-57.16s-41.75-3.86-71.92,19.24C551,318.11,528.79,347.46,541.94,361.52Z"/><ellipse class="cls-7" cx="591.43" cy="593.52" rx="189.69" ry="218.01"/><ellipse class="cls-8" cx="618.33" cy="589.57" rx="189.69" ry="218.01"/><ellipse class="cls-9" cx="745.35" cy="606.2" rx="54.28" ry="55.93"/><path class="cls-7" d="M489.46,698.39,476.65,663.1s-19.33-3.59-21.12-1,9.89,27,9.89,27Z"/><polygon class="cls-7" points="456.6 718.07 472.4 671.87 480.02 672.39 488.29 695.16 477.55 721.54 456.6 718.07"/><polygon class="cls-7" points="489.46 698.39 501.38 717.94 477.55 721.54 487.31 697.56 489.46 698.39"/><path class="cls-7" d="M432.87,713.23c-3.66,1.8-11.17,12.58-11.17,12.58-2.66.21-3.46,2.37-3.65,4.27a7.71,7.71,0,0,0,.76,4c.52,1.1.79,2.38-1.43,2.85-4.28.92-2.12,5.58-1.63,6.58.81,1.67-1.16,2.87-1.16,2.87-3.15.56-2.44,6.12-1.32,7.63s-.61,2.64-.61,2.64c-3.71,1.18-3.21,6.75-2.48,7.93a1.68,1.68,0,0,1,.14,1.32,3.29,3.29,0,0,1-1.8,2.11c-2.88,1.44-2.24,5.29-1.31,6.57a2.12,2.12,0,0,1-.34,2.7c-5.06,1.79-3.49,7-3,8.2a4.81,4.81,0,0,1-.25,2.92c-5.87,6.29,0,11.8,0,11.8-.68,13.94,12.14,20.68,12.14,20.68l68.15,14.27,33.21-110.92-81.59-12Z"/><line class="cls-10" x1="403.61" y1="799.64" x2="469.91" y2="814.36"/><line class="cls-10" x1="405.16" y1="787.93" x2="472.17" y2="801.1"/><line class="cls-10" x1="408.12" y1="776.76" x2="474.43" y2="790.14"/><line class="cls-10" x1="411.23" y1="765.73" x2="478.68" y2="779.52"/><line class="cls-10" x1="414.93" y1="755.42" x2="481.23" y2="769.58"/><line class="cls-10" x1="416.96" y1="744.84" x2="484.18" y2="758.62"/><line class="cls-10" x1="420.1" y1="735.65" x2="487.33" y2="749.41"/><line class="cls-10" x1="421.7" y1="725.81" x2="490.98" y2="738.06"/><path class="cls-10" d="M435,806.43s-4.38-7.69,1.74-12.29"/><path class="cls-10" d="M436.76,794.14s-2.8-7.33,2.66-11.06"/><path class="cls-10" d="M439.38,783.28s-2.16-7.38,3.3-11.12"/><path class="cls-10" d="M442.68,772.16s-1.4-7.51,3.59-10"/><path class="cls-10" d="M446.27,762.13s-1.69-7.89,3.7-10.4"/><path class="cls-10" d="M449.41,752.38s-1.69-7.89,3.7-10.4"/><path class="cls-10" d="M452.64,742.16s-1.69-7.89,3.7-10.4"/><path class="cls-10" d="M456,731.93s2.31-9.66,9.53-12.38"/><ellipse class="cls-7" cx="691.07" cy="599.47" rx="189.69" ry="218.01"/><ellipse class="cls-7" cx="719.39" cy="602.87" rx="189.69" ry="218.01"/><ellipse class="cls-11" cx="741.86" cy="606.39" rx="50.91" ry="59.67"/><path class="cls-7" d="M650.77,386.39s-15.78-5.95-30.61-1.53S578,398,567.9,392.65,543.29,364,543.29,364s37.91,15.4,82.93-33c41.58-44.72,17.87-53.6,17.87-53.6l89.34,107.51S709.37,377.44,650.77,386.39Z"/><path class="cls-7" d="M650.77,386.39,638,370.06l41.81-16.86,23.26,28.69S677.34,379.8,650.77,386.39Z"/><path class="cls-7" d="M575.43,348.26s36.86-13.71,51-41.13c0,0,3.59-6.29,2-9.44-2-4-8.09-5.62-8.09-5.62a84.71,84.71,0,0,1-21.13,25.85c-15.73,13-31.91,19.73-33.71,19.33S568.69,345.79,575.43,348.26Z"/><ellipse class="cls-12" cx="583.82" cy="302.36" rx="50.53" ry="22.1" transform="translate(-55.45 455.99) rotate(-40.89)"/><path class="cls-7" d="M496.77,253.86l55.29,66.42s38.6-19.33,41.46-34.16,0-15.51,0-15.51L552.06,217.9Z"/><path class="cls-7" d="M498.34,248.47s-4.27,2.25-1.57,5.39,20.67.45,37.75-11.46,17.54-24.5,17.54-24.5-1.58-5.84-6.3.23S498.34,248.47,498.34,248.47Z"/><path class="cls-7" d="M498.34,248.47l-12.68-16.4,46.15-36,14,22s-9.66,15.51-19.33,22S509.35,249.14,498.34,248.47Z"/><path class="cls-7" d="M496.77,200.37c-12.76,11-18,22.93-13.73,29.54,5.19,8.1,21.74,4.21,34.5-6.84s19.52-23.57,13.22-30.84S509.53,189.32,496.77,200.37Z"/><path class="cls-7" d="M505.69,818.55l23.05-72.91s2.87-14.83-7.25-18.2-15.51.17-18.88,3.2c-2.16,2-11.21,24.26-17.41,40a228.24,228.24,0,0,0-9.63,30.57l-3.13,13.06s-3,17.53,11.12,19.55c10.62,1.52,13.47-.09,16.72-4.48A36.7,36.7,0,0,0,505.69,818.55Z"/><path class="cls-13" d="M854.17,502.88s-18.07-48.8-6.86-72.4,66.15-43.61,66.15-43.61L909,487.34Z"/><circle class="cls-13" cx="964.58" cy="684.89" r="219.26"/><circle class="cls-13" cx="983.69" cy="680.42" r="130.76"/><rect class="cls-13" x="884.64" y="620.53" width="23.25" height="39.19" rx="11.62" ry="11.62" transform="translate(-32.17 1232.63) rotate(-68.08)"/><rect class="cls-13" x="897.23" y="742.47" width="39.19" height="23.25" rx="11.62" ry="11.62" transform="translate(-264.69 869.16) rotate(-45)"/><rect class="cls-13" x="1016.6" y="749.37" width="23.25" height="39.19" rx="11.62" ry="11.62" transform="translate(-224.86 489.07) rotate(-24.2)"/><rect class="cls-13" x="1057.01" y="653.58" width="39.19" height="23.25" rx="11.62" ry="11.62" transform="translate(-55.37 99.32) rotate(-5.15)"/><path class="cls-13" d="M1068.38,762.29a12.71,12.71,0,0,1-6.65,4.37c-3.33.83-7.52.35-10-5.77-4.52-11.32-8.48-31.11,1.7-50.06s30.88-24.55,35.92-22.91,11,7.63,9.05,18.38C1096,719.3,1091,734.7,1068.38,762.29Z"/><path class="cls-13" d="M934,791.49a12.87,12.87,0,0,1-6.18-5c-1.81-2.92-2.63-7.06,2.48-11.26,9.4-7.74,27.06-17.52,48.21-13.58s32.81,21.91,32.73,27.28-3.93,12.83-14.77,14.2C983.39,804.77,967.2,804.68,934,791.49Z"/><path class="cls-13" d="M864.94,672.17a12.7,12.7,0,0,1,2.26-7.64c2-2.79,5.5-5.14,11.31-2.07,10.78,5.66,26.63,18.19,31.16,39.23s-7.52,38.71-12.5,40.72-13.35,1.34-18.81-8.13C871.76,722.83,865.58,707.86,864.94,672.17Z"/><path class="cls-13" d="M948.8,563.47c2.51-1,4.84-5,7.51-4.52,3.4.61,7,2.78,6.7,9.38-.54,12.16,8.27,28.2-8.84,41.25s-42.37,9.06-52.88,6.51c-5.22-1.27-9.56-8.36-3.32-17.33C905.52,587.85,908.36,580.16,948.8,563.47Z"/><path class="cls-13" d="M1100.53,374c-21.88-62.06-91.14-92.8-151.47-69.94s-90.35,91.21-67,152.73l70.43,230.6s17.74,50,65.23,38.05,53.42-65,53.42-65l29.12-184c1.42-9,3.11-17.86,5-26.75C1108.06,436,1111.83,406.29,1100.53,374Z"/><circle class="cls-13" cx="999.77" cy="678.24" r="36.94"/><path class="cls-13" d="M988,666.06l2.17-1.74a2,2,0,0,1,2.35-.1l5.82,4h4.72l6.85-2.7a2.66,2.66,0,0,1,2.77.51l1.56,1.43a2.66,2.66,0,0,1,.53,3.26l-3.31,6,.28,7.64,2.26,3.05a2.54,2.54,0,0,1-.07,3.08l-2.15,2.66a2.52,2.52,0,0,1-3.54.38l-.17-.14-2.81-2.72-7.64-.94-4.71,2.51a3.09,3.09,0,0,1-3.61-.5l-2.26-2.26a3.07,3.07,0,0,1-.44-3.9l3.31-5.08.57-5.89-3-5.56A2.26,2.26,0,0,1,988,666.06Z"/><path class="cls-13" d="M874.56,403.78l-31.88,28.48L797,363.69s42.42-46.75,88.8-77.62,65.45-40.13,92.51-49.58l46.82,65.29Z"/><path class="cls-13" d="M822.15,295.49c.2.09,7.12,13,20.47,6.76s63-43.66,63-43.66,5.22-3.79,4.31-9.91S906.61,237.3,903,235,822.15,295.49,822.15,295.49Z"/><path class="cls-13" d="M838.93,322.69s-2.27-12.87,2.66-20,64.55-46.78,64.55-46.78a88.1,88.1,0,0,1,17.31,6.23S861.18,298.27,838.93,322.69Z"/><path class="cls-13" d="M761.29,169.29s2.61-10.67,20.32-22.21,29.62-11.23,29.62-11.23l14.5,19.92s-15.71,5.64-26.1,14.12a241.06,241.06,0,0,0-21.71,20.93l-3.33-.8Z"/><path class="cls-13" d="M826.25,157.14s8.9-1.25,9.78,5.07-3.6,1.66-6.87,2.6-14.88,6.24-23.07,11.76-23.36,22.16-24.28,23.72-3.89,2.53-4.32.58-4.19-1.89.45-10C781.57,184.43,812.43,156.41,826.25,157.14Z"/><path class="cls-13" d="M781.84,200.22l45,66.12s14.89-13.81,27-21,24.79-13.17,24.79-13.17L832.42,165S806.32,168.41,781.84,200.22Z"/><path class="cls-13" d="M820.56,271.49l62-42.08a13.91,13.91,0,0,1,19.33,3.7h0a13.91,13.91,0,0,1-3.7,19.33l-62,42.08a13.91,13.91,0,0,1-19.33-3.7h0A13.92,13.92,0,0,1,820.56,271.49Z"/></svg>