<svg xmlns="http://www.w3.org/2000/svg" viewBox="0 0 448.38 243.55"><defs><style>.cls-1,.cls-3{fill:#fff;}.cls-1,.cls-2{stroke:#000;}.cls-1,.cls-2,.cls-3,.cls-4{stroke-miterlimit:10;stroke-width:0.75px;}.cls-2,.cls-4{fill:none;}.cls-3,.cls-4{stroke:#020202;}</style></defs><title>Ativo 1</title><g id="Camada_2" data-name="Camada 2"><g id="Camada_1-2" data-name="Camada 1"><path class="cls-1" d="M409.23,162.76l-.31,2.91a2.48,2.48,0,0,1-.64.9c-.45.39-8.07,4.17-8.07,4.17l-.67,1.74-3.84,1.23.37,1.29s-.06.56-3,1.65l.31,10.92-1.51,1.23a16.23,16.23,0,0,1-6.31.59l-2-1.26-.82-8.79-.92-.17-.25-.95-.73,1.46s-6.19,1.84-10.11-.4l-1.26-6.41-2.86.36s0,3.56-4.59,5.16l-2.13.47s-.36.28-1.84-.39a56.62,56.62,0,0,1-5.58-3.64s-1.57.06-1.4-2.77a1.62,1.62,0,0,1,1-1.4l26-4.06,1.18-2.75"/><path class="cls-1" d="M382.11,192.51l16.09-2.24a1.58,1.58,0,0,1,.84-.61c.46-.09,6.23-.84,6.23-.84h2.06a1.36,1.36,0,0,1,.82.75l.42.74.53,1.05.27,4.31a9.75,9.75,0,0,1-4.24.39s-1.77-.18-2.1-.71l-7.75,2.18,22.81,5,.48-.29,13.88,3.07.15.46a1.14,1.14,0,0,1,.9.69l.4,6.36-2.56.78-3.34-.5a2,2,0,0,1-1.3-1v-1.57l-39.13-6.16s-6.51-.61-7.44,1.62l-1.24,19-3.57.69-4.09-.76.25-19s.4-2.17-6.8-1.83l-39.87,5.19v1.34s.05.78-1.3,1.13a22.27,22.27,0,0,1-3.49.49l-2.47-.93.48-5.79a1.23,1.23,0,0,1,.88-1.18l.36-.5,14.11-2.69.36.38L357.05,197l-7.16-2.31s-.55.88-4.2.61c0,0-1.89-.19-2.16-.61l.29-4,1.3-2.56a1.75,1.75,0,0,1,1.39-.38l6.68,1a4.39,4.39,0,0,1,1.7.86L370,192.3"/><path class="cls-1" d="M378.35,180.31a4.51,4.51,0,0,1,2.52.65l.12,1.6a.72.72,0,0,1,.36.38l.06,1.11a1.34,1.34,0,0,1,.47.46l.23,9.26c.38.57.21.89.21.89-1.09,1.53-6.05,1.53-6.05,1.53-6,0-6.45-1.51-6.51-1.95a.58.58,0,0,1,.31-.61v-1.22s.19-7.5.21-7.86.47-.44.47-.44l.12-1.24c0-.21.38-.25.38-.25l.13-1.57c.14-.44,2-.74,2-.74v.42a9.73,9.73,0,0,0,4.94,0Z"/><path class="cls-1" d="M417.1,125.14v-8.28a2.22,2.22,0,0,0-.67-1.38c-.63-.59-6.72-4.71-6.72-4.71h-3.53v-2.1a1.81,1.81,0,0,1,1.51-2.06c1.81-.46,29.91-.5,32.22.3a23.92,23.92,0,0,1,3.57,1.51s.88.67,1,1.22a4.92,4.92,0,0,1,0,1.39s-1.56.46-6.94.46l-4.81,0-6.06,4a2.17,2.17,0,0,0-.87,1.58c-.1,1.09-.18,5.1-.18,5.1"/><path class="cls-1" d="M343.45,157.08l-.62.28-17.36-3s-1.4.22-2.29-2.69l-.68-10.53a16.36,16.36,0,0,1,.4-3.81l-.28-2.13a3.12,3.12,0,0,1,.33-1.82c.48-.7,3-4.31,3-4.31a1.76,1.76,0,0,0,.16-1.06c-.05-.73-.67-5.3-.67-5.3L321,103.53a1.56,1.56,0,0,1,.11-1.31l.78-1.23s-5.9-23.27-6.24-30.22S314,47.58,314,47.58s0-6.72,4.26-11.2a87.42,87.42,0,0,1,8.73-8,4.07,4.07,0,0,0,1.74-2.86l2.86-18.31S332,4.68,334,3.73c1-.47,1.94-1,2.69-1.46a6.4,6.4,0,0,1,3.1-.89,42.17,42.17,0,0,1,14.15,2l.11,0a8.7,8.7,0,0,1,6.39,5.38A131.49,131.49,0,0,1,364.9,22s2.24,8.4,7.17,10.7,13.22,9,13.22,9,6.16,3.7,3,13S384,67.07,384,67.07s-2.19,7.06,1.73,16.36a132.82,132.82,0,0,0,10,18.48s8.85,12.66,2.13,24c0,0-4.53,6.1-4.87,6.38s2.18,3.75,2.18,3.75,4.93.73,6.56,0,2.74.51,12-8.17,19.16-4.82,19.16-4.82,7.67,2.18,13.38,11-4.14,23.3-4.14,23.3-1.18,2.58-8.63,1.4l-29.4,4.6-.39.61a14.66,14.66,0,0,1-5.1,1.18l-5.88.39-2.47.28s-4.48-3.64-38.19-8"/><path class="cls-2" d="M321.91,101a2.18,2.18,0,0,1,1.48-1.14,23.62,23.62,0,0,1,3.75-.33s1.45.84,2.34,1.47l5.29,30-1.26.17.14.73s2.43.87,3.78,4.42a48.7,48.7,0,0,0,2.44,5.58l.63-.3s.76,0,.76.21a3,3,0,0,1-.34.86l2.63.63.22,4.87.05,3.49a1.48,1.48,0,0,0,.48.33v1.58s-.65,0-.56.33a26,26,0,0,1-.38,3.09"/><path class="cls-2" d="M343.73,148.12l-1.51.11a1.44,1.44,0,0,1-1.39-.7c-.4-.81-2-.41-2-.41l.09-4.46.54-.12,1.77.23"/><polyline class="cls-2" points="339.87 141.93 336.97 142.84 338.81 143.17"/><polyline class="cls-2" points="338.76 146.13 336.29 145.93 336.42 142.87"/><path class="cls-2" d="M322.9,137.36l.89,5s.37,3.25,3.11,3.14,2-5.35,2-5.35l-.76-6.28s-.22-1.73.9-1.93l4.42-.78"/><path class="cls-2" d="M328.29,136.77l-.77-4.62,1.65-4.59-3.42-26.32s-1-1.41-2-1.46"/><path class="cls-2" d="M332.25,131.2a16.26,16.26,0,0,1-2.94-8.62c-.17-5-1.77-21.51-1.77-21.51"/><line class="cls-2" x1="335" y1="114.15" x2="359.01" y2="115.98"/><path class="cls-2" d="M356.36,117.82l-4.83.18a24.2,24.2,0,0,1-3.49-.18c-1.55-.24-9.76-1-9.76-1"/><line class="cls-2" x1="432.74" y1="111.47" x2="409.54" y2="110.77"/><path class="cls-2" d="M413.28,113.25l9.63.27s2.53.08,3.51,0,3.29-.1,3.29-.1"/><path class="cls-2" d="M442.81,141.14s1.09-6.21-6.81-13.1-15.81-4.41-15.81-4.41"/><path class="cls-2" d="M367.42,160.27l-11.62,1.65-.11.67-4.46.93s-5.9,1-8.17-.9l.67-8.73s2.21,1.51,7.36.86c0,0,1-.36.23-.7v-1.34l.28-.28.75-31.2s.34-1.12.73-1.17,6-4.08,6-4.08l13.46-.48v-2.84a2.41,2.41,0,0,0-1.55-2.08s-16.07-2.45-24.41-1.74l-11.42.34-2.86,1.68s-1.09.27-.94,2.71l3.61.58,7.12,5.74s.82.23.76,2.1l.85,21.84"/><path class="cls-2" d="M353.14,3.23s-11-2.19-14.06-1.52a4,4,0,0,0-3.3,3.2L334.26,21.2A6.91,6.91,0,0,1,331.52,27a95.12,95.12,0,0,0-8.62,7.56s-1.63.73-.73,5.27,1.45,7,1.45,7,2.13,13,7.23,20.55c0,0,7.95,17.36,17.44,31L354,108.77"/><path class="cls-2" d="M345.89,108.77S333,83.88,325.75,72.9c0,0-8.51-20.72-8.51-30.13,0,0-.7-3.36,2.11-7.65"/><path class="cls-2" d="M328.68,37.1l5.42-4a1.23,1.23,0,0,1,1.93.29,7.28,7.28,0,0,1,1.05,3V47.77s0,2.14-1.39,3-7.64,2.1-7.64,2.1-.76,0-1-2.86c-.14-1.91.65-7.17,1.17-10.35C328.49,38.14,328.68,37.1,328.68,37.1Z"/><path class="cls-2" d="M327.07,49.82s3.54-1.34,4-1.68a1.54,1.54,0,0,0,.45-1.13l-.28-9.79-3,2.42"/><path class="cls-2" d="M327.08,50l7.35-1.68s1.05,0,.93-1.68.12-10,.12-10,.21-2.52-1.59-1.56a50.54,50.54,0,0,0-5.67,4.29"/><path class="cls-2" d="M340.69,34.9s-2.65,8.5-.84,22.61c0,0,.95,3.82,2.61,4a4.56,4.56,0,0,0,2.79-.5s3.55-3.21,7.64-3.53,8.34-1,13.78,4.16c0,0,2.56,2.35,4.33,1.13,0,0,.75.13,1.47-1a62.06,62.06,0,0,1-.51-7.62s-.82-8.65-.42-10.33a18.66,18.66,0,0,0,.42-3.41s-.65-4-4.09-3.59a11.77,11.77,0,0,0-4.31,1.91C362,40,354.87,40.28,348.38,36c0,0-2.61-2-2.8-2.13S342.89,31.88,340.69,34.9Z"/><path class="cls-2" d="M341.94,61.28s7.58-6.64,9.7-14c1.09-3.76-.26-7.89-3.39-11.36"/><path class="cls-2" d="M340.44,36.26s.09,21.69.19,23.4"/><path class="cls-2" d="M364.51,38.06s3.69-1.09,4.83,5.34,2.9,15.29,2.22,19"/><path class="cls-2" d="M362.07,39.2s.55-2.36,1.68-2.73,1-.72,3.07.46"/><path class="cls-2" d="M372.11,40.84l2.48,1.89a4,4,0,0,1,1.76,3c.26,2.14.76,6.3.76,6.3s.34,4.83-3.66,4.49l-1.34-.42"/><path class="cls-2" d="M371.48,45.41a1,1,0,0,1,.36.52c.09.34.82,7.17.82,7.17s0,.76-.55.55l1.3.5a1.07,1.07,0,0,0,1.26-1C374.76,52,374,46,374,46a4.39,4.39,0,0,0-.63-1.26,13.08,13.08,0,0,0-1.62-1.05"/><path class="cls-2" d="M375.59,56a6.74,6.74,0,0,1-.08,5.43c-1.26,3.32-5.46,10.88-5.85,14.69s-1.4,2.18-.5,9.74,6,23.81,6,23.81"/><path class="cls-2" d="M329.17,52.85a30.88,30.88,0,0,1,6.55,11.65,89,89,0,0,1,2.52,14.62l10.3,19.71"/><path class="cls-2" d="M339.25,140.33a12.08,12.08,0,0,0,4.14-3.36"/><path class="cls-2" d="M356.67,117.82s1.17,6.77-4.48,15"/><path class="cls-2" d="M352,140.33A24.81,24.81,0,0,0,356.4,134c1.18-2.94,6.34-6.25,8.49-6.63s6.84-3.11,18.14,4.87,11.3,10.92,11.3,10.92,3,12.22,4.33,14.83,2.39,5.67.21,7.16"/><path class="cls-2" d="M391.48,165.73s-.32-18.83-5.32-24.66c0,0-10-11.69-18.63-11.86s-13.18,8.3-13.18,8.3"/><path class="cls-2" d="M393.19,141.07s4.8,1.8,4.71,6.84,0,7.77,0,7.77"/><path class="cls-2" d="M389.84,137.49l12.39-.8s6.68-2.44,10.67-7.81"/><path class="cls-2" d="M389.84,125.1s6.48-9.13,4-18.26S384,84,384,84s-4.31-13.39-.62-18.93,5.68-17,5.68-17"/><line class="cls-2" x1="356.48" y1="123.71" x2="356.77" y2="133.25"/><path class="cls-2" d="M369.93,110.27s5.37-.36,8.81-.67a21,21,0,0,0,2.78-.34c.42-.25,4.41.51,6,4.75s4.44,17.26.6,22"/><path class="cls-2" d="M384.21,133s3-15.3-5.29-23.29"/><path class="cls-2" d="M362,128.48s-.39-9.38-1.85-12.4"/><polyline class="cls-2" points="351.68 154.39 352.16 159.34 356.56 158.65"/><path class="cls-2" d="M338.7,1.81s6.15,17,3.13,31.72"/><line class="cls-2" x1="337.12" y1="46.69" x2="339.7" y2="39.49"/><path class="cls-2" d="M362,39.34s1.59-8.63.67-13.54-4-19.78-4-19.78"/><path class="cls-2" d="M402.23,136.69s21.64-2.74,34.25.5c0,0,6.21,1,7,6.17s.79,8.9-.33,11.48a9.6,9.6,0,0,1-3.23,3.92"/><path class="cls-2" d="M371,182.87s5.78,2.42,10.12,0"/><path class="cls-2" d="M370.53,184.32s.32,1.82,5.92,1.74,5.22-1.88,5.22-1.88"/><path class="cls-2" d="M344.36,189.78s-.06.33.18.41,5.94,1.41,5.94,1.41a.76.76,0,0,0,.56-.18,16.75,16.75,0,0,0,.82-1.51s.35-.64.77-.5l2.12.22"/><path class="cls-2" d="M398.27,190.32a2.07,2.07,0,0,0,.77-.09c.4-.12,1.35-.43,1.83.17a2.6,2.6,0,0,1,.55,1.19s.07.84.86.71,6.1-1.05,6.1-1.05.39-.15.35-.5"/><path class="cls-2" d="M432.7,205.89s-.73,0-1.34,1.45a1.12,1.12,0,0,1-1.16.7l-13.14-2.73a.57.57,0,0,1-.51-.72s.15-.92.42-1.05a7.47,7.47,0,0,0,1.09-.92"/><path class="cls-2" d="M372.13,218.85l1.41-.9a1.06,1.06,0,0,1,.84-.23c.59,0,1.43,0,1.43,0a1.57,1.57,0,0,1,1.05.29l1.4,1,.57-6.13-.15-.61a2.8,2.8,0,0,0-1.63-1.3l-2.71-.09a2.18,2.18,0,0,0-1.33.49,7.41,7.41,0,0,0-.94.9L372,219Z"/><path class="cls-2" d="M318.91,204.36a3.12,3.12,0,0,1,1.35,1.7,1.13,1.13,0,0,0,1.36.61c1.05-.21,13-2.1,13-2.1s.5-.19.44-.61l-.15-1.07-.75-.92-.48-.45"/><polyline class="cls-2" points="318.26 204.72 320.36 207.24 320.13 212.25"/><path class="cls-2" d="M320.49,207.24l42.62-6.7s5.88-.84,8.73,1.45l-.39,17.93"/><line class="cls-2" x1="377.78" y1="196.12" x2="377.14" y2="210.98"/><line class="cls-2" x1="374.09" y1="196.12" x2="374.09" y2="210.9"/><polyline class="cls-2" points="433.31 206.17 431 208.98 431.09 213.43"/><path class="cls-2" d="M430.79,209l-43.43-8.4s-6.05-1.22-7.48,1.34l-1.43,17.14"/><line class="cls-2" x1="416.54" y1="203.55" x2="381.31" y2="195.46"/><line class="cls-2" x1="395.28" y1="197.53" x2="382.19" y2="194.53"/><line class="cls-2" x1="382.19" y1="193.73" x2="400.97" y2="190.54"/><line class="cls-2" x1="388.16" y1="195.81" x2="408.78" y2="191.44"/><path class="cls-2" d="M403.11,195.35l3.86-1.11s.68-.28,1,.14"/><line class="cls-2" x1="357.03" y1="196.95" x2="369.6" y2="194.41"/><line class="cls-2" x1="363.42" y1="195.53" x2="343.95" y2="190.65"/><path class="cls-2" d="M349.81,194.71l-4-1.31s-.78-.23-1,0"/><polyline class="cls-2" points="372.74 225.36 372.74 227.9 373.06 228.2 373.14 239.5 377 239.5 377 228.07 377.42 227.86 377.47 225.36"/><path class="cls-2" d="M372.8,225.68s2.57,1.47,4.58,0"/><path class="cls-2" d="M377.42,227.86l2.08,0s.8,0,.8.66,0,13.94,0,13.94,0,.61-.4.61l-2.47,0s-.59-.4-.55-1.87a12.3,12.3,0,0,0,0-1.64"/><path class="cls-2" d="M372.74,227.9h-2.23s-.71-.14-.71.76,0,13.88,0,13.88,0,.63.78.63h2.2a.5.5,0,0,0,.38-.29c.08-.25,0-3.38,0-3.38"/><path class="cls-2" d="M426,223.84s-1.12-4.4,2.47-6.5,7.64,1,8.51,2.72,3.12,6.57-1.43,9.18S426.37,226.36,426,223.84Z"/><path class="cls-2" d="M428,213.18s.17.82,2,.88,2.14,0,2.4-.69"/><line class="cls-2" x1="428" y1="213.39" x2="428" y2="217.8"/><path class="cls-2" d="M432.5,213.39v1.86s-3.3.21-4.41,2.22"/><path class="cls-2" d="M432.57,214.65a4.45,4.45,0,0,1,3.28-.12c1.89.61,3.5,1.45,4.95,4.63a6.25,6.25,0,0,1-.29,5.8,10.12,10.12,0,0,1-3.39,3"/><path class="cls-2" d="M429.26,216.23s4.41-1.43,7.35,1.61,2.52,5.7,2.52,5.7a7,7,0,0,1-1.39,4"/><path class="cls-2" d="M432.62,215a6.9,6.9,0,0,1,5.52,2,8.55,8.55,0,0,1,2.38,5.11,6.46,6.46,0,0,1-2.21,5"/><line class="cls-2" x1="438.96" y1="225.01" x2="440.1" y2="224.33"/><path class="cls-2" d="M427.11,223.25s-.46-4.38,3.45-4.94,5.73,3.76,5.73,3.76,1.79,5-2.39,6.23C429.43,229.67,427.14,224.66,427.11,223.25Z"/><path class="cls-2" d="M429.46,223a3,3,0,0,0,2.37,2.8c2.39.6,2.07-2.77,2.07-2.77a2.84,2.84,0,0,0-2.48-2C429.49,221,429.46,223,429.46,223Z"/><path class="cls-2" d="M430.71,221.12s.5-.42.75-.39a2.47,2.47,0,0,1,2.51,1.19c1.22,1.93-.7,3.71-.7,3.71"/><polyline class="cls-2" points="428.12 219.78 428.5 219.93 430.27 221.13 430.56 220.95 429.49 219.31 428.8 218.95"/><path class="cls-2" d="M429.49,218.61l.41.31.94,1.46s.44.1.47-.21v0L431,218.8l-.33-.48"/><path class="cls-2" d="M431.23,218.23l.25.44.35,1.48s.3.33.5.09l.24-1.33-.1-.44"/><path class="cls-2" d="M433.12,218.71l0,.34-.22,1.45s.22.3.42.24l.68-1.07.12-.36"/><path class="cls-2" d="M434.62,219.8l-.08.32-.66.94s0,.45.41.43l1.13-.78"/><path class="cls-2" d="M435.84,221.38l-1.19.63s-.35.52.18.59l1.51-.36"/><path class="cls-2" d="M436.51,223.23l-1.41-.08s-.63.22-.11.58l1.68.68"/><path class="cls-2" d="M436.24,226.29l-.41-.54-1.21-1s-.26-.57.24-.48a7.35,7.35,0,0,1,1.69.94"/><path class="cls-2" d="M434.89,227.85l0-.63a1.34,1.34,0,0,0-.21-.6c-.18-.25-.59-.88-.59-.88s-.24-.81.5-.48l1,1.17.32.58"/><path class="cls-2" d="M433.13,228.42l.18-.61a1.6,1.6,0,0,0,0-.82l-.25-.86s.13-.54.57-.21l.47.91a1.57,1.57,0,0,1,.22.61l0,.6"/><path class="cls-2" d="M431.27,228.32l.33-.49a1.31,1.31,0,0,0,.21-.7L432,226"/><polyline class="cls-2" points="432.44 225.99 432.8 227.46 432.51 228.43"/><polyline class="cls-2" points="429.48 227.37 429.95 226.97 430.83 225.57"/><polyline class="cls-2" points="431.39 225.81 431.11 227.4 430.38 227.97"/><polyline class="cls-2" points="428.21 225.86 428.75 225.39 429.9 224.68"/><polyline class="cls-2" points="430.39 225.22 429.6 226.31 429.17 226.94"/><path class="cls-2" d="M427.86,225.21l.43-.31a2.7,2.7,0,0,1,.56-.3,5.2,5.2,0,0,0,.77-.42"/><polyline class="cls-2" points="429.48 223.62 428.52 223.7 427.41 224.04"/><polyline class="cls-2" points="427.18 223.28 428.21 223.04 429.36 223"/><polyline class="cls-2" points="429.48 222.54 427.91 222.05 427.21 222.02"/><polyline class="cls-2" points="427.32 221.29 428.06 221.38 429.61 221.93"/><polyline class="cls-2" points="429.83 221.55 428.56 220.55 427.79 220.36"/><path class="cls-2" d="M325.71,222.6s1.12-4.39-2.46-6.49-7.65,1-8.52,2.71-3.12,6.58,1.43,9.19S325.35,225.12,325.71,222.6Z"/><path class="cls-2" d="M323.71,212s-.16.82-2,.88-2.14,0-2.39-.69"/><line class="cls-2" x1="323.71" y1="212.16" x2="323.71" y2="216.57"/><path class="cls-2" d="M319.21,212.16V214s3.31.21,4.41,2.21"/><path class="cls-2" d="M319.14,213.42a4.45,4.45,0,0,0-3.27-.13c-1.89.62-3.5,1.46-5,4.64a6.22,6.22,0,0,0,.29,5.79,10.09,10.09,0,0,0,3.39,3"/><path class="cls-2" d="M322.45,215s-4.41-1.42-7.35,1.62-2.52,5.69-2.52,5.69a7,7,0,0,0,1.39,4"/><path class="cls-2" d="M319.09,213.75a6.89,6.89,0,0,0-5.52,2,8.46,8.46,0,0,0-2.37,5.1,6.44,6.44,0,0,0,2.2,5"/><line class="cls-2" x1="312.75" y1="223.77" x2="311.62" y2="223.1"/><path class="cls-2" d="M324.6,222s.46-4.38-3.45-5-5.73,3.76-5.73,3.76-1.79,5,2.39,6.24C322.29,228.44,324.57,223.43,324.6,222Z"/><path class="cls-2" d="M322.25,221.81a3,3,0,0,1-2.37,2.8c-2.39.6-2.07-2.78-2.07-2.78a2.85,2.85,0,0,1,2.48-2C322.22,219.72,322.25,221.81,322.25,221.81Z"/><path class="cls-2" d="M321,219.89s-.5-.42-.75-.39a2.44,2.44,0,0,0-2.51,1.19c-1.22,1.93.7,3.71.7,3.71"/><polyline class="cls-2" points="323.6 218.55 323.21 218.7 321.45 219.89 321.15 219.72 322.22 218.08 322.91 217.72"/><path class="cls-2" d="M322.22,217.37l-.41.32-.94,1.46s-.44.1-.47-.21v0l.33-1.36.33-.47"/><path class="cls-2" d="M320.48,217l-.25.44-.35,1.48s-.3.32-.5.09l-.24-1.33.1-.45"/><path class="cls-2" d="M318.6,217.48l0,.34.22,1.44s-.22.31-.42.25l-.68-1.07-.12-.37"/><path class="cls-2" d="M317.09,218.56l.08.33.66.93s0,.45-.41.44l-1.13-.79"/><path class="cls-2" d="M315.87,220.15l1.19.63s.35.52-.18.59l-1.5-.36"/><path class="cls-2" d="M315.2,222l1.42-.07s.62.22.1.58l-1.67.68"/><path class="cls-2" d="M315.47,225.05l.41-.53,1.21-1s.26-.56-.24-.47a7.46,7.46,0,0,0-1.68.94"/><path class="cls-2" d="M316.83,226.62l0-.63a1.4,1.4,0,0,1,.21-.61c.18-.24.59-.87.59-.87s.24-.81-.5-.48l-1,1.16-.31.59"/><path class="cls-2" d="M318.58,227.19l-.18-.62a1.5,1.5,0,0,1,0-.81l.24-.87s-.13-.54-.57-.2l-.47.9a1.65,1.65,0,0,0-.22.62l0,.6"/><path class="cls-2" d="M320.44,227.08l-.32-.48a1.22,1.22,0,0,1-.21-.7l-.18-1.16"/><polyline class="cls-2" points="319.28 224.75 318.91 226.22 319.2 227.2"/><polyline class="cls-2" points="322.23 226.13 321.76 225.74 320.88 224.34"/><polyline class="cls-2" points="320.32 224.58 320.61 226.17 321.33 226.73"/><polyline class="cls-2" points="323.5 224.63 322.96 224.16 321.81 223.44"/><polyline class="cls-2" points="321.33 223.98 322.12 225.08 322.54 225.71"/><path class="cls-2" d="M323.85,224l-.42-.31a2.43,2.43,0,0,0-.57-.3,5.2,5.2,0,0,1-.77-.42"/><polyline class="cls-2" points="322.23 222.39 323.19 222.46 324.3 222.81"/><polyline class="cls-2" points="324.53 222.04 323.5 221.81 322.36 221.77"/><polyline class="cls-2" points="322.23 221.31 323.8 220.82 324.5 220.78"/><polyline class="cls-2" points="324.39 220.06 323.65 220.15 322.1 220.7"/><polyline class="cls-2" points="321.89 220.31 323.15 219.31 323.92 219.13"/><polyline class="cls-2" points="380.39 232.65 380.68 232.65 380.68 238.17 380.43 238.17"/><polyline class="cls-2" points="369.65 232.77 369.36 232.77 369.36 238.3 369.61 238.3"/><path class="cls-2" d="M404.1,196s0,.76,1.93.8,1.76-.69,1.76-.69"/><line class="cls-2" x1="404.06" y1="196.09" x2="404.06" y2="199.36"/><path class="cls-2" d="M407.94,196.13l.06,2a7.29,7.29,0,0,0-1.81,1.81"/><path class="cls-2" d="M404,197.28a4.33,4.33,0,0,0-1.42,1.77"/><path class="cls-2" d="M408,196.36l5.34,2s1.59.76,2,3.53"/><path class="cls-2" d="M408,198.12a4.71,4.71,0,0,1,2.85-.72"/><path class="cls-2" d="M409.33,200.53a2.91,2.91,0,0,1,2.36-1.25,3,3,0,0,1,2.73,2.35"/><line class="cls-2" x1="410.08" y1="199.88" x2="410.17" y2="200.7"/><polyline class="cls-2" points="410.77 199.5 410.59 199.96 410.64 200.81"/><polyline class="cls-2" points="411.56 199.36 411.25 199.77 410.93 200.86"/><polyline class="cls-2" points="412.18 199.44 411.77 199.91 411.47 200.96"/><polyline class="cls-2" points="411.69 201.03 412.22 200.21 412.86 199.71"/><polyline class="cls-2" points="413.39 200.05 412.68 200.52 412.24 201.14"/><polyline class="cls-2" points="412.68 201.34 413.3 200.85 413.94 200.69"/><polyline class="cls-2" points="413.45 201.47 413.74 201.3 414.24 201.27"/><path class="cls-2" d="M403.59,207a3.73,3.73,0,0,0,2.82,1"/><path class="cls-2" d="M404.83,207.12s.18.63,1.54.87a6.31,6.31,0,0,0,3.32,1.44,3.24,3.24,0,0,0,3-1"/><path class="cls-2" d="M407,207.52a5,5,0,0,0,2.65,1.94"/><path class="cls-2" d="M406,207.3a2.8,2.8,0,0,0,.35.69"/><path class="cls-2" d="M345.7,199.23a6.85,6.85,0,0,0-.61-2.36l.08-1.51s.17.8,2.07.7,1.56-.84,1.56-.84l.14,2.18a3.26,3.26,0,0,1-.21,1.24"/><path class="cls-2" d="M345.06,196l-3.08.29s-1.37.43-1.27,3.86"/><path class="cls-2" d="M343.48,199.6s0-2.72-1.5-3.36"/><path class="cls-2" d="M348.94,195.53l.53-.06s1.36.35,1.61,2.66"/><path class="cls-2" d="M345.09,196.87a3.28,3.28,0,0,0-.95-.78"/><path class="cls-2" d="M342.86,199.71s-.05-1.64-1-2.2-1,2.57-1,2.57"/><path class="cls-2" d="M341.18,198l.72.32a1.26,1.26,0,0,1,.41.63c.08.37.15.78.15.78"/><path class="cls-2" d="M340.9,199.19a1.77,1.77,0,0,1,1.06.37l.11.28"/><path class="cls-2" d="M342,207.08s.36.74.88.84a12.79,12.79,0,0,0,2.28-.19,3.38,3.38,0,0,0,.63-1.12"/><path class="cls-2" d="M343.93,206.81a1.38,1.38,0,0,1-1,1.12"/><path class="cls-2" d="M347.57,206.36a1.49,1.49,0,0,0,1,1l2-.17s.95-.63.89-1.29"/><path class="cls-2" d="M349.53,206.11s-.14,1-.93,1.29"/><path class="cls-2" d="M328.66,132.13a7.68,7.68,0,0,1,3.84,5.18,25.59,25.59,0,0,0,3.79,7.66"/><path class="cls-2" d="M337.2,146.08s2.44,3.3,4.35,2.92,2.27,2.54,2.27,2.54"/><path class="cls-2" d="M329.5,135.74s1.1,12.85,11.91,15.74"/><path class="cls-2" d="M341.63,149l-.84,1.23.53,1.12s1.26,3.33-.28,4.71l.51,1"/><path class="cls-2" d="M323.12,151.81a2.19,2.19,0,0,0,1.68,1.35C326,153.3,341,156.1,341,156.1"/><path class="cls-2" d="M322.9,138.09s-.06,1.88,0,3.22.44,6.47.44,6.47.14,4.26,3.31,4.87,14.87,2.61,14.87,2.61"/><polyline class="cls-2" points="338.05 77.76 355.01 85.11 369.3 78.19"/><polyline class="cls-2" points="343.3 88.79 355.9 93.55 369.09 86.96"/><polyline class="cls-2" points="347.5 97.23 349.32 97.99 357.7 101.49 370.77 94.64"/><line class="cls-2" x1="356.81" y1="108.88" x2="349.55" y2="98.21"/><line class="cls-2" x1="361.18" y1="109.28" x2="355.26" y2="100.47"/><line class="cls-2" x1="365.71" y1="109.87" x2="359.46" y2="100.57"/><line class="cls-2" x1="370" y1="110.4" x2="362.58" y2="99"/><line class="cls-2" x1="373.33" y1="109.87" x2="365.52" y2="97.32"/><line class="cls-2" x1="368.46" y1="95.97" x2="373.22" y2="103.37"/><line class="cls-2" x1="350.9" y1="103.03" x2="351.61" y2="98.95"/><line class="cls-2" x1="354.26" y1="108.66" x2="355.46" y2="100.85"/><line class="cls-2" x1="358.4" y1="109.05" x2="359.46" y2="100.73"/><line class="cls-2" x1="362.34" y1="109.43" x2="363.81" y2="98.31"/><line class="cls-2" x1="365.96" y1="109.83" x2="368.04" y2="96.13"/><line class="cls-2" x1="369.93" y1="110.19" x2="371.52" y2="97.6"/><path class="cls-2" d="M376.27,161.94s2.52-.09,4,3.19,3.63,4,3.63,4a3.84,3.84,0,0,0,3.37-.61l1.5-3.26"/><line class="cls-2" x1="380.6" y1="166.11" x2="378.01" y2="166.6"/><path class="cls-2" d="M369.52,172.87l10.7-1.15s2.94-3.32-1-5.21"/><path class="cls-2" d="M370.63,178.52a2.81,2.81,0,0,0,1.06-1.55c.21-1,10-5.71,10-5.71a10.64,10.64,0,0,1,3.1-1.22,54.19,54.19,0,0,0,5.34-1l18.59-2.88"/><polyline class="cls-2" points="400 170.74 387.63 172.79 378.54 176.78 379.4 178.25 381.63 177.9"/><line class="cls-2" x1="387.76" y1="172.73" x2="390.15" y2="169.1"/><path class="cls-2" d="M382.13,179.12l4.42-1.59,4-1.42s3-.82,3.86-.9,1.24-.13,1.33,0"/><path class="cls-2" d="M386.64,177.62s5.44-.1,6.41-.86"/><polyline class="cls-2" points="379.23 177.85 387.9 173.95 399.62 172.06"/><path class="cls-2" d="M409.23,162.85s5.94-.9,10.11-1c0,0,1.37-.17,1.82.39,0,0,2.74,3.19,3,5.85a1.4,1.4,0,0,1-.42,1.63c-.84.56-7.33,0-12.21-3l-4.51.61"/><path class="cls-2" d="M421.44,162.73s-9.05,2.16-9.61,2.72-.89.64-.44,1.2"/><path class="cls-2" d="M352.27,170.74l6.11,6.72s.5.73,2,.48,4.43-1.26,5.46-2.47"/><path class="cls-2" d="M353.22,171.58s11.34-.19,12.88.31c0,0,.73.06.73.31a8.65,8.65,0,0,1-.17,1"/><path class="cls-2" d="M409.4,106.47s17.78-.39,24.84.82c0,0,3,1.85,4.53,1.87S444,109,444,109"/><line class="cls-2" x1="440.5" y1="107.12" x2="434.24" y2="107.29"/><path class="cls-2" d="M406.45,107.41l27.64.63a9,9,0,0,0,3.44.91"/><path class="cls-2" d="M330,131.78a5.83,5.83,0,0,1,3.49,2.81c.94,2.12,2.5,6.55,2.5,6.55h1.09l.82,1.26"/><path class="cls-2" d="M371.4,181s4.93,1.89,9.45,0"/><path class="cls-2" d="M371.4,181s5.39,1.93,9.47,0"/><path class="cls-2" d="M331.77,111.46l23.89,1.93a46.26,46.26,0,0,0,5.12.17L371,113.2s1.65-.14.83-2.06"/><path class="cls-2" d="M335.19,109.18l23,1.69s3,.11,5,.09,7.42-.34,7.42-.34"/><polygon class="cls-1" points="331.42 43.48 339.22 45.31 339.16 48.92 331.52 47.07 331.42 43.48"/><path class="cls-1" d="M328,48.92l1.71.15a1.07,1.07,0,0,1,1.15.73c.35.86,2.28,4.11,2.28,4.11l12,38.26,5.64,10.47L335.22,53.58l-2.3-4.34s0-.68-1.5-.9l-1.95.23Z"/><polygon class="cls-1" points="373.16 109.87 368.96 63.15 370.11 63.18 371 62.8 371.74 62.62 375.56 109.77 373.16 109.87"/><path class="cls-1" d="M99.43,161.21l-.27,2.92a2.56,2.56,0,0,1-.64.91c-.44.39-8,4.27-8,4.27l-.65,1.75L86,172.34l.38,1.29s0,.56-3,1.69l.45,10.92-1.5,1.25a16.19,16.19,0,0,1-6.29.67l-2-1.23-.92-8.79-.93-.16L72,177l-.71,1.47s-6.17,1.93-10.12-.27l-1.34-6.4-2.85.4s0,3.56-4.53,5.22l-2.13.5s-.36.29-1.85-.37A56.37,56.37,0,0,1,42.83,174s-1.56.08-1.43-2.76a1.62,1.62,0,0,1,1-1.41l26-4.39"/><path class="cls-1" d="M72.67,191.33l16.07-2.45a1.64,1.64,0,0,1,.83-.62c.46-.09,6.23-.92,6.23-.92l2.06,0a1.35,1.35,0,0,1,.83.75l.43.73.54,1,.33,4.31a9.56,9.56,0,0,1-4.24.45s-1.77-.17-2.11-.69l-7.73,2.29,22.89,4.71.48-.3,13.93,2.89.15.46a1.15,1.15,0,0,1,.91.69l.48,6.36-2.55.81-3.35-.46a2,2,0,0,1-1.31-.95l0-1.58-39.24-5.66s-6.52-.53-7.42,1.71l-1,19-3.56.74-4.11-.71v-19s.37-2.17-6.83-1.75l-39.83,5.7,0,1.35s0,.77-1.29,1.15a23,23,0,0,1-3.48.53L8.3,211l.41-5.8A1.21,1.21,0,0,1,9.57,204l.36-.51L24,200.61l.36.37,23.27-4.81L40.45,194s-.53.89-4.19.66c0,0-1.9-.17-2.18-.58l.25-4,1.27-2.58A1.76,1.76,0,0,1,37,187l6.7.93a4.45,4.45,0,0,1,1.71.84l15.1,2.5"/><path class="cls-1" d="M68.75,179.17a4.41,4.41,0,0,1,2.53.62l.15,1.59a.76.76,0,0,1,.36.38l.08,1.11a1.36,1.36,0,0,1,.46.46l.35,9.26c.39.57.22.88.22.88-1.07,1.55-6,1.61-6,1.61-6,0-6.47-1.43-6.54-1.87a.57.57,0,0,1,.31-.61l0-1.22s.1-7.51.11-7.86.46-.45.46-.45l.11-1.24c0-.21.37-.26.37-.26l.11-1.58c.14-.44,2-.76,2-.76v.42a9.85,9.85,0,0,0,4.94-.06Z"/><path class="cls-2" d="M61.45,181.82s5.81,2.35,10.13-.13"/><path class="cls-2" d="M61,183.28s.35,1.82,6,1.66S72.13,183,72.13,183"/><path class="cls-2" d="M34.86,189.08s-.06.32.18.4,6,1.34,6,1.34a.74.74,0,0,0,.56-.19,16.24,16.24,0,0,0,.81-1.52s.34-.65.76-.52l2.12.2"/><path class="cls-2" d="M88.81,188.93a2.22,2.22,0,0,0,.77-.1c.4-.13,1.35-.45,1.83.15a2.59,2.59,0,0,1,.57,1.18s.08.84.87.71l6.09-1.13s.39-.16.34-.51"/><path class="cls-2" d="M123.47,204.08s-.74,0-1.33,1.46a1.09,1.09,0,0,1-1.15.71l-13.19-2.56a.56.56,0,0,1-.51-.71s.13-.93.41-1.06a8.45,8.45,0,0,0,1.08-.94"/><path class="cls-2" d="M63,217.81l1.39-.92a1.08,1.08,0,0,1,.84-.24c.59,0,1.43,0,1.43,0a1.53,1.53,0,0,1,1.06.29l1.42,1,.49-6.15-.16-.61a2.83,2.83,0,0,0-1.65-1.28l-2.72,0a2.17,2.17,0,0,0-1.31.5,7.4,7.4,0,0,0-.94.92l0,6.66Z"/><path class="cls-2" d="M9.57,204a3,3,0,0,1,1.37,1.68,1.14,1.14,0,0,0,1.38.59c1-.22,13-2.26,13-2.26s.5-.2.43-.62-.16-1.07-.16-1.07l-.77-.91-.49-.44"/><polyline class="cls-2" points="8.93 204.35 11.06 206.85 10.89 211.87"/><path class="cls-2" d="M11.19,206.85l42.56-7.25s5.88-.91,8.77,1.35l-.17,17.94"/><line class="cls-2" x1="68.38" y1="194.99" x2="67.93" y2="209.88"/><line class="cls-2" x1="64.68" y1="195.04" x2="64.87" y2="209.83"/><polyline class="cls-2" points="124.08 204.35 121.8 207.19 121.94 211.64"/><path class="cls-2" d="M121.59,207.19,78,199.34s-6.07-1.15-7.46,1.44l-1.21,17.16"/><line class="cls-2" x1="107.27" y1="201.94" x2="71.9" y2="194.28"/><line class="cls-2" x1="85.91" y1="196.19" x2="72.78" y2="193.35"/><line class="cls-2" x1="72.77" y1="192.55" x2="91.52" y2="189.11"/><line class="cls-2" x1="78.76" y1="194.55" x2="99.34" y2="189.92"/><path class="cls-2" d="M93.72,193.9l3.85-1.16s.67-.28,1,.13"/><line class="cls-2" x1="47.63" y1="196.09" x2="60.18" y2="193.38"/><line class="cls-2" x1="54" y1="194.58" x2="34.46" y2="189.95"/><path class="cls-2" d="M40.37,193.94l-4-1.27s-.78-.21-1,.07"/><polyline class="cls-2" points="63.71 224.32 63.74 226.87 64.06 227.16 64.29 238.46 68.16 238.41 68.01 226.98 68.43 226.76 68.44 224.26"/><path class="cls-2" d="M63.78,224.64s2.58,1.43,4.58-.06"/><path class="cls-2" d="M68.43,226.76l2.08,0s.8-.05.81.64.21,14,.21,14,0,.61-.39.61l-2.48,0s-.59-.39-.57-1.86a10.29,10.29,0,0,0,0-1.64"/><path class="cls-2" d="M63.74,226.86l-2.23,0s-.71-.13-.7.77.13,13.89.13,13.89,0,.63.79.62l2.2,0a.48.48,0,0,0,.38-.29c.08-.26,0-3.39,0-3.39"/><path class="cls-2" d="M117,222.12s-1.18-4.39,2.38-6.53,7.67.88,8.56,2.61,3.2,6.54-1.32,9.21S117.39,224.64,117,222.12Z"/><path class="cls-2" d="M118.85,211.43s.18.82,2,.86,2.14,0,2.39-.73"/><line class="cls-2" x1="118.85" y1="211.64" x2="118.91" y2="216.05"/><path class="cls-2" d="M123.36,211.58l0,1.87s-3.3.25-4.38,2.27"/><path class="cls-2" d="M123.45,212.84a4.4,4.4,0,0,1,3.27-.16c1.9.59,3.52,1.41,5,4.57a6.26,6.26,0,0,1-.22,5.81,10.09,10.09,0,0,1-3.35,3.08"/><path class="cls-2" d="M120.15,214.46s4.4-1.48,7.38,1.53,2.59,5.66,2.59,5.66a7,7,0,0,1-1.33,4"/><path class="cls-2" d="M123.5,213.18a6.92,6.92,0,0,1,5.55,1.9,8.53,8.53,0,0,1,2.44,5.08,6.43,6.43,0,0,1-2.14,5"/><line class="cls-2" x1="129.97" y1="223.12" x2="131.1" y2="222.44"/><path class="cls-2" d="M118.09,221.52s-.51-4.38,3.39-5,5.79,3.69,5.79,3.69,1.85,4.94-2.32,6.27C120.49,227.91,118.14,222.93,118.09,221.52Z"/><path class="cls-2" d="M120.44,221.28a3,3,0,0,0,2.4,2.77c2.41.57,2-2.8,2-2.8a2.84,2.84,0,0,0-2.5-2C120.44,219.19,120.44,221.28,120.44,221.28Z"/><path class="cls-2" d="M121.67,219.34s.49-.43.75-.4a2.46,2.46,0,0,1,2.52,1.16c1.24,1.92-.66,3.72-.66,3.72"/><polyline class="cls-2" points="119.05 218.03 119.44 218.18 121.22 219.35 121.51 219.17 120.42 217.55 119.73 217.19"/><path class="cls-2" d="M120.41,216.84l.42.31,1,1.45s.44.09.46-.22h0l-.34-1.36-.34-.47"/><path class="cls-2" d="M122.15,216.44l.26.44.37,1.48s.3.32.5.08l.22-1.33-.1-.45"/><path class="cls-2" d="M124,216.9l0,.34-.21,1.45s.23.3.42.24l.67-1.08.11-.37"/><path class="cls-2" d="M125.56,218l-.07.32-.65,1s0,.45.42.43l1.11-.8"/><path class="cls-2" d="M126.8,219.53l-1.18.65s-.34.53.19.59l1.5-.38"/><path class="cls-2" d="M127.5,221.38l-1.42-.06s-.62.23-.1.58l1.69.66"/><path class="cls-2" d="M127.26,224.44l-.41-.53-1.22-1s-.27-.57.23-.48a7.21,7.21,0,0,1,1.7.92"/><path class="cls-2" d="M125.93,226l0-.63a1.28,1.28,0,0,0-.22-.6c-.18-.24-.6-.87-.6-.87s-.25-.8.49-.48l1,1.15.32.58"/><path class="cls-2" d="M124.18,226.62l.17-.62a1.5,1.5,0,0,0,0-.81l-.26-.87s.12-.54.57-.21l.48.9a1.7,1.7,0,0,1,.23.61l0,.6"/><path class="cls-2" d="M122.32,226.54l.32-.49a1.29,1.29,0,0,0,.2-.71l.16-1.16"/><polyline class="cls-2" points="123.46 224.19 123.84 225.65 123.56 226.63"/><polyline class="cls-2" points="120.52 225.6 120.98 225.21 121.85 223.79"/><polyline class="cls-2" points="122.41 224.03 122.14 225.62 121.42 226.2"/><polyline class="cls-2" points="119.22 224.12 119.76 223.64 120.9 222.91"/><polyline class="cls-2" points="121.39 223.44 120.62 224.55 120.2 225.18"/><path class="cls-2" d="M118.86,223.47l.43-.32a2.7,2.7,0,0,1,.56-.3,6,6,0,0,0,.77-.43"/><polyline class="cls-2" points="120.47 221.86 119.51 221.95 118.4 222.3"/><polyline class="cls-2" points="118.16 221.54 119.19 221.29 120.33 221.24"/><polyline class="cls-2" points="120.46 220.78 118.88 220.31 118.17 220.28"/><polyline class="cls-2" points="118.28 219.55 119.02 219.63 120.57 220.17"/><polyline class="cls-2" points="120.79 219.78 119.51 218.79 118.73 218.62"/><path class="cls-2" d="M16.61,222.16s1.06-4.42-2.55-6.47-7.64,1.08-8.48,2.82-3,6.63,1.54,9.18S16.28,224.68,16.61,222.16Z"/><path class="cls-2" d="M14.48,211.52s-.16.82-2,.91-2.14,0-2.4-.67"/><line class="cls-2" x1="14.48" y1="211.73" x2="14.54" y2="216.14"/><path class="cls-2" d="M10,211.79l0,1.86s3.31.17,4.44,2.16"/><path class="cls-2" d="M9.92,213.05A4.44,4.44,0,0,0,6.64,213c-1.88.65-3.48,1.51-4.9,4.71a6.23,6.23,0,0,0,.37,5.79,10.09,10.09,0,0,0,3.43,3"/><path class="cls-2" d="M13.25,214.58s-4.43-1.37-7.33,1.72S3.47,222,3.47,222a7,7,0,0,0,1.44,4"/><path class="cls-2" d="M9.88,213.39a6.93,6.93,0,0,0-5.51,2,8.52,8.52,0,0,0-2.31,5.14,6.45,6.45,0,0,0,2.27,5"/><line class="cls-2" x1="3.66" y1="223.49" x2="2.51" y2="222.83"/><path class="cls-2" d="M15.49,221.58s.4-4.38-3.51-4.9-5.69,3.84-5.69,3.84-1.73,5,2.47,6.21C13.26,228,15.48,223,15.49,221.58Z"/><path class="cls-2" d="M13.14,221.4a3,3,0,0,1-2.33,2.84c-2.39.63-2.11-2.75-2.11-2.75a2.84,2.84,0,0,1,2.45-2.07C13.08,219.32,13.14,221.4,13.14,221.4Z"/><path class="cls-2" d="M11.86,219.5s-.5-.42-.76-.38a2.45,2.45,0,0,0-2.49,1.22c-1.19,1.95.75,3.7.75,3.7"/><polyline class="cls-2" points="14.44 218.13 14.06 218.28 12.31 219.5 12.01 219.33 13.06 217.68 13.74 217.3"/><path class="cls-2" d="M13.05,217l-.41.32-.92,1.47s-.44.11-.47-.21h0l.31-1.36.33-.48"/><path class="cls-2" d="M11.3,216.61l-.24.45-.33,1.49s-.29.32-.5.09L10,217.32l.1-.45"/><path class="cls-2" d="M9.43,217.12l0,.34.24,1.44s-.22.31-.41.25l-.7-1.06-.12-.36"/><path class="cls-2" d="M7.93,218.22l.08.33.68.93a.41.41,0,0,1-.41.44l-1.13-.77"/><path class="cls-2" d="M6.73,219.82l1.2.62s.36.52-.17.6l-1.51-.35"/><path class="cls-2" d="M6.09,221.68l1.41-.09s.63.21.11.58l-1.66.7"/><path class="cls-2" d="M6.4,224.74l.4-.54,1.2-1s.25-.57-.25-.48a7.56,7.56,0,0,0-1.67,1"/><path class="cls-2" d="M7.77,226.28l0-.63a1.3,1.3,0,0,1,.2-.6c.18-.25.58-.88.58-.88s.23-.82-.51-.48l-1,1.18-.31.59"/><path class="cls-2" d="M9.53,226.84l-.19-.62a1.56,1.56,0,0,1,0-.81l.23-.87s-.13-.54-.57-.2l-.45.91a1.65,1.65,0,0,0-.22.62l0,.6"/><path class="cls-2" d="M11.39,226.71l-.33-.48a1.27,1.27,0,0,1-.22-.7l-.19-1.16"/><polyline class="cls-2" points="10.2 224.39 9.85 225.87 10.15 226.84"/><polyline class="cls-2" points="13.17 225.73 12.7 225.35 11.8 223.96"/><polyline class="cls-2" points="11.24 224.2 11.55 225.79 12.28 226.35"/><polyline class="cls-2" points="14.43 224.21 13.88 223.75 12.72 223.05"/><polyline class="cls-2" points="12.24 223.59 13.05 224.68 13.47 225.3"/><path class="cls-2" d="M14.77,223.55l-.43-.3a2.59,2.59,0,0,0-.57-.29,5.82,5.82,0,0,1-.78-.41"/><polyline class="cls-2" points="13.12 221.98 14.09 222.05 15.2 222.38"/><polyline class="cls-2" points="15.43 221.61 14.39 221.39 13.24 221.37"/><polyline class="cls-2" points="13.11 220.91 14.67 220.4 15.38 220.35"/><polyline class="cls-2" points="15.26 219.62 14.52 219.72 12.98 220.3"/><polyline class="cls-2" points="12.75 219.91 14 218.9 14.78 218.71"/><polyline class="cls-2" points="71.45 231.52 71.75 231.51 71.82 237.04 71.56 237.04"/><polyline class="cls-2" points="60.71 231.78 60.42 231.78 60.49 237.31 60.74 237.3"/><path class="cls-2" d="M94.72,194.54s0,.76,1.94.78,1.76-.72,1.76-.72"/><line class="cls-2" x1="94.67" y1="194.63" x2="94.72" y2="197.9"/><path class="cls-2" d="M98.56,194.62l.09,2a7.33,7.33,0,0,0-1.79,1.83"/><path class="cls-2" d="M94.65,195.82a4.38,4.38,0,0,0-1.41,1.79"/><path class="cls-2" d="M98.63,194.85l5.36,1.91s1.61.73,2,3.5"/><path class="cls-2" d="M98.65,196.61a4.72,4.72,0,0,1,2.84-.76"/><path class="cls-2" d="M100,199a2.94,2.94,0,0,1,2.35-1.28,3,3,0,0,1,2.76,2.32"/><line class="cls-2" x1="100.75" y1="198.34" x2="100.85" y2="199.16"/><polyline class="cls-2" points="101.43 197.96 101.26 198.42 101.32 199.27"/><polyline class="cls-2" points="102.23 197.81 101.92 198.22 101.62 199.32"/><polyline class="cls-2" points="102.85 197.88 102.45 198.35 102.16 199.41"/><polyline class="cls-2" points="102.38 199.48 102.9 198.65 103.53 198.14"/><polyline class="cls-2" points="104.07 198.47 103.36 198.96 102.93 199.58"/><polyline class="cls-2" points="103.37 199.77 103.99 199.27 104.63 199.11"/><polyline class="cls-2" points="104.15 199.89 104.43 199.72 104.93 199.68"/><path class="cls-2" d="M94.34,205.5a3.77,3.77,0,0,0,2.85,1"/><path class="cls-2" d="M95.59,205.66s.19.63,1.55.85a6.24,6.24,0,0,0,3.34,1.4,3.29,3.29,0,0,0,3-1"/><path class="cls-2" d="M97.73,206a5,5,0,0,0,2.67,1.9"/><path class="cls-2" d="M96.79,205.83a2.84,2.84,0,0,0,.35.68"/><path class="cls-2" d="M36.32,198.51a7,7,0,0,0-.65-2.35l.07-1.52s.18.8,2.08.68,1.54-.86,1.54-.86l.17,2.18a3.18,3.18,0,0,1-.19,1.25"/><path class="cls-2" d="M35.63,195.23l-3.07.34s-1.37.45-1.23,3.88"/><path class="cls-2" d="M34.1,198.91s-.05-2.72-1.54-3.34"/><path class="cls-2" d="M39.51,194.76l.53-.06s1.37.34,1.65,2.64"/><path class="cls-2" d="M35.67,196.16a3.18,3.18,0,0,0-1-.77"/><path class="cls-2" d="M33.48,199s-.07-1.64-1.06-2.19-1,2.58-1,2.58"/><path class="cls-2" d="M31.78,197.38l.72.31a1.24,1.24,0,0,1,.42.63c.08.37.16.78.16.78"/><path class="cls-2" d="M31.51,198.54a1.71,1.71,0,0,1,1.07.36l.11.27"/><path class="cls-2" d="M32.75,206.41s.37.74.89.83a12.4,12.4,0,0,0,2.28-.21,3.31,3.31,0,0,0,.62-1.13"/><path class="cls-2" d="M34.64,206.12a1.35,1.35,0,0,1-.94,1.13"/><path class="cls-2" d="M38.27,205.63a1.51,1.51,0,0,0,1,1l2-.19s.94-.64.88-1.3"/><path class="cls-2" d="M40.23,205.35s-.12,1-.91,1.3"/><path class="cls-2" d="M71.44,165.62a6.15,6.15,0,0,0,2.71,2.3,3.84,3.84,0,0,0,3.37-.64l.45-1"/><path class="cls-2" d="M59.82,171.83l10.69-1.28s2.9-3.36-1-5.2"/><path class="cls-2" d="M61,177.47a2.77,2.77,0,0,0,1-1.56c.2-1,9.89-5.84,9.89-5.84a10.61,10.61,0,0,1,3.1-1.26,54,54,0,0,0,5.32-1.12l18.57-3.11"/><polyline class="cls-2" points="90.51 169.31 77.94 171.53 68.89 175.63 69.77 177.09 72 176.71"/><line class="cls-2" x1="78.07" y1="171.46" x2="80.42" y2="167.79"/><path class="cls-2" d="M72.52,177.92l4.4-1.64,3.94-1.47s3-.86,3.86-.95,1.24-.14,1.33,0"/><path class="cls-2" d="M77,176.37s5.44-.17,6.4-.94"/><polyline class="cls-2" points="69.6 176.7 78.23 172.68 89.94 170.64"/><path class="cls-2" d="M99.43,161.3a101.1,101.1,0,0,1,10.1-1.14s1.37-.19,1.83.37c0,0,2.79,3.16,3.1,5.82a1.38,1.38,0,0,1-.4,1.63c-.83.57-7.34.09-12.25-2.82l-4.51.68"/><path class="cls-2" d="M111.65,161s-9,2.27-9.58,2.84-.89.66-.43,1.21"/><path class="cls-2" d="M42.53,169.91l6.2,6.66s.51.72,2,.45,4.41-1.32,5.43-2.53"/><path class="cls-2" d="M43.49,170.75s11.35-.34,12.9.15c0,0,.73,0,.73.29a9.59,9.59,0,0,1-.15,1"/><path class="cls-1" d="M12.63,11.58s1.9-10.15,9.9-11A35.66,35.66,0,0,1,38.05,2.72a13.07,13.07,0,0,1,6.52,6.61,73.33,73.33,0,0,1,2.94,9.87l2-1S53,16,53.62,22.07s2.6,17.49,2.6,17.49l14.3,9.16s6,3.84,3.13,14.84S71.4,80.41,71.4,80.41a37.27,37.27,0,0,0,7.24,15.18c6,7.81,5.3,15.48,5.3,15.48-.09,1.34-1.08,11.53-8.84,18.3l-.78,2s9.59-2.3,26.36-2.82,25.85,3.72,25.85,3.72a16.17,16.17,0,0,1,6.55,6.57c2.7,4.81-1.36,17.89-1.36,17.89s-25.37,5.65-28.95,8.38-15,1.87-15,1.87-25-1.36-32.19-3.74L50,164.91l-.12.66L46,167a15.11,15.11,0,0,1-6.25.39c-2.69-.63-2.84-1.64-2.84-1.64l.2-5.2-4-.26-1.1.15-18.8-3.06a3.05,3.05,0,0,1-2.94-2.65c-.34-2.6-1-10.16-1-10.16a7.65,7.65,0,0,1,.69-4.72l-.15-1.32a3.12,3.12,0,0,1,.59-2.43c.88-1.18,2.76-4.13,2.76-4.13L8.8,105.33,9.62,104,1.25,62.1S-2.28,48,4.84,39.6A24.75,24.75,0,0,0,9,29.73C10.18,23.68,12.63,11.58,12.63,11.58Z"/><path class="cls-2" d="M30.37.74s-6.32-2-8,5c0,0-4.39,15.12-6.61,27.25a38.87,38.87,0,0,0-3,8.85c-1.25,5.52-1.59,6.09-.87,11.28s2.24,16.26,2.24,16.26S15.86,82.43,23.3,93s8.61,19.09,8.61,19.09"/><path class="cls-2" d="M24.6,139.34s6.23-4.92,7.7-17.14"/><path class="cls-2" d="M9.6,103.89A2.62,2.62,0,0,1,12,102.3a21.36,21.36,0,0,1,3.22,0l2.4,1.89,4.65,30.11-5.38,1.3s-1,.34-.92,2.15.58,5.69.58,5.69.72,4.19-1.63,5.21-4-2-4-2l-1-6.72"/><path class="cls-2" d="M9.31,141.9l1.11,9s.46,4.45,3.82,5L31,158.56a3.44,3.44,0,0,0,0-3.4s-5.89-2-7.62-3.75a21.74,21.74,0,0,1-6.73-12.25,3.65,3.65,0,0,1,1.25,1.48c.24.79,3.1,10.86,12.44,13.12,0,0,.92.75,1,1a.27.27,0,0,1-.23.3"/><path class="cls-2" d="M16.62,135.76s2.28,1.23,3.47,5.09,5.84,10.76,11.72,11.68c0,0,4.37,1.94,1,7.71"/><path class="cls-2" d="M10.26,154.36s.31,1.58,1.6,1.89,18.48,3,18.48,3l1.24,1"/><line class="cls-2" x1="30.38" y1="159.17" x2="31.03" y2="158.56"/><path class="cls-2" d="M56.2,39.3l0,3.32c-.54,4-3.27,1.65-3.27,1.65a17.85,17.85,0,0,0-15.38-6.5s-2.28.24-6.19,2.72-5.28-2.22-5.28-2.22-2.38-16.76-3.07-22.74,3.93-2,3.93-2c13.86,9.1,20.52,5.66,20.52,5.66s4.62-.46,5.74,4.81,2.49,12.43,2.49,15.43-.66,3.84-2.5,4.83"/><path class="cls-2" d="M25.43,35.07l-1.1.14a3.14,3.14,0,0,1-3.51-2.29,3.32,3.32,0,0,1,1-4.11l2.57-2.23"/><path class="cls-2" d="M24.63,28.81l-2,1.29s-2.11,2.22.63,3.1l2-.09"/><path class="cls-2" d="M39.85,111.94S39,105.33,33.4,97.65s-6.09-21.76-6.09-21.76-.23-14,2.85-15.89,18.14-.46,19.69,1.39,9.92,14,12.69,19.51A80.76,80.76,0,0,0,74.38,98c4.53,4.88,9.11,14.45,2,25.22"/><path class="cls-2" d="M13.8,38.21S15,38,16.64,39.62s12,22.75,12,22.75"/><path class="cls-2" d="M15.38,33.92a4.29,4.29,0,0,1,1.82,1.25,154.56,154.56,0,0,1,14,24.3"/><line class="cls-2" x1="54.88" y1="45.08" x2="49.94" y2="61.22"/><path class="cls-2" d="M63.73,44.53c-.61,2.38-6.78,12-11.62,19.94"/><path class="cls-2" d="M28.77,76.34s3.65,4.18,4.14,5.64,1.75,17.3,1.75,17.3"/><path class="cls-2" d="M31.54,64.73l5,9.07a10,10,0,0,1,.92,2.31c.68,2.59,2.25,8.72,3,12.88,1,5.39,2.93,22.51,2.93,22.51"/><path class="cls-2" d="M50.13,65.21s1.61,25.05,6.92,45.53"/><polyline class="cls-2" points="57.44 77.05 56.38 81.21 63.26 109.6"/><path class="cls-2" d="M66.07,109.33c.35-.1-6.63-33-13-40.9A15.6,15.6,0,0,0,43.9,62s-4.62-.41-8-.46S31,66,31,66a53.17,53.17,0,0,0-2.84,16.77"/><path class="cls-2" d="M25.3,140.94s5.49-3.09,10.9-3.15"/><path class="cls-2" d="M35.94,132.73a14.44,14.44,0,0,1-4.85,5.87"/><path class="cls-2" d="M37,160.52l.18-3.14a1.42,1.42,0,0,1,.61-.43l0-1.19-.45-.38-2-29.69a2.46,2.46,0,0,0-1.17-2.25c-1.27-.63-7.14-5-7.14-5l-3-.28s-.88,0-1.18-.6l-.07-1.44s-.22-.73.89-1.33a17.1,17.1,0,0,0,2-1.27,5.17,5.17,0,0,1,2.17-.74c1.17-.08,7.07-.85,7.07-.85s20-.24,30.79,1.88l1.27.78a2.36,2.36,0,0,1,1.11,1.57,18.71,18.71,0,0,1,.24,2.73l-8.56,1.25a59.56,59.56,0,0,1-8.18.14l-5,3.38a2.42,2.42,0,0,0-.92,2.5l.38,30s-.05.35-.56.36l0,1.25a1.42,1.42,0,0,1,.58.05c.13.08.57,6,.57,6"/><path class="cls-2" d="M45.93,163.4a1.57,1.57,0,0,0,1.9,1.12,7.25,7.25,0,0,0,2-.51l.16.89"/><line class="cls-2" x1="49.94" y1="163.97" x2="46.66" y2="163.16"/><line class="cls-2" x1="50.01" y1="164.19" x2="54.13" y2="163.02"/><line class="cls-2" x1="55.58" y1="163.25" x2="46.29" y2="161.42"/><path class="cls-2" d="M37.26,157.44s1.2,1.22,4.33,1.07,4-.35,4.35-.54"/><path class="cls-2" d="M37.81,155.7s1.13,1.12,7.59.77"/><line class="cls-2" x1="27.03" y1="118.48" x2="51.57" y2="120.32"/><path class="cls-2" d="M30.53,120.91l11.39,1a21.41,21.41,0,0,0,3.92.06c2.27-.16,3.85-.4,3.85-.4"/><path class="cls-2" d="M25.76,141.76a25.85,25.85,0,0,1,10.39-2.45"/><path class="cls-2" d="M45.79,137.62s18.44-1.11,35.26,2.46l11.26,2.5s7.46,1,8.07,1,6.91,6.69,2.41,19.38c0,0-8.35,4.34-28,3.09"/><path class="cls-2" d="M102.29,165.48a2,2,0,0,0,.5-2.52"/><path class="cls-2" d="M45.81,138.88s19,.35,34,3.56,20.76,1.24,20.76,1.24"/><path class="cls-2" d="M61.82,137.62l8.26-1.85s3-.25,4.21-4.27"/><path class="cls-2" d="M84.1,140.61s11.72-.7,27.83-2.9,19.28-1.06,21.51,1.94"/><path class="cls-2" d="M130,134.84a4.56,4.56,0,0,1,1.07,2.77"/><path class="cls-2" d="M42.27,111.88a16.69,16.69,0,0,1,4.69-.67c1.87.15,13.51-.38,16.6-1.61a16.78,16.78,0,0,1,4,.07,12.13,12.13,0,0,0,2.09-.15,3.25,3.25,0,0,1,2.54.44c.65.63,4,2.41,4.37,8.69a26.82,26.82,0,0,1-1.42,10.72"/><path class="cls-2" d="M66.43,109.48s4.44,3,5,9.93-4.09,15.5-4.09,15.5L56,137.4"/><path class="cls-2" d="M51.12,120.61a25.89,25.89,0,0,1,.69,7.69c-.36,3.52-.27,6.4-1.7,9"/><line class="cls-2" x1="44.25" y1="111.48" x2="45.05" y2="112"/><line class="cls-2" x1="33.02" y1="160.3" x2="36.98" y2="159.16"/><path class="cls-2" d="M16.3,145c0-.07-1.19-9-1.19-9l1.58-5.24-2.62-26.67-1.16-.82c-.18-.13-.87-1.13-1.52-1"/><polyline class="cls-2" points="14.11 104.16 16.04 104.09 16.63 104.28 17.53 104.17"/><line class="cls-2" x1="16.64" y1="104.44" x2="19.81" y2="134.75"/><path class="cls-2" d="M19.34,134.84A17.08,17.08,0,0,1,17,127.3c-.29-4.43-.91-23.11-.91-23.11"/><line class="cls-2" x1="10.06" y1="136.72" x2="15.06" y2="136"/><polygon class="cls-2" points="28.14 144.62 25.87 146.02 26 149.21 28.2 149.38 28.2 146.23 28.64 145.98 27.45 145.93 29.16 144.85 28.14 144.62"/><path class="cls-2" d="M28.23,149.58v1l1.12-.12a1.52,1.52,0,0,1,1.32.24,3.45,3.45,0,0,0,1,.7,7.35,7.35,0,0,0,2.34.1s1-.12,1.32.38a4.11,4.11,0,0,0,.49.61s.83.54,1.19,0"/><polyline class="cls-2" points="36.7 147.14 29.21 145.8 28.2 146.23 28.23 149.61"/><path class="cls-2" d="M28.29,146.24l.39,1,0,2.17a2.26,2.26,0,0,1,2.05.61c.68.88,2.87.54,2.87.54s2.19.4,2.46.78,1,.22,1,.22l-.66-3.05.44-.51"/><line class="cls-2" x1="28.75" y1="147.25" x2="36.36" y2="148.54"/><path class="cls-2" d="M17.93,135.33a8.78,8.78,0,0,1,3.7,4.15c1.09,2.78,1.7,4.27,1.7,4.27a1.2,1.2,0,0,0,1.45.62l1.51,1.31"/><line class="cls-2" x1="20.46" y1="134.83" x2="22.66" y2="141.8"/><path class="cls-2" d="M20.79,135.56a6.73,6.73,0,0,1,3.87,4,27.86,27.86,0,0,0,2.77,5.34"/><path class="cls-2" d="M21.19,137s1.41-.1,2.44,2.36a49.91,49.91,0,0,0,3.27,6"/><path class="cls-2" d="M89.49,142s11.56-1.24,13.38-1,6.69-.56,8.95,6.46-2.22,14.82-2.22,14.82"/><path class="cls-2" d="M118.14,159.92s3.91-7.09,3.26-11.72-.64-9-9.69-9.45-20.47,1.3-20.47,1.3"/><path class="cls-2" d="M125.34,158s1.29.16,2.2-2.26,1.94-9.59,1.94-9.59,1.08-7.06-5.57-8.56-8.87-.12-8.87-.12"/><path class="cls-2" d="M31.8,16.45s6.78,6.31-3,24.72"/><path class="cls-2" d="M108.5,128.55l.15-11.63a2.28,2.28,0,0,1,.91-1.6L115,111.7l2.46.06s2.59,0,4-.08,5.49-.63,5.49-.63a.64.64,0,0,0,.43-.59c0-.47,0-.79,0-.79a1.24,1.24,0,0,0-.75-.9c-.71-.38-2.63-1.5-2.63-1.5s-19.83-1.59-28.42-.69l-4.87.59a2.12,2.12,0,0,0-1.47,1.6,7.94,7.94,0,0,0,0,1.88l3.59.25.1.07,6.56,4.31a2.22,2.22,0,0,1,.75,1.86c-.07,1.24.35,11.36.35,11.36"/><line class="cls-2" x1="114.83" y1="111.71" x2="92.84" y2="110.96"/><line class="cls-2" x1="89.69" y1="107.86" x2="118.9" y2="108.75"/><path class="cls-2" d="M91.23,107.19s21.74-.86,27.37.77l1.65.77a5.33,5.33,0,0,0,3.8.77c2.23-.38,2.93-.44,2.93-.44"/><line class="cls-2" x1="118.83" y1="107.96" x2="124.02" y2="107.36"/><path class="cls-2" d="M96.5,113.2l10,.34a26.79,26.79,0,0,0,3.87.13c.71-.16,2.2-.35,2.2-.35"/><path class="cls-2" d="M15.24,33.83a14.5,14.5,0,0,0-8.12,1.83"/><path class="cls-2" d="M22.93,115.67l27.19,2s7.85.52,11.89-.41l4.7-.68s.92-.19,1.11-.85"/><path class="cls-2" d="M27,113l27.71,1.9a48.49,48.49,0,0,0,5.4-.16c2.43-.25,5.62-.87,5.62-.87"/><path class="cls-1" d="M22.42,32.78s20.83,73.32,21.25,78.59l2.67-.26L27.59,40.58a5.85,5.85,0,0,1-1.46-2.22C26,37.42,25.36,33,25.36,33l-2,.17S22.57,33.06,22.42,32.78Z"/><polygon class="cls-1" points="47.1 39.59 63.84 109.45 66.09 109.53 49.53 41.06 47.1 39.59"/><path class="cls-1" d="M11,20.28l5.59,1.64a32.94,32.94,0,0,1,3.78,1.45c1.28.67,3.92,1.76,3.92,1.76l.52,3.41-5.7-2.16A9.26,9.26,0,0,0,15.33,25c-2.52-.45-5.15-1.17-5.15-1.17Z"/><path class="cls-2" d="M61.78,180s5.11,2,9.48-.14"/><path class="cls-3" d="M228.27,192.47l16.07-2.35a1.69,1.69,0,0,1,.84-.61c.46-.09,6.23-.88,6.23-.88h2.05a1.35,1.35,0,0,1,.83.75l.42.73.53,1.05.3,4.3a9.54,9.54,0,0,1-4.24.42s-1.76-.17-2.1-.7l-7.73,2.23,22.83,4.86.48-.3,13.89,3,.15.47a1.13,1.13,0,0,1,.91.68l.44,6.36-2.56.79-3.34-.48a2,2,0,0,1-1.31-1v-1.57l-39.14-5.91s-6.52-.57-7.43,1.66l-1.12,19-3.56.72-4.1-.73.13-19s.39-2.17-6.81-1.79l-39.81,5.43v1.34s0,.78-1.3,1.15a22.75,22.75,0,0,1-3.48.5l-2.48-.91.45-5.8a1.22,1.22,0,0,1,.87-1.18l.35-.5,14.09-2.78.36.38,23.28-4.66-7.17-2.26s-.54.88-4.2.63c0,0-1.89-.17-2.17-.59l.27-4,1.29-2.57a1.76,1.76,0,0,1,1.38-.39l6.69,1a4.3,4.3,0,0,1,1.7.85l15.07,2.59"/><path class="cls-3" d="M219.51,180.32s-1.89.31-2,.75l-.12,1.58s-.38,0-.38.25l-.11,1.24s-.44.09-.46.44-.16,7.86-.16,7.86v1.21a.58.58,0,0,0-.31.61c.07.45.52,1.91,6.52,1.92,0,0,5,0,6-1.57,0,0,.16-.32-.22-.88l-.28-9.26a1.34,1.34,0,0,0-.47-.46l-.07-1.11a.8.8,0,0,0-.36-.38l-.13-1.59a4.51,4.51,0,0,0-2.53-.64v.39a8,8,0,0,1-4.9,0Z"/><path class="cls-4" d="M217.13,182.89s5.8,2.39,10.12-.06"/><path class="cls-4" d="M216.65,184.35s.33,1.82,5.93,1.7,5.21-1.91,5.21-1.91"/><path class="cls-4" d="M190.53,190s-.06.32.18.4,5.94,1.38,5.94,1.38a.76.76,0,0,0,.56-.18,16.71,16.71,0,0,0,.82-1.52s.35-.65.77-.51l2.11.21"/><path class="cls-4" d="M244.41,190.17a2.06,2.06,0,0,0,.77-.09c.41-.13,1.36-.44,1.84.16a2.73,2.73,0,0,1,.55,1.19.74.74,0,0,0,.87.7c.8-.13,6.08-1.08,6.08-1.08s.39-.16.35-.51"/><path class="cls-4" d="M278.93,205.53s-.74,0-1.34,1.46a1.1,1.1,0,0,1-1.15.7L263.28,205s-.58,0-.5-.71c0,0,.14-.93.41-1.05a8.77,8.77,0,0,0,1.09-.93"/><path class="cls-4" d="M218.46,218.85l1.41-.91a1,1,0,0,1,.83-.23c.59,0,1.43,0,1.43,0a1.5,1.5,0,0,1,1.05.29l1.42,1,.52-6.14-.15-.61a2.84,2.84,0,0,0-1.64-1.29l-2.71-.06a2.16,2.16,0,0,0-1.32.49,7,7,0,0,0-.94.91l0,6.65Z"/><path class="cls-4" d="M165.18,204.69a3.12,3.12,0,0,1,1.35,1.7,1.14,1.14,0,0,0,1.37.6c1-.22,13-2.18,13-2.18s.51-.19.44-.61-.15-1.07-.15-1.07l-.76-.92-.49-.44"/><polyline class="cls-4" points="164.53 205.06 166.65 207.56 166.45 212.57"/><path class="cls-4" d="M166.77,207.56l42.56-7s5.88-.87,8.74,1.41l-.28,17.91"/><line class="cls-4" x1="223.97" y1="196.1" x2="223.42" y2="210.96"/><line class="cls-4" x1="220.28" y1="196.12" x2="220.37" y2="210.89"/><polyline class="cls-4" points="279.54 205.8 277.25 208.63 277.36 213.08"/><path class="cls-4" d="M277,208.63l-43.47-8.13s-6-1.18-7.46,1.39L224.78,219"/><line class="cls-4" x1="262.76" y1="203.29" x2="227.5" y2="195.41"/><line class="cls-4" x1="241.47" y1="197.4" x2="228.37" y2="194.48"/><line class="cls-4" x1="228.37" y1="193.68" x2="247.12" y2="190.38"/><line class="cls-4" x1="234.34" y1="195.73" x2="254.93" y2="191.23"/><path class="cls-4" d="M249.28,195.17l3.86-1.13s.67-.28,1,.14"/><line class="cls-4" x1="203.24" y1="197.06" x2="215.79" y2="194.43"/><line class="cls-4" x1="209.61" y1="195.59" x2="190.13" y2="190.84"/><path class="cls-4" d="M196,194.86l-4-1.29s-.79-.22-1,.06"/><polyline class="cls-4" points="219.11 225.36 219.13 227.9 219.44 228.19 219.6 239.48 223.46 239.46 223.39 228.04 223.81 227.83 223.84 225.33"/><path class="cls-4" d="M219.18,225.67s2.57,1.46,4.57,0"/><path class="cls-4" d="M223.81,227.83l2.08,0s.8-.05.8.64.13,13.94.13,13.94,0,.61-.4.61l-2.48,0s-.59-.4-.55-1.87a12.34,12.34,0,0,0,0-1.63"/><path class="cls-4" d="M219.13,227.9H216.9s-.71-.14-.71.76.05,13.88.05,13.88,0,.63.78.62h2.2a.48.48,0,0,0,.38-.3c.08-.25,0-3.38,0-3.38"/><path class="cls-4" d="M272.34,223.51s-1.15-4.39,2.42-6.51,7.65.93,8.53,2.66,3.16,6.56-1.37,9.19S272.72,226,272.34,223.51Z"/><path class="cls-4" d="M274.27,212.84s.17.82,2,.87,2.14,0,2.39-.7"/><line class="cls-4" x1="274.27" y1="213.05" x2="274.3" y2="217.46"/><path class="cls-4" d="M278.77,213v1.86s-3.3.23-4.39,2.24"/><path class="cls-4" d="M278.85,214.29a4.44,4.44,0,0,1,3.27-.15c1.9.6,3.51,1.43,5,4.6a6.27,6.27,0,0,1-.26,5.8,10.12,10.12,0,0,1-3.37,3.05"/><path class="cls-4" d="M275.55,215.88s4.4-1.45,7.36,1.57,2.55,5.68,2.55,5.68a7,7,0,0,1-1.36,4"/><path class="cls-4" d="M278.9,214.62a6.89,6.89,0,0,1,5.53,1.94,8.49,8.49,0,0,1,2.41,5.09,6.46,6.46,0,0,1-2.18,5"/><line class="cls-4" x1="285.3" y1="224.6" x2="286.43" y2="223.92"/><path class="cls-4" d="M273.44,222.91s-.48-4.37,3.42-5,5.76,3.72,5.76,3.72,1.81,5-2.36,6.25C275.8,229.31,273.49,224.33,273.44,222.91Z"/><path class="cls-4" d="M275.79,222.69a3,3,0,0,0,2.39,2.78c2.39.59,2.05-2.78,2.05-2.78a2.86,2.86,0,0,0-2.49-2C275.81,220.6,275.79,222.69,275.79,222.69Z"/><path class="cls-4" d="M277,220.76s.5-.42.75-.39a2.44,2.44,0,0,1,2.51,1.17c1.23,1.92-.67,3.71-.67,3.71"/><polyline class="cls-4" points="274.43 219.44 274.81 219.59 276.59 220.77 276.88 220.6 275.8 218.97 275.11 218.6"/><path class="cls-4" d="M275.79,218.26l.42.31,1,1.45s.44.1.46-.21v0l-.33-1.35L277,218"/><path class="cls-4" d="M277.53,217.87l.26.44.36,1.48s.29.32.49.08l.23-1.32-.1-.45"/><path class="cls-4" d="M279.42,218.34l0,.34-.22,1.45s.23.3.43.24l.67-1.08.11-.36"/><path class="cls-4" d="M280.93,219.42l-.07.32-.66.94s0,.45.41.43l1.12-.79"/><path class="cls-4" d="M282.16,221l-1.19.64s-.34.52.19.59l1.5-.37"/><path class="cls-4" d="M282.84,222.83l-1.41-.06s-.62.22-.1.58L283,224"/><path class="cls-4" d="M282.59,225.89l-.41-.53-1.22-1s-.26-.56.24-.47a7.25,7.25,0,0,1,1.69.93"/><path class="cls-4" d="M281.25,227.46l0-.63a1.31,1.31,0,0,0-.22-.6c-.18-.24-.59-.87-.59-.87s-.25-.81.5-.48l1,1.16.32.58"/><path class="cls-4" d="M279.49,228.05l.18-.62a1.5,1.5,0,0,0,0-.81l-.25-.87a.33.33,0,0,1,.57-.2l.47.9a1.7,1.7,0,0,1,.23.61l0,.6"/><path class="cls-4" d="M277.64,228l.32-.48a1.28,1.28,0,0,0,.2-.7l.17-1.17"/><polyline class="cls-4" points="278.79 225.62 279.16 227.08 278.88 228.06"/><polyline class="cls-4" points="275.84 227.01 276.31 226.62 277.18 225.21"/><polyline class="cls-4" points="277.74 225.45 277.46 227.04 276.74 227.61"/><polyline class="cls-4" points="274.56 225.51 275.09 225.04 276.24 224.32"/><polyline class="cls-4" points="276.73 224.86 275.95 225.96 275.53 226.59"/><path class="cls-4" d="M274.2,224.87l.43-.31a2.51,2.51,0,0,1,.56-.31,5.2,5.2,0,0,0,.77-.42"/><polyline class="cls-4" points="275.82 223.27 274.86 223.35 273.75 223.7"/><polyline class="cls-4" points="273.51 222.94 274.54 222.69 275.69 222.65"/><polyline class="cls-4" points="275.81 222.19 274.24 221.71 273.53 221.68"/><polyline class="cls-4" points="273.64 220.95 274.38 221.04 275.93 221.58"/><polyline class="cls-4" points="276.15 221.19 274.88 220.2 274.1 220.03"/><path class="cls-4" d="M172.09,222.89s1.09-4.4-2.51-6.48-7.63,1-8.49,2.77-3.08,6.59,1.49,9.17S171.74,225.41,172.09,222.89Z"/><path class="cls-4" d="M170,212.25s-.17.82-2,.89-2.14,0-2.4-.68"/><line class="cls-4" x1="170.03" y1="212.46" x2="170.06" y2="216.87"/><path class="cls-4" d="M165.53,212.49v1.86s3.3.19,4.42,2.18"/><path class="cls-4" d="M165.47,213.75a4.42,4.42,0,0,0-3.28-.11c-1.88.63-3.49,1.48-4.92,4.66a6.26,6.26,0,0,0,.32,5.8,10.12,10.12,0,0,0,3.41,3"/><path class="cls-4" d="M168.79,215.3s-4.42-1.4-7.34,1.66-2.49,5.71-2.49,5.71a7,7,0,0,0,1.41,4"/><path class="cls-4" d="M165.42,214.08a6.9,6.9,0,0,0-5.51,2,8.53,8.53,0,0,0-2.34,5.12,6.44,6.44,0,0,0,2.24,5"/><line class="cls-4" x1="159.14" y1="224.13" x2="158" y2="223.47"/><path class="cls-4" d="M171,222.31s.43-4.38-3.48-4.92-5.71,3.79-5.71,3.79-1.76,5,2.43,6.22C168.7,228.74,171,223.72,171,222.31Z"/><path class="cls-4" d="M168.62,222.11a2.93,2.93,0,0,1-2.34,2.81c-2.39.62-2.09-2.75-2.09-2.75a2.84,2.84,0,0,1,2.46-2C168.58,220,168.62,222.11,168.62,222.11Z"/><path class="cls-4" d="M167.36,220.2s-.5-.42-.75-.39a2.47,2.47,0,0,0-2.5,1.21c-1.2,1.94.72,3.7.72,3.7"/><polyline class="cls-4" points="169.95 218.85 169.56 219 167.81 220.21 167.51 220.03 168.57 218.39 169.26 218.02"/><path class="cls-4" d="M168.57,217.68l-.41.32-.93,1.46s-.44.1-.47-.21h0l.32-1.36.33-.48"/><path class="cls-4" d="M166.83,217.31l-.25.45-.34,1.48s-.3.33-.5.09l-.25-1.32.1-.45"/><path class="cls-4" d="M165,217.81l0,.33.23,1.45s-.22.3-.42.25l-.68-1.07-.12-.36"/><path class="cls-4" d="M163.45,218.9l.08.32.67.94s0,.45-.41.43l-1.13-.77"/><path class="cls-4" d="M162.24,220.49l1.19.62s.36.53-.17.6l-1.51-.36"/><path class="cls-4" d="M161.58,222.34l1.41-.08s.63.22.11.58l-1.67.69"/><path class="cls-4" d="M161.87,225.4l.4-.54,1.21-1s.25-.57-.24-.48a7.5,7.5,0,0,0-1.68,1"/><path class="cls-4" d="M163.23,227l0-.63a1.34,1.34,0,0,1,.21-.6c.18-.25.58-.88.58-.88s.24-.81-.5-.47l-1,1.16-.31.59"/><path class="cls-4" d="M165,227.51l-.18-.61a1.45,1.45,0,0,1,0-.81l.24-.87s-.13-.54-.57-.2l-.47.9a1.86,1.86,0,0,0-.22.62l0,.6"/><path class="cls-4" d="M166.84,227.4l-.32-.48a1.22,1.22,0,0,1-.21-.7l-.19-1.16"/><polyline class="cls-4" points="165.67 225.07 165.31 226.55 165.61 227.52"/><polyline class="cls-4" points="168.63 226.44 168.16 226.05 167.27 224.65"/><polyline class="cls-4" points="166.71 224.9 167.01 226.48 167.74 227.04"/><polyline class="cls-4" points="169.9 224.92 169.35 224.46 168.19 223.75"/><polyline class="cls-4" points="167.72 224.29 168.51 225.39 168.94 226.01"/><path class="cls-4" d="M170.24,224.27l-.43-.31a2.59,2.59,0,0,0-.57-.29,5.2,5.2,0,0,1-.77-.42"/><polyline class="cls-4" points="168.61 222.69 169.57 222.76 170.68 223.1"/><polyline class="cls-4" points="170.91 222.34 169.88 222.1 168.73 222.07"/><polyline class="cls-4" points="168.6 221.61 170.16 221.11 170.87 221.07"/><polyline class="cls-4" points="170.76 220.35 170.01 220.44 168.47 221.01"/><polyline class="cls-4" points="168.25 220.62 169.5 219.61 170.28 219.43"/><polyline class="cls-4" points="226.8 232.59 227.09 232.59 227.13 238.11 226.88 238.12"/><polyline class="cls-4" points="216.07 232.78 215.78 232.78 215.81 238.31 216.06 238.3"/><path class="cls-4" d="M250.28,195.82s0,.75,1.93.78,1.76-.7,1.76-.7"/><line class="cls-4" x1="250.23" y1="195.9" x2="250.25" y2="199.18"/><path class="cls-4" d="M254.12,195.92l.07,2a7.31,7.31,0,0,0-1.8,1.82"/><path class="cls-4" d="M250.2,197.1a4.33,4.33,0,0,0-1.42,1.77"/><path class="cls-4" d="M254.18,196.15l5.35,1.94s1.6.75,2,3.52"/><path class="cls-4" d="M254.19,197.91a4.72,4.72,0,0,1,2.84-.74"/><path class="cls-4" d="M255.53,200.31a2.91,2.91,0,0,1,2.35-1.26,3,3,0,0,1,2.75,2.33"/><line class="cls-4" x1="256.28" y1="199.65" x2="256.37" y2="200.47"/><polyline class="cls-4" points="256.96 199.28 256.79 199.74 256.84 200.59"/><polyline class="cls-4" points="257.76 199.13 257.45 199.54 257.14 200.64"/><polyline class="cls-4" points="258.38 199.2 257.97 199.68 257.67 200.73"/><polyline class="cls-4" points="257.9 200.8 258.42 199.97 259.05 199.47"/><polyline class="cls-4" points="259.59 199.81 258.88 200.29 258.44 200.91"/><polyline class="cls-4" points="258.88 201.1 259.51 200.6 260.14 200.45"/><polyline class="cls-4" points="259.66 201.22 259.94 201.06 260.44 201.02"/><path class="cls-4" d="M249.83,206.77a3.75,3.75,0,0,0,2.83,1"/><path class="cls-4" d="M251.08,206.92s.18.63,1.54.86a6.26,6.26,0,0,0,3.33,1.43,3.27,3.27,0,0,0,3-1"/><path class="cls-4" d="M253.21,207.32a5,5,0,0,0,2.65,1.92"/><path class="cls-4" d="M252.27,207.1a2.65,2.65,0,0,0,.35.68"/><path class="cls-4" d="M191.93,199.4a6.88,6.88,0,0,0-.63-2.35l.07-1.52s.18.8,2.08.69,1.55-.84,1.55-.84l.15,2.17a3.25,3.25,0,0,1-.2,1.25"/><path class="cls-4" d="M191.26,196.12l-3.07.32s-1.37.44-1.25,3.87"/><path class="cls-4" d="M189.71,199.79s0-2.72-1.52-3.35"/><path class="cls-4" d="M195.14,195.68l.53-.06s1.36.34,1.63,2.65"/><path class="cls-4" d="M191.3,197.05a3.33,3.33,0,0,0-1-.78"/><path class="cls-4" d="M189.09,199.9s-.06-1.64-1.05-2.19-1,2.57-1,2.57"/><path class="cls-4" d="M187.4,198.24l.72.32a1.2,1.2,0,0,1,.41.62c.08.37.16.79.16.79"/><path class="cls-4" d="M187.13,199.4a1.68,1.68,0,0,1,1.06.36l.11.28"/><path class="cls-4" d="M188.31,207.27s.37.74.89.83a11.9,11.9,0,0,0,2.28-.19,3.5,3.5,0,0,0,.62-1.13"/><path class="cls-4" d="M190.2,207a1.36,1.36,0,0,1-.95,1.12"/><path class="cls-4" d="M193.83,206.52a1.49,1.49,0,0,0,1,1l2-.18s1-.63.89-1.29"/><path class="cls-4" d="M195.79,206.26s-.13,1-.91,1.29"/><path class="cls-4" d="M222.25,161.94s2.52-.1,4,3.16,3.65,4,3.65,4a3.87,3.87,0,0,0,3.37-.62l1.48-3.27"/><path class="cls-3" d="M255.2,162.56l-.29,2.92a2.49,2.49,0,0,1-.64.89c-.44.4-8,4.22-8,4.22l-.66,1.74-3.83,1.26.37,1.28s-.05.56-3,1.67l.38,10.92L238,188.7a16.25,16.25,0,0,1-6.29.63l-2-1.25-.87-8.79-.92-.16-.26-.95-.72,1.46s-6.18,1.89-10.11-.33l-1.3-6.4-2.85.38s0,3.56-4.56,5.18L206,179s-.36.28-1.85-.38A58.18,58.18,0,0,1,198.6,175s-1.57.07-1.42-2.76a1.62,1.62,0,0,1,1-1.41l26-4.21,1.16-2.75"/><line class="cls-4" x1="226.6" y1="166.09" x2="224.02" y2="166.59"/><path class="cls-4" d="M215.57,172.91l10.69-1.21s2.92-3.34-1-5.2"/><path class="cls-4" d="M216.72,178.55a2.87,2.87,0,0,0,1.05-1.55c.2-1,9.91-5.77,9.91-5.77a10.83,10.83,0,0,1,3.1-1.24c.93,0,5.33-1.08,5.33-1.08l18.56-3"/><polyline class="cls-4" points="246.03 170.59 233.68 172.72 224.61 176.77 225.48 178.23 227.7 177.86"/><line class="cls-4" x1="233.8" y1="172.66" x2="236.17" y2="169.01"/><path class="cls-4" d="M228.21,179.07l4.41-1.61,3.95-1.44s3-.84,3.86-.93,1.24-.13,1.32,0"/><path class="cls-4" d="M232.72,177.56s5.43-.14,6.4-.9"/><polyline class="cls-4" points="225.31 177.83 233.96 173.88 245.66 171.91"/><path class="cls-3" d="M255.2,162.65a100.51,100.51,0,0,1,10.1-1.07s1.37-.18,1.82.38c0,0,2.76,3.17,3.06,5.83a1.39,1.39,0,0,1-.41,1.63c-.84.56-7.33,0-12.22-2.9l-4.5.65"/><path class="cls-4" d="M267.41,162.46s-9,2.21-9.59,2.77-.89.65-.44,1.21"/><path class="cls-4" d="M198.32,170.88l6.14,6.69s.51.72,2,.46,4.41-1.28,5.44-2.49"/><path class="cls-4" d="M199.28,171.72s11.33-.26,12.87.23c0,0,.73.05.73.3a9,9,0,0,1-.16,1"/><path class="cls-1" d="M223,13.36l-2-3.82a10.57,10.57,0,0,0-6.84-5.1c-4.74-1-6.76-1.37-6.76-1.37S194.18.32,188,1.82a5.62,5.62,0,0,0-4,4.36c.08,3.48-6.57,21.12-9.37,25.88,0,0-2.35,2.18-2.26,9.49l-1.17,22.39a110.14,110.14,0,0,0,1.23,20.16L171.3,96.61l-2.29.32s-2.06.87-1.59,3.74,3.25,27.86,3.25,27.86.42,2.82-.68,4.59l2.06,16.12s-.28,3,2.4,4.07,9.29,3,9.29,3l-.15,7.36s-.24,2.12,2.68,2.46l3,.08,7.25-1.66.05-.55,8.1-1.52L218,166.66s6.82,2.33,13.27,1.43l5.46,2a35,35,0,0,0,9.72-.31c6.1-.89,7.95-3.83,47-7.19,0,0,.91-.06,1.3-2.08l1.71-.66a2.59,2.59,0,0,0,1-1.73c.19-1.21.12-12.9.81-14.82s-1.65-7.25-1.65-7.25-2.05-4.83-16.23-6.86-31,1.05-31,1.05,8.07-7.06,6.78-20.11A43.49,43.49,0,0,0,250.46,93a38.31,38.31,0,0,1-5-18.07,48.17,48.17,0,0,1,3.2-13.18c2.78-6.92-2.45-12.34-2.45-12.34s-4.07-5.87-15.06-14.07c0,0-2.22-.24-5-12.17l.31-7A2.7,2.7,0,0,0,223,13.36Z"/><path class="cls-2" d="M185.24,3.53s-2.49,23.06-4.14,28.32-6.8,20.95-6.8,20.95"/><path class="cls-2" d="M179.52,118.9l0,.15,1.13,8s1.2,8.39-.2,11.5"/><path class="cls-2" d="M174.65,32s-2.87,3.88-.27,22.28l.5,14.25L178,107.86"/><path class="cls-2" d="M187.28,107.4l-2.64-18.84s-2.26-22.47-9.88-32.2"/><path class="cls-2" d="M230.94,35.16s-1.57,9-3.52,18.79l-39.54-1c1.55-10.69-6.58-21-6.58-21"/><path class="cls-2" d="M249.63,58s-8.59,14.24-4.2,28.26c0,0,6,14.28,6.37,18.92s3.09,11.21-7.38,24.72"/><path class="cls-2" d="M245.25,85.64c-.6-3-17.83-31.69-17.83-31.69s5.37,46.52,7.15,55.89"/><path class="cls-2" d="M193.6,118.17c.06,2,.1,3.93.12,5.78a.85.85,0,0,0,0,.16,6,6,0,0,1,0,1.84V126c0,2.88,0,5.64-.05,8.47"/><path class="cls-2" d="M187.88,52.91s2,1.44,2.34,7.59c.07,1.39.32,4.57.65,9a.13.13,0,0,0,0,.06,11.47,11.47,0,0,1,.16,2.14v.06c.33,4.38.71,9.7,1.09,15.53v.06a6.5,6.5,0,0,1,.13,2v.06c.33,5.13.63,10.59.88,16.12a.2.2,0,0,0,0,.07,3.63,3.63,0,0,1,.08,1.8.48.48,0,0,0,0,.12"/><path class="cls-2" d="M184.74,88.43c2.82-8.64,3.13-34,3.14-35.45"/><path class="cls-2" d="M190.5,107.38s-4.24-34.75-3.07-40.61"/><path class="cls-2" d="M226.22,23.24a122.07,122.07,0,0,0,2,14.24c1.38,6.31-5.7,2.05-5.7,2.05a27.6,27.6,0,0,0-26.76-1.05s-4.7,2.05-5.46-2.72-1.61-22.58-1.61-22.58,0-5.11,4.68-3,19.69,10,29.63,3.1"/><path class="cls-2" d="M191.49,38S201.1,27,202,23.06s-2.33-9.91-2.33-9.91"/><path class="cls-2" d="M220.19,14.89a8.83,8.83,0,0,1,2.2,5c.22,2.93,2.74,11.13,2.74,11.13s1.85,5.64,1.85,6.8a6,6,0,0,1-.28,2.92"/><path class="cls-2" d="M249.58,130.18s-4.13.84-5.41,1.78"/><path class="cls-2" d="M296,135.16s3,3.32-2.29,6.43"/><path class="cls-2" d="M294.74,160.49l1.73-13.27s2-5.15-3.77-6-25.16-.7-25.16-.7-11.89.78-14.67-.16l-12.41-1.39-12.9,1.59s13.24,5.32,17.33,5.39c0,0,1.91.29,2.54,2.91s-.45,17.1-.45,17.1-.34,3-5.68,4.32"/><path class="cls-2" d="M231.26,168.09s12,0,15.72-2.16"/><path class="cls-2" d="M191.09,137.18s11.43-1.64,20.48,1.28S235,144.77,235,144.77s8.48,2,10.24,1.35"/><path class="cls-2" d="M191.07,134.66a72.77,72.77,0,0,1,27.65,2.65s7.83,3,9,3.2"/><path class="cls-2" d="M208.57,111.14l27.73-1.31a6.19,6.19,0,0,1,5.4,4c1.3,3.82,3.78,13,2.34,20,0,0-.75,3.9-3.58,5.16"/><path class="cls-2" d="M201.75,115.65a34.21,34.21,0,0,1,1.83,9.3c.27,5.14.23,9.54.23,9.54"/><path class="cls-2" d="M208.59,114.43s1.12,1.41,1.72,6.41,1.33,14.74,1.33,14.74"/><path class="cls-2" d="M233.27,110.05s2.28,1.65,4.34,8.69a28.32,28.32,0,0,1,.84,12.7s-1.11,6.05-5.46,8.42"/><path class="cls-2" d="M229.29,69.77S202,68.66,193,69.35a9.45,9.45,0,0,0-3.63.73c-1.24.71-2,1-2,1"/><path class="cls-2" d="M229.4,71.92s-27.31-1.11-36.29-.42a9.45,9.45,0,0,0-3.63.73c-1.24.71-2,1.06-2,1.06"/><path class="cls-2" d="M231.2,86.54s-28.39,0-37.36.65a9.45,9.45,0,0,0-3.63.73c-1.24.71-2,1-2,1"/><path class="cls-2" d="M231.57,88.56s-28.39,0-37.37.65a9.37,9.37,0,0,0-3.63.72c-1.24.72-2,1.06-2,1.06"/><path class="cls-2" d="M233.36,103.35s-28.3,1.29-37.27,2a36.43,36.43,0,0,0-3.76.38c-1.57.29-2,.07-2,.07"/><path class="cls-2" d="M233.67,105.45s-28.29,1.29-37.27,2a24.35,24.35,0,0,0-3.25.29"/><line class="cls-2" x1="197.29" y1="134.16" x2="196.03" y2="116.12"/><path class="cls-2" d="M196.43,123.8l-1.27.11a19.28,19.28,0,0,1-2.81,0,3.24,3.24,0,0,0-1-.06"/><path class="cls-2" d="M196.58,125.75l-1.31.11a20.28,20.28,0,0,1-2.88,0,3.43,3.43,0,0,0-1-.06"/><line class="cls-2" x1="191.48" y1="119.58" x2="191.1" y2="134.57"/><path class="cls-2" d="M171.38,96.53s2.55-.17,3.2,1.47l.7,9.84"/><path class="cls-2" d="M176.24,116.8,178,132.42l-2.12.26a2,2,0,0,0-1.33,2.26c.35,1.68,1.18,4.94,1.18,4.94s.76,3.49-.81,4.81-3.35-3-3.35-3l-.55-1.57"/><path class="cls-2" d="M183.14,145.41s-3.49-4.68-4.32-8.34l-.75-.79-1.81.72s-.28.52-.48.39a17.79,17.79,0,0,1-1.17-2.06"/><path class="cls-2" d="M183.46,149.17s-4.65-3.36-7.13-12"/><path class="cls-2" d="M183.5,150.28s-5.18-4.1-7.89-12.92"/><line class="cls-2" x1="183.86" y1="155.32" x2="172.62" y2="151.76"/><path class="cls-2" d="M182.75,141.66a3.42,3.42,0,0,0-1.37-.21s-.53-1.62-.56-1.94-.59-2.22-1.85-2.36"/><path class="cls-2" d="M176.24,132.73a12.81,12.81,0,0,0,.76,4"/><path class="cls-2" d="M174.66,115.82l1,15.28s.11,1.28-.8,1.39l-.66.07s-.42,0-.37.57,1.26,6.71,1.26,6.71a11.59,11.59,0,0,1,.19,3.47c-.24,1.43-.87,1.51-.87,1.51"/><path class="cls-2" d="M174.07,107.85l-.5-8.08s-.32-1.53-1.27-1.35-1.94.26-1.94.26-.31-1.51-1.27-1.68"/><line class="cls-2" x1="172.73" y1="108.12" x2="172.17" y2="98.44"/><line class="cls-2" x1="171.28" y1="108.99" x2="170.46" y2="98.67"/><path class="cls-2" d="M173.17,114.72l.52,13.44s.05,3.4,1.54,4.21"/><path class="cls-2" d="M171.49,114.15l.86,14.55s.35,3,1.44,4.23"/><path class="cls-1" d="M280.48,129l.67-14a1.79,1.79,0,0,1,.8-1.57c.9-.66,6.73-4,6.88-4l12.45-.32V108a1.25,1.25,0,0,0-.51-1.31c-.71-.4-2.43-1.51-2.43-1.51a4.32,4.32,0,0,0-2-.53c-1.31-.09-14.52-1-18.46-1s-10.38-.19-14.67.24l-.73.47a1.72,1.72,0,0,0-.71,1.52c0,1.11,0,1.58,0,1.58s.05.55.41.56l3.22.11,5.92,4.91a2.46,2.46,0,0,1,1,1.71c.14,1.16.06,13.59.06,13.59"/><line class="cls-2" x1="288.83" y1="109.4" x2="265.44" y2="108.1"/><path class="cls-2" d="M285.3,111.39l-3.68.07s-1.45-.09-3.3-.24-9.67-.46-9.67-.46"/><path class="cls-2" d="M301.18,107l-5.41.07a6.32,6.32,0,0,1-3-.59c-1.18-.7-2.36-1.56-2.36-1.56s-11.07-1.41-13.89-1.3"/><line class="cls-2" x1="291.53" y1="105.66" x2="262.21" y2="104.66"/><line class="cls-2" x1="297.51" y1="104.86" x2="290.35" y2="104.86"/><path class="cls-2" d="M196.55,164l.06-1.42-4-1.46-.79-5.59a1,1,0,0,0-.76-.35v-.88h.3l-.68-32.87s-.36-1.31,1.7-2.48,2.51-1.58,2.86-2a8,8,0,0,1,.8-.86l11.79-1a.92.92,0,0,0,.8-.91l-.22-3.28-1.52-1.25-13.61-1.93a28.36,28.36,0,0,0-5.86-.22c-1.92.32-14.37.7-14.37.7L168.39,111l.22,2.47,3.73.68,8.36,5.54a3.84,3.84,0,0,1,.56,2.17c.06,1.56,2.67,31.39,2.67,31.39s.35.56.6.6l0,1s-.57.12-.64.59l-.2.87"/><path class="cls-2" d="M190.94,154.27s-4.05.55-6.4-.43"/><path class="cls-2" d="M191.33,155.31s.45,1.53-3,1.23-3.65-.64-4.16-1.46"/><line class="cls-2" x1="192.64" y1="160.79" x2="197.1" y2="160"/><line class="cls-2" x1="196.72" y1="163.14" x2="203.57" y2="162.03"/><line class="cls-2" x1="204.7" y1="162.43" x2="192.35" y2="158.42"/><path class="cls-2" d="M195.93,116.09a50.51,50.51,0,0,1-8.77-.22l-15-1.81"/><path class="cls-2" d="M195,117.08l-6.12.67a30,30,0,0,1-5.47-.27l-7.24-.93"/><path class="cls-2" d="M208.28,110.73s.17,1.82-2.35,2-8.64.62-8.64.62a45.71,45.71,0,0,1-8-.15c-2.84-.48-20.59-2.24-20.59-2.24"/><path class="cls-2" d="M206.85,109.55l-11.66.83a17.7,17.7,0,0,1-4.4-.21l-17.79-2"/><path class="cls-2" d="M226.93,181a10.66,10.66,0,0,1-9.41.08"/><path class="cls-1" d="M189.13,22.39l-4-.28s-4.23-.51-6.43,1l-2,5s1.37-3.24,6.4-2.76l6.34.43Z"/></g></g></svg>