<svg xmlns="http://www.w3.org/2000/svg" viewBox="0 0 1593.05 1265.94"><defs><style>.cls-1,.cls-10,.cls-11,.cls-14,.cls-15,.cls-16,.cls-2,.cls-4,.cls-5,.cls-7{fill:#fff;}.cls-1,.cls-10,.cls-11,.cls-12,.cls-13,.cls-14,.cls-15,.cls-16,.cls-17,.cls-2,.cls-4,.cls-5,.cls-7,.cls-8,.cls-9{stroke:#1d1d1b;}.cls-1,.cls-10,.cls-11,.cls-12,.cls-13,.cls-4{stroke-miterlimit:10;}.cls-1,.cls-2{stroke-width:1.31px;}.cls-14,.cls-15,.cls-16,.cls-17,.cls-2,.cls-3,.cls-5,.cls-6,.cls-7,.cls-8,.cls-9{stroke-linejoin:round;}.cls-12,.cls-13,.cls-17,.cls-3,.cls-6,.cls-8,.cls-9{fill:none;}.cls-3,.cls-6{stroke:#000;}.cls-3{stroke-width:0.66px;}.cls-4,.cls-5{stroke-width:2.17px;}.cls-6,.cls-8{stroke-width:1.08px;}.cls-7{stroke-width:1.79px;}.cls-9{stroke-width:0.81px;}.cls-10,.cls-14{stroke-width:2.37px;}.cls-11,.cls-13,.cls-15,.cls-17{stroke-width:1.19px;}.cls-12{stroke-width:0.92px;}.cls-16{stroke-width:0.89px;}</style></defs><title>group</title><g id="LAteral"><g id="pe_tras" data-name="pe tras"><path class="cls-1" d="M305.8,740.72a4.31,4.31,0,0,0-2.79,2.79c-.55,2.13-.22,4.75,1,6.12s6.72,3.33,14.64,2.4,9.67-5.53,9.67-5.53a7.36,7.36,0,0,0-.44-6C326.28,737.06,305.8,740.72,305.8,740.72Z"/><path class="cls-2" d="M283.89,319.3l374.94-2.62v11.69s-.82,5.73-10,8.19-51,13.28-51,13.28L481,574.94,413.68,705.6l85.7,4.26,131.76,8.36s8.52-.66,10.65,6.06c.27.87.52,1.6.73,2.24a31.2,31.2,0,0,1,1.73,10.22v.82s.32,3.6-7,3.76-86.52,0-86.52,0l-164.53-.81H319.62l-.82.89H307.16l-2.62-2.86v-11.8l2.79-6.06s1.47-2.95,15.56-6.56,34.74-8.36,34.74-8.36l121.6-240.07,57.24-112.52.88-2.41-1.75-1.53-170-8.52-67.84-3.16s-8.74-.44-12.24-5.14S283.89,319.3,283.89,319.3Z"/><path class="cls-3" d="M304.54,726.74,356,714.89,468.52,491.26l68.83-135,2.62-4.81s.23-1.95-4.37-2.19"/><path class="cls-3" d="M413.68,705.6,409.75,713s-1.37,1.47,12.51,2.45,144.31,8.85,144.31,8.85l71.78,5.9s4.63.31,5.27-.83"/><path class="cls-2" d="M620.73,742.06l-1.11,1.4s-1.47,3.48,2.3,6.26S634.74,753,634.74,753s6.35.74,9.83-2.87-.2-7.66-.2-7.66l-2.45-2-20.86.93Z"/></g><g id="Pé_frente" data-name="Pé frente"><path class="cls-4" d="M198.05,1049.4s-3.7,1.08-4.6,4.6-.36,7.85,1.71,10.11,11.1,5.5,24.18,4,16-9.14,16-9.14,2-4.22-.72-9.9S198.05,1049.4,198.05,1049.4Z"/><path class="cls-5" d="M161.87,353.31,781.18,349v19.31s-1.36,9.47-16.51,13.53-84.18,21.93-84.18,21.93L487.4,775.57,376.24,991.39l141.57,7,217.62,13.81s14.08-1.08,17.6,10c.45,1.43.85,2.65,1.21,3.7a51.85,51.85,0,0,1,2.85,16.88v1.35s.54,5.95-11.64,6.22-142.92,0-142.92,0L330.77,1049H220.88l-1.36,1.47H200.3l-4.33-4.72V1026.3l4.6-10s2.44-4.87,25.72-10.83,57.38-13.8,57.38-13.8L484.51,595.12l94.56-185.87,1.45-4-2.89-2.53L296.85,388.68l-112.06-5.23s-14.44-.73-20.22-8.49S161.87,353.31,161.87,353.31Z"/><path class="cls-6" d="M196,1026.3l85-19.58L466.83,637.34l113.69-223,4.33-7.94s.37-3.23-7.22-3.61"/><path class="cls-6" d="M376.24,991.39l-6.49,12.18s-2.25,2.43,20.66,4.06,238.38,14.61,238.38,14.61L747.34,1032s7.66.5,8.7-1.37"/><path class="cls-5" d="M718.24,1051.61l-1.82,2.3s-2.44,5.75,3.79,10.36,21.18,5.48,21.18,5.48,10.49,1.22,16.24-4.74-.34-12.65-.34-12.65l-4-3.39-34.46,1.54Z"/></g><g id="MDF"><rect id="mdf-2" data-name="mdf" class="cls-5" x="116.39" y="320.11" width="661.17" height="28.87"/><polygon id="mdf-3" data-name="mdf" class="cls-7" points="162.95 309.28 251.19 304.14 292.15 299.18 667.76 299.9 700.15 303.78 760.25 318.75 111.25 329.78 162.95 309.28"/></g><g id="Detalhes_frente" data-name="Detalhes frente"><g id="esquerda"><path class="cls-4" d="M111.25,329.78v9.55l49,14.07L414.14,371l30.59-45.74,93.92-1.62-4.6-4.06L495.34,306l-51.7,1.36-15.7-3.25-265,5.14L117.18,322A8.09,8.09,0,0,0,111.25,329.78Z"/><polyline class="cls-8" points="160.24 353.4 170.89 327.69 162.95 309.28"/><line class="cls-8" x1="427.94" y1="304.14" x2="429.66" y2="325.25"/><polyline class="cls-8" points="443.64 307.38 444.73 325.25 429.66 325.25 170.89 327.69"/><path class="cls-9" d="M173.37,343.25s240.09,8.8,239.69,7.85,7.85-23.41,7.85-23.41l-243.34,1.76Z"/><rect class="cls-9" x="211.4" y="333.72" width="20.93" height="7.68" rx="3.84" ry="3.84" transform="translate(17.85 -11.08) rotate(2.98)"/><rect class="cls-9" x="235.76" y="334.53" width="25.42" height="7.68" rx="3.84" ry="3.84" transform="translate(6.92 -4.97) rotate(1.16)"/><rect class="cls-9" x="265.13" y="334.53" width="29.3" height="7.68" rx="3.72" ry="3.72" transform="translate(6.93 -5.61) rotate(1.16)"/><rect class="cls-9" x="300.2" y="335.59" width="49.51" height="7.68" rx="3.84" ry="3.84" transform="translate(6.96 -6.53) rotate(1.16)"/><rect class="cls-9" x="353.96" y="335.96" width="25.55" height="7.68" rx="2.76" ry="2.76" transform="matrix(1, 0.02, -0.02, 1, 6.97, -7.38)"/></g><g id="direita"><path class="cls-4" d="M667.49,322.27l-100.42-1.35v-2.44l104.48-14.34,95.82-1.36,7-1.89L792,302.51l14.35,15s2.44,29.36,0,29.91-29.5,1.35-29.5,1.35h-89.6Z"/><polyline class="cls-8" points="778.22 348.76 779.55 318.75 768.7 302.43 792 302.51"/><polyline class="cls-8" points="806.35 317.54 779.55 318.75 668.58 320.38 567.07 320.92"/><line class="cls-8" x1="671.55" y1="304.14" x2="668.58" y2="320.38"/></g></g><g id="detalhes_fundo" data-name="detalhes fundo"><polygon class="cls-4" points="508.33 299.18 292.15 299.18 284.57 302.42 257.15 302.42 299.01 291.24 360.36 291.24 449.69 288.89 455.28 290.87 484.88 289.97 508.33 299.18"/><polygon class="cls-4" points="529.63 298.99 585.93 288.89 640.97 288.08 657.75 288.08 665.06 289.16 673.09 296.74 667.76 299.9 643.13 301.25 638.8 300.35 637.99 298.99 628.34 299.18 619.22 298.9 529.63 298.99"/><path class="cls-4" d="M700.15,303.78s-5.77-3.61-6.58-3.79-11.37-4.88-11.37-4.88L674,296.92l-10.38,6.86v.54Z"/><line class="cls-4" x1="529.63" y1="298.99" x2="508.33" y2="299.17"/></g><g id="pé_tras" data-name="pé tras"><g id="pé_de_apooio" data-name="pé de apooio"><path class="cls-10" d="M1161.46,672.11l-24.23-31L945.68,837a7.09,7.09,0,0,0-2,4.63L942.39,867l1.85,3.57,12.76,1.3,1.62-1.3,7.43-.85Z"/><path class="cls-11" d="M944.24,870.57l-12.17,6.29,1.1,5.49s4.17,4.71,18.38,3.91,16.58-2.77,16.58-2.77l2-5.61-12.39-6.62-.77.61Z"/><path class="cls-11" d="M946.79,871.87l-1.91.74a11.63,11.63,0,0,0,6.23,1.42c4-.06,5.37-.51,5.43-.8s-.87-.85-.87-.85"/><path class="cls-11" d="M932.07,876.86s4.46,4.76,18.26,4.42,19.2-2.82,19.2-2.82"/><path class="cls-11" d="M932.73,880.15s6,3.68,17.14,3.39a93.86,93.86,0,0,0,18.84-2.24"/></g><g id="pé_aluminio_cima" data-name="pé aluminio cima"><path class="cls-10" d="M1034,410.11l117.13,151.61,1.86,2L1187.48,539l10.67.93,20.72,4.21v-1.06L1108,401l-22.73,3.74s-45.12,5-45.46,5S1034,410.11,1034,410.11Z"/><line class="cls-11" x1="1156.4" y1="560.34" x2="1039.81" y2="409.77"/><line class="cls-11" x1="1085.27" y1="404.78" x2="1187.48" y2="538.98"/><line class="cls-11" x1="1198.15" y1="539.91" x2="1092.92" y2="403.52"/><ellipse class="cls-11" cx="1105.68" cy="475.04" rx="5.45" ry="5.33"/><ellipse class="cls-11" cx="1105.68" cy="475.04" rx="3.41" ry="3.33"/><ellipse class="cls-11" cx="1157.82" cy="541.86" rx="5.45" ry="5.33"/><ellipse class="cls-11" cx="1157.82" cy="541.86" rx="3.32" ry="3.24"/></g><g id="pé_aluminio_baixo" data-name="pé aluminio baixo"><path class="cls-10" d="M1244.62,599c-3,8.93-2.61,10.5-2.61,10.5l12.7,16.47-2.91,12.68-11.9,32.16-4.06-.47L1388.89,869l13.45,14.67s20.42-.39,26.33-.05,6.15-1.14,7.65-2.38,2.13-6.91,2.13-6.91v-43L1249.67,583.82Z"/><polyline class="cls-11" points="1388.89 869.04 1392.87 867 1424.38 844.79 1438.45 831.34 1428.26 850.19 1438.45 872.27"/><line class="cls-11" x1="1435.17" y1="882.36" x2="1412.73" y2="853"/><polyline class="cls-11" points="1428.26 850.19 1423.95 845.09 1242.01 609.5"/><polyline class="cls-11" points="1406.52 883.64 1392.87 867 1239.9 670.81"/><polyline class="cls-11" points="1244.31 599.95 1429.01 840.37 1426.11 842.64"/><path class="cls-11" d="M1416.32,883.53s1.74,1.77,6.78,1.94,7.83-1.76,7.6-1.76Z"/><path class="cls-11" d="M1417.65,884.51l-12.23,4.56s-1.54,1-.61,3.79,1.3,3.72,1.3,3.72a38,38,0,0,0,18.44,3.74c10.73-.51,15.54-2.89,15.54-2.89l2.84-6.29s-.28-1.14-5.68-3.23-8.12-3.12-8.12-3.12Z"/><path class="cls-11" d="M1404.51,891.67s6.9,3.69,19.44,3.29,15.45-1.81,19-3.82"/><path class="cls-11" d="M1405.37,894.5s5,3.32,18.58,2.87,17.67-3.31,17.67-3.31"/><path class="cls-11" d="M1418.75,885.17l-.11,1-.43.57s1,1.32,5.51,1.24,5-1.39,5-1.39l-.47-.57-.09-1"/></g><g id="detalhe_pe_c_tampo" data-name="detalhe pe c tampo"><path class="cls-11" d="M966.2,331.24l49.17,65.87,16.2,13.34,7-.62,47.55-5.05L1110.9,401l-1.2-8.16s.85-4.15,3.33-5,17.78-1.67,17.78-1.67l1.89-.37-.93-2.72L1419.89,350v.83l1.4.91a18.51,18.51,0,0,0,3.4-.1c1.49-.22,4.13-12,4.13-12l.2-1.36-.64-1.07-1.28,1.07-8.17.46L1237.2,349.59a15.59,15.59,0,0,1-4.76-4.59c-1.62-2.71-6.09-8.83-6.09-8.83l-85.76-1.31-79.44-1.81Z"/><polyline class="cls-11" points="1015.37 397.11 1029.25 397.11 1077.03 392.54 1111.95 388.52"/><path class="cls-11" d="M1108.81,392.82c-1,.06-30.5,1.42-30.5,1.42"/><polyline class="cls-11" points="1038.41 408.75 1029.72 398.03 980.89 334.64"/><polyline class="cls-11" points="1003.39 334.64 1019.16 355.94 1109.86 358.21 1127.48 382.46 1077.03 392.54 1085.27 403.52"/></g><g id="Detalhe_meio_do_pé" data-name="Detalhe meio do pé"><path class="cls-10" d="M1164,675.38l-26.79-34.22-1.4-2.61,21.11-44.19-6-29.69.23-2.95,1.86,2L1187.48,539a40.48,40.48,0,0,1,11.91,1.21c6.8,1.67,19.48,3.93,19.48,3.93v-1.06l4.18,1.21,10.51,7.86,18.4,24.78-10,30.24s-.46,3,1.24,4.21,5.88,6.56,5.88,6.56l2.85,4s.11,3.67-6.16,19.2-2.84,23.34-2.84,23.34l-2.67,6.35-9.86-1.14-25-19a13.58,13.58,0,0,0-8.19-2.84c-1.57,0-4.82,1.72-6,2.63C1187.74,653.11,1164,675.38,1164,675.38Z"/><path class="cls-11" d="M1137.23,641.16l29.68-42.38a7.47,7.47,0,0,0,.93-6.23c-1-3.71-10.55-29.58-10.55-29.58s-.54-1.91.47-2.63"/><path class="cls-11" d="M1187.48,539l13.76,16.17,40.63,53.43-10.94,30.27s-4,7.71-2.94,11,8.82,9.67,8.82,9.67l6.07,5,1.8-6.72-9.28-7.95s-2-2.5.17-7.82"/><path class="cls-11" d="M1169.4,670.34s24.43-25.38,26.94-27.14,4-4.19,13.49,3.06,28.64,24.08,28.64,24.08"/><polyline class="cls-11" points="1168.13 596.97 1201.24 555.15 1234.02 552.75"/></g><path class="cls-12" d="M1095.42,468.57l8.45-5.93s3.36-3,9.49,4.74S1162.19,532,1162.19,532l5.14,7.88s2.06,3-10.93,10.91"/><path class="cls-12" d="M1145.54,522.74a2.24,2.24,0,0,0,.39-.64,6.49,6.49,0,0,0-.85-6.61c-5.53-7.14-20.17-26-20.65-26.16s-2.47-3.36-4.6-2.37a24.45,24.45,0,0,0-4.29,2.76"/></g><g id="pé_frente-2" data-name="pé frente"><g id="pé_de_apooio-2" data-name="pé de apooio"><path class="cls-10" d="M1140.19,795.6l-31-40.51L864.31,1011.3a9.41,9.41,0,0,0-2.6,6.05l-1.61,33.26,2.37,4.67,16.31,1.71,2.08-1.71,9.49-1.11Z"/><path class="cls-11" d="M862.47,1055.28l-15.57,8.23,1.41,7.19s5.34,6.16,23.5,5.12,21.21-3.63,21.21-3.63l2.59-7.34-15.84-8.67-1,.81Z"/><path class="cls-11" d="M865.74,1057l-2.45,1a14.6,14.6,0,0,0,8,1.86c5.15-.08,6.86-.67,6.93-1s-1.11-1.11-1.11-1.11"/><path class="cls-11" d="M846.9,1063.51s5.71,6.23,23.36,5.79,24.54-3.69,24.54-3.69"/><path class="cls-13" d="M847.75,1067.82s7.68,4.81,21.91,4.44a117.38,117.38,0,0,0,24.1-2.94"/></g><g id="pé_aluminio_cima-2" data-name="pé aluminio cima"><path class="cls-10" d="M977.24,452.75,1127,651.15l2.38,2.67,44.08-32.42,13.65,1.21,26.49,5.51v-1.39L1071.84,440.89l-29.06,4.89s-57.68,6.53-58.12,6.53S977.24,452.75,977.24,452.75Z"/><line class="cls-11" x1="1133.72" y1="649.34" x2="984.66" y2="452.31"/><line class="cls-11" x1="1042.78" y1="445.78" x2="1173.46" y2="621.4"/><line class="cls-11" x1="1187.11" y1="622.61" x2="1052.56" y2="444.14"/><line class="cls-11" x1="1046.48" y1="445.16" x2="1178.25" y2="621.4"/><circle class="cls-11" cx="1068.88" cy="537.73" r="6.97"/><circle class="cls-11" cx="1068.88" cy="537.73" r="4.35"/><circle class="cls-11" cx="1135.54" cy="625.16" r="6.97"/><circle class="cls-11" cx="1135.54" cy="625.16" r="4.25"/></g><g id="pé_aluminio_baixo-2" data-name="pé aluminio baixo"><path class="cls-10" d="M1246.52,699.93c-3.79,11.68-3.34,13.73-3.34,13.73l16.24,21.56-3.73,16.59-15.21,42.09-5.19-.62,195.68,260,17.2,19.2s26.1-.51,33.66-.07,7.86-1.48,9.79-3.11,2.72-9,2.72-9V1004L1253,680.06Z"/><polyline class="cls-11" points="1430.97 1053.28 1436.07 1050.61 1476.35 1021.55 1494.34 1003.96 1481.31 1028.62 1494.34 1057.51"/><line class="cls-11" x1="1490.15" y1="1070.71" x2="1461.46" y2="1032.29"/><polyline class="cls-11" points="1481.31 1028.62 1475.8 1021.94 1243.18 713.66"/><polyline class="cls-11" points="1453.51 1072.38 1436.07 1050.61 1240.48 793.9"/><polygon class="cls-11" points="1246.12 701.17 1482.27 1015.76 1478.56 1018.73 1244 707.69 1246.12 701.17"/><path class="cls-11" d="M1466,1072.24s2.23,2.32,8.68,2.54,10-2.3,9.71-2.3Z"/><path class="cls-11" d="M1467.75,1073.52l-15.65,6s-2,1.37-.77,5,1.66,4.85,1.66,4.85a47.5,47.5,0,0,0,23.58,4.9c13.72-.67,19.87-3.78,19.87-3.78l3.63-8.23s-.37-1.49-7.26-4.23-10.38-4.08-10.38-4.08Z"/><path class="cls-11" d="M1450.94,1082.9s8.82,4.82,24.86,4.3,19.75-2.37,24.27-5"/><path class="cls-11" d="M1452,1086.59s6.39,4.36,23.76,3.76,22.58-4.33,22.58-4.33"/><path class="cls-11" d="M1469.16,1074.39l-.15,1.28-.55.74s1.27,1.73,7,1.63,6.37-1.82,6.37-1.82l-.59-.75-.12-1.31"/></g><g id="detalhe_pe_c_tampo-2" data-name="detalhe pe c tampo"><path class="cls-10" d="M890.55,349.55l62.87,86.2,20.71,17.45,8.89-.8,60.8-6.62,31.73-4.89L1074,430.22s1.09-5.44,4.25-6.53,22.73-2.17,22.73-2.17l2.43-.5-1.19-3.56,368.37-43.39v1.08l1.78,1.19a23.76,23.76,0,0,0,4.35-.12c1.91-.3,5.29-15.7,5.29-15.7l.25-1.78-.82-1.4-1.63,1.4-10.45.6L1237,373.57a20,20,0,0,1-6.08-6c-2.08-3.56-7.79-11.57-7.79-11.57l-109.65-1.7-101.57-2.38Z"/><polyline class="cls-11" points="953.42 435.75 971.16 435.75 1032.25 429.77 1076.9 424.51"/><path class="cls-11" d="M1072.88,430.13c-1.33.09-39,1.87-39,1.87"/><polyline class="cls-11" points="982.88 450.97 971.75 436.95 909.33 354"/><polyline class="cls-11" points="938.1 354 958.26 381.88 1074.21 384.84 1096.75 416.57 1032.25 429.77 1042.78 444.14"/></g><g id="Detalhe_meio_do_pé-2" data-name="Detalhe meio do pé"><path class="cls-10" d="M1143.46,799.87l-34.25-44.78-1.78-3.41,27-57.83L1126.71,655l.29-3.86,2.38,2.67,44.08-32.42a50.22,50.22,0,0,1,15.23,1.58c8.7,2.17,24.91,5.14,24.91,5.14v-1.39l5.34,1.59,13.44,10.28L1255.91,671l-12.85,39.58s-.6,3.91,1.58,5.5,8.55,10.08,8.55,10.08l6.23,9s1.92,2.53-6.08,22.84-9,27.58-9,27.58l-3.41,8.3-12.6-1.48-32-24.87a17,17,0,0,0-10.47-3.71c-2,0-6.17,2.25-7.68,3.44C1173.8,770.73,1143.46,799.87,1143.46,799.87Z"/><path class="cls-13" d="M1109.21,755.09l38-55.45a10,10,0,0,0,1.18-8.16c-1.28-4.84-13.49-38.7-13.49-38.7s-.68-2.49.61-3.44"/><path class="cls-13" d="M1173.46,621.4l17.6,21.15,52,69.91-14,39.62s-5.14,10.08-3.76,14.43,11.27,12.65,11.27,12.65l7.76,6.48,2.31-8.8-11.87-10.4s-2.6-3.26.22-10.23,13-36.67,13-36.67"/><path class="cls-13" d="M1150.34,793.28s31.23-33.22,34.45-35.52,5.08-5.48,17.24,4,36.63,31.51,36.63,31.51"/><polyline class="cls-11" points="1148.72 697.26 1191.06 642.55 1232.97 639.41"/></g></g><g id="tampo"><g id="mdf-4" data-name="mdf"><polygon class="cls-10" points="1155.09 311.1 1096.75 311.1 995.73 307.91 972.26 310.33 977.24 336.33 1149.94 338.22 1155.09 311.1"/><polygon class="cls-10" points="1537.14 335.07 925.94 321.87 934.44 350.84 1482.28 358.75 1537.14 356.62 1537.14 335.07"/></g><g id="detallhes_tampo_frente" data-name="detallhes tampo frente"><path class="cls-10" d="M1205,329.09l26.29,40.23s4.15,4.45,5.44,4.75S1401,364.38,1401,364.38l78.29-4.75,2.52-2.76,55.31-9.69-.59-15.22a6,6,0,0,0-4.35-4.55c-4-1.29-51-11.86-51-11.86s-2-1-15.32-.89-57.53-1-57.53-1l-79.68-1.48L1237,309.52h-18l-12.16,2.67S1159,311,1157.84,311s-37.36,11.42-37.36,11.42l-5.64,3.85Z"/><path class="cls-11" d="M1476.9,316.5l-1.71.7a2.59,2.59,0,0,0-1.42,1.45L1469,330.77l11.47,25.6,1.78-1.78-1.78-35.48a2.47,2.47,0,0,0-.59-2A2.66,2.66,0,0,0,1476.9,316.5Z"/><path class="cls-13" d="M1231.85,368.91c-.33-.46-13.9-39.62-13.9-39.62l6-19.77h-4.9L1205,329.09"/><line class="cls-11" x1="1469.03" y1="330.77" x2="1217.95" y2="329.29"/><path class="cls-11" d="M1465.48,348.22l-228.11,6.22a2.43,2.43,0,0,1-2.39-1.69l-6.33-19.45a1.58,1.58,0,0,1,1.52-2.06L1461,333.33a1.3,1.3,0,0,1,1.2.85l4.43,12.32A1.29,1.29,0,0,1,1465.48,348.22Z"/><path class="cls-11" d="M1292.21,345.84h-21.6a1.15,1.15,0,0,1-1.12-.89l-1-4.37a1.15,1.15,0,0,1,1.12-1.41h20.81a1.17,1.17,0,0,1,1.07.72l1.78,4.37A1.15,1.15,0,0,1,1292.21,345.84Z"/><path class="cls-11" d="M1344.58,345.4l-45.7-.27a1.15,1.15,0,0,1-1.12-.89l-1-4.37a1.15,1.15,0,0,1,1.12-1.41l44.92.27a1.15,1.15,0,0,1,1.06.71l1.78,4.38A1.15,1.15,0,0,1,1344.58,345.4Z"/><path class="cls-11" d="M1378,344.89l-26.76.24a1.15,1.15,0,0,1-1.12-.89l-1-4.37a1.15,1.15,0,0,1,1.12-1.41l26-.24a1.16,1.16,0,0,1,1.06.72l1.78,4.37A1.15,1.15,0,0,1,1378,344.89Z"/><path class="cls-11" d="M1406,344.89l-21.8.24a1.15,1.15,0,0,1-1.12-.89l-1-4.37a1.15,1.15,0,0,1,1.12-1.41l21-.24a1.16,1.16,0,0,1,1.06.72l1.78,4.37A1.15,1.15,0,0,1,1406,344.89Z"/><path class="cls-11" d="M1428.8,344.11l-16.86.45a1.15,1.15,0,0,1-1.12-.89l-1-4.37a1.16,1.16,0,0,1,1.13-1.41l16.08-.45a1.15,1.15,0,0,1,1.06.72l1.78,4.37A1.14,1.14,0,0,1,1428.8,344.11Z"/><path class="cls-10" d="M836.18,348V320.69l13.84-15,121.59,2.57,11.27,2,84,11.66s2.18,1,2.27,2.67-23.23,1.19-23.23,1.19l-71.66-.59s-1.49-.6-7,7.8-10.48,16.61-10.48,16.61l-.2,1.29-90.94-1.29Z"/><polyline class="cls-11" points="865.64 349.55 866.41 321.77 874.74 306.18"/><polyline class="cls-11" points="836.18 320.69 866.41 321.77 972.79 321.77 1066.9 321.87"/><line class="cls-11" x1="975.68" y1="321.28" x2="971.61" y2="308.23"/></g><g id="detalhes_tampo_tras" data-name="detalhes tampo tras"><polygon class="cls-14" points="889.39 306.49 897.32 301.44 910.97 306.95 889.39 306.49"/><path class="cls-14" d="M919.19,307c.22-.32,9.56-9.07,9.56-9.07l24.32,10Z"/><path class="cls-14" d="M928.75,297.88l30.55-.52,69.76.89s69.4,10.15,70.88,10.9a2.26,2.26,0,0,1,1,2.52l-80.59-.28-.94,1.09-28.72-1.18-37.66-3.46Z"/><polyline class="cls-15" points="960.24 307.99 938.89 298.35 974.77 308.92 984.16 308.92 984.16 307.84 959.55 298.35 1002.97 301.44 1020.84 303.29 1076.74 309.52 1097.88 308.71"/><ellipse class="cls-15" cx="1029.32" cy="301.51" rx="3.89" ry="1.11"/><line class="cls-15" x1="984.16" y1="308.92" x2="1076.74" y2="309.52"/><path class="cls-14" d="M1137.83,311.74l3.26-2.22,28-9h39.3l7.56-1.93L1342,300l69.39.74,47,11s3.25,1.54,3.85,2.92l-42.39-.72-91.81-1.77-84.36-2.65h-24.62l-12.59,2.65L1157.84,311Z"/><path class="cls-15" d="M1171.86,300.47s25.57,9.71,25.87,9.71l17.51.15"/><ellipse class="cls-15" cx="1198.36" cy="305.06" rx="3.37" ry="1.55"/><polygon class="cls-16" points="1223.72 301.03 1242.93 308.19 1349.08 310.04 1327.51 302.07 1223.72 301.03"/><polyline class="cls-17" points="1373.54 312.98 1340.92 300.01 1417.92 312.38 1459.52 312.33"/><ellipse class="cls-15" cx="1425.73" cy="308.8" rx="3.26" ry="0.89"/><polygon class="cls-15" points="1268.58 305.96 1262.88 305.81 1260.5 303.83 1266.14 303.83 1268.58 305.96"/><polygon class="cls-15" points="1312.94 306.65 1305.43 306.45 1303.06 304.48 1309.73 304.48 1312.94 306.65"/><polygon class="cls-15" points="1302.66 306.46 1272.91 306.23 1269.94 303.83 1298.61 303.83 1302.66 306.46"/></g></g><path class="cls-10" d="M1129,686.05c1.21-3.24.69-4.68.69-4.68s-1-4.91-8.35-5.8-8.4,7.11-8.4,7.11c-.2.6-1.88,7.91-1.88,7.91l14.92,6.23Z"/><path class="cls-10" d="M1129.28,704.43s.39-9.39-8-12.45-16.51-.6-17.4-.7-8.7,30.06-8.7,30.06l-15.52,41.71s18,4.07,18.88,2c.3-.69,9.69-10.08,9.69-10.08l-.2-3.17Z"/><polygon class="cls-10" points="1079.65 763.05 1097.05 765.63 1083.48 780 1076.88 764.95 1079.65 763.05"/><path class="cls-10" d="M1076.88,765s-19.12-52.41-23.57-70.06-24.37-65.78-30.3-112.44-9.49-82.64-9.49-82.64l43.5,59.31s1.87,27.88,7.21,46.06,11.67,37.07,11.67,37.07l13,30.45s6.73,13.15,12.36,18.88l1.8,1.36-7.29,25.94-15.69,42.93Z"/></g></svg>