<svg xmlns="http://www.w3.org/2000/svg" viewBox="0 0 681.29 572.23"><defs><style>.cls-1,.cls-15,.cls-2,.cls-3,.cls-8{fill:#fff;}.cls-1,.cls-10,.cls-11,.cls-12,.cls-13,.cls-15,.cls-16,.cls-17,.cls-18,.cls-2,.cls-4,.cls-5,.cls-6,.cls-7,.cls-8,.cls-9{stroke:#1d1d1b;}.cls-1,.cls-11,.cls-12,.cls-13,.cls-15,.cls-16,.cls-18,.cls-19,.cls-4,.cls-5,.cls-6,.cls-7,.cls-8,.cls-9{stroke-miterlimit:10;}.cls-1,.cls-10,.cls-12,.cls-2,.cls-5{stroke-width:0.78px;}.cls-2{stroke-linejoin:bevel;}.cls-10,.cls-11,.cls-12,.cls-13,.cls-16,.cls-17,.cls-18,.cls-19,.cls-4,.cls-5,.cls-6,.cls-7,.cls-9{fill:none;}.cls-4,.cls-8{stroke-width:2.35px;}.cls-6{stroke-width:0.73px;}.cls-11,.cls-17,.cls-7{stroke-width:1.57px;}.cls-9{stroke-width:1.18px;}.cls-10,.cls-17{stroke-linejoin:round;}.cls-11,.cls-12{stroke-linecap:round;}.cls-13{stroke-width:0.46px;}.cls-14{fill:#1d1d1b;}.cls-15{stroke-width:0.59px;}.cls-16{stroke-width:0.71px;}.cls-18{stroke-width:0.75px;}.cls-19{stroke:#000;stroke-width:1.63px;}</style></defs><title>Ativo 1</title><g id="Camada_2" data-name="Camada 2"><g id="Camada_1-2" data-name="Camada 1"><g id="Camada_1-2-2" data-name="Camada 1-2"><g id="Gamma"><path class="cls-1" d="M14.76,498.37a13.81,13.81,0,0,0-11.49,5.92c-4.4,6.36,0,14.64,0,14.64,2.31,12.19,12.87,11.63,12.87,11.63,15.53-.11,13.4-18.72,13.4-18.72l.19-13S23.87,503,14.76,498.37Z"/><path class="cls-1" d="M301.11,501.08a13.77,13.77,0,0,1,11.45,6c4.36,6.39-.05,14.64-.05,14.64-1,5.33-3.69,8.29-6.35,9.93a13.58,13.58,0,0,1-11.85,1c-11.75-4.3-8-18.13-8-18.13l-.17-16.4S292,505.62,301.11,501.08Z"/><path class="cls-2" d="M227.54,453.39l-.63,1.36s-2.11-.07-4.44,9.4l25.23,6.36s3.81-12.26-2.49-15.43l-3.37-.68-3.5.54v-2Z"/><path class="cls-3" d="M153.68,538.76v2.66h-4.8L147.23,545l.24,22.35,1.77,4h4.84s.87-.89.8-4.91,0-5.05,0-5.05l7.89,0,0,7.76s.25,2.28.78,2.28h4.84a14.28,14.28,0,0,0,2.31-4.91c.33-2.22,0-20.91,0-20.91l-1.78-4.14-5.16,0-.15-1.64Z"/><path class="cls-3" d="M126.9,26.87c-2-10.2-7.87-13.1-7.87-13.1s-5.63-3.5-24-7.77S67.24,1.11,62.43,1.18,51.5,3.91,45.49,7s-6.63,9.71-6.63,9.71L26.09,64.23s-5.93,15.46-6.69,27c0,0-2.23,21.71-2.25,25.89s3.36,33.24,3.36,33.24,2.22,18.49,6.47,38.43,4.76,10.93,5.06,29.17,0,24.12,0,24.12-6.42.88-7.61,6.91,2.17,24.66,2.17,24.66,1.62,11.54,1.61,13.61a74.88,74.88,0,0,1-2.57,14.48c-1.27,3.78-3.73,13.39-3.47,14.83s.53,3,2.78,2.77l.44,1a18.83,18.83,0,0,0-4.17,11c-.38,6.84-.14,14,5.77,22.7,0,0,4.84,6.86,8.89,7,0,0,6.8,10,9.85,12.36s9.62,2.81,9.62,2.81l36.16,5.35a25,25,0,0,0,5.67,0,32.21,32.21,0,0,0,4.59-.71l8.1,1.6,27.44,3.53,57.94,5.94L232,396.13a87.06,87.06,0,0,0,17.9.07c8.64-1.06,25-4.15,27.91-5.4s58.91-18.36,58.91-18.36,5.65-3.22,6.29-4.42-.31-41-1-44.38-4-8.92-12.3-11-40-8.18-46.05-8.76-39.5.14-65.73,11.12c0,0-26,7.1-28.82,7.09a3.66,3.66,0,0,1-3.57-2.2l3.26-3.13c6.61-3.82,11.43-9,18.42-19.49s7.75-19.06,5.86-29.87-14.81-27.16-14.81-27.16c-18.15-26.83-17.42-28.14-21.71-37s-3.31-15.62-3.14-29,4-19.66,3.25-32a55.35,55.35,0,0,0-6.77-22.35s-13.27-17.44-22.58-26.95l-7.47-8.58Z"/><path class="cls-3" d="M284,304.66l-.14-6.81h1.73l.2-4,1.78-61.39,8-.76,12.75-2.62s9.2-.43,9.87-.88,5.86-4.8,1.12-10.07-21.82-6.23-30.25-5.93-26.45,3-26.45,3l-17.12,2.19s-12.48,2.31-14.42,3.75-3.86,3.37-3.67,5-.84,6.08,10.25,5l5.22,1.15,15.52.64,6.46,64.3,1,.83.13,7.6Z"/><path class="cls-3" d="M258.3,232.93s24.89,0,29.25-.45"/><path class="cls-4" d="M137.3,385.88l57.93,6.89L231.94,397a87.06,87.06,0,0,0,17.9.06c8.64-1.05,25.58-5,28.46-6.18s58.35-17.56,58.35-17.56,5.65-3.22,6.29-4.42-.31-41.88-1-45.3-4-8.92-12.29-11-40-8.18-46-8.76-39.5.14-65.73,11.12c0,0-26,7.1-28.82,7.09a3.66,3.66,0,0,1-3.57-2.2l3.26-3.13c6.61-3.82,11.43-9,18.42-19.49s7.75-19.06,5.86-29.87-14.81-27.16-14.81-27.16c-18.15-26.83-17.42-28.14-21.71-37s-3.31-15.62-3.14-29,4-19.66,3.25-32a55.35,55.35,0,0,0-6.77-22.35s-13.27-17.44-22.58-26.95l-7.47-8.58"/><path class="cls-4" d="M126.9,26.87c-2-10.2-7.87-13.1-7.87-13.1s-5.63-3.5-24-7.77S67.24,1.11,62.43,1.18,51.5,3.91,45.49,7s-6.63,9.71-6.63,9.71L26.09,64.23s-5.93,15.46-6.69,27c0,0-2.23,21.71-2.25,25.89s3.36,33.24,3.36,33.24,2.22,18.49,6.47,38.43,4.76,10.93,5.06,29.17,0,24.12,0,24.12-6.42.88-7.61,6.91,2.17,24.66,2.17,24.66,1.62,11.54,1.61,13.61a74.88,74.88,0,0,1-2.57,14.48c-1.27,3.78-3.73,13.39-3.47,14.83s.53,3,2.78,2.77l.44,1a18.83,18.83,0,0,0-4.17,11c-.38,6.84-.14,14,5.77,22.7,0,0,4.84,6.86,8.89,7,0,0,6.8,10,9.85,12.36S55.38,377,55.38,377l36.16,5.36a23.9,23.9,0,0,0,5.67,0,31,31,0,0,0,4.59-.7l9.64,1.85"/><path class="cls-4" d="M283.64,303.86l-.12-6.09h1.67l.21-4,1.79-61.39,7.95-.76L307.9,229s9.19-.43,9.86-.88,5.85-4.8,1.13-10.07-21.82-6.27-30.27-5.94-26.45,3-26.45,3L245,217.25s-12.48,2.31-14.41,3.76-3.86,3.36-3.68,5-.8,6.09,10.26,5l5.22,1.14,15.5.61,6.46,64.3,1,.83.11,6.41"/><path class="cls-4" d="M257.94,232.82s24.9,0,29.26-.45"/><line class="cls-5" x1="265.71" y1="297.63" x2="283.42" y2="297.29"/><path class="cls-4" d="M73.2,340.56s17.65-32.1,14.86-57.06S75.56,242,75.56,242"/><path class="cls-6" d="M102.54,271.71s-8.32-28.54-10.1-29.63"/><path class="cls-7" d="M84.24,223.06S35,129.76,20.89,81.57"/><path class="cls-4" d="M20.89,81.57l1,13.24C25.6,139.7,64.37,226.25,64.37,226.25"/><path class="cls-7" d="M195.3,302.54s20.35-19.61,8.89-39.93-31-50.32-33.07-56.6a68.84,68.84,0,0,1-1.76-36.1c1.8-8.36,5.61-35.74,2.09-47"/><path class="cls-7" d="M87.71,222.46s-3.55-16.1-9.79-50.8-10.76-46-13-47.08-4.35,4.89-4.35,4.89-2.3,8.62,1.6,27.12,16.07,54.83,16.07,54.83"/><path class="cls-7" d="M167.52,255.25s-28.26-123.93-30.16-126.1-3.59-3.26-6.27-3.16-58.4-4.14-66.2-1.41"/><line class="cls-5" x1="70.19" y1="136.41" x2="88.05" y2="123.84"/><line class="cls-5" x1="75.22" y1="157.55" x2="120.26" y2="125.42"/><line class="cls-5" x1="139.04" y1="134.35" x2="79.26" y2="179.08"/><line class="cls-5" x1="143.74" y1="153.89" x2="83.19" y2="200.04"/><line class="cls-5" x1="148.6" y1="172.69" x2="87.5" y2="221.5"/><line class="cls-5" x1="153.1" y1="191.68" x2="122.76" y2="218.32"/><line class="cls-5" x1="157.65" y1="211.1" x2="148.43" y2="219.79"/><line class="cls-5" x1="102.04" y1="219.63" x2="85.74" y2="213"/><line class="cls-5" x1="131.76" y1="218.64" x2="81.81" y2="192.79"/><path class="cls-5" d="M158.76,215.88c-.48,0-80.66-43.43-80.66-43.43"/><path class="cls-5" d="M154.25,196.55s-78.86-43.7-80.14-44.28"/><path class="cls-5" d="M68.56,131.33s1.76,0,8.86,4,72,40.89,72,40.89"/><line class="cls-5" x1="145.11" y1="156.84" x2="83.46" y2="123.83"/><line class="cls-5" x1="139.67" y1="136.66" x2="113.99" y2="125.39"/><line class="cls-5" x1="144.07" y1="243.18" x2="162.47" y2="255.24"/><line class="cls-5" x1="134.18" y1="255.61" x2="148.35" y2="243.19"/><path class="cls-7" d="M64.16,124.46s-3.78-39.8-12.37-52.61C42.14,57.42,27.36,59.53,27.36,59.53"/><path class="cls-7" d="M134.61,126.78s9.61-28.91,5.72-41.72"/><path class="cls-4" d="M134.62,257.71l36.49-2.44s7.2,0,10.91,3.51,14.13,9.65,13.92,33.29-14.75,31-14.75,31l-48.08,2.12"/><path class="cls-7" d="M163.13,255.79S182.17,268,183,287.4s-7.91,36-7.91,36"/><path class="cls-7" d="M32.07,242.06l8.26-.87s6,.92,7.87,13,4.65,35,4.65,35,.95,13.63-1.78,19.26l-3,.44s-.11,3.5-.64,4-.47,3.23.34,3.59,5,5.34,7.44,8.49,18,15.62,18,15.62A13.45,13.45,0,0,1,75,345.61c.61,3.42,2.83,14,4.8,16.39s10.51,5.89,10.51,5.89,10.52,4.27,11.06,4.9,2.23,2.53,2.33,4.15"/><path class="cls-7" d="M102.56,381.86s10.17-2,8-10.47-6.89-8.76-14.7-15.89"/><path class="cls-7" d="M31.06,343.1s20.34,19.48,32.32,23.8c0,0,.28.73,2-1.81a31.62,31.62,0,0,0,3-5.65,6.12,6.12,0,0,0-1.82-4.71C64.35,352.29,57,344.67,57,344.67l-4.12.54-16.09-14Z"/><path class="cls-4" d="M52.84,345.2s2.78-10.42-3-19.81a20.58,20.58,0,0,0-7.39-7,14.32,14.32,0,0,0-13.34-.63,12.77,12.77,0,0,0-3.68,2.63"/><path class="cls-4" d="M35.87,361s8.21,3.07,12.82-2.89"/><path class="cls-7" d="M24.94,319.31s3.35-5.93,8.33-7.23a16.93,16.93,0,0,1,10,.92h1.68a5.71,5.71,0,0,0,1.22-4.7c-.59-2.64,1-1.92.85-3.6s-5.72-51.34-5.72-51.34-.52-9-8.59-11"/><path class="cls-4" d="M132.43,331.09s24.24-1.49,41.28,1,41,6.42,45.33,6.27,37,1.58,43.31,5,53.91-10.38,53.91-10.38l13.93-2.83s9.67-3.28,10-10.5"/><path class="cls-7" d="M192.87,324s41.62-9.81,56.28-11.43,33.84-1.09,40.43,1.09,10.54,6.76,11.49,9.52c0,0,21.72-.16,27.58,3.1a29.94,29.94,0,0,1,4.41,2.54s7,6.86,6.58,21a109.82,109.82,0,0,1-3,23.53"/><path class="cls-7" d="M167.93,324.49,199.41,328s35.87,2.59,39,3.52,21.61,2.06,29,12.3A81.76,81.76,0,0,1,275,373.94c1.08,17.66.85,17.73.85,17.73"/><polyline class="cls-5" points="255.7 324.8 242.48 331.5 265.52 329.39 273.11 324.25 217.81 326.77"/><line class="cls-5" x1="237.11" y1="325.57" x2="228.19" y2="330.27"/><line class="cls-5" x1="220.3" y1="325.51" x2="213.32" y2="329.01"/><line class="cls-5" x1="203.98" y1="325.46" x2="199.41" y2="327.96"/><line class="cls-5" x1="267.46" y1="327.44" x2="213.93" y2="328.72"/><path class="cls-5" d="M245.37,330.33l-12.73,0"/><polyline class="cls-5" points="186.82 325.99 215.15 325.5 218 326.77"/><line class="cls-5" x1="206.62" y1="328.17" x2="214.58" y2="328.19"/><path class="cls-7" d="M48.61,67.81s6-45.85,6.19-46.95,1.1-17.68,14-19.41"/><path class="cls-8" d="M73.14,9.43,70.08,66.35s-3.56,13,12.3,9.06a44.92,44.92,0,0,1,11.55-1.26c8.4.11,21.54,1.36,30.74,7.33,3.06,2,6.93,5,10.57,5.21,1.86.09,6.2-.16,9.51-15.7,3.19-15.16,2.67-35.41,2.78-43.14a5.81,5.81,0,0,0-3.46-5.51,3.28,3.28,0,0,0-1.93-.23c-2.56.53-7.81,3.23-7.81,3.23s-22.21,6-39.69-7.1L83.34,8.6S75.28,1.16,73.14,9.43Z"/><polyline class="cls-7" points="73 11.69 90.54 28.55 90.65 58.31 100.21 74.42"/><polyline class="cls-7" points="147.51 33.54 141.45 39.55 134.62 70.25 124.78 79.94"/><path class="cls-7" d="M110.74,334.61s-19.07,8.27-23.67,10.71"/><path class="cls-7" d="M81.18,356.41l6.18-.94.84-.48a3,3,0,0,0,3.24.74c1.86-.78,2.59-1.14,3.31-.71s2.15-.06,3.36-.47a4.92,4.92,0,0,1,3,0c.54.18,1.63-.35,2.65-1s3.29.25,4.32,0,2.17-2.39,2.17-2.75-3.65-5.45-3.65-5.45-17,.51-17.21.58S87,347.67,87,347.67l-1.53.29-7,.16S82.56,352.87,81.18,356.41Z"/><path class="cls-7" d="M78.53,359.16s2.36-1.25,2.65-2.75"/><path class="cls-7" d="M78.57,348.12a18.14,18.14,0,0,0-3.29-.94"/><path class="cls-9" d="M86,348.67s-.8,2.35,1.28,5.5"/><line class="cls-6" x1="140.86" y1="395.25" x2="140.11" y2="386.21"/><path class="cls-7" d="M301.07,323.15l-116.2.78a8.26,8.26,0,0,1-3.68-.84h0"/><path class="cls-8" d="M137.19,386l-1.77-12.15-1.73-1.57-2.12-45.44,1.51-.56L133.5,296l.84-52.06,9.16-.51,1.13-.64s25.86-2.73,27.58-3,2.82-2.28,3.15-5a7.62,7.62,0,0,0-1.6-5.08s-.67-2.41-9.68-5.83-22.86-4.78-22.86-4.78-17-1.12-26.1-.88S91,221.42,89.9,221.86,83,223.19,83,223.19s-14.13,1.3-18.66,3-4.07,6.19-4.12,7.75a7.15,7.15,0,0,0,2.68,5c1.47,1.15,9.41,1.4,9.41,1.4l3.2,1.74,15.14.24,9.31,1.26,1.67,14.66,7.19,66.6,1.89,1.22,1.87,43.8-1.19,2.74,0,7.06-.06,16.64,1.5,4.05c8.44,5.11,23.92,1,23.92,1l3.7-5.11.37-.91,21.4-6.41Z"/><path class="cls-8" d="M60.9,233.21s30.83-6.1,48.09-2.76,33.46,5.09,36.34,5.61,29.4-.56,30.06-1.46"/><path class="cls-8" d="M110.77,326s15.34,1.62,20.82.85"/><path class="cls-8" d="M111.45,372.08s8.09,5.35,24.07,2.26"/><g id="Base"><g id="base-2"><path class="cls-3" d="M14.29,498.44a13.83,13.83,0,0,0-11.5,5.89c-4.41,6.35,0,14.62,0,14.62C5,531.12,15.63,530.56,15.63,530.56c15.55-.1,13.4-18.69,13.4-18.69l.2-13S23.43,503,14.29,498.44Z"/><path class="cls-1" d="M90,452.09l.3,1.52s2-.11,4.3,9.39L70,469s-3.33-11.92,3-15l2.61-.94,3.5.55v-2Z"/><path class="cls-3" d="M153.39,538.82v2.66l-4.81,0L146.93,545l.23,22.32,1.77,4h4.84s.88-.9.8-4.91,0-5,0-5l7.91,0,0,7.78s.25,2.28.78,2.28h4.84a14.12,14.12,0,0,0,2.32-4.91c.35-2.22,0-20.87,0-20.87l-1.77-4.13-5.17,0-.16-1.64Z"/><path class="cls-10" d="M29.85,499.51l-.3,12.08-.47.29a12.48,12.48,0,0,0-3.73-6.2,14.17,14.17,0,0,0-4.77-2.54V500.7"/><circle class="cls-7" cx="15.66" cy="517.64" r="12.92" transform="translate(-502.03 531.51) rotate(-89.8)"/><path class="cls-11" d="M2.73,519.24a25.38,25.38,0,0,1-1.95-7.82,12.92,12.92,0,0,1,13-12.87"/><path class="cls-12" d="M.86,512.13c0-7.13,7.36-12.47,14.5-12.45"/><circle class="cls-7" cx="15.91" cy="517.68" r="2.22" transform="translate(-501.83 531.79) rotate(-89.8)"/><path class="cls-7" d="M16.2,506.75s0,7.07.32,7.44.57.64,1.38,0,4-5.58,4-5.58"/><path class="cls-7" d="M23.6,510.33S19,515.76,19,516.2s0,.86,1.05.91,6.67-1.67,6.67-1.67"/><path class="cls-7" d="M26.79,517.71s-7.06,0-7.45.28-.64.57,0,1.39,5.56,4,5.56,4"/><path class="cls-7" d="M23.76,525.12s-5.62-4.3-6.07-4.3-.85.06-.85,1.09,1.93,6.57,1.93,6.57"/><path class="cls-7" d="M14.53,506.76s.32,7.07.05,7.45-.54.66-1.39.07-4.27-5.37-4.27-5.37"/><path class="cls-7" d="M7.31,510.71s4.84,5.18,4.87,5.63,0,.86-1,1S4.43,516,4.43,516"/><path class="cls-7" d="M4.5,519.2s7.06-.35,7.45-.09.67.55.08,1.39-5.35,4.3-5.35,4.3"/><path class="cls-7" d="M8.89,526.48s4.67-5.35,5.11-5.42.86-.11,1.06.9-.64,6.84-.64,6.84"/><path class="cls-7" d="M285.85,498.4l-.05,14.72.43.31a12.54,12.54,0,0,1,4.18-5.89,14.34,14.34,0,0,1,5-2.19l.17-2.42"/><circle class="cls-7" cx="298.87" cy="520.48" r="13.2" transform="translate(-222.64 817.54) rotate(-89.8)"/><path class="cls-7" d="M312.39,522.14a20.75,20.75,0,0,0,2.06-7c.51-7.13-3.65-13.3-10.77-13.8"/><path class="cls-13" d="M314.41,515.57c.5-7.12-6.5-12.74-13.62-13.25"/><path class="cls-13" d="M313.88,518.06c-1-10.21-9.44-14-18-12.55"/><circle class="cls-7" cx="298.91" cy="520.23" r="2.22" transform="matrix(0, -1, 1, 0, -222.35, 817.32)"/><path class="cls-7" d="M299.43,509.31s-.57,7.06-.87,7.39-.63.6-1.38-.1-3.58-5.86-3.58-5.86"/><path class="cls-7" d="M291.78,512.36s4.16,5.74,4.13,6.2-.09.85-1.11.78a61.71,61.71,0,0,1-6.53-2.15"/><path class="cls-7" d="M288.06,519.45s7.06.53,7.4.81.6.62-.09,1.38-5.85,3.61-5.85,3.61"/><path class="cls-7" d="M290.52,527.05s5.93-3.9,6.37-3.85.85.13.78,1.16-2.44,6.41-2.44,6.41"/><path class="cls-7" d="M301.09,509.44s-.85,7.06-.6,7.42.49.71,1.37.17,4.66-5,4.66-5"/><path class="cls-7" d="M308,513.9s-5.21,4.82-5.28,5.26-.08.86.93,1,6.82-.82,6.82-.82"/><path class="cls-7" d="M310.17,522.56s-7.06-.89-7.42-.65-.71.48-.18,1.37,5,4.73,5,4.73"/><path class="cls-7" d="M305.24,529.51s-4.25-5.67-4.68-5.78-.84-.17-1.11.78.11,6.87.11,6.87"/><path class="cls-14" d="M70.64,468.08h0c0,.14.1.27.14.4l-.09,0Z"/><path class="cls-14" d="M69.73,463.48v0Z"/><path class="cls-3" d="M73.29,463.47h0a33.85,33.85,0,0,1-3.08-2.65,6.57,6.57,0,0,1,1.33-3.14c.83,2,2.11,5.09,2.23,5.59a.74.74,0,0,1,0,.21C73.69,463.54,73.58,463.6,73.29,463.47Z"/><path class="cls-14" d="M73.92,463.28a1.35,1.35,0,0,1-.09.56c-.1.2-.27.22-.57.09h0a28.64,28.64,0,0,1-3.13-2.69,1,1,0,0,1,.06-.42,32.45,32.45,0,0,0,3.08,2.66h0c.29.13.4.06.43,0a.37.37,0,0,0,0-.21c-.11-.5-1.4-3.61-2.23-5.59l.18-.18C73.92,462.81,73.92,463.15,73.92,463.28Z"/><path class="cls-14" d="M74.77,467.32c.18.1.39.33.45,1.18a40.79,40.79,0,0,1-.5,4.82l-.19-.13a46.45,46.45,0,0,0,.51-4.66c0-.53-.14-.67-.29-.79l-.13,0A19.89,19.89,0,0,0,72,470.23l-.19-.33c.74-.78,2.55-2.73,2.77-2.66Z"/><path class="cls-14" d="M76.83,464.87a3.62,3.62,0,0,1,.15,1.22c0,1.07-.61,1.64-1.29,1.3h0a2.39,2.39,0,0,1-1-1.46,3.31,3.31,0,0,1-.16-1.21c.06-1.08.62-1.63,1.29-1.3h.06A2.52,2.52,0,0,1,76.83,464.87Zm-1.11,2.07c.55.27,1-.16,1.07-1a2.27,2.27,0,0,0-.11-.86,2.14,2.14,0,0,0-.87-1.26h0c-.56-.27-1.05.15-1.09,1a2.43,2.43,0,0,0,.12.85,2.11,2.11,0,0,0,.86,1.26h.07"/><path class="cls-3" d="M78,466.39a15.7,15.7,0,0,0,3.19.57v1.25c-.63-.34-1.76-.95-2.6-1.37a3.4,3.4,0,0,0-1.12-.44.56.56,0,0,0-.27.48,2.2,2.2,0,0,0,.19,1c.26.74,2.12,3.79,2.64,4.63a3.81,3.81,0,0,1-.53.67c-.78-1.37-2.71-4.91-2.94-5h-.06c-.2-.09-.48-.16-.53.79,0,.68.45,3.8.68,5.22a4.06,4.06,0,0,1-1.19-.39l-.26-.14-.48-.3a40.79,40.79,0,0,0,.5-4.82c-.06-.85-.27-1.08-.46-1.18l-.14-.05c-.22-.07-2,1.86-2.77,2.66a15.1,15.1,0,0,1-.78-1.62,11.37,11.37,0,0,0,2.57-1.65,1.25,1.25,0,0,0,.24-.79,1.36,1.36,0,0,0-.24-.78,16.17,16.17,0,0,0-3-1.68l-.66-.33v-1a8,8,0,0,1,.09-1,30.81,30.81,0,0,0,3.12,2.7c.33.14.51.12.6-.08a1.35,1.35,0,0,0,.09-.56c0-.13,0-.47-2.26-5.79a3.65,3.65,0,0,1,.79-.63A55.12,55.12,0,0,0,74.35,462a1.27,1.27,0,0,0,.46.54c.15.08.26,0,.36-.17a39.6,39.6,0,0,0,.28-5.72l.25.11.26.13.17.1a42.45,42.45,0,0,0,0,5.86,1,1,0,0,0,.36.56.47.47,0,0,0,.46-.07,21.85,21.85,0,0,0,2.21-3.13,14,14,0,0,1,.71,1.39c-2.52,2.88-2.53,3.22-2.54,3.34a1.67,1.67,0,0,0,0,.63,1.11,1.11,0,0,0,.55.67Zm-1-.29a3.53,3.53,0,0,0-.15-1.21,2.49,2.49,0,0,0-1-1.47h-.06c-.67-.33-1.23.22-1.29,1.3a3.31,3.31,0,0,0,.16,1.21,2.39,2.39,0,0,0,1,1.46h0c.68.34,1.24-.23,1.29-1.3"/><path class="cls-14" d="M75.51,456.75a36.7,36.7,0,0,1-.28,5.72c-.13.17-.21.25-.37.18a1.42,1.42,0,0,1-.45-.55c-.37-.63-1.56-4.15-2-5.24l.19-.1c.59,1.72,1.56,4.47,1.85,5a1.08,1.08,0,0,0,.37.45c.11.06.18,0,.25-.13s.16-2.87.2-5.37Z"/><path class="cls-3" d="M76.5,468.57h0c.17.13,1.71,2.85,2.76,4.77a3.15,3.15,0,0,1-2.45.82c-.3-1.91-.71-4.65-.69-5.15S76.25,468.46,76.5,468.57Z"/><path class="cls-14" d="M76.5,468.11h.06c.23.11,2.19,3.65,2.94,5l-.2.19c-1-1.91-2.59-4.63-2.76-4.76h0c-.23-.11-.32-.08-.34.45s.39,3.24.69,5.15h-.2c-.22-1.41-.71-4.54-.68-5.22C76,468,76.3,468,76.5,468.11Z"/><path class="cls-14" d="M76.17,457.1l.2.11c-.11,2.49-.18,5.15-.11,5.5.06.14.11.3.23.36s.2,0,.38-.08A19.06,19.06,0,0,0,79,460a2.38,2.38,0,0,1,.18.3,20.72,20.72,0,0,1-2.2,3.13.48.48,0,0,1-.46.07,1.07,1.07,0,0,1-.37-.56A44.21,44.21,0,0,1,76.17,457.1Z"/><path class="cls-3" d="M76.49,463.06c-.12-.06-.17-.21-.23-.36-.07-.34,0-3,.11-5.49A9,9,0,0,1,79,460a19.46,19.46,0,0,1-2.09,3C76.69,463.09,76.58,463.1,76.49,463.06Z"/><path class="cls-14" d="M78.61,466.84c.85.42,2,1,2.6,1.37v.46c-.85-.47-1.93-1.06-2.7-1.43a3.51,3.51,0,0,0-.92-.38.23.23,0,0,0-.16.17,1.66,1.66,0,0,0,.14.54c.23.65,2,3.49,2.67,4.67l-.16.25c-.52-.84-2.34-3.93-2.64-4.63a2.31,2.31,0,0,1-.24-1,.54.54,0,0,1,.28-.48A3.31,3.31,0,0,1,78.61,466.84Z"/><path class="cls-3" d="M77.54,466.89a3.25,3.25,0,0,1,.92.38c.78.37,1.86,1,2.7,1.43a8.15,8.15,0,0,1-1,3.54c-.72-1.18-2.44-4-2.67-4.67a1.64,1.64,0,0,1-.13-.54A.28.28,0,0,1,77.54,466.89Z"/><path class="cls-14" d="M81.45,466.52V467h0Z"/><path class="cls-3" d="M81.31,463.42a16.48,16.48,0,0,1,.71,5.45c-.25,5.07-3.17,7.68-6.58,6l-.29-.15c-2.23-1.25-4.19-4.09-5.24-7.58a16.44,16.44,0,0,1-.7-5.45c.25-5.05,3.17-7.67,6.58-6l.29.16C78.3,457.1,80.26,459.93,81.31,463.42Zm.16,5.19a14.77,14.77,0,0,0,0-1.63v-.46h0a17.89,17.89,0,0,0-.65-3.32c-1-3.19-2.73-5.77-4.73-6.9l-.27-.14c-2.79-1.37-5.22.52-5.87,4.38l-.06-.05-.05.44,0,0c0,.34-.07.7-.09,1.06s0,.83,0,1.25v.21a17.44,17.44,0,0,0,.7,3.92l.21.64.05.46.09-.05a11.08,11.08,0,0,0,4.39,5.85l.25.13c3.14,1.58,5.81-1,6-5.85"/><path class="cls-14" d="M69.8,460.93l0-.44.05.05a3,3,0,0,1-.06.42Z"/><path class="cls-3" d="M73.72,465.87a.76.76,0,0,1-.16.38A13.42,13.42,0,0,1,71,467.91c-.1-.28-.19-.57-.29-.86a15.25,15.25,0,0,1-.61-3.42l.43.21a24.29,24.29,0,0,1,3.09,1.68A1,1,0,0,1,73.72,465.87Z"/><path class="cls-14" d="M73.91,465.91a1.29,1.29,0,0,1-.24.78,11.6,11.6,0,0,1-2.57,1.65l-.15-.4a13.42,13.42,0,0,0,2.61-1.66.76.76,0,0,0,.16-.38,1.09,1.09,0,0,0-.15-.35,25.61,25.61,0,0,0-3.09-1.68l-.43-.21v-.47l.66.32a16.17,16.17,0,0,1,3,1.68A1.52,1.52,0,0,1,73.91,465.91Z"/><path class="cls-3" d="M75,468.53a46.45,46.45,0,0,1-.51,4.66A9.74,9.74,0,0,1,72,470.26a19.89,19.89,0,0,1,2.58-2.53l.13,0C74.9,467.86,75,468,75,468.53Z"/><path class="cls-14" d="M78,465.94a16,16,0,0,0,3.14.55V467a15.7,15.7,0,0,1-3.19-.57h-.06a1.1,1.1,0,0,1-.54-.67,1.69,1.69,0,0,1-.06-.63c0-.12,0-.46,2.55-3.35l.15.37a28,28,0,0,0-2.51,3.13.88.88,0,0,0,0,.23.86.86,0,0,0,.42.46Z"/><path class="cls-14" d="M81.45,467a14.77,14.77,0,0,1,0,1.63c-.24,4.82-2.93,7.39-6,5.85l-.26-.14a11,11,0,0,1-4.38-5.84l-.15-.41-.21-.65a16.77,16.77,0,0,1-.68-3.92V462a8.07,8.07,0,0,1,.09-1,.87.87,0,0,1,.07-.42c.65-3.86,3.08-5.75,5.87-4.38l.27.14c2,1.13,3.77,3.71,4.73,6.9a17.73,17.73,0,0,1,.65,3.32A3.13,3.13,0,0,1,81.45,467Zm-.27,1.45v-1.94a16,16,0,0,0-.58-2.91,13.41,13.41,0,0,0-.54-1.5c0-.13-.1-.25-.15-.37a15.15,15.15,0,0,0-.71-1.39L79,460a9.18,9.18,0,0,0-2.6-2.81l-.19-.11-.17-.11-.26-.13-.25-.11-.18-.07a3.23,3.23,0,0,0-2.67.08l-.2.1a3.65,3.65,0,0,0-.79.63l-.17.19a6.58,6.58,0,0,0-1.33,3.13,1,1,0,0,1-.06.41,7.93,7.93,0,0,0-.08,1v1.44a14.72,14.72,0,0,0,.62,3.42c.09.29.18.58.28.86l.15.4a15.1,15.1,0,0,0,.78,1.62l.19.33a9.59,9.59,0,0,0,2.44,2.9l.19.13.48.3.26.14a3.77,3.77,0,0,0,1.19.38h.2a3.07,3.07,0,0,0,2.45-.82l.2-.19a5,5,0,0,0,.54-.67l.15-.26a8.24,8.24,0,0,0,1-3.56v-.24"/><path class="cls-3" d="M74.86,462.17a1.06,1.06,0,0,1-.37-.44c-.28-.51-1.26-3.26-1.85-5a3.23,3.23,0,0,1,2.67-.08c0,2.5-.13,5.13-.2,5.37S75,462.24,74.86,462.17Z"/><path class="cls-14" d="M81.8,462.61a19.63,19.63,0,0,1,.85,6.64c-.28,5.86-3.51,9-7.26,7.15l-.31-.17c-2.4-1.34-4.52-4.44-5.67-8.28a19.66,19.66,0,0,1-.85-6.64c.28-5.87,3.52-9,7.26-7.15l.32.16C78.53,455.67,80.66,458.77,81.8,462.61Zm.22,6.27a16.42,16.42,0,0,0-.71-5.44c-1-3.49-3-6.29-5.24-7.58l-.3-.15c-3.39-1.7-6.33,1-6.56,6a16.2,16.2,0,0,0,.72,5.45c1,3.49,3,6.29,5.23,7.58l.29.15c3.42,1.69,6.34-.92,6.58-6"/><path class="cls-3" d="M75.81,463.86a2.14,2.14,0,0,1,.87,1.26,2.27,2.27,0,0,1,.11.86c0,.78-.52,1.23-1.07,1h-.07a2.14,2.14,0,0,1-.86-1.26,2.46,2.46,0,0,1-.12-.85c0-.79.53-1.23,1.09-1Z"/><path class="cls-3" d="M77.5,465.22A29.15,29.15,0,0,1,80,462.09q.3.74.54,1.5a15.28,15.28,0,0,1,.57,2.91A16.53,16.53,0,0,1,78,466h-.06a.86.86,0,0,1-.42-.46A.88.88,0,0,1,77.5,465.22Z"/><path class="cls-14" d="M248.33,463.29h0l0,.44h0A2.08,2.08,0,0,1,248.33,463.29Z"/><path class="cls-14" d="M247.4,468.64c0-.13.11-.27.16-.41h0v.46Z"/><path class="cls-14" d="M241.53,457.79l.19-.08c.17,2.35.39,4.9.5,5.16.07.07.15.15.28.09a1.3,1.3,0,0,0,.42-.48c.33-.57,1.42-3.73,1.83-5l.22.08c-.35,1-1.58,4.6-1.95,5.24a1.45,1.45,0,0,1-.48.56c-.17.08-.29,0-.41-.14A38.85,38.85,0,0,1,241.53,457.79Z"/><path class="cls-14" d="M241,468.81c.22-.11.5-.15.59.78a45.44,45.44,0,0,1-.5,5.09l-.2,0c.25-1.86.57-4.54.52-5s-.14-.53-.38-.42l-.08,0c-.18.11-1.79,2.88-2.9,4.85l-.23-.17c.64-1.13,2.83-5,3.09-5.13Z"/><path class="cls-14" d="M240.76,458.2a34,34,0,0,1,.36,5.64c-.11.29-.2.48-.38.57a.62.62,0,0,1-.5-.05,19.42,19.42,0,0,1-2.66-2.79l.19-.3a17.84,17.84,0,0,0,2.5,2.64.54.54,0,0,0,.43,0c.15-.07.21-.24.28-.42s-.16-2.83-.4-5.21Z"/><path class="cls-14" d="M239.12,467.5a1.6,1.6,0,0,1,.63-.23.52.52,0,0,1,.34.45,2.12,2.12,0,0,1-.17,1c-.26.73-2.21,3.84-2.75,4.7l-.2-.23c.9-1.43,2.59-4.15,2.81-4.77a1.33,1.33,0,0,0,.13-.52s0-.08-.19-.15a1.28,1.28,0,0,0-.47.18c-.79.37-2.36,1.25-3.55,1.92v-.45C236.39,468.94,238.16,468,239.12,467.5Z"/><path class="cls-14" d="M239.87,466a1.67,1.67,0,0,1,0,.59,1.14,1.14,0,0,1-.59.73l-.09.05a23.1,23.1,0,0,1-3.57.83v-.47a23.65,23.65,0,0,0,3.5-.81l.08-.05a1,1,0,0,0,.48-.51.54.54,0,0,0,0-.18,30.8,30.8,0,0,0-3-2.81l.16-.35C239.81,465.52,239.85,465.83,239.87,466Z"/><path class="cls-14" d="M248.27,462.32c0,.32,0,.64.06,1v.47a13.64,13.64,0,0,1-.42,3.24c-.1.41-.22.83-.35,1.23-.05.14-.11.28-.15.41a11.71,11.71,0,0,1-4.65,6.05c-.17.09-.33.18-.49.25-3.36,1.56-6.39-.63-6.89-5.18a13.65,13.65,0,0,1-.06-1.57v-.46a14.86,14.86,0,0,1,.4-2.66c.84-3.39,2.82-6.34,5.16-7.69l.48-.25c3-1.41,5.73.2,6.64,3.78a2.71,2.71,0,0,1,.09.41C248.16,461.65,248.22,462,248.27,462.32Zm-.24,1.11a7,7,0,0,0-.05-.92,9,9,0,0,0-.14-.93,1.47,1.47,0,0,0-.1-.4,5.64,5.64,0,0,0-1.66-2.88l-.21-.17a3.36,3.36,0,0,0-.9-.52l-.22-.08a4.28,4.28,0,0,0-3,.18l-.19.08-.1,0-.47.25-.2.12-.18.12a10.13,10.13,0,0,0-2.81,2.95l-.19.3a15.79,15.79,0,0,0-.74,1.41l-.16.35a15.94,15.94,0,0,0-.7,2.12,13.93,13.93,0,0,0-.35,2.24v.47c0,.41,0,.79,0,1.21v.45a7,7,0,0,0,1.28,3.34l.19.23a4.43,4.43,0,0,0,.64.59l.22.17a3.94,3.94,0,0,0,2.84.54l.21,0a5.72,5.72,0,0,0,1.12-.39l.5-.26c.18-.11.36-.22.53-.34l.18-.14a10.47,10.47,0,0,0,2.69-3l.19-.33a13.47,13.47,0,0,0,.79-1.62l.15-.41a12.63,12.63,0,0,0,.45-1.48,13.1,13.1,0,0,0,.37-2.72v-.48"/><path class="cls-14" d="M243.78,466.46a1.31,1.31,0,0,1,.23-.79,31.21,31.21,0,0,1,4-2.27v.48a35,35,0,0,0-3.93,2.17,1,1,0,0,0-.15.34s0,.12.2.33a14.35,14.35,0,0,0,3,1.36c0,.14-.1.28-.16.41a13.93,13.93,0,0,1-3-1.34A1.07,1.07,0,0,1,243.78,466.46Z"/><path class="cls-3" d="M243.8,463.91c.13-.52,1.44-3.65,2.28-5.61a5.64,5.64,0,0,1,1.66,2.88,36.87,36.87,0,0,1-3.38,2.87h0c-.36.16-.47.08-.51,0Z"/><path class="cls-14" d="M243.05,465.33a3.21,3.21,0,0,1-.08,1.07,2.66,2.66,0,0,1-1.09,1.63l-.1.05c-.72.34-1.36-.14-1.46-1.16a3,3,0,0,1,.08-1.07,2.62,2.62,0,0,1,1.08-1.63l.09-.05C242.3,463.83,242.94,464.33,243.05,465.33Zm-.24.83a2.08,2.08,0,0,0,.06-.7c-.09-.79-.64-1.13-1.26-.84l-.09.05a2.28,2.28,0,0,0-1,1.41,2.2,2.2,0,0,0-.06.72c.08.78.64,1.11,1.24.83l.11-.05a2.32,2.32,0,0,0,1-1.42"/><path class="cls-3" d="M241.61,464.62c.62-.29,1.17.08,1.26.84a2.08,2.08,0,0,1-.06.7,2.32,2.32,0,0,1-1,1.42l-.11.05c-.6.28-1.16-.09-1.24-.83a2.2,2.2,0,0,1,.06-.72,2.28,2.28,0,0,1,1-1.41Z"/><path class="cls-14" d="M249.38,461.64a15.62,15.62,0,0,1-.41,5.49c-1,4-3.3,7.45-6.06,9l-.57.3c-3.93,1.86-7.51-.75-8.09-6.08a16.12,16.12,0,0,1,.41-5.49c1-4,3.31-7.46,6.07-9,.18-.11.37-.2.55-.29C245.24,453.7,248.81,456.3,249.38,461.64Zm-.67,5.06a14.62,14.62,0,0,0,.37-4.89c-.54-4.92-3.9-7.3-7.7-5.51a6.36,6.36,0,0,0-.58.3c-2.68,1.56-4.93,4.86-5.87,8.68a14.56,14.56,0,0,0-.37,4.88c.54,4.94,3.93,7.3,7.71,5.52l.57-.3c2.67-1.56,4.92-4.87,5.87-8.68"/><path class="cls-15" d="M249.08,461.84c-.54-4.93-3.9-7.3-7.7-5.52a6.36,6.36,0,0,0-.58.3c-2.68,1.56-4.93,4.87-5.87,8.68a14.6,14.6,0,0,0-.37,4.88c.54,4.95,3.93,7.3,7.71,5.52a5.21,5.21,0,0,0,.57-.3c2.67-1.55,4.92-4.87,5.87-8.68A14.56,14.56,0,0,0,249.08,461.84Zm-.75,1.92a14.76,14.76,0,0,1-.42,3.24c-.1.41-.22.83-.35,1.23v.46l-.12-.05a11.71,11.71,0,0,1-4.65,6.05c-.17.09-.33.18-.49.25-3.36,1.56-6.39-.63-6.89-5.18-.05-.5-.07-1-.08-1.57v-.46h.05a15.81,15.81,0,0,1,.4-2.66c.84-3.39,2.82-6.34,5.16-7.69l.48-.25c3-1.41,5.74.2,6.64,3.78l.09-.07.06.43-.06.05a7.86,7.86,0,0,1,.17,1c0,.32.05.63.05,1l0,.45h0"/><path class="cls-14" d="M248.1,460.85l.06.44-.06,0a3,3,0,0,0-.09-.41Z"/><path class="cls-14" d="M244.36,464.05a36.87,36.87,0,0,0,3.38-2.87,2,2,0,0,0,.1.4,35.5,35.5,0,0,1-3.45,2.92h0c-.35.15-.54.14-.66-.06a1.4,1.4,0,0,1-.11-.53c0-.14,0-.46,2.26-5.79l.2.17c-.83,2-2.14,5.09-2.27,5.61v.17c0,.06.15.14.51,0Z"/><path class="cls-14" d="M242.89,467.89l.14-.06c.25-.09,2.5,1.71,3.25,2.31l-.19.33a20.06,20.06,0,0,0-3-2.22l-.12.05c-.2.1-.3.25-.32.78a36.8,36.8,0,0,0,.77,4.42l-.18.13a33.82,33.82,0,0,1-.77-4.59C242.45,468.25,242.68,468,242.89,467.89Z"/><path class="cls-3" d="M242.93,468.33l.12-.05a19.87,19.87,0,0,1,3,2.19,10.47,10.47,0,0,1-2.69,3,38.52,38.52,0,0,1-.77-4.42C242.63,468.59,242.73,468.43,242.93,468.33Z"/><path class="cls-3" d="M240.7,464a.54.54,0,0,1-.43,0,17.84,17.84,0,0,1-2.5-2.64,10.13,10.13,0,0,1,2.81-2.95c.24,2.35.44,4.9.4,5.21C240.91,463.71,240.85,463.88,240.7,464Z"/><path class="cls-3" d="M239.91,467.87a1.33,1.33,0,0,1-.13.52c-.22.62-1.91,3.34-2.81,4.77a6.92,6.92,0,0,1-1.27-3.34c1.17-.67,2.75-1.56,3.55-1.92a1.28,1.28,0,0,1,.47-.18C239.87,467.79,239.9,467.84,239.91,467.87Z"/><path class="cls-3" d="M239.22,466.83l-.09.05a23.09,23.09,0,0,1-3.5.81,13.93,13.93,0,0,1,.35-2.24,15.94,15.94,0,0,1,.7-2.12,30.8,30.8,0,0,1,3,2.81.37.37,0,0,1,0,.18A1,1,0,0,1,239.22,466.83Z"/><path class="cls-14" d="M235.29,468.22v-.46h.06v.46Z"/><path class="cls-3" d="M147.26,387.3,147.15,402s-1.24,1.05-.89,7.89c0,0-1.84,0-2,5.25s-1.21,32.17-1.21,32.17-22.66-9.8-57.74-4.59c0,0-8.69,1.45-9.38,5.46s.19,5.08.19,5.08l3,.57,10.46-.11.09-1.5a128.7,128.7,0,0,1,14.23,1.84c5.13,1.16,10.74,2.75,12.37,3.64l.1.51s-16.91,3.62-19.2,4.14-30.47,7.48-37.11,9.52-28.7,9.87-28.7,9.87L16,488.39s-3.77,2.82-2.26,9.58a4.78,4.78,0,0,0,.54.47c1.57,1.19,6.49,4,15,.47L30.88,496s46.65-14.9,78.44-18.34,30.07-3.58,30.07-3.58,5.5-.95,6.3,5.63,3.37,53.26,3.37,53.26.93,7.46,9.61,7.2,10.8-4,10.8-4,1-.78,1.2-5.41L173.38,477s2.29-2,7.07-1.2,23.26,3,23.26,3,23,3.12,37.08,6.72,46.13,12.72,46.13,12.72l1.69,3.08s5.7,3.38,9.77,1.69a30.27,30.27,0,0,1,5.61-1.94s2.38-8.25-3.47-10.91-38.11-17.17-73-24.29l-26.53-6s7.38-4.91,23.69-6,13.52-.61,13.52-.61v2l3.5-.54s1.91-6-2.14-8.11-12-5.14-33.44-3.9-30.45,5.17-30.45,5.17l-.82-32.26s.64-3.47-1.81-5.08c0,0,.62-6.72-.83-8.37L171.56,390Z"/><path class="cls-4" d="M175.79,453.72l-.09-5.9s9.32-5,36.32-5.36,29.43,5.79,29.43,5.79,1.23,1,.29,6.38a17,17,0,0,1-3.23.53c-.39-.15-.15-2-.15-2s-23.54-.39-37.63,5.94"/><path class="cls-4" d="M143,453l0-5.68s-10.13-5.43-37.13-6-29.47,5.59-29.47,5.59-1.23,1-.33,6.39a16.15,16.15,0,0,0,3.23.54c.39-.16.16-2,.16-2s23.54-.23,37.59,6.2"/><path class="cls-4" d="M144.65,475.44l-1.23-.58a10.75,10.75,0,0,0-5.8-.68h0q-7.25,1.17-14.51,1.87a360.32,360.32,0,0,0-38,5.63C63.78,486.22,31,495.83,31,495.83l-1.73,3.06c-7.48,4.44-15.38-.36-15.38-.36-1.75-8.15,2.34-10.3,2.34-10.3s19.41-9.62,51.28-18.51S143,453,143,453l.05.59"/><path class="cls-4" d="M175.16,454.61s43.61,8.15,75.42,17.26,51.15,18.87,51.15,18.87,4.06,2.17,2.27,10.31c0,0-7.94,4.75-15.38.26l-1.68-3.09s-32.73-9.85-54.09-14.53a357.15,357.15,0,0,0-37.93-5.89q-7.28-.78-14.49-2h0a10.73,10.73,0,0,0-5.8.63l-1.24.57"/><path class="cls-4" d="M144.65,475.44s1.56,1.82,2.57,22.27,1.87,35.85,1.87,35.85.64,7.19,10.79,6.53a33.4,33.4,0,0,0,5-.65,7.31,7.31,0,0,0,5.71-6.75l2.8-55.7"/><path class="cls-4" d="M160.75,458.22c10.27.3,15-4.5,15-4.5l.05-.6-1-37.85a12.43,12.43,0,0,0-.39-2.91,4.71,4.71,0,0,0-.88-1.88s-.37,5.07-12.72,5h-2.66c-12.34,0-12.66-5.12-12.66-5.12a4.56,4.56,0,0,0-.9,1.88,12.37,12.37,0,0,0-.41,2.9L143,453l.05.6s4.74,4.83,15,4.6Z"/><path class="cls-4" d="M158.58,415.5c-10.84.14-12.3-4.86-12.3-4.86l0-4.9s-.11-2.83.87-3.75c0,0-.12,4.56,12.1,4.54h.87c12.22.11,12.13-4.45,12.13-4.45,1,.93.85,3.75.85,3.75l0,4.9s-1.51,5-12.36,4.75Z"/><path class="cls-4" d="M147.21,402.4l0-15.1s5.05.49,12.38,1.48S171.57,390,171.57,390l.4,11.95s-.63,5-12,4.66S147.21,402.4,147.21,402.4Z"/><path class="cls-7" d="M153.39,539.13v2.35a1.8,1.8,0,0,1,1,1.58l8.54,0s.16-1.39.62-1.47v-1.88"/><path class="cls-7" d="M153.38,541.48l-4.81,0,.36,29.92h4.84s.93-.61.8-3.23l-.22-25.1"/><path class="cls-7" d="M148.71,541.46l-.79,1.39c-1.58,2.94-.84,1.48-1,12.84V556c.09,11.36-.31,11.07,1.23,14l.78,1.41"/><path class="cls-7" d="M163.87,541.51l4.81,0-.57,29.91h-4.84s-.92-.63-.77-3.24l.39-25.1"/><path class="cls-7" d="M168.73,541.74l.78,1.41c1.56,3,.84,1.47.92,12.84v.26c-.16,11.36.24,11.07-1.32,14l-.79,1.41"/><line class="cls-7" x1="154.59" y1="561.01" x2="162.61" y2="561.04"/><path class="cls-12" d="M1.65,514.93c0-7.14,6.1-12.2,13.24-12.17a13,13,0,0,1,5.65.8"/><circle class="cls-7" cx="298.91" cy="520.2" r="10.98"/><circle class="cls-7" cx="15.66" cy="517.64" r="10.98"/><line class="cls-16" x1="79.35" y1="453.86" x2="83.65" y2="453.75"/><path class="cls-17" d="M94.46,462.64S92.4,455,91,454.16l-.38,8.63-6.42,1.65L84,462.76a15,15,0,0,0-2.21-5.6V454A5.47,5.47,0,0,0,87,456c3.3-.52,3.66-1.95,3.66-1.95l-.88-1.24v.94l-6.09,0v-1.61"/><line class="cls-18" x1="238.24" y1="455.34" x2="233.72" y2="455.19"/><path class="cls-17" d="M222.57,463.82s2-7.41,3.49-8.26l.32,9.08,6.71,1.78.19-1.76a15.86,15.86,0,0,1,2.37-5.84l0-3.27a5.81,5.81,0,0,1-5.42,2c-3.47-.58-3.83-2.07-3.83-2.07l.93-1.35v1l6.38,0v-1.7"/></g></g></g></g><polyline class="cls-19" points="559.97 390.92 560.71 391.74 559.15 392.8 560.95 393.3 559.31 394.35 560.94 395.01 559.55 395.99 561.1 396.48 559.71 397.7 561.25 398.36 559.94 399.5 561.33 400.08 560.18 400.97 561.49 401.63 560.75 402.53"/><polyline class="cls-19" points="538.32 392.56 539.87 393.63 538.48 394.52 539.95 395.1 538.56 395.91 540.11 396.41 538.63 397.3 540.18 397.88 538.79 398.86 540.26 399.35 538.87 400.33 540.42 400.99 539.03 401.8 540.57 402.7 539.35 403.43 540.16 404.01"/><line class="cls-19" x1="560.62" y1="391.82" x2="538.48" y2="394.53"/><line class="cls-19" x1="560.95" y1="393.3" x2="538.64" y2="396.08"/><line class="cls-19" x1="560.78" y1="395.01" x2="539.12" y2="397.3"/><line class="cls-19" x1="560.93" y1="396.48" x2="539.12" y2="398.77"/><line class="cls-19" x1="561.25" y1="398.36" x2="539.19" y2="400.41"/><line class="cls-19" x1="561.25" y1="400.08" x2="539.35" y2="401.96"/><line class="cls-19" x1="561.49" y1="401.63" x2="539.59" y2="403.27"/><path class="cls-4" d="M538.69,404l23.61-1.31,1.09,16.51a21.08,21.08,0,0,1-23.61,1.63Z"/><path class="cls-19" d="M539.69,420.75a66.15,66.15,0,0,0,23.7-1.8"/><path class="cls-4" d="M541.16,421.41c0,1.14.45,37.25.45,37.25s-11.79,6.24-29.65-.76c.62-15.93,1.36-39.53,1.36-39.53a9.8,9.8,0,0,1,2.95-1.46"/><path class="cls-4" d="M513.32,418.45s6.44,4.84,26.38,1.32"/><path class="cls-4" d="M498.49,383.77s-37.92,5.42-42.49,6.14a7.65,7.65,0,0,0-6,4.31l-4.2,10a1.9,1.9,0,0,0,2.45.91,1.71,1.71,0,0,0,.41-.25c.82-2.61,3.87-9,3.87-9a7.27,7.27,0,0,1,4-2.92c6.7-1.37,46.66-6.7,46.66-6.7"/><polyline class="cls-19" points="445.66 403.92 442.96 403.75 445 405.88 450.38 407.21 448.84 405.08"/><path class="cls-4" d="M442.8,403.67s-10.26,13.19-11.57,15.48-1.25,6.85,1.93,7a9,9,0,0,1,3.27,1.72s1.05.91,3.51.34c1.47.17,2,.5,2.94.26s2.53-1.3,3.44-3.91,4.23-17.14,4.23-17.14"/><path class="cls-19" d="M445,405.88l-5.35,9.54s.64,3.68,4.74,1.24a106.58,106.58,0,0,0,4.44-9.79s-2.65,11.92-3.31,14.29c-.75,2.85-1.65,4.24-2.39,4.48a8.6,8.6,0,0,1-2.53.07c-1.15,0-2.37.49-3,.16a9.09,9.09,0,0,0-2.78-1.48c-2.85-.5-1.37-3.93-.3-5.88s8.95-13.86,8.95-13.86"/><path class="cls-4" d="M512,451.77s-27-10.38-53.33-3.45c-10.7,1.68-8,10.18-8,10.18h1.72s.08-1.39.66-1.88c1.06-.73,15.86-3.21,33.31,4.45"/><path class="cls-19" d="M452.25,458.43a13.5,13.5,0,0,0,8,.92c4.33-1,4.26-3.58,4.26-3.58"/><path class="cls-4" d="M505.34,458.45s-62.67,5.66-107.6,29.52c0,0-4.16.72-4.67,4.56s.39,5.31.23,6,5.87,3.29,11.67.78c1.16-2.37,3.53-4.89,8.11-5.77s43.59-16.11,97.26-17.23a23.54,23.54,0,0,0,5,2.63"/><path class="cls-19" d="M405.06,499.19s4.08.26,4.26-4.32"/><path class="cls-4" d="M541.22,451.87s27.07-10.19,53.35-3.08c10.69,1.76,8,10.24,8,10.24h-1.72s0-1.38-.64-1.88c-1.06-.74-15.84-3.32-33.26,4.22"/><path class="cls-19" d="M600.82,458.94a13.41,13.41,0,0,1-8,.87c-4.33-1-4.24-3.61-4.24-3.61"/><path class="cls-4" d="M547.81,458.6s62.63,6.18,107.39,30.26c0,0,4.16.75,4.64,4.59s-.43,5.31-.27,6.05-5.89,3.24-11.68.69c-1.13-2.37-3.49-4.91-8.06-5.83s-43.48-16.4-97.06-18a24.2,24.2,0,0,1-5,2.6"/><path class="cls-19" d="M647.73,500s-4.09.23-4.23-4.35"/><path class="cls-4" d="M515.36,466s1.31,47.38,2.18,53.51a37,37,0,0,1,0,11.27,11.45,11.45,0,0,0,9,5"/><path class="cls-4" d="M538.15,466.08s-1.64,47.37-2.56,53.49a37.35,37.35,0,0,0,0,11.27,11.45,11.45,0,0,1-9.09,4.95"/><path class="cls-4" d="M441.09,471.05s-.7-9.48,4.12-9.71,7.41,6.56,7.41,6.56"/><path class="cls-4" d="M445,461.34l4.66-1s5,1.89,5.69,7"/><path class="cls-19" d="M455.43,459.42v1.06s3.26,1.48,5.14,0v-1.23"/><path class="cls-19" d="M455.26,460s-1.14.24-1.14.73,5.46,2.23,7.76-.05c-.33-.74-1.39-.66-1.39-.66"/><line class="cls-19" x1="454.2" y1="460.72" x2="454.19" y2="463.91"/><line class="cls-19" x1="461.96" y1="460.75" x2="461.94" y2="465.57"/><path class="cls-4" d="M450.69,460.79s1.31-.89,2.7-1.87"/><path class="cls-4" d="M460.82,459.36s2.61,1.07,3.66,5.4"/><polyline class="cls-19" points="442.18 464.19 445.1 469.92 444.28 470.08 441.36 465.99"/><line class="cls-19" x1="444.48" y1="461.42" x2="445.59" y2="469.59"/><line class="cls-19" x1="446.27" y1="461.43" x2="446.16" y2="469.6"/><path class="cls-19" d="M450,463.73s-3,5.22-3,5.54"/><line class="cls-19" x1="448.29" y1="469.03" x2="451.16" y2="465.37"/><path class="cls-4" d="M612,471.64s.77-9.47-4.05-9.73-7.46,6.51-7.46,6.51"/><path class="cls-4" d="M608.16,461.91l-4.65-1.08s-5,1.86-5.74,7"/><path class="cls-19" d="M597.72,459.91V461s-3.27,1.46-5.14,0v-1.23"/><path class="cls-19" d="M597.8,460.48s1.14.25,1.14.74-5.48,2.19-7.76-.11c.33-.73,1.39-.64,1.39-.64"/><line class="cls-19" x1="598.94" y1="461.22" x2="598.93" y2="464.41"/><line class="cls-19" x1="591.18" y1="461.2" x2="591.16" y2="466.02"/><path class="cls-4" d="M602.45,461.32s-1.31-.91-2.69-1.89"/><path class="cls-4" d="M592.24,459.81s-2.61,1.05-3.69,5.38"/><polyline class="cls-19" points="610.85 464.78 607.97 470.49 608.79 470.65 611.66 466.58"/><line class="cls-19" x1="608.65" y1="461.99" x2="607.48" y2="470.16"/><line class="cls-19" x1="606.78" y1="461.99" x2="606.83" y2="470.15"/><path class="cls-19" d="M603.09,464.26s2.92,5.24,3,5.56"/><line class="cls-19" x1="604.71" y1="469.58" x2="601.94" y2="465.89"/><path class="cls-4" d="M398.19,500.31c-.41-.09-2,1,1.14,1.47,2.45.42,6.62,0,6.95-.63s-1-1.06-1.47-1.15"/><line class="cls-19" x1="404.65" y1="499.51" x2="404.64" y2="501.47"/><line class="cls-4" x1="397.37" y1="500.96" x2="397.36" y2="503.9"/><path class="cls-4" d="M406.28,501l-.45,10.78a2.85,2.85,0,0,1-.58,1.14"/><ellipse class="cls-19" cx="392.26" cy="516.29" rx="13.23" ry="13.4" transform="translate(-125.4 906.76) rotate(-89.8)"/><ellipse class="cls-19" cx="392.26" cy="516.29" rx="11.52" ry="11.68" transform="translate(-125.4 906.76) rotate(-89.8)"/><path class="cls-19" d="M397.37,501.94a12.49,12.49,0,0,0-16.76,5.49,12.09,12.09,0,0,0-1.33,5.31"/><path class="cls-19" d="M388.29,505.42l3.07,9.16a1.27,1.27,0,0,0-.65.48c-.82-.57-7.74-5.82-7.74-5.82"/><path class="cls-19" d="M397.68,506.1l-4.19,8.4a2.4,2.4,0,0,0-1.06-.08c-.33-1.8-1.2-9.56-1.2-9.56"/><path class="cls-19" d="M403.3,512.33l-8.35,3.4a1.78,1.78,0,0,0-.4-.65c.57-.82,5.66-7.33,5.66-7.33"/><path class="cls-19" d="M402.94,521.23l-8.07-3.7a2.66,2.66,0,0,0,.24-.74c1-.16,8.75-2.09,8.75-2.09"/><path class="cls-19" d="M396.47,527l-2.75-8.18a1.78,1.78,0,0,0,.65-.4c.82.57,6.93,5.17,6.93,5.17"/><path class="cls-19" d="M387.73,526.82l4.11-7.91a3.11,3.11,0,0,0,.9.08c.32,1.8.87,7.68,1,8.66"/><path class="cls-19" d="M381.7,521.16l8.51-3.4a1.78,1.78,0,0,0,.4.65c-.57.82-5.41,7.09-5.41,7.09"/><path class="cls-19" d="M381.49,511.85l8.81,3.95a2.35,2.35,0,0,0-.25.73c-1,.16-9.16,2.09-9.16,2.09"/><ellipse class="cls-19" cx="660.17" cy="517.22" rx="13.23" ry="13.48" transform="translate(140.65 1175.59) rotate(-89.8)"/><ellipse class="cls-19" cx="660.17" cy="517.22" rx="11.52" ry="11.68" transform="translate(140.65 1175.59) rotate(-89.8)"/><path class="cls-19" d="M655.07,502.83a12.52,12.52,0,0,1,16.73,5.61,12.11,12.11,0,0,1,1.28,5.32"/><path class="cls-19" d="M664.12,506.37,661,515.51a1.29,1.29,0,0,1,.65.49c.82-.56,7.78-5.77,7.78-5.77"/><path class="cls-19" d="M654.81,506.91l4.14,8.43a2.38,2.38,0,0,1,1.06-.08c.33-1.79,1.26-9.55,1.26-9.55"/><path class="cls-19" d="M649.15,513.18l8.32,3.46a2,2,0,0,1,.41-.65c-.57-.82-5.61-7.37-5.61-7.37"/><path class="cls-19" d="M649.45,522.09l8.1-3.65a2.66,2.66,0,0,1-.24-.74c-1-.16-8.74-2.15-8.74-2.15"/><path class="cls-19" d="M655.8,527.91l2.81-8.16a1.85,1.85,0,0,1-.66-.41c-.81.57-7,5.12-7,5.12"/><path class="cls-19" d="M664.62,527.78l-4-7.94a3.18,3.18,0,0,1-.9.08c-.34,1.79-.93,7.67-1.09,8.65"/><path class="cls-19" d="M670.69,522.08l-8.49-3.46a1.68,1.68,0,0,1-.41.65c.57.82,5.37,7.13,5.37,7.13"/><path class="cls-19" d="M671,512.85l-8.83,3.89a2.66,2.66,0,0,1,.24.74c1,.16,9.14,2.15,9.14,2.15"/><path class="cls-4" d="M654.34,501.44c.41-.08,2,1-1.15,1.47-2.45.4-6.61,0-6.94-.68s1-1.06,1.48-1.14"/><line class="cls-19" x1="647.89" y1="500.52" x2="647.88" y2="502.48"/><line class="cls-4" x1="655.07" y1="502.1" x2="655.06" y2="504.95"/><path class="cls-4" d="M646.25,502.06l.37,10.79a2.79,2.79,0,0,0,.57,1.14"/><line class="cls-19" x1="521.09" y1="534.22" x2="521.07" y2="538.14"/><path class="cls-4" d="M522.62,538.23l-5.14,0a62.32,62.32,0,0,0-1.19,13.56,2.88,2.88,0,0,1-.66,1.3l-.09,1.63s.49.5.49.74a76.29,76.29,0,0,0,1.1,12.18l5.15.34S523.35,540.36,522.62,538.23Z"/><path class="cls-19" d="M517.48,538.21s-.29,12.25-.35,29.41"/><path class="cls-4" d="M530.06,538.25l5.14,0a62.39,62.39,0,0,1,1.1,13.57,2.72,2.72,0,0,0,.65,1.3l.07,1.64s-.49.49-.49.73a75,75,0,0,1-1.18,12.17l-5.15.31S529.31,540.38,530.06,538.25Z"/><path class="cls-19" d="M535.2,538.27s.21,12.26.15,29.41"/><line class="cls-19" x1="522.78" y1="539.62" x2="529.89" y2="539.64"/><line class="cls-19" x1="522.72" y1="557.42" x2="529.83" y2="557.45"/><line class="cls-19" x1="531.21" y1="534.58" x2="531.2" y2="538.26"/><line class="cls-4" x1="516.31" y1="403.19" x2="516.26" y2="419.69"/><path class="cls-4" d="M520.4,401.65s-3.92.31-4.17,1.46,8,2.15,11.67,2.16,10.87-.53,10.3-2.09-3.91-1.48-3.91-1.48"/><path class="cls-4" d="M520.5,395.77l0,7.35s7.83,1.83,14,.05l0-6.7"/><path class="cls-4" d="M502.82,385.5s1.37,2.86,3.09,3.19S521,390,521,390"/><path class="cls-4" d="M506.23,388.78a14.14,14.14,0,0,0,6.28,2.88c5.06,1.16,9.8,2.07,9.8,2.07s4.49.51,6.45.52,10.7-.62,10.7-.62"/><path class="cls-4" d="M514.07,392s5.21,3.12,6.84,3.54a90.53,90.53,0,0,0,10.78.61,71.19,71.19,0,0,0,7.85-2.18"/><path class="cls-4" d="M520.42,395.28a1.43,1.43,0,0,0,.9,1.47c1.06.5,11.59.7,12.33.37a3.19,3.19,0,0,0,1.64-1.79"/><path class="cls-4" d="M502.3,275.31a47.43,47.43,0,0,1,6.1,8.84c2.51,5-4,24.25-4,24.25s-18.95,46.49-27.13,51.77-23.79,3.67-23.79,3.67-9-1.58-25.38-4.41-18.92-8.89-29.66-23C388.11,322.86,379.76,305,379.76,305s-2.61-3.44-.69-13.39,4.23-17.8,4.23-17.8-9.59-13.92-5.32-22.89c3.46-6.68,16-8.27,16-8.27s-.46-8.66-.21-9.89,2-4.73,8.19-5.52,29.57-2.43,44.67,1.46,30,6.39,57.83,24.62c5.85,7.54,1.9,16.35,1.9,16.35S506,274.91,502.3,275.31Z"/><path class="cls-4" d="M393.94,242.67s30.73-6.35,68.48,14.61,34.17,16.46,43.9,12.73"/><path class="cls-19" d="M393.89,232.46s2.89-6.36,28-2.85,50.41,20.76,50.41,20.76,13.36,9.77,22.75,10.21,11.45-3.47,11.45-3.47"/><path class="cls-4" d="M401.65,255.93s-5.74,7.17-4.45,12.48S435,334,435,334s5,6.79,9.2,7.54S454.69,343,454.69,343s6.78,1.17,12.52-5.51,16-37.93,17-42.17.44-8.66-4.37-12.35S440.47,251.73,401.65,255.93Z"/><path class="cls-4" d="M383.3,273.83s38.16,63.93,39.3,67.2c-4.56-4.92-21.23-25.56-25.05-32.19s-6.58-11-5.32-20"/><path class="cls-19" d="M404.48,241.64s32.26,0,76.35,29.51c13.21,7.81,21.47,4.08,21.47,4.08"/><path class="cls-19" d="M404.15,241.56s57.14,12.94,74.63,33.59c10.83,9.1,10.38,19.8,10.38,19.8a160,160,0,0,1-8.49,46c-2.56,9-11,21.44-13.72,22.57"/><ellipse class="cls-19" cx="385.96" cy="257.76" rx="2.7" ry="2.94" transform="translate(-55.18 401.97) rotate(-51.84)"/><ellipse class="cls-19" cx="383.63" cy="297.45" rx="2.7" ry="2.94" transform="translate(-32.71 47.83) rotate(-6.84)"/><ellipse class="cls-19" cx="412.67" cy="345.36" rx="3.43" ry="2.29" transform="translate(-93.39 528.3) rotate(-59.8)"/><ellipse class="cls-19" cx="458.96" cy="352.14" rx="3.59" ry="1.63" transform="translate(-22.52 672.81) rotate(-71.16)"/><path class="cls-4" d="M548.29,297s4,5.9,4.39,6.31"/><path class="cls-4" d="M558.42,272.48s-2.49,11.67,4.1,20c6.83,8.6,8.38,11.05,8.38,11.05"/><line class="cls-4" x1="558.42" y1="272.48" x2="579.8" y2="303.59"/><path class="cls-4" d="M593.35,304.38l-29.82-44.3s-.73-.82,0-3.18a69.43,69.43,0,0,1,3.62-7.83s.83-2.45,5.57-2.84,32.34,0,50.37,7.2a206.74,206.74,0,0,1,29,14.07s5.79,3.28,3.64,9.73-16.45,33.27-16.45,33.27"/><path class="cls-4" d="M554.38,238.81s9.07-2.5,11-3c-.65-.9-1.44-6.87-1.52-8.42s.75-3.92,3.86-4.89,33.91-4,57.82,1.27,44.23,12.89,53,19.7c4.15,3.28-1.52,12.74-1.52,12.74s-.58,3.27-2.3,3.67-1.56,1.54-1,2.12,7.34,5.66,4.94,14.39-20.23,39.06-20.23,39.06"/><path class="cls-4" d="M565.66,235.67s26.39-3.5,47.61,1.23,45,16.57,45,16.57,10.61,5.1,18.7,3.33"/><path class="cls-19" d="M564.55,224.88s18.23-2.63,32-2,40.89,8.47,47.5,11.44,18.18,7.82,18.18,7.82,12,5.76,17.39,2.67"/><path class="cls-19" d="M555.51,242.58s24.28-5.72,42-2.15,45.54,10.94,58.82,21.45,6.19,27.87,6.19,27.87l-11.19,23.49"/><path class="cls-19" d="M673.64,260.55s-7-.76-22.6-8.33-45-14.45-45-14.45-30.36-5.5-51.14,2.76"/><path class="cls-4" d="M398.43,336.45s-3.15,13.8.93,16.67,11.82,4.53,20.08,4.07"/><path class="cls-4" d="M464.91,363.72s27.71,17.9,34.81,20.54,24.8,7.28,39.09,8.14,89.07-9.9,122.61-24.73a51.27,51.27,0,0,0,9.82-27.82c.79-16.82-7.61-20.85-13.07-24.3s-54.69-10.49-64.73-11.17c-12-.78-41.66-1.05-48.76-1-10.7.13-18.79-.06-23.2,1s-16.76,3.21-16.76,3.21"/><path class="cls-4" d="M423.83,315.47s48-3.27,55.15-4.38"/><path class="cls-4" d="M409.77,317.87s-1.31,0-4.34,2.19"/><path class="cls-4" d="M425.05,317.43s40.26,1.69,48.24,8.34"/><path class="cls-4" d="M492.45,335.15s18,16.8,32.45,18.9a192.77,192.77,0,0,0,35,1.75"/><path class="cls-4" d="M498.87,321.77s4.49.92,10,2.32c4.4,1.25,17.15,1,28.48,7.62,7.58,4.44,19.8,13.38,23.84,25.4s-5.1,34.13-5.1,34.13"/><path class="cls-4" d="M456.92,313.05s12.49,1.11,20.16,3.26"/><path class="cls-4" d="M654.73,342.9s12.34-3.39,14.07-7.63-1.75-12.5-1.75-12.5"/><path class="cls-19" d="M528.58,327.92s55.57-7.57,62.53-11.46"/><path class="cls-4" d="M391.32,243.23s-2.65-36.36-10.06-64.56-12.14-33.94-3.9-54.09S401.43,86,407.76,72.82s11.13-30.43,11.13-30.43,5.62-17.79,18.61-19.54a108,108,0,0,1,45.73,4.49,33.35,33.35,0,0,1,19.62,17.87S515.52,91,518,96.15s19.74,33.32,19.74,33.32,6.09,8,6.29,22.73-1.25,30.54-.14,39.86,15.22,63.27,15.2,69c-.08,21.15-7.86,27.74-13.71,42.51"/><path class="cls-4" d="M382.6,310.67s-2.49,11.1.93,13.56a14.42,14.42,0,0,0,8.08,2.24"/><path class="cls-4" d="M399.82,312.36a65.5,65.5,0,0,0,1.5-8.16"/><path class="cls-4" d="M405.56,284.28s4.09-25.06,4.43-28.81"/><path class="cls-4" d="M409.35,226.71s-5.59-36.28-11.49-53.21-10.34-34.18-7.86-41.6,24.06-37.49,28.33-43.77,9.14-22.76,10.8-30.84,7-32,16.86-32.2,37.16,2,43.93,5.3"/><path class="cls-4" d="M440.66,314.3s8.39-18,12.34-48"/><path class="cls-4" d="M450.83,230s-4.57-23.87-7.07-32.62-21.47-50.71-12.68-64.81,35.87-28.22,62.28-11.3c24.2,15.52,23.92,26.79,24.87,35.78,1,9.48.7,35,.93,38.23s23.2,46.72-1.44,109.85c0,0,56.75,4.37,74.2,11.62,22.3,1.38,39.53,3.4,51.58,12.92,6.44,5.16,10.42,9.83,11.87,15,.89,3.35,1,18.46-.82,25.8"/><path class="cls-19" d="M402.34,82.11a20.16,20.16,0,0,1,16,6S438,102.82,441.49,122"/><path class="cls-19" d="M517.79,94.85s-21.8,23-24.51,26.38"/><line class="cls-19" x1="444.57" y1="198.49" x2="519.16" y2="195.32"/><line class="cls-19" x1="444.56" y1="202.09" x2="520.37" y2="198.75"/><line class="cls-19" x1="449.95" y1="226.36" x2="526.9" y2="223.28"/><line class="cls-19" x1="450.67" y1="229.96" x2="527.54" y2="226.63"/><line class="cls-19" x1="498.63" y1="249.81" x2="529.1" y2="248.28"/><line class="cls-19" x1="503.44" y1="252.85" x2="529.09" y2="251.55"/><line class="cls-19" x1="504.66" y1="278.91" x2="526.39" y2="277.03"/><line class="cls-19" x1="507.34" y1="282.27" x2="525.23" y2="280.7"/><line class="cls-19" x1="450.16" y1="283.62" x2="477.28" y2="281.27"/><line class="cls-19" x1="449.57" y1="287.13" x2="481.28" y2="284.38"/></g></g></svg>