<?xml version="1.0" encoding="utf-8"?>
<!-- Generator: Adobe Illustrator 23.0.1, SVG Export Plug-In . SVG Version: 6.00 Build 0)  -->
<svg version="1.1" id="Camada_1" xmlns="http://www.w3.org/2000/svg" xmlns:xlink="http://www.w3.org/1999/xlink" x="0px" y="0px"
	 viewBox="0 0 600 600" style="enable-background:new 0 0 600 600;" xml:space="preserve">
<style type="text/css">
	.st0{fill:#E8E7E7;}
	.st1{fill:#E7E6E6;}
	.st2{fill:#FFFFFF;}
	.st3{fill:#D3D3D3;}
	.st4{fill:none;stroke:#020203;stroke-width:0.96;stroke-miterlimit:10;}
	.st5{fill:none;stroke:#020203;stroke-width:0.48;stroke-miterlimit:10;}
	.st6{fill:none;stroke:#020203;stroke-width:0.91;stroke-miterlimit:10;}
	.st7{fill:none;stroke:#020203;stroke-width:0.79;stroke-miterlimit:10;}
	.st8{fill:none;stroke:#020203;stroke-width:0.5;stroke-miterlimit:10;}
	.st9{fill:#FFFFFF;stroke:#020203;stroke-width:0.48;stroke-miterlimit:10;}
	.st10{fill:#F2F2F2;stroke:#020203;stroke-width:0.96;stroke-miterlimit:10;}
	.st11{fill:none;stroke:#020203;stroke-width:1.01;stroke-miterlimit:10;}
	.st12{fill:none;stroke:#020203;stroke-miterlimit:10;}
	.st13{fill:none;stroke:#020203;stroke-width:0.53;stroke-miterlimit:10;}
	.st14{fill:none;stroke:#020203;stroke-width:0.75;stroke-miterlimit:10;}
	.st15{fill:none;stroke:#020203;stroke-width:0.71;stroke-miterlimit:10;}
	.st16{fill:none;stroke:#B5241F;stroke-width:1.42;stroke-miterlimit:10;}
	.st17{fill:none;stroke:#B5241F;stroke-width:1.8;stroke-miterlimit:10;}
	.st18{fill:none;stroke:#B5241F;stroke-width:1.38;stroke-miterlimit:10;}
	.st19{fill:none;stroke:#B5241F;stroke-width:1.22;stroke-miterlimit:10;}
	.st20{fill:#B5241F;}
	.st21{fill:#E52622;}
	.st22{font-family:'Roboto-Medium';}
	.st23{font-size:13px;}
	.st24{fill:none;stroke:#B5241F;stroke-width:1.37;stroke-miterlimit:10;}
	.st25{fill:none;stroke:#B5241F;stroke-width:1.39;stroke-miterlimit:10;}
	.st26{fill:none;stroke:#B5241F;stroke-width:1.28;stroke-miterlimit:10;}
	.st27{fill:none;stroke:#B5241F;stroke-width:1.33;stroke-miterlimit:10;}
	.st28{fill:none;stroke:#B5241F;stroke-width:1.46;stroke-miterlimit:10;}
	.st29{fill:none;stroke:#B5241F;stroke-width:1.29;stroke-miterlimit:10;}
	.st30{fill:none;stroke:#020203;stroke-width:0.42;stroke-miterlimit:10;}
	.st31{fill:none;stroke:#020203;stroke-width:0.95;stroke-miterlimit:10;}
	.st32{fill:none;stroke:#020203;stroke-width:0.83;stroke-miterlimit:10;}
	.st33{fill:none;stroke:#020203;stroke-width:0.52;stroke-miterlimit:10;}
	.st34{fill:none;stroke:#B5241F;stroke-width:1.53;stroke-miterlimit:10;}
	.st35{fill:none;stroke:#B5241F;stroke-width:1.5;stroke-miterlimit:10;}
	.st36{fill:none;stroke:#B5241F;stroke-width:1.51;stroke-miterlimit:10;}
	.st37{fill:none;stroke:#B5241F;stroke-width:1.6;stroke-miterlimit:10;}
	.st38{fill:none;stroke:#D41F19;stroke-width:1.3689;stroke-miterlimit:10;}
	.st39{fill:none;stroke:#D41F19;stroke-width:2.0559;stroke-miterlimit:10;}
	.st40{fill:#D41F19;}
	.st41{fill:none;stroke:#D41F19;stroke-width:1.3723;stroke-miterlimit:10;}
	.st42{fill:none;stroke:#D41F19;stroke-width:1.4294;stroke-miterlimit:10;}
	.st43{fill:none;stroke:#D41F19;stroke-width:1.8389;stroke-miterlimit:10;}
	.st44{fill:none;stroke:#D41F19;stroke-width:1.4538;stroke-miterlimit:10;}
	.st45{fill:none;stroke:#000000;stroke-width:0.5;stroke-miterlimit:10;}
	.st46{fill:none;stroke:#000000;stroke-miterlimit:10;}
	.st47{fill:none;stroke:#000000;stroke-width:0.4155;stroke-miterlimit:10;}
	.st48{fill:none;stroke:#000000;stroke-width:0.9506;stroke-miterlimit:10;}
	.st49{fill:none;stroke:#000000;stroke-width:0.827;stroke-miterlimit:10;}
	.st50{fill:none;stroke:#000000;stroke-width:0.5195;stroke-miterlimit:10;}
	.st51{fill:none;stroke:#000000;stroke-width:0.4172;stroke-miterlimit:10;}
	.st52{fill:none;stroke:#000000;stroke-width:0.419;stroke-miterlimit:10;}
	.st53{fill:none;stroke:#D41F19;stroke-width:1.4161;stroke-miterlimit:10;}
	.st54{fill:none;stroke:#D41F19;stroke-width:1.7984;stroke-miterlimit:10;}
	.st55{fill:none;stroke:#D41F19;stroke-width:1.2223;stroke-miterlimit:10;}
	.st56{fill:none;stroke:#D41F19;stroke-width:1.359;stroke-miterlimit:10;}
	.st57{fill:none;stroke:#D41F19;stroke-width:1.3456;stroke-miterlimit:10;}
	.st58{fill:none;stroke:#D41F19;stroke-width:1.1098;stroke-miterlimit:10;}
	.st59{fill:none;stroke:#D41F19;stroke-width:1.3365;stroke-miterlimit:10;}
	.st60{fill:none;stroke:#D41F19;stroke-width:1.3941;stroke-miterlimit:10;}
	.st61{fill:none;stroke:#D41F19;stroke-width:1.4643;stroke-miterlimit:10;}
	.st62{fill:none;stroke:#D41F19;stroke-width:1.3019;stroke-miterlimit:10;}
	.st63{fill:none;stroke:#D41F19;stroke-width:1.2895;stroke-miterlimit:10;}
	.st64{fill:none;stroke:#000000;stroke-width:0.96;stroke-miterlimit:10;}
	.st65{fill:none;stroke:#000000;stroke-width:0.48;stroke-miterlimit:10;}
	.st66{fill:none;stroke:#000000;stroke-width:0.9126;stroke-miterlimit:10;}
	.st67{fill:none;stroke:#000000;stroke-width:0.7939;stroke-miterlimit:10;}
	.st68{fill:none;stroke:#000000;stroke-width:0.4988;stroke-miterlimit:10;}
	.st69{fill:#FFFFFF;stroke:#000000;stroke-width:0.48;stroke-miterlimit:10;}
	.st70{fill:#F3F2F2;stroke:#000000;stroke-width:0.96;stroke-miterlimit:10;}
	.st71{fill:none;stroke:#000000;stroke-width:0.5045;stroke-miterlimit:10;}
	.st72{fill:none;stroke:#000000;stroke-width:1.0089;stroke-miterlimit:10;}
	.st73{fill:#D4D4D5;}
	.st74{fill:none;stroke:#020203;stroke-width:0.7361;stroke-miterlimit:10;}
	.st75{fill:none;stroke:#020203;stroke-width:0.368;stroke-miterlimit:10;}
	.st76{fill:none;stroke:#020203;stroke-width:0.6997;stroke-miterlimit:10;}
	.st77{fill:none;stroke:#020203;stroke-width:0.6087;stroke-miterlimit:10;}
	.st78{fill:none;stroke:#020203;stroke-width:0.3824;stroke-miterlimit:10;}
	.st79{fill:#FFFFFF;stroke:#020203;stroke-width:0.368;stroke-miterlimit:10;}
	.st80{fill:#F3F2F2;stroke:#020203;stroke-width:0.7361;stroke-miterlimit:10;}
	.st81{fill:none;stroke:#020203;stroke-width:0.3868;stroke-miterlimit:10;}
	.st82{fill:none;stroke:#020203;stroke-width:0.7736;stroke-miterlimit:10;}
	.st83{fill:none;stroke:#020203;stroke-width:0.3058;stroke-miterlimit:10;}
	.st84{fill:none;stroke:#D41F19;stroke-width:1.5373;stroke-miterlimit:10;}
	.st85{fill:none;stroke:#D41F19;stroke-width:1.2259;stroke-miterlimit:10;}
	.st86{fill:none;stroke:#D41F19;stroke-width:1.5;stroke-miterlimit:10;}
	.st87{fill:none;stroke:#D41F19;stroke-width:1.199;stroke-miterlimit:10;}
	.st88{fill:none;stroke:#D41F19;stroke-width:1.274;stroke-miterlimit:10;}
	.st89{fill:none;stroke:#020203;stroke-width:0.9506;stroke-miterlimit:10;}
	.st90{fill:none;stroke:#020203;stroke-width:0.827;stroke-miterlimit:10;}
	.st91{fill:none;stroke:#020203;stroke-width:0.5195;stroke-miterlimit:10;}
	.st92{fill:#FFFFFF;stroke:#020203;stroke-width:0.5;stroke-miterlimit:10;}
	.st93{fill:#F3F2F2;stroke:#020203;stroke-miterlimit:10;}
	.st94{fill:none;stroke:#020203;stroke-width:0.5255;stroke-miterlimit:10;}
	.st95{fill:none;stroke:#020203;stroke-width:1.0509;stroke-miterlimit:10;}
	.st96{fill:none;stroke:#020203;stroke-width:0.4155;stroke-miterlimit:10;}
	.st97{fill:none;}
	.st98{fill:none;stroke:#D41F19;stroke-width:1.4493;stroke-miterlimit:10;}
	.st99{fill:none;stroke:#D41F19;stroke-width:1.3972;stroke-miterlimit:10;}
	.st100{fill:none;stroke:#D41F19;stroke-width:1.4149;stroke-miterlimit:10;}
	.st101{fill:none;stroke:#D41F19;stroke-width:1.5415;stroke-miterlimit:10;}
	.st102{fill:none;stroke:#D41F19;stroke-width:1.4077;stroke-miterlimit:10;}
	.st103{fill:none;stroke:#D41F19;stroke-width:1.362;stroke-miterlimit:10;}
	.st104{fill:none;stroke:#D41F19;stroke-width:1.3128;stroke-miterlimit:10;}
	.st105{fill:#F3F3F3;stroke:#020203;stroke-width:0.96;stroke-miterlimit:10;}
	.st106{fill:#FFFFFF;stroke:#020203;stroke-width:0.96;stroke-miterlimit:10;}
	.st107{fill:#FFFFFF;stroke:#020203;stroke-width:0.87;stroke-miterlimit:10;}
	.st108{fill:#FFFFFF;stroke:#020203;stroke-width:0.3;stroke-miterlimit:10;}
	.st109{fill:none;stroke:#B5241F;stroke-width:1.91;stroke-miterlimit:10;}
	.st110{fill:none;stroke:#B5241F;stroke-width:1.45;stroke-miterlimit:10;}
	.st111{fill:none;stroke:#B5241F;stroke-width:1.47;stroke-miterlimit:10;}
	.st112{fill:none;stroke:#B5241F;stroke-width:1.36;stroke-miterlimit:10;}
	.st113{fill:none;stroke:#B5241F;stroke-width:1.41;stroke-miterlimit:10;}
	.st114{fill:none;stroke:#B5241F;stroke-width:1.55;stroke-miterlimit:10;}
	.st115{fill:#FFFFFF;stroke:#020203;stroke-width:0.51;stroke-miterlimit:10;}
	.st116{fill:#F2F2F2;stroke:#020203;stroke-width:1.02;stroke-miterlimit:10;}
	.st117{fill:none;stroke:#020203;stroke-width:1.02;stroke-miterlimit:10;}
	.st118{fill:none;stroke:#020203;stroke-width:0.51;stroke-miterlimit:10;}
	.st119{fill:none;stroke:#020203;stroke-width:0.97;stroke-miterlimit:10;}
	.st120{fill:none;stroke:#020203;stroke-width:0.84;stroke-miterlimit:10;}
	.st121{fill:#F3F3F3;stroke:#020203;stroke-width:1.02;stroke-miterlimit:10;}
	.st122{fill:none;stroke:#020203;stroke-width:1.07;stroke-miterlimit:10;}
	.st123{fill:none;stroke:#020203;stroke-width:1.06;stroke-miterlimit:10;}
	.st124{fill:none;stroke:#020203;stroke-width:0.56;stroke-miterlimit:10;}
	.st125{fill:#FFFFFF;stroke:#020203;stroke-width:0.75;stroke-miterlimit:10;}
	.st126{fill:none;stroke:#020203;stroke-width:0.49;stroke-miterlimit:10;}
</style>
<rect x="350.8" y="442.9" class="st1" width="65.8" height="14.2"/>
<path class="st2" d="M458.4,537.6L458.4,537.6c-0.1-4.8-2.9-9.2-7.3-11.2c-3.5-1.6-7.5-1.5-10.9,0.1l-0.1-0.7
	c0.2-0.4-0.5-0.8-0.7-0.7h-0.7l-0.2-0.1c3.6,0,6.3-1.4,6.2-1.8c-0.1-0.7,0.7-2.2,0.2-6.1c-0.5-3.9-4.7-4.6-4.7-4.6
	c-13.8-7.4-29.2-13-44-17.4h0.1c0.1-1.7,0-3.5-0.3-5.2l0,0c-0.4-2.3-1.4-4.5-3.6-4.7h0.1l-4.7-1.1c-0.4,0.2-0.7,0.3-1.1,0.5l-2-1.4
	l-0.7-0.5l0.5,0.3l-0.5-0.3c0.3-0.1,0.7-0.2,1-0.4h1.8c0,0,2.7-8.6-8.1-10.3c-25-6.7-50.7,2.1-53.8,3.2c-0.1-11.4-0.4-32.6-0.4-33.5
	h-0.5l0.4-0.1c-0.5-1.3-2.6-1.6-2.9-1.6v-14l0,0c-0.5-1.3-3.3-1.5-3.9-1.5v-5.3l-1.1-0.1c0.8,0,1.5-0.4,1.9-1c0.8-1.2,2-2.1,3.3-2.6
	c1-0.3,5.5-1.9,6-2.7l0,0c4.1-0.2,6.7-0.4,6.7-0.4h0.1l-0.6,0.4l0.9,0.2l0.1,0.6l-0.9,0.6l1,0.3l0.1,0.7l-0.9,0.7l1,0.3l0.1,0.6
	l-0.9,0.7l1,0.3l0.1,0.6l-0.9,0.6l1,0.5l0.1,0.7l-0.7,0.5l0.8,0.5l-1.4,0.2l2.6,17.7h0.1c4,1.8,8.5,2.5,12.8,1.9
	c4.4-0.8,8.6-2.8,12-5.7V435l0,0l-2.6-17.2l-1.7,0.2l-0.2-1.6l0,0l-0.1-0.6l0,0l-0.1-1l0,0l-0.1-0.8l0,0l-0.2-1l0,0l-0.1-0.9l0,0
	l-0.1-0.9l0,0l-0.1-0.8l0,0l-0.1-0.9l0,0l-0.1-1l0,0l-0.1-0.8l0,0l-0.1-0.9l0,0l-0.2-1.3c0.7-0.3,1.3-0.7,2-1.1
	c1.3-1.1,2.1-2.6,2.4-4.3l1.3-0.7c6.8,0.3,13.6,1.2,20.3,2.5c14.1,3,38.9,11.1,43.3,11.3s14.2-2.6,18.9-14.5
	c4-10.1,5.1-17.1,1.9-25.3l0,0c-0.6-1.5-1.2-2.9-1.9-4.3c-0.9-1.8-2.4-4.1-4.1-6.7l0,0c-7.9-12.1-22-30.5-24.1-32.1
	c-1.7-1.3-3.5-2.4-5.4-3.4l0,0c1.7-4.5,3-9.1,3.1-12c0-1.2-0.1-2.5-0.3-3.7l0,0c-0.5-2.4-1.7-4-3.6-6.8c-1.9-5,3.7-7.1,3.7-7.1
	s0.6-1.4,1.1-2.4c3.9-0.9,6.1-8.6,6.1-8.6c0.4-0.9,0.4-1.9,0.1-2.8c-0.8-2.7-4-7.1-15.5-12.1c-4.2-2-8.6-3.7-13.1-5h1
	c0.1-0.6,1.5-1.6,2.1-1.7s1.2-1.7,1.3-2.9c0.9-0.5,2.4-5.7,2.4-5.7c1-1.1,1.3-2.6,0.9-4.1l0,0c-0.4-1.4-1.1-2.7-2.1-3.8
	c-4.3-5-32.3-10.1-44.1-12.9s-40.7-5.1-60.4-4.7c-17.6,0.3-30.7,2.9-36.2,5.8l0,0c0,0-5.1-9.1-10.5-19.8c-5.4-10.7-8-17.1-7.2-28.7
	c-0.1-4.4-0.2-7.3-0.5-12.5c-1-18.7-13.3-37.9-22.5-50.5l0,0c-1-1.4-1.9-2.6-2.8-3.8c-9.2-12.3-4.6-40.7-4.9-58.3s-4.3-31-13.5-40.8
	c-3.1-3.4-6.9-6.1-11.2-7.9l0,0c-5.5-2.2-11.1-2.5-17.3-3c-10.3-0.9-12.1,3.7-12.1,3.7s-4.3,12.4-10.1,73.9
	c-0.2,2.1-0.4,4.1-0.5,6.1l0,0c-4.4,56.9,6.8,77.8,6.8,77.8s35.8,75.4,41.7,100c5.9,24.6-0.1,34.6-3.4,55.3
	c-3.3,20.7-2.6,35.6,4.9,44.4c7.5,8.8,16.5,2.1,16.5,2.1s-4.5,25.3,6.7,26.9c7.9,1.1,29.4-0.8,47.3-1.9c7.4,2.4,24.1,8,29,11.8
	l0.6,0.3l0,0c0,0,0.6,4.1,4.3,4.9l0.8,0.2c0,1,0,2-0.1,3c-0.1,1.1-3.9,14.6-4.3,15.5c1.7,0.6,3.3,1.1,3.3,1.1l0.9-2.8v6.6
	c-0.4,0.1-0.7,0.2-1.1,0.4l1.1-3.8l-4.1-1.5l-0.9-0.3l-8.7,24.5c0,0-0.5,1.7,0.2,2.1c0,0,3.6,1.3,3.9,1.3c0.3,0,2.5-3.5,2.9-5
	c0.4-1.5,0.4-2.1,0.2-2.7c-0.3-0.7,0.3-1.1,0.6-1.5c0.5-0.9,0.8-1.8,0.9-2.8c-0.1-0.9,1-1.1,1.4-1.9c0.2-0.3,0.6-1.6,1.1-3.2
	c-0.2,6.3-0.6,18.8-0.9,29.8h-0.2c0,0-27.4-10.5-54.1-3.3c-10.9,1.7-8.1,10.3-8.1,10.3h1.7c0.3,0.2,0.7,0.3,1.1,0.4l-2.8,1.9
	c-0.3-0.2-0.7-0.4-1.1-0.5l-4.7,1.1h0.1c-2.2,0.2-3.2,2.4-3.6,4.7l0,0c-0.3,1.7-0.4,3.4-0.3,5.2h0.1c-14.8,4.3-30.2,10-44,17.4
	c0,0-4.2,0.8-4.7,4.6c-0.5,3.9,0.4,5.4,0.2,6.1c-0.1,0.4,2,1.5,4.9,1.8c-0.3,0-0.9,0.3-0.7,0.7l-0.2,0.9c-6.2-3.1-13.8-0.5-16.9,5.7
	c-0.8,1.7-1.3,3.5-1.3,5.3l0,0c-0.3,1.1-0.5,2.3-0.5,3.5c-0.1,7.5,6,13.7,13.5,13.7c7.5,0.1,13.7-6,13.7-13.5c0-1.2-0.1-2.5-0.5-3.7
	c0.3-0.3,0.5-0.7,0.6-1.2l0.4-11l0,0c0-0.5-1.1-0.9-1.5-1l0.1-0.7l0.2-0.1l0.1-0.2c0,0,4.1,0.2,4.3-4.4c1.2-0.6,2.5-1.1,3.8-1.3
	c4.7-0.9,44.1-16.5,98.5-17.8c1.6,1.1,3.3,2,5,2.7v-0.1l0.5,0.3c0.5,14.7,1.4,36.8,2,40.8c0.6,3.8,0.6,7.6,0,11.4
	c1,1.4,2.2,2.6,3.7,3.4v4.1h-3.7c-0.9,4.5-1.3,9.2-1.1,13.8c-0.1,0.5-0.3,0.9-0.7,1.3l-0.1,1.7c0,0,0.5,0.5,0.5,0.8
	c0,4.1,0.4,8.2,1.2,12.3l5.2,0.3c0,0,0.2-4.9,0.3-10.7h7.4c0.1,5.8,0.3,10.7,0.3,10.7l5.2-0.3c0.7-4.1,1.1-8.2,1.2-12.3
	c0-0.3,0.5-0.8,0.5-0.8l-0.1-1.7c-0.3-0.4-0.6-0.8-0.7-1.3c0.1-4.6-0.2-9.3-1.1-13.8h-4.1v-3.7c1.7-0.9,3.2-2.2,4.3-3.8
	c-0.6-3.8-0.6-7.6,0-11.4c0.6-4.1,1.5-26.5,2-41.2l0.1-0.1l-0.1,0.1c1.8-0.7,3.5-1.6,5-2.7c54.3,1.4,93.8,17,98.5,17.8
	c1.3,0.2,2.6,0.7,3.8,1.3c0.2,4.1,3.4,4.4,4.2,4.4l0.1,1.1c-0.5,0.1-1.5,0.4-1.5,1l0,0l0.4,10.9c0.1,0.4,0.3,0.8,0.5,1.1
	c-0.3,1.1-0.4,2.2-0.4,3.3c0.1,7.5,6.3,13.5,13.8,13.4c7.5-0.1,13.5-6.3,13.4-13.8C458.8,539.7,458.6,538.6,458.4,537.6L458.4,537.6
	z M257.8,248.4c-1.2,0.1-2.3,0.4-3.4,0.9c-1.5,0.7,1.2,5.5,1.2,5.5s11.4,0.1,8.5,1l-9.5-12.4c0.9,1.8,2,3.5,3.3,5L257.8,248.4
	L257.8,248.4z M246.9,489l-0.2-0.4l0.1,0.2c-0.9-3.4-2.6-4.8-3.4-5.3l0,0l-0.2-0.1l-0.1-0.1l0,0l-0.3-0.1c4.1-1,4-3.6,4-3.6
	c7.5,0.4,14.9,2.2,21.8,5.2C262.4,485.9,255,487.2,246.9,489L246.9,489z M303.3,418.5v6h-0.1c-0.7,0.1-1.3,0.2-2,0.3l0.3-1
	c0.4-1.4,0.6-2.8,0.6-4.2v-1.7L303.3,418.5L303.3,418.5z M376.6,483.1L376.6,483.1c-0.1,0-0.2,0.1-0.3,0.1l0,0c0,0-2.7,1.1-3.8,5.5
	l0.1-0.2l-0.2,0.4c-8.1-1.8-15.5-3.1-21.7-4.2c6.9-3,14.3-4.8,21.8-5.2C372.5,479.6,372.5,482.2,376.6,483.1L376.6,483.1z"/>
<path class="st1" d="M258.7,305.6l-1.9,12.5l13.1-3.1C269.9,314.9,259.7,304.8,258.7,305.6z"/>
<path class="st1" d="M271.9,287.4l20.7,25.4l53.1-3.7c2.1-4.3,4.6-8.5,7.4-12.4C307.7,284.7,272.4,287.1,271.9,287.4z"/>
<path class="st1" d="M368.8,302.1l-4.1,7.2l11.8,1.1l12.1,3.4l-0.5-2.6l-4.5-3.7C383.6,307.6,369.8,301.5,368.8,302.1z"/>
<polygon class="st3" points="258.2,287.9 259.6,287.7 259.8,289.6 259,300.4 258,308.2 255.6,322.1 254.7,326.7 253.4,325.9 
	254.8,321.2 256,315.1 256.8,308.1 257.4,300.6 "/>
<path class="st4" d="M324.3,441.8c0,1.2,0.5,40.5,0.5,40.5s-12,6.4-30-0.7c0.6-16.1,1.2-40,1.2-40c0.8-0.8,1.8-1.3,2.9-1.5"/>
<path class="st4" d="M321.3,440.1c0,0,2.4,0.2,2.9,1.6c-16.6,4.2-28.1-0.1-28.1-0.1"/>
<path class="st4" d="M294.8,475.3c0,0-27.4-10.5-54.1-3.3c-10.9,1.7-8.1,10.3-8.1,10.3h1.7c0,0,0-1.4,0.7-1.9
	c1.1-0.7,16.1-3.3,33.7,4.4"/>
<path class="st5" d="M234.3,482.4c2.6,1.1,5.4,1.4,8.1,0.9c4.4-1,4.3-3.6,4.3-3.6"/>
<path class="st4" d="M288.1,482.2c0,0-63.5,6-108.9,30.3c0,0-4.2,0.8-4.7,4.6c-0.5,3.9,0.4,5.4,0.2,6.1c-0.1,0.7,6,3.3,11.9,0.7
	c1.2-2.4,3.5-5,8.2-5.9c4.7-0.9,44.1-16.5,98.5-17.8c1.6,1.1,3.3,2,5,2.7"/>
<path class="st5" d="M186.7,523.8c0,0,4.1,0.2,4.3-4.4"/>
<path class="st4" d="M324.4,475.3c0,0,27.4-10.5,54.1-3.3c10.9,1.7,8.1,10.3,8.1,10.3h-1.7c0,0,0-1.4-0.7-1.9
	c-1.1-0.7-16.1-3.3-33.7,4.4"/>
<path class="st5" d="M384.9,482.4c-2.6,1.1-5.4,1.4-8.1,0.9c-4.4-1-4.3-3.6-4.3-3.6"/>
<path class="st4" d="M331.1,482.2c0,0,63.5,6,108.9,30.3c0,0,4.2,0.8,4.7,4.6s-0.4,5.4-0.2,6.1c0.1,0.7-6,3.3-11.9,0.7
	c-1.2-2.4-3.5-5-8.2-5.9c-4.7-0.9-44.1-16.5-98.5-17.8c-1.6,1.1-3.3,2-5,2.7"/>
<path class="st5" d="M432.6,523.8c0,0-4.1,0.2-4.3-4.4"/>
<path class="st4" d="M298.3,489.8c0,0,1.5,48,2.4,54.2c0.6,3.8,0.6,7.6,0,11.4c2.1,3,5.5,4.9,9.2,5.1"/>
<path class="st4" d="M321.4,489.8c0,0-1.5,48-2.4,54.2c-0.6,3.8-0.6,7.6,0,11.4c-2.1,3-5.5,4.9-9.2,5.1"/>
<path class="st4" d="M223.1,495.1c0,0-0.8-9.6,4.1-9.9s7.5,6.7,7.5,6.7"/>
<path class="st4" d="M226.9,485.3l4.7-1.1c0,0,5.1,1.9,5.8,7.1"/>
<path class="st5" d="M237.5,483.3v1.1c0,0,3.3,1.5,5.2,0c0-0.6,0-1.2,0-1.2"/>
<path class="st5" d="M237.4,483.9c0,0-1.1,0.2-1.1,0.7s5.5,2.2,7.9-0.1c-0.3-0.8-1.4-0.7-1.4-0.7"/>
<line class="st5" x1="236.3" y1="484.6" x2="236.3" y2="487.9"/>
<line class="st5" x1="244.2" y1="484.6" x2="244.2" y2="489.5"/>
<path class="st4" d="M232.7,484.7c0,0,1.4-0.9,2.7-1.9"/>
<path class="st4" d="M243,483.3c0,0,2.7,1.1,3.8,5.5"/>
<polyline class="st5" points="224.2,488.2 227.1,494 226.3,494.2 223.3,490 "/>
<line class="st5" x1="226.4" y1="485.4" x2="227.6" y2="493.7"/>
<line class="st5" x1="228.3" y1="485.4" x2="228.2" y2="493.7"/>
<path class="st5" d="M232.1,487.7c0,0-3,5.3-3.1,5.6"/>
<line class="st5" x1="230.4" y1="493.1" x2="233.2" y2="489.4"/>
<path class="st4" d="M396.2,495.1c0,0,0.8-9.6-4.1-9.9s-7.5,6.7-7.5,6.7"/>
<path class="st4" d="M392.3,485.3l-4.7-1.1c0,0-5.1,1.9-5.8,7.1"/>
<path class="st5" d="M381.7,483.3v1.1c0,0-3.3,1.5-5.2,0c0-0.6,0-1.2,0-1.2"/>
<path class="st5" d="M381.9,483.9c0,0,1.1,0.2,1.1,0.7s-5.5,2.2-7.9-0.1c0.3-0.8,1.4-0.7,1.4-0.7"/>
<line class="st5" x1="383" y1="484.6" x2="383" y2="487.9"/>
<line class="st5" x1="375.1" y1="484.6" x2="375.1" y2="489.5"/>
<path class="st4" d="M386.5,484.7c0,0-1.4-0.9-2.7-1.9"/>
<path class="st4" d="M376.2,483.3c0,0-2.7,1.1-3.8,5.5"/>
<polyline class="st5" points="395.1,488.2 392.1,494 393,494.2 395.9,490 "/>
<line class="st5" x1="392.8" y1="485.4" x2="391.7" y2="493.7"/>
<line class="st5" x1="391" y1="485.4" x2="391" y2="493.7"/>
<path class="st5" d="M387.2,487.7c0,0,3,5.3,3.1,5.6"/>
<line class="st5" x1="388.9" y1="493.1" x2="386.1" y2="489.4"/>
<path class="st4" d="M179.6,525c-0.4-0.1-2,1,1.2,1.5c2.5,0.4,6.7,0,7-0.6c0.3-0.6-1-1-1.5-1.1"/>
<line class="st5" x1="186.2" y1="524.1" x2="186.2" y2="526.1"/>
<line class="st4" x1="178.9" y1="525.7" x2="178.9" y2="528.6"/>
<path class="st4" d="M187.9,525.7l-0.4,10.9c0,0-0.2,0.9-0.6,1.2"/>
<ellipse class="st6" cx="173.7" cy="541.1" rx="13.6" ry="13.4"/>
<ellipse class="st7" cx="173.7" cy="541.1" rx="11.8" ry="11.7"/>
<path class="st6" d="M178.9,526.6c-6.2-3.1-13.8-0.6-16.9,5.6c-0.8,1.7-1.3,3.5-1.3,5.4"/>
<path class="st8" d="M169.7,530.2l3.1,9.2c-0.2,0.1-0.5,0.3-0.6,0.5c-0.9-0.5-7.9-5.8-7.9-5.8"/>
<path class="st8" d="M179.2,530.8l-4.2,8.5c-0.4-0.1-0.7-0.1-1.1-0.1c-0.3-1.8-1.2-9.6-1.2-9.6"/>
<path class="st8" d="M184.9,537.1l-8.4,3.4c-0.1-0.3-0.2-0.5-0.4-0.7c0.6-0.8,5.7-7.4,5.7-7.4"/>
<path class="st8" d="M184.6,546.1l-8.2-3.7c0.1-0.2,0.2-0.5,0.2-0.8c1-0.2,8.9-2.2,8.9-2.2"/>
<path class="st8" d="M178,552l-2.8-8.3c0.3-0.1,0.5-0.2,0.7-0.4c0.9,0.5,7,5.3,7,5.3"/>
<path class="st8" d="M169.1,551.9l4.1-8.1c0.3,0.1,0.6,0.1,0.9,0.1c0.3,1.8,1,7.8,1.1,8.8"/>
<path class="st8" d="M163,546.1l8.6-3.5c0.1,0.3,0.2,0.5,0.4,0.7c-0.5,0.9-5.5,7.2-5.5,7.2"/>
<path class="st8" d="M162.8,536.7l8.9,4c-0.1,0.2-0.2,0.5-0.2,0.8c-1,0.2-9.3,2.2-9.3,2.2"/>
<ellipse class="st6" cx="445.2" cy="541.1" rx="13.6" ry="13.4"/>
<ellipse class="st7" cx="445.2" cy="541.1" rx="11.8" ry="11.7"/>
<path class="st6" d="M440.1,526.6c6.2-3.1,13.8-0.6,16.9,5.6c0.8,1.7,1.3,3.5,1.3,5.4"/>
<path class="st8" d="M449.2,530.2l-3.1,9.2c0.2,0.1,0.5,0.3,0.6,0.5c0.9-0.5,7.9-5.8,7.9-5.8"/>
<path class="st8" d="M439.7,530.8l4.2,8.5c0.4-0.1,0.7-0.1,1.1-0.1c0.3-1.8,1.2-9.6,1.2-9.6"/>
<path class="st8" d="M434.1,537.1l8.4,3.4c0.1-0.3,0.2-0.5,0.4-0.7c-0.6-0.8-5.7-7.4-5.7-7.4"/>
<path class="st8" d="M434.4,546.1l8.2-3.7c-0.1-0.2-0.2-0.5-0.2-0.8c-1-0.2-8.9-2.2-8.9-2.2"/>
<path class="st8" d="M440.9,552l2.8-8.3c-0.3-0.1-0.5-0.2-0.7-0.4c-0.9,0.5-7,5.3-7,5.3"/>
<path class="st8" d="M449.8,551.9l-4.1-8.1c-0.3,0.1-0.6,0.1-0.9,0.1c-0.3,1.8-1,7.8-1.1,8.8"/>
<path class="st8" d="M455.9,546.1l-8.6-3.5c-0.1,0.3-0.2,0.5-0.4,0.7c0.5,0.9,5.5,7.2,5.5,7.2"/>
<path class="st8" d="M456.2,536.7l-8.9,4c0.1,0.2,0.2,0.5,0.2,0.8c1,0.2,9.3,2.2,9.3,2.2"/>
<path class="st4" d="M439.3,525.2c0.4-0.1,2,1-1.2,1.5c-2.5,0.4-6.7,0-7-0.6c-0.3-0.6,1-1,1.5-1.1"/>
<line class="st5" x1="432.7" y1="524.3" x2="432.7" y2="526.3"/>
<line class="st4" x1="440.1" y1="525.8" x2="440.1" y2="528.8"/>
<path class="st4" d="M431.1,525.8l0.4,10.9c0,0,0.2,0.9,0.6,1.2"/>
<line class="st5" x1="304.4" y1="558.9" x2="304.4" y2="562.8"/>
<path class="st4" d="M306,563h-5.2c-0.9,4.5-1.3,9.2-1.1,13.8c-0.1,0.5-0.3,0.9-0.7,1.3l-0.1,1.7c0,0,0.5,0.5,0.5,0.8
	c0,4.1,0.4,8.2,1.1,12.3l5.2,0.3C305.7,593.1,306.7,565.1,306,563z"/>
<path class="st5" d="M300.7,563c0,0-0.2,12.4-0.2,29.8"/>
<path class="st4" d="M313.4,563h5.2c0.9,4.5,1.3,9.2,1.1,13.8c0.1,0.5,0.3,0.9,0.7,1.3l0.1,1.7c0,0-0.5,0.5-0.5,0.8
	c0,4.1-0.4,8.2-1.2,12.3l-5.2,0.3C313.7,593.2,312.7,565.1,313.4,563z"/>
<path class="st5" d="M318.7,563c0,0,0.2,12.4,0.2,29.8"/>
<line class="st5" x1="306.1" y1="564.4" x2="313.3" y2="564.4"/>
<line class="st5" x1="306.1" y1="582.4" x2="313.3" y2="582.4"/>
<line class="st5" x1="314.6" y1="559.3" x2="314.6" y2="563"/>
<line class="st4" x1="299" y1="426.1" x2="299" y2="442.3"/>
<path class="st4" d="M303.2,424.5c0,0-4,0.3-4.2,1.5s8.1,2.2,11.9,2.1c3.7,0,11-0.6,10.4-2.1s-4-1.5-4-1.5"/>
<path class="st4" d="M303.3,418.6v7.4c0,0,7.9,1.8,14.1,0v-6.8"/>
<line class="st4" x1="321.3" y1="426.1" x2="321.3" y2="442.4"/>
<path class="st5" d="M298.6,409.4c-0.5-1.6,0.2-5.2,0.5-6.1c0.3-1,0.8-2.1,2.5-2.2c1.7-0.1,2,2.2,2,2.2s-0.1,6-1,6.9"/>
<path class="st4" d="M263.2,399.4c0,0,23.6,7.2,29.9,12c4,1.9,9.2,1.7,20.3,1.7s21-0.7,21-0.7s3.7,0,5.4-2.3
	c1.7-2.3,14.1-6.8,14.1-6.8s1.7-0.3,8.1-3.9"/>
<path class="st4" d="M293.6,411.7c0,0,0.6,4.1,4.3,4.9s5.4,2.3,7,2.6c1.6,0.3,11.4,0,11.4,0s1.5,0.1,2-1c0.8-1.2,2-2.1,3.3-2.6
	c1-0.3,5.5-1.9,6-2.7"/>
<circle class="st5" cx="319.1" cy="407.7" r="3"/>
<path class="st9" d="M302.2,409.3c0,0,0.2-3.3-1.5-3.1c-2,0.1-1.9,2.8-1.9,2.8s0,9.7-0.1,10.8c-0.1,1.1-3.9,14.6-4.3,15.5
	c1.7,0.6,3.3,1.1,3.3,1.1l3.9-12.5c0.4-1.4,0.6-2.8,0.6-4.2C302.2,417.8,302.2,409.3,302.2,409.3"/>
<path class="st10" d="M294.3,435.2l-0.9-0.3l-8.7,24.5c0,0-0.5,1.7,0.2,2.1c0,0,3.6,1.3,3.9,1.3s2.5-3.5,2.9-5s0.4-2.1,0.2-2.7
	s0.3-1.1,0.6-1.5c0.5-0.9,0.8-1.8,0.9-2.8c-0.1-0.9,1-1.1,1.4-1.9c0.5-0.9,3.6-12,3.6-12L294.3,435.2z"/>
<polyline class="st8" points="356.2,405.7 357,406.4 355.5,407.8 357.4,408.1 355.7,409.4 357.6,409.9 356.2,411.1 357.8,411.5 
	356.5,412.9 358.1,413.4 356.9,414.7 358.4,415.2 357.2,416.3 358.7,416.9 358,417.9 "/>
<polyline class="st8" points="334.7,412.3 333.9,412.9 335.5,413.2 334.1,414.3 335.8,414.7 334.3,415.9 336,416.3 334.6,417.5 
	336.3,418 334.9,419 336.6,419.9 335.3,420.7 336.3,421.3 "/>
<line class="st8" x1="356.9" y1="406.5" x2="339.7" y2="410.1"/>
<line class="st8" x1="357.4" y1="408.1" x2="334" y2="412.9"/>
<line class="st8" x1="357.4" y1="410" x2="334.6" y2="414.2"/>
<line class="st8" x1="357.7" y1="411.5" x2="334.7" y2="415.8"/>
<line class="st8" x1="358.1" y1="413.4" x2="335" y2="417.5"/>
<line class="st8" x1="358.3" y1="415.3" x2="335.2" y2="419.1"/>
<line class="st8" x1="358.7" y1="416.9" x2="335.6" y2="420.5"/>
<path class="st11" d="M334.7,421.3l24.9-3.4l2.6,17.4c-3.4,3-7.5,4.9-12,5.7c-4.4,0.6-8.9-0.1-12.9-2L334.7,421.3z"/>
<path class="st8" d="M337.2,439.1c8.5,0.2,17-1.1,25-3.9"/>
<path class="st8" d="M360.6,399.4c0,0-0.2,3.5-2.5,5.2c-2,1.5-7,3.2-7,3.2"/>
<line class="st4" x1="353.1" y1="296.8" x2="344.8" y2="309.3"/>
<line class="st4" x1="368.6" y1="301.7" x2="364.4" y2="309.5"/>
<path class="st12" d="M214.3,305.3c0,0-11.4,25.1-9.9,34.4c1.5,9.4,5.4,13.6,5.4,13.6s14.8,15.5,22.5,20.8
	c7.7,5.3,29.7,19.9,29.7,19.9s4.2,8.2,81.9,5.6"/>
<path class="st12" d="M228.2,320.6c0,0-3,10.3-2.2,16.1c0.9,5.7,6.6,10.3,6.6,10.3s33.5,26.7,45.3,32.3s6-2.1,6-2.1
	s-19.8-22.4-27.4-28.9S228.2,320.6,228.2,320.6z"/>
<path class="st12" d="M228.1,320.3c0,0-16-14.5-18.2-22.7c-2.2-8.2,1.6-14.5,7.5-17.4c5.9-2.9,23.2-6.6,23.2-6.6s-3.1-9.1-1.2-12.4
	s16.2-6.4,16.2-6.4s35.5-3.6,64.2-0.9c28.7,2.7,66.7,8.4,85.5,17.6c19,8.1,15.4,14.9,15.4,14.9s-2.3,7.7-6.1,8.6
	c-0.5,1-1.1,2.4-1.1,2.4s-5.7,2.1-3.7,7.1c2.6,4,3.9,5.7,3.9,10.5c-0.1,4.8-3.6,14.2-6.8,20.6c-3.2,6.5-24.6,47.5-35.1,54.1
	c-10.5,6.6-27.6,9.9-27.6,9.9"/>
<path class="st12" d="M243.6,289.2c0,0-9.5,7.3-10.2,16.1c3.2,5.6,14,14.8,14,14.8s48.3,47,51.8,50c3.6,3,8.3,6.7,16.2,6.9
	s24.3-1,28.4-1.8c4.1-0.8,13.9-5.1,18.9-12.1c5-7,23.8-33.3,25.7-42.5c3.2-10-5.5-13-5.5-13S325.3,278.5,243.6,289.2z"/>
<path class="st8" d="M281.3,366.9c0,0-65.4-63.4-66.7-68c-1.3-4.6-6-11.8,6.6-14.8s56.6-10.1,90-3.7s84.6,17.8,93.4,26.7
	c8.8,8.9-3.4,30.5-3.4,30.5s-17.1,31-23,37.4c-5.9,6.3-14.2,17.2-30.8,19s-62.8,2.4-62.8,2.4s-13.2,0.1-28.3-9.5
	c-15.1-9.6-48.7-33.8-48.7-45.8s8.7-32.9,8.7-32.9"/>
<path class="st12" d="M414.4,294.9c0,0-91.2-35.8-165.8-20.2c-5.9,0.7-8.1-1.4-8.1-1.4"/>
<path class="st13" d="M239.9,260.5c0,0,36.3-4.4,52.2-4.2c15.8,0.2,44.6,1.2,71.8,9.1s50.3,18.5,56.8,18.2"/>
<path class="st8" d="M413.2,311.3c0,0-5.3-9.6-18.2-14s-55.2-17.2-75.7-19.4c-20.5-2.1-59.7-2-68-1.7"/>
<path class="st8" d="M412.7,297.7c0,0-2.7-0.9-16.5-5.3c-13.8-4.3-57.6-16.4-92.7-17.5c-37.3-1.1-51.5,1.1-51.5,1.1"/>
<path class="st12" d="M255.5,254.8c0,0-2.7-4.8-1.2-5.5c1.1-0.5,2.3-0.7,3.5-0.9c0,0-6.8-7.3-2.7-10.6c4-3.3,18.1-6.5,37.9-6.9
	c19.8-0.4,48.6,2,60.4,4.7c11.9,2.7,39.8,7.9,44.1,12.9c4.3,5,1.3,7.8,1.3,7.8s-1.6,5.2-2.4,5.7c-0.1,1.1-0.8,2.7-1.3,2.9
	s-1.9,1.1-2,1.7"/>
<path class="st13" d="M254.7,237.7c0,0,19.9-4.9,37.6-4.7c17.7,0.2,42.8,0.2,66.2,5.8c14.1,3.4,27.9,7.8,41.2,13.4"/>
<path class="st12" d="M257.7,248.4c0,0,38.5-4.6,56.5-3.9c12.5,0.5,59.9,6.7,82.1,17.5"/>
<path class="st13" d="M394.7,264.6c0,0-17.6-7.8-31.8-10.1c-14.2-2.3-52.1-13.7-100.4-3.8"/>
<circle class="st8" cx="221.1" cy="293.6" r="3.4"/>
<circle class="st8" cx="214.4" cy="342.7" r="3.4"/>
<circle class="st8" cx="270.5" cy="390.3" r="3.4"/>
<circle class="st8" cx="350.4" cy="388.1" r="3.4"/>
<line class="st4" x1="259.8" y1="287.7" x2="281.4" y2="313.4"/>
<line class="st4" x1="271.4" y1="286.8" x2="292.6" y2="312"/>
<path class="st12" d="M283.5,398.9c-16.4-0.3-55.5,4.2-66.7,2.6c-11.2-1.6-6.7-26.9-6.7-26.9s2-5.2,13.6-7.6"/>
<path class="st12" d="M345.7,399.2c0,0,22.2-0.4,36.3,2.7c14.1,3,38.9,11,43.3,11.3c4.4,0.2,14.2-2.6,18.9-14.5
	c4.6-11.9,5.4-19.4,0-29.5s-25.7-36.8-28.2-38.8c-1.7-1.3-3.5-2.4-5.4-3.4"/>
<path class="st4" d="M389,314.6c0,0-2.3-4.1-30-5.2c-27.7-1.1-87.8,3.6-102.7,9"/>
<path class="st12" d="M254.7,327.2c0,0,2.1-10.3,3.7-21.1c1-7.2,1.8-13.7,1.5-18.3"/>
<line class="st12" x1="270.6" y1="315.1" x2="258.5" y2="304.8"/>
<path class="st12" d="M239.9,332.4c0,0-3.4,13.2-5.8,15.7"/>
<path class="st12" d="M244.5,317.5c0,0,2.1-14.7,1-28.5"/>
<path class="st12" d="M247.1,339.4c0,0-5.4,8.9-8.4,12.3"/>
<path class="st12" d="M251.2,361.3c0,0,10.7-1.9,15.9-2.5"/>
<path class="st12" d="M366.5,357.5c-16.7-2.5-81.9-1.3-81.9-1.3"/>
<path class="st12" d="M393,360.6c0,0,47.8,6.4,53.1,12.8"/>
<path class="st12" d="M210.1,374.6c0,0-9,6.6-16.5-2.1c-7.5-8.8-8.2-23.7-4.9-44.4c3.3-20.7,9.3-30.7,3.4-55.3s-41.7-100-41.7-100
	s-12.1-22.4-6.3-83.9S154.3,15,154.3,15s1.7-4.6,12.1-3.7c10.3,0.9,19.3,1.2,28.5,10.9S208,45.4,208.3,63s-4.3,46,4.9,58.4
	s24.1,33.6,25.3,54.3s-0.3,23.3,3,31.3c3.3,8,15.3,29.7,15.3,29.7"/>
<path class="st12" d="M183.6,14.2c0,0-6.9,36.9-7.8,55.7c-0.9,18.8-0.6,27.8,1.5,34.3c2.2,6.5,13.1,18.5,15.3,31s9.9,48.7,12.1,63.6
	c2.2,14.9,34.2,67.7,34.2,67.7"/>
<path class="st13" d="M143.7,94.9c0,0,20.4-3,31.8-2.2c0,0,8.8,3.1,13.2,16.8c4.3,13.7,9.8,24.4,12.1,30.3s8.7,33.1,10.5,45.4
	c1.7,12.3,2.3,23.6,7.6,35.4c5.3,11.8,20.9,35.3,22.5,38.9"/>
<path class="st13" d="M248.4,288.6c0,0,2.1,19-1,31.5"/>
<path class="st13" d="M243.8,336.2c0,0-3.1,9.6-6.8,14.2"/>
<path class="st8" d="M244.8,356.1c0,0,13.3-3.1,16.4-3.4"/>
<path class="st13" d="M278.2,350c0,0,67.4-4.8,94.2-0.8"/>
<path class="st13" d="M398.3,351.3c19.1,1.5,37.6,5.1,41.8,11.1"/>
<path class="st12" d="M256,328.5c0,0,58.1,2.9,68.6,4.9c11.5-1.4,47.8-12.5,64.1-11.8"/>
<path class="st13" d="M327.5,332.8c0,0,1.5,12.6,1.7,14.9"/>
<line class="st8" x1="296.5" y1="330.8" x2="295.1" y2="349"/>
<line class="st8" x1="304.8" y1="331.4" x2="303.4" y2="348.6"/>
<polyline class="st8" points="216,125.1 216.6,165.7 206.9,163.4 "/>
<path class="st13" d="M258,287.7c0,0-0.6,28-4.5,37.8"/>
<path class="st12" d="M216.6,165.7c0,0,7.5,46.5,11.6,54.3c4.1,7.8,19.1,33.1,19.5,36.9"/>
<path class="st13" d="M189,110.5c0,0,1-1,2.7,3.8s11.4,24.6,10.1,25c-0.4,0.1-0.8,0.1-1.3,0"/>
<path class="st13" d="M255.7,287.9c0,0-2.2,29.2-4.7,35.7"/>
<path class="st13" d="M227.6,143c0,0-6.4,10.7-4.3,17.6s12.9,45.1,15.6,51.6c2.7,6.5,14,33.2,16.2,36.7"/>
<path class="st14" d="M217.6,217.8c0,0,3.8-17.8,8-5.9"/>
<path class="st14" d="M241.3,259.5c0,0,1.2-13.8,5.9-4"/>
<path class="st15" d="M224.7,231.7c0,0,1.7-17.3,6.8-6"/>
<path class="st13" d="M257.3,318.4c0,0,37.3,2.6,66.6,1.3c29.3-1.2,62.8-2.6,65.3-3.3"/>
<line class="st16" x1="122.6" y1="368.2" x2="122.6" y2="14.4"/>
<line class="st17" x1="78.1" y1="584.6" x2="78.1" y2="14.4"/>
<line class="st18" x1="116.5" y1="376.9" x2="202.6" y2="376.9"/>
<line class="st19" x1="72" y1="11.3" x2="170.3" y2="11.3"/>
<polygon class="st20" points="122.6,11.3 128.7,21.9 116.5,21.9 "/>
<polygon class="st20" points="78.1,11.3 84.2,21.9 72,21.9 "/>
<polygon class="st20" points="122.6,376.7 116.5,366.2 128.7,366.2 "/>
<polygon class="st20" points="78.1,592.3 72,581.7 84.2,581.7 "/>
<rect x="103.9" y="184" class="st1" width="37.5" height="13.7"/>
<g>
	<text transform="matrix(1 0 0 1 106.8384 194.6834)" class="st21 st22 st23">71cm</text>
</g>
<rect x="37.7" y="294.4" class="st1" width="81.7" height="13.7"/>
<g>
	<text transform="matrix(1 0 0 1 42.9662 305.1155)" class="st21 st22 st23">115 a 123cm</text>
</g>
<line class="st24" x1="72" y1="592.3" x2="534.5" y2="592.3"/>
<line class="st25" x1="217.1" y1="459.3" x2="437.8" y2="459.3"/>
<line class="st26" x1="210" y1="465.4" x2="210" y2="388"/>
<polygon class="st20" points="210.3,459.3 220.9,465.4 220.9,453.2 "/>
<line class="st19" x1="448.7" y1="465.4" x2="448.7" y2="387.9"/>
<polygon class="st20" points="448.4,459.3 437.8,465.4 437.8,453.2 "/>
<g>
	<text transform="matrix(1 0 0 1 365.6043 456.1174)" class="st21 st22 st23">49cm</text>
</g>
<line class="st27" x1="481.2" y1="592.3" x2="481.2" y2="379.9"/>
<line class="st25" x1="528.4" y1="591.8" x2="528.4" y2="261.7"/>
<rect x="450.8" y="482.4" class="st1" width="65.3" height="13.7"/>
<g>
	<text transform="matrix(1 0 0 1 453.7495 493.1086)" class="st21 st22 st23">39 a 47cm</text>
</g>
<rect x="468.3" y="384.9" class="st1" width="30.2" height="13.7"/>
<g>
	<text transform="matrix(1 0 0 1 471.2359 395.5676)" class="st21 st22 st23">9cm</text>
</g>
<rect x="497.9" y="418.9" class="st1" width="65.8" height="14.2"/>
<g>
	<text transform="matrix(1 0 0 1 501.9243 429.9563)" class="st21 st22 st23">69 a 77cm</text>
</g>
<line class="st28" x1="425.4" y1="412.9" x2="487.4" y2="412.9"/>
<line class="st19" x1="443.2" y1="371.5" x2="487.4" y2="371.5"/>
<line class="st29" x1="327.3" y1="254.1" x2="534.5" y2="254.1"/>
<polygon class="st20" points="528.4,254.9 534.5,265.4 522.3,265.4 "/>
<polygon class="st20" points="528.4,592.9 522.3,582.3 534.5,582.3 "/>
<polygon class="st20" points="481.2,592.3 475.1,582.1 487.4,582.1 "/>
<polygon class="st20" points="481.2,412.8 475.1,402.7 487.4,402.7 "/>
<polygon class="st20" points="481.2,412.9 487.4,423.1 475.1,423.1 "/>
<polygon class="st20" points="481.2,371.1 487.4,381.3 475.1,381.3 "/>
</svg>
