<?xml version="1.0" encoding="utf-8"?>
<!-- Generator: Adobe Illustrator 23.0.1, SVG Export Plug-In . SVG Version: 6.00 Build 0)  -->
<svg version="1.1" id="Camada_1" xmlns="http://www.w3.org/2000/svg" xmlns:xlink="http://www.w3.org/1999/xlink" x="0px" y="0px"
	 viewBox="0 0 600 600" style="enable-background:new 0 0 600 600;" xml:space="preserve">
<style type="text/css">
	.st0{fill:#E8E7E7;}
	.st1{fill:#E7E6E6;}
	.st2{fill:#FFFFFF;}
	.st3{fill:#D3D3D3;}
	.st4{fill:none;stroke:#020203;stroke-width:0.96;stroke-miterlimit:10;}
	.st5{fill:none;stroke:#020203;stroke-width:0.48;stroke-miterlimit:10;}
	.st6{fill:none;stroke:#020203;stroke-width:0.91;stroke-miterlimit:10;}
	.st7{fill:none;stroke:#020203;stroke-width:0.79;stroke-miterlimit:10;}
	.st8{fill:none;stroke:#020203;stroke-width:0.5;stroke-miterlimit:10;}
	.st9{fill:#FFFFFF;stroke:#020203;stroke-width:0.48;stroke-miterlimit:10;}
	.st10{fill:#F2F2F2;stroke:#020203;stroke-width:0.96;stroke-miterlimit:10;}
	.st11{fill:none;stroke:#020203;stroke-width:1.01;stroke-miterlimit:10;}
	.st12{fill:none;stroke:#020203;stroke-miterlimit:10;}
	.st13{fill:none;stroke:#020203;stroke-width:0.53;stroke-miterlimit:10;}
	.st14{fill:none;stroke:#020203;stroke-width:0.75;stroke-miterlimit:10;}
	.st15{fill:none;stroke:#020203;stroke-width:0.71;stroke-miterlimit:10;}
	.st16{fill:none;stroke:#B5241F;stroke-width:1.42;stroke-miterlimit:10;}
	.st17{fill:none;stroke:#B5241F;stroke-width:1.8;stroke-miterlimit:10;}
	.st18{fill:none;stroke:#B5241F;stroke-width:1.38;stroke-miterlimit:10;}
	.st19{fill:none;stroke:#B5241F;stroke-width:1.22;stroke-miterlimit:10;}
	.st20{fill:#B5241F;}
	.st21{fill:none;stroke:#B5241F;stroke-width:1.37;stroke-miterlimit:10;}
	.st22{fill:none;stroke:#B5241F;stroke-width:1.39;stroke-miterlimit:10;}
	.st23{fill:none;stroke:#B5241F;stroke-width:1.28;stroke-miterlimit:10;}
	.st24{fill:none;stroke:#B5241F;stroke-width:1.33;stroke-miterlimit:10;}
	.st25{fill:none;stroke:#B5241F;stroke-width:1.46;stroke-miterlimit:10;}
	.st26{fill:none;stroke:#B5241F;stroke-width:1.29;stroke-miterlimit:10;}
	.st27{fill:none;stroke:#020203;stroke-width:0.42;stroke-miterlimit:10;}
	.st28{fill:none;stroke:#020203;stroke-width:0.95;stroke-miterlimit:10;}
	.st29{fill:none;stroke:#020203;stroke-width:0.83;stroke-miterlimit:10;}
	.st30{fill:none;stroke:#020203;stroke-width:0.52;stroke-miterlimit:10;}
	.st31{fill:#E52622;}
	.st32{font-family:'Roboto-Medium';}
	.st33{font-size:13px;}
	.st34{fill:none;stroke:#B5241F;stroke-width:1.53;stroke-miterlimit:10;}
	.st35{fill:none;stroke:#B5241F;stroke-width:1.5;stroke-miterlimit:10;}
	.st36{fill:none;stroke:#B5241F;stroke-width:1.51;stroke-miterlimit:10;}
	.st37{fill:none;stroke:#B5241F;stroke-width:1.6;stroke-miterlimit:10;}
	.st38{fill:none;stroke:#D41F19;stroke-width:1.3689;stroke-miterlimit:10;}
	.st39{fill:none;stroke:#D41F19;stroke-width:2.0559;stroke-miterlimit:10;}
	.st40{fill:#D41F19;}
	.st41{fill:none;stroke:#D41F19;stroke-width:1.3723;stroke-miterlimit:10;}
	.st42{fill:none;stroke:#D41F19;stroke-width:1.4294;stroke-miterlimit:10;}
	.st43{fill:none;stroke:#D41F19;stroke-width:1.8389;stroke-miterlimit:10;}
	.st44{fill:none;stroke:#D41F19;stroke-width:1.4538;stroke-miterlimit:10;}
	.st45{fill:none;stroke:#000000;stroke-width:0.5;stroke-miterlimit:10;}
	.st46{fill:none;stroke:#000000;stroke-miterlimit:10;}
	.st47{fill:none;stroke:#000000;stroke-width:0.4155;stroke-miterlimit:10;}
	.st48{fill:none;stroke:#000000;stroke-width:0.9506;stroke-miterlimit:10;}
	.st49{fill:none;stroke:#000000;stroke-width:0.827;stroke-miterlimit:10;}
	.st50{fill:none;stroke:#000000;stroke-width:0.5195;stroke-miterlimit:10;}
	.st51{fill:none;stroke:#000000;stroke-width:0.4172;stroke-miterlimit:10;}
	.st52{fill:none;stroke:#000000;stroke-width:0.419;stroke-miterlimit:10;}
	.st53{fill:none;stroke:#D41F19;stroke-width:1.4161;stroke-miterlimit:10;}
	.st54{fill:none;stroke:#D41F19;stroke-width:1.7984;stroke-miterlimit:10;}
	.st55{fill:none;stroke:#D41F19;stroke-width:1.2223;stroke-miterlimit:10;}
	.st56{fill:none;stroke:#D41F19;stroke-width:1.359;stroke-miterlimit:10;}
	.st57{fill:none;stroke:#D41F19;stroke-width:1.3456;stroke-miterlimit:10;}
	.st58{fill:none;stroke:#D41F19;stroke-width:1.1098;stroke-miterlimit:10;}
	.st59{fill:none;stroke:#D41F19;stroke-width:1.3365;stroke-miterlimit:10;}
	.st60{fill:none;stroke:#D41F19;stroke-width:1.3941;stroke-miterlimit:10;}
	.st61{fill:none;stroke:#D41F19;stroke-width:1.4643;stroke-miterlimit:10;}
	.st62{fill:none;stroke:#D41F19;stroke-width:1.3019;stroke-miterlimit:10;}
	.st63{fill:none;stroke:#D41F19;stroke-width:1.2895;stroke-miterlimit:10;}
	.st64{fill:none;stroke:#000000;stroke-width:0.96;stroke-miterlimit:10;}
	.st65{fill:none;stroke:#000000;stroke-width:0.48;stroke-miterlimit:10;}
	.st66{fill:none;stroke:#000000;stroke-width:0.9126;stroke-miterlimit:10;}
	.st67{fill:none;stroke:#000000;stroke-width:0.7939;stroke-miterlimit:10;}
	.st68{fill:none;stroke:#000000;stroke-width:0.4988;stroke-miterlimit:10;}
	.st69{fill:#FFFFFF;stroke:#000000;stroke-width:0.48;stroke-miterlimit:10;}
	.st70{fill:#F3F2F2;stroke:#000000;stroke-width:0.96;stroke-miterlimit:10;}
	.st71{fill:none;stroke:#000000;stroke-width:0.5045;stroke-miterlimit:10;}
	.st72{fill:none;stroke:#000000;stroke-width:1.0089;stroke-miterlimit:10;}
	.st73{fill:#D4D4D5;}
	.st74{fill:none;stroke:#020203;stroke-width:0.7361;stroke-miterlimit:10;}
	.st75{fill:none;stroke:#020203;stroke-width:0.368;stroke-miterlimit:10;}
	.st76{fill:none;stroke:#020203;stroke-width:0.6997;stroke-miterlimit:10;}
	.st77{fill:none;stroke:#020203;stroke-width:0.6087;stroke-miterlimit:10;}
	.st78{fill:none;stroke:#020203;stroke-width:0.3824;stroke-miterlimit:10;}
	.st79{fill:#FFFFFF;stroke:#020203;stroke-width:0.368;stroke-miterlimit:10;}
	.st80{fill:#F3F2F2;stroke:#020203;stroke-width:0.7361;stroke-miterlimit:10;}
	.st81{fill:none;stroke:#020203;stroke-width:0.3868;stroke-miterlimit:10;}
	.st82{fill:none;stroke:#020203;stroke-width:0.7736;stroke-miterlimit:10;}
	.st83{fill:none;stroke:#020203;stroke-width:0.3058;stroke-miterlimit:10;}
	.st84{fill:none;stroke:#D41F19;stroke-width:1.5373;stroke-miterlimit:10;}
	.st85{fill:none;stroke:#D41F19;stroke-width:1.2259;stroke-miterlimit:10;}
	.st86{fill:none;stroke:#D41F19;stroke-width:1.5;stroke-miterlimit:10;}
	.st87{fill:none;stroke:#D41F19;stroke-width:1.199;stroke-miterlimit:10;}
	.st88{fill:none;stroke:#D41F19;stroke-width:1.274;stroke-miterlimit:10;}
	.st89{fill:none;stroke:#020203;stroke-width:0.9506;stroke-miterlimit:10;}
	.st90{fill:none;stroke:#020203;stroke-width:0.827;stroke-miterlimit:10;}
	.st91{fill:none;stroke:#020203;stroke-width:0.5195;stroke-miterlimit:10;}
	.st92{fill:#FFFFFF;stroke:#020203;stroke-width:0.5;stroke-miterlimit:10;}
	.st93{fill:#F3F2F2;stroke:#020203;stroke-miterlimit:10;}
	.st94{fill:none;stroke:#020203;stroke-width:0.5255;stroke-miterlimit:10;}
	.st95{fill:none;stroke:#020203;stroke-width:1.0509;stroke-miterlimit:10;}
	.st96{fill:none;stroke:#020203;stroke-width:0.4155;stroke-miterlimit:10;}
	.st97{fill:none;}
	.st98{fill:none;stroke:#D41F19;stroke-width:1.4493;stroke-miterlimit:10;}
	.st99{fill:none;stroke:#D41F19;stroke-width:1.3972;stroke-miterlimit:10;}
	.st100{fill:none;stroke:#D41F19;stroke-width:1.4149;stroke-miterlimit:10;}
	.st101{fill:none;stroke:#D41F19;stroke-width:1.5415;stroke-miterlimit:10;}
	.st102{fill:none;stroke:#D41F19;stroke-width:1.4077;stroke-miterlimit:10;}
	.st103{fill:none;stroke:#D41F19;stroke-width:1.362;stroke-miterlimit:10;}
	.st104{fill:none;stroke:#D41F19;stroke-width:1.3128;stroke-miterlimit:10;}
	.st105{fill:#F3F3F3;stroke:#020203;stroke-width:0.96;stroke-miterlimit:10;}
	.st106{fill:#FFFFFF;stroke:#020203;stroke-width:0.96;stroke-miterlimit:10;}
	.st107{fill:#FFFFFF;stroke:#020203;stroke-width:0.87;stroke-miterlimit:10;}
	.st108{fill:#FFFFFF;stroke:#020203;stroke-width:0.3;stroke-miterlimit:10;}
	.st109{fill:none;stroke:#B5241F;stroke-width:1.91;stroke-miterlimit:10;}
	.st110{fill:none;stroke:#B5241F;stroke-width:1.45;stroke-miterlimit:10;}
	.st111{fill:none;stroke:#B5241F;stroke-width:1.47;stroke-miterlimit:10;}
	.st112{fill:none;stroke:#B5241F;stroke-width:1.36;stroke-miterlimit:10;}
	.st113{fill:none;stroke:#B5241F;stroke-width:1.41;stroke-miterlimit:10;}
	.st114{fill:none;stroke:#B5241F;stroke-width:1.55;stroke-miterlimit:10;}
	.st115{fill:#FFFFFF;stroke:#020203;stroke-width:0.51;stroke-miterlimit:10;}
	.st116{fill:#F2F2F2;stroke:#020203;stroke-width:1.02;stroke-miterlimit:10;}
	.st117{fill:none;stroke:#020203;stroke-width:1.02;stroke-miterlimit:10;}
	.st118{fill:none;stroke:#020203;stroke-width:0.51;stroke-miterlimit:10;}
	.st119{fill:none;stroke:#020203;stroke-width:0.97;stroke-miterlimit:10;}
	.st120{fill:none;stroke:#020203;stroke-width:0.84;stroke-miterlimit:10;}
	.st121{fill:#F3F3F3;stroke:#020203;stroke-width:1.02;stroke-miterlimit:10;}
	.st122{fill:none;stroke:#020203;stroke-width:1.07;stroke-miterlimit:10;}
	.st123{fill:none;stroke:#020203;stroke-width:1.06;stroke-miterlimit:10;}
	.st124{fill:none;stroke:#020203;stroke-width:0.56;stroke-miterlimit:10;}
	.st125{fill:#FFFFFF;stroke:#020203;stroke-width:0.75;stroke-miterlimit:10;}
	.st126{fill:none;stroke:#020203;stroke-width:0.49;stroke-miterlimit:10;}
</style>
<path class="st2" d="M300.4,576.7c0.1-4.7-0.2-9.3-1.1-13.9h-5.3c-0.7,2.1,0.3,30.5,0.3,30.5l5.2-0.3c0.7-4.1,1.1-8.3,1.2-12.4
	c0-0.3,0.5-0.8,0.5-0.8l-0.1-1.7C300.7,577.7,300.5,577.2,300.4,576.7z"/>
<path class="st2" d="M450.5,271.7c0,0-5.6-22.7-22.2-27.7c-20.4-2.8-19.8,5-19.8,5c-0.5,1.8-1.3,8.8,0.6,9.6c0,0-4.4,5.6-5,7.3l0,0
	c-0.4-7.6-1.1-15.7-2-24.1c-4.2-42.5,7-79.6,7-79.6s7.1-29.9-10.7-43.1c-6.4-4.7-14-10.7-23.9-19.4c-9.1-9.9-16.3-21.3-21.3-33.7
	c0,0-9-34.9-12.6-39.3s-10.1-15.1-49.5-15.9c-39.3,0.8-47.6,11.5-51.1,15.9c-3.6,4.4-12.6,39.3-12.6,39.3
	c-5,12.4-12.3,23.8-21.3,33.7c-9.9,8.8-17.5,14.8-23.8,19.5c-17.8,13.2-10.7,43.1-10.7,43.1s9.9,30.7,5.7,73.2
	c-0.4,10.8-0.7,21-0.8,30.4l-0.1-0.2c-0.9-1.9-4.8-7.1-4.8-7.1l0,0c1.9-0.8,1.1-7.8,0.6-9.6c0,0,0.6-7.8-19.8-5
	c-16.5,5-22.2,27.7-22.2,27.7s-0.9,10.2,4.7,15.5c0,0-3,9.7,0,23.4c3,13.8,13.3,60.3,13.3,60.3s0.4,2.7,5.6,2.6l0.3-0.8
	c0.8,11.3,3.9,23.5,11.5,26.4c5.6,2.2,20.7,5.9,40.7,9l-1.8,5.6l-1.6-0.4c0,0-8.2,11-9.5,13.3c-1.4,2.3-1.3,7.1,2,7.1
	c1.2,0.4,2.3,1,3.3,1.7c0,0,1,0.9,3.6,0.3c1.5,0.1,2.5,0.8,3.5,0.5c1-0.3,2.7-1.4,3-4.3c0.3-2.9-0.2-17.2-0.2-17.2l-1.1-0.4
	c0.7-2.4,1.6-5.4,1.7-5.9c23.1,3.6,46.4,5.5,69.8,5.7l0.2,2.1l-0.2,0.1l0.2,0.1l0.1,1.2l-0.3,0.1l0.3,0.1l0.1,1.1l-0.4,0.2l0.4,0.2
	l0.1,1.1l-0.5,0.3l0.6,0.3l0.1,0.9l-0.7,0.4l0.7,0.4l0.1,0.8l-0.7,0.4l0.8,0.6l0.1,0.7l-0.7,0.3l0.8,0.7h-1.6V439
	c-0.7,0.1-1.4,0.5-1.8,1.1c0,0-0.5,18.6-1,34.2l-0.2-0.1c0,0-27.7-10.6-54.6-3.3c-11,1.8-8.2,10.5-8.2,10.5h1.7h0.1l0,0
	c0.1,0.1,0.4,0.2,0.8,0.3l-2.4,1.9l-0.2,0.1l0.1-0.1l-0.1,0.1c-0.4-0.2-0.7-0.4-1.1-0.6l-4.7,1.1l0,0c-2.2,0.2-3.2,2.5-3.7,4.7l0,0
	c-0.3,1.7-0.4,3.5-0.3,5.2h0.1c-15,4.4-30.5,10.1-44.4,17.6c0,0-4.3,0.8-4.8,4.7s0.4,5.4,0.2,6.2c-0.1,0.4,2,1.5,4.9,1.8
	c-0.3,0-0.8,0.3-0.7,0.7l0,0l-0.1,0.9c-6.3-3.2-14-0.6-17.1,5.7c-0.9,1.7-1.3,3.6-1.4,5.5l0,0c-0.3,1.2-0.5,2.4-0.5,3.6
	c0,7.6,6.2,13.8,13.8,13.8c7.6,0,13.8-6.2,13.8-13.8c0-1.1-0.2-2.3-0.5-3.3l0,0l0.1-0.1l0,0c0.2-0.3,0.4-0.7,0.5-1.1l0.1-3.1l0,0
	l0.3-7.9l0,0l0,0c-0.1-0.5-1.1-0.8-1.6-0.9l-2.6,0.1c1-0.2,1.9-0.5,2.9-0.8l0.1-0.2c0,0,4.2,0.2,4.4-4.4c1.2-0.6,2.5-1.1,3.8-1.3
	c4.7-0.9,44.6-16.6,99.5-18c1.6,1.1,3.3,2,5.1,2.7l0.5,3c0.5,14.7,1.3,34.7,1.9,38.6c0.6,3.8,0.6,7.7,0,11.5c1,1.4,2.2,2.6,3.6,3.4
	v3.8l1.7,0.4l-3.5,19.3l12.2,0.1l-0.1-15.9l0.2-7.4c1.8-0.9,3.3-2.2,4.5-3.9c-0.6-3.8-0.6-7.7,0-11.5c0.6-4.2,1.5-26.8,2-41.6
	l0.1-0.1l-0.1,0.1c1.8-0.7,3.5-1.7,5.1-2.8c54.9,1.4,94.8,17.1,99.5,18c1.3,0.2,2.6,0.7,3.8,1.3c0.2,4.3,3.8,4.4,4.3,4.4l-0.1,1.1
	c-0.5,0.1-1.4,0.5-1.4,0.9l0,0c0,0.5,0,0.9,0.1,1.4l0,0l0.4,9.6c0.1,0.4,0.2,0.7,0.5,1c-0.3,1.1-0.4,2.2-0.4,3.3
	c0,7.6,6.2,13.8,13.8,13.8c7.6,0,13.7-6.2,13.8-13.8c0-1.2-0.2-2.4-0.5-3.6l0,0c-0.1-7-5.9-12.6-13-12.5c-1.6,0-3.2,0.4-4.7,1
	l-0.7-0.5l0,0c-0.1-0.3-0.4-0.5-0.8-0.5h-0.2v-0.1c3.2-0.2,5.6-1.4,5.5-1.8c-0.1-0.7,0.7-2.3,0.2-6.2c-0.5-3.9-4.8-4.7-4.8-4.7
	c-13.9-7.4-29.5-13.2-44.4-17.6h0.1c0.1-1.7,0-3.5-0.3-5.2l0,0c-0.4-2.3-1.4-4.5-3.7-4.7h0.1l-4.7-1.1c-0.4,0.2-0.8,0.3-1.1,0.6l0,0
	c0,0-1.4-1-2.7-1.9l0,0c0.3-0.1,0.7-0.3,1-0.4h1.8c0,0,2.8-8.7-8.2-10.5c-25.4-6.8-51.4,2.2-54.4,3.2c-0.2-11.6-0.5-33.4-0.5-34.2
	c0-0.3-0.1-0.5-0.3-0.7l0,0c-0.6-0.5-1.3-0.7-2.1-0.8v-12h-1.5v-0.1l0.8-0.8l-0.8-0.5v-0.7l0.8-0.5l-0.8-0.4v-0.8l0.7-0.6l-0.7-0.4
	v-1l0.7-0.5L301,420v-0.8l0.7-0.5l-0.7-0.3v-0.9l0.8-0.4l-0.8-0.3v-0.9l0.7-0.4l-0.7-0.8v-0.2c52.5,0.1,102.9-10.7,114.4-15.1
	c7.4-2.8,10.5-14.6,11.4-25.6l0,0c5.2,0,5.6-2.6,5.6-2.6c1.2,2,9.4-38.4,13.3-60.3c3-17.1,0-23.4,0-23.4
	C451.4,281.9,450.5,271.7,450.5,271.7z M159.5,347.5L159.5,347.5l0.1-3.2C159.5,346.2,159.5,347.5,159.5,347.5z M226.6,488.1
	l-0.1-0.3l0,0c-1.1-4.4-3.8-5.6-3.8-5.6l0,0l-0.2-0.2c3.8-1,3.9-3.3,4-3.6l0,0c7.6,0.5,15.1,2.2,22,5.3
	C242.3,484.9,234.8,486.4,226.6,488.1L226.6,488.1z M353.6,478.6v0.3l0,0c0.1,0.7,0.8,2.5,4,3.3l-0.2,0.1l0,0l-0.2,0.1l0,0
	c-0.6,0.3-2.7,1.7-3.6,5.5l0-0.1l-0.1,0.4c-8.2-1.8-15.7-3.2-22-4.2C338.5,480.8,345.9,479.1,353.6,478.6L353.6,478.6z"/>
<path class="st2" d="M286.3,562.8h-5.3c-0.9,4.6-1.3,9.2-1.1,13.9c-0.1,0.5-0.3,1-0.7,1.3l-0.1,1.7c0,0,0.5,0.5,0.5,0.8
	c0,4.2,0.4,8.3,1.2,12.4l5.2,0.3C286.1,593.3,287,565,286.3,562.8z"/>
<path class="st1" d="M316.8,104.6c-8.8-10.3-27.9-10.3-27.9-10.3s-19.2,0-28,10.3c-7.4,8.7-1.1,14.4,3.5,14.4
	c4.9,0,21.4-1.8,24.3-1.7c2.9-0.1,18.3,1.7,23.2,1.7C316.3,119.1,324.2,113.3,316.8,104.6z"/>
<polygon class="st1" points="176.2,283.5 177.2,333.2 175.2,334.6 173,338.6 167.8,340.5 175.5,283.5 "/>
<polygon class="st1" points="404.7,288.1 402.9,333.8 405.2,335.3 407.2,339.2 412.3,341.3 405.5,288.1 "/>
<polyline class="st8" points="301,414.6 301.7,415.4 300,416.4 301.8,417 300,418 301.7,418.8 300.2,419.7 301.7,420.3 300.2,421.5 
	301.7,422.2 300.3,423.3 301.7,424 300.4,424.8 301.7,425.6 300.9,426.4 "/>
<polyline class="st8" points="278.7,414.6 280.3,415.8 278.7,416.6 280.3,417.3 278.7,418.1 280.3,418.7 278.7,419.5 280.3,420.1 
	278.7,421 280.3,421.7 278.7,422.6 280.3,423.3 278.8,424.1 280.3,425.1 279,425.7 279.8,426.4 "/>
<line class="st8" x1="301.6" y1="415.5" x2="278.7" y2="416.6"/>
<line class="st8" x1="301.8" y1="417" x2="278.8" y2="418.2"/>
<line class="st8" x1="301.5" y1="418.8" x2="279.2" y2="419.5"/>
<line class="st8" x1="301.6" y1="420.3" x2="279.1" y2="421"/>
<line class="st8" x1="301.7" y1="422.2" x2="279.1" y2="422.6"/>
<line class="st8" x1="301.6" y1="424" x2="279.1" y2="424.2"/>
<line class="st8" x1="301.7" y1="425.6" x2="279.2" y2="425.6"/>
<path class="st12" d="M278.2,426.4h24.2v16.5c-3.7,2.3-7.9,3.6-12.2,3.8c-4.3-0.1-8.4-1.4-12-3.7V426.4z"/>
<path class="st8" d="M278.2,443c8,1.7,16.2,1.7,24.2-0.1"/>
<path class="st12" d="M302.4,438.4c0,0,2.4,0.4,2.4,1.6c0,1.2,0.6,41.4,0.6,41.4s-12.1,6.4-30.3-0.7c0.6-16.3,1.3-40.5,1.3-40.5
	c0.5-0.6,1.1-1,1.8-1.1"/>
<path class="st12" d="M276.3,440.1c0.5,0.4,1.2,0.7,1.8,0.8"/>
<path class="st12" d="M304.5,439.2c-0.5,0.4-1.2,0.7-1.8,0.8"/>
<path class="st12" d="M206.2,408.2l-2,5.9c0.4,0.9,1.5,1.3,2.5,0.9c0.2-0.1,0.3-0.2,0.4-0.3c0.8-2.6,1.8-6.1,1.8-6.1"/>
<polyline class="st8" points="204.3,414 202.7,413.5 202.3,415.6 207.6,417 208.3,415 207.1,414.6 "/>
<path class="st12" d="M202.7,413.5c0,0-8.2,11-9.5,13.3c-1.4,2.4-1.3,7.1,2,7.1c1.2,0.4,2.3,1,3.3,1.7c0,0,1,0.9,3.6,0.3
	c1.5,0.1,2.5,0.8,3.5,0.5s2.7-1.4,3-4.3c0.3-2.9-0.2-17.2-0.2-17.2"/>
<path class="st27" d="M202.5,415.6l-3.2,8.1c0,0,2.2,4.3,6.4,1.8c0.8-2.7,1.5-5.5,1.9-8.4c0,0-0.2,11.5-0.4,13.9s-1.1,3.2-1.9,3.4
	c-0.8,0.2-2.3-0.4-3.4-0.3c-1.2,0.1-2.3,0-3.4-0.5c-0.7-0.6-1.5-1-2.3-1.2c-2.9-0.5-2.4-3.7-1.3-5.7c1.1-2,7.5-11.3,7.5-11.3"/>
<path class="st12" d="M275.1,474.3c0,0-27.7-10.6-54.6-3.3c-11,1.8-8.2,10.5-8.2,10.5h1.7c0,0,0-1.5,0.7-1.9
	c1.1-0.7,16.3-3.3,34.1,4.4"/>
<path class="st8" d="M214,481.4c2.6,1.1,5.4,1.5,8.2,0.9c4.4-1,4.4-3.7,4.4-3.7"/>
<path class="st12" d="M268.3,481.2c0,0-64.2,6.1-110.1,30.6c0,0-4.3,0.8-4.8,4.7s0.4,5.4,0.2,6.2c-0.1,0.7,6,3.3,12,0.7
	c1.2-2.4,3.6-5,8.3-5.9c4.7-0.9,44.6-16.6,99.5-18c1.6,1.1,3.3,2,5.1,2.7"/>
<path class="st8" d="M165.8,523.2c0,0,4.2,0.2,4.4-4.4"/>
<path class="st12" d="M305,474.3c0,0,27.7-10.6,54.7-3.3c11,1.8,8.2,10.5,8.2,10.5h-1.7c0,0-0.1-1.5-0.7-1.9
	c-1.1-0.7-16.3-3.3-34.1,4.4"/>
<path class="st8" d="M366.1,481.4c-2.6,1.1-5.5,1.5-8.2,0.9c-4.4-1-4.4-3.7-4.4-3.7"/>
<path class="st12" d="M311.8,481.2c0,0,64.2,6.1,110.1,30.6c0,0,4.3,0.8,4.8,4.7s-0.4,5.4-0.2,6.2c0.1,0.7-6,3.3-12,0.7
	c-1.2-2.4-3.6-5-8.3-5.9s-44.6-16.6-99.5-18c-1.6,1.1-3.3,2-5.1,2.7"/>
<path class="st8" d="M414.3,523.2c0,0-4.2,0.2-4.4-4.4"/>
<path class="st12" d="M278.6,488.9c0,0,1.5,48.5,2.4,54.8c0.6,3.8,0.6,7.7,0,11.5c2.1,3.1,5.5,5,9.3,5.1"/>
<path class="st12" d="M301.9,488.9c0,0-1.5,48.5-2.4,54.8c-0.6,3.8-0.6,7.7,0,11.5c-2.1,3.1-5.5,5-9.3,5.1"/>
<path class="st12" d="M202.5,494.3c0,0-0.8-9.7,4.2-10c5-0.3,7.6,6.7,7.6,6.7"/>
<path class="st12" d="M206.5,484.3l4.7-1.1c0,0,5.1,1.9,5.9,7.2"/>
<path class="st8" d="M217.2,482.4v1.1c0,0,3.3,1.5,5.3,0c0-0.6,0-1.2,0-1.2"/>
<path class="st8" d="M217.1,482.9c0,0-1.1,0.2-1.1,0.8s5.6,2.3,8-0.1c-0.3-0.8-1.4-0.7-1.4-0.7"/>
<line class="st8" x1="215.9" y1="483.7" x2="215.9" y2="487"/>
<line class="st8" x1="223.9" y1="483.6" x2="223.9" y2="488.6"/>
<path class="st12" d="M212.3,483.8c0,0,1.4-1,2.7-1.9"/>
<path class="st12" d="M222.7,482.3c0,0,2.7,1.1,3.8,5.6"/>
<polyline class="st8" points="203.7,487.3 206.7,493.1 205.8,493.3 202.8,489.1 "/>
<line class="st8" x1="205.9" y1="484.4" x2="207.1" y2="492.8"/>
<line class="st8" x1="207.8" y1="484.4" x2="207.8" y2="492.8"/>
<path class="st8" d="M211.7,486.8c0,0-3,5.3-3.1,5.6"/>
<line class="st8" x1="209.9" y1="492.2" x2="212.8" y2="488.5"/>
<path class="st12" d="M377.6,494.3c0,0,0.8-9.7-4.2-10c-5-0.3-7.6,6.7-7.6,6.7"/>
<path class="st12" d="M373.6,484.3l-4.7-1.1c0,0-5.1,1.9-5.9,7.2"/>
<path class="st8" d="M362.9,482.4v1.1c0,0-3.3,1.5-5.3,0c0-0.6,0-1.2,0-1.2"/>
<path class="st8" d="M363,482.9c0,0,1.1,0.2,1.1,0.8s-5.6,2.3-8-0.1c0.3-0.8,1.5-0.7,1.5-0.7"/>
<line class="st8" x1="364.2" y1="483.7" x2="364.2" y2="487"/>
<line class="st8" x1="356.2" y1="483.6" x2="356.2" y2="488.6"/>
<path class="st12" d="M367.8,483.8c0,0-1.4-1-2.7-1.9"/>
<path class="st12" d="M357.4,482.3c0,0-2.7,1.1-3.8,5.6"/>
<polyline class="st8" points="376.4,487.3 373.5,493.1 374.3,493.3 377.3,489.1 "/>
<line class="st8" x1="374.2" y1="484.4" x2="373" y2="492.8"/>
<line class="st8" x1="372.3" y1="484.4" x2="372.3" y2="492.8"/>
<path class="st8" d="M368.4,486.8c0,0,3,5.3,3.1,5.6"/>
<line class="st8" x1="370.2" y1="492.2" x2="367.3" y2="488.5"/>
<path class="st12" d="M158.7,524.5c-0.4-0.1-2,1,1.2,1.5c2.5,0.4,6.8,0,7.1-0.7c0.3-0.7-1-1.1-1.5-1.1"/>
<line class="st8" x1="165.3" y1="523.6" x2="165.3" y2="525.6"/>
<line class="st12" x1="157.9" y1="525.1" x2="157.9" y2="528.1"/>
<path class="st12" d="M167,525.1l-0.4,11c0,0-0.2,1-0.6,1.2"/>
<path class="st12" d="M421.1,524.6c0.4-0.1,2,1-1.2,1.5c-2.5,0.4-6.8,0-7.1-0.7c-0.3-0.7,1-1.1,1.5-1.1"/>
<line class="st8" x1="414.5" y1="523.7" x2="414.5" y2="525.7"/>
<line class="st12" x1="421.9" y1="525.3" x2="421.9" y2="528.3"/>
<path class="st12" d="M412.8,525.3l0.4,11c0,0,0.2,1,0.6,1.2"/>
<line class="st8" x1="284.7" y1="558.7" x2="284.7" y2="562.7"/>
<path class="st12" d="M286.3,562.8H281c-0.9,4.6-1.3,9.2-1.1,13.9c-0.1,0.5-0.3,1-0.7,1.3l-0.1,1.7c0,0,0.5,0.5,0.5,0.8
	c0,4.2,0.4,8.3,1.2,12.4l5.2,0.3C286.1,593.3,287,565,286.3,562.8z"/>
<path class="st8" d="M281,562.8c0,0-0.2,12.6-0.2,30.1"/>
<path class="st12" d="M293.9,562.8h5.3c0.9,4.6,1.3,9.2,1.2,13.9c0.1,0.5,0.3,1,0.7,1.3l0.1,1.7c0,0-0.5,0.5-0.5,0.8
	c0,4.2-0.4,8.3-1.2,12.4l-5.2,0.3C294.2,593.3,293.2,565,293.9,562.8z"/>
<path class="st8" d="M299.2,562.8c0,0,0.2,12.6,0.2,30.1"/>
<line class="st8" x1="286.5" y1="564.3" x2="293.7" y2="564.3"/>
<line class="st8" x1="286.5" y1="582.5" x2="293.7" y2="582.5"/>
<line class="st8" x1="295.1" y1="559.1" x2="295.1" y2="562.8"/>
<ellipse class="st28" cx="152.6" cy="540.7" rx="13.8" ry="13.5"/>
<ellipse class="st29" cx="152.6" cy="540.7" rx="12" ry="11.8"/>
<path class="st28" d="M157.8,526.1c-6.3-3.2-14-0.6-17.1,5.7c-0.9,1.7-1.3,3.6-1.4,5.5"/>
<path class="st30" d="M148.5,529.7l3.2,9.3c-0.2,0.1-0.5,0.3-0.7,0.5c-0.8-0.5-7.9-5.9-7.9-5.9"/>
<path class="st30" d="M158.1,530.3l-4.2,8.6c-0.4-0.1-0.7-0.1-1.1-0.1c-0.3-1.8-1.2-9.7-1.2-9.7"/>
<path class="st30" d="M163.9,536.7l-8.5,3.5c-0.1-0.3-0.2-0.5-0.4-0.7c0.6-0.8,5.7-7.5,5.7-7.5"/>
<path class="st30" d="M163.6,545.8l-8.3-3.7c0.1-0.2,0.2-0.5,0.2-0.8c0.9-0.2,9-2.2,9-2.2"/>
<path class="st30" d="M157,551.7l-2.8-8.4c0.3-0.1,0.5-0.2,0.7-0.5c0.8,0.5,7.1,5.3,7.1,5.3"/>
<path class="st30" d="M148,551.6l4.2-8.1c0.3,0.1,0.6,0.1,0.9,0.1c0.3,1.8,1,7.9,1.1,8.9"/>
<path class="st30" d="M141.8,545.8l8.7-3.6c0.1,0.3,0.2,0.5,0.4,0.7c-0.6,0.8-5.5,7.2-5.5,7.2"/>
<path class="st30" d="M141.5,536.3l9,4.1c-0.1,0.2-0.2,0.5-0.2,0.8c-1,0.2-9.4,2.2-9.4,2.2"/>
<ellipse class="st28" cx="427" cy="540.7" rx="13.8" ry="13.5"/>
<ellipse class="st29" cx="427" cy="540.7" rx="12" ry="11.8"/>
<path class="st28" d="M421.8,526c6.3-3.2,14-0.6,17.1,5.7c0.9,1.7,1.3,3.6,1.4,5.5"/>
<path class="st30" d="M431.1,529.7l-3.2,9.3c0.2,0.1,0.5,0.3,0.7,0.5c0.8-0.5,7.9-5.9,7.9-5.9"/>
<path class="st30" d="M421.5,530.3l4.3,8.6c0.4-0.1,0.7-0.1,1.1-0.1c0.3-1.8,1.2-9.7,1.2-9.7"/>
<path class="st30" d="M415.7,536.7l8.5,3.5c0.1-0.3,0.2-0.5,0.4-0.7c-0.6-0.8-5.7-7.5-5.7-7.5"/>
<path class="st30" d="M416,545.8l8.3-3.7c-0.1-0.2-0.2-0.5-0.2-0.8c-1-0.2-9-2.2-9-2.2"/>
<path class="st30" d="M422.6,551.7l2.8-8.4c-0.3-0.1-0.5-0.2-0.7-0.5c-0.8,0.5-7.1,5.3-7.1,5.3"/>
<path class="st30" d="M431.6,551.6l-4.2-8.1c-0.3,0.1-0.6,0.1-0.9,0.1c-0.3,1.8-1,7.9-1.1,8.9"/>
<path class="st30" d="M437.8,545.8l-8.7-3.6c-0.1,0.3-0.2,0.5-0.4,0.7c0.6,0.8,5.5,7.2,5.5,7.2"/>
<path class="st30" d="M438.1,536.3l-9,4c0.1,0.2,0.2,0.5,0.2,0.8c1,0.2,9.4,2.2,9.4,2.2"/>
<path class="st12" d="M172.1,249c0,0,0.6-7.8-19.8-5c-16.5,5-22.2,27.7-22.2,27.7s-0.9,10.2,4.7,15.5c17.6,3.6,23.4-2.2,23.4-2.2
	s4.9-4.9,6.8-11.2c1.9-6.2,4.7-14.6,6.6-15.3C173.4,257.8,172.7,250.8,172.1,249z"/>
<path class="st8" d="M130.1,272c0,0,7.5,10.7,24.4,0.5c13-11.3,9-22.1,18-23.8"/>
<path class="st12" d="M134.8,287.2c0,0-3,9.7,0,23.4s13.3,60.3,13.3,60.3s0.4,2.7,5.6,2.6"/>
<path class="st12" d="M171.6,258.6c0,0,4.2,5.6,4.9,7.3"/>
<path class="st12" d="M165.4,272.5c0,0-5.3,20.1-6,29.6c-0.7,9.5,0.1,45.4,0.1,45.4"/>
<path class="st12" d="M164.5,276.2c0,0,1.7,10.3,0.9,16.7c-0.7,6.4-4.9,53.4-4.9,53.4"/>
<line class="st12" x1="176.4" y1="279.4" x2="168.1" y2="341.7"/>
<line class="st12" x1="162.6" y1="283.9" x2="159.1" y2="323.9"/>
<path class="st8" d="M135.2,287.3c0.4,1.3,1.4,2.3,2.7,2.7c2,0.5,13,2.9,21.2-2.4c2.6-1.8,3.1-7.7,3.1-7.7"/>
<path class="st12" d="M290.7,414.3c-56.1,1.6-113-10.2-125.3-15c-12.3-4.7-12.7-34-10.9-43.9s19-16,19-16s0.9-4.6,6.6-6.7
	c8.5-3.9,41.3,2.4,41.3,2.4l69.9,3.1"/>
<path class="st12" d="M290.7,414.3c56.1,1.6,112.5-10.2,124.7-15s12.7-34,10.9-43.9s-19-16-19-16s-0.9-4.6-6.6-6.7
	c-8.5-3.9-41.3,2.4-41.3,2.4l-68.8,3"/>
<path class="st12" d="M358.3,335.3c0,0,0.8,3.6,0.4,5c1.7,1.3,10.4,1.4,10.5,18.6c1.8,13.3,1.8,40.3-1,50.4"/>
<path class="st27" d="M222.4,340.3c0,0,89.8,4.8,136.4,0"/>
<path class="st12" d="M177.8,333.7c0,0-2.8-41.7-0.5-98.4c4.2-42.5-5.7-73.2-5.7-73.2s-7.1-29.9,10.7-43.1
	c6.4-4.7,14-10.7,23.9-19.4c9.1-9.9,16.3-21.3,21.3-33.7c0,0,9-34.9,12.6-39.3s11.8-15.1,51.1-15.9"/>
<path class="st12" d="M408.5,249c0,0-0.6-7.8,19.8-5c16.5,5,22.2,27.7,22.2,27.7s0.9,10.2-4.7,15.5c-17.6,3.6-23.4-2.2-23.4-2.2
	s-5-5-6.8-11.2c-1.9-6.2-4.7-14.6-6.6-15.3S407.9,250.8,408.5,249z"/>
<path class="st8" d="M450.5,272c0,0-7.5,10.7-24.4,0.5c-13-11.3-8.8-22.1-17.8-23.9"/>
<path class="st12" d="M445.8,287.2c0,0,3,6.3,0,23.4c-3.9,21.9-12.1,62.4-13.3,60.3c0,0-0.4,2.7-5.6,2.6"/>
<path class="st12" d="M409,258.6c0,0-4.4,5.6-5,7.3"/>
<path class="st12" d="M415.2,272.5c0,0,5.3,20.1,6,29.6c0.7,9.5-0.1,45.4-0.1,45.4"/>
<path class="st12" d="M416.1,276.2c0,0-1.7,10.3-0.9,16.7c0.7,6.4,4.9,53.4,4.9,53.4"/>
<line class="st12" x1="404.7" y1="282.8" x2="412.5" y2="341.7"/>
<line class="st12" x1="418" y1="283.9" x2="421.5" y2="323.9"/>
<path class="st8" d="M445.4,287.3c-0.4,1.3-1.4,2.3-2.7,2.8c-2,0.5-13,2.9-21.2-2.4c-2.6-1.8-3.1-7.7-3.1-7.7"/>
<path class="st12" d="M403.1,333.7c0,0,4.6-38-1.1-92c-4.2-42.5,7-79.6,7-79.6s7.1-29.9-10.7-43.1c-6.4-4.7-14-10.7-23.9-19.4
	c-9.1-9.8-16.3-21.2-21.3-33.6c0,0-9-34.9-12.6-39.3c-3.6-4.4-10.1-15.1-49.4-15.9"/>
<path class="st12" d="M220.5,149.5c2.2,40.2,2.3,185.8,2.3,185.8s-0.8,3.6-0.4,5c-1.8,1.3-10.4,1.4-10.6,18.6
	c-1.8,13.3-1.8,40.4,1,50.4"/>
<path class="st12" d="M360.6,149.5c-2.2,40.2-2.3,185.8-2.3,185.8"/>
<path class="st12" d="M323.4,103.8c-10.8-16-34.4-15.5-34.4-15.5s-23.6-0.5-34.4,15.5c-9.2,13.6,1.7,21.4,7.2,21.3
	c6-0.1,23.6-2.4,27.2-2.2c3.6-0.2,21.2,2.2,27.2,2.2C321.8,125.2,332.6,117.4,323.4,103.8z"/>
<path class="st8" d="M317,104.9c-8.8-10.3-27.9-10.3-27.9-10.3s-19.2,0-28,10.3c-7.4,8.7-1.1,14.4,3.5,14.4c4.9,0,21.4-1.8,24.3-1.7
	c2.9-0.1,18.3,1.7,23.2,1.7C316.6,119.3,324.4,113.6,317,104.9z"/>
<polyline class="st8" points="200.2,104.8 220.5,149.5 360.6,149.5 379.3,103.8 "/>
<path class="st12" d="M154.7,354.6c0,0,5.1,12.6,56.3,14"/>
<path class="st12" d="M426.4,354.6c0,0-5.1,12.6-56.3,14"/>
<path class="st8" d="M182.3,119.1c0,0,21.1,7,21.4,20.4s-11.7,45.2-8.8,71.3c1.7,15,24.6,103.6-17.7,109.5"/>
<path class="st8" d="M398.5,119.1c0,0-21.1,7-21.4,20.4c-0.3,13.4,11.7,45.2,8.8,71.3c-1.7,15-24.2,103.6,18.1,109.5"/>
<path class="st8" d="M188.8,331.4c0,0,9.3-1.5,1.7,19.1c-4.2,11.2-7.1,15.8-7.1,15.8"/>
<path class="st8" d="M392.8,331.4c0,0-9.3-1.5-1.7,19.1c4.2,11.2,7.1,15.8,7.1,15.8"/>
<path class="st5" d="M221.8,200.2c0,0,68.7-46.3,137.6,0.4"/>
<path class="st5" d="M221.8,219.2c0,0,69.3-46.9,137.6,0.4"/>
<path class="st5" d="M222.4,261.3c0,0,68.7-46.6,136.2,0.4"/>
<path class="st5" d="M222.4,280.4c0,0,68.9-46.6,136.2,0.4"/>
<g>
	<text transform="matrix(1 0 0 1 274.0027 111.9984)" class="st31 st32 st33">53cm</text>
</g>
<line class="st34" x1="171.8" y1="115.8" x2="401" y2="115.8"/>
<line class="st35" x1="169.8" y1="140.2" x2="169.8" y2="109.9"/>
<polygon class="st20" points="170.2,115.8 180.4,121.7 180.4,109.9 "/>
<line class="st35" x1="409.1" y1="140.2" x2="409.1" y2="109.9"/>
<polygon class="st20" points="408.7,115.8 398.4,121.7 398.4,109.9 "/>
<g>
	<text transform="matrix(1 0 0 1 274.0027 207.7718)" class="st31 st32 st33">50cm</text>
</g>
<line class="st36" x1="177.7" y1="211.8" x2="401" y2="211.8"/>
<line class="st35" x1="171.8" y1="258" x2="171.8" y2="205.9"/>
<polygon class="st20" points="172.1,211.8 182.4,217.7 182.4,205.9 "/>
<line class="st35" x1="408.2" y1="259.4" x2="408.2" y2="205.9"/>
<polygon class="st20" points="407.9,211.8 397.6,217.7 397.6,205.9 "/>
<g>
	<text transform="matrix(1 0 0 1 274.0027 298.6258)" class="st31 st32 st33">50cm</text>
</g>
<line class="st35" x1="176.6" y1="302.6" x2="396.5" y2="302.6"/>
<line class="st35" x1="176.2" y1="308.5" x2="176.2" y2="296.7"/>
<polygon class="st20" points="176.5,302.6 186.8,308.5 186.8,296.7 "/>
<line class="st35" x1="404.5" y1="308.5" x2="404.5" y2="296.7"/>
<polygon class="st20" points="404.1,302.6 393.9,308.5 393.9,296.7 "/>
<g>
	<text transform="matrix(1 0 0 1 274.0027 384.5941)" class="st31 st32 st33">54cm</text>
</g>
<line class="st37" x1="163.4" y1="388.6" x2="416" y2="388.6"/>
<line class="st35" x1="155.5" y1="394.5" x2="155.5" y2="382.6"/>
<polygon class="st20" points="155.8,388.6 166.1,394.5 166.1,382.6 "/>
<line class="st35" x1="425.1" y1="394.5" x2="425.1" y2="382.6"/>
<polygon class="st20" points="424.8,388.6 414.5,394.5 414.5,382.6 "/>
</svg>
