<?xml version="1.0" encoding="UTF-8"?>
<!-- Generator: Adobe Illustrator 23.0.1, SVG Export Plug-In . SVG Version: 6.00 Build 0)  -->
<svg version="1.1" id="Camada_1" xmlns="http://www.w3.org/2000/svg" xmlns:xlink="http://www.w3.org/1999/xlink" x="0px" y="0px" viewBox="0 0 444.5 716.4" style="enable-background:new 0 0 444.5 716.4;" xml:space="preserve">
<style type="text/css">
	.st0{fill:#D5D5D5;}
	.st1{fill:none;stroke:#000000;stroke-width:2;stroke-miterlimit:10;}
	.st2{fill:none;stroke:#000000;stroke-width:3;stroke-miterlimit:10;}
</style>
<title>GTX SE</title>
<path class="st0" d="M431.7,436.9c-24.5-29.3-66-29-66-29c-46.8-2.6-82.5-5.1-82.5-5.1s26.4-0.5,39.9,0.1s59.8,2.5,73.1,5.4  s34.4,16.1,36.9,20.6s0.5,4,0.5,4L431.7,436.9z"/>
<polyline class="st1" points="257.8,500.8 257.1,501.3 259.2,501.8 257.2,503.1 259.3,503.9 257.6,505.1 259.4,505.8 257.7,507.2   259.6,508 258,509.4 259.8,510.1 258.3,511.2 259.9,512 259,513.1 "/>
<polyline class="st1" points="231.7,500.4 233.4,502.3 231.7,503.5 233.6,504.1 231.8,505.2 233.7,505.8 232,506.8 233.8,507.5   232.1,508.7 234,509.3 232.3,510.5 234.1,511.3 232.4,512.3 234.3,513.5 232.8,514.3 233.9,515 "/>
<line class="st1" x1="250.2" y1="501.1" x2="231.7" y2="503.5"/>
<line class="st1" x1="259.2" y1="501.8" x2="232" y2="505.3"/>
<line class="st1" x1="259" y1="504" x2="232.5" y2="506.8"/>
<line class="st1" x1="259.3" y1="505.7" x2="232.5" y2="508.6"/>
<line class="st1" x1="259.6" y1="508" x2="232.6" y2="510.6"/>
<line class="st1" x1="259.6" y1="510.1" x2="232.8" y2="512.5"/>
<line class="st1" x1="259.9" y1="512" x2="233.1" y2="514.1"/>
<path class="st2" d="M232.1,515l28.9-1.8l1.4,20.2c-4.2,3.1-9.1,5-14.3,5.5c-5.1,0.2-10.1-1-14.6-3.4L232.1,515z"/>
<path class="st1" d="M233.3,535.5c9.7,1,19.6,0.2,29-2.3"/>
<path class="st2" d="M235.1,536.3c0,1.4,0.7,45.6,0.7,45.6s-14.4,7.7-36.3-0.8c0.7-19.5,1.5-48.4,1.5-48.4c1.1-0.8,2.3-1.4,3.6-1.8"/>
<path class="st2" d="M201,532.8c0,0,7.9,5.9,32.3,1.5"/>
<path class="st2" d="M181.7,490.7c0,0-45.4,6.5-51,7.5c-3.2,0.4-5.9,2.4-7.3,5.3l-5.1,12.3c0.5,1.1,1.9,1.6,3,1.1  c0.2-0.1,0.4-0.2,0.5-0.3c1-3.2,4.7-11,4.7-11c1.1-1.7,2.9-3,4.8-3.6c8.2-1.7,57.1-8.4,57.1-8.4"/>
<polyline class="st1" points="118.1,515.3 114.9,515.1 117.4,517.7 123.9,519.3 122,516.7 "/>
<path class="st2" d="M114.7,515.1c0,0-12.5,16.1-14.1,19s-1.5,8.4,2.4,8.5c1.4,0.4,2.8,1.1,4,2.1c0,0,1.3,1.1,4.3,0.4  c1.8,0.2,2.4,0.6,3.6,0.3s3.1-1.6,4.2-4.8s5.2-21,5.2-21"/>
<path class="st1" d="M117.4,517.7l-6.5,11.7c0,0,0.8,4.5,5.8,1.5c2-3.9,3.8-7.9,5.4-12c0,0-3.2,14.6-4,17.5c-0.9,3.5-2,5.2-2.9,5.5  c-1,0.2-2.1,0.2-3.1,0.1c-1.4,0-2.9,0.6-3.7,0.2c-1-0.8-2.2-1.4-3.4-1.8c-3.5-0.6-1.7-4.8-0.4-7.2s10.9-17,10.9-17"/>
<path class="st2" d="M199.6,573.6c0,0-33.1-12.6-65.3-4c-13.1,2.1-9.8,12.5-9.8,12.5h2.1c0,0,0.1-1.7,0.8-2.3  c1.3-0.9,19.4-4,40.8,5.3"/>
<path class="st1" d="M126.5,582.1c3.1,1.4,6.5,1.7,9.8,1.1c5.3-1.2,5.2-4.4,5.2-4.4"/>
<path class="st2" d="M191.4,581.8c0,0-76.7,7.3-131.6,36.6c0,0-5.1,0.9-5.7,5.6s0.5,6.5,0.3,7.4s7.2,4,14.3,0.9  c1.4-2.9,4.3-6,9.9-7.1s53.3-19.9,118.9-21.6c1.9,1.3,4,2.4,6.1,3.2"/>
<path class="st1" d="M68.9,632.1c0,0,5,0.3,5.2-5.3"/>
<path class="st2" d="M235.3,573.6c0,0,33.1-12.6,65.3-4c13.1,2.1,9.8,12.5,9.8,12.5h-2.1c0,0,0-1.7-0.8-2.3  c-1.3-0.9-19.4-4-40.8,5.3"/>
<path class="st1" d="M308.4,582.1c-3.1,1.4-6.5,1.7-9.8,1.1c-5.3-1.2-5.2-4.4-5.2-4.4"/>
<path class="st2" d="M243.4,581.8c0,0,76.7,7.3,131.6,36.6c0,0,5.1,0.9,5.7,5.6s-0.5,6.5-0.3,7.4s-7.2,4-14.3,0.9  c-1.4-2.9-4.3-6-9.9-7.1s-53.3-19.9-118.9-21.5c-1.9,1.3-4,2.4-6.1,3.2"/>
<path class="st1" d="M366,632.1c0,0-5,0.3-5.2-5.3"/>
<path class="st2" d="M203.7,591.1c0,0,1.8,58,2.9,65.5c0.7,4.6,0.7,9.2,0,13.8c2.5,3.7,6.6,5.9,11.1,6.1"/>
<path class="st2" d="M231.6,591.1c0,0-1.8,58-2.9,65.5c-0.7,4.6-0.7,9.2,0,13.8c-2.5,3.7-6.6,5.9-11.1,6.1"/>
<path class="st2" d="M112.8,597.5c0,0-0.9-11.6,5-11.9s9.1,8,9.1,8"/>
<path class="st2" d="M117.5,585.6l5.7-1.3c0,0,6.1,2.3,7,8.6"/>
<path class="st1" d="M130.3,583.2v1.3c0,0,4,1.8,6.3,0V583"/>
<path class="st1" d="M130.2,584c0,0-1.4,0.3-1.4,0.9s6.7,2.7,9.5-0.1c-0.4-0.9-1.7-0.8-1.7-0.8"/>
<line class="st1" x1="128.8" y1="584.8" x2="128.8" y2="588.8"/>
<line class="st1" x1="138.4" y1="584.8" x2="138.4" y2="590.7"/>
<path class="st2" d="M124.5,584.9c0,0,1.6-1.1,3.3-2.3"/>
<path class="st2" d="M137,583.2c0,0,3.2,1.3,4.5,6.6"/>
<polyline class="st1" points="114.2,589.1 117.7,596.1 116.7,596.4 113.2,591.3 "/>
<line class="st1" x1="116.9" y1="585.7" x2="118.3" y2="595.7"/>
<line class="st1" x1="119.2" y1="585.7" x2="119.1" y2="595.7"/>
<path class="st1" d="M123.7,588.5c0,0-3.6,6.4-3.7,6.8"/>
<line class="st1" x1="121.7" y1="595" x2="125.1" y2="590.6"/>
<path class="st2" d="M322,597.5c0,0,0.9-11.6-5-11.9s-9.1,8-9.1,8"/>
<path class="st2" d="M317.3,585.6l-5.6-1.3c0,0-6.1,2.3-7,8.6"/>
<path class="st1" d="M304.6,583.2v1.3c0,0-4,1.8-6.3,0V583"/>
<path class="st1" d="M304.7,584c0,0,1.4,0.3,1.4,0.9s-6.7,2.7-9.5-0.1c0.4-0.9,1.7-0.8,1.7-0.8"/>
<line class="st1" x1="306" y1="584.8" x2="306" y2="588.8"/>
<line class="st1" x1="296.5" y1="584.8" x2="296.5" y2="590.7"/>
<path class="st2" d="M310.3,584.9c0,0-1.6-1.1-3.3-2.3"/>
<path class="st2" d="M297.9,583.2c0,0-3.2,1.3-4.5,6.6"/>
<polyline class="st1" points="320.7,589.1 317.1,596.1 318.1,596.4 321.7,591.3 "/>
<line class="st1" x1="318" y1="585.7" x2="316.5" y2="595.7"/>
<line class="st1" x1="315.7" y1="585.7" x2="315.8" y2="595.7"/>
<path class="st1" d="M311.1,588.5c0,0,3.6,6.4,3.7,6.8"/>
<line class="st1" x1="313.2" y1="595" x2="309.7" y2="590.6"/>
<path class="st2" d="M60.4,633.6c-0.5-0.1-2.5,1.2,1.4,1.8c3,0.5,8.1,0,8.5-0.8s-1.2-1.3-1.8-1.4"/>
<line class="st1" x1="68.3" y1="632.5" x2="68.3" y2="634.9"/>
<line class="st2" x1="59.5" y1="634.4" x2="59.5" y2="638"/>
<path class="st2" d="M70.3,634.4l-0.5,13.2c0,0-0.3,1.1-0.7,1.4"/>
<ellipse class="st1" cx="53.3" cy="653.1" rx="16.4" ry="16.2"/>
<ellipse class="st1" cx="53.3" cy="653.1" rx="14.3" ry="14.1"/>
<path class="st1" d="M59.5,635.5c-7.5-3.8-16.7-0.7-20.5,6.8c-1,2-1.6,4.3-1.6,6.5"/>
<path class="st1" d="M48.4,639.9l3.8,11.1c-0.3,0.1-0.6,0.3-0.8,0.6c-1-0.7-9.5-7.1-9.5-7.1"/>
<path class="st1" d="M59.8,640.6l-5.1,10.3c-0.4-0.1-0.9-0.2-1.3-0.1c-0.4-2.2-1.4-11.7-1.4-11.7"/>
<path class="st1" d="M66.7,648.2l-10.2,4.2c-0.1-0.3-0.3-0.6-0.5-0.8c0.7-1,6.8-9,6.8-9"/>
<path class="st1" d="M66.3,659.1l-9.9-4.5c0.2-0.3,0.2-0.6,0.3-0.9c1.2-0.2,10.7-2.6,10.7-2.6"/>
<path class="st1" d="M58.5,666.2l-3.4-10c0.3-0.1,0.6-0.3,0.8-0.5c1,0.7,8.5,6.3,8.5,6.3"/>
<path class="st1" d="M47.7,666.1l5-9.7c0.3,0.1,0.7,0.1,1.1,0.1c0.4,2.2,1.2,9.4,1.3,10.6"/>
<path class="st1" d="M40.3,659.1l10.4-4.2c0.1,0.3,0.3,0.6,0.5,0.8c-0.7,1-6.6,8.7-6.6,8.7"/>
<path class="st1" d="M40,647.8l10.8,4.8c-0.2,0.3-0.2,0.6-0.3,0.9c-1.2,0.2-11.2,2.6-11.2,2.6"/>
<ellipse class="st1" cx="381.2" cy="653.1" rx="16.5" ry="16.2"/>
<ellipse class="st1" cx="381.2" cy="653.1" rx="14.3" ry="14.1"/>
<path class="st1" d="M375,635.5c7.5-3.8,16.7-0.7,20.5,6.8c1,2,1.6,4.3,1.6,6.5"/>
<path class="st1" d="M386.1,639.8l-3.8,11.2c0.3,0.1,0.6,0.3,0.8,0.6c1-0.7,9.5-7.1,9.5-7.1"/>
<path class="st1" d="M374.6,640.6l5.1,10.3c0.4-0.1,0.9-0.2,1.3-0.1c0.4-2.2,1.5-11.7,1.5-11.7"/>
<path class="st1" d="M367.7,648.2l10.2,4.2c0.1-0.3,0.3-0.6,0.5-0.8c-0.7-1-6.9-9-6.9-9"/>
<path class="st1" d="M368.1,659.1l9.9-4.5c-0.2-0.3-0.2-0.6-0.3-0.9c-1.2-0.2-10.7-2.6-10.7-2.6"/>
<path class="st1" d="M376,666.2l3.4-10c-0.3-0.1-0.6-0.3-0.8-0.5c-1,0.7-8.5,6.3-8.5,6.3"/>
<path class="st1" d="M386.7,666.1l-5-9.7c-0.3,0.1-0.7,0.1-1.1,0.1c-0.4,2.2-1.1,9.4-1.3,10.6"/>
<path class="st1" d="M394.1,659.1l-10.4-4.2c-0.1,0.3-0.3,0.6-0.5,0.8c0.7,1,6.6,8.7,6.6,8.7"/>
<path class="st1" d="M394.4,647.8l-10.8,4.8c0.2,0.3,0.2,0.6,0.3,0.9c1.2,0.2,11.2,2.6,11.2,2.6"/>
<path class="st2" d="M374,633.8c0.5-0.1,2.5,1.2-1.4,1.8c-3,0.5-8.1,0-8.5-0.8s1.2-1.3,1.8-1.4"/>
<line class="st1" x1="366.1" y1="632.7" x2="366.1" y2="635.1"/>
<line class="st2" x1="375" y1="634.6" x2="375" y2="638.2"/>
<path class="st2" d="M364.1,634.6l0.5,13.2c0,0,0.3,1.1,0.7,1.4"/>
<line class="st1" x1="211.1" y1="674.5" x2="211.1" y2="679.3"/>
<path class="st2" d="M213,679.4h-6.3c-1.1,5.5-1.5,11-1.4,16.6c-0.1,0.6-0.4,1.1-0.8,1.6l-0.1,2c0,0,0.6,0.6,0.6,0.9  c0.1,5,0.5,10,1.4,14.9l6.3,0.4C212.7,715.8,213.8,682,213,679.4z"/>
<path class="st1" d="M206.7,679.4c0,0-0.3,15-0.3,36"/>
<path class="st2" d="M222,679.4h6.3c1.1,5.5,1.5,11,1.4,16.6c0.1,0.6,0.4,1.1,0.8,1.6l0.1,2c0,0-0.6,0.6-0.6,0.9  c-0.1,5-0.5,10-1.4,14.9l-6.3,0.4C222.3,715.8,221.2,682,222,679.4z"/>
<path class="st1" d="M228.3,679.4c0,0,0.3,15,0.3,36"/>
<line class="st1" x1="213.2" y1="681.2" x2="221.8" y2="681.2"/>
<line class="st1" x1="213.2" y1="703" x2="221.8" y2="703"/>
<line class="st1" x1="223.5" y1="675" x2="223.5" y2="679.4"/>
<line class="st2" x1="204.6" y1="514.1" x2="204.6" y2="534.3"/>
<path class="st2" d="M209.7,512.2c0,0-4.8,0.4-5.1,1.8s9.8,2.6,14.3,2.6s13.3-0.7,12.6-2.6s-4.8-1.8-4.8-1.8"/>
<path class="st2" d="M209.8,505v9c0,0,9.6,2.2,17.1,0v-8.1"/>
<path class="st2" d="M188,492.9c0,0,1.7,3.1,3.8,3.5s12.6,0.6,12.6,0.6"/>
<path class="st2" d="M192.3,496.5c0,0,2.4,2.3,7.7,3.5c6.2,1.4,12,2.5,12,2.5s5.5,0.6,7.9,0.6s13.1-0.8,13.1-0.8"/>
<path class="st2" d="M201.9,500.4c0,0,6.4,3.9,8.4,4.3s12.3,0.8,13.2,0.7c3.2-0.7,6.4-1.6,9.6-2.7"/>
<path class="st2" d="M209.6,504.4c-0.1,0.8,0.4,1.5,1.1,1.8c1.3,0.6,14.2,0.8,15.1,0.4c0.9-0.4,1.6-1.2,2-2.2"/>
<path class="st2" d="M163,367.2c2.9,3.3,5.4,6.9,7.5,10.8c3.1,6.1-4.8,29.7-4.8,29.7s-22.9,57-32.9,63.5s-29.1,4.6-29.1,4.6  s-11-1.9-31.1-5.3s-23.2-10.7-36.3-27.9c-12.7-16.6-23-38.4-23-38.4s-3.2-4.1-0.9-16.4s5.1-21.8,5.1-21.8s-11.8-17-6.6-28  c4.2-8.2,19.5-10.2,19.5-10.2s-0.6-10.6-0.3-12.1s2.4-5.8,10-6.8s36.2-3.1,54.7,1.6s36.8,7.7,71,30c7.2,9.2,2.4,20,2.4,20  S167.6,366.8,163,367.2z"/>
<path class="st2" d="M30.2,327.8c0,0,37.6-7.9,83.9,17.6s41.9,20,53.8,15.4"/>
<path class="st1" d="M30.1,315.2c0,0,3.5-7.8,34.3-3.6s61.8,25.2,61.8,25.2s16.4,11.9,27.9,12.4s14-4.3,14-4.3"/>
<path class="st2" d="M39.7,343.9c0,0-7,8.8-5.4,15.3s46.6,80.1,46.6,80.1s6.2,8.3,11.3,9.2s12.9,1.7,12.9,1.7s8.3,1.4,15.3-6.8  s19.4-46.5,20.6-51.6s0.5-10.6-5.4-15.1c-9.6-7.5-20-14-30.9-19.4C87.1,348.8,64.1,341.2,39.7,343.9z"/>
<path class="st2" d="M17.3,365.9c0,0,47,78.1,48.3,82.1c-5.6-6-26.1-31.2-30.8-39.3s-8.1-13.5-6.6-24.5"/>
<path class="st1" d="M43.1,326.4c0,0,39.6-0.1,93.6,35.8c16.2,9.5,26.3,4.9,26.3,4.9"/>
<path class="st1" d="M42.7,326.3c0,0,70,15.6,91.5,40.8c13.4,11.1,12.8,24.2,12.8,24.2c-0.6,19.2-4.1,38.2-10.3,56.3  c-3.1,11-13.4,26.3-16.7,27.7"/>
<ellipse transform="matrix(0.6151 -0.7884 0.7884 0.6151 -265.0863 149.3897)" class="st1" cx="20.5" cy="346.2" rx="3.3" ry="3.6"/>
<ellipse transform="matrix(0.9925 -0.1226 0.1226 0.9925 -48.2671 5.1621)" class="st1" cx="17.8" cy="394.8" rx="3.3" ry="3.6"/>
<ellipse transform="matrix(0.5 -0.866 0.866 0.5 -365.8521 273.1495)" class="st1" cx="53.6" cy="453.4" rx="4.2" ry="2.8"/>
<ellipse transform="matrix(0.3196 -0.9475 0.9475 0.3196 -362.2246 418.5571)" class="st1" cx="110.3" cy="461.5" rx="4.4" ry="2"/>
<path class="st2" d="M282.9,395.2c0,0,4.4,6.6,5,7"/>
<path class="st2" d="M295.1,364.8c0,0-3,14.3,5.1,24.5c8.4,10.5,10.3,13.5,10.3,13.5"/>
<line class="st2" x1="295.1" y1="364.8" x2="321.4" y2="402.8"/>
<path class="st2" d="M338,403.7l-36.7-54.1c0,0-0.9-1,0-3.9c1.3-3.3,2.7-6.5,4.4-9.6c0,0,1-3,6.8-3.5s39.6-0.2,61.8,8.6  s35.6,17.1,35.6,17.1s7.1,4,4.5,11.9S396,408,396,408"/>
<path class="st2" d="M290,323.6c0,0,11.1-3.1,13.5-3.6c-0.8-1.1-1.8-8.4-1.9-10.3s0.9-4.8,4.7-6s41.5-5.2,70.8,1.2  s54.2,15.6,65,23.9c5.1,4-1.8,15.6-1.8,15.6s-0.7,4-2.8,4.5s-1.9,1.9-1.2,2.6s9,6.9,6.1,17.6s-24.4,48-24.4,48"/>
<path class="st2" d="M303.8,319.7c0,0,32.4-4.4,58.3,1.3s55.2,20.1,55.2,20.1s13,6.2,22.9,4"/>
<path class="st1" d="M302.4,306.5c0,0,22.3-3.3,39.1-2.6s50.1,10.2,58.2,13.8s22.4,9.5,22.4,9.5s14.7,7,21.3,3.2"/>
<path class="st1" d="M291.4,328.2c0,0,29.7-7.1,51.4-2.8s55.8,13.2,72.1,26s7.7,34.1,7.7,34.1l-13.1,27.6"/>
<path class="st1" d="M436.1,349.7c0,0-8.6-0.9-27.7-10.1s-55.2-17.5-55.2-17.5s-37.2-6.6-62.6,3.6"/>
<path class="st2" d="M41.5,450.4c0,0,1.5,21.6,26,25s85.4,2.4,107,12.4c22,10.2,51.9,14,84.8,12.9c31.7-1,155-6.3,167.2-25.4  s10-41.6,7.3-45.6s-24-21.1-44-22.8s-90.7-6-104-4.4s-58.9,10.5-73.1,11s-49.6,0.5-49.6,0.5"/>
<path class="st2" d="M65.6,414.2c0,0,25.7-8.5,68.1-1.7"/>
<path class="st2" d="M35.2,441.2c0,0-17.8,0.3-16.3-11.5s1.1-12.4,1.1-12.4"/>
<path class="st2" d="M32.7,311.8c0,0-6.3-43.3-15.4-74.3s-24.4-74.3-12.4-88S43.2,112.8,54,90.9s17.8-56.1,17.8-56.1  s6.5-26.3,28-31.6s57.3-1.9,68.4,3s21.9,14.5,22.1,15.4s20.3,75.5,30.2,86.8s37,33.2,37,33.2s20.3,20.7,20.1,34.1  s-4.8,48.1-1.7,77.6c1,9.1,16.2,69.2,14.7,81.6s-8.7,68.1-8.7,68.1"/>
<path class="st2" d="M49.3,386.8c0,0,5-34.2,4.3-43.4"/>
<path class="st2" d="M51.5,308c0,0-11.9-62.5-19.1-88s-20.7-64.8-7.3-82s35.7-41.5,41.5-58.8S87,12.9,96.8,7.4s49.4-8,76.5,1.4"/>
<path class="st2" d="M44,421.5c0,0,0.9-7.2,0.9-9.5"/>
<path class="st2" d="M43.8,106.6l5.2,1.6c0,0,11.5,27.3,27.4,66.5c3,16.5,25.5,137.7,25.5,137.7"/>
<path class="st2" d="M104.5,357.4c0,0-0.5,47.4-2.6,52.5"/>
<path class="st2" d="M230.3,118.2c0,0-1.3,22.3-7.1,58.6c5.3,34.7,20.1,104.7,23.1,120.4s6.9,80.1,2.6,111.3"/>
<line class="st1" x1="76.4" y1="174.7" x2="223.2" y2="176.8"/>
<path class="st2" d="M166.6,414c0,0,18,2.9,23.5,3s36.8-0.9,48.6,22.8s1.3,60.5,1.3,60.5"/>
<path class="st2" d="M154.6,433.5c0,0,44.4,23.4,88.7,21.4"/>
<path class="st2" d="M249.3,408.4c0,0,50.4,1.1,64.1,3.6s36.2-4.1,55.8,0c14.9,3.1,28.3,9.7,35.5,31.5s-11.1,45-11.1,45"/>
<path class="st1" d="M282.4,402.9c0,0,35.6,2.5,82.5,5.1c0,0,42.4-0.1,66.9,29.2"/>
<path class="st1" d="M161.2,418.4c0,0,14.7,3.7,34.3,10.2c19.8,6.5,27.7,25.6,27.7,25.6"/>
<path class="st2" d="M434.1,430.5c0,0,0,15.9-27.7,18"/>
<path class="st1" d="M73.4,412"/>
<path class="st1" d="M133.6,414.2"/>
<path class="st1" d="M190.1,417.1c0,0,115.3-3.7,123.3-5"/>
<path class="st2" d="M65.6,414.2c0,0,51.5,10.1,63.4,12"/>
<path class="st2" d="M145.9,107.7c0,0-21.3-0.4-38.3,11.7s-12,27.2-12,27.2s4.5,10.7,17.8,8s33.5-6.5,56-0.7s18.8-16.6,18.8-16.6  S183.4,110.9,145.9,107.7z"/>
<path class="st1" d="M143.4,115.2c0,0-19.7-0.2-34.4,13.2c-6.7,6.4-5,12.6-5,12.6s2.4,6.1,8.1,5.6s24.9-4.3,33.5-3.3  s25.2,2.8,28.7,4.1s9.5-3.9,3.8-14.5S163.5,116.5,143.4,115.2z"/>
<path class="st2" d="M47.6,426.2c0,0-0.5-1.2,3-4.6"/>
<path class="st1" d="M27.5,135c0,0,34.9,9.3,32.7,40.8s-2,64.8,0.1,81.3s11.6,50.5,11.6,50.5"/>
<path class="st1" d="M76.6,346.9c0,0,2.3,36.9-23.2,46.9"/>
<path class="st1" d="M253.7,138.5c0,0-14.9,19-10.5,38.3s17.4,51.5,18.4,72.8c0.7,14.3-7,99.7,23.8,126"/>
<path class="st1" d="M90.3,245.4c0,0,73.1-60.4,144.2-7"/>
<path class="st1" d="M93.3,266.4c-2.5,2.5,81-60.6,146.2-2.5"/>
<path class="st1" d="M101.9,312.4c0,0,76-58.6,146.6,4"/>
<path class="st1" d="M129.6,321.3c0,0,64.1-40.5,120.5,20.6"/>
</svg>