<svg xmlns="http://www.w3.org/2000/svg" viewBox="0 0 764.85 649.47"><defs><style>.cls-1{fill:#fff;}.cls-2,.cls-3,.cls-4{fill:none;stroke-miterlimit:10;}.cls-2{stroke:gray;stroke-width:3.2px;}.cls-3,.cls-4{stroke:#e30613;}.cls-3{stroke-width:2.09px;}.cls-4{stroke-width:2.07px;}.cls-5,.cls-6{fill:#e30613;}.cls-6{font-size:27px;font-family:Roboto-Light, Roboto;font-weight:300;}</style></defs><title>InfLat</title><g id="Camada_2" data-name="Camada 2"><g id="Camada_4" data-name="Camada 4"><polygon class="cls-1" points="661.89 588.56 662.5 594.35 667.72 598.13 677.11 600.93 687.3 600.07 692.4 595.24 693.59 590.36 692.76 586.57 695.78 585.5 697.75 572.28 694.53 567.59 687.38 557.2 638.65 556.4 549.59 555.7 501.96 554.78 498.76 551.98 488.99 550.62 459.06 545.84 461.45 334.17 508.75 333.86 506.27 335.65 503.12 337.44 504.18 341.25 513 342.7 520.54 340.19 520.91 339.12 518.78 337.62 513.99 335.22 514.88 333.83 521.38 334.17 521.38 325.72 518.12 321.49 461.45 319.35 464.12 83.12 529.09 74.31 551.75 57.6 586.24 54.89 590.31 71.24 595 73.22 627.79 68.36 633.07 68.58 642.74 67.09 644.18 63.13 642.29 59.49 628.91 62.59 593.95 66.53 591.54 50.46 652.6 46.18 655.66 42.9 754.22 29.04 760.88 27.43 763.24 12.38 760.88 10.54 735.59 5.16 612.41 5.16 427.58 5.16 425.35 1.6 225.31 1.6 171.49 6.28 174.05 24.96 182.18 34.55 198.59 33.6 189.1 38.16 190.93 54.89 204.07 58.91 210.3 68.83 205.3 70.1 204.07 71.55 204.58 75.74 207.2 75.28 212.12 82.94 209.57 91.02 219.39 112.09 222.17 117.87 245 134.79 299 134.37 308.73 125.24 309.39 122.37 315.06 114.78 304.65 110.37 302.58 114.08 300.04 114.17 299 111.78 300.41 109.13 283.65 101.9 269.54 70.66 276.23 81.54 306.23 88.27 340.82 88.24 344.73 83.91 361.29 90.25 365 90.41 372.48 319.81 360.05 326.81 314.95 333.46 310.37 342.7 312.68 349.63 320.29 352.43 331.85 349.63 336.06 347.26 396.29 344.66 397.36 561.36 394.7 561.36 393.51 567.78 368.54 580.15 280.42 595.62 275.85 601.42 268.8 625.3 269.16 635.05 272.29 638.95 276.53 638.78 275.23 641.31 281.26 646.45 292.05 647.65 304.29 643.96 308.95 640.19 308.95 636.76 442.11 628.05 447.12 619.49 459.06 615.02 460.53 611.72 485.47 607.25 489.01 600.1 630.18 591.02 661.89 588.56"/></g><g id="lateral"><polyline class="cls-2" points="459.06 546.46 500.32 552.19 505.13 561.36"/><polyline class="cls-2" points="393.52 92.47 399.71 586.11 437.52 567.78 459.06 559.76 464.12 83.12"/><path class="cls-2" d="M466.63,558.84v2.52l-24.52,9.17L398.56,593l-2.06-1.38-1.6-12.15V567.09l-26.36,13.06-88.12,15.47-4.57,5.8a4.54,4.54,0,0,0-.83,1.64L268.8,625.3a1.82,1.82,0,0,0-.06.46v7.44a4.21,4.21,0,0,0,1.07,2.81l1.56,1.75a3.55,3.55,0,0,0,2.88,1.18l167.86-10.89,5-7.79,11.91-5.5,1.23-1.45V611.7L485,607.42l3.36-6.26,18.87-29-2.06-10.77-38.5-2.52-4.66-5v-1.61h-2.68"/><path class="cls-2" d="M391.8,581.18l-11.69,6.54L276.37,608.8a2.08,2.08,0,0,0-1.52,1.28l-6.11,15.45"/><path class="cls-2" d="M493.56,576.37H445.77l-75.28,36.1-90.56,11.32a5,5,0,0,1-4.67-2l-1.71-2.4"/><path class="cls-2" d="M307.86,636.76c2.76,2.92,0,5.62-5.28,7.84h0a36.32,36.32,0,0,1-10.14,3l-.39,0a21.67,21.67,0,0,1-10.79-1.2h0c-2.79-1.06-7.71-5.22-6.08-7.57"/><polyline class="cls-2" points="506.18 573.68 695.69 570.87 697.75 572.28 695.69 586.11 488.32 601.16"/><polyline class="cls-2" points="501.96 555.32 687.09 556.78 697.75 572.28"/><path class="cls-2" d="M638.18,590.28l23.71-1.72h0c-2.66,5.43,3.22,7.93,6.86,10.19h0a11.25,11.25,0,0,0,4.15,1.53l6.3,1a14.06,14.06,0,0,0,8.81-1.53h0a10.65,10.65,0,0,0,5.58-9.36h0a3.15,3.15,0,0,0-2-2.94l-2.19-.85"/><path class="cls-2" d="M438.21,33.57l6.53-5.5h120L569.3,32l15.35,19s66.71-4.71,68-4.81c1.91-.16,11.06-15.93,11.06-15.93l-.75-3.44,1.49-1.49h71.05l25.4,2.73a0,0,0,1,1,0,.06L655.66,42.9"/><path class="cls-2" d="M267,31.17l14.14,19a3.72,3.72,0,0,0,1.64,1.23L391.11,92.7,526.44,75a13.12,13.12,0,0,0,6.37-2.69L551,57.91a1.41,1.41,0,0,1,.79-.31L584.36,55a2.45,2.45,0,0,0,1.63-.82l3.12-3.5"/><path class="cls-2" d="M591.54,50.46l2,15.19A1.51,1.51,0,0,0,595.2,67l33.22-4,1-.62a2.84,2.84,0,0,1,1.18-.45l11.15-1.69a1.34,1.34,0,0,1,1.19.42h0a4.94,4.94,0,0,1,.66,5.76h0a1.87,1.87,0,0,1-1.38,1L631.4,68.82a3.16,3.16,0,0,1-2.12-.46l-.28-.18-32.55,4.95A7.39,7.39,0,0,1,588,66.91L586.11,54"/><line class="cls-2" x1="663.66" y1="30.25" x2="571.36" y2="30.25"/><polyline class="cls-2" points="528.27 42.51 464.11 42.51 474.31 56.95 507.99 56.95"/><polyline class="cls-2" points="504.9 54.2 476.02 54.2 468.8 44.23 517.96 44.23"/><path class="cls-2" d="M439.36,64.38l3.89-1.28A2.64,2.64,0,0,0,444.51,59l-9.59-12.35a6.24,6.24,0,0,0-4.91-2.4H349.52A1.72,1.72,0,0,0,347.8,46v2.39a2.13,2.13,0,0,0,2.12,2.13l75.44.51a2.7,2.7,0,0,1,2.29,1.29l6.2,10.09A4.74,4.74,0,0,0,439.36,64.38Z"/><path class="cls-2" d="M389.88,74.76,354.68,54.2l68.26.67a4.29,4.29,0,0,1,3.48,1.81l5.8,8.17a.61.61,0,0,1-.33.93l-34.31,9.93A9.83,9.83,0,0,1,389.88,74.76Z"/><polyline class="cls-2" points="426.18 60.04 397.3 66.92 381.83 56.95"/><path class="cls-2" d="M225.31,2.41l4.12,19.71h23A58.08,58.08,0,0,1,265,23.48l20.85,4.59H441.19l2.18-1.83L424.92,1.6Z"/><path class="cls-2" d="M427.58,5.16H730.09a64,64,0,0,1,14.2,1.59l17.87,4.08a1.4,1.4,0,0,1,1.08,1.55l-2.12,15.69"/><polygon class="cls-2" points="225.31 50.99 225.31 44.23 198.26 33.46 189.1 38.16 190.93 54.89 201.57 53.68 225.31 50.99"/><line class="cls-2" x1="190.93" y1="54.89" x2="204.58" y2="58.91"/><path class="cls-2" d="M225.31,49l49.35-.61,2.75.61v3.06l-40.49,11L262.74,108l23.07,9.17-2,4.43,3.21,3.66,4.13-6,7.33,2.91,3.36-4,3.36.91,2.91-3.67,3.2,1.84,2.45-2.14L304,110.73l-1.41,3.09a2.18,2.18,0,0,1-3.68-1.73l1.42-3.35L283.52,102l-14-31.47,27.38-7.13a1.07,1.07,0,0,0,.81-1V60.77L265.8,60"/><line class="cls-2" x1="270.18" y1="35.41" x2="253.88" y2="34.64"/><path class="cls-2" d="M287,31.17l-102.2,3.38a5.87,5.87,0,0,1-4.64-2l-5.33-6.16A4.56,4.56,0,0,1,173.8,24L171.49,6.28l53.82-3.87"/><polyline class="cls-2" points="253.42 79.56 248.07 67.8 238.35 65.54"/><path class="cls-2" d="M306.44,110.73l9.77,4.12L309.64,122l-.34,1.54a8.83,8.83,0,0,1-3.36,5.15l-7.56,5.58a2.43,2.43,0,0,1-1.47.49h-50a6,6,0,0,1-3.47-1.11L224.24,119.9a9.44,9.44,0,0,1-3.18-4L213.39,98.2l4.58-16-16.4-28.48"/><polyline class="cls-2" points="213.39 98.2 209.57 91.02 212.63 83.69 206.92 75.33"/><path class="cls-2" d="M213.39,74.2l-8.81,1.54L204.11,73a3,3,0,0,1,.5-2.16l0-.05a2.59,2.59,0,0,1,1.56-1l4.09-.87"/><line class="cls-2" x1="361.86" y1="81.54" x2="364.65" y2="90.41"/><line class="cls-2" x1="282.88" y1="67.08" x2="317.19" y2="66.92"/><path class="cls-2" d="M274.05,80.7l29.45,7.15a13.61,13.61,0,0,0,3.48.39l31.88-.55a4.34,4.34,0,0,0,2.75-1.06l3.12-2.72"/><polyline class="cls-2" points="397.42 565.03 397.36 561.36 389.62 92.13"/><path class="cls-2" d="M392.41,345l-80.17,3-1.17-1.86a4.58,4.58,0,0,1-.7-2.44h0A6.26,6.26,0,0,1,311,341l1.25-2.59"/><polyline class="cls-2" points="372.48 321.17 371.55 321.62 370.87 321.93 370.87 323.11 364.07 327.03 313.83 335.48"/><line class="cls-2" x1="363.16" y1="328.86" x2="314.58" y2="338.33"/><path class="cls-2" d="M393.35,318.78l-34.74,16a3.56,3.56,0,0,1-1.28.33L314,338.37h-1.76l2.71-4.91a1.84,1.84,0,0,1,1.4-.95l45.81-5.84"/><path class="cls-2" d="M393.28,314l-20.27,10-.53.47v-4.58l-7.83-229.4h-3.24a6,6,0,0,1-2.29-.46L321.63,74.62a5.81,5.81,0,0,1-3.41-3.88l-1-3.82-1-2.8"/><line class="cls-2" x1="370.87" y1="321.17" x2="359.59" y2="327.05"/><polyline class="cls-2" points="372.48 318.78 370.87 318.78 370.87 321.17"/><line class="cls-2" x1="393.28" y1="316.83" x2="376.22" y2="325.08"/><line class="cls-2" x1="392.41" y1="315.8" x2="373.81" y2="325.08"/><line class="cls-2" x1="443.37" y1="85.85" x2="437.52" y2="567.78"/><path class="cls-2" d="M461.46,334.17l59.63-.38.29-6.89a.62.62,0,0,0-.58-.63l-59.34-3"/><path class="cls-2" d="M462,319.35,518,322.08a1.08,1.08,0,0,1,.85.47l2.5,4"/><path class="cls-2" d="M514.6,334.17l.38.18a1.42,1.42,0,0,1,.78.94h0a1.31,1.31,0,0,1-.52,1.38l-.29.2a3.21,3.21,0,0,1-2.13.56l-1.19-.11a4.41,4.41,0,0,1-2-.67l-.33-.21a1.23,1.23,0,0,1-.54-.79h0a1.09,1.09,0,0,1,.37-1.06h0a3.4,3.4,0,0,1,1.11-.63l.3-.1v1.19l.63.48A2.31,2.31,0,0,0,513,336l1-.18v-1.61"/><polyline class="cls-2" points="506.27 338.37 508.03 337.53 508.77 335.22"/><polyline class="cls-2" points="518.12 339.14 515.98 338.37 515.79 335.65"/><path class="cls-2" d="M508.24,336.69l-2.67.43c-2.89.53-2.81,3.47,1,4.35a16.38,16.38,0,0,0,4.08,1.08,14.09,14.09,0,0,0,4.49-.06,13,13,0,0,0,5.38-2.3,1,1,0,0,0,.37-1.07,1.51,1.51,0,0,0-.92-1l-1.21-.47-.42-.16-2.38-.77"/><line class="cls-2" x1="662.91" y1="26.81" x2="443.37" y2="26.24"/><path class="cls-2" d="M331.19,347.26c1.94.72-.89,2.56-1.9,3.06h0a14.27,14.27,0,0,1-3.47,1.2l-.28.06a22.54,22.54,0,0,1-4.33.43H320a13.56,13.56,0,0,1-3-.34l-1.41-.31a4.07,4.07,0,0,1-1.66-.8h0c-1.43-.78-1.49-1.92-.47-2.58"/><polyline class="cls-2" points="393.51 567.78 394.7 561.36 397.32 559.17"/></g><g id="Camada_3" data-name="Camada 3"><line class="cls-3" x1="16.94" y1="647.53" x2="180.32" y2="647.53"/><line class="cls-4" x1="17.19" y1="1.26" x2="175.82" y2="1.26"/><line class="cls-4" x1="26.73" y1="287.19" x2="26.73" y2="5.44"/><line class="cls-4" x1="26.73" y1="641.9" x2="26.73" y2="315.8"/><polygon class="cls-5" points="26.73 2.35 36.26 18.87 17.19 18.87 26.73 2.35"/><polygon class="cls-5" points="26.73 647.53 17.19 631.01 36.26 631.01 26.73 647.53"/><text class="cls-6" transform="translate(0 314.23)">77 cm</text></g></g></svg>