<svg xmlns="http://www.w3.org/2000/svg" viewBox="0 0 365.71 632.28"><defs><style>.cls-1,.cls-3,.cls-4{fill:none;}.cls-1,.cls-2{stroke:#010101;}.cls-1,.cls-2,.cls-3,.cls-4,.cls-5{stroke-miterlimit:10;}.cls-2,.cls-5{fill:#fff;}.cls-3,.cls-4,.cls-5{stroke:#1d1d1b;}.cls-3{stroke-width:0.75px;}</style></defs><title>Diagonal</title><g id="Camada_2" data-name="Camada 2"><g id="Camada_1-2" data-name="Camada 1"><path class="cls-1" d="M289.12,422.82s-23.5,5.6-24.95,7.06-2.33,1.67-1.17,3.13"/><path class="cls-2" d="M257.4,422.9l-.8,7.56a6.69,6.69,0,0,1-1.68,2.33c-1.16,1-20.95,10.84-20.95,10.84l-1.74,4.5-10,3.21.95,3.34s-.15,1.46-7.71,4.3l.79,28.37-3.93,3.2s-6.39,2.32-16.36,1.53l-5.16-3.3-2.12-22.85-2.4-.43-.65-2.47-1.82,3.8s-16.07,4.8-26.25-1l-3.28-16.65-7.42.94s0,9.24-11.93,13.39l-5.53,1.23s-.94.73-4.8-1-14.47-9.47-14.47-9.47-4.08.15-3.64-7.2a4.2,4.2,0,0,1,2.69-3.63l67.58-10.55,3.06-7.13"/><path class="cls-2" d="M187,500.19l41.78-5.84a4.3,4.3,0,0,1,2.19-1.58c1.2-.22,16.21-2.19,16.21-2.19h5.34a3.52,3.52,0,0,1,2.13,2l1.09,1.9,1.36,2.73.71,11.19s-3.54,1.58-11,1c0,0-4.58-.49-5.45-1.86l-20.13,5.67,59.24,13,1.26-.77,36.06,8,.39,1.2a3,3,0,0,1,2.34,1.8l1,16.53-6.65,2-8.67-1.31a5.23,5.23,0,0,1-3.38-2.51v-4.09l-101.65-16s-16.91-1.58-19.32,4.2l-3.23,49.38-9.28,1.8-10.64-2,.65-49.44s1-5.61-17.68-4.74L38.11,543.77v3.49s.11,2-3.38,3a57.59,57.59,0,0,1-9.06,1.26l-6.44-2.4L20.49,534a3.17,3.17,0,0,1,2.29-3l.93-1.31,36.66-7,.93,1,60.54-11.73-18.62-6s-1.41,2.29-10.91,1.58c0,0-4.9-.49-5.61-1.58l.76-10.47,3.39-6.66a4.58,4.58,0,0,1,3.59-1l17.36,2.62a11.51,11.51,0,0,1,4.41,2.23l39.12,7"/><path class="cls-2" d="M177.18,468.48a11.55,11.55,0,0,1,6.55,1.7l.33,4.14a2,2,0,0,1,.92,1l.17,2.89a3.42,3.42,0,0,1,1.2,1.19l.6,24.07c1,1.47.54,2.29.54,2.29-2.84,4-15.71,4-15.71,4-15.6-.11-16.75-3.93-16.91-5.07a1.48,1.48,0,0,1,.82-1.58v-3.17s.49-19.48.54-20.4,1.2-1.15,1.2-1.15l.33-3.22c0-.55,1-.65,1-.65l.33-4.1c.38-1.14,5.29-1.91,5.29-1.91v1.09a25.31,25.31,0,0,0,12.82,0Z"/><path class="cls-1" d="M158.14,475.13s15,6.29,26.29,0"/><path class="cls-1" d="M156.87,478.9s.87,4.74,15.38,4.52,13.57-4.87,13.57-4.87"/><path class="cls-1" d="M88.88,493.09s-.14.87.48,1.06,15.42,3.67,15.42,3.67a2,2,0,0,0,1.46-.47,41.43,41.43,0,0,0,2.14-3.93s.88-1.67,2-1.31l5.49.58"/><path class="cls-1" d="M228.92,494.48a5.65,5.65,0,0,0,2-.22c1.05-.33,3.49-1.14,4.76.44a6.81,6.81,0,0,1,1.43,3.09,1.92,1.92,0,0,0,2,1.87h.26c2.07-.32,15.82-2.72,15.82-2.72s1-.4.87-1.31"/><path class="cls-1" d="M318.38,534.94s-1.92,0-3.5,3.76a2.84,2.84,0,0,1-3,1.8l-34.15-7.09s-1.52,0-1.31-1.86c0,0,.39-2.4,1.09-2.72a21.72,21.72,0,0,0,2.84-2.4"/><path class="cls-1" d="M161,568.6l3.66-2.35a2.72,2.72,0,0,1,2.18-.59c1.53.1,3.71.1,3.71.1a4,4,0,0,1,2.72.77l3.66,2.62,1.48-15.93-.39-1.59s-1.58-2.84-4.25-3.38l-7-.22a5.65,5.65,0,0,0-3.43,1.26,20.23,20.23,0,0,0-2.47,2.34l-.15,17.3Z"/><path class="cls-1" d="M22.78,531s2.07.92,3.5,4.41A2.93,2.93,0,0,0,29.82,537c2.72-.54,33.71-5.45,33.71-5.45s1.31-.49,1.15-1.58l-.38-2.79-2-2.4-1.26-1.14"/><polyline class="cls-1" points="21.09 531.88 26.55 538.43 25.94 551.45"/><path class="cls-1" d="M26.87,538.43,137.55,521s15.27-2.18,22.69,3.79l-1,46.56"/><line class="cls-1" x1="175.7" y1="509.54" x2="174.04" y2="548.16"/><line class="cls-1" x1="166.1" y1="509.54" x2="166.1" y2="547.95"/><polyline class="cls-1" points="319.96 535.65 313.96 542.96 314.18 554.53"/><path class="cls-1" d="M313.41,543,200.58,521.14s-15.71-3.17-19.42,3.49l-3.71,44.52"/><line class="cls-1" x1="276.4" y1="528.85" x2="184.87" y2="507.83"/><line class="cls-1" x1="221.16" y1="513.22" x2="187.17" y2="505.42"/><line class="cls-1" x1="187.17" y1="503.35" x2="235.95" y2="495.05"/><line class="cls-1" x1="202.66" y1="508.75" x2="256.23" y2="497.4"/><path class="cls-1" d="M241.51,507.55l10-2.87s1.75-.7,2.51.39"/><line class="cls-1" x1="121.8" y1="511.72" x2="154.47" y2="505.09"/><line class="cls-1" x1="138.39" y1="508.01" x2="87.84" y2="495.35"/><path class="cls-1" d="M103,505.9l-10.32-3.43s-2-.57-2.55.15"/><polyline class="cls-1" points="162.61 585.52 162.61 592.12 163.43 592.88 163.65 622.23 173.69 622.23 173.69 592.55 174.78 592 174.88 585.52"/><path class="cls-1" d="M162.78,586.33s6.66,3.82,11.89,0"/><path class="cls-1" d="M174.78,592l5.4.11s2.07-.11,2.07,1.69.11,36.23.11,36.23-.11,1.58-1,1.58l-6.44,0s-1.53-1-1.42-4.85a27.54,27.54,0,0,0,0-4.26"/><path class="cls-1" d="M162.61,592.12h-5.78s-1.86-.39-1.86,2-.1,36.06-.1,36.06,0,1.64,2,1.64h5.73a1.31,1.31,0,0,0,1-.77c.22-.65.05-8.78.05-8.78"/><path class="cls-1" d="M301,581.55s-2.91-11.42,6.41-16.88,19.86,2.55,22.11,7.06,8.1,17.09-3.71,23.86S301.92,588.1,301,581.55Z"/><path class="cls-1" d="M306.16,553.87s.43,2.12,5.13,2.29,5.56,0,6.21-1.8"/><line class="cls-1" x1="306.16" y1="554.41" x2="306.16" y2="565.88"/><path class="cls-1" d="M317.85,554.44v4.84s-8.59.55-11.46,5.75"/><path class="cls-1" d="M318,557.69a11.54,11.54,0,0,1,8.51-.33c4.91,1.6,9.09,3.78,12.87,12a16.19,16.19,0,0,1-.76,15.06,26.34,26.34,0,0,1-8.8,7.86"/><path class="cls-1" d="M309.43,561.78s11.46-3.71,19.1,4.2,6.55,14.79,6.55,14.79,0,6.06-3.61,10.36"/><path class="cls-1" d="M318.16,558.56s8.4-1.14,14.35,5.13a22.09,22.09,0,0,1,6.16,13.25,16.74,16.74,0,0,1-5.73,13"/><line class="cls-1" x1="334.64" y1="584.58" x2="337.58" y2="582.84"/><path class="cls-1" d="M303.84,580s-1.18-11.35,9-12.85,14.89,9.76,14.89,9.76,4.64,12.9-6.23,16.21C309.87,596.7,303.94,583.69,303.84,580Z"/><path class="cls-1" d="M310,579.48a7.7,7.7,0,0,0,6.11,7.27c6.22,1.57,5.38-7.2,5.38-7.2s-1.41-5.06-6.43-5.24S310,579.48,310,579.48Z"/><path class="cls-1" d="M313.2,574.52s1.3-1.09,2-1,4.08-.75,6.51,3.09c3.17,5-1.82,9.61-1.82,9.61"/><polyline class="cls-1" points="306.46 571.02 307.46 571.4 312.05 574.51 312.82 574.05 310.03 569.8 308.25 568.85"/><path class="cls-1" d="M310,568l1.07.82,2.44,3.78s1.14.27,1.21-.54h0l-.87-3.49-.87-1.24"/><path class="cls-1" d="M314.56,567l.66,1.15.87,3.86s.76.87,1.29.21l.61-3.44-.25-1.16"/><path class="cls-1" d="M319.45,568.21l.07.88-.58,3.76s.58.78,1.09.64l1.75-2.79.31-.94"/><path class="cls-1" d="M323.36,571l-.2.87-1.75,2.43s0,1.17,1.08,1.14l2.92-2"/><path class="cls-1" d="M326.52,575.2l-3,1.6s-.87,1.37.47,1.55l3.92-.94"/><path class="cls-1" d="M328.27,580l-3.67-.2s-1.62.59-.28,1.51l4.37,1.75"/><path class="cls-1" d="M327.56,587.92l-1.06-1.37-3.14-2.68s-.67-1.47.62-1.23,4.37,2.46,4.37,2.46"/><path class="cls-1" d="M324.05,592l-.09-1.64a3.41,3.41,0,0,0-.55-1.56c-.47-.64-1.52-2.28-1.52-2.28s-.62-2.09,1.3-1.24l2.54,3,.81,1.51"/><path class="cls-1" d="M319.48,593.46l.48-1.6a4,4,0,0,0-.09-2.11l-.64-2.25s.32-1.41,1.48-.53l1.21,2.34a4.36,4.36,0,0,1,.59,1.6l.1,1.57"/><path class="cls-1" d="M314.67,593.19l.87-1.26a3.15,3.15,0,0,0,.54-1.81l.45-3"/><polyline class="cls-1" points="317.69 587.13 318.63 590.95 317.89 593.48"/><polyline class="cls-1" points="310.01 590.71 311.23 589.7 313.52 586.06"/><polyline class="cls-1" points="314.97 586.69 314.23 590.81 312.34 592.28"/><polyline class="cls-1" points="306.7 586.81 308.1 585.59 311.11 583.73"/><polyline class="cls-1" points="312.35 585.13 310.3 587.99 309.21 589.6"/><path class="cls-1" d="M305.79,585.11l1.11-.8a8,8,0,0,1,1.47-.78,13.12,13.12,0,0,0,2-1.09"/><polyline class="cls-1" points="310.01 580.99 307.52 581.19 304.63 582.08"/><polyline class="cls-1" points="304.02 580.1 306.7 579.48 309.68 579.39"/><polyline class="cls-1" points="310.01 578.18 305.94 576.91 304.1 576.82"/><polyline class="cls-1" points="304.39 574.93 306.32 575.16 310.34 576.6"/><polyline class="cls-1" points="310.9 575.6 307.63 573 305.61 572.53"/><path class="cls-1" d="M40.43,578.35s2.92-11.43-6.39-16.88-19.86,2.62-22.12,7.06-8.1,17.08,3.71,23.86S39.49,584.9,40.43,578.35Z"/><path class="cls-1" d="M35.26,550.67s-.44,2.13-5.13,2.29-5.57-.06-6.22-1.8"/><line class="cls-1" x1="35.26" y1="551.21" x2="35.26" y2="562.67"/><path class="cls-1" d="M23.56,551.21v4.84s8.58.55,11.46,5.75"/><path class="cls-1" d="M23.38,554.48a11.54,11.54,0,0,0-8.51-.32c-4.91,1.6-9.13,3.77-12.88,12a16.25,16.25,0,0,0,.77,15.06,26.14,26.14,0,0,0,8.81,7.85"/><path class="cls-1" d="M32,558.61s-11.4-3.74-19.09,4.17-6.55,14.78-6.55,14.78,0,6.06,3.6,10.37"/><path class="cls-1" d="M23.26,555.36s-8.41-1.15-14.36,5.13a22.14,22.14,0,0,0-6.16,13.26,16.77,16.77,0,0,0,5.73,13"/><line class="cls-1" x1="6.77" y1="581.39" x2="3.83" y2="579.64"/><path class="cls-1" d="M37.56,576.82s1.19-11.35-9-12.84-14.89,9.77-14.89,9.77S9.06,586.63,19.92,590C31.55,593.53,37.48,580.49,37.56,576.82Z"/><path class="cls-1" d="M31.45,576.26a7.65,7.65,0,0,1-6.11,7.27c-6.21,1.58-5.38-7.2-5.38-7.2s1.42-5.05,6.44-5.23S31.45,576.26,31.45,576.26Z"/><path class="cls-1" d="M28.21,571.29s-1.31-1.09-2-1-4.08-.75-6.5,3.09c-3.17,5,1.81,9.61,1.81,9.61"/><polyline class="cls-1" points="34.94 567.81 33.95 568.2 29.37 571.3 28.6 570.85 31.38 566.6 33.16 565.66"/><path class="cls-1" d="M31.38,564.72l-1.07.82-2.44,3.78s-1.15.27-1.21-.54h0l.87-3.49.88-1.24"/><path class="cls-1" d="M26.85,563.78l-.65,1.13-.88,3.86s-.76.88-1.29.22l-.62-3.39.26-1.17"/><path class="cls-1" d="M22,565l-.07.87.58,3.76s-.58.78-1.09.64l-1.75-2.79-.3-.94"/><path class="cls-1" d="M18.05,567.86l.2.87L20,571.17s0,1.16-1.07,1.13l-2.94-2"/><path class="cls-1" d="M14.88,572,18,573.64s.87,1.37-.48,1.55l-3.89-1"/><path class="cls-1" d="M13.14,576.76l3.67-.2s1.63.58.27,1.51l-4.36,1.75"/><path class="cls-1" d="M13.85,584.71l1.05-1.39,3.15-2.69s.68-1.48-.62-1.23-4.36,2.45-4.36,2.45"/><path class="cls-1" d="M17.36,588.76l.09-1.63a3.37,3.37,0,0,1,.55-1.56c.47-.64,1.53-2.28,1.53-2.28s.62-2.09-1.3-1.24l-2.54,3-.82,1.48"/><path class="cls-1" d="M21.93,590.23l-.49-1.57a3.88,3.88,0,0,1,.1-2.11l.63-2.26s-.33-1.4-1.47-.53l-1.22,2.35a4.21,4.21,0,0,0-.58,1.61l-.07,1.56"/><path class="cls-1" d="M26.75,590l-.88-1.26a3.27,3.27,0,0,1-.55-1.82l-.38-3"/><polyline class="cls-1" points="23.73 583.93 22.78 587.75 23.53 590.27"/><polyline class="cls-1" points="31.4 587.51 30.18 586.49 27.89 582.85"/><polyline class="cls-1" points="26.43 583.48 27.18 587.6 29.07 589.08"/><polyline class="cls-1" points="34.71 583.6 33.31 582.38 30.31 580.53"/><polyline class="cls-1" points="29.05 581.93 31.11 584.78 32.2 586.41"/><path class="cls-1" d="M35.62,581.91l-1.08-.8a6.84,6.84,0,0,0-1.46-.78,12.58,12.58,0,0,1-2-1.09"/><polyline class="cls-1" points="31.4 577.78 33.89 577.98 36.79 578.87"/><polyline class="cls-1" points="37.38 576.89 34.71 576.27 31.72 576.18"/><polyline class="cls-1" points="31.4 574.98 35.48 573.71 37.31 573.62"/><polyline class="cls-1" points="37.02 571.72 35.09 571.96 31.07 573.4"/><polyline class="cls-1" points="30.51 572.4 33.78 569.8 35.8 569.32"/><polyline class="cls-1" points="182.47 604.44 183.24 604.44 183.24 618.79 182.58 618.79"/><polyline class="cls-1" points="154.59 604.76 153.83 604.76 153.83 619.11 154.48 619.11"/><path class="cls-1" d="M244.05,509.24s-.06,2,5,2.08,4.58-1.81,4.58-1.81"/><line class="cls-1" x1="243.96" y1="509.46" x2="243.96" y2="517.97"/><path class="cls-1" d="M254.05,509.57l.17,5.18a18.42,18.42,0,0,0-4.71,4.69"/><path class="cls-1" d="M243.85,512.54a11.39,11.39,0,0,0-3.71,4.58"/><path class="cls-1" d="M254.22,510.16l13.86,5.14s4.14,2,5.12,9.16"/><path class="cls-1" d="M254.22,514.75s3.73-2.46,7.39-1.88"/><path class="cls-1" d="M257.66,521s2.34-3.49,6.11-3.25a7.85,7.85,0,0,1,7.08,6.11"/><line class="cls-1" x1="259.62" y1="519.3" x2="259.84" y2="521.43"/><polyline class="cls-1" points="261.39 518.34 260.93 519.52 261.06 521.73"/><polyline class="cls-1" points="263.46 517.97 262.65 519.03 261.83 521.87"/><polyline class="cls-1" points="265.07 518.16 264.01 519.39 263.22 522.12"/><polyline class="cls-1" points="263.8 522.32 265.16 520.17 266.82 518.86"/><polyline class="cls-1" points="268.22 519.75 266.37 520.99 265.21 522.59"/><polyline class="cls-1" points="266.36 523.1 267.98 521.83 269.64 521.43"/><polyline class="cls-1" points="268.38 523.44 269.11 523 270.41 522.92"/><path class="cls-1" d="M242.74,537.66s2.4,2.73,7.35,2.62"/><path class="cls-1" d="M246,538.12s.47,1.64,4,2.26a16.22,16.22,0,0,0,8.62,3.74c5.31.62,7.75-2.62,7.75-2.62"/><path class="cls-1" d="M251.51,539.17s1.45,2.86,6.87,5"/><path class="cls-1" d="M249.07,538.6a7.56,7.56,0,0,0,.88,1.75"/><path class="cls-1" d="M92.37,517.63c.14-2.25-1.59-6.11-1.59-6.11l.22-3.93s.43,2.07,5.38,1.82,4-2.18,4-2.18l.37,5.67a8.25,8.25,0,0,1-.55,3.22"/><path class="cls-1" d="M90.71,509.1l-8,.76s-3.56,1.13-3.31,10"/><path class="cls-1" d="M86.6,518.59s0-7.05-3.9-8.73"/><path class="cls-1" d="M100.78,508l1.38-.15s3.49.88,4.18,6.92"/><path class="cls-1" d="M90.78,511.47a8.83,8.83,0,0,0-2.47-2"/><path class="cls-1" d="M85,518.88s-.13-4.25-2.7-5.71-2.62,6.66-2.62,6.66"/><path class="cls-1" d="M80.63,514.53l1.85.87A3.19,3.19,0,0,1,83.56,517c.2,1,.38,2,.38,2"/><path class="cls-1" d="M79.93,517.53a4.22,4.22,0,0,1,2.75,1l.29.73"/><path class="cls-1" d="M82.85,538s.94,1.93,2.29,2.18,5.92-.47,5.92-.47a8.9,8.9,0,0,0,1.65-2.9"/><path class="cls-1" d="M87.79,537.31a3.55,3.55,0,0,1-2.49,2.91"/><path class="cls-1" d="M97.22,536.16a3.87,3.87,0,0,0,2.62,2.62l5.17-.42s2.47-1.64,2.33-3.35"/><path class="cls-1" d="M102.31,535.51s-.37,2.68-2.4,3.34"/><path class="cls-1" d="M171.78,420.75s6.54-.22,10.37,8.29,9.42,10.48,9.42,10.48a10,10,0,0,0,8.72-1.57l4.44-14.84"/><path class="cls-1" d="M154.25,449.16l27.82-3s7.64-8.62-2.45-13.53"/><path class="cls-1" d="M157.13,463.83a7.37,7.37,0,0,0,2.76-4c.54-2.51,25.85-14.84,25.85-14.84s5.68-3.16,8.08-3.16,13.86-2.73,13.86-2.73L256,431.6"/><polyline class="cls-1" points="233.43 443.61 201.29 448.95 177.67 459.32 179.9 463.14 185.69 462.21"/><line class="cls-1" x1="201.62" y1="448.79" x2="207.85" y2="439.35"/><path class="cls-1" d="M187,465.4l11.48-4.12,10.29-3.74s7.86-2.12,10-2.34,3.22-.33,3.44.11"/><path class="cls-1" d="M198.73,461.5s14.14-.27,16.64-2.24"/><polyline class="cls-1" points="179.47 462.1 202.01 451.96 232.44 447.04"/><path class="cls-1" d="M257.4,423.12s15.42-2.33,26.26-2.62c0,0,3.56-.44,4.73,1,0,0,7.12,8.29,7.86,15.21,0,0,1.09,2.76-1.09,4.21s-19.07,0-31.73-7.71l-11.7,1.63"/><path class="cls-1" d="M109.44,443.58,125.29,461s1.31,1.88,5.24,1.23,11.5-3.28,14.19-6.4"/><path class="cls-1" d="M111.91,445.81s29.46-.51,33.46.8c0,0,1.89.14,1.89.8a22.47,22.47,0,0,1-.43,2.69"/><path class="cls-1" d="M159.14,470.21s12.78,4.92,24.53,0"/><path class="cls-1" d="M159.14,470.25s14,5,24.6,0"/><path class="cls-2" d="M134.49,1.77S95.79-5,86,12.78,80.66,46.59,73.1,58.6c0,0-1.56,6.9-21.8,19.35s-28,24-24,50.94,6.45,145.92,6.45,145.92l10.68,82,12.84-4.5,11.85,3.17,57.55-8.51,93.76-1.84s19.35-11.17,28.86-28.19,14.68-31.36,8.17-49.21-25-50.05-27.52-65.23,2.77-28.47,9.67-45.21c5.94-14.42,14.35-38,4.67-49.38-3.73-4.38-5.54-7.52-20.22-16.28-16.53-9.86-33.5-10.91-39.5-34.43s-8.51-39-16.68-45.88S134.49,1.77,134.49,1.77Z"/><path class="cls-2" d="M39.3,86.61C30.88,93,22.39,106,31.89,130.22s12.68,51.55,18.36,69.4S60.92,283.2,60.92,283.2H81.44S78.61,267,75.77,242.5s-19-69.07-25.69-93.26S34.56,93.36,44.41,85.68s31-21,33-24.85,7.17-28.36,12.18-42.71S103.14,2,103.14,2l-4.93,1.4C93,5.23,88.53,8.18,86,12.78,76.21,30.57,80.66,46.59,73.1,58.6c0,0-1.56,6.9-21.8,19.35C51.3,78,47.72,80.23,39.3,86.61Z"/><path class="cls-2" d="M71.1,397.48l57.39,27.36s4.17,7.5,11.51,8.34,9.51-1.67,14.51-1S237.42,427,237.42,427s70.9-6.84,78.58-7a87.88,87.88,0,0,1,10.51.17s19.35-18,22.18-38.37-3.5-36.79-21.93-54.72c0,0-11.26-9.18-28.78-3.34s-17.46,19.58-27.14,20.91-50.43.44-50.43.44l-93.76,1.84a56.58,56.58,0,0,0-15.85-14.07c-10.23-6.12-24-5.34-32.36,5.12,0,0-5.34,12.56-7.34,15s-13.85-.72-13.85-.72l-12.84,4.5-8,20Z"/><path class="cls-2" d="M320.67,420s2.5-.79,4.17-5,5.5-9.34,8.67-12.84,13.18-27.36,2.84-43.21S310.6,341,270.84,344.65"/><path class="cls-2" d="M328.41,350.27s-2.7-18.36-27.24-27.45"/><path class="cls-2" d="M151.39,420.32s.12-37.52-4.22-47.7-20.52-25.69-20.52-25.69c12.56,11.94,13.85,24.19,15,27.53s4.23,32.69,5.78,39.15,3.56,4.66,6.23,10-3.1,8.65-3.1,8.65"/><path class="cls-2" d="M140,433.18a48.92,48.92,0,0,1-4.34-12.51c-1.5-7.34-4.72-35.67-21.73-60.86C99.52,338.48,90.45,331.69,78.44,338"/><path class="cls-1" d="M244.26,107.87s5.67,14.85-8.84,40.87-17,52.55-11.51,71.9S247.1,277,241.76,290.71s-12.34,17.35-12.34,17.35,2.25,22.77-.67,28.49c-.88,1.72-8.34,8.54-8.34,8.54"/><polyline class="cls-3" points="188.83 67.93 188.83 84.68 173.7 131.39 206.79 162.57"/><polyline class="cls-3" points="72.1 155.08 103.14 127.22 87.78 77.67 77.44 60.83"/><path class="cls-3" d="M173.7,131.39s-33.35,12.68-70.56-4.17"/><path class="cls-3" d="M101,120.42s46.25,6.73,75,3.84"/><path class="cls-3" d="M179.55,113.32S126.74,114,97.17,108"/><path class="cls-3" d="M183.47,101.23s-75.72.21-90.38-6.42"/><path class="cls-3" d="M85.54,284.64l-7.6-55.89s8.73-32-8.84-84.18c-17.3-51.33,18.68-66.9,18.68-66.9"/><path class="cls-3" d="M188.83,84.68s31.63,16.48,31.58,46.92c0,0,2.17,4.37-21.19,44.22,0,0-14,28.47-9.68,48.49"/><path class="cls-4" d="M229.42,308.06s-3.06-64.51-19.75-81.58c0,0-5.78-4.72-38.48,0,0,0-65.6.84-68,0s-21.62-6-24.08-3.79c-4.29,3.79,8.72,81.69,8.72,97.49,0,19.41,8.62-3.95,36.54,24.91,3.72,3.85,94.25,0,94.25,0s9.76-4.09,11.22-12.5S229.42,308.06,229.42,308.06Z"/><polygon class="cls-5" points="78.5 39.48 83.42 39.48 95.45 39.48 95.53 48.62 77.43 46.48 78.5 39.48"/><path class="cls-5" d="M185.11,59.21s-.9-14.68,1-20.61c2.05-6.26,5.21-15.31-1-19.15S166.19,23,151.84,23.62s-44-15.18-46.71-15.51S92.12,5.77,96,27.29l-.5,12.19s-.09,28.19,1.71,30.85,6.46,6.68,23.14-1,41.37.67,45.88,3.17,16.06,11,19.35,8S190.35,71.6,185.11,59.21Z"/><path class="cls-3" d="M79.88,214.3s24.14-9.78,61.06-8.67,47.77,7.57,47.77,7.57"/><polyline class="cls-3" points="79.88 215.47 89.95 215.47 93.92 210.15 103.72 208.16 107.63 214.3 114.97 214.3 118.64 207.46 127.99 207.46 132.16 214.3 139.16 214.3 143.3 207.46 151.34 207.46 155.51 214.3 162.02 214.3 166.02 208.63 174.6 208.95 178.58 215.47 188.71 215.31"/><polyline class="cls-3" points="188.21 218.47 179.34 218.47 176.2 225.72 165.57 225.78 161.66 219.65 154.32 219.65 150.65 226.48 141.3 226.48 137.13 219.65 130.13 219.65 125.99 226.48 117.95 226.48 113.78 219.65 107.27 219.65 103.27 225.31 94.25 224.28 90.7 218.47 79.88 218.47"/><path class="cls-5" d="M300,321.8l1.19-17.41-9.7-9,1-1.5-6.33-5.36-8.51-1.11v-6.9s1-1.83,8.17-2.17,35.7.34,45.54,1.67,26,5.51,26,5.51l7.84,5.67v4.84a167.33,167.33,0,0,1-20,1.17c-9.34-.17-9.45-.45-11.68.5s-12.95,8.39-12.95,8.39l-.06,17.05S308.74,317.35,300,321.8Z"/><polyline class="cls-5" points="286.13 288.54 321.42 296.05 339.69 297.09"/><path class="cls-5" d="M277.63,280.53s28.36-.55,55.55,6.9a31.11,31.11,0,0,0,17.52,5.39c9.84-.28,14.51-1.61,14.51-1.61"/><line class="cls-5" x1="357.37" y1="285.54" x2="333.18" y2="287.43"/><polyline class="cls-5" points="292.48 293.9 319.92 299.36 334.03 297.5"/><path class="cls-5" d="M38.9,250.51l-10,.66-3.83,6.51,8.19,63.49L22.72,333.92l1.5,43.65,4.34,5.56,23.85,11.6,9.24-15.6-8.57-53.22-3.53-.52-7-66.71S42.18,252.42,38.9,250.51Z"/><polyline class="cls-3" points="28.89 251.17 31.73 254.84 37.9 254.84 39.4 256.34 42.18 256.17"/><polyline class="cls-3" points="31.73 254.84 36.4 318.4 37.9 254.84"/><path class="cls-3" d="M39.4,256.34l3.17,72.44L36.4,318.4l-8.7,13.85s.52-.83,3,1.33,1,18.19,5.67,28.53a89.19,89.19,0,0,0,11,18l4.47-7.24s-11-7.11-14-25.35-10.2-15.29-10.2-15.29"/><line class="cls-3" x1="52.41" y1="394.73" x2="47.41" y2="380.13"/><polyline class="cls-3" points="42.57 328.78 47.41 343.54 50.41 342.86"/><path class="cls-5" d="M91.78,407.15l-21.35,1.67V388.14l-2-1,3.34-74.4,8.34-7.17h3.5l1.34-2,25.35-.67,2.5-3.34v-7.67l-34.36-10h-37l-9.67,5.56v5.45l9.67,2.52,1.17,3.65v2.67l7.84,8.68v4.22s-5.67-.22-5.22,4.45a9.35,9.35,0,0,0,4.11,1.22l3.34,68,.22,6.34-1.78,17.68.33,4.67s2,4.67,14.8,4l7.22-5.45,31.51-1.88Z"/><path class="cls-5" d="M41.4,295.4s16.46,6.54,21.47,7.32,22.08.84,22.08.84"/><path class="cls-4" d="M42.57,299.05s12.32,6.06,16.1,6.51,21.44,0,21.44,0"/><line class="cls-5" x1="73.43" y1="415.49" x2="70.43" y2="408.82"/><path class="cls-5" d="M70.43,388.14s-2.67,6.11-5.56,6.45-12,0-12,0"/><path class="cls-4" d="M31.73,287.43s33,10.29,36,10.29,37.6-.94,40.21-1.34c6.34-1,3.83-4.5,3.83-4.5l-46.38-.55-24.88-9"/></g></g></svg>