<svg xmlns="http://www.w3.org/2000/svg" xmlns:xlink="http://www.w3.org/1999/xlink" viewBox="0 0 358.12 632.94"><defs><style>.cls-1,.cls-10,.cls-11,.cls-15,.cls-16,.cls-18,.cls-19,.cls-2,.cls-20,.cls-21,.cls-22,.cls-5,.cls-7,.cls-9{fill:none;}.cls-13,.cls-2{stroke:#000;}.cls-10,.cls-11,.cls-12,.cls-13,.cls-15,.cls-16,.cls-18,.cls-19,.cls-2,.cls-20,.cls-21,.cls-22,.cls-4,.cls-5,.cls-7{stroke-miterlimit:10;}.cls-11,.cls-2{stroke-width:0.25px;}.cls-13,.cls-3{fill:url(#Nova_amostra_de_padrão_1);}.cls-12,.cls-4,.cls-6,.cls-8{fill:#fff;}.cls-10,.cls-11,.cls-12,.cls-4,.cls-5,.cls-7,.cls-8,.cls-9{stroke:#010101;}.cls-5{stroke-width:0.5px;}.cls-8,.cls-9{stroke-linejoin:round;}.cls-10,.cls-12,.cls-13{stroke-width:0.75px;}.cls-14{isolation:isolate;font-size:13.26px;fill:#e52620;font-family:Roboto-Medium, Roboto;font-weight:500;}.cls-15,.cls-16,.cls-18,.cls-19,.cls-20,.cls-21,.cls-22{stroke:#e52624;}.cls-15{stroke-width:1.53px;}.cls-16{stroke-width:1.5px;}.cls-17{fill:#e52624;}.cls-18{stroke-width:1.84px;}.cls-19{stroke-width:1.44px;}.cls-20{stroke-width:1.54px;}.cls-21{stroke-width:1.43px;}.cls-22{stroke-width:1.55px;}</style><pattern id="Nova_amostra_de_padrão_1" data-name="Nova amostra de padrão 1" width="24" height="19" patternUnits="userSpaceOnUse" viewBox="0 0 24 19"><rect class="cls-1" width="24" height="19"/><polyline class="cls-2" points="23.73 10.43 26.99 10.43 31.26 17.6 40.74 17.6 45.35 10.43 48.25 10.43"/><polyline class="cls-2" points="0 8.57 2.99 8.57 7.26 1.4 16.74 1.4 21.35 8.57 24.25 8.57"/><polyline class="cls-2" points="-0.27 10.43 2.99 10.43 7.26 17.6 16.74 17.6 21.35 10.43 24.25 10.43"/><polyline class="cls-2" points="-24 8.57 -21.01 8.57 -16.74 1.4 -7.26 1.4 -2.65 8.57 0.25 8.57"/><polyline class="cls-2" points="-24.27 10.43 -21.01 10.43 -16.74 17.6 -7.26 17.6 -2.65 10.43 0.25 10.43"/></pattern></defs><title>Frontal </title><g id="Camada_2" data-name="Camada 2"><g id="Camada_1-2" data-name="Camada 1"><path class="cls-3" d="M114.3,208.5s11.76-9.18,59.06-8.94,60.47,8.94,60.47,8.94l7.53,115.76s-1.18,11.3-1.41,12.47H106.3V328.5s3.29-3.53,3.76-40S114.3,208.5,114.3,208.5Z"/><path class="cls-4" d="M217.62,416.54c1,1.4.78,5.81.78,5.81s74.7,4.11,76.26,4.31,1.61,1.76,1.66,2.86c.41,6.49-2.54,15.16-3.69,17a3.93,3.93,0,0,1-3.47,1.61s-.94,0-6.29-.31c-18.12-2.55-26.58-12.23-26.58-12.23l-47.69-.62v-1.53l-12.66,13.64-4.07,2.84a23.24,23.24,0,0,1-.42,3.11c-.21.48-1.39,1-1.39,1l-1.45,25.26-4,2.43a44.71,44.71,0,0,1-16.47,0l-3.82-2.84s-.89-23.26-1-24.92a3.58,3.58,0,0,1-1.66-2.5l-2.45-4.69S145.68,434,144.84,433.35c-.07,1-.76,1-.76,1l-46.79-2.08-3.4,2.35a55,55,0,0,1-29.69,7.06c-3.81,0-3.87-1.58-4.5-2.7-3-9.2-1.52-12.66-1.34-15.57s3.1-2.42,3.1-2.42h73.09a16.06,16.06,0,0,1,.29-4.84"/><line class="cls-5" x1="141.31" y1="423.08" x2="210.7" y2="423.81"/><polygon class="cls-6" points="304.55 555.93 304.55 562.3 315.68 561.7 315.36 556.07 304.55 555.93"/><path class="cls-6" d="M251,545.63s3.38,1.94,3.53,2.19,8.13,1.29,8.13,1.29,15.71-7.48,10.3-20.25c-.83-1.93-1.32-5.14-3.13-6.12a119.1,119.1,0,0,0-15.26-6.17s-5.51-2.4-9.07-1c-.42.16.27,3.32-.11,3.47a6.31,6.31,0,0,0-3.5,4c-1.66,4.38-2.61,8.45,2.6,20.16C245.15,544.69,248.65,544.66,251,545.63Z"/><path class="cls-6" d="M92.11,543.3l1.07,1.5s1.29.39,1.78.49,4.65-.43,4.65-.43l.44-.16,1.83-3.72,3.86-.9.25,2,.83,1.12,1.35.74,4.76-.53,1.66-1.27.93-1.79-1.43-20.12-.73-3.39-2.59-2.32-2-.06-.74-1.18s-6.89-.58-7.24-.63a4.61,4.61,0,0,0-1.22.28l.33,2.77-8.31.73-1.95,2.85-.72,3.11v4.57Z"/><path class="cls-6" d="M17.81,586.59l5.74,4.81,5.58,4.28s5.15,1.42,8.73.48A16.16,16.16,0,0,0,44,593l5-5.81,2.6-5,.5-4.36-.83-5.26-1.42-3-2.14-2.49-1-1.77V553.39H35.81l-.27,5.05-2-.2L30,558l-4.35,1.16-5.41,3.27-3.5,4.22s-2.94,5.26-3.33,9.41,3,9,3,9Z"/><path class="cls-7" d="M24.24,591.87a24.76,24.76,0,0,1-8.38-7.48,15.44,15.44,0,0,1-.74-14.33c3.61-7.85,7.59-10,12.26-11.45a11,11,0,0,1,8.1.32"/><path class="cls-4" d="M169,623.35s.16,7.74,0,8.36a1.22,1.22,0,0,1-.94.73h-5.45c-1.92,0-1.92-1.56-1.92-1.56s.1-32.08.1-34.32,1.77-1.87,1.77-1.87H168l11.58-.1,5.14.1s2-.1,2,1.61.11,34.48.11,34.48-.11,1.5-1,1.5l-6.12.06s-1.46-1-1.36-4.63a24.89,24.89,0,0,0,0-4.05"/><polyline class="cls-4" points="167.96 588.41 167.96 594.69 168.74 595.42 168.95 623.35 178.5 623.35 178.5 595.11 179.54 594.59 179.64 588.41"/><path class="cls-4" d="M315.85,561.94a11,11,0,0,1,8.1-.32c4.67,1.53,8.65,3.6,12.25,11.46a15.44,15.44,0,0,1-.72,14.33,25.06,25.06,0,0,1-8.39,7.47"/><path class="cls-4" d="M330,592.62a15.89,15.89,0,0,0,5.46-12.36,21,21,0,0,0-5.86-12.61c-5.66-6-13.66-4.88-13.66-4.88l-6.41.66-2.33,1.36s1.11.48,1.17.48"/><path class="cls-4" d="M328.64,593.8c3.43-4.1,3.43-9.86,3.43-9.86s1-6.54-6.23-14.07-18.17-4-18.17-4l-2.62,2.87"/><path class="cls-4" d="M191.12,507.22l39.79-5.56a4,4,0,0,1,2.07-1.5c1.15-.21,15.43-2.08,15.43-2.08h5.08a3.34,3.34,0,0,1,2,1.86l1,1.82,1.3,2.59L258.5,515s-3.37,1.5-10.48,1c0,0-4.36-.46-5.19-1.76l-19.16,5.4L280.05,532l1.19-.72,34.32,7.57.36,1.15a2.82,2.82,0,0,1,2.24,1.71l1,15.73-6.33,1.92-8.26-1.24a5,5,0,0,1-3.21-2.39v-3.89l-96.72-15.2s-16.08-1.52-18.38,4l-3.06,47-8.83,1.71-10.13-1.86.63-47s1-5.35-16.82-4.52L49.5,548.7V552s.1,1.92-3.23,2.8a54.23,54.23,0,0,1-8.61,1.2l-6.11-2.29,1.2-14.32a3,3,0,0,1,2.19-2.91l.88-1.25,34.88-6.64.88.94,57.63-11.17-17.71-5.71s-1.34,2.18-10.38,1.51c0,0-4.67-.47-5.34-1.51l.72-10,3.17-6.33a4.38,4.38,0,0,1,3.42-.94l16.51,2.49a10.88,10.88,0,0,1,4.2,2.14L161,506.7"/><path class="cls-4" d="M181.82,477.06a11,11,0,0,1,6.23,1.61l.32,3.95a1.86,1.86,0,0,1,.88.93l.16,2.74a3.3,3.3,0,0,1,1.14,1.15l.57,22.89c.93,1.41.51,2.19.51,2.19-2.7,3.79-14.95,3.79-14.95,3.79-14.84-.11-15.93-3.74-16.09-4.83a1.43,1.43,0,0,1,.78-1.51v-3s.47-18.53.52-19.42,1.15-1.09,1.15-1.09l.3-3.06c0-.52.94-.63.94-.63l.31-3.88c.36-1.1,5-1.82,5-1.82v1a24.47,24.47,0,0,0,12.2,0Z"/><path class="cls-7" d="M163.71,483.37s14.29,6,25,0"/><path class="cls-7" d="M162.5,487s.83,4.49,14.63,4.28,12.92-4.61,12.92-4.61"/><path class="cls-7" d="M97.81,500.47s-.14.83.45,1S113,505,113,505a1.88,1.88,0,0,0,1.38-.45,41.1,41.1,0,0,0,2-3.74s.83-1.59,1.9-1.24l5.22.55"/><path class="cls-7" d="M231.06,501.79a5.56,5.56,0,0,0,1.9-.21c1-.32,3.32-1.07,4.53.41a6.51,6.51,0,0,1,1.36,2.94,1.85,1.85,0,0,0,1.91,1.8l.23,0c2-.31,15.05-2.6,15.05-2.6s1-.38.87-1.24"/><path class="cls-7" d="M316.18,540.29s-1.82.05-3.32,3.58a2.74,2.74,0,0,1-2.86,1.72l-32.49-6.76s-1.46-.05-1.25-1.76c0,0,.36-2.28,1-2.6a20.89,20.89,0,0,0,2.7-2.28"/><path class="cls-7" d="M166.46,572.32l3.48-2.23a2.59,2.59,0,0,1,2.07-.57c1.46.1,3.53.1,3.53.1a3.83,3.83,0,0,1,2.6.73l3.48,2.49,1.4-15.16-.36-1.5s-1.51-2.7-4-3.23l-6.7-.2a5.35,5.35,0,0,0-3.3,1.18,19.06,19.06,0,0,0-2.34,2.24l-.15,16.46Z"/><path class="cls-7" d="M34.88,536.49s2,.88,3.32,4.2a2.79,2.79,0,0,0,3.37,1.51c2.59-.52,32.08-5.19,32.08-5.19s1.25-.47,1.1-1.51-.37-2.64-.37-2.64l-1.87-2.28-1.19-1.1"/><polyline class="cls-7" points="33.3 537.38 38.49 543.61 37.92 556"/><path class="cls-5" d="M38.8,543.61l105.36-16.56s14.53-2.07,21.59,3.6l-1,44.3"/><line class="cls-5" x1="180.42" y1="516.13" x2="178.83" y2="552.87"/><line class="cls-5" x1="171.28" y1="516.13" x2="171.28" y2="552.66"/><polyline class="cls-7" points="317.68 540.97 311.98 547.92 312.18 558.92"/><path class="cls-5" d="M311.48,547.92,204.12,527.15s-15-3-18.48,3.33l-3.53,42.36"/><line class="cls-5" x1="277.3" y1="534.47" x2="189.14" y2="514.49"/><line class="cls-7" x1="223.67" y1="519.63" x2="191.33" y2="512.2"/><line class="cls-5" x1="191.33" y1="510.23" x2="237.74" y2="502.33"/><line class="cls-7" x1="206.07" y1="515.37" x2="257.05" y2="504.57"/><path class="cls-7" d="M243,514.23l9.56-2.75s1.66-.68,2.38.36"/><line class="cls-7" x1="129.13" y1="518.19" x2="160.21" y2="511.89"/><line class="cls-5" x1="144.91" y1="514.66" x2="96.81" y2="502.62"/><path class="cls-7" d="M111.3,512.65l-9.83-3.25s-1.94-.55-2.43.14"/><path class="cls-7" d="M168.12,589.19s6.34,3.63,11.32,0"/><path class="cls-4" d="M299.62,584.67s-2.77-10.87,6.09-16.06,18.9,2.42,21,6.71,7.71,16.26-3.53,22.7S300.52,590.87,299.62,584.67Z"/><path class="cls-8" d="M304.55,558.3s.42,2,4.88,2.19,5.3-.06,5.92-1.72l.33.06v4.6s-6.93.18-9,3.24l-2.1,2.67Z"/><line class="cls-7" x1="331.65" y1="587.53" x2="334.45" y2="585.87"/><path class="cls-7" d="M302.34,583.19s-1.12-10.8,8.54-12.22,14.17,9.29,14.17,9.29,4.42,12.26-5.92,15.42C308.08,599.05,302.44,586.69,302.34,583.19Z"/><path class="cls-7" d="M308.16,582.66a7.3,7.3,0,0,0,5.85,6.93c5.92,1.49,5.12-6.85,5.12-6.85s-1.35-4.81-6.12-5S308.16,582.66,308.16,582.66Z"/><path class="cls-7" d="M311.25,577.92s1.24-1,1.86-1a6.09,6.09,0,0,1,6.2,2.94c3,4.78-1.73,9.14-1.73,9.14"/><polyline class="cls-5" points="304.84 574.62 305.8 574.98 310.16 577.95 310.89 577.51 308.24 573.46 306.54 572.56"/><path class="cls-5" d="M308.24,571.72l1,.77,2.32,3.6s1.09.25,1.15-.52h0l-.83-3.32-.83-1.18"/><path class="cls-5" d="M312.55,570.78l.62,1.09.83,3.67s.73.83,1.23.21l.58-3.28-.18-1.09"/><path class="cls-5" d="M317.2,572l.07.84-.55,3.58s.55.74,1,.6l1.66-2.65.29-.9"/><path class="cls-5" d="M320.92,574.7l-.19.83-1.66,2.32s0,1.1,1,1.07l2.78-1.94"/><path class="cls-5" d="M323.94,578.57,321,580.12s-.83,1.3.45,1.47l3.72-.89"/><path class="cls-5" d="M325.6,583.14l-3.49-.19s-1.54.55-.27,1.43l4.16,1.67"/><path class="cls-5" d="M324.92,590.7l-1-1.32-3-2.55s-.64-1.39.59-1.17,4.15,2.34,4.15,2.34"/><path class="cls-5" d="M321.58,594.56,321.5,593a3.47,3.47,0,0,0-.53-1.49c-.45-.61-1.45-2.16-1.45-2.16s-.59-2,1.24-1.19l2.41,2.89.78,1.43"/><path class="cls-5" d="M317.23,596l.45-1.52a3.71,3.71,0,0,0-.08-2L317,590.3s.31-1.33,1.41-.5l1.15,2.23a3.93,3.93,0,0,1,.56,1.52l.1,1.49"/><path class="cls-5" d="M312.65,595.71l.83-1.19a3,3,0,0,0,.51-1.73l.44-2.87"/><polyline class="cls-5" points="315.52 589.96 316.42 593.59 315.71 596"/><polyline class="cls-5" points="308.22 593.36 309.38 592.39 311.56 588.94"/><polyline class="cls-5" points="312.94 589.53 312.23 593.45 310.43 594.85"/><polyline class="cls-5" points="305.07 589.64 306.4 588.48 309.26 586.72"/><polyline class="cls-5" points="310.45 588.05 308.5 590.76 307.46 592.31"/><path class="cls-5" d="M304.2,588l1.06-.76a6.46,6.46,0,0,1,1.4-.74,12.5,12.5,0,0,0,1.9-1"/><polyline class="cls-5" points="308.22 584.1 305.85 584.29 303.1 585.14"/><polyline class="cls-5" points="302.52 583.25 305.07 582.66 307.91 582.58"/><polyline class="cls-5" points="308.22 581.44 304.34 580.23 302.6 580.14"/><polyline class="cls-5" points="302.87 578.35 304.71 578.57 308.53 579.93"/><polyline class="cls-5" points="309.07 578.99 305.95 576.51 304.04 576.06"/><path class="cls-7" d="M51.71,581.59s2.77-10.86-6.09-16-18.9,2.42-21,6.71-7.72,16.27,3.53,22.7S50.81,587.82,51.71,581.59Z"/><path class="cls-7" d="M46.78,555.25s-.42,2-4.88,2.19-5.3-.06-5.92-1.72"/><line class="cls-7" x1="46.78" y1="555.78" x2="46.78" y2="566.68"/><path class="cls-7" d="M46.56,565.84c-2.75-5-10.91-5.46-10.91-5.46v-4.6"/><path class="cls-7" d="M43.67,562.78s-10.91-3.53-18.18,4-6.23,14.07-6.23,14.07,0,5.76,3.43,9.86"/><path class="cls-7" d="M35.36,559.75s-8-1.1-13.66,4.87a21.06,21.06,0,0,0-5.86,12.57,15.92,15.92,0,0,0,5.45,12.38"/><line class="cls-7" x1="19.68" y1="584.48" x2="16.88" y2="582.82"/><path class="cls-7" d="M49,580.14s1.13-10.8-8.53-12.22-14.2,9.27-14.2,9.27-4.42,12.26,5.92,15.42C43.25,596,48.89,583.64,49,580.14Z"/><path class="cls-7" d="M43.18,579.62a7.28,7.28,0,0,1-5.81,6.92c-5.92,1.49-5.13-6.85-5.13-6.85s1.36-4.81,6.13-5S43.18,579.62,43.18,579.62Z"/><path class="cls-7" d="M40.07,574.87s-1.24-1-1.87-1A6,6,0,0,0,32,576.85c-3,4.78,1.73,9.14,1.73,9.14"/><polyline class="cls-5" points="46.48 571.58 45.53 571.93 41.17 574.9 40.44 574.47 43.09 570.41 44.79 569.52"/><path class="cls-5" d="M43.09,568.67l-1,.78L39.75,573s-1.09.25-1.15-.52h0l.83-3.32.83-1.18"/><path class="cls-5" d="M38.78,567.73l-.58,1.1-.83,3.66s-.72.83-1.23.21l-.59-3.28.24-1.1"/><path class="cls-5" d="M34.13,568.93l-.08.83.56,3.58s-.56.74-1,.6l-1.66-2.65-.29-.89"/><path class="cls-5" d="M30.41,571.61l.19.83,1.66,2.32s0,1.1-1,1.07l-2.81-2"/><path class="cls-5" d="M27.4,575.53l3,1.55s.83,1.31-.46,1.47l-3.72-.89"/><path class="cls-5" d="M25.74,580.09l3.5-.19s1.54.56.25,1.44L25.34,583"/><path class="cls-5" d="M26.41,587.65l1-1.32,3-2.49s.64-1.41-.59-1.18S25.67,585,25.67,585"/><path class="cls-5" d="M29.75,591.51l.09-1.56a3.1,3.1,0,0,1,.52-1.49c.45-.6,1.45-2.16,1.45-2.16s.59-2-1.24-1.18L28.16,588l-.76,1.44"/><path class="cls-5" d="M34.1,593l-.46-1.53a3.78,3.78,0,0,1,.09-2l.61-2.15s-.32-1.33-1.41-.5L31.77,589a4.19,4.19,0,0,0-.55,1.45L31.11,592"/><path class="cls-5" d="M38.68,592.67l-.83-1.19a3.09,3.09,0,0,1-.52-1.74l-.43-2.87"/><polyline class="cls-5" points="35.81 586.91 34.91 590.54 35.62 592.95"/><polyline class="cls-5" points="43.11 590.32 41.95 589.34 39.77 585.89"/><polyline class="cls-5" points="38.38 586.48 39.1 590.4 40.89 591.8"/><polyline class="cls-5" points="46.26 586.59 44.93 585.43 42.07 583.67"/><polyline class="cls-5" points="40.87 585 42.84 587.72 43.87 589.26"/><path class="cls-5" d="M47.12,585l-1-.75a6.52,6.52,0,0,0-1.4-.75,12.14,12.14,0,0,1-1.91-1"/><polyline class="cls-5" points="43.11 581.05 45.48 581.25 48.23 582.09"/><polyline class="cls-5" points="48.8 580.21 46.26 579.62 43.42 579.53"/><polyline class="cls-5" points="43.11 578.39 46.99 577.18 48.73 577.09"/><polyline class="cls-5" points="48.46 575.3 46.62 575.52 42.79 576.88"/><polyline class="cls-5" points="42.26 575.94 45.38 573.46 47.3 573.01"/><polyline class="cls-7" points="186.86 606.43 187.59 606.43 187.59 620.09 186.97 620.09"/><polyline class="cls-7" points="160.33 606.73 159.6 606.73 159.6 620.38 160.23 620.38"/><path class="cls-7" d="M245.48,515.84s-.06,1.87,4.77,2,4.36-1.71,4.36-1.71"/><line class="cls-7" x1="245.37" y1="516.05" x2="245.37" y2="524.15"/><path class="cls-7" d="M255,516.15l.16,4.93a17.71,17.71,0,0,0-4.47,4.46"/><path class="cls-7" d="M245.27,519.05a10.47,10.47,0,0,0-3.57,4.32"/><path class="cls-7" d="M255.13,516.72l13.16,4.88s3.94,1.87,4.87,8.72"/><path class="cls-7" d="M255.13,521.08s3.55-2.33,7-1.79"/><path class="cls-7" d="M258.4,527s2.24-3.32,5.82-3.08a7.47,7.47,0,0,1,6.74,5.81"/><line class="cls-7" x1="260.27" y1="525.42" x2="260.48" y2="527.44"/><polyline class="cls-7" points="261.96 524.5 261.51 525.63 261.64 527.73"/><polyline class="cls-7" points="263.92 524.15 263.15 525.15 262.37 527.85"/><polyline class="cls-7" points="265.46 524.32 264.45 525.49 263.69 528.09"/><polyline class="cls-7" points="264.25 528.28 265.54 526.24 267.12 524.99"/><polyline class="cls-7" points="268.45 525.84 266.69 527.01 265.59 528.54"/><polyline class="cls-7" points="266.68 529.02 268.23 527.81 269.81 527.44"/><polyline class="cls-7" points="268.6 529.35 269.3 528.93 270.54 528.86"/><path class="cls-7" d="M244.2,542.9a9.25,9.25,0,0,0,7,2.49"/><path class="cls-7" d="M247.29,543.32s.45,1.55,3.81,2.14a15.39,15.39,0,0,0,8.2,3.56c5.05.59,7.37-2.49,7.37-2.49"/><path class="cls-7" d="M252.55,544.32s1.38,2.71,6.54,4.78"/><path class="cls-7" d="M250.24,543.77a7,7,0,0,0,.83,1.67"/><path class="cls-9" d="M101.13,523.81c.13-2.12-1.52-5.81-1.52-5.81l.21-3.74s.41,2,5.12,1.73,3.84-2.06,3.84-2.06l.35,5.38a7.91,7.91,0,0,1-.53,3.08"/><path class="cls-7" d="M99.54,515.72l-7.61.73s-3.39,1.08-3.15,9.55"/><path class="cls-7" d="M95.63,524.73s0-6.71-3.7-8.31"/><path class="cls-7" d="M114.42,521.1c-.62-5.72-4-6.58-4-6.58l-1.31.14"/><path class="cls-7" d="M99.61,518a8.4,8.4,0,0,0-2.35-1.93"/><path class="cls-7" d="M94.11,525s-.13-4-2.57-5.43-2.49,6.33-2.49,6.33"/><path class="cls-7" d="M90,520.87l1.76.83a3.11,3.11,0,0,1,1,1.5c.19.92.36,1.94.36,1.94"/><path class="cls-7" d="M89.26,523.73a4,4,0,0,1,2.62.92l.27.68"/><path class="cls-7" d="M101.44,542.07a8.53,8.53,0,0,1-1.56,2.77s-4.36.7-5.64.45-2.17-2.08-2.17-2.08"/><path class="cls-7" d="M96.75,542.55a3.36,3.36,0,0,1-2.37,2.76"/><path class="cls-7" d="M105.74,541.47a3.7,3.7,0,0,0,2.49,2.5l4.92-.41s2.35-1.56,2.22-3.18"/><path class="cls-7" d="M110.58,540.83s-.45,2.49-2.39,3.1"/><path class="cls-7" d="M164.66,478.7s12.16,4.68,23.34,0"/><path class="cls-7" d="M164.66,478.74s13.29,4.77,23.4,0"/><path class="cls-10" d="M58.36,423.44s23.78,1.85,39.35,5.72c1.08.3,1.87,1.16-.42,3.14"/><path class="cls-10" d="M296.33,429.52s-22.43.26-38.16,2.59c-3.06.37-4.25,1.38-2.23,3.44"/><path class="cls-5" d="M134.55,421s.7,4.16,1.81,4.4c0-1.18-.49-9.22-.49-9.22"/><path class="cls-5" d="M137.49,416.18l.37,10a8.85,8.85,0,0,0,.67,2.69"/><path class="cls-5" d="M140.87,416.26l.57,12.41-4,.14s-.78.19-.83-1a14.58,14.58,0,0,0-.27-2.38"/><path class="cls-10" d="M218.45,421.5s-.78,4.15-2,4.39c0-1.17.54-9.22.54-9.22"/><path class="cls-10" d="M215.12,416.65l-.4,10s-.33,2.3-.76,2.69"/><path class="cls-10" d="M211.34,416.75l-.64,12.39,4.49.16s.88.18.91-1a13.84,13.84,0,0,1,.31-2.39"/><path class="cls-7" d="M144.84,433.34s-3.09-2.91-3.4-4.67"/><path class="cls-10" d="M141.31,426s.54,3.14,1.95,4.15,11,8.9,11,8.9l1.72,4.66"/><line class="cls-5" x1="142.24" y1="428.83" x2="210.7" y2="428.83"/><line class="cls-5" x1="154.21" y1="439.05" x2="198.94" y2="439.05"/><line class="cls-10" x1="155.35" y1="442.13" x2="197.53" y2="442.13"/><path class="cls-10" d="M210.7,429.14l-12.28,10.5s-.62,2.91-1.61,3.74l-4.52,3.79-.45,2.72"/><line class="cls-7" x1="208.6" y1="433.41" x2="210.91" y2="429.15"/><line class="cls-7" x1="159.17" y1="446.77" x2="161.42" y2="448.29"/><path class="cls-5" d="M161.42,450.93v-4.15s2.55-3.57,13.74-3.6c13.29,0,17.13,4,17.13,4"/><path class="cls-5" d="M162,452.68s.1-4,8.51-4.39a71.29,71.29,0,0,1,13.54.53s5.91.76,7.33,3.86"/><path class="cls-7" d="M190,454v-2.57a79,79,0,0,1-13.81,1.21c-9,.16-12.9-1.21-12.9-1.21l-.08,2.5"/><polyline class="cls-11" points="164.81 479.27 164.22 456.92 164.81 457.12 165.19 479.27"/><polyline class="cls-11" points="166.27 480.36 165.95 457.33 166.72 457.33 167.06 480.69"/><path class="cls-11" d="M186.48,480.69s-18,.64-19.94-.15"/><polyline class="cls-11" points="168.72 480.83 168.72 457.7 169.56 457.7 169.56 480.83"/><polyline class="cls-11" points="171.32 480.83 171.32 457.7 172.77 457.7 172.77 480.83"/><polyline class="cls-11" points="174.57 480.83 174.57 457.7 176.03 457.7 176.03 480.83"/><polyline class="cls-11" points="178 480.83 178 457.7 179.45 457.7 179.45 480.83"/><polyline class="cls-11" points="181.08 480.83 181.08 457.7 182.53 457.7 182.53 480.83"/><polyline class="cls-11" points="184.54 480.83 184.54 457.7 185.72 457.7 185.72 480.83"/><polyline class="cls-11" points="186.93 480.31 186.93 457.19 187.75 457.19 187.75 480.31"/><polyline class="cls-11" points="188.55 479.58 188.55 456.92 189.23 456.92 189.23 470.1"/><path class="cls-4" d="M167.73.51s-28.83,0-37.53,9.71c-6.28,7-14.47,48.35-17.65,51.17S100.9,72.69,83.61,79,50.79,107.28,58.2,127.39s17.53,42.47,17.53,60.83c0,0-.71,28.7-4.71,44.47s-7.53,64.94,2.82,89.41,21.65,17.65,21.65,17.65-.7-3.53,12.24-3.3,132.7,1.18,132.7,1.18,6.83-.37,11.3,3S267,338.81,275.49,323s12.71-37.65,10.59-60-10.59-40.23-12-56.23-5.41-32.71,9.88-64.48c0,0,23.77-36.7-8.26-54.25-8.46-4.63-36.44-17.51-41.62-26.22s-8.71-22.35-9.18-27S220.31,7,207.29,3.78C192.74.14,167.73.51,167.73.51Z"/><path class="cls-12" d="M275.7,88.08c32,17.55,6.73,56.94,6.73,56.94-15.29,31.77-11.29,48.47-9.88,64.47s9.88,33.89,12,56.24c0,0,3.53,22.37-10.47,47.08,0,0-9.11,19.64-10.09,24.82,0,0-7.4,8.26-15.58,1.23h0l-8-1.23.94-10.82c3.62-4.42,9.09-14.83,9.09-14.83,18-28.76,12.68-38.47,12.44-55.76s-6-32-5.53-45.18,5.53-49.32,21.68-80.38-3.35-42.58-3.35-42.58"/><path class="cls-4" d="M79,344.28s-12,9.35-11.65,18.53,0,27.7,0,27.7a58.2,58.2,0,0,0,9.36,20.12s2.64,6.88,3.53,8.65S93.31,421,97,421H267.14s12,2.65,13.23-10.94a41.07,41.07,0,0,0,10.76-17.65c3.18-10.94,7.83-34.92-5.82-49.06,0,0-2.47-3-20.82-2.82L261,339.7s-5,4.87-12.56-.84c0,0-5.27-1.21-19.57-1.32l-124.59-1.05s-7.64-.57-8.76,3.26S85,340.45,79,344.28Z"/><path class="cls-4" d="M80.26,419.28c-.89-1.77-3.53-8.65-3.53-8.65a58.2,58.2,0,0,1-9.36-20.12s.36-18.53,0-27.7S79,344.28,79,344.28a12.79,12.79,0,0,1,4.3-1.66,13,13,0,0,1-6.65-8.29C75,328.22,69.37,320.69,64,318.81s-22.82,2.63-23.29,11.9-.24,47.62,12.94,70.68,20.7,19.86,20.7,19.86,6.47-.81,6-2"/><path class="cls-4" d="M277.87,419.28c.88-1.77,2.5-9.18,2.5-9.18,10.59-11.41,10.9-18.55,12.55-24.9s2-12.1,1.24-21.68c-.7-9.1-7.12-19.16-9.73-20.7s-7.66-1.72-9.62-1.94a13.84,13.84,0,0,0,5.92-8.43c1.64-6.12,8-11.76,13.43-13.64s22.83,2.63,23.3,11.9.23,47.62-12.94,70.68-20.71,19.86-20.71,19.86-6.47-.81-5.94-2"/><path class="cls-12" d="M70.82,86.88S55,97.39,68.08,128.45s25.06,58.94,24,79.77S87,266.1,89.61,279.75s14.82,46.11,16.47,47.76.75,8.95-1.83,9-6.94-.3-8.76,3.26-11.81-1.3-13.56-4.21c0,0-3.62-18.18-6.26-24.88a114.09,114.09,0,0,1-6.62-42.88c1-18.36,4-25.5,5.12-31.77a183.42,183.42,0,0,0,3.32-36.38C77.37,181.86,73.86,173,73.86,173s-6-22.76-11.48-34.6S52.67,116,59.64,101.92,70.82,86.88,70.82,86.88Z"/><path class="cls-5" d="M120.14,77.1C71.61,99.16,97,141,106.91,165.33s8.46,42.36,6.52,53.83-3.88,86.34-4.65,94.49a44.28,44.28,0,0,1-3.33,12.82"/><path class="cls-5" d="M241.37,326.81s-5.64-105.72-6.82-111.92-4-26.91,11.06-59.85,22.59-48.35-15.77-77.94"/><path class="cls-13" d="M105.45,326.47a44.28,44.28,0,0,0,3.33-12.82c.77-8.15,2.71-83,4.65-94.49l1-7.4S116.53,200.22,181,200c0,0,51.76.92,52.87,9.67l.73,5.24c1.18,6.2,6.82,111.92,6.82,111.92l-.94,10.82-135.29-1.17s3.06-5.06,1.16-8.67Z"/><path class="cls-5" d="M112.55,61.39S133.14,102.1,136,124.45c0,0,41.88,12.47,75.53,1.65,0,0,17.12-53.35,24.8-61.5"/><line class="cls-5" x1="134.81" y1="118.09" x2="213.79" y2="119.1"/><line class="cls-5" x1="131.63" y1="106.76" x2="218.02" y2="106.76"/><line class="cls-5" x1="127.13" y1="94.2" x2="222.17" y2="95.25"/><line class="cls-5" x1="101.55" y1="152.95" x2="135.96" y2="124.45"/><line class="cls-5" x1="245.61" y1="155.04" x2="211.49" y2="126.1"/><path class="cls-12" d="M65.16,417.09s-21.41-48.28-19.83-93.73"/><path class="cls-12" d="M64,318.81S67.36,352.63,69,356"/><path class="cls-12" d="M294.16,363.52s2.42-27-2.24-43.74"/><path class="cls-12" d="M289.15,420s14.11-7.32,21.64-51.56.25-46.23.25-46.23"/><path class="cls-12" d="M52.2,398H44.82s-.41,1.5-1.65,1.5-18.47.45-18.47.45-2.75-.08-2.62-2.28,1.45-19.54,1.45-19.54a3.42,3.42,0,0,1,1.93-1c.07-1.07.1-3,.1-3l-.82-.59-3-72.77a3.15,3.15,0,0,0-1-2.62c-1.27-1.24-7.82-8.36-7.82-8.36s-9.24-.42-10.27-.45S.34,289.17.38,288s0-3.69,0-3.69a5.41,5.41,0,0,1,2.38-3.13c2.1-1.49,8.65-6.07,8.65-6.07s3.61-2.1,9.92-2.14,31.73.24,31.73.24a.83.83,0,0,1,1,.62c.28.76.42,1.18.42,1.18l.89.2.42,8.2-8,3.69-7.16,10.41a7.31,7.31,0,0,0-1.15,3.54c-.07,2-.67,25-.67,25l-.5,33.07L38,372.82l-1,.68v2.93c1.58.38,2,.73,2.24,1,.53,14.39,1.14,13.07,1.14,13.07l5.79.34v1.4h2.72"/><path class="cls-5" d="M53.06,273.25a20.41,20.41,0,0,0-12.61,5.16s-18.61.07-26.18-.14-2.86-2.72-2.86-2.72l4.13-1.88"/><path class="cls-5" d="M40.45,278.41v2l-4,2.4s-2.31,1.66-8,1.66-22.42-.42-22.42-.42-4.36-.22-5.21-.87"/><polyline class="cls-5" points="54.44 275.04 43.16 279.67 40.45 280.42"/><path class="cls-5" d="M12.89,289.73H38.76a15.26,15.26,0,0,0,5.44-.83c2.73-1.27,3.52-1.73,3.52-1.73"/><path class="cls-5" d="M16.25,293.39s1,.53,4.54.53,17-.27,17-.27a12.24,12.24,0,0,0,3.93-.62,13.71,13.71,0,0,0,2.78-1.28"/><path class="cls-5" d="M25.56,374.07s2,1.2,6.62.41a36.14,36.14,0,0,0,4.83-.94"/><path class="cls-5" d="M23.53,378.09a8.4,8.4,0,0,0,5.27,2,19.36,19.36,0,0,0,8.27-1.45,7.7,7.7,0,0,0,2.24-1.16"/><path class="cls-5" d="M25.46,377.06s-.49,1,.1,1.25a5.93,5.93,0,0,0,2.36.91,19.45,19.45,0,0,0,4.76-.16h0l2.86-.61a1.83,1.83,0,0,0,1.45-1.9v0"/><path class="cls-5" d="M42.44,395H34.71a8,8,0,0,1-4.4-2.09"/><path class="cls-5" d="M46.2,390.91l-3.76,4.14s-1,3.3.54,4.43"/><path class="cls-5" d="M46.2,392.27l-3,3.21s-1.38,2.64,1.18,3.4"/><path class="cls-5" d="M55.33,275.25l-11.57,4.88a7.07,7.07,0,0,1-3.44.35"/><path class="cls-12" d="M309.2,393.23h2.72v-1.4l5.79-.34s.61,1.33,1.13-13.06c.28-.31.67-.66,2.24-1v-2.92l-1-.69-.2-13.64-.5-33.08s-.6-23-.67-25a7.31,7.31,0,0,0-1.15-3.54L310.4,288.1l-8-3.69.41-8.19.9-.21s.14-.41.42-1.17a.82.82,0,0,1,1-.62s25.42-.28,31.73-.24,9.92,2.13,9.92,2.13,6.55,4.58,8.65,6.07a5.41,5.41,0,0,1,2.38,3.13s0,2.56,0,3.69-1.2,1.21-2.24,1.24l-10.27.45s-6.55,7.12-7.82,8.36a3.16,3.16,0,0,0-1,2.62l-3,72.77-.83.6s0,1.92.1,3a3.5,3.5,0,0,1,1.94,1S335.9,396.4,336,398.6s-2.63,2.27-2.63,2.27-17.22-.45-18.46-.45-1.66-1.49-1.66-1.49h-7.37"/><path class="cls-5" d="M342.58,274.63l4.13,1.89s4.71,2.51-2.86,2.72-26.18.14-26.18.14a20.36,20.36,0,0,0-12.61-5.17"/><path class="cls-5" d="M357.25,284.15c-.84.65-5.2.87-5.2.87s-16.73.42-22.42.42-8-1.66-8-1.66l-4-2.4v-2"/><polyline class="cls-5" points="317.67 281.38 314.96 280.63 303.68 276"/><path class="cls-5" d="M310.4,288.13s.79.46,3.51,1.73a15.09,15.09,0,0,0,5.45.83h25.87"/><path class="cls-5" d="M313.59,292.72a14.24,14.24,0,0,0,2.78,1.27,12.48,12.48,0,0,0,3.93.63s13.44.26,17,.26,4.54-.53,4.54-.53"/><path class="cls-5" d="M321.11,374.51a36.11,36.11,0,0,0,4.83.93c4.61.8,6.61-.4,6.61-.4"/><path class="cls-5" d="M318.81,378.47a7.35,7.35,0,0,0,2.24,1.16,19.21,19.21,0,0,0,8.27,1.45,8.47,8.47,0,0,0,5.27-2"/><path class="cls-5" d="M321.08,377.48v0a1.83,1.83,0,0,0,1.44,1.89l2.87.61h.05a19.45,19.45,0,0,0,4.76.16,5.88,5.88,0,0,0,2.35-.91c.6-.28.1-1.25.1-1.25"/><path class="cls-5" d="M327.81,393.9a8,8,0,0,1-4.4,2.09h-7.73"/><path class="cls-5" d="M315.14,400.44c1.55-1.12.54-4.43.54-4.43l-3.77-4.14"/><path class="cls-5" d="M313.75,399.85c2.55-.77,1.18-3.41,1.18-3.41l-3-3.21"/><path class="cls-5" d="M317.8,281.44a7.18,7.18,0,0,1-3.44-.34l-11.58-4.89"/><line class="cls-5" x1="150.29" y1="438.98" x2="197.87" y2="438.98"/><line class="cls-10" x1="151.5" y1="442.26" x2="196.37" y2="442.26"/><path class="cls-7" d="M191.35,453.56v-2.73a84.09,84.09,0,0,1-14.69,1.29c-9.57.16-13.73-1.29-13.73-1.29l-.08,2.65"/><rect class="cls-6" x="155.84" y="91.09" width="39.54" height="16.79"/><rect class="cls-6" x="145.82" y="189.42" width="62.08" height="16.79"/><rect class="cls-6" x="155.6" y="246.8" width="41.62" height="16.79"/><rect class="cls-6" x="155.6" y="291.83" width="41.62" height="16.79"/><rect class="cls-6" x="155.6" y="338.16" width="41.62" height="13.71"/><rect class="cls-6" x="155.6" y="424.58" width="41.62" height="16.79"/><text class="cls-14" transform="translate(159.55 103.76)">60cm</text><text class="cls-14" transform="translate(147.55 204.27)">52 - 56cm</text><text class="cls-14" transform="translate(159.55 259.73)">53cm</text><text class="cls-14" transform="translate(159.55 305.5)">32cm</text><text class="cls-14" transform="translate(159.55 349.24)">46cm</text><text class="cls-14" transform="translate(159.55 438.98)">59cm</text><line class="cls-15" x1="65.33" y1="114.2" x2="287.2" y2="114.2"/><line class="cls-16" x1="56.3" y1="120.17" x2="56.3" y2="108.69"/><polygon class="cls-17" points="56.64 114.43 66.58 120.17 66.58 108.69 56.64 114.43"/><line class="cls-16" x1="292.17" y1="119.36" x2="292.17" y2="107.88"/><polygon class="cls-17" points="292.17 113.63 282.23 119.36 282.23 107.89 292.17 113.63"/><line class="cls-18" x1="73.15" y1="264.01" x2="280.57" y2="264.01"/><line class="cls-16" x1="67.37" y1="270.52" x2="67.37" y2="258.01"/><polygon class="cls-17" points="67.74 264.27 78.57 270.51 78.57 258.01 67.74 264.27"/><line class="cls-16" x1="286.04" y1="269.9" x2="286.04" y2="257.39"/><polygon class="cls-17" points="285.68 263.65 274.84 269.9 274.84 257.39 285.68 263.65"/><line class="cls-16" x1="116.52" y1="308.48" x2="233.82" y2="308.48"/><line class="cls-16" x1="110.54" y1="314.99" x2="110.54" y2="302.48"/><polygon class="cls-17" points="111.1 308.74 121.94 314.99 121.94 302.48 111.1 308.74"/><line class="cls-16" x1="240.54" y1="314.99" x2="240.54" y2="302.48"/><polygon class="cls-17" points="240.68 308.73 229.84 314.98 229.84 302.48 240.68 308.73"/><line class="cls-19" x1="77.54" y1="352.95" x2="288.13" y2="352.95"/><line class="cls-16" x1="69.04" y1="359.47" x2="69.04" y2="346.95"/><polygon class="cls-17" points="69.04 353.21 79.88 359.46 79.88 346.95 69.04 353.21"/><line class="cls-16" x1="291.89" y1="359.47" x2="291.89" y2="346.95"/><polygon class="cls-17" points="291.52 353.21 280.69 359.46 280.69 346.95 291.52 353.21"/><line class="cls-20" x1="53.46" y1="442" x2="312.41" y2="442"/><line class="cls-21" x1="40.87" y1="448.51" x2="40.87" y2="338.16"/><polygon class="cls-17" points="41.24 442.26 52.08 448.5 52.08 436 41.24 442.26"/><line class="cls-21" x1="318.19" y1="448.51" x2="318.19" y2="338.16"/><polygon class="cls-17" points="317.83 442.26 306.99 448.5 306.99 436 317.83 442.26"/><line class="cls-22" x1="60.54" y1="210.94" x2="300.16" y2="210.94"/><line class="cls-16" x1="50.91" y1="287.44" x2="50.91" y2="204.94"/><polygon class="cls-17" points="50.92 211.2 61.76 217.45 61.76 204.94 50.92 211.2"/><line class="cls-16" x1="309.2" y1="287.44" x2="309.2" y2="204.06"/><polygon class="cls-17" points="308.83 210.31 298 216.56 298 204.06 308.83 210.31"/><path class="cls-12" d="M125.32,32s-4.65-16.19.64-19,9.18.11,20.12,4.47,21.18,6.7,32.71,5.88,23.88-3.29,30-6.47,15.53-3.41,14.59,7.65-3.65,19.88-2.95,26.82S225,68.07,222.9,72.3s-3.17,7.41-20.11.71-21.18-6.71-27.89-7.18-23.05,2.12-34.7,8-17.65,1.88-16.59-5.18A189.46,189.46,0,0,0,126,45C126.32,35.12,125.32,32,125.32,32Z"/><path class="cls-4" d="M228,44.39l-7.27-.76s-.53,6.11-.19,8.32l8.88-.47Z"/><polygon class="cls-4" points="119.61 43.63 126 43.63 125.59 51.95 117.14 51.95 119.61 43.63"/></g></g></svg>