<svg xmlns="http://www.w3.org/2000/svg" viewBox="0 0 488.85 623.3"><defs><style>.cls-1,.cls-10,.cls-4,.cls-5,.cls-7,.cls-8{fill:#fff;}.cls-1,.cls-2{stroke:#010102;}.cls-1,.cls-12,.cls-13,.cls-14,.cls-16,.cls-2,.cls-3,.cls-4,.cls-5,.cls-6,.cls-7,.cls-9{stroke-miterlimit:10;}.cls-11,.cls-12,.cls-13,.cls-14,.cls-16,.cls-2,.cls-3,.cls-6,.cls-9{fill:none;}.cls-2,.cls-6,.cls-7{stroke-width:0.5px;}.cls-10,.cls-11,.cls-12,.cls-3,.cls-4,.cls-5,.cls-6,.cls-7,.cls-9{stroke:#010101;}.cls-3{stroke-width:0.25px;}.cls-12,.cls-4{stroke-width:0.75px;}.cls-10,.cls-11{stroke-linejoin:round;}.cls-13,.cls-14,.cls-16{stroke:#e52624;}.cls-13{stroke-width:1.53px;}.cls-14{stroke-width:1.5px;}.cls-15{fill:#e52624;}.cls-16{stroke-width:1.52px;}.cls-17{fill:#e7e6e6;}.cls-18{isolation:isolate;font-size:12.62px;fill:#e52620;font-family:Roboto-Medium, Roboto;font-weight:500;}</style></defs><title>Lateral </title><g id="Camada_2" data-name="Camada 2"><g id="Camada_1-2" data-name="Camada 1"><g id="Camada_12" data-name="Camada 12"><path class="cls-1" d="M222.64,290.4v-3.52a2.7,2.7,0,0,1,1.38-2.76L229.4,281s1.38-1.43,5.63-1.59,56.37-4,90.11-.83a80.78,80.78,0,0,1,7.59,4.16,2.27,2.27,0,0,1,1.13,2.2v3s.06,1.25-2.26,1.41-39.43,1.1-39.43,1.1l-66.83,1A3.74,3.74,0,0,1,222.64,290.4Z"/><path class="cls-2" d="M226.63,282.6S318,280.81,327.34,281"/><path class="cls-2" d="M230.6,280.26s57.35-3.7,93.32-.89a9.12,9.12,0,0,1,2.08.89c1.52.8,6.28,3.75,6.28,3.75s.46.37,1.31-.47"/><ellipse class="cls-2" cx="319.92" cy="285.78" rx="3.25" ry="1.93"/><ellipse class="cls-3" cx="319.92" cy="285.78" rx="2.63" ry="1.57"/></g><g id="mecanismo"><polygon class="cls-4" points="194.99 465.84 194.99 462.77 207.57 462.08 207.57 466.68 207.57 471.37 195.56 469.87 194.99 465.84"/><path class="cls-5" d="M294,407.93l-2.68,4.66s.49,9-1.16,11.19c-1.43,1-19.46,11.2-19.46,11.2l-.56,2.68.72,1.8a2,2,0,0,1-.72,2.2c-1.16.83-9.26,5-9.26,5s5.62,6,6.28,8.38a5,5,0,0,1-.54,2.11l-.44.66a3.37,3.37,0,0,1-1.94,0l-3.41-1.21.77,18.47s.21.5-1.27,1.66l-2.69,2.09s-5,3.14-15.94,1.71a57.81,57.81,0,0,1-5.29-2.48l-2.87-21.68-1.79.23a1.4,1.4,0,0,1-1.84-.75.13.13,0,0,1,0-.08c-.67-1.38-.95-2-.95-2l-1.79.61s-1.38.61-4-.27a11.29,11.29,0,0,1-1-1.88l-6.27,2.59-1.63,4.58a4.37,4.37,0,0,1-2.18,2.18c-1.4.47-4.48,1.18-4.48,1.18s-11.1,1-15.58.06c-1.36-.37-2.8-.59-3.5-2.21s-4.07-11.65-4.41-13.38-1-3.16.77-4.37,15.88-13.78,43.78-25.31c5.84-5.84,1.79-7.83,1.79-7.83l-12-.77s-2.1-.11-2.69,1.33-2.15,3.3-4.19,3.36-4.63-.28-5.37-2.54-1.05-3.29-2.33-3.76"/><path class="cls-6" d="M291.33,412.59l-5.68,9.63s-2.93,4.31-8.07,4.41-10.42-.94-14-3.69-5.88-8-5.88-8l-2.15-7.3"/><path class="cls-6" d="M183.63,445.59s1.79,1.24,16.68-4.64,32.79-12.87,32.79-12.87,8.61-3.37,9.86-12.42.9-8,.9-8"/><path class="cls-6" d="M189.71,462.07a16.15,16.15,0,0,0,14.21-7.74c3.58-1.62,71.75-29.8,83.52-28.91"/><line class="cls-6" x1="222.13" y1="452.24" x2="270.71" y2="434.98"/><line class="cls-6" x1="228.96" y1="453.78" x2="270.45" y2="438.43"/><line class="cls-6" x1="233.6" y1="456.37" x2="261.23" y2="447.08"/><path class="cls-7" d="M260.89,446.72s-7.5-6.43-8.67-7.68c.58-1,3.89-7.86,3.89-7.86a8.42,8.42,0,0,0-1.61-6.92c-2.58-3-8.51-2.65-10.61-.37,0,0-3.09,5.52-5.06,20.81.08,1.69,1.4,5.59,5.66,5.51,3.59,1.33,16.4,6.38,16.4,6.38"/><path class="cls-6" d="M238.87,444.12s2-6.5,7.26-4.23a4.57,4.57,0,0,1,2.77,3.64c0,1.26.45,5.26-4.49,6.68"/><path class="cls-6" d="M248.28,441.68s2.1-2.61,3.94-2.69"/><path class="cls-6" d="M248.52,442.07s1.5.72,8.57,5.31c1,.62,3.52,2.78,4.39,3.49,3.45,2.84,4.55,4.06,5.61,4"/><path class="cls-6" d="M236.47,478.05s14,3.72,25.09-2.48"/><polyline class="cls-3" points="238.11 478.39 235.16 456.21 234.31 456.13 237.18 478.21"/><polyline class="cls-3" points="238.83 478.39 235.89 456.37 236.67 456.37 239.72 478.67"/><polyline class="cls-3" points="241.08 478.85 238.43 456.37 239.54 456.37 242.3 478.98"/><polyline class="cls-3" points="243.69 479.08 241.41 456.37 242.92 456.37 245.45 479.16"/><polyline class="cls-3" points="247.03 479.15 244.61 456.13 246.19 456.13 248.69 479.08"/><polyline class="cls-3" points="250.27 478.95 248.21 456.13 249.71 455.95 252 478.67"/><polyline class="cls-3" points="253.49 478.47 251.63 455.69 253.1 455.47 255.2 478.08"/><polyline class="cls-3" points="256.46 477.72 254.72 455.47 255.89 455.25 257.55 477.36"/><polyline class="cls-3" points="258.62 476.96 256.93 455.03 258.21 455.47 259.85 476.43"/><polyline class="cls-3" points="260.68 476.02 259.43 456.02 260.19 456.31 261.59 475.45"/><circle class="cls-6" cx="274.98" cy="417.58" r="6.07"/><circle class="cls-3" cx="274.98" cy="417.58" r="5.34"/><circle class="cls-6" cx="210.71" cy="408.5" r="2.26"/></g><polygon class="cls-8" points="337.96 541.54 337.96 548.3 349.78 547.66 349.44 541.68 337.96 541.54"/><path class="cls-8" d="M281.07,530.58s3.59,2.06,3.75,2.33,8.63,1.37,8.63,1.37,16.7-7.93,10.93-21.5c-.89-2.06-1.39-5.47-3.32-6.5-6.12-3.28-16.2-6.56-16.2-6.56s-5.86-2.55-9.65-1.09c-.43.17.3,3.49-.1,3.69a6.59,6.59,0,0,0-3.71,4.24c-1.8,4.66-2.77,9,2.76,21.41C274.87,529.59,278.58,529.59,281.07,530.58Z"/><path class="cls-8" d="M112.33,528.12l1.13,1.61s1.38.41,1.89.52,5-.45,5-.45l.46-.17,1.95-4,4.09-1,.27,2.1.9,1.2,1.44.78,5.05-.55,1.8-1.36,1-1.91-1.52-21.37L135,500l-2.76-2.47-2.12-.06-.78-1.27-7.68-.65a4.52,4.52,0,0,0-1.31.29l.35,2.95-8.87.77-2.07,3-.76,3.24v4.86Z"/><path class="cls-8" d="M33.42,574.1l6.09,5.11,5.92,4.54s5.48,1.52,9.28.52a17.13,17.13,0,0,0,6.5-3.44l5.38-6.16,2.76-5.37.53-4.63-.9-5.6-1.51-3.13-2.28-2.61-1-1.88V538.83H52.53l-.28,5.37-2.09-.2-3.8-.23L41.74,545,36,548.49,32.28,553s-3.13,5.58-3.59,10,3.22,9.6,3.22,9.6Z"/><path class="cls-9" d="M40.24,579.7a26.44,26.44,0,0,1-8.9-8,16.38,16.38,0,0,1-.77-15.24c3.82-8.35,8.06-10.55,13-12.17a11.68,11.68,0,0,1,8.6.33"/><path class="cls-5" d="M193.94,613.15s.17,8.21-.05,8.87a1.34,1.34,0,0,1-1,.78H187.1c-2,0-2-1.66-2-1.66s.12-34,.12-36.45,1.87-2,1.87-2h5.84l12.3-.1,5.46.1s2.09-.1,2.09,1.71.1,36.59.1,36.59-.11,1.59-1.05,1.59l-6.5,0s-1.55-1-1.44-4.9a28.06,28.06,0,0,0,0-4.3"/><polyline class="cls-5" points="192.89 576.04 192.89 582.7 193.72 583.47 193.94 613.14 204.09 613.14 204.09 583.15 205.19 582.6 205.31 576.04"/><path class="cls-5" d="M350,547.91a11.68,11.68,0,0,1,8.6-.33c5,1.62,9.19,3.83,13,12.17a16.41,16.41,0,0,1-.78,15.24,26.35,26.35,0,0,1-8.9,8"/><path class="cls-5" d="M365,580.5a16.89,16.89,0,0,0,5.78-13.12,22.23,22.23,0,0,0-6.27-13.4c-6-6.34-14.5-5.19-14.5-5.19l-6.81.7-2.47,1.45s1.17.51,1.24.51"/><path class="cls-5" d="M363.55,581.72c3.64-4.36,3.64-10.48,3.64-10.48s1.1-7-6.62-15-19.29-4.24-19.29-4.24l-2.78,3.05"/><path class="cls-5" d="M217.48,489.8l42.24-5.92a4.37,4.37,0,0,1,2.21-1.59c1.21-.22,16.38-2.21,16.38-2.21h5.37a3.58,3.58,0,0,1,2.15,2l1.11,1.93,1.38,2.75.71,11.31s-3.58,1.6-11.14,1.05c0,0-4.63-.5-5.51-1.88L252,503l59.91,13.19,1.27-.77,36.45,8.06.38,1.21a3,3,0,0,1,2.37,1.79l1,16.72-6.72,2L338,543.87a5.26,5.26,0,0,1-3.41-2.53V537.2L231.82,521.07s-17.09-1.6-19.52,4.24l-3.25,49.9L199.68,577l-10.76-2,.67-50s1-5.68-17.87-4.8L67.07,533.88v3.53s.11,2-3.42,3a58.86,58.86,0,0,1-9.16,1.27L48,539.2,49.22,524a3.21,3.21,0,0,1,2.32-3.09l.89-1.33,37.14-7,.89,1,61.21-11.86-18.82-6.07s-1.43,2.32-11,1.6c0,0-5-.49-5.67-1.6l.77-10.58,3.41-6.73a4.67,4.67,0,0,1,3.64-1L141.51,480a11.53,11.53,0,0,1,4.48,2.27l39.57,7"/><path class="cls-5" d="M207.62,462a12.65,12.65,0,0,1,6.61,1.53l.33,3.77a1.86,1.86,0,0,1,.94.89l.16,2.63a3.15,3.15,0,0,1,1.22,1.09l.6,21.86c1,1.33.56,2.08.56,2.08-2.87,3.62-15.88,3.62-15.88,3.62-15.77-.1-16.93-3.57-17.1-4.62a1.34,1.34,0,0,1,.83-1.43v-2.87s.5-17.73.55-18.53,1.22-1,1.22-1L188,468c0-.5,1-.59,1-.59l.33-3.72c.38-1,5.38-1.74,5.38-1.74v1a28.33,28.33,0,0,0,12.95,0Z"/><path class="cls-9" d="M188.38,467.82s15.18,6.35,26.57,0"/><path class="cls-9" d="M187,471.28s.85,4.78,15.55,4.57,13.71-4.93,13.71-4.93"/><path class="cls-9" d="M118.39,482.63s-.15.84.47,1.07,15.59,3.71,15.59,3.71a2,2,0,0,0,1.47-.48,44.79,44.79,0,0,0,2.17-4s.89-1.69,2-1.32c0,0,4,.41,5.55.59"/><path class="cls-9" d="M259.91,484a5.52,5.52,0,0,0,2-.23c1.07-.33,3.59-1.13,4.82.44a7,7,0,0,1,1.43,3.13,2,2,0,0,0,2,1.9l.25,0c2.09-.33,16-2.75,16-2.75s1-.4.9-1.32"/><path class="cls-9" d="M350.32,524.92s-1.94.05-3.53,3.81a2.89,2.89,0,0,1-3,1.79l-34.51-7.17s-1.55-.05-1.33-1.87c0,0,.39-2.43,1.11-2.76a22.12,22.12,0,0,0,2.86-2.43"/><path class="cls-9" d="M191.33,559l3.7-2.38a2.77,2.77,0,0,1,2.2-.61c1.54.12,3.75.12,3.75.12a4,4,0,0,1,2.76.77l3.69,2.69,1.5-16.13-.4-1.6s-1.59-2.87-4.29-3.41l-7.12-.23a5.71,5.71,0,0,0-3.47,1.27,22.3,22.3,0,0,0-2.49,2.37L191,559.29Z"/><path class="cls-9" d="M51.54,520.9s2.09.94,3.53,4.48a3,3,0,0,0,3.58,1.6c2.76-.56,34.05-5.51,34.05-5.51s1.32-.5,1.16-1.6-.38-2.82-.38-2.82l-2-2.42-1.27-1.16"/><polyline class="cls-9" points="49.87 521.84 55.38 528.45 54.77 541.61"/><path class="cls-6" d="M55.71,528.45,167.6,510.86s15.45-2.21,23,3.83l-1,47"/><line class="cls-6" x1="206.12" y1="499.26" x2="204.44" y2="538.28"/><line class="cls-6" x1="196.42" y1="499.26" x2="196.42" y2="538.07"/><polyline class="cls-9" points="351.92 525.64 345.85 533.03 346.07 544.72"/><path class="cls-6" d="M345.3,533l-114-22s-15.88-3.2-19.64,3.52l-3.74,45"/><line class="cls-6" x1="309.02" y1="518.74" x2="215.4" y2="497.52"/><line class="cls-9" x1="252.06" y1="502.97" x2="217.71" y2="495.1"/><line class="cls-6" x1="217.71" y1="493" x2="267.01" y2="484.61"/><line class="cls-9" x1="233.36" y1="498.46" x2="287.51" y2="486.99"/><path class="cls-9" d="M272.62,497.24l10.12-2.92s1.79-.72,2.54.38"/><line class="cls-9" x1="151.65" y1="501.45" x2="184.66" y2="494.76"/><line class="cls-6" x1="168.41" y1="497.7" x2="117.32" y2="484.91"/><path class="cls-9" d="M132.68,495.53l-10.44-3.45s-2-.59-2.57.15"/><path class="cls-9" d="M193.06,576.86s6.73,3.86,12,0"/><path class="cls-5" d="M332.73,572s-2.94-11.54,6.47-17,20.06,2.57,22.35,7.13,8.19,17.27-3.76,24.11S333.68,578.64,332.73,572Z"/><path class="cls-10" d="M338,544.05s.45,2.15,5.19,2.32,5.62,0,6.27-1.79l.35,0v4.89s-7.34.2-9.59,3.45L338,555.8V544.05Z"/><line class="cls-9" x1="366.75" y1="575.09" x2="369.72" y2="573.33"/><path class="cls-9" d="M335.61,570.49s-1.19-11.49,9.06-13,15.06,9.86,15.06,9.86,4.69,13-6.27,16.37C341.72,587.34,335.72,574.2,335.61,570.49Z"/><path class="cls-9" d="M341.81,569.91a7.73,7.73,0,0,0,6.21,7.35c6.27,1.59,5.44-7.27,5.44-7.27s-1.44-5.11-6.51-5.38S341.81,569.91,341.81,569.91Z"/><path class="cls-9" d="M345.09,564.9s1.31-1.11,2-1a6.47,6.47,0,0,1,6.58,3.12c3.19,5.08-1.84,9.74-1.84,9.74"/><polyline class="cls-6" points="338.28 561.38 339.29 561.77 343.92 564.91 344.69 564.46 341.88 560.16 340.08 559.2"/><path class="cls-6" d="M341.89,558.27l1.08.82,2.47,3.83s1.15.26,1.22-.56h0l-.89-3.58-.9-1.25"/><path class="cls-6" d="M346.46,557.31l.66,1.15.9,3.9s.77.84,1.31.22l.62-3.47-.26-1.18"/><path class="cls-6" d="M351.4,558.58l.08.89-.6,3.8s.6.8,1.11.65l1.79-2.81.31-1"/><path class="cls-6" d="M355.33,561.42l-.21.9-1.74,2.46s0,1.17,1.08,1.14l3-2.06"/><path class="cls-6" d="M358.55,565.58l-3.12,1.65s-.9,1.37.47,1.56l4-1"/><path class="cls-6" d="M360.31,570.43l-3.71-.2s-1.64.58-.28,1.52l4.4,1.79"/><path class="cls-6" d="M359.6,578.46l-1.07-1.38-3.2-2.68s-.68-1.49.62-1.25,4.43,2.48,4.43,2.48"/><path class="cls-6" d="M356.05,582.56,356,580.9a3.6,3.6,0,0,0-.55-1.58c-.48-.64-1.55-2.29-1.55-2.29s-.63-2.12,1.32-1.25l2.56,3.05.82,1.53"/><path class="cls-6" d="M351.44,584.07l.48-1.62a4.06,4.06,0,0,0-.09-2.13l-.65-2.29s.33-1.4,1.49-.52l1.23,2.37a4.23,4.23,0,0,1,.59,1.61l.1,1.58"/><path class="cls-6" d="M346.57,583.79l.85-1.27a3.22,3.22,0,0,0,.54-1.83l.46-3.06"/><polyline class="cls-6" points="349.62 577.67 350.57 581.53 349.82 584.08"/><polyline class="cls-6" points="341.86 581.3 343.1 580.26 345.41 576.58"/><polyline class="cls-6" points="346.88 577.22 346.13 581.39 344.22 582.87"/><polyline class="cls-6" points="338.52 577.34 339.93 576.11 342.96 574.23"/><polyline class="cls-6" points="344.24 575.65 342.16 578.54 341.05 580.17"/><path class="cls-6" d="M337.6,575.63l1.12-.8a6.89,6.89,0,0,1,1.49-.8,13.58,13.58,0,0,0,2-1.1"/><polyline class="cls-6" points="341.86 571.46 339.34 571.66 336.42 572.56"/><polyline class="cls-6" points="335.81 570.56 338.52 569.93 341.53 569.84"/><polyline class="cls-6" points="341.86 568.63 337.75 567.34 335.89 567.25"/><polyline class="cls-6" points="336.18 565.34 338.13 565.58 342.19 567.03"/><polyline class="cls-6" points="342.77 566.02 339.46 563.39 337.42 562.91"/><path class="cls-9" d="M69.46,568.79s2.94-11.54-6.47-17-20.08,2.57-22.35,7.17-8.23,17.19,3.73,24S68.46,575.41,69.46,568.79Z"/><path class="cls-9" d="M64.18,540.82S63.74,543,59,543.13s-5.63,0-6.27-1.79"/><line class="cls-9" x1="64.18" y1="541.37" x2="64.18" y2="552.95"/><path class="cls-9" d="M64,552.06c-2.91-5.25-11.58-5.8-11.58-5.8v-4.89"/><path class="cls-9" d="M60.87,548.81s-11.58-3.75-19.29,4.25S35,568,35,568s0,6.12,3.63,10.47"/><path class="cls-9" d="M52.06,545.56s-8.5-1.16-14.5,5.19a22.28,22.28,0,0,0-6.28,13.39,16.91,16.91,0,0,0,5.8,13.12"/><line class="cls-9" x1="35.4" y1="571.86" x2="32.42" y2="570.09"/><path class="cls-9" d="M66.52,567.23s1.19-11.48-9.06-13-15.06,9.86-15.06,9.86-4.69,13,6.28,16.37C60.43,584.1,66.43,571,66.52,567.23Z"/><path class="cls-9" d="M60.34,566.7a7.75,7.75,0,0,1-6.21,7.35c-6.28,1.58-5.44-7.28-5.44-7.28s1.43-5.11,6.5-5.38S60.34,566.7,60.34,566.7Z"/><path class="cls-9" d="M57.06,561.65s-1.31-1.09-2-1a6.45,6.45,0,0,0-6.57,3.13c-3.2,5.07,1.79,9.74,1.79,9.74"/><polyline class="cls-6" points="63.88 558.15 62.86 558.53 58.23 561.68 57.46 561.22 60.27 556.92 62.06 555.96"/><path class="cls-6" d="M60.26,555.07l-1.08.82-2.46,3.82s-1.16.27-1.22-.55h0l.89-3.58.9-1.26"/><path class="cls-6" d="M55.69,554.07,55,555.23l-.9,3.9s-.77.84-1.3.21l-.62-3.47.22-1.19"/><path class="cls-6" d="M50.75,555.33l-.08.9.6,3.83s-.6.79-1.11.64l-1.8-2.81-.31-.95"/><path class="cls-6" d="M46.79,558.18l.21.9,1.79,2.46s0,1.18-1.08,1.14l-3-2.06"/><path class="cls-6" d="M43.6,562.34,46.72,564s.9,1.38-.47,1.57l-4-1"/><path class="cls-6" d="M41.83,567.23l3.72-.2s1.63.58.27,1.52l-4.39,1.8"/><path class="cls-6" d="M42.57,575.22l1.07-1.39,3.18-2.69s.68-1.48-.63-1.24-4.42,2.48-4.42,2.48"/><path class="cls-6" d="M46.1,579.32l.09-1.65a3.4,3.4,0,0,1,.55-1.58c.48-.65,1.54-2.3,1.54-2.3s.64-2.12-1.31-1.25l-2.56,3.05-.83,1.49"/><path class="cls-6" d="M50.71,580.83l-.47-1.61a3.89,3.89,0,0,1,.09-2.14L51,574.8s-.33-1.42-1.49-.53l-1.23,2.37a4.39,4.39,0,0,0-.59,1.62l-.11,1.58"/><path class="cls-6" d="M55.59,580.55l-.9-1.26a3.31,3.31,0,0,1-.55-1.84l-.42-3.05"/><polyline class="cls-6" points="52.53 574.43 51.57 578.29 52.33 580.85"/><polyline class="cls-6" points="60.29 578.05 59.05 577.02 56.74 573.35"/><polyline class="cls-6" points="55.27 573.98 56.02 578.15 57.93 579.64"/><polyline class="cls-6" points="63.63 574.1 62.22 572.87 59.18 571"/><polyline class="cls-6" points="57.92 572.41 59.99 575.3 61.1 576.93"/><path class="cls-6" d="M64.55,572.4l-1.12-.82a7.88,7.88,0,0,0-1.49-.79,13.18,13.18,0,0,1-2-1.1"/><polyline class="cls-6" points="60.29 568.22 62.81 568.43 65.73 569.32"/><polyline class="cls-6" points="66.33 567.33 63.63 566.7 60.62 566.61"/><polyline class="cls-6" points="60.29 565.39 64.4 564.11 66.26 564.01"/><polyline class="cls-6" points="65.96 562.1 64.02 562.34 59.96 563.79"/><polyline class="cls-6" points="59.39 562.78 62.69 560.16 64.74 559.67"/><polyline class="cls-9" points="212.97 595.17 213.74 595.17 213.74 609.67 213.07 609.67"/><polyline class="cls-9" points="184.79 595.49 184.02 595.49 184.02 609.99 184.68 609.99"/><path class="cls-9" d="M275.21,499s0,2,5.08,2.1,4.63-1.8,4.63-1.8"/><line class="cls-9" x1="275.11" y1="499.17" x2="275.11" y2="507.78"/><path class="cls-9" d="M285.3,499.28l.17,5.24a19.06,19.06,0,0,0-4.75,4.73"/><path class="cls-9" d="M275,502.32s-2.87,2-3.76,4.62"/><path class="cls-9" d="M285.47,499.89l14,5.18s4.19,2,5.18,9.27"/><path class="cls-9" d="M285.47,504.5s3.78-2.49,7.48-1.91"/><path class="cls-9" d="M288.94,510.83s2.38-3.5,6.21-3.28a8,8,0,0,1,7.17,6.18"/><line class="cls-9" x1="290.93" y1="509.12" x2="291.16" y2="511.27"/><polyline class="cls-9" points="292.73 508.14 292.26 509.34 292.39 511.58"/><polyline class="cls-9" points="294.82 507.78 293.99 508.85 293.16 511.72"/><polyline class="cls-9" points="296.44 507.96 295.37 509.21 294.57 511.96"/><polyline class="cls-9" points="295.16 512.17 296.53 510 298.21 508.67"/><polyline class="cls-9" points="299.63 509.58 297.75 510.82 296.6 512.45"/><polyline class="cls-9" points="297.74 512.96 299.38 511.67 301.06 511.27"/><polyline class="cls-9" points="299.78 513.3 300.53 512.86 301.84 512.78"/><path class="cls-9" d="M273.88,527.7s2.42,2.76,7.42,2.69"/><path class="cls-9" d="M277.15,528.14s.47,1.65,4,2.27a16.34,16.34,0,0,0,8.71,3.79c5.38.63,7.83-2.6,7.83-2.6"/><path class="cls-9" d="M282.74,529.2s1.47,2.89,6.95,5.08"/><path class="cls-9" d="M280.28,528.63a7,7,0,0,0,.89,1.79"/><path class="cls-11" d="M121.91,507.43c.14-2.27-1.61-6.2-1.61-6.2l.22-4s.44,2.09,5.44,1.84,4.07-2.19,4.07-2.19l.38,5.71a8.47,8.47,0,0,1-.56,3.27"/><path class="cls-9" d="M120.23,498.81l-8.07.77s-3.58,1.13-3.34,10.14"/><path class="cls-9" d="M116.06,508.39s0-7.16-3.94-8.81"/><path class="cls-9" d="M136,504.54c-.66-6.07-4.23-7-4.23-7l-1.39.15"/><path class="cls-9" d="M120.3,501.23a9,9,0,0,0-2.5-2.06"/><path class="cls-9" d="M114.45,508.69s-.13-4.3-2.68-5.77-2.61,6.73-2.61,6.73"/><path class="cls-9" d="M110,504.3l1.88.84A3.3,3.3,0,0,1,113,506.8c.2,1,.39,2.06.39,2.06"/><path class="cls-9" d="M109.3,507.33a4.56,4.56,0,0,1,2.78,1l.29.74"/><path class="cls-9" d="M122.24,526.81a9,9,0,0,1-1.65,3s-4.63.73-6,.47-2.31-2.2-2.31-2.2"/><path class="cls-9" d="M117.27,527.32a3.58,3.58,0,0,1-2.52,2.93"/><path class="cls-9" d="M126.81,526.16a4,4,0,0,0,2.61,2.63l5.22-.43s2.5-1.66,2.35-3.39"/><path class="cls-9" d="M132,525.49s-.48,2.64-2.54,3.3"/><path class="cls-9" d="M189.38,463.78s14.15,5.07,24.87,0"/><path class="cls-5" d="M110.88,375s-17-41.8-32.14-91.11-25.06-73.67-26.12-98.37c0,0,4.7-34.94,4.7-37.06S64.15,84.9,63.68,22.55c0,0-1.89-20.27,19.76-21.42s32.24,84.4,33.65,86.44,2.59,4.15,19.06,20.62,14.59,35.77,7.53,59.06.23,49.65,25.64,77.88,35.89,42.45,26.83,64.37c0,0,6.75,26.52,4.85,32.16a17.16,17.16,0,0,1-5.83,8.3v1.94L151.72,375Z"/><path class="cls-5" d="M195.17,351.9,229,346.67s12.16-7.68,15.71-11.35,12.37-19.48,55.6-19.95c0,0,17.64,2.23,32.7,13.41A68.14,68.14,0,0,1,369.09,348s19.53,22.12,12.23,50.59c0,0-.35,8.68-10.11,16.63,0,0-3.77,5.13-27.06,5s-225.78,5.21-225.78,5.21-5.4-.57-6-7.21-5-32.06-5-32.06-.92-8.37,3.56-11.16,40.84,0,40.84,0Z"/><path class="cls-5" d="M229,346.67s73.54-15.89,104-17.89"/><path class="cls-5" d="M366.07,417.84s8.78-38.63-7.89-53c-14.74-12.74-43.5-27.44-73.44-17s-43.3,32.19-53.36,36-17,8.4-40.71,6.61S160.38,389.3,151.72,375c0,0,2.15,2.79,33.88,6.14s48-9.8,48-9.8c25.12-23.61,42.1-29.44,42.1-29.44,43.92-13.66,79.21,11.62,91,25.08,11.05,12.59,4.47,48.23,4.47,48.23"/><g id="Camada_10" data-name="Camada 10"><path class="cls-5" d="M102.64,381.52l4,31.54s.11,9.65,10.53,9.71,77.84,0,77.84,0a13.49,13.49,0,0,0,7.35-7.32,18.27,18.27,0,0,0,1.39-10.29s-.89-4.92-4.66-7.42-10-3.53-10-3.53l-8.6-.15a29.72,29.72,0,0,1-19.27-10.22,126,126,0,0,1-12-16s-4.27-8.53-13.38-10.66l-1.4-2.5,1.54-1-26-83.89a4.25,4.25,0,0,0-2.83-2.07,47.28,47.28,0,0,1-6-2.32s-8-4.14-14.06,5.24a31.54,31.54,0,0,1-3.75,5,3,3,0,0,0,0,2.32l24.65,84.23L109,362l-.52,4.09S102.05,373.4,102.64,381.52Z"/><path class="cls-6" d="M108.45,366l1.47,5.88s-4.41,2.5-3.68,10.66,3.68,30.73,3.68,30.73a7,7,0,0,0,7.06,5.66c6.1,0,75.5.95,75.5.95s4.56-1.61,4.77-6.1a13.69,13.69,0,0,0-1.54-7.35s-1.54-2.06-3-2.2S177,404.59,161,392.94c-3-2.46-9.56-5.92-16.17-19-1.47-2.68-1.79-3.82-5-6.69a15.94,15.94,0,0,0-5.74-3.53l-1-3.16-1.91-3.3s-.21-1.55.52-1.85,2.69-.73,2.69-.73"/><path class="cls-6" d="M107.69,374.4l3.59,29.73s2.79,12.65,14.41,12.86,69.48,1.2,69.48,1.2"/><path class="cls-6" d="M109.92,371.86l5.14,16.68s4,10.07,15.88,6.92,7.94-16.13,7.94-16.13l-4.78-15.67"/><line class="cls-6" x1="108.61" y1="364.8" x2="131.23" y2="357.23"/><path class="cls-6" d="M109,361.89l.65-11.65s-.42-8.31-2-12.72-23.44-62.87-23.44-62.87"/><path class="cls-6" d="M105.9,267.28l14,62.45s2.69,15.12,12.41,25.47"/><path class="cls-6" d="M109,364.66l.58,3.15L115.76,388a12,12,0,0,0,14.34,6.91c10.66-2.5,8-14.9,8-14.9l-6-19-2.17-3.32-6.21-13.14-17.8-75.28-3.88-2s-8.62-2.93-13.69,3.19c-.9,1.15-4,4.48-4,4.48"/><line class="cls-6" x1="123.7" y1="344.58" x2="109.52" y2="348.76"/><path class="cls-6" d="M108.68,364.26s2.12-9.55,1.72-15.76A52.33,52.33,0,0,0,108.68,338L97.24,309.5"/><circle class="cls-6" cx="126.29" cy="382.62" r="7.64"/><circle class="cls-3" cx="126.29" cy="382.45" r="6.83"/><polyline class="cls-3" points="110.14 287.11 120.52 345.52 121.42 360.51 123.7 372.52 120.54 360.81 118.81 345.83 100 266.81"/><polyline class="cls-3" points="88.75 270.04 115.43 346.67 118.81 361.39 122.86 372.85 117.92 361.68 114.05 347.43 91.36 293.79"/><path class="cls-3" d="M139.5,367s2.33,13.24,16.44,25.59c7.72,5.66,13.52,10.22,25.8,13.44a91.57,91.57,0,0,0,14.41,1.3"/><path class="cls-3" d="M130.54,402.33l10.8-10.47a11,11,0,0,1,3.76-1.79.57.57,0,0,1,.65.48v.06a6,6,0,0,1-1.91,3.5c-1.65,1.43-10.75,10.28-10.75,10.28a17,17,0,0,1-2.58,1.33c-.7.18-.7-.59-.7-.59A6.85,6.85,0,0,1,130.54,402.33Z"/><path class="cls-3" d="M137.57,406.29l8.7-9.56a9.9,9.9,0,0,1,3.12-1.79.49.49,0,0,1,.59.39.09.09,0,0,1,0,.05,5.31,5.31,0,0,1-1.45,3.09c-1.34,1.32-8.65,9.39-8.65,9.39a14.42,14.42,0,0,1-2.14,1.28c-.59.19-.63-.47-.63-.47A5.86,5.86,0,0,1,137.57,406.29Z"/><path class="cls-3" d="M144.75,410.16l7.37-9.69a9.06,9.06,0,0,1,2.77-1.9.47.47,0,0,1,.59.32s0,0,0,0a4.89,4.89,0,0,1-1.11,3c-1.14,1.34-7.32,9.53-7.32,9.53a13.47,13.47,0,0,1-1.9,1.37c-.54.24-.64-.38-.64-.38A5.7,5.7,0,0,1,144.75,410.16Z"/><path class="cls-3" d="M153.48,412.13l5.63-9.29a8.17,8.17,0,0,1,2.28-1.94.42.42,0,0,1,.55.21.43.43,0,0,1,0,.05,4.37,4.37,0,0,1-.69,2.79c-.89,1.3-5.61,9.15-5.61,9.15a12.1,12.1,0,0,1-1.55,1.39c-.45.25-.6-.28-.6-.28A5.2,5.2,0,0,1,153.48,412.13Z"/><path class="cls-3" d="M161.73,412.9l4.19-8.14a6.92,6.92,0,0,1,1.79-1.79.35.35,0,0,1,.48.16v0a3.71,3.71,0,0,1-.42,2.38c-.68,1.15-4.19,8-4.19,8a10.46,10.46,0,0,1-1.22,1.27c-.37.24-.52-.21-.52-.21A4.12,4.12,0,0,1,161.73,412.9Z"/><path class="cls-3" d="M170,414.12l2.37-7.17a5.93,5.93,0,0,1,1.26-1.68.29.29,0,0,1,.4.06l0,0a3.11,3.11,0,0,1,0,2c-.4,1-2.39,7.07-2.39,7.07a8.21,8.21,0,0,1-.85,1.18c-.26.26-.44-.09-.44-.09A3.47,3.47,0,0,1,170,414.12Z"/><path class="cls-3" d="M176.93,407.72v7.44l17.12-1.8s1.11-.61.45-1.1S176.93,407.72,176.93,407.72Z"/><path class="cls-5" d="M161.23,383.84l4.6-2.26a7.33,7.33,0,0,1,4.12-.33c2.49.44,3.65.77,3.65.77s1.15.5.55,1.32a4.09,4.09,0,0,0-.65,1.05l9.2.43a1.52,1.52,0,0,1,1.6-1.37c1.65.11,30.32.77,30.32.77a3,3,0,0,1,1.88,1.88c.66,1.6,3.42,10.19,3.42,10.19s.77,2.44-.77,3.1-2.1,0-2.1,0l-.77-.83s-.49-.61-2.15.33-2,.79-2,.79-1,.42-2.59-.84l-1.6-1.27a2,2,0,0,0-2-.66c-1.38.27-5,.55-5,.55s-7.22,1.38-10.09-1.65a4.68,4.68,0,0,0-3.2-.5c-1.37.22-5.37,1-5.37,1V393.6l-10.16.07v-1.33A108.39,108.39,0,0,1,161.23,383.84Z"/><line class="cls-12" x1="172.05" y1="392.33" x2="173.38" y2="384.39"/><line class="cls-12" x1="168.66" y1="381.11" x2="168.26" y2="390.23"/><line class="cls-6" x1="182.86" y1="384.83" x2="182.2" y2="393.77"/><polyline class="cls-6" points="183.14 383.81 185.6 386.86 213.65 387.59 215.64 384.83"/><polyline class="cls-6" points="182.53 396.23 185.34 393.18 185.6 386.86"/><path class="cls-6" d="M213.65,387.56l3.24,8s-3,.27-3.59.69a3.38,3.38,0,0,1-1,.52,1.4,1.4,0,0,1-1.33-.18c-.7-.49-3.16-2.69-5.62-2.29s-6.35,1-6.35,1-3.59.52-6-1c-1.92-1.25-7.69-1.14-7.69-1.14"/></g><path class="cls-5" d="M152.59,373.91s51.12-36.27,37.79-71c0,0-2.94-13.3-33.29-50.24s-36.47-65.41-36.47-74.82,3.53-33.65,5.88-40.47,3.94-26.18-11.41-47.53S93.21,69.9,92.68,58.25s-4.24-48.18-4.24-48.18S88.09.37,75.91,3L70.62,5.49s2.12.17,2.12,9.7S74.15,56,79.79,71s17.06,18.88,24.59,29.94,15.06,23.06,8.71,59.53,8.23,49.64,34.82,87.29,42.7,51.9,37.91,74.83-35,49.24-35,49.24Z"/><path class="cls-5" d="M196.15,309.5l-2.59-8.72s5.88-8.44-4.88-26.13-36.74-41.82-40.43-60.28"/><path class="cls-5" d="M63.56,44.85s4.9-4.76,27.77-4.41l16.09,1.07,2.21,8.93s-36.49-5.77-46.31,4.81"/><path class="cls-5" d="M110.7,10S97.62,25.07,97.62,34.43s10.59,38.29,14.65,41.64,4,6.71,7.76,6.53,5.65,7.42,9,8.83S136.44,90,141.38,69s-.87-27.53-9.79-38.83-15.8-19.41-15.8-19.41S114.12,7.52,110.7,10Z"/><path class="cls-9" d="M145.26,237s5.48-1.76,7.42,0,32.35,30.29,40.88,63.76"/><path class="cls-4" d="M211.47,304.44v-4.37s-.22-1.51,2.37-3.12,6.5-3.71,6.5-3.71a24,24,0,0,1,9.21-2.32c5.06-.16,32.36-.87,32.36-.87s50.93,0,71.66,2.32a19.1,19.1,0,0,1,3.68,1.28l7.13,4.2a4.05,4.05,0,0,1,2.05,3.36V305s.35,1.37-2.91,1.56-41.88.25-41.88.25l-19.81,13.12s-2.37.75-2.37,5.43S277,405.56,277,405.56s-.25.61-1.51.5c-.07.43-.07,4.27-.07,4.27h2.05l1.83,21.25s1,2.63-3.93,3.55-16.09,2.91-26.59-.87c-1.39-.7-2.52-1-2.2-3.87s1.75-20.08,1.75-20.08a8.34,8.34,0,0,1,2.12-.63,22.92,22.92,0,0,0,.16-4.14s-1.91.45-1.91-1.81-1.23-79.36-1.23-79.36a6,6,0,0,0-2.72-5.09c-2.91-1.83-19.91-13.48-19.91-13.48S212.25,306.16,211.47,304.44Z"/><path class="cls-6" d="M211.54,299.49s2.74.3,14.51.37,114.87.43,114.87.43,5.12.09,4-2.15"/><path class="cls-6" d="M221.06,292.91s3-.28,12.1-.35,76.83-1.07,96.42,1.23c4.16.14,5.16-.28,5.88-.75"/><line class="cls-6" x1="224.87" y1="305.81" x2="301.67" y2="306.73"/><line class="cls-6" x1="235.61" y1="313.13" x2="292.02" y2="313.13"/><path class="cls-6" d="M250.64,405.55s16.77,1.45,25.06.34"/><path class="cls-6" d="M248.33,410.34s1.57,2.44,14.39,2.26,11.11-.07,14.78-2.26"/><path class="cls-6" d="M250.45,409.68s0,2,11.37,2,11.66,0,13.64-1.32"/><polyline class="cls-6" points="258.44 329.58 258.44 333.75 267.95 333.75 267.95 329.87"/><path class="cls-6" d="M255.61,329.41s3.37.36,7.59.36,5.72.21,7.47-.19v-1.74a3.16,3.16,0,0,0-3.29-3h-.15c-3.4-.05-7.6,0-7.6,0s-3.55-.24-4,2.62Z"/><polyline class="cls-6" points="259.48 324.62 259.48 320.62 267.02 320.62 267.02 324.81"/><line class="cls-13" x1="414.31" y1="424.66" x2="414.31" y2="611.44"/><line class="cls-14" x1="376.15" y1="417.16" x2="420.02" y2="417.16"/><polygon class="cls-15" points="414.07 417.29 408.12 427.6 420.02 427.6 414.07 417.29"/><line class="cls-14" x1="408.36" y1="621.92" x2="420.27" y2="621.92"/><polygon class="cls-15" points="414.31 621.58 408.37 611.26 420.27 611.26 414.31 621.58"/><line class="cls-13" x1="414.31" y1="337.72" x2="414.31" y2="406.81"/><line class="cls-14" x1="330.38" y1="333.05" x2="420.02" y2="333.05"/><polygon class="cls-15" points="414.07 332.78 408.12 343.1 420.02 343.1 414.07 332.78"/><polygon class="cls-15" points="414.31 416.95 408.37 406.63 420.27 406.63 414.31 416.95"/><line class="cls-14" x1="458.64" y1="294.54" x2="458.64" y2="611.44"/><line class="cls-14" x1="346.95" y1="287.53" x2="464.35" y2="287.53"/><polygon class="cls-15" points="458.39 287.88 452.45 298.19 464.35 298.19 458.39 287.88"/><line class="cls-14" x1="216.23" y1="621.92" x2="464.59" y2="621.92"/><polygon class="cls-15" points="458.64 621.58 452.69 611.26 464.59 611.26 458.64 621.58"/><line class="cls-16" x1="144.49" y1="444.32" x2="374.66" y2="444.32"/><line class="cls-14" x1="139.5" y1="450.52" x2="139.5" y2="426.67"/><polygon class="cls-15" points="139.33 444.56 149.64 450.51 149.64 438.61 139.33 444.56"/><line class="cls-14" x1="385.32" y1="449.68" x2="385.32" y2="390.26"/><polygon class="cls-15" points="384.97 443.72 374.66 449.67 374.66 437.77 384.97 443.72"/><line class="cls-14" x1="10.5" y1="422.79" x2="103.84" y2="422.79"/><polygon class="cls-15" points="16.45 422.45 10.51 412.14 22.41 412.14 16.45 422.45"/><line class="cls-14" x1="16.45" y1="2.76" x2="16.45" y2="414.98"/><polygon class="cls-15" points="16.21 1.1 10.26 11.41 22.16 11.41 16.21 1.1"/><line class="cls-14" x1="10.24" y1="0.75" x2="101.11" y2="0.75"/><rect class="cls-17" y="199.29" width="37.57" height="14.3"/><text class="cls-18" transform="translate(3.11 210.79)">95cm</text><rect class="cls-17" x="387.71" y="506.58" width="53.21" height="14.3"/><text class="cls-18" transform="translate(389.61 518.08)">38-48cm</text><rect class="cls-17" x="392.15" y="363.24" width="39.88" height="14.3"/><text class="cls-18" transform="translate(395.44 374.74)">13cm</text><rect class="cls-8" x="228.12" y="438.95" width="53.21" height="14.3"/><text class="cls-18" transform="translate(237.11 450.46)">51cm</text><rect class="cls-17" x="429.21" y="442.09" width="59.65" height="14.3"/><text class="cls-18" transform="translate(435.47 454.09)">66-76cm</text></g></g></svg>