<svg id="Camada_1" data-name="Camada 1" xmlns="http://www.w3.org/2000/svg" viewBox="0 0 595.28 380.84"><defs><style>.cls-1,.cls-11,.cls-3,.cls-6,.cls-7{fill:#fff;}.cls-1,.cls-10,.cls-11,.cls-2,.cls-4,.cls-5,.cls-6,.cls-7,.cls-8,.cls-9{stroke:#1d1d1b;stroke-miterlimit:10;}.cls-1,.cls-2,.cls-4{stroke-width:1.13px;}.cls-10,.cls-2,.cls-5,.cls-8{fill:#e2e2e2;}.cls-4,.cls-9{fill:#bdbdbd;}.cls-5{stroke-width:1.03px;}.cls-6{stroke-width:0.56px;}.cls-7,.cls-8,.cls-9{stroke-width:1.11px;}.cls-10{stroke-width:1.02px;}.cls-11{stroke-width:0.55px;}</style></defs><title>Kit rodinhas </title><path class="cls-1" d="M223.43,298.62l1.11,1.87a3.07,3.07,0,0,1,1.7,1.2,40.48,40.48,0,0,1,3.31,6.1c-.07.34,1.37,3.93-2.36,8.28a23.13,23.13,0,0,1-10.39,6.55c-.73.07-5.33,2.19-10.35-6.06a15.88,15.88,0,0,0-1.22-4,12.23,12.23,0,0,1-1.13-2.52Z"/><path class="cls-1" d="M211.78,277.25l11.84,20.62s-1.54,10.21-19.15,13.71L191,290.53S206.87,282.52,211.78,277.25Z"/><path class="cls-1" d="M183.86,291.59s31.35-4.84,35.82-28.19l-34.42-56.55S213.76,245.46,183.86,291.59Z"/><path class="cls-1" d="M36.72,274.78s-5.46-5.43-10.61-24.36,3-59.87,28.72-79.78c21.07-16.29,43.81-23.17,72.49-15.93s45,33.69,45,33.69Z"/><path class="cls-1" d="M46.3,285.49s-11.24-9.25-16.39-28.19,1.38-62.09,28.72-79.77,43.81-23.17,72.49-15.93,45,33.69,45,33.69Z"/><path class="cls-2" d="M88.63,308.25c-36.95-7.3-60.46-45.82-52.52-86,6.6-33.4,49.32-62.25,86.27-55s53.21,46.71,47.54,81.39C163.3,289.1,125.57,315.55,88.63,308.25Z"/><path class="cls-3" d="M41.71,277.7s1.13,3.95,4.13,2.82S76.06,262,79.57,260.23s19.18-15.8,19.48-7.62S75.31,302.5,75.31,302.5l4.36,1.24a46.87,46.87,0,0,0,8.23-14.05s3.46-4.95,2.83-1.73-5.81,16.82-5.81,16.82l3.31.65a39.16,39.16,0,0,0,2.07-4.65c.7-2.06,9.21-30.68,12.53-42.64s9.22-4.58,9.22-4.58a369.12,369.12,0,0,1,19.3,44.53l3.66-2.53c.36-1.36-5.44-13.12-5.44-13.12s-1.19-3.67-.17-3,11.06,14.13,11.06,14.13l2.89-2.77C141.2,289.38,135,280,135,280s-16.69-23.65-18.9-28.53,3-4.86,3-4.86,9.24,1.83,25.41,6.88,25.65,6.32,25.65,6.32a11.45,11.45,0,0,0,1.09-3.61c-1.27.13-15-3.15-16.67-4.16s.15-1.21.15-1.21c14.36,2.27,19.07.23,19.07.23l.24-3.92c-3.93,3.24-46.59-2.9-52.23-5.59s-1.42-7.3-1.42-7.3L157.72,215s13.35-7.11,14.41-8.62-1.66-4.15-1.66-4.15-12.25,9.72-19.94,13.36c0,0-6.6,3.86,3-4.57s11.57-9.19,13.86-12.56l-1.58-4.61s-2.6,4.94-18.71,17.33-27.19,19.58-30,19.6-5.22-2.37.78-14,15.53-40.52,16.85-45.23h0l-3.61-1.09s-4.57,20.22-8.13,24.68c0,0-2.3.39,1.36-14.84,3.33-13.84,1-11.69,1-11.69l-4.12-.91s1.21,10.22-2.71,25.7-9.93,32.83-9.93,32.83-2.19,5.78-7.28,1.05-21.13-46.11-21.32-47.5a31.53,31.53,0,0,0-1.68-4.94l-3.95,2.09s8.14,18.81,8.12,20.34-12.61-16.13-13.73-17.21c0,0-4.49,2.17-4.82,3.35s32.94,42.13,33.21,44.67,1.33,7.27-7.39,5S44.56,220.77,39,214.81l-1.46,4.05s19.15,8.47,20.11,9.43-18.85-2.65-20.95-4.12l-1,4.29s55,9.42,56.44,10.56,5.4,5.08-2.54,9S54,266.36,46.32,267.9,37,269,37,269L39,273.24a98.71,98.71,0,0,0,17.22-5.4l10.62-4.4s-15.44,9.81-19.34,11.76A34,34,0,0,1,41.71,277.7Z"/><path class="cls-1" d="M49.71,293.23s-9.77-4.75-12.55-25.53c-2.83-21.16,1.33-55.28,30.25-76.6,23.93-17.64,39.1-23.29,70.15-18.53,29.24,4.49,47.7,34.28,47.7,34.28Z"/><path class="cls-1" d="M102.71,329.32c-40.62-8-66.89-38.77-58.55-81S96,172.87,136.63,180.9s66.29,35.53,60.05,78.08C190.08,304,143.33,337.35,102.71,329.32Z"/><path class="cls-4" d="M105.14,319.84C70.29,313,48.32,287.69,57,244.32,63.69,211,103.94,186.1,138.78,193s51.29,44.25,46.46,74.32C179.61,302.38,140,326.73,105.14,319.84Z"/><path class="cls-5" d="M107.07,315.64C75.05,309.31,57.29,279,63.62,247c5.25-26.59,39.8-52.24,71.82-45.91s46.59,38,42.15,65.64C172.42,299,139.09,322,107.07,315.64Z"/><path class="cls-6" d="M58.92,297s1.13,4,4.13,2.83,30.23-18.5,33.73-20.29,19.18-15.8,19.48-7.62-23.74,49.88-23.74,49.88L96.88,323A47,47,0,0,0,105.11,309s3.46-5,2.83-1.74-5.81,16.83-5.81,16.83l3.31.65a39.66,39.66,0,0,0,2.07-4.66c.7-2.06,9.21-30.67,12.53-42.64s9.22-4.58,9.22-4.58a369.12,369.12,0,0,1,19.3,44.53l3.66-2.52c.36-1.36-5.44-13.12-5.44-13.12s-1.18-3.68-.17-3,11.07,14.14,11.07,14.14l2.88-2.78c-2.15-1.43-8.32-10.82-8.32-10.82s-16.69-23.66-18.9-28.54,3-4.85,3-4.85,9.24,1.82,25.41,6.88,25.65,6.31,25.65,6.31a11.38,11.38,0,0,0,1.09-3.61c-1.27.14-14.95-3.14-16.67-4.15s.15-1.21.15-1.21c14.36,2.26,19.07.23,19.07.23l.25-3.92c-3.94,3.24-46.6-2.9-52.23-5.59s-1.43-7.31-1.43-7.31l37.31-19.24s13.35-7.11,14.41-8.62-1.66-4.16-1.66-4.16-12.24,9.72-19.94,13.36c0,0-6.59,3.86,3-4.56s11.57-9.19,13.86-12.56L183,213.1s-2.6,4.93-18.72,17.33-27.19,19.57-30,19.6-5.22-2.37.78-14,15.54-40.52,16.85-45.23l.18-1.4-3.61-1.09s-4.75,21.61-8.3,26.07c0,0-1.92.49,1.35-14.83s.86-13.79.86-13.79l-3.68.23s.95,11.18-3,26.66-9.93,32.83-9.93,32.83-2.19,5.77-7.28,1S97.46,200.43,97.28,199a32.37,32.37,0,0,0-1.69-4.94l-3.94,2.09s8.13,18.81,8.12,20.34-11.66-15-12.79-16.1c0,0-3.34,1-3.67,2.14s30.85,42.23,31.11,44.76,1.33,7.28-7.39,5S61,239.36,55.52,233.4l-1.88,4.22s20.3,9,21.26,9.93-20.2-3.22-22.3-4.69l-1-1.2-1.67,5.55s58.06,9.94,59.46,11.08,5.4,5.08-2.54,9S71.2,285.63,63.54,287.17s-9.31,1.13-9.31,1.13l1.94,4.2a99.14,99.14,0,0,0,17.22-5.39L84,282.71s-15.44,9.81-19.34,11.76A34.21,34.21,0,0,1,58.92,297Z"/><path class="cls-1" d="M394,239.28l1.11,1.87a3.07,3.07,0,0,1,1.7,1.2,41,41,0,0,1,3.31,6.1c-.07.35,1.37,3.93-2.36,8.28a23,23,0,0,1-10.39,6.55c-.73.07-5.33,2.19-10.35-6.06a16.46,16.46,0,0,0-1.22-4,12.27,12.27,0,0,1-1.13-2.51Z"/><path class="cls-1" d="M382.3,217.92l11.84,20.62s-1.54,10.21-19.15,13.7l-13.45-21S377.39,223.18,382.3,217.92Z"/><path class="cls-1" d="M354.38,232.25s31.35-4.84,35.82-28.19l-34.42-56.55S384.28,186.12,354.38,232.25Z"/><path class="cls-1" d="M207.24,215.45s-5.46-5.43-10.61-24.37,3-59.87,28.72-79.78C246.42,95,269.16,88.13,297.84,95.38s45,33.68,45,33.68Z"/><path class="cls-1" d="M216.82,226.15S205.58,216.9,200.43,198s1.38-62.09,28.72-79.77S273,95,301.64,102.26s45,33.69,45,33.69Z"/><path class="cls-2" d="M259.14,248.91c-36.94-7.3-60.46-45.82-52.51-86,6.6-33.4,49.32-62.25,86.27-54.94s53.21,46.7,47.54,81.38C333.82,229.77,296.09,256.21,259.14,248.91Z"/><path class="cls-3" d="M212.23,218.36s1.13,3.95,4.13,2.82,30.22-18.49,33.73-20.28,19.18-15.81,19.48-7.63-23.74,49.89-23.74,49.89l4.36,1.24a46.87,46.87,0,0,0,8.23-14.05s3.46-4.95,2.82-1.73-5.8,16.82-5.8,16.82l3.31.66a39.66,39.66,0,0,0,2.07-4.66c.69-2.06,9.21-30.68,12.53-42.64s9.22-4.58,9.22-4.58a369.12,369.12,0,0,1,19.3,44.53l3.66-2.53c.36-1.36-5.44-13.11-5.44-13.11s-1.19-3.68-.17-3S311,234.24,311,234.24l2.89-2.77c-2.15-1.43-8.32-10.82-8.32-10.82s-16.69-23.66-18.9-28.54,3-4.86,3-4.86,9.25,1.83,25.42,6.89,25.65,6.31,25.65,6.31a11.45,11.45,0,0,0,1.09-3.61c-1.27.13-15-3.15-16.67-4.15s.14-1.22.14-1.22c14.37,2.27,19.08.23,19.08.23l.24-3.91c-3.93,3.23-46.59-2.9-52.23-5.59s-1.42-7.31-1.42-7.31l37.31-19.25s13.35-7.11,14.41-8.62-1.66-4.15-1.66-4.15-12.25,9.72-19.94,13.36c0,0-6.6,3.86,3-4.57s11.57-9.18,13.86-12.55l-1.58-4.62s-2.6,4.94-18.71,17.33-27.19,19.58-30,19.6-5.22-2.37.78-14S304,116.92,305.28,112.2h0l-3.61-1.09s-4.57,20.22-8.13,24.68c0,0-2.3.39,1.36-14.84,3.33-13.84,1-11.69,1-11.69l-4.13-.9s1.22,10.22-2.7,25.69-9.93,32.83-9.93,32.83-2.19,5.78-7.28,1.05-21.13-46.1-21.32-47.49a31.15,31.15,0,0,0-1.68-4.94l-4,2.08s8.14,18.82,8.12,20.34-12.61-16.13-13.73-17.21c0,0-4.49,2.17-4.82,3.35s32.94,42.13,33.21,44.67,1.33,7.27-7.39,5-45.26-12.26-50.78-18.22l-1.46,4.05S227.25,168,228.21,169s-18.85-2.65-21-4.12l-1,4.29s55,9.42,56.45,10.56,5.39,5.08-2.54,9S224.51,207,216.84,208.57s-9.3,1.12-9.3,1.12l1.94,4.21a99.14,99.14,0,0,0,17.22-5.39l10.62-4.4s-15.44,9.8-19.34,11.75A34,34,0,0,1,212.23,218.36Z"/><path class="cls-1" d="M220.23,233.9s-9.77-4.76-12.55-25.54c-2.83-21.16,1.33-55.28,30.25-76.6,23.93-17.64,39.1-23.29,70.15-18.52,29.24,4.48,47.7,34.27,47.7,34.27Z"/><path class="cls-1" d="M273.23,270c-40.62-8-66.89-38.77-58.56-81s51.86-75.49,92.48-67.46,66.29,35.53,60.05,78.08C360.6,244.65,313.85,278,273.23,270Z"/><path class="cls-4" d="M275.66,260.51c-34.85-6.89-56.82-32.16-48.13-75.53,6.68-33.31,46.93-58.21,81.77-51.33s51.29,44.26,46.46,74.32C350.13,243,310.5,267.39,275.66,260.51Z"/><path class="cls-5" d="M277.59,256.3c-32-6.33-49.78-36.61-43.45-68.63,5.25-26.59,39.8-52.24,71.82-45.91s46.59,38,42.15,65.64C342.94,239.63,309.61,262.63,277.59,256.3Z"/><path class="cls-6" d="M229.44,237.63s1.13,4,4.13,2.82,30.22-18.5,33.73-20.29,19.18-15.8,19.48-7.62S263,262.43,263,262.43l4.36,1.24a46.87,46.87,0,0,0,8.23-14.05s3.46-5,2.83-1.73-5.81,16.82-5.81,16.82l3.31.65a39.16,39.16,0,0,0,2.07-4.65c.7-2.07,9.21-30.68,12.53-42.64s9.22-4.58,9.22-4.58A369.12,369.12,0,0,1,319.08,258l3.66-2.53c.36-1.36-5.44-13.12-5.44-13.12s-1.19-3.67-.17-3,11.06,14.14,11.06,14.14l2.89-2.78c-2.15-1.42-8.32-10.82-8.32-10.82s-16.69-23.65-18.9-28.53,3-4.86,3-4.86,9.24,1.82,25.41,6.88,25.65,6.31,25.65,6.31a11.37,11.37,0,0,0,1.09-3.6c-1.27.13-15-3.15-16.67-4.16s.15-1.21.15-1.21c14.36,2.26,19.07.23,19.07.23l.25-3.92c-3.94,3.24-46.6-2.9-52.23-5.59s-1.43-7.3-1.43-7.3l37.31-19.25s13.35-7.11,14.41-8.62-1.66-4.15-1.66-4.15S346,171.86,338.26,175.5c0,0-6.6,3.85,3-4.57s11.57-9.19,13.86-12.56l-1.58-4.61s-2.6,4.94-18.71,17.33-27.19,19.57-30,19.6-5.22-2.37.78-14,15.53-40.52,16.85-45.23l.18-1.4L319.06,129s-4.75,21.62-8.31,26.08c0,0-1.91.48,1.36-14.84s.86-13.78.86-13.78l-3.68.23s.95,11.17-3,26.65-9.93,32.83-9.93,32.83-2.19,5.78-7.28,1S268,141.09,267.79,139.7a31.53,31.53,0,0,0-1.68-4.94l-3.95,2.09s8.14,18.81,8.12,20.34-11.65-15-12.78-16.1c0,0-3.34,1-3.67,2.14s30.84,42.23,31.11,44.77,1.33,7.27-7.39,5-46-12.93-51.51-18.9l-1.88,4.22s20.3,9,21.26,9.93-20.2-3.22-22.3-4.69l-1-1.2-1.67,5.55s58.06,9.94,59.46,11.08,5.4,5.08-2.54,9-35.65,18.38-43.32,19.92-9.3,1.13-9.3,1.13l1.94,4.21a98.71,98.71,0,0,0,17.22-5.4l10.62-4.4s-15.44,9.81-19.34,11.76A34,34,0,0,1,229.44,237.63Z"/><path class="cls-7" d="M567.62,180.86l1.11,1.83a3.11,3.11,0,0,1,1.7,1.17,39.39,39.39,0,0,1,3.33,5.94c-.06.34,1.39,3.83-2.3,8a22.92,22.92,0,0,1-10.33,6.31c-.73.06-5.3,2.1-10.34-5.94a15.61,15.61,0,0,0-1.24-3.87,12.09,12.09,0,0,1-1.14-2.45Z"/><path class="cls-7" d="M555.9,160l11.9,20.1s-1.48,9.91-19,13.22l-13.52-20.52S551,165.13,555.9,160Z"/><path class="cls-7" d="M528.14,173.83s31.22-4.55,35.56-27.21L529.11,91.49S557.71,129.15,528.14,173.83Z"/><path class="cls-7" d="M381.41,156.74s-5.47-5.3-10.7-23.73,2.64-58.16,28.21-77.38c20.92-15.72,43.55-22.29,72.17-15.1s45,33,45,33Z"/><path class="cls-7" d="M391,167.19s-11.25-9-16.48-27.47,1.06-60.33,28.21-77.38,43.56-22.29,72.17-15.1,45,33,45,33Z"/><path class="cls-8" d="M433.31,189.53c-36.86-7.28-60.49-44.84-52.78-83.88,6.41-32.42,48.84-60.24,85.7-52.95S519.5,98.35,514,132C507.64,171.31,470.17,196.81,433.31,189.53Z"/><path class="cls-3" d="M386.4,159.6s1.14,3.85,4.12,2.76,30-17.81,33.52-19.54,19-15.26,19.37-7.3S420,183.87,420,183.87l4.35,1.23a44.74,44.74,0,0,0,8.13-13.61s3.43-4.79,2.81-1.67-5.7,16.32-5.7,16.32l3.3.65a36.67,36.67,0,0,0,2-4.51c.68-2,9-29.77,12.27-41.37s9.17-4.41,9.17-4.41a357.26,357.26,0,0,1,19.46,43.37l3.63-2.43c.36-1.33-5.48-12.78-5.48-12.78s-1.2-3.58-.19-2.91,11.1,13.79,11.1,13.79l2.87-2.68c-2.16-1.4-8.36-10.56-8.36-10.56s-16.75-23.07-19-27.83,2.95-4.7,2.95-4.7,9.23,1.82,25.37,6.82,25.59,6.26,25.59,6.26a10.63,10.63,0,0,0,1.07-3.5c-1.26.12-14.92-3.13-16.63-4.12s.14-1.18.14-1.18c14.33,2.28,19,.32,19,.32l.23-3.8c-3.91,3.12-46.45-3.06-52.08-5.7s-1.46-7.11-1.46-7.11l37.08-18.51S515,92.41,516,91s-1.68-4-1.68-4-12.16,9.38-19.81,12.88c0,0-6.55,3.72,3-4.42S509,86.49,511.25,83.23l-1.59-4.49s-2.57,4.78-18.57,16.74-27,18.89-29.77,18.89-5.21-2.32.71-13.59,15.27-39.29,16.56-43.86h0L475,55.84s-4.45,19.62-8,23.94c0,0-2.3.37,1.27-14.41,3.24-13.43,1-11.36,1-11.36l-4.12-.9s1.26,9.94-2.56,25-9.73,31.85-9.73,31.85-2.16,5.6-7.25,1S424.31,66,424.12,64.64a30.47,30.47,0,0,0-1.7-4.81l-3.93,2s8.21,18.32,8.2,19.8S414,65.91,412.91,64.85c0,0-4.46,2.09-4.78,3.23s33.05,41.11,33.32,43.57,1.37,7.08-7.33,4.79-45.18-12.15-50.7-18L382,102.4s19.14,8.33,20.1,9.27-18.8-2.68-20.9-4.11l-1,4.16s54.9,9.44,56.3,10.55,5.41,5-2.48,8.7-35.44,17.68-43.07,19.14-9.26,1-9.26,1l1.95,4.1a99.1,99.1,0,0,0,17.14-5.15l10.56-4.22S396,155.33,392.12,157.2A33.91,33.91,0,0,1,386.4,159.6Z"/><path class="cls-7" d="M394.45,174.74s-9.77-4.67-12.64-24.88c-2.93-20.57,1.05-53.71,29.76-74.28,23.75-17,38.85-22.43,69.82-17.64,29.16,4.51,47.72,33.55,47.72,33.55Z"/><path class="cls-7" d="M447.46,210.08c-40.53-8-66.87-38-58.78-79S440,58,480.5,66s66.25,34.87,60.25,76.19C534.41,185.91,488,218.09,447.46,210.08Z"/><path class="cls-9" d="M449.83,200.88C415.06,194,393,169.34,401.48,127.24,408,94.91,448,70.91,482.71,77.78s51.34,43.27,46.68,72.46C524,184.29,484.59,207.75,449.83,200.88Z"/><path class="cls-10" d="M451.73,196.8c-31.94-6.31-49.8-35.83-43.66-66.91,5.1-25.81,39.4-50.56,71.35-44.25s46.63,37.19,42.35,64C516.78,180.94,483.68,203.12,451.73,196.8Z"/><path class="cls-11" d="M403.65,178.41s1.15,3.85,4.13,2.77,30-17.82,33.51-19.55,19-15.26,19.38-7.3-23.41,48.35-23.41,48.35l4.36,1.23a44.83,44.83,0,0,0,8.12-13.61s3.43-4.79,2.81-1.67-5.7,16.32-5.7,16.32l3.3.65a35.9,35.9,0,0,0,2-4.51c.69-2,9-29.77,12.27-41.37s9.17-4.41,9.17-4.41a358.29,358.29,0,0,1,19.47,43.37l3.62-2.43c.36-1.32-5.48-12.78-5.48-12.78s-1.2-3.58-.19-2.91,11.1,13.79,11.1,13.79l2.87-2.68c-2.16-1.4-8.36-10.56-8.36-10.56s-16.75-23.07-19-27.83,3-4.7,3-4.7,9.22,1.82,25.36,6.82,25.59,6.26,25.59,6.26a10.88,10.88,0,0,0,1.08-3.5c-1.27.12-14.93-3.13-16.64-4.12s.14-1.18.14-1.18c14.33,2.28,19,.32,19,.32l.22-3.8c-3.9,3.12-46.45-3.06-52.08-5.7s-1.46-7.11-1.46-7.11L519,118.06s13.27-6.84,14.32-8.3-1.68-4.05-1.68-4.05-12.15,9.38-19.81,12.88c0,0-6.55,3.72,3-4.42S526.23,105.3,528.5,102l-1.59-4.49s-2.57,4.78-18.57,16.74-27,18.89-29.76,18.9-5.22-2.33.7-13.6,15.28-39.29,16.56-43.86l.17-1.36-3.6-1.08s-4.62,21-8.14,25.3c0,0-1.9.46,1.27-14.41s.79-13.39.79-13.39l-3.67.2s1,10.87-2.82,25.89-9.73,31.85-9.73,31.85-2.16,5.6-7.25,1-21.3-44.91-21.49-46.26a30.47,30.47,0,0,0-1.7-4.81l-3.92,2S444,99,443.94,100.46,432.25,85.8,431.12,84.75c0,0-3.33.92-3.65,2.06s31,41.19,31.24,43.66,1.36,7.07-7.34,4.78-45.91-12.8-51.44-18.63l-1.85,4.09s20.28,8.83,21.24,9.77-20.15-3.24-22.25-4.68l-1-1.17L394.43,130s57.92,10,59.32,11.07,5.4,5-2.48,8.7-35.44,17.68-43.07,19.14-9.27,1-9.27,1l2,4.1A99.15,99.15,0,0,0,418,168.91l10.56-4.22s-15.33,9.45-19.21,11.33A34.18,34.18,0,0,1,403.65,178.41Z"/></svg>