<svg id="Camada_1" data-name="Camada 1" xmlns="http://www.w3.org/2000/svg" viewBox="0 0 595.28 638"><defs><style>.cls-1,.cls-5,.cls-6{fill:#fff;}.cls-1,.cls-2,.cls-4,.cls-5,.cls-6{stroke:#1d1d1b;}.cls-1,.cls-2,.cls-3,.cls-4,.cls-5,.cls-6{stroke-miterlimit:10;}.cls-1,.cls-2{stroke-width:2px;}.cls-2{fill:#adadad;}.cls-3,.cls-4{fill:none;}.cls-3{stroke:#ff29ff;stroke-width:1.35px;}.cls-4{stroke-width:0.75px;}.cls-5{stroke-width:2.28px;}.cls-6{stroke-width:2.9px;}</style></defs><title>Diagonal </title><path class="cls-1" d="M224.5,197.67c7.17,7.66,34.33,1.83,55.65-17.79,20.73-19.09,29.42-33.14,22.33-42.39s-31-2.86-53.33,14.27C231.24,165.48,214.75,187.24,224.5,197.67Z"/><ellipse class="cls-1" cx="261.2" cy="369.71" rx="140.67" ry="161.67"/><ellipse class="cls-2" cx="281.15" cy="366.78" rx="140.67" ry="161.67"/><ellipse class="cls-3" cx="375.34" cy="379.11" rx="40.25" ry="41.47"/><path class="cls-1" d="M185.59,447.47l-9.5-26.16s-14.34-2.67-15.67-.73,7.33,20.06,7.33,20.06Z"/><polygon class="cls-1" points="161.21 462.07 172.93 427.81 178.59 428.19 184.72 445.08 176.75 464.64 161.21 462.07"/><polygon class="cls-1" points="185.59 447.47 194.42 461.97 176.75 464.64 183.99 446.86 185.59 447.47"/><path class="cls-1" d="M143.62,458.48c-2.72,1.34-8.28,9.33-8.28,9.33-2,.16-2.57,1.76-2.71,3.16a5.67,5.67,0,0,0,.56,3c.39.81.59,1.76-1.06,2.12-3.17.67-1.57,4.13-1.21,4.87.6,1.24-.86,2.13-.86,2.13-2.33.42-1.81,4.54-1,5.66s-.46,2-.46,2c-2.75.88-2.38,5-1.84,5.88a1.28,1.28,0,0,1,.1,1,2.4,2.4,0,0,1-1.33,1.56c-2.13,1.07-1.66,3.92-1,4.87a1.57,1.57,0,0,1-.25,2c-3.75,1.34-2.59,5.17-2.25,6.09a3.58,3.58,0,0,1-.19,2.16,6,6,0,0,0,0,8.75c-.5,10.34,9,15.34,9,15.34l50.54,10.58,24.63-82.25-60.5-8.88Z"/><line class="cls-4" x1="121.92" y1="522.56" x2="171.09" y2="533.47"/><line class="cls-4" x1="123.07" y1="513.87" x2="172.76" y2="523.64"/><line class="cls-4" x1="125.27" y1="505.59" x2="174.43" y2="515.51"/><line class="cls-4" x1="127.57" y1="497.41" x2="177.59" y2="507.64"/><line class="cls-4" x1="130.32" y1="489.77" x2="179.48" y2="500.26"/><line class="cls-4" x1="131.82" y1="481.92" x2="181.67" y2="492.14"/><line class="cls-4" x1="134.15" y1="475.11" x2="184" y2="485.31"/><line class="cls-4" x1="135.34" y1="467.81" x2="186.71" y2="476.89"/><path class="cls-4" d="M145.21,527.59s-3.25-5.7,1.29-9.11"/><path class="cls-4" d="M146.5,518.48s-2.07-5.43,2-8.2"/><path class="cls-4" d="M148.45,510.43s-1.61-5.48,2.44-8.25"/><path class="cls-4" d="M150.89,502.18s-1-5.57,2.67-7.44"/><path class="cls-4" d="M153.56,494.74s-1.26-5.85,2.74-7.71"/><path class="cls-4" d="M155.88,487.51s-1.25-5.85,2.75-7.71"/><path class="cls-4" d="M158.28,479.93s-1.25-5.85,2.74-7.71"/><path class="cls-4" d="M160.79,472.35s1.71-7.17,7.07-9.18"/><ellipse class="cls-1" cx="335.09" cy="374.12" rx="140.67" ry="161.67"/><ellipse class="cls-1" cx="356.09" cy="376.64" rx="140.67" ry="161.67"/><ellipse class="cls-5" cx="372.75" cy="379.25" rx="37.75" ry="44.25"/><path class="cls-1" d="M305.2,216.11s-11.7-4.41-22.7-1.14-31.25,9.78-38.75,5.78S225.5,199.5,225.5,199.5,253.61,210.92,287,175c30.83-33.17,13.25-39.75,13.25-39.75L366.5,215S348.66,209.47,305.2,216.11Z"/><path class="cls-1" d="M305.2,216.11,295.75,204l31-12.5L344,212.77A136,136,0,0,0,305.2,216.11Z"/><path class="cls-1" d="M249.33,187.83s27.34-10.16,37.84-30.5c0,0,2.66-4.66,1.5-7-1.47-2.93-6-4.16-6-4.16A62.72,62.72,0,0,1,267,165.33C255.33,175,243.33,180,242,179.67S244.33,186,249.33,187.83Z"/><ellipse class="cls-6" cx="255.55" cy="153.8" rx="37.47" ry="16.39" transform="translate(-38.31 204.83) rotate(-40.89)"/><path class="cls-1" d="M191,117.83l41,49.26s28.63-14.34,30.75-25.34,0-11.5,0-11.5L232,91.17Z"/><path class="cls-1" d="M192.17,113.83s-3.17,1.67-1.17,4,15.33.34,28-8.5,13-18.16,13-18.16-1.17-4.34-4.67.16S192.17,113.83,192.17,113.83Z"/><path class="cls-1" d="M192.17,113.83l-9.4-12.16L217,75l10.34,16.35s-7.16,11.5-14.33,16.34S200.33,114.33,192.17,113.83Z"/><path class="cls-1" d="M191,78.17c-9.46,8.19-13.33,17-10.18,21.9,3.85,6,16.13,3.12,25.59-5.07s14.47-17.48,9.8-22.87S200.46,70,191,78.17Z"/><path class="cls-1" d="M197.62,536.58l17.09-54.07s2.13-11-5.37-13.5-11.5.13-14,2.38c-1.61,1.44-8.32,18-12.91,29.65a169.73,169.73,0,0,0-7.15,22.66L173,533.39s-2.25,13,8.25,14.5c7.88,1.12,10-.07,12.39-3.32A27.17,27.17,0,0,0,197.62,536.58Z"/></svg>