<svg xmlns="http://www.w3.org/2000/svg" viewBox="0 0 609.72 995.26"><defs><style>.cls-1,.cls-4{fill:none;}.cls-1,.cls-2,.cls-3,.cls-4{stroke:#686867;stroke-miterlimit:10;}.cls-2{fill:#fff;}.cls-2,.cls-3,.cls-4{fill-rule:evenodd;}.cls-3{fill:#686867;}</style></defs><title>Lander</title><g id="Camada_2" data-name="Camada 2"><g id="_Ï_h_1" data-name="¹Ï¼h_1"><path class="cls-1" d="M246.92,2.33c68.87,8.12,139,25.53,212.1,42.52l8.38,1.07,7-3.41c30.78,8.76,65.47,19.63,97.41,31.34a13.46,13.46,0,0,1,9.1,12.53l28.35,862.79c.13,4-2.54,10-9.09,10.57l-49.06,4v4.85c0,10.26-63.19,10.27-63.19,0V967.2L259.14,979.84v6.28c0,11.53-71,11.53-71,0V974.06L70.53,935c-17.62,1.34-40.25-1-40.25-7v-6.33L5.57,913.46l6-154.27,1.88-48.69L.61,696.36,2.94,650.5l13.21-10.57,9.67-249.7L13,376.09l2.32-45.85,13.22-10.58,1.7-44,.68-17.51L216.46,20.87Z"/><path class="cls-2" d="M246.92,2.33c68.87,8.12,139,25.53,212.1,42.52l8.38,1.07,7-3.41c30.78,8.76,65.47,19.63,97.42,31.34a13.45,13.45,0,0,1,9.09,12.53l28.35,862.79c.13,4-2.54,10-9.09,10.57l-49.06,4v4.85c0,10.26-63.18,10.27-63.18,0V967.2L259.14,979.84v6.28c0,11.52-71,11.53-71,0V974.06L70.53,935c-17.62,1.34-40.25-1-40.25-7v-6.33L5.57,913.46l6-154.27,1.88-48.69L.61,696.36,2.94,650.5l13.21-10.57,9.67-249.7L13,376.09l2.32-45.86,13.22-10.57,1.7-44,.68-17.51L216.46,20.87Z"/><polygon class="cls-1" points="30.93 258.17 216.46 20.87 201.03 978.34 5.57 913.46 13.42 710.5 13.42 710.5 20.07 696.03 20.94 646.9 16.16 639.92 16.16 639.93 25.82 390.23 32.47 375.76 33.33 326.63 28.55 319.66 28.55 319.66 30.93 258.17"/><path class="cls-1" d="M580.87,86.38a13.44,13.44,0,0,0-9.09-12.53c-31.95-11.71-66.63-22.58-97.42-31.34l-7,3.41L459,44.85c-73.09-17-143.23-34.4-212.1-42.52L216.46,20.87,201,978.34l33.61,2.86,253.49-14,5.56,1.26,106.44-8.71c6.55-.53,9.22-6.6,9.09-10.57Z"/><path class="cls-1" d="M246.92,2.33,216.46,20.87,201,978.34l33.61,2.86c-4-2.34-10-.6-9.8-14.38l11.35-953C236.24,9.4,243.34,6.15,246.92,2.33Z"/><path class="cls-1" d="M580.87,86.38a13.45,13.45,0,0,0-9.09-12.53c-31.94-11.71-66.63-22.58-97.42-31.34l-7,3.41L459,44.85c-57.46,224-8.06,356.07,22.42,489.6,48,210.17,5.33,381.52-4,433.19l10.7-.45,5.56,1.26,106.44-8.71c6.55-.53,9.22-6.6,9.09-10.57Z"/><path class="cls-1" d="M467.4,45.92,459,44.85c-57.46,224-8.06,356.07,22.42,489.6,48,210.17,5.33,381.52-4,433.19l10.7-.45c30.46-119.14,37.59-304.62,1.15-437.91C443.14,360.53,422.53,207.32,467.4,45.92Z"/><path class="cls-1" d="M467.4,45.92l7-3.41c-54.58,206.19-11.53,356.32,20,481.48,43.28,172,22.81,357.92-.64,444.46l-5.56-1.26c30.46-119.14,37.59-304.62,1.15-437.91C443.14,360.53,422.53,207.32,467.4,45.92Z"/><path class="cls-3" d="M467.4,45.92l7-3.41c-54.58,206.19-11.53,356.32,20,481.48,43.28,172,22.81,357.92-.64,444.46l-5.56-1.26c30.46-119.14,37.59-304.62,1.15-437.91-46.14-168.75-66.75-322-21.88-483.36"/><path class="cls-1" d="M458.28,47.8C402,270,451.09,401.51,481.44,534.45c46.5,203.76,7.84,371-3.07,428.13l11-.51c29.37-119.28,35.8-301.39-.13-432.79-45.83-167.61-66.46-319.9-22.77-480.09Z"/><polygon class="cls-1" points="214.59 136.8 228.57 168.69 220.31 798.66 203.43 829.68 214.59 136.8"/><path class="cls-1" d="M220.29,798.69l-2.49,4.59-13.67-16.85.12-7.74Zm.27-19.3-.1,7.54-16-19.75.12-7.74Zm.26-19.32-.1,7.54-16-19.68.12-7.73Zm.25-19.32-.1,7.54-15.91-19.61.12-7.74Zm.25-19.32-.1,7.54-15.85-19.54.12-7.74Zm.26-19.32-.1,7.54-15.8-19.47.12-7.74Zm.25-19.32-.1,7.54L206,670.93l.12-7.74Zm.25-19.32L222,671,206.3,651.68l.12-7.74Zm.26-19.32-.1,7.54-15.63-19.26.12-7.74Zm.25-19.33-.1,7.56-15.57-19.2.12-7.74Zm.25-19.32-.1,7.56-15.51-19.13.12-7.74Zm.26-19.32-.1,7.56-15.46-19.06.12-7.74Zm.25-19.32-.1,7.56-15.4-19,.12-7.74Zm.25-19.32-.1,7.56-15.34-18.92.12-7.74Zm.26-19.32-.1,7.56-15.29-18.85.12-7.74Zm.25-19.32-.1,7.56-15.23-18.78.12-7.74Zm.25-19.33-.1,7.57-15.17-18.71.12-7.74Zm.26-19.32-.1,7.57L209.4,459.18l.12-7.74Zm.25-19.32-.1,7.57-15.06-18.57.12-7.74Zm.25-19.32-.1,7.57-15-18.5.12-7.74Zm.26-19.32-.1,7.57-14.95-18.42.12-7.75Zm.25-19.32-.1,7.57-14.89-18.35.12-7.75Zm.25-19.32-.1,7.57L211,362.94l.12-7.75Zm.26-19.32-.1,7.57-14.78-18.21.12-7.75Zm.25-19.32-.1,7.57-14.72-18.14.12-7.75Zm.25-19.33-.1,7.58-14.66-18.07.12-7.75Zm.26-19.32-.1,7.58-14.61-18,.12-7.75Zm.25-19.32-.1,7.58L212.5,266.69l.12-7.75Zm.25-19.32-.1,7.58-14.49-17.86.12-7.75Zm.26-19.32-.1,7.58-14.44-17.79.13-7.76Zm.25-19.32-.1,7.58-14.38-17.72.12-7.76Zm.25-19.32-.1,7.59-14.32-17.66.12-7.76Zm-14-37.08,14.25,17.75-.1,7.6-14.27-17.59Z"/><path class="cls-3" d="M220.29,798.69l-2.49,4.59-13.67-16.86.12-7.73Zm.27-19.3-.1,7.54-16-19.75.12-7.74Zm.26-19.32-.1,7.54-16-19.68.12-7.73Zm.25-19.32-.1,7.54-15.91-19.61.12-7.74Zm.25-19.32-.1,7.54-15.85-19.54.12-7.74Zm.26-19.32-.1,7.54-15.8-19.47.12-7.74Zm.25-19.32-.1,7.54L206,670.93l.12-7.74Zm.25-19.33L222,671,206.3,651.68l.12-7.74Zm.26-19.32-.1,7.55-15.63-19.26.12-7.74Zm.25-19.32-.1,7.56-15.57-19.2.12-7.74Zm.25-19.32-.1,7.56-15.51-19.13.12-7.74Zm.26-19.32-.1,7.56-15.46-19.06.12-7.74Zm.25-19.32-.1,7.56-15.4-19,.12-7.74Zm.25-19.32-.1,7.56-15.34-18.92.12-7.74Zm.26-19.32-.1,7.56-15.29-18.85.12-7.74Zm.25-19.33-.1,7.57-15.23-18.78.12-7.74Zm.25-19.32-.1,7.57-15.17-18.71.12-7.74Zm.26-19.32-.1,7.57L209.4,459.18l.12-7.74Zm.25-19.32-.1,7.57-15.06-18.57.12-7.74Zm.25-19.32-.1,7.57-15-18.49.12-7.75Zm.26-19.32-.1,7.57-14.95-18.42.12-7.75Zm.25-19.32-.1,7.57-14.89-18.35.12-7.75Zm.25-19.32-.1,7.57L211,362.94l.13-7.75Zm.26-19.32-.1,7.57-14.78-18.21.13-7.75Zm.25-19.32-.1,7.57-14.72-18.14.12-7.75Zm.25-19.33-.1,7.58-14.66-18.07.13-7.75Zm.26-19.32-.1,7.58-14.61-18,.13-7.75Zm.25-19.32-.1,7.58L212.5,266.69l.13-7.76Zm.25-19.32-.1,7.58-14.49-17.86.13-7.76Zm.26-19.32-.1,7.58-14.44-17.79.13-7.76Zm.25-19.32-.1,7.58-14.38-17.72.13-7.76Zm.25-19.32-.1,7.59-14.32-17.66.13-7.76Zm-14-37.08,14.24,17.75-.1,7.59-14.27-17.58Z"/><polygon class="cls-1" points="11.54 759.19 204.75 747.93 201.03 978.34 5.57 913.46 11.54 759.19"/><path class="cls-1" d="M25.56,808.37h0c.16,0,.32-.79.35-1.79q.15-6.06.32-12.14a4.2,4.2,0,0,1,.15-1.14c.63-2,1.27-4,1.9-6a8.32,8.32,0,0,0,.17-2.47s0,0,0,0c0-.85-.21-1.16-.37-.65-.63,2-1.28,4.06-1.9,6.06-.11.34-.15.32-.24,0-.52-2-1-4-1.53-6.08-.13-.5-.32-.2-.42.65h0a8.54,8.54,0,0,0,0,2.46c.52,2,1,4,1.55,6.08a6.15,6.15,0,0,1,.08,1.14l-.33,12.12C25.28,807.54,25.39,808.36,25.56,808.37Zm5.73.37h0c.17,0,.33-.8.35-1.82.11-4.09.22-8.2.33-12.3a4.63,4.63,0,0,1,.14-1.15c.64-2.05,1.28-4.08,1.94-6.13a8.49,8.49,0,0,0,.19-2.51h0c-.06-.87-.25-1.18-.41-.67-.64,2.07-1.3,4.12-1.94,6.15-.11.35-.14.33-.23,0-.54-2-1.08-4.1-1.6-6.16-.13-.51-.33-.21-.42.65h0a8.82,8.82,0,0,0,0,2.5c.53,2.05,1.07,4.1,1.6,6.16a5.38,5.38,0,0,1,.09,1.16q-.16,6.15-.32,12.29C31,807.9,31.12,808.73,31.29,808.74Zm5.89.38h0c.18,0,.34-.81.37-1.84.1-4.15.21-8.32.32-12.48a4.06,4.06,0,0,1,.15-1.17q1-3.09,2-6.21a8.75,8.75,0,0,0,.18-2.54h0c-.08-.89-.26-1.2-.42-.68-.67,2.09-1.35,4.17-2,6.23-.11.36-.13.33-.22,0-.54-2.08-1.11-4.17-1.65-6.25-.13-.52-.33-.21-.43.66h0a8,8,0,0,0,0,2.53l1.65,6.25a6.25,6.25,0,0,1,.09,1.17q-.18,6.24-.34,12.46C36.88,808.27,37,809.11,37.18,809.12Zm6.07.4h0c.18,0,.36-.83.38-1.87.11-4.21.22-8.44.33-12.66a4,4,0,0,1,.15-1.18c.67-2.1,1.37-4.19,2.06-6.3a8.45,8.45,0,0,0,.16-2.58v0c-.06-.89-.25-1.21-.42-.68-.67,2.12-1.36,4.23-2,6.32-.12.36-.16.34-.25,0-.58-2.1-1.17-4.21-1.72-6.34-.13-.52-.33-.21-.45.68h0a9.54,9.54,0,0,0,0,2.56c.55,2.12,1.13,4.22,1.72,6.34A5.86,5.86,0,0,1,43.3,795q-.15,6.33-.32,12.64C43,808.65,43.08,809.5,43.25,809.52Zm6.24.39h0c.16,0,.34-.83.36-1.88.11-4.28.24-8.56.35-12.85a4.23,4.23,0,0,1,.15-1.2c.7-2.12,1.42-4.24,2.12-6.39a8.81,8.81,0,0,0,.19-2.61v0c-.06-.91-.27-1.23-.44-.69-.7,2.16-1.41,4.29-2.11,6.41-.12.37-.16.34-.25,0-.58-2.13-1.18-4.28-1.75-6.43-.14-.53-.35-.21-.47.69h0a8.71,8.71,0,0,0,0,2.6c.58,2.14,1.17,4.28,1.75,6.43a5.06,5.06,0,0,1,.1,1.2q-.18,6.42-.34,12.83C49.17,809,49.3,809.9,49.49,809.91Zm6.4.41h0c.19,0,.38-.84.4-1.9l.33-13a4.2,4.2,0,0,1,.17-1.21q1.07-3.24,2.16-6.49a8.8,8.8,0,0,0,.18-2.65h0c-.07-.93-.27-1.26-.45-.71-.72,2.18-1.43,4.36-2.14,6.5-.12.38-.16.35-.25,0q-.91-3.25-1.82-6.53c-.15-.54-.38-.22-.49.69h0a9.3,9.3,0,0,0,.07,2.65c.59,2.17,1.19,4.33,1.8,6.52a5.46,5.46,0,0,1,.08,1.22l-.33,13C55.58,809.43,55.71,810.31,55.89,810.32Zm6.63.44h0c.18,0,.37-.87.4-1.94l.33-13.23a4,4,0,0,1,.15-1.23c.73-2.2,1.49-4.38,2.24-6.58a8.14,8.14,0,0,0,.2-2.7h0c-.07-.94-.28-1.27-.46-.72-.76,2.22-1.52,4.42-2.25,6.6-.13.38-.14.35-.23,0-.63-2.21-1.27-4.41-1.89-6.63-.15-.55-.36-.22-.48.71h0a8.3,8.3,0,0,0,0,2.68c.61,2.2,1.26,4.4,1.88,6.62a6.31,6.31,0,0,1,.08,1.24l-.33,13.2C62.19,809.85,62.31,810.74,62.52,810.76Zm6.8.44h0c.19,0,.37-.88.41-2q.18-6.69.35-13.42a4.22,4.22,0,0,1,.16-1.25c.75-2.22,1.53-4.44,2.28-6.68a8.37,8.37,0,0,0,.2-2.74h0c-.07-1-.28-1.28-.47-.73-.76,2.26-1.54,4.49-2.29,6.71-.13.38-.16.35-.27,0-.65-2.24-1.32-4.48-1.93-6.72-.15-.56-.38-.23-.51.71h0a8.83,8.83,0,0,0,0,2.72c.62,2.24,1.28,4.47,1.93,6.72a5.48,5.48,0,0,1,.11,1.26c-.11,4.47-.23,9-.34,13.39C69,810.28,69.12,811.18,69.32,811.2Zm7,.45h0c.21,0,.4-.88.42-2q.16-6.78.34-13.63a4.25,4.25,0,0,1,.18-1.26c.77-2.25,1.57-4.51,2.37-6.78a8.9,8.9,0,0,0,.2-2.78h0c-.08-1-.31-1.31-.51-.74-.78,2.29-1.57,4.56-2.34,6.8-.14.39-.18.37-.29,0-.66-2.27-1.35-4.55-2-6.83-.15-.57-.39-.23-.5.72h0a8.28,8.28,0,0,0,0,2.77c.64,2.27,1.34,4.53,2,6.82a6.38,6.38,0,0,1,.1,1.27q-.16,6.82-.34,13.61C76,810.72,76.13,811.64,76.33,811.65Zm7.21.47h0c.24,0,.41-.9.44-2q.19-6.9.35-13.84A4.72,4.72,0,0,1,84.5,795c.8-2.3,1.61-4.59,2.43-6.89a7.81,7.81,0,0,0,.22-2.82v0c-.07-1-.31-1.33-.52-.75-.82,2.32-1.63,4.63-2.43,6.91-.14.4-.16.37-.27,0-.69-2.31-1.39-4.62-2.06-6.94-.17-.57-.42-.23-.54.74h0a8.66,8.66,0,0,0,.07,2.8c.68,2.31,1.37,4.61,2.06,6.94a6.5,6.5,0,0,1,.1,1.28c-.12,4.61-.24,9.23-.35,13.83C83.18,811.17,83.34,812.11,83.54,812.12Zm7.48.49h0c.22,0,.43-.91.46-2.08.11-4.67.22-9.37.33-14.06a4.88,4.88,0,0,1,.17-1.3c.81-2.33,1.65-4.65,2.5-7a8,8,0,0,0,.22-2.86v0c-.07-1-.32-1.35-.53-.76-.85,2.36-1.7,4.7-2.5,7-.14.4-.16.37-.27,0l-2.13-7c-.18-.59-.43-.24-.57.75h0a8.4,8.4,0,0,0,.08,2.85c.71,2.34,1.41,4.68,2.13,7a6.42,6.42,0,0,1,.12,1.3q-.18,7-.34,14C90.66,811.65,90.79,812.59,91,812.61Zm7.7.5h0c.22,0,.44-.93.47-2.11q.16-7.12.34-14.29a4.3,4.3,0,0,1,.18-1.32c.87-2.36,1.74-4.72,2.59-7.11a8.34,8.34,0,0,0,.2-2.91v0c-.07-1-.3-1.36-.51-.77-.87,2.4-1.75,4.78-2.59,7.13-.15.41-.18.38-.3,0q-1.16-3.57-2.21-7.16c-.18-.59-.44-.24-.58.76h0a9.18,9.18,0,0,0,.08,2.89c.72,2.38,1.45,4.76,2.2,7.16a5.87,5.87,0,0,1,.12,1.33c-.11,4.75-.23,9.52-.34,14.26C98.34,812.13,98.5,813.09,98.72,813.11Zm8,.51h0c.23,0,.44-.94.47-2.14q.17-7.25.34-14.52a4.35,4.35,0,0,1,.2-1.34c.86-2.41,1.76-4.81,2.66-7.23a9.05,9.05,0,0,0,.23-3h0c-.09-1-.35-1.39-.56-.79q-1.35,3.66-2.66,7.25c-.15.42-.19.38-.32,0-.76-2.42-1.53-4.84-2.28-7.27-.18-.61-.46-.25-.59.77h0a8.37,8.37,0,0,0,.09,2.94q1.13,3.63,2.27,7.27a6.14,6.14,0,0,1,.12,1.35q-.17,7.26-.34,14.5C106.27,812.63,106.43,813.61,106.67,813.62Zm8.2.54h0c.27,0,.47-1,.5-2.18.12-4.91.23-9.84.35-14.76a4.22,4.22,0,0,1,.2-1.37c.9-2.44,1.82-4.88,2.75-7.34a8.33,8.33,0,0,0,.24-3v0c-.1-1-.37-1.42-.6-.8-.93,2.47-1.84,4.94-2.74,7.37-.15.42-.19.39-.32,0-.79-2.46-1.57-4.92-2.36-7.39-.19-.62-.48-.25-.61.78h0a8.41,8.41,0,0,0,.09,3c.78,2.46,1.57,4.92,2.36,7.4a6.51,6.51,0,0,1,.1,1.37q-.18,7.38-.35,14.74C114.46,813.14,114.63,814.14,114.87,814.16Zm8.52.55h0c.25,0,.47-1,.5-2.21.12-5,.22-10,.35-15a4.05,4.05,0,0,1,.22-1.39q1.4-3.71,2.82-7.46a8.46,8.46,0,0,0,.22-3.07h0c-.09-1.06-.36-1.44-.6-.82-.94,2.52-1.89,5-2.82,7.5-.16.43-.19.39-.32,0-.81-2.51-1.66-5-2.46-7.52-.2-.62-.48-.25-.64.8h0a8.94,8.94,0,0,0,.09,3l2.47,7.52a6.3,6.3,0,0,1,.13,1.39c-.12,5-.25,10-.36,15C123,813.68,123.12,814.69,123.39,814.71Zm8.75.56h0c.27,0,.51-1,.54-2.24.11-5.08.23-10.18.35-15.27a4.13,4.13,0,0,1,.2-1.41c1-2.53,2-5.05,2.94-7.6a8.85,8.85,0,0,0,.26-3.12h0c-.11-1.08-.4-1.47-.64-.83-1,2.57-2,5.1-2.94,7.62-.17.44-.21.41-.35,0-.87-2.54-1.7-5.1-2.51-7.66-.2-.63-.5-.25-.66.81h0a9,9,0,0,0,.1,3.1c.82,2.55,1.66,5.09,2.51,7.65a6.21,6.21,0,0,1,.15,1.42c-.12,5.08-.25,10.17-.37,15.24C131.69,814.23,131.89,815.25,132.14,815.27Zm9.11.59h0c.27,0,.51-1,.53-2.28q.18-7.76.36-15.54a4.5,4.5,0,0,1,.21-1.43c1-2.58,2-5.14,3-7.73a9.15,9.15,0,0,0,.27-3.17v0c-.12-1.1-.42-1.49-.67-.84-1,2.61-2,5.19-3,7.75-.17.44-.21.42-.35,0q-1.35-3.89-2.66-7.79c-.22-.64-.52-.26-.66.82h0a8.58,8.58,0,0,0,.1,3.15c.86,2.59,1.73,5.18,2.64,7.79a5.87,5.87,0,0,1,.15,1.44q-.19,7.77-.37,15.51C140.78,814.79,141,815.84,141.25,815.86Zm9.4.61h0c.29,0,.55-1,.58-2.31q.17-7.9.35-15.82a4.35,4.35,0,0,1,.2-1.48q1.54-3.9,3.15-7.85a8.38,8.38,0,0,0,.26-3.23h0c-.13-1.12-.42-1.53-.69-.86-1.06,2.65-2.1,5.29-3.13,7.89-.18.45-.21.42-.35,0-.9-2.64-1.83-5.27-2.73-7.92-.22-.66-.53-.27-.69.84h0a8.37,8.37,0,0,0,.12,3.2c.89,2.63,1.8,5.27,2.7,7.91a6.14,6.14,0,0,1,.16,1.48l-.36,15.8C150.19,815.38,150.37,816.45,150.65,816.47Zm9.78.63h0c.27,0,.54-1,.57-2.37q.18-8,.36-16.09a4.24,4.24,0,0,1,.22-1.5c1.07-2.65,2.16-5.3,3.23-8a8.34,8.34,0,0,0,.24-3.29h0c-.1-1.15-.4-1.55-.67-.88-1.07,2.71-2.15,5.39-3.21,8-.19.46-.24.43-.41,0-1-2.68-1.93-5.37-2.85-8.07-.23-.66-.53-.27-.71.85h0a8.92,8.92,0,0,0,.11,3.26c.93,2.69,1.88,5.37,2.84,8.06a5.78,5.78,0,0,1,.17,1.51c-.12,5.36-.24,10.73-.36,16.06C159.93,816,160.15,817.09,160.43,817.1Zm10.08.66h0c.28,0,.56-1.06.59-2.41q.18-8.18.36-16.39a4.32,4.32,0,0,1,.23-1.53c1.11-2.7,2.26-5.4,3.39-8.14a9,9,0,0,0,.27-3.35h0c-.12-1.17-.46-1.58-.73-.9-1.12,2.76-2.28,5.48-3.37,8.19-.19.46-.24.44-.4,0-1-2.73-2-5.47-2.93-8.22-.23-.68-.56-.27-.72.87h0a8.46,8.46,0,0,0,.09,3.32c1,2.74,2,5.47,2.94,8.21a5.71,5.71,0,0,1,.15,1.53c-.11,5.47-.24,10.93-.35,16.36C170,816.63,170.22,817.74,170.51,817.76Zm10.51.68h0c.32,0,.58-1.08.61-2.45l.36-16.7a4.68,4.68,0,0,1,.25-1.56c1.14-2.75,2.3-5.52,3.46-8.29A8.32,8.32,0,0,0,186,786v0c-.14-1.19-.46-1.61-.75-.91l-3.47,8.34c-.2.47-.22.44-.39,0-1-2.79-2.09-5.58-3.09-8.37-.25-.7-.61-.28-.77.88h0a8.46,8.46,0,0,0,.14,3.38c1,2.78,2,5.57,3.06,8.36a6.47,6.47,0,0,1,.15,1.57l-.36,16.67C180.48,817.29,180.72,818.42,181,818.44ZM21.9,837.79h0c.15,0,.31-.76.33-1.75.11-4,.22-8,.32-12.09a4.9,4.9,0,0,1,.15-1.12c.61-2,1.25-3.92,1.87-5.89a8.44,8.44,0,0,0,.17-2.45h0c-.06-.86-.23-1.18-.39-.7-.63,2-1.24,3.94-1.85,5.9-.1.34-.14.31-.22,0-.51-2.06-1-4.1-1.53-6.16-.12-.5-.31-.22-.4.63h0a8.44,8.44,0,0,0,0,2.44c.51,2,1,4.1,1.53,6.16a6.56,6.56,0,0,1,.07,1.15q-.15,6-.32,12.07C21.64,837,21.75,837.77,21.9,837.79Zm5.65.76h0c.17,0,.32-.76.35-1.75q.17-6.13.32-12.26a4.29,4.29,0,0,1,.13-1.15c.62-2,1.28-4,1.92-6a8.19,8.19,0,0,0,.19-2.48h0c-.06-.87-.25-1.19-.41-.7-.64,2-1.29,4-1.92,6-.1.34-.13.31-.22,0L26.35,814c-.13-.51-.33-.23-.44.63h0a9,9,0,0,0,.05,2.48c.53,2.07,1.05,4.16,1.59,6.25a6.82,6.82,0,0,1,.07,1.17c-.11,4.08-.22,8.15-.33,12.24C27.27,837.71,27.38,838.53,27.55,838.55Zm5.8.8h0c.16,0,.34-.79.36-1.79L34,825.14a3.89,3.89,0,0,1,.15-1.16c.64-2,1.32-4,2-6.06a8.51,8.51,0,0,0,.16-2.51h0c-.06-.88-.24-1.21-.4-.71-.66,2-1.31,4-2,6.06-.11.34-.14.32-.24,0-.56-2.12-1.08-4.23-1.61-6.34-.13-.51-.33-.23-.44.64h0a8.78,8.78,0,0,0,0,2.5c.52,2.12,1.08,4.23,1.63,6.36a5.6,5.6,0,0,1,.09,1.18l-.33,12.39C33.07,838.48,33.18,839.33,33.35,839.35Zm6,.82h0c.17,0,.34-.8.37-1.82q.16-6.29.32-12.59a4.85,4.85,0,0,1,.15-1.18c.65-2,1.37-4.08,2-6.14a8.32,8.32,0,0,0,.19-2.54h0c-.08-.9-.27-1.23-.44-.73-.67,2.05-1.35,4.1-2,6.14-.12.35-.14.33-.24,0-.56-2.14-1.11-4.29-1.66-6.43-.14-.52-.35-.23-.44.65h0a8.08,8.08,0,0,0,0,2.54q.83,3.21,1.68,6.44a6,6,0,0,1,.08,1.2c-.1,4.2-.23,8.39-.34,12.57C39,839.29,39.14,840.15,39.31,840.17Zm6.15.84h0c.19,0,.34-.81.37-1.85l.33-12.78a4.08,4.08,0,0,1,.16-1.19c.68-2.07,1.38-4.13,2.08-6.22a8,8,0,0,0,.18-2.59h0c-.06-.9-.26-1.24-.43-.72-.7,2.07-1.39,4.15-2.08,6.22-.12.36-.14.33-.23,0-.58-2.18-1.15-4.36-1.72-6.52-.14-.53-.36-.24-.47.66h0a8.54,8.54,0,0,0,.05,2.57c.57,2.18,1.17,4.35,1.73,6.53a6.2,6.2,0,0,1,.07,1.21c-.1,4.26-.22,8.52-.32,12.77C45.15,840.11,45.28,841,45.46,841Zm6.32.87h0c.18,0,.36-.82.38-1.87l.33-13a4.33,4.33,0,0,1,.15-1.22c.69-2.09,1.42-4.18,2.15-6.3a8.27,8.27,0,0,0,.18-2.63h0c-.06-.92-.28-1.26-.45-.75-.73,2.12-1.43,4.24-2.13,6.33-.12.35-.14.32-.23,0q-.9-3.32-1.78-6.62c-.15-.54-.37-.24-.49.65h0A8.15,8.15,0,0,0,50,819.1q.88,3.31,1.78,6.63a6.44,6.44,0,0,1,.08,1.24l-.33,12.95C51.47,841,51.58,841.85,51.78,841.88Zm6.49.89h0c.2,0,.37-.83.4-1.9L59,827.71a4,4,0,0,1,.16-1.23q1.11-3.18,2.21-6.4a8.1,8.1,0,0,0,.19-2.66h0c-.06-.94-.27-1.28-.45-.76q-1.12,3.23-2.2,6.41c-.12.36-.16.34-.27,0q-.93-3.35-1.82-6.72c-.15-.53-.37-.24-.49.68h0a8.8,8.8,0,0,0,.05,2.66c.59,2.25,1.2,4.48,1.83,6.72a6.27,6.27,0,0,1,.1,1.26c-.11,4.38-.22,8.77-.35,13.14C57.93,841.85,58.08,842.74,58.27,842.77Zm6.7.91h0c.2,0,.39-.84.42-1.92l.33-13.36a4,4,0,0,1,.17-1.24c.73-2.16,1.5-4.32,2.26-6.49a9,9,0,0,0,.2-2.71h0c-.1-1-.3-1.3-.49-.77-.75,2.18-1.51,4.35-2.24,6.5-.13.37-.17.34-.27,0q-1-3.4-1.91-6.83c-.15-.55-.38-.25-.49.69h0a8.67,8.67,0,0,0,0,2.69q.95,3.4,1.91,6.84a5.58,5.58,0,0,1,.11,1.27q-.19,6.67-.35,13.34C64.64,842.75,64.78,843.65,65,843.68Zm6.89.94h0c.21,0,.4-.85.43-2q.17-6.78.34-13.55a4.27,4.27,0,0,1,.16-1.27l2.33-6.6a8.14,8.14,0,0,0,.22-2.73h0c-.09-1-.31-1.33-.5-.79-.78,2.22-1.56,4.41-2.33,6.6-.13.38-.15.35-.25,0-.65-2.32-1.31-4.62-2-6.93-.17-.57-.38-.26-.53.69h0a8.6,8.6,0,0,0,.07,2.74c.64,2.31,1.32,4.62,2,6.94a6.72,6.72,0,0,1,.09,1.29c-.11,4.52-.21,9-.34,13.53C71.52,843.67,71.65,844.59,71.86,844.62Zm7.13,1h0c.21,0,.41-.86.44-2,.11-4.59.22-9.17.34-13.77a4.34,4.34,0,0,1,.16-1.28c.8-2.22,1.59-4.45,2.39-6.7a8.26,8.26,0,0,0,.2-2.78h0c-.08-1-.31-1.34-.5-.79-.8,2.25-1.57,4.48-2.37,6.7-.14.38-.17.35-.28,0-.7-2.35-1.37-4.69-2-7-.16-.57-.4-.26-.54.71h0a9.31,9.31,0,0,0,.08,2.76q1,3.52,2,7.07a5.73,5.73,0,0,1,.12,1.31l-.33,13.74C78.65,844.63,78.79,845.57,79,845.6Zm7.33,1h0c.2,0,.41-.88.43-2,.12-4.65.25-9.32.36-14a4.08,4.08,0,0,1,.18-1.3c.82-2.24,1.64-4.51,2.47-6.79a8.77,8.77,0,0,0,.22-2.82h0c-.09-1-.32-1.36-.52-.81-.83,2.28-1.67,4.54-2.48,6.8-.14.38-.18.36-.29,0-.69-2.39-1.42-4.77-2.09-7.15-.17-.58-.42-.26-.56.72h0a9.27,9.27,0,0,0,.09,2.81c.68,2.39,1.39,4.77,2.09,7.17a6.27,6.27,0,0,1,.1,1.33q-.16,7-.34,14C86,845.62,86.1,846.58,86.32,846.61Zm7.57,1h0c.22,0,.43-.89.46-2q.16-7.1.35-14.22a4.23,4.23,0,0,1,.19-1.32c.82-2.29,1.66-4.58,2.51-6.89a8.49,8.49,0,0,0,.24-2.88h0c-.11-1-.35-1.38-.55-.81-.84,2.31-1.69,4.61-2.52,6.9-.14.4-.18.37-.3,0-.75-2.44-1.5-4.86-2.19-7.27-.17-.59-.42-.27-.54.72h0a8.55,8.55,0,0,0,.06,2.86c.7,2.43,1.43,4.86,2.16,7.28a6.14,6.14,0,0,1,.12,1.35q-.16,7.11-.34,14.19C93.51,846.64,93.68,847.61,93.89,847.64Zm7.83,1.08h0c.22,0,.44-.91.47-2.08.13-4.81.23-9.63.34-14.45a4.08,4.08,0,0,1,.17-1.34c.85-2.33,1.76-4.65,2.63-7a7.89,7.89,0,0,0,.22-2.93h0c-.09-1-.33-1.4-.55-.82-.87,2.34-1.76,4.68-2.62,7-.14.39-.18.35-.3,0-.74-2.47-1.49-4.94-2.23-7.39-.17-.6-.44-.27-.58.73h0a8.5,8.5,0,0,0,.08,2.91c.74,2.47,1.48,4.93,2.23,7.4a6.33,6.33,0,0,1,.13,1.38c-.11,4.81-.24,9.62-.36,14.42C101.32,847.7,101.48,848.68,101.72,848.72Zm8.08,1.11h0c.23,0,.44-.93.47-2.13.11-4.87.24-9.77.36-14.67a4.25,4.25,0,0,1,.18-1.37c.9-2.36,1.81-4.72,2.71-7.11a8.42,8.42,0,0,0,.2-3h0c-.08-1-.34-1.42-.55-.85-.9,2.4-1.81,4.78-2.69,7.13-.15.41-.2.38-.33,0-.79-2.5-1.58-5-2.33-7.5-.18-.61-.45-.28-.59.73h0a9.12,9.12,0,0,0,.08,3c.74,2.51,1.54,5,2.33,7.52a6.61,6.61,0,0,1,.12,1.4q-.18,7.34-.35,14.65C109.38,848.79,109.56,849.79,109.8,849.83Zm8.32,1.13h0c.24,0,.46-.94.49-2.15q.18-7.45.37-14.92a4.08,4.08,0,0,1,.2-1.39c.91-2.4,1.85-4.81,2.79-7.23a8.71,8.71,0,0,0,.25-3h0c-.11-1.06-.38-1.44-.6-.87-.94,2.44-1.9,4.85-2.81,7.25-.15.4-.19.38-.32,0-.8-2.54-1.61-5.09-2.4-7.64-.19-.6-.47-.28-.61.76h0a8.88,8.88,0,0,0,.08,3c.78,2.54,1.59,5.09,2.39,7.65a6,6,0,0,1,.14,1.42c-.12,5-.23,10-.35,14.89C117.71,849.9,117.89,850.92,118.12,851Zm8.64,1.18h0c.26,0,.47-.95.5-2.18q.18-7.58.37-15.17a4.23,4.23,0,0,1,.2-1.42c.94-2.44,1.89-4.9,2.85-7.36a8,8,0,0,0,.26-3.06h0c-.11-1.08-.38-1.49-.62-.88-1,2.47-1.91,4.92-2.86,7.36-.16.42-.2.38-.33,0-.84-2.61-1.68-5.19-2.49-7.78-.2-.63-.5-.29-.64.77h0a8.65,8.65,0,0,0,.09,3.07c.82,2.58,1.66,5.18,2.48,7.79a5.7,5.7,0,0,1,.13,1.44c-.11,5.06-.25,10.1-.36,15.15C126.31,851.07,126.5,852.11,126.76,852.14Zm8.93,1.23h0c.25,0,.49-1,.52-2.22q.18-7.71.35-15.44a4.35,4.35,0,0,1,.2-1.44c1-2.48,2-5,3-7.48a7.78,7.78,0,0,0,.25-3.12h0c-.09-1.1-.38-1.51-.63-.9-1,2.52-2,5-3,7.49-.17.43-.2.39-.33,0-.85-2.65-1.74-5.28-2.59-7.92-.21-.64-.5-.29-.66.79h0a7.92,7.92,0,0,0,.1,3.1c.86,2.64,1.7,5.29,2.57,7.94a6.39,6.39,0,0,1,.15,1.48q-.17,7.71-.35,15.4C135.24,852.27,135.42,853.33,135.69,853.37Zm9.23,1.26h0c.27,0,.53-1,.56-2.25.11-5.23.23-10.48.35-15.72a4,4,0,0,1,.22-1.47c1-2.5,2.06-5,3.08-7.6a8.88,8.88,0,0,0,.24-3.17h0c-.11-1.12-.4-1.54-.66-.91l-3.06,7.61c-.17.44-.22.4-.37,0-.9-2.7-1.81-5.38-2.69-8.06-.21-.65-.51-.3-.67.8h0A8.6,8.6,0,0,0,142,827q1.3,4,2.67,8.08a5.91,5.91,0,0,1,.15,1.49q-.18,7.86-.35,15.7C144.46,853.52,144.65,854.6,144.92,854.63Zm9.57,1.32h0c.27,0,.53-1,.56-2.3q.16-8,.37-16a4.11,4.11,0,0,1,.22-1.49c1-2.56,2.1-5.13,3.18-7.73a8.51,8.51,0,0,0,.27-3.23h0c-.12-1.14-.43-1.57-.7-.93q-1.62,3.88-3.16,7.74c-.18.45-.24.41-.39,0-.93-2.75-1.86-5.49-2.77-8.21-.22-.66-.55-.31-.71.81h0a8.58,8.58,0,0,0,.1,3.22q1.36,4.11,2.79,8.22a6.18,6.18,0,0,1,.15,1.52l-.36,16C154,854.81,154.22,855.91,154.49,856Zm9.92,1.36h0c.3,0,.55-1,.57-2.35.12-5.41.24-10.85.36-16.29a4.43,4.43,0,0,1,.24-1.51c1.07-2.62,2.19-5.23,3.3-7.87a8.25,8.25,0,0,0,.27-3.3h0c-.12-1.15-.44-1.59-.72-.94-1.11,2.63-2.19,5.27-3.28,7.89-.19.45-.23.41-.38,0q-1.46-4.2-2.88-8.36c-.23-.69-.58-.31-.74.82h0a8.65,8.65,0,0,0,.11,3.28c1,2.79,1.93,5.57,2.88,8.37a7,7,0,0,1,.15,1.55c-.12,5.43-.24,10.86-.36,16.25C163.9,856.14,164.11,857.27,164.41,857.31Zm10.31,1.4h0c.28,0,.56-1,.59-2.38.12-5.51.22-11.05.36-16.59a4.14,4.14,0,0,1,.22-1.54c1.1-2.67,2.24-5.33,3.42-8a8.53,8.53,0,0,0,.29-3.37h0c-.13-1.17-.47-1.61-.75-1-1.17,2.68-2.3,5.36-3.41,8-.19.46-.22.42-.38,0-1-2.84-2-5.68-3-8.5-.25-.7-.58-.33-.78.82h0a8.71,8.71,0,0,0,.15,3.35c1,2.84,2,5.68,3,8.54a5.91,5.91,0,0,1,.17,1.58c-.12,5.53-.24,11.06-.36,16.55C174.19,857.53,174.4,858.66,174.72,858.71ZM18.48,865h0c.16,0,.31-.74.34-1.72q.15-6,.32-12a4.41,4.41,0,0,1,.11-1.12c.61-1.91,1.22-3.84,1.85-5.75a7.81,7.81,0,0,0,.19-2.42h0c-.06-.87-.24-1.19-.39-.72-.62,1.93-1.25,3.84-1.85,5.76-.1.32-.12.3-.2,0-.5-2.08-1-4.16-1.52-6.24-.12-.5-.29-.24-.4.58h0a9.3,9.3,0,0,0,0,2.45c.5,2.08,1,4.17,1.52,6.25a6,6,0,0,1,.09,1.15q-.16,6-.32,12C18.22,864.13,18.32,865,18.48,865ZM24,866.12h0c.16,0,.32-.75.35-1.75q.15-6.09.32-12.17a4,4,0,0,1,.13-1.13c.63-1.93,1.27-3.88,1.9-5.83a8.28,8.28,0,0,0,.19-2.45s0,0,0,0c0-.89-.23-1.22-.39-.73-.62,2-1.26,3.89-1.88,5.82-.11.34-.15.31-.24,0-.52-2.11-1-4.21-1.53-6.32-.12-.51-.31-.25-.42.59h0a8.59,8.59,0,0,0,0,2.47c.51,2.11,1,4.23,1.55,6.34a6.75,6.75,0,0,1,.07,1.17l-.33,12.15C23.75,865.25,23.86,866.09,24,866.12Zm5.72,1.18h0c.16,0,.33-.76.36-1.78q.15-6.16.32-12.34a4,4,0,0,1,.15-1.14c.63-2,1.29-3.93,1.93-5.91a9,9,0,0,0,.19-2.5h0c-.08-.89-.26-1.22-.42-.74q-1,3-1.94,5.91c-.11.34-.13.31-.22,0-.55-2.15-1.08-4.27-1.61-6.43-.13-.51-.31-.25-.42.61h0a8.86,8.86,0,0,0,0,2.5c.53,2.15,1.07,4.29,1.62,6.45a6.29,6.29,0,0,1,.09,1.18q-.2,6.17-.34,12.32C29.46,866.42,29.59,867.26,29.75,867.3Zm5.87,1.2h0c.18,0,.34-.77.36-1.8l.33-12.51a4,4,0,0,1,.15-1.18c.64-2,1.32-4,2-6a7.89,7.89,0,0,0,.19-2.53h0c-.07-.91-.26-1.24-.42-.75-.68,2-1.32,4-2,6-.12.34-.15.31-.24,0-.55-2.17-1.09-4.34-1.64-6.51-.14-.53-.33-.26-.44.6h0a8.75,8.75,0,0,0,0,2.55c.54,2.17,1.11,4.34,1.65,6.52a7.28,7.28,0,0,1,.07,1.21l-.33,12.5C35.34,867.6,35.45,868.47,35.62,868.5Zm6.08,1.24h0c.16,0,.34-.77.36-1.83q.16-6.33.33-12.7a3.91,3.91,0,0,1,.15-1.17c.68-2,1.37-4,2.05-6.06a8,8,0,0,0,.17-2.57h0c-.06-.92-.25-1.25-.42-.76-.67,2-1.37,4.06-2,6.07-.11.35-.14.32-.23,0-.58-2.2-1.16-4.41-1.71-6.61-.14-.53-.35-.26-.46.61h0a9.4,9.4,0,0,0,.05,2.59q.82,3.3,1.7,6.62a5.85,5.85,0,0,1,.1,1.21q-.16,6.35-.34,12.68C41.38,868.83,41.51,869.71,41.7,869.74ZM47.89,871h0c.19,0,.36-.8.39-1.86.1-4.29.22-8.59.32-12.88a4.24,4.24,0,0,1,.17-1.19c.71-2,1.41-4.08,2.11-6.15a8.6,8.6,0,0,0,.2-2.6h0c-.08-.93-.28-1.27-.45-.77-.72,2.06-1.41,4.11-2.11,6.15-.12.35-.15.33-.25,0q-.89-3.34-1.73-6.71c-.14-.54-.36-.26-.47.62h0a8.87,8.87,0,0,0,0,2.62c.56,2.24,1.16,4.48,1.75,6.72a7.3,7.3,0,0,1,.08,1.24L47.62,869C47.6,870.08,47.72,871,47.89,871Zm6.42,1.3h0c.18,0,.35-.8.38-1.87q.16-6.53.35-13.07a4.16,4.16,0,0,1,.15-1.21q1.06-3.1,2.16-6.23a8.88,8.88,0,0,0,.2-2.64h0c-.08-.95-.28-1.3-.46-.79q-1.08,3.15-2.15,6.24c-.12.36-.14.33-.24,0l-1.83-6.81c-.14-.56-.36-.27-.47.63h0a8.82,8.82,0,0,0,.05,2.66c.61,2.27,1.17,4.54,1.8,6.82a6.15,6.15,0,0,1,.1,1.25c-.11,4.35-.22,8.71-.33,13C54,871.38,54.12,872.28,54.31,872.32Zm6.59,1.35h0c.21,0,.38-.81.41-1.9.11-4.42.2-8.84.33-13.26a3.93,3.93,0,0,1,.15-1.23c.73-2.1,1.49-4.22,2.24-6.32a7.92,7.92,0,0,0,.2-2.68h0c-.06-1-.28-1.32-.47-.79-.76,2.12-1.5,4.22-2.22,6.32-.13.36-.16.33-.25,0-.63-2.31-1.24-4.62-1.87-6.92-.15-.56-.38-.27-.5.64h0a8.39,8.39,0,0,0,.07,2.7c.63,2.3,1.23,4.62,1.86,6.93a6.31,6.31,0,0,1,.1,1.27l-.33,13.24C60.59,872.72,60.7,873.63,60.9,873.67Zm6.8,1.4h0c.21,0,.4-.82.42-1.93q.16-6.74.34-13.46a4,4,0,0,1,.16-1.25l2.3-6.42a8.55,8.55,0,0,0,.18-2.72h0c-.06-1-.28-1.34-.46-.81-.76,2.15-1.54,4.29-2.28,6.42-.13.36-.16.33-.27,0-.67-2.34-1.31-4.69-2-7-.15-.57-.38-.28-.5.66h0a9.19,9.19,0,0,0,.07,2.73c.61,2.34,1.27,4.69,1.92,7a6.38,6.38,0,0,1,.11,1.29c-.11,4.49-.23,9-.34,13.44C67.38,874.1,67.5,875,67.7,875.07Zm7,1.43h0c.21,0,.39-.83.42-2,.13-4.56.24-9.11.36-13.67a4.14,4.14,0,0,1,.16-1.27c.77-2.16,1.58-4.32,2.36-6.5a8.9,8.9,0,0,0,.22-2.76h0c-.09-1-.3-1.36-.5-.83-.8,2.19-1.6,4.35-2.36,6.51-.13.37-.17.35-.29,0-.67-2.38-1.32-4.77-2-7.14-.16-.58-.4-.29-.52.65h0a8.66,8.66,0,0,0,0,2.78c.65,2.39,1.32,4.77,2,7.15a6.87,6.87,0,0,1,.1,1.33c-.12,4.55-.22,9.09-.33,13.65C74.36,875.52,74.5,876.46,74.7,876.5ZM81.92,878h0c.22,0,.41-.84.44-2q.17-6.94.34-13.9a4.31,4.31,0,0,1,.18-1.29c.79-2.18,1.61-4.38,2.43-6.59a7.93,7.93,0,0,0,.2-2.81h0c-.07-1-.3-1.37-.5-.83q-1.23,3.31-2.43,6.6c-.14.38-.17.35-.28,0-.7-2.42-1.37-4.85-2-7.26-.16-.59-.43-.29-.53.66h0a8.38,8.38,0,0,0,.06,2.83q1,3.63,2,7.27a6,6,0,0,1,.11,1.33c-.12,4.64-.23,9.25-.34,13.87C81.56,877,81.71,877.94,81.92,878Zm7.46,1.53h0c.21,0,.42-.86.45-2,.11-4.69.23-9.4.34-14.1a4.12,4.12,0,0,1,.17-1.31q1.22-3.33,2.51-6.69a8.1,8.1,0,0,0,.22-2.85h0c-.08-1-.32-1.4-.53-.86-.87,2.25-1.69,4.49-2.5,6.71-.14.39-.18.35-.29,0-.71-2.47-1.41-4.93-2.12-7.38-.18-.6-.43-.3-.56.67h0a8.33,8.33,0,0,0,.07,2.87c.71,2.46,1.4,4.92,2.12,7.39a6.21,6.21,0,0,1,.12,1.35q-.16,7.05-.34,14.08C89,878.49,89.16,879.47,89.38,879.51Zm7.68,1.58h0c.24,0,.45-.88.47-2.06q.18-7.15.34-14.33a4.49,4.49,0,0,1,.2-1.33c.87-2.25,1.71-4.52,2.57-6.8a8.06,8.06,0,0,0,.22-2.89h0c-.07-1-.33-1.42-.53-.87-.85,2.29-1.74,4.55-2.59,6.81-.14.39-.17.36-.3,0q-1.14-3.75-2.21-7.5c-.17-.61-.43-.3-.57.68h0a9.43,9.43,0,0,0,.08,2.92q1.08,3.75,2.2,7.51a6.54,6.54,0,0,1,.11,1.38q-.17,7.16-.34,14.3C96.68,880,96.84,881,97.06,881.09ZM105,882.7h0c.23,0,.46-.88.49-2.08q.17-7.26.34-14.56a4,4,0,0,1,.19-1.35c.87-2.29,1.76-4.58,2.66-6.9a8.42,8.42,0,0,0,.23-3h0c-.1-1-.35-1.43-.57-.87-.89,2.32-1.78,4.62-2.66,6.92-.14.39-.19.36-.31,0-.78-2.54-1.54-5.09-2.28-7.63-.18-.62-.45-.31-.57.69h0a8.13,8.13,0,0,0,.07,3c.75,2.54,1.5,5.09,2.27,7.65a5.79,5.79,0,0,1,.13,1.39c-.11,4.85-.24,9.71-.36,14.54C104.61,881.65,104.78,882.66,105,882.7Zm8.21,1.68h0c.25.06.46-.89.48-2.11q.18-7.41.35-14.81a4.19,4.19,0,0,1,.2-1.38c.9-2.33,1.82-4.66,2.76-7a8.34,8.34,0,0,0,.23-3h0c-.11-1.08-.35-1.47-.58-.9-.93,2.36-1.86,4.7-2.75,7-.16.41-.2.37-.32-.05-.8-2.59-1.56-5.18-2.34-7.76-.19-.62-.48-.31-.62.7h0a8.65,8.65,0,0,0,.09,3l2.34,7.77a6.87,6.87,0,0,1,.12,1.43c-.12,4.93-.23,9.85-.36,14.78C112.78,883.31,113,884.33,113.21,884.38Zm8.49,1.75h0c.25,0,.47-.91.5-2.15.13-5,.25-10,.37-15.07a3.93,3.93,0,0,1,.2-1.39c.94-2.37,1.86-4.74,2.82-7.13a8.16,8.16,0,0,0,.24-3h0c-.09-1.1-.38-1.5-.6-.92-.94,2.4-1.9,4.77-2.84,7.14-.16.41-.19.37-.32-.05q-1.23-4-2.45-7.91c-.2-.64-.49-.32-.64.71h0a8.69,8.69,0,0,0,.09,3.07c.82,2.63,1.63,5.27,2.46,7.92a6.16,6.16,0,0,1,.13,1.44c-.11,5-.23,10-.35,15C121.29,885,121.45,886.07,121.7,886.13Zm8.76,1.79h0c.25.05.49-.92.52-2.18.11-5.11.23-10.21.35-15.33a4.11,4.11,0,0,1,.22-1.42c1-2.39,2-4.8,2.94-7.23a8.45,8.45,0,0,0,.24-3.1h0c-.11-1.11-.38-1.52-.62-.93L131.17,865c-.17.42-.22.38-.35-.06-.85-2.68-1.71-5.36-2.53-8-.19-.64-.49-.32-.65.72h0a9.14,9.14,0,0,0,.11,3.12q1.23,4,2.51,8.06a7.09,7.09,0,0,1,.13,1.47c-.12,5.11-.23,10.2-.35,15.3C130,886.81,130.21,887.87,130.46,887.92Zm9.09,1.87h0c.27.05.51-.94.54-2.22.12-5.2.24-10.39.35-15.6a4.4,4.4,0,0,1,.22-1.44c1-2.45,2-4.89,3-7.36a8.46,8.46,0,0,0,.27-3.15h0c-.12-1.13-.42-1.55-.67-.95-1,2.48-2,4.93-3,7.37-.17.42-.21.39-.36-.05-.89-2.74-1.78-5.47-2.65-8.2-.21-.66-.51-.33-.66.74h0a8.69,8.69,0,0,0,.1,3.16c.86,2.74,1.74,5.47,2.64,8.21a6.52,6.52,0,0,1,.15,1.5c-.13,5.21-.25,10.38-.37,15.57C139.09,888.65,139.3,889.73,139.55,889.79Zm9.4,1.93h0c.28,0,.54-1,.57-2.28.12-5.27.24-10.57.36-15.86a4.18,4.18,0,0,1,.2-1.47c1-2.48,2.07-5,3.14-7.48a8.12,8.12,0,0,0,.26-3.2h0c-.13-1.16-.42-1.59-.69-1-1.07,2.51-2.09,5-3.12,7.49-.18.43-.22.39-.36-.05-.89-2.79-1.82-5.57-2.72-8.35-.22-.67-.53-.34-.69.75h0a8.6,8.6,0,0,0,.12,3.23c.89,2.77,1.8,5.56,2.7,8.35a6.76,6.76,0,0,1,.15,1.53l-.36,15.83C148.48,890.56,148.66,891.66,149,891.72Zm9.76,2h0c.28,0,.54-1,.57-2.32q.18-8.05.36-16.15a4,4,0,0,1,.24-1.49c1.07-2.51,2.13-5.06,3.21-7.61a8.51,8.51,0,0,0,.26-3.28h0c-.11-1.16-.43-1.59-.69-1-1.07,2.55-2.15,5.1-3.21,7.63-.18.44-.24.4-.4-.07-1-2.83-1.93-5.66-2.86-8.5-.22-.68-.53-.35-.7.75h0a9.16,9.16,0,0,0,.11,3.29q1.38,4.26,2.84,8.52a6.3,6.3,0,0,1,.16,1.55c-.11,5.38-.24,10.76-.36,16.13C158.21,892.52,158.43,893.66,158.71,893.72Zm10.08,2h0c.29.06.56-1,.59-2.34.14-5.47.24-11,.36-16.45a4.38,4.38,0,0,1,.24-1.53c1.1-2.56,2.24-5.13,3.36-7.74a8.45,8.45,0,0,0,.29-3.32h0c-.14-1.2-.46-1.64-.73-1-1.12,2.61-2.26,5.2-3.36,7.77-.19.44-.25.4-.41-.07-1-2.89-2-5.79-2.93-8.68-.23-.68-.57-.34-.72.77h0a8.69,8.69,0,0,0,.11,3.36c1,2.89,1.93,5.77,2.91,8.67a6.49,6.49,0,0,1,.17,1.6l-.36,16.42C168.28,894.57,168.49,895.71,168.79,895.77Zm10.48,2.15h0c.34.07.6-1,.63-2.38l.36-16.77a4.28,4.28,0,0,1,.26-1.55c1.13-2.61,2.27-5.24,3.45-7.88a8.21,8.21,0,0,0,.29-3.38h0c-.14-1.23-.47-1.68-.75-1-1.17,2.65-2.34,5.28-3.47,7.89-.19.45-.24.41-.4-.06-1-3-2.06-5.91-3.07-8.85-.25-.72-.61-.36-.77.78h0a8.59,8.59,0,0,0,.12,3.42c1,3,2,5.89,3.07,8.85a6.86,6.86,0,0,1,.15,1.61c-.12,5.6-.24,11.17-.36,16.75C178.75,896.69,179,897.86,179.27,897.92Zm-158.9-2.69h0c.15,0,.31-.72.34-1.7q.15-6,.32-12.13a3.87,3.87,0,0,1,.15-1.11c.6-1.88,1.25-3.77,1.86-5.67a8,8,0,0,0,.17-2.44h0c-.06-.88-.23-1.22-.38-.75-.64,1.89-1.25,3.8-1.86,5.69-.1.32-.13.29-.21,0-.51-2.15-1-4.3-1.53-6.43-.12-.52-.32-.26-.41.57h0a8.49,8.49,0,0,0,0,2.45l1.53,6.44a6.69,6.69,0,0,1,.07,1.16c-.11,4-.22,8.09-.32,12.11A3.53,3.53,0,0,0,20.37,895.23ZM26,896.8h0c.15.05.31-.73.34-1.73.1-4.07.21-8.19.32-12.29a4.08,4.08,0,0,1,.13-1.13q.94-2.86,1.94-5.74a7.66,7.66,0,0,0,.16-2.48h0c0-.88-.22-1.23-.38-.76q-1,2.88-1.92,5.76c-.11.33-.14.3-.22,0-.52-2.18-1-4.36-1.56-6.52-.13-.53-.33-.26-.44.57h0a9.09,9.09,0,0,0,.05,2.49q.8,3.27,1.57,6.54a6.74,6.74,0,0,1,.08,1.18c-.1,4.09-.21,8.2-.32,12.27C25.73,895.9,25.83,896.75,26,896.8Zm5.79,1.61h0c.17.05.33-.74.35-1.75.11-4.14.22-8.31.33-12.46a3.77,3.77,0,0,1,.15-1.15c.66-1.92,1.31-3.87,2-5.82a7.83,7.83,0,0,0,.16-2.51h0c0-.9-.22-1.24-.38-.77-.65,1.95-1.33,3.89-2,5.83-.11.34-.15.31-.24-.06-.54-2.2-1.1-4.41-1.62-6.61-.13-.53-.33-.26-.44.58h0a9.37,9.37,0,0,0,.05,2.53c.53,2.21,1.06,4.42,1.61,6.63a5.88,5.88,0,0,1,.09,1.2c-.11,4.15-.22,8.31-.33,12.44A3.58,3.58,0,0,0,31.8,898.41Zm6,1.65h0c.17.05.34-.75.37-1.77.11-4.19.22-8.42.32-12.64a4.61,4.61,0,0,1,.15-1.16c.66-2,1.34-3.92,2-5.89a8.27,8.27,0,0,0,.19-2.55h0c-.06-.91-.25-1.27-.42-.79-.69,2-1.37,3.93-2,5.91-.11.34-.14.3-.23-.06-.57-2.23-1.15-4.47-1.68-6.71-.13-.54-.33-.27-.44.59h0a8.92,8.92,0,0,0,0,2.56c.54,2.25,1.12,4.49,1.68,6.73a6.11,6.11,0,0,1,.09,1.22c-.11,4.2-.22,8.43-.33,12.61C37.47,899.14,37.59,900,37.76,900.06Zm6.11,1.7h0c.2.06.36-.76.38-1.8.11-4.25.22-8.54.33-12.82a3.86,3.86,0,0,1,.17-1.17c.67-2,1.37-4,2.07-6a8,8,0,0,0,.18-2.59h0c-.07-.92-.26-1.3-.43-.8-.7,2-1.39,4-2.07,6-.12.33-.15.3-.24-.06q-.87-3.42-1.71-6.81c-.14-.55-.36-.28-.47.6h0a9.51,9.51,0,0,0,.05,2.6c.57,2.27,1.17,4.55,1.73,6.83a7.34,7.34,0,0,1,.07,1.22c-.11,4.27-.22,8.56-.33,12.81C43.57,900.82,43.7,901.71,43.87,901.76Zm6.31,1.76h0c.18.05.35-.77.38-1.83q.19-6.48.35-13a4.15,4.15,0,0,1,.13-1.2c.69-2,1.42-4,2.14-6a8,8,0,0,0,.21-2.62h0c-.07-1-.28-1.32-.46-.83-.72,2-1.42,4.06-2.12,6.08-.12.34-.16.31-.25-.06-.6-2.31-1.19-4.62-1.78-6.91-.15-.58-.36-.29-.47.6h0a8.64,8.64,0,0,0,0,2.63c.59,2.32,1.17,4.64,1.78,6.94a6.37,6.37,0,0,1,.1,1.25q-.16,6.51-.35,13C49.86,902.56,50,903.47,50.18,903.52Zm6.49,1.8h0c.19,0,.38-.78.4-1.85q.16-6.59.34-13.2a3.86,3.86,0,0,1,.16-1.21c.74-2,1.46-4.08,2.19-6.14a7.82,7.82,0,0,0,.19-2.67h0c-.06-1-.26-1.32-.43-.82-.73,2.07-1.49,4.11-2.21,6.16-.13.35-.17.32-.27-.07-.62-2.35-1.24-4.68-1.83-7-.14-.56-.36-.29-.49.62h0a9.59,9.59,0,0,0,.07,2.68c.59,2.35,1.22,4.69,1.83,7a6.87,6.87,0,0,1,.08,1.27q-.16,6.6-.33,13.18C56.35,904.35,56.47,905.27,56.67,905.32Zm6.7,1.86h0c.18.05.37-.79.4-1.88.11-4.45.22-8.93.33-13.4a3.86,3.86,0,0,1,.17-1.22c.73-2.08,1.51-4.14,2.26-6.23a8,8,0,0,0,.2-2.71h0c-.08-1-.3-1.35-.48-.84-.76,2.1-1.51,4.17-2.25,6.25-.12.35-.16.32-.27-.06-.63-2.39-1.27-4.77-1.89-7.15-.15-.58-.38-.3-.48.62h0a8,8,0,0,0,0,2.72c.61,2.39,1.25,4.77,1.89,7.16a6.69,6.69,0,0,1,.1,1.29l-.33,13.38C63,906.19,63.17,907.12,63.37,907.18Zm6.88,1.91h0c.21.06.39-.8.41-1.9q.18-6.8.34-13.6a4,4,0,0,1,.18-1.25c.77-2.1,1.54-4.21,2.33-6.31a7.56,7.56,0,0,0,.2-2.75h0c-.07-1-.29-1.37-.48-.86-.8,2.12-1.56,4.23-2.33,6.33-.13.37-.16.33-.27-.06-.65-2.43-1.3-4.84-1.94-7.26-.16-.59-.4-.3-.52.63h0a8.85,8.85,0,0,0,.07,2.77c.64,2.42,1.3,4.84,1.94,7.27a7.22,7.22,0,0,1,.08,1.31c-.11,4.52-.22,9.06-.33,13.57C69.9,908.08,70.05,909,70.25,909.09Zm7.11,2h0c.22,0,.41-.82.43-1.93q.18-6.9.34-13.82a3.82,3.82,0,0,1,.19-1.27l2.37-6.39a8.12,8.12,0,0,0,.19-2.8h0c-.06-1-.29-1.39-.48-.87-.79,2.15-1.58,4.3-2.38,6.43-.14.36-.16.33-.27-.07-.69-2.47-1.38-4.93-2-7.38-.16-.6-.4-.31-.52.63h0a8.83,8.83,0,0,0,.06,2.81c.66,2.46,1.34,4.93,2,7.39a7.14,7.14,0,0,1,.1,1.34q-.16,6.9-.34,13.79C77,910.05,77.16,911,77.36,911.07Zm7.31,2h0c.2.06.41-.82.44-2,.11-4.67.24-9.35.35-14a4,4,0,0,1,.19-1.3c.82-2.14,1.64-4.31,2.46-6.49a8.36,8.36,0,0,0,.22-2.82h0c-.09-1-.31-1.42-.51-.89-.83,2.18-1.67,4.35-2.49,6.52-.14.37-.17.33-.28-.07-.69-2.51-1.41-5-2.09-7.51-.17-.6-.41-.31-.54.65h0a9.06,9.06,0,0,0,.07,2.85c.66,2.5,1.4,5,2.09,7.51a7.23,7.23,0,0,1,.1,1.36c-.11,4.67-.23,9.35-.34,14C84.31,912.06,84.46,913,84.67,913.1Zm7.57,2.1h0c.21.06.42-.83.45-2,.11-4.74.25-9.5.36-14.27a4,4,0,0,1,.18-1.3c.82-2.18,1.67-4.38,2.52-6.59a8.36,8.36,0,0,0,.23-2.87h0c-.11-1-.34-1.44-.55-.9-.83,2.21-1.68,4.42-2.51,6.61-.14.38-.18.35-.3-.07-.74-2.55-1.47-5.1-2.18-7.63-.17-.62-.43-.32-.55.65h0a8.76,8.76,0,0,0,.06,2.89q1.08,3.82,2.18,7.64a6.6,6.6,0,0,1,.12,1.38q-.19,7.14-.36,14.24C91.86,914.14,92,915.14,92.24,915.2Zm7.81,2.17h0c.24.06.45-.85.47-2q.18-7.23.35-14.5a4,4,0,0,1,.18-1.33q1.29-3.32,2.62-6.68a7.93,7.93,0,0,0,.23-2.92h0c-.11-1-.34-1.46-.56-.92q-1.34,3.36-2.62,6.71c-.15.38-.16.35-.28-.06q-1.14-3.9-2.24-7.77c-.18-.63-.45-.32-.59.66h0a8.74,8.74,0,0,0,.08,2.94c.74,2.59,1.51,5.18,2.24,7.77a6.68,6.68,0,0,1,.12,1.4q-.18,7.26-.35,14.47C99.68,916.3,99.82,917.3,100.05,917.37Zm8.07,2.24h0c.23.07.46-.86.49-2.05q.17-7.35.34-14.74a4.21,4.21,0,0,1,.2-1.34c.9-2.24,1.8-4.52,2.69-6.79a8.46,8.46,0,0,0,.22-3h0c-.09-1.06-.35-1.49-.57-.93-.89,2.28-1.8,4.54-2.68,6.8-.16.39-.19.36-.32-.08-.77-2.63-1.57-5.27-2.32-7.89-.18-.63-.45-.33-.61.67h0a9.54,9.54,0,0,0,.1,3c.75,2.63,1.53,5.28,2.3,7.91a6.1,6.1,0,0,1,.14,1.42c-.12,4.92-.25,9.83-.36,14.72C107.71,918.52,107.89,919.55,108.12,919.61Zm8.32,2.31h0c.23.07.46-.87.48-2.08.12-5,.26-10,.37-15a4,4,0,0,1,.2-1.36c.91-2.29,1.87-4.58,2.8-6.89a8.65,8.65,0,0,0,.24-3h0c-.11-1.08-.37-1.51-.6-1-.93,2.31-1.9,4.6-2.8,6.9-.15.39-.19.36-.32-.07-.8-2.7-1.61-5.36-2.39-8-.18-.65-.48-.34-.6.68h0a8.57,8.57,0,0,0,.06,3c.79,2.68,1.58,5.38,2.39,8.05a6.44,6.44,0,0,1,.13,1.45q-.16,7.5-.35,15C116,920.81,116.2,921.86,116.44,921.92Zm8.62,2.4h0c.27.07.49-.88.52-2.12.11-5.06.23-10.15.35-15.24a4,4,0,0,1,.2-1.39c.94-2.32,1.9-4.66,2.87-7a8.05,8.05,0,0,0,.24-3.07h0c-.11-1.1-.36-1.55-.6-1-1,2.35-1.93,4.68-2.87,7-.16.39-.19.36-.32-.08-.84-2.74-1.69-5.46-2.5-8.18-.21-.68-.5-.35-.64.69h0a9.27,9.27,0,0,0,.09,3.08c.82,2.74,1.67,5.47,2.49,8.21a6.64,6.64,0,0,1,.12,1.47q-.18,7.62-.35,15.21C124.63,923.18,124.81,924.25,125.06,924.32ZM134,926.8h0c.26.07.5-.9.53-2.15.11-5.16.23-10.34.35-15.51a4.15,4.15,0,0,1,.2-1.42c1-2.37,2-4.73,3-7.11a7.46,7.46,0,0,0,.26-3.11h0c-.09-1.14-.39-1.59-.63-1-1,2.4-2,4.77-3,7.14-.16.41-.2.36-.33-.08-.87-2.8-1.74-5.56-2.59-8.33-.21-.69-.51-.37-.67.69h0a8.59,8.59,0,0,0,.11,3.14c.86,2.79,1.7,5.58,2.57,8.36a6.66,6.66,0,0,1,.15,1.5c-.12,5.16-.24,10.33-.35,15.48C133.55,925.64,133.71,926.72,134,926.8Zm9.23,2.56h0c.26.08.52-.91.55-2.19.12-5.24.24-10.52.36-15.78a3.71,3.71,0,0,1,.22-1.43c1-2.4,2.06-4.8,3.07-7.23a8.41,8.41,0,0,0,.24-3.19h0c-.11-1.14-.4-1.6-.65-1-1,2.44-2.06,4.85-3.06,7.26-.17.41-.22.37-.37-.09-.9-2.85-1.81-5.67-2.68-8.5-.21-.68-.52-.36-.67.72h0a9,9,0,0,0,.09,3.2c.87,2.84,1.75,5.66,2.67,8.51a6.86,6.86,0,0,1,.15,1.52c-.12,5.25-.24,10.52-.36,15.75C142.76,928.18,143,929.29,143.22,929.36Zm9.55,2.66h0c.27.07.53-.93.56-2.23.12-5.34.24-10.71.37-16.06a4.42,4.42,0,0,1,.22-1.47c1-2.45,2.1-4.88,3.18-7.33a8.3,8.3,0,0,0,.27-3.25h0c-.12-1.16-.43-1.64-.7-1-1.08,2.47-2.13,4.92-3.16,7.37-.17.42-.23.38-.38-.09-.94-2.9-1.86-5.78-2.77-8.67-.22-.69-.55-.37-.71.72h0a8.87,8.87,0,0,0,.1,3.27q1.37,4.34,2.78,8.68a6,6,0,0,1,.15,1.55q-.18,8-.36,16C152.3,930.81,152.5,931.94,152.77,932Zm9.91,2.75h0c.32.08.56-.94.59-2.27.12-5.43.24-10.9.36-16.35a4,4,0,0,1,.24-1.49c1.07-2.49,2.17-5,3.27-7.46a7.86,7.86,0,0,0,.28-3.31h0c-.13-1.18-.43-1.66-.7-1-1.13,2.5-2.22,5-3.3,7.49-.18.42-.21.38-.37-.09-1-3-1.93-5.89-2.88-8.83-.23-.72-.58-.38-.74.72h0a8.93,8.93,0,0,0,.13,3.33c.95,2.95,1.9,5.88,2.87,8.85a7.55,7.55,0,0,1,.13,1.58c-.12,5.44-.24,10.9-.36,16.32C162.17,933.54,162.4,934.69,162.68,934.77ZM173,937.63h0c.3.08.58-1,.61-2.3.12-5.54.24-11.11.36-16.67a4.46,4.46,0,0,1,.22-1.53c1.1-2.52,2.26-5,3.42-7.58a8,8,0,0,0,.27-3.36h0c-.11-1.21-.46-1.7-.75-1.08-1.16,2.54-2.28,5.09-3.4,7.62-.19.44-.22.39-.38-.09-1-3-2-6-3-9-.25-.74-.6-.39-.77.73h0a9.27,9.27,0,0,0,.12,3.39l3,9a6.36,6.36,0,0,1,.19,1.63c-.12,5.54-.25,11.1-.37,16.63C172.46,936.37,172.66,937.54,173,937.63ZM20,808h0c.15,0,.3-.79.33-1.77q.15-6,.32-12a4.61,4.61,0,0,1,.11-1.12q.91-3,1.86-6a8.41,8.41,0,0,0,.18-2.44h0c-.06-.85-.23-1.15-.39-.65-.61,2-1.25,4-1.85,6-.1.34-.12.32-.2,0-.5-2-1-4-1.52-6-.12-.5-.3-.2-.4.64h0a9.12,9.12,0,0,0,0,2.43c.5,2,1,4,1.52,6a5.8,5.8,0,0,1,.09,1.12q-.16,6-.32,12C19.74,807.19,19.84,808,20,808Z"/><path class="cls-3" d="M25.56,808.37h0c.17,0,.32-.8.35-1.8.1-4,.21-8.09.32-12.14a4.18,4.18,0,0,1,.15-1.13c.63-2,1.27-4,1.9-6a7.74,7.74,0,0,0,.17-2.48h0c0-.86-.21-1.16-.37-.66-.63,2-1.28,4.06-1.9,6.07-.11.34-.15.32-.24,0q-.78-3-1.53-6.08c-.12-.5-.31-.2-.42.65h0a8.15,8.15,0,0,0,0,2.46c.51,2,1,4,1.55,6.08a6.36,6.36,0,0,1,.07,1.14c-.11,4-.22,8.09-.32,12.12,0,1,.08,1.82.25,1.83m5.73.37h0c.17,0,.33-.8.35-1.82q.16-6.13.33-12.31a4.76,4.76,0,0,1,.14-1.15c.64-2,1.29-4.07,1.94-6.12a8.17,8.17,0,0,0,.19-2.51h0c-.06-.87-.25-1.18-.41-.67-.64,2.07-1.29,4.12-1.93,6.15-.11.35-.15.33-.24,0-.54-2-1.08-4.11-1.6-6.16-.13-.52-.33-.21-.42.65h0a8.42,8.42,0,0,0,0,2.5c.52,2.05,1.06,4.1,1.6,6.16a6.28,6.28,0,0,1,.08,1.15c-.11,4.1-.21,8.21-.32,12.29C31,807.9,31.13,808.73,31.29,808.74Zm5.89.38h0c.18,0,.34-.81.37-1.84.1-4.15.21-8.32.32-12.48a4.44,4.44,0,0,1,.15-1.17c.66-2.06,1.34-4.13,2-6.21a8.75,8.75,0,0,0,.18-2.54h0c-.08-.89-.25-1.2-.42-.68-.67,2.09-1.35,4.17-2,6.23-.11.36-.13.33-.21,0-.54-2.08-1.12-4.17-1.65-6.26-.14-.51-.33-.2-.44.67h0a8.34,8.34,0,0,0,0,2.53c.56,2.08,1.1,4.16,1.65,6.25a5.49,5.49,0,0,1,.09,1.17q-.18,6.24-.34,12.46C36.88,808.27,37,809.11,37.18,809.12Zm6.07.39h0c.18,0,.36-.82.39-1.86.1-4.21.21-8.44.32-12.66a4.15,4.15,0,0,1,.15-1.19c.68-2.09,1.37-4.18,2.06-6.3a8.1,8.1,0,0,0,.16-2.58h0c0-.89-.25-1.21-.41-.68-.68,2.12-1.37,4.23-2.05,6.32-.11.36-.15.34-.25,0-.58-2.1-1.16-4.22-1.71-6.34-.14-.52-.33-.21-.46.67h0a9.6,9.6,0,0,0,0,2.57c.56,2.11,1.14,4.22,1.72,6.34a6.5,6.5,0,0,1,.09,1.19L43,807.61C43,808.65,43.08,809.5,43.25,809.51Zm6.24.4h0c.17,0,.34-.83.37-1.89.1-4.27.23-8.55.34-12.84a4.23,4.23,0,0,1,.15-1.2l2.13-6.39a8.92,8.92,0,0,0,.18-2.62h0c-.06-.91-.26-1.23-.44-.69-.69,2.15-1.41,4.29-2.1,6.41-.13.37-.16.34-.26,0-.58-2.14-1.18-4.28-1.75-6.43-.14-.53-.34-.21-.47.68h0a9.13,9.13,0,0,0,0,2.61c.58,2.14,1.17,4.27,1.75,6.43a5.53,5.53,0,0,1,.11,1.2q-.19,6.42-.35,12.82C49.17,809,49.3,809.9,49.49,809.91Zm6.4.41h0c.19,0,.38-.84.4-1.91q.16-6.49.34-13a4.22,4.22,0,0,1,.16-1.21q1.07-3.24,2.16-6.49a8.76,8.76,0,0,0,.19-2.65v0c-.08-.92-.27-1.25-.46-.7l-2.14,6.5c-.12.37-.15.35-.25,0-.61-2.17-1.21-4.35-1.82-6.53-.15-.54-.38-.22-.48.69h0a8.91,8.91,0,0,0,.06,2.64c.59,2.17,1.19,4.34,1.8,6.53a6,6,0,0,1,.09,1.22l-.33,13C55.58,809.43,55.71,810.31,55.89,810.32Zm6.63.43h0c.18,0,.37-.86.4-1.93l.33-13.23a4.48,4.48,0,0,1,.15-1.24c.74-2.19,1.49-4.37,2.24-6.58a8.32,8.32,0,0,0,.21-2.69h0c-.08-.94-.29-1.27-.47-.72-.76,2.22-1.52,4.42-2.25,6.6-.12.38-.13.35-.23,0-.63-2.21-1.27-4.42-1.88-6.63-.16-.55-.37-.22-.49.7h0a8.35,8.35,0,0,0,0,2.69c.62,2.2,1.27,4.39,1.88,6.62a6.07,6.07,0,0,1,.09,1.24c-.11,4.4-.23,8.81-.33,13.2C62.19,809.85,62.32,810.74,62.52,810.75Zm6.81.45h0c.18,0,.37-.88.4-2q.18-6.69.35-13.42a4.58,4.58,0,0,1,.16-1.25c.75-2.22,1.53-4.44,2.28-6.68a8.65,8.65,0,0,0,.21-2.74h0c-.08-1-.28-1.29-.47-.73q-1.16,3.39-2.3,6.7c-.13.39-.16.36-.27,0-.65-2.24-1.31-4.48-1.93-6.73-.15-.55-.38-.22-.5.72h0a8.53,8.53,0,0,0,0,2.72c.62,2.24,1.27,4.47,1.93,6.72a6.27,6.27,0,0,1,.1,1.26c-.11,4.47-.22,9-.33,13.39C69,810.28,69.12,811.18,69.33,811.2Zm7,.45h0c.2,0,.39-.88.41-2q.18-6.78.34-13.63a4.25,4.25,0,0,1,.18-1.26c.77-2.26,1.57-4.51,2.37-6.78a8.61,8.61,0,0,0,.2-2.78h0c-.08-1-.31-1.31-.5-.74-.78,2.29-1.58,4.56-2.35,6.8-.13.39-.18.36-.29,0-.66-2.27-1.35-4.55-2-6.83-.16-.57-.4-.23-.51.72h0a8.49,8.49,0,0,0,0,2.76c.65,2.28,1.34,4.54,2,6.83a6.38,6.38,0,0,1,.1,1.27q-.16,6.82-.33,13.61C76,810.72,76.14,811.64,76.34,811.65Zm7.21.47h0c.23,0,.4-.9.43-2q.19-6.92.36-13.85A4.36,4.36,0,0,1,84.5,795c.8-2.3,1.61-4.59,2.44-6.89a8.06,8.06,0,0,0,.21-2.82v0c-.07-1-.31-1.33-.51-.75-.82,2.32-1.64,4.63-2.44,6.91-.13.39-.15.37-.27,0-.69-2.31-1.39-4.62-2.06-6.94-.16-.57-.41-.23-.54.74h0a8.66,8.66,0,0,0,.07,2.8c.68,2.31,1.37,4.61,2.06,6.94a5.74,5.74,0,0,1,.1,1.28q-.18,6.91-.35,13.82C83.18,811.17,83.35,812.11,83.55,812.12Zm7.48.49h0c.21,0,.42-.92.45-2.08q.17-7,.34-14.06a4.53,4.53,0,0,1,.16-1.3q1.22-3.49,2.51-7a8.28,8.28,0,0,0,.21-2.86v0c-.08-1-.33-1.35-.54-.76-.85,2.36-1.7,4.7-2.5,7-.14.4-.16.37-.27,0l-2.13-7c-.18-.59-.43-.24-.57.75h0a8.66,8.66,0,0,0,.08,2.85c.71,2.33,1.41,4.68,2.13,7a5.69,5.69,0,0,1,.12,1.3q-.16,7-.34,14C90.66,811.64,90.79,812.59,91,812.61Zm7.69.5h0c.22,0,.45-.93.47-2.11q.18-7.12.34-14.29a4.23,4.23,0,0,1,.19-1.32c.86-2.36,1.73-4.73,2.58-7.11a8.56,8.56,0,0,0,.21-2.91v0c-.08-1-.31-1.37-.52-.77-.87,2.4-1.75,4.77-2.59,7.13-.14.41-.18.38-.3,0-.77-2.38-1.5-4.76-2.21-7.16-.18-.59-.43-.23-.57.76h0a8.68,8.68,0,0,0,.08,2.9c.71,2.38,1.44,4.76,2.19,7.16a5.77,5.77,0,0,1,.12,1.32q-.17,7.14-.34,14.27C98.34,812.13,98.5,813.09,98.72,813.11Zm8,.51h0c.24,0,.44-.94.47-2.14.11-4.83.23-9.68.35-14.52a4.32,4.32,0,0,1,.19-1.34c.86-2.41,1.77-4.81,2.66-7.23a9,9,0,0,0,.24-3h0c-.1-1-.35-1.39-.57-.79q-1.33,3.66-2.66,7.25c-.15.41-.19.38-.31,0-.77-2.42-1.54-4.85-2.28-7.28-.19-.6-.47-.24-.59.78h0a8.66,8.66,0,0,0,.08,2.94q1.13,3.63,2.28,7.27a6.08,6.08,0,0,1,.12,1.35q-.18,7.26-.35,14.5C106.28,812.63,106.44,813.61,106.67,813.62Zm8.2.54h0c.27,0,.48-1,.5-2.18.12-4.91.24-9.84.35-14.76a4.22,4.22,0,0,1,.2-1.37c.9-2.44,1.83-4.88,2.76-7.34a8.42,8.42,0,0,0,.23-3h0c-.11-1.05-.37-1.42-.61-.8-.93,2.47-1.84,4.94-2.74,7.37-.15.42-.19.39-.32,0-.79-2.46-1.57-4.93-2.36-7.39-.19-.62-.48-.25-.6.78h0a8.22,8.22,0,0,0,.08,3c.78,2.46,1.58,4.91,2.36,7.4a6.51,6.51,0,0,1,.1,1.37q-.17,7.37-.34,14.74C114.46,813.14,114.64,814.14,114.87,814.16Zm8.52.55h0c.25,0,.48-1,.5-2.21.12-5,.22-10,.35-15a4.6,4.6,0,0,1,.22-1.39q1.4-3.71,2.82-7.46a8.44,8.44,0,0,0,.23-3.07h0c-.1-1.07-.37-1.44-.61-.82-.94,2.52-1.89,5-2.82,7.5-.16.42-.19.39-.32,0-.81-2.51-1.66-5-2.46-7.52-.2-.63-.48-.25-.64.79h0a8.72,8.72,0,0,0,.1,3c.82,2.5,1.63,5,2.46,7.52a6.23,6.23,0,0,1,.13,1.39c-.11,5-.25,10-.36,15C123,813.68,123.12,814.69,123.39,814.71Zm8.75.55h0c.27,0,.51-1,.54-2.23q.18-7.62.35-15.28a4.2,4.2,0,0,1,.2-1.41c1-2.52,2-5,3-7.59a9.12,9.12,0,0,0,.25-3.12h0c-.1-1.09-.39-1.47-.63-.83-1,2.57-2,5.1-3,7.62-.16.43-.21.41-.35,0-.86-2.54-1.69-5.09-2.51-7.65-.2-.63-.5-.25-.66.81h0a9,9,0,0,0,.1,3.1c.82,2.54,1.67,5.09,2.51,7.65a6.21,6.21,0,0,1,.15,1.42c-.11,5.08-.25,10.17-.36,15.24C131.7,814.23,131.89,815.25,132.14,815.26Zm9.11.6h0c.27,0,.51-1,.54-2.28.11-5.17.23-10.36.35-15.54a4.32,4.32,0,0,1,.22-1.44q1.48-3.86,3-7.72a8.91,8.91,0,0,0,.27-3.17v0c-.12-1.1-.42-1.49-.67-.84-1,2.6-2,5.19-3,7.75-.17.44-.21.41-.35,0-.89-2.59-1.79-5.18-2.66-7.78-.21-.64-.51-.26-.66.82h0a8.8,8.8,0,0,0,.1,3.15c.86,2.59,1.73,5.18,2.64,7.79a5.36,5.36,0,0,1,.15,1.44q-.19,7.77-.37,15.51C140.79,814.79,141,815.84,141.25,815.86Zm9.41.61h0c.28,0,.54-1,.57-2.32q.18-7.89.35-15.82a4.27,4.27,0,0,1,.21-1.47c1-2.6,2.07-5.22,3.14-7.85a8.21,8.21,0,0,0,.26-3.23h0c-.12-1.13-.42-1.53-.69-.86-1.06,2.65-2.09,5.28-3.13,7.89-.17.45-.21.41-.35,0-.89-2.64-1.83-5.28-2.72-7.92-.23-.66-.54-.27-.69.84h0a8.21,8.21,0,0,0,.11,3.2c.89,2.63,1.8,5.27,2.71,7.91a6.25,6.25,0,0,1,.15,1.48q-.18,7.91-.36,15.79C150.19,815.38,150.37,816.45,150.66,816.47Zm9.77.63h0c.27,0,.55-1,.58-2.37.11-5.34.24-10.72.35-16.09a4.44,4.44,0,0,1,.22-1.5q1.62-4,3.23-8a8.17,8.17,0,0,0,.24-3.29s0,0,0,0c-.1-1.14-.4-1.54-.66-.87-1.07,2.71-2.16,5.38-3.22,8-.18.46-.24.43-.4,0-1-2.68-1.94-5.37-2.86-8.07-.23-.66-.53-.27-.71.85h0a8.92,8.92,0,0,0,.11,3.26c.93,2.69,1.88,5.37,2.85,8.06a6.37,6.37,0,0,1,.16,1.51c-.12,5.36-.24,10.73-.35,16.06C159.94,816,160.15,817.08,160.43,817.1Zm10.08.66h0c.29,0,.56-1.06.59-2.42.12-5.44.24-10.91.36-16.38a4.27,4.27,0,0,1,.24-1.53c1.1-2.71,2.26-5.41,3.38-8.14a9.18,9.18,0,0,0,.28-3.35v0c-.13-1.16-.46-1.57-.74-.89-1.12,2.76-2.28,5.48-3.37,8.19-.18.46-.24.44-.4,0-1-2.73-2-5.48-2.92-8.22-.24-.68-.57-.28-.73.87h0a8.44,8.44,0,0,0,.1,3.32c.95,2.74,1.94,5.47,2.94,8.2a6.86,6.86,0,0,1,.15,1.54c-.12,5.46-.24,10.93-.36,16.36C170,816.63,170.23,817.74,170.51,817.76Zm10.52.68h0c.31,0,.57-1.08.6-2.46q.18-8.34.37-16.7a4.2,4.2,0,0,1,.25-1.55c1.13-2.75,2.29-5.52,3.45-8.3A8.28,8.28,0,0,0,186,786h0c-.14-1.19-.46-1.61-.75-.91-1.16,2.81-2.32,5.58-3.47,8.34-.2.47-.22.43-.38,0-1-2.8-2.09-5.58-3.1-8.38-.24-.69-.61-.27-.77.89h0a8.44,8.44,0,0,0,.15,3.38c1,2.78,2,5.57,3.05,8.36a6,6,0,0,1,.15,1.57c-.12,5.55-.24,11.12-.36,16.66C180.48,817.29,180.72,818.42,181,818.44ZM21.9,837.79h0c.15,0,.31-.77.34-1.75q.15-6,.32-12.09a4.58,4.58,0,0,1,.14-1.13c.61-2,1.26-3.92,1.88-5.88a8.48,8.48,0,0,0,.16-2.45h0c-.06-.86-.23-1.18-.38-.7-.64,2-1.25,3.94-1.86,5.9-.1.34-.13.31-.22,0-.51-2.06-1-4.1-1.53-6.16-.12-.5-.31-.23-.4.62h0a8.42,8.42,0,0,0,0,2.44q.78,3.07,1.54,6.17a6.56,6.56,0,0,1,.07,1.15q-.16,6-.32,12.07C21.64,836.94,21.75,837.77,21.9,837.79Zm5.65.76h0c.17,0,.33-.76.35-1.76q.17-6.12.32-12.25a4.73,4.73,0,0,1,.13-1.15c.62-2,1.28-4,1.93-6a8.47,8.47,0,0,0,.18-2.47h0c-.06-.87-.25-1.19-.4-.7-.65,2-1.3,4-1.92,6-.11.35-.14.32-.22,0-.53-2.09-1-4.17-1.57-6.25-.13-.51-.33-.23-.44.63h0a8.56,8.56,0,0,0,.06,2.48c.52,2.07,1.05,4.16,1.58,6.25a6.82,6.82,0,0,1,.07,1.17q-.16,6.12-.32,12.23C27.27,837.71,27.38,838.53,27.55,838.55Zm5.8.8h0c.17,0,.34-.79.36-1.8L34,825.14a3.89,3.89,0,0,1,.15-1.16c.64-2,1.32-4,2-6.06a8.46,8.46,0,0,0,.17-2.51h0c-.06-.88-.24-1.21-.4-.71l-2,6.06c-.11.34-.14.32-.23,0-.57-2.11-1.09-4.22-1.62-6.33-.13-.52-.33-.23-.43.64h0a8.48,8.48,0,0,0,0,2.5c.53,2.12,1.08,4.23,1.63,6.35a5.73,5.73,0,0,1,.09,1.18q-.16,6.21-.32,12.4C33.07,838.48,33.18,839.33,33.35,839.35Zm6,.82h0c.17,0,.35-.8.37-1.82L40,825.76a4,4,0,0,1,.15-1.18c.64-2,1.36-4.08,2-6.14a8.69,8.69,0,0,0,.18-2.54h0c-.08-.9-.27-1.23-.44-.73-.67,2.05-1.35,4.1-2,6.14-.11.35-.14.33-.23,0-.57-2.15-1.12-4.29-1.67-6.43-.13-.52-.35-.23-.44.65h0a8.31,8.31,0,0,0,0,2.53c.55,2.15,1.12,4.3,1.68,6.45a5.88,5.88,0,0,1,.09,1.2c-.11,4.2-.24,8.39-.35,12.57C39,839.29,39.15,840.14,39.31,840.17Zm6.15.84h0c.19,0,.34-.81.37-1.85l.33-12.78a4.08,4.08,0,0,1,.16-1.19c.68-2.07,1.38-4.13,2.08-6.22a8,8,0,0,0,.18-2.59h0c-.06-.9-.26-1.24-.43-.73q-1,3.12-2.08,6.23c-.11.35-.14.33-.23,0-.58-2.18-1.15-4.36-1.72-6.52-.13-.53-.36-.24-.47.66h0a8.19,8.19,0,0,0,.06,2.57c.56,2.18,1.16,4.35,1.73,6.53a7.13,7.13,0,0,1,.07,1.21l-.33,12.77C45.15,840.11,45.28,841,45.46,841Zm6.32.87h0c.19,0,.36-.82.39-1.88q.16-6.46.33-13a4.28,4.28,0,0,1,.14-1.21q1.05-3.14,2.15-6.3a8.3,8.3,0,0,0,.18-2.63h0c-.06-.92-.27-1.26-.45-.75-.73,2.12-1.43,4.23-2.13,6.33-.11.35-.14.32-.23,0-.6-2.22-1.19-4.42-1.78-6.62-.15-.54-.36-.24-.49.65h0A8.15,8.15,0,0,0,50,819.1q.88,3.31,1.78,6.63a5.61,5.61,0,0,1,.08,1.23c-.1,4.32-.22,8.65-.32,13C51.47,841,51.58,841.85,51.78,841.88Zm6.49.89h0c.2,0,.37-.83.4-1.9L59,827.71a4.32,4.32,0,0,1,.16-1.23c.74-2.12,1.49-4.26,2.22-6.4a8.47,8.47,0,0,0,.18-2.66h0c-.06-.94-.27-1.29-.45-.76-.74,2.15-1.48,4.29-2.19,6.4-.13.37-.17.34-.27,0-.62-2.23-1.24-4.48-1.83-6.72-.14-.53-.37-.25-.49.68h0a9.05,9.05,0,0,0,.05,2.65c.59,2.25,1.21,4.49,1.83,6.73a6.23,6.23,0,0,1,.1,1.25q-.16,6.58-.34,13.15C57.94,841.84,58.08,842.74,58.27,842.77Zm6.7.9h0c.2,0,.39-.84.42-1.91l.33-13.36a4.15,4.15,0,0,1,.17-1.25c.73-2.16,1.5-4.31,2.26-6.49a8.92,8.92,0,0,0,.2-2.7h0c-.09-1-.3-1.3-.48-.77-.76,2.18-1.52,4.35-2.25,6.5-.12.37-.16.34-.27,0q-1-3.4-1.91-6.82c-.15-.55-.38-.25-.49.69h0a8.67,8.67,0,0,0,0,2.69q.95,3.4,1.92,6.84a6.31,6.31,0,0,1,.1,1.27q-.19,6.67-.35,13.34C64.64,842.75,64.79,843.65,65,843.67Zm6.89,1h0c.22,0,.41-.85.43-2,.11-4.52.23-9,.34-13.56a4.2,4.2,0,0,1,.16-1.26l2.33-6.6a8.16,8.16,0,0,0,.22-2.73h0c-.09-1-.31-1.33-.5-.79-.78,2.22-1.56,4.4-2.33,6.6-.13.37-.15.34-.25,0-.65-2.31-1.3-4.61-2-6.92-.16-.57-.38-.26-.52.69h0a8.64,8.64,0,0,0,.06,2.74c.65,2.31,1.32,4.61,2,6.94a6,6,0,0,1,.09,1.29c-.11,4.52-.21,9-.33,13.53C71.53,843.67,71.66,844.59,71.86,844.62Zm7.14,1h0c.2,0,.41-.87.43-2q.18-6.87.34-13.76a4,4,0,0,1,.17-1.28l2.38-6.7a8.26,8.26,0,0,0,.2-2.78h0c-.08-1-.31-1.34-.5-.79-.8,2.25-1.57,4.48-2.37,6.69-.14.39-.17.36-.28,0-.69-2.35-1.37-4.69-2-7-.16-.57-.4-.26-.54.7h0a9.31,9.31,0,0,0,.09,2.77c.66,2.35,1.32,4.71,2,7.06a6.53,6.53,0,0,1,.12,1.31q-.18,6.88-.34,13.74C78.65,844.63,78.8,845.57,79,845.6Zm7.32,1h0c.2,0,.41-.87.44-2,.11-4.66.24-9.32.35-14a4.19,4.19,0,0,1,.18-1.31c.82-2.23,1.65-4.5,2.47-6.78a8.49,8.49,0,0,0,.22-2.82h0c-.09-1-.32-1.36-.52-.81-.82,2.28-1.67,4.54-2.48,6.79-.14.39-.17.36-.29,0-.69-2.39-1.42-4.77-2.09-7.15-.16-.58-.41-.27-.55.71h0a9.08,9.08,0,0,0,.08,2.82c.68,2.38,1.39,4.77,2.09,7.17a5.66,5.66,0,0,1,.1,1.33q-.16,7-.33,14C86,845.62,86.1,846.57,86.32,846.6Zm7.58,1h0c.21,0,.42-.89.45-2q.16-7.1.36-14.22a4.21,4.21,0,0,1,.18-1.32c.82-2.29,1.67-4.58,2.52-6.89a8.82,8.82,0,0,0,.23-2.89h0c-.11-1-.34-1.37-.55-.8-.84,2.31-1.69,4.61-2.52,6.9-.14.39-.18.37-.3,0-.75-2.43-1.49-4.85-2.19-7.27-.17-.58-.41-.26-.54.73h0a8.52,8.52,0,0,0,.07,2.86c.69,2.43,1.43,4.85,2.16,7.28a5.69,5.69,0,0,1,.11,1.35c-.11,4.73-.22,9.47-.34,14.19C93.52,846.64,93.68,847.61,93.9,847.64Zm7.82,1.08h0c.22,0,.44-.91.47-2.08.13-4.81.23-9.63.34-14.45a4.48,4.48,0,0,1,.17-1.35c.85-2.32,1.76-4.64,2.64-7a8,8,0,0,0,.22-2.92h0c-.1-1-.34-1.4-.55-.83-.88,2.35-1.76,4.69-2.62,7-.15.39-.19.35-.31,0-.73-2.47-1.49-4.94-2.22-7.39-.18-.6-.45-.27-.59.73h0a8.5,8.5,0,0,0,.08,2.91c.74,2.47,1.48,4.93,2.23,7.4a6.33,6.33,0,0,1,.13,1.38c-.11,4.81-.24,9.62-.36,14.42C101.33,847.7,101.49,848.68,101.72,848.72Zm8.08,1.11h0c.23,0,.44-.94.47-2.13.11-4.87.25-9.77.36-14.67a4.25,4.25,0,0,1,.18-1.37c.9-2.36,1.81-4.73,2.71-7.11a8.42,8.42,0,0,0,.2-3h0c-.07-1-.33-1.42-.55-.85q-1.35,3.6-2.69,7.13c-.15.41-.2.38-.33,0-.79-2.5-1.58-5-2.33-7.5-.18-.61-.44-.28-.59.73h0a8.82,8.82,0,0,0,.09,3c.73,2.51,1.53,5,2.32,7.52a6,6,0,0,1,.12,1.4q-.18,7.34-.34,14.65C109.39,848.79,109.56,849.79,109.8,849.83Zm8.33,1.12h0c.23,0,.46-.93.49-2.14.11-5,.24-9.94.36-14.92a4.08,4.08,0,0,1,.2-1.39c.91-2.4,1.86-4.81,2.79-7.23a8.71,8.71,0,0,0,.25-3h0c-.11-1.07-.38-1.45-.6-.87-.94,2.44-1.9,4.85-2.8,7.24-.16.41-.19.38-.32,0q-1.22-3.81-2.41-7.64c-.19-.6-.46-.28-.61.76h0a8.81,8.81,0,0,0,.08,3c.78,2.55,1.59,5.1,2.39,7.66a6,6,0,0,1,.14,1.42c-.11,5-.23,10-.35,14.89C117.72,849.9,117.89,850.92,118.13,851Zm8.63,1.19h0c.27,0,.47-.95.5-2.18q.18-7.58.37-15.17a4.23,4.23,0,0,1,.2-1.42c.94-2.44,1.89-4.9,2.86-7.36a8.24,8.24,0,0,0,.25-3.06h0c-.11-1.09-.38-1.49-.62-.89-1,2.48-1.91,4.93-2.85,7.37-.17.42-.21.38-.34,0-.84-2.61-1.67-5.19-2.49-7.78-.2-.63-.5-.29-.64.77h0a8.41,8.41,0,0,0,.1,3.07c.81,2.58,1.65,5.18,2.47,7.79a6,6,0,0,1,.14,1.44q-.18,7.59-.37,15.14C126.31,851.06,126.51,852.1,126.76,852.14Zm8.93,1.22h0c.25,0,.49-1,.52-2.21q.18-7.71.35-15.44a4.63,4.63,0,0,1,.2-1.44c1-2.48,2-5,3-7.48a7.94,7.94,0,0,0,.26-3.12h0c-.1-1.1-.39-1.51-.64-.9-1,2.52-2,5-3,7.49-.17.43-.2.39-.34,0-.85-2.65-1.73-5.28-2.59-7.92-.21-.64-.5-.3-.66.79h0a8.13,8.13,0,0,0,.1,3.1c.86,2.64,1.7,5.29,2.57,7.94a5.41,5.41,0,0,1,.15,1.47q-.17,7.73-.35,15.41C135.24,852.27,135.42,853.33,135.69,853.36Zm9.23,1.27h0c.27,0,.53-1,.56-2.25.12-5.23.24-10.48.35-15.72a4.46,4.46,0,0,1,.22-1.47c1-2.5,2.06-5,3.08-7.6a8.68,8.68,0,0,0,.24-3.17h0c-.11-1.12-.4-1.54-.65-.91q-1.54,3.81-3.06,7.61c-.18.43-.23.4-.37,0-.91-2.7-1.82-5.39-2.69-8.06-.21-.65-.52-.3-.68.79h0A8.88,8.88,0,0,0,142,827q1.3,4,2.67,8.08a5.47,5.47,0,0,1,.15,1.49q-.17,7.86-.35,15.69C144.46,853.52,144.66,854.6,144.92,854.63Zm9.57,1.32h0c.27,0,.53-1,.56-2.3q.18-8,.37-16a4.59,4.59,0,0,1,.22-1.49c1-2.56,2.1-5.14,3.18-7.73a8.51,8.51,0,0,0,.27-3.23h0c-.12-1.15-.43-1.57-.7-.94-1.08,2.59-2.13,5.18-3.16,7.75-.18.44-.23.41-.39,0-.93-2.75-1.86-5.49-2.77-8.21-.22-.67-.55-.31-.71.81h0a8.51,8.51,0,0,0,.1,3.21q1.36,4.13,2.79,8.23a6.18,6.18,0,0,1,.15,1.52q-.18,8-.36,16C154,854.81,154.22,855.91,154.49,856Zm9.92,1.36h0c.31,0,.55-1,.58-2.36.12-5.4.24-10.84.36-16.28a4.17,4.17,0,0,1,.23-1.51c1.07-2.62,2.19-5.23,3.3-7.87a8.25,8.25,0,0,0,.27-3.3h0c-.12-1.15-.44-1.59-.71-.94-1.11,2.63-2.2,5.27-3.29,7.88-.18.46-.23.42-.38,0q-1.46-4.2-2.87-8.36c-.24-.69-.58-.32-.74.82h0a8.46,8.46,0,0,0,.11,3.28c.95,2.79,1.92,5.56,2.87,8.37a6.4,6.4,0,0,1,.15,1.55c-.12,5.43-.24,10.86-.36,16.25C163.9,856.13,164.11,857.27,164.41,857.31Zm10.31,1.4h0c.28,0,.56-1,.59-2.38.12-5.51.23-11.05.36-16.59a4.6,4.6,0,0,1,.22-1.54c1.1-2.67,2.24-5.33,3.42-8a8.3,8.3,0,0,0,.29-3.36h0c-.13-1.17-.47-1.61-.75-1-1.17,2.68-2.3,5.36-3.4,8-.19.46-.23.41-.39,0-1-2.84-2-5.68-3-8.51-.25-.69-.58-.32-.77.83h0a8.73,8.73,0,0,0,.14,3.35l3,8.54a6,6,0,0,1,.16,1.58c-.12,5.53-.24,11.06-.36,16.55C174.19,857.53,174.4,858.66,174.72,858.71ZM18.49,865h0c.15,0,.3-.74.33-1.73q.15-6,.32-12a4.37,4.37,0,0,1,.11-1.11c.61-1.91,1.22-3.84,1.86-5.75a8.17,8.17,0,0,0,.18-2.42h0c-.06-.87-.24-1.19-.39-.72-.62,1.93-1.25,3.84-1.85,5.76-.1.32-.12.3-.2,0-.49-2.08-1-4.16-1.52-6.24-.12-.51-.29-.24-.4.58h0a9.24,9.24,0,0,0,0,2.45c.5,2.08,1,4.16,1.51,6.25a6,6,0,0,1,.09,1.15q-.16,6-.32,12C18.22,864.13,18.32,865,18.49,865ZM24,866.12h0c.17,0,.32-.75.35-1.75q.16-6.09.32-12.17a4.44,4.44,0,0,1,.13-1.13c.64-1.93,1.27-3.88,1.91-5.83a8.36,8.36,0,0,0,.18-2.45s0,0,0,0c0-.9-.23-1.22-.38-.73q-.94,2.93-1.89,5.82c-.11.33-.15.31-.23,0-.52-2.11-1-4.2-1.54-6.31-.12-.52-.31-.25-.41.59h0a8.64,8.64,0,0,0,0,2.47c.51,2.1,1,4.23,1.55,6.34a6.75,6.75,0,0,1,.07,1.17q-.17,6.07-.32,12.15C23.75,865.25,23.86,866.09,24,866.12Zm5.73,1.17h0c.15,0,.32-.75.35-1.77.1-4.12.21-8.22.32-12.34a4.11,4.11,0,0,1,.15-1.15c.63-2,1.29-3.93,1.94-5.91a9.43,9.43,0,0,0,.18-2.49h0c-.08-.9-.26-1.22-.42-.74-.64,2-1.3,4-1.94,5.91-.11.34-.12.31-.21,0-.55-2.14-1.09-4.26-1.62-6.42-.13-.52-.31-.25-.42.61h0a8.45,8.45,0,0,0,0,2.5c.52,2.15,1.06,4.29,1.61,6.44a6.46,6.46,0,0,1,.09,1.18c-.12,4.12-.24,8.22-.34,12.33C29.46,866.41,29.59,867.26,29.76,867.29Zm5.86,1.21h0c.18,0,.34-.77.37-1.8q.15-6.26.32-12.52a4.32,4.32,0,0,1,.15-1.17q1-3,2-6a7.64,7.64,0,0,0,.19-2.53h0c-.06-.91-.26-1.24-.42-.75-.67,2-1.32,4-2,6-.11.34-.14.31-.23,0l-1.65-6.52c-.14-.52-.33-.25-.44.61h0a9.12,9.12,0,0,0,0,2.55c.54,2.17,1.12,4.34,1.65,6.52a7.28,7.28,0,0,1,.07,1.21q-.16,6.25-.32,12.5C35.34,867.6,35.45,868.46,35.62,868.5Zm6.08,1.24h0c.17,0,.34-.78.37-1.83q.15-6.33.32-12.7a4.21,4.21,0,0,1,.15-1.17L44.6,848a8.19,8.19,0,0,0,.16-2.56h0c-.06-.92-.25-1.26-.41-.76-.68,2-1.37,4.06-2,6.07-.12.34-.14.32-.24,0-.58-2.21-1.16-4.41-1.71-6.61-.13-.54-.35-.26-.46.61h0a8.89,8.89,0,0,0,.06,2.58q.82,3.32,1.69,6.63a5.63,5.63,0,0,1,.11,1.21q-.16,6.35-.35,12.68C41.38,868.83,41.51,869.71,41.7,869.74ZM47.89,871h0c.19,0,.36-.81.39-1.86l.33-12.88a4.05,4.05,0,0,1,.16-1.2q1.06-3,2.11-6.14a8.6,8.6,0,0,0,.2-2.6h0c-.08-.93-.28-1.28-.45-.77l-2.11,6.15c-.12.35-.15.33-.25,0-.59-2.24-1.16-4.47-1.73-6.71-.14-.54-.36-.27-.47.62h0a9.22,9.22,0,0,0,0,2.62c.57,2.24,1.17,4.48,1.75,6.72a6.32,6.32,0,0,1,.08,1.23c-.1,4.29-.22,8.59-.32,12.86A3.75,3.75,0,0,0,47.89,871Zm6.42,1.3h0c.18,0,.36-.8.38-1.88q.16-6.51.35-13.06a4.11,4.11,0,0,1,.15-1.21q1.06-3.1,2.16-6.23a8.88,8.88,0,0,0,.2-2.64h0c-.08-.95-.28-1.3-.45-.79q-1.1,3.13-2.16,6.24c-.12.36-.14.33-.24,0-.6-2.27-1.22-4.54-1.82-6.81-.15-.56-.37-.27-.48.63h0a8.4,8.4,0,0,0,.06,2.65c.6,2.28,1.16,4.55,1.79,6.83a5.5,5.5,0,0,1,.1,1.25c-.1,4.35-.22,8.71-.33,13C54,871.38,54.12,872.28,54.31,872.32Zm6.6,1.35h0c.2,0,.37-.81.4-1.9.11-4.42.21-8.84.33-13.26a4.26,4.26,0,0,1,.15-1.23c.74-2.1,1.49-4.22,2.24-6.32a8,8,0,0,0,.2-2.68h0c0-1-.27-1.32-.46-.79-.77,2.12-1.5,4.22-2.23,6.32-.12.36-.15.33-.25,0-.62-2.31-1.23-4.62-1.86-6.92-.16-.56-.38-.27-.51.64h0a8.69,8.69,0,0,0,.07,2.7c.63,2.3,1.23,4.61,1.86,6.93a5.58,5.58,0,0,1,.1,1.27l-.33,13.24C60.6,872.72,60.71,873.63,60.91,873.67Zm6.8,1.4h0c.2,0,.39-.83.42-1.93l.33-13.47a4,4,0,0,1,.17-1.24L70.92,852a8.55,8.55,0,0,0,.19-2.73h0c-.06-1-.29-1.33-.47-.8-.76,2.15-1.54,4.29-2.28,6.42-.13.36-.16.33-.27,0q-1-3.52-1.94-7c-.16-.57-.38-.28-.51.66h0a9.54,9.54,0,0,0,.07,2.73c.62,2.34,1.27,4.68,1.93,7a6.54,6.54,0,0,1,.1,1.29q-.17,6.72-.34,13.44C67.38,874.1,67.51,875,67.71,875.07Zm7,1.43h0c.2,0,.39-.83.42-2q.18-6.84.35-13.67a4.54,4.54,0,0,1,.16-1.28c.77-2.16,1.58-4.31,2.37-6.5a8.83,8.83,0,0,0,.22-2.75h0c-.1-1-.31-1.36-.51-.83-.79,2.19-1.6,4.35-2.36,6.51-.13.37-.17.35-.28,0-.68-2.38-1.32-4.77-2-7.15-.16-.58-.4-.28-.52.66h0a9,9,0,0,0,0,2.78c.66,2.38,1.32,4.77,2,7.15a6.14,6.14,0,0,1,.1,1.33c-.12,4.55-.22,9.09-.33,13.64C74.36,875.52,74.51,876.46,74.71,876.5ZM81.93,878h0c.21,0,.4-.84.43-2,.11-4.63.23-9.25.34-13.89a4.26,4.26,0,0,1,.18-1.29q1.2-3.27,2.43-6.59a8.13,8.13,0,0,0,.21-2.81h0c-.08-1-.31-1.37-.51-.84q-1.23,3.33-2.43,6.61c-.13.38-.17.35-.28,0-.7-2.43-1.36-4.85-2-7.26-.17-.59-.43-.29-.54.66h0a8.65,8.65,0,0,0,.06,2.83c.67,2.42,1.36,4.84,2,7.27a6.87,6.87,0,0,1,.1,1.33q-.17,6.94-.34,13.87C81.56,877,81.71,877.94,81.93,878Zm7.45,1.53h0c.21,0,.42-.86.45-2,.11-4.69.23-9.4.34-14.1a4.08,4.08,0,0,1,.17-1.31q1.22-3.33,2.51-6.7a7.79,7.79,0,0,0,.22-2.84h0c-.07-1-.32-1.41-.53-.86-.87,2.25-1.69,4.49-2.5,6.71-.14.39-.17.35-.29,0q-1.05-3.71-2.12-7.38c-.18-.61-.43-.3-.56.67h0a8.59,8.59,0,0,0,.07,2.87c.71,2.46,1.41,4.92,2.13,7.39a6.93,6.93,0,0,1,.11,1.35q-.16,7.05-.34,14.08C89,878.49,89.16,879.46,89.38,879.51Zm7.69,1.58h0c.23,0,.44-.89.46-2.06q.18-7.15.35-14.34a3.86,3.86,0,0,1,.2-1.32c.86-2.25,1.7-4.52,2.56-6.8a7.86,7.86,0,0,0,.22-2.89h0c-.07-1-.32-1.42-.53-.87-.85,2.29-1.74,4.55-2.58,6.81-.15.39-.18.36-.3,0-.77-2.51-1.5-5-2.21-7.5-.18-.61-.43-.3-.58.68h0a9.11,9.11,0,0,0,.09,2.92q1.06,3.75,2.19,7.51a6.36,6.36,0,0,1,.12,1.37q-.18,7.17-.35,14.31C96.69,880,96.85,881,97.07,881.09ZM105,882.7h0c.24,0,.46-.88.49-2.08.12-4.84.23-9.71.34-14.56a4.56,4.56,0,0,1,.19-1.35c.87-2.3,1.76-4.59,2.67-6.9a8.47,8.47,0,0,0,.22-3h0c-.1-1-.35-1.43-.57-.87-.89,2.32-1.78,4.62-2.65,6.92-.15.39-.19.36-.32,0-.78-2.55-1.54-5.09-2.28-7.64-.17-.61-.44-.3-.57.7h0a8.36,8.36,0,0,0,.07,3q1.13,3.81,2.27,7.64a6.34,6.34,0,0,1,.14,1.4c-.12,4.85-.25,9.7-.36,14.54C104.61,881.65,104.79,882.66,105,882.7Zm8.21,1.68h0c.25.06.46-.89.49-2.11q.17-7.41.34-14.81a4.43,4.43,0,0,1,.2-1.38c.9-2.33,1.83-4.66,2.76-7a8.35,8.35,0,0,0,.24-3h0c-.11-1.08-.36-1.48-.59-.9-.93,2.35-1.85,4.7-2.75,7-.16.41-.19.37-.32-.05-.79-2.59-1.56-5.18-2.34-7.76-.19-.62-.48-.31-.62.7h0a9.09,9.09,0,0,0,.09,3l2.34,7.78a6.87,6.87,0,0,1,.12,1.43q-.17,7.4-.36,14.78C112.78,883.31,113,884.33,113.21,884.38Zm8.49,1.75h0c.25,0,.47-.92.51-2.15.12-5,.25-10,.36-15.07a4,4,0,0,1,.2-1.4c.94-2.36,1.86-4.73,2.82-7.12a8,8,0,0,0,.24-3h0c-.09-1.1-.38-1.5-.6-.92-.94,2.4-1.9,4.77-2.84,7.14-.16.4-.19.37-.32-.05q-1.23-4-2.45-7.91c-.2-.64-.48-.32-.64.71h0a8.9,8.9,0,0,0,.1,3.07c.81,2.63,1.62,5.27,2.45,7.92a6,6,0,0,1,.14,1.44c-.12,5-.24,10-.35,15C121.29,885,121.45,886.07,121.7,886.13Zm8.76,1.79h0c.25.05.49-.92.52-2.18.12-5.11.24-10.21.35-15.33a4.11,4.11,0,0,1,.22-1.42c1-2.39,2-4.8,2.94-7.23a8.28,8.28,0,0,0,.24-3.1h0c-.11-1.11-.38-1.52-.62-.93L131.17,865c-.17.42-.21.38-.35-.06-.85-2.68-1.71-5.36-2.52-8-.2-.64-.5-.33-.66.72h0a9.4,9.4,0,0,0,.11,3.12c.82,2.68,1.67,5.36,2.51,8a6.56,6.56,0,0,1,.13,1.48c-.11,5.11-.23,10.2-.35,15.3C130,886.81,130.21,887.87,130.46,887.92Zm9.09,1.87h0c.27.05.51-.94.54-2.22.12-5.2.24-10.39.36-15.6a4.17,4.17,0,0,1,.21-1.44c1-2.45,2-4.89,3-7.36A8.65,8.65,0,0,0,144,860h0c-.13-1.14-.43-1.55-.67-.95-1,2.48-2,4.92-3,7.37-.17.42-.21.39-.35-.06-.9-2.73-1.78-5.46-2.66-8.19-.21-.66-.51-.33-.65.74h0a9,9,0,0,0,.09,3.16c.86,2.74,1.74,5.47,2.64,8.21a6,6,0,0,1,.15,1.5c-.13,5.2-.25,10.38-.37,15.57C139.09,888.65,139.3,889.73,139.55,889.79Zm9.4,1.92h0c.28.06.54-1,.57-2.27l.36-15.86a4.18,4.18,0,0,1,.2-1.47c1-2.48,2.07-5,3.14-7.48a7.94,7.94,0,0,0,.26-3.2h0c-.13-1.16-.42-1.59-.68-1-1.07,2.51-2.1,5-3.13,7.49-.18.43-.21.39-.35-.05-.9-2.8-1.83-5.57-2.73-8.35-.21-.67-.53-.34-.68.75h0a8.37,8.37,0,0,0,.11,3.22c.89,2.78,1.8,5.57,2.7,8.36a6.76,6.76,0,0,1,.15,1.53q-.18,7.92-.35,15.83C148.49,890.56,148.66,891.65,149,891.71Zm9.76,2h0c.29.06.55-1,.58-2.31.11-5.37.24-10.76.35-16.15a4.22,4.22,0,0,1,.24-1.49c1.07-2.51,2.13-5.06,3.21-7.61a8.13,8.13,0,0,0,.26-3.28h0c-.11-1.16-.43-1.59-.68-1-1.08,2.55-2.16,5.1-3.22,7.63-.18.43-.24.4-.4-.07-1-2.83-1.93-5.67-2.85-8.51-.22-.68-.53-.34-.71.76h0a9.16,9.16,0,0,0,.11,3.29c.93,2.84,1.87,5.67,2.84,8.52a6.65,6.65,0,0,1,.17,1.55q-.18,8.07-.36,16.12C158.22,892.52,158.43,893.66,158.71,893.71Zm10.08,2.06h0c.29.06.56-1,.59-2.34.14-5.47.25-11,.37-16.45a4.18,4.18,0,0,1,.23-1.53c1.1-2.57,2.24-5.13,3.37-7.74a8.65,8.65,0,0,0,.29-3.32h0c-.14-1.2-.46-1.65-.74-1-1.12,2.6-2.26,5.2-3.36,7.77-.19.44-.25.4-.4-.07-1-2.89-2-5.79-2.94-8.68-.22-.68-.56-.34-.72.77h0a8.69,8.69,0,0,0,.11,3.36c1,2.89,1.94,5.77,2.92,8.67a6.59,6.59,0,0,1,.16,1.6c-.11,5.47-.24,11-.36,16.41C168.28,894.56,168.49,895.71,168.79,895.77Zm10.49,2.15h0c.33.07.59-1,.62-2.38.12-5.59.25-11.17.37-16.78a4,4,0,0,1,.25-1.54c1.13-2.61,2.27-5.24,3.45-7.88a8,8,0,0,0,.29-3.38h0c-.14-1.23-.47-1.68-.75-1-1.17,2.66-2.33,5.28-3.47,7.9-.19.45-.24.41-.4-.06-1-3-2-5.91-3.07-8.85-.25-.72-.61-.36-.77.78h0a8.52,8.52,0,0,0,.13,3.41c1,3,2,5.9,3.06,8.86a6.36,6.36,0,0,1,.15,1.61c-.12,5.6-.24,11.16-.36,16.75C178.75,896.69,179,897.86,179.28,897.92Zm-158.9-2.69h0c.15,0,.3-.72.33-1.7q.15-6,.32-12.13a3.87,3.87,0,0,1,.15-1.11c.6-1.88,1.25-3.77,1.87-5.67a8.43,8.43,0,0,0,.16-2.45h0c-.06-.87-.23-1.21-.38-.75-.63,1.9-1.24,3.8-1.85,5.69-.11.33-.14.3-.22,0-.51-2.16-1-4.3-1.53-6.43-.12-.52-.32-.26-.4.56h0a8.59,8.59,0,0,0,0,2.46c.51,2.15,1,4.29,1.53,6.44a6.69,6.69,0,0,1,.07,1.16c-.11,4-.21,8.09-.32,12.11C20.11,894.35,20.22,895.19,20.38,895.23ZM26,896.8h0c.15,0,.3-.73.33-1.73.11-4.08.21-8.19.32-12.29a4,4,0,0,1,.13-1.13q.94-2.86,1.94-5.74a7.94,7.94,0,0,0,.17-2.48h0c-.05-.88-.23-1.23-.39-.76-.66,1.92-1.29,3.84-1.92,5.76-.11.33-.13.3-.22,0-.52-2.18-1-4.36-1.56-6.52-.13-.53-.33-.26-.43.57h0a8.36,8.36,0,0,0,.05,2.49L26,881.46a6.54,6.54,0,0,1,.09,1.18c-.11,4.09-.22,8.2-.33,12.27C25.74,895.9,25.83,896.75,26,896.8Zm5.79,1.61h0c.16,0,.32-.74.35-1.75.1-4.14.21-8.31.32-12.47a3.75,3.75,0,0,1,.15-1.14c.66-1.93,1.31-3.87,2-5.82a8.11,8.11,0,0,0,.17-2.51h0c-.05-.9-.23-1.25-.39-.77-.65,1.95-1.33,3.89-2,5.82-.11.35-.14.32-.23,0-.55-2.2-1.11-4.41-1.63-6.61-.13-.53-.33-.26-.44.58h0a9.79,9.79,0,0,0,.05,2.53q.8,3.31,1.61,6.63a5.84,5.84,0,0,1,.09,1.19c-.11,4.15-.22,8.32-.32,12.45C31.51,897.5,31.64,898.36,31.81,898.41Zm5.95,1.65h0c.17.05.35-.75.37-1.77.11-4.2.22-8.43.33-12.64a3.8,3.8,0,0,1,.15-1.16c.65-2,1.33-3.92,2-5.9a8.25,8.25,0,0,0,.18-2.54h0c-.06-.91-.25-1.27-.42-.79-.68,2-1.37,3.93-2,5.9-.11.35-.14.31-.23,0-.57-2.23-1.14-4.48-1.68-6.71-.13-.54-.33-.27-.44.59h0a9.25,9.25,0,0,0,0,2.56c.54,2.25,1.11,4.49,1.68,6.73a7.06,7.06,0,0,1,.08,1.21c-.11,4.21-.22,8.44-.33,12.62A3.67,3.67,0,0,0,37.76,900.06Zm6.11,1.7h0c.2.06.36-.76.39-1.8.1-4.25.22-8.54.32-12.82a4.2,4.2,0,0,1,.17-1.17c.67-2,1.37-4,2.07-6a8.11,8.11,0,0,0,.19-2.58h0c-.08-.92-.26-1.3-.44-.8-.69,2-1.39,4-2.07,6-.11.34-.14.31-.24-.05-.58-2.28-1.14-4.55-1.71-6.81-.13-.56-.36-.28-.47.6h0a9.43,9.43,0,0,0,.05,2.59c.57,2.28,1.17,4.56,1.73,6.83a6.56,6.56,0,0,1,.07,1.23c-.11,4.27-.22,8.56-.33,12.8A3.79,3.79,0,0,0,43.87,901.76Zm6.31,1.76h0c.19.05.36-.77.39-1.83q.18-6.5.34-13a4.49,4.49,0,0,1,.14-1.2c.69-2,1.41-4,2.14-6a8.1,8.1,0,0,0,.2-2.62h0c-.06-1-.28-1.32-.45-.83-.73,2-1.43,4.06-2.13,6.08-.12.34-.15.31-.25-.06-.59-2.32-1.19-4.62-1.78-6.91-.14-.58-.36-.29-.47.6h0a8.64,8.64,0,0,0,0,2.63c.59,2.32,1.17,4.64,1.78,6.94a6.37,6.37,0,0,1,.1,1.25q-.16,6.51-.34,13C49.87,902.56,50,903.46,50.18,903.52Zm6.5,1.8h0c.18,0,.37-.78.4-1.85l.33-13.2a4.12,4.12,0,0,1,.16-1.21c.74-2,1.46-4.08,2.2-6.14a8.15,8.15,0,0,0,.18-2.67h0c-.06-1-.26-1.32-.43-.82-.73,2.07-1.49,4.11-2.21,6.15-.13.35-.17.32-.27-.06-.62-2.35-1.24-4.68-1.83-7-.14-.56-.36-.29-.48.62h0a9.27,9.27,0,0,0,.06,2.68c.59,2.35,1.22,4.68,1.83,7a6.62,6.62,0,0,1,.09,1.27q-.16,6.6-.34,13.18C56.35,904.35,56.48,905.27,56.68,905.32Zm6.69,1.86h0c.18.05.37-.79.4-1.88q.16-6.69.34-13.4a4.2,4.2,0,0,1,.16-1.22c.74-2.08,1.51-4.14,2.26-6.23a8.06,8.06,0,0,0,.2-2.71h0c-.07-1-.3-1.35-.48-.84-.76,2.1-1.5,4.17-2.24,6.25-.13.35-.17.32-.27-.07-.64-2.38-1.28-4.76-1.9-7.15-.14-.57-.37-.29-.48.62h0a8.36,8.36,0,0,0,0,2.73c.62,2.39,1.25,4.77,1.89,7.16a6.69,6.69,0,0,1,.1,1.29c-.11,4.46-.22,8.93-.33,13.37C63,906.19,63.17,907.12,63.37,907.18Zm6.88,1.91h0c.22.06.39-.8.42-1.91q.17-6.78.33-13.6a3.67,3.67,0,0,1,.19-1.24c.76-2.1,1.53-4.21,2.32-6.31a7.77,7.77,0,0,0,.21-2.75h0c-.08-1-.3-1.37-.49-.86-.8,2.12-1.56,4.23-2.33,6.33-.13.37-.16.33-.26-.06-.66-2.43-1.3-4.84-2-7.26-.15-.59-.39-.3-.52.63h0a8.87,8.87,0,0,0,.07,2.77c.64,2.42,1.3,4.83,1.94,7.27a6.91,6.91,0,0,1,.09,1.3c-.12,4.53-.23,9.07-.34,13.58C69.9,908.08,70.05,909,70.25,909.09Zm7.11,2h0c.22,0,.41-.82.44-1.94q.17-6.89.34-13.81a3.84,3.84,0,0,1,.18-1.27l2.38-6.39a7.91,7.91,0,0,0,.18-2.8h0c-.06-1-.29-1.39-.48-.87-.78,2.15-1.58,4.29-2.38,6.43-.14.36-.16.33-.27-.07-.69-2.47-1.38-4.93-2-7.38-.16-.6-.4-.31-.52.63h0a9.13,9.13,0,0,0,.06,2.81c.66,2.46,1.35,4.93,2,7.39a6.38,6.38,0,0,1,.1,1.34q-.16,6.9-.34,13.79C77,910.05,77.16,911,77.36,911.07Zm7.32,2h0c.2.06.4-.82.43-2,.11-4.67.25-9.35.36-14a4,4,0,0,1,.18-1.3c.82-2.14,1.64-4.31,2.46-6.49a8.11,8.11,0,0,0,.22-2.82h0c-.09-1-.31-1.42-.51-.89-.83,2.18-1.67,4.35-2.48,6.52-.14.37-.18.33-.29-.07-.69-2.51-1.4-5-2.09-7.51-.16-.6-.41-.31-.54.64h0a9.11,9.11,0,0,0,.07,2.86c.67,2.5,1.4,5,2.09,7.51a7.23,7.23,0,0,1,.1,1.36c-.11,4.67-.23,9.35-.34,14C84.31,912.06,84.46,913,84.68,913.1Zm7.56,2.1h0c.22.06.43-.83.45-2,.12-4.74.25-9.5.36-14.27a4,4,0,0,1,.18-1.3c.83-2.18,1.67-4.39,2.52-6.59a8.58,8.58,0,0,0,.24-2.87h0c-.11-1-.35-1.44-.55-.9-.84,2.21-1.69,4.41-2.52,6.61-.14.38-.18.35-.3-.07-.73-2.55-1.46-5.1-2.17-7.64-.18-.61-.43-.31-.56.66h0a8.73,8.73,0,0,0,.07,2.89c.71,2.55,1.44,5.1,2.17,7.64a6.6,6.6,0,0,1,.12,1.38q-.19,7.14-.36,14.24C91.86,914.14,92,915.14,92.24,915.2Zm7.82,2.17h0c.23.06.44-.85.47-2q.16-7.23.34-14.5a4,4,0,0,1,.18-1.33c.87-2.21,1.73-4.45,2.62-6.68a8.12,8.12,0,0,0,.24-2.92h0c-.11-1-.35-1.47-.57-.92q-1.34,3.36-2.62,6.71c-.14.38-.16.35-.28-.07-.75-2.6-1.51-5.19-2.24-7.76-.18-.63-.45-.32-.59.66h0a8.68,8.68,0,0,0,.08,2.93c.74,2.6,1.51,5.19,2.24,7.78a6.68,6.68,0,0,1,.12,1.4q-.18,7.25-.34,14.47C99.68,916.29,99.82,917.3,100.06,917.37Zm8.06,2.24h0c.24.07.46-.86.49-2.05q.17-7.35.35-14.74a3.71,3.71,0,0,1,.2-1.34c.89-2.25,1.79-4.52,2.68-6.79a8.46,8.46,0,0,0,.22-3h0c-.09-1.06-.35-1.49-.56-.93-.9,2.27-1.81,4.54-2.69,6.8-.15.39-.19.36-.32-.08-.77-2.63-1.57-5.27-2.32-7.89-.18-.64-.45-.33-.61.67h0a9.46,9.46,0,0,0,.1,3c.75,2.64,1.53,5.28,2.31,7.92a6.76,6.76,0,0,1,.13,1.42c-.11,4.92-.25,9.82-.36,14.71C107.71,918.52,107.89,919.55,108.12,919.61Zm8.32,2.31h0c.24.07.46-.87.49-2.08.11-5,.25-10,.36-15a4.41,4.41,0,0,1,.2-1.37c.91-2.28,1.88-4.57,2.81-6.88a8.9,8.9,0,0,0,.24-3h0c-.11-1.08-.38-1.51-.61-1-.93,2.31-1.9,4.6-2.8,6.9-.15.39-.19.36-.32-.08-.8-2.69-1.61-5.36-2.38-8-.19-.64-.48-.33-.61.68h0a8.62,8.62,0,0,0,.06,3c.79,2.68,1.59,5.37,2.39,8.05a6.33,6.33,0,0,1,.14,1.45q-.18,7.5-.35,15C116,920.81,116.21,921.86,116.44,921.92Zm8.62,2.4h0c.27.07.49-.89.52-2.12q.18-7.61.35-15.24a4,4,0,0,1,.2-1.39c.94-2.32,1.9-4.66,2.87-7a7.86,7.86,0,0,0,.24-3.07h0c-.11-1.1-.36-1.55-.6-1-.95,2.35-1.93,4.68-2.87,7-.16.4-.19.36-.32-.07-.84-2.75-1.69-5.47-2.5-8.18-.2-.68-.5-.35-.64.68h0a9,9,0,0,0,.1,3.09c.81,2.74,1.66,5.47,2.48,8.21a6.6,6.6,0,0,1,.12,1.46q-.18,7.63-.35,15.22C124.63,923.18,124.81,924.25,125.06,924.32ZM134,926.8h0c.25.07.49-.9.52-2.16.12-5.15.23-10.33.35-15.5a4.15,4.15,0,0,1,.2-1.42c1-2.37,2-4.73,3-7.11a7.66,7.66,0,0,0,.25-3.11h0c-.09-1.14-.39-1.59-.63-1-1,2.4-2,4.76-3,7.14-.16.41-.19.36-.33-.08-.86-2.8-1.74-5.57-2.59-8.33-.21-.69-.51-.37-.67.69h0a8.82,8.82,0,0,0,.11,3.14c.86,2.79,1.71,5.58,2.57,8.36a5.66,5.66,0,0,1,.15,1.5c-.11,5.16-.23,10.33-.35,15.48C133.55,925.64,133.71,926.72,134,926.8Zm9.22,2.56h0c.27.07.53-.91.55-2.19.12-5.24.24-10.52.36-15.78a3.71,3.71,0,0,1,.22-1.43c1-2.4,2.06-4.8,3.07-7.23a8.43,8.43,0,0,0,.24-3.19h0c-.11-1.14-.4-1.6-.65-1-1,2.44-2,4.85-3.06,7.26-.17.41-.22.37-.36-.09-.91-2.85-1.82-5.67-2.69-8.5-.21-.68-.51-.36-.67.72h0a8.9,8.9,0,0,0,.09,3.19c.87,2.84,1.76,5.67,2.67,8.52a6.3,6.3,0,0,1,.15,1.52c-.12,5.25-.24,10.52-.35,15.75C142.76,928.18,143,929.28,143.22,929.36Zm9.56,2.65h0c.26.08.52-.92.55-2.22.12-5.34.24-10.71.38-16.06a4.16,4.16,0,0,1,.21-1.47c1-2.45,2.1-4.88,3.18-7.34a8.25,8.25,0,0,0,.27-3.24h0c-.12-1.17-.43-1.64-.7-1-1.08,2.47-2.12,4.92-3.16,7.37-.17.42-.23.38-.38-.09-.93-2.9-1.86-5.78-2.77-8.67-.22-.69-.55-.37-.7.72h0a8.68,8.68,0,0,0,.09,3.27c.91,2.89,1.84,5.77,2.78,8.68a6.43,6.43,0,0,1,.16,1.55c-.12,5.34-.24,10.7-.36,16C152.3,930.81,152.51,931.94,152.78,932Zm9.9,2.75h0c.32.09.56-.93.59-2.26.12-5.43.25-10.9.36-16.35a4.18,4.18,0,0,1,.24-1.49c1.07-2.49,2.17-5,3.28-7.46a8.05,8.05,0,0,0,.27-3.31h0c-.12-1.18-.43-1.66-.7-1q-1.68,3.75-3.29,7.49c-.19.42-.22.38-.37-.09q-1.47-4.44-2.89-8.83c-.23-.72-.58-.39-.74.72h0a8.93,8.93,0,0,0,.13,3.33c.95,2.95,1.91,5.88,2.87,8.85a6.38,6.38,0,0,1,.13,1.58c-.12,5.44-.24,10.9-.36,16.32C162.17,933.53,162.4,934.69,162.68,934.76Zm10.3,2.87h0c.3.08.57-1,.6-2.31.12-5.53.24-11.1.37-16.66a4.25,4.25,0,0,1,.21-1.53c1.1-2.52,2.26-5,3.42-7.58a7.79,7.79,0,0,0,.27-3.36h0c-.1-1.21-.46-1.7-.75-1.08-1.16,2.54-2.28,5.09-3.39,7.62-.19.44-.23.39-.39-.09-1-3-2-6-3-9-.24-.74-.6-.39-.77.73h0a9,9,0,0,0,.13,3.39c1,3,2,6,3,9a6.29,6.29,0,0,1,.19,1.63c-.12,5.54-.25,11.1-.37,16.63C172.47,936.37,172.66,937.54,173,937.63ZM20,808h0c.15,0,.31-.78.33-1.76q.16-6,.32-12a4.13,4.13,0,0,1,.12-1.12q.9-3,1.85-6a8.07,8.07,0,0,0,.18-2.44h0c-.06-.85-.23-1.15-.38-.65-.62,2-1.26,4-1.86,6-.1.34-.12.32-.2,0-.49-2-1-4-1.52-6-.12-.5-.29-.2-.4.63h0a9.1,9.1,0,0,0,0,2.43c.5,2,1,4,1.52,6a5.8,5.8,0,0,1,.09,1.12q-.16,6-.32,12C19.74,807.19,19.84,808,20,808Z"/><polygon class="cls-1" points="30.93 258.17 216.46 20.87 215.98 50.84 30.25 275.68 30.93 258.17"/><path class="cls-1" d="M192,89.81c3.41,0,5.59,6.06,4.85,13.53s-4.1,13.52-7.52,13.52-5.59-6.06-4.85-13.52S188.54,89.81,192,89.81Z"/><path class="cls-1" d="M188.29,116.68h0ZM211,105c-.74,7.46-4.1,13.52-7.52,13.52a3.08,3.08,0,0,1-.68-.08l-13.19-1.63.15,0h0l.16,0,.15,0h0l.15,0h0l.14,0h0l.14-.06h0l.13,0,0,0,.13-.06,0,0,.12-.06,0,0,.12-.07,0,0,.11-.07,0,0,.11-.08.05,0,.1-.08.05,0,0,0,.13-.1h0l.09-.08.06-.06.15-.13.08-.08.07-.07.07-.07.08-.08.07-.07.07-.09.07-.07.08-.1.06-.06.08-.11h0l.13-.17.05-.06.1-.13,0,0,.09-.14,0,0,.1-.15,0,0,.11-.16,0,0,.11-.17,0,0,.11-.18,0,0,.12-.19v0l.24-.43h0l.13-.23.11-.24h0l.11-.24h0l.11-.23v0l.1-.22v0l.1-.22,0,0L195,111l0,0,.08-.21,0-.07.07-.2,0-.07.08-.2,0-.08.07-.2,0-.09.06-.18,0-.11.05-.18,0-.11h0l.09-.29,0-.16,0-.14,0-.16,0-.14,0-.15,0-.16.15-.63,0-.13.05-.19,0-.12,0-.2.13-.66,0-.08,0-.25.05-.29v0l0-.07,0-.27,0-.34v0l0-.29v0l0-.31v0l0-.33h0l0-.33c.61-6.25-.8-11.5-3.28-13.06a.36.36,0,0,1,0-.11l12,1.41C211.44,92.28,211.55,99.51,211,105Z"/><path class="cls-1" d="M178.82,685.14c3.54-.46,6.53,5.25,6.69,12.76s-2.59,14-6.13,14.43-6.54-5.24-6.69-12.75S175.28,685.61,178.82,685.14Z"/><path class="cls-1" d="M178.32,712.29h0Zm22.11-14.65c.16,7.51-2.59,14-6.13,14.44a3.38,3.38,0,0,1-.71,0l-13.87.18.15,0h0l.16-.05.16-.06h0l.15-.07h0l.14-.07h0l.13-.07h0l.13-.08h0l.12-.08,0,0,.12-.09,0,0,.11-.09,0,0,.1-.08,0,0,.1-.09,0,0,.1-.09.05,0v0l.13-.12h0l.08-.09.06-.06.14-.16.07-.09.06-.08.07-.08.07-.09.06-.08.07-.1.06-.07.07-.11.05-.07.08-.12h0l.12-.19,0-.06.09-.14,0-.06.09-.15,0,0,.09-.17,0,0,.09-.18,0,0,.09-.18,0,0,.09-.19,0,0,.09-.21v0l.2-.47h0l.1-.24.09-.25h0l.09-.25h0l.09-.24v0l.08-.24v0l.07-.23,0-.05.06-.22,0-.06.06-.22,0-.06.06-.22v-.07l.06-.21,0-.08,0-.21,0-.09,0-.19,0-.11,0-.19,0-.12h0l.06-.29,0-.17,0-.15,0-.16,0-.15,0-.15,0-.17.09-.64,0-.13,0-.2v-.12l0-.21.05-.67v-.08l0-.26v-2.06h0v-.34c-.13-6.28-2.25-11.3-5-12.51a.29.29,0,0,1,0-.1l12.59-.24C199.31,684.94,200.31,692.09,200.43,697.64Z"/><polygon class="cls-1" points="15.33 330.24 28.55 319.66 33.33 326.63 32.47 375.76 25.82 390.23 13.01 376.09 15.33 330.24"/><polygon class="cls-1" points="15.33 330.24 20.05 330.78 18.63 365.51 13.01 376.09 15.33 330.24"/><polygon class="cls-1" points="15.33 330.24 28.55 319.66 33.33 326.63 20.05 330.78 15.33 330.24"/><polygon class="cls-1" points="13.01 376.09 25.82 390.23 32.47 375.76 18.63 365.51 13.01 376.09"/><polygon class="cls-1" points="2.94 650.5 16.16 639.92 20.94 646.9 20.07 696.03 13.42 710.5 0.61 696.36 2.94 650.5"/><polygon class="cls-1" points="2.94 650.5 7.66 651.05 6.23 685.78 0.61 696.36 2.94 650.5"/><polygon class="cls-1" points="2.94 650.5 16.16 639.93 20.94 646.9 7.66 651.05 2.94 650.5"/><polygon class="cls-1" points="0.61 696.36 13.42 710.5 20.07 696.03 6.23 685.78 0.61 696.36"/><path class="cls-1" d="M259.14,979.84v6.28c0,11.53-71,11.53-71,0V974.06L201,978.34l33.61,2.86Zm291.93-16.08v4.85c0,10.26-63.19,10.27-63.19,0V967.2h.25l5.56,1.26ZM70.53,935c-17.62,1.34-40.25-1-40.25-7v-6.33Z"/><polygon class="cls-4" points="545.91 935.77 550.87 914.01 559.27 913.48 554.31 935.23 545.91 935.77 545.91 935.77"/><path class="cls-4" d="M567.61,911.18l-25.2,1.71,1.59-7c.16-.73.37-1.16,1.11-1.2l29.8-1.83Z"/><path class="cls-4" d="M535.68,936.44l-22.2,1.44,4.87-22.14,7.84-.5-3.13,14.25,11.8-.76-6.75-15.19-9.41.6,1.74-7.88L531,905.6a4.17,4.17,0,0,1,4.52,2.61q1.5,3,3,6a85.87,85.87,0,0,1,3.76,8.45c1.2,3.17,1.65,5.42,1.35,6.77a8.68,8.68,0,0,1-3,4.72A8.41,8.41,0,0,1,535.68,936.44Z"/><path class="cls-4" d="M569.33,911.33l8.15-8.67,15.47-1a2.52,2.52,0,0,1,2.33,1.22,2.94,2.94,0,0,1,.2,2.71l-1.3,4-24.85,1.73Zm13.66,22-17.61,1.14-2.49-7.15,16-1.14-5.16-8.09,7-6,10.64-.74-7,6c1.17,1.87,2.37,3.73,3.57,5.61.92,1.82,1.23,3.17,1,4l-.77,2.36a6.35,6.35,0,0,1-2.08,2.89A4.77,4.77,0,0,1,583,933.36Z"/><polygon class="cls-4" points="563.57 936.15 571.32 935.64 570.44 941.14 562.69 941.65 563.57 936.15"/><polygon class="cls-4" points="572.38 935.62 577.86 935.26 576.93 940.76 571.46 941.12 572.38 935.62"/><polygon class="cls-4" points="578.77 935.22 582.9 934.95 581.95 940.45 577.82 940.72 578.77 935.22"/><path class="cls-4" d="M583.81,934.87l3-.2s0,0,0,0l-1,5.43a0,0,0,0,1,0,0l-3,.2s0,0,0,0Z"/><polygon class="cls-4" points="587.97 934.62 590.05 934.49 588.9 940 586.82 940.13 587.97 934.62"/><polygon class="cls-4" points="591.09 934.42 592.47 934.33 591.36 939.84 589.99 939.93 591.09 934.42"/><path class="cls-4" d="M520.77,938.94s0,0,0,0l-.29,1.46s0,0,0,0l-5.7.37-.09.49,5.69-.37a0,0,0,0,1,0,0l-.68,3.47s0,0,0,0l-7.62.49s0,0,0,0l.29-1.46s0,0,0,0l5.7-.38.09-.49-5.69.37s0,0,0,0l.68-3.47,0,0,7.62-.5Zm.63,0-1.07,5.47s0,0,0,0l1.9-.12a0,0,0,0,0,0,0l.39-2,5.69-.37a0,0,0,0,0,0,0l.68-3.46s0,0,0,0l-7.62.5s0,0,0,0Zm1.59,1.86.09-.51,3.76-.24-.1.5-3.75.25Zm14.35-2.92s0,0,0,0l-1.07,5.46a0,0,0,0,1,0,0l-7.62.5s0,0,0,0l1.07-5.47a0,0,0,0,1,0,0l7.62-.49Zm-6.48,4.38,3.77-.25.49-2.5-3.77.24-.49,2.51Zm7.11-4.4-1.07,5.46s0,0,0,0l1.9-.13s0,0,0,0l.38-1.94s.56.26,1.55.77c1.23.63,1.86.94,1.89.94l1.87-.12s0,0,0,0l.13-.69s-.8-.41-2.27-1.1v0l2.49-.16s0,0,0,0l.68-3.46s0,0,0,0l-7.62.49,0,0Zm1.56,1.86.1-.51,3.77-.24-.1.5-3.77.25Zm9.23-1.07-2.77.18s0,0,0,0l.3-1.49a0,0,0,0,1,0,0l7.62-.49s0,0,0,0l-.29,1.49s0,0,0,0l-2.79.18-.77,3.94s0,0,0,0l-2,.13s0,0,0,0l.78-4Zm13.43-2.39-7.62.49a0,0,0,0,0,0,0l-.68,3.46s0,0,0,0l5.7-.37-.1.5-5.7.37,0,0-.28,1.46s0,0,0,0l7.62-.5s0,0,0,0l.68-3.47s0,0,0,0l-5.7.37.1-.49,5.69-.37s0,0,0,0l.28-1.45S562.21,936.25,562.19,936.25Z"/></g></g></svg>