<svg xmlns="http://www.w3.org/2000/svg" xmlns:xlink="http://www.w3.org/1999/xlink" viewBox="0 0 189 189">
  <defs>
    <style>
      .cls-1, .cls-2, .cls-4, .cls-5 {
        fill: #fff;
      }

      .cls-1, .cls-2 {
        stroke: #707070;
      }

      .cls-1, .cls-5, .cls-6 {
        stroke-width: 0.4px;
      }

      .cls-3 {
        clip-path: url(#clip-path);
      }

      .cls-5, .cls-6, .cls-7 {
        stroke: #1d1d1b;
        stroke-miterlimit: 10;
      }

      .cls-6, .cls-7, .cls-9 {
        fill: none;
      }

      .cls-8 {
        stroke: none;
      }
    </style>
    <clipPath id="clip-path">
      <circle id="Ellipse_91" data-name="Ellipse 91" class="cls-1" cx="93.202" cy="93.202" r="93.202" transform="translate(301 2000)"/>
    </clipPath>
  </defs>
  <g id="Group_358" data-name="Group 358" transform="translate(-209 -1995)">
    <g id="Ellipse_90" data-name="Ellipse 90" class="cls-2" transform="translate(209 1995)">
      <circle class="cls-8" cx="94.5" cy="94.5" r="94.5"/>
      <circle class="cls-9" cx="94.5" cy="94.5" r="94"/>
    </g>
    <g id="Mask_Group_13" data-name="Mask Group 13" class="cls-3" transform="translate(-90.702 -3.702)">
      <g id="medidas-04" transform="translate(329.423 1986.31)">
        <path id="Path_1688" data-name="Path 1688" class="cls-4" d="M31.416,187.306A6.607,6.607,0,0,0,25.91,190.5c-2.059,3.32.168,7.565.168,7.565,1.261,6.258,6.376,5.838,6.376,5.838,7.523-.252,6.22-9.835,6.22-9.835l-.084-6.683C38.645,187.348,35.871,189.533,31.416,187.306Z" transform="translate(-25.025 53.55)"/>
        <path id="Path_1689" data-name="Path 1689" class="cls-4" d="M99.97,169.744l-.294.715s-1.009,0-2.017,4.917l12.314,2.984s1.681-6.388-1.429-7.9l-1.639-.294-1.681.336-.042-1.051Z" transform="translate(8.845 45.222)"/>
        <path id="Path_1690" data-name="Path 1690" class="cls-4" d="M57.17,170.336l.294.715s1.009-.042,2.27,4.833l-12.146,3.53s-1.975-6.3,1.051-7.986l1.639-.378,1.681.252-.042-1.051Z" transform="translate(-14.803 45.596)"/>
        <path id="Path_1691" data-name="Path 1691" class="cls-4" d="M76.58,200.289l.042,1.387-2.312.042-.757,1.849.42,11.516.925,2.059,2.354-.042s.42-.462.336-2.564-.042-2.606-.042-2.606l3.825-.126.084,3.993s.168,1.177.42,1.177,2.354-.042,2.354-.042a7.508,7.508,0,0,0,1.051-2.564c.126-1.135-.252-10.759-.252-10.759l-.925-2.1-2.522.042-.084-.841Z" transform="translate(-2.397 59.605)"/>
        <g id="Base" transform="translate(0 188.067)">
          <g id="base-2" data-name="base">
            <path id="Path_1692" data-name="Path 1692" class="cls-5" d="M82.25,172.149l-.126-3.026s4.455-2.69,17.484-3.236,14.332,2.606,14.332,2.606.588.5.21,3.278a7.319,7.319,0,0,1-1.555.294c-.168-.084-.084-1.051-.084-1.051s-11.39.084-18.115,3.572" transform="translate(1.6 -144.536)"/>
            <path id="Path_1693" data-name="Path 1693" class="cls-5" d="M81.762,171.931l-.084-2.942s-4.959-2.69-18.03-2.606-14.164,3.278-14.164,3.278-.588.546-.084,3.278a7.508,7.508,0,0,0,1.555.252c.168-.084.042-1.051.042-1.051s11.39-.42,18.241,2.732" transform="translate(-13.757 -144.276)"/>
            <path id="Path_1694" data-name="Path 1694" class="cls-5" d="M80.076,179.757c4.959,0,7.229-2.522,7.229-2.522v-.294L86.338,157.4a6.329,6.329,0,0,0-.252-1.513,2.589,2.589,0,0,0-.462-.967s-.126,2.606-6.094,2.774l-1.3.042c-5.968.126-6.178-2.48-6.178-2.48a2.577,2.577,0,0,0-.42.967,6.188,6.188,0,0,0-.168,1.513l-.084,19.543.042.294s2.354,2.438,7.313,2.186Z" transform="translate(-3.413 -149.622)"/>
            <path id="Path_1695" data-name="Path 1695" class="cls-5" d="M78.118,159.084c-5.254.21-6.01-2.354-6.01-2.354l-.042-2.522s-.084-1.471.378-1.933c0,0,0,2.354,5.926,2.186h.42c5.926-.126,5.8-2.438,5.8-2.438.5.462.462,1.933.462,1.933l.042,2.522s-.672,2.564-5.926,2.606Z" transform="translate(-3.094 -150.973)"/>
            <path id="Path_1696" data-name="Path 1696" class="cls-5" d="M72.321,152.778v-1.471H84.51l-.252.925s-.252,2.606-5.758,2.564S72.321,152.778,72.321,152.778Z" transform="translate(-2.972 -151.307)"/>
            <path id="Path_1697" data-name="Path 1697" class="cls-5" d="M75.618,200.4l.042,1.219a.971.971,0,0,1,.45.794l4.119-.084s.042-.714.294-.756l-.042-.967" transform="translate(-1.434 -128.408)"/>
            <path id="Path_1698" data-name="Path 1698" class="cls-5" d="M76.381,201.2l-2.312.042.588,15.425,2.354-.042s.42-.336.336-1.681l-.462-12.987" transform="translate(-2.156 -128.035)"/>
            <path id="Path_1699" data-name="Path 1699" class="cls-5" d="M74.349,201.264l-.336.714c-.715,1.555-.378.757-.336,6.641v.126c.21,5.884,0,5.716.8,7.229l.378.714" transform="translate(-2.394 -128.007)"/>
            <path id="Path_1700" data-name="Path 1700" class="cls-5" d="M79.246,201.162l2.312-.042.126,15.467-2.354.042s-.462-.294-.42-1.639L78.742,202" transform="translate(0.023 -128.074)"/>
            <path id="Path_1701" data-name="Path 1701" class="cls-5" d="M80.691,201.178l.378.714c.8,1.513.42.757.63,6.6v.126c.084,5.884.252,5.716-.462,7.229l-.336.714" transform="translate(0.932 -128.047)"/>
            <line id="Line_338" data-name="Line 338" class="cls-6" y1="0.084" x2="3.867" transform="translate(75.066 83.175)"/>
            <path id="Path_1702" data-name="Path 1702" class="cls-5" d="M91.2,170.5l-.042-.294s-21.015,4.623-36.313,9.625A149.074,149.074,0,0,0,30.3,190.046s-1.933,1.177-1.009,5.338c0,0,3.867,2.4,7.439,0l.8-1.6s15.719-5.38,25.974-7.986a170.229,170.229,0,0,1,18.283-3.4c2.354-.294,4.665-.673,6.977-1.177h0a4.98,4.98,0,0,1,2.816.294l.588.294h0s.757.925,1.513,11.432,1.387,18.493,1.387,18.493.42,3.7,5.3,3.236a13.87,13.87,0,0,0,2.4-.42,3.631,3.631,0,0,0,2.648-3.572L106,182.228h0l.588-.294a4.9,4.9,0,0,1,2.774-.42h.042c2.354.378,4.665.63,7.019.841a158.026,158.026,0,0,1,18.409,2.564c10.381,2.144,26.352,6.809,26.352,6.809l-.042,1.3c5.38,2.48,8.322-.084,8.322-.084.757-4.245-1.219-5.3-1.219-5.3a149.017,149.017,0,0,0-25.007-9.078c-15.509-4.287-36.4-8.406-36.4-8.406" transform="translate(-23.156 -142.511)"/>
            <path id="Path_1703" data-name="Path 1703" class="cls-6" d="M35.947,187.535v6.22l-.21.168a6.7,6.7,0,0,0-1.891-3.152,6.687,6.687,0,0,0-2.354-1.261l-.042-1.261" transform="translate(-22.034 -134.41)"/>
            <path id="Path_1704" data-name="Path 1704" class="cls-5" d="M25.871,197.841a11.882,11.882,0,0,1-.841-3.7,6.463,6.463,0,0,1,6.094-6.809" transform="translate(-25.029 -134.504)"/>
            <path id="Path_1705" data-name="Path 1705" class="cls-5" d="M25.223,194.137c-.084-3.7,3.194-6.346,6.641-6.43" transform="translate(-24.939 -134.33)"/>
            <ellipse id="Ellipse_92" data-name="Ellipse 92" class="cls-5" cx="6.262" cy="6.683" rx="6.262" ry="6.683" transform="translate(0.876 56.123) rotate(-1.31)"/>
            <ellipse id="Ellipse_93" data-name="Ellipse 93" class="cls-5" cx="1.093" cy="1.135" rx="1.093" ry="1.135" transform="translate(6.255 61.554) rotate(-1.31)"/>
            <path id="Path_1706" data-name="Path 1706" class="cls-5" d="M30.074,190.2s.126,3.657.252,3.825.294.336.672,0a28.2,28.2,0,0,0,1.849-2.942" transform="translate(-22.675 -133.167)"/>
            <path id="Path_1707" data-name="Path 1707" class="cls-5" d="M33.25,191.4a33.2,33.2,0,0,0-2.143,3.11c0,.252.042.462.5.462a28.41,28.41,0,0,0,3.194-.925" transform="translate(-22.194 -132.606)"/>
            <path id="Path_1708" data-name="Path 1708" class="cls-5" d="M34.892,193.984a28.043,28.043,0,0,0-3.614.252c-.168.168-.294.294,0,.714a23.29,23.29,0,0,0,2.732,2.017" transform="translate(-22.197 -131.402)"/>
            <path id="Path_1709" data-name="Path 1709" class="cls-5" d="M33.811,197.274a36.681,36.681,0,0,0-2.984-2.143c-.21,0-.42.042-.378.588a33.254,33.254,0,0,0,1.051,3.362" transform="translate(-22.503 -130.868)"/>
            <path id="Path_1710" data-name="Path 1710" class="cls-5" d="M30.377,190.229a37.091,37.091,0,0,1,.126,3.825c-.126.168-.252.336-.672.042a26.691,26.691,0,0,1-2.143-2.732" transform="translate(-23.789 -133.154)"/>
            <path id="Path_1711" data-name="Path 1711" class="cls-5" d="M27.594,191.662a35.675,35.675,0,0,1,2.438,2.858c.042.252,0,.462-.462.5a29.768,29.768,0,0,1-3.278-.588" transform="translate(-24.44 -132.485)"/>
            <path id="Path_1712" data-name="Path 1712" class="cls-5" d="M26.348,194.728a24.855,24.855,0,0,1,3.614-.126c.21.168.336.252.042.714a25.8,25.8,0,0,1-2.522,2.27" transform="translate(-24.413 -131.138)"/>
            <path id="Path_1713" data-name="Path 1713" class="cls-5" d="M27.868,198.139a34.562,34.562,0,0,1,2.4-2.858c.21-.042.42-.084.5.462s-.21,3.53-.21,3.53" transform="translate(-23.705 -130.808)"/>
            <line id="Line_339" data-name="Line 339" class="cls-6" y1="0.084" x2="2.059" transform="translate(37.24 28.832)"/>
            <path id="Path_1714" data-name="Path 1714" class="cls-5" d="M47.78,178.714c-.714-.8-.63-2.858-.63-2.858-.042-2.648,1.009-4.833,2.354-4.833s2.732,1.975,2.774,4.623l.042,1.471" transform="translate(-14.713 -142.111)"/>
            <path id="Path_1715" data-name="Path 1715" class="cls-5" d="M47.861,178.486a4.787,4.787,0,0,1-.588-2.648c-.042-2.438.925-4.455,2.185-4.5s2.186,1.849,2.228,4.329l-.042,1.513" transform="translate(-14.656 -141.963)"/>
            <path id="Path_1716" data-name="Path 1716" class="cls-5" d="M48.246,171.742a33.287,33.287,0,0,0,.378,3.909c.21.588.42-2.059.8-2.774l.294-.588" transform="translate(-14.2 -141.776)"/>
            <path id="Path_1717" data-name="Path 1717" class="cls-5" d="M50.011,172.774a17.869,17.869,0,0,0-1.135,3.11c0,.588,1.093-.63,1.933-1.009" transform="translate(-13.906 -141.294)"/>
            <path id="Path_1718" data-name="Path 1718" class="cls-5" d="M48.015,172.373s.925,3.152.672,2.942A5.119,5.119,0,0,0,47.3,174.18" transform="translate(-14.642 -141.482)"/>
            <path id="Path_1719" data-name="Path 1719" class="cls-5" d="M47.357,173.921l1.387,1.555s.294.5-.126.546a7.566,7.566,0,0,1-1.177-.042" transform="translate(-14.615 -140.76)"/>
            <ellipse id="Ellipse_94" data-name="Ellipse 94" class="cls-5" cx="0.378" cy="0.799" rx="0.378" ry="0.799" transform="translate(34.169 34.008) rotate(-1.31)"/>
            <path id="Path_1720" data-name="Path 1720" class="cls-5" d="M57.35,175.341s-.967-3.614-1.681-4.035l-.084,4.5-3.068.925-.084-.841A8.115,8.115,0,0,0,51.3,173.03l-.042-1.6a2.656,2.656,0,0,0,2.522.967c1.6-.294,1.723-1.051,1.723-1.051l-.462-.672v.5l-2.942.084v-.841" transform="translate(-12.797 -142.391)"/>
            <line id="Line_340" data-name="Line 340" class="cls-6" x1="2.186" y1="0.042" transform="translate(111.883 27.613)"/>
            <path id="Path_1721" data-name="Path 1721" class="cls-5" d="M107.585,178.037c.714-.883.546-3.026.546-3.026-.084-2.774-1.261-5-2.69-4.959s-2.732,2.186-2.69,4.959l.042,1.513" transform="translate(11.22 -142.564)"/>
            <path id="Path_1722" data-name="Path 1722" class="cls-5" d="M107.281,177.779a4.962,4.962,0,0,0,.5-2.774c-.042-2.564-1.177-4.623-2.48-4.581s-2.186,2.059-2.143,4.623l.126,1.6" transform="translate(11.411 -142.391)"/>
            <path id="Path_1723" data-name="Path 1723" class="cls-5" d="M105.62,170.8a30.911,30.911,0,0,1-.21,4.077c-.21.63-.546-2.143-.967-2.9a5.184,5.184,0,0,1-.336-.63" transform="translate(11.853 -142.217)"/>
            <path id="Path_1724" data-name="Path 1724" class="cls-5" d="M103.962,171.943a20.845,20.845,0,0,1,1.345,3.194c.042.588-1.177-.63-2.059-.967" transform="translate(11.452 -141.682)"/>
            <path id="Path_1725" data-name="Path 1725" class="cls-5" d="M105.824,171.427a19.914,19.914,0,0,0-.588,3.11,5.24,5.24,0,0,1,1.387-1.261" transform="translate(12.363 -141.923)"/>
            <path id="Path_1726" data-name="Path 1726" class="cls-5" d="M106.659,173.032l-1.345,1.723s-.294.546.126.546a10.836,10.836,0,0,0,1.219-.126" transform="translate(12.369 -141.174)"/>
            <ellipse id="Ellipse_95" data-name="Ellipse 95" class="cls-5" cx="0.42" cy="0.841" rx="0.42" ry="0.841" transform="translate(116.674 32.841) rotate(-1.31)"/>
            <path id="Path_1727" data-name="Path 1727" class="cls-5" d="M97.736,175.041s.841-3.867,1.555-4.287l.294,4.665,3.278.841.084-.925A8.582,8.582,0,0,1,104,172.267l-.042-1.681a2.774,2.774,0,0,1-2.606,1.135c-1.681-.252-1.891-1.009-1.891-1.009l.42-.714v.5l3.068-.084v-.883" transform="translate(8.881 -142.805)"/>
            <ellipse id="Ellipse_96" data-name="Ellipse 96" class="cls-6" cx="5.296" cy="5.674" rx="5.296" ry="5.674" transform="translate(1.865 57.11) rotate(-1.31)"/>
            <path id="Path_1728" data-name="Path 1728" class="cls-6" d="M25.375,195.267a6.2,6.2,0,0,1,6.22-6.43,5.909,5.909,0,0,1,2.732.336" transform="translate(-24.869 -133.821)"/>
          </g>
        </g>
        <path id="Path_1729" data-name="Path 1729" class="cls-5" d="M126.475,185.672a6.463,6.463,0,0,1,6.094,6.809,11.881,11.881,0,0,1-.841,3.7l-12.23-3.446,4.455-5.842Z" transform="translate(19.031 52.788)"/>
        <path id="Path_1730" data-name="Path 1730" class="cls-6" d="M130.352,192.475c.084-3.7-3.194-6.346-6.641-6.43" transform="translate(20.996 52.962)"/>
        <path id="Path_1731" data-name="Path 1731" class="cls-5" d="M125.278,201.142a6.677,6.677,0,1,0-6.094-6.809,6.467,6.467,0,0,0,6.094,6.809" transform="translate(18.884 53.788)"/>
        <ellipse id="Ellipse_97" data-name="Ellipse 97" class="cls-5" cx="1.135" cy="1.093" rx="1.135" ry="1.093" transform="translate(143.057 249.398) rotate(-88.69)"/>
        <path id="Path_1732" data-name="Path 1732" class="cls-6" d="M124.25,188.538s-.126,3.657-.252,3.825-.294.336-.672,0a28.192,28.192,0,0,1-1.849-2.942" transform="translate(19.954 54.125)"/>
        <path id="Path_1733" data-name="Path 1733" class="cls-6" d="M123.963,188.538a37.087,37.087,0,0,0-.126,3.825c.126.168.252.336.672.042a26.691,26.691,0,0,0,2.143-2.732" transform="translate(21.039 54.125)"/>
        <path id="Path_1734" data-name="Path 1734" class="cls-6" d="M127.042,190a35.683,35.683,0,0,0-2.438,2.858c-.042.252,0,.462.462.5a29.769,29.769,0,0,0,3.278-.588" transform="translate(21.407 54.806)"/>
        <path id="Path_1735" data-name="Path 1735" class="cls-6" d="M128.34,193.066a24.858,24.858,0,0,0-3.614-.126c-.21.168-.336.252-.042.715a25.8,25.8,0,0,0,2.522,2.27" transform="translate(21.369 56.153)"/>
        <path id="Path_1736" data-name="Path 1736" class="cls-6" d="M125.012,199.829a5.436,5.436,0,0,0,5.422-5.548,5.511,5.511,0,0,0-5.17-5.8,5.689,5.689,0,0,0-.252,11.348" transform="translate(19.191 54.097)"/>
        <path id="Path_1737" data-name="Path 1737" class="cls-6" d="M130.824,193.612a6.041,6.041,0,0,0-5.968-6.472,5.883,5.883,0,0,0-2.606.378" transform="translate(20.315 53.463)"/>
        <path id="Path_1738" data-name="Path 1738" class="cls-5" d="M124.091,186.744l-.042,1.051a10.969,10.969,0,0,0-2.354,1.471,7.2,7.2,0,0,0-1.975,2.648l-.336.883.336-6.809a5.136,5.136,0,0,0,1.891.546A18.428,18.428,0,0,0,124.091,186.744Z" transform="translate(18.978 52.935)"/>
        <path id="Path_1739" data-name="Path 1739" class="cls-6" d="M121.483,189.684a32.684,32.684,0,0,1,2.1,2.816c.084.21-.084.883-.588.883a26.045,26.045,0,0,1-3.068-.8" transform="translate(19.232 54.659)"/>
        <path id="Path_1740" data-name="Path 1740" class="cls-6" d="M120.817,195.59a22.545,22.545,0,0,1,2.564-1.807c.252,0,.42.042.378.588a22.336,22.336,0,0,1-.8,2.69" transform="translate(19.646 56.571)"/>
        <path id="Path_1741" data-name="Path 1741" class="cls-6" d="M123.31,197.121a22.156,22.156,0,0,1,.5-3.068c.168-.126.336-.252.672.126a24.5,24.5,0,0,1,1.387,2.438" transform="translate(20.809 56.638)"/>
        <path id="Path_1742" data-name="Path 1742" class="cls-6" d="M119.871,192.605a20.7,20.7,0,0,1,3.11.21c.168.168.294.294-.042.715a16.706,16.706,0,0,1-2.324,1.6" transform="translate(19.205 56.021)"/>
        <path id="Path_1743" data-name="Path 1743" class="cls-4" d="M73.877,68.389c-1.938-.252-9.742-3.005-11.73-3.85a15.519,15.519,0,0,0-5.443-.752,18.518,18.518,0,0,1,11.487,1.4.712.712,0,0,1,.2.084c.92.42,3.736,2.1,5.434,2.971l.319.164a1.335,1.335,0,0,1-.269-.021Z" transform="translate(-10.256 -4.224)"/>
        <path id="Path_1744" data-name="Path 1744" class="cls-4" d="M51.523,142.884l-1.681-4.165v-.542s1.156-.509,2.677-1.164h0c1.345-.513,2.942-1.156,4.388-1.862h.034c1.189-.488,2.173-.878,2.581-1,1.408-.42,1.858,0,1.858,0s2.1,2.8,2.522,3.257a1.286,1.286,0,0,1,.319.79,1.156,1.156,0,0,1-.076.542,2.426,2.426,0,0,1-1.332.525c-.353,0-1.681,1.387-1.921,1.433s-1.58-.42-2-.42a2.169,2.169,0,0,0-.778.328c-.168.1-.349.21-.521.328a5.089,5.089,0,0,0-.941.761c-.282.366-1.681.2-2.207.021s-1.542.807-1.614,1.189-1.013.42-1.013.42Z" transform="translate(-13.456 28.674)"/>
        <path id="Path_1745" data-name="Path 1745" class="cls-4" d="M72.389,77.424l.059-2.471.13.761.118.71.139,3.169,4.51,38.368c-1.954.122-3.783.294-5.384.479L72.313,112l.382-6.977.105-8.229V95.332l.029-9.81-.5-5.884Z" transform="translate(-3.14 1.149)"/>
        <path id="Path_1746" data-name="Path 1746" class="cls-4" d="M51.045,149.536l-.177-.177.177-.664,4.728,1.261-1.156,2.732Z" transform="translate(-12.977 35.542)"/>
        <path id="Path_1747" data-name="Path 1747" class="cls-4" d="M132.279,102.908l-4.308,7.885-4.064,21.519a25.834,25.834,0,0,0-7.868-1.16l3-20.338-1.475-8.128h9.141Z" transform="translate(17.418 14.083)"/>
        <path id="Path_1748" data-name="Path 1748" class="cls-4" d="M72.181,67.478A11.768,11.768,0,0,1,72.4,70a1.37,1.37,0,0,1-1.782,1.261.841.841,0,0,1-.193-.076l-.319-.164c-1.681-.87-4.514-2.522-5.434-2.971a13.763,13.763,0,0,0,3.417-3.741c.025-.046.05-.092.071-.139a3.782,3.782,0,0,0,.458-1.635c.055-2.627.256-5.043.256-5.043.677,1.774,1.795,4.459,2.593,7.107a28.189,28.189,0,0,1,.71,2.879Z" transform="translate(-6.538 -6.994)"/>
        <path id="Path_1749" data-name="Path 1749" class="cls-4" d="M72.5,76.179l-.118-.71h.046L82.851,103s3.257,7.691,5.968,14.571c-2.4-.034-5.086-.046-7.775,0-1.332.025-2.639.08-3.9.156l-4.51-38.368Z" transform="translate(-2.944 1.39)"/>
        <path id="Path_1750" data-name="Path 1750" class="cls-4" d="M79.917,140.177l-1.6,16.854-1.66.63,1.4-16.971-.017-.071Z" transform="translate(-0.951 31.57)"/>
        <path id="Path_1751" data-name="Path 1751" class="cls-4" d="M50.235,139.3s1.366-.445,3.186-1.131h0l.063-.025c-1.521.656-2.677,1.164-2.677,1.164v.542l1.681,4.165.315.42s.946-.034,1.013-.42,1.089-1.366,1.614-1.189,1.925.345,2.207-.021a5.088,5.088,0,0,1,.941-.761c.172-.118.353-.227.521-.328a2.169,2.169,0,0,1,.778-.328c.42,0,1.753.462,2,.42s1.589-1.425,1.929-1.425a2.466,2.466,0,0,0,1.332-.525,1.156,1.156,0,0,0,.076-.542h.029a19.779,19.779,0,0,0,7.427-3.417c2.068-1.542,6.46-3.018,9-3.783,1.156-.349,1.929-.555,1.929-.555l-.13,1.563-.635,7.611-.185,3.522,1.051.155-1.6,15.971-.983.534v.479l-.235.252-21.46-1.769,3.081-.5,1.131-2.6-.147-.273-4.266-7.935-.42-.231-3.854-2.068-.979.315-2.1-2.278.382-.6L50.673,140.1l-1.715.769-1.2-1.748c.6.109.958.16.958.16Z" transform="translate(-14.429 27.55)"/>
        <path id="Path_1752" data-name="Path 1752" class="cls-4" d="M69.677,28.518s-7.88-4.623-14.92-4.1a11.012,11.012,0,0,0-4.842,1.345l-1.53,1.181h0c-1.992,1.98-3.051,5.123-4.451,9.452L42.9,40.6a159.818,159.818,0,0,0-2.009,19.628s0,1.24.118,2.9h0v.609a.143.143,0,0,1,0,.042c.042.66.1,1.366.16,2.072.265,2.812,1.076,7.015,1.076,7.015s.164.765.4,1.807v.1c.42,1.988,1.063,4.909,1.219,5.607a40.285,40.285,0,0,1,.656,10.688c-.265,6.38-.63,11.8-.63,11.8s.042,1.954.294,4.657a47.051,47.051,0,0,0,1.963,10.369c2.076,6.069,7.069,19.043,7.069,19.043l6.224,12.529s1.786,3.022,3.993,7.75,3.808,9.2,3.808,9.2a33.263,33.263,0,0,1,1.858,7.136c.076.559.13,1.08.168,1.559a13.024,13.024,0,0,1-.244,4.43,10.386,10.386,0,0,1-1.479,2.892,11.289,11.289,0,0,1-2.723,2.732,21.045,21.045,0,0,1-2.942,1.652h-.034c-1.379.572-3.026,1.261-4.388,1.862h0l-.063.025h0c-1.82.685-3.186,1.131-3.186,1.131H52.655l-.736-1.076s7.33-1.236,11.058-4.464,3.993-3.993,3.993-3.993a11.633,11.633,0,0,0,.63-5.964A44.028,44.028,0,0,0,64.343,163.8c-1.446-3.413-4.674-10.528-4.674-10.528l-4.308-8.019L49.843,133.3s-4.358-12.079-4.648-13.264-2.757-10.272-2.812-14.525.58-13.029.58-13.029.105-8.246-.29-9.717-1.236-5.283-1.416-5.993-1.446-8.746-1.446-8.746-.752-6.754-.42-8.276a144.229,144.229,0,0,1,1.925-19.438l.916-3.934c.16-.555.328-1.084.5-1.58,1.307-3.665,2.391-6.409,4.031-8.313S50.7,23.462,54.361,23.2c7.246-.525,14.063,4.085,14.063,4.085s1.1.193,2.719,2.614C70.227,28.678,69.677,28.518,69.677,28.518Z" transform="translate(-18.37 -23.009)"/>
        <path id="Path_1753" data-name="Path 1753" class="cls-4" d="M73.936,104.826c1.6-.185,3.43-.357,5.384-.479,1.261-.076,2.564-.13,3.9-.155,2.69-.046,5.38-.034,7.775,0,1.765.025,3.362.063,4.711.1l.752.025c1.021.029,1.841.063,2.391.084s1.03.063,1.542.13l8.822,1.11s-3.6.546-4.648.807a24.437,24.437,0,0,1-3.942.21l-3.089-.172-.794-.042c-1.484-.084-3.236-.185-4.951-.29h0c-2.585-.151-5.094-.307-6.5-.42-1.173-.092-3.4-.109-5.913-.088-1.786,0-3.715.038-5.51.076-2.644.05-4.989.113-6.136.147v-.147S70.2,105.246,73.936,104.826Z" transform="translate(-5.116 14.772)"/>
        <path id="Path_1754" data-name="Path 1754" class="cls-4" d="M74.937,152.1l-8.986,3.236a4.531,4.531,0,0,0-1.9,2.249l-2.568,6.229-1.471-.42A63.826,63.826,0,0,1,63.169,156a4.135,4.135,0,0,1,2.152-1.8l6.359-2.1Z" transform="translate(-8.71 37.13)"/>
        <path id="Path_1755" data-name="Path 1755" class="cls-4" d="M82.542,92.165l0,1.471-.105,8.229-.382,6.977L67.685,101.13,56.127,112.9,51.083,95.666,65.234,81.717l16.95,10.448Z" transform="translate(-12.877 4.304)"/>
        <path id="Path_1756" data-name="Path 1756" class="cls-4" d="M57.458,143.225l4.266,7.922-.378.2-5.464,1.332-.42-.071s-2.555-6.023-3.119-7.111a3.935,3.935,0,0,0-.509-.8c-.185-.2-.261-.147-.261-.147l-.038-.021h.7l4.59-1.156.2-.37Z" transform="translate(-12.666 32.889)"/>
        <path id="Path_1757" data-name="Path 1757" class="cls-4" d="M83.935,111.608l1.03-2.522v-.021h1.168c.382,1.114.672,2.022.82,2.631H84.07Z" transform="translate(2.445 17.059)"/>
        <path id="Path_1758" data-name="Path 1758" class="cls-4" d="M42.269,133.879l-.349-1.206.42-.122a15.348,15.348,0,0,1,3.362,4.1c.084.181.177.378.273.593,1,2.249,2.614,6.241,5.014,8.162a51.973,51.973,0,0,0,6.023,4.005l.038.021s.076-.05.261.147l-.156.168c0,.143-2.383,3.19-2.383,3.19l-2.66-1.332a11.683,11.683,0,0,1-2.976-2.207,35.005,35.005,0,0,1-5.955-9c-1.925-4.165-3.333-4.4-3.333-4.4l-.055-.572,1.231-.769Z" transform="translate(-18.143 28.012)"/>
        <path id="Path_1759" data-name="Path 1759" class="cls-4" d="M47.176,66.675c.2,1.475.126,1.437.063,1.261l-.134.071a29.344,29.344,0,0,0-4.972-5.947v-.1c-.16-.9-1.37-7.75-1.631-10.894a.142.142,0,0,0,0-.042v-.605c.177.113,4.548,3.072,5.922,11.18.042.24.08.467.118.689v.021a21.735,21.735,0,0,0,.685,4.342h0Z" transform="translate(-17.812 -10.294)"/>
        <path id="Path_1760" data-name="Path 1760" class="cls-4" d="M61.7,148.1l-.2.37-4.59,1.156h-.7a51.976,51.976,0,0,1-6.023-4.005c-2.4-1.921-4.01-5.913-5.014-8.162-.1-.214-.189-.42-.273-.593a15.348,15.348,0,0,0-3.362-4.1l1.379-.479h.034l.6-.139a4.774,4.774,0,0,1,3.274.521c1.753,1.084,3.841,6.229,3.841,6.229l1.2,1.719.458,1.963,1.189,1.82,1.261-.349,2.1,2.278.979-.315Z" transform="translate(-17.332 27.783)"/>
        <path id="Path_1761" data-name="Path 1761" class="cls-4" d="M132.588,122.1a25.835,25.835,0,0,1,7.868,1.147l1.29.307a21,21,0,0,1,9.246,7.565,10.926,10.926,0,0,1,1.126,1.761l.546.765-.45-.156c-5.321-1.748-15.479-2.732-28.088-1.538s-23.255,2.1-23.255,2.1a20.387,20.387,0,0,1-2.761-.282,32.1,32.1,0,0,0-4.569.235l-6.2.24-6.788-.055.13-1.194,14.021-1.324s6.023-.5,7.073-.773,8.406-3.123,8.406-3.123,8.267-4.56,15.832-5.275C128.776,122.258,130.852,122.119,132.588,122.1Z" transform="translate(0.869 23.137)"/>
        <path id="Path_1762" data-name="Path 1762" class="cls-4" d="M50.217,64.057c-1.879.156-3.472.252-3.472.252s-1.362.177-1.635-1.681a3.945,3.945,0,0,1-.046-.53l2.585-9.5.193,3.715a13.907,13.907,0,0,0,.7,3.274c.269.693.7,1.858,1.2,3.194C49.894,63.2,50.053,63.624,50.217,64.057Z" transform="translate(-15.684 -9.276)"/>
        <path id="Path_1763" data-name="Path 1763" class="cls-4" d="M61.159,159.492l1.437.841h.029l-.059.231s-2.232,3.6-2.387,4.085-.841.748-1.143.933-.345.563-.42,1.025-.778.866-.988,1.089-.378.471-.353,1.446,1.971,1.837,1.971,1.837a2.064,2.064,0,0,0,1.652-.092h0l.067.109a1.421,1.421,0,0,1-.462.42,1.9,1.9,0,0,1-1.093,0,.471.471,0,0,0-.551.147c-.118.143-.736,0-.841-.16s-.958-.366-.958-.366a5.287,5.287,0,0,1-1.391-1.984c-.382-1.118,1.261-3.089,1.261-3.089Z" transform="translate(-10.765 40.578)"/>
        <path id="Path_1764" data-name="Path 1764" class="cls-4" d="M41.868,146.353l.424,4.4-1.084,5.01H38.3L36.48,151l-.3-4.426-.05-.761-.668-1.925v-.946l2.522-8.65-1.261-14.139v-.008l.958-4.434v0l1.143-5.3,2.265-.067,1.9,9.772,1.147,14.323-2.568,8.851v0l.24,2.492Z" transform="translate(-20.162 17.653)"/>
        <path id="Path_1765" data-name="Path 1765" class="cls-4" d="M42.513,108.977l-.29.244-2.068,1.753-2.265.067-.42-1.82Z" transform="translate(-19.227 17.018)"/>
        <path id="Path_1766" data-name="Path 1766" class="cls-4" d="M67.525,54.728h-.214A8.849,8.849,0,0,0,63.528,48.3c1.4-.769,1.82-1.538,2.1-1.189S66.97,49.059,67.525,54.728Z" transform="translate(-7.073 -11.876)"/>
        <path id="Path_1767" data-name="Path 1767" class="cls-4" d="M62.456,131.189c-4.249-9.873-9.553-23.414-10.284-25.667-.769-2.379-2.694-10.541-4.115-18.631-.546-3.119-.967-5.825-1.261-7.986.13.345,4.371,11.466,6.3,18.072l5.043,17.232,2.871,11.26Z" transform="translate(-14.877 2.992)"/>
        <path id="Path_1768" data-name="Path 1768" class="cls-4" d="M50.29,137.374l1.576,3.606-.382.6-1.261.349-1.189-1.82-.458-1.963Z" transform="translate(-14.047 30.262)"/>
        <path id="Path_1769" data-name="Path 1769" class="cls-4" d="M45.255,59.441c.273,1.853,1.635,1.681,1.635,1.681s1.593-.1,3.472-.252h0c.319.841.651,1.732.979,2.572l-4.035.45a2.181,2.181,0,0,1-2.1-1.421h0c-.088-.647-.231-1.585-.45-2.942Z" transform="translate(-15.829 -6.086)"/>
        <path id="Path_1770" data-name="Path 1770" class="cls-4" d="M90.941,108.942a71.729,71.729,0,0,1,3.224,7.6c.866,3.152,2.047,12.239-5.939,17.022-.563.336-1.105.656-1.622.95a17.864,17.864,0,0,0,1.11-2.215c6.451-3.783,6.136-13.029,5.3-16.177a65.488,65.488,0,0,0-2.9-7.145Z" transform="translate(3.689 17.002)"/>
        <path id="Path_1771" data-name="Path 1771" class="cls-4" d="M93.558,116.113c.841,3.152,1.156,12.39-5.3,16.177a29,29,0,0,0,1.534-4.884c1.4-6.166-2.1-15.694-2.1-15.694h-1.45a27.261,27.261,0,0,0-.82-2.631c1.433-.034,3.425-.076,5.216-.122A63.292,63.292,0,0,1,93.558,116.113Z" transform="translate(3.14 17.01)"/>
        <path id="Path_1772" data-name="Path 1772" class="cls-4" d="M136.421,104.555l-5.577-.223H121.7l-12.739-.479-1.681-1.6s-.643-2.358,1.009-2.677,10-.42,10-.42,15.8.3,16.862.105,16.812,1.08,16.812,1.08a1.793,1.793,0,0,1,1.32,1.6c0,1.236-.492,1.576-.492,1.576l-1.118,1.122a20,20,0,0,1-2.967,0c-2.837-.071-9.915,0-9.915,0Z" transform="translate(13.276 12.437)"/>
        <path id="Path_1773" data-name="Path 1773" class="cls-4" d="M43.693,120.175l1.013,14.29-2.589,9,.034.122L42.5,144.8l-1.244.773-1.231.769-.24-2.492v0l2.568-8.851L41.2,120.667,39.3,110.9l2.068-1.753Z" transform="translate(-18.372 17.095)"/>
        <path id="Path_1774" data-name="Path 1774" class="cls-4" d="M94.219,127.255s.214.441.563,1.173c-1.337-.038-2.942-.076-4.711-.1-2.711-6.88-5.968-14.571-5.968-14.571L73.679,86.227S72.023,75.719,70.918,69.7c-.231-1.261-.42-2.295-.6-3.018-.946-4.2-.525-14.29-.525-14.29A7.208,7.208,0,0,0,72.1,54.818L82.737,62.3s.807,5.228-.639,17.135c0,0-.593.189,3.1,4.413,2.328,2.66,2.627,4.291,2.522,5.132-.08.24-.164.471-.235.706h0c-4.7,14.139.752,24.272.752,24.272Z" transform="translate(-4.195 -9.373)"/>
        <path id="Path_1775" data-name="Path 1775" class="cls-4" d="M87.095,128.021c.168,2.463-1.534,4.959-3.337,6.884h0a28.224,28.224,0,0,1-2.816,2.576l-.231-.025.156-1.475.841-7.876,1.236-11.175,2.522-6.136.134.055C86.557,114.286,87.095,128.021,87.095,128.021Z" transform="translate(0.941 17.865)"/>
        <path id="Path_1776" data-name="Path 1776" class="cls-4" d="M71.491,156.283l1.6-15.971.315.055,7.2.261.3-.071v.071l-1.4,16.971v.135l-.286.042c-2.812.366-8.486-.685-8.486-.685l-.227.223v-.492Z" transform="translate(-3.818 31.632)"/>
        <path id="Path_1777" data-name="Path 1777" class="cls-4" d="M47.111,65.577c.79,2.892,1.736,13.5,1.366,16.917v.58s-.988,6.052-5.325,8.044c-.252-2.7-.294-4.657-.294-4.657s.366-5.413.63-11.8a40.263,40.263,0,0,0-.656-10.688c-.156-.7-.786-3.619-1.219-5.607a29.345,29.345,0,0,1,4.972,5.947,6.115,6.115,0,0,1,.525,1.261Z" transform="translate(-17.294 -6.585)"/>
        <path id="Path_1778" data-name="Path 1778" class="cls-4" d="M42.172,134.9s1.408.235,3.333,4.4a35.007,35.007,0,0,0,5.956,9,11.681,11.681,0,0,0,2.976,2.207l2.66,1.332,1.437,3.291-.177.664-2.1.176L37.2,153.693l-.677-.58-1.681-12.436s-.21-3.64,1.471-5.531h.156l.3,4.426,1.82,4.762H41.5l1.093-5.035Z" transform="translate(-20.454 29.107)"/>
        <path id="Path_1779" data-name="Path 1779" class="cls-4" d="M58.747,116c-.63.071-.559.492-.559.492a10.828,10.828,0,0,0-.794,1.488l-2.871-11.26L66.081,94.955l14.366,7.712-.353,6.451c-3.732.42-6.237.912-6.237.912v.147l-.748.021s-6.75.815-8.381,1.236-.841,2.732-.841,2.732l1.761,1.5a2.411,2.411,0,0,0-1.933-.353S59.377,115.932,58.747,116Z" transform="translate(-11.273 10.478)"/>
        <path id="Path_1780" data-name="Path 1780" class="cls-4" d="M85.149,81.98l-.13-.761-.059,2.471h0L64.5,72.233,48.033,86.385l-.42.63c-.5-3.413-.715-5.409-.715-5.409v-.58c.37-3.413-.576-14.025-1.366-16.917a6.116,6.116,0,0,0-.525-1.261l.134-.071c.063.16.139.2-.063-1.261a2.181,2.181,0,0,0,2.1,1.421l4.035-.45h0c.21.546.42,1.076.618,1.572h0a14.146,14.146,0,0,0,1.551,3.228c.7.492,2.312-1.4,8.759-2.593a15.519,15.519,0,0,1,5.443.752c1.988.841,9.793,3.6,11.73,3.85a1.337,1.337,0,0,0,.269,0,.84.84,0,0,0,.193.076A1.37,1.37,0,0,0,81.56,68.11a11.767,11.767,0,0,0-.223-2.522l1.08-.156c1.105,6.006,2.761,16.526,2.761,16.526Z" transform="translate(-15.711 -5.118)"/>
        <path id="Path_1781" data-name="Path 1781" class="cls-4" d="M71.1,65.161l-1.08.156a28.189,28.189,0,0,0-.71-2.866l1.189-.307C70.646,62.858,70.868,63.9,71.1,65.161Z" transform="translate(-4.377 -4.825)"/>
        <path id="Path_1782" data-name="Path 1782" class="cls-4" d="M84.093,82.476l.5,5.884-.046,9.831H84.19L67.24,87.729,53.088,101.679c-1.933-6.594-6.174-17.715-6.3-18.072h0l.42-.63L63.667,68.825l20.46,11.457h0Z" transform="translate(-14.882 -1.709)"/>
        <path id="Path_1783" data-name="Path 1783" class="cls-4" d="M95,105.683h0c1.715.105,3.467.206,4.951.29l.794.042,3.089.172a23.946,23.946,0,0,0,3.942-.21c1.051-.265,4.669-.807,4.669-.807a1.8,1.8,0,0,1,1.421,1.517c.08,1.236-.4,1.6-.4,1.6L112.4,109.5a42.821,42.821,0,0,1-6.96,1.126c-.626.025-1.479.05-2.438.076l-.841.025c-1.79.046-3.783.088-5.216.122H94.935l-1.479.029L86.635,111l-3.955-.021-5.371-.029-.13.034h-.664l-8.616-.05L63.62,110.9h-.874l-1.774-1.5s-.786-2.312.841-2.732,8.381-1.236,8.381-1.236l.748-.021c1.147-.034,3.493-.1,6.136-.147,1.795-.038,3.724-.067,5.51-.076,2.522-.021,4.741,0,5.913.088C89.909,105.376,92.418,105.532,95,105.683Z" transform="translate(-8.354 15.242)"/>
        <path id="Path_1784" data-name="Path 1784" class="cls-4" d="M74.8,136.9l3.026,5.506-.517.164c-2.286.7-11.562,3.388-16.084,2.286a36.145,36.145,0,0,0,3.009-11.907c.563-6.935-.841-18.005-2.03-19.4s-1.753-3.291-5.182-3.5c0,0-.071-.42.559-.492s4.972-.7,4.972-.7a2.411,2.411,0,0,1,1.933.353,4.653,4.653,0,0,0,.534.366c1.261.757,3.837,1.946,3.837,1.946s3.434,2.45,3.993,12.117l.538,8.406A11.6,11.6,0,0,0,74.8,136.9Z" transform="translate(-10.108 16.928)"/>
        <path id="Path_1785" data-name="Path 1785" class="cls-4" d="M37.042,147.905l.034,2.875a11.562,11.562,0,0,1-1.917-2.631l1.215-.841h0Z" transform="translate(-20.304 34.895)"/>
        <path id="Path_1786" data-name="Path 1786" class="cls-4" d="M41.918,143.591l-.42.122-.034-.122,2.6-9L43.049,120.3,40.7,109.266l.29-.244,1.017-.143,3.119,11.07,2.555,22.132-3.783.883a4.263,4.263,0,0,0-.6.139h-.034Z" transform="translate(-17.72 16.972)"/>
        <path id="Path_1787" data-name="Path 1787" class="cls-4" d="M63.605,160.444l-1.189,5.535a1.316,1.316,0,0,0-.559.912,2.715,2.715,0,0,1-.3,1.227,3.152,3.152,0,0,0-.29,1.105,1.719,1.719,0,0,1-.891,1.4h0a2.064,2.064,0,0,1-1.652.092s-1.946-.866-1.971-1.837.143-1.223.353-1.446.908-.63.988-1.089.13-.841.42-1.025.983-.446,1.143-.933,2.387-4.085,2.387-4.085l.059-.231Z" transform="translate(-10.235 40.849)"/>
        <path id="Path_1788" data-name="Path 1788" class="cls-4" d="M50.009,147.528s2.383-3.047,2.383-3.19l.155-.168a3.934,3.934,0,0,1,.509.8c.563,1.089,3.119,7.111,3.119,7.111l-4.728-1.261Z" transform="translate(-13.378 33.432)"/>
        <path id="Path_1789" data-name="Path 1789" class="cls-4" d="M38.161,110.961l-1.147,5.3c-.055-.656-.1-1.194-.126-1.589h0l.841-5.531Z" transform="translate(-19.498 17.096)"/>
        <path id="Path_1790" data-name="Path 1790" class="cls-4" d="M60.4,131.795c-.21,1.366,1.912,2.345,1.912,2.345,4.522,1.1,13.8-1.589,16.084-2.286l.042.147c-2.522.769-6.935,2.244-9,3.783a19.779,19.779,0,0,1-7.427,3.417h-.029a1.286,1.286,0,0,0-.319-.79c-.42-.454-2.522-3.257-2.522-3.257s-.45-.42-1.858,0c-.42.118-1.391.509-2.581,1A21.044,21.044,0,0,0,57.64,134.5a11.29,11.29,0,0,0,2.723-2.732Z" transform="translate(-11.191 27.646)"/>
        <path id="Path_1791" data-name="Path 1791" class="cls-4" d="M69.4,159.132l1.391-6.876h.235v-.269l.24-.256s5.674,1.051,8.486.685l.286-.042.4,7.687v.706a38.715,38.715,0,0,1-6.393-.21,34.1,34.1,0,0,1-4.358-.706Z" transform="translate(-4.333 36.958)"/>
        <path id="Path_1792" data-name="Path 1792" class="cls-4" d="M61.345,153.146H56.651L36.477,150.59l-.034-2.875,19.052,2.278,2.1-.177.177.177Z" transform="translate(-19.705 35.085)"/>
        <path id="Path_1793" data-name="Path 1793" class="cls-4" d="M152.707,130.678c4.917,1.753,5.653,4.388,5.926,8.742.282,4.485-1.051,9.108-2.942,11.7s-7.145,3.224-7.145,3.224l-11.7,4.064c-9.738,2.732-10.44,4.833-18.493,6.935s-9.528.277-9.528.277h2.522c1.341,0,6.7-1.706,6.7-1.706s2.547-1.366,2.337-2.782c0,0-.05-.685,1.21-6.935s-1.988-8.881-1.988-8.881-1.009-1.416-4.842-3.2-17.631-2.69-17.631-2.69c-9.667-6.519-16.572-7.082-16.572-7.082h-.1l.1-.916v-.177l6.788.055,6.2-.24a32.093,32.093,0,0,1,4.569-.235,20.385,20.385,0,0,0,2.761.282s10.646-.912,23.255-2.1,22.767-.21,28.088,1.538Z" transform="translate(0.827 26.115)"/>
        <path id="Path_1794" data-name="Path 1794" class="cls-4" d="M62.45,113.143c1.189,1.4,2.593,12.47,2.03,19.4a36.145,36.145,0,0,1-2.988,11.907s-2.1-.979-1.912-2.345l-.034-.025a10.385,10.385,0,0,0,1.479-2.892,12.965,12.965,0,0,0,.244-4.43h.13s1.61-6.3-2.732-16.253c-.235-.538-.475-1.089-.714-1.652l-1.458-5.72a10.828,10.828,0,0,1,.794-1.488C60.7,109.852,61.261,111.743,62.45,113.143Z" transform="translate(-10.353 17.332)"/>
        <path id="Path_1795" data-name="Path 1795" class="cls-4" d="M46.407,72.794s.042.794.134,1.837c-.038-.223-.076-.45-.118-.689-1.374-8.107-5.745-11.066-5.922-11.159h0c-.1-1.656-.118-2.9-.118-2.9a155.388,155.388,0,0,1,2.009-19.628l1.038-4.2c1.4-4.375,2.459-7.519,4.451-9.515h0l1.53-1.164a11.012,11.012,0,0,1,4.842-1.345c7.04-.525,14.92,4.1,14.92,4.1s.551.16,1.458,1.408a.2.2,0,0,0,.025.038,13.36,13.36,0,0,1,.744,1.173l8.431,26.079-.1.029c0,.05.034,1.114.05,1.16a32.972,32.972,0,0,0,3.678,7.616s-.42,10.087.525,14.29l-1.189.307c-.8-2.648-1.917-5.333-2.593-7.107l-.2-.542a29.908,29.908,0,0,1-1.542-5.392c-.042-.614-.088-1.185-.143-1.723-.555-5.67-1.631-7.275-1.887-7.595s-.7.42-2.1,1.189a4.779,4.779,0,0,1-1.227.45H73.07a10,10,0,0,1-1.681.227,23.469,23.469,0,0,1-3.627-.109c-.71-.071-1.324-.139-1.959-.244a35.759,35.759,0,0,1-6.973-2.173l-1.593-.588h0l-.727-.286h0c-2.976-1.173-4.518-1.837-5.392-2.207a3.292,3.292,0,0,0-1.3-.42c-.1,0-.16.34-.2.908,0,.206-.025.42-.034.7h0c-.038,1.24,0,3.034.029,4.779h0a.841.841,0,0,0-.055.151Z" transform="translate(-17.867 -22.62)"/>
        <path id="Path_1796" data-name="Path 1796" class="cls-4" d="M79.075,151.693l.055,1.5.13,3.459,1.786-.471.315,1.971s.685.446-2.181,1.206a.71.71,0,0,1-.109.841,1.753,1.753,0,0,1-.786.42,5.75,5.75,0,0,1-1.223.21v-.706l-.4-7.641c2.484-.366,1.971-.929,1.971-.929Z" transform="translate(-0.949 36.878)"/>
        <path id="Path_1797" data-name="Path 1797" class="cls-4" d="M78.629,161.081s.513.563-1.971.929V161.9l1.66-.63,1.6-16.854.941-.223,1.4-13.092h.1s6.9.563,16.572,7.082a46.566,46.566,0,0,1,10.928,9.1c4.459,5.359,8.271,9.776,8.271,9.776l1.786,3.1-.08,2.522s-5.359,1.7-6.7,1.706h-2.522l-31.135-1.681h-.34l-.055-1.5Z" transform="translate(-0.949 27.335)"/>
        <path id="Path_1798" data-name="Path 1798" class="cls-4" d="M46.693,50.349c-.042-1.744-.067-3.539-.029-4.779h0a4.483,4.483,0,0,1,.034-.7,21.3,21.3,0,0,1,1.021,4.157c.139.841.265,1.8.357,2.879h0c.092,1.076.155,2.274.164,3.585a26.587,26.587,0,0,0,.79,5.09c.113.37.252.883.42,1.484.387,1.5.87,3.56,1.215,5.485.164.933.3,1.832.374,2.618a10.812,10.812,0,0,1,.055,1.635c-.2-.5-.42-1.026-.618-1.572h0c-.328-.841-.66-1.723-.979-2.572h0c-.164-.42-.324-.862-.475-1.261-.5-1.337-.933-2.5-1.2-3.194a13.907,13.907,0,0,1-.7-3.274l-.193-3.715h0l-.029-.542c-.025-.651-.126-2.942-.189-5.3Z" transform="translate(-14.947 -12.88)"/>
        <path id="Path_1799" data-name="Path 1799" class="cls-4" d="M44.861,64.575c-.071-.42-.147-.9-.235-1.408v-.021c-.092-1.042-.135-1.837-.135-1.837l3.152-12.546a.841.841,0,0,1,.055-.151c.063,2.375.164,4.648.189,5.3l.029.542h0l-2.585,9.5a3.946,3.946,0,0,0,.046.53Z" transform="translate(-15.952 -11.136)"/>
        <path id="Path_1800" data-name="Path 1800" class="cls-4" d="M80.967,137.468a28.222,28.222,0,0,0,2.816-2.576h0c1.8-1.925,3.505-4.421,3.337-6.884,0,0-.538-13.735-1.521-17.165h4.321s3.505,9.528,2.1,15.694a29,29,0,0,1-1.534,4.884,17.865,17.865,0,0,1-1.11,2.215,7.823,7.823,0,0,1-.929,1.307,18.988,18.988,0,0,1-4.665,2.5c-.252.1-.513.185-.778.269a15.7,15.7,0,0,1-2.366.559l.063-.588.025-.227Z" transform="translate(0.908 17.888)"/>
        <path id="Path_1801" data-name="Path 1801" class="cls-4" d="M36.917,135.145l.05.761h-.156c-1.681,1.891-1.471,5.531-1.471,5.531l1.681,12.436h0l-1.215.841h0c-.076-.143-.113-.223-.113-.223s-1.261-6.725-1.841-12.974,2.4-8.3,2.4-8.3Z" transform="translate(-20.948 28.323)"/>
        <path id="Path_1802" data-name="Path 1802" class="cls-4" d="M114.316,141.828s3.249,2.627,1.988,8.881-1.21,6.935-1.21,6.935c.21,1.416-2.337,2.782-2.337,2.782l.08-2.522-1.786-3.1s-3.808-4.417-8.271-9.776a46.657,46.657,0,0,0-10.928-9.1s13.794.9,17.631,2.69S114.316,141.828,114.316,141.828Z" transform="translate(6.137 29.591)"/>
        <path id="Path_1803" data-name="Path 1803" class="cls-4" d="M95.537,128.9s.462.925,1.156,2.349l-.752-.025c-.349-.731-.563-1.173-.563-1.173l-5.985-13.29s-5.464-10.133-.752-24.272h0a1.475,1.475,0,0,0,.235-.706h0c.319-.9.677-1.8,1.08-2.732,6.935-15.921-3.047-21.8-3.047-21.8l-3.022-2.127h0L73.254,57.633a7.031,7.031,0,0,1-2.312-2.425,32.972,32.972,0,0,1-3.678-7.616c0-.046-.034-1.11-.05-1.16l.1-.029.42,1.286c3.152,7.431,6.048,8.75,6.048,8.75l14.139,10.6s10.129,6.977,3.308,21.174c-7.565,15.727-1.316,27.424-1.316,27.424Z" transform="translate(-5.354 -12.166)"/>
        <path id="Path_1804" data-name="Path 1804" class="cls-4" d="M60.99,148.84l-1.122,2.627-3.081.5a15.479,15.479,0,0,1-3.362.79l1.156-2.732.42.071,5.464-1.332.378-.2Z" transform="translate(-11.785 35.482)"/>
        <path id="Path_1805" data-name="Path 1805" class="cls-4" d="M46.883,181.883,50.666,181,48.11,158.868,44.992,147.8l-1.017.143-5.043.244-.841,5.531-.059-.769a8.12,8.12,0,0,1-.071-3.993,53.183,53.183,0,0,0,.912-13.659c-.353-6.582-.983-12.327-.983-12.327s-.7-8.544-1.82-21.153-1.82-19.333-1.681-22.557S36.14,66.51,36.14,66.51s4.06-17.8,5.485-25.848a32.812,32.812,0,0,1,5.766-13.529l1.681-1.681c-1.639,1.9-2.723,4.648-4.031,8.313-.177.5-.345,1.026-.5,1.58l-.916,3.934A144.23,144.23,0,0,0,41.7,58.717c-.324,1.521.42,8.276.42,8.276s1.261,8.04,1.446,8.746,1.021,4.522,1.416,5.993.29,9.717.29,9.717-.63,8.776-.58,13.029S47.211,117.823,47.5,119s4.648,13.264,4.648,13.264l5.518,11.953,4.308,8.019s3.232,7.111,4.674,10.528A44.278,44.278,0,0,1,69.907,173.3a11.633,11.633,0,0,1-.63,5.964s-.261.761-3.993,3.993-11.058,4.464-11.058,4.464l.736,1.076s-.357-.05-.958-.16c0,0-2.1-5.144-3.841-6.229a4.774,4.774,0,0,0-3.278-.525Z" transform="translate(-20.672 -21.938)"/>
        <path id="Path_1806" data-name="Path 1806" class="cls-4" d="M88.436,109.091l-4.01,8.8L82.935,130.8l-2.82,24.394-7.2-.261-.315-.055-1.051-.156.185-3.522.635-7.611.13-1.563,1.753-20.926.214-2.551L72.159,109.2l.13-.034,5.371.029,3.955.021Z" transform="translate(-3.33 17.071)"/>
        <path id="Path_1807" data-name="Path 1807" class="cls-4" d="M54.3,47.165h0a20.556,20.556,0,0,1,2.942,4.241h0a63.952,63.952,0,0,1,4.884,11.247s1.61,6.8-.769,10.087c-6.426,1.185-8.036,3.077-8.738,2.585A14.75,14.75,0,0,1,51.071,72.1h0a10.809,10.809,0,0,0-.055-1.635c-.076-.786-.21-1.681-.374-2.618-.345-1.925-.841-3.989-1.215-5.485-.16-.6-.3-1.114-.42-1.484a26.587,26.587,0,0,1-.79-5.09c0-1.311-.071-2.522-.164-3.585h0c-.092-1.08-.219-2.043-.357-2.879a21.3,21.3,0,0,0-1.021-4.157c.038-.567.1-.908.2-.908a3.776,3.776,0,0,1,1.3.42c.811.332,2.417,1.034,5.392,2.207h0Z" transform="translate(-14.933 -13.168)"/>
        <path id="Path_1808" data-name="Path 1808" class="cls-4" d="M76.737,142.035s-.773.206-1.929.555l-.042-.147.517-.164-3.026-5.506a11.6,11.6,0,0,1-1.412-4.859l-.538-8.406c-.559-9.667-3.993-12.117-3.993-12.117s-2.581-1.189-3.837-1.946l.34-.357,4.279.038,8.633.08h.664l2.312,9.343-.214,2.551Z" transform="translate(-7.563 17.07)"/>
        <path id="Path_1809" data-name="Path 1809" class="cls-4" d="M67.525,149.263a33.261,33.261,0,0,0-1.811-7.116s-1.6-4.468-3.808-9.2-3.993-7.75-3.993-7.75l-6.224-12.529S46.7,99.7,44.62,93.629a47.639,47.639,0,0,1-1.963-10.369c4.337-1.992,5.325-8.044,5.325-8.044s.219,2,.715,5.409h0c.311,2.148.731,4.854,1.261,7.986,1.421,8.091,3.362,16.253,4.115,18.631.731,2.253,6.035,15.795,10.284,25.667.24.563.479,1.114.714,1.652,4.342,9.948,2.732,16.253,2.732,16.253h-.13A12.065,12.065,0,0,0,67.525,149.263Z" transform="translate(-16.807 1.272)"/>
        <path id="Path_1811" data-name="Path 1811" class="cls-2" d="M74.839,62.75s-.2,2.4-.256,5.043a3.782,3.782,0,0,1-.458,1.635c0,.046-.046.092-.071.139a13.763,13.763,0,0,1-3.417,3.741c-.084-.038-.151-.067-.2-.084a18.518,18.518,0,0,0-11.487-1.4c2.379-3.274.769-10.087.769-10.087a63.952,63.952,0,0,0-4.884-11.247h0a22.291,22.291,0,0,0-2.942-4.241l1.572.605a35.758,35.758,0,0,0,6.973,2.173c.635.105,1.261.172,1.959.244a23.469,23.469,0,0,0,3.627.109,10,10,0,0,0,1.681-.227h.034a4.778,4.778,0,0,0,1.227-.45,8.877,8.877,0,0,1,3.783,6.426h.214c.055.538.1,1.11.143,1.723a29.909,29.909,0,0,0,1.542,5.392Z" transform="translate(-12.5 -12.24)"/>
        <path id="Path_1812" data-name="Path 1812" class="cls-4" d="M87.181,109.071h.841v.021l-1.03,2.522L84.47,117.75l-1.215,11.167-.841,7.876-.156,1.475-.025.227-.063.588-.13,1.194h0v.177l-.1.916-1.4,13.092-.941.223-1.879.441-.3.071,2.82-24.377,1.492-12.907,4.01-8.8Z" transform="translate(-0.595 17.062)"/>
        <path id="Path_1813" data-name="Path 1813" class="cls-4" d="M132.147,102.93l-4.833,7.876-4.619,21.742-1.29-.307,4.064-21.519,4.308-7.885Z" transform="translate(19.92 14.154)"/>
        <path id="Path_1814" data-name="Path 1814" class="cls-6" d="M61.563,163.7l2.572-6.229a4.543,4.543,0,0,1,1.9-2.249h0l8.982-3.236H71.755l-6.355,2.1a4.135,4.135,0,0,0-2.156,1.8,63.827,63.827,0,0,0-3.152,7.393Z" transform="translate(-8.676 37.078)"/>
        <path id="Path_1815" data-name="Path 1815" class="cls-6" d="M62.647,160.464s-2.232,3.6-2.391,4.085-.841.748-1.139.933-.345.563-.42,1.026-.778.866-.988,1.089-.378.475-.353,1.446,1.971,1.837,1.971,1.837a2.072,2.072,0,0,0,1.652-.088,1.731,1.731,0,0,0,.9-1.408,3.131,3.131,0,0,1,.29-1.1,2.753,2.753,0,0,0,.3-1.231,1.315,1.315,0,0,1,.563-.912l1.189-5.531-1.542-.382-1.433-.841L57,165.856s-1.627,1.967-1.261,3.085a5.245,5.245,0,0,0,1.391,1.984s.841.2.958.366.723.3.841.16a.479.479,0,0,1,.551-.147,1.938,1.938,0,0,0,1.093,0,1.652,1.652,0,0,0,.538-.513" transform="translate(-10.731 40.527)"/>
        <path id="Path_1816" data-name="Path 1816" class="cls-6" d="M47.218,25.477c-.071.063-.143.13-.21.2h0c-2,2-3.051,5.153-4.451,9.469l-.063.193" transform="translate(-16.883 -21.926)"/>
        <path id="Path_1817" data-name="Path 1817" class="cls-6" d="M96.013,131.106c-.349-.731-.563-1.173-.563-1.173l-5.985-13.29S84,106.51,88.712,92.372h0c.076-.244.16-.479.244-.727h0c.319-.9.677-1.8,1.08-2.732,6.939-15.942-3.043-21.826-3.043-21.826l-3.022-2.1L73.334,57.5a7.031,7.031,0,0,1-2.312-2.425,32.973,32.973,0,0,1-3.678-7.616c0-.046-.034-1.11-.05-1.16" transform="translate(-5.316 -12.215)"/>
        <path id="Path_1818" data-name="Path 1818" class="cls-6" d="M82.857,127.131h0" transform="translate(1.942 25.485)"/>
        <line id="Line_341" data-name="Line 341" class="cls-6" x1="0.008" y1="0.092" transform="translate(81.984 155.192)"/>
        <path id="Path_1819" data-name="Path 1819" class="cls-6" d="M89.826,108.848a68.743,68.743,0,0,1,2.9,7.145c.841,3.152,1.156,12.39-5.3,16.177" transform="translate(4.077 16.957)"/>
        <path id="Path_1820" data-name="Path 1820" class="cls-6" d="M91.015,108.83a71.727,71.727,0,0,1,3.224,7.6c.866,3.152,2.047,12.239-5.939,17.022-.563.336-1.105.656-1.622.95" transform="translate(3.724 16.949)"/>
        <path id="Path_1821" data-name="Path 1821" class="cls-6" d="M48.789,136.766s-.357-.05-.958-.16" transform="translate(-14.394 29.904)"/>
        <path id="Path_1822" data-name="Path 1822" class="cls-6" d="M49.14,25.334l-1.681,1.681a32.812,32.812,0,0,0-5.792,13.521C40.243,48.589,36.2,66.384,36.2,66.384s-1.614,9.524-1.753,12.747.559,9.948,1.681,22.557,1.82,21.153,1.82,21.153.63,5.745.983,12.327a53.184,53.184,0,0,1-.912,13.659,8.12,8.12,0,0,0,.071,3.993l.059.769h0c.029.4.071.933.126,1.589h0" transform="translate(-20.642 -21.993)"/>
        <line id="Line_342" data-name="Line 342" class="cls-6" y1="0.004" transform="translate(21.521 160.773)"/>
        <path id="Path_1823" data-name="Path 1823" class="cls-6" d="M41.943,146.876l.424,4.4-1.084,5.01H38.374l-1.82-4.762-.349-5.186-.668-1.925v-.946l2.522-8.65L36.8,120.679v-.008l-.034-.391.866-5.636v0l.849-5.531,5.043-.244-.29.244-2.068,1.753,1.9,9.772,1.147,14.323-2.568,8.851v0l.24,2.492Z" transform="translate(-20.128 16.965)"/>
        <path id="Path_1824" data-name="Path 1824" class="cls-6" d="M40.232,110.784l-2.265.071-.42-1.824" transform="translate(-19.191 17.043)"/>
        <line id="Line_343" data-name="Line 343" class="cls-6" y1="9.747" x2="2.101" transform="translate(16.675 127.898)"/>
        <path id="Path_1825" data-name="Path 1825" class="cls-6" d="M41.213,109.031l2.324,11.033,1.013,14.29-2.589,9,.382,1.328-1.244.773-1.231.769" transform="translate(-18.108 17.043)"/>
        <path id="Path_1826" data-name="Path 1826" class="cls-6" d="M69.866,52.276s-.42,10.087.525,14.29,3.362,19.543,3.362,19.543l10.423,27.529s3.257,7.691,5.968,14.571" transform="translate(-4.16 -9.427)"/>
        <line id="Line_344" data-name="Line 344" class="cls-6" x1="0.004" transform="translate(86.758 120.762)"/>
        <path id="Path_1827" data-name="Path 1827" class="cls-6" d="M86.335,111.562a23.286,23.286,0,0,0-.841-2.631" transform="translate(3.172 16.996)"/>
        <path id="Path_1828" data-name="Path 1828" class="cls-6" d="M77.419,117.849l-4.51-38.368-.139-3.169-.244-1.471-.118,4.665.5,5.892-.034,11.281-.105,8.229-.382,6.977-.353,6.443" transform="translate(-3.105 1.097)"/>
        <path id="Path_1829" data-name="Path 1829" class="cls-6" d="M67.908,150.707s1.61-6.3-2.732-16.248-10.23-24.94-11-27.319S51.479,96.6,50.063,88.5s-2-13.411-2-13.411-.988,6.056-5.329,8.044" transform="translate(-16.77 1.215)"/>
        <path id="Path_1830" data-name="Path 1830" class="cls-6" d="M49.089,86.086c.366-3.413-.58-14.025-1.366-16.917s-5.5-7.208-5.5-7.208-1.572-8.75-1.681-11.646c0,0,4.522,2.913,5.926,11.184s.815,6.174.815,6.174" transform="translate(-17.792 -10.342)"/>
        <path id="Path_1832" data-name="Path 1832" class="cls-6" d="M51.542,68.367h0l-4.035.45a2.181,2.181,0,0,1-2.1-1.421h0a21.735,21.735,0,0,1-.685-4.342h0c-.092-1.042-.134-1.837-.134-1.837l3.152-12.546a.84.84,0,0,1,.055-.151h0" transform="translate(-15.907 -11.179)"/>
        <path id="Path_1833" data-name="Path 1833" class="cls-6" d="M47.727,52.485h0l-2.585,9.5c.071,2.417,1.681,2.207,1.681,2.207s1.593-.1,3.472-.252h0" transform="translate(-15.648 -9.33)"/>
        <path id="Path_1834" data-name="Path 1834" class="cls-6" d="M45.692,60.431s1.753-.105,2.976-.244a1.105,1.105,0,0,0,.9-.752" transform="translate(-15.392 -6.088)"/>
        <path id="Path_1835" data-name="Path 1835" class="cls-6" d="M84.2,80.169,63.74,68.716,47.282,82.863l-.42.635s4.346,11.369,6.3,18.072" transform="translate(-14.846 -1.76)"/>
        <path id="Path_1836" data-name="Path 1836" class="cls-6" d="M82.262,92.052,65.308,81.608,51.161,95.553,56.2,112.785" transform="translate(-12.841 4.253)"/>
        <path id="Path_1837" data-name="Path 1837" class="cls-6" d="M58.926,123.592l-1.458-5.72L54.6,106.612,66.155,94.844l14.366,7.712" transform="translate(-11.238 10.426)"/>
        <line id="Line_345" data-name="Line 345" class="cls-6" x1="0.34" y2="0.357" transform="translate(55.022 125.977)"/>
        <path id="Path_1838" data-name="Path 1838" class="cls-6" d="M111.6,165.507h-2.723s1.471,1.82,9.524-.282,8.759-4.2,18.493-6.935l11.692-4.056s5.254-.63,7.145-3.219,3.219-7.216,2.942-11.7-1.051-7.145-6.376-8.893-15.479-2.732-28.088-1.542-23.259,2.1-23.259,2.1a20.336,20.336,0,0,1-2.757-.282,32.609,32.609,0,0,0-4.569.24l-6.2.235-6.8-.055v.45" transform="translate(0.9 26.057)"/>
        <path id="Path_1839" data-name="Path 1839" class="cls-6" d="M115.162,157.532s-.055-.685,1.206-6.935-1.984-8.881-1.984-8.881-1.009-1.416-4.846-3.2-17.627-2.69-17.627-2.69a46.566,46.566,0,0,1,10.928,9.1c4.459,5.359,8.267,9.776,8.267,9.776l1.786,3.1-.08,2.522S115.389,158.948,115.162,157.532Z" transform="translate(6.165 29.539)"/>
        <path id="Path_1840" data-name="Path 1840" class="cls-6" d="M80.622,130.983s6.9.563,16.572,7.082" transform="translate(0.9 27.281)"/>
        <line id="Line_346" data-name="Line 346" class="cls-6" x2="31.139" y2="1.673" transform="translate(78.63 189.899)"/>
        <path id="Path_1841" data-name="Path 1841" class="cls-6" d="M72.559,154.823l7.2.261,2.181-.513.941-.223,1.5-14.008v-.177l.13-1.194.063-.588.181-1.7.841-7.876,1.236-11.176,3.535-8.662" transform="translate(-2.861 17.012)"/>
        <path id="Path_1842" data-name="Path 1842" class="cls-6" d="M77.466,155.084l2.82-24.394,1.492-12.907,4.022-8.818" transform="translate(-0.572 17.012)"/>
        <path id="Path_1843" data-name="Path 1843" class="cls-6" d="M120.258,132.7l3-20.355-1.475-8.128-12.739-.475-1.681-1.606s-.643-2.358,1.009-2.673,9.994-.42,9.994-.42,15.8.3,16.866.105,16.812,1.08,16.812,1.08a1.793,1.793,0,0,1,1.32,1.6c0,1.236-.492,1.576-.492,1.576l-1.152,1.139a20,20,0,0,1-2.967,0c-2.837-.071-9.915,0-9.915,0l-7.952-.315h-9.1" transform="translate(13.312 12.386)"/>
        <path id="Path_1844" data-name="Path 1844" class="cls-6" d="M131.815,102.789l-4.833,7.876-4.623,21.742a20.975,20.975,0,0,1,9.246,7.565,10.932,10.932,0,0,1,1.131,1.761l.551.769" transform="translate(20.365 14.132)"/>
        <path id="Path_1845" data-name="Path 1845" class="cls-6" d="M78.129,140.578l-1.4,16.971,1.66-.63,1.6-16.854" transform="translate(-0.916 31.517)"/>
        <path id="Path_1846" data-name="Path 1846" class="cls-6" d="M82.638,159.275a.71.71,0,0,1-.109.841,1.753,1.753,0,0,1-.786.42,5.751,5.751,0,0,1-1.223.21,38.721,38.721,0,0,1-6.393-.21,34.1,34.1,0,0,1-4.358-.706l-.29-.736,1.391-6.876.235-.252.24-.256s5.674,1.051,8.486.685l.286-.042c2.484-.366,1.971-.929,1.971-.929l.446.156.185,4.964,1.786-.471.315,1.971S85.5,158.5,82.638,159.275Z" transform="translate(-4.298 36.815)"/>
        <path id="Path_1847" data-name="Path 1847" class="cls-6" d="M76.73,151.989l0,.113.4,7.687" transform="translate(-0.916 37.078)"/>
        <path id="Path_1848" data-name="Path 1848" class="cls-6" d="M80.719,141.951l14.025-1.324s6.023-.492,7.073-.773,8.406-3.123,8.406-3.123,8.267-4.56,15.832-5.27,9.994-.492,14.437.744l4.064-21.523,4.426-8.107" transform="translate(0.945 14.031)"/>
        <path id="Path_1849" data-name="Path 1849" class="cls-6" d="M89.983,110.889l5.371.029h3.955l8.3-.156,1.753-.034h.24c1.433-.034,3.425-.076,5.216-.122l.841-.025c.958-.025,1.811-.05,2.438-.076a42.821,42.821,0,0,0,6.96-1.126l1.076-1.21s.471-.366.4-1.6a1.792,1.792,0,0,0-1.421-1.517s-3.6.546-4.648.807a24.436,24.436,0,0,1-3.942.21l-3.089-.172-.794-.042c-1.484-.084-3.236-.185-4.951-.29h0c-2.585-.151-5.094-.307-6.5-.42-1.173-.092-3.4-.109-5.913-.088-1.786,0-3.715.038-5.51.076-3.741.071-6.884.168-6.884.168s-6.75.815-8.381,1.236-.841,2.732-.841,2.732l1.761,1.5h.874l4.279.038,8.633.08h.664l2.312,9.351-.214,2.551-1.883,22.49-.635,7.611-.185,3.522,1.051.156-1.6,15.971-.975.551v.765h-.235l-21.468-1.769a15.474,15.474,0,0,1-3.362.79H57.969L37.8,170.314a11.483,11.483,0,0,1-1.917-2.635c-.076-.143-.113-.223-.113-.223s-1.261-6.725-1.841-12.974,2.4-8.288,2.4-8.288" transform="translate(-20.915 15.185)"/>
        <path id="Path_1850" data-name="Path 1850" class="cls-6" d="M40.983,108.91,42,108.767l3.119,11.07,2.555,22.132-3.766.883-.6.139" transform="translate(-17.588 16.92)"/>
        <path id="Path_1851" data-name="Path 1851" class="cls-6" d="M42.545,132.186h.034a4.271,4.271,0,0,1,.6-.139,4.775,4.775,0,0,1,3.274.521c1.753,1.084,3.841,6.229,3.841,6.229l1.2,1.719.458,1.963,1.189,1.82,1.261-.349,2.1,2.278.979-.315,4.274,2.312,4.413,8.2-1.118,2.618-3.081.5" transform="translate(-16.859 27.734)"/>
        <path id="Path_1852" data-name="Path 1852" class="cls-6" d="M42.984,132.112l-1.379.479a15.349,15.349,0,0,1,3.362,4.1c.084.181.177.378.273.593,1,2.249,2.614,6.241,5.014,8.162a52.437,52.437,0,0,0,6.061,4.026s.21-.139.769.946,3.119,7.111,3.119,7.111l-1.156,2.732-3.572-3.152" transform="translate(-17.298 27.808)"/>
        <line id="Line_347" data-name="Line 347" class="cls-6" y1="1.332" x2="5.464" transform="translate(43.325 184.074)"/>
        <line id="Line_348" data-name="Line 348" class="cls-6" y1="1.156" x2="4.585" transform="translate(39.686 176.089)"/>
        <path id="Path_1853" data-name="Path 1853" class="cls-6" d="M36.392,135.022c-1.681,1.891-1.471,5.531-1.471,5.531L36.6,152.989l.664.593,19.052,2.278,2.1-.176.177-.664-1.437-3.291L54.5,150.4a11.684,11.684,0,0,1-2.976-2.207,35,35,0,0,1-5.956-9c-1.925-4.165-3.333-4.4-3.333-4.4" transform="translate(-20.419 29.055)"/>
        <path id="Path_1854" data-name="Path 1854" class="cls-6" d="M52.465,144.167c0,.139-2.379,3.186-2.379,3.186" transform="translate(-13.342 33.43)"/>
        <line id="Line_349" data-name="Line 349" class="cls-6" x1="4.728" y1="1.261" transform="translate(38.177 184.074)"/>
        <line id="Line_350" data-name="Line 350" class="cls-6" x1="0.038" y1="2.871" transform="translate(16.847 182.641)"/>
        <line id="Line_351" data-name="Line 351" class="cls-6" y1="0.836" x2="1.215" transform="translate(14.968 182.044)"/>
        <path id="Path_1855" data-name="Path 1855" class="cls-6" d="M78.117,131.436s-7.922,2.1-10.928,4.342a19.669,19.669,0,0,1-7.431,3.4" transform="translate(-8.831 27.492)"/>
        <path id="Path_1856" data-name="Path 1856" class="cls-6" d="M48.653,138.036l1.715-.773,1.576,3.61-.387.593" transform="translate(-14.011 30.21)"/>
        <path id="Path_1857" data-name="Path 1857" class="cls-6" d="M51.6,142.783l.315.42s.946-.038,1.017-.42,1.084-1.366,1.61-1.194,1.929.345,2.207-.021a5.311,5.311,0,0,1,.946-.761c.172-.118.349-.227.521-.324a2.1,2.1,0,0,1,.778-.328c.42,0,1.753.462,2,.42s1.572-1.433,1.921-1.433a2.439,2.439,0,0,0,1.332-.525A1.349,1.349,0,0,0,64,137.286c-.42-.454-2.522-3.257-2.522-3.257s-.446-.42-1.853,0-9.7,4.026-9.7,4.026v.542Z" transform="translate(-13.421 28.615)"/>
        <path id="Path_1858" data-name="Path 1858" class="cls-6" d="M50.49,138.343l9.246-3.4,2.068,2.61" transform="translate(-13.154 29.13)"/>
        <path id="Path_1859" data-name="Path 1859" class="cls-6" d="M67.781,105.62s2.522-.483,6.237-.912c1.6-.185,3.43-.357,5.384-.479,1.261-.076,2.564-.13,3.9-.155,2.69-.046,5.38-.034,7.775,0,1.765.025,3.362.063,4.711.1l.752.025c1.021.029,1.841.063,2.391.084s1.03.063,1.542.13l8.826,1.118" transform="translate(-5.089 14.717)"/>
        <path id="Path_1860" data-name="Path 1860" class="cls-7" d="M51.149,71.689h0a10.808,10.808,0,0,0-.055-1.635c-.076-.786-.21-1.681-.374-2.618-.345-1.925-.841-3.989-1.215-5.464-.16-.6-.3-1.114-.42-1.484a26.587,26.587,0,0,1-.79-5.09c0-1.311-.071-2.522-.164-3.585h0c-.092-1.08-.219-2.043-.357-2.879a21.3,21.3,0,0,0-1.021-4.157" transform="translate(-14.897 -12.924)"/>
        <path id="Path_1861" data-name="Path 1861" class="cls-7" d="M51.955,46.128h0A20.557,20.557,0,0,1,54.9,50.368h0A63.952,63.952,0,0,1,59.78,61.615s1.61,6.8-.769,10.087a15.519,15.519,0,0,1,5.443.752c1.988.841,9.793,3.6,11.73,3.85a1.338,1.338,0,0,0,.269.021" transform="translate(-12.471 -12.295)"/>
        <path id="Path_1862" data-name="Path 1862" class="cls-7" d="M64.752,67.935a13.763,13.763,0,0,0,3.417-3.741c.025-.046.05-.092.071-.139a3.782,3.782,0,0,0,.458-1.635c.055-2.627.256-5.043.256-5.043" transform="translate(-6.502 -7.048)"/>
        <path id="Path_1863" data-name="Path 1863" class="cls-7" d="M63.608,47.8a8.863,8.863,0,0,1,3.783,6.426" transform="translate(-7.035 -11.515)"/>
        <path id="Path_1864" data-name="Path 1864" class="cls-7" d="M62.631,108.74s-4.342.63-4.972.7-.559.492-.559.492c3.43.21,3.993,2.1,5.182,3.5s2.593,12.47,2.03,19.4A36.145,36.145,0,0,1,61.3,144.746c5.182,1.261,16.6-2.45,16.6-2.45l-3.026-5.506a11.6,11.6,0,0,1-1.412-4.854l-.538-8.406c-.559-9.667-3.993-12.117-3.993-12.117A39.948,39.948,0,0,1,64.56,109.1,2.5,2.5,0,0,0,62.631,108.74Z" transform="translate(-10.072 16.881)"/>
        <path id="Path_1865" data-name="Path 1865" class="cls-7" d="M81.041,137.356a28.229,28.229,0,0,0,2.816-2.576h0c1.8-1.925,3.505-4.421,3.337-6.884,0,0-.534-13.735-1.517-17.165h4.316s3.505,9.528,2.1,15.694a29,29,0,0,1-1.534,4.884,17.863,17.863,0,0,1-1.11,2.215,7.823,7.823,0,0,1-.929,1.307,18.987,18.987,0,0,1-4.665,2.5c-.252.1-.513.185-.778.269a15.7,15.7,0,0,1-2.366.559" transform="translate(0.942 17.836)"/>
        <path id="Path_1866" data-name="Path 1866" class="cls-6" d="M57.349,109.533a10.834,10.834,0,0,0-.794,1.488" transform="translate(-10.325 17.277)"/>
        <path id="Path_1867" data-name="Path 1867" class="cls-6" d="M60.58,134.022s-2.127-.979-1.917-2.345" transform="translate(-9.349 27.605)"/>
        <line id="Line_352" data-name="Line 352" class="cls-6" x1="0.004" transform="translate(32.049 42.613)"/>
        <path id="Path_1868" data-name="Path 1868" class="cls-7" d="M54.393,47.054l-.727-.286h0c-2.976-1.173-4.518-1.837-5.392-2.207a3.675,3.675,0,0,0-1.3-.42c-.1,0-.16.34-.2.908,0,.206-.025.42-.034.7h0c-.038,1.24,0,3.035.029,4.779h0c.063,2.375.164,4.648.189,5.3l.029.542h0l.193,3.715a13.908,13.908,0,0,0,.7,3.274c.269.693.7,1.858,1.2,3.194.151.42.311.841.475,1.261h0c.319.841.651,1.732.979,2.572h0c.21.546.42,1.076.618,1.572h0a14.147,14.147,0,0,0,1.551,3.228c.7.492,2.312-1.4,8.759-2.593a18.518,18.518,0,0,1,11.487,1.4.711.711,0,0,1,.2.084c.92.42,3.736,2.1,5.434,2.971l.319.164a.84.84,0,0,0,.193.076,1.37,1.37,0,0,0,1.782-1.261c.134-3.619-2.354-9.414-3.526-12.483l-.2-.542a29.909,29.909,0,0,1-1.542-5.392c-.488-7.078-1.748-8.969-2.03-9.318s-.7.42-2.1,1.189a4.778,4.778,0,0,1-1.227.45h-.034a10,10,0,0,1-1.681.227,23.47,23.47,0,0,1-3.627-.109c-.71-.071-1.324-.139-1.959-.244a35.758,35.758,0,0,1-6.973-2.173L54.4,47.079h0" transform="translate(-14.909 -13.221)"/>
        <path id="Path_1869" data-name="Path 1869" class="cls-6" d="M44.014,36.282l-1.038,4.2a159.818,159.818,0,0,0-2.009,19.628s.021,1.261.118,2.9a2.793,2.793,0,0,0,.025.446c.042.719.1,1.5.172,2.278.265,2.812,1.076,7.015,1.076,7.015s.164.765.4,1.807v.1c.42,1.988,1.063,4.909,1.219,5.607a40.284,40.284,0,0,1,.656,10.688c-.265,6.38-.63,11.8-.63,11.8s.042,1.954.294,4.657a47.052,47.052,0,0,0,1.963,10.369c2.076,6.069,7.069,19.043,7.069,19.043l6.241,12.562s1.786,3.022,3.993,7.75,3.82,9.183,3.82,9.183a33.261,33.261,0,0,1,1.811,7.116,15.027,15.027,0,0,1-.076,5.989,11.323,11.323,0,0,1-4.2,5.623,21.053,21.053,0,0,1-2.942,1.652h-.034c-1.488.719-3.106,1.374-4.472,1.9h0c-1.853.719-3.207,1.139-3.207,1.139H52.735L52,188.65s7.33-1.236,11.058-4.463,3.993-3.993,3.993-3.993a11.634,11.634,0,0,0,.63-5.964A44.029,44.029,0,0,0,64.423,163.7c-1.446-3.413-4.674-10.528-4.674-10.528l-4.308-7.994-5.518-11.953s-4.358-12.092-4.648-13.264-2.757-10.272-2.812-14.525.58-13.029.58-13.029.105-8.246-.29-9.717-1.236-5.3-1.433-6.019-1.446-8.746-1.446-8.746-.752-6.754-.42-8.276a144.229,144.229,0,0,1,1.925-19.438l.916-3.934c.16-.555.328-1.084.5-1.58,1.307-3.665,2.391-6.409,4.031-8.313s3.934-3.018,7.595-3.282c7.246-.525,14.063,4.085,14.063,4.085s1.1.193,2.719,2.614a.2.2,0,0,0,.025.038c.227.345.467.74.71,1.181" transform="translate(-18.341 -23.055)"/>
        <path id="Path_1870" data-name="Path 1870" class="cls-6" d="M45.572,26.425l1.53-1.181a11.012,11.012,0,0,1,4.842-1.324c7.04-.525,14.92,4.1,14.92,4.1s.551.16,1.458,1.408a.2.2,0,0,0,.025.038,13.358,13.358,0,0,1,.761,1.173L77.934,58c3.152,7.431,6.048,8.75,6.048,8.75l14.126,10.6s10.129,6.977,3.308,21.174c-7.565,15.727-1.316,27.424-1.316,27.424l5.623,13.294s.462.925,1.156,2.349" transform="translate(-15.448 -22.672)"/>
        <path id="Path_1871" data-name="Path 1871" class="cls-6" d="M108.312,152.525s-5.354,1.7-6.7,1.711" transform="translate(10.691 37.328)"/>
        <line id="Line_353" data-name="Line 353" class="cls-6" x2="1.286" y2="0.303" transform="translate(141.438 146.235)"/>
        <line id="Line_354" data-name="Line 354" class="cls-6" y1="0.004" transform="translate(88.448 125.931)"/>
      </g>
    </g>
  </g>
</svg>
