<svg xmlns="http://www.w3.org/2000/svg" xmlns:xlink="http://www.w3.org/1999/xlink" viewBox="0 0 190 191">
  <defs>
    <style>
      .cls-1, .cls-3, .cls-4 {
        fill: #fff;
      }

      .cls-1 {
        stroke: #707070;
      }

      .cls-2 {
        clip-path: url(#clip-path);
      }

      .cls-4, .cls-5 {
        stroke: #1d1d1b;
        stroke-miterlimit: 10;
        stroke-width: 0.5px;
      }

      .cls-5, .cls-7 {
        fill: none;
      }

      .cls-6 {
        stroke: none;
      }
    </style>
    <clipPath id="clip-path">
      <circle id="Ellipse_71" data-name="Ellipse 71" class="cls-1" cx="94.5" cy="94.5" r="94.5" transform="translate(1450 2000)"/>
    </clipPath>
  </defs>
  <g id="Group_360" data-name="Group 360" transform="translate(-1320 -1996)">
    <g id="Group_168" data-name="Group 168" transform="translate(-129 -4)">
      <g id="Ellipse_32" data-name="Ellipse 32" class="cls-1" transform="translate(1450 2000)">
        <circle class="cls-6" cx="94.5" cy="94.5" r="94.5"/>
        <circle class="cls-7" cx="94.5" cy="94.5" r="94"/>
      </g>
      <g id="Mask_Group_12" data-name="Mask Group 12" class="cls-2" transform="translate(-1 2)">
        <g id="medidas-04" transform="translate(1455.228 1901.828)">
          <path id="Path_1504" data-name="Path 1504" class="cls-3" d="M30.769,187.306a5.937,5.937,0,0,0-4.948,2.87c-1.851,2.984.151,6.8.151,6.8,1.133,5.624,5.729,5.246,5.729,5.246,6.761-.227,5.59-8.838,5.59-8.838l-.076-6.005C37.265,187.343,34.772,189.307,30.769,187.306Z" transform="translate(0.002 52.188)"/>
          <path id="Path_1505" data-name="Path 1505" class="cls-3" d="M99.735,169.714l-.264.642s-.906,0-1.813,4.419l11.066,2.682s1.511-5.741-1.284-7.1l-1.473-.264-1.511.3-.038-.944Z" transform="translate(23.077 46.515)"/>
          <path id="Path_1506" data-name="Path 1506" class="cls-3" d="M56.134,170.328l.264.642s.906-.038,2.039,4.343l-10.915,3.173s-1.775-5.665.944-7.176l1.473-.34,1.511.227-.038-.944Z" transform="translate(6.966 46.77)"/>
          <path id="Path_1507" data-name="Path 1507" class="cls-3" d="M76.273,200.289l.038,1.246-2.077.038-.68,1.662.378,10.349.831,1.851,2.115-.038s.378-.415.3-2.3-.038-2.342-.038-2.342l3.437-.113.076,3.588s.151,1.058.378,1.058,2.115-.038,2.115-.038a6.747,6.747,0,0,0,.944-2.3c.113-1.02-.227-9.669-.227-9.669l-.831-1.888-2.266.038-.076-.755Z" transform="translate(15.418 56.313)"/>
          <g id="Base" transform="translate(25.029 192.057)">
            <g id="base-2" data-name="base">
              <path id="Path_1508" data-name="Path 1508" class="cls-4" d="M82.237,171.508l-.113-2.719s4-2.417,15.712-2.908,12.879,2.342,12.879,2.342.529.453.189,2.946a6.577,6.577,0,0,1-1.4.264c-.151-.076-.076-.944-.076-.944s-10.235.076-16.278,3.21" transform="translate(-6.888 -146.694)"/>
              <path id="Path_1509" data-name="Path 1509" class="cls-4" d="M78.461,171.369l-.076-2.644s-4.457-2.417-16.2-2.342-12.728,2.946-12.728,2.946-.529.491-.076,2.946a6.749,6.749,0,0,0,1.4.227c.151-.076.038-.944.038-.944s10.235-.378,16.391,2.455" transform="translate(-17.35 -146.517)"/>
              <path id="Path_1510" data-name="Path 1510" class="cls-4" d="M79.194,177.239c4.457,0,6.5-2.266,6.5-2.266v-.264l-.869-17.562a5.688,5.688,0,0,0-.227-1.36,2.326,2.326,0,0,0-.415-.869s-.113,2.342-5.476,2.493l-1.171.038c-5.363.113-5.552-2.228-5.552-2.228a2.315,2.315,0,0,0-.378.869,5.56,5.56,0,0,0-.151,1.36l-.076,17.562.038.264s2.115,2.191,6.572,1.964Z" transform="translate(-10.303 -150.159)"/>
              <path id="Path_1511" data-name="Path 1511" class="cls-4" d="M77.5,158.368c-4.721.189-5.4-2.115-5.4-2.115l-.038-2.266s-.076-1.322.34-1.737c0,0,0,2.115,5.325,1.964h.378c5.325-.113,5.212-2.191,5.212-2.191.453.415.415,1.737.415,1.737l.038,2.266s-.6,2.3-5.325,2.342Z" transform="translate(-10.085 -151.079)"/>
              <path id="Path_1512" data-name="Path 1512" class="cls-4" d="M72.321,152.629v-1.322H83.274l-.227.831s-.227,2.342-5.174,2.3S72.321,152.629,72.321,152.629Z" transform="translate(-10.002 -151.307)"/>
              <path id="Path_1513" data-name="Path 1513" class="cls-4" d="M75.618,200.4l.038,1.1a.872.872,0,0,1,.4.714l3.7-.076s.038-.642.264-.68l-.038-.869" transform="translate(-8.955 -135.707)"/>
              <path id="Path_1514" data-name="Path 1514" class="cls-4" d="M76.147,201.2l-2.077.038L74.6,215.1l2.115-.038s.378-.3.3-1.511l-.415-11.67" transform="translate(-9.447 -135.453)"/>
              <path id="Path_1515" data-name="Path 1515" class="cls-4" d="M74.269,201.264l-.3.642c-.642,1.4-.34.68-.3,5.967v.113c.189,5.288,0,5.136.718,6.5l.34.642" transform="translate(-9.608 -135.434)"/>
              <path id="Path_1516" data-name="Path 1516" class="cls-4" d="M79.195,201.158l2.077-.038.113,13.9-2.115.038s-.415-.264-.378-1.473l-.151-11.67" transform="translate(-7.962 -135.479)"/>
              <path id="Path_1517" data-name="Path 1517" class="cls-4" d="M80.691,201.178l.34.642c.718,1.36.378.68.567,5.93v.113c.076,5.288.227,5.137-.415,6.5l-.3.642" transform="translate(-7.343 -135.461)"/>
              <line id="Line_321" data-name="Line 321" class="cls-5" y1="0.076" x2="3.475" transform="translate(67.456 74.743)"/>
              <path id="Path_1518" data-name="Path 1518" class="cls-4" d="M84.9,170.468l-.038-.264s-18.884,4.155-32.632,8.649a133.961,133.961,0,0,0-22.057,9.178s-1.737,1.058-.906,4.8c0,0,3.475,2.153,6.685,0l.718-1.435s14.125-4.834,23.341-7.176a152.976,152.976,0,0,1,16.429-3.059c2.115-.264,4.192-.6,6.27-1.058h0a4.476,4.476,0,0,1,2.53.264l.529.264h0s.68.831,1.36,10.273,1.246,16.618,1.246,16.618.378,3.324,4.759,2.908a12.462,12.462,0,0,0,2.153-.378,3.263,3.263,0,0,0,2.379-3.21l.529-25.833h0l.529-.264a4.407,4.407,0,0,1,2.493-.378h.038c2.115.34,4.192.567,6.307.755a142,142,0,0,1,16.543,2.3c9.329,1.926,23.681,6.118,23.681,6.118l-.038,1.171c4.834,2.228,7.478-.076,7.478-.076.68-3.815-1.1-4.759-1.1-4.759a133.911,133.911,0,0,0-22.472-8.158c-13.936-3.852-32.707-7.554-32.707-7.554" transform="translate(-23.753 -145.314)"/>
              <path id="Path_1519" data-name="Path 1519" class="cls-5" d="M35.491,187.535v5.59l-.189.151a5.364,5.364,0,0,0-3.815-3.966l-.038-1.133" transform="translate(-22.988 -139.796)"/>
              <path id="Path_1520" data-name="Path 1520" class="cls-4" d="M25.786,196.776a10.677,10.677,0,0,1-.755-3.324,5.808,5.808,0,0,1,5.476-6.118" transform="translate(-25.029 -139.86)"/>
              <path id="Path_1521" data-name="Path 1521" class="cls-4" d="M25.222,193.485c-.076-3.324,2.87-5.7,5.967-5.779" transform="translate(-24.968 -139.741)"/>
              <ellipse id="Ellipse_84" data-name="Ellipse 84" class="cls-4" cx="5.627" cy="6.005" rx="5.627" ry="6.005" transform="translate(0.787 50.434) rotate(-1.31)"/>
              <ellipse id="Ellipse_85" data-name="Ellipse 85" class="cls-4" cx="0.982" cy="1.02" rx="0.982" ry="1.02" transform="translate(5.621 55.314) rotate(-1.31)"/>
              <path id="Path_1522" data-name="Path 1522" class="cls-4" d="M30.074,190.2s.113,3.286.227,3.437.264.3.6,0a25.338,25.338,0,0,0,1.662-2.644" transform="translate(-23.426 -138.949)"/>
              <path id="Path_1523" data-name="Path 1523" class="cls-4" d="M33.032,191.4a29.836,29.836,0,0,0-1.926,2.795c0,.227.038.415.453.415a25.529,25.529,0,0,0,2.87-.831" transform="translate(-23.098 -138.566)"/>
              <path id="Path_1524" data-name="Path 1524" class="cls-4" d="M34.507,193.984a25.2,25.2,0,0,0-3.248.227c-.151.151-.264.264,0,.642a20.934,20.934,0,0,0,2.455,1.813" transform="translate(-23.1 -137.747)"/>
              <path id="Path_1525" data-name="Path 1525" class="cls-4" d="M33.47,197.056a32.962,32.962,0,0,0-2.682-1.926c-.189,0-.378.038-.34.529a29.884,29.884,0,0,0,.944,3.021" transform="translate(-23.308 -137.383)"/>
              <path id="Path_1526" data-name="Path 1526" class="cls-4" d="M30.1,190.229a33.33,33.33,0,0,1,.113,3.437c-.113.151-.227.3-.6.038a23.985,23.985,0,0,1-1.926-2.455" transform="translate(-24.184 -138.94)"/>
              <path id="Path_1527" data-name="Path 1527" class="cls-4" d="M27.462,191.662a32.061,32.061,0,0,1,2.191,2.568c.038.227,0,.415-.415.453a26.749,26.749,0,0,1-2.946-.529" transform="translate(-24.628 -138.484)"/>
              <path id="Path_1528" data-name="Path 1528" class="cls-4" d="M26.348,194.71A22.335,22.335,0,0,1,29.6,194.6c.189.151.3.227.038.642a23.185,23.185,0,0,1-2.266,2.039" transform="translate(-24.609 -137.567)"/>
              <path id="Path_1529" data-name="Path 1529" class="cls-4" d="M27.868,197.847a31.058,31.058,0,0,1,2.153-2.568c.189-.038.378-.076.453.415s-.189,3.173-.189,3.173" transform="translate(-24.127 -137.342)"/>
              <line id="Line_322" data-name="Line 322" class="cls-5" y1="0.076" x2="1.851" transform="translate(33.464 25.909)"/>
              <path id="Path_1530" data-name="Path 1530" class="cls-4" d="M47.715,177.935a4.7,4.7,0,0,1-.567-2.568c-.038-2.379.906-4.343,2.115-4.343s2.455,1.775,2.493,4.155l.038,1.322" transform="translate(-18.001 -145.042)"/>
              <path id="Path_1531" data-name="Path 1531" class="cls-4" d="M47.8,177.762a4.3,4.3,0,0,1-.529-2.379c-.038-2.191.831-4,1.964-4.041s1.964,1.662,2,3.89l-.038,1.36" transform="translate(-17.962 -144.941)"/>
              <path id="Path_1532" data-name="Path 1532" class="cls-4" d="M48.246,171.742a29.912,29.912,0,0,0,.34,3.512c.189.529.378-1.851.718-2.493l.264-.529" transform="translate(-17.652 -144.814)"/>
              <path id="Path_1533" data-name="Path 1533" class="cls-4" d="M49.9,172.774a16.058,16.058,0,0,0-1.02,2.795c0,.529.982-.567,1.737-.906" transform="translate(-17.452 -144.486)"/>
              <path id="Path_1534" data-name="Path 1534" class="cls-4" d="M47.942,172.373s.831,2.833.6,2.644A4.6,4.6,0,0,0,47.3,174" transform="translate(-17.952 -144.613)"/>
              <path id="Path_1535" data-name="Path 1535" class="cls-4" d="M47.357,173.921l1.246,1.4s.264.453-.113.491a6.8,6.8,0,0,1-1.058-.038" transform="translate(-17.934 -144.122)"/>
              <ellipse id="Ellipse_86" data-name="Ellipse 86" class="cls-4" cx="0.34" cy="0.718" rx="0.34" ry="0.718" transform="translate(30.705 30.56) rotate(-1.31)"/>
              <path id="Path_1536" data-name="Path 1536" class="cls-4" d="M56.732,174.843s-.869-3.248-1.511-3.626l-.076,4.041-2.757.831-.076-.755a7.293,7.293,0,0,0-1.02-2.568l-.038-1.435a2.387,2.387,0,0,0,2.266.869c1.435-.264,1.549-.944,1.549-.944l-.415-.6v.453l-2.644.076v-.755" transform="translate(-16.696 -145.233)"/>
              <line id="Line_323" data-name="Line 323" class="cls-5" x1="1.964" y1="0.038" transform="translate(100.541 24.814)"/>
              <path id="Path_1537" data-name="Path 1537" class="cls-4" d="M107.095,177.227a4.982,4.982,0,0,0,.491-2.719c-.076-2.493-1.133-4.494-2.417-4.457s-2.455,1.964-2.417,4.457l.038,1.36" transform="translate(-0.334 -145.351)"/>
              <path id="Path_1538" data-name="Path 1538" class="cls-4" d="M106.863,177.034a4.459,4.459,0,0,0,.453-2.493c-.038-2.3-1.057-4.155-2.228-4.117s-1.964,1.851-1.926,4.155l.113,1.435" transform="translate(-0.204 -145.233)"/>
              <path id="Path_1539" data-name="Path 1539" class="cls-4" d="M105.467,170.8a27.777,27.777,0,0,1-.189,3.664c-.189.567-.491-1.926-.869-2.606a4.659,4.659,0,0,1-.3-.567" transform="translate(0.097 -145.114)"/>
              <path id="Path_1540" data-name="Path 1540" class="cls-4" d="M103.889,171.943a18.731,18.731,0,0,1,1.209,2.87c.038.529-1.058-.567-1.851-.869" transform="translate(-0.176 -144.75)"/>
              <path id="Path_1541" data-name="Path 1541" class="cls-4" d="M105.761,171.427a17.893,17.893,0,0,0-.529,2.795,4.708,4.708,0,0,1,1.246-1.133" transform="translate(0.445 -144.914)"/>
              <path id="Path_1542" data-name="Path 1542" class="cls-4" d="M106.512,173.032l-1.209,1.548s-.264.491.113.491a9.714,9.714,0,0,0,1.1-.113" transform="translate(0.449 -144.404)"/>
              <ellipse id="Ellipse_87" data-name="Ellipse 87" class="cls-4" cx="0.378" cy="0.755" rx="0.378" ry="0.755" transform="translate(104.846 29.511) rotate(-1.31)"/>
              <path id="Path_1543" data-name="Path 1543" class="cls-4" d="M97.736,174.483s.755-3.475,1.4-3.852l.264,4.192,2.946.755.076-.831a7.712,7.712,0,0,1,.944-2.757l-.038-1.511a2.493,2.493,0,0,1-2.342,1.02c-1.511-.227-1.7-.906-1.7-.906l.378-.642v.453l2.757-.076v-.793" transform="translate(-1.927 -145.515)"/>
              <ellipse id="Ellipse_88" data-name="Ellipse 88" class="cls-5" cx="4.759" cy="5.099" rx="4.759" ry="5.099" transform="translate(1.676 51.32) rotate(-1.31)"/>
              <path id="Path_1544" data-name="Path 1544" class="cls-5" d="M25.375,194.611a5.575,5.575,0,0,1,5.59-5.779,5.31,5.31,0,0,1,2.455.3" transform="translate(-24.92 -139.394)"/>
            </g>
          </g>
          <path id="Path_1545" data-name="Path 1545" class="cls-4" d="M125.768,185.672a5.808,5.808,0,0,1,5.476,6.118,10.676,10.676,0,0,1-.755,3.324l-10.991-3.1,4-5.25Z" transform="translate(30.016 51.669)"/>
          <path id="Path_1546" data-name="Path 1546" class="cls-5" d="M129.679,191.823c.076-3.324-2.87-5.7-5.967-5.779" transform="translate(31.355 51.787)"/>
          <path id="Path_1547" data-name="Path 1547" class="cls-4" d="M124.66,199.792a6,6,0,1,0-5.476-6.118,5.811,5.811,0,0,0,5.476,6.118" transform="translate(29.916 52.351)"/>
          <ellipse id="Ellipse_89" data-name="Ellipse 89" class="cls-4" cx="1.02" cy="0.982" rx="1.02" ry="0.982" transform="translate(153.583 247.171) rotate(-88.69)"/>
          <path id="Path_1548" data-name="Path 1548" class="cls-5" d="M123.969,188.538s-.113,3.286-.227,3.437-.264.3-.6,0a25.337,25.337,0,0,1-1.662-2.644" transform="translate(30.645 52.58)"/>
          <path id="Path_1549" data-name="Path 1549" class="cls-5" d="M123.947,188.538a33.33,33.33,0,0,0-.113,3.437c.113.151.227.3.6.038a23.984,23.984,0,0,0,1.926-2.455" transform="translate(31.384 52.58)"/>
          <path id="Path_1550" data-name="Path 1550" class="cls-5" d="M126.793,190a32.065,32.065,0,0,0-2.191,2.568c-.038.227,0,.415.415.453a26.75,26.75,0,0,0,2.946-.529" transform="translate(31.635 53.044)"/>
          <path id="Path_1551" data-name="Path 1551" class="cls-5" d="M127.952,193.048a22.337,22.337,0,0,0-3.248-.113c-.189.151-.3.227-.038.642a23.182,23.182,0,0,0,2.266,2.039" transform="translate(31.609 53.962)"/>
          <path id="Path_1552" data-name="Path 1552" class="cls-5" d="M124.488,198.679a4.885,4.885,0,0,0,4.872-4.985,4.952,4.952,0,0,0-4.645-5.212,5.112,5.112,0,0,0-.227,10.2" transform="translate(30.125 52.561)"/>
          <path id="Path_1553" data-name="Path 1553" class="cls-5" d="M129.954,192.954a5.429,5.429,0,0,0-5.363-5.816,5.288,5.288,0,0,0-2.342.34" transform="translate(30.891 52.129)"/>
          <path id="Path_1554" data-name="Path 1554" class="cls-4" d="M123.614,186.667l-.038.944a9.858,9.858,0,0,0-2.115,1.322,6.47,6.47,0,0,0-1.775,2.379l-.3.793.3-6.118a4.615,4.615,0,0,0,1.7.491A16.558,16.558,0,0,0,123.614,186.667Z" transform="translate(29.98 51.769)"/>
          <path id="Path_1555" data-name="Path 1555" class="cls-5" d="M121.326,189.684a29.365,29.365,0,0,1,1.888,2.53c.076.189-.076.793-.529.793a23.405,23.405,0,0,1-2.757-.718" transform="translate(30.153 52.944)"/>
          <path id="Path_1556" data-name="Path 1556" class="cls-5" d="M120.817,195.407a20.26,20.26,0,0,1,2.3-1.624c.227,0,.378.038.34.529a20.069,20.069,0,0,1-.718,2.417" transform="translate(30.435 54.246)"/>
          <path id="Path_1557" data-name="Path 1557" class="cls-5" d="M123.31,196.8a19.909,19.909,0,0,1,.453-2.757c.151-.113.3-.227.6.113a22.025,22.025,0,0,1,1.246,2.191" transform="translate(31.227 54.292)"/>
          <path id="Path_1558" data-name="Path 1558" class="cls-5" d="M119.871,192.605a18.6,18.6,0,0,1,2.795.189c.151.151.264.264-.038.642a15.018,15.018,0,0,1-2.089,1.435" transform="translate(30.135 53.872)"/>
          <path id="Path_1559" data-name="Path 1559" class="cls-3" d="M72.136,67.887a83.494,83.494,0,0,1-10.541-3.46,13.946,13.946,0,0,0-4.891-.676,16.641,16.641,0,0,1,10.322,1.261.639.639,0,0,1,.181.076c.827.378,3.358,1.888,4.883,2.67l.287.147a1.2,1.2,0,0,1-.242-.019Z" transform="translate(10.064 12.829)"/>
          <path id="Path_1560" data-name="Path 1560" class="cls-3" d="M51.353,141.98l-1.511-3.743v-.487s1.039-.457,2.406-1.046h0c1.209-.461,2.644-1.039,3.943-1.673h.03c1.069-.438,1.953-.789,2.319-.9,1.265-.378,1.669,0,1.669,0s1.888,2.519,2.266,2.927a1.156,1.156,0,0,1,.287.71,1.039,1.039,0,0,1-.068.487,2.18,2.18,0,0,1-1.2.472c-.317,0-1.511,1.246-1.726,1.288s-1.42-.378-1.8-.378a1.949,1.949,0,0,0-.7.295c-.151.091-.313.189-.468.295a4.572,4.572,0,0,0-.846.684c-.253.329-1.511.178-1.983.019s-1.386.725-1.45,1.069-.91.378-.91.378Z" transform="translate(7.884 35.241)"/>
          <path id="Path_1561" data-name="Path 1561" class="cls-3" d="M72.346,77.173l.053-2.221.117.684.106.638.125,2.848L76.8,113.6c-1.756.11-3.4.264-4.838.431l.317-5.79.344-6.27.094-7.4V93.266l.026-8.815-.449-5.288Z" transform="translate(14.912 16.49)"/>
          <path id="Path_1562" data-name="Path 1562" class="cls-3" d="M51.027,149.451l-.159-.159.159-.6,4.249,1.133-1.039,2.455Z" transform="translate(8.21 39.92)"/>
          <path id="Path_1563" data-name="Path 1563" class="cls-3" d="M130.632,102.886l-3.871,7.085-3.652,19.337a23.216,23.216,0,0,0-7.07-1.042l2.7-18.276-1.326-7.3h8.215Z" transform="translate(28.917 25.301)"/>
          <path id="Path_1564" data-name="Path 1564" class="cls-3" d="M71.42,66.466a10.574,10.574,0,0,1,.2,2.266,1.231,1.231,0,0,1-1.6,1.133.756.756,0,0,1-.174-.068l-.287-.147c-1.511-.782-4.056-2.266-4.883-2.67a12.368,12.368,0,0,0,3.071-3.361c.023-.042.045-.083.064-.125a3.4,3.4,0,0,0,.412-1.469c.049-2.361.23-4.532.23-4.532.608,1.594,1.613,4.007,2.33,6.387a25.334,25.334,0,0,1,.638,2.587Z" transform="translate(12.597 10.942)"/>
          <path id="Path_1565" data-name="Path 1565" class="cls-3" d="M72.487,76.107l-.106-.638h.042l9.367,24.738s2.927,6.912,5.363,13.094c-2.153-.03-4.57-.042-6.987,0-1.2.023-2.372.072-3.5.14L72.612,78.962Z" transform="translate(15.046 16.653)"/>
          <path id="Path_1566" data-name="Path 1566" class="cls-3" d="M79.586,140.177l-1.439,15.145-1.492.567,1.258-15.251-.015-.064Z" transform="translate(16.404 37.214)"/>
          <path id="Path_1567" data-name="Path 1567" class="cls-3" d="M49.984,138.512s1.227-.4,2.863-1.016h0l.057-.023c-1.367.589-2.406,1.046-2.406,1.046v.487l1.511,3.743.283.378s.85-.03.91-.378.978-1.227,1.45-1.069,1.73.31,1.983-.019a4.573,4.573,0,0,1,.846-.684c.155-.106.317-.2.468-.295a1.949,1.949,0,0,1,.7-.295c.378,0,1.575.415,1.8.378s1.428-1.28,1.734-1.28a2.216,2.216,0,0,0,1.2-.472,1.039,1.039,0,0,0,.068-.487h.026a17.774,17.774,0,0,0,6.674-3.071c1.858-1.386,5.8-2.712,8.09-3.4,1.039-.313,1.734-.5,1.734-.5l-.117,1.4-.57,6.84-.166,3.165.944.14L78.62,157.46l-.884.48v.431l-.212.227-19.284-1.59,2.768-.453,1.016-2.338-.132-.245-3.833-7.131-.378-.208-3.463-1.858-.88.283-1.888-2.047.344-.536-1.416-3.241-1.541.691-1.08-1.571c.54.1.861.144.861.144Z" transform="translate(7.221 34.475)"/>
          <path id="Path_1568" data-name="Path 1568" class="cls-3" d="M66.6,27.975S59.516,23.82,53.19,24.292A9.9,9.9,0,0,0,48.839,25.5l-1.375,1.061h0c-1.79,1.779-2.742,4.6-4,8.494l-.933,3.777a143.617,143.617,0,0,0-1.805,17.638s0,1.114.106,2.6h0v.548a.128.128,0,0,1,0,.038c.038.593.087,1.227.144,1.862.238,2.527.967,6.3.967,6.3s.147.687.355,1.624v.091c.378,1.786.956,4.411,1.1,5.038a36.2,36.2,0,0,1,.589,9.6c-.238,5.733-.567,10.6-.567,10.6s.038,1.756.264,4.185a42.282,42.282,0,0,0,1.764,9.317C47.31,113.739,51.8,125.4,51.8,125.4l5.593,11.259s1.605,2.716,3.588,6.964,3.422,8.264,3.422,8.264a29.891,29.891,0,0,1,1.669,6.413c.068.5.117.971.151,1.4A11.7,11.7,0,0,1,66,163.68a9.332,9.332,0,0,1-1.329,2.6,10.144,10.144,0,0,1-2.447,2.455,18.914,18.914,0,0,1-2.644,1.484h-.03c-1.239.514-2.719,1.133-3.943,1.673h0l-.057.023h0c-1.635.616-2.863,1.016-2.863,1.016H51.3l-.661-.967s6.587-1.11,9.937-4.011,3.588-3.588,3.588-3.588A10.454,10.454,0,0,0,64.732,159a39.565,39.565,0,0,0-2.927-9.465c-1.3-3.067-4.2-9.461-4.2-9.461l-3.871-7.206-4.959-10.741s-3.917-10.855-4.177-11.92-2.478-9.231-2.527-13.053.521-11.708.521-11.708.094-7.41-.261-8.732-1.11-4.747-1.273-5.386-1.3-7.86-1.3-7.86-.676-6.069-.378-7.437a129.607,129.607,0,0,1,1.73-17.468l.823-3.535c.144-.5.295-.974.453-1.42,1.175-3.293,2.149-5.76,3.622-7.471s3.535-2.712,6.825-2.95c6.511-.472,12.637,3.671,12.637,3.671s.99.174,2.444,2.349C67.093,28.118,66.6,27.975,66.6,27.975Z" transform="translate(4.536 0.032)"/>
          <path id="Path_1569" data-name="Path 1569" class="cls-3" d="M73.306,104.758c1.439-.166,3.082-.321,4.838-.431,1.133-.068,2.3-.117,3.5-.14,2.417-.042,4.834-.03,6.987,0,1.586.023,3.021.057,4.234.091l.676.023c.918.026,1.654.057,2.149.076s.925.057,1.386.117l7.928,1s-3.233.491-4.177.725a21.959,21.959,0,0,1-3.543.189l-2.776-.155-.714-.038c-1.333-.076-2.908-.166-4.449-.261h0c-2.323-.136-4.578-.276-5.843-.378-1.054-.083-3.059-.1-5.314-.079-1.605,0-3.339.034-4.951.068-2.376.045-4.483.1-5.514.132v-.132S69.953,105.136,73.306,104.758Z" transform="translate(13.566 25.77)"/>
          <path id="Path_1570" data-name="Path 1570" class="cls-3" d="M73.425,152.1l-8.075,2.908a4.071,4.071,0,0,0-1.7,2.021l-2.308,5.6-1.322-.378a57.357,57.357,0,0,1,2.833-6.643,3.716,3.716,0,0,1,1.934-1.616L70.5,152.1Z" transform="translate(11.117 41.002)"/>
          <path id="Path_1571" data-name="Path 1571" class="cls-3" d="M79.353,91.106l0,1.322-.094,7.395-.344,6.27L66,99.162,55.616,109.737,51.083,94.252,63.8,81.717l15.232,9.389Z" transform="translate(8.278 18.639)"/>
          <path id="Path_1572" data-name="Path 1572" class="cls-3" d="M56.858,143.2l3.833,7.119-.34.181-4.91,1.2-.378-.064s-2.3-5.412-2.8-6.39a3.536,3.536,0,0,0-.457-.718c-.166-.178-.234-.132-.234-.132l-.034-.019h.631l4.124-1.039.181-.332Z" transform="translate(8.422 38.113)"/>
          <path id="Path_1573" data-name="Path 1573" class="cls-3" d="M83.935,111.35l.925-2.266v-.019h1.05c.344,1,.6,1.817.736,2.364H84.056Z" transform="translate(18.717 27.328)"/>
          <path id="Path_1574" data-name="Path 1574" class="cls-3" d="M42.018,133.744,41.7,132.66l.378-.11a13.793,13.793,0,0,1,3.021,3.682c.076.162.159.34.245.533.9,2.021,2.349,5.609,4.506,7.335a46.7,46.7,0,0,0,5.412,3.6l.034.019s.068-.045.234.132L55.4,148c0,.128-2.141,2.867-2.141,2.867l-2.391-1.2a10.5,10.5,0,0,1-2.674-1.983,31.457,31.457,0,0,1-5.352-8.09c-1.73-3.743-3-3.954-3-3.954l-.049-.514,1.107-.691Z" transform="translate(4.691 34.791)"/>
          <path id="Path_1575" data-name="Path 1575" class="cls-3" d="M46.5,65.027c.181,1.326.113,1.292.057,1.133l-.121.064a26.37,26.37,0,0,0-4.468-5.344V60.79c-.144-.808-1.231-6.964-1.465-9.79a.128.128,0,0,0,0-.038v-.544c.159.1,4.087,2.761,5.322,10.046.038.215.072.419.106.619V61.1a19.531,19.531,0,0,0,.616,3.9h0Z" transform="translate(4.916 8.694)"/>
          <path id="Path_1576" data-name="Path 1576" class="cls-3" d="M59.652,146.474l-.181.332-4.124,1.039h-.631a46.706,46.706,0,0,1-5.412-3.6c-2.157-1.726-3.6-5.314-4.506-7.335-.087-.193-.17-.378-.245-.533A13.792,13.792,0,0,0,41.53,132.7l1.239-.431h.03l.54-.125a4.291,4.291,0,0,1,2.942.468c1.575.974,3.452,5.6,3.452,5.6l1.08,1.545.412,1.764,1.069,1.635,1.133-.313,1.888,2.047.88-.283Z" transform="translate(5.243 34.634)"/>
          <path id="Path_1577" data-name="Path 1577" class="cls-3" d="M127.313,122.1a23.216,23.216,0,0,1,7.07,1.031l1.159.276a18.87,18.87,0,0,1,8.309,6.8,9.82,9.82,0,0,1,1.012,1.582l.491.687-.4-.14c-4.781-1.571-13.91-2.455-25.241-1.382s-20.9,1.888-20.9,1.888a18.319,18.319,0,0,1-2.481-.253,28.84,28.84,0,0,0-4.105.212l-5.571.215-6.1-.049.117-1.073,12.6-1.19s5.412-.446,6.356-.695,7.554-2.806,7.554-2.806,7.429-4.1,14.227-4.74C123.887,122.242,125.753,122.117,127.313,122.1Z" transform="translate(17.643 31.469)"/>
          <path id="Path_1578" data-name="Path 1578" class="cls-3" d="M49.695,62.9c-1.688.14-3.12.227-3.12.227s-1.224.159-1.469-1.511a3.545,3.545,0,0,1-.042-.476L47.387,52.6l.174,3.339a12.5,12.5,0,0,0,.627,2.942c.242.623.631,1.669,1.08,2.87C49.4,62.121,49.548,62.506,49.695,62.9Z" transform="translate(6.366 9.387)"/>
          <path id="Path_1579" data-name="Path 1579" class="cls-3" d="M60.6,159.492l1.292.755h.026l-.053.208s-2.005,3.233-2.145,3.671-.755.672-1.027.838-.31.506-.378.922-.7.778-.888.978-.34.423-.317,1.3,1.771,1.65,1.771,1.65a1.854,1.854,0,0,0,1.484-.083h0l.06.1a1.277,1.277,0,0,1-.415.378,1.707,1.707,0,0,1-.982,0,.423.423,0,0,0-.495.132c-.106.128-.661,0-.755-.144s-.861-.329-.861-.329a4.751,4.751,0,0,1-1.25-1.783c-.344-1,1.133-2.776,1.133-2.776Z" transform="translate(9.718 43.351)"/>
          <path id="Path_1580" data-name="Path 1580" class="cls-3" d="M41.219,142.7l.381,3.954-.974,4.5H38.012l-1.635-4.279-.268-3.977-.045-.684-.6-1.73v-.85l2.266-7.773L36.6,119.161v-.008l.861-3.985v0l1.027-4.766,2.036-.06,1.711,8.781,1.031,12.871-2.308,7.954v0l.215,2.24Z" transform="translate(3.315 27.733)"/>
          <path id="Path_1581" data-name="Path 1581" class="cls-3" d="M42,108.977l-.261.219-1.858,1.575-2.036.06-.378-1.635Z" transform="translate(3.953 27.3)"/>
          <path id="Path_1582" data-name="Path 1582" class="cls-3" d="M67.12,53.947h-.193a7.952,7.952,0,0,0-3.4-5.775c1.258-.691,1.635-1.382,1.888-1.069S66.621,48.852,67.12,53.947Z" transform="translate(12.233 7.616)"/>
          <path id="Path_1583" data-name="Path 1583" class="cls-3" d="M60.868,125.889c-3.818-8.872-8.585-21.041-9.242-23.065-.691-2.138-2.421-9.472-3.7-16.743-.491-2.8-.869-5.235-1.133-7.176.117.31,3.928,10.3,5.665,16.24l4.532,15.485,2.58,10.118Z" transform="translate(6.916 17.745)"/>
          <path id="Path_1584" data-name="Path 1584" class="cls-3" d="M50.116,137.374l1.416,3.241-.344.536-1.133.313-1.069-1.635-.412-1.764Z" transform="translate(7.482 36.323)"/>
          <path id="Path_1585" data-name="Path 1585" class="cls-3" d="M45.2,59.441c.245,1.666,1.469,1.511,1.469,1.511s1.431-.087,3.12-.227h0c.287.755.585,1.556.88,2.311l-3.626.4a1.96,1.96,0,0,1-1.888-1.277h0c-.079-.582-.208-1.424-.4-2.644Z" transform="translate(6.268 11.561)"/>
          <path id="Path_1586" data-name="Path 1586" class="cls-3" d="M90.5,108.942a64.454,64.454,0,0,1,2.9,6.829c.778,2.833,1.839,11-5.337,15.3-.506.3-.993.589-1.458.854a16.051,16.051,0,0,0,1-1.99c5.8-3.4,5.514-11.708,4.759-14.537a58.854,58.854,0,0,0-2.61-6.421Z" transform="translate(19.564 27.289)"/>
          <path id="Path_1587" data-name="Path 1587" class="cls-3" d="M92.734,115.388c.755,2.833,1.039,11.134-4.759,14.537a26.061,26.061,0,0,0,1.379-4.389c1.261-5.541-1.888-14.1-1.888-14.1h-1.3a24.5,24.5,0,0,0-.736-2.364c1.288-.03,3.078-.068,4.687-.11A56.872,56.872,0,0,1,92.734,115.388Z" transform="translate(19.19 27.295)"/>
          <path id="Path_1588" data-name="Path 1588" class="cls-3" d="M133.454,104.008l-5.012-.2h-8.215l-11.448-.431-1.511-1.439s-.578-2.119.906-2.406,8.985-.378,8.985-.378,14.2.268,15.153.094,15.107.971,15.107.971a1.611,1.611,0,0,1,1.186,1.439c0,1.11-.442,1.416-.442,1.416l-1,1.008a17.967,17.967,0,0,1-2.666,0c-2.549-.064-8.91,0-8.91,0Z" transform="translate(26.096 24.179)"/>
          <path id="Path_1589" data-name="Path 1589" class="cls-3" d="M43.247,119.057l.91,12.841-2.327,8.09.03.11.313,1.084-1.118.695-1.107.691-.215-2.24v0l2.308-7.954L41.012,119.5,39.3,110.718l1.858-1.575Z" transform="translate(4.535 27.353)"/>
          <path id="Path_1590" data-name="Path 1590" class="cls-3" d="M91.733,119.666s.193.4.506,1.054c-1.2-.034-2.644-.068-4.234-.091-2.436-6.183-5.363-13.094-5.363-13.094L73.276,82.8s-1.488-9.442-2.481-14.85c-.208-1.133-.378-2.062-.54-2.712-.85-3.777-.472-12.841-.472-12.841a6.478,6.478,0,0,0,2.077,2.179L81.415,61.3s.725,4.7-.574,15.4c0,0-.533.17,2.787,3.966,2.092,2.391,2.361,3.856,2.266,4.611-.072.215-.147.423-.212.635h0c-4.222,12.705.676,21.811.676,21.811Z" transform="translate(14.193 9.322)"/>
          <path id="Path_1591" data-name="Path 1591" class="cls-3" d="M86.448,126.275c.151,2.213-1.379,4.457-3,6.186h0a25.369,25.369,0,0,1-2.53,2.315l-.208-.023.14-1.326.755-7.078,1.11-10.043,2.266-5.514.121.049C85.964,113.932,86.448,126.275,86.448,126.275Z" transform="translate(17.692 27.878)"/>
          <path id="Path_1592" data-name="Path 1592" class="cls-3" d="M71.391,154.664l1.439-14.352.283.049,6.466.234.272-.064v.064l-1.258,15.251v.121l-.257.038c-2.527.329-7.625-.616-7.625-.616l-.2.2v-.442Z" transform="translate(14.45 37.257)"/>
          <path id="Path_1593" data-name="Path 1593" class="cls-3" d="M46.554,64.846a72.185,72.185,0,0,1,1.227,15.2v.521S46.894,86.008,43,87.8c-.227-2.428-.264-4.185-.264-4.185s.329-4.865.567-10.6a36.18,36.18,0,0,0-.589-9.6c-.14-.627-.706-3.252-1.1-5.038a26.37,26.37,0,0,1,4.468,5.344,5.5,5.5,0,0,1,.472,1.133Z" transform="translate(5.27 11.22)"/>
          <path id="Path_1594" data-name="Path 1594" class="cls-3" d="M41.429,134.9s1.265.211,3,3.954a31.457,31.457,0,0,0,5.352,8.09,10.5,10.5,0,0,0,2.674,1.983l2.391,1.2,1.292,2.957-.159.6-1.888.159-17.12-2.047-.608-.521-1.511-11.176s-.189-3.271,1.322-4.97h.14l.268,3.977,1.635,4.279h2.614l.982-4.525Z" transform="translate(3.117 35.536)"/>
          <path id="Path_1595" data-name="Path 1595" class="cls-3" d="M58.318,113.87c-.567.064-.5.442-.5.442a9.733,9.733,0,0,0-.714,1.337l-2.58-10.118L64.909,94.955l12.909,6.93-.317,5.8c-3.354.378-5.6.82-5.6.82v.132l-.672.019s-6.066.733-7.531,1.11-.755,2.455-.755,2.455l1.582,1.345a2.166,2.166,0,0,0-1.737-.317S58.885,113.806,58.318,113.87Z" transform="translate(9.371 22.845)"/>
          <path id="Path_1596" data-name="Path 1596" class="cls-3" d="M81.08,79.905l-.117-.684-.053,2.221h0L62.52,71.147,47.726,83.864l-.378.567c-.446-3.067-.642-4.861-.642-4.861v-.521a72.185,72.185,0,0,0-1.227-15.2,5.5,5.5,0,0,0-.472-1.133l.121-.064c.057.144.125.178-.057-1.133a1.96,1.96,0,0,0,1.888,1.277l3.626-.4h0c.189.491.378.967.555,1.413h0a12.712,12.712,0,0,0,1.394,2.9c.631.442,2.077-1.258,7.871-2.33a13.946,13.946,0,0,1,4.891.676,84.106,84.106,0,0,0,10.541,3.46,1.2,1.2,0,0,0,.242,0,.755.755,0,0,0,.174.068,1.231,1.231,0,0,0,1.6-1.133,10.575,10.575,0,0,0-.2-2.266l.971-.14c.993,5.4,2.481,14.85,2.481,14.85Z" transform="translate(6.348 12.22)"/>
          <path id="Path_1597" data-name="Path 1597" class="cls-3" d="M70.918,64.856l-.971.14a25.332,25.332,0,0,0-.638-2.576l1.069-.276C70.51,62.786,70.71,63.723,70.918,64.856Z" transform="translate(14.069 12.42)"/>
          <path id="Path_1598" data-name="Path 1598" class="cls-3" d="M80.311,81.092l.449,5.288-.042,8.834H80.4l-15.232-9.4L52.449,98.348c-1.737-5.926-5.548-15.919-5.665-16.24h0l.378-.567L61.956,68.825l18.386,10.3h0Z" transform="translate(6.912 14.543)"/>
          <path id="Path_1599" data-name="Path 1599" class="cls-3" d="M91.533,105.631h0c1.541.094,3.116.185,4.449.261l.714.038,2.776.155a21.518,21.518,0,0,0,3.543-.189c.944-.238,4.2-.725,4.2-.725a1.615,1.615,0,0,1,1.277,1.363c.072,1.11-.355,1.439-.355,1.439l-.967,1.088a38.48,38.48,0,0,1-6.254,1.012c-.563.023-1.329.045-2.191.068l-.755.023c-1.609.042-3.4.079-4.687.11H91.473l-1.329.026-6.13.113-3.554-.019-4.827-.026-.117.03h-.6l-7.742-.045-3.845-.034h-.786l-1.594-1.348s-.706-2.077.755-2.455,7.531-1.11,7.531-1.11l.672-.019c1.031-.03,3.139-.087,5.514-.132,1.613-.034,3.346-.06,4.951-.068,2.266-.019,4.26,0,5.314.079C86.956,105.355,89.211,105.5,91.533,105.631Z" transform="translate(11.36 26.091)"/>
          <path id="Path_1600" data-name="Path 1600" class="cls-3" d="M73,134.051,75.718,139l-.465.147c-2.055.627-10.39,3.044-14.454,2.055a32.48,32.48,0,0,0,2.7-10.7c.506-6.232-.755-16.18-1.824-17.438s-1.575-2.957-4.657-3.146c0,0-.064-.378.5-.442s4.468-.631,4.468-.631a2.166,2.166,0,0,1,1.737.317,4.182,4.182,0,0,0,.48.329c1.133.68,3.448,1.749,3.448,1.749s3.086,2.2,3.588,10.889l.483,7.554A10.42,10.42,0,0,0,73,134.051Z" transform="translate(10.165 27.239)"/>
          <path id="Path_1601" data-name="Path 1601" class="cls-3" d="M36.851,147.845l.03,2.583a10.39,10.39,0,0,1-1.722-2.364l1.092-.755h0Z" transform="translate(3.219 39.48)"/>
          <path id="Path_1602" data-name="Path 1602" class="cls-3" d="M41.795,140.072l-.378.11-.03-.11,2.334-8.09-.91-12.841L40.7,109.227l.261-.219.914-.128,2.8,9.948,2.3,19.889-3.4.793a3.83,3.83,0,0,0-.54.125H43Z" transform="translate(4.979 27.269)"/>
          <path id="Path_1603" data-name="Path 1603" class="cls-3" d="M62.91,160.407l-1.069,4.974a1.182,1.182,0,0,0-.5.82,2.44,2.44,0,0,1-.272,1.1,2.833,2.833,0,0,0-.261.993,1.545,1.545,0,0,1-.8,1.261h0a1.854,1.854,0,0,1-1.484.083s-1.749-.778-1.771-1.65.128-1.1.317-1.3.816-.567.888-.978.117-.755.378-.922.884-.4,1.027-.838,2.145-3.671,2.145-3.671l.053-.208Z" transform="translate(10.078 43.536)"/>
          <path id="Path_1604" data-name="Path 1604" class="cls-3" d="M50.009,147.188s2.141-2.738,2.141-2.867l.14-.151a3.535,3.535,0,0,1,.457.718c.506.978,2.8,6.39,2.8,6.39L51.3,150.145Z" transform="translate(7.937 38.482)"/>
          <path id="Path_1605" data-name="Path 1605" class="cls-3" d="M38.032,110.777,37,115.544c-.049-.589-.087-1.073-.113-1.428h0l.755-4.97Z" transform="translate(3.768 27.354)"/>
          <path id="Path_1606" data-name="Path 1606" class="cls-3" d="M59.819,131.792c-.189,1.227,1.718,2.107,1.718,2.107,4.064.99,12.4-1.428,14.454-2.055l.038.132c-2.266.691-6.232,2.017-8.09,3.4a17.774,17.774,0,0,1-6.674,3.071h-.026a1.156,1.156,0,0,0-.287-.71c-.378-.408-2.266-2.927-2.266-2.927s-.4-.378-1.669,0c-.378.106-1.25.457-2.319.9a18.914,18.914,0,0,0,2.644-1.484,10.145,10.145,0,0,0,2.447-2.455Z" transform="translate(9.427 34.541)"/>
          <path id="Path_1607" data-name="Path 1607" class="cls-3" d="M69.4,158.382l1.25-6.179h.212v-.242l.215-.23s5.1.944,7.625.616l.257-.038.355,6.908v.635a34.793,34.793,0,0,1-5.745-.189,30.65,30.65,0,0,1-3.917-.634Z" transform="translate(14.099 40.885)"/>
          <path id="Path_1608" data-name="Path 1608" class="cls-3" d="M58.821,152.6H54.6l-18.129-2.3-.03-2.583,17.12,2.047,1.888-.159.159.159Z" transform="translate(3.627 39.609)"/>
          <path id="Path_1609" data-name="Path 1609" class="cls-3" d="M145.383,130.456c4.419,1.575,5.08,3.943,5.325,7.856a17.283,17.283,0,0,1-2.644,10.511c-1.7,2.327-6.421,2.9-6.421,2.9l-10.511,3.652c-8.751,2.455-9.382,4.343-16.618,6.232s-8.562.249-8.562.249h2.266a42.46,42.46,0,0,0,6.02-1.533s2.289-1.227,2.1-2.5a47.844,47.844,0,0,1,1.088-6.232c1.133-5.616-1.786-7.98-1.786-7.98s-.906-1.273-4.351-2.878-15.844-2.417-15.844-2.417c-8.687-5.858-14.892-6.364-14.892-6.364h-.087l.087-.823v-.159l6.1.049,5.571-.215a28.838,28.838,0,0,1,4.105-.212,18.316,18.316,0,0,0,2.481.253s9.567-.82,20.9-1.888,20.459-.189,25.241,1.382Z" transform="translate(17.615 33.498)"/>
          <path id="Path_1610" data-name="Path 1610" class="cls-3" d="M61.846,112.789c1.069,1.258,2.33,11.206,1.824,17.438a32.48,32.48,0,0,1-2.685,10.7s-1.888-.88-1.718-2.107l-.03-.023a9.333,9.333,0,0,0,1.329-2.6,11.65,11.65,0,0,0,.219-3.981H60.9s1.447-5.665-2.455-14.6c-.211-.483-.427-.978-.642-1.484l-1.311-5.14a9.73,9.73,0,0,1,.714-1.337C60.271,109.831,60.778,111.531,61.846,112.789Z" transform="translate(9.998 27.514)"/>
          <path id="Path_1611" data-name="Path 1611" class="cls-3" d="M45.8,67.846s.038.714.121,1.65c-.034-.2-.068-.4-.106-.619-1.235-7.285-5.163-9.944-5.322-10.027h0c-.087-1.488-.106-2.6-.106-2.6A139.635,139.635,0,0,1,42.189,38.61l.933-3.777c1.258-3.932,2.209-6.757,4-8.551h0L48.5,25.236a9.9,9.9,0,0,1,4.351-1.209c6.326-.472,13.408,3.682,13.408,3.682s.495.144,1.311,1.265a.178.178,0,0,0,.023.034,12.006,12.006,0,0,1,.669,1.054L75.833,53.5l-.087.026c0,.045.03,1,.045,1.042a29.63,29.63,0,0,0,3.3,6.844s-.378,9.064.472,12.841l-1.069.276c-.718-2.379-1.722-4.793-2.33-6.387l-.181-.487A26.877,26.877,0,0,1,74.6,62.808c-.038-.551-.079-1.065-.128-1.549-.5-5.095-1.465-6.538-1.7-6.825s-.631.378-1.888,1.069a4.294,4.294,0,0,1-1.1.4h-.03a8.989,8.989,0,0,1-1.511.2,21.091,21.091,0,0,1-3.259-.1c-.638-.064-1.19-.125-1.76-.219a32.135,32.135,0,0,1-6.266-1.953l-1.431-.529h0l-.653-.257h0C52.2,52,50.816,51.406,50.03,51.073a2.959,2.959,0,0,0-1.167-.378c-.087,0-.144.306-.178.816,0,.185-.023.378-.03.627h0c-.034,1.114,0,2.727.026,4.294h0a.755.755,0,0,0-.049.136Z" transform="translate(4.879 0.297)"/>
          <path id="Path_1612" data-name="Path 1612" class="cls-3" d="M78.83,151.68l.049,1.352L79,156.14l1.605-.423.283,1.771s.616.4-1.96,1.084a.638.638,0,0,1-.1.755,1.575,1.575,0,0,1-.706.378,5.168,5.168,0,0,1-1.1.189v-.634l-.363-6.866c2.232-.329,1.771-.835,1.771-.835Z" transform="translate(16.404 40.83)"/>
          <path id="Path_1613" data-name="Path 1613" class="cls-3" d="M78.429,158.041s.461.506-1.771.835v-.1l1.492-.567,1.439-15.145.846-.2L81.7,131.1h.087s6.2.506,14.892,6.364a41.845,41.845,0,0,1,9.82,8.173c4.007,4.815,7.433,8.785,7.433,8.785l1.605,2.784-.072,2.266a42.985,42.985,0,0,1-6.02,1.533h-2.266L79.2,159.492H78.89l-.049-1.352Z" transform="translate(16.404 34.329)"/>
          <path id="Path_1614" data-name="Path 1614" class="cls-3" d="M46.688,49.794c-.038-1.567-.06-3.18-.026-4.294h0a4.028,4.028,0,0,1,.03-.627,19.138,19.138,0,0,1,.918,3.735c.125.755.238,1.616.321,2.587h0c.083.967.14,2.043.147,3.222a23.892,23.892,0,0,0,.71,4.574c.1.332.227.793.378,1.333.347,1.345.782,3.2,1.091,4.929.147.838.268,1.647.336,2.353a9.715,9.715,0,0,1,.049,1.469c-.181-.446-.378-.922-.555-1.413h0c-.295-.755-.593-1.549-.88-2.311h0c-.147-.378-.291-.774-.427-1.133-.449-1.2-.838-2.247-1.08-2.87a12.5,12.5,0,0,1-.627-2.942L46.9,55.066h0l-.026-.487c-.023-.585-.113-2.644-.17-4.763Z" transform="translate(6.868 6.932)"/>
          <path id="Path_1615" data-name="Path 1615" class="cls-3" d="M44.824,62.957c-.064-.378-.132-.8-.212-1.265v-.019c-.083-.937-.121-1.65-.121-1.65l2.833-11.274a.756.756,0,0,1,.049-.136c.057,2.134.147,4.177.17,4.763l.026.487h0L45.247,62.4a3.548,3.548,0,0,0,.042.476Z" transform="translate(6.184 8.12)"/>
          <path id="Path_1616" data-name="Path 1616" class="cls-3" d="M80.934,134.769a25.37,25.37,0,0,0,2.53-2.315h0c1.62-1.73,3.15-3.973,3-6.186,0,0-.483-12.343-1.367-15.425h3.883s3.15,8.562,1.888,14.1a26.059,26.059,0,0,1-1.379,4.389,16.052,16.052,0,0,1-1,1.99,7.03,7.03,0,0,1-.835,1.175,17.065,17.065,0,0,1-4.192,2.243c-.227.087-.461.166-.7.242a14.111,14.111,0,0,1-2.126.5l.057-.529.023-.2Z" transform="translate(17.669 27.893)"/>
          <path id="Path_1617" data-name="Path 1617" class="cls-3" d="M36.6,134.949l.045.684H36.5c-1.511,1.7-1.322,4.97-1.322,4.97l1.511,11.176h0l-1.092.755h0c-.068-.128-.1-.2-.1-.2s-1.133-6.043-1.654-11.659S36,133.216,36,133.216Z" transform="translate(2.78 35.002)"/>
          <path id="Path_1618" data-name="Path 1618" class="cls-3" d="M112.039,141.231s2.919,2.361,1.786,7.98a48,48,0,0,0-1.088,6.232c.189,1.273-2.1,2.5-2.1,2.5l.072-2.266-1.605-2.784s-3.422-3.969-7.433-8.785a41.928,41.928,0,0,0-9.82-8.173s12.4.812,15.844,2.417S112.039,141.231,112.039,141.231Z" transform="translate(21.232 35.866)"/>
          <path id="Path_1619" data-name="Path 1619" class="cls-3" d="M92.666,120.534s.415.831,1.039,2.111l-.676-.023c-.313-.657-.506-1.054-.506-1.054l-5.378-11.942s-4.91-9.106-.676-21.811h0a1.326,1.326,0,0,0,.212-.635h0c.287-.8.608-1.62.971-2.455,6.232-14.307-2.738-19.594-2.738-19.594L82.2,63.221h0l-9.555-6.727a6.318,6.318,0,0,1-2.077-2.179,29.629,29.629,0,0,1-3.3-6.844c0-.042-.03-1-.045-1.042L67.3,46.4l.378,1.156c2.833,6.677,5.435,7.863,5.435,7.863l12.705,9.521s9.1,6.27,2.972,19.028c-6.8,14.133-1.182,24.644-1.182,24.644Z" transform="translate(13.404 7.418)"/>
          <path id="Path_1620" data-name="Path 1620" class="cls-3" d="M60.223,148.812l-1.008,2.361-2.768.453a13.906,13.906,0,0,1-3.021.71l1.039-2.455.378.064,4.91-1.2.34-.181Z" transform="translate(9.022 39.879)"/>
          <path id="Path_1621" data-name="Path 1621" class="cls-3" d="M45.615,166.025l3.4-.793-2.3-19.889-2.8-9.948-.914.128-4.532.219-.755,4.97-.053-.691a7.3,7.3,0,0,1-.064-3.588,47.792,47.792,0,0,0,.82-12.275c-.317-5.914-.884-11.077-.884-11.077S36.905,105.4,35.9,94.072,34.261,76.7,34.386,73.8s1.575-11.455,1.575-11.455S39.609,46.356,40.89,39.12a29.486,29.486,0,0,1,5.182-12.158l1.511-1.511c-1.473,1.711-2.447,4.177-3.622,7.471-.159.446-.31.922-.453,1.42l-.823,3.535a129.607,129.607,0,0,0-1.73,17.468c-.291,1.367.378,7.437.378,7.437s1.133,7.225,1.3,7.86.918,4.064,1.273,5.386.261,8.732.261,8.732-.567,7.886-.521,11.708,2.266,11.991,2.527,13.053,4.177,11.92,4.177,11.92l4.959,10.741,3.871,7.206s2.9,6.39,4.2,9.461a39.788,39.788,0,0,1,2.927,9.465,10.454,10.454,0,0,1-.567,5.359s-.234.684-3.588,3.588-9.937,4.011-9.937,4.011l.661.967s-.321-.045-.861-.144c0,0-1.888-4.623-3.452-5.6a4.29,4.29,0,0,0-2.946-.472Z" transform="translate(2.968 0.761)"/>
          <path id="Path_1622" data-name="Path 1622" class="cls-3" d="M86.725,109.091l-3.6,7.9-1.341,11.6-2.534,21.921-6.466-.234-.283-.049-.944-.14.166-3.165.57-6.84.117-1.4,1.575-18.8.193-2.293-2.077-8.4.117-.03,4.827.026,3.554.019Z" transform="translate(14.783 27.337)"/>
          <path id="Path_1623" data-name="Path 1623" class="cls-3" d="M53.53,46.87h0a18.473,18.473,0,0,1,2.644,3.811h0a57.468,57.468,0,0,1,4.389,10.107s1.447,6.107-.691,9.064c-5.775,1.065-7.221,2.765-7.852,2.323a13.255,13.255,0,0,1-1.394-2.9h0a9.715,9.715,0,0,0-.049-1.469c-.068-.706-.189-1.511-.336-2.353-.31-1.73-.755-3.584-1.091-4.929-.144-.54-.268-1-.378-1.333a23.891,23.891,0,0,1-.71-4.574c0-1.178-.064-2.266-.147-3.222h0c-.083-.971-.2-1.836-.321-2.587a19.137,19.137,0,0,0-.918-3.735c.034-.51.091-.816.178-.816a3.393,3.393,0,0,1,1.167.378c.729.3,2.172.929,4.846,1.983h0Z" transform="translate(6.878 6.736)"/>
          <path id="Path_1624" data-name="Path 1624" class="cls-3" d="M75.291,138.695s-.695.185-1.734.5l-.038-.132.465-.147-2.719-4.948A10.42,10.42,0,0,1,70,129.6l-.483-7.554c-.5-8.687-3.588-10.889-3.588-10.889s-2.319-1.069-3.448-1.749l.306-.321,3.845.034,7.758.072h.6l2.077,8.4-.193,2.293Z" transform="translate(11.898 27.336)"/>
          <path id="Path_1625" data-name="Path 1625" class="cls-3" d="M65,141.756a29.89,29.89,0,0,0-1.628-6.394s-1.439-4.015-3.422-8.264-3.588-6.964-3.588-6.964l-5.593-11.259s-4.487-11.659-6.353-17.113a42.808,42.808,0,0,1-1.764-9.317c3.9-1.79,4.785-7.229,4.785-7.229s.2,1.794.642,4.861h0c.279,1.93.657,4.362,1.133,7.176,1.277,7.27,3.021,14.6,3.7,16.743.657,2.024,5.424,14.193,9.242,23.065.215.506.431,1,.642,1.484,3.9,8.94,2.455,14.6,2.455,14.6h-.117A10.844,10.844,0,0,0,65,141.756Z" transform="translate(5.601 16.573)"/>
          <path id="Path_1626" data-name="Path 1626" class="cls-3" d="M83.218,83.121c.091-.755-.178-2.221-2.266-4.611-3.32-3.777-2.787-3.966-2.787-3.966,1.3-10.7.574-15.4.574-15.4h0l2.716,1.911s8.97,5.288,2.738,19.594c-.378.835-.684,1.65-.971,2.455h0Z" transform="translate(16.873 11.467)"/>
          <path id="Path_1627" data-name="Path 1627" class="cls-3" d="M72.513,61.077s-.181,2.157-.23,4.532a3.4,3.4,0,0,1-.412,1.469c0,.042-.042.083-.064.125a12.368,12.368,0,0,1-3.071,3.361c-.076-.034-.136-.06-.181-.076a16.641,16.641,0,0,0-10.322-1.261c2.138-2.942.691-9.064.691-9.064a57.469,57.469,0,0,0-4.389-10.107h0a20.032,20.032,0,0,0-2.644-3.811l1.413.544a32.134,32.134,0,0,0,6.266,1.953c.57.094,1.133.155,1.76.219a21.09,21.09,0,0,0,3.259.1,8.988,8.988,0,0,0,1.511-.2h.03a4.294,4.294,0,0,0,1.1-.4,7.977,7.977,0,0,1,3.4,5.775h.193c.049.483.091,1,.128,1.549a26.876,26.876,0,0,0,1.386,4.846Z" transform="translate(8.535 7.368)"/>
          <path id="Path_1628" data-name="Path 1628" class="cls-3" d="M86.191,109.071h.755v.019l-.925,2.266-2.266,5.514-1.091,10.035-.755,7.078-.14,1.326-.023.2-.057.529-.117,1.073h0v.159l-.087.823-1.261,11.765-.846.2-1.688.4-.272.064,2.534-21.906,1.341-11.6,3.6-7.9Z" transform="translate(16.646 27.33)"/>
          <path id="Path_1629" data-name="Path 1629" class="cls-3" d="M131.058,102.92,126.714,110l-4.151,19.538-1.159-.276,3.652-19.337,3.871-7.085Z" transform="translate(30.622 25.35)"/>
          <path id="Path_1630" data-name="Path 1630" class="cls-5" d="M61.414,162.515l2.311-5.6a4.083,4.083,0,0,1,1.7-2.021h0l8.071-2.908H70.572l-5.711,1.888a3.716,3.716,0,0,0-1.938,1.616,57.357,57.357,0,0,0-2.833,6.643Z" transform="translate(11.141 40.967)"/>
          <path id="Path_1631" data-name="Path 1631" class="cls-5" d="M61.941,160.354s-2.005,3.237-2.149,3.671-.755.672-1.024.838-.31.506-.378.922-.7.778-.888.978-.34.427-.317,1.3,1.771,1.65,1.771,1.65a1.862,1.862,0,0,0,1.484-.079,1.556,1.556,0,0,0,.8-1.265,2.814,2.814,0,0,1,.261-.99,2.474,2.474,0,0,0,.268-1.107,1.182,1.182,0,0,1,.506-.82l1.069-4.97-1.386-.344-1.288-.755L56.865,165.2s-1.462,1.768-1.133,2.772a4.714,4.714,0,0,0,1.25,1.783s.755.178.861.329.65.272.755.143a.431.431,0,0,1,.495-.132,1.741,1.741,0,0,0,.982,0,1.484,1.484,0,0,0,.483-.461" transform="translate(9.74 43.316)"/>
          <path id="Path_1632" data-name="Path 1632" class="cls-5" d="M46.739,25.477c-.064.057-.128.117-.189.181h0c-1.8,1.794-2.742,4.63-4,8.509l-.057.174" transform="translate(5.549 0.769)"/>
          <path id="Path_1633" data-name="Path 1633" class="cls-5" d="M93.1,122.508c-.313-.657-.506-1.054-.506-1.054l-5.378-11.942s-4.91-9.106-.676-21.811h0c.068-.219.144-.431.219-.653h0c.287-.8.608-1.62.971-2.455C93.966,70.267,85,64.98,85,64.98l-2.716-1.888-9.559-6.727a6.318,6.318,0,0,1-2.077-2.179,29.629,29.629,0,0,1-3.3-6.844c0-.042-.03-1-.045-1.042" transform="translate(13.429 7.386)"/>
          <path id="Path_1634" data-name="Path 1634" class="cls-5" d="M82.857,127.131h0" transform="translate(18.374 33.068)"/>
          <line id="Line_324" data-name="Line 324" class="cls-5" x1="0.008" y1="0.083" transform="translate(98.701 162.514)"/>
          <path id="Path_1635" data-name="Path 1635" class="cls-5" d="M89.584,108.848a61.767,61.767,0,0,1,2.61,6.421c.755,2.833,1.039,11.134-4.759,14.537" transform="translate(19.829 27.259)"/>
          <path id="Path_1636" data-name="Path 1636" class="cls-5" d="M90.576,108.83a64.455,64.455,0,0,1,2.9,6.828c.778,2.833,1.839,11-5.337,15.3-.506.3-.993.589-1.458.854" transform="translate(19.588 27.254)"/>
          <path id="Path_1637" data-name="Path 1637" class="cls-5" d="M48.691,136.75s-.321-.045-.861-.144" transform="translate(7.245 36.079)"/>
          <path id="Path_1638" data-name="Path 1638" class="cls-5" d="M47.649,25.334l-1.511,1.511a29.486,29.486,0,0,0-5.2,12.15c-1.28,7.236-4.91,23.227-4.91,23.227s-1.45,8.558-1.575,11.455.5,8.94,1.511,20.27S37.6,112.956,37.6,112.956s.567,5.163.884,11.077a47.792,47.792,0,0,1-.82,12.275,7.3,7.3,0,0,0,.064,3.588l.053.691h0c.026.355.064.838.113,1.428h0" transform="translate(2.988 0.724)"/>
          <line id="Line_325" data-name="Line 325" class="cls-5" y1="0.004" transform="translate(44.368 167.53)"/>
          <path id="Path_1639" data-name="Path 1639" class="cls-5" d="M41.293,143.022l.381,3.954-.974,4.5H38.087L36.451,147.2l-.313-4.661-.6-1.73v-.85l2.266-7.773L36.67,119.482v-.008l-.03-.351.778-5.065v0l.763-4.97,4.532-.219-.261.219-1.858,1.575,1.711,8.781,1.031,12.871-2.308,7.954v0l.215,2.24Z" transform="translate(3.339 27.265)"/>
          <path id="Path_1640" data-name="Path 1640" class="cls-5" d="M39.96,110.606l-2.036.064-.378-1.639" transform="translate(3.977 27.317)"/>
          <line id="Line_326" data-name="Line 326" class="cls-5" y1="8.758" x2="1.888" transform="translate(40.013 137.988)"/>
          <path id="Path_1641" data-name="Path 1641" class="cls-5" d="M41.077,109.031l2.089,9.914.91,12.841-2.327,8.09.344,1.193-1.118.695-1.107.691" transform="translate(4.715 27.317)"/>
          <path id="Path_1642" data-name="Path 1642" class="cls-5" d="M69.857,52.276s-.378,9.064.472,12.841S73.35,82.679,73.35,82.679l9.367,24.738s2.927,6.912,5.363,13.094" transform="translate(14.217 9.284)"/>
          <line id="Line_327" data-name="Line 327" class="cls-5" x1="0.004" transform="translate(102.992 131.575)"/>
          <path id="Path_1643" data-name="Path 1643" class="cls-5" d="M86.25,111.3a20.925,20.925,0,0,0-.755-2.364" transform="translate(19.212 27.286)"/>
          <path id="Path_1644" data-name="Path 1644" class="cls-5" d="M76.873,113.489,72.82,79.01,72.7,76.163l-.219-1.322-.106,4.192.449,5.3-.03,10.137-.094,7.4-.344,6.27-.317,5.79" transform="translate(14.936 16.454)"/>
          <path id="Path_1645" data-name="Path 1645" class="cls-5" d="M65.357,143.042s1.447-5.665-2.455-14.6-9.193-22.412-9.884-24.549-2.425-9.476-3.7-16.746-1.794-12.052-1.794-12.052-.888,5.442-4.789,7.229" transform="translate(5.627 16.534)"/>
          <path id="Path_1646" data-name="Path 1646" class="cls-5" d="M48.223,82.46A72.691,72.691,0,0,0,47,67.258c-.706-2.6-4.94-6.477-4.94-6.477s-1.413-7.863-1.511-10.466c0,0,4.064,2.617,5.325,10.05s.733,5.548.733,5.548" transform="translate(4.93 8.661)"/>
          <path id="Path_1647" data-name="Path 1647" class="cls-5" d="M78.813,59.043s.725,4.695-.574,15.4c0,0-.533.17,2.787,3.966s2.047,5.254,2.047,5.254" transform="translate(16.897 11.434)"/>
          <path id="Path_1648" data-name="Path 1648" class="cls-5" d="M50.836,66.355h0l-3.626.4a1.96,1.96,0,0,1-1.888-1.277h0a19.532,19.532,0,0,1-.616-3.9h0c-.083-.937-.121-1.65-.121-1.65l2.833-11.274a.755.755,0,0,1,.049-.136h0" transform="translate(6.214 8.091)"/>
          <path id="Path_1649" data-name="Path 1649" class="cls-5" d="M47.465,52.485h0l-2.323,8.536C45.206,63.192,46.653,63,46.653,63s1.431-.087,3.12-.227h0" transform="translate(6.391 9.351)"/>
          <path id="Path_1650" data-name="Path 1650" class="cls-5" d="M45.692,60.33s1.575-.094,2.674-.219a.993.993,0,0,0,.8-.676" transform="translate(6.565 11.559)"/>
          <path id="Path_1651" data-name="Path 1651" class="cls-5" d="M80.419,79.008,62.029,68.716,47.239,81.429l-.378.57s3.905,10.216,5.665,16.24" transform="translate(6.937 14.508)"/>
          <path id="Path_1652" data-name="Path 1652" class="cls-5" d="M79.109,90.993,63.874,81.608,51.161,94.139l4.532,15.485" transform="translate(8.303 18.604)"/>
          <path id="Path_1653" data-name="Path 1653" class="cls-5" d="M58.487,120.677l-1.311-5.14L54.6,105.419,64.983,94.844l12.909,6.93" transform="translate(9.395 22.81)"/>
          <line id="Line_328" data-name="Line 328" class="cls-5" x1="0.306" y2="0.321" transform="translate(74.473 136.262)"/>
          <path id="Path_1654" data-name="Path 1654" class="cls-5" d="M108.461,161.741h-2.447s1.322,1.635,8.558-.253,7.871-3.777,16.618-6.232l10.507-3.645s4.721-.567,6.421-2.893a17.322,17.322,0,0,0,2.644-10.515c-.249-4.03-.944-6.421-5.729-7.992s-13.91-2.455-25.24-1.386-20.9,1.888-20.9,1.888a18.277,18.277,0,0,1-2.478-.253,29.3,29.3,0,0,0-4.105.215l-5.571.212-6.115-.049v.4" transform="translate(17.664 33.458)"/>
          <path id="Path_1655" data-name="Path 1655" class="cls-5" d="M112.8,155.331a46.78,46.78,0,0,1,1.084-6.232c1.133-5.616-1.783-7.98-1.783-7.98s-.906-1.273-4.355-2.878-15.84-2.417-15.84-2.417a41.846,41.846,0,0,1,9.82,8.173c4.007,4.815,7.429,8.785,7.429,8.785l1.605,2.784-.072,2.266S113.009,156.6,112.8,155.331Z" transform="translate(21.251 35.83)"/>
          <path id="Path_1656" data-name="Path 1656" class="cls-5" d="M80.622,130.983s6.2.506,14.892,6.364" transform="translate(17.664 34.292)"/>
          <line id="Line_329" data-name="Line 329" class="cls-5" x2="27.982" y2="1.503" transform="translate(95.687 193.703)"/>
          <path id="Path_1657" data-name="Path 1657" class="cls-5" d="M72.559,150.174l6.466.234,1.96-.461.846-.2,1.348-12.588V137l.117-1.073.057-.529.162-1.53.755-7.078,1.11-10.043,3.176-7.784" transform="translate(15.102 27.297)"/>
          <path id="Path_1658" data-name="Path 1658" class="cls-5" d="M77.466,150.408,80,128.488l1.341-11.6,3.614-7.924" transform="translate(16.661 27.297)"/>
          <path id="Path_1659" data-name="Path 1659" class="cls-5" d="M118.938,129.29,121.631,111l-1.326-7.3-11.448-.427-1.511-1.443s-.578-2.119.906-2.4,8.981-.378,8.981-.378,14.2.272,15.156.094,15.107.971,15.107.971a1.611,1.611,0,0,1,1.186,1.439c0,1.11-.442,1.416-.442,1.416l-1.035,1.024a17.969,17.969,0,0,1-2.666,0c-2.549-.064-8.91,0-8.91,0l-7.146-.283H120.3" transform="translate(26.12 24.145)"/>
          <path id="Path_1660" data-name="Path 1660" class="cls-5" d="M130.857,102.789l-4.343,7.078L122.359,129.4a18.849,18.849,0,0,1,8.309,6.8,9.822,9.822,0,0,1,1.016,1.582l.495.691" transform="translate(30.925 25.334)"/>
          <path id="Path_1661" data-name="Path 1661" class="cls-5" d="M77.987,140.526,76.73,155.777l1.492-.567,1.439-15.145" transform="translate(16.427 37.178)"/>
          <path id="Path_1662" data-name="Path 1662" class="cls-5" d="M81.3,158.479a.638.638,0,0,1-.1.755,1.575,1.575,0,0,1-.706.378,5.168,5.168,0,0,1-1.1.189,34.793,34.793,0,0,1-5.745-.189,30.655,30.655,0,0,1-3.917-.635l-.261-.661,1.25-6.179.211-.227.215-.23s5.1.944,7.625.616l.257-.038c2.232-.329,1.771-.835,1.771-.835l.4.14.166,4.46,1.605-.423.283,1.771S83.879,157.784,81.3,158.479Z" transform="translate(14.123 40.787)"/>
          <path id="Path_1663" data-name="Path 1663" class="cls-5" d="M76.73,151.989l0,.1L77.088,159" transform="translate(16.427 40.967)"/>
          <path id="Path_1664" data-name="Path 1664" class="cls-5" d="M80.719,137.959l12.6-1.19s5.412-.442,6.356-.695,7.554-2.806,7.554-2.806,7.429-4.1,14.227-4.736,8.981-.442,12.973.668l3.652-19.341,3.977-7.286" transform="translate(17.695 25.266)"/>
          <path id="Path_1665" data-name="Path 1665" class="cls-5" d="M84.292,110.3l4.827.026h3.554l7.459-.14,1.575-.03h.215c1.288-.03,3.078-.068,4.687-.11l.755-.023c.861-.023,1.628-.045,2.191-.068a38.481,38.481,0,0,0,6.254-1.012l.967-1.088s.423-.329.355-1.439a1.611,1.611,0,0,0-1.277-1.363s-3.233.491-4.177.725a21.958,21.958,0,0,1-3.543.189l-2.776-.155-.714-.038c-1.333-.076-2.908-.166-4.449-.261h0c-2.323-.136-4.578-.276-5.843-.378-1.054-.083-3.059-.1-5.314-.079-1.605,0-3.339.034-4.951.068-3.361.064-6.186.151-6.186.151s-6.066.733-7.531,1.11-.755,2.455-.755,2.455l1.582,1.345h.786l3.845.034,7.758.072h.6l2.077,8.4-.193,2.293L84.375,141.2l-.57,6.84-.166,3.165.944.14-1.439,14.352-.876.495v.687h-.212l-19.292-1.59a13.906,13.906,0,0,1-3.021.71H55.524L37.4,163.7a10.318,10.318,0,0,1-1.722-2.368c-.068-.128-.1-.2-.1-.2s-1.133-6.043-1.654-11.659,2.16-7.448,2.16-7.448" transform="translate(2.803 26.052)"/>
          <path id="Path_1666" data-name="Path 1666" class="cls-5" d="M40.983,108.9l.914-.128,2.8,9.948L47,138.6l-3.384.793-.54.125" transform="translate(5.069 27.234)"/>
          <path id="Path_1667" data-name="Path 1667" class="cls-5" d="M42.545,132.162h.03a3.834,3.834,0,0,1,.54-.125,4.29,4.29,0,0,1,2.942.468c1.575.974,3.452,5.6,3.452,5.6l1.08,1.545L51,141.412l1.069,1.635,1.133-.313,1.888,2.047.88-.283,3.841,2.077,3.966,7.365-1,2.353-2.768.453" transform="translate(5.566 34.601)"/>
          <path id="Path_1668" data-name="Path 1668" class="cls-5" d="M42.844,132.112l-1.239.431a13.792,13.792,0,0,1,3.021,3.682c.076.162.159.34.245.533.9,2.021,2.349,5.609,4.506,7.335a47.119,47.119,0,0,0,5.446,3.618s.189-.125.691.85,2.8,6.39,2.8,6.39l-1.039,2.455-3.21-2.833" transform="translate(5.267 34.651)"/>
          <line id="Line_330" data-name="Line 330" class="cls-5" y1="1.197" x2="4.91" transform="translate(63.962 188.469)"/>
          <line id="Line_331" data-name="Line 331" class="cls-5" y1="1.039" x2="4.121" transform="translate(60.691 181.293)"/>
          <path id="Path_1669" data-name="Path 1669" class="cls-5" d="M36.242,135c-1.511,1.7-1.322,4.97-1.322,4.97l1.511,11.176.6.533,17.12,2.047,1.888-.159.159-.6L54.9,150.011l-2.391-1.2a10.5,10.5,0,0,1-2.674-1.983,31.457,31.457,0,0,1-5.352-8.09c-1.73-3.743-3-3.954-3-3.954" transform="translate(3.14 35.501)"/>
          <path id="Path_1670" data-name="Path 1670" class="cls-5" d="M52.224,144.167c0,.125-2.138,2.863-2.138,2.863" transform="translate(7.962 38.481)"/>
          <line id="Line_332" data-name="Line 332" class="cls-5" x1="4.249" y1="1.133" transform="translate(59.335 188.469)"/>
          <line id="Line_333" data-name="Line 333" class="cls-5" x1="0.034" y1="2.58" transform="translate(40.168 187.181)"/>
          <line id="Line_334" data-name="Line 334" class="cls-5" y1="0.752" x2="1.092" transform="translate(38.48 186.645)"/>
          <path id="Path_1671" data-name="Path 1671" class="cls-5" d="M76.256,131.436s-7.119,1.888-9.82,3.9a17.675,17.675,0,0,1-6.677,3.055" transform="translate(11.035 34.436)"/>
          <path id="Path_1672" data-name="Path 1672" class="cls-5" d="M48.653,137.958l1.541-.695,1.416,3.244-.347.533" transform="translate(7.506 36.288)"/>
          <path id="Path_1673" data-name="Path 1673" class="cls-5" d="M51.428,141.877l.283.378s.85-.034.914-.378.974-1.227,1.447-1.073,1.734.31,1.983-.019a4.774,4.774,0,0,1,.85-.684c.155-.106.313-.2.468-.291a1.889,1.889,0,0,1,.7-.295c.378,0,1.575.415,1.8.378s1.413-1.288,1.726-1.288a2.192,2.192,0,0,0,1.2-.472,1.212,1.212,0,0,0-.223-1.2c-.378-.408-2.266-2.927-2.266-2.927s-.4-.378-1.666,0-8.721,3.618-8.721,3.618v.487Z" transform="translate(7.908 35.201)"/>
          <path id="Path_1674" data-name="Path 1674" class="cls-5" d="M50.49,138l8.309-3.052,1.858,2.345" transform="translate(8.09 35.552)"/>
          <path id="Path_1675" data-name="Path 1675" class="cls-5" d="M67.782,105.46s2.266-.434,5.6-.82c1.439-.166,3.082-.321,4.838-.431,1.133-.068,2.3-.117,3.5-.14,2.417-.042,4.834-.03,6.987,0,1.586.023,3.021.057,4.234.091l.676.023c.918.026,1.654.057,2.149.076s.925.057,1.386.117l7.931,1" transform="translate(13.584 25.733)"/>
          <path id="Path_1676" data-name="Path 1676" class="cls-5" d="M50.7,68.961h0a9.714,9.714,0,0,0-.049-1.469c-.068-.706-.189-1.511-.336-2.353-.31-1.73-.755-3.584-1.091-4.91-.144-.54-.268-1-.378-1.333a23.892,23.892,0,0,1-.71-4.574c0-1.178-.064-2.266-.147-3.222h0c-.083-.971-.2-1.836-.321-2.587a19.137,19.137,0,0,0-.918-3.735" transform="translate(6.902 6.902)"/>
          <path id="Path_1677" data-name="Path 1677" class="cls-5" d="M51.955,46.128h0A18.472,18.472,0,0,1,54.6,49.939h0a57.469,57.469,0,0,1,4.389,10.107s1.447,6.107-.691,9.064a13.946,13.946,0,0,1,4.891.676,84.1,84.1,0,0,0,10.541,3.46,1.2,1.2,0,0,0,.242.019" transform="translate(8.555 7.331)"/>
          <path id="Path_1678" data-name="Path 1678" class="cls-5" d="M64.752,66.865A12.368,12.368,0,0,0,67.823,63.5c.023-.042.045-.083.064-.125A3.4,3.4,0,0,0,68.3,61.91c.049-2.361.23-4.532.23-4.532" transform="translate(12.621 10.905)"/>
          <path id="Path_1679" data-name="Path 1679" class="cls-5" d="M63.608,47.8a7.964,7.964,0,0,1,3.4,5.775" transform="translate(12.258 7.862)"/>
          <path id="Path_1680" data-name="Path 1680" class="cls-5" d="M62.07,108.734s-3.9.567-4.468.627-.5.442-.5.442c3.082.189,3.588,1.888,4.657,3.146s2.33,11.206,1.824,17.438a32.481,32.481,0,0,1-2.7,10.7c4.657,1.133,14.918-2.2,14.918-2.2l-2.719-4.948a10.42,10.42,0,0,1-1.269-4.362l-.483-7.554c-.5-8.687-3.588-10.889-3.588-10.889a35.9,35.9,0,0,1-3.932-2.077A2.245,2.245,0,0,0,62.07,108.734Z" transform="translate(10.189 27.207)"/>
          <path id="Path_1681" data-name="Path 1681" class="cls-5" d="M81.008,134.657a25.362,25.362,0,0,0,2.53-2.315h0c1.62-1.73,3.15-3.973,3-6.186,0,0-.48-12.343-1.363-15.425h3.879s3.15,8.562,1.888,14.1a26.061,26.061,0,0,1-1.379,4.389,16.051,16.051,0,0,1-1,1.99,7.031,7.031,0,0,1-.835,1.175,17.063,17.063,0,0,1-4.192,2.243c-.227.087-.461.166-.7.242a14.105,14.105,0,0,1-2.126.5" transform="translate(17.693 27.858)"/>
          <path id="Path_1682" data-name="Path 1682" class="cls-5" d="M57.269,109.533a9.733,9.733,0,0,0-.714,1.337" transform="translate(10.017 27.477)"/>
          <path id="Path_1683" data-name="Path 1683" class="cls-5" d="M60.384,133.784s-1.911-.88-1.722-2.107" transform="translate(10.682 34.513)"/>
          <line id="Line_335" data-name="Line 335" class="cls-5" x1="0.004" transform="translate(53.829 61.348)"/>
          <path id="Path_1684" data-name="Path 1684" class="cls-5" d="M53.616,46.759l-.653-.257h0c-2.674-1.054-4.06-1.65-4.846-1.983a3.3,3.3,0,0,0-1.167-.378c-.087,0-.144.306-.178.816,0,.185-.023.378-.03.627h0c-.034,1.114,0,2.727.026,4.294h0c.057,2.134.147,4.177.17,4.763l.026.487h0l.174,3.339a12.5,12.5,0,0,0,.627,2.942c.242.623.631,1.669,1.08,2.87.136.378.279.755.427,1.133h0c.287.755.585,1.556.88,2.311h0c.189.491.378.967.555,1.413h0a12.713,12.713,0,0,0,1.394,2.9c.631.442,2.077-1.258,7.871-2.33a16.641,16.641,0,0,1,10.322,1.261.639.639,0,0,1,.181.076c.827.378,3.358,1.888,4.883,2.67l.287.147a.755.755,0,0,0,.174.068,1.231,1.231,0,0,0,1.6-1.133c.121-3.252-2.115-8.46-3.169-11.217l-.181-.487a26.876,26.876,0,0,1-1.386-4.846c-.438-6.36-1.571-8.06-1.824-8.373s-.631.378-1.888,1.069a4.3,4.3,0,0,1-1.1.4h-.03a8.989,8.989,0,0,1-1.511.2,21.091,21.091,0,0,1-3.259-.1c-.638-.064-1.19-.125-1.76-.219a32.134,32.134,0,0,1-6.266-1.953l-1.424-.5h0" transform="translate(6.894 6.7)"/>
          <path id="Path_1685" data-name="Path 1685" class="cls-5" d="M43.543,34.941l-.933,3.777A143.618,143.618,0,0,0,40.8,56.355s.019,1.133.106,2.6a2.51,2.51,0,0,0,.023.4c.038.646.091,1.345.155,2.047.238,2.527.967,6.3.967,6.3s.147.687.355,1.624v.091c.378,1.786.956,4.411,1.1,5.038a36.2,36.2,0,0,1,.589,9.6c-.238,5.733-.567,10.6-.567,10.6s.038,1.756.264,4.185a42.281,42.281,0,0,0,1.764,9.317c1.866,5.454,6.353,17.113,6.353,17.113l5.609,11.289s1.605,2.716,3.588,6.964,3.433,8.252,3.433,8.252a29.891,29.891,0,0,1,1.628,6.394,13.5,13.5,0,0,1-.068,5.382,10.175,10.175,0,0,1-3.777,5.053,18.917,18.917,0,0,1-2.644,1.484h-.03c-1.337.646-2.791,1.235-4.019,1.7h0c-1.666.646-2.882,1.024-2.882,1.024H51.38l-.661-.967s6.587-1.11,9.937-4.011,3.588-3.588,3.588-3.588a10.454,10.454,0,0,0,.567-5.359,39.565,39.565,0,0,0-2.927-9.465c-1.3-3.067-4.2-9.461-4.2-9.461l-3.871-7.184-4.959-10.741s-3.917-10.866-4.177-11.92S42.2,100.9,42.149,97.081s.521-11.708.521-11.708.094-7.41-.261-8.732-1.11-4.759-1.288-5.408-1.3-7.86-1.3-7.86-.676-6.069-.378-7.437a129.608,129.608,0,0,1,1.73-17.468L42,34.933c.144-.5.295-.974.453-1.42,1.175-3.293,2.149-5.76,3.622-7.471s3.535-2.712,6.825-2.95c6.511-.472,12.637,3.671,12.637,3.671s.99.174,2.444,2.349a.177.177,0,0,0,.023.034c.2.31.419.665.638,1.061" transform="translate(4.556 0)"/>
          <path id="Path_1686" data-name="Path 1686" class="cls-5" d="M45.572,26.167l1.375-1.061a9.9,9.9,0,0,1,4.351-1.19c6.326-.472,13.408,3.682,13.408,3.682s.495.144,1.311,1.265a.179.179,0,0,0,.023.034,12.006,12.006,0,0,1,.684,1.054l7.931,24.591c2.833,6.677,5.435,7.863,5.435,7.863l12.694,9.521s9.1,6.27,2.972,19.028c-6.8,14.133-1.182,24.644-1.182,24.644l5.053,11.946s.415.831,1.039,2.111" transform="translate(6.527 0.261)"/>
          <path id="Path_1687" data-name="Path 1687" class="cls-5" d="M107.633,152.525a43.359,43.359,0,0,1-6.016,1.537" transform="translate(24.335 41.137)"/>
          <line id="Line_336" data-name="Line 336" class="cls-5" x2="1.156" y2="0.272" transform="translate(152.128 154.466)"/>
          <line id="Line_337" data-name="Line 337" class="cls-5" y1="0.004" transform="translate(104.51 136.22)"/>
        </g>
      </g>
    </g>
  </g>
</svg>
