<svg xmlns="http://www.w3.org/2000/svg" xmlns:xlink="http://www.w3.org/1999/xlink" viewBox="0 0 192 192">
  <defs>
    <style>
      .cls-1, .cls-3, .cls-4 {
        fill: #fff;
      }

      .cls-1 {
        stroke: #707070;
      }

      .cls-2 {
        clip-path: url(#clip-path);
      }

      .cls-4, .cls-5, .cls-6 {
        stroke: #1d1d1b;
        stroke-miterlimit: 10;
      }

      .cls-4, .cls-5 {
        stroke-width: 0.4px;
      }

      .cls-5, .cls-6, .cls-8 {
        fill: none;
      }

      .cls-7 {
        stroke: none;
      }
    </style>
    <clipPath id="clip-path">
      <circle id="Ellipse_70" data-name="Ellipse 70" class="cls-1" cx="94.578" cy="94.578" r="94.578" transform="translate(0)"/>
    </clipPath>
  </defs>
  <g id="Group_169" data-name="Group 169" transform="translate(-880 -2000)">
    <g id="Ellipse_30" data-name="Ellipse 30" class="cls-1" transform="translate(880 2000)">
      <circle class="cls-7" cx="96" cy="96" r="96"/>
      <circle class="cls-8" cx="96" cy="96" r="95.5"/>
    </g>
    <g id="Mask_Group_11" data-name="Mask Group 11" class="cls-2" transform="translate(882.844 2000.812)">
      <g id="medidas-04" transform="translate(5.387 -57.521)">
        <path id="Path_1320" data-name="Path 1320" class="cls-3" d="M31.864,187.306a7.072,7.072,0,0,0-5.893,3.419c-2.2,3.554.18,8.1.18,8.1,1.35,6.7,6.824,6.248,6.824,6.248,8.052-.27,6.658-10.527,6.658-10.527l-.09-7.153C39.6,187.351,36.633,189.69,31.864,187.306Z" transform="translate(-25.025 70.492)"/>
        <path id="Path_1321" data-name="Path 1321" class="cls-3" d="M100.132,169.764l-.315.765s-1.08,0-2.159,5.263l13.181,3.194s1.8-6.838-1.529-8.457l-1.754-.315-1.8.36-.045-1.125Z" transform="translate(16.337 60.322)"/>
        <path id="Path_1322" data-name="Path 1322" class="cls-3" d="M57.889,170.342l.315.765s1.08-.045,2.429,5.173l-13,3.779s-2.114-6.748,1.125-8.547l1.754-.4,1.8.27-.045-1.125Z" transform="translate(-12.541 60.779)"/>
        <path id="Path_1323" data-name="Path 1323" class="cls-3" d="M76.793,200.289l.045,1.485-2.474.045-.81,1.979L74,216.124l.99,2.2,2.519-.045s.45-.495.36-2.744-.045-2.789-.045-2.789l4.094-.135.09,4.274s.18,1.26.45,1.26,2.519-.045,2.519-.045a8.036,8.036,0,0,0,1.125-2.744c.135-1.215-.27-11.516-.27-11.516l-.99-2.249-2.7.045-.09-.9Z" transform="translate(2.608 77.887)"/>
        <g id="Base" transform="translate(0 201.296)">
          <g id="base-2" data-name="base" transform="translate(0 0)">
            <path id="Path_1324" data-name="Path 1324" class="cls-4" d="M82.259,172.594l-.135-3.239s4.768-2.879,18.714-3.464,15.34,2.789,15.34,2.789.63.54.225,3.509a7.832,7.832,0,0,1-1.664.315c-.18-.09-.09-1.125-.09-1.125s-12.191.09-19.389,3.824" transform="translate(7.489 -143.039)"/>
            <path id="Path_1325" data-name="Path 1325" class="cls-4" d="M84.053,172.322l-.09-3.149s-5.308-2.879-19.3-2.789-15.16,3.509-15.16,3.509-.63.585-.09,3.509a8.039,8.039,0,0,0,1.664.27c.18-.09.045-1.125.045-1.125s12.191-.45,19.524,2.924" transform="translate(-11.265 -142.721)"/>
            <path id="Path_1326" data-name="Path 1326" class="cls-4" d="M80.688,181.5c5.308,0,7.737-2.7,7.737-2.7v-.315L87.39,157.572a6.775,6.775,0,0,0-.27-1.619,2.771,2.771,0,0,0-.495-1.035s-.135,2.789-6.523,2.969l-1.395.045c-6.388.135-6.613-2.654-6.613-2.654a2.758,2.758,0,0,0-.45,1.035,6.622,6.622,0,0,0-.18,1.619l-.09,20.918.045.315s2.519,2.609,7.827,2.339Z" transform="translate(1.368 -149.25)"/>
            <path id="Path_1327" data-name="Path 1327" class="cls-4" d="M78.544,159.581c-5.623.225-6.433-2.519-6.433-2.519l-.045-2.7s-.09-1.574.4-2.069c0,0,0,2.519,6.343,2.339h.45c6.343-.135,6.208-2.609,6.208-2.609.54.495.495,2.069.495,2.069l.045,2.7s-.72,2.744-6.343,2.789Z" transform="translate(1.757 -150.899)"/>
            <path id="Path_1328" data-name="Path 1328" class="cls-4" d="M72.321,152.881v-1.574H85.367l-.27.99s-.27,2.789-6.163,2.744S72.321,152.881,72.321,152.881Z" transform="translate(1.906 -151.307)"/>
            <path id="Path_1329" data-name="Path 1329" class="cls-4" d="M75.618,200.4l.045,1.3a1.039,1.039,0,0,1,.481.85l4.409-.09s.045-.765.315-.81l-.045-1.035" transform="translate(3.784 -123.344)"/>
            <path id="Path_1330" data-name="Path 1330" class="cls-4" d="M76.544,201.2l-2.474.045.63,16.51,2.519-.045s.45-.36.36-1.8l-.495-13.9" transform="translate(2.902 -122.888)"/>
            <path id="Path_1331" data-name="Path 1331" class="cls-4" d="M74.4,201.264l-.36.765c-.765,1.664-.4.81-.36,7.108v.135c.225,6.3,0,6.118.855,7.737l.4.765" transform="translate(2.612 -122.854)"/>
            <path id="Path_1332" data-name="Path 1332" class="cls-4" d="M79.281,201.165l2.474-.045.135,16.555-2.519.045s-.495-.315-.45-1.754l-.18-13.9" transform="translate(5.563 -122.936)"/>
            <path id="Path_1333" data-name="Path 1333" class="cls-4" d="M80.691,201.178l.4.765c.855,1.619.45.81.675,7.063v.135c.09,6.3.27,6.118-.495,7.737l-.36.765" transform="translate(6.673 -122.903)"/>
            <line id="Line_304" data-name="Line 304" class="cls-5" y1="0.09" x2="4.139" transform="translate(80.346 89.026)"/>
            <path id="Path_1334" data-name="Path 1334" class="cls-4" d="M95.575,170.526l-.045-.315s-22.493,4.948-38.867,10.3a159.56,159.56,0,0,0-26.271,10.931s-2.069,1.26-1.08,5.713c0,0,4.139,2.564,7.962,0l.855-1.709s16.825-5.758,27.8-8.547A182.2,182.2,0,0,1,85.5,183.257c2.519-.315,4.993-.72,7.468-1.26h0a5.33,5.33,0,0,1,3.014.315l.63.315h0s.81.99,1.619,12.236,1.485,19.794,1.485,19.794.45,3.959,5.668,3.464a14.843,14.843,0,0,0,2.564-.45,3.887,3.887,0,0,0,2.834-3.824l.63-30.77h0l.63-.315a5.25,5.25,0,0,1,2.969-.45h.045c2.519.4,4.993.675,7.513.9a169.136,169.136,0,0,1,19.7,2.744c11.111,2.294,28.206,7.288,28.206,7.288l-.045,1.395c5.758,2.654,8.907-.09,8.907-.09.81-4.544-1.3-5.668-1.3-5.668a159.5,159.5,0,0,0-26.766-9.717c-16.6-4.588-38.957-9-38.957-9" transform="translate(-22.742 -140.566)"/>
            <path id="Path_1335" data-name="Path 1335" class="cls-5" d="M36.264,187.535v6.658l-.225.18A7.174,7.174,0,0,0,34.014,191a7.157,7.157,0,0,0-2.519-1.35l-.045-1.35" transform="translate(-21.371 -130.673)"/>
            <path id="Path_1336" data-name="Path 1336" class="cls-4" d="M25.931,198.581a12.718,12.718,0,0,1-.9-3.959,6.918,6.918,0,0,1,6.523-7.288" transform="translate(-25.029 -130.788)"/>
            <path id="Path_1337" data-name="Path 1337" class="cls-4" d="M25.223,194.59c-.09-3.959,3.419-6.793,7.108-6.883" transform="translate(-24.919 -130.575)"/>
            <ellipse id="Ellipse_78" data-name="Ellipse 78" class="cls-4" cx="6.703" cy="7.153" rx="6.703" ry="7.153" transform="translate(0.937 60.071) rotate(-1.31)"/>
            <ellipse id="Ellipse_79" data-name="Ellipse 79" class="cls-4" cx="1.17" cy="1.215" rx="1.17" ry="1.215" transform="translate(6.695 65.884) rotate(-1.31)"/>
            <path id="Path_1338" data-name="Path 1338" class="cls-4" d="M30.074,190.2s.135,3.914.27,4.094.315.36.72,0a30.181,30.181,0,0,0,1.979-3.149" transform="translate(-22.155 -129.155)"/>
            <path id="Path_1339" data-name="Path 1339" class="cls-4" d="M33.4,191.4a35.537,35.537,0,0,0-2.294,3.329c0,.27.045.495.54.495a30.408,30.408,0,0,0,3.419-.99" transform="translate(-21.567 -128.47)"/>
            <path id="Path_1340" data-name="Path 1340" class="cls-4" d="M35.158,193.984a30.015,30.015,0,0,0-3.869.27c-.18.18-.315.315,0,.765a24.934,24.934,0,0,0,2.924,2.159" transform="translate(-21.571 -127)"/>
            <path id="Path_1341" data-name="Path 1341" class="cls-4" d="M34.048,197.424a39.262,39.262,0,0,0-3.194-2.294c-.225,0-.45.045-.4.63a35.592,35.592,0,0,0,1.125,3.6" transform="translate(-21.945 -126.347)"/>
            <path id="Path_1342" data-name="Path 1342" class="cls-4" d="M30.566,190.229a39.7,39.7,0,0,1,.135,4.094c-.135.18-.27.36-.72.045a28.568,28.568,0,0,1-2.294-2.924" transform="translate(-23.515 -129.139)"/>
            <path id="Path_1343" data-name="Path 1343" class="cls-4" d="M27.686,191.662a38.187,38.187,0,0,1,2.609,3.059c.045.27,0,.495-.495.54a31.854,31.854,0,0,1-3.509-.63" transform="translate(-24.31 -128.323)"/>
            <path id="Path_1344" data-name="Path 1344" class="cls-4" d="M26.348,194.741a26.6,26.6,0,0,1,3.869-.135c.225.18.36.27.045.765a27.62,27.62,0,0,1-2.7,2.429" transform="translate(-24.277 -126.678)"/>
            <path id="Path_1345" data-name="Path 1345" class="cls-4" d="M27.868,198.341a36.989,36.989,0,0,1,2.564-3.059c.225-.045.45-.09.54.495s-.225,3.779-.225,3.779" transform="translate(-23.412 -126.275)"/>
            <line id="Line_305" data-name="Line 305" class="cls-5" y1="0.09" x2="2.204" transform="translate(39.859 30.86)"/>
            <path id="Path_1346" data-name="Path 1346" class="cls-4" d="M47.824,179.255c-.765-.855-.675-3.059-.675-3.059-.045-2.834,1.08-5.173,2.519-5.173s2.924,2.114,2.969,4.948l.045,1.574" transform="translate(-12.432 -140.078)"/>
            <path id="Path_1347" data-name="Path 1347" class="cls-4" d="M47.9,178.989c-.72-.81-.63-2.834-.63-2.834-.045-2.609.99-4.768,2.339-4.813s2.339,1.979,2.384,4.633l-.045,1.619" transform="translate(-12.362 -139.897)"/>
            <path id="Path_1348" data-name="Path 1348" class="cls-4" d="M48.246,171.742a35.628,35.628,0,0,0,.4,4.184c.225.63.45-2.2.855-2.969l.315-.63" transform="translate(-11.806 -139.668)"/>
            <path id="Path_1349" data-name="Path 1349" class="cls-4" d="M50.091,172.774a19.127,19.127,0,0,0-1.215,3.329c0,.63,1.17-.675,2.069-1.08" transform="translate(-11.447 -139.08)"/>
            <path id="Path_1350" data-name="Path 1350" class="cls-4" d="M48.065,172.373s.99,3.374.72,3.149a5.479,5.479,0,0,0-1.485-1.215" transform="translate(-12.344 -139.309)"/>
            <path id="Path_1351" data-name="Path 1351" class="cls-4" d="M47.357,173.921l1.485,1.664s.315.54-.135.585a8.1,8.1,0,0,1-1.26-.045" transform="translate(-12.312 -138.427)"/>
            <ellipse id="Ellipse_80" data-name="Ellipse 80" class="cls-4" cx="0.405" cy="0.855" rx="0.405" ry="0.855" transform="translate(36.572 36.4) rotate(-1.31)"/>
            <path id="Path_1352" data-name="Path 1352" class="cls-4" d="M57.778,175.687s-1.035-3.869-1.8-4.319l-.09,4.813-3.284.99-.09-.9a8.686,8.686,0,0,0-1.215-3.059l-.045-1.709a2.843,2.843,0,0,0,2.7,1.035c1.709-.315,1.844-1.125,1.844-1.125l-.495-.72v.54l-3.149.09v-.9" transform="translate(-10.092 -140.419)"/>
            <line id="Line_306" data-name="Line 306" class="cls-5" x1="2.339" y1="0.045" transform="translate(119.753 29.555)"/>
            <path id="Path_1353" data-name="Path 1353" class="cls-4" d="M107.925,178.6c.765-.945.585-3.239.585-3.239-.09-2.969-1.35-5.353-2.879-5.308s-2.924,2.339-2.879,5.308l.045,1.619" transform="translate(19.237 -140.631)"/>
            <path id="Path_1354" data-name="Path 1354" class="cls-4" d="M107.57,178.3c.72-.9.54-2.969.54-2.969-.045-2.744-1.26-4.948-2.654-4.9s-2.339,2.2-2.294,4.948l.135,1.709" transform="translate(19.47 -140.419)"/>
            <path id="Path_1355" data-name="Path 1355" class="cls-4" d="M105.727,170.8a33.086,33.086,0,0,1-.225,4.364c-.225.675-.585-2.294-1.035-3.1a5.551,5.551,0,0,1-.36-.675" transform="translate(20.01 -140.206)"/>
            <path id="Path_1356" data-name="Path 1356" class="cls-4" d="M104.012,171.943a22.312,22.312,0,0,1,1.44,3.419c.045.63-1.26-.675-2.2-1.035" transform="translate(19.52 -139.554)"/>
            <path id="Path_1357" data-name="Path 1357" class="cls-4" d="M105.868,171.427s-.855,3.554-.63,3.329a5.608,5.608,0,0,1,1.485-1.35" transform="translate(20.633 -139.847)"/>
            <path id="Path_1358" data-name="Path 1358" class="cls-4" d="M106.761,173.032l-1.44,1.844s-.315.585.135.585a11.581,11.581,0,0,0,1.3-.135" transform="translate(20.64 -138.933)"/>
            <ellipse id="Ellipse_81" data-name="Ellipse 81" class="cls-4" cx="0.45" cy="0.9" rx="0.45" ry="0.9" transform="translate(124.881 35.151) rotate(-1.31)"/>
            <path id="Path_1359" data-name="Path 1359" class="cls-4" d="M97.736,175.429s.9-4.139,1.664-4.589l.315,4.993,3.509.9.09-.99a9.186,9.186,0,0,1,1.125-3.284l-.045-1.8a2.969,2.969,0,0,1-2.789,1.215c-1.8-.27-2.024-1.08-2.024-1.08l.45-.765v.54l3.284-.09v-.945" transform="translate(16.381 -140.925)"/>
            <ellipse id="Ellipse_82" data-name="Ellipse 82" class="cls-5" cx="5.668" cy="6.073" rx="5.668" ry="6.073" transform="translate(1.996 61.127) rotate(-1.31)"/>
            <path id="Path_1360" data-name="Path 1360" class="cls-5" d="M25.376,195.722a6.64,6.64,0,0,1,6.658-6.883,6.324,6.324,0,0,1,2.924.36" transform="translate(-24.834 -129.953)"/>
          </g>
        </g>
        <path id="Path_1361" data-name="Path 1361" class="cls-4" d="M126.966,185.672a6.918,6.918,0,0,1,6.523,7.288,12.717,12.717,0,0,1-.9,3.959L119.5,193.229l4.768-6.253Z" transform="translate(28.776 69.562)"/>
        <path id="Path_1362" data-name="Path 1362" class="cls-5" d="M130.819,192.927c.09-3.959-3.419-6.793-7.108-6.883" transform="translate(31.175 69.774)"/>
        <path id="Path_1363" data-name="Path 1363" class="cls-4" d="M125.707,202.08a7.147,7.147,0,1,0-6.523-7.288,6.922,6.922,0,0,0,6.523,7.288" transform="translate(28.595 70.783)"/>
        <ellipse id="Ellipse_83" data-name="Ellipse 83" class="cls-4" cx="1.215" cy="1.17" rx="1.215" ry="1.17" transform="translate(153.12 266.942) rotate(-88.69)"/>
        <path id="Path_1364" data-name="Path 1364" class="cls-5" d="M124.445,188.538s-.135,3.914-.27,4.094-.315.36-.72,0a30.181,30.181,0,0,1-1.979-3.149" transform="translate(29.902 71.194)"/>
        <path id="Path_1365" data-name="Path 1365" class="cls-5" d="M123.975,188.538a39.7,39.7,0,0,0-.135,4.094c.135.18.27.36.72.045a28.568,28.568,0,0,0,2.294-2.924" transform="translate(31.227 71.194)"/>
        <path id="Path_1366" data-name="Path 1366" class="cls-5" d="M127.214,190a38.189,38.189,0,0,0-2.609,3.059c-.045.27,0,.495.495.54a31.853,31.853,0,0,0,3.509-.63" transform="translate(31.676 72.026)"/>
        <path id="Path_1367" data-name="Path 1367" class="cls-5" d="M128.61,193.078a26.6,26.6,0,0,0-3.869-.135c-.225.18-.36.27-.045.765a27.615,27.615,0,0,0,2.7,2.429" transform="translate(31.63 73.671)"/>
        <path id="Path_1368" data-name="Path 1368" class="cls-5" d="M125.376,200.628a5.819,5.819,0,0,0,5.8-5.938,5.9,5.9,0,0,0-5.533-6.208,6.089,6.089,0,0,0-.27,12.146" transform="translate(28.971 71.16)"/>
        <path id="Path_1369" data-name="Path 1369" class="cls-5" d="M131.427,194.069a6.466,6.466,0,0,0-6.388-6.928,6.3,6.3,0,0,0-2.789.4" transform="translate(30.343 70.386)"/>
        <path id="Path_1370" data-name="Path 1370" class="cls-4" d="M124.422,186.8l-.045,1.125a11.743,11.743,0,0,0-2.519,1.575,7.707,7.707,0,0,0-2.114,2.834l-.36.945.36-7.288a5.5,5.5,0,0,0,2.024.585A19.719,19.719,0,0,0,124.422,186.8Z" transform="translate(28.71 69.741)"/>
        <path id="Path_1371" data-name="Path 1371" class="cls-5" d="M121.593,189.684a34.976,34.976,0,0,1,2.249,3.014c.09.225-.09.945-.63.945a27.878,27.878,0,0,1-3.284-.855" transform="translate(29.021 71.847)"/>
        <path id="Path_1372" data-name="Path 1372" class="cls-5" d="M120.817,195.717a24.133,24.133,0,0,1,2.744-1.934c.27,0,.45.045.4.63a23.906,23.906,0,0,1-.855,2.879" transform="translate(29.527 74.181)"/>
        <path id="Path_1373" data-name="Path 1373" class="cls-5" d="M123.31,197.345a23.71,23.71,0,0,1,.54-3.284c.18-.135.36-.27.72.135a26.236,26.236,0,0,1,1.485,2.609" transform="translate(30.947 74.263)"/>
        <path id="Path_1374" data-name="Path 1374" class="cls-5" d="M119.871,192.605a22.155,22.155,0,0,1,3.329.225c.18.18.315.315-.045.765a17.885,17.885,0,0,1-2.488,1.709" transform="translate(28.988 73.51)"/>
        <path id="Path_1375" data-name="Path 1375" class="cls-3" d="M75.085,68.738c-2.074-.27-10.428-3.216-12.555-4.121a16.611,16.611,0,0,0-5.826-.805A19.821,19.821,0,0,1,69,65.315a.761.761,0,0,1,.216.09c.985.45,4,2.249,5.817,3.18l.342.175a1.429,1.429,0,0,1-.288-.022Z" transform="translate(-6.988 -0.059)"/>
        <path id="Path_1376" data-name="Path 1376" class="cls-3" d="M51.642,143.512l-1.8-4.458v-.58s1.237-.544,2.866-1.246h0c1.44-.549,3.149-1.237,4.7-1.993h.036c1.273-.522,2.326-.94,2.762-1.066,1.507-.45,1.988,0,1.988,0s2.249,3,2.7,3.486a1.377,1.377,0,0,1,.342.846,1.237,1.237,0,0,1-.081.58,2.6,2.6,0,0,1-1.426.562c-.378,0-1.8,1.484-2.056,1.534s-1.691-.45-2.141-.45a2.322,2.322,0,0,0-.832.351c-.18.108-.373.225-.558.351a5.447,5.447,0,0,0-1.008.814c-.3.391-1.8.211-2.362.023s-1.651.864-1.727,1.273-1.084.45-1.084.45Z" transform="translate(-10.896 40.114)"/>
        <path id="Path_1377" data-name="Path 1377" class="cls-3" d="M72.419,77.6l.063-2.645.139.814.126.76.148,3.392,4.827,41.067c-2.092.13-4.049.315-5.763.513l.378-6.9.409-7.468.112-8.808V96.766l.031-10.5-.535-6.3Z" transform="translate(1.701 6.502)"/>
        <path id="Path_1378" data-name="Path 1378" class="cls-3" d="M51.057,149.6l-.189-.189.189-.711,5.061,1.35-1.237,2.924Z" transform="translate(-10.312 48.502)"/>
        <path id="Path_1379" data-name="Path 1379" class="cls-1" d="M133.421,102.924l-4.611,8.439L124.46,134.4a27.653,27.653,0,0,0-8.421-1.242l3.212-21.768-1.579-8.7h9.784Z" transform="translate(26.805 22.297)"/>
        <path id="Path_1380" data-name="Path 1380" class="cls-3" d="M72.709,68.181a12.6,12.6,0,0,1,.238,2.7,1.467,1.467,0,0,1-1.907,1.35.9.9,0,0,1-.207-.081l-.342-.175c-1.8-.931-4.831-2.7-5.817-3.18a14.731,14.731,0,0,0,3.657-4c.027-.049.054-.1.076-.148a4.049,4.049,0,0,0,.49-1.75c.058-2.812.274-5.4.274-5.4.724,1.9,1.921,4.773,2.776,7.607a30.173,30.173,0,0,1,.76,3.081Z" transform="translate(-2.449 -3.442)"/>
        <path id="Path_1381" data-name="Path 1381" class="cls-3" d="M72.508,76.229l-.126-.76h.049l11.156,29.465s3.486,8.232,6.388,15.6c-2.564-.036-5.443-.049-8.322,0-1.426.027-2.825.085-4.17.166L72.656,79.63Z" transform="translate(1.941 6.796)"/>
        <path id="Path_1382" data-name="Path 1382" class="cls-3" d="M80.146,140.178l-1.714,18.039-1.777.675,1.5-18.165-.018-.076Z" transform="translate(4.375 43.651)"/>
        <path id="Path_1383" data-name="Path 1383" class="cls-3" d="M50.41,139.841s1.462-.477,3.41-1.21h0l.067-.027c-1.628.7-2.866,1.246-2.866,1.246v.58l1.8,4.458.337.45s1.012-.036,1.084-.45,1.165-1.462,1.727-1.273,2.06.369,2.362-.022a5.447,5.447,0,0,1,1.008-.814c.184-.126.378-.243.558-.351a2.322,2.322,0,0,1,.832-.351c.45,0,1.876.495,2.141.45S64.571,141,64.936,141a2.639,2.639,0,0,0,1.426-.562,1.237,1.237,0,0,0,.081-.58h.031a21.17,21.17,0,0,0,7.949-3.657c2.213-1.651,6.914-3.23,9.636-4.049,1.237-.373,2.065-.594,2.065-.594l-.139,1.673-.679,8.147-.2,3.77,1.125.166L84.518,162.41l-1.053.571v.513l-.252.27-22.97-1.894,3.3-.54,1.21-2.785-.157-.292-4.566-8.493-.45-.247L55.453,147.3l-1.048.337L52.155,145.2l.409-.639-1.687-3.86-1.835.823-1.287-1.871c.643.117,1.026.171,1.026.171Z" transform="translate(-12.085 38.742)"/>
        <path id="Path_1384" data-name="Path 1384" class="cls-3" d="M71.813,28.9s-8.435-4.948-15.97-4.386a11.786,11.786,0,0,0-5.182,1.44l-1.637,1.264h0c-2.132,2.119-3.266,5.484-4.764,10.117l-1.111,4.5A171.06,171.06,0,0,0,41,62.837s0,1.327.126,3.1h0v.652a.153.153,0,0,1,0,.045c.045.706.1,1.462.171,2.218.283,3.01,1.152,7.508,1.152,7.508s.175.819.423,1.934V78.4c.45,2.128,1.138,5.254,1.3,6a43.118,43.118,0,0,1,.7,11.44c-.283,6.829-.675,12.627-.675,12.627s.045,2.092.315,4.984a50.361,50.361,0,0,0,2.1,11.1c2.222,6.5,7.567,20.383,7.567,20.383l6.662,13.41s1.912,3.234,4.274,8.3,4.076,9.843,4.076,9.843a35.6,35.6,0,0,1,1.988,7.638c.081.6.139,1.156.18,1.669a13.939,13.939,0,0,1-.261,4.741,11.115,11.115,0,0,1-1.583,3.095,12.083,12.083,0,0,1-2.915,2.924,22.53,22.53,0,0,1-3.149,1.768h-.036c-1.476.612-3.239,1.35-4.7,1.993h0l-.067.027h0c-1.948.733-3.41,1.21-3.41,1.21H53.594l-.787-1.152s7.845-1.323,11.836-4.777,4.274-4.274,4.274-4.274a12.452,12.452,0,0,0,.675-6.383A47.126,47.126,0,0,0,66.1,173.69c-1.548-3.653-5-11.269-5-11.269l-4.611-8.583-5.907-12.794s-4.665-12.929-4.975-14.2S42.658,115.852,42.6,111.3s.621-13.945.621-13.945.112-8.826-.31-10.4-1.323-5.655-1.516-6.415-1.548-9.361-1.548-9.361-.805-7.229-.45-8.858a154.376,154.376,0,0,1,2.06-20.806l.981-4.211c.171-.594.351-1.161.54-1.691,1.4-3.923,2.56-6.86,4.314-8.9S51.5,23.484,55.42,23.2c7.755-.562,15.052,4.373,15.052,4.373s1.179.207,2.911,2.8C72.4,29.067,71.813,28.9,71.813,28.9Z" transform="translate(-16.897 -22.998)"/>
        <path id="Path_1385" data-name="Path 1385" class="cls-3" d="M74.373,104.873c1.714-.2,3.671-.382,5.763-.513,1.35-.081,2.744-.139,4.17-.166,2.879-.049,5.758-.036,8.322,0,1.889.027,3.6.067,5.043.108l.805.027c1.093.031,1.97.067,2.56.09s1.1.067,1.651.139l9.442,1.188s-3.851.585-4.975.864a26.156,26.156,0,0,1-4.22.225l-3.306-.184-.85-.045c-1.588-.09-3.464-.2-5.3-.31h0c-2.767-.162-5.452-.328-6.959-.45-1.255-.1-3.644-.117-6.329-.094-1.912,0-3.977.04-5.9.081-2.83.054-5.34.121-6.568.157v-.157S70.378,105.322,74.373,104.873Z" transform="translate(-0.712 23.138)"/>
        <path id="Path_1386" data-name="Path 1386" class="cls-3" d="M75.987,152.1l-9.618,3.464a4.849,4.849,0,0,0-2.029,2.407l-2.749,6.667-1.574-.45s2.3-6.3,3.374-7.913a4.426,4.426,0,0,1,2.3-1.925L72.5,152.1Z" transform="translate(-5.101 50.441)"/>
        <path id="Path_1387" data-name="Path 1387" class="cls-3" d="M84.755,92.9l0,1.574-.112,8.808-.409,7.468L68.853,102.5l-12.371,12.6-5.4-18.444L66.23,81.717,84.373,92.9Z" transform="translate(-10.19 10.355)"/>
        <path id="Path_1388" data-name="Path 1388" class="cls-3" d="M57.875,143.24l4.566,8.48-.4.216-5.848,1.426-.45-.076S53,146.839,52.4,145.674a4.21,4.21,0,0,0-.544-.855c-.2-.211-.279-.157-.279-.157l-.04-.022h.751L57.2,143.4l.216-.4Z" transform="translate(-9.932 45.262)"/>
        <path id="Path_1389" data-name="Path 1389" class="cls-3" d="M83.935,111.787l1.1-2.7v-.022h1.251c.409,1.192.72,2.164.877,2.816H84.079Z" transform="translate(8.521 25.931)"/>
        <path id="Path_1390" data-name="Path 1390" class="cls-3" d="M42.443,133.972l-.373-1.291.45-.13a16.428,16.428,0,0,1,3.6,4.386c.09.193.189.4.292.634,1.075,2.407,2.8,6.68,5.367,8.736a55.63,55.63,0,0,0,6.446,4.287l.04.022s.081-.054.279.157l-.166.18c0,.153-2.551,3.414-2.551,3.414l-2.848-1.426a12.506,12.506,0,0,1-3.185-2.362,37.468,37.468,0,0,1-6.374-9.636c-2.06-4.458-3.567-4.71-3.567-4.71l-.058-.612,1.318-.823Z" transform="translate(-16.62 39.307)"/>
        <path id="Path_1391" data-name="Path 1391" class="cls-3" d="M47.645,67.819c.216,1.579.135,1.539.067,1.35l-.144.076a31.409,31.409,0,0,0-5.322-6.365v-.108c-.171-.963-1.467-8.3-1.745-11.66a.153.153,0,0,0,0-.045v-.648c.189.121,4.867,3.288,6.338,11.966.045.256.085.5.126.738v.022a23.264,23.264,0,0,0,.733,4.647h0Z" transform="translate(-16.216 -7.471)"/>
        <path id="Path_1392" data-name="Path 1392" class="cls-3" d="M63.114,149.229l-.216.4-4.912,1.237h-.751a55.635,55.635,0,0,1-6.446-4.287c-2.569-2.056-4.292-6.329-5.367-8.736-.1-.229-.2-.45-.292-.634a16.428,16.428,0,0,0-3.6-4.386l1.476-.513h.036l.643-.148a5.11,5.11,0,0,1,3.5.558c1.876,1.161,4.112,6.667,4.112,6.667l1.287,1.84.49,2.1,1.273,1.948,1.35-.373,2.249,2.438L59,147Z" transform="translate(-15.63 39.026)"/>
        <path id="Path_1393" data-name="Path 1393" class="cls-3" d="M136.248,122.1a27.652,27.652,0,0,1,8.421,1.228l1.381.328s5.367,1.8,9.9,8.1a11.7,11.7,0,0,1,1.206,1.885l.585.819-.481-.166c-5.7-1.871-16.568-2.924-30.064-1.646s-24.89,2.249-24.89,2.249a21.824,21.824,0,0,1-2.956-.3,34.351,34.351,0,0,0-4.89.252l-6.635.256-7.265-.058.139-1.278L95.7,132.346s6.446-.531,7.571-.828,9-3.342,9-3.342,8.849-4.881,16.946-5.646C132.168,122.269,134.39,122.121,136.248,122.1Z" transform="translate(6.596 33.353)"/>
        <path id="Path_1394" data-name="Path 1394" class="cls-3" d="M50.58,64.863c-2.011.166-3.716.27-3.716.27s-1.458.189-1.75-1.8a4.223,4.223,0,0,1-.049-.567L47.831,52.6l.207,3.977a14.886,14.886,0,0,0,.747,3.5c.288.742.751,1.988,1.287,3.419C50.233,63.94,50.4,64.4,50.58,64.863Z" transform="translate(-13.618 -6.229)"/>
        <path id="Path_1395" data-name="Path 1395" class="cls-3" d="M61.549,159.492l1.538.9h.031l-.063.247s-2.389,3.851-2.555,4.373-.9.8-1.224,1-.369.6-.45,1.1-.832.927-1.057,1.165-.4.5-.378,1.547,2.11,1.966,2.11,1.966a2.209,2.209,0,0,0,1.768-.1h0l.072.117a1.521,1.521,0,0,1-.495.45,2.033,2.033,0,0,1-1.17,0,.5.5,0,0,0-.589.157c-.126.153-.787,0-.9-.171s-1.026-.391-1.026-.391a5.659,5.659,0,0,1-1.489-2.123c-.409-1.2,1.35-3.306,1.35-3.306Z" transform="translate(-7.61 54.651)"/>
        <path id="Path_1396" data-name="Path 1396" class="cls-3" d="M42.319,148.886l.454,4.71-1.161,5.362H38.5l-1.948-5.1-.319-4.737-.054-.814-.715-2.06v-1.012l2.7-9.258-1.35-15.133v-.009l1.026-4.746v0l1.224-5.677,2.425-.072L43.524,120.8l1.228,15.331L42,145.6v0l.256,2.668Z" transform="translate(-19.086 26.656)"/>
        <path id="Path_1397" data-name="Path 1397" class="cls-3" d="M42.867,108.977l-.31.261-2.213,1.876-2.425.072-.45-1.948Z" transform="translate(-17.943 25.88)"/>
        <path id="Path_1398" data-name="Path 1398" class="cls-3" d="M67.806,55.27h-.229a9.471,9.471,0,0,0-4.049-6.878c1.5-.823,1.948-1.646,2.249-1.273S67.212,49.2,67.806,55.27Z" transform="translate(-3.102 -9.403)"/>
        <path id="Path_1399" data-name="Path 1399" class="cls-3" d="M63.557,134.867c-4.548-10.567-10.225-25.061-11.008-27.473-.823-2.546-2.884-11.282-4.4-19.942-.585-3.338-1.035-6.235-1.35-8.547.139.369,4.678,12.272,6.748,19.344l5.4,18.444,3.073,12.052Z" transform="translate(-12.632 8.753)"/>
        <path id="Path_1400" data-name="Path 1400" class="cls-3" d="M50.411,137.374l1.687,3.86-.409.639-1.35.373L49.066,140.3l-.49-2.1Z" transform="translate(-11.618 42.054)"/>
        <path id="Path_1401" data-name="Path 1401" class="cls-3" d="M45.29,59.441c.292,1.984,1.75,1.8,1.75,1.8s1.7-.1,3.716-.27h0c.342.9.7,1.853,1.048,2.753l-4.319.481a2.335,2.335,0,0,1-2.249-1.521h0c-.094-.693-.247-1.7-.481-3.149Z" transform="translate(-13.794 -2.332)"/>
        <path id="Path_1402" data-name="Path 1402" class="cls-3" d="M91.246,108.942a76.769,76.769,0,0,1,3.45,8.133c.927,3.374,2.191,13.1-6.356,18.219-.6.36-1.183.7-1.736,1.017a19.119,19.119,0,0,0,1.188-2.371c6.905-4.049,6.568-13.945,5.668-17.315a70.086,70.086,0,0,0-3.108-7.648Z" transform="translate(10.041 25.861)"/>
        <path id="Path_1403" data-name="Path 1403" class="cls-3" d="M94.13,116.616c.9,3.374,1.237,13.262-5.668,17.315A31.04,31.04,0,0,0,90.1,128.7c1.5-6.6-2.249-16.8-2.249-16.8H86.3a29.188,29.188,0,0,0-.877-2.816c1.534-.036,3.666-.081,5.583-.13A67.739,67.739,0,0,1,94.13,116.616Z" transform="translate(9.37 25.87)"/>
        <path id="Path_1404" data-name="Path 1404" class="cls-3" d="M138.479,104.935l-5.97-.238h-9.784l-13.635-.513-1.8-1.714s-.688-2.524,1.08-2.866,10.7-.45,10.7-.45,16.91.319,18.048.112,17.994,1.156,17.994,1.156a1.919,1.919,0,0,1,1.413,1.714c0,1.323-.526,1.687-.526,1.687l-1.2,1.2a21.4,21.4,0,0,1-3.176,0c-3.036-.076-10.612,0-10.612,0Z" transform="translate(21.748 20.286)"/>
        <path id="Path_1405" data-name="Path 1405" class="cls-3" d="M44,120.952l1.084,15.3-2.771,9.636.036.13.373,1.291-1.332.828-1.318.823-.256-2.668v0l2.749-9.474-1.228-15.331L39.3,111.019l2.213-1.876Z" transform="translate(-16.9 25.975)"/>
        <path id="Path_1406" data-name="Path 1406" class="cls-3" d="M95.944,132.521s.229.472.6,1.255c-1.431-.04-3.149-.081-5.043-.108-2.9-7.364-6.388-15.6-6.388-15.6L73.959,88.606S72.187,77.36,71,70.918c-.247-1.35-.45-2.456-.643-3.23-1.012-4.5-.562-15.3-.562-15.3a7.716,7.716,0,0,0,2.474,2.6L83.654,63s.864,5.6-.684,18.341c0,0-.634.2,3.32,4.723,2.492,2.848,2.812,4.593,2.7,5.493-.085.256-.175.5-.252.756h0c-5.029,15.133.805,25.979.805,25.979Z" transform="translate(0.413 -6.346)"/>
        <path id="Path_1407" data-name="Path 1407" class="cls-3" d="M87.544,129.233c.18,2.636-1.642,5.308-3.572,7.369h0a30.21,30.21,0,0,1-3.014,2.758l-.247-.027.166-1.579.9-8.43L83.1,117.362l2.7-6.568.144.058C86.968,114.532,87.544,129.233,87.544,129.233Z" transform="translate(6.684 26.915)"/>
        <path id="Path_1408" data-name="Path 1408" class="cls-3" d="M71.56,157.407l1.714-17.094.337.059,7.7.279.324-.076v.076l-1.5,18.165v.144l-.306.045c-3.01.391-9.083-.733-9.083-.733l-.243.238v-.526Z" transform="translate(0.873 43.727)"/>
        <path id="Path_1409" data-name="Path 1409" class="cls-3" d="M47.5,66.084c.846,3.095,1.858,14.454,1.462,18.107v.621s-1.057,6.478-5.7,8.61c-.27-2.893-.315-4.984-.315-4.984s.391-5.794.675-12.627a43.094,43.094,0,0,0-.7-11.44c-.166-.747-.841-3.873-1.3-6a31.409,31.409,0,0,1,5.322,6.365,6.545,6.545,0,0,1,.562,1.35Z" transform="translate(-15.583 -2.943)"/>
        <path id="Path_1410" data-name="Path 1410" class="cls-3" d="M42.688,134.9s1.507.252,3.567,4.71a37.468,37.468,0,0,0,6.374,9.636,12.505,12.505,0,0,0,3.185,2.362l2.848,1.426,1.539,3.522-.189.711-2.249.189-20.392-2.438-.724-.621-1.8-13.311s-.225-3.9,1.574-5.92h.166l.319,4.737,1.948,5.1h3.113l1.17-5.389Z" transform="translate(-19.442 40.644)"/>
        <path id="Path_1411" data-name="Path 1411" class="cls-3" d="M59.044,117.484c-.675.076-.6.526-.6.526a11.594,11.594,0,0,0-.85,1.592l-3.073-12.052,12.371-12.6L82.27,103.21l-.378,6.905c-3.995.45-6.676.976-6.676.976v.157l-.8.022s-7.225.873-8.97,1.323-.9,2.924-.9,2.924l1.885,1.6a2.58,2.58,0,0,0-2.069-.378S59.719,117.408,59.044,117.484Z" transform="translate(-8.231 17.895)"/>
        <path id="Path_1412" data-name="Path 1412" class="cls-3" d="M87.973,83.42l-.139-.814L87.77,85.25h0l-21.9-12.263L48.246,88.134l-.45.675c-.531-3.653-.765-5.79-.765-5.79V82.4c.4-3.653-.616-15.012-1.462-18.107a6.546,6.546,0,0,0-.562-1.35l.144-.076c.067.171.148.211-.067-1.35a2.335,2.335,0,0,0,2.249,1.521l4.319-.481h0c.225.585.45,1.152.661,1.682h0a15.141,15.141,0,0,0,1.66,3.455c.751.526,2.474-1.5,9.375-2.776a16.61,16.61,0,0,1,5.826.805c2.128.9,10.482,3.851,12.555,4.121a1.431,1.431,0,0,0,.288,0,.9.9,0,0,0,.207.081,1.467,1.467,0,0,0,1.907-1.35,12.6,12.6,0,0,0-.238-2.7l1.156-.166C86.232,72.137,88,83.4,88,83.4Z" transform="translate(-13.65 -1.151)"/>
        <path id="Path_1413" data-name="Path 1413" class="cls-3" d="M71.226,65.374l-1.156.166a30.177,30.177,0,0,0-.76-3.068l1.273-.328C70.74,62.909,70.978,64.024,71.226,65.374Z" transform="translate(0.191 -0.793)"/>
        <path id="Path_1414" data-name="Path 1414" class="cls-3" d="M86.718,83.436l.535,6.3L87.2,100.256h-.382l-18.143-11.2L53.532,103.99c-2.069-7.058-6.608-18.961-6.748-19.344h0l.45-.675L64.855,68.825l21.9,12.263h0Z" transform="translate(-12.638 3.012)"/>
        <path id="Path_1415" data-name="Path 1415" class="cls-3" d="M97.41,105.719h0c1.835.112,3.711.22,5.3.31l.85.045,3.306.184a25.63,25.63,0,0,0,4.22-.225c1.125-.283,5-.864,5-.864a1.923,1.923,0,0,1,1.521,1.624c.085,1.323-.423,1.714-.423,1.714l-1.152,1.3a45.832,45.832,0,0,1-7.45,1.206c-.67.027-1.583.054-2.609.081l-.9.027c-1.916.049-4.049.094-5.583.13h-2.15l-1.583.031-7.3.135-4.233-.022-5.749-.031-.139.036h-.711l-9.222-.054-4.58-.04h-.936l-1.9-1.606s-.841-2.474.9-2.924,8.97-1.323,8.97-1.323l.8-.022c1.228-.036,3.738-.1,6.568-.157,1.921-.04,3.986-.072,5.9-.081,2.7-.022,5.074,0,6.329.094C91.958,105.391,94.643,105.557,97.41,105.719Z" transform="translate(-4.666 23.712)"/>
        <path id="Path_1416" data-name="Path 1416" class="cls-3" d="M76.052,138.88l3.239,5.893-.553.175c-2.447.747-12.375,3.626-17.216,2.447a38.687,38.687,0,0,0,3.221-12.744c.6-7.423-.9-19.272-2.173-20.77s-1.876-3.522-5.547-3.747c0,0-.076-.45.6-.526s5.322-.751,5.322-.751a2.58,2.58,0,0,1,2.069.378,4.982,4.982,0,0,0,.571.391c1.35.81,4.107,2.083,4.107,2.083s3.675,2.623,4.274,12.969l.576,9A12.412,12.412,0,0,0,76.052,138.88Z" transform="translate(-6.808 25.771)"/>
        <path id="Path_1417" data-name="Path 1417" class="cls-3" d="M37.174,147.947l.036,3.077a12.375,12.375,0,0,1-2.051-2.816l1.3-.9h0Z" transform="translate(-19.259 47.712)"/>
        <path id="Path_1418" data-name="Path 1418" class="cls-3" d="M42,146.033l-.45.13-.036-.13L44.3,136.4l-1.084-15.3L40.7,109.293l.31-.261,1.089-.153,3.338,11.849,2.735,23.689-4.049.945a4.563,4.563,0,0,0-.643.148h-.036Z" transform="translate(-16.104 25.825)"/>
        <path id="Path_1419" data-name="Path 1419" class="cls-3" d="M64.088,160.47l-1.273,5.925a1.408,1.408,0,0,0-.6.976,2.906,2.906,0,0,1-.324,1.314,3.374,3.374,0,0,0-.31,1.183,1.84,1.84,0,0,1-.954,1.5h0a2.209,2.209,0,0,1-1.768.1s-2.083-.927-2.11-1.966.153-1.309.378-1.547.972-.675,1.057-1.165.139-.9.45-1.1,1.053-.477,1.224-1,2.555-4.373,2.555-4.373l.063-.247Z" transform="translate(-6.963 54.983)"/>
        <path id="Path_1420" data-name="Path 1420" class="cls-3" d="M50.009,147.764s2.551-3.261,2.551-3.414l.166-.18a4.21,4.21,0,0,1,.544.855c.6,1.165,3.338,7.612,3.338,7.612l-5.061-1.35Z" transform="translate(-10.802 45.924)"/>
        <path id="Path_1421" data-name="Path 1421" class="cls-3" d="M38.25,111.089l-1.228,5.677c-.058-.7-.1-1.278-.135-1.7h0l.9-5.92Z" transform="translate(-18.275 25.977)"/>
        <path id="Path_1422" data-name="Path 1422" class="cls-3" d="M60.8,131.8c-.225,1.462,2.047,2.51,2.047,2.51,4.84,1.179,14.769-1.7,17.216-2.447l.045.157c-2.7.823-7.423,2.4-9.636,4.049a21.172,21.172,0,0,1-7.949,3.657h-.031a1.377,1.377,0,0,0-.342-.846c-.45-.486-2.7-3.486-2.7-3.486s-.481-.45-1.988,0c-.45.126-1.489.544-2.762,1.066a22.528,22.528,0,0,0,3.149-1.768,12.083,12.083,0,0,0,2.915-2.924Z" transform="translate(-8.131 38.859)"/>
        <path id="Path_1423" data-name="Path 1423" class="cls-3" d="M69.4,159.653l1.489-7.36h.252v-.288l.256-.274s6.073,1.125,9.083.733l.306-.045.423,8.228v.756a41.442,41.442,0,0,1-6.842-.225,36.507,36.507,0,0,1-4.665-.756Z" transform="translate(0.245 50.231)"/>
        <path id="Path_1424" data-name="Path 1424" class="cls-3" d="M63.1,153.528H58.072l-21.593-2.735-.036-3.077,20.392,2.438,2.249-.189.189.189Z" transform="translate(-18.528 47.944)"/>
        <path id="Path_1425" data-name="Path 1425" class="cls-3" d="M157.788,130.833c5.263,1.876,6.051,4.7,6.343,9.357.3,4.8-1.125,9.748-3.149,12.519s-7.648,3.45-7.648,3.45l-12.519,4.35c-10.423,2.924-11.174,5.173-19.794,7.423s-10.2.3-10.2.3h2.7c1.435,0,7.171-1.826,7.171-1.826s2.726-1.462,2.5-2.978c0,0-.054-.733,1.3-7.423s-2.128-9.505-2.128-9.505-1.08-1.516-5.182-3.428-18.871-2.879-18.871-2.879c-10.347-6.977-17.738-7.58-17.738-7.58h-.1l.1-.981v-.189l7.265.058,6.635-.256a34.353,34.353,0,0,1,4.89-.252,21.822,21.822,0,0,0,2.956.3s11.395-.976,24.89-2.249,24.369-.225,30.064,1.646Z" transform="translate(6.546 36.99)"/>
        <path id="Path_1426" data-name="Path 1426" class="cls-3" d="M62.869,113.388c1.273,1.5,2.776,13.347,2.173,20.77a38.687,38.687,0,0,1-3.2,12.744s-2.249-1.048-2.047-2.51l-.036-.027a11.116,11.116,0,0,0,1.583-3.1,13.877,13.877,0,0,0,.261-4.741h.139s1.723-6.748-2.924-17.4c-.252-.576-.508-1.165-.765-1.768l-1.561-6.123a11.591,11.591,0,0,1,.85-1.592C60.993,109.866,61.6,111.89,62.869,113.388Z" transform="translate(-7.108 26.264)"/>
        <path id="Path_1427" data-name="Path 1427" class="cls-3" d="M46.83,76.227s.045.85.144,1.966c-.04-.238-.081-.481-.126-.738C45.377,68.777,40.7,65.61,40.51,65.511h0c-.1-1.772-.126-3.1-.126-3.1A166.317,166.317,0,0,1,42.534,41.4l1.111-4.5c1.5-4.683,2.632-8.048,4.764-10.185h0l1.637-1.246a11.786,11.786,0,0,1,5.182-1.44c7.535-.562,15.97,4.386,15.97,4.386s.589.171,1.561,1.507a.211.211,0,0,0,.027.04,14.3,14.3,0,0,1,.8,1.255l9.024,27.913-.1.031c0,.054.036,1.192.054,1.242a35.291,35.291,0,0,0,3.936,8.151s-.45,10.8.562,15.3l-1.273.328c-.855-2.834-2.051-5.709-2.776-7.607L82.792,76a32.012,32.012,0,0,1-1.651-5.772c-.045-.657-.094-1.269-.153-1.844-.594-6.069-1.745-7.787-2.02-8.129s-.751.45-2.249,1.273a5.115,5.115,0,0,1-1.314.481h-.036a10.706,10.706,0,0,1-1.8.243,25.12,25.12,0,0,1-3.882-.117c-.76-.076-1.417-.148-2.1-.261a38.275,38.275,0,0,1-7.463-2.326l-1.7-.63h0l-.778-.306h0c-3.185-1.255-4.836-1.966-5.772-2.362a3.524,3.524,0,0,0-1.39-.45c-.1,0-.171.364-.211.972,0,.22-.027.45-.036.747h0c-.04,1.327,0,3.248.031,5.115h0a.9.9,0,0,0-.058.162Z" transform="translate(-16.283 -22.523)"/>
        <path id="Path_1428" data-name="Path 1428" class="cls-3" d="M79.245,151.7l.058,1.61.139,3.7,1.912-.5.337,2.11s.733.477-2.335,1.291a.76.76,0,0,1-.117.9,1.876,1.876,0,0,1-.841.45,6.156,6.156,0,0,1-1.309.225v-.756l-.432-8.178c2.659-.391,2.11-.994,2.11-.994Z" transform="translate(4.376 50.133)"/>
        <path id="Path_1429" data-name="Path 1429" class="cls-3" d="M78.768,163.19s.549.6-2.11.994v-.121l1.777-.675,1.714-18.039,1.008-.238,1.5-14.013h.1s7.382.6,17.738,7.58a49.842,49.842,0,0,1,11.7,9.735c4.773,5.736,8.853,10.464,8.853,10.464l1.912,3.315-.085,2.7s-5.736,1.822-7.171,1.826h-2.7l-33.325-1.8h-.364l-.058-1.61Z" transform="translate(4.376 38.479)"/>
        <path id="Path_1430" data-name="Path 1430" class="cls-3" d="M46.7,50.734c-.045-1.867-.072-3.788-.031-5.115h0a4.8,4.8,0,0,1,.036-.747,22.794,22.794,0,0,1,1.093,4.449c.148.9.283,1.925.382,3.081h0c.1,1.152.166,2.434.175,3.837a28.457,28.457,0,0,0,.846,5.448c.121.4.27.945.45,1.588.414,1.6.931,3.81,1.3,5.871.175,1,.319,1.961.4,2.8a11.571,11.571,0,0,1,.058,1.75c-.216-.531-.45-1.1-.661-1.682h0c-.351-.9-.706-1.844-1.048-2.753h0c-.175-.45-.346-.922-.508-1.35-.535-1.431-1-2.677-1.287-3.419a14.886,14.886,0,0,1-.747-3.5l-.207-3.977h0l-.031-.58c-.027-.7-.135-3.149-.2-5.673Z" transform="translate(-12.717 -10.63)"/>
        <path id="Path_1431" data-name="Path 1431" class="cls-3" d="M44.887,65.7c-.076-.45-.157-.958-.252-1.507v-.022c-.1-1.116-.144-1.966-.144-1.966l3.374-13.428a.9.9,0,0,1,.058-.162c.067,2.542.175,4.975.2,5.673l.031.58h0L45.391,65.032a4.222,4.222,0,0,0,.049.567Z" transform="translate(-13.944 -8.5)"/>
        <path id="Path_1432" data-name="Path 1432" class="cls-3" d="M80.99,139.341A30.215,30.215,0,0,0,84,136.583h0c1.93-2.06,3.752-4.732,3.572-7.369,0,0-.576-14.7-1.628-18.372h4.624s3.752,10.2,2.249,16.8a31.041,31.041,0,0,1-1.642,5.227,19.122,19.122,0,0,1-1.188,2.371,8.37,8.37,0,0,1-.994,1.4A20.324,20.324,0,0,1,84,139.309c-.27.1-.549.2-.832.288a16.806,16.806,0,0,1-2.533.6l.067-.63.027-.243Z" transform="translate(6.644 26.943)"/>
        <path id="Path_1433" data-name="Path 1433" class="cls-3" d="M37.138,135.28l.054.814h-.166c-1.8,2.024-1.574,5.92-1.574,5.92l1.8,13.311h0l-1.3.9h0c-.081-.153-.121-.238-.121-.238s-1.35-7.2-1.97-13.887,2.569-8.885,2.569-8.885Z" transform="translate(-20.046 39.685)"/>
        <path id="Path_1434" data-name="Path 1434" class="cls-3" d="M115.9,142.243s3.477,2.812,2.128,9.505-1.3,7.423-1.3,7.423c.225,1.516-2.5,2.978-2.5,2.978l.085-2.7-1.912-3.315s-4.076-4.728-8.853-10.464a49.94,49.94,0,0,0-11.7-9.735s14.764.967,18.871,2.879S115.9,142.243,115.9,142.243Z" transform="translate(13.03 41.235)"/>
        <path id="Path_1435" data-name="Path 1435" class="cls-3" d="M97.53,134.7s.495.99,1.237,2.515l-.805-.027c-.373-.783-.6-1.255-.6-1.255l-6.406-14.224s-5.848-10.846-.805-25.979h0a1.579,1.579,0,0,0,.252-.756h0c.342-.958.724-1.93,1.156-2.924,7.423-17.04-3.261-23.338-3.261-23.338L85.06,66.435h0L73.678,58.423a7.525,7.525,0,0,1-2.474-2.6,35.291,35.291,0,0,1-3.936-8.151c0-.049-.036-1.188-.054-1.242l.1-.031.45,1.377c3.374,7.953,6.473,9.366,6.473,9.366L89.374,68.486s10.841,7.468,3.54,22.664c-8.1,16.834-1.408,29.353-1.408,29.353Z" transform="translate(-1.002 -9.758)"/>
        <path id="Path_1436" data-name="Path 1436" class="cls-3" d="M61.522,148.859l-1.2,2.812-3.3.54a16.565,16.565,0,0,1-3.6.846l1.237-2.924.45.076,5.848-1.426.4-.216Z" transform="translate(-8.856 48.429)"/>
        <path id="Path_1437" data-name="Path 1437" class="cls-3" d="M47.763,192.887l4.049-.945-2.735-23.689L45.739,156.4l-1.089.153-5.4.261-.9,5.92-.063-.823a8.691,8.691,0,0,1-.076-4.274,56.924,56.924,0,0,0,.976-14.62c-.378-7.045-1.053-13.194-1.053-13.194s-.747-9.146-1.948-22.641-1.948-20.693-1.8-24.144S36.265,69.4,36.265,69.4s4.346-19.047,5.871-27.666a35.12,35.12,0,0,1,6.172-14.481l1.8-1.8c-1.754,2.038-2.915,4.975-4.314,8.9-.189.531-.369,1.1-.54,1.691l-.981,4.211a154.374,154.374,0,0,0-2.06,20.806c-.346,1.628.45,8.858.45,8.858s1.35,8.606,1.548,9.361,1.093,4.84,1.516,6.415.31,10.4.31,10.4-.675,9.393-.621,13.945,2.7,14.283,3.01,15.547,4.975,14.2,4.975,14.2l5.907,12.794,4.611,8.583s3.459,7.612,5,11.269A47.392,47.392,0,0,1,72.406,183.7a12.452,12.452,0,0,1-.675,6.383s-.279.814-4.274,4.274-11.836,4.777-11.836,4.777l.787,1.152s-.382-.054-1.026-.171c0,0-2.249-5.506-4.112-6.667a5.11,5.11,0,0,0-3.509-.562Z" transform="translate(-19.708 -21.691)"/>
        <path id="Path_1438" data-name="Path 1438" class="cls-3" d="M89.624,109.091l-4.292,9.415-1.6,13.815-3.019,26.11-7.7-.279-.337-.058-1.125-.166.2-3.77.679-8.147.139-1.673,1.876-22.4.229-2.731-2.474-10,.139-.036,5.749.031,4.233.023Z" transform="translate(1.469 25.946)"/>
        <path id="Path_1439" data-name="Path 1439" class="cls-3" d="M54.84,47.369h0a22,22,0,0,1,3.149,4.539h0a68.45,68.45,0,0,1,5.227,12.038s1.723,7.274-.823,10.8c-6.878,1.269-8.6,3.293-9.352,2.767a15.787,15.787,0,0,1-1.66-3.455h0a11.57,11.57,0,0,0-.058-1.75c-.081-.841-.225-1.8-.4-2.8-.369-2.06-.9-4.269-1.3-5.871-.171-.643-.319-1.192-.45-1.588a28.457,28.457,0,0,1-.846-5.448c0-1.4-.076-2.7-.175-3.837h0c-.1-1.156-.234-2.186-.382-3.082a22.793,22.793,0,0,0-1.093-4.449c.04-.607.108-.972.211-.972a4.041,4.041,0,0,1,1.39.45c.868.355,2.587,1.107,5.772,2.362h0Z" transform="translate(-12.7 -10.981)"/>
        <path id="Path_1440" data-name="Path 1440" class="cls-3" d="M77.74,144.352s-.828.22-2.065.594l-.045-.157.553-.175-3.239-5.893a12.412,12.412,0,0,1-1.512-5.2l-.576-9c-.6-10.347-4.274-12.969-4.274-12.969s-2.762-1.273-4.107-2.083l.364-.382,4.58.04,9.24.085h.711l2.474,10-.229,2.731Z" transform="translate(-3.701 25.944)"/>
        <path id="Path_1441" data-name="Path 1441" class="cls-3" d="M69.275,154.472a35.6,35.6,0,0,0-1.939-7.616s-1.714-4.782-4.076-9.843-4.274-8.3-4.274-8.3l-6.662-13.41S46.98,101.42,44.758,94.924a50.989,50.989,0,0,1-2.1-11.1c4.642-2.132,5.7-8.61,5.7-8.61s.234,2.137.765,5.79h0c.333,2.3.783,5.2,1.35,8.547,1.521,8.66,3.6,17.4,4.4,19.942.783,2.411,6.46,16.906,11.008,27.473.256.6.513,1.192.765,1.768,4.647,10.648,2.924,17.4,2.924,17.4h-.139A12.911,12.911,0,0,0,69.275,154.472Z" transform="translate(-14.989 6.652)"/>
        <path id="Path_1442" data-name="Path 1442" class="cls-3" d="M84.19,87.7c.108-.9-.211-2.645-2.7-5.493-3.954-4.5-3.32-4.723-3.32-4.723,1.548-12.744.684-18.341.684-18.341h0l3.234,2.276s10.684,6.3,3.261,23.338c-.45.994-.814,1.966-1.156,2.924h0Z" transform="translate(5.216 -2.501)"/>
        <path id="Path_1443" data-name="Path 1443" class="cls-3" d="M76.454,63.911s-.216,2.569-.274,5.4a4.049,4.049,0,0,1-.49,1.75c0,.049-.049.1-.076.148a14.731,14.731,0,0,1-3.657,4c-.09-.04-.162-.072-.216-.09a19.821,19.821,0,0,0-12.295-1.5c2.546-3.5.823-10.8.823-10.8a68.451,68.451,0,0,0-5.227-12.038h0a23.859,23.859,0,0,0-3.149-4.539l1.682.648a38.275,38.275,0,0,0,7.463,2.326c.679.112,1.35.184,2.1.261a25.119,25.119,0,0,0,3.882.117,10.705,10.705,0,0,0,1.8-.243h.036a5.114,5.114,0,0,0,1.314-.481,9.5,9.5,0,0,1,4.049,6.878h.229c.058.576.108,1.188.153,1.844a32.013,32.013,0,0,0,1.651,5.772Z" transform="translate(-9.729 -9.848)"/>
        <path id="Path_1444" data-name="Path 1444" class="cls-3" d="M87.868,109.071h.9v.022l-1.1,2.7-2.7,6.568-1.3,11.953-.9,8.43-.166,1.579-.027.243-.067.63-.139,1.278h0v.189l-.1.981-1.5,14.013-1.008.238-2.011.472-.324.076,3.019-26.092,1.6-13.815,4.292-9.415Z" transform="translate(4.809 25.934)"/>
        <path id="Path_1445" data-name="Path 1445" class="cls-1" d="M132.9,102.936l-5.173,8.43-4.944,23.271-1.381-.328,4.35-23.033,4.611-8.439Z" transform="translate(29.861 22.384)"/>
        <path id="Path_1446" data-name="Path 1446" class="cls-5" d="M61.666,164.526l2.753-6.667a4.863,4.863,0,0,1,2.029-2.407h0l9.613-3.464H72.575l-6.8,2.249a4.426,4.426,0,0,0-2.308,1.925c-1.071,1.615-3.374,7.913-3.374,7.913Z" transform="translate(-5.059 50.378)"/>
        <path id="Path_1447" data-name="Path 1447" class="cls-5" d="M63.137,160.54s-2.389,3.855-2.56,4.373-.9.8-1.219,1-.369.6-.45,1.1-.832.927-1.057,1.165-.4.508-.378,1.548,2.11,1.966,2.11,1.966a2.218,2.218,0,0,0,1.768-.094,1.853,1.853,0,0,0,.958-1.507,3.352,3.352,0,0,1,.31-1.179,2.946,2.946,0,0,0,.319-1.318,1.408,1.408,0,0,1,.6-.976l1.273-5.92-1.651-.409-1.534-.9-4.539,6.928s-1.741,2.105-1.35,3.3a5.614,5.614,0,0,0,1.489,2.123s.9.211,1.026.391.774.324.9.171a.513.513,0,0,1,.589-.157,2.074,2.074,0,0,0,1.17,0,1.767,1.767,0,0,0,.576-.549" transform="translate(-7.569 54.589)"/>
        <path id="Path_1448" data-name="Path 1448" class="cls-5" d="M47.55,25.477c-.076.067-.153.139-.225.216h0c-2.146,2.137-3.266,5.515-4.764,10.135l-.067.207" transform="translate(-15.082 -21.676)"/>
        <path id="Path_1449" data-name="Path 1449" class="cls-5" d="M98.033,137.071c-.373-.783-.6-1.255-.6-1.255l-6.406-14.224s-5.848-10.846-.805-25.979h0c.081-.261.171-.513.261-.778h0c.342-.958.724-1.93,1.156-2.924,7.427-17.063-3.257-23.361-3.257-23.361L85.144,66.3,73.759,58.288a7.526,7.526,0,0,1-2.474-2.6,35.292,35.292,0,0,1-3.936-8.151c0-.049-.036-1.188-.054-1.242" transform="translate(-0.957 -9.817)"/>
        <path id="Path_1450" data-name="Path 1450" class="cls-5" d="M82.857,127.131h0" transform="translate(7.907 36.22)"/>
        <line id="Line_307" data-name="Line 307" class="cls-5" x1="0.009" y1="0.099" transform="translate(87.751 166.108)"/>
        <path id="Path_1451" data-name="Path 1451" class="cls-5" d="M89.994,108.848A73.574,73.574,0,0,1,93.1,116.5c.9,3.374,1.237,13.262-5.668,17.315" transform="translate(10.514 25.807)"/>
        <path id="Path_1452" data-name="Path 1452" class="cls-5" d="M91.321,108.83a76.77,76.77,0,0,1,3.45,8.133c.927,3.374,2.191,13.1-6.356,18.219-.6.36-1.183.7-1.736,1.017" transform="translate(10.083 25.797)"/>
        <path id="Path_1453" data-name="Path 1453" class="cls-5" d="M48.856,136.777s-.382-.054-1.026-.171" transform="translate(-12.042 41.617)"/>
        <path id="Path_1454" data-name="Path 1454" class="cls-5" d="M50.175,25.334l-1.8,1.8a35.12,35.12,0,0,0-6.2,14.472c-1.525,8.619-5.848,27.666-5.848,27.666S34.6,79.465,34.452,82.915s.6,10.648,1.8,24.144S38.2,129.7,38.2,129.7s.675,6.15,1.053,13.194a56.925,56.925,0,0,1-.976,14.62,8.691,8.691,0,0,0,.076,4.274l.063.823h0c.031.423.076,1,.135,1.7h0" transform="translate(-19.672 -21.758)"/>
        <line id="Line_308" data-name="Line 308" class="cls-5" y1="0.004" transform="translate(23.035 172.082)"/>
        <path id="Path_1455" data-name="Path 1455" class="cls-5" d="M42.393,149.55l.454,4.71-1.161,5.362H38.574l-1.948-5.1-.373-5.551-.715-2.06V145.9l2.7-9.258-1.35-15.133V121.5l-.036-.418.927-6.033v0l.909-5.92,5.4-.261-.31.261L41.561,111,43.6,121.461l1.228,15.331-2.749,9.474v0l.256,2.668Z" transform="translate(-19.044 25.817)"/>
        <path id="Path_1456" data-name="Path 1456" class="cls-5" d="M40.421,110.907,38,110.983l-.45-1.952" transform="translate(-17.899 25.911)"/>
        <line id="Line_309" data-name="Line 309" class="cls-5" y1="10.432" x2="2.249" transform="translate(17.848 136.895)"/>
        <path id="Path_1457" data-name="Path 1457" class="cls-5" d="M41.308,109.031,43.8,120.84l1.084,15.3-2.771,9.636.409,1.422-1.332.828-1.318.823" transform="translate(-16.577 25.911)"/>
        <path id="Path_1458" data-name="Path 1458" class="cls-5" d="M69.873,52.276s-.45,10.8.562,15.3,3.6,20.918,3.6,20.918L85.19,117.954s3.486,8.232,6.388,15.6" transform="translate(0.455 -6.413)"/>
        <line id="Line_310" data-name="Line 310" class="cls-5" x1="0.004" transform="translate(92.861 129.256)"/>
        <path id="Path_1459" data-name="Path 1459" class="cls-5" d="M86.394,111.747a24.926,24.926,0,0,0-.9-2.816" transform="translate(9.409 25.854)"/>
        <path id="Path_1460" data-name="Path 1460" class="cls-5" d="M77.8,120.874,72.971,79.807l-.148-3.392-.261-1.575-.126,4.993.535,6.307-.036,12.074-.112,8.808-.409,7.468-.378,6.9" transform="translate(1.743 6.438)"/>
        <path id="Path_1461" data-name="Path 1461" class="cls-5" d="M69.679,156.026s1.723-6.748-2.924-17.391-10.949-26.694-11.773-29.241-2.888-11.287-4.4-19.947-2.137-14.355-2.137-14.355-1.057,6.482-5.7,8.61" transform="translate(-14.943 6.582)"/>
        <path id="Path_1462" data-name="Path 1462" class="cls-5" d="M49.69,88.6c.391-3.653-.621-15.012-1.462-18.107s-5.884-7.715-5.884-7.715-1.682-9.366-1.8-12.465c0,0,4.84,3.117,6.343,11.971s.873,6.608.873,6.608" transform="translate(-16.192 -7.53)"/>
        <path id="Path_1463" data-name="Path 1463" class="cls-5" d="M78.929,59.043s.864,5.592-.684,18.341c0,0-.634.2,3.32,4.723S84,88.364,84,88.364" transform="translate(5.259 -2.559)"/>
        <path id="Path_1464" data-name="Path 1464" class="cls-5" d="M52.031,69.763h0l-4.319.481a2.335,2.335,0,0,1-2.249-1.521h0a23.264,23.264,0,0,1-.733-4.647h0c-.1-1.116-.144-1.966-.144-1.966L47.96,48.683a.9.9,0,0,1,.058-.162h0" transform="translate(-13.89 -8.552)"/>
        <path id="Path_1465" data-name="Path 1465" class="cls-5" d="M47.908,52.485h0L45.142,62.652c.076,2.587,1.8,2.362,1.8,2.362s1.7-.1,3.716-.27h0" transform="translate(-13.574 -6.294)"/>
        <path id="Path_1466" data-name="Path 1466" class="cls-5" d="M45.692,60.5s1.876-.112,3.185-.261a1.183,1.183,0,0,0,.958-.805" transform="translate(-13.26 -2.336)"/>
        <path id="Path_1467" data-name="Path 1467" class="cls-5" d="M86.831,80.974l-21.9-12.259L47.311,83.858l-.45.679s4.651,12.169,6.748,19.344" transform="translate(-12.594 2.95)"/>
        <path id="Path_1468" data-name="Path 1468" class="cls-5" d="M84.45,92.787,66.3,81.608,51.161,96.534l5.4,18.444" transform="translate(-10.145 10.293)"/>
        <path id="Path_1469" data-name="Path 1469" class="cls-5" d="M59.231,125.614l-1.561-6.123L54.6,107.44l12.371-12.6L82.344,103.1" transform="translate(-8.188 17.831)"/>
        <line id="Line_311" data-name="Line 311" class="cls-5" x1="0.364" y2="0.382" transform="translate(58.892 134.839)"/>
        <path id="Path_1470" data-name="Path 1470" class="cls-5" d="M113.781,168.12h-2.915s1.574,1.948,10.194-.3,9.375-4.5,19.794-7.423l12.515-4.341s5.623-.675,7.648-3.446,3.446-7.724,3.149-12.524-1.125-7.648-6.824-9.519-16.568-2.924-30.064-1.651-24.895,2.249-24.895,2.249a21.771,21.771,0,0,1-2.951-.3,34.9,34.9,0,0,0-4.89.256l-6.635.252-7.283-.058v.481" transform="translate(6.634 36.918)"/>
        <path id="Path_1471" data-name="Path 1471" class="cls-5" d="M116.8,159.059s-.058-.733,1.291-7.423-2.123-9.505-2.123-9.505-1.08-1.516-5.187-3.428-18.867-2.879-18.867-2.879a49.841,49.841,0,0,1,11.7,9.735c4.773,5.736,8.849,10.464,8.849,10.464l1.912,3.315-.085,2.7S117.04,160.575,116.8,159.059Z" transform="translate(13.064 41.171)"/>
        <path id="Path_1472" data-name="Path 1472" class="cls-5" d="M80.622,130.983s7.382.6,17.738,7.58" transform="translate(6.634 38.414)"/>
        <line id="Line_312" data-name="Line 312" class="cls-5" x2="33.33" y2="1.79" transform="translate(84.161 203.257)"/>
        <path id="Path_1473" data-name="Path 1473" class="cls-6" d="M72.559,158.049l7.7.279,2.335-.549,1.008-.238,1.606-14.994v-.189l.139-1.278.067-.63.193-1.822.9-8.43,1.323-11.962,3.783-9.271" transform="translate(2.042 25.874)"/>
        <path id="Path_1474" data-name="Path 1474" class="cls-6" d="M77.466,158.328l3.019-26.11,1.6-13.815,4.305-9.438" transform="translate(4.837 25.874)"/>
        <path id="Path_1475" data-name="Path 1475" class="cls-6" d="M121.174,135.07l3.207-21.786-1.579-8.7-13.635-.508-1.8-1.718s-.688-2.524,1.08-2.861,10.7-.45,10.7-.45,16.91.324,18.053.112,17.994,1.156,17.994,1.156a1.919,1.919,0,0,1,1.413,1.714c0,1.323-.526,1.687-.526,1.687l-1.233,1.219a21.4,21.4,0,0,1-3.176,0c-3.037-.076-10.612,0-10.612,0l-8.511-.337H122.8" transform="translate(21.792 20.224)"/>
        <path id="Path_1476" data-name="Path 1476" class="cls-5" d="M132.48,102.789l-5.173,8.43-4.948,23.271s5.371,1.8,9.9,8.1a11.7,11.7,0,0,1,1.21,1.885l.589.823" transform="translate(30.405 22.356)"/>
        <path id="Path_1477" data-name="Path 1477" class="cls-6" d="M78.228,140.615l-1.5,18.165,1.777-.675,1.714-18.039" transform="translate(4.417 43.587)"/>
        <path id="Path_1478" data-name="Path 1478" class="cls-6" d="M83.563,159.828a.76.76,0,0,1-.117.9,1.876,1.876,0,0,1-.841.45,6.154,6.154,0,0,1-1.309.225,41.444,41.444,0,0,1-6.842-.225,36.509,36.509,0,0,1-4.665-.756l-.31-.787,1.489-7.36.252-.27.256-.274s6.073,1.125,9.083.733l.306-.045c2.659-.391,2.11-.994,2.11-.994l.477.166.2,5.313,1.912-.5.337,2.11S86.631,159,83.563,159.828Z" transform="translate(0.287 50.056)"/>
        <path id="Path_1479" data-name="Path 1479" class="cls-6" d="M76.73,151.989l0,.121.423,8.228" transform="translate(4.417 50.378)"/>
        <path id="Path_1480" data-name="Path 1480" class="cls-5" d="M80.719,144.72,95.731,143.3s6.446-.526,7.571-.828,9-3.342,9-3.342,8.849-4.881,16.946-5.641,10.7-.526,15.452.8l4.35-23.037,1.4-2.559,3.34-6.119" transform="translate(6.689 22.234)"/>
        <path id="Path_1481" data-name="Path 1481" class="cls-6" d="M93.931,111.3l5.749.031h4.233l8.885-.166,1.876-.036h.256c1.534-.036,3.666-.081,5.583-.13l.9-.027c1.026-.027,1.939-.054,2.609-.081a45.833,45.833,0,0,0,7.45-1.206l1.152-1.3s.5-.391.423-1.714a1.918,1.918,0,0,0-1.52-1.624s-3.851.585-4.975.864a26.155,26.155,0,0,1-4.22.225l-3.306-.184-.85-.045c-1.588-.09-3.464-.2-5.3-.31h0c-2.767-.162-5.452-.328-6.959-.45-1.255-.1-3.644-.117-6.329-.094-1.912,0-3.977.04-5.9.081-4,.076-7.369.18-7.369.18s-7.225.873-8.97,1.323-.9,2.924-.9,2.924l1.885,1.6h.936l4.58.04,9.24.085H93.8L96.275,121.3l-.229,2.731L94.03,148.1l-.679,8.147-.2,3.77,1.125.166L92.564,177.28l-1.044.589v.819h-.252L68.29,176.794a16.565,16.565,0,0,1-3.6.846H59.666L38.073,174.9a12.29,12.29,0,0,1-2.051-2.821c-.081-.153-.121-.238-.121-.238s-1.35-7.2-1.97-13.887,2.573-8.871,2.573-8.871" transform="translate(-20.005 23.642)"/>
        <path id="Path_1482" data-name="Path 1482" class="cls-5" d="M40.983,108.92l1.089-.153,3.338,11.849,2.735,23.689-4.031.945-.643.148" transform="translate(-15.942 25.761)"/>
        <path id="Path_1483" data-name="Path 1483" class="cls-5" d="M42.545,132.2h.036a4.565,4.565,0,0,1,.643-.148,5.11,5.11,0,0,1,3.5.558c1.876,1.161,4.112,6.667,4.112,6.667l1.287,1.84.49,2.1,1.273,1.948,1.35-.373,2.249,2.438,1.048-.337,4.575,2.474,4.723,8.772-1.2,2.8-3.3.54" transform="translate(-15.052 38.967)"/>
        <path id="Path_1484" data-name="Path 1484" class="cls-5" d="M43.081,132.112l-1.476.513a16.429,16.429,0,0,1,3.6,4.386c.09.193.189.4.292.634,1.075,2.407,2.8,6.68,5.367,8.736a56.126,56.126,0,0,0,6.487,4.31s.225-.148.823,1.012,3.338,7.612,3.338,7.612l-1.237,2.924-3.824-3.374" transform="translate(-15.588 39.057)"/>
        <line id="Line_313" data-name="Line 313" class="cls-5" y1="1.426" x2="5.848" transform="translate(46.373 197.022)"/>
        <line id="Line_314" data-name="Line 314" class="cls-5" y1="1.237" x2="4.908" transform="translate(42.477 188.475)"/>
        <path id="Path_1485" data-name="Path 1485" class="cls-5" d="M36.5,135.038c-1.8,2.024-1.574,5.92-1.574,5.92l1.8,13.311.711.634,20.392,2.438,2.249-.189.189-.711-1.539-3.522-2.848-1.426a12.505,12.505,0,0,1-3.185-2.362,37.468,37.468,0,0,1-6.374-9.636c-2.06-4.458-3.567-4.71-3.567-4.71" transform="translate(-19.4 40.58)"/>
        <path id="Path_1486" data-name="Path 1486" class="cls-5" d="M52.632,144.167c0,.148-2.546,3.41-2.546,3.41" transform="translate(-10.758 45.923)"/>
        <line id="Line_315" data-name="Line 315" class="cls-5" x1="5.061" y1="1.35" transform="translate(40.862 197.022)"/>
        <line id="Line_316" data-name="Line 316" class="cls-5" x1="0.04" y1="3.073" transform="translate(18.032 195.488)"/>
        <line id="Line_317" data-name="Line 317" class="cls-5" y1="0.895" x2="1.3" transform="translate(16.021 194.849)"/>
        <path id="Path_1487" data-name="Path 1487" class="cls-5" d="M79.409,131.436s-8.48,2.249-11.7,4.647a21.053,21.053,0,0,1-7.953,3.639" transform="translate(-5.248 38.672)"/>
        <path id="Path_1488" data-name="Path 1488" class="cls-5" d="M48.653,138.09l1.835-.828,1.687,3.864-.414.634" transform="translate(-11.574 41.99)"/>
        <path id="Path_1489" data-name="Path 1489" class="cls-5" d="M51.716,143.412l.337.45s1.012-.041,1.089-.45,1.161-1.462,1.723-1.278,2.065.369,2.362-.022a5.687,5.687,0,0,1,1.012-.814c.184-.126.373-.243.558-.346a2.25,2.25,0,0,1,.832-.351c.45,0,1.876.495,2.141.45s1.682-1.534,2.056-1.534a2.611,2.611,0,0,0,1.426-.562,1.444,1.444,0,0,0-.265-1.426c-.45-.486-2.7-3.486-2.7-3.486s-.477-.45-1.984,0-10.387,4.31-10.387,4.31v.58Z" transform="translate(-10.854 40.042)"/>
        <path id="Path_1490" data-name="Path 1490" class="cls-5" d="M50.49,138.582l9.9-3.635L62.6,137.74" transform="translate(-10.527 40.671)"/>
        <path id="Path_1491" data-name="Path 1491" class="cls-6" d="M67.782,105.731s2.7-.517,6.676-.976c1.714-.2,3.671-.382,5.763-.513,1.35-.081,2.744-.139,4.17-.166,2.879-.049,5.758-.036,8.322,0,1.889.027,3.6.067,5.043.108l.805.027c1.093.031,1.97.067,2.56.09s1.1.067,1.651.139l9.447,1.2" transform="translate(-0.679 23.071)"/>
        <path id="Path_1492" data-name="Path 1492" class="cls-5" d="M51.458,73.582h0a11.568,11.568,0,0,0-.058-1.75c-.081-.841-.225-1.8-.4-2.8-.369-2.06-.9-4.269-1.3-5.848-.171-.643-.319-1.192-.45-1.588a28.458,28.458,0,0,1-.846-5.448c0-1.4-.076-2.7-.175-3.837h0c-.1-1.156-.234-2.186-.382-3.082a22.794,22.794,0,0,0-1.093-4.449" transform="translate(-12.656 -10.684)"/>
        <path id="Path_1493" data-name="Path 1493" class="cls-5" d="M51.955,46.128h0A22,22,0,0,1,55.1,50.667h0A68.451,68.451,0,0,1,60.331,62.7s1.723,7.274-.823,10.8a16.611,16.611,0,0,1,5.826.805c2.128.9,10.482,3.851,12.555,4.121a1.431,1.431,0,0,0,.288.023" transform="translate(-9.693 -9.915)"/>
        <path id="Path_1494" data-name="Path 1494" class="cls-5" d="M64.752,68.678a14.731,14.731,0,0,0,3.657-4c.027-.049.054-.1.076-.148a4.049,4.049,0,0,0,.49-1.75c.058-2.812.274-5.4.274-5.4" transform="translate(-2.405 -3.508)"/>
        <path id="Path_1495" data-name="Path 1495" class="cls-5" d="M63.608,47.8a9.486,9.486,0,0,1,4.049,6.878" transform="translate(-3.056 -8.963)"/>
        <path id="Path_1496" data-name="Path 1496" class="cls-5" d="M63.02,108.744s-4.647.675-5.322.747-.6.526-.6.526c3.671.225,4.274,2.249,5.547,3.747s2.776,13.347,2.173,20.77A38.688,38.688,0,0,1,61.6,147.283c5.547,1.35,17.769-2.623,17.769-2.623l-3.239-5.893a12.411,12.411,0,0,1-1.512-5.2l-.576-9c-.6-10.347-4.274-12.969-4.274-12.969a42.758,42.758,0,0,1-4.683-2.474A2.674,2.674,0,0,0,63.02,108.744Z" transform="translate(-6.764 25.713)"/>
        <path id="Path_1497" data-name="Path 1497" class="cls-5" d="M81.064,139.229a30.213,30.213,0,0,0,3.014-2.758h0c1.93-2.06,3.752-4.732,3.572-7.369,0,0-.571-14.7-1.624-18.372h4.62s3.752,10.2,2.249,16.8a31.04,31.04,0,0,1-1.642,5.227,19.121,19.121,0,0,1-1.188,2.371,8.375,8.375,0,0,1-.994,1.4,20.324,20.324,0,0,1-4.993,2.672c-.27.1-.549.2-.832.288a16.806,16.806,0,0,1-2.533.6" transform="translate(6.686 26.879)"/>
        <path id="Path_1498" data-name="Path 1498" class="cls-5" d="M57.405,109.533a11.594,11.594,0,0,0-.85,1.592" transform="translate(-7.073 26.197)"/>
        <path id="Path_1499" data-name="Path 1499" class="cls-5" d="M60.716,134.187s-2.276-1.048-2.051-2.51" transform="translate(-5.881 38.809)"/>
        <line id="Line_318" data-name="Line 318" class="cls-5" x1="0.004" transform="translate(34.303 45.61)"/>
        <path id="Path_1500" data-name="Path 1500" class="cls-5" d="M54.932,47.259l-.778-.306h0c-3.185-1.255-4.836-1.966-5.772-2.362a3.934,3.934,0,0,0-1.39-.45c-.1,0-.171.364-.211.972,0,.22-.027.45-.036.747h0c-.04,1.327,0,3.248.031,5.115h0c.067,2.542.175,4.975.2,5.673l.031.58h0l.207,3.977a14.887,14.887,0,0,0,.747,3.5c.288.742.751,1.988,1.287,3.419.162.45.333.9.508,1.35h0c.342.9.7,1.853,1.048,2.753h0c.225.585.45,1.152.661,1.682h0a15.141,15.141,0,0,0,1.66,3.455c.751.526,2.474-1.5,9.375-2.776a19.821,19.821,0,0,1,12.295,1.5.761.761,0,0,1,.216.09c.985.45,4,2.249,5.817,3.18l.342.175a.9.9,0,0,0,.207.081,1.467,1.467,0,0,0,1.907-1.35C83.43,74.4,80.767,68.2,79.512,64.911l-.216-.58a32.013,32.013,0,0,1-1.651-5.772c-.522-7.576-1.871-9.6-2.173-9.973s-.751.45-2.249,1.273a5.114,5.114,0,0,1-1.314.481h-.036a10.705,10.705,0,0,1-1.8.243,25.12,25.12,0,0,1-3.882-.117c-.76-.076-1.417-.148-2.1-.261a38.274,38.274,0,0,1-7.463-2.326l-1.7-.594h0" transform="translate(-12.67 -11.046)"/>
        <path id="Path_1501" data-name="Path 1501" class="cls-5" d="M44.341,37.212l-1.111,4.5a171.061,171.061,0,0,0-2.15,21.008s.022,1.35.126,3.1a2.99,2.99,0,0,0,.027.477c.045.769.108,1.6.184,2.438.283,3.01,1.152,7.508,1.152,7.508s.175.819.423,1.934v.108c.45,2.128,1.138,5.254,1.3,6a43.118,43.118,0,0,1,.7,11.44c-.283,6.829-.675,12.627-.675,12.627s.045,2.092.315,4.984a50.361,50.361,0,0,0,2.1,11.1c2.222,6.5,7.567,20.383,7.567,20.383l6.68,13.446s1.912,3.234,4.274,8.3,4.089,9.829,4.089,9.829A35.6,35.6,0,0,1,71.287,184a16.085,16.085,0,0,1-.081,6.41,12.119,12.119,0,0,1-4.5,6.019,22.535,22.535,0,0,1-3.149,1.768h-.036c-1.592.769-3.324,1.471-4.786,2.029h0c-1.984.769-3.432,1.219-3.432,1.219H53.675l-.787-1.152s7.845-1.323,11.836-4.777S69,191.247,69,191.247a12.452,12.452,0,0,0,.675-6.383,47.126,47.126,0,0,0-3.486-11.273c-1.548-3.653-5-11.269-5-11.269l-4.611-8.556-5.907-12.794S46,128.029,45.69,126.774s-2.951-10.994-3.01-15.547.621-13.945.621-13.945.112-8.826-.31-10.4-1.323-5.668-1.534-6.442-1.547-9.361-1.547-9.361-.805-7.229-.45-8.858a154.375,154.375,0,0,1,2.06-20.806L42.5,37.2c.171-.594.351-1.161.54-1.691,1.4-3.923,2.56-6.86,4.314-8.9s4.211-3.23,8.129-3.513c7.755-.562,15.052,4.373,15.052,4.373s1.179.207,2.911,2.8a.212.212,0,0,0,.027.04c.243.369.5.792.76,1.264" transform="translate(-16.861 -23.055)"/>
        <path id="Path_1502" data-name="Path 1502" class="cls-5" d="M45.572,26.6l1.637-1.264a11.786,11.786,0,0,1,5.182-1.417c7.535-.562,15.97,4.386,15.97,4.386s.589.171,1.561,1.507a.212.212,0,0,0,.027.04,14.3,14.3,0,0,1,.814,1.255L80.211,60.4c3.374,7.953,6.473,9.366,6.473,9.366L101.8,81.108s10.841,7.468,3.54,22.664c-8.1,16.834-1.408,29.353-1.408,29.353l6.019,14.229s.495.99,1.237,2.515" transform="translate(-13.329 -22.587)"/>
        <path id="Path_1503" data-name="Path 1503" class="cls-5" d="M108.783,152.525s-5.731,1.822-7.166,1.831" transform="translate(18.591 50.683)"/>
        <line id="Line_319" data-name="Line 319" class="cls-5" x2="1.377" y2="0.324" transform="translate(151.387 156.522)"/>
        <line id="Line_320" data-name="Line 320" class="cls-5" y1="0.004" transform="translate(94.669 134.789)"/>
      </g>
    </g>
  </g>
</svg>
