<svg xmlns="http://www.w3.org/2000/svg" xmlns:xlink="http://www.w3.org/1999/xlink" viewBox="0 0 189.201 191">
  <defs>
    <style>
      .cls-1, .cls-11, .cls-12, .cls-13, .cls-15, .cls-16, .cls-17, .cls-18, .cls-19, .cls-22, .cls-28, .cls-3, .cls-31, .cls-4, .cls-5, .cls-7, .cls-8, .cls-9 {
        fill: #fff;
      }

      .cls-1 {
        stroke: #707070;
      }

      .cls-2 {
        clip-path: url(#clip-path);
      }

      .cls-10, .cls-11, .cls-12, .cls-13, .cls-14, .cls-15, .cls-16, .cls-17, .cls-18, .cls-19, .cls-20, .cls-21, .cls-22, .cls-23, .cls-24, .cls-25, .cls-26, .cls-27, .cls-28, .cls-29, .cls-30, .cls-31, .cls-4, .cls-5, .cls-6, .cls-7, .cls-8, .cls-9 {
        stroke: #1d1d1b;
        stroke-miterlimit: 10;
      }

      .cls-4 {
        stroke-width: 0.259px;
      }

      .cls-5, .cls-6 {
        stroke-width: 0.327px;
      }

      .cls-10, .cls-14, .cls-20, .cls-21, .cls-23, .cls-24, .cls-25, .cls-26, .cls-27, .cls-29, .cls-30, .cls-33, .cls-6 {
        fill: none;
      }

      .cls-21, .cls-7 {
        stroke-width: 0.164px;
      }

      .cls-8 {
        stroke-width: 0.327px;
      }

      .cls-9 {
        stroke-width: 0.164px;
      }

      .cls-10, .cls-13 {
        stroke-width: 0.25px;
      }

      .cls-11 {
        stroke-width: 0.235px;
      }

      .cls-12 {
        stroke-width: 0.152px;
      }

      .cls-14, .cls-19 {
        stroke-width: 0.262px;
      }

      .cls-15 {
        stroke-width: 0.247px;
      }

      .cls-16 {
        stroke-width: 0.172px;
      }

      .cls-17 {
        stroke-width: 0.158px;
      }

      .cls-18 {
        stroke-width: 0.342px;
      }

      .cls-20 {
        stroke-width: 0.25px;
      }

      .cls-22, .cls-27 {
        stroke-width: 0.309px;
      }

      .cls-23, .cls-28 {
        stroke-width: 0.297px;
      }

      .cls-24 {
        stroke-width: 0.178px;
      }

      .cls-25 {
        stroke-width: 0.223px;
      }

      .cls-26 {
        stroke-width: 0.312px;
      }

      .cls-29 {
        stroke-width: 0.149px;
      }

      .cls-30, .cls-31 {
        stroke-width: 0.6px;
      }

      .cls-32 {
        stroke: none;
      }
    </style>
    <clipPath id="clip-path">
      <circle id="Ellipse_60" data-name="Ellipse 60" class="cls-1" cx="94.1" cy="94.1" r="94.1" transform="translate(1174 2000)"/>
    </clipPath>
  </defs>
  <g id="Group_167" data-name="Group 167" transform="translate(-1174 -1998)">
    <g id="Ellipse_31" data-name="Ellipse 31" class="cls-1" transform="translate(1174 2000)">
      <circle class="cls-32" cx="94.5" cy="94.5" r="94.5"/>
      <circle class="cls-33" cx="94.5" cy="94.5" r="94"/>
    </g>
    <g id="Mask_Group_9" data-name="Mask Group 9" class="cls-2" transform="translate(1 -2)">
      <g id="inclinação_" data-name="inclinação " transform="translate(1206.515 2023.711)">
        <path id="Path_1032" data-name="Path 1032" class="cls-3" d="M63.3,205.946a5.008,5.008,0,0,0-4.179,2.444c-1.563,2.54.128,5.788.128,5.788.957,4.791,4.849,4.47,4.849,4.47,5.71-.193,4.721-7.525,4.721-7.525l-.064-5.113C68.786,205.978,66.68,207.65,63.3,205.946Z" transform="translate(-34.764 -29.338)"/>
        <path id="Path_1033" data-name="Path 1033" class="cls-3" d="M135.564,187.643l-.223.547s-.766,0-1.531,3.762l9.347,2.283s1.276-4.888-1.085-6.046l-1.244-.225-1.276.257-.032-.8Z" transform="translate(-29.285 -30.844)"/>
        <path id="Path_1034" data-name="Path 1034" class="cls-3" d="M88.953,188.315l.223.547s.766-.032,1.723,3.7l-9.22,2.7s-1.5-4.824.8-6.11l1.244-.289,1.276.193-.032-.8Z" transform="translate(-33.11 -30.777)"/>
        <path id="Path_1035" data-name="Path 1035" class="cls-3" d="M111.084,219.418l.032,1.061-1.755.032-.574,1.415.319,8.811.7,1.576,1.787-.032s.319-.354.255-1.962-.032-1.994-.032-1.994l2.9-.1.064,3.055s.128.9.319.9,1.787-.032,1.787-.032a5.768,5.768,0,0,0,.8-1.962c.1-.868-.191-8.232-.191-8.232l-.7-1.608-1.914.032-.064-.643Z" transform="translate(-31.104 -28.243)"/>
        <g id="Base" transform="translate(23.684 136.219)">
          <g id="base-2" data-name="base">
            <path id="Path_1036" data-name="Path 1036" class="cls-4" d="M117.775,188.5l-.1-2.315s3.382-2.058,13.271-2.476,10.879,1.994,10.879,1.994.447.386.16,2.508a5.513,5.513,0,0,1-1.18.225c-.128-.064-.064-.8-.064-.8s-8.645.064-13.75,2.733" transform="translate(-54.142 -167.369)"/>
            <path id="Path_1037" data-name="Path 1037" class="cls-4" d="M108.244,188.481l-.064-2.251s-3.764-2.058-13.686-1.994-10.751,2.508-10.751,2.508-.447.418-.064,2.508a5.657,5.657,0,0,0,1.18.193c.128-.064.032-.8.032-.8s8.645-.322,13.845,2.09" transform="translate(-56.625 -167.322)"/>
            <path id="Path_1038" data-name="Path 1038" class="cls-4" d="M113.142,191.345a7.491,7.491,0,0,0,5.487-1.929v-.225l-.734-14.953a4.878,4.878,0,0,0-.191-1.158,1.988,1.988,0,0,0-.351-.74s-.1,1.994-4.626,2.122l-.989.032c-4.53.1-4.69-1.9-4.69-1.9a1.979,1.979,0,0,0-.319.74,4.77,4.77,0,0,0-.128,1.158l-.064,14.953.032.225s1.787,1.865,5.551,1.672Z" transform="translate(-54.952 -168.289)"/>
            <path id="Path_1039" data-name="Path 1039" class="cls-4" d="M111.835,174.739c-3.988.161-4.562-1.8-4.562-1.8l-.032-1.929s-.064-1.125.287-1.479c0,0,0,1.8,4.5,1.672h.319c4.5-.1,4.4-1.865,4.4-1.865.383.354.351,1.479.351,1.479l.032,1.929s-.51,1.962-4.5,1.994Z" transform="translate(-54.901 -168.533)"/>
            <path id="Path_1040" data-name="Path 1040" class="cls-4" d="M107.52,169.719v-1.126h9.252l-.191.707s-.191,1.994-4.371,1.962S107.52,169.719,107.52,169.719Z" transform="translate(-54.88 -168.593)"/>
            <path id="Path_1041" data-name="Path 1041" class="cls-5" d="M110.928,219.537l.032.933a.744.744,0,0,1,.351.611l3.126-.064s.032-.547.223-.579l-.032-.74" transform="translate(-54.633 -164.452)"/>
            <path id="Path_1042" data-name="Path 1042" class="cls-5" d="M111.089,220.37l-1.755.032.447,11.8,1.787-.032s.319-.257.255-1.286l-.351-9.937" transform="translate(-54.748 -164.384)"/>
            <path id="Path_1043" data-name="Path 1043" class="cls-5" d="M109.4,220.429l-.255.547c-.542,1.19-.287.579-.255,5.081v.1c.16,4.5,0,4.373.606,5.531l.287.547" transform="translate(-54.787 -164.379)"/>
            <path id="Path_1044" data-name="Path 1044" class="cls-5" d="M114.565,220.313l1.755-.032.1,11.834-1.787.032s-.354-.225-.319-1.254l-.128-9.937" transform="translate(-54.396 -164.391)"/>
            <path id="Path_1045" data-name="Path 1045" class="cls-5" d="M116.2,220.34l.287.547c.606,1.158.319.579.479,5.049v.1c.064,4.5.191,4.373-.351,5.531l-.255.547" transform="translate(-54.249 -164.387)"/>
            <line id="Line_275" data-name="Line 275" class="cls-6" y1="0.064" x2="2.935" transform="translate(56.978 63.639)"/>
            <path id="Path_1046" data-name="Path 1046" class="cls-4" d="M109.8,188.419l-.032-.225s-15.951,3.537-27.563,7.364a112.684,112.684,0,0,0-18.631,7.814s-1.467.9-.766,4.084c0,0,2.935,1.833,5.647,0l.606-1.222s11.931-4.116,19.715-6.11a128.283,128.283,0,0,1,13.877-2.6c1.786-.225,3.541-.514,5.3-.9h0a3.753,3.753,0,0,1,2.137.225l.447.225h0s.574.707,1.148,8.747,1.053,14.149,1.053,14.149.319,2.83,4.02,2.476a10.454,10.454,0,0,0,1.818-.322,2.776,2.776,0,0,0,2.01-2.733l.447-22h0l.447-.225a3.7,3.7,0,0,1,2.106-.322h.032c1.787.289,3.541.482,5.328.643a119.051,119.051,0,0,1,13.973,1.962c7.88,1.64,20,5.209,20,5.209l-.032,1c4.083,1.9,6.317-.064,6.317-.064.574-3.248-.925-4.052-.925-4.052a112.555,112.555,0,0,0-18.982-6.946c-11.772-3.28-27.627-6.431-27.627-6.431" transform="translate(-58.146 -167.002)"/>
            <path id="Path_1047" data-name="Path 1047" class="cls-6" d="M68.525,206.184v4.759l-.16.129a5.139,5.139,0,0,0-1.436-2.412,5.063,5.063,0,0,0-1.787-.965l-.032-.965" transform="translate(-57.964 -165.537)"/>
            <path id="Path_1048" data-name="Path 1048" class="cls-5" d="M59.088,214.015a9.152,9.152,0,0,1-.638-2.83,4.93,4.93,0,0,1,4.626-5.209" transform="translate(-58.449 -165.554)"/>
            <path id="Path_1049" data-name="Path 1049" class="cls-7" d="M58.658,211.282a5.017,5.017,0,0,1,5.041-4.92" transform="translate(-58.433 -165.523)"/>
            <ellipse id="Ellipse_61" data-name="Ellipse 61" class="cls-8" cx="4.753" cy="5.112" rx="4.753" ry="5.112" transform="translate(0.662 42.942) rotate(-1.31)"/>
            <ellipse id="Ellipse_62" data-name="Ellipse 62" class="cls-9" cx="0.829" cy="0.868" rx="0.829" ry="0.868" transform="translate(4.745 47.094) rotate(-1.31)"/>
            <path id="Path_1050" data-name="Path 1050" class="cls-7" d="M63.684,208.95s.1,2.8.191,2.926.223.257.51,0a21.6,21.6,0,0,0,1.4-2.251" transform="translate(-58.068 -165.313)"/>
            <path id="Path_1051" data-name="Path 1051" class="cls-7" d="M66.382,210.2a25.409,25.409,0,0,0-1.627,2.38c0,.193.032.354.383.354a21.433,21.433,0,0,0,2.425-.707" transform="translate(-57.99 -165.211)"/>
            <path id="Path_1052" data-name="Path 1052" class="cls-7" d="M67.626,212.875a21.125,21.125,0,0,0-2.744.193c-.128.129-.223.225,0,.547a17.692,17.692,0,0,0,2.074,1.544" transform="translate(-57.991 -164.993)"/>
            <path id="Path_1053" data-name="Path 1053" class="cls-7" d="M66.623,215.7a27.852,27.852,0,0,0-2.265-1.64c-.16,0-.319.032-.287.45a25.6,25.6,0,0,0,.8,2.573" transform="translate(-58.04 -164.897)"/>
            <path id="Path_1054" data-name="Path 1054" class="cls-7" d="M63.257,208.979a28.6,28.6,0,0,1,.1,2.926c-.1.129-.191.257-.51.032a20.4,20.4,0,0,1-1.627-2.09" transform="translate(-58.247 -165.31)"/>
            <path id="Path_1055" data-name="Path 1055" class="cls-7" d="M60.736,210.466a27.237,27.237,0,0,1,1.85,2.187c.032.193,0,.354-.351.386a22.433,22.433,0,0,1-2.488-.45" transform="translate(-58.354 -165.189)"/>
            <path id="Path_1056" data-name="Path 1056" class="cls-7" d="M59.818,213.6a18.713,18.713,0,0,1,2.744-.1c.16.129.255.193.032.547a19.637,19.637,0,0,1-1.914,1.736" transform="translate(-58.349 -164.946)"/>
            <path id="Path_1057" data-name="Path 1057" class="cls-7" d="M61.394,216.4a26.405,26.405,0,0,1,1.818-2.187c.16-.032.319-.064.383.354s-.16,2.7-.16,2.7" transform="translate(-58.234 -164.886)"/>
            <line id="Line_276" data-name="Line 276" class="cls-10" y1="0.064" x2="1.563" transform="translate(28.267 22.06)"/>
            <path id="Path_1058" data-name="Path 1058" class="cls-11" d="M81.888,194.939a4.029,4.029,0,0,1-.479-2.187c-.032-2.026.766-3.7,1.787-3.7s2.074,1.511,2.106,3.537l.032,1.126" transform="translate(-56.779 -166.93)"/>
            <path id="Path_1059" data-name="Path 1059" class="cls-7" d="M81.975,194.848a3.688,3.688,0,0,1-.447-2.026c-.032-1.865.7-3.409,1.659-3.441s1.659,1.415,1.691,3.312l-.032,1.158" transform="translate(-56.771 -166.903)"/>
            <path id="Path_1060" data-name="Path 1060" class="cls-7" d="M82.539,189.8a25.663,25.663,0,0,0,.287,2.991c.159.45.319-1.576.606-2.122l.223-.45" transform="translate(-56.697 -166.869)"/>
            <path id="Path_1061" data-name="Path 1061" class="cls-7" d="M84.055,190.868a13.743,13.743,0,0,0-.861,2.38c0,.45.829-.482,1.467-.772" transform="translate(-56.649 -166.782)"/>
            <path id="Path_1062" data-name="Path 1062" class="cls-12" d="M82.1,190.452a11.73,11.73,0,0,1,.51,2.251,3.893,3.893,0,0,0-1.053-.868" transform="translate(-56.768 -166.816)"/>
            <path id="Path_1063" data-name="Path 1063" class="cls-12" d="M81.617,192.058l1.053,1.19s.223.386-.1.418a5.7,5.7,0,0,1-.893-.032" transform="translate(-56.764 -166.686)"/>
            <ellipse id="Ellipse_63" data-name="Ellipse 63" class="cls-8" cx="0.287" cy="0.611" rx="0.287" ry="0.611" transform="translate(25.937 26.024) rotate(-1.31)"/>
            <path id="Path_1064" data-name="Path 1064" class="cls-13" d="M90.288,192.192s-.734-2.766-1.276-3.087l-.064,3.441-2.329.707-.064-.643a6.238,6.238,0,0,0-.861-2.187L85.65,189.2a2.008,2.008,0,0,0,1.914.74c1.212-.225,1.308-.8,1.308-.8l-.351-.515v.386l-2.233.064v-.643" transform="translate(-56.471 -166.981)"/>
            <line id="Line_277" data-name="Line 277" class="cls-14" x1="1.659" y1="0.032" transform="translate(84.925 21.127)"/>
            <path id="Path_1065" data-name="Path 1065" class="cls-15" d="M142.772,194.153a4.272,4.272,0,0,0,.415-2.315c-.064-2.122-.957-3.827-2.042-3.794s-2.074,1.672-2.042,3.794l.032,1.158" transform="translate(-52.584 -167.012)"/>
            <path id="Path_1066" data-name="Path 1066" class="cls-16" d="M142.646,194.057a3.824,3.824,0,0,0,.383-2.122c-.032-1.962-.893-3.537-1.882-3.505s-1.659,1.576-1.627,3.537l.1,1.222" transform="translate(-52.554 -166.981)"/>
            <path id="Path_1067" data-name="Path 1067" class="cls-16" d="M141.638,188.816a23.837,23.837,0,0,1-.16,3.119c-.16.482-.415-1.64-.734-2.219a3.983,3.983,0,0,1-.255-.482" transform="translate(-52.483 -166.949)"/>
            <path id="Path_1068" data-name="Path 1068" class="cls-16" d="M140.151,190.006a16.017,16.017,0,0,1,1.021,2.444c.032.45-.893-.482-1.563-.74" transform="translate(-52.547 -166.853)"/>
            <path id="Path_1069" data-name="Path 1069" class="cls-17" d="M142.109,189.47a15.347,15.347,0,0,0-.447,2.38,3.99,3.99,0,0,1,1.053-.965" transform="translate(-52.4 -166.896)"/>
            <path id="Path_1070" data-name="Path 1070" class="cls-17" d="M142.747,191.136l-1.021,1.318s-.223.418.1.418a8.059,8.059,0,0,0,.922-.1" transform="translate(-52.399 -166.761)"/>
            <ellipse id="Ellipse_64" data-name="Ellipse 64" class="cls-18" cx="0.319" cy="0.643" rx="0.319" ry="0.643" transform="translate(88.555 25.125) rotate(-1.31)"/>
            <path id="Path_1071" data-name="Path 1071" class="cls-19" d="M133.9,191.72s.638-2.958,1.18-3.28l.223,3.569,2.488.643.064-.707a6.6,6.6,0,0,1,.8-2.347l-.032-1.286a2.1,2.1,0,0,1-1.978.868c-1.276-.193-1.436-.772-1.436-.772l.319-.547v.386l2.329-.064v-.675" transform="translate(-52.962 -167.056)"/>
            <ellipse id="Ellipse_65" data-name="Ellipse 65" class="cls-20" cx="4.019" cy="4.34" rx="4.019" ry="4.34" transform="translate(1.413 43.697) rotate(-1.31)"/>
            <path id="Path_1072" data-name="Path 1072" class="cls-21" d="M58.807,212.444a4.768,4.768,0,0,1,1.321-3.474,4.69,4.69,0,0,1,3.4-1.446,4.453,4.453,0,0,1,2.074.257" transform="translate(-58.423 -165.431)"/>
          </g>
        </g>
        <path id="Path_1073" data-name="Path 1073" class="cls-4" d="M161.767,204.251a4.93,4.93,0,0,1,4.626,5.209,9.152,9.152,0,0,1-.638,2.83l-9.283-2.637,3.382-4.47Z" transform="translate(-27.637 -29.476)"/>
        <path id="Path_1074" data-name="Path 1074" class="cls-21" d="M165.884,209.557a5.017,5.017,0,0,0-5.04-4.92" transform="translate(-27.319 -29.445)"/>
        <path id="Path_1075" data-name="Path 1075" class="cls-5" d="M160.77,216.675a5.112,5.112,0,1,0-4.626-5.209,4.929,4.929,0,0,0,4.626,5.209" transform="translate(-27.661 -29.295)"/>
        <ellipse id="Ellipse_66" data-name="Ellipse 66" class="cls-9" cx="0.868" cy="0.829" rx="0.868" ry="0.829" transform="translate(132.27 183.141) rotate(-88.69)"/>
        <path id="Path_1076" data-name="Path 1076" class="cls-21" d="M160.629,207.225s-.1,2.8-.191,2.926-.223.257-.51,0a21.6,21.6,0,0,1-1.4-2.251" transform="translate(-27.488 -29.234)"/>
        <path id="Path_1077" data-name="Path 1077" class="cls-21" d="M161.06,207.225a28.609,28.609,0,0,0-.1,2.926c.1.129.191.257.51.032a20.4,20.4,0,0,0,1.627-2.09" transform="translate(-27.312 -29.234)"/>
        <path id="Path_1078" data-name="Path 1078" class="cls-21" d="M163.616,208.741a27.236,27.236,0,0,0-1.85,2.187c-.032.193,0,.354.351.386a22.44,22.44,0,0,0,2.488-.45" transform="translate(-27.253 -29.111)"/>
        <path id="Path_1079" data-name="Path 1079" class="cls-21" d="M164.579,211.874a18.717,18.717,0,0,0-2.744-.1c-.16.129-.255.193-.032.547a19.639,19.639,0,0,0,1.914,1.736" transform="translate(-27.259 -28.867)"/>
        <path id="Path_1080" data-name="Path 1080" class="cls-10" d="M160.752,215.848a4.144,4.144,0,0,0,4.115-4.245,4.2,4.2,0,0,0-3.924-4.438,4.355,4.355,0,0,0-.191,8.682" transform="translate(-27.611 -29.239)"/>
        <path id="Path_1081" data-name="Path 1081" class="cls-21" d="M165.835,210.721a4.607,4.607,0,0,0-4.53-4.952,4.45,4.45,0,0,0-1.981.289" transform="translate(-27.43 -29.354)"/>
        <path id="Path_1082" data-name="Path 1082" class="cls-5" d="M159.925,205.157l-.032.8a8.315,8.315,0,0,0-1.787,1.125,5.505,5.505,0,0,0-1.5,2.026l-.255.675.255-5.209a3.874,3.874,0,0,0,1.436.418,13.88,13.88,0,0,0,1.882.161Z" transform="translate(-27.646 -29.449)"/>
        <path id="Path_1083" data-name="Path 1083" class="cls-21" d="M158.1,208.414a25,25,0,0,1,1.6,2.155c.064.161-.064.675-.447.675a19.645,19.645,0,0,1-2.329-.611" transform="translate(-27.605 -29.137)"/>
        <path id="Path_1084" data-name="Path 1084" class="cls-21" d="M157.839,214.05a17.115,17.115,0,0,1,1.946-1.383c.191,0,.319.032.287.45a17.2,17.2,0,0,1-.606,2.058" transform="translate(-27.537 -28.792)"/>
        <path id="Path_1085" data-name="Path 1085" class="cls-21" d="M160.427,215.26a17.077,17.077,0,0,1,.383-2.347c.128-.1.255-.193.51.1a18.8,18.8,0,0,1,1.053,1.865" transform="translate(-27.349 -28.78)"/>
        <path id="Path_1086" data-name="Path 1086" class="cls-21" d="M156.858,211.448a15.594,15.594,0,0,1,2.361.161c.128.129.223.225-.032.547a12.691,12.691,0,0,1-1.755,1.222" transform="translate(-27.609 -28.891)"/>
        <path id="Path_1087" data-name="Path 1087" class="cls-22" d="M76.278,153.549l-.67-17.622,25.777,8.554a53.82,53.82,0,0,0,9.252-1,29.2,29.2,0,0,0,6.285-2.283s7.337-4.245,11.293-5.274c3.095-.8,5.232-.868,13.686.032a12.149,12.149,0,0,1,5.072,1.672c4.849,2.991,5.356,3.73,5.356,3.73a21.2,21.2,0,0,1,6.766,1.479,7.972,7.972,0,0,1,4.626,4.116c.064.1.8,1.415.861,1.511.7,1.318,1.18,2.573,1.85,3.923a9.52,9.52,0,0,1,1.276,5.628c-.287,1.736.032,3.762-.957,5.274a12.784,12.784,0,0,1-3.9,3.955c0,2.219-8.422,2.894-8.422,2.894l-18.184.675-10.241.386-.606.032-7.27.289h-.191l-12.8.482.128.965s.766.161-4.785.482-23.384,0-23.384,0l-2.265-1.8L73.021,160.43a7.8,7.8,0,0,1,3.257-6.882h0" transform="translate(-33.706 -35.081)"/>
        <path id="Path_1088" data-name="Path 1088" class="cls-23" d="M101.787,171.418,103,170.1l1.148-2.219-3.988-6.046s-3.126-1.093-4.147-1.544-2.584-.643-5.71-4.148c0,0-1.882-2.6-2.042-3.055a18.428,18.428,0,0,0-3.35-3.023l-.766.772s2.584,1.608,3.318,3.151a20.881,20.881,0,0,0,4.179,5.756c1.436,1.126,4.4,3.216,7.306,3.537,0,0,.191-.74,3.86,5.949l-.734,1.608Z" transform="translate(-32.896 -33.881)"/>
        <path id="Path_1089" data-name="Path 1089" class="cls-23" d="M84.163,150.839h0" transform="translate(-32.895 -33.818)"/>
        <path id="Path_1090" data-name="Path 1090" class="cls-23" d="M102.6,171.273s.7.161-4.4.482-21.47,0-21.47,0l-2.074-1.8-1.691-11.223a8.186,8.186,0,0,1,3-6.882h0" transform="translate(-33.711 -33.736)"/>
        <path id="Path_1091" data-name="Path 1091" class="cls-23" d="M77.376,154.525a6.085,6.085,0,0,0-1.85,5.5L76.8,168.8l1.6,1.415,16.461.064,3.892-.257.7-1.737c-.51-.965-1.468-2.412-1.468-2.412-1.244-.225-6.415-2.444-8.553-5.113a30.2,30.2,0,0,1-3.222-4.5,8.161,8.161,0,0,0-2.552-2.444,1.021,1.021,0,0,0-.191-.064" transform="translate(-33.529 -33.581)"/>
        <path id="Path_1092" data-name="Path 1092" class="cls-23" d="M97.825,167.216l4.147.675,1.177-1.351" transform="translate(-31.901 -32.541)"/>
        <line id="Line_278" data-name="Line 278" class="cls-23" x1="2.297" y2="0.997" transform="translate(40.976 135.222)"/>
        <line id="Line_279" data-name="Line 279" class="cls-23" x1="1.659" y2="2.83" transform="translate(64.424 129.433)"/>
        <path id="Path_1093" data-name="Path 1093" class="cls-23" d="M94.165,155.992l-2.967.8c-.064,0-.1-.064-.064-.1l.638-.868,2.648-.74-.255.9,2.361-.9,1.148,2.765a4.16,4.16,0,0,1-1.978,1.125l-1.531-2.991" transform="translate(-32.389 -33.472)"/>
        <path id="Path_1094" data-name="Path 1094" class="cls-23" d="M105.669,151.054l-9.539,3.891,1.563,3.923a9.449,9.449,0,0,1,1.978-1.351,3.347,3.347,0,0,1,1.531.064c.989.225,1.978-1.029,2.807-1.351a2.66,2.66,0,0,1,1.531-.129,1.527,1.527,0,0,0,1.563-.675c.8-.933,1.4-.579,1.4-.579s.447-.45.415-.675-2.616-3.151-2.616-3.151S106.147,150.861,105.669,151.054Z" transform="translate(-32.025 -33.808)"/>
        <path id="Path_1095" data-name="Path 1095" class="cls-23" d="M105.869,151.136l-.227.933-8.323,3.569.861,1.962-.577,1.286" transform="translate(-31.938 -33.794)"/>
        <path id="Path_1096" data-name="Path 1096" class="cls-23" d="M108.109,154.185l-.861.225L105.079,152" transform="translate(-31.374 -33.724)"/>
        <line id="Line_280" data-name="Line 280" class="cls-23" y1="3.119" x2="9.634" transform="translate(66.243 120.687)"/>
        <path id="Path_1097" data-name="Path 1097" class="cls-23" d="M94.164,155.128l2.109-.482,1.276.707" transform="translate(-32.168 -33.508)"/>
        <path id="Path_1098" data-name="Path 1098" class="cls-23" d="M136.259,147.538h0a.184.184,0,0,1,.128.032s5.072.643,11.676,4.952,9.411,11.255,9.411,13.474-7.752,2.894-7.752,2.894l-16.685.675" transform="translate(-29.341 -34.086)"/>
        <path id="Path_1099" data-name="Path 1099" class="cls-23" d="M126.034,168.236l-.574.032-6.664.257-.16.032-17.45.707" transform="translate(-31.657 -32.404)"/>
        <path id="Path_1100" data-name="Path 1100" class="cls-23" d="M128.991,147.657a55.388,55.388,0,0,0-21.036,7.2" transform="translate(-31.165 -34.077)"/>
        <path id="Path_1101" data-name="Path 1101" class="cls-23" d="M136.4,146.11s5.838,1.833,9.347,3.409" transform="translate(-29.097 -34.202)"/>
        <path id="Path_1102" data-name="Path 1102" class="cls-23" d="M129.175,146.378a56.956,56.956,0,0,0-21.566,7.332" transform="translate(-31.19 -34.181)"/>
        <path id="Path_1103" data-name="Path 1103" class="cls-23" d="M156.374,166.5s5.838-2.733,6-8.1c.128-4.727-2.3-6.689-2.3-6.689s-3.669-2.6-14.994-2.444c0,0,5.388,3.184,7.72,5.917s3.669,4.213,4.4,7.3S156.374,166.5,156.374,166.5Z" transform="translate(-28.465 -33.947)"/>
        <path id="Path_1104" data-name="Path 1104" class="cls-24" d="M99.907,145.64l11.545-.868-3.713,8.682" transform="translate(-31.75 -34.311)"/>
        <path id="Path_1105" data-name="Path 1105" class="cls-25" d="M147.613,140.943a43.575,43.575,0,0,0-8.295.225l-2.3.289" transform="translate(-29.051 -34.631)"/>
        <path id="Path_1106" data-name="Path 1106" class="cls-23" d="M110.818,144.953l18.538-2.412h.064" transform="translate(-30.957 -34.492)"/>
        <path id="Path_1107" data-name="Path 1107" class="cls-23" d="M159.614,164.278a10.64,10.64,0,0,1,.255-2.122c.191-.418,1.691-4.824,1.021-6.4s-1.085-4.084-7.274-5.209a50.941,50.941,0,0,0-7.018-.45" transform="translate(-28.355 -33.88)"/>
        <path id="Path_1108" data-name="Path 1108" class="cls-26" d="M100.835,144.772s6.077-.322,9.414-1.608,6-2.669,6-2.669a42.76,42.76,0,0,1,8.534-3.569,46.858,46.858,0,0,1,6.25-1.254h0" transform="translate(-31.683 -35.051)"/>
        <path id="Path_1109" data-name="Path 1109" class="cls-27" d="M131.047,135.315h0a35.543,35.543,0,0,0-6.31,1.093,44.885,44.885,0,0,0-8.416,3.473s-2.619,1.383-5.9,2.669-9.252,1.608-9.252,1.608" transform="translate(-31.658 -35.08)"/>
        <line id="Line_281" data-name="Line 281" class="cls-23" y1="0.643" x2="0.861" transform="translate(62.414 125.542)"/>
        <path id="Path_1110" data-name="Path 1110" class="cls-28" d="M104.451,150.189l-11,14.271L67.41,133.171l-30.7-85.9L38.6,43.128c.319-.543.715-.6,1.337-.424a2.022,2.022,0,0,1,.941.547,3.385,3.385,0,0,1,1.57.209,7.741,7.741,0,0,1,4.109,3.418c2.951,5.065,5.966,14.7,5.966,14.7s.533,1.286,1.914,4.923a37.034,37.034,0,0,0,3.487,6.785l.957.643,2.5,1.466,5.8,2.846,1.742.865a12.788,12.788,0,0,1,3.787,2.711A8.482,8.482,0,0,1,73.985,83.4a28.246,28.246,0,0,1,2.134,5.123,27.017,27.017,0,0,1,.957,5.161l.421,2.428,13.249,24.69.405.547s8.135,6.894,12.442,12.776a4.9,4.9,0,0,1,.6,1.058C105.1,137.242,108.031,144.841,104.451,150.189Z" transform="translate(-36.345 -42.616)"/>
        <path id="Path_1111" data-name="Path 1111" class="cls-28" d="M93.6,163.72s7.889-4.727,10.706-11.348-10.866-17.686-10.866-17.686l-10.732-9.647s-5.267-5.849-6.7-7.756-5-7.682-5.7-11.946-.925-7.9-.925-7.9-.054-7.467-2.115-10.859-3-4.039-6.878-6.515c-2.5-1.569-6.2-3.9-8.527-5.357a15.433,15.433,0,0,1-4.2-3.823,20.747,20.747,0,0,1-2.338-3.743c-1.075-2.592-3.934-11.226-4.339-12.863s-1.838-8.924-1.838-8.924a16.037,16.037,0,0,1-.482-1.971,4.631,4.631,0,0,0-1.716,1.891c-.555,1.119-.788,1.868-.351,4.023a22.93,22.93,0,0,1,.475,3.557s.392,2.978,1.2,6.329,3.257,13.664,3.257,13.664S42.49,76.289,43,77.536a17.279,17.279,0,0,1,.836,2.894l3.015,10.908,4.1,9.345,4.339,9.515,3.315,7.309,2.233,4.685L64,129.216l3.541,8.615a72.517,72.517,0,0,0,2.7,7.573c1.6,3.74,5.506,11.332,5.506,11.332l2.125,3.883Z" transform="translate(-36.37 -42.555)"/>
        <path id="Path_1112" data-name="Path 1112" class="cls-23" d="M94.162,164.359s8.32-5.164,11.137-11.789-10.375-18.153-10.375-18.153l-10.55-9.6s-5.474-5.65-6.9-7.557-5.1-7.319-5.947-11.577c-.743-3.775-.916-6.049-1.059-7.149-.035-.322.022-1.962.029-2.267a28.891,28.891,0,0,0-2.035-9.535c-2.058-4.338-3.021-4.64-6.9-7.116s-10.017-6.6-10.017-6.6-3.64-3.537-4.83-6.055a104.964,104.964,0,0,1-4.422-12.252c-.376-1.64-1.952-9.052-1.952-9.052s-.108-.775-.211-1.418a.8.8,0,0,1,.152-.626.786.786,0,0,1,.563-.306c.029,0-.211-.138-.179-.148s-1.184-1.007-2.007-.106c-.421.473.073,1.63.073,1.63" transform="translate(-36.217 -42.611)"/>
        <path id="Path_1113" data-name="Path 1113" class="cls-23" d="M67.96,135.177c-.1-.967-7.088-21.669-8.415-23.673S48,87.219,48,87.219L46.95,83.846S45.8,77.6,46.344,75.138a39.3,39.3,0,0,1,1.579-5.116" transform="translate(-35.655 -40.388)"/>
        <path id="Path_1114" data-name="Path 1114" class="cls-29" d="M66.483,76.184s2.785,2.489,4.444,11.577a20.338,20.338,0,0,1,4.466,4.856" transform="translate(-34.181 -39.887)"/>
        <path id="Path_1115" data-name="Path 1115" class="cls-29" d="M83.532,120.842a6.267,6.267,0,0,1,3.583-1.81,6.752,6.752,0,0,1,4.147,1.18h0a9.2,9.2,0,0,1,2.278,1.839c1.247,1.325,4.112,7.293,4.721,8.383a45.675,45.675,0,0,1,2.131,5.763,6.86,6.86,0,0,1,.121,2.219" transform="translate(-32.941 -36.406)"/>
        <path id="Path_1116" data-name="Path 1116" class="cls-23" d="M101.2,140.643h0c.124-.141,3.672-4.737-.443-10.647-4.208-5.981-12.7-13.506-12.7-13.506s-4.256-4.315-5.273-5.544a42.967,42.967,0,0,1-5.143-7.37c-1.739-3.325-2.775-10.515-2.775-10.515l-.2-1.183" transform="translate(-33.586 -38.611)"/>
        <path id="Path_1117" data-name="Path 1117" class="cls-23" d="M68.844,98.864a5.5,5.5,0,0,0,.692-3.894A95.261,95.261,0,0,0,72.58,105.8c1.356,3.277,3.008,6.431,3.008,6.431l4,5.64s-6.668-6.583-9.21-13.127a23.017,23.017,0,0,1-1.534-5.885Z" transform="translate(-34.009 -38.36)"/>
        <path id="Path_1118" data-name="Path 1118" class="cls-29" d="M95.92,132.407s-1.617-4.544-4.737-6.724-4.106-1.7-4.106-1.7l-3.509-3.216a11.021,11.021,0,0,1,4.986-.643c2.08.444,3.4,1.045,5.519,3.441,0,0,1.426,1.135,3.911,6.213" transform="translate(-32.938 -36.323)"/>
        <path id="Path_1119" data-name="Path 1119" class="cls-25" d="M56.41,70.807a16.03,16.03,0,0,1,2.871,3.714c.609,1.5,1.011,2.814,1.011,2.814s1.914,1.212,3.771,2.547,3.669,5.007,4.785,8.126a46.886,46.886,0,0,1,1.614,8.927l9.663,12.541,7.94,8.843,5.219,5.788" transform="translate(-34.913 -40.324)"/>
        <line id="Line_282" data-name="Line 282" class="cls-29" x1="0.191" y1="1.865" transform="translate(93.774 135.575)"/>
        <line id="Line_283" data-name="Line 283" class="cls-23" x1="0.287" y2="5.113" transform="translate(73.421 136.283)"/>
        <path id="Path_1120" data-name="Path 1120" class="cls-28" d="M104.508,169.2l-2.552,9.937.893.289,3-10.387Z" transform="translate(-31.601 -32.338)"/>
        <path id="Path_1121" data-name="Path 1121" class="cls-28" d="M100.8,187.775h.287a3.184,3.184,0,0,0,.383-1.544,1.042,1.042,0,0,1,.223-.965s.223-.161.16-.707a.848.848,0,0,1,.415-.836s.1.289.351-1.126.925-3.376.7-3.762l-.542-.161-2.871,7.975Z" transform="translate(-31.75 -31.555)"/>
        <path id="Path_1122" data-name="Path 1122" class="cls-28" d="M101.582,178.348l1.755.514-1.372,4.148a.908.908,0,0,0-.51.579,2.667,2.667,0,0,1-.479,1.447.987.987,0,0,0,.16.74c.255.515-.447,2.251-.51,2.251s-1.531-.322-1.531-.515a4.5,4.5,0,0,1,.415-2.38C100.115,183.332,101.582,178.348,101.582,178.348Z" transform="translate(-31.811 -31.582)"/>
        <path id="Path_1123" data-name="Path 1123" class="cls-28" d="M123.742,173.508a1.384,1.384,0,0,1-.351-1.254h0l.16-.643.16-.675.16-.579.1-.386.415-1.608s.447-1.093.734-1.093-.255.933,4.272.707,3.828-.9,3.828-.9c.546.1.546,1.029.546,1.029l.092,5.113a2.166,2.166,0,0,1-.638,1.19c-.412.354-6.093.322-7.816.322a1.226,1.226,0,0,1-.861-.354Z" transform="translate(-30.045 -32.498)"/>
        <path id="Path_1124" data-name="Path 1124" class="cls-23" d="M125.405,167.961,127.351,156s3.254.129,4.179.1,3.19-.289,3.19-.289l-1.787,12.316a9.173,9.173,0,0,1-4.179.611c-2.68-.129-3.445-.289-3.509-.547S125.405,167.961,125.405,167.961Z" transform="translate(-29.908 -33.414)"/>
        <path id="Path_1125" data-name="Path 1125" class="cls-23" d="M132.056,125l-.447.257v.579s2.807.225,4.115.225a22.868,22.868,0,0,0,3.637-.515v-.515a27.786,27.786,0,0,1-3.7.418c-1.372,0-3.8-.1-3.8-.1" transform="translate(-29.445 -35.919)"/>
        <line id="Line_284" data-name="Line 284" class="cls-23" x2="0.67" y2="0.386" transform="translate(109.215 88.69)"/>
        <path id="Path_1126" data-name="Path 1126" class="cls-3" d="M155.857,122.566l-37.836.643c-.67,0-1.723.675-1.723,0l-.255-1.222c0-.675,1.34-1.222,2.01-1.222l20.226-2.283c.67,0,19.556.9,19.556,1.576l.287,1.383C158.09,122.084,156.54,122.566,155.857,122.566Z" transform="translate(-30.577 -36.448)"/>
        <path id="Path_1127" data-name="Path 1127" class="cls-28" d="M135.035,158.413l.319-.129,4.466-28.491,4.02-6.464-15.472.514,1.467,6.689-3.222,27.752s-.064.322.351.354,4.02.1,4.02.1Z" transform="translate(-29.808 -36.054)"/>
        <path id="Path_1128" data-name="Path 1128" class="cls-28" d="M117.612,124.305l35.347-1.158,3.637-.289,1.528-1.64s-5.264,1-20.609,1.318-21.374.225-21.374.225S117.357,124.305,117.612,124.305Z" transform="translate(-30.57 -36.226)"/>
        <path id="Path_1129" data-name="Path 1129" class="cls-28" d="M158.088,121.441s.415-1.318-.287-1.962c-.606-.547-.223-.933-5.232-1.093s-12.187-.418-15.983-.257-13.75,1.222-13.75,1.222-4.817.74-5.36.9-1.4,1.447-1.4,1.447" transform="translate(-30.575 -36.481)"/>
        <path id="Path_1130" data-name="Path 1130" class="cls-28" d="M116.12,122.715s-.159-1.093,0-1.318" transform="translate(-30.576 -36.211)"/>
        <path id="Path_1131" data-name="Path 1131" class="cls-28" d="M122.257,116.009l27.149-.515,2.775-.161,1.021-1.64s-3.892,1.093-15.664,1.158-16.4-.064-16.4-.064S122.034,116.009,122.257,116.009Z" transform="translate(-30.206 -36.837)"/>
        <path id="Path_1132" data-name="Path 1132" class="cls-28" d="M153.221,113.858s.319-.868-.223-1.286c-.447-.354-.191-.611-4.02-.707s-9.379-.257-12.282-.161-10.56.8-10.56.8-3.7.482-4.115.579-1.085.965-1.085.965c-.128.129,0,.868,0,.868S147.1,115.788,153.221,113.858Z" transform="translate(-30.225 -37.002)"/>
        <path id="Path_1133" data-name="Path 1133" class="cls-28" d="M140.7,118.311l1.885-2.862-12.793.257.7,3.023Z" transform="translate(-29.577 -36.695)"/>
        <path id="Path_1135" data-name="Path 1135" class="cls-30" d="M75.776,146.177,74.6,135.115l1.177-9.486,4.977-.514,2.811,9.229,1.117,11.319-1.659.514L82,134.858l-2.488-7.975-2.393.257-1.212,7.975,1.177,11.512-1.308-.289Z" transform="matrix(0.921, -0.391, 0.391, 0.921, -86.714, 8.733)"/>
        <line id="Line_285" data-name="Line 285" class="cls-23" x2="1.276" y2="1.415" transform="matrix(0.921, -0.391, 0.391, 0.921, 32.224, 94.83)"/>
        <line id="Line_286" data-name="Line 286" class="cls-23" x1="1.148" y2="1.608" transform="matrix(0.921, -0.391, 0.391, 0.921, 35.425, 92.982)"/>
        <ellipse id="Ellipse_67" data-name="Ellipse 67" class="cls-30" cx="1.085" cy="1.093" rx="1.085" ry="1.093" transform="matrix(0.921, -0.391, 0.391, 0.921, 38.074, 103.141)"/>
        <path id="Path_1134" data-name="Path 1134" class="cls-31" d="M75.7,145.951l.16,7.235,1.372,1.093.479,4.18,1.85,3.891,3.162-.225,1.117-4.277-.45-3.955,1.407-1.415-.191-8.361-1.659.515.188,7.01-.16.225-5.771.482-.1-.257-.1-7.01-1.308-.289Z" transform="matrix(0.921, -0.391, 0.391, 0.921, -86.037, 10.124)"/>
      </g>
    </g>
  </g>
</svg>
