<svg xmlns="http://www.w3.org/2000/svg" xmlns:xlink="http://www.w3.org/1999/xlink" viewBox="0 0 193 191">
  <defs>
    <style>
      .cls-1, .cls-10, .cls-3, .cls-4, .cls-7, .cls-9 {
        fill: #fff;
      }

      .cls-1 {
        stroke: #707070;
      }

      .cls-2 {
        clip-path: url(#clip-path);
      }

      .cls-10, .cls-3, .cls-4, .cls-5, .cls-6, .cls-7, .cls-8 {
        stroke: #1d1d1b;
        stroke-miterlimit: 10;
      }

      .cls-3 {
        stroke-width: 0.367px;
      }

      .cls-4 {
        stroke-width: 0.245px;
      }

      .cls-5 {
        fill: #bdbdbd;
      }

      .cls-5, .cls-7, .cls-8 {
        stroke-width: 0.305px;
      }

      .cls-6, .cls-8 {
        fill: #e2e2e2;
      }

      .cls-6 {
        stroke-width: 0.281px;
      }

      .cls-10 {
        stroke-width: 0.152px;
      }

      .cls-11 {
        stroke: none;
      }

      .cls-12 {
        fill: none;
      }
    </style>
    <clipPath id="clip-path">
      <circle id="Ellipse_71" data-name="Ellipse 71" class="cls-1" cx="94.5" cy="94.5" r="94.5" transform="translate(1450 2000)"/>
    </clipPath>
  </defs>
  <g id="Group_361" data-name="Group 361" transform="translate(-1449 -2000)">
    <g id="Ellipse_32" data-name="Ellipse 32" class="cls-1" transform="translate(1450 2000)">
      <circle class="cls-11" cx="94.5" cy="94.5" r="94.5"/>
      <circle class="cls-12" cx="94.5" cy="94.5" r="94"/>
    </g>
    <g id="Mask_Group_32" data-name="Mask Group 32" class="cls-2" transform="translate(3)">
      <g id="Rodinhas_removiveis" data-name="Rodinhas removiveis" transform="translate(1439.901 2010.328)">
        <path id="Path_4596" data-name="Path 4596" class="cls-3" d="M57.3,72.769s59.479,30.615,74.252,47.718c0,0,5.985,3.906,3.909,8.914s-4.273,3.31-4.273,3.31-8.669-1.963-9.05-3.442a6.716,6.716,0,0,0-1.586-2.688A194.358,194.358,0,0,0,73.427,99.233C46.689,88.733,32.359,83.3,32.359,83.3L45.97,71.031Z"/>
        <path id="Path_4597" data-name="Path 4597" class="cls-3" d="M-2.767,118.17S2.019,95.082,1.655,89.7a93.793,93.793,0,0,1,.02-11.056L24.64,84.774s-10.9,24.826-12,28.98S11.3,122.8,6.66,122.185-1.814,121.576-2.767,118.17Z"/>
        <path id="Path_4598" data-name="Path 4598" class="cls-4" d="M42.918,76.158S37.073,85.8,18.867,84.837C5.207,84.112-.91,76.158-.91,76.158l-1.857-2.807V46.871L42.912,69.945Z"/>
        <path id="Path_4599" data-name="Path 4599" class="cls-3" d="M26.722,64.113a21.76,21.76,0,0,1-9.847-1.629L-2.767,46.857V35.345H-.45S8.818,42.786,15.107,47.02s8.606,3.863,10.5,4.4c1.682.477,9.523-.407,9.768-.407s30.6-4.72,53.881-6.431,60.243,6.269,69.181,8.467,8.219,9.033,8.3,9.847-2.115,8.954-2.115,8.954l-56.182-10.46L26.722,64.113"/>
        <path id="Path_4600" data-name="Path 4600" class="cls-5" d="M42.918,76.158s31.012-7.971,47.208-8.633,41.919-1.059,48.185.976a27.2,27.2,0,0,1,0-5.455,20.132,20.132,0,0,0,0-4.8S111.94,53.2,83.861,54.828,26.722,64.1,26.722,64.1,38.119,65.414,42.918,76.158Z"/>
        <path id="Path_4601" data-name="Path 4601" class="cls-6" d="M157.2,75.265l1.466-.407a11.827,11.827,0,0,0,2.115.732,4.181,4.181,0,0,0,3.419-4.234c-.162-2.929-5.534-4.634-9.2-6.021s-13.022-3.744-13.022-3.744l1.056-2.281-4.72-1.053s-.662,9.116,0,10.261,4.234,4.23,5.21,4.23,2.36-1.463,3.337-1.463,4.8,0,6.511.662,1.711,1.711,1.711,1.711Z"/>
        <path id="Path_4602" data-name="Path 4602" class="cls-4" d="M16.246,62.256S1.8,57.721-2.767,73.351"/>
        <path id="Path_4603" data-name="Path 4603" class="cls-7" d="M149.285,71.382l.076-.586a.831.831,0,0,1-.165-.54A11,11,0,0,1,149.5,68.4a2.436,2.436,0,0,1,1.88-1.38,6.289,6.289,0,0,1,3.31.331c.169.106,1.506.417,1.208,3.019a4.4,4.4,0,0,0-.4,1.053,3.267,3.267,0,0,1-.175.728Z"/>
        <path id="Path_4604" data-name="Path 4604" class="cls-7" d="M148.232,77.9l.9-6.4s2.026-1.93,6.379.252l-.619,6.743S150.158,77.585,148.232,77.9Z"/>
        <path id="Path_4605" data-name="Path 4605" class="cls-7" d="M156.6,79.472s-7.52-4.181-12.36.076l-2.042,17.835S142.515,84.374,156.6,79.472Z"/>
        <path id="Path_4606" data-name="Path 4606" class="cls-7" d="M185.3,107.554s.268,2.072-1.781,6.984-10.592,12.327-19.427,12.3c-7.223-.02-13.24-2.317-18.172-8.653s-4.018-14.693-4.018-14.693Z"/>
        <path id="Path_4607" data-name="Path 4607" class="cls-7" d="M185.033,103.672a15.731,15.731,0,0,1-1.182,8.762c-2.049,4.912-10.629,13.065-19.424,12.3s-13.24-2.317-18.172-8.653-4.022-14.7-4.022-14.7Z"/>
        <path id="Path_4608" data-name="Path 4608" class="cls-8" d="M179.76,91.752c6.7,7.712,5.323,19.86-3.072,27.163-6.971,6.054-20.92,5.121-27.616-2.588s-3.625-18.867,3.363-25.339C160.585,83.414,173.064,84.04,179.76,91.752Z"/>
        <path id="Path_4609" data-name="Path 4609" class="cls-9" d="M184.722,106.1s.417-1.033-.414-1.291-9.55-1.069-10.592-1.271-6.736.2-5.438-1.609S181.66,95.2,181.66,95.2l-.725-.993a12.744,12.744,0,0,0-4.1,1.638s-1.566.487-.894-.1,4.045-2.648,4.045-2.648l-.6-.692a10.75,10.75,0,0,0-1.218.662c-.49.331-7.077,5.038-9.778,7.047s-2.737-.553-2.737-.553a100.356,100.356,0,0,1,3.277-12.75l-1.2-.066a21.25,21.25,0,0,0-1.02,3.714s-.357.993-.46.662-.02-4.869-.02-4.869l-1.079.113a20.294,20.294,0,0,1,0,3.7s-.364,7.842-.705,9.268a.837.837,0,0,1-1.447.543s-1.675-1.93-4.3-5.7a47.976,47.976,0,0,0-4.442-5.627,3.115,3.115,0,0,0-.834.593,26.713,26.713,0,0,1,2.88,3.664c.2.5-.235.235-.235.235-2.7-2.876-4.045-3.224-4.045-3.224l-.705.8c1.384-.036,9.5,8.374,10.261,9.887a1.176,1.176,0,0,1-.91,1.8l-11.191-2.089a33.95,33.95,0,0,0-4.522-.553c-.48.146-.331,1.168-.331,1.168a38.3,38.3,0,0,1,6.491.457s2.056.271-1.4.477-4.005.043-5.054.384l-.43,1.248s1.377-.622,6.892-.6,9.08.331,9.679.791.722,1.374-2.5,2.867a105.33,105.33,0,0,0-11.135,6.882h0l.589.834s4.346-3.572,5.849-3.932c0,0,.559.3-2.761,2.949-3.015,2.41-2.168,2.317-2.168,2.317l.735.88a21.1,21.1,0,0,1,4.853-5.051c3.413-2.661,7.59-5.376,7.59-5.376s1.433-.874,1.734.993-3.174,13.4-3.373,13.73a8.566,8.566,0,0,0-.46,1.324l1.192.209s1.39-5.382,1.655-5.707.017,5.554.079,5.958c0,0,1.324.281,1.586.086s-.043-14.5.331-15.091.924-1.781,2.406.166,7.653,10.159,7.842,12.353l.993-.626s-2.694-5-2.741-5.366,3.6,3.7,3.8,4.369l.927-.751s-10.215-11.178-10.327-11.655-.311-1.986,2.036-1.5,10.692,1.986,12.578,2.943a8.9,8.9,0,0,1,2.181,1.307l.285-1.225a26.908,26.908,0,0,0-4.584-1.711l-3.006-.824s4.935.47,6.1.7a9.233,9.233,0,0,1,1.642.45Z"/>
        <path id="Path_4610" data-name="Path 4610" class="cls-7" d="M185.6,101.444s1.3,2.648-1.562,7.557c-2.916,5-9.483,11.615-19.225,11.367-8.06-.205-12.247-1.519-18.1-7.706-5.515-5.826-4.512-15.279-4.512-15.279Z"/>
        <path id="Path_4611" data-name="Path 4611" class="cls-7" d="M180.254,84.9c7.362,8.477,7.871,19.433-.937,27.08s-23.664,7.537-31.029-.943-8.275-18.639.136-26.712C157.328,75.781,172.889,76.42,180.254,84.9Z"/>
        <path id="Path_4612" data-name="Path 4612" class="cls-5" d="M178.155,86.522c6.316,7.282,6.815,16.342-2.264,24.18-6.971,6.021-19.735,4.657-26.05-2.615s-3.618-18.01,2.423-23.647C159.3,77.87,171.839,79.25,178.155,86.522Z"/>
        <path id="Path_4613" data-name="Path 4613" class="cls-6" d="M177.04,87.1c5.806,6.683,4.568,16.123-2.115,21.926-5.548,4.819-17.212,4.561-23.018-2.122s-3.641-15.888,1.9-21.069C160.274,79.8,171.237,80.435,177.04,87.1Z"/>
        <path id="Path_4614" data-name="Path 4614" class="cls-10" d="M184.242,99.11s.417-1.033-.414-1.291-9.55-1.069-10.592-1.268-6.736.192-5.438-1.609,13.386-6.733,13.386-6.733l-.728-.993a12.761,12.761,0,0,0-4.1,1.655s-1.569.483-.9-.1,4.045-2.648,4.045-2.648l-.6-.692a10.457,10.457,0,0,0-1.218.662c-.493.331-7.08,5.035-9.781,7.044s-2.737-.553-2.737-.553a100.066,100.066,0,0,1,3.28-12.747l-1.2-.066a21.172,21.172,0,0,0-1.02,3.714s-.357.993-.46.662,0-4.869,0-4.869l-1.082.116a19.7,19.7,0,0,1-.017,3.7s-.364,7.845-.7,9.268a.84.84,0,0,1-1.45.543s-1.675-1.926-4.3-5.7a47.609,47.609,0,0,0-4.442-5.627,3.154,3.154,0,0,0-.834.589,26.658,26.658,0,0,1,2.88,3.664c.2.5-.235.235-.235.235-2.7-2.876-4.045-3.224-4.045-3.224l-.705.8c1.384-.036,9.5,8.378,10.261,9.891a1.174,1.174,0,0,1-.91,1.8l-11.228-2.092a33.41,33.41,0,0,0-4.522-.553c-.48.149-.331,1.165-.331,1.165a38.7,38.7,0,0,1,6.494.457s2.052.271-1.4.48-4.005.04-5.058.381l-.43,1.251s1.377-.626,6.892-.6,9.08.331,9.679.788.722,1.377-2.5,2.867a104.781,104.781,0,0,0-11.135,6.882l-.271.268.592.834s4.637-3.836,6.127-4.187c0,0,.49.215-2.757,2.953s-2.479,2.807-2.479,2.807l.824.563a24.136,24.136,0,0,1,5.074-5.213c3.419-2.665,7.587-5.376,7.587-5.376s1.433-.874,1.734.993-3.148,13.389-3.34,13.717a8.567,8.567,0,0,0-.46,1.324l1.192.212s1.39-5.382,1.655-5.707,0,5.154.06,5.574c0,0,.877.348,1.142.152s.424-14.177.788-14.763.927-1.781,2.406.166,7.7,10.423,7.888,12.618l1.106-.589s-2.853-5.3-2.9-5.664,3.787,4.052,3.992,4.714v.427l1.281-.91S167.106,99.478,166.993,99s-.311-1.986,2.036-1.5,10.692,1.986,12.578,2.943a8.787,8.787,0,0,1,2.178,1.307l.285-1.225a26.908,26.908,0,0,0-4.584-1.711l-2.986-.841s4.935.47,6.1.7a9.545,9.545,0,0,1,1.645.43Z"/>
      </g>
    </g>
  </g>
</svg>
