<svg xmlns="http://www.w3.org/2000/svg" xmlns:xlink="http://www.w3.org/1999/xlink" viewBox="0 0 189 189">
  <defs>
    <style>
      .cls-1, .cls-10, .cls-12, .cls-13, .cls-16, .cls-5, .cls-6, .cls-8 {
        fill: #fff;
      }

      .cls-1, .cls-2 {
        stroke: #707070;
      }

      .cls-11, .cls-14, .cls-17, .cls-2, .cls-21, .cls-7, .cls-9 {
        fill: none;
      }

      .cls-3 {
        clip-path: url(#clip-path);
      }

      .cls-4 {
        clip-path: url(#clip-path-2);
      }

      .cls-10, .cls-11, .cls-12, .cls-13, .cls-14, .cls-17, .cls-18, .cls-6, .cls-7, .cls-8, .cls-9 {
        stroke: #1d1d1b;
      }

      .cls-10, .cls-11, .cls-12, .cls-13, .cls-14, .cls-16, .cls-17, .cls-18, .cls-6, .cls-7, .cls-8, .cls-9 {
        stroke-miterlimit: 10;
      }

      .cls-18, .cls-6, .cls-7 {
        stroke-width: 0.429px;
      }

      .cls-8, .cls-9 {
        stroke-width: 0.429px;
      }

      .cls-10 {
        stroke-width: 0.249px;
      }

      .cls-11 {
        stroke-width: 0.157px;
      }

      .cls-12 {
        stroke-width: 0.315px;
      }

      .cls-13 {
        stroke-width: 0.157px;
      }

      .cls-14 {
        stroke-width: 0.24px;
      }

      .cls-15, .cls-18 {
        fill: #a09f9f;
      }

      .cls-16 {
        stroke: #000;
        stroke-width: 0.286px;
      }

      .cls-17 {
        stroke-width: 0.214px;
      }

      .cls-19 {
        clip-path: url(#clip-path-4);
      }

      .cls-20 {
        stroke: none;
      }
    </style>
    <clipPath id="clip-path">
      <circle id="Ellipse_69" data-name="Ellipse 69" class="cls-1" cx="92.986" cy="92.986" r="92.986" transform="translate(581 2000)"/>
    </clipPath>
    <clipPath id="clip-path-2">
      <circle id="Ellipse_29" data-name="Ellipse 29" class="cls-1" cx="94.5" cy="94.5" r="94.5" transform="translate(489 1995)"/>
    </clipPath>
    <clipPath id="clip-path-4">
      <circle id="Ellipse_69-3" data-name="Ellipse 69" class="cls-2" cx="92.986" cy="92.986" r="92.986" transform="translate(581 2000)"/>
    </clipPath>
  </defs>
  <g id="Group_371" data-name="Group 371" transform="translate(-489 -1082)">
    <g id="Group_359" data-name="Group 359" transform="translate(0 -913)">
      <g id="Ellipse_29-2" data-name="Ellipse 29" class="cls-1" transform="translate(489 1995)">
        <circle class="cls-20" cx="94.5" cy="94.5" r="94.5"/>
        <circle class="cls-21" cx="94.5" cy="94.5" r="94"/>
      </g>
    </g>
    <g id="Group_369" data-name="Group 369" transform="translate(0 -913)">
      <g id="Mask_Group_35" data-name="Mask Group 35" class="cls-4">
        <g id="Romeo_diagonal_-01" data-name="Romeo diagonal -01" transform="translate(459.488 1927.233)">
          <path id="Path_4852" data-name="Path 4852" class="cls-5" d="M43.352,181.088a6.912,6.912,0,0,0-5.772,3.349c-2.159,3.481.176,7.931.176,7.931,1.322,6.565,6.7,6.125,6.7,6.125,7.887-.264,6.521-10.311,6.521-10.311l-.088-7.006C50.931,181.132,48.023,183.423,43.352,181.088Z" transform="translate(0.004 88.93)"/>
          <path id="Path_4853" data-name="Path 4853" class="cls-5" d="M111.539,163.582l-.308.749s-1.058,0-2.115,5.155l12.91,3.128s1.763-6.7-1.5-8.284l-1.718-.308-1.763.353-.044-1.1Z" transform="translate(39.198 79.293)"/>
          <path id="Path_4854" data-name="Path 4854" class="cls-5" d="M69.241,164.162l.308.749s1.058-.044,2.379,5.067l-12.734,3.7s-2.071-6.609,1.1-8.372l1.718-.4,1.763.264-.044-1.1Z" transform="translate(11.833 79.726)"/>
          <path id="Path_4855" data-name="Path 4855" class="cls-5" d="M88.241,194.041l.044,1.454-2.423.044-.793,1.939.441,12.073.969,2.159,2.468-.044s.441-.485.352-2.688-.044-2.732-.044-2.732l4.01-.132.088,4.186s.176,1.234.441,1.234,2.468-.044,2.468-.044a7.871,7.871,0,0,0,1.1-2.688c.132-1.19-.264-11.28-.264-11.28l-.969-2.2-2.644.044-.088-.881Z" transform="translate(26.189 95.937)"/>
          <g id="Base" transform="translate(36.657 214.675)">
            <g id="base-2">
              <path id="Path_4856" data-name="Path 4856" class="cls-6" d="M93.75,166.288l-.132-3.173s4.671-2.82,18.33-3.393,15.025,2.732,15.025,2.732.617.529.22,3.437a7.672,7.672,0,0,1-1.63.308c-.176-.088-.088-1.1-.088-1.1s-11.941.088-18.991,3.745" transform="translate(-5.843 -137.339)"/>
              <path id="Path_4857" data-name="Path 4857" class="cls-6" d="M94.91,166.031l-.088-3.084s-5.2-2.82-18.9-2.732-14.849,3.437-14.849,3.437-.617.573-.088,3.437a7.872,7.872,0,0,0,1.63.264c.176-.088.044-1.1.044-1.1s11.941-.441,19.123,2.864" transform="translate(-23.614 -137.038)"/>
              <path id="Path_4858" data-name="Path 4858" class="cls-6" d="M92.016,174.818c5.2,0,7.579-2.644,7.579-2.644v-.308l-1.013-20.489a9.932,9.932,0,0,0-.264-1.586,3.068,3.068,0,0,0-.485-1.013s-.132,2.732-6.389,2.908l-1.366.044c-6.257.132-6.477-2.6-6.477-2.6a2.959,2.959,0,0,0-.441,1.013,6.487,6.487,0,0,0-.176,1.586L82.9,172.218l.044.308s2.468,2.556,7.667,2.291Z" transform="translate(-11.643 -143.224)"/>
              <path id="Path_4859" data-name="Path 4859" class="cls-6" d="M89.929,153.291c-5.508.22-6.3-2.467-6.3-2.467l-.044-2.644s-.088-1.542.4-2.027c0,0,0,2.468,6.213,2.291h.441c6.213-.132,6.081-2.556,6.081-2.556.529.485.485,2.027.485,2.027l.044,2.644s-.705,2.688-6.213,2.732Z" transform="translate(-11.274 -144.787)"/>
              <path id="Path_4860" data-name="Path 4860" class="cls-6" d="M83.839,146.716v-1.542H96.617l-.264.969s-.264,2.732-6.037,2.688S83.839,146.716,83.839,146.716Z" transform="translate(-11.133 -145.173)"/>
              <path id="Path_4861" data-name="Path 4861" class="cls-6" d="M87.127,194.156l.044,1.278a.945.945,0,0,1,.485.837l4.318-.088s.044-.749.308-.793l-.044-1.013" transform="translate(-9.354 -118.676)"/>
              <path id="Path_4862" data-name="Path 4862" class="cls-6" d="M88.006,194.956,85.583,195l.617,16.171,2.468-.044s.441-.353.352-1.763l-.485-13.615" transform="translate(-10.189 -118.243)"/>
              <path id="Path_4863" data-name="Path 4863" class="cls-6" d="M85.9,195.013l-.353.749c-.749,1.63-.4.793-.352,6.962v.132c.22,6.169,0,5.993.837,7.579l.4.749" transform="translate(-10.464 -118.212)"/>
              <path id="Path_4864" data-name="Path 4864" class="cls-6" d="M90.773,194.915l2.423-.044.132,16.215-2.468.044s-.485-.308-.441-1.718L90.244,195.8" transform="translate(-7.668 -118.289)"/>
              <path id="Path_4865" data-name="Path 4865" class="cls-6" d="M92.188,194.928l.4.749c.837,1.586.441.793.661,6.918v.132c.088,6.169.264,5.993-.485,7.579l-.352.749" transform="translate(-6.616 -118.258)"/>
              <line id="Line_670" data-name="Line 670" class="cls-7" y1="0.088" x2="4.054" transform="translate(78.698 87.2)"/>
              <path id="Path_4866" data-name="Path 4866" class="cls-6" d="M105.83,164.341l-.044-.308s-22.031,4.847-38.07,10.09A156.288,156.288,0,0,0,41.982,184.83s-2.027,1.234-1.058,5.6c0,0,4.054,2.512,7.8,0l.837-1.674s16.48-5.64,27.231-8.372a176.773,176.773,0,0,1,19.167-3.569c2.468-.308,4.891-.7,7.314-1.234h0a5.182,5.182,0,0,1,2.952.308l.617.308h0s.793.969,1.586,11.985,1.454,19.388,1.454,19.388.441,3.878,5.552,3.393a16.673,16.673,0,0,0,2.512-.441,3.821,3.821,0,0,0,2.776-3.745l.617-30.139h0l.617-.308a5.085,5.085,0,0,1,2.908-.441h.044c2.468.4,4.891.661,7.359.881a168,168,0,0,1,19.3,2.688c10.884,2.247,27.627,7.138,27.627,7.138l-.044,1.366c5.64,2.6,8.724-.088,8.724-.088.793-4.45-1.278-5.552-1.278-5.552a156.23,156.23,0,0,0-26.217-9.518c-16.259-4.494-38.158-8.813-38.158-8.813" transform="translate(-34.49 -134.995)"/>
              <path id="Path_4867" data-name="Path 4867" class="cls-7" d="M47.778,181.317v6.521l-.22.176a7.026,7.026,0,0,0-1.983-3.3,6.7,6.7,0,0,0-2.468-1.322l-.044-1.322" transform="translate(-33.191 -125.621)"/>
              <path id="Path_4868" data-name="Path 4868" class="cls-6" d="M37.54,192.132a13.051,13.051,0,0,1-.881-3.878,6.776,6.776,0,0,1,6.389-7.138" transform="translate(-36.657 -125.73)"/>
              <path id="Path_4869" data-name="Path 4869" class="cls-6" d="M36.859,188.23c-.088-3.878,3.349-6.653,6.962-6.742" transform="translate(-36.548 -125.528)"/>
              <ellipse id="Ellipse_232" data-name="Ellipse 232" class="cls-8" cx="6.565" cy="7.006" rx="6.565" ry="7.006" transform="matrix(1, -0.023, 0.023, 1, 0.942, 58.789)"/>
              <ellipse id="Ellipse_233" data-name="Ellipse 233" class="cls-8" cx="1.146" cy="1.19" rx="1.146" ry="1.19" transform="matrix(1, -0.023, 0.023, 1, 6.582, 64.523)"/>
              <path id="Path_4870" data-name="Path 4870" class="cls-6" d="M41.691,183.976s.132,3.833.264,4.01.308.353.705,0A29.56,29.56,0,0,0,44.6,184.9" transform="translate(-33.933 -124.183)"/>
              <path id="Path_4871" data-name="Path 4871" class="cls-6" d="M44.967,185.177a34.812,34.812,0,0,0-2.247,3.261c0,.264.044.485.529.485a29.785,29.785,0,0,0,3.349-.969" transform="translate(-33.377 -123.533)"/>
              <path id="Path_4872" data-name="Path 4872" class="cls-6" d="M46.689,187.75a29.4,29.4,0,0,0-3.789.264c-.176.176-.308.308,0,.749a24.424,24.424,0,0,0,2.864,2.115" transform="translate(-33.38 -122.141)"/>
              <path id="Path_4873" data-name="Path 4873" class="cls-6" d="M45.589,191.141a38.456,38.456,0,0,0-3.128-2.247c-.22,0-.441.044-.4.617a34.865,34.865,0,0,0,1.1,3.525" transform="translate(-33.734 -121.522)"/>
              <path id="Path_4874" data-name="Path 4874" class="cls-6" d="M42.137,184a38.885,38.885,0,0,1,.132,4.01c-.132.176-.264.352-.705.044a27.986,27.986,0,0,1-2.247-2.864" transform="translate(-35.217 -124.167)"/>
              <path id="Path_4875" data-name="Path 4875" class="cls-6" d="M39.282,185.434a37.4,37.4,0,0,1,2.556,3c.044.264,0,.485-.485.529a31.21,31.21,0,0,1-3.437-.617" transform="translate(-35.975 -123.394)"/>
              <path id="Path_4876" data-name="Path 4876" class="cls-6" d="M37.973,188.5a26.056,26.056,0,0,1,3.789-.132c.22.176.353.264.044.749a27.049,27.049,0,0,1-2.644,2.379" transform="translate(-35.944 -121.835)"/>
              <path id="Path_4877" data-name="Path 4877" class="cls-6" d="M39.489,192.042a36.237,36.237,0,0,1,2.512-3c.22-.044.441-.088.529.485s-.22,3.7-.22,3.7" transform="translate(-35.125 -121.453)"/>
              <line id="Line_671" data-name="Line 671" class="cls-7" y1="0.088" x2="2.159" transform="translate(39.042 30.227)"/>
              <path id="Path_4878" data-name="Path 4878" class="cls-6" d="M59.395,172.91c-.749-.837-.661-3-.661-3-.044-2.776,1.058-5.067,2.468-5.067s2.864,2.071,2.908,4.847l.044,1.542" transform="translate(-24.715 -134.531)"/>
              <path id="Path_4879" data-name="Path 4879" class="cls-6" d="M59.465,172.652c-.705-.793-.617-2.776-.617-2.776-.044-2.556.969-4.671,2.291-4.715s2.291,1.939,2.335,4.538l-.044,1.586" transform="translate(-24.654 -134.361)"/>
              <path id="Path_4880" data-name="Path 4880" class="cls-6" d="M59.819,165.561a34.9,34.9,0,0,0,.4,4.1c.22.617.441-2.159.837-2.908l.308-.617" transform="translate(-24.126 -134.144)"/>
              <path id="Path_4881" data-name="Path 4881" class="cls-6" d="M61.638,166.591a18.734,18.734,0,0,0-1.19,3.261c0,.617,1.146-.661,2.027-1.058" transform="translate(-23.786 -133.588)"/>
              <path id="Path_4882" data-name="Path 4882" class="cls-6" d="M59.625,166.19s.969,3.3.705,3.084a5.366,5.366,0,0,0-1.454-1.19" transform="translate(-24.637 -133.804)"/>
              <path id="Path_4883" data-name="Path 4883" class="cls-6" d="M58.933,167.734l1.454,1.63s.308.529-.132.573a11.544,11.544,0,0,1-1.234-.044" transform="translate(-24.606 -132.969)"/>
              <ellipse id="Ellipse_234" data-name="Ellipse 234" class="cls-8" cx="0.397" cy="0.837" rx="0.397" ry="0.837" transform="matrix(1, -0.023, 0.023, 1, 35.846, 35.602)"/>
              <path id="Path_4884" data-name="Path 4884" class="cls-6" d="M69.211,169.4s-1.013-3.789-1.763-4.23l-.088,4.715-3.217.969-.088-.881a9.274,9.274,0,0,0-1.19-3l-.044-1.674a2.748,2.748,0,0,0,2.644,1.013c1.674-.308,1.807-1.1,1.807-1.1l-.485-.705v.529l-3.084.088v-.881" transform="translate(-22.502 -134.856)"/>
              <line id="Line_672" data-name="Line 672" class="cls-7" x1="2.291" y1="0.044" transform="translate(117.297 28.949)"/>
              <path id="Path_4885" data-name="Path 4885" class="cls-6" d="M119.273,172.246c.749-.925.573-3.173.573-3.173-.088-2.908-1.322-5.243-2.82-5.2s-2.864,2.291-2.82,5.2l.044,1.586" transform="translate(5.294 -135.057)"/>
              <path id="Path_4886" data-name="Path 4886" class="cls-6" d="M118.925,171.957c.705-.881.529-2.908.529-2.908-.044-2.688-1.234-4.847-2.6-4.8s-2.291,2.159-2.247,4.847l.132,1.674" transform="translate(5.511 -134.856)"/>
              <path id="Path_4887" data-name="Path 4887" class="cls-6" d="M117.136,164.618a32.406,32.406,0,0,1-.22,4.274c-.22.661-.573-2.247-1.013-3.04a4.814,4.814,0,0,1-.353-.661" transform="translate(6.022 -134.655)"/>
              <path id="Path_4888" data-name="Path 4888" class="cls-6" d="M115.441,165.761a21.855,21.855,0,0,1,1.41,3.349c.044.617-1.234-.661-2.159-1.013" transform="translate(5.558 -134.036)"/>
              <path id="Path_4889" data-name="Path 4889" class="cls-6" d="M117.295,165.247a20.878,20.878,0,0,0-.617,3.261,5.493,5.493,0,0,1,1.454-1.322" transform="translate(6.612 -134.315)"/>
              <path id="Path_4890" data-name="Path 4890" class="cls-6" d="M118.169,166.848l-1.41,1.807s-.308.573.132.573a6.291,6.291,0,0,0,1.278-.132" transform="translate(6.619 -133.448)"/>
              <ellipse id="Ellipse_235" data-name="Ellipse 235" class="cls-8" cx="0.441" cy="0.881" rx="0.441" ry="0.881" transform="matrix(1, -0.023, 0.023, 1, 122.338, 34.413)"/>
              <path id="Path_4891" data-name="Path 4891" class="cls-6" d="M109.2,169.132s.881-4.054,1.63-4.494l.308,4.891,3.437.881.088-.969a9.3,9.3,0,0,1,1.1-3.217l-.044-1.763a2.885,2.885,0,0,1-2.732,1.19c-1.763-.264-1.983-1.058-1.983-1.058l.441-.749v.529l3.217-.088v-.925" transform="translate(2.588 -135.335)"/>
              <ellipse id="Ellipse_236" data-name="Ellipse 236" class="cls-9" cx="5.552" cy="5.948" rx="5.552" ry="5.948" transform="matrix(1, -0.023, 0.023, 1, 1.979, 59.823)"/>
              <path id="Path_4892" data-name="Path 4892" class="cls-7" d="M37,189.356a6.53,6.53,0,0,1,6.257-6.742h.264a6.353,6.353,0,0,1,2.864.352" transform="translate(-36.472 -124.936)"/>
            </g>
          </g>
          <path id="Path_4893" data-name="Path 4893" class="cls-10" d="M138.219,179.458a6.776,6.776,0,0,1,6.389,7.138,13.05,13.05,0,0,1-.881,3.878L130.9,186.861l4.671-6.125Z" transform="translate(50.985 88.048)"/>
          <path id="Path_4894" data-name="Path 4894" class="cls-11" d="M142.07,186.571c.088-3.878-3.349-6.653-6.962-6.742" transform="translate(53.259 88.249)"/>
          <path id="Path_4895" data-name="Path 4895" class="cls-12" d="M136.98,195.571a7,7,0,1,0-6.389-7.138,6.78,6.78,0,0,0,6.389,7.138" transform="translate(50.814 89.208)"/>
          <ellipse id="Ellipse_237" data-name="Ellipse 237" class="cls-13" cx="1.19" cy="1.146" rx="1.19" ry="1.146" transform="matrix(0.023, -1, 1, 0.023, 186.617, 278.94)"/>
          <path id="Path_4896" data-name="Path 4896" class="cls-11" d="M135.786,182.318s-.132,3.833-.264,4.01-.308.352-.705,0a29.566,29.566,0,0,1-1.939-3.084" transform="translate(52.052 89.595)"/>
          <path id="Path_4897" data-name="Path 4897" class="cls-11" d="M135.368,182.318a38.882,38.882,0,0,0-.132,4.01c.132.176.264.352.705.044a27.98,27.98,0,0,0,2.247-2.864" transform="translate(53.308 89.595)"/>
          <path id="Path_4898" data-name="Path 4898" class="cls-11" d="M138.555,183.776a37.4,37.4,0,0,0-2.556,3c-.044.264,0,.485.485.529a31.2,31.2,0,0,0,3.437-.617" transform="translate(53.734 90.384)"/>
          <path id="Path_4899" data-name="Path 4899" class="cls-11" d="M139.921,186.844a26.056,26.056,0,0,0-3.789-.132c-.22.176-.353.264-.044.749a27.049,27.049,0,0,0,2.644,2.379" transform="translate(53.69 91.943)"/>
          <path id="Path_4900" data-name="Path 4900" class="cls-14" d="M136.668,194.158a5.7,5.7,0,0,0,5.684-5.816,5.778,5.778,0,0,0-5.42-6.081,5.964,5.964,0,0,0-.264,11.9" transform="translate(51.17 89.563)"/>
          <path id="Path_4901" data-name="Path 4901" class="cls-11" d="M142.639,187.711a6.333,6.333,0,0,0-6.257-6.786,5.824,5.824,0,0,0-2.732.4" transform="translate(52.47 88.828)"/>
          <path id="Path_4902" data-name="Path 4902" class="cls-12" d="M135.726,180.566l-.044,1.1a11.036,11.036,0,0,0-2.468,1.542,8.054,8.054,0,0,0-2.071,2.776l-.353.925.353-7.138a5.151,5.151,0,0,0,1.983.573A25.846,25.846,0,0,0,135.726,180.566Z" transform="translate(50.923 88.218)"/>
          <path id="Path_4903" data-name="Path 4903" class="cls-11" d="M132.964,183.461a34.267,34.267,0,0,1,2.2,2.952c.088.22-.088.925-.617.925a27.306,27.306,0,0,1-3.217-.837" transform="translate(51.217 90.214)"/>
          <path id="Path_4904" data-name="Path 4904" class="cls-11" d="M132.22,189.445a23.636,23.636,0,0,1,2.688-1.895c.264,0,.441.044.4.617a23.411,23.411,0,0,1-.837,2.82" transform="translate(51.697 92.426)"/>
          <path id="Path_4905" data-name="Path 4905" class="cls-11" d="M134.708,191.042a23.225,23.225,0,0,1,.529-3.217c.176-.132.352-.264.7.132a25.686,25.686,0,0,1,1.454,2.556" transform="translate(53.042 92.503)"/>
          <path id="Path_4906" data-name="Path 4906" class="cls-11" d="M131.277,186.378a21.7,21.7,0,0,1,3.261.22c.176.176.308.308-.044.749a17.533,17.533,0,0,1-2.423,1.674" transform="translate(51.186 91.791)"/>
          <path id="Path_4907" data-name="Path 4907" class="cls-5" d="M149.347,98.257l-5.86-.22h-9.606l-13.351-.485-1.763-1.674s-.661-2.468,1.058-2.82,10.487-.441,10.487-.441,16.568.308,17.669.132,17.625,1.146,17.625,1.146a1.888,1.888,0,0,1,1.366,1.674c0,1.278-.529,1.674-.529,1.674l-1.19,1.19a17.969,17.969,0,0,1-3.128,0c-3-.088-10.4,0-10.4,0Z" transform="translate(44.352 41.07)"/>
          <path id="Path_4908" data-name="Path 4908" class="cls-15" d="M94.206,124.958v-.176l7.094.044,6.521-.264a35.995,35.995,0,0,1,4.8-.264,21.71,21.71,0,0,0,2.908.308s11.148-.969,24.367-2.2,23.882-.22,29.434,1.63l.485.176c5.155,1.851,5.949,4.583,6.213,9.165.308,4.715-1.1,9.562-3.084,12.249s-7.491,3.393-7.491,3.393l-12.249,4.274c-10.223,2.864-10.928,5.067-19.388,7.27s-10,.308-10,.308l-32.651-1.763h-.352l-.044-1.586-.485-.176s.529.573-2.071.969v-.132l1.763-.661,1.674-17.669.969-.22Z" transform="translate(27.891 56.89)"/>
          <path id="Path_4909" data-name="Path 4909" class="cls-15" d="M146.668,115.494a27.419,27.419,0,0,1,8.24,1.19l1.366.308s5.243,1.762,9.694,7.931a13.27,13.27,0,0,1,1.19,1.851l.573.793-.485-.176c-5.6-1.851-16.215-2.864-29.434-1.63s-24.367,2.2-24.367,2.2a21.71,21.71,0,0,1-2.908-.308,36.459,36.459,0,0,0-4.8.264l-6.521.264-7.138-.044.132-1.234,14.717-1.366s6.3-.529,7.4-.793,8.813-3.261,8.813-3.261,8.68-4.8,16.612-5.508C142.658,115.67,144.861,115.538,146.668,115.494Z" transform="translate(29.979 53.444)"/>
          <path id="Path_4910" data-name="Path 4910" class="cls-5" d="M144.129,96.365l-5.067,8.284-4.847,22.781-1.366-.308,4.274-22.56,4.538-8.284Z" transform="translate(52.037 43.05)"/>
          <path id="Path_4911" data-name="Path 4911" class="cls-5" d="M144.555,96.354l-4.538,8.284-4.274,22.56a26.277,26.277,0,0,0-8.24-1.19l3.173-21.326-1.542-8.548h9.606Z" transform="translate(49.144 42.973)"/>
          <path id="Path_4912" data-name="Path 4912" class="cls-5" d="M110.04,104.57H108.19l-1.542.044-7.138.132H95.367l-5.64-.044-.132.044H88.89l-9.033-.088-4.494-.044h-.925l-1.851-1.586s-.837-2.423.881-2.864,8.769-1.278,8.769-1.278h.793c1.19-.044,3.657-.088,6.433-.176,1.895-.044,3.922-.088,5.772-.088,2.644,0,4.979,0,6.213.088,1.5.132,4.1.264,6.83.441h0c1.807.132,3.657.22,5.2.308l.837.044,3.261.176a26.815,26.815,0,0,0,4.142-.22c1.1-.264,4.891-.837,4.891-.837s1.41.308,1.5,1.586-.4,1.674-.4,1.674l-1.1,1.278a47.553,47.553,0,0,1-7.314,1.19c-.661.044-1.542.044-2.556.088l-.881.044c-1.895.044-3.966.088-5.464.132Z" transform="translate(19.327 44.318)"/>
          <path id="Path_4913" data-name="Path 4913" class="cls-5" d="M113.589,98l9.253,1.19s-3.789.573-4.891.837a26.817,26.817,0,0,1-4.142.22l-3.261-.176-.837-.044c-1.542-.088-3.393-.176-5.2-.308h0c-2.688-.176-5.332-.308-6.83-.441-1.234-.088-3.569-.132-6.213-.088-1.895,0-3.878.044-5.772.088-2.776.044-5.243.132-6.433.176v-.22s2.644-.485,6.521-.969c1.674-.176,3.613-.4,5.64-.485,1.322-.088,2.688-.132,4.1-.176,2.82-.044,5.64-.044,8.152,0,1.851.044,3.525.044,4.935.088l.793.044c1.057.044,1.939.044,2.512.088S113.016,97.913,113.589,98Z" transform="translate(23.049 43.75)"/>
          <path id="Path_4914" data-name="Path 4914" class="cls-15" d="M106.067,110.343c.925,3.3,2.159,12.822-6.213,17.845-.573.352-1.146.705-1.718,1.013a16.359,16.359,0,0,0,1.146-2.335c6.786-3.966,6.433-13.66,5.552-16.964a68.223,68.223,0,0,0-3.04-7.491l.881-.044A67.025,67.025,0,0,1,106.067,110.343Z" transform="translate(33.258 46.345)"/>
          <path id="Path_4915" data-name="Path 4915" class="cls-15" d="M105.512,109.887c.881,3.3,1.234,13-5.552,16.964a26.384,26.384,0,0,0,1.586-5.111c1.454-6.477-2.2-16.435-2.2-16.435h-1.5c-.176-.661-.441-1.586-.881-2.776,1.5-.044,3.569-.088,5.464-.132A67.08,67.08,0,0,1,105.512,109.887Z" transform="translate(32.624 46.36)"/>
          <path id="Path_4916" data-name="Path 4916" class="cls-15" d="M92.525,132.175a28.487,28.487,0,0,0,2.952-2.688h0c1.895-2.027,3.657-4.627,3.481-7.226,0,0-.573-14.409-1.586-17.978h4.538s3.657,10,2.2,16.435a32.783,32.783,0,0,1-1.586,5.111,22.906,22.906,0,0,1-1.146,2.335,7.633,7.633,0,0,1-.969,1.366,18.628,18.628,0,0,1-4.891,2.6c-.264.088-.529.176-.837.264a15.439,15.439,0,0,1-2.468.573l.044-.617.044-.22Z" transform="translate(30.056 47.381)"/>
          <path id="Path_4917" data-name="Path 4917" class="cls-15" d="M86.338,148.391l4.494.044,9.033.088h.705l2.423,9.782-.22,2.688-1.983,23.574-.661,7.975-.176,3.7,1.1.176-1.674,16.744-1.013.573v.529l-.264.264-22.516-1.851,3.217-.529,1.19-2.776-.176-.264-4.406-8.328-.441-.22-4.01-2.2-1.013.353-2.2-2.379.4-.617-1.674-3.789h0l-.4-.837c.308-.088,1.586-.529,3.261-1.146h0c1.454-.529,3.128-1.234,4.671-1.983h.044a21.148,21.148,0,0,0,3.084-1.718,11.765,11.765,0,0,0,4.406-5.9,15.979,15.979,0,0,0,.088-6.3,35.507,35.507,0,0,0-1.895-7.447s-1.674-4.671-4.01-9.65-4.186-8.108-4.186-8.108L65.012,135.7s-5.243-13.615-7.4-19.96a51.418,51.418,0,0,1-2.071-10.884c-.264-2.82-.308-4.891-.308-4.891s.4-5.684.661-12.382-.441-10.09-.705-11.192c-.176-.749-.837-3.789-1.278-5.86v-.088c-.264-1.1-.4-1.895-.4-1.895s-.837-4.406-1.146-7.359c-.088-.837-.132-1.63-.176-2.379,0-.176-.044-.308-.044-.485-.088-1.718-.132-3.04-.132-3.04a161.8,161.8,0,0,1,2.115-20.577l1.1-4.406c1.454-4.538,2.556-7.843,4.671-9.914h0l1.586-1.234a11.958,11.958,0,0,1,5.067-1.41c7.4-.573,15.642,4.318,15.642,4.318s.573.176,1.542,1.454a.043.043,0,0,0,.044.044c.264.4.529.793.793,1.234L93.829,53.48c3.3,7.8,6.345,9.165,6.345,9.165l14.805,11.1s10.619,7.314,3.481,22.208c-7.931,16.48-1.366,28.729-1.366,28.729l5.9,13.924,1.234,2.468-.793-.044c-1.41-.044-3.084-.088-4.935-.088-2.512-.044-5.332-.044-8.152,0-1.41.044-2.776.088-4.1.176-2.027.132-3.966.308-5.64.485-3.922.441-6.521.969-6.521.969v.176H93.3s-7.094.837-8.769,1.278-.881,2.864-.881,2.864l1.851,1.586Z" transform="translate(8.307 0.542)"/>
          <path id="Path_4918" data-name="Path 4918" class="cls-15" d="M98.649,105.2h-3.04l-.132-.044,1.1-2.644h1.234C98.208,103.612,98.473,104.582,98.649,105.2Z" transform="translate(31.82 46.422)"/>
          <path id="Path_4919" data-name="Path 4919" class="cls-15" d="M98.927,122.292c.176,2.6-1.586,5.2-3.481,7.226h0a28.487,28.487,0,0,1-2.952,2.688l-.22-.044.176-1.542.881-8.24,1.278-11.721,2.644-6.433.132.044C98.4,107.884,98.927,122.292,98.927,122.292Z" transform="translate(30.087 47.35)"/>
          <path id="Path_4920" data-name="Path 4920" class="cls-5" d="M100.1,102.5h0L99,105.141l-2.644,6.433L95.082,123.3l-.881,8.24-.176,1.542-.044.22-.044.617-.132,1.234h0v.22l-1.586,14.673-.969.22-1.983.441-.308.088,2.952-25.556,1.542-13.527,4.186-9.209,1.542-.044Z" transform="translate(28.293 46.391)"/>
          <path id="Path_4921" data-name="Path 4921" class="cls-5" d="M100.837,102.511l-4.23,9.253-1.542,13.527-2.952,25.556-7.535-.264-.353-.044-1.1-.176.176-3.7.705-7.975,1.939-23.574.22-2.688-2.423-9.782.176-.044,5.6.044h4.142Z" transform="translate(25.137 46.422)"/>
          <path id="Path_4922" data-name="Path 4922" class="cls-5" d="M93.149,151.821s.705.485-2.291,1.278a.674.674,0,0,1-.132.881,1.918,1.918,0,0,1-.837.441,5.956,5.956,0,0,1-1.278.22v-.749l-.4-8.064c2.6-.4,2.071-.969,2.071-.969l.485.176.044,1.586.132,3.613,1.895-.485Z" transform="translate(27.891 69.331)"/>
          <path id="Path_4923" data-name="Path 4923" class="cls-5" d="M91.65,133.536,89.976,151.2l-1.763.661,1.454-17.8v-.088Z" transform="translate(27.891 63.206)"/>
          <path id="Path_4924" data-name="Path 4924" class="cls-5" d="M92.993,133.9v.088l-1.454,17.8v.132l-.308.044c-2.952.4-8.9-.7-8.9-.7l-.264.264V151l1.013-.573,1.674-16.744.352.044,7.535.264Z" transform="translate(24.565 63.283)"/>
          <path id="Path_4925" data-name="Path 4925" class="cls-5" d="M92.568,153.828v.749a37.708,37.708,0,0,1-6.7-.22,32.051,32.051,0,0,1-4.583-.749l-.308-.793,1.454-7.226H82.7v-.264l.264-.264s5.948,1.1,8.9.705l.308-.044Z" transform="translate(23.977 69.439)"/>
          <path id="Path_4926" data-name="Path 4926" class="cls-5" d="M87.271,145.446l-9.429,3.393a4.675,4.675,0,0,0-1.983,2.335L73.171,157.7l-1.542-.441s2.247-6.169,3.3-7.755a4.393,4.393,0,0,1,2.247-1.895l6.654-2.2Z" transform="translate(18.919 69.625)"/>
          <path id="Path_4927" data-name="Path 4927" class="cls-5" d="M75.538,153.761,74.3,159.577a1.391,1.391,0,0,0-.573.969,3.2,3.2,0,0,1-.308,1.278,3.4,3.4,0,0,0-.308,1.146,1.767,1.767,0,0,1-.925,1.454h0a2.121,2.121,0,0,1-1.718.088s-2.027-.925-2.071-1.939.132-1.278.353-1.5.969-.661,1.058-1.146.132-.881.441-1.058,1.013-.485,1.19-.969,2.512-4.274,2.512-4.274l.044-.22Z" transform="translate(17.168 73.956)"/>
          <path id="Path_4928" data-name="Path 4928" class="cls-5" d="M74.574,153.7l-.044.22s-2.335,3.789-2.512,4.274-.881.793-1.19.969-.353.573-.441,1.057-.837.925-1.057,1.146-.4.485-.353,1.5,2.071,1.939,2.071,1.939a2.12,2.12,0,0,0,1.718-.088h0l.088.132a1.524,1.524,0,0,1-.485.441,1.7,1.7,0,0,1-1.146,0,.534.534,0,0,0-.573.132.924.924,0,0,1-.881-.176c-.088-.176-1.013-.4-1.013-.4a5.219,5.219,0,0,1-1.454-2.071c-.4-1.19,1.322-3.217,1.322-3.217l4.45-6.786,1.5.925Z" transform="translate(16.547 73.616)"/>
          <path id="Path_4929" data-name="Path 4929" class="cls-5" d="M55.818,30.712l-1.1,4.406A171.228,171.228,0,0,0,52.6,55.7s0,1.278.132,3.04a1.976,1.976,0,0,0,.044.485c.044.749.088,1.586.176,2.379.264,2.952,1.146,7.358,1.146,7.358s.176.793.4,1.895v.088c.441,2.071,1.1,5.155,1.278,5.86a41.774,41.774,0,0,1,.705,11.192c-.264,6.653-.661,12.382-.661,12.382s.044,2.027.308,4.891A49.26,49.26,0,0,0,58.2,116.15c2.159,6.345,7.4,19.96,7.4,19.96l6.521,13.131s1.895,3.173,4.186,8.108,4.01,9.65,4.01,9.65a36.718,36.718,0,0,1,1.939,7.491,15.979,15.979,0,0,1-.088,6.3,11.765,11.765,0,0,1-4.406,5.9,21.146,21.146,0,0,1-3.084,1.718h-.044c-1.542.749-3.261,1.454-4.671,1.983h0c-1.674.617-3,1.058-3.261,1.146H64.983L64.19,190.4s7.667-1.278,11.589-4.671,4.186-4.186,4.186-4.186a12.584,12.584,0,0,0,.661-6.257,45.754,45.754,0,0,0-3.437-11.06c-1.542-3.613-4.891-11.016-4.891-11.016l-4.538-8.416-5.772-12.514S57.4,119.631,57.1,118.353s-2.908-10.751-2.952-15.246c-.044-4.45.617-13.66.617-13.66s.132-8.636-.308-10.179-1.278-5.552-1.5-6.3-1.5-9.165-1.5-9.165-.793-7.094-.441-8.68a150.575,150.575,0,0,1,2.027-20.4l.969-4.142c.176-.573.353-1.146.529-1.674,1.366-3.833,2.512-6.742,4.23-8.724s4.142-3.173,7.975-3.437c7.579-.573,14.761,4.274,14.761,4.274s1.146.22,2.864,2.732C83.4,22.428,82.829,22.3,82.829,22.3s-8.284-4.847-15.642-4.318a10.816,10.816,0,0,0-5.067,1.41l-1.586,1.234h0C58.374,22.869,57.272,26.174,55.818,30.712Z" transform="translate(7.719 0)"/>
          <path id="Path_4930" data-name="Path 4930" class="cls-15" d="M83.244,174.055a12.584,12.584,0,0,1-.661,6.257s-.264.793-4.186,4.186-11.589,4.671-11.589,4.671l.793,1.146s-.4-.044-1.013-.176c0,0-2.2-5.376-4.01-6.521a4.915,4.915,0,0,0-3.437-.529l3.966-.925L60.42,158.985,57.159,147.4l-1.058.132-5.288.264-.881,5.816-.044-.793a8.967,8.967,0,0,1-.088-4.186,57.789,57.789,0,0,0,.969-14.32c-.353-6.918-1.013-12.91-1.013-12.91s-.749-8.945-1.895-22.164S45.967,78.967,46.1,75.574s1.807-13.4,1.807-13.4,4.274-18.639,5.772-27.1a34.5,34.5,0,0,1,6.081-14.188l1.763-1.763c-1.718,1.983-2.864,4.891-4.23,8.724-.176.529-.353,1.058-.529,1.674l-.969,4.142a150.576,150.576,0,0,0-2.027,20.4c-.353,1.586.441,8.68.441,8.68s1.322,8.416,1.5,9.165,1.058,4.759,1.5,6.3.308,10.179.308,10.179-.661,9.209-.617,13.66,2.644,13.968,2.952,15.246,4.891,13.924,4.891,13.924L70.51,143.74l4.538,8.416s3.393,7.447,4.891,11.016A45.414,45.414,0,0,1,83.244,174.055Z" transform="translate(5.1 1.316)"/>
          <path id="Path_4931" data-name="Path 4931" class="cls-5" d="M72.807,141.885l.176.264-1.19,2.776-3.217.529a16.414,16.414,0,0,1-3.525.837l1.234-2.864.441.088,5.728-1.41Z" transform="translate(15.361 67.722)"/>
          <path id="Path_4932" data-name="Path 4932" class="cls-5" d="M69.378,136.587l4.45,8.328-.4.22-5.728,1.41-.441-.088s-2.688-6.3-3.261-7.447a3.352,3.352,0,0,0-.529-.837c-.176-.22-.264-.176-.264-.176h.7l4.8-1.234.22-.4Z" transform="translate(14.34 64.737)"/>
          <path id="Path_4933" data-name="Path 4933" class="cls-5" d="M74.292,142.217l-.22.4-4.8,1.234h-.749a50.417,50.417,0,0,1-6.3-4.186c-2.512-2.027-4.186-6.213-5.243-8.548-.088-.22-.176-.441-.264-.617a16.252,16.252,0,0,0-3.525-4.318l1.454-.485h.044l.617-.132a5.164,5.164,0,0,1,3.437.529c1.851,1.146,4.01,6.521,4.01,6.521l1.278,1.807.485,2.071,1.234,1.895,1.322-.352,2.2,2.379,1.013-.352Z" transform="translate(8.942 58.842)"/>
          <path id="Path_4934" data-name="Path 4934" class="cls-5" d="M67.634,143.35l-1.19,2.864-3.745-3.3-.22-.176.22-.7Z" transform="translate(13.969 67.8)"/>
          <path id="Path_4935" data-name="Path 4935" class="cls-5" d="M68.1,145.794l-4.979-1.322-1.5-3.437s2.512-3.217,2.512-3.349l.176-.176a3.352,3.352,0,0,1,.529.837C65.41,139.493,68.1,145.794,68.1,145.794Z" transform="translate(13.505 65.356)"/>
          <path id="Path_4936" data-name="Path 4936" class="cls-5" d="M74.225,146.74H69.29l-21.15-2.688-.044-3,19.96,2.379,2.2-.176.22.176Z" transform="translate(6.188 67.274)"/>
          <path id="Path_4937" data-name="Path 4937" class="cls-5" d="M69.815,143.79l-.176.176c0,.132-2.512,3.349-2.512,3.349l-2.776-1.41a12.34,12.34,0,0,1-3.128-2.335,37.374,37.374,0,0,1-6.257-9.429c-2.027-4.362-3.481-4.627-3.481-4.627l-.044-.617,1.278-.793,1.322-.793-.353-1.278.441-.132a15.471,15.471,0,0,1,3.525,4.318c.088.176.176.4.264.617,1.058,2.379,2.732,6.565,5.243,8.548a50.422,50.422,0,0,0,6.3,4.186h.044A.9.9,0,0,1,69.815,143.79Z" transform="translate(7.998 59.075)"/>
          <path id="Path_4938" data-name="Path 4938" class="cls-5" d="M69.807,146.047l1.5,3.437-.176.705-2.2.176-19.96-2.379-.705-.617L46.5,134.326s-.22-3.833,1.542-5.772h.176l.308,4.627,1.895,4.979h3.04l1.19-5.288-.441-4.627s1.5.264,3.481,4.627A37.212,37.212,0,0,0,63.9,142.3a13.476,13.476,0,0,0,3.128,2.335Z" transform="translate(5.319 60.344)"/>
          <path id="Path_4939" data-name="Path 4939" class="cls-5" d="M62,130.733l1.674,3.789-.4.617-1.322.352L60.676,133.6l-.485-2.071Z" transform="translate(12.731 61.69)"/>
          <path id="Path_4940" data-name="Path 4940" class="cls-5" d="M62.05,130.252l.4.837-1.807.793-1.278-1.807c.617.132,1.013.176,1.013.176H62.05Z" transform="translate(12.283 61.334)"/>
          <path id="Path_4941" data-name="Path 4941" class="cls-5" d="M56.983,113.943l2.688,23.221-3.966.925c-.22.044-.441.088-.617.132h-.044l-1.454.485-.441.132-.044-.132,2.776-9.429L54.824,114.3l-2.468-11.589.308-.264,1.058-.132Z" transform="translate(8.493 46.314)"/>
          <path id="Path_4942" data-name="Path 4942" class="cls-5" d="M55.538,114.156,56.6,129.138l-2.688,9.429.044.132.353,1.234-1.322.837-1.278.793-.264-2.6h0l2.688-9.3-1.19-15.025-1.983-10.223,2.159-1.851Z" transform="translate(7.735 46.453)"/>
          <path id="Path_4943" data-name="Path 4943" class="cls-5" d="M55.011,113.991l1.19,15.025-2.688,9.3h0l.264,2.6.044.617.441,4.583-1.1,5.288H50.076l-1.895-5.023-.308-4.627-.044-.793-.705-2.027v-.969l2.644-9.077-1.322-14.849h0l1.013-4.627h0l1.19-5.6,2.379-.044Z" transform="translate(5.662 47.103)"/>
          <path id="Path_4944" data-name="Path 4944" class="cls-5" d="M54.413,102.4l-.308.264-2.159,1.851-2.379.044-.441-1.895Z" transform="translate(6.745 46.36)"/>
          <path id="Path_4945" data-name="Path 4945" class="cls-5" d="M49.434,102.568l.441,1.895-1.19,5.552c-.044-.705-.088-1.234-.132-1.674h0Z" transform="translate(6.436 46.453)"/>
          <path id="Path_4946" data-name="Path 4946" class="cls-5" d="M48.792,141.288l.044,3a14.024,14.024,0,0,1-2.027-2.776l1.278-.881h0Z" transform="translate(5.492 67.042)"/>
          <path id="Path_4947" data-name="Path 4947" class="cls-5" d="M47.08,135.223l1.763,13.043h0l-1.278.881h0a2.286,2.286,0,0,1-.132-.22s-1.322-7.05-1.939-13.615S48,126.587,48,126.587l.705,2.027.044.793h-.176C46.859,131.39,47.08,135.223,47.08,135.223Z" transform="translate(4.737 59.447)"/>
          <path id="Path_4948" data-name="Path 4948" class="cls-7" d="M73.171,157.995l2.688-6.521a4.9,4.9,0,0,1,1.983-2.335h0l9.429-3.393H83.834l-6.654,2.2a4.224,4.224,0,0,0-2.247,1.895,74.274,74.274,0,0,0-3.3,7.755Z" transform="translate(18.919 69.811)"/>
          <path id="Path_4949" data-name="Path 4949" class="cls-7" d="M74.561,154.24s-2.335,3.789-2.512,4.274-.881.793-1.19.969-.353.573-.441,1.058-.837.925-1.057,1.146-.4.485-.353,1.5,2.071,1.939,2.071,1.939a2.121,2.121,0,0,0,1.718-.088,1.831,1.831,0,0,0,.925-1.454,3.4,3.4,0,0,1,.308-1.146,2.608,2.608,0,0,0,.308-1.278,1.391,1.391,0,0,1,.573-.969l1.234-5.816-1.63-.4-1.5-.881-4.45,6.786s-1.718,2.071-1.322,3.217a5.7,5.7,0,0,0,1.454,2.071,3.37,3.37,0,0,1,1.013.4c.132.176.749.308.881.176a.467.467,0,0,1,.573-.132,2.515,2.515,0,0,0,1.146,0,1.65,1.65,0,0,0,.573-.529" transform="translate(16.516 73.786)"/>
          <path id="Path_4950" data-name="Path 4950" class="cls-7" d="M59.007,19.5l-.22.22h0c-2.115,2.115-3.217,5.42-4.671,9.914l-.044.22" transform="translate(9.421 1.517)"/>
          <path id="Path_4951" data-name="Path 4951" class="cls-7" d="M108.9,129.224c-.352-.749-.573-1.234-.573-1.234l-6.257-13.924s-5.728-10.619-.793-25.424h0c.088-.264.176-.485.264-.749h0c.353-.925.705-1.895,1.146-2.864,7.27-16.7-3.217-22.869-3.217-22.869L96.3,59.913,85.151,52.026a7.456,7.456,0,0,1-2.423-2.556,36.018,36.018,0,0,1-3.878-7.975c0-.044-.044-1.146-.044-1.234" transform="translate(22.801 12.747)"/>
          <line id="Line_673" data-name="Line 673" class="cls-7" y1="0.132" transform="translate(122.581 179.997)"/>
          <path id="Path_4952" data-name="Path 4952" class="cls-7" d="M101.419,102.711a71.974,71.974,0,0,1,3.04,7.491c.881,3.3,1.234,13-5.552,16.964" transform="translate(33.676 46.53)"/>
          <path id="Path_4953" data-name="Path 4953" class="cls-7" d="M102.7,102.682a86.647,86.647,0,0,1,3.393,7.975c.925,3.3,2.159,12.822-6.213,17.845-.573.352-1.146.705-1.718,1.013" transform="translate(33.274 46.515)"/>
          <path id="Path_4954" data-name="Path 4954" class="cls-7" d="M60.4,130.566s-.4-.044-1.013-.176" transform="translate(12.298 61.504)"/>
          <path id="Path_4955" data-name="Path 4955" class="cls-7" d="M61.483,19.358l-1.763,1.763A34.009,34.009,0,0,0,53.64,35.309c-1.5,8.46-5.772,27.1-5.772,27.1s-1.674,10-1.851,13.351S46.59,86.2,47.78,99.421s1.895,22.164,1.895,22.164.661,6.037,1.013,12.91a53.854,53.854,0,0,1-.969,14.32A8.423,8.423,0,0,0,49.807,153l.044.793h0c.044.4.088.969.132,1.674h0" transform="translate(5.05 1.44)"/>
          <line id="Line_674" data-name="Line 674" class="cls-7" transform="translate(59.219 185.858)"/>
          <path id="Path_4956" data-name="Path 4956" class="cls-7" d="M53.865,142.544l.441,4.627-1.146,5.243H50.12l-1.939-4.979-.352-5.464-.705-1.983v-1.013l2.644-9.077-1.322-14.805h0l-.044-.441.925-5.9h0l.881-5.772,5.288-.264-.308.264-2.159,1.807,1.983,10.267,1.234,15.025-2.688,9.253h0l.22,2.644Z" transform="translate(5.662 46.53)"/>
          <path id="Path_4957" data-name="Path 4957" class="cls-7" d="M51.945,104.689l-2.379.088-.441-1.895" transform="translate(6.745 46.623)"/>
          <line id="Line_675" data-name="Line 675" class="cls-7" y1="10.223" x2="2.203" transform="translate(54.108 151.4)"/>
          <path id="Path_4958" data-name="Path 4958" class="cls-7" d="M52.851,102.882l2.468,11.544,1.058,14.981-2.732,9.429.4,1.41-1.278.793-1.322.837" transform="translate(7.998 46.623)"/>
          <line id="Line_676" data-name="Line 676" class="cls-7" transform="translate(127.604 143.91)"/>
          <path id="Path_4959" data-name="Path 4959" class="cls-7" d="M97.845,105.544c-.176-.661-.441-1.586-.881-2.776" transform="translate(32.624 46.561)"/>
          <path id="Path_4960" data-name="Path 4960" class="cls-7" d="M63.43,63.348h0l-4.23.485a2.275,2.275,0,0,1-2.2-1.5h0a22.369,22.369,0,0,1-.705-4.538v-.044c-.088-1.1-.132-1.939-.132-1.939l3.3-13.175c0-.044.044-.088.044-.176h0" transform="translate(10.55 13.938)"/>
          <path id="Path_4961" data-name="Path 4961" class="cls-16" d="M59.419,46.466h0l-2.688,9.958c.088,2.556,1.763,2.335,1.763,2.335s1.674-.088,3.657-.264h0" transform="translate(10.86 16.104)"/>
          <path id="Path_4962" data-name="Path 4962" class="cls-7" d="M57.246,54.443s1.851-.132,3.128-.264a1.081,1.081,0,0,0,.925-.793" transform="translate(11.138 19.847)"/>
          <line id="Line_677" data-name="Line 677" class="cls-7" x1="0.353" y2="0.397" transform="translate(94.337 149.374)"/>
          <path id="Path_4963" data-name="Path 4963" class="cls-7" d="M124.592,161.127h-2.864s1.542,1.895,10-.308,9.165-4.406,19.388-7.27l12.249-4.274s5.508-.661,7.491-3.393,3.393-7.579,3.084-12.25-1.1-7.491-6.7-9.341-16.215-2.864-29.434-1.63-24.367,2.2-24.367,2.2a21.71,21.71,0,0,1-2.908-.308,36.457,36.457,0,0,0-4.8.264l-6.521.264-7.138-.044v.485" transform="translate(29.979 57.029)"/>
          <path id="Path_4964" data-name="Path 4964" class="cls-7" d="M127.748,152.355s-.044-.705,1.278-7.27-2.071-9.3-2.071-9.3-1.058-1.5-5.067-3.349-18.462-2.82-18.462-2.82a49.05,49.05,0,0,1,11.456,9.518c4.671,5.6,8.68,10.267,8.68,10.267l1.895,3.261-.088,2.644C125.281,155.263,127.969,153.853,127.748,152.355Z" transform="translate(36.12 61.086)"/>
          <path id="Path_4965" data-name="Path 4965" class="cls-7" d="M92.1,124.786s7.226.573,17.361,7.447" transform="translate(29.994 58.472)"/>
          <line id="Line_678" data-name="Line 678" class="cls-7" x2="32.651" y2="1.763" transform="translate(119.056 216.393)"/>
          <path id="Path_4966" data-name="Path 4966" class="cls-7" d="M84.067,150.838l7.535.264,2.291-.529.969-.22,1.586-14.673V135.5l.132-1.234.044-.617.176-1.763.881-8.24L99,111.931l3.7-9.077" transform="translate(25.648 46.608)"/>
          <path id="Path_4967" data-name="Path 4967" class="cls-7" d="M88.957,151.178l2.952-25.6L93.5,112.05l4.186-9.253" transform="translate(28.293 46.577)"/>
          <path id="Path_4968" data-name="Path 4968" class="cls-7" d="M132.323,128.182l3.128-21.326-1.542-8.5-13.351-.485L118.8,96.192s-.661-2.468,1.058-2.82,10.487-.441,10.487-.441,16.568.308,17.669.132,17.625,1.146,17.625,1.146A1.888,1.888,0,0,1,167,95.884c0,1.278-.529,1.674-.529,1.674l-1.19,1.19a17.969,17.969,0,0,1-3.128,0c-3-.088-10.4,0-10.4,0l-8.328-.352h-9.562" transform="translate(44.367 41.24)"/>
          <path id="Path_4969" data-name="Path 4969" class="cls-7" d="M143.65,96.649l-5.067,8.24-4.847,22.781s5.243,1.763,9.694,7.931a13.269,13.269,0,0,1,1.19,1.851l.573.793" transform="translate(52.516 43.251)"/>
          <path id="Path_4970" data-name="Path 4970" class="cls-7" d="M89.712,134.394l-1.5,17.757,1.763-.661,1.674-17.669" transform="translate(27.891 63.36)"/>
          <path id="Path_4971" data-name="Path 4971" class="cls-7" d="M94.786,153.4a.674.674,0,0,1-.132.881,1.551,1.551,0,0,1-.837.441,5.957,5.957,0,0,1-1.278.22,37.7,37.7,0,0,1-6.7-.22,32.049,32.049,0,0,1-4.583-.749l-.308-.793,1.454-7.226.264-.264.264-.264s5.948,1.1,8.9.705l.308-.044c2.6-.4,2.071-.969,2.071-.969l.485.176.176,5.2,1.895-.485.352,2.071C97.078,152.122,97.827,152.607,94.786,153.4Z" transform="translate(23.961 69.47)"/>
          <path id="Path_4972" data-name="Path 4972" class="cls-7" d="M88.214,145.717v.132l.441,8.064" transform="translate(27.891 69.795)"/>
          <path id="Path_4973" data-name="Path 4973" class="cls-7" d="M92.217,137.676l14.717-1.366s6.3-.529,7.4-.793,8.813-3.261,8.813-3.261,8.68-4.8,16.612-5.508,10.487-.529,15.158.793l4.274-22.56,4.627-8.5" transform="translate(30.056 43.158)"/>
          <path id="Path_4974" data-name="Path 4974" class="cls-7" d="M104.333,105.054l5.64.044h4.142l8.724-.176,1.851-.044h.264c1.5-.044,3.569-.088,5.464-.132l.881-.044c1.013-.044,1.895-.044,2.556-.088a43.238,43.238,0,0,0,7.314-1.19l1.146-1.278s.485-.4.4-1.674-1.5-1.586-1.5-1.586-3.789.573-4.891.837a26.815,26.815,0,0,1-4.142.22l-3.261-.176-.837-.044c-1.542-.088-3.393-.176-5.2-.308h0c-2.688-.176-5.332-.308-6.83-.441-1.234-.088-3.569-.132-6.213-.088-1.895,0-3.878.044-5.772.088-3.922.088-7.226.176-7.226.176s-7.094.837-8.769,1.278-.881,2.864-.881,2.864l1.851,1.586h.925l4.494.044,9.033.088h.705l2.423,9.826-.22,2.688L104.421,141.1l-.661,7.975-.176,3.7,1.1.176-1.674,16.744-1.058.617v.793h-.264l-22.516-1.851a16.414,16.414,0,0,1-3.525.837H70.713L49.563,167.4a14.024,14.024,0,0,1-2.027-2.776,2.288,2.288,0,0,1-.132-.22s-1.322-7.05-1.939-13.615,2.512-8.724,2.512-8.724" transform="translate(4.721 44.452)"/>
          <path id="Path_4975" data-name="Path 4975" class="cls-7" d="M52.556,102.773l1.058-.176,3.3,11.633,2.644,23.177-3.922.925-.661.176" transform="translate(8.601 46.469)"/>
          <path id="Path_4976" data-name="Path 4976" class="cls-7" d="M54.129,125.98h0a3.512,3.512,0,0,1,.661-.132,5.164,5.164,0,0,1,3.437.529c1.851,1.146,4.01,6.521,4.01,6.521l1.278,1.807L64,136.775l1.234,1.895,1.322-.353,2.2,2.379,1.013-.353,4.494,2.423,4.627,8.592-1.19,2.732-3.217.529" transform="translate(9.452 58.997)"/>
          <path id="Path_4977" data-name="Path 4977" class="cls-7" d="M54.64,125.9l-1.454.485a15.471,15.471,0,0,1,3.525,4.318c.088.176.176.4.264.617,1.058,2.379,2.732,6.565,5.243,8.548a61.069,61.069,0,0,0,6.345,4.23s.22-.132.793,1.013,3.261,7.447,3.261,7.447l-1.234,2.864-3.745-3.3" transform="translate(8.942 59.075)"/>
          <line id="Line_679" data-name="Line 679" class="cls-7" y1="1.366" x2="5.728" transform="translate(82.043 210.313)"/>
          <line id="Line_680" data-name="Line 680" class="cls-7" y1="1.19" x2="4.803" transform="translate(78.254 201.941)"/>
          <path id="Path_4978" data-name="Path 4978" class="cls-7" d="M48.068,128.825c-1.763,1.983-1.542,5.816-1.542,5.816l1.763,13.043.705.617,19.96,2.379,2.2-.176.176-.705-1.5-3.437-2.776-1.41a12.341,12.341,0,0,1-3.128-2.335,37.373,37.373,0,0,1-6.257-9.429c-2.027-4.362-3.481-4.627-3.481-4.627" transform="translate(5.334 60.514)"/>
          <path id="Path_4979" data-name="Path 4979" class="cls-7" d="M64.132,137.911c0,.132-2.512,3.349-2.512,3.349" transform="translate(13.505 65.572)"/>
          <line id="Line_681" data-name="Line 681" class="cls-7" x1="4.935" y1="1.322" transform="translate(76.668 210.313)"/>
          <line id="Line_682" data-name="Line 682" class="cls-7" x1="0.044" y1="3.04" transform="translate(54.284 208.77)"/>
          <line id="Line_683" data-name="Line 683" class="cls-7" y1="0.881" x2="1.278" transform="translate(52.345 208.153)"/>
          <path id="Path_4980" data-name="Path 4980" class="cls-7" d="M90.541,125.215s-8.328,2.2-11.456,4.538a20.6,20.6,0,0,1-7.8,3.569" transform="translate(18.733 58.704)"/>
          <path id="Path_4981" data-name="Path 4981" class="cls-7" d="M60.22,131.841l1.807-.793,1.63,3.745-.4.661" transform="translate(12.747 61.86)"/>
          <path id="Path_4982" data-name="Path 4982" class="cls-7" d="M63.209,137.009l.353.441s1.013-.044,1.058-.441,1.146-1.454,1.674-1.234,2.027.352,2.335,0a4.484,4.484,0,0,1,1.013-.793c.176-.132.352-.22.529-.353a2.816,2.816,0,0,1,.837-.352c.441,0,1.851.485,2.115.441s1.63-1.5,2.027-1.5a2.735,2.735,0,0,0,1.41-.573,1.381,1.381,0,0,0-.264-1.41c-.441-.485-2.644-3.437-2.644-3.437s-.485-.441-1.939,0-10.179,4.23-10.179,4.23v.573Z" transform="translate(13.458 59.997)"/>
          <path id="Path_4983" data-name="Path 4983" class="cls-7" d="M62.05,132.3l9.694-3.569,2.159,2.732" transform="translate(13.737 60.607)"/>
          <path id="Path_4984" data-name="Path 4984" class="cls-7" d="M79.292,99.549s2.644-.485,6.521-.969c1.674-.176,3.613-.4,5.64-.485,1.322-.088,2.688-.132,4.1-.176,2.82-.044,5.64-.044,8.152,0,1.851.044,3.525.044,4.935.088l.793.044c1.057.044,1.939.044,2.512.088s1.1.044,1.63.132l9.253,1.19" transform="translate(23.064 43.92)"/>
          <path id="Path_4985" data-name="Path 4985" class="cls-17" d="M76.261,62.415a13.9,13.9,0,0,0,3.569-3.922c.044-.044.044-.088.088-.132a3.87,3.87,0,0,0,.485-1.718c.044-2.776.264-5.288.264-5.288" transform="translate(21.425 18.749)"/>
          <path id="Path_4986" data-name="Path 4986" class="cls-17" d="M74.429,102.586s-4.538.661-5.2.749-.573.529-.573.529c3.613.22,4.186,2.2,5.42,3.657s2.732,13.087,2.115,20.357a36.844,36.844,0,0,1-3.128,12.47c5.42,1.322,17.4-2.556,17.4-2.556l-3.173-5.772a12.258,12.258,0,0,1-1.5-5.111l-.573-8.813c-.573-10.134-4.186-12.69-4.186-12.69a41.106,41.106,0,0,1-4.583-2.423A2.67,2.67,0,0,0,74.429,102.586Z" transform="translate(17.309 46.435)"/>
          <path id="Path_4987" data-name="Path 4987" class="cls-17" d="M92.525,132.461a28.487,28.487,0,0,0,2.952-2.688h0c1.895-2.027,3.657-4.627,3.481-7.226,0,0-.573-14.409-1.586-17.978h4.538s3.657,10,2.2,16.435a32.784,32.784,0,0,1-1.586,5.111,22.906,22.906,0,0,1-1.146,2.335,7.632,7.632,0,0,1-.969,1.366,18.628,18.628,0,0,1-4.891,2.6c-.264.088-.529.176-.837.264a15.444,15.444,0,0,1-2.468.573" transform="translate(30.056 47.536)"/>
          <path id="Path_4988" data-name="Path 4988" class="cls-17" d="M68.949,103.369a10.443,10.443,0,0,0-.837,1.542" transform="translate(17.016 46.886)"/>
          <path id="Path_4989" data-name="Path 4989" class="cls-17" d="M72.231,127.911s-2.247-1.013-2.027-2.468" transform="translate(18.14 58.828)"/>
          <line id="Line_684" data-name="Line 684" class="cls-17" transform="translate(70.235 61.997)"/>
          <path id="Path_4990" data-name="Path 4990" class="cls-18" d="M66.187,41.258l-.749-.308h0c-3.128-1.234-4.759-1.939-5.64-2.335a3.838,3.838,0,0,0-1.366-.441c-.088,0-.176.353-.22.969,0,.22-.044.441-.044.749h0c-.044,1.322,0,3.173.044,5.023h0c.044,2.468.176,4.891.176,5.552l.044.573h0l.22,3.878a12.944,12.944,0,0,0,.749,3.437c.264.705.749,1.939,1.278,3.349.176.441.308.881.485,1.322h0c.353.881.705,1.807,1.013,2.688h0c.22.573.441,1.146.661,1.63h0a15.641,15.641,0,0,0,1.63,3.393c.749.529,2.423-1.454,9.165-2.732a19.494,19.494,0,0,1,12.029,1.454l.22.088c.969.441,3.922,2.2,5.684,3.128l.353.176c.044.044.132.044.22.088a1.47,1.47,0,0,0,1.807-.925,1.22,1.22,0,0,0,.044-.4c.132-3.789-2.468-9.87-3.7-13.087l-.22-.573a31.71,31.71,0,0,1-1.63-5.64c-.529-7.4-1.851-9.385-2.115-9.782s-.749.441-2.2,1.234a6.37,6.37,0,0,1-1.278.485H82.8a8.042,8.042,0,0,1-1.763.22,27,27,0,0,1-3.789-.132c-.749-.088-1.366-.132-2.071-.264a34.848,34.848,0,0,1-7.314-2.291l-1.674-.529h0" transform="translate(11.627 11.618)"/>
          <path id="Path_4991" data-name="Path 4991" class="cls-7" d="M55.818,31.011l-1.1,4.406a167.1,167.1,0,0,0-2.071,20.577s0,1.278.132,3.04a1.976,1.976,0,0,0,.044.485c.044.749.088,1.586.176,2.379.264,2.952,1.146,7.358,1.146,7.358s.176.793.4,1.895v.088c.441,2.071,1.1,5.155,1.278,5.86a41.773,41.773,0,0,1,.705,11.192c-.264,6.653-.661,12.382-.661,12.382s.044,2.027.308,4.891a49.26,49.26,0,0,0,2.071,10.884c2.159,6.345,7.4,19.96,7.4,19.96l6.521,13.131s1.895,3.173,4.186,8.108,4.01,9.65,4.01,9.65a33.968,33.968,0,0,1,1.895,7.491,15.979,15.979,0,0,1-.088,6.3,11.765,11.765,0,0,1-4.406,5.9,21.148,21.148,0,0,1-3.084,1.718h-.044c-1.542.749-3.261,1.454-4.671,1.983h0c-1.895.705-3.349,1.19-3.349,1.19h-1.63l-.793-1.146s7.667-1.278,11.589-4.671,4.186-4.186,4.186-4.186a12.584,12.584,0,0,0,.661-6.257,45.754,45.754,0,0,0-3.437-11.06C75.647,160.953,72.3,153.55,72.3,153.55l-4.538-8.416L61.987,132.62S57.4,119.974,57.1,118.7s-2.908-10.751-2.952-15.246c-.044-4.45.617-13.659.617-13.659s.132-8.636-.308-10.179-1.278-5.552-1.5-6.3-1.5-9.165-1.5-9.165-.793-7.094-.441-8.68a150.575,150.575,0,0,1,2.027-20.4l.969-4.142c.176-.573.353-1.146.529-1.674,1.366-3.833,2.512-6.742,4.23-8.724s4.142-3.173,7.975-3.437c7.579-.573,14.761,4.274,14.761,4.274s1.146.22,2.864,2.732a.043.043,0,0,0,.044.044c.22.353.485.793.749,1.234" transform="translate(7.719 0.186)"/>
          <path id="Path_4992" data-name="Path 4992" class="cls-7" d="M57.132,20.589l1.586-1.234a11.958,11.958,0,0,1,5.067-1.41c7.4-.573,15.642,4.318,15.642,4.318s.573.176,1.542,1.454a.043.043,0,0,0,.044.044c.264.4.529.793.793,1.234L91.06,53.68c3.3,7.8,6.345,9.165,6.345,9.165l14.805,11.1s10.619,7.314,3.481,22.208c-7.931,16.48-1.366,28.729-1.366,28.729l5.9,13.968,1.234,2.468" transform="translate(11.076 0.65)"/>
          <path id="Path_4993" data-name="Path 4993" class="cls-7" d="M120.068,146.26a55.305,55.305,0,0,1-7.006,1.807" transform="translate(41.333 70.089)"/>
          <line id="Line_685" data-name="Line 685" class="cls-7" x2="1.322" y2="0.308" transform="translate(184.93 170.612)"/>
          <line id="Line_686" data-name="Line 686" class="cls-7" transform="translate(129.367 149.329)"/>
          <path id="Path_4994" data-name="Path 4994" class="cls-17" d="M81.47,46.466s-.441,10.575.573,14.981c.617,2.776,1.895,10.267,2.688,15.378a18.284,18.284,0,0,0,.485,2.115l2.115,7.579a8.059,8.059,0,0,0,.352,1.1l8.769,23.133s3.437,8.064,6.257,15.29" transform="translate(24.191 16.104)"/>
          <path id="Path_4995" data-name="Path 4995" class="cls-17" d="M99.174,75.833,76.217,62.879,58.945,77.684l-.441.661" transform="translate(11.819 24.983)"/>
          <path id="Path_4996" data-name="Path 4996" class="cls-17" d="M96.411,82.18,80.24,75.746,61.249,90.331" transform="translate(13.304 31.944)"/>
          <path id="Path_4997" data-name="Path 4997" class="cls-17" d="M64.48,103.428,83.736,88.271,102.2,95.761" transform="translate(15.052 38.719)"/>
          <path id="Path_4998" data-name="Path 4998" class="cls-17" d="M69.338,103.426a10.441,10.441,0,0,0-.837,1.542s-1.586,4.891-1.322,5.464" transform="translate(16.495 46.917)"/>
          <path id="Path_4999" data-name="Path 4999" class="cls-17" d="M72.315,128.054s-2.2-1.013-2.027-2.468" transform="translate(18.188 58.905)"/>
          <path id="Path_5000" data-name="Path 5000" class="cls-17" d="M71.185,128.7h0l-1.542-8.548-2.159-8.68v-.044L64.4,98.953l-2.82-12.822h0l-.485-3.084a40.094,40.094,0,0,0-1.146-5.067l-2.027-6.83L54.529,59.076" transform="translate(9.669 22.925)"/>
          <path id="Path_5001" data-name="Path 5001" class="cls-17" d="M81.78,56.188S93.985,60.2,94.6,65.221s-3.217,27.5-3.217,27.5" transform="translate(24.41 21.363)"/>
          <path id="Path_5002" data-name="Path 5002" class="cls-17" d="M87.834,75.746s-4.1,3.3-3.966,8.284,11.589,25.556,11.589,25.556" transform="translate(25.538 31.944)"/>
          <path id="Path_5003" data-name="Path 5003" class="cls-17" d="M62.93,66.99h0a11.2,11.2,0,0,0-.044-1.718c-.088-.837-.22-1.763-.4-2.732-.353-2.027-.881-4.186-1.278-5.772-.176-.617-.308-1.146-.441-1.542a31.222,31.222,0,0,1-.837-5.332c0-1.366-.088-2.644-.176-3.745h0a25.7,25.7,0,0,0-.4-3.04A24.235,24.235,0,0,0,58.3,38.745" transform="translate(11.71 11.927)"/>
          <path id="Path_5004" data-name="Path 5004" class="cls-17" d="M63.508,40.118h0a21.747,21.747,0,0,1,3.084,4.45h0a67.031,67.031,0,0,1,5.155,11.809s1.674,7.138-.793,10.575a16.653,16.653,0,0,1,5.728.793c2.071.881,10.267,3.789,12.294,4.054h.264" transform="translate(14.526 12.67)"/>
          <path id="Path_5005" data-name="Path 5005" class="cls-17" d="M75.146,41.8a9.269,9.269,0,0,1,3.966,6.742" transform="translate(20.821 13.582)"/>
        </g>
      </g>
    </g>
    <g id="Group_370" data-name="Group 370" transform="translate(0 -913)">
      <g id="Ellipse_29-3" data-name="Ellipse 29" class="cls-2" transform="translate(489 1995)">
        <circle class="cls-20" cx="94.5" cy="94.5" r="94.5"/>
        <circle class="cls-21" cx="94.5" cy="94.5" r="94"/>
      </g>
    </g>
  </g>
</svg>
