<svg xmlns="http://www.w3.org/2000/svg" xmlns:xlink="http://www.w3.org/1999/xlink" viewBox="0 0 300 300"><defs><clipPath id="clip-path"><rect x="-342.41" y="313.33" width="300.41" height="300.41" style="fill:none"/></clipPath><clipPath id="clip-path-2"><rect x="4.56" y="318.33" width="299.67" height="299.67" transform="translate(308.79 936.33) rotate(-180)" style="fill:none"/></clipPath><clipPath id="clip-path-3"><rect x="-0.41" y="0.04" width="299.96" height="299.96" style="fill:none"/></clipPath></defs><title>braco mizano direito</title><g id="Camada_4" data-name="Camada 4"><g style="clip-path:url(#clip-path)"><g style="opacity:0.5"><path d="M-11.15,569.9c-1.39,0-2.65.13-4,.13-33.81.51-67.49-4.29-101-7.19-14.76-1.26-25.61-3.41-40.5-4.16-15.39-.76-64.83-7.7-80.1-10.09-13.24-2-16.77.12-24.34-.63-18.8-2.27-20.19-2.65-41.76-6.06-5.92-1-15.39-2-22.45-5.42a90.94,90.94,0,0,1-3.53-12.74c-.51-20.69-1.77-43.27-.51-71.4,2.15-6.31,9-22.45,11.23-28.38-1.26-12.74-2-25.1-4.16-49.45.88-7.69,2-18.16,3.53-31.54,2-3.4,3-4.41,4.79-7.69,1.39-4.54,1.64-11.35,1.64-16.15.38-28.5,2.27-46.92-.5-73.79-3.28-32-2.9-56.64-7.32-96.63-1.89-17.28-1-34.68,4.42-51.08s13.12-32,18.92-48.44c10.72-30.78,14.88-64,30.15-92.72,5.3-10,12.36-19.8,22.83-24.09,7.06-2.9,14.88-3,22.45-3,13.63-.12,27.5-.12,41,2.15s26.74,7.31,37.08,16.27c11.74,10.09,18.93,24.47,22.84,39.36a238.47,238.47,0,0,1,7.06,46.29c1.26,22.33,15.26,41.88,32.29,56.39,12,10.21,26.37,17.53,38.73,27.37S-19,140.26-17.58,156c1.26,15.14-6.43,29.39-11.73,43.65-15,40.36-11,87.29,10.85,124.37,14.25,24.22,23.33,52,24,80.1.25,9.09-.5,18.55-5.17,26.37-5.17,8.57-14.13,13.87-22.83,18.79.5,2.9,1.13,5.68,1.64,8.58a270,270,0,0,0,46.17,2.4c26.11-21.45,59-35.07,92.71-39.11,6.56-.75,13.12-1.13,19.55-.12s12.87,3.4,17.66,7.82c4.54,4,22,36.45,20.56,47.05,5.3,3,6.31,4,7.83,7.44a45.09,45.09,0,0,1-4,43.52c2,6.43-2.27,13.88-8,17.53S159.14,549,152.46,550L54.57,563.22C32.88,566.25,10.93,569.27-11.15,569.9Z" style="fill:none;stroke:#000;stroke-miterlimit:10;stroke-width:4.029745830522751px"/></g></g></g><g id="Camada_5" data-name="Camada 5"><g id="braco_jaguar_esquerdo" data-name="braco jaguar esquerdo"><g style="clip-path:url(#clip-path-2)"><path d="M116.6,124.43c1.13-.88,9.56-3,9.56-3C123.9,125.06,117.23,124.55,116.6,124.43Z" style="fill:#fff;opacity:0.5"/><g style="opacity:0.5"><polyline points="62.49 189.1 145.04 146.07 224.56 185.33" style="fill:none;stroke:#000;stroke-miterlimit:10;stroke-width:1.1690871161818066px"/><polyline points="55.07 250.26 134.09 209.11 219.78 251.01" style="fill:none;stroke:#000;stroke-miterlimit:10;stroke-width:1.1690871161818066px"/><polyline points="69.79 300.71 125.53 271.52 201.79 308.89" style="fill:none;stroke:#000;stroke-miterlimit:10;stroke-width:1.1690871161818066px"/><path d="M179.39,125.06a1.88,1.88,0,0,0,1.13,2,4.77,4.77,0,0,0,2.39.38c2.9,0,5.79.12,8.69.12,7.17.13,12-.25,19.12-.25a52.86,52.86,0,0,0,8.94-.5,12,12,0,0,0,6.16-3.65c-.75-6.92,3.78-25.42,3.78-25.42a161.35,161.35,0,0,1-8.81-20.51c-2-5.66-6-15.35-9.56-20.38s-6.55-4.53-12.59-4.28" style="fill:#fff;stroke:#000;stroke-miterlimit:10;stroke-width:2.338300083309973px"/><path d="M203.93,118.39c4.28.25,12.58,0,15-.63s4.66-2.52,5.16-5c.38-1.63-.13-3.27-.5-4.9C220.41,96.24,216.51,86.3,212,75.23c-1.26-3.15-3.65-9.19-6-11.58S201.41,61,198.14,62" style="fill:none;stroke:#000;stroke-miterlimit:10;stroke-width:2.338300083309973px"/><path d="M113.46,125.18l-2,8.81a41,41,0,0,0,8.81.75,16.15,16.15,0,0,0,8.43-2.51,14.94,14.94,0,0,0,5-6.17,48.59,48.59,0,0,0,2.65-7.17s-7.3.76-8.94,1a3.22,3.22,0,0,1-.5,2.39,5.81,5.81,0,0,1-2.27,2,11.51,11.51,0,0,1-5.78,1.38,25.22,25.22,0,0,1-5.41-.5" style="fill:#fff;stroke:#000;stroke-miterlimit:10;stroke-width:2.338300083309973px"/><path d="M210,116.5c-3.9-.25-11.83-.63-15.61.13-6.54,8.05-47.81,205.1-47.81,205.1l18.37,1.89c26.55-127.47,43.41-192.9,46.68-205A1.69,1.69,0,0,0,210,116.5Z" style="fill:#fff;stroke:#000;stroke-miterlimit:10;stroke-width:2.338300083309973px"/><path d="M94.83,134.49c-3.39,4.66-43,182.71-43,182.71L67,318.33c.88-15.22,46.56-194,46.56-194S98.36,129.71,94.83,134.49Z" style="fill:#fff;stroke:#000;stroke-miterlimit:10;stroke-width:2.338300083309973px"/><path d="M212.48,489.21C176.24,466.43,171,420.63,178.64,384S203.17,313.42,213,277.44c8-29.45,11.45-60,11.82-90.6.38-22.27-1-44.55,1.14-66.57S233.87,76,247,58" style="fill:none;stroke:#000;stroke-miterlimit:10;stroke-width:2.338300083309973px"/><path d="M230,483.8c-35-19.88-35.73-72-27.68-109s26.93-70.59,43.92-104.44S273.64,174,274.77,136.13c.88-29.7-15.35-41.78-24.29-70.09-15-47.18-17-76.75-36.11-122.56" style="fill:none;stroke:#000;stroke-miterlimit:10;stroke-width:2.338300083309973px"/><path d="M-14.89,454.1c18.87,5.79,36.49,10.95,55,12.58C51,365.77,50.16,271.65,65,163.18c3.78-26.93,2.77-55.11-6.79-80.53" style="fill:none;stroke:#000;stroke-miterlimit:10;stroke-width:2.338300083309973px"/><path d="M-91.77,567.6l-97.65-13.21c-6.67-1-13.46-1.89-19.12-5.54s-9.94-11.07-7.93-17.49a45,45,0,0,1-4-43.41c1.51-3.4,2.52-4.4,7.8-7.42-1.38-10.57,16-42.91,20.51-46.94,4.79-4.4,11.2-6.79,17.62-7.8s13-.63,19.5.13c33.6,4,66.44,17.61,92.49,39a267.64,267.64,0,0,0,46.05-2.39c.51-2.89,1.14-5.66,1.64-8.55-8.68-4.91-17.62-10.2-22.78-18.75-4.65-7.8-5.41-17.24-5.16-26.3.63-28.06,9.69-55.74,23.91-79.9C2.85,292,6.88,245.22-8.1,205c-5.28-14.22-13-28.44-11.7-43.54C-18.41,145.69-7.47,132.35,5,122.66s26.68-17.11,38.63-27.3c17-14.47,30.95-34,32.21-56.25a238.23,238.23,0,0,1,7-46.18C86.78-21.91,94-36.26,105.65-46.32c10.32-8.94,23.53-14,37-16.24s27.3-2.26,40.89-2.14c7.55,0,15.35.13,22.4,3,10.44,4.28,17.49,14.1,22.78,24,15.22,28.69,19.37,61.78,30.07,92.48,5.79,16.36,13.46,31.84,18.87,48.32s6.3,33.72,4.41,51c-4.41,39.89-4,64.43-7.3,96.39-2.77,26.8-.88,45.17-.5,73.61,0,4.78.25,11.58,1.63,16.11,1.76,3.27,2.77,4.27,4.78,7.67,1.51,13.34,2.65,23.78,3.53,31.46-2.14,24.28-2.9,36.61-4.16,49.32,2.27,5.92,9.06,22,11.2,28.32,1.26,28.06,0,50.58-.5,71.22a91.78,91.78,0,0,1-3.52,12.7c-7.05,3.4-16.49,4.41-22.4,5.41-21.52,3.4-22.9,3.78-41.65,6-7.55.76-11.07-1.38-24.29.63-15.22,2.39-64.55,9.32-79.9,10.07-14.85.76-25.67,2.89-40.39,4.15-33.47,2.9-67.07,7.68-100.79,7.17-1.38,0-2.64-.12-4-.12C-48.24,573.64-70.13,570.62-91.77,567.6Z" style="fill:none;stroke:#000;stroke-miterlimit:10;stroke-width:4.0197674274362445px"/><path d="M122.14,40.25c-9.44,1.88-19.38,2.64-28.82.63-3.14-.76-18.87-2-23.28-.51-1.51.51-3.14,1.13-4,2.52-1.26,1.89-.88,4.4-.25,6.54,5.91,22.9,15.47,45.8,13.33,69.33-.25,3.65-1,7.43-.37,11.08s2.64,7.42,6.16,8.68c2.9,1.13,6.17.38,8.81-1.13a61.77,61.77,0,0,0,7.3-5.54c11.83-9.31,27.18-13.46,42.15-13.46s29.82,3.52,44.17,8c3.77,1.26,8.05,2.39,11.45.5,2.89-1.63,4.28-5,4.65-8.3,1.14-8.68-3.27-17-5.41-25.42-5-20.13,2.52-41,4.41-61.66.37-3,.37-6.29-1.39-8.8-2.89-3.9-8.68-3.65-13.33-2.65-17,3.53-33,10.82-49.46,16.11A103.89,103.89,0,0,1,122.14,40.25Z" style="fill:#fff;stroke:#000;stroke-miterlimit:10;stroke-width:2.338300083309973px"/><path d="M184.42,125.94C181.66,120,178.64,108.45,178,102c-.76-9.19-1.51-18.37-.38-27.43.63-5.29,2.52-17.49,3.9-22.65a260.37,260.37,0,0,1,10.32-32" style="fill:none;stroke:#000;stroke-miterlimit:10;stroke-width:1.1690871161818066px"/><path d="M156.11,118.51c-2.77-5.91-2.39-10.06-3-16.48-.75-9.19-1.51-18.37-.38-27.43.63-5.29,2.52-17.49,3.9-22.65,3-11.58,2.9-12.58,7.68-24.92" style="fill:none;stroke:#000;stroke-miterlimit:10;stroke-width:1.1690871161818066px"/><path d="M103.77,129c-3.53-3-5.29-5.54-11.45-13.72a67.3,67.3,0,0,1-6.17-9.81c-1.76-3.28-3.27-6.67-4.28-8.94-4-9.31-4-16.23-5.91-26.3s-1.39-21,3.4-30.07" style="fill:none;stroke:#000;stroke-miterlimit:10;stroke-width:1.1690871161818066px"/></g><path d="M118.74,122.29c-31.08-33-27.81-53-21.14-80.53" style="fill:none;stroke:#000;stroke-miterlimit:10;stroke-width:1.1690871161818066px;opacity:0.5"/><path d="M212.86,277.31c9.82-23.78,34.1-106.7,30.58-135-1.89-16-7.3-31.33-12.71-46.43" style="fill:none;stroke:#000;stroke-miterlimit:10;stroke-width:1.1690871161818066px;opacity:0.5"/><path d="M39.34,458.88A81.91,81.91,0,0,1-8.35,353.69c6-16.11,17-29.82,23.91-45.55A101.78,101.78,0,0,0,22,245.6c-3.53-16-10.82-30.95-15.35-46.68S.46,165.45,8.14,151c11.57-21.9,39.51-29.2,55.86-47.82" style="fill:none;stroke:#000;stroke-miterlimit:10;stroke-width:1.1690871161818066px;opacity:0.5"/></g></g></g><g id="Camada_6" data-name="Camada 6"><g id="Braco_mizano_direito" data-name="Braco mizano direito"><g style="clip-path:url(#clip-path-3)"><g style="opacity:0.5"><g id="Camada_1-2" data-name="Camada 1-2"><polyline points="295.05 264.06 296.18 265.32 293.66 267.21 296.56 267.84 293.79 269.73 296.68 270.74 294.42 272.38 296.81 273.26 294.54 275.15 297.06 276.16 294.92 278.05 297.31 279.05 295.3 280.56 297.44 281.57 296.18 283.08" style="fill:none;stroke:#000;stroke-miterlimit:10;stroke-width:1.170235226853059px"/><polyline points="259.65 270.11 262.17 270.99 259.78 272.38 262.3 273.13 260.03 274.64 262.55 275.53 260.16 277.16 262.68 278.05 260.41 279.56 262.93 280.69 260.66 282.08 263.18 283.59 261.16 284.6 262.55 285.6" style="fill:none;stroke:#000;stroke-miterlimit:10;stroke-width:2.6824345715685083px"/><line x1="296.05" y1="265.45" x2="259.65" y2="270.11" style="fill:none;stroke:#000;stroke-miterlimit:10;stroke-width:1.170235226853059px"/><line x1="296.56" y1="267.84" x2="260.03" y2="272.5" style="fill:none;stroke:#000;stroke-miterlimit:10;stroke-width:1.170235226853059px"/><line x1="296.3" y1="270.74" x2="260.79" y2="274.65" style="fill:none;stroke:#000;stroke-miterlimit:10;stroke-width:1.170235226853059px"/><line x1="296.68" y1="273.13" x2="260.66" y2="277.04" style="fill:none;stroke:#000;stroke-miterlimit:10;stroke-width:1.170235226853059px"/><line x1="297.06" y1="276.16" x2="260.91" y2="279.68" style="fill:none;stroke:#000;stroke-miterlimit:10;stroke-width:1.170235226853059px"/><line x1="297.06" y1="279.05" x2="261.16" y2="282.2" style="fill:none;stroke:#000;stroke-miterlimit:10;stroke-width:1.170235226853059px"/><line x1="297.44" y1="281.57" x2="261.54" y2="284.34" style="fill:none;stroke:#000;stroke-miterlimit:10;stroke-width:2.3405964282453326px"/><path d="M260.16,285.6,299,283.21l1.89,27.08a38.89,38.89,0,0,1-19.15,7.43,38.28,38.28,0,0,1-19.64-4.53Z" style="fill:#fff;stroke:#000;stroke-miterlimit:10;stroke-width:2.3405964282453326px"/><path d="M102.71,285.73S86,307.39,83.82,311.17s-2,11.34,3.15,11.46a18.67,18.67,0,0,1,5.42,2.77s1.63,1.39,5.79.51c2.39.25,3.27.75,4.79.38s4.15-2.14,5.54-6.43,6.8-28.08,6.8-28.08" style="fill:#fff;stroke:#000;stroke-miterlimit:10;stroke-width:2.3405964282453326px"/><path d="M106.37,289.13l-8.82,15.74s1,6.05,7.81,2a154.3,154.3,0,0,0,7.3-16.12s-4.28,19.65-5.41,23.42c-1.26,4.67-2.65,7.06-3.91,7.44a15.2,15.2,0,0,1-4.15.12c-1.89,0-3.91.76-4.91.25a12.64,12.64,0,0,0-4.67-2.39c-4.66-.75-2.26-6.42-.5-9.57s14.61-22.8,14.61-22.8" style="fill:none;stroke:#000;stroke-miterlimit:10;stroke-width:1.170235226853059px"/><line x1="223.25" y1="284.34" x2="223.25" y2="311.55" style="fill:none;stroke:#000;stroke-miterlimit:10;stroke-width:2.3405964282453326px"/><path d="M230.05,282s-6.42.5-6.8,2.52,13.23,3.53,19.27,3.4,17.89-1,16.88-3.4S253,282,253,282" style="fill:#fff;stroke:#000;stroke-miterlimit:10;stroke-width:2.3405964282453326px"/><path d="M230.18,272.13v12.09s12.85,2.89,22.92,0v-11" style="fill:#fff;stroke:#000;stroke-miterlimit:10;stroke-width:2.3405964282453326px"/><path d="M201.08,255.5s2.27,4.66,5.17,5.29,79,1.64,79,1.64" style="fill:#fff;stroke:#000;stroke-miterlimit:10;stroke-width:2.3405964282453326px"/><path d="M206.75,260.79s3.28,3,10.33,4.66c8.31,1.89,16.12,3.28,16.12,3.28s7.31.75,10.58.75h18.77" style="fill:none;stroke:#000;stroke-miterlimit:10;stroke-width:2.3405964282453326px"/><path d="M219.6,266s8.69,5.17,11.33,5.67,16.38,1,17.76,1c4.29-1,44.59-9.19,48.75-10.71" style="fill:none;stroke:#000;stroke-miterlimit:10;stroke-width:2.3405964282453326px"/><path d="M229.93,271.37a2.35,2.35,0,0,0,1.38,2.39c1.64.76,19,1,20.28.63a5.42,5.42,0,0,0,2.65-2.89" style="fill:none;stroke:#000;stroke-miterlimit:10;stroke-width:4.02371506984502px"/><polyline points="107.25 285.98 102.97 285.73 106.37 289.26 115.18 291.4 112.54 287.87" style="fill:#fff;stroke:#000;stroke-miterlimit:10;stroke-width:1.170235226853059px"/><path d="M195.16,252.6s-63.35,9.07-70.91,10.33a12.15,12.15,0,0,0-9.7,7.06l-6.8,16.37a3.15,3.15,0,0,0,4,1.51,2.76,2.76,0,0,0,.76-.5c1.38-4.29,6.3-14.74,6.3-14.74a11.52,11.52,0,0,1,6.55-4.79c11.08-2.26,85.14-13.47,85.14-13.47" style="fill:#fff;stroke:#000;stroke-miterlimit:10;stroke-width:2.3405964282453326px"/></g></g><path d="M322.5,262.3c-1.38,0-2.64.13-4,.13-33.75.5-67.38-4.28-100.89-7.18-14.73-1.26-25.56-3.4-40.43-4.16-15.36-.75-64.74-7.68-80-10.07-13.22-2-16.75.12-24.31-.63-18.76-2.27-20.15-2.65-41.69-6-5.92-1-15.36-2-22.42-5.42A90.2,90.2,0,0,1,5.23,216.2c-.51-20.65-1.77-43.2-.51-71.29,2.14-6.29,8.94-22.42,11.21-28.34-1.26-12.72-2-25.06-4.15-49.37.88-7.68,2-18.14,3.52-31.49,2-3.4,3-4.41,4.79-7.68,1.38-4.54,1.64-11.34,1.64-16.12.37-28.47,2.26-46.86-.51-73.69-3.27-32-2.9-56.55-7.3-96.48-1.89-17.25-1-34.63,4.4-51s13.1-32,18.9-48.36c10.7-30.74,14.86-63.86,30.1-92.58,5.29-10,12.34-19.78,22.8-24.06,7-2.89,14.86-3,22.42-3,13.6-.13,27.46-.13,40.93,2.14s26.71,7.31,37,16.25c11.72,10.07,18.9,24.43,22.8,39.3s4.91,30.35,5.8,45.72c1.25,22.29,16.5,42.32,33.5,56.8,12,10.2,26.32,17.51,38.67,27.33s23.42,23.05,24.81,38.8c1.26,15.11-6.42,29.35-11.71,43.58-15,40.3-11,87.16,10.83,124.19,14.23,24.18,23.3,51.89,23.93,80,.25,9.07-.5,18.51-5.17,26.32-5.16,8.57-14.1,13.86-22.79,18.77.5,2.9,1.13,5.67,1.63,8.57a269.28,269.28,0,0,0,46.1,2.39c26.08-21.41,59-35,92.58-39,6.55-.75,13.1-1.13,19.52-.12s12.85,3.4,17.64,7.81c4.53,4,21.91,36.4,20.53,47,5.29,3,6.29,4,7.81,7.43a45,45,0,0,1-4,43.45c2,6.43-2.26,13.86-7.93,17.51s-12.47,4.53-19.15,5.54l-97.74,13.23C366.46,258.65,344.54,261.67,322.5,262.3Z" style="fill:none;stroke:#000;stroke-miterlimit:10;stroke-width:4.02371506984502px;opacity:0.5"/><path d="M319.48,260.54c-12.09-1.89-21.79-11.21-27.84-21.92s-9.19-22.54-13.6-34c-10.58-27.46-29.72-52.91-56.68-64.62-20.91-9.07-45.22-9.19-66.75-1.64S119.09,192.9,75,182.2" style="fill:none;stroke:#000;stroke-miterlimit:10;stroke-width:4.02371506984502px;opacity:0.5"/><path d="M318.6,263.06c-1.26-10.2-.13-20.41.75-30.61s1.64-20.53-.5-30.61-7.56-19.77-16.37-24.93c-5.67-3.28-12.1-4.54-18.52-5.67-9.07-1.64-18.26-3-27.46-4.29" style="fill:none;stroke:#000;stroke-miterlimit:10;stroke-width:2.3405964282453326px;opacity:0.5"/><path d="M81.68-369.1c-19.15,45.84-21.16,75.44-36.15,122.68C36.59-218.09,20.34-206,21.22-176.27,22.36-138.36,32.81-75.76,49.81-41.88s35.9,67.51,44,104.55,7.31,89.17-27.71,109.07" style="fill:none;stroke:#000;stroke-miterlimit:10;stroke-width:2.3405964282453326px;opacity:0.5"/><path d="M49.06-254.49c13.1,18,18.89,40.31,21,62.35s.76,44.34,1.14,66.63C71.6-94.9,75-64.3,83.07-34.82c9.82,36,26.57,70.15,34.38,106.68s5,87.92-43.45,110.34" style="fill:none;stroke:#000;stroke-miterlimit:10;stroke-width:2.3405964282453326px;opacity:0.5"/><path d="M245.29,154.74c4.54.12,9.2.12,13.73-.13" style="fill:none;stroke:#000;stroke-miterlimit:10;stroke-width:2.3405964282453326px;opacity:0.5"/><path d="M259,154.61c10.2-.5,44.72-4.66,55-4" style="fill:none;stroke:#000;stroke-miterlimit:10;stroke-width:2.3405964282453326px;opacity:0.5"/><path d="M21.73,26.14c4.28-.13,11.08-.38,15-.76a489.13,489.13,0,0,1,13.86,79.86c1.26,14.1,2.39,25.44,5.42,39.3,6.29,28.46,14.73,34.38,35.89,55.79,2.4,2.4,13.1,25.95,13.6,29.35s-3.77,8.69-6.54,10.58" style="fill:none;stroke:#000;stroke-miterlimit:10;stroke-width:2.3405964282453326px;opacity:0.5"/><polyline points="5.48 163.18 14.8 187.74 21.1 185.22 23.24 165.69 21.73 149.7 27.52 142.77 27.52 138.11 39.99 110.02 29.91 26.89 22.73 33.7" style="fill:none;stroke:#000;stroke-miterlimit:10;stroke-width:2.3405964282453326px;opacity:0.5"/><polyline points="17.07 116.45 31.05 114.43 22.73 33.7 15.3 35.71" style="fill:none;stroke:#000;stroke-miterlimit:10;stroke-width:1.170235226853059px;opacity:0.5"/><line x1="39.99" y1="110.02" x2="31.05" y2="114.43" style="fill:none;stroke:#000;stroke-miterlimit:10;stroke-width:1.170235226853059px;opacity:0.5"/><polyline points="4.72 144.91 19.96 142.14 27.52 138.11" style="fill:none;stroke:#000;stroke-miterlimit:10;stroke-width:1.170235226853059px;opacity:0.5"/><line x1="19.96" y1="142.14" x2="21.1" y2="150.33" style="fill:none;stroke:#000;stroke-miterlimit:10;stroke-width:1.170235226853059px;opacity:0.5"/><line x1="27.52" y1="139.5" x2="53.72" y2="138.11" style="fill:none;stroke:#000;stroke-miterlimit:10;stroke-width:1.170235226853059px;opacity:0.5"/><path d="M22.1,151.08c2.14.76,3.53,2.9,4.54,5,4.91,10.46,5.16,22.67,10.2,33,4.41,9.07,24.44,21.54,25.69,23.68A130.44,130.44,0,0,1,63,229.3L5.6,217.71" style="fill:none;stroke:#000;stroke-miterlimit:10;stroke-width:1.170235226853059px;opacity:0.5"/><polyline points="62.91 229.3 72.86 239.13 78.41 230.81 68.71 202.1" style="fill:none;stroke:#000;stroke-miterlimit:10;stroke-width:1.170235226853059px;opacity:0.5"/><polyline points="105.36 229.68 78.41 230.81 63.04 226.28" style="fill:none;stroke:#000;stroke-miterlimit:10;stroke-width:1.170235226853059px;opacity:0.5"/><path d="M26.51,139.62c5.92,1.89,10.08,7.56,12.35,13.35s3,12.22,4.66,18.27c4.15,14.73,22.16,31.23,25.19,31.23l24.18-.37" style="fill:none;stroke:#000;stroke-miterlimit:10;stroke-width:1.170235226853059px;opacity:0.5"/><path d="M232.57-138.61C257.64-66.06,280.43,7.25,303.11,80.55c2.64,8.44,5.29,17.63,2.52,26.07-3.28,10.46-13.61,16.88-23.81,20.91s-16.25,4.54-27.71,7.56" style="fill:none;stroke:#000;stroke-miterlimit:10;stroke-width:2.3405964282453326px;opacity:0.5"/><path d="M234.71-123.24c-3.27,42.57-6.8,87.16-10.07,129.73" style="fill:none;stroke:#000;stroke-miterlimit:10;stroke-width:1.170235226853059px;opacity:0.5"/><path d="M95.53,182.7a22.86,22.86,0,0,0,6.93-3.65" style="fill:none;stroke:#000;stroke-miterlimit:10;stroke-width:1.170235226853059px;opacity:0.5"/><path d="M113.55,64.05c5.79,28.09,6.67,35.65,7.68,62.85a9,9,0,0,0,.63,3.65c1.64,3.15,6,3,9.45,2.52a543.52,543.52,0,0,1,91.56-6.17c13.86.25,28.09,1,41.44-2.9s25.95-13.35,29.22-26.95c1.39-5.54,1-11.46.63-17.13-.63-9.82-1.13-19.65-1.76-29.6-.5-8.06-1-16.5-4.79-23.68-5.92-11.21-17.88-19.77-30.48-21.41s-30.73,1.26-43.33,2c-37,2.26-69.52-1.14-106,8.69.63,11.33,2.9,22.79,3.53,34.13Z" style="fill:none;stroke:#848484;stroke-miterlimit:10;stroke-width:2.3405964282453326px"/><path d="M107.88,16.06a47.89,47.89,0,0,1,18.89,26.45c2.27,8.06,2.52,16.38,2.9,24.69.5,15.62,1,31.36,1.64,47,.12,3.53.25,7-.89,10.45s-3.9,6.3-7.3,6.68" style="fill:none;stroke:#848484;stroke-miterlimit:10;stroke-width:2.3405964282453326px"/><path d="M139.62,10.65c5.41,3.52,9.19,9.07,11.84,15s3.9,12.22,5.29,18.52c2.27,10.45,4.66,21,6.93,31.49,2.39,10.7,4.78,21.66,10.2,31.36s15,18.39,25.82,20" style="fill:none;stroke:#848484;stroke-miterlimit:10;stroke-width:2.3405964282453326px"/><path d="M250.58,5.48c10.71,5.42,18,16.25,21.16,27.84s2.4,23.93.13,35.77c-1.89,9.57-4.79,19.14-10.08,27.33-5.16,7.81-12.47,14.11-20.4,19.15s-12.6,8.06-21.29,11.58" style="fill:none;stroke:#848484;stroke-miterlimit:10;stroke-width:2.3405964282453326px"/><path d="M66.94,60.4c.13,5,.63,7.93,4.16,9.32,4.16,1.51,10.2.75,14,.88,45.22,1.89,76.71,2.14,126.21,3.4,4.28.13,9.69,0,12.84-.12,4.29-.26,6.43-5,6.55-9.45.13-3.65-.88-7.05-4.28-8.44-2.77-1.13-5.67-1.51-9.32-2-21.16-2.64-40.56-2.64-64.61-3.4-21.29-.63-42.95-.37-64.24.51a74.24,74.24,0,0,0-14.49,1.26A7.94,7.94,0,0,0,66.94,60.4Z" style="fill:#fff;stroke:#000;stroke-miterlimit:10;stroke-width:2.3405964282453326px"/><path d="M229.3,58.63c-17.89,1.26-47.87-1.13-74.06-2.26-31.49-1.39-56.81-.63-87.42.25" style="fill:none;stroke:#000;stroke-miterlimit:10;stroke-width:2.3405964282453326px"/><path d="M133.07,72.11c8.06,19.15,6.8,37.66,4.28,57.06Q130.74,181.88,124,234.59c1.64,0,3.27.13,4.91.13-.25,1.26-.38,2.52-.63,3.52a42.64,42.64,0,0,1-4.66.38c-1.13,9.58-1.64,20.53-2.77,30.11,12,2.51,23.18,3.77,37.91,1.13,2.65-8.44,3.28-18.52,3.91-31a12.1,12.1,0,0,1-2.77-.37,16.8,16.8,0,0,1-.26-3.4,39.4,39.4,0,0,1,4-.38c2.89-23.18,8.43-70.91,10.2-94.22a236.21,236.21,0,0,1,6.55-38.66c3.15-12.6,8.56-16.63,13-28.34C175.64,73.12,146.17,72.49,133.07,72.11Z" style="fill:#fff;stroke:#000;stroke-miterlimit:10;stroke-width:2.3405964282453326px"/><path d="M138.36,79.17a1.86,1.86,0,0,0-1.13.25,1.73,1.73,0,0,0-.26,2.14c.88,1.51,2.9,1.76,4.54,1.89a87.2,87.2,0,0,0,18.13.12c1.52-.25,3-1.51,1.39-2.89a6.76,6.76,0,0,0-3.4-1.39,103.37,103.37,0,0,0-12.34-.63A64.6,64.6,0,0,1,138.36,79.17Z" style="fill:none;stroke:#000;stroke-miterlimit:10;stroke-width:2.3405964282453326px"/><path d="M148.44,78c0,.25,0,.51.12.63a1,1,0,0,0,.63.25h6.05a32.87,32.87,0,0,0,.5-5.92c-1.13,0-2.27-.12-3.4-.12-.76,0-2.39-.38-3.15,0s-.5,1.26-.5,1.89C148.56,75.76,148.56,76.9,148.44,78Z" style="fill:none;stroke:#000;stroke-miterlimit:10;stroke-width:2.3405964282453326px"/><path d="M180.68,72c-7.18,10.83-11.34,23.55-13.73,36.4s-3.4,25.82-4.66,38.79c-3,29.35-7.43,69.15-9.45,88.67" style="fill:none;stroke:#000;stroke-miterlimit:10;stroke-width:1.170235226853059px"/><path d="M128.91,234.72c10.58.38,21.16.5,31.74.25" style="fill:none;stroke:#000;stroke-miterlimit:10;stroke-width:2.3405964282453326px"/><path d="M127.9,238.5a158.63,158.63,0,0,0,31.87-.26" style="fill:none;stroke:#000;stroke-miterlimit:10;stroke-width:2.3405964282453326px"/><path d="M84.45-193.78c3.28,12.1,20.15,77.59,46.73,205.18l18.39-1.89s-41.31-197.24-47.86-205.3c-3.78-.76-11.72-.38-15.62-.13A1.69,1.69,0,0,0,84.45-193.78Z" style="fill:#fff;stroke:#000;stroke-miterlimit:10;stroke-width:2.3405964282453326px;opacity:0.5"/><path d="M98.56,164.69a188.57,188.57,0,0,1,26.7.63" style="fill:none;stroke:#000;stroke-miterlimit:10;stroke-width:2.3405964282453326px;opacity:0.5"/><path d="M181.69-191.64S228.29-9.13,229.17,6.11L244.41,5s-43.7-193.21-47.1-197.87S181.69-191.64,181.69-191.64Z" style="fill:#fff;stroke:#000;stroke-miterlimit:10;stroke-width:2.3405964282453326px;opacity:0.5"/><polygon points="233.83 127.03 224.76 141.64 236.22 148.31 247.56 126.78 233.83 127.03" style="fill:#fff;stroke:#000;stroke-miterlimit:10;stroke-width:2.3405964282453326px;opacity:0.5"/></g></g></g></svg>